# https://github.com/mikedh/trimesh
v 0.63477600 -0.43531500 0.47148400
v 0.63477600 -0.45338700 0.47148400
v 0.63477600 -0.41716600 0.45334100
v 0.61659900 -0.38086900 0.48962800
v 0.60756100 -0.38998100 0.51684300
v 0.61659900 -0.41716600 0.50777100
v 0.60454900 -0.41111600 0.53188000
v 0.63015700 -0.47375600 0.47148400
v 0.63477600 -0.48968400 0.43519700
v 0.60454900 -0.48363400 0.53188000
v 0.61057400 -0.49565700 0.51982500
v 0.61659900 -0.48968400 0.50777100
v 0.61208000 -0.51005300 0.50777100
v 0.63477600 -0.39901700 0.39891000
v 0.61659900 -0.36279700 0.45334100
v 0.60454900 -0.35674700 0.49571700
v 0.58938500 -0.33553600 0.51684300
v 0.60143500 -0.35973400 0.51075400
v 0.58938500 -0.35368400 0.53498700
v 0.60454900 -0.37489600 0.51386000
v 0.60756100 -0.35368400 0.48055600
v 0.58637200 -0.37489600 0.55002300
v 0.58637200 -0.46548600 0.56816700
v 0.63015700 -0.52820200 0.41705300
v 0.63477600 -0.52590400 0.39891000
v 0.59239700 -0.49565700 0.55611300
v 0.59239700 -0.53195400 0.53796900
v 0.60756100 -0.51235000 0.51684300
v 0.59390400 -0.54635000 0.52591500
v 0.61208000 -0.54635000 0.47148400
v 0.63477600 -0.39901700 0.14502400
v 0.59842300 -0.30835100 0.03616290
v 0.60454900 -0.33859900 0.45943000
v 0.57120800 -0.29931500 0.51684300
v 0.53495500 -0.24486900 0.53498700
v 0.51687900 -0.22672100 0.55313000
v 0.55313200 -0.29931500 0.55313000
v 0.57120800 -0.33553600 0.55313000
v 0.58335900 -0.35973400 0.54704100
v 0.56819500 -0.28415300 0.49571700
v 0.56819500 -0.35674700 0.56816700
v 0.55011900 -0.37489600 0.58631000
v 0.57432100 -0.47758500 0.57425600
v 0.55011900 -0.51985500 0.58631000
v 0.56819500 -0.53800300 0.56816700
v 0.61208000 -0.56442200 0.45334100
v 0.61659900 -0.56220100 0.43519700
v 0.63477600 -0.54405300 0.34447900
v 0.58938500 -0.51235000 0.55313000
v 0.58938500 -0.54857100 0.53498700
v 0.58938500 -0.56671900 0.51684300
v 0.59390400 -0.56442200 0.50777100
v 0.59842300 -0.30835100 0.01801930
v 0.63477600 -0.41716600 -0.39891000
v 0.61659900 -0.36279700 -0.41705300
v 0.58637200 -0.28415300 0.04225210
v 0.58637200 -0.30230200 0.44128600
v 0.55011900 -0.24793200 0.47757300
v 0.49568900 -0.17533800 0.53188000
v 0.49870200 -0.19050000 0.55313000
v 0.49870200 -0.20857200 0.57127400
v 0.51386600 -0.19348700 0.49571700
v 0.46244900 -0.17235200 0.58941700
v 0.51386600 -0.28415300 0.58631000
v 0.47751300 -0.26600400 0.60445400
v 0.45341100 -0.27205400 0.61663300
v 0.52591700 -0.38086900 0.59848900
v 0.56217000 -0.47153500 0.58034500
v 0.52591700 -0.52590400 0.59848900
v 0.53796800 -0.53195400 0.59240000
v 0.55614400 -0.55010200 0.57425600
v 0.57432100 -0.55010200 0.55611300
v 0.55313200 -0.56671900 0.57127400
v 0.57120800 -0.56671900 0.55313000
v 0.59390400 -0.60071900 0.45334100
v 0.60454900 -0.58640000 0.43519700
v 0.57582700 -0.60071900 0.50777100
v 0.61659900 -0.58035000 0.38076600
v 0.60454900 -0.60454800 0.38076600
v 0.63477600 -0.54405300 0.25388600
v 0.55313200 -0.60301700 0.55313000
v 0.57120800 -0.60301700 0.51684300
v 0.55313200 -0.62116500 0.53498700
v 0.59239700 -0.29625200 0.01205430
v 0.61057400 -0.35069800 -0.42314300
v 0.63477600 -0.47153500 -0.39891000
v 0.63015700 -0.44427400 -0.42612500
v 0.61659900 -0.41716600 -0.47148400
v 0.61208000 -0.39901700 -0.47372100
v 0.61208000 -0.38086900 -0.45557700
v 0.61208000 -0.36279700 -0.43743400
v 0.58637200 -0.28415300 0.02410860
v 0.43402900 -0.05197360 0.41581100
v 0.55011900 -0.22978400 0.16925700
v 0.56819500 -0.26600400 0.36871200
v 0.44126000 -0.06652310 0.44128600
v 0.45943600 -0.10282000 0.49571700
v 0.45642400 -0.12395500 0.54704100
v 0.49267700 -0.17840100 0.54704100
v 0.45642400 -0.10580700 0.51075400
v 0.46244900 -0.13605400 0.55313000
v 0.44427200 -0.11790600 0.57127400
v 0.42619600 -0.11790600 0.58941700
v 0.40802000 -0.13605400 0.60756100
v 0.42619600 -0.17235200 0.60756100
v 0.46244900 -0.24486900 0.60756100
v 0.37176700 -0.15420300 0.62570400
v 0.40802000 -0.22672100 0.62570400
v 0.39898100 -0.25398200 0.63465200
v 0.47148700 -0.34464800 0.61663300
v 0.39898100 -0.16323900 0.61663300
v 0.48966400 -0.47153500 0.61663300
v 0.47148700 -0.50775600 0.61663300
v 0.52591700 -0.54635000 0.59389100
v 0.53495500 -0.54857100 0.58941700
v 0.53796800 -0.58640000 0.57425600
v 0.58637200 -0.62262000 0.43519700
v 0.56819500 -0.62262000 0.48962800
v 0.56819500 -0.65891700 0.32633600
v 0.60454900 -0.60454800 0.18131100
v 0.61659900 -0.58035000 0.18131100
v 0.61659900 -0.56220100 -0.36262300
v 0.63477600 -0.50775600 -0.27202900
v 0.53495500 -0.62116500 0.55313000
v 0.54409400 -0.59849900 0.56220200
v 0.53495500 -0.64835000 0.51684300
v 0.54409400 -0.63471900 0.52591500
v 0.55011900 -0.64076900 0.50777100
v 0.59239700 -0.31440100 -0.44128600
v 0.57432100 -0.27810300 -0.42314300
v 0.61659900 -0.48968400 -0.47148400
v 0.63477600 -0.48968400 -0.38076600
v 0.60454900 -0.41716600 -0.49571700
v 0.58637200 -0.38086900 -0.51386000
v 0.59390400 -0.36279700 -0.49186500
v 0.59390400 -0.32650000 -0.45557700
v 0.43402900 -0.05197360 0.32521700
v 0.56819500 -0.26600400 -0.41108800
v 0.47751300 -0.12096900 -0.39294500
v 0.42489100 -0.05197360 0.47396900
v 0.42318400 -0.06652310 0.53188000
v 0.42619600 -0.08168520 0.55313000
v 0.42619600 -0.09975720 0.57127400
v 0.37176700 -0.06353660 0.58941700
v 0.33551400 -0.06353660 0.60756100
v 0.37176700 -0.09975720 0.60756100
v 0.33551400 -0.11790600 0.62570400
v 0.36272800 -0.18138800 0.63465200
v 0.39898100 -0.34464800 0.63465200
v 0.45341100 -0.52590400 0.61663300
v 0.47148700 -0.52820200 0.61203500
v 0.50774000 -0.56442200 0.59389100
v 0.50774000 -0.60071900 0.57574700
v 0.53495500 -0.59390400 0.57127400
v 0.55011900 -0.65891700 0.47148400
v 0.53194200 -0.67706600 0.43519700
v 0.51386600 -0.69521500 0.38076600
v 0.49568900 -0.71336300 0.21759800
v 0.56819500 -0.65891700 0.18131100
v 0.61208000 -0.58938600 0.17224000
v 0.58637200 -0.62262000 -0.34447900
v 0.60454900 -0.58640000 -0.36262300
v 0.61208000 -0.57123800 -0.37169400
v 0.61659900 -0.54405300 -0.41705300
v 0.47148700 -0.65891700 0.55002300
v 0.49870200 -0.65738600 0.53498700
v 0.52591700 -0.60454800 0.56816700
v 0.52591700 -0.65968300 0.50777100
v 0.53495500 -0.66649800 0.48055600
v 0.58938500 -0.31746400 -0.45793900
v 0.55313200 -0.26301800 -0.47608200
v 0.51989100 -0.20558600 -0.47757300
v 0.53796800 -0.22373400 -0.44128600
v 0.53194200 -0.21163500 -0.42910800
v 0.61208000 -0.53501700 -0.44426900
v 0.61208000 -0.49872000 -0.48055600
v 0.60454900 -0.48968400 -0.49571700
v 0.57120800 -0.33553600 -0.51224500
v 0.58938500 -0.35368400 -0.49410100
v 0.58637200 -0.50775600 -0.51386000
v 0.55011900 -0.38086900 -0.55002300
v 0.56819500 -0.36279700 -0.53188000
v 0.58938500 -0.33553600 -0.47608200
v 0.44126000 -0.06652310 -0.39294500
v 0.42489100 -0.05197360 -0.46899900
v 0.42037200 -0.05197360 0.49298300
v 0.40571000 -0.05197360 0.53262500
v 0.40802000 -0.06353660 0.55313000
v 0.37176700 -0.05197360 0.57127400
v 0.35359000 -0.05197360 0.58941700
v 0.32968900 -0.05197360 0.60172000
v 0.31070900 -0.05197360 0.61079200
v 0.31733700 -0.09975720 0.62570400
v 0.30528600 -0.11185600 0.63166900
v 0.30829900 -0.12701800 0.63465200
v 0.38080500 -0.36279700 0.63465200
v 0.45341100 -0.58035000 0.59848900
v 0.48966400 -0.56220100 0.59848900
v 0.39898100 -0.52590400 0.61663300
v 0.23569300 -0.68916500 0.58034500
v 0.47148700 -0.58257100 0.59389100
v 0.38080500 -0.69138600 0.55760400
v 0.36272800 -0.71336300 0.55002300
v 0.48966400 -0.62262000 0.56816700
v 0.52591700 -0.67783200 0.45334100
v 0.51687900 -0.68464700 0.44426900
v 0.49870200 -0.70271900 0.38983800
v 0.44427200 -0.73901600 0.28110100
v 0.45943600 -0.73143500 0.27202900
v 0.48363900 -0.71941300 0.21759800
v 0.45943600 -0.73143500 -0.39891000
v 0.51386600 -0.69521500 -0.41705300
v 0.55011900 -0.65891700 -0.41705300
v 0.56819500 -0.64076900 -0.39891000
v 0.58637200 -0.60454800 -0.43519700
v 0.59390400 -0.60753500 -0.35355100
v 0.59390400 -0.58938600 -0.44426900
v 0.61208000 -0.55308900 -0.42612500
v 0.39898100 -0.71336300 0.53188000
v 0.40802000 -0.72086800 0.51684300
v 0.39898100 -0.73220100 0.50777100
v 0.48966400 -0.69598000 0.47148400
v 0.51687900 -0.22672100 -0.51224500
v 0.51687900 -0.20857200 -0.49410100
v 0.42920900 -0.06047350 -0.47757300
v 0.59390400 -0.55308900 -0.48055600
v 0.58707500 -0.56220100 -0.48962800
v 0.60525200 -0.50775600 -0.48962800
v 0.58707500 -0.52590400 -0.50777100
v 0.55313200 -0.29931500 -0.51224500
v 0.49870200 -0.20857200 -0.53038900
v 0.56819500 -0.52590400 -0.53188000
v 0.55011900 -0.50775600 -0.55002300
v 0.54409400 -0.36279700 -0.55089300
v 0.52591700 -0.38086900 -0.56220200
v 0.51386600 -0.36279700 -0.56816700
v 0.49870200 -0.35368400 -0.57574700
v 0.53495500 -0.37183300 -0.55760400
v 0.53194200 -0.32650000 -0.55002300
v 0.49568900 -0.23583300 -0.55002300
v 0.41946800 -0.05197360 -0.48900600
v 0.40139200 -0.05197360 0.53921200
v 0.39647100 -0.05197360 0.54641900
v 0.38984300 -0.05197360 0.55313000
v 0.28962000 -0.05197360 0.61613500
v 0.29012200 -0.10887000 0.63465200
v 0.32637500 -0.30835100 0.63465200
v -0.07250760 -0.14516700 0.61663300
v -0.03625460 -0.18138800 0.61663300
v -0.01807800 -0.19953600 0.61663300
v 0.25386900 -0.45338700 0.61663300
v 0.19944000 -0.59849900 0.59848900
v 0.30829900 -0.67101600 0.58034500
v 0.36272800 -0.65286800 0.58034500
v 0.38080500 -0.65516500 0.57574700
v 0.19944000 -0.68916500 0.58034500
v 0.25386900 -0.72538600 0.56220200
v 0.36272800 -0.68916500 0.56220200
v 0.25386900 -0.74958400 0.55002300
v 0.33551400 -0.73901600 0.53498700
v 0.36272800 -0.73143500 0.53188000
v 0.30829900 -0.71941300 0.55611300
v 0.48052500 -0.70271900 0.46241200
v 0.37176700 -0.77531300 0.31726400
v 0.40802000 -0.75716500 0.29924500
v 0.35359000 -0.77531300 0.40798200
v 0.42318400 -0.74958400 0.29017300
v 0.33551400 -0.79346200 0.31726400
v 0.33551400 -0.79346200 -0.28110100
v 0.30227300 -0.81007900 -0.39891000
v 0.36272800 -0.77983100 -0.43519700
v 0.42318400 -0.74958400 -0.41705300
v 0.47751300 -0.71336300 -0.43519700
v 0.49568900 -0.69521500 -0.45334100
v 0.51386600 -0.65891700 -0.48962800
v 0.55011900 -0.64076900 -0.45334100
v 0.56819500 -0.62262000 -0.45334100
v 0.58707500 -0.59849900 -0.45334100
v 0.56899900 -0.63471900 -0.41705300
v 0.37176700 -0.73901600 0.51684300
v 0.38984300 -0.72998000 0.51684300
v 0.30829900 -0.76849800 0.50777100
v 0.32637500 -0.76849800 0.48962800
v 0.31733700 -0.77531300 0.48055600
v 0.38984300 -0.73901600 0.49869900
v 0.40802000 -0.73901600 0.46241200
v 0.49870200 -0.19050000 -0.51224500
v 0.42619600 -0.06353660 -0.49410100
v 0.56668900 -0.58938600 -0.49869900
v 0.57582700 -0.57123800 -0.49869900
v 0.56819500 -0.56220100 -0.51386000
v 0.46244900 -0.17235200 -0.54853200
v 0.39315700 -0.05197360 -0.54691700
v 0.44427200 -0.11790600 -0.53038900
v 0.55011900 -0.56220100 -0.53188000
v 0.51386600 -0.58035000 -0.55002300
v 0.51005000 -0.56220100 -0.55760400
v 0.52812600 -0.52590400 -0.55760400
v 0.52591700 -0.50775600 -0.56220200
v 0.50774000 -0.34464800 -0.56891300
v 0.48966400 -0.29020200 -0.56891300
v 0.48966400 -0.36279700 -0.58034500
v 0.48052500 -0.29931500 -0.57574700
v 0.43523400 -0.32650000 -0.59848900
v 0.44427200 -0.31746400 -0.59389100
v 0.42619600 -0.26301800 -0.59389100
v 0.40802000 -0.20857200 -0.59389100
v 0.45341100 -0.19953600 -0.56891300
v 0.46244900 -0.19050000 -0.55760400
v 0.41133400 -0.05197360 -0.51062900
v 0.27204600 -0.05197360 0.61663300
v 0.23569300 -0.09072120 0.63465200
v 0.27204600 -0.25398200 0.63465200
v -0.09058390 -0.12701800 0.61663300
v 0.14501000 -0.54405300 0.59848900
v 0.12693400 -0.65286800 0.58034500
v 0.30829900 -0.70731400 0.56220200
v 0.12693400 -0.72538600 0.56220200
v 0.12693400 -0.74958400 0.55002300
v 0.25386900 -0.76773200 0.53188000
v 0.32637500 -0.75034900 0.52591500
v 0.31733700 -0.79346200 0.40798200
v 0.27204600 -0.81612900 0.36262300
v 0.32637500 -0.79798000 0.30831600
v 0.29012200 -0.81612900 -0.29017300
v 0.30227300 -0.81007900 -0.29017300
v 0.29012200 -0.81612900 -0.39891000
v 0.32868500 -0.79346200 -0.43519700
v 0.36493800 -0.77531300 -0.45334100
v 0.38683000 -0.76773200 -0.43519700
v 0.44126000 -0.73143500 -0.45334100
v 0.42157700 -0.73449800 -0.48055600
v 0.47600600 -0.69820100 -0.48055600
v 0.49418300 -0.66198000 -0.51684300
v 0.53043600 -0.62568300 -0.51684300
v 0.53194200 -0.64076900 -0.48962800
v 0.56668900 -0.60753500 -0.48055600
v 0.57582700 -0.60753500 -0.46241200
v 0.26290700 -0.77531300 0.51684300
v 0.27204600 -0.78664700 0.48962800
v 0.29916000 -0.77531300 0.49869900
v 0.28108400 -0.79346200 0.46241200
v 0.29916000 -0.79346200 0.44426900
v 0.38984300 -0.06353660 -0.55760400
v 0.36795100 -0.05197360 -0.56742100
v 0.53043600 -0.58938600 -0.53498700
v 0.49418300 -0.60753500 -0.55313000
v 0.49187300 -0.59849900 -0.55760400
v 0.47379700 -0.56220100 -0.57574700
v 0.49187300 -0.52590400 -0.57574700
v 0.48966400 -0.50775600 -0.58034500
v 0.44427200 -0.20857200 -0.57574700
v 0.43523400 -0.48968400 -0.59848900
v 0.36272800 -0.27205400 -0.61663300
v 0.39898100 -0.21768500 -0.59848900
v 0.37176700 -0.13605400 -0.59389100
v 0.42619600 -0.17235200 -0.57574700
v 0.36272800 -0.09072120 -0.58705600
v 0.38080500 -0.07257260 -0.56891300
v -0.12693700 -0.05197360 0.61663300
v 0.23569300 -0.16323900 0.63465200
v 0.25386900 -0.21768500 0.63465200
v -0.12693700 -0.07257260 0.61663300
v 0.09078130 -0.61657100 0.58034500
v 0.07260460 -0.67101600 0.56220200
v 0.10885800 -0.70731400 0.56220200
v 0.11789600 -0.73449800 0.55760400
v 0.10885800 -0.74353400 0.55089300
v 0.10885800 -0.76773200 0.53188000
v 0.25386900 -0.81612900 0.39891000
v 0.21761600 -0.83427700 0.19945500
v 0.23569300 -0.83427700 -0.25388600
v 0.27204600 -0.81612900 -0.43519700
v 0.23569300 -0.83427700 -0.38076600
v 0.31050800 -0.79346200 -0.47148400
v 0.36724800 -0.77079500 -0.46241200
v 0.41936700 -0.73901600 -0.47148400
v 0.40350000 -0.73449800 -0.49869900
v 0.42318400 -0.71941300 -0.50168200
v 0.38532400 -0.73449800 -0.51684300
v 0.45943600 -0.68311500 -0.51982500
v 0.49418300 -0.64383200 -0.53498700
v 0.10885800 -0.78588100 0.49571700
v 0.25386900 -0.78588100 0.49571700
v 0.26290700 -0.79346200 0.48055600
v 0.36875400 -0.05442400 -0.56816700
v 0.35579900 -0.05197360 -0.57462900
v 0.45793000 -0.64383200 -0.55313000
v 0.47379700 -0.61657100 -0.55760400
v 0.47148700 -0.54405300 -0.58034500
v 0.41936700 -0.61657100 -0.57574700
v 0.38311400 -0.58035000 -0.59389100
v 0.41936700 -0.54405300 -0.59389100
v 0.41705800 -0.52590400 -0.59848900
v 0.32637500 -0.48968400 -0.61663300
v 0.36272800 -0.41716600 -0.61663300
v 0.25386900 -0.27205400 -0.63465200
v 0.21761600 -0.14516700 -0.63465200
v 0.34455200 -0.21768500 -0.61663300
v 0.27204600 -0.07257260 -0.61663300
v 0.36272800 -0.14516700 -0.59848900
v 0.35359000 -0.09975720 -0.59389100
v 0.31070900 -0.05197360 -0.59724600
v 0.34696200 -0.05197360 -0.57910300
v -0.16078000 -0.05197360 0.60706400
v -0.21510900 -0.05197360 0.58892000
v -0.13597500 -0.08168520 0.61203500
v 0.08164270 -0.62568300 0.57574700
v 0.06356640 -0.68005200 0.55760400
v 0.08164270 -0.69820100 0.55760400
v 0.05442790 -0.68916500 0.55089300
v 0.05442790 -0.72538600 0.53275000
v 0.07260460 -0.74353400 0.53275000
v 0.08164270 -0.75264700 0.53038900
v 0.09981940 -0.75264700 0.53946000
v 0.06356640 -0.75264700 0.52131700
v 0.08164270 -0.77079500 0.51224500
v 0.09078130 -0.77531300 0.51000800
v 0.23569300 -0.81612900 0.41705300
v 0.19944000 -0.83427700 0.23574200
v 0.21761600 -0.83427700 -0.39891000
v 0.25386900 -0.81612900 -0.45334100
v 0.27425500 -0.81153400 -0.45334100
v 0.27656500 -0.80701600 -0.46241200
v 0.31281800 -0.78886700 -0.48055600
v 0.33089400 -0.77079500 -0.49869900
v 0.36724800 -0.75264700 -0.49869900
v 0.34907100 -0.75264700 -0.51684300
v 0.34907100 -0.73449800 -0.53498700
v 0.43975300 -0.68005200 -0.53498700
v 0.09078130 -0.79346200 0.47372100
v 0.10885800 -0.79798000 0.47148400
v 0.25386900 -0.79798000 0.47148400
v 0.40350000 -0.68005200 -0.55313000
v 0.36724800 -0.66198000 -0.57127400
v 0.42157700 -0.62568300 -0.57127400
v 0.45562000 -0.63471900 -0.55760400
v 0.36493800 -0.65286800 -0.57574700
v 0.39898100 -0.61657100 -0.58034500
v 0.36272800 -0.58035000 -0.59848900
v 0.39898100 -0.54405300 -0.59848900
v 0.30829900 -0.50775600 -0.61663300
v 0.21761600 -0.34464800 -0.63465200
v 0.25386900 -0.29020200 -0.63465200
v 0.18136300 -0.07257260 -0.63465200
v 0.16318700 -0.05197360 -0.63465200
v 0.25386900 -0.05442400 -0.61663300
v 0.28108400 -0.06353660 -0.61203500
v 0.34455200 -0.10887000 -0.59848900
v 0.29012200 -0.05197360 -0.60433000
v -0.25628300 -0.05197360 0.56841500
v -0.22665800 -0.08168520 0.57574700
v 0.02721310 -0.62568300 0.55760400
v -0.13597500 -0.17235200 0.59389100
v 0.01214950 -0.61657100 0.55002300
v 0.03032620 -0.68916500 0.53188000
v 0.04538980 -0.69820100 0.53946000
v 0.04538980 -0.73449800 0.52131700
v 0.06055370 -0.75563300 0.51386000
v 0.06356640 -0.77079500 0.49410100
v 0.08164270 -0.78886700 0.47608200
v 0.16318700 -0.81612900 0.41705300
v 0.18136300 -0.83427700 0.23574200
v 0.19944000 -0.83427700 -0.39891000
v 0.18136300 -0.81612900 -0.45334100
v 0.24784400 -0.80402900 -0.47757300
v 0.25989500 -0.81007900 -0.46539500
v 0.29614800 -0.79193000 -0.48353800
v 0.27656500 -0.78886700 -0.49869900
v 0.29464100 -0.77079500 -0.51684300
v 0.32035000 -0.74958400 -0.53188000
v 0.33250100 -0.73748500 -0.53796900
v 0.31432400 -0.71941300 -0.55611300
v 0.33089400 -0.71635000 -0.55313000
v 0.36724800 -0.69820100 -0.55313000
v 0.07863000 -0.79193000 0.45943000
v 0.09078130 -0.79798000 0.45334100
v 0.14501000 -0.81612900 0.39891000
v 0.38683000 -0.68311500 -0.55611300
v 0.35057700 -0.66496700 -0.57425600
v 0.34455200 -0.65286800 -0.58034500
v 0.32637500 -0.59849900 -0.59848900
v 0.27204600 -0.52590400 -0.61663300
v 0.30829900 -0.67101600 -0.58034500
v 0.14501000 -0.34464800 -0.63465200
v -0.09058390 -0.05197360 -0.63465200
v 0.25627900 -0.05197360 -0.61539000
v -0.29253600 -0.05197360 0.55027200
v -0.29012600 -0.05442400 0.55089300
v -0.26291100 -0.08168520 0.55760400
v -0.23569600 -0.09072120 0.56891300
v -0.31352400 -0.05197360 0.53362000
v -0.31432800 -0.05442400 0.53188000
v 0.01214950 -0.68916500 0.51386000
v 0.00913683 -0.71635000 0.49410100
v 0.04237710 -0.73748500 0.51386000
v 0.02721310 -0.75264700 0.47608200
v 0.04538980 -0.77079500 0.45793900
v 0.16318700 -0.83427700 0.21759800
v 0.14501000 -0.81612900 -0.43519700
v 0.16318700 -0.83427700 -0.36262300
v 0.15414900 -0.80701600 -0.46241200
v 0.17523800 -0.80402900 -0.47757300
v 0.24784400 -0.78588100 -0.51386000
v 0.25989500 -0.79193000 -0.50168200
v 0.27807100 -0.77378200 -0.51982500
v 0.26592000 -0.76773200 -0.53188000
v 0.27807100 -0.75563300 -0.53796900
v 0.24181800 -0.73748500 -0.55611300
v 0.31432400 -0.68311500 -0.57425600
v 0.04237710 -0.77378200 0.44128600
v 0.06055370 -0.79193000 0.31428100
v 0.07260460 -0.79798000 0.30831600
v 0.10885800 -0.81612900 0.29017300
v 0.12693400 -0.81612900 0.38076600
v 0.29012200 -0.61657100 -0.59848900
v 0.18136300 -0.52590400 -0.61663300
v 0.23569300 -0.72538600 -0.56220200
v 0.21761600 -0.68916500 -0.58034500
v -0.01807800 -0.18138800 -0.63465200
v 0.14501000 -0.50775600 -0.61663300
v 0.12693400 -0.48968400 -0.61663300
v 0.05442790 -0.41716600 -0.61663300
v -0.09058390 -0.05442400 -0.63465200
v -0.10283600 -0.05197360 -0.63229100
v -0.31513100 -0.05197360 0.53150700
v -0.33220300 -0.05197360 0.50727400
v -0.31734000 -0.08168520 0.51224500
v -0.31734000 -0.09975720 0.49410100
v -0.33551700 -0.08168520 0.47608200
v -0.00903985 -0.69820100 0.47608200
v -0.00903985 -0.71635000 0.43979500
v -0.01205260 -0.71941300 0.42314300
v 0.02420040 -0.75563300 0.45943000
v 0.09078130 -0.81612900 0.01801930
v 0.14501000 -0.83427700 -0.14502400
v 0.07260460 -0.79798000 -0.39891000
v 0.06356640 -0.78886700 -0.42612500
v 0.06356640 -0.77079500 -0.48055600
v 0.12392100 -0.80096600 -0.45632300
v 0.13898500 -0.80402900 -0.45943000
v 0.14501000 -0.83427700 -0.32633600
v 0.11789600 -0.78886700 -0.48055600
v 0.13898500 -0.78588100 -0.49571700
v 0.19341400 -0.78588100 -0.51386000
v 0.22966700 -0.74958400 -0.55002300
v 0.03032620 -0.76773200 0.42910800
v 0.04840250 -0.78588100 0.30222700
v 0.07863000 -0.81007900 0.02410860
v 0.18136300 -0.61657100 -0.59848900
v 0.14501000 -0.59849900 -0.59848900
v 0.19944000 -0.72538600 -0.56220200
v 0.14501000 -0.70731400 -0.56220200
v 0.16318700 -0.67101600 -0.58034500
v -0.05433090 -0.12701800 -0.63465200
v 0.03635160 -0.39901700 -0.61663300
v -0.01807800 -0.32650000 -0.61663300
v 0.01817500 -0.47153500 -0.59848900
v -0.16319000 -0.10887000 -0.61663300
v -0.18126600 -0.07257260 -0.61663300
v -0.18126600 -0.05197360 -0.61663300
v -0.34063900 -0.05197360 0.49397700
v -0.33551700 -0.06353660 0.49410100
v -0.35359300 -0.06353660 0.45793900
v -0.36845600 -0.05197360 0.43482400
v -0.37026400 -0.05197360 0.42898300
v -0.37177000 -0.06353660 0.40350800
v -0.01205260 -0.70126400 0.45943000
v -0.00602714 -0.73143500 0.41108800
v -0.37478300 -0.06652310 0.38685600
v -0.03012880 -0.70126400 0.38685600
v -0.02410340 -0.71336300 0.37480100
v 0.01214950 -0.74958400 0.42910800
v 0.09078130 -0.81612900 -0.30831600
v 0.04840250 -0.78588100 -0.40499900
v 0.02721310 -0.77079500 -0.40798200
v 0.02721310 -0.75264700 -0.46241200
v 0.02721310 -0.73449800 -0.49869900
v 0.04538980 -0.73449800 -0.51684300
v 0.08164270 -0.75264700 -0.51684300
v 0.13597200 -0.77079500 -0.51684300
v 0.17523800 -0.76773200 -0.53188000
v 0.19341400 -0.74958400 -0.55002300
v 0.01214950 -0.76773200 0.19336600
v 0.06657920 -0.80402900 0.01205430
v 0.04237710 -0.79193000 -0.17522200
v 0.05442790 -0.79798000 -0.18131100
v 0.07863000 -0.81007900 -0.30222700
v 0.02721310 -0.51686800 -0.58941700
v 0.12693400 -0.65286800 -0.58034500
v 0.08164270 -0.64383200 -0.57127400
v 0.02721310 -0.58938600 -0.57127400
v 0.09981940 -0.66198000 -0.57127400
v 0.13898500 -0.73143500 -0.55002300
v 0.11789600 -0.71635000 -0.55313000
v 0.08164270 -0.69820100 -0.55313000
v 0.00009871 -0.45338700 -0.59848900
v -0.00903985 -0.48057100 -0.58941700
v -0.09972240 -0.33553600 -0.58941700
v -0.17222800 -0.13605400 -0.60756100
v -0.26291100 -0.06353660 -0.58941700
v -0.19703300 -0.05197360 -0.61327700
v -0.19351800 -0.05197360 -0.61414700
v -0.25146300 -0.05197360 -0.59513400
v -0.35811200 -0.05197360 0.45806300
v -0.37568700 -0.05197360 0.41009400
v -0.38141100 -0.05197360 0.38287900
v -0.38080800 -0.05442400 0.38076600
v -0.39115200 -0.05197360 0.29253400
v -0.04830550 -0.68311500 0.25985100
v -0.04228010 -0.69521500 0.24779600
v 0.06657920 -0.80402900 -0.31428100
v 0.01214950 -0.76773200 -0.38685600
v 0.01516220 -0.76474600 -0.40201700
v -0.00602714 -0.74958400 -0.40499900
v 0.01214950 -0.74958400 -0.44128600
v -0.00903985 -0.69820100 -0.49869900
v 0.02721310 -0.71635000 -0.51684300
v 0.01214950 -0.73143500 -0.47757300
v -0.00602714 -0.71336300 -0.47757300
v 0.12392100 -0.72844900 -0.54704100
v 0.10584500 -0.74659700 -0.52889700
v 0.12100900 -0.74958400 -0.53188000
v -0.00602714 -0.74958400 -0.02410860
v 0.03032620 -0.78588100 -0.18740100
v 0.05442790 -0.79798000 -0.27202900
v 0.02721310 -0.64383200 -0.55313000
v 0.00913683 -0.57123800 -0.57127400
v -0.06346950 -0.46242300 -0.57127400
v -0.11779900 -0.42627900 -0.55313000
v -0.28108800 -0.08168520 -0.57127400
v -0.27506200 -0.05748710 -0.58332800
v -0.27606600 -0.05197360 -0.58444600
v -0.38201300 -0.05197360 0.37952400
v -0.39115200 -0.05197360 0.23810300
v -0.38683400 -0.06047350 0.28408300
v -0.04228010 -0.69521500 -0.40499900
v 0.03032620 -0.78588100 -0.27799400
v -0.02410340 -0.71336300 -0.44128600
v -0.04529280 -0.64383200 -0.49869900
v -0.00903985 -0.68005200 -0.51684300
v -0.02711610 -0.69820100 -0.46241200
v -0.00903985 -0.64383200 -0.53498700
v 0.00913683 -0.62568300 -0.55313000
v -0.06346950 -0.51686800 -0.55313000
v -0.29916400 -0.09975720 -0.55313000
v -0.04529280 -0.58938600 -0.53498700
v -0.31734000 -0.06353660 -0.55313000
v -0.29785800 -0.05197360 -0.56990700
v -0.38683400 -0.06047350 0.22965300
v -0.37297500 -0.05197360 -0.41469200
v -0.36875700 -0.06047350 -0.42314300
v -0.04529280 -0.68005200 -0.42612500
v -0.35058100 -0.06047350 -0.49571700
v -0.08154570 -0.55308900 -0.51684300
v -0.35359300 -0.06353660 -0.48055600
v -0.34696500 -0.05197360 -0.51025700
v -0.33220300 -0.05197360 -0.53163100
v -0.31734000 -0.05197360 -0.55313000
v -0.36845600 -0.05197360 -0.44091300
v -0.35228800 -0.05197360 -0.49733200
f 389 437 391
f 395 443 444
f 395 442 443
f 394 441 395
f 393 441 394
f 392 441 393
f 392 440 441
f 388 391 437
f 391 439 440
f 391 481 439
f 391 438 481
f 391 435 438
f 391 436 435
f 388 436 391
f 388 437 389
f 391 440 392
f 395 444 396
f 397 486 446
f 395 440 442
f 402 448 403
f 400 449 401
f 400 402 449
f 400 448 402
f 400 447 448
f 400 446 447
f 400 445 446
f 399 445 400
f 398 445 399
f 397 445 398
f 397 446 445
f 397 524 486
f 397 555 524
f 397 520 555
f 397 485 520
f 397 443 485
f 397 444 443
f 395 441 440
f 388 435 436
f 382 430 434
f 385 433 419
f 373 423 375
f 373 422 423
f 373 421 422
f 371 374 372
f 371 421 374
f 371 464 421
f 371 501 464
f 373 374 421
f 371 542 501
f 371 499 536
f 371 463 499
f 371 420 463
f 403 448 450
f 370 419 420
f 369 418 383
f 369 417 418
f 371 536 542
f 375 423 424
f 375 424 425
f 375 425 376
f 385 432 433
f 383 385 384
f 383 432 385
f 383 431 432
f 383 418 431
f 382 434 388
f 381 430 382
f 380 430 381
f 380 434 430
f 380 429 434
f 380 428 429
f 378 380 379
f 378 428 380
f 378 427 428
f 376 427 378
f 376 428 427
f 376 425 426
f 388 434 435
f 376 426 428
f 425 505 469
f 406 452 453
f 434 479 435
f 434 473 479
f 434 475 473
f 432 478 462
f 432 515 478
f 432 477 515
f 431 477 432
f 435 479 480
f 431 476 477
f 429 475 434
f 429 474 475
f 429 473 474
f 429 472 473
f 429 471 472
f 428 471 429
f 428 507 471
f 431 461 476
f 435 480 438
f 438 480 481
f 439 481 440
f 453 490 489
f 453 491 490
f 452 491 453
f 452 490 491
f 452 489 490
f 451 489 452
f 451 488 489
f 448 487 450
f 447 487 448
f 446 487 447
f 443 517 485
f 443 483 517
f 442 483 443
f 440 484 482
f 440 481 484
f 440 483 442
f 440 482 483
f 428 470 507
f 426 470 428
f 425 470 426
f 425 469 470
f 416 496 459
f 416 458 496
f 413 416 414
f 412 416 413
f 412 458 416
f 411 453 455
f 411 458 412
f 411 457 458
f 411 456 457
f 411 455 456
f 409 411 410
f 409 453 411
f 408 453 409
f 407 453 408
f 407 454 453
f 406 454 407
f 406 453 454
f 416 459 417
f 406 451 452
f 417 459 460
f 417 461 431
f 425 468 505
f 424 468 425
f 424 467 468
f 423 467 424
f 422 467 423
f 422 505 467
f 422 504 505
f 422 466 504
f 422 503 466
f 422 465 503
f 421 465 422
f 421 464 465
f 419 432 462
f 419 433 432
f 419 463 420
f 419 462 463
f 417 431 418
f 417 460 461
f 369 416 417
f 325 374 327
f 369 415 414
f 308 359 344
f 308 358 359
f 308 357 358
f 308 352 357
f 307 357 352
f 307 356 357
f 307 401 356
f 308 344 309
f 307 355 401
f 304 306 305
f 304 355 306
f 304 354 355
f 304 396 354
f 304 353 396
f 303 307 352
f 302 353 304
f 306 355 307
f 311 360 312
f 312 360 363
f 312 363 361
f 323 420 371
f 323 370 420
f 322 370 323
f 322 343 370
f 320 369 339
f 319 367 368
f 319 368 369
f 318 367 319
f 318 366 367
f 316 366 318
f 316 365 366
f 316 364 365
f 315 364 316
f 314 364 315
f 314 363 364
f 313 363 314
f 313 362 363
f 302 351 353
f 301 352 308
f 301 303 352
f 298 351 299
f 284 385 342
f 284 341 385
f 284 343 285
f 284 342 343
f 282 284 283
f 282 341 284
f 282 385 341
f 282 340 385
f 282 339 340
f 282 320 339
f 282 321 320
f 280 321 282
f 278 338 337
f 277 338 278
f 453 489 488
f 277 337 338
f 277 335 337
f 285 343 322
f 323 371 372
f 285 322 286
f 287 294 310
f 298 350 351
f 297 350 298
f 297 349 350
f 297 348 349
f 296 348 297
f 296 347 348
f 295 335 346
f 295 347 296
f 295 346 347
f 293 344 345
f 293 310 294
f 292 344 293
f 292 309 344
f 291 335 295
f 289 337 335
f 289 291 290
f 289 335 291
f 287 310 288
f 369 414 416
f 323 372 325
f 325 372 374
f 358 403 404
f 358 402 403
f 356 358 357
f 356 402 358
f 356 449 402
f 356 401 449
f 355 400 401
f 358 404 387
f 355 399 400
f 354 398 399
f 354 397 398
f 354 444 397
f 354 396 444
f 353 390 394
f 353 395 396
f 353 394 395
f 354 399 355
f 358 387 359
f 359 387 386
f 360 405 363
f 368 415 369
f 368 414 415
f 368 413 414
f 368 412 413
f 368 411 412
f 367 411 368
f 367 410 411
f 365 408 409
f 365 367 366
f 365 410 367
f 365 409 410
f 364 408 365
f 363 408 364
f 363 407 408
f 363 406 407
f 363 405 406
f 361 363 362
f 351 390 353
f 349 394 390
f 349 393 394
f 349 392 393
f 334 381 382
f 334 380 381
f 334 379 380
f 333 379 334
f 332 379 333
f 332 378 379
f 332 376 378
f 332 377 376
f 331 377 332
f 329 331 330
f 329 377 331
f 329 376 377
f 329 375 376
f 328 375 329
f 328 373 375
f 327 374 373
f 327 373 328
f 334 382 335
f 323 325 324
f 335 382 347
f 339 383 384
f 349 391 392
f 349 389 391
f 349 351 350
f 349 390 351
f 348 388 389
f 348 389 349
f 347 388 348
f 347 382 388
f 345 386 387
f 344 386 345
f 344 359 386
f 342 370 343
f 342 419 370
f 342 385 419
f 339 369 383
f 339 385 340
f 339 384 385
f 335 347 346
f 453 488 455
f 549 587 626
f 455 492 493
f 578 619 620
f 578 618 579
f 578 641 618
f 578 617 641
f 577 619 578
f 577 616 619
f 577 615 616
f 578 620 617
f 577 614 615
f 575 614 576
f 575 613 614
f 575 612 613
f 574 612 575
f 574 588 612
f 572 611 584
f 571 611 572
f 576 614 577
f 579 618 596
f 579 596 595
f 579 595 580
f 586 638 626
f 586 625 638
f 585 625 586
f 584 625 585
f 584 638 625
f 584 613 638
f 584 615 613
f 584 624 615
f 584 611 624
f 582 594 583
f 582 623 594
f 580 582 581
f 580 623 582
f 580 622 623
f 580 594 622
f 580 621 594
f 580 595 621
f 571 610 611
f 586 626 587
f 571 609 610
f 570 609 571
f 557 597 559
f 556 597 557
f 555 557 559
f 553 596 593
f 553 595 596
f 553 594 595
f 553 583 594
f 558 589 598
f 553 590 554
f 552 583 553
f 551 592 589
f 551 591 592
f 551 590 591
f 551 554 590
f 551 589 558
f 550 554 551
f 553 593 590
f 558 598 597
f 559 597 598
f 559 598 599
f 570 608 609
f 570 607 608
f 569 584 573
f 569 572 584
f 567 570 568
f 567 606 570
f 566 606 567
f 564 605 565
f 562 564 563
f 562 605 564
f 560 604 602
f 560 601 604
f 560 603 561
f 560 602 603
f 559 601 560
f 559 600 601
f 559 599 600
f 570 606 607
f 588 626 612
f 589 592 598
f 590 593 591
f 637 650 652
f 637 642 639
f 637 653 642
f 637 652 653
f 635 652 650
f 635 651 652
f 632 649 633
f 640 654 646
f 632 648 649
f 631 648 632
f 630 647 646
f 630 645 647
f 630 646 631
f 629 645 630
f 628 645 629
f 628 644 645
f 631 646 648
f 640 646 655
f 640 655 647
f 640 647 641
f 654 661 657
f 277 336 335
f 652 656 653
f 652 660 656
f 651 660 652
f 648 659 649
f 648 658 659
f 648 657 658
f 646 657 648
f 646 654 657
f 646 647 655
f 643 645 644
f 643 647 645
f 642 653 656
f 641 647 643
f 640 656 654
f 640 642 656
f 627 643 644
f 618 643 627
f 618 641 643
f 617 642 640
f 601 632 633
f 601 631 632
f 601 630 631
f 601 629 630
f 599 601 600
f 599 629 601
f 598 629 599
f 598 628 629
f 596 618 627
f 594 621 595
f 594 623 622
f 592 644 628
f 592 627 644
f 592 628 598
f 591 627 592
f 591 596 627
f 591 593 596
f 601 633 604
f 549 626 588
f 607 634 608
f 609 635 650
f 617 639 642
f 617 620 639
f 617 640 641
f 616 620 619
f 615 620 616
f 615 639 620
f 615 637 639
f 613 615 614
f 612 638 613
f 612 626 638
f 611 615 624
f 611 637 615
f 611 650 637
f 611 636 650
f 609 611 610
f 609 636 611
f 609 650 636
f 608 634 609
f 455 488 492
f 549 586 587
f 548 585 549
f 493 528 494
f 493 527 528
f 493 526 527
f 492 526 493
f 486 524 525
f 485 523 520
f 485 522 523
f 494 528 495
f 485 521 522
f 484 519 516
f 484 518 519
f 484 509 518
f 484 510 509
f 483 550 517
f 483 516 550
f 482 484 516
f 485 517 521
f 495 528 529
f 495 529 530
f 495 530 531
f 500 501 542
f 500 541 502
f 500 543 541
f 500 540 543
f 500 539 540
f 500 538 539
f 500 537 538
f 499 535 536
f 499 514 535
f 499 515 514
f 497 511 498
f 497 534 511
f 497 533 534
f 497 532 533
f 497 531 532
f 495 497 496
f 495 531 497
f 482 516 483
f 500 542 537
f 480 484 481
f 478 515 499
f 465 502 503
f 464 501 500
f 464 500 465
f 462 499 463
f 462 478 499
f 461 498 476
f 461 497 498
f 465 500 502
f 460 497 461
f 459 496 497
f 458 495 496
f 458 494 495
f 456 458 457
f 456 494 458
f 456 493 494
f 455 493 456
f 459 497 460
f 466 503 545
f 466 545 504
f 467 505 468
f 477 514 515
f 476 514 477
f 476 513 514
f 476 512 513
f 476 511 512
f 476 498 511
f 473 508 509
f 473 475 474
f 473 480 479
f 473 510 480
f 473 509 510
f 472 508 473
f 471 508 472
f 471 507 508
f 470 505 506
f 470 506 507
f 469 505 470
f 480 510 484
f 502 541 543
f 502 543 544
f 502 544 503
f 535 588 574
f 535 549 588
f 534 573 547
f 534 569 573
f 533 572 569
f 533 571 572
f 533 570 571
f 535 574 542
f 533 568 570
f 531 533 532
f 531 568 533
f 531 567 568
f 531 566 567
f 531 565 566
f 531 564 565
f 530 563 564
f 533 569 534
f 535 542 536
f 537 575 538
f 537 542 574
f 548 584 585
f 547 584 548
f 547 573 584
f 545 582 583
f 545 581 582
f 544 581 545
f 539 544 543
f 539 581 544
f 539 580 581
f 539 579 580
f 539 578 579
f 539 577 578
f 539 576 577
f 539 575 576
f 539 543 540
f 538 575 539
f 537 574 575
f 530 564 531
f 528 530 529
f 528 563 530
f 528 562 563
f 513 549 514
f 512 549 513
f 512 548 549
f 511 548 512
f 511 547 548
f 511 534 547
f 509 552 518
f 509 583 552
f 509 546 583
f 507 509 508
f 507 546 509
f 504 506 505
f 504 507 506
f 504 546 507
f 504 583 546
f 504 545 583
f 503 544 545
f 514 549 535
f 549 585 586
f 516 519 550
f 517 551 521
f 527 562 528
f 525 560 561
f 524 560 525
f 524 559 560
f 524 555 559
f 523 597 556
f 523 558 597
f 523 551 558
f 522 551 523
f 521 551 522
f 520 557 555
f 520 556 557
f 520 523 556
f 519 554 550
f 519 553 554
f 519 552 553
f 518 552 519
f 517 550 551
f 275 277 276
f 112 149 113
f 275 335 336
f 85 136 129
f 85 91 136
f 84 130 92
f 84 129 130
f 84 85 129
f 83 127 128
f 83 126 127
f 86 131 87
f 83 124 126
f 82 83 128
f 81 125 124
f 81 116 125
f 81 124 83
f 80 122 123
f 80 121 122
f 80 120 121
f 82 128 118
f 86 132 131
f 87 131 88
f 88 131 177
f 93 293 345
f 93 310 293
f 93 241 310
f 93 185 241
f 93 137 185
f 93 95 94
f 93 140 96
f 92 139 137
f 92 138 139
f 92 130 138
f 90 136 91
f 89 136 90
f 89 135 136
f 89 134 135
f 89 133 134
f 88 133 89
f 88 177 133
f 79 117 119
f 93 345 387
f 79 159 120
f 77 118 117
f 66 109 110
f 66 108 109
f 66 107 108
f 65 106 66
f 63 65 64
f 63 106 65
f 63 105 106
f 66 110 67
f 63 104 105
f 63 102 103
f 61 102 63
f 60 102 61
f 60 101 102
f 60 98 101
f 60 99 98
f 59 100 98
f 63 103 104
f 66 106 105
f 66 105 111
f 66 111 107
f 77 82 118
f 76 117 79
f 75 77 117
f 75 117 76
f 73 81 74
f 73 116 81
f 73 115 116
f 70 73 71
f 70 115 73
f 70 114 115
f 69 114 70
f 69 151 114
f 69 113 151
f 69 112 113
f 67 69 68
f 67 112 69
f 67 110 112
f 79 119 159
f 93 387 404
f 93 404 403
f 93 403 450
f 103 146 104
f 103 145 146
f 103 144 145
f 103 143 144
f 102 142 143
f 102 143 103
f 98 141 142
f 104 146 147
f 98 100 141
f 98 142 102
f 97 140 141
f 97 141 100
f 96 140 97
f 93 186 140
f 93 187 186
f 93 242 187
f 98 102 101
f 104 147 107
f 104 107 111
f 104 111 105
f 114 152 116
f 113 150 151
f 113 149 150
f 109 112 110
f 109 149 112
f 109 196 149
f 109 247 196
f 109 313 247
f 109 362 313
f 109 361 362
f 109 312 361
f 109 246 312
f 109 195 246
f 109 148 195
f 108 148 109
f 107 148 108
f 107 147 148
f 93 243 242
f 93 244 243
f 93 189 244
f 93 190 189
f 93 651 635
f 93 660 651
f 93 661 660
f 93 657 661
f 93 658 657
f 93 659 658
f 93 649 659
f 93 633 649
f 93 604 633
f 93 602 604
f 93 603 602
f 93 561 603
f 93 525 561
f 93 486 525
f 93 446 486
f 93 487 446
f 93 450 487
f 93 635 609
f 59 97 100
f 93 609 634
f 93 607 606
f 93 191 190
f 93 192 191
f 93 245 192
f 93 311 245
f 93 360 311
f 93 405 360
f 93 406 405
f 93 451 406
f 93 488 451
f 93 492 488
f 93 526 492
f 93 527 526
f 93 562 527
f 93 605 562
f 93 565 605
f 93 566 565
f 93 606 566
f 93 634 607
f 114 116 115
f 59 62 97
f 59 98 99
f 16 21 17
f 15 56 33
f 15 32 56
f 15 33 21
f 14 32 15
f 14 53 32
f 14 31 53
f 17 34 35
f 13 29 30
f 11 26 27
f 11 13 12
f 11 28 13
f 11 27 28
f 10 26 11
f 10 23 26
f 9 24 25
f 13 28 29
f 17 35 36
f 17 36 19
f 17 19 18
f 25 46 47
f 24 46 25
f 24 30 46
f 23 45 26
f 23 44 45
f 23 43 44
f 23 42 43
f 23 41 42
f 22 41 23
f 22 39 41
f 21 40 34
f 21 33 40
f 19 39 22
f 19 38 39
f 19 37 38
f 19 36 37
f 17 21 34
f 8 30 24
f 25 47 78
f 8 13 30
f 7 22 23
f 1 6 7
f 1 5 6
f 1 4 5
f 1 3 4
f 1 14 3
f 1 31 14
f 1 54 31
f 1 7 10
f 1 86 54
f 1 123 132
f 1 80 123
f 1 48 80
f 1 25 48
f 1 9 25
f 1 2 9
f 654 656 660
f 1 132 86
f 1 10 2
f 2 8 24
f 2 24 9
f 7 19 22
f 5 7 6
f 5 19 7
f 5 20 19
f 4 21 16
f 4 15 21
f 4 20 5
f 4 19 20
f 4 18 19
f 4 17 18
f 4 16 17
f 3 15 4
f 3 14 15
f 2 13 8
f 2 12 13
f 2 11 12
f 2 10 11
f 7 23 10
f 25 78 48
f 26 45 49
f 26 49 27
f 51 82 77
f 50 83 51
f 50 81 83
f 50 74 81
f 49 72 74
f 49 74 50
f 48 120 80
f 51 77 52
f 48 79 120
f 47 79 78
f 47 76 79
f 46 77 75
f 46 52 77
f 46 76 47
f 46 75 76
f 45 74 72
f 48 78 79
f 51 83 82
f 53 55 85
f 53 85 84
f 58 97 62
f 57 95 93
f 57 97 58
f 57 96 97
f 57 93 96
f 56 95 57
f 56 94 95
f 56 93 94
f 56 137 93
f 56 92 137
f 55 91 85
f 54 91 55
f 54 90 91
f 54 89 90
f 54 88 89
f 54 87 88
f 54 86 87
f 45 73 74
f 45 71 73
f 45 72 49
f 44 71 45
f 35 59 60
f 34 40 35
f 33 56 57
f 33 58 40
f 33 57 58
f 32 92 56
f 32 84 92
f 32 53 84
f 31 55 53
f 31 54 55
f 29 46 30
f 29 52 46
f 29 51 52
f 29 50 51
f 28 50 29
f 27 50 28
f 27 49 50
f 35 60 36
f 59 99 60
f 35 40 59
f 36 61 37
f 44 70 71
f 43 70 44
f 43 69 70
f 43 68 69
f 43 67 68
f 42 67 43
f 42 66 67
f 42 65 66
f 42 64 65
f 41 64 42
f 41 63 64
f 41 61 63
f 40 58 62
f 40 62 59
f 38 41 39
f 38 61 41
f 37 61 38
f 36 60 61
f 275 336 277
f 114 151 152
f 116 154 125
f 217 227 226
f 217 278 227
f 215 217 216
f 215 278 217
f 215 279 278
f 214 279 215
f 213 279 214
f 219 261 280
f 213 278 279
f 213 276 277
f 212 276 213
f 212 275 276
f 212 274 275
f 212 273 274
f 212 330 273
f 212 272 330
f 213 277 278
f 219 280 281
f 219 281 220
f 220 281 221
f 227 229 228
f 227 291 229
f 227 290 291
f 227 289 290
f 225 288 241
f 224 288 225
f 224 287 288
f 224 231 287
f 223 231 224
f 222 286 263
f 221 286 222
f 221 285 286
f 221 284 285
f 221 283 284
f 221 282 283
f 221 280 282
f 221 281 280
f 211 272 212
f 227 278 337
f 210 272 211
f 210 270 271
f 202 255 258
f 201 255 202
f 200 257 253
f 200 318 257
f 200 256 318
f 199 252 256
f 197 255 201
f 202 258 203
f 197 254 255
f 197 200 253
f 196 252 199
f 196 251 252
f 196 250 251
f 196 249 250
f 196 248 249
f 196 247 248
f 197 253 254
f 203 259 260
f 203 260 261
f 203 261 219
f 210 269 270
f 210 268 269
f 210 264 268
f 210 267 264
f 209 267 210
f 208 267 209
f 208 265 267
f 207 266 264
f 207 263 266
f 207 265 208
f 207 264 265
f 206 263 207
f 206 222 263
f 205 222 206
f 203 262 259
f 203 317 262
f 203 258 317
f 210 271 272
f 227 337 289
f 229 291 232
f 231 240 292
f 264 266 322
f 264 267 265
f 263 322 266
f 263 286 322
f 261 321 280
f 260 321 261
f 260 320 321
f 264 322 268
f 259 320 260
f 259 319 369
f 257 262 317
f 257 259 262
f 257 319 259
f 257 318 319
f 256 316 318
f 254 258 255
f 259 369 320
f 268 322 323
f 268 323 324
f 268 324 325
f 275 334 335
f 274 334 275
f 274 333 334
f 274 332 333
f 274 331 332
f 273 331 274
f 273 330 331
f 271 330 272
f 271 329 330
f 271 328 329
f 271 327 328
f 270 325 327
f 270 326 325
f 270 327 271
f 268 270 269
f 268 326 270
f 268 325 326
f 253 258 254
f 253 317 258
f 253 257 317
f 252 316 256
f 237 303 301
f 236 302 237
f 235 351 302
f 235 299 351
f 234 301 239
f 234 300 301
f 234 237 300
f 234 238 237
f 233 298 299
f 233 297 298
f 233 296 297
f 233 295 296
f 232 291 295
f 232 295 233
f 231 294 287
f 231 293 294
f 231 292 293
f 237 301 300
f 194 246 195
f 237 302 304
f 237 305 306
f 252 315 316
f 250 252 251
f 249 252 250
f 248 252 249
f 248 315 252
f 248 314 315
f 248 313 314
f 247 313 248
f 245 312 246
f 245 311 312
f 241 288 310
f 240 309 292
f 240 308 309
f 239 308 240
f 239 301 308
f 237 307 303
f 237 306 307
f 237 304 305
f 116 153 154
f 193 245 246
f 192 245 193
f 140 186 141
f 139 185 184
f 139 174 185
f 138 174 139
f 137 184 185
f 137 139 184
f 136 183 170
f 141 187 188
f 135 183 136
f 134 182 178
f 134 181 182
f 134 233 181
f 134 180 233
f 134 179 135
f 134 178 179
f 133 180 134
f 135 179 183
f 141 188 142
f 141 186 187
f 142 188 143
f 150 199 256
f 150 196 199
f 150 198 151
f 150 197 198
f 149 196 150
f 148 194 195
f 147 194 148
f 147 193 194
f 145 147 146
f 145 193 147
f 145 192 193
f 145 191 192
f 144 188 189
f 144 191 145
f 144 190 191
f 144 189 190
f 143 188 144
f 133 177 180
f 150 256 200
f 131 164 175
f 131 176 177
f 122 163 218
f 121 163 122
f 121 160 163
f 120 163 160
f 120 162 163
f 120 161 162
f 120 159 161
f 122 218 164
f 120 160 121
f 119 157 158
f 119 156 157
f 119 155 156
f 117 155 119
f 117 128 155
f 117 118 128
f 116 152 153
f 119 158 159
f 122 164 132
f 122 132 123
f 124 165 166
f 131 175 176
f 130 174 138
f 130 173 174
f 130 172 173
f 129 172 130
f 129 171 172
f 129 170 171
f 129 136 170
f 126 155 128
f 126 169 155
f 126 168 169
f 126 166 168
f 126 128 127
f 124 167 165
f 124 154 167
f 124 125 154
f 124 166 126
f 131 132 164
f 150 200 197
f 151 198 152
f 152 201 153
f 178 182 240
f 178 183 179
f 178 230 183
f 177 229 180
f 177 228 229
f 176 228 177
f 176 227 228
f 178 240 231
f 176 226 227
f 175 226 176
f 175 217 226
f 174 225 185
f 173 225 174
f 172 224 225
f 172 225 173
f 171 224 172
f 175 218 217
f 178 231 230
f 180 229 232
f 180 232 233
f 188 244 189
f 188 243 244
f 188 242 243
f 187 242 188
f 185 225 241
f 183 231 223
f 183 230 231
f 182 239 240
f 182 234 239
f 181 238 234
f 181 237 238
f 181 236 237
f 181 302 236
f 181 235 302
f 181 299 235
f 181 233 299
f 181 234 182
f 171 223 224
f 171 183 223
f 170 183 171
f 169 221 222
f 158 210 211
f 158 209 210
f 157 206 207
f 157 209 158
f 157 208 209
f 157 207 208
f 156 206 157
f 156 205 206
f 155 205 156
f 155 169 205
f 153 201 202
f 153 167 154
f 153 204 167
f 153 203 204
f 153 202 203
f 152 197 201
f 152 198 197
f 158 211 212
f 193 246 194
f 158 212 159
f 159 213 214
f 169 222 205
f 168 221 169
f 167 204 203
f 166 221 168
f 166 220 221
f 166 219 220
f 165 219 166
f 165 203 219
f 165 167 203
f 164 218 175
f 163 217 218
f 163 216 217
f 162 216 163
f 161 216 162
f 161 215 216
f 161 214 215
f 159 214 161
f 159 212 213
f 654 660 661

