# https://github.com/mikedh/trimesh
v 0.08071630 0.36325900 0.76689800
v 0.06051950 0.32286500 0.90814300
v 0.14123600 0.34306200 0.76689800
v 0.09415720 0.35650300 0.76016100
v 0.09081480 0.35316100 0.75175300
v 0.08071630 0.35650300 0.75345000
v -0.09081480 0.35821000 0.75679300
v -0.08071630 0.36325900 0.76689800
v 0.05376350 0.31610900 0.92159100
v 0.07061790 0.31276700 0.91822300
v 0.11435400 0.29598400 0.92159100
v 0.12103900 0.30266800 0.90814300
v -0.06051950 0.32286500 0.90814300
v 0.16811800 0.32962100 0.77360900
v 0.18163000 0.32286500 0.76689800
v 0.15467700 0.33630600 0.76016100
v 0.06051950 0.26234600 0.66158500
v 0.15133400 0.33296400 0.75175300
v -0.08071630 0.35650300 0.75345000
v -0.08071630 0.26234600 0.66158500
v -0.15133400 0.33801300 0.75679300
v -0.14123600 0.34306200 0.76689800
v -0.12779500 0.29598400 0.92159100
v 0.06051950 0.30266800 0.92832900
v -0.06720430 0.31610900 0.92159100
v 0.12103900 0.28247200 0.92832900
v 0.13113700 0.29257000 0.91822300
v 0.20851100 0.30942400 0.77360900
v 0.19507000 0.31610900 0.76016100
v 0.12103900 0.24214900 0.66158500
v 0.19165700 0.31276700 0.75175300
v 0.14799200 0.22870800 0.66158500
v -0.14799200 0.22870800 0.66158500
v -0.19165700 0.31781600 0.75679300
v -0.20851100 0.30942400 0.76689800
v -0.15638300 0.33296400 0.77697800
v -0.14799200 0.33630600 0.78034700
v -0.12103900 0.28247200 0.92832900
v -0.06051950 0.30266800 0.92832900
v -0.18831400 0.31610900 0.78034700
v -0.19670600 0.31276700 0.77697800
v -0.13618700 0.29257000 0.91822300
v -0.19670600 0.25224700 0.91822300
v -0.18831400 0.25559000 0.92159100
v -0.20431500 0.24214900 0.92326300
v 0.18163000 0.24214900 0.92832900
v 0.19841300 0.23880700 0.92496000
v 0.20851100 0.24883400 0.91485400
v 0.22870800 0.22870800 0.91485400
v 0.28922800 0.22870800 0.77360900
v 0.29598400 0.21519600 0.76016100
v 0.25224700 0.25224700 0.75175300
v 0.20851100 0.16811800 0.66158500
v -0.19507000 0.19507000 0.66158500
v -0.20175500 0.30522900 0.75175300
v -0.28922800 0.22870800 0.76689800
v -0.22870800 0.22870800 0.90814300
v -0.20851100 0.24883400 0.90814300
v -0.18163000 0.24214900 0.92832900
v -0.22451200 0.22195200 0.92326300
v 0.24214900 0.18163000 0.92832900
v 0.23880700 0.19841300 0.92496000
v 0.24883400 0.20851100 0.91485400
v 0.32962100 0.14799200 0.77360900
v 0.34306200 0.12103900 0.76689800
v 0.33630600 0.13448000 0.76016100
v 0.33296400 0.13113700 0.75175300
v 0.31276700 0.17153100 0.75175300
v 0.29257000 0.21185400 0.75175300
v 0.22870800 0.12779500 0.66158500
v -0.22870800 0.14799200 0.66158500
v -0.29598400 0.20851100 0.75345000
v -0.28247200 0.22451200 0.75175300
v -0.29257000 0.21690300 0.75679300
v -0.32962100 0.14799200 0.76689800
v -0.31781600 0.17153100 0.77697800
v -0.29761900 0.21185400 0.77697800
v -0.25729700 0.19165700 0.91822300
v -0.24883400 0.20851100 0.90814300
v -0.24214900 0.18163000 0.92832900
v -0.24463800 0.20175500 0.92326300
v 0.26234600 0.14123600 0.92832900
v 0.29598400 0.09415720 0.92159100
v 0.28922800 0.12779500 0.91485400
v 0.25224700 0.19165700 0.91822300
v 0.36325900 0.04032260 0.76689800
v 0.30266800 0.10084200 0.90814300
v 0.35316100 0.05042100 0.75175300
v 0.26234600 0.06051950 0.66158500
v -0.26234600 0.08071630 0.66158500
v -0.33630600 0.12779500 0.75345000
v -0.33296400 0.13618700 0.75679300
v -0.34306200 0.12103900 0.76689800
v -0.33801300 0.13113700 0.77697800
v -0.29761900 0.11094100 0.91822300
v -0.28503200 0.12103900 0.92326300
v -0.26483500 0.16143300 0.92326300
v -0.26234600 0.14123600 0.92832900
v 0.28247200 0.10084200 0.92832900
v 0.29932600 0.03698020 0.92496000
v 0.31276700 0.03022420 0.91822300
v 0.36325900 -0.04032260 0.76689800
v 0.35821000 -0.05042100 0.75679300
v 0.35650300 0.04032260 0.75345000
v 0.26234600 -0.04032260 0.66158500
v -0.26234600 -0.06051950 0.66158500
v -0.35650300 0.04707860 0.75345000
v -0.36325900 0.04032260 0.76689800
v -0.35821000 0.05042100 0.77697800
v -0.31781600 0.03022420 0.91822300
v -0.31276700 0.03022420 0.92326300
v -0.29598400 0.10084200 0.92159100
v -0.28247200 0.10084200 0.92832900
v 0.28247200 -0.10084200 0.92832900
v 0.30266800 -0.04288280 0.92326300
v 0.31276700 -0.03527340 0.91822300
v 0.34306200 -0.12103900 0.76689800
v 0.30266800 -0.10084200 0.90814300
v 0.35650300 -0.04032260 0.75345000
v 0.33801300 -0.13113700 0.75679300
v 0.24214900 -0.10084200 0.66158500
v -0.24214900 -0.12103900 0.66158500
v -0.33630600 -0.11435400 0.75345000
v -0.35650300 -0.03356660 0.75345000
v -0.36325900 -0.04032260 0.76689800
v -0.31781600 -0.03022420 0.91822300
v -0.31276700 -0.03022420 0.92326300
v -0.28247200 -0.10084200 0.92832900
v 0.29598400 -0.10759800 0.92159100
v 0.26234600 -0.14123600 0.92832900
v 0.33630600 -0.12779500 0.78034700
v 0.32962100 -0.14799200 0.76689800
v 0.31781600 -0.17153100 0.75679300
v 0.23397100 -0.11727000 0.66158500
v -0.22870800 -0.14799200 0.66158500
v -0.32962100 -0.14799200 0.76016100
v -0.34306200 -0.12103900 0.76689800
v -0.30266800 -0.10084200 0.90814300
v -0.29598400 -0.11435400 0.91485400
v -0.29257000 -0.11094100 0.92326300
v -0.26234600 -0.14123600 0.92832900
v 0.27578700 -0.14799200 0.92159100
v 0.29598400 -0.20851100 0.78034700
v 0.24214900 -0.18163000 0.92832900
v 0.28922800 -0.22870800 0.76689800
v 0.29761900 -0.21185400 0.75679300
v 0.21377400 -0.15766400 0.66158500
v -0.20851100 -0.30942400 0.76016100
v -0.28922800 -0.22870800 0.76016100
v -0.16811800 -0.20851100 0.66158500
v -0.29598400 -0.21519600 0.77360900
v -0.33630600 -0.13448000 0.77360900
v -0.25559000 -0.19507000 0.91485400
v -0.25224700 -0.19165700 0.92326300
v -0.24214900 -0.18163000 0.92832900
v 0.25559000 -0.18831400 0.92159100
v 0.25224700 -0.19670600 0.91822300
v 0.29257000 -0.21690300 0.77697800
v 0.24214900 -0.20431500 0.92326300
v 0.18163000 -0.24214900 0.92832900
v 0.28503200 -0.22195200 0.75175300
v 0.24883400 -0.20851100 0.90814300
v 0.22870800 -0.22870800 0.90814300
v 0.20851100 -0.30942400 0.76689800
v 0.20851100 -0.16811800 0.66158500
v -0.18163000 -0.32286500 0.76689800
v -0.19507000 -0.31610900 0.77360900
v -0.19507000 -0.25559000 0.91485400
v -0.20851100 -0.24883400 0.90140600
v -0.22870800 -0.22870800 0.90140600
v -0.12779500 -0.22870800 0.66158500
v -0.16811800 -0.32962100 0.76016100
v -0.24883400 -0.20851100 0.90140600
v -0.19165700 -0.25224700 0.92326300
v -0.18163000 -0.24214900 0.92832900
v 0.22195200 -0.22451200 0.92326300
v 0.12103900 -0.28247200 0.92832900
v 0.20175500 -0.24463800 0.92326300
v 0.20431500 -0.30266800 0.75175300
v 0.20851100 -0.24883400 0.90814300
v 0.19670600 -0.31276700 0.75679300
v 0.19165700 -0.25729700 0.91822300
v 0.19165700 -0.31781600 0.77697800
v 0.15133400 -0.33801300 0.77697800
v 0.14123600 -0.34306200 0.76689800
v 0.15638300 -0.33296400 0.75679300
v 0.16811800 -0.20851100 0.66158500
v -0.14123600 -0.34306200 0.76689800
v -0.15467700 -0.33630600 0.77360900
v -0.13448000 -0.29598400 0.91485400
v -0.06051950 -0.26234600 0.66158500
v -0.15133400 -0.33296400 0.75679300
v -0.09081480 -0.35316100 0.75679300
v -0.08071630 -0.36325900 0.76689800
v -0.13113700 -0.29257000 0.92326300
v -0.12103900 -0.28247200 0.92832900
v 0.12103900 -0.29598400 0.92159100
v 0.13448000 -0.28922800 0.92159100
v 0.06051950 -0.30266800 0.92832900
v 0.13113700 -0.29761900 0.91822300
v 0.18831400 -0.31610900 0.75345000
v 0.09081480 -0.35821000 0.77697800
v 0.08071630 -0.36325900 0.76689800
v 0.14799200 -0.33630600 0.75345000
v 0.16520200 -0.21000500 0.66158500
v -0.06051950 -0.32286500 0.90814300
v -0.07396030 -0.31610900 0.91485400
v -0.07061790 -0.31276700 0.92326300
v -0.07396030 -0.35650300 0.75345000
v -0.13448000 -0.33630600 0.75345000
v 0.06051950 -0.26234600 0.66158500
v -0.06051950 -0.30266800 0.92832900
v 0.06051950 -0.31610900 0.92159100
v 0.07061790 -0.31781600 0.91822300
v 0.08740120 -0.35650300 0.75345000
v 0.06051950 -0.32286500 0.90814300
v -0.06051950 -0.31610900 0.92159100
f 1 2 12
f 135 148 149
f 133 146 147
f 133 145 146
f 132 145 133
f 132 143 145
f 131 143 132
f 129 143 131
f 129 142 143
f 129 144 142
f 129 130 144
f 128 140 141
f 127 140 128
f 126 140 127
f 126 139 140
f 126 138 139
f 126 137 138
f 125 137 126
f 123 125 124
f 123 137 125
f 123 136 137
f 122 136 123
f 122 135 136
f 120 134 121
f 135 149 136
f 120 147 134
f 135 150 148
f 136 151 137
f 145 179 161
f 145 164 179
f 145 163 164
f 145 157 162
f 145 158 157
f 145 161 146
f 144 176 159
f 144 160 176
f 144 159 156
f 143 158 145
f 143 157 158
f 143 156 157
f 142 156 143
f 142 144 156
f 141 154 155
f 140 154 141
f 139 154 140
f 139 153 154
f 139 151 153
f 139 152 151
f 137 151 152
f 137 139 138
f 137 152 139
f 136 149 151
f 146 161 165
f 120 133 147
f 117 129 131
f 100 116 101
f 100 115 116
f 100 114 115
f 99 114 100
f 96 113 98
f 96 112 113
f 95 112 96
f 95 111 112
f 95 110 111
f 94 110 95
f 94 109 110
f 93 109 94
f 93 108 109
f 91 93 92
f 91 108 93
f 91 107 108
f 90 107 91
f 90 124 107
f 90 106 124
f 89 119 105
f 89 104 119
f 88 104 89
f 86 116 102
f 102 117 120
f 120 132 133
f 102 120 103
f 102 118 117
f 117 118 129
f 117 132 120
f 117 131 132
f 116 129 118
f 115 129 116
f 114 130 129
f 114 129 115
f 111 113 112
f 111 128 113
f 111 127 128
f 110 127 111
f 110 126 127
f 108 110 109
f 108 126 110
f 108 125 126
f 107 125 108
f 107 124 125
f 106 123 124
f 106 122 123
f 105 120 121
f 103 105 119
f 103 120 105
f 103 119 104
f 102 116 118
f 86 101 116
f 146 165 147
f 148 167 168
f 191 215 209
f 191 211 215
f 191 210 192
f 191 209 210
f 190 208 195
f 190 207 208
f 190 206 207
f 190 194 206
f 188 190 189
f 188 194 190
f 187 201 205
f 185 204 186
f 185 203 204
f 184 203 185
f 184 202 203
f 184 214 202
f 184 200 214
f 183 200 184
f 182 200 183
f 181 204 201
f 181 186 204
f 179 201 187
f 179 181 201
f 192 210 209
f 178 182 180
f 192 209 193
f 194 203 216
f 213 217 214
f 208 217 212
f 206 214 217
f 206 216 214
f 206 208 207
f 206 217 208
f 204 211 205
f 204 215 211
f 203 215 204
f 202 216 203
f 202 214 216
f 201 204 205
f 199 217 213
f 199 212 217
f 197 214 200
f 197 213 214
f 197 199 213
f 197 200 198
f 195 212 196
f 195 208 212
f 194 215 203
f 194 209 215
f 194 216 206
f 193 209 194
f 148 166 167
f 178 200 182
f 177 199 197
f 160 178 176
f 160 177 178
f 159 163 162
f 159 176 163
f 157 159 162
f 156 159 157
f 154 175 155
f 154 174 175
f 153 174 154
f 153 168 174
f 153 170 168
f 153 173 170
f 149 153 151
f 149 173 153
f 149 170 173
f 148 188 166
f 148 172 188
f 148 191 172
f 148 171 191
f 148 150 171
f 148 170 149
f 148 169 170
f 148 168 169
f 161 179 187
f 178 198 200
f 161 187 165
f 163 178 180
f 177 198 178
f 177 197 198
f 175 195 196
f 174 195 175
f 174 190 195
f 172 194 188
f 172 193 194
f 172 192 193
f 172 191 192
f 168 190 174
f 168 170 169
f 167 190 168
f 167 189 190
f 166 189 167
f 166 188 189
f 164 186 181
f 164 185 186
f 164 184 185
f 164 183 184
f 164 182 183
f 164 180 182
f 164 181 179
f 163 180 164
f 163 176 178
f 86 87 101
f 145 162 163
f 86 103 104
f 22 37 23
f 22 36 37
f 21 35 22
f 21 34 35
f 21 33 34
f 20 33 21
f 18 32 30
f 18 31 32
f 18 29 31
f 17 33 20
f 17 54 33
f 17 71 54
f 17 90 71
f 17 106 90
f 17 122 106
f 17 135 122
f 17 150 135
f 17 171 150
f 17 191 171
f 17 211 191
f 17 205 211
f 17 187 205
f 17 165 187
f 22 35 36
f 17 147 165
f 23 38 39
f 23 37 40
f 24 130 114
f 24 144 130
f 24 160 144
f 24 177 160
f 24 199 177
f 24 212 199
f 24 196 212
f 24 175 196
f 24 155 175
f 24 141 155
f 24 128 141
f 24 113 128
f 24 98 113
f 24 80 98
f 24 59 80
f 24 38 59
f 24 39 38
f 23 45 38
f 23 44 45
f 23 43 44
f 23 42 43
f 23 41 42
f 23 40 41
f 23 39 25
f 24 114 99
f 17 134 147
f 17 105 121
f 5 18 30
f 5 17 6
f 4 18 5
f 4 16 18
f 3 29 16
f 3 15 29
f 3 28 15
f 3 14 28
f 3 12 14
f 2 25 9
f 2 13 25
f 2 11 12
f 2 10 11
f 2 9 10
f 1 13 2
f 1 8 13
f 1 7 8
f 1 6 7
f 1 5 6
f 86 104 88
f 1 16 4
f 1 3 16
f 1 12 3
f 5 30 17
f 17 121 134
f 6 17 20
f 6 19 7
f 17 89 105
f 17 70 89
f 17 53 70
f 17 32 53
f 17 30 32
f 16 29 18
f 15 28 29
f 13 23 25
f 12 28 14
f 12 27 28
f 11 24 26
f 11 27 12
f 11 26 27
f 9 39 24
f 9 25 39
f 9 11 10
f 9 24 11
f 8 23 13
f 8 22 23
f 7 22 8
f 7 21 22
f 7 20 21
f 7 19 20
f 6 20 19
f 24 99 82
f 1 4 5
f 24 61 46
f 65 87 86
f 65 67 66
f 65 88 67
f 65 86 88
f 64 87 65
f 64 84 87
f 63 85 84
f 62 85 63
f 62 84 85
f 62 83 84
f 61 83 62
f 61 82 83
f 60 81 80
f 57 81 60
f 57 79 81
f 56 79 57
f 56 78 79
f 56 77 78
f 56 76 77
f 56 75 76
f 56 72 75
f 56 74 72
f 56 73 74
f 67 88 89
f 54 73 55
f 67 89 70
f 71 90 72
f 24 82 61
f 86 102 103
f 83 101 87
f 83 100 101
f 83 99 100
f 82 99 83
f 80 96 98
f 80 97 96
f 80 81 97
f 78 97 81
f 78 96 97
f 78 95 96
f 78 94 95
f 78 81 79
f 76 78 77
f 76 94 78
f 75 94 76
f 75 93 94
f 75 92 93
f 72 90 91
f 72 74 73
f 72 92 75
f 72 91 92
f 67 70 68
f 54 72 73
f 83 87 84
f 53 68 70
f 35 42 41
f 35 58 42
f 35 57 58
f 35 56 57
f 35 73 56
f 35 55 73
f 35 41 36
f 34 55 35
f 33 55 34
f 33 54 55
f 32 52 53
f 31 52 32
f 29 52 31
f 29 51 52
f 28 51 29
f 28 50 51
f 28 49 50
f 28 48 49
f 27 48 28
f 27 47 48
f 26 47 27
f 26 46 47
f 54 71 72
f 36 41 40
f 36 40 37
f 24 46 26
f 42 58 43
f 38 45 59
f 52 69 53
f 53 69 68
f 51 69 52
f 51 68 69
f 51 67 68
f 51 66 67
f 51 64 65
f 50 84 64
f 50 63 84
f 50 64 51
f 51 65 66
f 49 62 63
f 43 58 45
f 43 45 44
f 49 63 50
f 45 57 60
f 45 60 80
f 45 58 57
f 46 61 62
f 46 62 47
f 47 62 49
f 47 49 48
f 45 80 59

