# https://github.com/mikedh/trimesh
v -0.28971600 -0.01520640 0.50318400
v -0.28461900 -0.01016300 0.49302100
v -0.28208700 -0.02284090 0.49556600
v -0.28208700 -0.03811000 0.51081100
v -0.28917300 -0.02992020 0.53102500
v -0.28971600 -0.01520640 0.53102500
v -0.28971600 0.01528550 0.50318400
v -0.26937700 0.11185100 0.46253200
v -0.27445700 -0.01520640 0.48793900
v -0.26682800 0.08390390 0.46507800
v -0.27700600 -0.03302030 0.50064800
v -0.28307300 -0.03908170 0.53102500
v -0.28705200 -0.03311290 0.53102500
v -0.26429600 -0.03556520 0.49810200
v -0.25921500 -0.04574460 0.51843800
v -0.27192500 -0.04319970 0.52097400
v -0.27393100 -0.04518940 0.53102500
v -0.27712100 -0.04306090 0.53102500
v -0.28971600 0.02787100 0.53102500
v -0.27445700 0.39641100 0.51843800
v -0.27445700 0.38118900 0.50318400
v -0.27445700 0.36592000 0.48793900
v -0.27445700 0.33542800 0.47269500
v -0.26937700 0.34051700 0.46253200
v -0.25921500 0.10676100 0.45745100
v -0.12175600 0.00001643 0.42740900
v -0.12175600 -0.00002983 0.42742900
v -0.23379500 -0.03556520 0.49810200
v -0.25413400 -0.04065490 0.50826500
v -0.25921500 -0.04574460 0.53102500
v -0.18298800 -0.04574460 0.51843800
v -0.27445700 0.39641100 0.53102500
v -0.27026400 0.40483300 0.53102500
v -0.26429600 0.41677000 0.51843800
v -0.27064300 0.39835500 0.50318400
v -0.27064300 0.38308600 0.48793900
v -0.26937700 0.37100900 0.47778700
v -0.26682800 0.38498300 0.48031200
v -0.26682800 0.35449100 0.46507800
v -0.25413400 0.37100900 0.46253200
v -0.25921500 0.33542800 0.45745100
v -0.12175600 0.00052540 0.42740900
v -0.12198700 0.06100030 0.53102500
v -0.15809400 -0.02959640 0.53102500
v -0.15898200 -0.03135460 0.53102500
v -0.16516400 -0.04056230 0.53102500
v -0.16705500 -0.04167280 0.53102500
v -0.16883100 -0.04255200 0.53102500
v -0.17790700 -0.04065490 0.50826500
v -0.12198700 0.41168100 0.53102500
v -0.18298800 -0.04574460 0.53102500
v -0.26429600 0.41677000 0.53102500
v -0.25413400 0.42186000 0.51843800
v -0.25158600 0.42310900 0.51081100
v -0.25921500 0.41168100 0.50318400
v -0.26682800 0.40025200 0.49556600
v -0.24395700 0.38627800 0.46761400
v -0.25921500 0.38118900 0.47269500
v -0.25158600 0.37734800 0.46507800
v -0.24395700 0.36592000 0.45745100
v -0.13724500 0.36592000 0.45745100
v -0.12961600 0.37355400 0.46126400
v -0.12708400 0.36592000 0.46253200
v -0.12198700 0.36592000 0.47269500
v -0.12198700 0.38118900 0.48793900
v -0.12198700 0.41168100 0.51843800
v -0.12465000 0.41700200 0.53102500
v -0.25413400 0.42186000 0.53102500
v -0.24395700 0.42695000 0.51843800
v -0.24395700 0.42186000 0.50826500
v -0.24395700 0.41677000 0.49810200
v -0.13724500 0.38627800 0.46761400
v -0.12580100 0.38118900 0.47079800
v -0.12580100 0.41168100 0.50127700
v -0.12708400 0.42186000 0.51334600
v -0.12708400 0.42186000 0.53102500
v -0.24395700 0.42695000 0.53102500
v -0.13724500 0.42695000 0.51843800
v -0.13724500 0.42186000 0.50826500
v -0.13724500 0.41677000 0.49810200
v -0.12961600 0.41931500 0.50699700
v -0.13724500 0.42695000 0.53102500
f 38 57 58
f 40 58 59
f 36 38 37
f 35 38 36
f 38 58 40
f 38 40 39
f 38 56 57
f 42 60 61
f 40 57 60
f 40 60 41
f 41 60 42
f 42 61 62
f 42 62 63
f 35 56 38
f 42 63 64
f 42 64 65
f 40 59 57
f 34 56 35
f 27 48 31
f 34 54 55
f 25 42 26
f 42 65 66
f 26 42 27
f 27 43 44
f 27 44 45
f 27 45 46
f 27 46 47
f 27 47 48
f 27 31 49
f 27 49 28
f 27 42 50
f 27 50 43
f 31 48 51
f 33 52 34
f 34 52 68
f 34 68 53
f 34 53 54
f 34 55 56
f 42 66 50
f 69 78 79
f 53 68 77
f 67 75 76
f 69 77 82
f 69 82 78
f 69 79 70
f 70 79 80
f 70 80 71
f 72 80 74
f 66 75 67
f 72 74 73
f 74 81 75
f 75 79 78
f 75 78 82
f 75 82 76
f 75 81 79
f 79 81 80
f 25 41 42
f 74 80 81
f 66 74 75
f 65 74 66
f 65 73 74
f 53 77 69
f 53 69 54
f 54 69 70
f 54 70 71
f 54 71 55
f 55 71 56
f 56 71 57
f 57 59 58
f 57 71 80
f 57 80 72
f 57 72 61
f 57 61 60
f 61 72 62
f 62 72 73
f 62 73 63
f 63 73 64
f 64 73 65
f 50 66 67
f 24 40 41
f 9 25 26
f 24 38 39
f 4 17 18
f 4 18 12
f 5 13 12
f 5 12 18
f 5 18 17
f 5 17 30
f 5 30 51
f 4 16 17
f 5 51 48
f 5 47 46
f 5 46 45
f 5 45 44
f 5 44 43
f 5 43 50
f 5 50 67
f 5 67 76
f 5 48 47
f 4 15 16
f 4 14 15
f 4 11 14
f 24 39 40
f 1 2 3
f 1 3 4
f 1 4 5
f 1 5 6
f 1 6 19
f 1 19 7
f 1 7 24
f 1 24 8
f 1 8 2
f 2 9 3
f 2 8 10
f 2 10 9
f 3 9 14
f 3 11 4
f 4 12 13
f 4 13 5
f 5 76 82
f 5 82 77
f 3 14 11
f 5 68 52
f 15 17 16
f 15 29 49
f 15 49 31
f 15 31 51
f 15 51 30
f 19 32 20
f 20 32 33
f 15 30 17
f 20 33 34
f 21 35 36
f 21 36 22
f 22 36 37
f 22 37 24
f 22 24 23
f 5 77 68
f 24 37 38
f 20 35 21
f 14 27 28
f 20 34 35
f 14 49 29
f 5 52 33
f 5 33 32
f 14 29 15
f 5 32 19
f 5 19 6
f 7 19 20
f 7 21 22
f 7 22 23
f 7 23 24
f 7 20 21
f 8 24 41
f 8 41 25
f 14 28 49
f 9 26 27
f 9 27 14
f 8 25 10
f 9 10 25

