# https://github.com/mikedh/trimesh
v -0.07626260 -0.09149120 0.53104000
v -0.07206230 -0.08310580 0.53104000
v -0.07492810 -0.09415700 0.53104000
v -0.20330100 -0.06607630 0.62009300
v -0.20373900 -0.06382720 0.61963800
v -0.07116530 -0.08132380 0.53104000
v -0.07116530 -0.10165100 0.53104000
v -0.09910200 -0.12960300 0.57181500
v -0.20583900 -0.06861990 0.63278900
v -0.20555500 -0.06382720 0.62234100
v -0.20470200 -0.06382720 0.62106500
v -0.05613590 -0.06382720 0.53104000
v -0.06101450 -0.10673200 0.53104000
v -0.10164000 -0.13214700 0.67599400
v -0.08641350 -0.13214700 0.56927900
v -0.07626260 -0.13723400 0.57943900
v -0.09151080 -0.13341800 0.58135300
v -0.09151080 -0.13723400 0.67090700
v -0.20583900 -0.06861990 0.63660100
v -0.20822400 -0.06382720 0.63040500
v -0.00625673 -0.06382720 0.53104000
v -0.00002183 -0.10673200 0.53104000
v -0.09151080 -0.13214700 0.68108200
v -0.09910200 -0.12960300 0.68234200
v -0.07116530 -0.13214700 0.56927900
v -0.07626260 -0.13723400 0.67090700
v -0.20104800 -0.06382720 0.63900000
v -0.20743600 -0.06382720 0.63581100
v -0.09151080 -0.12197900 0.68615400
v -0.00634424 -0.06382720 0.53138900
v -0.00509726 -0.08132380 0.63534000
v 0.01015090 -0.08132380 0.55910400
v 0.00356597 -0.07266530 0.53104000
v 0.01015090 -0.10165100 0.53104000
v 0.00761319 -0.10292300 0.57181500
v -0.00002183 -0.10673200 0.56419200
v -0.07626260 -0.13214700 0.68108200
v -0.06862760 -0.13341800 0.67853000
v -0.10673700 -0.06382720 0.63934900
v -0.09151080 -0.10673200 0.68615400
v -0.09656430 -0.09657850 0.68108200
v -0.06608990 -0.08132380 0.66583500
v -0.07626260 -0.12197900 0.68615400
v -0.00859755 -0.06382720 0.54036400
v -0.00002183 -0.09149120 0.64041300
v 0.01522630 -0.09149120 0.56419200
v -0.01527000 -0.07624370 0.64041300
v -0.01780770 -0.07878730 0.65312400
v -0.01017270 -0.08641110 0.66074700
v 0.01257920 -0.08616680 0.53104000
v 0.01015090 -0.08132380 0.53104000
v 0.01435130 -0.09326600 0.53104000
v 0.01015090 -0.10165100 0.56419200
v -0.00763497 -0.10292300 0.64803600
v -0.06608990 -0.12706600 0.68108200
v -0.02288310 -0.10292300 0.66328300
v -0.02034540 -0.09657850 0.66583500
v -0.09398290 -0.06382720 0.63793700
v -0.03559360 -0.08132380 0.66583500
v -0.03051810 -0.07624370 0.65566000
v -0.07626260 -0.10673200 0.68615400
v -0.08133800 -0.09657850 0.68108200
v -0.03051810 -0.09149120 0.67090700
v -0.08483830 -0.06382720 0.63183200
v -0.00509726 -0.09657850 0.65058700
v -0.00509726 -0.10165100 0.64041300
v 0.01522630 -0.09149120 0.53104000
v -0.09345780 -0.06382720 0.63758800
f 31 48 49
f 32 50 51
f 31 49 45
f 32 46 50
f 32 51 33
f 37 55 43
f 34 53 35
f 35 53 66
f 35 66 54
f 35 54 38
f 37 38 55
f 31 47 48
f 34 52 53
f 31 44 47
f 23 37 43
f 31 45 46
f 30 44 31
f 29 61 40
f 29 43 61
f 27 42 39
f 27 41 42
f 27 40 41
f 27 29 40
f 26 38 37
f 26 35 38
f 26 36 35
f 23 43 29
f 38 54 56
f 23 29 24
f 31 46 32
f 38 56 57
f 45 53 46
f 39 42 59
f 22 35 36
f 59 61 63
f 59 62 61
f 58 60 68
f 54 57 56
f 54 65 57
f 54 66 65
f 49 59 63
f 49 57 65
f 60 64 68
f 48 59 49
f 48 60 59
f 47 60 48
f 47 64 60
f 38 57 55
f 46 67 50
f 46 53 52
f 45 49 65
f 45 66 53
f 45 65 66
f 44 64 47
f 43 63 61
f 43 57 63
f 43 55 57
f 41 59 42
f 41 62 59
f 40 62 41
f 40 61 62
f 39 60 58
f 39 59 60
f 46 52 67
f 22 34 35
f 49 63 57
f 21 31 32
f 5 58 68
f 5 39 58
f 5 27 39
f 5 28 27
f 5 20 28
f 5 10 20
f 5 11 10
f 4 7 8
f 4 11 5
f 4 10 11
f 4 9 10
f 4 8 9
f 3 7 4
f 2 5 6
f 5 68 64
f 1 4 5
f 1 7 3
f 1 13 7
f 1 22 13
f 1 34 22
f 1 52 34
f 1 67 52
f 1 50 67
f 1 51 50
f 1 33 51
f 1 21 33
f 1 12 21
f 1 6 12
f 1 2 6
f 21 32 33
f 1 3 4
f 5 64 44
f 1 5 2
f 5 30 21
f 21 30 31
f 5 44 30
f 19 29 27
f 19 24 29
f 19 28 20
f 19 27 28
f 18 37 23
f 18 26 37
f 16 18 17
f 16 36 26
f 16 22 36
f 16 25 22
f 15 25 16
f 14 24 19
f 14 23 24
f 16 26 18
f 8 15 16
f 14 18 23
f 7 13 8
f 8 14 9
f 8 13 15
f 8 16 17
f 5 12 6
f 8 17 18
f 9 19 20
f 9 20 10
f 9 14 19
f 13 22 25
f 13 25 15
f 8 18 14
f 5 21 12

