# https://github.com/mikedh/trimesh
v -0.12132000 0.14502200 0.07793380
v -0.11436200 0.16011400 0.08006910
v -0.11005700 0.14502200 0.07849350
v -0.19748600 0.14502200 0.19893700
v -0.25921400 0.16773900 0.15250100
v -0.26684100 0.17536300 0.14487200
v -0.25921400 0.18298800 0.13724400
v -0.25921400 0.28971500 0.13724400
v -0.09150120 0.28971500 0.13724400
v -0.08387410 0.29734000 0.14105800
v -0.10782100 0.14502200 0.08297130
v -0.08132480 0.28971500 0.14232300
v -0.20193700 0.14502200 0.21346900
v -0.25921400 0.16773900 0.27445800
v -0.26936900 0.17282700 0.15758000
v -0.27446800 0.18298800 0.15250100
v -0.26936900 0.18807600 0.14232300
v -0.26936900 0.29478800 0.14232300
v -0.25921400 0.29987600 0.14232300
v -0.09150120 0.29987600 0.14232300
v -0.08132480 0.29987600 0.14740100
v -0.10780000 0.14502200 0.08305420
v -0.07624700 0.28971500 0.15250100
v -0.07624700 0.18298800 0.15250100
v -0.08007100 0.17536300 0.14487200
v -0.20193700 0.14502200 0.22870600
v -0.25921400 0.17282700 0.28461600
v -0.26684100 0.17536300 0.28590100
v -0.26936900 0.17282700 0.27953700
v -0.20060000 0.14502200 0.23142200
v -0.19520900 0.14502200 0.24220200
v -0.19167700 0.14502200 0.24396400
v -0.17924400 0.14502200 0.24769500
v -0.27446800 0.28971500 0.15250100
v -0.27446800 0.18298800 0.27445800
v -0.26684100 0.30114400 0.14487200
v -0.25921400 0.30494800 0.15250100
v -0.09150120 0.30494800 0.15250100
v -0.08132480 0.29987600 0.26937900
v -0.06099280 0.25921700 0.21346900
v -0.10675500 0.14502200 0.09149150
v -0.06099280 0.21348600 0.19821200
v -0.08132480 0.17282700 0.15250100
v -0.10487500 0.14502200 0.10768200
v -0.09150120 0.17282700 0.28461600
v -0.25921400 0.18298800 0.28971600
v -0.25921400 0.28971500 0.28971600
v -0.26936900 0.28971500 0.28461600
v -0.26936900 0.18298800 0.28461600
v -0.09150120 0.18298800 0.28971600
v -0.14875700 0.14502200 0.24769500
v -0.27446800 0.28971500 0.27445800
v -0.27064400 0.29734000 0.28208700
v -0.26936900 0.29987600 0.15250100
v -0.25921400 0.30494800 0.27445800
v -0.26936900 0.29987600 0.27445800
v -0.09150120 0.30494800 0.27445800
v -0.08387410 0.29734000 0.28208700
v -0.07624700 0.28971500 0.27445800
v -0.06099280 0.21348600 0.22870600
v -0.08132480 0.17282700 0.27445800
v -0.10437300 0.14502200 0.12437000
v -0.08387410 0.17154300 0.28208700
v -0.26429100 0.29987600 0.28461600
v -0.09150120 0.28971500 0.28971600
v -0.08132480 0.17790000 0.28461600
v -0.13995900 0.14502200 0.24124800
v -0.09657890 0.29987600 0.28461600
v -0.08132480 0.28462700 0.28461600
v -0.07624700 0.18298800 0.27445800
v -0.13352300 0.14502200 0.23243800
f 35 53 52
f 35 49 53
f 40 60 42
f 36 55 37
f 34 53 54
f 34 54 36
f 36 54 56
f 39 59 40
f 37 55 57
f 37 57 38
f 39 57 58
f 39 58 59
f 34 52 53
f 36 56 55
f 28 50 46
f 23 40 42
f 28 35 29
f 40 59 60
f 22 25 41
f 23 42 24
f 24 42 43
f 24 43 25
f 25 43 44
f 28 45 50
f 25 44 41
f 27 51 45
f 27 45 28
f 28 46 47
f 28 47 48
f 28 48 49
f 28 49 35
f 27 33 51
f 42 60 61
f 62 63 71
f 43 61 62
f 63 67 71
f 21 57 39
f 61 63 62
f 61 66 63
f 61 70 66
f 60 70 61
f 59 70 60
f 59 66 70
f 59 69 66
f 58 69 59
f 58 65 69
f 58 68 65
f 57 68 58
f 55 68 57
f 55 64 68
f 53 55 56
f 53 64 55
f 43 62 44
f 45 51 63
f 46 50 65
f 46 65 47
f 47 64 53
f 47 53 48
f 42 61 43
f 47 65 68
f 48 53 49
f 50 63 66
f 50 66 69
f 50 69 65
f 51 67 63
f 53 56 54
f 47 68 64
f 21 38 57
f 45 63 50
f 21 39 40
f 5 29 15
f 5 14 29
f 5 26 14
f 5 13 26
f 4 13 5
f 3 12 11
f 3 10 12
f 2 8 9
f 2 10 3
f 2 9 10
f 1 8 2
f 1 7 8
f 1 6 7
f 1 5 6
f 1 13 4
f 1 26 13
f 1 30 26
f 21 40 23
f 1 2 3
f 1 3 11
f 1 11 22
f 1 22 41
f 1 41 44
f 5 15 6
f 1 44 62
f 1 71 67
f 1 67 51
f 1 51 33
f 1 33 32
f 1 32 31
f 1 31 30
f 1 62 71
f 6 15 16
f 1 4 5
f 6 17 7
f 14 32 33
f 14 33 27
f 15 29 35
f 15 35 16
f 16 18 17
f 16 35 52
f 14 31 32
f 16 52 34
f 18 36 19
f 19 36 37
f 19 37 38
f 19 38 20
f 6 16 17
f 20 38 21
f 18 34 36
f 14 30 31
f 16 34 18
f 7 18 8
f 7 17 18
f 14 26 30
f 8 18 19
f 8 19 20
f 8 20 9
f 9 20 10
f 10 21 12
f 10 20 21
f 11 23 24
f 11 24 25
f 11 25 22
f 12 21 23
f 14 27 28
f 14 28 29
f 11 12 23

