# https://github.com/mikedh/trimesh
v 0.23763700 0.52732900 -0.60675800
v 0.26812200 0.51208200 -0.60675800
v 0.23191100 0.52732900 -0.60675800
v 0.19707600 0.45420400 -0.47386300
v 0.21981600 0.44852200 -0.47386300
v 0.28653000 0.50001700 -0.60675800
v 0.21847600 0.51639700 -0.60675800
v 0.20205000 0.49555800 -0.57180100
v 0.17789700 0.46252900 -0.51844700
v 0.17809900 0.44765900 -0.47386300
v 0.18753300 0.45244200 -0.47386300
v 0.19153400 0.45350300 -0.47386300
v 0.19500200 0.45420400 -0.47386300
v 0.24512500 0.41286800 -0.47386300
v 0.25158500 0.41934000 -0.48032900
v 0.26683700 0.41934000 -0.49557600
v 0.33228500 0.46952300 -0.60675800
v 0.21618200 0.51450900 -0.60675800
v 0.20331600 0.49809300 -0.57942400
v 0.17789700 0.46252900 -0.56417700
v 0.15249600 0.41171700 -0.47386300
v 0.16227800 0.43127900 -0.47386300
v 0.17154700 0.44981700 -0.49557600
v 0.20985000 0.50800000 -0.60675800
v 0.16266400 0.43203400 -0.47386300
v 0.25030100 0.40279900 -0.47386300
v 0.33674400 0.46060500 -0.60675800
v 0.25217300 0.39530100 -0.47386300
v 0.26301900 0.39837600 -0.48795200
v 0.19314900 0.47777600 -0.60675800
v 0.17281300 0.45235200 -0.56417700
v 0.15249600 0.41171700 -0.50320000
v 0.20331600 0.49809300 -0.60675800
v 0.14924800 0.39495900 -0.47386300
v 0.33674400 0.45871700 -0.60675800
v 0.24921800 0.38499900 -0.47386300
v 0.25413600 0.39138100 -0.47777900
v 0.24835500 0.38341600 -0.47386300
v 0.24787800 0.38258900 -0.47386300
v 0.26428600 0.39138100 -0.50320000
v 0.33228500 0.44061100 -0.60675800
v 0.30877400 0.42887000 -0.56417700
v 0.18806500 0.46759900 -0.60675800
v 0.17028000 0.44472800 -0.56164000
v 0.16266400 0.40662900 -0.52353400
v 0.15365200 0.38005400 -0.47386300
v 0.17536400 0.43458800 -0.57180100
v 0.24905300 0.37613400 -0.48795200
v 0.23381900 0.36088700 -0.47386300
v 0.27953700 0.39138100 -0.54892900
v 0.29734000 0.40028200 -0.58704800
v 0.31257300 0.41552900 -0.60229600
v 0.31406000 0.41626600 -0.60675800
v 0.18806500 0.46443500 -0.60675800
v 0.16011300 0.37358100 -0.48032900
v 0.17536400 0.41934000 -0.55655300
v 0.16011300 0.37358100 -0.47386300
v 0.18845000 0.46290600 -0.60675800
v 0.19283700 0.45204600 -0.60675800
v 0.25158500 0.36976900 -0.51082400
v 0.22306400 0.35110600 -0.47386300
v 0.29987300 0.40154000 -0.59467200
v 0.30113900 0.40409300 -0.60229600
v 0.30225900 0.40630500 -0.60675800
v 0.17536400 0.37358100 -0.49557600
v 0.17789700 0.36088700 -0.47777900
v 0.17004200 0.36480700 -0.47386300
v 0.16659100 0.36712600 -0.47386300
v 0.22110100 0.40409300 -0.57180100
v 0.20586700 0.38884600 -0.54130600
v 0.23978400 0.42385300 -0.60675800
v 0.23761900 0.42225300 -0.60446800
v 0.25413600 0.37104600 -0.51844700
v 0.21232800 0.34366200 -0.47386300
v 0.28970500 0.39647000 -0.59467200
v 0.29478900 0.40154000 -0.60483300
v 0.29789100 0.40393200 -0.60675800
v 0.20586700 0.35833400 -0.49557600
v 0.17712600 0.36009600 -0.47386300
v 0.20840000 0.34564000 -0.47777900
v 0.20761100 0.34484900 -0.47386300
v 0.26905800 0.40630500 -0.60675800
v 0.25158500 0.38884600 -0.57180100
v 0.29288000 0.40249300 -0.60675800
f 45 47 56
f 41 51 52
f 41 52 53
f 41 48 50
f 43 54 44
f 44 54 47
f 45 55 46
f 47 58 59
f 46 55 57
f 47 54 58
f 47 59 56
f 48 49 50
f 49 60 50
f 49 61 60
f 50 60 51
f 51 62 53
f 45 56 55
f 41 50 51
f 29 42 35
f 39 49 48
f 27 29 35
f 51 53 52
f 28 36 37
f 28 37 29
f 29 37 36
f 29 36 38
f 29 38 39
f 29 39 40
f 29 40 41
f 29 41 42
f 31 44 32
f 31 43 44
f 32 45 46
f 32 46 34
f 32 44 47
f 32 47 45
f 39 48 40
f 40 48 41
f 51 60 62
f 65 78 80
f 53 63 64
f 66 79 67
f 66 80 81
f 66 81 79
f 69 72 82
f 69 82 70
f 70 82 83
f 70 83 78
f 71 82 72
f 74 81 80
f 74 80 75
f 75 83 84
f 75 84 76
f 75 80 83
f 76 84 77
f 78 83 80
f 82 84 83
f 22 25 23
f 65 80 66
f 53 62 63
f 65 70 78
f 63 76 64
f 55 56 65
f 55 65 66
f 55 66 67
f 55 67 68
f 55 68 57
f 56 59 69
f 56 69 70
f 56 70 65
f 59 71 72
f 59 72 69
f 60 73 62
f 60 61 73
f 61 74 73
f 62 75 76
f 62 76 63
f 62 73 74
f 62 74 75
f 64 76 77
f 21 32 34
f 35 42 41
f 20 24 33
f 1 3 13
f 1 13 4
f 1 4 5
f 1 5 2
f 2 5 6
f 3 7 8
f 3 8 9
f 3 9 10
f 3 10 11
f 3 11 12
f 3 12 13
f 4 13 12
f 4 12 11
f 4 11 10
f 4 10 25
f 4 25 22
f 4 22 21
f 1 7 3
f 4 21 34
f 1 18 7
f 1 33 24
f 20 33 30
f 1 2 6
f 1 6 17
f 1 17 27
f 1 27 35
f 1 35 41
f 1 41 53
f 1 53 64
f 1 77 84
f 1 84 82
f 1 82 71
f 1 71 59
f 1 59 58
f 1 58 54
f 1 54 43
f 1 43 30
f 1 30 33
f 1 24 18
f 4 34 46
f 1 64 77
f 4 57 68
f 9 32 21
f 9 21 22
f 9 22 23
f 9 23 10
f 9 19 24
f 9 24 20
f 10 23 25
f 14 26 15
f 15 26 16
f 16 27 17
f 16 26 28
f 16 28 29
f 18 24 19
f 20 30 43
f 20 43 31
f 4 46 57
f 20 31 32
f 9 20 32
f 8 19 9
f 16 29 27
f 7 18 8
f 8 18 19
f 4 68 67
f 4 79 81
f 4 67 79
f 4 74 61
f 4 61 49
f 4 49 39
f 4 39 38
f 4 81 74
f 4 36 28
f 4 28 26
f 4 26 14
f 4 14 5
f 5 14 15
f 5 15 16
f 5 16 17
f 4 38 36
f 5 17 6

