# https://github.com/mikedh/trimesh
v 0.11054200 0.30875900 -0.23761600
v 0.09694210 0.30285900 -0.23761600
v 0.12449000 0.30747500 -0.23761600
v 0.12708500 0.31006700 -0.23891200
v 0.12200400 0.32021300 -0.24397600
v 0.11690400 0.33035900 -0.24906400
v 0.08641300 0.29481100 -0.23761600
v 0.10483900 0.32021300 -0.24779200
v 0.14362800 0.29984700 -0.23761600
v 0.14487100 0.32784100 -0.25160800
v 0.13979000 0.35324400 -0.28717600
v 0.12580600 0.35832900 -0.29735100
v 0.11056000 0.32784100 -0.25160800
v 0.10165800 0.32529900 -0.25923900
v 0.07189900 0.27550600 -0.23761600
v 0.17150500 0.27827100 -0.23761600
v 0.17280300 0.27955500 -0.23891200
v 0.16009800 0.34307300 -0.28211100
v 0.20583400 0.43456100 -0.43455800
v 0.18804800 0.43201900 -0.42186200
v 0.11690400 0.35578700 -0.30498300
v 0.17788400 0.43710400 -0.43201500
v 0.17154100 0.43456100 -0.43455800
v 0.06924840 0.27098800 -0.23761600
v 0.13216700 0.38627400 -0.38118300
v 0.18168700 0.25795400 -0.23761600
v 0.19058900 0.29735400 -0.28211100
v 0.20583400 0.34307300 -0.34309500
v 0.23634300 0.38881700 -0.43455800
v 0.23634300 0.40407300 -0.44982200
v 0.21855700 0.44727500 -0.46760600
v 0.20583400 0.44981800 -0.46506200
v 0.18296600 0.44218900 -0.44219000
v 0.16263900 0.43201900 -0.44219000
v 0.18751800 0.45245900 -0.47385000
v 0.06738390 0.26755700 -0.23761600
v 0.13216700 0.38627400 -0.41168700
v 0.18296600 0.24398100 -0.23761600
v 0.19821100 0.28972500 -0.28972000
v 0.21855700 0.35578700 -0.37611900
v 0.24904700 0.40153100 -0.46760600
v 0.21980000 0.44850900 -0.47385000
v 0.19706000 0.45421200 -0.47385000
v 0.24511700 0.41283700 -0.47385000
v 0.19497600 0.45421200 -0.47385000
v 0.19152100 0.45349600 -0.47385000
v 0.18804800 0.45236000 -0.47269300
v 0.17788400 0.44727500 -0.47269300
v 0.17808600 0.44764500 -0.47385000
v 0.16263900 0.43201900 -0.47385000
v 0.06542800 0.26365600 -0.23761600
v 0.16225500 0.43125300 -0.47385000
v 0.12200400 0.36593300 -0.41168700
v 0.18296600 0.22872500 -0.23761600
v 0.25217300 0.39528500 -0.47385000
v 0.25029000 0.40276500 -0.47385000
v 0.07116780 0.25415200 -0.24906400
v 0.06888280 0.25185600 -0.23761600
v 0.10674000 0.33544500 -0.36594300
v 0.15249400 0.41167700 -0.47385000
v 0.14487100 0.37356100 -0.46506200
v 0.14487100 0.39261900 -0.46506200
v 0.13979000 0.38373200 -0.45488600
v 0.17762900 0.21645600 -0.23761600
v 0.18296600 0.22872500 -0.24397600
v 0.24921200 0.38496600 -0.47385000
v 0.11690400 0.33035900 -0.38627100
v 0.08387220 0.26686600 -0.28211100
v 0.07495170 0.24269800 -0.23761600
v 0.14925900 0.39493900 -0.47385000
v 0.16009800 0.37356100 -0.47385000
v 0.16009800 0.35832900 -0.46506200
v 0.12962600 0.34307300 -0.41931800
v 0.14867400 0.39454400 -0.47269300
v 0.15364600 0.38002900 -0.47385000
v 0.17059100 0.20648300 -0.23761600
v 0.17916400 0.22112200 -0.25160800
v 0.24835300 0.38338600 -0.47385000
v 0.09911740 0.26686600 -0.29735100
v 0.11436300 0.23635300 -0.26684800
v 0.13086900 0.20710000 -0.23761600
v 0.16656900 0.36709300 -0.47385000
v 0.17709800 0.36008200 -0.47385000
v 0.19058900 0.34307300 -0.46506200
v 0.14487100 0.34307300 -0.43455800
v 0.15885500 0.20268100 -0.23761600
v 0.17154100 0.22112200 -0.26684800
v 0.21855700 0.34053000 -0.46760600
v 0.22490000 0.34307300 -0.46506200
v 0.24787700 0.38257100 -0.47385000
v 0.14487100 0.25160900 -0.31259100
v 0.14487100 0.22112200 -0.26684800
v 0.14741200 0.20840800 -0.24906400
v 0.15627800 0.20201400 -0.23761600
v 0.20758900 0.34482600 -0.47385000
v 0.16263900 0.25415200 -0.32531100
v 0.21230500 0.34364100 -0.47385000
v 0.22303500 0.35107100 -0.47385000
v 0.23380200 0.36087200 -0.47385000
f 60 70 62
f 41 55 56
f 41 56 44
f 51 57 58
f 51 53 59
f 51 59 57
f 52 60 53
f 53 61 59
f 53 60 62
f 53 62 63
f 54 64 65
f 61 71 72
f 54 65 66
f 54 66 55
f 57 59 67
f 57 68 69
f 57 69 58
f 59 61 67
f 61 72 73
f 39 41 40
f 53 63 61
f 57 67 68
f 35 70 60
f 38 55 39
f 35 66 78
f 35 78 90
f 61 73 67
f 35 90 99
f 35 99 98
f 35 98 97
f 35 97 95
f 35 95 83
f 35 83 82
f 35 82 71
f 35 71 75
f 35 75 70
f 35 60 52
f 35 52 50
f 35 50 49
f 35 49 48
f 36 37 51
f 37 50 52
f 37 52 53
f 37 53 51
f 38 54 55
f 39 55 41
f 61 63 74
f 77 89 90
f 61 70 75
f 79 85 91
f 80 91 81
f 81 92 93
f 81 93 94
f 81 91 92
f 84 95 96
f 84 96 91
f 84 91 85
f 86 94 87
f 79 91 80
f 87 94 88
f 88 98 89
f 88 94 97
f 89 98 99
f 89 99 90
f 91 96 93
f 91 93 92
f 93 96 97
f 35 55 66
f 95 97 96
f 88 97 98
f 77 90 78
f 76 89 77
f 76 88 89
f 61 75 71
f 62 70 74
f 62 74 63
f 64 76 77
f 64 77 66
f 64 66 65
f 66 77 78
f 67 73 68
f 68 79 69
f 68 73 85
f 68 85 79
f 69 80 81
f 69 79 80
f 71 82 72
f 72 82 83
f 72 83 95
f 72 95 84
f 72 84 85
f 72 85 73
f 76 86 87
f 76 87 88
f 61 74 70
f 35 56 55
f 93 97 94
f 35 42 44
f 4 10 5
f 4 9 10
f 5 10 6
f 6 11 12
f 6 12 13
f 6 13 8
f 6 10 11
f 7 8 14
f 7 14 15
f 3 9 4
f 8 13 14
f 10 16 17
f 10 17 18
f 10 18 19
f 10 19 20
f 10 20 11
f 11 20 12
f 12 21 14
f 12 14 13
f 12 20 22
f 9 16 10
f 2 8 7
f 2 6 8
f 1 6 2
f 35 44 56
f 1 2 7
f 1 7 15
f 1 15 24
f 1 24 36
f 1 36 51
f 1 51 58
f 1 58 69
f 1 81 94
f 1 94 86
f 1 86 76
f 1 76 64
f 1 64 54
f 1 54 38
f 1 38 26
f 1 26 16
f 1 16 9
f 1 9 3
f 1 3 4
f 1 4 5
f 1 5 6
f 12 22 23
f 12 23 34
f 1 69 81
f 14 21 15
f 28 40 29
f 28 39 40
f 29 41 30
f 29 40 41
f 30 41 31
f 31 42 43
f 31 43 32
f 31 41 44
f 31 44 42
f 32 43 33
f 33 43 45
f 33 45 46
f 33 46 47
f 33 47 35
f 34 35 48
f 34 48 49
f 35 47 46
f 35 46 45
f 35 45 43
f 35 43 42
f 12 34 21
f 27 39 28
f 26 39 27
f 34 49 50
f 25 50 37
f 15 25 24
f 26 38 39
f 16 26 17
f 15 21 25
f 17 27 28
f 17 28 18
f 18 28 19
f 19 28 29
f 19 29 30
f 19 30 31
f 17 26 27
f 19 32 20
f 19 31 32
f 24 25 37
f 22 35 34
f 25 34 50
f 22 34 23
f 21 34 25
f 20 33 22
f 20 32 33
f 22 33 35
f 24 37 36

