# https://github.com/mikedh/trimesh
v -0.54802900 0.08339350 -0.51754700
v -0.53033300 0.07959630 -0.51754700
v -0.52607300 0.08385910 -0.52607900
v -0.62516700 0.18297800 -0.65566100
v -0.63025900 0.17789200 -0.64549100
v -0.56800500 0.08385910 -0.52607900
v -0.56340000 0.07597830 -0.51754700
v -0.50037700 0.07239610 -0.51754700
v -0.60992200 0.18297800 -0.68615300
v -0.64041200 0.18297800 -0.67090700
v -0.64232900 0.17914500 -0.65566100
v -0.63660800 0.17534800 -0.64804700
v -0.64550400 0.16771800 -0.65058500
v -0.56509800 0.07350660 -0.51754700
v -0.49640000 0.06612730 -0.51754700
v -0.59975300 0.17789200 -0.69124700
v -0.60992200 0.17789200 -0.69632300
v -0.64041200 0.18297800 -0.68615300
v -0.65058100 0.17789200 -0.67090700
v -0.65185400 0.17534800 -0.66329300
v -0.65567300 0.16771800 -0.67090700
v -0.62136300 0.08385910 -0.60230900
v -0.61499800 0.07622910 -0.58960100
v -0.57135300 0.06096890 -0.51754700
v -0.49512700 0.06096890 -0.51754700
v -0.51845100 0.07622910 -0.56418500
v -0.59467600 0.16771800 -0.68615300
v -0.59975300 0.16771800 -0.69632300
v -0.60229900 0.17534800 -0.69760100
v -0.64041200 0.17789200 -0.69632300
v -0.64803400 0.17914500 -0.69378500
v -0.65058100 0.17789200 -0.68615300
v -0.63660800 0.08385910 -0.63278300
v -0.65567300 0.16771800 -0.68615300
v -0.65567300 -0.16771800 -0.67090700
v -0.63025900 -0.07622910 -0.62009300
v -0.62009000 -0.07622910 -0.59977100
v -0.61499800 -0.06096890 -0.58960100
v -0.57135300 -0.06096890 -0.51754700
v -0.51335900 0.06096890 -0.55403300
v -0.52352700 0.07622910 -0.57435500
v -0.49512700 -0.06096890 -0.51754700
v -0.53369600 0.07622910 -0.59469500
v -0.53877200 0.07622910 -0.60484700
v -0.54386500 0.07622910 -0.61499900
v -0.58958400 0.09148920 -0.69124700
v -0.60992200 0.16771800 -0.70139900
v -0.64041200 0.16771800 -0.70139900
v -0.58958400 -0.09148920 -0.69124700
v -0.59975300 -0.16771800 -0.69632300
v -0.60992200 -0.16771800 -0.70139900
v -0.65058100 0.17280500 -0.69632300
v -0.65567300 -0.16771800 -0.68615300
v -0.65058100 -0.17789200 -0.66583100
v -0.64550400 -0.16771800 -0.65058500
v -0.57047300 -0.06455110 -0.51754700
v -0.51335900 -0.06096890 -0.55403300
v -0.53749900 -0.08385910 -0.60230900
v -0.50015700 -0.07196630 -0.51754700
v -0.59848000 -0.17534800 -0.69378500
v -0.52225400 -0.08385910 -0.57181700
v -0.50700900 -0.06859900 -0.54132500
v -0.54386500 -0.07622910 -0.61499900
v -0.64041200 -0.16771800 -0.70139900
v -0.60484500 -0.17789200 -0.69632300
v -0.65058100 -0.16263200 -0.69632300
v -0.64803400 -0.17534800 -0.69378500
v -0.65058100 -0.17789200 -0.68107700
v -0.64041200 -0.18297800 -0.67090700
v -0.64041200 -0.17914500 -0.65375300
v -0.64803400 -0.17534800 -0.65947700
v -0.63278900 -0.17534800 -0.64423100
v -0.56494100 -0.07264690 -0.51754700
v -0.50037700 -0.07239610 -0.51754700
v -0.59975300 -0.17789200 -0.68615300
v -0.60992200 -0.18297800 -0.68615300
v -0.63533500 -0.17789200 -0.69632300
v -0.64041200 -0.18297800 -0.68615300
v -0.62516700 -0.18297800 -0.65566100
v -0.62516700 -0.17789200 -0.64549100
v -0.54802900 -0.07622910 -0.51754700
v -0.56418600 -0.07314840 -0.51754700
v -0.50141400 -0.07264690 -0.51754700
v -0.61754400 -0.17914500 -0.64804700
v -0.60229900 -0.17914500 -0.67853900
v -0.51753900 -0.07622910 -0.51754700
f 40 58 44
f 42 59 60
f 42 60 61
f 42 61 62
f 42 62 57
f 44 58 63
f 44 63 45
f 45 63 49
f 48 64 66
f 47 51 64
f 47 64 48
f 48 66 52
f 49 63 60
f 49 60 50
f 50 60 51
f 51 60 65
f 51 65 77
f 45 49 46
f 40 57 58
f 29 50 51
f 40 44 43
f 51 77 64
f 29 51 47
f 30 48 52
f 30 52 31
f 31 52 32
f 32 52 34
f 33 35 36
f 34 52 66
f 34 66 53
f 35 53 68
f 35 68 54
f 35 54 55
f 35 55 37
f 35 37 36
f 37 55 38
f 38 55 39
f 39 55 56
f 40 43 41
f 53 66 67
f 83 86 84
f 54 68 78
f 69 78 76
f 69 76 79
f 69 79 70
f 70 79 80
f 70 80 72
f 72 80 81
f 72 81 82
f 72 82 73
f 67 78 68
f 74 83 84
f 74 85 75
f 75 85 76
f 76 85 84
f 76 84 79
f 79 84 80
f 80 84 86
f 80 86 81
f 29 49 50
f 74 84 85
f 53 67 68
f 67 77 78
f 65 76 78
f 54 78 69
f 54 69 70
f 54 70 71
f 54 71 55
f 55 71 70
f 55 70 72
f 55 72 73
f 55 73 56
f 65 78 77
f 57 62 61
f 58 61 60
f 58 60 63
f 59 74 60
f 60 75 76
f 60 76 65
f 60 74 75
f 64 77 67
f 64 67 66
f 57 61 58
f 29 46 49
f 21 53 35
f 29 47 48
f 2 8 3
f 3 8 4
f 4 9 18
f 4 18 10
f 4 10 11
f 4 11 5
f 4 8 9
f 5 11 12
f 5 12 6
f 6 12 13
f 6 13 14
f 6 14 7
f 8 15 16
f 8 16 9
f 9 16 17
f 9 17 30
f 9 30 18
f 1 8 2
f 10 18 32
f 1 15 8
f 1 42 25
f 1 2 3
f 1 3 4
f 1 4 5
f 1 5 6
f 1 6 7
f 1 7 14
f 1 14 24
f 1 24 39
f 1 39 56
f 1 56 73
f 1 73 82
f 1 82 81
f 1 81 86
f 1 86 83
f 1 83 74
f 1 74 59
f 1 59 42
f 29 48 30
f 10 32 19
f 1 25 15
f 11 19 20
f 22 33 36
f 22 36 37
f 22 37 38
f 22 38 23
f 23 38 39
f 23 39 24
f 25 40 41
f 25 42 57
f 25 57 40
f 26 41 28
f 26 28 27
f 28 41 43
f 28 43 44
f 28 44 45
f 28 45 46
f 28 46 29
f 10 19 11
f 21 35 33
f 21 34 53
f 25 41 26
f 19 21 20
f 11 20 13
f 21 33 22
f 11 13 12
f 13 20 21
f 13 21 22
f 13 22 23
f 13 24 14
f 15 25 26
f 15 26 27
f 13 23 24
f 16 27 28
f 16 28 29
f 16 29 17
f 17 29 30
f 18 30 31
f 18 31 32
f 15 27 16
f 19 32 34
f 19 34 21

