# https://github.com/mikedh/trimesh
v -0.10780300 0.14502200 0.08303810
v 0.06101480 0.13723400 0.12198900
v -0.11006000 0.14502200 0.07848520
v 0.06101480 0.13214000 0.11183900
v 0.06861770 0.12960800 0.11056500
v 0.07116980 0.13214000 0.11691400
v 0.17535300 0.11435700 0.15630400
v 0.17787800 0.11688900 0.16265300
v 0.16772300 0.12198200 0.16774900
v 0.06101480 0.13723400 0.24395900
v -0.03809090 0.14485900 0.28969800
v -0.13350700 0.14502200 0.23245100
v -0.19166800 0.14502200 0.24395900
v -0.09150250 0.14485000 0.28969800
v -0.10674600 0.14294100 0.28969800
v -0.23379700 0.13214900 0.25413000
v -0.22871000 0.12197400 0.25920500
v -0.23888400 0.12197400 0.25413000
v -0.24015600 0.12960900 0.25158200
v -0.23888400 0.13214900 0.24395900
v -0.22871000 0.13722900 0.24395900
v -0.19521400 0.14502200 0.24218400
v -0.20194900 0.14502200 0.22871300
v -0.22871000 0.13722900 0.19822000
v -0.23888400 0.13214900 0.19822000
v -0.24397100 0.12197400 0.19822000
v -0.23888400 0.12705500 0.18804900
v -0.23634100 0.13341200 0.19059700
v -0.12132600 0.14502200 0.07794210
v -0.19748900 0.14502200 0.19893000
v -0.20194900 0.14502200 0.21346700
v -0.10871600 0.13942500 0.07635490
v -0.12336800 0.13916700 0.07635490
v -0.12351200 0.13885100 0.07635490
v -0.12727300 0.12197400 0.07635490
v -0.12956600 0.03050090 0.07635490
v 0.02993180 0.10614900 0.07635490
v 0.17535300 0.08385430 0.12581100
v 0.18295600 0.06097740 0.11628700
v 0.19058600 0.08385430 0.13343400
v 0.16772300 0.09654430 0.13216000
v 0.16772300 0.11179600 0.14740700
v 0.19058600 0.09910560 0.14868100
v 0.20584500 0.08385430 0.14868100
v 0.18806000 0.11179600 0.17282400
v 0.20329300 0.09654430 0.17282400
v 0.18806000 0.11179600 0.21854200
v 0.16772300 0.12198200 0.21346700
v 0.17280100 0.11179600 0.23378800
v 0.19058600 0.09910560 0.23633600
v 0.20584500 0.08385430 0.23633600
v 0.18806000 0.08132220 0.24903400
v -0.02589410 0.14180300 0.28969800
v 0.02034090 0.11179600 0.28969800
v 0.18295600 0.06097740 0.25920500
v 0.20329300 0.06607090 0.24903400
v 0.21347500 0.06097740 0.22871300
v 0.21347500 0.07622870 0.21346700
v 0.21347500 -0.06097450 0.22871300
v 0.20329300 -0.05588100 0.24903400
v 0.20837000 -0.06606790 0.23888400
v 0.20584500 -0.08003850 0.23633600
v 0.20966000 -0.07814670 0.22871300
v 0.21347500 -0.09147700 0.19822000
v 0.20966000 -0.09336880 0.21346700
v 0.20837000 -0.10163500 0.19822000
v 0.20584500 -0.10291500 0.20584400
v 0.20584500 -0.09528980 0.22109000
v 0.19058600 -0.09528980 0.23633600
v 0.19313800 -0.06606790 0.25413000
v 0.18295600 -0.06097450 0.25920500
v -0.02030620 -0.14738900 0.28969800
v 0.19058600 -0.07241290 0.25158200
v 0.18295600 -0.08131920 0.24903400
v 0.16772300 -0.11179300 0.23378800
v 0.17535300 -0.11816700 0.22109000
v 0.16772300 -0.12198000 0.16774900
v 0.20837000 -0.10163500 0.16774900
v 0.20966000 -0.09910260 0.16012600
v 0.21347500 -0.09147700 0.16774900
v 0.21347500 0.07622870 0.16774900
v 0.20329300 0.09654430 0.21854200
v 0.20837000 0.08638650 0.16265300
v 0.20966000 0.07622870 0.15058100
v 0.21347500 0.04572620 0.13723500
v 0.20966000 0.06097740 0.13533500
v 0.20584500 0.06860310 0.13343400
v 0.20584500 0.05335180 0.12581100
v 0.20837000 0.04572620 0.12708500
v 0.20966000 -0.05334880 0.12961200
v 0.20837000 -0.04572320 0.12708500
v 0.18806000 -0.06097450 0.11691400
v 0.16772300 0.04572620 0.10674300
v 0.16772300 -0.06097450 0.10674300
v 0.17914100 -0.06860010 0.11436600
v 0.17280100 -0.07113230 0.11183900
v 0.18677100 -0.08385140 0.12961200
v 0.20203000 -0.06860010 0.12961200
v 0.20329300 -0.10163500 0.15757800
v 0.18677100 -0.09910260 0.14485900
v 0.06609230 -0.13213700 0.11183900
v 0.17280100 -0.11688600 0.15757800
v 0.06101480 -0.13723100 0.12198900
v -0.11179700 -0.15272400 0.08140910
v -0.10687100 -0.15272400 0.09126690
v -0.03048810 -0.15248200 0.27445200
v 0.16772300 -0.12198000 0.21346700
v -0.03048810 -0.15248200 0.28969800
v -0.15236800 -0.15272400 0.24408400
v -0.06098010 -0.15248200 0.28969800
v -0.13343500 -0.10291200 0.28969800
v -0.07117220 -0.14739800 0.28969800
v -0.23634100 -0.12960100 0.25540400
v -0.14104800 -0.09529350 0.28969800
v -0.15756300 -0.07623880 0.28969800
v -0.16771900 -0.06100090 0.28969800
v -0.16771900 0.00000497 0.28969800
v -0.16444100 0.01526010 0.28969800
v -0.14051000 0.09147840 0.28969800
v -0.13723200 0.09909880 0.28969800
v -0.12797200 0.11762600 0.28969800
v -0.11692000 0.13214900 0.28969800
v 0.06101480 0.06097740 0.28969800
v 0.05083290 0.08132220 0.28969800
v 0.06101480 -0.06097450 0.28969800
v 0.05083290 -0.08131920 0.28969800
v 0.02034090 -0.11179300 0.28969800
v -0.23888400 -0.12198200 0.25413000
v -0.24397100 -0.12198200 0.24395900
v -0.23888400 -0.13214500 0.24903400
v -0.19320800 -0.15272400 0.23898800
v -0.18324900 -0.15272400 0.24395900
v -0.19498100 -0.15272400 0.20143700
v -0.11584500 -0.15272400 0.08239070
v -0.12374500 -0.13559200 0.07635490
v -0.23634100 -0.12960100 0.19059700
v -0.22871000 -0.13722000 0.19822000
v -0.23888400 -0.13214500 0.20329600
v -0.19833100 -0.15272400 0.21346700
v -0.19833100 -0.15272400 0.22871300
v -0.24397100 -0.12198200 0.19822000
v -0.23888400 -0.11689300 0.18804900
v -0.12388800 -0.13534100 0.07635490
v -0.12510600 -0.12198200 0.07635490
v -0.12956600 -0.02271390 0.07635490
v -0.24397100 0.12197400 0.24395900
v 0.07603240 -0.01513340 0.07635490
v 0.07568320 0.04517320 0.07635490
v 0.07603240 0.03024210 0.07635490
v 0.06042380 0.07564660 0.07635490
v 0.17535300 0.05335180 0.11056500
v 0.07579070 -0.03041370 0.07635490
v 0.06055810 -0.06091620 0.07635490
v 0.03052280 -0.09095310 0.07635490
v 0.00000392 -0.10620400 0.07635490
v -0.10835800 -0.13608100 0.07635490
v 0.21347500 -0.04572320 0.13723500
f 122 121 15
f 14 15 11
f 15 116 11
f 117 116 118
f 118 116 15
f 116 72 11
f 17 117 118
f 121 120 15
f 122 17 121
f 121 17 120
f 120 118 15
f 119 118 120
f 119 120 17
f 111 72 116
f 119 17 118
f 122 15 17
f 123 11 72
f 127 126 72
f 124 54 123
f 110 113 132
f 17 18 117
f 113 131 132
f 113 130 131
f 113 129 130
f 113 128 129
f 113 18 128
f 54 11 123
f 125 123 72
f 127 72 71
f 127 71 126
f 126 71 125
f 71 123 125
f 55 123 71
f 124 123 55
f 124 55 54
f 126 125 72
f 117 18 113
f 103 105 104
f 115 116 113
f 103 104 101
f 103 101 102
f 103 102 77
f 102 79 77
f 99 79 102
f 99 102 101
f 99 101 100
f 99 100 97
f 99 97 79
f 98 79 97
f 98 90 79
f 92 91 90
f 92 90 98
f 95 92 98
f 110 132 109
f 103 106 105
f 103 77 106
f 107 106 77
f 108 106 107
f 115 111 116
f 114 111 115
f 114 115 113
f 114 113 111
f 112 111 113
f 112 113 110
f 112 110 111
f 117 113 116
f 110 72 111
f 108 107 76
f 108 76 75
f 108 75 72
f 108 72 110
f 108 110 109
f 108 109 105
f 108 105 106
f 107 77 76
f 109 132 104
f 150 148 37
f 132 131 104
f 96 97 101
f 96 101 154
f 96 154 94
f 94 154 153
f 152 94 153
f 152 153 147
f 152 147 94
f 151 39 88
f 151 37 39
f 150 37 151
f 150 151 93
f 150 93 148
f 149 148 93
f 149 93 94
f 149 94 147
f 101 97 100
f 101 155 154
f 101 104 155
f 155 104 156
f 95 98 97
f 12 1 23
f 27 28 29
f 48 9 10
f 48 10 11
f 85 81 80
f 157 90 85
f 149 147 148
f 157 85 80
f 79 90 80
f 78 77 79
f 153 154 147
f 154 135 147
f 156 104 135
f 156 135 154
f 155 156 154
f 157 80 90
f 105 109 104
f 148 147 37
f 36 37 135
f 130 129 138
f 140 133 131
f 140 131 130
f 140 130 138
f 139 140 138
f 139 133 140
f 137 134 133
f 137 133 139
f 137 139 138
f 137 138 136
f 137 136 134
f 134 136 135
f 134 135 104
f 134 104 133
f 133 104 131
f 141 138 129
f 136 138 141
f 136 141 142
f 143 136 142
f 146 129 128
f 18 146 128
f 18 19 146
f 146 19 26
f 146 26 129
f 26 141 129
f 26 27 141
f 37 147 135
f 141 27 142
f 145 27 36
f 145 36 135
f 144 145 135
f 144 142 145
f 143 142 144
f 143 144 135
f 143 135 136
f 145 142 27
f 95 97 96
f 151 88 93
f 95 94 92
f 32 3 37
f 32 37 36
f 35 32 36
f 35 36 27
f 34 35 27
f 34 32 35
f 33 32 34
f 33 34 27
f 33 27 29
f 33 29 32
f 32 29 3
f 3 29 1
f 1 29 23
f 30 23 29
f 31 24 23
f 3 5 37
f 38 37 5
f 38 39 37
f 38 40 39
f 47 9 48
f 7 42 5
f 43 42 7
f 43 7 8
f 45 43 8
f 45 8 9
f 45 9 47
f 31 23 30
f 45 47 46
f 45 44 43
f 43 44 40
f 43 40 41
f 43 41 42
f 41 5 42
f 38 5 41
f 38 41 40
f 45 46 44
f 47 48 49
f 31 30 24
f 24 29 28
f 13 15 14
f 13 14 11
f 13 11 12
f 12 11 1
f 2 1 11
f 2 11 10
f 2 10 9
f 6 2 8
f 6 8 7
f 6 7 5
f 6 5 2
f 4 2 5
f 4 5 3
f 4 3 2
f 2 3 1
f 16 15 13
f 16 17 15
f 16 18 17
f 16 19 18
f 25 24 28
f 25 28 27
f 25 27 26
f 25 26 19
f 25 19 20
f 25 20 24
f 21 24 20
f 24 30 29
f 21 23 24
f 95 96 94
f 22 12 23
f 13 12 22
f 16 13 22
f 16 22 21
f 16 21 20
f 16 20 19
f 21 22 23
f 50 47 49
f 2 9 8
f 50 52 51
f 51 58 82
f 51 82 47
f 46 47 82
f 46 82 58
f 46 58 81
f 58 59 81
f 81 59 80
f 64 80 59
f 64 79 80
f 64 66 79
f 66 78 79
f 67 78 66
f 67 77 78
f 67 76 77
f 67 68 76
f 83 46 81
f 83 44 46
f 83 84 44
f 83 81 84
f 50 51 47
f 92 94 93
f 92 93 88
f 92 88 91
f 89 91 88
f 89 85 90
f 86 85 89
f 68 69 76
f 86 89 88
f 87 88 39
f 87 39 40
f 87 40 44
f 87 44 86
f 86 44 84
f 86 84 85
f 84 81 85
f 87 86 88
f 69 75 76
f 89 90 91
f 74 73 72
f 62 61 60
f 60 61 59
f 60 59 56
f 57 56 59
f 57 59 58
f 57 58 51
f 57 51 56
f 63 61 62
f 51 52 56
f 52 54 55
f 53 54 52
f 53 11 54
f 53 49 48
f 50 49 53
f 69 72 75
f 50 53 52
f 52 55 56
f 63 59 61
f 53 48 11
f 65 64 63
f 63 64 59
f 69 70 73
f 70 71 72
f 70 55 71
f 70 56 55
f 60 56 70
f 74 72 69
f 70 72 73
f 62 70 69
f 65 66 64
f 62 60 70
f 65 67 66
f 65 68 67
f 74 69 73
f 65 63 68
f 63 62 68
f 62 69 68

