# https://github.com/mikedh/trimesh
v 0.17537000 0.63661300 -0.69379200
v 0.17537000 0.63279500 -0.69760000
v 0.16774100 0.62708200 -0.69760000
v 0.16011200 0.62134300 -0.69379200
v 0.15758000 0.62008700 -0.68616600
v 0.15758000 0.62008700 -0.67091400
v 0.15631300 0.61755100 -0.66328900
v 0.16267600 0.62008700 -0.66075000
v 0.16774100 0.62516100 -0.67091400
v 0.19062800 0.61755100 -0.66328900
v 0.26432000 0.56925600 -0.62010100
v 0.27957800 0.56925600 -0.63534300
v 0.20585300 0.61755100 -0.67854000
v 0.23636900 0.60228200 -0.67854000
v 0.24653000 0.59720800 -0.68362700
v 0.23636900 0.60228200 -0.69760000
v 0.20585300 0.61755100 -0.69760000
v 0.16774100 0.60991600 -0.70141700
v 0.19825600 0.60991600 -0.70141700
v 0.15758000 0.61499000 -0.69633000
v 0.14232200 0.58450100 -0.69633000
v 0.15248300 0.60991600 -0.68616600
v 0.15248300 0.60991600 -0.67091400
v 0.12579800 0.55654800 -0.66328900
v 0.12962800 0.55654800 -0.65948000
v 0.19062800 0.54130400 -0.61374400
v 0.19634100 0.54891400 -0.61374400
v 0.20841800 0.55908500 -0.61501400
v 0.25415900 0.55908500 -0.61501400
v 0.25922300 0.54891400 -0.60993600
v 0.28211000 0.55654800 -0.61755300
v 0.34307700 0.52605900 -0.61755300
v 0.35577000 0.52349800 -0.63534300
v 0.41930100 0.49557000 -0.67854000
v 0.34307700 0.54130400 -0.67854000
v 0.35323800 0.53620600 -0.68362700
v 0.34307700 0.54130400 -0.69760000
v 0.22874000 0.59467200 -0.70141700
v 0.15248300 0.57942700 -0.70141700
v 0.14232200 0.56925600 -0.69633000
v 0.13342700 0.56226200 -0.68616600
v 0.12962800 0.56036600 -0.67854000
v 0.13725700 0.57942700 -0.68616600
v 0.14232200 0.58957400 -0.68616600
v 0.12709600 0.55908500 -0.67091400
v 0.12962800 0.55654800 -0.67854000
v 0.13216100 0.54384000 -0.67600100
v 0.19283500 0.45205300 -0.60676700
v 0.18845200 0.46291400 -0.60676700
v 0.18806300 0.46446600 -0.60676700
v 0.18806300 0.46761800 -0.60676700
v 0.20332100 0.49813200 -0.60676700
v 0.21348200 0.54891400 -0.60993600
v 0.23763500 0.52734000 -0.60676700
v 0.28973900 0.53366900 -0.60993600
v 0.32019000 0.51842500 -0.60993600
v 0.33291600 0.51588800 -0.61247500
v 0.33544800 0.50320500 -0.60993600
v 0.35070600 0.48796000 -0.60993600
v 0.35830200 0.51081500 -0.61755300
v 0.44981700 0.46508100 -0.66328900
v 0.43455900 0.48032600 -0.66328900
v 0.42946300 0.49049700 -0.68362700
v 0.41930100 0.49557000 -0.69760000
v 0.41167200 0.48796000 -0.70141700
v 0.33544800 0.53366900 -0.70141700
v 0.15248300 0.56418300 -0.70141700
v 0.14488600 0.54130400 -0.69379200
v 0.13725700 0.54891400 -0.68616600
v 0.23977700 0.42385500 -0.60676700
v 0.20585300 0.44983700 -0.61755300
v 0.25162700 0.41934800 -0.61755300
v 0.20984600 0.50803200 -0.60676700
v 0.21617600 0.51450900 -0.60676700
v 0.23192100 0.52734000 -0.60676700
v 0.26815100 0.51209500 -0.60676700
v 0.33226600 0.46953900 -0.60676700
v 0.28655800 0.50002800 -0.60676700
v 0.36593100 0.45744700 -0.60993600
v 0.37356000 0.48032600 -0.61755300
v 0.44981700 0.44602000 -0.66328900
v 0.45488200 0.45491000 -0.67345300
v 0.45744600 0.45744700 -0.68616600
v 0.44725300 0.47778900 -0.68107900
v 0.37609200 0.45237400 -0.61501400
v 0.43709100 0.48286300 -0.69124400
v 0.44981700 0.46508100 -0.69760000
v 0.42693000 0.47271600 -0.70141700
v 0.16774100 0.54891400 -0.70141700
v 0.20585300 0.48032600 -0.66328900
v 0.22111100 0.49557000 -0.69379200
v 0.26909200 0.40632000 -0.60676700
v 0.22111100 0.44983700 -0.63280400
v 0.25162700 0.46508100 -0.67854000
v 0.31256100 0.41934800 -0.66328900
v 0.37609200 0.40664000 -0.69124400
v 0.39135000 0.39137100 -0.67600100
v 0.33671400 0.46062400 -0.60676700
v 0.36593100 0.44030600 -0.61374400
v 0.33671400 0.45875200 -0.60676700
v 0.33226600 0.44062600 -0.60676700
v 0.31405400 0.41627000 -0.60676700
v 0.44218800 0.44030600 -0.65948000
v 0.43709100 0.42188500 -0.66075000
v 0.43455900 0.41553100 -0.66328900
v 0.43202700 0.40664000 -0.67091400
v 0.44218800 0.42695800 -0.67091400
v 0.45234900 0.44730000 -0.67091400
v 0.45361500 0.44983700 -0.69379200
v 0.45234900 0.45744700 -0.69633000
v 0.45234900 0.46761800 -0.69124400
v 0.43202700 0.40664000 -0.68616600
v 0.44218800 0.45744700 -0.70141700
v 0.24399800 0.50320500 -0.70141700
v 0.35070600 0.44220200 -0.70141700
v 0.32781900 0.43459200 -0.69379200
v 0.29285600 0.40250300 -0.60676700
v 0.40407600 0.38501700 -0.66328900
v 0.38881800 0.40407900 -0.69379200
v 0.40407600 0.38883400 -0.67854000
v 0.30223800 0.40632000 -0.60676700
v 0.35830200 0.43459200 -0.61374400
v 0.40407600 0.38883400 -0.65948000
v 0.41167200 0.39454800 -0.65948000
v 0.42693000 0.40981700 -0.65948000
v 0.41676900 0.39137100 -0.67091400
v 0.43835800 0.41934800 -0.69379200
v 0.44410400 0.44220200 -0.69760000
v 0.42884600 0.41171300 -0.69760000
v 0.40979000 0.39265200 -0.68616600
v 0.42313200 0.40407900 -0.69379200
v 0.42693000 0.42695800 -0.70141700
v 0.41167200 0.41171300 -0.70141700
v 0.29788700 0.40393100 -0.60676700
v 0.40660800 0.38629800 -0.67091400
v 0.41676900 0.40154200 -0.69633000
v 0.40787400 0.38883400 -0.67854000
f 64 87 88
f 72 95 96
f 72 94 95
f 72 90 94
f 72 93 90
f 71 93 72
f 68 89 91
f 70 72 92
f 68 91 90
f 68 90 71
f 67 89 68
f 64 88 65
f 71 90 93
f 72 96 97
f 79 102 99
f 77 98 79
f 82 108 83
f 64 111 87
f 81 85 103
f 81 108 82
f 81 107 108
f 81 106 107
f 72 97 92
f 81 105 106
f 81 103 104
f 79 101 102
f 79 100 101
f 79 98 100
f 79 85 80
f 79 99 85
f 81 104 105
f 64 86 111
f 55 76 56
f 63 84 64
f 83 109 110
f 48 54 75
f 48 75 74
f 48 74 73
f 48 73 52
f 48 52 51
f 48 51 50
f 48 50 49
f 48 68 71
f 48 71 72
f 48 72 70
f 52 73 53
f 53 73 74
f 53 74 75
f 64 84 86
f 56 77 58
f 56 76 78
f 56 78 77
f 58 77 59
f 130 136 131
f 59 79 80
f 59 80 60
f 60 80 61
f 61 81 82
f 61 82 83
f 61 83 84
f 61 84 62
f 61 80 85
f 61 85 81
f 62 84 63
f 56 58 57
f 83 110 87
f 112 129 127
f 83 111 84
f 109 127 129
f 109 129 128
f 109 128 110
f 110 128 113
f 112 126 130
f 112 130 131
f 112 131 129
f 113 128 129
f 113 129 132
f 115 133 119
f 115 119 116
f 117 118 134
f 118 120 135
f 118 135 126
f 109 112 127
f 118 126 124
f 118 123 134
f 119 133 136
f 119 136 130
f 119 130 120
f 120 130 137
f 120 137 135
f 121 134 123
f 121 123 122
f 126 135 137
f 126 137 130
f 129 131 136
f 129 136 133
f 129 133 132
f 48 76 54
f 118 124 123
f 83 87 111
f 106 126 112
f 106 125 124
f 83 108 107
f 83 107 106
f 83 106 112
f 83 112 109
f 84 111 86
f 85 99 125
f 85 125 104
f 85 104 103
f 87 110 113
f 87 113 88
f 89 114 91
f 90 91 94
f 91 114 115
f 91 115 116
f 106 124 126
f 91 116 94
f 92 118 117
f 94 116 95
f 95 116 96
f 96 119 97
f 96 116 119
f 97 119 120
f 97 120 118
f 99 102 121
f 99 121 122
f 99 122 123
f 99 123 124
f 99 124 125
f 104 125 105
f 105 125 106
f 92 97 118
f 48 78 76
f 59 77 79
f 48 98 77
f 8 28 11
f 8 11 10
f 8 10 9
f 11 28 29
f 11 29 30
f 11 30 31
f 11 31 32
f 11 32 12
f 12 32 33
f 12 33 34
f 12 34 35
f 12 35 14
f 12 14 13
f 14 35 15
f 8 27 28
f 15 35 36
f 15 37 16
f 16 38 17
f 16 37 38
f 18 39 21
f 18 21 20
f 18 19 38
f 18 38 66
f 18 66 65
f 18 65 88
f 18 88 113
f 18 113 132
f 18 132 133
f 18 133 115
f 18 115 114
f 15 36 37
f 18 114 89
f 8 26 27
f 7 25 26
f 48 77 78
f 1 2 3
f 1 3 4
f 1 4 5
f 1 5 6
f 1 6 7
f 1 7 8
f 1 8 9
f 1 9 10
f 1 11 12
f 1 12 13
f 1 13 14
f 1 14 15
f 1 15 16
f 7 26 8
f 1 16 17
f 2 18 3
f 2 17 38
f 2 38 19
f 2 19 18
f 3 18 20
f 3 20 4
f 4 20 21
f 4 21 22
f 4 22 5
f 5 22 23
f 5 23 6
f 6 23 7
f 7 23 24
f 7 24 25
f 1 17 2
f 18 89 67
f 1 10 11
f 21 40 41
f 32 60 61
f 32 61 62
f 32 62 63
f 32 63 34
f 32 34 33
f 34 63 35
f 35 63 36
f 36 63 37
f 37 63 64
f 37 64 65
f 37 65 66
f 37 66 38
f 40 67 68
f 40 68 41
f 32 59 60
f 41 69 46
f 41 68 69
f 42 46 45
f 42 45 43
f 46 69 47
f 47 69 68
f 47 68 48
f 48 70 92
f 48 92 117
f 48 134 121
f 48 121 102
f 48 102 101
f 48 101 100
f 48 100 98
f 18 67 39
f 41 46 42
f 32 58 59
f 48 117 134
f 32 56 57
f 21 41 42
f 32 57 58
f 21 42 43
f 21 43 44
f 21 44 22
f 21 67 40
f 22 44 24
f 22 24 23
f 24 44 43
f 24 43 45
f 24 45 46
f 24 46 47
f 24 47 48
f 24 48 49
f 24 49 50
f 21 39 67
f 25 50 51
f 24 50 25
f 30 55 31
f 30 76 55
f 30 75 54
f 30 53 75
f 28 30 29
f 30 54 76
f 32 55 56
f 25 51 26
f 28 53 30
f 26 51 52
f 26 52 53
f 31 55 32
f 26 53 27
f 27 53 28

