# https://github.com/mikedh/trimesh
v -0.03405440 0.00358497 -0.07041660
v 0.07622530 0.00358497 -0.06101290
v -0.03405440 0.00358497 0.07635490
v -0.03405440 0.03049910 -0.07041660
v -0.03048530 0.13726000 -0.09146730
v 0.00000038 0.15249400 -0.15246800
v 0.00509904 0.15754200 -0.16264000
v 0.01272580 0.14995500 -0.17026200
v 0.02288060 0.14487700 -0.17533200
v 0.06861980 0.11437800 -0.17533200
v 0.09910550 0.09911390 -0.17533200
v 0.11688700 0.08641850 -0.17281200
v 0.07862590 0.00358497 -0.05981440
v 0.12706300 0.08134040 -0.16264000
v 0.14104200 0.08387940 -0.16009000
v 0.07601290 0.00358497 0.07635490
v -0.03405440 0.10652200 0.07635490
v -0.03405440 0.04486730 -0.06940240
v -0.03405440 0.11966500 -0.06334840
v -0.03405440 0.13546700 -0.06202700
v -0.03405440 0.13985900 -0.04577030
v 0.00000038 0.19819700 -0.15246800
v -0.02540790 0.14233800 -0.10163900
v 0.00509904 0.20330500 -0.16264000
v 0.06543320 0.26364600 -0.23759300
v 0.06887470 0.25181700 -0.23759300
v 0.07492940 0.24267600 -0.23759300
v 0.13084500 0.20706900 -0.23759300
v 0.15625300 0.20199100 -0.23759300
v 0.12706300 0.09657480 -0.17788300
v 0.14104200 0.09911390 -0.17533200
v 0.08640140 0.00358497 -0.05591150
v 0.15754900 0.09657480 -0.16264000
v 0.16390100 0.09911390 -0.16009000
v 0.12959100 0.03432270 -0.08384600
v 0.07601290 0.03029000 0.07635490
v 0.08640140 0.00358497 0.07113060
v -0.03405440 0.12199500 0.07623190
v 0.01504140 0.10652200 0.07635490
v -0.03405440 0.13726000 0.06098930
v 0.00509904 0.20838400 -0.12198300
v 0.00509904 0.20838400 -0.15246800
v 0.00762713 0.20963800 -0.16009000
v 0.06861980 0.27063600 -0.23633300
v 0.06925710 0.27096400 -0.23759300
v 0.06738760 0.26752900 -0.23759300
v 0.15884500 0.20264800 -0.23759300
v 0.17059300 0.20647200 -0.23759300
v 0.08759110 0.00358497 -0.05354520
v 0.17152800 0.20584500 -0.23633300
v 0.17762500 0.21641900 -0.23759300
v 0.17344000 0.10676100 -0.15246800
v 0.13341500 0.03814620 -0.08384600
v 0.09147880 0.00358497 0.06098930
v 0.09147880 0.00358497 -0.04577030
v 0.07565170 0.04519590 0.07635490
v 0.08640140 0.10168300 0.07113060
v 0.07622530 0.10676100 0.07623190
v 0.08969430 0.00358497 0.06455410
v 0.11435900 0.12581900 0.03809470
v -0.03405440 0.12910500 0.07266710
v 0.06099310 0.12199500 0.07623190
v 0.02993380 0.10619300 0.07635490
v -0.03405440 0.13370500 0.06808820
v 0.05338760 0.25540100 -0.11433100
v 0.00382438 0.20584500 -0.11433100
v 0.07116910 0.27953700 -0.19819600
v 0.07116910 0.27953700 -0.22871200
v 0.07191270 0.27547500 -0.23759300
v 0.18297800 0.22869600 -0.23759300
v 0.17915400 0.11437800 -0.14484700
v 0.17280200 0.10168300 -0.13722600
v 0.14229500 0.05591970 -0.07625550
v 0.14739400 0.06607600 -0.07625550
v 0.15247100 0.07626220 -0.07625550
v 0.17535200 0.15628800 -0.08384600
v 0.06044070 0.07569460 0.07635490
v 0.11435900 0.12961300 0.03809470
v 0.11181000 0.14233800 0.03557480
v 0.08385210 0.11437800 0.06861060
v 0.07371850 0.11945600 0.07368120
v 0.05591570 0.13215200 0.07113060
v -0.03405440 0.13215200 0.07113060
v 0.06861980 0.12961300 0.06861060
v 0.06609170 0.24903900 -0.10163900
v 0.11051400 0.30875200 -0.23759300
v 0.09693860 0.30283700 -0.23759300
v 0.08640140 0.29477200 -0.22871200
v 0.05591570 0.16262100 0.04064540
v 0.08640140 0.29477200 -0.23759300
v 0.18297800 0.24396100 -0.23759300
v 0.18297800 0.12199500 -0.13722600
v 0.18042900 0.16516000 -0.09401800
v 0.17535200 0.17534600 -0.08384600
v 0.11435900 0.16008100 0.00760953
v 0.08385210 0.17534600 0.00760953
v 0.08130270 0.15754200 0.03557480
v 0.08130270 0.12707400 0.06606000
v 0.14359100 0.29982000 -0.23759300
v 0.12447100 0.30743700 -0.23759300
v 0.06099310 0.16772900 0.03047340
v 0.06609170 0.17280700 0.02030140
v 0.18168300 0.25794000 -0.23759300
v 0.18297800 0.24396100 -0.22871200
v 0.18297800 0.16772900 -0.10671000
v 0.18297800 0.18296300 -0.12198300
v 0.17535200 0.26684200 -0.22109100
v 0.17150600 0.27825300 -0.23759300
v 0.18297800 0.22869600 -0.19819600
f 54 73 74
f 57 79 80
f 53 72 73
f 57 78 79
f 54 75 76
f 54 76 60
f 54 74 75
f 54 60 59
f 57 80 58
f 56 58 77
f 58 80 81
f 62 63 77
f 58 62 77
f 60 76 94
f 60 94 78
f 61 82 83
f 61 62 82
f 62 81 84
f 62 84 82
f 64 83 65
f 53 73 54
f 65 85 86
f 65 86 87
f 58 81 62
f 52 72 53
f 37 78 57
f 52 70 71
f 35 53 54
f 65 87 88
f 35 54 55
f 35 55 49
f 36 57 58
f 36 58 56
f 37 59 60
f 37 60 78
f 38 62 61
f 39 63 62
f 40 64 65
f 40 65 66
f 40 66 41
f 41 66 65
f 41 65 67
f 41 67 68
f 41 68 42
f 42 68 43
f 43 68 44
f 44 68 45
f 45 68 69
f 48 51 50
f 51 70 52
f 52 71 72
f 65 88 67
f 92 105 93
f 65 89 85
f 84 97 89
f 85 99 100
f 85 100 86
f 85 89 101
f 85 101 102
f 85 102 96
f 87 90 88
f 89 97 101
f 91 103 104
f 93 105 94
f 94 105 106
f 94 106 107
f 94 107 95
f 95 107 99
f 95 99 96
f 96 102 101
f 96 101 97
f 99 107 108
f 103 108 107
f 103 107 106
f 103 106 109
f 103 109 104
f 34 53 35
f 84 98 97
f 65 83 89
f 82 89 83
f 81 98 84
f 67 88 90
f 67 90 68
f 68 90 69
f 70 91 104
f 70 104 109
f 70 109 106
f 70 106 105
f 70 105 92
f 70 92 71
f 71 92 72
f 72 92 74
f 72 74 73
f 74 92 75
f 75 92 76
f 76 93 94
f 76 92 93
f 78 94 79
f 79 95 96
f 79 96 97
f 79 97 98
f 79 98 80
f 79 94 95
f 80 98 81
f 82 84 89
f 34 52 53
f 85 96 99
f 34 50 51
f 1 11 12
f 1 12 2
f 2 12 14
f 2 14 15
f 2 15 13
f 3 16 36
f 3 36 56
f 3 56 77
f 3 77 63
f 3 63 39
f 3 39 17
f 4 18 5
f 5 18 19
f 5 19 20
f 5 20 21
f 5 21 22
f 5 22 23
f 5 23 6
f 6 23 22
f 6 22 24
f 6 24 7
f 7 24 25
f 7 25 8
f 1 10 11
f 8 25 26
f 1 9 10
f 1 7 8
f 34 51 52
f 1 2 13
f 1 13 32
f 1 32 49
f 1 49 55
f 1 55 54
f 1 59 37
f 1 37 16
f 1 16 3
f 1 3 17
f 1 17 38
f 1 38 61
f 1 61 83
f 1 83 64
f 1 64 40
f 1 40 21
f 1 21 20
f 1 20 19
f 1 19 18
f 1 18 4
f 1 4 5
f 1 5 6
f 1 6 7
f 1 8 9
f 8 26 9
f 1 54 59
f 9 27 10
f 25 69 90
f 25 90 87
f 25 87 86
f 25 86 100
f 25 100 99
f 25 99 108
f 25 108 103
f 25 103 91
f 25 91 70
f 25 70 51
f 25 51 48
f 25 48 47
f 25 47 29
f 25 29 28
f 25 28 27
f 25 27 26
f 29 47 30
f 30 47 48
f 31 48 33
f 32 35 49
f 33 48 34
f 34 48 50
f 9 26 27
f 25 45 69
f 25 46 45
f 30 48 31
f 24 45 46
f 24 46 25
f 10 28 11
f 11 28 12
f 12 28 29
f 12 30 31
f 12 31 15
f 12 15 14
f 13 15 32
f 15 31 33
f 15 33 34
f 15 34 35
f 15 35 32
f 12 29 30
f 16 57 36
f 24 44 45
f 16 37 57
f 24 43 44
f 22 43 24
f 22 42 43
f 21 42 22
f 10 27 28
f 21 41 42
f 21 40 41
f 17 62 38
f 17 39 62

