# https://github.com/mikedh/trimesh
v 0.40407600 -0.38501700 -0.67854400
v 0.27448100 -0.39940000 -0.58966500
v 0.40151100 -0.38629800 -0.67092000
v 0.40407600 -0.38883400 -0.66329500
v 0.41676900 -0.39137100 -0.66583300
v 0.42186600 -0.40154200 -0.69124400
v 0.41930100 -0.40407900 -0.69760000
v 0.41167200 -0.40154200 -0.69633100
v 0.40407600 -0.40028600 -0.69379300
v 0.38118900 -0.40664000 -0.69124400
v 0.37356000 -0.40028600 -0.67854400
v 0.23763500 -0.41718100 -0.59940000
v 0.25922300 -0.40287200 -0.58966500
v 0.28568100 -0.40050800 -0.58966500
v 0.29470600 -0.40277400 -0.58966500
v 0.43202700 -0.40664000 -0.66583300
v 0.43202700 -0.40664000 -0.68108200
v 0.29733500 -0.40407900 -0.58966500
v 0.43709100 -0.41678700 -0.69124400
v 0.43455900 -0.41934800 -0.69760000
v 0.41167200 -0.41171300 -0.70141700
v 0.42693000 -0.42695800 -0.70141700
v 0.39644700 -0.40981700 -0.69760000
v 0.36593100 -0.42506200 -0.69760000
v 0.33544800 -0.44030600 -0.69760000
v 0.32781900 -0.43841000 -0.69379300
v 0.22111100 -0.49938800 -0.69379300
v 0.20585300 -0.48414300 -0.66329500
v 0.14488600 -0.54512100 -0.69379300
v 0.19062800 -0.46126400 -0.61755900
v 0.19825600 -0.45173300 -0.60993500
v 0.18556300 -0.45116700 -0.58966500
v 0.19637400 -0.44321200 -0.58966500
v 0.23033100 -0.41846100 -0.58966500
v 0.42439800 -0.41425000 -0.65820800
v 0.43965600 -0.44476400 -0.65820800
v 0.44981700 -0.44983700 -0.66329500
v 0.44725300 -0.43712900 -0.66583300
v 0.44218800 -0.42695800 -0.67092000
v 0.45744600 -0.45744700 -0.68616800
v 0.30996400 -0.41673700 -0.58966500
v 0.31256100 -0.41934800 -0.58966500
v 0.44218800 -0.42695800 -0.68616800
v 0.45234900 -0.44730000 -0.69124400
v 0.44981700 -0.44983700 -0.69760000
v 0.35070600 -0.44220200 -0.70141700
v 0.44218800 -0.45744700 -0.70141700
v 0.22874000 -0.50130900 -0.69760000
v 0.15248300 -0.54701700 -0.69760000
v 0.14232200 -0.55908500 -0.69633100
v 0.13725700 -0.54891400 -0.68616800
v 0.13216100 -0.54384000 -0.67092000
v 0.19062800 -0.45365400 -0.60231000
v 0.12579800 -0.55654800 -0.66329500
v 0.18199200 -0.46769200 -0.58966500
v 0.42693000 -0.42695800 -0.65567100
v 0.36593100 -0.45744700 -0.60993500
v 0.37609200 -0.46254500 -0.61502100
v 0.44981700 -0.46126400 -0.66329500
v 0.45361500 -0.45936800 -0.67092000
v 0.45361500 -0.46508100 -0.69379300
v 0.45234900 -0.45744700 -0.69633100
v 0.44725300 -0.47778900 -0.68616800
v 0.31389200 -0.42195900 -0.58966500
v 0.24399800 -0.50320500 -0.70141700
v 0.44410400 -0.47271600 -0.69760000
v 0.42693000 -0.47271600 -0.70141700
v 0.16774100 -0.54891400 -0.70141700
v 0.15248300 -0.56418300 -0.70141700
v 0.14232200 -0.57432900 -0.69633100
v 0.13469300 -0.56671900 -0.68870600
v 0.12962800 -0.55273100 -0.67854400
v 0.12709600 -0.55401200 -0.67092000
v 0.12962800 -0.55654800 -0.67854400
v 0.13216100 -0.56925600 -0.67599500
v 0.15248300 -0.60991600 -0.68616800
v 0.15248300 -0.60991600 -0.67092000
v 0.15758000 -0.62008700 -0.66583300
v 0.16011200 -0.61755100 -0.65947700
v 0.12962800 -0.55654800 -0.65947700
v 0.18299900 -0.47271600 -0.58966500
v 0.32025500 -0.43720300 -0.58966500
v 0.32148800 -0.44052800 -0.58966500
v 0.31895600 -0.45306300 -0.58966500
v 0.36086700 -0.49303400 -0.61502100
v 0.37356000 -0.47650900 -0.61755900
v 0.43455900 -0.47650900 -0.66329500
v 0.35830200 -0.50702200 -0.61755900
v 0.34307700 -0.52224200 -0.61755900
v 0.42884600 -0.48796000 -0.69760000
v 0.43455900 -0.48414300 -0.67854400
v 0.42693000 -0.49367400 -0.68616800
v 0.41930100 -0.49938800 -0.69379300
v 0.41167200 -0.48796000 -0.70141700
v 0.15248300 -0.57942700 -0.70141700
v 0.14741800 -0.59974500 -0.69124400
v 0.16011200 -0.61755100 -0.69379300
v 0.13725700 -0.57942700 -0.68616800
v 0.15758000 -0.62008700 -0.68108200
v 0.17537000 -0.63661300 -0.69379300
v 0.16774100 -0.62516100 -0.67092000
v 0.16774100 -0.62008700 -0.66074600
v 0.20585300 -0.55654800 -0.61374200
v 0.19316000 -0.49303400 -0.58966500
v 0.18799800 -0.48273900 -0.58966500
v 0.31519000 -0.45995900 -0.58966500
v 0.35070600 -0.50510100 -0.61374200
v 0.34307700 -0.52985200 -0.63280800
v 0.33544800 -0.52032100 -0.61374200
v 0.25922300 -0.56925600 -0.62009700
v 0.26685200 -0.57561000 -0.63280800
v 0.41676900 -0.49813200 -0.69633100
v 0.35258900 -0.53366900 -0.69760000
v 0.33544800 -0.53366900 -0.70141700
v 0.35070600 -0.53938300 -0.68616800
v 0.34307700 -0.54512100 -0.69379300
v 0.16774100 -0.60991600 -0.70141700
v 0.17027300 -0.62262400 -0.69886900
v 0.23636900 -0.60609900 -0.69379300
v 0.24399800 -0.60038500 -0.68616800
v 0.18299900 -0.63087400 -0.68616800
v 0.17537000 -0.62134300 -0.66329500
v 0.18491400 -0.62516100 -0.69760000
v 0.20332100 -0.62008700 -0.69633100
v 0.23383700 -0.60484300 -0.69633100
v 0.21348200 -0.55908500 -0.61502100
v 0.25922300 -0.54891400 -0.60993500
v 0.22867500 -0.50830300 -0.58966500
v 0.21348200 -0.50547100 -0.58966500
v 0.30996400 -0.46323400 -0.58966500
v 0.32019000 -0.51842500 -0.60993500
v 0.28973900 -0.53366900 -0.60993500
v 0.27448100 -0.55083500 -0.61374200
v 0.34051200 -0.54384000 -0.69633100
v 0.22874000 -0.59467200 -0.70141700
v 0.19825600 -0.60991600 -0.70141700
v 0.22893500 -0.50822900 -0.58966500
v 0.25945000 -0.49296000 -0.58966500
v 0.25922300 -0.49308300 -0.58966500
v 0.25902800 -0.49318200 -0.58966500
f 63 93 90
f 76 99 78
f 76 97 99
f 75 98 76
f 72 74 73
f 71 96 98
f 71 98 75
f 63 92 93
f 70 97 96
f 70 95 97
f 66 94 67
f 66 90 94
f 76 78 77
f 71 74 72
f 70 96 71
f 79 102 103
f 76 96 97
f 87 89 91
f 85 106 107
f 63 91 92
f 85 88 86
f 85 107 88
f 84 106 85
f 76 98 96
f 80 105 81
f 79 104 105
f 79 103 104
f 79 101 102
f 78 99 100
f 78 101 79
f 78 100 101
f 79 105 80
f 63 87 91
f 54 79 80
f 61 66 62
f 50 69 95
f 88 107 89
f 50 95 70
f 50 70 71
f 50 71 72
f 50 72 51
f 51 72 52
f 52 72 73
f 52 73 54
f 54 73 74
f 54 74 71
f 54 71 75
f 54 75 76
f 54 76 77
f 54 77 78
f 54 78 79
f 54 80 55
f 61 63 66
f 59 89 87
f 59 88 89
f 59 86 88
f 59 63 60
f 59 87 63
f 63 90 66
f 58 84 85
f 58 85 86
f 57 84 58
f 57 83 84
f 57 82 83
f 57 64 82
f 55 80 81
f 58 86 59
f 89 108 92
f 106 130 131
f 89 107 109
f 106 131 109
f 106 109 107
f 109 131 132
f 109 132 133
f 109 133 110
f 110 133 127
f 110 122 111
f 111 122 121
f 111 120 115
f 112 116 134
f 113 134 114
f 114 134 125
f 114 125 135
f 115 120 116
f 116 120 119
f 116 119 125
f 116 125 134
f 49 69 50
f 132 140 137
f 131 140 132
f 131 139 140
f 131 138 139
f 130 138 131
f 103 129 104
f 127 132 137
f 127 137 128
f 125 136 135
f 124 136 125
f 123 136 124
f 118 136 123
f 117 136 118
f 127 133 132
f 89 92 91
f 103 128 129
f 103 110 127
f 89 109 110
f 89 110 111
f 89 111 108
f 90 93 112
f 90 112 134
f 90 134 113
f 90 113 114
f 90 114 94
f 92 115 116
f 92 116 93
f 92 108 111
f 92 111 115
f 93 116 112
f 95 117 97
f 97 117 118
f 97 118 100
f 97 100 99
f 103 126 110
f 102 126 103
f 102 110 126
f 102 122 110
f 100 125 119
f 100 124 125
f 103 127 128
f 100 123 124
f 100 102 101
f 100 122 102
f 100 121 122
f 100 111 121
f 100 120 111
f 100 119 120
f 100 118 123
f 49 68 69
f 21 25 24
f 48 65 68
f 2 41 18
f 2 18 15
f 2 15 14
f 4 14 15
f 4 15 5
f 5 16 17
f 5 17 6
f 5 15 18
f 5 18 16
f 6 17 19
f 6 19 20
f 6 20 7
f 7 21 8
f 7 20 22
f 7 22 21
f 8 21 23
f 8 23 9
f 12 33 34
f 12 32 33
f 12 31 32
f 12 30 31
f 12 29 30
f 12 28 29
f 2 42 41
f 11 28 12
f 11 26 27
f 10 26 11
f 10 25 26
f 10 24 25
f 10 23 24
f 9 23 10
f 11 27 28
f 12 34 13
f 2 64 42
f 48 68 49
f 1 2 3
f 1 3 4
f 1 4 5
f 1 5 6
f 1 6 7
f 1 7 8
f 1 8 9
f 1 9 10
f 1 10 11
f 1 11 12
f 1 12 13
f 1 13 2
f 2 14 4
f 2 4 3
f 2 13 34
f 2 34 33
f 2 33 32
f 2 84 83
f 2 106 84
f 2 130 106
f 2 138 130
f 2 139 138
f 2 140 139
f 2 82 64
f 2 137 140
f 2 129 128
f 2 104 129
f 2 105 104
f 2 81 105
f 2 55 81
f 2 32 55
f 2 128 137
f 16 35 36
f 2 83 82
f 16 37 38
f 27 29 28
f 29 49 50
f 29 50 51
f 29 51 52
f 29 52 30
f 30 52 32
f 30 32 53
f 30 53 31
f 31 53 32
f 32 52 54
f 32 54 55
f 35 56 36
f 35 42 56
f 36 56 57
f 36 57 37
f 37 58 59
f 37 59 60
f 16 36 37
f 47 66 67
f 47 62 66
f 45 62 47
f 42 57 56
f 42 64 57
f 27 49 29
f 40 63 61
f 40 45 44
f 40 62 45
f 40 61 62
f 38 40 39
f 37 40 38
f 37 60 40
f 40 60 63
f 27 48 49
f 37 57 58
f 25 48 27
f 20 47 22
f 20 45 47
f 19 45 20
f 19 44 45
f 19 40 44
f 17 43 19
f 21 22 47
f 17 40 43
f 16 41 42
f 16 18 41
f 16 40 17
f 16 39 40
f 25 27 26
f 16 38 39
f 16 42 35
f 21 47 67
f 19 43 40
f 21 67 94
f 25 65 48
f 21 24 23
f 21 46 25
f 21 65 46
f 21 68 65
f 21 69 68
f 25 46 65
f 21 117 95
f 21 136 117
f 21 135 136
f 21 114 135
f 21 94 114
f 21 95 69

