# https://github.com/mikedh/trimesh
v -0.27446800 0.07815910 0.53102500
v -0.12200100 0.07815910 0.53102500
v -0.27446800 0.07815910 0.61184600
v -0.27446800 0.39642700 0.53102500
v -0.12200100 0.07815910 0.62708700
v -0.12200100 0.41168800 0.53102500
v -0.27112400 0.07815910 0.62684100
v -0.27446800 0.09150850 0.62517000
v -0.27446800 0.39642700 0.59468700
v -0.27064700 0.40407500 0.60230100
v -0.26518400 0.41500000 0.53102500
v -0.12200100 0.09150850 0.64041100
v -0.12495600 0.07815910 0.64041100
v -0.12707500 0.42186300 0.53102500
v -0.12200100 0.41168800 0.57943200
v -0.27048200 0.07815910 0.62811400
v -0.26428800 0.09150850 0.64550500
v -0.27446800 0.36593900 0.62517000
v -0.27446800 0.38120000 0.60991500
v -0.27064700 0.37355200 0.63279700
v -0.26302000 0.38881400 0.63279700
v -0.26302000 0.40407500 0.61754200
v -0.26428800 0.41677500 0.57943200
v -0.26428800 0.41677500 0.53102500
v -0.12707500 0.08642140 0.65058600
v -0.12621000 0.07815910 0.64364300
v -0.12200100 0.35067700 0.64041100
v -0.13191100 0.42428700 0.53102500
v -0.12707500 0.42186300 0.57435200
v -0.12453800 0.39390100 0.62262300
v -0.12200100 0.39642700 0.60991500
v -0.26969100 0.07815910 0.62947000
v -0.25985500 0.07815910 0.64105500
v -0.25728800 0.07815910 0.64330100
v -0.25158600 0.08389490 0.65185900
v -0.23634700 0.12961100 0.66710000
v -0.24904900 0.13725800 0.66074600
v -0.26428800 0.35067700 0.64550500
v -0.24904900 0.39134000 0.63533100
v -0.23888500 0.40151400 0.63025000
v -0.26112400 0.38120000 0.63660400
v -0.24904900 0.36085200 0.65058600
v -0.24904900 0.40660100 0.62008900
v -0.24904900 0.42186300 0.58960700
v -0.25730300 0.41551200 0.59468700
v -0.25540700 0.41930200 0.58706000
v -0.24395900 0.42695000 0.57943200
v -0.25590000 0.42097500 0.53102500
v -0.13216500 0.14234500 0.66074600
v -0.14232900 0.13217100 0.66582700
v -0.15249400 0.13725800 0.67092100
v -0.13724000 0.09150850 0.65566600
v -0.13124000 0.07815910 0.64750500
v -0.12961300 0.08007110 0.64803900
v -0.12835900 0.07815910 0.64551900
v -0.12707500 0.34562400 0.65058600
v -0.12200100 0.38120000 0.62517000
v -0.13724000 0.42695000 0.53102500
v -0.13724000 0.42695000 0.57943200
v -0.13216500 0.41677500 0.59976800
v -0.12961300 0.40407500 0.61754200
v -0.12961300 0.38881400 0.63279700
v -0.13216500 0.40151400 0.63025000
v -0.24395900 0.07815910 0.64899700
v -0.24395900 0.08133430 0.65058600
v -0.24395900 0.09150850 0.65566600
v -0.22872000 0.13725800 0.67092100
v -0.24904900 0.30496200 0.66074600
v -0.22872000 0.30496200 0.67092100
v -0.24395900 0.35067700 0.65566600
v -0.25540700 0.35832500 0.64803900
v -0.24395900 0.38120000 0.64041100
v -0.23888500 0.37102600 0.64550500
v -0.14232900 0.42186300 0.58960700
v -0.24395900 0.42695000 0.53102500
v -0.24573500 0.42606200 0.53102500
v -0.13216500 0.31001500 0.66074600
v -0.15249400 0.30496200 0.67092100
v -0.13724000 0.08133430 0.65058600
v -0.13724000 0.07815910 0.64899700
v -0.12961300 0.35832500 0.64803900
v -0.13216500 0.37102600 0.64550500
v -0.13724000 0.35067700 0.65566600
f 35 64 65
f 38 68 69
f 35 67 36
f 35 66 67
f 36 67 37
f 37 67 69
f 37 69 68
f 39 42 72
f 38 70 71
f 38 71 41
f 39 72 40
f 40 63 60
f 40 60 74
f 35 65 66
f 40 74 44
f 40 44 43
f 38 69 70
f 34 64 35
f 25 55 26
f 30 61 63
f 23 76 48
f 40 72 73
f 23 48 24
f 25 49 50
f 25 50 51
f 25 51 52
f 25 52 53
f 25 53 54
f 25 56 77
f 25 77 49
f 27 57 56
f 28 58 59
f 28 59 29
f 29 59 60
f 29 60 61
f 30 62 57
f 30 57 31
f 30 63 62
f 40 73 82
f 56 62 81
f 41 71 42
f 53 55 54
f 53 79 80
f 56 57 62
f 56 81 82
f 56 82 83
f 56 83 77
f 59 74 60
f 52 79 53
f 60 63 61
f 62 82 81
f 64 80 79
f 64 79 65
f 69 78 83
f 69 83 70
f 77 83 78
f 23 47 76
f 62 63 82
f 52 65 79
f 52 66 65
f 51 69 67
f 42 71 70
f 42 70 83
f 42 83 82
f 42 82 73
f 42 73 72
f 44 74 59
f 44 59 47
f 44 46 45
f 47 59 58
f 47 58 75
f 47 75 76
f 49 51 50
f 49 77 78
f 49 78 51
f 51 67 66
f 51 66 52
f 51 78 69
f 40 82 63
f 23 44 47
f 25 54 55
f 23 45 46
f 1 48 76
f 1 76 75
f 1 75 58
f 1 58 28
f 1 28 14
f 1 14 6
f 1 6 2
f 2 6 15
f 2 15 31
f 2 31 57
f 2 57 27
f 2 27 12
f 2 12 5
f 3 7 8
f 4 9 10
f 4 10 11
f 5 12 13
f 1 24 48
f 6 14 29
f 1 11 24
f 1 9 4
f 23 46 44
f 1 2 5
f 1 5 13
f 1 13 26
f 1 26 55
f 1 55 53
f 1 53 80
f 1 80 64
f 1 64 34
f 1 33 32
f 1 32 16
f 1 16 7
f 1 7 3
f 1 3 8
f 1 8 18
f 1 18 19
f 1 19 9
f 1 4 11
f 6 29 15
f 1 34 33
f 7 17 8
f 17 34 35
f 17 35 36
f 17 36 37
f 17 37 68
f 17 68 38
f 18 38 20
f 20 38 21
f 17 33 34
f 21 39 40
f 21 38 41
f 21 42 39
f 22 40 43
f 22 43 44
f 22 44 45
f 7 16 17
f 22 45 23
f 21 40 22
f 17 32 33
f 21 41 42
f 15 30 31
f 16 32 17
f 8 17 38
f 9 19 10
f 10 19 18
f 8 38 18
f 10 20 21
f 10 21 22
f 10 22 23
f 10 18 20
f 11 23 24
f 12 25 26
f 12 26 13
f 12 27 56
f 12 56 25
f 14 28 29
f 15 29 61
f 10 23 11
f 15 61 30

