# https://github.com/mikedh/trimesh
v -0.28968700 -0.01524310 0.53102500
v -0.28968700 0.02782720 0.53102500
v -0.28906800 -0.02995770 0.53102500
v -0.56409100 -0.01524310 0.53369300
v -0.28894400 0.03082540 0.53102500
v -0.56409100 0.01524950 0.53369300
v -0.28882000 -0.03045750 0.53102500
v -0.55901200 -0.02540720 0.53878100
v -0.57177200 -0.02286620 0.54131600
v -0.58440800 -0.02032510 0.54386800
v -0.59456600 -0.01524310 0.54893800
v -0.27445000 0.07815910 0.53102500
v -0.59456600 0.01524950 0.54893800
v -0.57424900 0.02033160 0.53878100
v -0.57177200 0.02667890 0.54131600
v -0.56409100 0.02540310 0.53878100
v -0.56409100 -0.03045750 0.54887100
v -0.00215228 -0.03045750 0.53102500
v -0.56421500 -0.03045750 0.54890500
v -0.60224700 -0.02286620 0.55656000
v -0.60472500 -0.01016100 0.55402500
v -0.59456600 0.03557790 0.55911200
v -0.57932900 0.05146220 0.57944400
v -0.57177200 0.05717150 0.58706600
v -0.56409100 0.06098840 0.59468900
v -0.57932900 0.06098840 0.60993300
v -0.27445000 0.07815910 0.61185100
v 0.00800622 0.07815910 0.53102500
v -0.60472500 0.02033160 0.55402500
v -0.60224700 0.02667890 0.55656000
v 0.00478523 -0.01790100 0.53102500
v 0.07614250 -0.03045750 0.53371000
v -0.59469000 -0.03045750 0.56414900
v -0.60472500 -0.02540720 0.56927000
v -0.60992800 -0.01524310 0.56419900
v -0.60608800 0.03239900 0.56419900
v -0.60224700 0.04192520 0.57182200
v -0.58701000 0.05717150 0.60231100
v -0.56409100 0.06098840 0.62516100
v -0.25983100 0.07815910 0.64105600
v -0.26961800 0.07815910 0.62946400
v -0.27048500 0.07815910 0.62811300
v -0.27110500 0.07815910 0.62682900
v -0.59964600 0.05082420 0.60993300
v -0.58131100 0.05717150 0.62516100
v 0.00639572 0.00000325 0.53102500
v 0.02076630 0.07815910 0.56658400
v 0.45733400 0.07623470 0.57944400
v 0.42685900 0.07623470 0.56419900
v 0.42685900 0.07115260 0.55402500
v 0.43453900 0.06861160 0.55275800
v 0.42685900 0.06098840 0.54893800
v 0.45733400 0.03049580 0.54893800
v 0.07614250 0.06098840 0.53369300
v 0.07614250 0.04574210 0.53369300
v -0.60992800 0.01524950 0.56419900
v 0.45733400 -0.01524310 0.54893800
v 0.42685900 -0.03045750 0.54895500
v -0.59469000 -0.03045750 0.62521100
v -0.60472500 -0.02540720 0.63024800
v -0.60992800 -0.01524310 0.62516100
v -0.60992800 0.03049580 0.57944400
v -0.60472500 0.04066000 0.57944400
v -0.59456600 0.05146220 0.59468900
v -0.56917000 0.05590630 0.63533500
v -0.24385000 0.07815910 0.64899500
v -0.25723000 0.07815910 0.64329100
v -0.60608800 0.03811900 0.63280000
v -0.58316900 0.05336530 0.63280000
v 0.02361560 0.07815910 0.57944400
v 0.64539000 0.03557790 0.61502000
v 0.63523200 0.04066000 0.60484600
v 0.64031100 0.04066000 0.59977600
v 0.44209600 0.07242850 0.56228100
v 0.02324400 0.07815910 0.58107800
v 0.01085560 0.07815910 0.62689600
v 0.00676738 0.07815910 0.63270000
v -0.00240005 0.07815910 0.64387500
v -0.02655750 0.07815910 0.65950300
v 0.06090480 0.07623470 0.68615600
v 0.64031100 0.03557790 0.58960100
v 0.64031100 0.02033160 0.57435700
v 0.64799200 0.00762640 0.56800200
v 0.64539000 -0.02540720 0.58453100
v 0.64043500 -0.03045750 0.59460500
v -0.60224700 -0.02286620 0.63660300
v -0.59456600 -0.03045750 0.62524400
v -0.59456600 -0.02540720 0.63533500
v -0.60992800 0.03049580 0.62516100
v -0.60472500 -0.01524310 0.63533500
v -0.59964600 0.04066000 0.63533500
v -0.56409100 0.04574210 0.64042200
v 0.05582550 0.07115260 0.69633000
v -0.06087340 0.07815910 0.65950300
v -0.60472500 0.03049580 0.63533500
v -0.59456600 0.03049580 0.64042200
v 0.63523200 0.02540310 0.63533500
v 0.64799200 0.02287270 0.63280000
v 0.64799200 0.03811900 0.60231100
v 0.64799200 0.03811900 0.59850800
v 0.65183200 0.03049580 0.59278700
v 0.65183200 0.01524950 0.57752600
v 0.65183200 0.00762640 0.57182200
v 0.65183200 -0.02286620 0.58706600
v 0.65047000 -0.02540720 0.59468900
v 0.64799200 -0.02668310 0.61753900
v 0.64043500 -0.03045750 0.61001600
v -0.47266400 -0.02540720 0.65058000
v -0.48022100 -0.02286620 0.65184700
v -0.47266400 -0.01524310 0.65566700
v -0.59456600 -0.01524310 0.64042200
v -0.47266400 -0.03045750 0.64048900
v -0.30492500 0.03049580 0.67091100
v 0.06090480 0.06098840 0.70141700
v 0.64031100 0.01524950 0.64042200
v -0.47266400 0.01524950 0.65566700
v 0.65047000 0.01016740 0.63533500
v 0.65567300 0.01524950 0.62516100
v 0.65307100 0.02795480 0.60739800
v 0.65567300 0.01524950 0.59468900
v 0.65567300 -0.01524310 0.59468900
v 0.65567300 -0.01524310 0.60993300
v 0.65047000 -0.02540720 0.60993300
v 0.65183200 -0.01714620 0.62516100
v 0.64031100 -0.02032510 0.63024800
v 0.06090480 -0.03045750 0.70141700
v -0.30492500 -0.01524310 0.67091100
v 0.16769300 0.01524950 0.70141700
v 0.64031100 0.00000325 0.64042200
v 0.65047000 -0.00507885 0.63533500
v 0.65567300 0.00000325 0.62516100
v 0.64799200 -0.01142620 0.63280000
v 0.16769300 0.00000325 0.70141700
f 65 92 114
f 71 93 97
f 71 80 93
f 71 99 72
f 71 98 99
f 71 97 98
f 68 90 95
f 68 96 91
f 68 95 96
f 66 80 94
f 66 93 80
f 65 114 93
f 68 91 69
f 72 99 73
f 82 102 83
f 73 100 74
f 74 100 81
f 79 94 80
f 81 100 101
f 81 101 102
f 81 102 82
f 83 102 103
f 83 103 104
f 83 104 84
f 84 104 85
f 85 104 105
f 65 96 92
f 85 105 106
f 85 106 107
f 73 99 100
f 65 91 96
f 51 82 83
f 62 89 68
f 86 88 108
f 48 73 74
f 48 74 49
f 48 70 75
f 48 75 76
f 48 76 77
f 48 77 78
f 48 78 79
f 48 79 80
f 48 80 71
f 49 74 50
f 50 74 51
f 51 74 81
f 51 81 82
f 51 83 52
f 52 83 53
f 53 57 55
f 53 55 54
f 53 83 57
f 57 83 58
f 58 83 84
f 58 84 85
f 59 86 60
f 59 87 88
f 59 88 86
f 60 86 61
f 61 86 90
f 61 90 68
f 61 68 89
f 65 69 91
f 86 108 109
f 110 126 127
f 86 110 111
f 108 126 109
f 109 126 110
f 110 127 113
f 110 113 116
f 113 127 126
f 113 126 114
f 114 126 133
f 114 133 128
f 114 128 115
f 115 129 130
f 115 130 117
f 115 128 133
f 115 133 129
f 117 130 131
f 117 131 118
f 118 131 122
f 118 122 121
f 118 121 120
f 118 120 119
f 122 131 124
f 122 124 123
f 124 131 130
f 124 130 132
f 124 132 125
f 125 132 129
f 125 129 126
f 126 129 133
f 129 132 130
f 48 72 73
f 108 112 126
f 86 109 110
f 106 126 107
f 106 124 125
f 86 111 96
f 86 96 95
f 86 95 90
f 87 112 108
f 87 108 88
f 92 96 113
f 92 113 114
f 93 114 115
f 93 115 97
f 96 111 110
f 96 110 116
f 96 116 113
f 97 115 98
f 98 115 117
f 98 117 118
f 98 118 99
f 99 118 119
f 99 119 101
f 99 101 100
f 101 119 120
f 101 120 102
f 102 120 103
f 103 120 121
f 103 121 104
f 104 121 122
f 104 122 123
f 104 123 105
f 105 123 106
f 106 123 124
f 106 125 126
f 48 71 72
f 65 93 66
f 45 69 65
f 7 59 33
f 7 33 19
f 7 19 17
f 8 17 19
f 8 19 9
f 9 19 33
f 9 33 20
f 9 20 10
f 10 20 11
f 11 20 21
f 11 21 29
f 11 29 13
f 12 16 15
f 12 15 22
f 12 22 23
f 12 23 24
f 12 24 25
f 12 25 26
f 12 26 27
f 12 27 43
f 12 43 42
f 12 42 41
f 12 41 40
f 12 40 67
f 12 67 66
f 12 66 94
f 12 94 79
f 12 79 78
f 12 78 77
f 7 87 59
f 7 112 87
f 7 126 112
f 7 107 126
f 47 70 48
f 1 2 5
f 1 5 12
f 1 12 28
f 1 28 46
f 1 46 31
f 1 31 18
f 1 18 7
f 1 7 3
f 1 3 4
f 1 4 6
f 1 6 2
f 2 6 5
f 3 7 4
f 12 77 76
f 4 8 9
f 4 10 11
f 4 11 13
f 4 7 8
f 5 6 12
f 6 13 29
f 6 29 14
f 6 14 15
f 6 15 16
f 6 16 12
f 7 17 8
f 7 18 32
f 7 32 58
f 7 58 85
f 7 85 107
f 4 9 10
f 12 76 75
f 4 13 6
f 12 70 47
f 28 55 32
f 28 32 46
f 29 56 36
f 29 36 30
f 31 46 32
f 32 55 57
f 32 57 58
f 33 59 60
f 33 60 34
f 34 60 61
f 34 61 35
f 35 61 89
f 35 89 62
f 35 62 56
f 36 56 62
f 36 62 63
f 36 63 37
f 37 63 44
f 37 64 38
f 38 64 44
f 39 45 65
f 39 65 66
f 39 66 67
f 39 67 40
f 44 63 62
f 44 62 68
f 44 68 69
f 44 69 45
f 12 75 70
f 28 54 55
f 28 53 54
f 37 44 64
f 28 51 52
f 12 47 28
f 28 52 53
f 14 30 15
f 15 30 22
f 18 31 32
f 20 34 35
f 20 35 21
f 20 33 34
f 21 35 56
f 21 56 29
f 22 30 36
f 22 36 37
f 22 37 23
f 23 37 24
f 24 37 38
f 14 29 30
f 24 26 25
f 24 38 26
f 28 49 50
f 28 48 49
f 28 47 48
f 26 45 39
f 26 44 45
f 26 38 44
f 28 50 51
f 26 42 43
f 26 41 42
f 26 40 41
f 26 39 40
f 26 43 27

