# https://github.com/mikedh/trimesh
v 0.39521000 0.51495700 -0.20957900
v 0.39521000 0.50299200 -0.21557000
v -0.57381000 0.51495700 -0.20957900
v -0.57381000 0.50299200 -0.21557000
v -0.57391600 0.52049000 -0.12516400
v -0.57391600 0.38153600 -0.12516400
v -0.57381000 0.39522700 -0.21557000
v -0.57381000 0.38324600 -0.20957900
v 0.39521000 0.39522700 -0.21557000
v 0.44909100 0.39522700 -0.19760500
v 0.45499600 0.38324600 -0.19161400
v 0.47302600 0.39522700 -0.18562300
v 0.46248200 0.38623700 -0.18862300
v 0.46923100 0.38174300 -0.17964100
v 0.48726100 0.38174300 -0.16168600
v 0.47959200 0.36125800 -0.12063000
v 0.44909100 0.37724800 -0.17964100
v 0.40111400 0.38324600 -0.20957900
v 0.39521000 0.37724800 -0.19760500
v 0.28639300 0.36127300 -0.18062300
v 0.36146800 0.36127300 -0.16140300
v 0.46933600 0.36127300 -0.12575700
v -0.45002100 0.36127300 -0.18062300
v -0.57381000 0.37724800 -0.19760500
v -0.57391600 0.36125800 -0.10905400
v -0.54481400 0.36127300 -0.13173900
v -0.47458900 0.36127300 -0.16926100
v -0.57391600 0.36125800 0.03795380
v -0.57391600 0.53292500 0.02993840
v -0.57391600 0.53890700 -0.05388790
v -0.57381000 0.52095500 -0.19753500
v 0.39521000 0.52095500 -0.19760500
v 0.46705200 0.53890700 -0.08981350
v 0.26942600 0.53890700 0.01796320
v -0.57391600 0.53890700 0.01796320
v 0.26342400 0.53292500 0.02993840
v 0.48495000 0.53890700 -0.03594110
v 0.50295500 0.53890700 -0.08981350
v 0.44909100 0.52095500 -0.17964100
v 0.46701600 0.51646000 -0.18188000
v 0.44909100 0.51495700 -0.19161400
v 0.45805400 0.51196600 -0.19311000
v 0.47302600 0.50299200 -0.18562300
v 0.44909100 0.50299200 -0.19760500
v 0.49095200 0.50299200 -0.16766800
v 0.48494100 0.51646000 -0.16392500
v 0.51495900 0.53292500 -0.09580110
v 0.51495900 0.53292500 -0.05987550
v 0.52096000 0.52096000 -0.05388790
v 0.51195800 0.52993300 -0.04489850
v 0.50295500 0.53890700 -0.05388790
v 0.49995400 0.53591600 -0.03892690
v 0.47894900 0.53292500 -0.02396590
v 0.50895700 0.52694200 -0.02995350
v 0.50895700 0.40120500 -0.02995350
v 0.47894900 0.38924000 0.01197560
v 0.51495900 0.38924000 -0.04192870
v 0.51195800 0.38174400 -0.04489850
v 0.47594800 0.38174400 0.00897387
v 0.46705200 0.38324000 0.01197560
v 0.46705200 0.39522200 0.01796320
v 0.48495000 0.52096000 -0.01797830
v 0.26942600 0.52096000 0.03592600
v -0.30137600 0.52490700 0.03795380
v -0.04598320 0.38510100 0.03795380
v -0.03987440 0.36125800 0.03795380
v 0.26942600 0.36125800 0.03592600
v 0.46705200 0.36125800 -0.01698840
v 0.48098500 0.36125800 -0.02197000
v 0.48591500 0.36125800 -0.03594110
v 0.51495900 0.38324000 -0.05388790
v 0.52096000 0.39522200 -0.05388790
v 0.51645900 0.38623100 -0.09878690
v 0.52096000 0.39522200 -0.08981350
v 0.50297200 0.39522700 -0.14372100
v 0.49843800 0.38623700 -0.15270400
v 0.48591500 0.36125800 -0.10777600
v 0.51495900 0.38324000 -0.08981350
v 0.49095200 0.39522700 -0.16766800
v 0.50297200 0.50299200 -0.14372100
v 0.52096000 0.52096000 -0.08981350
v 0.49696200 0.51495700 -0.14970400
v 0.49401000 0.51196600 -0.15719000
v -0.32302500 0.52377700 0.03795380
v -0.57391600 0.52096000 0.03592600
v -0.35817700 0.51285500 0.03795380
v -0.39418700 0.49489000 0.03795380
v -0.51990100 0.42304800 0.03795380
v -0.57380900 0.38711800 0.03795380
v -0.57391600 0.38696200 0.03795380
v 0.40417200 0.51196600 -0.21107400
f 71 72 58
f 73 72 71
f 73 74 72
f 73 75 74
f 73 76 75
f 73 77 76
f 78 77 73
f 78 71 77
f 77 16 76
f 71 70 77
f 77 70 16
f 71 58 70
f 15 76 16
f 79 76 15
f 79 75 76
f 79 45 75
f 79 12 45
f 79 15 12
f 78 73 71
f 58 59 69
f 68 69 59
f 69 67 70
f 56 54 61
f 54 62 61
f 54 53 62
f 53 36 62
f 53 37 36
f 36 63 62
f 64 63 36
f 65 63 64
f 65 66 63
f 65 64 66
f 66 64 28
f 66 28 67
f 75 45 80
f 66 67 63
f 67 61 63
f 60 61 67
f 60 67 59
f 68 59 67
f 68 67 69
f 58 69 70
f 75 80 74
f 32 1 3
f 74 81 72
f 89 28 88
f 90 28 89
f 90 85 28
f 90 89 85
f 89 88 85
f 85 29 28
f 85 64 29
f 64 36 29
f 44 10 2
f 44 2 42
f 91 42 2
f 41 42 91
f 41 91 1
f 41 1 39
f 39 1 32
f 56 61 60
f 91 2 1
f 9 18 8
f 9 11 18
f 88 28 84
f 74 80 81
f 87 88 84
f 86 85 87
f 81 49 72
f 81 47 49
f 80 47 81
f 80 82 47
f 83 82 80
f 83 46 82
f 83 45 46
f 83 80 45
f 46 47 82
f 55 72 49
f 57 72 55
f 58 72 57
f 70 67 16
f 67 28 16
f 61 62 63
f 64 84 28
f 85 84 64
f 86 84 85
f 86 87 84
f 87 85 88
f 56 60 59
f 48 50 49
f 56 58 57
f 19 22 21
f 19 17 22
f 22 17 16
f 22 16 21
f 21 16 20
f 20 16 23
f 20 23 18
f 23 8 18
f 19 21 20
f 24 8 23
f 26 25 24
f 27 25 26
f 27 23 25
f 27 24 23
f 27 26 24
f 25 23 16
f 25 16 28
f 25 28 6
f 24 25 8
f 19 20 18
f 19 18 17
f 17 18 11
f 2 3 1
f 4 3 2
f 4 5 3
f 4 6 5
f 7 6 4
f 7 8 6
f 7 9 8
f 7 4 9
f 4 2 9
f 10 9 2
f 10 11 9
f 12 11 10
f 13 11 12
f 13 14 11
f 13 12 14
f 56 59 58
f 14 15 16
f 14 16 17
f 14 17 11
f 25 6 8
f 6 28 5
f 14 12 15
f 30 5 29
f 43 40 45
f 40 46 45
f 40 47 46
f 40 38 47
f 48 47 38
f 48 49 47
f 51 50 48
f 51 52 50
f 43 45 12
f 51 37 52
f 53 52 37
f 54 52 53
f 54 50 52
f 54 49 50
f 54 55 49
f 56 55 54
f 56 57 55
f 29 5 28
f 51 38 37
f 43 12 10
f 51 48 38
f 43 44 42
f 31 5 30
f 43 10 44
f 31 3 5
f 31 32 3
f 31 33 32
f 30 34 33
f 35 34 30
f 35 29 34
f 35 30 29
f 31 30 33
f 37 34 36
f 37 33 34
f 38 33 37
f 38 32 33
f 38 39 32
f 40 39 38
f 40 41 39
f 36 34 29
f 40 42 41
f 43 42 40

