# https://github.com/mikedh/trimesh
v -0.25150800 0.26946500 0.23353400
v -0.37721600 0.28744000 0.23353400
v -0.39517500 0.25154100 0.23353400
v -0.39517500 0.26946500 0.23353400
v -0.41539800 0.25154100 0.22901300
v -0.39743900 0.28744000 0.22903000
v -0.38322000 0.29940600 0.22753500
v -0.39965100 0.29641500 0.22454400
v -0.56285700 0.37128200 0.11976700
v -0.43709500 0.44310500 0.11976700
v -0.38169300 0.47603900 0.11677700
v -0.34577600 0.49401400 0.11677700
v -0.32929200 0.49700500 0.11976700
v -0.32107700 0.50747600 0.10778700
v -0.30243400 0.50598000 0.11079500
v -0.31133400 0.49700500 0.11976700
v -0.27847200 0.49401400 0.11677700
v -0.30538300 0.48501300 0.12576600
v -0.29943200 0.31139800 0.22155400
v -0.37121300 0.31139800 0.22155400
v -0.30538300 0.28744000 0.23353400
v -0.15271100 0.42213900 0.11677700
v -0.13587700 0.43895500 0.03795540
v -0.26167300 0.51083200 0.03795540
v -0.04606140 0.38510400 0.03795540
v -0.09883550 0.38621400 0.11677700
v -0.06592060 0.36527300 0.11378600
v -0.23955300 0.26348100 0.22753500
v -0.06592060 0.25154100 0.11378600
v -0.23955300 0.25154100 0.22753500
v -0.25150800 0.25154100 0.23353400
v -0.03606020 0.25154100 0.08987860
v -0.04496040 0.25154100 0.09879770
v -0.05391320 0.35928900 0.08982580
v -0.03998560 0.37319700 0.03795540
v -0.03417390 0.26557200 0.03795540
v -0.30145600 0.52489700 0.03795540
v -0.27356000 0.51690000 0.03795540
v -0.31433600 0.51196300 0.09881530
v -0.31881200 0.51196300 0.09881530
v -0.34356400 0.49850100 0.10778700
v -0.35825200 0.51283800 0.03795540
v -0.31733800 0.51495500 0.08982580
v -0.30341100 0.52489700 0.03795540
v -0.32301200 0.52375500 0.03795540
v -0.39417800 0.49488700 0.03795540
v -0.37948100 0.48052600 0.10778700
v -0.57033500 0.36829000 0.11677700
v -0.56886000 0.35928900 0.11976700
v -0.42888000 0.25154100 0.22002300
v -0.56886000 0.25154100 0.11976700
v -0.57391600 0.36117200 0.10966900
v -0.57391600 0.38695800 0.03795540
v -0.57381000 0.38711000 0.03795540
v -0.51992100 0.42303600 0.03795540
v -0.50519000 0.40867600 0.10778700
v -0.57391600 0.26557200 0.03795540
v -0.57391600 0.25154100 0.05381520
v -0.03590220 0.25154100 0.05381520
v -0.57391600 0.25154100 0.10966900
f 11 41 47
f 41 46 47
f 6 9 48
f 42 37 46
f 41 42 46
f 11 12 41
f 10 11 9
f 11 47 48
f 11 48 9
f 5 6 48
f 45 42 43
f 41 12 14
f 45 37 42
f 39 15 37
f 44 45 43
f 44 43 37
f 39 37 43
f 40 39 43
f 40 43 42
f 40 42 41
f 40 41 14
f 40 14 15
f 40 15 39
f 38 37 15
f 49 5 48
f 17 38 15
f 44 37 45
f 50 5 49
f 60 58 51
f 50 49 51
f 17 24 38
f 5 51 3
f 52 53 58
f 60 51 52
f 60 52 58
f 51 58 3
f 32 59 36
f 32 3 59
f 59 3 58
f 59 58 36
f 57 36 58
f 57 58 53
f 50 51 5
f 57 53 36
f 55 37 53
f 46 37 55
f 46 55 47
f 56 48 47
f 56 47 55
f 56 55 48
f 54 48 55
f 54 55 53
f 54 53 48
f 48 53 52
f 49 48 52
f 49 52 51
f 37 36 53
f 38 24 37
f 20 7 2
f 25 36 37
f 21 19 2
f 20 13 7
f 20 2 19
f 20 19 13
f 16 13 19
f 18 16 19
f 18 19 17
f 18 17 16
f 16 17 15
f 16 15 13
f 13 15 14
f 24 25 37
f 13 12 7
f 8 7 12
f 8 12 11
f 8 11 10
f 8 10 9
f 8 9 6
f 8 6 7
f 6 2 7
f 4 2 6
f 4 6 5
f 4 5 3
f 4 3 2
f 2 3 1
f 21 1 19
f 21 2 1
f 13 14 12
f 17 1 22
f 17 19 1
f 35 25 27
f 35 36 25
f 35 32 36
f 34 32 35
f 34 35 27
f 34 27 32
f 33 32 27
f 33 29 32
f 29 3 32
f 31 3 29
f 31 1 3
f 31 28 1
f 33 27 29
f 30 31 29
f 23 17 22
f 30 28 31
f 23 24 17
f 23 25 24
f 26 25 22
f 26 27 25
f 23 22 25
f 26 22 1
f 28 27 1
f 28 29 27
f 30 29 28
f 26 1 27

