# https://github.com/mikedh/trimesh
v -0.58384100 -0.53443300 0.00895394
v -0.58084700 -0.53293400 -0.00002461
v -0.57935000 -0.52320500 0.01793250
v -0.58384100 -0.51646400 0.04490070
v -0.60180300 -0.51646400 0.09877200
v -0.59880900 -0.52694800 -0.00601032
v -0.59880900 -0.52694800 -0.07783880
v -0.58683400 -0.53293400 -0.06586740
v -0.58084700 -0.53293400 -0.07185310
v -0.57485300 -0.52095200 -0.00002461
v -0.58084700 -0.51496500 0.03592210
v -0.59282200 -0.50299200 0.08979350
v -0.59880900 -0.50897800 0.10176500
v -0.60180300 -0.51197600 0.10329400
v -0.60479700 -0.51496500 0.09577920
v -0.63472700 -0.47305900 0.01194680
v -0.63472700 -0.47305900 -0.20357100
v -0.60479700 -0.51496500 -0.13769600
v -0.59282200 -0.52095200 -0.12572400
v -0.57935000 -0.52993600 -0.08083160
v -0.57485300 -0.52095200 -0.07185310
v -0.59057300 -0.51646400 -0.14368200
v -0.60479700 -0.46108600 0.04190790
v -0.59880900 -0.47305900 0.08380780
v -0.59282200 -0.48503200 0.08979350
v -0.59880900 -0.49101900 0.10176500
v -0.61975900 -0.47605700 0.10329400
v -0.62424900 -0.47605700 0.09877200
v -0.64221800 -0.45808800 0.02694360
v -0.64221800 -0.45808800 -0.09878870
v -0.64071500 -0.46108600 -0.20955700
v -0.63772100 -0.45808800 -0.22904300
v -0.60180300 -0.49400700 -0.22904300
v -0.61676500 -0.49101900 -0.20357100
v -0.57935000 -0.51197600 -0.13470300
v -0.59731200 -0.49400700 -0.22452100
v -0.59282200 -0.48503200 -0.19758500
v -0.59880900 -0.47305900 -0.20357100
v -0.60479700 -0.46108600 -0.19160000
v -0.61676500 -0.45509900 0.02993640
v -0.61077800 -0.46707200 0.08979350
v -0.63772100 -0.43564000 -0.20656400
v -0.60180300 -0.47605700 0.09877200
v -0.61676500 -0.47305900 0.10176500
v -0.63098900 -0.45360000 0.03592210
v -0.64071500 -0.45509900 0.01793250
v -0.64221800 -0.44012800 -0.20656400
v -0.64221800 -0.44685900 -0.21554300
v -0.62874000 -0.44911200 -0.21554300
v -0.59731200 -0.48503200 -0.21778700
v -0.61676500 -0.45509900 -0.20357100
v -0.62874000 -0.44911200 0.01793250
f 1 2 3
f 29 45 46
f 28 45 29
f 28 44 45
f 27 44 28
f 27 43 44
f 26 43 27
f 25 43 26
f 24 43 25
f 24 41 43
f 23 42 40
f 23 39 42
f 23 41 24
f 23 40 41
f 22 33 36
f 21 38 39
f 21 37 38
f 21 35 37
f 20 36 35
f 20 22 36
f 20 35 21
f 19 33 22
f 29 46 47
f 29 47 48
f 29 48 30
f 30 48 31
f 45 52 46
f 42 46 52
f 42 47 46
f 42 48 47
f 42 51 49
f 41 52 45
f 41 44 43
f 41 45 44
f 40 42 52
f 40 52 41
f 18 33 19
f 39 51 42
f 38 50 49
f 38 51 39
f 37 50 38
f 36 50 37
f 35 36 37
f 33 50 36
f 33 49 50
f 32 42 49
f 32 48 42
f 31 48 32
f 38 49 51
f 18 34 33
f 32 49 33
f 17 33 34
f 6 17 7
f 6 16 17
f 6 15 16
f 5 15 6
f 5 14 15
f 5 13 14
f 4 13 5
f 4 12 13
f 4 11 12
f 3 10 11
f 2 21 10
f 2 9 21
f 2 10 3
f 1 9 2
f 1 8 9
f 1 7 8
f 1 6 7
f 1 5 6
f 1 4 5
f 1 3 4
f 17 34 18
f 7 17 18
f 7 18 19
f 3 11 4
f 8 19 9
f 17 32 33
f 7 19 8
f 17 31 32
f 17 30 31
f 16 30 17
f 16 29 30
f 15 29 16
f 14 28 15
f 14 27 28
f 14 26 27
f 13 26 14
f 15 28 29
f 10 23 24
f 12 25 26
f 11 25 12
f 10 39 23
f 10 21 39
f 10 25 11
f 10 24 25
f 9 20 21
f 9 22 20
f 9 19 22
f 12 26 13

