# https://github.com/mikedh/trimesh
v -0.03932460 0.10496100 -0.17964100
v -0.03932460 0.10496100 0.01776570
v -0.03932460 0.25149800 -0.17964100
v 0.28742300 0.10496100 -0.17964100
v -0.03932460 0.25154100 0.01776570
v 0.28747400 0.10496100 0.01776570
v -0.03932460 0.25154100 0.00920460
v -0.03588570 0.25154100 -0.17964100
v 0.28742300 0.25154100 -0.17964100
v 0.35928100 0.10496100 -0.16166900
v 0.28747400 0.25154100 0.01776570
v 0.37724500 0.10496100 -0.00001353
v 0.30502800 0.21555600 0.01776570
v 0.35928100 0.25154100 -0.16166900
v 0.46706800 0.10496100 -0.12574300
v 0.37724500 0.25154100 -0.00001353
v 0.46706800 0.10496100 -0.01796670
v 0.46706800 0.25154100 -0.01796670
v 0.46706800 0.25154100 -0.12574300
v 0.47902700 0.10496100 -0.11975300
v 0.47271300 0.10496100 -0.02078810
v 0.47902700 0.25154100 -0.02395750
v 0.47902700 0.25154100 -0.11971400
v 0.47902700 0.25149800 -0.11975300
v 0.48503200 0.10496100 -0.10777100
v 0.47902700 0.10496100 -0.02395750
v 0.48503200 0.25154100 -0.03593910
v 0.48503200 0.25154100 -0.10777100
v 0.48503200 0.10496100 -0.03593910
f 13 17 18
f 12 17 13
f 11 13 16
f 5 19 14
f 10 19 15
f 6 12 13
f 5 8 7
f 5 9 8
f 5 14 9
f 13 18 16
f 10 14 19
f 15 19 24
f 20 28 25
f 17 21 18
f 18 21 22
f 19 23 24
f 20 24 28
f 21 26 22
f 22 26 29
f 22 29 27
f 23 28 24
f 25 28 27
f 25 27 29
f 5 23 19
f 15 24 20
f 5 27 28
f 5 28 23
f 5 18 22
f 5 22 27
f 1 2 5
f 1 5 7
f 1 7 3
f 1 3 8
f 1 8 9
f 1 9 4
f 1 4 10
f 1 15 20
f 1 20 25
f 1 25 29
f 1 29 26
f 1 26 21
f 1 10 15
f 1 17 12
f 1 21 17
f 5 11 16
f 4 14 10
f 4 9 14
f 3 7 8
f 5 16 18
f 2 13 11
f 2 6 13
f 1 6 2
f 1 12 6
f 2 11 5

