# https://github.com/mikedh/trimesh
v -0.57391600 0.25154100 0.03795540
v -0.57391600 0.25154100 0.05381370
v -0.57391600 0.26554700 0.03795540
v 0.28573900 0.25154100 0.03795540
v -0.57391600 0.26554700 0.05381370
v -0.03596770 0.25154100 0.05381370
v -0.03419730 0.26554700 0.03795540
v 0.27140700 0.26541100 0.03795540
v 0.28734100 0.25154100 0.05380590
v -0.05131110 0.26554700 0.05381370
f 2 10 5
f 8 10 9
f 7 10 8
f 6 9 10
f 3 10 7
f 3 5 10
f 2 6 10
f 4 8 9
f 1 9 6
f 1 4 9
f 1 8 4
f 1 7 8
f 1 3 7
f 1 5 3
f 1 2 5
f 1 6 2

