# https://github.com/mikedh/trimesh
v -0.82183700 0.09599330 0.00520258
v -0.81668300 0.09599330 -0.00766699
v -0.82137400 0.09599330 0.00991577
v -0.82183700 0.09881800 0.00897031
v -0.81293900 0.33250500 -0.00882412
v -0.81021200 0.33250500 -0.01980280
v -0.80362600 0.09599330 -0.03484550
v -0.81462600 0.09599330 0.02189630
v -0.81065200 0.33250500 0.01681620
v -0.81293900 0.33250500 -0.00457660
v -0.79923500 0.33250500 -0.03625660
v -0.79040700 0.09599330 -0.04183060
v -0.79498300 0.33250500 -0.04049000
v -0.81025900 0.09599330 0.02598860
v -0.80237800 0.33250500 0.02993980
v -0.58579400 0.09599330 -0.10232600
v -0.58579400 0.33250500 -0.10232600
v -0.80237800 0.09599330 0.02993980
v -0.79040700 0.33250500 0.03592300
v -0.79828800 0.09599330 0.03198590
v -0.58579400 0.09599330 0.03945090
v -0.58579400 0.33250500 0.03945090
v -0.76330000 0.33250500 0.03935210
v -0.79040700 0.09599330 0.03592300
v -0.73036800 0.09599330 0.04183570
v -0.73651500 0.33250500 0.04049510
v -0.74076800 0.33250500 0.04049510
v -0.73062200 0.09599330 0.04183570
f 8 15 9
f 8 14 15
f 7 13 12
f 7 11 13
f 6 11 7
f 5 22 17
f 5 13 11
f 5 17 13
f 25 27 28
f 12 13 16
f 5 11 6
f 13 17 16
f 16 22 21
f 15 18 20
f 15 20 19
f 16 17 22
f 5 26 22
f 19 20 24
f 19 24 23
f 21 22 25
f 22 26 25
f 23 24 28
f 23 28 27
f 25 26 27
f 14 18 15
f 5 27 26
f 5 9 15
f 5 19 23
f 5 23 27
f 1 2 7
f 1 12 16
f 1 16 21
f 1 21 25
f 1 25 28
f 1 28 24
f 1 24 20
f 1 20 18
f 1 18 14
f 1 14 8
f 1 7 12
f 1 3 4
f 1 8 3
f 4 10 5
f 4 9 10
f 4 8 9
f 5 10 9
f 2 6 7
f 1 6 2
f 1 5 6
f 1 4 5
f 3 8 4
f 5 15 19

