# https://github.com/mikedh/trimesh
v -0.57391700 0.36113800 0.10965900
v -0.57391700 0.37432500 0.04071590
v -0.58577000 0.37432500 0.03747900
v -0.57485300 0.35925800 0.10776500
v -0.57453300 0.09599740 0.10842600
v -0.57391700 0.09599740 0.10965900
v -0.57391700 0.37432500 -0.11529200
v -0.58577000 0.37432500 -0.10846600
v -0.58577000 0.35925800 0.03943880
v -0.57485300 0.09599740 0.10776500
v -0.57391700 0.09599740 -0.10824500
v -0.57485300 0.09599740 -0.10778300
v -0.58577000 0.09599740 -0.10232200
v -0.58577000 0.09599740 0.03943880
f 4 9 14
f 4 14 10
f 4 10 5
f 5 10 14
f 5 14 13
f 5 11 6
f 5 12 11
f 7 11 12
f 7 12 13
f 7 13 8
f 5 13 12
f 3 9 4
f 3 14 9
f 3 13 14
f 3 8 13
f 2 8 3
f 2 7 8
f 1 7 2
f 1 11 7
f 1 6 11
f 1 5 6
f 1 4 5
f 1 3 4
f 1 2 3

