# https://github.com/mikedh/trimesh
v -0.58577000 0.33250500 -0.10232400
v -0.66466000 0.37726000 -0.17961800
v -0.59282100 0.37726000 -0.19759400
v -0.58577000 0.37726000 -0.19759400
v -0.58577000 0.33250500 0.03944680
v -0.71572700 0.33250500 -0.05107790
v -0.72455700 0.34582100 -0.08011800
v -0.67963100 0.38025100 -0.17662600
v -0.65868300 0.38324100 -0.19161000
v -0.58683000 0.38324100 -0.20956100
v -0.58577000 0.38324100 -0.20956100
v -0.58577000 0.35929800 0.03944680
v -0.72455700 0.37125900 0.04790610
v -0.72454400 0.35329700 0.04788030
v -0.72455700 0.35329700 0.04788030
v -0.72455700 0.33250500 0.03795100
v -0.72455700 0.33250500 -0.04666770
v -0.72455700 0.39130300 -0.10954500
v -0.71855300 0.39522300 -0.14369200
v -0.70658400 0.38924200 -0.16765100
v -0.68862400 0.38924200 -0.18562700
v -0.67365300 0.38623200 -0.18861900
v -0.66466000 0.39522300 -0.19759400
v -0.59282100 0.39522300 -0.21557000
v -0.58577000 0.38431200 -0.21010200
v -0.72455700 0.51496100 0.04790610
v -0.58577000 0.52094200 0.03591350
v -0.72455700 0.40718500 -0.11374900
v -0.71855300 0.50297900 -0.14369200
v -0.71257500 0.40120400 -0.15568400
v -0.70658400 0.49699800 -0.16765100
v -0.68862400 0.49699800 -0.18562700
v -0.66466000 0.50297900 -0.19759400
v -0.59282100 0.50297900 -0.21557000
v -0.58577000 0.39522300 -0.21557000
v -0.72455700 0.52932700 0.04429540
v -0.58577000 0.53292300 0.02993010
v -0.72455700 0.49699800 -0.11374900
v -0.72455700 0.52005300 -0.10988000
v -0.72455700 0.53441900 -0.09804240
v -0.71257500 0.50898000 -0.15568400
v -0.67664200 0.50898000 -0.19161000
v -0.60180100 0.51645600 -0.20656900
v -0.59282100 0.51496100 -0.20956100
v -0.58577000 0.50297900 -0.21557000
v -0.67365300 0.51645600 -0.18861900
v -0.72455700 0.53652000 0.03351500
v -0.58577000 0.53538800 0.02500410
v -0.66466000 0.52094200 -0.17961800
v -0.70957300 0.51645600 -0.15269300
v -0.72455700 0.53890400 -0.07784840
v -0.59282100 0.52094200 -0.19759400
v -0.58577000 0.51496100 -0.20956100
v -0.72455700 0.53890400 0.01796330
v -0.58577000 0.53890400 0.01796330
v -0.58577000 0.53890400 -0.05391480
v -0.58577000 0.52094200 -0.19759400
f 21 23 22
f 23 33 34
f 23 34 24
f 24 34 45
f 27 37 36
f 24 35 25
f 26 27 36
f 29 38 39
f 21 33 23
f 29 39 40
f 24 45 35
f 21 42 33
f 19 38 29
f 20 32 21
f 20 31 32
f 20 41 31
f 20 30 41
f 19 30 20
f 19 41 30
f 19 29 41
f 19 28 38
f 18 28 19
f 13 15 14
f 29 40 41
f 21 32 42
f 31 41 32
f 47 55 54
f 33 42 34
f 12 27 26
f 51 57 52
f 51 56 57
f 51 55 56
f 51 54 55
f 49 51 52
f 47 48 55
f 46 49 52
f 43 46 52
f 43 53 44
f 43 57 53
f 43 52 57
f 41 46 42
f 41 50 46
f 40 51 49
f 40 50 41
f 40 46 50
f 40 49 46
f 37 48 47
f 36 37 47
f 34 46 43
f 34 42 46
f 34 53 45
f 34 44 53
f 34 43 44
f 32 41 42
f 10 25 11
f 1 4 11
f 9 24 10
f 3 9 10
f 2 7 8
f 2 9 3
f 2 22 9
f 2 8 22
f 1 7 2
f 1 6 7
f 1 17 6
f 1 16 17
f 1 5 16
f 1 27 12
f 3 10 11
f 1 37 27
f 1 55 48
f 1 56 55
f 1 57 56
f 1 53 57
f 1 45 53
f 1 35 45
f 1 25 35
f 1 11 25
f 10 24 25
f 1 3 4
f 1 2 3
f 1 48 37
f 3 11 4
f 1 12 5
f 5 26 13
f 5 12 26
f 9 22 23
f 8 21 22
f 7 21 8
f 7 20 21
f 7 19 20
f 7 18 19
f 7 28 18
f 7 38 28
f 7 39 38
f 7 40 39
f 7 51 40
f 9 23 24
f 7 47 54
f 7 54 51
f 5 14 15
f 5 15 16
f 6 17 7
f 7 17 16
f 5 13 14
f 7 15 13
f 7 13 26
f 7 26 36
f 7 36 47
f 7 16 15

