# https://github.com/mikedh/trimesh
v -0.04834030 0.10496100 0.04278800
v -0.05389640 0.10496100 0.08982260
v -0.04834030 0.07739360 0.04278800
v -0.57391600 0.10496100 0.04278800
v -0.05672600 0.10496100 0.09548140
v -0.05389640 0.07184280 0.08982260
v -0.05389640 0.05889720 0.04278800
v -0.57391600 0.05364450 0.04278800
v -0.57391600 0.10496100 0.10966000
v -0.06588350 0.10496100 0.11377700
v -0.06588350 0.07784060 0.11377700
v -0.05991570 0.06586360 0.10180800
v -0.06289960 0.05837570 0.09880360
v -0.05991570 0.05986580 0.08982260
v -0.05497680 0.05679240 0.04278800
v -0.52087500 0.01799290 0.04278800
v -0.56882300 0.05986580 0.09581520
v -0.57391600 0.06998010 0.09076050
v -0.56980000 0.10496100 0.11789400
v -0.57391600 0.08981760 0.10966000
v -0.07468080 0.10496100 0.11818000
v -0.07787040 0.06586360 0.11977000
v -0.08085430 0.05837570 0.11678100
v -0.13477000 0.02244470 0.11678100
v -0.14372200 0.01121270 0.10780000
v -0.13775400 0.01195780 0.08982260
v -0.14269300 0.00396692 0.04278800
v -0.39514000 -0.05383190 0.04278800
v -0.51495800 0.02393480 0.09581520
v -0.56583900 0.06286470 0.11228300
v -0.57031500 0.07184280 0.11004200
v -0.57391600 0.07184280 0.09405080
v -0.56882300 0.08981760 0.11977000
v -0.56882300 0.10496100 0.11977000
v -0.57391600 0.08605500 0.10826100
v -0.08419830 0.10496100 0.12293300
v -0.08985740 0.07184280 0.12574600
v -0.28432500 0.10496100 0.20072500
v -0.12576700 0.03367660 0.12126400
v -0.26050500 -0.04939870 0.11678100
v -0.15272500 0.00450710 0.09880360
v -0.26950800 -0.06061200 0.10780000
v -0.27846000 -0.06735490 0.09880360
v -0.26348900 -0.05986690 0.08982260
v -0.26842800 -0.06789510 0.04278800
v -0.35923000 -0.07180670 0.04278800
v -0.31436900 -0.08532970 0.09880360
v -0.38917200 -0.04788990 0.09581520
v -0.51197500 0.02693370 0.11228300
v -0.38618800 -0.04490970 0.11228300
v -0.52992900 0.04490850 0.12126400
v -0.56583900 0.08082090 0.12126400
v -0.55688700 0.10496100 0.12574600
v -0.08985740 0.10496100 0.12574600
v -0.30068400 0.10496100 0.20516000
v -0.25150200 -0.03816680 0.12126400
v -0.29641400 -0.06735490 0.11678100
v -0.30541800 -0.07858680 0.10780000
v -0.28658800 -0.07696630 0.04278800
v -0.32203500 -0.08499440 0.04278800
v -0.28746300 -0.07739470 0.04278800
v -0.32332100 -0.06586480 0.11977000
v -0.33232400 -0.06286580 0.12126400
v -0.35027900 -0.06286580 0.11228300
v -0.31982200 -0.08488270 0.04278800
v -0.30768100 -0.08335530 0.04278800
v -0.36823300 -0.04490970 0.12126400
v -0.40414300 -0.02693490 0.12126400
v -0.37723700 0.10179500 0.20358600
v -0.37723700 0.10496100 0.20516000
v -0.55688700 0.08981760 0.12574600
v -0.30541800 0.10179500 0.20358600
v -0.30541800 -0.06586480 0.11977000
v -0.28746300 -0.05612300 0.12126400
v -0.35027900 0.08082090 0.19311100
f 33 52 71
f 31 35 32
f 33 71 53
f 33 53 34
f 36 54 37
f 37 54 38
f 40 58 42
f 38 56 39
f 40 56 57
f 40 57 58
f 42 58 47
f 42 47 43
f 31 33 35
f 43 45 44
f 38 55 56
f 31 52 33
f 26 41 43
f 30 52 31
f 43 47 45
f 24 40 25
f 25 41 26
f 25 40 42
f 25 42 43
f 25 43 41
f 26 43 44
f 26 44 45
f 26 45 27
f 28 46 47
f 28 47 48
f 28 48 29
f 29 48 50
f 29 50 49
f 30 51 52
f 30 49 51
f 45 47 59
f 56 74 57
f 47 61 59
f 72 75 73
f 55 74 56
f 55 70 69
f 55 69 72
f 57 74 73
f 57 73 58
f 55 72 73
f 58 73 62
f 62 69 63
f 62 73 75
f 63 69 67
f 67 69 68
f 69 75 72
f 24 56 40
f 62 75 69
f 53 71 70
f 52 70 71
f 51 70 52
f 47 58 62
f 47 62 63
f 47 63 64
f 47 64 50
f 47 50 48
f 47 60 65
f 47 65 66
f 47 66 61
f 49 50 68
f 49 68 51
f 50 64 63
f 50 63 67
f 50 67 68
f 51 68 69
f 51 69 70
f 46 60 47
f 24 39 56
f 55 73 74
f 22 39 23
f 1 19 34
f 1 34 53
f 1 53 70
f 1 70 55
f 1 38 54
f 1 54 36
f 1 9 19
f 1 36 21
f 1 10 5
f 1 5 2
f 2 5 6
f 3 6 7
f 4 8 18
f 4 18 32
f 1 21 10
f 1 4 9
f 1 8 4
f 1 16 8
f 23 39 24
f 1 2 6
f 1 6 3
f 1 3 7
f 1 7 15
f 1 15 27
f 1 27 45
f 1 45 59
f 1 59 61
f 1 61 66
f 1 66 65
f 1 65 60
f 1 60 46
f 1 46 28
f 1 28 16
f 4 32 35
f 4 35 20
f 1 55 38
f 5 10 11
f 15 26 27
f 16 28 29
f 16 29 17
f 17 30 31
f 17 31 32
f 17 32 18
f 17 29 49
f 17 49 30
f 19 20 33
f 4 20 9
f 20 35 33
f 21 36 22
f 22 36 37
f 22 37 38
f 22 38 39
f 13 26 15
f 13 25 26
f 19 33 34
f 13 23 24
f 13 24 25
f 5 11 6
f 6 11 12
f 6 13 14
f 6 14 7
f 7 14 15
f 8 16 17
f 8 17 18
f 6 12 13
f 10 21 11
f 11 21 22
f 11 22 12
f 12 22 23
f 12 23 13
f 9 20 19
f 13 15 14

