# https://github.com/mikedh/trimesh
v -0.04728600 0.10496100 -0.14119800
v -0.04728600 -0.06959010 -0.14119800
v -0.04728600 0.10496100 -0.17964700
v -0.52597000 0.10496100 -0.14119800
v -0.04728600 -0.07184390 -0.17298600
v -0.08734390 -0.07184390 -0.14119800
v -0.22458200 -0.08532970 -0.20658200
v -0.04728600 0.04788880 -0.22754200
v -0.44910200 0.10496100 -0.17964700
v -0.52375300 0.10496100 -0.14231000
v -0.57386400 0.04788880 -0.22754200
v -0.57386400 0.04820540 -0.22691800
v -0.57386400 0.05388660 -0.21556600
v -0.57386400 0.05388660 -0.17870700
v -0.57386400 0.05010540 -0.15885000
v -0.57386400 0.04882010 -0.15473800
v -0.56968800 0.04779570 -0.14119800
v -0.04728600 -0.07184390 -0.21556600
v -0.52091800 -0.07184390 -0.14119800
v -0.23654300 -0.07484280 -0.21855700
v -0.04728600 -0.06586480 -0.22754200
v -0.04728600 -0.06620000 -0.22687300
v -0.57386400 -0.07137830 -0.14278000
v -0.57386400 -0.07184390 -0.21556600
v -0.57386400 -0.07091260 -0.21743700
v -0.57386400 -0.06586480 -0.22754200
v -0.04728600 0.04036360 -0.23131000
v -0.49699600 0.10496100 -0.15569600
v -0.51529800 0.10496100 -0.14654000
v -0.57386400 0.03654510 -0.23321800
v -0.57386400 0.03935770 -0.14119800
v -0.57386400 -0.07078220 -0.14119800
v -0.04728600 -0.05388780 -0.23353400
v -0.57386400 -0.05388780 -0.23353400
v -0.04728600 0.03591180 -0.23353400
v -0.57386400 0.03591180 -0.23353400
f 11 25 24
f 11 26 25
f 11 34 26
f 11 36 34
f 11 30 36
f 10 29 11
f 7 25 26
f 8 27 11
f 7 26 20
f 7 24 25
f 7 23 24
f 7 19 23
f 7 22 18
f 9 11 28
f 11 24 23
f 11 27 30
f 11 32 31
f 7 21 22
f 27 36 30
f 27 35 36
f 21 34 33
f 21 26 34
f 20 26 21
f 11 23 32
f 19 32 23
f 11 29 28
f 11 13 12
f 11 14 13
f 11 15 14
f 11 16 15
f 11 31 16
f 16 31 17
f 7 20 21
f 1 10 4
f 5 7 18
f 33 34 36
f 1 2 5
f 1 5 18
f 1 18 22
f 1 22 21
f 1 21 33
f 1 33 35
f 1 35 27
f 1 27 8
f 1 8 3
f 1 3 9
f 1 9 28
f 1 28 29
f 1 29 10
f 1 4 17
f 1 17 31
f 1 31 32
f 4 16 17
f 4 15 16
f 4 14 15
f 4 13 14
f 4 12 13
f 4 11 12
f 6 19 7
f 4 10 11
f 3 8 11
f 2 7 5
f 2 6 7
f 1 6 2
f 1 19 6
f 1 32 19
f 3 11 9
f 33 36 35

