o convex_0
v -0.583841 -0.534433 0.00895394
v -0.580847 -0.532934 -2.46149e-05
v -0.57935 -0.523205 0.0179325
v -0.583841 -0.516464 0.0449007
v -0.601803 -0.516464 0.098772
v -0.598809 -0.526948 -0.00601032
v -0.598809 -0.526948 -0.0778388
v -0.586834 -0.532934 -0.0658674
v -0.580847 -0.532934 -0.0718531
v -0.574853 -0.520952 -2.46149e-05
v -0.580847 -0.514965 0.0359221
v -0.592822 -0.502992 0.0897935
v -0.598809 -0.508978 0.101765
v -0.601803 -0.511976 0.103294
v -0.604797 -0.514965 0.0957792
v -0.634727 -0.473059 0.0119468
v -0.634727 -0.473059 -0.203571
v -0.604797 -0.514965 -0.137696
v -0.592822 -0.520952 -0.125724
v -0.57935 -0.529936 -0.0808316
v -0.574853 -0.520952 -0.0718531
v -0.590573 -0.516464 -0.143682
v -0.604797 -0.461086 0.0419079
v -0.598809 -0.473059 0.0838078
v -0.592822 -0.485032 0.0897935
v -0.598809 -0.491019 0.101765
v -0.619759 -0.476057 0.103294
v -0.624249 -0.476057 0.098772
v -0.642218 -0.458088 0.0269436
v -0.642218 -0.458088 -0.0987887
v -0.640715 -0.461086 -0.209557
v -0.637721 -0.458088 -0.229043
v -0.601803 -0.494007 -0.229043
v -0.616765 -0.491019 -0.203571
v -0.57935 -0.511976 -0.134703
v -0.597312 -0.494007 -0.224521
v -0.592822 -0.485032 -0.197585
v -0.598809 -0.473059 -0.203571
v -0.604797 -0.461086 -0.1916
v -0.616765 -0.455099 0.0299364
v -0.610778 -0.467072 0.0897935
v -0.637721 -0.43564 -0.206564
v -0.601803 -0.476057 0.098772
v -0.616765 -0.473059 0.101765
v -0.630989 -0.4536 0.0359221
v -0.640715 -0.455099 0.0179325
v -0.642218 -0.440128 -0.206564
v -0.642218 -0.446859 -0.215543
v -0.62874 -0.449112 -0.215543
v -0.597312 -0.485032 -0.217787
v -0.616765 -0.455099 -0.203571
v -0.62874 -0.449112 0.0179325
f 1 2 3
f 1 3 4
f 1 4 5
f 1 5 6
f 1 6 7
f 1 7 8
f 1 8 9
f 1 9 2
f 2 10 3
f 2 9 21
f 2 21 10
f 3 11 4
f 3 10 11
f 4 11 12
f 4 12 13
f 4 13 5
f 5 13 14
f 5 14 15
f 5 15 6
f 6 15 16
f 6 16 17
f 6 17 7
f 7 17 18
f 7 18 19
f 7 19 8
f 8 19 9
f 9 20 21
f 9 19 22
f 9 22 20
f 10 23 24
f 10 24 25
f 10 25 11
f 10 21 39
f 10 39 23
f 11 25 12
f 12 25 26
f 12 26 13
f 13 26 14
f 14 26 27
f 14 27 28
f 14 28 15
f 15 28 29
f 15 29 16
f 16 29 30
f 16 30 17
f 17 30 31
f 17 31 32
f 17 32 33
f 17 33 34
f 17 34 18
f 18 34 33
f 18 33 19
f 19 33 22
f 20 35 21
f 20 22 36
f 20 36 35
f 21 35 37
f 21 37 38
f 21 38 39
f 22 33 36
f 23 40 41
f 23 41 24
f 23 39 42
f 23 42 40
f 24 41 43
f 24 43 25
f 25 43 26
f 26 43 27
f 27 43 44
f 27 44 28
f 28 44 45
f 28 45 29
f 29 45 46
f 29 46 47
f 29 47 48
f 29 48 30
f 30 48 31
f 31 48 32
f 32 49 33
f 32 48 42
f 32 42 49
f 33 49 50
f 33 50 36
f 35 36 37
f 36 50 37
f 37 50 38
f 38 51 39
f 38 50 49
f 38 49 51
f 39 51 42
f 40 52 41
f 40 42 52
f 41 45 44
f 41 44 43
f 41 52 45
f 42 51 49
f 42 48 47
f 42 47 46
f 42 46 52
f 45 52 46
o convex_1
v -0.251508 0.269465 0.233534
v -0.377216 0.28744 0.233534
v -0.395175 0.251541 0.233534
v -0.395175 0.269465 0.233534
v -0.415398 0.251541 0.229013
v -0.397439 0.28744 0.22903
v -0.38322 0.299406 0.227535
v -0.399651 0.296415 0.224544
v -0.562857 0.371282 0.119767
v -0.437095 0.443105 0.119767
v -0.381693 0.476039 0.116777
v -0.345776 0.494014 0.116777
v -0.329292 0.497005 0.119767
v -0.321077 0.507476 0.107787
v -0.302434 0.50598 0.110795
v -0.311334 0.497005 0.119767
v -0.278472 0.494014 0.116777
v -0.305383 0.485013 0.125766
v -0.299432 0.311398 0.221554
v -0.371213 0.311398 0.221554
v -0.305383 0.28744 0.233534
v -0.152711 0.422139 0.116777
v -0.135877 0.438955 0.0379554
v -0.261673 0.510832 0.0379554
v -0.0460614 0.385104 0.0379554
v -0.0988355 0.386214 0.116777
v -0.0659206 0.365273 0.113786
v -0.239553 0.263481 0.227535
v -0.0659206 0.251541 0.113786
v -0.239553 0.251541 0.227535
v -0.251508 0.251541 0.233534
v -0.0360602 0.251541 0.0898786
v -0.0449604 0.251541 0.0987977
v -0.0539132 0.359289 0.0898258
v -0.0399856 0.373197 0.0379554
v -0.0341739 0.265572 0.0379554
v -0.301456 0.524897 0.0379554
v -0.27356 0.5169 0.0379554
v -0.314336 0.511963 0.0988153
v -0.318812 0.511963 0.0988153
v -0.343564 0.498501 0.107787
v -0.358252 0.512838 0.0379554
v -0.317338 0.514955 0.0898258
v -0.303411 0.524897 0.0379554
v -0.323012 0.523755 0.0379554
v -0.394178 0.494887 0.0379554
v -0.379481 0.480526 0.107787
v -0.570335 0.36829 0.116777
v -0.56886 0.359289 0.119767
v -0.42888 0.251541 0.220023
v -0.56886 0.251541 0.119767
v -0.573916 0.361172 0.109669
v -0.573916 0.386958 0.0379554
v -0.57381 0.38711 0.0379554
v -0.519921 0.423036 0.0379554
v -0.50519 0.408676 0.107787
v -0.573916 0.265572 0.0379554
v -0.573916 0.251541 0.0538152
v -0.0359022 0.251541 0.0538152
v -0.573916 0.251541 0.109669
f 54 55 53
f 56 55 54
f 56 57 55
f 56 58 57
f 56 54 58
f 58 54 59
f 60 58 59
f 60 61 58
f 60 62 61
f 60 63 62
f 60 64 63
f 60 59 64
f 65 64 59
f 65 66 64
f 65 67 66
f 68 67 65
f 68 69 67
f 70 69 68
f 70 71 69
f 70 68 71
f 68 65 71
f 72 71 65
f 72 54 71
f 72 59 54
f 72 65 59
f 73 71 54
f 73 53 71
f 73 54 53
f 69 71 53
f 69 53 74
f 75 69 74
f 75 76 69
f 75 77 76
f 75 74 77
f 78 77 74
f 78 79 77
f 78 53 79
f 78 74 53
f 80 79 53
f 80 81 79
f 82 81 80
f 82 83 81
f 82 80 83
f 83 80 53
f 83 53 55
f 83 55 81
f 81 55 84
f 85 81 84
f 85 79 81
f 85 84 79
f 86 79 84
f 86 87 79
f 86 84 87
f 87 84 88
f 87 88 77
f 87 77 79
f 77 88 89
f 76 77 89
f 90 76 89
f 69 76 90
f 69 90 67
f 90 89 67
f 91 67 89
f 92 67 91
f 92 66 67
f 92 93 66
f 92 94 93
f 92 95 94
f 92 91 95
f 91 89 95
f 96 95 89
f 96 97 95
f 96 89 97
f 97 89 94
f 97 94 95
f 94 89 98
f 93 94 98
f 93 98 99
f 63 93 99
f 63 64 93
f 93 64 66
f 63 99 100
f 63 100 61
f 62 63 61
f 58 61 100
f 57 58 100
f 101 57 100
f 102 57 101
f 102 103 57
f 102 101 103
f 101 104 103
f 101 100 104
f 100 105 104
f 106 105 100
f 106 107 105
f 106 100 107
f 108 107 100
f 108 99 107
f 108 100 99
f 98 107 99
f 98 89 107
f 107 89 105
f 89 88 105
f 109 105 88
f 109 110 105
f 109 88 110
f 111 110 88
f 111 55 110
f 84 55 111
f 84 111 88
f 103 110 55
f 112 110 103
f 112 104 110
f 112 103 104
f 104 105 110
f 57 103 55
o convex_2
v -0.450035 0.361258 -0.180629
v -0.449102 0.251541 -0.179623
v -0.474625 0.361258 -0.169246
v 0.2864 0.361258 -0.180629
v -0.485104 0.251541 -0.161629
v 0.287333 0.251541 -0.179623
v -0.502949 0.251541 -0.152707
v -0.532934 0.251541 -0.137708
v -0.544865 0.251541 -0.131717
v -0.544865 0.361258 -0.131717
v 0.361516 0.361258 -0.161394
v 0.359234 0.251541 -0.161672
v -0.573916 0.251541 -0.108246
v -0.573916 0.361258 -0.109059
v 0.415468 0.361258 -0.143699
v 0.467033 0.251541 -0.125748
v -0.573916 0.251541 0.0379538
v -0.573916 0.361258 0.0379538
v 0.469315 0.361258 -0.125748
v 0.479587 0.361258 -0.120634
v 0.478964 0.251541 -0.119714
v 0.285673 0.251541 0.0379538
v -0.0400057 0.361258 0.0379538
v 0.484982 0.251541 -0.107775
v 0.486019 0.361258 -0.107775
v 0.467033 0.251541 -0.0179756
v 0.467033 0.361258 -0.0169914
v 0.269384 0.361258 0.0359212
v 0.271459 0.265417 0.0379538
v 0.484982 0.251541 -0.0359483
v 0.486019 0.361258 -0.0359483
v 0.478964 0.251541 -0.0239665
v 0.480935 0.361258 -0.0219767
f 113 114 115
f 113 115 122
f 113 122 126
f 113 126 130
f 113 130 135
f 113 135 140
f 113 140 139
f 113 139 145
f 113 145 143
f 113 143 137
f 113 137 132
f 113 132 131
f 113 131 127
f 113 127 123
f 113 123 116
f 113 116 118
f 113 118 114
f 114 117 115
f 114 118 124
f 114 124 128
f 114 128 133
f 114 133 136
f 114 136 142
f 114 142 144
f 114 144 138
f 114 138 134
f 114 134 129
f 114 129 125
f 114 125 121
f 114 121 120
f 114 120 119
f 114 119 117
f 115 117 119
f 115 119 120
f 115 120 121
f 115 121 122
f 116 123 124
f 116 124 118
f 121 125 126
f 121 126 122
f 123 127 124
f 124 127 128
f 125 129 130
f 125 130 126
f 127 131 128
f 128 131 132
f 128 132 133
f 129 134 141
f 129 141 135
f 129 135 130
f 132 136 133
f 132 137 136
f 134 138 139
f 134 139 140
f 134 140 141
f 135 141 140
f 136 137 143
f 136 143 142
f 138 144 145
f 138 145 139
f 142 143 145
f 142 145 144
o convex_3
v -0.449059 0.104961 -0.179641
v -0.469886 0.104961 -0.169247
v -0.449059 0.251541 -0.179641
v -0.0393246 0.104961 -0.179641
v -0.515308 0.104961 -0.146518
v -0.538856 0.251541 -0.134749
v -0.0539244 0.251541 -0.179641
v -0.0393246 0.251498 -0.179641
v -0.0393246 0.104961 0.0376234
v -0.541734 0.104961 -0.133293
v -0.544873 0.104961 -0.131715
v -0.544873 0.251541 -0.131715
v -0.0393246 0.251541 0.00923177
v -0.0393246 0.174234 0.0969143
v -0.0404235 0.152697 0.170644
v -0.0539244 0.104961 0.0897961
v -0.573916 0.104961 -0.108217
v -0.573916 0.251541 -0.108217
v -0.0393246 0.251541 0.093153
v -0.0393246 0.184062 0.102051
v -0.0419411 0.155696 0.173636
v -0.0449238 0.148206 0.170644
v -0.0393246 0.193776 0.106904
v -0.0393246 0.197592 0.107753
v -0.0393246 0.23352 0.107753
v -0.0393246 0.240321 0.104356
v -0.0393246 0.2455 0.101768
v -0.0598899 0.104961 0.101768
v -0.573916 0.104961 0.109654
v -0.573916 0.251541 0.109654
v -0.0449761 0.251541 0.0987747
v -0.0718732 0.2455 0.167651
v -0.0629249 0.242516 0.170644
v -0.0539244 0.161679 0.179622
v -0.287468 0.141477 0.229004
v -0.0598899 0.227537 0.173636
v -0.0898219 0.104961 0.12571
v -0.0842228 0.104961 0.12292
v -0.0746989 0.104961 0.118147
v -0.0659077 0.104961 0.113739
v -0.305417 0.119768 0.221522
v -0.278467 0.112279 0.206558
v -0.284328 0.104961 0.200734
v -0.569782 0.104961 0.117864
v -0.56884 0.251541 0.119725
v -0.0659077 0.251541 0.113739
v -0.077891 0.2455 0.173636
v -0.251518 0.251541 0.233534
v -0.0718732 0.23352 0.179622
v -0.251518 0.179628 0.233534
v -0.305417 0.143715 0.233534
v -0.377212 0.119768 0.221522
v -0.300655 0.104961 0.205142
v -0.56884 0.104961 0.119725
v -0.437076 0.23352 0.221522
v -0.42886 0.251541 0.220026
v -0.239535 0.251541 0.227508
v -0.395161 0.251541 0.233534
v -0.377212 0.143715 0.233534
v -0.377212 0.104961 0.205142
v -0.386212 0.134733 0.229004
v -0.556857 0.104961 0.12571
v -0.558741 0.104961 0.12478
v -0.404161 0.134733 0.220026
v -0.404161 0.152697 0.229004
v -0.431111 0.179628 0.222291
v -0.437076 0.197592 0.221522
v -0.413162 0.23352 0.233534
v -0.415412 0.251541 0.229004
v -0.395161 0.161679 0.233534
v -0.413162 0.197592 0.233534
v -0.42211 0.18861 0.229004
f 146 147 148
f 146 148 152
f 146 152 153
f 146 153 149
f 146 149 154
f 146 154 161
f 146 161 173
f 146 173 185
f 146 185 184
f 146 184 183
f 146 183 182
f 146 182 188
f 146 188 198
f 146 198 205
f 146 205 207
f 146 207 208
f 146 208 199
f 146 199 189
f 146 189 174
f 146 174 162
f 146 162 156
f 146 156 155
f 146 155 150
f 146 150 147
f 147 150 151
f 147 151 148
f 148 151 157
f 148 157 163
f 148 163 175
f 148 175 190
f 148 190 201
f 148 201 214
f 148 214 203
f 148 203 193
f 148 193 202
f 148 202 191
f 148 191 176
f 148 176 164
f 148 164 158
f 148 158 152
f 149 153 158
f 149 158 164
f 149 164 172
f 149 172 171
f 149 171 170
f 149 170 169
f 149 169 168
f 149 168 165
f 149 165 159
f 149 159 154
f 150 155 151
f 151 155 156
f 151 156 157
f 152 158 153
f 154 159 160
f 154 160 161
f 156 162 163
f 156 163 157
f 159 165 160
f 160 166 167
f 160 167 161
f 160 165 168
f 160 168 169
f 160 169 170
f 160 170 171
f 160 171 172
f 160 172 166
f 161 167 173
f 162 174 175
f 162 175 163
f 164 176 177
f 164 177 178
f 164 178 172
f 166 179 180
f 166 180 167
f 166 172 181
f 166 181 194
f 166 194 179
f 167 182 183
f 167 183 184
f 167 184 185
f 167 185 173
f 167 180 186
f 167 186 187
f 167 187 188
f 167 188 182
f 172 178 181
f 174 189 175
f 175 189 190
f 176 191 192
f 176 192 177
f 177 192 178
f 178 192 193
f 178 193 194
f 178 194 181
f 179 194 193
f 179 193 195
f 179 195 180
f 180 196 186
f 180 195 196
f 186 196 204
f 186 204 197
f 186 197 205
f 186 205 198
f 186 198 188
f 186 188 187
f 189 199 190
f 190 199 212
f 190 212 200
f 190 200 201
f 191 202 192
f 192 202 193
f 193 203 213
f 193 213 216
f 193 216 215
f 193 215 204
f 193 204 196
f 193 196 195
f 197 204 206
f 197 206 207
f 197 207 205
f 199 208 209
f 199 209 210
f 199 210 211
f 199 211 212
f 200 212 216
f 200 216 213
f 200 213 214
f 200 214 201
f 203 214 213
f 204 215 210
f 204 210 206
f 206 210 209
f 206 209 208
f 206 208 207
f 210 215 216
f 210 216 217
f 210 217 211
f 211 217 212
f 212 217 216
o convex_4
v -0.700631 -0.0898207 -0.0539424
v -0.573928 -0.0898207 -0.0539088
v -0.700631 -0.0898207 0.0179144
v -0.700631 -0.0718163 -0.17965
v -0.700594 -0.0718527 -0.179616
v -0.682633 -0.0718527 -0.197589
v -0.6467 -0.0718527 -0.215561
v -0.573928 -0.0718527 -0.215561
v -0.573928 -0.0898207 0.017948
v -0.700594 -0.0898207 0.017948
v -0.700631 -0.0838193 0.0299409
v -0.700631 -0.0658331 -0.197622
v -0.697605 -0.068852 -0.194599
v -0.700631 -0.0610683 -0.204778
v -0.65568 -0.0628687 -0.224531
v -0.640709 -0.0658513 -0.227521
v -0.573928 -0.0658513 -0.227521
v -0.573928 -0.0838193 0.0299073
v -0.573928 -0.0832009 0.0302433
v -0.700631 -0.0718709 0.0359206
v -0.700631 -0.0539211 -0.206558
v -0.670652 -0.059868 -0.221541
v -0.6467 -0.0538847 -0.233534
v -0.573928 -0.0557579 -0.232593
v -0.573928 -0.0718527 0.0359206
v -0.573928 0.0860586 0.108248
v -0.573928 0.089805 0.109659
v -0.700631 0.095952 0.0359206
v -0.700631 0.0358827 -0.206558
v -0.694603 -0.0479014 -0.209582
v -0.682633 -0.0538847 -0.215561
v -0.573928 -0.0538847 -0.233534
v -0.6467 0.0359191 -0.233534
v -0.573928 0.0959701 0.109659
v -0.700594 0.0959701 0.0359206
v -0.700631 0.0959701 0.0358198
v -0.694603 0.0419024 -0.209582
v -0.700631 0.0471582 -0.197555
v -0.573928 0.0359191 -0.233534
v -0.658682 0.0419024 -0.227521
v -0.65568 0.0493951 -0.224531
v -0.6467 0.0479038 -0.227521
v -0.573928 0.0959701 -0.10823
v -0.700631 0.0959701 -0.0583431
v -0.691614 0.0493951 -0.206558
v -0.700631 0.0538689 -0.17965
v -0.573928 0.0479038 -0.227521
v -0.6467 0.0538871 -0.215561
v -0.573928 0.048213 -0.226916
v -0.573928 0.0538871 -0.215561
v -0.682633 0.0538871 -0.197589
f 218 219 226
f 218 226 227
f 218 227 220
f 218 220 228
f 218 228 237
f 218 237 245
f 218 245 253
f 218 253 261
f 218 261 263
f 218 263 255
f 218 255 246
f 218 246 238
f 218 238 231
f 218 231 229
f 218 229 221
f 218 221 222
f 218 222 223
f 218 223 224
f 218 224 225
f 218 225 219
f 219 225 234
f 219 234 241
f 219 241 249
f 219 249 256
f 219 256 264
f 219 264 266
f 219 266 267
f 219 267 260
f 219 260 251
f 219 251 244
f 219 244 243
f 219 243 242
f 219 242 236
f 219 236 235
f 219 235 226
f 220 227 228
f 221 229 222
f 222 229 230
f 222 230 223
f 223 230 229
f 223 229 231
f 223 231 224
f 224 232 233
f 224 233 234
f 224 234 225
f 224 231 232
f 226 235 228
f 226 228 227
f 228 235 236
f 228 236 237
f 231 238 239
f 231 239 232
f 232 239 240
f 232 240 233
f 233 240 241
f 233 241 234
f 236 242 237
f 237 242 243
f 237 243 244
f 237 244 251
f 237 251 245
f 238 246 254
f 238 254 247
f 238 247 248
f 238 248 239
f 239 248 240
f 240 249 241
f 240 248 247
f 240 247 254
f 240 254 250
f 240 250 256
f 240 256 249
f 245 251 252
f 245 252 253
f 246 255 254
f 250 257 258
f 250 258 259
f 250 259 264
f 250 264 256
f 250 254 257
f 251 260 261
f 251 261 253
f 251 253 252
f 254 255 262
f 254 262 258
f 254 258 257
f 255 263 262
f 258 265 259
f 258 262 268
f 258 268 265
f 259 265 266
f 259 266 264
f 260 267 265
f 260 265 261
f 261 265 268
f 261 268 262
f 261 262 263
f 265 267 266
o convex_5
v -0.77245 -0.0898207 -0.107777
v -0.784424 -0.0838193 -0.11976
v -0.781433 -0.0808367 -0.134726
v -0.77021 -0.0853287 -0.125726
v -0.754495 -0.0898207 -0.107777
v -0.790417 -0.0898207 -0.053904
v -0.790417 -0.0718527 -0.125726
v -0.808384 -0.0898207 -5.76276e-06
v -0.820358 -0.0838193 0.00598576
v -0.784424 -0.0658513 -0.137709
v -0.7066 -0.059868 -0.20359
v -0.700631 -0.0658331 -0.197624
v -0.700631 -0.0718163 -0.179649
v -0.718573 -0.0898207 -0.0718786
v -0.790417 0.0718552 -0.125726
v -0.826339 -0.0718527 -5.76276e-06
v -0.790417 -0.0898207 0.0179433
v -0.808384 -0.0853287 0.020187
v -0.817367 -0.0808367 0.013456
v -0.784424 0.0778384 -0.137709
v -0.7066 0.0299358 -0.20359
v -0.700631 -0.0539211 -0.206548
v -0.700631 -0.0610683 -0.204763
v -0.700631 -0.0898207 -0.0539295
v -0.826339 0.0718552 -5.76276e-06
v -0.821859 0.0920601 -5.76276e-06
v -0.814365 -0.0718527 0.0239348
v -0.821379 0.0959701 0.00991212
v -0.73654 -0.0898207 0.0359179
v -0.790417 -0.0838193 0.0299264
v -0.7994 -0.0808367 0.0314306
v -0.821859 0.0959701 0.00519539
v -0.781433 0.085313 -0.134726
v -0.781433 0.080821 -0.139213
v -0.700631 0.0358827 -0.206548
v -0.700631 -0.0898207 0.0179178
v -0.810267 0.0959701 0.026
v -0.814365 0.089805 0.0239348
v -0.814623 0.0959701 0.0218952
v -0.727557 -0.0853287 0.0448924
v -0.73654 -0.0838193 0.0479009
v -0.790417 -0.0718527 0.0359179
v -0.790417 0.0959701 0.0359179
v -0.745524 -0.0808367 0.0493797
v -0.816703 0.0959701 -0.00768002
v -0.700631 0.0538689 -0.179649
v -0.700631 0.0471582 -0.197573
v -0.803621 0.0959701 -0.0348586
v -0.77245 0.089805 -0.107777
v -0.700631 0.0959701 -0.0583403
v -0.700631 -0.0838193 0.0299264
v -0.724554 -0.077836 0.0479009
v -0.73654 -0.0718527 0.053867
v -0.73654 0.0718552 0.053867
v -0.742521 0.0838217 0.0479009
v -0.730633 0.0959701 0.0418329
v -0.790417 0.0959701 -0.0418445
v -0.720136 0.0959701 -0.0554592
v -0.700631 0.0959701 0.0358159
v -0.700631 -0.0718709 0.0359179
v -0.724554 0.0658537 0.0479009
v -0.71258 -0.0658513 0.0419094
v -0.71258 0.0778384 0.0419094
v -0.700631 0.095952 0.0359179
v -0.71242 0.0959701 0.038289
v -0.730387 0.0959701 0.0418329
f 269 270 271
f 269 271 272
f 269 272 273
f 269 273 282
f 269 282 292
f 269 292 304
f 269 304 297
f 269 297 285
f 269 285 276
f 269 276 274
f 269 274 270
f 270 275 271
f 270 274 276
f 270 276 277
f 270 277 275
f 271 275 278
f 271 278 279
f 271 279 280
f 271 280 272
f 272 280 281
f 272 281 273
f 273 281 282
f 275 283 288
f 275 288 278
f 275 277 284
f 275 284 293
f 275 293 283
f 276 285 286
f 276 286 277
f 277 286 287
f 277 287 284
f 278 288 289
f 278 289 279
f 279 289 303
f 279 303 290
f 279 290 291
f 279 291 280
f 280 291 290
f 280 290 303
f 280 303 315
f 280 315 314
f 280 314 318
f 280 318 327
f 280 327 332
f 280 332 328
f 280 328 319
f 280 319 304
f 280 304 292
f 280 292 281
f 281 292 282
f 283 293 294
f 283 294 288
f 284 287 295
f 284 295 296
f 284 296 293
f 285 297 309
f 285 309 298
f 285 298 286
f 286 295 287
f 286 298 299
f 286 299 295
f 288 294 300
f 288 300 301
f 288 301 302
f 288 302 289
f 289 302 303
f 293 296 300
f 293 300 294
f 295 299 305
f 295 305 306
f 295 306 296
f 296 306 307
f 296 307 305
f 296 305 311
f 296 311 324
f 296 324 334
f 296 334 333
f 296 333 327
f 296 327 318
f 296 318 326
f 296 326 325
f 296 325 316
f 296 316 313
f 296 313 300
f 297 304 308
f 297 308 309
f 298 309 299
f 299 310 311
f 299 311 305
f 299 309 312
f 299 312 321
f 299 321 310
f 300 313 301
f 301 314 315
f 301 315 302
f 301 313 316
f 301 316 317
f 301 317 318
f 301 318 314
f 302 315 303
f 304 319 308
f 305 307 306
f 308 320 309
f 308 319 320
f 309 320 321
f 309 321 312
f 310 321 322
f 310 322 311
f 311 322 323
f 311 323 324
f 316 325 317
f 317 325 326
f 317 326 318
f 319 328 320
f 320 329 322
f 320 322 321
f 320 328 330
f 320 330 331
f 320 331 329
f 322 329 331
f 322 331 332
f 322 332 333
f 322 333 334
f 322 334 323
f 323 334 324
f 327 333 332
f 328 332 331
f 328 331 330
o convex_6
v -0.736534 0.520942 0.0538924
v -0.724557 0.514961 0.0479001
v -0.724557 0.529327 0.0443085
v -0.742523 0.532923 0.0479001
v -0.79042 0.520942 0.0359156
v -0.736534 0.359298 0.0538924
v -0.724557 0.353297 0.0479001
v -0.724557 0.53652 0.0335338
v -0.736534 0.538904 0.0359156
v -0.79042 0.538904 0.0179576
v -0.796409 0.532923 0.0299232
v -0.803892 0.529933 0.0269366
v -0.814374 0.520942 0.0239499
v -0.796289 0.332505 0.0329856
v -0.79042 0.332505 0.0359156
v -0.745522 0.350306 0.0493935
v -0.736534 0.335334 0.0419078
v -0.724557 0.332505 0.0379571
v -0.724557 0.538904 0.0179576
v -0.808386 0.538904 -4.40211e-07
v -0.810627 0.534419 0.0179576
v -0.821857 0.529933 0.00897856
v -0.814374 0.359298 0.0239499
v -0.802397 0.332505 0.0299232
v -0.763318 0.332505 0.0393559
v -0.740769 0.332505 0.0404901
v -0.736534 0.332505 0.0404901
v -0.724557 0.332505 -0.0466534
v -0.724557 0.538904 -0.0778436
v -0.772465 0.538904 -0.107767
v -0.781433 0.534419 -0.134723
v -0.817363 0.534419 -0.00899834
v -0.820362 0.532923 -4.40211e-07
v -0.826341 0.520942 -4.40211e-07
v -0.826341 0.359298 -4.40211e-07
v -0.820362 0.359298 0.0119653
v -0.820362 0.347316 0.00597295
v -0.817363 0.350306 0.0134586
v -0.810667 0.332505 0.0168045
v -0.794994 0.332505 -0.0405099
v -0.772465 0.341335 -0.107767
v -0.770213 0.345821 -0.125744
v -0.724557 0.345821 -0.0800931
v -0.724557 0.534419 -0.0980511
v -0.7545 0.538904 -0.107767
v -0.736534 0.534419 -0.110017
v -0.745522 0.529933 -0.121245
v -0.781433 0.529933 -0.139222
v -0.784432 0.526943 -0.13771
v -0.820362 0.526943 -0.011985
v -0.79042 0.520942 -0.125744
v -0.79042 0.359298 -0.125744
v -0.810209 0.332505 -0.0198109
v -0.812959 0.332505 -0.00882821
v -0.814374 0.335334 -0.00599274
v -0.812959 0.332505 -0.00459391
v -0.799229 0.332505 -0.0362756
v -0.784432 0.347316 -0.119752
v -0.781433 0.350306 -0.134723
v -0.776949 0.350306 -0.134723
v -0.766476 0.359298 -0.131737
v -0.748511 0.359298 -0.11376
v -0.724557 0.391303 -0.109544
v -0.724557 0.520053 -0.109866
v -0.730546 0.520942 -0.11376
v -0.724557 0.496998 -0.11376
v -0.724557 0.407185 -0.11376
v -0.778443 0.359298 -0.13771
v -0.784432 0.365278 -0.13771
v -0.803025 0.332505 -0.0305857
f 335 336 337
f 335 337 338
f 335 338 345
f 335 345 339
f 335 339 349
f 335 349 340
f 335 340 341
f 335 341 336
f 336 341 352
f 336 352 362
f 336 362 377
f 336 377 397
f 336 397 401
f 336 401 400
f 336 400 398
f 336 398 378
f 336 378 363
f 336 363 353
f 336 353 342
f 336 342 337
f 337 342 338
f 338 342 343
f 338 343 344
f 338 344 345
f 339 345 346
f 339 346 347
f 339 347 348
f 339 348 349
f 340 349 350
f 340 350 351
f 340 351 352
f 340 352 341
f 342 353 343
f 343 353 363
f 343 363 379
f 343 379 364
f 343 364 354
f 343 354 344
f 344 354 355
f 344 355 345
f 345 355 346
f 346 355 347
f 347 355 356
f 347 356 357
f 347 357 348
f 348 357 358
f 348 358 373
f 348 373 390
f 348 390 388
f 348 388 387
f 348 387 404
f 348 404 391
f 348 391 374
f 348 374 362
f 348 362 352
f 348 352 361
f 348 361 360
f 348 360 359
f 348 359 349
f 349 359 350
f 350 359 360
f 350 360 351
f 351 360 361
f 351 361 352
f 354 364 365
f 354 365 366
f 354 366 367
f 354 367 355
f 355 367 356
f 356 367 368
f 356 368 369
f 356 369 370
f 356 370 357
f 357 370 371
f 357 371 372
f 357 372 373
f 357 373 358
f 362 374 375
f 362 375 376
f 362 376 377
f 363 378 379
f 364 379 365
f 365 379 380
f 365 380 381
f 365 381 382
f 365 382 383
f 365 383 384
f 365 384 366
f 366 384 367
f 367 384 368
f 368 384 385
f 368 385 386
f 368 386 369
f 369 386 387
f 369 387 388
f 369 388 389
f 369 389 371
f 369 371 370
f 371 389 390
f 371 390 373
f 371 373 372
f 374 391 375
f 375 391 392
f 375 392 393
f 375 393 376
f 376 393 394
f 376 394 395
f 376 395 377
f 377 395 396
f 377 396 397
f 378 380 379
f 378 398 380
f 380 398 381
f 381 398 399
f 381 399 400
f 381 400 382
f 382 400 401
f 382 401 402
f 382 402 403
f 382 403 383
f 383 385 384
f 383 403 386
f 383 386 385
f 386 403 393
f 386 393 387
f 387 393 392
f 387 392 404
f 388 390 389
f 391 404 392
f 393 403 402
f 393 402 394
f 394 402 395
f 395 402 401
f 395 401 397
f 395 397 396
f 398 400 399
o convex_7
v -0.573916 0.251541 0.0379554
v -0.573916 0.251541 0.0538137
v -0.573916 0.265547 0.0379554
v 0.285739 0.251541 0.0379554
v -0.573916 0.265547 0.0538137
v -0.0359677 0.251541 0.0538137
v -0.0341973 0.265547 0.0379554
v 0.271407 0.265411 0.0379554
v 0.287341 0.251541 0.0538059
v -0.0513111 0.265547 0.0538137
f 405 406 409
f 405 409 407
f 405 407 411
f 405 411 412
f 405 412 408
f 405 408 413
f 405 413 410
f 405 410 406
f 406 410 414
f 406 414 409
f 407 409 414
f 407 414 411
f 408 412 413
f 410 413 414
f 411 414 412
f 412 414 413
o convex_8
v 0.39521 0.514957 -0.209579
v 0.39521 0.502992 -0.21557
v -0.57381 0.514957 -0.209579
v -0.57381 0.502992 -0.21557
v -0.573916 0.52049 -0.125164
v -0.573916 0.381536 -0.125164
v -0.57381 0.395227 -0.21557
v -0.57381 0.383246 -0.209579
v 0.39521 0.395227 -0.21557
v 0.449091 0.395227 -0.197605
v 0.454996 0.383246 -0.191614
v 0.473026 0.395227 -0.185623
v 0.462482 0.386237 -0.188623
v 0.469231 0.381743 -0.179641
v 0.487261 0.381743 -0.161686
v 0.479592 0.361258 -0.12063
v 0.449091 0.377248 -0.179641
v 0.401114 0.383246 -0.209579
v 0.39521 0.377248 -0.197605
v 0.286393 0.361273 -0.180623
v 0.361468 0.361273 -0.161403
v 0.469336 0.361273 -0.125757
v -0.450021 0.361273 -0.180623
v -0.57381 0.377248 -0.197605
v -0.573916 0.361258 -0.109054
v -0.544814 0.361273 -0.131739
v -0.474589 0.361273 -0.169261
v -0.573916 0.361258 0.0379538
v -0.573916 0.532925 0.0299384
v -0.573916 0.538907 -0.0538879
v -0.57381 0.520955 -0.197535
v 0.39521 0.520955 -0.197605
v 0.467052 0.538907 -0.0898135
v 0.269426 0.538907 0.0179632
v -0.573916 0.538907 0.0179632
v 0.263424 0.532925 0.0299384
v 0.48495 0.538907 -0.0359411
v 0.502955 0.538907 -0.0898135
v 0.449091 0.520955 -0.179641
v 0.467016 0.51646 -0.18188
v 0.449091 0.514957 -0.191614
v 0.458054 0.511966 -0.19311
v 0.473026 0.502992 -0.185623
v 0.449091 0.502992 -0.197605
v 0.490952 0.502992 -0.167668
v 0.484941 0.51646 -0.163925
v 0.514959 0.532925 -0.0958011
v 0.514959 0.532925 -0.0598755
v 0.52096 0.52096 -0.0538879
v 0.511958 0.529933 -0.0448985
v 0.502955 0.538907 -0.0538879
v 0.499954 0.535916 -0.0389269
v 0.478949 0.532925 -0.0239659
v 0.508957 0.526942 -0.0299535
v 0.508957 0.401205 -0.0299535
v 0.478949 0.38924 0.0119756
v 0.514959 0.38924 -0.0419287
v 0.511958 0.381744 -0.0448985
v 0.475948 0.381744 0.00897387
v 0.467052 0.38324 0.0119756
v 0.467052 0.395222 0.0179632
v 0.48495 0.52096 -0.0179783
v 0.269426 0.52096 0.035926
v -0.301376 0.524907 0.0379538
v -0.0459832 0.385101 0.0379538
v -0.0398744 0.361258 0.0379538
v 0.269426 0.361258 0.035926
v 0.467052 0.361258 -0.0169884
v 0.480985 0.361258 -0.02197
v 0.485915 0.361258 -0.0359411
v 0.514959 0.38324 -0.0538879
v 0.52096 0.395222 -0.0538879
v 0.516459 0.386231 -0.0987869
v 0.52096 0.395222 -0.0898135
v 0.502972 0.395227 -0.143721
v 0.498438 0.386237 -0.152704
v 0.485915 0.361258 -0.107776
v 0.514959 0.38324 -0.0898135
v 0.490952 0.395227 -0.167668
v 0.502972 0.502992 -0.143721
v 0.52096 0.52096 -0.0898135
v 0.496962 0.514957 -0.149704
v 0.49401 0.511966 -0.15719
v -0.323025 0.523777 0.0379538
v -0.573916 0.52096 0.035926
v -0.358177 0.512855 0.0379538
v -0.394187 0.49489 0.0379538
v -0.519901 0.423048 0.0379538
v -0.573809 0.387118 0.0379538
v -0.573916 0.386962 0.0379538
v 0.404172 0.511966 -0.211074
f 416 417 415
f 418 417 416
f 418 419 417
f 418 420 419
f 421 420 418
f 421 422 420
f 421 423 422
f 421 418 423
f 418 416 423
f 424 423 416
f 424 425 423
f 426 425 424
f 427 425 426
f 427 428 425
f 427 426 428
f 428 426 429
f 428 429 430
f 428 430 431
f 428 431 425
f 431 432 425
f 433 432 431
f 433 434 432
f 433 435 434
f 433 436 435
f 433 431 436
f 436 431 430
f 436 430 435
f 435 430 434
f 434 430 437
f 434 437 432
f 437 422 432
f 438 422 437
f 438 439 422
f 440 439 438
f 441 439 440
f 441 437 439
f 441 438 437
f 441 440 438
f 439 437 430
f 439 430 442
f 439 442 420
f 439 420 422
f 420 442 419
f 443 419 442
f 444 419 443
f 445 419 444
f 445 417 419
f 445 446 417
f 445 447 446
f 445 444 447
f 444 448 447
f 449 448 444
f 449 443 448
f 449 444 443
f 450 448 443
f 451 448 450
f 451 447 448
f 452 447 451
f 452 446 447
f 452 453 446
f 454 453 452
f 454 455 453
f 454 456 455
f 457 456 454
f 457 458 456
f 457 424 458
f 457 426 424
f 457 459 426
f 457 454 459
f 454 460 459
f 454 461 460
f 454 452 461
f 462 461 452
f 462 463 461
f 462 464 463
f 465 464 462
f 465 466 464
f 465 451 466
f 465 452 451
f 465 462 452
f 467 466 451
f 468 466 467
f 468 464 466
f 468 463 464
f 468 469 463
f 470 469 468
f 470 471 469
f 470 472 471
f 470 473 472
f 470 474 473
f 470 475 474
f 470 468 475
f 468 476 475
f 468 467 476
f 467 450 476
f 467 451 450
f 450 477 476
f 478 477 450
f 479 477 478
f 479 480 477
f 479 478 480
f 480 478 442
f 480 442 481
f 480 481 477
f 481 475 477
f 474 475 481
f 474 481 473
f 482 473 481
f 482 483 473
f 482 481 483
f 483 481 484
f 472 483 484
f 472 473 483
f 485 472 484
f 485 486 472
f 487 486 485
f 487 488 486
f 487 489 488
f 487 490 489
f 487 491 490
f 492 491 487
f 492 485 491
f 492 487 485
f 485 484 491
f 491 484 430
f 491 430 490
f 429 490 430
f 493 490 429
f 493 489 490
f 493 459 489
f 493 426 459
f 493 429 426
f 489 459 494
f 489 494 488
f 488 494 495
f 488 495 486
f 495 463 486
f 495 461 463
f 494 461 495
f 494 496 461
f 497 496 494
f 497 460 496
f 497 459 460
f 497 494 459
f 460 461 496
f 469 486 463
f 471 486 469
f 472 486 471
f 484 481 430
f 481 442 430
f 475 476 477
f 478 498 442
f 499 498 478
f 500 498 499
f 500 501 498
f 500 499 501
f 501 499 502
f 501 502 498
f 502 442 498
f 503 442 502
f 504 442 503
f 504 499 442
f 504 503 499
f 503 502 499
f 499 443 442
f 499 478 443
f 478 450 443
f 458 424 416
f 458 416 456
f 505 456 416
f 455 456 505
f 455 505 415
f 455 415 453
f 453 415 446
f 446 415 417
f 505 416 415
f 423 432 422
f 423 425 432
o convex_9
v -0.58577 0.332505 -0.102324
v -0.66466 0.37726 -0.179618
v -0.592821 0.37726 -0.197594
v -0.58577 0.37726 -0.197594
v -0.58577 0.332505 0.0394468
v -0.715727 0.332505 -0.0510779
v -0.724557 0.345821 -0.080118
v -0.679631 0.380251 -0.176626
v -0.658683 0.383241 -0.19161
v -0.58683 0.383241 -0.209561
v -0.58577 0.383241 -0.209561
v -0.58577 0.359298 0.0394468
v -0.724557 0.371259 0.0479061
v -0.724544 0.353297 0.0478803
v -0.724557 0.353297 0.0478803
v -0.724557 0.332505 0.037951
v -0.724557 0.332505 -0.0466677
v -0.724557 0.391303 -0.109545
v -0.718553 0.395223 -0.143692
v -0.706584 0.389242 -0.167651
v -0.688624 0.389242 -0.185627
v -0.673653 0.386232 -0.188619
v -0.66466 0.395223 -0.197594
v -0.592821 0.395223 -0.21557
v -0.58577 0.384312 -0.210102
v -0.724557 0.514961 0.0479061
v -0.58577 0.520942 0.0359135
v -0.724557 0.407185 -0.113749
v -0.718553 0.502979 -0.143692
v -0.712575 0.401204 -0.155684
v -0.706584 0.496998 -0.167651
v -0.688624 0.496998 -0.185627
v -0.66466 0.502979 -0.197594
v -0.592821 0.502979 -0.21557
v -0.58577 0.395223 -0.21557
v -0.724557 0.529327 0.0442954
v -0.58577 0.532923 0.0299301
v -0.724557 0.496998 -0.113749
v -0.724557 0.520053 -0.10988
v -0.724557 0.534419 -0.0980424
v -0.712575 0.50898 -0.155684
v -0.676642 0.50898 -0.19161
v -0.601801 0.516456 -0.206569
v -0.592821 0.514961 -0.209561
v -0.58577 0.502979 -0.21557
v -0.673653 0.516456 -0.188619
v -0.724557 0.53652 0.033515
v -0.58577 0.535388 0.0250041
v -0.66466 0.520942 -0.179618
v -0.709573 0.516456 -0.152693
v -0.724557 0.538904 -0.0778484
v -0.592821 0.520942 -0.197594
v -0.58577 0.514961 -0.209561
v -0.724557 0.538904 0.0179633
v -0.58577 0.538904 0.0179633
v -0.58577 0.538904 -0.0539148
v -0.58577 0.520942 -0.197594
f 506 507 508
f 506 508 509
f 506 509 516
f 506 516 530
f 506 530 540
f 506 540 550
f 506 550 558
f 506 558 562
f 506 562 561
f 506 561 560
f 506 560 553
f 506 553 542
f 506 542 532
f 506 532 517
f 506 517 510
f 506 510 521
f 506 521 522
f 506 522 511
f 506 511 512
f 506 512 507
f 507 513 527
f 507 527 514
f 507 514 508
f 507 512 513
f 508 514 515
f 508 515 516
f 508 516 509
f 510 517 531
f 510 531 518
f 510 518 519
f 510 519 520
f 510 520 521
f 511 522 512
f 512 522 521
f 512 521 520
f 512 520 518
f 512 518 531
f 512 531 541
f 512 541 552
f 512 552 559
f 512 559 556
f 512 556 545
f 512 545 544
f 512 544 543
f 512 543 533
f 512 533 523
f 512 523 524
f 512 524 525
f 512 525 526
f 512 526 513
f 513 526 527
f 514 527 528
f 514 528 529
f 514 529 515
f 515 529 530
f 515 530 516
f 517 532 531
f 518 520 519
f 523 533 524
f 524 533 543
f 524 543 534
f 524 534 546
f 524 546 535
f 524 535 525
f 525 535 546
f 525 546 536
f 525 536 537
f 525 537 526
f 526 537 547
f 526 547 538
f 526 538 528
f 526 528 527
f 528 538 539
f 528 539 529
f 529 539 550
f 529 550 540
f 529 540 530
f 531 532 541
f 532 542 541
f 534 543 544
f 534 544 545
f 534 545 546
f 536 546 537
f 537 546 547
f 538 547 539
f 539 548 549
f 539 549 558
f 539 558 550
f 539 547 551
f 539 551 548
f 541 542 552
f 542 553 552
f 545 554 551
f 545 551 555
f 545 555 546
f 545 556 554
f 546 555 551
f 546 551 547
f 548 557 562
f 548 562 558
f 548 558 549
f 548 551 557
f 551 554 557
f 552 553 560
f 552 560 559
f 554 556 557
f 556 559 560
f 556 560 561
f 556 561 562
f 556 562 557
o convex_10
v -0.0393246 0.104961 -0.179641
v -0.0393246 0.104961 0.0177657
v -0.0393246 0.251498 -0.179641
v 0.287423 0.104961 -0.179641
v -0.0393246 0.251541 0.0177657
v 0.287474 0.104961 0.0177657
v -0.0393246 0.251541 0.0092046
v -0.0358857 0.251541 -0.179641
v 0.287423 0.251541 -0.179641
v 0.359281 0.104961 -0.161669
v 0.287474 0.251541 0.0177657
v 0.377245 0.104961 -1.35326e-05
v 0.305028 0.215556 0.0177657
v 0.359281 0.251541 -0.161669
v 0.467068 0.104961 -0.125743
v 0.377245 0.251541 -1.35326e-05
v 0.467068 0.104961 -0.0179667
v 0.467068 0.251541 -0.0179667
v 0.467068 0.251541 -0.125743
v 0.479027 0.104961 -0.119753
v 0.472713 0.104961 -0.0207881
v 0.479027 0.251541 -0.0239575
v 0.479027 0.251541 -0.119714
v 0.479027 0.251498 -0.119753
v 0.485032 0.104961 -0.107771
v 0.479027 0.104961 -0.0239575
v 0.485032 0.251541 -0.0359391
v 0.485032 0.251541 -0.107771
v 0.485032 0.104961 -0.0359391
f 563 564 567
f 563 567 569
f 563 569 565
f 563 565 570
f 563 570 571
f 563 571 566
f 563 566 572
f 563 572 577
f 563 577 582
f 563 582 587
f 563 587 591
f 563 591 588
f 563 588 583
f 563 583 579
f 563 579 574
f 563 574 568
f 563 568 564
f 564 568 575
f 564 575 573
f 564 573 567
f 565 569 570
f 566 571 576
f 566 576 572
f 567 573 578
f 567 578 580
f 567 580 584
f 567 584 589
f 567 589 590
f 567 590 585
f 567 585 581
f 567 581 576
f 567 576 571
f 567 571 570
f 567 570 569
f 568 574 575
f 572 576 581
f 572 581 577
f 573 575 578
f 574 579 575
f 575 579 580
f 575 580 578
f 577 581 586
f 577 586 582
f 579 583 580
f 580 583 584
f 581 585 586
f 582 586 590
f 582 590 587
f 583 588 584
f 584 588 591
f 584 591 589
f 585 590 586
f 587 590 589
f 587 589 591
o convex_11
v 0.485031 0.104961 -0.0359372
v 0.485031 0.104961 -0.107769
v 0.479024 0.104961 -0.0239571
v 0.508947 0.0419087 -0.0299553
v 0.52096 0.0359219 -0.0538828
v 0.514954 0.0478955 -0.0598647
v 0.479024 0.104961 -0.119749
v 0.514954 0.0478955 -0.0958052
v 0.485031 0.0359219 0.0179489
v 0.467066 0.104961 -0.0179752
v 0.476021 0.0449021 0.0269299
v 0.52096 -0.0718412 -0.0538828
v 0.52096 0.0359219 -0.0898069
v 0.51195 0.0449021 -0.103278
v 0.485031 0.0359219 -0.125846
v 0.480971 0.055789 -0.125846
v 0.477133 0.104961 -0.1207
v 0.514954 0.0359219 -0.101787
v 0.479024 0.029935 0.029929
v 0.46106 0.0478955 0.029929
v 0.269455 0.104961 0.0359273
v 0.467066 0.0359219 0.0359273
v 0.52096 -0.0718412 -0.0898069
v 0.514954 -0.077828 -0.0419191
v 0.51195 -0.0853211 -0.0449018
v 0.514954 -0.0838148 -0.0538828
v 0.485031 -0.0360155 -0.125846
v 0.480137 0.0585727 -0.125846
v 0.467066 0.104961 -0.125747
v 0.514954 -0.0718412 -0.101787
v 0.496989 -0.077828 -0.0239571
v 0.508947 -0.0658543 -0.0299553
v -0.0472345 0.104961 0.0415814
v 0.485031 -0.0718412 -0.0179752
v -0.0472345 0.0775056 0.0415814
v 0.269455 -0.0718412 0.0359273
v 0.516455 -0.0808214 -0.0987879
v 0.493986 -0.0853211 -0.0269562
v 0.502996 -0.0898207 -0.0538828
v 0.514954 -0.0838148 -0.0898069
v 0.484975 -0.0539379 -0.125846
v 0.448879 0.104961 -0.125846
v 0.485031 -0.0838148 -0.0239571
v -0.0472345 0.104961 -0.125846
v -0.0472345 -0.0718412 0.0359273
v 0.269455 -0.0838148 0.029929
v -0.0472345 -0.0793914 0.0321579
v 0.502996 -0.0898207 -0.0898069
v 0.508947 -0.0838148 -0.101787
v 0.479024 -0.0658543 -0.125846
v 0.485031 -0.0898207 -0.0359372
v 0.27841 -0.0853211 0.0269299
v -0.0472345 -0.0718221 -0.125846
v -0.0472345 -0.0838148 0.029929
v 0.467066 -0.0898207 -0.0898069
v 0.467066 -0.0718412 -0.125846
v 0.269455 -0.0898207 0.0179489
v -0.0472345 -0.0898207 0.0179489
v -0.0472345 -0.0898207 -0.0538828
v -0.0358884 -0.0718412 -0.125846
v -0.032885 -0.0868083 -0.0688621
f 592 593 598
f 592 598 608
f 592 608 620
f 592 620 633
f 592 633 635
f 592 635 624
f 592 624 612
f 592 612 601
f 592 601 594
f 592 594 595
f 592 595 596
f 592 596 597
f 592 597 599
f 592 599 593
f 593 599 598
f 594 600 595
f 594 601 602
f 594 602 600
f 595 600 596
f 596 600 603
f 596 603 614
f 596 614 604
f 596 604 599
f 596 599 597
f 598 599 605
f 598 605 606
f 598 606 607
f 598 607 608
f 599 604 609
f 599 609 605
f 600 602 610
f 600 610 603
f 601 611 602
f 601 612 611
f 602 611 613
f 602 613 610
f 603 610 615
f 603 615 616
f 603 616 617
f 603 617 631
f 603 631 628
f 603 628 614
f 604 614 621
f 604 621 609
f 605 609 606
f 606 618 632
f 606 632 641
f 606 641 647
f 606 647 651
f 606 651 644
f 606 644 635
f 606 635 633
f 606 633 619
f 606 619 607
f 606 609 621
f 606 621 618
f 607 619 620
f 607 620 608
f 610 622 623
f 610 623 615
f 610 613 622
f 611 612 613
f 612 624 613
f 613 625 622
f 613 624 626
f 613 626 627
f 613 627 625
f 614 628 621
f 615 623 622
f 615 622 616
f 616 622 629
f 616 629 642
f 616 642 630
f 616 630 617
f 617 630 639
f 617 639 631
f 618 621 632
f 619 633 620
f 621 628 632
f 622 625 634
f 622 634 629
f 624 635 644
f 624 644 650
f 624 650 649
f 624 649 645
f 624 645 638
f 624 638 636
f 624 636 626
f 625 627 634
f 626 636 627
f 627 637 634
f 627 636 638
f 627 638 637
f 628 631 639
f 628 639 640
f 628 640 641
f 628 641 632
f 629 634 637
f 629 637 643
f 629 643 648
f 629 648 642
f 630 642 648
f 630 648 649
f 630 649 650
f 630 650 646
f 630 646 639
f 637 638 645
f 637 645 643
f 639 646 651
f 639 651 647
f 639 647 640
f 640 647 641
f 643 645 649
f 643 649 648
f 644 651 646
f 644 646 652
f 644 652 650
f 646 650 652
o convex_12
v 0.448874 0.104961 -0.125856
v 0.480134 0.0585759 -0.125856
v 0.47904 0.0478969 -0.167673
v 0.467057 0.0493854 -0.181882
v 0.458044 0.0449027 -0.193109
v 0.447206 0.104961 -0.126699
v -0.0472345 0.104961 -0.125856
v 0.480968 0.0557893 -0.125856
v 0.485032 0.0359198 -0.161686
v 0.47904 0.0359198 -0.17366
v 0.473049 0.0359198 -0.185624
v 0.476018 0.0449027 -0.175157
v 0.422146 0.0449027 -0.211071
v 0.42324 0.104961 -0.138674
v -0.0472345 0.104961 -0.179648
v -0.0472345 -0.071822 -0.125856
v 0.481385 0.0538855 -0.125856
v 0.485032 0.0359198 -0.125856
v 0.485032 -0.053891 -0.161686
v 0.47904 -0.053891 -0.17366
v 0.473049 -0.053891 -0.185624
v 0.413132 0.104961 -0.143723
v 0.413132 -0.053891 -0.215561
v 0.413132 0.0359198 -0.215561
v 0.341285 0.0359198 -0.233534
v 0.350298 0.0449027 -0.229033
v 0.35926 0.104961 -0.161686
v -0.0472345 0.0478969 -0.227536
v 0.287412 0.104961 -0.179648
v -0.0472345 -0.0718566 -0.172986
v -0.0358764 -0.0718566 -0.125856
v 0.485032 -0.0360119 -0.125856
v 0.480499 -0.0628738 -0.170667
v 0.485032 -0.053891 -0.143723
v 0.47904 -0.0658681 -0.161686
v 0.469297 -0.0673565 -0.179648
v 0.462576 -0.0628738 -0.188618
v 0.426626 -0.0628738 -0.20658
v 0.419124 -0.0658681 -0.209574
v 0.341285 -0.053891 -0.233534
v 0.341285 0.0478969 -0.227536
v -0.0472345 0.0359198 -0.233534
v -0.0472345 -0.0718566 -0.215561
v 0.467057 -0.0718566 -0.125856
v 0.48498 -0.0539429 -0.125856
v 0.47904 -0.0658681 -0.125856
v 0.467057 -0.0718566 -0.161686
v 0.449082 -0.0718566 -0.179648
v 0.455074 -0.0658681 -0.191612
v 0.413132 -0.0718566 -0.197599
v 0.347276 -0.0658681 -0.227536
v -0.0472345 -0.053891 -0.233534
v -0.0472345 -0.0658681 -0.227536
v 0.341285 -0.0718566 -0.215561
f 653 654 655
f 653 655 656
f 653 656 657
f 653 657 658
f 653 658 666
f 653 666 674
f 653 674 679
f 653 679 681
f 653 681 667
f 653 667 659
f 653 659 668
f 653 668 683
f 653 683 696
f 653 696 698
f 653 698 697
f 653 697 684
f 653 684 670
f 653 670 669
f 653 669 660
f 653 660 654
f 654 660 661
f 654 661 655
f 655 661 662
f 655 662 663
f 655 663 664
f 655 664 656
f 656 664 663
f 656 663 657
f 657 663 665
f 657 665 658
f 658 665 666
f 659 667 680
f 659 680 694
f 659 694 704
f 659 704 705
f 659 705 695
f 659 695 682
f 659 682 668
f 660 669 661
f 661 670 684
f 661 684 686
f 661 686 671
f 661 671 672
f 661 672 662
f 661 669 670
f 662 672 673
f 662 673 663
f 663 673 665
f 665 674 666
f 665 673 675
f 665 675 676
f 665 676 677
f 665 677 678
f 665 678 681
f 665 681 679
f 665 679 674
f 667 681 693
f 667 693 680
f 668 682 683
f 671 685 672
f 671 686 698
f 671 698 687
f 671 687 685
f 672 685 673
f 673 685 688
f 673 688 689
f 673 689 690
f 673 690 675
f 675 690 691
f 675 691 692
f 675 692 677
f 675 677 676
f 677 693 678
f 677 692 704
f 677 704 694
f 677 694 680
f 677 680 693
f 678 693 681
f 682 695 706
f 682 706 702
f 682 702 700
f 682 700 699
f 682 699 696
f 682 696 683
f 684 697 686
f 685 687 688
f 686 697 698
f 687 699 688
f 687 698 696
f 687 696 699
f 688 699 700
f 688 700 701
f 688 701 689
f 689 701 691
f 689 691 690
f 691 700 702
f 691 702 706
f 691 706 703
f 691 703 692
f 691 701 700
f 692 703 705
f 692 705 704
f 695 705 703
f 695 703 706
o convex_13
v -0.0483403 0.104961 0.042788
v -0.0538964 0.104961 0.0898226
v -0.0483403 0.0773936 0.042788
v -0.573916 0.104961 0.042788
v -0.056726 0.104961 0.0954814
v -0.0538964 0.0718428 0.0898226
v -0.0538964 0.0588972 0.042788
v -0.573916 0.0536445 0.042788
v -0.573916 0.104961 0.10966
v -0.0658835 0.104961 0.113777
v -0.0658835 0.0778406 0.113777
v -0.0599157 0.0658636 0.101808
v -0.0628996 0.0583757 0.0988036
v -0.0599157 0.0598658 0.0898226
v -0.0549768 0.0567924 0.042788
v -0.520875 0.0179929 0.042788
v -0.568823 0.0598658 0.0958152
v -0.573916 0.0699801 0.0907605
v -0.5698 0.104961 0.117894
v -0.573916 0.0898176 0.10966
v -0.0746808 0.104961 0.11818
v -0.0778704 0.0658636 0.11977
v -0.0808543 0.0583757 0.116781
v -0.13477 0.0224447 0.116781
v -0.143722 0.0112127 0.1078
v -0.137754 0.0119578 0.0898226
v -0.142693 0.00396692 0.042788
v -0.39514 -0.0538319 0.042788
v -0.514958 0.0239348 0.0958152
v -0.565839 0.0628647 0.112283
v -0.570315 0.0718428 0.110042
v -0.573916 0.0718428 0.0940508
v -0.568823 0.0898176 0.11977
v -0.568823 0.104961 0.11977
v -0.573916 0.086055 0.108261
v -0.0841983 0.104961 0.122933
v -0.0898574 0.0718428 0.125746
v -0.284325 0.104961 0.200725
v -0.125767 0.0336766 0.121264
v -0.260505 -0.0493987 0.116781
v -0.152725 0.0045071 0.0988036
v -0.269508 -0.060612 0.1078
v -0.27846 -0.0673549 0.0988036
v -0.263489 -0.0598669 0.0898226
v -0.268428 -0.0678951 0.042788
v -0.35923 -0.0718067 0.042788
v -0.314369 -0.0853297 0.0988036
v -0.389172 -0.0478899 0.0958152
v -0.511975 0.0269337 0.112283
v -0.386188 -0.0449097 0.112283
v -0.529929 0.0449085 0.121264
v -0.565839 0.0808209 0.121264
v -0.556887 0.104961 0.125746
v -0.0898574 0.104961 0.125746
v -0.300684 0.104961 0.20516
v -0.251502 -0.0381668 0.121264
v -0.296414 -0.0673549 0.116781
v -0.305418 -0.0785868 0.1078
v -0.286588 -0.0769663 0.042788
v -0.322035 -0.0849944 0.042788
v -0.287463 -0.0773947 0.042788
v -0.323321 -0.0658648 0.11977
v -0.332324 -0.0628658 0.121264
v -0.350279 -0.0628658 0.112283
v -0.319822 -0.0848827 0.042788
v -0.307681 -0.0833553 0.042788
v -0.368233 -0.0449097 0.121264
v -0.404143 -0.0269349 0.121264
v -0.377237 0.101795 0.203586
v -0.377237 0.104961 0.20516
v -0.556887 0.0898176 0.125746
v -0.305418 0.101795 0.203586
v -0.305418 -0.0658648 0.11977
v -0.287463 -0.056123 0.121264
v -0.350279 0.0808209 0.193111
f 707 708 712
f 707 712 709
f 707 709 713
f 707 713 721
f 707 721 733
f 707 733 751
f 707 751 765
f 707 765 767
f 707 767 772
f 707 772 771
f 707 771 766
f 707 766 752
f 707 752 734
f 707 734 722
f 707 722 714
f 707 714 710
f 707 710 715
f 707 715 725
f 707 725 740
f 707 740 759
f 707 759 776
f 707 776 761
f 707 761 744
f 707 744 760
f 707 760 742
f 707 742 727
f 707 727 716
f 707 716 711
f 707 711 708
f 708 711 712
f 709 712 713
f 710 714 724
f 710 724 738
f 710 738 741
f 710 741 726
f 710 726 715
f 711 716 717
f 711 717 712
f 712 717 718
f 712 718 719
f 712 719 720
f 712 720 713
f 713 720 721
f 714 722 723
f 714 723 724
f 715 726 725
f 716 727 717
f 717 727 728
f 717 728 718
f 718 728 729
f 718 729 719
f 719 721 720
f 719 729 730
f 719 730 731
f 719 731 732
f 719 732 721
f 721 732 733
f 722 734 735
f 722 735 723
f 723 736 737
f 723 737 738
f 723 738 724
f 723 735 755
f 723 755 736
f 725 726 739
f 725 739 740
f 726 741 739
f 727 742 728
f 728 742 743
f 728 743 744
f 728 744 745
f 728 745 729
f 729 745 730
f 730 745 762
f 730 762 746
f 730 746 731
f 731 747 732
f 731 746 748
f 731 748 749
f 731 749 747
f 732 747 749
f 732 749 750
f 732 750 751
f 732 751 733
f 734 752 753
f 734 753 754
f 734 754 735
f 735 754 756
f 735 756 755
f 736 757 758
f 736 758 737
f 736 755 757
f 737 758 739
f 737 739 741
f 737 741 738
f 739 758 777
f 739 777 759
f 739 759 740
f 742 760 743
f 743 760 744
f 744 761 762
f 744 762 745
f 746 762 763
f 746 763 764
f 746 764 748
f 748 764 753
f 748 753 749
f 749 751 750
f 749 753 751
f 751 753 765
f 752 766 753
f 753 767 765
f 753 764 768
f 753 768 769
f 753 769 770
f 753 770 756
f 753 756 754
f 753 766 771
f 753 771 772
f 753 772 767
f 755 756 774
f 755 774 757
f 756 770 769
f 756 769 773
f 756 773 774
f 757 774 775
f 757 775 776
f 757 776 758
f 758 776 777
f 759 777 776
f 761 778 779
f 761 779 780
f 761 780 762
f 761 776 775
f 761 775 778
f 762 780 763
f 763 780 779
f 763 779 764
f 764 779 768
f 768 781 775
f 768 775 769
f 768 779 781
f 769 775 773
f 773 775 774
f 775 781 778
f 778 781 779
o convex_14
v -0.573917 0.374341 -0.11527
v -0.58577 0.377258 -0.197582
v -0.573917 0.377258 -0.197582
v -0.573917 0.374341 0.0407237
v -0.58577 0.374341 -0.108471
v -0.58577 0.383235 -0.209574
v -0.573917 0.378192 -0.199464
v -0.573917 0.52096 0.0359069
v -0.58577 0.52096 0.0359069
v -0.58577 0.377258 0.0374875
v -0.58577 0.374341 0.0374875
v -0.573917 0.383235 -0.209574
v -0.58577 0.395223 -0.21557
v -0.573917 0.521894 0.0354554
v -0.58577 0.532931 0.0299361
v -0.573917 0.395223 -0.21557
v -0.58577 0.502995 -0.21557
v -0.573917 0.532931 0.0299361
v -0.58577 0.538924 0.0179443
v -0.573917 0.502995 -0.21557
v -0.58577 0.514966 -0.209574
v -0.573917 0.538924 0.0179443
v -0.58577 0.538924 -0.0539062
v -0.573917 0.514966 -0.209574
v -0.58577 0.517318 -0.204883
v -0.573917 0.538924 -0.0539062
v -0.58577 0.52096 -0.197582
v -0.574853 0.52096 -0.197582
v -0.573917 0.52096 -0.197532
f 782 783 784
f 782 784 788
f 782 788 793
f 782 793 797
f 782 797 801
f 782 801 805
f 782 805 810
f 782 810 807
f 782 807 803
f 782 803 799
f 782 799 795
f 782 795 789
f 782 789 785
f 782 785 792
f 782 792 786
f 782 786 783
f 783 787 788
f 783 788 784
f 783 786 792
f 783 792 791
f 783 791 790
f 783 790 796
f 783 796 800
f 783 800 804
f 783 804 808
f 783 808 806
f 783 806 802
f 783 802 798
f 783 798 794
f 783 794 787
f 785 789 790
f 785 790 791
f 785 791 792
f 787 793 788
f 787 794 797
f 787 797 793
f 789 795 790
f 790 795 796
f 794 798 801
f 794 801 797
f 795 799 796
f 796 799 803
f 796 803 800
f 798 802 805
f 798 805 801
f 800 803 807
f 800 807 804
f 802 806 805
f 804 807 809
f 804 809 808
f 805 806 809
f 805 809 810
f 806 808 809
f 807 810 809
o convex_15
v -0.573917 0.361138 0.109659
v -0.573917 0.374325 0.0407159
v -0.58577 0.374325 0.037479
v -0.574853 0.359258 0.107765
v -0.574533 0.0959974 0.108426
v -0.573917 0.0959974 0.109659
v -0.573917 0.374325 -0.115292
v -0.58577 0.374325 -0.108466
v -0.58577 0.359258 0.0394388
v -0.574853 0.0959974 0.107765
v -0.573917 0.0959974 -0.108245
v -0.574853 0.0959974 -0.107783
v -0.58577 0.0959974 -0.102322
v -0.58577 0.0959974 0.0394388
f 811 812 813
f 811 813 814
f 811 814 815
f 811 815 816
f 811 816 821
f 811 821 817
f 811 817 812
f 812 817 818
f 812 818 813
f 813 818 823
f 813 823 824
f 813 824 819
f 813 819 814
f 814 819 824
f 814 824 820
f 814 820 815
f 815 820 824
f 815 824 823
f 815 823 822
f 815 822 821
f 815 821 816
f 817 821 822
f 817 822 823
f 817 823 818
o convex_16
v -0.821837 0.0959933 0.00520258
v -0.816683 0.0959933 -0.00766699
v -0.821374 0.0959933 0.00991577
v -0.821837 0.098818 0.00897031
v -0.812939 0.332505 -0.00882412
v -0.810212 0.332505 -0.0198028
v -0.803626 0.0959933 -0.0348455
v -0.814626 0.0959933 0.0218963
v -0.810652 0.332505 0.0168162
v -0.812939 0.332505 -0.0045766
v -0.799235 0.332505 -0.0362566
v -0.790407 0.0959933 -0.0418306
v -0.794983 0.332505 -0.04049
v -0.810259 0.0959933 0.0259886
v -0.802378 0.332505 0.0299398
v -0.585794 0.0959933 -0.102326
v -0.585794 0.332505 -0.102326
v -0.802378 0.0959933 0.0299398
v -0.790407 0.332505 0.035923
v -0.798288 0.0959933 0.0319859
v -0.585794 0.0959933 0.0394509
v -0.585794 0.332505 0.0394509
v -0.7633 0.332505 0.0393521
v -0.790407 0.0959933 0.035923
v -0.730368 0.0959933 0.0418357
v -0.736515 0.332505 0.0404951
v -0.740768 0.332505 0.0404951
v -0.730622 0.0959933 0.0418357
f 825 826 831
f 825 831 836
f 825 836 840
f 825 840 845
f 825 845 849
f 825 849 852
f 825 852 848
f 825 848 844
f 825 844 842
f 825 842 838
f 825 838 832
f 825 832 827
f 825 827 828
f 825 828 829
f 825 829 830
f 825 830 826
f 826 830 831
f 827 832 828
f 828 832 833
f 828 833 834
f 828 834 829
f 829 834 833
f 829 833 839
f 829 839 843
f 829 843 847
f 829 847 851
f 829 851 850
f 829 850 846
f 829 846 841
f 829 841 837
f 829 837 835
f 829 835 830
f 830 835 831
f 831 835 837
f 831 837 836
f 832 838 839
f 832 839 833
f 836 837 840
f 837 841 840
f 838 842 839
f 839 842 844
f 839 844 843
f 840 841 846
f 840 846 845
f 843 844 848
f 843 848 847
f 845 846 849
f 846 850 849
f 847 848 852
f 847 852 851
f 849 850 851
f 849 851 852
o convex_17
v 0.311992 0.21557 0.0179729
v 0.311992 0.19162 0.0299479
v 0.311992 0.231909 0.0261409
v 0.817338 0.224545 0.0224569
v 0.808375 0.21557 0.0179729
v 0.311992 0.179641 0.0538977
v 0.802383 0.19162 0.0299479
v 0.311992 0.23952 0.0299479
v 0.808375 0.23952 0.0299479
v 0.821819 0.233527 0.0336845
v 0.820359 0.21557 0.0239604
v 0.814367 0.203598 0.0239604
v 0.311992 0.179641 0.0718513
v 0.808375 0.179641 0.0538977
v 0.814367 0.185634 0.0419228
v 0.311992 0.247693 0.0462837
v 0.808375 0.251491 0.0538977
v 0.820359 0.245505 0.0479103
v 0.817338 0.242509 0.0404281
v 0.826351 0.233527 0.0538977
v 0.826351 0.21557 0.0359353
v 0.821819 0.206588 0.0269497
v 0.311992 0.187815 0.088196
v 0.808375 0.179641 0.0718513
v 0.820359 0.185634 0.0538977
v 0.821819 0.188624 0.0449121
v 0.311992 0.251491 0.0538977
v 0.808375 0.251491 0.0718513
v 0.820359 0.245505 0.0658639
v 0.826351 0.233527 0.0718513
v 0.826351 0.21557 0.0898137
v 0.82333 0.194616 0.0508996
v 0.311992 0.19162 0.0958012
v 0.808375 0.19162 0.0958012
v 0.820359 0.185634 0.0718513
v 0.817338 0.184136 0.0808369
v 0.311992 0.251491 0.0718513
v 0.814367 0.23952 0.0958012
v 0.311992 0.24822 0.0784015
v 0.82333 0.230538 0.0868244
v 0.820359 0.209584 0.101789
v 0.821819 0.195362 0.0898137
v 0.311992 0.195988 0.0979904
v 0.817338 0.2021 0.0987993
v 0.808375 0.21557 0.107785
v 0.311992 0.23952 0.0958012
v 0.311992 0.21557 0.107785
f 853 854 858
f 853 858 865
f 853 865 875
f 853 875 885
f 853 885 895
f 853 895 899
f 853 899 898
f 853 898 891
f 853 891 889
f 853 889 879
f 853 879 868
f 853 868 860
f 853 860 855
f 853 855 856
f 853 856 857
f 853 857 859
f 853 859 854
f 854 859 866
f 854 866 858
f 855 860 856
f 856 861 862
f 856 862 863
f 856 863 857
f 856 860 861
f 857 863 864
f 857 864 859
f 858 866 876
f 858 876 865
f 859 864 867
f 859 867 866
f 860 868 861
f 861 869 870
f 861 870 871
f 861 871 862
f 861 868 869
f 862 872 873
f 862 873 863
f 862 871 870
f 862 870 872
f 863 873 874
f 863 874 864
f 864 874 878
f 864 878 867
f 865 876 875
f 866 867 877
f 866 877 887
f 866 887 876
f 867 878 877
f 868 879 869
f 869 880 881
f 869 881 870
f 869 879 889
f 869 889 880
f 870 881 882
f 870 882 872
f 872 882 883
f 872 883 873
f 873 883 884
f 873 884 878
f 873 878 874
f 875 876 886
f 875 886 885
f 876 887 888
f 876 888 886
f 877 878 887
f 878 884 887
f 880 890 881
f 880 889 891
f 880 891 890
f 881 890 882
f 882 892 883
f 882 890 892
f 883 892 890
f 883 890 893
f 883 893 894
f 883 894 884
f 884 894 887
f 885 886 895
f 886 888 894
f 886 894 896
f 886 896 893
f 886 893 897
f 886 897 895
f 887 894 888
f 890 897 893
f 890 891 898
f 890 898 899
f 890 899 897
f 893 896 894
f 895 897 899
o convex_18
v 0.28832 0.251541 0.0349727
v 0.311942 0.251498 0.0718501
v 0.311942 0.251498 0.053896
v 0.287495 0.251541 0.017785
v 0.287323 0.251541 0.0538079
v 0.311942 0.239517 0.0958037
v -0.0393246 0.251541 0.0931696
v 0.161649 0.251498 0.0898131
v 0.311942 0.239517 0.0299424
v 0.311942 0.231913 0.0261366
v 0.311942 0.219932 0.0201548
v 0.311942 0.215556 0.01797
v 0.30503 0.215556 0.017785
v -0.0393246 0.251541 0.017785
v 0.311942 0.222113 0.104508
v 0.155667 0.2455 0.101794
v 0.161649 0.23352 0.107776
v -0.0393246 0.2455 0.101794
v 0.311942 0.202456 0.0245156
v 0.287495 0.104961 0.017785
v -0.0393246 0.104961 0.017785
v 0.311942 0.215556 0.107776
v -0.0393246 0.240321 0.104384
v -0.0393246 0.23352 0.107776
v 0.311942 0.191609 0.0299424
v 0.311942 0.179628 0.053896
v 0.311942 0.179628 0.0718501
v 0.311942 0.191609 0.0958037
v 0.287426 0.104961 0.01797
v -0.0393246 0.104961 0.0376332
v 0.311942 0.207951 0.103979
v 0.161649 0.197592 0.107776
v -0.0393246 0.197592 0.107776
v 0.269443 0.104961 0.035933
v 0.281409 0.104961 0.0299424
v 0.311942 0.195971 0.0979885
v 0.161649 0.17366 0.0958037
v -0.0393246 0.174234 0.0969402
v 0.161649 0.185626 0.101794
v -0.0393246 0.193776 0.10693
v -0.0393246 0.184062 0.102076
f 900 901 902
f 900 902 903
f 900 903 913
f 900 913 906
f 900 906 904
f 900 904 901
f 901 905 914
f 901 914 921
f 901 921 930
f 901 930 935
f 901 935 927
f 901 927 926
f 901 926 925
f 901 925 924
f 901 924 918
f 901 918 911
f 901 911 910
f 901 910 909
f 901 909 908
f 901 908 902
f 901 904 906
f 901 906 907
f 901 907 905
f 902 908 903
f 903 908 909
f 903 909 910
f 903 910 911
f 903 911 912
f 903 912 919
f 903 919 920
f 903 920 913
f 905 907 915
f 905 915 916
f 905 916 914
f 906 913 920
f 906 920 929
f 906 929 937
f 906 937 940
f 906 940 939
f 906 939 932
f 906 932 923
f 906 923 922
f 906 922 917
f 906 917 915
f 906 915 907
f 911 918 919
f 911 919 912
f 914 916 921
f 915 917 922
f 915 922 916
f 916 922 923
f 916 923 932
f 916 932 931
f 916 931 921
f 918 924 919
f 919 924 925
f 919 925 926
f 919 926 927
f 919 927 928
f 919 928 934
f 919 934 933
f 919 933 929
f 919 929 920
f 921 931 930
f 927 933 934
f 927 934 928
f 927 935 936
f 927 936 933
f 929 933 936
f 929 936 937
f 930 931 938
f 930 938 935
f 931 932 939
f 931 939 940
f 931 940 938
f 935 938 936
f 936 938 940
f 936 940 937
o convex_19
v -0.047286 0.104961 0.0415814
v -0.047286 0.0775056 0.0415814
v -0.047286 0.104961 -0.141198
v -0.0483687 0.104961 0.042788
v -0.047286 -0.0718412 0.0359264
v -0.0483687 0.0773912 0.042788
v -0.047286 -0.0695913 -0.141198
v -0.52597 0.104961 -0.141198
v -0.573864 0.104961 0.042788
v -0.047286 -0.0838148 0.0299291
v -0.0539366 0.0588968 0.042788
v -0.0549677 0.0567805 0.042788
v -0.142662 0.00396666 0.042788
v -0.268455 -0.0678944 0.042788
v -0.270517 -0.0689431 0.042788
v -0.287427 -0.0774086 0.042788
v -0.307688 -0.0833572 0.042788
v -0.319803 -0.0848826 0.042788
v -0.047286 -0.0898207 -0.0538877
v -0.107811 -0.0898207 -0.0898169
v -0.0873439 -0.0718412 -0.141198
v -0.569688 0.0477811 -0.141198
v -0.53293 0.104961 -0.137723
v -0.573864 0.104961 -0.108241
v -0.573864 0.0536536 0.042788
v -0.047286 -0.0898207 0.0179527
v -0.322072 -0.084997 0.042788
v -0.43111 -0.0898207 -0.0898169
v -0.520918 -0.0718412 -0.141198
v -0.573864 0.0393729 -0.141198
v -0.544891 0.104961 -0.131725
v -0.541746 0.104961 -0.13331
v -0.573864 -0.0718412 0.0359264
v -0.520866 0.0179995 0.042788
v -0.573864 -0.0898207 0.0179527
v -0.359191 -0.071803 0.042788
v -0.573864 -0.0832047 0.0302353
v -0.573864 -0.0838148 0.0299291
v -0.573864 -0.0898207 -0.0538877
v -0.573864 -0.0888674 -0.0585702
v -0.571854 -0.0868083 -0.0688537
v -0.573864 -0.0707925 -0.141198
v -0.395125 -0.0538425 0.042788
f 941 942 945
f 941 945 950
f 941 950 966
f 941 966 959
f 941 959 947
f 941 947 943
f 941 943 948
f 941 948 963
f 941 963 972
f 941 972 971
f 941 971 964
f 941 964 949
f 941 949 944
f 941 944 946
f 941 946 942
f 942 946 945
f 943 947 961
f 943 961 969
f 943 969 982
f 943 982 970
f 943 970 962
f 943 962 948
f 944 949 965
f 944 965 974
f 944 974 983
f 944 983 976
f 944 976 967
f 944 967 958
f 944 958 957
f 944 957 956
f 944 956 955
f 944 955 954
f 944 954 953
f 944 953 952
f 944 952 951
f 944 951 946
f 945 946 951
f 945 951 952
f 945 952 953
f 945 953 954
f 945 954 955
f 945 955 956
f 945 956 957
f 945 957 958
f 945 958 950
f 947 959 960
f 947 960 961
f 948 962 963
f 949 964 970
f 949 970 982
f 949 982 980
f 949 980 979
f 949 979 975
f 949 975 978
f 949 978 977
f 949 977 973
f 949 973 965
f 950 958 967
f 950 967 966
f 959 966 975
f 959 975 979
f 959 979 968
f 959 968 960
f 960 968 969
f 960 969 961
f 962 970 964
f 962 964 971
f 962 971 972
f 962 972 963
f 965 973 974
f 966 967 975
f 967 976 973
f 967 973 977
f 967 977 978
f 967 978 975
f 968 979 980
f 968 980 981
f 968 981 982
f 968 982 969
f 973 976 983
f 973 983 974
f 980 982 981
o convex_20
v -0.047286 0.104961 -0.141198
v -0.047286 -0.0695901 -0.141198
v -0.047286 0.104961 -0.179647
v -0.52597 0.104961 -0.141198
v -0.047286 -0.0718439 -0.172986
v -0.0873439 -0.0718439 -0.141198
v -0.224582 -0.0853297 -0.206582
v -0.047286 0.0478888 -0.227542
v -0.449102 0.104961 -0.179647
v -0.523753 0.104961 -0.14231
v -0.573864 0.0478888 -0.227542
v -0.573864 0.0482054 -0.226918
v -0.573864 0.0538866 -0.215566
v -0.573864 0.0538866 -0.178707
v -0.573864 0.0501054 -0.15885
v -0.573864 0.0488201 -0.154738
v -0.569688 0.0477957 -0.141198
v -0.047286 -0.0718439 -0.215566
v -0.520918 -0.0718439 -0.141198
v -0.236543 -0.0748428 -0.218557
v -0.047286 -0.0658648 -0.227542
v -0.047286 -0.0662 -0.226873
v -0.573864 -0.0713783 -0.14278
v -0.573864 -0.0718439 -0.215566
v -0.573864 -0.0709126 -0.217437
v -0.573864 -0.0658648 -0.227542
v -0.047286 0.0403636 -0.23131
v -0.496996 0.104961 -0.155696
v -0.515298 0.104961 -0.14654
v -0.573864 0.0365451 -0.233218
v -0.573864 0.0393577 -0.141198
v -0.573864 -0.0707822 -0.141198
v -0.047286 -0.0538878 -0.233534
v -0.573864 -0.0538878 -0.233534
v -0.047286 0.0359118 -0.233534
v -0.573864 0.0359118 -0.233534
f 984 985 988
f 984 988 1001
f 984 1001 1005
f 984 1005 1004
f 984 1004 1016
f 984 1016 1018
f 984 1018 1010
f 984 1010 991
f 984 991 986
f 984 986 992
f 984 992 1011
f 984 1011 1012
f 984 1012 993
f 984 993 987
f 984 987 1000
f 984 1000 1014
f 984 1014 1015
f 984 1015 1002
f 984 1002 989
f 984 989 985
f 985 989 990
f 985 990 988
f 986 991 994
f 986 994 992
f 987 993 994
f 987 994 995
f 987 995 996
f 987 996 997
f 987 997 998
f 987 998 999
f 987 999 1000
f 988 990 1001
f 989 1002 990
f 990 1003 1004
f 990 1004 1005
f 990 1005 1001
f 990 1002 1006
f 990 1006 1007
f 990 1007 1008
f 990 1008 1009
f 990 1009 1003
f 991 1010 994
f 992 994 1011
f 993 1012 994
f 994 1013 1019
f 994 1019 1017
f 994 1017 1009
f 994 1009 1008
f 994 1008 1007
f 994 1007 1006
f 994 1006 1015
f 994 1015 1014
f 994 1014 999
f 994 999 998
f 994 998 997
f 994 997 996
f 994 996 995
f 994 1012 1011
f 994 1010 1013
f 999 1014 1000
f 1002 1015 1006
f 1003 1009 1004
f 1004 1009 1017
f 1004 1017 1016
f 1010 1018 1019
f 1010 1019 1013
f 1016 1017 1019
f 1016 1019 1018
