# https://github.com/mikedh/trimesh
v 0.56991600 -0.05301070 0.53013600
v 0.56991600 -0.05301070 0.49037700
v 0.56545300 -0.05301070 0.53897100
v 0.56991600 -0.56990000 0.53013600
v 0.56991600 -0.56990000 0.49037700
v 0.56545300 -0.05301070 0.48154100
v 0.55663900 -0.05301070 0.54340800
v 0.56545300 -0.57431400 0.53897100
v 0.56099000 -0.58755500 0.53013600
v 0.56099000 -0.58755500 0.49037700
v 0.56656900 -0.57649300 0.48376000
v 0.56545300 -0.56990000 0.48154100
v 0.54782500 -0.05301070 0.47270600
v 0.55663900 -0.56990000 0.54340800
v -0.55663900 -0.05301070 0.54340800
v 0.56322200 -0.57981700 0.53677200
v 0.55663900 -0.58477600 0.54008000
v 0.54782500 -0.60079600 0.53013600
v 0.54782500 -0.60079600 0.49037700
v 0.54001400 -0.60303000 0.47050700
v 0.54827100 -0.59638200 0.47712400
v 0.53889900 -0.59638200 0.46828800
v 0.54782500 -0.58314100 0.47270600
v 0.53008400 -0.05301070 0.46387100
v 0.53008400 -0.59638200 0.54340800
v 0.54336200 -0.59807100 0.54008000
v -0.56545300 -0.05301070 0.53897100
v -0.55663900 -0.55665900 0.54340800
v 0.53677900 -0.60635400 0.53677200
v 0.53008400 -0.60967800 0.47712400
v 0.53889900 -0.60520900 0.47712400
v 0.53454700 -0.60520900 0.46828800
v 0.53008400 -0.59638200 0.46387100
v 0.37109300 -0.29162100 0.42413100
v 0.30481800 -0.15904800 0.41087800
v 0.21198900 -0.07954720 0.39762500
v 0.21868400 -0.07289950 0.40093300
v 0.43736700 -0.05301070 0.45061800
v 0.53008400 -0.60520900 0.53897100
v -0.53008400 -0.59638200 0.54340800
v -0.53677900 -0.60303000 0.54008000
v -0.56991600 -0.05301070 0.53013600
v -0.56545300 -0.55665900 0.53897100
v -0.56322200 -0.56325200 0.54008000
v -0.54994400 -0.58978900 0.54008000
v -0.54336200 -0.58314100 0.54340800
v 0.53008400 -0.60967800 0.53013600
v -0.53008400 -0.60520900 0.53897100
v -0.53008400 -0.60967800 0.53013600
v 0.43736700 -0.60967800 0.46387100
v 0.43736700 -0.59638200 0.45061800
v -0.02197990 -0.60520900 0.38879000
v 0.21198900 -0.49034500 0.39762500
v 0.30481800 -0.43732700 0.41087800
v 0.37109300 -0.31810300 0.42413100
v 0.11927200 -0.10608400 0.38437200
v -0.30481800 -0.05301070 0.34461300
v -0.21198900 -0.05301070 0.35786600
v -0.55217600 -0.59196800 0.53455300
v -0.53889900 -0.60520900 0.53455300
v -0.56991600 -0.05301070 0.34461300
v -0.56991600 -0.55665900 0.53013600
v -0.56545300 -0.56548600 0.53455300
v -0.54782500 -0.60079600 0.52571800
v -0.53008400 -0.60967800 0.34461300
v -0.39753500 -0.60967800 0.34461300
v -0.21198900 -0.59638200 0.35786600
v -0.30035500 -0.60520900 0.34903000
v 0.02644290 -0.33134400 0.37111900
v -0.30481800 -0.59638200 0.34461300
v 0.11927200 -0.13256600 0.38437200
v 0.02644290 -0.23860300 0.37111900
v -0.37109300 -0.05306520 0.34459300
v -0.56969300 -0.05301070 0.34459300
v -0.56991600 -0.05306520 0.34459300
v -0.56991600 -0.55665900 0.34461300
v -0.54782500 -0.60079600 0.34459300
v -0.53008400 -0.60962300 0.34459300
v -0.51680700 -0.60967800 0.34459300
v -0.54336200 -0.60303000 0.34459300
v -0.47708700 -0.60967800 0.34459300
v -0.39753500 -0.60962300 0.34459300
v -0.38269600 -0.60629900 0.34459300
v -0.37109300 -0.59638200 0.34459300
v -0.56991600 -0.54336400 0.34459300
v -0.56980400 -0.55665900 0.34459300
v -0.56545300 -0.56548600 0.34459300
f 51 52 67
f 41 59 60
f 41 60 49
f 41 49 48
f 42 61 75
f 42 75 85
f 42 85 76
f 42 76 62
f 44 63 45
f 43 62 63
f 51 67 53
f 45 63 59
f 49 64 77
f 49 77 65
f 50 66 52
f 41 45 59
f 43 63 44
f 49 60 64
f 35 54 71
f 40 46 41
f 30 81 66
f 30 66 50
f 30 50 32
f 32 51 33
f 32 50 52
f 32 52 51
f 33 51 53
f 33 53 54
f 33 54 55
f 34 55 54
f 34 54 35
f 52 66 68
f 35 71 56
f 35 56 36
f 36 56 57
f 36 57 37
f 37 57 58
f 37 58 38
f 39 41 48
f 41 46 45
f 52 68 67
f 57 72 69
f 53 67 70
f 70 82 83
f 70 83 84
f 73 84 83
f 73 83 82
f 73 82 81
f 73 81 79
f 73 79 78
f 73 78 80
f 67 68 70
f 73 80 77
f 73 87 86
f 73 86 85
f 73 85 75
f 73 75 74
f 76 85 86
f 76 86 87
f 30 79 81
f 76 87 77
f 73 77 87
f 53 69 54
f 66 70 68
f 66 81 82
f 53 70 69
f 54 69 71
f 56 71 69
f 56 69 72
f 56 72 57
f 57 70 84
f 57 84 73
f 57 73 74
f 66 82 70
f 57 69 70
f 59 63 62
f 59 62 64
f 61 74 75
f 62 76 77
f 62 77 64
f 65 78 79
f 65 77 80
f 65 80 78
f 59 64 60
f 30 65 79
f 3 7 14
f 30 47 49
f 4 10 5
f 5 10 11
f 5 11 12
f 6 12 23
f 6 23 13
f 7 15 28
f 7 28 46
f 7 46 40
f 7 40 25
f 7 25 14
f 8 16 9
f 8 14 17
f 8 17 16
f 9 16 17
f 9 17 18
f 9 18 19
f 9 19 10
f 4 9 10
f 4 8 9
f 3 14 8
f 2 12 6
f 1 2 6
f 1 6 13
f 1 13 24
f 1 24 38
f 1 38 58
f 1 58 57
f 1 57 74
f 1 74 61
f 10 19 20
f 1 61 42
f 1 27 15
f 1 15 7
f 30 49 65
f 1 3 8
f 1 8 4
f 1 4 5
f 1 5 2
f 2 5 12
f 1 42 27
f 10 20 21
f 1 7 3
f 11 21 20
f 24 34 35
f 24 35 36
f 24 36 37
f 24 37 38
f 25 39 26
f 25 40 41
f 25 41 39
f 26 39 29
f 27 42 62
f 27 62 43
f 28 44 45
f 28 45 46
f 29 47 30
f 29 39 48
f 29 48 49
f 29 49 47
f 10 21 11
f 24 55 34
f 24 33 55
f 28 43 44
f 22 32 33
f 11 20 12
f 22 33 23
f 12 20 22
f 12 22 23
f 13 23 33
f 14 25 26
f 14 26 17
f 15 27 43
f 15 43 28
f 13 33 24
f 18 26 29
f 18 29 19
f 19 29 30
f 19 30 31
f 19 31 20
f 20 31 30
f 20 32 22
f 17 26 18
f 20 30 32

