# https://github.com/mikedh/trimesh
v -0.56989400 -0.05297360 0.43406400
v -0.34869900 -0.05297360 0.43406400
v -0.56989400 -0.05297360 0.46184200
v -0.56989400 0.32621600 0.43406400
v -0.34869900 -0.05297360 0.46184200
v -0.34869900 0.16771000 0.43406400
v -0.56989400 0.32621600 0.46184200
v -0.36857700 0.32621600 0.43406400
v -0.34869900 0.16440600 0.46184200
v -0.34869900 0.16771000 0.44653400
v -0.37111100 0.32621600 0.46184200
f 6 8 10
f 4 11 8
f 4 7 11
f 3 11 7
f 3 9 11
f 3 5 9
f 2 9 5
f 2 10 9
f 1 4 8
f 1 6 2
f 1 8 6
f 1 7 4
f 1 3 7
f 1 5 3
f 1 2 5
f 8 11 9
f 2 6 10
f 8 9 10

