# https://github.com/mikedh/trimesh
v -0.34869900 -0.05301070 0.43406400
v -0.21810800 -0.05301070 0.43406400
v -0.34869900 -0.05301070 0.46184200
v -0.34869900 0.16772300 0.43406400
v -0.21810800 -0.05301070 0.46184200
v -0.21810800 0.13252500 0.43406400
v -0.34869900 0.16439500 0.46184200
v -0.34869900 0.16772300 0.44653400
v -0.21810800 0.13613400 0.46146100
v -0.21810800 0.13522600 0.44460000
v -0.21810800 0.13613400 0.46184200
f 2 9 11
f 4 10 6
f 4 9 10
f 4 11 9
f 4 8 11
f 3 11 7
f 3 5 11
f 2 11 5
f 7 11 8
f 2 10 9
f 1 6 2
f 1 4 6
f 1 8 4
f 1 7 8
f 1 3 7
f 1 5 3
f 1 2 5
f 2 6 10

