# https://github.com/mikedh/trimesh
v 0.53008400 0.60967800 0.53014700
v 0.52573300 0.60520200 0.53898500
v 0.54782500 0.60079100 0.53457000
v 0.53008400 0.60967800 0.47714000
v -0.53008400 0.60967800 0.53014700
v 0.53008400 0.59638000 0.54340800
v -0.53454700 0.60520200 0.53898500
v 0.54782500 0.60079100 0.49481700
v 0.54113000 0.59417400 0.54119700
v 0.54336200 0.58314700 0.54340800
v 0.55663900 0.55661600 0.54340800
v 0.56545300 0.55220500 0.53898500
v 0.56099000 0.57432500 0.53457000
v 0.56991600 0.55661600 0.53014700
v 0.53889900 0.60520200 0.47272400
v 0.53677900 0.60299600 0.46719900
v 0.53008400 0.60520200 0.46830900
v 0.43736700 0.60967800 0.46388600
v -0.53008400 0.60967800 0.46185000
v -0.54034900 0.60455300 0.46185000
v -0.54782500 0.60079100 0.53014700
v -0.53008400 0.59638000 0.54340800
v -0.54001400 0.60299600 0.53677300
v -0.54503500 0.59638000 0.54008700
v 0.56991600 0.55661600 0.49039300
v 0.55663900 0.58314700 0.49039300
v 0.55217600 0.59196900 0.48597800
v 0.55663900 -0.05301070 0.54340800
v 0.56545300 -0.05301070 0.53898500
v 0.56991600 -0.05301070 0.53014700
v 0.54670900 0.59638000 0.47880000
v 0.56545300 0.56543800 0.48597800
v 0.56322200 0.56323200 0.48045300
v 0.54782500 0.58314700 0.47272400
v 0.54782500 -0.05301070 0.47272400
v 0.53008400 -0.05301070 0.46388600
v 0.53008400 0.59638000 0.46388600
v 0.43736700 0.60864000 0.46185000
v 0.35580700 0.60967800 0.46185000
v -0.54782500 0.60079100 0.46185000
v -0.56099000 0.58755800 0.53014700
v -0.55831200 0.58314700 0.54008700
v -0.55663900 0.56991400 0.54340800
v 0.56991600 -0.05301070 0.49039300
v 0.56545300 0.55661600 0.48156300
v -0.55663900 -0.05301070 0.54340800
v 0.55663900 0.55661600 0.47714000
v 0.55663900 -0.05301070 0.47714000
v 0.45979300 -0.05301070 0.46185000
v 0.45979300 0.59638000 0.46185000
v 0.45031000 0.60617500 0.46185000
v 0.44986300 0.60630400 0.46185000
v -0.56099000 0.58755800 0.46185000
v -0.56656900 0.57653000 0.53677300
v -0.56545300 0.56991400 0.53898500
v 0.56545300 -0.05301070 0.48156300
v -0.56545300 -0.05301070 0.53898500
v -0.56991600 -0.05301070 0.46185000
v -0.56991600 0.56991400 0.46185000
v -0.56991600 0.56991400 0.53014700
v -0.56991600 -0.05301070 0.53014700
f 28 61 58
f 22 24 42
f 28 58 49
f 28 57 61
f 28 46 57
f 25 27 26
f 25 32 27
f 25 33 32
f 25 45 33
f 25 56 45
f 25 44 56
f 22 42 43
f 27 32 31
f 19 40 20
f 21 41 42
f 21 53 41
f 21 40 53
f 21 24 23
f 20 40 21
f 19 53 40
f 19 59 53
f 19 58 59
f 19 49 58
f 19 50 49
f 28 49 36
f 19 51 50
f 21 42 24
f 28 36 35
f 41 60 54
f 28 48 56
f 19 52 51
f 58 60 59
f 58 61 60
f 55 61 57
f 55 60 61
f 54 60 55
f 45 48 47
f 45 56 48
f 43 57 46
f 43 55 57
f 42 55 43
f 42 54 55
f 41 54 42
f 41 59 60
f 41 53 59
f 37 52 38
f 37 51 52
f 37 50 51
f 36 50 37
f 36 49 50
f 34 48 35
f 34 47 48
f 34 45 47
f 33 45 34
f 28 30 29
f 28 44 30
f 28 56 44
f 28 35 48
f 19 38 52
f 14 30 44
f 18 38 39
f 5 20 21
f 5 19 20
f 4 17 18
f 4 16 17
f 4 15 16
f 4 8 15
f 3 25 8
f 3 14 25
f 3 13 14
f 3 12 13
f 3 11 12
f 3 10 11
f 5 21 7
f 3 9 10
f 2 22 6
f 2 7 22
f 19 39 38
f 1 7 2
f 1 5 7
f 1 19 5
f 1 39 19
f 1 18 39
f 1 4 18
f 1 8 4
f 1 3 8
f 1 2 3
f 3 6 9
f 6 10 9
f 2 6 3
f 6 43 46
f 6 22 43
f 17 38 18
f 16 38 17
f 16 37 38
f 16 36 37
f 16 35 36
f 16 33 34
f 16 32 33
f 16 31 32
f 15 31 16
f 15 27 31
f 14 44 25
f 12 30 14
f 16 34 35
f 7 21 23
f 12 14 13
f 11 29 12
f 11 28 29
f 8 27 15
f 8 26 27
f 8 25 26
f 6 46 28
f 7 24 22
f 7 23 24
f 6 11 10
f 6 28 11
f 12 29 30

