# https://github.com/mikedh/trimesh
v 0.45973200 0.27824800 0.46183100
v 0.45979900 0.27218400 0.46183900
v 0.44619600 0.27824800 0.45504700
v 0.44533300 0.27824800 0.46183900
v 0.45979900 -0.05297830 0.46183900
v 0.43737000 0.26504900 0.45063100
v 0.43730400 0.27824800 0.45063100
v -0.11922400 0.27824800 0.46183900
v 0.43737000 -0.05297830 0.45063100
v -0.21809500 -0.05297830 0.46183900
v 0.39589800 0.27824800 0.43406700
v -0.12088300 0.27824800 0.43406700
v -0.21809500 0.13614600 0.46183900
v 0.34453800 -0.05297830 0.43737900
v 0.39589800 0.18222700 0.43406700
v -0.21809500 -0.05297830 0.43406700
v 0.34287900 0.11928300 0.43406400
v 0.27665600 0.07952510 0.43406400
v -0.21809500 0.13251400 0.43406700
v -0.21809500 0.13523800 0.44460000
v -0.21809500 0.13614600 0.46146100
v 0.38043700 0.15129000 0.43406700
v 0.38269300 0.15573200 0.43406700
v 0.39370800 0.17781600 0.43406700
v 0.27167900 -0.05297830 0.43406700
v 0.32967400 0.10605200 0.43406400
f 10 20 19
f 12 21 13
f 12 20 21
f 12 19 20
f 11 15 17
f 11 17 12
f 10 19 16
f 12 17 18
f 12 18 19
f 14 22 23
f 17 23 22
f 14 24 15
f 14 25 22
f 15 24 17
f 16 19 18
f 17 26 18
f 17 24 23
f 17 22 25
f 17 25 26
f 18 26 25
f 10 21 20
f 14 23 24
f 10 13 21
f 16 18 25
f 8 12 13
f 9 14 15
f 1 2 3
f 1 3 7
f 1 11 12
f 1 12 8
f 1 8 4
f 1 4 2
f 2 5 9
f 2 9 6
f 2 6 3
f 2 4 8
f 1 7 11
f 2 13 10
f 2 8 13
f 6 11 7
f 6 15 11
f 5 14 9
f 6 9 15
f 5 16 25
f 5 10 16
f 3 6 7
f 2 10 5
f 5 25 14

