# https://github.com/mikedh/trimesh
v -0.56991600 -0.55656400 0.33134300
v -0.56547900 -0.55214700 0.32251300
v -0.56328000 -0.56324800 0.32471600
v -0.56106200 -0.57422800 0.32692600
v -0.54780900 -0.60072600 0.32692600
v -0.55002700 -0.59642900 0.34459300
v -0.56989700 -0.55656400 0.34459300
v -0.56991600 -0.54331500 0.34459300
v -0.56991600 0.56981200 0.33134300
v -0.55664400 -0.55656400 0.31809300
v -0.56547900 0.57422800 0.32251300
v -0.55444500 -0.56766400 0.32030300
v -0.55002700 -0.58974500 0.32471600
v -0.54119200 -0.59416100 0.32030300
v -0.53677500 -0.60299400 0.32471600
v -0.53013900 -0.60967800 0.33134300
v -0.54341100 -0.60299400 0.34459300
v -0.54780900 -0.60072600 0.34459300
v -0.56991600 0.56981200 0.34459300
v -0.56108100 0.58747700 0.34459300
v -0.56106200 0.58747700 0.33134300
v -0.56328000 0.57983800 0.32471600
v -0.54339100 -0.58306100 0.31809300
v -0.55664400 0.56981200 0.31809300
v -0.43739000 0.27822200 0.30483900
v -0.42413800 0.18548100 0.30483900
v -0.55664400 0.58473200 0.32140800
v -0.53013900 -0.59631000 0.31809300
v -0.52572100 -0.60514200 0.32251300
v -0.49038100 -0.60967800 0.33134300
v -0.51690600 -0.60967800 0.34459300
v -0.53015800 -0.60955800 0.34459300
v -0.54782800 0.60072600 0.34459300
v -0.54780900 0.60072600 0.33134300
v -0.53013900 0.59631000 0.31809300
v -0.42413800 0.35783300 0.30483900
v -0.37110800 0.07949200 0.31809300
v -0.39763300 -0.59631000 0.33134300
v -0.49038100 -0.59631000 0.31809300
v -0.54339100 0.59798100 0.32140800
v -0.48596400 -0.60514200 0.32251300
v -0.39321500 -0.60514200 0.33576400
v -0.39763300 -0.60955800 0.34459300
v -0.47712900 -0.60967800 0.34459300
v -0.53015800 0.60955800 0.34459300
v -0.53013900 0.60967800 0.33134300
v -0.53677500 0.60633600 0.32471600
v -0.53013900 0.60514200 0.32251300
v -0.48376500 0.60299400 0.32140800
v -0.49038100 0.59631000 0.31809300
v -0.37110800 0.46382300 0.31809300
v -0.37110800 0.07149510 0.32339700
v -0.37112800 -0.59631000 0.34459300
v -0.38768800 -0.60299400 0.33797000
v -0.38270700 -0.60633600 0.34459300
v -0.51690600 0.60967800 0.34459300
v -0.49038100 0.60967800 0.33134300
v -0.49038100 0.60514200 0.32251300
v -0.39099700 0.60299400 0.33465900
v -0.39763300 0.59631000 0.33134300
v -0.37112800 0.59631000 0.34459300
v -0.37110800 0.47265500 0.32251300
v -0.37110800 0.03962670 0.34459300
v -0.47712900 0.60967800 0.34459300
v -0.39757400 0.60955800 0.34459300
v -0.39763300 0.60514200 0.33576400
v -0.38438000 0.60633600 0.34294300
v -0.38078000 0.60597800 0.34459300
v -0.37110800 0.49032000 0.34458900
v -0.37110800 0.37764700 0.34459300
v -0.38290100 0.60669400 0.34459300
f 35 49 50
f 35 48 49
f 37 53 38
f 35 50 36
f 34 47 40
f 35 40 48
f 36 50 51
f 37 52 53
f 37 62 69
f 37 69 70
f 37 70 63
f 37 63 52
f 33 47 34
f 37 51 62
f 33 46 47
f 24 35 36
f 30 43 44
f 38 53 54
f 23 26 28
f 24 27 40
f 24 36 25
f 25 36 26
f 26 36 51
f 33 45 46
f 26 51 37
f 26 38 39
f 26 39 28
f 28 39 41
f 28 41 29
f 30 41 42
f 30 42 43
f 26 37 38
f 38 54 42
f 61 69 62
f 38 41 39
f 67 71 68
f 65 67 66
f 65 71 67
f 61 70 69
f 21 40 27
f 59 68 61
f 59 67 68
f 59 66 67
f 58 66 59
f 57 66 58
f 57 65 66
f 57 64 65
f 53 55 54
f 52 63 53
f 51 61 62
f 51 59 61
f 51 60 59
f 40 47 48
f 42 55 43
f 42 54 55
f 45 56 46
f 46 56 64
f 46 64 57
f 38 42 41
f 46 57 47
f 47 58 48
f 48 58 49
f 49 59 50
f 49 58 59
f 50 59 60
f 50 60 51
f 47 57 58
f 21 34 40
f 24 40 35
f 20 34 21
f 5 13 14
f 5 14 15
f 5 15 16
f 5 16 17
f 5 17 18
f 5 18 6
f 3 5 4
f 6 18 17
f 6 32 31
f 6 31 44
f 6 44 43
f 6 43 55
f 6 55 53
f 6 53 63
f 6 17 32
f 6 63 70
f 3 13 5
f 3 12 14
f 1 2 3
f 21 27 22
f 1 4 5
f 1 5 6
f 1 6 7
f 1 7 8
f 3 14 13
f 1 8 19
f 1 9 11
f 1 11 2
f 2 10 3
f 2 11 24
f 2 24 10
f 3 10 12
f 1 19 9
f 6 70 61
f 1 3 4
f 6 68 71
f 6 61 68
f 16 32 17
f 16 31 32
f 16 44 31
f 16 30 44
f 16 41 30
f 16 29 41
f 15 28 29
f 15 29 16
f 14 28 15
f 14 23 28
f 11 27 24
f 11 22 27
f 10 26 23
f 10 25 26
f 20 33 34
f 10 14 12
f 10 24 25
f 6 71 65
f 6 64 56
f 6 56 45
f 6 45 33
f 6 33 20
f 6 20 19
f 6 65 64
f 6 8 7
f 9 19 20
f 9 20 21
f 9 21 22
f 9 22 11
f 10 23 14
f 6 19 8

