# https://github.com/mikedh/trimesh
v -0.37110800 0.03978570 0.34459300
v -0.37110800 0.07157230 0.32339600
v -0.35120700 0.05967500 0.32471600
v -0.32692000 0.05745000 0.32251400
v -0.26065100 0.04419040 0.33576200
v -0.23856900 0.03978570 0.34459300
v -0.37110800 0.37772300 0.34459300
v -0.37110800 0.07956440 0.31809600
v -0.33133100 0.06630480 0.31809600
v -0.23415800 0.04419040 0.33576200
v -0.22367600 0.04310060 0.34459300
v -0.35784900 0.50359800 0.34459300
v -0.37110800 0.49033800 0.34458900
v -0.29158000 0.17233600 0.30433500
v -0.28714300 0.16348100 0.30433500
v -0.27881400 0.15930300 0.30433500
v -0.27832100 0.15907600 0.30433500
v -0.37110800 0.46386400 0.31809600
v -0.23856900 0.05304520 0.33134500
v -0.13254900 0.15907600 0.30433500
v -0.12406400 0.16329900 0.30433500
v -0.12372700 0.16348100 0.30433500
v -0.21207700 0.05304520 0.34459300
v -0.27832100 0.50364300 0.34459300
v -0.28493700 0.50032800 0.33797300
v -0.27832100 0.49919300 0.33576200
v -0.34459000 0.48593300 0.32251400
v -0.35120700 0.48706900 0.32471600
v -0.37110800 0.47271900 0.32251400
v -0.29158000 0.39761200 0.30433500
v -0.35784900 0.47875900 0.32140600
v -0.34459000 0.47712400 0.31809600
v -0.27865800 0.41069000 0.30433500
v -0.28714300 0.40642200 0.30433500
v -0.28732400 0.40610400 0.30433500
v -0.12372700 0.16348100 0.34459300
v -0.11594300 0.17374400 0.30433500
v -0.23856900 0.50364300 0.34459300
v -0.23856900 0.49919300 0.33576200
v -0.33133100 0.48593300 0.32251400
v -0.32471400 0.48375400 0.32140600
v -0.33133100 0.47712400 0.31809600
v -0.27832100 0.41082600 0.30433500
v -0.10961200 0.18328000 0.30433500
v -0.10922200 0.18396100 0.30433500
v -0.11929000 0.17233600 0.34459300
v -0.22323500 0.50150900 0.34459300
v -0.23195300 0.49701300 0.33465900
v -0.13254900 0.41082600 0.30433500
v -0.10603100 0.19831000 0.30433500
v -0.10603100 0.19881000 0.30484000
v -0.11929000 0.39756700 0.34459300
v -0.12217000 0.40796500 0.34459300
v -0.12372700 0.40642200 0.30433500
v -0.13153700 0.41032700 0.30433500
v -0.10603100 0.19881000 0.30433500
v -0.11241400 0.35733400 0.30433500
v -0.11929000 0.39761200 0.33134500
v -0.11929000 0.39761200 0.30433500
v -0.11918600 0.39706700 0.30433500
f 22 36 23
f 22 37 36
f 24 38 25
f 25 39 26
f 27 40 41
f 26 40 27
f 27 41 32
f 27 32 31
f 18 35 30
f 27 31 28
f 25 38 39
f 18 34 35
f 14 22 21
f 18 32 33
f 18 31 32
f 18 29 31
f 14 16 15
f 14 17 16
f 14 20 17
f 14 21 20
f 14 37 22
f 14 44 37
f 14 45 44
f 14 50 45
f 28 31 29
f 18 33 34
f 32 42 49
f 51 56 57
f 32 43 33
f 14 56 50
f 58 60 59
f 57 60 58
f 53 58 59
f 53 59 54
f 52 58 53
f 52 57 58
f 51 57 52
f 50 56 51
f 48 55 49
f 48 54 55
f 47 54 48
f 32 49 43
f 47 53 54
f 46 50 51
f 45 50 46
f 41 49 42
f 41 48 49
f 39 47 48
f 39 41 40
f 39 48 41
f 38 47 39
f 36 45 46
f 36 44 45
f 36 37 44
f 32 41 42
f 46 51 52
f 14 57 56
f 26 39 40
f 14 59 60
f 4 10 5
f 4 19 10
f 4 9 19
f 3 8 9
f 3 9 4
f 2 8 3
f 1 8 2
f 1 18 8
f 1 29 18
f 1 13 29
f 1 7 13
f 1 12 7
f 6 10 11
f 1 24 12
f 1 53 47
f 1 52 53
f 1 46 52
f 1 36 46
f 1 23 36
f 1 11 23
f 1 6 11
f 1 10 6
f 1 5 10
f 1 4 5
f 1 3 4
f 1 2 3
f 1 38 24
f 7 12 13
f 1 47 38
f 8 15 16
f 8 14 15
f 14 54 59
f 14 55 54
f 14 49 55
f 14 43 49
f 14 33 43
f 14 34 33
f 14 30 35
f 12 29 13
f 12 28 29
f 12 27 28
f 12 26 27
f 12 25 26
f 14 35 34
f 14 60 57
f 11 22 23
f 10 22 11
f 10 21 22
f 10 20 21
f 10 19 20
f 9 20 19
f 9 17 20
f 8 30 14
f 8 18 30
f 8 17 9
f 12 24 25
f 8 16 17

