# https://github.com/mikedh/trimesh
v 0.35575200 0.60967800 0.46183900
v 0.43737000 0.60864000 0.46183900
v 0.34453800 0.60967800 0.45063100
v -0.21809500 0.60967800 0.46183900
v 0.44991200 0.60630400 0.46183900
v 0.43737000 0.60523300 0.45504700
v 0.25177200 0.60967800 0.43737900
v -0.21809500 0.60967800 0.43406700
v -0.21809500 0.41089100 0.46183900
v 0.45031000 0.60620700 0.46183900
v 0.44394000 0.60302800 0.45394300
v 0.35117400 0.60302800 0.44069300
v 0.34453800 0.60523300 0.44179700
v 0.25177200 0.60799100 0.43406700
v 0.16896000 0.60967800 0.43406700
v -0.21809500 0.41089100 0.43406700
v 0.27167900 0.47048200 0.43406400
v -0.12088300 0.27828000 0.43406700
v -0.11922400 0.27828000 0.46183900
v 0.45979900 0.59641000 0.46183900
v 0.43737000 0.59641000 0.45063100
v 0.34453800 0.59641000 0.43737900
v 0.26199100 0.60607700 0.43406700
v 0.26371700 0.60568800 0.43406700
v 0.29815500 0.45724700 0.43406400
v 0.31142700 0.44397900 0.43406400
v 0.33796900 0.43077600 0.43406400
v 0.39589800 0.27828000 0.43406700
v 0.44533300 0.27828000 0.46183900
v 0.45979900 0.27834500 0.46183900
v 0.43737000 0.27834500 0.45063100
v 0.40253300 0.31480700 0.43406700
v 0.39589800 0.35788600 0.43406700
v 0.39423900 0.36450300 0.43406700
v 0.39357500 0.36709800 0.43406700
v 0.38030400 0.39360100 0.43406700
v 0.27167900 0.59641000 0.43406700
v 0.40253300 0.30734600 0.43406700
v 0.43730400 0.27828000 0.45063100
v 0.45973200 0.27828000 0.46183100
v 0.44619600 0.27828000 0.45504700
f 20 31 21
f 21 31 38
f 17 25 27
f 21 32 33
f 20 30 31
f 21 33 34
f 21 38 32
f 18 29 19
f 18 26 27
f 18 41 40
f 18 39 41
f 18 28 39
f 18 27 28
f 17 26 18
f 17 27 26
f 21 34 35
f 18 40 29
f 21 35 22
f 27 38 28
f 22 36 37
f 17 24 25
f 30 41 31
f 30 40 41
f 29 40 30
f 28 31 39
f 28 38 31
f 31 41 39
f 27 32 38
f 27 33 32
f 27 34 33
f 27 35 34
f 27 36 35
f 27 37 36
f 24 27 25
f 24 37 27
f 22 24 23
f 22 37 24
f 22 35 36
f 17 23 24
f 1 9 19
f 14 17 15
f 4 8 16
f 3 6 7
f 2 6 3
f 2 5 6
f 1 5 2
f 1 10 5
f 1 20 10
f 4 16 9
f 1 30 20
f 1 4 9
f 1 8 4
f 1 15 8
f 1 7 15
f 1 3 7
f 1 2 3
f 16 17 18
f 1 29 30
f 5 10 11
f 1 19 29
f 6 11 12
f 14 23 17
f 5 11 6
f 12 21 22
f 12 14 13
f 12 23 14
f 11 20 21
f 11 21 12
f 10 20 11
f 12 22 23
f 9 18 19
f 8 17 16
f 8 15 17
f 7 13 14
f 7 14 15
f 9 16 18
f 6 12 13
f 6 13 7

