# https://github.com/mikedh/trimesh
v 0.89947900 0.36812500 -0.07351800
v 0.89067500 0.35057800 -0.06309660
v 0.87834800 0.34711800 -0.22074300
v 0.88363100 0.35762200 -0.18929000
v 0.87658700 0.37170900 -0.19630100
v 0.87658700 0.39271700 -0.13320400
v 0.85563200 0.45586300 -0.02804290
v 0.89771800 0.37170900 -0.07010740
v 0.89771800 0.37170900 0.03505370
v 0.89771800 0.36466500 0.04206440
v 0.89067500 0.35057800 0.04206440
v 0.86954400 0.32957100 -0.21032200
v 0.87834800 0.35762200 -0.21297500
v 0.85739300 0.32611000 -0.30506200
v 0.86250000 0.33661400 -0.29445100
v 0.85563200 0.37170900 -0.28042900
v 0.85563200 0.39271700 -0.23836500
v 0.85563200 0.41372400 -0.17526800
v 0.81354600 0.47687000 -0.19630100
v 0.77146000 0.58203100 -0.07010740
v 0.76441600 0.59611900 -0.05608590
v 0.75032900 0.62417000 -0.02804290
v 0.84858900 0.46982600 -0.01402150
v 0.89067500 0.38567300 0.04907520
v 0.88363100 0.35762200 0.21032200
v 0.87658700 0.34365800 0.23135400
v 0.86954400 0.32957100 0.23135400
v 0.59607200 0.16126300 -0.73631700
v 0.76441600 0.26642400 -0.50496300
v 0.85563200 0.32252700 -0.29445100
v 0.85739300 0.35762200 -0.29710400
v 0.81530700 0.30497900 -0.43125500
v 0.83626200 0.32611000 -0.36815800
v 0.85211000 0.36812500 -0.29975600
v 0.83097900 0.41026400 -0.29975600
v 0.83450100 0.41372400 -0.28042900
v 0.81354600 0.45586300 -0.25939700
v 0.75032900 0.56102400 -0.25939700
v 0.72937400 0.62417000 -0.15423600
v 0.73624200 0.63121300 -0.02103220
v 0.75032900 0.62417000 -0.00701074
v 0.76441600 0.59611900 0.02804290
v 0.84858900 0.42781100 0.19630100
v 0.86954400 0.42781100 0.02804290
v 0.86954400 0.40668000 0.13320400
v 0.86954400 0.38567300 0.21733300
v 0.87306500 0.36812500 0.24196500
v 0.88010900 0.35416200 0.22775400
v 0.86250000 0.33661400 0.29445100
v 0.85563200 0.32252700 0.29445100
v 0.76441600 0.26642400 0.50496300
v 0.59607200 0.16126300 0.71528500
v -0.22434200 -0.34365800 -0.86251000
v 0.32260100 -0.00692012 -0.90457500
v 0.49076900 0.09811740 -0.82044600
v 0.47685800 0.09107370 -0.84147800
v 0.47861900 0.09465730 -0.85208900
v 0.64696300 0.19981800 -0.70467400
v 0.65911300 0.20327800 -0.67322000
v 0.75032900 0.25938100 -0.54702700
v 0.81530700 0.31560700 -0.42329700
v 0.75209000 0.26296400 -0.55744800
v 0.75737300 0.27346800 -0.54702700
v 0.77322100 0.28397200 -0.51538400
v 0.77146000 0.29447600 -0.51898400
v 0.79417600 0.30497900 -0.47331900
v 0.77322100 0.31560700 -0.50742600
v 0.81002400 0.32611000 -0.42595000
v 0.81002400 0.41026400 -0.34182100
v 0.70472100 0.59957900 -0.32078900
v 0.72585200 0.57857100 -0.29975600
v 0.74680700 0.55756400 -0.27872400
v 0.70824300 0.62417000 -0.25939700
v 0.71528700 0.63121300 -0.14722500
v 0.70472100 0.62590000 -0.26299700
v 0.73624200 0.63121300 0.00000000
v 0.72937400 0.62417000 0.16124700
v 0.74328500 0.61712600 0.09113960
v 0.74328500 0.59611900 0.19630100
v 0.76441600 0.55398000 0.23836500
v 0.82745700 0.44881900 0.23836500
v 0.83097900 0.43127200 0.26299700
v 0.85211000 0.36812500 0.30506200
v 0.85563200 0.32957100 0.30847200
v 0.82041400 0.31560700 0.42064400
v 0.81354600 0.30151900 0.42064400
v 0.75032900 0.25938100 0.54702700
v 0.65911300 0.20327800 0.67322000
v 0.64168000 0.19450500 0.70467400
v 0.57846300 0.15249000 0.74692800
v 0.49076900 0.09811740 0.82044600
v 0.32260100 -0.00692012 0.90457500
v -0.22434200 -0.34365800 0.86251000
v -0.32946900 -0.40668000 -0.79941300
v -0.35764300 -0.42076800 -0.79941300
v -0.25234000 -0.35762200 -0.86251000
v -0.24529700 -0.35057800 -0.87653200
v -0.23666800 -0.34711800 -0.87312100
v -0.06832380 -0.24195700 -0.93621800
v -0.05599730 -0.23837300 -0.92560700
v 0.04895360 -0.17522700 -0.94663900
v -0.49781300 -0.51196500 -0.61012400
v 0.11217100 -0.13321200 -0.94663900
v 0.28051500 -0.02805120 -0.92560700
v 0.29706800 -0.01569380 -0.92560700
v 0.31819900 0.00000000 -0.92049100
v 0.43125000 0.07352620 -0.87842600
v 0.47685800 0.10516100 -0.85549900
v 0.59959400 0.17881100 -0.75204400
v 0.60487700 0.17881100 -0.74692800
v 0.65999400 0.21032200 -0.69425200
v 0.74328500 0.27346800 -0.57507000
v 0.76441600 0.29447600 -0.53300500
v 0.76793800 0.32611000 -0.51007800
v 0.76793800 0.38913300 -0.44698200
v 0.78889300 0.41026400 -0.38388500
v 0.66263500 0.57857100 -0.42595000
v 0.64520200 0.58203100 -0.44868700
v 0.70472100 0.49441800 -0.44698200
v 0.70119900 0.62417000 -0.25238700
v 0.66263500 0.60489200 -0.34712600
v 0.71528700 0.63121300 0.16825800
v 0.63111500 0.58907500 -0.44167600
v 0.72233000 0.61712600 0.23836500
v 0.76793800 0.53643300 0.26299700
v 0.78889300 0.34711800 0.47331900
v 0.80298100 0.34007400 0.44527700
v 0.81354600 0.30856300 0.43466600
v 0.80650300 0.32252700 0.44868700
v 0.81002400 0.29978900 0.43125500
v 0.74680700 0.25765100 0.55744800
v 0.62054900 0.19450500 0.72589500
v 0.53285500 0.15422000 0.80642400
v 0.49781300 0.11912500 0.83446700
v 0.49429100 0.11035100 0.83105700
v 0.70824300 0.24541700 0.62414500
v 0.66263500 0.21563600 0.68364200
v 0.65471100 0.21032200 0.69160000
v 0.48390200 0.10256600 0.83617200
v 0.36803300 0.02619760 0.89415300
v 0.30499200 -0.01569380 0.91518500
v 0.03152050 -0.18400100 0.95725000
v 0.04895360 -0.17522700 0.94663900
v -0.24195100 -0.35230800 0.87312100
v -0.34707800 -0.41545400 0.81002400
v -0.32946900 -0.40668000 0.79941300
v -0.49781300 -0.51196500 0.61012400
v -0.52598800 -0.52592900 -0.61012400
v -0.46277000 -0.48391400 -0.69425200
v -0.48918400 -0.49441800 -0.68364200
v -0.35060000 -0.41372400 -0.81343500
v -0.28738300 -0.37170900 -0.85549900
v -0.36116500 -0.40322000 -0.82404600
v -0.25234000 -0.33661400 -0.88354200
v -0.16130000 -0.28743200 -0.91859600
v -0.07712840 -0.24541700 -0.93962800
v 0.03680330 -0.17881100 -0.95725000
v -0.60311600 -0.57498800 -0.44167600
v -0.61702700 -0.58203100 -0.44167600
v -0.63111500 -0.58907500 -0.44167600
v 0.16306100 -0.09465730 -0.95725000
v 0.26818900 -0.03151120 -0.93621800
v 0.27611300 -0.02100750 -0.94152300
v 0.47333600 0.11566500 -0.85739400
v 0.30147000 0.00000000 -0.93261700
v 0.27347100 0.00000000 -0.94663900
v 0.28403700 0.01050370 -0.94152300
v 0.48390200 0.12616900 -0.84943600
v 0.63111500 0.21032200 -0.72324300
v 0.66263500 0.22082600 -0.68894700
v 0.66791800 0.22082600 -0.68364200
v 0.65911300 0.25246100 -0.68023100
v 0.66263500 0.28397200 -0.65749300
v 0.74680700 0.30497900 -0.55214300
v 0.74680700 0.36812500 -0.51007800
v 0.74680700 0.38913300 -0.48904600
v 0.64168000 0.55756400 -0.48904600
v 0.64168000 0.57857100 -0.45759300
v 0.59959400 0.56275400 -0.51538400
v 0.68376600 0.47341000 -0.51007800
v 0.61702700 0.58203100 -0.44167600
v 0.61702700 0.58203100 0.44167600
v 0.70119900 0.62417000 0.23135400
v 0.70824300 0.62417000 0.22434400
v 0.55750800 0.54174600 -0.57848100
v 0.51542200 0.52073900 -0.62054500
v 0.62054900 0.58376100 -0.45228700
v 0.68376600 0.59957900 0.34712600
v 0.66263500 0.57857100 0.43125500
v 0.68376600 0.57857100 0.38919100
v 0.72585200 0.59957900 0.26299700
v 0.72585200 0.55756400 0.32609400
v 0.70472100 0.51542500 0.43125500
v 0.68376600 0.51542500 0.47331900
v 0.64168000 0.55756400 0.49435200
v 0.74680700 0.38913300 0.49435200
v 0.76793800 0.32611000 0.51538400
v 0.78537100 0.32252700 0.49094100
v 0.76441600 0.30151900 0.53300500
v 0.77146000 0.28743200 0.51898400
v 0.62054900 0.22082600 0.72589500
v 0.51190000 0.15422000 0.82745600
v 0.36116500 0.04547510 0.90817500
v 0.34707800 0.02619760 0.91518500
v 0.33651200 0.01828890 0.92049100
v 0.70119900 0.25938100 0.63816700
v 0.66263500 0.24195700 0.68364200
v 0.31555700 -0.00259504 0.92049100
v 0.26290600 -0.03670130 0.93621800
v 0.19986500 -0.07883990 0.93621800
v 0.09456150 -0.14198600 0.95725000
v 0.04191000 -0.17090200 0.96255500
v 0.02095500 -0.18227100 0.96066000
v -0.11569300 -0.26296400 0.94152300
v -0.11569300 -0.26815500 0.93621800
v -0.07360660 -0.24714700 0.93621800
v -0.25234000 -0.35057800 0.87653200
v -0.34707800 -0.41026400 0.81514000
v -0.43125000 -0.45759300 0.74692800
v -0.45220500 -0.47860000 0.70467400
v -0.51542200 -0.52073900 0.62054500
v -0.29442600 -0.37170900 0.85549900
v -0.62054900 -0.58376100 0.45228700
v -0.60311600 -0.57498800 0.44167600
v -0.56455200 -0.54347600 -0.56445900
v -0.50133500 -0.50146100 -0.66962000
v -0.49076900 -0.49787800 -0.67322000
v -0.51542200 -0.49441800 -0.68364200
v -0.43125000 -0.43127200 -0.76796000
v -0.41011900 -0.36812500 -0.81002400
v -0.38916400 -0.34711800 -0.83105700
v -0.33651200 -0.37862900 -0.84147800
v -0.34707800 -0.32611000 -0.85208900
v -0.22082000 -0.26296400 -0.91518500
v -0.19986500 -0.28397200 -0.91518500
v -0.16816800 -0.27346800 -0.92560700
v -0.11921400 -0.24541700 -0.93962800
v -0.08399600 -0.23133000 -0.94663900
v 0.02095500 -0.16830700 -0.96786100
v 0.02799870 -0.18227100 -0.96066000
v 0.09103970 -0.14025600 -0.96066000
v -0.70119900 -0.62417000 -0.23135400
v -0.61702700 -0.58203100 0.44167600
v -0.66263500 -0.60489200 0.34712600
v -0.66967900 -0.60662200 -0.33310500
v -0.68376600 -0.59957900 -0.34712600
v -0.66263500 -0.57857100 -0.43125500
v -0.63815800 -0.57498800 -0.46971900
v -0.62054900 -0.55756400 -0.51538400
v -0.57846300 -0.53643300 -0.57848100
v 0.15425700 -0.09811740 -0.96066000
v 0.14721300 -0.08415360 -0.96786100
v 0.45220500 0.15780300 -0.85739400
v 0.32612300 0.05251870 -0.92049100
v 0.25234000 0.04201500 -0.94663900
v 0.26290600 0.05251870 -0.94152300
v 0.46277000 0.16830700 -0.84943600
v 0.48390200 0.18931500 -0.82840400
v 0.52598800 0.16830700 -0.80737200
v 0.61016000 0.25246100 -0.72324300
v 0.63815800 0.25246100 -0.70126300
v 0.64168000 0.22082600 -0.70997900
v 0.57494100 0.35762200 -0.70126300
v 0.57846300 0.38913300 -0.67852600
v 0.68376600 0.41026400 -0.55214300
v 0.64168000 0.53643300 -0.51007800
v 0.55750800 0.51542500 -0.61542900
v 0.62054900 0.55756400 -0.51007800
v 0.59959400 0.51542500 -0.57317500
v 0.60311600 0.57498800 -0.44167600
v 0.60311600 0.57498800 0.44167600
v 0.49781300 0.51196500 0.61012400
v 0.63111500 0.58907500 0.44167600
v 0.66967900 0.60662200 0.33310500
v 0.57846300 0.53643300 -0.57317500
v 0.52598800 0.51196500 -0.63816700
v 0.49781300 0.51196500 -0.61012400
v 0.46277000 0.48391400 -0.69425200
v 0.45220500 0.47860000 -0.70467400
v 0.34707800 0.41545400 -0.78899200
v 0.24195100 0.35230800 -0.87312100
v 0.22434200 0.34365800 -0.86251000
v 0.63815800 0.57498800 0.46971900
v 0.62054900 0.55756400 0.51538400
v 0.51542200 0.49441800 0.68364200
v 0.55750800 0.49441800 0.64157700
v 0.62054900 0.53643300 0.53641600
v 0.64168000 0.47341000 0.55744800
v 0.68376600 0.34711800 0.59951300
v 0.70472100 0.28397200 0.62054500
v 0.55750800 0.32611000 0.72589500
v 0.57846300 0.24195700 0.74692800
v 0.49429100 0.17881100 0.83105700
v 0.65911300 0.25938100 0.68023100
v 0.64168000 0.28397200 0.68364200
v 0.48390200 0.14717600 0.84147800
v 0.34707800 0.05251870 0.91518500
v 0.33299000 0.03855490 0.92219600
v 0.26994900 -0.00346006 0.94322800
v 0.27347100 -0.02360250 0.94152300
v 0.64168000 0.32611000 0.66260900
v 0.68024400 0.25938100 0.65919900
v 0.15777900 -0.09984740 0.95725000
v 0.10512700 -0.12876400 0.96255500
v 0.14721300 -0.08415360 0.96786100
v 0.02095500 -0.16830700 0.96786100
v -0.12608200 -0.23133000 0.94663900
v -0.14721300 -0.21032200 0.94663900
v -0.15777900 -0.22082600 0.94152300
v -0.17873400 -0.28397200 0.92049100
v -0.26290600 -0.34711800 0.87842600
v -0.39972900 -0.42076800 0.78633900
v -0.43125000 -0.45227900 0.75204400
v -0.30499200 -0.36812500 0.85739400
v -0.46277000 -0.46982600 0.72229500
v -0.52598800 -0.51196500 0.63816700
v -0.46277000 -0.48391400 0.69425200
v -0.55750800 -0.54174600 0.57848100
v -0.63111500 -0.58907500 0.44167600
v -0.64168000 -0.55756400 -0.49435200
v -0.55750800 -0.49441800 -0.64157700
v -0.57846300 -0.43127200 -0.66260900
v -0.64168000 -0.32611000 -0.66260900
v -0.64168000 -0.28397200 -0.68364200
v -0.55750800 -0.32611000 -0.72589500
v -0.57846300 -0.24195700 -0.74692800
v -0.49429100 -0.17881100 -0.83105700
v -0.28403700 -0.15780300 -0.91518500
v -0.21025400 -0.23133000 -0.92560700
v -0.20673200 -0.24887700 -0.92219600
v -0.18577700 -0.27000800 -0.92219600
v -0.12608200 -0.23133000 -0.94663900
v 0.00000000 -0.16830700 -0.96786100
v 0.04455130 -0.16830700 -0.96255500
v -0.71528700 -0.63121300 -0.14722500
v -0.70824300 -0.62417000 -0.22434400
v -0.70472100 -0.62590000 0.26299700
v -0.70119900 -0.62417000 0.25238700
v -0.71528700 -0.63121300 0.14722500
v -0.72233000 -0.61712600 -0.23836500
v -0.68376600 -0.57857100 -0.38919100
v -0.68376600 -0.51542500 -0.47331900
v 0.10776800 -0.12616900 -0.96255500
v 0.08399600 0.02100750 -0.96786100
v 0.18929900 0.14717600 -0.94663900
v 0.34707800 0.32611000 -0.85739400
v 0.32612300 0.15780300 -0.89945900
v 0.19986500 0.15780300 -0.94152300
v 0.35764300 0.33661400 -0.84943600
v 0.44181500 0.42076800 -0.76530700
v 0.46277000 0.44177500 -0.74427500
v 0.54694300 0.35762200 -0.72324300
v 0.55750800 0.38913300 -0.69955800
v 0.55750800 0.36812500 -0.70997900
v 0.57846300 0.45227900 -0.63646100
v 0.52598800 0.49960800 -0.65484100
v 0.51542200 0.49441800 -0.66791500
v 0.51542200 0.45227900 -0.69955800
v 0.22434200 0.34365800 0.86251000
v 0.32946900 0.40668000 0.79941300
v 0.35764300 0.42076800 0.79941300
v 0.52598800 0.52592900 0.61012400
v 0.56455200 0.54347600 0.56445900
v 0.57846300 0.53643300 0.57848100
v 0.46277000 0.46982600 -0.72229500
v 0.43125000 0.45759300 -0.74692800
v 0.38916400 0.43658500 -0.76796000
v 0.28403700 0.37343900 -0.85208900
v 0.25234000 0.35057800 -0.87653200
v 0.11569300 0.26296400 -0.94152300
v 0.11569300 0.26815500 -0.93621800
v 0.07360660 0.24714700 -0.93621800
v -0.03152050 0.18400100 -0.95725000
v -0.04895360 0.17522700 -0.94663900
v -0.32260100 0.00692012 -0.90457500
v -0.59607200 -0.16126300 -0.71528500
v 0.57846300 0.43127200 0.66260900
v 0.50133500 0.50146100 0.66962000
v 0.48918400 0.49441800 0.68364200
v 0.35060000 0.41372400 0.81343500
v 0.36116500 0.40322000 0.82404600
v 0.43125000 0.43127200 0.76796000
v 0.41011900 0.36812500 0.81002400
v 0.38916400 0.34711800 0.83105700
v 0.34707800 0.32611000 0.85208900
v 0.22082000 0.26296400 0.91518500
v 0.28403700 0.15780300 0.91518500
v 0.27347100 0.12616900 0.92560700
v 0.25234000 0.02100750 0.94663900
v 0.14721300 -0.06302250 0.96786100
v 0.25234000 -0.02100750 0.94663900
v 0.16130000 -0.09107370 0.96066000
v 0.00000000 -0.14717600 0.96786100
v -0.18929900 -0.14717600 0.94663900
v -0.19986500 -0.15780300 0.94152300
v -0.28403700 -0.32611000 0.87842600
v -0.35764300 -0.37862900 0.82840400
v -0.35764300 -0.33661400 0.84943600
v -0.44181500 -0.42076800 0.76530700
v -0.46277000 -0.44177500 0.74427500
v -0.45220500 -0.45227900 0.74162200
v -0.32612300 -0.34711800 0.85739400
v -0.33651200 -0.35762200 0.84943600
v -0.47333600 -0.45227900 0.73101100
v -0.48390200 -0.46278300 0.71528500
v -0.49429100 -0.47341000 0.69955800
v -0.51542200 -0.49441800 0.66791500
v -0.55750800 -0.51542500 0.61542900
v -0.57846300 -0.53643300 0.57317500
v -0.62054900 -0.55756400 0.51007800
v -0.59959400 -0.56275400 0.51538400
v -0.64520200 -0.58203100 0.44868700
v -0.78889300 -0.34711800 -0.47331900
v -0.74680700 -0.38913300 -0.49435200
v -0.62054900 -0.53643300 -0.53641600
v -0.68376600 -0.34711800 -0.59951300
v -0.64168000 -0.47341000 -0.55744800
v -0.70472100 -0.28397200 -0.62054500
v -0.70119900 -0.25938100 -0.63816700
v -0.68024400 -0.25938100 -0.65919900
v -0.65911300 -0.25938100 -0.68023100
v -0.62054900 -0.22082600 -0.72589500
v -0.51190000 -0.15422000 -0.82745600
v -0.48390200 -0.14717600 -0.84147800
v -0.34707800 -0.05251870 -0.91518500
v -0.27347100 -0.12616900 -0.92560700
v -0.18929900 -0.12616900 -0.94663900
v -0.02095500 -0.14717600 -0.96786100
v -0.73624200 -0.63121300 0.00000000
v -0.72937400 -0.62417000 -0.14021500
v -0.70472100 -0.59957900 0.32078900
v -0.70824300 -0.62417000 0.25939700
v -0.72937400 -0.62417000 0.15423600
v -0.73624200 -0.63121300 0.02103220
v -0.76441600 -0.55398000 -0.23836500
v -0.72585200 -0.59957900 -0.26299700
v -0.74328500 -0.61712600 -0.09113960
v -0.74328500 -0.59611900 -0.19630100
v -0.70472100 -0.51542500 -0.43125500
v -0.72585200 -0.55756400 -0.32609400
v 0.00000000 0.14717600 -0.96786100
v 0.14721300 0.21032200 -0.94663900
v 0.32612300 0.34711800 -0.85739400
v 0.28403700 0.32611000 -0.87842600
v 0.15777900 0.22082600 -0.94152300
v 0.33651200 0.35762200 -0.84943600
v 0.35764300 0.37862900 -0.82840400
v 0.39972900 0.42076800 -0.78633900
v 0.43125000 0.45227900 -0.75204400
v 0.45220500 0.45227900 -0.74162200
v 0.47333600 0.45227900 -0.73101100
v 0.50485600 0.42076800 -0.72324300
v 0.49429100 0.47341000 -0.69955800
v 0.48390200 0.46278300 -0.71528500
v -0.59607200 -0.16126300 0.73631700
v -0.32260100 0.00692012 0.90457500
v -0.04895360 0.17522700 0.94663900
v 0.05599730 0.23837300 0.92560700
v 0.06832380 0.24195700 0.93621800
v 0.23666800 0.34711800 0.87312100
v 0.24529700 0.35057800 0.87653200
v 0.25234000 0.35762200 0.86251000
v 0.46277000 0.48391400 0.69425200
v 0.49076900 0.49787800 0.67322000
v 0.32612300 0.39444700 -0.83105700
v 0.29442600 0.37170900 -0.85549900
v 0.26290600 0.34711800 -0.87842600
v 0.17873400 0.28397200 -0.92049100
v 0.12608200 0.23133000 -0.94663900
v -0.02095500 0.16830700 -0.96786100
v -0.02095500 0.18227100 -0.96066000
v -0.04191000 0.17090200 -0.96255500
v -0.09456150 0.14198600 -0.95725000
v -0.19986500 0.07883990 -0.93621800
v -0.30499200 0.01569380 -0.91518500
v -0.36803300 -0.02619760 -0.89415300
v -0.49076900 -0.09811740 -0.82044600
v -0.57846300 -0.15249000 -0.74692800
v -0.64168000 -0.19450500 -0.70467400
v -0.65911300 -0.20327800 -0.67322000
v -0.76441600 -0.26642400 -0.50496300
v -0.86954400 -0.32957100 -0.23135400
v 0.28738300 0.37170900 0.85549900
v 0.25234000 0.33661400 0.88354200
v 0.33651200 0.37862900 0.84147800
v 0.19986500 0.28397200 0.91518500
v 0.18577700 0.27000800 0.92219600
v 0.20673200 0.24887700 0.92219600
v 0.21025400 0.23133000 0.92560700
v 0.18929900 0.12616900 0.94663900
v 0.02095500 0.14717600 0.96786100
v -0.08399600 -0.02100750 0.96786100
v -0.25234000 -0.04201500 0.94663900
v -0.14721300 0.08415360 0.96786100
v -0.26290600 -0.05251870 0.94152300
v -0.32612300 -0.05251870 0.92049100
v -0.32612300 -0.15780300 0.89945900
v -0.34707800 -0.32611000 0.85739400
v -0.46277000 -0.16830700 0.84943600
v -0.48390200 -0.18931500 0.82840400
v -0.54694300 -0.35762200 0.72324300
v -0.50485600 -0.42076800 0.72324300
v -0.51542200 -0.45227900 0.69955800
v -0.52598800 -0.49960800 0.65484100
v -0.57846300 -0.45227900 0.63646100
v -0.59959400 -0.51542500 0.57317500
v -0.64168000 -0.53643300 0.51007800
v -0.64168000 -0.55756400 0.48904600
v -0.55750800 -0.38913300 0.69955800
v -0.64168000 -0.57857100 0.45759300
v -0.66263500 -0.57857100 0.42595000
v -0.80298100 -0.34007400 -0.44527700
v -0.80650300 -0.32252700 -0.44868700
v -0.78537100 -0.32252700 -0.49094100
v -0.76793800 -0.32611000 -0.51538400
v -0.85211000 -0.36812500 -0.30506200
v -0.76441600 -0.30151900 -0.53300500
v -0.77146000 -0.28743200 -0.51898400
v -0.70824300 -0.24541700 -0.62414500
v -0.66263500 -0.21563600 -0.68364200
v -0.66263500 -0.24195700 -0.68364200
v -0.62054900 -0.19450500 -0.72589500
v -0.65471100 -0.21032200 -0.69160000
v -0.53285500 -0.15422000 -0.80642400
v -0.49781300 -0.11912500 -0.83446700
v -0.36116500 -0.04547510 -0.90817500
v -0.33651200 -0.01828890 -0.92049100
v -0.33299000 -0.03855490 -0.92219600
v -0.25234000 -0.02100750 -0.94663900
v -0.14721300 0.06302250 -0.96786100
v -0.75032900 -0.62417000 0.00701074
v -0.78889300 -0.41026400 0.38388500
v -0.81002400 -0.41026400 0.34182100
v -0.83097900 -0.41026400 0.29975600
v -0.72585200 -0.57857100 0.29975600
v -0.70472100 -0.49441800 0.44698200
v -0.74680700 -0.55756400 0.27872400
v -0.75032900 -0.56102400 0.25939700
v -0.77146000 -0.58203100 0.07010740
v -0.76441600 -0.59611900 0.05608590
v -0.75032900 -0.62417000 0.02804290
v -0.82745700 -0.44881900 -0.23836500
v -0.76793800 -0.53643300 -0.26299700
v -0.76441600 -0.59611900 -0.02804290
v -0.84858900 -0.42781100 -0.19630100
v 0.30499200 0.36812500 -0.85739400
v 0.32612300 0.38913300 -0.83617200
v -0.76441600 -0.26642400 0.50496300
v -0.75032900 -0.25938100 0.54702700
v -0.65911300 -0.20327800 0.67322000
v -0.64696300 -0.19981800 0.70467400
v -0.47861900 -0.09465730 0.85208900
v -0.47685800 -0.09107370 0.84147800
v -0.49076900 -0.09811740 0.82044600
v -0.86954400 -0.32957100 0.21032200
v -0.29706800 0.01569380 0.92560700
v -0.28051500 0.02805120 0.92560700
v -0.11217100 0.13321200 0.94663900
v -0.03680330 0.17881100 0.95725000
v 0.07712840 0.24541700 0.93962800
v 0.16130000 0.28743200 0.91859600
v -0.14721300 0.08415360 -0.96786100
v -0.10512700 0.12876400 -0.96255500
v -0.15777900 0.09984740 -0.95725000
v -0.31555700 0.00259504 -0.92049100
v -0.26290600 0.03670130 -0.93621800
v -0.48390200 -0.10256600 -0.83617200
v -0.49429100 -0.11035100 -0.83105700
v -0.74680700 -0.25765100 -0.55744800
v -0.75032900 -0.25938100 -0.54702700
v -0.81354600 -0.30151900 -0.42064400
v -0.85563200 -0.32252700 -0.29445100
v -0.87658700 -0.34365800 -0.23135400
v -0.89067500 -0.35057800 -0.04206440
v 0.16816800 0.27346800 0.92560700
v 0.12608200 0.23133000 0.94663900
v 0.00000000 0.16830700 0.96786100
v -0.27347100 0.00000000 0.94663900
v -0.02095500 0.16830700 0.96786100
v -0.04455130 0.16830700 0.96255500
v -0.10776800 0.12616900 0.96255500
v -0.15425700 0.09811740 0.96066000
v -0.27611300 0.02100750 0.94152300
v -0.28403700 -0.01050370 0.94152300
v -0.47333600 -0.11566500 0.85739400
v -0.45220500 -0.15780300 0.85739400
v -0.48390200 -0.12616900 0.84943600
v -0.52598800 -0.16830700 0.80737200
v -0.61016000 -0.25246100 0.72324300
v -0.57494100 -0.35762200 0.70126300
v -0.55750800 -0.36812500 0.70997900
v -0.57846300 -0.38913300 0.67852600
v -0.68376600 -0.41026400 0.55214300
v -0.68376600 -0.47341000 0.51007800
v -0.82041400 -0.31560700 -0.42064400
v -0.81354600 -0.30856300 -0.43466600
v -0.83097900 -0.43127200 -0.26299700
v -0.87306500 -0.36812500 -0.24196500
v -0.86250000 -0.33661400 -0.29445100
v -0.34707800 -0.02619760 -0.91518500
v -0.27347100 0.02360250 -0.94152300
v -0.26994900 0.00346006 -0.94322800
v -0.84858900 -0.46982600 0.01402150
v -0.74680700 -0.38913300 0.48904600
v -0.76793800 -0.38913300 0.44698200
v -0.76793800 -0.32611000 0.51007800
v -0.81002400 -0.32611000 0.42595000
v -0.85211000 -0.36812500 0.29975600
v -0.85563200 -0.37170900 0.28042900
v -0.83450100 -0.41372400 0.28042900
v -0.81354600 -0.45586300 0.25939700
v -0.81354600 -0.47687000 0.19630100
v -0.85563200 -0.45586300 0.02804290
v -0.87658700 -0.39271700 0.13320400
v -0.86954400 -0.38567300 -0.21733300
v -0.86954400 -0.42781100 -0.02804290
v -0.86954400 -0.40668000 -0.13320400
v -0.85563200 -0.32252700 0.29445100
v -0.81530700 -0.30497900 0.43125500
v -0.75209000 -0.26296400 0.55744800
v -0.60487700 -0.17881100 0.74692800
v -0.65999400 -0.21032200 0.69425200
v -0.47685800 -0.10516100 0.85549900
v -0.43125000 -0.07352620 0.87842600
v -0.31819900 0.00000000 0.92049100
v -0.59959400 -0.17881100 0.75204400
v -0.89067500 -0.35057800 0.06309660
v -0.87834800 -0.34711800 0.22074300
v -0.85739300 -0.32611000 0.30506200
v -0.26818900 0.03151120 0.93621800
v -0.16306100 0.09465730 0.95725000
v -0.09103970 0.14025600 0.96066000
v -0.02799870 0.18227100 0.96066000
v 0.08399600 0.23133000 0.94663900
v 0.11921400 0.24541700 0.93962800
v -0.25234000 0.02100750 -0.94663900
v -0.16130000 0.09107370 -0.96066000
v -0.81002400 -0.29978900 -0.43125500
v -0.85563200 -0.32957100 -0.30847200
v -0.88010900 -0.35416200 -0.22775400
v -0.88363100 -0.35762200 -0.21032200
v -0.89771800 -0.36466500 -0.04206440
v -0.89947900 -0.36812500 0.07351800
v -0.30147000 0.00000000 0.93261700
v -0.63111500 -0.21032200 0.72324300
v -0.63815800 -0.25246100 0.70126300
v -0.65911300 -0.25246100 0.68023100
v -0.66263500 -0.28397200 0.65749300
v -0.74680700 -0.30497900 0.55214300
v -0.74680700 -0.36812500 0.51007800
v -0.89067500 -0.38567300 -0.04907520
v -0.74328500 -0.27346800 0.57507000
v -0.76441600 -0.29447600 0.53300500
v -0.77322100 -0.31560700 0.50742600
v -0.81530700 -0.31560700 0.42329700
v -0.85739300 -0.35762200 0.29710400
v -0.85563200 -0.39271700 0.23836500
v -0.87658700 -0.37170900 0.19630100
v -0.85563200 -0.41372400 0.17526800
v -0.89771800 -0.37170900 0.07010740
v -0.89771800 -0.37170900 -0.03505370
v -0.77146000 -0.29447600 0.51898400
v -0.77322100 -0.28397200 0.51538400
v -0.75737300 -0.27346800 0.54702700
v -0.86250000 -0.33661400 0.29445100
v -0.83626200 -0.32611000 0.36815800
v -0.79417600 -0.30497900 0.47331900
v -0.66791800 -0.22082600 0.68364200
v -0.66263500 -0.22082600 0.68894700
v -0.88363100 -0.35762200 0.18929000
v -0.87834800 -0.35762200 0.21297500
v -0.64168000 -0.22082600 0.70997900
f 1 2 12
f 384 485 484
f 381 383 382
f 381 384 383
f 381 485 384
f 381 484 485
f 381 461 484
f 381 483 461
f 384 484 385
f 380 483 381
f 379 464 463
f 376 481 482
f 376 570 481
f 376 480 570
f 376 479 480
f 376 478 479
f 376 477 478
f 380 461 483
f 385 484 386
f 386 484 486
f 386 486 487
f 395 497 396
f 395 496 497
f 395 495 496
f 395 493 495
f 394 494 493
f 394 492 494
f 394 493 395
f 393 492 394
f 390 490 491
f 389 490 390
f 388 490 389
f 388 576 490
f 388 489 576
f 386 388 387
f 386 489 388
f 386 488 489
f 386 487 488
f 375 477 376
f 375 476 477
f 375 475 476
f 373 375 374
f 365 449 366
f 365 450 449
f 365 451 450
f 365 454 451
f 365 453 454
f 362 378 363
f 362 379 378
f 362 464 379
f 362 463 464
f 361 461 380
f 361 462 461
f 361 463 362
f 361 379 463
f 361 380 379
f 359 361 360
f 359 462 361
f 359 461 462
f 366 449 547
f 396 497 586
f 366 547 465
f 366 368 367
f 373 475 375
f 373 474 475
f 373 473 474
f 373 472 473
f 373 471 472
f 371 373 372
f 370 467 468
f 370 373 371
f 370 471 373
f 370 470 471
f 370 469 470
f 370 442 469
f 370 445 442
f 370 468 445
f 369 467 370
f 369 466 467
f 368 465 466
f 366 465 368
f 396 586 498
f 396 498 402
f 397 403 398
f 423 425 424
f 423 526 425
f 423 525 526
f 423 524 525
f 423 522 524
f 422 523 522
f 422 521 523
f 422 522 423
f 421 521 422
f 420 521 421
f 419 521 420
f 419 520 521
f 419 519 520
f 419 518 519
f 419 517 518
f 418 517 419
f 418 515 517
f 425 526 527
f 416 515 418
f 425 527 528
f 426 528 529
f 433 538 539
f 433 540 541
f 433 539 540
f 432 538 433
f 432 537 538
f 432 535 537
f 431 536 532
f 431 511 536
f 431 535 432
f 431 534 535
f 431 533 534
f 431 532 533
f 429 541 531
f 429 434 541
f 427 530 428
f 427 529 530
f 426 529 427
f 425 528 426
f 359 460 461
f 414 417 415
f 413 516 512
f 408 505 506
f 407 503 504
f 407 504 408
f 406 503 407
f 405 503 406
f 404 503 405
f 400 500 501
f 400 404 401
f 400 503 404
f 400 502 503
f 400 501 502
f 399 500 400
f 398 500 399
f 398 499 500
f 398 586 499
f 398 498 586
f 398 402 498
f 408 506 507
f 414 515 417
f 408 507 508
f 408 410 409
f 413 543 516
f 413 439 543
f 413 515 414
f 413 517 515
f 413 514 517
f 413 513 514
f 413 512 513
f 412 511 431
f 412 508 511
f 412 510 508
f 411 510 412
f 410 510 411
f 410 508 510
f 408 592 505
f 408 509 592
f 408 503 509
f 408 504 503
f 408 508 410
f 359 459 460
f 359 458 459
f 359 457 458
f 312 314 397
f 311 402 314
f 311 396 402
f 310 396 311
f 309 396 310
f 309 395 396
f 308 395 309
f 308 394 395
f 308 393 394
f 306 308 307
f 306 393 308
f 305 393 306
f 305 492 393
f 305 494 492
f 305 579 494
f 305 577 579
f 305 491 577
f 312 397 398
f 305 390 491
f 312 398 399
f 312 400 313
f 319 411 412
f 318 411 319
f 318 410 411
f 318 409 410
f 318 408 409
f 316 408 318
f 316 407 408
f 315 407 316
f 315 406 407
f 315 405 406
f 315 404 405
f 315 401 404
f 314 403 397
f 314 398 403
f 314 402 398
f 313 401 315
f 313 400 401
f 312 399 400
f 319 412 337
f 304 392 305
f 300 392 303
f 286 288 287
f 286 290 289
f 286 377 290
f 285 291 295
f 285 383 291
f 285 382 383
f 285 381 382
f 285 380 381
f 285 379 380
f 285 378 379
f 285 363 378
f 285 364 363
f 285 377 286
f 285 301 377
f 285 295 301
f 284 364 285
f 282 375 376
f 290 377 301
f 303 392 304
f 291 383 292
f 293 383 384
f 300 305 392
f 300 391 305
f 299 391 300
f 299 305 391
f 299 390 305
f 299 389 390
f 298 389 299
f 298 388 389
f 297 388 298
f 297 387 388
f 294 301 295
f 294 302 301
f 293 297 296
f 293 387 297
f 293 386 387
f 293 385 386
f 293 384 385
f 292 383 293
f 435 542 597
f 320 342 413
f 320 414 415
f 349 443 546
f 348 445 444
f 348 442 445
f 347 348 444
f 346 444 443
f 346 443 349
f 345 442 348
f 345 441 442
f 344 441 345
f 342 439 413
f 341 440 439
f 341 436 440
f 341 439 342
f 340 438 435
f 340 437 438
f 340 531 437
f 340 430 531
f 349 546 446
f 340 436 341
f 349 446 447
f 349 448 350
f 359 456 457
f 359 455 456
f 358 454 453
f 358 451 454
f 357 453 365
f 357 358 453
f 356 358 357
f 352 353 354
f 352 358 353
f 352 452 358
f 351 448 449
f 351 452 352
f 351 358 452
f 351 451 358
f 351 450 451
f 351 449 450
f 350 448 351
f 349 447 448
f 320 413 414
f 340 543 436
f 339 541 434
f 327 423 424
f 327 422 423
f 326 422 327
f 325 422 326
f 324 422 325
f 324 421 422
f 323 418 419
f 323 421 324
f 323 420 421
f 323 419 420
f 322 418 323
f 321 515 416
f 321 417 515
f 321 415 417
f 321 418 322
f 321 416 418
f 320 415 321
f 327 424 425
f 340 435 543
f 327 425 328
f 329 426 427
f 339 433 541
f 337 412 431
f 337 339 338
f 337 433 339
f 337 432 433
f 337 431 432
f 335 434 429
f 335 339 434
f 335 340 336
f 335 430 340
f 335 531 430
f 335 429 531
f 332 428 333
f 332 427 428
f 330 332 331
f 329 332 330
f 329 427 332
f 328 425 426
f 282 374 375
f 435 597 543
f 435 544 545
f 576 579 577
f 576 634 579
f 575 635 576
f 574 643 627
f 574 642 643
f 573 641 642
f 573 640 641
f 578 583 644
f 573 599 640
f 572 639 599
f 571 639 572
f 571 596 639
f 571 638 596
f 570 638 571
f 569 638 570
f 569 596 638
f 572 599 573
f 578 644 624
f 578 624 584
f 579 633 580
f 590 646 647
f 589 645 646
f 588 645 589
f 587 645 588
f 587 626 645
f 587 623 626
f 585 623 587
f 585 624 623
f 584 624 585
f 583 631 630
f 583 624 644
f 583 625 624
f 582 631 583
f 582 632 631
f 580 582 581
f 580 632 582
f 580 633 632
f 564 601 566
f 564 637 601
f 563 637 564
f 562 637 563
f 552 626 623
f 552 621 626
f 552 625 556
f 552 624 625
f 552 623 624
f 551 622 621
f 551 620 622
f 551 621 552
f 550 620 551
f 549 620 550
f 549 619 620
f 548 619 549
f 548 618 619
f 548 555 618
f 545 603 616
f 545 617 615
f 545 616 617
f 555 627 643
f 590 647 648
f 555 643 628
f 555 629 618
f 562 601 637
f 562 636 601
f 562 602 636
f 560 575 561
f 560 635 575
f 560 576 635
f 560 634 576
f 560 579 634
f 560 633 579
f 559 632 633
f 559 631 632
f 558 631 559
f 557 631 558
f 557 630 631
f 556 630 557
f 556 583 630
f 556 625 583
f 555 628 629
f 590 648 592
f 593 649 650
f 593 650 594
f 628 665 629
f 622 669 645
f 622 668 669
f 622 652 668
f 621 622 645
f 621 645 626
f 620 652 622
f 620 664 652
f 619 653 662
f 619 667 653
f 619 654 667
f 619 655 654
f 619 656 655
f 619 666 656
f 619 665 666
f 619 629 665
f 619 664 620
f 628 643 670
f 619 663 664
f 628 670 671
f 641 651 661
f 656 665 671
f 656 666 665
f 653 667 654
f 652 662 653
f 652 664 662
f 648 652 649
f 647 652 648
f 647 668 652
f 647 669 668
f 646 669 647
f 646 672 669
f 645 669 672
f 645 672 646
f 643 661 660
f 643 658 670
f 642 661 643
f 641 661 642
f 628 671 665
f 544 603 545
f 619 662 663
f 616 651 617
f 606 653 654
f 606 652 653
f 606 649 652
f 606 650 649
f 604 606 605
f 604 650 606
f 603 651 616
f 603 661 651
f 603 613 661
f 601 636 602
f 598 640 599
f 598 641 640
f 598 615 641
f 595 639 596
f 595 599 639
f 594 650 604
f 593 648 649
f 606 654 655
f 618 629 619
f 606 655 607
f 607 656 608
f 615 651 641
f 615 617 651
f 614 658 643
f 614 657 658
f 614 659 657
f 613 660 661
f 613 643 660
f 613 614 643
f 612 659 614
f 611 659 612
f 611 657 659
f 610 657 611
f 609 658 657
f 609 671 658
f 609 656 671
f 609 657 610
f 608 656 609
f 607 655 656
f 542 598 597
f 542 615 598
f 542 545 615
f 479 568 525
f 477 567 568
f 477 479 478
f 477 568 479
f 476 527 567
f 476 565 527
f 476 567 477
f 475 601 565
f 475 566 601
f 475 565 476
f 474 566 475
f 474 564 566
f 473 564 474
f 472 562 563
f 472 564 473
f 472 563 564
f 470 472 471
f 479 525 524
f 470 562 472
f 479 524 522
f 479 523 520
f 487 576 488
f 487 575 576
f 486 575 487
f 484 575 486
f 484 561 575
f 482 627 555
f 482 574 627
f 482 642 574
f 482 573 642
f 482 572 573
f 481 572 482
f 481 571 572
f 481 570 571
f 480 569 570
f 479 569 480
f 479 519 569
f 479 520 519
f 479 522 523
f 488 576 489
f 466 546 467
f 465 547 466
f 455 549 550
f 455 548 549
f 448 547 449
f 448 546 547
f 447 546 448
f 446 546 447
f 444 468 467
f 444 445 468
f 443 467 546
f 443 444 467
f 442 470 469
f 441 470 442
f 439 440 543
f 437 531 544
f 437 544 438
f 436 543 440
f 435 545 542
f 455 550 551
f 466 547 546
f 455 551 552
f 455 553 554
f 461 561 484
f 461 560 561
f 459 461 460
f 459 560 461
f 459 633 560
f 459 559 633
f 458 559 459
f 457 559 458
f 457 558 559
f 456 554 553
f 456 558 457
f 456 557 558
f 456 556 557
f 456 552 556
f 456 553 552
f 455 555 548
f 455 554 456
f 455 552 553
f 435 438 544
f 490 576 491
f 493 494 578
f 531 603 544
f 531 541 603
f 530 602 562
f 529 602 530
f 528 602 529
f 527 602 528
f 527 601 602
f 527 565 601
f 526 600 527
f 525 600 526
f 525 527 600
f 525 567 527
f 525 568 567
f 520 523 521
f 518 569 519
f 518 596 569
f 517 596 518
f 532 536 604
f 516 599 595
f 532 604 605
f 533 605 606
f 541 613 603
f 540 613 541
f 539 614 613
f 539 612 614
f 539 613 540
f 538 612 539
f 538 611 612
f 538 610 611
f 536 594 604
f 534 537 535
f 534 538 537
f 534 610 538
f 534 609 610
f 534 608 609
f 533 608 534
f 533 607 608
f 533 606 607
f 532 605 533
f 491 576 577
f 516 598 599
f 516 543 597
f 500 587 588
f 500 589 501
f 500 588 589
f 499 587 500
f 499 585 587
f 499 586 585
f 496 586 497
f 496 585 586
f 496 584 585
f 495 584 496
f 494 583 578
f 494 582 583
f 494 581 582
f 494 580 581
f 494 579 580
f 493 584 495
f 493 578 584
f 501 589 646
f 516 597 598
f 501 646 590
f 501 591 509
f 513 596 517
f 513 595 596
f 513 517 514
f 512 595 513
f 512 516 595
f 509 590 592
f 509 591 590
f 508 536 511
f 508 594 536
f 507 594 508
f 506 594 507
f 506 593 594
f 506 648 593
f 506 592 648
f 505 592 506
f 501 503 502
f 501 509 503
f 501 590 591
f 282 373 374
f 281 373 282
f 281 372 373
f 89 91 90
f 89 135 91
f 89 134 135
f 89 133 134
f 89 132 133
f 88 131 89
f 87 130 131
f 89 131 136
f 87 131 88
f 86 128 130
f 85 129 128
f 85 127 129
f 83 127 85
f 83 126 127
f 83 193 126
f 83 125 193
f 86 130 87
f 89 136 137
f 89 137 138
f 89 138 132
f 95 150 151
f 95 149 150
f 95 148 149
f 95 102 148
f 94 102 95
f 93 146 147
f 93 145 146
f 93 144 145
f 93 142 144
f 93 143 142
f 92 143 93
f 92 142 143
f 92 141 142
f 92 140 141
f 91 140 92
f 91 139 140
f 91 135 139
f 82 125 83
f 80 82 81
f 80 125 82
f 80 191 125
f 69 114 115
f 68 114 69
f 67 113 114
f 66 113 67
f 63 113 65
f 63 112 113
f 63 65 64
f 62 112 63
f 62 111 112
f 61 114 68
f 61 67 114
f 59 62 60
f 58 62 59
f 58 111 62
f 58 110 111
f 57 110 58
f 57 109 110
f 69 115 176
f 95 151 97
f 69 176 116
f 70 117 118
f 80 124 191
f 79 124 80
f 77 79 78
f 77 124 79
f 77 122 124
f 75 118 123
f 75 121 120
f 75 123 121
f 74 121 122
f 74 120 121
f 74 75 120
f 71 73 72
f 70 119 117
f 70 116 119
f 70 73 71
f 70 75 73
f 70 118 75
f 69 116 70
f 95 97 96
f 97 151 152
f 97 152 153
f 123 185 186
f 123 179 185
f 122 184 124
f 122 183 184
f 121 183 122
f 121 182 183
f 121 181 182
f 121 123 181
f 119 176 180
f 118 179 123
f 118 178 179
f 118 177 178
f 117 177 118
f 117 180 177
f 117 119 180
f 116 176 119
f 114 176 115
f 123 186 187
f 114 175 176
f 123 187 181
f 124 189 190
f 128 131 130
f 128 200 131
f 128 199 200
f 128 129 199
f 126 193 194
f 126 129 127
f 126 198 129
f 126 199 198
f 126 197 199
f 126 196 197
f 126 195 196
f 126 194 195
f 125 192 193
f 125 191 192
f 124 274 188
f 124 184 274
f 124 190 191
f 124 188 189
f 57 108 109
f 114 174 175
f 112 174 114
f 103 161 104
f 103 157 161
f 102 224 158
f 102 147 224
f 102 160 148
f 102 159 160
f 102 158 159
f 101 157 103
f 100 157 101
f 99 157 100
f 99 240 157
f 99 156 240
f 97 99 98
f 97 156 99
f 97 155 156
f 97 154 155
f 97 153 154
f 104 161 162
f 112 114 113
f 104 162 105
f 105 163 106
f 112 173 174
f 112 172 173
f 112 171 172
f 111 169 170
f 111 171 112
f 111 170 171
f 110 169 111
f 109 168 169
f 109 169 110
f 108 168 109
f 108 164 168
f 107 167 164
f 107 166 167
f 107 165 166
f 107 163 165
f 107 164 108
f 106 163 107
f 105 162 163
f 57 107 108
f 57 106 107
f 57 105 106
f 19 38 20
f 19 37 38
f 17 19 18
f 17 37 19
f 17 36 37
f 16 36 17
f 16 35 36
f 16 34 35
f 16 31 34
f 15 33 31
f 15 32 33
f 14 32 15
f 14 30 32
f 13 15 31
f 12 53 28
f 12 102 53
f 12 147 102
f 20 38 39
f 12 93 147
f 20 39 21
f 22 40 76
f 26 48 49
f 26 50 27
f 26 49 50
f 25 48 26
f 25 47 48
f 25 46 47
f 24 46 25
f 24 45 46
f 24 44 45
f 23 44 24
f 23 43 44
f 23 42 43
f 23 41 42
f 22 74 40
f 22 39 74
f 22 41 23
f 22 76 41
f 21 39 22
f 27 50 51
f 12 52 93
f 12 30 14
f 4 13 5
f 3 15 13
f 3 14 15
f 3 12 14
f 3 13 4
f 2 27 12
f 2 11 27
f 1 11 2
f 1 10 11
f 1 9 10
f 1 8 9
f 1 7 8
f 1 6 7
f 1 5 6
f 1 4 5
f 1 3 4
f 1 12 3
f 5 13 31
f 12 27 52
f 5 31 16
f 5 17 18
f 12 29 30
f 12 28 29
f 10 27 11
f 10 26 27
f 10 25 26
f 9 25 10
f 9 24 25
f 7 9 8
f 7 24 9
f 7 23 24
f 7 22 23
f 7 21 22
f 7 20 21
f 6 20 7
f 6 19 20
f 6 18 19
f 5 18 6
f 5 16 17
f 129 198 199
f 27 51 52
f 28 54 55
f 51 88 52
f 51 87 88
f 50 86 51
f 50 128 86
f 50 84 128
f 49 128 84
f 49 85 128
f 49 83 85
f 49 84 50
f 47 49 48
f 47 83 49
f 47 82 83
f 46 82 47
f 46 81 82
f 43 45 44
f 43 46 45
f 43 81 46
f 51 86 87
f 43 80 81
f 52 88 89
f 52 90 91
f 54 56 55
f 54 57 56
f 54 105 57
f 54 104 105
f 54 103 104
f 54 101 103
f 53 102 94
f 53 101 54
f 53 100 101
f 53 99 100
f 53 98 99
f 53 97 98
f 53 96 97
f 53 95 96
f 53 94 95
f 52 92 93
f 52 91 92
f 52 89 90
f 28 53 54
f 42 80 43
f 42 78 79
f 32 65 113
f 32 64 65
f 32 63 64
f 32 62 63
f 32 60 62
f 31 68 34
f 31 61 68
f 31 32 61
f 31 33 32
f 29 32 30
f 29 60 32
f 28 60 29
f 28 59 60
f 28 58 59
f 28 57 58
f 28 56 57
f 28 55 56
f 32 113 66
f 42 79 80
f 32 66 67
f 34 68 69
f 41 78 42
f 41 77 78
f 41 122 77
f 41 76 122
f 40 122 76
f 40 74 122
f 39 75 74
f 39 73 75
f 38 73 39
f 38 72 73
f 36 38 37
f 35 69 70
f 35 38 36
f 35 72 38
f 35 71 72
f 35 70 71
f 34 69 35
f 32 67 61
f 131 200 136
f 132 138 201
f 132 201 202
f 230 326 327
f 230 325 326
f 228 230 229
f 228 325 230
f 228 324 325
f 228 323 324
f 228 322 323
f 228 321 322
f 228 320 321
f 228 249 320
f 228 250 249
f 225 228 226
f 225 250 228
f 223 243 224
f 223 319 243
f 222 311 314
f 221 319 223
f 230 327 231
f 221 318 319
f 231 327 233
f 234 328 426
f 239 344 252
f 239 441 344
f 239 470 441
f 239 562 470
f 239 530 562
f 239 428 530
f 239 333 428
f 238 333 239
f 238 332 333
f 236 332 237
f 236 331 332
f 235 331 236
f 234 327 328
f 234 331 235
f 234 330 331
f 234 329 330
f 234 426 329
f 233 327 234
f 239 252 334
f 221 316 318
f 220 317 221
f 210 303 211
f 209 300 303
f 207 302 294
f 206 302 207
f 206 301 302
f 206 290 301
f 205 300 208
f 205 299 300
f 205 298 299
f 205 297 298
f 203 205 204
f 203 297 205
f 202 297 203
f 202 296 297
f 202 293 296
f 201 295 291
f 201 294 295
f 211 303 304
f 221 317 316
f 211 304 212
f 212 305 306
f 219 317 220
f 219 316 317
f 219 315 316
f 219 313 315
f 218 314 312
f 218 222 314
f 218 313 219
f 218 312 313
f 217 311 222
f 214 311 217
f 214 310 311
f 214 309 310
f 214 308 309
f 214 307 308
f 214 306 307
f 213 306 214
f 212 306 213
f 212 304 305
f 201 207 294
f 239 334 240
f 241 334 343
f 272 282 376
f 272 277 282
f 272 362 273
f 272 361 362
f 272 360 361
f 272 359 360
f 270 272 271
f 270 277 272
f 267 358 356
f 267 353 358
f 267 269 355
f 267 275 268
f 267 357 276
f 267 356 357
f 266 269 267
f 264 267 355
f 264 353 267
f 272 376 482
f 264 355 269
f 272 482 555
f 272 455 359
f 281 371 372
f 281 370 371
f 281 369 370
f 281 466 369
f 281 368 466
f 280 368 281
f 280 367 368
f 279 367 280
f 279 366 367
f 278 366 279
f 276 366 278
f 276 365 366
f 276 357 365
f 273 284 283
f 273 364 284
f 273 363 364
f 273 362 363
f 272 555 455
f 240 334 241
f 263 354 353
f 263 353 264
f 248 320 249
f 247 320 248
f 247 342 320
f 247 341 342
f 247 340 341
f 246 340 247
f 245 340 246
f 245 336 340
f 244 339 335
f 244 338 339
f 244 337 338
f 244 319 337
f 243 319 244
f 242 244 335
f 242 336 245
f 242 335 336
f 241 343 251
f 251 343 252
f 263 352 354
f 252 343 334
f 252 345 255
f 260 263 261
f 260 352 263
f 258 349 350
f 258 260 259
f 258 352 260
f 258 351 352
f 258 350 351
f 257 349 258
f 255 348 256
f 255 345 348
f 254 348 347
f 254 256 348
f 253 444 346
f 253 347 444
f 253 254 347
f 253 349 257
f 253 346 349
f 252 344 345
f 658 671 670
f 201 293 202
f 201 291 292
f 154 234 235
f 154 233 234
f 154 231 233
f 154 232 231
f 153 228 229
f 153 232 154
f 153 231 232
f 153 230 231
f 153 229 230
f 151 228 153
f 151 153 152
f 150 228 151
f 150 226 228
f 149 227 150
f 148 160 225
f 148 227 149
f 148 150 227
f 154 235 236
f 148 226 150
f 154 236 155
f 156 236 237
f 160 249 250
f 160 248 249
f 160 247 248
f 160 246 247
f 160 245 246
f 160 242 245
f 159 244 242
f 159 243 244
f 159 242 160
f 158 243 159
f 158 224 243
f 157 241 161
f 157 240 241
f 156 239 240
f 156 238 239
f 156 332 238
f 156 237 332
f 155 236 156
f 160 250 225
f 148 225 226
f 147 221 223
f 141 300 209
f 141 208 300
f 140 208 141
f 140 205 208
f 139 205 140
f 138 207 201
f 137 207 138
f 137 206 207
f 136 200 206
f 136 206 137
f 134 139 135
f 134 205 139
f 134 204 205
f 134 203 204
f 134 202 203
f 133 202 134
f 132 202 133
f 141 209 303
f 147 223 224
f 141 303 210
f 142 210 211
f 145 222 218
f 145 217 222
f 145 147 146
f 145 221 147
f 145 220 221
f 145 219 220
f 145 218 219
f 144 217 145
f 144 214 217
f 144 215 214
f 144 216 215
f 142 216 144
f 142 215 216
f 142 214 215
f 142 213 214
f 142 212 213
f 142 211 212
f 141 210 142
f 201 292 293
f 161 241 251
f 161 163 162
f 188 273 189
f 187 277 270
f 186 282 277
f 186 281 282
f 186 280 281
f 186 279 280
f 186 278 279
f 186 276 278
f 186 277 187
f 185 276 186
f 185 267 276
f 185 275 267
f 185 268 275
f 183 274 184
f 183 273 274
f 182 273 183
f 182 272 273
f 188 274 273
f 182 271 272
f 189 273 283
f 189 195 194
f 199 206 200
f 197 206 199
f 197 290 206
f 197 289 290
f 197 286 289
f 197 288 286
f 196 288 197
f 196 287 288
f 195 287 196
f 195 286 287
f 195 285 286
f 195 284 285
f 195 283 284
f 190 192 191
f 190 193 192
f 190 194 193
f 189 194 190
f 189 283 195
f 161 251 163
f 181 271 182
f 181 187 270
f 169 261 262
f 169 260 261
f 169 259 260
f 168 259 169
f 168 258 259
f 168 257 258
f 167 256 254
f 166 252 255
f 166 256 167
f 166 255 256
f 164 254 253
f 164 167 254
f 164 257 168
f 164 253 257
f 163 252 166
f 163 251 252
f 163 166 165
f 169 262 170
f 181 270 271
f 170 172 171
f 170 261 172
f 180 269 266
f 180 265 269
f 179 268 185
f 178 268 179
f 177 268 178
f 177 267 268
f 177 266 267
f 177 180 266
f 175 180 176
f 174 180 175
f 174 265 180
f 173 265 174
f 173 269 265
f 173 264 269
f 172 264 173
f 172 263 264
f 172 261 263
f 170 262 261
f 662 664 663

