# https://github.com/mikedh/trimesh
v 0.05621810 -0.24331400 -0.47856600
v -0.01033400 -0.24331400 -0.47856600
v 0.07689910 -0.24331400 -0.48893000
v 0.08951370 0.06661390 -0.67365600
v 0.06656510 0.06661390 -0.66562300
v -0.02208850 -0.24331400 -0.50151300
v 0.00001303 0.06661390 -0.66562300
v -0.02217970 0.06661390 -0.67671700
v 0.08836690 -0.24331400 -0.51072600
v 0.09984770 0.06661390 -0.69893400
v -0.03326950 -0.23296900 -0.56583200
v -0.03326950 -0.24331400 -0.56583200
v -0.03326950 0.06661390 -0.69893400
v 0.08950070 -0.24331400 -0.51412400
v 0.09984770 0.06661390 -0.73221700
v 0.09524760 -0.24331400 -0.53712700
v 0.09984770 -0.23296900 -0.56583200
v -0.03326950 -0.24331400 -0.59911400
v -0.03326950 0.06661390 -0.73221700
v 0.08874480 0.06655320 -0.75437700
v 0.08875790 0.06661390 -0.75434900
v 0.09984770 -0.09981760 -0.73221700
v 0.09152050 -0.11647300 -0.74884400
v 0.09984770 -0.24331400 -0.56583200
v -0.03326950 -0.23296900 -0.63236900
v -0.03121060 -0.24331400 -0.63029000
v -0.03323040 0.06661390 -0.73230100
v -0.03326950 -0.09981760 -0.73221700
v 0.06656510 0.06661390 -0.76547100
v 0.08874480 -0.09981760 -0.75437700
v 0.09984770 -0.16640800 -0.69893400
v 0.07765500 -0.12202500 -0.75437700
v 0.06656510 -0.09981760 -0.76547100
v 0.09152050 -0.18303300 -0.71556100
v 0.07765500 -0.18858500 -0.72112200
v 0.09984770 -0.24331400 -0.59911400
v -0.03326950 -0.16640800 -0.69893400
v -0.01184570 -0.24331400 -0.67598700
v -0.02773110 -0.19413700 -0.69337300
v -0.02773110 -0.22741700 -0.66009000
v -0.02217970 0.06661390 -0.75437700
v -0.02217970 -0.08874450 -0.75437700
v -0.01664130 -0.11647300 -0.74884400
v -0.02773110 -0.12757600 -0.72665500
v 0.00001303 0.06661390 -0.76547100
v 0.09984770 -0.23296900 -0.63236900
v 0.09467420 -0.24331400 -0.64270400
v 0.06656510 -0.16640800 -0.73221700
v 0.05546230 -0.14420100 -0.74331100
v 0.00001303 -0.09981760 -0.76547100
v 0.09152050 -0.21631400 -0.68227900
v 0.07765500 -0.22186500 -0.68784000
v 0.05621810 -0.24331400 -0.67711100
v 0.05546230 -0.21076200 -0.71002800
v 0.09596430 -0.24331400 -0.63236900
v -0.01108980 -0.14420100 -0.74331100
v -0.01108980 -0.21076200 -0.71002800
v -0.01123320 -0.24331400 -0.67688600
v -0.00009122 0.06661390 -0.76544300
v 0.08994370 -0.24331400 -0.65528700
v 0.00001303 -0.16640800 -0.73221700
v 0.08284150 -0.24331400 -0.66048300
v -0.01033400 -0.24331400 -0.67711100
f 33 48 49
f 28 42 43
f 28 43 44
f 28 44 37
f 29 33 50
f 32 35 48
f 31 46 47
f 31 47 34
f 32 48 33
f 27 42 28
f 29 50 45
f 27 41 42
f 20 33 29
f 26 39 40
f 26 37 39
f 25 37 26
f 23 35 32
f 23 34 35
f 23 31 34
f 23 33 30
f 23 32 33
f 22 31 23
f 20 30 33
f 20 23 30
f 20 29 21
f 33 49 56
f 26 40 38
f 33 56 50
f 47 60 51
f 34 51 52
f 53 57 54
f 53 63 57
f 52 62 53
f 52 60 62
f 51 60 52
f 48 56 49
f 48 61 56
f 19 27 28
f 46 55 47
f 45 50 59
f 43 50 56
f 42 59 50
f 42 50 43
f 34 47 51
f 41 59 42
f 38 39 57
f 38 40 39
f 37 43 56
f 37 44 43
f 37 57 39
f 37 56 57
f 36 55 46
f 35 61 48
f 35 57 61
f 35 54 57
f 35 53 54
f 35 52 53
f 34 52 35
f 38 57 58
f 18 25 26
f 4 9 10
f 15 23 20
f 4 10 15
f 3 9 4
f 2 8 6
f 2 7 8
f 1 7 2
f 1 5 7
f 1 4 5
f 1 3 4
f 1 9 3
f 1 14 9
f 1 16 14
f 1 24 16
f 1 36 24
f 1 55 36
f 1 47 55
f 1 60 47
f 1 62 60
f 1 53 62
f 1 63 53
f 1 58 63
f 1 38 58
f 1 26 38
f 1 18 26
f 1 12 18
f 1 6 12
f 1 2 6
f 56 61 57
f 4 15 21
f 16 24 17
f 4 21 29
f 4 45 59
f 15 22 23
f 15 20 21
f 11 18 12
f 11 25 18
f 11 37 25
f 11 28 37
f 11 19 28
f 11 13 19
f 10 22 15
f 10 31 22
f 10 46 31
f 10 36 46
f 10 24 36
f 10 17 24
f 10 16 17
f 10 14 16
f 9 14 10
f 6 13 11
f 6 8 13
f 6 11 12
f 4 7 5
f 4 8 7
f 4 13 8
f 4 19 13
f 4 27 19
f 4 41 27
f 4 59 41
f 4 29 45
f 57 63 58

