# https://github.com/mikedh/trimesh
v -0.49457300 -0.42147800 0.47528700
v -0.32883600 -0.42147800 0.47528700
v -0.45112600 -0.42147800 0.56218600
v -0.49457300 0.60833300 0.47528700
v 0.00074555 -0.42147800 0.65439700
v -0.34478900 0.59904900 0.47528700
v -0.44375600 -0.42147800 0.57690100
v -0.44375600 0.59904900 0.57690100
v -0.45486000 0.59904900 0.55471500
v -0.45762400 0.61565700 0.54917500
v -0.49088800 0.61565700 0.48261600
v -0.48967500 0.61813300 0.47528700
v 0.00074555 -0.42147800 0.76549900
v 0.00074555 0.59863700 0.66524900
v -0.34862000 0.61607000 0.47528700
v -0.37718000 -0.42147800 0.64346000
v -0.37718000 0.59904900 0.64346000
v -0.43682200 0.62401300 0.56582200
v -0.47008600 0.62401300 0.49926300
v -0.48308100 0.62195000 0.47528700
v -0.13313300 -0.42147800 0.76549900
v 0.00074555 0.59904900 0.76549900
v -0.04992580 0.61565700 0.64067600
v 0.00074555 0.59956500 0.66564600
v -0.35259600 0.62401300 0.47528700
v -0.27734100 -0.42147800 0.71001900
v -0.27734100 0.59904900 0.71001900
v -0.35778400 0.61565700 0.64900000
v -0.37024600 0.62401300 0.63235300
v -0.39938800 0.63236900 0.56582200
v -0.43265200 0.63236900 0.53252900
v -0.46707900 0.62999600 0.47528700
v -0.23302100 -0.42147800 0.73220500
v -0.13313300 0.59904900 0.76549900
v 0.00074555 0.59987400 0.76510100
v 0.00074555 0.62122800 0.67647000
v -0.39003000 0.63236900 0.47528700
v 0.00074555 0.63236900 0.69891200
v -0.03329390 0.62401300 0.66147100
v -0.23302100 0.59904900 0.73220500
v -0.24407700 0.62122800 0.72109800
v -0.25789600 0.61565700 0.71555900
v -0.34391700 0.62122800 0.65453900
v -0.27040700 0.62401300 0.69891200
v -0.23302100 0.63236900 0.69891200
v -0.33281200 0.63236900 0.63235300
v -0.45660600 0.63236900 0.47528700
v -0.14423800 0.62122800 0.75439200
v 0.00074555 0.62122800 0.75439200
v 0.00074555 0.63236900 0.73220500
v -0.13313300 0.63236900 0.73220500
f 27 41 42
f 23 25 36
f 27 40 41
f 26 40 27
f 26 33 40
f 25 39 36
f 25 38 39
f 25 37 38
f 23 36 24
f 22 35 34
f 18 46 30
f 21 34 40
f 19 32 20
f 19 31 32
f 18 31 19
f 18 30 31
f 18 29 46
f 17 29 18
f 17 28 29
f 17 27 28
f 27 42 28
f 21 40 33
f 28 42 41
f 31 47 32
f 28 43 29
f 48 49 50
f 45 48 51
f 41 45 44
f 41 48 45
f 40 48 41
f 48 50 51
f 35 49 48
f 34 48 40
f 34 35 48
f 16 27 17
f 30 47 31
f 30 37 47
f 30 38 37
f 30 50 38
f 30 51 50
f 30 45 51
f 30 46 45
f 29 41 44
f 29 43 41
f 29 45 46
f 29 44 45
f 28 41 43
f 16 26 27
f 36 39 38
f 14 23 24
f 3 8 9
f 3 7 8
f 2 6 5
f 1 6 2
f 1 15 6
f 1 25 15
f 1 37 25
f 1 47 37
f 1 32 47
f 1 20 32
f 1 12 20
f 1 4 12
f 1 3 4
f 1 7 3
f 1 26 16
f 1 33 26
f 1 21 33
f 1 13 21
f 1 5 13
f 1 2 5
f 15 25 23
f 3 9 4
f 4 9 10
f 1 16 7
f 4 11 12
f 4 10 11
f 14 15 23
f 13 34 21
f 13 22 34
f 12 19 20
f 10 19 11
f 10 18 19
f 8 10 9
f 8 18 10
f 8 17 18
f 7 17 8
f 11 19 12
f 6 15 14
f 7 16 17
f 5 14 24
f 5 24 36
f 5 6 14
f 5 38 50
f 5 36 38
f 5 50 49
f 5 49 35
f 5 35 22
f 5 22 13

