# https://github.com/mikedh/trimesh
v -0.03379580 -0.39937200 -0.29958100
v 0.10551900 -0.39937200 -0.29958100
v -0.03379580 -0.39937200 -0.19972300
v -0.03379580 -0.33333400 -0.33182900
v -0.03327760 -0.26627400 -0.59905700
v -0.03327760 -0.29954400 -0.56578800
v -0.03327760 -0.33281500 -0.49919900
v -0.02217710 -0.35501100 -0.48811000
v 0.00001021 -0.36610100 -0.49919900
v 0.10551900 -0.33281500 -0.32151700
v 0.10551900 -0.39937200 -0.18026700
v 0.06655860 -0.36610100 -0.49919900
v 0.07765910 -0.35501100 -0.52137900
v 0.09151430 -0.34946600 -0.51583400
v 0.09984650 -0.33281500 -0.49919900
v 0.09984650 -0.29954400 -0.56578800
v 0.09984650 -0.26627400 -0.59905700
v -0.03379580 -0.24331400 -0.19972300
v -0.03379580 -0.29852100 -0.33182900
v -0.03327760 -0.24331400 -0.59905700
v -0.03120480 -0.24331400 -0.63028400
v -0.02772740 -0.26072800 -0.62678200
v -0.02772740 -0.29399900 -0.59351200
v -0.01664050 -0.31619500 -0.58242300
v -0.02772740 -0.32727000 -0.52697300
v -0.01664050 -0.34946600 -0.51583400
v -0.01109030 -0.34390500 -0.54360800
v -0.01109030 -0.31065000 -0.61014700
v 0.10551900 -0.28254200 -0.32151700
v 0.10551900 -0.24331400 -0.18026700
v 0.05545810 -0.31065000 -0.61014700
v 0.07765910 -0.32172500 -0.58796700
v 0.09151430 -0.31619500 -0.58242300
v 0.09467800 -0.24331400 -0.64268800
v 0.09984650 -0.24331400 -0.59905700
v 0.09595990 -0.24331400 -0.63232700
v -0.03379580 -0.24331400 -0.31013600
v -0.03379580 -0.26905400 -0.32273300
v -0.01184030 -0.24331400 -0.67595700
v -0.01109030 -0.24407800 -0.67673600
v 0.10551900 -0.26627400 -0.31801500
v 0.10551900 -0.24331400 -0.31076800
v 0.05545810 -0.24407800 -0.67673600
v 0.07765910 -0.25516800 -0.65455600
v 0.09151430 -0.24962300 -0.64896200
v 0.08994600 -0.24331400 -0.65528500
v -0.01124030 -0.24331400 -0.67688100
v -0.01032660 -0.24331400 -0.67707600
v 0.05622180 -0.24331400 -0.67707600
v 0.08284120 -0.24331400 -0.66044100
f 18 49 48
f 18 48 47
f 18 47 39
f 18 39 21
f 20 38 37
f 18 20 37
f 19 38 20
f 18 50 49
f 18 21 20
f 18 46 50
f 14 16 15
f 18 36 34
f 18 35 36
f 18 42 35
f 18 30 42
f 17 36 35
f 17 34 36
f 16 34 17
f 16 33 34
f 21 39 22
f 18 34 46
f 22 39 40
f 44 50 46
f 23 40 28
f 44 46 45
f 14 33 16
f 44 49 50
f 43 49 44
f 40 49 43
f 40 48 49
f 40 47 48
f 39 47 40
f 35 42 41
f 34 45 46
f 33 45 34
f 33 44 45
f 32 44 33
f 31 44 32
f 31 43 44
f 29 35 41
f 28 43 31
f 28 40 43
f 24 28 27
f 24 26 25
f 24 27 26
f 22 40 23
f 13 32 33
f 13 33 14
f 12 31 13
f 2 13 14
f 2 12 13
f 2 30 11
f 2 42 30
f 2 41 42
f 2 29 41
f 2 10 29
f 1 12 2
f 1 9 12
f 1 8 9
f 1 7 8
f 1 6 7
f 1 5 6
f 1 4 5
f 1 19 4
f 1 38 19
f 1 37 38
f 1 18 37
f 1 3 18
f 1 11 3
f 13 31 32
f 2 14 15
f 2 15 16
f 1 2 11
f 2 17 10
f 10 35 29
f 10 17 35
f 9 31 12
f 9 28 31
f 9 27 28
f 9 26 27
f 2 16 17
f 8 25 26
f 7 25 8
f 6 25 7
f 8 26 9
f 6 28 24
f 6 24 25
f 3 30 18
f 4 19 20
f 4 20 5
f 3 11 30
f 5 21 22
f 5 22 23
f 5 23 6
f 6 23 28
f 5 20 21

