# https://github.com/mikedh/trimesh
v -0.03379580 -0.39939500 -0.29951000
v -0.03379580 -0.59907000 -0.29951000
v -0.03379580 -0.63236900 -0.26622800
v -0.03379580 -0.62126200 -0.28844400
v 0.17753600 -0.62127400 -0.28843500
v 0.16641800 -0.59908500 -0.29954300
v 0.16641800 -0.42090700 -0.29954300
v 0.34389000 -0.42090700 -0.21076500
v 0.10551900 -0.39939500 -0.29951000
v 0.44374400 -0.42090700 -0.11092300
v 0.53252100 -0.42090700 0.06654670
v 0.45762000 -0.61572700 -0.08319580
v 0.44374400 -0.59908500 -0.11092300
v 0.43680500 -0.62404800 -0.09981470
v 0.50338800 -0.62404800 0.03326580
v 0.49089100 -0.61572700 -0.01667710
v 0.53252100 -0.59908500 0.06654670
v 0.53252100 -0.42090700 0.14029800
v 0.10551900 -0.39939500 -0.18020400
v -0.03379580 -0.39939500 -0.19966500
v 0.41227000 -0.42090700 0.14029800
v -0.03379580 -0.43269300 0.14029800
v -0.03379580 -0.63236900 0.14029800
v 0.49920900 -0.63234800 0.14029800
v 0.49920900 -0.63234800 0.06654670
v 0.52140300 -0.62127400 0.14029800
v 0.52140300 -0.62127400 0.06654670
v 0.52416200 -0.61572700 0.04988470
v 0.43266700 -0.63234800 -0.06657690
v 0.37026400 -0.62404800 -0.16637700
v 0.34389000 -0.59908500 -0.21076500
v 0.33695100 -0.62404800 -0.19965700
v 0.32449600 -0.61572700 -0.21631900
v 0.31066100 -0.62127400 -0.22187300
v 0.29958400 -0.63234800 -0.19965700
v 0.16641800 -0.63234800 -0.26621900
v 0.53252100 -0.59908500 0.14029800
f 34 5 6
f 34 31 33
f 34 33 32
f 32 33 31
f 32 31 30
f 34 6 31
f 30 31 13
f 15 25 29
f 14 29 30
f 14 15 29
f 27 25 15
f 27 15 28
f 34 35 5
f 27 28 17
f 14 30 13
f 34 32 35
f 16 17 28
f 30 29 35
f 27 17 26
f 24 18 22
f 17 18 37
f 37 18 24
f 26 37 24
f 26 17 37
f 15 16 28
f 10 13 8
f 13 31 8
f 8 31 6
f 36 3 5
f 36 5 35
f 36 35 3
f 25 3 29
f 29 3 35
f 32 30 35
f 27 26 25
f 21 22 18
f 25 24 3
f 12 14 13
f 12 13 10
f 12 10 11
f 11 10 9
f 9 10 8
f 9 8 7
f 12 15 14
f 7 8 6
f 2 1 6
f 4 2 6
f 4 6 5
f 4 5 3
f 25 26 24
f 2 3 1
f 7 6 1
f 12 16 15
f 4 3 2
f 12 11 17
f 12 17 16
f 23 24 22
f 23 22 3
f 1 3 22
f 20 1 22
f 21 20 22
f 19 21 18
f 23 3 24
f 19 1 20
f 9 7 1
f 9 1 19
f 9 19 18
f 11 9 18
f 19 20 21
f 11 18 17

