# https://github.com/mikedh/trimesh
v -0.46594900 0.63226600 0.14029800
v -0.49923500 0.63226600 0.14029800
v -0.43407800 0.63093000 0.14029800
v -0.43266300 0.63226600 0.13312700
v -0.49923500 0.63226600 0.09982440
v -0.51586200 0.62404700 0.08317310
v -0.52142600 0.62127300 0.14029800
v -0.41410700 0.61757400 0.14029800
v -0.20397100 0.62651300 -0.17220100
v -0.20397100 0.62805400 -0.17830100
v -0.20397100 0.63226600 -0.19969200
v -0.46594900 0.63226600 -0.00000067
v -0.48257600 0.62404700 -0.01665190
v -0.48814000 0.61017700 -0.02221610
v -0.52142600 0.61017700 0.07765020
v -0.52142600 0.62127300 0.09982440
v -0.53248900 0.59908100 0.14029800
v -0.40654900 0.60617000 0.14029800
v -0.22188500 0.61017700 -0.12200000
v -0.20397100 0.61315600 -0.15221100
v -0.20397100 0.63226600 -0.23295300
v -0.43266300 0.63226600 -0.06660570
v -0.44929000 0.62404700 -0.08317450
v -0.49923500 0.59908100 -0.00000067
v -0.45485400 0.61017700 -0.08873860
v -0.46594900 0.59908100 -0.06660570
v -0.48379800 -0.41713200 -0.03091260
v -0.53248900 0.59908100 0.09982440
v -0.53248900 -0.41713200 0.14029800
v -0.40294700 0.59548500 0.14029800
v -0.20397100 0.59476600 -0.14759500
v -0.23298000 0.63226600 -0.23295300
v -0.20397100 0.62004000 -0.26481300
v -0.29955200 0.63226600 -0.19969200
v -0.34949700 0.62404700 -0.18304100
v -0.49923500 -0.41713200 -0.00000067
v -0.32174200 0.61017700 -0.22186600
v -0.34393300 0.58798500 -0.21077900
v -0.41047300 0.58798500 -0.14421500
v -0.44375900 0.58798500 -0.11091300
v -0.45051200 -0.41713200 -0.09743520
v -0.46594900 -0.41713200 -0.06660570
v -0.53248900 -0.41713200 0.09982440
v -0.39043700 -0.41713200 0.14029800
v -0.21516300 -0.41713200 -0.11528200
v -0.21394100 -0.41713200 -0.11767200
v -0.20397100 -0.41713200 -0.13749700
v -0.24963900 0.62404700 -0.24960500
v -0.20397100 0.59476600 -0.28076400
v -0.31621100 0.62404700 -0.21630200
v -0.25517100 0.61017700 -0.25512800
v -0.23298000 0.59908100 -0.26625600
v -0.21082200 0.58798500 -0.27734300
v -0.33042600 -0.41713200 -0.21753900
v -0.34393300 -0.41713200 -0.21077900
v -0.41047300 -0.41713200 -0.14421500
v -0.44375900 -0.41713200 -0.11091300
v -0.20397100 -0.41713200 -0.28076400
v -0.21082200 -0.41713200 -0.27734300
f 27 44 29
f 27 42 41
f 27 45 44
f 27 46 45
f 27 47 46
f 27 59 58
f 27 54 59
f 27 55 54
f 27 56 55
f 27 57 56
f 27 41 57
f 27 58 47
f 25 38 39
f 26 41 42
f 26 40 41
f 25 35 37
f 25 40 26
f 25 39 40
f 25 37 38
f 24 43 28
f 24 36 43
f 24 27 36
f 23 35 25
f 22 35 23
f 27 29 43
f 26 42 27
f 27 43 36
f 37 53 38
f 31 44 45
f 22 34 35
f 53 59 54
f 49 59 53
f 49 58 59
f 49 52 51
f 48 49 51
f 40 57 41
f 39 57 40
f 39 56 57
f 38 56 39
f 38 55 56
f 38 54 55
f 30 44 31
f 38 53 54
f 37 52 49
f 37 51 52
f 37 48 51
f 37 50 48
f 35 50 37
f 34 50 35
f 34 48 50
f 33 49 48
f 32 48 34
f 32 33 48
f 31 46 47
f 31 45 46
f 37 49 53
f 21 33 32
f 1 34 22
f 19 30 31
f 6 13 14
f 5 13 6
f 5 12 13
f 4 10 11
f 4 9 10
f 3 9 4
f 3 8 9
f 2 6 7
f 2 5 6
f 1 5 2
f 1 12 5
f 1 22 12
f 1 32 34
f 1 21 32
f 1 11 21
f 1 4 11
f 1 3 4
f 1 8 3
f 1 18 8
f 1 30 18
f 1 44 30
f 1 29 44
f 1 17 29
f 1 7 17
f 1 2 7
f 6 14 15
f 6 15 16
f 19 31 20
f 7 16 28
f 6 16 7
f 18 30 19
f 17 43 29
f 17 28 43
f 15 28 16
f 15 24 28
f 14 27 24
f 14 25 26
f 14 24 15
f 13 22 23
f 13 25 14
f 13 23 25
f 12 22 13
f 14 26 27
f 9 11 10
f 7 28 17
f 8 18 19
f 8 19 9
f 9 19 20
f 9 31 47
f 9 20 31
f 9 58 49
f 9 49 33
f 9 33 21
f 9 21 11
f 9 47 58

