# https://github.com/mikedh/trimesh
v -0.53252100 -0.42147800 0.14029800
v -0.38836100 -0.42147800 0.14029800
v -0.53252100 -0.42147800 0.25407100
v -0.53252100 0.59904900 0.14029800
v -0.38836100 -0.42147800 0.14417400
v -0.40298200 0.59543900 0.14029800
v -0.42163900 -0.42147800 0.25407100
v -0.53252100 0.59904900 0.25407100
v -0.52141400 0.62122800 0.14029800
v -0.43267500 0.59904900 0.25407100
v -0.40656700 0.60616700 0.14029800
v -0.52141400 0.62122800 0.25407100
v -0.49923000 0.63236900 0.14029800
v -0.44378100 0.62122800 0.25407100
v -0.41414500 0.61761700 0.14029800
v -0.49923000 0.63236900 0.25407100
v -0.46595200 0.63236900 0.14029800
v -0.43411400 0.63092500 0.14029800
v -0.46595200 0.63236900 0.25407100
f 3 12 8
f 6 11 10
f 4 8 12
f 4 12 9
f 5 6 10
f 5 10 7
f 17 19 18
f 14 18 19
f 10 11 14
f 11 15 14
f 13 16 19
f 13 19 17
f 14 15 18
f 3 16 12
f 9 12 16
f 3 19 16
f 9 16 13
f 3 10 14
f 3 14 19
f 1 2 5
f 1 5 7
f 1 3 8
f 1 8 4
f 1 4 9
f 1 9 13
f 1 7 3
f 1 17 18
f 1 18 15
f 1 15 11
f 1 11 6
f 1 6 2
f 2 6 5
f 1 13 17
f 3 7 10

