# https://github.com/mikedh/trimesh
v 0.31615600 -0.62402900 0.68227000
v 0.24963800 -0.62402900 0.71556100
v 0.29950000 -0.63236900 0.66562400
v 0.23298200 -0.63236900 0.69891500
v 0.13315300 -0.63236900 0.73220700
v 0.14980900 -0.62402900 0.74885300
v -0.13316100 -0.63236900 0.73220700
v -0.13316100 -0.62126300 0.75436100
v 0.13315300 -0.62125600 0.75436100
v 0.13315300 -0.59907200 0.76549900
v 0.15532600 -0.61016400 0.75436100
v 0.25520700 -0.61016400 0.72106900
v 0.32172500 -0.61016400 0.68783900
v 0.23298200 -0.59907200 0.73220700
v 0.23298200 -0.42095600 0.73220700
v 0.34389700 -0.42095600 0.67670000
v 0.34389700 -0.58797900 0.67670000
v 0.41046700 -0.58797900 0.61017800
v 0.42155400 -0.61016400 0.58796300
v 0.41598500 -0.62402900 0.58239400
v 0.48255500 -0.62402900 0.48258000
v 0.48812400 -0.61016400 0.48808800
v 0.47703700 -0.58797900 0.51030300
v 0.47703700 -0.42095600 0.51030300
v 0.49921000 -0.59907200 0.46593400
v 0.53252100 -0.59907200 0.36612000
v 0.53252100 -0.42095600 0.36612000
v 0.49921000 -0.42095600 0.46593400
v 0.41046700 -0.42095600 0.61017800
v 0.00079405 -0.42095600 0.65466900
v 0.00079405 -0.42095600 0.76549900
v 0.13315300 -0.42095600 0.76549900
v -0.13316100 -0.42149800 0.76549900
v -0.23302700 -0.42149800 0.73220700
v -0.27734800 -0.42149800 0.70999200
v -0.37716200 -0.42149800 0.64340900
v -0.37716200 -0.59907100 0.64340900
v -0.27734800 -0.59907100 0.70999200
v -0.23302700 -0.59907100 0.73220700
v -0.24962800 -0.61571000 0.72388400
v -0.34944200 -0.61571000 0.65730100
v -0.36609500 -0.62402900 0.63649300
v -0.44372200 -0.59907100 0.57688600
v -0.43265500 -0.62402900 0.56991000
v -0.43265500 -0.63236900 0.53251800
v -0.45484200 -0.62126300 0.54359400
v -0.44930800 -0.61571000 0.55742500
v -0.53252100 -0.59907100 0.39941200
v -0.44372200 -0.42149800 0.57688600
v -0.53252100 -0.42149800 0.39941200
v -0.53252100 -0.59907100 0.14029800
v -0.52140200 -0.62126300 0.41048800
v -0.49921500 -0.63236900 0.39941200
v -0.23302700 -0.63236900 0.69891500
v -0.33278900 -0.63236900 0.63233200
v -0.26622900 -0.62402900 0.70307700
v -0.23302700 -0.62126300 0.72106900
v -0.14981400 -0.61571000 0.75717600
v -0.13316100 -0.59907100 0.76549900
v 0.49921000 -0.63236900 0.14029800
v 0.46595100 -0.63236900 0.46593400
v 0.39938100 -0.63236900 0.56574800
v 0.51586600 -0.62402900 0.38276600
v 0.52138300 -0.61016400 0.38833500
v 0.52138300 -0.62125600 0.36612000
v 0.52138300 -0.62125600 0.14029800
v 0.53252100 -0.59907200 0.14029800
v 0.53252100 -0.42095600 0.14029800
v -0.53252100 -0.42149800 0.14029800
v -0.49921500 -0.63236900 0.14029800
v -0.52140200 -0.62126300 0.14029800
v 0.49921000 -0.63236900 0.36612000
f 2 3 1
f 62 3 61
f 3 5 61
f 5 54 60
f 7 54 5
f 59 10 33
f 59 33 34
f 39 34 35
f 39 59 34
f 57 58 40
f 39 40 58
f 39 58 59
f 59 58 10
f 9 10 58
f 8 9 58
f 8 58 57
f 8 57 7
f 57 54 7
f 48 49 50
f 48 50 51
f 48 51 52
f 46 48 52
f 46 52 45
f 45 52 53
f 62 1 3
f 45 53 54
f 55 42 45
f 55 54 42
f 56 42 54
f 56 40 42
f 56 57 40
f 56 54 57
f 55 45 54
f 62 20 1
f 62 21 20
f 62 61 21
f 31 30 50
f 51 50 69
f 51 69 70
f 71 51 70
f 71 52 51
f 71 70 52
f 50 30 69
f 53 52 70
f 54 70 60
f 70 69 60
f 72 60 63
f 72 61 60
f 72 63 61
f 12 14 10
f 53 70 54
f 49 31 50
f 30 27 68
f 68 60 69
f 63 21 61
f 63 22 21
f 64 22 63
f 64 26 22
f 64 63 26
f 65 26 63
f 30 68 69
f 65 66 26
f 66 63 60
f 66 60 67
f 66 67 26
f 26 67 27
f 67 68 27
f 67 60 68
f 65 63 66
f 36 31 49
f 5 60 61
f 43 37 49
f 13 19 18
f 13 1 19
f 13 2 1
f 19 1 20
f 19 20 21
f 19 21 22
f 13 18 17
f 19 22 18
f 23 24 18
f 23 25 24
f 23 22 25
f 25 22 26
f 25 26 27
f 28 25 27
f 23 18 22
f 28 24 25
f 13 17 16
f 13 15 14
f 4 3 2
f 4 5 3
f 4 2 5
f 37 36 49
f 6 7 5
f 6 8 7
f 13 16 15
f 6 9 8
f 11 10 6
f 11 12 10
f 11 6 12
f 6 2 12
f 13 12 2
f 13 14 12
f 6 10 9
f 28 27 24
f 6 5 2
f 29 24 16
f 38 40 39
f 38 37 40
f 41 40 37
f 41 42 40
f 41 37 42
f 43 42 37
f 38 39 35
f 44 42 43
f 44 46 45
f 47 46 44
f 47 48 46
f 47 43 48
f 43 49 48
f 24 27 16
f 44 45 42
f 38 35 37
f 47 44 43
f 36 35 31
f 37 35 36
f 29 16 18
f 17 18 16
f 16 27 30
f 31 16 30
f 32 16 31
f 29 18 24
f 15 32 14
f 32 10 14
f 32 31 10
f 31 33 10
f 31 34 33
f 31 35 34
f 15 16 32

