# https://github.com/mikedh/trimesh
v -0.20395500 -0.41713200 -0.13751500
v -0.20395500 -0.41713200 -0.28075600
v -0.12419700 -0.41713200 -0.15750200
v -0.20395500 0.59476600 -0.14765100
v -0.19727500 -0.41713200 -0.28410300
v -0.20395500 0.59476600 -0.28075600
v -0.03379580 -0.41713200 -0.19078300
v -0.03379580 0.59908100 -0.19970200
v -0.13312600 0.59908100 -0.16642200
v -0.18859600 0.61017700 -0.15533400
v -0.20395500 0.61315600 -0.15225300
v -0.16640800 -0.41713200 -0.29952600
v -0.18859600 0.61017700 -0.28843900
v -0.16640800 0.59908100 -0.29952600
v -0.20395500 0.62004000 -0.26481900
v -0.03379580 -0.41713200 -0.29952600
v -0.03379580 0.62127300 -0.21079000
v -0.14422000 0.62127300 -0.17750900
v -0.20395500 0.62651300 -0.17222200
v -0.03379580 -0.33329500 -0.33179900
v -0.18304900 0.62404700 -0.28288600
v -0.16640800 0.62127300 -0.28843900
v -0.03379580 0.59908100 -0.29952600
v -0.03379580 0.36555000 -0.33179900
v -0.20395500 0.63226600 -0.23298300
v -0.03379580 0.63185500 -0.23195600
v -0.13312600 0.63226600 -0.19970200
v -0.20395500 0.62805400 -0.17832700
v -0.16640800 0.63226600 -0.26624500
v -0.03379580 0.63216300 -0.26658800
v -0.03379580 0.62127300 -0.28843900
v -0.20395500 0.63226600 -0.19970200
v -0.03379580 0.63226600 -0.23298300
v -0.03379580 0.63226600 -0.26624500
f 8 17 9
f 14 31 23
f 14 22 31
f 13 22 14
f 13 21 22
f 13 15 21
f 11 18 19
f 12 14 24
f 12 20 16
f 11 17 18
f 10 17 11
f 9 17 10
f 14 23 24
f 12 24 20
f 15 25 21
f 21 31 22
f 17 27 18
f 18 27 19
f 19 27 28
f 21 25 29
f 21 29 30
f 21 30 31
f 25 32 27
f 25 27 33
f 25 33 34
f 25 34 29
f 26 33 27
f 27 32 28
f 29 34 30
f 7 17 8
f 17 26 27
f 7 26 17
f 1 2 5
f 7 34 33
f 7 33 26
f 1 5 12
f 1 16 7
f 1 7 3
f 1 3 4
f 1 4 11
f 1 11 19
f 1 19 28
f 1 28 32
f 1 32 25
f 1 25 15
f 1 15 6
f 1 6 2
f 2 6 5
f 1 12 16
f 3 8 9
f 3 7 8
f 7 23 31
f 7 24 23
f 7 20 24
f 7 16 20
f 6 15 13
f 7 31 30
f 5 13 14
f 3 9 4
f 5 14 12
f 7 30 34
f 4 10 11
f 5 6 13
f 4 9 10

