# https://github.com/mikedh/trimesh
v 0.30459300 -0.42090700 -0.06818090
v 0.10803300 -0.42090700 -0.16642700
v 0.30459300 -0.42090700 -0.23045200
v 0.30459300 0.59906700 -0.08070340
v 0.28843900 0.59906700 -0.08876240
v 0.10553900 -0.42090700 -0.16769100
v 0.11095600 0.59906700 -0.17751100
v 0.10553900 0.59906700 -0.18023900
v 0.17426800 -0.42090700 -0.29561900
v 0.30459300 0.60411900 -0.23045200
v 0.30459300 0.61288300 -0.08415010
v 0.12204400 0.62123400 -0.17751100
v 0.10553900 -0.42090700 -0.29953700
v 0.10817000 0.61566600 -0.18306500
v 0.10553900 0.61339800 -0.18383400
v 0.16641500 -0.42090700 -0.29953700
v 0.16641500 0.59906700 -0.29953700
v 0.18305600 0.61566600 -0.29120500
v 0.24960200 0.61566600 -0.25792800
v 0.30459300 0.61958400 -0.22271600
v 0.30459300 0.62401800 -0.09064690
v 0.13313200 0.63236900 -0.19967900
v 0.10553900 0.62298700 -0.19142200
v 0.10553900 -0.33275600 -0.32145700
v 0.10553900 0.61741900 -0.18658700
v 0.10553900 0.36606000 -0.32145700
v 0.10553900 0.59906700 -0.29953700
v 0.16641500 0.62123400 -0.28842800
v 0.19969700 0.62401800 -0.27040000
v 0.26624400 0.62401800 -0.23712300
v 0.30459300 0.62164600 -0.21914500
v 0.30459300 0.62608000 -0.09987140
v 0.10553900 0.63236900 -0.22730300
v 0.10553900 0.62618300 -0.19967900
v 0.30459300 0.63236900 -0.12809000
v 0.10553900 0.62123400 -0.28842800
v 0.16641500 0.63236900 -0.26625900
v 0.29952600 0.63236900 -0.19967900
v 0.30459300 0.63102800 -0.20032400
v 0.10553900 0.63236900 -0.26625900
v 0.30459300 0.63236900 -0.19467000
f 17 28 18
f 14 25 15
f 17 36 28
f 17 27 36
f 17 26 27
f 16 26 17
f 16 24 26
f 18 28 29
f 12 22 23
f 13 24 16
f 12 23 14
f 12 21 22
f 11 21 12
f 10 19 20
f 18 29 30
f 10 18 19
f 14 23 25
f 18 30 19
f 22 40 33
f 20 30 31
f 38 41 39
f 10 17 18
f 30 39 31
f 30 38 39
f 30 37 38
f 29 37 30
f 28 40 37
f 28 36 40
f 28 37 29
f 22 37 40
f 22 38 37
f 22 41 38
f 22 35 41
f 22 32 35
f 22 34 23
f 22 33 34
f 21 32 22
f 19 30 20
f 9 17 10
f 7 14 8
f 8 14 15
f 1 4 5
f 1 11 4
f 1 21 11
f 1 32 21
f 1 35 32
f 1 41 35
f 1 39 41
f 1 5 2
f 1 31 39
f 1 3 10
f 1 9 3
f 1 16 9
f 1 13 16
f 1 6 13
f 1 2 6
f 9 16 17
f 1 10 20
f 2 5 7
f 1 20 31
f 2 8 6
f 7 12 14
f 2 7 8
f 6 24 13
f 6 26 24
f 6 27 26
f 6 40 36
f 6 33 40
f 6 34 33
f 6 36 27
f 6 23 34
f 6 25 23
f 6 15 25
f 6 8 15
f 5 12 7
f 5 11 12
f 4 11 5
f 3 9 10

