# https://github.com/mikedh/trimesh
v -0.16643400 -0.59907500 -0.29954300
v -0.18864700 -0.58797700 -0.28843500
v -0.16643400 -0.41723500 -0.29954300
v -0.03379580 -0.59907500 -0.29954300
v -0.15535300 -0.62127100 -0.28843500
v -0.21081000 -0.61017300 -0.27732700
v -0.27739800 -0.61017300 -0.24404600
v -0.18864700 -0.41723500 -0.28843500
v -0.03379580 -0.41723500 -0.29954300
v -0.03379580 -0.62127100 -0.28843500
v -0.16643400 -0.63234800 -0.26621900
v -0.19416300 -0.62680900 -0.26070800
v -0.26075100 -0.62680900 -0.22742700
v -0.03379580 -0.63209500 -0.26673600
v -0.34388800 -0.61017300 -0.21076500
v -0.32172500 -0.58797700 -0.22187300
v -0.27739800 -0.41723500 -0.24404600
v -0.03379580 -0.41723500 -0.19074500
v -0.23302200 -0.63234800 -0.23293800
v -0.03379580 -0.63234800 -0.26621900
v -0.32724100 -0.62680900 -0.19414600
v -0.34388800 -0.41723500 -0.21076500
v -0.33041400 -0.41723500 -0.21752500
v -0.41047600 -0.61017300 -0.14420400
v -0.32172500 -0.41723500 -0.22187300
v -0.03379580 -0.43269200 0.14029800
v -0.39046100 -0.41723500 0.14029800
v -0.29951300 -0.63234800 -0.19965700
v -0.03379580 -0.63234800 0.14029800
v -0.36053500 -0.62680900 -0.16086600
v -0.41047600 -0.41723500 -0.14420400
v -0.42712300 -0.62680900 -0.09426070
v -0.44372100 -0.61017300 -0.11092300
v -0.53252100 -0.41723500 0.14029800
v -0.36610000 -0.63234800 -0.13309600
v -0.49922700 -0.63234800 0.14029800
v -0.43263900 -0.63234800 -0.06657690
v -0.44372100 -0.41723500 -0.11092300
v -0.45485200 -0.62127100 -0.05551200
v -0.47701500 -0.61017300 -0.04440400
v -0.45485200 -0.58797700 -0.08874980
v -0.53252100 -0.41723500 0.09982750
v -0.53252100 -0.59907500 0.14029800
v -0.52139100 -0.62127100 0.14029800
v -0.49922700 -0.63234800 0.09982750
v -0.46593300 -0.63234800 -0.00001511
v -0.45485200 -0.41723500 -0.08874980
v -0.48258000 -0.61571100 -0.01667710
v -0.49922700 -0.59907500 -0.00001511
v -0.49029300 -0.41723500 -0.01788260
v -0.53252100 -0.59907500 0.09982750
v -0.49922700 -0.41723500 -0.00001511
v -0.52534500 -0.61341600 0.14029800
v -0.52139100 -0.62127100 0.11093600
v -0.48809700 -0.62127100 0.01109290
v -0.51587400 -0.61571100 0.08316560
f 30 37 32
f 30 35 37
f 32 39 33
f 26 44 36
f 32 37 39
f 26 53 44
f 26 43 53
f 26 34 43
f 26 27 34
f 24 30 32
f 26 36 29
f 16 23 25
f 24 33 38
f 24 32 33
f 21 35 30
f 21 28 35
f 18 27 26
f 15 31 22
f 15 24 31
f 15 30 24
f 33 39 40
f 15 21 30
f 15 23 16
f 24 38 31
f 33 40 41
f 42 49 51
f 33 47 38
f 51 56 54
f 15 22 23
f 51 54 53
f 49 52 50
f 48 51 49
f 48 56 51
f 48 54 56
f 48 55 54
f 46 55 48
f 45 55 46
f 45 54 55
f 44 53 54
f 43 51 53
f 42 52 49
f 41 50 47
f 41 49 50
f 40 49 41
f 40 48 49
f 39 48 40
f 39 46 48
f 37 46 39
f 36 54 45
f 36 44 54
f 34 51 43
f 34 42 51
f 33 41 47
f 13 28 21
f 11 29 36
f 11 28 19
f 3 34 27
f 3 42 34
f 3 52 42
f 3 50 52
f 3 47 50
f 3 38 47
f 3 31 38
f 3 22 31
f 3 23 22
f 3 25 23
f 3 17 25
f 3 8 17
f 2 17 8
f 2 7 17
f 1 7 2
f 1 6 7
f 1 5 6
f 1 10 5
f 1 4 10
f 1 9 4
f 1 3 9
f 13 19 28
f 1 2 8
f 3 27 18
f 3 18 9
f 1 8 3
f 4 18 26
f 4 9 18
f 11 37 35
f 11 46 37
f 11 45 46
f 11 36 45
f 11 20 29
f 11 14 20
f 11 13 12
f 11 19 13
f 7 21 15
f 7 13 21
f 7 25 17
f 11 35 28
f 7 15 16
f 5 14 11
f 5 10 14
f 5 7 6
f 5 13 7
f 5 12 13
f 5 11 12
f 4 14 10
f 4 20 14
f 4 29 20
f 4 26 29
f 7 16 25

