# https://github.com/mikedh/trimesh
v 0.06656510 0.34612200 -0.57251300
v 0.00001303 0.34612200 -0.57251300
v 0.07033120 0.34516400 -0.57251300
v 0.08874480 0.32171700 -0.61018500
v 0.06656510 0.31063600 -0.64347300
v -0.01664130 0.32448000 -0.61573900
v -0.02439510 0.33391900 -0.57251300
v 0.00001303 0.31063600 -0.64347300
v 0.09135110 0.33211300 -0.57251300
v 0.09984770 0.29952800 -0.59909500
v 0.09152050 0.29952800 -0.63654000
v 0.08320640 0.31616300 -0.62405200
v 0.09152050 0.26625800 -0.66980900
v 0.06656510 0.27733900 -0.67674300
v -0.02495540 0.30368700 -0.63238300
v -0.02662340 0.32943200 -0.57251300
v 0.00001303 0.27733900 -0.67674300
v -0.02495540 0.27041700 -0.66565300
v 0.09223730 0.32992500 -0.57251300
v 0.09984770 0.29952800 -0.57251300
v 0.09984770 0.26625800 -0.63238300
v 0.08320640 0.24959600 -0.69061000
v 0.09984770 0.23296100 -0.66565300
v 0.09984770 0.13315300 -0.73221100
v 0.09152050 0.16642200 -0.73636700
v 0.08320640 0.14978800 -0.75716800
v 0.06656510 0.17753000 -0.74330100
v -0.03326950 0.26625800 -0.63238300
v -0.03326950 0.29952800 -0.59909500
v -0.03326950 0.29952800 -0.57251300
v -0.01664130 0.25791400 -0.68227800
v 0.00001303 0.17753000 -0.74330100
v -0.01664130 0.15810500 -0.74885500
v -0.02217970 0.24407000 -0.68783200
v -0.02495540 0.17058100 -0.73221100
v -0.03326950 0.13315300 -0.73221100
v -0.03326950 0.23296100 -0.66565300
v 0.09984770 0.25955500 -0.57251300
v 0.09984770 0.06661390 -0.73221100
v 0.08875790 0.06661390 -0.75437100
v 0.08874480 0.13315300 -0.75439000
v 0.08874480 0.09985600 -0.75439000
v 0.06656510 0.06661390 -0.76548000
v 0.06656510 0.13315300 -0.76548000
v 0.00001303 0.13315300 -0.76548000
v -0.03326950 0.25955500 -0.57251300
v -0.02217970 0.14423400 -0.75439000
v -0.03323040 0.06661390 -0.73230500
v -0.03326950 0.06661390 -0.73221100
v 0.09152050 0.22210000 -0.57251300
v 0.09984770 0.06661390 -0.69892200
v 0.00001303 0.06661390 -0.76548000
v -0.00009122 0.06661390 -0.76544200
v -0.02495540 0.22210000 -0.57251300
v -0.03326950 0.06661390 -0.69892200
v -0.02217970 0.06661390 -0.75439000
v 0.08817140 0.22043100 -0.57251300
v 0.06656510 0.06661390 -0.66563400
v 0.08951370 0.06661390 -0.67366300
v -0.01523390 0.21679200 -0.57251300
v -0.02217970 0.06661390 -0.67670500
v 0.00001303 0.06661390 -0.66563400
v 0.06656510 0.21298900 -0.57251300
v 0.06656510 0.18861100 -0.58800500
v 0.00001303 0.21298900 -0.57251300
v 0.00001303 0.18861100 -0.58800500
f 28 46 30
f 28 30 29
f 31 33 34
f 32 45 33
f 33 45 47
f 36 47 48
f 35 47 36
f 36 48 49
f 38 50 51
f 28 55 46
f 39 59 58
f 33 47 34
f 39 51 59
f 26 42 43
f 28 36 49
f 28 37 36
f 26 45 32
f 26 44 45
f 26 43 44
f 26 41 42
f 26 32 27
f 24 41 25
f 24 40 41
f 24 39 40
f 18 37 28
f 18 36 37
f 39 58 62
f 18 35 36
f 28 49 55
f 39 62 61
f 47 56 48
f 39 55 49
f 18 47 35
f 63 66 64
f 63 65 66
f 60 66 65
f 60 62 66
f 58 66 62
f 58 64 66
f 57 64 58
f 57 63 64
f 54 62 60
f 54 61 62
f 54 55 61
f 50 59 51
f 50 58 59
f 50 57 58
f 47 53 56
f 46 55 54
f 45 53 47
f 45 52 53
f 43 45 44
f 43 52 45
f 40 42 41
f 40 43 42
f 39 43 40
f 39 52 43
f 39 53 52
f 39 56 53
f 39 48 56
f 39 49 48
f 39 61 55
f 18 34 47
f 25 41 26
f 17 33 31
f 5 13 14
f 5 11 13
f 5 12 11
f 4 12 5
f 4 11 12
f 4 10 11
f 4 9 10
f 3 9 4
f 2 8 6
f 2 6 7
f 1 8 2
f 1 5 8
f 1 4 5
f 1 3 4
f 1 9 3
f 1 19 9
f 1 20 19
f 1 38 20
f 1 50 38
f 1 57 50
f 1 63 57
f 1 65 63
f 1 60 65
f 1 46 54
f 1 30 46
f 1 16 30
f 1 7 16
f 1 2 7
f 18 31 34
f 5 14 17
f 5 17 8
f 1 54 60
f 6 15 7
f 6 8 15
f 17 32 33
f 17 31 18
f 16 29 30
f 15 29 16
f 15 18 28
f 14 32 17
f 14 27 32
f 14 26 27
f 14 22 26
f 13 26 22
f 13 25 26
f 13 24 25
f 13 23 24
f 15 28 29
f 13 22 14
f 13 21 23
f 8 17 18
f 8 18 15
f 9 19 10
f 10 20 38
f 10 38 51
f 10 19 20
f 10 51 39
f 11 21 13
f 10 21 11
f 10 23 21
f 10 24 23
f 7 15 16
f 10 39 24

