# https://github.com/mikedh/trimesh
v 0.10551900 0.59902500 -0.18021800
v 0.10551900 0.61342500 -0.18381600
v -0.03379580 0.59902500 -0.19969700
v 0.10551900 -0.24331400 -0.18021800
v 0.10551900 0.61745400 -0.18659200
v -0.03379580 0.62122600 -0.21080300
v -0.03379580 -0.24331400 -0.19969700
v 0.10551900 -0.24331400 -0.31075000
v 0.10551900 0.62294000 -0.19142800
v -0.03379580 0.63185400 -0.23195300
v -0.03379580 -0.24331400 -0.31010900
v 0.09725540 -0.24331400 -0.31976600
v 0.09990100 0.29953000 -0.33270700
v 0.10551900 0.29953000 -0.32146800
v 0.10551900 0.62619700 -0.19969700
v -0.03379580 0.63236900 -0.23298300
v -0.03121840 -0.24331400 -0.31403400
v -0.03379580 0.29901600 -0.33179700
v -0.03333220 0.29944500 -0.33270700
v 0.06655860 -0.24331400 -0.32134800
v 0.08892320 0.27750100 -0.33270700
v 0.09990100 0.36604700 -0.33270700
v 0.10551900 0.36604700 -0.32146800
v 0.10551900 0.63236900 -0.22731100
v -0.03379580 0.63236900 -0.26625500
v -0.01744510 -0.24331400 -0.31779600
v -0.03379580 0.36553200 -0.33179700
v -0.03333220 0.36604700 -0.33270700
v -0.02217710 0.27733000 -0.33270700
v 0.00001021 -0.24331400 -0.32134800
v 0.06669500 0.26618700 -0.33270700
v 0.08877320 0.27724400 -0.33270700
v 0.08882780 0.27733000 -0.33270700
v 0.09264610 0.39219000 -0.33270700
v 0.10551900 0.59902500 -0.29954100
v 0.10551900 0.63236900 -0.26625500
v -0.03379580 0.63219700 -0.26659800
v -0.03379580 0.59902500 -0.29954100
v -0.03327760 0.36621800 -0.33270700
v -0.00005798 0.26618700 -0.33270700
v 0.06674950 0.39939100 -0.33270700
v -0.03379580 0.62088300 -0.28861400
v 0.10551900 0.62122600 -0.28843500
v -0.03379580 0.62122600 -0.28843500
v 0.00001021 0.39939100 -0.33270700
v -0.02206800 0.38833300 -0.33270700
v -0.02223170 0.38824700 -0.33270700
f 13 23 14
f 13 20 21
f 15 24 16
f 16 36 25
f 18 27 28
f 17 19 26
f 13 22 23
f 16 24 36
f 13 34 22
f 13 19 28
f 42 44 43
f 13 45 41
f 13 46 45
f 13 47 46
f 13 39 47
f 13 28 39
f 13 29 19
f 13 40 29
f 18 28 19
f 13 41 34
f 19 29 30
f 37 43 44
f 20 31 32
f 13 31 40
f 38 47 39
f 38 46 47
f 38 45 46
f 36 43 37
f 35 45 38
f 35 41 45
f 35 42 43
f 35 38 42
f 19 30 26
f 34 41 35
f 28 38 39
f 27 38 28
f 25 36 37
f 22 35 23
f 22 34 35
f 20 40 31
f 20 30 40
f 20 33 21
f 20 32 33
f 29 40 30
f 13 32 31
f 5 9 6
f 13 21 33
f 3 16 25
f 3 10 16
f 3 6 10
f 2 6 3
f 2 5 6
f 1 5 2
f 1 9 5
f 1 15 9
f 1 36 24
f 1 43 36
f 1 35 43
f 1 23 35
f 1 14 23
f 1 8 14
f 1 4 8
f 1 7 4
f 1 3 7
f 1 2 3
f 13 33 32
f 3 25 37
f 3 37 44
f 1 24 15
f 3 42 38
f 3 44 42
f 12 20 13
f 11 19 17
f 11 18 19
f 9 16 10
f 9 15 16
f 8 12 13
f 6 9 10
f 4 12 8
f 4 20 12
f 8 13 14
f 3 38 27
f 4 26 30
f 4 17 26
f 4 11 17
f 4 7 11
f 3 11 7
f 3 18 11
f 3 27 18
f 4 30 20

