# https://github.com/mikedh/trimesh
v -0.74055900 -0.21157800 -0.37504600
v -0.73821900 -0.21634200 -0.37504600
v -0.74041500 -0.21188800 -0.21144300
v -0.74055900 -0.21157800 -0.21144300
v -0.74055900 0.28211200 -0.37504600
v -0.73468500 -0.22333200 -0.37504600
v -0.73468500 -0.22333200 -0.21144300
v -0.74055900 0.28211200 -0.21144300
v -0.74051100 0.28221500 -0.21144300
v -0.73630900 0.29070700 -0.37504600
v -0.72771400 -0.22685300 -0.37504600
v -0.72293900 -0.22923500 -0.21144300
v -0.73468500 0.29386600 -0.21144300
v -0.73468500 0.29386600 -0.37504600
v -0.72293900 -0.22923500 -0.37504600
v -0.61717100 -0.22923500 -0.21144300
v -0.73459000 0.29391800 -0.21144300
v -0.72613800 0.29816400 -0.37504600
v -0.61717100 -0.22923500 -0.37504600
v -0.25278500 -0.19392000 -0.21150700
v -0.26438900 -0.19392000 -0.21144300
v -0.72293900 0.29976900 -0.21144300
v -0.72293900 0.29976900 -0.37504600
v -0.25278500 -0.19392000 -0.37504600
v -0.25278500 -0.02676780 -0.21144300
v -0.25278500 0.29976900 -0.21144300
v -0.25278500 0.29976900 -0.37504600
f 12 15 19
f 11 15 12
f 10 13 14
f 9 13 10
f 5 9 10
f 6 11 7
f 12 19 16
f 3 8 4
f 7 11 12
f 13 17 14
f 20 24 27
f 16 19 24
f 16 24 20
f 16 20 21
f 17 22 18
f 18 22 23
f 20 25 21
f 3 9 8
f 20 27 26
f 20 26 25
f 22 26 27
f 22 27 23
f 14 17 18
f 3 13 9
f 5 8 9
f 3 22 17
f 3 17 13
f 1 2 3
f 1 3 4
f 1 4 8
f 1 8 5
f 1 10 14
f 1 14 18
f 1 18 23
f 1 23 27
f 1 27 24
f 1 24 19
f 1 5 10
f 1 15 11
f 1 19 15
f 3 25 26
f 3 21 25
f 3 16 21
f 3 12 16
f 3 26 22
f 3 7 12
f 2 7 3
f 2 6 7
f 1 6 2
f 1 11 6

