# https://github.com/mikedh/trimesh
v -0.74060600 -0.21157800 -0.21144300
v -0.74060600 0.28211200 -0.21144300
v -0.73466200 -0.22333200 -0.21144300
v -0.74060600 -0.21157800 0.15864500
v -0.74060600 0.28211200 0.15864500
v -0.73466200 0.29386600 -0.21144300
v -0.73466200 -0.22333200 0.16456800
v -0.72291800 -0.22923500 -0.21144300
v -0.69942900 -0.22333200 0.27036500
v -0.70522900 -0.21157800 0.26444200
v -0.73611200 0.29091400 0.16746200
v -0.73466200 0.29386600 0.15864500
v -0.70522900 0.28211200 0.26444200
v -0.70087900 0.29091400 0.27325900
v -0.72291800 0.29976900 -0.21144300
v -0.72291800 -0.22923500 0.15864500
v 0.72291800 -0.22923500 -0.21144300
v -0.68768500 -0.22923500 0.26444200
v -0.68768500 -0.22478200 0.28429600
v -0.64650800 -0.22333200 0.34089600
v -0.64360800 -0.22038100 0.34823200
v -0.69638500 -0.22038100 0.27770100
v -0.69348500 -0.21157800 0.28799800
v -0.69942900 -0.21157800 0.27622000
v -0.69942900 0.29386600 0.26444200
v -0.72291800 0.29976900 0.15864500
v -0.69942900 0.28211200 0.27622000
v -0.69348500 0.28211200 0.28799800
v -0.64795800 0.29091400 0.34379000
v -0.68986000 0.29531600 0.28207500
v 0.72291800 0.29976900 -0.21144300
v 0.73466200 -0.22333200 -0.21144300
v 0.72291800 -0.22923500 0.17627800
v -0.63476400 -0.22923500 0.33497400
v -0.63476400 -0.22478200 0.35482800
v -0.64056400 -0.21157800 0.35852900
v -0.68768500 0.29976900 0.26444200
v -0.64056400 0.28211200 0.35852900
v -0.63693900 0.29531600 0.35260700
v 0.72291800 0.29976900 0.17627800
v 0.73466200 0.29386600 -0.21144300
v 0.74060600 -0.21157800 -0.21144300
v 0.73466200 -0.22333200 0.17627800
v 0.73176200 -0.22478200 0.18509400
v 0.68768500 -0.22923500 0.26444200
v -0.59953200 -0.22923500 0.37024000
v -0.62302000 -0.21157800 0.37616200
v -0.61707500 -0.22478200 0.37246000
v -0.63476400 0.29976900 0.33497400
v -0.62302000 0.28211200 0.37616200
v -0.61925000 0.29531600 0.37024000
v -0.59953200 0.29976900 0.37024000
v 0.68768500 0.29976900 0.26444200
v 0.73466200 0.29386600 0.17042300
v 0.74060600 0.28211200 -0.21144300
v 0.74060600 -0.21157800 0.17627800
v 0.69942900 -0.21742900 0.27622000
v 0.69638500 -0.22478200 0.27325900
v 0.73466200 -0.21742900 0.18805600
v 0.66115200 -0.22478200 0.32615700
v 0.65230800 -0.22923500 0.31734100
v -0.54661000 -0.22923500 0.40550500
v -0.60823100 -0.22038100 0.38349800
v -0.55545500 -0.22038100 0.41876400
v -0.57009900 -0.21157800 0.41142800
v -0.56415400 -0.22478200 0.40772600
v -0.61272600 0.29091400 0.37905600
v -0.57009900 0.28211200 0.41142800
v -0.60533100 0.29386600 0.38201700
v -0.56647400 0.29531600 0.40550500
v -0.54661000 0.29976900 0.40550500
v 0.65230800 0.29976900 0.31734100
v 0.64940800 0.29681800 0.33208000
v 0.68464000 0.29681800 0.27918100
v 0.69348500 0.28796300 0.28799800
v 0.69942900 0.29386600 0.25858700
v 0.74060600 0.28211200 0.17627800
v 0.73176200 0.29091400 0.18509400
v 0.70522900 -0.21157800 0.26444200
v 0.69942900 0.27620800 0.27622000
v 0.69348500 -0.20567400 0.28799800
v 0.65825200 -0.20567400 0.34089600
v 0.66405200 -0.21742900 0.32911900
v 0.64360800 -0.22478200 0.34379000
v 0.63476400 -0.22923500 0.33497400
v -0.47600000 -0.22923500 0.44077100
v -0.49368900 -0.22478200 0.44299200
v -0.48484500 -0.22038100 0.45402900
v -0.53486600 -0.21157800 0.42906100
v -0.53486600 0.28211200 0.42906100
v -0.55980400 0.29091400 0.41432200
v -0.55241000 0.29386600 0.41728300
v -0.48194500 0.29386600 0.45254900
v -0.47600000 0.29976900 0.44077100
v 0.63476400 0.29976900 0.33497400
v 0.65825200 0.28796300 0.34089600
v 0.63186400 0.29681800 0.34971300
v 0.70522900 0.28211200 0.26444200
v 0.72871700 0.28796300 0.19983300
v 0.62302000 -0.20567400 0.37616200
v 0.64650800 -0.21742900 0.34675100
v 0.61127600 -0.21742900 0.38201700
v 0.60823100 -0.22478200 0.37905600
v 0.59953200 -0.22923500 0.37024000
v -0.47600000 -0.22333200 0.45254900
v -0.40553600 -0.22923500 0.45840400
v -0.47600000 -0.21157800 0.45840400
v -0.47600000 0.28211200 0.45840400
v -0.52312200 0.28211200 0.43491600
v -0.41438000 -0.22038100 0.47166200
v -0.40553600 -0.21157800 0.47610400
v -0.40553600 0.28211200 0.47610400
v -0.41133500 0.29386600 0.47018200
v -0.40553600 0.29976900 0.45840400
v 0.59953200 0.29976900 0.37024000
v 0.62302000 0.28796300 0.37616200
v 0.61417500 0.29681800 0.36734600
v 0.57009900 -0.20567400 0.41142800
v 0.55835500 -0.21742900 0.41728300
v 0.55545500 -0.22478200 0.41432200
v 0.54661000 -0.22923500 0.40550500
v -0.40553600 -0.22333200 0.47018200
v 0.40553600 -0.22923500 0.45840400
v 0.40553600 -0.21157800 0.47610400
v 0.40553600 0.28211200 0.47610400
v 0.39959100 0.29386600 0.47018200
v 0.40553600 0.29976900 0.45840400
v 0.54661000 0.29976900 0.40550500
v 0.57009900 0.28796300 0.41142800
v 0.56125400 0.29681800 0.40261100
v 0.53486600 -0.20567400 0.42906100
v 0.52312200 -0.21742900 0.43491600
v 0.48484500 -0.22478200 0.44958700
v 0.47600000 -0.22923500 0.44077100
v 0.40553600 -0.22333200 0.47018200
v 0.41438000 -0.22478200 0.46722000
v 0.47600000 -0.22333200 0.45254900
v 0.48774500 -0.21742900 0.45254900
v 0.47600000 -0.21157800 0.45840400
v 0.47600000 0.28211200 0.45840400
v 0.47020100 0.29386600 0.45254900
v 0.47600000 0.29976900 0.44077100
v 0.49078900 0.29681800 0.43787700
v 0.53486600 0.28796300 0.42906100
v 0.52312200 0.27620800 0.43491600
v 0.49948900 0.28796300 0.44669300
f 1 2 6
f 82 96 116
f 82 101 83
f 82 102 101
f 82 100 102
f 77 78 99
f 75 82 81
f 82 116 100
f 75 96 82
f 75 99 78
f 75 77 99
f 75 98 77
f 75 80 98
f 73 97 96
f 73 75 74
f 75 78 76
f 73 96 75
f 84 101 102
f 84 103 104
f 90 109 93
f 88 111 107
f 88 110 111
f 88 122 110
f 88 105 122
f 88 90 89
f 84 102 103
f 88 109 90
f 88 107 108
f 87 105 88
f 86 122 105
f 86 106 122
f 86 105 87
f 84 104 85
f 88 108 109
f 93 109 108
f 72 97 73
f 71 92 93
f 60 83 101
f 57 60 58
f 57 83 60
f 57 82 83
f 57 81 82
f 57 75 81
f 60 101 84
f 57 80 75
f 57 79 98
f 56 57 59
f 56 79 57
f 56 98 79
f 56 77 98
f 54 78 77
f 57 98 80
f 72 95 97
f 60 84 85
f 62 86 87
f 71 93 94
f 70 92 71
f 69 92 70
f 68 90 93
f 68 92 91
f 67 92 69
f 60 85 61
f 67 91 92
f 64 89 90
f 64 88 89
f 64 87 88
f 64 66 87
f 64 68 65
f 62 87 66
f 64 90 68
f 93 108 112
f 93 112 113
f 93 113 114
f 128 142 143
f 127 141 142
f 126 141 127
f 125 141 126
f 125 140 141
f 124 140 125
f 128 143 130
f 124 139 140
f 124 137 138
f 124 135 137
f 123 136 135
f 123 133 136
f 123 134 133
f 120 134 121
f 124 138 139
f 120 133 134
f 129 130 143
f 131 144 145
f 141 143 142
f 141 144 143
f 141 146 144
f 140 146 141
f 140 144 146
f 140 145 144
f 129 143 144
f 133 135 136
f 133 138 137
f 132 138 133
f 132 139 138
f 132 140 139
f 132 145 140
f 131 145 132
f 133 137 135
f 120 132 133
f 119 132 120
f 118 132 119
f 106 123 135
f 104 120 121
f 103 120 104
f 102 120 103
f 102 119 120
f 100 119 102
f 106 135 122
f 100 118 119
f 100 116 129
f 97 117 116
f 97 115 117
f 96 97 116
f 95 115 97
f 93 114 94
f 100 129 118
f 107 111 112
f 107 112 108
f 110 122 111
f 118 131 132
f 118 144 131
f 118 129 144
f 116 130 129
f 116 117 130
f 115 130 117
f 115 128 130
f 113 127 114
f 113 126 127
f 112 126 113
f 112 125 126
f 111 125 112
f 111 124 125
f 111 135 124
f 111 122 135
f 54 76 78
f 53 75 76
f 68 93 92
f 53 73 74
f 9 24 10
f 9 23 24
f 9 22 23
f 9 21 22
f 9 20 21
f 9 35 20
f 10 24 27
f 9 19 35
f 8 18 16
f 8 34 18
f 8 46 34
f 53 74 75
f 8 86 62
f 8 106 86
f 9 18 19
f 8 123 106
f 10 27 13
f 11 25 12
f 15 71 94
f 15 52 71
f 15 49 52
f 15 37 49
f 15 26 37
f 14 30 25
f 11 14 25
f 14 39 30
f 14 38 29
f 14 28 38
f 14 27 28
f 13 27 14
f 12 37 26
f 12 25 37
f 14 29 39
f 8 134 123
f 8 121 134
f 8 104 121
f 2 5 12
f 1 5 2
f 1 4 5
f 1 7 4
f 1 3 7
f 1 8 3
f 2 12 6
f 1 17 8
f 1 42 32
f 1 55 42
f 1 41 55
f 1 31 41
f 1 15 31
f 1 6 15
f 1 32 17
f 3 8 16
f 3 16 7
f 4 7 9
f 8 85 104
f 8 61 85
f 8 45 61
f 8 33 45
f 8 17 33
f 7 18 9
f 7 16 18
f 6 26 15
f 6 12 26
f 5 14 11
f 5 13 14
f 5 11 12
f 4 13 5
f 4 10 13
f 4 9 10
f 15 94 114
f 15 114 127
f 8 62 46
f 15 142 128
f 45 60 61
f 44 59 57
f 44 56 59
f 44 58 45
f 44 57 58
f 43 56 44
f 45 58 60
f 42 77 56
f 41 77 55
f 41 54 77
f 40 76 54
f 40 53 76
f 39 52 49
f 39 51 52
f 42 55 77
f 39 50 51
f 46 62 66
f 47 48 63
f 53 72 73
f 52 70 71
f 51 70 52
f 15 127 142
f 51 67 69
f 50 91 67
f 46 66 48
f 50 68 91
f 48 64 63
f 48 66 64
f 47 68 50
f 47 65 68
f 47 64 65
f 47 63 64
f 50 67 51
f 38 50 39
f 51 69 70
f 36 47 50
f 21 36 23
f 21 35 36
f 21 23 22
f 20 35 21
f 18 35 19
f 18 34 35
f 23 28 27
f 17 43 33
f 15 40 31
f 15 53 40
f 15 72 53
f 15 95 72
f 15 128 115
f 36 50 38
f 17 32 43
f 23 27 24
f 15 115 95
f 23 38 28
f 23 36 38
f 35 46 48
f 35 47 36
f 34 46 35
f 33 43 44
f 33 44 45
f 32 56 43
f 35 48 47
f 31 54 41
f 31 40 54
f 30 49 37
f 30 39 49
f 29 38 39
f 25 30 37
f 32 42 56

