# https://github.com/mikedh/trimesh
v -0.11444800 -0.19395800 -0.37504600
v -0.00589371 -0.25270300 -0.34090000
v 0.00587423 -0.29384200 -0.31151100
v -0.02643940 -0.29090800 -0.30858000
v -0.04113970 -0.28797300 -0.28801600
v -0.11444800 -0.19395800 -0.21144300
v -0.11444800 0.29976900 -0.37504600
v 0.08259730 -0.19395800 -0.37504600
v 0.02204070 -0.29090800 -0.30858000
v 0.01982210 -0.29530900 -0.29975500
v -0.00000974 -0.29976900 -0.29975500
v -0.01762310 -0.29976900 -0.28213800
v -0.02937170 -0.29384200 -0.27626000
v -0.02643940 -0.29090800 -0.26010000
v -0.11444800 0.29976900 -0.21144300
v -0.00000974 -0.28797300 -0.24099300
v -0.00882605 -0.27330200 -0.23365700
v -0.00882605 -0.23803100 -0.21602400
v -0.00000974 -0.22887600 -0.21144300
v 0.08259730 0.29976900 -0.37504600
v 0.08259730 -0.20428700 -0.29248400
v 0.06612220 -0.23803100 -0.29096200
v 0.04848960 -0.27330200 -0.29096200
v 0.04113950 -0.28797300 -0.28213800
v 0.01762290 -0.29976900 -0.28213800
v -0.00000974 -0.29976900 -0.26450400
v -0.01762310 -0.29530900 -0.26231000
v 0.08259730 0.29976900 -0.21144300
v 0.00880657 -0.29530900 -0.25569500
v 0.02643920 -0.28650600 -0.25569500
v 0.04407180 -0.26003900 -0.23806200
v 0.01762290 -0.26667000 -0.23365700
v -0.00000974 -0.26449900 -0.22923700
v -0.00000974 -0.22922800 -0.21160300
v 0.08259730 -0.19395800 -0.21150700
v 0.07067510 -0.19395800 -0.21144300
v 0.08259730 -0.20551900 -0.28213800
v 0.08259730 -0.20469800 -0.27006200
v 0.08259730 -0.20422800 -0.26450400
v 0.08259730 -0.19601200 -0.21716100
v 0.02643920 -0.29530900 -0.27332900
v 0.08259730 0.14290100 -0.21144300
v 0.01762290 -0.23140000 -0.21602400
f 16 29 30
f 16 33 17
f 16 32 33
f 16 31 32
f 16 30 31
f 17 33 34
f 16 26 29
f 11 25 26
f 14 27 16
f 13 27 14
f 12 27 13
f 12 26 27
f 11 26 12
f 10 24 25
f 10 25 11
f 17 34 18
f 16 27 26
f 18 34 19
f 29 41 30
f 19 35 36
f 32 35 43
f 32 34 33
f 32 43 34
f 31 35 32
f 9 24 10
f 25 29 26
f 25 41 29
f 24 41 25
f 19 34 35
f 24 30 41
f 24 35 31
f 24 40 35
f 24 39 40
f 24 38 39
f 24 37 38
f 23 37 24
f 22 37 23
f 21 37 22
f 24 31 30
f 8 37 21
f 6 36 42
f 8 39 38
f 4 12 5
f 4 11 12
f 3 8 9
f 3 11 4
f 3 10 11
f 3 9 10
f 2 8 3
f 1 8 2
f 1 20 8
f 1 7 20
f 1 15 7
f 1 6 15
f 1 5 6
f 1 4 5
f 1 3 4
f 1 2 3
f 34 43 35
f 5 12 13
f 8 38 37
f 5 13 14
f 6 14 16
f 8 40 39
f 8 35 40
f 8 42 35
f 8 28 42
f 8 20 28
f 8 24 9
f 8 23 24
f 8 22 23
f 8 21 22
f 7 28 20
f 7 15 28
f 6 28 15
f 6 42 28
f 6 19 36
f 6 18 19
f 6 17 18
f 6 16 17
f 5 14 6
f 35 42 36

