# https://github.com/mikedh/trimesh
v 0.22993200 0.29976900 -0.21144300
v 0.08261660 0.29976900 -0.21144300
v 0.22993200 -0.19394900 -0.21144300
v 0.22993200 0.29976900 -0.37504600
v 0.08261660 0.29976900 -0.37504600
v 0.08261660 0.14288400 -0.21144300
v 0.08816840 -0.19394900 -0.21144300
v 0.17633300 -0.23509700 -0.25862600
v 0.18514300 -0.24242800 -0.27332900
v 0.20277900 -0.24242800 -0.29096200
v 0.20572100 -0.24098300 -0.29975500
v 0.22993200 -0.19394900 -0.37504600
v 0.08261660 -0.19394900 -0.37504600
v 0.08261660 -0.19394900 -0.21150700
v 0.15869700 -0.23509700 -0.25862600
v 0.17633300 -0.24686900 -0.28213800
v 0.19395400 -0.24686900 -0.29975500
v 0.19616000 -0.24242800 -0.31738900
v 0.20719200 -0.23804000 -0.30858000
v 0.18220200 -0.24098300 -0.32914500
v 0.16456600 -0.24098300 -0.32914500
v 0.15869700 -0.24686900 -0.31738900
v 0.14401700 -0.24392600 -0.31445800
v 0.14107600 -0.24686900 -0.29975500
v 0.12932300 -0.24098300 -0.29387700
v 0.08261660 -0.20427600 -0.29248400
v 0.08261660 -0.19603600 -0.21716100
v 0.14107600 -0.24242800 -0.27994400
v 0.15869700 -0.24686900 -0.28213800
v 0.17633300 -0.24686900 -0.31738900
v 0.13226500 -0.23804000 -0.27773300
v 0.08261660 -0.20427600 -0.26450400
v 0.08261660 -0.20470400 -0.27006200
v 0.08261660 -0.20550700 -0.28213800
f 16 29 24
f 15 28 29
f 14 28 15
f 14 27 28
f 13 25 26
f 13 24 25
f 13 21 22
f 13 22 23
f 12 21 13
f 12 20 21
f 12 18 20
f 12 19 18
f 13 23 24
f 16 24 22
f 25 27 32
f 16 30 17
f 17 30 18
f 18 30 20
f 20 30 22
f 20 22 21
f 22 24 23
f 24 29 28
f 24 28 25
f 25 28 31
f 25 31 27
f 11 19 12
f 25 32 33
f 25 34 26
f 27 31 28
f 16 22 30
f 11 18 19
f 25 33 34
f 10 17 11
f 11 17 18
f 1 2 6
f 1 6 7
f 1 7 3
f 1 3 12
f 1 12 4
f 1 4 5
f 2 5 13
f 2 13 26
f 2 26 34
f 2 34 33
f 2 33 32
f 2 32 27
f 2 27 14
f 2 14 6
f 1 5 2
f 3 15 8
f 9 17 10
f 3 7 15
f 9 16 17
f 8 16 9
f 8 29 16
f 7 14 15
f 6 14 7
f 8 15 29
f 4 13 5
f 4 12 13
f 3 11 12
f 3 10 11
f 3 9 10
f 3 8 9

