# https://github.com/mikedh/trimesh
v 0.22998200 -0.19392000 -0.37504600
v 0.61713700 -0.22923500 -0.37504600
v 0.22998200 -0.19392000 -0.21144300
v 0.22998200 0.29976900 -0.37504600
v 0.72296100 -0.22923500 -0.37504600
v 0.61713700 -0.22923500 -0.21144300
v 0.22998200 0.29976900 -0.21144300
v 0.72296100 0.29976900 -0.37504600
v 0.72296100 -0.22923500 -0.21144300
v 0.73470800 -0.22333200 -0.37504600
v 0.72296100 0.29976900 -0.21144300
v 0.73245800 0.29500500 -0.37504600
v 0.73470800 -0.22333200 -0.21144300
v 0.74060600 -0.21157800 -0.37504600
v 0.73470800 0.29386600 -0.21144300
v 0.73470800 0.29386600 -0.37504600
v 0.74060600 -0.21157800 -0.21144300
v 0.74060600 0.28211200 -0.37504600
v 0.74060600 0.28211200 -0.21144300
f 3 15 11
f 8 11 12
f 3 11 7
f 4 7 11
f 5 10 13
f 5 13 9
f 10 14 17
f 15 18 16
f 11 15 12
f 12 15 16
f 14 18 19
f 14 19 17
f 15 19 18
f 3 19 15
f 10 17 13
f 3 17 19
f 4 11 8
f 3 9 13
f 3 13 17
f 1 2 6
f 1 6 3
f 1 3 7
f 1 4 8
f 1 8 12
f 1 12 16
f 1 16 18
f 1 7 4
f 1 14 10
f 1 10 5
f 1 5 2
f 2 5 9
f 2 9 6
f 3 6 9
f 1 18 14

