# https://github.com/mikedh/trimesh
v 0.79335500 0.29976900 -0.45846900
v 0.77572800 0.29976900 -0.42320900
v 0.80224800 0.29090800 -0.44964700
v 0.80510600 0.29384200 -0.46434400
v 0.80224800 0.29090800 -0.47169300
v 0.79335500 0.29384200 -0.47021900
v -0.79335500 0.29976900 -0.45846900
v 0.78462100 0.29090800 -0.41438700
v 0.72284900 0.29976900 -0.37507200
v 0.79923000 0.28797300 -0.43495000
v 0.81114000 0.28210500 -0.45846900
v 0.80510600 0.28210500 -0.47021900
v 0.80510600 -0.28210500 -0.47021900
v 0.79335500 -0.28210500 -0.47609400
v 0.79335500 0.28210500 -0.47609400
v -0.79335500 0.28210500 -0.47609400
v -0.79335500 0.29384200 -0.47021900
v -0.80224800 0.29530900 -0.46728200
v -0.80510600 0.29384200 -0.45846900
v -0.79557800 0.29530900 -0.44083400
v -0.77572800 0.29976900 -0.42320900
v 0.78747900 0.27623600 -0.41145000
v 0.73460000 0.29384200 -0.37507200
v 0.74047500 0.28210500 -0.37507200
v -0.72284900 0.29976900 -0.37507200
v 0.81114000 -0.28210500 -0.45846900
v 0.80669400 -0.29090800 -0.46728200
v 0.79923000 -0.29384200 -0.47021900
v -0.79335500 -0.28210500 -0.47609400
v -0.80510600 0.28797300 -0.47021900
v -0.81114000 0.28210500 -0.45846900
v -0.80669400 0.29090800 -0.44964700
v -0.78906700 0.29090800 -0.41438700
v -0.78160400 0.29384200 -0.41145000
v 0.78747900 -0.25270300 -0.41145000
v 0.74047500 -0.21156400 -0.37507200
v -0.73460000 0.29384200 -0.37507200
v 0.80510600 -0.28797300 -0.44670900
v 0.80224800 -0.29530900 -0.44964700
v 0.80510600 -0.29384200 -0.45846900
v 0.79335500 -0.29976900 -0.45846900
v -0.78747900 -0.29384200 -0.47021900
v -0.80224800 -0.29090800 -0.46728200
v -0.80510600 -0.27623600 -0.47021900
v -0.81114000 -0.28210500 -0.45846900
v -0.78747900 -0.24683400 -0.41145000
v -0.78747900 0.28210500 -0.41145000
v -0.74047500 0.28210500 -0.37507200
v -0.73618800 0.29067300 -0.37507200
v 0.78462100 -0.26003900 -0.41438700
v 0.73460000 -0.22330100 -0.37507200
v 0.77572800 -0.27036700 -0.41733400
v 0.77572800 -0.28797300 -0.43495000
v -0.79335500 -0.29976900 -0.45846900
v -0.80510600 -0.29384200 -0.45258400
v -0.80224800 -0.29090800 -0.44523600
v -0.80510600 -0.28210500 -0.44670900
v -0.78462100 -0.25563700 -0.40998600
v -0.74047500 -0.21156400 -0.37507200
v 0.72284900 -0.22922800 -0.37507200
v -0.77572800 -0.28797300 -0.43495000
v -0.79335500 -0.29384200 -0.44670900
v -0.77572800 -0.27036700 -0.41733400
v -0.79335500 -0.28210500 -0.43421800
v -0.72284900 -0.22922800 -0.37507200
v -0.73460000 -0.22330100 -0.37507200
f 31 33 32
f 33 45 46
f 33 46 47
f 33 47 48
f 33 48 49
f 35 50 39
f 33 37 34
f 35 39 38
f 35 36 51
f 35 51 50
f 31 45 33
f 39 52 53
f 33 49 37
f 39 50 52
f 27 41 28
f 30 44 45
f 29 43 44
f 29 42 43
f 28 54 42
f 28 41 54
f 27 40 41
f 26 35 38
f 26 40 27
f 26 39 40
f 26 38 39
f 25 34 37
f 22 36 35
f 39 53 41
f 22 24 36
f 30 45 31
f 39 41 40
f 52 60 53
f 41 61 54
f 21 34 25
f 61 65 63
f 58 66 59
f 58 65 66
f 58 63 65
f 58 64 63
f 56 64 58
f 56 63 64
f 56 61 63
f 56 62 61
f 54 56 55
f 54 62 56
f 54 61 62
f 53 65 61
f 53 60 65
f 51 60 52
f 50 51 52
f 46 56 58
f 46 57 56
f 46 48 47
f 46 59 48
f 46 58 59
f 45 57 46
f 45 56 57
f 45 55 56
f 43 45 44
f 43 55 45
f 43 54 55
f 42 54 43
f 41 53 61
f 20 34 21
f 18 30 31
f 20 32 33
f 8 9 23
f 8 22 10
f 7 20 21
f 7 19 20
f 7 18 19
f 7 17 18
f 5 17 6
f 5 16 17
f 5 15 16
f 5 14 15
f 5 13 14
f 5 12 13
f 5 11 12
f 4 11 5
f 3 11 4
f 3 10 11
f 3 8 10
f 2 9 8
f 1 9 2
f 1 25 9
f 1 21 25
f 1 7 21
f 1 17 7
f 1 6 17
f 1 5 6
f 1 4 5
f 1 3 4
f 1 8 3
f 1 2 8
f 8 23 24
f 8 24 22
f 20 33 34
f 9 37 49
f 19 32 20
f 19 31 32
f 18 31 19
f 9 25 37
f 16 18 17
f 16 30 18
f 16 44 30
f 14 16 15
f 14 29 16
f 14 42 29
f 14 28 42
f 14 27 28
f 13 27 14
f 12 27 13
f 16 29 44
f 11 22 35
f 11 35 26
f 9 49 48
f 9 48 59
f 9 59 66
f 9 65 60
f 9 60 51
f 9 66 65
f 9 36 24
f 9 24 23
f 10 22 11
f 11 26 27
f 11 27 12
f 9 51 36

