o convex_0
v -0.740606 -0.211578 -0.211443
v -0.740606 0.282112 -0.211443
v -0.734662 -0.223332 -0.211443
v -0.740606 -0.211578 0.158645
v -0.740606 0.282112 0.158645
v -0.734662 0.293866 -0.211443
v -0.734662 -0.223332 0.164568
v -0.722918 -0.229235 -0.211443
v -0.699429 -0.223332 0.270365
v -0.705229 -0.211578 0.264442
v -0.736112 0.290914 0.167462
v -0.734662 0.293866 0.158645
v -0.705229 0.282112 0.264442
v -0.700879 0.290914 0.273259
v -0.722918 0.299769 -0.211443
v -0.722918 -0.229235 0.158645
v 0.722918 -0.229235 -0.211443
v -0.687685 -0.229235 0.264442
v -0.687685 -0.224782 0.284296
v -0.646508 -0.223332 0.340896
v -0.643608 -0.220381 0.348232
v -0.696385 -0.220381 0.277701
v -0.693485 -0.211578 0.287998
v -0.699429 -0.211578 0.27622
v -0.699429 0.293866 0.264442
v -0.722918 0.299769 0.158645
v -0.699429 0.282112 0.27622
v -0.693485 0.282112 0.287998
v -0.647958 0.290914 0.34379
v -0.68986 0.295316 0.282075
v 0.722918 0.299769 -0.211443
v 0.734662 -0.223332 -0.211443
v 0.722918 -0.229235 0.176278
v -0.634764 -0.229235 0.334974
v -0.634764 -0.224782 0.354828
v -0.640564 -0.211578 0.358529
v -0.687685 0.299769 0.264442
v -0.640564 0.282112 0.358529
v -0.636939 0.295316 0.352607
v 0.722918 0.299769 0.176278
v 0.734662 0.293866 -0.211443
v 0.740606 -0.211578 -0.211443
v 0.734662 -0.223332 0.176278
v 0.731762 -0.224782 0.185094
v 0.687685 -0.229235 0.264442
v -0.599532 -0.229235 0.37024
v -0.62302 -0.211578 0.376162
v -0.617075 -0.224782 0.37246
v -0.634764 0.299769 0.334974
v -0.62302 0.282112 0.376162
v -0.61925 0.295316 0.37024
v -0.599532 0.299769 0.37024
v 0.687685 0.299769 0.264442
v 0.734662 0.293866 0.170423
v 0.740606 0.282112 -0.211443
v 0.740606 -0.211578 0.176278
v 0.699429 -0.217429 0.27622
v 0.696385 -0.224782 0.273259
v 0.734662 -0.217429 0.188056
v 0.661152 -0.224782 0.326157
v 0.652308 -0.229235 0.317341
v -0.54661 -0.229235 0.405505
v -0.608231 -0.220381 0.383498
v -0.555455 -0.220381 0.418764
v -0.570099 -0.211578 0.411428
v -0.564154 -0.224782 0.407726
v -0.612726 0.290914 0.379056
v -0.570099 0.282112 0.411428
v -0.605331 0.293866 0.382017
v -0.566474 0.295316 0.405505
v -0.54661 0.299769 0.405505
v 0.652308 0.299769 0.317341
v 0.649408 0.296818 0.33208
v 0.68464 0.296818 0.279181
v 0.693485 0.287963 0.287998
v 0.699429 0.293866 0.258587
v 0.740606 0.282112 0.176278
v 0.731762 0.290914 0.185094
v 0.705229 -0.211578 0.264442
v 0.699429 0.276208 0.27622
v 0.693485 -0.205674 0.287998
v 0.658252 -0.205674 0.340896
v 0.664052 -0.217429 0.329119
v 0.643608 -0.224782 0.34379
v 0.634764 -0.229235 0.334974
v -0.476 -0.229235 0.440771
v -0.493689 -0.224782 0.442992
v -0.484845 -0.220381 0.454029
v -0.534866 -0.211578 0.429061
v -0.534866 0.282112 0.429061
v -0.559804 0.290914 0.414322
v -0.55241 0.293866 0.417283
v -0.481945 0.293866 0.452549
v -0.476 0.299769 0.440771
v 0.634764 0.299769 0.334974
v 0.658252 0.287963 0.340896
v 0.631864 0.296818 0.349713
v 0.705229 0.282112 0.264442
v 0.728717 0.287963 0.199833
v 0.62302 -0.205674 0.376162
v 0.646508 -0.217429 0.346751
v 0.611276 -0.217429 0.382017
v 0.608231 -0.224782 0.379056
v 0.599532 -0.229235 0.37024
v -0.476 -0.223332 0.452549
v -0.405536 -0.229235 0.458404
v -0.476 -0.211578 0.458404
v -0.476 0.282112 0.458404
v -0.523122 0.282112 0.434916
v -0.41438 -0.220381 0.471662
v -0.405536 -0.211578 0.476104
v -0.405536 0.282112 0.476104
v -0.411335 0.293866 0.470182
v -0.405536 0.299769 0.458404
v 0.599532 0.299769 0.37024
v 0.62302 0.287963 0.376162
v 0.614175 0.296818 0.367346
v 0.570099 -0.205674 0.411428
v 0.558355 -0.217429 0.417283
v 0.555455 -0.224782 0.414322
v 0.54661 -0.229235 0.405505
v -0.405536 -0.223332 0.470182
v 0.405536 -0.229235 0.458404
v 0.405536 -0.211578 0.476104
v 0.405536 0.282112 0.476104
v 0.399591 0.293866 0.470182
v 0.405536 0.299769 0.458404
v 0.54661 0.299769 0.405505
v 0.570099 0.287963 0.411428
v 0.561254 0.296818 0.402611
v 0.534866 -0.205674 0.429061
v 0.523122 -0.217429 0.434916
v 0.484845 -0.224782 0.449587
v 0.476 -0.229235 0.440771
v 0.405536 -0.223332 0.470182
v 0.41438 -0.224782 0.46722
v 0.476 -0.223332 0.452549
v 0.487745 -0.217429 0.452549
v 0.476 -0.211578 0.458404
v 0.476 0.282112 0.458404
v 0.470201 0.293866 0.452549
v 0.476 0.299769 0.440771
v 0.490789 0.296818 0.437877
v 0.534866 0.287963 0.429061
v 0.523122 0.276208 0.434916
v 0.499489 0.287963 0.446693
f 1 2 6
f 1 6 15
f 1 15 31
f 1 31 41
f 1 41 55
f 1 55 42
f 1 42 32
f 1 32 17
f 1 17 8
f 1 8 3
f 1 3 7
f 1 7 4
f 1 4 5
f 1 5 2
f 2 5 12
f 2 12 6
f 3 8 16
f 3 16 7
f 4 7 9
f 4 9 10
f 4 10 13
f 4 13 5
f 5 11 12
f 5 13 14
f 5 14 11
f 6 12 26
f 6 26 15
f 7 16 18
f 7 18 9
f 8 17 33
f 8 33 45
f 8 45 61
f 8 61 85
f 8 85 104
f 8 104 121
f 8 121 134
f 8 134 123
f 8 123 106
f 8 106 86
f 8 86 62
f 8 62 46
f 8 46 34
f 8 34 18
f 8 18 16
f 9 18 19
f 9 19 35
f 9 35 20
f 9 20 21
f 9 21 22
f 9 22 23
f 9 23 24
f 9 24 10
f 10 24 27
f 10 27 13
f 11 14 25
f 11 25 12
f 12 25 37
f 12 37 26
f 13 27 14
f 14 27 28
f 14 28 38
f 14 38 29
f 14 29 39
f 14 39 30
f 14 30 25
f 15 26 37
f 15 37 49
f 15 49 52
f 15 52 71
f 15 71 94
f 15 94 114
f 15 114 127
f 15 127 142
f 15 142 128
f 15 128 115
f 15 115 95
f 15 95 72
f 15 72 53
f 15 53 40
f 15 40 31
f 17 32 43
f 17 43 33
f 18 34 35
f 18 35 19
f 20 35 21
f 21 23 22
f 21 35 36
f 21 36 23
f 23 28 27
f 23 27 24
f 23 36 38
f 23 38 28
f 25 30 37
f 29 38 39
f 30 39 49
f 30 49 37
f 31 40 54
f 31 54 41
f 32 42 56
f 32 56 43
f 33 44 45
f 33 43 44
f 34 46 35
f 35 47 36
f 35 46 48
f 35 48 47
f 36 47 50
f 36 50 38
f 38 50 39
f 39 50 51
f 39 51 52
f 39 52 49
f 40 53 76
f 40 76 54
f 41 54 77
f 41 77 55
f 42 55 77
f 42 77 56
f 43 56 44
f 44 57 58
f 44 58 45
f 44 56 59
f 44 59 57
f 45 60 61
f 45 58 60
f 46 62 66
f 46 66 48
f 47 48 63
f 47 63 64
f 47 64 65
f 47 65 68
f 47 68 50
f 48 66 64
f 48 64 63
f 50 67 51
f 50 68 91
f 50 91 67
f 51 67 69
f 51 69 70
f 51 70 52
f 52 70 71
f 53 72 73
f 53 73 74
f 53 74 75
f 53 75 76
f 54 76 78
f 54 78 77
f 56 77 98
f 56 98 79
f 56 79 57
f 56 57 59
f 57 79 98
f 57 98 80
f 57 80 75
f 57 75 81
f 57 81 82
f 57 82 83
f 57 83 60
f 57 60 58
f 60 83 101
f 60 101 84
f 60 84 85
f 60 85 61
f 62 86 87
f 62 87 66
f 64 68 65
f 64 66 87
f 64 87 88
f 64 88 89
f 64 89 90
f 64 90 68
f 67 91 92
f 67 92 69
f 68 92 91
f 68 90 93
f 68 93 92
f 69 92 70
f 70 92 71
f 71 93 94
f 71 92 93
f 72 95 97
f 72 97 73
f 73 96 75
f 73 75 74
f 73 97 96
f 75 80 98
f 75 98 77
f 75 77 99
f 75 99 78
f 75 78 76
f 75 96 82
f 75 82 81
f 77 78 99
f 82 100 102
f 82 102 101
f 82 101 83
f 82 96 116
f 82 116 100
f 84 101 102
f 84 102 103
f 84 103 104
f 84 104 85
f 86 105 87
f 86 106 122
f 86 122 105
f 87 105 88
f 88 107 108
f 88 108 109
f 88 109 90
f 88 90 89
f 88 105 122
f 88 122 110
f 88 110 111
f 88 111 107
f 90 109 93
f 93 109 108
f 93 108 112
f 93 112 113
f 93 113 114
f 93 114 94
f 95 115 97
f 96 97 116
f 97 115 117
f 97 117 116
f 100 116 129
f 100 129 118
f 100 118 119
f 100 119 102
f 102 119 120
f 102 120 103
f 103 120 104
f 104 120 121
f 106 123 135
f 106 135 122
f 107 111 112
f 107 112 108
f 110 122 111
f 111 122 135
f 111 135 124
f 111 124 125
f 111 125 112
f 112 125 126
f 112 126 113
f 113 126 127
f 113 127 114
f 115 128 130
f 115 130 117
f 116 117 130
f 116 130 129
f 118 129 144
f 118 144 131
f 118 131 132
f 118 132 119
f 119 132 120
f 120 132 133
f 120 133 134
f 120 134 121
f 123 134 133
f 123 133 136
f 123 136 135
f 124 135 137
f 124 137 138
f 124 138 139
f 124 139 140
f 124 140 125
f 125 140 141
f 125 141 126
f 126 141 127
f 127 141 142
f 128 142 143
f 128 143 130
f 129 130 143
f 129 143 144
f 131 144 145
f 131 145 132
f 132 145 140
f 132 140 139
f 132 139 138
f 132 138 133
f 133 138 137
f 133 137 135
f 133 135 136
f 140 145 144
f 140 144 146
f 140 146 141
f 141 146 144
f 141 144 143
f 141 143 142
o convex_1
v 0.793355 0.299769 -0.458469
v 0.775728 0.299769 -0.423209
v 0.802248 0.290908 -0.449647
v 0.805106 0.293842 -0.464344
v 0.802248 0.290908 -0.471693
v 0.793355 0.293842 -0.470219
v -0.793355 0.299769 -0.458469
v 0.784621 0.290908 -0.414387
v 0.722849 0.299769 -0.375072
v 0.79923 0.287973 -0.43495
v 0.81114 0.282105 -0.458469
v 0.805106 0.282105 -0.470219
v 0.805106 -0.282105 -0.470219
v 0.793355 -0.282105 -0.476094
v 0.793355 0.282105 -0.476094
v -0.793355 0.282105 -0.476094
v -0.793355 0.293842 -0.470219
v -0.802248 0.295309 -0.467282
v -0.805106 0.293842 -0.458469
v -0.795578 0.295309 -0.440834
v -0.775728 0.299769 -0.423209
v 0.787479 0.276236 -0.41145
v 0.7346 0.293842 -0.375072
v 0.740475 0.282105 -0.375072
v -0.722849 0.299769 -0.375072
v 0.81114 -0.282105 -0.458469
v 0.806694 -0.290908 -0.467282
v 0.79923 -0.293842 -0.470219
v -0.793355 -0.282105 -0.476094
v -0.805106 0.287973 -0.470219
v -0.81114 0.282105 -0.458469
v -0.806694 0.290908 -0.449647
v -0.789067 0.290908 -0.414387
v -0.781604 0.293842 -0.41145
v 0.787479 -0.252703 -0.41145
v 0.740475 -0.211564 -0.375072
v -0.7346 0.293842 -0.375072
v 0.805106 -0.287973 -0.446709
v 0.802248 -0.295309 -0.449647
v 0.805106 -0.293842 -0.458469
v 0.793355 -0.299769 -0.458469
v -0.787479 -0.293842 -0.470219
v -0.802248 -0.290908 -0.467282
v -0.805106 -0.276236 -0.470219
v -0.81114 -0.282105 -0.458469
v -0.787479 -0.246834 -0.41145
v -0.787479 0.282105 -0.41145
v -0.740475 0.282105 -0.375072
v -0.736188 0.290673 -0.375072
v 0.784621 -0.260039 -0.414387
v 0.7346 -0.223301 -0.375072
v 0.775728 -0.270367 -0.417334
v 0.775728 -0.287973 -0.43495
v -0.793355 -0.299769 -0.458469
v -0.805106 -0.293842 -0.452584
v -0.802248 -0.290908 -0.445236
v -0.805106 -0.282105 -0.446709
v -0.784621 -0.255637 -0.409986
v -0.740475 -0.211564 -0.375072
v 0.722849 -0.229228 -0.375072
v -0.775728 -0.287973 -0.43495
v -0.793355 -0.293842 -0.446709
v -0.775728 -0.270367 -0.417334
v -0.793355 -0.282105 -0.434218
v -0.722849 -0.229228 -0.375072
v -0.7346 -0.223301 -0.375072
f 147 148 154
f 147 154 149
f 147 149 150
f 147 150 151
f 147 151 152
f 147 152 163
f 147 163 153
f 147 153 167
f 147 167 171
f 147 171 155
f 147 155 148
f 148 155 154
f 149 154 156
f 149 156 157
f 149 157 150
f 150 157 151
f 151 157 158
f 151 158 159
f 151 159 160
f 151 160 161
f 151 161 162
f 151 162 163
f 151 163 152
f 153 163 164
f 153 164 165
f 153 165 166
f 153 166 167
f 154 168 156
f 154 155 169
f 154 169 170
f 154 170 168
f 155 171 183
f 155 183 195
f 155 195 194
f 155 194 205
f 155 205 212
f 155 212 211
f 155 211 206
f 155 206 197
f 155 197 182
f 155 182 170
f 155 170 169
f 156 168 157
f 157 172 173
f 157 173 158
f 157 168 181
f 157 181 172
f 158 173 159
f 159 173 160
f 160 173 174
f 160 174 188
f 160 188 175
f 160 175 162
f 160 162 161
f 162 175 190
f 162 190 176
f 162 176 164
f 162 164 163
f 164 176 177
f 164 177 165
f 165 177 178
f 165 178 166
f 166 178 179
f 166 179 180
f 166 180 167
f 167 180 171
f 168 170 182
f 168 182 181
f 171 180 183
f 172 184 185
f 172 185 186
f 172 186 173
f 172 181 184
f 173 186 187
f 173 187 174
f 174 187 200
f 174 200 188
f 175 188 189
f 175 189 190
f 176 190 191
f 176 191 177
f 177 191 179
f 177 179 178
f 179 191 192
f 179 192 193
f 179 193 194
f 179 194 195
f 179 195 183
f 179 183 180
f 181 196 185
f 181 185 184
f 181 182 197
f 181 197 196
f 185 196 198
f 185 198 199
f 185 199 187
f 185 187 186
f 187 199 207
f 187 207 200
f 188 200 189
f 189 200 201
f 189 201 191
f 189 191 190
f 191 201 202
f 191 202 203
f 191 203 192
f 192 204 205
f 192 205 194
f 192 194 193
f 192 203 202
f 192 202 204
f 196 197 198
f 197 206 198
f 198 206 199
f 199 206 211
f 199 211 207
f 200 207 208
f 200 208 202
f 200 202 201
f 202 208 207
f 202 207 209
f 202 209 210
f 202 210 204
f 204 210 209
f 204 209 211
f 204 211 212
f 204 212 205
f 207 211 209
o convex_2
v 0.229982 -0.19392 -0.375046
v 0.617137 -0.229235 -0.375046
v 0.229982 -0.19392 -0.211443
v 0.229982 0.299769 -0.375046
v 0.722961 -0.229235 -0.375046
v 0.617137 -0.229235 -0.211443
v 0.229982 0.299769 -0.211443
v 0.722961 0.299769 -0.375046
v 0.722961 -0.229235 -0.211443
v 0.734708 -0.223332 -0.375046
v 0.722961 0.299769 -0.211443
v 0.732458 0.295005 -0.375046
v 0.734708 -0.223332 -0.211443
v 0.740606 -0.211578 -0.375046
v 0.734708 0.293866 -0.211443
v 0.734708 0.293866 -0.375046
v 0.740606 -0.211578 -0.211443
v 0.740606 0.282112 -0.375046
v 0.740606 0.282112 -0.211443
f 213 214 218
f 213 218 215
f 213 215 219
f 213 219 216
f 213 216 220
f 213 220 224
f 213 224 228
f 213 228 230
f 213 230 226
f 213 226 222
f 213 222 217
f 213 217 214
f 214 217 221
f 214 221 218
f 215 218 221
f 215 221 225
f 215 225 229
f 215 229 231
f 215 231 227
f 215 227 223
f 215 223 219
f 216 219 223
f 216 223 220
f 217 222 225
f 217 225 221
f 220 223 224
f 222 226 229
f 222 229 225
f 223 227 224
f 224 227 228
f 226 230 231
f 226 231 229
f 227 231 230
f 227 230 228
o convex_3
v -0.740559 -0.211578 -0.375046
v -0.738219 -0.216342 -0.375046
v -0.740415 -0.211888 -0.211443
v -0.740559 -0.211578 -0.211443
v -0.740559 0.282112 -0.375046
v -0.734685 -0.223332 -0.375046
v -0.734685 -0.223332 -0.211443
v -0.740559 0.282112 -0.211443
v -0.740511 0.282215 -0.211443
v -0.736309 0.290707 -0.375046
v -0.727714 -0.226853 -0.375046
v -0.722939 -0.229235 -0.211443
v -0.734685 0.293866 -0.211443
v -0.734685 0.293866 -0.375046
v -0.722939 -0.229235 -0.375046
v -0.617171 -0.229235 -0.211443
v -0.73459 0.293918 -0.211443
v -0.726138 0.298164 -0.375046
v -0.617171 -0.229235 -0.375046
v -0.252785 -0.19392 -0.211507
v -0.264389 -0.19392 -0.211443
v -0.722939 0.299769 -0.211443
v -0.722939 0.299769 -0.375046
v -0.252785 -0.19392 -0.375046
v -0.252785 -0.0267678 -0.211443
v -0.252785 0.299769 -0.211443
v -0.252785 0.299769 -0.375046
f 232 233 234
f 232 234 235
f 232 235 239
f 232 239 236
f 232 236 241
f 232 241 245
f 232 245 249
f 232 249 254
f 232 254 258
f 232 258 255
f 232 255 250
f 232 250 246
f 232 246 242
f 232 242 237
f 232 237 233
f 233 237 238
f 233 238 234
f 234 238 243
f 234 243 247
f 234 247 252
f 234 252 256
f 234 256 257
f 234 257 253
f 234 253 248
f 234 248 244
f 234 244 240
f 234 240 239
f 234 239 235
f 236 239 240
f 236 240 241
f 237 242 238
f 238 242 243
f 240 244 241
f 241 244 245
f 242 246 243
f 243 246 250
f 243 250 247
f 244 248 245
f 245 248 249
f 247 250 255
f 247 255 251
f 247 251 252
f 248 253 249
f 249 253 254
f 251 256 252
f 251 255 258
f 251 258 257
f 251 257 256
f 253 257 258
f 253 258 254
o convex_4
v -0.114467 0.299769 -0.211443
v -0.252785 0.299769 -0.211443
v -0.114467 -0.193947 -0.211443
v -0.114467 0.299769 -0.375046
v -0.252785 0.299769 -0.375046
v -0.252785 -0.0267993 -0.211443
v -0.246869 -0.193947 -0.211443
v -0.176342 -0.235104 -0.258626
v -0.193957 -0.253463 -0.282138
v -0.167528 -0.242447 -0.273329
v -0.152824 -0.235104 -0.282138
v -0.114467 -0.193947 -0.375046
v -0.252785 -0.193947 -0.375046
v -0.252785 -0.193947 -0.211507
v -0.193957 -0.235104 -0.258626
v -0.202784 -0.260094 -0.290962
v -0.152824 -0.235104 -0.299755
v -0.16459 -0.240968 -0.317389
v -0.163114 -0.238008 -0.326214
v -0.170466 -0.240968 -0.329145
v -0.188081 -0.240968 -0.329145
v -0.193957 -0.246832 -0.317389
v -0.214537 -0.249791 -0.302702
v -0.223351 -0.240968 -0.293877
v -0.223351 -0.240968 -0.27626
v -0.176342 -0.246832 -0.317389
f 259 260 264
f 259 264 265
f 259 265 261
f 259 261 270
f 259 270 262
f 259 262 263
f 259 263 260
f 260 263 271
f 260 271 272
f 260 272 264
f 261 265 273
f 261 273 266
f 261 266 267
f 261 267 268
f 261 268 269
f 261 269 275
f 261 275 270
f 262 270 271
f 262 271 263
f 264 272 265
f 265 272 273
f 266 273 267
f 267 274 268
f 267 273 274
f 268 274 269
f 269 274 275
f 270 275 276
f 270 276 277
f 270 277 278
f 270 278 279
f 270 279 271
f 271 279 280
f 271 280 281
f 271 281 282
f 271 282 283
f 271 283 272
f 272 283 274
f 272 274 273
f 274 283 281
f 274 281 280
f 274 280 279
f 274 279 278
f 274 278 284
f 274 284 276
f 274 276 275
f 276 284 278
f 276 278 277
f 281 283 282
o convex_5
v 0.229932 0.299769 -0.211443
v 0.0826166 0.299769 -0.211443
v 0.229932 -0.193949 -0.211443
v 0.229932 0.299769 -0.375046
v 0.0826166 0.299769 -0.375046
v 0.0826166 0.142884 -0.211443
v 0.0881684 -0.193949 -0.211443
v 0.176333 -0.235097 -0.258626
v 0.185143 -0.242428 -0.273329
v 0.202779 -0.242428 -0.290962
v 0.205721 -0.240983 -0.299755
v 0.229932 -0.193949 -0.375046
v 0.0826166 -0.193949 -0.375046
v 0.0826166 -0.193949 -0.211507
v 0.158697 -0.235097 -0.258626
v 0.176333 -0.246869 -0.282138
v 0.193954 -0.246869 -0.299755
v 0.19616 -0.242428 -0.317389
v 0.207192 -0.23804 -0.30858
v 0.182202 -0.240983 -0.329145
v 0.164566 -0.240983 -0.329145
v 0.158697 -0.246869 -0.317389
v 0.144017 -0.243926 -0.314458
v 0.141076 -0.246869 -0.299755
v 0.129323 -0.240983 -0.293877
v 0.0826166 -0.204276 -0.292484
v 0.0826166 -0.196036 -0.217161
v 0.141076 -0.242428 -0.279944
v 0.158697 -0.246869 -0.282138
v 0.176333 -0.246869 -0.317389
v 0.132265 -0.23804 -0.277733
v 0.0826166 -0.204276 -0.264504
v 0.0826166 -0.204704 -0.270062
v 0.0826166 -0.205507 -0.282138
f 285 286 290
f 285 290 291
f 285 291 287
f 285 287 296
f 285 296 288
f 285 288 289
f 285 289 286
f 286 289 297
f 286 297 310
f 286 310 318
f 286 318 317
f 286 317 316
f 286 316 311
f 286 311 298
f 286 298 290
f 287 291 299
f 287 299 292
f 287 292 293
f 287 293 294
f 287 294 295
f 287 295 296
f 288 296 297
f 288 297 289
f 290 298 291
f 291 298 299
f 292 299 313
f 292 313 300
f 292 300 293
f 293 300 301
f 293 301 294
f 294 301 295
f 295 301 302
f 295 302 303
f 295 303 296
f 296 303 302
f 296 302 304
f 296 304 305
f 296 305 297
f 297 305 306
f 297 306 307
f 297 307 308
f 297 308 309
f 297 309 310
f 298 311 312
f 298 312 299
f 299 312 313
f 300 313 308
f 300 308 306
f 300 306 314
f 300 314 301
f 301 314 302
f 302 314 304
f 304 314 306
f 304 306 305
f 306 308 307
f 308 313 312
f 308 312 309
f 309 312 315
f 309 315 311
f 309 311 316
f 309 316 317
f 309 317 318
f 309 318 310
f 311 315 312
o convex_6
v -0.114448 -0.193958 -0.375046
v -0.00589371 -0.252703 -0.3409
v 0.00587423 -0.293842 -0.311511
v -0.0264394 -0.290908 -0.30858
v -0.0411397 -0.287973 -0.288016
v -0.114448 -0.193958 -0.211443
v -0.114448 0.299769 -0.375046
v 0.0825973 -0.193958 -0.375046
v 0.0220407 -0.290908 -0.30858
v 0.0198221 -0.295309 -0.299755
v -9.73602e-06 -0.299769 -0.299755
v -0.0176231 -0.299769 -0.282138
v -0.0293717 -0.293842 -0.27626
v -0.0264394 -0.290908 -0.2601
v -0.114448 0.299769 -0.211443
v -9.73602e-06 -0.287973 -0.240993
v -0.00882605 -0.273302 -0.233657
v -0.00882605 -0.238031 -0.216024
v -9.73602e-06 -0.228876 -0.211443
v 0.0825973 0.299769 -0.375046
v 0.0825973 -0.204287 -0.292484
v 0.0661222 -0.238031 -0.290962
v 0.0484896 -0.273302 -0.290962
v 0.0411395 -0.287973 -0.282138
v 0.0176229 -0.299769 -0.282138
v -9.73602e-06 -0.299769 -0.264504
v -0.0176231 -0.295309 -0.26231
v 0.0825973 0.299769 -0.211443
v 0.00880657 -0.295309 -0.255695
v 0.0264392 -0.286506 -0.255695
v 0.0440718 -0.260039 -0.238062
v 0.0176229 -0.26667 -0.233657
v -9.73602e-06 -0.264499 -0.229237
v -9.73602e-06 -0.229228 -0.211603
v 0.0825973 -0.193958 -0.211507
v 0.0706751 -0.193958 -0.211443
v 0.0825973 -0.205519 -0.282138
v 0.0825973 -0.204698 -0.270062
v 0.0825973 -0.204228 -0.264504
v 0.0825973 -0.196012 -0.217161
v 0.0264392 -0.295309 -0.273329
v 0.0825973 0.142901 -0.211443
v 0.0176229 -0.2314 -0.216024
f 319 320 321
f 319 321 322
f 319 322 323
f 319 323 324
f 319 324 333
f 319 333 325
f 319 325 338
f 319 338 326
f 319 326 320
f 320 326 321
f 321 327 328
f 321 328 329
f 321 329 322
f 321 326 327
f 322 329 330
f 322 330 323
f 323 330 331
f 323 331 332
f 323 332 324
f 324 332 334
f 324 334 335
f 324 335 336
f 324 336 337
f 324 337 354
f 324 354 360
f 324 360 346
f 324 346 333
f 325 333 346
f 325 346 338
f 326 339 340
f 326 340 341
f 326 341 342
f 326 342 327
f 326 338 346
f 326 346 360
f 326 360 353
f 326 353 358
f 326 358 357
f 326 357 356
f 326 356 355
f 326 355 339
f 327 342 328
f 328 343 329
f 328 342 343
f 329 343 344
f 329 344 330
f 330 344 345
f 330 345 331
f 331 345 332
f 332 345 334
f 334 345 344
f 334 344 347
f 334 347 348
f 334 348 349
f 334 349 350
f 334 350 351
f 334 351 335
f 335 351 352
f 335 352 336
f 336 352 337
f 337 352 353
f 337 353 354
f 339 355 340
f 340 355 341
f 341 355 342
f 342 355 356
f 342 356 357
f 342 357 358
f 342 358 353
f 342 353 349
f 342 349 348
f 342 348 359
f 342 359 343
f 343 359 347
f 343 347 344
f 347 359 348
f 349 353 350
f 350 361 352
f 350 352 351
f 350 353 361
f 352 361 353
f 353 360 354
