# https://github.com/mikedh/trimesh
v -0.28544300 -0.74417400 -0.06116230
v -0.27862500 -0.74747900 -0.07475150
v -0.27521700 -0.76455500 -0.07134870
v -0.26504600 -0.78493600 -0.06116230
v -0.28544300 -0.74417400 0.01018640
v -0.28544300 0.92760100 -0.06116230
v -0.26839900 -0.75776200 -0.08493790
v -0.26672300 -0.76620800 -0.08324750
v -0.27862500 0.92411300 -0.07475150
v -0.26839900 -0.77814200 -0.07475150
v -0.25822900 -0.79852300 -0.06454320
v -0.26504600 -0.78493600 0.01018640
v -0.28203400 -0.75096800 0.01358920
v -0.25482000 -0.75427300 0.10193000
v -0.28544300 0.91731900 0.01018640
v -0.28544300 0.92760100 -0.03058120
v -0.28287200 0.93274300 -0.02546600
v -0.28203400 0.93439500 -0.06116230
v -0.28030200 0.93531300 -0.06625550
v -0.28203400 0.93090600 -0.06794600
v -0.26163700 -0.75096800 -0.08834070
v -0.25482000 -0.75427300 -0.09174350
v -0.25990500 -0.76951300 -0.08665030
v -0.24805800 -0.79852300 -0.08493790
v -0.26839900 0.92411300 -0.08493790
v -0.26163700 0.93090600 -0.08834070
v -0.23956400 -0.81027400 -0.08665030
v -0.25990500 -0.78989300 -0.07644190
v -0.24805800 -0.80862200 -0.07475150
v -0.25822900 -0.79852300 0.00678362
v -0.22766100 -0.83928500 -0.06454320
v -0.23783200 -0.82900300 -0.03396200
v -0.26163700 -0.79173000 0.01358920
v -0.23107000 -0.80182800 0.10533300
v -0.25141100 -0.76106700 0.10533300
v -0.24973500 -0.75941400 0.10957000
v -0.25141100 -0.75427300 0.10873500
v -0.25230500 0.11714400 0.10702300
v -0.25482000 0.68284800 0.10193000
v -0.25230500 0.68798900 0.10702300
v -0.28287200 0.92246000 0.01527960
v -0.27521700 0.93788400 -0.03058120
v -0.28203400 0.93439500 -0.03058120
v -0.27521700 0.92760100 0.01018640
v -0.27521700 0.93788400 -0.06116230
v -0.27013100 0.93531300 -0.07644190
v -0.21408200 -0.59122700 -0.11213800
v -0.24464900 -0.77465400 -0.09174350
v -0.25990500 0.93531300 -0.08665030
v -0.25482000 0.92760100 -0.09174350
v -0.21408200 0.71351100 -0.11213800
v -0.23442300 -0.79503500 -0.09174350
v -0.22425300 -0.80531700 -0.09174350
v -0.21916700 -0.83083900 -0.08665030
v -0.22933800 -0.83083900 -0.07644190
v -0.23783200 -0.82900300 0.00678362
v -0.20894100 -0.85121900 -0.07644190
v -0.21743500 -0.84938300 -0.06454320
v -0.20726500 -0.85966600 -0.03396200
v -0.22766100 -0.83928500 0.00678362
v -0.24124100 -0.82220900 0.01358920
v -0.22766100 -0.80862200 0.09852710
v -0.22084400 -0.81211000 0.10533300
v -0.22933800 -0.80017600 0.10957000
v -0.23956400 -0.77979500 0.10957000
v -0.24464900 -0.75427300 0.11213800
v -0.25141100 0.68284800 0.10873500
v -0.24464900 0.68284800 0.11213800
v -0.24805800 0.68964200 0.10873500
v -0.27862500 0.92411300 0.01697000
v 0.27521700 0.93788400 -0.03058120
v 0.27521700 0.92760100 0.01018640
v -0.26504600 0.93788400 -0.07134870
v 0.22425300 -0.59122700 -0.11213800
v -0.06113440 -0.90722100 -0.09174350
v -0.09170160 -0.89693800 -0.09174350
v -0.11209800 -0.88684000 -0.09174350
v -0.15289200 -0.86645900 -0.09174350
v -0.17328900 -0.85617700 -0.09174350
v -0.18345900 -0.84607800 -0.09174350
v 0.25482000 0.93439500 -0.08834070
v -0.25482000 0.93439500 -0.08834070
v -0.25482000 0.93788400 -0.08153510
v 0.25482000 0.93788400 -0.08153510
v 0.25990500 0.93274300 -0.08919690
v 0.25482000 0.92760100 -0.09174350
v 0.16306200 0.85617700 -0.11213800
v -0.19877100 -0.85121900 -0.08665030
v -0.18854400 -0.86131800 -0.08665030
v -0.18686800 -0.86976400 -0.07475150
v -0.17669700 -0.88004600 -0.06454320
v -0.20726500 -0.85966600 0.00678362
v -0.21743500 -0.81890400 0.09852710
v -0.20044700 -0.83249100 0.10533300
v -0.19877100 -0.83083900 0.10957000
v -0.21408200 -0.80531700 0.11213800
v -0.22425300 -0.79503500 0.11213800
v 0.24464900 0.68284800 0.11213800
v -0.24464900 0.71351100 0.10193000
v -0.24805800 0.72030500 0.09852710
v -0.27521700 0.91731900 0.02037280
v 0.27180800 0.92411300 0.01697000
v 0.28203400 0.93439500 -0.03396200
v 0.27521700 0.93788400 -0.06116230
v 0.28030200 0.92246000 0.01527960
v 0.28203400 0.92411300 0.00678362
v 0.23107000 -0.59122700 -0.10873500
v 0.25482000 -0.75427300 -0.09174350
v 0.24464900 -0.77465400 -0.09174350
v 0.23442300 -0.79503500 -0.09174350
v 0.22425300 -0.80531700 -0.09174350
v 0.18345900 -0.84607800 -0.09174350
v 0.15289200 -0.86645900 -0.09174350
v 0.11209800 -0.88684000 -0.09174350
v 0.09170160 -0.89693800 -0.09174350
v 0.06113440 -0.90722100 -0.09174350
v 0.22425300 0.70341300 -0.11213800
v -0.06454320 -0.92080800 -0.08493790
v -0.10701300 -0.90208000 -0.08665030
v -0.09511040 -0.91052600 -0.08493790
v -0.12741000 -0.89198100 -0.08665030
v -0.16820300 -0.87160000 -0.08665030
v 0.26504600 0.93531300 -0.08280840
v 0.26504600 0.93788400 -0.07134870
v 0.26839900 0.92760100 -0.08493790
v 0.22933800 0.70837000 -0.10957000
v 0.20385600 0.82569800 -0.11213800
v 0.19368500 0.84607800 -0.11213800
v 0.18345900 0.85617700 -0.11213800
v -0.17669700 -0.86976400 -0.08493790
v -0.16820300 -0.88169900 -0.07644190
v -0.17496500 -0.87839400 -0.07303920
v -0.17669700 -0.88004600 0.00678362
v -0.15630100 -0.89014500 -0.07475150
v -0.13590400 -0.90042700 -0.07475150
v -0.12232500 -0.90722100 -0.07134870
v -0.20044700 -0.86297100 0.01358920
v -0.19027700 -0.84259000 0.10533300
v -0.19703800 -0.83928500 0.09852710
v -0.18854400 -0.84093700 0.10957000
v -0.19368500 -0.82569800 0.11213800
v 0.25141100 0.67954300 0.10873500
v 0.28203400 0.91401400 0.01697000
v 0.27521700 0.91731900 0.02037280
v 0.24464900 0.71351100 0.10193000
v 0.24464900 -0.76455500 0.11213800
v 0.28203400 0.93439500 -0.06454320
v 0.28544300 0.91731900 0.01018640
v 0.28544300 0.92760100 -0.03058120
v 0.27521700 0.93531300 -0.07262200
v 0.26839900 -0.75427300 -0.08493790
v 0.26163700 -0.75427300 -0.08834070
v 0.23107000 0.70341300 -0.10873500
v 0.25610500 -0.76455500 -0.08919690
v 0.24593500 -0.78493600 -0.08919690
v 0.23570800 -0.80531700 -0.08919690
v 0.19491500 -0.84607800 -0.08919690
v 0.16434800 -0.86645900 -0.08919690
v 0.15630100 -0.87325300 -0.08834070
v 0.11550700 -0.89363300 -0.08834070
v 0.09511040 -0.90373200 -0.08834070
v 0.06454320 -0.91401400 -0.08834070
v 0.05772560 -0.92080800 -0.08493790
v -0.06113440 -0.92760100 -0.07134870
v -0.07644590 -0.92246000 -0.07644190
v -0.10701300 -0.91236200 -0.07644190
v -0.12400100 -0.89877500 -0.08324750
v -0.14439800 -0.88849200 -0.08324750
v 0.27862500 0.92760100 -0.07475150
v -0.12232500 -0.90722100 0.01018640
v -0.14948300 -0.89363300 0.01358920
v -0.16988000 -0.88335100 0.01358920
v -0.10192800 -0.91731900 -0.06116230
v -0.10869000 -0.91401400 -0.05775960
v -0.15970900 -0.86297100 0.10533300
v -0.18345900 -0.83579600 0.11213800
v -0.15797700 -0.86131800 0.10957000
v 0.25482000 0.68284800 0.10193000
v 0.25141100 -0.76786000 0.10873500
v 0.22425300 -0.79503500 0.11213800
v 0.22425300 -0.80660200 0.10957000
v 0.24464900 -0.77593900 0.10957000
v 0.28544300 0.92760100 -0.06116230
v 0.28030200 0.93274300 -0.06880210
v 0.28544300 -0.74417400 0.01018640
v 0.27862500 -0.74417400 -0.07475150
v 0.27901600 -0.75427300 -0.07134870
v 0.27264600 -0.75941400 -0.07644190
v 0.24805800 -0.79503500 -0.08493790
v 0.23699400 -0.81027400 -0.08665030
v 0.22682300 -0.82055600 -0.08665030
v 0.21659700 -0.83083900 -0.08665030
v 0.19620000 -0.85121900 -0.08665030
v 0.16563300 -0.87160000 -0.08665030
v 0.12483900 -0.89198100 -0.08665030
v 0.10444300 -0.90208000 -0.08665030
v 0.08834870 -0.91052600 -0.08493790
v 0.06454320 -0.92411300 -0.07815430
v 0.06113440 -0.92760100 -0.07134870
v 0.10444300 -0.91236200 -0.07644190
v 0.00000000 -0.93788400 -0.03058120
v -0.07136070 -0.92760100 -0.06116230
v -0.06962840 -0.92594900 -0.06965830
v -0.10869000 -0.91401400 0.01358920
v -0.13931300 -0.87325300 0.10533300
v -0.10192800 -0.91731900 0.01018640
v -0.15289200 -0.85617700 0.11213800
v -0.13758000 -0.87160000 0.10957000
v 0.25482000 -0.76455500 0.10193000
v 0.23107000 -0.79852300 0.10873500
v 0.24973500 -0.77208300 0.10702300
v 0.24805800 -0.77814200 0.10193000
v 0.21408200 -0.80531700 0.11213800
v 0.21743500 -0.81890400 0.10193000
v 0.22766100 -0.80862200 0.10193000
v 0.22933800 -0.80274600 0.10702300
v 0.20385600 -0.82698300 0.10957000
v 0.28544300 -0.74417400 -0.06116230
v 0.26504600 -0.78493600 0.01018640
v 0.28287200 -0.74913200 -0.06625550
v 0.25867600 -0.79503500 -0.07134870
v 0.25230500 -0.80017600 -0.07644190
v 0.24464900 -0.80531700 -0.08153510
v 0.22682300 -0.83083900 -0.07644190
v 0.20642600 -0.85121900 -0.07644190
v 0.18094400 -0.87160000 -0.07644190
v 0.17669700 -0.87325300 -0.07815430
v 0.14607400 -0.89363300 -0.07815430
v 0.12567800 -0.90373200 -0.07815430
v 0.10321300 -0.91493200 -0.07134870
v 0.07136070 -0.92760100 -0.03058120
v 0.10192800 -0.91731900 -0.06116230
v 0.00000000 -0.93788400 0.01018640
v -0.07136070 -0.92760100 0.01018640
v -0.09851910 -0.89363300 0.10533300
v -0.09684270 -0.89198100 0.10957000
v -0.09170160 -0.89693800 0.10193000
v -0.13249500 -0.86645900 0.11213800
v 0.25822900 -0.79852300 0.01018640
v 0.19368500 -0.82569800 0.11213800
v 0.19703800 -0.83928500 0.10193000
v 0.22766100 -0.83928500 0.01018640
v 0.23783200 -0.82900300 0.01018640
v 0.19368500 -0.83708100 0.10957000
v 0.26504600 -0.78493600 -0.06116230
v 0.26247600 -0.78989300 -0.06625550
v 0.25822900 -0.79852300 -0.06116230
v 0.22766100 -0.83928500 -0.06116230
v 0.24805800 -0.80862200 -0.07134870
v 0.18686800 -0.86976400 -0.07134870
v 0.21743500 -0.84938300 -0.06116230
v 0.15630100 -0.89014500 -0.07134870
v 0.15032100 -0.89198100 -0.07644190
v 0.12232500 -0.90722100 -0.07134870
v 0.07136070 -0.92760100 0.01018640
v 0.10869000 -0.91401400 -0.06116230
v 0.10701300 -0.91493200 0.01527960
v 0.10192800 -0.91731900 0.01018640
v -0.06113440 -0.90722100 0.10193000
v 0.06113440 -0.90722100 0.10193000
v -0.06795190 -0.90373200 0.10533300
v -0.06621960 -0.90208000 0.10957000
v -0.06113440 -0.89693800 0.11213800
v -0.09170160 -0.88684000 0.11213800
v 0.18345900 -0.83579600 0.11213800
v 0.18854400 -0.84350800 0.10702300
v 0.20726500 -0.85966600 0.01018640
v 0.23783200 -0.82900300 -0.03058120
v 0.15289200 -0.85617700 0.11213800
v 0.16306200 -0.85746200 0.10957000
v 0.15797700 -0.86388900 0.10702300
v 0.20726500 -0.85966600 -0.03058120
v 0.17669700 -0.88004600 -0.06116230
v 0.14948300 -0.89363300 -0.07134870
v 0.14780700 -0.89455200 0.01527960
v 0.07644590 -0.92503100 0.01527960
v 0.09684270 -0.89455200 0.10702300
v 0.06621960 -0.90465000 0.10702300
v -0.06113440 -0.90373200 0.10873500
v 0.06113440 -0.90373200 0.10873500
v 0.06113440 -0.89693800 0.11213800
v 0.19877100 -0.86388900 0.01527960
v 0.17669700 -0.88004600 0.01018640
v 0.13249500 -0.86645900 0.11213800
v 0.14272100 -0.86774400 0.10957000
v 0.16820300 -0.88426900 0.01527960
v 0.10192800 -0.88812500 0.10957000
v 0.09170160 -0.89363300 0.10873500
v 0.09170160 -0.88684000 0.11213800
f 1 2 3
f 171 204 235
f 170 204 171
f 169 218 186
f 169 183 218
f 166 202 173
f 165 202 166
f 165 203 202
f 164 199 201
f 164 203 165
f 164 202 203
f 164 201 202
f 163 200 198
f 163 197 200
f 163 198 199
f 162 197 163
f 161 197 162
f 161 196 197
f 151 154 152
f 155 189 156
f 156 189 190
f 156 190 191
f 156 191 192
f 156 192 193
f 171 235 205
f 156 193 157
f 157 194 158
f 158 194 159
f 159 194 195
f 159 195 160
f 160 195 196
f 160 196 161
f 157 193 194
f 171 205 175
f 171 175 172
f 173 202 234
f 181 217 241
f 181 241 214
f 185 209 212
f 185 212 219
f 185 219 245
f 185 245 218
f 181 240 217
f 186 218 220
f 187 220 221
f 187 221 222
f 187 222 188
f 189 222 223
f 189 223 190
f 190 223 224
f 186 220 187
f 151 155 154
f 181 213 240
f 181 216 210
f 173 234 206
f 173 206 204
f 173 204 174
f 175 205 208
f 175 208 177
f 177 208 238
f 181 210 182
f 177 238 207
f 179 210 211
f 179 211 212
f 179 212 209
f 180 213 181
f 181 214 215
f 181 215 216
f 179 182 210
f 151 189 155
f 151 222 189
f 151 188 222
f 118 165 166
f 118 166 120
f 119 167 121
f 119 120 167
f 120 166 167
f 121 167 122
f 118 164 165
f 122 167 168
f 123 150 169
f 123 169 125
f 125 153 126
f 125 169 186
f 125 186 151
f 130 168 134
f 122 168 130
f 130 134 131
f 118 199 164
f 117 126 153
f 109 155 156
f 109 156 110
f 110 156 111
f 111 156 157
f 111 157 112
f 112 157 158
f 118 163 199
f 112 158 113
f 113 159 160
f 113 160 114
f 114 160 161
f 114 161 115
f 115 161 162
f 115 162 116
f 113 158 159
f 190 224 191
f 131 134 132
f 133 171 172
f 146 180 181
f 146 181 182
f 146 182 179
f 147 183 169
f 147 169 184
f 147 184 150
f 142 209 178
f 148 178 209
f 148 185 218
f 148 218 183
f 148 183 149
f 150 184 169
f 151 186 187
f 151 187 188
f 148 209 185
f 133 170 171
f 142 179 209
f 142 178 148
f 134 168 167
f 134 167 135
f 135 167 166
f 135 166 136
f 136 166 173
f 136 173 174
f 142 148 143
f 136 174 204
f 137 172 175
f 137 175 138
f 138 175 177
f 138 177 140
f 140 177 207
f 140 207 176
f 136 204 170
f 191 224 192
f 192 224 225
f 192 225 193
f 244 271 266
f 245 247 246
f 247 268 248
f 248 272 251
f 250 251 273
f 250 273 252
f 244 270 271
f 251 272 273
f 252 274 253
f 253 274 254
f 254 274 273
f 254 273 275
f 254 275 257
f 254 257 256
f 252 273 274
f 255 258 257
f 244 269 270
f 242 268 243
f 235 261 236
f 236 261 262
f 236 262 263
f 236 263 264
f 236 264 238
f 239 243 268
f 244 265 269
f 239 268 247
f 241 244 266
f 241 266 282
f 241 282 267
f 242 267 272
f 242 272 248
f 242 248 268
f 240 265 244
f 235 259 261
f 255 257 276
f 255 278 260
f 271 285 277
f 271 277 275
f 271 275 286
f 273 283 275
f 275 283 286
f 276 277 278
f 270 285 271
f 277 287 288
f 277 280 278
f 277 285 287
f 278 280 279
f 280 288 289
f 280 289 281
f 284 289 287
f 277 288 280
f 255 276 278
f 269 285 270
f 267 273 272
f 257 275 277
f 257 277 276
f 259 260 278
f 259 278 279
f 259 279 262
f 259 262 261
f 269 284 285
f 262 279 280
f 262 281 263
f 266 271 286
f 266 286 282
f 267 282 286
f 267 286 283
f 267 283 273
f 262 280 281
f 108 155 109
f 235 237 259
f 233 255 260
f 201 255 233
f 204 206 235
f 205 235 236
f 205 236 208
f 206 234 259
f 206 259 237
f 201 231 255
f 206 237 235
f 210 216 211
f 211 216 212
f 212 216 215
f 212 215 243
f 212 243 239
f 212 239 219
f 208 236 238
f 214 241 267
f 201 234 202
f 200 229 230
f 193 225 226
f 193 226 227
f 193 227 194
f 194 227 228
f 194 228 195
f 195 228 229
f 201 233 234
f 195 229 196
f 197 229 200
f 198 200 230
f 198 230 199
f 199 231 201
f 199 230 232
f 199 232 231
f 196 229 197
f 233 260 259
f 214 267 242
f 215 242 243
f 226 250 252
f 226 252 253
f 226 253 228
f 226 228 227
f 228 253 254
f 228 254 229
f 225 251 250
f 229 254 230
f 231 232 258
f 231 258 255
f 232 254 256
f 232 256 257
f 232 257 258
f 233 259 234
f 230 254 232
f 214 242 215
f 225 248 251
f 224 249 248
f 217 240 244
f 217 244 241
f 218 245 246
f 218 246 220
f 219 239 247
f 219 247 245
f 225 250 226
f 220 246 221
f 221 247 248
f 221 248 249
f 221 249 222
f 222 249 224
f 222 224 223
f 224 248 225
f 221 246 247
f 108 154 155
f 108 152 154
f 107 125 151
f 31 59 92
f 31 92 60
f 31 60 56
f 31 56 32
f 33 61 34
f 34 61 56
f 31 58 59
f 34 56 62
f 34 93 63
f 34 63 64
f 34 64 65
f 34 65 36
f 34 36 35
f 36 65 66
f 34 62 93
f 36 66 37
f 31 57 58
f 30 61 33
f 22 48 27
f 22 27 23
f 22 47 48
f 26 46 49
f 26 49 50
f 26 50 51
f 31 55 57
f 27 29 28
f 27 52 53
f 27 53 54
f 27 54 55
f 27 55 29
f 29 55 31
f 30 56 61
f 27 48 52
f 21 51 47
f 37 66 68
f 37 67 40
f 47 116 75
f 47 75 76
f 47 76 77
f 47 77 78
f 47 78 79
f 47 79 80
f 47 74 116
f 47 80 53
f 47 52 48
f 47 51 87
f 47 87 129
f 47 129 128
f 47 128 127
f 47 127 117
f 47 53 52
f 37 68 67
f 46 73 49
f 44 70 102
f 37 40 38
f 40 67 68
f 40 68 69
f 40 69 41
f 41 70 44
f 41 69 70
f 44 102 72
f 42 71 104
f 42 124 84
f 42 84 83
f 42 83 73
f 42 73 45
f 42 44 72
f 42 72 71
f 42 104 124
f 47 117 74
f 21 26 51
f 20 46 26
f 5 12 33
f 5 33 13
f 5 13 35
f 5 35 14
f 5 14 39
f 5 39 15
f 4 33 12
f 6 16 17
f 6 18 19
f 6 19 20
f 6 20 9
f 7 21 22
f 7 22 23
f 7 23 27
f 6 17 18
f 7 27 24
f 4 30 33
f 4 10 11
f 1 3 4
f 1 4 12
f 1 12 5
f 1 5 15
f 1 15 16
f 1 16 6
f 4 11 30
f 1 6 9
f 2 7 8
f 2 8 3
f 2 9 25
f 2 25 7
f 3 8 10
f 3 10 4
f 1 9 2
f 21 47 22
f 7 24 8
f 7 26 21
f 15 39 40
f 15 40 41
f 15 41 17
f 15 17 16
f 17 42 43
f 17 43 18
f 14 40 39
f 17 41 44
f 18 43 19
f 19 43 42
f 19 42 45
f 19 45 73
f 19 73 46
f 19 46 20
f 17 44 42
f 7 25 26
f 14 38 40
f 14 36 37
f 8 24 10
f 9 20 26
f 9 26 25
f 10 24 27
f 10 27 28
f 10 28 29
f 14 37 38
f 10 29 11
f 11 31 32
f 11 32 56
f 11 56 30
f 13 33 34
f 13 34 35
f 14 35 36
f 11 29 31
f 284 287 285
f 49 81 82
f 49 73 83
f 81 85 82
f 81 84 123
f 84 124 123
f 85 123 125
f 85 125 126
f 85 126 117
f 81 123 85
f 85 117 86
f 86 128 129
f 86 117 127
f 89 122 130
f 89 130 131
f 89 131 90
f 90 131 132
f 86 127 128
f 90 132 91
f 79 88 80
f 79 122 89
f 74 115 116
f 74 117 153
f 74 153 107
f 75 116 162
f 75 162 163
f 75 163 118
f 79 89 88
f 75 118 120
f 76 119 121
f 76 121 77
f 76 120 119
f 77 121 122
f 77 122 78
f 78 122 79
f 75 120 76
f 74 114 115
f 91 132 134
f 91 135 136
f 99 144 101
f 102 144 105
f 103 106 148
f 103 148 149
f 103 149 183
f 103 183 147
f 99 145 144
f 104 147 150
f 104 123 124
f 105 144 143
f 105 143 148
f 105 148 106
f 107 151 152
f 107 153 125
f 104 150 123
f 91 134 135
f 98 179 142
f 98 144 145
f 91 136 170
f 91 170 133
f 92 137 138
f 92 138 139
f 92 133 172
f 92 172 137
f 98 146 179
f 94 139 138
f 95 138 140
f 95 140 176
f 95 176 141
f 95 141 96
f 98 142 143
f 98 143 144
f 94 138 95
f 49 82 50
f 74 113 114
f 74 111 112
f 59 133 92
f 60 92 139
f 60 139 93
f 60 93 62
f 63 93 139
f 63 139 94
f 59 91 133
f 63 94 95
f 64 96 97
f 64 97 65
f 64 95 96
f 65 97 66
f 66 97 96
f 66 96 141
f 63 95 64
f 66 141 176
f 58 91 59
f 57 90 58
f 49 83 84
f 49 84 81
f 50 82 85
f 50 85 86
f 50 86 129
f 50 129 87
f 58 90 91
f 50 87 51
f 53 88 54
f 54 88 57
f 54 57 55
f 56 60 62
f 57 88 89
f 57 89 90
f 53 80 88
f 74 112 113
f 66 176 207
f 66 238 264
f 70 144 102
f 70 100 99
f 70 99 101
f 71 103 147
f 71 147 104
f 71 72 103
f 70 101 144
f 72 102 105
f 72 106 103
f 74 107 152
f 74 152 108
f 74 108 109
f 74 109 110
f 74 110 111
f 72 105 106
f 66 207 238
f 69 100 70
f 68 99 100
f 66 264 263
f 66 263 281
f 66 281 289
f 66 289 284
f 66 284 269
f 66 269 265
f 68 100 69
f 66 265 240
f 66 213 180
f 66 180 146
f 66 146 98
f 66 98 68
f 68 98 145
f 68 145 99
f 66 240 213
f 287 289 288

