o convex_0
v -0.285443 -0.744174 -0.0611623
v -0.278625 -0.747479 -0.0747515
v -0.275217 -0.764555 -0.0713487
v -0.265046 -0.784936 -0.0611623
v -0.285443 -0.744174 0.0101864
v -0.285443 0.927601 -0.0611623
v -0.268399 -0.757762 -0.0849379
v -0.266723 -0.766208 -0.0832475
v -0.278625 0.924113 -0.0747515
v -0.268399 -0.778142 -0.0747515
v -0.258229 -0.798523 -0.0645432
v -0.265046 -0.784936 0.0101864
v -0.282034 -0.750968 0.0135892
v -0.25482 -0.754273 0.10193
v -0.285443 0.917319 0.0101864
v -0.285443 0.927601 -0.0305812
v -0.282872 0.932743 -0.025466
v -0.282034 0.934395 -0.0611623
v -0.280302 0.935313 -0.0662555
v -0.282034 0.930906 -0.067946
v -0.261637 -0.750968 -0.0883407
v -0.25482 -0.754273 -0.0917435
v -0.259905 -0.769513 -0.0866503
v -0.248058 -0.798523 -0.0849379
v -0.268399 0.924113 -0.0849379
v -0.261637 0.930906 -0.0883407
v -0.239564 -0.810274 -0.0866503
v -0.259905 -0.789893 -0.0764419
v -0.248058 -0.808622 -0.0747515
v -0.258229 -0.798523 0.00678362
v -0.227661 -0.839285 -0.0645432
v -0.237832 -0.829003 -0.033962
v -0.261637 -0.79173 0.0135892
v -0.23107 -0.801828 0.105333
v -0.251411 -0.761067 0.105333
v -0.249735 -0.759414 0.10957
v -0.251411 -0.754273 0.108735
v -0.252305 0.117144 0.107023
v -0.25482 0.682848 0.10193
v -0.252305 0.687989 0.107023
v -0.282872 0.92246 0.0152796
v -0.275217 0.937884 -0.0305812
v -0.282034 0.934395 -0.0305812
v -0.275217 0.927601 0.0101864
v -0.275217 0.937884 -0.0611623
v -0.270131 0.935313 -0.0764419
v -0.214082 -0.591227 -0.112138
v -0.244649 -0.774654 -0.0917435
v -0.259905 0.935313 -0.0866503
v -0.25482 0.927601 -0.0917435
v -0.214082 0.713511 -0.112138
v -0.234423 -0.795035 -0.0917435
v -0.224253 -0.805317 -0.0917435
v -0.219167 -0.830839 -0.0866503
v -0.229338 -0.830839 -0.0764419
v -0.237832 -0.829003 0.00678362
v -0.208941 -0.851219 -0.0764419
v -0.217435 -0.849383 -0.0645432
v -0.207265 -0.859666 -0.033962
v -0.227661 -0.839285 0.00678362
v -0.241241 -0.822209 0.0135892
v -0.227661 -0.808622 0.0985271
v -0.220844 -0.81211 0.105333
v -0.229338 -0.800176 0.10957
v -0.239564 -0.779795 0.10957
v -0.244649 -0.754273 0.112138
v -0.251411 0.682848 0.108735
v -0.244649 0.682848 0.112138
v -0.248058 0.689642 0.108735
v -0.278625 0.924113 0.01697
v 0.275217 0.937884 -0.0305812
v 0.275217 0.927601 0.0101864
v -0.265046 0.937884 -0.0713487
v 0.224253 -0.591227 -0.112138
v -0.0611344 -0.907221 -0.0917435
v -0.0917016 -0.896938 -0.0917435
v -0.112098 -0.88684 -0.0917435
v -0.152892 -0.866459 -0.0917435
v -0.173289 -0.856177 -0.0917435
v -0.183459 -0.846078 -0.0917435
v 0.25482 0.934395 -0.0883407
v -0.25482 0.934395 -0.0883407
v -0.25482 0.937884 -0.0815351
v 0.25482 0.937884 -0.0815351
v 0.259905 0.932743 -0.0891969
v 0.25482 0.927601 -0.0917435
v 0.163062 0.856177 -0.112138
v -0.198771 -0.851219 -0.0866503
v -0.188544 -0.861318 -0.0866503
v -0.186868 -0.869764 -0.0747515
v -0.176697 -0.880046 -0.0645432
v -0.207265 -0.859666 0.00678362
v -0.217435 -0.818904 0.0985271
v -0.200447 -0.832491 0.105333
v -0.198771 -0.830839 0.10957
v -0.214082 -0.805317 0.112138
v -0.224253 -0.795035 0.112138
v 0.244649 0.682848 0.112138
v -0.244649 0.713511 0.10193
v -0.248058 0.720305 0.0985271
v -0.275217 0.917319 0.0203728
v 0.271808 0.924113 0.01697
v 0.282034 0.934395 -0.033962
v 0.275217 0.937884 -0.0611623
v 0.280302 0.92246 0.0152796
v 0.282034 0.924113 0.00678362
v 0.23107 -0.591227 -0.108735
v 0.25482 -0.754273 -0.0917435
v 0.244649 -0.774654 -0.0917435
v 0.234423 -0.795035 -0.0917435
v 0.224253 -0.805317 -0.0917435
v 0.183459 -0.846078 -0.0917435
v 0.152892 -0.866459 -0.0917435
v 0.112098 -0.88684 -0.0917435
v 0.0917016 -0.896938 -0.0917435
v 0.0611344 -0.907221 -0.0917435
v 0.224253 0.703413 -0.112138
v -0.0645432 -0.920808 -0.0849379
v -0.107013 -0.90208 -0.0866503
v -0.0951104 -0.910526 -0.0849379
v -0.12741 -0.891981 -0.0866503
v -0.168203 -0.8716 -0.0866503
v 0.265046 0.935313 -0.0828084
v 0.265046 0.937884 -0.0713487
v 0.268399 0.927601 -0.0849379
v 0.229338 0.70837 -0.10957
v 0.203856 0.825698 -0.112138
v 0.193685 0.846078 -0.112138
v 0.183459 0.856177 -0.112138
v -0.176697 -0.869764 -0.0849379
v -0.168203 -0.881699 -0.0764419
v -0.174965 -0.878394 -0.0730392
v -0.176697 -0.880046 0.00678362
v -0.156301 -0.890145 -0.0747515
v -0.135904 -0.900427 -0.0747515
v -0.122325 -0.907221 -0.0713487
v -0.200447 -0.862971 0.0135892
v -0.190277 -0.84259 0.105333
v -0.197038 -0.839285 0.0985271
v -0.188544 -0.840937 0.10957
v -0.193685 -0.825698 0.112138
v 0.251411 0.679543 0.108735
v 0.282034 0.914014 0.01697
v 0.275217 0.917319 0.0203728
v 0.244649 0.713511 0.10193
v 0.244649 -0.764555 0.112138
v 0.282034 0.934395 -0.0645432
v 0.285443 0.917319 0.0101864
v 0.285443 0.927601 -0.0305812
v 0.275217 0.935313 -0.072622
v 0.268399 -0.754273 -0.0849379
v 0.261637 -0.754273 -0.0883407
v 0.23107 0.703413 -0.108735
v 0.256105 -0.764555 -0.0891969
v 0.245935 -0.784936 -0.0891969
v 0.235708 -0.805317 -0.0891969
v 0.194915 -0.846078 -0.0891969
v 0.164348 -0.866459 -0.0891969
v 0.156301 -0.873253 -0.0883407
v 0.115507 -0.893633 -0.0883407
v 0.0951104 -0.903732 -0.0883407
v 0.0645432 -0.914014 -0.0883407
v 0.0577256 -0.920808 -0.0849379
v -0.0611344 -0.927601 -0.0713487
v -0.0764459 -0.92246 -0.0764419
v -0.107013 -0.912362 -0.0764419
v -0.124001 -0.898775 -0.0832475
v -0.144398 -0.888492 -0.0832475
v 0.278625 0.927601 -0.0747515
v -0.122325 -0.907221 0.0101864
v -0.149483 -0.893633 0.0135892
v -0.16988 -0.883351 0.0135892
v -0.101928 -0.917319 -0.0611623
v -0.10869 -0.914014 -0.0577596
v -0.159709 -0.862971 0.105333
v -0.183459 -0.835796 0.112138
v -0.157977 -0.861318 0.10957
v 0.25482 0.682848 0.10193
v 0.251411 -0.76786 0.108735
v 0.224253 -0.795035 0.112138
v 0.224253 -0.806602 0.10957
v 0.244649 -0.775939 0.10957
v 0.285443 0.927601 -0.0611623
v 0.280302 0.932743 -0.0688021
v 0.285443 -0.744174 0.0101864
v 0.278625 -0.744174 -0.0747515
v 0.279016 -0.754273 -0.0713487
v 0.272646 -0.759414 -0.0764419
v 0.248058 -0.795035 -0.0849379
v 0.236994 -0.810274 -0.0866503
v 0.226823 -0.820556 -0.0866503
v 0.216597 -0.830839 -0.0866503
v 0.1962 -0.851219 -0.0866503
v 0.165633 -0.8716 -0.0866503
v 0.124839 -0.891981 -0.0866503
v 0.104443 -0.90208 -0.0866503
v 0.0883487 -0.910526 -0.0849379
v 0.0645432 -0.924113 -0.0781543
v 0.0611344 -0.927601 -0.0713487
v 0.104443 -0.912362 -0.0764419
v 0 -0.937884 -0.0305812
v -0.0713607 -0.927601 -0.0611623
v -0.0696284 -0.925949 -0.0696583
v -0.10869 -0.914014 0.0135892
v -0.139313 -0.873253 0.105333
v -0.101928 -0.917319 0.0101864
v -0.152892 -0.856177 0.112138
v -0.13758 -0.8716 0.10957
v 0.25482 -0.764555 0.10193
v 0.23107 -0.798523 0.108735
v 0.249735 -0.772083 0.107023
v 0.248058 -0.778142 0.10193
v 0.214082 -0.805317 0.112138
v 0.217435 -0.818904 0.10193
v 0.227661 -0.808622 0.10193
v 0.229338 -0.802746 0.107023
v 0.203856 -0.826983 0.10957
v 0.285443 -0.744174 -0.0611623
v 0.265046 -0.784936 0.0101864
v 0.282872 -0.749132 -0.0662555
v 0.258676 -0.795035 -0.0713487
v 0.252305 -0.800176 -0.0764419
v 0.244649 -0.805317 -0.0815351
v 0.226823 -0.830839 -0.0764419
v 0.206426 -0.851219 -0.0764419
v 0.180944 -0.8716 -0.0764419
v 0.176697 -0.873253 -0.0781543
v 0.146074 -0.893633 -0.0781543
v 0.125678 -0.903732 -0.0781543
v 0.103213 -0.914932 -0.0713487
v 0.0713607 -0.927601 -0.0305812
v 0.101928 -0.917319 -0.0611623
v 0 -0.937884 0.0101864
v -0.0713607 -0.927601 0.0101864
v -0.0985191 -0.893633 0.105333
v -0.0968427 -0.891981 0.10957
v -0.0917016 -0.896938 0.10193
v -0.132495 -0.866459 0.112138
v 0.258229 -0.798523 0.0101864
v 0.193685 -0.825698 0.112138
v 0.197038 -0.839285 0.10193
v 0.227661 -0.839285 0.0101864
v 0.237832 -0.829003 0.0101864
v 0.193685 -0.837081 0.10957
v 0.265046 -0.784936 -0.0611623
v 0.262476 -0.789893 -0.0662555
v 0.258229 -0.798523 -0.0611623
v 0.227661 -0.839285 -0.0611623
v 0.248058 -0.808622 -0.0713487
v 0.186868 -0.869764 -0.0713487
v 0.217435 -0.849383 -0.0611623
v 0.156301 -0.890145 -0.0713487
v 0.150321 -0.891981 -0.0764419
v 0.122325 -0.907221 -0.0713487
v 0.0713607 -0.927601 0.0101864
v 0.10869 -0.914014 -0.0611623
v 0.107013 -0.914932 0.0152796
v 0.101928 -0.917319 0.0101864
v -0.0611344 -0.907221 0.10193
v 0.0611344 -0.907221 0.10193
v -0.0679519 -0.903732 0.105333
v -0.0662196 -0.90208 0.10957
v -0.0611344 -0.896938 0.112138
v -0.0917016 -0.88684 0.112138
v 0.183459 -0.835796 0.112138
v 0.188544 -0.843508 0.107023
v 0.207265 -0.859666 0.0101864
v 0.237832 -0.829003 -0.0305812
v 0.152892 -0.856177 0.112138
v 0.163062 -0.857462 0.10957
v 0.157977 -0.863889 0.107023
v 0.207265 -0.859666 -0.0305812
v 0.176697 -0.880046 -0.0611623
v 0.149483 -0.893633 -0.0713487
v 0.147807 -0.894552 0.0152796
v 0.0764459 -0.925031 0.0152796
v 0.0968427 -0.894552 0.107023
v 0.0662196 -0.90465 0.107023
v -0.0611344 -0.903732 0.108735
v 0.0611344 -0.903732 0.108735
v 0.0611344 -0.896938 0.112138
v 0.198771 -0.863889 0.0152796
v 0.176697 -0.880046 0.0101864
v 0.132495 -0.866459 0.112138
v 0.142721 -0.867744 0.10957
v 0.168203 -0.884269 0.0152796
v 0.101928 -0.888125 0.10957
v 0.0917016 -0.893633 0.108735
v 0.0917016 -0.88684 0.112138
f 1 2 3
f 1 3 4
f 1 4 12
f 1 12 5
f 1 5 15
f 1 15 16
f 1 16 6
f 1 6 9
f 1 9 2
f 2 7 8
f 2 8 3
f 2 9 25
f 2 25 7
f 3 8 10
f 3 10 4
f 4 10 11
f 4 11 30
f 4 30 33
f 4 33 12
f 5 12 33
f 5 33 13
f 5 13 35
f 5 35 14
f 5 14 39
f 5 39 15
f 6 16 17
f 6 17 18
f 6 18 19
f 6 19 20
f 6 20 9
f 7 21 22
f 7 22 23
f 7 23 27
f 7 27 24
f 7 24 8
f 7 25 26
f 7 26 21
f 8 24 10
f 9 20 26
f 9 26 25
f 10 24 27
f 10 27 28
f 10 28 29
f 10 29 11
f 11 29 31
f 11 31 32
f 11 32 56
f 11 56 30
f 13 33 34
f 13 34 35
f 14 35 36
f 14 36 37
f 14 37 38
f 14 38 40
f 14 40 39
f 15 39 40
f 15 40 41
f 15 41 17
f 15 17 16
f 17 42 43
f 17 43 18
f 17 41 44
f 17 44 42
f 18 43 19
f 19 43 42
f 19 42 45
f 19 45 73
f 19 73 46
f 19 46 20
f 20 46 26
f 21 47 22
f 21 26 51
f 21 51 47
f 22 48 27
f 22 27 23
f 22 47 48
f 26 46 49
f 26 49 50
f 26 50 51
f 27 29 28
f 27 48 52
f 27 52 53
f 27 53 54
f 27 54 55
f 27 55 29
f 29 55 31
f 30 56 61
f 30 61 33
f 31 55 57
f 31 57 58
f 31 58 59
f 31 59 92
f 31 92 60
f 31 60 56
f 31 56 32
f 33 61 34
f 34 61 56
f 34 56 62
f 34 62 93
f 34 93 63
f 34 63 64
f 34 64 65
f 34 65 36
f 34 36 35
f 36 65 66
f 36 66 37
f 37 66 68
f 37 68 67
f 37 67 40
f 37 40 38
f 40 67 68
f 40 68 69
f 40 69 41
f 41 70 44
f 41 69 70
f 42 71 104
f 42 104 124
f 42 124 84
f 42 84 83
f 42 83 73
f 42 73 45
f 42 44 72
f 42 72 71
f 44 70 102
f 44 102 72
f 46 73 49
f 47 74 116
f 47 116 75
f 47 75 76
f 47 76 77
f 47 77 78
f 47 78 79
f 47 79 80
f 47 80 53
f 47 53 52
f 47 52 48
f 47 51 87
f 47 87 129
f 47 129 128
f 47 128 127
f 47 127 117
f 47 117 74
f 49 81 82
f 49 82 50
f 49 73 83
f 49 83 84
f 49 84 81
f 50 82 85
f 50 85 86
f 50 86 129
f 50 129 87
f 50 87 51
f 53 80 88
f 53 88 54
f 54 88 57
f 54 57 55
f 56 60 62
f 57 88 89
f 57 89 90
f 57 90 58
f 58 90 91
f 58 91 59
f 59 91 133
f 59 133 92
f 60 92 139
f 60 139 93
f 60 93 62
f 63 93 139
f 63 139 94
f 63 94 95
f 63 95 64
f 64 96 97
f 64 97 65
f 64 95 96
f 65 97 66
f 66 97 96
f 66 96 141
f 66 141 176
f 66 176 207
f 66 207 238
f 66 238 264
f 66 264 263
f 66 263 281
f 66 281 289
f 66 289 284
f 66 284 269
f 66 269 265
f 66 265 240
f 66 240 213
f 66 213 180
f 66 180 146
f 66 146 98
f 66 98 68
f 68 98 145
f 68 145 99
f 68 99 100
f 68 100 69
f 69 100 70
f 70 101 144
f 70 144 102
f 70 100 99
f 70 99 101
f 71 103 147
f 71 147 104
f 71 72 103
f 72 102 105
f 72 105 106
f 72 106 103
f 74 107 152
f 74 152 108
f 74 108 109
f 74 109 110
f 74 110 111
f 74 111 112
f 74 112 113
f 74 113 114
f 74 114 115
f 74 115 116
f 74 117 153
f 74 153 107
f 75 116 162
f 75 162 163
f 75 163 118
f 75 118 120
f 75 120 76
f 76 119 121
f 76 121 77
f 76 120 119
f 77 121 122
f 77 122 78
f 78 122 79
f 79 122 89
f 79 89 88
f 79 88 80
f 81 123 85
f 81 85 82
f 81 84 123
f 84 124 123
f 85 123 125
f 85 125 126
f 85 126 117
f 85 117 86
f 86 127 128
f 86 128 129
f 86 117 127
f 89 122 130
f 89 130 131
f 89 131 90
f 90 131 132
f 90 132 91
f 91 132 134
f 91 134 135
f 91 135 136
f 91 136 170
f 91 170 133
f 92 137 138
f 92 138 139
f 92 133 172
f 92 172 137
f 94 139 138
f 94 138 95
f 95 138 140
f 95 140 176
f 95 176 141
f 95 141 96
f 98 142 143
f 98 143 144
f 98 144 145
f 98 146 179
f 98 179 142
f 99 145 144
f 99 144 101
f 102 144 105
f 103 106 148
f 103 148 149
f 103 149 183
f 103 183 147
f 104 147 150
f 104 150 123
f 104 123 124
f 105 144 143
f 105 143 148
f 105 148 106
f 107 151 152
f 107 153 125
f 107 125 151
f 108 152 154
f 108 154 155
f 108 155 109
f 109 155 156
f 109 156 110
f 110 156 111
f 111 156 157
f 111 157 112
f 112 157 158
f 112 158 113
f 113 158 159
f 113 159 160
f 113 160 114
f 114 160 161
f 114 161 115
f 115 161 162
f 115 162 116
f 117 126 153
f 118 163 199
f 118 199 164
f 118 164 165
f 118 165 166
f 118 166 120
f 119 167 121
f 119 120 167
f 120 166 167
f 121 167 122
f 122 167 168
f 122 168 130
f 123 150 169
f 123 169 125
f 125 153 126
f 125 169 186
f 125 186 151
f 130 168 134
f 130 134 131
f 131 134 132
f 133 170 171
f 133 171 172
f 134 168 167
f 134 167 135
f 135 167 166
f 135 166 136
f 136 166 173
f 136 173 174
f 136 174 204
f 136 204 170
f 137 172 175
f 137 175 138
f 138 175 177
f 138 177 140
f 140 177 207
f 140 207 176
f 142 178 148
f 142 148 143
f 142 179 209
f 142 209 178
f 146 180 181
f 146 181 182
f 146 182 179
f 147 183 169
f 147 169 184
f 147 184 150
f 148 178 209
f 148 209 185
f 148 185 218
f 148 218 183
f 148 183 149
f 150 184 169
f 151 186 187
f 151 187 188
f 151 188 222
f 151 222 189
f 151 189 155
f 151 155 154
f 151 154 152
f 155 189 156
f 156 189 190
f 156 190 191
f 156 191 192
f 156 192 193
f 156 193 157
f 157 193 194
f 157 194 158
f 158 194 159
f 159 194 195
f 159 195 160
f 160 195 196
f 160 196 161
f 161 196 197
f 161 197 162
f 162 197 163
f 163 198 199
f 163 197 200
f 163 200 198
f 164 201 202
f 164 202 203
f 164 203 165
f 164 199 201
f 165 203 202
f 165 202 166
f 166 202 173
f 169 183 218
f 169 218 186
f 170 204 171
f 171 204 235
f 171 235 205
f 171 205 175
f 171 175 172
f 173 202 234
f 173 234 206
f 173 206 204
f 173 204 174
f 175 205 208
f 175 208 177
f 177 208 238
f 177 238 207
f 179 182 210
f 179 210 211
f 179 211 212
f 179 212 209
f 180 213 181
f 181 214 215
f 181 215 216
f 181 216 210
f 181 210 182
f 181 213 240
f 181 240 217
f 181 217 241
f 181 241 214
f 185 209 212
f 185 212 219
f 185 219 245
f 185 245 218
f 186 218 220
f 186 220 187
f 187 220 221
f 187 221 222
f 187 222 188
f 189 222 223
f 189 223 190
f 190 223 224
f 190 224 191
f 191 224 192
f 192 224 225
f 192 225 193
f 193 225 226
f 193 226 227
f 193 227 194
f 194 227 228
f 194 228 195
f 195 228 229
f 195 229 196
f 196 229 197
f 197 229 200
f 198 200 230
f 198 230 199
f 199 231 201
f 199 230 232
f 199 232 231
f 200 229 230
f 201 233 234
f 201 234 202
f 201 231 255
f 201 255 233
f 204 206 235
f 205 235 236
f 205 236 208
f 206 234 259
f 206 259 237
f 206 237 235
f 208 236 238
f 210 216 211
f 211 216 212
f 212 216 215
f 212 215 243
f 212 243 239
f 212 239 219
f 214 241 267
f 214 267 242
f 214 242 215
f 215 242 243
f 217 240 244
f 217 244 241
f 218 245 246
f 218 246 220
f 219 239 247
f 219 247 245
f 220 246 221
f 221 246 247
f 221 247 248
f 221 248 249
f 221 249 222
f 222 249 224
f 222 224 223
f 224 248 225
f 224 249 248
f 225 250 226
f 225 248 251
f 225 251 250
f 226 250 252
f 226 252 253
f 226 253 228
f 226 228 227
f 228 253 254
f 228 254 229
f 229 254 230
f 230 254 232
f 231 232 258
f 231 258 255
f 232 254 256
f 232 256 257
f 232 257 258
f 233 259 234
f 233 255 260
f 233 260 259
f 235 237 259
f 235 259 261
f 235 261 236
f 236 261 262
f 236 262 263
f 236 263 264
f 236 264 238
f 239 243 268
f 239 268 247
f 240 265 244
f 241 244 266
f 241 266 282
f 241 282 267
f 242 267 272
f 242 272 248
f 242 248 268
f 242 268 243
f 244 265 269
f 244 269 270
f 244 270 271
f 244 271 266
f 245 247 246
f 247 268 248
f 248 272 251
f 250 251 273
f 250 273 252
f 251 272 273
f 252 273 274
f 252 274 253
f 253 274 254
f 254 274 273
f 254 273 275
f 254 275 257
f 254 257 256
f 255 258 257
f 255 257 276
f 255 276 278
f 255 278 260
f 257 275 277
f 257 277 276
f 259 260 278
f 259 278 279
f 259 279 262
f 259 262 261
f 262 279 280
f 262 280 281
f 262 281 263
f 266 271 286
f 266 286 282
f 267 282 286
f 267 286 283
f 267 283 273
f 267 273 272
f 269 284 285
f 269 285 270
f 270 285 271
f 271 285 277
f 271 277 275
f 271 275 286
f 273 283 275
f 275 283 286
f 276 277 278
f 277 287 288
f 277 288 280
f 277 280 278
f 277 285 287
f 278 280 279
f 280 288 289
f 280 289 281
f 284 289 287
f 284 287 285
f 287 289 288
