# https://github.com/mikedh/trimesh
v 0.49288900 -0.19467600 0.31565000
v 0.49288900 -0.24552800 0.33318700
v 0.49288900 -0.19467600 0.20538300
v 0.24535700 -0.19467600 0.31565000
v 0.49288900 -0.42085700 0.33948800
v 0.24535700 -0.24552800 0.33318700
v 0.49288900 -0.43057100 0.20538300
v 0.24535700 -0.19467600 0.20538300
v 0.49288900 -0.43839700 0.33692900
v 0.24535700 -0.28058400 0.33318700
v 0.35073200 -0.40331600 0.33318700
v 0.49288900 -0.44215200 0.31751400
v 0.35073200 -0.42085700 0.20538300
v 0.24535700 -0.29526500 0.20538300
v 0.49288900 -0.44215200 0.33505100
v 0.34196100 -0.41208600 0.32880300
v 0.24535700 -0.28070500 0.33313500
v 0.35073200 -0.42085700 0.31565000
v 0.34496600 -0.41942700 0.20538300
v 0.24535700 -0.29819700 0.21029200
v 0.24540500 -0.29926300 0.20538300
v 0.35073200 -0.41501800 0.32733300
v 0.33905300 -0.41501800 0.32149100
v 0.24535700 -0.29228500 0.32733300
v 0.33604900 -0.41576900 0.20538300
v 0.24535700 -0.29812400 0.31565000
v 0.24535700 -0.29233400 0.32724100
f 5 11 9
f 13 18 19
f 12 18 13
f 12 15 18
f 10 16 11
f 9 11 16
f 9 16 15
f 7 12 13
f 14 21 20
f 10 17 16
f 15 16 22
f 23 24 27
f 16 23 22
f 16 17 24
f 16 24 23
f 18 22 23
f 18 23 25
f 18 25 19
f 20 21 26
f 21 25 26
f 23 27 26
f 23 26 25
f 5 10 11
f 15 22 18
f 5 6 10
f 4 8 14
f 4 17 10
f 4 10 6
f 1 2 5
f 1 5 9
f 1 9 15
f 1 15 12
f 1 7 3
f 1 3 8
f 1 8 4
f 1 4 6
f 1 6 2
f 2 6 5
f 1 12 7
f 3 13 19
f 3 19 25
f 3 25 21
f 3 21 14
f 3 14 8
f 4 14 20
f 4 20 26
f 4 26 27
f 4 27 24
f 3 7 13
f 4 24 17

