# https://github.com/mikedh/trimesh
v -0.63133300 0.45594500 -0.00584544
v -0.63133300 0.45594500 -0.03507470
v -0.66635300 0.44425100 -0.00584544
v -0.52609400 0.44425100 -0.00584544
v -0.63133300 0.45008300 -0.04675760
v -0.64008100 0.45154100 -0.04383850
v -0.54364900 0.43839000 -0.03507470
v -0.52609400 0.43401600 -0.03727040
v -0.67804600 0.43255800 -0.07011710
v -0.68456200 0.43514700 -0.00584544
v -0.50752800 0.43907400 -0.00584544
v -0.54364900 0.43255800 -0.04675760
v -0.62255600 0.44716700 -0.04822350
v -0.66421100 0.43476000 -0.07011710
v -0.66635300 0.43449200 -0.07011710
v -0.51734700 0.42961300 -0.03945340
v -0.53487200 0.42961300 -0.04822350
v -0.72481900 0.40917200 -0.07011710
v -0.72481900 0.40917200 -0.03507470
v -0.73716700 0.40006700 -0.00584544
v -0.50660600 0.43839000 -0.00584544
v -0.57655700 0.41723500 -0.07011710
v -0.51294300 0.42086500 -0.03727040
v -0.51734700 0.41208800 -0.04822350
v -0.75989800 0.37409200 -0.07011710
v -0.75112100 0.38578500 -0.00584544
v -0.50270800 0.42086500 -0.00584544
v -0.56733300 0.40331000 -0.07011710
v -0.51440100 0.40331000 -0.04675760
v -0.50857000 0.40331000 -0.03507470
v -0.55495500 0.37757300 -0.07011710
v -0.78331500 0.32726000 -0.07011710
v -0.78911600 0.32928300 -0.00584544
v -0.78846200 0.33056300 -0.00584544
v -0.75989800 0.37409200 -0.03507470
v -0.75478100 0.38188800 -0.00584544
v -0.50270800 0.38578500 -0.00584544
v -0.51294300 0.37700800 -0.04383850
v -0.51440100 0.38578500 -0.04675760
v -0.50857000 0.38578500 -0.03507470
v -0.55495500 0.36826100 -0.07011710
v -0.78560600 0.31913700 -0.07011710
v -0.80667100 0.28060600 -0.03507470
v -0.80372600 0.29375800 -0.00584544
v -0.51115800 0.36888500 -0.00584544
v -0.55900200 0.35508000 -0.07011710
v -0.70583600 0.16662000 -0.04383850
v -0.78474300 0.31565600 -0.07011710
v -0.80081000 0.28643800 -0.04675760
v -0.80667100 0.28060600 -0.00584544
v -0.79789400 0.27182900 -0.04383850
v -0.76281400 0.16662000 -0.04383850
v -0.77742300 0.16953600 -0.00584544
v -0.70405100 0.15849800 -0.00584544
v -0.58310200 0.33097900 -0.07011710
v -0.71312600 0.16367500 -0.04675760
v -0.70729400 0.16367500 -0.03507470
v -0.75406700 0.22972800 -0.07011710
v -0.76281400 0.21922500 -0.06137220
v -0.75989800 0.15198200 -0.00584544
v -0.77159200 0.15784300 -0.00584544
v -0.75989800 0.20461600 -0.05845310
v -0.75249000 0.22642500 -0.07011710
v -0.74528900 0.21919500 -0.07011710
v -0.73651200 0.17536800 -0.05260850
v -0.73068000 0.16367500 -0.04675760
v -0.73651200 0.15784300 -0.03507470
v -0.70533000 0.15784300 -0.00584544
v -0.69926100 0.21044700 -0.06575730
v -0.70268200 0.21541600 -0.07011710
v -0.71898700 0.15784300 -0.03507470
v -0.71898700 0.17536800 -0.05260850
v -0.71312600 0.19875400 -0.06429770
v -0.72481900 0.15198200 -0.00584544
v -0.71901700 0.21041800 -0.07011710
v -0.71883800 0.21044700 -0.07011710
f 73 75 76
f 37 45 38
f 37 38 40
f 38 46 39
f 38 45 54
f 38 54 47
f 38 47 46
f 43 50 44
f 42 48 49
f 42 49 43
f 43 49 51
f 43 51 52
f 43 53 50
f 43 52 53
f 39 46 41
f 33 43 44
f 24 29 31
f 32 42 43
f 46 47 56
f 23 30 29
f 24 31 28
f 25 32 33
f 25 33 34
f 25 34 35
f 25 35 36
f 25 36 26
f 27 37 40
f 27 40 30
f 29 30 38
f 29 38 39
f 29 39 41
f 29 41 31
f 30 40 38
f 32 43 33
f 46 56 55
f 65 73 72
f 47 57 56
f 56 66 65
f 56 65 72
f 56 72 73
f 56 73 70
f 56 70 69
f 57 68 71
f 58 63 59
f 59 63 62
f 60 67 71
f 60 71 74
f 64 75 65
f 65 75 73
f 68 74 71
f 70 73 76
f 23 27 30
f 56 67 66
f 47 54 57
f 56 71 67
f 55 69 70
f 48 58 59
f 48 59 49
f 49 59 52
f 49 52 51
f 52 60 61
f 52 61 53
f 52 59 62
f 52 62 63
f 52 63 64
f 52 64 65
f 52 65 66
f 52 66 67
f 52 67 60
f 54 68 57
f 55 56 69
f 56 57 71
f 23 29 24
f 34 36 35
f 21 27 23
f 1 21 11
f 1 11 4
f 1 4 2
f 2 5 6
f 2 6 3
f 2 4 7
f 2 7 8
f 2 8 5
f 3 6 9
f 3 9 18
f 3 18 10
f 4 11 8
f 4 8 7
f 5 8 12
f 5 12 13
f 1 27 21
f 5 13 14
f 1 37 27
f 1 54 45
f 22 24 28
f 1 2 3
f 1 3 10
f 1 10 20
f 1 20 26
f 1 26 36
f 1 36 34
f 1 34 33
f 1 33 44
f 1 44 50
f 1 50 53
f 1 53 61
f 1 60 74
f 1 74 68
f 1 68 54
f 1 45 37
f 5 14 6
f 1 61 60
f 6 15 9
f 9 32 25
f 9 25 18
f 10 18 19
f 10 19 20
f 11 21 16
f 12 17 13
f 13 17 22
f 13 22 14
f 16 23 24
f 16 24 17
f 17 24 22
f 18 20 19
f 18 25 20
f 20 25 26
f 6 14 15
f 9 42 32
f 9 48 42
f 16 21 23
f 9 63 58
f 8 11 16
f 9 58 48
f 8 16 17
f 8 17 12
f 9 15 14
f 9 22 28
f 9 28 31
f 9 31 41
f 9 14 22
f 9 46 55
f 9 55 70
f 9 70 76
f 9 64 63
f 9 76 75
f 9 41 46
f 9 75 64

