# https://github.com/mikedh/trimesh
v -0.05260900 -0.10522500 -0.19289300
v -0.05260900 -0.14029100 -0.19289300
v -0.05260900 -0.10522500 -0.26304100
v -0.05845900 -0.09353170 -0.19873200
v -0.07415520 -0.09167780 -0.01805730
v -0.07015910 -0.10522500 -0.01805730
v -0.05845900 -0.15197700 -0.19289300
v -0.05699650 -0.14905900 -0.27178600
v -0.05260900 -0.14029100 -0.26304100
v -0.07015910 -0.14029100 -0.01805730
v -0.07032380 -0.14063400 -0.01805730
v -0.06140460 -0.10520400 -0.29810200
v -0.06313490 -0.09820760 -0.29810200
v -0.05845900 -0.09353170 -0.26888000
v -0.07015910 -0.08768850 -0.19289300
v -0.08768850 -0.08768850 -0.01805730
v -0.06138400 -0.15343900 -0.18412100
v -0.05845900 -0.15197700 -0.26304100
v -0.07600910 -0.15197700 -0.01805730
v -0.07015910 -0.15124900 -0.29810200
v -0.06140460 -0.14027000 -0.29810200
v -0.07261030 -0.09084010 -0.29810200
v -0.07015910 -0.08768850 -0.26304100
v -0.22796500 -0.08768850 -0.01805730
v -0.07015910 -0.15782700 -0.19289300
v -0.07633870 -0.15214900 -0.01805730
v -0.08768850 -0.15782700 -0.01805730
v -0.07015910 -0.15782700 -0.26304100
v -0.06795500 -0.15343900 -0.28055800
v -0.08768850 -0.15782700 -0.29810200
v -0.08768850 -0.08768850 -0.29810200
v -0.22831600 -0.08786020 -0.01805730
v -0.24549500 -0.08768850 -0.19289300
v -0.22796500 -0.15782700 -0.01805730
v -0.21041500 -0.15782700 -0.29810200
v -0.22796500 -0.08768850 -0.29810200
v -0.23964500 -0.09353170 -0.01805730
v -0.25719500 -0.09353170 -0.19289300
v -0.24549500 -0.08768850 -0.26304100
v -0.25427000 -0.09206920 -0.27178600
v -0.23964500 -0.15197700 -0.01805730
v -0.25719500 -0.15197700 -0.18702700
v -0.24549500 -0.15782700 -0.19289300
v -0.22798600 -0.15780600 -0.29810200
v -0.24549500 -0.15782700 -0.26304100
v -0.23964500 -0.09352480 -0.29810200
v -0.23983000 -0.09387500 -0.01805730
v -0.25865700 -0.09645670 -0.18412100
v -0.25719500 -0.09353170 -0.26304100
v -0.26304500 -0.10522500 -0.19289300
v -0.25719500 -0.09937480 -0.27471900
v -0.24524800 -0.14080600 -0.01805730
v -0.26304500 -0.14029100 -0.19289300
v -0.25719500 -0.15197700 -0.25717500
v -0.24549500 -0.14029100 -0.01805730
v -0.23964500 -0.15197700 -0.29810200
v -0.24551500 -0.10523200 -0.29810200
v -0.24549500 -0.10522500 -0.01805730
v -0.26304500 -0.10522500 -0.26304100
v -0.26304500 -0.14029100 -0.26304100
v -0.25134500 -0.14613400 -0.28642400
v -0.24547400 -0.14031800 -0.29810200
v -0.24551500 -0.12276100 -0.29810200
f 25 35 30
f 25 30 28
f 32 33 38
f 32 38 37
f 33 39 40
f 37 38 48
f 34 41 42
f 34 42 43
f 35 45 44
f 36 46 40
f 36 40 39
f 33 40 38
f 25 45 35
f 20 29 28
f 25 34 43
f 25 27 34
f 24 33 32
f 22 31 23
f 20 28 30
f 18 29 20
f 18 28 29
f 17 27 25
f 17 26 27
f 17 19 26
f 15 24 16
f 15 33 24
f 37 48 47
f 25 43 45
f 38 40 49
f 47 48 58
f 38 59 50
f 15 39 33
f 61 63 62
f 60 63 61
f 57 60 59
f 57 63 60
f 56 61 62
f 54 61 56
f 54 60 61
f 51 57 59
f 50 55 58
f 50 53 55
f 50 60 53
f 50 59 60
f 38 49 59
f 49 51 59
f 46 57 51
f 45 54 56
f 44 45 56
f 42 55 53
f 42 52 55
f 42 45 43
f 42 54 45
f 42 60 54
f 42 53 60
f 41 52 42
f 40 51 49
f 40 46 51
f 38 50 48
f 48 50 58
f 15 36 39
f 7 18 8
f 15 23 31
f 5 41 34
f 5 52 41
f 5 55 52
f 5 58 55
f 5 47 58
f 5 37 47
f 5 32 37
f 5 24 32
f 5 16 24
f 4 15 5
f 4 23 15
f 4 14 23
f 3 13 14
f 3 12 13
f 3 21 12
f 3 9 21
f 2 11 7
f 2 10 11
f 2 8 9
f 2 7 8
f 1 10 2
f 1 6 10
f 1 5 6
f 1 4 5
f 1 14 4
f 1 3 14
f 1 9 3
f 5 34 27
f 5 27 26
f 1 2 9
f 5 19 11
f 14 22 23
f 13 22 14
f 12 22 13
f 12 31 22
f 12 36 31
f 12 46 36
f 12 57 46
f 5 26 19
f 12 62 63
f 12 56 62
f 12 44 56
f 12 35 44
f 12 30 35
f 12 63 57
f 12 21 20
f 12 20 30
f 5 10 6
f 5 15 16
f 7 17 25
f 7 25 28
f 7 28 18
f 5 11 10
f 7 11 19
f 7 19 17
f 8 18 20
f 8 20 21
f 8 21 9
f 15 31 36

