# https://github.com/mikedh/trimesh
v -0.07015120 -0.08768160 -0.31565700
v -0.05846270 -0.09353940 -0.32150400
v -0.07015120 -0.08768160 -0.33318700
v -0.08769340 -0.08768160 -0.29810200
v -0.07260600 -0.09084480 -0.29810200
v -0.05260900 -0.10522100 -0.31565700
v -0.05846270 -0.09353940 -0.33903300
v -0.06138950 -0.09645150 -0.30689000
v -0.06138950 -0.09645150 -0.34633800
v -0.07015120 -0.09353940 -0.34488000
v -0.23673600 -0.09206660 -0.34195400
v -0.22795500 -0.08768160 -0.33318700
v -0.22795500 -0.08768160 -0.29810200
v -0.06314560 -0.09820880 -0.29810200
v -0.05260900 -0.14030100 -0.31565700
v -0.05260900 -0.10522100 -0.33318700
v -0.06138950 -0.10520500 -0.29810200
v -0.05846270 -0.10522100 -0.34488000
v -0.07015120 -0.10522100 -0.35072700
v -0.22795500 -0.10522100 -0.35072700
v -0.22795500 -0.09353940 -0.34488000
v -0.23966300 -0.09938040 -0.34488000
v -0.23966300 -0.09353940 -0.33318700
v -0.23964400 -0.09352270 -0.29810200
v -0.05260900 -0.14030100 -0.33318700
v -0.06138950 -0.14028400 -0.29810200
v -0.05846270 -0.14614200 -0.30396400
v -0.09207420 -0.25427600 -0.32441900
v -0.05846270 -0.14030100 -0.34488000
v -0.07015120 -0.14030100 -0.35072700
v -0.22795500 -0.14030100 -0.35072700
v -0.23966300 -0.13446000 -0.34488000
v -0.24549800 -0.10522100 -0.33318700
v -0.24551700 -0.10523800 -0.29810200
v -0.23966300 -0.09353940 -0.29812200
v -0.05700870 -0.14907100 -0.34195400
v -0.07015120 -0.15126300 -0.29810200
v -0.09352820 -0.25134700 -0.32150400
v -0.06431640 -0.15198300 -0.34488000
v -0.09645500 -0.25864400 -0.32441900
v -0.09938190 -0.25718800 -0.32734000
v -0.10523600 -0.24550600 -0.33318700
v -0.17534800 -0.24550600 -0.33318700
v -0.18412800 -0.25427600 -0.32441900
v -0.23673600 -0.14907100 -0.34195400
v -0.24549800 -0.14030100 -0.33318700
v -0.24551700 -0.12277800 -0.29810200
v -0.08769340 -0.15784100 -0.29810200
v -0.10523600 -0.24550600 -0.31565700
v -0.10523600 -0.25718800 -0.32150400
v -0.16658600 -0.25864400 -0.32441900
v -0.16951300 -0.25718800 -0.32734000
v -0.17534800 -0.25718800 -0.32150400
v -0.18412800 -0.25427600 -0.32004100
v -0.23966300 -0.15198300 -0.32734000
v -0.24549800 -0.14030100 -0.29812200
v -0.24547900 -0.14033400 -0.29810200
v -0.21043200 -0.15784100 -0.29810200
v -0.11399700 -0.25427600 -0.32004100
v -0.17534800 -0.24550600 -0.31565700
v -0.23966300 -0.15198300 -0.29810200
v -0.22799300 -0.15782400 -0.29810200
f 30 41 42
f 30 42 43
f 30 43 31
f 31 43 44
f 31 44 45
f 33 46 47
f 32 45 46
f 33 47 34
f 37 48 49
f 37 49 38
f 31 45 32
f 30 39 41
f 23 33 34
f 29 36 39
f 28 41 39
f 28 40 41
f 28 38 40
f 26 28 27
f 26 38 28
f 26 37 38
f 25 28 36
f 25 36 29
f 24 35 34
f 23 35 24
f 23 34 35
f 38 49 40
f 29 39 30
f 40 49 50
f 46 55 61
f 40 53 51
f 22 33 23
f 60 62 61
f 58 62 60
f 56 61 57
f 54 60 61
f 50 54 53
f 50 59 54
f 49 54 59
f 49 60 54
f 49 59 50
f 48 60 49
f 48 58 60
f 47 56 57
f 46 56 47
f 46 61 56
f 44 46 45
f 44 55 46
f 44 61 55
f 44 54 61
f 44 53 54
f 44 51 53
f 44 52 51
f 43 52 44
f 41 43 42
f 41 52 43
f 40 52 41
f 40 51 52
f 40 50 53
f 22 46 33
f 28 39 36
f 20 32 22
f 4 17 14
f 4 26 17
f 4 37 26
f 4 48 37
f 4 58 48
f 4 62 58
f 4 61 62
f 4 57 61
f 4 47 57
f 4 34 47
f 4 24 34
f 4 13 24
f 3 11 12
f 3 10 11
f 3 9 10
f 3 7 9
f 2 8 6
f 2 16 7
f 2 6 16
f 1 5 2
f 1 4 5
f 1 13 4
f 1 12 13
f 1 3 12
f 1 7 3
f 1 2 7
f 22 32 46
f 4 14 5
f 5 14 8
f 2 5 8
f 6 25 16
f 20 31 32
f 6 15 25
f 19 31 20
f 19 30 31
f 18 30 19
f 18 29 30
f 16 29 18
f 15 28 25
f 15 27 28
f 15 26 27
f 11 13 12
f 11 24 13
f 11 23 24
f 16 25 29
f 11 20 22
f 6 14 17
f 6 8 14
f 11 22 23
f 6 17 26
f 6 26 15
f 7 16 9
f 9 18 19
f 9 16 18
f 9 19 20
f 9 20 21
f 9 21 10
f 10 21 11
f 11 21 20

