# https://github.com/mikedh/trimesh
v 0.63132000 0.45594500 -0.01193740
v 0.63774100 0.45432400 -0.01193740
v 0.63132000 0.45594500 -0.03507990
v 0.52610300 0.44118700 -0.01193740
v 0.68204300 0.43653300 -0.01193740
v 0.62254200 0.45155600 -0.04384640
v 0.52610300 0.43838900 -0.03507990
v 0.67512100 0.43400000 -0.09644590
v 0.51732500 0.43400000 -0.04384640
v 0.51193400 0.43411800 -0.01193740
v 0.73465100 0.40145100 -0.01193740
v 0.72481300 0.40916800 -0.04676500
v 0.72481300 0.40916800 -0.11690800
v 0.71895100 0.41208500 -0.12275600
v 0.70142500 0.42086200 -0.12275600
v 0.62254200 0.41647300 -0.11397900
v 0.51440900 0.42669500 -0.04676500
v 0.51440900 0.43255600 -0.03507990
v 0.61376400 0.40330700 -0.12275600
v 0.50857600 0.42740200 -0.01193740
v 0.74236900 0.39164200 -0.11690800
v 0.76973300 0.34884300 -0.01193740
v 0.75989500 0.37408600 -0.04676500
v 0.75989500 0.37408600 -0.11690800
v 0.72775800 0.40330700 -0.12275600
v 0.63132000 0.40722400 -0.12275600
v 0.62254200 0.41208500 -0.11836200
v 0.60062600 0.38799000 -0.12274600
v 0.59040500 0.37408600 -0.12275600
v 0.57871100 0.35069800 -0.12275600
v 0.51440900 0.39164200 -0.04676500
v 0.50857600 0.42086200 -0.03507990
v 0.60062600 0.38796000 -0.12275600
v 0.50574900 0.41806400 -0.01193740
v 0.75403300 0.37703200 -0.12275600
v 0.78799600 0.31452600 -0.01193740
v 0.77742100 0.33903400 -0.02923190
v 0.79497700 0.30398100 -0.02923190
v 0.76281100 0.36822500 -0.12275600
v 0.77158900 0.35069800 -0.12275600
v 0.57871100 0.33317200 -0.12275600
v 0.50857600 0.38578000 -0.03507990
v 0.50574900 0.38298200 -0.01193740
v 0.80304800 0.27903200 -0.01193740
v 0.80667100 0.28059300 -0.03507990
v 0.80228200 0.27181500 -0.04384640
v 0.76063100 0.31561600 -0.12275600
v 0.58416100 0.31985800 -0.12275600
v 0.51732500 0.37700200 -0.04384640
v 0.51440900 0.37408600 -0.02923190
v 0.69862700 0.17257800 -0.01193740
v 0.80057400 0.26704300 -0.01193740
v 0.77438700 0.19290200 -0.01193740
v 0.76720000 0.18415400 -0.04384640
v 0.74746500 0.28059300 -0.12275600
v 0.65759400 0.23676200 -0.12275600
v 0.70728700 0.16368200 -0.02923190
v 0.70728700 0.16368200 -0.01193740
v 0.77135300 0.18683500 -0.01193740
v 0.76393000 0.17201800 -0.01193740
v 0.75989500 0.16954400 -0.03507990
v 0.75624200 0.17537600 -0.04822970
v 0.73871600 0.26745600 -0.12275600
v 0.66451600 0.23260900 -0.12275600
v 0.71020300 0.16659800 -0.04384640
v 0.71898100 0.15785000 -0.03507990
v 0.71618200 0.15502200 -0.01193740
v 0.75895200 0.16765900 -0.01193740
v 0.74976200 0.16120800 -0.01193740
v 0.74820100 0.16368200 -0.03507990
v 0.74967400 0.16659800 -0.04384640
v 0.74236900 0.16368200 -0.04676500
v 0.70728700 0.23967900 -0.12275600
v 0.66637200 0.23187300 -0.12275600
v 0.72481300 0.16368200 -0.04676500
v 0.73650700 0.15785000 -0.03507990
v 0.73370900 0.15502200 -0.01193740
v 0.74304600 0.15785000 -0.01193740
v 0.68389900 0.22798500 -0.12275600
f 36 38 37
f 42 49 50
f 40 45 46
f 40 46 47
f 41 48 42
f 42 48 49
f 36 44 45
f 45 52 53
f 43 50 57
f 43 57 51
f 44 52 45
f 45 53 46
f 46 53 54
f 32 43 34
f 46 54 55
f 42 50 43
f 32 42 43
f 21 24 35
f 28 33 29
f 46 55 47
f 17 32 18
f 17 19 28
f 18 32 20
f 19 27 26
f 19 33 28
f 20 32 34
f 31 41 42
f 21 35 25
f 22 37 23
f 23 37 38
f 23 38 24
f 24 39 35
f 24 38 45
f 24 45 40
f 24 40 39
f 22 36 37
f 48 50 49
f 64 74 65
f 50 56 57
f 17 42 32
f 65 74 66
f 66 74 75
f 66 75 72
f 66 72 76
f 66 76 77
f 66 77 67
f 69 78 70
f 70 78 76
f 70 76 71
f 71 76 72
f 72 75 79
f 72 79 73
f 74 79 75
f 76 78 77
f 62 73 63
f 62 72 73
f 62 71 72
f 61 71 62
f 51 57 58
f 53 59 54
f 54 59 60
f 54 60 61
f 54 61 62
f 54 62 63
f 54 63 55
f 48 56 50
f 56 64 65
f 57 65 66
f 57 66 67
f 57 67 58
f 60 68 61
f 61 68 69
f 61 69 70
f 61 70 71
f 56 65 57
f 17 31 42
f 36 45 38
f 17 30 41
f 1 22 11
f 1 11 5
f 1 5 2
f 2 5 3
f 3 6 9
f 3 9 7
f 3 7 4
f 1 36 22
f 3 5 8
f 4 7 9
f 4 9 10
f 5 11 12
f 5 12 13
f 5 13 14
f 5 14 15
f 5 15 8
f 3 8 6
f 6 8 16
f 1 44 36
f 1 53 52
f 17 41 31
f 1 2 3
f 1 3 4
f 1 4 10
f 1 10 20
f 1 20 34
f 1 34 43
f 1 52 44
f 1 43 51
f 1 58 67
f 1 67 77
f 1 77 78
f 1 78 69
f 1 69 68
f 1 68 60
f 1 60 59
f 1 51 58
f 6 16 9
f 1 59 53
f 9 17 18
f 14 79 74
f 14 74 64
f 14 64 56
f 14 56 48
f 14 48 41
f 14 41 30
f 14 30 29
f 14 73 79
f 14 33 19
f 14 26 15
f 15 26 27
f 15 27 16
f 16 27 19
f 17 28 29
f 8 15 16
f 17 29 30
f 14 19 26
f 14 63 73
f 14 29 33
f 14 47 55
f 9 16 19
f 14 55 63
f 9 19 17
f 10 18 20
f 11 21 13
f 9 18 10
f 11 22 23
f 11 23 24
f 11 24 21
f 11 13 12
f 13 21 25
f 13 25 14
f 14 25 35
f 14 35 39
f 14 39 40
f 14 40 47

