# https://github.com/mikedh/trimesh
v -0.70533800 0.15779500 -0.00584544
v -0.75988800 0.15201400 -0.00584544
v -0.80663900 0.28053500 -0.00584544
v -0.77741600 0.16947300 -0.00584544
v -0.78911100 -0.14058800 0.00001549
v -0.77158300 0.15779500 -0.00584544
v -0.75405600 -0.14058800 -0.00013327
v -0.48289500 -0.14058800 0.00001549
v -0.51116800 0.36888200 -0.00584544
v -0.50273700 0.38575700 -0.00584544
v -0.50273700 0.42085100 -0.00584544
v -0.63132800 0.45594500 -0.00584544
v -0.52609700 0.44420800 -0.00584544
v -0.50663500 0.43836900 -0.00584544
v -0.48289500 0.43836900 0.00001549
v -0.50752300 0.43906900 -0.00584544
v -0.48289500 0.45004700 0.00584667
v -0.48289500 0.45594500 0.01753880
v -0.48289500 0.45594500 0.33319900
v -0.78911100 0.45594500 0.33319900
v -0.48289500 0.44420800 0.35656400
v -0.48289500 -0.14058800 0.29809000
v -0.48289500 0.01753730 0.40333600
v -0.48289500 -0.11688100 0.37995000
v -0.48289500 -0.14058800 0.31565500
v -0.80080700 -0.14058800 0.34488200
v -0.77158300 -0.14058800 0.35072300
v -0.78911100 -0.14058800 0.35072300
v -0.78036300 -0.11396200 0.38141300
v -0.77158300 -0.11688100 0.37995000
v -0.68391200 -0.12856000 0.37409800
v -0.64882400 -0.12856000 0.37409800
v -0.64007600 -0.13585900 0.35949000
v -0.48289500 -0.12272000 0.36825700
v -0.48289500 -0.10520300 0.38579100
v -0.77158300 -0.10520300 0.38579100
v -0.77158300 0.03511330 0.38579100
v -0.78327900 0.03511330 0.37995000
v -0.77158300 0.42085100 0.36825700
v -0.75405600 0.08772450 0.38579100
v -0.56118400 0.19288800 0.40333600
v -0.56118400 0.01753730 0.40333600
v -0.48289500 0.19288800 0.40333600
v -0.48289500 0.42085100 0.36825700
v -0.77741600 0.43252900 0.36241600
v -0.78473700 0.42961000 0.35949000
v -0.79497500 0.42085100 0.35656400
v -0.78327900 -0.10520300 0.37995000
v -0.80226500 0.44712700 0.34196600
v -0.80663900 -0.14058800 0.33319900
v -0.80663900 0.43836900 0.33319900
v -0.80080700 0.45004700 0.33319900
v -0.79497500 0.45004700 0.34488200
v -0.78692400 0.43836900 0.35510100
v -0.76575100 0.44420800 0.35656400
v -0.80080700 0.45004700 0.01753880
v -0.80663900 0.43836900 0.03509180
v -0.80663900 0.43836900 0.01753880
v -0.80080700 0.44420800 0.00584667
v -0.79789100 0.45150700 0.00879200
v -0.78911100 0.45594500 0.01753880
v -0.78911100 0.45004700 0.00584667
v -0.78911100 0.43836900 0.00001549
v -0.66635200 0.44420800 -0.00584544
v -0.68454600 0.43515700 -0.00584544
v -0.73716100 0.40006300 -0.00584544
v -0.75478500 0.38184500 -0.00584544
v -0.78847800 0.33057700 -0.00584544
v -0.80372300 0.29373200 -0.00584544
v -0.80663900 -0.14058800 0.01753880
v -0.80080700 -0.14058800 0.00584667
f 52 20 56
f 45 21 55
f 55 21 20
f 53 55 20
f 45 55 53
f 52 56 51
f 56 61 60
f 56 58 57
f 56 59 58
f 56 60 59
f 56 20 61
f 61 20 12
f 45 53 54
f 56 57 51
f 46 45 54
f 38 48 29
f 49 47 54
f 39 45 46
f 39 46 47
f 39 47 38
f 38 47 48
f 60 61 12
f 26 29 48
f 46 54 47
f 26 48 47
f 49 50 26
f 49 51 50
f 49 52 51
f 49 20 52
f 49 53 20
f 49 54 53
f 49 26 47
f 62 60 12
f 69 3 63
f 62 63 59
f 35 24 23
f 3 5 71
f 5 8 71
f 7 8 5
f 8 22 71
f 50 71 22
f 70 3 71
f 26 50 22
f 3 65 1
f 65 12 1
f 64 12 65
f 42 36 23
f 36 35 23
f 39 40 41
f 51 57 50
f 62 59 60
f 70 71 50
f 3 50 57
f 62 12 63
f 63 12 64
f 63 64 65
f 66 63 65
f 66 67 63
f 66 65 67
f 70 50 3
f 67 65 3
f 68 63 67
f 69 63 68
f 69 68 3
f 63 3 59
f 58 59 3
f 58 3 57
f 68 67 3
f 39 41 44
f 10 9 11
f 45 44 21
f 15 8 11
f 15 17 8
f 17 21 8
f 19 21 17
f 19 20 21
f 19 12 20
f 18 12 19
f 18 19 17
f 18 17 12
f 13 12 17
f 16 14 13
f 16 13 17
f 16 17 15
f 16 15 14
f 14 15 11
f 13 11 12
f 11 1 12
f 39 44 45
f 2 3 1
f 4 3 2
f 4 5 3
f 6 5 4
f 6 2 5
f 21 22 8
f 6 4 2
f 2 8 7
f 2 1 8
f 9 8 1
f 10 8 9
f 10 11 8
f 9 1 11
f 2 7 5
f 23 22 21
f 14 11 13
f 25 22 24
f 35 29 24
f 36 29 35
f 37 29 36
f 37 38 29
f 37 39 38
f 37 41 40
f 31 24 29
f 37 36 41
f 41 42 23
f 43 41 23
f 43 44 41
f 43 23 44
f 24 22 23
f 44 23 21
f 41 36 42
f 34 25 24
f 37 40 39
f 34 24 33
f 25 26 22
f 28 26 27
f 28 29 26
f 30 29 28
f 30 31 29
f 30 28 31
f 28 27 31
f 27 26 25
f 32 24 31
f 32 33 24
f 32 27 33
f 27 25 33
f 34 33 25
f 32 31 27

