# https://github.com/mikedh/trimesh
v -0.48289500 -0.14058800 0.31564200
v -0.48289500 -0.24551200 0.33318400
v -0.48289500 -0.14058800 0.14778900
v -0.77158300 -0.14058800 0.35072700
v -0.57871200 -0.42084700 0.35072700
v -0.48289500 -0.28060900 0.33318400
v -0.48289500 -0.43838000 0.14778900
v -0.78911100 -0.14058800 0.14778900
v -0.78911100 -0.14058800 0.35072700
v -0.57871200 -0.43838000 0.35072700
v -0.48289500 -0.29227800 0.32734400
v -0.56701600 -0.44424500 0.34486600
v -0.48289500 -0.43838000 0.15784200
v -0.57871200 -0.45594500 0.31564200
v -0.64882400 -0.43838000 0.14778900
v -0.78911100 -0.29814300 0.14778900
v -0.80663900 -0.14058800 0.33318400
v -0.80080700 -0.14058800 0.34486600
v -0.79789100 -0.27184300 0.34633600
v -0.78911100 -0.26304500 0.35072700
v -0.57871200 -0.45007900 0.34486600
v -0.56993300 -0.45153000 0.34194600
v -0.63132800 -0.43838000 0.35072700
v -0.64007600 -0.44714700 0.34633600
v -0.48289500 -0.43254600 0.16952300
v -0.57871200 -0.45594500 0.33318400
v -0.61380000 -0.45594500 0.31564200
v -0.63132800 -0.45594500 0.33318400
v -0.68391200 -0.43838000 0.33318400
v -0.70727200 -0.42671200 0.32734400
v -0.65887200 -0.43337900 0.14778900
v -0.78911100 -0.31564600 0.31564200
v -0.80663900 -0.26304500 0.33318400
v -0.76575100 -0.34487800 0.14778900
v -0.77741600 -0.33901300 0.30980100
v -0.80080700 -0.26304500 0.34486600
v -0.80080700 -0.27474400 0.33902500
v -0.78036300 -0.32441200 0.34633600
v -0.77158300 -0.31564600 0.35072700
v -0.63132800 -0.45007900 0.34486600
v -0.68391200 -0.42084700 0.35072700
v -0.64302400 -0.45007900 0.33902500
v -0.69266000 -0.42961300 0.34633600
v -0.69557600 -0.43254600 0.33902500
v -0.70727200 -0.40917800 0.14778900
v -0.67221600 -0.42671200 0.14778900
v -0.72483200 -0.40917800 0.32734400
v -0.72483200 -0.40917800 0.30980100
v -0.76575100 -0.36241200 0.32148300
v -0.78911100 -0.31564600 0.33318400
v -0.75988800 -0.35654700 0.14778900
v -0.75988800 -0.37408000 0.30980100
v -0.78327900 -0.32731400 0.33902500
v -0.76575100 -0.36241200 0.33902500
v -0.76280400 -0.35947900 0.34633600
v -0.75405600 -0.35071300 0.35072700
v -0.71022000 -0.41208000 0.34633600
v -0.71313600 -0.41501200 0.33902500
v -0.72483200 -0.39161400 0.14778900
v -0.75988800 -0.37408000 0.32734400
f 30 48 45
f 28 40 42
f 28 42 44
f 28 44 29
f 29 44 30
f 30 58 47
f 30 46 31
f 30 44 58
f 24 43 42
f 30 47 48
f 30 45 46
f 24 42 40
f 19 33 37
f 23 41 43
f 21 28 26
f 21 40 28
f 21 24 40
f 21 26 22
f 19 39 20
f 19 38 39
f 19 53 38
f 19 37 53
f 19 36 33
f 18 36 19
f 32 35 52
f 23 43 24
f 32 52 49
f 49 52 60
f 32 54 50
f 17 36 18
f 54 57 55
f 54 58 57
f 50 54 53
f 49 60 54
f 48 51 59
f 48 52 51
f 55 57 56
f 47 60 52
f 47 54 60
f 47 58 54
f 45 48 59
f 32 49 54
f 43 58 44
f 42 43 44
f 41 57 43
f 41 56 57
f 38 56 39
f 38 55 56
f 38 54 55
f 38 53 54
f 37 50 53
f 34 52 35
f 34 51 52
f 33 50 37
f 32 50 33
f 43 57 58
f 17 33 36
f 47 52 48
f 16 34 35
f 4 20 39
f 4 9 20
f 3 16 8
f 3 34 16
f 3 51 34
f 3 59 51
f 3 45 59
f 3 46 45
f 3 31 46
f 3 15 31
f 3 7 15
f 2 4 5
f 4 39 56
f 2 10 6
f 1 4 2
f 1 9 4
f 1 18 9
f 1 17 18
f 1 8 17
f 1 3 8
f 1 7 3
f 1 13 7
f 1 25 13
f 1 11 25
f 1 2 6
f 16 35 32
f 2 5 10
f 4 56 41
f 1 6 11
f 4 23 10
f 4 41 23
f 16 32 33
f 15 29 30
f 15 28 29
f 15 27 28
f 14 28 27
f 14 26 28
f 13 22 26
f 13 25 22
f 12 22 25
f 11 12 25
f 10 24 21
f 10 23 24
f 15 30 31
f 10 21 22
f 9 19 20
f 9 18 19
f 8 33 17
f 8 16 33
f 7 27 15
f 7 14 27
f 7 26 14
f 7 13 26
f 6 12 11
f 4 10 5
f 6 10 12
f 10 22 12

