# https://github.com/mikedh/trimesh
v -0.05261440 -0.22797700 0.45594500
v -0.05846890 -0.21629000 0.45009800
v -0.22799900 -0.22797700 0.45594500
v -0.05261440 -0.23966400 0.45009800
v -0.05261440 -0.21746400 0.44889300
v -0.05261440 -0.21043700 0.43840500
v -0.23385400 -0.21629000 0.45009800
v -0.23676000 -0.23674700 0.45152600
v -0.22799900 -0.23966400 0.45009800
v -0.37701700 -0.23674700 0.41644700
v -0.05261440 -0.24551700 0.43840500
v -0.22799900 -0.21043700 0.43840500
v -0.05261440 -0.21020800 0.31562600
v -0.27180300 -0.21482200 0.42961300
v -0.37406900 -0.23382100 0.41501800
v -0.36825700 -0.25136100 0.40917200
v -0.22799900 -0.24551700 0.43840500
v -0.48286300 -0.29226600 0.32732000
v -0.48286300 -0.29539400 0.32107100
v -0.48286300 -0.24551700 0.33316600
v -0.48286300 -0.28057900 0.33316600
v -0.48286300 -0.28683500 0.33004200
v -0.48286300 -0.21020800 0.31562600
v -0.05261440 -0.29811000 0.31562600
v -0.05261440 -0.21020800 0.00000000
v -0.48286300 -0.29811000 0.31562600
v -0.48286300 -0.21020800 0.00000000
v -0.05261440 -0.30391700 0.19887300
v -0.05261440 -0.30391700 0.00000000
v -0.48286300 -0.30391700 0.19887300
v -0.48286300 -0.30391700 0.00000000
f 13 27 23
f 13 25 27
f 12 23 14
f 11 26 24
f 11 17 26
f 10 18 16
f 10 15 23
f 10 22 18
f 10 21 22
f 14 23 15
f 10 20 21
f 10 23 20
f 17 19 26
f 24 30 28
f 18 21 20
f 18 20 23
f 18 23 27
f 18 27 31
f 18 30 26
f 18 26 19
f 24 26 30
f 25 29 31
f 25 31 27
f 28 30 31
f 28 31 29
f 9 19 17
f 18 22 21
f 9 18 19
f 18 31 30
f 8 16 9
f 9 16 18
f 1 2 7
f 1 7 3
f 1 9 4
f 1 4 11
f 1 11 24
f 1 24 28
f 1 28 29
f 1 29 25
f 1 25 13
f 1 13 6
f 1 6 5
f 1 5 2
f 1 3 9
f 2 6 12
f 2 5 6
f 7 15 10
f 7 14 15
f 7 12 14
f 6 23 12
f 6 13 23
f 8 10 16
f 4 9 17
f 4 17 11
f 3 10 8
f 3 7 10
f 3 8 9
f 2 12 7

