# https://github.com/mikedh/trimesh
v -0.60501900 0.17976900 -0.39453900
v -0.60793600 0.18121700 -0.39748000
v -0.60793600 0.18121700 -0.41500800
v -0.60210200 0.18121700 -0.42086000
v -0.60210200 0.18121700 -0.40333300
v -0.53486000 0.24990000 -0.37701200
v -0.64008800 0.21482400 -0.21920600
v -0.65761100 0.21482400 -0.20167800
v -0.68390700 0.22798600 -0.15550700
v -0.70728600 0.23967800 -0.15550700
v -0.61962600 0.18707400 -0.40915600
v -0.61962600 0.18707400 -0.42671200
v -0.60501900 0.18413500 -0.42962400
v -0.60063300 0.18413500 -0.42962400
v -0.53194300 0.25137000 -0.42086000
v -0.53194300 0.25137000 -0.38577600
v -0.56701200 0.30395200 -0.19291400
v -0.56995100 0.30248200 -0.18415100
v -0.63570100 0.21921100 -0.21920600
v -0.65467200 0.23382100 -0.15550700
v -0.66636200 0.22798600 -0.15550700
v -0.72483100 0.25720500 -0.15550700
v -0.70728600 0.23967800 -0.16368200
v -0.63717100 0.20460100 -0.42671200
v -0.67221700 0.25720500 -0.44424000
v -0.61085300 0.19582700 -0.43547600
v -0.60210200 0.19290900 -0.43253500
v -0.53486000 0.25428800 -0.43400600
v -0.53047400 0.25428800 -0.42962400
v -0.53194300 0.25720500 -0.39162800
v -0.56701200 0.30978700 -0.19876700
v -0.57870100 0.33317200 -0.15550700
v -0.57870100 0.31797000 -0.15550700
v -0.57929300 0.31535900 -0.15550700
v -0.58436000 0.30520200 -0.15550700
v -0.58532500 0.30355700 -0.15550700
v -0.74235400 0.27475500 -0.15550700
v -0.72483100 0.25720500 -0.16368200
v -0.65467200 0.22212900 -0.42671200
v -0.74235400 0.27475500 -0.16368200
v -0.68390700 0.28059000 -0.43838800
v -0.67805100 0.28644700 -0.45009200
v -0.66636200 0.28059000 -0.45594500
v -0.66344500 0.26598000 -0.45300400
v -0.75404400 0.29811700 -0.15783000
v -0.64883800 0.28059000 -0.45594500
v -0.61379200 0.31564400 -0.45594500
v -0.60501900 0.32441900 -0.45153300
v -0.60210200 0.32733600 -0.44424000
v -0.53779900 0.26889700 -0.41500800
v -0.53779900 0.26889700 -0.37995300
v -0.58398700 0.34712300 -0.15550700
v -0.57938100 0.33582600 -0.15550700
v -0.75174100 0.29346600 -0.15550700
v -0.74965700 0.34194600 -0.21920600
v -0.74821000 0.34486400 -0.22799900
v -0.74529300 0.34633300 -0.23676300
v -0.67513400 0.29373000 -0.44715100
v -0.66636200 0.30028900 -0.45153300
v -0.64883800 0.31783800 -0.45153300
v -0.63131500 0.31564400 -0.45594500
v -0.75404400 0.29811700 -0.15550700
v -0.75452600 0.31797000 -0.15550700
v -0.61379200 0.32733600 -0.45009200
v -0.62254200 0.34633300 -0.42962400
v -0.60793600 0.33902900 -0.41500800
v -0.55532200 0.28644700 -0.41500800
v -0.59039100 0.35655600 -0.16953500
v -0.59039100 0.35655600 -0.15550700
v -0.75452600 0.33271100 -0.15550700
v -0.75404400 0.33589200 -0.15550700
v -0.74924100 0.34552200 -0.15550700
v -0.74235400 0.35655600 -0.22799900
v -0.67221700 0.30395200 -0.43838800
v -0.63131500 0.32733600 -0.45009200
v -0.65467200 0.32147900 -0.43838800
v -0.64008800 0.32878400 -0.44715100
v -0.63131500 0.33975300 -0.43838800
v -0.71020300 0.38141000 -0.23676300
v -0.69267900 0.38141000 -0.25429000
v -0.66636200 0.40332500 -0.17538700
v -0.64883800 0.40332500 -0.17538700
v -0.63717100 0.39749000 -0.18121000
v -0.62548100 0.39163200 -0.16953500
v -0.60793600 0.37410500 -0.16953500
v -0.60793600 0.37410500 -0.15550700
v -0.73143200 0.38070800 -0.15550700
v -0.73066500 0.37994000 -0.19291400
v -0.72774800 0.38141000 -0.20167800
v -0.72483100 0.37410500 -0.22799900
v -0.71020300 0.36386100 -0.27181800
v -0.70145200 0.37482900 -0.26305400
v -0.71897500 0.39380400 -0.15550700
v -0.70145200 0.38579700 -0.22799900
v -0.68390700 0.40385100 -0.15550700
v -0.64883800 0.40332500 -0.15550700
v -0.64618500 0.40266700 -0.15550700
v -0.63491200 0.39803800 -0.15550700
v -0.62548100 0.39163200 -0.15550700
v -0.72989700 0.38266000 -0.15550700
v -0.72130000 0.39178600 -0.15550700
v -0.70145200 0.39922300 -0.15550700
f 48 65 49
f 50 52 51
f 50 68 52
f 50 67 68
f 49 66 67
f 49 65 66
f 48 64 65
f 52 68 69
f 49 67 50
f 55 63 70
f 58 74 59
f 55 71 56
f 56 71 72
f 56 72 73
f 56 73 57
f 57 73 74
f 57 74 58
f 59 74 60
f 60 75 61
f 47 64 48
f 60 74 76
f 55 70 71
f 47 75 64
f 37 54 40
f 45 63 55
f 60 76 77
f 29 50 51
f 29 51 30
f 30 51 52
f 30 52 53
f 30 53 31
f 31 53 32
f 40 54 45
f 41 45 55
f 41 55 56
f 47 61 75
f 41 56 57
f 42 58 59
f 42 59 43
f 42 57 58
f 43 59 60
f 43 60 61
f 43 61 47
f 43 47 46
f 43 46 44
f 45 54 62
f 45 62 63
f 41 57 42
f 60 77 75
f 82 96 97
f 64 78 65
f 79 90 89
f 79 89 93
f 79 93 94
f 79 94 80
f 80 94 81
f 81 94 95
f 81 95 82
f 82 95 96
f 29 49 50
f 82 97 98
f 82 98 83
f 83 98 84
f 84 98 99
f 84 99 86
f 84 86 85
f 87 100 88
f 88 100 101
f 88 101 93
f 88 93 89
f 93 102 94
f 94 102 95
f 79 91 90
f 79 92 91
f 78 92 79
f 77 92 78
f 65 78 79
f 65 79 80
f 65 80 81
f 65 81 82
f 65 82 83
f 65 83 66
f 66 83 84
f 66 84 85
f 66 85 67
f 67 85 68
f 64 75 78
f 68 85 86
f 72 87 73
f 73 87 88
f 73 88 89
f 73 89 90
f 73 90 91
f 73 91 74
f 74 91 76
f 75 77 78
f 76 91 77
f 77 91 92
f 68 86 69
f 29 48 49
f 25 39 40
f 28 47 48
f 7 20 21
f 7 21 8
f 8 21 9
f 9 21 20
f 9 20 36
f 9 36 35
f 9 35 34
f 9 34 33
f 9 33 32
f 9 32 53
f 9 53 52
f 9 52 69
f 9 69 86
f 9 86 99
f 9 99 98
f 9 98 97
f 9 97 96
f 9 96 95
f 9 95 102
f 9 102 93
f 9 93 101
f 7 18 20
f 7 19 18
f 6 19 7
f 6 18 19
f 1 2 3
f 1 3 4
f 1 4 5
f 1 5 6
f 1 6 7
f 1 7 8
f 1 8 9
f 1 9 10
f 1 10 2
f 2 11 12
f 9 101 100
f 2 12 3
f 3 12 13
f 3 13 4
f 4 13 14
f 4 14 29
f 4 29 15
f 4 15 16
f 4 16 5
f 5 16 6
f 6 16 17
f 28 48 29
f 2 10 11
f 9 100 87
f 6 17 18
f 9 72 71
f 17 32 33
f 17 33 18
f 18 33 34
f 18 34 35
f 18 35 36
f 18 36 20
f 22 37 40
f 22 40 38
f 24 39 25
f 24 38 40
f 24 40 39
f 25 42 43
f 25 43 44
f 25 44 26
f 25 40 45
f 25 45 41
f 26 28 27
f 26 44 46
f 26 46 28
f 28 46 47
f 9 87 72
f 17 31 32
f 16 31 17
f 25 41 42
f 16 29 30
f 9 71 70
f 16 30 31
f 9 70 63
f 9 63 62
f 9 62 54
f 9 54 37
f 9 37 22
f 10 22 38
f 10 38 23
f 10 23 12
f 9 22 10
f 12 24 25
f 12 25 26
f 12 26 13
f 12 23 38
f 12 38 24
f 13 26 14
f 14 26 27
f 14 27 28
f 10 12 11
f 14 28 29
f 15 29 16

