# https://github.com/mikedh/trimesh
v -0.48286300 -0.21019800 0.00001167
v -0.48286300 0.44779400 0.31695700
v -0.48286300 0.43840400 0.00001167
v -0.48286300 0.45594500 0.01755600
v -0.48286300 0.45007600 0.00584884
v 0.49288900 0.43811300 -0.00045873
v -0.22799900 -0.08767660 -0.01805730
v -0.08769970 -0.08767660 -0.01805730
v 0.49288900 0.41989900 -0.00093590
v 0.49288900 0.45008600 0.00587177
v 0.49288900 0.45594500 0.01754660
v 0.49288900 0.45135900 0.32405100
v 0.49288900 0.45594500 0.03507480
v -0.48286300 0.45594500 0.03510030
v -0.05257220 0.45135900 0.32405100
v 0.49288900 0.39748300 0.32405100
v 0.49288900 -0.19465200 0.00001844
v 0.49288900 -0.19465200 0.31565300
v -0.05261440 -0.21019800 0.31564500
v -0.48286300 -0.21019800 0.31564500
v -0.48286300 0.38839100 0.31695700
v -0.05257220 0.39748300 0.32405100
v -0.05261440 -0.21019800 0.00001167
v -0.08769970 -0.15777300 -0.01805730
v -0.07603270 -0.15197000 -0.01805730
v -0.07017810 -0.14023300 -0.01805730
v -0.22799900 -0.15777300 -0.01805730
v -0.23966600 -0.15197000 -0.01805730
v -0.24552100 -0.14023300 -0.01805730
v -0.24552100 -0.10521700 -0.01805730
v -0.23966600 -0.09347990 -0.01805730
v -0.07417950 -0.09165420 -0.01805730
v -0.07017810 -0.10521700 -0.01805730
v 0.49288900 0.37009800 -0.00093590
f 27 23 1
f 28 1 29
f 28 29 27
f 29 1 3
f 28 27 1
f 24 23 27
f 24 17 23
f 25 24 26
f 25 26 17
f 25 17 24
f 30 29 3
f 23 19 1
f 24 27 26
f 30 7 29
f 34 17 26
f 31 3 7
f 31 30 3
f 7 8 29
f 8 26 29
f 32 26 8
f 33 26 32
f 33 9 26
f 33 32 9
f 32 8 9
f 34 26 9
f 34 9 17
f 9 10 17
f 22 15 2
f 27 29 26
f 31 7 30
f 22 16 15
f 23 17 19
f 21 20 22
f 22 20 16
f 4 3 2
f 5 3 4
f 6 3 5
f 6 7 3
f 6 8 7
f 6 9 8
f 6 10 9
f 6 5 10
f 11 10 5
f 11 12 10
f 13 12 11
f 13 14 12
f 13 11 14
f 11 4 14
f 2 3 1
f 14 4 2
f 21 22 2
f 21 2 20
f 20 2 1
f 20 1 19
f 11 5 4
f 18 16 19
f 20 19 16
f 18 17 16
f 16 17 10
f 12 16 10
f 12 15 16
f 14 15 12
f 14 2 15
f 18 19 17

