# https://github.com/mikedh/trimesh
v 0.71898400 -0.19245800 -0.06115660
v 0.71086500 -0.19245800 -0.06115660
v 0.73387600 -0.19554300 -0.06115660
v 0.68391600 -0.22798500 -0.14023300
v 0.69289900 -0.19702500 -0.06115660
v 0.66635700 -0.22798500 -0.14023300
v 0.70728600 -0.23967600 -0.14023300
v 0.69558900 -0.23381900 -0.14023300
v 0.75340400 -0.21306700 -0.06115660
v 0.69261100 -0.19733600 -0.06115660
v 0.65473200 -0.23381900 -0.14023300
v 0.65470800 -0.23381900 -0.12274800
v 0.72482100 -0.25720000 -0.14023300
v 0.78854500 -0.30475300 -0.06115660
v 0.75405300 -0.29813000 -0.14023300
v 0.74860000 -0.28481400 -0.14023300
v 0.74526100 -0.28053400 -0.14023300
v 0.74197100 -0.27635000 -0.14023300
v 0.55233700 -0.35512600 -0.06115660
v 0.58531500 -0.31563000 -0.14023300
v 0.78722300 -0.31563000 -0.06115660
v 0.78474900 -0.32440500 -0.07892100
v 0.76719100 -0.34195300 -0.13151700
v 0.75724700 -0.33317900 -0.14023300
v 0.76282000 -0.34195300 -0.13590600
v 0.54674000 -0.36456900 -0.06115660
v 0.57871000 -0.33317900 -0.14023300
v 0.78626300 -0.32134400 -0.06115660
v 0.78328400 -0.32732100 -0.06115660
v 0.77458900 -0.34472600 -0.06115660
v 0.76575000 -0.36239400 -0.10521500
v 0.77158700 -0.35070300 -0.10521500
v 0.76719100 -0.35947700 -0.11398500
v 0.76063400 -0.36825100 -0.12274800
v 0.74965700 -0.37702500 -0.13151700
v 0.75412500 -0.35065500 -0.14023300
v 0.74089000 -0.39455000 -0.13151700
v 0.73659000 -0.38572800 -0.14023300
v 0.75407700 -0.35077500 -0.14023300
v 0.54318500 -0.38623000 -0.06115660
v 0.57875800 -0.33346600 -0.14023300
v 0.76289200 -0.36810800 -0.06115660
v 0.74965700 -0.39455000 -0.11398500
v 0.74528500 -0.39894900 -0.11398500
v 0.72482100 -0.40915700 -0.12274800
v 0.71458800 -0.41209800 -0.13151700
v 0.70728600 -0.41501400 -0.13444300
v 0.72117000 -0.40332400 -0.13590600
v 0.73630200 -0.38601500 -0.14023300
v 0.73649400 -0.38584700 -0.14023300
v 0.55197600 -0.41188300 -0.06115660
v 0.58305700 -0.35065500 -0.14023300
v 0.75988900 -0.37408500 -0.06115660
v 0.74235500 -0.39163300 -0.06115660
v 0.72482100 -0.40915700 -0.06115660
v 0.71912800 -0.41202600 -0.06115660
v 0.70145000 -0.42087200 -0.06115660
v 0.70145000 -0.42087200 -0.12274800
v 0.67949600 -0.40774700 -0.14023300
v 0.70274700 -0.40839200 -0.14023300
v 0.71036100 -0.40332400 -0.14023300
v 0.55219200 -0.41231300 -0.06115660
v 0.58747700 -0.35947700 -0.14023300
v 0.67805500 -0.43256300 -0.06115660
v 0.67805500 -0.43256300 -0.08768320
v 0.67514800 -0.42962200 -0.09645310
v 0.60501100 -0.41209800 -0.11398500
v 0.64884700 -0.40332400 -0.14023300
v 0.58041500 -0.41915000 -0.06115660
v 0.60501100 -0.39455000 -0.13151700
v 0.61670900 -0.41793100 -0.10228900
v 0.61377800 -0.42087200 -0.08768320
v 0.59624400 -0.42087200 -0.07015100
v 0.59622000 -0.36827500 -0.14023300
v 0.66808700 -0.43669900 -0.06115660
v 0.63138500 -0.39897200 -0.14023300
v 0.64855900 -0.40327600 -0.14023300
v 0.61373000 -0.38584700 -0.14023300
v 0.62254600 -0.39455000 -0.14023300
f 33 43 34
f 34 43 37
f 34 37 35
f 37 43 44
f 37 44 45
f 37 45 46
f 37 46 47
f 37 47 48
f 37 48 49
f 37 49 50
f 40 41 52
f 40 52 51
f 43 53 44
f 31 43 33
f 44 53 54
f 44 54 55
f 37 50 38
f 25 35 37
f 31 33 32
f 22 29 30
f 44 55 56
f 22 30 31
f 22 31 32
f 22 32 23
f 23 32 33
f 23 33 34
f 31 42 43
f 23 34 35
f 24 25 36
f 25 37 38
f 25 38 39
f 25 39 36
f 26 27 40
f 27 41 40
f 30 42 31
f 23 35 25
f 44 56 57
f 62 71 72
f 44 58 45
f 63 74 70
f 64 75 65
f 65 75 72
f 65 72 71
f 65 71 66
f 66 71 67
f 67 70 76
f 67 76 77
f 67 77 68
f 69 73 75
f 70 78 79
f 70 79 76
f 70 74 78
f 72 75 73
f 22 28 29
f 62 73 69
f 62 72 73
f 62 67 71
f 62 70 67
f 45 58 46
f 46 58 47
f 47 58 59
f 47 59 60
f 47 60 61
f 47 61 48
f 48 61 49
f 44 57 58
f 51 52 63
f 57 64 65
f 57 65 58
f 58 65 66
f 58 66 67
f 58 67 59
f 59 67 68
f 62 63 70
f 51 63 62
f 21 28 22
f 42 53 43
f 19 20 26
f 1 21 14
f 1 14 9
f 1 9 3
f 1 3 4
f 1 6 2
f 2 6 5
f 3 7 8
f 3 8 4
f 3 9 7
f 4 8 7
f 4 7 13
f 4 13 18
f 4 18 17
f 4 17 16
f 4 16 15
f 1 28 21
f 1 29 28
f 1 30 29
f 1 42 30
f 1 2 5
f 1 5 10
f 1 10 19
f 1 19 26
f 1 26 40
f 1 40 51
f 1 51 62
f 4 15 24
f 1 62 69
f 1 75 64
f 1 64 57
f 1 57 56
f 1 56 55
f 1 55 54
f 1 54 53
f 1 53 42
f 1 69 75
f 4 24 36
f 1 4 6
f 4 39 38
f 5 11 12
f 5 12 10
f 7 9 13
f 9 14 15
f 9 15 16
f 9 16 17
f 9 17 18
f 5 6 11
f 9 18 13
f 11 20 12
f 4 36 39
f 14 21 22
f 14 22 23
f 14 23 15
f 15 23 25
f 15 25 24
f 10 12 19
f 4 11 6
f 12 20 19
f 4 27 20
f 4 20 11
f 4 38 50
f 4 50 49
f 4 49 61
f 4 61 60
f 4 60 59
f 4 59 68
f 4 68 77
f 20 27 26
f 4 76 79
f 4 79 78
f 4 78 74
f 4 74 63
f 4 63 52
f 4 52 41
f 4 77 76
f 4 41 27

