# https://github.com/mikedh/trimesh
v -0.40330000 -0.43839900 -0.01753630
v -0.39748700 -0.45009600 -0.01169070
v -0.48286300 -0.45009600 0.00584634
v -0.48286300 -0.43839900 0.00000067
v -0.48286300 -0.30391700 0.00000067
v -0.12278500 -0.43839900 -0.01753630
v -0.40330000 -0.45594500 0.00000067
v -0.11693100 -0.45009600 -0.01169070
v -0.48286300 -0.45594500 0.01753770
v -0.48286300 -0.30391700 0.19883800
v -0.05261440 -0.30391700 0.00000067
v -0.05261440 -0.43839900 0.00000067
v -0.12278500 -0.45594500 0.00000067
v -0.05261440 -0.45009600 0.00584634
v -0.05261440 -0.45594500 0.01753770
v -0.48286300 -0.45594500 0.10520200
v -0.48286300 -0.36826400 0.19288700
v -0.05261440 -0.30391700 0.19883800
v -0.05261440 -0.45594500 0.10520200
v -0.48286300 -0.43839900 0.15781200
v -0.48286300 -0.42086900 0.17535000
v -0.05261440 -0.36826400 0.19288700
v -0.05261440 -0.43839900 0.15781200
v -0.48286300 -0.43255100 0.16950400
v -0.05261440 -0.43253600 0.16952500
v -0.05261440 -0.42086900 0.17535000
v -0.05261440 -0.43255100 0.16950400
f 11 25 27
f 11 26 25
f 11 22 26
f 10 22 18
f 11 27 23
f 10 17 22
f 8 15 13
f 8 14 15
f 8 12 14
f 11 18 22
f 11 23 19
f 11 14 12
f 11 15 14
f 16 19 23
f 16 23 20
f 17 21 26
f 20 23 27
f 20 27 24
f 21 24 25
f 21 25 26
f 7 16 9
f 24 27 25
f 11 19 15
f 7 19 16
f 17 26 22
f 7 13 15
f 7 15 19
f 1 2 3
f 1 3 4
f 1 4 5
f 1 5 11
f 1 6 8
f 1 8 2
f 2 7 3
f 2 8 13
f 2 13 7
f 3 9 16
f 1 11 6
f 3 20 24
f 6 12 8
f 3 16 20
f 6 11 12
f 5 18 11
f 3 7 9
f 5 10 18
f 3 5 4
f 3 10 5
f 3 17 10
f 3 21 17
f 3 24 21

