# https://github.com/mikedh/trimesh
v -0.05254310 -0.45008700 0.00584681
v -0.05254310 -0.45594500 0.10519900
v -0.05254310 -0.43251600 0.16952900
v -0.05254310 -0.43839900 0.15782700
v 0.49288900 -0.43057200 0.20538300
v 0.49288900 -0.45594500 0.10520500
v 0.49288900 -0.19467700 0.20538300
v 0.35073200 -0.42085300 0.20538300
v -0.05254310 -0.42085300 0.17534800
v -0.05254310 -0.36824200 0.19289100
v 0.34496600 -0.41942100 0.20538300
v 0.33604900 -0.41576300 0.20538300
v 0.24535700 -0.19467700 0.20538300
v 0.24540500 -0.29926100 0.20538300
v -0.05254310 -0.30417200 0.19864700
v -0.05254310 -0.19467700 0.19864700
v -0.05254310 -0.19467700 0.00000632
v -0.05254310 -0.43834800 0.00000632
v 0.03509160 -0.43839900 -0.01753630
v 0.31567200 -0.43839900 -0.01753630
v 0.32151100 -0.45008700 -0.01168840
v 0.04092420 -0.45008700 -0.01167470
v 0.03509160 -0.45594500 0.00000632
v 0.31567200 -0.45594500 0.00000743
v 0.49288900 -0.45594500 0.01755120
v 0.49288900 -0.45008700 0.00585536
v 0.49288900 -0.43878200 -0.00036351
v 0.49288900 -0.43653200 -0.00093085
v 0.49288900 -0.38673400 -0.00093085
v 0.49288900 -0.19467700 0.00000743
v -0.05254310 -0.45594500 0.01759130
f 28 27 20
f 21 20 27
f 26 21 27
f 26 27 25
f 26 25 21
f 22 21 23
f 22 1 19
f 24 25 23
f 24 23 21
f 22 23 1
f 28 29 27
f 24 21 25
f 28 20 29
f 13 7 16
f 29 30 27
f 27 30 6
f 25 27 6
f 25 6 2
f 23 25 2
f 31 23 2
f 31 1 23
f 31 2 1
f 7 6 30
f 7 30 16
f 13 8 7
f 17 16 30
f 20 17 30
f 29 20 30
f 22 19 21
f 3 16 1
f 20 19 17
f 21 19 20
f 2 3 1
f 4 5 3
f 4 2 5
f 5 2 6
f 5 6 7
f 5 7 8
f 5 8 3
f 9 3 8
f 9 10 3
f 9 8 10
f 11 10 8
f 11 12 10
f 4 3 2
f 12 8 13
f 11 8 12
f 18 17 19
f 18 1 17
f 17 1 16
f 10 16 3
f 18 19 1
f 15 16 10
f 15 13 16
f 14 13 15
f 14 15 12
f 14 12 13
f 12 15 10

