# https://github.com/mikedh/trimesh
v 0.63132000 -0.45594500 -0.03507120
v 0.52609200 -0.43838000 -0.03507120
v 0.53195800 -0.43254600 -0.04676320
v 0.63715600 -0.45007900 -0.04676320
v 0.66808600 -0.43668200 -0.06115660
v 0.67806800 -0.43254600 -0.06115660
v 0.64885900 -0.45594500 0.01754310
v 0.49288900 -0.45594500 0.01754310
v 0.51733800 -0.42961300 -0.04382010
v 0.49288900 -0.45007900 0.00585104
v 0.52609200 -0.42084700 -0.05256890
v 0.55219900 -0.41229600 -0.06115660
v 0.58042600 -0.41914900 -0.06115660
v 0.68974000 -0.42671200 -0.06115660
v 0.72481600 -0.40917800 -0.06115660
v 0.70727800 -0.42671200 0.01754310
v 0.64885900 -0.45594500 0.33318800
v 0.49288900 -0.45594500 0.10523400
v 0.50858400 -0.42084700 -0.03507120
v 0.51442000 -0.41501200 -0.04676320
v 0.49288900 -0.43878100 -0.00035784
v 0.54320000 -0.38621200 -0.06115660
v 0.55195400 -0.41186400 -0.06115660
v 0.75989200 -0.37408000 -0.06115660
v 0.76063000 -0.38578000 0.01754310
v 0.74819000 -0.39747900 0.01754310
v 0.73651900 -0.40988800 0.03508120
v 0.72773400 -0.41646300 0.02633230
v 0.70727800 -0.42671200 0.33318800
v 0.69265800 -0.43399700 0.34193700
v 0.65758200 -0.45153000 0.34193700
v 0.64885900 -0.45007900 0.34488100
v 0.50858400 -0.45594500 0.33318800
v 0.49688200 -0.45007900 0.33903500
v 0.49288900 -0.44214600 0.33504300
v 0.49288900 -0.43652800 -0.00092228
v 0.50858400 -0.38578000 -0.03507120
v 0.51442000 -0.37994500 -0.04676320
v 0.54673200 -0.36457300 -0.06115660
v 0.76290300 -0.36809200 -0.06115660
v 0.78474100 -0.34194600 0.00879422
v 0.76720300 -0.37701300 0.02633230
v 0.74819000 -0.39747900 0.33318800
v 0.74527200 -0.39893000 0.34193700
v 0.70144200 -0.42303800 0.34633200
v 0.66636600 -0.44057200 0.34633200
v 0.64885900 -0.43838000 0.35072700
v 0.50858400 -0.45007900 0.34488100
v 0.49980000 -0.44714700 0.34633200
v 0.49688200 -0.43838000 0.34488100
v 0.49288900 -0.43838000 0.33689800
v 0.49288900 -0.38670600 -0.00092228
v 0.49288900 -0.14058800 0.00000501
v 0.55232200 -0.35512700 -0.06115660
v 0.77159500 -0.35071300 -0.06115660
v 0.80227900 -0.30687900 0.02633230
v 0.78913300 -0.33317900 0.01754310
v 0.78627700 -0.32132500 -0.06115660
v 0.78913300 -0.33317900 0.33318800
v 0.77743100 -0.35654700 0.33318800
v 0.78034900 -0.34632900 0.34193700
v 0.74819000 -0.39161400 0.34488100
v 0.73651900 -0.38578000 0.35072700
v 0.68390400 -0.42084700 0.35072700
v 0.50858400 -0.43838000 0.35072700
v 0.49688200 -0.42084700 0.34488100
v 0.49288900 -0.42084700 0.33947800
v 0.71898000 -0.14058800 -0.00011594
v 0.71898000 -0.15784400 -0.03507120
v 0.71898000 -0.16367800 -0.04676320
v 0.69290400 -0.19701700 -0.06115660
v 0.69259600 -0.19732500 -0.06115660
v 0.49288900 -0.14058800 0.31565000
v 0.80227900 -0.28937600 -0.04382010
v 0.80667100 -0.28060900 -0.03507120
v 0.80667100 -0.28060900 0.33318800
v 0.78722900 -0.31564600 -0.06115660
v 0.78326600 -0.33901300 0.34488100
v 0.77159500 -0.35290400 0.34633200
v 0.77159500 -0.33317900 0.35072700
v 0.50858400 -0.42084700 0.35072700
v 0.49288900 -0.24551200 0.33318800
v 0.77113400 -0.14058800 -0.00011594
v 0.73651900 -0.15784400 -0.03507120
v 0.73651900 -0.16367800 -0.04676320
v 0.71087200 -0.19247900 -0.06115660
v 0.77159500 -0.14058800 0.35072700
v 0.78854900 -0.30471800 -0.06115660
v 0.80080500 -0.28060900 -0.04676320
v 0.80667100 -0.14058800 0.01754310
v 0.80667100 -0.14058800 0.33318800
v 0.80120400 -0.14058800 0.34637200
v 0.80080500 -0.28644400 0.34488100
v 0.78913300 -0.28060900 0.35072700
v 0.78882600 -0.14058800 -0.00007562
v 0.74527200 -0.16661100 -0.04821470
v 0.71898000 -0.19247900 -0.06115660
v 0.78913300 -0.14058800 0.00000501
v 0.78913300 -0.14058800 0.35072700
v 0.75338100 -0.21306800 -0.06115660
v 0.79788700 -0.27184300 -0.04821470
v 0.80080500 -0.14058800 0.00585104
v 0.76281000 -0.16661100 -0.03942550
v 0.76281000 -0.18414400 -0.04821470
v 0.73387700 -0.19553500 -0.06115660
f 1 2 3
f 50 65 81
f 50 81 66
f 50 66 67
f 50 67 51
f 53 68 69
f 53 69 70
f 53 70 71
f 53 71 72
f 53 72 54
f 53 73 87
f 49 65 50
f 53 87 99
f 53 92 91
f 53 91 90
f 53 90 102
f 53 102 98
f 53 98 95
f 53 95 83
f 53 83 68
f 56 58 74
f 56 74 75
f 56 75 76
f 53 99 92
f 56 76 59
f 47 81 65
f 47 99 87
f 39 53 54
f 40 55 41
f 41 56 57
f 41 57 42
f 41 55 58
f 41 58 56
f 42 57 59
f 42 59 60
f 42 60 43
f 43 60 44
f 47 87 81
f 44 61 78
f 44 62 45
f 44 60 61
f 45 62 63
f 45 63 64
f 45 64 47
f 45 47 46
f 47 64 63
f 47 63 80
f 47 80 94
f 47 94 99
f 44 78 62
f 38 53 39
f 56 59 57
f 59 76 93
f 78 94 80
f 78 80 79
f 81 87 82
f 83 95 84
f 84 95 85
f 85 96 97
f 85 95 98
f 85 98 96
f 88 100 101
f 88 101 89
f 78 93 94
f 89 101 102
f 92 94 93
f 96 103 104
f 96 104 100
f 96 100 105
f 96 105 97
f 96 98 102
f 96 102 103
f 100 104 101
f 101 104 102
f 102 104 103
f 92 99 94
f 58 77 74
f 76 92 93
f 75 91 76
f 59 93 78
f 59 78 61
f 59 61 60
f 62 78 79
f 62 79 63
f 63 79 80
f 66 81 82
f 66 82 67
f 68 83 84
f 68 84 69
f 76 91 92
f 69 84 85
f 70 85 97
f 70 97 86
f 70 86 71
f 73 82 87
f 74 77 88
f 74 88 89
f 74 89 75
f 75 89 102
f 75 102 90
f 75 90 91
f 69 85 70
f 37 53 38
f 48 65 49
f 35 50 51
f 5 97 105
f 5 105 100
f 5 100 88
f 5 88 77
f 5 77 58
f 5 58 55
f 5 55 40
f 5 40 24
f 5 24 15
f 5 15 14
f 5 86 97
f 5 14 6
f 7 14 15
f 7 15 16
f 7 16 29
f 7 29 17
f 8 18 35
f 8 35 51
f 8 51 67
f 8 67 82
f 8 82 73
f 8 73 53
f 6 14 7
f 8 53 52
f 5 71 86
f 5 54 72
f 1 3 4
f 1 4 5
f 1 5 6
f 1 6 7
f 1 7 17
f 1 17 33
f 1 33 18
f 1 18 8
f 1 8 2
f 2 9 3
f 37 52 53
f 2 8 10
f 3 9 11
f 3 11 12
f 3 12 13
f 3 13 5
f 3 5 4
f 5 13 12
f 5 12 23
f 5 23 22
f 5 22 39
f 5 39 54
f 2 10 9
f 8 52 36
f 5 72 71
f 8 21 10
f 22 38 39
f 24 40 41
f 24 41 42
f 24 42 25
f 25 27 26
f 25 42 43
f 25 43 27
f 27 43 28
f 28 43 29
f 29 44 30
f 20 38 22
f 30 44 45
f 30 46 31
f 31 46 32
f 32 46 47
f 32 47 65
f 32 65 48
f 33 48 34
f 34 48 49
f 34 49 35
f 35 49 50
f 8 36 21
f 30 45 46
f 19 38 20
f 29 43 44
f 15 24 25
f 9 19 20
f 19 37 38
f 9 20 11
f 9 10 19
f 10 21 19
f 11 20 22
f 11 22 23
f 11 23 12
f 15 25 26
f 15 26 27
f 15 28 16
f 15 27 28
f 17 29 30
f 17 30 31
f 17 31 32
f 17 32 48
f 17 48 33
f 18 33 34
f 18 34 35
f 19 21 36
f 19 36 52
f 19 52 37
f 16 28 29

