# https://github.com/mikedh/trimesh
v 0.49288900 -0.14053100 0.31564900
v 0.73676400 -0.14053100 0.31577300
v 0.49288900 0.44718300 0.31577300
v 0.80071200 0.44148600 0.31577300
v 0.80667100 0.42094500 0.31577300
v 0.80203300 0.44033600 0.31577300
v 0.80080500 0.45004700 0.02924570
v 0.79423200 0.44591700 0.31577300
v 0.78913300 0.45594500 0.03509430
v 0.78913300 0.44718300 0.31577300
v 0.49288900 0.45594500 0.03509430
v 0.78913300 0.45594500 0.01754850
v 0.80080500 0.45004700 0.01169990
v 0.80667100 0.43836900 0.03509430
v 0.80280100 0.43837900 0.31577300
v 0.80667100 -0.14058800 0.01754850
v 0.80667100 0.43836900 0.01754850
v 0.79788700 0.44712700 0.00438915
v 0.78913300 0.45004700 0.00585131
v 0.63132000 0.45594500 -0.01192660
v 0.63774000 0.45431000 -0.01192660
v 0.68203100 0.43650000 -0.01192660
v 0.78913300 0.43836900 0.00000272
v 0.80304700 0.27901700 -0.01192660
v 0.80080500 0.43836900 0.00585131
v 0.80080500 -0.14058800 0.00585131
v 0.49288900 -0.14058800 0.00000272
v 0.80667100 -0.14053100 0.31577300
v 0.80667100 -0.14053100 0.31564900
v 0.49288900 0.43813500 -0.00046146
v 0.49288900 0.37010800 -0.00092564
v 0.50575800 0.38295500 -0.01192660
v 0.50575800 0.41804800 -0.01192660
v 0.50858400 0.42739100 -0.01192660
v 0.49288900 0.41991700 -0.00092564
v 0.51193200 0.43410600 -0.01192660
v 0.52609200 0.44117100 -0.01192660
v 0.49288900 0.45004700 0.00585131
v 0.49288900 0.45594500 0.01754850
v 0.73464500 0.40146500 -0.01192660
v 0.76972100 0.34885400 -0.01192660
v 0.78799700 0.31451900 -0.01192660
v 0.70727800 0.16363400 -0.01192660
v 0.71615500 0.15505000 -0.01192660
v 0.78882600 -0.14058800 -0.00009012
v 0.73369300 0.15505000 -0.01192660
v 0.76394700 0.17198400 -0.01192660
v 0.74975700 0.16112300 -0.01192660
v 0.77439000 0.19288800 -0.01192660
v 0.80059000 0.26698800 -0.01192660
f 39 11 20
f 12 20 11
f 37 20 34
f 20 24 34
f 41 24 40
f 42 23 24
f 42 24 41
f 39 30 11
f 40 24 20
f 38 36 30
f 35 30 33
f 38 39 20
f 38 20 37
f 38 37 36
f 36 37 34
f 36 34 30
f 35 33 31
f 35 31 30
f 33 30 34
f 33 34 32
f 42 41 23
f 38 30 39
f 41 40 23
f 45 24 26
f 22 40 20
f 33 32 31
f 8 10 4
f 10 3 4
f 45 26 27
f 47 43 24
f 49 47 24
f 50 49 24
f 50 24 45
f 50 45 49
f 49 45 47
f 48 47 45
f 48 45 46
f 48 46 47
f 46 43 47
f 44 43 46
f 44 46 45
f 44 45 27
f 44 27 43
f 32 43 27
f 32 34 43
f 43 34 24
f 22 23 40
f 31 32 27
f 21 18 23
f 30 27 11
f 17 13 14
f 17 14 16
f 14 5 16
f 15 6 5
f 15 5 14
f 15 14 6
f 7 6 14
f 7 14 13
f 7 13 12
f 18 13 17
f 9 7 12
f 9 11 3
f 9 3 10
f 9 10 8
f 9 8 7
f 7 4 6
f 6 4 5
f 5 4 2
f 2 4 3
f 2 3 1
f 9 12 11
f 18 12 13
f 7 8 4
f 19 20 12
f 19 12 18
f 3 11 1
f 1 11 27
f 5 29 16
f 28 29 5
f 28 5 2
f 28 2 16
f 2 1 16
f 16 1 27
f 16 27 26
f 28 16 29
f 17 16 24
f 16 26 24
f 21 20 18
f 21 22 20
f 31 27 30
f 21 23 22
f 18 24 23
f 25 24 18
f 25 17 24
f 25 18 17
f 19 18 20

