# https://github.com/mikedh/trimesh
v 0.53049200 -0.25428300 -0.37703500
v 0.54144700 -0.24989400 -0.36827100
v 0.58308900 -0.18414200 -0.41209200
v 0.58454900 -0.18121000 -0.42085600
v 0.53195100 -0.25136900 -0.38578400
v 0.53195100 -0.25136900 -0.42085600
v 0.53195100 -0.25721600 -0.41502400
v 0.53195100 -0.25721600 -0.37995100
v 0.56555600 -0.28934400 -0.30689000
v 0.54802400 -0.27180400 -0.34196200
v 0.57626600 -0.28504700 -0.29831100
v 0.55898000 -0.26743300 -0.33319800
v 0.60062100 -0.20168200 -0.35950600
v 0.59404500 -0.17975300 -0.40332800
v 0.59624300 -0.17538200 -0.42085600
v 0.58746800 -0.17975300 -0.42963600
v 0.53487000 -0.24989400 -0.42963600
v 0.53487000 -0.25428300 -0.42963600
v 0.53778900 -0.26890900 -0.42670400
v 0.53778900 -0.26890900 -0.39163200
v 0.57285400 -0.30395100 -0.32150200
v 0.59040400 -0.32149100 -0.29831100
v 0.57477100 -0.29810500 -0.29831100
v 0.56993500 -0.28934400 -0.30250800
v 0.57623100 -0.28515800 -0.29831100
v 0.57642400 -0.28489900 -0.29831100
v 0.61817200 -0.21922200 -0.32443400
v 0.60793700 -0.19875000 -0.35657500
v 0.60501800 -0.18414200 -0.39456400
v 0.61377500 -0.19290300 -0.36827100
v 0.60793700 -0.18121000 -0.40917600
v 0.60793700 -0.18121000 -0.42670400
v 0.59624300 -0.18121000 -0.43255300
v 0.59916200 -0.18998900 -0.43548400
v 0.54656400 -0.26013000 -0.43548400
v 0.61377500 -0.31564500 -0.45594500
v 0.60501800 -0.32440500 -0.44716500
v 0.59332400 -0.31855900 -0.44131700
v 0.61085600 -0.33609900 -0.44131700
v 0.60793700 -0.33903100 -0.42670400
v 0.62545200 -0.35657100 -0.30397400
v 0.62545200 -0.35657100 -0.29831100
v 0.63691700 -0.23388500 -0.29831100
v 0.63707600 -0.23377400 -0.29831100
v 0.64884000 -0.23193000 -0.29831100
v 0.63714600 -0.20459600 -0.36242300
v 0.61963100 -0.18705600 -0.39748000
v 0.65051100 -0.23257500 -0.29831100
v 0.60501800 -0.18414200 -0.43401800
v 0.61963100 -0.18705600 -0.41502400
v 0.66053400 -0.23382900 -0.42670400
v 0.66199400 -0.24552200 -0.44059200
v 0.65759800 -0.25428300 -0.45154700
v 0.64884000 -0.28056500 -0.45594500
v 0.66857100 -0.28056500 -0.45154700
v 0.63348800 -0.31564500 -0.45154700
v 0.61963100 -0.32733800 -0.45009700
v 0.62691100 -0.34194500 -0.42963600
v 0.62253300 -0.34194500 -0.42963600
v 0.62545200 -0.34487800 -0.42085600
v 0.61963100 -0.34487800 -0.41502400
v 0.62253300 -0.34633500 -0.41209200
v 0.63111400 -0.35939300 -0.29831100
v 0.65759800 -0.23674300 -0.29831100
v 0.69268000 -0.27180400 -0.29831100
v 0.70105100 -0.28017800 -0.29831100
v 0.67221100 -0.23967600 -0.36242300
v 0.65467900 -0.22213600 -0.41502400
v 0.67806700 -0.25136900 -0.37411900
v 0.67952600 -0.27180400 -0.44716500
v 0.67514800 -0.27180400 -0.45154700
v 0.67075100 -0.28934400 -0.44716500
v 0.65321900 -0.30688400 -0.44716500
v 0.63568600 -0.32440500 -0.44716500
v 0.63130800 -0.33318400 -0.43840100
v 0.63714600 -0.33903100 -0.42085600
v 0.68374700 -0.35066900 -0.29831100
v 0.66617900 -0.35939300 -0.29831100
v 0.65107400 -0.36378200 -0.29831100
v 0.65079200 -0.36378200 -0.29831100
v 0.63835900 -0.36120000 -0.29831100
v 0.70140200 -0.28062000 -0.29831100
v 0.70891100 -0.29325400 -0.29831100
v 0.71010700 -0.29810500 -0.29831100
v 0.70799700 -0.31507300 -0.29831100
v 0.70787400 -0.31564500 -0.29831100
v 0.67952600 -0.28934400 -0.42963600
v 0.67221100 -0.30395100 -0.42085600
v 0.68401100 -0.35052100 -0.29831100
v 0.70778600 -0.31582900 -0.29831100
v 0.68828400 -0.34194500 -0.30689000
f 40 62 41
f 41 62 63
f 40 61 62
f 39 58 59
f 39 60 40
f 39 59 60
f 40 60 61
f 41 63 42
f 51 68 69
f 46 64 65
f 46 65 66
f 46 66 67
f 46 67 47
f 47 67 50
f 49 52 53
f 50 67 68
f 50 68 51
f 51 69 70
f 46 48 64
f 39 57 58
f 34 49 53
f 36 39 37
f 30 46 47
f 51 70 52
f 30 47 31
f 30 45 48
f 30 48 46
f 31 47 50
f 31 50 32
f 32 49 33
f 32 50 51
f 32 51 52
f 32 52 49
f 33 49 34
f 34 53 54
f 34 54 36
f 34 36 35
f 36 54 55
f 36 55 56
f 36 56 57
f 36 57 39
f 37 39 38
f 52 70 71
f 67 82 83
f 53 71 54
f 70 83 84
f 70 84 85
f 70 85 86
f 70 86 87
f 70 87 72
f 70 72 71
f 89 91 90
f 72 87 88
f 72 88 76
f 72 76 73
f 73 76 74
f 74 76 75
f 76 89 77
f 76 88 89
f 86 90 87
f 87 90 91
f 87 91 88
f 88 91 89
f 29 30 31
f 69 83 70
f 52 71 53
f 67 69 68
f 66 82 67
f 54 71 55
f 55 72 73
f 55 73 56
f 55 71 72
f 56 74 57
f 56 73 74
f 57 74 75
f 57 75 58
f 58 60 59
f 58 75 76
f 58 76 77
f 58 77 78
f 58 78 60
f 60 78 79
f 60 79 62
f 60 62 61
f 62 79 80
f 62 80 81
f 62 81 63
f 67 83 69
f 28 45 30
f 2 12 13
f 27 44 28
f 7 20 8
f 8 20 9
f 9 21 22
f 9 22 23
f 9 23 24
f 9 24 11
f 9 11 10
f 9 20 21
f 7 19 20
f 11 24 25
f 11 23 22
f 11 22 42
f 11 42 63
f 11 63 81
f 11 81 80
f 11 80 79
f 11 79 78
f 11 78 77
f 11 25 23
f 7 18 19
f 6 17 18
f 6 18 7
f 28 44 45
f 1 2 14
f 1 14 3
f 1 3 4
f 1 5 6
f 1 6 7
f 1 7 8
f 1 8 9
f 1 9 10
f 1 10 11
f 1 11 2
f 2 13 14
f 2 11 12
f 3 14 4
f 4 14 15
f 4 15 16
f 4 16 17
f 4 17 6
f 4 6 5
f 11 77 89
f 11 89 90
f 1 4 5
f 11 86 85
f 16 33 34
f 16 34 35
f 16 35 17
f 17 35 18
f 18 35 19
f 19 35 36
f 19 36 37
f 19 37 38
f 15 33 16
f 19 38 39
f 19 41 42
f 19 42 20
f 20 42 21
f 27 43 44
f 21 42 22
f 23 25 24
f 26 43 27
f 11 90 86
f 19 40 41
f 15 32 33
f 19 39 40
f 15 29 31
f 11 85 84
f 15 31 32
f 11 84 83
f 11 83 82
f 11 82 66
f 11 66 65
f 11 64 48
f 11 48 45
f 11 45 44
f 11 65 64
f 11 43 26
f 11 26 27
f 11 27 12
f 12 27 13
f 13 27 28
f 13 28 14
f 14 29 15
f 11 44 43
f 14 28 30
f 14 30 29

