# https://github.com/mikedh/trimesh
v -0.48289500 -0.14058800 0.14777000
v -0.48289500 -0.43838000 0.14777000
v -0.48289500 -0.14058800 0.00000760
v -0.78911100 -0.14058800 0.14777000
v -0.48289500 -0.45594500 0.10521600
v -0.64882400 -0.43838000 0.14777000
v -0.48289500 -0.43838000 0.00000760
v -0.50539900 -0.38578000 -0.01117920
v -0.51018500 -0.36985100 -0.01117920
v -0.70302500 -0.15944900 -0.01117920
v -0.71896800 -0.15466500 -0.01117920
v -0.70188400 -0.14058800 -0.00014799
v -0.80080700 -0.14058800 0.09936610
v -0.78911100 -0.29814300 0.14777000
v -0.48289500 -0.45594500 0.01754240
v -0.61380000 -0.45594500 0.10521600
v -0.65887200 -0.43337900 0.14777000
v -0.67804800 -0.43254600 0.11105100
v -0.66635200 -0.43838000 0.10521600
v -0.48289500 -0.45007900 0.00585771
v -0.51265800 -0.43538600 -0.01117920
v -0.50806200 -0.42618700 -0.01117920
v -0.50539900 -0.42084700 -0.01117920
v -0.75405600 -0.15466500 -0.01117920
v -0.75405600 -0.14058800 -0.00014799
v -0.80663900 -0.14058800 0.03507710
v -0.80080700 -0.22797800 0.09936610
v -0.80663900 -0.26304500 0.03507710
v -0.78911100 -0.31564600 0.10521600
v -0.78327900 -0.32731400 0.11105100
v -0.76575100 -0.36241200 0.11105100
v -0.76575100 -0.34487800 0.14777000
v -0.48289500 -0.45125200 0.00816041
v -0.63132800 -0.45594500 -0.01117920
v -0.64882400 -0.45153000 0.03727090
v -0.63132800 -0.45594500 0.03507710
v -0.67221600 -0.42671200 0.14777000
v -0.71313600 -0.41501200 0.11105100
v -0.69557600 -0.43254600 0.04092720
v -0.68391200 -0.43838000 0.03507710
v -0.52929800 -0.44156000 -0.01117920
v -0.51868000 -0.43838000 -0.01117920
v -0.75938000 -0.15731900 -0.01117920
v -0.78911100 -0.14058800 0.00000760
v -0.80663900 -0.14058800 0.01754240
v -0.80372300 -0.27767700 0.02046740
v -0.80226500 -0.28060900 0.03727090
v -0.80663900 -0.26304500 0.01754240
v -0.78619500 -0.33024700 0.02046740
v -0.78473700 -0.33317900 0.03727090
v -0.78036300 -0.34194600 0.03946470
v -0.75988800 -0.37408000 0.09936610
v -0.75988800 -0.35654700 0.14777000
v -0.77595800 -0.35071300 0.03288330
v -0.64590800 -0.45301200 0.02046740
v -0.68391200 -0.43838000 0.01754240
v -0.69266000 -0.42961300 -0.00876757
v -0.69218500 -0.42915000 -0.01117920
v -0.70727200 -0.40917800 0.14777000
v -0.72483200 -0.40917800 0.09936610
v -0.70727200 -0.42671200 0.02924260
v -0.76857200 -0.16191900 -0.01117920
v -0.77158300 -0.16796900 -0.01117920
v -0.80134600 -0.26597800 -0.01117920
v -0.78942800 -0.14058800 0.00016319
v -0.80651300 -0.14058800 0.01724670
v -0.80226500 -0.27523800 -0.01117920
v -0.80198000 -0.27943600 -0.01117920
v -0.78036300 -0.34194600 0.00878276
v -0.78911100 -0.31564600 -0.01117920
v -0.77450000 -0.35364500 0.01461730
v -0.75988800 -0.37408000 0.01169230
v -0.72483200 -0.39161400 0.14777000
v -0.70727200 -0.42671200 0.01169230
v -0.74236000 -0.39161400 -0.01117920
v -0.72483200 -0.40917800 0.01169230
v -0.80080700 -0.14058800 0.00585771
v -0.78277200 -0.32836400 -0.01117920
v -0.77741600 -0.33901300 -0.01117920
v -0.75770100 -0.36972800 -0.01117920
f 31 52 53
f 31 53 32
f 31 51 54
f 31 54 52
f 34 36 55
f 34 55 56
f 34 56 57
f 34 57 58
f 38 59 60
f 35 40 55
f 37 59 38
f 38 60 61
f 38 61 39
f 39 61 40
f 40 61 74
f 30 51 31
f 35 55 36
f 30 50 51
f 20 42 21
f 29 49 50
f 40 74 56
f 18 39 40
f 18 40 19
f 19 40 35
f 20 33 34
f 20 34 41
f 20 41 42
f 29 50 30
f 24 43 44
f 26 45 48
f 26 48 28
f 28 46 47
f 28 47 29
f 28 48 46
f 29 47 46
f 29 46 49
f 24 44 25
f 40 56 55
f 74 76 75
f 44 62 63
f 57 74 58
f 58 74 75
f 59 73 60
f 60 76 74
f 60 74 61
f 64 67 77
f 64 77 65
f 56 74 57
f 66 77 67
f 69 79 71
f 69 70 78
f 71 79 80
f 71 80 72
f 72 80 75
f 72 75 76
f 18 38 39
f 69 78 79
f 43 62 44
f 53 60 73
f 52 72 76
f 44 63 64
f 44 64 65
f 45 66 67
f 45 67 48
f 46 48 68
f 46 68 49
f 48 67 68
f 52 76 60
f 49 69 50
f 49 70 69
f 50 69 51
f 51 69 71
f 51 71 54
f 52 60 53
f 52 54 71
f 52 71 72
f 49 68 70
f 18 37 38
f 1 5 15
f 16 35 36
f 1 59 37
f 1 37 17
f 1 17 6
f 1 6 2
f 2 6 16
f 2 16 5
f 3 7 23
f 3 23 8
f 3 8 9
f 3 9 10
f 3 10 11
f 3 11 12
f 4 13 27
f 4 27 14
f 5 16 36
f 1 73 59
f 1 53 73
f 1 32 53
f 1 4 14
f 1 2 5
f 17 37 18
f 1 15 33
f 1 33 20
f 1 20 7
f 1 7 3
f 1 3 12
f 5 36 34
f 1 12 25
f 1 44 65
f 1 65 77
f 1 77 66
f 1 66 45
f 1 45 26
f 1 26 13
f 1 13 4
f 1 25 44
f 5 34 15
f 1 14 32
f 6 18 19
f 8 62 43
f 8 43 24
f 8 24 11
f 8 11 10
f 8 10 9
f 11 24 25
f 13 26 28
f 8 63 62
f 13 28 27
f 14 28 29
f 14 29 30
f 14 30 31
f 14 31 32
f 15 34 33
f 16 19 35
f 6 17 18
f 14 27 28
f 8 64 63
f 11 25 12
f 8 22 21
f 8 67 64
f 7 20 21
f 7 21 22
f 7 22 23
f 8 23 22
f 8 21 42
f 8 42 41
f 6 19 16
f 8 41 34
f 8 58 75
f 8 75 80
f 8 80 79
f 8 79 78
f 8 78 70
f 8 70 68
f 8 68 67
f 8 34 58

