o convex_0
v 0.63132 -0.455945 -0.0350712
v 0.526092 -0.43838 -0.0350712
v 0.531958 -0.432546 -0.0467632
v 0.637156 -0.450079 -0.0467632
v 0.668086 -0.436682 -0.0611566
v 0.678068 -0.432546 -0.0611566
v 0.648859 -0.455945 0.0175431
v 0.492889 -0.455945 0.0175431
v 0.517338 -0.429613 -0.0438201
v 0.492889 -0.450079 0.00585104
v 0.526092 -0.420847 -0.0525689
v 0.552199 -0.412296 -0.0611566
v 0.580426 -0.419149 -0.0611566
v 0.68974 -0.426712 -0.0611566
v 0.724816 -0.409178 -0.0611566
v 0.707278 -0.426712 0.0175431
v 0.648859 -0.455945 0.333188
v 0.492889 -0.455945 0.105234
v 0.508584 -0.420847 -0.0350712
v 0.51442 -0.415012 -0.0467632
v 0.492889 -0.438781 -0.000357845
v 0.5432 -0.386212 -0.0611566
v 0.551954 -0.411864 -0.0611566
v 0.759892 -0.37408 -0.0611566
v 0.76063 -0.38578 0.0175431
v 0.74819 -0.397479 0.0175431
v 0.736519 -0.409888 0.0350812
v 0.727734 -0.416463 0.0263323
v 0.707278 -0.426712 0.333188
v 0.692658 -0.433997 0.341937
v 0.657582 -0.45153 0.341937
v 0.648859 -0.450079 0.344881
v 0.508584 -0.455945 0.333188
v 0.496882 -0.450079 0.339035
v 0.492889 -0.442146 0.335043
v 0.492889 -0.436528 -0.000922284
v 0.508584 -0.38578 -0.0350712
v 0.51442 -0.379945 -0.0467632
v 0.546732 -0.364573 -0.0611566
v 0.762903 -0.368092 -0.0611566
v 0.784741 -0.341946 0.00879422
v 0.767203 -0.377013 0.0263323
v 0.74819 -0.397479 0.333188
v 0.745272 -0.39893 0.341937
v 0.701442 -0.423038 0.346332
v 0.666366 -0.440572 0.346332
v 0.648859 -0.43838 0.350727
v 0.508584 -0.450079 0.344881
v 0.4998 -0.447147 0.346332
v 0.496882 -0.43838 0.344881
v 0.492889 -0.43838 0.336898
v 0.492889 -0.386706 -0.000922284
v 0.492889 -0.140588 5.01248e-06
v 0.552322 -0.355127 -0.0611566
v 0.771595 -0.350713 -0.0611566
v 0.802279 -0.306879 0.0263323
v 0.789133 -0.333179 0.0175431
v 0.786277 -0.321325 -0.0611566
v 0.789133 -0.333179 0.333188
v 0.777431 -0.356547 0.333188
v 0.780349 -0.346329 0.341937
v 0.74819 -0.391614 0.344881
v 0.736519 -0.38578 0.350727
v 0.683904 -0.420847 0.350727
v 0.508584 -0.43838 0.350727
v 0.496882 -0.420847 0.344881
v 0.492889 -0.420847 0.339478
v 0.71898 -0.140588 -0.000115936
v 0.71898 -0.157844 -0.0350712
v 0.71898 -0.163678 -0.0467632
v 0.692904 -0.197017 -0.0611566
v 0.692596 -0.197325 -0.0611566
v 0.492889 -0.140588 0.31565
v 0.802279 -0.289376 -0.0438201
v 0.806671 -0.280609 -0.0350712
v 0.806671 -0.280609 0.333188
v 0.787229 -0.315646 -0.0611566
v 0.783266 -0.339013 0.344881
v 0.771595 -0.352904 0.346332
v 0.771595 -0.333179 0.350727
v 0.508584 -0.420847 0.350727
v 0.492889 -0.245512 0.333188
v 0.771134 -0.140588 -0.000115936
v 0.736519 -0.157844 -0.0350712
v 0.736519 -0.163678 -0.0467632
v 0.710872 -0.192479 -0.0611566
v 0.771595 -0.140588 0.350727
v 0.788549 -0.304718 -0.0611566
v 0.800805 -0.280609 -0.0467632
v 0.806671 -0.140588 0.0175431
v 0.806671 -0.140588 0.333188
v 0.801204 -0.140588 0.346372
v 0.800805 -0.286444 0.344881
v 0.789133 -0.280609 0.350727
v 0.788826 -0.140588 -7.56199e-05
v 0.745272 -0.166611 -0.0482147
v 0.71898 -0.192479 -0.0611566
v 0.789133 -0.140588 5.01248e-06
v 0.789133 -0.140588 0.350727
v 0.753381 -0.213068 -0.0611566
v 0.797887 -0.271843 -0.0482147
v 0.800805 -0.140588 0.00585104
v 0.76281 -0.166611 -0.0394255
v 0.76281 -0.184144 -0.0482147
v 0.733877 -0.195535 -0.0611566
f 1 2 3
f 1 3 4
f 1 4 5
f 1 5 6
f 1 6 7
f 1 7 17
f 1 17 33
f 1 33 18
f 1 18 8
f 1 8 2
f 2 9 3
f 2 8 10
f 2 10 9
f 3 9 11
f 3 11 12
f 3 12 13
f 3 13 5
f 3 5 4
f 5 13 12
f 5 12 23
f 5 23 22
f 5 22 39
f 5 39 54
f 5 54 72
f 5 72 71
f 5 71 86
f 5 86 97
f 5 97 105
f 5 105 100
f 5 100 88
f 5 88 77
f 5 77 58
f 5 58 55
f 5 55 40
f 5 40 24
f 5 24 15
f 5 15 14
f 5 14 6
f 6 14 7
f 7 14 15
f 7 15 16
f 7 16 29
f 7 29 17
f 8 18 35
f 8 35 51
f 8 51 67
f 8 67 82
f 8 82 73
f 8 73 53
f 8 53 52
f 8 52 36
f 8 36 21
f 8 21 10
f 9 19 20
f 9 20 11
f 9 10 19
f 10 21 19
f 11 20 22
f 11 22 23
f 11 23 12
f 15 24 25
f 15 25 26
f 15 26 27
f 15 27 28
f 15 28 16
f 16 28 29
f 17 29 30
f 17 30 31
f 17 31 32
f 17 32 48
f 17 48 33
f 18 33 34
f 18 34 35
f 19 21 36
f 19 36 52
f 19 52 37
f 19 37 38
f 19 38 20
f 20 38 22
f 22 38 39
f 24 40 41
f 24 41 42
f 24 42 25
f 25 27 26
f 25 42 43
f 25 43 27
f 27 43 28
f 28 43 29
f 29 43 44
f 29 44 30
f 30 44 45
f 30 45 46
f 30 46 31
f 31 46 32
f 32 46 47
f 32 47 65
f 32 65 48
f 33 48 34
f 34 48 49
f 34 49 35
f 35 49 50
f 35 50 51
f 37 52 53
f 37 53 38
f 38 53 39
f 39 53 54
f 40 55 41
f 41 56 57
f 41 57 42
f 41 55 58
f 41 58 56
f 42 57 59
f 42 59 60
f 42 60 43
f 43 60 44
f 44 61 78
f 44 78 62
f 44 62 45
f 44 60 61
f 45 62 63
f 45 63 64
f 45 64 47
f 45 47 46
f 47 64 63
f 47 63 80
f 47 80 94
f 47 94 99
f 47 99 87
f 47 87 81
f 47 81 65
f 48 65 49
f 49 65 50
f 50 65 81
f 50 81 66
f 50 66 67
f 50 67 51
f 53 68 69
f 53 69 70
f 53 70 71
f 53 71 72
f 53 72 54
f 53 73 87
f 53 87 99
f 53 99 92
f 53 92 91
f 53 91 90
f 53 90 102
f 53 102 98
f 53 98 95
f 53 95 83
f 53 83 68
f 56 58 74
f 56 74 75
f 56 75 76
f 56 76 59
f 56 59 57
f 58 77 74
f 59 76 93
f 59 93 78
f 59 78 61
f 59 61 60
f 62 78 79
f 62 79 63
f 63 79 80
f 66 81 82
f 66 82 67
f 68 83 84
f 68 84 69
f 69 84 85
f 69 85 70
f 70 85 97
f 70 97 86
f 70 86 71
f 73 82 87
f 74 77 88
f 74 88 89
f 74 89 75
f 75 89 102
f 75 102 90
f 75 90 91
f 75 91 76
f 76 91 92
f 76 92 93
f 78 93 94
f 78 94 80
f 78 80 79
f 81 87 82
f 83 95 84
f 84 95 85
f 85 96 97
f 85 95 98
f 85 98 96
f 88 100 101
f 88 101 89
f 89 101 102
f 92 99 94
f 92 94 93
f 96 103 104
f 96 104 100
f 96 100 105
f 96 105 97
f 96 98 102
f 96 102 103
f 100 104 101
f 101 104 102
f 102 104 103
o convex_1
v 0.806671 0.420968 0.315782
v 0.806671 0.438369 0.333197
v 0.806671 0.420851 0.350731
v 0.803722 0.435449 0.347806
v 0.794969 0.444208 0.356573
v 0.800805 0.450047 0.327347
v 0.802033 0.440354 0.315782
v 0.802801 0.438369 0.315782
v 0.789133 0.447186 0.315782
v 0.794232 0.445959 0.315782
v 0.800712 0.441463 0.315782
v 0.797887 0.447127 0.320038
v 0.789133 0.455945 0.333197
v -0.482863 0.455945 0.333191
v 0.492889 0.447186 0.315782
v -0.482863 0.447776 0.316957
v 0.492889 0.386049 0.315782
v 0.806671 -0.140588 0.315782
v 0.736764 -0.14053 0.315782
v -0.482863 0.388394 0.316957
v -0.482863 -0.105202 0.333191
v -0.482863 -0.116904 0.339042
v -0.268855 -0.128549 0.344885
v -0.482863 -0.122698 0.350727
v -0.25723 -0.1344 0.356578
v -0.219238 -0.135907 0.359495
v -0.263085 -0.1344 0.362412
v -0.482863 -0.122698 0.368255
v -0.482863 -0.105202 0.385791
v -0.482863 -0.116904 0.379948
v 0.789133 -0.105203 0.385798
v 0.71898 -0.12856 0.374106
v 0.789133 -0.116881 0.379948
v 0.789133 -0.140588 0.350731
v 0.666366 -0.12856 0.374106
v -0.263085 -0.128549 0.374106
v 0.759892 -0.140588 0.344889
v 0.801204 -0.140588 0.346415
v 0.797887 -0.118341 0.377023
v 0.800805 -0.111042 0.379948
v 0.800805 -0.00581954 0.379948
v 0.806671 -0.105203 0.368256
v 0.806671 -0.140588 0.333197
v 0.806671 1.96653e-05 0.368256
v 0.800805 0.415012 0.362414
v 0.789133 0.420851 0.368256
v 0.789133 1.96653e-05 0.385798
v 0.771595 0.0701485 0.385798
v 0.754057 0.105242 0.385798
v 0.490967 0.192867 0.403336
v -0.482863 0.192867 0.403336
v -0.0525722 0.420837 0.368257
v -0.482863 0.420837 0.368255
v -0.482863 0.444242 0.356578
v 0.492889 0.444242 0.356577
v -0.482863 0.0175599 0.403336
v 0.490967 0.0175599 0.403336
f 107 108 106
f 107 109 108
f 107 110 109
f 107 111 110
f 107 112 111
f 107 113 112
f 107 106 113
f 113 106 112
f 112 106 114
f 115 112 114
f 116 112 115
f 116 117 112
f 116 115 117
f 117 115 111
f 117 111 112
f 115 118 111
f 115 114 118
f 114 119 118
f 120 119 114
f 120 121 119
f 120 122 121
f 120 114 122
f 122 114 123
f 124 122 123
f 124 125 122
f 124 126 125
f 124 127 126
f 128 127 124
f 128 129 127
f 128 130 129
f 128 124 130
f 130 124 131
f 130 131 132
f 129 130 132
f 129 132 133
f 129 133 127
f 133 134 127
f 135 134 133
f 135 136 134
f 137 136 135
f 137 138 136
f 137 139 138
f 137 140 139
f 137 135 140
f 135 141 140
f 135 132 141
f 135 133 132
f 141 132 131
f 141 131 139
f 141 139 140
f 142 139 131
f 142 123 139
f 142 124 123
f 142 131 124
f 143 139 123
f 143 144 139
f 145 144 143
f 145 136 144
f 145 146 136
f 145 147 146
f 148 147 145
f 148 123 147
f 148 143 123
f 148 145 143
f 147 123 106
f 108 147 106
f 149 147 108
f 149 146 147
f 149 108 146
f 108 150 146
f 108 110 150
f 108 109 110
f 151 150 110
f 151 152 150
f 151 153 152
f 151 154 153
f 151 155 154
f 151 156 155
f 151 157 156
f 151 158 157
f 151 159 158
f 151 160 159
f 151 110 160
f 110 118 160
f 110 111 118
f 160 118 159
f 159 118 119
f 159 119 158
f 158 119 161
f 156 158 161
f 157 158 156
f 156 161 155
f 162 155 161
f 162 136 155
f 162 161 136
f 134 136 161
f 134 161 127
f 127 161 126
f 126 161 119
f 121 126 119
f 125 126 121
f 125 121 122
f 152 155 136
f 152 153 155
f 154 155 153
f 146 152 136
f 146 150 152
f 106 123 114
f 138 144 136
f 138 139 144
o convex_2
v -0.482863 -0.210198 1.16717e-05
v -0.482863 0.447794 0.316957
v -0.482863 0.438404 1.16717e-05
v -0.482863 0.455945 0.017556
v -0.482863 0.450076 0.00584884
v 0.492889 0.438113 -0.000458732
v -0.227999 -0.0876766 -0.0180573
v -0.0876997 -0.0876766 -0.0180573
v 0.492889 0.419899 -0.000935903
v 0.492889 0.450086 0.00587177
v 0.492889 0.455945 0.0175466
v 0.492889 0.451359 0.324051
v 0.492889 0.455945 0.0350748
v -0.482863 0.455945 0.0351003
v -0.0525722 0.451359 0.324051
v 0.492889 0.397483 0.324051
v 0.492889 -0.194652 1.84392e-05
v 0.492889 -0.194652 0.315653
v -0.0526144 -0.210198 0.315645
v -0.482863 -0.210198 0.315645
v -0.482863 0.388391 0.316957
v -0.0525722 0.397483 0.324051
v -0.0526144 -0.210198 1.16717e-05
v -0.0876997 -0.157773 -0.0180573
v -0.0760327 -0.15197 -0.0180573
v -0.0701781 -0.140233 -0.0180573
v -0.227999 -0.157773 -0.0180573
v -0.239666 -0.15197 -0.0180573
v -0.245521 -0.140233 -0.0180573
v -0.245521 -0.105217 -0.0180573
v -0.239666 -0.0934799 -0.0180573
v -0.0741795 -0.0916542 -0.0180573
v -0.0701781 -0.105217 -0.0180573
v 0.492889 0.370098 -0.000935903
f 164 165 163
f 166 165 164
f 167 165 166
f 168 165 167
f 168 169 165
f 168 170 169
f 168 171 170
f 168 172 171
f 168 167 172
f 173 172 167
f 173 174 172
f 175 174 173
f 175 176 174
f 175 173 176
f 173 166 176
f 173 167 166
f 176 166 164
f 176 164 177
f 176 177 174
f 174 177 178
f 174 178 172
f 178 179 172
f 180 179 178
f 180 181 179
f 180 178 181
f 182 181 178
f 182 163 181
f 182 164 163
f 183 164 182
f 183 184 164
f 183 182 184
f 184 182 178
f 184 178 177
f 184 177 164
f 185 181 163
f 185 179 181
f 186 179 185
f 187 179 186
f 187 188 179
f 187 186 188
f 186 189 188
f 186 185 189
f 189 185 163
f 190 189 163
f 190 191 189
f 190 163 191
f 191 163 165
f 192 191 165
f 192 169 191
f 193 169 192
f 193 165 169
f 193 192 165
f 169 170 191
f 170 188 191
f 194 188 170
f 195 188 194
f 195 171 188
f 195 194 171
f 194 170 171
f 196 188 171
f 196 179 188
f 196 171 179
f 171 172 179
f 189 191 188
o convex_3
v -0.052609 -0.105225 -0.192893
v -0.052609 -0.140291 -0.192893
v -0.052609 -0.105225 -0.263041
v -0.058459 -0.0935317 -0.198732
v -0.0741552 -0.0916778 -0.0180573
v -0.0701591 -0.105225 -0.0180573
v -0.058459 -0.151977 -0.192893
v -0.0569965 -0.149059 -0.271786
v -0.052609 -0.140291 -0.263041
v -0.0701591 -0.140291 -0.0180573
v -0.0703238 -0.140634 -0.0180573
v -0.0614046 -0.105204 -0.298102
v -0.0631349 -0.0982076 -0.298102
v -0.058459 -0.0935317 -0.26888
v -0.0701591 -0.0876885 -0.192893
v -0.0876885 -0.0876885 -0.0180573
v -0.061384 -0.153439 -0.184121
v -0.058459 -0.151977 -0.263041
v -0.0760091 -0.151977 -0.0180573
v -0.0701591 -0.151249 -0.298102
v -0.0614046 -0.14027 -0.298102
v -0.0726103 -0.0908401 -0.298102
v -0.0701591 -0.0876885 -0.263041
v -0.227965 -0.0876885 -0.0180573
v -0.0701591 -0.157827 -0.192893
v -0.0763387 -0.152149 -0.0180573
v -0.0876885 -0.157827 -0.0180573
v -0.0701591 -0.157827 -0.263041
v -0.067955 -0.153439 -0.280558
v -0.0876885 -0.157827 -0.298102
v -0.0876885 -0.0876885 -0.298102
v -0.228316 -0.0878602 -0.0180573
v -0.245495 -0.0876885 -0.192893
v -0.227965 -0.157827 -0.0180573
v -0.210415 -0.157827 -0.298102
v -0.227965 -0.0876885 -0.298102
v -0.239645 -0.0935317 -0.0180573
v -0.257195 -0.0935317 -0.192893
v -0.245495 -0.0876885 -0.263041
v -0.25427 -0.0920692 -0.271786
v -0.239645 -0.151977 -0.0180573
v -0.257195 -0.151977 -0.187027
v -0.245495 -0.157827 -0.192893
v -0.227986 -0.157806 -0.298102
v -0.245495 -0.157827 -0.263041
v -0.239645 -0.0935248 -0.298102
v -0.23983 -0.093875 -0.0180573
v -0.258657 -0.0964567 -0.184121
v -0.257195 -0.0935317 -0.263041
v -0.263045 -0.105225 -0.192893
v -0.257195 -0.0993748 -0.274719
v -0.245248 -0.140806 -0.0180573
v -0.263045 -0.140291 -0.192893
v -0.257195 -0.151977 -0.257175
v -0.245495 -0.140291 -0.0180573
v -0.239645 -0.151977 -0.298102
v -0.245515 -0.105232 -0.298102
v -0.245495 -0.105225 -0.0180573
v -0.263045 -0.105225 -0.263041
v -0.263045 -0.140291 -0.263041
v -0.251345 -0.146134 -0.286424
v -0.245474 -0.140318 -0.298102
v -0.245515 -0.122761 -0.298102
f 197 198 205
f 197 205 199
f 197 199 210
f 197 210 200
f 197 200 201
f 197 201 202
f 197 202 206
f 197 206 198
f 198 203 204
f 198 204 205
f 198 206 207
f 198 207 203
f 199 205 217
f 199 217 208
f 199 208 209
f 199 209 210
f 200 210 219
f 200 219 211
f 200 211 201
f 201 212 220
f 201 220 228
f 201 228 233
f 201 233 243
f 201 243 254
f 201 254 251
f 201 251 248
f 201 248 237
f 201 237 230
f 201 230 223
f 201 223 222
f 201 222 215
f 201 215 207
f 201 207 206
f 201 206 202
f 201 211 212
f 203 213 221
f 203 221 224
f 203 224 214
f 203 214 204
f 203 207 215
f 203 215 213
f 204 214 216
f 204 216 217
f 204 217 205
f 208 217 216
f 208 216 226
f 208 226 231
f 208 231 240
f 208 240 252
f 208 252 258
f 208 258 259
f 208 259 253
f 208 253 242
f 208 242 232
f 208 232 227
f 208 227 218
f 208 218 209
f 209 218 210
f 210 218 219
f 211 219 227
f 211 227 232
f 211 232 235
f 211 235 229
f 211 229 220
f 211 220 212
f 213 215 222
f 213 222 223
f 213 223 221
f 214 224 225
f 214 225 216
f 216 225 224
f 216 224 226
f 218 227 219
f 220 229 228
f 221 223 230
f 221 230 239
f 221 239 241
f 221 241 231
f 221 231 226
f 221 226 224
f 228 229 234
f 228 234 233
f 229 235 236
f 229 236 234
f 230 237 238
f 230 238 239
f 231 241 240
f 232 242 236
f 232 236 235
f 233 234 244
f 233 244 243
f 234 236 245
f 234 245 255
f 234 255 246
f 234 246 244
f 236 242 247
f 236 247 245
f 237 248 238
f 238 249 256
f 238 256 250
f 238 250 241
f 238 241 239
f 238 248 251
f 238 251 249
f 240 241 252
f 241 250 252
f 242 253 247
f 243 244 254
f 244 246 254
f 245 247 255
f 246 255 256
f 246 256 249
f 246 249 251
f 246 251 254
f 247 253 255
f 250 256 257
f 250 257 252
f 252 257 258
f 253 259 256
f 253 256 255
f 256 259 257
f 257 259 258
o convex_4
v -0.0701512 -0.0876816 -0.315657
v -0.0584627 -0.0935394 -0.321504
v -0.0701512 -0.0876816 -0.333187
v -0.0876934 -0.0876816 -0.298102
v -0.072606 -0.0908448 -0.298102
v -0.052609 -0.105221 -0.315657
v -0.0584627 -0.0935394 -0.339033
v -0.0613895 -0.0964515 -0.30689
v -0.0613895 -0.0964515 -0.346338
v -0.0701512 -0.0935394 -0.34488
v -0.236736 -0.0920666 -0.341954
v -0.227955 -0.0876816 -0.333187
v -0.227955 -0.0876816 -0.298102
v -0.0631456 -0.0982088 -0.298102
v -0.052609 -0.140301 -0.315657
v -0.052609 -0.105221 -0.333187
v -0.0613895 -0.105205 -0.298102
v -0.0584627 -0.105221 -0.34488
v -0.0701512 -0.105221 -0.350727
v -0.227955 -0.105221 -0.350727
v -0.227955 -0.0935394 -0.34488
v -0.239663 -0.0993804 -0.34488
v -0.239663 -0.0935394 -0.333187
v -0.239644 -0.0935227 -0.298102
v -0.052609 -0.140301 -0.333187
v -0.0613895 -0.140284 -0.298102
v -0.0584627 -0.146142 -0.303964
v -0.0920742 -0.254276 -0.324419
v -0.0584627 -0.140301 -0.34488
v -0.0701512 -0.140301 -0.350727
v -0.227955 -0.140301 -0.350727
v -0.239663 -0.13446 -0.34488
v -0.245498 -0.105221 -0.333187
v -0.245517 -0.105238 -0.298102
v -0.239663 -0.0935394 -0.298122
v -0.0570087 -0.149071 -0.341954
v -0.0701512 -0.151263 -0.298102
v -0.0935282 -0.251347 -0.321504
v -0.0643164 -0.151983 -0.34488
v -0.096455 -0.258644 -0.324419
v -0.0993819 -0.257188 -0.32734
v -0.105236 -0.245506 -0.333187
v -0.175348 -0.245506 -0.333187
v -0.184128 -0.254276 -0.324419
v -0.236736 -0.149071 -0.341954
v -0.245498 -0.140301 -0.333187
v -0.245517 -0.122778 -0.298102
v -0.0876934 -0.157841 -0.298102
v -0.105236 -0.245506 -0.315657
v -0.105236 -0.257188 -0.321504
v -0.166586 -0.258644 -0.324419
v -0.169513 -0.257188 -0.32734
v -0.175348 -0.257188 -0.321504
v -0.184128 -0.254276 -0.320041
v -0.239663 -0.151983 -0.32734
v -0.245498 -0.140301 -0.298122
v -0.245479 -0.140334 -0.298102
v -0.210432 -0.157841 -0.298102
v -0.113997 -0.254276 -0.320041
v -0.175348 -0.245506 -0.315657
v -0.239663 -0.151983 -0.298102
v -0.227993 -0.157824 -0.298102
f 260 261 266
f 260 266 262
f 260 262 271
f 260 271 272
f 260 272 263
f 260 263 264
f 260 264 261
f 261 265 275
f 261 275 266
f 261 264 267
f 261 267 265
f 262 266 268
f 262 268 269
f 262 269 270
f 262 270 271
f 263 272 283
f 263 283 293
f 263 293 306
f 263 306 316
f 263 316 320
f 263 320 321
f 263 321 317
f 263 317 307
f 263 307 296
f 263 296 285
f 263 285 276
f 263 276 273
f 263 273 264
f 264 273 267
f 265 274 284
f 265 284 275
f 265 267 273
f 265 273 276
f 265 276 285
f 265 285 274
f 266 275 268
f 268 275 277
f 268 277 278
f 268 278 279
f 268 279 280
f 268 280 269
f 269 280 270
f 270 280 279
f 270 279 281
f 270 281 282
f 270 282 283
f 270 283 272
f 270 272 271
f 274 285 286
f 274 286 287
f 274 287 284
f 275 284 288
f 275 288 277
f 277 288 289
f 277 289 278
f 278 289 290
f 278 290 279
f 279 290 291
f 279 291 281
f 281 291 305
f 281 305 292
f 281 292 282
f 282 292 293
f 282 293 294
f 282 294 283
f 283 294 293
f 284 295 288
f 284 287 295
f 285 296 297
f 285 297 287
f 285 287 286
f 287 298 295
f 287 297 299
f 287 299 300
f 287 300 298
f 288 295 298
f 288 298 289
f 289 298 300
f 289 300 301
f 289 301 302
f 289 302 290
f 290 302 303
f 290 303 304
f 290 304 291
f 291 304 305
f 292 305 306
f 292 306 293
f 296 307 308
f 296 308 297
f 297 308 299
f 299 308 309
f 299 309 312
f 299 312 310
f 299 310 311
f 299 311 300
f 300 311 302
f 300 302 301
f 302 311 303
f 303 311 310
f 303 310 312
f 303 312 313
f 303 313 320
f 303 320 314
f 303 314 305
f 303 305 304
f 305 314 320
f 305 320 315
f 305 315 306
f 306 315 316
f 307 317 319
f 307 319 308
f 308 318 309
f 308 319 313
f 308 313 318
f 309 318 313
f 309 313 312
f 313 319 320
f 315 320 316
f 317 321 319
f 319 321 320
o convex_5
v -0.530474 -0.254289 -0.429622
v -0.537782 -0.268905 -0.42086
v -0.600631 -0.324421 -0.447146
v -0.534859 -0.254289 -0.434021
v -0.605015 -0.184132 -0.434021
v -0.605015 -0.179772 -0.429622
v -0.602092 -0.181209 -0.426713
v -0.531936 -0.251366 -0.426713
v -0.531936 -0.251366 -0.391628
v -0.531936 -0.257212 -0.385775
v -0.585891 -0.403322 -0.0845169
v -0.590102 -0.414891 -0.0845169
v -0.590895 -0.416476 -0.0845169
v -0.607939 -0.339012 -0.42086
v -0.615965 -0.33755 -0.438384
v -0.607939 -0.327344 -0.450091
v -0.613785 -0.315651 -0.455945
v -0.648863 -0.280598 -0.455945
v -0.657608 -0.254289 -0.451545
v -0.666378 -0.260854 -0.451545
v -0.613785 -0.190722 -0.434021
v -0.607939 -0.181209 -0.403335
v -0.602092 -0.181209 -0.409153
v -0.619631 -0.187055 -0.42086
v -0.75011 -0.240168 -0.0845169
v -0.748078 -0.239376 -0.0845169
v -0.534859 -0.254289 -0.377013
v -0.586361 -0.323281 -0.0845169
v -0.579351 -0.33381 -0.0845169
v -0.578707 -0.33319 -0.0877164
v -0.573356 -0.351027 -0.0845169
v -0.57239 -0.354594 -0.0845169
v -0.675147 -0.23675 -0.0845169
v -0.57239 -0.361927 -0.0845169
v -0.610614 -0.420861 -0.0845169
v -0.594066 -0.416476 -0.0877164
v -0.619631 -0.344858 -0.42086
v -0.61817 -0.341935 -0.429622
v -0.634247 -0.336089 -0.441329
v -0.625478 -0.327344 -0.450091
v -0.631324 -0.315651 -0.455945
v -0.666378 -0.280598 -0.455945
v -0.67807 -0.274751 -0.450091
v -0.675147 -0.267443 -0.447146
v -0.661993 -0.243339 -0.438384
v -0.648863 -0.2258 -0.434021
v -0.736509 -0.235164 -0.0845169
v -0.701431 -0.2312 -0.0845169
v -0.687311 -0.229937 -0.0845169
v -0.65471 -0.222134 -0.42086
v -0.783553 -0.320036 -0.0845169
v -0.672224 -0.257212 -0.438384
v -0.683917 -0.280598 -0.438384
v -0.670762 -0.432826 -0.0845169
v -0.672224 -0.432554 -0.0877164
v -0.613785 -0.420861 -0.0877164
v -0.61158 -0.416476 -0.105241
v -0.622555 -0.341935 -0.429622
v -0.701431 -0.420861 -0.122765
v -0.65471 -0.321497 -0.444237
v -0.710201 -0.377013 -0.254306
v -0.648863 -0.298137 -0.455945
v -0.64594 -0.312728 -0.453
v -0.663454 -0.295213 -0.453
v -0.672224 -0.303983 -0.444237
v -0.783281 -0.321497 -0.0877164
v -0.783281 -0.324644 -0.0845169
v -0.742356 -0.356551 -0.233837
v -0.745279 -0.341935 -0.236746
v -0.748202 -0.339012 -0.227983
v -0.67537 -0.432554 -0.0845169
v -0.680746 -0.431216 -0.0845169
v -0.724817 -0.409168 -0.128619
v -0.724817 -0.37409 -0.233837
v -0.72774 -0.359474 -0.254306
v -0.771588 -0.350705 -0.122765
v -0.781943 -0.330019 -0.0845169
v -0.745279 -0.394552 -0.131527
v -0.759895 -0.37409 -0.128619
v -0.749664 -0.341935 -0.219221
v -0.715824 -0.413677 -0.0845169
v -0.724817 -0.409168 -0.0845169
v -0.773173 -0.347558 -0.0845169
v -0.745279 -0.394552 -0.109604
v -0.765741 -0.362397 -0.0845169
v -0.758186 -0.372381 -0.0845169
f 322 323 324
f 322 324 325
f 322 325 326
f 322 326 327
f 322 327 328
f 322 328 329
f 322 329 330
f 322 330 331
f 322 331 332
f 322 332 333
f 322 333 334
f 322 334 323
f 323 334 324
f 324 335 336
f 324 336 337
f 324 337 325
f 324 334 335
f 325 337 338
f 325 338 326
f 326 338 339
f 326 339 340
f 326 340 341
f 326 341 342
f 326 342 327
f 327 343 344
f 327 344 328
f 327 342 345
f 327 345 346
f 327 346 347
f 327 347 343
f 328 344 330
f 328 330 329
f 330 348 349
f 330 349 350
f 330 350 351
f 330 351 352
f 330 352 353
f 330 353 331
f 330 344 354
f 330 354 348
f 331 353 355
f 331 355 332
f 332 355 353
f 332 353 352
f 332 352 350
f 332 350 349
f 332 349 354
f 332 354 370
f 332 370 369
f 332 369 368
f 332 368 347
f 332 347 346
f 332 346 372
f 332 372 388
f 332 388 398
f 332 398 404
f 332 404 406
f 332 406 407
f 332 407 403
f 332 403 402
f 332 402 393
f 332 393 392
f 332 392 375
f 332 375 356
f 332 356 334
f 332 334 333
f 334 356 377
f 334 377 357
f 334 357 358
f 334 358 359
f 334 359 335
f 335 359 336
f 336 360 337
f 336 359 360
f 337 360 361
f 337 361 362
f 337 362 338
f 338 362 383
f 338 383 363
f 338 363 339
f 339 363 340
f 340 363 341
f 341 363 364
f 341 364 365
f 341 365 366
f 341 366 367
f 341 367 342
f 342 367 371
f 342 371 345
f 343 347 368
f 343 368 369
f 343 369 370
f 343 370 344
f 344 370 354
f 345 371 346
f 346 371 373
f 346 373 374
f 346 374 372
f 348 354 349
f 350 352 351
f 356 375 376
f 356 376 377
f 357 377 378
f 357 378 358
f 358 379 359
f 358 378 376
f 358 376 380
f 358 380 379
f 359 379 360
f 360 381 362
f 360 362 361
f 360 379 380
f 360 380 382
f 360 382 381
f 362 381 384
f 362 384 383
f 363 383 385
f 363 385 386
f 363 386 364
f 364 374 373
f 364 373 365
f 364 386 374
f 365 373 366
f 366 373 371
f 366 371 367
f 372 387 388
f 372 374 387
f 374 386 389
f 374 389 390
f 374 390 391
f 374 391 387
f 375 392 376
f 376 378 377
f 376 392 380
f 380 392 393
f 380 393 394
f 380 394 382
f 381 386 385
f 381 385 384
f 381 382 396
f 381 396 386
f 382 395 389
f 382 389 396
f 382 394 399
f 382 399 395
f 383 384 385
f 386 396 389
f 387 397 388
f 387 391 397
f 388 397 398
f 389 395 399
f 389 399 400
f 389 400 397
f 389 397 401
f 389 401 391
f 389 391 390
f 391 401 397
f 393 402 394
f 394 402 403
f 394 403 405
f 394 405 399
f 397 400 398
f 398 400 404
f 399 405 400
f 400 405 406
f 400 406 404
f 403 407 405
f 405 407 406
o convex_6
v 0.492889 -0.140531 0.315649
v 0.736764 -0.140531 0.315773
v 0.492889 0.447183 0.315773
v 0.800712 0.441486 0.315773
v 0.806671 0.420945 0.315773
v 0.802033 0.440336 0.315773
v 0.800805 0.450047 0.0292457
v 0.794232 0.445917 0.315773
v 0.789133 0.455945 0.0350943
v 0.789133 0.447183 0.315773
v 0.492889 0.455945 0.0350943
v 0.789133 0.455945 0.0175485
v 0.800805 0.450047 0.0116999
v 0.806671 0.438369 0.0350943
v 0.802801 0.438379 0.315773
v 0.806671 -0.140588 0.0175485
v 0.806671 0.438369 0.0175485
v 0.797887 0.447127 0.00438915
v 0.789133 0.450047 0.00585131
v 0.63132 0.455945 -0.0119266
v 0.63774 0.45431 -0.0119266
v 0.682031 0.4365 -0.0119266
v 0.789133 0.438369 2.7166e-06
v 0.803047 0.279017 -0.0119266
v 0.800805 0.438369 0.00585131
v 0.800805 -0.140588 0.00585131
v 0.492889 -0.140588 2.7166e-06
v 0.806671 -0.140531 0.315773
v 0.806671 -0.140531 0.315649
v 0.492889 0.438135 -0.000461461
v 0.492889 0.370108 -0.000925638
v 0.505758 0.382955 -0.0119266
v 0.505758 0.418048 -0.0119266
v 0.508584 0.427391 -0.0119266
v 0.492889 0.419917 -0.000925638
v 0.511932 0.434106 -0.0119266
v 0.526092 0.441171 -0.0119266
v 0.492889 0.450047 0.00585131
v 0.492889 0.455945 0.0175485
v 0.734645 0.401465 -0.0119266
v 0.769721 0.348854 -0.0119266
v 0.787997 0.314519 -0.0119266
v 0.707278 0.163634 -0.0119266
v 0.716155 0.15505 -0.0119266
v 0.788826 -0.140588 -9.01165e-05
v 0.733693 0.15505 -0.0119266
v 0.763947 0.171984 -0.0119266
v 0.749757 0.161123 -0.0119266
v 0.77439 0.192888 -0.0119266
v 0.80059 0.266988 -0.0119266
f 409 410 408
f 409 411 410
f 412 411 409
f 413 411 412
f 414 411 413
f 414 415 411
f 416 415 414
f 416 417 415
f 416 410 417
f 416 418 410
f 416 419 418
f 416 414 419
f 414 420 419
f 414 421 420
f 414 413 421
f 422 421 413
f 422 412 421
f 422 413 412
f 421 412 423
f 424 421 423
f 424 420 421
f 425 420 424
f 425 419 420
f 426 419 425
f 426 427 419
f 426 425 427
f 428 427 425
f 428 429 427
f 428 430 429
f 428 425 430
f 425 431 430
f 432 431 425
f 432 424 431
f 432 425 424
f 424 423 431
f 423 433 431
f 423 434 433
f 423 408 434
f 409 408 423
f 435 409 423
f 435 412 409
f 435 436 412
f 435 423 436
f 412 436 423
f 408 418 434
f 410 418 408
f 437 434 418
f 438 434 437
f 438 439 434
f 440 439 438
f 440 441 439
f 440 437 441
f 442 437 440
f 442 438 437
f 442 440 438
f 443 441 437
f 443 444 441
f 445 444 443
f 445 427 444
f 445 446 427
f 445 437 446
f 445 443 437
f 446 437 418
f 446 418 427
f 419 427 418
f 444 427 441
f 427 431 441
f 447 431 427
f 448 431 447
f 449 431 448
f 449 430 431
f 449 448 430
f 448 447 430
f 429 430 447
f 429 447 427
f 450 441 431
f 439 441 450
f 439 450 434
f 451 434 450
f 451 452 434
f 451 453 452
f 451 450 453
f 453 450 454
f 455 453 454
f 455 452 453
f 455 454 452
f 456 452 454
f 457 452 456
f 457 431 452
f 457 456 431
f 456 454 431
f 454 450 431
f 452 431 433
f 452 433 434
f 417 410 411
f 415 417 411
o convex_7
v 0.63132 0.455945 -0.0119374
v 0.637741 0.454324 -0.0119374
v 0.63132 0.455945 -0.0350799
v 0.526103 0.441187 -0.0119374
v 0.682043 0.436533 -0.0119374
v 0.622542 0.451556 -0.0438464
v 0.526103 0.438389 -0.0350799
v 0.675121 0.434 -0.0964459
v 0.517325 0.434 -0.0438464
v 0.511934 0.434118 -0.0119374
v 0.734651 0.401451 -0.0119374
v 0.724813 0.409168 -0.046765
v 0.724813 0.409168 -0.116908
v 0.718951 0.412085 -0.122756
v 0.701425 0.420862 -0.122756
v 0.622542 0.416473 -0.113979
v 0.514409 0.426695 -0.046765
v 0.514409 0.432556 -0.0350799
v 0.613764 0.403307 -0.122756
v 0.508576 0.427402 -0.0119374
v 0.742369 0.391642 -0.116908
v 0.769733 0.348843 -0.0119374
v 0.759895 0.374086 -0.046765
v 0.759895 0.374086 -0.116908
v 0.727758 0.403307 -0.122756
v 0.63132 0.407224 -0.122756
v 0.622542 0.412085 -0.118362
v 0.600626 0.38799 -0.122746
v 0.590405 0.374086 -0.122756
v 0.578711 0.350698 -0.122756
v 0.514409 0.391642 -0.046765
v 0.508576 0.420862 -0.0350799
v 0.600626 0.38796 -0.122756
v 0.505749 0.418064 -0.0119374
v 0.754033 0.377032 -0.122756
v 0.787996 0.314526 -0.0119374
v 0.777421 0.339034 -0.0292319
v 0.794977 0.303981 -0.0292319
v 0.762811 0.368225 -0.122756
v 0.771589 0.350698 -0.122756
v 0.578711 0.333172 -0.122756
v 0.508576 0.38578 -0.0350799
v 0.505749 0.382982 -0.0119374
v 0.803048 0.279032 -0.0119374
v 0.806671 0.280593 -0.0350799
v 0.802282 0.271815 -0.0438464
v 0.760631 0.315616 -0.122756
v 0.584161 0.319858 -0.122756
v 0.517325 0.377002 -0.0438464
v 0.514409 0.374086 -0.0292319
v 0.698627 0.172578 -0.0119374
v 0.800574 0.267043 -0.0119374
v 0.774387 0.192902 -0.0119374
v 0.7672 0.184154 -0.0438464
v 0.747465 0.280593 -0.122756
v 0.657594 0.236762 -0.122756
v 0.707287 0.163682 -0.0292319
v 0.707287 0.163682 -0.0119374
v 0.771353 0.186835 -0.0119374
v 0.76393 0.172018 -0.0119374
v 0.759895 0.169544 -0.0350799
v 0.756242 0.175376 -0.0482297
v 0.738716 0.267456 -0.122756
v 0.664516 0.232609 -0.122756
v 0.710203 0.166598 -0.0438464
v 0.718981 0.15785 -0.0350799
v 0.716182 0.155022 -0.0119374
v 0.758952 0.167659 -0.0119374
v 0.749762 0.161208 -0.0119374
v 0.748201 0.163682 -0.0350799
v 0.749674 0.166598 -0.0438464
v 0.742369 0.163682 -0.046765
v 0.707287 0.239679 -0.122756
v 0.666372 0.231873 -0.122756
v 0.724813 0.163682 -0.046765
v 0.736507 0.15785 -0.0350799
v 0.733709 0.155022 -0.0119374
v 0.743046 0.15785 -0.0119374
v 0.683899 0.227985 -0.122756
f 458 459 460
f 458 460 461
f 458 461 467
f 458 467 477
f 458 477 491
f 458 491 500
f 458 500 508
f 458 508 515
f 458 515 524
f 458 524 534
f 458 534 535
f 458 535 526
f 458 526 525
f 458 525 517
f 458 517 516
f 458 516 510
f 458 510 509
f 458 509 501
f 458 501 493
f 458 493 479
f 458 479 468
f 458 468 462
f 458 462 459
f 459 462 460
f 460 463 466
f 460 466 464
f 460 464 461
f 460 462 465
f 460 465 463
f 461 464 466
f 461 466 467
f 462 468 469
f 462 469 470
f 462 470 471
f 462 471 472
f 462 472 465
f 463 465 473
f 463 473 466
f 465 472 473
f 466 474 475
f 466 475 467
f 466 473 476
f 466 476 474
f 467 475 477
f 468 478 470
f 468 470 469
f 468 479 480
f 468 480 481
f 468 481 478
f 470 478 482
f 470 482 471
f 471 482 492
f 471 492 496
f 471 496 497
f 471 497 504
f 471 504 512
f 471 512 520
f 471 520 530
f 471 530 536
f 471 536 531
f 471 531 521
f 471 521 513
f 471 513 505
f 471 505 498
f 471 498 487
f 471 487 486
f 471 486 490
f 471 490 476
f 471 476 483
f 471 483 472
f 472 483 484
f 472 484 473
f 473 484 476
f 474 485 486
f 474 486 487
f 474 487 498
f 474 498 488
f 474 488 499
f 474 499 489
f 474 489 475
f 474 476 485
f 475 489 477
f 476 484 483
f 476 490 485
f 477 489 491
f 478 481 492
f 478 492 482
f 479 493 494
f 479 494 480
f 480 494 495
f 480 495 481
f 481 496 492
f 481 495 502
f 481 502 497
f 481 497 496
f 485 490 486
f 488 498 499
f 489 499 500
f 489 500 491
f 493 501 502
f 493 502 495
f 493 495 494
f 497 502 503
f 497 503 504
f 498 505 499
f 499 505 506
f 499 506 507
f 499 507 500
f 500 507 514
f 500 514 508
f 501 509 502
f 502 509 510
f 502 510 503
f 503 510 511
f 503 511 512
f 503 512 504
f 505 507 506
f 505 513 507
f 507 513 514
f 508 514 515
f 510 516 511
f 511 516 517
f 511 517 518
f 511 518 519
f 511 519 520
f 511 520 512
f 513 521 522
f 513 522 514
f 514 522 523
f 514 523 524
f 514 524 515
f 517 525 518
f 518 525 526
f 518 526 527
f 518 527 528
f 518 528 519
f 519 528 529
f 519 529 530
f 519 530 520
f 521 531 522
f 522 531 523
f 523 531 532
f 523 532 529
f 523 529 533
f 523 533 534
f 523 534 524
f 526 535 527
f 527 535 533
f 527 533 528
f 528 533 529
f 529 532 536
f 529 536 530
f 531 536 532
f 533 535 534
o convex_8
v 0.596237 0.175363 -0.420853
v 0.587489 0.184135 -0.429626
v 0.6021 0.181227 -0.432561
v 0.609406 0.184135 -0.429626
v 0.619619 0.187066 -0.420853
v 0.619619 0.187066 -0.403307
v 0.605008 0.179761 -0.394566
v 0.640094 0.214822 -0.201691
v 0.596237 0.179761 -0.401122
v 0.584558 0.181227 -0.415015
v 0.534861 0.254282 -0.429626
v 0.543633 0.263053 -0.438399
v 0.615966 0.192906 -0.433996
v 0.648841 0.280596 -0.455912
v 0.651749 0.265985 -0.453009
v 0.66857 0.263053 -0.451542
v 0.654681 0.222128 -0.420853
v 0.707285 0.239671 -0.157859
v 0.707285 0.239671 -0.122767
v 0.695606 0.233831 -0.122767
v 0.683902 0.227991 -0.122767
v 0.66636 0.231885 -0.122767
v 0.664509 0.232605 -0.122767
v 0.657612 0.236763 -0.122767
v 0.654681 0.233831 -0.134476
v 0.637162 0.216288 -0.204594
v 0.531953 0.251374 -0.379923
v 0.531953 0.251374 -0.415015
v 0.531953 0.268892 -0.432561
v 0.52609 0.263053 -0.420853
v 0.6021 0.321497 -0.450074
v 0.61378 0.315633 -0.455912
v 0.633509 0.210449 -0.433996
v 0.631322 0.298114 -0.455912
v 0.657612 0.289367 -0.451542
v 0.675131 0.271824 -0.451542
v 0.679529 0.271824 -0.447172
v 0.651028 0.227991 -0.433996
v 0.661986 0.236763 -0.429626
v 0.743091 0.280596 -0.157859
v 0.74237 0.274756 -0.140313
v 0.724827 0.257213 -0.157859
v 0.738717 0.267451 -0.122767
v 0.584149 0.319863 -0.122767
v 0.569947 0.306886 -0.171002
v 0.530488 0.254282 -0.37702
v 0.534861 0.276198 -0.429626
v 0.543633 0.282782 -0.433996
v 0.537793 0.286435 -0.420853
v 0.565549 0.324404 -0.1666
v 0.578718 0.350694 -0.122767
v 0.530488 0.271824 -0.41208
v 0.605008 0.328802 -0.447172
v 0.61378 0.327336 -0.450074
v 0.622551 0.324404 -0.451542
v 0.640094 0.306886 -0.451542
v 0.675131 0.289367 -0.442769
v 0.679529 0.280596 -0.440584
v 0.732133 0.341947 -0.254297
v 0.771568 0.350694 -0.122767
v 0.754049 0.298114 -0.140313
v 0.749676 0.289367 -0.149086
v 0.747465 0.280572 -0.122767
v 0.578718 0.333152 -0.122767
v 0.565549 0.315633 -0.173187
v 0.572854 0.321497 -0.420853
v 0.578718 0.317844 -0.433996
v 0.590397 0.374077 -0.122767
v 0.590397 0.374101 -0.140313
v 0.600634 0.387967 -0.122767
v 0.61378 0.403299 -0.122767
v 0.584558 0.362398 -0.122767
v 0.61378 0.33976 -0.438399
v 0.587489 0.328802 -0.429626
v 0.622551 0.346321 -0.429626
v 0.631322 0.333176 -0.438399
v 0.640094 0.324404 -0.442769
v 0.713124 0.362398 -0.268907
v 0.727735 0.35949 -0.249894
v 0.732133 0.350719 -0.247709
v 0.765752 0.362398 -0.128605
v 0.765752 0.362398 -0.122767
v 0.76061 0.315633 -0.122767
v 0.754049 0.298114 -0.122767
v 0.631322 0.407216 -0.122767
v 0.648841 0.403323 -0.175373
v 0.692674 0.398949 -0.236751
v 0.710216 0.377009 -0.249894
v 0.724827 0.374101 -0.22214
v 0.730667 0.362398 -0.233848
v 0.762821 0.368237 -0.122767
v 0.701421 0.420865 -0.122767
v 0.713124 0.415026 -0.128605
v 0.718964 0.412094 -0.122767
v 0.740904 0.390178 -0.122767
v 0.713124 0.415026 -0.122767
f 537 538 539
f 537 539 540
f 537 540 541
f 537 541 542
f 537 542 543
f 537 543 544
f 537 544 545
f 537 545 546
f 537 546 538
f 538 547 548
f 538 548 539
f 538 546 547
f 539 549 540
f 539 548 550
f 539 550 551
f 539 551 552
f 539 552 549
f 540 549 541
f 541 553 578
f 541 578 554
f 541 554 555
f 541 555 542
f 541 549 569
f 541 569 553
f 542 555 543
f 543 555 556
f 543 556 557
f 543 557 544
f 544 557 558
f 544 558 559
f 544 559 560
f 544 560 561
f 544 561 562
f 544 562 546
f 544 546 545
f 546 563 564
f 546 564 547
f 546 562 563
f 547 565 548
f 547 564 566
f 547 566 565
f 548 567 568
f 548 568 550
f 548 565 567
f 549 552 569
f 550 568 570
f 550 570 592
f 550 592 571
f 550 571 572
f 550 572 552
f 550 552 551
f 552 572 573
f 552 573 575
f 552 575 574
f 552 574 569
f 553 569 574
f 553 574 575
f 553 575 576
f 553 576 577
f 553 577 578
f 554 578 579
f 554 579 555
f 555 579 599
f 555 599 620
f 555 620 619
f 555 619 596
f 555 596 618
f 555 618 627
f 555 627 631
f 555 631 630
f 555 630 632
f 555 632 628
f 555 628 621
f 555 621 607
f 555 607 606
f 555 606 604
f 555 604 608
f 555 608 587
f 555 587 600
f 555 600 580
f 555 580 560
f 555 560 559
f 555 559 558
f 555 558 557
f 555 557 556
f 560 580 581
f 560 581 561
f 561 581 562
f 562 581 582
f 562 582 563
f 563 582 564
f 564 582 566
f 565 566 583
f 565 583 584
f 565 584 567
f 566 585 583
f 566 582 586
f 566 586 587
f 566 587 588
f 566 588 585
f 567 589 568
f 567 584 589
f 568 589 590
f 568 590 591
f 568 591 592
f 568 592 570
f 571 592 613
f 571 613 593
f 571 593 572
f 572 593 573
f 573 593 594
f 573 594 616
f 573 616 595
f 573 595 596
f 573 596 597
f 573 597 598
f 573 598 576
f 573 576 575
f 576 598 577
f 577 599 579
f 577 579 578
f 577 598 599
f 580 600 581
f 581 600 601
f 581 601 582
f 582 601 586
f 583 585 584
f 584 585 602
f 584 602 603
f 584 603 589
f 585 588 604
f 585 604 605
f 585 605 606
f 585 606 607
f 585 607 602
f 586 601 600
f 586 600 587
f 587 608 588
f 588 608 604
f 589 609 590
f 589 603 610
f 589 610 609
f 590 609 591
f 591 609 611
f 591 611 612
f 591 612 613
f 591 613 592
f 593 613 614
f 593 614 615
f 593 615 616
f 593 616 594
f 595 616 596
f 596 616 617
f 596 617 618
f 596 619 597
f 597 619 620
f 597 620 599
f 597 599 598
f 602 610 603
f 602 607 610
f 604 606 605
f 607 621 622
f 607 622 611
f 607 611 610
f 609 610 611
f 611 613 612
f 611 622 623
f 611 623 613
f 613 623 624
f 613 624 614
f 614 624 615
f 615 624 625
f 615 625 626
f 615 626 617
f 615 617 616
f 617 627 618
f 617 626 625
f 617 625 627
f 621 628 622
f 622 628 623
f 623 628 629
f 623 629 630
f 623 630 625
f 623 625 624
f 625 630 631
f 625 631 627
f 628 632 629
f 629 632 630
o convex_9
v 0.530492 -0.254283 -0.377035
v 0.541447 -0.249894 -0.368271
v 0.583089 -0.184142 -0.412092
v 0.584549 -0.18121 -0.420856
v 0.531951 -0.251369 -0.385784
v 0.531951 -0.251369 -0.420856
v 0.531951 -0.257216 -0.415024
v 0.531951 -0.257216 -0.379951
v 0.565556 -0.289344 -0.30689
v 0.548024 -0.271804 -0.341962
v 0.576266 -0.285047 -0.298311
v 0.55898 -0.267433 -0.333198
v 0.600621 -0.201682 -0.359506
v 0.594045 -0.179753 -0.403328
v 0.596243 -0.175382 -0.420856
v 0.587468 -0.179753 -0.429636
v 0.53487 -0.249894 -0.429636
v 0.53487 -0.254283 -0.429636
v 0.537789 -0.268909 -0.426704
v 0.537789 -0.268909 -0.391632
v 0.572854 -0.303951 -0.321502
v 0.590404 -0.321491 -0.298311
v 0.574771 -0.298105 -0.298311
v 0.569935 -0.289344 -0.302508
v 0.576231 -0.285158 -0.298311
v 0.576424 -0.284899 -0.298311
v 0.618172 -0.219222 -0.324434
v 0.607937 -0.19875 -0.356575
v 0.605018 -0.184142 -0.394564
v 0.613775 -0.192903 -0.368271
v 0.607937 -0.18121 -0.409176
v 0.607937 -0.18121 -0.426704
v 0.596243 -0.18121 -0.432553
v 0.599162 -0.189989 -0.435484
v 0.546564 -0.26013 -0.435484
v 0.613775 -0.315645 -0.455945
v 0.605018 -0.324405 -0.447165
v 0.593324 -0.318559 -0.441317
v 0.610856 -0.336099 -0.441317
v 0.607937 -0.339031 -0.426704
v 0.625452 -0.356571 -0.303974
v 0.625452 -0.356571 -0.298311
v 0.636917 -0.233885 -0.298311
v 0.637076 -0.233774 -0.298311
v 0.64884 -0.23193 -0.298311
v 0.637146 -0.204596 -0.362423
v 0.619631 -0.187056 -0.39748
v 0.650511 -0.232575 -0.298311
v 0.605018 -0.184142 -0.434018
v 0.619631 -0.187056 -0.415024
v 0.660534 -0.233829 -0.426704
v 0.661994 -0.245522 -0.440592
v 0.657598 -0.254283 -0.451547
v 0.64884 -0.280565 -0.455945
v 0.668571 -0.280565 -0.451547
v 0.633488 -0.315645 -0.451547
v 0.619631 -0.327338 -0.450097
v 0.626911 -0.341945 -0.429636
v 0.622533 -0.341945 -0.429636
v 0.625452 -0.344878 -0.420856
v 0.619631 -0.344878 -0.415024
v 0.622533 -0.346335 -0.412092
v 0.631114 -0.359393 -0.298311
v 0.657598 -0.236743 -0.298311
v 0.69268 -0.271804 -0.298311
v 0.701051 -0.280178 -0.298311
v 0.672211 -0.239676 -0.362423
v 0.654679 -0.222136 -0.415024
v 0.678067 -0.251369 -0.374119
v 0.679526 -0.271804 -0.447165
v 0.675148 -0.271804 -0.451547
v 0.670751 -0.289344 -0.447165
v 0.653219 -0.306884 -0.447165
v 0.635686 -0.324405 -0.447165
v 0.631308 -0.333184 -0.438401
v 0.637146 -0.339031 -0.420856
v 0.683747 -0.350669 -0.298311
v 0.666179 -0.359393 -0.298311
v 0.651074 -0.363782 -0.298311
v 0.650792 -0.363782 -0.298311
v 0.638359 -0.3612 -0.298311
v 0.701402 -0.28062 -0.298311
v 0.708911 -0.293254 -0.298311
v 0.710107 -0.298105 -0.298311
v 0.707997 -0.315073 -0.298311
v 0.707874 -0.315645 -0.298311
v 0.679526 -0.289344 -0.429636
v 0.672211 -0.303951 -0.420856
v 0.684011 -0.350521 -0.298311
v 0.707786 -0.315829 -0.298311
v 0.688284 -0.341945 -0.30689
f 633 634 646
f 633 646 635
f 633 635 636
f 633 636 637
f 633 637 638
f 633 638 639
f 633 639 640
f 633 640 641
f 633 641 642
f 633 642 643
f 633 643 634
f 634 644 645
f 634 645 646
f 634 643 644
f 635 646 636
f 636 646 647
f 636 647 648
f 636 648 649
f 636 649 638
f 636 638 637
f 638 650 639
f 638 649 650
f 639 650 651
f 639 651 652
f 639 652 640
f 640 652 641
f 641 653 654
f 641 654 655
f 641 655 656
f 641 656 643
f 641 643 642
f 641 652 653
f 643 656 657
f 643 657 655
f 643 655 654
f 643 654 674
f 643 674 695
f 643 695 713
f 643 713 712
f 643 712 711
f 643 711 710
f 643 710 709
f 643 709 721
f 643 721 722
f 643 722 718
f 643 718 717
f 643 717 716
f 643 716 715
f 643 715 714
f 643 714 698
f 643 698 697
f 643 697 696
f 643 696 680
f 643 680 677
f 643 677 676
f 643 676 675
f 643 675 658
f 643 658 659
f 643 659 644
f 644 659 645
f 645 659 660
f 645 660 646
f 646 661 647
f 646 660 662
f 646 662 661
f 647 661 663
f 647 663 664
f 647 664 665
f 647 665 648
f 648 665 666
f 648 666 667
f 648 667 649
f 649 667 650
f 650 667 651
f 651 667 668
f 651 668 669
f 651 669 670
f 651 670 671
f 651 671 672
f 651 672 673
f 651 673 674
f 651 674 652
f 652 674 653
f 653 674 654
f 655 657 656
f 658 675 659
f 659 675 676
f 659 676 660
f 660 676 677
f 660 677 662
f 661 662 663
f 662 678 679
f 662 679 663
f 662 677 680
f 662 680 678
f 663 679 682
f 663 682 664
f 664 681 665
f 664 682 683
f 664 683 684
f 664 684 681
f 665 681 666
f 666 681 685
f 666 685 686
f 666 686 668
f 666 668 667
f 668 686 687
f 668 687 688
f 668 688 689
f 668 689 671
f 668 671 669
f 669 671 670
f 671 689 690
f 671 690 691
f 671 691 692
f 671 692 672
f 672 692 693
f 672 693 694
f 672 694 673
f 673 694 695
f 673 695 674
f 678 680 696
f 678 696 697
f 678 697 698
f 678 698 699
f 678 699 679
f 679 699 682
f 681 684 685
f 682 699 700
f 682 700 683
f 683 700 701
f 683 701 702
f 683 702 684
f 684 702 703
f 684 703 685
f 685 703 686
f 686 703 687
f 687 704 705
f 687 705 688
f 687 703 704
f 688 706 689
f 688 705 706
f 689 706 707
f 689 707 690
f 690 692 691
f 690 707 708
f 690 708 709
f 690 709 710
f 690 710 692
f 692 710 711
f 692 711 694
f 692 694 693
f 694 711 712
f 694 712 713
f 694 713 695
f 698 714 699
f 699 714 715
f 699 715 701
f 699 701 700
f 701 715 702
f 702 715 716
f 702 716 717
f 702 717 718
f 702 718 719
f 702 719 704
f 702 704 703
f 704 719 720
f 704 720 708
f 704 708 705
f 705 708 706
f 706 708 707
f 708 721 709
f 708 720 721
f 718 722 719
f 719 722 723
f 719 723 720
f 720 723 721
f 721 723 722
o convex_10
v 0.492889 -0.194676 0.31565
v 0.492889 -0.245528 0.333187
v 0.492889 -0.194676 0.205383
v 0.245357 -0.194676 0.31565
v 0.492889 -0.420857 0.339488
v 0.245357 -0.245528 0.333187
v 0.492889 -0.430571 0.205383
v 0.245357 -0.194676 0.205383
v 0.492889 -0.438397 0.336929
v 0.245357 -0.280584 0.333187
v 0.350732 -0.403316 0.333187
v 0.492889 -0.442152 0.317514
v 0.350732 -0.420857 0.205383
v 0.245357 -0.295265 0.205383
v 0.492889 -0.442152 0.335051
v 0.341961 -0.412086 0.328803
v 0.245357 -0.280705 0.333135
v 0.350732 -0.420857 0.31565
v 0.344966 -0.419427 0.205383
v 0.245357 -0.298197 0.210292
v 0.245405 -0.299263 0.205383
v 0.350732 -0.415018 0.327333
v 0.339053 -0.415018 0.321491
v 0.245357 -0.292285 0.327333
v 0.336049 -0.415769 0.205383
v 0.245357 -0.298124 0.31565
v 0.245357 -0.292334 0.327241
f 724 725 728
f 724 728 732
f 724 732 738
f 724 738 735
f 724 735 730
f 724 730 726
f 724 726 731
f 724 731 727
f 724 727 729
f 724 729 725
f 725 729 728
f 726 730 736
f 726 736 742
f 726 742 748
f 726 748 744
f 726 744 737
f 726 737 731
f 727 731 737
f 727 737 743
f 727 743 749
f 727 749 750
f 727 750 747
f 727 747 740
f 727 740 733
f 727 733 729
f 728 729 733
f 728 733 734
f 728 734 732
f 730 735 736
f 732 734 739
f 732 739 738
f 733 740 739
f 733 739 734
f 735 738 741
f 735 741 736
f 736 741 742
f 737 744 743
f 738 739 745
f 738 745 741
f 739 746 745
f 739 740 747
f 739 747 746
f 741 745 746
f 741 746 748
f 741 748 742
f 743 744 749
f 744 748 749
f 746 747 750
f 746 750 749
f 746 749 748
o convex_11
v -0.0525431 -0.450087 0.00584681
v -0.0525431 -0.455945 0.105199
v -0.0525431 -0.432516 0.169529
v -0.0525431 -0.438399 0.157827
v 0.492889 -0.430572 0.205383
v 0.492889 -0.455945 0.105205
v 0.492889 -0.194677 0.205383
v 0.350732 -0.420853 0.205383
v -0.0525431 -0.420853 0.175348
v -0.0525431 -0.368242 0.192891
v 0.344966 -0.419421 0.205383
v 0.336049 -0.415763 0.205383
v 0.245357 -0.194677 0.205383
v 0.245405 -0.299261 0.205383
v -0.0525431 -0.304172 0.198647
v -0.0525431 -0.194677 0.198647
v -0.0525431 -0.194677 6.31669e-06
v -0.0525431 -0.438348 6.31669e-06
v 0.0350916 -0.438399 -0.0175363
v 0.315672 -0.438399 -0.0175363
v 0.321511 -0.450087 -0.0116884
v 0.0409242 -0.450087 -0.0116747
v 0.0350916 -0.455945 6.31669e-06
v 0.315672 -0.455945 7.43458e-06
v 0.492889 -0.455945 0.0175512
v 0.492889 -0.450087 0.00585536
v 0.492889 -0.438782 -0.000363513
v 0.492889 -0.436532 -0.000930849
v 0.492889 -0.386734 -0.000930849
v 0.492889 -0.194677 7.43458e-06
v -0.0525431 -0.455945 0.0175913
f 752 753 751
f 754 753 752
f 754 755 753
f 754 752 755
f 755 752 756
f 755 756 757
f 755 757 758
f 755 758 753
f 759 753 758
f 759 760 753
f 759 758 760
f 761 760 758
f 761 762 760
f 761 758 762
f 762 758 763
f 764 762 763
f 764 765 762
f 764 763 765
f 765 763 766
f 765 766 760
f 762 765 760
f 760 766 753
f 753 766 751
f 767 751 766
f 768 751 767
f 768 769 751
f 768 767 769
f 770 769 767
f 771 769 770
f 772 769 771
f 772 751 769
f 772 773 751
f 772 771 773
f 774 773 771
f 774 775 773
f 774 771 775
f 776 775 771
f 776 777 775
f 776 771 777
f 771 770 777
f 778 777 770
f 778 779 777
f 778 770 779
f 779 770 780
f 779 780 777
f 777 780 756
f 775 777 756
f 775 756 752
f 773 775 752
f 781 773 752
f 781 751 773
f 781 752 751
f 757 756 780
f 757 780 766
f 763 757 766
f 763 758 757
f 767 766 780
f 770 767 780
o convex_12
v -0.0525431 -0.304149 0.198672
v -0.0525431 -0.298114 0.315677
v -0.0525431 -0.194662 0.198672
v 0.210419 -0.304149 0.198672
v -0.0525431 -0.245504 0.438398
v 0.245357 -0.298114 0.315677
v -0.0525431 -0.194662 0.315677
v 0.245357 -0.194662 0.198672
v 0.233662 -0.302531 0.198672
v -0.0438234 -0.241131 0.447162
v -0.0525431 -0.239651 0.450083
v 0.245357 -0.300751 0.198672
v 0.245357 -0.292315 0.327261
v -0.0525431 -0.210452 0.438398
v 0.245357 -0.194662 0.315677
v -0.0525431 -0.227999 0.455926
v 0.245357 -0.292262 0.327337
v 0.0877016 -0.251346 0.40916
v -0.0525431 -0.217462 0.4489
v 0.0818398 -0.23382 0.415002
v 0.0964213 -0.236746 0.412081
v 0.245357 -0.245515 0.333179
v -0.0438234 -0.21921 0.447162
v 0.0877016 -0.239673 0.415002
v 0.245357 -0.280578 0.333179
v 0.0964213 -0.241131 0.412081
f 782 783 786
f 782 786 792
f 782 792 797
f 782 797 800
f 782 800 795
f 782 795 788
f 782 788 784
f 782 784 789
f 782 789 793
f 782 793 790
f 782 790 785
f 782 785 787
f 782 787 783
f 783 787 786
f 784 788 796
f 784 796 789
f 785 790 787
f 786 791 792
f 786 787 791
f 787 790 793
f 787 793 789
f 787 789 796
f 787 796 803
f 787 803 806
f 787 806 798
f 787 798 794
f 787 794 791
f 788 795 796
f 791 797 792
f 791 794 798
f 791 798 799
f 791 799 797
f 795 800 796
f 796 801 802
f 796 802 803
f 796 800 801
f 797 804 800
f 797 799 805
f 797 805 802
f 797 802 801
f 797 801 804
f 798 806 807
f 798 807 799
f 799 807 805
f 800 804 801
f 802 805 807
f 802 807 806
f 802 806 803
o convex_13
v -0.482895 -0.140588 0.14777
v -0.482895 -0.43838 0.14777
v -0.482895 -0.140588 7.59685e-06
v -0.789111 -0.140588 0.14777
v -0.482895 -0.455945 0.105216
v -0.648824 -0.43838 0.14777
v -0.482895 -0.43838 7.59685e-06
v -0.505399 -0.38578 -0.0111792
v -0.510185 -0.369851 -0.0111792
v -0.703025 -0.159449 -0.0111792
v -0.718968 -0.154665 -0.0111792
v -0.701884 -0.140588 -0.000147988
v -0.800807 -0.140588 0.0993661
v -0.789111 -0.298143 0.14777
v -0.482895 -0.455945 0.0175424
v -0.6138 -0.455945 0.105216
v -0.658872 -0.433379 0.14777
v -0.678048 -0.432546 0.111051
v -0.666352 -0.43838 0.105216
v -0.482895 -0.450079 0.00585771
v -0.512658 -0.435386 -0.0111792
v -0.508062 -0.426187 -0.0111792
v -0.505399 -0.420847 -0.0111792
v -0.754056 -0.154665 -0.0111792
v -0.754056 -0.140588 -0.000147988
v -0.806639 -0.140588 0.0350771
v -0.800807 -0.227978 0.0993661
v -0.806639 -0.263045 0.0350771
v -0.789111 -0.315646 0.105216
v -0.783279 -0.327314 0.111051
v -0.765751 -0.362412 0.111051
v -0.765751 -0.344878 0.14777
v -0.482895 -0.451252 0.00816041
v -0.631328 -0.455945 -0.0111792
v -0.648824 -0.45153 0.0372709
v -0.631328 -0.455945 0.0350771
v -0.672216 -0.426712 0.14777
v -0.713136 -0.415012 0.111051
v -0.695576 -0.432546 0.0409272
v -0.683912 -0.43838 0.0350771
v -0.529298 -0.44156 -0.0111792
v -0.51868 -0.43838 -0.0111792
v -0.75938 -0.157319 -0.0111792
v -0.789111 -0.140588 7.59685e-06
v -0.806639 -0.140588 0.0175424
v -0.803723 -0.277677 0.0204674
v -0.802265 -0.280609 0.0372709
v -0.806639 -0.263045 0.0175424
v -0.786195 -0.330247 0.0204674
v -0.784737 -0.333179 0.0372709
v -0.780363 -0.341946 0.0394647
v -0.759888 -0.37408 0.0993661
v -0.759888 -0.356547 0.14777
v -0.775958 -0.350713 0.0328833
v -0.645908 -0.453012 0.0204674
v -0.683912 -0.43838 0.0175424
v -0.69266 -0.429613 -0.00876757
v -0.692185 -0.42915 -0.0111792
v -0.707272 -0.409178 0.14777
v -0.724832 -0.409178 0.0993661
v -0.707272 -0.426712 0.0292426
v -0.768572 -0.161919 -0.0111792
v -0.771583 -0.167969 -0.0111792
v -0.801346 -0.265978 -0.0111792
v -0.789428 -0.140588 0.000163188
v -0.806513 -0.140588 0.0172467
v -0.802265 -0.275238 -0.0111792
v -0.80198 -0.279436 -0.0111792
v -0.780363 -0.341946 0.00878276
v -0.789111 -0.315646 -0.0111792
v -0.7745 -0.353645 0.0146173
v -0.759888 -0.37408 0.0116923
v -0.724832 -0.391614 0.14777
v -0.707272 -0.426712 0.0116923
v -0.74236 -0.391614 -0.0111792
v -0.724832 -0.409178 0.0116923
v -0.800807 -0.140588 0.00585771
v -0.782772 -0.328364 -0.0111792
v -0.777416 -0.339013 -0.0111792
v -0.757701 -0.369728 -0.0111792
f 808 809 812
f 808 812 822
f 808 822 840
f 808 840 827
f 808 827 814
f 808 814 810
f 808 810 819
f 808 819 832
f 808 832 851
f 808 851 872
f 808 872 884
f 808 884 873
f 808 873 852
f 808 852 833
f 808 833 820
f 808 820 811
f 808 811 821
f 808 821 839
f 808 839 860
f 808 860 880
f 808 880 866
f 808 866 844
f 808 844 824
f 808 824 813
f 808 813 809
f 809 813 823
f 809 823 812
f 810 814 830
f 810 830 815
f 810 815 816
f 810 816 817
f 810 817 818
f 810 818 819
f 811 820 834
f 811 834 821
f 812 823 843
f 812 843 841
f 812 841 822
f 813 824 825
f 813 825 826
f 813 826 823
f 814 827 828
f 814 828 829
f 814 829 830
f 815 830 829
f 815 829 828
f 815 828 849
f 815 849 848
f 815 848 841
f 815 841 865
f 815 865 882
f 815 882 887
f 815 887 886
f 815 886 885
f 815 885 877
f 815 877 875
f 815 875 874
f 815 874 871
f 815 871 870
f 815 870 869
f 815 869 850
f 815 850 831
f 815 831 818
f 815 818 817
f 815 817 816
f 818 831 832
f 818 832 819
f 820 833 835
f 820 835 834
f 821 834 835
f 821 835 836
f 821 836 837
f 821 837 838
f 821 838 839
f 822 841 840
f 823 826 842
f 823 842 843
f 824 844 825
f 825 844 845
f 825 845 846
f 825 846 847
f 825 847 826
f 826 847 842
f 827 840 841
f 827 841 848
f 827 848 849
f 827 849 828
f 831 850 851
f 831 851 832
f 833 852 855
f 833 855 835
f 835 853 854
f 835 854 836
f 835 855 853
f 836 854 853
f 836 853 856
f 836 856 857
f 836 857 837
f 837 857 858
f 837 858 838
f 838 859 860
f 838 860 839
f 838 858 861
f 838 861 859
f 841 843 862
f 841 862 863
f 841 863 864
f 841 864 865
f 842 862 843
f 842 847 862
f 844 866 845
f 845 866 867
f 845 867 868
f 845 868 846
f 846 868 847
f 847 868 881
f 847 881 863
f 847 863 862
f 850 869 851
f 851 869 870
f 851 870 871
f 851 871 872
f 852 873 874
f 852 874 855
f 853 855 875
f 853 875 856
f 855 874 875
f 856 876 857
f 856 875 877
f 856 877 876
f 857 876 858
f 858 876 878
f 858 878 861
f 859 867 860
f 859 861 878
f 859 878 879
f 859 879 883
f 859 883 867
f 860 867 880
f 863 881 864
f 864 881 865
f 865 881 882
f 866 880 867
f 867 883 881
f 867 881 868
f 871 874 884
f 871 884 872
f 873 884 874
f 876 885 886
f 876 886 878
f 876 877 885
f 878 886 887
f 878 887 879
f 879 887 882
f 879 882 883
f 881 883 882
o convex_14
v -0.71896 -0.154678 -0.0111792
v -0.703034 -0.159456 -0.0111792
v -0.71896 -0.157834 -0.0350771
v -0.754056 -0.154678 -0.0111792
v -0.707281 -0.163673 -0.0409206
v -0.510182 -0.369856 -0.0111792
v -0.5144 -0.374103 -0.0409206
v -0.71896 -0.163673 -0.0467641
v -0.736508 -0.157834 -0.0350771
v -0.762816 -0.162228 -0.0263047
v -0.759395 -0.157332 -0.0111792
v -0.745268 -0.162228 -0.0438423
v -0.710201 -0.166622 -0.0482214
v -0.586362 -0.323287 -0.084517
v -0.505404 -0.385782 -0.0111792
v -0.50856 -0.385782 -0.0350771
v -0.5144 -0.385782 -0.0467641
v -0.517349 -0.377022 -0.0482214
v -0.736508 -0.163673 -0.0467641
v -0.687315 -0.229943 -0.084517
v -0.762816 -0.170987 -0.0438423
v -0.768567 -0.161933 -0.0111792
v -0.754056 -0.173199 -0.0482214
v -0.675134 -0.236756 -0.084517
v -0.579342 -0.333816 -0.084517
v -0.505404 -0.420848 -0.0111792
v -0.50856 -0.40333 -0.0350771
v -0.5144 -0.40333 -0.0467641
v -0.569934 -0.359474 -0.0832966
v -0.572382 -0.354608 -0.084517
v -0.573355 -0.351039 -0.084517
v -0.701442 -0.231211 -0.084517
v -0.736508 -0.235163 -0.084517
v -0.748069 -0.239381 -0.084517
v -0.783549 -0.320043 -0.084517
v -0.800802 -0.274742 -0.0467641
v -0.76721 -0.173199 -0.0350771
v -0.750104 -0.240177 -0.084517
v -0.771575 -0.16795 -0.0111792
v -0.508059 -0.426187 -0.0111792
v -0.512955 -0.429637 -0.0263047
v -0.512955 -0.412089 -0.0438423
v -0.523926 -0.420848 -0.0482214
v -0.590107 -0.414891 -0.084517
v -0.58589 -0.40333 -0.084517
v -0.572382 -0.361922 -0.084517
v -0.783283 -0.324644 -0.084517
v -0.806642 -0.280582 -0.0350771
v -0.801333 -0.265983 -0.0111792
v -0.51266 -0.435359 -0.0111792
v -0.521714 -0.429637 -0.0438423
v -0.590903 -0.416483 -0.084517
v -0.782753 -0.326797 -0.084517
v -0.783283 -0.327327 -0.0818321
v -0.800802 -0.29229 -0.0292337
v -0.789123 -0.315648 -0.0111792
v -0.801982 -0.279461 -0.0111792
v -0.802277 -0.275244 -0.0111792
v -0.518676 -0.438396 -0.0111792
v -0.523926 -0.434002 -0.0350771
v -0.537787 -0.432557 -0.0467641
v -0.610634 -0.420848 -0.084517
v -0.781927 -0.330011 -0.084517
v -0.773168 -0.347559 -0.084517
v -0.783283 -0.327327 -0.0111792
v -0.529293 -0.441582 -0.0111792
v -0.543627 -0.438396 -0.0350771
v -0.631308 -0.455945 -0.0350771
v -0.625469 -0.450076 -0.0467641
v -0.670769 -0.432822 -0.084517
v -0.768419 -0.357056 -0.084517
v -0.759896 -0.374103 -0.0409206
v -0.765735 -0.362394 -0.0292337
v -0.777414 -0.339006 -0.0111792
v -0.631308 -0.455945 -0.0111792
v -0.692181 -0.429136 -0.0111792
v -0.678054 -0.432557 -0.0818321
v -0.677523 -0.432026 -0.084517
v -0.67537 -0.432557 -0.084517
v -0.765735 -0.362394 -0.084517
v -0.759896 -0.374103 -0.0759886
v -0.724829 -0.409169 -0.0409206
v -0.742348 -0.391621 -0.0111792
v -0.757684 -0.369738 -0.0111792
v -0.724829 -0.409169 -0.084517
v -0.698286 -0.422441 -0.084517
v -0.680738 -0.4312 -0.084517
v -0.758185 -0.372392 -0.084517
f 888 889 890
f 888 890 896
f 888 896 891
f 888 891 898
f 888 898 909
f 888 909 926
f 888 926 936
f 888 936 945
f 888 945 944
f 888 944 943
f 888 943 952
f 888 952 961
f 888 961 971
f 888 971 970
f 888 970 963
f 888 963 962
f 888 962 953
f 888 953 946
f 888 946 937
f 888 937 927
f 888 927 913
f 888 913 902
f 888 902 893
f 888 893 889
f 889 892 890
f 889 893 894
f 889 894 892
f 890 895 906
f 890 906 896
f 890 892 895
f 891 897 898
f 891 896 899
f 891 899 897
f 892 900 895
f 892 894 901
f 892 901 900
f 893 902 903
f 893 903 894
f 894 903 904
f 894 904 905
f 894 905 901
f 895 900 907
f 895 907 906
f 896 906 899
f 897 908 909
f 897 909 898
f 897 899 908
f 899 906 910
f 899 910 908
f 900 901 911
f 900 911 907
f 901 905 912
f 901 912 918
f 901 918 917
f 901 917 933
f 901 933 932
f 901 932 931
f 901 931 939
f 901 939 949
f 901 949 957
f 901 957 966
f 901 966 965
f 901 965 974
f 901 974 973
f 901 973 972
f 901 972 975
f 901 975 967
f 901 967 958
f 901 958 951
f 901 951 950
f 901 950 940
f 901 940 934
f 901 934 922
f 901 922 925
f 901 925 921
f 901 921 920
f 901 920 919
f 901 919 907
f 901 907 911
f 902 913 914
f 902 914 903
f 903 914 915
f 903 915 904
f 904 915 916
f 904 916 905
f 905 916 917
f 905 917 918
f 905 918 912
f 906 907 919
f 906 919 920
f 906 920 921
f 906 921 910
f 908 922 923
f 908 923 924
f 908 924 909
f 908 910 925
f 908 925 922
f 909 924 926
f 910 921 925
f 913 927 928
f 913 928 929
f 913 929 914
f 914 929 915
f 915 929 930
f 915 930 931
f 915 931 932
f 915 932 933
f 915 933 916
f 916 933 917
f 922 934 935
f 922 935 923
f 923 935 924
f 924 935 926
f 926 935 936
f 927 937 928
f 928 937 938
f 928 938 929
f 929 938 930
f 930 938 939
f 930 939 931
f 934 940 935
f 935 940 941
f 935 941 942
f 935 942 943
f 935 943 944
f 935 944 945
f 935 945 936
f 937 946 947
f 937 947 938
f 938 947 948
f 938 948 939
f 939 948 949
f 940 950 941
f 941 950 951
f 941 951 958
f 941 958 968
f 941 968 959
f 941 959 952
f 941 952 943
f 941 943 942
f 946 953 947
f 947 953 954
f 947 954 948
f 948 954 955
f 948 955 956
f 948 956 949
f 949 956 957
f 952 959 960
f 952 960 961
f 953 962 955
f 953 955 954
f 955 957 956
f 955 962 963
f 955 963 964
f 955 964 965
f 955 965 966
f 955 966 957
f 958 967 968
f 959 969 970
f 959 970 971
f 959 971 960
f 959 968 972
f 959 972 969
f 960 971 961
f 963 970 969
f 963 969 972
f 963 972 973
f 963 973 974
f 963 974 964
f 964 974 965
f 967 975 968
f 968 975 972
o convex_15
v 0.718984 -0.192458 -0.0611566
v 0.710865 -0.192458 -0.0611566
v 0.733876 -0.195543 -0.0611566
v 0.683916 -0.227985 -0.140233
v 0.692899 -0.197025 -0.0611566
v 0.666357 -0.227985 -0.140233
v 0.707286 -0.239676 -0.140233
v 0.695589 -0.233819 -0.140233
v 0.753404 -0.213067 -0.0611566
v 0.692611 -0.197336 -0.0611566
v 0.654732 -0.233819 -0.140233
v 0.654708 -0.233819 -0.122748
v 0.724821 -0.2572 -0.140233
v 0.788545 -0.304753 -0.0611566
v 0.754053 -0.29813 -0.140233
v 0.7486 -0.284814 -0.140233
v 0.745261 -0.280534 -0.140233
v 0.741971 -0.27635 -0.140233
v 0.552337 -0.355126 -0.0611566
v 0.585315 -0.31563 -0.140233
v 0.787223 -0.31563 -0.0611566
v 0.784749 -0.324405 -0.078921
v 0.767191 -0.341953 -0.131517
v 0.757247 -0.333179 -0.140233
v 0.76282 -0.341953 -0.135906
v 0.54674 -0.364569 -0.0611566
v 0.57871 -0.333179 -0.140233
v 0.786263 -0.321344 -0.0611566
v 0.783284 -0.327321 -0.0611566
v 0.774589 -0.344726 -0.0611566
v 0.76575 -0.362394 -0.105215
v 0.771587 -0.350703 -0.105215
v 0.767191 -0.359477 -0.113985
v 0.760634 -0.368251 -0.122748
v 0.749657 -0.377025 -0.131517
v 0.754125 -0.350655 -0.140233
v 0.74089 -0.39455 -0.131517
v 0.73659 -0.385728 -0.140233
v 0.754077 -0.350775 -0.140233
v 0.543185 -0.38623 -0.0611566
v 0.578758 -0.333466 -0.140233
v 0.762892 -0.368108 -0.0611566
v 0.749657 -0.39455 -0.113985
v 0.745285 -0.398949 -0.113985
v 0.724821 -0.409157 -0.122748
v 0.714588 -0.412098 -0.131517
v 0.707286 -0.415014 -0.134443
v 0.72117 -0.403324 -0.135906
v 0.736302 -0.386015 -0.140233
v 0.736494 -0.385847 -0.140233
v 0.551976 -0.411883 -0.0611566
v 0.583057 -0.350655 -0.140233
v 0.759889 -0.374085 -0.0611566
v 0.742355 -0.391633 -0.0611566
v 0.724821 -0.409157 -0.0611566
v 0.719128 -0.412026 -0.0611566
v 0.70145 -0.420872 -0.0611566
v 0.70145 -0.420872 -0.122748
v 0.679496 -0.407747 -0.140233
v 0.702747 -0.408392 -0.140233
v 0.710361 -0.403324 -0.140233
v 0.552192 -0.412313 -0.0611566
v 0.587477 -0.359477 -0.140233
v 0.678055 -0.432563 -0.0611566
v 0.678055 -0.432563 -0.0876832
v 0.675148 -0.429622 -0.0964531
v 0.605011 -0.412098 -0.113985
v 0.648847 -0.403324 -0.140233
v 0.580415 -0.41915 -0.0611566
v 0.605011 -0.39455 -0.131517
v 0.616709 -0.417931 -0.102289
v 0.613778 -0.420872 -0.0876832
v 0.596244 -0.420872 -0.070151
v 0.59622 -0.368275 -0.140233
v 0.668087 -0.436699 -0.0611566
v 0.631385 -0.398972 -0.140233
v 0.648559 -0.403276 -0.140233
v 0.61373 -0.385847 -0.140233
v 0.622546 -0.39455 -0.140233
f 976 977 980
f 976 980 985
f 976 985 994
f 976 994 1001
f 976 1001 1015
f 976 1015 1026
f 976 1026 1037
f 976 1037 1044
f 976 1044 1050
f 976 1050 1039
f 976 1039 1032
f 976 1032 1031
f 976 1031 1030
f 976 1030 1029
f 976 1029 1028
f 976 1028 1017
f 976 1017 1005
f 976 1005 1004
f 976 1004 1003
f 976 1003 996
f 976 996 989
f 976 989 984
f 976 984 978
f 976 978 979
f 976 979 981
f 976 981 977
f 977 981 980
f 978 982 983
f 978 983 979
f 978 984 982
f 979 983 982
f 979 982 988
f 979 988 993
f 979 993 992
f 979 992 991
f 979 991 990
f 979 990 999
f 979 999 1011
f 979 1011 1014
f 979 1014 1013
f 979 1013 1025
f 979 1025 1024
f 979 1024 1036
f 979 1036 1035
f 979 1035 1034
f 979 1034 1043
f 979 1043 1052
f 979 1052 1051
f 979 1051 1054
f 979 1054 1053
f 979 1053 1049
f 979 1049 1038
f 979 1038 1027
f 979 1027 1016
f 979 1016 1002
f 979 1002 995
f 979 995 986
f 979 986 981
f 980 981 986
f 980 986 987
f 980 987 985
f 982 984 988
f 984 989 990
f 984 990 991
f 984 991 992
f 984 992 993
f 984 993 988
f 985 987 994
f 986 995 987
f 987 995 994
f 989 996 997
f 989 997 998
f 989 998 990
f 990 998 1000
f 990 1000 999
f 994 995 1001
f 995 1002 1001
f 996 1003 997
f 997 1003 1004
f 997 1004 1005
f 997 1005 1006
f 997 1006 1007
f 997 1007 998
f 998 1007 1008
f 998 1008 1009
f 998 1009 1010
f 998 1010 1000
f 999 1000 1011
f 1000 1010 1012
f 1000 1012 1013
f 1000 1013 1014
f 1000 1014 1011
f 1001 1002 1015
f 1002 1016 1015
f 1005 1017 1006
f 1006 1008 1007
f 1006 1017 1018
f 1006 1018 1008
f 1008 1018 1009
f 1009 1018 1012
f 1009 1012 1010
f 1012 1018 1019
f 1012 1019 1020
f 1012 1020 1021
f 1012 1021 1022
f 1012 1022 1023
f 1012 1023 1024
f 1012 1024 1025
f 1012 1025 1013
f 1015 1016 1027
f 1015 1027 1026
f 1017 1028 1018
f 1018 1028 1019
f 1019 1028 1029
f 1019 1029 1030
f 1019 1030 1031
f 1019 1031 1032
f 1019 1032 1033
f 1019 1033 1020
f 1020 1033 1021
f 1021 1033 1022
f 1022 1033 1034
f 1022 1034 1035
f 1022 1035 1036
f 1022 1036 1023
f 1023 1036 1024
f 1026 1027 1038
f 1026 1038 1037
f 1032 1039 1040
f 1032 1040 1033
f 1033 1040 1041
f 1033 1041 1042
f 1033 1042 1034
f 1034 1042 1043
f 1037 1038 1045
f 1037 1045 1042
f 1037 1042 1046
f 1037 1046 1047
f 1037 1047 1048
f 1037 1048 1044
f 1038 1049 1045
f 1039 1050 1040
f 1040 1050 1047
f 1040 1047 1046
f 1040 1046 1041
f 1041 1046 1042
f 1042 1045 1051
f 1042 1051 1052
f 1042 1052 1043
f 1044 1048 1050
f 1045 1053 1054
f 1045 1054 1051
f 1045 1049 1053
f 1047 1050 1048
o convex_16
v -0.0526144 -0.227977 0.455945
v -0.0584689 -0.21629 0.450098
v -0.227999 -0.227977 0.455945
v -0.0526144 -0.239664 0.450098
v -0.0526144 -0.217464 0.448893
v -0.0526144 -0.210437 0.438405
v -0.233854 -0.21629 0.450098
v -0.23676 -0.236747 0.451526
v -0.227999 -0.239664 0.450098
v -0.377017 -0.236747 0.416447
v -0.0526144 -0.245517 0.438405
v -0.227999 -0.210437 0.438405
v -0.0526144 -0.210208 0.315626
v -0.271803 -0.214822 0.429613
v -0.374069 -0.233821 0.415018
v -0.368257 -0.251361 0.409172
v -0.227999 -0.245517 0.438405
v -0.482863 -0.292266 0.32732
v -0.482863 -0.295394 0.321071
v -0.482863 -0.245517 0.333166
v -0.482863 -0.280579 0.333166
v -0.482863 -0.286835 0.330042
v -0.482863 -0.210208 0.315626
v -0.0526144 -0.29811 0.315626
v -0.0526144 -0.210208 0
v -0.482863 -0.29811 0.315626
v -0.482863 -0.210208 0
v -0.0526144 -0.303917 0.198873
v -0.0526144 -0.303917 0
v -0.482863 -0.303917 0.198873
v -0.482863 -0.303917 0
f 1055 1056 1061
f 1055 1061 1057
f 1055 1057 1063
f 1055 1063 1058
f 1055 1058 1065
f 1055 1065 1078
f 1055 1078 1082
f 1055 1082 1083
f 1055 1083 1079
f 1055 1079 1067
f 1055 1067 1060
f 1055 1060 1059
f 1055 1059 1056
f 1056 1059 1060
f 1056 1060 1066
f 1056 1066 1061
f 1057 1062 1063
f 1057 1061 1064
f 1057 1064 1062
f 1058 1063 1071
f 1058 1071 1065
f 1060 1067 1077
f 1060 1077 1066
f 1061 1066 1068
f 1061 1068 1069
f 1061 1069 1064
f 1062 1064 1070
f 1062 1070 1063
f 1063 1070 1072
f 1063 1072 1073
f 1063 1073 1071
f 1064 1074 1075
f 1064 1075 1076
f 1064 1076 1072
f 1064 1072 1070
f 1064 1069 1077
f 1064 1077 1074
f 1065 1071 1080
f 1065 1080 1078
f 1066 1077 1068
f 1067 1079 1081
f 1067 1081 1077
f 1068 1077 1069
f 1071 1073 1080
f 1072 1076 1075
f 1072 1075 1074
f 1072 1074 1077
f 1072 1077 1081
f 1072 1081 1085
f 1072 1085 1084
f 1072 1084 1080
f 1072 1080 1073
f 1078 1080 1084
f 1078 1084 1082
f 1079 1083 1085
f 1079 1085 1081
f 1082 1084 1085
f 1082 1085 1083
o convex_17
v -0.4033 -0.438399 -0.0175363
v -0.397487 -0.450096 -0.0116907
v -0.482863 -0.450096 0.00584634
v -0.482863 -0.438399 6.73139e-07
v -0.482863 -0.303917 6.73139e-07
v -0.122785 -0.438399 -0.0175363
v -0.4033 -0.455945 6.73139e-07
v -0.116931 -0.450096 -0.0116907
v -0.482863 -0.455945 0.0175377
v -0.482863 -0.303917 0.198838
v -0.0526144 -0.303917 6.73139e-07
v -0.0526144 -0.438399 6.73139e-07
v -0.122785 -0.455945 6.73139e-07
v -0.0526144 -0.450096 0.00584634
v -0.0526144 -0.455945 0.0175377
v -0.482863 -0.455945 0.105202
v -0.482863 -0.368264 0.192887
v -0.0526144 -0.303917 0.198838
v -0.0526144 -0.455945 0.105202
v -0.482863 -0.438399 0.157812
v -0.482863 -0.420869 0.17535
v -0.0526144 -0.368264 0.192887
v -0.0526144 -0.438399 0.157812
v -0.482863 -0.432551 0.169504
v -0.0526144 -0.432536 0.169525
v -0.0526144 -0.420869 0.17535
v -0.0526144 -0.432551 0.169504
f 1086 1087 1088
f 1086 1088 1089
f 1086 1089 1090
f 1086 1090 1096
f 1086 1096 1091
f 1086 1091 1093
f 1086 1093 1087
f 1087 1092 1088
f 1087 1093 1098
f 1087 1098 1092
f 1088 1094 1101
f 1088 1101 1105
f 1088 1105 1109
f 1088 1109 1106
f 1088 1106 1102
f 1088 1102 1095
f 1088 1095 1090
f 1088 1090 1089
f 1088 1092 1094
f 1090 1095 1103
f 1090 1103 1096
f 1091 1096 1097
f 1091 1097 1093
f 1092 1098 1100
f 1092 1100 1104
f 1092 1104 1101
f 1092 1101 1094
f 1093 1097 1099
f 1093 1099 1100
f 1093 1100 1098
f 1095 1102 1107
f 1095 1107 1103
f 1096 1103 1107
f 1096 1107 1111
f 1096 1111 1110
f 1096 1110 1112
f 1096 1112 1108
f 1096 1108 1104
f 1096 1104 1100
f 1096 1100 1099
f 1096 1099 1097
f 1101 1104 1108
f 1101 1108 1105
f 1102 1106 1111
f 1102 1111 1107
f 1105 1108 1112
f 1105 1112 1109
f 1106 1109 1110
f 1106 1110 1111
f 1109 1112 1110
o convex_18
v -0.705338 0.157795 -0.00584544
v -0.759888 0.152014 -0.00584544
v -0.806639 0.280535 -0.00584544
v -0.777416 0.169473 -0.00584544
v -0.789111 -0.140588 1.54942e-05
v -0.771583 0.157795 -0.00584544
v -0.754056 -0.140588 -0.000133269
v -0.482895 -0.140588 1.54942e-05
v -0.511168 0.368882 -0.00584544
v -0.502737 0.385757 -0.00584544
v -0.502737 0.420851 -0.00584544
v -0.631328 0.455945 -0.00584544
v -0.526097 0.444208 -0.00584544
v -0.506635 0.438369 -0.00584544
v -0.482895 0.438369 1.54942e-05
v -0.507523 0.439069 -0.00584544
v -0.482895 0.450047 0.00584667
v -0.482895 0.455945 0.0175388
v -0.482895 0.455945 0.333199
v -0.789111 0.455945 0.333199
v -0.482895 0.444208 0.356564
v -0.482895 -0.140588 0.29809
v -0.482895 0.0175373 0.403336
v -0.482895 -0.116881 0.37995
v -0.482895 -0.140588 0.315655
v -0.800807 -0.140588 0.344882
v -0.771583 -0.140588 0.350723
v -0.789111 -0.140588 0.350723
v -0.780363 -0.113962 0.381413
v -0.771583 -0.116881 0.37995
v -0.683912 -0.12856 0.374098
v -0.648824 -0.12856 0.374098
v -0.640076 -0.135859 0.35949
v -0.482895 -0.12272 0.368257
v -0.482895 -0.105203 0.385791
v -0.771583 -0.105203 0.385791
v -0.771583 0.0351133 0.385791
v -0.783279 0.0351133 0.37995
v -0.771583 0.420851 0.368257
v -0.754056 0.0877245 0.385791
v -0.561184 0.192888 0.403336
v -0.561184 0.0175373 0.403336
v -0.482895 0.192888 0.403336
v -0.482895 0.420851 0.368257
v -0.777416 0.432529 0.362416
v -0.784737 0.42961 0.35949
v -0.794975 0.420851 0.356564
v -0.783279 -0.105203 0.37995
v -0.802265 0.447127 0.341966
v -0.806639 -0.140588 0.333199
v -0.806639 0.438369 0.333199
v -0.800807 0.450047 0.333199
v -0.794975 0.450047 0.344882
v -0.786924 0.438369 0.355101
v -0.765751 0.444208 0.356564
v -0.800807 0.450047 0.0175388
v -0.806639 0.438369 0.0350918
v -0.806639 0.438369 0.0175388
v -0.800807 0.444208 0.00584667
v -0.797891 0.451507 0.008792
v -0.789111 0.455945 0.0175388
v -0.789111 0.450047 0.00584667
v -0.789111 0.438369 1.54942e-05
v -0.666352 0.444208 -0.00584544
v -0.684546 0.435157 -0.00584544
v -0.737161 0.400063 -0.00584544
v -0.754785 0.381845 -0.00584544
v -0.788478 0.330577 -0.00584544
v -0.803723 0.293732 -0.00584544
v -0.806639 -0.140588 0.0175388
v -0.800807 -0.140588 0.00584667
f 1114 1115 1113
f 1116 1115 1114
f 1116 1117 1115
f 1118 1117 1116
f 1118 1114 1117
f 1118 1116 1114
f 1114 1119 1117
f 1114 1120 1119
f 1114 1113 1120
f 1121 1120 1113
f 1122 1120 1121
f 1122 1123 1120
f 1122 1121 1123
f 1121 1113 1123
f 1123 1113 1124
f 1125 1123 1124
f 1126 1123 1125
f 1126 1127 1123
f 1128 1127 1126
f 1128 1129 1127
f 1128 1125 1129
f 1128 1126 1125
f 1125 1124 1129
f 1130 1129 1124
f 1130 1131 1129
f 1130 1124 1131
f 1131 1124 1132
f 1131 1132 1133
f 1131 1133 1129
f 1129 1133 1120
f 1127 1129 1120
f 1127 1120 1123
f 1133 1134 1120
f 1135 1134 1133
f 1136 1134 1135
f 1137 1134 1136
f 1137 1138 1134
f 1139 1138 1137
f 1140 1138 1139
f 1140 1141 1138
f 1142 1141 1140
f 1142 1143 1141
f 1142 1140 1143
f 1140 1139 1143
f 1144 1143 1139
f 1144 1136 1143
f 1144 1145 1136
f 1144 1139 1145
f 1139 1137 1145
f 1146 1145 1137
f 1146 1136 1145
f 1146 1137 1136
f 1143 1136 1141
f 1147 1141 1136
f 1148 1141 1147
f 1149 1141 1148
f 1149 1150 1141
f 1149 1151 1150
f 1149 1152 1151
f 1149 1153 1152
f 1149 1148 1153
f 1153 1148 1154
f 1153 1154 1135
f 1155 1153 1135
f 1155 1156 1153
f 1155 1135 1156
f 1156 1135 1133
f 1157 1156 1133
f 1151 1156 1157
f 1151 1153 1156
f 1151 1152 1153
f 1151 1157 1158
f 1151 1158 1159
f 1151 1159 1150
f 1150 1159 1160
f 1150 1160 1141
f 1138 1141 1160
f 1138 1160 1159
f 1161 1138 1159
f 1161 1162 1138
f 1161 1163 1162
f 1161 1164 1163
f 1161 1132 1164
f 1161 1165 1132
f 1161 1166 1165
f 1161 1159 1166
f 1158 1166 1159
f 1158 1157 1166
f 1157 1165 1166
f 1157 1167 1165
f 1157 1133 1167
f 1167 1133 1132
f 1165 1167 1132
f 1164 1132 1168
f 1164 1168 1163
f 1168 1169 1163
f 1168 1170 1169
f 1168 1171 1170
f 1168 1172 1171
f 1168 1173 1172
f 1168 1132 1173
f 1173 1132 1124
f 1172 1173 1124
f 1174 1172 1124
f 1174 1171 1172
f 1174 1175 1171
f 1174 1124 1175
f 1175 1124 1176
f 1175 1176 1177
f 1178 1175 1177
f 1178 1179 1175
f 1178 1177 1179
f 1179 1177 1115
f 1180 1179 1115
f 1180 1175 1179
f 1181 1175 1180
f 1181 1115 1175
f 1181 1180 1115
f 1175 1115 1171
f 1170 1171 1115
f 1170 1115 1169
f 1115 1162 1169
f 1182 1162 1115
f 1182 1183 1162
f 1182 1115 1183
f 1115 1117 1183
f 1117 1120 1183
f 1119 1120 1117
f 1120 1134 1183
f 1162 1183 1134
f 1138 1162 1134
f 1163 1169 1162
f 1115 1177 1113
f 1177 1124 1113
f 1176 1124 1177
f 1154 1148 1135
f 1148 1147 1135
f 1147 1136 1135
o convex_19
v -0.631333 0.455945 -0.00584544
v -0.631333 0.455945 -0.0350747
v -0.666353 0.444251 -0.00584544
v -0.526094 0.444251 -0.00584544
v -0.631333 0.450083 -0.0467576
v -0.640081 0.451541 -0.0438385
v -0.543649 0.43839 -0.0350747
v -0.526094 0.434016 -0.0372704
v -0.678046 0.432558 -0.0701171
v -0.684562 0.435147 -0.00584544
v -0.507528 0.439074 -0.00584544
v -0.543649 0.432558 -0.0467576
v -0.622556 0.447167 -0.0482235
v -0.664211 0.43476 -0.0701171
v -0.666353 0.434492 -0.0701171
v -0.517347 0.429613 -0.0394534
v -0.534872 0.429613 -0.0482235
v -0.724819 0.409172 -0.0701171
v -0.724819 0.409172 -0.0350747
v -0.737167 0.400067 -0.00584544
v -0.506606 0.43839 -0.00584544
v -0.576557 0.417235 -0.0701171
v -0.512943 0.420865 -0.0372704
v -0.517347 0.412088 -0.0482235
v -0.759898 0.374092 -0.0701171
v -0.751121 0.385785 -0.00584544
v -0.502708 0.420865 -0.00584544
v -0.567333 0.40331 -0.0701171
v -0.514401 0.40331 -0.0467576
v -0.50857 0.40331 -0.0350747
v -0.554955 0.377573 -0.0701171
v -0.783315 0.32726 -0.0701171
v -0.789116 0.329283 -0.00584544
v -0.788462 0.330563 -0.00584544
v -0.759898 0.374092 -0.0350747
v -0.754781 0.381888 -0.00584544
v -0.502708 0.385785 -0.00584544
v -0.512943 0.377008 -0.0438385
v -0.514401 0.385785 -0.0467576
v -0.50857 0.385785 -0.0350747
v -0.554955 0.368261 -0.0701171
v -0.785606 0.319137 -0.0701171
v -0.806671 0.280606 -0.0350747
v -0.803726 0.293758 -0.00584544
v -0.511158 0.368885 -0.00584544
v -0.559002 0.35508 -0.0701171
v -0.705836 0.16662 -0.0438385
v -0.784743 0.315656 -0.0701171
v -0.80081 0.286438 -0.0467576
v -0.806671 0.280606 -0.00584544
v -0.797894 0.271829 -0.0438385
v -0.762814 0.16662 -0.0438385
v -0.777423 0.169536 -0.00584544
v -0.704051 0.158498 -0.00584544
v -0.583102 0.330979 -0.0701171
v -0.713126 0.163675 -0.0467576
v -0.707294 0.163675 -0.0350747
v -0.754067 0.229728 -0.0701171
v -0.762814 0.219225 -0.0613722
v -0.759898 0.151982 -0.00584544
v -0.771592 0.157843 -0.00584544
v -0.759898 0.204616 -0.0584531
v -0.75249 0.226425 -0.0701171
v -0.745289 0.219195 -0.0701171
v -0.736512 0.175368 -0.0526085
v -0.73068 0.163675 -0.0467576
v -0.736512 0.157843 -0.0350747
v -0.70533 0.157843 -0.00584544
v -0.699261 0.210447 -0.0657573
v -0.702682 0.215416 -0.0701171
v -0.718987 0.157843 -0.0350747
v -0.718987 0.175368 -0.0526085
v -0.713126 0.198754 -0.0642977
v -0.724819 0.151982 -0.00584544
v -0.719017 0.210418 -0.0701171
v -0.718838 0.210447 -0.0701171
f 1184 1185 1186
f 1184 1186 1193
f 1184 1193 1203
f 1184 1203 1209
f 1184 1209 1219
f 1184 1219 1217
f 1184 1217 1216
f 1184 1216 1227
f 1184 1227 1233
f 1184 1233 1236
f 1184 1236 1244
f 1184 1244 1243
f 1184 1243 1257
f 1184 1257 1251
f 1184 1251 1237
f 1184 1237 1228
f 1184 1228 1220
f 1184 1220 1210
f 1184 1210 1204
f 1184 1204 1194
f 1184 1194 1187
f 1184 1187 1185
f 1185 1188 1189
f 1185 1189 1186
f 1185 1187 1190
f 1185 1190 1191
f 1185 1191 1188
f 1186 1189 1192
f 1186 1192 1201
f 1186 1201 1193
f 1187 1194 1191
f 1187 1191 1190
f 1188 1191 1195
f 1188 1195 1196
f 1188 1196 1197
f 1188 1197 1189
f 1189 1197 1198
f 1189 1198 1192
f 1191 1194 1199
f 1191 1199 1200
f 1191 1200 1195
f 1192 1198 1197
f 1192 1197 1205
f 1192 1205 1211
f 1192 1211 1214
f 1192 1214 1224
f 1192 1224 1229
f 1192 1229 1238
f 1192 1238 1253
f 1192 1253 1259
f 1192 1259 1258
f 1192 1258 1247
f 1192 1247 1246
f 1192 1246 1241
f 1192 1241 1231
f 1192 1231 1225
f 1192 1225 1215
f 1192 1215 1208
f 1192 1208 1201
f 1193 1201 1202
f 1193 1202 1203
f 1194 1204 1199
f 1195 1200 1196
f 1196 1200 1205
f 1196 1205 1197
f 1199 1204 1206
f 1199 1206 1207
f 1199 1207 1200
f 1200 1207 1205
f 1201 1203 1202
f 1201 1208 1203
f 1203 1208 1209
f 1204 1210 1206
f 1205 1207 1211
f 1206 1212 1207
f 1206 1210 1213
f 1206 1213 1212
f 1207 1212 1214
f 1207 1214 1211
f 1208 1215 1216
f 1208 1216 1217
f 1208 1217 1218
f 1208 1218 1219
f 1208 1219 1209
f 1210 1220 1223
f 1210 1223 1213
f 1212 1213 1221
f 1212 1221 1222
f 1212 1222 1224
f 1212 1224 1214
f 1213 1223 1221
f 1215 1225 1226
f 1215 1226 1216
f 1216 1226 1227
f 1217 1219 1218
f 1220 1228 1221
f 1220 1221 1223
f 1221 1229 1222
f 1221 1228 1237
f 1221 1237 1230
f 1221 1230 1229
f 1222 1229 1224
f 1225 1231 1232
f 1225 1232 1226
f 1226 1233 1227
f 1226 1232 1234
f 1226 1234 1235
f 1226 1235 1236
f 1226 1236 1233
f 1229 1230 1239
f 1229 1239 1238
f 1230 1237 1240
f 1230 1240 1239
f 1231 1241 1242
f 1231 1242 1232
f 1232 1242 1235
f 1232 1235 1234
f 1235 1243 1244
f 1235 1244 1236
f 1235 1242 1245
f 1235 1245 1246
f 1235 1246 1247
f 1235 1247 1248
f 1235 1248 1249
f 1235 1249 1250
f 1235 1250 1243
f 1237 1251 1240
f 1238 1239 1252
f 1238 1252 1253
f 1239 1240 1254
f 1239 1254 1250
f 1239 1250 1249
f 1239 1249 1248
f 1239 1248 1255
f 1239 1255 1256
f 1239 1256 1253
f 1239 1253 1252
f 1240 1251 1254
f 1241 1246 1242
f 1242 1246 1245
f 1243 1250 1254
f 1243 1254 1257
f 1247 1258 1248
f 1248 1258 1256
f 1248 1256 1255
f 1251 1257 1254
f 1253 1256 1259
f 1256 1258 1259
o convex_20
v -0.605019 0.179769 -0.394539
v -0.607936 0.181217 -0.39748
v -0.607936 0.181217 -0.415008
v -0.602102 0.181217 -0.42086
v -0.602102 0.181217 -0.403333
v -0.53486 0.2499 -0.377012
v -0.640088 0.214824 -0.219206
v -0.657611 0.214824 -0.201678
v -0.683907 0.227986 -0.155507
v -0.707286 0.239678 -0.155507
v -0.619626 0.187074 -0.409156
v -0.619626 0.187074 -0.426712
v -0.605019 0.184135 -0.429624
v -0.600633 0.184135 -0.429624
v -0.531943 0.25137 -0.42086
v -0.531943 0.25137 -0.385776
v -0.567012 0.303952 -0.192914
v -0.569951 0.302482 -0.184151
v -0.635701 0.219211 -0.219206
v -0.654672 0.233821 -0.155507
v -0.666362 0.227986 -0.155507
v -0.724831 0.257205 -0.155507
v -0.707286 0.239678 -0.163682
v -0.637171 0.204601 -0.426712
v -0.672217 0.257205 -0.44424
v -0.610853 0.195827 -0.435476
v -0.602102 0.192909 -0.432535
v -0.53486 0.254288 -0.434006
v -0.530474 0.254288 -0.429624
v -0.531943 0.257205 -0.391628
v -0.567012 0.309787 -0.198767
v -0.578701 0.333172 -0.155507
v -0.578701 0.31797 -0.155507
v -0.579293 0.315359 -0.155507
v -0.58436 0.305202 -0.155507
v -0.585325 0.303557 -0.155507
v -0.742354 0.274755 -0.155507
v -0.724831 0.257205 -0.163682
v -0.654672 0.222129 -0.426712
v -0.742354 0.274755 -0.163682
v -0.683907 0.28059 -0.438388
v -0.678051 0.286447 -0.450092
v -0.666362 0.28059 -0.455945
v -0.663445 0.26598 -0.453004
v -0.754044 0.298117 -0.15783
v -0.648838 0.28059 -0.455945
v -0.613792 0.315644 -0.455945
v -0.605019 0.324419 -0.451533
v -0.602102 0.327336 -0.44424
v -0.537799 0.268897 -0.415008
v -0.537799 0.268897 -0.379953
v -0.583987 0.347123 -0.155507
v -0.579381 0.335826 -0.155507
v -0.751741 0.293466 -0.155507
v -0.749657 0.341946 -0.219206
v -0.74821 0.344864 -0.227999
v -0.745293 0.346333 -0.236763
v -0.675134 0.29373 -0.447151
v -0.666362 0.300289 -0.451533
v -0.648838 0.317838 -0.451533
v -0.631315 0.315644 -0.455945
v -0.754044 0.298117 -0.155507
v -0.754526 0.31797 -0.155507
v -0.613792 0.327336 -0.450092
v -0.622542 0.346333 -0.429624
v -0.607936 0.339029 -0.415008
v -0.555322 0.286447 -0.415008
v -0.590391 0.356556 -0.169535
v -0.590391 0.356556 -0.155507
v -0.754526 0.332711 -0.155507
v -0.754044 0.335892 -0.155507
v -0.749241 0.345522 -0.155507
v -0.742354 0.356556 -0.227999
v -0.672217 0.303952 -0.438388
v -0.631315 0.327336 -0.450092
v -0.654672 0.321479 -0.438388
v -0.640088 0.328784 -0.447151
v -0.631315 0.339753 -0.438388
v -0.710203 0.38141 -0.236763
v -0.692679 0.38141 -0.25429
v -0.666362 0.403325 -0.175387
v -0.648838 0.403325 -0.175387
v -0.637171 0.39749 -0.18121
v -0.625481 0.391632 -0.169535
v -0.607936 0.374105 -0.169535
v -0.607936 0.374105 -0.155507
v -0.731432 0.380708 -0.155507
v -0.730665 0.37994 -0.192914
v -0.727748 0.38141 -0.201678
v -0.724831 0.374105 -0.227999
v -0.710203 0.363861 -0.271818
v -0.701452 0.374829 -0.263054
v -0.718975 0.393804 -0.155507
v -0.701452 0.385797 -0.227999
v -0.683907 0.403851 -0.155507
v -0.648838 0.403325 -0.155507
v -0.646185 0.402667 -0.155507
v -0.634912 0.398038 -0.155507
v -0.625481 0.391632 -0.155507
v -0.729897 0.38266 -0.155507
v -0.7213 0.391786 -0.155507
v -0.701452 0.399223 -0.155507
f 1260 1261 1262
f 1260 1262 1263
f 1260 1263 1264
f 1260 1264 1265
f 1260 1265 1266
f 1260 1266 1267
f 1260 1267 1268
f 1260 1268 1269
f 1260 1269 1261
f 1261 1270 1271
f 1261 1271 1262
f 1261 1269 1270
f 1262 1271 1272
f 1262 1272 1263
f 1263 1272 1273
f 1263 1273 1288
f 1263 1288 1274
f 1263 1274 1275
f 1263 1275 1264
f 1264 1275 1265
f 1265 1275 1276
f 1265 1276 1277
f 1265 1277 1278
f 1265 1278 1266
f 1266 1278 1277
f 1266 1277 1279
f 1266 1279 1280
f 1266 1280 1267
f 1267 1280 1268
f 1268 1280 1279
f 1268 1279 1295
f 1268 1295 1294
f 1268 1294 1293
f 1268 1293 1292
f 1268 1292 1291
f 1268 1291 1312
f 1268 1312 1311
f 1268 1311 1328
f 1268 1328 1345
f 1268 1345 1358
f 1268 1358 1357
f 1268 1357 1356
f 1268 1356 1355
f 1268 1355 1354
f 1268 1354 1361
f 1268 1361 1352
f 1268 1352 1360
f 1268 1360 1359
f 1268 1359 1346
f 1268 1346 1331
f 1268 1331 1330
f 1268 1330 1329
f 1268 1329 1322
f 1268 1322 1321
f 1268 1321 1313
f 1268 1313 1296
f 1268 1296 1281
f 1268 1281 1269
f 1269 1281 1297
f 1269 1297 1282
f 1269 1282 1271
f 1269 1271 1270
f 1271 1283 1284
f 1271 1284 1285
f 1271 1285 1272
f 1271 1282 1297
f 1271 1297 1283
f 1272 1285 1273
f 1273 1285 1286
f 1273 1286 1287
f 1273 1287 1288
f 1274 1288 1275
f 1275 1288 1289
f 1275 1289 1290
f 1275 1290 1276
f 1276 1290 1291
f 1276 1291 1292
f 1276 1292 1277
f 1277 1292 1293
f 1277 1293 1294
f 1277 1294 1295
f 1277 1295 1279
f 1281 1296 1299
f 1281 1299 1297
f 1283 1298 1284
f 1283 1297 1299
f 1283 1299 1298
f 1284 1300 1301
f 1284 1301 1302
f 1284 1302 1303
f 1284 1303 1285
f 1284 1298 1299
f 1284 1299 1304
f 1284 1304 1300
f 1285 1287 1286
f 1285 1303 1305
f 1285 1305 1287
f 1287 1305 1306
f 1287 1306 1307
f 1287 1307 1288
f 1288 1307 1308
f 1288 1308 1309
f 1288 1309 1310
f 1288 1310 1289
f 1289 1310 1311
f 1289 1311 1312
f 1289 1312 1290
f 1290 1312 1291
f 1296 1313 1299
f 1299 1313 1304
f 1300 1304 1314
f 1300 1314 1315
f 1300 1315 1316
f 1300 1316 1301
f 1301 1317 1318
f 1301 1318 1302
f 1301 1316 1317
f 1302 1318 1319
f 1302 1319 1320
f 1302 1320 1306
f 1302 1306 1305
f 1302 1305 1303
f 1304 1313 1321
f 1304 1321 1322
f 1304 1322 1314
f 1306 1320 1334
f 1306 1334 1323
f 1306 1323 1307
f 1307 1323 1324
f 1307 1324 1308
f 1308 1324 1325
f 1308 1325 1326
f 1308 1326 1309
f 1309 1326 1327
f 1309 1327 1311
f 1309 1311 1310
f 1311 1327 1328
f 1314 1322 1329
f 1314 1329 1330
f 1314 1330 1315
f 1315 1330 1331
f 1315 1331 1332
f 1315 1332 1316
f 1316 1332 1333
f 1316 1333 1317
f 1317 1333 1318
f 1318 1333 1319
f 1319 1334 1320
f 1319 1333 1335
f 1319 1335 1336
f 1319 1336 1334
f 1323 1334 1337
f 1323 1337 1324
f 1324 1337 1338
f 1324 1338 1339
f 1324 1339 1340
f 1324 1340 1341
f 1324 1341 1342
f 1324 1342 1325
f 1325 1342 1343
f 1325 1343 1344
f 1325 1344 1326
f 1326 1344 1327
f 1327 1344 1345
f 1327 1345 1328
f 1331 1346 1332
f 1332 1346 1347
f 1332 1347 1348
f 1332 1348 1349
f 1332 1349 1350
f 1332 1350 1333
f 1333 1350 1335
f 1334 1336 1337
f 1335 1350 1336
f 1336 1350 1351
f 1336 1351 1337
f 1337 1351 1338
f 1338 1351 1350
f 1338 1350 1349
f 1338 1349 1348
f 1338 1348 1352
f 1338 1352 1353
f 1338 1353 1339
f 1339 1353 1340
f 1340 1353 1354
f 1340 1354 1341
f 1341 1354 1355
f 1341 1355 1356
f 1341 1356 1357
f 1341 1357 1342
f 1342 1357 1343
f 1343 1357 1358
f 1343 1358 1345
f 1343 1345 1344
f 1346 1359 1347
f 1347 1359 1360
f 1347 1360 1352
f 1347 1352 1348
f 1352 1361 1353
f 1353 1361 1354
o convex_21
v -0.482895 -0.140588 0.315642
v -0.482895 -0.245512 0.333184
v -0.482895 -0.140588 0.147789
v -0.771583 -0.140588 0.350727
v -0.578712 -0.420847 0.350727
v -0.482895 -0.280609 0.333184
v -0.482895 -0.43838 0.147789
v -0.789111 -0.140588 0.147789
v -0.789111 -0.140588 0.350727
v -0.578712 -0.43838 0.350727
v -0.482895 -0.292278 0.327344
v -0.567016 -0.444245 0.344866
v -0.482895 -0.43838 0.157842
v -0.578712 -0.455945 0.315642
v -0.648824 -0.43838 0.147789
v -0.789111 -0.298143 0.147789
v -0.806639 -0.140588 0.333184
v -0.800807 -0.140588 0.344866
v -0.797891 -0.271843 0.346336
v -0.789111 -0.263045 0.350727
v -0.578712 -0.450079 0.344866
v -0.569933 -0.45153 0.341946
v -0.631328 -0.43838 0.350727
v -0.640076 -0.447147 0.346336
v -0.482895 -0.432546 0.169523
v -0.578712 -0.455945 0.333184
v -0.6138 -0.455945 0.315642
v -0.631328 -0.455945 0.333184
v -0.683912 -0.43838 0.333184
v -0.707272 -0.426712 0.327344
v -0.658872 -0.433379 0.147789
v -0.789111 -0.315646 0.315642
v -0.806639 -0.263045 0.333184
v -0.765751 -0.344878 0.147789
v -0.777416 -0.339013 0.309801
v -0.800807 -0.263045 0.344866
v -0.800807 -0.274744 0.339025
v -0.780363 -0.324412 0.346336
v -0.771583 -0.315646 0.350727
v -0.631328 -0.450079 0.344866
v -0.683912 -0.420847 0.350727
v -0.643024 -0.450079 0.339025
v -0.69266 -0.429613 0.346336
v -0.695576 -0.432546 0.339025
v -0.707272 -0.409178 0.147789
v -0.672216 -0.426712 0.147789
v -0.724832 -0.409178 0.327344
v -0.724832 -0.409178 0.309801
v -0.765751 -0.362412 0.321483
v -0.789111 -0.315646 0.333184
v -0.759888 -0.356547 0.147789
v -0.759888 -0.37408 0.309801
v -0.783279 -0.327314 0.339025
v -0.765751 -0.362412 0.339025
v -0.762804 -0.359479 0.346336
v -0.754056 -0.350713 0.350727
v -0.71022 -0.41208 0.346336
v -0.713136 -0.415012 0.339025
v -0.724832 -0.391614 0.147789
v -0.759888 -0.37408 0.327344
f 1362 1363 1367
f 1362 1367 1372
f 1362 1372 1386
f 1362 1386 1374
f 1362 1374 1368
f 1362 1368 1364
f 1362 1364 1369
f 1362 1369 1378
f 1362 1378 1379
f 1362 1379 1370
f 1362 1370 1365
f 1362 1365 1363
f 1363 1366 1371
f 1363 1371 1367
f 1363 1365 1366
f 1364 1368 1376
f 1364 1376 1392
f 1364 1392 1407
f 1364 1407 1406
f 1364 1406 1420
f 1364 1420 1412
f 1364 1412 1395
f 1364 1395 1377
f 1364 1377 1369
f 1365 1370 1381
f 1365 1381 1400
f 1365 1400 1417
f 1365 1417 1402
f 1365 1402 1384
f 1365 1384 1371
f 1365 1371 1366
f 1367 1371 1373
f 1367 1373 1372
f 1368 1374 1387
f 1368 1387 1375
f 1368 1375 1388
f 1368 1388 1376
f 1369 1377 1394
f 1369 1394 1378
f 1370 1379 1380
f 1370 1380 1381
f 1371 1382 1383
f 1371 1383 1373
f 1371 1384 1385
f 1371 1385 1382
f 1372 1373 1386
f 1373 1383 1386
f 1374 1386 1383
f 1374 1383 1387
f 1375 1387 1389
f 1375 1389 1388
f 1376 1388 1389
f 1376 1389 1390
f 1376 1390 1391
f 1376 1391 1392
f 1377 1393 1394
f 1377 1395 1396
f 1377 1396 1393
f 1378 1394 1397
f 1378 1397 1379
f 1379 1397 1380
f 1380 1397 1394
f 1380 1394 1398
f 1380 1398 1414
f 1380 1414 1399
f 1380 1399 1400
f 1380 1400 1381
f 1382 1387 1383
f 1382 1385 1401
f 1382 1401 1389
f 1382 1389 1387
f 1384 1402 1404
f 1384 1404 1385
f 1385 1403 1401
f 1385 1404 1403
f 1389 1401 1403
f 1389 1403 1405
f 1389 1405 1390
f 1390 1405 1391
f 1391 1406 1407
f 1391 1407 1392
f 1391 1405 1419
f 1391 1419 1408
f 1391 1408 1409
f 1391 1409 1406
f 1393 1396 1413
f 1393 1413 1410
f 1393 1410 1415
f 1393 1415 1411
f 1393 1411 1394
f 1394 1411 1398
f 1395 1412 1413
f 1395 1413 1396
f 1398 1411 1414
f 1399 1414 1415
f 1399 1415 1416
f 1399 1416 1417
f 1399 1417 1400
f 1402 1417 1418
f 1402 1418 1404
f 1403 1404 1405
f 1404 1418 1419
f 1404 1419 1405
f 1406 1409 1420
f 1408 1419 1415
f 1408 1415 1421
f 1408 1421 1413
f 1408 1413 1409
f 1409 1413 1412
f 1409 1412 1420
f 1410 1413 1421
f 1410 1421 1415
f 1411 1415 1414
f 1415 1419 1418
f 1415 1418 1416
f 1416 1418 1417
o convex_22
v 0.564085 -0.312718 -0.189981
v 0.569947 -0.324404 -0.201679
v 0.572859 -0.339035 -0.181223
v 0.567016 -0.32733 -0.169525
v 0.56556 -0.324404 -0.1666
v 0.56556 -0.306904 -0.184132
v 0.567016 -0.303978 -0.210437
v 0.576225 -0.285161 -0.298311
v 0.574769 -0.298126 -0.298311
v 0.590407 -0.321497 -0.298311
v 0.607935 -0.339035 -0.298311
v 0.625464 -0.391629 -0.181223
v 0.605004 -0.377018 -0.149069
v 0.587476 -0.35948 -0.149069
v 0.587476 -0.35948 -0.140233
v 0.572141 -0.315644 -0.157842
v 0.58307 -0.350662 -0.140233
v 0.5822 -0.347213 -0.140233
v 0.578759 -0.333473 -0.140233
v 0.578702 -0.333182 -0.140233
v 0.574315 -0.306904 -0.1666
v 0.635694 -0.219215 -0.201679
v 0.567016 -0.303978 -0.192905
v 0.576282 -0.285064 -0.298311
v 0.625464 -0.356553 -0.298311
v 0.631118 -0.359383 -0.298311
v 0.640081 -0.377018 -0.254273
v 0.648855 -0.403334 -0.175374
v 0.622552 -0.394556 -0.149069
v 0.613722 -0.385854 -0.140233
v 0.596212 -0.368278 -0.140233
v 0.58532 -0.315644 -0.140233
v 0.583089 -0.306904 -0.149069
v 0.654735 -0.233807 -0.140233
v 0.643012 -0.216288 -0.198754
v 0.637169 -0.216288 -0.210437
v 0.576414 -0.284929 -0.298311
v 0.638379 -0.361204 -0.298311
v 0.650802 -0.363782 -0.298311
v 0.651786 -0.38287 -0.242575
v 0.666364 -0.403334 -0.175374
v 0.702745 -0.408392 -0.140233
v 0.679487 -0.407733 -0.140233
v 0.648855 -0.403334 -0.140233
v 0.648571 -0.403276 -0.140233
v 0.631383 -0.398974 -0.140233
v 0.622552 -0.394556 -0.140233
v 0.666364 -0.227974 -0.140233
v 0.648855 -0.210455 -0.210437
v 0.640081 -0.214835 -0.21921
v 0.636942 -0.233884 -0.298311
v 0.651086 -0.363782 -0.298311
v 0.651048 -0.363879 -0.298109
v 0.686824 -0.38287 -0.242575
v 0.703634 -0.381397 -0.2455
v 0.710347 -0.403334 -0.140233
v 0.724831 -0.374091 -0.227968
v 0.683912 -0.227974 -0.140233
v 0.66054 -0.216288 -0.216286
v 0.648855 -0.231927 -0.298311
v 0.637093 -0.233788 -0.298311
v 0.672207 -0.362406 -0.292261
v 0.705828 -0.377018 -0.254273
v 0.666175 -0.359383 -0.298311
v 0.736309 -0.386029 -0.140233
v 0.714601 -0.35948 -0.271805
v 0.73213 -0.35948 -0.236726
v 0.736612 -0.385738 -0.140233
v 0.683912 -0.227974 -0.157842
v 0.701497 -0.236772 -0.140233
v 0.695598 -0.233826 -0.163676
v 0.707284 -0.239679 -0.151993
v 0.672207 -0.222141 -0.204603
v 0.66054 -0.233826 -0.286412
v 0.650538 -0.232586 -0.298311
v 0.688299 -0.35948 -0.289336
v 0.707284 -0.362406 -0.274729
v 0.683742 -0.350662 -0.298311
v 0.684007 -0.350527 -0.298311
v 0.707775 -0.315838 -0.298311
v 0.70787 -0.315644 -0.298311
v 0.72555 -0.35072 -0.263031
v 0.73213 -0.341942 -0.254273
v 0.736517 -0.35072 -0.227968
v 0.75414 -0.350662 -0.140233
v 0.754084 -0.350778 -0.140233
v 0.707284 -0.239679 -0.140233
v 0.724831 -0.257217 -0.151993
v 0.672207 -0.239679 -0.274729
v 0.657628 -0.236753 -0.298311
v 0.708002 -0.315063 -0.298311
v 0.708021 -0.315644 -0.298109
v 0.71012 -0.298126 -0.298311
v 0.718988 -0.298126 -0.280578
v 0.736517 -0.315644 -0.227968
v 0.754046 -0.315644 -0.157842
v 0.757241 -0.333182 -0.140233
v 0.724831 -0.257217 -0.140233
v 0.741963 -0.276344 -0.140233
v 0.745253 -0.28053 -0.140233
v 0.748619 -0.284812 -0.140233
v 0.707284 -0.274755 -0.274729
v 0.689755 -0.257217 -0.274729
v 0.701063 -0.2802 -0.298311
v 0.70891 -0.293281 -0.298311
v 0.710215 -0.289366 -0.293731
v 0.713127 -0.28644 -0.286412
v 0.73213 -0.298126 -0.23015
v 0.749678 -0.298126 -0.160024
v 0.754046 -0.298126 -0.140295
v 0.754046 -0.298126 -0.140233
v 0.748203 -0.28644 -0.146144
v 0.730674 -0.28644 -0.216286
v 0.701403 -0.280646 -0.298311
f 1422 1423 1424
f 1422 1424 1425
f 1422 1425 1426
f 1422 1426 1427
f 1422 1427 1428
f 1422 1428 1429
f 1422 1429 1430
f 1422 1430 1423
f 1423 1430 1424
f 1424 1430 1431
f 1424 1431 1432
f 1424 1432 1433
f 1424 1433 1434
f 1424 1434 1435
f 1424 1435 1436
f 1424 1436 1425
f 1425 1436 1426
f 1426 1437 1427
f 1426 1436 1438
f 1426 1438 1439
f 1426 1439 1440
f 1426 1440 1441
f 1426 1441 1437
f 1427 1442 1443
f 1427 1443 1444
f 1427 1444 1429
f 1427 1429 1428
f 1427 1437 1442
f 1429 1445 1458
f 1429 1458 1472
f 1429 1472 1482
f 1429 1482 1481
f 1429 1481 1496
f 1429 1496 1511
f 1429 1511 1525
f 1429 1525 1535
f 1429 1535 1526
f 1429 1526 1514
f 1429 1514 1512
f 1429 1512 1502
f 1429 1502 1501
f 1429 1501 1500
f 1429 1500 1499
f 1429 1499 1485
f 1429 1485 1473
f 1429 1473 1460
f 1429 1460 1459
f 1429 1459 1447
f 1429 1447 1446
f 1429 1446 1432
f 1429 1432 1431
f 1429 1431 1430
f 1429 1444 1445
f 1432 1446 1433
f 1433 1447 1448
f 1433 1448 1449
f 1433 1449 1450
f 1433 1450 1434
f 1433 1446 1447
f 1434 1450 1451
f 1434 1451 1435
f 1435 1451 1452
f 1435 1452 1436
f 1436 1452 1451
f 1436 1451 1468
f 1436 1468 1467
f 1436 1467 1466
f 1436 1466 1465
f 1436 1465 1464
f 1436 1464 1463
f 1436 1463 1477
f 1436 1477 1486
f 1436 1486 1489
f 1436 1489 1507
f 1436 1507 1506
f 1436 1506 1518
f 1436 1518 1532
f 1436 1532 1522
f 1436 1522 1521
f 1436 1521 1520
f 1436 1520 1519
f 1436 1519 1508
f 1436 1508 1491
f 1436 1491 1479
f 1436 1479 1469
f 1436 1469 1455
f 1436 1455 1453
f 1436 1453 1441
f 1436 1441 1440
f 1436 1440 1439
f 1436 1439 1438
f 1437 1441 1453
f 1437 1453 1454
f 1437 1454 1442
f 1442 1454 1443
f 1443 1455 1456
f 1443 1456 1457
f 1443 1457 1444
f 1443 1454 1455
f 1444 1457 1445
f 1445 1457 1458
f 1447 1459 1448
f 1448 1459 1460
f 1448 1460 1461
f 1448 1461 1449
f 1449 1462 1463
f 1449 1463 1464
f 1449 1464 1465
f 1449 1465 1466
f 1449 1466 1467
f 1449 1467 1450
f 1449 1461 1475
f 1449 1475 1462
f 1450 1467 1468
f 1450 1468 1451
f 1453 1455 1454
f 1455 1469 1456
f 1456 1470 1457
f 1456 1469 1470
f 1457 1470 1471
f 1457 1471 1458
f 1458 1471 1472
f 1460 1473 1474
f 1460 1474 1461
f 1461 1474 1475
f 1462 1475 1476
f 1462 1476 1463
f 1463 1476 1478
f 1463 1478 1477
f 1469 1479 1470
f 1470 1479 1480
f 1470 1480 1481
f 1470 1481 1482
f 1470 1482 1471
f 1471 1482 1472
f 1473 1483 1484
f 1473 1484 1476
f 1473 1476 1474
f 1473 1485 1483
f 1474 1476 1475
f 1476 1484 1478
f 1477 1478 1486
f 1478 1484 1487
f 1478 1487 1488
f 1478 1488 1489
f 1478 1489 1486
f 1479 1490 1480
f 1479 1491 1490
f 1480 1490 1491
f 1480 1491 1492
f 1480 1492 1493
f 1480 1493 1494
f 1480 1494 1510
f 1480 1510 1495
f 1480 1495 1496
f 1480 1496 1481
f 1483 1485 1497
f 1483 1497 1484
f 1484 1497 1498
f 1484 1498 1487
f 1485 1499 1497
f 1487 1498 1500
f 1487 1500 1501
f 1487 1501 1502
f 1487 1502 1503
f 1487 1503 1488
f 1488 1503 1504
f 1488 1504 1505
f 1488 1505 1506
f 1488 1506 1507
f 1488 1507 1489
f 1491 1508 1493
f 1491 1493 1492
f 1493 1509 1524
f 1493 1524 1510
f 1493 1510 1494
f 1493 1508 1519
f 1493 1519 1509
f 1495 1510 1511
f 1495 1511 1496
f 1497 1499 1500
f 1497 1500 1498
f 1502 1512 1513
f 1502 1513 1503
f 1503 1513 1512
f 1503 1512 1504
f 1504 1512 1514
f 1504 1514 1515
f 1504 1515 1516
f 1504 1516 1517
f 1504 1517 1518
f 1504 1518 1505
f 1505 1518 1506
f 1509 1520 1521
f 1509 1521 1522
f 1509 1522 1523
f 1509 1523 1524
f 1509 1519 1520
f 1510 1524 1511
f 1511 1524 1525
f 1514 1526 1515
f 1515 1526 1527
f 1515 1527 1528
f 1515 1528 1529
f 1515 1529 1516
f 1516 1529 1530
f 1516 1530 1517
f 1517 1530 1531
f 1517 1531 1518
f 1518 1531 1532
f 1522 1532 1531
f 1522 1531 1533
f 1522 1533 1534
f 1522 1534 1528
f 1522 1528 1523
f 1523 1528 1525
f 1523 1525 1524
f 1525 1528 1535
f 1526 1535 1527
f 1527 1535 1528
f 1528 1534 1530
f 1528 1530 1529
f 1530 1534 1533
f 1530 1533 1531
o convex_23
v -0.664216 0.43476 -0.0701171
v -0.666383 0.434497 -0.0701171
v -0.576534 0.417234 -0.0701171
v -0.675145 0.434014 -0.0964545
v -0.678035 0.432564 -0.0701171
v -0.567344 0.403331 -0.0701171
v -0.583986 0.347128 -0.155498
v -0.590399 0.356572 -0.155498
v -0.625467 0.391625 -0.155498
v -0.634906 0.398038 -0.155498
v -0.613793 0.416487 -0.107412
v -0.701452 0.409173 -0.146129
v -0.710213 0.416487 -0.131518
v -0.701452 0.420858 -0.0701171
v -0.622554 0.416487 -0.113982
v -0.648861 0.403331 -0.155498
v -0.554969 0.377569 -0.0701171
v -0.579379 0.335839 -0.155498
v -0.646196 0.402672 -0.155498
v -0.683906 0.403836 -0.155498
v -0.701452 0.399224 -0.155498
v -0.718974 0.393821 -0.155498
v -0.724823 0.409173 -0.0701171
v -0.745281 0.390175 -0.131518
v -0.745281 0.398939 -0.113982
v -0.554969 0.368256 -0.0701171
v -0.578702 0.333181 -0.155498
v -0.7213 0.391779 -0.155498
v -0.742368 0.391625 -0.0701171
v -0.765739 0.356572 -0.134444
v -0.762826 0.363864 -0.131518
v -0.759891 0.374098 -0.12275
v -0.749662 0.394546 -0.113982
v -0.729903 0.382642 -0.155498
v -0.731439 0.380709 -0.155498
v -0.759891 0.374098 -0.0701171
v -0.558989 0.3551 -0.0701171
v -0.558989 0.3551 -0.0701506
v -0.579289 0.315369 -0.155498
v -0.578702 0.317983 -0.155498
v -0.749233 0.345524 -0.155498
v -0.754042 0.335883 -0.155498
v -0.754517 0.33272 -0.155498
v -0.754517 0.317983 -0.155498
v -0.771588 0.350708 -0.12275
v -0.765739 0.362414 -0.12275
v -0.765739 0.362436 -0.0701171
v -0.583105 0.330985 -0.0701171
v -0.587486 0.320047 -0.0789186
v -0.587486 0.302521 -0.149054
v -0.585318 0.303597 -0.155498
v -0.58437 0.305222 -0.155498
v -0.754042 0.298128 -0.155498
v -0.780349 0.324418 -0.0964545
v -0.783285 0.327339 -0.0876865
v -0.783285 0.327339 -0.0701506
v -0.777436 0.339023 -0.0701171
v -0.702671 0.215415 -0.0701171
v -0.657622 0.232371 -0.131518
v -0.654709 0.23382 -0.140286
v -0.654709 0.23382 -0.155498
v -0.751739 0.293494 -0.155498
v -0.752507 0.226419 -0.0701171
v -0.754088 0.229713 -0.0701171
v -0.780349 0.306891 -0.0789186
v -0.785633 0.319169 -0.0701171
v -0.783307 0.327251 -0.0701171
v -0.783262 0.327361 -0.0701171
v -0.718997 0.210408 -0.0701171
v -0.666383 0.227978 -0.155498
v -0.666383 0.227978 -0.140286
v -0.742368 0.274738 -0.155498
v -0.745304 0.219193 -0.0701171
v -0.784752 0.315699 -0.0701171
v -0.683906 0.227978 -0.155498
v -0.707277 0.239684 -0.155498
v -0.699126 0.235599 -0.155498
f 1536 1537 1540
f 1536 1540 1549
f 1536 1549 1558
f 1536 1558 1564
f 1536 1564 1571
f 1536 1571 1582
f 1536 1582 1592
f 1536 1592 1603
f 1536 1603 1602
f 1536 1602 1601
f 1536 1601 1609
f 1536 1609 1599
f 1536 1599 1598
f 1536 1598 1608
f 1536 1608 1604
f 1536 1604 1593
f 1536 1593 1583
f 1536 1583 1572
f 1536 1572 1561
f 1536 1561 1552
f 1536 1552 1541
f 1536 1541 1538
f 1536 1538 1539
f 1536 1539 1537
f 1537 1539 1540
f 1538 1541 1542
f 1538 1542 1543
f 1538 1543 1544
f 1538 1544 1545
f 1538 1545 1546
f 1538 1546 1539
f 1539 1547 1548
f 1539 1548 1549
f 1539 1549 1540
f 1539 1546 1550
f 1539 1550 1551
f 1539 1551 1547
f 1541 1552 1542
f 1542 1552 1553
f 1542 1553 1562
f 1542 1562 1575
f 1542 1575 1574
f 1542 1574 1587
f 1542 1587 1586
f 1542 1586 1596
f 1542 1596 1605
f 1542 1605 1610
f 1542 1610 1612
f 1542 1612 1611
f 1542 1611 1607
f 1542 1607 1597
f 1542 1597 1588
f 1542 1588 1579
f 1542 1579 1578
f 1542 1578 1577
f 1542 1577 1576
f 1542 1576 1570
f 1542 1570 1569
f 1542 1569 1563
f 1542 1563 1557
f 1542 1557 1556
f 1542 1556 1555
f 1542 1555 1551
f 1542 1551 1554
f 1542 1554 1545
f 1542 1545 1544
f 1542 1544 1543
f 1545 1554 1550
f 1545 1550 1546
f 1547 1551 1555
f 1547 1555 1556
f 1547 1556 1557
f 1547 1557 1548
f 1548 1558 1549
f 1548 1557 1559
f 1548 1559 1560
f 1548 1560 1558
f 1550 1554 1551
f 1552 1561 1575
f 1552 1575 1562
f 1552 1562 1553
f 1557 1563 1559
f 1558 1560 1564
f 1559 1565 1566
f 1559 1566 1567
f 1559 1567 1568
f 1559 1568 1560
f 1559 1563 1569
f 1559 1569 1570
f 1559 1570 1565
f 1560 1568 1571
f 1560 1571 1564
f 1561 1572 1573
f 1561 1573 1574
f 1561 1574 1575
f 1565 1576 1577
f 1565 1577 1578
f 1565 1578 1579
f 1565 1579 1580
f 1565 1580 1581
f 1565 1581 1566
f 1565 1570 1576
f 1566 1581 1567
f 1567 1581 1568
f 1568 1581 1582
f 1568 1582 1571
f 1572 1583 1584
f 1572 1584 1585
f 1572 1585 1586
f 1572 1586 1587
f 1572 1587 1573
f 1573 1587 1574
f 1579 1588 1580
f 1580 1589 1590
f 1580 1590 1581
f 1580 1588 1589
f 1581 1590 1582
f 1582 1590 1591
f 1582 1591 1592
f 1583 1593 1584
f 1584 1594 1585
f 1584 1593 1594
f 1585 1594 1586
f 1586 1594 1595
f 1586 1595 1596
f 1588 1597 1598
f 1588 1598 1599
f 1588 1599 1600
f 1588 1600 1589
f 1589 1600 1590
f 1590 1600 1601
f 1590 1601 1591
f 1591 1601 1602
f 1591 1602 1603
f 1591 1603 1592
f 1593 1604 1605
f 1593 1605 1606
f 1593 1606 1594
f 1594 1606 1595
f 1595 1606 1605
f 1595 1605 1596
f 1597 1607 1598
f 1598 1607 1608
f 1599 1609 1600
f 1600 1609 1601
f 1604 1610 1605
f 1604 1608 1610
f 1607 1611 1608
f 1608 1611 1612
f 1608 1612 1610
