# https://github.com/mikedh/trimesh
v 0.00000000 -0.29648900 -0.84856800
v 0.00168128 -0.29474800 -0.85702700
v 0.00678116 -0.29306500 -0.85873600
v 0.20444300 -0.21464700 -0.83831600
v 0.10222200 -0.26578400 -0.64402600
v 0.07156640 -0.27600000 -0.64402600
v 0.00000000 -0.29648900 -0.82806300
v -0.00851848 -0.29474800 -0.84686000
v -0.04937350 -0.28453200 -0.84686000
v -0.08176620 -0.27600000 -0.84856800
v -0.08008490 -0.27431700 -0.85702700
v -0.06982910 -0.27431700 -0.86728000
v -0.07666630 -0.27089200 -0.87411500
v -0.00851848 -0.28453200 -0.88770000
v 0.00000000 -0.28621600 -0.88940900
v 0.01019980 -0.27600000 -0.93033400
v 0.20102500 -0.21128100 -0.86898900
v 0.21128100 -0.21128100 -0.83831600
v 0.11584000 -0.25899300 -0.64402600
v 0.10222200 -0.26578400 -0.58268000
v 0.07156640 -0.27600000 -0.57251300
v 0.01019980 -0.28621600 -0.58268000
v 0.00000000 -0.28621600 -0.57251300
v -0.01019980 -0.28621600 -0.58268000
v -0.08176620 -0.27600000 -0.59293300
v -0.12267700 -0.26578400 -0.83831600
v -0.14313300 -0.25556800 -0.85873600
v -0.14823300 -0.25046000 -0.87411500
v -0.08686600 -0.27089200 -0.86386200
v -0.11752100 -0.25046000 -0.90478800
v -0.10732200 -0.25046000 -0.91495500
v -0.04595490 -0.26067600 -0.93546100
v -0.01529960 -0.28110800 -0.89453500
v -0.00509988 -0.27089200 -0.93546100
v 0.01361840 -0.27263300 -0.93716900
v 0.18527700 -0.20187700 -0.93033400
v 0.20186500 -0.20953900 -0.87411500
v 0.13629600 -0.24877700 -0.64402600
v 0.21212100 -0.20953900 -0.84344200
v 0.24277700 -0.15846000 -0.84344200
v 0.24877300 -0.14650300 -0.59293300
v 0.21806200 -0.18742400 -0.58268000
v 0.20786200 -0.19764000 -0.57251300
v 0.19760600 -0.20785600 -0.57251300
v 0.18740600 -0.21807200 -0.59293300
v 0.15675100 -0.23850300 -0.57251300
v 0.14823300 -0.24279900 -0.56738600
v 0.13629600 -0.24877700 -0.57251300
v 0.11584000 -0.25899300 -0.58268000
v 0.12267700 -0.25556800 -0.57251300
v 0.12777700 -0.25301400 -0.56738600
v 0.10732200 -0.26323000 -0.57763900
v 0.07666630 -0.27344600 -0.56738600
v 0.04769230 -0.16014400 -0.06782050
v 0.06131060 -0.27600000 -0.56226000
v -0.06131060 -0.27600000 -0.56226000
v -0.01019980 -0.16356800 -0.06782050
v -0.04085510 -0.16356800 -0.06782050
v -0.07156640 -0.27600000 -0.57251300
v -0.08860340 -0.27263300 -0.58951500
v -0.15333300 -0.25556800 -0.83831600
v -0.16017000 -0.25214400 -0.83489800
v -0.14991400 -0.23171200 -0.92691700
v -0.14823300 -0.23002900 -0.93546100
v -0.14313300 -0.23513700 -0.93033400
v -0.11752100 -0.24024500 -0.93546100
v -0.13971400 -0.23171200 -0.93716900
v -0.14313300 -0.22492100 -0.94058700
v -0.03065530 -0.25556800 -0.94058700
v 0.18527700 -0.19421600 -0.93802400
v 0.18656600 -0.19932400 -0.93546100
v 0.01019980 -0.26578400 -0.94058700
v 0.20825400 -0.20443100 -0.86898900
v 0.19166600 -0.19932400 -0.92520800
v 0.23896600 -0.16356800 -0.84856800
v 0.21851000 -0.19421600 -0.85873600
v 0.25303200 -0.13797100 -0.85360900
v 0.28368800 -0.08689210 -0.84344200
v 0.25555400 -0.13286300 -0.59293300
v 0.25303200 -0.13414000 -0.58268000
v 0.23851700 -0.15671900 -0.57251300
v 0.22831800 -0.16693500 -0.56226000
v 0.21806200 -0.17720900 -0.55200700
v 0.11925900 -0.11922300 -0.06782050
v 0.15333300 -0.23896800 -0.56226000
v 0.14313300 -0.23896800 -0.54184000
v 0.09712180 -0.26323000 -0.55713400
v 0.13797700 -0.24279900 -0.54696600
v 0.06388860 -0.15207600 -0.06782050
v -0.07156640 -0.27344600 -0.56097800
v -0.05749970 -0.15526800 -0.06782050
v -0.14823300 -0.24024500 -0.54944400
v -0.14991400 -0.24192800 -0.55884200
v -0.14313300 -0.24279900 -0.55072600
v -0.11242100 -0.25301400 -0.54055800
v -0.07834760 -0.27263300 -0.56909500
v -0.14313300 -0.24535300 -0.56226000
v -0.22831800 -0.17720900 -0.64744300
v -0.28284700 -0.07835960 -0.86557100
v -0.27259100 -0.07835960 -0.90649700
v -0.15675100 -0.23850300 -0.56567800
v -0.18740600 -0.21807200 -0.58609800
v -0.20786200 -0.19764000 -0.56567800
v -0.22831800 -0.17720900 -0.58609800
v -0.27091000 -0.07667630 -0.91495500
v -0.26917300 -0.07493500 -0.92349900
v -0.26065400 -0.07667630 -0.93546100
v -0.25555400 -0.07151040 -0.94058700
v 0.19547700 -0.18400000 -0.93802400
v 0.18398800 -0.18400000 -0.94058700
v 0.19424400 -0.17378400 -0.94058700
v 0.20186500 -0.17889200 -0.93546100
v 0.19805500 -0.19421600 -0.92008200
v 0.21851000 -0.18400000 -0.87924100
v 0.24916500 -0.14307900 -0.85873600
v 0.27982100 -0.09199990 -0.84856800
v 0.28368800 -0.07667630 -0.86386200
v 0.28626600 -0.07151040 -0.85873600
v 0.28626600 -0.07151040 -0.81789600
v 0.27601000 -0.08178420 -0.58268000
v 0.26581000 -0.10221600 -0.57251300
v 0.24277700 -0.14435600 -0.56226000
v 0.26323200 -0.10349300 -0.56226000
v 0.25303200 -0.11370800 -0.54184000
v 0.14991400 -0.07835960 -0.06782050
v 0.09538450 -0.13628800 -0.06782050
v 0.08860340 -0.13971200 -0.06782050
v -0.08860340 -0.13971200 -0.06782050
v -0.20102500 -0.20106500 -0.55884200
v -0.11925900 -0.25214400 -0.54867500
v -0.11242100 -0.25556800 -0.55200700
v -0.24877300 -0.14650300 -0.64744300
v -0.28626600 -0.07151040 -0.86898900
v -0.28284700 -0.07835960 -0.80422500
v -0.27601000 -0.07151040 -0.90991400
v -0.22148000 -0.05792800 -0.16018100
v -0.24877300 -0.14650300 -0.57593000
v -0.26581000 -0.07151040 -0.93033400
v -0.26239100 -0.06814380 -0.93716900
v -0.25555400 0.08178420 -0.94058700
v 0.23638800 -0.11243100 -0.93802400
v 0.23509900 -0.10221600 -0.94058700
v 0.24277700 -0.10732400 -0.93546100
v 0.24916500 -0.10221600 -0.93033400
v 0.20825400 -0.18400000 -0.90991400
v 0.25942100 -0.10221600 -0.89966100
v 0.27982100 -0.08178420 -0.86898900
v 0.27982100 -0.07151040 -0.88940900
v 0.28368800 -0.06640250 -0.88428200
v 0.26323200 0.14824500 -0.85360900
v 0.28626600 0.04086310 -0.64402600
v 0.28626600 -0.03064730 -0.58268000
v 0.27601000 -0.07151040 -0.56226000
v 0.24277700 -0.13414000 -0.54184000
v 0.27343200 -0.07278730 -0.55200700
v 0.15333300 -0.07151040 -0.06782050
v 0.15120300 -0.07580560 -0.06782050
v -0.11584000 -0.11585600 -0.06782050
v -0.28626600 0.08178420 -0.86898900
v -0.28626600 -0.07151040 -0.80764300
v -0.26581000 -0.11243100 -0.58268000
v -0.27601000 0.08178420 -0.90991400
v -0.12604000 -0.10564000 -0.06782050
v -0.22232100 -0.05618670 -0.15847200
v -0.25213600 -0.13971200 -0.56909500
v -0.26581000 0.08178420 -0.93033400
v -0.26239100 0.08515070 -0.93716900
v -0.19424400 0.18400000 -0.94058700
v -0.19424400 0.19549300 -0.93802400
v 0.24664400 -0.09199990 -0.93802400
v 0.24535500 -0.08178420 -0.94058700
v 0.25303200 -0.08689210 -0.93546100
v 0.25942100 -0.08178420 -0.93033400
v 0.26962100 -0.07151040 -0.92008200
v 0.27343200 -0.06640250 -0.91495500
v 0.27343200 -0.05618670 -0.92520800
v 0.27601000 0.09199990 -0.64402600
v 0.25303200 0.13797100 -0.90478800
v 0.25045400 0.14824500 -0.89197200
v 0.24877300 0.15671900 -0.87582400
v 0.25897300 0.15671900 -0.84515100
v 0.26239100 0.14992800 -0.85190100
v 0.26239100 0.14992800 -0.84173300
v 0.27601000 0.09199990 -0.58268000
v 0.28626600 0.04086310 -0.58268000
v 0.28626600 -0.02043150 -0.57251300
v 0.27601000 -0.06129460 -0.55200700
v 0.16353200 -0.04086310 -0.06782050
v -0.28284700 0.08857530 -0.86898900
v -0.27091000 0.08944600 -0.91495500
v -0.28626600 0.08178420 -0.80764300
v -0.25303200 0.14824500 -0.62873200
v -0.24877300 0.15671900 -0.64402600
v -0.27601000 -0.08178420 -0.57251300
v -0.28626600 -0.05107880 -0.58268000
v -0.27259100 0.08515070 -0.91666400
v -0.12906600 -0.09966180 -0.06782050
v -0.20954300 -0.02553940 -0.10481600
v -0.21212100 -0.03064730 -0.11122400
v -0.21212100 -0.04086310 -0.12147700
v -0.21469900 -0.02043150 -0.11250500
v -0.26323200 0.03575520 -0.37318200
v -0.28626600 -0.04086310 -0.57251300
v -0.27601000 -0.07151040 -0.55200700
v -0.19934400 0.19677000 -0.93546100
v -0.18398800 0.19421600 -0.94058700
v -0.16353200 0.21592400 -0.93802400
v -0.15333300 0.21464700 -0.94058700
v 0.25684300 -0.07151040 -0.93802400
v 0.25813200 -0.07667630 -0.93546100
v 0.25555400 -0.06129460 -0.94058700
v 0.26962100 -0.06129460 -0.93033400
v 0.24193600 0.13286300 -0.93716900
v 0.24535500 0.13286300 -0.93033400
v 0.24193600 0.13971200 -0.93375200
v 0.23851700 0.14650300 -0.92691700
v 0.22831800 0.17720900 -0.87582400
v 0.23851700 0.17720900 -0.84515100
v 0.25897300 0.15671900 -0.83489800
v 0.24877300 0.14650300 -0.56909500
v 0.27091000 0.09710780 -0.56738600
v 0.27601000 0.08178420 -0.56226000
v 0.27601000 0.07151040 -0.55200700
v 0.28626600 0.03064730 -0.57251300
v 0.28626600 -0.00000000 -0.56226000
v 0.16353200 0.05107880 -0.06782050
v -0.21212100 0.21975500 -0.84344200
v -0.21128100 0.20106500 -0.89966100
v -0.21212100 0.19549300 -0.90991400
v -0.28111000 0.08944600 -0.87411500
v -0.20954300 0.19677000 -0.91495500
v -0.28626600 0.06129460 -0.58268000
v -0.27601000 0.09199990 -0.57251300
v -0.26581000 0.12264700 -0.58268000
v -0.25303200 0.14824500 -0.56738600
v -0.24877300 0.15671900 -0.57251300
v -0.15675100 -0.04428770 -0.06782050
v -0.21128100 -0.02043150 -0.10567000
v -0.16017000 -0.03743850 -0.06782050
v -0.16353200 -0.03064730 -0.06782050
v -0.19934400 0.00510788 -0.08439580
v -0.20444300 0.02043150 -0.09208540
v -0.25555400 0.07151040 -0.33746800
v -0.28626600 0.05107880 -0.57251300
v -0.28626600 0.01021580 -0.55200700
v -0.28626600 -0.00000000 -0.55200700
v -0.15843200 0.22236700 -0.93546100
v -0.20954300 0.20187700 -0.90478800
v -0.19934400 0.20187700 -0.92520800
v -0.19424400 0.20826200 -0.92008200
v -0.15333300 0.22875200 -0.93033400
v -0.09196590 0.25684500 -0.93802400
v -0.08176620 0.25556800 -0.94058700
v 0.26239100 -0.06129460 -0.93716900
v 0.26323200 -0.06640250 -0.93546100
v 0.25555400 -0.05107880 -0.94058700
v 0.26239100 -0.05107880 -0.93716900
v 0.24025500 0.13797100 -0.93802400
v 0.22999900 0.14824500 -0.93802400
v 0.23173600 0.14992800 -0.93375200
v 0.20786200 0.17720900 -0.92691700
v 0.15675100 0.24877700 -0.87582400
v 0.22831800 0.18742400 -0.84515100
v 0.23851700 0.17720900 -0.82464500
v 0.24877300 0.16693500 -0.82464500
v 0.20786200 0.20785600 -0.57926300
v 0.23851700 0.16693500 -0.56909500
v 0.24025500 0.15846000 -0.55713400
v 0.25045400 0.13797100 -0.55713400
v 0.27091000 0.08689210 -0.54696600
v 0.28626600 0.01021580 -0.56226000
v 0.16017000 0.05792800 -0.06782050
v 0.25045400 0.12775500 -0.53671400
v -0.20954300 0.22236700 -0.84344200
v -0.21806200 0.19764000 -0.57251300
v -0.20786200 0.20785600 -0.56226000
v -0.24535500 0.11243100 -0.35788800
v -0.24277700 0.11753900 -0.35276200
v -0.26323200 0.12775500 -0.57763900
v -0.23851700 0.12607200 -0.35788800
v -0.21212100 0.19932400 -0.51629400
v -0.21128100 0.20106500 -0.52133400
v -0.20102500 0.01021580 -0.08525020
v -0.20102500 0.02043150 -0.08525020
v -0.16498900 0.04086310 -0.06782050
v -0.18398800 0.05107880 -0.07157990
v -0.18908800 0.04597100 -0.07414310
v -0.19082500 0.05107880 -0.07499740
v -0.20186500 0.02553940 -0.08695900
v -0.25303200 0.07667630 -0.33234200
v -0.08686600 0.26323000 -0.93546100
v -0.20444300 0.20826200 -0.89966100
v -0.19424400 0.22875200 -0.85873600
v -0.08176620 0.26961500 -0.93033400
v -0.08176620 0.29004700 -0.86898900
v -0.07156640 0.26706100 -0.93802400
v -0.06131060 0.26578400 -0.94058700
v 0.23509900 0.13286300 -0.94058700
v 0.26065400 -0.04597100 -0.93802400
v 0.21469900 0.15335300 -0.94058700
v 0.21979900 0.15846000 -0.93802400
v 0.16017000 0.22149600 -0.93375200
v 0.17720700 0.20785600 -0.92691700
v 0.14649500 0.25899300 -0.87582400
v 0.15675100 0.25899300 -0.84515100
v 0.15675100 0.22828800 -0.92691700
v 0.22831800 0.18742400 -0.82464500
v 0.19760600 0.21807200 -0.57926300
v 0.19934400 0.20953900 -0.55713400
v 0.20786200 0.19764000 -0.54867500
v 0.22831800 0.17720900 -0.55884200
v 0.15675100 0.25899300 -0.82464500
v 0.13629600 0.10564000 -0.06782050
v 0.24025500 0.14824500 -0.53671400
v 0.14632700 0.08561510 -0.06782050
v -0.13797700 0.26323000 -0.84344200
v -0.18908800 0.23258300 -0.85360900
v -0.20444300 0.21847800 -0.86898900
v -0.18740600 0.22828800 -0.58268000
v -0.15675100 0.24877700 -0.57251300
v -0.24535500 0.10221600 -0.33746800
v -0.24277700 0.10732400 -0.33234200
v -0.17121000 0.14824500 -0.11763200
v -0.23896600 0.12264700 -0.34763600
v -0.16101000 0.18910800 -0.17897800
v -0.16695100 0.18742400 -0.20452400
v -0.20186500 0.19932400 -0.45503300
v -0.20102500 0.20106500 -0.46007400
v -0.16190700 0.05049840 -0.06782050
v -0.16134700 0.05165930 -0.06782050
v -0.15159500 0.07122010 -0.06782050
v -0.13629600 0.09536650 -0.06782050
v -0.11584000 0.12607200 -0.06782050
v -0.18527700 0.06129460 -0.07414310
v -0.19166600 0.05618670 -0.07670630
v -0.19166600 0.06640250 -0.08695900
v -0.18146600 0.10732400 -0.09712630
v -0.07666630 0.26833800 -0.93546100
v -0.12267700 0.26961500 -0.85873600
v -0.07666630 0.27344600 -0.92520800
v -0.06641050 0.27344600 -0.93546100
v -0.07666630 0.29387700 -0.86386200
v -0.06131060 0.27263300 -0.93716900
v 0.13287700 0.23513700 -0.94058700
v -0.05621070 0.27089200 -0.93802400
v 0.14313300 0.22492100 -0.94058700
v 0.14823300 0.23002900 -0.93802400
v 0.13971400 0.24192800 -0.93375200
v 0.13971400 0.26235900 -0.88257300
v 0.13797700 0.26323000 -0.88428200
v 0.14649500 0.23850300 -0.92691700
v 0.14991400 0.26235900 -0.85190100
v 0.14313300 0.26578400 -0.84856800
v 0.15675100 0.24877700 -0.57926300
v 0.17720700 0.22828800 -0.55884200
v 0.18740600 0.21807200 -0.54867500
v 0.12604000 0.11585600 -0.06782050
v 0.14313300 0.26578400 -0.82806300
v 0.13629600 0.25899300 -0.57926300
v 0.14313300 0.09199990 -0.06782050
v -0.10564000 0.27942400 -0.82806300
v -0.11925900 0.27263300 -0.83831600
v -0.11925900 0.27263300 -0.84856800
v -0.12604000 0.26920900 -0.84856800
v -0.11752100 0.27344600 -0.85360900
v -0.16017000 0.19079100 -0.18410400
v -0.13629600 0.25899300 -0.57251300
v -0.07156640 0.29648900 -0.82806300
v -0.09880310 0.28284900 -0.82806300
v -0.17759900 0.11243100 -0.09208540
v -0.16611000 0.14824500 -0.10737900
v -0.16101000 0.16867600 -0.12779900
v -0.16101000 0.17889200 -0.14830500
v -0.15675100 0.18057500 -0.14659600
v -0.15333300 0.18400000 -0.15343100
v -0.08518480 0.14650300 -0.06782050
v -0.17121000 0.11753900 -0.08695900
v -0.18146600 0.07667630 -0.07670630
v -0.18056900 0.07151040 -0.07499740
v -0.18146600 0.09710780 -0.08695900
v -0.06641050 0.28366200 -0.90478800
v -0.06131060 0.27600000 -0.93033400
v -0.07156640 0.29648900 -0.85873600
v 0.13287700 0.24192800 -0.93716900
v 0.13797700 0.24024500 -0.93802400
v 0.12777700 0.25301400 -0.92520800
v 0.07156640 0.28621600 -0.64402600
v 0.14823300 0.25046000 -0.56738600
v 0.07492900 0.15671900 -0.06782050
v 0.07156640 0.28621600 -0.58268000
v 0.12267700 0.26578400 -0.58268000
v 0.12777700 0.26067600 -0.56738600
v -0.01019980 0.28621600 -0.54184000
v 0.00000000 0.29648900 -0.58268000
v -0.07156640 0.28621600 -0.57251300
v -0.10222200 0.27600000 -0.58268000
v -0.12267700 0.26578400 -0.57251300
v -0.15675100 0.16014400 -0.11592300
v -0.07156640 0.15335300 -0.06782050
v -0.04085510 0.16356800 -0.06782050
v 0.00000000 0.17378400 -0.06782050
v 0.00000000 0.29648900 -0.64402600
v 0.12777700 0.25046000 -0.52646100
v 0.07408830 0.15718400 -0.06782050
v 0.05111090 0.28621600 -0.56226000
v 0.03065530 0.17378400 -0.06782050
v 0.08176620 0.27600000 -0.55200700
v 0.09712180 0.27089200 -0.55713400
v 0.11752100 0.26067600 -0.54696600
v 0.03065530 0.28621600 -0.55200700
v 0.06131060 0.16356800 -0.06782050
v 0.08686600 0.27089200 -0.53671400
f 232 243 233
f 232 244 243
f 235 279 278
f 233 277 234
f 234 277 278
f 234 278 279
f 234 279 235
f 229 248 231
f 233 243 277
f 236 282 275
f 235 280 236
f 236 280 281
f 236 281 282
f 238 241 283
f 238 283 284
f 240 285 286
f 241 288 283
f 240 286 287
f 241 287 288
f 240 287 241
f 235 278 280
f 228 248 229
f 221 273 270
f 227 275 276
f 217 261 262
f 217 263 218
f 218 263 307
f 242 284 289
f 218 307 264
f 219 264 265
f 219 265 266
f 219 266 267
f 219 267 220
f 220 267 268
f 227 276 274
f 220 268 269
f 221 269 273
f 222 270 226
f 222 226 223
f 223 226 224
f 224 226 271
f 226 270 273
f 226 273 272
f 227 274 248
f 227 248 228
f 227 236 275
f 220 269 221
f 242 289 290
f 261 303 262
f 243 290 277
f 262 303 306
f 262 306 351
f 262 351 304
f 263 305 312
f 263 312 307
f 264 307 266
f 264 266 265
f 266 308 309
f 266 309 310
f 266 310 311
f 262 304 305
f 266 311 267
f 266 312 308
f 267 311 313
f 267 313 268
f 268 314 273
f 268 273 269
f 268 313 314
f 272 273 314
f 217 305 263
f 272 314 315
f 274 316 365
f 266 307 312
f 242 290 243
f 261 302 303
f 260 347 302
f 247 291 252
f 247 251 294
f 247 294 291
f 248 274 292
f 248 292 250
f 248 250 249
f 250 292 293
f 250 293 251
f 251 293 295
f 251 295 294
f 260 302 261
f 252 291 338
f 252 296 253
f 253 296 297
f 256 298 258
f 256 258 299
f 256 299 257
f 257 299 258
f 258 298 300
f 258 300 259
f 259 300 301
f 260 301 347
f 252 338 296
f 217 262 305
f 188 225 271
f 215 261 216
f 180 217 218
f 180 218 181
f 180 216 217
f 181 218 264
f 181 264 219
f 181 219 183
f 181 183 182
f 183 219 184
f 184 220 221
f 184 221 270
f 184 270 222
f 184 222 185
f 184 219 220
f 185 222 223
f 185 223 224
f 186 225 188
f 186 188 187
f 188 271 226
f 189 227 228
f 189 228 229
f 189 229 230
f 179 216 180
f 179 215 216
f 178 215 179
f 178 214 215
f 164 195 204
f 274 365 317
f 164 204 194
f 167 205 169
f 167 196 231
f 167 231 205
f 168 169 206
f 169 205 207
f 169 207 208
f 169 208 206
f 189 230 190
f 170 209 210
f 170 171 211
f 170 211 209
f 172 210 173
f 173 210 212
f 173 212 174
f 174 212 176
f 174 176 175
f 176 212 213
f 176 213 214
f 176 214 178
f 170 210 172
f 189 193 227
f 190 229 231
f 190 231 196
f 205 249 250
f 205 250 251
f 205 251 247
f 207 247 252
f 207 252 253
f 207 253 208
f 209 254 255
f 209 255 210
f 209 211 254
f 210 255 212
f 205 248 249
f 211 256 257
f 212 255 254
f 212 254 257
f 212 257 213
f 213 257 258
f 213 258 214
f 214 258 215
f 215 258 259
f 215 259 301
f 215 301 260
f 215 260 261
f 211 257 254
f 216 261 217
f 205 231 248
f 202 246 203
f 190 230 229
f 191 232 233
f 191 233 234
f 191 234 235
f 192 235 236
f 192 236 193
f 193 236 227
f 194 204 195
f 197 237 198
f 198 238 199
f 205 247 207
f 198 237 239
f 198 240 241
f 198 241 238
f 199 238 201
f 201 238 284
f 201 284 242
f 201 242 243
f 201 243 202
f 202 243 244
f 202 244 245
f 202 245 246
f 198 239 240
f 274 317 293
f 342 363 383
f 274 318 292
f 350 383 353
f 350 353 352
f 350 386 382
f 350 382 381
f 350 381 383
f 353 383 387
f 353 387 390
f 353 390 358
f 354 359 392
f 354 392 388
f 354 388 389
f 354 389 355
f 355 389 356
f 356 389 357
f 358 390 391
f 359 391 392
f 361 369 362
f 362 369 368
f 362 368 383
f 362 383 363
f 363 365 364
f 348 350 349
f 348 386 350
f 348 385 386
f 347 385 348
f 333 377 378
f 333 378 379
f 333 379 334
f 334 379 378
f 334 378 335
f 335 378 380
f 335 380 337
f 335 337 336
f 337 380 370
f 339 365 342
f 366 375 393
f 340 342 381
f 341 381 382
f 341 382 343
f 342 365 363
f 342 383 381
f 343 384 385
f 343 385 345
f 343 382 386
f 343 386 384
f 344 385 347
f 344 347 346
f 340 381 341
f 366 393 394
f 366 394 395
f 366 395 396
f 388 392 403
f 388 403 404
f 388 404 389
f 390 394 405
f 390 405 406
f 390 406 407
f 390 407 408
f 390 408 391
f 391 408 392
f 392 408 412
f 387 394 390
f 392 412 409
f 393 401 394
f 394 401 406
f 394 406 410
f 394 410 405
f 403 409 411
f 403 411 404
f 405 410 406
f 406 411 412
f 406 412 407
f 164 203 195
f 392 409 403
f 333 376 377
f 387 402 394
f 383 402 387
f 366 396 397
f 366 397 367
f 367 397 368
f 368 397 396
f 368 396 395
f 368 395 394
f 368 394 402
f 368 402 383
f 370 380 377
f 370 377 371
f 384 386 385
f 371 398 372
f 371 376 399
f 371 399 398
f 372 398 399
f 372 399 400
f 372 400 401
f 372 401 374
f 372 374 373
f 374 401 375
f 375 401 393
f 377 380 378
f 371 377 376
f 274 293 318
f 325 327 326
f 325 366 328
f 286 333 334
f 286 334 288
f 286 288 287
f 288 334 335
f 289 335 290
f 290 322 321
f 290 335 336
f 290 336 337
f 290 337 322
f 291 294 338
f 292 318 293
f 293 317 365
f 293 365 339
f 293 339 295
f 294 340 341
f 294 341 338
f 294 295 342
f 294 342 340
f 295 339 342
f 296 338 341
f 296 341 343
f 286 332 333
f 286 331 332
f 286 330 331
f 286 329 330
f 274 276 319
f 274 319 320
f 274 320 316
f 275 282 276
f 276 282 319
f 277 290 321
f 277 321 322
f 277 322 278
f 278 322 323
f 278 323 324
f 296 343 297
f 278 324 280
f 280 325 326
f 280 326 327
f 280 327 281
f 281 327 328
f 281 328 282
f 282 328 319
f 283 288 284
f 284 288 335
f 284 335 289
f 285 329 286
f 280 324 325
f 297 343 345
f 297 345 385
f 297 385 344
f 314 360 315
f 316 361 362
f 316 362 363
f 316 363 364
f 316 364 365
f 316 320 361
f 319 328 320
f 320 328 366
f 320 366 367
f 320 367 368
f 313 360 314
f 320 368 369
f 322 337 323
f 323 337 370
f 323 370 371
f 323 371 372
f 323 372 373
f 323 373 324
f 324 373 325
f 325 373 374
f 325 374 375
f 325 375 366
f 320 369 361
f 325 328 327
f 312 359 354
f 312 358 391
f 300 346 347
f 300 347 301
f 302 347 348
f 302 348 306
f 302 306 303
f 304 349 350
f 304 350 305
f 304 351 348
f 304 348 349
f 305 350 352
f 312 391 359
f 305 352 353
f 305 358 312
f 306 348 351
f 308 354 355
f 308 355 356
f 308 356 309
f 308 312 354
f 309 356 357
f 309 357 313
f 309 313 310
f 310 313 311
f 305 353 358
f 164 202 203
f 54 332 331
f 164 199 201
f 44 85 46
f 44 46 45
f 44 84 85
f 46 85 47
f 47 85 86
f 47 86 51
f 47 51 48
f 48 51 50
f 51 87 53
f 51 53 52
f 51 86 88
f 51 88 54
f 51 54 87
f 53 87 54
f 54 89 127
f 54 127 126
f 54 126 84
f 54 84 125
f 54 125 157
f 54 157 156
f 54 156 188
f 43 84 44
f 43 83 84
f 42 83 43
f 42 82 83
f 32 34 33
f 35 70 71
f 35 71 36
f 35 69 72
f 35 72 70
f 36 71 37
f 37 73 39
f 37 71 74
f 37 74 113
f 37 113 73
f 54 188 226
f 39 75 40
f 39 76 75
f 40 75 77
f 40 77 78
f 40 78 41
f 41 79 80
f 41 80 122
f 41 122 81
f 41 81 42
f 41 78 79
f 42 81 82
f 39 73 76
f 32 35 34
f 54 226 272
f 54 315 360
f 54 88 86
f 54 86 89
f 56 90 59
f 56 58 90
f 58 91 92
f 58 92 93
f 58 93 94
f 58 94 95
f 58 95 90
f 59 90 96
f 59 96 60
f 60 96 97
f 60 97 61
f 61 97 62
f 62 98 99
f 62 99 100
f 62 100 63
f 62 97 93
f 62 93 101
f 62 101 102
f 62 102 103
f 54 58 57
f 54 91 58
f 54 128 91
f 54 158 128
f 54 360 313
f 54 313 357
f 54 357 389
f 54 389 404
f 54 404 411
f 54 411 406
f 54 406 401
f 54 401 400
f 54 400 399
f 54 399 376
f 54 272 315
f 54 376 333
f 407 412 408
f 54 331 330
f 54 330 329
f 54 329 285
f 54 285 240
f 54 240 239
f 54 239 237
f 54 237 197
f 54 197 163
f 54 163 158
f 54 333 332
f 32 69 35
f 32 68 69
f 32 67 68
f 7 21 22
f 7 22 23
f 7 23 24
f 7 24 25
f 7 25 8
f 8 25 9
f 9 26 10
f 9 25 26
f 10 26 27
f 10 27 28
f 10 28 29
f 10 29 11
f 11 29 13
f 11 13 12
f 13 29 28
f 13 28 30
f 13 30 31
f 13 31 32
f 13 32 33
f 13 33 14
f 14 33 15
f 5 21 6
f 5 20 21
f 5 49 20
f 5 19 49
f 1 2 3
f 1 3 4
f 1 4 5
f 1 5 6
f 1 6 21
f 1 21 7
f 1 7 8
f 1 8 9
f 1 9 10
f 1 10 11
f 15 33 34
f 1 11 12
f 1 13 14
f 1 14 15
f 1 15 2
f 2 15 16
f 2 16 3
f 3 17 4
f 3 16 17
f 4 17 18
f 4 18 5
f 5 18 19
f 1 12 13
f 15 34 16
f 16 34 35
f 16 35 36
f 22 55 23
f 23 56 24
f 23 55 54
f 23 54 57
f 23 57 58
f 23 58 56
f 24 56 59
f 24 59 25
f 25 59 60
f 25 60 61
f 21 55 22
f 25 61 26
f 27 61 28
f 28 61 62
f 28 62 63
f 28 63 64
f 28 64 65
f 28 65 30
f 30 65 31
f 31 65 32
f 32 65 66
f 32 66 67
f 26 61 27
f 62 103 104
f 21 54 55
f 20 53 21
f 16 36 17
f 17 36 37
f 17 37 39
f 17 39 18
f 18 38 19
f 18 39 40
f 18 40 41
f 18 41 42
f 18 42 43
f 18 43 44
f 21 53 54
f 18 44 45
f 18 46 47
f 18 47 48
f 18 48 38
f 19 38 48
f 19 48 49
f 20 49 48
f 20 48 50
f 20 50 51
f 20 51 52
f 20 52 53
f 18 45 46
f 62 104 98
f 63 100 64
f 64 100 105
f 124 156 157
f 124 157 154
f 125 154 157
f 128 158 136
f 133 159 162
f 133 162 135
f 133 160 195
f 133 195 203
f 133 203 246
f 133 246 245
f 133 245 244
f 133 244 232
f 133 232 191
f 133 191 159
f 134 161 160
f 135 162 166
f 135 166 138
f 136 158 163
f 136 163 164
f 136 164 165
f 136 165 137
f 123 156 124
f 123 155 156
f 122 154 125
f 121 155 123
f 114 145 144
f 114 144 146
f 114 146 115
f 115 147 116
f 115 146 148
f 115 148 147
f 117 147 148
f 117 148 149
f 117 149 118
f 118 149 150
f 137 165 161
f 118 150 151
f 118 185 224
f 118 224 271
f 118 271 225
f 118 225 186
f 118 186 152
f 118 152 119
f 119 152 120
f 120 152 153
f 120 153 121
f 121 153 155
f 118 151 185
f 138 166 167
f 138 167 139
f 140 167 169
f 152 187 153
f 153 187 155
f 155 187 188
f 155 188 156
f 159 189 190
f 159 190 162
f 159 191 235
f 159 235 192
f 159 192 193
f 159 193 189
f 152 186 187
f 160 161 194
f 161 165 164
f 161 164 194
f 162 190 196
f 162 196 167
f 162 167 166
f 163 197 198
f 163 198 199
f 163 199 200
f 163 200 164
f 164 200 199
f 160 194 195
f 113 145 114
f 151 184 185
f 150 184 177
f 140 169 168
f 141 170 172
f 141 172 143
f 141 142 171
f 141 171 170
f 143 172 173
f 143 173 144
f 144 173 174
f 144 174 146
f 146 174 148
f 151 177 184
f 148 174 149
f 149 175 176
f 149 176 150
f 150 177 151
f 150 176 178
f 150 178 179
f 150 179 180
f 150 180 181
f 150 181 182
f 150 182 183
f 150 183 184
f 149 174 175
f 164 201 202
f 112 145 113
f 112 143 144
f 70 72 110
f 70 110 111
f 70 111 109
f 71 109 112
f 71 112 113
f 71 113 74
f 73 113 114
f 73 114 76
f 75 76 115
f 75 115 77
f 76 114 115
f 77 115 116
f 77 116 78
f 78 116 147
f 78 147 117
f 78 117 118
f 78 118 119
f 78 119 120
f 78 120 79
f 79 120 121
f 79 121 80
f 70 109 71
f 68 107 108
f 68 72 69
f 68 110 72
f 64 105 106
f 64 106 107
f 64 107 68
f 64 68 67
f 64 67 66
f 64 66 65
f 68 108 140
f 68 140 168
f 68 168 206
f 68 206 208
f 80 121 123
f 68 208 253
f 68 297 344
f 68 344 346
f 68 346 300
f 68 300 298
f 68 298 256
f 68 256 211
f 68 211 171
f 68 171 142
f 68 142 111
f 68 111 110
f 68 253 297
f 80 123 124
f 80 124 154
f 80 154 122
f 99 132 137
f 99 137 161
f 99 161 134
f 99 134 160
f 99 160 133
f 100 135 105
f 101 103 102
f 103 129 128
f 103 128 136
f 103 136 104
f 99 135 100
f 104 136 137
f 106 138 107
f 106 135 138
f 107 139 108
f 107 138 139
f 108 139 167
f 108 167 140
f 109 141 143
f 109 143 112
f 109 111 141
f 111 142 141
f 105 135 106
f 112 144 145
f 99 133 135
f 98 104 137
f 81 122 125
f 81 125 82
f 82 125 83
f 83 125 84
f 84 126 85
f 85 126 86
f 86 126 127
f 86 127 89
f 90 95 96
f 91 128 92
f 98 137 132
f 92 128 93
f 93 103 101
f 93 97 130
f 93 130 94
f 93 128 129
f 94 130 95
f 95 130 131
f 95 131 96
f 96 131 97
f 97 131 130
f 98 132 99
f 93 129 103
f 409 412 411

