# https://github.com/mikedh/trimesh
v 0.21469900 0.06131260 0.90989100
v 0.19421600 0.11243500 0.90989100
v 0.18741600 0.12607700 0.91324700
v 0.20785700 0.07495400 0.91324700
v 0.20957800 0.06643350 0.91502400
v 0.21125700 0.05791300 0.91670200
v 0.21469900 -0.05108880 0.90989100
v 0.21469900 0.06131260 0.88946000
v 0.19421600 0.11243500 0.88946000
v 0.13629400 0.17720000 0.91324700
v 0.17209700 0.13119800 0.91837900
v 0.18229600 0.12095600 0.91837900
v 0.18913800 0.11755600 0.91502400
v 0.18741600 0.12607700 0.89281600
v 0.21125700 -0.05448840 0.91670200
v 0.19081600 0.10903600 0.91670200
v 0.20445700 0.06131260 0.92005700
v 0.19081600 -0.10561100 0.91670200
v 0.19421600 -0.10221200 0.90989100
v 0.21469900 -0.05108880 0.88946000
v 0.16357600 0.05111390 -0.06773510
v 0.19081600 0.11923500 0.88600600
v 0.12605200 0.18739800 0.91324700
v 0.12097400 0.18232100 0.91837900
v 0.13629400 0.17720000 0.89281600
v 0.11245300 0.10223700 0.94058700
v 0.13289400 0.08175320 0.94058700
v 0.18401700 0.11243500 0.92005700
v 0.13629400 0.10563600 -0.06773510
v 0.20445700 -0.05108880 0.92005700
v 0.14309300 0.06131260 0.94058700
v 0.15333500 0.02043150 0.94058700
v 0.16013400 -0.14653500 0.91670200
v 0.18913800 -0.10987200 0.91502400
v 0.18401700 -0.10221200 0.92005700
v 0.18401700 -0.11370100 0.91749100
v 0.18741600 -0.11585300 0.90989100
v 0.19167700 -0.10733300 0.88432800
v 0.19421600 -0.10221200 0.88946000
v 0.15333500 -0.07152940 -0.06773510
v 0.16357600 -0.04089010 -0.06773510
v 0.14653500 0.08519580 -0.06773510
v 0.11925300 0.19084100 0.90643700
v 0.11245300 0.19424100 0.90989100
v 0.08517080 0.20788200 0.91324700
v 0.11753100 0.18912000 0.91502400
v 0.12605200 0.18739800 0.89281600
v 0.09709080 0.19936200 0.91502400
v 0.09201300 0.19424100 0.92005700
v 0.11245300 0.18399900 0.92005700
v 0.08177120 0.13287600 0.94058700
v 0.09201300 0.12267700 0.94058700
v 0.12605200 0.11583500 -0.06773510
v 0.15333500 -0.01020780 0.94058700
v 0.14309300 -0.05108880 0.94058700
v 0.12265200 -0.17506600 0.91749100
v 0.15845500 -0.15079600 0.91502400
v 0.15333500 -0.14309300 0.92005700
v 0.13289400 -0.07152940 0.94058700
v 0.11245300 -0.10221200 0.94058700
v 0.16013400 -0.14993500 0.90989100
v 0.18741600 -0.11585300 0.88946000
v 0.14993500 -0.07837160 -0.06773510
v 0.11925300 0.19084100 0.88600600
v 0.07665030 0.20956000 0.91502400
v 0.07837160 0.21128200 0.90643700
v 0.07152940 0.21468100 0.90989100
v 0.07497200 0.15675900 -0.06773510
v 0.06812980 0.21128200 0.91670200
v 0.07152940 0.20443900 0.92005700
v 0.04089010 0.15331700 0.94058700
v 0.06133060 0.14311800 0.94058700
v 0.08177120 -0.19550700 0.91749100
v 0.07665030 -0.20191900 0.91502400
v 0.11753100 -0.18143500 0.91502400
v 0.11245300 -0.11370100 0.93802100
v 0.10221200 -0.11245300 0.94058700
v 0.11245300 -0.17377500 0.92005700
v 0.09201300 -0.18401700 0.92005700
v 0.12605200 -0.17717500 0.90989100
v 0.16013400 -0.14993500 0.88946000
v 0.11925300 -0.11925300 -0.06773510
v 0.07837160 0.21128200 0.88600600
v 0.07152940 0.21468100 0.88946000
v 0.03064830 0.22492300 0.90989100
v 0.06133060 0.16355800 -0.06773510
v 0.02724870 0.22148000 0.91670200
v 0.03064830 0.21468100 0.92005700
v -0.04087210 0.15331700 0.94058700
v 0.07152940 -0.20105800 0.91670200
v 0.07152940 -0.19421600 0.92005700
v 0.11925300 -0.18061700 0.90989100
v 0.04089010 -0.21125700 0.91670200
v 0.04596790 -0.21211700 0.91502400
v 0.04089010 -0.21469900 0.90989100
v 0.07152940 -0.20445700 0.90989100
v 0.07152940 -0.20445700 0.88946000
v 0.07837160 -0.20105800 0.88946000
v 0.07152940 -0.13289400 0.94058700
v 0.12605200 -0.17717500 0.88946000
v 0.09541250 -0.13629400 -0.06773510
v 0.03064830 0.22492300 0.88946000
v 0.03064830 0.17380000 -0.06773510
v -0.03063030 0.22492300 0.90989100
v -0.03407290 0.22148000 0.91670200
v -0.03063030 0.21468100 0.92005700
v -0.07155440 0.14311800 0.94058700
v -0.07155440 0.20443900 0.92005700
v 0.04089010 -0.20445700 0.92005700
v 0.11925300 -0.18061700 0.88946000
v -0.04087210 -0.21125700 0.91670200
v -0.04087210 -0.21469900 0.90989100
v 0.04089010 -0.21469900 0.88946000
v 0.04768930 -0.16013400 -0.06773510
v 0.05022820 -0.15888600 -0.06773510
v 0.05707040 -0.15548600 -0.06773510
v 0.04089010 -0.14309300 0.94058700
v 0.09115230 -0.13844500 -0.06773510
v -0.03063030 0.22492300 0.88946000
v -0.00003402 0.17380000 -0.06773510
v -0.07155440 0.21468100 0.90989100
v -0.07495400 0.21128200 0.91670200
v -0.10223700 0.12267700 0.94058700
v -0.09199490 0.19424100 0.92005700
v -0.11243500 0.18399900 0.92005700
v -0.04087210 -0.20445700 0.92005700
v -0.04599300 -0.20957800 0.91749100
v -0.04767120 -0.21125700 0.91324700
v -0.07835360 -0.20105800 0.91324700
v -0.10223700 -0.19421600 0.90989100
v -0.04087210 -0.21469900 0.88946000
v -0.01018970 -0.16357600 -0.06773510
v -0.05111390 -0.14309300 0.94058700
v -0.07155440 0.21468100 0.88946000
v -0.04087210 0.16355800 -0.06773510
v -0.08519580 0.20788200 0.90989100
v -0.07667530 0.21214200 0.88432800
v -0.09965480 0.19936200 0.91502400
v -0.11583500 0.19084100 0.91670200
v -0.12267700 0.10223700 0.94058700
v -0.14311800 0.16355800 0.92005700
v -0.11372600 0.12267700 0.93802100
v -0.12392500 0.18399900 0.91749100
v -0.10223700 -0.18401700 0.92005700
v -0.10731500 -0.18913800 0.91749100
v -0.10903600 -0.19081600 0.91324700
v -0.10223700 -0.19421600 0.88946000
v -0.04087210 -0.16357600 -0.06773510
v -0.07155440 -0.13289400 0.94058700
v -0.07155440 0.15331700 -0.06773510
v -0.11923500 0.19084100 0.90989100
v -0.08519580 0.20788200 0.88946000
v -0.11755600 0.19165900 0.88432800
v -0.11923500 0.19084100 0.88946000
v -0.07581460 0.15120800 -0.06773510
v -0.08519580 0.14651700 -0.06773510
v -0.12009500 0.18912000 0.91502400
v -0.15077800 0.16867900 0.91502400
v -0.14651700 0.17035800 0.91670200
v -0.15460800 0.16355800 0.91749100
v -0.14311800 0.06131260 0.94058700
v -0.12392500 0.11243500 0.93802100
v -0.18529000 0.12267700 0.91749100
v -0.18399900 0.11243500 0.92005700
v -0.19424100 0.09199490 0.92005700
v -0.14823900 -0.15845500 0.91749100
v -0.10223700 -0.11245300 0.94058700
v -0.14991700 -0.16013400 0.91324700
v -0.15675900 -0.15673400 0.90643700
v -0.11583500 -0.18741600 0.90643700
v -0.11583500 -0.18741600 0.88600600
v -0.07495400 -0.14653500 -0.06773510
v -0.12607700 0.18739800 0.90989100
v -0.12607700 0.18739800 0.88946000
v -0.11583500 0.12607700 -0.06773510
v -0.15675900 0.16695800 0.88946000
v -0.15675900 0.16695800 0.90989100
v -0.16101900 0.15843700 0.91502400
v -0.15331700 0.04087210 0.94058700
v -0.19548900 0.10223700 0.91749100
v -0.19165900 0.11755600 0.91502400
v -0.20190000 0.09711580 0.91502400
v -0.20104000 0.09199490 0.91670200
v -0.21128200 0.06131260 0.91670200
v -0.20443900 0.06131260 0.92005700
v -0.16867900 -0.13801500 0.91749100
v -0.16015900 -0.14993500 0.91324700
v -0.12267700 -0.09201300 0.94058700
v -0.16695800 -0.14653500 0.90643700
v -0.15675900 -0.15673400 0.88600600
v -0.08859540 -0.13969300 -0.06773510
v -0.13627600 0.09539450 -0.06773510
v -0.18739800 0.12607700 0.88946000
v -0.18739800 0.12607700 0.90989100
v -0.15331700 -0.03064830 0.94058700
v -0.21468100 0.01018970 0.92005700
v -0.19084100 0.11923500 0.90989100
v -0.20443900 0.09199490 0.90989100
v -0.21214200 0.06643350 0.91502400
v -0.19764000 0.10563600 0.88946000
v -0.20443900 0.09199490 0.88946000
v -0.22148000 0.01018970 0.91670200
v -0.18912000 -0.10733300 0.91749100
v -0.19084100 -0.10901100 0.91324700
v -0.17035800 -0.13969300 0.91324700
v -0.14311800 -0.05108880 0.94058700
v -0.19424100 -0.08177120 0.92005700
v -0.18399900 -0.10221200 0.92005700
v -0.18739800 -0.11585300 0.90643700
v -0.16695800 -0.14653500 0.88600600
v -0.11583500 -0.11585300 -0.06773510
v -0.15159500 0.07121010 -0.06773510
v -0.19084100 0.11923500 0.88946000
v -0.21468100 0.00003402 0.92005700
v -0.20443900 -0.05108880 0.92005700
v -0.21468100 0.06131260 0.90989100
v -0.22234100 0.01531060 0.91502400
v -0.22492300 0.01018970 0.90989100
v -0.16136400 0.05167330 -0.06773510
v -0.21468100 0.06131260 0.88946000
v -0.16192300 0.05051140 -0.06773510
v -0.22148000 0.00003402 0.91670200
v -0.19936200 -0.08689210 0.91749100
v -0.20104000 -0.08857030 0.91324700
v -0.19424100 -0.10221200 0.90989100
v -0.19084100 -0.10901100 0.89281600
v -0.18739800 -0.11585300 0.88600600
v -0.12607700 -0.10561100 -0.06773510
v -0.21980200 -0.00508687 0.91749100
v -0.20956000 -0.05620970 0.91749100
v -0.22492300 0.00003402 0.90989100
v -0.22492300 0.01018970 0.88946000
v -0.16497800 0.04087210 -0.06773510
v -0.21128200 -0.05108880 0.91670200
v -0.21128200 -0.05793100 0.91324700
v -0.20443900 -0.08177120 0.90989100
v -0.19764000 -0.09541250 0.90643700
v -0.19764000 -0.09541250 0.88600600
v -0.13971800 -0.07837160 -0.06773510
v -0.21468100 -0.05108880 0.90989100
v -0.22492300 0.00003402 0.88946000
v -0.16355800 -0.03064830 -0.06773510
v -0.20443900 -0.08177120 0.88946000
v -0.16037400 -0.03706020 -0.06773510
v -0.21468100 -0.05108880 0.88946000
f 1 2 3
f 144 167 166
f 144 149 167
f 144 166 145
f 142 160 162
f 140 165 161
f 140 164 165
f 140 163 164
f 140 162 163
f 140 142 162
f 139 160 143
f 139 159 160
f 139 158 159
f 145 166 146
f 139 157 158
f 138 151 139
f 137 156 153
f 137 155 156
f 137 150 155
f 137 154 152
f 137 153 154
f 136 154 151
f 136 152 154
f 136 137 152
f 136 151 138
f 134 150 137
f 134 135 150
f 139 151 157
f 146 168 169
f 146 169 170
f 146 166 168
f 166 186 187
f 165 185 179
f 165 184 185
f 165 183 184
f 165 180 183
f 163 182 180
f 163 181 182
f 163 178 181
f 163 165 164
f 163 180 165
f 161 165 179
f 160 163 162
f 160 178 163
f 160 177 178
f 158 160 159
f 158 177 160
f 157 177 158
f 157 173 177
f 156 176 174
f 156 175 176
f 153 156 174
f 153 174 154
f 151 174 173
f 151 154 174
f 151 173 157
f 148 171 172
f 147 171 148
f 133 149 144
f 166 187 168
f 131 147 148
f 130 170 171
f 111 127 112
f 111 126 127
f 109 133 126
f 109 117 133
f 108 122 124
f 107 141 123
f 107 125 141
f 107 124 125
f 107 108 124
f 106 122 108
f 105 122 106
f 104 134 121
f 112 127 128
f 104 119 134
f 104 121 122
f 102 120 119
f 102 103 120
f 101 110 118
f 100 110 101
f 99 117 109
f 98 118 110
f 98 116 118
f 97 116 98
f 97 115 116
f 97 114 115
f 97 113 114
f 104 122 105
f 112 128 129
f 112 129 146
f 112 146 130
f 130 146 170
f 129 145 146
f 127 129 128
f 127 145 129
f 127 144 145
f 126 133 144
f 126 144 127
f 125 160 141
f 125 143 160
f 125 139 143
f 124 139 125
f 123 142 140
f 123 160 142
f 123 141 160
f 122 139 124
f 122 138 139
f 122 136 138
f 121 137 136
f 121 134 137
f 121 136 122
f 120 135 134
f 119 120 134
f 113 132 114
f 113 148 132
f 113 131 148
f 112 147 131
f 112 130 147
f 130 171 147
f 95 97 96
f 166 167 188
f 168 187 169
f 217 231 222
f 217 218 231
f 216 232 218
f 216 220 232
f 214 230 215
f 214 229 230
f 214 222 229
f 207 230 223
f 207 215 230
f 204 227 209
f 204 226 227
f 204 238 226
f 218 232 241
f 204 237 238
f 204 236 225
f 204 224 236
f 204 223 224
f 203 223 204
f 203 207 223
f 203 208 207
f 202 217 222
f 201 221 220
f 201 219 221
f 200 219 201
f 200 212 219
f 200 213 212
f 204 225 237
f 218 241 231
f 220 221 233
f 220 233 232
f 242 243 245
f 241 242 245
f 238 244 239
f 238 242 244
f 238 243 242
f 236 238 237
f 236 243 238
f 236 245 243
f 236 240 245
f 235 240 236
f 234 240 235
f 233 242 241
f 232 233 241
f 231 245 240
f 231 241 245
f 231 240 234
f 230 234 235
f 229 234 230
f 228 238 239
f 227 238 228
f 226 238 227
f 225 236 237
f 224 235 236
f 223 235 224
f 223 230 235
f 222 231 234
f 222 234 229
f 199 218 217
f 166 188 186
f 199 216 218
f 198 201 220
f 182 197 213
f 182 184 183
f 182 199 184
f 182 216 199
f 182 198 216
f 181 197 182
f 181 194 197
f 180 182 183
f 179 214 195
f 179 196 214
f 179 185 196
f 177 181 178
f 182 213 200
f 177 194 181
f 176 193 194
f 175 193 176
f 175 192 193
f 173 176 177
f 173 174 176
f 171 191 172
f 171 190 191
f 169 171 170
f 169 190 171
f 169 210 190
f 169 189 210
f 169 187 189
f 176 194 177
f 182 200 201
f 182 201 198
f 184 202 196
f 196 222 214
f 196 202 222
f 195 207 206
f 195 215 207
f 195 214 215
f 193 212 213
f 193 197 194
f 193 213 197
f 192 212 193
f 190 211 191
f 190 228 211
f 190 210 228
f 189 227 210
f 189 209 227
f 189 204 209
f 189 205 204
f 188 208 203
f 188 207 208
f 188 206 207
f 187 205 189
f 186 188 203
f 186 205 187
f 186 204 205
f 186 203 204
f 184 217 202
f 184 199 217
f 184 196 185
f 198 220 216
f 95 113 97
f 210 227 228
f 95 112 131
f 21 156 155
f 21 175 156
f 21 192 175
f 21 212 192
f 21 219 212
f 21 221 219
f 21 233 221
f 21 242 233
f 21 244 242
f 21 239 244
f 21 228 239
f 21 211 228
f 21 155 150
f 21 191 211
f 21 148 172
f 21 132 148
f 21 114 132
f 21 115 114
f 21 116 115
f 21 118 116
f 21 101 118
f 21 82 101
f 21 63 82
f 21 40 63
f 21 41 40
f 20 40 41
f 21 172 191
f 21 150 135
f 21 135 120
f 21 120 103
f 26 89 107
f 26 71 89
f 26 72 71
f 26 51 72
f 26 52 51
f 25 53 47
f 25 29 53
f 24 51 52
f 24 50 51
f 24 49 50
f 24 69 49
f 24 48 69
f 24 46 48
f 23 64 43
f 23 47 64
f 23 46 24
f 23 48 46
f 23 45 48
f 23 44 45
f 23 43 44
f 22 42 29
f 21 42 22
f 21 29 42
f 21 53 29
f 21 68 53
f 21 86 68
f 21 103 86
f 20 39 40
f 26 107 123
f 19 38 39
f 19 34 37
f 7 15 18
f 6 30 15
f 6 17 30
f 6 28 17
f 6 16 28
f 5 16 6
f 3 25 10
f 3 14 25
f 3 5 4
f 3 13 5
f 3 12 13
f 3 11 12
f 7 18 19
f 3 24 11
f 2 14 3
f 2 9 14
f 1 9 2
f 1 8 9
f 1 20 8
f 1 7 20
f 1 15 7
f 1 6 15
f 1 5 6
f 1 4 5
f 1 3 4
f 95 131 113
f 3 10 24
f 7 19 39
f 7 39 20
f 8 20 41
f 18 36 33
f 18 35 36
f 18 34 19
f 18 57 34
f 18 33 57
f 17 54 30
f 17 32 54
f 17 31 32
f 17 28 31
f 15 35 18
f 15 30 35
f 14 29 25
f 14 22 29
f 13 28 16
f 12 28 13
f 12 27 28
f 11 27 12
f 11 26 27
f 11 52 26
f 11 24 52
f 10 47 23
f 10 25 47
f 10 23 24
f 9 21 22
f 9 22 14
f 8 21 9
f 8 41 21
f 19 37 38
f 26 123 140
f 5 13 16
f 26 161 179
f 74 95 96
f 74 94 95
f 74 93 94
f 74 90 93
f 74 92 75
f 73 91 90
f 73 79 91
f 73 90 74
f 71 106 89
f 71 88 106
f 70 88 71
f 69 88 70
f 74 96 97
f 69 87 88
f 68 86 83
f 67 85 69
f 67 102 85
f 67 84 102
f 66 84 67
f 66 83 84
f 65 67 69
f 64 68 83
f 62 82 63
f 62 81 82
f 61 100 81
f 61 80 100
f 69 85 87
f 74 97 98
f 74 98 110
f 74 110 92
f 94 111 112
f 26 140 161
f 94 112 95
f 93 126 111
f 93 109 126
f 93 111 94
f 91 99 109
f 90 109 93
f 90 91 109
f 89 108 107
f 89 106 108
f 87 106 88
f 85 119 104
f 85 102 119
f 85 105 87
f 85 104 105
f 84 103 102
f 84 86 103
f 83 86 84
f 82 100 101
f 81 100 82
f 80 110 100
f 80 92 110
f 79 99 91
f 78 99 79
f 77 99 78
f 75 92 80
f 60 77 76
f 58 60 76
f 87 105 106
f 57 75 80
f 35 60 58
f 35 59 60
f 35 55 59
f 35 58 36
f 34 57 37
f 33 58 56
f 33 36 58
f 33 56 57
f 30 55 35
f 30 54 55
f 27 31 28
f 26 31 27
f 26 32 31
f 26 54 32
f 26 55 54
f 26 59 55
f 26 60 59
f 26 77 60
f 26 99 77
f 26 133 117
f 26 149 133
f 26 167 149
f 26 188 167
f 26 206 188
f 26 179 195
f 57 80 61
f 26 195 206
f 37 57 61
f 37 61 81
f 26 117 99
f 37 62 38
f 56 77 78
f 37 81 62
f 56 79 73
f 56 76 77
f 56 58 76
f 56 75 57
f 56 78 79
f 56 73 74
f 49 51 50
f 49 72 51
f 49 71 72
f 49 70 71
f 49 69 70
f 48 65 69
f 56 74 75
f 47 53 68
f 38 62 63
f 47 68 64
f 38 40 39
f 43 64 83
f 43 66 45
f 43 45 44
f 43 83 66
f 45 65 48
f 45 66 67
f 45 67 65
f 38 63 40

