# https://github.com/mikedh/trimesh
v 0.27998800 0.50017500 0.07999670
v 0.28665500 0.48676000 0.10669400
v 0.41998200 0.48010100 0.10001900
v 0.27998800 0.50017500 -0.18006300
v -0.21999100 0.50017500 0.07999670
v 0.27332200 0.47344300 0.11336800
v 0.41331600 0.47344300 0.11336800
v -0.22665700 0.49341800 0.09334510
v 0.43007200 0.47011400 0.11003100
v 0.49007000 0.45013800 0.11003100
v 0.54015800 0.44015000 0.07999670
v 0.48016000 0.46012600 0.07999670
v 0.41998200 0.48010100 -0.18006300
v 0.23999000 0.50017500 -0.20003900
v 0.39998300 0.48010100 -0.20003900
v -0.21999100 0.50017500 -0.18006300
v -0.70015100 0.48010100 0.03999830
v -0.70681700 0.47344300 0.05334680
v 0.27998800 0.46012600 0.12004200
v 0.41998200 0.46012600 0.12004200
v -0.77348100 0.44680900 0.06664820
v -0.73348300 0.42673500 0.08667090
v -0.74681600 0.41341800 0.09334510
v -0.21999100 0.48010100 0.10001900
v 0.46016100 0.44015000 0.12004200
v 0.57006600 0.41008900 0.11003100
v 0.54682400 0.42673500 0.10669400
v 0.56682300 0.42673500 0.08667090
v 0.64682000 0.38678400 0.08667090
v 0.54015800 0.44015000 -0.18006300
v 0.48016000 0.46012600 -0.20003900
v 0.41998200 0.47510700 -0.20253000
v 0.39998300 0.46678400 -0.22673600
v 0.31998700 0.47344300 -0.23341000
v 0.23999000 0.48676000 -0.22673600
v -0.13999400 0.50017500 -0.20003900
v -0.64015400 0.48010100 -0.20003900
v -0.70015100 0.48010100 -0.18006300
v -0.80014700 0.46012600 0.03999830
v -0.80681300 0.45346700 0.05334680
v -0.31998700 0.42007600 0.12004200
v -0.62015400 0.28005100 0.16004000
v -0.54015800 0.22002600 0.18006300
v -0.43998200 0.16000100 0.20003900
v 0.43998200 0.26007500 0.16004000
v -0.17999200 0.16000100 0.20003900
v 0.13999400 0.08000060 0.22006100
v -0.78681400 0.43339400 0.07332240
v -0.76519300 0.41008900 0.09000800
v -0.76267100 0.40010100 0.09499020
v -0.74014900 0.40010100 0.10001900
v -0.72015000 0.36005200 0.12004200
v 0.54015800 0.40010100 0.12004200
v 0.59006500 0.39011300 0.11003100
v 0.63673000 0.37679600 0.09668220
v 0.64682000 0.38678400 -0.17338900
v 0.73024000 0.33008800 0.06998530
v 0.74357300 0.32343000 0.06331110
v 0.74681600 0.32675900 0.04667260
v 0.63348700 0.39344200 -0.18669000
v 0.55349000 0.43339400 -0.18669000
v 0.49349300 0.45346700 -0.20671300
v 0.46016100 0.45513200 -0.22255200
v 0.45007100 0.45013800 -0.23505500
v 0.43998200 0.45346700 -0.23341000
v 0.33007600 0.47011400 -0.23505500
v 0.31998700 0.46012600 -0.24008400
v -0.13999400 0.48676000 -0.22673600
v -0.14990400 0.49508300 -0.21005000
v -0.65006300 0.47510700 -0.21005000
v -0.71024100 0.47510700 -0.19002700
v -0.79023700 0.45513200 -0.21005000
v -0.78014800 0.46012600 -0.20003900
v -0.80014700 0.46012600 -0.18006300
v -0.81023700 0.45513200 -0.19002700
v -0.82681200 0.44680900 0.03999830
v -0.81528100 0.45013800 0.05000970
v -0.82266800 0.44015000 0.05499180
v -0.80519200 0.43006400 0.06998530
v -0.68015200 0.32010000 0.14001800
v -0.62015400 0.00000000 0.22006100
v -0.25998900 0.00000000 0.24008400
v 0.43998200 -0.26007500 0.16004000
v 0.58015600 0.36005200 0.12004200
v 0.56015700 0.38012500 0.12004200
v 0.05999750 0.00000000 0.24008400
v -0.80266900 0.42007600 0.07501450
v -0.76014800 0.38012500 0.10001900
v 0.64015400 0.36005200 0.10001900
v 0.72015000 0.32010000 0.07999670
v 0.74681600 0.32675900 -0.17338900
v 0.77690500 0.27672200 0.05668390
v 0.80357000 0.26340500 0.04333540
v 0.78681400 0.28671000 0.04667260
v 0.80681300 0.26673400 0.02664990
v 0.63006400 0.39011300 -0.20506800
v 0.73348300 0.33341700 -0.18669000
v 0.69348500 0.35339300 -0.20671300
v 0.55006700 0.43006400 -0.20506800
v 0.54015800 0.43505800 -0.20253000
v 0.53006800 0.43006400 -0.22504300
v 0.50015900 0.44514400 -0.21757000
v 0.49007000 0.45013800 -0.21503200
v 0.48016000 0.44680900 -0.22673600
v 0.43998200 0.44015000 -0.24008400
v 0.51006900 0.43006400 -0.23505500
v 0.50015900 0.42007600 -0.24008400
v -0.29998700 0.46012600 -0.24008400
v -0.29998700 0.47344300 -0.23341000
v -0.64015400 0.46678400 -0.22673600
v -0.80014700 0.44259800 -0.21503200
v -0.81023700 0.44514400 -0.21005000
v -0.82014600 0.44759200 -0.20003900
v -0.69024100 0.45513200 -0.23007300
v -0.74014900 0.44680900 -0.22673600
v -0.82681200 0.44680900 -0.18006300
v -0.86681100 0.40675900 0.01997570
v -0.84681200 0.42673500 0.03999830
v -0.84266800 0.42007600 0.05499180
v -0.80014700 0.40010100 0.07999670
v -0.84014500 0.40010100 0.06002100
v -0.70015100 0.00000000 0.18006300
v -0.71024100 -0.00998783 0.17503400
v -0.63006400 -0.00998783 0.21503200
v -0.73024000 -0.37003900 0.11501300
v -0.69024100 -0.33008800 0.13503500
v -0.68015200 -0.32010000 0.14001800
v -0.62015400 -0.28005100 0.16004000
v -0.54015800 -0.22002600 0.18006300
v -0.43998200 -0.16000100 0.20003900
v 0.46016100 -0.44015000 0.12004200
v 0.54015800 -0.40010100 0.12004200
v 0.56015700 -0.38012500 0.12004200
v 0.58015600 -0.36005200 0.12004200
v 0.13999400 -0.08000060 0.22006100
v 0.41998200 -0.46012600 0.12004200
v 0.72015000 -0.32010000 0.07999670
v 0.78014800 0.26007500 0.06002100
v 0.73024000 0.33008800 -0.20506800
v 0.80681300 0.26673400 -0.17338900
v 0.81348000 0.25341700 -0.20671300
v 0.79348000 0.25341700 0.05334680
v 0.80681300 0.24666000 0.04667260
v 0.89347600 0.13336700 -0.00662722
v 0.89023300 0.15001300 -0.00996433
v 0.88681000 0.16666000 -0.01330140
v 0.84681200 0.22668500 0.00662722
v 0.65006300 0.37003900 -0.22504300
v 0.61006500 0.39011300 -0.22504300
v 0.69024100 0.35006400 -0.21503200
v 0.59006500 0.39011300 -0.23505500
v 0.58015600 0.38012500 -0.24008400
v -0.68015200 0.44015000 -0.24008400
v -0.68015200 0.45346700 -0.23341000
v -0.76014800 0.42262200 -0.23505500
v -0.83347900 0.42673500 -0.21338700
v -0.83023600 0.43505800 -0.21005000
v -0.74014900 0.42007600 -0.24008400
v -0.86681100 0.40675900 -0.18006300
v -0.87527900 0.39011300 0.02998700
v -0.86771200 0.40010100 0.03999830
v -0.85528000 0.41008900 0.05000970
v -0.85347800 0.40010100 0.05334680
v -0.72681700 0.00000000 0.16671500
v -0.85023500 -0.41008900 0.05499180
v -0.81023700 -0.41008900 0.07501450
v -0.72015000 -0.36005200 0.12004200
v -0.79023700 -0.43006400 0.07501450
v -0.75023900 -0.41008900 0.09499020
v -0.23008000 -0.49008900 0.09499020
v -0.33007600 -0.43006400 0.11501300
v -0.31998700 -0.42007600 0.12004200
v 0.27998800 -0.46012600 0.12004200
v -0.17999200 -0.16000100 0.20003900
v 0.48016000 -0.44259800 0.11501300
v 0.52015900 -0.42262200 0.11501300
v 0.56015700 -0.40254900 0.11501300
v 0.58015600 -0.38257300 0.11501300
v 0.64015400 -0.36005200 0.10001900
v 0.41998200 -0.47344300 0.11336800
v 0.43998200 -0.46257400 0.11501300
v 0.73348300 -0.32675900 0.07332240
v 0.78014800 -0.26007500 0.06002100
v 0.64015400 -0.38257300 0.09499020
v 0.71024100 0.33008800 -0.22504300
v 0.81023700 0.25008700 -0.21503200
v 0.84681200 0.22668500 -0.17338900
v 0.85023500 0.21003800 -0.20506800
v 0.80681300 -0.23334300 0.04667260
v 0.90680900 0.10663500 -0.01330140
v 0.90356600 0.12328100 -0.01663860
v 0.90014300 0.14002500 -0.01997570
v 0.92032200 0.09997620 -0.03999830
v 0.88681000 0.16666000 -0.17338900
v 0.63006400 0.37003900 -0.23505500
v 0.62015400 0.36005200 -0.24008400
v -0.78014800 0.40010100 -0.24008400
v -0.86014400 0.38257300 -0.21503200
v -0.87023400 0.38511900 -0.21005000
v -0.87527900 0.38257300 -0.20003900
v -0.88014300 0.38012500 -0.18006300
v -0.89527800 0.35006400 0.02998700
v -0.86681100 0.38012500 0.04667260
v -0.89347600 0.34007600 0.03332410
v -0.89347600 -0.34007600 0.03332410
v -0.89023300 -0.35006400 0.03496920
v -0.86518900 -0.40010100 0.03750720
v -0.85347800 -0.41341800 0.04667260
v -0.81023700 -0.45013800 0.05499180
v -0.80014700 -0.44015000 0.06749420
v -0.82014600 -0.42007600 0.06749420
v -0.76014800 -0.42007600 0.08751690
v -0.74014900 -0.42673500 0.08667090
v -0.21999100 -0.49341800 0.09334510
v 0.27998800 -0.48676000 0.10669400
v 0.27007900 -0.47011400 0.11501300
v -0.21999100 -0.48010100 0.10001900
v -0.78014800 -0.44680900 0.06664820
v 0.54015800 -0.42673500 0.10669400
v 0.57006600 -0.40509500 0.11003100
v 0.43007200 -0.47510700 0.11003100
v 0.73024000 -0.33508200 0.06998530
v 0.79348000 -0.26673400 0.05334680
v 0.63006400 -0.39510700 0.09000800
v 0.80014700 0.24000200 -0.22753500
v 0.69024100 0.33008800 -0.23505500
v 0.85023500 0.19006300 -0.22504300
v 0.85347800 0.21336800 -0.18669000
v 0.89023300 0.15001300 -0.20506800
v 0.89347600 -0.14668400 -0.00662722
v 0.90680900 -0.09331770 -0.01330140
v 0.92032200 -0.09997620 -0.03999830
v 0.92032200 0.09997620 -0.18006300
v 0.89347600 0.15334300 -0.18669000
v 0.68015200 0.32010000 -0.24008400
v -0.82014600 0.34007600 -0.24008400
v -0.82014600 0.36259700 -0.23505500
v -0.87347700 0.36671000 -0.21338700
v -0.89347600 0.32675900 -0.21338700
v -0.89023300 0.34507000 -0.21005000
v -0.89527800 0.34252400 -0.20003900
v -0.90014300 0.34007600 -0.18006300
v -0.90014300 0.34007600 0.01997570
v -0.92032200 0.20005000 -0.01997570
v -0.92032200 -0.22002600 -0.01997570
v -0.90014300 -0.34007600 0.01997570
v -0.89347600 -0.35339300 0.02664990
v -0.87347700 -0.39344200 0.02664990
v -0.84681200 -0.42673500 0.03332410
v -0.82681200 -0.44680900 0.03332410
v -0.81348000 -0.45346700 0.04667260
v -0.80014700 -0.46012600 0.03999830
v -0.80014700 -0.45346700 0.05334680
v -0.71024100 -0.47011400 0.05499180
v -0.70015100 -0.47344300 0.05334680
v -0.21999100 -0.50017500 0.07999670
v 0.27998800 -0.50017500 0.07999670
v 0.29007800 -0.49508300 0.09000800
v 0.55006700 -0.43505800 0.09000800
v 0.54015800 -0.44015000 0.07999670
v 0.41998200 -0.48010100 0.10001900
v 0.74681600 -0.32675900 0.03999830
v 0.78681400 -0.28671000 0.03999830
v 0.79023700 -0.27505700 0.05000970
v 0.64682000 -0.38678400 0.07999670
v 0.85347800 -0.20670900 0.01330140
v 0.85023500 0.16998900 -0.23505500
v 0.83023600 0.19006300 -0.23505500
v 0.77023800 0.25008700 -0.23505500
v 0.86681100 0.16000100 -0.22673600
v 0.91023200 0.10996400 -0.20506800
v 0.89023300 -0.15500700 -0.00996433
v 0.90014300 -0.14002500 -0.01997570
v 0.91347500 -0.10663500 -0.02664990
v 0.92032200 -0.09997620 -0.18006300
v 0.88681000 -0.16666000 -0.01997570
v 0.89527800 -0.15001300 -0.19002700
v 0.92032200 0.08000060 -0.20003900
v 0.91527700 0.09997620 -0.20253000
v 0.91347500 0.11329300 -0.18669000
v 0.80014700 0.20005000 -0.24008400
v -0.84014500 0.28005100 -0.24008400
v -0.88014300 0.32010000 -0.22006100
v -0.90680900 0.27339200 -0.20671300
v -0.91347500 0.28671000 -0.19336400
v -0.92032200 0.28005100 -0.18006300
v -0.92032200 0.26007500 -0.14001800
v -0.92032200 -0.28005100 -0.16004000
v -0.88014300 -0.38012500 0.01997570
v -0.90014300 -0.34007600 -0.18006300
v -0.86681100 -0.40675900 0.01330140
v -0.82681200 -0.44680900 -0.18669000
v -0.70015100 -0.48010100 0.03999830
v -0.80014700 -0.46012600 -0.18006300
v -0.21999100 -0.50017500 -0.18006300
v 0.27998800 -0.50017500 -0.18006300
v 0.54015800 -0.44015000 -0.18006300
v 0.48016000 -0.46012600 0.07999670
v 0.41998200 -0.48010100 -0.18006300
v 0.80681300 -0.26673400 0.01997570
v 0.74681600 -0.32675900 -0.18006300
v 0.84681200 -0.22668500 0.00000000
v 0.85023500 -0.21503200 0.00996433
v 0.64682000 -0.38678400 -0.18006300
v 0.84014500 0.16000100 -0.24008400
v 0.87023400 0.13003800 -0.23505500
v 0.88681000 0.11995200 -0.22673600
v 0.91023200 0.08998840 -0.21503200
v 0.91527700 -0.10996400 -0.19002700
v 0.91527700 -0.08998840 -0.21005000
v 0.92032200 -0.08000060 -0.20003900
v 0.88681000 -0.16666000 -0.18006300
v 0.88771100 -0.16000100 -0.20003900
v 0.90680900 0.05992700 -0.22673600
v 0.91347500 0.08000060 -0.21338700
v -0.84014500 -0.26007500 -0.24008400
v -0.90680900 -0.28671000 -0.20671300
v -0.92032200 -0.28005100 -0.18006300
v -0.88014300 -0.38012500 -0.18006300
v -0.89023300 -0.35006400 -0.21005000
v -0.88681000 -0.36671000 -0.18669000
v -0.86681100 -0.40675900 -0.18669000
v -0.83023600 -0.43006400 -0.21005000
v -0.80681300 -0.44680900 -0.20671300
v -0.87023400 -0.39011300 -0.21005000
v -0.70015100 -0.48010100 -0.18006300
v -0.79023700 -0.45013800 -0.21005000
v -0.56015700 -0.48010100 -0.20003900
v -0.22665700 -0.48676000 -0.20671300
v 0.27332200 -0.48676000 -0.20671300
v 0.28665500 -0.49341800 -0.19336400
v 0.40665000 -0.47344300 -0.21338700
v 0.39998300 -0.48010100 -0.20003900
v 0.54268000 -0.43505800 -0.20003900
v 0.62267700 -0.39510700 -0.20003900
v 0.48016000 -0.46012600 -0.18006300
v 0.48250200 -0.45513200 -0.20003900
v 0.42250500 -0.47510700 -0.20003900
v 0.80681300 -0.26673400 -0.18006300
v 0.72267300 -0.33508200 -0.20003900
v 0.72519500 -0.33008800 -0.21005000
v 0.80519200 -0.25008700 -0.21005000
v 0.84681200 -0.22668500 -0.18006300
v 0.86014400 0.11995200 -0.24008400
v 0.90014300 0.08000060 -0.22753500
v 0.89023300 0.07001270 -0.23505500
v 0.90771000 -0.11995200 -0.20003900
v 0.89527800 -0.13003800 -0.21005000
v 0.90680900 -0.05992700 -0.22673600
v 0.85528000 -0.21003800 -0.19002700
v 0.87527900 -0.16998900 -0.21005000
v -0.82014600 -0.32010000 -0.24008400
v -0.88014300 -0.32010000 -0.22006100
v -0.89347600 -0.31344200 -0.21338700
v -0.79023700 -0.41008900 -0.23007300
v -0.86014400 -0.36005200 -0.22006100
v -0.78014800 -0.38012500 -0.24008400
v -0.70681700 -0.46678400 -0.20671300
v -0.76681500 -0.42673500 -0.22673600
v -0.70681700 -0.44680900 -0.22673600
v -0.75348200 -0.45346700 -0.21338700
v -0.55349000 -0.47344300 -0.21338700
v -0.38665100 -0.46678400 -0.22673600
v 0.35331900 -0.46678400 -0.22673600
v 0.43331500 -0.44680900 -0.22673600
v 0.46682700 -0.45346700 -0.21338700
v 0.42502700 -0.47011400 -0.21005000
v 0.54502200 -0.43006400 -0.21005000
v 0.58520100 -0.41008900 -0.21005000
v 0.48502500 -0.45013800 -0.21005000
v 0.62519900 -0.39011300 -0.21005000
v 0.68519700 -0.33008800 -0.23007300
v 0.78519200 -0.25008700 -0.23007300
v 0.64682000 -0.37336900 -0.21338700
v 0.84519000 -0.21003800 -0.21005000
v 0.88014300 0.05992700 -0.24008400
v 0.88014300 -0.05992700 -0.24008400
v 0.86681100 -0.14002500 -0.22673600
v 0.88266600 -0.08000060 -0.23505500
v 0.86266700 -0.17997700 -0.21503200
v -0.77690500 -0.39677200 -0.23674700
v -0.76014800 -0.40010100 -0.24008400
v -0.70015100 -0.42007600 -0.24008400
v -0.37998400 -0.44015000 -0.24008400
v 0.36665100 -0.45346700 -0.23341000
v 0.44664800 -0.43339400 -0.23341000
v 0.50682600 -0.41341800 -0.23341000
v 0.52682500 -0.43339400 -0.21338700
v 0.52502300 -0.41008900 -0.23007300
v 0.56502100 -0.39011300 -0.23007300
v 0.66681900 -0.33341700 -0.23341000
v 0.68267400 -0.32010000 -0.23505500
v 0.54682400 -0.39344200 -0.23341000
v 0.84266800 -0.16000100 -0.23505500
v 0.84519000 -0.16998900 -0.23007300
v 0.78267000 -0.24000200 -0.23505500
v 0.84014500 -0.14002500 -0.24008400
v 0.35998500 -0.44015000 -0.24008400
v 0.43998200 -0.42007600 -0.24008400
v 0.50015900 -0.40010100 -0.24008400
v 0.66015300 -0.32010000 -0.24008400
v 0.54015800 -0.38012500 -0.24008400
v 0.76014800 -0.24000200 -0.24008400
v 0.78014800 -0.22002600 -0.24008400
f 1 2 3
f 230 273 232
f 230 232 274
f 230 274 231
f 230 266 303
f 230 303 272
f 231 274 232
f 232 273 276
f 232 276 277
f 232 277 275
f 233 278 279
f 233 279 280
f 233 280 234
f 235 269 268
f 235 268 281
f 236 282 283
f 236 283 239
f 236 239 238
f 239 283 282
f 239 282 316
f 239 316 353
f 239 353 354
f 230 272 273
f 239 354 317
f 229 307 270
f 229 280 271
f 221 260 259
f 221 258 257
f 221 257 261
f 221 261 260
f 222 262 263
f 222 263 264
f 222 224 265
f 222 265 262
f 223 264 303
f 223 303 266
f 223 266 230
f 224 259 260
f 224 260 265
f 225 227 267
f 225 267 268
f 225 268 269
f 225 269 226
f 226 269 235
f 227 229 270
f 227 270 267
f 229 234 280
f 229 271 307
f 219 221 259
f 239 317 284
f 239 285 240
f 250 322 292
f 252 293 255
f 252 255 253
f 252 294 326
f 252 326 293
f 255 293 256
f 256 293 326
f 256 326 295
f 256 295 296
f 256 296 257
f 257 296 299
f 257 299 261
f 260 297 304
f 260 304 265
f 260 261 298
f 260 298 336
f 260 336 297
f 261 299 336
f 261 336 298
f 262 300 263
f 262 265 304
f 250 291 322
f 239 284 285
f 250 252 251
f 250 292 294
f 240 285 241
f 241 285 286
f 241 286 242
f 242 286 243
f 243 286 287
f 243 287 244
f 244 287 286
f 244 286 318
f 244 318 288
f 244 288 245
f 245 288 246
f 246 289 248
f 246 248 247
f 246 288 318
f 246 318 290
f 246 290 319
f 246 319 289
f 248 289 319
f 248 319 322
f 248 322 291
f 249 291 250
f 250 294 252
f 219 224 220
f 219 259 224
f 218 254 255
f 177 184 178
f 180 215 221
f 180 221 181
f 181 221 219
f 182 222 264
f 182 264 223
f 182 184 222
f 184 220 224
f 184 224 222
f 185 186 225
f 185 225 226
f 186 188 227
f 186 227 225
f 187 194 234
f 187 234 228
f 187 228 188
f 188 228 234
f 188 234 229
f 188 229 227
f 189 223 230
f 189 230 231
f 177 220 184
f 190 231 232
f 177 219 220
f 175 219 176
f 165 251 209
f 165 209 210
f 165 210 211
f 165 211 166
f 166 211 210
f 166 210 168
f 168 210 169
f 169 210 212
f 169 212 213
f 169 213 170
f 170 214 215
f 170 215 216
f 170 216 173
f 170 173 217
f 170 217 172
f 170 172 171
f 170 213 218
f 170 218 214
f 172 217 173
f 173 216 215
f 175 181 219
f 176 219 177
f 190 232 193
f 190 193 191
f 191 193 192
f 206 247 207
f 207 248 208
f 207 247 248
f 208 248 291
f 208 291 249
f 208 249 250
f 208 250 251
f 209 251 252
f 209 252 253
f 209 253 255
f 209 255 254
f 209 254 218
f 209 218 210
f 210 218 213
f 210 213 212
f 214 218 255
f 214 255 256
f 214 256 215
f 215 257 258
f 215 258 221
f 215 256 257
f 206 246 247
f 205 246 206
f 205 245 246
f 202 245 205
f 193 232 275
f 193 275 311
f 193 311 278
f 193 278 233
f 194 233 234
f 195 226 196
f 196 226 235
f 197 236 237
f 198 238 199
f 198 237 236
f 262 304 301
f 198 236 238
f 199 239 240
f 199 240 241
f 199 241 200
f 200 241 242
f 200 242 201
f 202 205 204
f 202 204 203
f 202 242 243
f 202 243 244
f 202 244 245
f 199 238 239
f 165 208 251
f 262 301 339
f 263 300 302
f 341 373 342
f 341 371 374
f 341 374 372
f 342 373 375
f 343 375 350
f 346 377 376
f 346 349 377
f 348 351 378
f 349 378 379
f 349 379 377
f 350 375 351
f 351 375 380
f 351 380 378
f 352 357 356
f 352 356 353
f 355 357 381
f 355 381 382
f 355 382 359
f 357 382 381
f 358 360 362
f 358 361 360
f 341 372 373
f 359 382 360
f 339 375 343
f 337 367 370
f 328 358 362
f 328 362 329
f 329 362 363
f 329 363 364
f 329 364 330
f 330 364 332
f 330 332 331
f 332 364 385
f 332 385 365
f 332 365 366
f 332 366 367
f 332 367 338
f 332 338 333
f 334 368 369
f 334 369 371
f 334 371 335
f 334 337 370
f 334 370 368
f 335 371 341
f 335 341 340
f 337 338 367
f 339 342 375
f 327 361 358
f 360 382 383
f 360 384 363
f 373 392 396
f 373 396 394
f 377 379 397
f 378 380 395
f 378 395 394
f 378 394 379
f 379 394 397
f 385 398 399
f 385 399 386
f 386 399 400
f 386 400 387
f 387 400 402
f 387 402 393
f 387 393 390
f 387 390 389
f 391 401 392
f 391 393 402
f 391 402 401
f 392 401 403
f 392 403 396
f 394 396 404
f 373 380 375
f 360 383 384
f 373 395 380
f 372 393 391
f 360 363 362
f 363 384 398
f 363 398 385
f 363 385 364
f 365 386 387
f 365 387 366
f 365 385 386
f 366 387 388
f 366 388 368
f 366 368 370
f 366 370 367
f 368 388 387
f 368 387 389
f 368 389 369
f 369 389 390
f 369 390 371
f 371 390 372
f 371 372 374
f 372 391 392
f 372 392 373
f 372 390 393
f 373 394 395
f 327 360 361
f 327 359 360
f 327 355 359
f 278 315 279
f 279 315 308
f 284 317 318
f 284 318 286
f 284 286 285
f 290 318 320
f 290 320 321
f 290 321 322
f 290 322 319
f 292 323 324
f 292 324 294
f 292 322 325
f 292 325 323
f 294 324 327
f 294 327 326
f 295 326 328
f 295 328 329
f 295 329 330
f 295 330 296
f 296 330 331
f 296 331 332
f 278 314 315
f 296 332 333
f 278 310 314
f 277 347 309
f 263 302 264
f 264 302 303
f 267 305 268
f 267 270 306
f 267 306 305
f 268 305 281
f 270 307 306
f 271 280 279
f 271 279 308
f 271 308 307
f 272 276 273
f 272 303 302
f 272 302 276
f 275 309 310
f 275 310 311
f 275 277 309
f 276 312 277
f 276 302 343
f 276 343 312
f 277 312 313
f 277 313 347
f 278 311 310
f 296 333 299
f 297 334 335
f 297 335 304
f 312 343 313
f 313 343 350
f 313 350 351
f 313 351 348
f 314 349 346
f 314 346 345
f 316 352 353
f 317 354 320
f 317 320 318
f 320 354 353
f 320 353 325
f 320 325 322
f 320 322 321
f 323 355 327
f 323 327 324
f 323 325 355
f 325 353 356
f 325 356 357
f 325 357 355
f 326 358 328
f 326 327 358
f 310 349 314
f 310 378 349
f 310 348 378
f 310 313 348
f 297 336 338
f 297 338 337
f 297 337 334
f 299 333 338
f 299 338 336
f 300 339 343
f 300 343 302
f 301 340 341
f 301 341 342
f 301 342 339
f 262 339 300
f 301 304 335
f 305 306 344
f 306 307 345
f 306 345 346
f 306 346 376
f 306 376 344
f 307 308 345
f 308 315 314
f 308 314 345
f 309 347 310
f 310 347 313
f 301 335 340
f 165 207 208
f 165 206 207
f 164 206 165
f 42 81 43
f 43 81 44
f 44 81 82
f 44 82 86
f 44 86 47
f 44 47 46
f 45 83 134
f 45 134 84
f 45 84 85
f 45 85 53
f 45 47 86
f 45 86 83
f 49 79 87
f 49 87 50
f 50 87 52
f 50 52 51
f 52 87 88
f 52 88 81
f 52 81 80
f 54 85 84
f 54 84 89
f 42 80 81
f 54 89 55
f 41 80 42
f 40 79 48
f 34 65 64
f 34 64 66
f 34 66 67
f 34 67 108
f 34 108 109
f 34 109 68
f 34 68 35
f 36 68 69
f 36 69 70
f 36 70 37
f 37 70 71
f 37 71 38
f 38 71 72
f 38 72 73
f 38 73 74
f 39 74 75
f 39 75 76
f 39 76 77
f 39 77 40
f 40 77 78
f 40 78 79
f 41 52 80
f 33 65 34
f 55 89 90
f 56 97 60
f 64 107 105
f 67 105 107
f 67 107 152
f 67 152 196
f 67 196 235
f 67 235 281
f 67 281 305
f 67 305 344
f 67 344 376
f 67 376 377
f 67 377 397
f 67 397 404
f 67 404 403
f 67 403 401
f 67 401 402
f 67 402 400
f 67 400 399
f 67 399 398
f 67 398 384
f 67 384 383
f 67 383 382
f 64 106 107
f 56 91 97
f 64 104 106
f 64 105 67
f 57 90 92
f 57 92 93
f 57 93 58
f 58 93 94
f 58 94 59
f 59 94 95
f 59 95 140
f 59 140 91
f 60 96 99
f 60 99 61
f 60 97 98
f 60 98 96
f 61 99 100
f 61 100 62
f 62 101 102
f 62 102 103
f 62 103 63
f 62 100 99
f 62 99 101
f 63 103 104
f 63 104 64
f 64 67 66
f 33 64 65
f 33 63 64
f 32 63 33
f 6 8 24
f 6 24 19
f 7 20 10
f 7 10 9
f 8 18 21
f 8 21 22
f 8 22 23
f 8 23 51
f 8 51 24
f 10 20 25
f 10 25 53
f 10 53 26
f 10 26 27
f 10 27 28
f 10 28 11
f 11 28 29
f 11 29 56
f 11 56 30
f 11 30 31
f 11 31 12
f 13 32 15
f 5 18 8
f 13 31 32
f 5 17 18
f 5 16 38
f 1 3 13
f 1 13 4
f 1 4 14
f 1 14 36
f 1 36 16
f 1 16 5
f 1 5 2
f 2 6 19
f 2 19 20
f 2 20 7
f 2 7 3
f 2 5 8
f 2 8 6
f 3 9 10
f 3 10 11
f 3 11 12
f 3 12 31
f 3 31 13
f 3 7 9
f 4 13 15
f 4 15 14
f 5 38 17
f 14 15 33
f 14 33 34
f 14 34 35
f 24 51 52
f 24 52 41
f 25 45 53
f 26 53 85
f 26 85 54
f 26 54 55
f 26 55 29
f 26 29 27
f 27 29 28
f 29 55 90
f 29 90 57
f 29 57 58
f 29 58 59
f 29 59 91
f 29 91 56
f 30 56 60
f 30 60 61
f 30 61 62
f 30 62 31
f 31 62 63
f 31 63 32
f 23 50 51
f 23 49 50
f 23 79 49
f 23 48 79
f 14 35 68
f 14 68 36
f 15 32 33
f 16 36 37
f 16 37 38
f 17 38 74
f 17 74 39
f 17 39 40
f 17 40 18
f 18 40 21
f 67 382 357
f 19 24 41
f 19 42 43
f 19 43 44
f 19 44 46
f 19 46 20
f 20 45 25
f 20 46 47
f 20 47 45
f 21 40 48
f 21 48 23
f 21 23 22
f 19 41 42
f 67 357 352
f 67 352 316
f 67 316 282
f 128 172 173
f 128 173 129
f 129 173 130
f 130 173 136
f 130 136 174
f 131 175 176
f 131 176 132
f 131 136 181
f 131 181 175
f 132 177 178
f 132 178 133
f 132 176 177
f 133 178 134
f 134 178 184
f 134 184 179
f 134 179 137
f 135 174 136
f 136 173 215
f 136 215 180
f 136 180 181
f 137 182 223
f 127 172 128
f 137 223 183
f 126 172 127
f 125 172 167
f 115 158 155
f 116 157 159
f 117 159 160
f 117 160 161
f 117 161 118
f 118 161 162
f 118 162 119
f 119 162 163
f 121 163 164
f 121 164 122
f 122 164 123
f 123 164 165
f 123 165 166
f 123 166 124
f 124 166 125
f 125 167 126
f 125 166 168
f 125 168 169
f 125 169 170
f 125 170 171
f 125 171 172
f 126 167 172
f 137 179 184
f 137 184 182
f 138 183 223
f 151 195 196
f 151 196 152
f 155 158 197
f 156 197 237
f 156 237 198
f 156 198 199
f 156 199 157
f 157 199 159
f 159 199 200
f 159 200 201
f 159 201 160
f 160 201 242
f 160 242 202
f 160 202 161
f 161 202 162
f 162 202 203
f 162 203 163
f 163 203 164
f 164 203 204
f 164 204 205
f 164 205 206
f 148 226 195
f 148 185 226
f 148 150 185
f 148 151 149
f 138 223 189
f 138 189 143
f 138 143 142
f 139 185 150
f 139 141 186
f 139 186 185
f 140 187 141
f 141 187 188
f 141 188 186
f 143 189 231
f 115 153 158
f 143 231 190
f 144 190 191
f 144 191 145
f 145 191 192
f 145 192 146
f 146 192 193
f 146 193 233
f 146 233 194
f 146 194 187
f 146 187 147
f 148 195 151
f 143 190 144
f 394 404 397
f 115 154 153
f 113 157 116
f 76 78 77
f 78 119 79
f 79 119 87
f 81 88 120
f 81 120 121
f 81 121 122
f 81 122 123
f 81 123 124
f 81 124 125
f 81 125 126
f 81 126 127
f 81 127 128
f 81 128 129
f 81 129 130
f 81 130 82
f 82 130 174
f 82 174 135
f 82 135 86
f 83 131 132
f 83 132 133
f 83 133 134
f 76 119 78
f 83 86 135
f 76 118 119
f 76 159 117
f 67 282 236
f 67 236 197
f 67 197 158
f 67 158 153
f 67 153 108
f 68 109 110
f 68 110 70
f 68 70 69
f 70 110 72
f 70 72 71
f 72 111 112
f 72 112 113
f 72 113 75
f 72 75 74
f 72 74 73
f 72 110 114
f 72 114 115
f 72 115 111
f 75 113 116
f 75 116 76
f 76 116 159
f 76 117 118
f 83 135 136
f 83 136 131
f 84 134 137
f 96 101 99
f 97 139 98
f 98 139 150
f 98 150 148
f 101 106 104
f 101 104 102
f 101 149 151
f 101 151 106
f 102 104 103
f 106 151 152
f 106 152 107
f 108 153 154
f 108 154 109
f 109 154 110
f 110 154 114
f 111 155 197
f 111 197 156
f 111 156 157
f 111 157 112
f 111 115 155
f 112 157 113
f 96 149 101
f 96 148 149
f 96 98 148
f 95 187 140
f 84 137 90
f 84 90 89
f 87 120 88
f 87 119 163
f 87 163 121
f 87 121 120
f 90 137 183
f 90 183 138
f 90 138 92
f 91 139 97
f 114 154 115
f 91 140 141
f 92 138 142
f 92 142 93
f 93 142 143
f 93 143 144
f 93 144 145
f 93 145 146
f 93 146 147
f 93 147 94
f 94 147 95
f 95 147 187
f 91 141 139
f 396 403 404

