o convex_0
v 0.717653 0 0.0175003
v 0.711892 0.01166 0.0116669
v 0.70599 0.02332 0.0233338
v 0.700228 0 0.245004
v 0.711892 -0.01166 0.0175003
v 0.717653 0 -0.0175003
v 0.711892 0.01166 -0.0233338
v 0.688565 0.0408409 0.0408341
v 0.688565 0.02332 0.250838
v 0.70599 0.02332 -0.0116669
v 0.688565 -0.02332 0.245004
v 0.665238 0 0.420165
v 0.70599 -0.02332 0.0175003
v 0.711892 -0.01166 -0.0175003
v 0.713297 -0.00869875 -0.0261716
v 0.695872 -0.00869875 -0.253833
v 0.700228 0 -0.245004
v 0.694327 0.01166 -0.250838
v 0.688565 0.02332 -0.239171
v 0.618584 0.110863 0.0583344
v 0.636009 0.0933419 0.0583344
v 0.688565 0.0408409 -0.0291672
v 0.618584 0.0933419 0.250838
v 0.653575 0.02332 0.425999
v 0.618584 -0.0933419 0.245004
v 0.618584 -0.110863 0.0525009
v 0.636009 -0.0933419 0.0525009
v 0.688565 -0.0408409 0.0350006
v 0.653575 -0.02332 0.420165
v 0.630248 0 0.542667
v 0.659336 -0.00579916 0.431832
v 0.70599 -0.02332 -0.0175003
v 0.688565 -0.02332 -0.245004
v 0.653575 -0.02332 -0.420165
v 0.660882 -0.00869875 -0.428837
v 0.665238 0 -0.420165
v 0.676902 0.01166 -0.338339
v 0.618584 0.0933419 -0.239171
v 0.618584 0.110863 -0.0466675
v 0.636009 0.0933419 -0.0466675
v 0.653575 0.02332 -0.414332
v 0.531038 0.198405 0.0583344
v 0.531038 0.180885 0.233338
v 0.618584 0.075821 0.338339
v 0.636009 0.0408409 0.425999
v 0.618584 0.0408409 0.4785
v 0.618584 0.02332 0.531
v 0.618584 -0.075821 0.332506
v 0.531038 -0.180885 0.227504
v 0.531038 -0.198405 0.0525009
v 0.618584 -0.110863 -0.0525009
v 0.688565 -0.0408409 -0.0350006
v 0.624346 -0.00579916 0.554334
v 0.621395 -0.013079 0.551339
v 0.636009 -0.0408409 0.420165
v 0.618584 0.00579916 0.566001
v 0.577692 0 0.68267
v 0.636009 -0.0933419 -0.0525009
v 0.618584 -0.0933419 -0.245004
v 0.636009 -0.0408409 -0.420165
v 0.625751 -0.00869875 -0.551339
v 0.618584 -0.075821 -0.332506
v 0.630248 0 -0.542667
v 0.659336 0.01166 -0.425999
v 0.618584 0.075821 -0.326673
v 0.531038 0.180885 -0.221671
v 0.531038 0.198405 -0.0466675
v 0.624346 0.01166 -0.548501
v 0.636009 0.0408409 -0.414332
v 0.519375 0.204205 0.0466675
v 0.507571 0.210065 0.0525009
v 0.490146 0.210065 0.140003
v 0.513473 0.198405 0.145836
v 0.507571 0.192545 0.227504
v 0.516424 0.183784 0.253833
v 0.531038 0.163364 0.320839
v 0.548463 0.128384 0.408498
v 0.583453 0.075821 0.4785
v 0.566029 0.0583001 0.583501
v 0.566029 0.0408409 0.636002
v 0.583453 0.02332 0.636002
v 0.531038 -0.163364 0.315006
v 0.516424 -0.188164 0.236333
v 0.516424 -0.205685 0.0611723
v 0.531038 -0.198405 -0.0525009
v 0.57179 -0.00579916 0.694337
v 0.56898 -0.013079 0.691499
v 0.566029 -0.0583001 0.577668
v 0.583453 -0.075821 0.472666
v 0.583453 -0.02332 0.630169
v 0.566029 -0.0408409 0.630169
v 0.548463 -0.128384 0.402665
v 0.566029 0.00579916 0.706004
v 0.554365 -0.00579916 0.729337
v 0.531038 -0.180885 -0.227504
v 0.583453 -0.075821 -0.472666
v 0.548463 -0.128384 -0.402665
v 0.566029 -0.0583001 -0.577668
v 0.566029 -0.0408409 -0.630169
v 0.583453 -0.02332 -0.630169
v 0.573336 -0.00869875 -0.691499
v 0.531038 -0.163364 -0.315006
v 0.577692 0 -0.68267
v 0.531038 0.163364 -0.309172
v 0.519375 0.169225 -0.320839
v 0.519375 0.186684 -0.233338
v 0.519375 0.204205 -0.0583344
v 0.566029 0.0583001 -0.571835
v 0.583453 0.075821 -0.466833
v 0.57179 0.01166 -0.688503
v 0.566029 0.0408409 -0.624336
v 0.548463 0.128384 -0.396674
v 0.455156 0.227586 0.0875016
v 0.507571 0.210065 -0.0525009
v 0.455156 0.210065 0.245004
v 0.481433 0.183784 0.323835
v 0.516424 0.166263 0.341335
v 0.516424 0.148804 0.411336
v 0.531038 0.128384 0.460999
v 0.531038 0.075821 0.618502
v 0.531038 0.0408409 0.706004
v 0.563078 0.0204205 0.685665
v 0.516424 -0.170643 0.323835
v 0.525136 -0.146583 0.402665
v 0.481433 -0.188164 0.306334
v 0.463868 -0.205685 0.253833
v 0.455156 -0.210065 0.245004
v 0.481433 -0.205685 0.201332
v 0.490146 -0.210065 0.140003
v 0.498858 -0.205685 0.148674
v 0.507571 -0.210065 0.0525009
v 0.507571 -0.210065 -0.0525009
v 0.519375 -0.204205 -0.0525009
v 0.490146 -0.210065 -0.140003
v 0.519375 -0.00579916 0.799339
v 0.516424 -0.013079 0.796501
v 0.542702 -0.0240604 0.717671
v 0.531038 -0.128384 0.455166
v 0.531038 -0.0408409 0.70017
v 0.531038 -0.075821 0.612669
v 0.531038 0.00579916 0.776005
v 0.519375 -0.186684 -0.227504
v 0.509819 -0.188164 -0.245004
v 0.531038 -0.128384 -0.455166
v 0.531038 -0.0408409 -0.70017
v 0.531038 -0.075821 -0.612669
v 0.52078 -0.00869875 -0.796501
v 0.519375 0 -0.799339
v 0.509819 -0.170643 -0.332506
v 0.509819 -0.153184 -0.402665
v 0.551414 0.00869875 -0.730914
v 0.56898 0.00869875 -0.695756
v 0.531038 0.128384 -0.449332
v 0.507571 0.170643 -0.334713
v 0.47258 0.188164 -0.317213
v 0.47258 0.192545 -0.297505
v 0.455156 0.210065 -0.245004
v 0.519375 0.134183 -0.460999
v 0.501809 0.151704 -0.425999
v 0.490146 0.153184 -0.439715
v 0.507571 0.192545 -0.227504
v 0.490146 0.210065 -0.140003
v 0.501809 0.204205 -0.145836
v 0.554365 0.01166 -0.723504
v 0.551414 0.0437405 -0.652084
v 0.516424 0.0787823 -0.634583
v 0.519375 0.0992027 -0.566001
v 0.350044 0.262566 0.0875016
v 0.420165 0.227586 0.192503
v 0.455156 0.227586 -0.0875016
v 0.4026 0.227586 0.245004
v 0.411312 0.218826 0.271334
v 0.446303 0.166263 0.446337
v 0.498858 0.148804 0.446337
v 0.516424 0.113762 0.533838
v 0.516424 0.0437405 0.7265
v 0.516424 0.0962414 0.586339
v 0.528087 0.0204205 0.755667
v 0.516424 -0.153184 0.393836
v 0.498858 -0.153184 0.428837
v 0.516424 -0.135663 0.463837
v 0.411312 -0.223206 0.253833
v 0.446303 -0.170643 0.428837
v 0.4026 -0.227586 0.245004
v 0.420165 -0.227586 0.192503
v 0.455156 -0.227586 0.0875016
v 0.455156 -0.227586 -0.0875016
v 0.455156 -0.210065 -0.245004
v 0.507571 -0.192545 -0.227504
v 0.516424 0.00869875 0.796501
v 0.507571 0 0.80533
v 0.525136 -0.0240604 0.752671
v 0.507571 -0.01166 0.799339
v 0.376322 -0.0481207 0.796501
v 0.481433 -0.0305998 0.779
v 0.498858 -0.0481207 0.7265
v 0.507571 -0.0415195 0.735171
v 0.516424 -0.0481207 0.708999
v 0.516424 -0.0831008 0.621498
v 0.490146 -0.192545 -0.262505
v 0.492254 -0.153184 -0.437666
v 0.52078 -0.131283 -0.463837
v 0.509819 -0.118143 -0.525167
v 0.512068 -0.0787823 -0.638998
v 0.512068 -0.0437405 -0.7265
v 0.513473 -0.01166 -0.799339
v 0.507571 0 -0.80533
v 0.516424 0.00869875 -0.800915
v 0.474829 -0.188164 -0.315006
v 0.332619 0.223206 -0.352214
v 0.455156 0.205685 -0.264712
v 0.385034 0.227586 -0.262505
v 0.420165 0.227586 -0.192503
v 0.516424 0.113762 -0.529582
v 0.498858 0.148804 -0.441922
v 0.507571 0.118143 -0.527374
v 0.47258 0.153184 -0.457373
v 0.420165 0.170643 -0.457373
v 0.519375 0.01166 -0.793505
v 0.516424 0.0437405 -0.722085
v 0.507571 0.0481207 -0.719878
v 0.507571 0.0831008 -0.632376
v 0.280063 0.280087 0.0700013
v 0.245073 0.280087 0.157503
v 0.350044 0.262566 -0.0875016
v 0.315054 0.245046 0.280005
v 0.332619 0.227586 0.332506
v 0.341332 0.218826 0.358835
v 0.428878 0.166263 0.463837
v 0.481433 0.148804 0.463837
v 0.498858 0.0962414 0.603997
v 0.446303 0.0787823 0.691499
v 0.498858 0.0262196 0.779
v 0.481433 -0.153184 0.446337
v 0.341332 -0.223206 0.341335
v 0.323766 -0.240665 0.288834
v 0.428878 -0.170643 0.446337
v 0.315054 -0.245046 0.280005
v 0.245073 -0.280087 0.157503
v 0.350044 -0.262566 0.0875016
v 0.350044 -0.262566 -0.0875016
v 0.420165 -0.227586 -0.192503
v 0.385034 -0.227586 -0.262505
v 0.387283 -0.223206 -0.280005
v 0.457263 -0.205685 -0.262505
v 0.493097 0.0204205 0.790667
v 0.501809 0.01166 0.799339
v 0.367609 -0.0349801 0.80533
v 0.463868 0.0262196 0.796501
v 0.393887 0.0437405 0.796501
v 0.367609 0.0349801 0.80533
v 0.367609 -0.0466401 0.799339
v 0.288776 -0.0656416 0.796501
v 0.350044 -0.0590404 0.787672
v 0.341332 -0.0656416 0.779
v 0.376322 -0.0656416 0.7615
v 0.428878 -0.0831008 0.691499
v 0.481433 -0.100622 0.603997
v 0.422273 -0.170643 -0.455166
v 0.474829 -0.153184 -0.455166
v 0.513473 -0.134183 -0.466833
v 0.334727 -0.223206 -0.350006
v 0.509819 -0.0831008 -0.630169
v 0.509819 -0.0481207 -0.717671
v 0.459512 -0.0437405 -0.7615
v 0.494502 -0.0262196 -0.779
v 0.474829 -0.0656416 -0.70017
v 0.441946 -0.0787823 -0.691499
v 0.373371 -0.0466401 -0.799339
v 0.367609 -0.0349801 -0.80533
v 0.443492 -0.0466401 -0.764338
v 0.338381 -0.064161 -0.781838
v 0.367609 0.0349801 -0.80533
v 0.376322 0.0437405 -0.800915
v 0.455156 0.0305998 -0.789879
v 0.490146 0.0305998 -0.772379
v 0.332619 0.210065 -0.402665
v 0.315054 0.223206 -0.369714
v 0.280063 0.240665 -0.334713
v 0.297488 0.240665 -0.317213
v 0.332619 0.227586 -0.332506
v 0.385034 0.223206 -0.282212
v 0.297488 0.245046 -0.297505
v 0.332619 0.245046 -0.245004
v 0.490146 0.100622 -0.597376
v 0.455156 0.153184 -0.474873
v 0.43759 0.153184 -0.492374
v 0.332619 0.170643 -0.527374
v 0.332619 0.188164 -0.474873
v 0.47258 0.0656416 -0.702377
v 0.43759 0.0831008 -0.684877
v 0.192517 0.297608 0.0875016
v 0.210083 0.297608 0.0175003
v 0.174952 0.297608 0.122502
v 0.157527 0.297608 0.140003
v 0.210083 0.280087 0.192503
v 0.245073 0.262566 0.262505
v 0.245073 0.280087 -0.157503
v 0.280063 0.280087 -0.0875016
v 0.280063 0.245046 0.315006
v 0.294678 0.242146 0.312168
v 0.312103 0.242146 0.294667
v 0.323766 0.218826 0.376336
v 0.341332 0.183784 0.481337
v 0.446303 0.148804 0.498838
v 0.306341 0.131283 0.638998
v 0.288776 0.113762 0.691499
v 0.393887 0.0612614 0.7615
v 0.376322 0.148804 0.551339
v 0.323766 0.148804 0.586339
v 0.428878 -0.153184 0.498838
v 0.306341 -0.223206 0.376336
v 0.332619 -0.227586 0.332506
v 0.411312 -0.170643 0.463837
v 0.306341 -0.240665 0.306334
v 0.280063 -0.245046 0.315006
v 0.245073 -0.262566 0.262505
v 0.210083 -0.280087 0.192503
v 0.157527 -0.297608 0.140003
v 0.174952 -0.297608 0.122502
v 0.192517 -0.297608 0.0875016
v 0.280063 -0.280087 0.0700013
v 0.280063 -0.280087 -0.0875016
v 0.245073 -0.280087 -0.157503
v 0.332619 -0.245046 -0.245004
v 0.297488 -0.245046 -0.297505
v 0.332619 -0.227586 -0.332506
v 0.280063 -0.0525009 0.80533
v 0.338381 0.0583001 0.793505
v 0.306341 0.0612614 0.796501
v 0.361707 0.0466401 0.799339
v 0.358756 0.0612614 0.779
v 0.280063 0.0525009 0.80533
v 0.280063 -0.064161 0.799339
v 0.174952 -0.0816818 0.799339
v 0.183805 -0.0831008 0.796501
v 0.245073 -0.075821 0.793505
v 0.262498 -0.0765613 0.787672
v 0.253785 -0.0831008 0.779
v 0.271351 -0.118143 0.691499
v 0.288776 -0.135663 0.638998
v 0.306341 -0.153184 0.586339
v 0.393887 -0.118143 0.621498
v 0.446303 -0.118143 0.586339
v 0.334727 -0.188164 -0.472666
v 0.334727 -0.170643 -0.525167
v 0.439838 -0.153184 -0.490166
v 0.332619 -0.210065 -0.402665
v 0.299737 -0.240665 -0.315006
v 0.317302 -0.223206 -0.367507
v 0.439838 -0.0831008 -0.68267
v 0.43759 -0.122523 -0.577668
v 0.443492 -0.116662 -0.589335
v 0.425927 -0.0816818 -0.694337
v 0.285825 -0.064161 -0.799339
v 0.280063 -0.0525009 -0.80533
v 0.373371 -0.064161 -0.764338
v 0.355946 -0.0992027 -0.694337
v 0.250834 -0.0816818 -0.781838
v 0.280063 0.0525009 -0.80533
v 0.288776 0.0612614 -0.800915
v 0.332619 0.0583001 -0.793505
v 0.385034 0.0481207 -0.789879
v 0.420165 0.0481207 -0.772379
v 0.455156 0.0481207 -0.754878
v 0.245073 0.227586 -0.402665
v 0.262498 0.245046 -0.332506
v 0.315054 0.192545 -0.472666
v 0.280063 0.245046 -0.315006
v 0.210083 0.280087 -0.210004
v 0.455156 0.135663 -0.527374
v 0.315054 0.153184 -0.579875
v 0.280063 0.188164 -0.509874
v 0.367609 0.100622 -0.684877
v 0.0874056 0.315129 0.0525009
v 0.210083 0.297608 -0.0175003
v 0.0699807 0.315129 0.0700013
v 0.0349903 0.315129 0.105002
v 0.0874056 0.297608 0.192503
v 0.139961 0.280087 0.262505
v 0.157527 0.280087 0.245004
v 0.210083 0.262566 0.297505
v 0.192517 0.297608 -0.105002
v 0.192517 0.262566 0.315006
v 0.297488 0.227586 0.367507
v 0.315054 0.192545 0.472666
v 0.288776 0.183784 0.516338
v 0.288776 0.148804 0.603997
v 0.262498 0.122523 0.68267
v 0.271351 0.0787823 0.779
v 0.297488 0.157565 0.577668
v 0.245073 -0.227586 0.402665
v 0.210083 -0.245046 0.367507
v 0.297488 -0.227586 0.367507
v 0.323766 -0.188164 0.481337
v 0.315054 -0.192545 0.472666
v 0.192517 -0.262566 0.315006
v 0.210083 -0.262566 0.297505
v 0.0349903 -0.315129 0.105002
v 0.0699807 -0.315129 0.0700013
v 0.157527 -0.280087 0.245004
v 0.139961 -0.280087 0.262505
v 0.0874056 -0.297608 0.192503
v 0.0874056 -0.315129 0.0525009
v 0.210083 -0.297608 0.0175003
v 0.210083 -0.297608 -0.0175003
v 0.192517 -0.297608 -0.105002
v 0.210083 -0.280087 -0.210004
v 0.280063 -0.245046 -0.315006
v 0.174952 -0.0700218 0.80533
v 0.250834 0.075821 0.793505
v 0.274161 0.064161 0.799339
v 0.16919 0.0816818 0.799339
v 0.174952 0.0700218 0.80533
v 0.0874056 -0.0933419 0.793505
v 0.0962586 -0.100622 0.779
v 0.166239 -0.118143 0.7265
v 0.183805 -0.153184 0.638998
v 0.166239 -0.170643 0.603997
v 0.271351 -0.153184 0.603997
v 0.271351 -0.188164 0.516338
v 0.315054 -0.192545 -0.472666
v 0.315054 -0.175024 -0.525167
v 0.320956 -0.169225 -0.536834
v 0.369717 -0.100622 -0.68267
v 0.262498 -0.245046 -0.332506
v 0.245073 -0.227586 -0.402665
v 0.282171 -0.240665 -0.332506
v 0.180854 -0.0816818 -0.799339
v 0.174952 -0.0700218 -0.80533
v 0.280063 -0.140044 -0.630169
v 0.262498 -0.122523 -0.68267
v 0.2684 -0.116662 -0.694337
v 0.262498 -0.157565 -0.595168
v 0.23341 -0.0992027 -0.746838
v 0.157527 -0.122523 -0.717671
v 0.163288 -0.116662 -0.729337
v 0.174952 0.0700218 -0.80533
v 0.183805 0.0787823 -0.800915
v 0.245073 0.075821 -0.793505
v 0.350044 0.0656416 -0.772379
v 0.385034 0.0656416 -0.754878
v 0.210083 0.245046 -0.367507
v 0.192517 0.227586 -0.437666
v 0.192517 0.262566 -0.315006
v 0.262498 0.192545 -0.507667
v 0.210083 0.262566 -0.297505
v 0.104971 0.297608 -0.192503
v 0.122536 0.297608 -0.175003
v 0.280063 0.153184 -0.597376
v 0.245073 0.188164 -0.527374
v 0.280063 0.118143 -0.684877
v 0.0874056 0.315129 -0.0350006
v -0.0874056 0.315129 0.105002
v 0.0349903 0.280087 0.315006
v 0.0699807 0.315129 -0.0525009
v 0.157527 0.262566 0.332506
v 0.192517 0.227586 0.437666
v 0.210083 0.245046 0.367507
v 0.245073 0.227586 0.402665
v 0.262498 0.192545 0.507667
v 0.262498 0.157565 0.595168
v 0.174952 0.157565 0.630169
v 0.245073 0.087481 0.770171
v 0.157527 0.175024 0.595168
v 0.192517 -0.227586 0.437666
v 0.262498 -0.192545 0.507667
v 0.157527 -0.262566 0.332506
v 0.0349903 -0.280087 0.315006
v -0.0874056 -0.315129 0.105002
v 0.0874056 -0.315129 -0.0350006
v 0.0699807 -0.315129 -0.0525009
v 0.122536 -0.297608 -0.175003
v 0.192517 -0.262566 -0.315006
v 0.210083 -0.262566 -0.297505
v 0.104971 -0.297608 -0.192503
v -0.227508 -0.0700218 0.80533
v -0.23622 -0.0787823 0.800915
v 0.174952 0.087481 0.787672
v 0.163288 0.110863 0.741004
v 0.0933076 0.0933419 0.793505
v -0.227508 0.0700218 0.80533
v -0.122536 -0.0933419 0.793505
v 0.0874056 -0.0992027 0.781838
v 0.00871246 -0.153184 0.673999
v 0.148674 -0.135663 0.691499
v 0.0874056 -0.210065 0.525167
v 0.157527 -0.210065 0.507667
v 0.166239 -0.205685 0.516338
v 0.113684 -0.153184 0.656498
v 0.262498 -0.192545 -0.507667
v 0.227508 -0.192545 -0.525167
v 0.210083 -0.245046 -0.367507
v 0.192517 -0.227586 -0.437666
v 0.0933076 -0.0992027 -0.781838
v 0.0816441 -0.0933419 -0.793505
v -0.227508 -0.0700218 -0.80533
v 0.157527 -0.175024 -0.595168
v 0.163288 -0.169225 -0.606835
v 0.174952 -0.157565 -0.630169
v 0.139961 -0.140044 -0.68267
v -0.227508 0.0700218 -0.80533
v -0.122536 0.0933419 -0.793505
v 0.0874056 0.0933419 -0.793505
v 0.174952 0.0816818 -0.799339
v 0.245073 0.0816818 -0.781838
v 0.262498 0.0831008 -0.772379
v 0.192517 0.210065 -0.490166
v 0.139961 0.210065 -0.507667
v 0.0699807 0.262566 -0.367507
v 0.122536 0.262566 -0.350006
v 0.0699807 0.280087 -0.297505
v 0.227508 0.192545 -0.525167
v -1.11022e-16 0.315129 -0.122502
v 0.262498 0.157565 -0.595168
v 0.245073 0.087481 -0.770171
v 0.262498 0.122523 -0.68267
v -0.139961 0.297608 0.192503
v -0.104971 0.297608 0.210004
v -0.122536 0.315129 0.0700013
v -0.0874056 0.280087 0.315006
v 0.0874056 0.227586 0.472666
v 0.0699807 0.262566 0.367507
v 0.157527 0.210065 0.507667
v 0.139961 0.140044 0.68267
v 0.157527 0.122523 0.717671
v 0.122536 0.192545 0.560168
v 0.0699807 -0.262566 0.367507
v 0.0874056 -0.227586 0.472666
v -0.0874056 -0.280087 0.315006
v -0.104971 -0.297608 0.210004
v -0.139961 -0.297608 0.192503
v -0.122536 -0.315129 0.0700013
v -1.11022e-16 -0.315129 -0.122502
v 0.0699807 -0.280087 -0.297505
v 0.122536 -0.262566 -0.350006
v -0.332619 -0.0525009 0.80533
v -0.341332 -0.0612614 0.800915
v -0.227508 -0.0816818 0.799339
v 0.0874056 0.105002 0.770171
v 0.0816441 0.0992027 0.781838
v -0.116634 0.0933419 0.793505
v -0.23341 0.0816818 0.799339
v -0.332619 0.0525009 0.80533
v -0.122536 -0.0992027 0.781838
v -0.0437028 -0.153184 0.673999
v -0.0524153 -0.157565 0.66517
v 0.0349903 -0.192545 0.577668
v 0.192517 -0.210065 -0.490166
v 0.139961 -0.210065 -0.507667
v 0.0699807 -0.262566 -0.367507
v -0.116634 -0.0992027 -0.781838
v 0.0874056 -0.105002 -0.770171
v -1.11022e-16 -0.140044 -0.70017
v -0.0524153 -0.157565 -0.66517
v -0.128298 -0.0933419 -0.793505
v -0.332619 -0.0525009 -0.80533
v -0.221746 -0.0816818 -0.799339
v 0.122536 -0.192545 -0.560168
v 0.0524153 -0.192545 -0.577668
v -0.332619 0.0525009 -0.80533
v -0.227508 0.0816818 -0.799339
v -0.122536 0.0992027 -0.781838
v -0.23622 0.0831008 -0.796501
v -0.131249 0.100622 -0.779
v 0.0874056 0.0992027 -0.781838
v 0.174952 0.087481 -0.787672
v 0.122536 0.192545 -0.560168
v 0.0699807 0.210065 -0.525167
v 0.0699807 0.227586 -0.472666
v -0.122536 0.262566 -0.367507
v -0.104971 0.280087 -0.297505
v 0.157527 0.175024 -0.595168
v -0.0349903 0.315129 -0.122502
v 0.157527 0.122523 -0.717671
v 0.174952 0.157565 -0.630169
v -0.157527 0.297608 0.175003
v -0.192517 0.280087 0.262505
v -0.122536 0.280087 0.297505
v -0.139961 0.315129 0.0350006
v -0.245073 0.297608 0.0875016
v -0.210083 0.297608 0.122502
v -0.210083 0.262566 0.332506
v -0.245073 0.227586 0.437666
v -0.192517 0.227586 0.455166
v -0.122536 0.245046 0.420165
v -0.122536 0.227586 0.472666
v 0.0874056 0.210065 0.525167
v 0.104971 0.157565 0.647669
v -0.122536 -0.227586 0.472666
v -0.210083 -0.262566 0.332506
v -0.122536 -0.280087 0.297505
v -0.122536 -0.245046 0.420165
v -0.192517 -0.227586 0.455166
v -0.245073 -0.227586 0.437666
v -0.157527 -0.297608 0.175003
v -0.192517 -0.280087 0.262505
v -0.245073 -0.297608 0.0875016
v -0.139961 -0.315129 0.0350006
v -0.210083 -0.297608 0.122502
v -0.0349903 -0.315129 -0.122502
v -0.104971 -0.280087 -0.297505
v -0.420165 -0.0349801 0.80533
v -0.428878 -0.0437405 0.800915
v -0.385034 -0.0583001 0.793505
v -0.332619 -0.064161 0.799339
v -0.227508 -0.087481 0.787672
v -0.332619 -0.0700218 0.787672
v -0.332619 -0.0816818 0.764338
v 0.0349903 0.192545 0.577668
v -1.11022e-16 0.140044 0.70017
v -0.128298 0.0992027 0.781838
v -0.0524153 0.157565 0.66517
v -0.338381 0.0816818 0.764338
v -0.390936 0.064161 0.781838
v -0.338381 0.064161 0.799339
v -0.198279 0.134183 0.694337
v -0.420165 0.0349801 0.80533
v -0.122536 -0.105002 0.770171
v -0.104971 -0.122523 0.735171
v -0.192517 -0.140044 0.68267
v -0.139961 -0.210065 0.525167
v -0.0699807 -0.192545 0.577668
v 0.0699807 -0.227586 -0.472666
v 0.0699807 -0.210065 -0.525167
v -0.122536 -0.262566 -0.367507
v -0.110873 -0.110863 -0.758505
v -0.192517 -0.140044 -0.68267
v -0.104971 -0.122523 -0.735171
v -0.0874056 -0.192545 -0.577668
v -0.122536 -0.105002 -0.770171
v -0.227508 -0.087481 -0.787672
v -0.420165 -0.0349801 -0.80533
v -0.326717 -0.064161 -0.799339
v -0.253785 -0.0787823 -0.796501
v -0.420165 0.0349801 -0.80533
v -0.332619 0.064161 -0.799339
v -0.341332 0.0656416 -0.796501
v -0.113684 0.118143 -0.744
v -0.0612682 0.153184 -0.673999
v -0.341332 0.0831008 -0.7615
v -0.20123 0.135663 -0.691499
v 0.0874056 0.105002 -0.770171
v 0.00871246 0.153184 -0.673999
v 0.0524153 0.192545 -0.577668
v -0.122536 0.227586 -0.472666
v -0.174952 0.262566 -0.350006
v -0.245073 0.227586 -0.437666
v -0.210083 0.262566 -0.332506
v -0.139961 0.297608 -0.192503
v 0.139961 0.140044 -0.68267
v -0.0699807 0.315129 -0.105002
v -0.210083 0.280087 0.245004
v -0.245073 0.262566 0.315006
v -0.262498 0.297608 0.0525009
v -0.139961 0.315129 -0.0175003
v -0.332619 0.280087 0.0700013
v -0.297488 0.280087 0.140003
v -0.262498 0.280087 0.192503
v -0.245073 0.280087 0.210004
v -0.367609 0.192545 0.472666
v -0.280063 0.210065 0.472666
v -0.210083 0.210065 0.507667
v -0.139961 0.210065 0.525167
v -0.245073 -0.262566 0.315006
v -0.210083 -0.210065 0.507667
v -0.280063 -0.210065 0.472666
v -0.367609 -0.192545 0.472666
v -0.210083 -0.280087 0.245004
v -0.332619 -0.280087 0.0700013
v -0.262498 -0.297608 0.0525009
v -0.245073 -0.280087 0.210004
v -0.262498 -0.280087 0.192503
v -0.297488 -0.280087 0.140003
v -0.139961 -0.315129 -0.0175003
v -0.0699807 -0.315129 -0.105002
v -0.139961 -0.297608 -0.192503
v -0.210083 -0.262566 -0.332506
v -0.174952 -0.262566 -0.350006
v -0.490146 -0.0174592 0.80533
v -0.498858 -0.0262196 0.800915
v -0.43759 -0.0481207 0.789879
v -0.4026 -0.0656416 0.772379
v -0.385034 -0.0700218 0.770171
v -0.332619 -0.087481 0.752671
v -0.0699807 0.192545 0.577668
v -0.104971 0.122523 0.735171
v -0.192517 0.140044 0.68267
v -0.355946 0.116662 0.676836
v -0.425927 0.064161 0.764338
v -0.531038 0.0291192 0.781838
v -0.425927 0.0466401 0.799339
v -0.490146 0.0174592 0.80533
v -0.350044 -0.122523 0.66517
v -0.332619 -0.140044 0.630169
v -0.122536 -0.227586 -0.472666
v -0.245073 -0.227586 -0.437666
v -0.332619 -0.140044 -0.630169
v -0.350044 -0.122523 -0.66517
v -0.332619 -0.087481 -0.752671
v -0.174952 -0.192545 -0.560168
v -0.227508 -0.192545 -0.542667
v -0.122536 -0.210065 -0.525167
v -0.285825 -0.075821 -0.793505
v -0.490146 -0.0174592 -0.80533
v -0.414263 -0.0466401 -0.799339
v -0.446303 -0.0437405 -0.796501
v -0.516424 -0.0262196 -0.796501
v -0.358756 -0.0612614 -0.796501
v -0.390936 -0.0583001 -0.793505
v -0.490146 0.0174592 -0.80533
v -0.420165 0.0466401 -0.799339
v -0.428878 0.0481207 -0.796501
v -0.4026 0.0590404 -0.787672
v -0.393887 0.0656416 -0.779
v -0.0524153 0.157565 -0.66517
v -0.131249 0.170643 -0.621498
v -0.0874056 0.192545 -0.577668
v -0.358756 0.118143 -0.673999
v -0.341332 0.135663 -0.638998
v -0.23622 0.188164 -0.551339
v -0.183805 0.188164 -0.568839
v -0.174952 0.192545 -0.560168
v -0.122536 0.210065 -0.525167
v -0.227508 0.192545 -0.542667
v -0.253785 0.223206 -0.446337
v -0.271351 0.240665 -0.376336
v -0.262498 0.245046 -0.367507
v -0.245073 0.262566 -0.315006
v -0.210083 0.297608 -0.140003
v -0.122536 0.315129 -0.0525009
v -0.280063 0.262566 0.280005
v -0.264746 0.258186 0.315006
v -0.262498 0.297608 -0.0350006
v -0.245073 0.297608 -0.105002
v -0.4026 0.262566 0.0525009
v -0.385034 0.262566 0.105002
v -0.420165 0.245046 0.175003
v -0.332619 0.280087 -0.0875016
v -0.385034 0.245046 0.245004
v -0.297488 0.262566 0.262505
v -0.387283 0.188164 0.472666
v -0.350044 0.157565 0.577668
v -0.332619 0.140044 0.630169
v -0.262498 -0.258186 0.317213
v -0.280063 -0.258186 0.299713
v -0.280063 -0.262566 0.280005
v -0.350044 -0.157565 0.577668
v -0.367609 -0.153184 0.579875
v -0.385034 -0.188164 0.474873
v -0.420165 -0.245046 0.175003
v -0.385034 -0.262566 0.105002
v -0.4026 -0.262566 0.0525009
v -0.332619 -0.280087 -0.0875016
v -0.262498 -0.297608 -0.0350006
v -0.297488 -0.262566 0.262505
v -0.385034 -0.245046 0.245004
v -0.245073 -0.297608 -0.105002
v -0.122536 -0.315129 -0.0525009
v -0.210083 -0.297608 -0.140003
v -0.245073 -0.262566 -0.315006
v -0.542702 0 0.80533
v -0.551414 -0.00869875 0.800915
v -0.525136 -0.02332 0.793505
v -0.507571 -0.0305998 0.789879
v -0.542702 -0.0305998 0.772379
v -0.43759 -0.0656416 0.754878
v -0.367609 -0.118143 0.667377
v -0.350044 0.122523 0.66517
v -0.367609 0.140044 0.612669
v -0.373371 0.134183 0.624336
v -0.443492 0.0816818 0.711837
v -0.439838 0.0656416 0.752671
v -0.495907 0.0466401 0.764338
v -0.512068 0.0437405 0.7615
v -0.547058 0.0262196 0.779
v -0.512068 0.0262196 0.796501
v -0.495907 0.0291192 0.799339
v -0.385034 -0.192545 -0.455166
v -0.332619 -0.192545 -0.490166
v -0.350044 -0.157565 -0.577668
v -0.262498 -0.245046 -0.367507
v -0.393887 -0.131283 -0.621498
v -0.376322 -0.113762 -0.673999
v -0.358756 -0.0787823 -0.7615
v -0.338381 -0.075821 -0.776005
v -0.542702 0 -0.80533
v -0.411312 -0.0612614 -0.779
v -0.545512 -0.0204205 -0.790667
v -0.481433 -0.0437405 -0.779
v -0.551414 -0.0262196 -0.779
v -0.490146 0.0291192 -0.799339
v -0.498858 0.0305998 -0.796501
v -0.542702 0.0240604 -0.787672
v -0.428878 0.0656416 -0.7615
v -0.376322 0.135663 -0.621498
v -0.358756 0.153184 -0.586339
v -0.271351 0.188164 -0.533838
v -0.341332 0.188164 -0.498838
v -0.393887 0.188164 -0.463837
v -0.367609 0.210065 -0.402665
v -0.271351 0.258186 -0.306334
v -0.253785 0.258186 -0.323835
v -0.280063 0.262566 -0.280005
v -0.299737 0.258186 0.280005
v -0.404848 0.223206 0.315006
v -0.387283 0.205685 0.402665
v -0.404848 0.188164 0.455166
v -0.507571 0.227586 0.0350006
v -0.455156 0.245046 0.0700013
v -0.4026 0.262566 -0.0700013
v -0.455156 0.227586 0.227504
v -0.367609 0.245046 -0.262505
v -0.4026 0.245046 -0.210004
v -0.420165 0.245046 -0.175003
v -0.43759 0.227586 0.262505
v -0.387283 0.240665 0.262505
v -0.509819 0.153184 0.472666
v -0.509819 0.135663 0.525167
v -0.527385 0.118143 0.560168
v -0.54481 0.100622 0.595168
v -0.387283 0.135663 0.612669
v -0.369717 0.153184 0.577668
v -0.332619 -0.223206 0.387214
v -0.420165 -0.223206 0.299713
v -0.297488 -0.258186 0.282212
v -0.385034 -0.135663 0.614876
v -0.542702 -0.100622 0.597376
v -0.507571 -0.135663 0.527374
v -0.507571 -0.153184 0.474873
v -0.4026 -0.188164 0.457373
v -0.455156 -0.245046 0.0700013
v -0.455156 -0.227586 0.227504
v -0.507571 -0.227586 0.0350006
v -0.4026 -0.262566 -0.0700013
v -0.420165 -0.245046 -0.175003
v -0.4026 -0.245046 -0.210004
v -0.367609 -0.245046 -0.262505
v -0.385034 -0.240665 0.264712
v -0.43759 -0.227586 0.262505
v -0.280063 -0.262566 -0.280005
v -0.259687 -0.259667 -0.312168
v -0.548463 0.01166 0.799339
v -0.55577 0.00869875 0.796501
v -0.566029 0 0.793505
v -0.560127 -0.013079 0.789879
v -0.551414 -0.0262196 0.774586
v -0.554365 -0.0466401 0.723504
v -0.525136 -0.0656416 0.702377
v -0.507571 -0.0481207 0.754878
v -0.455156 -0.0831008 0.702377
v -0.457263 0.0831008 0.70017
v -0.509819 0.0481207 0.752671
v -0.527385 0.0656416 0.70017
v -0.529492 0.0612614 0.708999
v -0.548463 0.0466401 0.729337
v -0.564483 0.0262196 0.7615
v -0.562375 0.013079 0.787672
v -0.399649 -0.189645 -0.45217
v -0.411312 -0.183784 -0.463837
v -0.385034 -0.175024 -0.507667
v -0.277112 -0.242146 -0.364669
v -0.367609 -0.210065 -0.402665
v -0.376322 -0.148804 -0.586339
v -0.533849 -0.0612614 -0.708999
v -0.463868 -0.0787823 -0.708999
v -0.411312 -0.166263 -0.516338
v -0.551414 -0.0962414 -0.603997
v -0.446303 -0.0612614 -0.7615
v -0.566029 -0.00579916 -0.793505
v -0.554365 0.00579916 -0.799339
v -0.551414 0.013079 -0.796501
v -0.542702 0.01166 -0.799339
v -0.516424 -0.0437405 -0.7615
v -0.56898 -0.0262196 -0.7615
v -0.56898 0.013079 -0.779
v -0.560127 0.0240604 -0.770171
v -0.560127 0.0415195 -0.735171
v -0.551414 0.0481207 -0.7265
v -0.533849 0.0305998 -0.779
v -0.498858 0.0481207 -0.7615
v -0.516424 0.0656416 -0.708999
v -0.446303 0.0831008 -0.708999
v -0.533849 0.100622 -0.603997
v -0.393887 0.170643 -0.516338
v -0.498858 0.153184 -0.481337
v -0.516424 0.153184 -0.463837
v -0.463868 0.188164 -0.393836
v -0.420165 0.192545 -0.420165
v -0.393887 0.223206 -0.323835
v -0.428878 0.223206 -0.288834
v -0.420165 0.227586 -0.280005
v -0.43759 0.227586 -0.262505
v -0.439838 0.223206 0.280005
v -0.439838 0.188164 0.420165
v -0.519375 0.221725 0.0350006
v -0.542702 0.210065 0.105002
v -0.507571 0.227586 -0.0350006
v -0.516424 0.223206 -0.043672
v -0.525136 0.210065 0.175003
v -0.455156 0.227586 -0.227504
v -0.455156 0.245046 -0.0700013
v -0.507571 0.210065 0.227504
v -0.542702 0.192545 0.262505
v -0.54481 0.153184 0.420165
v -0.527385 0.135663 0.507667
v -0.457263 0.188164 0.402665
v -0.527385 0.170643 0.385007
v -0.54481 0.118143 0.542667
v -0.566029 0.0933419 0.577668
v -0.547058 0.0962414 0.603997
v -0.43759 -0.223206 0.282212
v -0.455156 -0.188164 0.404714
v -0.551414 -0.0962414 0.599583
v -0.542702 -0.118143 0.544875
v -0.542702 -0.153184 0.422215
v -0.525136 -0.170643 0.387214
v -0.525136 -0.210065 0.175003
v -0.542702 -0.210065 0.105002
v -0.542702 -0.192545 0.262505
v -0.507571 -0.210065 0.227504
v -0.519375 -0.221725 0.0408341
v -0.507571 -0.227586 -0.0350006
v -0.455156 -0.245046 -0.0700013
v -0.455156 -0.227586 -0.227504
v -0.43759 -0.227586 -0.262505
v -0.277112 -0.259667 -0.294667
v -0.452205 -0.207166 -0.329668
v -0.382224 -0.207166 -0.399669
v -0.420165 -0.227586 -0.280005
v -0.573336 0.00869875 0.779
v -0.589355 0 0.746838
v -0.56898 -0.00869875 0.783415
v -0.57179 -0.01166 0.776005
v -0.56898 -0.0262196 0.757086
v -0.56898 -0.0612614 0.669584
v -0.562375 0.0656416 0.66517
v -0.564483 0.0612614 0.673999
v -0.583453 0.02332 0.735171
v -0.417214 -0.189645 -0.43467
v -0.428878 -0.183784 -0.446337
v -0.516424 -0.148804 -0.481337
v -0.56898 -0.0612614 -0.673999
v -0.516424 -0.131283 -0.533838
v -0.551414 -0.131283 -0.498838
v -0.56898 -0.0787823 -0.621498
v -0.589355 0.00579916 -0.746838
v -0.57179 0.00579916 -0.781838
v -0.583453 -0.02332 -0.741004
v -0.583453 -0.00579916 -0.758505
v -0.586405 0.013079 -0.744
v -0.583453 0.02332 -0.735171
v -0.56898 0.0305998 -0.744
v -0.56898 0.0656416 -0.656498
v -0.560127 0.0940822 -0.595168
v -0.542702 0.0940822 -0.612669
v -0.551414 0.100622 -0.586339
v -0.551414 0.135663 -0.481337
v -0.498858 0.135663 -0.533838
v -0.533849 0.153184 -0.446337
v -0.463868 0.205685 -0.323835
v -0.446303 0.223206 -0.271334
v -0.54481 0.188164 0.280005
v -0.566029 0.198405 0.105002
v -0.560127 0.192545 0.192503
v -0.542702 0.210065 -0.105002
v -0.566029 0.198405 -0.105002
v -0.463868 0.223206 -0.236333
v -0.516424 0.205685 -0.236333
v -0.507571 0.210065 -0.227504
v -0.525136 0.210065 -0.175003
v -0.566029 0.180885 0.262505
v -0.562375 0.135663 0.455166
v -0.562375 0.153184 0.385007
v -0.566029 0.110863 0.525167
v -0.583453 0.075821 0.595168
v -0.542702 -0.188164 0.282212
v -0.551414 -0.113762 0.547082
v -0.56898 -0.131283 0.459423
v -0.551414 -0.148804 0.424422
v -0.533849 -0.166263 0.389421
v -0.5368 -0.169225 0.37334
v -0.554365 -0.204205 0.110835
v -0.566029 -0.198405 0.0991684
v -0.554365 -0.186684 0.268338
v -0.519375 -0.221725 -0.0291672
v -0.542702 -0.210065 -0.105002
v -0.525136 -0.210065 -0.175003
v -0.507571 -0.210065 -0.227504
v -0.542702 -0.192545 -0.262505
v -0.455156 -0.210065 -0.315006
v -0.446303 -0.218826 -0.288834
v -0.463868 -0.201305 -0.341335
v -0.452205 -0.189645 -0.399669
v -0.420165 -0.192545 -0.420165
v -0.590761 0.00869875 0.744
v -0.595117 0 0.735171
v -0.589355 -0.01166 0.741004
v -0.586405 -0.00869875 0.748414
v -0.583453 -0.02332 0.729337
v -0.56898 -0.0787823 0.617083
v -0.583453 -0.075821 0.589335
v -0.573336 0.0612614 0.656498
v -0.601019 0.02332 0.68267
v -0.463868 -0.183784 -0.411336
v -0.533849 -0.148804 -0.463837
v -0.583453 -0.075821 -0.601002
v -0.56898 -0.131283 -0.463837
v -0.566029 -0.128384 -0.4785
v -0.595117 0 -0.735171
v -0.612682 0 -0.68267
v -0.60678 0.00579916 -0.694337
v -0.60397 0.013079 -0.691499
v -0.601019 -0.02332 -0.688503
v -0.601019 0.02332 -0.68267
v -0.583453 0.075821 -0.595168
v -0.560127 0.111603 -0.542667
v -0.560127 0.129062 -0.490166
v -0.56898 0.135663 -0.446337
v -0.542702 0.146583 -0.455166
v -0.542702 0.164104 -0.385007
v -0.551414 0.188164 -0.271334
v -0.533849 0.170643 -0.376336
v -0.601019 0.163364 0.0700013
v -0.583453 0.180885 0.140003
v -0.57179 0.186684 0.192503
v -0.551414 0.205685 -0.113673
v -0.56898 0.188164 -0.201332
v -0.57179 0.186684 -0.192503
v -0.583453 0.180885 -0.140003
v -0.601019 0.163364 -0.0700013
v -0.542702 0.192545 -0.262505
v -0.533849 0.205685 -0.183674
v -0.583453 0.163364 0.262505
v -0.583453 0.145843 0.350006
v -0.573336 0.148804 0.376336
v -0.573336 0.183784 0.201332
v -0.573336 0.131283 0.446337
v -0.584297 0.122523 0.437666
v -0.636009 0.02332 0.560168
v -0.56898 -0.113762 0.512081
v -0.57179 -0.134183 0.443499
v -0.554365 -0.151704 0.408498
v -0.554365 -0.169225 0.338339
v -0.57179 -0.186684 0.198337
v -0.583453 -0.180885 0.134169
v -0.601019 -0.163364 0.0641678
v -0.566029 -0.198405 -0.110835
v -0.57179 -0.151704 0.37334
v -0.566029 -0.180885 0.256671
v -0.560127 -0.192545 -0.192503
v -0.566029 -0.180885 -0.268338
v -0.533849 -0.166263 -0.393836
v -0.608326 0.00869875 0.691499
v -0.612682 0 0.68267
v -0.60678 -0.01166 0.688503
v -0.601019 -0.02332 0.676836
v -0.636009 -0.02332 0.554334
v -0.56898 -0.148804 -0.393836
v -0.583453 -0.128384 -0.425999
v -0.636009 -0.02332 -0.566001
v -0.647673 0 -0.560168
v -0.641911 0.00579916 -0.571835
v -0.63896 0.013079 -0.568839
v -0.636009 0.02332 -0.560168
v -0.583453 0.128384 -0.420165
v -0.56898 0.153184 -0.376336
v -0.560127 0.181625 -0.280005
v -0.566029 0.180885 -0.262505
v -0.653575 0.0933419 0.0700013
v -0.636009 0.110863 0.157503
v -0.618584 0.128384 0.210004
v -0.583453 0.163364 -0.262505
v -0.636009 0.110863 -0.157503
v -0.618584 0.128384 -0.210004
v -0.653575 0.0933419 -0.0700013
v -0.671 0.0408409 0.315006
v -0.671 0.02332 0.402665
v -0.618584 0.0933419 0.385007
v -0.601019 0.110863 0.402665
v -0.583453 0.128384 0.420165
v -0.653575 0.0408409 0.420165
v -0.671702 0.0174592 0.420165
v -0.643316 0.00869875 0.568839
v -0.583453 -0.128384 0.414332
v -0.618584 -0.128384 0.20417
v -0.583453 -0.163364 0.256671
v -0.636009 -0.110863 0.151669
v -0.653575 -0.0933419 0.0641678
v -0.601019 -0.163364 -0.0758347
v -0.583453 -0.180885 -0.145836
v -0.57179 -0.186684 -0.18667
v -0.583453 -0.145843 0.344173
v -0.583453 -0.163364 -0.268338
v -0.583453 -0.145843 -0.35584
v -0.551414 -0.166263 -0.358835
v -0.647673 0 0.560168
v -0.641911 -0.01166 0.566001
v -0.676902 -0.01166 0.408498
v -0.671 -0.02332 0.396674
v -0.653575 -0.0408409 0.414332
v -0.601019 -0.110863 -0.408498
v -0.653575 -0.0408409 -0.425999
v -0.671 -0.02332 -0.408498
v -0.682663 0 -0.402665
v -0.641911 0.01166 -0.560168
v -0.671 0.02332 -0.402665
v -0.653575 0.0408409 -0.420165
v -0.601019 0.110863 -0.402665
v -0.583453 0.145843 -0.350006
v -0.70599 0.02332 0.0525009
v -0.688565 0.0408409 0.157503
v -0.688565 0.02332 0.280005
v -0.671 0.0408409 -0.315006
v -0.688565 0.0408409 -0.157503
v -0.688565 0.02332 -0.280005
v -0.70599 0.02332 -0.0525009
v -0.695872 0.00869875 0.288834
v -0.678307 0.00869875 0.411336
v -0.618584 -0.0933419 0.379173
v -0.688565 -0.0408409 0.151669
v -0.671 -0.0408409 0.309172
v -0.688565 -0.02332 0.274172
v -0.70599 -0.02332 0.0466675
v -0.653575 -0.0933419 -0.0758347
v -0.636009 -0.110863 -0.163336
v -0.618584 -0.128384 -0.215837
v -0.671 -0.0408409 -0.320839
v -0.618584 -0.0933419 -0.39084
v -0.682663 0 0.402665
v -0.700228 0 0.280005
v -0.694327 -0.01166 0.285838
v -0.688565 -0.02332 -0.285838
v -0.700228 0 -0.280005
v -0.676902 0.01166 -0.402665
v -0.618584 0.0933419 -0.385007
v -0.711892 0.01166 0.0525009
v -0.713297 0.00869875 0.0611723
v -0.695872 0.0262196 0.166174
v -0.711892 0.01166 -0.0525009
v -0.717653 0 0.0525009
v -0.694327 -0.0291192 0.163336
v -0.711892 -0.01166 0.0583344
v -0.70599 -0.02332 -0.0583344
v -0.688565 -0.0408409 -0.163336
v -0.717653 0 -0.0525009
v -0.711892 -0.01166 -0.0466675
f 1 2 3
f 1 3 9
f 1 9 4
f 1 4 5
f 1 5 14
f 1 14 6
f 1 6 7
f 1 7 2
f 2 7 10
f 2 10 3
f 3 8 9
f 3 10 22
f 3 22 8
f 4 11 5
f 4 9 24
f 4 24 12
f 4 12 29
f 4 29 11
f 5 11 13
f 5 13 32
f 5 32 14
f 6 14 15
f 6 15 16
f 6 16 17
f 6 17 7
f 7 17 18
f 7 18 19
f 7 19 10
f 8 20 21
f 8 21 9
f 8 22 39
f 8 39 20
f 9 21 20
f 9 20 23
f 9 23 24
f 10 19 22
f 11 25 26
f 11 26 27
f 11 27 28
f 11 28 13
f 11 29 25
f 12 24 30
f 12 30 53
f 12 53 31
f 12 31 29
f 13 28 52
f 13 52 32
f 14 32 15
f 15 32 16
f 16 32 33
f 16 33 34
f 16 34 35
f 16 35 36
f 16 36 17
f 17 37 18
f 17 36 37
f 18 37 19
f 19 38 39
f 19 39 40
f 19 40 22
f 19 37 41
f 19 41 38
f 20 42 23
f 20 39 67
f 20 67 42
f 22 40 39
f 23 42 43
f 23 43 76
f 23 76 44
f 23 44 24
f 24 45 46
f 24 46 47
f 24 47 30
f 24 44 45
f 25 48 82
f 25 82 49
f 25 49 50
f 25 50 26
f 25 29 48
f 26 28 27
f 26 50 85
f 26 85 51
f 26 51 52
f 26 52 28
f 29 31 53
f 29 53 54
f 29 54 55
f 29 55 48
f 30 47 56
f 30 56 93
f 30 93 57
f 30 57 86
f 30 86 53
f 32 52 33
f 33 52 58
f 33 58 51
f 33 51 59
f 33 59 34
f 34 60 61
f 34 61 35
f 34 59 62
f 34 62 60
f 35 61 63
f 35 63 36
f 36 63 68
f 36 68 64
f 36 64 37
f 37 64 41
f 38 65 104
f 38 104 66
f 38 66 67
f 38 67 39
f 38 41 65
f 41 64 68
f 41 68 69
f 41 69 65
f 42 70 71
f 42 71 72
f 42 72 73
f 42 73 43
f 42 67 107
f 42 107 70
f 43 74 75
f 43 75 117
f 43 117 76
f 43 73 72
f 43 72 74
f 44 76 77
f 44 77 45
f 45 77 78
f 45 78 46
f 46 78 79
f 46 79 80
f 46 80 47
f 47 80 81
f 47 81 56
f 48 55 92
f 48 92 82
f 49 82 123
f 49 123 83
f 49 83 50
f 50 83 84
f 50 84 85
f 51 85 59
f 51 58 52
f 53 86 87
f 53 87 54
f 54 88 89
f 54 89 55
f 54 87 90
f 54 90 91
f 54 91 88
f 55 89 92
f 56 81 93
f 57 93 141
f 57 141 135
f 57 135 94
f 57 94 86
f 59 85 95
f 59 95 102
f 59 102 62
f 60 96 61
f 60 62 102
f 60 102 97
f 60 97 96
f 61 96 98
f 61 98 99
f 61 99 100
f 61 100 101
f 61 101 63
f 63 101 103
f 63 103 110
f 63 110 68
f 65 69 104
f 66 104 105
f 66 105 106
f 66 106 107
f 66 107 67
f 68 108 109
f 68 109 69
f 68 110 111
f 68 111 108
f 69 109 112
f 69 112 104
f 70 107 114
f 70 114 71
f 71 113 72
f 71 114 170
f 71 170 113
f 72 113 169
f 72 169 115
f 72 115 74
f 74 115 75
f 75 115 116
f 75 116 117
f 76 117 118
f 76 118 119
f 76 119 77
f 77 119 78
f 78 119 79
f 79 119 80
f 80 120 121
f 80 121 178
f 80 178 122
f 80 122 81
f 80 119 120
f 81 122 93
f 82 92 124
f 82 124 123
f 83 123 125
f 83 125 126
f 83 126 127
f 83 127 128
f 83 128 129
f 83 129 130
f 83 130 84
f 84 130 129
f 84 129 131
f 84 131 132
f 84 132 133
f 84 133 85
f 85 133 134
f 85 134 95
f 86 94 87
f 87 94 135
f 87 135 136
f 87 136 137
f 87 137 91
f 87 91 90
f 88 138 89
f 88 91 138
f 89 138 92
f 91 137 139
f 91 139 140
f 91 140 138
f 92 138 124
f 93 122 178
f 93 178 141
f 95 142 143
f 95 143 149
f 95 149 102
f 95 134 142
f 96 97 144
f 96 144 98
f 97 102 144
f 98 144 99
f 99 145 101
f 99 101 100
f 99 144 146
f 99 146 145
f 101 145 147
f 101 147 148
f 101 148 103
f 102 149 150
f 102 150 144
f 103 148 208
f 103 208 151
f 103 151 152
f 103 152 110
f 104 112 153
f 104 153 105
f 105 154 155
f 105 155 156
f 105 156 157
f 105 157 106
f 105 153 158
f 105 158 159
f 105 159 160
f 105 160 154
f 106 157 161
f 106 161 162
f 106 162 163
f 106 163 107
f 107 163 162
f 107 162 114
f 108 153 109
f 108 111 153
f 109 153 112
f 110 152 164
f 110 164 165
f 110 165 111
f 111 165 166
f 111 166 167
f 111 167 153
f 113 168 169
f 113 170 225
f 113 225 168
f 114 162 170
f 115 171 116
f 115 169 171
f 116 171 172
f 116 172 173
f 116 173 174
f 116 174 117
f 117 174 118
f 118 174 119
f 119 174 175
f 119 175 177
f 119 177 120
f 120 176 121
f 120 177 176
f 121 176 178
f 123 124 179
f 123 179 180
f 123 180 125
f 124 138 181
f 124 181 179
f 125 182 126
f 125 180 183
f 125 183 182
f 126 182 184
f 126 184 127
f 127 184 185
f 127 185 186
f 127 186 129
f 127 129 128
f 129 186 131
f 131 186 187
f 131 187 132
f 132 187 134
f 132 134 133
f 134 187 242
f 134 242 188
f 134 188 189
f 134 189 142
f 135 190 191
f 135 191 136
f 135 141 190
f 136 192 137
f 136 191 193
f 136 193 194
f 136 194 255
f 136 255 195
f 136 195 196
f 136 196 197
f 136 197 198
f 136 198 139
f 136 139 192
f 137 192 139
f 138 140 199
f 138 199 181
f 139 198 199
f 139 199 140
f 141 178 190
f 142 189 143
f 143 189 188
f 143 188 200
f 143 200 149
f 144 201 202
f 144 202 203
f 144 203 204
f 144 204 146
f 144 150 201
f 145 146 204
f 145 204 205
f 145 205 147
f 147 205 206
f 147 206 207
f 147 207 148
f 148 207 208
f 149 209 201
f 149 201 150
f 149 200 188
f 149 188 209
f 151 208 219
f 151 219 164
f 151 164 152
f 153 167 158
f 154 160 155
f 155 210 211
f 155 211 157
f 155 157 156
f 155 160 210
f 157 211 282
f 157 282 212
f 157 212 213
f 157 213 170
f 157 170 162
f 157 162 161
f 158 167 166
f 158 166 214
f 158 214 160
f 158 160 215
f 158 215 159
f 159 215 160
f 160 214 216
f 160 216 217
f 160 217 218
f 160 218 210
f 164 219 220
f 164 220 165
f 165 220 166
f 166 220 221
f 166 221 222
f 166 222 216
f 166 216 214
f 168 223 224
f 168 224 171
f 168 171 169
f 168 225 299
f 168 299 376
f 168 376 293
f 168 293 223
f 170 213 225
f 171 226 227
f 171 227 228
f 171 228 172
f 171 224 226
f 172 228 173
f 173 229 230
f 173 230 174
f 173 228 229
f 174 230 175
f 175 231 177
f 175 230 231
f 176 232 233
f 176 233 190
f 176 190 178
f 176 177 231
f 176 231 232
f 179 181 180
f 180 181 234
f 180 234 237
f 180 237 183
f 181 199 258
f 181 258 234
f 182 235 236
f 182 236 238
f 182 238 184
f 182 183 235
f 183 237 235
f 184 238 239
f 184 239 240
f 184 240 185
f 185 240 186
f 186 240 241
f 186 241 187
f 187 241 242
f 188 243 244
f 188 244 245
f 188 245 209
f 188 242 243
f 190 246 247
f 190 247 191
f 190 233 246
f 191 248 252
f 191 252 193
f 191 247 249
f 191 249 250
f 191 250 251
f 191 251 333
f 191 333 414
f 191 414 482
f 191 482 544
f 191 544 618
f 191 618 693
f 191 693 762
f 191 762 680
f 191 680 603
f 191 603 537
f 191 537 477
f 191 477 410
f 191 410 328
f 191 328 248
f 193 252 194
f 194 252 334
f 194 334 253
f 194 253 338
f 194 338 254
f 194 254 255
f 195 255 256
f 195 256 257
f 195 257 196
f 196 257 258
f 196 258 199
f 196 199 197
f 197 199 198
f 201 259 260
f 201 260 203
f 201 203 261
f 201 261 202
f 201 209 262
f 201 262 259
f 202 261 203
f 203 260 347
f 203 347 263
f 203 263 204
f 204 263 264
f 204 264 205
f 205 265 266
f 205 266 206
f 205 264 267
f 205 267 268
f 205 268 265
f 206 269 270
f 206 270 207
f 206 266 265
f 206 265 271
f 206 271 272
f 206 272 269
f 207 273 274
f 207 274 208
f 207 270 356
f 207 356 430
f 207 430 497
f 207 497 557
f 207 557 633
f 207 633 705
f 207 705 787
f 207 787 711
f 207 711 636
f 207 636 561
f 207 561 502
f 207 502 438
f 207 438 360
f 207 360 273
f 208 274 275
f 208 275 276
f 208 276 219
f 209 245 244
f 209 244 262
f 210 277 278
f 210 278 279
f 210 279 280
f 210 280 283
f 210 283 281
f 210 281 212
f 210 212 282
f 210 282 211
f 210 218 277
f 212 281 283
f 212 283 284
f 212 284 213
f 213 284 225
f 216 285 286
f 216 286 217
f 216 222 285
f 217 286 218
f 218 286 287
f 218 287 288
f 218 288 289
f 218 289 277
f 219 276 221
f 219 221 220
f 221 276 365
f 221 365 290
f 221 290 222
f 222 290 291
f 222 291 288
f 222 288 285
f 223 292 224
f 223 293 292
f 224 292 294
f 224 294 295
f 224 295 296
f 224 296 382
f 224 382 297
f 224 297 226
f 225 284 298
f 225 298 299
f 226 297 382
f 226 382 300
f 226 300 301
f 226 301 302
f 226 302 227
f 227 301 228
f 227 302 301
f 228 301 303
f 228 303 229
f 229 304 305
f 229 305 230
f 229 303 304
f 230 305 231
f 231 305 232
f 232 306 307
f 232 307 308
f 232 308 233
f 232 305 309
f 232 309 310
f 232 310 306
f 233 308 250
f 233 250 249
f 233 249 246
f 234 258 311
f 234 311 237
f 235 312 313
f 235 313 238
f 235 238 236
f 235 237 312
f 237 311 314
f 237 314 312
f 238 313 315
f 238 315 316
f 238 316 398
f 238 398 317
f 238 317 239
f 239 318 319
f 239 319 320
f 239 320 321
f 239 321 322
f 239 322 240
f 239 317 398
f 239 398 318
f 240 322 405
f 240 405 406
f 240 406 323
f 240 323 241
f 241 323 324
f 241 324 325
f 241 325 242
f 242 325 243
f 243 325 326
f 243 326 327
f 243 327 244
f 244 327 262
f 246 249 247
f 248 328 334
f 248 334 252
f 250 329 411
f 250 411 330
f 250 330 412
f 250 412 331
f 250 331 251
f 250 308 332
f 250 332 329
f 251 331 412
f 251 412 333
f 253 334 335
f 253 335 336
f 253 336 337
f 253 337 338
f 254 338 255
f 255 338 339
f 255 339 340
f 255 340 256
f 256 340 257
f 257 340 341
f 257 341 342
f 257 342 343
f 257 343 344
f 257 344 258
f 258 344 311
f 259 345 346
f 259 346 347
f 259 347 260
f 259 262 348
f 259 348 345
f 262 327 349
f 262 349 350
f 262 350 348
f 263 351 267
f 263 267 264
f 263 347 352
f 263 352 353
f 263 353 351
f 265 268 354
f 265 354 271
f 267 351 268
f 268 351 354
f 269 355 356
f 269 356 270
f 269 272 359
f 269 359 355
f 271 357 272
f 271 354 358
f 271 358 357
f 272 357 358
f 272 358 359
f 273 360 361
f 273 361 274
f 274 361 440
f 274 440 362
f 274 362 363
f 274 363 275
f 275 363 441
f 275 441 364
f 275 364 365
f 275 365 276
f 277 366 367
f 277 367 279
f 277 279 278
f 277 289 368
f 277 368 446
f 277 446 444
f 277 444 366
f 279 367 369
f 279 369 283
f 279 283 280
f 283 370 284
f 283 369 370
f 284 370 298
f 285 288 371
f 285 371 286
f 286 371 287
f 287 371 288
f 288 372 373
f 288 373 289
f 288 291 374
f 288 374 372
f 289 373 446
f 289 446 368
f 290 365 291
f 291 365 374
f 292 293 375
f 292 375 294
f 293 376 453
f 293 453 375
f 294 375 377
f 294 377 295
f 295 377 378
f 295 378 379
f 295 379 380
f 295 380 381
f 295 381 382
f 295 382 296
f 298 383 299
f 298 370 383
f 299 383 376
f 300 382 384
f 300 384 385
f 300 385 301
f 301 385 303
f 303 385 386
f 303 386 304
f 304 386 461
f 304 461 387
f 304 387 310
f 304 310 309
f 304 309 305
f 306 310 391
f 306 391 388
f 306 388 307
f 307 388 462
f 307 462 389
f 307 389 390
f 307 390 332
f 307 332 308
f 310 387 461
f 310 461 391
f 311 344 314
f 312 392 393
f 312 393 394
f 312 394 316
f 312 316 315
f 312 315 313
f 312 314 395
f 312 395 396
f 312 396 392
f 314 344 395
f 316 397 398
f 316 394 397
f 318 398 401
f 318 401 319
f 319 399 400
f 319 400 404
f 319 404 320
f 319 401 402
f 319 402 403
f 319 403 399
f 320 404 321
f 321 404 405
f 321 405 322
f 323 406 407
f 323 407 324
f 324 407 408
f 324 408 325
f 325 408 326
f 326 408 409
f 326 409 349
f 326 349 327
f 328 410 335
f 328 335 334
f 329 332 390
f 329 390 411
f 330 411 412
f 333 412 413
f 333 413 414
f 335 415 336
f 335 410 415
f 336 415 416
f 336 416 417
f 336 417 339
f 336 339 337
f 337 339 338
f 339 417 418
f 339 418 340
f 340 418 419
f 340 419 420
f 340 420 341
f 341 420 342
f 342 420 421
f 342 421 343
f 343 421 395
f 343 395 344
f 345 422 423
f 345 423 346
f 345 348 422
f 346 353 352
f 346 352 347
f 346 423 424
f 346 424 358
f 346 358 425
f 346 425 351
f 346 351 353
f 348 350 426
f 348 426 427
f 348 427 494
f 348 494 491
f 348 491 422
f 349 409 426
f 349 426 428
f 349 428 350
f 350 428 426
f 351 425 358
f 351 358 354
f 355 359 429
f 355 429 356
f 356 429 430
f 358 431 432
f 358 432 433
f 358 433 359
f 358 424 434
f 358 434 431
f 359 435 436
f 359 436 437
f 359 437 429
f 359 433 432
f 359 432 435
f 360 438 439
f 360 439 361
f 361 439 440
f 362 440 441
f 362 441 363
f 364 441 442
f 364 442 365
f 365 442 374
f 366 443 367
f 366 444 443
f 367 445 447
f 367 447 369
f 367 443 445
f 369 447 370
f 370 447 445
f 370 445 448
f 370 448 449
f 370 449 383
f 372 450 451
f 372 451 373
f 372 374 450
f 373 451 513
f 373 513 446
f 374 442 441
f 374 441 452
f 374 452 450
f 375 453 456
f 375 456 514
f 375 514 574
f 375 574 652
f 375 652 731
f 375 731 656
f 375 656 580
f 375 580 520
f 375 520 454
f 375 454 378
f 375 378 377
f 376 383 453
f 378 454 519
f 378 519 521
f 378 521 455
f 378 455 379
f 379 455 380
f 380 455 457
f 380 457 384
f 380 384 382
f 380 382 381
f 383 456 453
f 383 449 514
f 383 514 456
f 384 457 458
f 384 458 459
f 384 459 385
f 385 459 460
f 385 460 386
f 386 460 458
f 386 458 461
f 388 391 461
f 388 461 462
f 389 463 526
f 389 526 464
f 389 464 390
f 389 462 524
f 389 524 465
f 389 465 463
f 390 464 411
f 392 396 467
f 392 467 466
f 392 466 393
f 393 397 394
f 393 466 397
f 395 421 396
f 396 421 467
f 397 466 468
f 397 468 469
f 397 469 402
f 397 402 401
f 397 401 398
f 399 403 469
f 399 469 530
f 399 530 531
f 399 531 470
f 399 470 533
f 399 533 599
f 399 599 675
f 399 675 759
f 399 759 676
f 399 676 601
f 399 601 534
f 399 534 472
f 399 472 471
f 399 471 404
f 399 404 400
f 402 469 403
f 404 471 406
f 404 406 405
f 406 471 407
f 407 471 472
f 407 472 534
f 407 534 473
f 407 473 408
f 408 474 475
f 408 475 409
f 408 473 476
f 408 476 474
f 409 475 474
f 409 474 426
f 410 477 478
f 410 478 415
f 411 479 481
f 411 481 413
f 411 413 412
f 411 464 526
f 411 526 480
f 411 480 479
f 413 481 414
f 414 481 542
f 414 542 482
f 415 483 545
f 415 545 484
f 415 484 416
f 415 478 483
f 416 484 485
f 416 485 486
f 416 486 417
f 417 486 418
f 418 486 419
f 419 487 488
f 419 488 489
f 419 489 420
f 419 486 490
f 419 490 487
f 420 489 421
f 421 489 488
f 421 488 467
f 422 491 423
f 423 491 424
f 424 491 492
f 424 492 434
f 426 474 493
f 426 493 427
f 427 493 494
f 429 437 495
f 429 495 496
f 429 496 430
f 430 496 556
f 430 556 497
f 431 434 432
f 432 434 492
f 432 492 498
f 432 498 499
f 432 499 500
f 432 500 435
f 435 500 501
f 435 501 436
f 436 501 495
f 436 495 437
f 438 502 439
f 439 503 504
f 439 504 505
f 439 505 440
f 439 502 503
f 440 506 507
f 440 507 441
f 440 505 506
f 441 507 452
f 443 444 445
f 444 446 513
f 444 513 508
f 444 508 509
f 444 509 510
f 444 510 511
f 444 511 445
f 445 511 512
f 445 512 448
f 448 514 449
f 448 512 514
f 450 515 513
f 450 513 451
f 450 452 517
f 450 517 515
f 452 507 516
f 452 516 517
f 454 518 519
f 454 520 577
f 454 577 518
f 455 521 587
f 455 587 522
f 455 522 523
f 455 523 457
f 457 523 458
f 458 524 461
f 458 460 459
f 458 523 524
f 461 524 462
f 463 525 526
f 463 465 525
f 465 524 527
f 465 527 589
f 465 589 525
f 466 467 488
f 466 488 528
f 466 528 468
f 468 528 469
f 469 528 529
f 469 529 590
f 469 590 530
f 470 531 532
f 470 532 596
f 470 596 533
f 473 534 476
f 474 535 536
f 474 536 494
f 474 494 493
f 474 476 535
f 476 534 535
f 477 537 538
f 477 538 478
f 478 538 606
f 478 606 539
f 478 539 483
f 479 480 481
f 480 526 481
f 481 526 540
f 481 540 541
f 481 541 612
f 481 612 542
f 482 542 543
f 482 543 544
f 483 539 545
f 484 545 546
f 484 546 485
f 485 490 486
f 485 546 547
f 485 547 548
f 485 548 490
f 487 490 548
f 487 548 623
f 487 623 622
f 487 622 590
f 487 590 529
f 487 529 488
f 488 529 528
f 491 494 549
f 491 549 492
f 492 549 559
f 492 559 498
f 494 550 549
f 494 536 551
f 494 551 550
f 495 552 556
f 495 556 496
f 495 501 553
f 495 553 554
f 495 554 555
f 495 555 552
f 497 556 558
f 497 558 557
f 498 559 560
f 498 560 501
f 498 501 499
f 499 501 500
f 501 560 553
f 502 561 637
f 502 637 562
f 502 562 503
f 503 563 566
f 503 566 504
f 503 562 564
f 503 564 565
f 503 565 563
f 504 566 505
f 505 566 643
f 505 643 567
f 505 567 516
f 505 516 506
f 506 516 507
f 508 513 573
f 508 573 568
f 508 568 509
f 509 568 569
f 509 569 570
f 509 570 510
f 510 571 572
f 510 572 512
f 510 512 511
f 510 570 646
f 510 646 571
f 512 572 574
f 512 574 514
f 513 515 517
f 513 517 573
f 516 567 575
f 516 575 576
f 516 576 517
f 517 576 573
f 518 577 653
f 518 653 578
f 518 578 579
f 518 579 519
f 519 579 521
f 520 580 655
f 520 655 581
f 520 581 582
f 520 582 577
f 521 579 583
f 521 583 584
f 521 584 585
f 521 585 586
f 521 586 587
f 522 587 664
f 522 664 686
f 522 686 610
f 522 610 588
f 522 588 524
f 522 524 523
f 524 588 527
f 525 589 540
f 525 540 526
f 527 588 589
f 530 591 592
f 530 592 531
f 530 590 593
f 530 593 594
f 530 594 595
f 530 595 591
f 531 592 597
f 531 597 532
f 532 597 669
f 532 669 596
f 533 598 671
f 533 671 599
f 533 596 600
f 533 600 598
f 534 601 602
f 534 602 535
f 535 602 626
f 535 626 551
f 535 551 536
f 537 603 604
f 537 604 538
f 538 604 605
f 538 605 606
f 539 607 619
f 539 619 545
f 539 606 608
f 539 608 609
f 539 609 685
f 539 685 607
f 540 589 610
f 540 610 611
f 540 611 541
f 541 611 613
f 541 613 612
f 542 612 543
f 543 614 615
f 543 615 616
f 543 616 544
f 543 612 617
f 543 617 614
f 544 616 692
f 544 692 618
f 545 619 620
f 545 620 546
f 546 620 547
f 547 620 621
f 547 621 622
f 547 622 623
f 547 623 548
f 549 550 559
f 550 624 625
f 550 625 559
f 550 551 624
f 551 626 696
f 551 696 624
f 552 627 631
f 552 631 556
f 552 555 627
f 553 560 554
f 554 560 555
f 555 628 629
f 555 629 627
f 555 560 630
f 555 630 628
f 556 631 632
f 556 632 558
f 557 558 634
f 557 634 706
f 557 706 633
f 558 632 635
f 558 635 709
f 558 709 634
f 559 625 560
f 560 625 624
f 560 624 696
f 560 696 703
f 560 703 630
f 561 636 712
f 561 712 637
f 562 637 638
f 562 638 564
f 563 565 639
f 563 639 640
f 563 640 644
f 563 644 566
f 564 638 715
f 564 715 641
f 564 641 642
f 564 642 565
f 565 642 639
f 566 644 643
f 567 643 575
f 568 573 645
f 568 645 569
f 569 645 718
f 569 718 724
f 569 724 646
f 569 646 570
f 571 647 572
f 571 646 648
f 571 648 647
f 572 647 649
f 572 649 650
f 572 650 574
f 573 576 651
f 573 651 645
f 574 650 652
f 575 651 576
f 575 643 651
f 577 582 653
f 578 653 654
f 578 654 583
f 578 583 579
f 580 656 734
f 580 734 655
f 581 655 657
f 581 657 658
f 581 658 659
f 581 659 660
f 581 660 653
f 581 653 582
f 583 654 584
f 584 661 662
f 584 662 663
f 584 663 585
f 584 654 661
f 585 663 586
f 586 663 664
f 586 664 587
f 588 610 589
f 590 622 593
f 591 665 597
f 591 597 592
f 591 595 665
f 593 622 666
f 593 666 594
f 594 666 595
f 595 666 667
f 595 667 668
f 595 668 665
f 596 669 600
f 597 665 669
f 598 670 671
f 598 600 669
f 598 669 672
f 598 672 673
f 598 673 674
f 598 674 670
f 599 671 755
f 599 755 675
f 601 676 677
f 601 677 602
f 602 678 679
f 602 679 626
f 602 677 678
f 603 680 681
f 603 681 604
f 604 681 765
f 604 765 682
f 604 682 605
f 605 682 683
f 605 683 684
f 605 684 608
f 605 608 606
f 607 685 621
f 607 621 619
f 608 684 609
f 609 684 685
f 610 686 613
f 610 613 611
f 612 687 688
f 612 688 617
f 612 613 687
f 613 688 687
f 613 686 664
f 613 664 688
f 614 617 689
f 614 689 615
f 615 690 691
f 615 691 692
f 615 692 616
f 615 689 690
f 617 688 689
f 618 692 778
f 618 778 693
f 619 621 620
f 621 685 694
f 621 694 695
f 621 695 666
f 621 666 622
f 626 679 697
f 626 697 696
f 627 629 631
f 628 698 699
f 628 699 700
f 628 700 632
f 628 632 631
f 628 631 629
f 628 630 701
f 628 701 702
f 628 702 698
f 630 703 701
f 632 700 786
f 632 786 704
f 632 704 635
f 633 706 707
f 633 707 708
f 633 708 705
f 634 709 707
f 634 707 706
f 635 704 710
f 635 710 709
f 636 711 792
f 636 792 712
f 637 712 713
f 637 713 638
f 638 713 714
f 638 714 715
f 639 642 640
f 640 716 644
f 640 642 717
f 640 717 718
f 640 718 716
f 641 715 719
f 641 719 642
f 642 719 720
f 642 720 721
f 642 721 722
f 642 722 723
f 642 723 717
f 643 644 651
f 644 716 645
f 644 645 651
f 645 716 718
f 646 724 648
f 647 648 649
f 648 724 723
f 648 723 725
f 648 725 721
f 648 721 726
f 648 726 727
f 648 727 728
f 648 728 729
f 648 729 649
f 649 729 650
f 650 730 652
f 650 729 730
f 652 730 731
f 653 660 732
f 653 732 654
f 654 732 805
f 654 805 733
f 654 733 742
f 654 742 661
f 655 734 739
f 655 739 657
f 656 731 735
f 656 735 734
f 657 736 737
f 657 737 738
f 657 738 740
f 657 740 658
f 657 739 811
f 657 811 736
f 658 740 741
f 658 741 659
f 659 741 732
f 659 732 660
f 661 742 823
f 661 823 743
f 661 743 662
f 662 743 663
f 663 743 744
f 663 744 688
f 663 688 664
f 665 745 746
f 665 746 747
f 665 747 672
f 665 672 669
f 665 668 750
f 665 750 745
f 666 748 667
f 666 695 748
f 667 748 668
f 668 748 749
f 668 749 750
f 670 674 757
f 670 757 751
f 670 751 752
f 670 752 753
f 670 753 835
f 670 835 754
f 670 754 755
f 670 755 671
f 672 747 756
f 672 756 673
f 673 756 674
f 674 756 757
f 675 755 758
f 675 758 759
f 676 760 677
f 676 759 760
f 677 760 761
f 677 761 678
f 678 761 697
f 678 697 679
f 680 762 681
f 681 762 763
f 681 763 764
f 681 764 765
f 682 765 766
f 682 766 683
f 683 766 767
f 683 767 768
f 683 768 694
f 683 694 684
f 684 694 685
f 688 744 769
f 688 769 689
f 689 769 770
f 689 770 771
f 689 771 772
f 689 772 690
f 690 773 853
f 690 853 774
f 690 774 691
f 690 772 773
f 691 774 775
f 691 775 776
f 691 776 777
f 691 777 778
f 691 778 692
f 693 778 843
f 693 843 762
f 694 768 695
f 695 768 749
f 695 749 748
f 696 697 703
f 697 779 780
f 697 780 781
f 697 781 702
f 697 702 701
f 697 701 703
f 697 761 782
f 697 782 779
f 698 783 784
f 698 784 699
f 698 702 781
f 698 781 783
f 699 784 785
f 699 785 700
f 700 785 786
f 704 786 710
f 705 708 787
f 707 709 710
f 707 710 788
f 707 788 790
f 707 790 708
f 708 789 787
f 708 790 874
f 708 874 791
f 708 791 789
f 710 786 785
f 710 785 788
f 711 787 873
f 711 873 792
f 712 792 793
f 712 793 713
f 713 793 794
f 713 794 715
f 713 715 714
f 715 794 795
f 715 795 719
f 717 723 718
f 718 723 724
f 719 796 720
f 719 795 796
f 720 796 797
f 720 797 721
f 721 797 798
f 721 798 726
f 721 725 722
f 722 725 723
f 726 799 800
f 726 800 727
f 726 798 797
f 726 797 799
f 727 801 802
f 727 802 803
f 727 803 729
f 727 729 728
f 727 800 801
f 729 803 802
f 729 802 804
f 729 804 735
f 729 735 730
f 730 735 731
f 732 741 805
f 733 805 894
f 733 894 806
f 733 806 807
f 733 807 808
f 733 808 742
f 734 735 739
f 735 804 813
f 735 813 739
f 736 809 810
f 736 810 738
f 736 738 737
f 736 811 898
f 736 898 809
f 738 810 812
f 738 812 816
f 738 816 740
f 739 813 814
f 739 814 815
f 739 815 811
f 740 816 894
f 740 894 817
f 740 817 805
f 740 805 741
f 742 808 818
f 742 818 819
f 742 819 820
f 742 820 821
f 742 821 822
f 742 822 823
f 743 823 822
f 743 822 770
f 743 770 744
f 744 770 769
f 745 750 824
f 745 824 746
f 746 825 912
f 746 912 826
f 746 826 756
f 746 756 747
f 746 824 825
f 749 768 827
f 749 827 750
f 750 827 828
f 750 828 829
f 750 829 830
f 750 830 831
f 750 831 824
f 751 832 753
f 751 753 752
f 751 757 840
f 751 840 833
f 751 833 832
f 753 832 834
f 753 834 923
f 753 923 835
f 754 835 836
f 754 836 837
f 754 837 838
f 754 838 841
f 754 841 758
f 754 758 755
f 756 826 839
f 756 839 757
f 757 839 912
f 757 912 840
f 758 760 759
f 758 841 761
f 758 761 760
f 761 841 842
f 761 842 862
f 761 862 782
f 762 843 844
f 762 844 845
f 762 845 763
f 763 845 846
f 763 846 764
f 764 846 847
f 764 847 766
f 764 766 765
f 766 847 848
f 766 848 849
f 766 849 850
f 766 850 767
f 767 850 849
f 767 849 851
f 767 851 827
f 767 827 768
f 770 822 771
f 771 822 772
f 772 822 852
f 772 852 773
f 773 852 854
f 773 854 853
f 774 853 775
f 775 853 854
f 775 854 855
f 775 855 776
f 776 856 857
f 776 857 858
f 776 858 843
f 776 843 777
f 776 855 856
f 777 843 778
f 779 859 860
f 779 860 867
f 779 867 861
f 779 861 780
f 779 782 862
f 779 862 842
f 779 842 863
f 779 863 929
f 779 929 859
f 780 861 781
f 781 861 867
f 781 867 864
f 781 864 783
f 783 865 866
f 783 866 869
f 783 869 784
f 783 864 867
f 783 867 868
f 783 868 865
f 784 869 788
f 784 788 785
f 787 789 870
f 787 870 871
f 787 871 872
f 787 872 873
f 788 869 874
f 788 874 790
f 789 791 870
f 791 875 870
f 791 874 865
f 791 865 943
f 791 943 875
f 792 873 793
f 793 873 872
f 793 872 794
f 794 872 876
f 794 876 877
f 794 877 878
f 794 878 879
f 794 879 880
f 794 880 881
f 794 881 795
f 795 881 882
f 795 882 883
f 795 883 796
f 796 883 882
f 796 882 884
f 796 884 885
f 796 885 797
f 797 885 799
f 799 885 800
f 800 885 959
f 800 959 886
f 800 886 887
f 800 887 888
f 800 888 889
f 800 889 801
f 801 890 802
f 801 889 890
f 802 890 891
f 802 891 892
f 802 892 804
f 804 892 893
f 804 893 813
f 805 817 894
f 806 894 807
f 807 894 895
f 807 895 808
f 808 895 818
f 809 896 897
f 809 897 810
f 809 898 899
f 809 899 896
f 810 897 900
f 810 900 812
f 811 815 901
f 811 901 902
f 811 902 898
f 812 903 904
f 812 904 816
f 812 900 903
f 813 893 814
f 814 893 901
f 814 901 815
f 816 904 894
f 818 905 973
f 818 973 906
f 818 906 820
f 818 820 819
f 818 895 907
f 818 907 908
f 818 908 905
f 820 906 909
f 820 909 821
f 821 909 975
f 821 975 910
f 821 910 911
f 821 911 856
f 821 856 854
f 821 854 822
f 822 854 852
f 824 831 825
f 825 831 913
f 825 913 912
f 826 912 839
f 827 851 849
f 827 849 828
f 828 914 978
f 828 978 915
f 828 915 830
f 828 830 829
f 828 849 848
f 828 848 914
f 830 913 831
f 830 915 916
f 830 916 917
f 830 917 913
f 832 918 919
f 832 919 834
f 832 833 918
f 833 840 920
f 833 920 921
f 833 921 918
f 834 919 922
f 834 922 986
f 834 986 923
f 835 923 924
f 835 924 925
f 835 925 836
f 836 925 926
f 836 926 837
f 837 926 838
f 838 926 841
f 840 912 977
f 840 977 920
f 841 926 927
f 841 927 842
f 842 928 929
f 842 929 863
f 842 927 926
f 842 926 930
f 842 930 928
f 843 858 844
f 844 858 845
f 845 858 931
f 845 931 932
f 845 932 933
f 845 933 846
f 846 933 934
f 846 934 935
f 846 935 847
f 847 935 848
f 848 935 936
f 848 936 914
f 854 856 855
f 856 911 937
f 856 937 938
f 856 938 857
f 857 939 931
f 857 931 858
f 857 938 939
f 859 940 941
f 859 941 860
f 859 929 940
f 860 941 942
f 860 942 944
f 860 944 867
f 865 874 866
f 865 868 943
f 866 874 869
f 867 944 868
f 868 944 942
f 868 942 945
f 868 945 946
f 868 946 943
f 870 947 948
f 870 948 871
f 870 875 949
f 870 949 950
f 870 950 1010
f 870 1010 947
f 871 948 876
f 871 876 872
f 875 943 949
f 876 947 951
f 876 951 952
f 876 952 953
f 876 953 877
f 876 948 947
f 877 953 878
f 878 953 952
f 878 952 954
f 878 954 955
f 878 955 879
f 879 955 956
f 879 956 884
f 879 884 882
f 879 882 881
f 879 881 880
f 884 955 957
f 884 957 958
f 884 958 887
f 884 887 886
f 884 886 959
f 884 959 885
f 884 956 955
f 887 958 960
f 887 960 888
f 888 961 889
f 888 960 961
f 889 961 891
f 889 891 890
f 891 961 962
f 891 962 893
f 891 893 892
f 893 962 968
f 893 968 901
f 894 904 963
f 894 963 908
f 894 908 907
f 894 907 895
f 896 899 897
f 897 899 964
f 897 964 965
f 897 965 904
f 897 904 900
f 898 902 966
f 898 966 899
f 899 966 967
f 899 967 964
f 900 904 903
f 901 968 969
f 901 969 970
f 901 970 971
f 901 971 902
f 902 971 966
f 904 972 963
f 904 965 972
f 905 908 963
f 905 963 974
f 905 974 973
f 906 973 909
f 909 973 975
f 910 976 938
f 910 938 937
f 910 937 911
f 910 975 976
f 912 917 977
f 912 913 917
f 914 936 1001
f 914 1001 978
f 915 978 979
f 915 979 916
f 916 979 980
f 916 980 981
f 916 981 917
f 917 981 982
f 917 982 977
f 918 921 920
f 918 920 919
f 919 983 984
f 919 984 1048
f 919 1048 987
f 919 987 986
f 919 986 922
f 919 920 985
f 919 985 983
f 920 977 985
f 923 986 987
f 923 987 924
f 924 987 988
f 924 988 925
f 925 989 990
f 925 990 926
f 925 988 989
f 926 990 991
f 926 991 993
f 926 993 992
f 926 992 928
f 926 928 930
f 928 993 1005
f 928 1005 994
f 928 994 995
f 928 995 929
f 928 992 993
f 929 995 940
f 931 939 996
f 931 996 932
f 932 996 997
f 932 997 998
f 932 998 999
f 932 999 933
f 933 999 998
f 933 998 934
f 934 998 935
f 935 998 1000
f 935 1000 936
f 936 1000 1002
f 936 1002 1001
f 938 976 1003
f 938 1003 939
f 939 1003 976
f 939 976 1004
f 939 1004 1054
f 939 1054 996
f 940 995 994
f 940 994 1005
f 940 1005 941
f 941 1005 942
f 942 1005 1006
f 942 1006 945
f 943 946 1007
f 943 1007 949
f 945 1006 1059
f 945 1059 1008
f 945 1008 1009
f 945 1009 946
f 946 1009 1008
f 946 1008 1007
f 947 1010 1011
f 947 1011 1012
f 947 1012 1013
f 947 1013 951
f 949 1010 950
f 949 1007 1014
f 949 1014 1011
f 949 1011 1010
f 951 1013 1015
f 951 1015 952
f 952 1015 1016
f 952 1016 954
f 954 1016 955
f 955 1016 1017
f 955 1017 958
f 955 958 957
f 958 1018 1019
f 958 1019 1020
f 958 1020 960
f 958 1017 1018
f 960 1020 1021
f 960 1021 1022
f 960 1022 1023
f 960 1023 961
f 961 1023 1022
f 961 1022 962
f 962 1022 969
f 962 969 968
f 963 972 974
f 964 1024 1025
f 964 1025 1026
f 964 1026 965
f 964 967 1031
f 964 1031 1024
f 965 1026 972
f 966 971 1033
f 966 1033 1027
f 966 1027 967
f 967 1027 1028
f 967 1028 1029
f 967 1029 1030
f 967 1030 1031
f 969 1022 1032
f 969 1032 971
f 969 971 970
f 971 1032 1022
f 971 1022 1033
f 972 1034 1035
f 972 1035 1036
f 972 1036 974
f 972 1026 1037
f 972 1037 1034
f 973 1038 975
f 973 974 1036
f 973 1036 1038
f 975 1038 976
f 976 1038 1039
f 976 1039 1040
f 976 1040 1004
f 977 982 985
f 978 1001 1041
f 978 1041 979
f 979 1042 1043
f 979 1043 980
f 979 1041 1002
f 979 1002 1042
f 980 1043 982
f 980 982 981
f 982 1044 985
f 982 1043 1044
f 983 1045 984
f 983 985 1045
f 984 1045 1046
f 984 1046 1047
f 984 1047 1090
f 984 1090 1048
f 985 1044 1049
f 985 1049 1050
f 985 1050 1045
f 987 1048 1051
f 987 1051 990
f 987 990 988
f 988 990 989
f 990 1052 1053
f 990 1053 993
f 990 993 991
f 990 1051 1052
f 993 1053 1006
f 993 1006 1005
f 996 1054 1055
f 996 1055 997
f 997 1055 998
f 998 1055 1056
f 998 1056 1057
f 998 1057 1000
f 1000 1057 1002
f 1001 1002 1041
f 1002 1058 1042
f 1002 1057 1058
f 1004 1040 1054
f 1006 1053 1096
f 1006 1096 1059
f 1007 1008 1060
f 1007 1060 1061
f 1007 1061 1014
f 1008 1059 1060
f 1011 1062 1063
f 1011 1063 1012
f 1011 1014 1061
f 1011 1061 1062
f 1012 1063 1013
f 1013 1063 1064
f 1013 1064 1065
f 1013 1065 1015
f 1015 1065 1016
f 1016 1065 1066
f 1016 1066 1019
f 1016 1019 1018
f 1016 1018 1017
f 1019 1066 1067
f 1019 1067 1020
f 1020 1067 1022
f 1020 1022 1021
f 1022 1067 1068
f 1022 1068 1069
f 1022 1069 1028
f 1022 1028 1027
f 1022 1027 1033
f 1024 1070 1112
f 1024 1112 1071
f 1024 1071 1025
f 1024 1031 1076
f 1024 1076 1070
f 1025 1071 1072
f 1025 1072 1034
f 1025 1034 1037
f 1025 1037 1026
f 1028 1069 1073
f 1028 1073 1029
f 1029 1073 1030
f 1030 1074 1031
f 1030 1073 1075
f 1030 1075 1074
f 1031 1074 1115
f 1031 1115 1076
f 1034 1077 1078
f 1034 1078 1035
f 1034 1072 1077
f 1035 1078 1079
f 1035 1079 1080
f 1035 1080 1081
f 1035 1081 1036
f 1036 1081 1038
f 1038 1081 1039
f 1039 1081 1082
f 1039 1082 1040
f 1040 1082 1083
f 1040 1083 1084
f 1040 1084 1054
f 1042 1085 1049
f 1042 1049 1044
f 1042 1044 1043
f 1042 1058 1085
f 1045 1086 1046
f 1045 1050 1087
f 1045 1087 1086
f 1046 1086 1088
f 1046 1088 1047
f 1047 1088 1121
f 1047 1121 1089
f 1047 1089 1125
f 1047 1125 1090
f 1048 1090 1091
f 1048 1091 1092
f 1048 1092 1052
f 1048 1052 1051
f 1049 1093 1050
f 1049 1085 1093
f 1050 1093 1087
f 1052 1094 1095
f 1052 1095 1059
f 1052 1059 1096
f 1052 1096 1053
f 1052 1092 1091
f 1052 1091 1094
f 1054 1084 1097
f 1054 1097 1055
f 1055 1097 1098
f 1055 1098 1056
f 1056 1098 1057
f 1057 1098 1058
f 1058 1098 1099
f 1058 1099 1100
f 1058 1100 1101
f 1058 1101 1085
f 1059 1095 1060
f 1060 1102 1103
f 1060 1103 1061
f 1060 1095 1102
f 1061 1103 1104
f 1061 1104 1105
f 1061 1105 1062
f 1062 1105 1135
f 1062 1135 1106
f 1062 1106 1063
f 1063 1106 1065
f 1063 1065 1064
f 1065 1106 1135
f 1065 1135 1107
f 1065 1107 1108
f 1065 1108 1066
f 1066 1108 1109
f 1066 1109 1110
f 1066 1110 1067
f 1067 1110 1069
f 1067 1069 1068
f 1069 1110 1073
f 1070 1111 1112
f 1070 1076 1117
f 1070 1117 1111
f 1071 1112 1072
f 1072 1112 1113
f 1072 1113 1077
f 1073 1110 1107
f 1073 1107 1114
f 1073 1114 1075
f 1074 1075 1115
f 1075 1114 1116
f 1075 1116 1115
f 1076 1115 1117
f 1077 1113 1078
f 1078 1113 1118
f 1078 1118 1119
f 1078 1119 1083
f 1078 1083 1082
f 1078 1082 1079
f 1079 1082 1080
f 1080 1082 1081
f 1083 1119 1084
f 1084 1119 1130
f 1084 1130 1097
f 1085 1101 1120
f 1085 1120 1093
f 1086 1121 1088
f 1086 1087 1122
f 1086 1122 1123
f 1086 1123 1121
f 1087 1093 1100
f 1087 1100 1122
f 1089 1121 1124
f 1089 1124 1144
f 1089 1144 1125
f 1090 1125 1145
f 1090 1145 1126
f 1090 1126 1091
f 1091 1126 1127
f 1091 1127 1094
f 1093 1120 1100
f 1094 1127 1128
f 1094 1128 1104
f 1094 1104 1095
f 1095 1129 1102
f 1095 1104 1129
f 1097 1130 1099
f 1097 1099 1098
f 1099 1130 1131
f 1099 1131 1132
f 1099 1132 1123
f 1099 1123 1100
f 1100 1123 1122
f 1100 1120 1101
f 1102 1129 1103
f 1103 1129 1104
f 1104 1128 1133
f 1104 1133 1134
f 1104 1134 1105
f 1105 1134 1135
f 1107 1135 1116
f 1107 1116 1114
f 1107 1110 1136
f 1107 1136 1108
f 1108 1136 1109
f 1109 1136 1110
f 1111 1137 1138
f 1111 1138 1139
f 1111 1139 1112
f 1111 1117 1140
f 1111 1140 1137
f 1112 1139 1118
f 1112 1118 1113
f 1115 1116 1117
f 1116 1134 1140
f 1116 1140 1117
f 1116 1135 1134
f 1118 1139 1138
f 1118 1138 1141
f 1118 1141 1131
f 1118 1131 1130
f 1118 1130 1119
f 1121 1142 1143
f 1121 1143 1124
f 1121 1123 1132
f 1121 1132 1142
f 1124 1143 1147
f 1124 1147 1144
f 1125 1144 1145
f 1126 1145 1127
f 1127 1133 1128
f 1127 1145 1133
f 1131 1141 1143
f 1131 1143 1132
f 1132 1143 1142
f 1133 1145 1144
f 1133 1144 1146
f 1133 1146 1134
f 1134 1146 1140
f 1137 1141 1138
f 1137 1140 1146
f 1137 1146 1141
f 1141 1146 1147
f 1141 1147 1143
f 1144 1147 1146
