# https://github.com/mikedh/trimesh
v -0.23602900 0.12684400 0.48926100
v -0.48324400 0.11474600 0.53151400
v -0.48932800 0.09059010 0.54364700
v -0.47119300 0.07248270 0.54364700
v -0.45305900 0.03622890 0.54364700
v -0.23602900 -0.12681500 0.48926100
v -0.23602900 0.15100000 0.47712800
v -0.57380000 0.11474600 0.53151400
v -0.49535300 0.10268800 0.53758000
v -0.23602900 0.16910700 0.45903500
v -0.57988400 0.09059010 0.54364700
v -0.45305900 -0.03623960 0.54364700
v -0.48932800 -0.07245430 0.54364700
v -0.54361400 -0.09060070 0.54364700
v -0.23602900 -0.13918600 0.48308800
v -0.58590900 0.10268800 0.53758000
v -0.79129700 0.16910700 0.45903500
v -0.79129700 0.15100000 0.47712800
v -0.23602900 0.17234600 0.45264900
v -0.61609400 0.05433630 0.54364700
v -0.79732300 0.12684400 0.48926100
v -0.57988400 -0.07245430 0.54364700
v -0.58895100 -0.08154700 0.53907000
v -0.55268200 -0.09965440 0.53907000
v -0.54361400 -0.10265900 0.53758000
v -0.23602900 -0.15101100 0.47712800
v -0.80334800 0.13890200 0.48319400
v -0.79732300 0.18120500 0.43487500
v -0.80334800 0.17515600 0.44690200
v -0.81996200 0.15400500 0.46201500
v -0.23602900 0.19892200 0.39943400
v -0.63422900 0.01812160 0.54364700
v -0.81089500 0.13589800 0.48021400
v -0.82148300 0.12684400 0.47712800
v -0.79732300 -0.10870800 0.48926100
v -0.61609400 -0.03623960 0.54364700
v -0.77918800 -0.12681500 0.48926100
v -0.78825600 -0.13590800 0.48468400
v -0.77918800 -0.15101100 0.47712800
v -0.23602900 -0.15112800 0.47691500
v -0.78521400 0.19326400 0.41071500
v -0.77918800 0.19931200 0.39858200
v -0.81768000 0.17667800 0.41678200
v -0.81089500 0.17215100 0.44392200
v -0.81545700 0.16305900 0.45296800
v -0.82148300 0.16910700 0.43487500
v -0.82902900 0.15400500 0.44392200
v -0.82902900 0.13589800 0.46201500
v -0.23602900 0.19931200 0.39858200
v -0.63422900 0.00001419 0.54364700
v -0.82148300 -0.10870800 0.47712800
v -0.83359200 0.12684400 0.45296800
v -0.80639000 -0.11776200 0.48468400
v -0.79732300 -0.14496200 0.47787300
v -0.80639000 -0.15401600 0.46659100
v -0.79732300 -0.15702000 0.46510100
v -0.79732300 -0.18121600 0.41678200
v -0.23602900 -0.18121600 0.41678200
v -0.80334800 0.18725400 0.39858200
v -0.54361400 0.21745900 0.28991700
v -0.61609400 0.21745900 0.27182300
v -0.65236300 0.21745900 0.25362400
v -0.67049800 0.21745900 0.23553100
v -0.68857400 0.21745900 0.21743700
v -0.72484300 0.21745900 0.14495800
v -0.77918800 0.19931200 -0.45296800
v -0.82902900 0.17215100 0.40773500
v -0.81545700 0.18120500 0.39858200
v -0.82750800 0.17515600 0.39858200
v -0.83359200 0.14495100 0.43487500
v -0.36244400 0.21745900 0.16305200
v -0.38057900 0.21745900 0.19923800
v -0.39871300 0.21745900 0.21743700
v -0.43492400 0.21745900 0.25362400
v -0.47119300 0.21745900 0.27182300
v -0.52553800 0.21745900 0.28991700
v -0.23602900 0.19931200 -0.45296800
v -0.80639000 -0.13590800 0.47563800
v -0.83359200 -0.10870800 0.45296800
v -0.82902900 -0.12681500 0.45520300
v -0.82452500 -0.13590800 0.45754500
v -0.82452500 -0.15401600 0.43934500
v -0.80937400 -0.15702000 0.45903500
v -0.80937400 -0.17516700 0.42274200
v -0.82148300 -0.16911800 0.41071500
v -0.79732300 -0.18121600 -0.45296800
v -0.23602900 -0.18121600 -0.47106100
v -0.80334800 0.18725400 -0.45296800
v -0.82452500 0.17667800 -0.46201500
v -0.72484300 0.21745900 0.05427950
v -0.68857400 0.21745900 -0.01809320
v -0.67049800 0.21745900 -0.03618640
v -0.65236300 0.21745900 -0.05427950
v -0.61609400 0.21745900 -0.07247920
v -0.54361400 0.21745900 -0.09057230
v -0.23602900 0.19919500 -0.45328700
v -0.77918800 0.19326400 -0.46510100
v -0.79732300 0.18120500 -0.48926100
v -0.78825600 0.19478600 -0.46201500
v -0.83359200 0.16305900 0.39858200
v -0.82750800 0.17515600 -0.45296800
v -0.83359200 0.16305900 -0.45296800
v -0.36244400 0.21745900 0.05427950
v -0.47119300 0.21745900 -0.07247920
v -0.43492400 0.21745900 -0.05427950
v -0.38057900 0.21745900 0.00000000
v -0.83359200 -0.14496200 0.41678200
v -0.82902900 -0.14496200 0.43711000
v -0.82750800 -0.15702000 0.42274200
v -0.82148300 -0.16911800 -0.45903500
v -0.80639000 -0.17212300 -0.48021400
v -0.77918800 -0.18121600 -0.47106100
v -0.23602900 -0.18102100 -0.47148700
v -0.80639000 0.17667800 -0.49830800
v -0.82148300 0.16910700 -0.48926100
v -0.82902900 0.16532200 -0.47106100
v -0.23602900 0.17503900 -0.50160700
v -0.83359200 0.14495100 -0.48926100
v -0.83359200 -0.14496200 -0.47106100
v -0.82452500 -0.15401600 -0.49830800
v -0.81844100 -0.16611300 -0.47414800
v -0.80334800 -0.15101100 -0.51342100
v -0.80036500 -0.16611300 -0.49224100
v -0.78521400 -0.16911800 -0.49522100
v -0.77316300 -0.17516700 -0.48319400
v -0.23602900 -0.17516700 -0.48319400
v -0.79732300 0.16910700 -0.51342100
v -0.82452500 0.14947800 -0.51640100
v -0.82902900 0.14721500 -0.50735400
v -0.23602900 0.16910700 -0.51342100
v -0.83359200 0.12684400 -0.50735400
v -0.83359200 -0.12681500 -0.48926100
v -0.82452500 -0.13590800 -0.51640100
v -0.80036500 -0.12985900 -0.52853400
v -0.78521400 -0.13286400 -0.53151400
v -0.23602900 -0.15101100 -0.51342100
v -0.23602900 -0.16911800 -0.49522100
v -0.77918800 0.15100000 -0.53151400
v -0.80639000 0.13137100 -0.53449400
v -0.80937400 0.11474600 -0.53758000
v -0.82750800 0.13285400 -0.51938100
v -0.23602900 0.15100000 -0.53151400
v -0.82148300 0.10268800 -0.53151400
v -0.83359200 -0.10870800 -0.50735400
v -0.82148300 -0.09661050 -0.53151400
v -0.81844100 -0.11171300 -0.52853400
v -0.80639000 -0.11776200 -0.53449400
v -0.77918800 -0.10870800 -0.54364700
v -0.77316300 -0.12080600 -0.53758000
v -0.23602900 -0.12720600 -0.53438700
v -0.23602900 -0.13286400 -0.53151400
v -0.79732300 0.12910700 -0.53907000
v -0.77918800 0.12684400 -0.54364700
v -0.79732300 0.10869700 -0.54364700
v -0.23602900 0.12684400 -0.54364700
v -0.79732300 -0.09060070 -0.54364700
v -0.23602900 -0.10870800 -0.54364700
f 67 101 102
f 67 69 101
f 77 95 104
f 68 89 69
f 69 89 101
f 67 100 70
f 67 102 100
f 66 90 91
f 89 99 114
f 66 114 99
f 66 98 114
f 66 97 98
f 66 96 97
f 66 77 96
f 77 104 105
f 66 95 77
f 66 99 88
f 77 105 106
f 87 112 113
f 79 107 108
f 66 94 95
f 89 114 115
f 88 99 89
f 86 111 112
f 86 110 111
f 85 119 110
f 85 107 119
f 85 109 107
f 82 84 83
f 82 85 84
f 82 109 85
f 82 108 109
f 81 108 82
f 80 108 81
f 79 108 80
f 77 106 103
f 66 93 94
f 55 82 83
f 66 91 92
f 59 89 68
f 59 88 89
f 57 87 58
f 57 112 87
f 57 86 112
f 57 110 86
f 57 85 110
f 57 84 85
f 55 57 56
f 55 84 57
f 55 83 84
f 55 81 82
f 54 78 55
f 89 115 116
f 53 78 54
f 60 76 75
f 60 75 74
f 60 74 73
f 60 73 72
f 60 62 61
f 60 63 62
f 60 64 63
f 60 65 64
f 60 90 65
f 60 91 90
f 60 92 91
f 66 92 93
f 60 93 92
f 60 95 94
f 60 104 95
f 60 105 104
f 60 106 105
f 60 103 106
f 60 71 103
f 60 72 71
f 60 94 93
f 89 116 101
f 147 156 148
f 96 117 98
f 135 148 149
f 135 147 148
f 134 147 135
f 133 147 134
f 133 146 147
f 133 145 146
f 133 144 145
f 131 145 144
f 131 143 145
f 131 141 143
f 129 141 131
f 128 141 129
f 128 140 141
f 128 139 140
f 127 139 128
f 135 149 150
f 135 150 151
f 138 152 139
f 138 142 155
f 52 107 79
f 148 157 150
f 148 155 157
f 148 153 155
f 148 154 153
f 148 156 154
f 145 156 147
f 127 138 139
f 145 147 146
f 143 154 156
f 140 154 143
f 140 152 154
f 140 143 141
f 139 152 140
f 138 153 152
f 138 155 153
f 143 156 145
f 96 98 97
f 127 142 138
f 124 126 125
f 112 125 113
f 112 124 125
f 111 124 112
f 111 123 124
f 111 122 123
f 111 120 122
f 111 121 120
f 110 121 111
f 110 120 121
f 110 119 120
f 107 109 108
f 102 129 118
f 102 116 129
f 101 116 102
f 98 117 114
f 113 125 126
f 114 117 127
f 114 127 128
f 114 128 115
f 124 137 126
f 122 124 123
f 122 137 124
f 122 136 137
f 122 151 136
f 122 135 151
f 122 134 135
f 127 130 142
f 122 133 134
f 120 144 133
f 120 132 144
f 119 132 120
f 118 129 131
f 117 130 127
f 115 129 116
f 115 128 129
f 120 133 122
f 52 119 107
f 1 87 113
f 52 144 132
f 11 16 21
f 10 19 17
f 8 18 16
f 8 17 18
f 6 14 15
f 6 13 14
f 6 12 13
f 3 5 4
f 3 12 5
f 3 13 12
f 3 14 13
f 3 22 14
f 3 36 22
f 3 50 36
f 3 32 50
f 11 21 20
f 14 22 23
f 14 23 24
f 14 24 25
f 21 35 50
f 21 51 35
f 21 34 51
f 21 33 34
f 21 27 33
f 20 21 32
f 19 31 28
f 3 20 32
f 18 30 27
f 17 29 30
f 17 28 29
f 17 19 28
f 16 27 21
f 16 18 27
f 15 25 26
f 14 25 15
f 17 30 18
f 21 50 32
f 3 11 20
f 3 9 16
f 1 136 151
f 1 137 136
f 1 126 137
f 1 113 126
f 148 150 149
f 1 58 87
f 1 40 58
f 1 26 40
f 1 15 26
f 1 6 15
f 1 12 6
f 1 5 12
f 1 4 5
f 1 3 4
f 1 2 3
f 1 151 150
f 1 150 157
f 1 157 155
f 1 155 142
f 2 17 8
f 2 10 17
f 2 7 10
f 2 9 3
f 2 16 9
f 2 8 16
f 1 7 2
f 3 16 11
f 1 10 7
f 1 31 19
f 1 49 31
f 1 77 49
f 1 96 77
f 1 117 96
f 1 130 117
f 1 142 130
f 1 19 10
f 52 132 119
f 22 36 35
f 22 37 38
f 46 67 47
f 44 46 45
f 43 69 67
f 43 68 69
f 43 59 68
f 43 46 44
f 43 67 46
f 42 88 59
f 42 66 88
f 42 90 66
f 42 65 90
f 42 64 65
f 42 63 64
f 42 62 63
f 42 61 62
f 47 67 70
f 47 70 52
f 47 52 48
f 49 71 72
f 52 131 144
f 52 118 131
f 52 102 118
f 52 100 102
f 52 70 100
f 51 81 55
f 51 80 81
f 42 60 61
f 51 79 80
f 51 55 78
f 49 103 71
f 49 77 103
f 49 75 76
f 49 74 75
f 49 73 74
f 49 72 73
f 51 78 53
f 22 35 37
f 42 76 60
f 42 59 43
f 30 45 46
f 30 44 45
f 29 43 44
f 29 44 30
f 28 43 29
f 28 42 43
f 28 41 42
f 28 31 41
f 27 30 33
f 26 39 40
f 25 39 26
f 24 39 25
f 24 38 39
f 23 38 24
f 22 38 23
f 30 46 47
f 30 47 48
f 30 48 34
f 30 34 33
f 40 57 58
f 39 57 40
f 39 56 57
f 39 55 56
f 39 54 55
f 38 54 39
f 38 53 54
f 42 49 76
f 35 51 53
f 35 38 37
f 35 53 38
f 34 79 51
f 34 52 79
f 34 48 52
f 31 42 41
f 31 49 42
f 35 36 50
f 152 153 154

