o convex_0
v 0.503489 0.827235 0
v 0.497527 0.821193 0.0119877
v 0.52744 0.81521 0.00598859
v 0.518446 0.824184 -0.00298901
v 0.503489 0.827235 -0.0179763
v -0.503523 0.827235 0
v 0.461547 0.785237 0.047951
v 0.467509 0.773272 0.0539501
v 0.503489 0.809227 0.0179763
v -0.509485 0.821193 0.0119877
v 0.52744 0.216047 0.00598859
v 0.530369 0.216047 0.000242923
v 0.533507 0.803245 -0.00598859
v 0.530474 0.818201 -0.00898817
v 0.479537 0.767289 0.047951
v 0.521479 0.822688 -0.020226
v 0.503489 0.81521 -0.0419518
v -0.503523 0.827235 -0.0179763
v -0.530508 0.822688 -0.00898817
v -0.523709 0.822688 0
v -0.473505 0.785237 0.047951
v 0.467509 0.719308 0.0539501
v -0.467544 0.773272 0.0539501
v -0.517016 0.818201 0.00898817
v 0.479537 0.713325 0.047951
v 0.515517 0.216047 0.0119877
v 0.533507 0.216047 -0.00598859
v 0.533507 0.809227 -0.0119877
v 0.530474 0.818201 -0.0134875
v 0.516981 0.809227 -0.0382129
v 0.512484 0.800253 -0.0494508
v -0.503523 0.81521 -0.0419518
v -0.512518 0.822688 -0.0269751
v -0.535005 0.818201 -0.00898817
v -0.517016 0.811441 -0.0359632
v -0.527475 0.809227 0.00598859
v -0.481036 0.782246 0.0449514
v 0.41354 0.305727 0.0359632
v 0.503489 0.216047 0.0179763
v -0.467544 0.719308 0.0539501
v -0.479467 0.773272 0.047951
v -0.476538 0.710334 0.0494508
v 0.533507 0.216047 -0.0119877
v 0.52744 0.809227 -0.0239755
v 0.515517 0.79122 -0.047951
v 0.503489 0.79122 -0.0539501
v -0.503523 0.79122 -0.0539501
v -0.503523 0.803245 -0.047951
v -0.512518 0.80474 -0.0449514
v -0.521513 0.216047 -0.0359632
v -0.530612 0.216047 -0.0177334
v -0.533436 0.216047 -0.0119877
v -0.533436 0.216047 -0.00598859
v -0.527475 0.216047 0.00598859
v -0.515447 0.797262 -0.047951
v -0.521513 0.79122 -0.0359632
v -0.395584 0.305727 0.0359632
v -0.503523 0.216047 0.0179763
v -0.479467 0.719308 0.047951
v -0.515342 0.216047 0.0120617
v 0.515517 0.216047 -0.047951
v 0.503698 0.216047 -0.0538656
v 0.503489 0.216047 -0.0539501
v -0.503523 0.216047 -0.0539501
v -0.515447 0.216047 -0.047951
f 1 2 3
f 1 3 4
f 1 4 5
f 1 5 18
f 1 18 6
f 1 6 10
f 1 10 2
f 2 7 8
f 2 8 9
f 2 9 3
f 2 10 21
f 2 21 7
f 3 11 12
f 3 12 13
f 3 13 14
f 3 14 4
f 3 9 8
f 3 8 15
f 3 15 25
f 3 25 11
f 4 14 16
f 4 16 5
f 5 16 17
f 5 17 32
f 5 32 18
f 6 18 19
f 6 19 20
f 6 20 10
f 7 21 23
f 7 23 8
f 8 22 25
f 8 25 15
f 8 23 40
f 8 40 22
f 10 20 24
f 10 24 37
f 10 37 21
f 11 25 26
f 11 26 39
f 11 39 58
f 11 58 60
f 11 60 54
f 11 54 53
f 11 53 52
f 11 52 51
f 11 51 50
f 11 50 65
f 11 65 64
f 11 64 63
f 11 63 62
f 11 62 61
f 11 61 43
f 11 43 27
f 11 27 12
f 12 27 13
f 13 28 14
f 13 27 43
f 13 43 28
f 14 29 16
f 14 28 29
f 16 29 30
f 16 30 17
f 17 30 31
f 17 31 48
f 17 48 32
f 18 32 33
f 18 33 19
f 19 34 20
f 19 33 35
f 19 35 34
f 20 34 36
f 20 36 24
f 21 37 23
f 22 38 39
f 22 39 25
f 22 40 57
f 22 57 38
f 23 37 41
f 23 41 42
f 23 42 40
f 24 36 37
f 25 39 26
f 28 44 29
f 28 43 61
f 28 61 45
f 28 45 44
f 29 44 30
f 30 44 31
f 31 44 45
f 31 45 46
f 31 46 47
f 31 47 48
f 32 48 49
f 32 49 35
f 32 35 33
f 34 50 51
f 34 51 52
f 34 52 53
f 34 53 54
f 34 54 36
f 34 35 55
f 34 55 56
f 34 56 50
f 35 49 55
f 36 54 59
f 36 59 41
f 36 41 37
f 38 57 58
f 38 58 39
f 40 42 58
f 40 58 57
f 41 59 42
f 42 59 54
f 42 54 60
f 42 60 58
f 45 61 62
f 45 62 46
f 46 62 63
f 46 63 64
f 46 64 47
f 47 64 65
f 47 65 55
f 47 55 48
f 48 55 49
f 50 56 55
f 50 55 65
o convex_1
v 0.533436 0.216047 -0.00599915
v 0.535005 -0.818146 -0.00899169
v 0.533436 0.216047 -0.0119842
v 0.527475 0.216047 0.00598859
v 0.521513 0.216047 -0.0359597
v 0.527579 0.216047 -0.0238135
v 0.527475 -0.803236 0.00598859
v 0.515447 -0.815185 0.0119825
v 0.512518 -0.82264 0.00898993
v 0.530508 -0.82264 -0.00899169
v 0.523709 -0.82264 -0.0179781
v 0.517016 -0.800173 -0.0449549
v 0.503523 0.216047 0.0179763
v 0.515551 0.216047 -0.047789
v 0.503523 -0.809159 0.0179763
v 0.503523 -0.82121 0.0119825
v 0.503523 -0.827235 -5.27971e-06
v 0.503523 -0.827235 -0.0179781
v 0.509485 -0.82121 -0.0299658
v 0.509485 -0.803236 -0.0479474
v 0.503523 -0.791186 -0.0539501
v 0.515447 -0.791186 -0.0479474
v 0.413574 0.179793 0.0359667
v -0.503489 0.216047 0.0179763
v 0.515447 0.216047 -0.0479474
v 0.413574 -0.665371 0.0359667
v -0.503489 -0.809159 0.0179763
v -0.503489 -0.82121 0.0119825
v -0.503489 -0.827235 -5.27971e-06
v -0.503489 -0.827235 -0.0179781
v 0.497457 -0.815185 -0.0419536
v -0.497527 -0.803236 -0.0479474
v 0.503523 0.216047 -0.0539501
v -0.503489 -0.791186 -0.0539501
v -0.39555 0.179793 0.0359667
v -0.515517 0.216047 0.0119825
v -0.39555 -0.665371 0.0359667
v -0.515517 -0.809159 0.0119825
v -0.512484 -0.818146 0.0134787
v -0.521479 -0.82264 0.00223912
v -0.518446 -0.824171 -0.0149856
v -0.509451 -0.815185 -0.0419536
v -0.503489 0.216047 -0.0539501
v -0.515517 -0.785263 -0.0479474
v -0.504012 0.216047 -0.0537037
v -0.527336 0.216047 0.0060678
v -0.52744 -0.809159 0.00598859
v -0.530474 -0.818146 -0.00450288
v -0.530474 -0.818146 -0.00899169
v -0.52744 -0.815185 -0.023972
v -0.521269 0.216047 -0.0364526
v -0.515517 0.216047 -0.0479474
v -0.533507 -0.803236 -0.0119842
v -0.52744 0.216047 0.00598859
v -0.533507 -0.809159 -0.00599915
v -0.533507 0.216047 -0.0119842
v -0.533507 0.216047 -0.00599915
f 66 67 68
f 66 68 71
f 66 71 70
f 66 70 79
f 66 79 90
f 66 90 98
f 66 98 108
f 66 108 110
f 66 110 117
f 66 117 116
f 66 116 121
f 66 121 122
f 66 122 119
f 66 119 111
f 66 111 101
f 66 101 89
f 66 89 78
f 66 78 69
f 66 69 67
f 67 70 71
f 67 71 68
f 67 69 72
f 67 72 73
f 67 73 74
f 67 74 75
f 67 75 76
f 67 76 77
f 67 77 70
f 69 78 80
f 69 80 72
f 70 77 79
f 72 80 73
f 73 80 81
f 73 81 74
f 74 81 82
f 74 82 75
f 75 82 83
f 75 83 76
f 76 84 85
f 76 85 77
f 76 83 84
f 77 85 86
f 77 86 87
f 77 87 79
f 78 88 91
f 78 91 80
f 78 89 100
f 78 100 88
f 79 87 90
f 80 91 102
f 80 102 92
f 80 92 93
f 80 93 81
f 81 93 94
f 81 94 82
f 82 94 95
f 82 95 83
f 83 95 107
f 83 107 96
f 83 96 84
f 84 96 85
f 85 96 107
f 85 107 97
f 85 97 99
f 85 99 86
f 86 98 90
f 86 90 87
f 86 99 108
f 86 108 98
f 88 100 102
f 88 102 91
f 89 101 103
f 89 103 92
f 89 92 102
f 89 102 100
f 92 103 104
f 92 104 93
f 93 104 105
f 93 105 94
f 94 105 106
f 94 106 95
f 95 106 107
f 97 107 99
f 99 107 109
f 99 109 110
f 99 110 108
f 101 111 103
f 103 111 112
f 103 112 104
f 104 112 105
f 105 112 113
f 105 113 106
f 106 113 114
f 106 114 115
f 106 115 107
f 107 115 109
f 109 116 117
f 109 117 110
f 109 115 118
f 109 118 116
f 111 119 112
f 112 120 113
f 112 119 122
f 112 122 120
f 113 120 114
f 114 120 118
f 114 118 115
f 116 118 121
f 118 120 122
f 118 122 121
