# https://github.com/mikedh/trimesh
v -0.16310200 0.48933600 -0.38739400
v -0.12232600 0.34698000 -0.36682100
v -0.12523600 0.34698000 -0.36625900
v -0.14465900 0.34698000 -0.36238500
v -0.18347500 0.34698000 -0.35105600
v -0.22425200 0.50972700 -0.36698100
v -0.16310200 0.50972700 -0.38739400
v -0.08157960 0.48933600 -0.38739400
v -0.08121190 0.34698000 -0.36682100
v -0.18773400 0.34698000 -0.34798400
v -0.23445400 0.47913000 -0.35680100
v -0.23785400 0.51651200 -0.36019400
v -0.23031800 0.54444200 -0.36396200
v -0.22425200 0.54444200 -0.36698100
v -0.16310200 0.53690400 -0.37379400
v -0.06117590 0.50972700 -0.38739400
v 0.04075030 0.34698000 -0.35661400
v -0.20801500 0.34698000 -0.33037600
v -0.21068000 0.36022000 -0.33302100
v -0.23105300 0.34698000 -0.29222100
v -0.24465600 0.34698000 -0.26504800
v -0.24465600 0.50972700 -0.34659400
v -0.24162300 0.54444200 -0.35265900
v -0.23785400 0.54444200 -0.36019400
v -0.20387900 0.54444200 -0.36698100
v -0.08157960 0.53690400 -0.37379400
v -0.05097410 0.51991400 -0.38229100
v 0.04791920 0.49646800 -0.36342700
v 0.04075030 0.48933600 -0.36698100
v 0.04791920 0.46894400 -0.36698100
v 0.04791920 0.45568400 -0.36698100
v 0.04791920 0.34698000 -0.35303400
v -0.24465600 0.34698000 -0.20354100
v -0.26505900 0.53010000 -0.28543400
v -0.24465600 0.54444200 -0.34659400
v -0.08157960 0.54444200 -0.35920600
v -0.00002630 0.54370700 -0.33980800
v 0.01017550 0.54030500 -0.34151800
v 0.04791920 0.53690400 -0.33302100
v 0.04791920 0.51413400 -0.35370100
v 0.04791920 0.50054600 -0.36139700
v 0.04791920 0.34698000 -0.12234200
v -0.23966200 0.34698000 -0.18101700
v -0.24465600 0.38739600 -0.16311500
v -0.25994300 0.54030500 -0.27522800
v -0.25825800 0.54370700 -0.28543400
v -0.24465600 0.40778800 -0.16311500
v -0.24465600 0.54444200 -0.22430100
v -0.25789000 0.54444200 -0.28543400
v -0.00002630 0.54444200 -0.33833800
v 0.00876625 0.54444200 -0.33505200
v 0.01844730 0.54444200 -0.33117700
v 0.04791920 0.54370700 -0.31942100
v -0.07900620 0.54444200 -0.11446000
v -0.09738780 0.35121300 -0.11446000
v -0.09891960 0.34698000 -0.11446000
v 0.04791920 0.54444200 -0.12234200
v -0.23957000 0.34698000 -0.18061600
v -0.23957000 0.36702400 -0.16057700
v -0.23105300 0.38739600 -0.13594200
v -0.23957000 0.41799400 -0.15293500
v -0.25684900 0.54444200 -0.27111300
v -0.22121900 0.54444200 -0.16009600
v 0.04791920 0.54444200 -0.31795100
v -0.19992700 0.54444200 -0.11446000
v -0.20387900 0.34698000 -0.11446000
v -0.23105300 0.40778800 -0.13594200
v -0.21012900 0.38739600 -0.11446000
v -0.20387900 0.54444200 -0.12234200
v -0.20387900 0.50972700 -0.11446000
v -0.21012900 0.42984200 -0.11446000
v -0.20856600 0.45645800 -0.11446000
f 28 31 30
f 28 30 29
f 33 43 44
f 33 44 34
f 34 45 46
f 34 46 35
f 34 48 45
f 34 47 48
f 28 32 31
f 35 46 49
f 36 50 37
f 37 50 51
f 37 51 39
f 34 44 47
f 28 42 32
f 28 40 39
f 28 64 57
f 37 39 38
f 21 34 22
f 22 34 35
f 22 35 23
f 25 36 26
f 26 36 37
f 28 57 42
f 26 38 27
f 27 39 40
f 27 40 41
f 27 41 28
f 28 41 40
f 28 39 53
f 28 53 64
f 27 38 39
f 39 51 52
f 59 66 60
f 42 54 55
f 54 66 56
f 54 56 55
f 58 66 59
f 21 33 34
f 60 67 61
f 60 66 68
f 54 68 66
f 60 68 71
f 61 67 65
f 61 65 69
f 61 69 63
f 65 67 70
f 67 71 72
f 67 72 70
f 60 71 67
f 39 52 53
f 54 71 68
f 54 70 72
f 42 55 56
f 42 57 54
f 43 58 59
f 43 59 44
f 44 59 60
f 44 60 61
f 54 72 71
f 44 61 47
f 45 49 46
f 45 48 62
f 47 61 48
f 48 61 63
f 52 64 53
f 54 65 70
f 45 62 49
f 18 20 19
f 26 37 38
f 16 31 17
f 2 33 21
f 2 21 20
f 2 20 18
f 2 18 10
f 2 10 5
f 2 5 4
f 2 43 33
f 2 4 3
f 5 11 6
f 6 11 12
f 6 12 13
f 6 13 14
f 7 14 15
f 7 15 26
f 5 10 11
f 7 26 16
f 2 58 43
f 2 56 66
f 1 2 3
f 1 3 4
f 17 31 32
f 1 5 6
f 1 6 14
f 1 14 7
f 2 66 58
f 1 7 16
f 1 8 9
f 1 9 2
f 2 9 17
f 2 17 32
f 2 32 42
f 2 42 56
f 1 16 8
f 8 16 17
f 1 4 5
f 10 18 19
f 13 57 64
f 13 64 52
f 13 52 51
f 13 51 50
f 13 50 36
f 13 36 25
f 13 54 57
f 13 25 14
f 14 26 15
f 16 26 27
f 16 27 28
f 16 28 29
f 16 29 30
f 8 17 9
f 14 25 26
f 13 65 54
f 16 30 31
f 13 63 69
f 13 69 65
f 11 19 20
f 11 20 21
f 11 21 22
f 11 22 12
f 12 22 23
f 12 23 24
f 10 19 11
f 13 24 23
f 13 23 35
f 13 35 49
f 13 49 62
f 13 62 48
f 13 48 63
f 12 24 13

