# https://github.com/mikedh/trimesh
v 0.08433540 0.16311100 0.37858900
v 0.08433540 0.14549500 0.37669300
v 0.08433540 0.18259300 0.37755500
v 0.02037900 0.24240900 0.36613600
v 0.01810780 0.24240900 0.36583400
v -0.10193800 0.20387000 0.34661500
v -0.10193800 0.18349100 0.34661500
v 0.02037900 0.08157050 0.36699700
v 0.06116240 0.08157050 0.36699700
v 0.08433540 0.08213730 0.36260200
v 0.08433540 0.20101300 0.37557300
v 0.04075420 0.24240900 0.36699700
v -0.14272100 0.24240900 0.32619000
v -0.14420300 0.24240900 0.32545800
v -0.15631600 0.24240900 0.31942500
v -0.15631600 0.22427300 0.31942500
v -0.12912700 0.18349100 0.33299800
v -0.11210900 0.17328900 0.34148700
v -0.07139160 0.05098970 0.34148700
v -0.06118760 0.06116760 0.34661500
v 0.01017500 0.07136910 0.36187000
v 0.02037900 0.06796860 0.36018900
v 0.04075420 0.04078830 0.34661500
v 0.08433540 0.04078830 0.34661500
v 0.08433540 0.24240900 0.36648000
v 0.07999050 0.24240900 0.36699700
v -0.16971300 0.24240900 0.31158200
v -0.15289200 0.21407100 0.32110500
v -0.13251700 0.11215100 0.32110500
v 0.03058310 0.03058680 0.34148700
v -0.08156280 0.04078830 0.33386000
v -0.06118760 0.03398730 0.33299800
v 0.04075420 0.02718630 0.33980700
v 0.08433540 0.02718630 0.33980700
v 0.08433540 0.24240900 0.19243500
v -0.17063400 0.24240900 0.30998800
v -0.19028500 0.22427300 0.27185200
v -0.16987700 0.18349100 0.29223400
v -0.11721100 0.03058680 0.29563800
v -0.09173390 0.03058680 0.32110500
v -0.17840300 0.16311100 0.26758600
v -0.21066100 0.00118680 0.10875200
v -0.08156280 0.02718630 0.31942500
v -0.06118760 0.00118680 0.27581600
v 0.06116240 0.00118680 0.29382900
v 0.08153760 0.00118680 0.29619900
v 0.08433540 0.00118680 0.29550900
v 0.08433540 0.16332400 -0.06163080
v 0.06939140 0.17135300 -0.06163080
v 0.04075420 0.18349100 -0.06163080
v -0.02040430 0.20377500 -0.06163080
v -0.14756000 0.24240900 -0.06163080
v -0.18422900 0.24240900 0.28391800
v -0.19104200 0.24240900 0.27034400
v -0.20388000 0.22427300 0.24466100
v -0.19877800 0.20387000 0.24720400
v -0.11553200 0.02718630 0.29223400
v -0.10193800 0.02550970 0.30835000
v -0.19877800 0.16311100 0.22682200
v -0.23956100 0.02040900 0.06372150
v -0.22455100 0.00118680 0.08143200
v -0.21000200 0.00118680 0.10970000
v -0.08156280 0.00118680 0.26637900
v 0.08433540 0.00118680 -0.06163080
v -0.22425500 0.24240900 -0.06163080
v -0.20388000 0.24240900 0.24466100
v -0.22369500 0.24240900 0.20415600
v -0.24466300 0.04078830 0.06117920
v -0.14989700 0.00118680 0.19006500
v -0.14910700 0.00118680 0.19105600
v -0.10309000 0.00118680 0.24522200
v -0.08274780 0.00118680 0.26560400
v -0.24436700 0.00118680 0.04208980
v -0.23794800 0.00118680 0.05493090
v -0.23146400 0.00118680 0.06777210
v -0.25193800 0.00118680 -0.06163080
v -0.23933100 0.18615900 -0.06163080
v -0.23956100 0.18604100 -0.06115670
v -0.23956100 0.20642000 -0.04077460
v -0.23956100 0.22682300 -0.02034940
v -0.24061400 0.24240900 0.01614890
v -0.22425500 0.24240900 0.20161300
v -0.24466300 0.12232900 0.08156130
v -0.25187200 0.00118680 -0.05999330
v -0.24466300 0.00118680 0.04079700
v -0.24453100 0.16268600 -0.06163080
v -0.24466300 0.24240900 0.08156130
v -0.24466300 0.24240900 0.03855630
v -0.24466300 0.22427300 0.00003276
v -0.24466300 0.18349100 -0.04077460
v -0.24466300 0.16311100 -0.06115670
v -0.23949500 0.18549800 -0.06163080
v -0.24443300 0.16332400 -0.06163080
f 42 47 46
f 42 70 69
f 42 46 45
f 42 45 44
f 42 44 63
f 42 63 72
f 42 72 71
f 42 71 70
f 42 64 47
f 48 76 86
f 42 62 57
f 43 58 44
f 44 58 63
f 48 64 76
f 48 93 92
f 48 92 77
f 48 77 65
f 42 76 64
f 48 65 52
f 42 69 62
f 42 84 76
f 39 57 58
f 42 73 85
f 48 52 51
f 35 50 51
f 35 51 52
f 36 53 37
f 37 53 54
f 37 54 55
f 37 55 56
f 37 56 41
f 37 41 38
f 39 58 40
f 39 42 57
f 40 58 43
f 41 56 59
f 41 59 60
f 41 60 42
f 42 60 61
f 42 61 75
f 42 75 74
f 42 74 73
f 42 85 84
f 48 51 50
f 76 87 88
f 54 66 55
f 68 85 73
f 76 84 87
f 35 49 50
f 76 88 89
f 76 89 90
f 76 90 91
f 76 91 86
f 77 92 78
f 78 91 90
f 78 90 79
f 78 92 93
f 78 93 91
f 79 90 89
f 79 89 80
f 80 89 81
f 81 89 88
f 82 87 83
f 83 87 84
f 86 91 93
f 68 84 85
f 48 50 49
f 68 83 84
f 67 82 83
f 55 66 67
f 55 67 68
f 55 68 56
f 56 68 60
f 56 60 59
f 57 62 58
f 58 62 69
f 58 69 70
f 58 70 71
f 58 71 72
f 58 72 63
f 60 68 73
f 60 73 74
f 60 74 75
f 60 75 61
f 65 77 78
f 65 78 79
f 65 79 80
f 65 80 81
f 67 83 68
f 35 48 49
f 48 86 93
f 33 46 34
f 4 65 81
f 4 81 88
f 4 88 87
f 4 87 82
f 4 82 67
f 4 67 66
f 4 66 54
f 4 54 53
f 4 53 36
f 4 36 27
f 4 27 15
f 4 15 14
f 4 14 13
f 4 13 5
f 4 11 12
f 5 13 6
f 6 13 14
f 6 14 15
f 6 15 16
f 4 52 65
f 4 35 52
f 4 25 35
f 4 26 25
f 34 46 47
f 1 2 10
f 1 10 24
f 1 24 34
f 1 34 47
f 1 47 64
f 1 64 48
f 1 48 35
f 1 35 25
f 6 16 7
f 1 25 11
f 1 3 4
f 1 5 6
f 1 6 7
f 1 7 8
f 1 8 2
f 2 8 9
f 2 9 10
f 3 11 4
f 4 12 26
f 1 11 3
f 7 16 17
f 1 4 5
f 7 18 19
f 21 33 22
f 23 33 34
f 23 34 24
f 27 36 37
f 27 37 38
f 27 38 29
f 27 29 28
f 29 39 40
f 29 40 31
f 29 38 41
f 29 41 42
f 29 42 39
f 31 40 32
f 32 40 43
f 32 43 33
f 33 43 44
f 33 44 45
f 7 17 18
f 33 45 46
f 21 30 33
f 19 32 30
f 30 32 33
f 19 29 31
f 7 20 8
f 19 31 32
f 7 19 20
f 8 21 22
f 8 22 33
f 8 23 24
f 8 24 9
f 8 20 21
f 9 24 10
f 11 25 26
f 8 33 23
f 15 27 16
f 16 28 17
f 16 27 28
f 19 21 20
f 17 28 29
f 17 29 18
f 11 26 12
f 18 29 19
f 19 30 21

