# https://github.com/mikedh/trimesh
v 0.29582500 0.34697000 -0.22424900
v 0.28544500 0.30583100 -0.20388500
v 0.28544500 0.30583100 -0.22424900
v 0.28034900 0.29563600 -0.23447300
v 0.29030600 0.34697000 -0.24465500
v 0.28544500 0.34697000 0.05408910
v 0.28544500 0.34661100 0.05408910
v 0.28192200 0.31918900 0.05408910
v 0.26503700 0.24240900 0.05408910
v 0.26503700 0.24240900 0.04077400
v 0.27184700 0.27865500 -0.22424900
v 0.19453700 0.24240900 -0.30809700
v 0.19878800 0.25486600 -0.31601200
v 0.23192400 0.30583100 -0.30583000
v 0.28560900 0.34697000 -0.25557900
v 0.26419200 0.24240900 0.02036860
v 0.18349900 0.34697000 0.05408910
v 0.20036100 0.24240900 0.05408910
v 0.22880100 0.24240900 -0.20615200
v 0.20275700 0.24240900 -0.28769200
v 0.19679200 0.24240900 -0.30356300
v 0.26391000 0.24240900 0.01810130
v 0.18659900 0.24240900 -0.31996900
v 0.18859600 0.27525600 -0.33641700
v 0.21067100 0.30583100 -0.33299600
v 0.21917200 0.29563600 -0.31601200
v 0.24852800 0.34697000 -0.28023000
v 0.20388400 0.32622100 -0.33386200
v 0.21407600 0.33641600 -0.32112400
v 0.18349900 0.32622100 0.05408910
v 0.05590920 0.34697000 -0.12234600
v 0.05590920 0.24240900 -0.12234600
v 0.16212900 0.24240900 -0.32932700
v 0.16821100 0.25486600 -0.33641700
v 0.14782700 0.27525600 -0.35678200
v 0.14529100 0.28545100 -0.36189300
v 0.18603600 0.28545100 -0.34148800
v 0.16992600 0.30583100 -0.35340100
v 0.19369200 0.31602600 -0.34148800
v 0.21748100 0.33981500 -0.31263200
v 0.18349900 0.34151400 -0.32875000
v 0.20388400 0.34661100 -0.30583000
v 0.20752400 0.34697000 -0.30253200
v 0.15292300 0.31602600 -0.36189300
v 0.16311500 0.32622100 -0.35422600
v 0.17333100 0.33641600 -0.34148800
v 0.05590920 0.34697000 -0.34903200
v 0.05590920 0.24240900 -0.31489900
v 0.14047600 0.24240900 -0.33526300
v 0.14954100 0.25146800 -0.33979800
v 0.12913300 0.27185800 -0.36020300
v 0.12234600 0.28545100 -0.36700500
v 0.14273100 0.30583100 -0.36700500
v 0.16165900 0.34697000 -0.32602900
v 0.16311500 0.33981500 -0.33979800
v 0.11215400 0.34151400 -0.35678200
v 0.12234600 0.34697000 -0.34173500
v 0.11215400 0.33641600 -0.36189300
v 0.05590920 0.34135000 -0.35447300
v 0.05590920 0.25795700 -0.33332600
v 0.09515150 0.25826400 -0.35340100
v 0.13366600 0.24240900 -0.33526300
v 0.11555900 0.25826400 -0.35340100
v 0.10196200 0.28545100 -0.36700500
v 0.10196200 0.30583100 -0.36700500
v 0.05590920 0.32622100 -0.35942000
v 0.05590920 0.28545100 -0.34775400
v 0.07476710 0.27865500 -0.35340100
v 0.05590920 0.31589300 -0.35686400
f 31 67 60
f 33 50 34
f 31 60 48
f 31 48 32
f 33 49 50
f 34 50 51
f 38 44 39
f 35 51 36
f 36 51 52
f 36 52 53
f 36 53 38
f 38 53 44
f 31 69 67
f 34 51 35
f 31 66 69
f 25 38 39
f 31 47 59
f 29 41 40
f 29 46 41
f 28 46 29
f 28 45 46
f 28 44 45
f 28 39 44
f 27 42 43
f 27 41 42
f 27 40 41
f 27 29 40
f 25 39 28
f 25 36 38
f 41 54 42
f 31 59 66
f 41 46 55
f 64 69 66
f 41 56 57
f 25 37 36
f 64 68 67
f 64 66 65
f 61 68 64
f 61 67 68
f 60 67 61
f 58 66 59
f 58 65 66
f 53 65 58
f 52 65 53
f 52 64 65
f 51 64 52
f 51 61 64
f 51 63 61
f 50 63 51
f 49 63 50
f 49 61 63
f 64 67 69
f 41 57 54
f 42 54 43
f 44 53 58
f 44 58 45
f 45 58 46
f 41 55 56
f 46 58 56
f 47 57 56
f 47 56 58
f 47 58 59
f 48 60 61
f 48 61 62
f 49 62 61
f 46 56 55
f 24 37 25
f 6 8 7
f 24 35 36
f 6 9 8
f 6 18 9
f 6 30 18
f 6 17 30
f 4 16 11
f 4 10 16
f 4 15 5
f 4 14 15
f 4 13 14
f 4 12 13
f 4 11 12
f 3 10 4
f 2 10 3
f 2 9 10
f 9 18 32
f 1 9 2
f 1 7 8
f 1 17 6
f 1 31 17
f 1 47 31
f 1 57 47
f 1 54 57
f 1 43 54
f 1 27 43
f 1 15 27
f 1 5 15
f 1 4 5
f 1 3 4
f 1 2 3
f 24 36 37
f 1 8 9
f 9 32 48
f 1 6 7
f 9 62 49
f 9 48 62
f 24 34 35
f 23 34 24
f 23 33 34
f 18 30 32
f 17 32 30
f 17 31 32
f 15 29 27
f 15 25 28
f 14 25 15
f 14 26 25
f 13 26 14
f 13 25 26
f 13 24 25
f 13 23 24
f 15 28 29
f 11 22 19
f 9 49 33
f 9 33 23
f 12 23 13
f 9 23 12
f 9 12 21
f 9 20 19
f 9 19 22
f 9 21 20
f 9 16 10
f 11 19 20
f 11 20 21
f 11 21 12
f 11 16 22
f 9 22 16

