# https://github.com/mikedh/trimesh
v 0.08435510 0.00118680 0.06797490
v 0.08435510 0.17305300 0.06797490
v 0.26844000 0.00118680 0.06797490
v 0.08435510 0.00118680 0.29552400
v 0.20388900 0.24240900 0.06797490
v 0.08435510 0.24240900 0.19245900
v 0.26844000 0.08157050 0.06797490
v 0.27223900 0.00118680 0.07554210
v 0.08839080 0.00118680 0.29449200
v 0.11215200 0.02550970 0.33639300
v 0.10195400 0.02718630 0.33980200
v 0.08435510 0.02718630 0.33980200
v 0.26505400 0.24240900 0.06797490
v 0.08435510 0.24240900 0.36647500
v 0.27184500 0.08157050 0.07476040
v 0.28544800 0.08157050 0.10196500
v 0.28544800 0.00118680 0.10196500
v 0.10195400 0.00118680 0.29020800
v 0.13254700 0.02550970 0.31600600
v 0.11555800 0.03398730 0.33980200
v 0.11990800 0.00118680 0.28298500
v 0.13254700 0.00118680 0.27523000
v 0.18467500 0.00118680 0.23389200
v 0.18873100 0.00118680 0.23067100
v 0.21068100 0.00118680 0.21068900
v 0.10195400 0.04078830 0.34658700
v 0.08435510 0.02905190 0.34074000
v 0.28430700 0.24240900 0.14048900
v 0.08435510 0.20101300 0.37557400
v 0.08837110 0.19709300 0.38398600
v 0.11979000 0.22427300 0.38226600
v 0.13593300 0.23785100 0.38057700
v 0.13949600 0.24240900 0.37538700
v 0.28458200 0.24240900 0.14274100
v 0.28544800 0.24240900 0.16312800
v 0.28544800 0.04078830 0.12235300
v 0.28511400 0.00118680 0.10327800
v 0.13593300 0.03398730 0.31941400
v 0.23107500 0.00118680 0.19030200
v 0.25145000 0.00118680 0.16991400
v 0.13254700 0.09684910 0.35678100
v 0.12234900 0.09939950 0.36187800
v 0.08435510 0.04078830 0.34658700
v 0.10195400 0.16311100 0.38739400
v 0.08435510 0.08213730 0.36259700
v 0.08435510 0.18259300 0.37754400
v 0.08435510 0.16311100 0.37857600
v 0.09175710 0.15291000 0.38226600
v 0.10195400 0.18349100 0.38739400
v 0.14272400 0.22427300 0.38739400
v 0.16085500 0.24240900 0.37322900
v 0.28544800 0.24240900 0.20165300
v 0.28544800 0.08157050 0.14274100
v 0.27863700 0.03398730 0.13595500
v 0.27918800 0.00118680 0.11775600
v 0.15632700 0.11555200 0.33980200
v 0.25485600 0.01530830 0.17332200
v 0.21406700 0.15801100 0.29561800
v 0.25879300 0.00118680 0.15853200
v 0.14953600 0.12913000 0.35340400
v 0.19369200 0.23955100 0.35678100
v 0.15292200 0.19879300 0.37716900
v 0.13254700 0.15801100 0.37716900
v 0.12234900 0.16056100 0.38226600
v 0.12234900 0.18349100 0.38739400
v 0.08435510 0.14549500 0.37673100
v 0.15632700 0.21747200 0.38057700
v 0.16991100 0.23107400 0.37379200
v 0.16764700 0.24240900 0.37150900
v 0.28493600 0.24240900 0.20390400
v 0.28544800 0.18349100 0.18351600
v 0.27863700 0.07476950 0.15634300
v 0.25826200 0.03398730 0.17673100
v 0.21406700 0.19879300 0.31600600
v 0.23446100 0.21917200 0.29561800
v 0.19369200 0.24240900 0.35678100
v 0.21068100 0.23107400 0.33301600
v 0.23560300 0.24240900 0.30356000
v 0.23044500 0.24240900 0.31012700
v 0.13593300 0.17669000 0.38057700
v 0.28318400 0.24240900 0.20843800
v 0.25826200 0.21747200 0.25825100
v 0.27863700 0.17669000 0.19711800
v 0.23786700 0.23785100 0.29902600
v 0.21747200 0.21747200 0.31941400
f 40 57 58
f 40 58 56
f 40 59 57
f 41 56 60
f 41 60 61
f 41 61 62
f 41 62 63
f 41 63 64
f 44 65 50
f 42 64 44
f 44 64 65
f 44 50 49
f 44 48 45
f 45 48 66
f 47 66 48
f 50 65 67
f 41 64 42
f 38 40 56
f 20 38 41
f 37 54 55
f 50 67 68
f 26 43 27
f 26 42 44
f 26 44 45
f 26 45 43
f 29 46 30
f 30 46 47
f 30 47 48
f 38 56 41
f 30 48 44
f 30 49 50
f 30 50 31
f 31 50 32
f 32 50 51
f 32 51 33
f 36 53 72
f 36 72 54
f 36 54 37
f 30 44 49
f 50 68 69
f 78 82 81
f 52 70 71
f 63 80 64
f 64 80 65
f 65 80 67
f 68 76 69
f 70 81 71
f 71 81 82
f 71 82 83
f 72 83 82
f 72 82 73
f 73 82 84
f 74 75 84
f 74 84 85
f 74 85 77
f 77 85 84
f 77 84 78
f 78 84 82
f 20 42 26
f 63 67 80
f 62 67 63
f 61 79 76
f 61 78 79
f 53 71 83
f 53 83 72
f 54 72 73
f 54 73 55
f 55 73 59
f 56 58 74
f 56 74 60
f 57 59 73
f 50 69 51
f 57 73 84
f 57 75 74
f 57 74 58
f 60 74 61
f 61 76 68
f 61 68 67
f 61 67 62
f 61 74 77
f 61 77 78
f 57 84 75
f 20 41 42
f 10 23 24
f 19 39 40
f 19 40 38
f 1 43 45
f 1 45 66
f 1 66 47
f 1 47 46
f 1 46 29
f 1 29 14
f 1 14 6
f 1 6 2
f 2 6 5
f 3 7 8
f 4 9 10
f 4 10 11
f 4 11 12
f 5 6 14
f 5 14 33
f 5 33 51
f 1 12 27
f 5 51 69
f 1 4 12
f 1 18 9
f 1 2 5
f 1 5 13
f 1 13 7
f 1 7 3
f 1 3 8
f 1 8 17
f 1 17 37
f 1 37 55
f 1 55 59
f 1 59 40
f 1 40 39
f 1 39 25
f 1 25 24
f 1 24 23
f 1 23 22
f 1 22 21
f 1 21 18
f 1 9 4
f 5 69 76
f 1 27 43
f 5 79 78
f 11 26 27
f 11 27 12
f 13 16 15
f 13 28 16
f 14 29 30
f 14 30 31
f 14 31 32
f 14 32 33
f 16 28 34
f 16 34 35
f 16 35 52
f 16 52 71
f 16 71 53
f 16 53 36
f 16 36 17
f 17 36 37
f 5 76 79
f 11 20 26
f 10 39 19
f 19 38 20
f 10 24 25
f 5 78 81
f 5 81 70
f 5 70 52
f 5 52 35
f 5 35 34
f 10 25 39
f 5 28 13
f 7 13 15
f 5 34 28
f 8 15 16
f 8 16 17
f 9 18 10
f 10 19 20
f 10 20 11
f 10 18 21
f 10 21 22
f 10 22 23
f 7 15 8

