# https://github.com/mikedh/trimesh
v 0.03101790 0.58223900 -0.12235300
v -0.07637430 0.58223900 -0.07405940
v 0.03101790 0.54444500 -0.12235300
v 0.03101790 0.58223900 -0.30812900
v -0.18348400 0.58223900 -0.07405940
v -0.07875010 0.55803500 -0.07405940
v -0.08384110 0.54444500 -0.07405940
v 0.03101790 0.54444500 -0.32401700
v 0.02230660 0.54444500 -0.32923600
v 0.01843180 0.54444500 -0.33118600
v 0.00875883 0.54444500 -0.33505800
v -0.00000904 0.54444500 -0.33835600
v -0.08157850 0.54444500 -0.35920500
v -0.07023680 0.58223900 -0.32960900
v -0.18792400 0.54444500 -0.07405940
v -0.22426800 0.58223900 -0.16313300
v -0.20387600 0.54444500 -0.36697600
v -0.20387600 0.55050900 -0.36697600
v -0.19369400 0.56070200 -0.36190000
v -0.10197100 0.55730600 -0.35341200
v -0.20387600 0.56409900 -0.36020800
v -0.09515450 0.58223900 -0.33072700
v -0.22426800 0.55050900 -0.16313300
v -0.22124200 0.54444500 -0.16009300
v -0.22766200 0.58223900 -0.19255700
v -0.25685100 0.54444500 -0.27110600
v -0.24466100 0.55050900 -0.22427500
v -0.22426800 0.54444500 -0.36697600
v -0.22426800 0.55050900 -0.36697600
v -0.22426800 0.56409900 -0.36020800
v -0.12233500 0.58223900 -0.33072700
v -0.24466100 0.54444500 -0.22427500
v -0.22879400 0.58223900 -0.21747800
v -0.25144900 0.55730600 -0.28544500
v -0.25789700 0.54444500 -0.28544500
v -0.23787300 0.54444500 -0.36020800
v -0.23787300 0.55730600 -0.36020800
v -0.23445000 0.56579700 -0.35679600
v -0.14142600 0.58223900 -0.32493400
v -0.22426800 0.57089500 -0.34661500
v -0.23049100 0.58223900 -0.26588600
v -0.23787300 0.56409900 -0.34661500
v -0.24466100 0.55050900 -0.34661500
v -0.24466100 0.54444500 -0.34661500
v -0.22426800 0.58223900 -0.28544500
v -0.21581200 0.58223900 -0.28966000
f 25 33 34
f 18 29 19
f 25 34 26
f 23 32 24
f 21 31 22
f 21 30 31
f 19 30 21
f 19 29 30
f 17 29 18
f 14 21 22
f 16 32 23
f 16 27 32
f 16 26 27
f 16 25 26
f 15 23 24
f 15 16 23
f 26 32 27
f 14 20 19
f 17 28 29
f 26 34 35
f 14 19 21
f 28 37 29
f 13 20 14
f 40 45 46
f 39 40 46
f 38 45 40
f 38 41 45
f 38 42 41
f 37 42 38
f 37 43 42
f 36 43 37
f 28 36 37
f 36 44 43
f 35 42 43
f 34 41 42
f 34 42 35
f 33 41 34
f 31 40 39
f 31 38 40
f 30 38 31
f 30 37 38
f 29 37 30
f 35 43 44
f 13 19 20
f 3 36 28
f 13 17 18
f 2 6 3
f 2 7 6
f 2 15 7
f 2 5 15
f 1 5 2
f 1 16 5
f 1 25 16
f 1 33 25
f 1 41 33
f 1 45 41
f 1 46 45
f 1 39 46
f 1 31 39
f 1 22 31
f 1 14 22
f 1 4 14
f 13 18 19
f 1 3 8
f 1 2 3
f 3 6 7
f 3 7 15
f 1 8 4
f 3 24 32
f 3 15 24
f 5 16 15
f 4 12 13
f 4 11 12
f 4 10 11
f 4 9 10
f 4 8 9
f 3 9 8
f 3 10 9
f 4 13 14
f 3 12 11
f 3 13 12
f 3 17 13
f 3 28 17
f 3 44 36
f 3 35 44
f 3 26 35
f 3 11 10
f 3 32 26

