# https://github.com/mikedh/trimesh
v -0.20387700 0.34698000 -0.11439800
v -0.21013100 0.38739600 -0.11439800
v -0.09890950 0.34698000 -0.11439800
v -0.21917600 0.34698000 -0.06333760
v -0.21013100 0.42984200 -0.11439800
v -0.22353900 0.34698000 -0.04368290
v -0.22419200 0.34698000 -0.04043040
v -0.09737260 0.35121300 -0.11439800
v -0.10376800 0.34698000 0.24281400
v -0.20855900 0.45645800 -0.11439800
v -0.22428100 0.34698000 -0.02000630
v -0.22428100 0.36702400 0.00003312
v -0.22428100 0.38739600 0.02042230
v -0.20387700 0.50972700 -0.11439800
v -0.07901830 0.54444200 -0.11439800
v -0.04382880 0.54444200 0.05511530
v -0.04382880 0.54444200 0.12233300
v -0.04642560 0.54444200 0.13621700
v -0.04729120 0.54444200 0.13988900
v -0.05161930 0.54444200 0.15227000
v -0.07202280 0.54444200 0.17265900
v -0.08437090 0.54444200 0.17699600
v -0.08806300 0.54444200 0.17783500
v -0.10194800 0.54444200 0.18045800
v -0.12841100 0.54444200 0.18045800
v -0.18313800 0.34698000 0.23428100
v -0.22428100 0.34698000 0.16311100
v -0.22428100 0.40778800 0.06120060
v -0.19993800 0.54444200 -0.11439800
v -0.13392200 0.54444200 0.17769500
v -0.19605200 0.34698000 0.22417400
v -0.14748900 0.54444200 0.17014100
v -0.21143800 0.34698000 0.20350500
v -0.22428100 0.36702400 0.16311100
v -0.22428100 0.40778800 0.08155480
v -0.20387700 0.53010000 -0.04074520
v -0.19879000 0.54030500 -0.03056810
v -0.19672300 0.54444200 -0.04074520
v -0.19633400 0.34698000 0.22389400
v -0.15153500 0.54444200 0.16583900
v -0.21126100 0.34698000 0.20389000
v -0.21917600 0.37721000 0.17328800
v -0.18349100 0.54444200 0.10194400
v -0.20387700 0.48933600 0.06120060
v -0.19568100 0.54444200 -0.02644130
v -0.19879000 0.39760200 0.19367800
v -0.21152600 0.38739600 0.18350100
v -0.21106700 0.34698000 0.20423900
v -0.17049000 0.54444200 0.14471600
v -0.17840400 0.54030500 0.13251000
v -0.17736200 0.54444200 0.12838300
v -0.17529500 0.54444200 0.13663700
f 28 36 29
f 28 35 36
f 27 33 34
f 26 32 31
f 26 30 32
f 25 30 26
f 29 36 37
f 15 17 16
f 15 18 17
f 15 19 18
f 15 25 24
f 15 21 20
f 15 22 21
f 15 23 22
f 15 24 23
f 15 30 25
f 15 32 30
f 15 40 32
f 15 49 40
f 15 52 49
f 29 37 38
f 15 51 52
f 15 20 19
f 31 32 39
f 39 46 47
f 33 41 42
f 15 43 51
f 50 52 51
f 47 52 50
f 47 49 52
f 46 49 47
f 43 50 51
f 42 50 43
f 42 47 50
f 41 47 42
f 41 48 47
f 32 40 39
f 40 49 46
f 39 47 48
f 37 43 45
f 37 45 38
f 36 43 37
f 36 44 43
f 35 44 36
f 35 43 44
f 34 43 35
f 34 42 43
f 33 42 34
f 39 40 46
f 15 45 43
f 9 18 19
f 15 29 38
f 2 6 7
f 2 4 6
f 1 4 2
f 1 6 4
f 1 7 6
f 1 11 7
f 1 27 11
f 1 33 27
f 1 41 33
f 1 48 41
f 2 7 5
f 1 39 48
f 1 26 31
f 1 3 9
f 1 8 3
f 1 15 8
f 1 29 15
f 1 14 29
f 1 10 14
f 1 5 10
f 1 2 5
f 15 38 45
f 1 31 39
f 3 8 9
f 1 9 26
f 7 11 12
f 5 7 10
f 13 28 14
f 11 13 12
f 11 28 13
f 11 35 28
f 11 34 35
f 11 27 34
f 9 25 26
f 9 24 25
f 9 23 24
f 9 22 23
f 14 28 29
f 9 20 21
f 9 19 20
f 9 21 22
f 9 17 18
f 8 17 9
f 8 16 17
f 8 15 16
f 7 14 10
f 7 13 14
f 7 12 13

