# https://github.com/mikedh/trimesh
v -0.26501900 -0.28546000 -0.36700500
v -0.26501900 -0.26506900 -0.36700500
v -0.24462200 -0.40778100 -0.36700500
v -0.32621100 -0.30585000 -0.34660400
v -0.32621100 -0.24467900 -0.34660400
v -0.26501900 -0.23788200 -0.35338600
v 0.20383600 -0.21913100 -0.34660400
v -0.16310300 -0.26506900 -0.36700500
v -0.22422500 -0.40778100 -0.36700500
v -0.25139800 -0.43496900 -0.35338600
v -0.30581400 -0.42817200 -0.34660400
v -0.33298600 -0.43496900 -0.33298600
v -0.33976200 -0.29905300 -0.33976700
v -0.33976200 -0.23788200 -0.33976700
v -0.33640900 -0.22938000 -0.33640400
v -0.32621100 -0.23108500 -0.33976700
v 0.02550040 -0.21913100 -0.33651400
v 0.20900500 -0.21913100 -0.34660400
v -0.04072050 -0.28546000 -0.36700500
v -0.21744900 -0.42137500 -0.36016800
v -0.23107100 -0.43496900 -0.35338600
v 0.06112560 -0.30585000 -0.36700500
v 0.27403800 -0.43954300 -0.34208300
v 0.06112560 -0.43954300 -0.34660400
v -0.24916300 -0.43954300 -0.35107000
v -0.30008600 -0.43954300 -0.34087000
v -0.31573300 -0.43954300 -0.33612800
v -0.34430300 -0.43954300 -0.30354300
v -0.34660800 -0.42817200 -0.30580300
v -0.35338400 -0.33301600 -0.31258500
v -0.33068100 -0.43954300 -0.33072500
v -0.34660800 -0.30585000 -0.32620400
v -0.34660800 -0.24467900 -0.32620400
v -0.36015900 -0.23788200 -0.29902100
v -0.35680600 -0.22938000 -0.29560300
v -0.34528100 -0.21913100 -0.30453500
v -0.34143900 -0.21913100 -0.30685100
v -0.32621100 -0.21913100 -0.31589300
v 0.23128800 -0.21913100 -0.34280000
v 0.26502700 -0.32624100 -0.34660400
v -0.22876500 -0.43954300 -0.35107000
v 0.26502700 -0.34661000 -0.34660400
v 0.27564500 -0.43954300 -0.34131100
v -0.34660800 -0.43954300 -0.28540300
v -0.36693500 -0.32624100 -0.28540300
v -0.36015900 -0.31944400 -0.29902100
v -0.36693500 -0.24467900 -0.28540300
v -0.35387300 -0.21913100 -0.28683600
v 0.24546800 -0.21913100 -0.34020900
v 0.24979900 -0.21913100 -0.33899600
v 0.25413000 -0.21913100 -0.33772700
v 0.27522600 -0.31603500 -0.34147700
v 0.30582200 -0.30585000 -0.32620400
v 0.31937300 -0.30585000 -0.31942200
v 0.31937300 -0.36700000 -0.31942200
v 0.33299400 -0.36700000 -0.31258500
v 0.31657900 -0.43954300 -0.31060000
v -0.34660800 -0.43954300 -0.26505700
v -0.34206700 -0.43954300 -0.23566900
v -0.34660800 -0.36700000 -0.20385500
v -0.34660800 -0.34661000 -0.20385500
v -0.34660800 -0.21913100 -0.22425600
v -0.36190600 -0.23449400 -0.27520200
v -0.35422200 -0.21913100 -0.28540300
v 0.29059400 -0.21913100 -0.32361200
v 0.31602000 -0.29564400 -0.32107600
v 0.33299400 -0.32624100 -0.31258500
v 0.34151700 -0.39757500 -0.29560300
v 0.33599800 -0.43954300 -0.28623000
v -0.30295000 -0.43954300 -0.12087500
v -0.30581400 -0.42817200 -0.12230800
v -0.29903800 -0.42817200 -0.10868900
v -0.29903800 -0.30585000 -0.10868900
v -0.34150900 -0.33640400 -0.19365500
v -0.32621100 -0.28546000 -0.16310900
v -0.35226600 -0.21913100 -0.25987400
v -0.32111100 -0.27527500 -0.15290900
v -0.24336500 -0.21913100 -0.01462610
v 0.29729900 -0.21913100 -0.32024900
v 0.31602000 -0.23449400 -0.30073100
v 0.32111900 -0.22428800 -0.28799400
v 0.34151700 -0.30585000 -0.28799400
v 0.33977000 -0.32624100 -0.29902100
v 0.34654600 -0.32624100 -0.28540300
v 0.34654600 -0.38739100 -0.28540300
v 0.34654600 -0.43954300 -0.26505700
v -0.29994600 -0.43954300 -0.11486500
v -0.29219200 -0.42817200 -0.09512570
v -0.30071400 -0.29564400 -0.11210800
v -0.29219200 -0.30585000 -0.09512570
v -0.20515500 -0.21913100 0.06047010
v -0.21786800 -0.21913100 0.03632020
v -0.22296800 -0.21913100 0.02617510
v 0.30833600 -0.21913100 -0.30453500
v 0.31092100 -0.22428800 -0.30326700
v 0.31350500 -0.21913100 -0.29681600
v 0.31853500 -0.21913100 -0.28926200
v 0.31853500 -0.21913100 -0.25987400
v 0.32279600 -0.22769700 -0.26842000
v 0.34319300 -0.30923800 -0.26842000
v 0.34654600 -0.32624100 -0.26505700
v 0.34654600 -0.43954300 -0.24465700
v -0.29617400 -0.43954300 -0.10852400
v -0.29128400 -0.43954300 -0.10036400
v -0.23107100 -0.43954300 -0.01363360
v -0.21067300 -0.32624100 0.04756810
v -0.19027600 -0.24467900 0.08831420
v -0.19027600 -0.21913100 0.08831420
v 0.28542400 -0.21913100 0.04073120
v 0.34654600 -0.38739100 -0.24465700
v 0.30582200 -0.42817200 -0.04081610
v 0.30582200 -0.43954300 -0.05217420
v -0.19027600 -0.43954300 0.02716750
v -0.19027600 -0.38739100 0.04756810
v -0.19362900 -0.35679400 0.05605920
v -0.15290500 -0.35679400 0.09680520
v -0.16987900 -0.32624100 0.08831420
v -0.14270600 -0.34661000 0.10954200
v -0.12908500 -0.22428800 0.14951600
v -0.12908500 -0.21913100 0.14951600
v 0.25902000 -0.21913100 0.09840420
v 0.28542400 -0.26506900 0.04073120
v 0.30582200 -0.34661000 -0.04081610
v 0.27864900 -0.27186600 0.05434990
v 0.29897600 -0.43496900 -0.02719730
v 0.29946500 -0.43954300 -0.03105690
v 0.30323700 -0.43954300 -0.04081610
v -0.17064700 -0.43954300 0.04034520
v -0.13250800 -0.33640400 0.11720600
v -0.07131620 -0.23449400 0.17835200
v -0.12230900 -0.24467900 0.15034300
v -0.16310300 -0.43954300 0.04414970
v -0.11211000 -0.35679400 0.11720600
v -0.11211000 -0.23449400 0.15800700
v -0.11553300 -0.22428800 0.15629800
v -0.11553300 -0.21913100 0.15629800
v 0.25140600 -0.21913100 0.10871500
v 0.25140600 -0.23788200 0.10871500
v 0.25825100 -0.25147500 0.09509600
v 0.25825100 -0.33301600 0.07475050
v 0.27864900 -0.43496900 0.01354880
v 0.27906800 -0.43954300 0.00968919
v -0.07131620 -0.21913100 0.17840800
v -0.07473900 -0.22428800 0.17669800
v -0.02032330 -0.21913100 0.19379100
v -0.13369500 -0.43954300 0.05512190
v 0.01013270 -0.35679400 0.13760600
v -0.07473900 -0.21913100 0.17669800
v 0.23100900 -0.21913100 0.12911500
v 0.23100900 -0.23788200 0.12911500
v 0.25140600 -0.31944400 0.08831420
v 0.25825100 -0.39418700 0.05434990
v 0.25140600 -0.43954300 0.04756810
v 0.27508600 -0.43954300 0.01641590
v 0.02033130 -0.34661000 0.14267900
v 0.10192000 -0.21913100 0.19627200
v -0.01138210 -0.43954300 0.07552250
v 0.04072840 -0.43954300 0.08153240
v 0.02033130 -0.36020300 0.13589700
v 0.16311100 -0.36020300 0.13589700
v 0.16311100 -0.34661000 0.14267900
v 0.21019200 -0.21913100 0.14940600
v 0.20900500 -0.21913100 0.15034300
v 0.20034300 -0.21913100 0.15712500
v 0.21745700 -0.25147500 0.13589700
v 0.25140600 -0.38059400 0.06791360
v 0.23785400 -0.33301600 0.09509600
v 0.23785400 -0.39418700 0.07475050
v 0.23443200 -0.41287300 0.07133210
v 0.22025100 -0.43954300 0.07122180
v 0.11176900 -0.21913100 0.19379100
v 0.11093100 -0.43954300 0.08489570
v 0.13579900 -0.43954300 0.08605360
v 0.16311100 -0.43954300 0.08605360
v 0.18343900 -0.43954300 0.08351730
v 0.19245000 -0.43954300 0.08153240
v 0.20383600 -0.43954300 0.07899610
v 0.17324000 -0.36188600 0.13247900
v 0.17666300 -0.35340600 0.13589700
v 0.14271400 -0.22428800 0.18348000
v 0.11211800 -0.21919600 0.19368000
v 0.15954900 -0.21913100 0.17752500
v 0.19706000 -0.23108500 0.15629800
v 0.23443200 -0.35170200 0.09173260
v 0.21354500 -0.43954300 0.07519160
v 0.11211800 -0.21913100 0.19368000
v 0.15626600 -0.23108500 0.17669800
v 0.14858200 -0.21913100 0.18199100
f 101 109 110
f 106 115 116
f 105 114 115
f 105 113 114
f 102 123 111
f 102 110 123
f 102 111 112
f 105 115 106
f 100 109 101
f 88 108 90
f 98 109 99
f 94 96 95
f 90 108 91
f 89 90 91
f 88 107 108
f 88 106 107
f 106 116 117
f 88 104 105
f 99 109 100
f 106 117 107
f 113 116 114
f 107 118 119
f 88 103 104
f 118 128 132
f 118 131 119
f 118 130 131
f 118 129 130
f 116 118 117
f 114 116 115
f 113 118 116
f 113 128 118
f 107 117 118
f 111 127 112
f 111 125 126
f 111 124 125
f 111 122 124
f 109 123 110
f 109 111 123
f 109 122 111
f 109 121 122
f 107 120 108
f 107 119 120
f 111 126 127
f 87 103 88
f 68 84 85
f 84 102 86
f 72 87 88
f 70 72 71
f 70 87 72
f 68 86 69
f 68 85 86
f 118 132 133
f 68 83 84
f 67 79 80
f 67 83 68
f 67 82 83
f 67 81 82
f 67 80 81
f 66 79 67
f 65 79 66
f 63 76 64
f 62 77 78
f 62 75 77
f 62 76 63
f 61 75 62
f 72 88 90
f 72 90 73
f 73 89 77
f 73 77 74
f 84 110 102
f 84 101 110
f 84 100 101
f 82 84 83
f 82 100 84
f 81 100 82
f 81 99 100
f 81 98 99
f 81 97 98
f 84 86 85
f 81 96 97
f 80 95 81
f 79 95 80
f 79 94 95
f 77 93 78
f 77 92 93
f 77 91 92
f 77 89 91
f 74 77 75
f 73 90 89
f 81 95 96
f 118 133 129
f 140 152 141
f 119 134 135
f 160 179 161
f 160 178 179
f 160 177 178
f 160 176 177
f 160 175 176
f 160 174 175
f 159 174 160
f 159 173 174
f 159 172 173
f 158 172 159
f 156 161 171
f 155 161 156
f 153 169 170
f 153 166 169
f 152 166 153
f 151 168 166
f 151 167 168
f 151 165 167
f 151 166 152
f 161 179 187
f 161 187 180
f 161 180 181
f 161 181 171
f 181 188 186
f 180 188 181
f 180 182 188
f 180 187 182
f 179 183 187
f 177 179 178
f 177 185 179
f 171 181 186
f 170 179 185
f 150 165 151
f 169 179 170
f 168 184 169
f 167 179 184
f 167 184 168
f 166 168 169
f 165 179 167
f 165 183 179
f 164 183 165
f 164 187 183
f 164 182 187
f 169 184 179
f 119 131 134
f 150 164 165
f 150 162 163
f 133 146 147
f 132 146 133
f 130 145 143
f 130 133 145
f 130 134 131
f 130 144 134
f 130 143 144
f 129 133 130
f 126 141 142
f 125 141 126
f 124 141 125
f 124 140 141
f 124 139 140
f 121 124 122
f 121 139 124
f 121 138 139
f 121 137 138
f 119 136 120
f 119 135 136
f 133 147 145
f 134 144 135
f 135 144 148
f 135 148 136
f 149 162 150
f 147 157 158
f 147 161 155
f 147 160 161
f 147 159 160
f 147 158 159
f 146 157 147
f 145 155 156
f 145 147 155
f 150 163 164
f 143 148 144
f 141 153 154
f 141 152 153
f 61 74 75
f 140 151 152
f 138 140 139
f 138 151 140
f 138 150 151
f 137 150 138
f 137 149 150
f 141 154 142
f 61 73 74
f 88 105 106
f 60 72 73
f 7 15 17
f 7 16 15
f 7 39 18
f 7 49 39
f 7 50 49
f 7 51 50
f 7 65 51
f 7 79 65
f 7 94 79
f 7 96 94
f 7 97 96
f 7 98 97
f 7 109 98
f 7 121 109
f 7 137 121
f 7 149 137
f 7 162 149
f 7 163 162
f 7 164 163
f 8 18 19
f 9 20 21
f 9 22 23
f 9 23 24
f 15 36 37
f 15 35 36
f 15 34 35
f 14 34 15
f 14 33 34
f 13 33 14
f 13 32 33
f 13 30 32
f 12 31 28
f 7 182 164
f 12 27 31
f 12 29 30
f 12 28 29
f 11 25 26
f 11 27 12
f 11 26 27
f 10 25 11
f 10 41 25
f 10 21 41
f 9 24 20
f 12 30 13
f 15 37 38
f 7 188 182
f 7 171 186
f 4 13 14
f 4 12 13
f 4 11 12
f 3 10 11
f 3 21 10
f 3 9 21
f 2 18 8
f 2 7 18
f 2 6 7
f 60 73 61
f 1 5 2
f 1 4 5
f 1 11 4
f 1 3 11
f 1 9 3
f 1 22 9
f 1 19 22
f 1 8 19
f 1 2 8
f 4 14 5
f 5 14 15
f 5 15 16
f 5 16 6
f 7 156 171
f 7 145 156
f 7 143 145
f 7 148 143
f 7 136 148
f 7 120 136
f 7 108 120
f 7 91 108
f 7 92 91
f 7 186 188
f 7 93 92
f 7 62 78
f 7 76 62
f 7 64 76
f 7 48 64
f 7 36 48
f 7 37 36
f 7 38 37
f 7 17 38
f 6 16 7
f 7 78 93
f 15 38 17
f 2 5 6
f 18 39 40
f 43 53 54
f 40 43 42
f 40 53 43
f 40 66 53
f 40 52 66
f 40 51 52
f 40 50 51
f 40 49 50
f 39 49 40
f 35 48 36
f 35 47 48
f 34 47 35
f 34 45 47
f 34 46 45
f 32 34 33
f 32 46 34
f 30 46 32
f 30 45 46
f 29 45 30
f 43 54 55
f 43 55 56
f 43 56 57
f 44 58 45
f 18 22 19
f 60 71 72
f 60 70 71
f 59 70 60
f 57 68 69
f 56 67 68
f 54 56 55
f 54 67 56
f 54 66 67
f 29 44 45
f 53 66 54
f 51 65 52
f 47 64 48
f 47 63 64
f 47 62 63
f 47 61 62
f 45 61 47
f 45 60 61
f 45 59 60
f 45 58 59
f 52 65 66
f 28 44 29
f 56 68 57
f 23 25 41
f 23 185 177
f 23 170 185
f 23 153 170
f 23 154 153
f 23 142 154
f 23 126 142
f 23 127 126
f 23 112 127
f 23 102 112
f 23 86 102
f 23 69 86
f 23 57 69
f 23 43 57
f 23 42 43
f 22 42 23
f 22 40 42
f 20 41 21
f 23 41 24
f 18 40 22
f 23 177 176
f 23 176 175
f 20 24 41
f 23 174 173
f 23 175 174
f 23 31 27
f 23 28 31
f 23 44 28
f 23 58 44
f 23 59 58
f 23 70 59
f 23 87 70
f 23 103 87
f 23 26 25
f 23 105 104
f 23 173 172
f 23 104 103
f 23 172 158
f 23 158 157
f 23 157 146
f 23 27 26
f 23 146 132
f 23 132 128
f 23 128 113
f 23 113 105

