# https://github.com/mikedh/trimesh
v 0.14959300 0.34698000 -0.06231540
v 0.15460700 0.38625600 -0.06231540
v 0.26462300 0.34698000 -0.06231540
v 0.14291800 0.34698000 0.24463900
v 0.12536800 0.54444200 0.14573100
v 0.13047600 0.54444200 0.11630300
v 0.18293800 0.54444200 -0.06231540
v 0.13171400 0.54444200 0.11133300
v 0.13556900 0.54444200 0.09588040
v 0.13986200 0.54444200 0.07869930
v 0.28486900 0.44741200 -0.06231540
v 0.26504700 0.34698000 -0.06116280
v 0.14291800 0.34698000 0.24499900
v 0.12820400 0.54444200 0.15844500
v 0.28544800 0.54444200 -0.06231540
v 0.28501000 0.44855200 -0.06231540
v 0.28544800 0.44855200 -0.06116280
v 0.28544800 0.38739600 0.00003363
v 0.28544800 0.36702400 0.02042040
v 0.28544800 0.34698000 0.04080720
v 0.15028200 0.34698000 0.26466600
v 0.13047600 0.54444200 0.16716200
v 0.28544800 0.46894400 -0.06231540
v 0.28544800 0.54444200 0.08158080
v 0.28544800 0.34698000 0.16309200
v 0.15065900 0.34698000 0.26542200
v 0.14782200 0.54444200 0.20037200
v 0.26504700 0.54444200 0.16309200
v 0.28544800 0.48933600 0.12231800
v 0.28544800 0.36702400 0.16309200
v 0.28016800 0.34698000 0.18383900
v 0.16294300 0.34698000 0.28505300
v 0.15802300 0.35681800 0.27521900
v 0.16366400 0.34698000 0.28580900
v 0.17840900 0.35681800 0.29564200
v 0.16147100 0.54444200 0.21020500
v 0.25788600 0.54444200 0.17742800
v 0.25486100 0.35681800 0.25483300
v 0.26504700 0.36702400 0.22425200
v 0.25976600 0.34698000 0.24499900
v 0.18086900 0.34698000 0.30054100
v 0.16311600 0.54444200 0.21103300
v 0.25146100 0.54444200 0.19028600
v 0.24867200 0.34698000 0.26906000
v 0.18138700 0.34698000 0.30068500
v 0.20390400 0.54444200 0.21103300
v 0.19710300 0.36022000 0.29902800
v 0.20371600 0.34698000 0.30565500
v 0.22427400 0.54444200 0.20707100
v 0.23107500 0.35341600 0.29222000
v 0.23107500 0.34698000 0.29222000
v 0.21067300 0.37380800 0.29222000
v 0.20426400 0.34698000 0.30543900
v 0.22463500 0.34698000 0.29542600
f 22 26 27
f 24 28 29
f 25 30 31
f 26 32 33
f 28 37 38
f 27 33 32
f 27 34 35
f 21 26 22
f 27 35 36
f 26 33 27
f 27 32 34
f 15 25 20
f 15 17 23
f 15 18 17
f 15 19 18
f 15 20 19
f 15 30 25
f 15 29 30
f 15 24 29
f 13 22 14
f 13 21 22
f 28 38 39
f 12 19 20
f 16 23 17
f 28 39 29
f 43 49 50
f 30 39 40
f 12 18 19
f 50 54 51
f 50 53 54
f 50 52 53
f 49 52 50
f 48 53 52
f 46 52 49
f 46 48 52
f 45 48 47
f 44 50 51
f 43 50 44
f 42 48 46
f 42 47 48
f 42 45 47
f 41 45 42
f 38 43 44
f 38 40 39
f 38 44 40
f 37 43 38
f 35 42 36
f 35 41 42
f 34 41 35
f 30 40 31
f 29 39 30
f 12 17 18
f 1 31 40
f 11 16 17
f 1 21 13
f 1 26 21
f 1 32 26
f 1 34 32
f 1 41 34
f 1 45 41
f 1 48 45
f 1 53 48
f 1 54 53
f 1 51 54
f 1 13 4
f 1 44 51
f 1 25 31
f 1 20 25
f 1 12 20
f 1 3 12
f 1 11 3
f 1 16 11
f 1 23 16
f 1 15 23
f 1 7 15
f 11 17 12
f 1 40 44
f 1 4 5
f 1 2 7
f 1 6 2
f 1 5 6
f 5 8 6
f 5 9 8
f 5 10 9
f 5 7 10
f 5 15 7
f 5 24 15
f 5 28 24
f 5 37 28
f 5 43 37
f 5 49 43
f 5 13 14
f 5 42 46
f 5 46 49
f 2 6 8
f 2 9 10
f 2 10 7
f 3 11 12
f 2 8 9
f 5 14 22
f 5 22 27
f 5 27 36
f 5 36 42
f 4 13 5

