# https://github.com/mikedh/trimesh
v -0.16310700 0.32622100 -0.36700500
v -0.15289600 0.29563600 -0.35678200
v -0.16989300 0.29903400 -0.35338500
v -0.19028400 0.31942500 -0.35338500
v -0.17668000 0.33301800 -0.36018000
v -0.14466500 0.34697000 -0.36237700
v -0.12232600 0.34661100 -0.36700500
v -0.12232600 0.30583100 -0.36700500
v -0.18745600 0.24240900 -0.30980000
v -0.12911300 0.27865500 -0.35338500
v -0.19367700 0.25486600 -0.31600900
v -0.20803500 0.34697000 -0.33036200
v -0.18773900 0.34697000 -0.34799500
v -0.21158500 0.24240900 -0.29313300
v -0.25114100 0.24240900 -0.25019300
v -0.25371700 0.24240900 -0.24691200
v -0.18349700 0.34697000 -0.35104100
v -0.12521700 0.34697000 -0.36627300
v -0.12232600 0.34697000 -0.36680000
v -0.08157680 0.34661100 -0.36700500
v 0.02037520 0.30583100 -0.36700500
v -0.16536900 0.24240900 -0.31489600
v 0.01358890 0.27865500 -0.35338500
v 0.05590920 0.25795700 -0.33332000
v -0.12911300 0.25826400 -0.33299800
v -0.23106500 0.33981500 -0.29222500
v -0.23106500 0.34697000 -0.29222500
v -0.26505900 0.24240900 -0.22427000
v -0.08119980 0.34697000 -0.36680000
v 0.05094510 0.33641600 -0.36187900
v 0.04076560 0.32622100 -0.36700500
v 0.04331050 0.30583100 -0.36187900
v 0.02716160 0.29224800 -0.36018000
v 0.05590920 0.24240900 -0.31489600
v 0.04585540 0.29563600 -0.35678200
v 0.05590920 0.28545100 -0.34776100
v -0.23464600 0.34697000 -0.28507800
v -0.26505900 0.24240900 -0.18352600
v -0.26505900 0.24467100 -0.22427000
v -0.24466900 0.34661100 -0.26504300
v 0.04076560 0.34697000 -0.35660700
v 0.05590920 0.34135000 -0.35449800
v 0.05590920 0.32622100 -0.35941900
v 0.05590920 0.34697000 -0.34905000
v 0.05590920 0.31589300 -0.35687000
v 0.05590920 0.24240900 -0.12233800
v -0.24466900 0.34697000 -0.26504300
v -0.26505900 0.24467100 -0.18352600
v -0.22427800 0.24240900 -0.06776860
v -0.25993800 0.27525600 -0.21410600
v 0.05590920 0.34697000 -0.12233800
v -0.13995200 0.34697000 -0.06776860
v -0.14403600 0.24240900 -0.06776860
v -0.24466900 0.34697000 -0.20353200
v -0.22427800 0.31961900 -0.06776860
v -0.21950300 0.34108400 -0.06776860
v -0.21915700 0.34255800 -0.06776860
v -0.21585800 0.34697000 -0.06776860
f 24 43 42
f 24 42 44
f 24 44 51
f 24 51 46
f 26 37 27
f 26 28 37
f 28 38 48
f 28 48 39
f 24 45 43
f 28 39 47
f 24 46 34
f 24 36 45
f 21 31 32
f 24 33 35
f 23 33 24
f 22 24 34
f 22 25 24
f 21 33 23
f 21 32 33
f 20 30 31
f 20 29 30
f 16 28 26
f 12 26 27
f 28 47 40
f 24 35 36
f 28 40 37
f 48 55 56
f 30 42 43
f 12 16 26
f 49 56 55
f 49 57 56
f 49 58 57
f 49 52 58
f 54 57 58
f 48 57 54
f 48 56 57
f 48 54 50
f 47 50 54
f 46 52 53
f 46 51 52
f 39 50 47
f 39 48 50
f 38 55 48
f 38 49 55
f 37 40 47
f 32 35 33
f 32 36 35
f 32 45 36
f 32 43 45
f 31 43 32
f 30 44 42
f 30 41 44
f 30 43 31
f 29 41 30
f 10 25 22
f 49 53 52
f 10 23 24
f 6 13 12
f 6 17 13
f 5 17 6
f 5 13 17
f 4 16 12
f 4 15 16
f 4 14 15
f 4 11 14
f 4 13 5
f 4 12 13
f 3 11 4
f 3 9 11
f 2 10 9
f 2 8 10
f 2 9 3
f 1 8 2
f 1 21 8
f 1 31 21
f 1 20 31
f 1 6 7
f 1 5 6
f 1 4 5
f 1 3 4
f 1 2 3
f 10 24 25
f 6 12 27
f 6 27 37
f 1 7 20
f 6 47 54
f 6 37 47
f 9 14 11
f 9 15 14
f 9 16 15
f 9 38 28
f 9 49 38
f 9 53 49
f 9 46 53
f 9 34 46
f 9 22 34
f 9 10 22
f 8 23 10
f 9 28 16
f 7 29 20
f 8 21 23
f 6 58 52
f 6 52 51
f 6 44 41
f 6 41 29
f 6 51 44
f 6 29 19
f 6 19 18
f 6 18 7
f 7 18 19
f 7 19 29
f 6 54 58

