# https://github.com/mikedh/trimesh
v -0.12229900 0.12232900 -0.36700500
v -0.12229900 0.16311100 -0.36700500
v -0.10193000 0.12232900 -0.36700500
v -0.20388400 0.00118680 -0.36640700
v -0.12229900 0.19029200 -0.35340400
v 0.13360900 0.24240900 -0.33529000
v -0.10193000 0.16311100 -0.36700500
v -0.20620100 0.00118680 -0.36583900
v -0.18346100 0.16311100 -0.34658900
v -0.18346100 0.18604100 -0.34150700
v -0.16190600 0.00118680 -0.36640700
v -0.00002995 0.14270800 -0.36700500
v -0.18744800 0.24240900 -0.30979200
v -0.16535500 0.24240900 -0.31487400
v 0.14045300 0.24240900 -0.33529000
v -0.19709400 0.16988900 -0.33980300
v -0.25825500 0.00118680 -0.33980300
v -0.25825500 0.02718630 -0.33980300
v -0.19364500 0.18859100 -0.33639600
v 0.09173930 0.13250700 -0.36189300
v 0.14271600 0.00118680 -0.33582800
v -0.21158900 0.24240900 -0.29314200
v 0.16211500 0.24240900 -0.32934100
v -0.26386000 0.00118680 -0.33699400
v -0.27129600 0.00118680 -0.33080600
v -0.27582300 0.00118680 -0.32503700
v -0.27862500 0.00680704 -0.31941700
v -0.27523000 0.02550970 -0.31601000
v -0.25372900 0.24240900 -0.24693000
v -0.25114200 0.24240900 -0.25018800
v 0.18658000 0.24240900 -0.31998500
v 0.16427100 0.00118680 -0.33239000
v 0.15958300 0.00118680 -0.33370600
v -0.28579200 0.00118680 -0.31122700
v -0.28902500 0.00118680 -0.30581700
v -0.25825500 0.24240900 -0.23787300
v 0.19450100 0.24240900 -0.30808800
v 0.23895800 0.00118680 -0.24749800
v 0.19816600 0.00118680 -0.30865600
v -0.30174200 0.00118680 -0.26504400
v -0.30583700 0.04078830 -0.24465800
v -0.29899400 0.04758930 -0.25825900
v -0.26504500 0.24240900 -0.22427200
v 0.19676500 0.24240900 -0.30357500
v 0.24467000 0.22427300 -0.20391600
v 0.23955100 0.00118680 -0.24603300
v -0.29829300 0.00118680 -0.24450900
v -0.30583700 0.04078830 -0.22427200
v -0.30583700 0.06116760 -0.22427200
v -0.30071800 0.06371800 -0.24465800
v -0.26504500 0.24240900 -0.18352900
v 0.20274600 0.24240900 -0.28770200
v 0.23782600 0.23785100 -0.21070100
v 0.23647900 0.24240900 -0.06163080
v 0.24467000 0.22427300 -0.18352900
v 0.24467000 0.00118680 -0.22310600
v -0.26504500 0.00118680 -0.10195500
v -0.25189700 0.00118680 -0.06163080
v -0.24451400 0.16268600 -0.06163080
v -0.24440700 0.16332400 -0.06163080
v -0.23950300 0.18549800 -0.06163080
v -0.22425300 0.24240900 -0.06163080
v 0.22877300 0.24240900 -0.20615700
v 0.24429300 0.00118680 -0.06163080
v 0.24467000 0.20387000 -0.16314300
v 0.24467000 0.00118680 -0.20391600
v 0.24467000 0.18349100 -0.16314300
f 29 35 36
f 31 37 38
f 31 38 39
f 31 39 32
f 35 40 41
f 35 43 36
f 35 42 43
f 37 44 38
f 38 45 46
f 38 44 45
f 40 47 48
f 29 34 35
f 35 41 42
f 64 67 65
f 20 23 31
f 27 34 28
f 26 34 27
f 20 33 21
f 20 32 33
f 20 31 32
f 18 22 19
f 18 30 22
f 18 29 30
f 18 28 29
f 18 27 28
f 18 26 27
f 18 25 26
f 18 24 25
f 41 48 49
f 28 34 29
f 41 49 50
f 49 58 59
f 42 50 43
f 17 24 18
f 64 66 67
f 54 58 64
f 54 59 58
f 54 60 59
f 54 61 60
f 54 62 61
f 54 65 55
f 54 64 65
f 53 63 54
f 52 63 53
f 51 61 62
f 51 60 61
f 51 59 60
f 49 59 51
f 48 58 49
f 48 57 58
f 47 57 48
f 45 56 46
f 45 66 56
f 45 67 66
f 45 65 67
f 45 55 65
f 45 54 55
f 45 53 54
f 44 53 45
f 44 52 53
f 43 49 51
f 43 50 49
f 41 50 42
f 16 18 19
f 40 48 41
f 13 19 22
f 4 35 34
f 4 40 35
f 4 47 40
f 4 57 47
f 4 58 57
f 4 64 58
f 4 66 64
f 4 56 66
f 4 46 56
f 4 38 46
f 4 39 38
f 4 32 39
f 4 33 32
f 4 21 33
f 4 11 21
f 3 12 11
f 2 10 5
f 2 9 10
f 2 8 9
f 2 15 7
f 2 6 15
f 2 5 6
f 1 4 2
f 1 11 4
f 1 3 11
f 1 12 3
f 1 7 12
f 1 2 7
f 15 23 20
f 4 34 26
f 4 26 25
f 2 4 8
f 4 24 17
f 4 25 24
f 12 15 20
f 11 20 21
f 11 12 20
f 10 19 13
f 10 16 19
f 9 16 10
f 8 17 18
f 8 16 9
f 7 15 12
f 6 23 15
f 6 31 23
f 6 37 31
f 6 44 37
f 6 52 44
f 8 18 16
f 6 54 63
f 4 17 8
f 6 63 52
f 5 10 13
f 5 13 14
f 5 14 6
f 6 13 22
f 6 22 30
f 6 14 13
f 6 30 29
f 6 29 36
f 6 36 43
f 6 43 51
f 6 51 62
f 6 62 54

