# https://github.com/mikedh/trimesh
v 0.03104620 0.64225200 -0.38182100
v 0.03104620 0.63206200 -0.37003700
v 0.03056040 0.64225200 -0.38229200
v -0.07021530 0.58224700 -0.32961100
v 0.03104620 0.58449200 -0.31261400
v 0.03104620 0.58224700 -0.30812200
v -0.07637280 0.58223900 -0.07403070
v -0.18349600 0.58223900 -0.07403070
v -0.12233000 0.58224700 -0.33074800
v -0.09515280 0.58224700 -0.33074800
v -0.01359310 0.63885800 -0.38057300
v -0.03399650 0.63885800 -0.38057300
v -0.04079760 0.65244900 -0.38739400
v -0.02039420 0.65244900 -0.38739400
v -0.02039420 0.69324000 -0.38739400
v -0.14270700 0.67285200 -0.38739400
v -0.14950800 0.64565300 -0.37378000
v -0.23106800 0.62526600 -0.33302100
v -0.21066400 0.64565300 -0.35340100
v -0.22766700 0.64905500 -0.34999000
v -0.23106800 0.66604900 -0.35340100
v -0.20389000 0.67285200 -0.36698700
v -0.14270700 0.69324000 -0.38739400
v -0.20389000 0.71361800 -0.36698700
v -0.21746500 0.72041100 -0.36019400
v -0.20389000 0.73655300 -0.36188500
v -0.21406500 0.73910100 -0.35678300
v -0.23786900 0.67964500 -0.33981400
v -0.24467000 0.65244900 -0.32620000
v -0.24467000 0.67285200 -0.32620000
v -0.21916600 0.73655300 -0.34660700
v -0.21406500 0.74930000 -0.33640400
v -0.21746500 0.74760100 -0.32620000
v -0.22426700 0.73400600 -0.32620000
v -0.22426700 0.73400600 -0.28544100
v -0.24467000 0.67285200 -0.30582100
v -0.21916600 0.74419500 -0.27523800
v -0.21746500 0.74760100 -0.28544100
v -0.20389000 0.75439400 -0.28544100
v -0.19036900 0.75636600 -0.20755600
v -0.19878900 0.74419500 -0.21409900
v -0.13931000 0.75636600 -0.07403070
v -0.17825100 0.75636600 -0.30058000
v -0.20389000 0.75439400 -0.32620000
v -0.18348700 0.75439400 -0.34660700
v -0.19368800 0.74930000 -0.35678300
v -0.18348700 0.74760100 -0.36019400
v -0.16311000 0.74760100 -0.36019400
v -0.12233000 0.72721300 -0.38057300
v -0.12233000 0.71361800 -0.38739400
v -0.18348700 0.73400600 -0.36698700
v -0.14270700 0.71616600 -0.38229200
v -0.11212900 0.72380700 -0.38229200
v -0.01021950 0.70342900 -0.38229200
v 0.00413848 0.75636600 -0.32284500
v 0.00967115 0.75636600 -0.32062700
v 0.03104620 0.75636600 -0.30975800
v -0.01842400 0.75636600 -0.32719900
v -0.16311000 0.75439400 -0.34660700
v -0.10211600 0.75636600 -0.32833500
v 0.01133890 0.75636600 -0.07403070
v -0.16311300 0.69321600 -0.07403070
v -0.18349600 0.63207700 -0.07403070
v -0.21916600 0.72380700 -0.25485800
v -0.21916600 0.60148500 -0.15293300
v -0.22426700 0.59128700 -0.16313700
v -0.22426700 0.58224700 -0.16313700
v -0.24467000 0.63206200 -0.28544100
v -0.24467000 0.63206200 -0.30582100
v -0.24126900 0.61507600 -0.28203100
v -0.22766700 0.58224700 -0.19255500
v -0.22880100 0.58224700 -0.21748200
v -0.23050100 0.58224700 -0.26589400
v -0.23446800 0.60148500 -0.29561700
v -0.24126900 0.63545600 -0.32281800
v -0.22426700 0.58224700 -0.28544100
v -0.21581900 0.58224700 -0.28965600
v -0.14143800 0.58224700 -0.32492500
v 0.03104620 0.58224700 -0.12235000
v 0.03104620 0.75636600 -0.11955000
v 0.03104620 0.72334500 -0.34139500
v 0.03104620 0.72404300 -0.34092300
v 0.03056040 0.72380700 -0.34150600
v 0.03104620 0.69678700 -0.35622900
v 0.03104620 0.68968300 -0.35977800
v 0.03104620 0.64271600 -0.38193200
f 65 66 63
f 75 18 74
f 66 67 63
f 66 68 67
f 36 68 66
f 36 29 68
f 30 29 36
f 69 68 29
f 72 8 71
f 70 71 68
f 72 71 70
f 72 73 8
f 72 70 73
f 70 74 73
f 70 69 74
f 75 74 69
f 65 36 66
f 70 68 69
f 64 41 37
f 55 53 49
f 64 36 65
f 75 21 18
f 53 50 49
f 58 49 48
f 58 48 59
f 58 59 60
f 58 60 57
f 60 43 57
f 60 45 43
f 60 59 45
f 48 45 59
f 44 43 45
f 43 42 57
f 42 61 57
f 42 62 61
f 41 62 42
f 41 63 62
f 64 65 63
f 64 37 36
f 75 29 21
f 17 19 20
f 18 76 74
f 82 57 81
f 82 83 57
f 82 81 83
f 84 83 81
f 84 54 83
f 84 85 54
f 84 81 85
f 85 81 1
f 86 85 1
f 86 54 85
f 86 3 54
f 86 1 3
f 3 15 54
f 83 54 57
f 23 24 26
f 17 20 16
f 55 49 58
f 81 57 1
f 6 1 57
f 80 57 61
f 80 6 57
f 18 77 76
f 18 78 77
f 18 9 78
f 9 8 78
f 8 76 78
f 73 76 8
f 73 74 76
f 77 78 76
f 75 69 29
f 71 8 67
f 63 67 8
f 63 8 62
f 8 7 62
f 62 7 61
f 79 61 7
f 79 80 61
f 79 6 80
f 79 7 6
f 71 67 68
f 55 58 57
f 64 63 41
f 56 57 54
f 9 17 12
f 18 17 9
f 18 19 17
f 18 20 19
f 21 20 18
f 22 20 21
f 22 16 20
f 22 23 16
f 22 24 23
f 22 21 24
f 25 24 21
f 25 26 24
f 25 27 26
f 25 28 27
f 25 21 28
f 28 21 29
f 30 28 29
f 13 17 16
f 13 16 15
f 14 13 15
f 14 15 3
f 56 55 57
f 2 3 1
f 2 4 3
f 2 5 4
f 2 1 5
f 5 1 6
f 5 6 4
f 4 6 7
f 31 28 30
f 8 4 7
f 10 4 9
f 10 3 4
f 10 11 3
f 10 9 11
f 11 9 12
f 3 11 12
f 13 3 12
f 14 3 13
f 9 4 8
f 31 27 28
f 13 12 17
f 31 33 32
f 46 26 27
f 46 47 26
f 46 45 47
f 47 45 48
f 47 48 49
f 47 49 50
f 56 54 55
f 51 26 47
f 32 46 27
f 51 50 26
f 52 23 26
f 52 50 23
f 23 50 16
f 15 16 50
f 53 15 50
f 53 54 15
f 55 54 53
f 31 32 27
f 52 26 50
f 32 45 46
f 51 47 50
f 32 33 44
f 32 44 45
f 34 35 33
f 34 30 35
f 34 31 30
f 35 30 36
f 35 36 37
f 38 35 37
f 38 33 35
f 38 39 33
f 34 33 31
f 38 37 40
f 40 37 41
f 40 41 42
f 40 42 43
f 44 40 43
f 44 39 40
f 33 39 44
f 38 40 39

