# https://github.com/mikedh/trimesh
v 0.05590920 0.28545100 0.38739400
v 0.05590920 0.30280100 0.38436400
v 0.04075670 0.30583100 0.38739400
v 0.02036700 0.28545100 0.38739400
v 0.05590920 0.24240900 0.36698800
v 0.05590920 0.31602600 0.37719100
v -0.00002275 0.30583100 0.38739400
v 0.02716350 0.33301800 0.37376100
v 0.01018680 0.27525600 0.38227000
v 0.04075670 0.24240900 0.36698800
v 0.05590920 0.24240900 0.19933200
v 0.05590920 0.32375400 0.36449300
v 0.04416970 0.32962000 0.37037500
v -0.01020290 0.29563600 0.38227000
v -0.00681933 0.31942500 0.38057700
v -0.04333250 0.32622100 0.36186500
v -0.06798850 0.30583100 0.35339900
v -0.16990800 0.24467100 0.31263300
v -0.14272100 0.24467100 0.32622200
v -0.14272100 0.24240900 0.32622200
v 0.00677382 0.33301800 0.37376100
v 0.02036700 0.34661100 0.34658300
v -0.00002275 0.26506100 0.37460700
v 0.01810140 0.24240900 0.36583000
v 0.02036700 0.24240900 0.36614200
v 0.05590920 0.32117500 0.33125600
v -0.14404500 0.24240900 -0.06772410
v -0.13995600 0.34697000 -0.06772410
v 0.05590920 0.32468600 0.36173100
v 0.04755330 0.33301800 0.35339900
v -0.02720900 0.33981500 0.36017200
v -0.04589230 0.33641600 0.35678600
v -0.17064300 0.24240900 0.30995900
v -0.16970200 0.24240900 0.31156300
v -0.15631500 0.24240900 0.31940500
v -0.08837820 0.32622100 0.33299400
v -0.19029700 0.28545100 0.27182100
v -0.22428000 0.28545100 0.20387700
v -0.22428000 0.24467100 0.20387700
v -0.20389100 0.24240900 0.24464300
v -0.18423600 0.24240900 0.28394000
v -0.10376600 0.34697000 0.22463900
v -0.10376600 0.34697000 0.24281700
v -0.02041250 0.34661100 0.34658300
v 0.05590920 0.32885200 0.34921100
v 0.03396010 0.33981500 0.33981100
v -0.13477700 0.34697000 -0.04041250
v -0.12233200 0.34697000 0.04080930
v 0.05590920 0.32622100 0.34132500
v -0.22428000 0.24240900 -0.06772410
v -0.21586500 0.34697000 -0.06772410
v -0.06798850 0.33981500 0.33981100
v -0.07646210 0.33641600 0.33638000
v -0.19877100 0.33641600 0.23444100
v -0.19877100 0.29563600 0.25484600
v -0.21916100 0.29563600 0.21407900
v -0.21916100 0.33641600 0.19367400
v -0.22428000 0.32622100 0.18347100
v -0.24467000 0.24467100 0.08157610
v -0.24467000 0.24240900 0.08157610
v -0.22428000 0.24240900 0.20160400
v -0.22369200 0.24240900 0.20414400
v -0.18311800 0.34697000 0.23426200
v -0.06119190 0.34661100 0.32622200
v -0.22428000 0.31961900 -0.06772410
v -0.24063900 0.24240900 0.01612640
v -0.21916100 0.34255800 -0.06772410
v -0.21916100 0.34697000 -0.06331320
v -0.08411200 0.34151400 0.32622200
v -0.19029700 0.33981500 0.23787100
v -0.19603500 0.34697000 0.22414900
v -0.19632900 0.34697000 0.22388100
v -0.21107000 0.34697000 0.20423300
v -0.21151100 0.34661100 0.20387700
v -0.22428000 0.34697000 0.16311000
v -0.24467000 0.24467100 0.04080930
v -0.24467000 0.24240900 0.03853700
v -0.22428000 0.34661100 -0.04076900
v -0.21966100 0.34697000 -0.06113010
v -0.21142300 0.34697000 0.20352000
v -0.22428000 0.34697000 -0.02000680
v -0.22419200 0.34697000 -0.04041250
v -0.22354500 0.34697000 -0.04366500
f 28 45 49
f 32 52 53
f 29 45 30
f 31 44 64
f 28 46 45
f 31 64 52
f 31 52 32
f 32 53 36
f 37 56 38
f 36 54 37
f 37 54 55
f 37 55 56
f 38 56 57
f 38 57 58
f 28 48 47
f 38 58 59
f 36 53 54
f 28 42 48
f 27 65 67
f 28 63 43
f 38 59 60
f 22 48 42
f 26 28 49
f 27 50 65
f 27 67 51
f 27 51 28
f 28 51 68
f 28 68 79
f 28 79 83
f 28 83 82
f 28 82 81
f 28 81 75
f 28 75 80
f 28 80 73
f 28 73 72
f 28 72 71
f 28 71 63
f 28 43 42
f 38 60 39
f 67 79 68
f 39 61 62
f 59 76 77
f 59 77 60
f 63 71 69
f 63 69 64
f 65 66 77
f 65 77 78
f 65 78 79
f 65 79 67
f 22 47 48
f 69 71 70
f 73 80 74
f 74 80 75
f 76 81 78
f 76 78 77
f 78 82 83
f 78 83 79
f 78 81 82
f 59 81 76
f 39 60 61
f 59 75 81
f 57 75 58
f 39 62 40
f 43 63 44
f 44 63 64
f 50 66 65
f 51 67 68
f 52 64 69
f 52 69 53
f 53 69 54
f 54 70 71
f 54 71 72
f 54 72 73
f 54 73 74
f 54 74 55
f 54 69 70
f 55 74 56
f 56 74 57
f 57 74 75
f 58 75 59
f 22 28 47
f 20 24 23
f 22 45 46
f 5 10 25
f 5 25 24
f 5 24 20
f 5 20 35
f 5 35 34
f 5 34 33
f 5 33 41
f 4 9 10
f 5 41 40
f 5 62 61
f 5 61 60
f 5 60 77
f 5 77 66
f 5 66 50
f 5 50 27
f 5 27 11
f 5 40 62
f 4 14 9
f 4 7 14
f 3 15 7
f 1 2 3
f 1 3 7
f 1 7 4
f 1 4 10
f 1 10 5
f 1 5 11
f 1 11 26
f 1 26 49
f 1 49 45
f 1 45 29
f 1 29 12
f 22 46 28
f 1 6 2
f 2 6 3
f 3 6 8
f 3 8 21
f 3 21 15
f 6 12 13
f 6 13 8
f 1 12 6
f 7 16 17
f 16 32 18
f 16 18 17
f 18 33 34
f 18 34 35
f 18 35 20
f 18 20 19
f 18 32 36
f 15 32 16
f 18 36 37
f 18 38 39
f 18 40 41
f 18 41 33
f 22 42 43
f 22 43 44
f 22 30 45
f 7 15 16
f 18 37 38
f 15 31 32
f 18 39 40
f 13 30 22
f 7 17 18
f 15 21 31
f 7 18 19
f 7 19 20
f 8 13 22
f 8 22 44
f 8 44 31
f 8 31 21
f 7 20 14
f 9 20 23
f 9 23 24
f 9 24 25
f 9 25 10
f 11 27 28
f 11 28 26
f 13 29 30
f 9 14 20
f 12 29 13

