# https://github.com/mikedh/trimesh
v 0.17705200 0.54444200 -0.07403070
v 0.04072410 0.75440500 -0.04080230
v 0.04072410 0.76069700 -0.05624300
v 0.04072410 0.76663800 -0.06929560
v 0.04072410 0.76976600 -0.07403070
v 0.28544800 0.54444200 -0.07403070
v 0.13048300 0.54444200 0.11628100
v 0.12233900 0.55052300 0.14271600
v 0.04072410 0.70487600 0.11648700
v 0.04072410 0.89996900 -0.07403070
v 0.28544800 0.67285200 -0.07403070
v 0.28544800 0.54444200 0.08157060
v 0.12538100 0.54444200 0.14572200
v 0.04072410 0.69643900 0.15980400
v 0.04072410 0.70339900 0.12237500
v 0.04240090 0.90032100 -0.07403070
v 0.04072410 0.89712200 0.12229300
v 0.26503900 0.73398100 -0.07403070
v 0.28544800 0.67285200 -0.02037930
v 0.28544800 0.55052300 0.08157060
v 0.26503900 0.54444200 0.16309800
v 0.04072410 0.69833700 0.18603200
v 0.04072410 0.69643900 0.16309800
v 0.12820800 0.54444200 0.15844500
v 0.04757520 0.70006000 0.29222300
v 0.04072410 0.70347000 0.24458400
v 0.06760160 0.90355500 -0.07403070
v 0.04072410 0.87673400 0.22420200
v 0.04079600 0.89712200 0.12237500
v 0.25825900 0.74758500 -0.07403070
v 0.26503900 0.73398100 0.00000240
v 0.28544800 0.63207600 0.02042530
v 0.22426700 0.71362900 0.20386100
v 0.28544800 0.59129900 0.06118890
v 0.26503900 0.55052300 0.16309800
v 0.25897800 0.54444200 0.17524400
v 0.13048300 0.54444200 0.16717400
v 0.08837060 0.63889500 0.27184200
v 0.09177220 0.64227000 0.29053500
v 0.07136250 0.68304600 0.31091700
v 0.05097680 0.70343400 0.30070500
v 0.04072410 0.74428100 0.30577000
v 0.04079600 0.71362900 0.28542900
v 0.04072410 0.71362900 0.28518200
v 0.04072410 0.70786400 0.26644800
v 0.08908920 0.90355500 -0.07403070
v 0.06118170 0.89712200 0.14271600
v 0.04072410 0.87666400 0.22436600
v 0.04079600 0.87673400 0.22424300
v 0.23107000 0.80196600 -0.07403070
v 0.25825900 0.74758500 -0.00679151
v 0.25145600 0.76118900 0.00683750
v 0.25485800 0.74417600 0.03059560
v 0.20388200 0.75437000 0.24466600
v 0.22086600 0.71025400 0.22086700
v 0.22426700 0.69324000 0.22424300
v 0.26503900 0.59129900 0.14271600
v 0.20388200 0.71362900 0.28542900
v 0.25145600 0.54444200 0.19027300
v 0.20388200 0.67285200 0.28542900
v 0.18349600 0.69324000 0.32619300
v 0.17669300 0.68645600 0.33978100
v 0.14782700 0.54444200 0.20036100
v 0.12233900 0.64568000 0.31260500
v 0.09177220 0.68304600 0.33129900
v 0.16148100 0.54444200 0.21020200
v 0.05437840 0.71362900 0.31260500
v 0.07476410 0.71362900 0.33298700
v 0.05097680 0.74417600 0.32112800
v 0.04072410 0.75437000 0.31009300
v 0.04072410 0.71383900 0.28538800
v 0.10195300 0.89712200 0.06118890
v 0.12085400 0.89561100 -0.07403070
v 0.08156740 0.87673400 0.20386100
v 0.09177220 0.88692800 0.13254600
v 0.04072410 0.84615200 0.28538800
v 0.04757520 0.86313000 0.25146000
v 0.06798490 0.84274200 0.29222300
v 0.06118170 0.85631100 0.26504800
v 0.09177220 0.84611700 0.27521800
v 0.17329100 0.86650500 -0.07403070
v 0.23107000 0.80196600 0.00683750
v 0.19027500 0.78157700 0.25146000
v 0.19367700 0.76456400 0.27521800
v 0.19367700 0.74417600 0.29564100
v 0.19027500 0.72044800 0.31260500
v 0.22426700 0.54444200 0.20707300
v 0.17329100 0.67794900 0.33640400
v 0.17329100 0.72382300 0.33640400
v 0.16311000 0.69324000 0.34661600
v 0.12233900 0.66606800 0.33298700
v 0.16311000 0.54444200 0.21102600
v 0.16311000 0.56412700 0.23103700
v 0.16311000 0.58451500 0.25146000
v 0.11215800 0.68304600 0.34151000
v 0.09177220 0.70343400 0.34151000
v 0.10195300 0.71362900 0.34661600
v 0.10195300 0.75437000 0.34661600
v 0.04072410 0.79514600 0.31598100
v 0.04072410 0.77475800 0.31598100
v 0.11215800 0.88692800 0.09178210
v 0.12914200 0.88351800 0.06798280
v 0.15292900 0.88692800 -0.07135430
v 0.15027000 0.88822900 -0.07403070
v 0.10875600 0.86313000 0.21065500
v 0.10535500 0.85972000 0.22766000
v 0.04072410 0.84084400 0.29177000
v 0.04757520 0.84274200 0.29222300
v 0.06798490 0.82235400 0.31260500
v 0.11215800 0.80534000 0.31602300
v 0.14612600 0.79855600 0.30922900
v 0.15292900 0.80534000 0.29564100
v 0.11215800 0.84611700 0.25483600
v 0.17063200 0.86917600 -0.07403070
v 0.17329100 0.86650500 -0.07135430
v 0.21068500 0.82235400 0.02721930
v 0.16988900 0.82235400 0.21065500
v 0.16988900 0.80196600 0.27184200
v 0.18689700 0.77816800 0.26842400
v 0.16988900 0.78157700 0.31260500
v 0.18689700 0.73739100 0.30922900
v 0.20388200 0.54444200 0.21102600
v 0.16311000 0.66606800 0.33298700
v 0.16648800 0.75777900 0.32961000
v 0.15292900 0.76456400 0.33640400
v 0.14272400 0.73398100 0.34661600
v 0.12233900 0.69324000 0.34661600
v 0.18349600 0.56412700 0.23103700
v 0.12233900 0.75437000 0.34661600
v 0.05437840 0.80875000 0.31939900
v 0.06118170 0.79514600 0.32619300
v 0.04072410 0.80094600 0.31454000
v 0.14952800 0.86313000 0.10874600
v 0.16988900 0.86313000 0.04760100
v 0.15292900 0.88692800 -0.07403070
v 0.19027500 0.84274200 0.04760100
v 0.14952800 0.82235400 0.25146000
v 0.14952800 0.84274200 0.19027300
v 0.04072410 0.83588700 0.29564100
v 0.12914200 0.78157700 0.33298700
v 0.14612600 0.77816800 0.32961000
v 0.16988900 0.84274200 0.12916900
v 0.17329100 0.76456400 0.31602300
v 0.04589840 0.80534000 0.31602300
v 0.04072410 0.81933100 0.30758200
v 0.04072410 0.81553400 0.30988700
f 78 110 111
f 78 109 110
f 78 108 109
f 77 108 78
f 76 108 77
f 74 80 106
f 74 106 105
f 74 101 75
f 74 105 101
f 72 104 73
f 78 111 80
f 72 103 104
f 72 102 103
f 76 107 108
f 78 80 79
f 87 123 122
f 80 112 113
f 87 88 123
f 72 101 102
f 85 121 86
f 85 120 121
f 84 120 85
f 84 119 120
f 80 111 112
f 83 119 84
f 83 117 118
f 82 117 83
f 82 116 117
f 82 115 116
f 81 114 115
f 80 113 106
f 83 118 119
f 86 121 89
f 62 89 90
f 69 99 100
f 58 86 61
f 58 85 86
f 56 58 57
f 55 58 56
f 54 58 55
f 54 85 58
f 54 84 85
f 53 84 54
f 52 84 53
f 52 83 84
f 52 82 83
f 51 82 52
f 88 90 123
f 50 81 115
f 50 115 82
f 58 61 60
f 69 100 70
f 59 62 88
f 61 86 62
f 69 98 99
f 69 97 98
f 69 96 97
f 68 96 69
f 67 68 69
f 65 96 68
f 65 95 96
f 65 91 95
f 64 123 91
f 64 94 123
f 64 93 94
f 64 92 93
f 64 66 92
f 62 90 88
f 62 86 89
f 59 88 87
f 89 124 125
f 106 112 137
f 89 121 143
f 118 120 119
f 117 136 142
f 117 137 118
f 117 138 137
f 117 142 138
f 116 136 117
f 120 141 125
f 115 136 116
f 112 120 118
f 111 141 120
f 111 120 112
f 110 141 111
f 110 140 141
f 109 140 110
f 112 118 137
f 109 129 140
f 120 125 124
f 120 143 121
f 49 80 74
f 134 142 136
f 133 142 134
f 133 138 142
f 132 144 146
f 131 144 132
f 120 124 143
f 130 146 144
f 130 139 145
f 130 144 131
f 125 129 126
f 125 140 129
f 125 141 140
f 122 123 128
f 130 145 146
f 108 130 109
f 108 139 130
f 107 139 108
f 95 127 97
f 94 128 123
f 93 128 94
f 92 128 93
f 92 122 128
f 91 123 95
f 95 97 96
f 90 125 126
f 90 127 95
f 90 97 127
f 90 98 97
f 90 129 98
f 90 126 129
f 89 143 124
f 90 95 123
f 98 129 109
f 98 109 130
f 98 130 131
f 106 113 112
f 105 138 133
f 105 137 138
f 105 106 137
f 103 136 115
f 103 134 136
f 103 135 104
f 103 114 135
f 103 115 114
f 102 134 103
f 102 133 134
f 102 105 133
f 101 105 102
f 99 131 132
f 98 131 99
f 89 125 90
f 49 79 80
f 2 4 3
f 49 77 78
f 2 139 107
f 2 145 139
f 2 146 145
f 2 132 146
f 2 99 132
f 2 100 99
f 2 107 76
f 2 70 100
f 2 71 42
f 2 44 71
f 2 45 44
f 2 26 45
f 2 22 26
f 2 23 22
f 2 42 70
f 2 14 23
f 2 76 48
f 2 28 17
f 11 18 31
f 10 17 16
f 8 15 9
f 8 14 15
f 8 13 14
f 7 13 8
f 2 48 28
f 6 20 12
f 6 32 34
f 6 19 32
f 6 11 19
f 2 5 4
f 2 10 5
f 2 17 10
f 6 34 20
f 11 31 19
f 2 15 14
f 2 8 9
f 1 50 30
f 1 81 50
f 1 114 81
f 1 135 114
f 1 104 135
f 1 73 104
f 1 30 18
f 1 46 73
f 49 78 79
f 1 10 16
f 1 5 10
f 1 4 5
f 1 3 4
f 1 2 3
f 1 27 46
f 2 9 15
f 1 18 11
f 1 6 12
f 2 7 8
f 1 7 2
f 1 13 7
f 1 24 13
f 1 37 24
f 1 63 37
f 1 11 6
f 1 66 63
f 1 122 92
f 1 87 122
f 1 59 87
f 1 36 59
f 1 21 36
f 1 12 21
f 1 92 66
f 12 20 35
f 1 16 27
f 13 22 23
f 39 65 40
f 39 91 65
f 39 64 91
f 37 39 38
f 37 63 39
f 36 62 59
f 39 63 66
f 36 61 62
f 36 58 60
f 35 58 36
f 35 57 58
f 34 56 57
f 33 55 56
f 33 54 55
f 36 60 61
f 32 56 34
f 39 66 64
f 40 65 68
f 12 35 21
f 49 76 77
f 48 76 49
f 47 75 101
f 47 74 75
f 47 49 74
f 40 67 41
f 46 47 72
f 43 71 44
f 42 71 43
f 42 69 70
f 42 67 69
f 41 67 42
f 40 68 67
f 46 72 73
f 32 33 56
f 47 101 72
f 31 53 54
f 21 35 36
f 20 57 35
f 20 34 57
f 19 33 32
f 19 31 33
f 18 51 31
f 24 37 25
f 18 30 51
f 17 28 29
f 16 17 27
f 13 26 22
f 13 23 14
f 13 24 25
f 31 54 33
f 17 29 27
f 25 38 39
f 13 25 26
f 25 40 41
f 25 39 40
f 30 82 51
f 30 50 82
f 28 47 29
f 28 49 47
f 28 48 49
f 27 47 46
f 31 51 52
f 25 37 38
f 25 41 42
f 27 29 47
f 25 42 43
f 31 52 53
f 25 43 44
f 25 44 45
f 25 45 26

