# https://github.com/mikedh/trimesh
v 0.25886100 0.14795600 0.78533700
v 0.31416400 0.14782500 0.77614200
v 0.25886100 0.15518400 0.78352600
v 0.25886100 -0.14769500 0.78533700
v 0.32648000 0.14167100 0.76999400
v 0.33881600 0.15397900 0.76381800
v 0.30801500 0.16013300 0.76999400
v 0.31416400 -0.14782500 0.77614200
v 0.25886100 0.16003600 0.77627900
v 0.25886100 -0.15928700 0.77614200
v 0.31416400 -0.16013300 0.76999400
v 0.32648000 -0.15397900 0.76999400
v 0.43119900 0.15397900 0.67142600
v 0.44043200 0.16322600 0.64373100
v 0.32956400 0.16322600 0.75459500
v 0.32341500 0.15707200 0.76689200
v 0.33881600 -0.14167100 0.76381800
v 0.25886100 0.16257500 0.77243700
v 0.31416400 0.16632000 0.75766900
v 0.25886100 -0.16632000 0.75766900
v 0.31416400 -0.16632000 0.75766900
v 0.32341500 -0.16169600 0.76689200
v 0.40039800 -0.15397900 0.69607500
v 0.44977700 -0.14186700 0.65276200
v 0.44966400 0.15397900 0.65295400
v 0.43119900 -0.14167100 0.67142600
v 0.44977700 0.16505000 0.62707000
v 0.44351500 0.16632000 0.62833300
v 0.33264800 0.16632000 0.73919700
v 0.25886100 0.16632000 0.75766900
v 0.25886100 -0.16632000 0.70222400
v 0.33264800 -0.16632000 0.73919700
v 0.44351500 -0.16632000 0.62833300
v 0.37883000 -0.16169600 0.71147400
v 0.43734800 -0.15397900 0.65910200
v 0.41579900 -0.16169600 0.67450100
v 0.43426400 -0.16169600 0.65602800
v 0.44966400 -0.14167100 0.65295400
v 0.44977700 -0.15664900 0.64367600
v 0.44977700 0.15378400 0.65276200
v 0.44977700 0.15407700 0.65246000
v 0.44977700 0.16632000 0.60986000
v 0.25886100 0.16632000 0.70222400
v 0.27721400 -0.16632000 0.68375100
v 0.25886100 -0.16618900 0.70162000
v 0.44977700 -0.16632000 0.60986000
v 0.44977700 -0.16316100 0.63459100
v 0.44977700 -0.16094700 0.64054700
v 0.44977700 0.16632000 0.53594100
v 0.27721400 0.16632000 0.68375100
v 0.26796300 0.16169600 0.67450100
v 0.25886100 0.15941700 0.68361400
v 0.31416400 -0.16632000 0.64677800
v 0.25886100 -0.16264000 0.68742900
v 0.44977700 -0.16632000 0.53594100
v 0.44977700 0.16094700 0.51118300
v 0.44351500 0.16632000 0.53594100
v 0.31416400 0.16632000 0.64677800
v 0.38806300 0.16632000 0.57288700
v 0.39731400 0.16169600 0.54516400
v 0.37574600 0.15397900 0.56056200
v 0.28336300 0.15397900 0.65295400
v 0.26489800 0.15397900 0.67142600
v 0.25886100 0.14795600 0.67444600
v 0.29876300 -0.16322600 0.64985200
v 0.38806300 -0.16632000 0.57288700
v 0.39114700 -0.16322600 0.55748800
v 0.37266300 -0.16322600 0.57596100
v 0.25886100 -0.16026300 0.68386100
v 0.27104700 -0.15397900 0.65910200
v 0.36343000 -0.15397900 0.56673800
v 0.38191400 -0.15397900 0.54826600
v 0.44351500 -0.16632000 0.53594100
v 0.44977700 -0.16384500 0.51988400
v 0.40654700 0.16632000 0.55441400
v 0.44977700 0.15424000 0.50522600
v 0.39423100 0.15397900 0.54209000
v 0.36343000 0.14167100 0.56673800
v 0.27104700 0.14167100 0.65910200
v 0.25886100 -0.14769500 0.67444600
v 0.40654700 -0.16632000 0.55441400
v 0.44658100 -0.16322600 0.52054300
v 0.43734800 -0.15397900 0.51129300
v 0.25886100 -0.15524900 0.67634000
v 0.38191400 0.14167100 0.54826600
v 0.44977700 -0.16003600 0.51417500
v 0.44977700 0.15378400 0.50492400
v 0.44977700 -0.14186700 0.50492400
v 0.44977700 -0.15645400 0.50882200
v 0.43734800 0.14167100 0.51129300
f 35 48 39
f 44 54 53
f 53 65 68
f 37 47 48
f 43 50 51
f 43 51 52
f 44 45 54
f 49 56 57
f 53 54 65
f 51 58 59
f 51 59 60
f 51 60 61
f 51 61 62
f 51 62 63
f 51 63 52
f 52 63 64
f 35 37 48
f 50 58 51
f 33 36 34
f 24 86 89
f 33 47 37
f 24 55 74
f 53 68 66
f 24 74 86
f 24 89 88
f 24 88 87
f 24 87 76
f 24 76 56
f 24 56 49
f 24 49 42
f 24 42 27
f 24 27 41
f 24 41 40
f 24 40 25
f 24 25 38
f 25 40 41
f 25 41 27
f 27 42 28
f 31 45 44
f 33 46 47
f 33 37 36
f 54 67 68
f 83 89 86
f 54 69 70
f 69 84 70
f 70 84 80
f 70 79 78
f 70 78 71
f 71 78 85
f 71 85 72
f 72 85 90
f 72 90 83
f 73 81 74
f 74 82 86
f 74 81 82
f 76 87 77
f 77 87 85
f 82 83 86
f 83 88 89
f 83 90 87
f 83 87 88
f 85 87 90
f 24 46 55
f 67 83 82
f 54 68 65
f 67 72 83
f 66 67 81
f 54 70 71
f 54 71 72
f 54 72 67
f 55 73 74
f 56 60 75
f 56 75 57
f 56 76 60
f 59 75 60
f 60 76 77
f 60 77 61
f 61 77 85
f 61 85 78
f 61 78 79
f 61 79 62
f 62 79 63
f 63 79 64
f 64 79 70
f 64 70 80
f 66 68 67
f 67 82 81
f 24 47 46
f 19 75 59
f 24 39 48
f 2 12 5
f 3 7 9
f 4 10 11
f 4 11 8
f 5 12 17
f 5 17 6
f 6 13 14
f 6 14 15
f 2 8 12
f 6 15 19
f 6 16 7
f 6 17 26
f 6 26 13
f 7 18 9
f 7 16 19
f 7 19 18
f 8 11 12
f 10 20 21
f 6 19 16
f 10 21 22
f 2 7 3
f 2 5 6
f 24 48 47
f 1 2 3
f 1 3 9
f 1 9 18
f 1 18 30
f 1 30 43
f 1 43 52
f 1 52 64
f 2 6 7
f 1 64 80
f 1 84 69
f 1 69 54
f 1 54 45
f 1 45 31
f 1 31 20
f 1 20 10
f 1 4 8
f 1 8 2
f 1 80 84
f 10 22 11
f 1 10 4
f 12 22 23
f 20 53 66
f 20 66 81
f 20 81 73
f 20 73 55
f 20 55 46
f 20 46 33
f 20 33 32
f 20 32 21
f 20 44 53
f 21 32 22
f 22 34 23
f 23 35 24
f 23 34 36
f 23 36 37
f 23 37 35
f 24 38 26
f 11 22 12
f 24 35 39
f 22 33 34
f 20 31 44
f 22 32 33
f 19 50 43
f 12 24 17
f 19 43 30
f 13 25 14
f 13 26 38
f 13 38 25
f 14 27 28
f 14 29 15
f 14 25 27
f 15 29 19
f 14 28 29
f 18 19 30
f 19 58 50
f 19 59 58
f 17 24 26
f 19 57 75
f 19 49 57
f 12 23 24
f 19 28 42
f 19 29 28
f 19 42 49

