# https://github.com/mikedh/trimesh
v 0.48045700 -0.35105100 -0.55434800
v 0.49894700 -0.35105100 -0.48045700
v 0.35115000 -0.35105100 -0.53587600
v 0.38809900 -0.33262900 -0.59129400
v 0.42504800 -0.31413800 -0.64679500
v 0.46199700 -0.31413800 -0.64679500
v 0.48661000 -0.34493300 -0.56666400
v 0.60997900 -0.34190800 -0.44334600
v 0.60997900 -0.34369600 -0.43610600
v 0.60997900 -0.34644500 -0.42312500
v 0.51743700 -0.35105100 -0.33267600
v 0.33881300 -0.34493300 -0.52971800
v 0.34496600 -0.33874600 -0.56050600
v 0.33266000 -0.29564700 -0.66526800
v 0.35115000 -0.31413800 -0.62823900
v 0.36960900 -0.35105100 -0.40656700
v 0.41889500 -0.30183300 -0.67142600
v 0.38809900 -0.29564700 -0.68374100
v 0.45581400 -0.30183300 -0.67142600
v 0.46199700 -0.29564700 -0.68374100
v 0.46815000 -0.30795100 -0.65911000
v 0.52359000 -0.28946000 -0.67758300
v 0.53128100 -0.28643600 -0.67450400
v 0.60997900 -0.22800800 -0.64346700
v 0.60997900 -0.34644500 -0.42229300
v 0.60997900 -0.33290400 -0.33250900
v 0.52666600 -0.34644500 -0.32343900
v 0.51743700 -0.33262900 -0.27725700
v 0.48971700 -0.34644500 -0.30496700
v 0.48045700 -0.35105100 -0.31420300
v 0.33266000 -0.33262900 -0.53587600
v 0.32032300 -0.28946000 -0.65911000
v 0.32343000 -0.28643600 -0.67450400
v 0.35730300 -0.34493300 -0.40040900
v 0.32650600 -0.28334300 -0.68989800
v 0.38809900 -0.35105100 -0.31420300
v 0.37576200 -0.34493300 -0.30804500
v 0.38194600 -0.28334300 -0.70837100
v 0.45581400 -0.28334300 -0.70837100
v 0.46815000 -0.28946000 -0.69605600
v 0.45581400 -0.24636100 -0.74531600
v 0.48507100 -0.23096300 -0.74839500
v 0.49279400 -0.19095700 -0.78226200
v 0.50510000 -0.17858400 -0.78842000
v 0.51279100 -0.17549100 -0.78534100
v 0.60997900 -0.20937900 -0.67142600
v 0.60997900 -0.22580800 -0.64679500
v 0.60997900 -0.33262900 -0.33201000
v 0.58210600 -0.29104100 -0.21252000
v 0.54515600 -0.29104100 -0.17557400
v 0.52666600 -0.30953200 -0.21252000
v 0.51743700 -0.31413800 -0.22183900
v 0.44353800 -0.33262900 -0.25878500
v 0.29567900 -0.11087600 -0.79457700
v 0.31417000 -0.27715600 -0.66526800
v 0.35115000 -0.33262900 -0.40656700
v 0.36960900 -0.31413800 -0.27725700
v 0.31724600 -0.27406300 -0.68066200
v 0.31724600 -0.23715000 -0.71760700
v 0.32650600 -0.19095700 -0.78226200
v 0.40658900 -0.33262900 -0.25878500
v 0.40658900 -0.31413800 -0.20328300
v 0.37576200 -0.32644200 -0.27110000
v 0.36960900 -0.33262900 -0.31420300
v 0.39425200 -0.30795100 -0.19712600
v 0.41889500 -0.22787000 -0.76378900
v 0.43738500 -0.20937900 -0.78226200
v 0.45735200 -0.17549100 -0.80381400
v 0.50510000 -0.14167100 -0.80689200
v 0.51279100 -0.13857800 -0.80381400
v 0.60997900 -0.19872500 -0.67799900
v 0.60997900 -0.22223400 -0.22142300
v 0.60982500 -0.20326200 -0.14786500
v 0.60521000 -0.20553000 -0.12939200
v 0.58672000 -0.27949300 -0.20328300
v 0.60059600 -0.21707800 -0.13862900
v 0.54977100 -0.27949300 -0.16633800
v 0.53589600 -0.28334300 -0.16018000
v 0.47122700 -0.29104100 -0.15710100
v 0.46199700 -0.29564700 -0.16633800
v 0.29567900 0.11087600 -0.79457700
v 0.29567900 -0.03691290 -0.81305000
v 0.30186300 -0.03079510 -0.82536500
v 0.30186300 -0.10469000 -0.80689200
v 0.30494000 -0.12008700 -0.80381400
v 0.31724600 -0.18167700 -0.77302600
v 0.38809900 -0.25866500 -0.14786500
v 0.39271400 -0.27715600 -0.14553500
v 0.31417000 -0.11087600 -0.81305000
v 0.33266000 -0.16628000 -0.79457700
v 0.36037900 -0.15706900 -0.80381400
v 0.38194600 -0.17246600 -0.80073500
v 0.44046200 -0.18786400 -0.79765600
v 0.41581800 -0.30953200 -0.19404700
v 0.40658900 -0.30183300 -0.17865300
v 0.39425200 -0.28946000 -0.16018000
v 0.39732800 -0.28643600 -0.15252500
v 0.44661500 -0.16318700 -0.80997100
v 0.49894700 -0.12929800 -0.81305000
v 0.60997900 0.00000000 -0.75754800
v 0.60997900 -0.00027496 -0.75746500
v 0.60997900 -0.05540370 -0.73915900
v 0.60997900 -0.14765200 -0.70221300
v 0.60997900 -0.14806400 -0.70204700
v 0.51125300 -0.12929800 -0.80689200
v 0.60997900 -0.20614900 -0.20919100
v 0.60982500 -0.16628000 -0.11092000
v 0.60521000 -0.18710800 -0.11092000
v 0.59133500 -0.20937900 -0.12323500
v 0.44353800 -0.28334300 -0.14170700
v 0.59133500 -0.19095700 -0.10476200
v 0.53589600 -0.22787000 -0.10476200
v 0.31878400 0.27949300 -0.68374100
v 0.30186300 0.11699400 -0.80689200
v 0.30186300 0.04309940 -0.82536500
v 0.29567900 0.03691290 -0.81305000
v 0.38809900 0.25866500 -0.14786500
v 0.36960900 0.31413800 -0.27725700
v 0.33266000 0.33262900 -0.53587600
v 0.31417000 0.27715600 -0.66526800
v 0.31417000 -0.03691290 -0.83152300
v 0.40658900 -0.14778900 -0.05550140
v 0.40658900 -0.09238540 -0.03702870
v 0.40658900 -0.01842210 -0.01855590
v 0.40658900 -0.28334300 -0.14170700
v 0.39732800 -0.26794500 -0.13405200
v 0.41581800 -0.15706900 -0.04160530
v 0.41120400 -0.16628000 -0.05317150
v 0.38809900 0.00000000 -0.85007900
v 0.38809900 -0.14778900 -0.81305000
v 0.43430800 -0.17549100 -0.80381400
v 0.44661500 -0.10778300 -0.82844400
v 0.44661500 -0.03381960 -0.84691700
v 0.45581400 -0.03691290 -0.84383800
v 0.48045700 -0.05540370 -0.83152300
v 0.49279400 -0.05540370 -0.82536500
v 0.60997900 0.00013748 -0.75754800
v 0.50510000 -0.05540370 -0.81920700
v 0.60997900 -0.11080700 -0.14844800
v 0.60982500 -0.12929800 -0.09244690
v 0.60367200 -0.17246600 -0.09860440
v 0.60059600 -0.18016500 -0.10168300
v 0.51743700 -0.19095700 -0.06781660
v 0.42504800 -0.24636100 -0.10476200
v 0.55438600 -0.17246600 -0.06781660
v 0.33266000 0.28334300 -0.68989800
v 0.31878400 0.18710800 -0.77610400
v 0.32032300 0.28946000 -0.66526800
v 0.32343000 0.29104100 -0.67450400
v 0.32032300 0.17246600 -0.78842000
v 0.31417000 0.11087600 -0.81305000
v 0.31417000 0.03691290 -0.83152300
v 0.40658900 0.01842210 -0.01855590
v 0.40658900 0.09238540 -0.03702870
v 0.40658900 0.14778900 -0.05550140
v 0.39271400 0.26794500 -0.13862900
v 0.39271400 0.28643600 -0.15710100
v 0.37422400 0.32334900 -0.26802100
v 0.35115000 0.33262900 -0.40656700
v 0.33727400 0.34184000 -0.52663900
v 0.33881300 0.34493300 -0.53587600
v 0.41274200 -0.14778900 -0.04318620
v 0.41274200 -0.09238540 -0.02471350
v 0.41274200 -0.01842210 -0.00624078
v 0.41581800 -0.21247300 -0.07855070
v 0.42504800 -0.17246600 -0.04934380
v 0.44353800 -0.17246600 -0.04934380
v 0.44353800 -0.14778900 -0.03702870
v 0.42504800 -0.14778900 -0.03702870
v 0.41581800 -0.10159600 -0.02313250
v 0.38809900 0.14778900 -0.81305000
v 0.42504800 0.01842210 -0.85007900
v 0.42504800 -0.01842210 -0.85007900
v 0.42504800 -0.09238540 -0.83152300
v 0.44353800 -0.01842210 -0.85007900
v 0.50510000 0.05540370 -0.81920700
v 0.50817600 0.13857800 -0.80847300
v 0.60997900 0.05554120 -0.73907600
v 0.48971700 0.06461480 -0.82694600
v 0.60997900 -0.03684420 -0.11150200
v 0.60982500 -0.05540370 -0.07397410
v 0.60367200 -0.13548500 -0.08013170
v 0.60059600 -0.15239500 -0.08321050
v 0.56669200 -0.15397600 -0.06165900
v 0.56361600 -0.16167400 -0.06473780
v 0.53589600 -0.16861700 -0.06007800
v 0.51743700 -0.16628000 -0.05550140
v 0.38809900 0.28334300 -0.70837100
v 0.33266000 0.19095700 -0.78226200
v 0.32343000 0.18016500 -0.78534100
v 0.34188900 0.34644500 -0.54511200
v 0.34188900 0.30953200 -0.63755900
v 0.37886900 0.29104100 -0.69297700
v 0.33266000 0.16628000 -0.79457700
v 0.33266000 0.13163500 -0.80847300
v 0.36960900 0.15012600 -0.80847300
v 0.41120400 0.02770190 -0.00931958
v 0.41120400 0.10159600 -0.02779230
v 0.41120400 0.15706900 -0.04626500
v 0.40040500 0.27103800 -0.13555000
v 0.41120400 0.21247300 -0.08321050
v 0.40040500 0.28946000 -0.15402300
v 0.40040500 0.30795100 -0.19096800
v 0.39271400 0.30485800 -0.19404700
v 0.37422400 0.34184000 -0.30496700
v 0.35576400 0.34184000 -0.39733000
v 0.35115000 0.35105100 -0.53587600
v 0.35730300 0.34493300 -0.40656700
v 0.36960900 0.35105100 -0.40656700
v 0.41581800 -0.02770190 -0.00465979
v 0.41274200 0.01842210 -0.00624078
v 0.51743700 -0.11087600 -0.03702870
v 0.44353800 0.00000000 0.00000000
v 0.45276800 0.17549100 -0.80847300
v 0.45276800 0.12008700 -0.82694600
v 0.42504800 0.09238540 -0.83152300
v 0.38809900 0.17246600 -0.80073500
v 0.44353800 0.01842210 -0.85007900
v 0.45276800 0.04619270 -0.84541900
v 0.50817600 0.17549100 -0.79000100
v 0.60997900 0.18477100 -0.68374100
v 0.60997900 0.14792700 -0.70213000
v 0.60997900 -0.01828460 -0.11116900
v 0.60982500 0.05540370 -0.07397410
v 0.60367200 -0.06159020 -0.06165900
v 0.56669200 -0.02460860 -0.02471350
v 0.55438600 -0.14778900 -0.05550140
v 0.42504800 0.22787000 -0.76378900
v 0.42504800 0.30183300 -0.67142600
v 0.46199700 0.28334300 -0.70837100
v 0.44353800 0.20937900 -0.78226200
v 0.38809900 0.33262900 -0.59129400
v 0.41581800 0.30953200 -0.65603200
v 0.41274200 0.09238540 -0.02471350
v 0.42504800 0.14778900 -0.03702870
v 0.41889500 0.16009300 -0.04318620
v 0.41274200 0.28334300 -0.14170700
v 0.41889500 0.23405700 -0.09860440
v 0.43120100 0.24636100 -0.10476200
v 0.43120100 0.17246600 -0.04934380
v 0.41274200 0.30183300 -0.17865300
v 0.40658900 0.31413800 -0.20328300
v 0.38194600 0.34493300 -0.30188800
v 0.37576200 0.34493300 -0.31420300
v 0.48045700 0.35105100 -0.55434800
v 0.38809900 0.35105100 -0.31420300
v 0.42504800 0.00000000 0.00000000
v 0.42197200 0.01539760 -0.00316200
v 0.53589600 -0.11314500 -0.04160530
v 0.55438600 -0.01842210 -0.01855590
v 0.55438600 0.01842210 -0.01855590
v 0.51743700 0.11087600 -0.03702870
v 0.44353800 0.14778900 -0.03702870
v 0.42197200 0.08929210 -0.02163470
v 0.49894700 0.19095700 -0.78226200
v 0.52666600 0.28643600 -0.67908100
v 0.51279100 0.18477100 -0.77843400
v 0.60997900 0.20937900 -0.67142600
v 0.60997900 0.03663790 -0.11116900
v 0.60367200 0.04921720 -0.06165900
v 0.60997900 0.05471630 -0.11158500
v 0.60982500 0.12929800 -0.09244690
v 0.60059600 0.15706900 -0.08321050
v 0.59748800 0.00611778 -0.04934380
v 0.57902900 0.00611778 -0.03087110
v 0.46199700 0.30183300 -0.67142600
v 0.51743700 0.28946000 -0.67758300
v 0.46199700 0.24636100 -0.74531600
v 0.51743700 0.29564700 -0.66526800
v 0.42504800 0.31413800 -0.64679500
v 0.46199700 0.31413800 -0.64679500
v 0.44969100 0.28334300 -0.14170700
v 0.44969100 0.17246600 -0.04934380
v 0.52359000 0.19095700 -0.06781660
v 0.46199700 0.29564700 -0.16633800
v 0.40658900 0.33262900 -0.25878500
v 0.51743700 0.31413800 -0.22183900
v 0.44353800 0.33262900 -0.25878500
v 0.49279400 0.34493300 -0.56050600
v 0.49894700 0.35105100 -0.48045700
v 0.60751800 0.34644500 -0.42503900
v 0.60997900 0.34623900 -0.42603800
v 0.60997900 0.34493300 -0.43727100
v 0.48045700 0.35105100 -0.31420300
v 0.55438600 0.14778900 -0.05550140
v 0.57902900 0.15397600 -0.06781660
v 0.51743700 0.16628000 -0.05550140
v 0.52974300 0.28946000 -0.67142600
v 0.60997900 0.20944800 -0.67134200
v 0.60059600 0.08310560 -0.06473780
v 0.60997900 0.12861100 -0.14861400
v 0.60982500 0.16628000 -0.11092000
v 0.58210600 0.17549100 -0.08321050
v 0.56053900 0.17246600 -0.06781660
v 0.60674900 0.18167700 -0.11399800
v 0.59748800 0.19095700 -0.10476200
v 0.54204900 0.28334300 -0.16018000
v 0.54204900 0.22787000 -0.10476200
v 0.54515600 0.17549100 -0.06473780
v 0.53589600 0.29564700 -0.18481100
v 0.60997900 0.33290400 -0.33242600
v 0.51743700 0.33262900 -0.27725700
v 0.51743700 0.35105100 -0.33267600
v 0.60997900 0.34623900 -0.42304200
v 0.60997900 0.33881500 -0.44950300
v 0.60997900 0.23550000 -0.63065200
v 0.60997900 0.22333300 -0.22017500
v 0.60982500 0.20326200 -0.14786500
v 0.60674900 0.20016800 -0.13247100
v 0.59748800 0.20937900 -0.12323500
v 0.57902900 0.28334300 -0.19712600
v 0.60997900 0.34603300 -0.41971400
f 172 216 215
f 172 215 219
f 172 219 218
f 175 218 179
f 176 179 177
f 177 179 219
f 177 214 220
f 177 215 214
f 177 220 258
f 177 258 221
f 177 221 222
f 177 222 178
f 179 218 219
f 180 223 181
f 177 219 215
f 171 217 214
f 171 216 172
f 171 194 189
f 160 208 161
f 161 207 191
f 181 224 260
f 161 208 209
f 161 209 207
f 163 170 210
f 163 210 164
f 171 189 217
f 164 210 211
f 168 212 213
f 168 213 170
f 168 187 212
f 170 213 210
f 171 214 215
f 171 215 216
f 171 196 194
f 165 167 166
f 168 170 169
f 188 268 231
f 181 223 259
f 191 207 232
f 191 232 192
f 192 232 233
f 192 233 193
f 194 196 195
f 197 211 234
f 197 234 198
f 189 214 217
f 198 234 235
f 198 236 199
f 199 236 201
f 200 237 202
f 200 201 238
f 200 238 239
f 200 239 237
f 201 236 240
f 198 235 236
f 181 260 225
f 189 231 214
f 188 231 228
f 181 259 224
f 182 225 226
f 182 226 184
f 182 184 183
f 184 226 250
f 184 250 227
f 184 227 186
f 189 228 231
f 184 186 185
f 187 227 212
f 188 228 189
f 188 193 233
f 188 233 229
f 188 229 266
f 188 266 230
f 188 230 268
f 186 227 187
f 160 206 208
f 141 184 185
f 157 205 158
f 129 173 130
f 130 173 174
f 130 174 132
f 132 174 173
f 132 173 133
f 133 173 175
f 133 175 134
f 134 175 135
f 135 175 136
f 136 175 138
f 137 176 177
f 137 177 178
f 138 175 179
f 138 179 176
f 140 180 181
f 129 175 173
f 129 218 175
f 129 172 218
f 129 171 172
f 124 211 197
f 201 240 239
f 124 197 153
f 125 144 165
f 125 165 126
f 126 165 127
f 127 165 166
f 140 181 225
f 127 166 167
f 127 168 169
f 127 169 170
f 127 170 163
f 127 163 162
f 127 162 128
f 129 152 151
f 129 151 171
f 127 167 168
f 158 205 206
f 140 225 182
f 141 183 184
f 150 194 151
f 151 194 195
f 151 195 196
f 151 196 171
f 153 197 154
f 154 197 198
f 154 198 199
f 154 199 155
f 156 200 157
f 156 199 201
f 156 201 200
f 157 200 202
f 157 202 203
f 157 203 204
f 157 204 205
f 150 189 194
f 150 190 189
f 149 192 193
f 149 191 192
f 141 185 142
f 142 185 145
f 143 145 186
f 143 186 187
f 143 187 168
f 143 168 167
f 143 167 144
f 141 182 183
f 144 167 165
f 146 188 189
f 146 149 193
f 146 193 188
f 147 189 190
f 147 190 150
f 148 161 149
f 149 161 191
f 145 185 186
f 201 239 238
f 245 282 283
f 202 241 203
f 262 292 263
f 263 293 294
f 263 294 286
f 263 286 265
f 263 265 290
f 263 292 295
f 263 295 296
f 263 296 293
f 266 271 269
f 269 279 288
f 272 297 275
f 272 274 298
f 272 298 297
f 274 299 294
f 274 294 298
f 261 292 262
f 261 291 292
f 260 265 264
f 260 290 265
f 246 276 278
f 246 278 284
f 250 265 251
f 251 285 252
f 251 265 286
f 251 286 285
f 252 285 287
f 274 287 299
f 252 287 253
f 253 274 273
f 255 268 256
f 256 267 269
f 256 269 288
f 256 288 289
f 256 289 258
f 256 258 257
f 253 287 274
f 245 283 279
f 275 297 300
f 277 301 302
f 295 309 296
f 296 309 310
f 296 310 297
f 296 297 298
f 297 310 311
f 297 311 301
f 297 301 300
f 301 312 303
f 301 303 302
f 301 311 310
f 301 310 309
f 301 309 308
f 301 308 307
f 303 312 304
f 124 164 211
f 294 296 298
f 293 296 294
f 292 307 308
f 292 309 295
f 277 302 284
f 277 284 278
f 277 300 301
f 279 283 288
f 280 303 281
f 281 303 304
f 281 304 282
f 275 300 277
f 283 305 288
f 285 286 294
f 285 294 299
f 285 299 287
f 288 305 306
f 288 306 289
f 291 307 292
f 292 308 309
f 284 302 303
f 202 237 241
f 245 281 282
f 245 271 270
f 212 249 250
f 212 250 213
f 213 250 251
f 213 251 252
f 213 252 253
f 213 253 254
f 213 254 248
f 213 248 247
f 214 231 255
f 214 255 220
f 220 255 256
f 220 256 257
f 220 257 258
f 224 259 261
f 224 261 262
f 212 227 249
f 211 248 234
f 211 247 248
f 210 247 211
f 203 241 242
f 203 242 243
f 203 243 205
f 203 205 204
f 205 243 244
f 205 244 208
f 205 208 206
f 224 262 263
f 207 245 232
f 207 246 284
f 207 284 303
f 207 303 280
f 207 280 245
f 208 244 209
f 209 244 246
f 210 213 247
f 207 209 246
f 245 280 281
f 224 263 290
f 225 260 264
f 237 272 241
f 237 239 272
f 239 240 273
f 239 273 274
f 239 274 272
f 241 275 242
f 241 272 275
f 242 276 246
f 242 246 243
f 242 275 277
f 242 277 278
f 242 278 276
f 243 246 244
f 245 279 269
f 245 269 271
f 235 273 240
f 235 253 273
f 235 254 253
f 235 240 236
f 225 264 265
f 225 265 226
f 226 265 250
f 227 250 249
f 229 233 266
f 230 267 256
f 230 256 268
f 224 290 260
f 230 266 269
f 231 268 255
f 232 270 233
f 232 245 270
f 233 270 271
f 233 271 266
f 234 248 254
f 234 254 235
f 230 269 267
f 123 164 124
f 54 58 55
f 122 163 123
f 22 44 23
f 23 44 45
f 23 45 46
f 23 46 47
f 23 47 24
f 26 48 49
f 26 49 50
f 26 50 51
f 26 51 27
f 27 51 28
f 28 51 29
f 29 51 30
f 30 51 52
f 30 52 53
f 30 53 61
f 22 43 44
f 22 42 43
f 22 41 42
f 22 39 41
f 12 33 14
f 12 14 13
f 12 16 34
f 12 34 56
f 12 56 31
f 14 33 35
f 14 35 38
f 30 61 36
f 14 38 18
f 16 36 37
f 16 37 34
f 17 38 39
f 17 39 19
f 20 39 40
f 21 40 22
f 22 40 39
f 14 18 15
f 12 32 33
f 31 54 55
f 31 57 54
f 41 43 42
f 43 67 68
f 43 68 44
f 44 68 69
f 44 69 70
f 44 70 45
f 45 70 71
f 45 71 46
f 48 72 73
f 48 73 74
f 48 74 75
f 48 75 49
f 49 75 74
f 49 74 76
f 49 76 50
f 41 67 43
f 38 41 39
f 38 67 41
f 38 66 67
f 32 55 33
f 33 55 58
f 33 58 35
f 34 37 64
f 34 64 56
f 35 58 59
f 35 59 60
f 31 56 57
f 35 60 38
f 36 62 37
f 37 63 57
f 37 57 64
f 37 62 65
f 37 65 96
f 37 96 63
f 38 60 66
f 36 61 62
f 50 76 74
f 12 55 32
f 11 29 30
f 4 18 5
f 5 17 19
f 5 19 6
f 5 18 38
f 123 163 164
f 6 19 39
f 6 39 20
f 6 20 40
f 6 40 21
f 6 21 7
f 7 21 22
f 7 22 8
f 8 22 23
f 8 23 24
f 8 24 47
f 4 15 18
f 3 16 12
f 3 15 4
f 3 14 15
f 1 2 11
f 1 11 30
f 1 30 36
f 1 36 16
f 1 16 3
f 1 3 4
f 1 4 5
f 8 47 46
f 1 5 6
f 1 7 8
f 1 8 9
f 1 9 10
f 1 10 2
f 2 10 11
f 3 12 13
f 3 13 14
f 1 6 7
f 12 31 55
f 8 46 71
f 8 104 103
f 8 259 223
f 8 223 180
f 8 180 139
f 8 139 106
f 8 106 72
f 8 72 48
f 8 48 26
f 8 26 25
f 8 25 10
f 8 10 9
f 10 25 11
f 11 25 26
f 11 26 27
f 11 27 28
f 11 28 29
f 8 261 259
f 8 291 261
f 8 307 291
f 8 301 307
f 8 103 102
f 8 102 101
f 8 101 100
f 8 100 137
f 8 137 178
f 8 178 222
f 8 222 221
f 8 71 104
f 8 221 258
f 8 289 306
f 8 306 305
f 8 305 283
f 8 283 282
f 8 282 304
f 8 304 312
f 8 312 301
f 8 258 289
f 50 74 77
f 5 38 17
f 50 78 79
f 98 131 130
f 98 130 132
f 98 132 99
f 99 132 133
f 99 133 134
f 99 134 135
f 99 135 136
f 99 136 138
f 99 138 105
f 100 105 138
f 100 138 176
f 100 176 137
f 106 139 107
f 107 140 182
f 107 182 141
f 95 125 97
f 95 110 125
f 93 131 98
f 92 131 93
f 87 128 122
f 87 122 123
f 87 123 124
f 87 124 153
f 87 153 117
f 88 96 97
f 88 97 125
f 107 141 108
f 88 125 126
f 88 127 128
f 89 121 129
f 89 129 130
f 89 130 91
f 89 91 90
f 91 130 92
f 92 130 131
f 88 126 127
f 87 88 128
f 107 139 180
f 108 141 142
f 117 156 118
f 118 156 157
f 118 157 158
f 118 158 206
f 118 206 159
f 118 159 119
f 119 160 161
f 119 161 148
f 119 148 120
f 119 159 206
f 119 206 160
f 121 152 129
f 122 128 162
f 122 162 163
f 50 77 78
f 117 199 156
f 117 155 199
f 117 154 155
f 117 153 154
f 108 142 111
f 110 143 144
f 110 144 125
f 111 142 145
f 111 145 112
f 112 145 143
f 113 146 189
f 107 180 140
f 113 189 147
f 113 120 148
f 113 148 149
f 113 149 146
f 114 147 150
f 114 150 151
f 114 151 115
f 115 151 152
f 113 147 114
f 84 89 85
f 110 112 143
f 83 121 89
f 57 63 88
f 57 88 87
f 59 86 60
f 60 85 89
f 60 89 90
f 60 90 91
f 60 91 92
f 60 92 93
f 60 93 67
f 60 67 66
f 62 80 79
f 62 79 94
f 62 94 95
f 62 95 65
f 63 96 88
f 56 64 57
f 65 95 97
f 54 87 117
f 54 59 58
f 50 79 51
f 83 89 84
f 51 79 80
f 51 80 52
f 52 80 62
f 52 62 53
f 53 62 61
f 54 81 116
f 54 116 82
f 54 82 83
f 54 83 84
f 54 84 85
f 54 85 60
f 54 60 86
f 54 86 59
f 54 57 87
f 65 97 96
f 54 117 81
f 68 98 99
f 78 109 111
f 78 111 112
f 78 112 110
f 79 110 95
f 81 113 114
f 81 114 115
f 81 115 116
f 78 110 79
f 81 117 118
f 81 119 120
f 81 120 113
f 82 116 115
f 82 115 83
f 67 93 68
f 83 115 152
f 83 152 121
f 81 118 119
f 74 111 109
f 79 95 94
f 74 108 111
f 68 93 98
f 69 99 105
f 69 105 70
f 70 100 101
f 70 101 102
f 70 103 104
f 70 104 71
f 70 105 100
f 70 102 103
f 72 107 73
f 73 107 108
f 73 108 74
f 74 109 78
f 74 78 77
f 72 106 107
f 68 99 69

