# https://github.com/mikedh/trimesh
v 0.62832000 -0.35105100 -0.36957600
v 0.60999000 -0.34644500 -0.42304100
v 0.61600600 -0.34493300 -0.43731000
v 0.62216300 -0.34493300 -0.42500900
v 0.64064500 -0.34493300 -0.36957600
v 0.62832000 -0.35105100 -0.33267500
v 0.60999000 -0.34644500 -0.42213900
v 0.60999000 -0.34369600 -0.43608000
v 0.62370200 -0.34184000 -0.43427600
v 0.60999000 -0.34190800 -0.44337800
v 0.60999000 -0.22800800 -0.64346200
v 0.61446700 -0.23096300 -0.63755800
v 0.63448800 -0.21556600 -0.65904300
v 0.64911100 -0.23556900 -0.60975900
v 0.65142000 -0.24945400 -0.58204300
v 0.64064500 -0.34493300 -0.33267500
v 0.64218400 -0.34184000 -0.37876000
v 0.67913700 -0.28643600 -0.47117600
v 0.67759800 -0.28946000 -0.46199200
v 0.61600600 -0.34493300 -0.32652500
v 0.63756600 -0.34644500 -0.32340900
v 0.64680200 -0.31413800 -0.20335900
v 0.63756600 -0.32795400 -0.24952600
v 0.60999000 -0.33290400 -0.33251100
v 0.66758200 -0.29104100 -0.48044300
v 0.60999000 -0.20937900 -0.67142500
v 0.62216300 -0.20937900 -0.67142500
v 0.63448800 -0.19707500 -0.67757500
v 0.64218400 -0.21247300 -0.65600800
v 0.66066600 -0.23096300 -0.60057500
v 0.67759800 -0.28946000 -0.44346000
v 0.65912700 -0.30795100 -0.20335900
v 0.65604800 -0.30953200 -0.19409200
v 0.68375500 -0.27715600 -0.46199200
v 0.68375500 -0.27715600 -0.44346000
v 0.61446700 -0.33262900 -0.31192900
v 0.60999000 -0.33262900 -0.33201900
v 0.63448800 -0.30795100 -0.19712700
v 0.64680200 -0.30183300 -0.17867600
v 0.60999000 -0.19872500 -0.67798500
v 0.60999000 -0.14806400 -0.70209300
v 0.63448800 -0.10469000 -0.71455800
v 0.64218400 -0.19398200 -0.67445900
v 0.64680200 -0.18477100 -0.66527500
v 0.66528400 -0.22175200 -0.59130900
v 0.66528400 -0.29564700 -0.20335900
v 0.66066600 -0.29798400 -0.18482600
v 0.67913700 -0.22402100 -0.09241030
v 0.67450900 -0.23556900 -0.10167600
v 0.65604800 -0.27255100 -0.13865900
v 0.64680200 -0.03691290 -0.72070800
v 0.68375500 0.27715600 -0.46199200
v 0.72070800 -0.01842210 -0.18482600
v 0.70223700 -0.22175200 -0.31422500
v 0.63294900 -0.29564700 -0.18253000
v 0.62832000 -0.29564700 -0.20335900
v 0.62832000 -0.05540370 0.08012140
v 0.60999000 -0.22223400 -0.22139900
v 0.63756600 -0.30485800 -0.18950000
v 0.63446600 -0.06770800 0.08012140
v 0.60999000 -0.05540370 -0.73915800
v 0.63062900 -0.05540370 -0.73456600
v 0.64218400 -0.10159600 -0.71144200
v 0.64680200 -0.09238540 -0.70217500
v 0.68375500 -0.22175200 -0.11094300
v 0.68375500 -0.20326200 -0.09241030
v 0.67913700 -0.18710800 -0.05550950
v 0.65912700 -0.06770800 0.08012140
v 0.66528400 -0.22787000 -0.08626010
v 0.66528400 -0.24711700 -0.11094300
v 0.64680200 -0.07389450 0.08012140
v 0.64680200 0.03691290 -0.72070800
v 0.64218400 -0.04619270 -0.72989200
v 0.64064500 -0.03691290 -0.73300800
v 0.66528400 0.22175200 -0.59130900
v 0.67759800 0.28946000 -0.46814200
v 0.68375500 0.27715600 -0.44346000
v 0.70223700 0.22175200 -0.31422500
v 0.72070800 0.01842210 -0.18482600
v 0.68375500 -0.05540370 0.01845610
v 0.68375500 -0.16628000 -0.05550950
v 0.70223700 -0.20326200 -0.25879200
v 0.62832000 0.05540370 0.08012140
v 0.60999000 -0.01828460 -0.11118900
v 0.60999000 -0.03684420 -0.11151700
v 0.60999000 -0.11080700 -0.14841700
v 0.60999000 -0.20614900 -0.20918100
v 0.60999000 -0.00027496 -0.75752700
v 0.60999000 0.00000000 -0.75760900
v 0.63448800 0.00000000 -0.74530800
v 0.66528400 -0.05540370 0.08012140
v 0.65094300 -0.07183240 0.08012140
v 0.64064500 0.03691290 -0.73300800
v 0.64064500 0.09238540 -0.71455800
v 0.64680200 0.09238540 -0.70217500
v 0.64680200 0.18477100 -0.66527500
v 0.64218400 0.20326200 -0.66757100
v 0.65912700 0.23405700 -0.59745900
v 0.65604800 0.24945400 -0.57745100
v 0.66528400 0.29104100 -0.48273900
v 0.62216300 0.34493300 -0.43116000
v 0.64064500 0.34493300 -0.37572600
v 0.67759800 0.28946000 -0.44961000
v 0.66528400 0.29564700 -0.20335900
v 0.68375500 0.22175200 -0.11094300
v 0.70223700 0.20326200 -0.25879200
v 0.68375500 0.20326200 -0.09241030
v 0.68375500 0.16628000 -0.05550950
v 0.68375500 0.05540370 0.01845610
v 0.60999000 0.12861100 -0.14858100
v 0.60999000 0.05471630 -0.11159900
v 0.60999000 0.03663790 -0.11118900
v 0.63448800 0.06770800 0.08012140
v 0.63294900 0.30485800 -0.19409200
v 0.62832000 0.29564700 -0.20335900
v 0.60999000 0.33290400 -0.33242900
v 0.60999000 0.22333300 -0.22016900
v 0.60999000 0.00013748 -0.75760900
v 0.61908500 0.00921104 -0.75301700
v 0.62832000 0.01842210 -0.74612800
v 0.63756600 0.04619270 -0.73456600
v 0.66528400 0.05540370 0.08012140
v 0.63756600 0.10159600 -0.71603400
v 0.63756600 0.19398200 -0.67913300
v 0.64218400 0.11087600 -0.70447100
v 0.62832000 0.20937900 -0.67142500
v 0.63756600 0.21247300 -0.66060100
v 0.64064500 0.21556600 -0.65289200
v 0.64680200 0.23556900 -0.61213800
v 0.61908500 0.34184000 -0.43886800
v 0.60999000 0.33881500 -0.44944600
v 0.60999000 0.34493300 -0.43722800
v 0.60999000 0.34623900 -0.42599300
v 0.62832000 0.35105100 -0.36957600
v 0.64064500 0.34493300 -0.33874400
v 0.65912700 0.30795100 -0.20950900
v 0.65295900 0.30183300 -0.17867600
v 0.65604800 0.28643600 -0.15711000
v 0.68067600 0.21865900 -0.09552640
v 0.68067600 0.18167700 -0.05854350
v 0.64680200 0.07389450 0.08012140
v 0.65142000 0.28643600 -0.15711000
v 0.64449300 0.29104100 -0.16637600
v 0.64064500 0.30795100 -0.19097600
v 0.61446700 0.34184000 -0.32340900
v 0.60999000 0.34603300 -0.41967900
v 0.60999000 0.05554120 -0.73907600
v 0.61908500 0.06461480 -0.73456600
v 0.65912700 0.06770800 0.08012140
v 0.67143000 0.19095700 -0.04935940
v 0.61908500 0.15706900 -0.69758300
v 0.60999000 0.20937900 -0.67142500
v 0.60999000 0.20944800 -0.67134300
v 0.60999000 0.23563800 -0.63042400
v 0.60999000 0.34623900 -0.42295900
v 0.62832000 0.35105100 -0.33267500
v 0.64680200 0.31413800 -0.20335900
v 0.67143000 0.22787000 -0.08626010
v 0.65300200 0.07080130 0.08012140
v 0.62216300 0.34493300 -0.32037500
v 0.61600600 0.34493300 -0.33267500
v 0.60999000 0.14778900 -0.70217500
v 0.60999000 0.16016200 -0.69602500
f 76 100 101
f 79 108 109
f 79 107 108
f 80 122 91
f 79 105 107
f 79 106 105
f 80 109 122
f 77 104 78
f 78 105 106
f 78 104 105
f 77 136 104
f 76 135 103
f 80 91 81
f 76 102 135
f 76 101 102
f 78 106 79
f 83 110 111
f 90 121 93
f 83 113 114
f 95 97 96
f 95 125 97
f 76 99 100
f 94 121 123
f 94 125 95
f 94 97 125
f 94 124 97
f 94 123 124
f 93 121 94
f 90 120 121
f 90 119 120
f 90 118 119
f 89 118 90
f 83 117 110
f 83 116 117
f 83 115 116
f 83 114 115
f 83 111 112
f 76 98 99
f 57 141 113
f 75 96 97
f 57 113 83
f 57 159 141
f 57 149 159
f 57 122 149
f 57 91 122
f 57 68 91
f 57 92 68
f 57 83 112
f 57 71 92
f 55 57 56
f 55 60 57
f 54 82 65
f 53 82 54
f 53 65 82
f 97 124 126
f 53 66 65
f 57 60 71
f 57 112 84
f 57 84 85
f 57 85 86
f 75 95 96
f 72 95 75
f 72 94 95
f 72 93 94
f 69 92 71
f 68 92 69
f 67 91 68
f 67 81 91
f 66 81 67
f 62 73 63
f 62 74 73
f 62 90 74
f 62 89 90
f 62 88 89
f 61 88 62
f 57 87 58
f 57 86 87
f 75 97 98
f 97 126 127
f 135 156 157
f 97 128 98
f 138 158 139
f 138 142 158
f 137 142 138
f 137 144 142
f 137 157 144
f 136 157 137
f 135 157 136
f 139 158 140
f 133 156 134
f 126 130 127
f 126 131 130
f 126 154 131
f 126 153 154
f 126 152 153
f 124 148 151
f 124 152 126
f 133 155 156
f 124 151 152
f 140 158 150
f 141 159 158
f 53 81 66
f 156 160 157
f 156 161 160
f 155 161 156
f 151 163 152
f 151 162 163
f 149 158 159
f 141 158 142
f 149 150 158
f 147 162 151
f 146 161 155
f 145 161 146
f 145 160 161
f 144 160 145
f 144 157 160
f 142 144 143
f 147 151 148
f 123 148 124
f 122 150 149
f 122 140 150
f 104 136 137
f 103 135 136
f 102 156 135
f 102 134 156
f 101 127 130
f 101 128 127
f 101 129 128
f 104 137 138
f 101 134 102
f 101 132 133
f 101 131 132
f 101 130 131
f 99 101 100
f 99 129 101
f 99 128 129
f 98 128 99
f 101 133 134
f 104 138 105
f 105 138 139
f 105 139 107
f 121 148 123
f 119 121 120
f 119 148 121
f 118 148 119
f 118 147 148
f 116 145 146
f 115 145 116
f 114 145 115
f 114 144 145
f 114 143 144
f 113 143 114
f 113 142 143
f 113 141 142
f 108 122 109
f 108 140 122
f 107 139 140
f 107 140 108
f 97 127 128
f 53 80 81
f 77 103 136
f 53 79 109
f 6 16 21
f 6 20 7
f 5 31 16
f 5 19 31
f 5 18 19
f 5 17 18
f 5 9 17
f 6 21 33
f 4 9 5
f 3 14 15
f 3 13 14
f 3 12 13
f 3 11 12
f 3 10 11
f 3 8 10
f 3 9 4
f 3 15 9
f 6 33 22
f 6 22 23
f 6 23 20
f 16 33 21
f 16 32 33
f 16 31 32
f 15 18 25
f 15 30 18
f 14 30 15
f 14 29 30
f 13 29 14
f 13 28 29
f 13 27 28
f 11 13 12
f 11 27 13
f 11 26 27
f 9 18 17
f 9 25 18
f 9 15 25
f 7 20 24
f 2 8 3
f 18 34 35
f 2 10 8
f 2 26 11
f 2 112 111
f 2 84 112
f 2 85 84
f 2 86 85
f 2 87 86
f 2 58 87
f 2 37 58
f 2 111 110
f 2 24 37
f 1 7 2
f 1 6 7
f 1 16 6
f 1 4 5
f 1 3 4
f 1 2 3
f 53 109 80
f 2 7 24
f 2 110 117
f 2 117 116
f 2 116 146
f 2 40 26
f 2 41 40
f 2 61 41
f 2 88 61
f 2 89 88
f 2 118 89
f 2 147 118
f 2 162 147
f 2 163 162
f 2 152 163
f 2 153 152
f 2 154 153
f 2 131 154
f 2 132 131
f 2 133 132
f 2 155 133
f 2 146 155
f 2 11 10
f 18 35 31
f 1 5 16
f 18 30 34
f 48 66 67
f 48 65 66
f 47 65 48
f 46 54 65
f 46 65 47
f 45 64 51
f 44 64 45
f 48 67 68
f 44 63 64
f 42 62 63
f 42 61 62
f 41 61 42
f 39 60 55
f 39 50 60
f 39 55 59
f 38 59 55
f 43 63 44
f 48 68 69
f 48 69 49
f 49 69 70
f 18 31 19
f 52 77 78
f 52 78 79
f 52 76 103
f 52 98 76
f 52 75 98
f 52 72 75
f 51 93 72
f 51 90 93
f 51 74 90
f 51 73 74
f 51 63 73
f 51 64 63
f 50 71 60
f 50 69 71
f 50 70 69
f 49 70 50
f 38 39 59
f 37 57 58
f 52 103 77
f 37 55 56
f 30 43 44
f 29 43 30
f 28 43 29
f 28 63 43
f 28 42 63
f 28 41 42
f 28 40 41
f 30 44 45
f 27 40 28
f 22 38 23
f 22 39 38
f 22 33 39
f 20 55 36
f 20 38 55
f 20 37 24
f 37 56 57
f 26 40 27
f 30 45 34
f 20 23 38
f 31 46 32
f 36 55 37
f 31 35 46
f 35 54 46
f 34 54 35
f 34 53 54
f 34 79 53
f 34 52 79
f 34 72 52
f 20 36 37
f 34 45 51
f 34 51 72
f 33 50 39
f 33 49 50
f 33 48 49
f 33 47 48
f 32 47 33
f 32 46 47

