# https://github.com/mikedh/trimesh
v 0.31683200 0.24138700 -0.03216680
v 0.30774900 0.26246800 -0.18086900
v 0.29946400 0.26455300 -0.18086900
v 0.30174700 0.24064000 -0.03216680
v 0.32081800 0.23939500 -0.03216680
v 0.31651300 0.25663400 -0.18086900
v 0.32688900 0.23636100 -0.03216680
v 0.33694600 0.23132000 -0.03216680
v 0.29946400 0.24028200 -0.03216680
v 0.29975300 0.24039100 -0.03216680
v 0.29946400 0.13282000 -0.18086900
v 0.31699200 0.25615200 -0.18086900
v 0.33694600 0.23132000 -0.04024610
v 0.34500300 0.21520200 -0.03216680
v 0.36711000 0.18606100 -0.16092600
v 0.29946400 0.15468000 -0.03216680
v 0.30569500 0.11925400 -0.18086900
v 0.29946400 0.12938200 -0.15725800
v 0.33560700 0.22998200 -0.18086900
v 0.34699600 0.21120300 -0.03216680
v 0.37717500 0.16596000 -0.16594800
v 0.37213800 0.17602600 -0.17098500
v 0.29946400 0.13985300 -0.09135670
v 0.30677500 0.14081700 -0.07040880
v 0.30174700 0.15379300 -0.03216680
v 0.30928600 0.11315500 -0.18086900
v 0.29946400 0.12938200 -0.13805600
v 0.37318100 0.16768700 -0.18086900
v 0.34739900 0.20921200 -0.03216680
v 0.36208100 0.18105100 -0.07544560
v 0.37385000 0.16596000 -0.18086900
v 0.37717500 0.15088400 -0.15086700
v 0.37717500 0.15103900 -0.18086900
v 0.30928600 0.11315500 -0.17725900
v 0.30677500 0.12572600 -0.13074900
v 0.32186100 0.11065000 -0.16092600
v 0.33191800 0.10560900 -0.16594800
v 0.31683200 0.13579200 -0.07544560
v 0.31882500 0.15603400 -0.03216680
v 0.32437100 0.13955700 -0.06790490
v 0.31683200 0.10870500 -0.18086900
v 0.34749800 0.19438500 -0.03216680
v 0.35831600 0.17916900 -0.06034970
v 0.37340100 0.13391000 -0.15086700
v 0.37717500 0.13579200 -0.16594800
v 0.37717500 0.13579200 -0.18086900
v 0.33191800 0.10560900 -0.18086900
v 0.34699600 0.10567100 -0.18086900
v 0.34715600 0.10570200 -0.18086900
v 0.35454200 0.10939000 -0.17348900
v 0.33945700 0.10939000 -0.15840800
v 0.33191800 0.12070000 -0.12069000
v 0.33191800 0.14522000 -0.06034970
v 0.32992500 0.15881800 -0.03216680
v 0.33945700 0.12448100 -0.11314900
v 0.34699600 0.13012900 -0.10562300
v 0.34749800 0.18130000 -0.03216680
v 0.35454200 0.17728600 -0.05280900
v 0.35831600 0.14898600 -0.09052690
v 0.36962800 0.13201100 -0.14332600
v 0.37331800 0.11877100 -0.18086900
v 0.37338600 0.11889600 -0.18086900
v 0.37343900 0.11900500 -0.18086900
v 0.36192200 0.11124100 -0.18086900
v 0.36224100 0.11139700 -0.18086900
v 0.36962800 0.11693500 -0.17348900
v 0.36208100 0.11505300 -0.16594800
v 0.35454200 0.12448100 -0.12823000
v 0.33391100 0.16081000 -0.03216680
v 0.35454200 0.13201100 -0.11314900
v 0.35454200 0.14710300 -0.08298620
v 0.34650100 0.17881100 -0.03216680
v 0.33945700 0.16219500 -0.03772760
v 0.34130500 0.16866700 -0.03216680
v 0.34213500 0.17008300 -0.03216680
f 37 51 55
f 37 47 48
f 37 48 49
f 36 41 37
f 37 49 50
f 37 50 51
f 37 41 47
f 39 40 53
f 37 52 38
f 38 52 40
f 39 53 54
f 40 52 55
f 34 36 35
f 40 55 56
f 37 55 52
f 34 41 36
f 23 34 35
f 32 43 44
f 40 56 53
f 21 46 33
f 21 33 31
f 23 27 34
f 23 35 24
f 24 35 36
f 24 36 37
f 24 37 38
f 24 38 25
f 25 38 40
f 25 40 39
f 26 41 34
f 29 42 43
f 29 43 30
f 30 43 32
f 32 44 45
f 42 57 43
f 61 66 65
f 43 58 71
f 56 70 71
f 56 71 69
f 57 72 58
f 58 72 71
f 59 71 60
f 60 70 66
f 60 66 61
f 60 71 70
f 66 68 67
f 66 70 68
f 69 73 74
f 69 71 73
f 71 72 75
f 71 75 74
f 71 74 73
f 56 68 70
f 43 57 58
f 55 68 56
f 53 69 54
f 43 71 59
f 43 59 44
f 44 60 61
f 44 61 62
f 44 62 63
f 44 63 45
f 44 59 60
f 45 63 46
f 49 64 50
f 50 64 65
f 50 65 66
f 50 66 67
f 50 67 68
f 50 68 55
f 50 55 51
f 53 56 69
f 21 45 46
f 21 30 32
f 21 28 22
f 1 7 5
f 1 5 2
f 2 6 12
f 2 12 19
f 2 19 28
f 2 28 31
f 1 8 7
f 2 31 33
f 2 46 63
f 2 63 62
f 2 62 61
f 2 61 65
f 2 65 64
f 2 64 49
f 2 33 46
f 1 14 8
f 1 29 20
f 1 42 29
f 21 32 45
f 1 2 3
f 1 3 4
f 1 4 10
f 1 10 9
f 1 9 16
f 1 16 25
f 1 25 39
f 1 39 54
f 1 54 69
f 1 69 74
f 1 74 75
f 1 75 72
f 1 72 57
f 1 57 42
f 2 49 48
f 2 48 47
f 1 20 14
f 2 41 26
f 12 13 19
f 13 15 19
f 14 20 15
f 15 20 21
f 15 21 22
f 16 23 24
f 16 24 25
f 17 26 18
f 18 26 34
f 18 34 27
f 19 22 28
f 20 29 30
f 20 30 21
f 2 47 41
f 21 31 28
f 11 17 18
f 8 15 13
f 15 22 19
f 8 14 15
f 2 26 17
f 2 17 11
f 2 11 3
f 2 5 7
f 2 7 8
f 3 9 10
f 3 10 4
f 2 8 6
f 3 18 27
f 3 27 23
f 3 23 16
f 3 16 9
f 6 8 12
f 8 13 12
f 3 11 18

