# https://github.com/mikedh/trimesh
v 0.42997300 -0.05657620 -0.64118500
v 0.39226200 -0.04525630 -0.64871300
v 0.40483200 -0.04776980 -0.65125200
v 0.42745700 -0.05531040 -0.64369500
v 0.43940100 -0.04525630 -0.64496400
v 0.44882900 -0.03771580 -0.64118500
v 0.43752300 -0.05091630 -0.63362800
v 0.44506000 -0.04147700 -0.61101600
v 0.42997300 -0.04147700 -0.59593100
v 0.42242400 -0.04525630 -0.60345900
v 0.40733700 -0.04525630 -0.60345900
v 0.42242400 -0.05531040 -0.63867600
v 0.41488600 -0.05279690 -0.63740700
v 0.38220800 -0.04022930 -0.64369500
v 0.38472400 -0.03771580 -0.65627000
v 0.39728300 -0.04022930 -0.65877900
v 0.41237000 -0.04022930 -0.65877900
v 0.42620400 -0.03771580 -0.65627000
v 0.44254400 -0.02513010 -0.65877900
v 0.44882900 -0.02261660 -0.65627000
v 0.45261000 -0.01507600 -0.64871300
v 0.45261000 -0.03015710 -0.63362800
v 0.44757700 -0.04022930 -0.63362800
v 0.44757700 -0.04022930 -0.61854300
v 0.44882900 -0.03205580 -0.60345900
v 0.44506000 -0.03393640 -0.59593100
v 0.39979900 0.03394660 -0.38474400
v 0.41488600 -0.01131480 -0.50542200
v 0.40733700 -0.01507600 -0.51297900
v 0.39226200 0.00000510 -0.46772500
v 0.37718600 0.01510430 -0.42244100
v 0.39226200 -0.03015710 -0.55820400
v 0.39728300 -0.04022930 -0.59844000
v 0.36209900 0.00000510 -0.57328900
v 0.37718600 -0.03015710 -0.64871300
v 0.38220800 -0.02513010 -0.55318600
v 0.37215300 -0.02010310 -0.56322300
v 0.33694700 0.05027550 -0.37216800
v 0.33694700 0.05027550 -0.40233800
v 0.38220800 -0.02513010 -0.65877900
v 0.39226200 -0.03015710 -0.66382700
v 0.40733700 -0.03015710 -0.66382700
v 0.43752300 -0.01507600 -0.66382700
v 0.44757700 -0.01507600 -0.65877900
v 0.45261000 0.00000510 -0.64871300
v 0.45261000 -0.03015710 -0.61854300
v 0.45261000 0.00000510 -0.58837400
v 0.44882900 -0.00187552 -0.57328900
v 0.41865500 0.04336780 -0.40735600
v 0.41488600 0.04148720 -0.39982900
v 0.40232700 0.05020310 -0.36225000
v 0.40215000 0.05011270 -0.36225000
v 0.39226200 0.04517610 -0.36225000
v 0.37702100 0.03948000 -0.36225000
v 0.36963700 0.03394660 -0.36965900
v 0.36209900 0.03394660 -0.37529800
v 0.36209900 0.01510430 -0.57328900
v 0.36460400 0.00251862 -0.58586500
v 0.33192500 0.06034760 -0.40735600
v 0.37718600 0.00000510 -0.64871300
v 0.35455000 0.03770790 -0.37340800
v 0.35203400 0.03521240 -0.38725300
v 0.34198000 0.04022140 -0.39732000
v 0.33946300 0.05278900 -0.36225000
v 0.33590700 0.05861170 -0.36225000
v 0.33192500 0.06034760 -0.37718700
v 0.38220800 0.00503214 -0.65877900
v 0.39226200 0.00000510 -0.66382700
v 0.43752300 0.00000510 -0.66382700
v 0.44506000 0.00754566 -0.66004900
v 0.44757700 0.00000510 -0.65877900
v 0.44757700 0.01005920 -0.65376100
v 0.45261000 0.01510430 -0.61854300
v 0.45261000 0.01510430 -0.58837400
v 0.43752300 0.03018540 -0.49789500
v 0.42242400 0.06034760 -0.40735600
v 0.43374200 0.02830480 -0.48281000
v 0.40730100 0.06014870 -0.36225000
v 0.36209900 0.04186690 -0.36225000
v 0.33192500 0.07542870 -0.40735600
v 0.33569400 0.09239050 -0.40735600
v 0.34701200 0.04819590 -0.36225000
v 0.34528800 0.04924470 -0.36225000
v 0.33523300 0.06034760 -0.36225000
v 0.33192500 0.07526600 -0.36225000
v 0.38472400 0.01132500 -0.65627000
v 0.40733700 0.01698490 -0.66004900
v 0.33946300 0.09428920 -0.41491400
v 0.42242400 0.01510430 -0.66382700
v 0.42997300 0.02264490 -0.66004900
v 0.43249000 0.02515840 -0.65376100
v 0.44506000 0.02264490 -0.63740700
v 0.44757700 0.02515840 -0.62359100
v 0.41740300 0.08548280 -0.44257400
v 0.41740300 0.08548280 -0.42748900
v 0.42242400 0.07542870 -0.42244100
v 0.43752300 0.04524840 -0.49789500
v 0.40733700 0.09050990 -0.36225000
v 0.40733700 0.06034760 -0.36225000
v 0.33192500 0.09050990 -0.39227200
v 0.33196100 0.10562700 -0.36225000
v 0.33569400 0.10749000 -0.37718700
v 0.33192500 0.10544600 -0.36225000
v 0.38472400 0.05656830 -0.56576100
v 0.39226200 0.02074610 -0.64871300
v 0.39979900 0.01886550 -0.65627000
v 0.35455000 0.07919000 -0.47525300
v 0.35455000 0.08674860 -0.46016800
v 0.41488600 0.02640610 -0.65627000
v 0.42242400 0.02515840 -0.65877900
v 0.33946300 0.11691100 -0.36965900
v 0.42242400 0.03018540 -0.64871300
v 0.43249000 0.04022140 -0.60850700
v 0.44254400 0.03521240 -0.59844000
v 0.41237000 0.09553690 -0.41742300
v 0.40336700 0.10721800 -0.36225000
v 0.40393400 0.10569900 -0.36225000
v 0.33693500 0.11557300 -0.36225000
v 0.39979900 0.04148720 -0.61101600
v 0.39226200 0.03582730 -0.61854300
v 0.35455000 0.10183000 -0.42999800
v 0.34701200 0.12622400 -0.36225000
v 0.36963700 0.11691100 -0.39982900
v 0.33700600 0.11568100 -0.36225000
v 0.34684700 0.12613300 -0.36225000
v 0.42242400 0.04524840 -0.60345900
v 0.38472400 0.10183000 -0.44508300
v 0.37718600 0.12069000 -0.39227200
v 0.41740300 0.07040170 -0.51796800
v 0.38724000 0.11566300 -0.39732000
v 0.40231600 0.10056400 -0.42748900
v 0.39979900 0.11315000 -0.36588100
v 0.39979900 0.11315000 -0.36225000
v 0.34749700 0.12633200 -0.36225000
v 0.36209900 0.12815800 -0.36225000
v 0.36627000 0.12711000 -0.36225000
v 0.37718600 0.12399900 -0.36225000
v 0.39388000 0.11671200 -0.36225000
f 72 92 93
f 72 91 92
f 70 91 72
f 70 90 91
f 69 90 70
f 69 89 90
f 68 87 89
f 67 88 86
f 67 81 88
f 67 86 87
f 66 84 85
f 61 83 64
f 65 84 66
f 67 87 68
f 76 99 78
f 73 94 95
f 86 120 105
f 86 104 120
f 61 82 83
f 81 102 88
f 81 101 102
f 81 100 101
f 73 93 94
f 80 100 81
f 76 97 96
f 76 98 99
f 75 97 76
f 74 96 97
f 74 95 96
f 73 95 74
f 76 96 98
f 61 79 82
f 51 65 64
f 60 80 81
f 51 116 133
f 86 105 106
f 51 133 138
f 51 138 137
f 51 137 136
f 51 136 135
f 51 135 134
f 51 134 122
f 51 122 125
f 51 125 124
f 51 124 118
f 51 101 103
f 51 103 85
f 51 85 84
f 60 81 67
f 51 84 65
f 51 83 82
f 51 82 79
f 51 79 54
f 51 54 53
f 51 53 52
f 54 79 55
f 55 79 61
f 55 61 56
f 57 60 58
f 57 80 60
f 59 66 85
f 59 85 103
f 59 103 100
f 59 100 80
f 51 64 83
f 86 106 87
f 111 124 125
f 86 107 108
f 109 119 112
f 111 118 124
f 111 125 121
f 112 119 123
f 112 123 127
f 112 127 128
f 112 128 126
f 113 129 114
f 113 126 128
f 113 128 130
f 113 130 129
f 114 129 131
f 114 131 115
f 115 132 133
f 109 120 119
f 115 133 116
f 121 125 122
f 122 134 123
f 123 134 128
f 123 128 127
f 128 134 135
f 128 135 136
f 128 136 137
f 128 137 138
f 128 138 130
f 129 130 131
f 130 138 132
f 130 132 131
f 132 138 133
f 51 117 116
f 115 131 132
f 109 112 110
f 105 120 109
f 105 109 106
f 86 108 121
f 86 121 104
f 87 106 109
f 87 109 110
f 87 110 89
f 88 102 111
f 88 111 121
f 88 121 108
f 88 108 107
f 89 110 90
f 90 110 112
f 90 112 91
f 91 112 126
f 91 126 113
f 91 113 92
f 92 113 93
f 93 113 114
f 104 123 119
f 104 122 123
f 104 121 122
f 104 119 120
f 102 118 111
f 101 118 102
f 86 88 107
f 100 103 101
f 96 116 117
f 96 115 116
f 95 115 96
f 94 115 95
f 93 115 94
f 93 114 115
f 96 117 98
f 51 98 117
f 51 118 101
f 51 78 99
f 8 28 9
f 9 28 10
f 10 28 29
f 10 29 30
f 10 30 31
f 10 31 11
f 11 32 36
f 11 36 33
f 11 13 12
f 11 31 32
f 14 34 35
f 14 35 15
f 14 33 36
f 14 36 37
f 8 27 28
f 14 37 38
f 14 39 34
f 15 40 41
f 15 41 16
f 15 35 40
f 16 41 42
f 16 42 17
f 17 42 43
f 17 43 19
f 17 19 18
f 19 43 20
f 20 43 44
f 20 44 21
f 21 45 73
f 21 73 74
f 14 38 39
f 8 26 27
f 8 25 26
f 8 24 25
f 51 99 98
f 1 2 3
f 1 3 4
f 1 4 5
f 1 5 6
f 1 6 7
f 1 7 8
f 1 8 9
f 1 9 10
f 1 10 11
f 1 11 12
f 1 12 2
f 2 12 13
f 2 13 11
f 2 11 33
f 2 33 14
f 2 14 15
f 7 24 8
f 7 23 24
f 6 20 21
f 6 23 7
f 6 22 23
f 6 21 22
f 21 74 47
f 5 20 6
f 4 18 19
f 4 17 18
f 3 17 4
f 3 16 17
f 3 15 16
f 2 15 3
f 5 19 20
f 21 47 46
f 4 19 5
f 21 44 71
f 38 63 62
f 38 62 61
f 38 61 64
f 38 64 65
f 38 65 66
f 38 66 59
f 38 59 39
f 40 67 68
f 40 68 41
f 41 68 89
f 41 89 69
f 41 69 43
f 41 43 42
f 43 69 70
f 37 63 38
f 43 70 44
f 45 71 70
f 45 70 72
f 45 93 73
f 47 74 97
f 47 97 75
f 47 75 76
f 47 76 48
f 48 76 77
f 48 77 49
f 49 77 76
f 49 76 78
f 49 78 50
f 21 46 22
f 50 78 51
f 44 70 71
f 36 63 37
f 45 72 93
f 36 61 62
f 27 53 54
f 27 52 53
f 27 51 52
f 27 50 51
f 26 50 27
f 25 49 50
f 27 54 55
f 25 48 49
f 25 46 47
f 24 46 25
f 22 24 23
f 36 62 63
f 22 46 24
f 21 71 45
f 25 47 48
f 27 55 28
f 25 50 26
f 28 30 29
f 35 67 40
f 35 58 60
f 28 55 30
f 35 60 67
f 34 80 57
f 34 59 80
f 34 58 35
f 34 57 58
f 34 39 59
f 36 56 61
f 32 56 36
f 31 56 32
f 31 55 56
f 30 55 31

