# https://github.com/mikedh/trimesh
v 0.47833700 0.29197300 -0.58838600
v 0.47833700 0.29376200 -0.59636100
v 0.60536200 0.35078300 -0.58838600
v 0.60346700 0.34701600 -0.57329400
v 0.54314000 0.31682800 -0.54310800
v 0.47833700 0.29197300 -0.54310800
v 0.49976400 0.30552700 -0.60345000
v 0.47833700 0.29577500 -0.60345000
v 0.61479200 0.35455000 -0.58082500
v 0.61352900 0.35203800 -0.57329400
v 0.57833400 0.35203800 -0.62861500
v 0.60724200 0.35455000 -0.59591800
v 0.59342000 0.34197600 -0.55820100
v 0.54314000 0.31682800 -0.48279500
v 0.47833700 0.29276400 -0.53247500
v 0.50164500 0.30929400 -0.61101100
v 0.47833700 0.30298200 -0.61854300
v 0.48656000 0.30929400 -0.62610400
v 0.59970600 0.36963500 -0.62610400
v 0.59970600 0.38470300 -0.64119700
v 0.61479200 0.36963500 -0.59591800
v 0.61856600 0.36210100 -0.57329400
v 0.61856600 0.36210100 -0.51298100
v 0.61352900 0.35203800 -0.51298100
v 0.57707100 0.36963500 -0.65626000
v 0.59215700 0.36963500 -0.64119700
v 0.58460700 0.35455000 -0.62610400
v 0.59342000 0.35706100 -0.61854300
v 0.59342000 0.34197600 -0.48279500
v 0.58084600 0.33569800 -0.47526400
v 0.55066200 0.32061200 -0.47526400
v 0.53559000 0.32061200 -0.46017100
v 0.52805400 0.31682800 -0.46770200
v 0.47833700 0.29331500 -0.52804400
v 0.47833700 0.30618100 -0.62388900
v 0.47833700 0.31239000 -0.63142000
v 0.48656000 0.32437900 -0.64119700
v 0.56323500 0.36712300 -0.65877100
v 0.60346700 0.39225400 -0.63363600
v 0.59342000 0.39225400 -0.65375000
v 0.59844300 0.39225400 -0.64370700
v 0.61856600 0.37718600 -0.55820100
v 0.61856600 0.37718600 -0.45263900
v 0.60850500 0.35706100 -0.45263900
v 0.61101700 0.35078300 -0.50542000
v 0.56323500 0.39727600 -0.67386400
v 0.57519100 0.37718600 -0.66004100
v 0.57833400 0.40733900 -0.66884300
v 0.58838200 0.34135700 -0.46770200
v 0.59593200 0.35078300 -0.44507800
v 0.56576100 0.33569800 -0.44507800
v 0.55821100 0.32627200 -0.46770200
v 0.53559000 0.33569800 -0.41489200
v 0.52050500 0.33946500 -0.41867300
v 0.47833700 0.30268900 -0.51298100
v 0.47833700 0.31906400 -0.63809600
v 0.47833700 0.32659800 -0.64429800
v 0.59844300 0.40231600 -0.63865700
v 0.58838200 0.43750900 -0.63363600
v 0.60346700 0.40733900 -0.60345000
v 0.61856600 0.40733900 -0.49788800
v 0.58084600 0.44506000 -0.64494800
v 0.59593200 0.39980500 -0.64494800
v 0.61856600 0.39225400 -0.43754600
v 0.61479200 0.37529400 -0.43754600
v 0.61101700 0.37341900 -0.42998500
v 0.59593200 0.37341900 -0.39982900
v 0.59593200 0.36586800 -0.41489200
v 0.59593200 0.35831700 -0.42998500
v 0.55821100 0.40733900 -0.67891400
v 0.56952200 0.39980500 -0.67135300
v 0.56576100 0.41489000 -0.67513400
v 0.58838200 0.35644200 -0.42245300
v 0.57329700 0.34135700 -0.43754600
v 0.54314000 0.34135700 -0.40736000
v 0.54314000 0.35706100 -0.38724600
v 0.52050500 0.35455000 -0.40358000
v 0.47833700 0.31106600 -0.50054600
v 0.47833700 0.33193100 -0.64636600
v 0.58335800 0.44757200 -0.63865700
v 0.58335800 0.46265700 -0.60850000
v 0.58838200 0.45259400 -0.60345000
v 0.61856600 0.42242400 -0.46770200
v 0.57329700 0.43750900 -0.65437000
v 0.55821100 0.42746400 -0.66884300
v 0.55821100 0.44254900 -0.65375000
v 0.57329700 0.44757200 -0.64370700
v 0.57329700 0.45763400 -0.62359300
v 0.58084600 0.46014500 -0.61479200
v 0.61856600 0.42242400 -0.43754600
v 0.61352900 0.38723100 -0.42747400
v 0.59844300 0.38723100 -0.39731800
v 0.58838200 0.37529400 -0.39604800
v 0.55318800 0.37214600 -0.38222500
v 0.55066200 0.36586800 -0.38473600
v 0.56576100 0.35831700 -0.39982900
v 0.57329700 0.35644200 -0.40736000
v 0.49788400 0.37718600 -0.66382100
v 0.49788400 0.39414600 -0.66004100
v 0.54816400 0.41236200 -0.67386400
v 0.55066200 0.41865700 -0.67135300
v 0.55066200 0.35078300 -0.39982900
v 0.54314000 0.37718600 -0.37717500
v 0.53559000 0.36963500 -0.38095500
v 0.50793200 0.39225400 -0.40233900
v 0.50542000 0.36963500 -0.41867300
v 0.52301700 0.37718600 -0.38724600
v 0.47833700 0.34068600 -0.48657600
v 0.50164500 0.37718600 -0.42056300
v 0.47833700 0.34256100 -0.64872900
v 0.57329700 0.46769700 -0.60345000
v 0.58838200 0.46769700 -0.49788800
v 0.59844300 0.46265700 -0.50290900
v 0.60346700 0.45259400 -0.49788800
v 0.60850500 0.44254900 -0.46268100
v 0.50542000 0.41110600 -0.65626000
v 0.52805400 0.42746400 -0.65375000
v 0.53559000 0.44129300 -0.64119700
v 0.55066200 0.44882700 -0.64119700
v 0.60850500 0.44254900 -0.43249600
v 0.60850500 0.42746400 -0.41743200
v 0.61352900 0.41740100 -0.42747400
v 0.60346700 0.39225400 -0.40736000
v 0.59844300 0.40231600 -0.39731800
v 0.58838200 0.39225400 -0.39226700
v 0.48782200 0.38219100 -0.65877100
v 0.47833700 0.37273100 -0.65404500
v 0.49033400 0.39602100 -0.65626000
v 0.54314000 0.39225400 -0.37717500
v 0.50793200 0.40733900 -0.40233900
v 0.50164500 0.41489000 -0.41489200
v 0.50290800 0.39225400 -0.41238100
v 0.52301700 0.39225400 -0.38724600
v 0.47833700 0.34567400 -0.48545400
v 0.49788400 0.39225400 -0.42245300
v 0.56576100 0.46391200 -0.61101100
v 0.55821100 0.46769700 -0.58838600
v 0.58838200 0.46769700 -0.46770200
v 0.59844300 0.46265700 -0.47275300
v 0.47833700 0.40718400 -0.64016300
v 0.47833700 0.41088200 -0.63718000
v 0.52050500 0.43374200 -0.64119700
v 0.52805400 0.44316800 -0.63363600
v 0.53559000 0.44882700 -0.62610400
v 0.55066200 0.46391200 -0.59591800
v 0.59342000 0.45763400 -0.44758800
v 0.59342000 0.44254900 -0.41743200
v 0.59342000 0.42746400 -0.40233900
v 0.60346700 0.40733900 -0.40736000
v 0.58838200 0.40733900 -0.39226700
v 0.47833700 0.38647400 -0.65138700
v 0.47833700 0.39148000 -0.65026400
v 0.54816400 0.41236200 -0.38724600
v 0.53811600 0.40231600 -0.38222500
v 0.53182900 0.39980500 -0.38473600
v 0.51107500 0.41865700 -0.40736000
v 0.52993500 0.40733900 -0.38851600
v 0.51673000 0.41489000 -0.39982900
v 0.48656000 0.41489000 -0.46017100
v 0.49788400 0.40733900 -0.42245300
v 0.50919400 0.42997500 -0.42998500
v 0.50164500 0.42997500 -0.44507800
v 0.48656000 0.42997500 -0.47526400
v 0.47833700 0.35764600 -0.48279500
v 0.47833700 0.38898600 -0.48161400
v 0.47833700 0.43529000 -0.57772400
v 0.48278500 0.43750900 -0.57329400
v 0.55821100 0.46769700 -0.49788800
v 0.57141600 0.46391200 -0.46770200
v 0.55633100 0.44882700 -0.43754600
v 0.56827300 0.44757200 -0.42747400
v 0.57833400 0.44254900 -0.41743200
v 0.47833700 0.41814100 -0.62713800
v 0.47833700 0.42020500 -0.62300300
v 0.54816400 0.42746400 -0.40233900
v 0.52301700 0.41740100 -0.39731800
v 0.52428000 0.42997500 -0.41489200
v 0.48278500 0.42242400 -0.48279500
v 0.47833700 0.41057300 -0.49466900
v 0.47833700 0.39146300 -0.48232300
v 0.51107500 0.43374200 -0.43754600
v 0.49599000 0.43374200 -0.46770200
v 0.48782200 0.43248600 -0.48279500
v 0.47833700 0.43529000 -0.54310800
v 0.47833700 0.43334700 -0.53277000
v 0.47833700 0.43271000 -0.53008200
v 0.47833700 0.43203900 -0.52804400
v 0.47833700 0.42970000 -0.52104400
v 0.48278500 0.43750900 -0.54310800
v 0.49788400 0.43750900 -0.48279500
v 0.55633100 0.46391200 -0.48279500
v 0.52616000 0.43374200 -0.42245300
v 0.55443700 0.44506000 -0.42998500
v 0.53811600 0.43248600 -0.41238100
v 0.47833700 0.42355900 -0.51126800
v 0.47833700 0.42242400 -0.50973200
f 105 130 131
f 108 109 135
f 105 133 130
f 105 107 133
f 105 109 106
f 105 132 109
f 108 135 134
f 105 131 132
f 103 150 129
f 100 116 101
f 103 107 104
f 103 133 107
f 103 129 133
f 100 128 116
f 99 128 100
f 99 126 128
f 98 127 126
f 98 110 127
f 109 132 135
f 103 125 150
f 111 119 136
f 120 138 146
f 111 137 168
f 98 126 99
f 120 139 138
f 120 148 121
f 120 147 148
f 120 146 147
f 119 145 136
f 119 144 145
f 119 143 144
f 118 143 119
f 118 142 143
f 117 142 118
f 116 142 117
f 116 141 142
f 116 140 141
f 116 128 140
f 113 120 115
f 113 139 120
f 112 139 113
f 112 138 139
f 111 138 112
f 111 168 138
f 111 136 137
f 92 94 93
f 73 97 75
f 92 125 103
f 81 112 113
f 81 111 112
f 81 89 111
f 79 110 98
f 78 109 108
f 78 106 109
f 77 107 105
f 77 104 107
f 77 106 78
f 77 105 106
f 76 104 77
f 76 103 104
f 76 94 103
f 76 95 94
f 76 102 96
f 75 102 76
f 75 96 102
f 75 97 96
f 73 75 74
f 121 148 124
f 72 85 84
f 81 113 114
f 92 103 94
f 81 114 82
f 83 114 113
f 92 150 125
f 92 124 150
f 92 149 124
f 92 123 149
f 91 123 92
f 91 149 123
f 91 122 149
f 90 121 122
f 90 120 121
f 88 111 89
f 88 119 111
f 86 88 87
f 86 119 88
f 86 118 119
f 86 117 118
f 85 117 86
f 85 116 117
f 85 101 116
f 83 120 90
f 83 115 120
f 83 113 115
f 82 114 83
f 121 124 149
f 148 175 153
f 124 148 150
f 163 188 178
f 163 187 188
f 163 186 187
f 163 185 186
f 163 184 185
f 163 183 184
f 163 182 183
f 162 182 163
f 161 192 181
f 166 184 189
f 161 177 192
f 161 181 182
f 159 165 160
f 159 180 165
f 159 179 180
f 159 178 179
f 159 163 178
f 157 176 158
f 156 176 177
f 156 158 176
f 161 182 162
f 166 189 167
f 168 189 190
f 168 190 182
f 70 79 98
f 183 190 184
f 182 190 183
f 181 191 182
f 178 196 179
f 178 195 196
f 178 188 195
f 177 193 192
f 176 194 177
f 184 190 189
f 175 194 176
f 171 175 172
f 171 194 175
f 171 177 194
f 171 193 177
f 170 193 171
f 170 192 193
f 169 192 170
f 169 181 192
f 169 191 181
f 168 182 191
f 156 177 161
f 121 149 122
f 154 157 155
f 153 176 154
f 131 163 159
f 131 162 163
f 131 161 162
f 131 156 161
f 131 135 132
f 131 160 135
f 131 159 160
f 130 158 156
f 130 157 158
f 133 155 157
f 130 133 157
f 129 148 153
f 129 150 148
f 129 155 133
f 129 154 155
f 129 153 154
f 128 152 140
f 126 152 128
f 126 151 152
f 126 127 151
f 130 156 131
f 134 135 164
f 135 160 165
f 135 165 164
f 153 175 176
f 147 175 148
f 147 172 175
f 144 166 145
f 143 166 144
f 143 174 166
f 143 173 174
f 142 173 143
f 141 173 142
f 138 147 146
f 138 172 147
f 138 171 172
f 138 170 171
f 138 169 170
f 138 191 169
f 138 168 191
f 137 189 168
f 137 167 189
f 137 166 167
f 137 145 166
f 136 145 137
f 154 176 157
f 70 85 72
f 1 55 78
f 70 100 101
f 11 27 12
f 11 26 27
f 11 25 26
f 11 18 25
f 11 16 18
f 10 29 13
f 10 24 29
f 9 24 10
f 9 23 24
f 12 27 28
f 9 22 23
f 9 20 21
f 9 19 20
f 9 26 19
f 9 12 26
f 8 18 16
f 8 17 18
f 7 16 11
f 7 8 16
f 6 14 15
f 9 21 22
f 5 29 14
f 12 28 26
f 14 30 31
f 22 90 64
f 22 83 90
f 22 61 83
f 22 42 61
f 21 39 42
f 21 42 22
f 20 41 39
f 20 40 41
f 20 26 40
f 14 29 30
f 20 39 21
f 18 38 25
f 18 37 38
f 18 36 37
f 18 35 36
f 17 35 18
f 14 34 15
f 14 33 34
f 14 32 33
f 14 31 32
f 19 26 20
f 5 13 29
f 5 10 13
f 4 10 5
f 1 186 185
f 1 187 186
f 1 188 187
f 1 195 188
f 1 196 195
f 1 179 196
f 1 180 179
f 1 165 180
f 1 164 165
f 1 185 184
f 1 108 134
f 1 34 55
f 1 15 34
f 1 6 15
f 1 14 6
f 1 5 14
f 1 4 5
f 1 3 4
f 1 2 3
f 70 101 85
f 1 78 108
f 1 184 166
f 1 166 174
f 1 174 173
f 3 12 9
f 3 11 12
f 3 7 11
f 3 10 4
f 3 9 10
f 2 8 7
f 2 7 3
f 1 8 2
f 1 17 8
f 1 35 17
f 1 36 35
f 1 56 36
f 1 57 56
f 1 79 57
f 1 110 79
f 1 127 110
f 1 151 127
f 1 152 151
f 1 140 152
f 1 141 140
f 1 173 141
f 22 64 43
f 22 43 23
f 1 134 164
f 23 44 24
f 60 82 83
f 59 81 82
f 59 80 81
f 58 62 80
f 58 63 62
f 57 79 70
f 54 78 55
f 54 77 78
f 54 76 77
f 62 72 84
f 53 76 54
f 51 75 53
f 51 74 75
f 50 74 51
f 50 73 74
f 50 69 73
f 48 72 62
f 48 70 72
f 47 71 48
f 46 57 70
f 53 75 76
f 62 84 85
f 62 85 86
f 62 86 87
f 23 43 44
f 70 99 100
f 70 98 99
f 68 73 69
f 67 73 68
f 67 97 73
f 67 96 97
f 67 95 76
f 67 94 95
f 67 93 94
f 67 92 93
f 66 92 67
f 66 91 92
f 65 91 66
f 64 91 65
f 64 122 91
f 64 90 122
f 62 81 80
f 62 89 81
f 62 88 89
f 62 87 88
f 46 71 47
f 46 48 71
f 67 76 96
f 44 50 49
f 33 53 34
f 32 53 33
f 32 51 53
f 31 51 32
f 31 52 51
f 30 52 31
f 30 51 52
f 30 50 51
f 30 49 50
f 34 53 54
f 29 49 30
f 29 45 44
f 26 28 27
f 25 40 26
f 25 48 40
f 25 46 47
f 25 38 46
f 24 45 29
f 46 70 48
f 24 44 45
f 29 44 49
f 34 54 55
f 25 47 48
f 37 57 38
f 36 56 37
f 44 67 68
f 44 66 67
f 44 69 50
f 43 65 44
f 43 64 65
f 41 63 58
f 40 63 41
f 40 62 63
f 40 48 62
f 44 65 66
f 39 61 42
f 37 56 57
f 38 57 46
f 39 41 58
f 39 58 80
f 39 80 59
f 44 68 69
f 39 82 60
f 39 60 83
f 39 59 82
f 39 83 61

