# https://github.com/mikedh/trimesh
v 0.29945700 0.11429400 -0.24366900
v 0.25638800 0.12065800 -0.25645800
v 0.29945700 0.11512700 -0.24696600
v 0.29945700 0.11429400 -0.22856800
v 0.25638800 0.12069700 -0.25661200
v 0.25638800 0.12065800 -0.22641100
v 0.25638800 0.12394900 -0.26829200
v 0.29945700 0.15590700 -0.32687700
v 0.25638800 0.12067800 -0.21127900
v 0.29945700 0.12940100 -0.13808700
v 0.25638800 0.13943200 -0.29849400
v 0.27659900 0.15590700 -0.32687700
v 0.29945700 0.19613200 -0.34700100
v 0.29945700 0.13984800 -0.09136760
v 0.29945700 0.15467800 -0.03216680
v 0.29847000 0.15505400 -0.03216680
v 0.29167900 0.15590700 -0.04024100
v 0.28671700 0.16211200 -0.03216680
v 0.28662000 0.16219100 -0.03216680
v 0.27659900 0.17099400 -0.03216680
v 0.25638800 0.13578400 -0.18104700
v 0.25638800 0.15842400 -0.32435000
v 0.25638800 0.17602900 -0.33692300
v 0.25638800 0.19613200 -0.34700100
v 0.29945700 0.24137300 -0.34700100
v 0.29945700 0.24028200 -0.03216680
v 0.27156900 0.18104500 -0.03216680
v 0.25638800 0.14082000 -0.17100100
v 0.25638800 0.25645900 -0.34700100
v 0.28664900 0.25645900 -0.34700100
v 0.29419500 0.26401300 -0.34321000
v 0.29945700 0.26926600 -0.33926500
v 0.25638800 0.31310000 -0.22638000
v 0.25638800 0.30477300 -0.20816700
v 0.28864300 0.23621800 -0.03216680
v 0.29945700 0.29155000 -0.20628700
v 0.29419500 0.29418600 -0.20366700
v 0.26402300 0.30927300 -0.21873700
v 0.27156900 0.21121900 -0.03216680
v 0.25638800 0.21113900 -0.14329500
v 0.25638800 0.16409400 -0.15460600
v 0.25638800 0.15279400 -0.16215600
v 0.25638800 0.27652200 -0.33695400
v 0.28664900 0.27658200 -0.33692300
v 0.29945700 0.27231900 -0.33744700
v 0.25638800 0.31672800 -0.24092600
v 0.25638800 0.29418600 -0.18859800
v 0.27633700 0.22868400 -0.03216680
v 0.28465900 0.23423600 -0.03216680
v 0.28664900 0.23522700 -0.03216680
v 0.29945700 0.29944000 -0.24505600
v 0.29945700 0.30172000 -0.25645800
v 0.28664900 0.30172000 -0.22628800
v 0.25648100 0.31680700 -0.24138800
v 0.27484100 0.22594900 -0.03216680
v 0.25638800 0.28669300 -0.18101600
v 0.25638800 0.27160600 -0.16591600
v 0.25638800 0.26401300 -0.15842700
v 0.25638800 0.25638000 -0.15460600
v 0.25638800 0.23011200 -0.14705500
v 0.25648100 0.27658200 -0.33692300
v 0.25638800 0.29791400 -0.31880200
v 0.28664900 0.29166900 -0.32185300
v 0.29945700 0.28084400 -0.32838700
v 0.25638800 0.31680700 -0.24138800
v 0.27550700 0.22727700 -0.03216680
v 0.29945700 0.30172000 -0.28890900
v 0.25648100 0.31680700 -0.27155900
v 0.25638800 0.31300000 -0.28863200
v 0.25648100 0.29795300 -0.31871000
v 0.28664900 0.29670400 -0.31177600
v 0.29945700 0.29777500 -0.30484200
v 0.29945700 0.29682300 -0.30647500
v 0.29945700 0.29059800 -0.31596700
v 0.25638800 0.31680700 -0.27165100
v 0.29945700 0.29852800 -0.30333200
v 0.25648100 0.31304000 -0.28850900
v 0.28664900 0.30172000 -0.30172900
v 0.25638800 0.31306000 -0.28850900
f 27 42 28
f 29 43 30
f 30 43 44
f 30 44 31
f 31 44 32
f 32 44 45
f 34 48 49
f 34 47 48
f 34 49 50
f 34 50 35
f 36 51 37
f 37 51 52
f 37 52 53
f 37 53 38
f 38 53 54
f 33 38 46
f 27 41 42
f 26 33 34
f 27 39 40
f 15 39 27
f 15 55 39
f 38 54 46
f 15 27 20
f 15 20 19
f 15 19 18
f 15 18 16
f 27 40 41
f 16 18 17
f 20 28 21
f 25 30 31
f 25 31 32
f 26 34 35
f 26 36 37
f 26 37 38
f 26 38 33
f 20 27 28
f 39 55 47
f 54 68 75
f 39 56 57
f 63 69 71
f 63 71 72
f 63 72 73
f 63 73 74
f 63 74 64
f 67 76 68
f 68 76 77
f 63 70 69
f 68 77 75
f 69 79 78
f 71 78 72
f 72 78 76
f 75 77 79
f 76 78 79
f 76 79 77
f 15 66 55
f 69 78 71
f 39 47 56
f 62 70 63
f 54 75 65
f 39 57 58
f 39 58 59
f 39 59 60
f 39 60 40
f 43 61 44
f 43 62 61
f 44 61 62
f 62 69 70
f 44 62 63
f 45 63 64
f 46 54 65
f 47 55 66
f 47 66 48
f 52 54 53
f 52 67 68
f 52 68 54
f 44 63 45
f 15 48 66
f 9 15 16
f 15 50 49
f 1 4 6
f 1 6 2
f 2 5 3
f 2 6 9
f 2 9 21
f 2 21 28
f 2 28 42
f 2 42 41
f 2 41 40
f 2 40 60
f 2 60 59
f 2 59 58
f 2 58 57
f 2 57 56
f 2 56 47
f 1 10 4
f 1 14 10
f 1 15 14
f 1 26 15
f 15 49 48
f 1 2 3
f 1 3 8
f 1 13 25
f 1 25 32
f 1 32 45
f 1 45 64
f 2 47 34
f 1 64 74
f 1 73 72
f 1 72 76
f 1 76 67
f 1 67 52
f 1 52 51
f 1 51 36
f 1 36 26
f 1 74 73
f 2 34 33
f 1 8 13
f 2 46 65
f 9 10 14
f 9 14 15
f 9 16 17
f 9 17 18
f 9 18 19
f 9 19 20
f 9 20 21
f 11 22 12
f 12 22 23
f 12 23 24
f 13 24 29
f 13 29 30
f 15 35 50
f 15 26 35
f 2 33 46
f 8 24 13
f 8 12 24
f 13 30 25
f 7 11 8
f 8 11 12
f 2 79 69
f 2 69 62
f 2 62 43
f 2 43 29
f 2 29 24
f 2 24 23
f 2 75 79
f 2 22 11
f 4 10 9
f 2 23 22
f 4 9 6
f 2 65 75
f 3 5 7
f 2 7 5
f 2 11 7
f 3 7 8

