# https://github.com/mikedh/trimesh
v 0.13548800 0.40263400 0.55449500
v 0.12822700 0.39979800 0.55440700
v 0.13548800 0.39737800 0.55321200
v 0.13548800 0.40742000 0.54285900
v 0.10056800 0.41739400 0.53808100
v 0.08548660 0.41739400 0.53808100
v -0.03270830 0.37717300 0.52803800
v -0.03270830 0.37547900 0.52719700
v -0.03270830 0.36710400 0.52299400
v 0.13548800 0.39725700 0.55299100
v -0.01507530 0.36710400 0.52299400
v -0.00753484 0.36585400 0.52047200
v 0.00754616 0.35078400 0.49029900
v 0.13548800 0.40742000 0.52803800
v 0.10560600 0.41865800 0.52613500
v 0.11314600 0.41488100 0.53555900
v 0.09050820 0.42242200 0.52803800
v 0.05278920 0.41865800 0.52047200
v 0.00754616 0.40357500 0.52047200
v -0.03270830 0.38722800 0.52299400
v -0.03270830 0.36207600 0.51295100
v 0.13548800 0.39232300 0.54312500
v -0.01507530 0.36207600 0.51295100
v 0.00000566 0.35704900 0.50286400
v 0.00000566 0.34700700 0.48277700
v 0.06788660 0.33568800 0.44503800
v 0.13548800 0.40733900 0.48277700
v 0.00000566 0.36207600 0.30177800
v -0.03270830 0.37402700 0.34540200
v -0.03270830 0.37717300 0.35951600
v -0.03270830 0.38691900 0.51259700
v -0.03270830 0.35078400 0.48211400
v -0.03017280 0.35078400 0.48463500
v -0.01507530 0.34700700 0.48277700
v 0.11314600 0.32060500 0.39977700
v 0.13548800 0.30174400 0.34699500
v 0.06034610 0.33192400 0.43751600
v 0.13548800 0.29042500 0.31845800
v 0.10560600 0.31682700 0.39225600
v 0.13548800 0.30174400 0.13582200
v 0.12068700 0.31682700 0.18108300
v 0.01510310 0.34700700 0.25651800
v -0.03270830 0.36207600 0.30177800
v -0.03270830 0.28510200 0.24085600
v 0.01510310 0.33192400 0.43751600
v 0.13548800 0.28672800 0.30177800
v 0.09050820 0.30174400 0.34699500
v 0.13548800 0.30165000 0.13560100
v 0.12068700 0.30174400 0.13582200
v 0.00754616 0.34322900 0.24895200
v 0.11314600 0.29798000 0.12825700
v -0.03270830 0.36123000 0.30005300
v -0.03270830 0.28510200 0.19559500
v -0.03119360 0.28510200 0.24036900
v 0.13548800 0.28666100 0.30146900
v 0.13548800 0.28510200 0.10250700
v -0.03270830 0.34574300 0.26903800
v 0.00754616 0.32814600 0.21877800
v 0.13267200 0.28510200 0.10250700
v 0.12068700 0.29168900 0.11569200
v 0.10560600 0.29232100 0.12073500
v 0.06788660 0.29798000 0.14334400
v -0.03270830 0.30005100 0.21041600
v -0.02261580 0.29042500 0.18860400
v -0.03249420 0.28510200 0.19537400
v 0.11655400 0.28510200 0.17692400
v 0.13548800 0.28510200 0.16289900
v -0.03270830 0.34239600 0.26235800
v 0.00000566 0.32248700 0.21125700
v 0.09982680 0.28510200 0.11494000
v 0.07542710 0.29168900 0.13077900
v -0.03270830 0.31514700 0.22550300
v -0.01507530 0.28510200 0.17860500
v -0.02261580 0.30552200 0.20369100
v -0.03270830 0.33705900 0.25231500
v 0.00000566 0.30677200 0.19112600
v -0.00753484 0.31306300 0.20369100
v 0.06978000 0.28510200 0.12887600
v 0.05800830 0.28510200 0.13502600
v 0.03950270 0.28510200 0.14511300
v -0.03270830 0.31810400 0.22886600
f 44 53 65
f 44 65 73
f 43 50 52
f 44 73 80
f 42 51 50
f 44 80 79
f 44 56 67
f 44 78 70
f 44 70 59
f 44 59 56
f 44 67 66
f 44 55 46
f 42 49 51
f 44 66 54
f 44 54 55
f 44 79 78
f 42 50 43
f 28 43 29
f 40 49 42
f 26 39 35
f 27 40 41
f 44 47 45
f 27 41 28
f 28 41 42
f 28 42 43
f 32 44 33
f 33 44 34
f 34 45 38
f 34 44 45
f 35 39 36
f 36 39 38
f 37 38 39
f 38 44 46
f 38 45 47
f 38 47 44
f 40 48 49
f 40 42 41
f 48 56 51
f 70 78 71
f 50 57 52
f 64 73 65
f 64 74 73
f 68 69 75
f 69 71 76
f 69 76 77
f 69 77 75
f 71 78 79
f 63 74 64
f 71 79 80
f 72 81 74
f 73 74 80
f 74 77 76
f 74 76 80
f 74 81 75
f 74 75 77
f 26 37 39
f 71 80 76
f 48 51 49
f 63 72 74
f 61 71 62
f 50 51 58
f 50 58 57
f 51 56 59
f 51 59 60
f 51 60 61
f 51 61 62
f 51 62 58
f 62 71 69
f 53 63 64
f 54 66 55
f 55 66 67
f 57 58 68
f 58 69 68
f 59 70 71
f 59 71 61
f 59 61 60
f 53 64 65
f 25 38 37
f 58 62 69
f 25 37 26
f 2 9 3
f 3 9 11
f 3 11 12
f 3 12 13
f 3 13 10
f 4 14 15
f 4 15 16
f 2 8 9
f 4 16 5
f 5 17 6
f 6 17 18
f 6 18 19
f 6 19 20
f 6 20 7
f 7 20 31
f 7 31 30
f 5 16 17
f 7 30 29
f 2 7 8
f 1 6 2
f 25 34 38
f 1 2 3
f 1 3 10
f 1 10 22
f 1 22 36
f 1 36 38
f 1 38 46
f 2 6 7
f 1 46 55
f 1 67 56
f 1 48 40
f 1 40 27
f 1 27 14
f 1 14 4
f 1 4 5
f 1 5 6
f 1 55 67
f 7 29 43
f 1 56 48
f 7 52 57
f 15 17 16
f 15 27 17
f 17 27 28
f 17 28 29
f 17 29 18
f 18 29 30
f 18 30 19
f 14 27 15
f 19 31 20
f 21 32 33
f 21 34 25
f 21 25 23
f 22 26 35
f 22 35 36
f 7 43 52
f 23 25 24
f 19 30 31
f 13 24 25
f 21 33 34
f 13 25 26
f 7 68 75
f 13 26 22
f 7 75 81
f 7 81 72
f 7 63 53
f 7 53 44
f 7 44 32
f 7 32 21
f 7 72 63
f 7 57 68
f 7 9 8
f 9 21 23
f 12 24 13
f 9 23 11
f 10 13 22
f 11 23 24
f 7 21 9
f 11 24 12

