# https://github.com/mikedh/trimesh
v 0.13548800 0.28509200 0.16285000
v 0.11655400 0.28509200 0.17690600
v 0.13548800 0.18422800 0.00684723
v 0.13548800 0.28509200 0.10251200
v -0.03119360 0.28509200 0.24034300
v -0.03270830 0.28285100 0.23884700
v 0.00000566 0.25144100 0.18607100
v 0.00754616 0.24516100 0.17348500
v 0.05278920 0.23008300 0.12821800
v 0.06788660 0.21499600 0.09807590
v 0.12004500 0.18422800 0.01446300
v 0.13548800 0.18422800 -0.03214010
v 0.13548800 0.24338400 -0.03214010
v 0.12712400 0.24781700 -0.03214010
v 0.09151250 0.25747400 -0.03214010
v 0.13267200 0.28509200 0.10251200
v -0.03270830 0.28509200 0.24082400
v -0.03270830 0.25091800 0.19697400
v -0.03017280 0.25081900 0.19611900
v -0.03270830 0.24891300 0.19358000
v 0.02264360 0.21499600 0.11314700
v 0.07860470 0.18422800 0.02106330
v -0.01388990 0.18422800 -0.03214010
v 0.04626940 0.25747400 -0.03214010
v 0.09982680 0.28509200 0.11491100
v -0.03270830 0.28509200 0.19555700
v -0.03270830 0.22631100 0.13578100
v 0.02978900 0.18422800 0.01430270
v 0.03336170 0.18422800 0.01510430
v -0.00853914 0.21122400 -0.03214010
v -0.01388990 0.18422800 -0.03016260
v -0.03270830 0.21248800 0.07672510
v -0.03270830 0.21376100 0.07290380
v -0.03270830 0.21776000 0.06689140
v -0.03270830 0.22620300 0.05663020
v -0.03270830 0.22670600 0.05609570
v -0.03270830 0.22890800 0.05529410
v -0.03270830 0.23508000 0.05467950
v -0.03270830 0.23634400 0.05532080
v 0.04352000 0.25697100 -0.03214010
v -0.03249420 0.28509200 0.19534400
v -0.01507530 0.28509200 0.17856200
v 0.03950270 0.28509200 0.14508000
v 0.05800830 0.28509200 0.13500600
v 0.06978000 0.28509200 0.12886000
v 0.02880120 0.25370200 -0.03214010
v 0.02629860 0.25270500 -0.03214010
v -0.03270830 0.23982900 0.06021090
v -0.03270830 0.21531200 0.08941800
v -0.03017280 0.21499600 0.09241080
v -0.01507530 0.21122400 0.09054030
v 0.02185340 0.18422800 0.01034780
v -0.00297432 0.22431700 -0.03214010
v -0.03270830 0.23824900 0.05721810
v -0.01349480 0.18422800 -0.02698270
v -0.03017280 0.21122400 0.07544240
v 0.01409880 0.24338400 -0.03214010
v -0.00065290 0.22697300 -0.03214010
v -0.00514756 0.18422800 -0.01110990
v 0.01153040 0.18422800 0.00478965
v 0.01378600 0.18422800 0.00609902
v -0.01058070 0.18422800 -0.02115730
f 21 28 29
f 21 29 22
f 23 31 32
f 23 32 33
f 23 39 30
f 23 34 35
f 23 36 37
f 23 37 38
f 21 27 28
f 23 38 39
f 23 33 34
f 23 35 36
f 12 47 46
f 16 24 25
f 12 14 13
f 12 15 14
f 12 24 15
f 12 40 24
f 12 46 40
f 12 57 47
f 12 58 57
f 12 53 58
f 12 30 53
f 12 23 30
f 24 40 41
f 11 21 22
f 18 20 19
f 24 41 42
f 47 57 48
f 24 43 44
f 10 21 11
f 56 62 59
f 55 62 56
f 53 54 58
f 51 61 52
f 51 60 61
f 50 60 51
f 50 59 60
f 50 56 59
f 48 58 54
f 48 57 58
f 32 50 49
f 32 56 50
f 32 55 56
f 31 55 32
f 30 54 53
f 30 39 54
f 28 51 52
f 27 51 28
f 27 50 51
f 27 49 50
f 26 47 48
f 26 46 47
f 26 40 46
f 26 41 40
f 24 45 25
f 24 44 45
f 24 42 43
f 8 10 9
f 20 27 21
f 8 20 21
f 3 52 61
f 3 28 52
f 3 29 28
f 3 22 29
f 3 11 22
f 3 10 11
f 2 10 3
f 2 9 10
f 2 8 9
f 2 7 8
f 2 6 7
f 2 5 6
f 1 5 2
f 1 17 5
f 1 26 17
f 1 41 26
f 1 42 41
f 1 43 42
f 1 44 43
f 1 45 44
f 1 25 45
f 1 16 25
f 1 4 16
f 1 13 4
f 1 12 13
f 1 2 3
f 8 21 10
f 3 61 60
f 3 60 59
f 1 3 12
f 3 62 55
f 3 59 62
f 6 19 7
f 6 18 19
f 6 20 18
f 6 27 20
f 6 49 27
f 6 32 49
f 6 33 32
f 6 34 33
f 6 35 34
f 6 36 35
f 6 37 36
f 6 38 37
f 7 19 8
f 6 54 39
f 3 55 31
f 6 39 38
f 3 31 23
f 3 23 12
f 4 13 14
f 4 14 15
f 8 19 20
f 4 24 16
f 6 26 48
f 4 15 24
f 6 48 54
f 6 17 26
f 5 17 6

