# https://github.com/mikedh/trimesh
v 0.19152600 0.09119640 -0.56312000
v 0.19152600 0.13273800 -0.63670000
v 0.19680900 0.09119640 -0.55720100
v 0.19152600 0.09119640 -0.34848200
v 0.19152600 0.16291500 -0.65178700
v 0.29945700 0.22282000 -0.62941500
v 0.29945700 0.21878900 -0.62610600
v 0.29945700 0.21237900 -0.62082500
v 0.29945700 0.21067100 -0.61912500
v 0.29945700 0.20893600 -0.61739500
v 0.29945700 0.19558300 -0.60403800
v 0.29945700 0.19387500 -0.60230800
v 0.29945700 0.18861300 -0.59593400
v 0.29945700 0.18528100 -0.59189700
v 0.29945700 0.18315400 -0.58837500
v 0.20710900 0.09119640 -0.54518100
v 0.25614100 0.09119640 -0.34848200
v 0.19152600 0.20554800 -0.34848200
v 0.19152600 0.17285200 -0.65661300
v 0.29945700 0.27155600 -0.64872100
v 0.29945700 0.17713500 -0.57362300
v 0.23779000 0.09119640 -0.49901100
v 0.23756800 0.09119640 -0.49946600
v 0.29945700 0.17369200 -0.50016400
v 0.29945700 0.18500100 -0.46771500
v 0.29945700 0.18614900 -0.46543900
v 0.29945700 0.19499500 -0.45035200
v 0.29945700 0.21008300 -0.43526600
v 0.29945700 0.22214800 -0.42622000
v 0.29945700 0.22500400 -0.42506700
v 0.29945700 0.23939200 -0.42187900
v 0.29945700 0.24252700 -0.42130300
v 0.29945700 0.28434900 -0.42130300
v 0.29945700 0.29943800 -0.42200100
v 0.29945700 0.30173300 -0.42245600
v 0.22252400 0.16190700 -0.34848200
v 0.25614100 0.09119640 -0.43787600
v 0.29945700 0.17237700 -0.51294400
v 0.21624800 0.30674400 -0.41741700
v 0.20619000 0.29669400 -0.41237800
v 0.19236100 0.29417500 -0.41489800
v 0.19152600 0.29361500 -0.41547500
v 0.21624800 0.17100500 -0.34848200
v 0.29945700 0.31178300 -0.42746500
v 0.29945700 0.33647300 -0.43981900
v 0.29945700 0.34470300 -0.44394700
v 0.26149700 0.30674400 -0.41741700
v 0.19152600 0.18105400 -0.65855600
v 0.29945700 0.28434900 -0.64872100
v 0.29945700 0.17394400 -0.56445600
v 0.24499500 0.09119640 -0.48101100
v 0.25261200 0.09119640 -0.45372200
v 0.29945700 0.17237700 -0.55820300
v 0.28162300 0.34195900 -0.44258100
v 0.21624800 0.32183200 -0.43250400
v 0.19236100 0.32435100 -0.44507100
v 0.19152600 0.32379200 -0.44564700
v 0.29945700 0.35150500 -0.44962400
v 0.19152600 0.21123100 -0.65855600
v 0.19152600 0.22170100 -0.65782700
v 0.29945700 0.30134100 -0.64495700
v 0.25236900 0.09119640 -0.45469300
v 0.29945700 0.35567600 -0.45490500
v 0.20619000 0.32687100 -0.44258100
v 0.25269700 0.35452800 -0.47524300
v 0.19425200 0.32813100 -0.45262900
v 0.19152600 0.32813100 -0.45533000
v 0.19152600 0.24138000 -0.65045100
v 0.29945700 0.30416800 -0.64380300
v 0.29945700 0.37233200 -0.48708200
v 0.29671000 0.35704700 -0.45766800
v 0.29671000 0.37213600 -0.48784000
v 0.28288000 0.36961600 -0.49032900
v 0.28476100 0.37339600 -0.49788800
v 0.25458800 0.35830700 -0.48280100
v 0.23951200 0.35830700 -0.49788800
v 0.20933900 0.34321900 -0.48280100
v 0.19152600 0.33191000 -0.47232900
v 0.19152600 0.24837800 -0.64696000
v 0.29945700 0.33274900 -0.62968800
v 0.29945700 0.37487900 -0.49333500
v 0.29945700 0.37664300 -0.49788800
v 0.29945700 0.37717500 -0.50016400
v 0.28665200 0.37717500 -0.51294400
v 0.24139200 0.36208600 -0.51294400
v 0.21121900 0.34699800 -0.49788800
v 0.19152600 0.33714400 -0.49788800
v 0.19152600 0.33423300 -0.48280100
v 0.19152600 0.27155600 -0.63536500
v 0.19152600 0.27852700 -0.63187400
v 0.28665200 0.33692000 -0.62358700
v 0.29945700 0.33434500 -0.62871700
v 0.29945700 0.37717500 -0.54311600
v 0.28665200 0.37717500 -0.54311600
v 0.24139200 0.36208600 -0.52803000
v 0.21121900 0.34699800 -0.54311600
v 0.19152600 0.33714400 -0.54311600
v 0.19152600 0.29165500 -0.62358700
v 0.28665200 0.35200900 -0.60850100
v 0.29945700 0.34545800 -0.61930700
v 0.29945700 0.37602700 -0.57556600
v 0.29419500 0.37339600 -0.58084700
v 0.27910900 0.37339600 -0.55067500
v 0.23384900 0.35830700 -0.53555800
v 0.20367600 0.34321900 -0.55067500
v 0.19152600 0.33697600 -0.54439100
v 0.19152600 0.30694000 -0.60695300
v 0.29419500 0.36583700 -0.59593400
v 0.29945700 0.36320600 -0.60118500
v 0.29945700 0.36054700 -0.60422100
v 0.29945700 0.37208000 -0.58609900
v 0.24892500 0.35830700 -0.56576100
v 0.28665200 0.36774100 -0.58837500
v 0.19613300 0.33756400 -0.55820300
v 0.19152600 0.33409300 -0.55820300
v 0.19152600 0.31670900 -0.59298900
v 0.19613300 0.32247600 -0.58837500
v 0.25646800 0.35265300 -0.58837500
v 0.29945700 0.36978400 -0.59065200
v 0.19152600 0.32132800 -0.58376200
v 0.19152600 0.33179800 -0.56281700
f 56 65 75
f 56 75 66
f 56 66 67
f 56 67 57
f 61 68 69
f 63 70 71
f 56 64 65
f 63 71 64
f 64 71 72
f 64 72 65
f 65 72 73
f 60 68 61
f 65 74 75
f 66 75 67
f 67 75 74
f 67 74 76
f 67 76 77
f 68 79 80
f 68 80 69
f 70 81 72
f 70 72 71
f 72 81 74
f 72 74 73
f 55 64 56
f 74 82 83
f 74 81 82
f 65 73 74
f 67 77 78
f 39 54 55
f 55 58 63
f 18 44 45
f 74 83 84
f 18 45 46
f 18 46 47
f 18 47 39
f 19 48 20
f 20 48 59
f 20 59 49
f 21 50 51
f 21 51 22
f 35 43 36
f 37 52 50
f 55 63 64
f 37 50 53
f 39 55 56
f 39 56 41
f 39 41 40
f 39 47 46
f 41 56 57
f 41 57 42
f 46 58 54
f 49 59 60
f 49 60 61
f 50 52 62
f 50 62 51
f 54 58 55
f 39 46 54
f 74 84 85
f 99 107 108
f 76 85 77
f 99 108 109
f 99 109 110
f 101 111 102
f 102 112 103
f 102 111 113
f 102 113 112
f 103 105 104
f 103 112 105
f 105 114 106
f 105 112 114
f 106 114 115
f 107 116 117
f 98 107 99
f 107 117 118
f 107 113 108
f 108 113 111
f 108 111 119
f 108 119 109
f 112 113 114
f 113 118 114
f 114 118 117
f 114 117 120
f 114 120 121
f 114 121 115
f 116 120 117
f 18 35 44
f 107 118 113
f 74 85 76
f 97 105 106
f 95 104 105
f 77 85 86
f 77 86 87
f 77 87 88
f 77 88 78
f 79 89 80
f 80 89 90
f 80 90 91
f 80 91 92
f 83 93 94
f 83 94 84
f 84 94 95
f 84 95 85
f 95 105 96
f 85 95 96
f 86 96 97
f 86 97 87
f 90 98 91
f 91 98 99
f 91 99 110
f 91 110 100
f 91 100 92
f 93 101 94
f 94 101 102
f 94 102 103
f 94 103 95
f 95 103 104
f 85 96 86
f 18 43 35
f 96 105 97
f 18 40 41
f 1 60 59
f 1 59 48
f 1 48 19
f 1 19 5
f 1 5 2
f 2 5 6
f 2 6 7
f 2 7 8
f 2 8 9
f 2 9 10
f 2 10 11
f 2 11 12
f 1 68 60
f 2 12 13
f 2 14 15
f 2 15 16
f 2 16 3
f 4 17 36
f 4 36 43
f 4 43 18
f 5 19 6
f 6 19 20
f 6 20 49
f 6 49 61
f 6 61 69
f 6 69 80
f 2 13 14
f 6 80 92
f 1 79 68
f 1 90 89
f 18 41 42
f 1 2 3
f 1 3 16
f 1 16 23
f 1 23 22
f 1 22 51
f 1 51 62
f 1 62 52
f 1 52 37
f 1 37 17
f 1 17 4
f 1 4 18
f 1 89 79
f 1 18 42
f 1 57 67
f 1 67 78
f 1 78 88
f 1 88 87
f 1 87 97
f 1 97 106
f 1 115 121
f 1 121 120
f 1 120 116
f 1 116 107
f 1 107 98
f 1 98 90
f 1 42 57
f 6 92 100
f 1 106 115
f 6 110 109
f 6 14 13
f 6 13 12
f 6 12 11
f 6 11 10
f 6 10 9
f 6 9 8
f 6 8 7
f 15 21 22
f 15 22 23
f 15 23 16
f 17 24 25
f 17 25 26
f 6 15 14
f 17 26 27
f 17 29 30
f 17 30 31
f 17 31 32
f 17 32 33
f 17 33 34
f 17 34 35
f 17 35 36
f 17 37 53
f 17 53 38
f 17 38 24
f 6 100 110
f 18 39 40
f 17 27 28
f 6 21 15
f 17 28 29
f 6 53 50
f 6 109 119
f 6 119 111
f 6 50 21
f 6 111 101
f 6 101 93
f 6 93 83
f 6 83 82
f 6 82 81
f 6 70 63
f 6 63 58
f 6 58 46
f 6 46 45
f 6 45 44
f 6 44 35
f 6 81 70
f 6 34 33
f 6 25 24
f 6 24 38
f 6 35 34
f 6 26 25
f 6 27 26
f 6 29 28
f 6 28 27
f 6 30 29
f 6 31 30
f 6 32 31
f 6 33 32
f 6 38 53

