# https://github.com/mikedh/trimesh
v 0.19152600 0.20555600 -0.34851500
v 0.19086400 0.20654400 -0.34851500
v 0.19152600 0.09119640 -0.34851500
v 0.19152600 0.29362600 -0.41544800
v 0.16215100 0.22250600 -0.34851500
v -0.09052190 0.09119640 -0.34851500
v 0.19152600 0.09119640 -0.56311200
v 0.12068300 0.24138100 -0.34851500
v 0.13169900 0.23760100 -0.34851500
v 0.19152600 0.32379300 -0.44565100
v -0.09052190 0.10561800 -0.34851500
v -0.09052190 0.09119640 -0.43685700
v 0.17142700 0.09119640 -0.59318000
v 0.18479000 0.12824900 -0.64117200
v 0.19152600 0.13272700 -0.63670800
v 0.04379330 0.24138100 -0.34851500
v 0.19152600 0.32812600 -0.45535700
v 0.02849820 0.23798700 -0.34851500
v -0.06586750 0.15492500 -0.34851500
v -0.09052190 0.10561800 -0.42244900
v -0.09035630 0.09119640 -0.45204300
v 0.15119000 0.09119640 -0.61922200
v 0.16217800 0.11315400 -0.64117200
v 0.15588400 0.11065000 -0.64370900
v 0.16593300 0.12071300 -0.64871400
v 0.15588400 0.12574500 -0.65879300
v 0.16217800 0.12824900 -0.65625700
v 0.18479000 0.15841600 -0.65625700
v 0.19152600 0.16289400 -0.65179200
v 0.19152600 0.33190600 -0.47230200
v 0.17915800 0.32812600 -0.46770200
v 0.03018240 0.24138100 -0.36211200
v 0.01008340 0.23131800 -0.36211200
v 0.02750430 0.23748100 -0.34851500
v 0.18103500 0.33190600 -0.48278600
v -0.06537060 0.15591200 -0.34851500
v -0.05656350 0.17351200 -0.41490700
v -0.06537060 0.15591200 -0.43753300
v -0.07542010 0.13578500 -0.43753300
v -0.07163770 0.13768700 -0.45261800
v -0.08983170 0.09119640 -0.45397100
v 0.14848500 0.09119640 -0.62125100
v 0.13954000 0.09808200 -0.64117200
v 0.13954000 0.11315400 -0.65625700
v 0.13954000 0.12824900 -0.67134100
v 0.13766200 0.13578500 -0.67512900
v 0.18291200 0.16597600 -0.66004500
v 0.19152600 0.17283700 -0.65659500
v 0.19152600 0.33424200 -0.48278600
v 0.16090900 0.32184300 -0.48278600
v -0.03519450 0.20117500 -0.34851500
v 0.02645520 0.23687900 -0.34851500
v 0.10055600 0.29167600 -0.51298900
v 0.19152600 0.33715500 -0.49787100
v 0.19108500 0.33693800 -0.49787100
v -0.05090370 0.18104700 -0.40736500
v -0.03519450 0.20117500 -0.42244900
v 0.02515760 0.23131800 -0.58837700
v 0.01886290 0.21311600 -0.60346100
v -0.08546950 0.09555410 -0.46269700
v -0.08546950 0.09119640 -0.46269700
v 0.13523300 0.09119640 -0.63011300
v 0.12228400 0.09119640 -0.63870300
v 0.12570800 0.09555410 -0.64370900
v 0.11565800 0.10058600 -0.65375400
v 0.11565800 0.11568100 -0.66883800
v 0.12570800 0.12574500 -0.67387800
v 0.10560900 0.16597600 -0.69400100
v 0.15273600 0.16597600 -0.67512900
v 0.19108500 0.18104700 -0.65879300
v 0.19152600 0.18104700 -0.65855600
v 0.12068300 0.30173900 -0.51298900
v 0.10055600 0.29167600 -0.55820800
v 0.19152600 0.33715500 -0.54312400
v 0.19108500 0.33693800 -0.54312400
v 0.05530610 0.26148500 -0.58837700
v 0.04025950 0.24641300 -0.60346100
v 0.03771950 0.23006600 -0.62608800
v 0.02264520 0.21497000 -0.61100300
v 0.03771950 0.21497000 -0.64117200
v 0.03520710 0.20117500 -0.64370900
v 0.02013290 0.17100800 -0.62859100
v -0.02260500 0.09430210 -0.58083500
v -0.02688440 0.09119640 -0.57329300
v 0.10627100 0.09119640 -0.64151000
v 0.07038030 0.10058600 -0.65375400
v 0.08548210 0.11568100 -0.66883800
v 0.09553160 0.12574500 -0.67387800
v 0.06535560 0.20117500 -0.67387800
v 0.07543270 0.19614300 -0.67888300
v 0.07543270 0.21311600 -0.67512900
v 0.09050690 0.21123800 -0.67888300
v 0.13575700 0.21123800 -0.67888300
v 0.15085900 0.19614300 -0.67888300
v 0.15085900 0.18104700 -0.67888300
v 0.09050690 0.13578500 -0.67888300
v 0.06786790 0.12824900 -0.67134100
v 0.07543270 0.15088000 -0.67888300
v 0.05530610 0.14584800 -0.66883800
v 0.06535560 0.15591200 -0.67387800
v 0.16090900 0.18104700 -0.67387800
v 0.19108500 0.21123800 -0.65879300
v 0.19152600 0.21123800 -0.65855600
v 0.12068300 0.30173900 -0.55820800
v 0.11314600 0.29795900 -0.56575000
v 0.06786790 0.26779200 -0.59591900
v 0.19152600 0.33698600 -0.54437500
v 0.17349800 0.32812600 -0.55066600
v 0.06033080 0.26213500 -0.60346100
v 0.05279370 0.25269700 -0.61100300
v 0.05279370 0.24516100 -0.62608800
v 0.05279370 0.23760100 -0.64117200
v 0.05030890 0.23131800 -0.64370900
v 0.06786790 0.21497000 -0.67134100
v 0.05530610 0.19111100 -0.66883800
v 0.04025950 0.19111100 -0.65375400
v 0.02515760 0.16094400 -0.63866900
v -0.02260500 0.09119640 -0.58083500
v 0.09771270 0.09119640 -0.64151000
v 0.05279370 0.11315400 -0.65625700
v 0.07292030 0.11818500 -0.66633500
v 0.08479190 0.09119640 -0.63934600
v 0.05279370 0.09808200 -0.64117200
v 0.09050690 0.23131800 -0.66883800
v 0.09050690 0.22125400 -0.67387800
v 0.14332200 0.21875000 -0.67512900
v 0.15839600 0.20367900 -0.67512900
v 0.05781850 0.13328100 -0.66633500
v 0.04025950 0.13077700 -0.65375400
v 0.16090900 0.19614300 -0.67387800
v 0.18857200 0.21875000 -0.66004500
v 0.19152600 0.22168700 -0.65784600
v 0.19152600 0.33409700 -0.55820800
v 0.08296980 0.26779200 -0.62608800
v 0.06033080 0.24703900 -0.63363000
v 0.09050690 0.26148500 -0.63866900
v 0.09050690 0.24641300 -0.65375400
v -0.01642080 0.09119640 -0.58702400
v -0.00753082 0.09119640 -0.59591900
v 0.04210920 0.09119640 -0.62169100
v 0.00000630 0.09119640 -0.60018100
v 0.12822000 0.26779200 -0.64117200
v 0.13575700 0.26651600 -0.64370900
v 0.16593300 0.27658000 -0.63866900
v 0.13575700 0.23131800 -0.66883800
v 0.13575700 0.22125400 -0.67387800
v 0.17349800 0.26401300 -0.64496000
v 0.15085900 0.22628600 -0.66948100
v 0.17349800 0.23384600 -0.66004500
v 0.18103500 0.24138100 -0.65439600
v 0.19152600 0.24138100 -0.65043900
v 0.19152600 0.33181000 -0.56280800
v 0.15085900 0.30739700 -0.58837700
v 0.19152600 0.31671500 -0.59297700
v 0.18103500 0.30739700 -0.60346100
v 0.19152600 0.30694000 -0.60694500
v 0.18103500 0.29167600 -0.62358500
v 0.19152600 0.29167600 -0.62358500
v 0.18103500 0.27154800 -0.63927800
v 0.19152600 0.27853000 -0.63187100
v 0.19152600 0.24836300 -0.64695600
v 0.19152600 0.31902600 -0.58837700
f 81 117 82
f 80 114 115
f 80 116 81
f 80 115 116
f 81 116 117
f 80 113 114
f 77 111 112
f 78 80 79
f 78 112 80
f 77 112 78
f 77 110 111
f 77 109 110
f 76 106 109
f 82 117 83
f 76 109 77
f 80 112 113
f 83 117 118
f 89 91 90
f 86 120 121
f 92 146 126
f 75 105 104
f 92 125 146
f 91 125 92
f 91 124 125
f 91 114 124
f 89 114 91
f 83 118 84
f 89 115 114
f 89 100 99
f 87 121 97
f 87 97 96
f 86 123 120
f 86 122 123
f 86 119 122
f 86 121 87
f 89 99 115
f 75 108 105
f 65 85 119
f 74 107 108
f 68 89 90
f 67 88 68
f 66 88 67
f 66 87 88
f 65 119 86
f 65 87 66
f 65 86 87
f 68 90 91
f 63 65 64
f 60 84 61
f 60 83 84
f 60 82 83
f 60 81 82
f 60 80 81
f 60 79 80
f 92 126 93
f 63 85 65
f 68 91 92
f 68 92 93
f 68 93 94
f 73 106 76
f 73 105 106
f 73 104 105
f 70 130 102
f 70 101 130
f 70 103 71
f 70 102 103
f 69 95 101
f 68 100 89
f 68 99 100
f 68 98 99
f 68 97 98
f 68 96 97
f 68 87 96
f 68 88 87
f 68 95 69
f 68 94 95
f 74 108 75
f 93 126 94
f 133 153 134
f 94 127 130
f 59 79 60
f 133 152 153
f 132 150 151
f 132 149 150
f 131 149 132
f 129 139 138
f 127 149 131
f 134 153 154
f 126 149 127
f 126 148 150
f 126 147 148
f 126 144 147
f 126 145 144
f 126 146 145
f 124 146 125
f 124 145 146
f 126 150 149
f 124 144 145
f 134 154 155
f 136 142 137
f 154 156 155
f 153 162 154
f 152 162 153
f 150 161 151
f 150 160 161
f 150 159 160
f 147 150 148
f 134 155 136
f 147 159 150
f 144 158 159
f 144 157 158
f 142 144 143
f 142 157 144
f 142 156 157
f 142 155 156
f 136 155 142
f 144 159 147
f 124 143 144
f 124 142 143
f 124 137 142
f 105 134 106
f 105 133 134
f 105 108 133
f 103 131 132
f 102 127 131
f 102 130 127
f 102 131 103
f 106 134 109
f 99 117 115
f 99 128 129
f 97 99 98
f 97 128 99
f 97 120 128
f 97 121 120
f 94 101 95
f 94 130 101
f 99 129 117
f 107 133 108
f 109 134 111
f 109 111 110
f 123 141 139
f 123 140 141
f 122 140 123
f 120 139 129
f 120 123 139
f 120 129 128
f 118 129 138
f 117 129 118
f 115 117 116
f 112 114 113
f 112 124 114
f 112 137 124
f 112 136 137
f 112 134 136
f 112 135 134
f 111 135 112
f 111 134 135
f 94 126 127
f 58 79 59
f 27 45 28
f 58 77 78
f 3 62 42
f 3 63 62
f 3 85 63
f 3 119 85
f 3 122 119
f 3 140 122
f 3 141 140
f 3 42 22
f 3 139 141
f 3 118 138
f 3 84 118
f 3 61 84
f 3 41 61
f 3 21 41
f 3 12 21
f 3 6 12
f 3 138 139
f 2 4 5
f 3 22 13
f 4 8 9
f 14 25 26
f 14 24 25
f 14 23 24
f 14 22 23
f 13 22 14
f 12 20 21
f 11 19 20
f 3 13 7
f 10 18 16
f 8 10 16
f 7 14 15
f 7 13 14
f 6 20 12
f 6 11 20
f 4 10 8
f 4 9 5
f 10 17 18
f 14 26 27
f 1 4 2
f 1 17 10
f 1 7 15
f 1 3 7
f 1 6 3
f 1 11 6
f 1 19 11
f 1 36 19
f 1 51 36
f 1 15 29
f 1 52 51
f 1 18 34
f 1 16 18
f 1 8 16
f 1 9 8
f 1 5 9
f 1 2 5
f 156 158 157
f 1 34 52
f 1 10 4
f 1 29 48
f 1 71 103
f 1 30 17
f 1 49 30
f 1 54 49
f 1 74 54
f 1 107 74
f 1 133 107
f 1 152 133
f 1 48 71
f 1 162 152
f 1 156 154
f 1 158 156
f 1 160 158
f 1 161 160
f 1 151 161
f 1 132 151
f 1 103 132
f 1 154 162
f 14 27 28
f 14 28 29
f 14 29 15
f 46 67 68
f 45 67 46
f 45 66 67
f 44 66 45
f 44 65 66
f 43 65 44
f 43 64 65
f 46 68 69
f 43 63 64
f 42 62 43
f 41 60 61
f 40 59 60
f 40 60 41
f 38 59 40
f 38 58 59
f 38 57 58
f 43 62 63
f 38 40 39
f 46 69 47
f 47 71 48
f 57 77 58
f 57 76 77
f 57 73 76
f 55 104 72
f 55 75 104
f 54 75 55
f 54 74 75
f 47 70 71
f 53 104 73
f 53 55 72
f 51 57 56
f 51 73 57
f 51 53 73
f 50 55 53
f 47 101 70
f 47 69 101
f 53 72 104
f 37 57 38
f 37 56 57
f 37 51 56
f 22 24 23
f 22 43 24
f 22 42 43
f 21 40 41
f 20 40 21
f 20 39 40
f 20 38 39
f 24 43 25
f 19 38 20
f 19 36 37
f 18 35 32
f 18 31 35
f 18 33 34
f 18 32 33
f 17 31 18
f 17 30 31
f 19 37 38
f 25 43 44
f 25 44 45
f 25 45 26
f 36 51 37
f 35 55 50
f 35 54 55
f 35 49 54
f 33 53 51
f 33 50 53
f 33 52 34
f 33 51 52
f 32 50 33
f 32 35 50
f 30 35 31
f 30 49 35
f 28 48 29
f 28 47 48
f 28 46 47
f 28 45 46
f 26 45 27
f 58 78 79
f 158 160 159

