# https://github.com/mikedh/trimesh
v -0.01508700 0.16396400 -0.03216680
v 0.13548800 0.24338500 -0.03216680
v 0.17449700 0.18423400 -0.03216680
v 0.16794800 0.21321600 -0.03216680
v 0.17449700 0.19414100 -0.03216680
v 0.17098400 0.20116500 -0.02514470
v 0.17238900 0.20256700 -0.03216680
v 0.15841000 0.21875700 -0.02262970
v 0.14332700 0.21875700 -0.00754356
v 0.15589700 0.20116500 -0.01005860
v 0.15841000 0.18858800 -0.00754356
v 0.14081400 0.18607500 0.00502755
v 0.13548800 0.20005400 0.00391699
v 0.12068000 0.18104300 0.01508310
v 0.14176100 0.15113100 0.00597849
v 0.12068000 0.15113100 0.01508310
v 0.07543660 0.16595700 0.03017400
v 0.12004900 0.18422800 0.01444840
v 0.07862850 0.18422800 0.02103280
v 0.13548800 0.21875700 -0.00754356
v 0.13548800 0.22659800 -0.01479080
v 0.14332700 0.23384700 -0.02262970
v 0.13548800 0.24153700 -0.03002580
v 0.13777900 0.24338500 -0.03216680
v 0.03336670 0.18422800 0.01508310
v 0.07040750 0.17601400 0.02513960
v 0.02978510 0.18422800 0.01428980
v 0.03017480 0.18104300 0.01508310
v 0.03017480 0.16595700 0.01508310
v 0.01005850 0.18104300 0.00502654
v 0.02184250 0.18422800 0.01032330
v 0.01378850 0.18422800 0.00608833
v 0.01152450 0.18422800 0.00475804
v -0.00515870 0.18422800 -0.01111400
v -0.00502880 0.18104300 -0.01005220
v 0.01005850 0.16595700 0.00502654
v 0.02264050 0.15841400 0.01131190
v 0.06790230 0.15841400 0.02639670
v 0.07543660 0.15113100 0.02275360
v 0.06060920 0.15113100 0.02093510
v 0.01534740 0.15113100 0.00585034
v 0.01501330 0.15113100 0.00564287
v -0.00502880 0.16595700 -0.01005220
v -0.01508700 0.18104300 -0.03017130
v -0.01508700 0.16595700 -0.03017130
v -0.01128270 0.15113100 -0.02814540
v -0.01137550 0.15113100 -0.02835900
v -0.01222910 0.15113100 -0.03216680
v -0.01508700 0.18104300 -0.03216680
v -0.01388070 0.18422800 -0.03216680
v -0.01388070 0.18422800 -0.03017130
v -0.01349100 0.18422800 -0.02698590
v -0.01057750 0.18422800 -0.02117660
v 0.17449700 0.15113100 -0.03216680
v 0.00512217 0.15113100 -0.00485303
v -0.00378545 0.15113100 -0.01685010
v 0.15684900 0.15113100 -0.00910021
v 0.15840700 0.16218600 -0.00753803
v 0.17097100 0.15590000 -0.02514310
v 0.17336500 0.15113100 -0.02991500
v 0.17098400 0.18423400 -0.02514470
f 32 2 33
f 51 50 44
f 51 2 50
f 51 52 2
f 51 44 52
f 53 35 34
f 53 52 35
f 53 2 52
f 53 34 2
f 34 33 2
f 44 35 52
f 49 44 50
f 36 43 42
f 49 1 44
f 45 1 48
f 45 48 47
f 45 47 46
f 45 46 43
f 45 43 44
f 44 43 35
f 36 35 43
f 36 42 41
f 37 36 41
f 37 41 40
f 50 2 1
f 49 50 1
f 48 1 54
f 59 61 58
f 42 48 41
f 54 1 3
f 61 54 3
f 6 61 3
f 12 15 11
f 15 58 11
f 6 11 58
f 6 58 61
f 38 37 40
f 59 54 61
f 60 57 54
f 60 54 59
f 60 59 57
f 57 59 58
f 57 58 15
f 57 15 54
f 15 16 54
f 39 16 17
f 40 41 39
f 39 41 16
f 16 41 54
f 55 42 43
f 56 55 43
f 56 43 46
f 56 46 55
f 55 46 42
f 47 48 46
f 46 48 42
f 48 54 41
f 38 40 39
f 45 44 1
f 38 17 37
f 20 9 21
f 20 21 19
f 20 19 9
f 9 19 13
f 18 14 13
f 18 13 19
f 18 19 17
f 18 17 14
f 14 17 16
f 14 16 15
f 14 15 12
f 14 12 13
f 22 21 9
f 12 9 13
f 10 11 6
f 10 6 9
f 6 8 9
f 6 4 8
f 7 5 4
f 7 4 6
f 7 6 5
f 5 6 3
f 5 3 4
f 4 3 2
f 2 3 1
f 38 39 17
f 10 9 12
f 22 23 21
f 10 12 11
f 22 4 24
f 37 17 29
f 22 24 23
f 37 29 36
f 30 36 29
f 30 35 36
f 30 34 35
f 30 33 34
f 30 31 32
f 32 31 2
f 27 25 2
f 27 2 31
f 28 27 31
f 28 31 30
f 30 32 33
f 28 29 17
f 22 9 8
f 28 30 29
f 24 4 2
f 23 24 2
f 23 25 19
f 23 19 21
f 23 2 25
f 26 19 25
f 26 17 19
f 26 25 17
f 27 17 25
f 28 17 27
f 22 8 4

