# https://github.com/mikedh/trimesh
v 0.27156600 0.18104200 -0.03216680
v 0.18759300 0.26152400 0.08048150
v 0.18759300 0.27157300 0.07788790
v 0.13550000 0.37707400 0.46775300
v 0.18759300 0.25648900 0.09056210
v 0.27659500 0.17098600 -0.03216680
v 0.30174100 0.15378000 -0.03216680
v 0.28672100 0.16210400 -0.03216680
v 0.27659500 0.17098600 -0.01005300
v 0.29848100 0.15505200 -0.03216680
v 0.18759300 0.27157300 0.27152300
v 0.30174100 0.15464400 -0.02828700
v 0.30928100 0.15464400 -0.02262730
v 0.18104900 0.37718800 0.66381600
v 0.16596100 0.38095700 0.66569800
v 0.15590600 0.38220800 0.65376100
v 0.14585100 0.38724300 0.64370700
v 0.14081700 0.39729900 0.66884300
v 0.15841600 0.38472500 0.66758100
v 0.14332800 0.39981700 0.67513200
v 0.13578400 0.40735500 0.66381600
v 0.14081700 0.40735500 0.67387000
v 0.14585100 0.42243000 0.68392500
v 0.15087200 0.40735500 0.68456700
v 0.15841600 0.39981700 0.68268400
v 0.18104900 0.38724300 0.68392500
v 0.20367000 0.38095700 0.67136800
v 0.19612500 0.38724300 0.68392500
v 0.21121400 0.38661000 0.67889700
v 0.21875800 0.39604800 0.68644900
v 0.21121400 0.39729900 0.68895200
v 0.21121400 0.40735500 0.69397900
v 0.22126900 0.40233500 0.68895200
v 0.23384600 0.39604800 0.67136800
v 0.22630200 0.38661000 0.66381600
v 0.32436900 0.16972800 0.00754936
v 0.19612500 0.37718800 0.66381600
v 0.32991500 0.15880500 -0.03216680
v 0.33190900 0.16030100 -0.03017360
v 0.33390300 0.16079900 -0.03216680
v 0.34130000 0.16866100 -0.03216680
v 0.33945700 0.16972800 -0.02262730
v 0.33693800 0.17601400 0.00000314
v 0.34322700 0.17915500 -0.01508110
v 0.34213200 0.17007100 -0.03216680
v 0.34650200 0.17880100 -0.03216680
v 0.34749900 0.18129200 -0.03216680
v 0.34322500 0.19425400 0.01510440
v 0.33945300 0.19238000 0.02264040
v 0.23635700 0.40233500 0.67387000
v 0.23132400 0.41239000 0.68392500
v 0.21121400 0.43752100 0.69397900
v 0.18104900 0.40735500 0.69397900
v 0.17350500 0.39981700 0.69021400
v 0.15841600 0.41489200 0.69021400
v 0.16596100 0.42243000 0.69397900
v 0.15465000 0.42996700 0.68644900
v 0.14710600 0.46015000 0.67136800
v 0.16093900 0.43248500 0.68895200
v 0.17601500 0.47774300 0.67387000
v 0.19612500 0.43752100 0.69397900
v 0.20115900 0.48779900 0.66884300
v 0.21623500 0.45763200 0.68392500
v 0.23384600 0.47522500 0.67136800
v 0.22881300 0.45511400 0.68142200
v 0.23132400 0.44254100 0.68392500
v 0.23635700 0.44757700 0.67387000
v 0.24139000 0.45259600 0.66381600
v 0.25144500 0.43752100 0.63867900
v 0.24139000 0.46768800 0.64873400
v 0.34699800 0.21123500 0.01510440
v 0.25270100 0.42996700 0.64118200
v 0.24139000 0.40735500 0.66381600
v 0.34699800 0.19615100 0.00003243
v 0.34738900 0.20922600 -0.03216680
v 0.34699800 0.21123500 -0.03216680
v 0.33693200 0.23135500 -0.03216680
v 0.31681700 0.24140400 -0.03216680
v 0.31881500 0.15603000 -0.03216680
v 0.29973900 0.24041100 -0.03216680
v 0.30172700 0.24065900 -0.03216680
v 0.29418100 0.25271700 -0.00750355
v 0.30172700 0.25648900 0.00003243
v 0.18759300 0.28503200 0.08973020
v 0.18759300 0.28218600 0.08400480
v 0.18759300 0.27945400 0.07940490
v 0.13550000 0.39983300 0.46775300
v 0.18759300 0.27812200 0.07871980
v 0.27156100 0.21123500 -0.03216680
v 0.27483300 0.22595800 -0.03216680
v 0.27632000 0.22869100 -0.03216680
v 0.28464800 0.23424600 -0.03216680
v 0.28864000 0.23623300 -0.03216680
v 0.13550000 0.37707400 0.48250200
v 0.13550000 0.40266000 0.55450000
v 0.13550000 0.40735500 0.48279000
v 0.14585100 0.47272400 0.61854800
v 0.13956200 0.47522500 0.64118200
v 0.13578400 0.45259600 0.61854800
v 0.13578400 0.45259600 0.64873400
v 0.13578400 0.43752100 0.66381600
v 0.13956200 0.44505900 0.67136800
v 0.14710600 0.47522500 0.65626400
v 0.14332800 0.47901000 0.64118200
v 0.16093900 0.48779900 0.64873400
v 0.18104900 0.49785400 0.64873400
v 0.17601500 0.49283500 0.65878800
v 0.16973900 0.49031700 0.65626400
v 0.16219400 0.47522500 0.67136800
v 0.18608200 0.48779900 0.66884300
v 0.16407700 0.46768800 0.67513200
v 0.19612500 0.49785400 0.64873400
v 0.19612500 0.49785400 0.63365200
v 0.20618000 0.49283500 0.62860300
v 0.23635700 0.47774300 0.64370700
v 0.23635700 0.47774300 0.62860300
v 0.24139000 0.46768800 0.63365200
v 0.21623500 0.48779900 0.65376100
v 0.21372400 0.48529700 0.66634000
v 0.32688300 0.25145300 0.01006410
v 0.32436200 0.24894600 -0.00373557
v 0.31681700 0.25271700 -0.00187604
v 0.18104900 0.49785400 0.63365200
v 0.17350500 0.49408500 0.62610000
v 0.16596100 0.48843200 0.61854800
f 96 100 99
f 96 99 98
f 96 98 97
f 3 89 1
f 96 97 84
f 96 85 87
f 96 87 95
f 95 87 94
f 3 4 87
f 96 95 100
f 87 4 94
f 96 84 85
f 101 100 95
f 5 9 11
f 101 21 102
f 101 95 21
f 21 95 94
f 21 94 18
f 94 11 18
f 5 11 94
f 6 9 5
f 5 94 4
f 21 22 102
f 22 23 102
f 90 1 89
f 58 102 23
f 58 98 102
f 101 102 100
f 90 91 1
f 82 83 78
f 92 80 91
f 47 1 78
f 103 98 58
f 47 41 1
f 41 7 1
f 38 7 41
f 79 7 38
f 79 13 7
f 79 38 13
f 80 78 1
f 81 78 80
f 82 78 81
f 82 84 83
f 82 85 84
f 82 80 85
f 82 81 80
f 86 85 80
f 86 87 85
f 88 87 86
f 88 3 87
f 88 89 3
f 88 90 89
f 88 86 90
f 86 91 90
f 86 92 91
f 86 93 92
f 86 80 93
f 93 80 92
f 80 1 91
f 103 104 98
f 122 78 83
f 105 106 104
f 77 116 76
f 77 120 116
f 121 120 77
f 121 116 120
f 121 114 116
f 121 122 114
f 121 78 122
f 121 77 78
f 122 83 113
f 114 122 113
f 123 113 83
f 123 106 113
f 123 104 106
f 123 124 104
f 123 83 84
f 124 84 125
f 124 125 104
f 104 125 97
f 104 97 98
f 84 97 125
f 71 76 70
f 100 102 98
f 99 100 98
f 43 34 35
f 43 35 36
f 40 43 36
f 47 78 77
f 117 76 116
f 105 104 103
f 117 70 76
f 119 62 64
f 105 107 106
f 108 107 105
f 108 103 107
f 108 105 103
f 107 103 109
f 110 107 109
f 110 62 107
f 110 60 62
f 110 109 60
f 111 60 109
f 111 59 60
f 111 109 59
f 109 58 59
f 109 103 58
f 107 62 112
f 107 112 106
f 112 113 106
f 112 114 113
f 115 114 112
f 115 116 114
f 115 117 116
f 115 70 117
f 115 64 70
f 115 118 64
f 115 112 118
f 119 118 112
f 119 64 118
f 119 112 62
f 47 77 76
f 123 84 124
f 75 76 71
f 19 16 15
f 14 26 15
f 27 26 14
f 27 28 26
f 29 28 27
f 30 28 29
f 30 31 28
f 30 32 31
f 30 33 32
f 30 34 33
f 30 29 34
f 29 35 34
f 29 36 35
f 29 27 36
f 27 13 36
f 27 37 13
f 27 14 37
f 13 37 14
f 38 36 13
f 39 36 38
f 39 40 36
f 39 38 40
f 40 38 41
f 42 40 41
f 42 43 40
f 42 44 43
f 42 41 44
f 19 15 26
f 45 44 41
f 20 19 26
f 20 25 24
f 75 47 76
f 2 3 1
f 2 4 3
f 2 5 4
f 2 6 5
f 2 1 6
f 6 1 7
f 8 6 7
f 8 9 6
f 10 9 8
f 10 11 9
f 10 12 11
f 10 7 12
f 10 8 7
f 12 7 13
f 12 13 14
f 12 14 15
f 12 15 11
f 16 11 15
f 17 11 16
f 17 18 11
f 17 16 18
f 20 18 19
f 20 21 18
f 20 22 21
f 20 23 22
f 20 24 23
f 20 26 25
f 45 46 44
f 19 18 16
f 46 41 47
f 54 53 55
f 63 62 52
f 63 64 62
f 63 52 64
f 65 64 52
f 65 66 64
f 65 52 66
f 66 52 51
f 66 51 67
f 66 67 64
f 68 64 67
f 69 64 68
f 69 70 64
f 69 71 70
f 69 68 72
f 68 73 72
f 68 67 73
f 73 67 51
f 73 51 50
f 73 50 48
f 73 48 72
f 71 72 48
f 74 71 48
f 74 47 71
f 74 48 47
f 45 41 46
f 75 71 47
f 56 55 53
f 56 53 52
f 69 72 71
f 61 52 62
f 46 47 44
f 44 47 48
f 61 56 52
f 44 48 43
f 49 43 48
f 49 34 43
f 49 48 34
f 34 48 50
f 33 34 50
f 33 51 32
f 52 32 51
f 53 32 52
f 54 32 53
f 54 31 32
f 33 50 51
f 54 26 28
f 56 60 59
f 54 28 31
f 57 56 59
f 57 59 58
f 57 58 23
f 61 62 60
f 61 60 56
f 57 23 56
f 24 55 23
f 24 54 55
f 24 25 54
f 54 25 26
f 56 23 55

