# https://github.com/mikedh/trimesh
v 0.10070100 -0.28870500 -0.33682000
v 0.02364630 -0.28870500 -0.12274600
v 0.05589430 -0.28870500 -0.03220200
v 0.02364630 -0.28870500 -0.09257630
v 0.04329490 -0.28870500 -0.04579060
v 0.04528000 -0.28870500 -0.04279830
v 0.05281530 -0.29421300 -0.04149570
v 0.03774460 -0.29421300 -0.07166530
v 0.06792650 -0.32437500 -0.10187000
v 0.06541470 -0.32689300 -0.11567000
v 0.03523290 -0.29671100 -0.08550040
v 0.02514530 -0.29169400 -0.09556860
v 0.02514530 -0.29169400 -0.12573800
v 0.07043830 -0.35203800 -0.21621200
v 0.08550900 -0.36712900 -0.21621200
v 0.09555610 -0.37214600 -0.20621400
v 0.09806790 -0.36964800 -0.19237900
v 0.11317900 -0.36964800 -0.16220900
v 0.06792650 -0.30928400 -0.05659810
v 0.07157260 -0.29798100 -0.03220200
v 0.07546180 -0.29953700 -0.03220200
v 0.07546180 -0.31307200 -0.05846390
v 0.18107800 -0.41864800 -0.20934700
v 0.17350200 -0.41488000 -0.20748100
v 0.14336100 -0.39978900 -0.20748100
v 0.14084900 -0.40230700 -0.22124600
v 0.11066700 -0.38723700 -0.23634800
v 0.18610200 -0.43249000 -0.25141500
v 0.15592000 -0.41739900 -0.26651800
v 0.19614900 -0.43750600 -0.28661900
v 0.17605500 -0.42745200 -0.29165300
v 0.14587300 -0.41236100 -0.27658600
v 0.10062000 -0.38222000 -0.24641600
v 0.08550900 -0.36712900 -0.26148400
v 0.07043830 -0.33694700 -0.26148400
v 0.08299720 -0.35455700 -0.27908600
v 0.06035070 -0.31683900 -0.25645000
v 0.03774460 -0.29421300 -0.18861200
v 0.06241680 -0.28870500 -0.29968000
v 0.07546180 -0.33193000 -0.28661900
v 0.08550900 -0.35203800 -0.29165300
v 0.09806790 -0.36964800 -0.29418800
v 0.10062000 -0.38222000 -0.26148400
v 0.13076100 -0.39727000 -0.29165300
v 0.17350200 -0.41488000 -0.32435700
v 0.14336100 -0.39978900 -0.30925500
v 0.11317900 -0.35455700 -0.32435700
v 0.14336100 -0.36964800 -0.33942500
v 0.13076100 -0.35203800 -0.33692500
v 0.10062000 -0.33694700 -0.32182300
v 0.08550900 -0.33694700 -0.30675600
v 0.09806790 -0.35455700 -0.30925500
v 0.07748750 -0.28870500 -0.31478200
v 0.03122210 -0.28870500 -0.16495500
v 0.03498980 -0.28870500 -0.18308500
v 0.09255810 -0.28870500 -0.32984900
v 0.11070800 -0.28870500 -0.34291000
v 0.17350200 -0.36964800 -0.35452700
v 0.17605500 -0.38222000 -0.35202800
v 0.19614900 -0.37718300 -0.36206100
v 0.18107800 -0.34700100 -0.36206100
v 0.11629900 -0.28870500 -0.34452900
v 0.13542000 -0.28870500 -0.34910600
v 0.25849800 -0.28870500 -0.33291200
v 0.24136100 -0.28870500 -0.34044600
v 0.21121900 -0.29671100 -0.35202800
v 0.24889600 -0.29421300 -0.34322700
v 0.25444600 -0.28870500 -0.33495400
v 0.26400700 -0.29421300 -0.33565800
v 0.40734100 -0.40230700 -0.36709500
v 0.38469400 -0.39978900 -0.37339600
v 0.26400700 -0.32437500 -0.35829400
v 0.22633100 -0.30174800 -0.35262600
v 0.21879500 -0.30928400 -0.35829400
v 0.38469400 -0.42997100 -0.38846300
v 0.41487600 -0.41488000 -0.37339600
v 0.42241100 -0.40734500 -0.36206100
v 0.42743500 -0.42241500 -0.36709500
v 0.42994700 -0.41488000 -0.35829400
v 0.43245800 -0.41236100 -0.35202800
v 0.41738800 -0.39727000 -0.35202800
v 0.41487600 -0.39978900 -0.35829400
v 0.30926000 -0.30928400 -0.32059100
v 0.29520200 -0.28870500 -0.28866100
v 0.42743500 -0.40230700 -0.34195900
v 0.43752300 -0.42241500 -0.34699300
v 0.43752300 -0.43750600 -0.34699300
v 0.43752300 -0.42241500 -0.30172100
v 0.42743500 -0.40230700 -0.29668700
v 0.42994700 -0.41488000 -0.27908600
v 0.43752300 -0.43750600 -0.28661900
v 0.42743500 -0.43249000 -0.26651800
v 0.20368400 -0.28870500 -0.06789850
v 0.29418900 -0.29421300 -0.18861200
v 0.42492300 -0.40482600 -0.28412000
v 0.30674800 -0.29671100 -0.22124600
v 0.29305500 -0.28870500 -0.20480600
v 0.28867900 -0.28870500 -0.19410400
v 0.29520200 -0.28870500 -0.21321900
v 0.30674800 -0.29671100 -0.28162000
v 0.41236400 -0.38723700 -0.32685700
v 0.41236400 -0.38723700 -0.29668700
v 0.28867900 -0.28870500 -0.30274200
v 0.17090900 -0.28870500 -0.03220200
v 0.41738800 -0.44254300 -0.26148400
v 0.41487600 -0.45636500 -0.26401800
v 0.16795200 -0.29181700 -0.03220200
v 0.16596700 -0.29355800 -0.03220200
v 0.13578500 -0.30275200 -0.03220200
v 0.15089600 -0.30678500 -0.04026360
v 0.39223000 -0.47270500 -0.26651800
v 0.13578500 -0.32185600 -0.05533080
v 0.39223000 -0.48843100 -0.28661900
v 0.38469400 -0.49408200 -0.29418800
v 0.12071400 -0.32185600 -0.05533080
v 0.09053250 -0.30275200 -0.03220200
v 0.22633100 -0.42745200 -0.20621400
v 0.21121900 -0.43373900 -0.22441400
v 0.22633100 -0.43750600 -0.22628000
v 0.37715900 -0.49408200 -0.29982000
v 0.37715900 -0.49787000 -0.31682400
v 0.39223000 -0.49787000 -0.31682400
v 0.36204800 -0.49787000 -0.33189100
v 0.36204800 -0.49408200 -0.31492300
v 0.24136100 -0.44883000 -0.25458400
v 0.19614900 -0.43373900 -0.23948100
v 0.19614900 -0.43750600 -0.25645000
v 0.18861300 -0.42997100 -0.23761600
v 0.17099000 -0.41739900 -0.22124600
v 0.18861300 -0.42997100 -0.30925500
v 0.32433000 -0.47522400 -0.35452700
v 0.34446500 -0.48527800 -0.34949300
v 0.33944200 -0.47522400 -0.36962900
v 0.18861300 -0.41488000 -0.33942500
v 0.19112500 -0.39727000 -0.35202800
v 0.36962400 -0.46013300 -0.38469700
v 0.37464700 -0.47020700 -0.37966200
v 0.38720600 -0.48779600 -0.36709500
v 0.39036600 -0.46768800 -0.38093000
v 0.39725300 -0.47774200 -0.37212900
v 0.39599700 -0.46013300 -0.38469700
v 0.39413400 -0.45259700 -0.38846300
v 0.37967100 -0.45007900 -0.38973100
v 0.37762800 -0.43979100 -0.39180800
v 0.37717500 -0.43752300 -0.39226200
v 0.39976500 -0.44506200 -0.38846300
v 0.41110800 -0.47522400 -0.36962900
v 0.39725300 -0.49283300 -0.35702600
v 0.39223000 -0.49787000 -0.34699300
v 0.40357300 -0.49031500 -0.35452700
v 0.41236400 -0.48779600 -0.34699300
v 0.41864400 -0.47522400 -0.35452700
v 0.42808300 -0.46768800 -0.34699300
v 0.42808300 -0.45259700 -0.36206100
v 0.43371400 -0.44506200 -0.35452700
v 0.43371400 -0.46013300 -0.33942500
v 0.43752300 -0.45259700 -0.33189100
v 0.43371400 -0.47522400 -0.30925500
v 0.43752300 -0.45259700 -0.30172100
v 0.42743500 -0.43750600 -0.36709500
v 0.41864400 -0.46013300 -0.36962900
v 0.40734100 -0.43750600 -0.38283100
v 0.21121900 -0.31683900 -0.36206100
v 0.43371400 -0.45448100 -0.28661900
v 0.43371400 -0.46957200 -0.30172100
v 0.42994700 -0.47145600 -0.29418800
v 0.42994700 -0.45636500 -0.27908600
v 0.43245800 -0.44254300 -0.27658600
v 0.41487600 -0.47145600 -0.27908600
v 0.40734100 -0.48843100 -0.30172100
v 0.42994700 -0.47899100 -0.30925500
v 0.40231700 -0.49283300 -0.31682400
v 0.36962400 -0.49031500 -0.35452700
v 0.39976500 -0.49408200 -0.30925500
v 0.39976500 -0.47899100 -0.27908600
f 135 60 133
f 135 133 134
f 135 134 59
f 59 134 48
f 45 48 134
f 45 134 133
f 45 133 131
f 131 133 132
f 131 123 130
f 130 123 30
f 26 24 25
f 23 126 118
f 23 24 126
f 128 126 24
f 129 24 26
f 135 59 60
f 129 128 24
f 131 132 123
f 23 118 21
f 143 137 136
f 137 133 136
f 148 138 147
f 140 147 138
f 129 26 28
f 140 141 147
f 141 146 147
f 141 142 146
f 15 27 16
f 142 145 146
f 133 60 136
f 142 144 145
f 143 136 144
f 139 137 143
f 139 143 142
f 139 142 141
f 139 141 140
f 139 140 138
f 139 138 137
f 137 138 133
f 143 144 142
f 129 28 128
f 109 104 21
f 127 126 28
f 116 117 115
f 116 115 109
f 112 109 115
f 112 115 114
f 112 114 113
f 112 113 111
f 112 111 109
f 110 109 111
f 116 21 117
f 110 111 108
f 108 104 109
f 107 104 108
f 107 108 106
f 107 106 104
f 105 104 106
f 105 106 92
f 148 149 138
f 105 92 104
f 110 108 109
f 128 28 126
f 116 109 21
f 117 21 118
f 127 28 30
f 127 30 123
f 127 123 126
f 124 126 123
f 124 125 126
f 126 125 118
f 120 118 125
f 120 125 124
f 104 3 21
f 120 124 123
f 121 123 122
f 121 122 114
f 121 114 120
f 120 114 118
f 114 119 118
f 114 115 117
f 114 117 119
f 119 117 118
f 121 120 123
f 150 149 148
f 168 92 167
f 150 147 151
f 173 133 138
f 173 138 149
f 173 149 123
f 122 123 149
f 122 149 172
f 151 172 149
f 151 171 172
f 156 158 153
f 173 123 133
f 151 153 158
f 166 171 158
f 166 170 171
f 166 169 170
f 166 167 169
f 167 106 169
f 167 92 106
f 168 91 92
f 164 91 168
f 151 158 171
f 164 168 167
f 133 123 132
f 122 174 114
f 93 104 92
f 40 39 41
f 79 80 78
f 31 130 30
f 31 32 130
f 45 130 32
f 45 131 130
f 88 91 87
f 122 172 174
f 171 174 172
f 108 111 106
f 169 106 111
f 175 169 111
f 175 111 113
f 175 113 169
f 170 169 113
f 114 170 113
f 114 174 170
f 171 170 174
f 150 151 149
f 165 164 167
f 165 166 158
f 161 154 147
f 161 147 146
f 161 146 160
f 161 160 154
f 155 154 160
f 155 160 87
f 157 155 87
f 157 87 159
f 162 160 146
f 157 159 158
f 157 156 155
f 155 156 153
f 155 153 154
f 154 153 147
f 152 147 153
f 152 153 151
f 152 151 147
f 150 148 147
f 157 158 156
f 165 167 166
f 162 78 160
f 162 146 76
f 165 158 159
f 165 159 164
f 164 159 91
f 159 87 91
f 160 78 87
f 144 136 60
f 144 60 145
f 145 60 61
f 162 76 78
f 145 61 163
f 73 66 67
f 73 74 66
f 74 63 66
f 74 163 63
f 74 145 163
f 75 145 74
f 75 146 145
f 75 76 146
f 63 163 61
f 98 93 94
f 49 50 1
f 93 99 104
f 43 34 42
f 36 42 34
f 36 41 42
f 37 41 36
f 37 40 41
f 37 39 40
f 37 38 39
f 37 13 38
f 35 13 37
f 35 37 36
f 35 36 34
f 35 34 13
f 13 34 14
f 15 14 34
f 15 34 33
f 15 33 27
f 29 27 33
f 43 33 34
f 43 32 33
f 44 32 43
f 44 45 32
f 54 13 2
f 54 2 39
f 39 2 53
f 39 53 51
f 39 51 41
f 41 51 42
f 52 42 51
f 47 42 52
f 29 33 32
f 47 52 51
f 47 50 49
f 47 49 48
f 47 48 45
f 47 45 42
f 44 43 42
f 46 44 42
f 46 42 45
f 46 45 44
f 47 51 50
f 29 32 31
f 29 31 30
f 29 30 28
f 10 12 15
f 15 12 14
f 12 13 14
f 12 4 13
f 5 4 12
f 8 5 12
f 11 8 12
f 11 12 10
f 10 15 16
f 11 10 8
f 8 9 7
f 8 7 5
f 6 5 7
f 6 7 3
f 6 3 5
f 5 3 4
f 98 99 93
f 2 3 1
f 8 10 9
f 54 38 13
f 10 16 17
f 9 17 18
f 29 28 27
f 27 28 26
f 27 26 16
f 17 16 26
f 17 26 18
f 18 26 25
f 18 25 24
f 18 24 19
f 9 10 17
f 22 19 24
f 22 23 21
f 22 21 19
f 20 19 21
f 20 21 3
f 20 3 7
f 20 7 19
f 9 19 7
f 9 18 19
f 22 24 23
f 55 38 54
f 4 3 2
f 55 54 39
f 90 89 95
f 90 95 94
f 90 94 93
f 90 93 92
f 90 92 91
f 90 91 88
f 90 88 89
f 88 85 89
f 86 85 88
f 86 88 87
f 86 87 78
f 86 78 80
f 86 80 85
f 81 85 80
f 81 84 85
f 81 83 84
f 81 82 83
f 95 89 94
f 96 94 89
f 97 94 96
f 97 98 94
f 55 39 38
f 3 99 1
f 64 1 99
f 103 84 83
f 103 83 64
f 103 64 84
f 84 64 99
f 101 85 84
f 82 64 83
f 101 102 85
f 96 89 102
f 96 102 101
f 100 96 101
f 100 101 84
f 100 84 96
f 96 84 99
f 97 96 99
f 97 99 98
f 102 89 85
f 70 64 82
f 104 99 3
f 77 82 81
f 63 1 64
f 57 1 63
f 62 57 63
f 62 63 61
f 62 61 57
f 58 57 61
f 77 70 82
f 58 60 59
f 65 63 64
f 58 59 48
f 49 57 48
f 49 1 57
f 50 56 1
f 50 51 56
f 56 51 53
f 56 53 1
f 53 2 1
f 4 2 13
f 58 48 57
f 65 66 63
f 58 61 60
f 68 67 65
f 65 67 66
f 77 80 79
f 77 79 78
f 77 78 76
f 77 76 70
f 71 70 76
f 71 76 75
f 72 71 75
f 72 75 74
f 77 81 80
f 72 73 67
f 72 67 71
f 71 67 70
f 69 70 67
f 69 64 70
f 68 65 64
f 68 64 69
f 68 69 67
f 72 74 73

