# https://github.com/mikedh/trimesh
v -0.10893700 -0.02355860 0.05191660
v -0.10893700 0.01171630 0.05191660
v -0.10559100 -0.03017810 0.03017150
v -0.10559100 -0.04528320 0.04525810
v -0.10691000 -0.03861920 0.05191660
v -0.10559100 -0.00001239 0.03017150
v -0.10726400 0.02086820 0.05191660
v -0.09551990 -0.03524280 0.01005600
v -0.09806170 -0.05283580 0.02262400
v -0.10391700 -0.05870010 0.05191660
v -0.10057100 -0.02515790 0.02011370
v -0.10182600 0.01695860 0.03017150
v -0.10057100 0.00500783 0.02011370
v -0.10514000 0.03037550 0.05191660
v -0.08046230 -0.06540850 -0.00502240
v -0.09551990 -0.00503261 0.01005600
v -0.08297190 -0.08295710 0.00754566
v -0.09806170 -0.06789640 0.03771060
v -0.09484430 -0.07975840 0.05191660
v -0.09806170 0.03392960 0.03771060
v -0.09806170 0.01882450 0.02262400
v -0.08046230 0.01002800 -0.00502240
v -0.08548150 0.02011290 0.00503534
v -0.10182600 0.03868330 0.05191660
v -0.06537250 -0.05030340 -0.02010900
v -0.05179480 -0.04728240 -0.03216680
v -0.04233550 -0.09393050 -0.03216680
v -0.03718760 -0.11161200 -0.03216680
v -0.03400240 -0.12067500 -0.03216680
v -0.02795360 -0.13578000 -0.03216680
v -0.02637700 -0.13964600 -0.03216680
v 0.01886030 -0.24524800 -0.03216680
v 0.03240570 -0.27154900 -0.03216680
v -0.08297190 -0.09806220 0.03771060
v -0.07875700 -0.10890200 0.05191660
v -0.09761130 0.04832390 0.05191660
v -0.01222020 0.15112700 -0.03216680
v -0.08297190 0.03392960 0.00754566
v -0.04600340 0.03015340 -0.03216680
v -0.04925310 0.01353780 -0.03216680
v -0.05179480 -0.00201159 -0.03216680
v -0.06537250 -0.00503261 -0.02010900
v 0.03436840 -0.27479200 -0.03216680
v 0.03774670 -0.27910100 -0.02639710
v 0.06033320 -0.27656900 -0.01005130
v 0.05283650 -0.26399600 -0.00377135
v 0.06831240 -0.20322000 0.05191660
v -0.09005030 0.06054120 0.05191660
v -0.07763090 0.07764550 0.05191660
v -0.01138370 0.15112700 -0.02836430
v 0.17448800 0.15112700 -0.03216680
v -0.08339020 0.07053730 0.05191660
v 0.03774670 -0.27910100 -0.03216680
v 0.04202590 -0.28243300 -0.03216680
v 0.04527550 -0.28443200 -0.03216680
v 0.07152990 -0.29793800 -0.03216680
v 0.06786200 -0.29416200 -0.02639710
v 0.09051280 -0.29167400 -0.01005130
v 0.09051280 -0.27656900 0.00503534
v 0.06786200 -0.26399600 0.00377607
v 0.08295180 -0.26399600 0.01130700
v 0.09472770 -0.20699700 0.05191660
v -0.06875080 0.08537580 0.05191660
v -0.01128720 0.15112700 -0.02814200
v -0.03680150 0.10892200 0.05191660
v 0.21461000 0.06374000 -0.03216680
v 0.17336200 0.15112700 -0.02991160
v 0.17635400 0.06751620 0.05191660
v 0.20367000 0.08297670 -0.02262760
v 0.07542300 -0.29949300 -0.03216680
v 0.07542300 -0.29793800 -0.02828190
v 0.09051280 -0.30273600 -0.03216680
v 0.13578200 -0.29167400 -0.01005130
v 0.12069200 -0.27656900 0.00503534
v 0.09746250 -0.20637500 0.05191660
v -0.00379054 0.15112700 -0.01684970
v -0.02351350 0.11558600 0.05191660
v 0.00512179 0.15112700 -0.00484955
v 0.21370900 0.06285140 -0.02765640
v 0.21975800 0.04325920 -0.03216680
v 0.17062700 0.15112700 -0.02645480
v 0.15589100 0.09554950 0.05191660
v 0.17339400 0.07249200 0.05191660
v 0.20367000 0.06787160 -0.00754095
v 0.17915400 0.06031910 0.05191660
v 0.13578200 -0.30273600 -0.03216680
v 0.14331100 -0.29793800 -0.02262760
v 0.17349100 -0.28287700 -0.02262760
v 0.15840100 -0.27532500 -0.00754095
v 0.14331100 -0.26022000 0.00754566
v 0.14125200 -0.19180300 0.05191660
v 0.13681200 -0.19397900 0.05191660
v 0.10869100 -0.20322000 0.05191660
v 0.00666617 0.13064700 0.05191660
v 0.01503150 0.15112700 0.00565263
v 0.21621800 0.05027870 -0.02513790
v 0.21975800 -0.07740380 -0.03216680
v 0.19189500 -0.12067500 0.05191660
v 0.15682400 0.15112700 -0.00909652
v 0.15412200 0.09754870 0.05191660
v 0.18102000 0.05187800 0.05191660
v 0.15084000 -0.29816000 -0.03216680
v 0.16593000 -0.29354000 -0.03216680
v 0.16593000 -0.29229600 -0.03016670
v 0.17600000 -0.27656900 -0.02010900
v 0.17349100 -0.26022000 -0.00754095
v 0.16792500 -0.29180700 -0.03216680
v 0.17532500 -0.28394400 -0.03216680
v 0.18578100 -0.27114900 -0.03216680
v 0.18858100 -0.26022000 -0.02262760
v 0.14598200 -0.18900400 0.05191660
v 0.16905100 -0.17305500 0.05191660
v 0.01023750 0.13153500 0.05191660
v 0.01535330 0.15112700 0.00585840
v 0.19189500 -0.14062300 0.05191660
v 0.19166900 -0.14417700 0.05191660
v 0.19710700 -0.24036100 -0.03216680
v 0.14173500 0.15112700 0.00599009
v 0.14144500 0.11127700 0.05191660
v 0.18639300 -0.15306200 0.05191660
v 0.19234500 -0.26035300 -0.03216680
v 0.19334200 -0.25786500 -0.03216680
v 0.05193560 0.13824400 0.05191660
v 0.06059060 0.15112700 0.02093680
v 0.19662400 -0.24311500 -0.03216680
v 0.12069200 0.15112700 0.01508490
v 0.09903910 0.13197900 0.05191660
v 0.13394800 0.11643000 0.05191660
v 0.06033320 0.13824400 0.05191660
v 0.07542300 0.15112700 0.02275570
v 0.07542300 0.13722200 0.05191660
v 0.08208310 0.13575600 0.05191660
v 0.09051280 0.13389000 0.05191660
f 58 71 72
f 47 61 59
f 57 71 58
f 56 71 57
f 56 70 71
f 51 67 68
f 51 68 69
f 50 65 64
f 50 63 65
f 47 59 62
f 58 72 86
f 49 63 50
f 51 69 66
f 58 86 73
f 66 79 80
f 58 74 59
f 59 61 60
f 59 74 62
f 62 74 75
f 64 65 76
f 65 77 78
f 65 78 76
f 66 69 79
f 67 81 82
f 67 82 83
f 67 83 68
f 47 60 61
f 68 84 69
f 68 85 84
f 58 73 74
f 46 60 47
f 37 76 78
f 45 59 60
f 33 35 34
f 69 84 79
f 35 43 44
f 35 44 45
f 35 45 46
f 35 46 47
f 36 48 37
f 37 49 50
f 37 50 64
f 37 64 76
f 37 78 95
f 37 95 114
f 37 114 124
f 37 124 130
f 37 130 126
f 37 126 118
f 37 118 99
f 37 99 81
f 37 81 67
f 37 48 52
f 37 52 49
f 43 53 44
f 44 53 54
f 44 54 55
f 44 55 56
f 44 56 57
f 44 57 58
f 44 58 45
f 45 58 59
f 45 60 46
f 70 72 71
f 109 121 110
f 73 87 88
f 89 112 111
f 94 113 114
f 94 114 95
f 96 101 98
f 97 115 116
f 97 116 117
f 99 118 119
f 99 119 100
f 105 110 120
f 105 120 106
f 106 120 112
f 110 121 122
f 110 122 116
f 110 116 120
f 113 123 114
f 114 123 124
f 116 122 125
f 116 125 117
f 118 126 127
f 118 127 128
f 118 128 119
f 123 129 130
f 123 130 124
f 126 130 131
f 126 131 132
f 126 132 133
f 126 133 127
f 129 131 130
f 33 43 35
f 89 106 112
f 73 86 87
f 89 91 90
f 88 110 105
f 73 88 89
f 73 89 90
f 73 90 74
f 74 90 91
f 74 91 92
f 74 92 93
f 74 93 75
f 77 94 78
f 78 94 95
f 79 84 96
f 79 96 80
f 80 96 98
f 80 98 115
f 80 115 97
f 81 99 82
f 82 99 100
f 84 85 96
f 85 101 96
f 86 102 87
f 87 102 103
f 87 103 104
f 87 104 88
f 88 105 106
f 88 106 89
f 88 104 103
f 88 103 107
f 88 107 108
f 88 108 109
f 88 109 110
f 89 111 91
f 26 28 27
f 37 67 51
f 26 30 29
f 1 113 94
f 1 94 77
f 1 77 65
f 1 65 63
f 1 63 49
f 1 49 52
f 1 52 48
f 1 48 36
f 1 36 24
f 1 24 14
f 1 14 7
f 1 7 2
f 2 7 6
f 3 8 9
f 3 9 10
f 3 10 4
f 3 6 13
f 3 13 11
f 3 11 8
f 4 10 5
f 6 7 12
f 6 12 13
f 7 14 12
f 8 15 9
f 8 11 13
f 8 13 16
f 8 16 22
f 8 22 15
f 9 15 17
f 1 123 113
f 9 17 18
f 1 129 123
f 1 132 131
f 1 2 6
f 1 6 3
f 1 3 4
f 1 4 5
f 1 5 10
f 1 10 19
f 1 19 35
f 1 35 47
f 1 47 62
f 1 62 75
f 1 75 93
f 1 93 92
f 1 92 91
f 1 91 111
f 1 111 112
f 1 112 120
f 1 120 116
f 1 115 98
f 1 98 101
f 1 101 85
f 1 85 68
f 1 68 83
f 1 83 82
f 1 82 100
f 1 100 119
f 1 119 128
f 1 128 127
f 1 127 133
f 1 133 132
f 1 131 129
f 9 18 10
f 1 116 115
f 12 14 20
f 26 41 40
f 26 40 39
f 26 39 37
f 26 37 51
f 26 51 66
f 26 66 80
f 26 80 97
f 26 97 117
f 26 29 28
f 26 117 125
f 26 125 122
f 26 122 121
f 26 121 109
f 26 109 108
f 26 108 107
f 26 107 103
f 26 103 102
f 26 102 86
f 26 86 72
f 26 70 56
f 26 56 55
f 26 55 54
f 26 54 53
f 26 53 43
f 26 43 33
f 26 33 32
f 26 32 31
f 26 31 30
f 10 18 19
f 25 41 26
f 25 42 41
f 26 72 70
f 22 37 39
f 12 20 21
f 23 38 37
f 12 21 13
f 13 22 16
f 13 21 38
f 13 38 23
f 13 23 22
f 15 22 42
f 15 42 25
f 15 25 26
f 15 26 27
f 15 27 28
f 15 28 29
f 15 29 30
f 15 30 31
f 14 24 20
f 15 32 17
f 15 31 32
f 22 23 37
f 22 40 41
f 22 39 40
f 21 37 38
f 22 41 42
f 20 36 37
f 20 37 21
f 19 34 35
f 18 34 19
f 17 34 18
f 17 33 34
f 17 32 33
f 20 24 36

