# https://github.com/mikedh/trimesh
v 0.09050470 -0.21121800 0.06034990
v 0.06791150 -0.20367400 0.05281650
v 0.09473680 -0.20698000 0.05191660
v 0.10747700 -0.20744600 0.06034990
v 0.10560400 -0.21121800 0.07544240
v 0.07544990 -0.21121800 0.07544240
v -0.00502610 -0.15588700 0.05533620
v -0.00434280 -0.15520100 0.05191660
v 0.06835230 -0.20320800 0.05191660
v 0.05532540 -0.20115100 0.07042870
v 0.09747000 -0.20636800 0.05191660
v 0.10937300 -0.20367400 0.05281650
v 0.13681500 -0.19399900 0.05191660
v 0.13577900 -0.19613000 0.06034990
v 0.10560400 -0.21121800 0.10562700
v 0.07544990 -0.21121800 0.09053490
v -0.02905210 -0.13634100 0.05191660
v 0.05532540 -0.20115100 0.08549550
v -0.02905210 -0.13604700 0.13565800
v -0.02905210 -0.13634100 0.12015400
v 0.10871200 -0.20320800 0.05191660
v 0.14126800 -0.19179400 0.05191660
v 0.15588200 -0.18606300 0.06034990
v 0.16595500 -0.18104200 0.07544240
v 0.13577900 -0.19613000 0.12072000
v 0.11314200 -0.20744600 0.11316100
v 0.12821900 -0.19235800 0.15843800
v 0.09806520 -0.20744600 0.12825300
v 0.09050470 -0.21121800 0.10562700
v 0.06539860 -0.20617200 0.09557430
v 0.07544990 -0.20744600 0.10750400
v -0.02905210 0.03900890 0.05191660
v -0.02905210 -0.13171200 0.15684400
v 0.14598500 -0.18902700 0.05191660
v 0.17726300 -0.17349800 0.06790900
v 0.17600600 -0.17599600 0.07544240
v 0.16972400 -0.17349800 0.05281650
v 0.17349300 -0.17727000 0.11316100
v 0.16595500 -0.18104200 0.10562700
v 0.14331800 -0.19235800 0.12825300
v 0.14080500 -0.18606300 0.15087900
v 0.17349300 -0.16218200 0.14334600
v 0.13577900 -0.18104200 0.16597200
v 0.12068000 -0.18606300 0.17101100
v 0.09050470 -0.18606300 0.17101100
v 0.09050470 -0.20744600 0.12259700
v 0.09050470 -0.19613000 0.15087900
v 0.06791150 -0.20367400 0.10938100
v -0.02905210 -0.11718700 0.21294600
v -0.02512860 -0.13073200 0.17101100
v 0.08047550 -0.19108400 0.15591900
v 0.18103200 0.03900890 0.05191660
v -0.02905210 0.03900890 0.30679200
v 0.16904100 -0.17303200 0.05191660
v 0.18641000 -0.15307000 0.05191660
v 0.19167800 -0.14420300 0.05191660
v 0.19234000 -0.14332100 0.05281650
v 0.19613100 -0.13577700 0.06034990
v 0.19613100 -0.13577700 0.09053490
v 0.18103200 -0.16595400 0.10562700
v 0.17600600 -0.17599600 0.10562700
v 0.17726300 -0.16784000 0.12072000
v 0.17600600 -0.15588700 0.14586600
v 0.15839500 -0.15463800 0.17350500
v 0.14331800 -0.16972600 0.17350500
v 0.09806520 -0.03395750 0.27910100
v 0.07544990 -0.05029480 0.27658200
v 0.03017520 -0.05029480 0.29167400
v 0.01509840 -0.08047090 0.27658200
v -0.02905210 -0.08047090 0.27658200
v -0.01507730 -0.09553450 0.26148900
v -0.02905210 -0.10126600 0.24467400
v 0.08298830 -0.18858600 0.16219200
v -0.02905210 -0.11681900 0.21369200
v -0.02905210 -0.10173100 0.24387700
v 0.19613100 -0.10560100 0.09053490
v 0.19613100 -0.12068900 0.06034990
v 0.19189900 -0.12068900 0.05191660
v 0.18544000 0.03900890 0.19428000
v -0.02905210 0.03129340 0.31067500
v 0.09050470 0.03900890 0.30172700
v 0.19189900 -0.14065200 0.05191660
v 0.18103200 -0.15086600 0.13578700
v 0.18544000 0.03900890 0.19610500
v 0.18083400 0.03900890 0.21099200
v 0.16791700 0.03900890 0.24138300
v 0.16090700 0.02512100 0.25143600
v 0.16090700 -0.14079900 0.17602500
v 0.15839500 0.01130660 0.24891600
v 0.14331800 -0.00378142 0.26400900
v 0.13075400 -0.02011870 0.26652900
v 0.11314200 -0.01886950 0.27910100
v 0.09806520 -0.00378142 0.29419400
v 0.09050470 -0.03207150 0.28288100
v 0.04527410 -0.03207150 0.29794800
v 0.03017520 -0.03018550 0.30172700
v 0.01509840 -0.07042850 0.28162100
v -0.02905210 -0.07973610 0.27696700
v -0.02905210 0.01620540 0.31455700
v 0.09050470 0.01507870 0.30172700
v 0.10302500 0.03900890 0.29547900
v 0.15588200 0.03900890 0.26148900
v 0.15588200 0.03518790 0.26148900
v 0.14583100 0.01005750 0.26652900
v 0.13075400 0.02512100 0.28162100
v 0.12821900 0.01130660 0.27910100
v 0.10057800 0.01005750 0.29668800
v 0.09050470 -0.00189541 0.29794800
v 0.07544990 -0.00000940 0.30172700
v -0.02905210 -0.03018550 0.30172700
v -0.02905210 0.00111731 0.31455700
v -0.02905210 -0.07042850 0.28162100
v 0.13075400 0.03900890 0.28162100
v 0.14080500 0.03900890 0.27658200
v 0.14080500 0.03518790 0.27658200
f 51 73 75
f 51 75 74
f 52 76 77
f 52 77 78
f 53 80 81
f 56 82 57
f 57 82 58
f 58 77 76
f 58 76 59
f 49 51 74
f 52 79 76
f 59 83 62
f 58 78 77
f 59 62 60
f 59 76 84
f 59 84 83
f 62 83 63
f 63 83 85
f 63 85 86
f 63 86 87
f 63 87 88
f 63 88 64
f 48 51 49
f 64 88 87
f 58 82 78
f 60 62 61
f 42 65 43
f 46 47 51
f 64 87 89
f 35 57 58
f 35 58 59
f 35 59 60
f 35 60 61
f 35 61 36
f 36 61 38
f 37 54 55
f 38 61 62
f 38 62 42
f 38 42 41
f 42 62 63
f 42 63 64
f 42 64 65
f 43 65 44
f 44 65 66
f 44 66 67
f 44 67 68
f 44 68 69
f 44 69 70
f 44 70 45
f 45 70 71
f 45 71 72
f 45 72 73
f 45 73 47
f 47 73 51
f 64 89 90
f 90 106 93
f 64 91 92
f 93 107 108
f 93 108 94
f 93 106 105
f 93 105 107
f 94 108 95
f 95 108 109
f 95 109 96
f 96 110 112
f 96 112 97
f 96 109 111
f 96 111 110
f 90 92 91
f 97 112 98
f 100 109 108
f 100 108 107
f 100 107 105
f 100 105 101
f 101 105 113
f 102 114 115
f 102 115 103
f 103 115 104
f 104 115 105
f 105 115 114
f 35 56 57
f 100 111 109
f 90 93 92
f 90 105 106
f 90 104 105
f 64 92 66
f 64 66 65
f 66 92 93
f 66 93 94
f 66 94 67
f 67 94 68
f 68 95 96
f 68 96 97
f 68 97 69
f 105 114 113
f 69 97 98
f 69 98 70
f 70 72 71
f 72 75 73
f 76 79 84
f 80 99 81
f 81 99 111
f 81 111 100
f 81 100 101
f 83 84 85
f 86 102 103
f 86 103 87
f 87 103 104
f 87 104 90
f 87 90 89
f 64 90 91
f 35 55 56
f 68 94 95
f 34 54 37
f 4 12 13
f 4 13 14
f 4 14 5
f 5 14 24
f 5 24 39
f 5 39 25
f 5 25 15
f 6 16 18
f 6 18 10
f 7 17 8
f 7 10 18
f 4 11 12
f 7 18 19
f 7 20 17
f 11 21 12
f 12 21 13
f 13 22 14
f 14 23 24
f 14 22 23
f 15 25 40
f 15 40 26
f 15 26 27
f 15 27 28
f 15 28 29
f 7 19 20
f 3 21 11
f 3 13 21
f 3 22 13
f 35 37 55
f 1 2 3
f 1 3 4
f 1 4 5
f 1 5 15
f 1 15 29
f 1 29 16
f 1 16 6
f 1 6 2
f 2 7 8
f 2 8 9
f 2 9 3
f 2 6 10
f 2 10 7
f 3 11 4
f 3 9 8
f 3 8 17
f 3 17 32
f 3 52 78
f 3 78 82
f 3 82 56
f 3 56 55
f 3 55 54
f 3 54 34
f 3 34 22
f 16 30 18
f 16 29 46
f 3 32 52
f 16 31 30
f 27 41 42
f 27 42 43
f 27 43 44
f 27 44 45
f 27 45 28
f 28 46 29
f 28 45 47
f 28 47 46
f 30 31 48
f 30 48 49
f 30 49 50
f 30 50 33
f 31 46 51
f 31 51 48
f 32 53 81
f 32 101 113
f 32 113 114
f 32 114 102
f 32 102 86
f 32 86 85
f 32 85 84
f 32 84 79
f 32 79 52
f 16 46 31
f 33 50 49
f 27 38 41
f 27 40 38
f 32 81 101
f 25 38 40
f 17 19 33
f 26 40 27
f 17 20 19
f 17 33 49
f 17 49 74
f 17 74 75
f 17 75 72
f 17 70 98
f 17 98 112
f 17 112 110
f 17 110 111
f 17 111 99
f 17 99 80
f 17 72 70
f 17 53 32
f 24 38 39
f 17 80 53
f 24 36 38
f 25 39 38
f 23 37 35
f 23 36 24
f 23 34 37
f 22 34 23
f 19 30 33
f 18 30 19
f 23 35 36

