# https://github.com/mikedh/trimesh
v -0.09052190 0.09119640 -0.34848200
v -0.09052190 0.09119640 -0.33188600
v -0.09052190 0.10561700 -0.34848200
v 0.25611700 0.09119640 -0.34848200
v -0.09052190 0.10561700 -0.33188600
v -0.09018230 0.09119640 -0.28596800
v -0.06586870 0.15493400 -0.34848200
v 0.22249900 0.16190800 -0.34848200
v 0.25638800 0.25646600 -0.34699500
v 0.25638800 0.19614500 -0.34699500
v 0.25638800 0.18097100 -0.33940900
v 0.25638800 0.17602200 -0.33693200
v 0.25638800 0.15842100 -0.32436200
v 0.25638800 0.13942900 -0.29850800
v 0.25638800 0.12394900 -0.26828800
v 0.25638800 0.12069700 -0.25661500
v 0.25638800 0.12067300 -0.25646000
v 0.25611700 0.09119640 -0.31714700
v -0.08671870 0.11315700 -0.32436200
v -0.07164150 0.14334100 -0.32436200
v -0.01506830 0.22628200 -0.07545260
v -0.01129900 0.23384500 -0.06789770
v -0.07507120 0.09119640 -0.18038500
v -0.06535940 0.15590000 -0.33188600
v -0.06535940 0.15590000 -0.34848200
v 0.21621700 0.17100300 -0.34848200
v 0.21119100 0.25646600 -0.34699500
v 0.24891800 0.29419000 -0.32813900
v 0.25638800 0.27651800 -0.33696300
v 0.19085000 0.20656000 -0.34848200
v 0.16215600 0.22248800 -0.34848200
v 0.13169600 0.23759200 -0.34848200
v 0.12069400 0.24138500 -0.34848200
v 0.25638800 0.12067300 -0.21128600
v 0.24104000 0.09119640 -0.21153400
v -0.01506830 0.21122500 -0.04526400
v -0.01129900 0.21874200 -0.03774000
v -0.00562806 0.24138500 -0.06037380
v -0.00501682 0.24640400 -0.07545260
v -0.05038410 0.09119640 -0.09053140
v -0.00501682 0.24640400 -0.09053140
v -0.03517110 0.20116400 -0.34848200
v 0.21119100 0.27658800 -0.33693200
v 0.04378020 0.24138500 -0.34848200
v 0.24137900 0.29668700 -0.32687000
v 0.25638800 0.29791300 -0.31881900
v 0.25638800 0.14082000 -0.17100300
v 0.22596200 0.09119640 -0.13613900
v -0.00851445 0.21122500 -0.03216680
v -0.00297937 0.22430200 -0.03216680
v 0.01131680 0.24892600 -0.03774000
v 0.00377818 0.24892600 -0.05281890
v -0.01506830 0.18106500 -0.03216680
v 0.00503461 0.25144700 -0.06037380
v 0.04024860 0.27658800 -0.13579900
v -0.05004450 0.09119640 -0.08985020
v 0.04024860 0.27658800 -0.15087800
v 0.07043680 0.29166800 -0.21119300
v 0.10055700 0.30674900 -0.25646000
v 0.11312100 0.31304000 -0.26401500
v 0.02751450 0.23747400 -0.34848200
v 0.02849930 0.23796900 -0.34848200
v 0.15084800 0.30674900 -0.30674400
v 0.16592500 0.29166800 -0.32185400
v 0.23384100 0.29796000 -0.32436200
v 0.24137900 0.30173000 -0.31680700
v 0.25638800 0.29798300 -0.31869500
v 0.25638800 0.15278900 -0.16214800
v 0.20022300 0.09119640 -0.03216680
v 0.22219300 0.09119640 -0.12003900
v -0.00063630 0.22696500 -0.03216680
v 0.01410130 0.24336500 -0.03216680
v 0.02632600 0.25269600 -0.03216680
v 0.04024860 0.26652700 -0.05031090
v 0.01321840 0.25269600 -0.04526400
v -0.03564650 0.09119640 -0.06102400
v -0.03496740 0.09119640 -0.05969260
v -0.02087500 0.09119640 -0.03216680
v 0.03522290 0.26652700 -0.06037380
v 0.06035140 0.28665000 -0.13579900
v 0.05281290 0.28288000 -0.15843300
v 0.08296720 0.29796000 -0.21874800
v 0.11060900 0.31179100 -0.25646000
v 0.12069400 0.31681000 -0.25646000
v 0.16592500 0.33191400 -0.25646000
v 0.15838700 0.32812000 -0.26401500
v 0.14331000 0.31304000 -0.29417300
v 0.12069400 0.30738500 -0.28664900
v 0.15084800 0.31179100 -0.29668100
v 0.24137900 0.31681000 -0.28664900
v 0.16592500 0.32185200 -0.27658600
v 0.25638800 0.31306300 -0.28850700
v 0.25638800 0.16395800 -0.15471700
v 0.25638800 0.16410000 -0.15462400
v 0.25638800 0.21113100 -0.14329200
v 0.25638800 0.23009900 -0.14706900
v 0.18606200 0.18608400 -0.04024800
v 0.19954300 0.09395320 -0.03216680
v 0.02880490 0.25368500 -0.03216680
v 0.04354250 0.25696000 -0.03216680
v 0.04625910 0.25745500 -0.03216680
v 0.10055700 0.26652700 -0.05031090
v 0.04527430 0.27154600 -0.06037380
v 0.09050570 0.30173000 -0.16598700
v 0.11060900 0.31179100 -0.19611400
v 0.12069400 0.31681000 -0.19611400
v 0.16592500 0.33191400 -0.24138200
v 0.18103700 0.33191400 -0.24138200
v 0.15084800 0.31681000 -0.28664900
v 0.25638800 0.31681000 -0.27163200
v 0.25638800 0.25637100 -0.15462400
v 0.20113900 0.21624400 -0.07043660
v 0.17349800 0.21874200 -0.03774000
v 0.17237700 0.20257800 -0.03216680
v 0.09149050 0.25745500 -0.03216680
v 0.11060900 0.26148500 -0.04024800
v 0.10558300 0.27154600 -0.06037380
v 0.12069400 0.30173000 -0.13579900
v 0.15084800 0.31681000 -0.18106600
v 0.16592500 0.31681000 -0.18106600
v 0.19611400 0.31681000 -0.19611400
v 0.24137900 0.31681000 -0.22630300
v 0.25638800 0.31681000 -0.24138200
v 0.25638800 0.26400600 -0.15843300
v 0.14331000 0.24892600 -0.03774000
v 0.13777500 0.24336500 -0.03216680
v 0.16792900 0.21320400 -0.03216680
v 0.12711200 0.24781800 -0.03216680
v 0.12320700 0.25898700 -0.04275600
v 0.12823300 0.26400600 -0.05281890
v 0.17098500 0.30674900 -0.16094100
v 0.18857500 0.30927000 -0.17351100
v 0.21872900 0.30927000 -0.18859000
v 0.25638800 0.31308700 -0.22636500
v 0.25638800 0.31671600 -0.24091700
v 0.25638800 0.27159300 -0.16592600
v 0.24640500 0.27658800 -0.16094100
v 0.24640500 0.29166800 -0.17601900
v 0.18857500 0.29419000 -0.14335400
v 0.25638800 0.30476900 -0.20815900
v 0.25638800 0.28669700 -0.18100400
v 0.25638800 0.29419000 -0.18859000
f 60 88 62
f 69 93 94
f 68 93 69
f 67 90 92
f 66 90 67
f 65 85 90
f 65 89 91
f 65 90 66
f 63 89 65
f 62 87 63
f 62 88 87
f 60 62 61
f 69 94 95
f 65 91 85
f 63 87 89
f 74 115 102
f 69 96 97
f 80 103 104
f 80 105 81
f 80 104 105
f 138 142 140
f 79 103 80
f 75 103 79
f 69 95 96
f 74 103 75
f 74 102 117
f 74 101 115
f 74 100 101
f 74 99 100
f 73 99 74
f 69 97 98
f 74 117 103
f 60 87 88
f 53 76 77
f 60 85 86
f 51 73 74
f 51 72 73
f 51 71 72
f 50 71 51
f 49 71 50
f 49 72 71
f 51 74 75
f 49 73 72
f 49 100 99
f 49 101 100
f 49 115 101
f 49 128 115
f 49 126 128
f 81 105 83
f 49 99 73
f 60 86 87
f 51 75 52
f 53 77 78
f 60 84 85
f 60 83 84
f 59 83 60
f 59 82 83
f 57 59 58
f 57 82 59
f 52 75 54
f 57 83 82
f 55 81 57
f 55 80 81
f 54 80 55
f 54 79 80
f 54 75 79
f 53 56 76
f 57 81 83
f 83 105 106
f 115 128 116
f 84 106 107
f 116 125 129
f 116 129 130
f 116 130 131
f 116 131 117
f 117 131 120
f 117 120 118
f 118 120 119
f 120 131 132
f 120 132 121
f 121 132 133
f 121 133 122
f 122 133 134
f 122 134 135
f 122 135 123
f 124 136 137
f 124 137 125
f 125 130 129
f 49 127 126
f 138 141 142
f 137 141 138
f 136 141 137
f 133 139 138
f 133 140 134
f 116 128 125
f 133 138 140
f 130 132 131
f 130 139 132
f 130 138 139
f 125 138 130
f 125 137 138
f 125 128 126
f 132 139 133
f 113 124 125
f 113 127 114
f 113 126 127
f 97 113 114
f 97 112 113
f 97 111 112
f 96 111 97
f 90 108 110
f 90 110 92
f 97 114 98
f 89 109 91
f 85 87 86
f 85 109 87
f 85 91 109
f 85 108 90
f 85 107 108
f 84 107 85
f 87 109 89
f 83 106 84
f 102 115 116
f 103 117 118
f 113 125 126
f 111 113 112
f 111 124 113
f 108 123 110
f 108 122 123
f 108 121 122
f 102 116 117
f 108 120 121
f 107 119 120
f 106 119 107
f 106 118 119
f 104 106 105
f 103 106 104
f 103 118 106
f 107 120 108
f 49 114 127
f 9 16 15
f 49 69 98
f 4 13 14
f 4 14 15
f 4 15 16
f 4 16 17
f 4 17 34
f 4 34 18
f 5 19 20
f 5 20 7
f 5 6 21
f 5 21 22
f 5 22 19
f 6 23 21
f 7 20 24
f 7 24 25
f 8 26 9
f 9 27 28
f 9 28 29
f 9 111 96
f 9 124 111
f 9 136 124
f 9 141 136
f 9 142 141
f 9 140 142
f 4 12 13
f 9 134 140
f 9 123 135
f 9 110 123
f 9 92 110
f 9 67 92
f 9 46 67
f 9 29 46
f 9 135 134
f 9 96 95
f 4 11 12
f 4 9 10
f 49 98 114
f 1 2 5
f 1 5 3
f 1 3 7
f 1 7 25
f 1 25 42
f 1 42 61
f 1 61 62
f 1 62 44
f 1 44 33
f 1 32 31
f 1 31 30
f 1 30 26
f 1 26 8
f 1 8 4
f 1 4 18
f 1 18 35
f 4 8 9
f 3 5 7
f 2 6 5
f 1 6 2
f 1 23 6
f 1 40 23
f 4 10 11
f 1 56 40
f 1 77 76
f 1 78 77
f 1 69 78
f 1 70 69
f 1 48 70
f 1 35 48
f 1 76 56
f 9 95 94
f 1 33 32
f 9 93 68
f 37 49 50
f 37 50 51
f 37 51 52
f 37 52 38
f 37 40 53
f 37 53 49
f 38 52 39
f 39 52 54
f 39 54 55
f 39 55 57
f 39 57 41
f 40 56 53
f 41 57 42
f 42 57 58
f 42 58 59
f 42 59 60
f 42 60 61
f 49 78 69
f 9 94 93
f 49 53 78
f 47 70 48
f 47 69 70
f 47 68 69
f 36 40 37
f 45 64 63
f 45 66 67
f 45 65 66
f 44 64 45
f 44 63 64
f 44 62 63
f 43 44 45
f 45 67 46
f 34 48 35
f 45 63 65
f 28 43 45
f 9 47 34
f 34 47 48
f 9 34 17
f 9 17 16
f 9 14 13
f 9 13 12
f 9 12 11
f 9 11 10
f 9 26 30
f 9 30 31
f 9 31 32
f 9 32 33
f 9 33 44
f 9 44 27
f 18 34 35
f 9 15 14
f 20 22 24
f 28 46 29
f 28 45 46
f 19 22 20
f 27 44 43
f 27 43 28
f 25 41 42
f 24 41 25
f 24 39 41
f 9 68 47
f 22 39 24
f 22 36 37
f 23 40 36
f 22 37 38
f 21 23 36
f 21 36 22
f 22 38 39

