# https://github.com/mikedh/trimesh
v 0.29008700 -0.17521700 -0.52459100
v 0.29008700 -0.17521700 -0.53968600
v 0.26630500 -0.08594770 -0.33192300
v 0.25646700 -0.08594770 -0.22179000
v 0.25646700 -0.09052660 -0.22632500
v 0.24136100 -0.12070000 -0.18110500
v 0.23760400 -0.12258700 -0.16601100
v 0.22249800 -0.15275100 -0.15091600
v 0.21622300 -0.17097900 -0.16601100
v 0.21312500 -0.17521700 -0.16601100
v 0.28497400 -0.17521700 -0.55361400
v 0.25193500 -0.08594770 -0.51752900
v 0.25646700 -0.08594770 -0.49783500
v 0.26553000 -0.08594770 -0.43292100
v 0.26630500 -0.08594770 -0.42242600
v 0.22393100 -0.08594770 -0.04531800
v 0.22249800 -0.09241400 -0.04531800
v 0.22249800 -0.09806760 -0.05283290
v 0.20793400 -0.12233400 -0.03216680
v 0.20727600 -0.12366200 -0.03216680
v 0.18287400 -0.17521700 -0.04343920
v 0.18566300 -0.17521700 -0.05458210
v 0.28253400 -0.17521700 -0.55938000
v 0.26742800 -0.17521700 -0.58956900
v 0.24899100 -0.08594770 -0.52193500
v 0.22184000 -0.08594770 -0.03987610
v 0.21874100 -0.09430150 -0.03773820
v 0.21715300 -0.08594770 -0.03216680
v 0.17826500 -0.17521700 -0.03216680
v 0.18159600 -0.17521700 -0.03890430
v 0.18179000 -0.17521700 -0.03955220
v 0.25236100 -0.17521700 -0.60466400
v 0.26402000 -0.17349600 -0.59216100
v 0.18864500 -0.08594770 -0.59740800
v -0.04336500 -0.08594770 -0.03216680
v 0.00842094 -0.17521700 -0.03216680
v 0.22044500 -0.17521700 -0.63653800
v 0.21874100 -0.17349600 -0.63738000
v 0.15839500 -0.11315900 -0.65247500
v 0.15390200 -0.08594770 -0.62092500
v -0.04231920 -0.09397820 -0.03216680
v -0.05916810 -0.08594770 -0.07032460
v -0.00130103 -0.16728300 -0.03216680
v -0.00753704 -0.17349600 -0.04149570
v -0.00579405 -0.17521700 -0.04240270
v 0.18914900 -0.17521700 -0.65973000
v 0.18856800 -0.17349600 -0.66005400
v 0.15587700 -0.13578200 -0.66880000
v 0.15084200 -0.12070000 -0.66381200
v 0.13577500 -0.11567500 -0.66880000
v 0.12822200 -0.09806760 -0.65247500
v 0.15084200 -0.08594770 -0.62248000
v 0.10560200 -0.10058400 -0.66880000
v -0.03720650 -0.11162900 -0.03216680
v -0.06033010 -0.09052660 -0.07544260
v -0.05657300 -0.10561700 -0.07356380
v -0.04146710 -0.12070000 -0.04343920
v -0.07427390 -0.08594770 -0.11560900
v -0.01640690 -0.15219200 -0.03216680
v -0.02089990 -0.17521700 -0.07252730
v -0.02260420 -0.15840500 -0.04149570
v -0.03771000 -0.17349600 -0.10187400
v 0.18686400 -0.17521700 -0.66089700
v 0.15475400 -0.17521700 -0.67696300
v 0.12066900 -0.16595500 -0.69400100
v 0.15084200 -0.16595500 -0.67890700
v 0.15839500 -0.15840500 -0.67508400
v 0.14328900 -0.12824100 -0.67508400
v 0.12066900 -0.09430150 -0.65059600
v 0.10560200 -0.08594770 -0.63958300
v 0.11311600 -0.11315900 -0.67508400
v 0.10560200 -0.12070000 -0.67890700
v 0.09053480 -0.10058400 -0.66880000
v 0.10560200 -0.09555100 -0.65875900
v -0.03414660 -0.12027100 -0.03216680
v -0.03771000 -0.12824100 -0.04149570
v -0.07539720 -0.09052660 -0.12072700
v -0.04146710 -0.13578200 -0.05846910
v -0.07164010 -0.10561700 -0.11884800
v -0.05657300 -0.13578200 -0.10375300
v -0.08786920 -0.08594770 -0.16465000
v -0.02640000 -0.13965300 -0.03216680
v -0.03596700 -0.17521700 -0.10271700
v -0.03771000 -0.14332300 -0.05659040
v -0.05277710 -0.14332300 -0.10187400
v -0.05529480 -0.14584000 -0.11567400
v -0.04030510 -0.17521700 -0.11476700
v 0.12066900 -0.17521700 -0.69400100
v 0.10560200 -0.15086400 -0.69400100
v 0.12822200 -0.15840500 -0.69017900
v 0.13577500 -0.15086400 -0.68454300
v 0.11311600 -0.14332300 -0.69017900
v 0.12066900 -0.13578200 -0.68454300
v 0.09053480 -0.08594770 -0.63958300
v 0.09053480 -0.12070000 -0.67890700
v 0.06036180 -0.08594770 -0.63595500
v 0.08298190 -0.09430150 -0.65623200
v 0.09053480 -0.09555100 -0.65875900
v 0.07546770 -0.11881200 -0.67508400
v 0.06791480 -0.11692500 -0.67132700
v -0.01900200 -0.08594770 -0.60738500
v 0.00210747 -0.08594770 -0.61645500
v -0.03399160 -0.12070000 -0.03216680
v -0.08674590 -0.09052660 -0.16413200
v -0.07164010 -0.12070000 -0.13394300
v -0.06788300 -0.12824100 -0.13206400
v -0.09050300 -0.08594770 -0.17650600
v -0.07040060 -0.13074900 -0.14586300
v -0.07040060 -0.14584000 -0.17605200
v -0.05529480 -0.16092200 -0.14586300
v -0.05541100 -0.17521700 -0.17508100
v 0.09053480 -0.17521700 -0.69400100
v 0.09053480 -0.15086400 -0.69400100
v 0.07546770 -0.08594770 -0.63906400
v 0.08046420 -0.14584000 -0.68894800
v 0.05280890 -0.13200700 -0.67132700
v 0.03774180 -0.11692500 -0.65623200
v -0.03519240 -0.08594770 -0.59339200
v 0.05029130 -0.14584000 -0.67385300
v 0.04025940 -0.15589700 -0.66880000
v -0.09050300 -0.09052660 -0.18110500
v -0.07539720 -0.12070000 -0.15091600
v -0.10560900 -0.08594770 -0.29719900
v -0.07539720 -0.15086400 -0.21123000
v -0.07040060 -0.16092200 -0.20624200
v -0.06180190 -0.17521700 -0.20617700
v 0.08127760 -0.17521700 -0.69212300
v 0.07740430 -0.17521700 -0.69115100
v 0.07546770 -0.16406700 -0.69017900
v 0.06791480 -0.16218000 -0.68642200
v -0.10347900 -0.08594770 -0.46557300
v 0.02515360 -0.17097900 -0.65370600
v -0.03519240 -0.09555100 -0.59339200
v 0.06036180 -0.16784200 -0.68266400
v 0.05919980 -0.17521700 -0.68208100
v 0.04025940 -0.17521700 -0.66880000
v -0.10560900 -0.09052660 -0.30179800
v -0.09050300 -0.10561700 -0.21123000
v -0.10560900 -0.08594770 -0.45255100
v -0.09050300 -0.13578200 -0.27160900
v -0.07078800 -0.17521700 -0.25185000
v 0.07136200 -0.17521700 -0.68817100
v -0.09805600 -0.09806760 -0.47522500
v -0.10309100 -0.08801000 -0.46511900
v -0.10560900 -0.09052660 -0.45255100
v 0.02515360 -0.17521700 -0.65370600
v -0.03771000 -0.11315900 -0.58082300
v -0.10560900 -0.10561700 -0.33192300
v -0.09050300 -0.15086400 -0.33192300
v -0.08546770 -0.16092200 -0.32693500
v -0.07686900 -0.17521700 -0.31760600
v -0.09050300 -0.13578200 -0.46764600
v -0.10560900 -0.10561700 -0.42242600
v -0.06753440 -0.17521700 -0.47483700
v -0.08043250 -0.15589700 -0.47269900
v -0.07834090 -0.17521700 -0.33483800
v -0.09050300 -0.15086400 -0.43752100
v -0.08295010 -0.15840500 -0.46013100
v -0.07834090 -0.17521700 -0.44037100
v -0.08043250 -0.17097900 -0.44250900
f 73 97 98
f 80 106 85
f 80 105 106
f 79 104 105
f 78 80 84
f 77 104 79
f 77 81 104
f 76 82 103
f 75 76 103
f 73 102 96
f 73 96 97
f 73 100 101
f 73 99 100
f 73 95 99
f 80 85 84
f 76 78 84
f 73 101 102
f 89 92 90
f 85 106 86
f 100 117 101
f 72 113 95
f 101 117 116
f 100 116 117
f 100 115 116
f 99 115 100
f 99 113 115
f 96 114 97
f 95 113 99
f 94 97 114
f 94 98 97
f 87 110 111
f 86 110 87
f 86 125 110
f 86 109 125
f 86 108 109
f 86 106 108
f 81 107 104
f 72 89 113
f 62 87 83
f 71 92 89
f 61 84 62
f 61 76 84
f 61 82 76
f 60 62 83
f 59 82 61
f 58 81 77
f 57 78 76
f 62 85 86
f 56 80 78
f 56 79 105
f 56 78 57
f 55 79 56
f 55 77 79
f 55 58 77
f 101 116 119
f 54 76 75
f 56 105 80
f 71 89 72
f 62 86 87
f 64 88 65
f 71 93 92
f 70 98 94
f 70 74 98
f 69 74 70
f 68 93 71
f 68 92 93
f 68 90 92
f 62 84 85
f 68 91 90
f 67 90 91
f 65 67 66
f 65 90 67
f 65 89 90
f 65 113 89
f 65 112 113
f 65 88 112
f 67 91 68
f 101 119 120
f 131 143 144
f 104 107 121
f 143 145 144
f 143 152 145
f 141 150 151
f 141 149 150
f 140 149 141
f 140 148 149
f 138 148 140
f 143 147 152
f 134 142 135
f 133 146 147
f 131 133 143
f 131 145 139
f 131 144 145
f 130 142 134
f 129 142 130
f 128 142 129
f 133 147 143
f 125 141 126
f 145 152 153
f 146 155 147
f 54 57 76
f 157 160 159
f 157 158 160
f 154 158 155
f 154 160 158
f 154 159 160
f 152 157 153
f 146 154 155
f 152 158 157
f 150 156 151
f 149 159 156
f 149 157 159
f 149 156 150
f 148 157 149
f 148 153 157
f 147 155 152
f 152 155 158
f 101 120 118
f 125 140 141
f 124 138 140
f 115 129 130
f 113 129 115
f 113 128 129
f 113 127 128
f 112 127 113
f 111 125 126
f 110 125 111
f 115 130 119
f 109 124 125
f 108 122 124
f 107 137 121
f 107 123 137
f 105 108 106
f 105 122 108
f 104 122 105
f 104 121 122
f 108 124 109
f 124 140 125
f 115 119 116
f 118 132 146
f 123 148 137
f 123 153 148
f 123 145 153
f 123 139 145
f 122 138 124
f 121 138 122
f 121 148 138
f 118 120 132
f 121 137 148
f 120 136 146
f 120 135 136
f 120 134 135
f 119 134 120
f 119 130 134
f 118 133 131
f 118 146 133
f 120 146 132
f 53 74 69
f 47 64 65
f 53 73 98
f 3 70 94
f 3 52 70
f 3 40 52
f 3 34 40
f 3 25 34
f 3 12 25
f 3 13 12
f 3 94 114
f 3 14 13
f 2 14 15
f 2 13 14
f 2 12 13
f 2 11 12
f 1 11 2
f 1 23 11
f 1 24 23
f 3 15 14
f 1 32 24
f 3 114 96
f 3 102 101
f 5 17 6
f 5 16 17
f 4 16 5
f 3 16 4
f 3 26 16
f 3 28 26
f 3 35 28
f 3 96 102
f 3 42 35
f 3 81 58
f 3 107 81
f 3 123 107
f 3 139 123
f 3 131 139
f 3 118 131
f 3 101 118
f 3 58 42
f 6 17 18
f 1 37 32
f 1 63 46
f 1 29 36
f 1 30 29
f 1 31 30
f 1 21 31
f 1 22 21
f 1 10 22
f 1 9 10
f 1 36 45
f 1 8 9
f 1 6 7
f 1 5 6
f 1 4 5
f 1 3 4
f 1 15 3
f 1 2 15
f 53 98 74
f 1 7 8
f 1 46 37
f 1 45 60
f 1 83 87
f 1 64 63
f 1 88 64
f 1 112 88
f 1 127 112
f 1 128 127
f 1 135 142
f 1 136 135
f 1 60 83
f 1 146 136
f 1 159 154
f 1 156 159
f 1 151 156
f 1 141 151
f 1 126 141
f 1 111 126
f 1 87 111
f 1 154 146
f 6 18 7
f 1 142 128
f 8 18 19
f 42 58 55
f 41 57 54
f 41 56 57
f 41 55 56
f 41 42 55
f 40 53 52
f 40 51 53
f 39 51 40
f 39 53 51
f 39 50 53
f 39 49 50
f 38 49 39
f 38 48 49
f 38 47 48
f 37 47 38
f 43 59 44
f 44 60 45
f 44 59 61
f 44 61 62
f 53 95 73
f 7 18 8
f 53 72 95
f 53 71 72
f 53 68 71
f 52 69 70
f 52 53 69
f 37 46 47
f 50 68 53
f 48 68 49
f 47 68 48
f 47 67 68
f 47 66 67
f 47 65 66
f 47 63 64
f 46 63 47
f 49 68 50
f 36 44 45
f 44 62 60
f 35 42 41
f 19 41 54
f 19 35 41
f 19 28 35
f 19 27 28
f 17 19 18
f 17 26 27
f 16 26 17
f 19 54 75
f 12 24 25
f 11 23 12
f 9 22 10
f 9 21 22
f 8 21 9
f 36 43 44
f 8 20 21
f 8 19 20
f 12 23 24
f 19 75 103
f 17 27 19
f 19 82 59
f 34 39 40
f 33 38 39
f 19 103 82
f 32 38 33
f 32 37 38
f 26 28 27
f 24 33 25
f 24 32 33
f 20 31 21
f 25 33 34
f 20 30 31
f 20 29 30
f 19 29 20
f 19 36 29
f 19 43 36
f 19 59 43
f 33 39 34

