# https://github.com/mikedh/trimesh
v 0.20171700 0.16067700 -0.14343900
v 0.17758600 0.20895400 -0.14343900
v 0.08845000 0.16067700 -0.14343900
v 0.20171700 0.16067700 -0.15273900
v 0.16572200 0.23265100 -0.14343900
v 0.17758600 0.20895400 -0.19849300
v 0.08119750 0.16067700 -0.16712200
v -0.13885300 0.33121300 -0.14343900
v -0.13972200 0.33035600 -0.14563000
v -0.13972200 0.32840100 -0.14922600
v -0.13972200 0.32122500 -0.16716400
v -0.13972200 0.21781700 -0.56563900
v -0.10132000 0.19406700 -0.56563900
v 0.18801400 0.18804200 -0.18807700
v 0.18604200 0.16067700 -0.31541900
v 0.14703900 0.26518300 -0.14343900
v 0.16712500 0.22983900 -0.17762000
v 0.17758600 0.17760000 -0.32385100
v 0.14623700 0.20895400 -0.44916700
v 0.14623700 0.24028200 -0.29252200
v -0.03531150 0.16067700 -0.56208500
v -0.13972200 0.33220300 -0.14343900
v -0.13972200 0.37606200 -0.56563900
v -0.03531150 0.16067700 -0.56563900
v 0.15469200 0.16067700 -0.53472300
v 0.14623700 0.17760000 -0.54319600
v 0.14035400 0.27632200 -0.14343900
v 0.13577600 0.26116700 -0.27164900
v 0.11488700 0.24028200 -0.51186700
v 0.10445900 0.26116700 -0.49095300
v 0.13577600 0.22983900 -0.42829500
v -0.13972200 0.43421900 -0.14343900
v -0.13972200 0.39890200 -0.44722500
v -0.09557120 0.37606200 -0.56563900
v 0.14687200 0.16067700 -0.56563900
v 0.14877700 0.16067700 -0.56138200
v 0.14834200 0.16067700 -0.56328300
v 0.13684500 0.18073200 -0.56563900
v 0.10967300 0.23506100 -0.54059200
v 0.10445900 0.32382300 -0.14343900
v 0.10445900 0.32382300 -0.14629100
v 0.10445900 0.29252200 -0.33430800
v 0.08357040 0.27161000 -0.54319600
v 0.07310940 0.29252200 -0.52232400
v -0.03133420 0.40337300 -0.14343900
v -0.06265060 0.40739000 -0.25073600
v -0.09400040 0.40739000 -0.31343500
v -0.12535000 0.40739000 -0.37605200
v -0.13972200 0.40739000 -0.39043600
v -0.13972200 0.40315900 -0.42387300
v -0.09400040 0.37606200 -0.56411000
v -0.09400040 0.37571400 -0.56563900
v 0.14102300 0.17237800 -0.56563900
v 0.10445900 0.22983900 -0.56563900
v -0.00573303 0.39108300 -0.14343900
v 0.07310940 0.32382300 -0.33430800
v 0.04175960 0.35517700 -0.24027900
v 0.07832320 0.26638800 -0.56563900
v 0.05954000 0.28521200 -0.56563900
v 0.04700680 0.29771600 -0.56563900
v 0.05222060 0.30293700 -0.54319600
v 0.02090430 0.33426500 -0.48053800
v -0.01686250 0.39775100 -0.14343900
v -0.04176190 0.39694700 -0.26119200
v -0.06265060 0.37606200 -0.50141000
v -0.04176190 0.36562000 -0.51186700
v -0.09085870 0.37448200 -0.56563900
v 0.02090430 0.36562000 -0.26119200
v 0.05222060 0.33426500 -0.35518000
v -0.00155528 0.32984700 -0.56563900
v -0.07067190 0.36623500 -0.56563900
f 30 42 31
f 32 45 46
f 32 46 47
f 32 47 48
f 32 48 49
f 33 50 34
f 40 41 55
f 34 50 51
f 35 53 37
f 37 53 38
f 38 54 39
f 39 54 43
f 41 42 44
f 34 51 52
f 30 44 42
f 26 39 29
f 29 43 30
f 19 30 31
f 41 44 56
f 19 31 28
f 19 28 20
f 23 33 34
f 25 36 26
f 30 43 44
f 26 36 37
f 26 38 39
f 27 28 41
f 27 41 40
f 28 31 42
f 28 42 41
f 29 39 43
f 26 37 38
f 41 56 57
f 51 65 66
f 43 54 58
f 56 68 57
f 56 62 69
f 56 69 68
f 57 68 63
f 60 70 61
f 61 66 62
f 55 57 63
f 61 70 66
f 62 68 69
f 63 68 64
f 64 68 66
f 66 70 71
f 66 71 67
f 19 29 30
f 62 66 68
f 41 57 55
f 51 67 52
f 48 50 49
f 43 58 44
f 44 58 59
f 44 59 60
f 44 60 61
f 44 61 62
f 44 62 56
f 51 66 67
f 45 63 46
f 46 66 65
f 46 65 51
f 46 51 47
f 46 63 64
f 47 51 48
f 48 51 50
f 46 64 66
f 19 26 29
f 12 70 60
f 17 28 27
f 4 15 14
f 4 14 6
f 3 13 7
f 3 12 13
f 3 11 12
f 3 10 11
f 3 9 10
f 3 8 9
f 2 6 5
f 1 6 2
f 1 4 6
f 1 15 4
f 1 25 15
f 1 36 25
f 1 37 36
f 1 35 37
f 1 24 35
f 1 2 5
f 1 5 16
f 1 16 27
f 1 27 40
f 1 40 55
f 1 55 63
f 5 6 17
f 1 63 45
f 1 32 22
f 1 22 8
f 1 8 3
f 18 26 19
f 1 7 21
f 1 21 24
f 1 45 32
f 5 17 16
f 1 3 7
f 6 15 18
f 6 14 15
f 16 17 27
f 15 26 18
f 15 25 26
f 13 24 21
f 12 24 13
f 12 53 35
f 12 38 53
f 12 54 38
f 12 58 54
f 12 59 58
f 12 60 59
f 12 71 70
f 12 67 71
f 12 52 67
f 12 35 24
f 12 23 34
f 6 18 19
f 12 34 52
f 6 19 20
f 6 20 28
f 6 28 17
f 8 22 9
f 9 22 32
f 7 13 21
f 9 49 50
f 9 50 33
f 9 11 10
f 9 33 23
f 9 23 12
f 9 32 49
f 9 12 11

