# https://github.com/mikedh/trimesh
v 0.21427600 -0.26093900 0.68938700
v 0.20914800 -0.26093900 0.70985400
v 0.19847500 -0.29251600 0.68938700
v 0.21427600 -0.26093900 0.55385000
v 0.20897400 -0.26093900 0.71036300
v 0.20890500 -0.26117200 0.71027900
v 0.20367300 -0.27423900 0.70509800
v 0.18801000 -0.28599300 0.71291100
v 0.06267650 -0.41132600 0.71291100
v 0.07310660 -0.41784800 0.68938700
v 0.19847500 -0.29251600 0.56404000
v 0.21153800 -0.26640300 0.54841400
v 0.19857900 -0.26093900 0.28209500
v 0.18801000 -0.26093900 0.71851600
v 0.17782300 -0.26093900 0.72080900
v 0.03135180 -0.40740800 0.72080900
v 0.00002701 -0.44266900 0.71291100
v 0.04697950 -0.43091500 0.70509800
v 0.03135180 -0.43875100 0.68938700
v 0.07310660 -0.41784800 0.65805100
v 0.13579100 -0.35518200 0.37602000
v 0.16711600 -0.32385900 0.40735700
v 0.19847500 -0.26117200 0.28209500
v 0.19851000 -0.26093900 0.28133000
v 0.14646300 -0.26093900 0.72080900
v -0.03133240 -0.43875100 0.72080900
v -0.03133240 -0.45963300 0.71027900
v -0.01563540 -0.46223800 0.70509800
v 0.03135180 -0.43875100 0.65805100
v 0.04178180 -0.41784800 0.37602000
v 0.10443100 -0.38650500 0.47003000
v 0.10443100 -0.35518200 0.09407400
v 0.13579100 -0.32385900 0.09407400
v 0.16711600 -0.29251600 0.15674700
v 0.16711600 -0.26117200 -0.03127310
v 0.16725400 -0.26093900 -0.03127310
v 0.11122300 -0.26093900 0.71291100
v -0.13972200 -0.41935200 0.71588400
v -0.09401660 -0.40740800 0.72080900
v -0.13972200 -0.43875100 0.72080900
v -0.13972200 -0.45491000 0.71715700
v -0.13972200 -0.46622000 0.71155200
v -0.13972200 -0.47727500 0.68938700
v -0.03133240 -0.47007400 0.68938700
v 0.00002701 -0.43875100 0.37602000
v 0.01045710 -0.41784800 0.18808400
v 0.04178180 -0.38650500 0.03140040
v 0.07310660 -0.38650500 0.21942100
v 0.07310660 -0.35518200 -0.09394660
v 0.10443100 -0.32385900 -0.14676900
v 0.13579100 -0.29251600 -0.12528300
v 0.16715000 -0.26093900 -0.03203740
v 0.10865900 -0.26093900 0.70781600
v -0.13972200 -0.39891500 0.68938700
v -0.11751000 -0.39173600 0.70509800
v -0.10444700 -0.38650500 0.71027900
v -0.13972200 -0.41028800 0.71223200
v -0.13972200 -0.47727500 0.65805100
v -0.06265720 -0.47007400 0.47003000
v -0.03133240 -0.43875100 0.18808400
v 0.02092170 -0.39696700 0.03140040
v 0.01045710 -0.38650500 -0.12528300
v -0.01497700 -0.39459500 -0.14676900
v 0.13669200 -0.28537900 -0.14676900
v 0.14885400 -0.26640300 -0.14099400
v 0.15159200 -0.26093900 -0.13555900
v 0.10457000 -0.26093900 0.68938700
v 0.08357130 -0.27161300 0.68938700
v -0.13972200 -0.38324300 0.56404000
v -0.09401660 -0.47007400 0.34468300
v -0.13972200 -0.47007400 0.23640600
v -0.12534100 -0.47007400 0.25075800
v -0.06265720 -0.43875100 0.06273720
v -0.03133240 -0.40740800 -0.12528300
v -0.01043770 -0.39696700 -0.12528300
v -0.02201120 -0.39874600 -0.14676900
v 0.14452300 -0.27214200 -0.14676900
v 0.14733000 -0.26093900 -0.14676900
v 0.14746800 -0.26093900 -0.14642900
v 0.07546290 -0.26093900 0.50136700
v -0.13972200 -0.37606400 0.48701500
v -0.13972200 -0.43875100 -0.10829900
v -0.12534100 -0.43875100 -0.09394660
v -0.09401660 -0.43875100 -0.03127310
v -0.13972200 -0.43496100 -0.14158900
v -0.02862960 -0.40205000 -0.14676900
v 0.01059570 -0.26093900 -0.14676900
v 0.01059570 -0.26093900 -0.09394660
v -0.11809900 -0.31875500 -0.14676900
v -0.12471800 -0.32205900 -0.14676900
v -0.13972200 -0.34474100 0.04838510
v -0.13972200 -0.43335100 -0.14676900
v -0.13175200 -0.32621000 -0.14676900
v -0.13972200 -0.33150500 -0.14676900
f 45 60 46
f 50 62 63
f 46 60 61
f 46 61 47
f 47 61 62
f 45 59 60
f 47 62 49
f 49 62 50
f 50 63 76
f 50 90 89
f 50 86 92
f 50 92 94
f 50 94 93
f 50 93 90
f 50 89 87
f 50 87 78
f 50 78 77
f 44 59 45
f 50 77 64
f 50 76 86
f 44 58 59
f 38 40 39
f 38 41 40
f 50 64 51
f 36 51 52
f 37 53 54
f 37 54 55
f 37 55 56
f 37 56 57
f 37 57 38
f 38 54 69
f 38 69 81
f 38 81 91
f 38 91 94
f 38 94 92
f 38 92 85
f 38 85 82
f 38 82 71
f 38 71 58
f 38 58 43
f 38 43 42
f 38 42 41
f 43 58 44
f 51 64 65
f 74 84 83
f 52 65 66
f 71 82 83
f 71 83 72
f 72 83 84
f 72 84 73
f 73 84 74
f 35 51 36
f 74 83 85
f 74 85 86
f 74 86 76
f 74 76 75
f 80 88 89
f 80 89 90
f 80 90 81
f 81 90 91
f 82 85 83
f 85 92 86
f 87 89 88
f 90 93 91
f 91 93 94
f 70 72 73
f 68 81 69
f 68 80 81
f 67 80 68
f 53 67 68
f 53 68 54
f 54 57 55
f 54 68 69
f 55 57 56
f 58 70 59
f 58 71 72
f 58 72 70
f 59 70 73
f 51 65 52
f 59 73 60
f 60 74 75
f 60 75 61
f 61 75 62
f 62 75 76
f 62 76 63
f 64 77 65
f 65 77 78
f 65 78 79
f 65 79 66
f 60 73 74
f 34 51 35
f 38 57 54
f 33 50 51
f 3 7 8
f 3 8 9
f 3 9 10
f 3 10 20
f 3 20 21
f 3 21 11
f 4 11 12
f 4 12 13
f 5 14 8
f 5 8 6
f 6 8 7
f 8 14 15
f 8 15 9
f 9 15 16
f 9 16 17
f 9 17 18
f 9 18 10
f 10 18 19
f 10 19 29
f 2 7 3
f 2 6 7
f 2 5 6
f 1 5 2
f 1 2 3
f 1 3 11
f 33 51 34
f 1 4 13
f 1 13 24
f 1 24 36
f 1 36 52
f 1 52 66
f 1 66 79
f 10 29 20
f 1 79 78
f 1 87 88
f 1 88 80
f 1 80 67
f 1 67 53
f 1 53 37
f 1 37 25
f 1 25 15
f 1 15 14
f 1 14 5
f 1 78 87
f 11 21 22
f 1 11 4
f 11 23 12
f 25 37 38
f 25 38 39
f 26 40 41
f 26 41 42
f 26 42 27
f 27 42 28
f 28 42 43
f 28 43 44
f 28 44 29
f 29 44 45
f 30 45 46
f 30 46 47
f 30 47 48
f 30 48 31
f 31 48 32
f 32 48 47
f 32 47 49
f 32 50 33
f 11 22 23
f 23 36 24
f 23 35 36
f 32 49 50
f 22 34 23
f 23 34 35
f 15 25 39
f 15 39 40
f 15 40 26
f 15 26 16
f 16 26 17
f 17 27 28
f 17 28 18
f 17 26 27
f 13 23 24
f 19 28 29
f 22 33 34
f 18 28 19
f 21 33 22
f 21 32 33
f 12 23 13
f 20 31 21
f 20 30 31
f 20 45 30
f 20 29 45
f 21 31 32

