# https://github.com/mikedh/trimesh
v 0.25445100 -0.09401860 -0.31337900
v 0.25445100 -0.08622360 -0.34472000
v 0.28205400 -0.09401860 -0.31337900
v 0.25445100 -0.09401860 -0.21938000
v 0.25445100 -0.08615910 -0.34487000
v 0.29250200 -0.08356080 -0.33427300
v 0.29623700 -0.09086190 -0.31337900
v 0.29623700 -0.09401860 -0.29919900
v 0.29623700 -0.09401860 -0.21938000
v 0.25445100 -0.07312450 -0.17759100
v 0.25445100 -0.07834270 -0.36040300
v 0.25855400 -0.07834270 -0.36040300
v 0.29623700 -0.08394730 -0.33114100
v 0.29623700 -0.07982440 -0.33615200
v 0.29623700 -0.07312450 -0.17759100
v 0.29623700 -0.04276050 -0.15712300
v 0.29623700 -0.03133650 -0.15138600
v 0.25445100 -0.05223050 -0.16714400
v 0.25445100 -0.05521540 -0.38352700
v 0.29623700 -0.05409870 -0.36188100
v 0.25855400 -0.04699090 -0.39171900
v 0.29623700 -0.01005590 -0.14960700
v 0.25445100 -0.03133650 -0.15672200
v 0.25445100 -0.04699090 -0.39171900
v 0.29250200 -0.05223050 -0.36561400
v 0.29623700 -0.05072730 -0.36411100
v 0.25445100 -0.03133650 -0.39963600
v 0.25463500 -0.03133650 -0.39956100
v 0.29250200 0.00001534 -0.38650800
v 0.29623700 0.03132420 -0.14960700
v 0.25445100 0.03132420 -0.15672200
v 0.29623700 -0.03133650 -0.37055000
v 0.25445100 -0.02983330 -0.39993700
v 0.25445100 0.00001534 -0.40554900
v 0.29250200 0.03132420 -0.38650800
v 0.29623700 0.00001534 -0.37904300
v 0.29623700 0.06267600 -0.15729800
v 0.25445100 0.03559750 -0.15777400
v 0.25445100 0.03506060 -0.40554900
v 0.26638700 0.04700010 -0.39956100
v 0.29623700 0.06267600 -0.36719200
v 0.29623700 0.03132420 -0.37904300
v 0.29623700 0.07790090 -0.16644300
v 0.27422500 0.07833040 -0.17238000
v 0.25445100 0.05612650 -0.16616700
v 0.25445100 0.05097270 -0.39758200
v 0.25445100 0.07186680 -0.38525600
v 0.28205400 0.06267600 -0.37606100
v 0.29623700 0.07684870 -0.35479100
v 0.29623700 0.08425720 -0.17280600
v 0.25445100 0.07446510 -0.17626400
v 0.25445100 0.10579500 -0.20760500
v 0.25445100 0.07435770 -0.38214900
v 0.29623700 0.07908200 -0.35218600
v 0.29623700 0.11659700 -0.22303800
v 0.25445100 0.12535800 -0.25072100
v 0.25445100 0.11565200 -0.31823900
v 0.26638700 0.10968200 -0.32122000
v 0.29623700 0.08498730 -0.34213900
v 0.29623700 0.12130000 -0.23451200
v 0.29623700 0.12535800 -0.25072100
v 0.25445100 0.12535800 -0.27830400
v 0.25445100 0.11752000 -0.31357900
v 0.29623700 0.12106300 -0.27003700
f 22 30 31
f 22 31 23
f 26 29 32
f 27 33 28
f 28 33 29
f 29 35 42
f 29 34 39
f 29 39 35
f 29 36 32
f 29 42 36
f 21 26 25
f 29 33 34
f 21 29 26
f 11 19 12
f 21 27 28
f 21 24 27
f 20 25 26
f 20 21 25
f 19 24 21
f 17 23 18
f 17 22 23
f 12 21 20
f 12 19 21
f 12 20 14
f 10 17 18
f 10 16 17
f 30 37 31
f 21 28 29
f 31 37 38
f 57 63 64
f 35 40 41
f 10 15 16
f 61 64 63
f 58 64 59
f 57 64 58
f 56 61 62
f 56 60 61
f 55 60 56
f 54 58 59
f 53 58 54
f 53 57 58
f 52 55 56
f 50 55 52
f 47 49 48
f 35 39 40
f 47 54 49
f 44 52 51
f 44 50 52
f 44 51 45
f 43 50 44
f 41 48 49
f 40 48 41
f 40 47 48
f 40 46 47
f 39 46 40
f 37 45 38
f 37 44 45
f 37 43 44
f 35 41 42
f 47 53 54
f 7 9 8
f 61 63 62
f 7 16 15
f 1 5 2
f 1 11 5
f 1 19 11
f 1 24 19
f 1 27 24
f 1 33 27
f 1 34 33
f 1 39 34
f 1 46 39
f 1 47 46
f 1 53 47
f 1 57 53
f 1 63 57
f 2 5 6
f 1 62 63
f 1 52 56
f 1 51 52
f 1 45 51
f 1 38 45
f 1 31 38
f 1 23 31
f 1 18 23
f 1 10 18
f 1 4 10
f 1 9 4
f 1 3 8
f 1 2 3
f 7 15 9
f 1 56 62
f 2 6 3
f 1 8 9
f 3 7 8
f 7 17 16
f 3 6 7
f 7 22 17
f 7 37 30
f 7 43 37
f 7 50 43
f 7 55 50
f 7 60 55
f 7 61 60
f 7 64 61
f 7 59 64
f 7 54 59
f 7 49 54
f 7 41 49
f 7 30 22
f 7 36 42
f 7 42 41
f 4 9 15
f 4 15 10
f 5 12 6
f 6 13 7
f 6 12 14
f 5 11 12
f 7 13 14
f 7 14 20
f 7 20 26
f 7 32 36
f 6 14 13
f 7 26 32

