# https://github.com/mikedh/trimesh
v -0.33372000 0.24048700 -0.44074600
v -0.33410300 0.24048700 -0.40743300
v -0.33372000 0.13246500 -0.60328400
v -0.33372000 0.24048700 -0.72080900
v -0.34352200 0.24048700 -0.37489000
v -0.33652800 0.12966600 -0.60328400
v -0.33372000 0.12970900 -0.60878400
v -0.33372000 0.23038700 -0.72080900
v -0.38630400 0.24048700 -0.72080900
v -0.34474700 0.24048700 -0.37405000
v -0.46451600 0.12966600 -0.36294500
v -0.33379600 0.12966600 -0.60874900
v -0.33372000 0.12966600 -0.67218800
v -0.34474700 0.21937500 -0.72080900
v -0.33372000 0.21937500 -0.71835700
v -0.43876000 0.18803300 -0.72080900
v -0.40741400 0.24048700 -0.71611500
v -0.35084800 0.24048700 -0.36998600
v -0.36366200 0.24048700 -0.36294500
v -0.59447100 0.12966600 -0.36294500
v -0.33372000 0.12966600 -0.68945700
v -0.43876000 0.12966600 -0.72080900
v -0.43393600 0.12966600 -0.71972300
v -0.47008100 0.15670100 -0.72080900
v -0.42158100 0.24048700 -0.71296200
v -0.53741900 0.24048700 -0.36294500
v -0.59214800 0.14013500 -0.36294500
v -0.59447100 0.12966600 -0.37226300
v -0.47008100 0.12966600 -0.72080900
v -0.50099300 0.12966600 -0.71306800
v -0.49096200 0.16714900 -0.71033500
v -0.47008100 0.19194900 -0.71296200
v -0.48575400 0.22720800 -0.64244800
v -0.47689700 0.24048700 -0.63358500
v -0.53882300 0.23856700 -0.36294500
v -0.53535200 0.24048700 -0.39394600
v -0.54321400 0.22982300 -0.43878400
v -0.58609800 0.15227500 -0.36294500
v -0.56409400 0.18803300 -0.43878400
v -0.59329600 0.12966600 -0.40743300
v -0.50132500 0.12966600 -0.71292700
v -0.48575400 0.18021100 -0.70511600
v -0.51362900 0.12966600 -0.69471200
v -0.55365400 0.13580600 -0.61631500
v -0.52230800 0.19848000 -0.61631500
v -0.48052100 0.19848000 -0.68945700
v -0.50142700 0.21937500 -0.62678900
v -0.51186800 0.22982300 -0.59543800
v -0.50400600 0.24048700 -0.58195100
v -0.52220600 0.24048700 -0.50145300
v -0.54321400 0.19848000 -0.53280400
v -0.55365400 0.17759600 -0.53280400
v -0.56409400 0.15670100 -0.53280400
v -0.56315000 0.12966600 -0.59161900
v -0.51710100 0.21153100 -0.61109600
v -0.55408800 0.12966600 -0.61803200
v -0.55980600 0.12966600 -0.60402000
v -0.55625800 0.16061800 -0.56408600
f 27 39 40
f 27 40 28
f 30 41 31
f 31 42 32
f 31 44 45
f 31 43 44
f 27 38 39
f 31 45 42
f 32 42 46
f 32 46 33
f 31 41 43
f 26 37 35
f 25 32 33
f 25 33 34
f 24 32 25
f 24 31 32
f 24 30 31
f 24 29 30
f 20 27 28
f 16 25 17
f 16 24 25
f 15 21 23
f 15 23 22
f 33 47 48
f 26 36 37
f 33 48 34
f 42 55 47
f 34 48 49
f 53 58 54
f 52 58 53
f 51 58 52
f 48 50 49
f 48 58 51
f 48 55 58
f 47 55 48
f 45 58 55
f 44 58 45
f 44 54 58
f 44 57 54
f 44 56 57
f 43 56 44
f 14 15 22
f 42 45 55
f 40 53 54
f 39 53 40
f 37 53 39
f 37 52 53
f 37 51 52
f 37 48 51
f 37 50 48
f 37 39 38
f 36 50 37
f 35 37 38
f 33 46 42
f 11 27 20
f 33 42 47
f 11 35 38
f 4 14 22
f 4 8 14
f 3 5 6
f 3 6 7
f 2 5 3
f 1 5 2
f 1 10 5
f 1 18 10
f 1 19 18
f 1 26 19
f 1 36 26
f 1 50 36
f 1 49 50
f 1 34 49
f 1 25 34
f 1 17 25
f 1 4 9
f 1 8 4
f 1 15 8
f 1 21 15
f 1 13 21
f 1 7 13
f 1 3 7
f 1 2 3
f 11 38 27
f 4 22 29
f 4 29 24
f 1 9 17
f 8 15 14
f 11 26 35
f 11 19 26
f 11 18 19
f 10 18 11
f 9 16 17
f 7 12 13
f 6 13 12
f 6 21 13
f 4 24 16
f 6 22 23
f 6 29 22
f 6 30 29
f 6 23 21
f 6 43 41
f 4 16 9
f 5 10 11
f 5 11 6
f 6 41 30
f 6 11 20
f 6 20 28
f 6 12 7
f 6 40 54
f 6 54 57
f 6 57 56
f 6 56 43
f 6 28 40

