# https://github.com/mikedh/trimesh
v 0.18339700 -0.19731800 -0.14682500
v 0.06766740 -0.19731800 -0.14682500
v 0.18089800 -0.20233200 -0.14682500
v 0.18339700 -0.19731800 -0.19734000
v -0.13175100 -0.32618000 -0.14682500
v 0.04394590 -0.19731800 -0.19734000
v -0.13972200 -0.32121200 -0.16716600
v 0.16714000 -0.22982800 -0.14682500
v 0.16714000 -0.22982800 -0.18806900
v 0.18020200 -0.20371800 -0.20374600
v 0.15205300 -0.19731800 -0.44800500
v -0.13972200 -0.33149400 -0.14682500
v -0.13972200 -0.19731800 -0.58932400
v 0.14455700 -0.27213500 -0.14682500
v 0.13668100 -0.28537500 -0.14682500
v 0.13579600 -0.26118300 -0.28207500
v 0.13579600 -0.22982800 -0.43873400
v 0.14885800 -0.20371800 -0.45441100
v 0.13592200 -0.19731800 -0.53622400
v -0.13972200 -0.43336800 -0.14682500
v -0.13972200 -0.19731800 -0.69147800
v 0.10445200 -0.32382300 -0.14682500
v 0.10445200 -0.32382300 -0.15671500
v 0.10445200 -0.29251400 -0.34478400
v 0.10445200 -0.26118300 -0.50138600
v 0.13709200 -0.21938400 -0.47008800
v 0.11751400 -0.20371800 -0.61106900
v 0.12722400 -0.19731800 -0.57803000
v -0.06267420 -0.40739700 -0.25072100
v -0.02864180 -0.40206000 -0.14682500
v -0.13972200 -0.40739700 -0.39046600
v -0.12533100 -0.40739700 -0.37608200
v -0.04306450 -0.19731800 -0.71586400
v -0.09401820 -0.21547900 -0.71294200
v -0.13972200 -0.24893700 -0.71721300
v -0.01500990 -0.39459600 -0.14682500
v -0.02203140 -0.39873200 -0.14682500
v 0.04176360 -0.35517800 -0.25072100
v 0.07310760 -0.32382300 -0.34478400
v 0.07310760 -0.29251400 -0.53274000
v 0.10574800 -0.25073900 -0.53274000
v 0.10182600 -0.20371800 -0.64242400
v 0.10663400 -0.19731800 -0.63601800
v 0.11590100 -0.19731800 -0.61747500
v 0.12070900 -0.19731800 -0.60472000
v 0.10445200 -0.22982800 -0.59544900
v -0.04176770 -0.39695300 -0.25072100
v -0.06267420 -0.37606500 -0.50138600
v 0.02092030 -0.36562200 -0.25072100
v -0.13972200 -0.40363100 -0.42367500
v -0.09401820 -0.37606500 -0.56409400
v -0.00925345 -0.19731800 -0.72080900
v -0.06267420 -0.21938400 -0.72080900
v -0.12533100 -0.25073900 -0.72080900
v -0.13972200 -0.26508800 -0.72080900
v 0.01045120 -0.35517800 -0.37608200
v 0.04176360 -0.32382300 -0.47008800
v -0.02089280 -0.35517800 -0.50138600
v 0.01045120 -0.32382300 -0.56409400
v 0.04176360 -0.29251400 -0.59544900
v 0.07310760 -0.26118300 -0.59544900
v 0.03917000 -0.23505000 -0.70513200
v 0.07238010 -0.19731800 -0.69204000
v -0.04176770 -0.36562200 -0.50138600
v -0.01042370 -0.36562200 -0.37608200
v -0.05875230 -0.36823300 -0.53274000
v -0.13972200 -0.37606500 -0.59544900
v -0.12533100 -0.37606500 -0.59544900
v -0.09009630 -0.36823300 -0.59544900
v 0.02202730 -0.19731800 -0.72080900
v -0.13972200 -0.29641900 -0.72080900
v -0.02740830 -0.33687800 -0.59544900
v -0.02348630 -0.32904500 -0.61106900
v 0.00785765 -0.29773600 -0.64242400
v -0.03917420 -0.29773600 -0.70513200
v -0.02740830 -0.28207100 -0.71294200
v 0.00393570 -0.25073900 -0.71294200
v 0.05729320 -0.19731800 -0.71294200
v -0.13972200 -0.33165600 -0.70771700
v -0.11489300 -0.36562200 -0.61629500
v -0.08617430 -0.36040000 -0.61106900
v 0.00001374 -0.21938400 -0.72080900
v -0.06267420 -0.28207100 -0.72080900
v -0.13972200 -0.31340200 -0.71698800
v -0.05220520 -0.30295800 -0.71035800
v -0.03133020 -0.25073900 -0.72080900
v -0.13972200 -0.32876800 -0.71103200
f 40 59 60
f 40 60 61
f 40 61 46
f 40 46 41
f 42 46 62
f 42 62 63
f 42 63 43
f 46 61 62
f 47 65 49
f 48 51 69
f 48 69 66
f 49 65 56
f 50 67 68
f 50 68 51
f 51 68 69
f 40 58 59
f 52 70 82
f 47 64 65
f 48 66 64
f 33 53 34
f 39 57 40
f 52 82 86
f 29 32 48
f 29 48 64
f 29 64 47
f 30 47 49
f 30 49 38
f 30 38 37
f 31 50 32
f 40 57 58
f 32 50 51
f 33 52 53
f 34 53 35
f 35 53 54
f 35 54 55
f 38 49 56
f 38 56 39
f 39 56 58
f 39 58 57
f 32 51 48
f 52 86 83
f 68 79 80
f 52 71 55
f 69 73 72
f 70 78 82
f 71 83 84
f 73 81 85
f 73 85 74
f 74 85 75
f 75 85 76
f 76 83 86
f 69 81 73
f 76 86 77
f 77 86 82
f 77 82 78
f 79 87 85
f 79 85 81
f 79 81 80
f 83 85 87
f 83 87 84
f 29 47 30
f 76 85 83
f 52 83 71
f 69 80 81
f 67 79 68
f 52 55 54
f 52 54 53
f 56 65 64
f 56 64 58
f 58 64 66
f 58 66 72
f 58 72 59
f 59 72 73
f 68 80 69
f 59 73 74
f 60 74 62
f 60 62 61
f 62 75 76
f 62 76 77
f 62 77 78
f 62 78 63
f 62 74 75
f 66 69 72
f 59 74 60
f 27 46 42
f 1 43 63
f 27 45 28
f 1 33 21
f 1 21 13
f 1 13 6
f 1 6 2
f 2 6 7
f 2 7 5
f 3 8 9
f 3 9 10
f 3 10 4
f 4 10 18
f 4 18 11
f 5 7 12
f 6 13 7
f 7 13 21
f 7 21 35
f 7 35 55
f 7 55 71
f 1 52 33
f 1 70 52
f 1 78 70
f 1 63 78
f 1 2 5
f 1 5 12
f 1 12 20
f 1 20 30
f 1 30 37
f 1 37 36
f 1 36 22
f 1 22 15
f 7 71 84
f 1 15 14
f 1 8 3
f 1 3 4
f 1 4 11
f 1 11 19
f 1 19 28
f 1 28 45
f 1 44 43
f 27 41 46
f 1 14 8
f 7 84 87
f 1 45 44
f 7 79 67
f 20 29 30
f 20 31 32
f 20 32 29
f 21 33 34
f 21 34 35
f 22 36 23
f 23 36 37
f 23 37 38
f 23 39 24
f 24 39 40
f 24 40 25
f 25 40 41
f 26 41 27
f 27 42 43
f 27 43 44
f 27 44 45
f 7 87 79
f 19 27 28
f 18 27 19
f 23 38 39
f 17 26 18
f 7 67 50
f 18 26 27
f 7 50 31
f 7 31 20
f 7 20 12
f 8 14 9
f 9 15 16
f 9 16 17
f 9 17 18
f 9 14 15
f 11 18 19
f 15 22 23
f 15 23 24
f 15 24 16
f 16 24 25
f 16 25 17
f 9 18 10
f 17 25 41
f 17 41 26

