# https://github.com/mikedh/trimesh
v -0.13974000 0.43873900 0.72080900
v -0.18804200 0.47008600 0.72080900
v -0.31338500 0.40742500 0.72080900
v -0.13974000 0.41221300 0.70962200
v -0.13974000 0.46043000 0.71112300
v -0.21938200 0.47008600 0.72080900
v -0.17237200 0.48575100 0.70512000
v -0.19848900 0.49097300 0.71030500
v -0.32827900 0.40742500 0.72080900
v -0.32827900 0.39749500 0.71583000
v -0.31338500 0.38652200 0.71030500
v -0.29771400 0.38391900 0.70512000
v -0.13974000 0.40742500 0.70007300
v -0.13974000 0.46746700 0.70641600
v -0.14625500 0.48052900 0.69986800
v -0.32827900 0.43873900 0.72080900
v -0.22982900 0.49097300 0.71030500
v -0.18804200 0.50141600 0.68943200
v -0.32827900 0.38652200 0.71030500
v -0.32827900 0.37607800 0.68943200
v -0.31338500 0.37607800 0.68943200
v -0.13974000 0.39894100 0.68097300
v -0.13974000 0.47726800 0.69659400
v -0.14625500 0.48052900 0.66855900
v -0.32827900 0.45520800 0.71255500
v -0.32827900 0.45964200 0.71030500
v -0.21938200 0.50141600 0.68943200
v -0.32827900 0.47008600 0.68943200
v -0.18804200 0.50141600 0.65812300
v -0.32827900 0.37050300 0.61187500
v -0.13974000 0.37607800 0.48704700
v -0.13974000 0.38326000 0.57128900
v -0.32827900 0.33915600 0.17320500
v -0.13974000 0.34474800 0.04837740
v -0.13974000 0.47726800 0.66528500
v -0.16714900 0.49097300 0.64761800
v -0.32827900 0.47008600 0.47006300
v -0.21938200 0.47008600 0.15669800
v -0.25070400 0.47008600 0.18807500
v -0.28204400 0.47008600 0.25076200
v -0.31338500 0.47008600 0.34475800
v -0.13974000 0.47008600 0.23636900
v -0.15670200 0.47008600 0.18807500
v -0.18804200 0.47008600 0.15669800
v -0.32827900 0.33730900 0.13439200
v -0.13974000 0.34474800 0.02402580
v -0.32827900 0.46264700 0.32988700
v -0.31338500 0.43873900 0.02402580
v -0.32827900 0.43873900 0.06270190
v -0.13974000 0.46584400 0.20294500
v -0.13974000 0.43873900 0.02402580
v -0.32827900 0.33730900 0.02402580
v -0.32827900 0.43255300 0.02402580
f 27 37 28
f 20 30 21
f 21 31 32
f 21 32 22
f 21 30 33
f 24 35 36
f 21 34 31
f 27 29 38
f 18 29 27
f 21 33 34
f 17 28 26
f 14 23 15
f 17 26 25
f 16 17 25
f 15 29 18
f 15 36 29
f 15 24 36
f 15 35 24
f 15 23 35
f 12 19 20
f 27 38 39
f 12 22 13
f 17 27 28
f 27 39 40
f 43 51 44
f 27 41 37
f 12 21 22
f 48 53 49
f 46 48 51
f 46 53 48
f 46 52 53
f 43 50 51
f 42 50 43
f 41 49 47
f 40 49 41
f 40 48 49
f 39 48 40
f 38 48 39
f 38 51 48
f 38 44 51
f 37 41 47
f 35 42 36
f 34 52 46
f 34 45 52
f 33 45 34
f 29 44 38
f 29 43 44
f 29 42 43
f 29 36 42
f 27 40 41
f 12 20 21
f 8 18 27
f 10 19 11
f 2 8 17
f 2 7 8
f 2 5 7
f 1 5 2
f 1 14 5
f 1 23 14
f 1 35 23
f 1 42 35
f 1 50 42
f 1 51 50
f 2 17 6
f 1 46 51
f 1 31 34
f 1 32 31
f 1 22 32
f 1 13 22
f 1 4 13
f 1 3 4
f 1 9 3
f 1 16 9
f 1 6 16
f 11 19 12
f 1 34 46
f 3 9 10
f 1 2 6
f 3 11 4
f 3 10 11
f 9 20 19
f 9 30 20
f 9 33 30
f 9 45 33
f 9 52 45
f 9 53 52
f 9 49 53
f 9 47 49
f 9 37 47
f 9 28 37
f 9 19 10
f 9 25 26
f 9 16 25
f 8 27 17
f 7 18 8
f 7 15 18
f 6 17 16
f 5 15 7
f 5 14 15
f 4 12 13
f 4 11 12
f 9 26 28

