# https://github.com/mikedh/trimesh
v -0.45394800 -0.14440800 -0.35899300
v -0.45394800 -0.14440800 -0.72080900
v -0.45394800 -0.14350600 -0.35984000
v -0.57026800 -0.14440800 0.68327300
v -0.47011100 -0.14440800 -0.72080900
v -0.45394800 -0.12534800 -0.72080900
v -0.45394800 -0.14201300 -0.36139200
v -0.59544500 -0.00049454 0.68934100
v -0.57640100 -0.14440800 0.70175900
v -0.45394800 -0.00049454 -0.53355100
v -0.50144400 -0.09401850 -0.72080900
v -0.49136900 -0.14440800 -0.71064900
v -0.45394800 -0.00049454 -0.71262500
v -0.47011100 -0.00049454 -0.72080900
v -0.59593000 -0.00049454 0.69032900
v -0.60589000 -0.00049454 0.71022600
v -0.57909800 -0.14440800 0.70571000
v -0.50144400 -0.00049454 -0.72080900
v -0.51188900 -0.13580100 -0.69978300
v -0.51712300 -0.10968300 -0.70500400
v -0.52233300 -0.08356590 -0.71022600
v -0.49468900 -0.14440800 -0.70839100
v -0.62677900 -0.00049454 0.72080900
v -0.59788900 -0.14440800 0.71826900
v -0.52233300 -0.00049454 -0.71022600
v -0.53277800 -0.09401850 -0.68934100
v -0.50760000 -0.14440800 -0.69555000
v -0.54322300 -0.13580100 -0.63712900
v -0.53254700 -0.00049454 -0.68990500
v -0.65811300 -0.00049454 0.72080900
v -0.62677900 -0.14440800 0.72080900
v -0.54845600 -0.10968300 -0.64235000
v -0.56411200 -0.06268890 -0.62668600
v -0.59519200 -0.00049454 -0.56459600
v -0.56388100 -0.00049454 -0.62725100
v -0.53893400 -0.14440800 -0.63289500
v -0.54778800 -0.14440800 -0.61031700
v -0.56411200 -0.12534800 -0.59535900
v -0.65811300 -0.12534800 0.72080900
v -0.67900200 -0.00049454 0.71022600
v -0.67379100 -0.14102700 0.71290700
v -0.67040200 -0.14440800 0.71206000
v -0.59544500 -0.03134520 -0.56403200
v -0.59544500 -0.00049454 -0.56403200
v -0.55458900 -0.14440800 -0.58590400
v -0.56030700 -0.14440800 -0.56022200
v -0.57976700 -0.14102700 -0.45438600
v -0.59544500 -0.12534800 -0.40739500
v -0.59544500 -0.06268890 -0.53270400
v -0.67918600 -0.00049454 0.70994300
v -0.67900200 -0.12534800 0.71022600
v -0.68947000 -0.12534800 0.68934100
v -0.67992400 -0.14440800 0.69893600
v -0.67715700 -0.14440800 0.70444000
v -0.62677900 -0.03134520 -0.31327300
v -0.62677900 -0.00049454 -0.31327300
v -0.57808400 -0.14440800 -0.45269300
v -0.58592300 -0.14440800 -0.39780000
v -0.59544500 -0.14440800 -0.31327300
v -0.62677900 -0.14440800 -0.03132730
v -0.62677900 -0.12534800 -0.12530900
v -0.62677900 -0.09401850 -0.21929100
v -0.62677900 -0.06268890 -0.28194500
v -0.68947000 -0.00049454 0.68934100
v -0.68947000 -0.06268890 0.43872300
v -0.65811300 -0.12534800 0.18796400
v -0.65811300 -0.14440800 0.34460000
v -0.65811300 -0.03134520 0.00000000
v -0.65802100 -0.00049454 -0.03118610
v -0.64859000 -0.14440800 0.19755900
v -0.65811300 -0.09401850 0.09398180
v -0.65811300 -0.06268890 0.03132730
v -0.68947000 -0.00049454 0.40739500
v -0.68947000 -0.03134520 0.40739500
v -0.68935400 -0.00049454 0.37606800
f 38 47 48
f 38 45 46
f 37 45 38
f 34 43 44
f 38 46 47
f 38 48 49
f 41 52 53
f 40 50 51
f 40 51 41
f 41 51 52
f 41 53 54
f 43 49 63
f 33 43 34
f 41 54 42
f 38 49 43
f 32 43 33
f 26 28 32
f 31 41 42
f 21 29 25
f 43 63 55
f 23 30 39
f 23 39 31
f 23 31 24
f 26 32 33
f 26 33 34
f 26 34 35
f 26 35 29
f 28 36 37
f 28 37 38
f 28 38 32
f 30 40 41
f 30 41 39
f 31 39 41
f 32 38 43
f 43 55 56
f 62 71 72
f 46 57 47
f 55 69 56
f 60 70 66
f 60 66 61
f 61 66 71
f 61 71 62
f 62 72 63
f 65 74 68
f 65 68 72
f 65 72 71
f 65 71 66
f 66 70 67
f 68 74 69
f 69 74 75
f 73 75 74
f 21 26 29
f 55 68 69
f 43 56 44
f 55 72 68
f 52 67 53
f 47 57 48
f 48 57 58
f 48 58 59
f 48 59 60
f 48 60 61
f 48 61 62
f 48 62 63
f 48 63 49
f 50 64 52
f 50 52 51
f 52 64 73
f 52 73 74
f 52 74 65
f 52 65 66
f 52 66 67
f 55 63 72
f 20 26 21
f 19 22 27
f 19 36 28
f 1 57 46
f 1 46 45
f 1 45 37
f 1 37 36
f 1 36 27
f 1 27 22
f 1 58 57
f 1 22 12
f 1 5 2
f 2 5 11
f 2 11 18
f 2 18 14
f 2 14 6
f 3 7 4
f 1 12 5
f 1 59 58
f 1 60 59
f 1 70 60
f 19 28 26
f 1 2 6
f 1 6 13
f 1 13 10
f 1 10 7
f 1 7 3
f 1 3 4
f 1 4 9
f 1 9 17
f 1 17 24
f 1 31 42
f 1 42 54
f 1 54 53
f 1 53 67
f 1 67 70
f 4 8 9
f 4 7 10
f 1 24 31
f 5 12 11
f 8 23 16
f 8 16 15
f 9 15 16
f 9 16 17
f 11 12 19
f 11 19 20
f 8 30 23
f 11 20 21
f 12 22 19
f 16 23 24
f 16 24 17
f 19 26 20
f 4 10 8
f 19 27 36
f 11 21 25
f 8 40 30
f 11 25 18
f 8 64 50
f 8 15 9
f 6 14 13
f 8 50 40
f 8 10 13
f 8 13 14
f 8 18 25
f 8 25 29
f 8 29 35
f 8 14 18
f 8 34 44
f 8 73 64
f 8 44 56
f 8 56 69
f 8 75 73
f 8 35 34
f 8 69 75

