# https://github.com/mikedh/trimesh
v -0.25070300 -0.40741400 -0.43877100
v -0.15671300 -0.40741400 -0.43877100
v -0.28205500 -0.40741400 -0.37607700
v -0.30456400 -0.37607300 -0.56407500
v -0.28205500 -0.37607300 -0.59542200
v -0.13972200 -0.40363500 -0.42367800
v -0.13972200 -0.40741400 -0.39046500
v -0.13972200 -0.37607300 -0.59542200
v -0.30456400 -0.40741400 -0.31342500
v -0.30456400 -0.37155400 -0.59094400
v -0.30456400 -0.35276200 -0.63481300
v -0.25070300 -0.34473100 -0.68946200
v -0.13972200 -0.40741400 -0.29725400
v -0.15671300 -0.34473100 -0.68946200
v -0.14625700 -0.33427700 -0.71036000
v -0.13972200 -0.33166900 -0.70774800
v -0.30456400 -0.40741400 -0.29725400
v -0.30456400 -0.31780600 -0.69385700
v -0.29249400 -0.32382300 -0.69991100
v -0.26637100 -0.32906100 -0.70513600
v -0.24026300 -0.33427700 -0.71036000
v -0.13972200 -0.30624300 -0.29725400
v -0.15671300 -0.31339000 -0.72080900
v -0.13972200 -0.31339000 -0.71703600
v -0.13972200 -0.32877300 -0.71102400
v -0.30456400 -0.29334500 -0.29725400
v -0.30456400 -0.30293600 -0.71036000
v -0.25070300 -0.31339000 -0.72080900
v -0.13972200 -0.30034800 -0.30297600
v -0.13972200 -0.29642500 -0.72080900
v -0.30456400 -0.28383500 -0.31516600
v -0.30456400 -0.29973200 -0.71197700
v -0.30456400 -0.28206900 -0.72080900
v -0.13972200 -0.28989400 -0.32387400
v -0.13972200 -0.26508400 -0.72080900
v -0.30456400 -0.20030600 -0.55524300
v -0.30456400 -0.25072800 -0.72080900
v -0.13972200 -0.19761600 -0.58916100
v -0.28205500 -0.25072800 -0.72080900
v -0.13972200 -0.24894100 -0.71720200
v -0.30456400 -0.19761600 -0.57721900
v -0.30456400 -0.22232300 -0.70940600
v -0.13972200 -0.19761600 -0.69157700
v -0.30456400 -0.19761600 -0.69916500
f 19 27 20
f 18 27 19
f 15 25 16
f 15 24 25
f 15 23 24
f 15 28 23
f 15 21 28
f 13 26 17
f 12 20 21
f 12 15 14
f 12 21 15
f 20 27 21
f 12 19 20
f 11 19 12
f 11 18 19
f 8 15 16
f 8 14 15
f 13 22 26
f 21 27 28
f 23 37 39
f 23 28 33
f 40 44 43
f 39 44 40
f 39 42 44
f 38 44 41
f 37 42 39
f 36 38 41
f 35 39 40
f 34 38 36
f 22 29 26
f 31 34 36
f 28 32 33
f 27 32 28
f 26 29 31
f 23 30 24
f 23 35 30
f 23 39 35
f 6 13 7
f 23 33 37
f 29 34 31
f 6 22 13
f 38 43 44
f 6 34 29
f 4 36 41
f 4 31 36
f 4 17 26
f 4 9 17
f 4 10 5
f 3 9 4
f 2 8 6
f 2 6 7
f 4 41 44
f 1 8 2
f 1 4 5
f 1 3 4
f 1 9 3
f 1 17 9
f 1 13 17
f 1 7 13
f 1 2 7
f 6 29 22
f 1 5 8
f 4 44 42
f 4 26 31
f 4 37 33
f 6 38 34
f 6 43 38
f 6 40 43
f 6 35 40
f 6 30 35
f 4 42 37
f 6 25 24
f 6 16 25
f 6 8 16
f 6 24 30
f 5 12 14
f 5 14 8
f 4 32 27
f 4 27 18
f 4 18 11
f 4 33 32
f 4 11 10
f 5 10 11
f 5 11 12

