# https://github.com/mikedh/trimesh
v 0.16512600 -0.00007658 -0.14343900
v 0.22840500 -0.00007658 -0.14343900
v 0.12535900 -0.00007658 -0.12542000
v 0.12535900 -0.00002550 -0.14343900
v 0.22840500 0.04462330 -0.14343900
v 0.25069900 0.00000005 -0.03126300
v 0.25067500 -0.00007658 -0.03134760
v 0.12535900 -0.00007658 -0.12533600
v 0.01059370 0.26086800 -0.14343900
v 0.21935800 0.12536400 -0.14343900
v 0.25069900 0.03134100 -0.03126300
v 0.25444700 0.00000005 0.13285600
v 0.25444700 -0.00007658 0.13294100
v 0.01059370 0.26086800 -0.08379810
v 0.18801700 -0.00007658 0.68942300
v 0.14872800 0.26086800 -0.14343900
v 0.21274600 0.13859500 -0.14343900
v 0.20892700 0.17757300 -0.04175310
v 0.21935800 0.15667900 -0.03126300
v 0.25444700 0.14922100 0.30585800
v 0.25069900 0.12536400 0.18809800
v 0.25069900 0.09402300 0.09402590
v 0.25444700 0.11044700 0.18996000
v 0.25444700 0.07910600 0.15857400
v 0.25444700 0.06268200 0.14216200
v 0.25444700 0.03134100 0.13285600
v 0.25444700 -0.00007658 0.71886300
v 0.07327560 0.26086800 0.48021400
v 0.19847200 -0.00007658 0.71031900
v 0.10461600 0.26086800 0.69957500
v 0.15161600 0.26086800 -0.13041100
v 0.16572300 0.23261800 -0.14343900
v 0.18140500 0.20127700 -0.14343900
v 0.17758600 0.24025500 -0.04175310
v 0.20892700 0.20891400 0.08362040
v 0.21935800 0.18802000 0.09402590
v 0.25444700 0.14347400 0.28724700
v 0.20892700 0.24025500 0.27168100
v 0.24026800 0.20891400 0.49095800
v 0.25069900 0.18802000 0.50136300
v 0.25444700 0.18056200 0.69314600
v 0.25444700 0.12349900 0.71886300
v 0.25086600 -0.00007658 0.72072500
v 0.21931000 -0.00007658 0.72072500
v 0.21935800 0.00000005 0.72080900
v 0.11521500 0.26086800 0.71158800
v 0.10507000 0.26086800 0.70016700
v 0.16727400 0.26086800 -0.02111130
v 0.16994800 0.22418900 -0.14343900
v 0.19861500 0.26086800 0.29215300
v 0.22981300 0.22980800 0.51185300
v 0.21429800 0.26086800 0.55897400
v 0.21429800 0.26086800 0.68434800
v 0.22981300 0.22980800 0.69991400
v 0.25444700 0.17049800 0.70321300
v 0.25069900 0.12536400 0.72080900
v 0.25444700 0.14697300 0.71108000
v 0.25069900 -0.00007658 0.72080900
v 0.25062700 -0.00007658 0.72080900
v 0.15667600 0.21936100 0.72080900
v 0.15667600 0.26086800 0.72080900
v 0.20921400 0.26086800 0.69957500
v 0.20479800 0.26086800 0.70617400
v 0.18801700 0.25070200 0.72080900
v 0.25444700 0.16040900 0.70659700
v 0.18598800 0.26086800 0.71869400
f 31 34 32
f 20 38 39
f 20 39 40
f 20 40 41
f 21 37 22
f 22 37 23
f 29 46 47
f 29 44 45
f 29 45 46
f 29 47 30
f 20 35 38
f 31 48 34
f 27 42 43
f 20 36 35
f 15 29 30
f 19 36 20
f 18 36 19
f 18 35 36
f 18 34 35
f 17 34 18
f 17 33 34
f 16 31 32
f 15 30 28
f 14 15 28
f 12 27 13
f 12 42 27
f 32 34 49
f 12 57 42
f 20 37 21
f 33 49 34
f 50 52 51
f 34 50 35
f 12 65 57
f 63 66 64
f 56 57 65
f 54 65 55
f 54 56 65
f 54 64 56
f 54 63 64
f 54 62 63
f 53 62 54
f 46 60 61
f 45 60 46
f 45 61 60
f 45 64 61
f 45 56 64
f 45 58 56
f 45 59 58
f 44 59 45
f 43 56 58
f 42 57 56
f 42 56 43
f 41 54 55
f 41 53 54
f 41 52 53
f 39 50 51
f 39 41 40
f 39 52 41
f 39 51 52
f 38 50 39
f 35 50 38
f 34 48 50
f 12 55 65
f 61 64 66
f 12 20 41
f 6 11 26
f 5 10 11
f 3 9 4
f 3 14 9
f 3 8 14
f 2 6 7
f 2 11 6
f 2 5 11
f 1 5 2
f 1 10 5
f 1 17 10
f 1 33 17
f 1 49 33
f 1 16 32
f 1 9 16
f 1 4 9
f 1 3 4
f 1 8 3
f 1 15 8
f 1 29 15
f 1 44 29
f 1 59 44
f 1 58 59
f 1 43 58
f 1 27 43
f 1 13 27
f 1 7 13
f 1 2 7
f 12 41 55
f 6 26 12
f 6 12 13
f 1 32 49
f 8 15 14
f 6 13 7
f 12 23 37
f 12 24 23
f 12 25 24
f 12 26 25
f 11 25 26
f 11 24 25
f 11 23 24
f 11 22 23
f 10 22 11
f 10 21 22
f 10 20 21
f 10 19 20
f 10 18 19
f 10 17 18
f 12 37 20
f 9 46 61
f 9 48 31
f 9 50 48
f 9 52 50
f 9 53 52
f 9 62 53
f 9 63 62
f 9 66 63
f 9 61 66
f 9 31 16
f 9 47 46
f 9 30 47
f 9 28 30
f 9 14 28

