# https://github.com/mikedh/trimesh
v -0.00927261 -0.19731800 -0.72080900
v -0.04305590 -0.19731800 -0.71590600
v 0.06265720 -0.00009588 -0.72080900
v 0.02207240 -0.19731800 -0.72080900
v -0.13972200 -0.19731800 -0.69151000
v -0.13972200 -0.00009588 -0.68946700
v 0.09400220 -0.00009588 -0.72080900
v 0.06265720 -0.15669600 -0.72080900
v 0.05729940 -0.19731800 -0.71297400
v -0.13972200 -0.19731800 -0.58936100
v -0.13972200 -0.00009588 -0.65812500
v 0.11488800 -0.00009588 -0.71035400
v 0.09400220 -0.09402500 -0.72080900
v 0.06657130 -0.18803100 -0.71297400
v 0.07237830 -0.19731800 -0.69208700
v -0.02329280 -0.19731800 -0.47526600
v 0.06262510 -0.00009588 -0.47526600
v 0.11488800 -0.09402500 -0.71035400
v 0.12531500 -0.00009588 -0.68951500
v 0.12534700 -0.03135410 -0.68946700
v 0.11751900 -0.10968300 -0.70513800
v 0.09791630 -0.12534100 -0.71297400
v 0.08617400 -0.17235400 -0.70513800
v 0.10664300 -0.19731800 -0.63606100
v 0.14000900 -0.19731800 -0.47526600
v 0.18803700 -0.00009588 -0.47526600
v 0.13577400 -0.00009588 -0.66860500
v 0.18803700 -0.03135410 -0.56412400
v 0.18017700 -0.04701220 -0.57979500
v 0.14883200 -0.14101900 -0.61111300
v 0.13709000 -0.15669600 -0.62678400
v 0.11591500 -0.19731800 -0.61750600
v 0.13638400 -0.19731800 -0.53278200
v 0.14883200 -0.17235400 -0.54845300
v 0.18017700 -0.10968300 -0.51711100
v 0.18803700 -0.09402500 -0.50144000
v 0.14514200 -0.18629400 -0.47526600
v 0.18803700 -0.09402500 -0.47526600
v 0.18803700 -0.00009588 -0.53285400
v 0.18800500 -0.00009588 -0.56417200
v 0.15669200 -0.12534100 -0.59546600
v 0.13709000 -0.18803100 -0.56412400
v 0.12069500 -0.19731800 -0.60471900
v 0.13593500 -0.19731800 -0.53629100
v 0.12724000 -0.19731800 -0.57804000
f 20 27 28
f 24 31 32
f 25 33 34
f 21 31 23
f 21 30 31
f 21 29 30
f 21 28 29
f 20 28 21
f 23 31 24
f 15 23 24
f 18 21 22
f 16 26 17
f 16 38 26
f 16 37 38
f 16 25 37
f 14 23 15
f 14 21 23
f 25 34 35
f 19 27 20
f 25 35 36
f 34 44 42
f 26 38 36
f 42 45 43
f 42 44 45
f 36 38 37
f 35 41 36
f 14 22 21
f 33 44 34
f 31 43 32
f 31 42 43
f 30 35 34
f 30 41 35
f 30 42 31
f 30 34 42
f 29 41 30
f 28 41 29
f 28 36 41
f 28 40 39
f 27 40 28
f 26 28 39
f 26 36 28
f 25 36 37
f 13 22 14
f 5 11 6
f 12 21 18
f 1 5 2
f 1 10 5
f 1 16 10
f 1 25 16
f 13 18 22
f 1 44 33
f 1 45 44
f 1 43 45
f 2 5 6
f 1 32 43
f 1 15 24
f 1 9 15
f 1 4 9
f 1 8 4
f 1 13 8
f 1 7 13
f 1 3 7
f 1 2 3
f 1 24 32
f 2 6 3
f 1 33 25
f 3 11 17
f 12 20 21
f 12 19 20
f 3 6 11
f 10 16 11
f 9 14 15
f 8 14 9
f 8 13 14
f 7 18 13
f 7 12 18
f 11 16 17
f 4 8 9
f 3 12 7
f 3 19 12
f 3 27 19
f 3 40 27
f 3 39 40
f 3 26 39
f 3 17 26
f 5 10 11

