# https://github.com/mikedh/trimesh
v 0.68947000 0.03132420 0.16528300
v 0.68947000 -0.03133650 0.16528300
v 0.68947000 0.03132420 0.12532100
v 0.68700600 0.04113770 0.16528300
v 0.66856800 -0.07312450 0.16528300
v 0.68947000 -0.03133650 0.12532100
v 0.68030900 0.05747930 0.16528300
v 0.68947000 0.00001534 0.09399050
v 0.68161700 0.03132420 0.09010090
v 0.67900000 0.05221820 0.11487700
v 0.62676600 -0.09401860 0.16528300
v 0.66856800 -0.07312450 0.12532100
v 0.68161700 -0.04699090 0.10965600
v 0.68161700 -0.01566060 0.07832550
v 0.66856800 0.07311230 0.13576400
v 0.66856800 0.07311230 0.16528300
v 0.65809900 0.03132420 0.03133020
v 0.65028500 0.06267600 0.02738730
v 0.65028500 -0.04699090 0.01566520
v 0.63723600 -0.03133650 -0.01049660
v 0.63723600 0.03132420 -0.01049660
v 0.67376500 0.04700010 0.08615800
v 0.64766700 0.08357000 0.05221700
v 0.62676600 -0.09401860 0.12532100
v 0.58500300 -0.07312450 0.16528300
v 0.29627500 -0.09401860 -0.21936400
v 0.63723600 -0.07312450 0.03133020
v 0.65290200 0.08487990 0.16528300
v 0.61895200 0.06267600 -0.03527300
v 0.61110000 0.07833040 -0.03921590
v 0.64243300 0.07833040 0.02349770
v 0.61895200 -0.04699090 -0.04704840
v 0.59543400 0.03132420 -0.09404370
v 0.58758200 0.06267600 -0.09798660
v 0.62676600 0.09400630 0.06266040
v 0.61633500 0.08357000 -0.01049660
v 0.59543400 -0.09401860 0.03133020
v 0.57545700 -0.05407720 0.16528300
v 0.29627500 -0.04276050 -0.15707700
v 0.29627500 -0.07312450 -0.17753700
v 0.29627500 -0.09401860 -0.29918200
v 0.59936000 -0.08618060 -0.00005320
v 0.56802800 -0.08618060 -0.06271350
v 0.60586500 -0.07312450 -0.03138340
v 0.63658200 0.09155830 0.16528300
v 0.57976800 0.07833040 -0.10187600
v 0.59543400 0.00001534 -0.09404370
v 0.57191500 -0.07834270 -0.07837860
v 0.55624900 -0.04699090 -0.14098600
v 0.57584200 -0.03133650 -0.12532100
v 0.58758200 -0.01566060 -0.10965500
v 0.57453300 0.00001534 -0.13576400
v 0.58500300 0.00001534 -0.11487700
v 0.58500300 0.03132420 -0.11487700
v 0.57453300 0.03132420 -0.13576400
v 0.62676600 0.09400630 0.16528300
v 0.59543400 0.09400630 -0.00005320
v 0.34473600 0.12535800 -0.21936400
v 0.58500300 0.08357000 -0.07315690
v 0.56410200 -0.09401860 -0.03138340
v 0.57453300 -0.05223050 0.16528300
v 0.29627500 -0.03133650 -0.15137600
v 0.56410200 -0.03133650 0.16528300
v 0.29627500 -0.09086190 -0.31335500
v 0.31733000 -0.08618060 -0.31335500
v 0.41136600 -0.08618060 -0.21936400
v 0.37610700 -0.09401860 -0.21936400
v 0.44662400 -0.07834270 -0.20369900
v 0.56410200 0.08616840 -0.09798660
v 0.48057400 0.03132420 -0.22980800
v 0.39177300 0.07833040 -0.28985700
v 0.36044100 0.10968200 -0.25852700
v 0.47403100 -0.05482880 -0.21936400
v 0.50532400 -0.05482880 -0.18803400
v 0.53665700 -0.05482880 -0.15665100
v 0.54320000 -0.03133650 -0.16709400
v 0.51186800 -0.03133650 -0.19847800
v 0.48057400 -0.03133650 -0.22980800
v 0.60116900 0.08831570 0.16528300
v 0.29627500 0.12535800 -0.25069400
v 0.29627500 0.12130000 -0.23449700
v 0.56410200 0.09400630 -0.06271350
v 0.34473600 0.11752000 -0.25458400
v 0.31340400 0.12535800 -0.25069400
v 0.29627500 -0.01005590 -0.14956400
v 0.56410200 0.03132420 0.16528300
v 0.29627500 -0.08394730 -0.33109800
v 0.32125600 -0.07834270 -0.32902000
v 0.44269800 -0.05482880 -0.25069400
v 0.38653900 0.00001534 -0.32379800
v 0.41787100 0.03132420 -0.29246800
v 0.39177300 0.04700010 -0.30552200
v 0.37610700 0.03132420 -0.32513000
v 0.31340400 0.06267600 -0.35646000
v 0.32907000 0.07833040 -0.33685200
v 0.34473600 0.08616840 -0.31729800
v 0.44920300 -0.03133650 -0.26113800
v 0.59543400 0.08545970 0.16528300
v 0.29627500 0.11659700 -0.22298700
v 0.29627500 0.12106300 -0.26998300
v 0.29627500 0.11633900 -0.27946700
v 0.29627500 0.03132420 -0.14956400
v 0.57549500 0.05979850 0.16528300
v 0.29627500 0.06267600 -0.15729000
v 0.29627500 -0.07982440 -0.33610600
v 0.29627500 -0.06696150 -0.34900100
v 0.29627500 -0.05409870 -0.36184200
v 0.29627500 -0.05072730 -0.36413300
v 0.35258900 -0.04699090 -0.32902000
v 0.43092000 -0.04699090 -0.26636000
v 0.32387400 -0.03133650 -0.35512800
v 0.29627500 0.00001534 -0.37905200
v 0.29627500 0.03132420 -0.37905200
v 0.29627500 0.06267600 -0.36717000
v 0.29627500 0.07684870 -0.35475500
v 0.29773800 0.07833040 -0.35251700
v 0.29627500 0.07908200 -0.35214400
v 0.29627500 0.08498730 -0.34212700
v 0.29627500 0.08971150 -0.33269600
v 0.58935200 0.08187360 0.16528300
v 0.29627500 0.08425720 -0.17279500
v 0.57834400 0.06553200 0.16528300
v 0.29627500 0.07790090 -0.16640100
v 0.29627500 -0.03133650 -0.37052700
v 0.30559000 -0.04699090 -0.36040300
f 1 2 6
f 50 76 52
f 50 52 51
f 52 55 54
f 52 54 53
f 52 76 77
f 52 77 78
f 52 78 70
f 52 70 55
f 56 58 80
f 56 80 81
f 56 81 79
f 57 82 58
f 58 83 84
f 58 84 80
f 58 82 69
f 58 69 83
f 59 69 82
f 62 63 85
f 63 86 102
f 63 102 85
f 64 87 65
f 65 87 88
f 65 88 66
f 66 88 68
f 68 88 89
f 68 89 73
f 69 72 83
f 49 76 50
f 70 78 90
f 49 75 76
f 48 74 75
f 34 54 55
f 34 55 46
f 35 56 45
f 35 57 58
f 35 58 56
f 36 59 82
f 36 82 57
f 37 60 42
f 38 61 39
f 39 61 63
f 39 63 62
f 41 64 65
f 41 65 66
f 41 66 67
f 42 60 43
f 43 48 44
f 43 60 67
f 43 67 66
f 43 66 68
f 43 68 48
f 46 69 59
f 46 55 70
f 46 70 71
f 46 71 72
f 46 72 69
f 48 68 73
f 48 73 74
f 48 75 49
f 33 54 34
f 70 90 91
f 71 91 92
f 90 113 93
f 90 93 91
f 90 97 109
f 91 93 92
f 93 113 94
f 94 113 114
f 94 114 95
f 95 114 115
f 95 115 116
f 95 116 117
f 95 117 96
f 96 117 118
f 96 118 119
f 96 119 101
f 97 110 109
f 98 99 120
f 99 121 120
f 103 122 104
f 104 122 123
f 108 124 125
f 108 125 109
f 109 125 111
f 111 125 124
f 111 124 112
f 115 117 116
f 120 121 123
f 120 123 122
f 90 112 113
f 70 91 71
f 90 111 112
f 89 109 110
f 71 92 93
f 71 93 94
f 71 94 95
f 71 95 96
f 71 96 72
f 72 96 83
f 73 89 78
f 73 78 77
f 73 77 74
f 74 77 76
f 74 76 75
f 78 89 97
f 78 97 90
f 79 81 99
f 79 99 98
f 80 84 100
f 83 96 101
f 83 101 100
f 83 100 84
f 86 103 104
f 87 105 88
f 88 105 106
f 88 106 107
f 88 107 108
f 88 108 109
f 88 109 89
f 89 110 97
f 90 109 111
f 33 53 54
f 86 104 102
f 32 53 47
f 6 13 14
f 6 14 8
f 7 10 15
f 7 15 16
f 8 18 9
f 8 14 19
f 8 19 20
f 8 20 21
f 8 21 17
f 9 22 10
f 9 18 22
f 10 22 23
f 10 23 15
f 11 25 26
f 11 26 41
f 11 41 67
f 11 67 60
f 11 60 37
f 11 37 24
f 12 24 37
f 12 37 27
f 12 27 19
f 12 19 13
f 13 19 14
f 15 28 16
f 15 23 28
f 17 21 18
f 6 12 13
f 18 21 29
f 5 24 12
f 3 10 7
f 33 47 53
f 1 6 8
f 1 8 3
f 1 3 4
f 1 4 7
f 1 7 16
f 1 16 28
f 1 28 45
f 1 45 56
f 1 56 79
f 1 79 98
f 1 98 120
f 1 120 122
f 1 122 103
f 1 103 86
f 1 86 63
f 1 63 61
f 1 61 38
f 1 38 25
f 1 25 11
f 1 11 5
f 1 5 2
f 2 5 12
f 2 12 6
f 3 7 4
f 3 8 9
f 3 9 10
f 5 11 24
f 18 29 46
f 8 17 18
f 18 30 31
f 26 118 117
f 26 117 115
f 26 115 114
f 26 114 113
f 26 113 112
f 26 112 124
f 26 124 108
f 26 108 107
f 26 107 106
f 26 106 105
f 26 105 87
f 26 87 64
f 26 64 41
f 26 119 118
f 27 37 42
f 27 43 44
f 27 44 32
f 28 35 45
f 29 34 46
f 30 46 59
f 30 59 36
f 32 47 33
f 32 44 48
f 18 46 30
f 32 49 50
f 32 50 51
f 32 51 52
f 32 52 53
f 27 42 43
f 26 101 119
f 32 48 49
f 26 80 100
f 18 31 22
f 26 100 101
f 19 27 32
f 20 32 21
f 21 32 33
f 21 33 34
f 21 34 29
f 22 31 23
f 23 35 28
f 23 31 30
f 23 30 36
f 23 36 57
f 23 57 35
f 25 38 39
f 19 32 20
f 25 40 26
f 25 39 40
f 26 99 81
f 26 123 121
f 26 104 123
f 26 102 104
f 26 121 99
f 26 85 102
f 26 62 85
f 26 39 62
f 26 40 39
f 26 81 80

