# https://github.com/mikedh/trimesh
v -0.31341000 -0.47009300 0.34473100
v -0.30008300 -0.47009300 0.34473100
v -0.34474800 -0.47009300 0.47009000
v -0.34474800 -0.43875300 0.06272250
v -0.31341000 -0.43875300 -0.03124720
v -0.30008300 -0.47009300 0.68941900
v -0.30008300 -0.43875300 -0.03124720
v -0.37608500 -0.47009300 0.68941900
v -0.37608500 -0.43875300 0.18808200
v -0.34474800 -0.40741300 -0.25067600
v -0.31341000 -0.40741300 -0.29721200
v -0.30008300 -0.45963700 0.71034600
v -0.30008300 -0.40741300 -0.29721200
v -0.37608500 -0.45963700 0.71034600
v -0.39695700 -0.45963700 0.69988300
v -0.43874600 -0.43875300 0.68941900
v -0.43874600 -0.43875300 0.65812900
v -0.40740800 -0.43875300 0.40741100
v -0.41785900 -0.41784000 0.17761900
v -0.37608500 -0.40741300 -0.12531700
v -0.44919600 -0.41784000 0.39694800
v -0.41785900 -0.38650000 -0.13578000
v -0.38650600 -0.38650000 -0.26113900
v -0.35989700 -0.39198900 -0.29721200
v -0.30008300 -0.43875300 0.72080900
v -0.30008300 -0.29634300 -0.29721200
v -0.37608500 -0.43875300 0.72080900
v -0.39173100 -0.45440800 0.71293700
v -0.45391000 -0.42324200 0.71283700
v -0.45391000 -0.42829600 0.70277200
v -0.45391000 -0.43114300 0.69699300
v -0.45391000 -0.43114300 0.66570300
v -0.44919600 -0.38650000 0.02096920
v -0.45391000 -0.39980300 0.22694500
v -0.44919600 -0.35516000 -0.26113900
v -0.42255700 -0.36064900 -0.29721200
v -0.30008300 -0.41005600 0.71811900
v -0.31341000 -0.40741300 0.72080900
v -0.45391000 -0.17342200 -0.29721200
v -0.45391000 -0.17339300 -0.26731700
v -0.30008300 -0.29657500 -0.26871200
v -0.43874600 -0.40741300 0.72080900
v -0.45391000 -0.42257400 0.71313600
v -0.45391000 -0.36846300 -0.08635350
v -0.45391000 -0.34572000 -0.26582300
v -0.45391000 -0.33999800 -0.29721200
v -0.44198300 -0.34795600 -0.29721200
v -0.42410800 -0.35986500 -0.29721200
v -0.30008300 -0.39408100 0.70745600
v -0.32384600 -0.38650000 0.71034600
v -0.43874600 -0.34473200 0.72080900
v -0.45391000 -0.30581100 0.69699300
v -0.39695700 -0.33427600 0.69988300
v -0.31341000 -0.37607300 0.68941900
v -0.30008300 -0.38272400 0.68274300
v -0.45391000 -0.37607300 0.72080900
v -0.30008300 -0.39126300 0.70556300
v -0.44919600 -0.32382000 0.71034600
v -0.45391000 -0.32289000 0.71124300
v -0.45391000 -0.34473200 0.72080900
v -0.45391000 -0.31440900 0.70556300
v -0.30008300 -0.38937500 0.70277200
f 28 42 43
f 28 43 29
f 29 43 56
f 29 56 60
f 29 60 59
f 29 40 39
f 29 61 52
f 29 52 40
f 29 46 45
f 27 42 28
f 29 39 46
f 29 59 61
f 26 40 41
f 22 35 23
f 25 42 27
f 25 56 42
f 25 60 56
f 25 51 60
f 25 38 51
f 25 37 38
f 24 35 36
f 23 35 24
f 22 33 35
f 21 34 33
f 21 32 34
f 29 45 44
f 26 39 40
f 29 44 34
f 53 61 58
f 29 32 31
f 19 21 33
f 54 62 55
f 53 62 54
f 53 57 62
f 52 61 53
f 51 58 59
f 51 59 60
f 50 58 51
f 50 53 58
f 49 53 50
f 49 57 53
f 42 56 43
f 40 55 41
f 40 54 55
f 40 53 54
f 58 61 59
f 38 50 51
f 37 50 38
f 37 49 50
f 35 44 45
f 35 48 36
f 35 47 48
f 35 46 47
f 35 45 46
f 33 34 44
f 33 44 35
f 29 31 30
f 29 34 32
f 19 33 22
f 40 52 53
f 17 32 21
f 6 12 14
f 5 13 7
f 5 11 13
f 5 10 11
f 4 10 5
f 4 20 10
f 4 9 20
f 3 8 9
f 2 12 6
f 2 25 12
f 2 37 25
f 2 49 37
f 2 57 49
f 2 62 57
f 2 55 62
f 2 41 55
f 2 13 26
f 2 7 13
f 1 7 2
f 1 5 7
f 1 4 5
f 1 9 4
f 1 3 9
f 1 8 3
f 1 6 8
f 1 2 6
f 17 21 18
f 6 14 8
f 8 14 15
f 2 26 41
f 8 16 17
f 16 32 17
f 8 15 16
f 16 31 32
f 15 31 16
f 15 30 31
f 15 29 30
f 15 28 29
f 14 27 28
f 12 27 14
f 12 25 27
f 11 26 13
f 11 39 26
f 11 46 39
f 14 28 15
f 11 48 47
f 8 17 18
f 8 18 9
f 11 47 46
f 9 19 22
f 9 22 20
f 9 21 19
f 10 20 22
f 9 18 21
f 10 22 23
f 10 23 24
f 10 24 11
f 11 24 36
f 11 36 48

