# https://github.com/mikedh/trimesh
v -0.32827900 0.24048700 -0.72080900
v -0.32827900 0.28205800 -0.72080900
v -0.32361000 0.24048700 -0.72080900
v -0.32827900 0.24048700 -0.45770600
v -0.25070400 0.31340100 -0.72080900
v -0.32827900 0.30296000 -0.71031100
v -0.28204400 0.31732100 -0.71293600
v -0.13974000 0.28205800 -0.72080900
v -0.13974000 0.25360700 -0.71789300
v -0.13974000 0.24048700 -0.70914500
v -0.13974000 0.24048700 -0.52083900
v -0.32827900 0.24665900 -0.40740300
v -0.15670200 0.31340100 -0.72080900
v -0.25070400 0.33430300 -0.71031100
v -0.14103200 0.32908200 -0.71293600
v -0.26637400 0.33690300 -0.70513500
v -0.32827900 0.33789300 -0.64163800
v -0.31338500 0.35648500 -0.62676600
v -0.13974000 0.32776200 -0.71264400
v -0.13974000 0.34472400 0.02395760
v -0.32827900 0.32182400 -0.01489910
v -0.15670200 0.33430300 -0.71031100
v -0.13974000 0.33430300 -0.70185500
v -0.13974000 0.33038200 -0.70965500
v -0.25070400 0.34472400 -0.68946100
v -0.15670200 0.34472400 -0.68946100
v -0.29771400 0.36822700 -0.61109200
v -0.28204400 0.37606700 -0.59541800
v -0.32827900 0.35275900 -0.61189400
v -0.32827900 0.36803300 -0.58054600
v -0.13974000 0.43873400 0.02395760
v -0.32827900 0.33731100 0.02395760
v -0.13974000 0.33626300 -0.69791800
v -0.13974000 0.37606700 -0.59541800
v -0.32827900 0.36861500 -0.57894200
v -0.31338500 0.37606700 -0.56407000
v -0.25070400 0.40741000 -0.43875100
v -0.20371200 0.39957000 -0.48570000
v -0.31338500 0.43873400 0.02395760
v -0.13974000 0.43873400 -0.10843200
v -0.32827900 0.43254300 0.02395760
v -0.15670200 0.40741000 -0.43875100
v -0.13974000 0.40316000 -0.42387900
v -0.32827900 0.39995800 -0.32830500
v -0.31338500 0.40741000 -0.31343300
v -0.25070400 0.43873400 -0.15676600
v -0.21938200 0.43873400 -0.18804100
v -0.31338500 0.43873400 -0.03137500
v -0.15670200 0.43873400 -0.15676600
v -0.13974000 0.40741000 -0.39041700
v -0.32827900 0.43130100 -0.04624700
v -0.18804200 0.43873400 -0.18804100
f 23 26 33
f 25 28 34
f 25 34 26
f 28 36 37
f 27 30 35
f 27 35 36
f 27 36 28
f 28 37 38
f 26 34 33
f 22 26 23
f 18 30 27
f 20 41 32
f 20 39 41
f 20 31 39
f 18 29 30
f 17 29 18
f 16 28 25
f 16 27 28
f 16 18 27
f 16 26 22
f 28 38 34
f 16 25 26
f 20 32 21
f 31 40 49
f 37 45 46
f 31 52 47
f 15 24 19
f 45 48 46
f 45 51 48
f 44 51 45
f 42 50 43
f 42 52 49
f 41 48 51
f 40 42 49
f 40 50 42
f 39 48 41
f 31 49 52
f 37 52 42
f 37 46 47
f 37 42 38
f 36 45 37
f 35 45 36
f 35 44 45
f 34 42 43
f 34 38 42
f 31 48 39
f 31 46 48
f 31 47 46
f 37 47 52
f 15 23 24
f 8 31 20
f 14 22 15
f 3 8 9
f 2 7 5
f 2 6 7
f 1 6 2
f 1 17 6
f 1 29 17
f 1 30 29
f 1 35 30
f 1 44 35
f 1 51 44
f 3 9 10
f 1 41 51
f 1 12 21
f 1 4 12
f 1 11 4
f 1 10 11
f 1 3 10
f 1 8 3
f 1 13 8
f 1 5 13
f 1 2 5
f 15 22 23
f 1 32 41
f 4 11 12
f 1 21 32
f 5 14 15
f 5 7 14
f 14 16 22
f 12 20 21
f 11 20 12
f 8 10 9
f 8 11 10
f 8 40 31
f 8 50 40
f 8 43 50
f 8 34 43
f 8 20 11
f 8 23 33
f 5 15 13
f 8 33 34
f 6 17 18
f 6 18 16
f 7 16 14
f 8 13 15
f 6 16 7
f 8 15 19
f 8 19 24
f 8 24 23

