# https://github.com/mikedh/trimesh
v 0.01059290 -0.26091800 -0.14676900
v 0.14735600 -0.26091800 -0.14676900
v 0.01059290 -0.26091800 -0.09394660
v 0.12537000 -0.00010211 -0.14676900
v 0.16712200 -0.22981900 -0.14676900
v 0.15158200 -0.26091800 -0.13555900
v 0.12537000 -0.00010211 -0.12528300
v 0.07547730 -0.26091800 0.50136700
v 0.18803400 -0.00010211 0.68938700
v 0.23083700 -0.00010211 -0.14676900
v 0.18089700 -0.20229500 -0.14676900
v 0.18018000 -0.23502800 -0.04698390
v 0.16717000 -0.26091800 -0.03203740
v 0.10460100 -0.26091800 0.68938700
v 0.10870700 -0.26091800 0.70781600
v 0.19846600 -0.00010211 0.71027900
v 0.23083700 -0.02142180 -0.14676900
v 0.25067500 -0.00010211 -0.03135800
v 0.25069900 -0.03135400 -0.03127310
v 0.18803400 -0.18802200 -0.14676900
v 0.21152500 -0.17234500 -0.04698390
v 0.21152500 -0.20369900 0.07836310
v 0.16726600 -0.26091800 -0.03127310
v 0.20892200 -0.14625100 -0.14676900
v 0.11126200 -0.26091800 0.71291100
v 0.21930700 -0.00010211 0.72072400
v 0.21935500 -0.12536500 -0.14676900
v 0.25444700 -0.00010211 0.13296900
v 0.25444700 -0.02017070 0.13288400
v 0.25444700 -0.05149930 0.13288400
v 0.25444700 -0.08407890 0.13534700
v 0.25444700 -0.11543300 0.18808400
v 0.25069900 -0.09403660 0.09407400
v 0.21935500 -0.15669400 -0.03127310
v 0.19846600 -0.22981900 0.09407400
v 0.21935500 -0.18802200 0.09407400
v 0.25069900 -0.15669400 0.31334600
v 0.24286900 -0.17234500 0.29772000
v 0.24286900 -0.20369900 0.48574100
v 0.21152500 -0.23502800 0.26646900
v 0.19851400 -0.26091800 0.28133000
v 0.14647300 -0.26091800 0.72080900
v 0.15669000 -0.21937600 0.72080900
v 0.21935500 -0.03135400 0.72080900
v 0.25062700 -0.00010211 0.72080900
v 0.25444700 -0.00010211 0.71894100
v 0.25444700 -0.11791000 0.19929400
v 0.19858600 -0.26091800 0.28209500
v 0.25069900 -0.18802200 0.50136700
v 0.25444700 -0.18056700 0.66926100
v 0.24026700 -0.20890800 0.50136700
v 0.21427000 -0.26091800 0.55385000
v 0.22981100 -0.22981900 0.50136700
v 0.17781700 -0.26091800 0.72080900
v 0.25069900 -0.00010211 0.72080900
v 0.25444700 -0.12722900 0.71894100
v 0.25444700 -0.17806400 0.63673500
v 0.25444700 -0.18056700 0.68938700
v 0.21427000 -0.26091800 0.68938700
v 0.18803400 -0.25070500 0.72080900
v 0.18803400 -0.26091800 0.71851600
v 0.25069900 -0.12536500 0.72080900
v 0.20899400 -0.26091800 0.71036300
v 0.24026700 -0.19846500 0.71027900
v 0.25444700 -0.15618300 0.71248700
v 0.23503900 -0.21153800 0.70509800
v 0.20916100 -0.26091800 0.70985400
v 0.25444700 -0.15781700 0.71104300
f 28 50 57
f 28 57 47
f 28 47 32
f 28 32 31
f 37 49 39
f 28 31 30
f 32 37 36
f 32 47 37
f 32 36 34
f 35 40 48
f 35 48 41
f 28 58 50
f 28 30 29
f 28 68 58
f 25 43 26
f 28 56 65
f 28 46 56
f 27 32 34
f 27 33 32
f 26 44 45
f 26 43 44
f 25 42 43
f 23 35 41
f 22 40 35
f 22 39 40
f 22 38 39
f 22 37 38
f 22 36 37
f 37 39 38
f 28 65 68
f 37 47 49
f 22 34 36
f 39 50 51
f 64 68 65
f 63 67 64
f 60 61 63
f 58 64 66
f 58 68 64
f 58 67 59
f 58 66 67
f 56 60 63
f 56 62 60
f 56 64 65
f 56 63 64
f 54 61 60
f 50 52 51
f 50 59 52
f 39 49 50
f 50 58 59
f 48 53 52
f 47 57 49
f 46 62 56
f 46 55 62
f 42 44 43
f 42 45 44
f 42 55 45
f 42 62 55
f 42 60 62
f 42 54 60
f 40 53 48
f 39 53 40
f 64 67 66
f 39 51 52
f 49 57 50
f 22 35 23
f 39 52 53
f 21 27 34
f 3 9 7
f 3 8 9
f 2 5 6
f 1 5 2
f 1 11 5
f 1 20 11
f 1 24 20
f 1 27 24
f 1 17 27
f 1 10 17
f 1 4 10
f 1 7 4
f 1 3 7
f 1 8 3
f 4 7 9
f 1 14 8
f 1 25 15
f 1 42 25
f 1 54 42
f 1 63 61
f 1 67 63
f 1 59 67
f 1 52 59
f 1 48 52
f 1 41 48
f 1 23 41
f 1 13 23
f 1 6 13
f 1 2 6
f 21 34 22
f 1 15 14
f 4 9 16
f 1 61 54
f 4 26 45
f 21 24 27
f 4 16 26
f 19 33 27
f 19 32 33
f 19 31 32
f 19 30 31
f 19 28 29
f 18 28 19
f 17 19 27
f 16 25 26
f 15 25 16
f 12 24 21
f 12 20 24
f 12 23 13
f 12 22 23
f 19 29 30
f 11 20 12
f 4 45 55
f 4 55 46
f 12 21 22
f 4 46 28
f 4 28 18
f 5 11 12
f 5 12 6
f 4 18 10
f 8 14 9
f 9 14 15
f 9 15 16
f 10 18 19
f 10 19 17
f 6 12 13

