# https://github.com/mikedh/trimesh
v 0.29624700 -0.09401860 0.32758400
v 0.29624700 -0.09086190 0.29467000
v 0.40731400 -0.09401860 0.40740800
v 0.29624700 -0.09401860 0.40740800
v 0.29624700 -0.08205770 0.25893800
v 0.40731400 -0.09397560 0.40728400
v 0.40731400 -0.07314600 0.44911600
v 0.29624700 -0.07812790 0.44345000
v 0.29624700 -0.08285220 0.43400600
v 0.29624700 -0.07125630 0.22500200
v 0.40731400 -0.08429090 0.38359700
v 0.40731400 -0.04181570 0.48045100
v 0.29624700 -0.06827140 0.45738300
v 0.29772600 -0.07050470 0.45441100
v 0.29624700 -0.07162140 0.45292400
v 0.29624700 -0.05321830 0.19750700
v 0.40731400 -0.07312450 0.36560700
v 0.40731400 -0.02085720 0.49097900
v 0.39174400 -0.01566060 0.49358000
v 0.29624700 -0.05699770 0.46726100
v 0.29624700 -0.03133650 0.18509000
v 0.30556500 -0.04699090 0.20373000
v 0.40731400 -0.05442080 0.34136300
v 0.40731400 -0.00009203 0.50138200
v 0.29624700 -0.05135010 0.47007800
v 0.29624700 0.03132420 0.18509000
v 0.40731400 -0.03133650 0.32904000
v 0.40731400 -0.04037690 0.33130000
v 0.40731400 -0.05214460 0.33938100
v 0.40731400 0.00001534 0.50138200
v 0.29624700 -0.02274690 0.47865500
v 0.29624700 0.04253350 0.19066400
v 0.40731400 0.06267600 0.33294100
v 0.40731400 0.06256860 0.33291000
v 0.40731400 0.03132420 0.32904000
v 0.40731400 0.00080987 0.50122800
v 0.29624700 0.03991370 0.47865500
v 0.29624700 0.07684870 0.20933500
v 0.29772600 0.07833040 0.21156400
v 0.40731400 0.08357000 0.35511100
v 0.40731400 0.03132420 0.49441600
v 0.29624700 0.06578970 0.47001600
v 0.29624700 0.07908200 0.21193600
v 0.40731400 0.09398480 0.37594900
v 0.40731400 0.03454530 0.49317700
v 0.33429200 0.08357000 0.45964400
v 0.29624700 0.07684870 0.45738300
v 0.40731400 0.05730750 0.48060600
v 0.40731400 0.06267600 0.47701400
v 0.29624700 0.11752000 0.32368300
v 0.34474000 0.11752000 0.37214100
v 0.40731400 0.09402780 0.37607300
v 0.29624700 0.12535800 0.37607300
v 0.29624700 0.10446400 0.41784300
v 0.40731400 0.06851690 0.47280300
v 0.40731400 0.08357000 0.45964400
v 0.29624700 0.12535800 0.35888800
v 0.31340500 0.12535800 0.37607300
v 0.40731400 0.09402780 0.43865000
v 0.40731400 0.09400630 0.43874300
f 21 26 35
f 21 35 27
f 21 27 28
f 21 28 22
f 22 28 29
f 22 29 23
f 24 37 31
f 24 31 25
f 26 34 35
f 26 32 33
f 26 33 34
f 24 30 37
f 19 25 20
f 7 15 8
f 18 24 19
f 16 23 17
f 16 22 23
f 16 21 22
f 13 15 14
f 12 20 13
f 12 19 20
f 12 18 19
f 10 17 11
f 10 16 17
f 30 36 37
f 7 14 15
f 19 24 25
f 32 38 39
f 53 58 57
f 33 39 40
f 7 13 14
f 58 60 59
f 56 60 58
f 51 59 52
f 51 58 59
f 51 57 58
f 50 57 51
f 46 58 53
f 46 56 58
f 46 55 56
f 46 49 55
f 46 54 47
f 32 39 33
f 46 53 54
f 43 51 44
f 43 50 51
f 42 49 46
f 42 48 49
f 42 45 48
f 42 46 47
f 41 45 42
f 39 44 40
f 39 43 44
f 38 43 39
f 37 41 42
f 36 41 37
f 44 51 52
f 7 12 13
f 3 18 12
f 3 10 6
f 2 5 3
f 1 5 2
f 1 10 5
f 1 16 10
f 1 21 16
f 1 26 21
f 1 32 26
f 1 38 32
f 1 43 38
f 1 50 43
f 1 57 50
f 1 53 57
f 3 6 11
f 1 54 53
f 1 42 47
f 1 37 42
f 1 31 37
f 1 25 31
f 1 20 25
f 1 15 13
f 1 8 15
f 1 9 8
f 1 4 9
f 1 3 4
f 1 2 3
f 6 10 11
f 1 47 54
f 3 11 17
f 1 13 20
f 3 23 29
f 3 5 10
f 3 17 23
f 3 9 4
f 3 8 9
f 3 7 8
f 3 24 18
f 3 30 24
f 3 36 30
f 3 41 36
f 3 45 41
f 3 48 45
f 3 49 48
f 3 12 7
f 3 56 55
f 3 55 49
f 3 27 35
f 3 35 34
f 3 29 28
f 3 33 40
f 3 34 33
f 3 40 44
f 3 44 52
f 3 52 59
f 3 59 60
f 3 60 56
f 3 28 27

