# https://github.com/mikedh/trimesh
v -0.18805300 -0.50143200 0.65812900
v -0.15670600 -0.47009200 0.18808200
v -0.13972200 -0.47009200 0.23631200
v -0.14625200 -0.48053200 0.65812900
v -0.18805300 -0.50143200 0.68941900
v -0.21938400 -0.50143200 0.68941900
v -0.21938400 -0.47009200 0.15679200
v -0.18805300 -0.47009200 0.15679200
v -0.18805300 -0.43875200 -0.18799600
v -0.15670600 -0.43875200 -0.15660700
v -0.13972200 -0.47726000 0.65812900
v -0.13972200 -0.43875200 -0.10837600
v -0.14625200 -0.48053200 0.68941900
v -0.17237100 -0.49358200 0.70506400
v -0.18805300 -0.49097200 0.71034600
v -0.21938400 -0.49097200 0.71034600
v -0.24026100 -0.49097200 0.69988300
v -0.30008300 -0.47009200 0.68941900
v -0.30008300 -0.47009200 0.34473100
v -0.28204700 -0.47009200 0.25066200
v -0.25071500 -0.47009200 0.18808200
v -0.21938400 -0.43875200 -0.18799600
v -0.13972200 -0.40741200 -0.29721200
v -0.13972200 -0.43497700 -0.14155900
v -0.13972200 -0.47726000 0.68941900
v -0.13972200 -0.47400700 0.69599600
v -0.13972200 -0.46621700 0.71154200
v -0.15670600 -0.47400700 0.71293700
v -0.18805300 -0.47009200 0.72080900
v -0.21938400 -0.47009200 0.72080900
v -0.23503400 -0.48575200 0.71293700
v -0.30008300 -0.45963200 0.71034600
v -0.30008300 -0.43875200 -0.03124720
v -0.28204700 -0.43875200 -0.09392690
v -0.25071500 -0.43875200 -0.15660700
v -0.30008300 -0.40741200 -0.29721200
v -0.13972200 -0.30626300 -0.29721200
v -0.13972200 -0.45489400 0.71712200
v -0.13972200 -0.43875200 0.72080900
v -0.30008300 -0.43875200 0.72080900
v -0.30008300 -0.29632500 -0.29721200
v -0.26663200 -0.29799200 -0.29721200
v -0.30008300 -0.29656600 -0.26871200
v -0.13972200 -0.31341100 -0.20234600
v -0.30008300 -0.41006200 0.71811900
v -0.13972200 -0.41933700 0.71592600
v -0.30008300 -0.38273700 0.68274300
v -0.13972200 -0.37609100 0.48703100
v -0.30008300 -0.39129000 0.70556300
v -0.13972200 -0.41028300 0.71223900
v -0.30008300 -0.38940200 0.70277200
v -0.13972200 -0.39891900 0.68941900
v -0.13972200 -0.38325900 0.56406000
f 18 41 36
f 18 36 33
f 18 33 19
f 19 33 20
f 21 35 22
f 20 34 35
f 20 35 21
f 22 35 36
f 18 43 41
f 20 33 34
f 18 47 43
f 15 29 30
f 18 49 51
f 18 45 49
f 18 40 45
f 18 32 40
f 17 31 32
f 16 31 17
f 16 30 31
f 15 30 16
f 15 28 29
f 23 36 41
f 18 51 47
f 23 41 42
f 47 52 53
f 27 38 28
f 50 52 51
f 49 50 51
f 47 53 48
f 14 28 15
f 47 51 52
f 45 50 49
f 45 46 50
f 44 47 48
f 43 47 44
f 41 43 42
f 23 42 37
f 39 46 45
f 37 43 44
f 37 42 43
f 34 36 35
f 33 36 34
f 31 40 32
f 30 40 31
f 29 40 30
f 29 39 40
f 29 38 39
f 28 38 29
f 39 45 40
f 14 27 28
f 17 32 18
f 14 25 26
f 3 50 46
f 3 52 50
f 3 53 52
f 3 48 53
f 3 44 48
f 3 37 44
f 3 23 37
f 3 24 23
f 3 12 24
f 3 11 4
f 2 12 3
f 2 9 10
f 2 8 9
f 1 8 2
f 1 7 8
f 1 21 7
f 1 6 21
f 1 5 6
f 1 13 5
f 1 4 13
f 1 3 4
f 1 2 3
f 14 26 27
f 3 46 39
f 3 39 38
f 2 10 12
f 3 27 26
f 13 25 14
f 3 38 27
f 10 24 12
f 10 23 24
f 9 23 10
f 9 36 23
f 9 22 36
f 7 22 9
f 7 21 22
f 6 20 21
f 6 19 20
f 7 9 8
f 6 18 19
f 6 17 18
f 6 16 17
f 5 16 6
f 5 15 16
f 5 14 15
f 5 13 14
f 4 25 13
f 4 11 25
f 3 25 11
f 3 26 25

