# https://github.com/mikedh/trimesh
v -0.31340900 -0.40741400 -0.31342500
v -0.30456400 -0.40741400 -0.31342500
v -0.31340900 -0.40741400 -0.29725400
v -0.35990200 -0.39198000 -0.29725400
v -0.37608600 -0.37604900 -0.37607700
v -0.34474000 -0.37604900 -0.47011700
v -0.31340900 -0.37604900 -0.56407500
v -0.30456400 -0.40741400 -0.29725400
v -0.30456400 -0.37604900 -0.56407500
v -0.36143700 -0.39122200 -0.29725400
v -0.36041300 -0.39171800 -0.29775100
v -0.41785700 -0.35515700 -0.38652600
v -0.35519400 -0.35515700 -0.57452400
v -0.32906700 -0.36038000 -0.61109500
v -0.30456400 -0.37155700 -0.59094400
v -0.30456400 -0.29331600 -0.29725400
v -0.42410000 -0.35988400 -0.29725400
v -0.42307600 -0.36038000 -0.29775100
v -0.44198000 -0.34794900 -0.29725400
v -0.45391000 -0.33998400 -0.29725400
v -0.44918800 -0.32381900 -0.48056600
v -0.41785700 -0.32381900 -0.57452400
v -0.39173000 -0.32904200 -0.61109500
v -0.38651100 -0.29248000 -0.69991100
v -0.34474000 -0.31337200 -0.68946200
v -0.30456400 -0.35275400 -0.63481300
v -0.45391000 -0.17263700 -0.29800000
v -0.45391000 -0.17336800 -0.29725400
v -0.30456400 -0.28381000 -0.31516600
v -0.45391000 -0.15769900 -0.31442000
v -0.45391000 -0.31439100 -0.48529300
v -0.45391000 -0.29796400 -0.57925100
v -0.45391000 -0.29780800 -0.57987300
v -0.45391000 -0.29720700 -0.58223600
v -0.44918800 -0.29248000 -0.60587100
v -0.42307600 -0.29770300 -0.64244200
v -0.41785700 -0.26116800 -0.69991100
v -0.37085200 -0.27681100 -0.71558500
v -0.36041300 -0.29770300 -0.70513600
v -0.33430200 -0.30292600 -0.71036000
v -0.30456400 -0.31778600 -0.69385700
v -0.30456400 -0.14103700 -0.61109500
v -0.30463700 -0.14064500 -0.61130300
v -0.45391000 -0.14202900 -0.36144000
v -0.45391000 -0.26688700 -0.64194400
v -0.44918800 -0.22982900 -0.69991100
v -0.43353000 -0.21416000 -0.71558500
v -0.40218400 -0.24549900 -0.71558500
v -0.37608600 -0.25072200 -0.72080900
v -0.34474000 -0.28203400 -0.72080900
v -0.30456400 -0.29971400 -0.71197700
v -0.30456400 -0.30292600 -0.71036000
v -0.30456400 -0.14064500 -0.66416900
v -0.45391000 -0.14064500 -0.39398900
v -0.45391000 -0.23455600 -0.67627700
v -0.45391000 -0.20622100 -0.70463800
v -0.45391000 -0.18501500 -0.71774100
v -0.43874900 -0.18804500 -0.72080900
v -0.30456400 -0.28203400 -0.72080900
v -0.30456400 -0.14064500 -0.68946200
v -0.45391000 -0.14064500 -0.72080900
v -0.45391000 -0.15670600 -0.72080900
v -0.30456400 -0.25072200 -0.72080900
v -0.43874900 -0.14064500 -0.72080900
f 24 37 38
f 24 38 39
f 24 39 25
f 25 39 40
f 25 40 26
f 34 45 35
f 29 42 43
f 29 43 30
f 30 43 44
f 24 36 37
f 35 45 36
f 26 40 41
f 23 36 24
f 22 32 33
f 22 35 36
f 22 34 35
f 22 33 34
f 36 45 46
f 21 32 22
f 21 31 32
f 20 31 21
f 20 32 31
f 20 33 32
f 20 34 33
f 20 45 34
f 20 55 45
f 20 56 55
f 22 36 23
f 36 46 37
f 38 50 40
f 37 47 48
f 20 57 56
f 49 59 50
f 49 63 59
f 49 64 63
f 49 61 64
f 49 62 61
f 50 59 51
f 49 58 62
f 47 49 48
f 47 58 49
f 47 57 58
f 46 55 56
f 46 57 47
f 37 46 47
f 46 56 57
f 43 54 44
f 43 61 54
f 43 64 61
f 43 60 64
f 43 53 60
f 42 53 43
f 40 52 41
f 40 51 52
f 40 50 51
f 38 40 39
f 38 49 50
f 38 48 49
f 37 48 38
f 45 55 46
f 20 62 57
f 1 6 7
f 20 54 61
f 3 17 10
f 3 19 17
f 3 20 19
f 3 28 20
f 3 16 28
f 3 8 16
f 2 16 8
f 2 29 16
f 2 42 29
f 2 53 42
f 2 60 53
f 2 63 60
f 2 59 63
f 2 51 59
f 2 52 51
f 2 41 52
f 2 26 41
f 2 15 26
f 2 9 15
f 1 9 2
f 1 7 9
f 1 5 6
f 1 4 5
f 1 3 4
f 1 8 3
f 1 2 8
f 57 62 58
f 3 10 4
f 4 10 11
f 4 11 5
f 5 12 13
f 20 44 54
f 20 30 44
f 20 27 30
f 20 28 27
f 16 30 27
f 16 29 30
f 16 27 28
f 14 26 15
f 14 25 26
f 14 24 25
f 14 23 24
f 13 21 22
f 13 23 14
f 20 61 62
f 13 22 23
f 12 20 21
f 12 19 20
f 12 17 19
f 12 18 17
f 11 18 12
f 10 18 11
f 10 17 18
f 7 15 9
f 7 14 15
f 7 13 14
f 6 13 7
f 5 11 12
f 5 13 6
f 12 21 13
f 60 63 64

