# https://github.com/mikedh/trimesh
v -0.30456400 -0.12734200 -0.61795100
v -0.30456400 -0.00050826 -0.64687300
v -0.30463700 -0.14061900 -0.61129600
v -0.30456400 -0.14061900 -0.66418100
v -0.30456400 -0.00050826 -0.68945600
v -0.45391000 -0.00050826 -0.53361700
v -0.45391000 -0.14061900 -0.39399800
v -0.30456400 -0.14061900 -0.68945600
v -0.43874900 -0.12535300 -0.72080900
v -0.45391000 -0.00050826 -0.71271500
v -0.45391000 -0.14061900 -0.72080900
v -0.43874900 -0.14061900 -0.72080900
v -0.45391000 -0.12535300 -0.72080900
f 3 8 4
f 9 12 11
f 6 11 7
f 6 13 11
f 6 10 13
f 5 9 10
f 5 12 9
f 5 8 12
f 9 13 10
f 3 12 8
f 9 11 13
f 3 7 11
f 2 7 3
f 2 6 7
f 2 10 6
f 2 5 10
f 1 5 2
f 1 8 5
f 1 4 8
f 1 3 4
f 1 2 3
f 3 11 12

