# https://github.com/mikedh/trimesh
v -0.32830900 0.43874000 0.72080900
v -0.32830900 0.40741000 0.72080900
v -0.32830900 0.45519200 0.71248300
v -0.37610000 0.43874000 0.72080900
v -0.56408300 0.24051000 0.72080900
v -0.53997900 0.24051000 0.71474100
v -0.32830900 0.38650800 0.71022600
v -0.32830900 0.45964200 0.71022600
v -0.38653200 0.45964200 0.71022600
v -0.43878100 0.40741000 0.72080900
v -0.59543800 0.24051000 0.72080900
v -0.53451100 0.24051000 0.71248300
v -0.32830900 0.38154100 0.70034800
v -0.32830900 0.46184500 0.70585100
v -0.37610000 0.47009300 0.68934100
v -0.46226000 0.42307500 0.70500400
v -0.44921300 0.42828900 0.71022600
v -0.47402900 0.40741000 0.71290700
v -0.59936100 0.28206600 0.71290700
v -0.59543800 0.25073600 0.72080900
v -0.60694000 0.24051000 0.71812800
v -0.52223600 0.24051000 0.68962300
v -0.32830900 0.37605700 0.68934100
v -0.32830900 0.47009300 0.68934100
v -0.39176300 0.46224900 0.67367700
v -0.43878100 0.43874000 0.65801300
v -0.45967400 0.42828900 0.68934100
v -0.34474500 0.47009300 0.47005000
v -0.37610000 0.43874000 0.18796400
v -0.40742500 0.43874000 0.40739500
v -0.48053800 0.41783800 0.68934100
v -0.54318900 0.35520000 0.68934100
v -0.57454400 0.32384700 0.68934100
v -0.61894700 0.26640100 0.70500400
v -0.62102700 0.24051000 0.71121300
v -0.60587000 0.29251700 0.68934100
v -0.33410500 0.24051000 -0.40739500
v -0.32830900 0.24051000 -0.45763200
v -0.32830900 0.47009300 0.47005000
v -0.45444300 0.43089600 0.64235000
v -0.42308800 0.43089600 0.39173200
v -0.45967400 0.42828900 0.65801300
v -0.32830900 0.46263100 0.32978300
v -0.34474500 0.43874000 0.06265450
v -0.39176300 0.43089600 0.17230000
v -0.37610000 0.40741000 -0.12530900
v -0.48053800 0.41783800 0.65801300
v -0.54318900 0.35520000 0.40739500
v -0.57454400 0.32384700 0.40739500
v -0.63187500 0.24051000 0.68934100
v -0.60587000 0.29251700 0.56403200
v -0.61633100 0.27161500 0.56403200
v -0.63187500 0.24051000 0.54865000
v -0.32830900 0.24051000 -0.72080900
v -0.44921300 0.41783800 0.40739500
v -0.45444300 0.39956600 0.20362700
v -0.32830900 0.43130100 -0.04614420
v -0.34474500 0.40741000 -0.25061800
v -0.39176300 0.39956600 -0.14097300
v -0.42308800 0.39956600 0.01566360
v -0.48053800 0.38650800 0.21929100
v -0.51186400 0.38650800 0.47005000
v -0.51186400 0.35520000 0.12530900
v -0.54318900 0.32384700 0.09398180
v -0.57454400 0.29251700 0.15663600
v -0.60587000 0.26116400 0.28194500
v -0.61621300 0.24051000 0.28194500
v -0.38632400 0.24051000 -0.72080900
v -0.32830900 0.28206600 -0.72080900
v -0.44921300 0.38650800 0.03132730
v -0.32830900 0.39997100 -0.32823100
v -0.32830900 0.36861800 -0.57899000
v -0.36040700 0.39956600 -0.26628200
v -0.39176300 0.36823600 -0.39173200
v -0.42308800 0.36823600 -0.26628200
v -0.45444300 0.36823600 -0.10964500
v -0.48053800 0.35520000 -0.09398180
v -0.51186400 0.32384700 -0.15663600
v -0.54318900 0.29251700 -0.12530900
v -0.57454400 0.26116400 -0.03132730
v -0.58488700 0.24051000 -0.03132730
v -0.37610000 0.25073600 -0.72080900
v -0.42157200 0.24051000 -0.71290700
v -0.32830900 0.29303400 -0.71530600
v -0.34474500 0.28206600 -0.72080900
v -0.32830900 0.36803300 -0.58054200
v -0.32908200 0.36823600 -0.57969500
v -0.39176300 0.33690500 -0.57969500
v -0.42308800 0.33690500 -0.48571400
v -0.44921300 0.35520000 -0.25061800
v -0.48053800 0.29251700 -0.53270400
v -0.51186400 0.29251700 -0.34460000
v -0.51186400 0.26116400 -0.50137700
v -0.54318900 0.26116400 -0.28194500
v -0.55353200 0.24051000 -0.28194500
v -0.37610000 0.28597700 -0.71290700
v -0.47694200 0.24051000 -0.63360100
v -0.45444300 0.25855700 -0.64235000
v -0.42308800 0.28991000 -0.64235000
v -0.34474500 0.30296800 -0.71022600
v -0.32830900 0.30296800 -0.71022600
v -0.32830900 0.35277300 -0.61186900
v -0.36040700 0.30557500 -0.70500400
v -0.34474500 0.35648100 -0.59535900
v -0.43878100 0.32515100 -0.50137700
v -0.40742500 0.32515100 -0.59535900
v -0.44921300 0.32384700 -0.47005000
v -0.45444300 0.30557500 -0.54836800
v -0.44921300 0.29251700 -0.59535900
v -0.48053800 0.26116400 -0.59535900
v -0.50401700 0.24051000 -0.58195300
v -0.52220600 0.24051000 -0.50137700
v -0.38653200 0.29251700 -0.68934100
v -0.42308800 0.30557500 -0.61102300
v -0.32830900 0.33789400 -0.64164400
f 63 78 64
f 63 77 78
f 61 63 62
f 61 77 63
f 61 70 77
f 60 76 77
f 59 76 60
f 59 75 76
f 59 74 75
f 60 77 70
f 64 78 79
f 68 83 82
f 65 79 80
f 65 80 66
f 66 80 81
f 66 81 67
f 69 85 84
f 72 86 87
f 72 87 73
f 73 87 74
f 74 87 88
f 74 88 89
f 59 73 74
f 74 89 75
f 64 79 65
f 58 72 73
f 49 65 66
f 57 71 58
f 75 89 90
f 41 56 55
f 43 57 44
f 44 57 58
f 45 59 60
f 45 60 56
f 46 58 73
f 46 73 59
f 47 55 61
f 47 61 62
f 47 62 48
f 48 62 63
f 48 63 64
f 48 64 49
f 49 66 51
f 49 64 65
f 51 53 52
f 51 66 53
f 53 66 67
f 54 68 82
f 54 82 85
f 54 85 69
f 55 56 61
f 56 60 70
f 56 70 61
f 58 71 72
f 75 90 76
f 91 108 106
f 77 90 91
f 91 106 109
f 91 109 110
f 91 110 111
f 91 111 93
f 91 93 92
f 93 111 112
f 93 95 94
f 96 99 113
f 96 113 103
f 96 103 100
f 97 111 110
f 41 45 56
f 97 110 98
f 98 109 99
f 99 109 114
f 99 114 103
f 99 103 113
f 100 103 115
f 100 115 101
f 102 115 103
f 103 114 106
f 103 106 104
f 105 106 108
f 106 114 109
f 98 110 109
f 91 105 108
f 91 107 105
f 90 107 91
f 77 91 78
f 78 91 92
f 78 92 79
f 79 92 93
f 79 93 94
f 79 94 80
f 80 94 95
f 80 95 81
f 82 83 96
f 82 96 85
f 83 97 98
f 83 98 99
f 83 99 96
f 84 85 100
f 84 100 101
f 85 96 100
f 86 102 103
f 86 103 87
f 87 103 104
f 87 104 106
f 87 106 88
f 88 105 89
f 88 106 105
f 89 105 107
f 89 107 90
f 76 90 77
f 40 55 47
f 93 112 95
f 40 47 42
f 3 9 4
f 4 9 10
f 5 11 21
f 5 21 35
f 5 35 50
f 5 50 53
f 5 53 67
f 5 67 81
f 5 81 95
f 5 95 112
f 5 112 111
f 3 8 9
f 5 111 97
f 5 83 68
f 5 68 54
f 5 54 38
f 5 38 37
f 5 37 22
f 5 22 12
f 5 12 6
f 6 12 7
f 7 12 13
f 8 14 9
f 9 14 15
f 5 97 83
f 2 6 7
f 2 5 6
f 1 5 2
f 40 41 55
f 1 2 7
f 1 7 13
f 1 13 23
f 1 23 38
f 1 38 54
f 1 54 69
f 1 69 84
f 1 84 101
f 1 101 115
f 1 115 102
f 1 102 86
f 1 86 72
f 1 72 71
f 1 71 57
f 1 57 43
f 1 43 39
f 1 39 24
f 1 24 14
f 1 14 8
f 1 3 4
f 1 4 10
f 1 10 20
f 1 20 11
f 1 11 5
f 9 15 16
f 9 16 17
f 1 8 3
f 10 17 18
f 23 37 38
f 25 41 40
f 26 40 42
f 27 42 47
f 27 47 31
f 28 39 43
f 28 43 44
f 28 44 29
f 29 45 41
f 29 41 30
f 29 44 58
f 29 58 46
f 29 46 59
f 29 59 45
f 31 48 32
f 32 48 49
f 32 49 33
f 33 49 51
f 33 51 36
f 34 50 35
f 34 36 51
f 34 51 52
f 34 52 53
f 34 53 50
f 9 17 10
f 22 37 23
f 19 36 34
f 31 47 48
f 19 21 20
f 10 18 19
f 19 33 36
f 10 19 20
f 11 20 21
f 12 22 23
f 12 23 13
f 14 24 15
f 15 40 26
f 15 26 42
f 15 42 27
f 15 27 16
f 15 24 39
f 15 39 28
f 15 25 40
f 15 29 30
f 19 34 35
f 15 30 41
f 15 41 25
f 16 27 31
f 16 31 18
f 16 18 17
f 19 35 21
f 18 31 32
f 18 32 33
f 18 33 19
f 15 28 29

