# https://github.com/mikedh/trimesh
v -0.36365600 0.24048700 -0.36294500
v -0.36521900 0.24048700 -0.34597200
v -0.46638200 0.12397300 -0.36294500
v -0.53740600 0.24048700 -0.36294500
v -0.52222500 0.24048700 0.68940800
v -0.53275000 0.21937400 0.68940800
v -0.57452900 0.13581200 0.68940800
v -0.58046100 0.12397300 0.68940800
v -0.59545100 0.12397300 -0.36294500
v -0.53884100 0.23857100 -0.36294500
v -0.55354400 0.24048700 -0.28200300
v -0.52228900 0.24048700 0.68962000
v -0.54321100 0.20892600 0.71030700
v -0.57452900 0.14626100 0.71030700
v -0.57975900 0.13320000 0.70510900
v -0.58240700 0.12397300 0.69715200
v -0.59545100 0.12536400 -0.36294500
v -0.62676900 0.12397300 -0.12669600
v -0.58607400 0.15227200 -0.36294500
v -0.58760500 0.16062100 -0.34469900
v -0.57452900 0.19847800 -0.31329800
v -0.57452900 0.22982200 -0.18801300
v -0.58489400 0.24048700 -0.03132650
v -0.53450400 0.24048700 0.71253500
v -0.56410000 0.21937400 0.72080900
v -0.59545100 0.15670900 0.72080900
v -0.59545100 0.12397300 0.71348900
v -0.59331400 0.12397300 0.71264100
v -0.59207000 0.12397300 0.71126200
v -0.62676900 0.12536400 -0.12531700
v -0.59545100 0.15670900 -0.31329800
v -0.59216600 0.14013500 -0.36294500
v -0.65811900 0.12397300 0.18657000
v -0.59545100 0.18803000 -0.18801300
v -0.59545100 0.21937400 -0.03132650
v -0.61634000 0.24025900 0.28204600
v -0.61621300 0.24048700 0.28204600
v -0.53995800 0.24048700 0.71476200
v -0.56410000 0.24048700 0.72080900
v -0.62676900 0.12397300 0.72080900
v -0.62676900 0.15670900 -0.03132650
v -0.65811900 0.12536400 0.18794900
v -0.68947000 0.12397300 0.68802900
v -0.61634000 0.17759300 -0.03132650
v -0.62676900 0.21937400 0.28204600
v -0.65811900 0.18803000 0.53272200
v -0.63723000 0.22982200 0.53272200
v -0.63190400 0.24048700 0.54874100
v -0.59545100 0.24048700 0.72080900
v -0.65811900 0.12397300 0.72080900
v -0.65811900 0.15670900 0.34463500
v -0.68947000 0.12536400 0.68940800
v -0.68947000 0.12397300 0.68940800
v -0.63190400 0.24048700 0.68940800
v -0.60693200 0.24048700 0.71815700
v -0.62676900 0.18803000 0.72080900
v -0.65811900 0.12536400 0.72080900
v -0.67900900 0.12397300 0.71030700
v -0.68162400 0.14103600 0.70510900
v -0.67948700 0.12397300 0.70935200
v -0.65027400 0.20370200 0.70510900
v -0.62654600 0.24048700 0.70012300
v -0.62102800 0.24048700 0.71115500
v -0.63069200 0.21937400 0.71295900
v -0.66204200 0.15670900 0.71295900
v -0.67900900 0.12536400 0.71030700
f 35 44 36
f 25 40 26
f 25 38 39
f 26 40 27
f 30 41 31
f 30 42 41
f 33 43 52
f 25 50 40
f 33 52 42
f 36 45 46
f 34 41 44
f 34 44 35
f 31 41 34
f 25 57 50
f 20 31 21
f 25 49 56
f 25 39 49
f 24 38 25
f 23 36 37
f 23 35 36
f 23 34 35
f 22 34 23
f 22 31 34
f 21 31 22
f 20 32 31
f 19 32 20
f 18 42 30
f 36 46 47
f 25 56 57
f 36 47 37
f 56 65 57
f 36 41 45
f 61 63 62
f 61 64 63
f 59 64 61
f 59 65 64
f 59 66 65
f 58 59 60
f 58 66 59
f 57 65 66
f 18 33 42
f 56 64 65
f 55 64 56
f 55 63 64
f 54 61 62
f 54 59 61
f 36 44 41
f 53 60 59
f 52 53 59
f 50 66 58
f 50 57 66
f 49 55 56
f 48 52 54
f 46 51 52
f 46 48 47
f 46 52 48
f 45 51 46
f 43 53 52
f 42 52 51
f 41 51 45
f 41 42 51
f 37 47 48
f 52 59 54
f 17 31 32
f 14 28 29
f 17 18 30
f 3 16 29
f 3 8 16
f 2 8 3
f 2 7 8
f 2 6 7
f 2 5 6
f 1 5 2
f 1 12 5
f 1 24 12
f 1 38 24
f 1 39 38
f 1 49 39
f 1 55 49
f 3 29 28
f 1 63 55
f 1 54 62
f 1 48 54
f 17 30 31
f 1 23 37
f 1 11 23
f 1 4 11
f 1 10 4
f 1 19 10
f 1 32 19
f 1 17 32
f 1 9 17
f 1 3 9
f 1 2 3
f 1 62 63
f 3 28 27
f 1 37 48
f 3 40 50
f 3 27 40
f 15 29 16
f 14 29 15
f 14 27 28
f 14 26 27
f 14 25 26
f 13 24 25
f 12 24 13
f 11 22 23
f 11 21 22
f 10 21 11
f 10 20 21
f 10 19 20
f 9 18 17
f 13 25 14
f 7 15 8
f 3 50 58
f 8 15 16
f 3 58 60
f 3 60 53
f 3 43 33
f 3 33 18
f 3 53 43
f 4 10 11
f 5 12 13
f 5 13 6
f 6 13 14
f 6 14 15
f 6 15 7
f 3 18 9

