# https://github.com/mikedh/trimesh
v -0.33372000 0.11868600 -0.60878400
v -0.33379900 0.12965500 -0.60874900
v -0.33653000 0.12965500 -0.60328400
v -0.46453200 0.12965500 -0.36294500
v -0.33372000 -0.00049454 -0.63228900
v -0.33372000 0.12965500 -0.67218800
v -0.59447800 0.12965500 -0.36294500
v -0.47792600 0.07188000 -0.36294500
v -0.33372000 -0.00049454 -0.68945700
v -0.50132600 -0.00049454 -0.36294500
v -0.33372000 0.12965500 -0.68945700
v -0.59447800 0.12965500 -0.37226300
v -0.59545000 0.12534900 -0.36294500
v -0.47007400 -0.00049454 -0.72080900
v -0.43876900 0.12534900 -0.72080900
v -0.43393700 0.12965500 -0.71972300
v -0.60201600 -0.00049454 -0.36294500
v -0.59329700 0.12965500 -0.40743300
v -0.59545000 0.12534900 -0.40743300
v -0.60201600 0.02478110 -0.36294500
v -0.50143100 -0.00049454 -0.72080900
v -0.43876900 0.12965500 -0.72080900
v -0.59545000 -0.00049454 -0.56408600
v -0.56314700 0.12965500 -0.59161900
v -0.59545000 0.06268190 -0.53280400
v -0.56409300 0.12534900 -0.59543800
v -0.59545000 0.03134210 -0.56408600
v -0.50143100 0.09400900 -0.72080900
v -0.52231000 -0.00049454 -0.71033500
v -0.47007400 0.12965500 -0.72080900
v -0.58499800 -0.00049454 -0.58499900
v -0.55981200 0.12965500 -0.60402000
v -0.58759800 0.06659300 -0.56408600
v -0.58499800 0.04178870 -0.58499900
v -0.52231000 0.10445600 -0.71033500
v -0.50098500 0.12965500 -0.71306800
v -0.53326100 -0.00049454 -0.68847700
v -0.55408700 0.12965500 -0.61803200
v -0.53276200 0.09400900 -0.68945700
v -0.51708300 0.11751400 -0.70511600
v -0.50132600 0.12965500 -0.71292700
v -0.51361700 0.12965500 -0.69471200
f 21 29 35
f 21 35 28
f 20 25 27
f 19 26 25
f 19 24 26
f 19 25 20
f 18 24 19
f 17 27 23
f 40 42 41
f 15 22 16
f 14 22 15
f 14 30 22
f 14 28 30
f 14 21 28
f 13 19 20
f 23 27 34
f 12 18 19
f 17 20 27
f 23 34 31
f 32 39 34
f 25 33 27
f 9 16 11
f 38 42 40
f 35 38 40
f 35 37 39
f 35 41 36
f 35 40 41
f 34 39 37
f 32 35 39
f 32 38 35
f 31 34 37
f 29 37 35
f 28 36 30
f 28 35 36
f 27 32 34
f 26 27 33
f 26 32 27
f 25 26 33
f 24 32 26
f 9 15 16
f 2 42 38
f 7 19 13
f 9 14 15
f 2 38 32
f 2 41 42
f 2 36 41
f 2 30 36
f 2 22 30
f 2 16 22
f 2 24 18
f 2 11 16
f 1 6 2
f 1 11 6
f 1 9 11
f 1 5 9
f 1 4 5
f 1 3 4
f 1 2 3
f 2 6 11
f 2 18 12
f 2 32 24
f 2 7 4
f 7 12 19
f 5 14 9
f 5 21 14
f 5 29 21
f 5 37 29
f 2 12 7
f 5 23 31
f 5 17 23
f 5 31 37
f 5 8 10
f 4 8 5
f 4 10 8
f 4 17 10
f 4 20 17
f 4 13 20
f 4 7 13
f 2 4 3
f 5 10 17

