# https://github.com/mikedh/trimesh
v -0.13972200 -0.00003978 -0.68946800
v 0.06265290 -0.00003978 -0.72079400
v -0.13972200 -0.00003978 -0.65812600
v -0.13972200 0.25357500 -0.71792400
v -0.12535100 0.25070300 -0.72079400
v 0.09398690 -0.00003978 -0.72079400
v 0.03333530 -0.00003978 -0.56568100
v 0.03055080 -0.00000296 -0.56568100
v -0.13972200 0.21778600 -0.56568100
v -0.13972200 0.28203700 -0.72079400
v 0.11488700 -0.00003978 -0.71036200
v 0.09398690 0.09403480 -0.72079400
v 0.10967000 0.10972000 -0.71297400
v 0.18725300 -0.00003978 -0.56568100
v -0.13972200 0.37603700 -0.56568100
v -0.13972200 0.32773000 -0.71264000
v -0.06265100 0.28203700 -0.72079400
v 0.12535300 0.00003386 -0.68946800
v 0.12532100 -0.00003978 -0.68951300
v 0.11488700 0.09403480 -0.71036200
v 0.06265290 0.15670200 -0.72079400
v 0.11488700 0.11494800 -0.69991500
v 0.12535300 0.09403480 -0.68946800
v 0.07833590 0.17238700 -0.71297400
v 0.10967000 0.20368400 -0.63463500
v 0.17758700 -0.00003978 -0.58501100
v 0.18725300 0.03136750 -0.56568100
v -0.09558520 0.37603700 -0.56568100
v -0.13972200 0.37603700 -0.59545800
v -0.13972200 0.33034400 -0.70969400
v -0.04700000 0.29772200 -0.71297400
v 0.00001699 0.21936900 -0.72079400
v 0.14622100 0.14628200 -0.60590500
v 0.15668700 0.12536800 -0.59545800
v 0.15668700 0.06270110 -0.62680000
v 0.17758700 0.03136750 -0.58501100
v 0.04700190 0.23501800 -0.69730300
v 0.08355290 0.17761600 -0.69991500
v 0.01570000 0.29772200 -0.63463500
v 0.04700190 0.29772200 -0.57195200
v 0.07833590 0.26635100 -0.57195200
v 0.10445300 0.22978900 -0.58501100
v 0.11488700 0.20891200 -0.60590500
v 0.18488400 0.04392300 -0.56568100
v -0.12535100 0.37603700 -0.59545800
v -0.09401690 0.37570600 -0.56568100
v -0.13972200 0.33623500 -0.69795600
v -0.13972200 0.33428400 -0.70187400
v -0.13578500 0.33428400 -0.69991500
v -0.04178300 0.30291300 -0.69991500
v 0.14100400 0.17238700 -0.57195200
v 0.14858900 0.15869000 -0.56568100
v 0.18017900 0.06505760 -0.56568100
v 0.18017900 0.06270110 -0.56803400
v 0.14935700 0.15670200 -0.56568100
v -0.01566600 0.32905500 -0.60329300
v 0.04700190 0.29772200 -0.56568100
v -0.01041700 0.33428400 -0.57456400
v -0.00155131 0.32982900 -0.56568100
v 0.07833590 0.26635100 -0.56568100
v 0.10445300 0.22978900 -0.56568100
v 0.13684300 0.18074500 -0.56568100
v 0.18072300 0.06270110 -0.56568100
v -0.09401690 0.36823200 -0.59937600
v -0.09088030 0.37449100 -0.56568100
v -0.07833390 0.36038900 -0.60329300
v -0.07311690 0.36561700 -0.57456400
v -0.07065250 0.36620700 -0.56568100
f 30 48 49
f 29 45 47
f 34 44 35
f 27 35 44
f 28 46 45
f 30 49 31
f 34 54 44
f 31 50 37
f 33 43 51
f 33 51 52
f 33 52 34
f 34 53 54
f 25 43 33
f 31 49 50
f 25 42 43
f 24 37 38
f 25 40 41
f 25 39 40
f 25 37 39
f 25 38 37
f 24 38 25
f 24 31 37
f 23 27 36
f 23 35 27
f 23 34 35
f 22 25 33
f 22 34 23
f 22 33 34
f 21 32 24
f 25 41 42
f 34 52 55
f 65 68 67
f 37 50 39
f 18 36 26
f 64 67 66
f 64 65 67
f 58 68 59
f 58 67 68
f 58 66 67
f 56 66 58
f 53 63 54
f 51 62 52
f 50 66 56
f 50 64 66
f 49 64 50
f 47 64 49
f 47 49 48
f 34 55 53
f 46 65 64
f 45 46 64
f 44 54 63
f 43 62 51
f 42 62 43
f 42 61 62
f 41 61 42
f 41 60 61
f 40 59 57
f 40 58 59
f 40 56 58
f 40 60 41
f 40 57 60
f 39 56 40
f 39 50 56
f 45 64 47
f 18 23 36
f 18 26 19
f 1 2 6
f 7 27 44
f 7 14 27
f 6 13 11
f 6 12 13
f 4 10 5
f 3 8 9
f 3 7 8
f 2 12 6
f 2 21 12
f 2 32 21
f 2 17 32
f 2 10 17
f 2 5 10
f 1 4 5
f 7 44 63
f 1 10 4
f 1 30 16
f 1 48 30
f 1 47 48
f 1 29 47
f 1 15 29
f 1 9 15
f 1 3 9
f 1 7 3
f 1 14 7
f 1 26 14
f 1 19 26
f 1 11 19
f 1 6 11
f 17 24 32
f 1 16 10
f 7 63 53
f 1 5 2
f 7 55 52
f 7 53 55
f 16 31 17
f 16 30 31
f 15 45 29
f 15 28 45
f 14 36 27
f 14 26 36
f 13 25 22
f 13 24 25
f 13 23 20
f 13 22 23
f 12 24 13
f 12 21 24
f 11 23 18
f 11 20 23
f 17 31 24
f 11 18 19
f 11 13 20
f 7 62 61
f 7 61 60
f 7 60 57
f 7 57 59
f 7 59 68
f 7 68 65
f 7 52 62
f 7 46 28
f 7 28 15
f 7 15 9
f 7 9 8
f 10 16 17
f 7 65 46

