# https://github.com/mikedh/trimesh
v 0.22158100 0.18994100 0.35883700
v 0.22862600 0.18640900 0.35883700
v 0.22158100 0.18994100 0.21822100
v -0.22158100 0.18994100 0.35883700
v 0.22875400 0.18616100 0.21822100
v 0.22862600 0.18640900 0.21822100
v 0.23214800 0.17937400 0.35883700
v -0.22158100 0.18994100 0.21822100
v -0.22862600 0.18640900 0.35876900
v -0.22856200 0.18644000 0.35883700
v 0.23214800 0.17937400 0.21822100
v 0.31655400 -0.07385570 0.35883700
v 0.32712100 -0.07385570 0.25326800
v -0.22862600 0.18640900 0.21822100
v -0.23214800 0.17937400 0.35883700
v 0.32712100 -0.07385570 0.24271000
v 0.32359900 -0.06682150 0.23918600
v 0.31821900 -0.07215130 0.21822100
v 0.31655400 -0.09495820 0.35883700
v 0.32712100 -0.08439140 0.25326800
v -0.23214800 0.17937400 0.21822100
v -0.32712100 -0.07385570 0.25326800
v -0.31655400 -0.07385570 0.35876900
v -0.31655400 -0.07388660 0.35883700
v 0.32712100 -0.09495820 0.24271000
v 0.32443100 -0.10022600 0.23743800
v 0.31738700 -0.07683050 0.21822100
v 0.31303200 -0.10202300 0.35883700
v -0.31821900 -0.07385570 0.21822100
v -0.32359900 -0.07032310 0.23567600
v -0.32712100 -0.07385570 0.24271000
v -0.32712100 -0.08439140 0.25326800
v -0.31655400 -0.09489620 0.35883700
v 0.32007600 -0.10902600 0.24271000
v 0.31783500 -0.10549400 0.23479500
v 0.31034200 -0.09616670 0.21822100
v 0.31392800 -0.08910150 0.21822100
v 0.31559300 -0.08488720 0.21822100
v 0.31123900 -0.11342700 0.25854100
v 0.29196200 -0.11255900 0.35883700
v -0.31725900 -0.08439140 0.21822100
v -0.32712100 -0.09495820 0.24271000
v -0.31655400 -0.09495820 0.35876900
v -0.31649000 -0.09508210 0.35883700
v 0.31392800 -0.11079300 0.23743800
v 0.30598700 -0.11606100 0.25326800
v 0.28485400 -0.12662700 0.24271000
v 0.30361800 -0.10310800 0.21822100
v 0.28485400 -0.11609200 0.35883700
v 0.29016900 -0.12396200 0.24798200
v -0.32007600 -0.10902600 0.23918600
v -0.31348000 -0.09334680 0.21822100
v -0.32359900 -0.10199200 0.24622000
v -0.31303200 -0.10199200 0.35883700
v 0.28837600 -0.12309500 0.23567600
v 0.30951000 -0.11252800 0.23567600
v -0.28485400 -0.12662700 0.24271000
v 0.29542100 -0.10719800 0.21822100
v -0.28479000 -0.11609200 0.35883700
v -0.30598700 -0.11606100 0.25326800
v -0.31303200 -0.11252800 0.25677900
v -0.30951000 -0.09849070 0.21822100
v -0.30419400 -0.10372800 0.21822100
v -0.29894300 -0.11956200 0.23918600
v -0.29964700 -0.10973900 0.35883700
v -0.28133200 -0.12309500 0.23567600
v -0.29542100 -0.10719800 0.21822100
f 32 42 33
f 33 42 43
f 33 43 44
f 34 45 35
f 34 39 46
f 35 45 48
f 34 47 45
f 35 48 36
f 39 50 46
f 29 31 30
f 39 40 49
f 39 49 50
f 34 46 47
f 29 42 31
f 25 28 34
f 28 40 39
f 28 39 34
f 26 38 27
f 26 37 38
f 26 36 37
f 26 35 36
f 26 34 35
f 25 34 26
f 22 24 23
f 22 33 24
f 22 32 33
f 41 51 42
f 22 31 42
f 22 42 32
f 29 41 42
f 41 52 51
f 51 64 57
f 42 53 43
f 63 67 64
f 21 30 31
f 60 65 61
f 57 67 66
f 57 64 67
f 57 65 60
f 57 59 65
f 55 67 58
f 55 66 67
f 54 61 65
f 51 63 64
f 51 62 63
f 51 52 62
f 51 54 53
f 51 61 54
f 51 60 61
f 51 57 60
f 48 56 55
f 48 55 58
f 47 66 55
f 47 57 66
f 47 49 59
f 47 50 49
f 46 50 47
f 45 47 55
f 45 56 48
f 45 55 56
f 44 53 54
f 43 53 44
f 42 51 53
f 21 29 30
f 47 59 57
f 19 28 25
f 3 36 48
f 3 37 36
f 3 38 37
f 3 27 38
f 3 18 27
f 3 11 18
f 3 5 11
f 3 6 5
f 2 7 5
f 2 5 6
f 1 7 2
f 1 12 7
f 1 19 12
f 1 28 19
f 1 40 28
f 1 59 49
f 1 65 59
f 1 54 65
f 1 44 54
f 1 33 44
f 1 24 33
f 1 15 24
f 1 10 15
f 1 4 10
f 1 8 4
f 1 3 8
f 1 6 3
f 1 2 6
f 19 25 20
f 3 48 58
f 3 58 67
f 1 49 40
f 3 63 62
f 3 67 63
f 18 25 26
f 16 18 17
f 16 25 18
f 15 23 24
f 15 22 23
f 15 31 22
f 13 25 16
f 13 20 25
f 12 20 13
f 12 19 20
f 11 17 18
f 11 16 17
f 9 15 10
f 15 21 31
f 9 14 21
f 3 62 52
f 9 21 15
f 3 52 41
f 3 41 29
f 3 29 21
f 3 21 14
f 3 14 8
f 4 8 14
f 18 26 27
f 4 14 9
f 4 9 10
f 5 7 11
f 7 12 13
f 7 13 16
f 7 16 11

