# https://github.com/mikedh/trimesh
v -0.17050400 -0.02098910 -0.49925000
v -0.23216000 -0.02098910 -0.49925000
v -0.17050400 -0.07386510 -0.49925000
v -0.17050400 -0.02098910 -0.64367300
v -0.27435400 -0.03166150 -0.49925000
v -0.36580700 -0.02098910 -0.59446300
v -0.26871000 -0.10715400 -0.49925000
v -0.24798300 -0.11343200 -0.51180300
v -0.25325700 -0.12003000 -0.51706400
v -0.17412400 -0.12398000 -0.59622500
v -0.17050400 -0.11947100 -0.59441400
v -0.17050400 -0.10718500 -0.64367300
v -0.23918600 -0.07386510 -0.73161800
v -0.24798300 -0.05804260 -0.73599800
v -0.24798300 -0.04749430 -0.73073700
v -0.26382500 -0.03869370 -0.73161800
v -0.25853100 -0.03693560 -0.72545200
v -0.25678000 -0.03517760 -0.72107200
v -0.26382500 -0.03166150 -0.71754800
v -0.35876200 -0.02098910 -0.64367300
v -0.27653400 -0.03274730 -0.49925000
v -0.32711600 -0.07386510 -0.51706400
v -0.32446900 -0.06859090 -0.51180300
v -0.28138000 -0.03517760 -0.49925000
v -0.36931100 -0.02098910 -0.60148600
v -0.36580700 -0.11606900 -0.59446300
v -0.27762400 -0.10916100 -0.49925000
v -0.26382500 -0.11958500 -0.51356500
v -0.25853100 -0.12398000 -0.52235000
v -0.17939800 -0.12662700 -0.60148600
v -0.17050400 -0.12218100 -0.60148600
v -0.17050400 -0.11606900 -0.64169000
v -0.24975400 -0.08441340 -0.74216500
v -0.24975400 -0.07386510 -0.74216500
v -0.25325700 -0.06331680 -0.74260500
v -0.26382500 -0.05276850 -0.74260500
v -0.25853100 -0.04749430 -0.73599800
v -0.27435400 -0.04925240 -0.74216500
v -0.28490300 -0.03869370 -0.73161800
v -0.28490300 -0.03166150 -0.71754800
v -0.35901500 -0.02098910 -0.64355000
v -0.32711600 -0.08441340 -0.51706400
v -0.32359400 -0.07386510 -0.51004100
v -0.31586700 -0.08371020 -0.49925000
v -0.31522500 -0.07842570 -0.49925000
v -0.31446600 -0.07309980 -0.49925000
v -0.36931100 -0.11606900 -0.60148600
v -0.36931100 -0.02098910 -0.63312600
v -0.36580700 -0.12310100 -0.59798700
v -0.36403600 -0.12134300 -0.59358200
v -0.32184200 -0.08968760 -0.50916000
v -0.32359400 -0.08441340 -0.51004100
v -0.28817200 -0.10916100 -0.49925000
v -0.28490300 -0.11958500 -0.51356500
v -0.26382500 -0.12310100 -0.52058800
v -0.26382500 -0.12662700 -0.52763500
v -0.17939800 -0.12662700 -0.63312600
v -0.17050400 -0.12218100 -0.63312600
v -0.17050400 -0.11858200 -0.64073600
v -0.25063000 -0.10024600 -0.73338000
v -0.25590400 -0.08968760 -0.74392700
v -0.25678000 -0.08441340 -0.74568800
v -0.25853100 -0.06859090 -0.74656900
v -0.26909900 -0.05804260 -0.74656900
v -0.28490300 -0.04925240 -0.74216500
v -0.30072600 -0.05013140 -0.73338000
v -0.30072600 -0.03957270 -0.72280900
v -0.29017700 -0.03429850 -0.72280900
v -0.36580700 -0.02098910 -0.64014900
v -0.31127400 -0.08968760 -0.49925000
v -0.32184200 -0.10024600 -0.51444600
v -0.36931100 -0.11606900 -0.63312600
v -0.36919400 -0.02098910 -0.63337100
v -0.35876200 -0.12662700 -0.60148600
v -0.29545100 -0.12398000 -0.52631400
v -0.30072600 -0.12134300 -0.52499300
v -0.31127400 -0.11079500 -0.51444600
v -0.36580700 -0.12310100 -0.62960200
v -0.32446900 -0.09496180 -0.51576700
v -0.28846400 -0.10908800 -0.49925000
v -0.28490300 -0.12310100 -0.52058800
v -0.28490300 -0.12662700 -0.52763500
v -0.35876200 -0.12662700 -0.63312600
v -0.26382500 -0.11606900 -0.71754800
v -0.26030200 -0.11255300 -0.72457100
v -0.17587500 -0.12310100 -0.64014900
v -0.17147700 -0.12134300 -0.63841200
v -0.17050400 -0.12106400 -0.63758000
v -0.17050400 -0.12005000 -0.63904800
v -0.26732800 -0.10903700 -0.73161800
v -0.26732800 -0.09847790 -0.74216500
v -0.26030200 -0.09144560 -0.74568800
v -0.26382500 -0.08441340 -0.74921200
v -0.26382500 -0.07386510 -0.74921200
v -0.27435400 -0.06331680 -0.74921200
v -0.28490300 -0.06331680 -0.74921200
v -0.29017700 -0.05540550 -0.74392700
v -0.29192900 -0.05980070 -0.74568800
v -0.29897400 -0.06683290 -0.74216500
v -0.30952200 -0.06683290 -0.73161800
v -0.31127400 -0.05013140 -0.72280900
v -0.31304500 -0.05980070 -0.72457100
v -0.36580700 -0.11255300 -0.64014900
v -0.30072600 -0.10024600 -0.49925000
v -0.29545100 -0.10552000 -0.49925000
v -0.29872100 -0.10225300 -0.49925000
v -0.36403600 -0.12134300 -0.63841200
v -0.30072600 -0.11079500 -0.72280900
v -0.28490300 -0.11606900 -0.71754800
v -0.28842500 -0.10903700 -0.73161800
v -0.28842500 -0.09847790 -0.74216500
v -0.28490300 -0.08441340 -0.74921200
v -0.29897400 -0.08792950 -0.74216500
v -0.30952200 -0.08792950 -0.73161800
v -0.30777100 -0.09671980 -0.72985600
v -0.31127400 -0.10024600 -0.72280900
v -0.29722200 -0.10727800 -0.72985600
v -0.29722200 -0.09671980 -0.74040300
v -0.30072600 -0.10024600 -0.73338000
f 60 90 91
f 60 85 90
f 59 89 60
f 58 87 88
f 57 85 86
f 57 86 87
f 57 84 85
f 57 109 84
f 57 83 109
f 60 91 92
f 57 87 58
f 55 82 56
f 62 92 93
f 60 89 87
f 60 87 86
f 60 86 85
f 61 92 62
f 62 93 63
f 63 93 94
f 63 94 95
f 63 95 64
f 65 96 97
f 65 97 66
f 66 97 98
f 55 81 82
f 60 92 61
f 54 80 76
f 48 73 72
f 54 76 75
f 38 95 96
f 38 96 65
f 39 65 66
f 39 66 67
f 39 67 68
f 39 68 40
f 40 68 69
f 40 69 41
f 43 52 44
f 44 52 51
f 44 51 71
f 44 71 70
f 54 75 81
f 47 72 78
f 66 98 99
f 49 74 75
f 49 75 76
f 49 76 77
f 49 77 71
f 49 71 50
f 49 78 83
f 49 83 74
f 50 71 79
f 50 79 51
f 51 79 71
f 53 80 54
f 47 78 49
f 66 99 100
f 72 103 107
f 66 101 69
f 93 112 96
f 93 96 95
f 93 95 94
f 96 112 113
f 96 113 99
f 96 99 98
f 96 98 97
f 99 113 114
f 99 114 100
f 100 102 101
f 103 114 115
f 103 115 107
f 107 115 116
f 107 116 108
f 108 116 117
f 108 117 110
f 108 110 109
f 110 117 118
f 110 118 111
f 111 118 112
f 112 118 113
f 113 118 115
f 113 115 114
f 115 118 119
f 38 64 95
f 91 93 92
f 91 112 93
f 91 111 112
f 90 111 91
f 66 69 67
f 67 69 68
f 69 101 102
f 69 102 100
f 69 100 114
f 69 114 103
f 69 103 73
f 70 71 104
f 71 77 105
f 71 105 106
f 71 106 104
f 72 73 103
f 66 100 101
f 72 107 78
f 75 82 81
f 76 80 77
f 77 80 105
f 78 107 83
f 83 107 108
f 83 108 109
f 84 109 110
f 84 110 90
f 115 119 117
f 84 90 85
f 87 89 88
f 90 110 111
f 74 82 75
f 36 64 38
f 1 6 2
f 35 63 64
f 1 48 25
f 1 25 6
f 2 6 5
f 3 7 8
f 3 8 9
f 3 9 10
f 3 10 11
f 4 12 13
f 4 13 14
f 4 14 15
f 4 15 16
f 4 16 17
f 4 17 18
f 4 18 19
f 4 19 40
f 4 40 20
f 5 6 21
f 6 22 23
f 6 23 24
f 6 24 21
f 6 25 47
f 6 47 26
f 6 26 42
f 6 42 22
f 7 27 28
f 1 73 48
f 1 69 73
f 1 41 69
f 1 20 41
f 115 117 116
f 1 2 5
f 1 5 21
f 1 21 24
f 1 24 46
f 1 46 45
f 1 45 44
f 1 44 70
f 1 70 104
f 1 104 106
f 1 106 105
f 1 105 80
f 7 28 9
f 1 80 53
f 1 27 7
f 1 7 3
f 1 3 11
f 1 11 31
f 1 31 58
f 1 58 88
f 1 88 89
f 1 89 59
f 1 59 32
f 1 32 12
f 1 12 4
f 1 4 20
f 1 53 27
f 35 64 36
f 7 9 8
f 9 28 29
f 26 47 49
f 26 49 50
f 26 50 51
f 26 51 52
f 26 52 42
f 27 53 54
f 27 54 28
f 28 54 81
f 28 81 55
f 28 55 29
f 29 55 56
f 29 56 30
f 30 56 82
f 30 82 74
f 30 74 83
f 30 83 57
f 30 57 58
f 30 58 31
f 32 59 33
f 33 60 61
f 33 61 62
f 33 62 63
f 33 63 34
f 33 59 60
f 34 63 35
f 25 72 47
f 25 48 72
f 23 46 24
f 23 45 46
f 10 30 31
f 10 31 11
f 10 29 30
f 12 32 33
f 12 33 13
f 13 33 34
f 13 34 14
f 14 34 35
f 14 35 15
f 15 35 36
f 15 36 37
f 15 37 16
f 9 29 10
f 16 37 36
f 16 38 65
f 16 65 39
f 16 39 40
f 16 40 19
f 16 19 18
f 16 18 17
f 20 40 41
f 22 42 52
f 22 52 43
f 22 43 23
f 23 43 44
f 23 44 45
f 16 36 38
f 117 119 118

