# https://github.com/mikedh/trimesh
v 0.09497060 0.17938600 -0.77033100
v 0.09497060 0.08442140 -0.77033100
v 0.09497060 0.17938600 -0.78087200
v 0.09143800 0.18641900 -0.77385200
v 0.08969030 0.18465800 -0.76504900
v 0.07831170 0.18220400 -0.72833000
v 0.07901820 0.17938600 -0.72833000
v 0.09143800 0.07738820 -0.77033100
v 0.09233040 0.07914940 -0.78615400
v 0.09497060 0.08442140 -0.78087200
v 0.07901820 0.09497680 -0.72833000
v 0.09143800 0.08091050 -0.76328800
v 0.08969030 0.07651340 -0.76504900
v 0.09143800 0.18641900 -0.78439400
v 0.06330750 0.13717600 -0.86527200
v 0.05979350 0.14773100 -0.87231500
v 0.05802720 0.15300300 -0.87318400
v 0.08441000 0.18993000 -0.77033100
v 0.07494640 0.18729400 -0.72833000
v 0.08441000 0.07386600 -0.77033100
v 0.09143800 0.07738820 -0.78087200
v 0.08441000 0.07386600 -0.78087200
v 0.08792400 0.07738820 -0.78791500
v 0.02374260 0.07914940 -0.88109600
v 0.03956490 0.08970480 -0.88109600
v 0.04571900 0.09145450 -0.87583700
v 0.05010680 0.10024900 -0.88109600
v 0.01846240 0.12136000 -0.95497800
v 0.06066740 0.12136000 -0.87055400
v 0.06330750 0.12663200 -0.86527200
v 0.07407260 0.08509170 -0.72833000
v 0.07373790 0.08464860 -0.72833000
v 0.07362640 0.08453500 -0.72833000
v 0.06237790 0.07713830 -0.72833000
v 0.05319320 0.07432050 -0.72833000
v 0.08441000 0.18993000 -0.78087200
v 0.05538710 0.15827500 -0.87449900
v 0.04923300 0.16530800 -0.87933500
v 0.03869100 0.17586300 -0.87933500
v 0.02636420 0.18465800 -0.87846600
v 0.02110250 0.18729400 -0.87715200
v 0.05979350 0.12663200 -0.87231500
v 0.02110250 0.13717600 -0.94969600
v 0.01756990 0.13717600 -0.95673900
v 0.05626090 0.14773100 -0.87933500
v 0.01582220 0.14244800 -0.95760700
v 0.06330750 0.18993000 -0.72833000
v 0.07384950 0.18754400 -0.72833000
v -0.08441000 0.07386600 -0.77033100
v 0.01054200 0.07386600 -0.87583700
v 0.02242260 0.07651340 -0.87583700
v 0.02636420 0.07651340 -0.87055400
v 0.01405590 0.07738820 -0.88285600
v 0.01405590 0.11959800 -0.95673900
v 0.04352510 0.09497680 -0.88374900
v 0.00526168 0.13190400 -0.96817200
v 0.01756990 0.12663200 -0.95673900
v -0.05297010 0.07432050 -0.72833000
v 0.01054200 0.18993000 -0.87583700
v 0.01756990 0.14420900 -0.95321700
v 0.01054200 0.14420900 -0.95673900
v 0.01054200 0.18641900 -0.88285600
v 0.01054200 0.13717600 -0.96420400
v -0.06330750 0.18993000 -0.72833000
v -0.09143800 0.07738820 -0.76680900
v -0.08441000 0.07386600 -0.78087200
v -0.06353060 0.07761550 -0.72833000
v 0.00000000 0.07386600 -0.87583700
v 0.00351398 0.07738820 -0.88285600
v 0.00351398 0.11959800 -0.95673900
v -0.00174770 0.12487000 -0.96199800
v -0.00702797 0.14068600 -0.95673900
v -0.00526168 0.14508400 -0.95497800
v 0.00000000 0.14420900 -0.95673900
v 0.00000000 0.18993000 -0.87583700
v 0.00000000 0.18641900 -0.88285600
v -0.07377510 0.18598700 -0.72833000
v -0.08441000 0.18993000 -0.77033100
v -0.09497060 0.08442140 -0.77033100
v -0.09143800 0.07738820 -0.77737400
v -0.07340320 0.08420550 -0.72833000
v -0.07407260 0.08486450 -0.72833000
v -0.07803280 0.09079550 -0.72833000
v -0.08969030 0.07914940 -0.78615400
v -0.01582220 0.07914940 -0.88109600
v -0.00877567 0.07562710 -0.87407600
v 0.00000000 0.11607600 -0.94969600
v -0.00526168 0.12136000 -0.95497800
v -0.00702797 0.13015400 -0.95673900
v -0.04923300 0.14068600 -0.88285600
v -0.04748530 0.15036700 -0.88109600
v -0.09143800 0.18289700 -0.78791500
v -0.08969030 0.18729400 -0.78615400
v -0.02636420 0.17675000 -0.88109600
v -0.02110250 0.18334000 -0.87583700
v -0.00526168 0.18729400 -0.88109600
v -0.01582220 0.18729400 -0.87055400
v -0.08441000 0.18993000 -0.78087200
v -0.07901820 0.17915800 -0.72833000
v -0.09143800 0.18641900 -0.77033100
v -0.09233040 0.18465800 -0.76504900
v -0.09497060 0.17938600 -0.77033100
v -0.09497060 0.08442140 -0.78087200
v -0.07901820 0.09474950 -0.72833000
v -0.04748530 0.11080400 -0.88109600
v -0.03515840 0.09145450 -0.87933500
v -0.01054200 0.12663200 -0.94969600
v -0.05274700 0.12663200 -0.87583700
v -0.04923300 0.13015400 -0.88285600
v -0.05274700 0.13717600 -0.87583700
v -0.09497060 0.17938600 -0.78087200
v -0.09143800 0.18641900 -0.78087200
f 65 81 82
f 59 76 75
f 61 74 76
f 61 76 62
f 64 78 77
f 56 63 57
f 65 79 103
f 65 103 80
f 65 67 81
f 103 108 105
f 61 63 74
f 66 86 68
f 65 83 79
f 66 80 84
f 66 84 85
f 66 85 86
f 68 86 85
f 68 85 87
f 68 87 70
f 68 70 69
f 70 87 88
f 56 74 63
f 70 88 71
f 65 82 83
f 56 73 74
f 46 63 61
f 56 71 72
f 71 89 72
f 37 60 38
f 38 60 39
f 39 60 40
f 40 60 46
f 40 46 41
f 41 46 61
f 41 61 62
f 41 62 59
f 44 57 63
f 44 63 46
f 56 72 73
f 44 46 45
f 49 80 66
f 49 58 67
f 49 67 65
f 50 68 69
f 50 69 53
f 50 53 51
f 53 69 70
f 53 70 54
f 54 70 71
f 37 46 60
f 54 71 56
f 49 65 80
f 71 88 89
f 88 107 89
f 72 109 90
f 85 88 87
f 88 105 107
f 89 107 105
f 89 105 108
f 89 108 109
f 90 109 108
f 90 108 110
f 90 110 111
f 90 111 92
f 90 92 91
f 92 111 93
f 85 106 88
f 93 111 112
f 93 98 97
f 93 97 95
f 93 95 94
f 95 97 96
f 99 101 102
f 100 112 101
f 101 112 111
f 101 111 102
f 103 111 110
f 103 110 108
f 36 41 59
f 93 112 100
f 72 89 109
f 84 106 85
f 84 105 88
f 72 90 91
f 72 91 92
f 72 92 93
f 72 93 73
f 73 94 95
f 73 95 96
f 73 96 76
f 73 76 74
f 73 93 94
f 75 76 96
f 75 96 97
f 84 88 106
f 75 97 98
f 77 100 101
f 77 101 99
f 78 98 93
f 78 93 100
f 79 102 111
f 79 111 103
f 79 83 104
f 79 104 99
f 79 99 102
f 80 103 84
f 84 103 105
f 77 78 100
f 29 42 30
f 59 62 76
f 28 44 43
f 6 64 77
f 6 77 99
f 6 99 104
f 6 104 83
f 6 83 82
f 6 82 81
f 6 81 67
f 6 67 58
f 6 58 35
f 6 35 34
f 6 34 33
f 6 47 64
f 6 33 32
f 6 11 7
f 8 20 22
f 8 22 21
f 8 21 9
f 8 13 20
f 9 21 22
f 9 22 23
f 9 23 24
f 9 24 25
f 9 25 26
f 9 26 27
f 6 31 11
f 9 27 28
f 6 48 47
f 5 19 6
f 28 42 29
f 1 2 10
f 1 10 3
f 1 3 14
f 1 14 4
f 1 4 5
f 1 5 6
f 1 6 7
f 1 7 11
f 1 11 2
f 2 8 9
f 6 19 48
f 2 9 10
f 2 12 13
f 2 13 8
f 3 10 30
f 3 30 15
f 3 15 16
f 3 16 17
f 3 17 14
f 4 18 19
f 4 19 5
f 4 14 36
f 4 36 18
f 2 11 12
f 9 28 29
f 6 32 31
f 9 30 10
f 18 47 48
f 18 48 19
f 20 49 66
f 20 66 68
f 20 68 50
f 20 50 22
f 20 35 58
f 20 58 49
f 22 50 51
f 22 51 52
f 22 52 23
f 18 64 47
f 9 29 30
f 24 51 53
f 24 53 54
f 24 54 28
f 24 28 25
f 25 28 26
f 26 28 55
f 26 55 27
f 27 55 28
f 28 54 56
f 28 56 57
f 28 57 44
f 24 52 51
f 18 78 64
f 23 52 24
f 18 75 98
f 18 98 78
f 11 31 12
f 12 31 13
f 13 31 32
f 13 32 33
f 13 33 34
f 13 34 35
f 14 17 37
f 14 37 38
f 14 38 39
f 14 39 40
f 14 40 41
f 13 35 20
f 14 41 36
f 18 59 75
f 18 36 59
f 17 46 37
f 17 45 46
f 16 44 45
f 16 45 17
f 16 28 43
f 16 42 28
f 15 42 16
f 15 30 42
f 16 43 44

