# https://github.com/mikedh/trimesh
v 0.32712100 -0.07385570 0.20044000
v 0.23214800 0.17937400 0.21820700
v 0.32007600 -0.07032310 0.21455500
v 0.32359900 -0.07735720 0.20746200
v 0.32712100 -0.09495820 0.18990600
v 0.32712100 -0.07385570 -0.47478700
v 0.22875400 0.18616100 0.21820700
v 0.31821900 -0.07215130 0.21820700
v 0.23214800 0.17937400 -0.49922600
v 0.32359900 -0.09845980 0.19692900
v 0.31738700 -0.07683050 0.21820700
v 0.31559300 -0.08488720 0.21820700
v 0.32007600 -0.10902600 0.18990600
v 0.32712100 -0.09495820 -0.46425300
v 0.32712100 -0.08439140 -0.47478700
v 0.32359900 -0.07385570 -0.48188000
v 0.32359900 -0.06682150 -0.47836800
v 0.22862600 0.18640900 0.21820700
v 0.22862600 0.18640900 -0.49922600
v 0.32180500 -0.06858780 -0.48272200
v 0.32007600 -0.07385570 -0.48890200
v 0.30957400 -0.07363870 -0.49922600
v 0.31655400 -0.10549400 0.20044000
v 0.32180500 -0.10286000 0.19517300
v 0.31392800 -0.08910150 0.21820700
v 0.31123900 -0.09759210 0.21631100
v 0.31123900 -0.10815900 0.20570700
v 0.31123900 -0.11342700 0.19517300
v 0.30598700 -0.11606100 0.18990600
v 0.28485400 -0.12662700 0.17937200
v 0.32007600 -0.10902600 -0.46425300
v 0.32443100 -0.10022600 -0.46952000
v 0.32443100 -0.08969030 -0.48012400
v 0.32359900 -0.08439140 -0.48188000
v 0.22158100 0.18994100 0.21820700
v 0.22158100 0.18994100 -0.49922600
v 0.32007600 -0.08439140 -0.48890200
v 0.30963800 -0.07385570 -0.49922600
v 0.31034200 -0.09616670 0.21820700
v 0.30361800 -0.10310800 0.21820700
v 0.30073600 -0.11342700 0.20570700
v 0.29016900 -0.12396200 0.18463900
v 0.27435100 -0.12662700 0.18990600
v 0.28485400 -0.12662700 -0.46425300
v 0.30733200 -0.11342700 -0.47478700
v 0.30861300 -0.11079300 -0.48012400
v 0.31918000 -0.10022600 -0.48012400
v -0.22158100 0.18994100 0.21820700
v -0.22158100 0.18994100 -0.49922600
v 0.30598700 -0.09440040 -0.49922600
v 0.30963800 -0.08439140 -0.49922600
v 0.29542100 -0.10719800 0.21820700
v 0.28485400 -0.12002700 0.20044000
v 0.27960200 -0.12396200 0.19517300
v 0.27435100 -0.11956200 0.20395100
v -0.28485400 -0.12662700 0.18990600
v -0.28485400 -0.12662700 -0.46425300
v 0.28158800 -0.10915000 -0.49922600
v 0.28485400 -0.11606100 -0.48539100
v 0.28837600 -0.12309500 -0.47127500
v 0.29804600 -0.11079300 -0.49065800
v 0.29542100 -0.10496700 -0.49922600
v -0.22862600 0.18640900 0.21820700
v -0.22862600 0.18640900 -0.49922600
v -0.29542100 -0.10719800 0.21820700
v -0.28485400 -0.11956200 0.20395100
v -0.29016900 -0.12132900 0.19784100
v -0.29189800 -0.12309500 0.19341700
v -0.30073600 -0.12132900 0.07649030
v -0.29542100 -0.12396200 0.07515600
v -0.29369100 -0.12486100 0.06504340
v -0.32007600 -0.10902600 -0.46776400
v -0.29894300 -0.11956200 -0.46776400
v -0.31123900 -0.11079300 -0.48012400
v -0.29721400 -0.11782700 -0.47654200
v -0.30073600 -0.11079300 -0.49065800
v -0.28837600 -0.11956200 -0.47836800
v -0.28812000 -0.10915000 -0.49922600
v -0.29369100 -0.12486100 0.04390520
v -0.30073600 -0.12132900 0.03688260
v 0.29055300 -0.10713600 -0.49922600
v 0.28837600 -0.11252800 -0.49241400
v -0.23214800 0.17937400 0.21820700
v -0.22971500 0.18423900 -0.49922600
v -0.30419400 -0.10372800 0.21820700
v -0.31123900 -0.11079300 0.20310800
v -0.31303200 -0.11252800 0.19341700
v -0.30598700 -0.11869500 0.07248740
v -0.32712100 -0.09495820 -0.46425300
v -0.32180500 -0.10022600 -0.48012400
v -0.30771600 -0.11782700 0.04039390
v -0.32007600 -0.10902600 0.18639500
v -0.31123900 -0.10022600 -0.49065800
v -0.31123900 -0.08969030 -0.49922600
v -0.30073600 -0.10022600 -0.49922600
v -0.29542100 -0.10549400 -0.49922600
v -0.28844000 -0.10908800 -0.49922600
v -0.30598700 -0.11869500 0.05141950
v -0.32712100 -0.07385570 0.20044000
v -0.32443100 -0.06858780 0.20570700
v -0.31821900 -0.07385570 0.21820700
v -0.23214800 0.17937400 -0.49922600
v -0.30951000 -0.09849070 0.21820700
v -0.32359900 -0.10199200 0.19341700
v -0.31348000 -0.09334680 0.21820700
v -0.30771600 -0.11782700 0.06153210
v -0.32712100 -0.08439140 -0.47478700
v -0.32712100 -0.09495820 0.18990600
v -0.32007600 -0.08792400 -0.48890200
v -0.31585000 -0.08370970 -0.49922600
v -0.32443100 -0.08439140 0.20177400
v -0.31725900 -0.08439140 0.21820700
v -0.32007600 -0.07385570 0.21455500
v -0.32712100 -0.07385570 -0.47478700
v -0.31444100 -0.07308100 -0.49922600
v -0.32359900 -0.07032310 -0.48188000
v -0.31520900 -0.07841080 -0.49922600
f 57 73 74
f 58 82 59
f 58 81 82
f 57 72 73
f 57 80 72
f 57 75 76
f 57 77 78
f 57 76 77
f 57 74 75
f 60 82 61
f 57 79 80
f 61 82 81
f 69 71 70
f 63 64 84
f 63 84 83
f 65 85 86
f 65 86 66
f 66 86 67
f 67 86 68
f 68 86 87
f 68 87 69
f 69 87 88
f 69 98 80
f 56 79 57
f 69 88 98
f 61 81 62
f 56 71 79
f 43 66 56
f 56 69 70
f 41 52 53
f 69 80 79
f 42 54 43
f 43 54 55
f 43 55 66
f 44 57 78
f 44 78 58
f 44 58 59
f 44 59 82
f 44 82 60
f 44 60 45
f 45 60 46
f 46 61 62
f 46 62 50
f 46 50 47
f 46 60 61
f 48 49 64
f 48 64 63
f 52 65 66
f 52 66 55
f 52 55 53
f 53 55 54
f 56 66 67
f 56 67 68
f 56 68 69
f 56 70 71
f 69 79 71
f 104 105 112
f 72 90 74
f 88 91 98
f 89 107 90
f 89 108 99
f 89 99 114
f 89 114 107
f 90 107 109
f 90 109 110
f 90 110 94
f 90 94 93
f 99 108 111
f 99 111 112
f 99 112 113
f 99 113 100
f 100 113 101
f 101 113 112
f 102 115 116
f 102 116 114
f 104 112 108
f 107 114 110
f 107 110 109
f 108 112 111
f 110 114 116
f 110 116 117
f 115 117 116
f 41 54 42
f 88 106 91
f 88 92 106
f 87 92 88
f 86 105 104
f 72 74 73
f 72 80 91
f 72 91 106
f 72 106 92
f 72 92 104
f 72 104 108
f 72 108 89
f 74 90 76
f 74 76 75
f 76 90 93
f 76 93 94
f 76 94 95
f 72 89 90
f 76 95 96
f 76 97 77
f 77 97 78
f 80 98 91
f 83 99 100
f 83 100 101
f 83 84 102
f 83 102 114
f 83 114 99
f 85 103 86
f 86 104 92
f 86 92 87
f 86 103 105
f 76 96 97
f 41 53 54
f 9 64 49
f 37 50 51
f 3 8 4
f 4 8 11
f 4 11 12
f 4 12 10
f 5 10 13
f 5 13 31
f 5 31 14
f 6 15 34
f 6 34 16
f 6 16 17
f 6 17 9
f 7 9 19
f 7 19 18
f 9 17 20
f 9 20 21
f 9 21 22
f 9 22 38
f 9 38 51
f 9 51 50
f 9 50 62
f 9 62 81
f 9 81 58
f 9 58 78
f 9 78 97
f 9 97 96
f 2 9 7
f 9 96 95
f 2 8 3
f 2 12 11
f 1 2 3
f 1 3 4
f 1 4 10
f 1 10 5
f 1 5 14
f 1 14 15
f 1 15 6
f 1 6 9
f 1 9 2
f 40 52 41
f 2 18 35
f 2 35 48
f 2 48 63
f 2 63 83
f 2 83 101
f 2 101 112
f 2 112 105
f 2 105 103
f 2 103 85
f 2 85 65
f 2 65 52
f 2 52 40
f 2 40 39
f 2 39 25
f 2 25 12
f 2 11 8
f 9 95 94
f 2 7 18
f 9 110 117
f 21 51 38
f 21 38 22
f 23 26 27
f 25 39 26
f 26 39 40
f 26 40 27
f 27 41 28
f 27 40 41
f 28 41 42
f 28 42 29
f 29 42 30
f 30 42 43
f 30 43 56
f 30 56 57
f 30 57 44
f 31 44 45
f 31 45 46
f 31 46 47
f 31 47 32
f 33 47 37
f 33 37 34
f 35 36 49
f 35 49 48
f 37 47 50
f 9 94 110
f 21 37 51
f 18 36 35
f 32 47 33
f 17 21 20
f 9 117 115
f 18 19 36
f 9 115 102
f 9 102 84
f 9 49 36
f 9 36 19
f 10 23 24
f 10 24 13
f 10 12 25
f 10 25 26
f 10 26 23
f 13 24 23
f 9 84 64
f 13 27 28
f 13 23 27
f 16 34 37
f 15 33 34
f 14 33 15
f 16 21 17
f 16 37 21
f 14 31 32
f 13 44 31
f 13 30 44
f 13 29 30
f 13 28 29
f 14 32 33

