# https://github.com/mikedh/trimesh
v 0.26380000 -0.08440950 -0.74921200
v 0.26028900 -0.09848560 -0.74216500
v 0.24972800 -0.08793110 -0.74216500
v 0.25675000 -0.08089820 -0.74568800
v 0.26380000 -0.06332120 -0.74921200
v 0.27433400 -0.08440950 -0.74921200
v 0.26731100 -0.09145270 -0.74568800
v 0.27082300 -0.09848560 -0.74216500
v 0.26028900 -0.10904000 -0.73161800
v 0.24795900 -0.10024600 -0.73338000
v 0.09552050 -0.08089820 -0.64014900
v 0.09552050 -0.07491150 -0.64315900
v 0.09552050 -0.07386530 -0.64367300
v 0.24972800 -0.06683250 -0.74216500
v 0.25675000 -0.05979960 -0.74568800
v 0.26380000 -0.04924510 -0.74216500
v 0.27961500 -0.05803880 -0.74656900
v 0.27433400 -0.06332120 -0.74921200
v 0.28489500 -0.07386530 -0.74921200
v 0.28620900 -0.08440950 -0.74656900
v 0.27787200 -0.09145270 -0.74568800
v 0.28138400 -0.10904000 -0.73161800
v 0.26380000 -0.11607300 -0.71754800
v 0.24795900 -0.11079000 -0.72280900
v 0.16532000 -0.11958400 -0.63665000
v 0.09552050 -0.08389160 -0.63417800
v 0.09552050 -0.02081330 -0.64367300
v 0.25852000 -0.05540800 -0.74392700
v 0.26380000 -0.03870100 -0.73161800
v 0.27433400 -0.04924510 -0.74216500
v 0.28489500 -0.05276670 -0.74260500
v 0.29017600 -0.06859330 -0.74656900
v 0.29194500 -0.07386530 -0.74568800
v 0.29896800 -0.07386530 -0.74216500
v 0.28754900 -0.08969190 -0.74392700
v 0.29808300 -0.10024600 -0.73338000
v 0.28840700 -0.10199700 -0.73514200
v 0.28489500 -0.11607300 -0.71754800
v 0.28840700 -0.11255100 -0.72457100
v 0.17939200 -0.12662700 -0.63312600
v 0.16532000 -0.11958400 -0.60501000
v 0.09552050 -0.08440950 -0.63312600
v 0.09552050 -0.02081330 -0.49925000
v 0.35876900 -0.02081330 -0.64367300
v 0.26380000 -0.03165780 -0.71754800
v 0.25852000 -0.03429900 -0.72280900
v 0.28489500 -0.03870100 -0.73161800
v 0.29017600 -0.04749470 -0.73599800
v 0.30073700 -0.04749470 -0.73073700
v 0.29545600 -0.06332120 -0.74260500
v 0.30336400 -0.08969190 -0.73338000
v 0.30073700 -0.05803880 -0.73599800
v 0.30952900 -0.07386530 -0.73161800
v 0.36667600 -0.12134500 -0.63841200
v 0.36228000 -0.12310600 -0.64014900
v 0.35876900 -0.12662700 -0.63312600
v 0.17939200 -0.12662700 -0.60148600
v 0.17236900 -0.12310600 -0.59798700
v 0.09552050 -0.08440950 -0.60148600
v 0.09552050 -0.06332120 -0.49925000
v 0.23217100 -0.02081330 -0.49925000
v 0.36579200 -0.02081330 -0.64014900
v 0.28489500 -0.03165780 -0.71754800
v 0.29194500 -0.03517940 -0.72107200
v 0.29017600 -0.03694020 -0.72545200
v 0.29545600 -0.04221230 -0.72809400
v 0.30995800 -0.08440950 -0.72809400
v 0.36589900 -0.02081330 -0.63997800
v 0.36579200 -0.11607300 -0.64014900
v 0.36933000 -0.11607300 -0.63312600
v 0.36579200 -0.12310600 -0.63312600
v 0.36404900 -0.12398600 -0.59622500
v 0.35876900 -0.12662700 -0.60148600
v 0.09552050 -0.07386530 -0.52763500
v 0.26380000 -0.12662700 -0.52763500
v 0.25675000 -0.12310600 -0.52411200
v 0.25852000 -0.12134500 -0.51970700
v 0.26380000 -0.11958400 -0.51356500
v 0.26254000 -0.10777600 -0.49925000
v 0.27433400 -0.03165780 -0.49925000
v 0.36579200 -0.02081330 -0.59446300
v 0.36933000 -0.02081330 -0.63312600
v 0.36933000 -0.11607300 -0.60148600
v 0.36579200 -0.12310600 -0.60148600
v 0.36579200 -0.11958400 -0.59446300
v 0.32183200 -0.09760520 -0.51180300
v 0.31127100 -0.10816000 -0.51180300
v 0.29545600 -0.12003000 -0.51706400
v 0.29017600 -0.12398600 -0.52235000
v 0.28489500 -0.12662700 -0.52763500
v 0.26380000 -0.12310600 -0.52058800
v 0.28489500 -0.11958400 -0.51356500
v 0.27109100 -0.10916400 -0.49925000
v 0.28138400 -0.03517940 -0.49925000
v 0.32183200 -0.06859330 -0.51180300
v 0.32360100 -0.07737660 -0.51004100
v 0.36933000 -0.02081330 -0.60148600
v 0.32360100 -0.08793110 -0.51004100
v 0.30599100 -0.09442540 -0.49925000
v 0.29545600 -0.10496900 -0.49925000
v 0.30073700 -0.11343200 -0.51180300
v 0.29055100 -0.10715500 -0.49925000
v 0.28162500 -0.10916400 -0.49925000
v 0.28489500 -0.12310600 -0.52058800
v 0.30719700 -0.06745390 -0.49925000
v 0.30958200 -0.07365820 -0.49925000
v 0.30963600 -0.07386530 -0.49925000
v 0.30963600 -0.08440950 -0.49925000
f 51 67 54
f 54 68 70
f 54 69 68
f 53 54 67
f 53 62 68
f 53 68 69
f 52 62 53
f 54 70 71
f 53 69 54
f 54 71 56
f 60 76 77
f 56 71 72
f 56 72 73
f 57 74 58
f 57 75 74
f 58 74 59
f 60 74 75
f 60 75 76
f 60 77 78
f 60 78 79
f 61 80 81
f 51 53 67
f 54 56 55
f 49 62 52
f 43 93 103
f 49 52 50
f 40 73 90
f 40 90 75
f 40 75 57
f 41 57 58
f 41 58 59
f 43 60 79
f 43 79 93
f 62 66 65
f 43 103 102
f 43 102 100
f 43 100 99
f 49 66 62
f 43 99 108
f 43 107 106
f 43 106 105
f 43 105 94
f 43 94 80
f 43 80 61
f 44 62 63
f 47 63 64
f 47 64 65
f 47 65 66
f 47 66 49
f 47 49 48
f 43 108 107
f 62 65 64
f 75 91 76
f 68 82 70
f 83 98 85
f 83 97 96
f 83 96 98
f 85 98 86
f 86 98 99
f 86 99 100
f 86 100 87
f 87 100 101
f 87 101 88
f 88 101 102
f 88 102 103
f 88 103 92
f 88 92 89
f 89 92 104
f 94 105 95
f 95 105 96
f 96 105 106
f 96 106 107
f 96 107 108
f 96 108 98
f 98 108 99
f 100 102 101
f 40 56 73
f 81 96 97
f 62 64 63
f 81 95 96
f 80 94 81
f 70 82 97
f 70 97 83
f 70 83 84
f 70 84 71
f 71 84 72
f 72 84 83
f 72 83 85
f 72 85 86
f 72 86 87
f 72 87 88
f 72 88 89
f 72 89 73
f 73 89 90
f 75 90 89
f 75 89 104
f 75 104 91
f 76 91 77
f 77 91 78
f 78 91 104
f 78 104 92
f 78 92 103
f 78 103 93
f 78 93 79
f 81 94 95
f 38 55 56
f 2 8 22
f 36 55 39
f 8 21 22
f 9 22 38
f 9 38 23
f 9 23 24
f 9 24 10
f 10 24 11
f 11 25 26
f 11 26 42
f 11 42 59
f 11 59 74
f 6 20 21
f 11 74 60
f 11 43 27
f 11 27 13
f 11 13 12
f 11 24 25
f 14 27 15
f 15 28 16
f 15 27 28
f 16 29 47
f 16 47 30
f 16 30 17
f 11 60 43
f 6 19 20
f 5 15 16
f 5 17 18
f 1 2 3
f 1 3 4
f 1 4 15
f 1 15 5
f 1 5 18
f 1 18 19
f 1 19 6
f 1 6 21
f 1 21 7
f 1 7 2
f 2 7 21
f 2 21 8
f 38 39 55
f 2 22 9
f 2 9 10
f 2 10 3
f 3 10 11
f 3 11 12
f 3 12 13
f 3 13 27
f 3 27 14
f 3 15 4
f 5 16 17
f 16 28 27
f 16 27 29
f 3 14 15
f 17 50 32
f 27 82 68
f 27 68 62
f 27 62 44
f 27 44 63
f 27 63 45
f 27 45 46
f 27 46 29
f 29 46 45
f 29 45 63
f 29 63 47
f 30 47 31
f 31 48 49
f 31 49 50
f 32 50 34
f 32 34 33
f 34 51 36
f 34 36 35
f 34 50 52
f 34 52 53
f 34 53 51
f 36 51 54
f 36 54 55
f 17 31 50
f 27 97 82
f 27 81 97
f 31 47 48
f 27 43 61
f 17 32 19
f 27 61 81
f 17 19 18
f 17 30 31
f 19 32 33
f 19 33 20
f 20 33 34
f 20 35 21
f 21 35 36
f 21 36 37
f 21 37 22
f 22 37 36
f 20 34 35
f 22 36 39
f 25 59 42
f 25 41 59
f 25 42 26
f 25 40 57
f 24 40 25
f 25 57 41
f 23 40 24
f 23 56 40
f 23 38 56
f 22 39 38

