# https://github.com/mikedh/trimesh
v -0.36931100 -0.02097870 -0.63313300
v -0.36919400 -0.02097870 -0.63338100
v -0.36931100 -0.02097870 -0.60147500
v -0.36931100 0.17937000 -0.63313300
v -0.36580700 -0.02097870 -0.64015900
v -0.36580700 0.18290100 -0.64015900
v -0.36580700 -0.02097870 -0.59443500
v -0.36931100 0.17937000 -0.60147500
v -0.36668300 0.18465600 -0.59619800
v -0.36580700 0.18641100 -0.63313300
v -0.35876200 -0.02097870 -0.64368600
v -0.36403600 0.18729800 -0.63841000
v -0.35876200 0.17937000 -0.64368600
v -0.23216000 -0.02097870 -0.49924000
v -0.36580700 0.17937000 -0.59443500
v -0.22972700 0.18424300 -0.49924000
v -0.22863700 0.18641100 -0.49924000
v -0.36228500 0.18641100 -0.59443500
v -0.35876200 0.18994100 -0.60147500
v -0.36580700 0.18641100 -0.60147500
v -0.23216000 0.17937000 -0.49924000
v -0.17050400 0.00889609 -0.64813200
v -0.17050400 -0.02097870 -0.64368600
v -0.35876200 0.18994100 -0.63313300
v -0.17050400 0.18603900 -0.64313200
v -0.35876200 0.18641100 -0.64015900
v -0.17050400 0.17771900 -0.64813200
v -0.17050400 -0.02097870 -0.49924000
v -0.22379100 0.18884700 -0.49924000
v -0.22161200 0.18994100 -0.49924000
v -0.17050400 0.18994100 -0.63313300
v -0.17050400 0.18994100 -0.49924000
f 14 30 29
f 13 26 27
f 14 32 30
f 14 28 32
f 12 20 19
f 11 27 22
f 12 25 26
f 12 24 25
f 12 19 24
f 11 13 27
f 14 29 17
f 12 26 13
f 14 17 16
f 24 31 25
f 17 29 18
f 18 29 30
f 18 30 19
f 19 30 32
f 19 32 31
f 19 31 24
f 22 27 25
f 22 25 31
f 22 31 32
f 22 32 28
f 22 28 23
f 25 27 26
f 10 20 12
f 14 16 21
f 9 21 16
f 11 22 23
f 9 20 10
f 9 15 21
f 1 2 5
f 1 11 23
f 1 23 28
f 1 28 14
f 1 14 7
f 1 7 3
f 1 3 8
f 1 8 4
f 1 4 2
f 2 4 6
f 2 6 5
f 3 7 15
f 3 15 8
f 1 5 11
f 4 9 10
f 4 8 9
f 9 18 19
f 9 17 18
f 9 16 17
f 8 15 9
f 7 21 15
f 9 19 20
f 6 12 13
f 6 10 12
f 5 13 11
f 5 6 13
f 4 10 6
f 7 14 21

