# https://github.com/mikedh/trimesh
v -0.17050400 -0.12218500 -0.63313200
v -0.17050400 -0.12218500 -0.60148900
v -0.17050400 -0.12105400 -0.63757200
v 0.02107900 -0.10550300 -0.63313200
v -0.17050400 -0.11946600 -0.59440200
v 0.02107900 -0.10550300 -0.60148900
v 0.09549370 -0.07385050 -0.52761700
v 0.09549370 -0.06330990 -0.49922600
v -0.17050400 -0.12004600 -0.63905200
v 0.02462010 -0.10199000 -0.64015100
v 0.09549370 -0.08439120 -0.63313200
v -0.15826600 -0.07385050 -0.49922600
v -0.17050400 -0.07385050 -0.49922600
v 0.09549370 -0.08439120 -0.60148900
v 0.09549370 0.18994100 -0.49922600
v -0.17050400 -0.11858000 -0.64073400
v 0.09549370 -0.08087760 -0.64015100
v 0.05625540 0.06681390 -0.72458500
v -0.17050400 0.18994100 -0.49922600
v 0.09549370 0.18994100 -0.70646500
v -0.17050400 -0.11607400 -0.64169900
v -0.05297120 0.07429930 -0.72830800
v -0.05273680 0.07384100 -0.72810600
v 0.05274040 0.07384100 -0.72810600
v 0.06237420 0.07711020 -0.72830800
v 0.09549370 -0.07488930 -0.64315600
v 0.05318300 0.07429930 -0.72830800
v -0.17050400 0.18994100 -0.63313200
v 0.09494690 0.18994100 -0.70698100
v 0.09549370 0.18978800 -0.70704800
v -0.17050400 -0.10718300 -0.64367200
v -0.07801910 0.09076720 -0.72830800
v -0.07408740 0.08484000 -0.72830800
v -0.07341050 0.08416780 -0.72830800
v -0.06351630 0.07759900 -0.72830800
v 0.07362230 0.08450390 -0.72830800
v 0.09549370 -0.07385050 -0.64367200
v -0.14243500 0.18728300 -0.68060800
v -0.17050400 0.18603000 -0.64311100
v -0.13717600 0.18994100 -0.67533800
v 0.06331150 0.18994100 -0.72830800
v 0.07495020 0.18728300 -0.72830800
v 0.09549370 0.18645800 -0.71375400
v -0.17050400 0.00888607 -0.64811200
v -0.14420600 0.04570200 -0.68237900
v -0.10903000 0.08089870 -0.71050200
v -0.07900850 0.09473900 -0.72830800
v 0.07375250 0.08462610 -0.72830800
v 0.09549370 0.08334290 -0.71702800
v -0.10022900 0.18728300 -0.71227300
v -0.14420600 0.18288300 -0.68237900
v -0.17050400 0.17772000 -0.64811200
v -0.09496940 0.18994100 -0.70698100
v -0.06330800 0.18994100 -0.72830800
v 0.09549370 0.18624400 -0.71411200
v 0.09549370 0.17988900 -0.71727400
v 0.07830900 0.18221100 -0.72830800
v -0.10903000 0.17585600 -0.71050200
v -0.07900850 0.17915600 -0.72830800
v 0.07406500 0.08508440 -0.72830800
v 0.07901200 0.09495290 -0.72830800
v 0.09549370 0.08441220 -0.71727400
v -0.07377500 0.18596900 -0.72830800
v -0.10199900 0.18288300 -0.71402300
v 0.07901200 0.17937000 -0.72830800
f 22 25 27
f 22 27 24
f 22 24 23
f 25 36 37
f 22 36 25
f 25 37 26
f 29 30 42
f 28 40 38
f 30 43 42
f 29 42 41
f 31 44 45
f 22 48 36
f 28 38 39
f 22 60 48
f 22 33 32
f 22 65 61
f 22 57 65
f 22 42 57
f 22 41 42
f 22 54 41
f 22 63 54
f 22 59 63
f 22 47 59
f 22 32 47
f 22 34 33
f 22 35 34
f 31 45 46
f 21 35 22
f 22 61 60
f 31 46 32
f 56 62 61
f 36 48 37
f 21 34 35
f 59 64 63
f 58 64 59
f 56 65 57
f 56 61 65
f 51 64 58
f 50 54 63
f 50 53 54
f 50 64 51
f 50 63 64
f 49 61 62
f 49 60 61
f 48 60 49
f 32 46 47
f 46 59 47
f 45 58 46
f 45 51 58
f 44 51 45
f 44 52 51
f 42 56 57
f 42 55 56
f 42 43 55
f 40 53 50
f 39 51 52
f 38 40 50
f 38 51 39
f 38 50 51
f 37 48 49
f 46 58 59
f 21 32 33
f 21 33 34
f 20 30 29
f 7 17 26
f 7 11 17
f 7 14 11
f 6 14 7
f 5 8 12
f 5 12 13
f 4 14 6
f 4 11 14
f 4 10 11
f 3 10 4
f 3 9 10
f 2 8 5
f 2 7 8
f 2 6 7
f 1 6 2
f 1 4 6
f 1 3 4
f 1 9 3
f 1 16 9
f 1 21 16
f 1 31 21
f 1 44 31
f 1 52 44
f 1 28 39
f 1 19 28
f 1 13 19
f 1 5 13
f 1 2 5
f 21 31 32
f 7 26 37
f 7 37 49
f 1 39 52
f 7 62 56
f 7 49 62
f 18 27 25
f 18 24 27
f 17 18 25
f 16 24 18
f 16 23 24
f 16 22 23
f 16 21 22
f 15 28 19
f 15 40 28
f 15 53 40
f 15 54 53
f 15 41 54
f 15 29 41
f 17 25 26
f 10 18 17
f 15 20 29
f 7 55 43
f 7 30 20
f 7 20 15
f 7 15 8
f 7 43 30
f 8 19 13
f 10 16 18
f 8 15 19
f 10 17 11
f 7 56 55
f 9 16 10
f 8 13 12

