# https://github.com/mikedh/trimesh
v 0.09552050 0.08441950 -0.71727200
v 0.09552050 0.08338800 -0.71701600
v 0.09552050 0.17989400 -0.71727200
v 0.35876900 -0.02081330 -0.64367200
v 0.09849580 0.07738470 -0.71402800
v 0.09552050 0.07738470 -0.71402800
v 0.09552050 0.18624800 -0.71411300
v 0.10026500 0.18466000 -0.71490300
v 0.36404900 0.18466000 -0.64104700
v 0.35876900 0.17937900 -0.64367200
v 0.35895700 -0.02081330 -0.64358700
v 0.09552050 -0.02081330 -0.64367200
v 0.10200700 0.04924560 -0.69996100
v 0.10905700 0.05628040 -0.70348300
v 0.09552050 0.07439340 -0.71253400
v 0.09552050 0.18645500 -0.71375000
v 0.35876900 0.18641300 -0.64017200
v 0.35876900 0.18994100 -0.63312700
v 0.36579200 0.18641300 -0.63664900
v 0.36933000 0.17937900 -0.63312700
v 0.36579200 0.17937900 -0.64017200
v 0.36579200 -0.02081330 -0.64017200
v 0.09552050 -0.02081330 -0.49922600
v 0.09552050 0.04924560 -0.69996100
v 0.09552050 0.05628040 -0.70348300
v 0.09552050 0.18979700 -0.70704800
v 0.35876900 0.18994100 -0.60149300
v 0.09552050 0.18994100 -0.70647100
v 0.36579200 0.18641300 -0.60501500
v 0.36933000 0.17937900 -0.60149300
v 0.36933000 -0.02081330 -0.63312700
v 0.09552050 0.18994100 -0.49922600
v 0.23217100 -0.02081330 -0.49922600
v 0.36404900 0.18466000 -0.59622100
v 0.22161000 0.18994100 -0.49922600
v 0.36933000 -0.02081330 -0.60149300
v 0.36579200 0.17585100 -0.59444900
v 0.36579200 -0.02081330 -0.59444900
v 0.23217100 0.17937900 -0.49922600
v 0.22865900 0.18641300 -0.49922600
f 19 29 30
f 18 35 27
f 18 32 35
f 18 28 32
f 18 26 28
f 18 29 19
f 18 27 29
f 14 25 15
f 16 26 18
f 19 30 20
f 13 25 14
f 13 24 25
f 9 20 21
f 9 11 10
f 9 21 22
f 16 18 17
f 9 22 11
f 33 37 39
f 20 31 22
f 9 19 20
f 34 39 37
f 34 40 39
f 34 35 40
f 33 38 37
f 30 38 36
f 30 37 38
f 20 30 36
f 30 34 37
f 27 35 34
f 27 34 29
f 23 35 32
f 23 40 35
f 23 39 40
f 23 33 39
f 20 22 21
f 29 34 30
f 9 18 19
f 20 36 31
f 7 9 8
f 2 5 6
f 1 4 2
f 1 10 4
f 1 3 10
f 1 7 3
f 1 16 7
f 1 26 16
f 2 4 5
f 1 28 26
f 1 12 23
f 1 24 12
f 1 25 24
f 1 15 25
f 1 6 15
f 1 2 6
f 9 17 18
f 1 32 28
f 3 7 8
f 1 23 32
f 3 9 10
f 7 17 9
f 3 8 9
f 7 16 17
f 5 15 6
f 5 14 15
f 4 13 14
f 4 24 13
f 4 12 24
f 4 14 5
f 4 33 23
f 4 38 33
f 4 36 38
f 4 31 36
f 4 22 31
f 4 23 12
f 4 10 11
f 4 11 22

