o convex_0
v -0.232592 0.562054 0.0193523
v -0.22772 0.881859 0.0484491
v -0.232592 0.872187 0.0193523
v -0.232592 0.581469 0
v -0.213604 0.154269 -0.0775003
v -0.213604 0.154269 0.058148
v -0.213194 0.23265 0.0775003
v -0.18897 0.881859 0.125949
v -0.215607 0.886695 0.058148
v -0.226126 0.885107 0.0387501
v -0.232592 0.872187 -0.0387501
v -0.232592 0.658984 -0.0193523
v -0.209233 0.154269 -0.0929366
v -0.232592 0.755915 -0.0387501
v -0.168752 0.154269 0.147806
v -0.200262 0.23265 0.103364
v -0.180864 0.872187 0.142114
v -0.176857 0.886695 0.135648
v -0.193796 0.251993 0.116296
v -0.180864 0.251993 0.142114
v -0.174444 0.891602 0.116296
v -0.213194 0.891602 0.0387501
v -0.226126 0.885107 -0.0387501
v -0.226126 0.878611 -0.051682
v -0.213194 0.872187 -0.0968981
v -0.18988 0.154269 -0.131732
v -0.213194 0.814015 -0.0968981
v -0.200262 0.807591 -0.122716
v -0.162058 0.154269 0.161148
v -0.161512 0.872187 0.161512
v -0.118709 0.886695 0.193796
v -0.116296 0.891602 0.174444
v -0.213194 0.891602 -0.0387501
v -0.222893 0.886695 -0.0484491
v -0.206728 0.878611 -0.10983
v -0.180864 0.154269 -0.142114
v -0.206728 0.820511 -0.10983
v -0.200262 0.865692 -0.122716
v -0.161512 0.154269 -0.161512
v -0.161375 0.154269 0.161785
v -0.142114 0.310165 0.180864
v -0.122716 0.794672 0.200262
v -0.122716 0.872187 0.200262
v -0.111424 0.881859 0.203495
v -0.103364 0.885107 0.206728
v -0.0968981 0.891602 0.193796
v -0.193796 0.891602 -0.0968981
v -0.203495 0.886695 -0.106597
v -0.14858 0.878611 -0.167978
v -0.161512 0.865692 -0.161512
v -0.142114 0.154269 -0.180864
v -0.103227 0.154269 0.200535
v -0.106597 0.784929 0.208322
v -0.10983 0.794672 0.206728
v -0.0906599 0.154269 0.207092
v -0.10983 0.872187 0.206728
v -0.0452161 0.885107 0.226126
v -0.0968981 0.872187 0.213194
v -0.0387501 0.891602 0.213194
v -0.174444 0.891602 -0.116296
v -0.145347 0.886695 -0.164745
v -0.129182 0.878611 -0.18733
v -0.142114 0.865692 -0.180864
v -0.131732 0.154269 -0.18988
v -0.0968981 0.794672 0.213194
v -0.078411 0.154269 0.213194
v -0.0387501 0.872187 0.232592
v 0.0128864 0.885107 0.226126
v 0.0193523 0.891602 0.213194
v -0.116296 0.891602 -0.174444
v -0.125949 0.886695 -0.184097
v -0.0904322 0.878611 -0.206728
v -0.0929366 0.154269 -0.209233
v -0.0387501 0.775257 0.232592
v -0.0770905 0.154269 0.213604
v 0.0193523 0.872187 0.232592
v 0.0710343 0.885107 0.206728
v 0.0775003 0.891602 0.193796
v -0.0775003 0.891602 -0.193796
v -0.0871992 0.886695 -0.203495
v -0.0322842 0.878611 -0.226126
v -0.0775003 0.872187 -0.213194
v -0.0387501 0.213235 -0.232592
v -0.0387501 0.174478 -0.232592
v -0.0775003 0.154269 -0.213604
v 0.0193523 0.329508 0.232592
v 0.0779101 0.154269 0.213604
v 0.0775003 0.872187 0.213194
v 0.103364 0.878611 0.200262
v 0.116296 0.891602 0.174444
v -0.0193523 0.891602 -0.213194
v -0.0290512 0.886695 -0.222893
v -0.0193523 0.872187 -0.232592
v 0.0387501 0.174478 -0.232592
v -0.0322842 0.161558 -0.226126
v 0.0387501 0.155063 -0.213194
v -0.0450795 0.154269 -0.212374
v 0.0452161 0.161558 -0.226126
v 0.104821 0.154269 0.201719
v 0.142114 0.878611 0.180864
v 0.174444 0.891602 0.116296
v 0.132415 0.888355 0.171211
v -5.55112e-17 0.891602 -0.213194
v -0.0193523 0.885107 -0.226126
v -5.55112e-17 0.872187 -0.232592
v 0.0968981 0.174478 -0.213194
v 0.0387501 0.717157 -0.232592
v 0.0968981 0.155063 -0.193796
v 0.0577382 0.154269 -0.190654
v 0.103364 0.161558 -0.206728
v 0.129182 0.154269 0.18733
v 0.142114 0.180973 0.180864
v 0.161512 0.878611 0.161512
v 0.193796 0.891602 0.0775003
v 0.171211 0.888355 0.132415
v 0.180864 0.878611 0.142114
v 0.200262 0.878611 0.103364
v 0.206728 0.885107 0.0710343
v 0.0775003 0.891602 -0.193796
v -5.55112e-17 0.885107 -0.226126
v 0.00965338 0.881859 -0.22772
v 0.0871992 0.881859 -0.208322
v 0.0775003 0.872187 -0.213194
v 0.0193523 0.852773 -0.232592
v 0.10983 0.174478 -0.206728
v 0.0968981 0.678327 -0.213194
v 0.135648 0.155063 -0.174444
v 0.135238 0.154269 -0.151859
v 0.142114 0.161558 -0.18733
v 0.161512 0.174478 -0.180864
v 0.140839 0.154269 0.175764
v 0.161512 0.180973 0.161512
v 0.200262 0.62665 0.122716
v 0.213194 0.891602 0
v 0.226126 0.885107 -0.00642041
v 0.213194 0.872187 0.0775003
v 0.213194 0.620227 0.0968981
v 0.116296 0.891602 -0.174444
v 0.0968981 0.886695 -0.19621
v 0.0775003 0.885107 -0.206728
v 0.125949 0.881859 -0.18897
v 0.106597 0.688071 -0.208322
v 0.145347 0.261736 -0.18897
v 0.10983 0.678327 -0.206728
v 0.157459 0.159971 -0.174444
v 0.174444 0.155063 -0.135648
v 0.151494 0.154269 -0.135648
v 0.150174 0.164806 -0.184097
v 0.180864 0.174478 -0.161512
v 0.161512 0.251993 -0.180864
v 0.172304 0.154269 0.114156
v 0.193796 0.155063 0.0968981
v 0.203495 0.159971 0.106597
v 0.206728 0.168054 0.10983
v 0.200262 0.180973 0.122716
v 0.206728 0.613731 0.10983
v 0.213194 0.891602 -0.0193523
v 0.232592 0.872187 0
v 0.226126 0.885107 -0.0258183
v 0.232592 0.794672 0.0193523
v 0.232592 0.697742 0.0387501
v 0.213194 0.174478 0.0968981
v 0.174444 0.891602 -0.116296
v 0.135648 0.886695 -0.176857
v 0.142114 0.872187 -0.180864
v 0.122716 0.678327 -0.200262
v 0.176857 0.159971 -0.155046
v 0.213194 0.155063 -0.058148
v 0.190245 0.154269 -0.0775003
v 0.18897 0.164806 -0.145347
v 0.180864 0.290751 -0.161512
v 0.191702 0.154269 0.0754057
v 0.213194 0.155063 0.0387501
v 0.222893 0.159971 0.0484491
v 0.226126 0.168054 0.051682
v 0.193796 0.891602 -0.0775003
v 0.232592 0.872187 -0.0193523
v 0.206728 0.885107 -0.0839662
v 0.232592 0.174478 0.0387501
v 0.18733 0.885107 -0.122716
v 0.174444 0.886695 -0.138062
v 0.161512 0.872187 -0.161512
v 0.215607 0.159971 -0.0775003
v 0.192203 0.154269 -0.058148
v 0.226126 0.161558 -0.058148
v 0.232592 0.271408 -0.058148
v 0.232592 0.174478 -0.058148
v 0.22772 0.164806 -0.0678014
v 0.206728 0.581469 -0.10983
v 0.180864 0.872187 -0.142114
v 0.200262 0.581469 -0.122716
v 0.192203 0.154269 0.0557346
v 0.226126 0.161558 0.0387501
v 0.232592 0.581469 -0.0387501
v 0.213194 0.872187 -0.0775003
v 0.193796 0.872187 -0.116296
v 0.184097 0.881859 -0.130822
v 0.213194 0.581469 -0.0968981
f 1 2 3
f 1 3 11
f 1 11 14
f 1 14 12
f 1 12 4
f 1 4 5
f 1 5 6
f 1 6 7
f 1 7 2
f 2 8 18
f 2 18 9
f 2 9 10
f 2 10 3
f 2 7 16
f 2 16 19
f 2 19 8
f 3 10 23
f 3 23 11
f 4 12 5
f 5 13 26
f 5 26 36
f 5 36 39
f 5 39 51
f 5 51 64
f 5 64 73
f 5 73 85
f 5 85 97
f 5 97 109
f 5 109 128
f 5 128 147
f 5 147 169
f 5 169 184
f 5 184 192
f 5 192 172
f 5 172 151
f 5 151 131
f 5 131 111
f 5 111 99
f 5 99 87
f 5 87 75
f 5 75 66
f 5 66 55
f 5 55 52
f 5 52 40
f 5 40 29
f 5 29 15
f 5 15 6
f 5 12 14
f 5 14 13
f 6 15 16
f 6 16 7
f 8 17 18
f 8 19 20
f 8 20 17
f 9 18 21
f 9 21 22
f 9 22 10
f 10 22 33
f 10 33 23
f 11 23 34
f 11 34 24
f 11 24 35
f 11 35 25
f 11 25 27
f 11 27 14
f 13 14 27
f 13 27 28
f 13 28 26
f 15 29 16
f 16 20 19
f 16 29 20
f 17 30 18
f 17 20 29
f 17 29 30
f 18 31 32
f 18 32 21
f 18 30 31
f 21 32 46
f 21 46 59
f 21 59 69
f 21 69 78
f 21 78 90
f 21 90 101
f 21 101 114
f 21 114 134
f 21 134 157
f 21 157 176
f 21 176 163
f 21 163 138
f 21 138 119
f 21 119 103
f 21 103 91
f 21 91 79
f 21 79 70
f 21 70 60
f 21 60 47
f 21 47 33
f 21 33 22
f 23 33 34
f 24 34 48
f 24 48 35
f 25 35 37
f 25 37 27
f 26 28 36
f 27 37 28
f 28 37 35
f 28 35 38
f 28 38 50
f 28 50 39
f 28 39 36
f 29 40 41
f 29 41 42
f 29 42 43
f 29 43 30
f 30 43 31
f 31 43 44
f 31 44 45
f 31 45 46
f 31 46 32
f 33 47 48
f 33 48 34
f 35 48 61
f 35 61 49
f 35 49 50
f 35 50 38
f 39 50 63
f 39 63 51
f 40 52 41
f 41 52 42
f 42 53 54
f 42 54 56
f 42 56 43
f 42 52 55
f 42 55 53
f 43 56 45
f 43 45 44
f 45 57 59
f 45 59 46
f 45 56 58
f 45 58 67
f 45 67 57
f 47 60 48
f 48 60 70
f 48 70 61
f 49 61 71
f 49 71 62
f 49 62 63
f 49 63 50
f 51 63 64
f 53 65 54
f 53 55 66
f 53 66 65
f 54 65 58
f 54 58 56
f 57 67 76
f 57 76 68
f 57 68 69
f 57 69 59
f 58 65 74
f 58 74 67
f 61 70 71
f 62 71 80
f 62 80 72
f 62 72 64
f 62 64 63
f 64 72 73
f 65 66 74
f 66 75 74
f 67 74 86
f 67 86 76
f 68 76 88
f 68 88 77
f 68 77 78
f 68 78 69
f 70 79 80
f 70 80 71
f 72 80 92
f 72 92 81
f 72 81 93
f 72 93 82
f 72 82 73
f 73 83 84
f 73 84 85
f 73 82 83
f 74 75 86
f 75 87 86
f 76 86 87
f 76 87 88
f 77 88 89
f 77 89 90
f 77 90 78
f 79 91 92
f 79 92 80
f 81 92 104
f 81 104 93
f 82 93 83
f 83 93 105
f 83 105 124
f 83 124 107
f 83 107 94
f 83 94 84
f 84 94 98
f 84 98 95
f 84 95 85
f 85 96 97
f 85 95 98
f 85 98 96
f 87 99 88
f 88 99 89
f 89 100 90
f 89 99 100
f 90 100 102
f 90 102 115
f 90 115 101
f 91 103 120
f 91 120 104
f 91 104 92
f 93 104 120
f 93 120 105
f 94 106 110
f 94 110 98
f 94 107 126
f 94 126 106
f 96 108 109
f 96 109 97
f 96 98 110
f 96 110 108
f 99 111 112
f 99 112 100
f 100 113 102
f 100 112 132
f 100 132 113
f 101 115 116
f 101 116 117
f 101 117 118
f 101 118 114
f 102 113 115
f 103 119 140
f 103 140 120
f 105 120 121
f 105 121 122
f 105 122 123
f 105 123 124
f 106 125 110
f 106 126 144
f 106 144 143
f 106 143 125
f 107 124 123
f 107 123 126
f 108 127 109
f 108 110 127
f 109 127 128
f 110 129 127
f 110 125 130
f 110 130 129
f 111 131 112
f 112 131 132
f 113 133 116
f 113 116 115
f 113 132 155
f 113 155 133
f 114 118 135
f 114 135 134
f 116 133 117
f 117 136 118
f 117 133 137
f 117 137 136
f 118 136 135
f 119 138 139
f 119 139 140
f 120 140 122
f 120 122 121
f 122 140 139
f 122 139 164
f 122 164 141
f 122 141 142
f 122 142 123
f 123 142 126
f 125 143 130
f 126 142 144
f 127 129 145
f 127 145 167
f 127 167 146
f 127 146 147
f 127 147 128
f 129 130 148
f 129 148 145
f 130 149 167
f 130 167 145
f 130 145 148
f 130 143 150
f 130 150 171
f 130 171 149
f 131 151 152
f 131 152 153
f 131 153 154
f 131 154 155
f 131 155 132
f 133 156 137
f 133 155 154
f 133 154 156
f 134 135 159
f 134 159 157
f 135 136 158
f 135 158 177
f 135 177 159
f 136 160 158
f 136 137 161
f 136 161 160
f 137 156 154
f 137 154 162
f 137 162 179
f 137 179 161
f 138 163 181
f 138 181 164
f 138 164 139
f 141 164 165
f 141 165 166
f 141 166 142
f 142 166 144
f 143 144 150
f 144 166 150
f 146 167 168
f 146 168 169
f 146 169 147
f 149 170 167
f 149 171 170
f 150 166 165
f 150 165 171
f 151 172 152
f 152 172 173
f 152 173 174
f 152 174 153
f 153 174 175
f 153 175 154
f 154 175 179
f 154 179 162
f 157 159 178
f 157 178 176
f 158 160 161
f 158 161 179
f 158 179 187
f 158 187 186
f 158 186 194
f 158 194 177
f 159 177 195
f 159 195 178
f 163 176 178
f 163 178 180
f 163 180 181
f 164 181 182
f 164 182 165
f 165 182 171
f 167 183 168
f 167 170 188
f 167 188 183
f 168 173 192
f 168 192 184
f 168 184 169
f 168 183 185
f 168 185 193
f 168 193 173
f 170 186 187
f 170 187 188
f 170 171 189
f 170 189 186
f 171 182 190
f 171 190 191
f 171 191 189
f 172 192 173
f 173 193 174
f 174 193 179
f 174 179 175
f 177 194 198
f 177 198 195
f 178 195 196
f 178 196 197
f 178 197 180
f 179 193 185
f 179 185 187
f 180 197 181
f 181 197 190
f 181 190 182
f 183 188 185
f 185 188 187
f 186 189 198
f 186 198 194
f 189 191 190
f 189 190 196
f 189 196 195
f 189 195 198
f 190 197 196
o convex_1
v -0.135656 0.0581379 0.445801
v -0.038735 0.0581379 0.426339
v -0.045163 0.0710372 0.41988
v -0.142084 0.0710372 0.439256
v -0.180902 0.0710372 0.41988
v -0.20027 0.0581379 0.413422
v -0.184075 -0.823727 0.421539
v -0.135656 -0.814002 0.445801
v 0.135656 0.0581379 0.368214
v -0.012856 0.0645876 0.413422
v -0.038735 -0.814002 0.426339
v 0.129144 0.0710372 0.361755
v 0.0710419 0.109735 0.323005
v 0.012856 0.109735 0.34238
v -0.0645304 0.109735 0.361755
v -0.0581025 0.116287 0.348839
v -0.155023 0.116287 0.348839
v -0.161451 0.109735 0.361755
v -0.196179 0.0726753 0.406964
v -0.188916 0.0677612 0.416651
v -0.21563 0.0726753 0.387589
v -0.239005 0.0581379 0.374672
v -0.20027 -0.814002 0.413422
v -0.193758 -0.828539 0.409407
v -0.164707 -0.881877 0.363414
v -0.14534 -0.823727 0.440914
v -0.135656 -0.826901 0.439256
v -0.038735 -0.826901 0.41988
v 0.148595 0.0515858 0.361755
v 0.213209 0.0581379 0.329463
v 0.20027 0.0645876 0.335922
v 0.161451 0.0645876 0.355297
v 0.135656 -0.814002 0.368214
v -0.0290512 -0.828539 0.416651
v -0.0257955 -0.820451 0.41988
v 0.135656 0.116287 0.290713
v 0.129144 0.109735 0.30363
v 0.0193675 0.116287 0.329463
v 0.0581025 0.135636 0.271338
v 0.0778873 0.154269 0.213562
v -0.0770525 0.154269 0.213562
v -0.0783882 0.154269 0.213126
v -0.0906599 0.154269 0.207017
v -0.103182 0.154269 0.200471
v -0.161368 0.154269 0.161721
v -0.162036 0.154269 0.16111
v -0.213209 0.116287 0.271338
v -0.21563 0.111373 0.290713
v -0.234998 0.0726753 0.368214
v -0.247102 0.0677612 0.358526
v -0.27774 0.0581379 0.316547
v -0.239005 -0.814002 0.374672
v -0.213209 -0.828539 0.390032
v -0.167963 -0.88505 0.355297
v -0.155023 -0.891602 0.348839
v -0.155023 -0.88505 0.361755
v -0.232577 -0.828539 0.370657
v -0.125972 -0.828539 0.436026
v -0.0581025 -0.88505 0.361755
v 0.148595 -0.820451 0.361755
v 0.329498 0.0581379 0.271338
v 0.213209 -0.814002 0.329463
v 0.316558 0.0645876 0.277797
v 0.213209 0.116287 0.251963
v 0.14534 -0.828539 0.358526
v -0.0484187 -0.886688 0.358526
v 0.0290512 -0.886688 0.339151
v 0.14534 -0.886688 0.300401
v 0.116288 0.135636 0.251963
v 0.104768 0.154269 0.201693
v -0.187581 0.154269 0.110141
v -0.232577 0.135636 0.135626
v -0.232577 0.116287 0.232588
v -0.234998 0.130825 0.155001
v -0.234998 0.111373 0.251963
v -0.331919 0.0726753 0.193751
v -0.273733 0.0726753 0.310088
v -0.285837 0.0677612 0.300401
v -0.284251 0.0581379 0.30363
v -0.27774 -0.814002 0.316547
v -0.242261 -0.823727 0.363414
v -0.213209 -0.886688 0.293157
v -0.0581025 -0.891602 0.348839
v -0.213209 -0.891602 0.271338
v -0.245433 -0.826901 0.355297
v 0.222893 -0.828539 0.319776
v 0.264884 -0.820451 0.30363
v 0.355293 0.0645876 0.258422
v 0.329498 -0.814002 0.271338
v 0.251944 0.116287 0.232588
v 0.0193675 -0.891602 0.329463
v 0.135656 -0.891602 0.290713
v 0.222893 -0.886688 0.261651
v 0.155023 0.135636 0.232588
v 0.129144 0.154269 0.187292
v -0.200854 0.154269 0.0836095
v -0.207533 0.154269 0.0702565
v -0.251944 0.135636 0.0968754
v -0.290679 0.116287 0.11625
v -0.254365 0.130825 0.11625
v -0.2931 0.111373 0.135626
v -0.344023 0.0677612 0.184063
v -0.324656 0.0677612 0.222901
v -0.305205 0.106562 0.125938
v -0.297191 0.0581379 0.277797
v -0.284251 -0.814002 0.30363
v -0.284251 -0.826901 0.297172
v -0.280995 -0.823727 0.305201
v -0.226065 -0.88505 0.277797
v -0.232577 -0.891602 0.232588
v -0.264884 -0.88505 0.200209
v 0.339181 -0.828539 0.261651
v 0.342354 -0.820451 0.26488
v 0.413479 0.0645876 0.219584
v 0.345609 0.0742109 0.248734
v 0.268056 0.113011 0.229359
v 0.355293 -0.807552 0.258422
v 0.326242 0.113011 0.190522
v 0.310047 0.116287 0.193751
v 0.213209 -0.891602 0.251963
v 0.261628 -0.886688 0.242276
v 0.140832 0.154269 0.175772
v -0.213543 0.154269 0.0581252
v -0.271312 0.135636 0.0387501
v -0.329498 0.116287 0
v -0.303619 0.109735 0.11625
v -0.382758 0.0677612 0.0871878
v -0.348865 0.0581379 0.174376
v -0.324656 -0.784927 0.222901
v -0.381172 0.0710372 0.0775003
v -0.297191 -0.814002 0.277797
v -0.319814 -0.823727 0.227701
v -0.303619 -0.826901 0.258422
v -0.303619 -0.88505 0.122709
v -0.290679 -0.891602 0.11625
v 0.397284 -0.828539 0.222901
v 0.40054 -0.820451 0.22613
v 0.426419 0.0581379 0.193751
v 0.419907 0.0710372 0.187292
v 0.406968 0.0774869 0.193751
v 0.403795 0.0742109 0.209897
v 0.413479 -0.807552 0.219584
v 0.364977 0.113011 0.151771
v 0.329498 0.116287 0.174376
v 0.251944 -0.891602 0.232588
v 0.319814 -0.886688 0.203438
v 0.172304 0.154269 0.114156
v 0.368233 0.116287 0.135626
v -0.213543 0.154269 -0.0775003
v -0.348865 0.116287 -0.0775003
v -0.361805 0.109735 -0.0775003
v -0.342354 0.109735 0
v -0.402126 0.0677612 0.0290626
v -0.3876 0.0581379 0.0775003
v -0.348865 -0.814002 0.174376
v -0.316558 -0.814002 0.239046
v -0.40054 0.0710372 0.0193751
v -0.339181 -0.823727 0.188951
v -0.342354 -0.826901 0.180834
v -0.342354 -0.88505 0.00645836
v -0.329498 -0.891602 0
v -0.381172 -0.826901 0.0839586
v 0.416651 -0.828539 0.203438
v 0.377916 -0.886688 0.145313
v 0.419907 -0.820451 0.206667
v 0.426419 0.0581379 0.0581252
v 0.426419 -0.814002 0.193751
v 0.419907 0.0710372 0.0516669
v 0.381172 0.109735 0.129167
v 0.310047 -0.891602 0.193751
v 0.329498 -0.891602 0.174376
v 0.191671 0.154269 0.0754057
v 0.368233 0.116287 0.0968754
v 0.192172 0.154269 0.0557688
v -0.213209 0.154269 -0.0787221
v -0.348865 0.116287 -0.155001
v -0.361805 0.109735 -0.155001
v -0.419907 0.0710372 -0.0581252
v -0.421493 0.0677612 -0.0484377
v -0.426419 0.0581379 -0.0581252
v -0.406968 0.0581379 0.0193751
v -0.3876 -0.814002 0.0775003
v -0.361805 -0.88505 -0.0710419
v -0.40054 -0.826901 0.0258334
v -0.348865 -0.891602 -0.0775003
v 0.419907 -0.826901 0.193751
v 0.368233 -0.891602 0.135626
v 0.381172 -0.88505 0.135626
v 0.406968 0.0581379 -0.0193751
v 0.40054 0.0710372 -0.0258334
v 0.426419 -0.814002 0.0581252
v 0.381172 0.109735 0.090417
v 0.329498 0.116287 -0.0581252
v 0.271312 0.135636 -0.0968754
v 0.192172 0.154269 -0.0581252
v -0.209202 0.154269 -0.092948
v -0.329498 0.116287 -0.174376
v -0.358549 0.111373 -0.164688
v -0.189835 0.154269 -0.131698
v -0.180902 0.154269 -0.142084
v -0.419907 0.0710372 -0.193751
v -0.426419 0.0581379 -0.193751
v -0.426419 -0.814002 -0.0581252
v -0.406968 -0.814002 0.0193751
v -0.361805 -0.88505 -0.148542
v -0.419907 -0.826901 -0.0516669
v -0.348865 -0.891602 -0.155001
v 0.419907 -0.826901 0.0581252
v 0.368233 -0.891602 0.0968754
v 0.381172 -0.88505 0.0968754
v 0.3876 0.0581379 -0.0775003
v 0.406968 -0.814002 -0.0193751
v 0.381172 0.0710372 -0.0839586
v 0.342354 0.109735 -0.0645836
v 0.361805 0.109735 0.0129167
v 0.421493 -0.823727 0.0484377
v 0.402126 -0.823727 -0.0290626
v 0.322986 0.109735 -0.122709
v 0.310047 0.116287 -0.11625
v 0.284251 0.129187 -0.103334
v 0.251944 0.135636 -0.135626
v 0.190252 0.154269 -0.0775003
v -0.310047 0.116287 -0.193751
v -0.319814 0.111373 -0.203438
v -0.142084 0.154269 -0.180834
v -0.397284 0.0726753 -0.222901
v -0.416651 0.0726753 -0.203438
v -0.419907 0.0645876 -0.206667
v -0.413479 0.0515858 -0.219584
v -0.426419 -0.814002 -0.193751
v -0.358549 -0.881877 -0.164688
v -0.419907 -0.826901 -0.187292
v -0.345609 -0.888326 -0.171146
v -0.329498 -0.891602 -0.174376
v 0.329498 -0.891602 -0.0581252
v 0.361805 -0.88505 0.0193751
v 0.382758 -0.881877 0.0871878
v 0.348865 0.0581379 -0.174376
v 0.3876 -0.814002 -0.0775003
v 0.342354 0.0710372 -0.180834
v 0.382758 -0.823727 -0.0871878
v 0.344023 -0.881877 -0.0678128
v 0.264884 0.109735 -0.239046
v 0.303619 0.0710372 -0.258422
v 0.251944 0.116287 -0.232588
v 0.264884 0.129187 -0.142084
v 0.213209 0.135636 -0.193751
v 0.151434 0.154269 -0.135626
v -0.131732 0.154269 -0.189823
v -0.261628 0.111373 -0.242276
v -0.339181 0.0726753 -0.261651
v -0.40054 0.0645876 -0.22613
v -0.355293 0.0515858 -0.258422
v -0.413479 -0.820451 -0.219584
v -0.355293 -0.878601 -0.180834
v -0.416651 -0.823727 -0.203438
v -0.326242 -0.888326 -0.190522
v -0.310047 -0.891602 -0.193751
v 0.310047 -0.891602 -0.11625
v 0.322986 -0.88505 -0.11625
v 0.342354 -0.88505 -0.0581252
v 0.324656 0.0290632 -0.222901
v 0.316558 0.0581379 -0.239046
v 0.339181 0.0677612 -0.188951
v 0.348865 -0.814002 -0.174376
v 0.344023 -0.823727 -0.184063
v 0.324656 -0.881877 -0.125938
v 0.18733 0.109735 -0.355297
v 0.213209 0.111373 -0.312532
v 0.251944 0.111373 -0.25432
v 0.284251 0.0710372 -0.297172
v 0.213209 0.116287 -0.290713
v 0.193758 0.135636 -0.213126
v 0.135238 0.154269 -0.151859
v 0.174391 0.116287 -0.348839
v 0.155023 0.116287 -0.368214
v -0.0929138 0.154269 -0.209198
v -0.125972 0.130825 -0.261651
v -0.164707 0.130825 -0.242276
v -0.222893 0.111373 -0.261651
v -0.222893 0.0726753 -0.319776
v -0.264884 0.0645876 -0.30363
v -0.342354 0.0645876 -0.26488
v -0.329498 0.0581379 -0.271338
v -0.355293 -0.820451 -0.258422
v -0.335926 -0.878601 -0.200209
v -0.268056 -0.888326 -0.229359
v -0.251944 -0.891602 -0.232588
v 0.251944 -0.891602 -0.232588
v 0.312468 -0.886688 -0.135626
v 0.297191 0.0581379 -0.277797
v 0.324656 -0.823727 -0.222901
v 0.319814 0.0677612 -0.227701
v 0.254365 -0.886688 -0.251963
v 0.26647 -0.881877 -0.242276
v 0.174391 0.111373 -0.370657
v 0.245433 0.0710372 -0.355297
v 0.232577 0.0726753 -0.370657
v 0.284251 0.0581379 -0.30363
v 0.27774 0.0581379 -0.316547
v 0.280995 0.0677612 -0.305201
v 0.242261 0.0677612 -0.363414
v 0.0965035 0.154269 -0.171234
v -0.0774699 0.154269 -0.213562
v -0.0450795 0.154269 -0.21234
v 0.057685 0.154269 -0.190609
v 0.155023 0.109735 -0.38113
v 0.135656 0.116287 -0.368214
v -0.0774699 0.135636 -0.271338
v -0.0871537 0.130825 -0.281026
v -0.106605 0.111373 -0.319776
v -0.14534 0.0726753 -0.358526
v -0.148595 0.0645876 -0.361755
v -0.213209 0.0581379 -0.329463
v -0.329498 -0.814002 -0.271338
v -0.316558 -0.820451 -0.277797
v -0.27774 -0.878601 -0.239046
v -0.261628 -0.881877 -0.242276
v -0.213209 -0.891602 -0.251963
v 0.213209 -0.891602 -0.290713
v 0.297191 -0.814002 -0.277797
v 0.285837 -0.823727 -0.300401
v 0.21563 -0.886688 -0.310088
v 0.227735 -0.881877 -0.300401
v 0.164707 0.106562 -0.382789
v 0.213209 0.0726753 -0.390032
v 0.193758 0.0726753 -0.409407
v 0.239005 0.0581379 -0.374672
v 0.284251 -0.814002 -0.30363
v 0.27774 -0.814002 -0.316547
v 0.135656 0.109735 -0.38113
v 0.135656 0.0710372 -0.439256
v 0.125972 0.111373 -0.377901
v 0.038735 0.116287 -0.348839
v -0.038735 0.116287 -0.329463
v -0.0484187 0.111373 -0.339151
v 0.0290512 0.0726753 -0.416651
v 0.0257955 0.0645876 -0.41988
v -0.135656 0.0581379 -0.368214
v -0.148595 -0.807552 -0.361755
v -0.213209 -0.814002 -0.329463
v -0.20027 -0.820451 -0.335922
v -0.20027 -0.878601 -0.277797
v -0.222893 -0.881877 -0.261651
v -0.135656 -0.891602 -0.290713
v -0.106605 -0.881877 -0.319776
v 0.174391 -0.891602 -0.348839
v 0.247102 -0.823727 -0.358526
v 0.176812 -0.886688 -0.368214
v 0.188916 -0.881877 -0.358526
v 0.184075 0.0677612 -0.421539
v 0.14534 0.0677612 -0.440914
v 0.20027 0.0581379 -0.413422
v 0.239005 -0.814002 -0.374672
v 0.135656 0.0581379 -0.445801
v 0.038735 0.0710372 -0.41988
v 0.125972 0.0726753 -0.436026
v 0.0290512 0.111373 -0.358526
v 0.038735 0.0581379 -0.426339
v -0.135656 -0.814002 -0.368214
v -0.161451 -0.820451 -0.355297
v -0.122716 -0.878601 -0.316547
v -0.0968374 -0.891602 -0.310088
v -0.0904094 -0.88505 -0.323005
v -0.14534 -0.823727 -0.358526
v 0.155023 -0.891602 -0.368214
v 0.234998 -0.828539 -0.368214
v 0.161451 -0.88505 -0.38113
v 0.180902 -0.826901 -0.41988
v 0.196179 -0.828539 -0.406964
v 0.21563 -0.828539 -0.387589
v 0.20027 -0.814002 -0.413422
v 0.135656 -0.814002 -0.445801
v 0.038735 -0.814002 -0.426339
v -0.038735 -0.891602 -0.329463
v -0.129144 -0.826901 -0.361755
v 0.045163 -0.826901 -0.41988
v -0.0322235 -0.88505 -0.34238
v 0.0290512 -0.823727 -0.416651
v 0.135656 -0.891602 -0.368214
v 0.142084 -0.826901 -0.439256
v 0.142084 -0.88505 -0.38113
v 0.188916 -0.823727 -0.416651
v 0.038735 -0.891602 -0.348839
v 0.045163 -0.88505 -0.361755
f 199 200 201
f 199 201 202
f 199 202 203
f 199 203 204
f 199 204 205
f 199 205 206
f 199 206 209
f 199 209 200
f 200 207 208
f 200 208 201
f 200 209 231
f 200 231 207
f 201 208 207
f 201 207 230
f 201 230 210
f 201 210 235
f 201 235 211
f 201 211 212
f 201 212 213
f 201 213 202
f 202 213 214
f 202 214 215
f 202 215 216
f 202 216 203
f 203 217 218
f 203 218 204
f 203 216 217
f 204 218 217
f 204 217 219
f 204 219 247
f 204 247 220
f 204 220 250
f 204 250 221
f 204 221 205
f 205 221 222
f 205 222 223
f 205 223 224
f 205 224 206
f 206 224 225
f 206 225 226
f 206 226 209
f 207 227 228
f 207 228 229
f 207 229 230
f 207 231 258
f 207 258 227
f 209 226 232
f 209 232 233
f 209 233 258
f 209 258 231
f 210 230 234
f 210 234 235
f 211 235 234
f 211 234 236
f 211 236 212
f 212 236 213
f 213 236 214
f 214 236 237
f 214 237 238
f 214 238 239
f 214 239 215
f 215 239 240
f 215 240 241
f 215 241 242
f 215 242 243
f 215 243 244
f 215 244 245
f 215 245 246
f 215 246 216
f 216 246 247
f 216 247 219
f 216 219 217
f 220 247 248
f 220 248 276
f 220 276 249
f 220 249 278
f 220 278 250
f 221 250 255
f 221 255 251
f 221 251 222
f 222 251 223
f 223 252 253
f 223 253 254
f 223 254 225
f 223 225 224
f 223 251 255
f 223 255 252
f 225 256 232
f 225 232 226
f 225 254 257
f 225 257 264
f 225 264 256
f 227 258 260
f 227 260 228
f 228 259 261
f 228 261 229
f 228 260 287
f 228 287 259
f 229 261 262
f 229 262 234
f 229 234 230
f 232 263 258
f 232 258 233
f 232 256 264
f 232 264 265
f 232 265 266
f 232 266 263
f 234 262 267
f 234 267 236
f 236 267 237
f 237 267 238
f 238 268 293
f 238 293 320
f 238 320 345
f 238 345 370
f 238 370 372
f 238 372 393
f 238 393 420
f 238 420 446
f 238 446 472
f 238 472 501
f 238 501 504
f 238 504 503
f 238 503 502
f 238 502 475
f 238 475 447
f 238 447 423
f 238 423 398
f 238 398 397
f 238 397 394
f 238 394 373
f 238 373 347
f 238 347 321
f 238 321 295
f 238 295 294
f 238 294 269
f 238 269 244
f 238 244 243
f 238 243 242
f 238 242 241
f 238 241 240
f 238 240 239
f 238 267 268
f 244 269 270
f 244 270 245
f 245 271 273
f 245 273 246
f 245 270 272
f 245 272 298
f 245 298 271
f 246 273 274
f 246 274 275
f 246 275 247
f 247 275 276
f 247 276 248
f 249 276 277
f 249 277 304
f 249 304 278
f 250 278 279
f 250 279 255
f 252 280 253
f 252 255 280
f 253 281 264
f 253 264 257
f 253 257 254
f 253 280 282
f 253 282 308
f 253 308 333
f 253 333 359
f 253 359 383
f 253 383 405
f 253 405 432
f 253 432 456
f 253 456 486
f 253 486 517
f 253 517 543
f 253 543 561
f 253 561 573
f 253 573 582
f 253 582 578
f 253 578 564
f 253 564 545
f 253 545 518
f 253 518 487
f 253 487 457
f 253 457 433
f 253 433 407
f 253 407 385
f 253 385 369
f 253 369 368
f 253 368 343
f 253 343 318
f 253 318 290
f 253 290 289
f 253 289 281
f 255 279 283
f 255 283 307
f 255 307 280
f 258 263 284
f 258 284 310
f 258 310 285
f 258 285 287
f 258 287 260
f 259 286 261
f 259 287 315
f 259 315 286
f 261 286 288
f 261 288 262
f 262 288 292
f 262 292 267
f 263 266 291
f 263 291 284
f 264 281 289
f 264 289 265
f 265 289 290
f 265 290 266
f 266 290 318
f 266 318 291
f 267 292 268
f 268 292 293
f 269 294 270
f 270 294 295
f 270 295 296
f 270 296 298
f 270 298 272
f 271 297 299
f 271 299 273
f 271 298 297
f 273 299 274
f 274 300 301
f 274 301 275
f 274 299 302
f 274 302 300
f 275 301 276
f 276 301 303
f 276 303 277
f 277 303 329
f 277 329 304
f 278 304 305
f 278 305 306
f 278 306 279
f 279 306 305
f 279 305 283
f 280 307 282
f 282 307 309
f 282 309 332
f 282 332 308
f 283 305 307
f 284 291 310
f 285 311 287
f 285 310 311
f 286 312 339
f 286 339 313
f 286 313 314
f 286 314 288
f 286 315 340
f 286 340 312
f 287 311 315
f 288 314 316
f 288 316 317
f 288 317 292
f 291 318 343
f 291 343 319
f 291 319 310
f 292 317 293
f 293 317 320
f 295 321 296
f 296 321 322
f 296 322 323
f 296 323 297
f 296 297 298
f 297 323 324
f 297 324 299
f 299 324 302
f 300 325 352
f 300 352 326
f 300 326 301
f 300 302 325
f 301 326 353
f 301 353 327
f 301 327 329
f 301 329 303
f 302 324 328
f 302 328 325
f 304 329 305
f 305 329 330
f 305 330 356
f 305 356 331
f 305 331 332
f 305 332 309
f 305 309 307
f 308 332 333
f 310 334 335
f 310 335 311
f 310 319 334
f 311 335 315
f 312 336 337
f 312 337 338
f 312 338 339
f 312 340 365
f 312 365 336
f 313 339 316
f 313 316 314
f 315 335 340
f 316 341 346
f 316 346 342
f 316 342 317
f 316 339 341
f 317 342 320
f 319 343 344
f 319 344 334
f 320 342 346
f 320 346 345
f 321 347 374
f 321 374 348
f 321 348 322
f 322 348 323
f 323 348 349
f 323 349 350
f 323 350 324
f 324 350 355
f 324 355 328
f 325 328 355
f 325 355 351
f 325 351 379
f 325 379 352
f 326 352 380
f 326 380 353
f 327 353 354
f 327 354 329
f 329 354 356
f 329 356 330
f 331 356 357
f 331 357 332
f 332 358 359
f 332 359 333
f 332 357 360
f 332 360 382
f 332 382 358
f 334 361 363
f 334 363 335
f 334 344 362
f 334 362 361
f 335 363 340
f 336 364 366
f 336 366 337
f 336 365 389
f 336 389 364
f 337 366 390
f 337 390 367
f 337 367 346
f 337 346 338
f 338 346 339
f 339 346 341
f 340 363 365
f 343 368 344
f 344 368 369
f 344 369 385
f 344 385 362
f 345 346 370
f 346 367 390
f 346 390 371
f 346 371 393
f 346 393 372
f 346 372 370
f 347 373 374
f 348 374 375
f 348 375 349
f 349 375 399
f 349 399 376
f 349 376 355
f 349 355 350
f 351 355 376
f 351 376 377
f 351 377 378
f 351 378 379
f 352 379 402
f 352 402 380
f 353 380 360
f 353 360 357
f 353 357 356
f 353 356 354
f 358 381 359
f 358 382 381
f 359 381 383
f 360 380 402
f 360 402 382
f 361 384 365
f 361 365 363
f 361 362 386
f 361 386 384
f 362 385 386
f 364 387 388
f 364 388 366
f 364 389 410
f 364 410 387
f 365 384 406
f 365 406 389
f 366 388 413
f 366 413 390
f 371 390 413
f 371 413 391
f 371 391 392
f 371 392 393
f 373 394 374
f 374 395 422
f 374 422 396
f 374 396 375
f 374 394 397
f 374 397 398
f 374 398 395
f 375 396 425
f 375 425 399
f 376 399 400
f 376 400 378
f 376 378 377
f 378 400 428
f 378 428 401
f 378 401 402
f 378 402 379
f 381 403 405
f 381 405 383
f 381 382 404
f 381 404 430
f 381 430 403
f 382 402 401
f 382 401 404
f 384 386 408
f 384 408 406
f 385 407 408
f 385 408 386
f 387 409 411
f 387 411 388
f 387 410 437
f 387 437 409
f 388 411 416
f 388 416 412
f 388 412 413
f 389 406 414
f 389 414 415
f 389 415 410
f 391 413 412
f 391 412 416
f 391 416 417
f 391 417 418
f 391 418 392
f 392 418 444
f 392 444 419
f 392 419 420
f 392 420 393
f 395 421 422
f 395 398 423
f 395 423 421
f 396 422 424
f 396 424 425
f 399 425 400
f 400 425 426
f 400 426 427
f 400 427 452
f 400 452 428
f 401 428 430
f 401 430 404
f 403 429 405
f 403 430 454
f 403 454 429
f 405 429 453
f 405 453 431
f 405 431 455
f 405 455 432
f 406 408 435
f 406 435 414
f 407 433 434
f 407 434 408
f 408 434 440
f 408 440 435
f 409 436 411
f 409 437 463
f 409 463 436
f 410 415 439
f 410 439 437
f 411 436 438
f 411 438 416
f 414 435 440
f 414 440 415
f 415 440 465
f 415 465 439
f 416 441 443
f 416 443 417
f 416 438 442
f 416 442 441
f 417 443 418
f 418 443 444
f 419 445 420
f 419 444 443
f 419 443 470
f 419 470 445
f 420 445 446
f 421 423 447
f 421 447 422
f 422 447 448
f 422 448 424
f 424 449 450
f 424 450 426
f 424 426 425
f 424 448 449
f 426 450 427
f 427 450 451
f 427 451 483
f 427 483 452
f 428 452 430
f 429 454 452
f 429 452 453
f 430 452 454
f 431 453 484
f 431 484 455
f 432 455 456
f 433 457 458
f 433 458 459
f 433 459 434
f 434 459 440
f 436 460 461
f 436 461 462
f 436 462 438
f 436 463 490
f 436 490 460
f 437 439 464
f 437 464 463
f 438 462 442
f 439 465 464
f 440 459 458
f 440 458 465
f 441 466 467
f 441 467 468
f 441 468 443
f 441 442 469
f 441 469 466
f 442 462 491
f 442 491 469
f 443 468 467
f 443 467 470
f 445 471 472
f 445 472 446
f 445 470 473
f 445 473 474
f 445 474 471
f 447 475 508
f 447 508 476
f 447 476 477
f 447 477 448
f 448 477 476
f 448 476 478
f 448 478 449
f 449 479 511
f 449 511 480
f 449 480 481
f 449 481 450
f 449 478 509
f 449 509 479
f 450 481 451
f 451 481 482
f 451 482 513
f 451 513 483
f 452 483 515
f 452 515 484
f 452 484 453
f 455 484 515
f 455 515 485
f 455 485 486
f 455 486 456
f 457 487 492
f 457 492 488
f 457 488 458
f 458 488 465
f 460 489 461
f 460 490 519
f 460 519 489
f 461 489 491
f 461 491 462
f 463 464 490
f 464 465 490
f 465 488 492
f 465 492 493
f 465 493 490
f 466 494 467
f 466 469 495
f 466 495 496
f 466 496 494
f 467 494 473
f 467 473 470
f 469 491 489
f 469 489 497
f 469 497 498
f 469 498 499
f 469 499 500
f 469 500 495
f 471 474 472
f 472 474 501
f 473 494 474
f 474 502 503
f 474 503 504
f 474 504 501
f 474 494 505
f 474 505 529
f 474 529 531
f 474 531 506
f 474 506 502
f 475 502 507
f 475 507 508
f 476 508 509
f 476 509 478
f 479 510 511
f 479 509 510
f 480 511 512
f 480 512 482
f 480 482 481
f 482 512 539
f 482 539 513
f 483 513 514
f 483 514 541
f 483 541 515
f 485 515 516
f 485 516 486
f 486 516 542
f 486 542 517
f 487 518 521
f 487 521 492
f 489 519 527
f 489 527 497
f 490 493 520
f 490 520 527
f 490 527 519
f 492 521 522
f 492 522 493
f 493 522 546
f 493 546 520
f 494 523 505
f 494 496 524
f 494 524 525
f 494 525 523
f 495 500 496
f 496 500 526
f 496 526 551
f 496 551 524
f 497 527 528
f 497 528 498
f 498 526 500
f 498 500 499
f 498 528 552
f 498 552 526
f 502 506 507
f 505 523 530
f 505 530 529
f 506 531 556
f 506 556 532
f 506 532 507
f 507 532 508
f 508 532 533
f 508 533 534
f 508 534 509
f 509 534 535
f 509 535 510
f 510 535 536
f 510 536 511
f 511 536 557
f 511 557 537
f 511 537 558
f 511 558 538
f 511 538 539
f 511 539 512
f 513 539 540
f 513 540 514
f 514 540 541
f 515 541 542
f 515 542 516
f 517 542 544
f 517 544 543
f 518 545 547
f 518 547 521
f 520 546 552
f 520 552 528
f 520 528 527
f 521 547 548
f 521 548 522
f 522 548 546
f 523 525 549
f 523 549 550
f 523 550 530
f 524 551 525
f 525 551 549
f 526 552 570
f 526 570 551
f 529 530 555
f 529 555 531
f 530 550 553
f 530 553 554
f 530 554 535
f 530 535 555
f 531 555 535
f 531 535 556
f 532 556 534
f 532 534 533
f 534 556 535
f 535 554 557
f 535 557 536
f 537 557 572
f 537 572 558
f 538 558 540
f 538 540 539
f 540 558 559
f 540 559 560
f 540 560 541
f 541 560 544
f 541 544 542
f 543 544 561
f 544 562 561
f 544 560 559
f 544 559 563
f 544 563 574
f 544 574 562
f 545 564 547
f 546 548 547
f 546 547 565
f 546 565 552
f 547 564 566
f 547 566 567
f 547 567 568
f 547 568 569
f 547 569 565
f 549 553 550
f 549 551 570
f 549 570 571
f 549 571 553
f 552 565 569
f 552 569 570
f 553 557 554
f 553 571 572
f 553 572 557
f 558 572 577
f 558 577 563
f 558 563 559
f 561 562 573
f 562 574 575
f 562 575 576
f 562 576 573
f 563 577 575
f 563 575 574
f 564 578 580
f 564 580 566
f 566 579 567
f 566 580 579
f 567 579 571
f 567 571 570
f 567 570 581
f 567 581 568
f 568 581 570
f 568 570 569
f 571 579 575
f 571 575 572
f 572 575 577
f 573 576 583
f 573 583 582
f 575 579 580
f 575 580 583
f 575 583 576
f 578 582 583
f 578 583 580
