# https://github.com/mikedh/trimesh
v 0.26387600 -0.06821610 0.64592500
v 0.27750300 -0.05231730 0.63686400
v 0.26689000 -0.06064530 0.64899000
v 0.28510300 -0.04244490 0.63086800
v 0.28205600 -0.05004610 0.62780300
v 0.27904200 -0.06064530 0.61874200
v 0.26083000 -0.07884560 0.63686400
v 0.20926900 -0.12281700 0.66418100
v 0.22443600 -0.11524600 0.63686400
v 0.22443900 -0.11525200 -0.75601700
v 0.20016300 -0.12739000 0.65512000
v 0.20017100 -0.12739000 -0.75601700
v 0.09101420 -0.12739000 0.67324200
v 0.12740800 -0.12739000 0.67324200
v 0.13651400 -0.12281700 0.68243600
v 0.21231500 -0.11524600 0.66724500
v 0.16447500 0.02305820 0.72454300
v 0.20016300 -0.10919000 0.67324200
v 0.12740800 -0.10919000 0.69149700
v 0.05462060 -0.09098930 0.70961900
v 0.05462060 -0.10310300 0.70362300
v 0.12740800 -0.12130300 0.68536700
v 0.09101420 -0.12130300 0.68536700
v 0.04246810 -0.10310300 0.69749300
v 0.04551420 -0.10007400 0.70508800
v -0.00909216 -0.02727290 0.72334400
v -0.00909216 -0.03184570 0.71881300
v 0.00912066 -0.06367360 0.70508800
v 0.00607450 -0.06670200 0.69749300
v -0.01210630 -0.03030130 0.71574800
v -0.01819860 -0.01818790 0.70961900
v 0.01213480 -0.07884560 0.68536700
v -0.01819860 -0.01819630 -0.75601700
v -0.01819860 0.07278360 0.70961900
v -0.01364540 0.08186860 0.71881300
v -0.01210630 -0.01818790 0.72174500
v -0.01210630 0.07278360 0.72174500
v 0.05462060 0.14558500 0.70961900
v 0.03413120 0.14558500 0.70508800
v 0.01595050 0.12738500 0.70508800
v 0.00456746 0.11826900 0.70055800
v 0.01213480 0.13344100 0.69149700
v 0.03034760 0.15164200 0.69149700
v 0.04096100 0.15467000 0.70055800
v 0.05462060 0.16378500 0.69149700
v 0.04856040 0.15769800 0.70362300
v 0.12740800 0.16378500 0.69149700
v 0.16344900 0.03174950 0.72454300
v 0.14558900 0.03638290 0.72454300
v 0.13346800 0.03032620 0.72454300
v 0.14558900 0.01821280 0.72454300
v 0.16223000 0.02190740 0.72454300
v 0.27904200 0.09704060 0.64299400
v 0.25476900 0.10918400 0.65512000
v 0.26083000 0.13344100 0.64299400
v 0.27599600 0.11221300 0.63992900
v 0.27904200 0.11524100 0.62473800
v 0.29116300 0.09098390 0.61874200
v 0.30937600 0.03638290 0.61874200
v 0.30328300 0.03032620 0.63086800
v 0.30328300 0.01215610 0.63086800
v 0.30937600 0.01821280 0.61874200
v 0.29116300 -0.03638820 0.61874200
v 0.29116300 -0.03638490 -0.75601700
v 0.27902200 -0.06066640 -0.75601700
v 0.30937600 0.01820240 -0.75601700
v 0.30937600 0.03641250 -0.75601700
v 0.29116300 0.09098390 -0.63674300
v 0.27904200 0.11525100 -0.75601700
v 0.22443600 0.16984200 0.64299400
v 0.22139000 0.16681400 0.65805100
v 0.20926900 0.17287000 0.66418100
v 0.20016300 0.18198600 0.65512000
v 0.19410300 0.17589900 0.66724500
v 0.20016300 0.16378500 0.67324200
v 0.12134800 0.17589900 0.68536700
v 0.08495400 0.17589900 0.68536700
v 0.09101420 0.18198600 0.67324200
v 0.12740800 0.18198600 0.67324200
v 0.09101420 0.18198600 -0.63674300
v 0.03034760 0.15165000 -0.75601700
v 0.01213480 0.13344000 -0.75601700
v -0.01819860 0.07278970 -0.75601700
v 0.20016300 0.18198600 -0.75601700
v 0.09101420 0.18198600 -0.75601700
v 0.22443600 0.16983900 -0.75601700
v 0.29116300 0.09097830 -0.75601700
v 0.09100450 -0.12739000 -0.75601700
v 0.01215250 -0.07886450 -0.75601700
v 0.03034690 -0.09705380 -0.75601700
v 0.03034760 -0.09704600 0.68536700
f 75 47 48
f 75 74 47
f 75 48 54
f 81 78 80
f 75 72 74
f 76 47 74
f 72 73 74
f 75 54 72
f 76 46 47
f 78 73 80
f 77 45 46
f 77 78 45
f 77 76 78
f 79 78 76
f 79 73 78
f 79 74 73
f 79 76 74
f 72 70 73
f 77 46 76
f 71 70 72
f 4 5 6
f 71 55 70
f 81 45 78
f 4 6 63
f 6 64 63
f 6 65 64
f 6 10 65
f 65 10 66
f 64 65 66
f 64 66 63
f 62 63 66
f 62 66 59
f 62 59 61
f 60 61 59
f 67 59 66
f 58 59 67
f 58 67 68
f 58 68 69
f 58 69 57
f 57 69 70
f 55 57 70
f 71 72 55
f 43 45 81
f 50 52 48
f 82 42 81
f 32 33 89
f 90 32 89
f 90 91 32
f 13 91 90
f 24 91 13
f 24 32 91
f 24 29 32
f 24 25 29
f 13 90 88
f 12 13 88
f 12 88 10
f 10 88 66
f 90 89 88
f 55 72 54
f 4 63 62
f 23 13 15
f 23 15 22
f 19 22 15
f 19 15 16
f 34 35 42
f 43 81 42
f 34 42 83
f 33 83 89
f 82 83 42
f 82 81 83
f 81 84 83
f 85 84 81
f 85 80 84
f 85 81 80
f 80 73 84
f 70 84 73
f 86 84 70
f 86 69 84
f 86 70 69
f 69 66 84
f 67 66 69
f 87 67 69
f 87 68 67
f 87 69 68
f 84 66 83
f 88 83 66
f 89 83 88
f 34 83 33
f 4 62 61
f 53 17 60
f 17 3 61
f 18 19 16
f 18 17 19
f 19 17 20
f 21 19 20
f 21 22 19
f 21 23 22
f 21 13 23
f 21 24 13
f 18 16 17
f 21 25 24
f 25 20 26
f 27 25 26
f 28 25 27
f 28 29 25
f 28 27 29
f 27 30 29
f 27 26 30
f 31 30 26
f 21 20 25
f 17 16 3
f 1 3 16
f 8 1 16
f 2 3 1
f 2 4 3
f 2 5 4
f 2 6 5
f 2 7 6
f 2 1 7
f 8 7 1
f 4 61 3
f 9 6 7
f 9 10 6
f 11 10 9
f 11 12 10
f 11 13 12
f 14 13 11
f 14 15 13
f 14 11 15
f 11 8 15
f 11 9 8
f 8 16 15
f 31 29 30
f 31 32 29
f 9 7 8
f 31 34 33
f 49 38 37
f 50 37 26
f 51 50 26
f 51 52 50
f 51 26 52
f 26 20 52
f 17 52 20
f 17 48 52
f 49 37 50
f 53 48 17
f 53 55 54
f 56 55 53
f 56 57 55
f 56 58 57
f 56 53 59
f 53 60 59
f 17 61 60
f 31 33 32
f 53 54 48
f 49 50 48
f 56 59 58
f 38 48 47
f 49 48 38
f 31 36 35
f 31 35 34
f 36 26 37
f 35 36 37
f 35 37 38
f 39 35 38
f 40 35 39
f 41 35 40
f 31 26 36
f 41 40 42
f 41 42 35
f 39 38 46
f 44 39 46
f 44 46 45
f 38 47 46
f 44 45 43
f 44 43 39
f 39 43 42
f 40 39 42

