# https://github.com/mikedh/trimesh
v 0.53616300 0.03665610 -0.75602500
v 0.53625800 0.03638200 -0.75602500
v 0.52768700 0.03665610 -0.81893500
v -0.25251400 0.03665610 -0.75602500
v 0.53835300 0.03029960 -0.75602500
v 0.54016200 0.02234960 -0.75602500
v 0.54101900 0.01818620 -0.75602500
v 0.52768700 -0.07279260 -0.81893500
v 0.52178300 0.03665610 -0.83087700
v -0.25413300 0.03665610 -0.79990300
v -0.40030700 0.03638200 -0.76434600
v -0.40202100 0.03472000 -0.75602500
v 0.54101900 -0.02497310 -0.75602500
v 0.52768700 -0.09098840 -0.80073600
v 0.52311600 -0.08189050 -0.82803500
v 0.52168800 -0.07279260 -0.83106800
v 0.54073300 -0.02809140 -0.75602500
v 0.52168800 0.03665610 -0.83106800
v -0.25413300 0.03665610 -0.80073600
v -0.40030700 0.03638200 -0.78254500
v -0.42687600 0.03165310 -0.75602500
v 0.52254500 -0.11905300 -0.75602500
v 0.52311600 -0.10008600 -0.80983600
v 0.53083000 -0.09098840 -0.75602500
v 0.50492800 -0.13647800 -0.82803500
v 0.50340400 -0.12738000 -0.83106800
v 0.49131000 -0.12738000 -0.83713400
v 0.50949900 -0.07279260 -0.83713400
v 0.50949900 0.03665610 -0.83713400
v -0.24918100 0.03665610 -0.81190000
v -0.40944900 0.03184160 -0.79164500
v -0.23042100 0.03665610 -0.83106800
v -0.38211900 0.03638200 -0.80073600
v -0.42840000 0.02990550 -0.75602500
v 0.51349800 -0.13834500 -0.75602500
v 0.50407100 -0.13834500 -0.82241300
v 0.50264200 -0.13834500 -0.82896400
v 0.49750000 -0.13834500 -0.83198100
v 0.48035900 -0.13834500 -0.83713400
v 0.49264300 -0.13834500 -0.83438700
v -0.21832700 0.03665610 -0.83713400
v -0.39126100 0.03184160 -0.80983600
v -0.41249600 0.02425140 -0.79467800
v -0.43068500 0.02425140 -0.75828000
v -0.21889800 0.03665610 -0.83685600
v -0.34574200 0.03638200 -0.81893500
v -0.43182800 0.02312060 -0.75602500
v -0.22708800 -0.13834500 -0.75602500
v -0.20013900 -0.13834500 -0.83713400
v -0.34574200 0.01818620 -0.83713400
v -0.34574200 0.03031670 -0.83106800
v -0.35478800 0.03184160 -0.82803500
v -0.39421300 0.02425140 -0.81286900
v -0.35783600 0.02425140 -0.83106800
v -0.40640200 0.01212090 -0.80680300
v -0.41249600 -0.01214010 -0.79467800
v -0.43182800 -0.01327090 -0.75602500
v -0.41659100 -0.03443080 -0.75602500
v -0.22651700 -0.13834500 -0.77250900
v -0.21109000 -0.13834500 -0.83164800
v -0.40640200 -0.02427060 -0.80680300
v -0.37002500 -0.02427060 -0.82500200
v -0.34574200 -0.01820530 -0.83713400
v -0.37002500 0.01212090 -0.82500200
v -0.42744700 -0.02714900 -0.75602500
v -0.42459000 -0.02427060 -0.77041300
v -0.41249600 -0.03033580 -0.77647900
v -0.40030700 -0.03640110 -0.78254500
v -0.21832700 -0.13834500 -0.81893500
v -0.21975500 -0.13834500 -0.81170200
v -0.21223200 -0.13834500 -0.83106800
v -0.39726000 -0.03336850 -0.79770300
v -0.40944900 -0.02730320 -0.79164500
f 42 46 52
f 35 60 49
f 35 49 39
f 35 39 40
f 35 40 38
f 35 38 37
f 41 52 46
f 41 50 51
f 41 51 52
f 41 46 45
f 42 53 43
f 35 71 60
f 42 52 54
f 35 37 36
f 35 69 71
f 31 43 44
f 35 59 70
f 27 49 63
f 27 63 50
f 27 50 41
f 27 41 29
f 27 29 28
f 27 38 40
f 27 40 39
f 31 42 43
f 42 54 53
f 31 44 34
f 32 45 33
f 33 46 42
f 33 45 46
f 34 44 47
f 35 48 59
f 35 70 69
f 43 53 55
f 50 62 64
f 43 61 56
f 58 67 68
f 58 68 69
f 58 69 70
f 58 70 59
f 60 71 61
f 61 72 68
f 58 65 66
f 61 68 73
f 61 71 72
f 66 73 67
f 67 73 68
f 68 72 71
f 27 39 49
f 68 71 69
f 61 73 66
f 57 66 65
f 57 61 66
f 56 61 57
f 43 56 57
f 43 57 47
f 43 47 44
f 48 58 59
f 49 60 61
f 49 61 62
f 49 62 63
f 50 63 62
f 50 64 55
f 50 55 53
f 50 53 54
f 50 54 51
f 51 54 52
f 55 64 62
f 55 62 61
f 43 55 61
f 58 66 67
f 26 38 27
f 25 35 36
f 1 58 48
f 1 48 35
f 1 35 22
f 1 22 24
f 1 24 17
f 1 17 13
f 1 65 58
f 1 13 7
f 1 6 5
f 1 5 2
f 2 5 3
f 3 5 6
f 3 6 7
f 3 7 13
f 1 7 6
f 3 13 8
f 1 57 65
f 1 34 47
f 26 37 38
f 1 2 3
f 1 3 9
f 1 9 18
f 1 18 29
f 1 29 41
f 1 47 57
f 1 41 45
f 1 32 30
f 1 30 19
f 1 19 10
f 1 10 4
f 1 12 21
f 1 21 34
f 1 45 32
f 3 8 9
f 1 4 12
f 4 11 12
f 16 27 28
f 16 28 29
f 16 29 18
f 19 30 20
f 20 31 21
f 20 30 32
f 16 26 27
f 20 32 33
f 21 31 34
f 22 35 25
f 22 25 23
f 25 36 37
f 4 10 11
f 25 37 26
f 20 42 31
f 16 25 26
f 20 33 42
f 15 23 25
f 8 23 15
f 15 25 16
f 8 15 16
f 8 16 9
f 8 14 23
f 8 17 14
f 9 16 18
f 8 13 17
f 10 20 11
f 11 20 21
f 11 21 12
f 14 22 23
f 14 17 24
f 14 24 22
f 10 19 20

