# https://github.com/mikedh/trimesh
v -0.23292500 -0.12750800 -0.65148600
v -0.21231700 -0.12132000 -0.66728700
v -0.25903000 -0.03694550 -0.63674300
v -0.23051900 -0.04853180 -0.66728700
v -0.19652200 -0.12750800 -0.68787500
v -0.19109600 -0.11828900 -0.70064000
v -0.21231700 -0.03694550 -0.70367700
v -0.20019200 -0.03687760 -0.72794400
v -0.17732400 -0.12761900 -0.72328000
v -0.21231700 -0.12750800 -0.66728700
v -0.25489100 -0.12750800 -0.64144200
v -0.27305700 -0.12750800 -0.63699300
v -0.27297300 -0.12738400 -0.63695600
v -0.30528500 -0.03823980 -0.63674300
v -0.29117400 -0.10918400 -0.63695600
v -0.30026900 -0.11828900 -0.64150000
v -0.30330100 -0.10918400 -0.64302200
v -0.30936400 -0.10918400 -0.65515500
v -0.30528500 -0.03694550 -0.63674300
v -0.25218900 -0.03687760 -0.75601700
v -0.19658100 -0.03687760 -0.75601700
v -0.19186300 -0.04394790 -0.75601700
v -0.19070600 -0.04627500 -0.75601700
v -0.19109200 -0.04550230 -0.75523900
v -0.17036000 -0.12761900 -0.75601700
v -0.23312900 -0.12761900 -0.75601700
v -0.24528500 -0.08151090 -0.75601700
v -0.29723700 -0.11525700 -0.67941200
v -0.24073500 -0.10086500 -0.75601700
v -0.23460300 -0.12540700 -0.75601700
v -0.29105400 -0.12750800 -0.67347100
v -0.29842800 -0.12750800 -0.66240500
v -0.30020900 -0.12750800 -0.65527200
v -0.30936400 -0.03694550 -0.65515500
v -0.29723700 -0.03694550 -0.67941200
v -0.30330100 -0.12132000 -0.64908900
v -0.29112600 -0.12750800 -0.64377200
v -0.24870800 -0.03694550 -0.64908900
v -0.23284000 -0.03694550 -0.66960300
f 19 20 34
f 18 19 34
f 31 26 32
f 18 34 28
f 18 28 32
f 18 32 33
f 32 26 33
f 30 27 26
f 31 28 26
f 30 26 28
f 29 27 30
f 29 30 28
f 29 28 27
f 35 34 20
f 27 28 20
f 31 32 28
f 35 28 34
f 9 26 25
f 36 18 33
f 27 20 26
f 39 4 7
f 8 39 7
f 8 38 39
f 8 3 38
f 17 18 16
f 15 12 13
f 16 12 15
f 37 36 33
f 37 33 26
f 37 26 9
f 37 9 12
f 37 12 16
f 37 16 36
f 36 16 18
f 35 20 28
f 26 20 25
f 11 9 1
f 23 25 21
f 11 13 12
f 11 12 9
f 9 10 1
f 2 1 10
f 5 2 10
f 5 10 9
f 6 5 9
f 6 9 8
f 6 8 7
f 6 7 4
f 6 4 5
f 5 4 2
f 2 4 3
f 2 3 1
f 38 4 39
f 11 3 13
f 21 25 20
f 11 1 3
f 14 15 13
f 23 9 25
f 23 24 9
f 8 9 24
f 22 8 24
f 22 24 23
f 22 23 21
f 22 21 8
f 8 21 20
f 8 20 19
f 8 19 3
f 14 3 19
f 14 19 18
f 14 18 17
f 14 17 16
f 14 16 15
f 14 13 3
f 38 3 4

