# https://github.com/mikedh/trimesh
v 0.51358400 -0.13838800 -0.75602500
v 0.51264200 -0.14559500 -0.75602500
v 0.50401400 -0.13838800 -0.82241300
v -0.22709400 -0.13838800 -0.75602500
v 0.50437700 -0.17367800 -0.75602500
v 0.49132600 -0.18198700 -0.81893500
v 0.48675900 -0.19109200 -0.82803500
v 0.50263700 -0.13838800 -0.82896400
v -0.22651400 -0.13838800 -0.77250900
v -0.22709400 -0.15431500 -0.75602500
v 0.50024400 -0.18198700 -0.75602500
v 0.48523600 -0.18198700 -0.83106800
v 0.49603900 -0.19032300 -0.75602500
v 0.48661400 -0.20853200 -0.75602500
v 0.47921800 -0.20627500 -0.81893500
v 0.43216500 -0.26390300 -0.82803500
v 0.47537600 -0.20019700 -0.83258400
v 0.49748900 -0.13838800 -0.83198100
v -0.21977100 -0.13838800 -0.81170200
v -0.21832100 -0.14559500 -0.81893500
v -0.19062500 -0.22710000 -0.75602500
v -0.20621300 -0.16985700 -0.82500200
v -0.18801500 -0.20627500 -0.82500200
v 0.49270400 -0.13838800 -0.83438700
v 0.47312800 -0.18198700 -0.83713400
v 0.48559900 -0.21007000 -0.75602500
v 0.45964300 -0.24492400 -0.75602500
v 0.42462500 -0.27903400 -0.81893500
v 0.42078200 -0.27295600 -0.83258400
v 0.41853400 -0.25479800 -0.83713400
v -0.21832100 -0.13838800 -0.81893500
v -0.21288400 -0.13838800 -0.82990100
v -0.21230300 -0.13954200 -0.83106800
v -0.17271800 -0.24554000 -0.75602500
v -0.15162000 -0.26085100 -0.82500200
v -0.13646700 -0.28206100 -0.77344600
v -0.19715100 -0.16077800 -0.83410100
v -0.17888000 -0.19717000 -0.83410100
v -0.14248400 -0.25177200 -0.83410100
v 0.48037800 -0.13838800 -0.83713400
v 0.43122200 -0.28244500 -0.75602500
v 0.41396700 -0.28206100 -0.82803500
v 0.38612600 -0.31806800 -0.75602500
v 0.35183300 -0.33363600 -0.81893500
v 0.40642700 -0.28508700 -0.83106800
v 0.34799000 -0.32755800 -0.83258400
v 0.40033600 -0.27295600 -0.83713400
v -0.21230300 -0.13838800 -0.83106800
v -0.21114300 -0.13838800 -0.83164800
v -0.20012300 -0.14559500 -0.83713400
v -0.13646700 -0.28206100 -0.75602500
v -0.11522400 -0.29721800 -0.82500200
v -0.09992580 -0.31829900 -0.75602500
v -0.18192500 -0.18198700 -0.83713400
v -0.14552900 -0.23658900 -0.83713400
v -0.12733100 -0.25479800 -0.83713400
v -0.10608800 -0.28813900 -0.83410100
v -0.20012300 -0.13838800 -0.83713400
v 0.34117500 -0.33666200 -0.82803500
v 0.35843000 -0.33704700 -0.75602500
v 0.34596000 -0.34538200 -0.75602500
v 0.33153200 -0.35446100 -0.75602500
v 0.32754500 -0.34576700 -0.81893500
v 0.33363500 -0.33968900 -0.83106800
v 0.32754500 -0.32755800 -0.83713400
v -0.06062980 -0.33363600 -0.82500200
v -0.07803020 -0.33286700 -0.75602500
v -0.09093550 -0.29116500 -0.83713400
v -0.05149460 -0.32453100 -0.83410100
v 0.31993200 -0.35941100 -0.75602500
v 0.23655500 -0.38215900 -0.81893500
v 0.24264500 -0.37608100 -0.83106800
v 0.23655500 -0.36395000 -0.83713400
v -0.04504190 -0.35446100 -0.75602500
v -0.03032400 -0.33968900 -0.83106800
v -0.00908103 -0.35487100 -0.82803500
v -0.02423390 -0.35181900 -0.82500200
v -0.00864601 -0.37267000 -0.75602500
v -0.03634170 -0.32755800 -0.83713400
v 0.25373800 -0.38423700 -0.75602500
v 0.17333300 -0.39788100 -0.75602500
v 0.15390300 -0.40036900 -0.75602500
v 0.14556500 -0.40036900 -0.76434600
v 0.05464800 -0.38215900 -0.81893500
v 0.06066570 -0.37608100 -0.83106800
v 0.05464800 -0.36395000 -0.83713400
v 0.00607185 -0.35789800 -0.83106800
v 0.00005420 -0.36395000 -0.81893500
v 0.02020970 -0.38018500 -0.75602500
v 0.00005420 -0.34576700 -0.83713400
v 0.14556500 -0.40036900 -0.75602500
v 0.12939700 -0.39836800 -0.75602500
v 0.04478780 -0.38631400 -0.75602500
v 0.03478260 -0.38382600 -0.75602500
f 36 52 53
f 35 52 36
f 36 53 51
f 37 50 54
f 37 54 38
f 38 54 55
f 38 55 39
f 39 55 56
f 39 56 68
f 44 60 61
f 42 59 64
f 42 64 45
f 43 60 44
f 85 90 86
f 44 61 62
f 44 62 63
f 44 63 64
f 35 57 52
f 44 64 59
f 39 68 57
f 35 39 57
f 28 42 29
f 33 50 37
f 46 64 65
f 25 56 55
f 25 55 54
f 25 54 50
f 25 50 58
f 25 58 40
f 27 41 28
f 28 41 43
f 28 43 44
f 34 36 51
f 28 44 59
f 29 42 45
f 29 45 64
f 29 64 46
f 29 46 65
f 29 65 47
f 29 47 30
f 32 48 33
f 33 48 49
f 33 49 50
f 28 59 42
f 49 58 50
f 76 88 77
f 52 66 53
f 71 85 72
f 72 85 86
f 72 86 73
f 75 79 90
f 75 90 87
f 76 87 85
f 76 85 84
f 76 84 88
f 77 88 78
f 78 88 84
f 78 84 89
f 82 91 83
f 83 91 92
f 83 92 93
f 83 93 84
f 84 93 94
f 84 94 89
f 85 87 90
f 25 68 56
f 71 84 85
f 71 83 84
f 71 82 83
f 71 81 82
f 53 66 67
f 57 68 79
f 57 79 69
f 57 69 66
f 62 70 63
f 63 70 71
f 63 71 72
f 63 72 64
f 64 72 73
f 52 57 66
f 64 73 65
f 66 69 79
f 66 79 75
f 66 75 87
f 66 87 76
f 66 76 77
f 66 77 78
f 66 78 74
f 70 80 71
f 71 80 81
f 66 74 67
f 25 79 68
f 7 14 15
f 25 86 90
f 1 94 93
f 1 93 92
f 1 92 91
f 1 91 82
f 1 82 81
f 1 81 80
f 1 80 70
f 1 70 62
f 1 62 61
f 1 61 60
f 1 60 43
f 1 43 41
f 1 41 27
f 1 27 26
f 1 26 14
f 1 14 13
f 1 13 11
f 1 11 5
f 1 5 2
f 1 89 94
f 2 5 3
f 1 78 89
f 1 67 74
f 25 90 79
f 1 2 3
f 1 3 8
f 1 8 18
f 1 24 40
f 1 40 58
f 1 58 49
f 1 49 48
f 1 48 32
f 1 32 31
f 1 31 19
f 1 19 9
f 1 9 4
f 1 4 10
f 1 10 21
f 1 21 34
f 1 34 51
f 1 51 53
f 1 53 67
f 1 74 78
f 3 5 6
f 1 18 24
f 3 7 8
f 17 29 30
f 17 30 25
f 19 31 20
f 20 31 32
f 20 32 33
f 20 33 22
f 21 23 35
f 21 35 36
f 21 36 34
f 22 33 23
f 23 33 37
f 23 37 38
f 23 38 39
f 23 39 35
f 24 25 40
f 25 30 47
f 25 65 73
f 25 73 86
f 3 6 7
f 16 29 17
f 16 28 29
f 25 47 65
f 15 27 28
f 15 28 16
f 5 11 7
f 7 12 8
f 7 11 13
f 7 13 14
f 7 15 16
f 7 16 17
f 7 17 12
f 8 12 18
f 5 7 6
f 9 20 10
f 15 26 27
f 9 19 20
f 14 26 15
f 12 25 24
f 4 9 10
f 12 24 18
f 10 23 21
f 10 22 23
f 12 17 25
f 10 20 22

