# https://github.com/mikedh/trimesh
v 0.23657200 0.45496400 -0.65515000
v 0.05460550 0.44282300 -0.67940600
v 0.05460550 0.45496400 -0.65515000
v 0.04551520 0.45040800 -0.66425000
v 0.02730780 0.45040800 -0.64605000
v -0.00908018 0.43220900 -0.66425000
v 0.00833064 0.37703600 -0.75601700
v 0.03641010 0.38529100 -0.75601700
v -0.01845920 0.29891100 -0.75601700
v -0.00831266 0.36871100 -0.75601700
v -0.01819160 0.37079000 -0.74614100
v -0.01845920 0.36325500 -0.75599100
v -0.01875870 0.38712600 -0.71186100
v -0.01875870 0.41884300 -0.67279200
v -0.01845920 0.37043000 -0.74642600
v -0.01875870 0.42951100 -0.65571400
v -0.01875870 0.43007600 -0.65459200
v -0.01875870 0.43069500 -0.64302100
v 0.03035570 0.44889400 -0.64302100
v 0.24871000 0.44889400 -0.64302100
v 0.25437900 0.44776500 -0.64415100
v 0.25437900 0.43756400 -0.63735300
v 0.25437900 0.43675200 -0.63695000
v 0.03639810 0.43675200 -0.63695000
v -0.01819720 0.41855400 -0.63695000
v 0.01821750 0.40035500 -0.63695000
v -0.01875870 0.39980500 -0.63695000
v -0.01875870 0.37996800 -0.64136400
v -0.01875870 0.41968200 -0.63751500
v -0.01875870 0.41800300 -0.63695000
v -0.01875870 0.37959600 -0.64154800
v 0.25437900 0.40023100 -0.64389400
v 0.25437900 0.41855400 -0.63695000
v 0.25437900 0.38204700 -0.65542100
v 0.25437900 0.38258400 -0.65495200
v -0.01875870 0.35147300 -0.66140400
v -0.01875870 0.36599600 -0.65055900
v -0.01875870 0.31433300 -0.71186100
v -0.01875870 0.32673600 -0.69209900
v -0.01875870 0.33897300 -0.67316600
v 0.25437900 0.36384800 -0.67362100
v 0.25437900 0.35053700 -0.68916600
v 0.25437900 0.33974400 -0.70386100
v 0.25437900 0.33572500 -0.71186100
v -0.01845920 0.30262600 -0.72765900
v -0.01845920 0.30234800 -0.72822900
v 0.23009500 0.32757700 -0.75262400
v 0.23009500 0.32757700 -0.75601700
v 0.14556500 0.40036100 -0.75601700
v 0.23009500 0.38632400 -0.75601700
v 0.25437900 0.40323200 -0.71186100
v 0.25437900 0.45020100 -0.65792900
v 0.25437900 0.45050400 -0.65737900
v 0.23657200 0.44282300 -0.67940600
v 0.17320600 0.39816600 -0.75601700
v 0.15391100 0.40036100 -0.75601700
v 0.09933350 0.39522900 -0.75601700
v 0.25437900 0.43689000 -0.67348100
f 45 43 40
f 46 38 9
f 47 46 9
f 47 44 46
f 48 9 49
f 44 48 51
f 47 9 48
f 50 48 49
f 45 40 39
f 51 48 50
f 47 48 44
f 45 39 38
f 11 6 7
f 45 46 44
f 45 44 43
f 43 44 42
f 43 42 40
f 41 40 42
f 41 42 34
f 40 34 36
f 40 36 39
f 39 36 38
f 44 51 34
f 38 36 13
f 45 38 46
f 42 44 34
f 58 51 50
f 52 21 51
f 13 36 18
f 14 13 18
f 38 13 9
f 28 33 26
f 23 26 33
f 23 33 21
f 33 34 21
f 58 52 51
f 58 50 52
f 55 50 49
f 56 55 49
f 8 49 9
f 57 49 8
f 57 8 2
f 57 2 49
f 54 2 1
f 54 49 2
f 54 56 49
f 54 55 56
f 54 50 55
f 54 52 50
f 53 52 54
f 53 54 1
f 53 1 21
f 53 21 52
f 51 21 34
f 31 18 36
f 41 34 40
f 35 32 31
f 5 18 19
f 17 5 6
f 17 18 5
f 17 14 18
f 16 14 17
f 16 17 6
f 16 6 14
f 15 14 6
f 15 6 11
f 15 11 12
f 15 12 14
f 14 12 13
f 13 12 9
f 10 9 12
f 10 12 11
f 10 11 7
f 10 7 9
f 7 8 9
f 7 2 8
f 4 2 7
f 4 7 6
f 4 5 3
f 4 3 2
f 2 3 1
f 37 31 36
f 5 19 3
f 1 3 19
f 4 6 5
f 20 21 1
f 20 1 19
f 35 31 37
f 35 37 36
f 35 34 32
f 32 34 33
f 32 33 28
f 32 28 31
f 28 29 31
f 29 18 31
f 29 19 18
f 29 25 19
f 30 27 25
f 35 36 34
f 30 29 27
f 30 25 29
f 22 23 21
f 22 19 24
f 22 20 19
f 24 19 25
f 22 24 23
f 25 26 23
f 27 26 25
f 27 28 26
f 27 29 28
f 24 25 23
f 22 21 20

