# https://github.com/mikedh/trimesh
v -0.43676600 -0.01819860 -0.74614100
v -0.43182500 -0.01326060 -0.75601700
v -0.42751000 -0.02714110 -0.75601700
v -0.43069800 -0.03032620 -0.74007200
v -0.43676600 -0.01819860 -0.71186100
v -0.43676600 0.01819860 -0.74614100
v -0.43182500 0.02312940 -0.75601700
v -0.41658900 -0.03441620 -0.75601700
v -0.41856200 -0.03639710 -0.74614100
v -0.42766400 -0.02729790 -0.75523900
v -0.43069800 -0.03032620 -0.71186100
v -0.43676600 0.01819860 -0.71186100
v -0.43069800 0.03032620 -0.74614100
v -0.42766400 0.03184390 -0.75523900
v -0.42843900 0.02990580 -0.75601700
v -0.43069800 0.02538820 -0.75601700
v -0.40037000 -0.03326900 -0.75601700
v -0.39204900 -0.03222870 -0.75601700
v -0.41856200 -0.03639710 -0.71186100
v -0.43069800 0.03032620 -0.71186100
v -0.41856200 0.03639710 -0.74614100
v -0.42688900 0.03165150 -0.75601700
v -0.39101600 -0.03171570 -0.75601700
v -0.39127400 -0.03184390 -0.75523900
v -0.40643800 -0.03032620 -0.71186100
v -0.41856200 0.03639710 -0.71186100
v -0.40203500 0.03472980 -0.75601700
v -0.41856200 0.03269190 -0.75601700
v -0.38490400 -0.02164020 -0.75601700
v -0.40037000 -0.01819860 -0.71186100
v -0.40643800 0.03032620 -0.71186100
v -0.38971800 0.02652120 -0.75601700
v -0.38061700 0.00154624 -0.75601700
v -0.40037000 0.01819860 -0.71186100
v -0.40248600 0.02243110 -0.71186100
v -0.38061700 0.00832260 -0.75601700
f 14 21 22
f 13 21 14
f 13 26 21
f 13 20 26
f 9 18 19
f 9 17 18
f 6 15 16
f 6 16 7
f 6 14 15
f 6 13 14
f 6 20 13
f 14 22 15
f 5 20 12
f 8 17 9
f 18 23 24
f 26 31 27
f 19 24 25
f 5 26 20
f 34 36 35
f 32 35 36
f 31 35 32
f 30 36 34
f 30 33 36
f 18 24 19
f 29 33 30
f 25 29 30
f 24 29 25
f 23 29 24
f 21 28 22
f 21 27 28
f 21 26 27
f 27 31 32
f 5 31 26
f 6 12 20
f 5 34 35
f 2 27 32
f 2 28 27
f 2 22 28
f 2 15 22
f 2 16 15
f 2 7 16
f 2 32 36
f 1 7 2
f 1 5 12
f 1 11 5
f 1 4 11
f 1 3 4
f 1 2 3
f 5 35 31
f 1 6 7
f 2 36 33
f 1 12 6
f 2 29 23
f 5 30 34
f 2 33 29
f 5 25 30
f 5 19 25
f 4 19 11
f 4 9 19
f 4 10 9
f 5 11 19
f 3 9 10
f 3 8 9
f 2 8 3
f 2 17 8
f 2 18 17
f 2 23 18
f 3 10 4

