# https://github.com/mikedh/trimesh
v 0.42747900 0.28553000 -0.75601700
v 0.43108000 0.28190300 -0.75601700
v 0.46191900 0.24142700 -0.75601700
v 0.46405300 0.24568800 -0.75068800
v 0.51864200 0.26390100 -0.66880300
v 0.46403500 0.33665600 -0.65970300
v 0.44586300 0.33665600 -0.67789600
v 0.40945800 0.37305800 -0.66880300
v 0.39125100 0.31846200 -0.75068800
v 0.35470400 0.34009700 -0.75601700
v 0.38698300 0.31634000 -0.75601700
v 0.31999700 0.35941000 -0.75601700
v 0.34579400 0.34544600 -0.75601700
v 0.39128600 0.39124700 -0.65970300
v 0.33669700 0.35485800 -0.75068800
v 0.35488100 0.40946000 -0.65970300
v 0.40038700 0.38671800 -0.65287700
v 0.41248200 0.37610200 -0.66122100
v 0.42460700 0.37001400 -0.64908600
v 0.39128600 0.39124700 -0.64605000
v 0.35488100 0.40946000 -0.64605000
v 0.39736300 0.37912100 -0.63998600
v 0.38218400 0.38216500 -0.63695000
v 0.34578000 0.40035400 -0.63695000
v 0.33973200 0.41247900 -0.64302100
v 0.26389900 0.44586300 -0.64605000
v 0.29120200 0.43675600 -0.65515000
v 0.34578000 0.41401400 -0.65743000
v 0.30332700 0.43069300 -0.66122100
v 0.25437900 0.45051500 -0.65737900
v 0.25437900 0.44774300 -0.64415100
v 0.25437900 0.43754800 -0.63735300
v 0.25437900 0.43675600 -0.63695000
v 0.23009500 0.40841000 -0.71186100
v 0.23009500 0.38632200 -0.75601700
v 0.23009500 0.34386900 -0.71186100
v 0.25437900 0.41856700 -0.63695000
v 0.27300000 0.40035400 -0.63695000
v 0.26389900 0.39124700 -0.64150400
v 0.25437900 0.40050200 -0.64376200
v 0.25437900 0.40023000 -0.64389400
v 0.25437900 0.38256100 -0.65495200
v 0.48885400 0.19770300 -0.65143200
v 0.49133900 0.20020300 -0.64833000
v 0.49382400 0.19770300 -0.64894600
v 0.46789700 0.19770300 -0.66811400
v 0.25437900 0.38201600 -0.65542100
v 0.23009500 0.33797500 -0.72012900
v 0.23009500 0.33536400 -0.72405000
v 0.23009500 0.32756600 -0.75601700
v 0.23009500 0.33211800 -0.73215800
v 0.43535400 0.19879200 -0.71186100
v 0.43924600 0.19770300 -0.70850200
v 0.43748000 0.19770300 -0.71186100
v 0.39717400 0.22314700 -0.75601700
v 0.23009500 0.32756600 -0.75262400
v 0.47363000 0.22314700 -0.75601700
v 0.51283400 0.19770300 -0.71186100
v 0.46625100 0.19770300 -0.67018200
v 0.56022600 0.19770300 -0.65711500
v 0.55834000 0.19770300 -0.66052500
v 0.55959800 0.20020300 -0.65743000
v 0.55504700 0.20928500 -0.64605000
v 0.53684500 0.24568700 -0.64605000
v 0.52774300 0.23660500 -0.63695000
v 0.52472000 0.25175000 -0.63998600
v 0.51561800 0.27904600 -0.64908600
v 0.53229400 0.25479400 -0.65287700
v 0.53684500 0.24568700 -0.65970300
v 0.55504700 0.20928500 -0.65970300
v 0.47077600 0.22789800 -0.75601700
v 0.52166600 0.26692000 -0.66122100
v 0.46403500 0.33665600 -0.64605000
v 0.45496400 0.32757400 -0.63695000
v 0.52774300 0.19770300 -0.63695000
v 0.54594600 0.19770300 -0.63695000
v 0.54594600 0.20020300 -0.63695000
v 0.55091600 0.19770300 -0.63943600
v 0.55735200 0.19770300 -0.64374000
v 0.54678400 0.19770300 -0.67417800
v 0.25479800 0.38401900 -0.75601700
v 0.29120200 0.42463000 -0.67940600
v 0.30030400 0.42764900 -0.66880300
v 0.23660400 0.38632200 -0.75601700
f 18 6 8
f 71 4 5
f 71 3 4
f 71 57 3
f 3 57 1
f 72 69 5
f 72 68 69
f 72 67 68
f 72 6 67
f 73 67 6
f 73 66 67
f 73 74 66
f 73 20 22
f 73 19 20
f 73 6 19
f 71 5 69
f 18 19 6
f 72 5 6
f 73 22 74
f 64 66 65
f 70 57 69
f 59 53 46
f 18 8 14
f 59 49 53
f 59 46 49
f 58 60 46
f 61 60 58
f 62 60 61
f 62 63 60
f 64 63 62
f 64 65 63
f 64 67 66
f 64 68 67
f 64 62 68
f 62 69 68
f 62 70 69
f 62 61 70
f 70 61 57
f 71 69 57
f 10 14 8
f 24 33 23
f 74 23 75
f 80 61 58
f 81 1 50
f 12 1 81
f 12 81 82
f 16 12 82
f 83 16 82
f 83 29 16
f 83 30 29
f 83 82 30
f 82 81 30
f 84 30 81
f 84 35 30
f 84 81 35
f 35 81 50
f 36 35 50
f 41 39 40
f 53 54 46
f 80 58 57
f 22 23 74
f 80 57 61
f 38 75 33
f 65 74 75
f 65 66 74
f 76 65 75
f 77 65 76
f 77 63 65
f 77 78 63
f 77 76 78
f 76 75 78
f 78 75 60
f 79 78 60
f 79 63 78
f 79 60 63
f 75 46 60
f 45 46 75
f 45 75 44
f 44 75 39
f 38 39 75
f 75 23 33
f 54 58 46
f 43 42 47
f 58 55 57
f 17 18 14
f 17 19 18
f 17 20 19
f 21 20 17
f 21 22 20
f 21 23 22
f 21 24 23
f 21 25 24
f 21 26 25
f 21 27 26
f 21 28 27
f 21 17 28
f 28 17 16
f 28 16 29
f 28 29 27
f 27 29 30
f 27 30 26
f 17 14 16
f 31 26 30
f 15 16 14
f 13 12 15
f 2 3 1
f 2 4 3
f 2 5 4
f 2 6 5
f 2 1 6
f 7 6 1
f 7 8 6
f 7 1 8
f 9 8 1
f 9 10 8
f 11 10 9
f 11 1 10
f 11 9 1
f 54 55 58
f 13 10 12
f 13 14 10
f 13 15 14
f 15 12 16
f 31 25 26
f 10 1 12
f 32 24 25
f 42 36 47
f 48 46 36
f 48 49 46
f 48 36 49
f 49 36 50
f 51 49 50
f 52 49 51
f 43 47 36
f 52 53 49
f 52 50 55
f 52 56 50
f 52 51 56
f 56 51 50
f 55 50 1
f 57 55 1
f 32 25 31
f 52 54 53
f 43 36 46
f 52 55 54
f 43 45 44
f 32 33 24
f 43 46 45
f 32 34 33
f 32 31 34
f 31 30 34
f 34 35 36
f 34 36 33
f 37 33 36
f 37 38 33
f 34 30 35
f 37 40 39
f 37 36 40
f 36 41 40
f 42 41 36
f 42 39 41
f 43 39 42
f 43 44 39
f 37 39 38

