# https://github.com/mikedh/trimesh
v -0.13689700 0.28563500 -0.75601700
v -0.01848360 0.29887500 -0.75601700
v -0.25218400 -0.03687760 -0.75601700
v -0.19657900 -0.03687760 -0.75601700
v -0.20863600 -0.03687760 -0.71186100
v -0.20019100 -0.03687760 -0.72794400
v -0.01875870 0.33894200 -0.67316600
v -0.01875870 0.35145900 -0.66140400
v -0.01875870 0.36597600 -0.65055900
v -0.01848360 0.30231100 -0.72822900
v -0.01848360 0.36324200 -0.75599100
v -0.01848360 0.38726500 -0.71186100
v -0.01875870 0.39980300 -0.63695000
v -0.01875870 0.41797500 -0.63695000
v -0.05460220 0.40035500 -0.63695000
v -0.01875870 0.41856100 -0.63707500
v -0.01875870 0.41966500 -0.63751500
v -0.02427750 0.43069900 -0.64302100
v -0.01875870 0.43069900 -0.64302100
v -0.01875870 0.43007800 -0.65459200
v -0.02732130 0.43218200 -0.64605000
v -0.06370530 0.41401000 -0.66425000
v -0.02732130 0.42311300 -0.66425000
v -0.01875870 0.42949200 -0.65571400
v -0.01875870 0.41883700 -0.67279200
v -0.01848360 0.37041000 -0.74642600
v -0.02809820 0.35882800 -0.75601700
v -0.10011800 0.39580300 -0.66425000
v -0.06447620 0.34061100 -0.75601700
v -0.07557380 0.33403600 -0.75601700
v -0.19106400 0.32301100 -0.66425000
v -0.11528000 0.38821700 -0.65515000
v -0.10466900 0.39125100 -0.64605000
v -0.09707390 0.39428600 -0.64302100
v -0.17288600 0.34121800 -0.64605000
v -0.11146800 0.38214800 -0.64150400
v -0.18423600 0.32756300 -0.64150400
v -0.16381100 0.32756300 -0.63695000
v -0.18196100 0.30935700 -0.63695000
v -0.23885500 0.25480600 -0.64150400
v -0.19561500 0.31846000 -0.64605000
v -0.18196100 0.33439000 -0.65515000
v -0.19410700 0.32149400 -0.65515000
v -0.24263800 0.26084000 -0.65515000
v -0.25020500 0.24570300 -0.64605000
v -0.28661800 0.17291100 -0.64605000
v -0.27296300 0.20018600 -0.65515000
v -0.26690400 0.20625500 -0.66728500
v -0.24869800 0.24266800 -0.66728500
v -0.19107000 0.22295700 -0.75523900
v -0.22747100 0.15014800 -0.75523900
v -0.23201600 0.13800400 -0.75601700
v -0.30328800 0.11529200 -0.66728500
v -0.30937600 0.10922300 -0.65515000
v -0.30482400 0.11829200 -0.64605000
v -0.28511000 0.16380800 -0.64302100
v -0.27523900 0.18201400 -0.64150400
v -0.23657900 0.23659900 -0.63695000
v -0.27296300 0.16380800 -0.63695000
v -0.29116900 0.10922300 -0.63695000
v -0.09101470 0.38214800 -0.63695000
v -0.06068990 0.41249200 -0.64302100
v -0.27296300 0.07994750 -0.63695000
v -0.29116900 0.07994750 -0.63695000
v -0.27140400 -0.03687760 -0.71186100
v -0.30328800 0.07994750 -0.64302100
v -0.30328800 0.10922300 -0.64302100
v -0.30937600 0.07994750 -0.65515000
v -0.27191200 -0.03533110 -0.71186100
v -0.25280300 -0.03441510 -0.75601700
v -0.25477300 -0.01818840 -0.75601700
v -0.29722900 0.07994750 -0.67940600
v -0.25477300 0.02651830 -0.75601700
v -0.24983600 0.05953090 -0.75601700
v -0.29722900 0.10315400 -0.67940600
v -0.25230500 0.04594520 -0.75601700
v -0.19068700 0.22236400 -0.75601700
v -0.22708900 0.14955600 -0.75601700
v -0.24565400 0.25025400 -0.66425000
v -0.01875870 0.37994100 -0.64136400
f 64 63 60
f 64 60 66
f 60 63 15
f 34 62 21
f 64 65 63
f 64 66 65
f 67 60 56
f 67 55 66
f 67 56 55
f 66 55 68
f 66 68 65
f 69 65 68
f 18 19 21
f 70 3 69
f 69 3 65
f 67 66 60
f 18 21 62
f 59 60 58
f 61 15 62
f 56 46 55
f 70 71 3
f 57 46 56
f 57 40 46
f 57 58 40
f 57 59 58
f 57 56 59
f 18 62 15
f 59 56 60
f 38 58 15
f 39 58 38
f 39 40 58
f 61 38 15
f 61 36 38
f 61 34 36
f 61 62 34
f 58 60 15
f 70 69 71
f 44 79 49
f 71 68 72
f 50 31 1
f 50 79 31
f 50 49 79
f 44 31 79
f 44 43 31
f 65 3 5
f 63 65 5
f 78 77 52
f 80 63 5
f 80 10 13
f 80 9 10
f 80 5 9
f 13 15 63
f 40 45 46
f 40 41 45
f 46 54 55
f 80 13 63
f 78 52 51
f 78 51 77
f 77 51 50
f 71 72 73
f 71 73 3
f 73 52 3
f 74 52 73
f 74 75 52
f 76 75 74
f 76 73 75
f 76 74 73
f 73 72 75
f 68 75 72
f 54 75 68
f 53 75 54
f 53 52 75
f 54 68 55
f 52 1 3
f 77 1 52
f 77 50 1
f 69 68 71
f 48 54 46
f 33 21 32
f 48 52 53
f 17 19 18
f 17 12 19
f 17 16 12
f 16 14 12
f 20 19 12
f 20 21 19
f 20 22 21
f 20 23 22
f 24 23 20
f 24 25 23
f 24 26 25
f 24 20 26
f 26 20 12
f 26 12 11
f 26 11 22
f 17 18 15
f 17 15 16
f 16 15 14
f 14 15 13
f 2 3 1
f 4 3 2
f 4 5 3
f 6 5 4
f 7 5 6
f 8 5 7
f 8 9 5
f 26 22 23
f 8 10 9
f 48 53 54
f 10 6 4
f 10 4 2
f 10 2 11
f 12 10 11
f 12 13 10
f 14 13 12
f 8 7 10
f 25 26 23
f 7 6 10
f 27 28 22
f 35 42 41
f 35 32 42
f 35 33 32
f 42 32 31
f 42 31 43
f 42 43 41
f 44 41 43
f 37 35 41
f 44 45 41
f 47 46 44
f 47 48 46
f 48 44 49
f 48 49 50
f 48 50 51
f 48 51 52
f 27 22 11
f 44 46 45
f 37 41 40
f 47 44 48
f 37 39 38
f 27 29 28
f 37 40 39
f 27 2 29
f 27 11 2
f 29 30 28
f 30 1 28
f 30 2 1
f 31 28 1
f 29 2 30
f 32 22 28
f 32 21 22
f 33 34 21
f 37 38 36
f 35 34 33
f 35 36 34
f 32 28 31
f 37 36 35

