# https://github.com/mikedh/trimesh
v 0.39719900 0.22314700 -0.75601700
v 0.40708900 0.22314700 -0.72318100
v 0.41381200 0.22314700 -0.71186100
v 0.40905400 0.22314700 -0.71927400
v 0.52168900 -0.03694550 -0.66728500
v 0.51524100 -0.03694550 -0.67977300
v 0.47733900 -0.03687760 -0.75601700
v 0.53641700 -0.03687760 -0.75601700
v 0.58840600 -0.03694550 -0.67940600
v 0.60055300 -0.03694550 -0.65515000
v 0.60055300 0.07279920 -0.65515000
v 0.58840600 0.07279920 -0.67940600
v 0.59598800 0.09099050 -0.65743000
v 0.59447200 0.10918200 -0.64908600
v 0.58234100 0.14558700 -0.65515000
v 0.57627600 0.15771500 -0.66122100
v 0.56021900 0.19770300 -0.65711500
v 0.55835200 0.19770300 -0.66052500
v 0.57324300 0.15468300 -0.66880300
v 0.52319800 0.11978400 -0.75601700
v 0.50499400 0.17438000 -0.75601700
v 0.52959600 0.09099670 -0.75601700
v 0.54101200 0.01820200 -0.75601700
v 0.54101200 -0.02496580 -0.75601700
v 0.54081700 -0.02807100 -0.75601700
v 0.49104500 0.20016300 -0.75601700
v 0.50044700 0.19107700 -0.75068800
v 0.48568600 0.20909700 -0.75601700
v 0.50262300 0.22314700 -0.71321400
v 0.48148000 0.21421300 -0.75601700
v 0.47363700 0.22314700 -0.75601700
v 0.50262300 0.22314700 -0.71186100
v 0.55736200 0.19770300 -0.64374000
v 0.59143900 0.11827700 -0.64605000
v 0.59447200 0.10311800 -0.64302100
v 0.59447200 -0.03694550 -0.64302100
v 0.58344300 -0.03694550 -0.63750000
v 0.58234100 0.10918200 -0.63695000
v 0.55091400 0.19770300 -0.63943600
v 0.54595000 0.19770300 -0.63695000
v 0.55808000 0.19409700 -0.64302100
v 0.52775400 0.19770300 -0.63695000
v 0.56414600 -0.03694550 -0.63695000
v 0.58234100 -0.03694550 -0.63695000
v 0.53988500 -0.03694550 -0.64908600
v 0.46793200 0.19770300 -0.66811400
v 0.48888900 0.19770300 -0.65143200
v 0.49385300 0.19770300 -0.64894600
v 0.51867200 0.15468300 -0.64150400
v 0.52775400 0.16377900 -0.63695000
f 41 39 35
f 41 35 33
f 36 37 10
f 41 33 39
f 39 33 32
f 39 32 40
f 39 40 38
f 39 38 35
f 35 38 37
f 36 35 37
f 15 33 34
f 35 10 11
f 14 35 11
f 14 34 35
f 14 15 34
f 17 33 15
f 17 32 33
f 17 18 29
f 17 29 32
f 35 34 33
f 32 29 3
f 36 10 35
f 40 32 42
f 46 45 47
f 38 42 43
f 29 1 3
f 49 43 50
f 42 50 43
f 32 3 42
f 48 3 47
f 48 42 3
f 48 50 42
f 48 49 50
f 48 43 49
f 45 43 48
f 45 48 47
f 46 47 3
f 46 3 45
f 45 3 5
f 45 5 43
f 6 10 5
f 5 10 43
f 37 43 10
f 44 43 37
f 44 37 38
f 44 38 43
f 40 42 38
f 31 1 29
f 30 28 31
f 28 27 26
f 20 19 12
f 13 12 19
f 16 13 19
f 16 19 18
f 16 18 17
f 16 17 15
f 16 15 13
f 13 15 14
f 13 11 12
f 12 11 9
f 9 11 10
f 9 10 6
f 9 6 8
f 6 7 8
f 6 2 7
f 4 2 6
f 4 6 5
f 4 5 3
f 4 3 2
f 2 3 1
f 31 26 1
f 20 21 19
f 20 22 21
f 13 14 11
f 12 23 22
f 20 12 22
f 30 31 29
f 30 29 28
f 28 29 18
f 28 18 27
f 21 18 19
f 21 27 18
f 21 26 27
f 21 22 26
f 23 24 22
f 28 26 31
f 26 24 1
f 2 1 7
f 7 1 24
f 8 7 24
f 25 9 8
f 25 8 24
f 25 24 9
f 9 24 23
f 22 24 26
f 12 9 23

