# https://github.com/mikedh/trimesh
v -0.20412200 -0.01033910 -0.37431600
v -0.20412200 -0.00392616 -0.37431600
v -0.20177000 -0.01976620 -0.37431600
v -0.38215300 -0.01822710 -0.21837700
v -0.38215300 -0.00000000 -0.21839600
v -0.20215500 0.01721520 -0.37431600
v -0.38215300 0.01819860 -0.21839600
v -0.19591400 -0.02853770 -0.37431600
v -0.38215300 -0.03032620 -0.21233400
v -0.19411800 0.03032620 -0.37431600
v -0.38215300 0.03032620 -0.21233400
v -0.19411800 -0.03032620 -0.37431600
v -0.38215300 -0.03637580 -0.20022800
v -0.19234400 -0.03122400 -0.37431600
v -0.18199900 -0.03639710 -0.37431600
v -0.18890300 0.03294840 -0.37431600
v -0.38215300 0.03639710 -0.20019100
v -0.18199900 0.03639710 -0.37431600
v -0.36396300 -0.03639710 -0.20019100
v -0.38215300 -0.03031910 -0.18804800
v -0.16985800 -0.03032620 -0.37431600
v -0.18199900 -0.03639710 -0.36396200
v -0.38215300 0.03032620 -0.18806700
v -0.34575200 0.03639710 -0.20019100
v -0.18199900 0.03639710 -0.36396200
v -0.16985800 0.03032620 -0.37431600
v -0.34575200 -0.03639710 -0.20019100
v -0.38215300 -0.01819860 -0.18200500
v -0.33666700 -0.03184390 -0.19109800
v -0.34575200 -0.03032620 -0.18806700
v -0.34575200 -0.01819860 -0.18200500
v -0.16380800 -0.01819860 -0.37431600
v -0.16985800 -0.03032620 -0.36396200
v -0.17289300 -0.03184390 -0.35486900
v -0.20018900 -0.03639710 -0.30936500
v -0.38215300 0.01819860 -0.18200500
v -0.35182200 0.03032620 -0.18806700
v -0.29723100 0.03032620 -0.20625300
v -0.29116000 0.03639710 -0.21839600
v -0.16985800 0.03032620 -0.37002400
v -0.20018900 0.03639710 -0.30936500
v -0.16772000 0.02605090 -0.37431600
v -0.29116000 -0.03639710 -0.21839600
v -0.28207600 -0.03184390 -0.20928400
v -0.33363200 -0.02426240 -0.18806700
v -0.34575200 0.01819860 -0.18200500
v -0.29116000 -0.01819860 -0.20019100
v -0.16380800 0.01819860 -0.37431600
v -0.16380800 -0.01819860 -0.36396200
v -0.16985800 -0.02426240 -0.35183800
v -0.19110400 -0.03184390 -0.30027200
v -0.20929400 -0.03184390 -0.28206700
v -0.27297000 -0.03639710 -0.23658200
v -0.29116000 0.01819860 -0.20019100
v -0.28207600 0.02729790 -0.20928400
v -0.27297000 0.03639710 -0.23658200
v -0.24569600 0.02729790 -0.22748900
v -0.22748400 0.02729790 -0.24569400
v -0.16380800 0.01819860 -0.36396200
v -0.18806900 0.03032620 -0.31542700
v -0.19411800 0.02426240 -0.28509800
v -0.20929400 0.02729790 -0.26388100
v -0.24569600 -0.02274460 -0.22748900
v -0.27904100 -0.02426240 -0.20625300
v -0.20929400 -0.02274460 -0.26388100
v -0.22748400 -0.02274460 -0.24569400
v -0.23052000 0.00606381 -0.23052000
v -0.18199900 -0.01819860 -0.30936500
v -0.18806900 -0.02426240 -0.29724100
v -0.26692100 0.02426240 -0.21233400
v -0.18199900 0.01819860 -0.30936500
v -0.19411800 -0.01212760 -0.28509800
v -0.21233000 0.00606381 -0.24872500
v -0.24266100 -0.00606381 -0.22445800
v -0.20625900 -0.00606381 -0.26085000
f 39 57 58
f 37 54 38
f 38 54 55
f 38 55 39
f 39 55 57
f 35 44 53
f 37 46 54
f 40 41 60
f 39 62 56
f 40 59 42
f 40 60 61
f 40 61 71
f 40 71 59
f 41 62 61
f 39 58 62
f 35 52 44
f 31 47 54
f 34 51 35
f 41 61 60
f 28 46 36
f 29 45 30
f 29 44 64
f 29 64 45
f 30 45 31
f 31 45 64
f 31 64 47
f 31 54 46
f 32 48 59
f 32 59 49
f 33 50 34
f 33 49 50
f 34 50 69
f 34 69 51
f 35 51 52
f 41 56 62
f 61 68 71
f 43 53 44
f 61 62 73
f 61 73 75
f 61 75 72
f 62 67 73
f 63 66 67
f 63 67 74
f 63 74 64
f 64 74 67
f 65 75 73
f 65 73 67
f 65 67 66
f 65 69 75
f 68 72 69
f 69 72 75
f 28 31 46
f 61 72 68
f 42 59 48
f 58 67 62
f 57 67 58
f 44 63 64
f 44 52 65
f 44 65 66
f 44 66 63
f 47 64 67
f 47 67 54
f 49 59 71
f 49 71 68
f 49 68 50
f 50 68 69
f 51 69 65
f 51 65 52
f 54 70 55
f 54 67 70
f 55 70 57
f 57 70 67
f 27 44 29
f 11 17 18
f 26 40 42
f 3 8 9
f 3 9 4
f 4 9 13
f 4 13 20
f 4 20 28
f 4 28 36
f 2 7 6
f 4 36 23
f 4 17 11
f 4 11 7
f 4 7 5
f 6 7 11
f 6 11 10
f 8 12 9
f 4 23 17
f 1 7 2
f 1 5 7
f 1 4 5
f 27 43 44
f 1 2 6
f 1 6 10
f 1 10 16
f 1 16 18
f 1 18 26
f 1 26 42
f 1 42 48
f 1 48 32
f 1 32 21
f 1 21 15
f 1 15 14
f 1 12 8
f 1 8 3
f 1 3 4
f 9 12 14
f 9 14 15
f 1 14 12
f 10 11 16
f 18 25 40
f 18 40 26
f 19 27 20
f 20 27 29
f 20 29 30
f 20 30 31
f 20 31 28
f 21 49 33
f 22 34 35
f 23 36 46
f 23 46 37
f 24 37 38
f 24 38 39
f 25 41 40
f 9 15 13
f 17 25 18
f 17 41 25
f 21 32 49
f 17 39 56
f 17 56 41
f 11 18 16
f 13 19 20
f 13 15 19
f 15 21 33
f 15 34 22
f 15 22 35
f 15 33 34
f 15 53 43
f 15 43 27
f 15 27 19
f 17 23 37
f 15 35 53
f 17 37 24
f 17 24 39

