# https://github.com/mikedh/trimesh
v 0.15385500 0.40036900 -0.75602500
v 0.14557500 0.40036900 -0.76434600
v 0.14557500 0.40036900 -0.75602500
v 0.17319900 0.39816100 -0.75602500
v 0.23657000 0.38214100 -0.81893500
v 0.05465820 0.38214100 -0.81893500
v 0.09938170 0.39520600 -0.75602500
v 0.25475300 0.38399200 -0.75602500
v 0.31990400 0.35939200 -0.75602500
v 0.32756400 0.34575700 -0.81893500
v 0.24864000 0.37608900 -0.82500200
v 0.23657000 0.37608900 -0.83106800
v 0.04552780 0.37762000 -0.82803500
v 0.00838721 0.37701500 -0.75602500
v 0.03639740 0.38527400 -0.75602500
v 0.33236200 0.35273500 -0.75602500
v 0.33963500 0.33970500 -0.82500200
v 0.24562300 0.37306300 -0.83258400
v 0.05465820 0.37608900 -0.83106800
v 0.00003058 0.35789700 -0.83106800
v -0.00902244 0.35939200 -0.82803500
v 0.00003058 0.36394900 -0.81893500
v 0.00003058 0.37284900 -0.75602500
v 0.34574800 0.34543700 -0.75602500
v 0.35464600 0.34009700 -0.75602500
v 0.35178300 0.33361700 -0.81286900
v 0.42459400 0.27904200 -0.81286900
v 0.41244600 0.28509400 -0.82500200
v 0.40942800 0.28206800 -0.83258400
v 0.33661700 0.33664400 -0.83258400
v 0.32756400 0.32756500 -0.83713400
v 0.23657000 0.36394900 -0.83713400
v 0.05465820 0.36394900 -0.83713400
v 0.00003058 0.34575700 -0.83713400
v -0.01815280 0.34803600 -0.83258400
v -0.04546670 0.34120000 -0.82803500
v -0.02805700 0.35882300 -0.75602500
v 0.38698900 0.31631600 -0.75602500
v 0.42745700 0.28548600 -0.75602500
v 0.43109400 0.28189000 -0.75602500
v 0.46189000 0.24141200 -0.75602500
v 0.47922200 0.20627400 -0.81286900
v 0.43062900 0.26690200 -0.82500200
v 0.41855900 0.25476200 -0.83713400
v 0.40029800 0.27295400 -0.83713400
v 0.42761200 0.26387600 -0.83258400
v -0.03633630 0.32756500 -0.83713400
v -0.05451970 0.32984400 -0.83258400
v -0.10914700 0.29342400 -0.83258400
v -0.10001700 0.30481700 -0.82803500
v -0.06063240 0.33361700 -0.81893500
v -0.06442380 0.34063100 -0.75602500
v 0.48564400 0.20912200 -0.75602500
v 0.48525700 0.19413400 -0.82500200
v 0.48223900 0.19110800 -0.83258400
v 0.47310900 0.18199500 -0.83713400
v -0.09096390 0.29114600 -0.83713400
v -0.13344300 0.27904200 -0.81893500
v -0.11518300 0.29723400 -0.81893500
v -0.14551400 0.25704100 -0.83258400
v -0.07556600 0.33404500 -0.75602500
v 0.49098300 0.20018700 -0.75602500
v 0.49825600 0.18683600 -0.75602500
v 0.50498800 0.17441200 -0.75602500
v 0.49129200 0.18199500 -0.81893500
v 0.52317100 0.09099970 -0.82120600
v 0.51860600 0.08192150 -0.83258400
v 0.50955300 0.07280780 -0.83713400
v -0.14551400 0.23657000 -0.83713400
v -0.13684800 0.28562800 -0.75602500
v -0.15162700 0.26081400 -0.81893500
v -0.18195800 0.20246500 -0.83258400
v -0.19410600 0.18808200 -0.83106800
v -0.15766200 0.24262200 -0.83106800
v -0.15464500 0.25020500 -0.82803500
v 0.52317100 0.11980100 -0.75602500
v 0.52773700 0.09099970 -0.80073600
v 0.52773700 0.07280780 -0.81893500
v 0.52162400 0.07280780 -0.83106800
v 0.50955300 0.03670880 -0.83713400
v -0.18195800 0.18199500 -0.83713400
v -0.19062500 0.22233000 -0.75602500
v -0.18799400 0.20627400 -0.81893500
v -0.19410600 0.19413400 -0.81893500
v -0.19101100 0.19566500 -0.82803500
v -0.20014200 0.14561100 -0.83713400
v -0.21229000 0.15166300 -0.83106800
v -0.20927200 0.15924600 -0.82803500
v -0.21229000 0.15775100 -0.81893500
v 0.52773700 0.09933020 -0.75602500
v 0.52959400 0.09099970 -0.75602500
v 0.53191500 0.07280780 -0.75602500
v 0.53624800 0.03670880 -0.75602500
v 0.52773700 0.03670880 -0.81893500
v 0.52177900 0.03670880 -0.83087700
v 0.52162400 0.03670880 -0.83106800
v -0.21832500 0.03670880 -0.83713400
v -0.20888500 0.18598200 -0.75602500
v -0.21832500 0.09099970 -0.83713400
v -0.23047300 0.09708740 -0.83106800
v -0.21832500 0.14561100 -0.81893500
v -0.22706900 0.14956300 -0.75602500
v -0.25244800 0.03670880 -0.75602500
v -0.23047300 0.03670880 -0.83106800
v -0.24919800 0.03670880 -0.81190000
v -0.25422800 0.03670880 -0.80073600
v -0.23650900 0.09099970 -0.81893500
v -0.23202100 0.13799200 -0.75602500
v -0.25229300 0.04596500 -0.75602500
v -0.25422800 0.03670880 -0.79990300
v -0.24981700 0.05956440 -0.75602500
v -0.24896600 0.06337360 -0.75602500
v -0.23650900 0.10919200 -0.78254500
f 54 66 55
f 60 69 81
f 59 70 61
f 58 71 70
f 58 60 71
f 55 68 56
f 55 67 68
f 54 65 66
f 55 66 67
f 58 70 59
f 60 81 72
f 65 77 66
f 60 73 74
f 60 74 75
f 60 75 71
f 64 76 77
f 64 77 65
f 66 77 78
f 66 78 79
f 66 79 67
f 67 79 96
f 54 64 65
f 67 96 80
f 67 80 68
f 60 72 73
f 54 63 64
f 42 53 54
f 53 62 54
f 34 48 35
f 70 71 82
f 35 48 36
f 36 48 49
f 36 49 50
f 36 50 59
f 36 59 51
f 109 111 110
f 36 51 52
f 36 52 37
f 41 53 42
f 54 62 63
f 43 54 55
f 44 46 55
f 44 55 56
f 47 57 49
f 47 49 48
f 49 58 59
f 49 59 50
f 49 57 69
f 49 69 60
f 49 60 58
f 51 61 52
f 51 59 61
f 43 55 46
f 71 75 85
f 87 101 89
f 71 83 82
f 82 84 98
f 84 89 98
f 86 99 100
f 86 100 87
f 87 89 88
f 87 100 101
f 89 101 102
f 89 102 98
f 97 104 100
f 97 100 99
f 100 104 105
f 82 83 84
f 100 105 106
f 100 107 101
f 101 107 108
f 101 108 102
f 103 109 110
f 106 110 111
f 106 111 112
f 106 112 108
f 106 108 113
f 106 113 107
f 107 113 108
f 34 47 48
f 100 106 107
f 80 104 97
f 80 105 104
f 80 106 105
f 72 81 73
f 73 84 83
f 73 83 85
f 73 85 75
f 73 75 74
f 73 81 86
f 73 86 87
f 73 87 88
f 73 88 89
f 73 89 84
f 76 90 77
f 77 90 91
f 77 91 92
f 77 92 93
f 77 93 78
f 78 94 95
f 78 95 79
f 78 93 94
f 79 95 96
f 80 96 95
f 80 95 94
f 80 94 93
f 80 93 103
f 80 103 110
f 80 110 106
f 71 85 83
f 31 33 32
f 31 80 97
f 31 47 34
f 1 40 39
f 1 39 38
f 1 38 25
f 1 25 24
f 1 24 16
f 1 16 9
f 1 9 8
f 1 8 4
f 1 4 2
f 2 4 5
f 2 5 6
f 1 41 40
f 2 6 7
f 4 8 5
f 5 8 9
f 5 9 10
f 5 10 17
f 5 17 11
f 5 11 18
f 5 18 12
f 5 12 13
f 5 13 6
f 6 13 14
f 6 14 15
f 2 7 3
f 6 15 7
f 1 53 41
f 1 63 62
f 31 34 33
f 1 2 3
f 1 3 7
f 1 7 15
f 1 15 14
f 1 14 23
f 1 23 37
f 1 37 52
f 1 52 61
f 1 61 70
f 1 70 82
f 1 62 53
f 1 82 98
f 1 102 108
f 1 108 112
f 1 112 111
f 1 109 103
f 1 103 93
f 1 93 92
f 1 92 91
f 1 91 90
f 1 90 76
f 1 76 64
f 1 64 63
f 1 98 102
f 9 16 17
f 1 111 109
f 11 17 18
f 26 38 27
f 27 38 39
f 27 39 40
f 27 40 41
f 27 41 42
f 27 42 54
f 27 54 43
f 27 43 28
f 28 43 46
f 28 46 29
f 29 44 45
f 25 38 26
f 29 45 31
f 29 46 44
f 31 45 44
f 31 56 68
f 31 68 80
f 31 97 99
f 31 99 86
f 31 86 81
f 31 81 69
f 31 69 57
f 9 17 10
f 31 57 47
f 29 31 30
f 23 36 37
f 31 44 56
f 21 35 36
f 12 19 13
f 12 18 19
f 21 36 23
f 13 19 20
f 13 20 21
f 13 21 22
f 14 22 21
f 14 21 23
f 16 24 17
f 17 24 25
f 17 25 26
f 17 26 27
f 13 22 14
f 17 28 29
f 20 34 35
f 17 27 28
f 20 35 21
f 19 33 34
f 18 33 19
f 18 32 33
f 18 30 31
f 17 30 18
f 17 29 30
f 18 31 32
f 19 34 20

