# https://github.com/mikedh/trimesh
v -0.38215300 0.01819860 -0.18201100
v -0.38215300 -0.01819860 -0.18201100
v -0.38215300 0.03032620 -0.18805600
v -0.41858200 0.01819860 -0.18201100
v -0.41858200 -0.01819860 -0.18201100
v -0.38217500 -0.03032620 -0.18805600
v -0.38215300 -0.03031910 -0.18805600
v -0.38215300 0.03639710 -0.20019700
v -0.42465300 0.03032620 -0.18805600
v -0.43904100 0.01819860 -0.18655800
v -0.43677500 -0.00000000 -0.18201100
v -0.44588200 -0.00909928 -0.18655800
v -0.42766700 -0.02729790 -0.18655800
v -0.41858200 -0.03032620 -0.18805600
v -0.38217500 -0.03639710 -0.20019700
v -0.38215300 -0.03637580 -0.20022300
v -0.41858200 0.03639710 -0.20019700
v -0.38215300 0.03032620 -0.21233900
v -0.57021700 0.03032620 -0.44147100
v -0.57293200 0.03168720 -0.44147100
v -0.58233900 0.03639710 -0.44147100
v -0.47318200 0.03639710 -0.21838400
v -0.47923200 0.03032620 -0.20626800
v -0.44132800 0.02729790 -0.19110400
v -0.47318200 0.01819860 -0.20019700
v -0.44891700 -0.00000000 -0.18805600
v -0.48226700 -0.02729790 -0.20474400
v -0.47318200 -0.03032620 -0.20626800
v -0.47318200 -0.03639710 -0.21838400
v -0.41858200 -0.03639710 -0.20019700
v -0.58233900 -0.03639710 -0.44147100
v -0.57333800 -0.03189380 -0.44147100
v -0.57021700 -0.03032620 -0.44147100
v -0.38215300 -0.03032620 -0.21233900
v -0.38215300 0.01819860 -0.21838400
v -0.56414600 0.01819860 -0.44147100
v -0.56884900 0.02760430 -0.44147100
v -0.59448100 0.03032620 -0.44147100
v -0.58233900 0.03639710 -0.34576500
v -0.50954600 0.03639710 -0.23659600
v -0.51561700 0.03032620 -0.22445400
v -0.48682100 0.02729790 -0.20929100
v -0.52168900 0.01819860 -0.22445400
v -0.52168900 -0.01819860 -0.22445400
v -0.49135300 -0.03184390 -0.21612300
v -0.51865300 -0.02729790 -0.22295600
v -0.52773900 -0.03184390 -0.23431000
v -0.50954600 -0.03639710 -0.23659600
v -0.58233900 -0.03639710 -0.34576500
v -0.59448100 -0.03032620 -0.44147100
v -0.56570600 -0.02133380 -0.44147100
v -0.38215300 -0.01822710 -0.21838400
v -0.56414600 -0.01819860 -0.44147100
v -0.60053100 0.01819860 -0.44147100
v -0.59599900 0.02729790 -0.33667100
v -0.59448100 0.03032620 -0.34576500
v -0.58462600 0.03184390 -0.32755300
v -0.54595300 0.03639710 -0.27299400
v -0.53002600 0.03184390 -0.23659600
v -0.52773900 0.03639710 -0.25478200
v -0.52320700 0.02729790 -0.22750200
v -0.53381000 0.01819860 -0.23052500
v -0.53381000 -0.01819860 -0.23052500
v -0.54595300 -0.03184390 -0.25252100
v -0.52773900 -0.03639710 -0.25478200
v -0.54595300 -0.03639710 -0.27299400
v -0.59448100 -0.03032620 -0.33969400
v -0.60053100 -0.01819860 -0.44147100
v -0.60053100 0.01819860 -0.34576500
v -0.59599900 0.00909928 -0.31846000
v -0.58915800 0.01819860 -0.30939200
v -0.57096500 0.01819860 -0.27299400
v -0.58689200 0.02729790 -0.31846000
v -0.56869900 0.02729790 -0.28208700
v -0.54821900 0.03184390 -0.25478200
v -0.55200300 0.01819860 -0.24873700
v -0.57021700 -0.00000000 -0.26692300
v -0.55200300 -0.01819860 -0.24873700
v -0.55503900 -0.02729790 -0.25935400
v -0.55807400 -0.03032620 -0.26692300
v -0.57325300 -0.02729790 -0.28663300
v -0.59144600 -0.02729790 -0.32300600
v -0.59599900 -0.01819860 -0.32529200
v -0.60053100 -0.01819860 -0.34576500
v -0.60053100 -0.00000000 -0.32755300
v -0.57778500 0.00909928 -0.28208700
v -0.59448100 -0.00000000 -0.31543700
v -0.55959200 0.02729790 -0.26390000
v -0.57778500 -0.01819860 -0.28891900
f 47 65 48
f 43 63 44
f 44 63 46
f 46 63 47
f 47 63 64
f 47 64 66
f 47 66 65
f 43 62 63
f 54 84 85
f 50 67 84
f 54 69 55
f 54 68 84
f 54 85 69
f 55 69 85
f 55 85 70
f 55 70 71
f 41 43 42
f 55 71 72
f 49 66 67
f 41 62 43
f 35 52 53
f 41 59 61
f 55 72 73
f 27 47 45
f 28 45 29
f 29 47 48
f 29 45 47
f 31 49 67
f 31 67 50
f 33 51 34
f 41 61 62
f 34 51 53
f 35 53 36
f 38 54 55
f 38 55 56
f 39 56 57
f 39 57 58
f 40 59 41
f 40 60 75
f 40 75 59
f 34 53 52
f 55 73 57
f 70 87 77
f 57 73 74
f 72 74 73
f 72 86 77
f 72 77 76
f 72 76 88
f 72 88 74
f 74 88 75
f 75 88 76
f 77 87 83
f 70 85 87
f 77 83 89
f 77 81 78
f 78 81 79
f 79 81 80
f 81 89 83
f 81 83 82
f 83 87 85
f 83 85 84
f 27 46 47
f 77 89 81
f 55 57 56
f 70 72 71
f 70 77 86
f 57 74 75
f 57 75 58
f 58 75 60
f 59 62 61
f 59 75 62
f 62 75 76
f 62 76 77
f 62 77 63
f 70 86 72
f 63 77 78
f 64 78 79
f 64 79 80
f 64 80 66
f 66 80 67
f 67 81 82
f 67 82 83
f 67 83 84
f 67 80 81
f 63 78 64
f 27 44 46
f 50 84 68
f 26 44 27
f 6 14 30
f 6 30 15
f 6 15 7
f 7 15 16
f 8 18 19
f 8 19 20
f 8 20 21
f 8 21 39
f 5 13 14
f 8 39 58
f 8 60 40
f 8 40 22
f 8 22 17
f 9 17 22
f 9 22 23
f 9 23 24
f 9 24 10
f 10 24 23
f 8 58 60
f 10 23 25
f 5 12 13
f 4 9 10
f 1 2 7
f 1 7 16
f 1 16 34
f 1 34 52
f 1 52 35
f 1 35 18
f 1 18 8
f 1 8 3
f 5 11 12
f 1 9 4
f 1 11 5
f 1 5 2
f 2 5 14
f 2 14 6
f 2 6 7
f 3 8 17
f 3 17 9
f 4 10 11
f 1 4 11
f 10 25 11
f 1 3 9
f 11 26 12
f 19 51 33
f 19 33 32
f 19 32 31
f 19 31 50
f 19 50 68
f 19 68 54
f 19 54 38
f 19 38 21
f 19 53 51
f 19 21 20
f 21 56 39
f 22 40 41
f 22 41 23
f 23 41 42
f 25 42 43
f 25 43 26
f 26 43 44
f 11 25 26
f 21 38 56
f 19 36 53
f 23 42 25
f 18 37 19
f 12 26 27
f 19 37 36
f 12 27 13
f 13 27 14
f 14 28 29
f 14 29 30
f 15 30 29
f 27 45 28
f 15 29 48
f 14 27 28
f 15 65 66
f 18 36 37
f 15 66 49
f 15 49 31
f 15 31 32
f 15 32 33
f 15 33 16
f 16 33 34
f 15 48 65
f 18 35 36

