# https://github.com/mikedh/trimesh
v -0.20216800 0.07994750 -0.71186100
v -0.20265100 0.07994750 -0.70974300
v -0.20862100 -0.03694550 -0.71186100
v -0.26283900 0.07994750 -0.71186100
v -0.20572800 0.07994750 -0.70180200
v -0.20901200 -0.03694550 -0.71028700
v -0.27140400 -0.03694550 -0.71186100
v -0.27905100 0.07994750 -0.69761100
v -0.41855500 0.03638720 -0.71186100
v -0.21009100 0.07994750 -0.69454500
v -0.21231800 -0.03694550 -0.70367700
v -0.29726100 -0.03694550 -0.67941200
v -0.41855500 -0.03639630 -0.71186100
v -0.29726100 0.07994750 -0.67941200
v -0.41995600 0.03568930 -0.71186100
v -0.41855500 0.03638720 -0.65515500
v -0.30938600 0.07994750 -0.65515500
v -0.30387500 0.07994750 -0.66619900
v -0.23052900 0.07994750 -0.66728700
v -0.23052900 0.06065600 -0.66728700
v -0.23284800 -0.03694550 -0.66960300
v -0.30332400 -0.03694550 -0.66728700
v -0.30938600 -0.03694550 -0.65515500
v -0.41855500 -0.03639630 -0.65515500
v -0.43068000 -0.03032050 -0.71186100
v -0.43068000 0.03032290 -0.71186100
v -0.43068000 0.03032290 -0.65515500
v -0.42082900 0.03184470 -0.63695600
v -0.30332400 0.07994750 -0.64302200
v -0.24871600 0.07994750 -0.64908900
v -0.25730400 0.03310330 -0.63674300
v -0.25751100 -0.01819180 -0.63674300
v -0.24871600 -0.03694550 -0.64908900
v -0.30529800 -0.03694550 -0.63674300
v -0.40036800 -0.03639630 -0.63674300
v -0.41855500 -0.03230000 -0.63674300
v -0.42030100 -0.03162490 -0.63674300
v -0.43068000 -0.03032050 -0.64908900
v -0.43568600 -0.02030860 -0.71186100
v -0.43139200 0.02891550 -0.71186100
v -0.43674300 0.01820560 -0.65515500
v -0.43219600 0.02729070 -0.64605200
v -0.42080600 0.03181040 -0.63674300
v -0.29119900 0.07994750 -0.63695600
v -0.42059900 0.03189050 -0.63674300
v -0.27298900 0.07994750 -0.63695600
v -0.26398700 0.04539220 -0.63674300
v -0.25905000 -0.03694550 -0.63674300
v -0.42131100 -0.03045780 -0.63674300
v -0.42764900 -0.02728840 -0.64150000
v -0.42755700 -0.01819180 -0.63674300
v -0.43674300 -0.01819180 -0.65515500
v -0.43674300 -0.01819180 -0.71186100
v -0.43674300 0.01820560 -0.71186100
v -0.42755700 0.01820560 -0.63674300
v -0.40036800 0.03638720 -0.63674300
v -0.29099200 0.05417980 -0.63674300
v -0.27278200 0.05417980 -0.63674300
v -0.42629400 -0.02321500 -0.63674300
f 29 43 45
f 29 45 44
f 30 46 31
f 31 46 47
f 31 57 56
f 31 58 57
f 31 56 45
f 31 45 43
f 28 43 29
f 31 43 55
f 31 47 58
f 27 43 28
f 24 36 37
f 27 41 42
f 27 40 41
f 26 40 27
f 25 38 39
f 24 34 35
f 24 37 38
f 24 35 36
f 23 34 24
f 20 33 21
f 20 32 33
f 20 31 32
f 31 55 51
f 27 42 43
f 31 51 59
f 41 55 42
f 31 49 37
f 19 31 20
f 50 59 51
f 49 59 50
f 46 58 47
f 44 58 46
f 44 57 58
f 44 56 57
f 44 45 56
f 42 55 43
f 41 51 55
f 41 53 52
f 41 54 53
f 40 54 41
f 39 52 53
f 38 52 39
f 38 51 52
f 38 50 51
f 37 50 38
f 37 49 50
f 32 48 33
f 31 48 32
f 31 34 48
f 31 35 34
f 31 36 35
f 31 37 36
f 31 59 49
f 19 30 31
f 41 52 51
f 16 28 29
f 2 5 6
f 1 5 2
f 1 10 5
f 1 19 10
f 1 30 19
f 1 46 30
f 1 44 46
f 1 29 44
f 1 17 29
f 1 18 17
f 1 14 18
f 1 8 14
f 1 4 8
f 1 9 4
f 1 15 9
f 16 29 17
f 1 26 15
f 1 54 40
f 1 53 54
f 1 39 53
f 1 25 39
f 1 13 25
f 1 7 13
f 1 3 7
f 1 2 3
f 2 6 3
f 3 6 11
f 1 40 26
f 3 21 33
f 3 11 21
f 16 27 28
f 15 27 16
f 15 26 27
f 13 38 25
f 13 23 24
f 13 22 23
f 12 22 13
f 10 21 11
f 10 20 21
f 10 19 20
f 9 18 14
f 9 17 18
f 13 24 38
f 9 15 16
f 9 16 17
f 3 48 34
f 3 34 23
f 3 33 48
f 3 22 12
f 3 12 7
f 3 23 22
f 5 10 11
f 5 11 6
f 7 12 13
f 8 9 14
f 4 9 8

