# https://github.com/mikedh/trimesh
v -0.17034400 -0.12761900 -0.75601700
v -0.23311300 -0.12761900 -0.75601700
v -0.17728200 -0.12761900 -0.72328000
v 0.15819600 -0.34574600 -0.72794400
v 0.15819600 -0.34480900 -0.75601700
v -0.22707300 -0.15432000 -0.75601700
v -0.22748100 -0.15468900 -0.75523900
v -0.25833500 -0.12761900 -0.71333900
v -0.18638300 -0.12761900 -0.71186100
v 0.15819600 -0.35380400 -0.71186100
v 0.15819600 -0.35133600 -0.71676200
v 0.15819600 -0.39940500 -0.75601700
v -0.19066800 -0.22710500 -0.75601700
v -0.19107600 -0.22750200 -0.75523900
v -0.22442000 -0.20627700 -0.71581100
v -0.24564300 -0.15468900 -0.71884600
v -0.25825400 -0.13088200 -0.71186100
v -0.25874300 -0.12761900 -0.71186100
v 0.15819600 -0.41750900 -0.71186100
v 0.15391100 -0.40034100 -0.75601700
v -0.17271100 -0.24555000 -0.75601700
v -0.17287400 -0.28207000 -0.71884600
v -0.20927900 -0.22750200 -0.71884600
v -0.22523600 -0.20704300 -0.71186100
v 0.12844400 -0.41750900 -0.71186100
v 0.14558500 -0.40034100 -0.75601700
v -0.13646900 -0.28207000 -0.75601700
v -0.17287400 -0.28207000 -0.71186100
v -0.21625800 -0.22052200 -0.71186100
v -0.13646900 -0.31844800 -0.71884600
v -0.16589500 -0.28905000 -0.71186100
v 0.03424900 -0.40840000 -0.71186100
v 0.03029020 -0.40641400 -0.71581100
v 0.12934200 -0.39838300 -0.75601700
v -0.09990140 -0.31830600 -0.75601700
v -0.08186230 -0.35485400 -0.71884600
v -0.06063990 -0.37003600 -0.71581100
v -0.06855750 -0.36606300 -0.71186100
v -0.07488340 -0.36183500 -0.71186100
v -0.13646900 -0.31844800 -0.71186100
v -0.14769300 -0.30723900 -0.71186100
v 0.02951480 -0.40720800 -0.71186100
v 0.03469790 -0.38382600 -0.75601700
v 0.04469700 -0.38632300 -0.75601700
v -0.00913460 -0.37304300 -0.75523900
v 0.02016870 -0.38019400 -0.75601700
v -0.07806680 -0.33286300 -0.75601700
v -0.04549850 -0.35485400 -0.75523900
v -0.06141530 -0.37080200 -0.71186100
v -0.00872647 -0.37267500 -0.75601700
v -0.04513110 -0.35445700 -0.75601700
f 22 28 29
f 22 29 23
f 22 27 30
f 23 29 24
f 22 41 31
f 22 31 28
f 21 27 22
f 25 32 33
f 22 30 41
f 19 26 20
f 14 23 15
f 15 17 16
f 15 24 17
f 15 23 24
f 14 22 23
f 14 21 22
f 13 21 14
f 12 19 20
f 9 19 10
f 9 25 19
f 25 33 26
f 19 25 26
f 26 33 34
f 47 51 48
f 30 35 36
f 9 32 25
f 45 50 46
f 45 48 50
f 37 49 38
f 37 42 49
f 37 48 45
f 36 48 37
f 36 47 48
f 35 47 36
f 48 51 50
f 27 35 30
f 33 46 43
f 33 37 45
f 33 42 37
f 33 44 34
f 33 43 44
f 32 42 33
f 30 40 41
f 30 39 40
f 30 38 39
f 30 37 38
f 30 36 37
f 33 45 46
f 9 42 32
f 1 26 34
f 9 38 49
f 1 6 2
f 1 13 6
f 1 21 13
f 1 27 21
f 1 35 27
f 1 47 35
f 1 51 47
f 1 50 51
f 1 46 50
f 1 43 46
f 1 44 43
f 1 34 44
f 1 20 26
f 1 12 20
f 1 5 12
f 1 3 4
f 1 9 3
f 1 18 9
f 1 8 18
f 1 2 8
f 9 49 42
f 2 6 7
f 2 7 8
f 1 4 5
f 3 10 11
f 9 39 38
f 3 9 10
f 9 40 39
f 9 41 40
f 9 28 31
f 9 29 28
f 9 24 29
f 9 17 24
f 9 18 17
f 8 17 18
f 9 31 41
f 7 17 8
f 7 14 15
f 3 11 4
f 4 10 19
f 4 12 5
f 4 19 12
f 6 14 7
f 7 15 16
f 7 16 17
f 6 13 14
f 4 11 10

