# https://github.com/mikedh/trimesh
v 0.23202200 0.02729790 0.80983600
v 0.21837400 0.03184750 0.79845700
v 0.23051300 0.03032980 0.81286100
v 0.23051300 0.02426590 0.81893100
v 0.22065700 0.02274820 0.80073100
v 0.16450700 0.02303320 0.72454300
v 0.17744000 0.02729790 0.73704300
v 0.16347800 0.03176910 0.72454300
v 0.21837400 0.03639710 0.81893100
v 0.16250800 0.03216810 0.72454300
v 0.22747600 0.02729790 0.82802600
v 0.22747600 0.02274820 0.82802600
v 0.21837400 0.01819860 0.81893100
v 0.16224400 0.02189850 0.72454300
v 0.17289400 0.02729790 0.73249600
v 0.19790700 0.03184750 0.81893100
v 0.21230900 0.03032980 0.83106200
v 0.16379200 0.03639710 0.74614900
v 0.16379200 0.03639710 0.76435000
v 0.14559700 0.03639710 0.72454300
v 0.21837400 0.02426590 0.83106200
v 0.20018000 0.02274820 0.82120500
v 0.16379200 0.01819860 0.76435000
v 0.16379200 0.01819860 0.74614900
v 0.14559700 0.01819860 0.72454300
v 0.19107800 0.02729790 0.81438400
v 0.20472600 0.02729790 0.82802600
v 0.20928200 0.02729790 0.83257400
v 0.16151900 0.03184750 0.78253000
v 0.15014400 0.02729790 0.77344500
v 0.15469000 0.02729790 0.77799300
v 0.14559700 0.03639710 0.72794800
v 0.14331500 0.03184750 0.74614900
v 0.14332400 0.03526240 0.72454300
v 0.16379200 0.02274820 0.78480300
v 0.15166200 0.02426590 0.77041000
v 0.13345800 0.02426590 0.73401900
v 0.14559700 0.01819860 0.72794800
v 0.13345800 0.02426590 0.72454300
v 0.13194000 0.02729790 0.73704300
v 0.13345800 0.03032980 0.72794800
v 0.13345800 0.03032980 0.72454300
f 1 2 3
f 22 28 27
f 21 28 22
f 20 34 32
f 19 33 29
f 19 32 33
f 17 28 21
f 16 31 26
f 22 27 26
f 16 30 31
f 16 19 29
f 16 28 17
f 16 27 28
f 16 26 27
f 14 24 25
f 13 24 14
f 13 25 24
f 16 29 30
f 22 26 31
f 22 31 30
f 22 35 23
f 40 41 42
f 39 40 42
f 37 40 39
f 34 42 41
f 33 41 40
f 32 41 33
f 32 34 41
f 30 36 35
f 30 37 36
f 30 40 37
f 30 33 40
f 29 33 30
f 25 37 39
f 25 38 37
f 23 35 36
f 23 37 38
f 23 36 37
f 13 38 25
f 13 23 38
f 22 30 35
f 13 21 22
f 5 14 6
f 5 13 14
f 4 13 5
f 4 12 13
f 4 11 12
f 3 11 4
f 2 10 9
f 6 14 25
f 2 8 10
f 1 8 2
f 1 7 8
f 1 6 7
f 1 5 6
f 1 4 5
f 1 3 4
f 13 22 23
f 2 9 3
f 6 25 39
f 3 9 11
f 9 20 32
f 6 39 42
f 11 21 12
f 11 17 21
f 10 20 18
f 9 19 16
f 9 32 19
f 9 18 20
f 9 10 18
f 12 21 13
f 9 17 11
f 9 16 17
f 7 15 8
f 6 15 7
f 6 8 15
f 6 10 8
f 6 20 10
f 6 34 20
f 6 42 34

