o convex_0
v 0.232022 0.0272979 0.809836
v 0.218374 0.0318475 0.798457
v 0.230513 0.0303298 0.812861
v 0.230513 0.0242659 0.818931
v 0.220657 0.0227482 0.800731
v 0.164507 0.0230332 0.724543
v 0.17744 0.0272979 0.737043
v 0.163478 0.0317691 0.724543
v 0.218374 0.0363971 0.818931
v 0.162508 0.0321681 0.724543
v 0.227476 0.0272979 0.828026
v 0.227476 0.0227482 0.828026
v 0.218374 0.0181986 0.818931
v 0.162244 0.0218985 0.724543
v 0.172894 0.0272979 0.732496
v 0.197907 0.0318475 0.818931
v 0.212309 0.0303298 0.831062
v 0.163792 0.0363971 0.746149
v 0.163792 0.0363971 0.76435
v 0.145597 0.0363971 0.724543
v 0.218374 0.0242659 0.831062
v 0.20018 0.0227482 0.821205
v 0.163792 0.0181986 0.76435
v 0.163792 0.0181986 0.746149
v 0.145597 0.0181986 0.724543
v 0.191078 0.0272979 0.814384
v 0.204726 0.0272979 0.828026
v 0.209282 0.0272979 0.832574
v 0.161519 0.0318475 0.78253
v 0.150144 0.0272979 0.773445
v 0.15469 0.0272979 0.777993
v 0.145597 0.0363971 0.727948
v 0.143315 0.0318475 0.746149
v 0.143324 0.0352624 0.724543
v 0.163792 0.0227482 0.784803
v 0.151662 0.0242659 0.77041
v 0.133458 0.0242659 0.734019
v 0.145597 0.0181986 0.727948
v 0.133458 0.0242659 0.724543
v 0.13194 0.0272979 0.737043
v 0.133458 0.0303298 0.727948
v 0.133458 0.0303298 0.724543
f 1 2 3
f 1 3 4
f 1 4 5
f 1 5 6
f 1 6 7
f 1 7 8
f 1 8 2
f 2 9 3
f 2 8 10
f 2 10 9
f 3 9 11
f 3 11 4
f 4 11 12
f 4 12 13
f 4 13 5
f 5 13 14
f 5 14 6
f 6 14 25
f 6 25 39
f 6 39 42
f 6 42 34
f 6 34 20
f 6 20 10
f 6 10 8
f 6 8 15
f 6 15 7
f 7 15 8
f 9 16 17
f 9 17 11
f 9 10 18
f 9 18 20
f 9 20 32
f 9 32 19
f 9 19 16
f 10 20 18
f 11 17 21
f 11 21 12
f 12 21 13
f 13 21 22
f 13 22 23
f 13 23 38
f 13 38 25
f 13 25 24
f 13 24 14
f 14 24 25
f 16 26 27
f 16 27 28
f 16 28 17
f 16 19 29
f 16 29 30
f 16 30 31
f 16 31 26
f 17 28 21
f 19 32 33
f 19 33 29
f 20 34 32
f 21 28 22
f 22 28 27
f 22 27 26
f 22 26 31
f 22 31 30
f 22 30 35
f 22 35 23
f 23 36 37
f 23 37 38
f 23 35 36
f 25 38 37
f 25 37 39
f 29 33 30
f 30 33 40
f 30 40 37
f 30 37 36
f 30 36 35
f 32 34 41
f 32 41 33
f 33 41 40
f 34 42 41
f 37 40 39
f 39 40 42
f 40 41 42
o convex_1
v 0.263876 -0.0682161 0.645925
v 0.277503 -0.0523173 0.636864
v 0.26689 -0.0606453 0.64899
v 0.285103 -0.0424449 0.630868
v 0.282056 -0.0500461 0.627803
v 0.279042 -0.0606453 0.618742
v 0.26083 -0.0788456 0.636864
v 0.209269 -0.122817 0.664181
v 0.224436 -0.115246 0.636864
v 0.224439 -0.115252 -0.756017
v 0.200163 -0.12739 0.65512
v 0.200171 -0.12739 -0.756017
v 0.0910142 -0.12739 0.673242
v 0.127408 -0.12739 0.673242
v 0.136514 -0.122817 0.682436
v 0.212315 -0.115246 0.667245
v 0.164475 0.0230582 0.724543
v 0.200163 -0.10919 0.673242
v 0.127408 -0.10919 0.691497
v 0.0546206 -0.0909893 0.709619
v 0.0546206 -0.103103 0.703623
v 0.127408 -0.121303 0.685367
v 0.0910142 -0.121303 0.685367
v 0.0424681 -0.103103 0.697493
v 0.0455142 -0.100074 0.705088
v -0.00909216 -0.0272729 0.723344
v -0.00909216 -0.0318457 0.718813
v 0.00912066 -0.0636736 0.705088
v 0.0060745 -0.066702 0.697493
v -0.0121063 -0.0303013 0.715748
v -0.0181986 -0.0181879 0.709619
v 0.0121348 -0.0788456 0.685367
v -0.0181986 -0.0181963 -0.756017
v -0.0181986 0.0727836 0.709619
v -0.0136454 0.0818686 0.718813
v -0.0121063 -0.0181879 0.721745
v -0.0121063 0.0727836 0.721745
v 0.0546206 0.145585 0.709619
v 0.0341312 0.145585 0.705088
v 0.0159505 0.127385 0.705088
v 0.00456746 0.118269 0.700558
v 0.0121348 0.133441 0.691497
v 0.0303476 0.151642 0.691497
v 0.040961 0.15467 0.700558
v 0.0546206 0.163785 0.691497
v 0.0485604 0.157698 0.703623
v 0.127408 0.163785 0.691497
v 0.163449 0.0317495 0.724543
v 0.145589 0.0363829 0.724543
v 0.133468 0.0303262 0.724543
v 0.145589 0.0182128 0.724543
v 0.16223 0.0219074 0.724543
v 0.279042 0.0970406 0.642994
v 0.254769 0.109184 0.65512
v 0.26083 0.133441 0.642994
v 0.275996 0.112213 0.639929
v 0.279042 0.115241 0.624738
v 0.291163 0.0909839 0.618742
v 0.309376 0.0363829 0.618742
v 0.303283 0.0303262 0.630868
v 0.303283 0.0121561 0.630868
v 0.309376 0.0182128 0.618742
v 0.291163 -0.0363882 0.618742
v 0.291163 -0.0363849 -0.756017
v 0.279022 -0.0606664 -0.756017
v 0.309376 0.0182024 -0.756017
v 0.309376 0.0364125 -0.756017
v 0.291163 0.0909839 -0.636743
v 0.279042 0.115251 -0.756017
v 0.224436 0.169842 0.642994
v 0.22139 0.166814 0.658051
v 0.209269 0.17287 0.664181
v 0.200163 0.181986 0.65512
v 0.194103 0.175899 0.667245
v 0.200163 0.163785 0.673242
v 0.121348 0.175899 0.685367
v 0.084954 0.175899 0.685367
v 0.0910142 0.181986 0.673242
v 0.127408 0.181986 0.673242
v 0.0910142 0.181986 -0.636743
v 0.0303476 0.15165 -0.756017
v 0.0121348 0.13344 -0.756017
v -0.0181986 0.0727897 -0.756017
v 0.200163 0.181986 -0.756017
v 0.0910142 0.181986 -0.756017
v 0.224436 0.169839 -0.756017
v 0.291163 0.0909783 -0.756017
v 0.0910045 -0.12739 -0.756017
v 0.0121525 -0.0788645 -0.756017
v 0.0303469 -0.0970538 -0.756017
v 0.0303476 -0.097046 0.685367
f 44 45 43
f 44 46 45
f 44 47 46
f 44 48 47
f 44 49 48
f 44 43 49
f 50 49 43
f 51 49 50
f 51 48 49
f 51 52 48
f 53 52 51
f 53 54 52
f 53 55 54
f 56 55 53
f 56 57 55
f 56 53 57
f 53 50 57
f 53 51 50
f 50 58 57
f 50 43 58
f 43 45 58
f 59 58 45
f 60 58 59
f 60 61 58
f 60 59 61
f 61 59 62
f 63 61 62
f 63 64 61
f 63 65 64
f 63 55 65
f 63 66 55
f 63 67 66
f 63 62 67
f 67 62 68
f 69 67 68
f 70 67 69
f 70 71 67
f 70 69 71
f 69 72 71
f 69 68 72
f 73 72 68
f 73 71 72
f 73 74 71
f 73 75 74
f 73 76 75
f 73 77 76
f 73 78 77
f 73 68 78
f 78 68 79
f 77 78 79
f 77 79 80
f 81 77 80
f 82 77 81
f 83 77 82
f 83 84 77
f 83 82 84
f 82 81 84
f 81 85 84
f 86 85 81
f 86 87 85
f 86 88 87
f 86 81 88
f 81 80 88
f 80 89 88
f 80 90 89
f 91 90 80
f 91 92 90
f 91 79 92
f 91 80 79
f 92 79 68
f 93 92 68
f 93 94 92
f 93 68 94
f 68 62 94
f 59 94 62
f 59 90 94
f 95 90 59
f 95 96 90
f 95 97 96
f 98 97 95
f 98 99 97
f 98 100 99
f 98 101 100
f 98 95 101
f 95 102 101
f 95 59 102
f 59 103 102
f 59 45 103
f 46 103 45
f 46 104 103
f 46 105 104
f 46 48 105
f 46 47 48
f 48 106 105
f 48 107 106
f 48 52 107
f 107 52 108
f 106 107 108
f 106 108 105
f 104 105 108
f 104 108 101
f 104 101 103
f 102 103 101
f 109 101 108
f 100 101 109
f 100 109 110
f 100 110 111
f 100 111 99
f 99 111 112
f 97 99 112
f 113 97 112
f 113 114 97
f 113 112 114
f 114 112 115
f 114 115 116
f 117 114 116
f 117 96 114
f 117 90 96
f 117 89 90
f 117 116 89
f 118 89 116
f 118 88 89
f 119 88 118
f 119 87 88
f 119 120 87
f 119 118 120
f 121 120 118
f 121 115 120
f 121 116 115
f 121 118 116
f 120 115 122
f 123 120 122
f 123 87 120
f 85 87 123
f 85 123 84
f 124 84 123
f 124 125 84
f 124 123 125
f 123 126 125
f 127 126 123
f 127 122 126
f 127 123 122
f 122 115 126
f 112 126 115
f 128 126 112
f 128 111 126
f 128 112 111
f 111 108 126
f 109 108 111
f 129 109 111
f 129 110 109
f 129 111 110
f 126 108 125
f 130 125 108
f 131 125 130
f 75 125 131
f 76 125 75
f 76 84 125
f 76 77 84
f 74 75 131
f 132 74 131
f 132 133 74
f 55 133 132
f 66 133 55
f 66 74 133
f 66 71 74
f 66 67 71
f 55 132 130
f 54 55 130
f 54 130 52
f 52 130 108
f 132 131 130
f 97 114 96
f 92 94 90
f 65 55 57
f 65 57 64
f 61 64 57
f 61 57 58
o convex_2
v -0.204122 -0.0103391 -0.374316
v -0.204122 -0.00392616 -0.374316
v -0.20177 -0.0197662 -0.374316
v -0.382153 -0.0182271 -0.218377
v -0.382153 -1.11022e-16 -0.218396
v -0.202155 0.0172152 -0.374316
v -0.382153 0.0181986 -0.218396
v -0.195914 -0.0285377 -0.374316
v -0.382153 -0.0303262 -0.212334
v -0.194118 0.0303262 -0.374316
v -0.382153 0.0303262 -0.212334
v -0.194118 -0.0303262 -0.374316
v -0.382153 -0.0363758 -0.200228
v -0.192344 -0.031224 -0.374316
v -0.181999 -0.0363971 -0.374316
v -0.188903 0.0329484 -0.374316
v -0.382153 0.0363971 -0.200191
v -0.181999 0.0363971 -0.374316
v -0.363963 -0.0363971 -0.200191
v -0.382153 -0.0303191 -0.188048
v -0.169858 -0.0303262 -0.374316
v -0.181999 -0.0363971 -0.363962
v -0.382153 0.0303262 -0.188067
v -0.345752 0.0363971 -0.200191
v -0.181999 0.0363971 -0.363962
v -0.169858 0.0303262 -0.374316
v -0.345752 -0.0363971 -0.200191
v -0.382153 -0.0181986 -0.182005
v -0.336667 -0.0318439 -0.191098
v -0.345752 -0.0303262 -0.188067
v -0.345752 -0.0181986 -0.182005
v -0.163808 -0.0181986 -0.374316
v -0.169858 -0.0303262 -0.363962
v -0.172893 -0.0318439 -0.354869
v -0.200189 -0.0363971 -0.309365
v -0.382153 0.0181986 -0.182005
v -0.351822 0.0303262 -0.188067
v -0.297231 0.0303262 -0.206253
v -0.29116 0.0363971 -0.218396
v -0.169858 0.0303262 -0.370024
v -0.200189 0.0363971 -0.309365
v -0.16772 0.0260509 -0.374316
v -0.29116 -0.0363971 -0.218396
v -0.282076 -0.0318439 -0.209284
v -0.333632 -0.0242624 -0.188067
v -0.345752 0.0181986 -0.182005
v -0.29116 -0.0181986 -0.200191
v -0.163808 0.0181986 -0.374316
v -0.163808 -0.0181986 -0.363962
v -0.169858 -0.0242624 -0.351838
v -0.191104 -0.0318439 -0.300272
v -0.209294 -0.0318439 -0.282067
v -0.27297 -0.0363971 -0.236582
v -0.29116 0.0181986 -0.200191
v -0.282076 0.0272979 -0.209284
v -0.27297 0.0363971 -0.236582
v -0.245696 0.0272979 -0.227489
v -0.227484 0.0272979 -0.245694
v -0.163808 0.0181986 -0.363962
v -0.188069 0.0303262 -0.315427
v -0.194118 0.0242624 -0.285098
v -0.209294 0.0272979 -0.263881
v -0.245696 -0.0227446 -0.227489
v -0.279041 -0.0242624 -0.206253
v -0.209294 -0.0227446 -0.263881
v -0.227484 -0.0227446 -0.245694
v -0.23052 0.00606381 -0.23052
v -0.181999 -0.0181986 -0.309365
v -0.188069 -0.0242624 -0.297241
v -0.266921 0.0242624 -0.212334
v -0.181999 0.0181986 -0.309365
v -0.194118 -0.0121276 -0.285098
v -0.21233 0.00606381 -0.248725
v -0.242661 -0.00606381 -0.224458
v -0.206259 -0.00606381 -0.26085
f 134 135 139
f 134 139 143
f 134 143 149
f 134 149 151
f 134 151 159
f 134 159 175
f 134 175 181
f 134 181 165
f 134 165 154
f 134 154 148
f 134 148 147
f 134 147 145
f 134 145 141
f 134 141 136
f 134 136 137
f 134 137 138
f 134 138 140
f 134 140 135
f 135 140 139
f 136 141 142
f 136 142 137
f 137 142 146
f 137 146 153
f 137 153 161
f 137 161 169
f 137 169 156
f 137 156 150
f 137 150 144
f 137 144 140
f 137 140 138
f 139 140 144
f 139 144 143
f 141 145 142
f 142 145 147
f 142 147 148
f 142 148 146
f 143 144 149
f 144 150 151
f 144 151 149
f 146 152 153
f 146 148 152
f 148 154 166
f 148 166 167
f 148 167 155
f 148 155 168
f 148 168 186
f 148 186 176
f 148 176 160
f 148 160 152
f 150 156 170
f 150 170 157
f 150 157 172
f 150 172 189
f 150 189 174
f 150 174 158
f 150 158 151
f 151 158 173
f 151 173 159
f 152 160 153
f 153 160 162
f 153 162 163
f 153 163 164
f 153 164 161
f 154 165 182
f 154 182 166
f 155 167 168
f 156 169 179
f 156 179 170
f 157 170 171
f 157 171 172
f 158 174 173
f 159 173 175
f 160 176 177
f 160 177 162
f 161 164 179
f 161 179 169
f 162 178 163
f 162 177 197
f 162 197 178
f 163 178 164
f 164 178 197
f 164 197 180
f 164 180 187
f 164 187 179
f 165 181 192
f 165 192 182
f 166 183 167
f 166 182 183
f 167 183 202
f 167 202 184
f 167 184 168
f 168 184 185
f 168 185 177
f 168 177 186
f 170 179 187
f 170 187 171
f 171 187 188
f 171 188 172
f 172 188 190
f 172 190 191
f 172 191 195
f 172 195 189
f 173 192 175
f 173 174 193
f 173 193 194
f 173 194 204
f 173 204 192
f 174 195 194
f 174 194 193
f 174 189 195
f 175 192 181
f 176 186 177
f 177 196 197
f 177 185 198
f 177 198 199
f 177 199 196
f 180 197 200
f 180 200 187
f 182 192 204
f 182 204 201
f 182 201 183
f 183 201 202
f 184 202 198
f 184 198 185
f 187 203 188
f 187 200 203
f 188 203 190
f 190 200 191
f 190 203 200
f 191 200 195
f 194 205 201
f 194 201 204
f 194 195 206
f 194 206 208
f 194 208 205
f 195 200 206
f 196 199 200
f 196 200 207
f 196 207 197
f 197 207 200
f 198 208 206
f 198 206 200
f 198 200 199
f 198 202 208
f 201 205 202
f 202 205 208
o convex_3
v -0.163787 0.0181914 -0.374316
v -0.169855 0.0303261 -0.374316
v -0.163787 -0.0181914 -0.374316
v -0.163787 0.0181914 -0.436789
v -0.174137 0.0324688 -0.374316
v -0.169855 0.0303261 -0.442851
v -0.169855 -0.0303261 -0.374316
v -0.163787 -0.0181914 -0.436789
v -0.163787 -1.11022e-16 -0.454976
v -0.168342 0.0181914 -0.457262
v -0.18199 0.0363935 -0.374316
v -0.18199 0.0363935 -0.436789
v -0.172896 0.0272925 -0.459523
v -0.188058 0.0303261 -0.497438
v -0.272765 0.0541819 -0.636743
v -0.18199 -0.0363935 -0.374316
v -0.169855 -0.0303261 -0.436789
v -0.168342 -0.0272925 -0.445883
v -0.168342 -0.00909042 -0.46407
v -0.186545 -0.0272925 -0.500469
v -0.18199 -0.0181914 -0.491376
v -0.175923 -1.11022e-16 -0.479251
v -0.18199 0.0181914 -0.491376
v -0.18889 0.0329461 -0.374316
v -0.290968 0.0541819 -0.636743
v -0.257285 0.0330946 -0.636743
v -0.263973 0.0453884 -0.636743
v -0.18199 -0.0363935 -0.436789
v -0.194126 -0.0303261 -0.374316
v -0.291165 -0.0541819 -0.636743
v -0.272977 -0.0541819 -0.636743
v -0.188058 -0.0303261 -0.491376
v -0.259237 -0.0385892 -0.636743
v -0.241125 -0.0272925 -0.609642
v -0.242638 -0.0181914 -0.612674
v -0.242638 0.0181914 -0.612674
v -0.194126 0.0303261 -0.374316
v -0.315935 0.0184036 -0.636743
v -0.248706 0.0181914 -0.624798
v -0.248706 -0.0181914 -0.624798
v -0.257497 -0.0181914 -0.636743
v -0.195912 -0.0285335 -0.374316
v -0.304435 -0.0409016 -0.636743
v -0.297036 -0.048316 -0.636743
v -0.259146 -0.0383134 -0.636743
v -0.202161 0.0172156 -0.374316
v -0.316162 0.0175762 -0.636743
v -0.201767 -0.0197613 -0.374316
v -0.30896 -0.0281198 -0.636743
v -0.204113 -0.00392468 -0.374316
v -0.318372 -1.11022e-16 -0.636743
v -0.204113 -0.0103421 -0.374316
v -0.317116 -0.00501723 -0.636743
f 209 210 213
f 209 213 219
f 209 219 232
f 209 232 245
f 209 245 254
f 209 254 258
f 209 258 260
f 209 260 256
f 209 256 250
f 209 250 237
f 209 237 224
f 209 224 215
f 209 215 211
f 209 211 216
f 209 216 217
f 209 217 212
f 209 212 214
f 209 214 210
f 210 214 213
f 211 215 225
f 211 225 216
f 212 217 218
f 212 218 214
f 213 214 220
f 213 220 219
f 214 218 221
f 214 221 222
f 214 222 223
f 214 223 220
f 215 224 236
f 215 236 225
f 216 225 226
f 216 226 217
f 217 227 228
f 217 228 229
f 217 229 230
f 217 230 231
f 217 231 218
f 217 226 227
f 218 231 222
f 218 222 221
f 219 220 223
f 219 223 233
f 219 233 232
f 222 231 234
f 222 234 235
f 222 235 223
f 223 235 234
f 223 234 249
f 223 249 253
f 223 253 241
f 223 241 239
f 223 239 238
f 223 238 252
f 223 252 251
f 223 251 257
f 223 257 261
f 223 261 259
f 223 259 255
f 223 255 246
f 223 246 233
f 224 237 238
f 224 238 239
f 224 239 236
f 225 236 239
f 225 239 240
f 225 240 228
f 225 228 226
f 226 228 227
f 228 240 239
f 228 239 241
f 228 241 242
f 228 242 229
f 229 242 230
f 230 242 243
f 230 243 244
f 230 244 231
f 231 244 234
f 232 233 245
f 233 246 245
f 234 244 247
f 234 247 248
f 234 248 249
f 237 250 251
f 237 251 252
f 237 252 238
f 241 253 242
f 242 253 248
f 242 248 243
f 243 248 247
f 243 247 244
f 245 246 254
f 246 255 254
f 248 253 249
f 250 256 251
f 251 256 257
f 254 255 259
f 254 259 258
f 256 260 259
f 256 259 261
f 256 261 257
f 258 259 260
o convex_4
v -0.382153 0.0181986 -0.182011
v -0.382153 -0.0181986 -0.182011
v -0.382153 0.0303262 -0.188056
v -0.418582 0.0181986 -0.182011
v -0.418582 -0.0181986 -0.182011
v -0.382175 -0.0303262 -0.188056
v -0.382153 -0.0303191 -0.188056
v -0.382153 0.0363971 -0.200197
v -0.424653 0.0303262 -0.188056
v -0.439041 0.0181986 -0.186558
v -0.436775 -1.11022e-16 -0.182011
v -0.445882 -0.00909928 -0.186558
v -0.427667 -0.0272979 -0.186558
v -0.418582 -0.0303262 -0.188056
v -0.382175 -0.0363971 -0.200197
v -0.382153 -0.0363758 -0.200223
v -0.418582 0.0363971 -0.200197
v -0.382153 0.0303262 -0.212339
v -0.570217 0.0303262 -0.441471
v -0.572932 0.0316872 -0.441471
v -0.582339 0.0363971 -0.441471
v -0.473182 0.0363971 -0.218384
v -0.479232 0.0303262 -0.206268
v -0.441328 0.0272979 -0.191104
v -0.473182 0.0181986 -0.200197
v -0.448917 -1.11022e-16 -0.188056
v -0.482267 -0.0272979 -0.204744
v -0.473182 -0.0303262 -0.206268
v -0.473182 -0.0363971 -0.218384
v -0.418582 -0.0363971 -0.200197
v -0.582339 -0.0363971 -0.441471
v -0.573338 -0.0318938 -0.441471
v -0.570217 -0.0303262 -0.441471
v -0.382153 -0.0303262 -0.212339
v -0.382153 0.0181986 -0.218384
v -0.564146 0.0181986 -0.441471
v -0.568849 0.0276043 -0.441471
v -0.594481 0.0303262 -0.441471
v -0.582339 0.0363971 -0.345765
v -0.509546 0.0363971 -0.236596
v -0.515617 0.0303262 -0.224454
v -0.486821 0.0272979 -0.209291
v -0.521689 0.0181986 -0.224454
v -0.521689 -0.0181986 -0.224454
v -0.491353 -0.0318439 -0.216123
v -0.518653 -0.0272979 -0.222956
v -0.527739 -0.0318439 -0.23431
v -0.509546 -0.0363971 -0.236596
v -0.582339 -0.0363971 -0.345765
v -0.594481 -0.0303262 -0.441471
v -0.565706 -0.0213338 -0.441471
v -0.382153 -0.0182271 -0.218384
v -0.564146 -0.0181986 -0.441471
v -0.600531 0.0181986 -0.441471
v -0.595999 0.0272979 -0.336671
v -0.594481 0.0303262 -0.345765
v -0.584626 0.0318439 -0.327553
v -0.545953 0.0363971 -0.272994
v -0.530026 0.0318439 -0.236596
v -0.527739 0.0363971 -0.254782
v -0.523207 0.0272979 -0.227502
v -0.53381 0.0181986 -0.230525
v -0.53381 -0.0181986 -0.230525
v -0.545953 -0.0318439 -0.252521
v -0.527739 -0.0363971 -0.254782
v -0.545953 -0.0363971 -0.272994
v -0.594481 -0.0303262 -0.339694
v -0.600531 -0.0181986 -0.441471
v -0.600531 0.0181986 -0.345765
v -0.595999 0.00909928 -0.31846
v -0.589158 0.0181986 -0.309392
v -0.570965 0.0181986 -0.272994
v -0.586892 0.0272979 -0.31846
v -0.568699 0.0272979 -0.282087
v -0.548219 0.0318439 -0.254782
v -0.552003 0.0181986 -0.248737
v -0.570217 -1.11022e-16 -0.266923
v -0.552003 -0.0181986 -0.248737
v -0.555039 -0.0272979 -0.259354
v -0.558074 -0.0303262 -0.266923
v -0.573253 -0.0272979 -0.286633
v -0.591446 -0.0272979 -0.323006
v -0.595999 -0.0181986 -0.325292
v -0.600531 -0.0181986 -0.345765
v -0.600531 -1.11022e-16 -0.327553
v -0.577785 0.00909928 -0.282087
v -0.594481 -1.11022e-16 -0.315437
v -0.559592 0.0272979 -0.2639
v -0.577785 -0.0181986 -0.288919
f 262 263 268
f 262 268 277
f 262 277 295
f 262 295 313
f 262 313 296
f 262 296 279
f 262 279 269
f 262 269 264
f 262 264 270
f 262 270 265
f 262 265 272
f 262 272 266
f 262 266 263
f 263 266 275
f 263 275 267
f 263 267 268
f 264 269 278
f 264 278 270
f 265 271 272
f 265 270 271
f 266 272 273
f 266 273 274
f 266 274 275
f 267 275 291
f 267 291 276
f 267 276 268
f 268 276 277
f 269 279 280
f 269 280 281
f 269 281 282
f 269 282 300
f 269 300 319
f 269 319 321
f 269 321 301
f 269 301 283
f 269 283 278
f 270 278 283
f 270 283 284
f 270 284 285
f 270 285 271
f 271 285 284
f 271 284 286
f 271 286 272
f 272 286 287
f 272 287 273
f 273 287 288
f 273 288 274
f 274 288 275
f 275 288 289
f 275 289 290
f 275 290 291
f 276 291 290
f 276 290 309
f 276 309 326
f 276 326 327
f 276 327 310
f 276 310 292
f 276 292 293
f 276 293 294
f 276 294 277
f 277 294 295
f 279 296 297
f 279 297 298
f 279 298 280
f 280 298 297
f 280 297 314
f 280 314 312
f 280 312 294
f 280 294 293
f 280 293 292
f 280 292 311
f 280 311 329
f 280 329 315
f 280 315 299
f 280 299 282
f 280 282 281
f 282 299 317
f 282 317 300
f 283 301 302
f 283 302 284
f 284 303 286
f 284 302 303
f 286 303 304
f 286 304 287
f 287 304 305
f 287 305 288
f 288 306 289
f 288 305 307
f 288 307 308
f 288 308 306
f 289 306 290
f 290 308 309
f 290 306 308
f 292 310 328
f 292 328 311
f 294 312 295
f 295 312 314
f 295 314 313
f 296 313 314
f 296 314 297
f 299 315 316
f 299 316 317
f 300 317 318
f 300 318 319
f 301 320 302
f 301 321 336
f 301 336 320
f 302 320 322
f 302 322 323
f 302 323 304
f 302 304 303
f 304 323 324
f 304 324 305
f 305 324 307
f 307 324 308
f 308 324 325
f 308 325 327
f 308 327 326
f 308 326 309
f 310 327 328
f 311 328 345
f 311 345 329
f 315 330 316
f 315 329 345
f 315 345 346
f 315 346 330
f 316 330 346
f 316 346 331
f 316 331 332
f 316 332 333
f 316 333 334
f 316 334 318
f 316 318 317
f 318 334 335
f 318 335 336
f 318 336 319
f 319 336 321
f 320 323 322
f 320 336 323
f 323 336 337
f 323 337 338
f 323 338 324
f 324 338 339
f 324 339 325
f 325 339 340
f 325 340 341
f 325 341 327
f 327 341 328
f 328 342 343
f 328 343 344
f 328 344 345
f 328 341 342
f 331 338 347
f 331 347 333
f 331 333 332
f 331 346 348
f 331 348 338
f 333 335 334
f 333 347 338
f 333 338 337
f 333 337 349
f 333 349 335
f 335 349 336
f 336 349 337
f 338 348 344
f 338 344 350
f 338 350 342
f 338 342 339
f 339 342 340
f 340 342 341
f 342 350 344
f 342 344 343
f 344 348 346
f 344 346 345
o convex_5
v -0.427574 -0.0181986 -0.636743
v -0.427574 0.0181986 -0.636743
v -0.426313 -0.0232149 -0.636743
v -0.515624 -0.0242624 -0.588403
v -0.420819 0.0318154 -0.636743
v -0.515624 0.0121276 -0.588403
v -0.503482 0.0242624 -0.594481
v -0.421332 -0.0304687 -0.636743
v -0.570219 -0.0242624 -0.533832
v -0.420327 -0.031623 -0.636743
v -0.506517 -0.0333617 -0.579305
v -0.420626 0.0318938 -0.636743
v -0.500446 0.0318439 -0.591442
v -0.570219 0.0121276 -0.533832
v -0.539886 0.0242624 -0.558088
v -0.518659 0.0318439 -0.573245
v -0.564149 -0.0363971 -0.509576
v -0.591446 -0.0272979 -0.48228
v -0.588411 -0.0242624 -0.497438
v -0.594482 -0.0121276 -0.485301
v -0.561113 -0.0333617 -0.524733
v -0.418574 -0.0323 -0.636743
v -0.491361 -0.0363971 -0.582344
v -0.400383 0.0363971 -0.636743
v -0.491361 0.0363971 -0.582344
v -0.594482 0.0242624 -0.485301
v -0.576269 0.0242624 -0.521694
v -0.555042 0.0318439 -0.536871
v -0.564149 0.0363971 -0.509576
v -0.58234 -0.0363971 -0.473163
v -0.594482 -0.0303262 -0.467104
v -0.600531 -0.0181986 -0.473163
v -0.400383 -0.0363971 -0.636743
v -0.400383 0.0363971 -0.618737
v -0.388241 0.0303262 -0.636743
v -0.600531 0.0181986 -0.473163
v -0.594482 0.0303262 -0.473163
v -0.591446 0.0318439 -0.48228
v -0.573234 0.0318439 -0.518674
v -0.58234 0.0363971 -0.473163
v -0.58234 -0.0363971 -0.441491
v -0.594482 -0.0303262 -0.441491
v -0.600531 -0.0181986 -0.441491
v -0.400233 -0.0363259 -0.636743
v -0.400383 -0.0363971 -0.618737
v -0.418574 0.0363971 -0.600541
v -0.403418 0.0333617 -0.60358
v -0.391276 0.0272979 -0.609639
v -0.388241 0.0303262 -0.624816
v -0.38217 0.0181986 -0.636743
v -0.600531 0.0181986 -0.441491
v -0.594482 0.0303262 -0.441491
v -0.58234 0.0363971 -0.441491
v -0.57334 -0.0318938 -0.441491
v -0.418574 -0.0363971 -0.600541
v -0.409468 -0.0318439 -0.591442
v -0.391276 -0.0318439 -0.609639
v -0.388241 -0.0303262 -0.636743
v -0.388241 -0.0303262 -0.618737
v -0.394312 0.0242624 -0.594481
v -0.38217 0.0181986 -0.618737
v -0.38217 -0.0181986 -0.636743
v -0.572934 0.0316872 -0.441491
v -0.570219 -0.0303262 -0.441491
v -0.388241 -0.0242624 -0.606619
v -0.406454 -0.0242624 -0.588403
v -0.38217 -0.0181986 -0.618737
v -0.394312 -0.0121276 -0.594481
v -0.570219 0.0303262 -0.441491
v -0.568851 0.0276043 -0.441491
v -0.564149 0.0181986 -0.441491
v -0.565709 -0.0213338 -0.441491
v -0.564149 -0.0181986 -0.441491
f 351 352 355
f 351 355 362
f 351 362 374
f 351 374 385
f 351 385 400
f 351 400 412
f 351 412 408
f 351 408 394
f 351 394 383
f 351 383 372
f 351 372 360
f 351 360 358
f 351 358 353
f 351 353 354
f 351 354 356
f 351 356 352
f 352 356 357
f 352 357 355
f 353 358 354
f 354 359 364
f 354 364 356
f 354 358 360
f 354 360 361
f 354 361 371
f 354 371 359
f 355 357 363
f 355 363 362
f 356 364 357
f 357 364 365
f 357 365 366
f 357 366 363
f 359 367 368
f 359 368 369
f 359 369 370
f 359 370 376
f 359 376 364
f 359 371 367
f 360 372 361
f 361 372 373
f 361 373 371
f 362 363 374
f 363 375 374
f 363 366 375
f 364 376 377
f 364 377 365
f 365 377 389
f 365 389 378
f 365 378 366
f 366 378 379
f 366 379 375
f 367 380 368
f 367 371 373
f 367 373 383
f 367 383 395
f 367 395 405
f 367 405 391
f 367 391 380
f 368 380 381
f 368 381 382
f 368 382 369
f 369 382 370
f 370 382 386
f 370 386 376
f 372 383 373
f 374 384 399
f 374 399 385
f 374 375 379
f 374 379 390
f 374 390 403
f 374 403 396
f 374 396 384
f 376 386 387
f 376 387 388
f 376 388 389
f 376 389 377
f 378 389 379
f 379 389 388
f 379 388 390
f 380 391 392
f 380 392 381
f 381 392 393
f 381 393 382
f 382 393 401
f 382 401 386
f 383 394 395
f 384 396 397
f 384 397 410
f 384 410 398
f 384 398 399
f 385 399 411
f 385 411 400
f 386 401 402
f 386 402 387
f 387 402 403
f 387 403 390
f 387 390 388
f 391 404 414
f 391 414 422
f 391 422 423
f 391 423 421
f 391 421 420
f 391 420 419
f 391 419 413
f 391 413 403
f 391 403 402
f 391 402 401
f 391 401 393
f 391 393 392
f 391 405 406
f 391 406 404
f 394 407 395
f 394 408 409
f 394 409 407
f 395 407 406
f 395 406 405
f 396 403 397
f 397 403 410
f 398 411 399
f 398 410 411
f 400 411 417
f 400 417 412
f 403 413 410
f 404 406 414
f 406 407 415
f 406 415 416
f 406 416 414
f 407 409 417
f 407 417 415
f 408 412 417
f 408 417 409
f 410 418 417
f 410 417 411
f 410 413 419
f 410 419 420
f 410 420 421
f 410 421 423
f 410 423 418
f 414 416 422
f 415 417 418
f 415 418 416
f 416 418 423
f 416 423 422
o convex_6
v 0.153855 0.400369 -0.756025
v 0.145575 0.400369 -0.764346
v 0.145575 0.400369 -0.756025
v 0.173199 0.398161 -0.756025
v 0.23657 0.382141 -0.818935
v 0.0546582 0.382141 -0.818935
v 0.0993817 0.395206 -0.756025
v 0.254753 0.383992 -0.756025
v 0.319904 0.359392 -0.756025
v 0.327564 0.345757 -0.818935
v 0.24864 0.376089 -0.825002
v 0.23657 0.376089 -0.831068
v 0.0455278 0.37762 -0.828035
v 0.00838721 0.377015 -0.756025
v 0.0363974 0.385274 -0.756025
v 0.332362 0.352735 -0.756025
v 0.339635 0.339705 -0.825002
v 0.245623 0.373063 -0.832584
v 0.0546582 0.376089 -0.831068
v 3.05784e-05 0.357897 -0.831068
v -0.00902244 0.359392 -0.828035
v 3.05784e-05 0.363949 -0.818935
v 3.05784e-05 0.372849 -0.756025
v 0.345748 0.345437 -0.756025
v 0.354646 0.340097 -0.756025
v 0.351783 0.333617 -0.812869
v 0.424594 0.279042 -0.812869
v 0.412446 0.285094 -0.825002
v 0.409428 0.282068 -0.832584
v 0.336617 0.336644 -0.832584
v 0.327564 0.327565 -0.837134
v 0.23657 0.363949 -0.837134
v 0.0546582 0.363949 -0.837134
v 3.05784e-05 0.345757 -0.837134
v -0.0181528 0.348036 -0.832584
v -0.0454667 0.3412 -0.828035
v -0.028057 0.358823 -0.756025
v 0.386989 0.316316 -0.756025
v 0.427457 0.285486 -0.756025
v 0.431094 0.28189 -0.756025
v 0.46189 0.241412 -0.756025
v 0.479222 0.206274 -0.812869
v 0.430629 0.266902 -0.825002
v 0.418559 0.254762 -0.837134
v 0.400298 0.272954 -0.837134
v 0.427612 0.263876 -0.832584
v -0.0363363 0.327565 -0.837134
v -0.0545197 0.329844 -0.832584
v -0.109147 0.293424 -0.832584
v -0.100017 0.304817 -0.828035
v -0.0606324 0.333617 -0.818935
v -0.0644238 0.340631 -0.756025
v 0.485644 0.209122 -0.756025
v 0.485257 0.194134 -0.825002
v 0.482239 0.191108 -0.832584
v 0.473109 0.181995 -0.837134
v -0.0909639 0.291146 -0.837134
v -0.133443 0.279042 -0.818935
v -0.115183 0.297234 -0.818935
v -0.145514 0.257041 -0.832584
v -0.075566 0.334045 -0.756025
v 0.490983 0.200187 -0.756025
v 0.498256 0.186836 -0.756025
v 0.504988 0.174412 -0.756025
v 0.491292 0.181995 -0.818935
v 0.523171 0.0909997 -0.821206
v 0.518606 0.0819215 -0.832584
v 0.509553 0.0728078 -0.837134
v -0.145514 0.23657 -0.837134
v -0.136848 0.285628 -0.756025
v -0.151627 0.260814 -0.818935
v -0.181958 0.202465 -0.832584
v -0.194106 0.188082 -0.831068
v -0.157662 0.242622 -0.831068
v -0.154645 0.250205 -0.828035
v 0.523171 0.119801 -0.756025
v 0.527737 0.0909997 -0.800736
v 0.527737 0.0728078 -0.818935
v 0.521624 0.0728078 -0.831068
v 0.509553 0.0367088 -0.837134
v -0.181958 0.181995 -0.837134
v -0.190625 0.22233 -0.756025
v -0.187994 0.206274 -0.818935
v -0.194106 0.194134 -0.818935
v -0.191011 0.195665 -0.828035
v -0.200142 0.145611 -0.837134
v -0.21229 0.151663 -0.831068
v -0.209272 0.159246 -0.828035
v -0.21229 0.157751 -0.818935
v 0.527737 0.0993302 -0.756025
v 0.529594 0.0909997 -0.756025
v 0.531915 0.0728078 -0.756025
v 0.536248 0.0367088 -0.756025
v 0.527737 0.0367088 -0.818935
v 0.521779 0.0367088 -0.830877
v 0.521624 0.0367088 -0.831068
v -0.218325 0.0367088 -0.837134
v -0.208885 0.185982 -0.756025
v -0.218325 0.0909997 -0.837134
v -0.230473 0.0970874 -0.831068
v -0.218325 0.145611 -0.818935
v -0.227069 0.149563 -0.756025
v -0.252448 0.0367088 -0.756025
v -0.230473 0.0367088 -0.831068
v -0.249198 0.0367088 -0.8119
v -0.254228 0.0367088 -0.800736
v -0.236509 0.0909997 -0.818935
v -0.232021 0.137992 -0.756025
v -0.252293 0.045965 -0.756025
v -0.254228 0.0367088 -0.799903
v -0.249817 0.0595644 -0.756025
v -0.248966 0.0633736 -0.756025
v -0.236509 0.109192 -0.782545
f 424 425 426
f 424 426 430
f 424 430 438
f 424 438 437
f 424 437 446
f 424 446 460
f 424 460 475
f 424 475 484
f 424 484 493
f 424 493 505
f 424 505 521
f 424 521 525
f 424 525 531
f 424 531 535
f 424 535 534
f 424 534 532
f 424 532 526
f 424 526 516
f 424 516 515
f 424 515 514
f 424 514 513
f 424 513 499
f 424 499 487
f 424 487 486
f 424 486 485
f 424 485 476
f 424 476 464
f 424 464 463
f 424 463 462
f 424 462 461
f 424 461 448
f 424 448 447
f 424 447 439
f 424 439 432
f 424 432 431
f 424 431 427
f 424 427 425
f 425 427 428
f 425 428 429
f 425 429 430
f 425 430 426
f 427 431 428
f 428 431 432
f 428 432 433
f 428 433 440
f 428 440 434
f 428 434 441
f 428 441 435
f 428 435 436
f 428 436 429
f 429 436 437
f 429 437 438
f 429 438 430
f 432 439 440
f 432 440 433
f 434 440 441
f 435 441 442
f 435 442 436
f 436 442 443
f 436 443 444
f 436 444 445
f 436 445 437
f 437 445 444
f 437 444 446
f 439 447 440
f 440 447 448
f 440 448 449
f 440 449 450
f 440 450 451
f 440 451 452
f 440 452 453
f 440 453 441
f 441 453 454
f 441 454 455
f 441 455 456
f 441 456 442
f 442 456 457
f 442 457 443
f 443 457 458
f 443 458 444
f 444 458 459
f 444 459 446
f 446 459 460
f 448 461 449
f 449 461 450
f 450 461 462
f 450 462 463
f 450 463 464
f 450 464 465
f 450 465 477
f 450 477 466
f 450 466 451
f 451 466 469
f 451 469 452
f 452 467 468
f 452 468 454
f 452 454 453
f 452 469 467
f 454 468 467
f 454 467 479
f 454 479 491
f 454 491 503
f 454 503 520
f 454 520 522
f 454 522 509
f 454 509 504
f 454 504 492
f 454 492 480
f 454 480 470
f 454 470 457
f 454 457 456
f 454 456 455
f 457 470 471
f 457 471 458
f 458 471 459
f 459 471 472
f 459 472 473
f 459 473 482
f 459 482 474
f 459 474 475
f 459 475 460
f 464 476 465
f 465 476 477
f 466 477 478
f 466 478 469
f 467 469 478
f 467 478 479
f 470 480 472
f 470 472 471
f 472 481 482
f 472 482 473
f 472 480 492
f 472 492 483
f 472 483 481
f 474 484 475
f 474 482 484
f 476 485 477
f 477 485 486
f 477 486 487
f 477 487 488
f 477 488 489
f 477 489 478
f 478 489 490
f 478 490 491
f 478 491 479
f 481 493 482
f 481 483 494
f 481 494 493
f 482 493 484
f 483 492 504
f 483 504 495
f 483 495 496
f 483 496 497
f 483 497 498
f 483 498 494
f 487 499 500
f 487 500 488
f 488 500 489
f 489 500 501
f 489 501 502
f 489 502 490
f 490 502 519
f 490 519 503
f 490 503 491
f 493 494 505
f 494 498 508
f 494 508 506
f 494 506 505
f 495 504 496
f 496 507 506
f 496 506 508
f 496 508 498
f 496 498 497
f 496 504 509
f 496 509 510
f 496 510 511
f 496 511 512
f 496 512 507
f 499 513 500
f 500 513 514
f 500 514 515
f 500 515 516
f 500 516 501
f 501 517 518
f 501 518 502
f 501 516 517
f 502 518 519
f 503 519 518
f 503 518 517
f 503 517 516
f 503 516 526
f 503 526 533
f 503 533 529
f 503 529 528
f 503 528 527
f 503 527 520
f 505 506 507
f 505 507 521
f 507 512 521
f 509 522 523
f 509 523 510
f 510 524 512
f 510 512 511
f 510 523 524
f 512 524 525
f 512 525 521
f 520 527 523
f 520 523 522
f 523 527 528
f 523 528 529
f 523 529 530
f 523 530 524
f 524 530 531
f 524 531 525
f 526 532 533
f 529 533 534
f 529 534 535
f 529 535 531
f 529 531 536
f 529 536 530
f 530 536 531
f 532 534 533
o convex_7
v -0.136897 0.285635 -0.756017
v -0.0184836 0.298875 -0.756017
v -0.252184 -0.0368776 -0.756017
v -0.196579 -0.0368776 -0.756017
v -0.208636 -0.0368776 -0.711861
v -0.200191 -0.0368776 -0.727944
v -0.0187587 0.338942 -0.673166
v -0.0187587 0.351459 -0.661404
v -0.0187587 0.365976 -0.650559
v -0.0184836 0.302311 -0.728229
v -0.0184836 0.363242 -0.755991
v -0.0184836 0.387265 -0.711861
v -0.0187587 0.399803 -0.63695
v -0.0187587 0.417975 -0.63695
v -0.0546022 0.400355 -0.63695
v -0.0187587 0.418561 -0.637075
v -0.0187587 0.419665 -0.637515
v -0.0242775 0.430699 -0.643021
v -0.0187587 0.430699 -0.643021
v -0.0187587 0.430078 -0.654592
v -0.0273213 0.432182 -0.64605
v -0.0637053 0.41401 -0.66425
v -0.0273213 0.423113 -0.66425
v -0.0187587 0.429492 -0.655714
v -0.0187587 0.418837 -0.672792
v -0.0184836 0.37041 -0.746426
v -0.0280982 0.358828 -0.756017
v -0.100118 0.395803 -0.66425
v -0.0644762 0.340611 -0.756017
v -0.0755738 0.334036 -0.756017
v -0.191064 0.323011 -0.66425
v -0.11528 0.388217 -0.65515
v -0.104669 0.391251 -0.64605
v -0.0970739 0.394286 -0.643021
v -0.172886 0.341218 -0.64605
v -0.111468 0.382148 -0.641504
v -0.184236 0.327563 -0.641504
v -0.163811 0.327563 -0.63695
v -0.181961 0.309357 -0.63695
v -0.238855 0.254806 -0.641504
v -0.195615 0.31846 -0.64605
v -0.181961 0.33439 -0.65515
v -0.194107 0.321494 -0.65515
v -0.242638 0.26084 -0.65515
v -0.250205 0.245703 -0.64605
v -0.286618 0.172911 -0.64605
v -0.272963 0.200186 -0.65515
v -0.266904 0.206255 -0.667285
v -0.248698 0.242668 -0.667285
v -0.19107 0.222957 -0.755239
v -0.227471 0.150148 -0.755239
v -0.232016 0.138004 -0.756017
v -0.303288 0.115292 -0.667285
v -0.309376 0.109223 -0.65515
v -0.304824 0.118292 -0.64605
v -0.28511 0.163808 -0.643021
v -0.275239 0.182014 -0.641504
v -0.236579 0.236599 -0.63695
v -0.272963 0.163808 -0.63695
v -0.291169 0.109223 -0.63695
v -0.0910147 0.382148 -0.63695
v -0.0606899 0.412492 -0.643021
v -0.272963 0.0799475 -0.63695
v -0.291169 0.0799475 -0.63695
v -0.271404 -0.0368776 -0.711861
v -0.303288 0.0799475 -0.643021
v -0.303288 0.109223 -0.643021
v -0.309376 0.0799475 -0.65515
v -0.271912 -0.0353311 -0.711861
v -0.252803 -0.0344151 -0.756017
v -0.254773 -0.0181884 -0.756017
v -0.297229 0.0799475 -0.679406
v -0.254773 0.0265183 -0.756017
v -0.249836 0.0595309 -0.756017
v -0.297229 0.103154 -0.679406
v -0.252305 0.0459452 -0.756017
v -0.190687 0.222364 -0.756017
v -0.227089 0.149556 -0.756017
v -0.245654 0.250254 -0.66425
v -0.0187587 0.379941 -0.641364
f 538 539 537
f 540 539 538
f 540 541 539
f 542 541 540
f 543 541 542
f 544 541 543
f 544 545 541
f 544 546 545
f 544 543 546
f 543 542 546
f 546 542 540
f 546 540 538
f 546 538 547
f 548 546 547
f 548 549 546
f 550 549 548
f 550 551 549
f 552 551 550
f 553 551 552
f 553 554 551
f 553 555 554
f 553 548 555
f 553 552 548
f 552 550 548
f 556 555 548
f 556 557 555
f 556 558 557
f 556 559 558
f 560 559 556
f 560 561 559
f 560 562 561
f 560 556 562
f 562 556 548
f 562 548 547
f 562 547 558
f 562 558 559
f 561 562 559
f 563 558 547
f 563 564 558
f 563 565 564
f 563 538 565
f 563 547 538
f 565 538 566
f 565 566 564
f 566 537 564
f 566 538 537
f 567 564 537
f 568 564 567
f 568 558 564
f 568 557 558
f 569 557 568
f 569 570 557
f 571 570 569
f 571 572 570
f 573 572 571
f 573 574 572
f 573 575 574
f 573 576 575
f 573 577 576
f 573 571 577
f 571 578 577
f 571 568 578
f 571 569 568
f 578 568 567
f 578 567 579
f 578 579 577
f 580 577 579
f 580 581 577
f 580 582 581
f 583 582 580
f 583 584 582
f 583 580 584
f 584 580 585
f 584 585 586
f 584 586 587
f 584 587 588
f 584 588 589
f 584 589 590
f 584 590 582
f 582 590 591
f 592 582 591
f 593 582 592
f 593 576 582
f 593 594 576
f 593 595 594
f 593 592 595
f 595 592 596
f 595 596 594
f 594 596 551
f 574 594 551
f 575 594 574
f 575 576 594
f 597 574 551
f 597 572 574
f 597 570 572
f 597 598 570
f 597 551 598
f 554 598 551
f 554 557 598
f 554 555 557
f 570 598 557
f 596 599 551
f 600 599 596
f 600 601 599
f 600 602 601
f 600 596 602
f 603 602 596
f 603 591 602
f 603 592 591
f 603 596 592
f 602 591 604
f 602 604 601
f 605 601 604
f 605 539 601
f 606 539 605
f 606 607 539
f 606 605 607
f 605 604 607
f 607 604 608
f 607 608 609
f 607 609 539
f 609 588 539
f 610 588 609
f 610 611 588
f 612 611 610
f 612 609 611
f 612 610 609
f 609 608 611
f 604 611 608
f 590 611 604
f 589 611 590
f 589 588 611
f 590 604 591
f 588 537 539
f 613 537 588
f 613 586 537
f 613 587 586
f 614 587 613
f 614 588 587
f 614 613 588
f 586 567 537
f 586 615 567
f 586 585 615
f 580 615 585
f 580 567 615
f 580 579 567
f 601 539 541
f 599 601 541
f 616 599 541
f 616 549 599
f 616 546 549
f 616 545 546
f 616 541 545
f 549 551 599
f 576 581 582
f 576 577 581
o convex_8
v -0.202168 0.0799475 -0.711861
v -0.202651 0.0799475 -0.709743
v -0.208621 -0.0369455 -0.711861
v -0.262839 0.0799475 -0.711861
v -0.205728 0.0799475 -0.701802
v -0.209012 -0.0369455 -0.710287
v -0.271404 -0.0369455 -0.711861
v -0.279051 0.0799475 -0.697611
v -0.418555 0.0363872 -0.711861
v -0.210091 0.0799475 -0.694545
v -0.212318 -0.0369455 -0.703677
v -0.297261 -0.0369455 -0.679412
v -0.418555 -0.0363963 -0.711861
v -0.297261 0.0799475 -0.679412
v -0.419956 0.0356893 -0.711861
v -0.418555 0.0363872 -0.655155
v -0.309386 0.0799475 -0.655155
v -0.303875 0.0799475 -0.666199
v -0.230529 0.0799475 -0.667287
v -0.230529 0.060656 -0.667287
v -0.232848 -0.0369455 -0.669603
v -0.303324 -0.0369455 -0.667287
v -0.309386 -0.0369455 -0.655155
v -0.418555 -0.0363963 -0.655155
v -0.43068 -0.0303205 -0.711861
v -0.43068 0.0303229 -0.711861
v -0.43068 0.0303229 -0.655155
v -0.420829 0.0318447 -0.636956
v -0.303324 0.0799475 -0.643022
v -0.248716 0.0799475 -0.649089
v -0.257304 0.0331033 -0.636743
v -0.257511 -0.0181918 -0.636743
v -0.248716 -0.0369455 -0.649089
v -0.305298 -0.0369455 -0.636743
v -0.400368 -0.0363963 -0.636743
v -0.418555 -0.0323 -0.636743
v -0.420301 -0.0316249 -0.636743
v -0.43068 -0.0303205 -0.649089
v -0.435686 -0.0203086 -0.711861
v -0.431392 0.0289155 -0.711861
v -0.436743 0.0182056 -0.655155
v -0.432196 0.0272907 -0.646052
v -0.420806 0.0318104 -0.636743
v -0.291199 0.0799475 -0.636956
v -0.420599 0.0318905 -0.636743
v -0.272989 0.0799475 -0.636956
v -0.263987 0.0453922 -0.636743
v -0.25905 -0.0369455 -0.636743
v -0.421311 -0.0304578 -0.636743
v -0.427649 -0.0272884 -0.6415
v -0.427557 -0.0181918 -0.636743
v -0.436743 -0.0181918 -0.655155
v -0.436743 -0.0181918 -0.711861
v -0.436743 0.0182056 -0.711861
v -0.427557 0.0182056 -0.636743
v -0.400368 0.0363872 -0.636743
v -0.290992 0.0541798 -0.636743
v -0.272782 0.0541798 -0.636743
v -0.426294 -0.023215 -0.636743
f 617 618 619
f 617 619 623
f 617 623 629
f 617 629 641
f 617 641 655
f 617 655 669
f 617 669 670
f 617 670 656
f 617 656 642
f 617 642 631
f 617 631 625
f 617 625 620
f 617 620 624
f 617 624 630
f 617 630 634
f 617 634 633
f 617 633 645
f 617 645 660
f 617 660 662
f 617 662 646
f 617 646 635
f 617 635 626
f 617 626 621
f 617 621 618
f 618 621 622
f 618 622 619
f 619 622 627
f 619 627 637
f 619 637 649
f 619 649 664
f 619 664 650
f 619 650 639
f 619 639 638
f 619 638 628
f 619 628 623
f 620 625 624
f 621 626 627
f 621 627 622
f 623 628 629
f 624 625 630
f 625 631 632
f 625 632 633
f 625 633 634
f 625 634 630
f 626 635 636
f 626 636 637
f 626 637 627
f 628 638 629
f 629 638 639
f 629 639 640
f 629 640 654
f 629 654 641
f 631 642 643
f 631 643 632
f 632 643 644
f 632 644 645
f 632 645 633
f 635 646 647
f 635 647 636
f 636 647 648
f 636 648 649
f 636 649 637
f 639 650 640
f 640 651 652
f 640 652 653
f 640 653 654
f 640 650 651
f 641 654 655
f 642 656 643
f 643 656 657
f 643 657 658
f 643 658 659
f 643 659 644
f 644 659 645
f 645 659 661
f 645 661 660
f 646 662 647
f 647 662 663
f 647 663 674
f 647 674 673
f 647 673 672
f 647 672 661
f 647 661 659
f 647 659 671
f 647 671 667
f 647 667 675
f 647 675 665
f 647 665 653
f 647 653 652
f 647 652 651
f 647 651 650
f 647 650 664
f 647 664 648
f 648 664 649
f 653 665 666
f 653 666 654
f 654 666 667
f 654 667 668
f 654 668 655
f 655 668 669
f 656 670 657
f 657 670 669
f 657 669 668
f 657 668 667
f 657 667 671
f 657 671 658
f 658 671 659
f 660 661 672
f 660 672 673
f 660 673 674
f 660 674 662
f 662 674 663
f 665 675 666
f 666 675 667
o convex_9
v 0.257071 -0.450413 -0.65515
v 0.259359 -0.445861 -0.66425
v 0.297253 -0.430668 -0.667285
v 0.253753 -0.384224 -0.756017
v 0.242679 -0.448874 -0.667285
v 0.230532 -0.442816 -0.679406
v 0.236606 -0.454964 -0.65515
v 0.263893 -0.450413 -0.64605
v 0.164144 -0.454964 -0.65515
v 0.164144 -0.448874 -0.643021
v 0.254783 -0.448874 -0.643021
v 0.254783 -0.436758 -0.63695
v 0.273003 -0.439034 -0.641504
v 0.354906 -0.414 -0.64605
v 0.363974 -0.402621 -0.641504
v 0.345797 -0.400345 -0.63695
v 0.40033 -0.384415 -0.641504
v 0.391262 -0.395794 -0.64605
v 0.348084 -0.414 -0.65515
v 0.350331 -0.409449 -0.66425
v 0.386686 -0.391242 -0.66425
v 0.424622 -0.370023 -0.65515
v 0.414015 -0.373068 -0.66425
v 0.406403 -0.376081 -0.667285
v 0.345998 -0.345377 -0.756017
v 0.33215 -0.354854 -0.755239
v 0.319977 -0.359395 -0.756017
v 0.331554 -0.354457 -0.756017
v 0.431243 -0.282439 -0.756017
v 0.386126 -0.318079 -0.756017
v 0.386685 -0.318448 -0.755239
v 0.441302 -0.336656 -0.682442
v 0.45948 -0.336656 -0.66425
v 0.464056 -0.341207 -0.64605
v 0.467092 -0.33361 -0.643021
v 0.454946 -0.327552 -0.63695
v 0.52774 -0.257067 -0.641504
v 0.52774 -0.236585 -0.63695
v 0.539886 -0.242675 -0.643021
v 0.541384 -0.245688 -0.64605
v 0.46859 -0.336656 -0.64605
v 0.515594 -0.279056 -0.65515
v 0.534562 -0.254791 -0.65515
v 0.559603 -0.209308 -0.64605
v 0.558064 -0.206263 -0.643021
v 0.594476 -0.115257 -0.643021
v 0.595995 -0.118289 -0.64605
v 0.594476 -0.0369455 -0.643021
v 0.600553 -0.0369455 -0.65515
v 0.600553 -0.0727946 -0.65515
v 0.595995 -0.0818987 -0.66425
v 0.577781 -0.154689 -0.66425
v 0.552781 -0.218411 -0.65515
v 0.498174 -0.200205 -0.746141
v 0.504391 -0.173673 -0.756017
v 0.522622 -0.119065 -0.756017
v 0.530875 -0.0909882 -0.756017
v 0.49609 -0.19033 -0.756017
v 0.486783 -0.209285 -0.755239
v 0.486597 -0.208519 -0.756017
v 0.485629 -0.21008 -0.756017
v 0.523206 -0.263895 -0.66425
v 0.511809 -0.272998 -0.668803
v 0.459683 -0.244925 -0.756017
v 0.477325 -0.0368776 -0.756017
v 0.536421 -0.0368776 -0.756017
v 0.588411 -0.0727946 -0.679406
v 0.588411 -0.0369455 -0.679406
v 0.582345 -0.0369455 -0.63695
v 0.582345 -0.109184 -0.63695
v 0.545918 -0.200205 -0.63695
v 0.382152 -0.382139 -0.63695
v 0.545918 -0.12754 -0.63695
v 0.164144 -0.436758 -0.63695
v 0.158196 -0.417509 -0.711861
v 0.158196 -0.399405 -0.756017
v 0.158196 -0.353804 -0.711861
v 0.164144 -0.418552 -0.63695
v 0.164144 -0.394287 -0.649086
v 0.56415 -0.0369455 -0.63695
v 0.53989 -0.0369455 -0.649086
v 0.521694 -0.0369455 -0.667285
v 0.158196 -0.345746 -0.727944
v 0.158196 -0.344809 -0.756017
v 0.515246 -0.0369455 -0.679773
v 0.173347 -0.397873 -0.756017
v 0.164144 -0.442816 -0.679406
f 677 678 676
f 677 679 678
f 680 679 677
f 680 681 679
f 680 682 681
f 680 676 682
f 680 677 676
f 683 682 676
f 683 684 682
f 683 685 684
f 686 685 683
f 686 687 685
f 686 688 687
f 686 683 688
f 689 688 683
f 690 688 689
f 690 691 688
f 690 692 691
f 690 689 692
f 689 693 692
f 689 694 693
f 689 683 694
f 683 676 694
f 678 694 676
f 695 694 678
f 696 694 695
f 696 693 694
f 696 697 693
f 696 698 697
f 696 699 698
f 696 700 699
f 696 701 700
f 696 695 701
f 695 678 701
f 702 701 678
f 702 703 701
f 702 679 703
f 702 678 679
f 703 679 704
f 700 703 704
f 700 701 703
f 705 700 704
f 705 706 700
f 705 704 706
f 706 704 707
f 698 706 707
f 699 706 698
f 699 700 706
f 698 707 708
f 698 708 697
f 697 708 709
f 693 697 709
f 693 709 692
f 710 692 709
f 710 711 692
f 712 711 710
f 712 713 711
f 712 714 713
f 712 715 714
f 712 716 715
f 712 710 716
f 716 710 709
f 716 709 708
f 716 708 717
f 715 716 717
f 715 717 718
f 715 718 719
f 715 719 714
f 719 720 714
f 719 721 720
f 722 721 719
f 722 723 721
f 722 724 723
f 722 725 724
f 722 726 725
f 722 727 726
f 722 719 727
f 719 728 727
f 719 718 728
f 729 728 718
f 730 728 729
f 730 727 728
f 731 727 730
f 731 732 727
f 731 730 732
f 730 733 732
f 730 729 733
f 734 733 729
f 735 733 734
f 735 736 733
f 735 734 736
f 734 737 736
f 734 729 737
f 729 718 737
f 737 718 717
f 737 717 708
f 738 737 708
f 738 704 737
f 738 708 704
f 707 704 708
f 739 737 704
f 739 736 737
f 739 704 736
f 736 704 733
f 733 704 732
f 732 704 740
f 741 732 740
f 741 742 732
f 741 743 742
f 741 724 743
f 723 724 741
f 723 741 744
f 723 744 721
f 721 744 745
f 721 745 720
f 746 720 745
f 746 714 720
f 713 714 746
f 713 746 711
f 746 745 711
f 711 745 687
f 747 711 687
f 747 692 711
f 691 692 747
f 691 747 687
f 688 691 687
f 748 687 745
f 749 687 748
f 685 687 749
f 685 749 750
f 685 750 684
f 750 751 684
f 750 752 751
f 750 749 752
f 753 752 749
f 753 754 752
f 753 755 754
f 753 749 755
f 755 749 744
f 755 744 740
f 755 740 756
f 755 756 754
f 757 754 756
f 757 752 754
f 758 752 757
f 758 759 752
f 758 740 759
f 760 740 758
f 760 757 740
f 760 758 757
f 757 756 740
f 759 740 704
f 679 759 704
f 751 759 679
f 751 752 759
f 761 751 679
f 761 681 751
f 761 679 681
f 762 751 681
f 762 684 751
f 762 681 684
f 681 682 684
f 744 741 740
f 744 749 748
f 744 748 745
f 724 725 743
f 742 743 725
f 726 742 725
f 726 727 742
f 727 732 742
o convex_10
v -0.436766 -0.0181986 -0.746141
v -0.431825 -0.0132606 -0.756017
v -0.42751 -0.0271411 -0.756017
v -0.430698 -0.0303262 -0.740072
v -0.436766 -0.0181986 -0.711861
v -0.436766 0.0181986 -0.746141
v -0.431825 0.0231294 -0.756017
v -0.416589 -0.0344162 -0.756017
v -0.418562 -0.0363971 -0.746141
v -0.427664 -0.0272979 -0.755239
v -0.430698 -0.0303262 -0.711861
v -0.436766 0.0181986 -0.711861
v -0.430698 0.0303262 -0.746141
v -0.427664 0.0318439 -0.755239
v -0.428439 0.0299058 -0.756017
v -0.430698 0.0253882 -0.756017
v -0.40037 -0.033269 -0.756017
v -0.392049 -0.0322287 -0.756017
v -0.418562 -0.0363971 -0.711861
v -0.430698 0.0303262 -0.711861
v -0.418562 0.0363971 -0.746141
v -0.426889 0.0316515 -0.756017
v -0.391016 -0.0317157 -0.756017
v -0.391274 -0.0318439 -0.755239
v -0.406438 -0.0303262 -0.711861
v -0.418562 0.0363971 -0.711861
v -0.402035 0.0347298 -0.756017
v -0.418562 0.0326919 -0.756017
v -0.384904 -0.0216402 -0.756017
v -0.40037 -0.0181986 -0.711861
v -0.406438 0.0303262 -0.711861
v -0.389718 0.0265212 -0.756017
v -0.380617 0.00154624 -0.756017
v -0.40037 0.0181986 -0.711861
v -0.402486 0.0224311 -0.711861
v -0.380617 0.0083226 -0.756017
f 763 764 765
f 763 765 766
f 763 766 773
f 763 773 767
f 763 767 774
f 763 774 768
f 763 768 769
f 763 769 764
f 764 769 778
f 764 778 777
f 764 777 784
f 764 784 790
f 764 790 789
f 764 789 794
f 764 794 798
f 764 798 795
f 764 795 791
f 764 791 785
f 764 785 780
f 764 780 779
f 764 779 770
f 764 770 765
f 765 770 771
f 765 771 772
f 765 772 766
f 766 772 771
f 766 771 781
f 766 781 773
f 767 773 781
f 767 781 787
f 767 787 792
f 767 792 796
f 767 796 797
f 767 797 793
f 767 793 788
f 767 788 782
f 767 782 774
f 768 774 782
f 768 782 775
f 768 775 776
f 768 776 777
f 768 777 778
f 768 778 769
f 770 779 771
f 771 779 780
f 771 780 781
f 775 782 788
f 775 788 783
f 775 783 776
f 776 783 784
f 776 784 777
f 780 785 786
f 780 786 781
f 781 786 787
f 783 788 789
f 783 789 790
f 783 790 784
f 785 791 786
f 786 791 787
f 787 791 792
f 788 793 789
f 789 793 794
f 791 795 792
f 792 795 798
f 792 798 796
f 793 797 794
f 794 797 798
f 796 798 797
o convex_11
v -0.186445 -0.12754 -0.709859
v -0.186445 -0.12754 -0.711861
v -0.196491 -0.12754 -0.687876
v 0.164144 -0.353804 -0.711861
v -0.258763 -0.12754 -0.711861
v -0.212309 -0.12754 -0.667285
v 0.164144 -0.357875 -0.703678
v 0.164144 -0.355022 -0.709382
v 0.164144 -0.417494 -0.711861
v -0.258263 -0.130905 -0.711861
v -0.291036 -0.12754 -0.673467
v -0.2329 -0.12754 -0.651491
v 0.164144 -0.394287 -0.649086
v 0.164144 -0.378036 -0.673349
v 0.164144 -0.376338 -0.675901
v 0.164144 -0.442816 -0.679406
v 0.128417 -0.417494 -0.711861
v -0.279036 -0.151676 -0.679406
v -0.282036 -0.136515 -0.682442
v -0.225218 -0.207064 -0.711861
v -0.227445 -0.227514 -0.700642
v -0.297217 -0.13347 -0.661221
v -0.298399 -0.12754 -0.662409
v -0.254854 -0.12754 -0.641445
v 0.164144 -0.406403 -0.643021
v 0.164144 -0.454964 -0.65515
v 0.0485083 -0.442816 -0.679406
v 0.0485083 -0.42461 -0.697606
v 0.0342357 -0.408391 -0.711861
v -0.282036 -0.172895 -0.66425
v -0.220491 -0.21418 -0.711861
v -0.242627 -0.26085 -0.661221
v -0.260809 -0.224469 -0.661221
v -0.216263 -0.220526 -0.711861
v -0.172854 -0.282101 -0.711861
v -0.172854 -0.300275 -0.700642
v -0.300217 -0.12754 -0.655267
v -0.272354 -0.12754 -0.637075
v 0.164144 -0.418552 -0.63695
v 0.164144 -0.448874 -0.643021
v 0.0545538 -0.454964 -0.65515
v 0.0272812 -0.445861 -0.66425
v -0.00608235 -0.42461 -0.679406
v 0.0295084 -0.407205 -0.711861
v -0.272945 -0.200205 -0.65515
v -0.194082 -0.321494 -0.649086
v -0.248672 -0.248733 -0.649086
v -0.254763 -0.236585 -0.65515
v -0.266899 -0.212321 -0.649086
v -0.191082 -0.300275 -0.682442
v -0.191082 -0.318449 -0.66425
v -0.184991 -0.330597 -0.658185
v -0.1659 -0.289088 -0.711861
v -0.154673 -0.318449 -0.700642
v -0.288127 -0.160779 -0.652121
v -0.282036 -0.172895 -0.641504
v -0.285081 -0.163792 -0.643021
v -0.291127 -0.12754 -0.643777
v -0.273036 -0.12754 -0.636994
v 0.164144 -0.436758 -0.63695
v -0.254763 -0.145618 -0.63695
v 0.164144 -0.44865 -0.642904
v 0.036372 -0.448874 -0.643021
v 0.0394175 -0.451919 -0.652121
v -0.0273095 -0.427655 -0.66425
v -0.0818548 -0.373068 -0.700642
v -0.0614912 -0.370824 -0.711861
v -0.115218 -0.388229 -0.661221
v -0.172854 -0.336656 -0.641504
v -0.191082 -0.318449 -0.641504
v -0.245672 -0.245688 -0.641504
v -0.263854 -0.209308 -0.641504
v -0.154673 -0.336656 -0.682442
v -0.172854 -0.336656 -0.66425
v -0.136445 -0.318449 -0.711861
v -0.272945 -0.163792 -0.63695
v -0.272945 -0.145618 -0.63695
v 0.036372 -0.436758 -0.63695
v 0.0272812 -0.445861 -0.641504
v -0.0151732 -0.433713 -0.652121
v -0.0546276 -0.418552 -0.65515
v -0.0788548 -0.406403 -0.661221
v -0.0749002 -0.361849 -0.711861
v -0.0667639 -0.412494 -0.649086
v -0.103082 -0.394287 -0.649086
v -0.100082 -0.391242 -0.641504
v -0.163763 -0.327552 -0.63695
v -0.236581 -0.236585 -0.63695
v -0.181945 -0.309346 -0.63695
v -0.254763 -0.200205 -0.63695
v -0.0182187 -0.418552 -0.63695
v -0.0273095 -0.427655 -0.641504
v -0.0637185 -0.409449 -0.641504
v -0.0909911 -0.382139 -0.63695
v -0.0546276 -0.400345 -0.63695
f 799 800 803
f 799 803 809
f 799 809 821
f 799 821 835
f 799 835 856
f 799 856 857
f 799 857 836
f 799 836 822
f 799 822 810
f 799 810 804
f 799 804 801
f 799 801 802
f 799 802 800
f 800 802 807
f 800 807 815
f 800 815 827
f 800 827 842
f 800 842 865
f 800 865 881
f 800 881 873
f 800 873 851
f 800 851 833
f 800 833 832
f 800 832 829
f 800 829 818
f 800 818 808
f 800 808 803
f 801 804 805
f 801 805 806
f 801 806 802
f 802 806 805
f 802 805 813
f 802 813 812
f 802 812 811
f 802 811 823
f 802 823 837
f 802 837 858
f 802 858 860
f 802 860 838
f 802 838 824
f 802 824 814
f 802 814 807
f 803 808 809
f 804 810 811
f 804 811 812
f 804 812 813
f 804 813 805
f 807 814 825
f 807 825 815
f 808 816 817
f 808 817 809
f 808 818 819
f 808 819 816
f 809 817 816
f 809 816 820
f 809 820 821
f 810 822 811
f 811 822 823
f 814 824 839
f 814 839 825
f 815 825 826
f 815 826 827
f 816 828 820
f 816 819 828
f 818 829 819
f 819 830 831
f 819 831 828
f 819 829 832
f 819 832 833
f 819 833 834
f 819 834 830
f 820 835 821
f 820 828 835
f 822 836 837
f 822 837 823
f 824 838 861
f 824 861 839
f 825 827 826
f 825 839 840
f 825 840 863
f 825 863 841
f 825 841 842
f 825 842 827
f 828 831 843
f 828 843 835
f 830 844 845
f 830 845 846
f 830 846 847
f 830 847 831
f 830 834 848
f 830 848 849
f 830 849 850
f 830 850 844
f 831 847 843
f 833 851 834
f 834 851 852
f 834 852 848
f 835 853 854
f 835 854 855
f 835 855 856
f 835 843 853
f 836 857 837
f 837 857 859
f 837 859 875
f 837 875 874
f 837 874 888
f 837 888 886
f 837 886 887
f 837 887 885
f 837 885 892
f 837 892 893
f 837 893 889
f 837 889 876
f 837 876 858
f 838 860 861
f 839 861 862
f 839 862 840
f 840 862 878
f 840 878 863
f 841 863 864
f 841 864 865
f 841 865 842
f 843 847 854
f 843 854 853
f 844 850 866
f 844 866 867
f 844 867 868
f 844 868 869
f 844 869 845
f 845 869 847
f 845 847 846
f 847 869 870
f 847 870 854
f 848 852 871
f 848 871 850
f 848 850 849
f 850 871 872
f 850 872 866
f 851 873 852
f 852 873 864
f 852 864 866
f 852 866 871
f 854 856 855
f 854 870 888
f 854 888 874
f 854 874 856
f 856 874 875
f 856 875 857
f 857 875 859
f 858 876 877
f 858 877 860
f 860 877 861
f 861 877 862
f 862 877 890
f 862 890 878
f 863 878 879
f 863 879 880
f 863 880 864
f 864 881 865
f 864 880 866
f 864 873 881
f 866 882 883
f 866 883 867
f 866 872 871
f 866 880 879
f 866 879 882
f 867 883 884
f 867 884 892
f 867 892 885
f 867 885 868
f 868 886 869
f 868 885 887
f 868 887 886
f 869 886 888
f 869 888 870
f 876 889 890
f 876 890 877
f 878 890 879
f 879 890 882
f 882 890 891
f 882 891 884
f 882 884 883
f 884 891 893
f 884 893 892
f 889 893 891
f 889 891 890
o convex_12
v 0.536163 0.0366561 -0.756025
v 0.536258 0.036382 -0.756025
v 0.527687 0.0366561 -0.818935
v -0.252514 0.0366561 -0.756025
v 0.538353 0.0302996 -0.756025
v 0.540162 0.0223496 -0.756025
v 0.541019 0.0181862 -0.756025
v 0.527687 -0.0727926 -0.818935
v 0.521783 0.0366561 -0.830877
v -0.254133 0.0366561 -0.799903
v -0.400307 0.036382 -0.764346
v -0.402021 0.03472 -0.756025
v 0.541019 -0.0249731 -0.756025
v 0.527687 -0.0909884 -0.800736
v 0.523116 -0.0818905 -0.828035
v 0.521688 -0.0727926 -0.831068
v 0.540733 -0.0280914 -0.756025
v 0.521688 0.0366561 -0.831068
v -0.254133 0.0366561 -0.800736
v -0.400307 0.036382 -0.782545
v -0.426876 0.0316531 -0.756025
v 0.522545 -0.119053 -0.756025
v 0.523116 -0.100086 -0.809836
v 0.53083 -0.0909884 -0.756025
v 0.504928 -0.136478 -0.828035
v 0.503404 -0.12738 -0.831068
v 0.49131 -0.12738 -0.837134
v 0.509499 -0.0727926 -0.837134
v 0.509499 0.0366561 -0.837134
v -0.249181 0.0366561 -0.8119
v -0.409449 0.0318416 -0.791645
v -0.230421 0.0366561 -0.831068
v -0.382119 0.036382 -0.800736
v -0.4284 0.0299055 -0.756025
v 0.513498 -0.138345 -0.756025
v 0.504071 -0.138345 -0.822413
v 0.502642 -0.138345 -0.828964
v 0.4975 -0.138345 -0.831981
v 0.480359 -0.138345 -0.837134
v 0.492643 -0.138345 -0.834387
v -0.218327 0.0366561 -0.837134
v -0.391261 0.0318416 -0.809836
v -0.412496 0.0242514 -0.794678
v -0.430685 0.0242514 -0.75828
v -0.218898 0.0366561 -0.836856
v -0.345742 0.036382 -0.818935
v -0.431828 0.0231206 -0.756025
v -0.227088 -0.138345 -0.756025
v -0.200139 -0.138345 -0.837134
v -0.345742 0.0181862 -0.837134
v -0.345742 0.0303167 -0.831068
v -0.354788 0.0318416 -0.828035
v -0.394213 0.0242514 -0.812869
v -0.357836 0.0242514 -0.831068
v -0.406402 0.0121209 -0.806803
v -0.412496 -0.0121401 -0.794678
v -0.431828 -0.0132709 -0.756025
v -0.416591 -0.0344308 -0.756025
v -0.226517 -0.138345 -0.772509
v -0.21109 -0.138345 -0.831648
v -0.406402 -0.0242706 -0.806803
v -0.370025 -0.0242706 -0.825002
v -0.345742 -0.0182053 -0.837134
v -0.370025 0.0121209 -0.825002
v -0.427447 -0.027149 -0.756025
v -0.42459 -0.0242706 -0.770413
v -0.412496 -0.0303358 -0.776479
v -0.400307 -0.0364011 -0.782545
v -0.218327 -0.138345 -0.818935
v -0.219755 -0.138345 -0.811702
v -0.212232 -0.138345 -0.831068
v -0.39726 -0.0333685 -0.797703
v -0.409449 -0.0273032 -0.791645
f 894 895 896
f 894 896 902
f 894 902 911
f 894 911 922
f 894 922 934
f 894 934 938
f 894 938 925
f 894 925 923
f 894 923 912
f 894 912 903
f 894 903 897
f 894 897 905
f 894 905 914
f 894 914 927
f 894 927 940
f 894 940 950
f 894 950 958
f 894 958 951
f 894 951 941
f 894 941 928
f 894 928 915
f 894 915 917
f 894 917 910
f 894 910 906
f 894 906 900
f 894 900 899
f 894 899 898
f 894 898 895
f 895 898 896
f 896 898 899
f 896 899 900
f 896 900 906
f 896 906 901
f 896 901 902
f 897 903 904
f 897 904 905
f 901 907 916
f 901 916 908
f 901 908 909
f 901 909 902
f 901 906 910
f 901 910 907
f 902 909 911
f 903 912 913
f 903 913 904
f 904 913 914
f 904 914 905
f 907 915 916
f 907 910 917
f 907 917 915
f 908 916 918
f 908 918 909
f 909 918 919
f 909 919 920
f 909 920 921
f 909 921 922
f 909 922 911
f 912 923 913
f 913 924 914
f 913 923 925
f 913 925 926
f 913 926 935
f 913 935 924
f 914 924 927
f 915 928 918
f 915 918 916
f 918 929 930
f 918 930 919
f 918 928 929
f 919 930 931
f 919 931 920
f 920 932 942
f 920 942 956
f 920 956 943
f 920 943 934
f 920 934 922
f 920 922 921
f 920 931 933
f 920 933 932
f 924 935 936
f 924 936 937
f 924 937 927
f 925 938 926
f 926 939 935
f 926 938 939
f 927 937 940
f 928 941 952
f 928 952 963
f 928 963 962
f 928 962 964
f 928 964 953
f 928 953 942
f 928 942 932
f 928 932 933
f 928 933 931
f 928 931 930
f 928 930 929
f 934 943 944
f 934 944 945
f 934 945 939
f 934 939 938
f 935 946 936
f 935 939 945
f 935 945 947
f 935 947 946
f 936 946 948
f 936 948 954
f 936 954 949
f 936 949 950
f 936 950 940
f 936 940 937
f 941 951 952
f 942 953 954
f 942 954 955
f 942 955 956
f 943 956 955
f 943 955 957
f 943 957 948
f 943 948 946
f 943 946 947
f 943 947 944
f 944 947 945
f 948 957 955
f 948 955 954
f 949 954 950
f 950 954 959
f 950 959 958
f 951 958 959
f 951 959 960
f 951 960 961
f 951 961 962
f 951 962 963
f 951 963 952
f 953 964 954
f 954 965 961
f 954 961 966
f 954 966 959
f 954 964 965
f 959 966 960
f 960 966 961
f 961 965 964
f 961 964 962
o convex_13
v 0.513584 -0.138388 -0.756025
v 0.512642 -0.145595 -0.756025
v 0.504014 -0.138388 -0.822413
v -0.227094 -0.138388 -0.756025
v 0.504377 -0.173678 -0.756025
v 0.491326 -0.181987 -0.818935
v 0.486759 -0.191092 -0.828035
v 0.502637 -0.138388 -0.828964
v -0.226514 -0.138388 -0.772509
v -0.227094 -0.154315 -0.756025
v 0.500244 -0.181987 -0.756025
v 0.485236 -0.181987 -0.831068
v 0.496039 -0.190323 -0.756025
v 0.486614 -0.208532 -0.756025
v 0.479218 -0.206275 -0.818935
v 0.432165 -0.263903 -0.828035
v 0.475376 -0.200197 -0.832584
v 0.497489 -0.138388 -0.831981
v -0.219771 -0.138388 -0.811702
v -0.218321 -0.145595 -0.818935
v -0.190625 -0.2271 -0.756025
v -0.206213 -0.169857 -0.825002
v -0.188015 -0.206275 -0.825002
v 0.492704 -0.138388 -0.834387
v 0.473128 -0.181987 -0.837134
v 0.485599 -0.21007 -0.756025
v 0.459643 -0.244924 -0.756025
v 0.424625 -0.279034 -0.818935
v 0.420782 -0.272956 -0.832584
v 0.418534 -0.254798 -0.837134
v -0.218321 -0.138388 -0.818935
v -0.212884 -0.138388 -0.829901
v -0.212303 -0.139542 -0.831068
v -0.172718 -0.24554 -0.756025
v -0.15162 -0.260851 -0.825002
v -0.136467 -0.282061 -0.773446
v -0.197151 -0.160778 -0.834101
v -0.17888 -0.19717 -0.834101
v -0.142484 -0.251772 -0.834101
v 0.480378 -0.138388 -0.837134
v 0.431222 -0.282445 -0.756025
v 0.413967 -0.282061 -0.828035
v 0.386126 -0.318068 -0.756025
v 0.351833 -0.333636 -0.818935
v 0.406427 -0.285087 -0.831068
v 0.34799 -0.327558 -0.832584
v 0.400336 -0.272956 -0.837134
v -0.212303 -0.138388 -0.831068
v -0.211143 -0.138388 -0.831648
v -0.200123 -0.145595 -0.837134
v -0.136467 -0.282061 -0.756025
v -0.115224 -0.297218 -0.825002
v -0.0999258 -0.318299 -0.756025
v -0.181925 -0.181987 -0.837134
v -0.145529 -0.236589 -0.837134
v -0.127331 -0.254798 -0.837134
v -0.106088 -0.288139 -0.834101
v -0.200123 -0.138388 -0.837134
v 0.341175 -0.336662 -0.828035
v 0.35843 -0.337047 -0.756025
v 0.34596 -0.345382 -0.756025
v 0.331532 -0.354461 -0.756025
v 0.327545 -0.345767 -0.818935
v 0.333635 -0.339689 -0.831068
v 0.327545 -0.327558 -0.837134
v -0.0606298 -0.333636 -0.825002
v -0.0780302 -0.332867 -0.756025
v -0.0909355 -0.291165 -0.837134
v -0.0514946 -0.324531 -0.834101
v 0.319932 -0.359411 -0.756025
v 0.236555 -0.382159 -0.818935
v 0.242645 -0.376081 -0.831068
v 0.236555 -0.36395 -0.837134
v -0.0450419 -0.354461 -0.756025
v -0.030324 -0.339689 -0.831068
v -0.00908103 -0.354871 -0.828035
v -0.0242339 -0.351819 -0.825002
v -0.00864601 -0.37267 -0.756025
v -0.0363417 -0.327558 -0.837134
v 0.253738 -0.384237 -0.756025
v 0.173333 -0.397881 -0.756025
v 0.153903 -0.400369 -0.756025
v 0.145565 -0.400369 -0.764346
v 0.054648 -0.382159 -0.818935
v 0.0606657 -0.376081 -0.831068
v 0.054648 -0.36395 -0.837134
v 0.00607185 -0.357898 -0.831068
v 5.42027e-05 -0.36395 -0.818935
v 0.0202097 -0.380185 -0.756025
v 5.42027e-05 -0.345767 -0.837134
v 0.145565 -0.400369 -0.756025
v 0.129397 -0.398368 -0.756025
v 0.0447878 -0.386314 -0.756025
v 0.0347826 -0.383826 -0.756025
f 967 968 969
f 967 969 974
f 967 974 984
f 967 984 990
f 967 990 1006
f 967 1006 1024
f 967 1024 1015
f 967 1015 1014
f 967 1014 998
f 967 998 997
f 967 997 985
f 967 985 975
f 967 975 970
f 967 970 976
f 967 976 987
f 967 987 1000
f 967 1000 1017
f 967 1017 1019
f 967 1019 1033
f 967 1033 1040
f 967 1040 1044
f 967 1044 1055
f 967 1055 1060
f 967 1060 1059
f 967 1059 1058
f 967 1058 1057
f 967 1057 1048
f 967 1048 1047
f 967 1047 1046
f 967 1046 1036
f 967 1036 1028
f 967 1028 1027
f 967 1027 1026
f 967 1026 1009
f 967 1009 1007
f 967 1007 993
f 967 993 992
f 967 992 980
f 967 980 979
f 967 979 977
f 967 977 971
f 967 971 968
f 968 971 969
f 969 971 972
f 969 972 973
f 969 973 974
f 970 975 976
f 971 977 973
f 971 973 972
f 973 978 974
f 973 977 979
f 973 979 980
f 973 980 981
f 973 981 982
f 973 982 983
f 973 983 978
f 974 978 984
f 975 985 986
f 975 986 976
f 976 986 988
f 976 988 989
f 976 989 987
f 978 990 984
f 978 983 991
f 978 991 990
f 980 992 981
f 981 992 993
f 981 993 994
f 981 994 982
f 982 994 995
f 982 995 983
f 983 995 996
f 983 996 991
f 985 997 986
f 986 997 998
f 986 998 999
f 986 999 988
f 987 989 1001
f 987 1001 1002
f 987 1002 1000
f 988 999 989
f 989 999 1003
f 989 1003 1004
f 989 1004 1005
f 989 1005 1001
f 990 991 1006
f 991 996 1013
f 991 1013 1031
f 991 1031 1039
f 991 1039 1052
f 991 1052 1056
f 991 1056 1045
f 991 1045 1034
f 991 1034 1022
f 991 1022 1021
f 991 1021 1020
f 991 1020 1016
f 991 1016 1024
f 991 1024 1006
f 993 1007 994
f 994 1008 995
f 994 1007 1009
f 994 1009 1010
f 994 1010 1025
f 994 1025 1008
f 995 1008 1011
f 995 1011 1030
f 995 1030 1012
f 995 1012 1031
f 995 1031 1013
f 995 1013 996
f 998 1014 999
f 999 1014 1015
f 999 1015 1016
f 999 1016 1003
f 1000 1002 1017
f 1001 1005 1023
f 1001 1023 1018
f 1001 1018 1002
f 1002 1018 1019
f 1002 1019 1017
f 1003 1016 1020
f 1003 1020 1004
f 1004 1020 1021
f 1004 1021 1005
f 1005 1021 1022
f 1005 1022 1034
f 1005 1034 1023
f 1008 1025 1030
f 1008 1030 1011
f 1009 1026 1010
f 1010 1026 1027
f 1010 1027 1028
f 1010 1028 1029
f 1010 1029 1030
f 1010 1030 1025
f 1012 1030 1031
f 1015 1024 1016
f 1018 1023 1032
f 1018 1032 1019
f 1019 1032 1033
f 1023 1034 1045
f 1023 1045 1035
f 1023 1035 1032
f 1028 1036 1029
f 1029 1036 1037
f 1029 1037 1038
f 1029 1038 1030
f 1030 1038 1039
f 1030 1039 1031
f 1032 1040 1033
f 1032 1035 1045
f 1032 1045 1041
f 1032 1041 1053
f 1032 1053 1042
f 1032 1042 1043
f 1032 1043 1044
f 1032 1044 1040
f 1036 1046 1037
f 1037 1046 1047
f 1037 1047 1048
f 1037 1048 1049
f 1037 1049 1050
f 1037 1050 1051
f 1037 1051 1038
f 1038 1051 1052
f 1038 1052 1039
f 1041 1045 1056
f 1041 1056 1053
f 1042 1053 1051
f 1042 1051 1050
f 1042 1050 1054
f 1042 1054 1043
f 1043 1054 1044
f 1044 1054 1050
f 1044 1050 1055
f 1048 1057 1049
f 1049 1057 1058
f 1049 1058 1059
f 1049 1059 1050
f 1050 1059 1060
f 1050 1060 1055
f 1051 1053 1056
f 1051 1056 1052
o convex_14
v 0.427479 0.28553 -0.756017
v 0.43108 0.281903 -0.756017
v 0.461919 0.241427 -0.756017
v 0.464053 0.245688 -0.750688
v 0.518642 0.263901 -0.668803
v 0.464035 0.336656 -0.659703
v 0.445863 0.336656 -0.677896
v 0.409458 0.373058 -0.668803
v 0.391251 0.318462 -0.750688
v 0.354704 0.340097 -0.756017
v 0.386983 0.31634 -0.756017
v 0.319997 0.35941 -0.756017
v 0.345794 0.345446 -0.756017
v 0.391286 0.391247 -0.659703
v 0.336697 0.354858 -0.750688
v 0.354881 0.40946 -0.659703
v 0.400387 0.386718 -0.652877
v 0.412482 0.376102 -0.661221
v 0.424607 0.370014 -0.649086
v 0.391286 0.391247 -0.64605
v 0.354881 0.40946 -0.64605
v 0.397363 0.379121 -0.639986
v 0.382184 0.382165 -0.63695
v 0.34578 0.400354 -0.63695
v 0.339732 0.412479 -0.643021
v 0.263899 0.445863 -0.64605
v 0.291202 0.436756 -0.65515
v 0.34578 0.414014 -0.65743
v 0.303327 0.430693 -0.661221
v 0.254379 0.450515 -0.657379
v 0.254379 0.447743 -0.644151
v 0.254379 0.437548 -0.637353
v 0.254379 0.436756 -0.63695
v 0.230095 0.40841 -0.711861
v 0.230095 0.386322 -0.756017
v 0.230095 0.343869 -0.711861
v 0.254379 0.418567 -0.63695
v 0.273 0.400354 -0.63695
v 0.263899 0.391247 -0.641504
v 0.254379 0.400502 -0.643762
v 0.254379 0.40023 -0.643894
v 0.254379 0.382561 -0.654952
v 0.488854 0.197703 -0.651432
v 0.491339 0.200203 -0.64833
v 0.493824 0.197703 -0.648946
v 0.467897 0.197703 -0.668114
v 0.254379 0.382016 -0.655421
v 0.230095 0.337975 -0.720129
v 0.230095 0.335364 -0.72405
v 0.230095 0.327566 -0.756017
v 0.230095 0.332118 -0.732158
v 0.435354 0.198792 -0.711861
v 0.439246 0.197703 -0.708502
v 0.43748 0.197703 -0.711861
v 0.397174 0.223147 -0.756017
v 0.230095 0.327566 -0.752624
v 0.47363 0.223147 -0.756017
v 0.512834 0.197703 -0.711861
v 0.466251 0.197703 -0.670182
v 0.560226 0.197703 -0.657115
v 0.55834 0.197703 -0.660525
v 0.559598 0.200203 -0.65743
v 0.555047 0.209285 -0.64605
v 0.536845 0.245687 -0.64605
v 0.527743 0.236605 -0.63695
v 0.52472 0.25175 -0.639986
v 0.515618 0.279046 -0.649086
v 0.532294 0.254794 -0.652877
v 0.536845 0.245687 -0.659703
v 0.555047 0.209285 -0.659703
v 0.470776 0.227898 -0.756017
v 0.521666 0.26692 -0.661221
v 0.464035 0.336656 -0.64605
v 0.454964 0.327574 -0.63695
v 0.527743 0.197703 -0.63695
v 0.545946 0.197703 -0.63695
v 0.545946 0.200203 -0.63695
v 0.550916 0.197703 -0.639436
v 0.557352 0.197703 -0.64374
v 0.546784 0.197703 -0.674178
v 0.254798 0.384019 -0.756017
v 0.291202 0.42463 -0.679406
v 0.300304 0.427649 -0.668803
v 0.236604 0.386322 -0.756017
f 1062 1063 1061
f 1062 1064 1063
f 1062 1065 1064
f 1062 1066 1065
f 1062 1061 1066
f 1067 1066 1061
f 1067 1068 1066
f 1067 1061 1068
f 1069 1068 1061
f 1069 1070 1068
f 1071 1070 1069
f 1071 1061 1070
f 1071 1069 1061
f 1070 1061 1072
f 1073 1070 1072
f 1073 1074 1070
f 1073 1075 1074
f 1073 1072 1075
f 1075 1072 1076
f 1075 1076 1074
f 1077 1074 1076
f 1077 1078 1074
f 1077 1079 1078
f 1077 1080 1079
f 1081 1080 1077
f 1081 1082 1080
f 1081 1083 1082
f 1081 1084 1083
f 1081 1085 1084
f 1081 1086 1085
f 1081 1087 1086
f 1081 1088 1087
f 1081 1077 1088
f 1088 1077 1076
f 1088 1076 1089
f 1088 1089 1087
f 1087 1089 1090
f 1087 1090 1086
f 1091 1086 1090
f 1091 1085 1086
f 1092 1085 1091
f 1092 1084 1085
f 1092 1093 1084
f 1092 1094 1093
f 1092 1091 1094
f 1091 1090 1094
f 1094 1090 1095
f 1094 1095 1096
f 1094 1096 1093
f 1097 1093 1096
f 1097 1098 1093
f 1097 1099 1098
f 1097 1100 1099
f 1097 1096 1100
f 1096 1101 1100
f 1102 1101 1096
f 1102 1099 1101
f 1103 1099 1102
f 1103 1104 1099
f 1103 1105 1104
f 1103 1106 1105
f 1103 1096 1106
f 1103 1107 1096
f 1103 1102 1107
f 1102 1096 1107
f 1108 1106 1096
f 1108 1109 1106
f 1108 1096 1109
f 1109 1096 1110
f 1111 1109 1110
f 1112 1109 1111
f 1112 1113 1109
f 1112 1114 1113
f 1112 1115 1114
f 1112 1110 1115
f 1112 1116 1110
f 1112 1111 1116
f 1116 1111 1110
f 1115 1110 1061
f 1117 1115 1061
f 1118 1115 1117
f 1114 1115 1118
f 1114 1118 1106
f 1113 1114 1106
f 1119 1113 1106
f 1119 1109 1113
f 1119 1106 1109
f 1118 1120 1106
f 1121 1120 1118
f 1122 1120 1121
f 1122 1123 1120
f 1124 1123 1122
f 1124 1125 1123
f 1124 1126 1125
f 1124 1127 1126
f 1124 1128 1127
f 1124 1122 1128
f 1122 1129 1128
f 1122 1130 1129
f 1122 1121 1130
f 1130 1121 1117
f 1130 1117 1129
f 1131 1129 1117
f 1131 1065 1129
f 1131 1064 1065
f 1131 1063 1064
f 1131 1117 1063
f 1063 1117 1061
f 1132 1129 1065
f 1132 1128 1129
f 1132 1127 1128
f 1132 1066 1127
f 1132 1065 1066
f 1133 1127 1066
f 1133 1126 1127
f 1133 1134 1126
f 1133 1082 1134
f 1133 1080 1082
f 1133 1079 1080
f 1133 1066 1079
f 1078 1079 1066
f 1078 1066 1068
f 1078 1068 1074
f 1070 1074 1068
f 1082 1083 1134
f 1134 1083 1135
f 1125 1134 1135
f 1125 1126 1134
f 1136 1125 1135
f 1137 1125 1136
f 1137 1123 1125
f 1137 1138 1123
f 1137 1136 1138
f 1136 1135 1138
f 1138 1135 1120
f 1139 1138 1120
f 1139 1123 1138
f 1139 1120 1123
f 1135 1106 1120
f 1105 1106 1135
f 1105 1135 1104
f 1104 1135 1099
f 1098 1099 1135
f 1098 1135 1093
f 1135 1083 1093
f 1084 1093 1083
f 1140 1117 1121
f 1140 1118 1117
f 1140 1121 1118
f 1141 1061 1110
f 1072 1061 1141
f 1072 1141 1142
f 1076 1072 1142
f 1143 1076 1142
f 1143 1089 1076
f 1143 1090 1089
f 1143 1142 1090
f 1142 1141 1090
f 1144 1090 1141
f 1144 1095 1090
f 1144 1141 1095
f 1095 1141 1110
f 1096 1095 1110
f 1101 1099 1100
o convex_15
v 0.236572 0.454964 -0.65515
v 0.0546055 0.442823 -0.679406
v 0.0546055 0.454964 -0.65515
v 0.0455152 0.450408 -0.66425
v 0.0273078 0.450408 -0.64605
v -0.00908018 0.432209 -0.66425
v 0.00833064 0.377036 -0.756017
v 0.0364101 0.385291 -0.756017
v -0.0184592 0.298911 -0.756017
v -0.00831266 0.368711 -0.756017
v -0.0181916 0.37079 -0.746141
v -0.0184592 0.363255 -0.755991
v -0.0187587 0.387126 -0.711861
v -0.0187587 0.418843 -0.672792
v -0.0184592 0.37043 -0.746426
v -0.0187587 0.429511 -0.655714
v -0.0187587 0.430076 -0.654592
v -0.0187587 0.430695 -0.643021
v 0.0303557 0.448894 -0.643021
v 0.24871 0.448894 -0.643021
v 0.254379 0.447765 -0.644151
v 0.254379 0.437564 -0.637353
v 0.254379 0.436752 -0.63695
v 0.0363981 0.436752 -0.63695
v -0.0181972 0.418554 -0.63695
v 0.0182175 0.400355 -0.63695
v -0.0187587 0.399805 -0.63695
v -0.0187587 0.379968 -0.641364
v -0.0187587 0.419682 -0.637515
v -0.0187587 0.418003 -0.63695
v -0.0187587 0.379596 -0.641548
v 0.254379 0.400231 -0.643894
v 0.254379 0.418554 -0.63695
v 0.254379 0.382047 -0.655421
v 0.254379 0.382584 -0.654952
v -0.0187587 0.351473 -0.661404
v -0.0187587 0.365996 -0.650559
v -0.0187587 0.314333 -0.711861
v -0.0187587 0.326736 -0.692099
v -0.0187587 0.338973 -0.673166
v 0.254379 0.363848 -0.673621
v 0.254379 0.350537 -0.689166
v 0.254379 0.339744 -0.703861
v 0.254379 0.335725 -0.711861
v -0.0184592 0.302626 -0.727659
v -0.0184592 0.302348 -0.728229
v 0.230095 0.327577 -0.752624
v 0.230095 0.327577 -0.756017
v 0.145565 0.400361 -0.756017
v 0.230095 0.386324 -0.756017
v 0.254379 0.403232 -0.711861
v 0.254379 0.450201 -0.657929
v 0.254379 0.450504 -0.657379
v 0.236572 0.442823 -0.679406
v 0.173206 0.398166 -0.756017
v 0.153911 0.400361 -0.756017
v 0.0993335 0.395229 -0.756017
v 0.254379 0.43689 -0.673481
f 1146 1147 1145
f 1148 1147 1146
f 1148 1149 1147
f 1148 1150 1149
f 1148 1151 1150
f 1148 1146 1151
f 1151 1146 1152
f 1151 1152 1153
f 1154 1151 1153
f 1154 1155 1151
f 1154 1156 1155
f 1154 1153 1156
f 1157 1156 1153
f 1158 1156 1157
f 1159 1156 1158
f 1159 1155 1156
f 1159 1150 1155
f 1159 1158 1150
f 1160 1150 1158
f 1160 1161 1150
f 1160 1158 1161
f 1161 1158 1162
f 1161 1162 1149
f 1161 1149 1150
f 1149 1162 1163
f 1149 1163 1147
f 1145 1147 1163
f 1164 1145 1163
f 1164 1165 1145
f 1166 1165 1164
f 1166 1167 1165
f 1166 1168 1167
f 1166 1163 1168
f 1166 1164 1163
f 1168 1163 1169
f 1168 1169 1167
f 1169 1170 1167
f 1171 1170 1169
f 1171 1172 1170
f 1171 1173 1172
f 1174 1173 1171
f 1174 1169 1173
f 1174 1171 1169
f 1173 1169 1163
f 1173 1163 1162
f 1173 1162 1175
f 1172 1173 1175
f 1176 1172 1175
f 1176 1177 1172
f 1176 1178 1177
f 1179 1178 1176
f 1179 1180 1178
f 1179 1181 1180
f 1179 1175 1181
f 1179 1176 1175
f 1181 1175 1180
f 1175 1162 1180
f 1157 1180 1162
f 1182 1180 1157
f 1183 1180 1182
f 1184 1180 1183
f 1184 1178 1180
f 1185 1178 1184
f 1185 1186 1178
f 1185 1184 1186
f 1187 1186 1184
f 1187 1188 1186
f 1189 1188 1187
f 1189 1190 1188
f 1189 1182 1190
f 1189 1183 1182
f 1189 1184 1183
f 1189 1187 1184
f 1190 1182 1153
f 1191 1190 1153
f 1191 1188 1190
f 1191 1192 1188
f 1191 1153 1192
f 1192 1153 1193
f 1194 1192 1193
f 1195 1192 1194
f 1188 1192 1195
f 1188 1195 1178
f 1186 1188 1178
f 1195 1165 1178
f 1196 1165 1195
f 1197 1165 1196
f 1197 1145 1165
f 1197 1198 1145
f 1197 1196 1198
f 1198 1196 1194
f 1198 1194 1199
f 1198 1199 1200
f 1198 1200 1193
f 1198 1193 1146
f 1198 1146 1145
f 1201 1146 1193
f 1201 1152 1146
f 1201 1193 1152
f 1152 1193 1153
f 1200 1199 1193
f 1199 1194 1193
f 1202 1194 1196
f 1202 1195 1194
f 1202 1196 1195
f 1177 1178 1165
f 1167 1177 1165
f 1167 1170 1177
f 1172 1177 1170
f 1182 1157 1153
f 1158 1157 1162
f 1155 1150 1151
o convex_16
v 0.397199 0.223147 -0.756017
v 0.407089 0.223147 -0.723181
v 0.413812 0.223147 -0.711861
v 0.409054 0.223147 -0.719274
v 0.521689 -0.0369455 -0.667285
v 0.515241 -0.0369455 -0.679773
v 0.477339 -0.0368776 -0.756017
v 0.536417 -0.0368776 -0.756017
v 0.588406 -0.0369455 -0.679406
v 0.600553 -0.0369455 -0.65515
v 0.600553 0.0727992 -0.65515
v 0.588406 0.0727992 -0.679406
v 0.595988 0.0909905 -0.65743
v 0.594472 0.109182 -0.649086
v 0.582341 0.145587 -0.65515
v 0.576276 0.157715 -0.661221
v 0.560219 0.197703 -0.657115
v 0.558352 0.197703 -0.660525
v 0.573243 0.154683 -0.668803
v 0.523198 0.119784 -0.756017
v 0.504994 0.17438 -0.756017
v 0.529596 0.0909967 -0.756017
v 0.541012 0.018202 -0.756017
v 0.541012 -0.0249658 -0.756017
v 0.540817 -0.028071 -0.756017
v 0.491045 0.200163 -0.756017
v 0.500447 0.191077 -0.750688
v 0.485686 0.209097 -0.756017
v 0.502623 0.223147 -0.713214
v 0.48148 0.214213 -0.756017
v 0.473637 0.223147 -0.756017
v 0.502623 0.223147 -0.711861
v 0.557362 0.197703 -0.64374
v 0.591439 0.118277 -0.64605
v 0.594472 0.103118 -0.643021
v 0.594472 -0.0369455 -0.643021
v 0.583443 -0.0369455 -0.6375
v 0.582341 0.109182 -0.63695
v 0.550914 0.197703 -0.639436
v 0.54595 0.197703 -0.63695
v 0.55808 0.194097 -0.643021
v 0.527754 0.197703 -0.63695
v 0.564146 -0.0369455 -0.63695
v 0.582341 -0.0369455 -0.63695
v 0.539885 -0.0369455 -0.649086
v 0.467932 0.197703 -0.668114
v 0.488889 0.197703 -0.651432
v 0.493853 0.197703 -0.648946
v 0.518672 0.154683 -0.641504
v 0.527754 0.163779 -0.63695
f 1204 1205 1203
f 1206 1205 1204
f 1206 1207 1205
f 1206 1208 1207
f 1206 1204 1208
f 1208 1204 1209
f 1208 1209 1210
f 1211 1208 1210
f 1211 1212 1208
f 1211 1213 1212
f 1214 1213 1211
f 1215 1213 1214
f 1215 1216 1213
f 1215 1217 1216
f 1218 1217 1215
f 1218 1219 1217
f 1218 1220 1219
f 1218 1221 1220
f 1218 1215 1221
f 1215 1214 1221
f 1222 1221 1214
f 1222 1223 1221
f 1222 1224 1223
f 1222 1214 1224
f 1214 1225 1224
f 1214 1211 1225
f 1211 1226 1225
f 1227 1226 1211
f 1227 1210 1226
f 1227 1211 1210
f 1210 1209 1226
f 1209 1203 1226
f 1204 1203 1209
f 1228 1226 1203
f 1224 1226 1228
f 1225 1226 1224
f 1223 1224 1228
f 1223 1228 1229
f 1223 1229 1220
f 1223 1220 1221
f 1230 1220 1229
f 1230 1231 1220
f 1232 1231 1230
f 1232 1233 1231
f 1232 1230 1233
f 1230 1228 1233
f 1230 1229 1228
f 1233 1228 1203
f 1233 1203 1231
f 1231 1203 1205
f 1234 1231 1205
f 1219 1231 1234
f 1219 1220 1231
f 1219 1234 1235
f 1219 1235 1217
f 1217 1235 1236
f 1216 1217 1236
f 1216 1236 1237
f 1216 1237 1213
f 1237 1212 1213
f 1238 1212 1237
f 1238 1239 1212
f 1238 1237 1239
f 1237 1240 1239
f 1241 1240 1237
f 1241 1242 1240
f 1241 1234 1242
f 1241 1235 1234
f 1243 1235 1241
f 1243 1237 1235
f 1243 1241 1237
f 1237 1236 1235
f 1242 1234 1244
f 1242 1244 1240
f 1240 1244 1245
f 1246 1240 1245
f 1246 1239 1240
f 1246 1245 1239
f 1239 1245 1212
f 1207 1212 1245
f 1208 1212 1207
f 1247 1207 1245
f 1247 1205 1207
f 1248 1205 1247
f 1248 1249 1205
f 1248 1247 1249
f 1247 1250 1249
f 1247 1245 1250
f 1250 1245 1251
f 1250 1251 1252
f 1250 1252 1244
f 1250 1244 1205
f 1250 1205 1249
f 1234 1205 1244
f 1244 1252 1245
f 1251 1245 1252
o convex_17
v -0.170344 -0.127619 -0.756017
v -0.233113 -0.127619 -0.756017
v -0.177282 -0.127619 -0.72328
v 0.158196 -0.345746 -0.727944
v 0.158196 -0.344809 -0.756017
v -0.227073 -0.15432 -0.756017
v -0.227481 -0.154689 -0.755239
v -0.258335 -0.127619 -0.713339
v -0.186383 -0.127619 -0.711861
v 0.158196 -0.353804 -0.711861
v 0.158196 -0.351336 -0.716762
v 0.158196 -0.399405 -0.756017
v -0.190668 -0.227105 -0.756017
v -0.191076 -0.227502 -0.755239
v -0.22442 -0.206277 -0.715811
v -0.245643 -0.154689 -0.718846
v -0.258254 -0.130882 -0.711861
v -0.258743 -0.127619 -0.711861
v 0.158196 -0.417509 -0.711861
v 0.153911 -0.400341 -0.756017
v -0.172711 -0.24555 -0.756017
v -0.172874 -0.28207 -0.718846
v -0.209279 -0.227502 -0.718846
v -0.225236 -0.207043 -0.711861
v 0.128444 -0.417509 -0.711861
v 0.145585 -0.400341 -0.756017
v -0.136469 -0.28207 -0.756017
v -0.172874 -0.28207 -0.711861
v -0.216258 -0.220522 -0.711861
v -0.136469 -0.318448 -0.718846
v -0.165895 -0.28905 -0.711861
v 0.034249 -0.4084 -0.711861
v 0.0302902 -0.406414 -0.715811
v 0.129342 -0.398383 -0.756017
v -0.0999014 -0.318306 -0.756017
v -0.0818623 -0.354854 -0.718846
v -0.0606399 -0.370036 -0.715811
v -0.0685575 -0.366063 -0.711861
v -0.0748834 -0.361835 -0.711861
v -0.136469 -0.318448 -0.711861
v -0.147693 -0.307239 -0.711861
v 0.0295148 -0.407208 -0.711861
v 0.0346979 -0.383826 -0.756017
v 0.044697 -0.386323 -0.756017
v -0.0091346 -0.373043 -0.755239
v 0.0201687 -0.380194 -0.756017
v -0.0780668 -0.332863 -0.756017
v -0.0454985 -0.354854 -0.755239
v -0.0614153 -0.370802 -0.711861
v -0.00872647 -0.372675 -0.756017
v -0.0451311 -0.354457 -0.756017
f 1253 1254 1260
f 1253 1260 1270
f 1253 1270 1261
f 1253 1261 1255
f 1253 1255 1256
f 1253 1256 1257
f 1253 1257 1264
f 1253 1264 1272
f 1253 1272 1278
f 1253 1278 1286
f 1253 1286 1296
f 1253 1296 1295
f 1253 1295 1298
f 1253 1298 1302
f 1253 1302 1303
f 1253 1303 1299
f 1253 1299 1287
f 1253 1287 1279
f 1253 1279 1273
f 1253 1273 1265
f 1253 1265 1258
f 1253 1258 1254
f 1254 1258 1259
f 1254 1259 1260
f 1255 1261 1262
f 1255 1262 1263
f 1255 1263 1256
f 1256 1263 1262
f 1256 1262 1271
f 1256 1271 1264
f 1256 1264 1257
f 1258 1265 1266
f 1258 1266 1259
f 1259 1267 1268
f 1259 1268 1269
f 1259 1269 1260
f 1259 1266 1267
f 1260 1269 1270
f 1261 1270 1269
f 1261 1269 1276
f 1261 1276 1281
f 1261 1281 1280
f 1261 1280 1283
f 1261 1283 1293
f 1261 1293 1292
f 1261 1292 1291
f 1261 1291 1290
f 1261 1290 1301
f 1261 1301 1294
f 1261 1294 1284
f 1261 1284 1277
f 1261 1277 1271
f 1261 1271 1262
f 1264 1271 1272
f 1265 1273 1266
f 1266 1273 1274
f 1266 1274 1275
f 1266 1275 1267
f 1267 1275 1276
f 1267 1276 1269
f 1267 1269 1268
f 1271 1277 1278
f 1271 1278 1272
f 1273 1279 1274
f 1274 1280 1281
f 1274 1281 1275
f 1274 1279 1282
f 1274 1282 1293
f 1274 1293 1283
f 1274 1283 1280
f 1275 1281 1276
f 1277 1284 1285
f 1277 1285 1278
f 1278 1285 1286
f 1279 1287 1282
f 1282 1287 1288
f 1282 1288 1289
f 1282 1289 1290
f 1282 1290 1291
f 1282 1291 1292
f 1282 1292 1293
f 1284 1294 1285
f 1285 1295 1296
f 1285 1296 1286
f 1285 1294 1289
f 1285 1289 1297
f 1285 1297 1298
f 1285 1298 1295
f 1287 1299 1288
f 1288 1299 1300
f 1288 1300 1289
f 1289 1300 1297
f 1289 1294 1301
f 1289 1301 1290
f 1297 1300 1302
f 1297 1302 1298
f 1299 1303 1300
f 1300 1303 1302
o convex_18
v -0.232925 -0.127508 -0.651486
v -0.212317 -0.12132 -0.667287
v -0.25903 -0.0369455 -0.636743
v -0.230519 -0.0485318 -0.667287
v -0.196522 -0.127508 -0.687875
v -0.191096 -0.118289 -0.70064
v -0.212317 -0.0369455 -0.703677
v -0.200192 -0.0368776 -0.727944
v -0.177324 -0.127619 -0.72328
v -0.212317 -0.127508 -0.667287
v -0.254891 -0.127508 -0.641442
v -0.273057 -0.127508 -0.636993
v -0.272973 -0.127384 -0.636956
v -0.305285 -0.0382398 -0.636743
v -0.291174 -0.109184 -0.636956
v -0.300269 -0.118289 -0.6415
v -0.303301 -0.109184 -0.643022
v -0.309364 -0.109184 -0.655155
v -0.305285 -0.0369455 -0.636743
v -0.252189 -0.0368776 -0.756017
v -0.196581 -0.0368776 -0.756017
v -0.191863 -0.0439479 -0.756017
v -0.190706 -0.046275 -0.756017
v -0.191092 -0.0455023 -0.755239
v -0.17036 -0.127619 -0.756017
v -0.233129 -0.127619 -0.756017
v -0.245285 -0.0815109 -0.756017
v -0.297237 -0.115257 -0.679412
v -0.240735 -0.100865 -0.756017
v -0.234603 -0.125407 -0.756017
v -0.291054 -0.127508 -0.673471
v -0.298428 -0.127508 -0.662405
v -0.300209 -0.127508 -0.655272
v -0.309364 -0.0369455 -0.655155
v -0.297237 -0.0369455 -0.679412
v -0.303301 -0.12132 -0.649089
v -0.291126 -0.127508 -0.643772
v -0.248708 -0.0369455 -0.649089
v -0.23284 -0.0369455 -0.669603
f 1305 1306 1304
f 1305 1307 1306
f 1308 1307 1305
f 1309 1307 1308
f 1309 1310 1307
f 1309 1311 1310
f 1309 1312 1311
f 1309 1308 1312
f 1308 1313 1312
f 1308 1305 1313
f 1305 1304 1313
f 1312 1313 1304
f 1314 1312 1304
f 1314 1315 1312
f 1314 1316 1315
f 1314 1306 1316
f 1314 1304 1306
f 1317 1316 1306
f 1317 1318 1316
f 1317 1319 1318
f 1317 1320 1319
f 1317 1321 1320
f 1317 1322 1321
f 1317 1306 1322
f 1311 1322 1306
f 1311 1323 1322
f 1311 1324 1323
f 1325 1324 1311
f 1325 1326 1324
f 1325 1327 1326
f 1325 1311 1327
f 1311 1312 1327
f 1326 1327 1312
f 1326 1312 1328
f 1326 1328 1324
f 1324 1328 1323
f 1329 1323 1328
f 1330 1323 1329
f 1330 1331 1323
f 1332 1331 1330
f 1332 1333 1331
f 1332 1330 1333
f 1333 1330 1329
f 1333 1329 1331
f 1334 1331 1329
f 1334 1335 1331
f 1334 1329 1335
f 1335 1329 1336
f 1321 1335 1336
f 1321 1331 1335
f 1321 1337 1331
f 1321 1322 1337
f 1322 1323 1337
f 1338 1337 1323
f 1338 1331 1337
f 1338 1323 1331
f 1339 1321 1336
f 1339 1319 1321
f 1340 1319 1339
f 1340 1315 1319
f 1340 1312 1315
f 1340 1329 1312
f 1340 1336 1329
f 1340 1339 1336
f 1312 1329 1328
f 1319 1315 1318
f 1318 1315 1316
f 1320 1321 1319
f 1311 1306 1341
f 1311 1341 1342
f 1311 1342 1310
f 1342 1307 1310
f 1341 1307 1342
f 1341 1306 1307
