# https://github.com/mikedh/trimesh
v 0.60002700 0.23040900 -0.37166100
v 0.60565400 0.21287700 -0.31857800
v 0.60602100 0.21210700 -0.31857800
v 0.60222900 0.22442300 -0.37221700
v 0.60002700 0.23040900 -0.37380900
v 0.59684600 0.23040900 -0.31857800
v 0.59868100 0.22690300 -0.31857800
v 0.61348500 0.12119400 -0.31857800
v 0.60602100 0.21210700 -0.36366000
v 0.60100500 0.22724500 -0.40407400
v 0.59990400 0.23040900 -0.40459200
v -0.63627900 0.23040900 -0.31857800
v 0.60602100 -0.01513350 -0.33335800
v 0.60222900 0.21967600 -0.40155500
v 0.60589900 -0.03065630 -0.31857800
v 0.59085100 0.23040900 -0.43945000
v -0.62123100 0.23040900 -0.42429900
v -0.63640200 0.19696900 -0.36366000
v -0.63640200 0.22690300 -0.31857800
v 0.60222900 -0.00756449 -0.35610300
v 0.56063100 -0.12118500 -0.56061800
v 0.56063100 -0.06059010 -0.56061800
v 0.57568000 -0.10604700 -0.31857800
v 0.57568000 -0.10604700 -0.36366000
v 0.54546000 -0.07572810 -0.60607000
v 0.55341300 0.23040900 -0.54235600
v -0.61780500 0.23040900 -0.43804200
v -0.62123100 0.21210700 -0.43945000
v -0.63640200 0.10605600 -0.39399800
v -0.63640200 0.07535220 -0.31857800
v 0.55683800 -0.12875400 -0.56821200
v 0.54546000 -0.10604700 -0.60607000
v 0.57555700 -0.10630300 -0.31857800
v 0.56564700 -0.12623100 -0.36366000
v 0.57188700 -0.11361600 -0.37125300
v 0.54166800 -0.11361600 -0.61366400
v 0.53530600 -0.07572810 -0.62629600
v 0.55096600 0.23040900 -0.54650500
v -0.60263400 0.23040900 -0.48349400
v -0.59847400 0.22348200 -0.50760900
v -0.60104400 0.21715300 -0.51012800
v -0.60606000 0.21210700 -0.50005300
v -0.62123100 0.10605600 -0.46975100
v -0.62123100 -0.04545220 -0.46975100
v -0.63640200 0.07573710 -0.37884700
v -0.63640200 0.06059910 -0.33335800
v -0.62123100 -0.04545220 -0.33335800
v -0.62123100 -0.03065630 -0.31857800
v 0.55549300 -0.13131900 -0.56061800
v 0.54546000 -0.13636500 -0.56061800
v 0.55047600 -0.13131900 -0.57073100
v 0.53212500 -0.11742200 -0.62122100
v 0.57054100 -0.11639500 -0.31857800
v 0.56564700 -0.12623100 -0.31857800
v 0.55047600 -0.14141100 -0.39399800
v 0.53530600 -0.10604700 -0.62629600
v 0.50496400 -0.07572810 -0.65659700
v 0.47474400 0.22724500 -0.65659700
v 0.47572300 0.23040900 -0.65293000
v -0.59651700 0.23040900 -0.50168300
v -0.59015500 0.23040900 -0.51438800
v -0.56568600 0.23040900 -0.55050600
v -0.59590500 0.20706100 -0.52020400
v -0.55051500 -0.09595480 -0.65659700
v -0.56568600 -0.06563610 -0.62629600
v -0.57070200 -0.05554410 -0.61618300
v -0.59847400 -0.05678430 -0.56821200
v -0.60226700 -0.05870860 -0.56061800
v -0.60349100 -0.07320510 -0.55809900
v -0.60606000 -0.06059010 -0.54546800
v -0.62123100 -0.06059010 -0.43945000
v -0.60606000 -0.07572810 -0.54546800
v -0.63640200 0.06059910 -0.34850900
v -0.61719300 -0.04733370 -0.31857800
v -0.61792800 -0.04545220 -0.31857800
v -0.60606000 -0.07572810 -0.31857800
v 0.49493100 -0.19191400 -0.36366000
v 0.45663700 -0.20645300 -0.43374500
v 0.45455700 -0.20645300 -0.43945000
v 0.44917400 -0.20645300 -0.45145200
v 0.44171100 -0.20645300 -0.46123100
v 0.40048000 -0.20645300 -0.50949900
v 0.51707600 -0.11742200 -0.63637200
v 0.55047600 -0.14141100 -0.31857800
v 0.52013500 -0.10604700 -0.64144700
v 0.50496400 -0.09090880 -0.65659700
v 0.49493100 -0.07572810 -0.66163500
v 0.49236200 -0.06815910 -0.66289500
v 0.45957300 0.12119400 -0.67174800
v 0.44697200 0.12876300 -0.67804500
v 0.46361100 0.23040900 -0.66215400
v 0.47364300 0.23040900 -0.65556000
v -0.46829800 0.23040900 -0.66537700
v -0.55051500 0.19192300 -0.58080700
v -0.44248300 0.23040900 -0.68497200
v -0.54036000 -0.08586280 -0.66163500
v -0.53032800 -0.09090880 -0.66667300
v -0.52017300 -0.09595480 -0.67174800
v -0.52017300 -0.11109300 -0.67174800
v -0.50757100 -0.12875400 -0.67426700
v -0.53779100 -0.11361600 -0.65911600
v -0.55296200 -0.11361600 -0.64396600
v -0.56568600 -0.11109300 -0.62629600
v -0.59345800 -0.07825110 -0.57828800
v -0.59468200 -0.06247170 -0.57576900
v -0.59847400 -0.08329710 -0.56821200
v -0.60349100 -0.08838580 -0.54294900
v -0.59847400 -0.09847780 -0.55306200
v -0.61107600 -0.08077410 -0.44448800
v -0.61609200 -0.07068210 -0.43437500
v -0.60104400 -0.08586280 -0.31857800
v 0.49493100 -0.19191400 -0.31857800
v 0.47878200 -0.20645300 -0.31857800
v 0.39925700 -0.20645300 -0.51042500
v 0.50496400 -0.11613900 -0.64648500
v 0.51132600 -0.11361600 -0.64396600
v 0.39766600 -0.20645300 -0.51138800
v 0.49811200 -0.10604700 -0.65533800
v 0.49615500 -0.09847780 -0.65911600
v 0.48991500 -0.10100100 -0.66163500
v 0.49493100 -0.09090880 -0.66163500
v 0.47474400 -0.07572810 -0.67174800
v 0.46214300 -0.06815910 -0.67804500
v 0.43938600 0.12119400 -0.68182400
v 0.42421500 0.23040900 -0.68182400
v 0.43645000 0.23040900 -0.67574900
v -0.43086100 0.23040900 -0.68852900
v -0.49998600 -0.09090880 -0.68182400
v -0.51001800 -0.08586280 -0.67678600
v -0.49998600 -0.10604700 -0.68182400
v -0.48481500 -0.13636500 -0.66667300
v -0.51515700 -0.13636500 -0.65152200
v -0.52274200 -0.12875400 -0.65911600
v -0.43930200 -0.12118500 -0.69701100
v -0.43428600 -0.13131900 -0.69193700
v -0.43930200 -0.13636500 -0.68182400
v -0.57070200 -0.11613900 -0.60103200
v -0.57571800 -0.10604700 -0.60607000
v -0.58073400 -0.11109300 -0.58080700
v -0.55051500 -0.18686800 -0.39903600
v -0.55051500 -0.18686800 -0.35358400
v -0.55553100 -0.17677600 -0.34347100
v -0.54036000 -0.19191400 -0.31857800
v -0.48542700 -0.20645300 -0.31857800
v 0.45957300 -0.10100100 -0.67678600
v 0.38163900 -0.20645300 -0.52083400
v 0.37111700 -0.20645300 -0.52653900
v 0.36867000 -0.14645700 -0.63133400
v 0.35851600 -0.14141100 -0.64144700
v 0.38885700 -0.12623100 -0.65659700
v 0.46593500 -0.09847780 -0.67426700
v 0.47474400 -0.09090880 -0.67174800
v 0.45455700 -0.09090880 -0.68182400
v 0.45455700 -0.07572810 -0.68182400
v 0.13633500 0.09087500 -0.69701100
v 0.12116400 0.16665000 -0.69701100
v 0.10599400 0.21210700 -0.69701100
v 0.09082260 0.23040900 -0.69701100
v -0.42107300 0.23040900 -0.69097300
v -0.45202600 -0.10352400 -0.69445500
v -0.35830900 -0.20645300 -0.54017000
v -0.35892100 -0.20645300 -0.53994800
v -0.43930200 -0.20645300 -0.50464600
v -0.44945700 -0.20645300 -0.49879300
v -0.46083500 -0.20645300 -0.49119900
v -0.46719700 -0.20645300 -0.48112400
v -0.56054700 -0.12118500 -0.60607000
v -0.43930200 -0.10604700 -0.69701100
v -0.15142200 -0.12118500 -0.69701100
v -0.14640600 -0.13131900 -0.69193700
v -0.33836700 -0.15654900 -0.65659700
v -0.33335100 -0.16664100 -0.63637200
v -0.34839900 -0.20645300 -0.54261500
v -0.35733100 -0.20645300 -0.54043000
v -0.47625100 -0.20645300 -0.46404700
v -0.53032800 -0.19696000 -0.39399800
v -0.53069500 -0.19678900 -0.31857800
v -0.53032800 -0.19696000 -0.31857800
v -0.48542700 -0.20645300 -0.31883700
v 0.27776700 -0.14645700 -0.64648500
v 0.40402800 -0.11109300 -0.67174800
v 0.29293800 -0.11613900 -0.67678600
v 0.35411100 -0.20645300 -0.53031700
v 0.32315800 -0.16159500 -0.61618300
v 0.31312500 -0.15654900 -0.62629600
v 0.22222200 -0.15654900 -0.64144700
v -0.01512900 -0.09090880 -0.69701100
v 0.01509050 -0.07572810 -0.69701100
v 0.12116400 0.00000449 -0.69701100
v 0.13633500 0.04541840 -0.69701100
v -0.07569020 -0.10604700 -0.69701100
v -0.34534100 0.23040900 -0.69701100
v -0.37874100 0.19696900 -0.69701100
v -0.40908300 0.10605600 -0.69701100
v -0.27768300 -0.15654900 -0.65659700
v 0.06561940 -0.16159500 -0.64648500
v -0.31818000 -0.20645300 -0.54924600
v 0.06060320 -0.16664100 -0.63637200
v -0.47686300 -0.20645300 -0.46178700
v -0.48004400 -0.20645300 -0.44985900
v 0.34774900 -0.20645300 -0.53172500
v 0.23225500 -0.16159500 -0.63133400
v 0.33049800 -0.20645300 -0.53316900
v -0.30300900 -0.20645300 -0.54924600
v 0.29355000 -0.20645300 -0.53565100
v -0.07850420 -0.20645300 -0.54832000
f 95 128 129
f 103 132 137
f 103 133 132
f 103 106 104
f 103 138 106
f 103 108 138
f 103 137 108
f 102 133 103
f 100 136 131
f 100 135 136
f 100 102 101
f 100 130 134
f 100 133 102
f 100 132 133
f 100 131 132
f 98 130 99
f 98 128 130
f 96 128 97
f 96 129 128
f 106 138 108
f 95 129 96
f 100 134 135
f 99 130 100
f 115 117 146
f 108 139 140
f 123 153 154
f 123 152 153
f 95 127 128
f 122 152 123
f 120 152 121
f 120 151 152
f 120 145 151
f 118 145 120
f 118 120 119
f 115 150 145
f 108 137 139
f 115 149 150
f 115 147 148
f 115 146 147
f 115 118 116
f 115 145 118
f 111 142 143
f 110 142 111
f 109 140 141
f 109 142 110
f 109 141 142
f 108 140 109
f 115 148 149
f 90 126 91
f 78 147 146
f 90 124 125
f 78 205 203
f 78 206 205
f 78 204 206
f 78 197 204
f 78 173 197
f 78 174 173
f 78 161 174
f 78 162 161
f 78 163 162
f 78 164 163
f 78 165 164
f 78 166 165
f 78 175 166
f 78 199 175
f 78 200 199
f 78 179 200
f 78 144 179
f 78 113 144
f 77 113 78
f 124 154 155
f 77 112 113
f 78 203 201
f 78 201 183
f 78 183 147
f 78 146 117
f 90 154 124
f 90 123 154
f 88 123 90
f 87 123 88
f 87 122 123
f 87 152 122
f 87 121 152
f 86 120 121
f 86 119 120
f 86 118 119
f 90 125 126
f 85 118 86
f 83 117 115
f 83 114 117
f 83 116 85
f 83 115 116
f 82 114 83
f 78 80 79
f 78 81 80
f 78 82 81
f 78 114 82
f 78 117 114
f 85 116 118
f 124 155 125
f 145 182 170
f 125 156 157
f 160 194 168
f 159 192 193
f 159 194 160
f 159 193 194
f 153 191 187
f 153 169 191
f 153 155 154
f 153 190 155
f 153 189 190
f 153 188 189
f 153 187 188
f 151 153 152
f 149 180 150
f 149 186 180
f 149 185 186
f 148 185 149
f 148 184 185
f 147 184 148
f 147 183 184
f 145 169 153
f 145 170 169
f 170 182 186
f 170 186 196
f 170 196 195
f 171 195 196
f 76 110 111
f 198 206 204
f 198 205 206
f 198 203 205
f 196 203 198
f 196 201 203
f 196 202 201
f 186 202 196
f 184 186 185
f 184 202 186
f 145 181 182
f 184 201 202
f 181 186 182
f 176 200 179
f 176 199 200
f 176 178 177
f 175 199 176
f 172 204 197
f 172 198 204
f 172 197 173
f 171 198 172
f 171 196 198
f 183 201 184
f 145 186 181
f 145 180 186
f 145 150 180
f 134 157 156
f 134 158 157
f 134 192 158
f 134 193 192
f 134 194 193
f 134 168 194
f 134 160 168
f 132 167 137
f 132 140 167
f 132 166 140
f 134 156 155
f 132 165 166
f 132 163 164
f 131 163 132
f 131 162 163
f 131 161 162
f 131 136 161
f 130 160 134
f 128 160 130
f 127 160 128
f 127 159 160
f 125 157 158
f 132 164 165
f 125 155 156
f 134 155 190
f 134 189 188
f 145 153 151
f 144 176 179
f 144 178 176
f 141 143 142
f 141 177 143
f 140 176 177
f 140 175 176
f 140 166 175
f 137 140 139
f 137 167 140
f 134 190 189
f 136 174 161
f 136 172 173
f 136 171 172
f 135 171 136
f 135 195 171
f 135 170 195
f 134 170 135
f 134 169 170
f 134 191 169
f 134 187 191
f 134 188 187
f 136 173 174
f 72 108 107
f 140 177 141
f 71 110 76
f 16 22 25
f 15 24 21
f 15 23 24
f 14 22 16
f 14 21 22
f 14 20 21
f 13 15 21
f 13 20 14
f 12 18 19
f 12 17 18
f 10 16 11
f 10 14 16
f 9 14 10
f 8 15 13
f 8 14 9
f 8 13 14
f 72 106 108
f 4 11 5
f 4 10 11
f 4 9 10
f 3 9 4
f 16 25 26
f 17 27 28
f 17 28 18
f 18 29 45
f 27 41 42
f 27 40 41
f 27 39 40
f 26 37 38
f 25 37 26
f 25 36 37
f 25 32 36
f 24 34 35
f 24 53 34
f 24 33 53
f 3 8 9
f 23 33 24
f 21 24 35
f 21 25 22
f 21 32 25
f 21 36 32
f 21 31 36
f 18 28 29
f 18 30 19
f 18 46 30
f 18 73 46
f 18 45 73
f 21 35 31
f 2 8 3
f 2 15 8
f 2 23 15
f 1 60 39
f 1 61 60
f 1 62 61
f 1 93 62
f 1 95 93
f 1 127 95
f 1 159 127
f 1 192 159
f 1 158 192
f 1 125 158
f 1 39 27
f 1 126 125
f 1 92 91
f 1 59 92
f 1 38 59
f 1 26 38
f 1 16 26
f 1 11 16
f 1 5 11
f 1 4 5
f 1 3 4
f 1 2 3
f 1 91 126
f 27 42 28
f 1 27 17
f 1 12 6
f 2 33 23
f 2 53 33
f 2 54 53
f 2 84 54
f 2 112 84
f 2 113 112
f 2 144 113
f 2 178 144
f 2 177 178
f 2 143 177
f 1 17 12
f 2 111 143
f 2 74 76
f 2 75 74
f 2 48 75
f 2 30 48
f 2 19 30
f 2 12 19
f 2 6 12
f 2 7 6
f 1 7 2
f 1 6 7
f 2 76 111
f 28 43 29
f 13 21 20
f 29 44 45
f 63 94 64
f 62 94 63
f 62 93 94
f 58 92 59
f 58 91 92
f 58 90 91
f 58 89 90
f 57 89 58
f 57 90 89
f 57 88 90
f 64 94 93
f 57 87 88
f 57 86 121
f 56 83 85
f 55 112 77
f 55 84 112
f 52 83 56
f 51 83 52
f 51 82 83
f 51 81 82
f 50 81 51
f 50 80 81
f 57 121 87
f 50 79 80
f 64 93 95
f 64 96 97
f 71 109 110
f 71 108 109
f 71 107 108
f 71 72 107
f 69 72 70
f 69 106 72
f 68 106 69
f 68 104 106
f 67 104 68
f 67 105 104
f 64 95 96
f 66 105 67
f 64 105 65
f 64 104 105
f 64 103 104
f 64 102 103
f 28 42 43
f 64 100 101
f 64 99 100
f 64 98 99
f 64 128 98
f 64 97 128
f 65 105 66
f 49 79 50
f 64 101 102
f 49 77 78
f 39 60 40
f 38 58 59
f 37 58 38
f 37 57 58
f 37 86 57
f 37 85 86
f 37 56 85
f 36 56 37
f 36 52 56
f 34 55 49
f 40 60 61
f 34 84 55
f 34 53 54
f 31 35 34
f 31 52 36
f 31 51 52
f 31 50 51
f 31 49 50
f 30 47 48
f 30 46 47
f 29 43 44
f 49 78 79
f 34 54 84
f 40 61 41
f 31 34 49
f 41 62 63
f 49 55 77
f 41 61 62
f 47 76 74
f 47 71 76
f 47 75 48
f 47 74 75
f 46 71 47
f 45 71 73
f 44 72 71
f 44 71 45
f 43 72 44
f 46 73 71
f 43 69 70
f 43 68 69
f 42 68 43
f 41 68 42
f 41 67 68
f 41 66 67
f 41 65 66
f 41 63 64
f 43 70 72
f 41 64 65

