# https://github.com/mikedh/trimesh
v -0.51026900 -0.19694400 -0.31857800
v -0.48594000 -0.25288000 -0.31857800
v -0.49008500 -0.25288000 -0.30304500
v -0.49622400 -0.25288000 -0.17808700
v -0.51026900 -0.19694400 -0.24242100
v -0.51026900 0.42676800 -0.31857800
v -0.11824900 -0.25288000 -0.31857800
v -0.48878000 -0.25288000 -0.07106160
v -0.51026900 -0.14619600 -0.06589220
v -0.51026900 -0.16130800 -0.11632500
v -0.51026900 -0.19574200 -0.23690500
v -0.51026900 0.44857100 -0.25921600
v -0.49442100 0.47007300 -0.31857800
v -0.11824900 -0.25288000 -0.06589220
v -0.11824900 0.46969700 -0.31857800
v -0.48682300 -0.25288000 -0.06589220
v -0.51026900 0.42669300 -0.06589220
v -0.51026900 0.44909700 -0.25750900
v -0.51011500 0.44947300 -0.25758300
v -0.50002300 0.46969700 -0.27272100
v -0.48686100 0.48593600 -0.31857800
v -0.11824900 0.48480900 -0.06589220
v -0.27312300 0.49999600 -0.31857800
v -0.11824900 0.48480900 -0.25758300
v -0.49622400 0.47729000 -0.26515200
v -0.50505000 0.45962300 -0.25758300
v -0.51026900 0.44917200 -0.25676700
v -0.44948600 0.47977200 -0.06589220
v -0.48989300 0.48992100 -0.27272100
v -0.47726800 0.49623600 -0.31061300
v -0.48659300 0.48616200 -0.31857800
v -0.16671500 0.49999600 -0.06589220
v -0.40907900 0.49999600 -0.31857800
v -0.25762000 0.51518200 -0.18184700
v -0.25762000 0.49999600 -0.30304500
v -0.18183400 0.49999600 -0.21212100
v -0.16671500 0.49999600 -0.13638500
v -0.44292400 0.48307900 -0.06589220
v -0.46464300 0.49495800 -0.21212100
v -0.46970900 0.49999600 -0.27272100
v -0.46970900 0.49225200 -0.31857800
v -0.48632400 0.48631200 -0.31857800
v -0.46970900 0.49999600 -0.30304500
v -0.24246300 0.51518200 -0.13638500
v -0.26287800 0.51518200 -0.06589220
v -0.28789700 0.51518200 -0.18184700
v -0.24246300 0.51518200 -0.15154700
v -0.43939400 0.48480900 -0.06589220
v -0.45455100 0.49999600 -0.21212100
v -0.33333100 0.51518200 -0.09092330
v -0.30305400 0.51518200 -0.16668400
v -0.30835000 0.51518200 -0.06589220
v -0.32534900 0.51134800 -0.06589220
v -0.33521100 0.51134800 -0.07578590
v -0.31940100 0.51270100 -0.06589220
f 30 41 42
f 29 40 30
f 23 35 24
f 29 49 40
f 29 39 49
f 28 39 29
f 28 38 39
f 24 36 37
f 24 34 36
f 24 35 34
f 21 30 31
f 23 46 34
f 23 33 46
f 22 37 32
f 21 29 30
f 20 26 25
f 20 27 26
f 20 29 21
f 20 25 29
f 19 27 20
f 30 42 31
f 18 27 19
f 23 34 35
f 30 40 43
f 36 47 37
f 30 33 41
f 17 29 25
f 53 55 54
f 50 55 52
f 50 54 55
f 48 50 49
f 48 54 50
f 48 53 54
f 43 51 46
f 43 50 51
f 40 50 43
f 40 49 50
f 30 43 33
f 38 49 39
f 34 47 36
f 34 44 47
f 34 45 44
f 34 52 45
f 34 50 52
f 34 51 50
f 34 46 51
f 33 43 46
f 32 44 45
f 32 47 44
f 32 37 47
f 38 48 49
f 17 28 29
f 22 24 37
f 17 25 26
f 2 14 16
f 2 7 14
f 1 7 2
f 1 15 7
f 1 23 15
f 1 33 23
f 1 41 33
f 1 42 41
f 1 31 42
f 1 21 31
f 1 13 21
f 1 6 13
f 1 12 6
f 1 18 12
f 1 27 18
f 1 17 27
f 1 10 9
f 1 11 10
f 1 5 11
f 1 4 5
f 1 3 4
f 1 2 3
f 17 26 27
f 2 16 8
f 2 8 4
f 1 9 17
f 4 8 9
f 15 23 24
f 2 4 3
f 13 20 21
f 13 19 20
f 12 19 13
f 9 28 17
f 9 38 28
f 9 48 38
f 9 53 48
f 9 55 53
f 9 52 55
f 9 45 52
f 12 18 19
f 9 22 32
f 9 32 45
f 4 9 10
f 4 11 5
f 4 10 11
f 7 15 24
f 6 12 13
f 7 22 14
f 8 16 9
f 9 16 14
f 9 14 22
f 7 24 22

