# https://github.com/mikedh/trimesh
v -0.25755600 0.51518200 0.10607100
v -0.25755600 0.51518200 0.09729560
v -0.26629900 0.51518200 0.09729560
v -0.34846000 0.49999600 0.16297000
v -0.15144100 0.49999600 0.16297000
v 0.15145500 0.48480900 0.16297000
v 0.18175600 0.48480900 0.15151900
v 0.19696700 0.48480900 0.13636600
v 0.21205800 0.48480900 0.12122500
v 0.21205800 0.48480900 0.10607100
v 0.20331400 0.48480900 0.09729560
v -0.36355100 0.49999600 0.09729560
v -0.36355100 0.49999600 0.12122500
v -0.42415400 0.48480900 0.15151900
v -0.42559200 0.48195200 0.16297000
v 0.24235900 0.46969700 0.16297000
v 0.25529400 0.46736600 0.16297000
v 0.25757000 0.46969700 0.15151900
v 0.22475300 0.48232800 0.10354500
v 0.21924400 0.48180100 0.09729560
v -0.42415400 0.48480900 0.09729560
v -0.43002300 0.48195200 0.09729560
v -0.43433500 0.47977200 0.15151900
v -0.42810700 0.48074900 0.16297000
v 0.28415800 0.45639000 0.16297000
v 0.36356500 0.42421200 0.13636600
v 0.35602000 0.43180500 0.09849140
v 0.29266200 0.45932200 0.09729560
v 0.27146300 0.46841900 0.09729560
v 0.22678900 0.48022300 0.09729560
v -0.43433500 0.47977200 0.09729560
v -0.43553200 0.47729000 0.15909900
v -0.52020900 0.41413700 0.10607100
v -0.53530000 0.39895100 0.13636600
v -0.43074200 0.47917000 0.16297000
v 0.36919400 0.41473900 0.16297000
v 0.37123000 0.41661800 0.15909900
v 0.54034400 0.32827900 0.16297000
v 0.35841500 0.43060200 0.09729560
v 0.35482200 0.43240700 0.09729560
v -0.52020900 0.41413700 0.09729560
v -0.55554100 0.37368900 0.16297000
v -0.55051000 0.38383900 0.13636600
v -0.57817700 0.35151000 0.16297000
v -0.55817600 0.37128300 0.16297000
v 0.53770900 0.32963200 0.16297000
v 0.54178100 0.32557300 0.16297000
v 0.54034400 0.32827900 0.09729560
v -0.55051000 0.38383900 0.09729560
v -0.56560100 0.36865200 0.13636600
v -0.58584200 0.34339100 0.16297000
v 0.54226000 0.32452000 0.09729560
v 0.54729000 0.31444600 0.16297000
v 0.55052400 0.30805500 0.15657300
v 0.55555400 0.29798100 0.14647300
v 0.55184200 0.30542400 0.09729560
v 0.55052400 0.30805500 0.09729560
v -0.56560100 0.36865200 0.09729560
v -0.58584200 0.34339100 0.15151900
v -0.59087300 0.33331600 0.16297000
v 0.55830900 0.28557600 0.16297000
v 0.56058500 0.28783100 0.15151900
v 0.55555400 0.29798100 0.09729560
v -0.56859600 0.36278800 0.09729560
v -0.59087300 0.33331600 0.15151900
v -0.57578200 0.34850300 0.09729560
v -0.60608300 0.27271900 0.16297000
v 0.57340000 0.24009000 0.16297000
v 0.57567600 0.24242100 0.15151900
v 0.56058500 0.28783100 0.09729560
v -0.59087300 0.31813000 0.09729560
v -0.59422600 0.30940800 0.09729560
v -0.60608300 0.27271900 0.09729560
v -0.58584200 0.32827900 0.09729560
v -0.61734100 0.20452900 0.09849140
v -0.60608300 0.12122700 0.16297000
v 0.59088600 0.18182400 0.16297000
v 0.57567600 0.24242100 0.09729560
v -0.61722200 0.20490500 0.09729560
v -0.61734100 0.20295000 0.09729560
v -0.60608300 0.10611500 0.12122500
v -0.59087300 -0.02387480 0.09729560
v -0.59087300 -0.01507840 0.12122500
v -0.57578200 -0.07575050 0.16297000
v 0.60346200 0.04296230 0.11869800
v 0.60597700 0.10611500 0.10607100
v 0.60477900 0.11994900 0.09729560
v 0.59088600 0.18182400 0.09729560
v 0.59088600 -0.04545210 0.16297000
v -0.60608300 0.10611500 0.09729560
v -0.58009300 -0.07575050 0.09729560
v -0.57578200 -0.09086220 0.12122500
v -0.57063200 -0.10101200 0.12627200
v -0.55877400 -0.10973300 0.16297000
v 0.60597700 0.03033170 0.10607100
v 0.60597700 0.10611500 0.09729560
v 0.58932900 -0.06139070 0.09729560
v 0.59088600 -0.05417320 0.09729560
v 0.56058500 -0.13634700 0.16297000
v -0.57494300 -0.09116290 0.09729560
v -0.45888700 -0.25288000 0.09729560
v -0.55554100 -0.11612300 0.16297000
v 0.60597700 0.03033170 0.09729560
v 0.56058500 -0.13634700 0.10607100
v 0.55675200 -0.14394100 0.09849140
v 0.55591400 -0.14506900 0.09729560
v 0.55938700 -0.13882800 0.16297000
v -0.45445600 -0.25288000 0.12122500
v 0.42261100 -0.25288000 0.09729560
v -0.43936500 -0.25288000 0.16297000
v 0.55052400 -0.15657200 0.10607100
v 0.55088300 -0.15363900 0.09729560
v 0.55052400 -0.15657200 0.16297000
v 0.54465600 -0.15942800 0.09729560
v 0.41015500 -0.25288000 0.15151900
v 0.40237000 -0.25288000 0.16297000
v 0.40811900 -0.25085000 0.16297000
v 0.40752000 -0.25288000 0.16032700
f 54 62 55
f 47 56 57
f 55 62 70
f 53 62 54
f 53 61 62
f 47 57 52
f 51 59 65
f 50 59 51
f 50 58 59
f 55 70 63
f 51 65 60
f 55 63 56
f 65 74 71
f 59 64 66
f 59 66 65
f 60 65 73
f 60 73 67
f 61 68 69
f 61 69 62
f 62 69 78
f 62 78 70
f 65 71 72
f 65 72 73
f 65 66 74
f 47 55 56
f 58 64 59
f 47 54 55
f 24 32 35
f 47 52 48
f 67 73 75
f 23 34 32
f 25 36 37
f 25 37 26
f 26 37 38
f 26 38 27
f 27 39 40
f 27 40 28
f 27 38 39
f 32 34 42
f 32 42 35
f 33 41 49
f 33 49 43
f 33 43 34
f 34 43 44
f 34 44 45
f 34 45 42
f 36 46 37
f 37 46 38
f 38 47 48
f 38 48 39
f 43 49 58
f 43 58 50
f 43 50 44
f 44 50 51
f 47 53 54
f 67 75 76
f 111 114 112
f 69 77 88
f 93 102 94
f 93 100 101
f 95 98 103
f 97 99 104
f 97 104 105
f 97 105 106
f 99 107 104
f 101 108 102
f 101 109 115
f 101 115 118
f 101 118 116
f 101 116 110
f 101 110 108
f 102 108 110
f 104 107 111
f 104 111 105
f 105 111 106
f 106 111 112
f 107 113 111
f 109 114 111
f 109 111 113
f 109 113 115
f 113 117 118
f 113 118 115
f 23 33 34
f 93 101 102
f 92 100 93
f 91 100 92
f 116 118 117
f 69 88 78
f 73 79 75
f 75 79 80
f 75 80 76
f 76 80 81
f 76 81 82
f 76 82 83
f 76 83 84
f 77 85 86
f 77 86 87
f 77 87 88
f 77 89 85
f 68 77 69
f 80 90 81
f 82 91 92
f 82 92 84
f 82 84 83
f 84 92 93
f 84 93 94
f 85 95 86
f 85 89 95
f 86 95 103
f 86 103 96
f 86 96 87
f 89 97 98
f 89 98 95
f 81 90 82
f 23 41 33
f 89 99 97
f 23 32 24
f 2 106 112
f 2 112 114
f 2 114 109
f 2 109 101
f 2 101 100
f 2 100 91
f 2 91 82
f 2 82 90
f 2 90 80
f 2 80 79
f 2 79 73
f 2 73 72
f 2 72 71
f 2 71 74
f 2 74 66
f 2 66 64
f 2 64 58
f 2 58 49
f 2 49 41
f 2 41 31
f 2 31 22
f 2 22 21
f 2 21 12
f 2 12 3
f 3 12 13
f 2 97 106
f 2 103 98
f 2 96 103
f 2 87 96
f 23 31 41
f 1 2 3
f 1 3 4
f 1 4 5
f 1 5 6
f 1 6 7
f 1 7 8
f 1 8 9
f 1 9 10
f 1 10 2
f 2 10 11
f 2 11 20
f 3 13 4
f 2 20 30
f 2 29 28
f 2 28 40
f 2 40 39
f 2 39 48
f 2 48 52
f 2 52 57
f 2 57 56
f 2 56 63
f 2 63 70
f 2 70 78
f 2 78 88
f 2 88 87
f 2 30 29
f 4 13 14
f 2 98 97
f 4 15 24
f 4 16 6
f 4 6 5
f 6 16 7
f 7 16 17
f 7 17 18
f 7 18 8
f 8 18 9
f 9 19 10
f 9 18 19
f 10 19 11
f 11 19 20
f 12 14 13
f 4 17 16
f 14 21 22
f 14 23 24
f 14 24 15
f 17 25 18
f 18 25 26
f 18 26 27
f 18 27 28
f 18 28 29
f 18 29 19
f 19 30 20
f 19 29 30
f 22 31 23
f 4 14 15
f 14 22 23
f 4 25 17
f 12 21 14
f 4 24 35
f 4 36 25
f 4 35 42
f 4 42 45
f 4 45 44
f 4 44 51
f 4 51 60
f 4 60 67
f 4 67 76
f 4 84 94
f 4 94 102
f 4 102 110
f 4 110 116
f 4 116 117
f 4 76 84
f 4 46 36
f 4 117 113
f 4 38 46
f 4 47 38
f 4 53 47
f 4 68 61
f 4 61 53
f 4 89 77
f 4 99 89
f 4 107 99
f 4 113 107
f 4 77 68

