# https://github.com/mikedh/trimesh
v -0.15146500 0.50003000 0.18184700
v -0.15146500 0.50003000 0.16297600
v -0.18181300 0.50003000 0.22732600
v 0.15142800 0.48484800 0.16668800
v -0.34843300 0.50003000 0.16297600
v 0.15142800 0.48484800 0.16297600
v -0.19692800 0.50003000 0.24248600
v 0.16666000 0.46966600 0.28791200
v 0.21212400 0.46966600 0.24248600
v 0.24235400 0.46966600 0.18184700
v -0.21204300 0.50003000 0.25759300
v -0.24239100 0.50003000 0.28791200
v -0.34843300 0.50003000 0.16668800
v -0.42565000 0.48197400 0.16297600
v 0.24235400 0.46966600 0.16297600
v 0.18177600 0.45455800 0.37881700
v 0.21212400 0.45455800 0.34855000
v 0.01503820 0.46966600 0.37881700
v 0.09084930 0.45455800 0.43940300
v 0.25758700 0.43937600 0.40913600
v 0.34839600 0.42426700 0.39397700
v 0.25524300 0.46738100 0.16297600
v -0.28785400 0.50003000 0.27275200
v -0.28785400 0.48484800 0.37881700
v -0.22727600 0.48484800 0.37881700
v -0.12111700 0.46966600 0.45456300
v -0.09088630 0.46966600 0.43940300
v -0.37878100 0.48484800 0.27275200
v -0.42811100 0.48072100 0.16297600
v -0.41920600 0.46465400 0.31823100
v -0.40901200 0.46966600 0.31823100
v 0.24235400 0.43937600 0.42429600
v 0.24235400 0.42426700 0.48483000
v 0.33328100 0.39390300 0.51514900
v 0.41659100 0.34091400 0.56820700
v 0.44693900 0.34091400 0.52272900
v 0.45959300 0.33833400 0.50506000
v 0.35859000 0.41918200 0.38895800
v 0.36925300 0.41468600 0.16297600
v 0.28418500 0.45640000 0.16297600
v -0.34843300 0.48484800 0.31823100
v -0.33331800 0.48484800 0.33339100
v -0.33331800 0.46966600 0.42429600
v -0.30297000 0.46966600 0.43940300
v -0.15146500 0.46966600 0.45456300
v -0.15146500 0.42426700 0.57578700
v 0.22723900 0.40908500 0.53030800
v -0.40901200 0.45455800 0.42429600
v -0.43068900 0.47917300 0.16297600
v -0.41920600 0.44947200 0.42429600
v 0.33328100 0.37879500 0.56062800
v 0.40147500 0.34091400 0.58336700
v 0.41413000 0.32322600 0.58080500
v 0.44693900 0.32573200 0.53788800
v 0.33831900 0.36869800 0.58080500
v 0.47728600 0.32573200 0.49240900
v 0.49240200 0.32573200 0.46214300
v 0.50751700 0.32573200 0.41671600
v 0.52017200 0.32322600 0.38388800
v 0.53528700 0.32322600 0.30814200
v 0.54032600 0.32823700 0.20709600
v 0.53024900 0.33332300 0.21216600
v 0.53763100 0.32963800 0.16297600
v -0.36354800 0.40908500 0.59089400
v -0.31808500 0.40908500 0.60605400
v -0.18181300 0.42426700 0.57578700
v -0.09592480 0.38889200 0.64646200
v -0.09088630 0.39390300 0.63637300
v 0.25758700 0.37879500 0.59089400
v -0.42037700 0.44696700 0.43182300
v -0.41405000 0.44947200 0.43433300
v -0.38065600 0.40532700 0.59089400
v -0.55547800 0.37371000 0.16297600
v -0.55547800 0.37371000 0.18184700
v -0.56567200 0.35351600 0.36371000
v -0.55547800 0.35860100 0.37881700
v -0.54036300 0.35860100 0.43940300
v -0.54165200 0.35602200 0.44698300
v 0.26262500 0.36869800 0.61112500
v 0.38636000 0.34091400 0.59847400
v 0.39889800 0.32322600 0.59596500
v 0.38378200 0.30804400 0.61112500
v 0.41413000 -0.16156700 0.58080500
v 0.45959300 0.23228100 0.53537900
v 0.44436100 0.30804400 0.55048600
v 0.47224800 0.32072000 0.50255100
v 0.33831900 0.35351600 0.61112500
v 0.47470900 0.30804400 0.50506000
v 0.50505600 0.30804400 0.44442200
v 0.52275000 0.31062300 0.40155700
v 0.50505600 0.32322600 0.42936700
v 0.53786500 0.31062300 0.32581100
v 0.54548100 0.30303200 0.30307200
v 0.54548100 0.31814100 0.21216600
v 0.54173200 0.32558400 0.16297600
v 0.54032600 0.32823700 0.16297600
v -0.36870400 0.40400000 0.60103600
v -0.32324100 0.40400000 0.61619500
v -0.31304700 0.39898800 0.62628400
v -0.20196700 0.38889200 0.64646200
v -0.08584790 0.38380600 0.65660300
v 0.12119700 0.37879500 0.62121400
v -0.49618800 0.37120400 0.52272900
v -0.48669700 0.37496300 0.53030800
v -0.48857200 0.37120400 0.53788800
v -0.39764600 0.40149400 0.58336700
v -0.39577100 0.40532700 0.57578700
v -0.38253000 0.40149400 0.59847400
v -0.55817300 0.37127800 0.16297600
v -0.56625800 0.36361300 0.18184700
v -0.58582600 0.34341900 0.25759300
v -0.58711500 0.34091400 0.26517300
v -0.57199900 0.34091400 0.37123700
v -0.56625800 0.34850500 0.37881700
v -0.54165200 0.34091400 0.46214300
v -0.53591000 0.34850500 0.46972200
v -0.50567900 0.36361300 0.51514900
v 0.12623600 0.36869800 0.64144400
v 0.26262500 0.35351600 0.64144400
v 0.34089700 0.34091400 0.62879300
v 0.38132200 0.32072000 0.60861500
v 0.35355200 0.32322600 0.62628400
v 0.37370500 0.29794700 0.61619500
v 0.34839600 -0.16473600 0.62503000
v 0.39889800 -0.16156700 0.59596500
v 0.45959300 -0.16156700 0.53537900
v 0.38636000 -0.18559300 0.59847400
v 0.50505600 0.05053910 0.48990000
v 0.47470900 0.20199100 0.52021900
v 0.48982400 0.15651800 0.50506000
v 0.50505600 0.18680900 0.47474100
v 0.51513300 0.30303200 0.42429600
v 0.53024900 0.28785000 0.39397700
v 0.52778800 0.30045300 0.39146800
v 0.54548100 0.28785000 0.33339100
v 0.56059700 0.27274200 0.27275200
v 0.55825300 0.28556600 0.16297600
v 0.54723900 0.31445600 0.16297600
v 0.54548100 0.31814100 0.16297600
v -0.38381900 0.38889200 0.61619500
v -0.33835600 0.38889200 0.63130300
v -0.29793100 0.36869800 0.65660300
v -0.19189000 0.38380600 0.65660300
v -0.11104000 0.34341900 0.69194100
v 0.10092600 0.34341900 0.67678100
v 0.20192900 0.33833400 0.67171100
v 0.05042450 0.36869800 0.65660300
v -0.48986100 0.34850500 0.55048600
v -0.45834100 0.37120400 0.56820700
v -0.39764600 0.38638600 0.61363400
v -0.49618800 0.35602200 0.53788800
v -0.57574900 0.35417900 0.16668800
v -0.57821000 0.35152600 0.16297600
v -0.58582600 0.34341900 0.16297600
v -0.58711500 0.34098700 0.16297600
v -0.59086400 0.33332300 0.25759300
v -0.58711500 0.32573200 0.31065100
v -0.57574900 0.33332300 0.36371000
v -0.56063400 0.33332300 0.40913600
v -0.54540100 0.33332300 0.45456300
v -0.52524700 0.33332300 0.49497100
v -0.52653600 0.34091400 0.49240900
v -0.52079500 0.34850500 0.49998900
v 0.22220000 0.34341900 0.66162200
v 0.24997000 0.34091400 0.65911200
v 0.28031800 0.32573200 0.65911200
v 0.32320400 0.32322600 0.64144400
v 0.35355200 0.29293500 0.62628400
v 0.34089700 -0.17041100 0.62879300
v 0.38882100 -0.17166400 0.60103600
v 0.43182300 -0.18559300 0.55304800
v 0.44693900 -0.18559300 0.53788800
v 0.46463200 -0.17166400 0.52523800
v 0.47342000 -0.16473600 0.51514900
v 0.47470900 -0.11616800 0.52021900
v 0.50505600 -0.01004150 0.48990000
v 0.35859000 -0.18684600 0.61619500
v 0.35601200 -0.19318400 0.61363400
v 0.38636000 -0.19318400 0.58336700
v 0.52017200 0.08082950 0.45958100
v 0.54548100 0.03034560 0.40913600
v 0.51513300 0.18179700 0.45456300
v 0.53024900 0.16661500 0.42429600
v 0.54548100 0.12129000 0.39397700
v 0.56059700 0.12129000 0.34855000
v 0.56059700 0.16661500 0.33339100
v 0.56059700 0.25756000 0.28791200
v 0.57571200 0.22727000 0.22732600
v 0.57348600 0.24009300 0.16297600
v -0.36870400 0.35860100 0.64646200
v -0.32324100 0.35860100 0.66162200
v -0.20196700 0.34341900 0.69194100
v -0.10600200 0.33332300 0.69701100
v 0.10596500 0.33332300 0.68185200
v 0.19689100 0.31814100 0.68185200
v -0.48986100 0.33332300 0.55048600
v -0.47474600 0.34850500 0.56564600
v -0.52020900 0.33332300 0.50506000
v -0.42928300 0.34850500 0.61112500
v -0.41100300 0.36361300 0.61745000
v -0.59086400 0.33332300 0.16297600
v -0.60609700 0.27274200 0.21216600
v -0.59086400 0.31814100 0.30307200
v -0.57574900 0.30303200 0.36371000
v -0.56063400 0.31814100 0.40913600
v -0.54540100 0.00005524 0.40913600
v -0.52653600 -0.11358900 0.44698300
v 0.25758700 0.31814100 0.66669200
v 0.27012400 0.31563500 0.66413100
v 0.30293300 0.31814100 0.65153300
v 0.31312700 0.31312900 0.64646200
v 0.32320400 0.29293500 0.64144400
v 0.31312700 0.28283900 0.64646200
v 0.33328100 -0.16856800 0.63260900
v 0.32824200 -0.18684600 0.63130300
v 0.43182300 -0.19318400 0.53788800
v 0.44693900 -0.19318400 0.52272900
v 0.45959300 -0.18684600 0.51514900
v 0.49240200 -0.17800200 0.47725000
v 0.45455500 -0.18176000 0.53030800
v 0.47728600 -0.17041100 0.50756900
v 0.49486200 -0.17166400 0.47981100
v 0.48982400 -0.16156700 0.48990000
v 0.50505600 -0.11616800 0.47474100
v 0.51009500 -0.02013830 0.47981100
v 0.32566400 -0.19318400 0.62879300
v 0.34839600 -0.19694200 0.60605400
v 0.36362800 -0.19694200 0.59089400
v 0.31816500 -0.19694200 0.62121400
v 0.37874400 -0.19694200 0.57578700
v 0.53024900 0.07581790 0.43940300
v 0.56059700 0.01516360 0.36371000
v 0.56059700 0.03034560 0.36371000
v 0.52521000 -0.02013830 0.44949200
v 0.53024900 -0.01512680 0.43940300
v 0.53024900 -0.12118000 0.42429600
v 0.57571200 0.10610800 0.28791200
v 0.57571200 0.15150700 0.27275200
v 0.59094400 0.16661500 0.18184700
v 0.59094400 0.18179700 0.16668800
v 0.59094400 0.18179700 0.16297600
v -0.36354800 0.34850500 0.65153300
v -0.37491400 0.35602200 0.64395300
v -0.38381900 0.34850500 0.64144400
v -0.37374200 0.34850500 0.64646200
v -0.31808500 0.34850500 0.66669200
v -0.27273900 0.33332300 0.68185200
v -0.19692800 0.33332300 0.69701100
v -0.03019060 0.31814100 0.69701100
v -0.01507530 0.30303200 0.69701100
v -0.00007713 0.28785000 0.69701100
v 0.19689100 0.30303200 0.68185200
v -0.48986100 0.01516360 0.52021900
v -0.47474600 0.30303200 0.56564600
v -0.42928300 0.31814100 0.61112500
v -0.60609700 0.27274200 0.16297600
v -0.60609700 0.25756000 0.22732600
v -0.59086400 0.27274200 0.30307200
v -0.56063400 -0.10599800 0.34855000
v -0.54540100 -0.10599800 0.39397700
v -0.53028600 -0.13636200 0.42429600
v -0.52524700 -0.14645900 0.42936700
v -0.51130400 -0.15147000 0.45644500
v -0.50497600 -0.13636200 0.47474100
v -0.48986100 -0.12118000 0.50506000
v 0.28781700 -0.16665200 0.65153300
v 0.30293300 0.28785000 0.65153300
v 0.24235400 -0.16665200 0.66669200
v 0.33082000 -0.15405000 0.63386400
v 0.31816500 -0.18176000 0.63637300
v 0.28781700 -0.18367700 0.64771700
v 0.29543400 -0.18559300 0.64395300
v 0.40815400 -0.25089000 0.16297600
v 0.50751700 -0.17800200 0.43182300
v 0.43826800 -0.19694200 0.51405100
v 0.38624300 -0.25288000 0.21216600
v 0.39503100 -0.25288000 0.19021100
v 0.52017200 -0.17166400 0.40913600
v 0.51138400 -0.16856800 0.43940300
v 0.52521000 -0.15655500 0.41922500
v 0.52521000 -0.12626500 0.43433300
v 0.51009500 -0.12626500 0.46465200
v 0.28031800 -0.19318400 0.64395300
v 0.22723900 -0.22723300 0.51514900
v 0.31054900 -0.25288000 0.30307200
v 0.22723900 -0.19694200 0.65153300
v 0.21212400 -0.21212400 0.59089400
v 0.19689100 -0.22723300 0.53030800
v 0.36362800 -0.25288000 0.25001300
v 0.56059700 -0.12118000 0.30307200
v 0.57571200 -0.04541710 0.25759300
v 0.59094400 -0.03023510 0.18184700
v 0.59094400 0.07581790 0.21216600
v 0.54548100 -0.12118000 0.37881700
v 0.59094400 0.09092620 0.21216600
v 0.53024900 -0.15147000 0.40913600
v 0.54548100 -0.15147000 0.36371000
v 0.59094400 -0.04541710 0.16297600
v -0.36354800 0.33332300 0.65153300
v -0.38381900 0.33332300 0.64144400
v -0.37374200 0.33332300 0.64646200
v -0.27273900 0.24237800 0.68185200
v -0.21204300 0.31814100 0.69701100
v -0.01507530 0.21208800 0.69701100
v 0.16666000 -0.16665200 0.68185200
v -0.47474600 -0.13636200 0.52021900
v -0.47474600 0.00005524 0.53537900
v -0.45951300 -0.01512680 0.55048600
v -0.44439800 -0.01512680 0.56564600
v -0.44439800 0.30303200 0.59596500
v -0.42928300 0.00005524 0.58080500
v -0.41405000 0.03034560 0.59596500
v -0.38381900 0.12129000 0.62628400
v -0.60609700 0.12129000 0.16297600
v -0.60609700 0.12129000 0.16668800
v -0.56063400 -0.12118000 0.33339100
v -0.55676700 -0.12118000 0.35043200
v -0.54540100 -0.13636200 0.37881700
v -0.54036300 -0.14645900 0.38388800
v -0.52267000 -0.15906100 0.41295200
v -0.50755400 -0.15906100 0.45832700
v -0.49243900 -0.17424300 0.47348600
v -0.47474600 -0.16665200 0.50506000
v 0.22723900 -0.18176000 0.66669200
v 0.24235400 -0.18367700 0.66287600
v 0.24997000 -0.18559300 0.65911200
v 0.55052000 -0.17166400 0.24248600
v 0.53786500 -0.17800200 0.25006500
v 0.52275000 -0.17800200 0.37123700
v 0.40194400 -0.25288000 0.16668800
v 0.40241300 -0.25288000 0.16297600
v 0.55052000 -0.15655500 0.16297600
v 0.54161500 -0.17424300 0.20458700
v 0.54032600 -0.17674900 0.21216600
v 0.55052000 -0.17166400 0.22732600
v 0.53528700 -0.17166400 0.36371000
v 0.36679200 -0.25288000 0.24562200
v 0.52275000 -0.16282000 0.41671600
v 0.54032600 -0.15655500 0.37379900
v 0.23485500 -0.19318400 0.65911200
v 0.16666000 -0.24241500 0.45456300
v 0.26637500 -0.25288000 0.33177000
v 0.30609600 -0.25288000 0.30620800
v 0.15142800 -0.19694200 0.66669200
v 0.09084930 -0.24241500 0.48483000
v 0.13631200 -0.24241500 0.46972200
v 0.56059700 -0.13636200 0.28791200
v 0.59094400 -0.04541710 0.16668800
v 0.53786500 -0.16282000 0.37123700
v 0.55555800 -0.16156700 0.27275200
v 0.56059700 -0.15147000 0.27275200
v 0.56059700 -0.15147000 0.22732600
v 0.56059700 -0.13636200 0.16297600
v -0.31808500 0.21208800 0.66669200
v -0.37116500 0.32573200 0.64771700
v -0.37116500 0.11369900 0.63260900
v -0.25750700 0.15150700 0.68185200
v -0.21204300 0.30303200 0.69701100
v -0.07565380 0.09092620 0.69701100
v 0.15142800 -0.18176000 0.68185200
v -0.45951300 -0.15147000 0.53537900
v -0.42928300 -0.15147000 0.56564600
v -0.40151200 -0.15906100 0.58713100
v -0.57574900 -0.07570740 0.16297600
v -0.57574900 -0.07570740 0.21216600
v -0.56063400 -0.12118000 0.22732600
v -0.55044000 -0.14137300 0.32832000
v -0.55547800 -0.13127700 0.33840900
v -0.53532400 -0.15655500 0.37379900
v -0.52524700 -0.16156700 0.39904700
v -0.49489900 -0.17674900 0.45958100
v -0.47978400 -0.17674900 0.48990000
v -0.46209100 -0.17424300 0.51896500
v 0.16666000 -0.18367700 0.67803600
v 0.22723900 -0.19185700 0.66162200
v 0.55684700 -0.15906100 0.21974600
v -0.43935900 -0.25288000 0.16297600
v 0.15904400 -0.19318400 0.67427200
v 0.23602700 -0.25288000 0.34693000
v 0.13631200 -0.19694200 0.66669200
v 0.10549600 -0.25288000 0.37364200
v 0.12072800 -0.25288000 0.37348500
v 0.12998500 -0.25288000 0.37249200
v 0.22723900 -0.25288000 0.34959600
v 0.04538610 -0.24241500 0.48483000
v -0.32570100 0.20449700 0.66287600
v -0.31058600 -0.15906100 0.63260900
v -0.30297000 -0.15147000 0.63637300
v -0.25750700 -0.15147000 0.65153300
v -0.19692800 -0.15147000 0.66669200
v -0.18181300 0.13632500 0.69701100
v -0.09088630 0.07581790 0.69701100
v 0.12119700 -0.18176000 0.68185200
v 0.15142800 -0.19185700 0.67678100
v -0.40151200 -0.17424300 0.57955100
v -0.37878100 -0.16665200 0.59659200
v -0.55875900 -0.10975600 0.16297600
v -0.55547800 -0.11616800 0.16297600
v -0.55547800 -0.13127700 0.23234400
v -0.55044000 -0.14137300 0.26773400
v -0.43935900 -0.25288000 0.16668800
v -0.53532400 -0.15655500 0.34348000
v -0.48482300 -0.18176000 0.45456300
v -0.46970700 -0.18176000 0.48483000
v -0.46970700 -0.17800200 0.50192300
v -0.55301700 -0.12877100 0.20458700
v 0.12119700 -0.19185700 0.67678100
v 0.06050140 -0.22723300 0.54546800
v -0.10600200 -0.18176000 0.66669200
v -0.15146500 -0.21212400 0.57578700
v -0.15146500 -0.22723300 0.53030800
v -0.16658000 -0.25288000 0.37364200
v -0.06053850 -0.24241500 0.46972200
v -0.18181300 -0.25288000 0.37332800
v -0.31808500 -0.16665200 0.62691100
v -0.29547100 -0.17424300 0.63260900
v -0.26512300 -0.15906100 0.64771700
v -0.24239100 -0.16665200 0.65153300
v -0.18181300 -0.16665200 0.66669200
v -0.12111700 -0.15147000 0.68185200
v -0.10600200 -0.16665200 0.68185200
v 0.11358100 -0.18935100 0.67803600
v -0.42424400 -0.17800200 0.54735000
v -0.39389600 -0.17800200 0.57766900
v -0.33331800 -0.17800200 0.60798800
v -0.43783600 -0.25288000 0.16982400
v -0.43279800 -0.25288000 0.17996500
v -0.41920600 -0.25288000 0.20709600
v -0.41405000 -0.25288000 0.21718500
v -0.41135500 -0.25288000 0.22094900
v -0.37866400 -0.25288000 0.26397000
v -0.36835200 -0.25288000 0.27510500
v -0.32288900 -0.25288000 0.32058400
v -0.10600200 -0.17674900 0.67678100
v -0.18181300 -0.18176000 0.65153300
v -0.21204300 -0.21212400 0.56062800
v -0.29137000 -0.25288000 0.34154600
v -0.27273900 -0.25288000 0.35090300
v -0.30297000 -0.17800200 0.62309500
v -0.28785400 -0.17674900 0.63130300
v -0.24239100 -0.17674900 0.64646200
v -0.25000800 -0.17424300 0.64771700
v -0.18931200 -0.17424300 0.66287600
v -0.11361800 -0.17424300 0.67803600
v -0.37878100 -0.18176000 0.57578700
v -0.28785400 -0.18176000 0.62121400
v -0.28785400 -0.19694200 0.57578700
v -0.18181300 -0.17674900 0.66162200
v -0.24239100 -0.18176000 0.63637300
f 261 319 262
f 255 313 300
f 257 315 259
f 257 259 258
f 259 315 316
f 259 316 317
f 259 317 318
f 255 312 313
f 259 318 261
f 261 318 319
f 262 319 320
f 264 323 306
f 262 321 263
f 263 321 264
f 264 321 322
f 264 322 323
f 264 306 265
f 266 271 270
f 266 269 267
f 266 268 325
f 266 325 271
f 268 305 324
f 255 311 312
f 262 320 321
f 255 309 311
f 239 295 293
f 254 310 255
f 239 293 292
f 239 292 348
f 239 348 298
f 239 298 241
f 239 241 240
f 242 245 301
f 242 301 299
f 242 299 302
f 242 302 247
f 242 247 246
f 244 300 301
f 255 310 309
f 244 301 245
f 247 358 303
f 247 303 248
f 251 304 305
f 251 305 252
f 252 305 268
f 253 265 306
f 253 306 307
f 253 307 254
f 254 307 308
f 254 308 309
f 254 309 310
f 247 302 358
f 268 324 325
f 286 378 344
f 271 326 272
f 276 432 431
f 276 431 430
f 276 430 429
f 276 429 428
f 276 428 427
f 276 427 426
f 276 426 401
f 276 401 377
f 276 377 331
f 276 331 330
f 276 330 277
f 276 433 432
f 278 336 338
f 279 338 280
f 280 338 339
f 280 339 297
f 280 297 296
f 284 288 346
f 284 346 341
f 284 341 342
f 284 342 343
f 284 343 285
f 286 340 378
f 190 243 244
f 278 338 279
f 276 437 433
f 276 438 437
f 276 414 438
f 272 326 340
f 272 340 283
f 273 327 328
f 273 328 329
f 273 329 274
f 273 277 330
f 273 330 331
f 273 332 333
f 273 333 334
f 273 334 335
f 273 335 327
f 274 329 336
f 275 289 337
f 275 337 276
f 276 337 289
f 276 289 285
f 276 285 343
f 276 343 342
f 276 342 379
f 276 379 384
f 276 384 383
f 276 383 382
f 276 382 381
f 276 381 412
f 276 412 414
f 271 325 326
f 238 295 239
f 214 269 266
f 236 297 294
f 199 300 244
f 199 244 200
f 200 244 243
f 202 256 314
f 202 314 315
f 202 315 257
f 202 257 203
f 203 257 258
f 204 258 259
f 204 259 260
f 204 260 206
f 199 255 300
f 204 206 205
f 207 260 259
f 207 259 261
f 207 261 262
f 207 262 263
f 207 263 264
f 207 264 265
f 207 265 253
f 209 266 267
f 209 267 210
f 209 252 268
f 209 268 266
f 206 260 207
f 210 267 213
f 198 207 253
f 197 254 255
f 286 344 287
f 190 244 245
f 190 245 242
f 191 246 247
f 191 247 248
f 191 248 192
f 193 248 303
f 193 303 358
f 193 358 391
f 193 391 392
f 193 392 359
f 197 255 199
f 193 359 304
f 193 251 250
f 193 250 249
f 193 249 195
f 193 195 194
f 195 250 251
f 195 251 252
f 195 252 209
f 195 209 208
f 195 249 250
f 196 198 253
f 196 253 254
f 193 304 251
f 237 295 238
f 210 213 211
f 214 267 269
f 227 229 284
f 227 284 285
f 227 285 228
f 228 285 230
f 229 283 340
f 229 340 286
f 229 286 287
f 229 287 288
f 229 288 284
f 230 285 289
f 230 289 275
f 226 283 229
f 232 290 291
f 232 292 293
f 232 293 295
f 232 295 233
f 232 236 294
f 232 294 290
f 233 295 237
f 234 281 236
f 234 236 235
f 236 281 280
f 236 280 296
f 236 296 297
f 232 291 292
f 213 267 214
f 226 272 283
f 225 282 281
f 214 266 270
f 214 270 215
f 215 270 271
f 215 271 272
f 215 272 226
f 216 230 217
f 217 273 274
f 217 274 219
f 217 219 218
f 217 230 275
f 217 275 276
f 225 281 234
f 217 276 277
f 219 274 336
f 219 336 278
f 219 278 279
f 219 279 222
f 219 222 221
f 219 221 220
f 222 279 280
f 222 280 281
f 222 281 282
f 222 282 224
f 222 224 223
f 217 277 273
f 287 344 288
f 363 395 396
f 288 345 346
f 385 414 412
f 387 415 416
f 387 416 442
f 387 442 417
f 387 417 389
f 387 389 388
f 387 396 415
f 389 417 442
f 389 442 418
f 389 418 419
f 389 419 390
f 385 413 414
f 390 419 421
f 390 420 391
f 391 420 421
f 391 421 392
f 392 421 393
f 393 422 407
f 393 421 444
f 393 444 422
f 395 405 423
f 395 423 424
f 395 424 425
f 395 425 416
f 390 421 420
f 395 416 396
f 385 411 413
f 380 411 408
f 366 399 400
f 367 400 402
f 367 402 369
f 369 401 370
f 369 402 377
f 369 377 401
f 370 401 371
f 371 401 403
f 371 403 372
f 372 403 404
f 372 404 405
f 385 408 411
f 372 405 373
f 374 394 375
f 377 402 400
f 377 400 399
f 377 399 406
f 377 406 398
f 378 394 407
f 378 407 380
f 380 408 385
f 380 407 409
f 380 409 410
f 380 410 411
f 373 405 395
f 366 398 399
f 396 416 415
f 401 426 403
f 419 442 443
f 419 443 444
f 419 444 421
f 423 433 424
f 424 433 445
f 424 445 425
f 425 446 439
f 425 445 446
f 433 437 447
f 433 447 445
f 434 444 448
f 418 442 419
f 435 448 441
f 436 449 446
f 436 446 447
f 436 447 437
f 439 446 440
f 440 446 449
f 440 449 441
f 441 448 442
f 442 448 443
f 443 448 444
f 445 447 446
f 190 200 243
f 435 441 449
f 398 406 399
f 416 441 442
f 416 439 440
f 403 426 427
f 403 427 404
f 404 427 428
f 404 428 429
f 404 429 430
f 404 430 431
f 404 431 405
f 405 431 432
f 405 432 433
f 405 433 423
f 407 422 444
f 416 440 441
f 407 444 434
f 409 434 448
f 409 448 435
f 409 435 410
f 410 435 449
f 410 449 436
f 410 436 411
f 411 436 437
f 411 437 438
f 411 438 413
f 413 438 414
f 416 425 439
f 407 434 409
f 366 397 398
f 364 397 366
f 363 396 387
f 307 361 308
f 308 361 309
f 309 361 362
f 309 362 311
f 311 362 363
f 311 363 312
f 312 363 313
f 313 363 356
f 314 364 365
f 314 365 315
f 315 365 316
f 306 361 307
f 316 366 400
f 316 367 368
f 316 368 319
f 316 319 318
f 316 318 317
f 316 365 364
f 316 364 366
f 319 369 370
f 319 370 320
f 319 368 367
f 319 367 369
f 320 370 322
f 316 400 367
f 320 322 321
f 306 323 361
f 305 392 360
f 290 347 348
f 290 348 292
f 290 292 291
f 290 294 297
f 290 297 347
f 297 339 349
f 297 349 336
f 297 336 350
f 297 350 351
f 297 351 347
f 298 348 351
f 305 360 324
f 298 351 352
f 299 354 302
f 299 301 355
f 299 355 386
f 299 386 354
f 300 313 356
f 300 356 355
f 300 355 301
f 302 357 358
f 302 354 357
f 304 359 305
f 305 359 392
f 298 352 353
f 322 370 371
f 322 371 372
f 322 372 373
f 345 379 346
f 345 385 412
f 345 412 381
f 347 351 348
f 350 376 351
f 351 376 352
f 352 376 353
f 354 386 387
f 354 387 388
f 354 388 357
f 355 356 386
f 345 384 379
f 356 363 387
f 357 388 389
f 357 389 390
f 357 390 391
f 357 391 358
f 360 393 407
f 360 407 394
f 360 394 374
f 360 392 393
f 361 373 362
f 362 395 363
f 362 373 395
f 356 387 386
f 345 383 384
f 345 382 383
f 345 381 382
f 322 373 323
f 323 373 361
f 324 360 374
f 324 374 325
f 325 374 375
f 325 375 340
f 325 340 326
f 327 335 376
f 327 376 350
f 327 350 336
f 327 336 329
f 327 329 328
f 332 353 376
f 332 376 335
f 332 335 333
f 333 335 334
f 336 349 338
f 338 349 339
f 340 375 394
f 340 394 378
f 341 346 379
f 341 379 342
f 344 378 380
f 344 380 385
f 344 385 345
f 288 344 345
f 190 246 191
f 26 66 46
f 189 240 241
f 48 70 71
f 48 71 72
f 48 72 64
f 49 73 74
f 49 74 75
f 49 75 50
f 50 75 76
f 50 76 77
f 50 77 78
f 50 78 70
f 51 69 79
f 48 50 70
f 51 79 55
f 52 80 53
f 53 80 81
f 53 81 82
f 53 82 83
f 53 83 126
f 53 126 84
f 53 84 85
f 53 85 54
f 54 85 86
f 54 86 56
f 55 79 119
f 52 55 80
f 55 119 87
f 47 68 69
f 46 68 47
f 35 56 36
f 35 51 55
f 35 55 52
f 36 56 37
f 37 56 57
f 37 57 58
f 37 58 38
f 38 58 59
f 190 242 246
f 38 60 61
f 38 61 62
f 47 69 51
f 38 62 39
f 39 61 63
f 41 43 42
f 41 48 43
f 43 64 44
f 43 48 64
f 44 64 65
f 44 65 45
f 45 65 66
f 46 66 100
f 46 100 67
f 46 67 68
f 39 62 61
f 35 54 56
f 55 87 80
f 56 88 89
f 70 78 103
f 70 103 104
f 70 104 105
f 70 105 71
f 71 105 106
f 71 106 107
f 71 107 72
f 72 107 106
f 72 106 108
f 72 108 97
f 73 109 74
f 69 118 79
f 74 109 110
f 74 111 75
f 75 111 112
f 75 112 113
f 75 113 114
f 75 114 78
f 75 78 77
f 75 77 76
f 78 115 116
f 78 116 117
f 78 117 103
f 78 114 113
f 74 110 111
f 56 86 88
f 69 102 118
f 68 118 102
f 56 89 57
f 57 89 90
f 57 90 91
f 57 91 58
f 58 91 59
f 59 91 90
f 59 90 92
f 59 92 60
f 60 92 93
f 60 93 94
f 60 94 61
f 68 102 69
f 61 94 95
f 61 96 63
f 64 97 98
f 64 98 65
f 64 72 97
f 65 98 99
f 65 99 66
f 66 99 100
f 67 101 68
f 67 100 143
f 67 143 101
f 68 101 118
f 61 95 96
f 78 113 115
f 35 53 54
f 34 51 35
f 2 377 398
f 2 398 397
f 2 397 364
f 2 364 314
f 2 314 256
f 2 256 201
f 2 201 155
f 2 155 154
f 2 154 153
f 2 153 109
f 2 109 73
f 2 331 377
f 2 73 49
f 2 29 14
f 2 14 5
f 3 7 4
f 4 8 9
f 4 9 10
f 4 10 15
f 4 15 6
f 4 7 11
f 4 11 12
f 4 12 8
f 5 14 13
f 2 49 29
f 8 16 17
f 2 273 331
f 2 353 332
f 1 2 5
f 1 5 13
f 1 13 23
f 1 23 12
f 1 12 11
f 1 11 7
f 1 7 3
f 1 3 4
f 1 4 6
f 1 6 2
f 2 6 15
f 2 332 273
f 2 15 22
f 2 40 39
f 2 39 63
f 2 63 96
f 2 96 95
f 2 95 139
f 2 139 138
f 2 138 137
f 2 137 189
f 2 189 241
f 2 241 298
f 2 298 353
f 2 22 40
f 35 52 53
f 8 17 9
f 8 18 19
f 21 38 39
f 21 39 40
f 21 40 22
f 21 32 33
f 21 33 34
f 23 28 41
f 23 41 42
f 23 42 24
f 24 42 43
f 24 43 44
f 24 44 45
f 21 37 38
f 24 45 26
f 26 45 66
f 26 46 47
f 26 47 33
f 28 31 48
f 28 48 41
f 29 49 30
f 30 50 48
f 30 48 31
f 30 49 50
f 33 47 51
f 33 51 34
f 24 26 25
f 8 12 18
f 21 36 37
f 21 34 35
f 8 19 16
f 9 17 20
f 9 20 21
f 9 21 10
f 10 22 15
f 10 21 22
f 12 23 24
f 12 24 25
f 12 25 26
f 12 26 27
f 12 27 18
f 21 35 36
f 13 14 28
f 14 29 30
f 14 30 31
f 14 31 28
f 16 32 20
f 16 20 17
f 16 19 32
f 18 27 19
f 19 33 32
f 19 27 26
f 19 26 33
f 20 32 21
f 13 28 23
f 79 118 119
f 38 59 60
f 80 120 121
f 148 151 163
f 148 163 198
f 148 198 196
f 149 197 199
f 149 199 200
f 149 200 150
f 150 200 190
f 152 153 154
f 155 201 156
f 156 201 256
f 156 256 202
f 148 254 197
f 156 202 203
f 158 203 258
f 158 258 204
f 158 204 205
f 158 205 159
f 159 205 160
f 160 206 207
f 160 207 161
f 160 205 206
f 161 207 198
f 162 198 163
f 166 195 208
f 157 203 158
f 166 208 209
f 148 196 254
f 146 164 147
f 132 183 133
f 133 183 184
f 133 184 185
f 133 185 186
f 133 186 135
f 133 135 134
f 135 186 187
f 135 187 136
f 136 187 188
f 136 188 189
f 136 189 137
f 146 194 195
f 140 150 190
f 140 191 141
f 142 191 192
f 142 192 143
f 144 192 248
f 144 248 193
f 144 193 194
f 144 194 145
f 145 194 146
f 146 195 166
f 146 166 165
f 146 165 164
f 140 190 191
f 132 182 183
f 166 209 210
f 167 210 211
f 178 228 179
f 178 226 229
f 178 229 227
f 179 228 230
f 179 230 216
f 180 181 231
f 181 232 233
f 181 233 185
f 181 185 184
f 181 184 183
f 181 183 231
f 178 227 228
f 181 225 234
f 181 235 236
f 80 87 120
f 182 231 183
f 185 237 238
f 185 238 186
f 185 233 237
f 186 238 187
f 187 238 188
f 188 238 239
f 188 239 240
f 188 240 189
f 181 234 235
f 166 210 167
f 177 226 178
f 176 282 225
f 167 211 213
f 167 213 212
f 168 212 213
f 168 213 169
f 169 214 215
f 169 215 177
f 169 177 170
f 169 213 214
f 171 216 217
f 171 217 172
f 171 179 216
f 177 215 226
f 172 217 218
f 172 219 220
f 172 220 173
f 173 220 221
f 173 221 174
f 174 221 222
f 174 222 223
f 174 223 224
f 174 224 175
f 175 224 176
f 176 225 181
f 176 224 282
f 172 218 219
f 131 182 132
f 181 236 232
f 131 180 231
f 93 136 94
f 94 137 138
f 94 138 139
f 94 139 95
f 94 136 137
f 97 108 150
f 97 150 140
f 97 140 98
f 98 140 99
f 99 141 191
f 99 191 142
f 93 135 136
f 99 142 143
f 99 140 141
f 101 143 192
f 101 192 144
f 101 144 145
f 101 145 146
f 101 146 147
f 101 147 118
f 103 117 105
f 103 105 104
f 105 148 197
f 105 197 149
f 99 143 100
f 105 149 150
f 90 93 92
f 90 134 135
f 131 231 182
f 80 121 81
f 81 121 82
f 82 121 122
f 82 122 123
f 82 123 124
f 82 125 83
f 83 125 127
f 83 127 171
f 83 171 126
f 84 126 176
f 90 135 93
f 84 176 128
f 84 129 85
f 85 129 130
f 85 130 88
f 85 88 86
f 87 119 120
f 88 130 131
f 88 131 89
f 89 131 132
f 89 132 90
f 90 132 133
f 90 133 134
f 84 128 129
f 105 150 106
f 82 124 125
f 105 151 148
f 120 166 167
f 120 167 122
f 122 168 123
f 122 167 212
f 122 212 168
f 123 168 169
f 123 169 124
f 124 169 170
f 124 170 125
f 125 170 127
f 126 171 172
f 120 165 166
f 126 172 173
f 126 174 175
f 126 175 176
f 127 170 177
f 127 177 178
f 127 178 179
f 127 179 171
f 128 180 131
f 128 130 129
f 128 176 181
f 105 117 151
f 128 181 180
f 126 173 174
f 120 122 121
f 128 131 130
f 119 164 165
f 119 165 120
f 109 153 152
f 111 154 155
f 111 155 112
f 111 152 154
f 112 155 156
f 112 156 203
f 112 203 157
f 106 150 108
f 112 157 113
f 113 157 158
f 110 152 111
f 113 159 115
f 119 147 164
f 113 158 159
f 118 147 119
f 117 163 151
f 116 163 117
f 109 152 110
f 115 163 116
f 115 162 163
f 115 198 162
f 115 161 198
f 115 159 160
f 115 160 161

