# https://github.com/mikedh/trimesh
v -0.21202600 0.51518200 -0.01514250
v -0.21202600 0.51518200 -0.03030200
v -0.22717600 0.51518200 0.03846740
v 0.22722500 0.49999600 -0.06060060
v -0.22717600 0.51518200 -0.04545130
v 0.22722500 0.49999600 -0.06589220
v 0.22722500 0.48480900 0.03846740
v -0.29484800 0.51518200 0.03846740
v 0.24237600 0.48480900 0.03029510
v 0.28782700 0.48480900 -0.01514250
v 0.30297800 0.48480900 -0.03030200
v 0.27907300 0.49127400 -0.06589220
v 0.24035600 0.49804100 -0.06589220
v -0.26286400 0.51518200 -0.06589220
v 0.24080500 0.48323000 0.03846740
v -0.30304100 0.51518200 0.03029510
v -0.37060000 0.49999600 0.03846740
v 0.30297800 0.46811800 0.03846740
v 0.31060900 0.47729000 -0.00758322
v 0.32317800 0.47473400 -0.02524550
v 0.37873000 0.45451000 -0.06060060
v 0.37345500 0.45714200 -0.06589220
v 0.32531000 0.47683900 -0.06589220
v 0.30297800 0.48480900 -0.06589220
v -0.30831500 0.51518200 -0.06589220
v -0.37879300 0.49999600 0.03029510
v -0.37980300 0.49796600 0.03846740
v 0.31150700 0.46481000 0.03846740
v 0.35606000 0.44699200 0.03787490
v 0.37873000 0.43939900 0.03029510
v 0.39893000 0.44443600 -0.05555430
v 0.38860600 0.44962300 -0.06589220
v -0.31942500 0.51270100 -0.06589220
v -0.37879300 0.49999600 -0.00000346
v -0.43939500 0.48480900 -0.00000346
v -0.42424400 0.48480900 0.03846740
v 0.35594800 0.44684200 0.03846740
v 0.37715900 0.43774500 0.03846740
v 0.38883000 0.43436100 0.02524880
v 0.39893000 0.44443600 -0.06589220
v 0.54033500 0.32827900 0.03846740
v 0.51923600 0.35256300 -0.06589220
v -0.32537300 0.51134800 -0.06589220
v -0.43939500 0.48480900 -0.06589220
v -0.44287400 0.48307900 -0.06589220
v -0.44949500 0.47977200 -0.00000346
v -0.44130200 0.48105000 0.01514580
v -0.43434400 0.47977200 0.03846740
v 0.38624900 0.43165500 0.03846740
v 0.38636100 0.43180500 0.03787490
v 0.53528500 0.33835400 -0.05555430
v 0.56760500 0.28083900 0.03846740
v 0.56816700 0.29542400 0.02272560
v 0.61608700 0.25249500 -0.05050790
v 0.56558500 0.30805500 -0.02524550
v 0.56771800 0.31016000 -0.06589220
v 0.55043500 0.32324200 -0.02524550
v -0.44949500 0.47977200 -0.06589220
v -0.45072900 0.47729000 0.00756608
v -0.52524700 0.41917500 -0.00000346
v -0.52524700 0.41150600 0.03846740
v 0.59083600 0.22723400 0.03846740
v 0.56816700 0.28031300 0.03787490
v 0.61103700 0.24745800 -0.02524550
v 0.62124900 0.24242100 -0.04545130
v 0.61361800 0.25001400 -0.05682100
v 0.61361800 0.25377300 -0.05303110
v 0.60497700 0.24257100 -0.06589220
v -0.52524700 0.41917500 -0.06589220
v -0.52524700 0.41165600 0.03792600
v -0.52524700 -0.10958300 0.03846740
v 0.60744600 0.14453400 0.03846740
v 0.61103700 0.17167400 0.02020240
v 0.62124900 0.16663700 -0.00000346
v 0.62124900 0.15145000 -0.06589220
v 0.61608700 0.24242100 -0.05555430
v 0.61092500 0.22723400 -0.06589220
v -0.52524700 -0.11604800 -0.06589220
v -0.52524700 -0.11236400 0.03222580
v -0.48248900 -0.25288000 0.01985510
v -0.48058100 -0.25288000 0.02367560
v -0.47317500 -0.25288000 0.03846740
v 0.60957800 0.12942200 0.03846740
v 0.62124900 0.12122700 0.01514580
v 0.62124900 0.07055420 -0.06589220
v -0.52524700 -0.11619900 -0.06588190
v -0.48675400 -0.25288000 -0.06589220
v -0.52524700 -0.11612300 0.02029430
v -0.48484600 -0.25288000 -0.00000346
v -0.48305000 -0.25288000 0.01514580
v 0.43933200 -0.25288000 0.03846740
v 0.60957800 0.10957400 0.03846740
v 0.62124900 0.10611500 0.01514580
v 0.62124900 0.01522000 -0.04545130
v 0.61743400 0.00762662 -0.05303110
v 0.60969000 0.00003322 -0.06589220
v -0.52524700 -0.11619900 -0.01013700
v 0.45448200 -0.25288000 -0.06589220
v 0.45313500 -0.25288000 -0.00976929
v 0.54033500 -0.16160900 0.03846740
v 0.60598700 0.00003322 0.03846740
v 0.61608700 0.10107800 0.02524880
v 0.62124900 0.01522000 -0.00000346
v 0.60598700 -0.06056370 -0.04545130
v 0.60228300 -0.06815710 -0.05303110
v 0.59588600 -0.06056370 -0.06565720
v 0.59566200 -0.06056370 -0.06589220
v 0.54123200 -0.15980400 -0.06589220
v 0.54033500 -0.16160900 -0.06060060
v 0.45448200 -0.25288000 -0.01514250
v 0.56558500 -0.12619800 -0.00000346
v 0.54314000 -0.15612000 0.03846740
v 0.60228300 -0.02222070 0.03846740
v 0.60598700 -0.04545210 -0.00000346
v 0.57568600 -0.10604900 -0.00000346
v 0.60093600 -0.07063810 -0.04545130
v 0.58881600 -0.07326950 -0.06589220
v 0.56558500 -0.12619800 -0.03030200
v 0.55324100 -0.13597200 0.03846740
v 0.58735700 -0.06755570 0.03846740
v 0.58702000 -0.06830750 0.03846740
f 60 61 70
f 62 74 65
f 62 73 74
f 62 72 73
f 60 71 61
f 60 69 78
f 60 88 79
f 60 97 88
f 60 86 97
f 60 78 86
f 62 65 64
f 60 79 71
f 62 64 63
f 71 81 82
f 65 84 93
f 65 93 103
f 65 103 94
f 65 94 85
f 65 85 75
f 65 75 76
f 65 76 66
f 66 76 77
f 66 77 68
f 71 79 80
f 71 80 81
f 59 70 61
f 65 74 84
f 59 60 70
f 41 51 42
f 56 67 66
f 72 83 84
f 41 50 49
f 41 52 53
f 41 53 54
f 41 54 55
f 41 55 56
f 41 56 57
f 41 57 51
f 42 51 56
f 45 58 46
f 46 59 48
f 46 48 47
f 56 66 68
f 46 58 69
f 46 60 59
f 48 59 61
f 51 57 56
f 52 62 63
f 52 63 53
f 53 63 64
f 53 64 65
f 53 65 54
f 54 65 66
f 54 66 67
f 54 67 56
f 54 56 55
f 46 69 60
f 72 84 74
f 114 119 115
f 75 77 76
f 98 109 100
f 98 100 110
f 99 110 100
f 100 111 112
f 100 109 118
f 100 118 111
f 101 113 103
f 103 113 114
f 103 114 104
f 104 114 115
f 104 115 111
f 104 111 116
f 96 106 107
f 104 116 105
f 105 116 118
f 105 118 108
f 105 108 117
f 106 117 107
f 108 118 109
f 111 118 116
f 111 115 119
f 111 119 112
f 113 120 114
f 114 120 121
f 114 121 119
f 39 50 41
f 105 117 106
f 72 74 73
f 96 105 106
f 94 105 95
f 78 87 86
f 79 88 89
f 79 89 90
f 79 90 80
f 80 90 89
f 80 89 87
f 80 87 98
f 80 98 110
f 80 110 99
f 80 99 91
f 80 91 82
f 80 82 81
f 95 105 96
f 83 92 93
f 85 94 95
f 85 95 96
f 86 87 97
f 87 89 88
f 87 88 97
f 91 99 100
f 92 101 102
f 92 102 93
f 93 102 101
f 93 101 103
f 94 103 104
f 94 104 105
f 83 93 84
f 38 50 39
f 98 108 109
f 36 47 48
f 3 72 62
f 3 52 41
f 3 41 49
f 3 49 38
f 3 38 37
f 3 37 28
f 3 28 18
f 3 18 15
f 3 15 7
f 4 7 9
f 4 9 10
f 4 10 11
f 3 83 72
f 4 11 12
f 4 13 6
f 5 6 14
f 6 13 12
f 6 12 24
f 6 24 23
f 6 23 22
f 6 22 32
f 6 32 40
f 6 40 42
f 6 42 56
f 6 56 68
f 6 68 77
f 4 12 13
f 6 77 75
f 3 92 83
f 3 113 101
f 38 49 50
f 1 2 5
f 1 5 14
f 1 14 25
f 1 25 16
f 1 16 8
f 1 8 3
f 1 3 4
f 1 4 6
f 1 6 2
f 2 6 5
f 3 7 4
f 3 101 92
f 3 8 17
f 3 27 36
f 3 36 48
f 3 48 61
f 3 61 71
f 3 71 82
f 3 82 91
f 3 91 100
f 3 100 112
f 3 112 119
f 3 119 121
f 3 121 120
f 3 120 113
f 3 17 27
f 6 75 85
f 3 62 52
f 6 96 107
f 19 29 30
f 19 30 20
f 20 30 31
f 20 31 21
f 21 31 32
f 21 32 22
f 25 33 34
f 25 34 26
f 26 34 44
f 26 44 35
f 26 35 36
f 26 36 27
f 28 37 29
f 29 38 30
f 29 37 38
f 30 38 39
f 30 39 31
f 31 40 32
f 31 39 41
f 31 41 42
f 31 42 40
f 33 43 34
f 34 43 44
f 35 44 45
f 6 85 96
f 35 46 47
f 35 47 36
f 19 28 29
f 18 28 19
f 35 45 46
f 16 25 26
f 6 107 117
f 17 26 27
f 6 108 98
f 6 98 87
f 6 87 78
f 6 78 69
f 6 69 58
f 6 58 45
f 6 45 44
f 6 44 43
f 6 43 33
f 6 33 25
f 6 25 14
f 7 15 9
f 6 117 108
f 8 26 17
f 9 15 10
f 10 15 11
f 11 18 19
f 11 19 20
f 11 20 21
f 11 21 22
f 11 22 23
f 11 23 24
f 11 24 12
f 11 15 18
f 8 16 26

