# https://github.com/mikedh/trimesh
v 0.37715500 0.23040900 -0.52274700
v 0.55894800 0.23040900 -0.52274700
v 0.37715500 0.23040900 -0.31857800
v 0.37715500 0.45456000 -0.52274700
v 0.56062900 0.23487000 -0.52274700
v 0.59092800 0.23040900 -0.43940100
v 0.59695300 0.23040900 -0.31857800
v 0.37715500 0.44371300 -0.31857800
v 0.37715500 0.45540500 -0.46888200
v 0.46879400 0.49813400 -0.52274700
v 0.56346700 0.24244400 -0.52274700
v 0.59998700 0.23040900 -0.40460300
v 0.57200200 0.25001900 -0.50759700
v 0.58715200 0.25001900 -0.46214600
v 0.60014000 0.23040900 -0.37164400
v 0.59092800 0.31821700 -0.31857800
v 0.38278700 0.44339600 -0.31857800
v 0.38638900 0.44698600 -0.32579300
v 0.37715500 0.45160400 -0.33504700
v 0.37715500 0.45540500 -0.42592900
v 0.48414000 0.50000800 -0.52274700
v 0.37715500 0.45456000 -0.34851900
v 0.57577900 0.30523200 -0.52274700
v 0.60014000 0.23040900 -0.37382300
v 0.57577900 0.34094100 -0.52274700
v 0.58715200 0.32579200 -0.46214600
v 0.59092800 0.33336600 -0.43940100
v 0.57577900 0.25759400 -0.50002200
v 0.59092800 0.33336600 -0.42425000
v 0.58588600 0.32832500 -0.31857800
v 0.46992900 0.42444600 -0.31857800
v 0.47479700 0.42930300 -0.32831200
v 0.49243500 0.43183600 -0.34094400
v 0.46973300 0.43941100 -0.34851900
v 0.37715500 0.45287100 -0.34012400
v 0.49247900 0.49243300 -0.52274700
v 0.50507400 0.42930300 -0.35861200
v 0.50758500 0.43183600 -0.37124400
v 0.51011700 0.43434400 -0.38387600
v 0.57409800 0.34851500 -0.52274700
v 0.57577900 0.34851500 -0.51517200
v 0.55305500 0.40153800 -0.52274700
v 0.58588600 0.34347500 -0.44445700
v 0.58588600 0.34347500 -0.42930700
v 0.58082100 0.35358300 -0.43436400
v 0.58082100 0.33840700 -0.32831200
v 0.57887800 0.33648100 -0.31857800
v 0.51221200 0.40615700 -0.31857800
v 0.52275600 0.40153800 -0.32579300
v 0.50003200 0.48488500 -0.52274700
v 0.52526600 0.40404500 -0.33840500
v 0.53537300 0.41415300 -0.40408300
v 0.57099800 0.35648600 -0.52274700
v 0.57073600 0.35862400 -0.52022900
v 0.53537300 0.42930300 -0.49496500
v 0.54041500 0.41919400 -0.45960800
v 0.55052200 0.39900400 -0.41923400
f 25 40 41
f 27 41 42
f 27 42 43
f 27 43 44
f 30 44 45
f 29 44 30
f 30 45 46
f 31 48 33
f 25 27 26
f 30 46 47
f 27 44 29
f 21 39 36
f 18 33 34
f 21 37 38
f 21 33 37
f 21 34 33
f 21 22 35
f 19 21 35
f 18 34 21
f 18 32 33
f 18 21 19
f 17 32 18
f 31 33 32
f 17 31 32
f 21 38 39
f 33 48 49
f 46 57 52
f 36 39 50
f 16 29 30
f 50 56 55
f 50 57 56
f 50 52 57
f 47 49 48
f 47 51 49
f 46 51 47
f 46 52 51
f 45 57 46
f 45 56 57
f 45 55 56
f 33 49 37
f 43 45 44
f 42 50 55
f 42 54 53
f 42 45 43
f 41 54 42
f 40 54 41
f 40 53 54
f 39 52 50
f 39 51 52
f 39 49 51
f 38 49 39
f 37 49 38
f 42 55 45
f 15 29 16
f 25 41 27
f 15 24 27
f 1 5 2
f 1 11 5
f 1 23 11
f 1 25 23
f 1 40 25
f 1 53 40
f 1 42 53
f 1 50 42
f 1 36 50
f 1 21 36
f 1 4 10
f 1 9 4
f 1 20 9
f 1 22 20
f 1 35 22
f 1 19 35
f 1 8 19
f 1 3 8
f 1 7 3
f 1 15 7
f 1 24 15
f 1 12 24
f 1 6 12
f 1 2 6
f 15 27 29
f 2 5 6
f 3 7 16
f 1 10 21
f 3 30 47
f 14 28 23
f 3 16 30
f 13 28 14
f 12 27 24
f 12 26 27
f 12 25 26
f 12 23 25
f 12 14 23
f 11 23 13
f 10 22 21
f 10 20 22
f 9 20 10
f 8 18 19
f 13 23 28
f 7 15 16
f 8 17 18
f 3 31 17
f 3 17 8
f 4 9 10
f 5 11 6
f 3 48 31
f 6 13 14
f 6 14 12
f 3 47 48
f 6 11 13

