# https://github.com/mikedh/trimesh
v -0.31813100 0.49428700 -0.31857800
v -0.37883200 0.50000700 -0.31857800
v -0.31813100 0.23040900 -0.31857800
v -0.31813100 0.48485300 -0.48482800
v -0.32327000 0.47981900 -0.62629600
v -0.33336100 0.48485300 -0.62122100
v -0.37883200 0.50000700 -0.62122100
v -0.44700900 0.51136700 -0.61366400
v -0.40913600 0.50000700 -0.31857800
v -0.63627600 0.23040900 -0.31857800
v -0.31813100 0.23040900 -0.69701100
v -0.31813100 0.48482500 -0.48493900
v -0.31822400 0.46972500 -0.62122100
v -0.32199300 0.46972500 -0.63826100
v -0.32579200 0.47728900 -0.64018700
v -0.33336100 0.48108400 -0.63826100
v -0.37883200 0.49497400 -0.63133400
v -0.37883200 0.48991300 -0.64144700
v -0.45457700 0.48991300 -0.65659700
v -0.45457700 0.49497400 -0.64648500
v -0.46217600 0.49623900 -0.64396600
v -0.45457700 0.50570100 -0.62122100
v -0.52275300 0.48108400 -0.52272300
v -0.51515400 0.48485300 -0.50005300
v -0.51515400 0.48485300 -0.46975100
v -0.46974400 0.49225100 -0.31857800
v -0.63627600 0.24212600 -0.31857800
v -0.62123300 0.23040900 -0.42429900
v -0.34541400 0.23040900 -0.69701100
v -0.31813100 0.27276600 -0.69701100
v -0.31813100 0.45457000 -0.56061800
v -0.31813100 0.42423300 -0.62125800
v -0.31813100 0.41917200 -0.63133400
v -0.31813100 0.40916000 -0.64196500
v -0.31813100 0.38889000 -0.66163500
v -0.32199300 0.46213400 -0.64396600
v -0.33716000 0.45457000 -0.66859900
v -0.34852800 0.45960400 -0.67174800
v -0.34852800 0.47475800 -0.65659700
v -0.42427300 0.44950900 -0.69193700
v -0.45457700 0.44950900 -0.69193700
v -0.46974400 0.46466400 -0.67678600
v -0.47728100 0.46593000 -0.67426700
v -0.46974400 0.47539100 -0.66667300
v -0.52275300 0.46593000 -0.56821200
v -0.58336100 0.42046500 -0.52272300
v -0.52527600 0.47981900 -0.51516600
v -0.52527600 0.47981900 -0.46975100
v -0.48659400 0.48622800 -0.31857800
v -0.48634500 0.48633800 -0.31857800
v -0.63618300 0.25780400 -0.31857800
v -0.62123300 0.24245600 -0.42429900
v -0.61780700 0.23040900 -0.43804200
v -0.42427300 0.24245600 -0.69701100
v -0.42115800 0.23040900 -0.69097300
v -0.36366500 0.42426000 -0.69701100
v -0.35609600 0.43182400 -0.69319600
v -0.34852800 0.43941500 -0.68752800
v -0.34348300 0.42426000 -0.68689900
v -0.31813100 0.34851300 -0.68182400
v -0.31813100 0.36872900 -0.67174800
v -0.34096000 0.44697900 -0.67804500
v -0.41670500 0.44697900 -0.69319600
v -0.42427300 0.43941500 -0.69701100
v -0.46217600 0.45077500 -0.68941800
v -0.45457700 0.43941500 -0.69701100
v -0.46974400 0.45267200 -0.68563900
v -0.47980400 0.45960400 -0.67678600
v -0.57199300 0.41100300 -0.56061800
v -0.58588400 0.41413900 -0.52527900
v -0.58588400 0.41920000 -0.51516600
v -0.58083800 0.42929400 -0.46975100
v -0.60102000 0.40404500 -0.39399800
v -0.61114200 0.38385600 -0.31857800
v -0.62123300 0.36366800 -0.31857800
v -0.62123300 0.36366800 -0.33335800
v -0.62123300 0.34851300 -0.37884700
v -0.62123300 0.31820300 -0.40914900
v -0.60606600 0.34851300 -0.46975100
v -0.59092900 0.40910500 -0.51516600
v -0.60264000 0.23040900 -0.48349400
v -0.45457700 0.25761100 -0.69701100
v -0.44700900 0.23486500 -0.68941800
v -0.43096900 0.23040900 -0.68852900
v -0.46469900 0.44444900 -0.69193700
v -0.50001700 0.30304900 -0.69701100
v -0.47479000 0.43435400 -0.68689900
v -0.51010800 0.30810900 -0.69193700
v -0.55558000 0.39901100 -0.60103200
v -0.57071600 0.39901100 -0.57073100
v -0.60102000 0.40404500 -0.42429900
v -0.60229700 0.40151400 -0.38640400
v -0.61126700 0.38360900 -0.31857800
v -0.61114200 0.38385600 -0.33335800
v -0.60606600 0.39395100 -0.42429900
v -0.59653500 0.23040900 -0.50168300
v -0.57576200 0.39395100 -0.56061800
v -0.48485000 0.27276600 -0.69701100
v -0.50758500 0.26517500 -0.68941800
v -0.44255500 0.23040900 -0.68497200
v -0.45965300 0.23739600 -0.68689900
v -0.49497200 0.35357400 -0.69193700
v -0.50001700 0.28792100 -0.69701100
v -0.51010800 0.29295400 -0.69193700
v -0.52275300 0.26897100 -0.67426700
v -0.59015100 0.23040900 -0.51438800
v -0.57576200 0.36366800 -0.56061800
v -0.52275300 0.26517500 -0.67426700
v -0.52023000 0.25255000 -0.67174800
v -0.50254000 0.25508100 -0.68438000
v -0.46840500 0.23040900 -0.66537700
v -0.47728100 0.23486500 -0.67426700
v -0.56567100 0.23040900 -0.55050600
f 54 55 83
f 55 84 83
f 54 83 82
f 53 80 81
f 51 77 78
f 52 79 53
f 52 78 79
f 51 78 52
f 51 76 77
f 53 79 80
f 56 64 63
f 65 85 67
f 57 63 58
f 58 62 59
f 59 62 60
f 65 66 85
f 66 86 85
f 67 85 68
f 68 85 87
f 68 87 88
f 68 88 89
f 51 75 76
f 69 89 90
f 56 63 57
f 68 89 69
f 42 65 43
f 48 73 74
f 35 61 36
f 69 90 70
f 36 61 60
f 36 60 62
f 36 62 37
f 37 62 38
f 38 62 58
f 38 58 63
f 38 63 40
f 40 63 64
f 40 64 66
f 40 66 41
f 41 65 42
f 41 66 65
f 43 65 67
f 43 67 68
f 43 68 69
f 43 69 46
f 111 113 112
f 43 46 45
f 46 70 71
f 46 69 70
f 47 71 72
f 47 72 48
f 48 72 73
f 48 74 49
f 70 80 71
f 86 88 102
f 71 80 95
f 88 105 89
f 89 105 90
f 90 105 97
f 91 94 92
f 92 94 93
f 96 97 107
f 96 107 108
f 96 108 109
f 96 109 106
f 97 105 108
f 97 108 107
f 88 108 105
f 98 99 103
f 99 110 109
f 99 109 108
f 99 108 104
f 99 104 103
f 100 111 112
f 100 112 101
f 101 112 109
f 101 109 110
f 106 109 113
f 109 112 113
f 30 59 60
f 99 101 110
f 88 104 108
f 87 102 88
f 86 104 88
f 71 95 91
f 71 91 72
f 72 91 73
f 73 92 74
f 73 91 92
f 74 92 93
f 75 93 76
f 76 93 94
f 76 94 91
f 76 91 95
f 76 95 77
f 77 95 80
f 77 80 78
f 78 80 79
f 80 96 81
f 80 90 97
f 80 97 96
f 82 83 99
f 82 99 98
f 83 84 100
f 83 100 101
f 83 101 99
f 85 86 102
f 85 102 87
f 86 103 104
f 70 90 80
f 30 58 59
f 19 43 44
f 30 56 57
f 3 10 28
f 3 28 53
f 3 53 81
f 3 81 96
f 3 96 106
f 3 106 113
f 3 113 111
f 3 111 100
f 3 100 84
f 3 84 55
f 3 55 29
f 2 8 9
f 3 29 11
f 4 13 5
f 5 13 14
f 5 14 15
f 5 15 16
f 5 16 6
f 6 16 7
f 7 16 17
f 7 17 8
f 8 17 18
f 8 18 19
f 8 19 20
f 4 12 13
f 8 20 21
f 1 7 8
f 1 5 6
f 30 57 58
f 1 2 9
f 1 9 26
f 1 26 50
f 1 50 49
f 1 49 74
f 1 74 93
f 1 93 75
f 1 75 51
f 1 51 27
f 1 27 10
f 1 6 7
f 1 10 3
f 1 11 30
f 1 30 60
f 1 60 61
f 1 61 35
f 1 35 34
f 1 34 33
f 1 33 32
f 1 32 31
f 1 31 12
f 1 12 4
f 1 4 5
f 1 3 11
f 8 21 22
f 1 8 2
f 8 23 24
f 18 39 19
f 19 39 38
f 19 38 40
f 19 40 41
f 19 41 42
f 19 42 43
f 19 44 21
f 19 21 20
f 21 44 43
f 21 43 45
f 21 23 22
f 16 39 18
f 23 46 71
f 23 47 48
f 23 48 25
f 23 25 24
f 23 45 46
f 25 48 49
f 25 49 50
f 25 50 26
f 27 51 52
f 28 52 53
f 8 22 23
f 29 55 54
f 23 71 47
f 16 18 17
f 21 45 23
f 8 25 26
f 8 24 25
f 15 39 16
f 8 26 9
f 10 27 52
f 10 52 28
f 11 29 54
f 11 54 82
f 11 82 98
f 11 103 86
f 11 86 66
f 11 66 64
f 11 64 56
f 11 98 103
f 13 36 14
f 12 31 13
f 13 31 32
f 13 32 33
f 15 38 39
f 13 33 34
f 13 34 35
f 13 35 36
f 14 36 15
f 15 36 37
f 11 56 30
f 15 37 38

