# https://github.com/mikedh/trimesh
v -0.62124900 0.15967500 0.03846740
v -0.62124900 0.16663700 0.06061430
v -0.62124900 0.22726300 0.03846740
v -0.60958500 -0.09088920 0.03846740
v -0.62124900 0.18182100 0.07575900
v -0.62124900 0.22726300 0.04545810
v -0.61731200 0.24940900 0.03846740
v -0.60435900 -0.10179800 0.03846740
v -0.60104100 -0.10097500 0.05050830
v -0.60230400 -0.06814060 0.06818090
v -0.61746000 0.20292500 0.09728980
v -0.62124900 0.19695000 0.07575900
v -0.61725000 0.20495300 0.09728980
v -0.60609300 0.27270600 0.09728980
v -0.60609300 0.28789000 0.07575900
v -0.60609300 0.30301900 0.04545810
v -0.60609300 0.30301900 0.03846740
v -0.59892300 -0.10404500 0.03846740
v -0.58335900 -0.10223600 0.08333710
v -0.58588500 -0.10097500 0.08080920
v -0.58335900 -0.09845390 0.08712620
v -0.58588500 -0.09088920 0.08585930
v -0.59093700 -0.02390400 0.09728980
v -0.59423000 0.30937800 0.09728980
v -0.60230400 0.29545500 0.08333710
v -0.60230400 0.31058400 0.05303620
v -0.59598900 0.32324600 0.04545810
v -0.59831700 0.31858700 0.03846740
v -0.49474900 -0.13178200 0.03846740
v -0.49474900 -0.13178200 0.08034850
v -0.59093700 -0.10601800 0.04545810
v -0.56796700 -0.09823460 0.09728980
v -0.56970100 -0.09724790 0.09728980
v -0.51519200 -0.12120300 0.09728980
v -0.57502500 -0.09116330 0.09728980
v -0.58017600 -0.07576000 0.09728980
v -0.59093700 0.31814800 0.09728980
v -0.58880700 0.32242400 0.09728980
v -0.58588500 0.32828900 0.09728980
v -0.57871500 0.34265100 0.09728980
v -0.57074100 0.35860300 0.09728980
v -0.58714800 0.34089700 0.05303620
v -0.59598900 0.32324600 0.03846740
v -0.58317300 0.34884500 0.03846740
v -0.49474900 0.42821900 0.03846740
v -0.49474900 -0.12761600 0.09728980
v -0.56568900 0.36868900 0.09728980
v -0.58083300 0.35350500 0.04545810
v -0.58083300 0.35350500 0.03846740
v -0.49915700 0.42597200 0.03846740
v -0.52024400 0.41413100 0.09728980
v -0.51598500 0.41626900 0.09728980
v -0.49474900 0.42690400 0.09728980
v -0.55686000 0.38634000 0.06818090
v -0.53538800 0.39900200 0.09728980
v -0.55559700 0.38886100 0.06061430
v -0.55559700 0.38886100 0.03846740
v -0.52490000 0.41182900 0.03846740
v -0.54680500 0.39828900 0.03846740
f 19 31 30
f 19 30 34
f 19 34 32
f 21 33 35
f 21 35 36
f 24 37 25
f 21 23 22
f 25 37 26
f 19 21 20
f 26 37 38
f 21 36 23
f 19 33 21
f 14 25 15
f 18 31 19
f 18 30 31
f 18 29 30
f 16 28 17
f 16 27 28
f 16 26 27
f 15 26 16
f 15 25 26
f 14 24 25
f 11 14 13
f 11 24 14
f 26 38 39
f 19 32 33
f 26 39 40
f 48 57 49
f 26 41 42
f 56 59 57
f 51 54 55
f 51 56 54
f 51 59 56
f 51 58 59
f 50 58 51
f 11 37 24
f 48 56 57
f 48 54 56
f 47 55 54
f 47 54 48
f 45 52 53
f 45 51 52
f 45 50 51
f 44 48 49
f 42 48 44
f 42 47 48
f 41 47 42
f 30 46 34
f 29 46 30
f 29 53 46
f 29 45 53
f 27 42 44
f 27 43 28
f 26 42 27
f 26 40 41
f 11 38 37
f 27 44 43
f 11 40 39
f 4 10 11
f 4 9 10
f 4 8 9
f 3 6 7
f 2 4 5
f 1 4 2
f 1 8 4
f 1 18 8
f 1 29 18
f 1 45 29
f 1 50 45
f 1 58 50
f 1 59 58
f 1 57 59
f 1 49 57
f 1 44 49
f 1 43 44
f 1 28 43
f 1 17 28
f 1 7 17
f 1 3 7
f 1 6 3
f 1 12 6
f 1 2 5
f 11 39 38
f 4 11 5
f 5 11 12
f 1 5 12
f 6 13 14
f 6 12 13
f 11 47 41
f 11 55 47
f 11 51 55
f 11 52 51
f 11 53 52
f 11 46 53
f 11 34 46
f 11 32 34
f 11 33 32
f 11 35 33
f 11 36 35
f 11 23 36
f 11 41 40
f 10 23 11
f 10 22 23
f 10 21 22
f 10 20 21
f 9 20 10
f 9 19 20
f 9 18 19
f 8 18 9
f 11 13 12
f 7 16 17
f 6 16 7
f 6 14 15
f 6 15 16

