# https://github.com/mikedh/trimesh
v -0.63639100 -0.07572300 -0.01514250
v -0.62124500 0.04018700 -0.06589220
v -0.63134200 -0.07069720 -0.02524550
v -0.62629400 -0.09593190 -0.02019910
v -0.61619700 -0.11614100 0.00504290
v -0.61745900 -0.10603600 0.01704590
v -0.62124500 -0.09090610 0.01514580
v -0.62124500 0.15964100 0.03846740
v -0.62124500 0.22725100 0.03846740
v -0.63639100 0.19693800 -0.04545130
v -0.63639100 0.19164800 -0.06589220
v -0.61904700 0.03034710 -0.06589220
v -0.59094300 -0.07572300 -0.06589220
v -0.58829900 -0.08101330 -0.06589220
v -0.58083500 -0.09593190 -0.06589220
v -0.61367300 -0.11360100 -0.00758322
v -0.60608900 -0.12116600 -0.00000346
v -0.59094300 -0.10603600 0.03846740
v -0.59893000 -0.10402600 0.03846740
v -0.61367300 -0.11360100 0.01135600
v -0.60435900 -0.10180400 0.03846740
v -0.60958200 -0.09090610 0.03846740
v -0.61619700 -0.09090610 0.02524880
v -0.61730700 0.24941700 0.03846740
v -0.61745900 0.24999900 0.03787490
v -0.62124500 0.24243400 0.03029510
v -0.63639100 0.21212100 -0.06060060
v -0.63639100 0.21212100 -0.06589220
v -0.58038900 -0.09619640 -0.06589220
v -0.56064100 -0.10603600 -0.06589220
v -0.57074900 -0.10101100 -0.06589220
v -0.52524700 -0.11619400 -0.06588190
v -0.52524700 -0.11619400 -0.01013700
v -0.52524700 -0.11614100 0.02018200
v -0.52529100 -0.11614100 0.02020240
v -0.52524700 -0.11238500 0.03222580
v -0.52524700 -0.10958100 0.03846740
v -0.60608900 0.30300800 0.03846740
v -0.62124500 0.28787800 -0.06060060
v -0.62124500 0.28787800 -0.06589220
v -0.52529100 -0.11614100 -0.06589220
v -0.52524700 -0.11608800 -0.06589220
v -0.52524700 0.41156400 0.03846740
v -0.60336900 0.30845700 0.03846740
v -0.57201100 0.38638300 0.00756608
v -0.61745900 0.29544300 -0.05303110
v -0.60806900 0.31819100 -0.06589220
v -0.52524700 0.41923500 -0.06589220
v -0.52524700 0.41923500 -0.00000346
v -0.53538800 0.41415700 -0.00000346
v -0.55054400 0.39897400 0.03029510
v -0.54680100 0.39828600 0.03846740
v -0.58822300 0.33877000 0.03846740
v -0.58083500 0.35353000 0.03846740
v -0.55559300 0.38886900 0.03846740
v -0.57074900 0.38886900 -0.00000346
v -0.58962700 0.35506400 -0.06589220
v -0.59292400 0.34850400 -0.06589220
v -0.53538800 0.41415700 -0.06589220
v -0.57074900 0.38886900 -0.06589220
f 24 38 25
f 25 38 26
f 26 38 39
f 26 39 27
f 9 24 25
f 27 40 28
f 30 41 32
f 32 41 42
f 32 42 48
f 9 25 26
f 27 39 40
f 19 21 20
f 17 32 33
f 17 36 18
f 17 35 36
f 17 34 35
f 17 33 34
f 17 30 32
f 16 31 30
f 16 29 31
f 16 30 17
f 15 29 16
f 10 26 27
f 9 26 10
f 32 48 49
f 18 36 37
f 32 49 43
f 44 53 45
f 32 37 36
f 56 60 57
f 8 24 9
f 51 55 52
f 50 56 51
f 50 60 56
f 50 59 60
f 48 50 49
f 48 59 50
f 45 47 46
f 45 58 47
f 45 57 58
f 45 56 57
f 32 43 37
f 45 51 56
f 45 54 55
f 45 53 54
f 43 51 52
f 43 50 51
f 43 49 50
f 39 47 40
f 39 46 47
f 38 46 39
f 38 45 46
f 38 44 45
f 34 36 35
f 32 36 34
f 45 55 51
f 8 38 24
f 32 34 33
f 8 53 44
f 2 31 29
f 2 30 31
f 2 41 30
f 2 42 41
f 2 48 42
f 2 59 48
f 2 60 59
f 2 57 60
f 2 58 57
f 2 47 58
f 2 40 47
f 2 28 40
f 2 29 15
f 2 11 28
f 1 11 2
f 1 28 11
f 1 27 28
f 1 10 27
f 1 9 10
f 1 8 9
f 1 7 8
f 1 6 7
f 1 5 6
f 1 3 4
f 1 2 3
f 8 44 38
f 2 12 3
f 2 15 14
f 1 4 5
f 2 13 12
f 2 14 13
f 8 54 53
f 8 55 54
f 8 43 52
f 8 37 43
f 8 18 37
f 8 19 18
f 8 21 19
f 8 22 21
f 8 23 22
f 7 23 8
f 6 23 7
f 6 22 23
f 8 52 55
f 5 21 6
f 3 12 13
f 6 21 22
f 4 14 15
f 4 15 16
f 4 16 5
f 4 13 14
f 5 17 18
f 5 18 19
f 5 19 20
f 5 20 21
f 5 16 17
f 3 13 4

