# https://github.com/mikedh/trimesh
v -0.22720300 0.51518200 0.07575900
v -0.22720300 0.51518200 0.03846740
v -0.24233700 0.51518200 0.09090950
v 0.20335500 0.48480900 0.09728980
v 0.22724500 0.48480900 0.04545810
v 0.22724500 0.48480900 0.03846740
v -0.29487300 0.51518200 0.03846740
v -0.25757900 0.51518200 0.09728980
v 0.21924600 0.48180100 0.09728980
v 0.24075800 0.48323000 0.03846740
v -0.37054300 0.49999600 0.03846740
v -0.36362400 0.49999600 0.09728980
v -0.28784700 0.51518200 0.06061430
v -0.26633500 0.51518200 0.09728980
v 0.22681300 0.48022300 0.09728980
v 0.30302300 0.46969700 0.04545810
v 0.30302300 0.46811800 0.03846740
v -0.37973100 0.49796600 0.03846740
v -0.42416000 0.48480900 0.09728980
v -0.27271300 0.51518200 0.09090950
v 0.27145800 0.46841900 0.09728980
v 0.27264700 0.46969700 0.09090950
v 0.31059000 0.46210400 0.06818090
v 0.37707100 0.43774500 0.03846740
v 0.35588300 0.44684200 0.03846740
v 0.31307600 0.46466000 0.04040800
v 0.31145500 0.46481000 0.03846740
v -0.42416000 0.48480900 0.03846740
v -0.43010500 0.48195200 0.09728980
v 0.29264500 0.45932200 0.09728980
v 0.37123300 0.43180500 0.08333710
v 0.38517800 0.43240700 0.03846740
v 0.54040800 0.32827900 0.09728980
v -0.42891600 0.48247800 0.03846740
v -0.43432100 0.47977200 0.03846740
v -0.43432100 0.47977200 0.09728980
v 0.35480200 0.43240700 0.09728980
v 0.35837000 0.43060200 0.09728980
v 0.54040800 0.32827900 0.03846740
v 0.55186700 0.30542400 0.09728980
v 0.56754100 0.28083900 0.03846740
v -0.49474900 0.42819600 0.03846740
v -0.49474900 0.42684300 0.09728980
v 0.56062300 0.28783100 0.09728980
v 0.59089100 0.22723400 0.04545810
v 0.59089100 0.22723400 0.03846740
v -0.49474900 -0.13176100 0.03846740
v -0.49474900 -0.12762600 0.09728980
v 0.57575700 0.24242100 0.09728980
v 0.59089100 0.18182400 0.09728980
v 0.60602500 0.15145000 0.06061430
v 0.60743000 0.14453400 0.03846740
v -0.49474900 -0.13176100 0.08034850
v -0.48480300 -0.18875000 0.03846740
v -0.47312900 -0.25288000 0.03850190
v -0.46967000 -0.25288000 0.07575900
v -0.45961600 -0.25288000 0.09595960
v -0.45886000 -0.25288000 0.09728980
v 0.60472700 0.11994900 0.09728980
v 0.60602500 0.12122700 0.09090950
v 0.60959200 0.12942200 0.03846740
v -0.47312900 -0.25288000 0.03846740
v 0.42258000 -0.25288000 0.09728980
v 0.60602500 0.10611500 0.09728980
v 0.60959200 0.10957400 0.03846740
v 0.43933600 -0.25288000 0.03846740
v 0.43501200 -0.25288000 0.07340380
v 0.54462400 -0.15942800 0.09728980
v 0.60602500 0.03033170 0.09728980
v 0.60602500 0.00003322 0.04545810
v 0.60602500 0.00003322 0.03846740
v 0.54040800 -0.16160900 0.03846740
v 0.43933600 -0.25288000 0.06061430
v 0.43803900 -0.25288000 0.06599850
v 0.55089400 -0.15363900 0.09728980
v 0.59089100 -0.05417320 0.09728980
v 0.59089100 -0.06056370 0.09090950
v 0.60224100 -0.02222070 0.03846740
v 0.54819200 -0.14604600 0.03846740
v 0.55586700 -0.14506900 0.09728980
v 0.58926900 -0.06139070 0.09728980
v 0.59089100 -0.06056370 0.04545810
v 0.58743200 -0.06755570 0.03846740
f 36 42 43
f 33 41 39
f 33 40 41
f 40 44 41
f 41 44 45
f 35 42 36
f 41 45 46
f 44 49 45
f 42 53 48
f 42 48 43
f 45 50 51
f 45 51 52
f 45 52 46
f 32 33 39
f 45 49 50
f 47 54 53
f 42 47 53
f 31 38 33
f 21 30 31
f 30 37 31
f 16 23 24
f 48 53 55
f 16 24 25
f 16 25 26
f 16 26 17
f 17 26 27
f 18 28 19
f 19 28 29
f 21 31 23
f 21 23 22
f 23 31 24
f 24 31 33
f 24 33 32
f 25 27 26
f 28 34 29
f 29 34 35
f 29 35 36
f 31 37 38
f 48 55 56
f 68 72 75
f 48 57 58
f 66 72 68
f 66 68 73
f 67 74 68
f 68 74 73
f 69 76 77
f 69 77 70
f 70 77 78
f 65 70 71
f 70 78 71
f 72 80 75
f 76 81 77
f 77 82 78
f 77 81 80
f 77 80 82
f 78 82 83
f 16 22 23
f 72 79 80
f 65 69 70
f 63 67 68
f 61 69 65
f 50 59 60
f 50 60 51
f 51 60 61
f 51 61 52
f 53 54 55
f 54 62 55
f 55 62 66
f 55 66 73
f 55 73 74
f 55 74 67
f 55 67 63
f 55 63 58
f 55 58 57
f 55 57 56
f 59 64 60
f 60 64 61
f 61 64 69
f 48 56 57
f 15 22 16
f 2 78 83
f 12 20 13
f 2 52 61
f 2 61 65
f 2 65 71
f 2 71 78
f 2 83 79
f 2 79 72
f 2 72 66
f 2 46 52
f 2 66 62
f 2 54 47
f 2 47 42
f 2 42 35
f 2 35 34
f 2 34 28
f 2 28 18
f 2 18 11
f 2 62 54
f 2 41 46
f 2 39 41
f 2 32 39
f 79 83 80
f 1 2 7
f 1 7 13
f 1 13 20
f 1 20 14
f 1 14 8
f 1 8 3
f 1 3 4
f 1 4 5
f 1 5 6
f 1 6 2
f 2 6 10
f 2 10 17
f 2 17 27
f 2 27 25
f 2 25 24
f 2 24 32
f 2 11 7
f 15 21 22
f 3 8 4
f 4 10 5
f 4 40 33
f 4 33 38
f 4 38 37
f 4 37 30
f 4 30 21
f 4 21 15
f 4 15 9
f 4 44 40
f 5 10 6
f 7 12 13
f 9 15 16
f 9 16 10
f 10 16 17
f 11 18 12
f 12 18 19
f 12 14 20
f 7 11 12
f 4 49 44
f 4 50 49
f 4 59 50
f 4 8 14
f 4 14 12
f 4 12 19
f 4 19 29
f 4 29 36
f 4 36 43
f 4 43 48
f 4 48 58
f 4 58 63
f 4 63 68
f 4 68 75
f 4 75 80
f 4 80 81
f 4 81 76
f 4 76 69
f 4 69 64
f 4 64 59
f 4 9 10
f 80 83 82

