# https://github.com/mikedh/trimesh
v 0.00023792 0.10532900 -0.75462500
v 0.00023792 0.07670120 -0.71831300
v 0.00023792 0.10532900 -0.59348300
v 0.08441270 0.10532900 -0.75462500
v 0.01398360 0.07670120 -0.71831300
v 0.00023792 -0.04881050 -0.50908000
v 0.00023792 0.08781620 -0.56072000
v 0.54539000 0.10532900 -0.22917700
v 0.11856400 0.09763250 -0.73919500
v 0.20996600 0.10532900 -0.73369200
v 0.01398360 -0.04881050 -0.50908000
v 0.07676050 0.05578890 -0.67644600
v 0.00023792 -0.05242000 -0.50187900
v 0.00023792 0.02788680 -0.45332600
v 0.54454000 0.10492800 -0.22917700
v 0.72408400 0.10532900 -0.22917700
v 0.00023792 -0.03486900 -0.34870900
v 0.00023792 -0.07671260 -0.28596000
v 0.03580670 -0.08977560 -0.25983100
v 0.13252300 0.09064270 -0.72525700
v 0.19530000 0.04879910 -0.64157400
v 0.17439800 0.06973040 -0.68344100
v 0.31461800 0.10532900 -0.69182500
v 0.27897800 0.09064270 -0.68344100
v 0.00023792 -0.06252280 -0.48171700
v 0.11856400 -0.02787910 -0.53001400
v 0.06974590 -0.07671260 -0.45332600
v 0.09071870 0.04879910 -0.66250700
v 0.18545100 -0.06846230 -0.22917700
v 0.67710800 0.07702580 -0.22917700
v 0.67647000 0.07670120 -0.23015400
v 0.69737200 0.09763250 -0.27202100
v 0.70778800 0.10532900 -0.27202100
v 0.00023792 -0.08977560 -0.27731900
v 0.14293800 -0.08977560 -0.22917700
v 0.14364700 -0.08939360 -0.22917700
v 0.15349600 -0.07671260 -0.43239200
v 0.13252300 -0.03486900 -0.51602400
v 0.39822600 0.10532900 -0.65000900
v 0.36095700 0.07322540 -0.61714300
v 0.34175500 0.06973040 -0.62064000
v 0.29988000 0.04879910 -0.59975800
v 0.23717400 -0.03486900 -0.47425900
v 0.00023792 -0.08368330 -0.43938700
v 0.06280220 -0.08368330 -0.43938700
v 0.09688300 -0.08977560 -0.42642600
v 0.07498910 -0.08977560 -0.42719700
v 0.48877800 -0.02757360 -0.22917700
v 0.61369400 0.05578890 -0.29295500
v 0.63459600 0.07670120 -0.33477000
v 0.48814000 -0.02787910 -0.23015400
v 0.69071200 0.10532900 -0.31671700
v 0.69184600 0.10532900 -0.31383700
v 0.00023792 -0.08977560 -0.42719700
v 0.37314400 -0.08977560 -0.22917700
v 0.22647500 -0.08977560 -0.37591800
v 0.12182400 -0.08977560 -0.41778500
v 0.11048700 -0.08977560 -0.42189900
v 0.41877400 0.10532900 -0.63951600
v 0.42366300 0.09413760 -0.61714300
v 0.36095700 0.05229400 -0.57532700
v 0.29818000 -0.01044270 -0.49169500
v 0.27897800 -0.01393760 -0.49514100
v 0.22881400 -0.08977560 -0.37488900
v 0.50904200 -0.00696689 -0.27202100
v 0.60930100 0.06799250 -0.35570400
v 0.63991000 0.10532900 -0.41845300
v 0.66081200 0.10532900 -0.37663800
v 0.67271500 0.10532900 -0.35282400
v 0.46284500 -0.03660690 -0.25108700
v 0.37179700 -0.08977560 -0.23190300
v 0.48374700 -0.01567560 -0.29295500
v 0.52335400 0.10532900 -0.55583300
v 0.38178800 -0.03137410 -0.38707900
v 0.29818000 -0.05228630 -0.40801200
v 0.52824300 0.09413760 -0.53346000
v 0.44456500 0.05229400 -0.51257700
v 0.31908200 -0.07321760 -0.34521200
v 0.31015400 -0.08977560 -0.31316800
v 0.56749700 0.04706120 -0.35570400
v 0.60930100 0.08890480 -0.41845300
v 0.61192200 0.09413760 -0.42894600
v 0.55616000 0.10532900 -0.52301900
v 0.33743300 -0.07845050 -0.31383700
v 0.40006800 -0.05751910 -0.29295500
v 0.44194300 -0.03660690 -0.29295500
v 0.54432700 0.10532900 -0.53490000
v 0.37916600 -0.03660690 -0.37663800
v 0.46546700 0.03138180 -0.44982800
v 0.46284500 0.02614890 -0.43938700
f 41 63 43
f 41 43 42
f 50 65 72
f 40 62 41
f 43 64 56
f 40 61 62
f 41 62 63
f 43 63 64
f 50 68 69
f 44 47 54
f 48 55 51
f 49 51 65
f 49 65 50
f 50 66 67
f 50 67 68
f 50 69 52
f 40 60 61
f 44 45 47
f 40 59 60
f 27 38 46
f 37 46 38
f 24 42 43
f 25 27 45
f 25 45 44
f 26 38 27
f 50 72 66
f 27 46 47
f 27 47 45
f 30 48 31
f 31 49 50
f 31 50 32
f 31 48 51
f 31 51 49
f 32 52 53
f 32 53 33
f 32 50 52
f 37 43 56
f 37 56 57
f 37 57 58
f 37 58 46
f 39 59 40
f 51 70 65
f 66 72 86
f 55 71 72
f 73 87 76
f 74 88 79
f 74 79 78
f 74 78 75
f 74 77 76
f 85 88 90
f 74 89 90
f 74 90 88
f 71 86 72
f 76 87 83
f 79 88 84
f 80 86 85
f 80 85 81
f 81 90 82
f 81 85 90
f 82 90 89
f 84 88 85
f 24 41 42
f 76 82 89
f 71 85 86
f 71 84 85
f 71 79 84
f 55 72 70
f 59 73 76
f 59 76 60
f 60 74 75
f 60 75 61
f 60 76 77
f 60 77 74
f 61 75 62
f 62 75 64
f 62 64 63
f 64 75 78
f 64 78 79
f 65 70 72
f 66 80 81
f 66 81 67
f 66 86 80
f 67 81 82
f 67 82 76
f 67 76 83
f 51 55 70
f 23 41 24
f 74 76 89
f 23 39 40
f 1 73 59
f 1 39 23
f 1 23 10
f 1 10 4
f 1 4 5
f 1 5 2
f 2 5 11
f 2 11 6
f 1 87 73
f 3 7 8
f 4 10 9
f 5 9 12
f 5 12 11
f 6 11 13
f 7 14 8
f 8 15 29
f 8 29 36
f 8 36 35
f 4 9 5
f 1 83 87
f 1 67 83
f 1 68 67
f 23 40 41
f 1 2 6
f 1 6 13
f 1 13 25
f 1 25 44
f 1 44 54
f 1 54 34
f 1 34 18
f 1 18 17
f 1 17 14
f 1 14 7
f 1 7 3
f 1 3 8
f 1 8 16
f 1 16 33
f 1 33 53
f 1 53 52
f 1 52 69
f 1 69 68
f 8 35 55
f 8 55 48
f 1 59 39
f 8 30 16
f 19 54 47
f 19 47 46
f 19 46 58
f 19 58 57
f 19 57 56
f 19 56 64
f 19 64 79
f 19 79 71
f 19 71 55
f 19 55 35
f 19 35 36
f 19 36 29
f 20 22 28
f 21 37 38
f 21 38 22
f 21 24 43
f 8 48 30
f 22 38 26
f 22 26 28
f 19 34 54
f 18 34 19
f 21 43 37
f 16 31 32
f 16 32 33
f 8 14 17
f 8 18 19
f 8 19 15
f 9 10 20
f 9 20 28
f 9 28 12
f 10 21 22
f 10 22 20
f 8 17 18
f 10 24 21
f 11 25 13
f 11 12 26
f 11 26 27
f 11 27 25
f 12 28 26
f 15 19 29
f 10 23 24
f 16 30 31

