# https://github.com/mikedh/trimesh
v 0.36486700 0.19415800 0.88457900
v 0.36486700 0.17322900 0.88457900
v 0.36486700 0.19748300 0.88121000
v 0.36262900 0.19526600 0.88565300
v 0.33474200 0.18829000 0.89961600
v 0.33474200 0.16737200 0.89961600
v 0.34866700 0.16039600 0.89263400
v 0.36486700 0.16004000 0.87867100
v 0.36486700 0.20318800 0.87266500
v 0.34518600 0.19875400 0.88916800
v 0.30333700 0.19875400 0.91006500
v 0.28941200 0.18480200 0.91704700
v 0.29289300 0.16475800 0.91528900
v 0.34518600 0.15169100 0.88916800
v 0.36486700 0.15391800 0.87564400
v 0.30333700 0.16213500 0.91006500
v 0.36486700 0.20921800 0.85777400
v 0.33474200 0.20921800 0.87867100
v 0.24060000 0.19875400 0.93101000
v 0.22663900 0.18480200 0.93799200
v 0.23012000 0.16475800 0.93623400
v 0.24060000 0.16213500 0.93101000
v 0.27196900 0.14645400 0.89961600
v 0.33474200 0.14645400 0.87867100
v 0.36486700 0.14645400 0.85777400
v 0.21967600 0.15169100 0.93101000
v 0.36486700 0.20921800 0.69045400
v 0.27196900 0.20921800 0.89961600
v 0.20919600 0.20921800 0.92051300
v 0.20223300 0.20224200 0.93447700
v 0.05579870 0.20224200 0.95542200
v 0.20919600 0.18829000 0.94145900
v 0.20919600 0.16737200 0.94145900
v 0.20919600 0.15343000 0.93447700
v 0.20919600 0.14645400 0.92051300
v 0.21065300 0.10532900 0.73366300
v 0.30497200 0.10532900 0.69851000
v 0.34682000 0.10532900 0.67756500
v 0.35708700 0.10532900 0.67097300
v 0.36486700 0.10532900 0.66408900
v 0.04187280 0.15343000 0.95542200
v 0.05231720 0.15169100 0.95190700
v 0.04187280 0.14645400 0.94145900
v 0.36486700 0.20366600 0.66033000
v 0.31381700 0.20921800 0.69045400
v 0.06279710 0.20921800 0.94145900
v 0.00194261 0.20224200 0.95542200
v 0.00194261 0.19023200 0.96142800
v 0.06279710 0.18829000 0.96235500
v 0.04187280 0.16737200 0.96235500
v 0.08514240 0.10532900 0.75460900
v 0.36486700 0.10532900 0.46361700
v 0.00194261 0.15343000 0.95542200
v 0.00194261 0.14710400 0.94277700
v 0.00194261 0.14645400 0.94145900
v 0.36486700 0.20303500 0.65779100
v 0.00194261 0.20921800 0.77409000
v 0.00194261 0.20921800 0.94145900
v 0.00194261 0.18829000 0.96235500
v 0.00194261 0.16737200 0.96235500
v 0.00194261 0.10532900 0.75460900
v 0.00194261 0.10532900 0.59666300
v 0.00194261 0.11053600 0.59925100
v 0.00194261 0.11158300 0.59978800
v 0.00194261 0.17434800 0.70436900
v 0.36486700 0.11015900 0.47201500
v 0.36486700 0.19384200 0.63938400
v 0.07324150 0.20398100 0.74269600
v 0.00194261 0.20224200 0.76012600
v 0.00194261 0.18894100 0.73351700
v 0.36486700 0.13108800 0.51385700
f 33 41 34
f 35 43 51
f 35 51 36
f 33 50 41
f 36 51 61
f 36 61 62
f 36 38 37
f 36 52 40
f 36 40 39
f 36 39 38
f 41 60 53
f 33 49 50
f 41 50 60
f 36 62 52
f 32 49 33
f 25 39 40
f 31 46 58
f 41 53 54
f 24 37 38
f 24 38 39
f 24 39 25
f 26 34 41
f 26 41 42
f 31 58 47
f 26 42 43
f 27 44 45
f 29 46 30
f 30 46 31
f 31 47 48
f 31 48 49
f 31 49 32
f 26 43 35
f 41 54 43
f 57 68 69
f 43 54 55
f 48 59 49
f 49 59 60
f 49 60 50
f 52 62 63
f 52 63 64
f 52 64 65
f 47 59 48
f 52 65 66
f 56 68 57
f 65 70 68
f 65 68 66
f 66 68 71
f 67 71 68
f 68 70 69
f 56 67 68
f 41 43 42
f 47 60 59
f 47 54 53
f 43 55 61
f 43 61 51
f 44 56 45
f 45 56 57
f 47 58 57
f 47 57 69
f 47 53 60
f 47 69 70
f 47 65 64
f 47 64 63
f 47 63 62
f 47 62 61
f 47 61 55
f 47 55 54
f 47 70 65
f 24 36 37
f 23 35 36
f 23 26 35
f 7 13 16
f 7 15 8
f 7 14 15
f 6 13 7
f 6 12 13
f 5 12 6
f 5 11 12
f 4 11 5
f 4 10 11
f 4 9 10
f 3 9 4
f 2 7 8
f 2 6 7
f 1 6 2
f 1 5 6
f 1 4 5
f 1 3 4
f 23 36 24
f 1 2 8
f 1 8 15
f 1 15 25
f 1 25 40
f 1 52 66
f 7 16 14
f 1 66 71
f 1 67 56
f 1 56 44
f 1 44 27
f 1 27 17
f 1 17 9
f 1 9 3
f 1 71 67
f 9 17 18
f 1 40 52
f 10 18 11
f 21 26 22
f 9 18 10
f 21 34 26
f 20 33 21
f 20 32 33
f 19 32 20
f 19 31 32
f 19 30 31
f 19 29 30
f 19 28 29
f 18 28 19
f 17 28 18
f 17 29 28
f 17 46 29
f 17 58 46
f 21 33 34
f 17 45 57
f 17 57 58
f 12 19 20
f 12 20 21
f 12 21 13
f 13 21 22
f 13 22 16
f 11 19 12
f 14 24 25
f 17 27 45
f 14 23 24
f 14 26 23
f 11 18 19
f 14 16 22
f 14 25 15
f 14 22 26

