# https://github.com/mikedh/trimesh
v 0.96240400 0.18829000 0.06279130
v 0.96240400 0.16737200 0.04191880
v 0.96240400 0.18829000 0.00345140
v 0.95538500 0.20224200 0.05580500
v 0.95193400 0.19875400 0.09418620
v 0.93450400 0.20224200 0.20225700
v 0.94146500 0.18829000 0.20924400
v 0.94146500 0.16737200 0.20924400
v 0.95538500 0.15343000 0.04191880
v 0.95655500 0.15572800 0.00345140
v 0.96240400 0.16737200 0.00345140
v 0.93450400 0.15343000 0.20924400
v 0.95538500 0.20224200 0.00345140
v 0.94491500 0.20748900 0.00345140
v 0.94146500 0.20921800 0.06279130
v 0.92052500 0.20921800 0.20924400
v 0.93099500 0.19875400 0.24063800
v 0.93795500 0.18480200 0.22666600
v 0.93620000 0.16475800 0.23020200
v 0.95193400 0.15169100 0.05235510
v 0.95538500 0.15343000 0.00345140
v 0.93099500 0.15169100 0.21968000
v 0.94146500 0.20921800 0.00345140
v 0.87870400 0.20921800 0.33482300
v 0.91005500 0.19875400 0.30342800
v 0.91701600 0.18480200 0.28945600
v 0.91531900 0.16475800 0.29290600
v 0.93099500 0.16213500 0.24063800
v 0.94146500 0.14645400 0.04191880
v 0.94146500 0.14645400 0.00345140
v 0.92052500 0.14645400 0.20924400
v 0.88917400 0.15169100 0.34526000
v 0.77406500 0.20921800 0.00345140
v 0.86823500 0.19875400 0.40804900
v 0.83682500 0.20921800 0.43944400
v 0.89958500 0.18829000 0.33482300
v 0.89958500 0.16737200 0.33482300
v 0.89262500 0.16039600 0.34870900
v 0.75458800 0.10532900 0.08513000
v 0.75458800 0.10532900 0.00345140
v 0.87870400 0.14645400 0.33482300
v 0.73364800 0.10532900 0.21071000
v 0.86823500 0.16213500 0.40804900
v 0.82635600 0.15169100 0.49162500
v 0.81594400 0.14645400 0.48118900
v 0.70662600 0.17549700 0.00345140
v 0.36486700 0.20303500 0.65774300
v 0.36615400 0.20398100 0.65903600
v 0.37662400 0.20921800 0.66947300
v 0.85080500 0.20224200 0.43245800
v 0.84384400 0.19526600 0.46721700
v 0.85776500 0.18829000 0.43944400
v 0.81594400 0.20921800 0.48118900
v 0.87344000 0.16475800 0.39752700
v 0.59666400 0.10532900 0.00345140
v 0.69843700 0.10532900 0.30506700
v 0.82986500 0.16039600 0.49507500
v 0.68340500 0.16039600 0.68344500
v 0.67995400 0.15169100 0.67990900
v 0.66948500 0.14645400 0.66947300
v 0.63450700 0.10532900 0.42529900
v 0.63912800 0.10532900 0.41848600
v 0.65667500 0.10532900 0.38872900
v 0.70434500 0.17434800 0.00345140
v 0.36486700 0.19843900 0.64851400
v 0.36486700 0.20366600 0.66024400
v 0.59976400 0.11158300 0.00345140
v 0.36486700 0.20921800 0.69034500
v 0.82290500 0.19526600 0.50904800
v 0.82290500 0.17434800 0.50904800
v 0.75318400 0.20921800 0.56485200
v 0.81243500 0.20573000 0.49861200
v 0.36486700 0.10532900 0.46359400
v 0.69563000 0.16998500 0.66947300
v 0.69387500 0.19177800 0.67292300
v 0.68340500 0.18131400 0.68344500
v 0.67293500 0.19177800 0.69388100
v 0.66948500 0.16998500 0.69560600
v 0.59280400 0.19526600 0.76012100
v 0.50910400 0.17434800 0.82291100
v 0.49518300 0.16039600 0.82989700
v 0.76014500 0.19526600 0.59271000
v 0.49167400 0.15169100 0.82636100
v 0.48120400 0.14645400 0.81592500
v 0.42534600 0.10532900 0.63445500
v 0.52992700 0.10532900 0.55079300
v 0.55086600 0.10532900 0.52983400
v 0.36486700 0.14028100 0.53216300
v 0.36486700 0.11015900 0.47196100
v 0.36486700 0.11935200 0.49033200
v 0.36486700 0.20921800 0.85775600
v 0.74967500 0.20573000 0.58227400
v 0.66948500 0.20921800 0.66947300
v 0.36486700 0.10532900 0.66403900
v 0.70083500 0.19875400 0.65903600
v 0.65907300 0.19875400 0.70086800
v 0.58233400 0.20573000 0.74968500
v 0.50910400 0.19526600 0.82291100
v 0.49518300 0.18131400 0.82989700
v 0.43938400 0.18829000 0.85775600
v 0.37662400 0.16737200 0.87871500
v 0.39054400 0.16039600 0.87172800
v 0.38709300 0.15169100 0.86819200
v 0.37662400 0.14645400 0.85775600
v 0.38873100 0.10532900 0.65662100
v 0.41844400 0.10532900 0.63902600
v 0.36486700 0.20318800 0.87267700
v 0.37662400 0.20921800 0.85775600
v 0.56490400 0.20921800 0.75313500
v 0.36486700 0.14645400 0.85775600
v 0.48120400 0.20921800 0.81592500
v 0.49869300 0.20573000 0.81238900
v 0.47424400 0.20224200 0.82989700
v 0.44985300 0.19875400 0.84732000
v 0.46728400 0.19526600 0.84378400
v 0.36486700 0.19415800 0.88458000
v 0.36486700 0.17322900 0.88458000
v 0.36486700 0.16004000 0.87871500
v 0.36486700 0.15391800 0.87561000
v 0.36486700 0.19748300 0.88121600
v 0.43242300 0.20224200 0.85077000
v 0.43938400 0.20921800 0.83679700
f 58 74 75
f 58 76 77
f 58 75 76
f 58 77 78
f 57 70 58
f 67 89 90
f 53 72 69
f 53 92 72
f 53 71 92
f 58 78 79
f 52 57 54
f 55 73 67
f 58 79 80
f 65 67 88
f 58 81 59
f 58 70 82
f 58 82 74
f 59 81 83
f 59 83 84
f 59 84 60
f 60 84 85
f 60 85 86
f 60 86 87
f 60 87 61
f 67 73 89
f 52 70 57
f 58 80 81
f 52 69 70
f 45 62 63
f 50 69 51
f 67 90 88
f 45 60 61
f 45 61 62
f 45 63 56
f 46 64 47
f 47 65 88
f 47 88 90
f 47 90 89
f 47 89 73
f 47 73 94
f 47 94 110
f 47 110 119
f 51 69 52
f 47 119 118
f 47 117 116
f 47 116 120
f 47 120 107
f 47 107 91
f 47 91 68
f 47 68 66
f 47 66 48
f 47 64 67
f 47 67 65
f 48 66 68
f 48 68 49
f 50 53 69
f 47 118 117
f 69 82 70
f 107 122 108
f 69 92 82
f 97 111 112
f 97 112 98
f 98 112 111
f 98 111 113
f 98 113 114
f 98 114 115
f 98 115 100
f 98 100 99
f 100 116 117
f 100 117 101
f 100 115 116
f 101 117 118
f 97 109 111
f 101 118 102
f 102 119 103
f 103 119 104
f 104 119 110
f 107 120 121
f 107 121 122
f 45 59 60
f 111 122 121
f 111 121 114
f 111 114 113
f 114 121 116
f 114 116 115
f 116 121 120
f 102 118 119
f 94 104 110
f 94 105 104
f 93 96 95
f 71 93 92
f 74 82 75
f 75 95 96
f 75 96 77
f 75 77 76
f 75 82 95
f 77 96 79
f 77 79 78
f 79 96 97
f 79 97 98
f 79 98 80
f 80 98 99
f 81 99 100
f 81 100 101
f 81 101 102
f 81 102 103
f 81 103 83
f 82 92 95
f 83 103 104
f 83 104 84
f 84 104 105
f 84 105 106
f 84 106 85
f 91 107 108
f 92 93 95
f 93 109 97
f 93 97 96
f 69 72 92
f 44 59 45
f 80 99 81
f 44 57 58
f 6 17 7
f 7 17 18
f 7 18 8
f 8 18 19
f 8 19 12
f 9 20 21
f 9 21 10
f 9 12 20
f 12 19 22
f 12 22 20
f 14 23 15
f 15 23 33
f 6 16 17
f 15 33 49
f 15 68 91
f 15 91 108
f 15 108 122
f 15 122 111
f 15 111 109
f 15 109 93
f 15 93 71
f 15 71 53
f 15 53 35
f 15 35 24
f 15 24 16
f 16 24 17
f 15 49 68
f 6 15 16
f 4 6 5
f 4 15 6
f 1 2 11
f 1 11 3
f 1 3 13
f 1 13 4
f 1 4 5
f 1 5 6
f 1 6 7
f 1 7 8
f 1 8 2
f 2 9 10
f 2 10 11
f 2 8 12
f 2 12 9
f 3 11 10
f 3 10 21
f 3 21 30
f 3 30 40
f 3 40 55
f 3 55 67
f 3 67 64
f 3 64 46
f 3 46 33
f 3 33 23
f 3 23 14
f 3 14 13
f 44 58 59
f 4 14 15
f 17 24 25
f 17 25 26
f 4 13 14
f 18 26 27
f 33 47 48
f 33 48 49
f 34 35 50
f 34 50 51
f 34 51 52
f 35 53 50
f 36 52 37
f 37 54 38
f 37 52 54
f 38 54 43
f 39 42 56
f 39 56 63
f 39 63 62
f 39 61 87
f 39 87 86
f 39 86 85
f 39 85 106
f 39 106 105
f 39 105 94
f 39 94 73
f 39 73 55
f 39 55 40
f 41 56 42
f 41 45 56
f 43 54 57
f 43 57 44
f 17 26 18
f 33 46 47
f 32 45 41
f 39 62 61
f 32 43 44
f 18 27 19
f 32 44 45
f 19 28 22
f 19 27 28
f 20 29 30
f 20 30 21
f 20 22 31
f 20 31 29
f 22 32 41
f 22 41 31
f 24 34 25
f 24 35 34
f 25 34 52
f 22 28 32
f 25 52 36
f 31 42 39
f 31 41 42
f 29 31 39
f 29 40 30
f 32 38 43
f 27 32 28
f 29 39 40
f 27 37 38
f 26 37 27
f 26 36 37
f 25 36 26
f 27 38 32

