# https://github.com/mikedh/trimesh
v 0.00190132 0.18829000 0.96240400
v 0.00190132 0.16737200 0.96240400
v 0.00190132 0.20224200 0.95538200
v -0.06277410 0.18829000 0.96240400
v -0.04187640 0.16737200 0.96240400
v 0.00190132 0.15473100 0.95607400
v 0.00190132 0.20824200 0.94341200
v -0.06975370 0.20224200 0.95538200
v -0.21616100 0.20224200 0.93447500
v -0.20918200 0.18829000 0.94144400
v -0.20918200 0.16737200 0.94144400
v -0.05232520 0.15691800 0.95713700
v -0.21967200 0.15691800 0.93623100
v 0.00190132 0.15343000 0.95538200
v -0.04187640 0.15343000 0.95538200
v 0.00190132 0.20921800 0.94144400
v -0.06277410 0.20921800 0.94144400
v -0.23536600 0.19875400 0.93101700
v -0.23272300 0.18829000 0.93623100
v -0.20918200 0.20921800 0.92053700
v -0.34171300 0.20224200 0.89266100
v -0.24057000 0.17782600 0.93623100
v -0.20918200 0.15343000 0.93447500
v -0.30334500 0.17782600 0.91532400
v -0.28240600 0.15691800 0.91532400
v -0.33473300 0.15343000 0.89266100
v 0.00190132 0.14710400 0.94277400
v -0.04187640 0.14645400 0.94144400
v 0.00190132 0.20921800 0.77408300
v -0.29810000 0.19875400 0.91005700
v -0.29549800 0.18829000 0.91532400
v -0.27195700 0.20921800 0.89963000
v -0.38354900 0.20224200 0.87170100
v -0.41997600 0.18829000 0.85776400
v -0.33473300 0.18829000 0.89963000
v -0.33473300 0.20921800 0.87867000
v -0.41997600 0.20921800 0.83685700
v -0.20918200 0.14645400 0.92053700
v -0.34518200 0.15691800 0.89436400
v -0.35563100 0.15169100 0.88133000
v -0.33473300 0.14645400 0.87867000
v -0.27195700 0.14645400 0.89963000
v 0.00190132 0.14645400 0.94144400
v -0.08371310 0.10532900 0.75461200
v 0.00190132 0.18829000 0.73221600
v -0.41997600 0.11869100 0.44563800
v -0.41997600 0.12514900 0.45856500
v -0.41997600 0.20398100 0.62353200
v -0.39750900 0.20921800 0.64858900
v -0.41997600 0.20261800 0.85228400
v -0.41997600 0.16737200 0.85717800
v -0.38701800 0.15691800 0.87345700
v -0.41997600 0.20921800 0.64704600
v -0.20918200 0.10532900 0.73365200
v -0.39750900 0.15169100 0.86037000
v -0.41840600 0.14645400 0.83685700
v -0.33473300 0.10532900 0.68178400
v -0.31668500 0.10532900 0.69077500
v -0.21207300 0.10532900 0.73258800
v 0.00190132 0.10532900 0.75461200
v 0.00190132 0.17498800 0.70561700
v -0.41997600 0.10532900 0.41893300
v -0.41997600 0.20436800 0.62523500
v -0.41997600 0.16582600 0.85701900
v -0.41997600 0.15394800 0.85106100
v -0.41997600 0.15330800 0.84994300
v -0.41997600 0.14684000 0.83701600
v -0.41997600 0.14645400 0.83531400
v -0.41997600 0.10532900 0.63842800
v -0.41840600 0.10532900 0.63991700
v -0.40035800 0.10532900 0.64896100
v -0.37657000 0.10532900 0.66087800
v 0.00190132 0.10532900 0.59666700
v 0.00190132 0.17434800 0.70434000
v 0.00190132 0.11158300 0.59980600
v -0.01073640 0.10532900 0.59129400
v 0.00190132 0.11053600 0.59927400
f 34 69 68
f 34 62 69
f 34 68 67
f 39 52 40
f 34 46 62
f 34 47 46
f 34 67 66
f 34 66 65
f 38 54 44
f 75 77 76
f 34 51 52
f 34 52 39
f 38 42 54
f 34 48 47
f 40 52 55
f 34 65 64
f 34 63 48
f 26 41 42
f 34 37 53
f 25 39 26
f 40 55 56
f 26 40 41
f 26 39 40
f 27 28 43
f 28 38 44
f 28 44 60
f 28 60 43
f 29 45 46
f 29 46 47
f 29 47 48
f 29 48 49
f 33 50 34
f 33 37 50
f 34 50 37
f 34 53 63
f 40 56 41
f 62 75 76
f 41 72 57
f 51 64 52
f 52 64 65
f 52 65 55
f 55 65 66
f 55 66 67
f 55 67 56
f 56 67 68
f 56 68 69
f 56 69 70
f 56 70 71
f 56 71 72
f 61 74 62
f 62 74 75
f 73 76 77
f 24 39 25
f 49 63 53
f 41 56 72
f 48 63 49
f 45 61 46
f 41 57 58
f 41 58 59
f 41 59 54
f 41 54 42
f 44 54 59
f 44 59 58
f 44 58 57
f 44 57 72
f 44 72 71
f 44 71 70
f 44 70 69
f 44 69 62
f 44 62 76
f 44 76 73
f 44 73 60
f 46 61 62
f 24 34 39
f 34 64 51
f 23 42 38
f 2 5 6
f 3 7 8
f 4 8 9
f 4 9 10
f 4 10 11
f 4 11 5
f 5 12 6
f 5 11 13
f 5 13 12
f 6 12 15
f 6 15 14
f 7 16 17
f 7 17 8
f 8 17 20
f 8 20 9
f 1 5 2
f 9 18 19
f 1 4 5
f 1 3 8
f 1 2 6
f 1 6 14
f 1 14 27
f 1 27 43
f 1 43 60
f 1 60 73
f 1 73 77
f 1 77 75
f 1 75 74
f 1 74 61
f 1 61 45
f 1 45 29
f 1 29 16
f 1 16 7
f 1 7 3
f 1 8 4
f 9 19 10
f 24 35 34
f 9 32 21
f 16 20 17
f 18 30 31
f 18 31 19
f 18 21 30
f 19 31 24
f 19 24 22
f 21 33 34
f 21 34 35
f 21 35 24
f 21 24 31
f 21 32 36
f 21 36 37
f 21 37 33
f 23 26 42
f 9 20 32
f 16 32 20
f 16 36 32
f 21 31 30
f 16 53 37
f 9 21 18
f 16 37 36
f 10 19 22
f 10 22 11
f 12 13 15
f 13 23 15
f 13 22 24
f 13 24 25
f 11 22 13
f 13 26 23
f 14 15 27
f 16 49 53
f 15 23 38
f 15 38 28
f 15 28 27
f 13 25 26
f 16 29 49

