# https://github.com/mikedh/trimesh
v -0.42221800 0.10532900 -0.41321700
v -0.42221800 0.10532900 -0.56850300
v -0.42221800 0.13464700 -0.47206900
v -0.59344900 0.10532900 0.00177785
v -0.43311200 0.10532900 -0.62138700
v -0.42221800 0.10535900 -0.62685200
v -0.42221800 0.19538800 -0.59961100
v -0.59979500 0.11158300 0.00177785
v -0.75457900 0.10532900 0.00177785
v -0.43866500 0.10532900 -0.61861200
v -0.46029300 0.14645400 -0.81593600
v -0.42221800 0.14720600 -0.83611400
v -0.42221800 0.20577100 -0.63105500
v -0.42893400 0.19875400 -0.59624800
v -0.70434200 0.17434800 0.00177785
v -0.94146300 0.14645400 0.00177785
v -0.75457900 0.10532900 -0.08296980
v -0.66954600 0.14645400 -0.66947800
v -0.50217500 0.14645400 -0.79500200
v -0.52237600 0.10532900 -0.55580800
v -0.44982300 0.15691800 -0.84729600
v -0.42221800 0.15557500 -0.84864200
v -0.42221800 0.20921800 -0.64854300
v -0.77409300 0.20921800 0.00177785
v -0.74617100 0.19526600 0.00177785
v -0.73036000 0.18736400 0.00177785
v -0.95542400 0.15343000 0.00177785
v -0.94146300 0.14645400 -0.04185710
v -0.92052200 0.14645400 -0.20925100
v -0.73369100 0.10532900 -0.20857800
v -0.72877300 0.14994200 -0.60322600
v -0.70085200 0.15691800 -0.65896800
v -0.65907500 0.15691800 -0.70083800
v -0.60328500 0.14994200 -0.72875100
v -0.53914000 0.10532900 -0.53907700
v -0.55590300 0.10532900 -0.52226200
v -0.64786400 0.10532900 -0.40119400
v -0.79498100 0.14645400 -0.50208400
v -0.51957300 0.14994200 -0.79147100
v -0.49170500 0.15691800 -0.82636200
v -0.43591500 0.17086000 -0.85427500
v -0.42221800 0.16811400 -0.85704900
v -0.50910300 0.18131400 -0.82291500
v -0.48123400 0.18829000 -0.83687100
v -0.42221800 0.20921800 -0.81593600
v -0.94146300 0.20921800 0.00177785
v -0.96240400 0.16737200 0.00177785
v -0.95542400 0.15343000 -0.03487890
v -0.93448300 0.15343000 -0.20227200
v -0.93099200 0.15691800 -0.24061100
v -0.89963400 0.14645400 -0.27205500
v -0.85775100 0.14645400 -0.37664400
v -0.69598700 0.10532900 -0.29853800
v -0.79149100 0.14994200 -0.51948800
v -0.82639300 0.15691800 -0.49165900
v -0.73919100 0.16039600 -0.61365200
v -0.69387100 0.16388400 -0.67292500
v -0.67303600 0.16388400 -0.69385900
v -0.61375600 0.16039600 -0.73917600
v -0.57536400 0.15691800 -0.76364200
v -0.64934500 0.10532900 -0.39825100
v -0.83686300 0.14645400 -0.41851300
v -0.53004400 0.16039600 -0.80198000
v -0.43940500 0.19090300 -0.85250900
v -0.42221800 0.18455800 -0.85704900
v -0.66954600 0.18567600 -0.69562500
v -0.68345400 0.19526600 -0.68343400
v -0.49519500 0.19526600 -0.82989300
v -0.42221800 0.20781500 -0.83687100
v -0.48123400 0.20921800 -0.81593600
v -0.95542400 0.20224200 0.00177785
v -0.94146300 0.20921800 -0.04185710
v -0.96240400 0.18829000 0.00177785
v -0.96240400 0.16737200 -0.04185710
v -0.94146300 0.16737200 -0.20925100
v -0.93797300 0.17086000 -0.22665400
v -0.91005100 0.15691800 -0.30341500
v -0.67721400 0.10532900 -0.34251000
v -0.84733400 0.15691800 -0.44978900
v -0.82639300 0.19351700 -0.49165900
v -0.82115700 0.18567600 -0.50208400
v -0.81941200 0.16388400 -0.50553100
v -0.80196100 0.16039600 -0.52999700
v -0.73919100 0.18131400 -0.61365200
v -0.69561600 0.18567600 -0.66947800
v -0.68345400 0.17434800 -0.68343400
v -0.42221800 0.20286200 -0.84956600
v -0.42221800 0.20021800 -0.85108000
v -0.42221800 0.18875800 -0.85679700
v -0.44982300 0.19351700 -0.84729600
v -0.42893400 0.20398100 -0.84729600
v -0.74268100 0.20398100 -0.59624800
v -0.67996300 0.20398100 -0.67990300
v -0.80196100 0.18131400 -0.52999700
v -0.80894200 0.19526600 -0.51604100
v -0.49170500 0.20398100 -0.82636200
v -0.42221800 0.20734700 -0.84057000
v -0.66954600 0.20921800 -0.66947800
v -0.95542400 0.20224200 -0.04185710
v -0.95193300 0.20398100 -0.05236650
v -0.92052200 0.20921800 -0.20925100
v -0.96240400 0.18829000 -0.04185710
v -0.94146300 0.18829000 -0.20925100
v -0.93622800 0.19090300 -0.23018500
v -0.91703200 0.17086000 -0.28945800
v -0.89963400 0.18829000 -0.33477500
v -0.85426100 0.17086000 -0.43583300
v -0.84733400 0.19351700 -0.44978900
v -0.88916300 0.20398100 -0.34528400
v -0.82639300 0.20398100 -0.47072400
v -0.80545100 0.20398100 -0.51250900
v -0.79498100 0.20921800 -0.50208400
v -0.93448300 0.20224200 -0.20925100
v -0.93099200 0.20398100 -0.21976000
v -0.89963400 0.20921800 -0.27205500
v -0.91528700 0.19090300 -0.29298900
v -0.89265300 0.19526600 -0.34873100
v -0.85251600 0.19090300 -0.43928000
v -0.87869200 0.20921800 -0.33477500
v -0.83686300 0.20921800 -0.41851300
f 55 81 82
f 57 67 86
f 57 85 67
f 57 84 85
f 56 94 84
f 55 108 80
f 56 84 57
f 55 79 108
f 55 62 79
f 57 86 58
f 55 82 83
f 56 83 94
f 58 86 67
f 64 91 87
f 61 78 62
f 64 87 88
f 64 88 89
f 64 89 65
f 64 68 90
f 64 90 91
f 67 92 93
f 67 93 96
f 67 96 68
f 67 85 84
f 55 80 81
f 67 84 94
f 58 67 66
f 52 62 78
f 43 59 58
f 52 77 79
f 67 94 95
f 40 60 63
f 40 63 43
f 41 44 64
f 41 64 65
f 41 65 42
f 43 58 66
f 43 66 67
f 43 67 68
f 43 68 44
f 43 63 59
f 44 68 64
f 52 79 62
f 45 69 70
f 46 99 71
f 47 73 102
f 47 102 74
f 48 74 75
f 48 75 49
f 49 75 50
f 50 75 76
f 50 76 105
f 50 105 77
f 50 77 51
f 51 77 52
f 52 78 53
f 46 72 99
f 67 95 92
f 99 113 103
f 69 97 70
f 92 111 98
f 93 98 96
f 98 111 112
f 99 100 114
f 99 114 113
f 38 55 54
f 99 103 102
f 101 115 114
f 103 113 104
f 104 113 114
f 104 114 109
f 104 109 116
f 92 95 111
f 105 116 106
f 106 117 118
f 106 118 107
f 107 118 108
f 108 118 117
f 108 117 109
f 109 117 116
f 109 114 115
f 109 115 119
f 109 119 120
f 109 120 110
f 110 120 112
f 110 112 111
f 106 116 117
f 68 96 90
f 92 98 93
f 87 91 97
f 70 97 91
f 70 91 96
f 70 96 98
f 71 99 102
f 71 102 73
f 72 100 99
f 72 101 114
f 72 114 100
f 74 102 103
f 74 103 75
f 75 103 76
f 76 103 104
f 90 96 91
f 76 104 116
f 77 105 106
f 77 106 79
f 79 107 108
f 79 106 107
f 80 108 109
f 80 109 110
f 80 110 111
f 80 111 95
f 80 95 81
f 81 95 94
f 81 94 82
f 82 94 83
f 76 116 105
f 38 62 55
f 31 55 32
f 37 61 38
f 3 7 4
f 4 8 15
f 4 15 26
f 38 61 62
f 4 25 24
f 4 24 46
f 4 46 71
f 4 71 73
f 4 73 47
f 4 47 27
f 4 27 16
f 4 16 9
f 2 5 6
f 4 7 8
f 5 11 6
f 6 11 12
f 7 13 14
f 7 14 8
f 8 14 13
f 8 13 15
f 9 16 28
f 9 28 17
f 10 18 19
f 10 19 11
f 10 20 18
f 11 19 40
f 5 10 11
f 11 40 21
f 1 5 2
f 1 20 10
f 1 2 6
f 1 6 12
f 1 12 22
f 1 22 42
f 1 42 65
f 1 65 89
f 1 89 88
f 1 88 87
f 1 87 97
f 1 97 69
f 1 69 45
f 1 45 23
f 1 10 5
f 1 23 13
f 1 7 3
f 1 3 4
f 1 4 9
f 1 9 17
f 1 17 30
f 1 30 53
f 1 53 78
f 1 78 61
f 1 61 37
f 1 37 36
f 1 36 35
f 1 35 20
f 1 13 7
f 11 21 12
f 4 26 25
f 13 23 24
f 23 101 72
f 23 72 46
f 23 46 24
f 27 47 74
f 27 74 48
f 28 48 49
f 28 49 29
f 29 49 50
f 29 50 51
f 29 51 30
f 30 51 52
f 30 52 53
f 31 38 54
f 31 54 55
f 32 56 57
f 32 57 58
f 32 58 33
f 32 55 83
f 32 83 56
f 33 58 59
f 33 59 63
f 12 21 22
f 33 60 34
f 34 60 40
f 34 40 39
f 23 115 101
f 23 119 115
f 33 63 60
f 23 112 120
f 23 120 119
f 13 24 25
f 13 25 26
f 16 27 48
f 16 48 28
f 17 28 29
f 17 29 30
f 18 31 32
f 18 32 33
f 18 33 34
f 18 34 19
f 18 20 35
f 18 35 36
f 13 26 15
f 18 37 38
f 18 36 37
f 23 70 98
f 21 44 41
f 21 43 44
f 21 40 43
f 23 45 70
f 21 41 42
f 21 42 22
f 18 38 31
f 23 98 112
f 19 34 39
f 19 39 40

