# https://github.com/mikedh/trimesh
v -0.10655700 0.10532900 0.74967900
v -0.11239300 0.10532900 0.74967900
v -0.10655700 0.09763160 0.73920700
v -0.10655700 0.10532900 0.58651500
v -0.12558800 0.09763160 0.73920700
v -0.20926100 0.10532900 0.73364100
v -0.10655700 -0.20158200 0.30720100
v -0.10655700 -0.12550100 0.00152324
v -0.59343300 0.10532900 0.00152324
v -0.21211600 0.10532900 0.73261600
v -0.11512100 -0.19875000 0.30866600
v -0.12558800 -0.20398400 0.29555700
v -0.10655700 -0.20238300 0.30581000
v -0.10655700 -0.14643800 0.00152324
v -0.75462500 0.10532900 0.00152324
v -0.31672300 0.10532900 0.69072600
v -0.27200000 0.09763160 0.69739100
v -0.14645900 -0.20921800 0.27204900
v -0.10655700 -0.20872600 0.29321300
v -0.33480200 0.10532900 0.68171900
v -0.35859100 0.10532900 0.66985500
v -0.20926100 -0.20398400 0.25374000
v -0.27200000 -0.20921800 0.00152324
v -0.10655700 -0.20500000 0.25110400
v -0.75462500 0.10532900 0.08442390
v -0.71827600 0.07669460 0.00152324
v -0.10655700 -0.20921800 0.29101600
v -0.18832700 -0.20921800 0.25110400
v -0.41847500 0.10532900 0.63990200
v -0.23019500 -0.20398400 0.23279500
v -0.23019500 -0.20921800 0.20928700
v -0.42894200 0.09412150 0.61192700
v -0.53348600 0.09412150 0.52822100
v -0.31386800 -0.20921800 0.00152324
v -0.10655700 -0.20921800 0.27007100
v -0.73369100 0.10532900 0.20994700
v -0.71827600 0.07669460 0.01397300
v -0.32782400 -0.20222900 0.02796060
v -0.73921000 0.09763160 0.11862400
v -0.32782400 -0.20222900 0.00152324
v -0.52301800 0.10532900 0.55619600
v -0.25106600 -0.20398400 0.21185100
v -0.25106600 -0.20921800 0.18834300
v -0.55581500 0.10532900 0.52338700
v -0.63955200 0.10532900 0.41873600
v -0.61715800 0.09412150 0.42364300
v -0.31386800 -0.20921800 0.02093020
v -0.69182300 0.10532900 0.31459800
v -0.30689000 -0.20222900 0.11159400
v -0.29293400 -0.20921800 0.10463600
v -0.26502200 -0.20222900 0.19530000
v -0.28595600 -0.20222900 0.15348300
v -0.64995500 0.10532900 0.39823100
v -0.28246700 -0.19875000 0.17267100
v -0.30340100 -0.19875000 0.13078100
f 1 2 5
f 29 33 32
f 29 41 33
f 26 38 37
f 26 40 38
f 25 39 36
f 25 38 39
f 25 37 38
f 23 24 35
f 22 33 30
f 22 32 33
f 22 29 32
f 22 31 28
f 22 30 31
f 21 29 22
f 18 35 27
f 18 23 35
f 18 34 23
f 18 47 34
f 18 50 47
f 18 43 50
f 18 31 43
f 18 28 31
f 18 22 28
f 30 42 43
f 18 27 19
f 30 43 31
f 33 44 45
f 51 54 52
f 49 54 55
f 49 52 54
f 49 50 52
f 48 54 53
f 48 55 54
f 48 49 55
f 45 54 51
f 45 53 54
f 43 52 50
f 43 51 52
f 42 45 51
f 42 46 45
f 42 51 43
f 38 50 49
f 38 47 50
f 36 49 48
f 36 38 49
f 36 39 38
f 34 38 40
f 34 47 38
f 33 46 42
f 33 45 46
f 30 33 42
f 15 37 25
f 33 41 44
f 14 24 23
f 1 20 16
f 1 21 20
f 1 29 21
f 1 41 29
f 1 44 41
f 1 45 44
f 1 53 45
f 1 48 53
f 1 36 48
f 1 25 36
f 1 9 15
f 1 4 9
f 1 8 4
f 1 14 8
f 1 24 14
f 1 35 24
f 1 27 35
f 1 19 27
f 1 13 19
f 1 7 13
f 1 3 7
f 1 5 3
f 15 26 37
f 1 16 10
f 1 10 6
f 1 15 25
f 11 17 16
f 12 22 18
f 1 6 2
f 12 21 22
f 12 20 21
f 12 16 20
f 12 19 13
f 12 18 19
f 11 16 12
f 10 17 11
f 10 16 17
f 8 15 9
f 8 40 26
f 8 26 15
f 8 34 40
f 8 23 34
f 8 14 23
f 7 12 13
f 7 11 12
f 6 11 7
f 6 10 11
f 5 6 7
f 4 8 9
f 3 5 7
f 2 6 5

