# https://github.com/mikedh/trimesh
v -0.20868400 -0.10206300 -0.13419200
v -0.21429600 -0.10206300 -0.10972500
v -0.20868400 -0.10206300 -0.35978300
v -0.20868400 0.10530900 -0.55162600
v -0.23524400 -0.10206300 -0.02603710
v -0.22573200 -0.10206300 -0.35129200
v -0.24064100 -0.09414460 -0.36611600
v -0.21621900 -0.09065260 -0.38353000
v -0.20868400 -0.09440850 -0.37604600
v -0.20868400 0.10530900 -0.73353900
v -0.59339800 0.10530900 0.00145130
v -0.56096000 0.08756420 0.00145130
v -0.45333200 0.02789470 0.00145130
v -0.34875000 -0.03486090 0.00145130
v -0.28595800 -0.07670460 0.00145130
v -0.24277900 -0.10206300 -0.01265270
v -0.22765600 -0.10206300 -0.35028500
v -0.29547100 -0.10206300 -0.29545200
v -0.31732800 -0.08716050 -0.31732700
v -0.32432800 -0.07321260 -0.34524800
v -0.36617200 0.03136640 -0.53349200
v -0.36617200 0.05229840 -0.57530100
v -0.30338000 -0.01045710 -0.49161200
v -0.20868400 -0.09065260 -0.38353000
v -0.27895800 -0.00696500 -0.50902600
v -0.29990600 0.05579050 -0.61365500
v -0.21621900 0.01394670 -0.57184700
v -0.20868400 -0.04612880 -0.46455600
v -0.20868400 0.10512600 -0.73332300
v -0.27895800 0.09763430 -0.69734300
v -0.29643300 0.10110600 -0.69388900
v -0.29851700 0.10530900 -0.69597600
v -0.75462500 0.10530900 0.00145130
v -0.25565800 -0.10206300 0.00145130
v -0.35030000 -0.10206300 -0.22766600
v -0.36617200 -0.09414460 -0.24061900
v -0.34522300 -0.07321260 -0.32430700
v -0.53349200 0.09414220 -0.53349200
v -0.44985800 0.05229840 -0.51255200
v -0.44985800 0.09414220 -0.59624100
v -0.32432800 0.05229840 -0.59624100
v -0.38706700 0.09414220 -0.63804900
v -0.23711400 0.07670220 -0.67640300
v -0.20868400 0.05847050 -0.65280100
v -0.30338000 0.09414220 -0.67992900
v -0.36269800 0.09763430 -0.65553500
v -0.35500300 0.10530900 -0.67093400
v -0.34244400 0.10530900 -0.67712300
v -0.71828600 0.07670220 0.00145130
v -0.75462500 0.10530900 -0.08302870
v -0.40924400 -0.10206300 0.00145130
v -0.35318600 -0.10206300 -0.22191000
v -0.36077400 -0.10206300 -0.20672600
v -0.36521000 -0.10206300 -0.19780300
v -0.40801500 -0.09414460 -0.13606200
v -0.38359300 -0.09065260 -0.21622500
v -0.49164800 -0.01045710 -0.30336700
v -0.57533500 0.05229840 -0.36611600
v -0.53349200 0.03136640 -0.36611600
v -0.51254300 0.05229840 -0.44980400
v -0.54743900 0.10110600 -0.52651200
v -0.52862900 0.10530900 -0.54953900
v -0.52649100 0.10110600 -0.54745300
v -0.40112100 0.10530900 -0.64783500
v -0.59623000 0.09414220 -0.44980400
v -0.64785300 0.10530900 -0.40108800
v -0.39684600 0.10530900 -0.64999400
v -0.61370500 0.01394670 0.00145130
v -0.71828600 0.07670220 -0.02790800
v -0.73367700 0.10530900 -0.20852500
v -0.73923500 0.09763430 -0.13253600
v -0.50907000 -0.04880880 0.00145130
v -0.40924400 -0.10206300 -0.03265730
v -0.38311200 -0.10206300 -0.15297300
v -0.40261800 -0.10206300 -0.10209800
v -0.42543600 -0.09065260 -0.11159600
v -0.50907000 -0.00696500 -0.27897300
v -0.44638500 -0.06972050 -0.15347700
v -0.61370500 0.05579050 -0.29991300
v -0.59623000 0.05229840 -0.32430700
v -0.65902200 0.09414220 -0.34524800
v -0.63807300 0.09414220 -0.38698400
v -0.55582900 0.10530900 -0.52226700
v -0.54321800 0.10530900 -0.53493200
v -0.52232300 0.10530900 -0.55580000
v -0.64929600 0.10530900 -0.39820900
v -0.61370500 0.01394670 -0.02790800
v -0.69739100 0.09763430 -0.27897300
v -0.69739100 0.07670220 -0.17441700
v -0.69600200 0.10530900 -0.29854600
v -0.69386400 0.10110600 -0.29645900
v -0.63460000 0.03485850 -0.13253600
v -0.50907000 -0.04880880 -0.02790800
v -0.46728000 -0.06972050 -0.06978820
v -0.53001800 -0.02787670 -0.13253600
v -0.65554800 0.05579050 -0.19528500
v -0.67644300 0.07670220 -0.23716500
v -0.59275600 0.03485850 -0.25810500
v -0.67991700 0.09414220 -0.30336700
v -0.67719100 0.10530900 -0.34251300
f 42 64 67
f 40 64 42
f 38 66 61
f 38 58 65
f 38 60 59
f 38 59 58
f 42 67 46
f 38 65 66
f 42 46 45
f 55 74 75
f 49 69 87
f 49 87 68
f 50 70 71
f 50 71 69
f 51 72 93
f 51 93 73
f 54 74 55
f 55 75 76
f 55 76 56
f 38 64 40
f 46 67 47
f 38 63 64
f 31 46 47
f 38 61 62
f 29 43 30
f 29 44 43
f 30 45 31
f 31 45 46
f 56 76 78
f 31 47 48
f 31 48 32
f 33 50 69
f 33 69 49
f 35 52 36
f 36 52 53
f 36 53 54
f 36 54 55
f 36 55 56
f 36 56 77
f 36 77 57
f 36 57 58
f 36 58 59
f 36 59 60
f 36 60 37
f 37 60 38
f 38 62 63
f 56 78 79
f 70 89 71
f 57 79 80
f 76 95 96
f 76 96 78
f 78 96 97
f 78 97 98
f 78 98 79
f 79 98 97
f 89 97 96
f 79 97 88
f 79 88 99
f 79 99 80
f 80 99 81
f 81 100 86
f 81 99 88
f 81 88 100
f 87 92 95
f 87 95 93
f 88 97 89
f 88 91 100
f 89 96 95
f 89 95 92
f 27 44 28
f 76 94 95
f 56 79 77
f 73 76 75
f 73 93 94
f 57 80 58
f 57 77 79
f 58 80 81
f 58 81 82
f 58 82 65
f 61 83 84
f 61 84 62
f 61 66 83
f 62 85 63
f 63 85 64
f 65 82 66
f 66 82 81
f 66 81 86
f 68 87 93
f 68 93 72
f 69 71 87
f 70 88 89
f 70 90 91
f 70 91 88
f 71 89 92
f 71 92 87
f 73 94 76
f 27 43 44
f 1 17 6
f 26 30 27
f 3 7 8
f 3 8 9
f 4 10 32
f 4 32 48
f 4 48 47
f 4 47 67
f 4 67 64
f 4 64 85
f 4 85 62
f 3 6 7
f 4 62 84
f 4 83 66
f 4 66 86
f 4 86 100
f 4 100 90
f 4 90 70
f 4 70 50
f 4 50 33
f 4 33 11
f 4 11 12
f 4 84 83
f 2 4 5
f 1 4 2
f 1 10 4
f 90 100 91
f 1 2 5
f 1 5 16
f 1 16 34
f 1 34 51
f 1 51 73
f 1 73 75
f 1 75 74
f 1 74 54
f 1 54 53
f 1 53 52
f 1 52 35
f 1 35 18
f 1 18 17
f 1 6 3
f 1 3 9
f 1 9 24
f 1 24 28
f 1 28 44
f 1 44 29
f 1 29 10
f 4 12 13
f 4 13 14
f 4 14 15
f 4 15 16
f 11 14 13
f 11 13 12
f 15 34 16
f 18 35 36
f 18 36 19
f 19 37 20
f 19 36 37
f 20 37 38
f 20 38 39
f 20 39 21
f 21 39 38
f 21 38 40
f 21 40 22
f 22 41 23
f 22 40 42
f 22 42 45
f 22 45 41
f 23 41 26
f 23 26 25
f 26 41 45
f 26 45 30
f 11 15 14
f 27 30 43
f 11 34 15
f 11 72 51
f 4 16 5
f 6 17 7
f 7 17 18
f 7 18 19
f 7 19 20
f 7 20 21
f 7 21 22
f 7 22 23
f 7 23 25
f 7 25 8
f 8 24 9
f 8 25 26
f 8 26 27
f 8 27 28
f 8 28 24
f 10 29 30
f 10 30 31
f 10 31 32
f 11 33 49
f 11 49 68
f 11 68 72
f 11 51 34
f 93 95 94

