# https://github.com/mikedh/trimesh
v 0.18829500 -0.20921800 0.20926000
v 0.00001570 -0.16660500 0.00152324
v 0.16735900 -0.16734400 0.00152324
v 0.19091500 -0.20921800 0.20926000
v -0.10655700 -0.20921800 0.27007800
v -0.10655700 -0.14643800 0.00152324
v -0.10655700 -0.20500000 0.25113200
v 0.19091500 -0.16734400 0.00152324
v 0.19091500 -0.20921800 0.23019600
v -0.10655700 -0.20921800 0.29101400
v -0.10655700 -0.12550100 0.00152324
v 0.19091500 -0.11374000 0.00152324
v 0.19091500 -0.20823300 0.25113200
v 0.18829500 -0.20921800 0.25113200
v -0.10460600 -0.20921800 0.29293000
v -0.10655700 -0.20872600 0.29315100
v -0.10655700 0.10532900 0.58647500
v 0.17822000 0.10532900 0.55816700
v 0.19091500 0.10532900 0.55735600
v 0.19091500 -0.20789400 0.25371200
v 0.15690500 -0.20398400 0.28246200
v 0.11506200 -0.20398400 0.30339800
v 0.10460900 -0.20921800 0.29293000
v -0.04182730 -0.20921800 0.31386600
v -0.10460600 -0.20222900 0.30686300
v -0.10655700 -0.20238300 0.30583100
v -0.10655700 0.10532900 0.74961300
v 0.19091500 0.10532900 0.73369000
v 0.19091500 -0.20266000 0.26418000
v 0.19091500 0.07767990 0.69211300
v 0.05228310 -0.20398400 0.32433400
v 0.04185870 -0.20921800 0.31386600
v -0.04182730 -0.20222900 0.32779900
v -0.10655700 -0.20158200 0.30723100
v -0.10655700 0.10459000 0.74865400
v -0.08367030 0.10532900 0.75462500
v 0.15853600 0.10532900 0.74032400
v 0.12551600 0.09763160 0.73921800
v 0.04185870 -0.20222900 0.32779900
v 0.08509940 0.10532900 0.75462500
v -0.02092040 0.07669460 0.71828300
v -0.10655700 0.09763160 0.73921800
v -0.05228080 -0.19875000 0.32956800
v 0.02092260 0.07669460 0.71828300
f 22 28 31
f 22 30 28
f 17 19 18
f 22 32 23
f 22 31 32
f 21 30 22
f 21 29 30
f 20 29 21
f 17 27 36
f 17 37 28
f 17 40 37
f 17 36 40
f 15 26 16
f 15 25 26
f 15 33 25
f 24 32 31
f 15 24 33
f 17 28 19
f 24 31 33
f 33 36 42
f 25 34 26
f 14 22 23
f 39 40 44
f 37 40 38
f 36 44 40
f 36 41 44
f 35 42 36
f 34 43 42
f 33 43 34
f 25 33 34
f 33 42 43
f 33 44 41
f 33 39 44
f 31 40 39
f 31 38 40
f 31 39 33
f 28 38 31
f 28 37 38
f 27 35 36
f 33 41 36
f 14 21 22
f 14 20 21
f 1 15 10
f 4 8 12
f 2 7 6
f 2 5 7
f 2 12 8
f 2 11 12
f 2 6 11
f 1 5 2
f 1 10 5
f 4 12 19
f 1 24 15
f 1 23 32
f 1 14 23
f 1 9 14
f 1 4 9
f 1 8 4
f 1 3 8
f 1 2 3
f 13 20 14
f 1 32 24
f 4 19 28
f 2 8 3
f 4 30 29
f 12 18 19
f 12 17 18
f 11 17 12
f 10 15 16
f 9 13 14
f 4 28 30
f 5 11 6
f 5 17 11
f 5 27 17
f 5 35 27
f 5 6 7
f 5 42 35
f 5 34 42
f 5 26 34
f 5 16 26
f 5 10 16
f 4 13 9
f 4 20 13
f 4 29 20

