o convex_0
v -0.106557 0.105329 0.749679
v -0.112393 0.105329 0.749679
v -0.106557 0.0976316 0.739207
v -0.106557 0.105329 0.586515
v -0.125588 0.0976316 0.739207
v -0.209261 0.105329 0.733641
v -0.106557 -0.201582 0.307201
v -0.106557 -0.125501 0.00152324
v -0.593433 0.105329 0.00152324
v -0.212116 0.105329 0.732616
v -0.115121 -0.19875 0.308666
v -0.125588 -0.203984 0.295557
v -0.106557 -0.202383 0.30581
v -0.106557 -0.146438 0.00152324
v -0.754625 0.105329 0.00152324
v -0.316723 0.105329 0.690726
v -0.272 0.0976316 0.697391
v -0.146459 -0.209218 0.272049
v -0.106557 -0.208726 0.293213
v -0.334802 0.105329 0.681719
v -0.358591 0.105329 0.669855
v -0.209261 -0.203984 0.25374
v -0.272 -0.209218 0.00152324
v -0.106557 -0.205 0.251104
v -0.754625 0.105329 0.0844239
v -0.718276 0.0766946 0.00152324
v -0.106557 -0.209218 0.291016
v -0.188327 -0.209218 0.251104
v -0.418475 0.105329 0.639902
v -0.230195 -0.203984 0.232795
v -0.230195 -0.209218 0.209287
v -0.428942 0.0941215 0.611927
v -0.533486 0.0941215 0.528221
v -0.313868 -0.209218 0.00152324
v -0.106557 -0.209218 0.270071
v -0.733691 0.105329 0.209947
v -0.718276 0.0766946 0.013973
v -0.327824 -0.202229 0.0279606
v -0.73921 0.0976316 0.118624
v -0.327824 -0.202229 0.00152324
v -0.523018 0.105329 0.556196
v -0.251066 -0.203984 0.211851
v -0.251066 -0.209218 0.188343
v -0.555815 0.105329 0.523387
v -0.639552 0.105329 0.418736
v -0.617158 0.0941215 0.423643
v -0.313868 -0.209218 0.0209302
v -0.691823 0.105329 0.314598
v -0.30689 -0.202229 0.111594
v -0.292934 -0.209218 0.104636
v -0.265022 -0.202229 0.1953
v -0.285956 -0.202229 0.153483
v -0.649955 0.105329 0.398231
v -0.282467 -0.19875 0.172671
v -0.303401 -0.19875 0.130781
f 1 2 5
f 1 5 3
f 1 3 7
f 1 7 13
f 1 13 19
f 1 19 27
f 1 27 35
f 1 35 24
f 1 24 14
f 1 14 8
f 1 8 4
f 1 4 9
f 1 9 15
f 1 15 25
f 1 25 36
f 1 36 48
f 1 48 53
f 1 53 45
f 1 45 44
f 1 44 41
f 1 41 29
f 1 29 21
f 1 21 20
f 1 20 16
f 1 16 10
f 1 10 6
f 1 6 2
f 2 6 5
f 3 5 7
f 4 8 9
f 5 6 7
f 6 10 11
f 6 11 7
f 7 11 12
f 7 12 13
f 8 14 23
f 8 23 34
f 8 34 40
f 8 40 26
f 8 26 15
f 8 15 9
f 10 16 17
f 10 17 11
f 11 17 16
f 11 16 12
f 12 18 19
f 12 19 13
f 12 16 20
f 12 20 21
f 12 21 22
f 12 22 18
f 14 24 23
f 15 26 37
f 15 37 25
f 18 27 19
f 18 22 28
f 18 28 31
f 18 31 43
f 18 43 50
f 18 50 47
f 18 47 34
f 18 34 23
f 18 23 35
f 18 35 27
f 21 29 22
f 22 30 31
f 22 31 28
f 22 29 32
f 22 32 33
f 22 33 30
f 23 24 35
f 25 37 38
f 25 38 39
f 25 39 36
f 26 40 38
f 26 38 37
f 29 41 33
f 29 33 32
f 30 42 43
f 30 43 31
f 30 33 42
f 33 41 44
f 33 44 45
f 33 45 46
f 33 46 42
f 34 47 38
f 34 38 40
f 36 39 38
f 36 38 49
f 36 49 48
f 38 47 50
f 38 50 49
f 42 51 43
f 42 46 45
f 42 45 51
f 43 51 52
f 43 52 50
f 45 53 54
f 45 54 51
f 48 49 55
f 48 55 54
f 48 54 53
f 49 50 52
f 49 52 54
f 49 54 55
f 51 54 52
o convex_1
v 0.962404 0.18829 0.0627913
v 0.962404 0.167372 0.0419188
v 0.962404 0.18829 0.0034514
v 0.955385 0.202242 0.055805
v 0.951934 0.198754 0.0941862
v 0.934504 0.202242 0.202257
v 0.941465 0.18829 0.209244
v 0.941465 0.167372 0.209244
v 0.955385 0.15343 0.0419188
v 0.956555 0.155728 0.0034514
v 0.962404 0.167372 0.0034514
v 0.934504 0.15343 0.209244
v 0.955385 0.202242 0.0034514
v 0.944915 0.207489 0.0034514
v 0.941465 0.209218 0.0627913
v 0.920525 0.209218 0.209244
v 0.930995 0.198754 0.240638
v 0.937955 0.184802 0.226666
v 0.9362 0.164758 0.230202
v 0.951934 0.151691 0.0523551
v 0.955385 0.15343 0.0034514
v 0.930995 0.151691 0.21968
v 0.941465 0.209218 0.0034514
v 0.878704 0.209218 0.334823
v 0.910055 0.198754 0.303428
v 0.917016 0.184802 0.289456
v 0.915319 0.164758 0.292906
v 0.930995 0.162135 0.240638
v 0.941465 0.146454 0.0419188
v 0.941465 0.146454 0.0034514
v 0.920525 0.146454 0.209244
v 0.889174 0.151691 0.34526
v 0.774065 0.209218 0.0034514
v 0.868235 0.198754 0.408049
v 0.836825 0.209218 0.439444
v 0.899585 0.18829 0.334823
v 0.899585 0.167372 0.334823
v 0.892625 0.160396 0.348709
v 0.754588 0.105329 0.08513
v 0.754588 0.105329 0.0034514
v 0.878704 0.146454 0.334823
v 0.733648 0.105329 0.21071
v 0.868235 0.162135 0.408049
v 0.826356 0.151691 0.491625
v 0.815944 0.146454 0.481189
v 0.706626 0.175497 0.0034514
v 0.364867 0.203035 0.657743
v 0.366154 0.203981 0.659036
v 0.376624 0.209218 0.669473
v 0.850805 0.202242 0.432458
v 0.843844 0.195266 0.467217
v 0.857765 0.18829 0.439444
v 0.815944 0.209218 0.481189
v 0.87344 0.164758 0.397527
v 0.596664 0.105329 0.0034514
v 0.698437 0.105329 0.305067
v 0.829865 0.160396 0.495075
v 0.683405 0.160396 0.683445
v 0.679954 0.151691 0.679909
v 0.669485 0.146454 0.669473
v 0.634507 0.105329 0.425299
v 0.639128 0.105329 0.418486
v 0.656675 0.105329 0.388729
v 0.704345 0.174348 0.0034514
v 0.364867 0.198439 0.648514
v 0.364867 0.203666 0.660244
v 0.599764 0.111583 0.0034514
v 0.364867 0.209218 0.690345
v 0.822905 0.195266 0.509048
v 0.822905 0.174348 0.509048
v 0.753184 0.209218 0.564852
v 0.812435 0.20573 0.498612
v 0.364867 0.105329 0.463594
v 0.69563 0.169985 0.669473
v 0.693875 0.191778 0.672923
v 0.683405 0.181314 0.683445
v 0.672935 0.191778 0.693881
v 0.669485 0.169985 0.695606
v 0.592804 0.195266 0.760121
v 0.509104 0.174348 0.822911
v 0.495183 0.160396 0.829897
v 0.760145 0.195266 0.59271
v 0.491674 0.151691 0.826361
v 0.481204 0.146454 0.815925
v 0.425346 0.105329 0.634455
v 0.529927 0.105329 0.550793
v 0.550866 0.105329 0.529834
v 0.364867 0.140281 0.532163
v 0.364867 0.110159 0.471961
v 0.364867 0.119352 0.490332
v 0.364867 0.209218 0.857756
v 0.749675 0.20573 0.582274
v 0.669485 0.209218 0.669473
v 0.364867 0.105329 0.664039
v 0.700835 0.198754 0.659036
v 0.659073 0.198754 0.700868
v 0.582334 0.20573 0.749685
v 0.509104 0.195266 0.822911
v 0.495183 0.181314 0.829897
v 0.439384 0.18829 0.857756
v 0.376624 0.167372 0.878715
v 0.390544 0.160396 0.871728
v 0.387093 0.151691 0.868192
v 0.376624 0.146454 0.857756
v 0.388731 0.105329 0.656621
v 0.418444 0.105329 0.639026
v 0.364867 0.203188 0.872677
v 0.376624 0.209218 0.857756
v 0.564904 0.209218 0.753135
v 0.364867 0.146454 0.857756
v 0.481204 0.209218 0.815925
v 0.498693 0.20573 0.812389
v 0.474244 0.202242 0.829897
v 0.449853 0.198754 0.84732
v 0.467284 0.195266 0.843784
v 0.364867 0.194158 0.88458
v 0.364867 0.173229 0.88458
v 0.364867 0.16004 0.878715
v 0.364867 0.153918 0.87561
v 0.364867 0.197483 0.881216
v 0.432423 0.202242 0.85077
v 0.439384 0.209218 0.836797
f 56 57 66
f 56 66 58
f 56 58 68
f 56 68 59
f 56 59 60
f 56 60 61
f 56 61 62
f 56 62 63
f 56 63 57
f 57 64 65
f 57 65 66
f 57 63 67
f 57 67 64
f 58 66 65
f 58 65 76
f 58 76 85
f 58 85 95
f 58 95 110
f 58 110 122
f 58 122 119
f 58 119 101
f 58 101 88
f 58 88 78
f 58 78 69
f 58 69 68
f 59 68 69
f 59 69 70
f 59 70 61
f 59 61 60
f 61 70 71
f 61 71 72
f 61 72 62
f 62 72 73
f 62 73 63
f 63 73 74
f 63 74 67
f 64 75 76
f 64 76 65
f 64 67 75
f 67 74 77
f 67 77 75
f 69 78 70
f 70 78 88
f 70 88 104
f 70 104 123
f 70 123 146
f 70 146 163
f 70 163 177
f 70 177 166
f 70 166 164
f 70 164 148
f 70 148 126
f 70 126 108
f 70 108 90
f 70 90 79
f 70 79 71
f 71 79 72
f 72 79 80
f 72 80 81
f 72 81 73
f 73 81 82
f 73 82 74
f 74 83 77
f 74 82 83
f 75 84 85
f 75 85 76
f 75 77 86
f 75 86 84
f 77 83 87
f 77 87 96
f 77 96 86
f 79 89 80
f 79 90 89
f 80 89 107
f 80 107 91
f 80 91 81
f 81 91 92
f 81 92 82
f 82 92 93
f 82 93 87
f 82 87 83
f 84 94 95
f 84 95 85
f 84 86 94
f 86 96 97
f 86 97 94
f 87 93 98
f 87 98 99
f 87 99 100
f 87 100 96
f 88 101 102
f 88 102 103
f 88 103 104
f 89 90 105
f 89 105 106
f 89 106 107
f 90 108 105
f 91 107 92
f 92 109 93
f 92 107 109
f 93 109 98
f 94 97 111
f 94 111 118
f 94 118 117
f 94 117 116
f 94 116 142
f 94 142 141
f 94 141 140
f 94 140 161
f 94 161 160
f 94 160 149
f 94 149 128
f 94 128 110
f 94 110 95
f 96 111 97
f 96 100 111
f 98 109 112
f 98 112 99
f 99 112 113
f 99 113 114
f 99 114 100
f 100 114 115
f 100 115 116
f 100 116 117
f 100 117 118
f 100 118 111
f 101 119 102
f 102 120 143
f 102 143 145
f 102 145 144
f 102 144 128
f 102 128 149
f 102 149 165
f 102 165 174
f 102 174 173
f 102 173 172
f 102 172 171
f 102 171 175
f 102 175 162
f 102 162 146
f 102 146 123
f 102 123 121
f 102 121 103
f 102 119 122
f 102 122 120
f 103 121 123
f 103 123 104
f 105 108 124
f 105 124 106
f 106 124 107
f 107 124 125
f 107 125 112
f 107 112 109
f 108 126 147
f 108 147 127
f 108 127 124
f 110 128 122
f 112 125 113
f 113 129 130
f 113 130 131
f 113 131 132
f 113 132 133
f 113 133 134
f 113 134 135
f 113 135 136
f 113 136 114
f 113 125 137
f 113 137 129
f 114 136 138
f 114 138 139
f 114 139 115
f 115 139 140
f 115 140 141
f 115 141 142
f 115 142 116
f 120 122 143
f 122 128 144
f 122 144 145
f 122 145 143
f 124 137 125
f 124 127 147
f 124 147 137
f 126 148 147
f 129 137 130
f 130 150 151
f 130 151 132
f 130 132 131
f 130 137 150
f 132 151 134
f 132 134 133
f 134 151 152
f 134 152 153
f 134 153 135
f 135 153 154
f 135 154 136
f 136 154 155
f 136 155 156
f 136 156 157
f 136 157 158
f 136 158 138
f 137 147 150
f 138 158 159
f 138 159 139
f 139 159 160
f 139 160 161
f 139 161 140
f 146 162 163
f 147 148 150
f 148 164 152
f 148 152 151
f 148 151 150
f 149 160 159
f 149 159 165
f 152 164 166
f 152 166 167
f 152 167 153
f 153 167 166
f 153 166 168
f 153 168 169
f 153 169 170
f 153 170 155
f 153 155 154
f 155 171 172
f 155 172 156
f 155 170 171
f 156 172 173
f 156 173 157
f 157 173 174
f 157 174 158
f 158 174 159
f 159 174 165
f 162 175 176
f 162 176 177
f 162 177 163
f 166 177 176
f 166 176 169
f 166 169 168
f 169 176 171
f 169 171 170
f 171 176 175
o convex_2
v 0.364867 0.194158 0.884579
v 0.364867 0.173229 0.884579
v 0.364867 0.197483 0.88121
v 0.362629 0.195266 0.885653
v 0.334742 0.18829 0.899616
v 0.334742 0.167372 0.899616
v 0.348667 0.160396 0.892634
v 0.364867 0.16004 0.878671
v 0.364867 0.203188 0.872665
v 0.345186 0.198754 0.889168
v 0.303337 0.198754 0.910065
v 0.289412 0.184802 0.917047
v 0.292893 0.164758 0.915289
v 0.345186 0.151691 0.889168
v 0.364867 0.153918 0.875644
v 0.303337 0.162135 0.910065
v 0.364867 0.209218 0.857774
v 0.334742 0.209218 0.878671
v 0.2406 0.198754 0.93101
v 0.226639 0.184802 0.937992
v 0.23012 0.164758 0.936234
v 0.2406 0.162135 0.93101
v 0.271969 0.146454 0.899616
v 0.334742 0.146454 0.878671
v 0.364867 0.146454 0.857774
v 0.219676 0.151691 0.93101
v 0.364867 0.209218 0.690454
v 0.271969 0.209218 0.899616
v 0.209196 0.209218 0.920513
v 0.202233 0.202242 0.934477
v 0.0557987 0.202242 0.955422
v 0.209196 0.18829 0.941459
v 0.209196 0.167372 0.941459
v 0.209196 0.15343 0.934477
v 0.209196 0.146454 0.920513
v 0.210653 0.105329 0.733663
v 0.304972 0.105329 0.69851
v 0.34682 0.105329 0.677565
v 0.357087 0.105329 0.670973
v 0.364867 0.105329 0.664089
v 0.0418728 0.15343 0.955422
v 0.0523172 0.151691 0.951907
v 0.0418728 0.146454 0.941459
v 0.364867 0.203666 0.66033
v 0.313817 0.209218 0.690454
v 0.0627971 0.209218 0.941459
v 0.00194261 0.202242 0.955422
v 0.00194261 0.190232 0.961428
v 0.0627971 0.18829 0.962355
v 0.0418728 0.167372 0.962355
v 0.0851424 0.105329 0.754609
v 0.364867 0.105329 0.463617
v 0.00194261 0.15343 0.955422
v 0.00194261 0.147104 0.942777
v 0.00194261 0.146454 0.941459
v 0.364867 0.203035 0.657791
v 0.00194261 0.209218 0.77409
v 0.00194261 0.209218 0.941459
v 0.00194261 0.18829 0.962355
v 0.00194261 0.167372 0.962355
v 0.00194261 0.105329 0.754609
v 0.00194261 0.105329 0.596663
v 0.00194261 0.110536 0.599251
v 0.00194261 0.111583 0.599788
v 0.00194261 0.174348 0.704369
v 0.364867 0.110159 0.472015
v 0.364867 0.193842 0.639384
v 0.0732415 0.203981 0.742696
v 0.00194261 0.202242 0.760126
v 0.00194261 0.188941 0.733517
v 0.364867 0.131088 0.513857
f 178 179 185
f 178 185 192
f 178 192 202
f 178 202 217
f 178 217 229
f 178 229 243
f 178 243 248
f 178 248 244
f 178 244 233
f 178 233 221
f 178 221 204
f 178 204 194
f 178 194 186
f 178 186 180
f 178 180 181
f 178 181 182
f 178 182 183
f 178 183 179
f 179 183 184
f 179 184 185
f 180 186 181
f 181 186 187
f 181 187 188
f 181 188 182
f 182 188 189
f 182 189 183
f 183 189 190
f 183 190 184
f 184 191 192
f 184 192 185
f 184 190 193
f 184 193 191
f 186 194 195
f 186 195 187
f 187 195 188
f 188 196 189
f 188 195 196
f 189 196 197
f 189 197 198
f 189 198 190
f 190 198 199
f 190 199 193
f 191 200 201
f 191 201 202
f 191 202 192
f 191 193 199
f 191 199 203
f 191 203 200
f 194 204 222
f 194 222 234
f 194 234 235
f 194 235 223
f 194 223 206
f 194 206 205
f 194 205 195
f 195 205 196
f 196 205 206
f 196 206 207
f 196 207 208
f 196 208 209
f 196 209 197
f 197 209 210
f 197 210 198
f 198 210 211
f 198 211 203
f 198 203 199
f 200 203 212
f 200 212 213
f 200 213 201
f 201 213 214
f 201 214 215
f 201 215 216
f 201 216 202
f 202 216 217
f 203 211 218
f 203 218 219
f 203 219 220
f 203 220 212
f 204 221 222
f 206 223 207
f 207 223 208
f 208 224 225
f 208 225 226
f 208 226 209
f 208 223 235
f 208 235 224
f 209 226 210
f 210 226 227
f 210 227 218
f 210 218 211
f 212 220 228
f 212 228 213
f 213 228 238
f 213 238 239
f 213 239 229
f 213 229 217
f 213 217 216
f 213 216 215
f 213 215 214
f 218 227 237
f 218 237 230
f 218 230 231
f 218 231 220
f 218 220 219
f 220 231 232
f 220 232 238
f 220 238 228
f 221 233 222
f 222 233 234
f 224 235 234
f 224 234 246
f 224 246 247
f 224 247 242
f 224 242 241
f 224 241 240
f 224 240 239
f 224 239 238
f 224 238 232
f 224 232 231
f 224 231 230
f 224 230 237
f 224 237 236
f 224 236 225
f 225 236 226
f 226 236 237
f 226 237 227
f 229 239 240
f 229 240 241
f 229 241 242
f 229 242 243
f 233 244 245
f 233 245 234
f 234 245 246
f 242 247 245
f 242 245 243
f 243 245 248
f 244 248 245
f 245 247 246
o convex_3
v 0.962404 0.18829 0.00336714
v 0.955383 0.202242 0.00336714
v 0.962404 0.167372 0.00336714
v 0.962404 0.18829 -0.0418971
v 0.944905 0.207489 0.00336714
v 0.955383 0.202242 -0.0488932
v 0.956553 0.155728 0.00336714
v 0.962404 0.167372 -0.0418971
v 0.957138 0.177826 -0.0941575
v 0.941447 0.18829 -0.209299
v 0.93448 0.202242 -0.216211
v 0.941447 0.209218 0.00336714
v 0.941447 0.209218 -0.0418971
v 0.920544 0.209218 -0.209299
v 0.955383 0.15343 0.00336714
v 0.955383 0.15343 -0.0418971
v 0.957138 0.156918 -0.0523492
v 0.936235 0.156918 -0.219751
v 0.941447 0.167372 -0.209299
v 0.936235 0.177826 -0.240655
v 0.936235 0.18829 -0.232816
v 0.930969 0.198754 -0.235429
v 0.913576 0.202242 -0.279008
v 0.774061 0.209218 0.00336714
v 0.878684 0.209218 -0.334808
v 0.941447 0.146454 0.00336714
v 0.941447 0.146454 -0.0418971
v 0.93448 0.15343 -0.209299
v 0.913576 0.15343 -0.272011
v 0.894375 0.156918 -0.34526
v 0.915278 0.177826 -0.303368
v 0.915278 0.18829 -0.295529
v 0.910066 0.198754 -0.298142
v 0.89262 0.202242 -0.341804
v 0.706617 0.175497 0.00336714
v 0.419022 0.209218 -0.647949
v 0.419022 0.203981 -0.624432
v 0.850813 0.202242 -0.446325
v 0.836824 0.209218 -0.439329
v 0.754593 0.105329 0.00336714
v 0.754593 0.105329 -0.0837054
v 0.920544 0.146454 -0.209299
v 0.878684 0.146454 -0.334808
v 0.89262 0.15343 -0.334808
v 0.88129 0.151691 -0.355712
v 0.831611 0.156918 -0.491589
v 0.852515 0.177826 -0.449781
v 0.857781 0.18829 -0.439329
v 0.899587 0.18829 -0.334808
v 0.704329 0.174348 0.00336714
v 0.419022 0.209218 -0.836255
v 0.419022 0.119088 -0.444218
v 0.599759 0.111583 0.00336714
v 0.843845 0.18829 -0.467229
v 0.826399 0.198754 -0.496815
v 0.829856 0.202242 -0.488133
v 0.815921 0.209218 -0.481137
v 0.596674 0.105329 0.00336714
v 0.73369 0.105329 -0.209299
v 0.732573 0.105329 -0.212165
v 0.690766 0.105329 -0.31677
v 0.815921 0.146454 -0.481137
v 0.818527 0.151691 -0.502041
v 0.685234 0.156918 -0.679895
v 0.698266 0.167372 -0.669443
v 0.822888 0.167372 -0.509038
v 0.829856 0.167372 -0.495129
v 0.481253 0.209218 -0.815941
v 0.419022 0.209066 -0.836929
v 0.419022 0.105329 -0.419942
v 0.597153 0.106366 0.00336714
v 0.822888 0.18829 -0.509038
v 0.679969 0.198754 -0.685121
v 0.815921 0.203981 -0.504739
v 0.669544 0.209218 -0.669443
v 0.672788 0.105329 -0.352846
v 0.648959 0.105329 -0.400471
v 0.639917 0.105329 -0.418509
v 0.669544 0.146454 -0.669443
v 0.73486 0.151691 -0.606731
v 0.676511 0.15343 -0.683435
v 0.517848 0.156918 -0.805489
v 0.613748 0.167372 -0.739236
v 0.659065 0.177826 -0.70611
v 0.683479 0.167372 -0.683435
v 0.669544 0.18829 -0.698186
v 0.683479 0.18829 -0.683435
v 0.706085 0.177826 -0.658991
v 0.502157 0.203981 -0.818554
v 0.481253 0.202242 -0.829849
v 0.419022 0.202293 -0.8505
v 0.419022 0.105329 -0.639267
v 0.491678 0.198754 -0.831619
v 0.683479 0.202242 -0.676439
v 0.60678 0.203981 -0.734853
v 0.55625 0.105329 -0.52303
v 0.585824 0.146454 -0.73224
v 0.609386 0.151691 -0.73224
v 0.535347 0.105329 -0.543934
v 0.523432 0.105329 -0.555819
v 0.509125 0.15343 -0.808945
v 0.486466 0.156918 -0.826393
v 0.530028 0.167372 -0.801949
v 0.509125 0.18829 -0.822853
v 0.428915 0.198754 -0.852523
v 0.419022 0.202049 -0.850837
v 0.419022 0.146454 -0.836255
v 0.460297 0.146454 -0.815941
v 0.502157 0.146454 -0.794952
v 0.481253 0.18829 -0.836845
v 0.449872 0.177826 -0.852523
v 0.525666 0.151691 -0.794952
v 0.425458 0.15343 -0.850753
v 0.444606 0.156918 -0.847297
v 0.48386 0.167372 -0.831619
v 0.419022 0.18888 -0.857496
v 0.419022 0.146586 -0.836845
v 0.419022 0.147043 -0.838025
v 0.442 0.167372 -0.852523
v 0.419022 0.167372 -0.857581
v 0.419022 0.152992 -0.852523
f 249 250 253
f 249 253 260
f 249 260 272
f 249 272 283
f 249 283 298
f 249 298 301
f 249 301 319
f 249 319 306
f 249 306 288
f 249 288 274
f 249 274 263
f 249 263 255
f 249 255 251
f 249 251 256
f 249 256 252
f 249 252 254
f 249 254 250
f 250 254 253
f 251 255 256
f 252 256 257
f 252 257 258
f 252 258 259
f 252 259 254
f 253 254 261
f 253 261 260
f 254 259 262
f 254 262 261
f 255 263 264
f 255 264 265
f 255 265 256
f 256 265 266
f 256 266 267
f 256 267 257
f 257 267 258
f 258 267 268
f 258 268 269
f 258 269 259
f 259 269 270
f 259 270 271
f 259 271 262
f 260 261 262
f 260 262 273
f 260 273 287
f 260 287 305
f 260 305 323
f 260 323 316
f 260 316 299
f 260 299 284
f 260 284 272
f 262 271 273
f 263 274 275
f 263 275 264
f 264 275 290
f 264 290 276
f 264 276 266
f 264 266 265
f 266 268 267
f 266 276 277
f 266 277 278
f 266 278 268
f 268 278 279
f 268 279 280
f 268 280 269
f 269 280 281
f 269 281 270
f 270 281 271
f 271 281 282
f 271 282 273
f 272 284 285
f 272 285 283
f 273 282 286
f 273 286 287
f 274 288 289
f 274 289 275
f 275 289 290
f 276 290 277
f 277 290 291
f 277 291 292
f 277 292 278
f 278 292 293
f 278 293 311
f 278 311 294
f 278 294 295
f 278 295 279
f 279 295 296
f 279 296 297
f 279 297 282
f 279 282 280
f 280 282 281
f 282 297 296
f 282 296 286
f 283 285 298
f 284 299 317
f 284 317 339
f 284 339 354
f 284 354 364
f 284 364 368
f 284 368 369
f 284 369 366
f 284 366 365
f 284 365 355
f 284 355 340
f 284 340 318
f 284 318 300
f 284 300 285
f 285 300 301
f 285 301 298
f 286 296 302
f 286 302 303
f 286 303 304
f 286 304 305
f 286 305 287
f 288 306 318
f 288 318 340
f 288 340 348
f 288 348 347
f 288 347 344
f 288 344 326
f 288 326 325
f 288 325 324
f 288 324 309
f 288 309 308
f 288 308 307
f 288 307 289
f 289 307 290
f 290 307 291
f 291 293 292
f 291 307 308
f 291 308 309
f 291 309 310
f 291 310 311
f 291 311 293
f 294 311 312
f 294 312 313
f 294 313 314
f 294 314 315
f 294 315 302
f 294 302 296
f 294 296 295
f 299 316 317
f 300 318 301
f 301 318 319
f 302 315 314
f 302 314 320
f 302 320 303
f 303 320 321
f 303 321 322
f 303 322 304
f 304 322 305
f 305 322 323
f 306 319 318
f 309 324 310
f 310 325 326
f 310 326 327
f 310 327 311
f 310 324 325
f 311 327 328
f 311 328 329
f 311 329 312
f 312 329 330
f 312 330 331
f 312 331 332
f 312 332 333
f 312 333 313
f 313 333 334
f 313 334 335
f 313 335 336
f 313 336 320
f 313 320 314
f 316 337 338
f 316 338 339
f 316 339 317
f 316 323 337
f 320 336 321
f 321 336 335
f 321 335 334
f 321 334 341
f 321 341 337
f 321 337 342
f 321 342 322
f 322 342 323
f 323 342 343
f 323 343 337
f 326 344 327
f 327 340 345
f 327 345 346
f 327 346 329
f 327 329 328
f 327 344 347
f 327 347 348
f 327 348 340
f 329 346 330
f 330 349 350
f 330 350 351
f 330 351 331
f 330 346 349
f 331 351 352
f 331 352 332
f 332 334 333
f 332 352 334
f 334 352 341
f 337 341 338
f 337 343 342
f 338 341 339
f 339 341 353
f 339 353 354
f 340 355 356
f 340 356 357
f 340 357 345
f 341 352 358
f 341 358 359
f 341 359 353
f 345 357 346
f 346 357 360
f 346 360 349
f 349 356 361
f 349 361 350
f 349 360 357
f 349 357 356
f 350 352 351
f 350 361 362
f 350 362 359
f 350 359 363
f 350 363 352
f 352 363 359
f 352 359 358
f 353 359 364
f 353 364 354
f 355 365 356
f 356 365 366
f 356 366 361
f 359 362 367
f 359 367 368
f 359 368 364
f 361 366 369
f 361 369 362
f 362 369 367
f 367 369 368
o convex_4
v 0.419022 0.105329 -0.419989
v 0.419022 0.119088 -0.444256
v 0.00194262 0.174348 -0.704339
v 0.00194262 0.111583 -0.599785
v 0.00194262 0.105329 -0.593466
v 0.419022 0.105329 -0.639345
v 0.419022 0.203981 -0.624477
v 0.0557922 0.202242 -0.739225
v 0.00194262 0.209218 -0.774059
v 0.00194262 0.105329 -0.754624
v 0.418777 0.105329 -0.639557
v 0.418409 0.146454 -0.836823
v 0.419022 0.146454 -0.836239
v 0.419022 0.204693 -0.627663
v 0.397506 0.209218 -0.648584
v 0.0627735 0.209218 -0.753138
v 0.00194262 0.209218 -0.94143
v 0.00194262 0.146454 -0.94143
v 0.0844113 0.105329 -0.754624
v 0.3982 0.105329 -0.650018
v 0.334716 0.146454 -0.878666
v 0.383544 0.15343 -0.87171
v 0.419022 0.147043 -0.837991
v 0.419022 0.146586 -0.836823
v 0.419022 0.209218 -0.648
v 0.0418705 0.209218 -0.94143
v 0.00194262 0.202883 -0.95412
v 0.00194262 0.148396 -0.945359
v 0.0418705 0.146454 -0.94143
v 0.188314 0.146454 -0.920508
v 0.209951 0.105329 -0.733703
v 0.356354 0.105329 -0.670939
v 0.271966 0.146454 -0.899587
v 0.341697 0.15343 -0.892631
v 0.314507 0.105329 -0.691807
v 0.419022 0.167372 -0.857638
v 0.419022 0.152992 -0.85254
v 0.419022 0.209218 -0.836239
v 0.0418705 0.202242 -0.955395
v 0.209257 0.209218 -0.920508
v 0.00194262 0.202242 -0.955395
v 0.0488518 0.15343 -0.955395
v 0.00194262 0.15343 -0.955395
v 0.195295 0.15343 -0.934474
v 0.278948 0.15343 -0.913552
v 0.334716 0.167372 -0.899587
v 0.298136 0.156918 -0.910048
v 0.295482 0.167372 -0.915305
v 0.303361 0.177826 -0.915305
v 0.419022 0.18829 -0.857532
v 0.345208 0.198754 -0.894383
v 0.419022 0.209066 -0.836929
v 0.418409 0.209218 -0.836823
v 0.052322 0.198754 -0.957147
v 0.209257 0.202242 -0.934474
v 0.334716 0.209218 -0.878666
v 0.00194262 0.18829 -0.962404
v 0.0418705 0.167372 -0.962404
v 0.00194262 0.167372 -0.962404
v 0.188314 0.167372 -0.94143
v 0.240571 0.177826 -0.936226
v 0.219668 0.198754 -0.936226
v 0.419022 0.18888 -0.857479
v 0.387014 0.198754 -0.873462
v 0.334716 0.202242 -0.892631
v 0.35566 0.203981 -0.881321
v 0.397506 0.203981 -0.860399
v 0.419022 0.202293 -0.85047
v 0.0418705 0.18829 -0.962404
v 0.209257 0.18829 -0.94143
v 0.419022 0.202049 -0.850894
f 370 371 372
f 370 372 373
f 370 373 374
f 370 374 379
f 370 379 388
f 370 388 400
f 370 400 404
f 370 404 401
f 370 401 389
f 370 389 380
f 370 380 375
f 370 375 382
f 370 382 393
f 370 393 392
f 370 392 406
f 370 406 405
f 370 405 419
f 370 419 432
f 370 432 440
f 370 440 437
f 370 437 421
f 370 421 407
f 370 407 394
f 370 394 383
f 370 383 376
f 370 376 371
f 371 376 377
f 371 377 372
f 372 377 378
f 372 378 386
f 372 386 396
f 372 396 410
f 372 410 426
f 372 426 428
f 372 428 412
f 372 412 397
f 372 397 387
f 372 387 379
f 372 379 374
f 372 374 373
f 375 380 381
f 375 381 382
f 376 383 384
f 376 384 385
f 376 385 377
f 377 385 378
f 378 385 384
f 378 384 394
f 378 394 407
f 378 407 422
f 378 422 425
f 378 425 409
f 378 409 395
f 378 395 386
f 379 387 398
f 379 398 388
f 380 389 381
f 381 390 403
f 381 403 391
f 381 391 392
f 381 392 393
f 381 393 382
f 381 389 401
f 381 401 390
f 383 394 384
f 386 395 396
f 387 397 398
f 388 398 399
f 388 399 400
f 390 402 414
f 390 414 403
f 390 401 404
f 390 404 400
f 390 400 402
f 391 403 405
f 391 405 406
f 391 406 392
f 395 408 396
f 395 409 424
f 395 424 408
f 396 408 410
f 397 411 398
f 397 412 411
f 398 411 413
f 398 413 399
f 399 413 414
f 399 414 402
f 399 402 400
f 403 415 405
f 403 414 416
f 403 416 417
f 403 417 418
f 403 418 415
f 405 415 418
f 405 418 420
f 405 420 419
f 407 421 422
f 408 423 438
f 408 438 426
f 408 426 410
f 408 424 423
f 409 425 434
f 409 434 424
f 411 412 428
f 411 428 427
f 411 427 413
f 413 427 429
f 413 429 430
f 413 430 414
f 414 430 416
f 416 430 417
f 417 430 418
f 418 430 431
f 418 431 420
f 419 420 433
f 419 433 432
f 420 434 435
f 420 435 436
f 420 436 433
f 420 431 424
f 420 424 434
f 421 437 436
f 421 436 435
f 421 435 425
f 421 425 422
f 423 424 431
f 423 431 438
f 425 435 434
f 426 438 427
f 426 427 428
f 427 438 439
f 427 439 430
f 427 430 429
f 430 439 431
f 431 439 438
f 432 433 440
f 433 436 440
f 436 437 440
o convex_5
v 0.00190132 0.18829 0.962404
v 0.00190132 0.167372 0.962404
v 0.00190132 0.202242 0.955382
v -0.0627741 0.18829 0.962404
v -0.0418764 0.167372 0.962404
v 0.00190132 0.154731 0.956074
v 0.00190132 0.208242 0.943412
v -0.0697537 0.202242 0.955382
v -0.216161 0.202242 0.934475
v -0.209182 0.18829 0.941444
v -0.209182 0.167372 0.941444
v -0.0523252 0.156918 0.957137
v -0.219672 0.156918 0.936231
v 0.00190132 0.15343 0.955382
v -0.0418764 0.15343 0.955382
v 0.00190132 0.209218 0.941444
v -0.0627741 0.209218 0.941444
v -0.235366 0.198754 0.931017
v -0.232723 0.18829 0.936231
v -0.209182 0.209218 0.920537
v -0.341713 0.202242 0.892661
v -0.24057 0.177826 0.936231
v -0.209182 0.15343 0.934475
v -0.303345 0.177826 0.915324
v -0.282406 0.156918 0.915324
v -0.334733 0.15343 0.892661
v 0.00190132 0.147104 0.942774
v -0.0418764 0.146454 0.941444
v 0.00190132 0.209218 0.774083
v -0.2981 0.198754 0.910057
v -0.295498 0.18829 0.915324
v -0.271957 0.209218 0.89963
v -0.383549 0.202242 0.871701
v -0.419976 0.18829 0.857764
v -0.334733 0.18829 0.89963
v -0.334733 0.209218 0.87867
v -0.419976 0.209218 0.836857
v -0.209182 0.146454 0.920537
v -0.345182 0.156918 0.894364
v -0.355631 0.151691 0.88133
v -0.334733 0.146454 0.87867
v -0.271957 0.146454 0.89963
v 0.00190132 0.146454 0.941444
v -0.0837131 0.105329 0.754612
v 0.00190132 0.18829 0.732216
v -0.419976 0.118691 0.445638
v -0.419976 0.125149 0.458565
v -0.419976 0.203981 0.623532
v -0.397509 0.209218 0.648589
v -0.419976 0.202618 0.852284
v -0.419976 0.167372 0.857178
v -0.387018 0.156918 0.873457
v -0.419976 0.209218 0.647046
v -0.209182 0.105329 0.733652
v -0.397509 0.151691 0.86037
v -0.418406 0.146454 0.836857
v -0.334733 0.105329 0.681784
v -0.316685 0.105329 0.690775
v -0.212073 0.105329 0.732588
v 0.00190132 0.105329 0.754612
v 0.00190132 0.174988 0.705617
v -0.419976 0.105329 0.418933
v -0.419976 0.204368 0.625235
v -0.419976 0.165826 0.857019
v -0.419976 0.153948 0.851061
v -0.419976 0.153308 0.849943
v -0.419976 0.14684 0.837016
v -0.419976 0.146454 0.835314
v -0.419976 0.105329 0.638428
v -0.418406 0.105329 0.639917
v -0.400358 0.105329 0.648961
v -0.37657 0.105329 0.660878
v 0.00190132 0.105329 0.596667
v 0.00190132 0.174348 0.70434
v 0.00190132 0.111583 0.599806
v -0.0107364 0.105329 0.591294
v 0.00190132 0.110536 0.599274
f 441 442 446
f 441 446 454
f 441 454 467
f 441 467 483
f 441 483 500
f 441 500 513
f 441 513 517
f 441 517 515
f 441 515 514
f 441 514 501
f 441 501 485
f 441 485 469
f 441 469 456
f 441 456 447
f 441 447 443
f 441 443 448
f 441 448 444
f 441 444 445
f 441 445 442
f 442 445 446
f 443 447 448
f 444 448 449
f 444 449 450
f 444 450 451
f 444 451 445
f 445 452 446
f 445 451 453
f 445 453 452
f 446 452 455
f 446 455 454
f 447 456 457
f 447 457 448
f 448 457 460
f 448 460 449
f 449 458 459
f 449 459 450
f 449 460 472
f 449 472 461
f 449 461 458
f 450 459 462
f 450 462 451
f 451 462 453
f 452 453 455
f 453 463 455
f 453 462 464
f 453 464 465
f 453 465 466
f 453 466 463
f 454 455 467
f 455 463 478
f 455 478 468
f 455 468 467
f 456 469 489
f 456 489 493
f 456 493 477
f 456 477 476
f 456 476 472
f 456 472 460
f 456 460 457
f 458 470 471
f 458 471 459
f 458 461 470
f 459 471 464
f 459 464 462
f 461 473 474
f 461 474 475
f 461 475 464
f 461 464 471
f 461 471 470
f 461 472 476
f 461 476 477
f 461 477 473
f 463 466 482
f 463 482 478
f 464 475 474
f 464 474 479
f 464 479 465
f 465 479 466
f 466 480 481
f 466 481 482
f 466 479 480
f 467 468 483
f 468 478 484
f 468 484 500
f 468 500 483
f 469 485 486
f 469 486 487
f 469 487 488
f 469 488 489
f 473 490 474
f 473 477 490
f 474 490 477
f 474 477 493
f 474 493 503
f 474 503 488
f 474 488 487
f 474 487 486
f 474 486 502
f 474 502 509
f 474 509 508
f 474 508 507
f 474 507 506
f 474 506 505
f 474 505 504
f 474 504 491
f 474 491 492
f 474 492 479
f 478 482 494
f 478 494 484
f 479 492 480
f 480 492 495
f 480 495 496
f 480 496 481
f 481 496 512
f 481 512 497
f 481 497 498
f 481 498 499
f 481 499 494
f 481 494 482
f 484 494 499
f 484 499 498
f 484 498 497
f 484 497 512
f 484 512 511
f 484 511 510
f 484 510 509
f 484 509 502
f 484 502 516
f 484 516 513
f 484 513 500
f 485 501 486
f 486 501 502
f 488 503 489
f 489 503 493
f 491 504 492
f 492 504 505
f 492 505 495
f 495 505 506
f 495 506 507
f 495 507 496
f 496 507 508
f 496 508 509
f 496 509 510
f 496 510 511
f 496 511 512
f 501 514 502
f 502 515 516
f 502 514 515
f 513 516 517
f 515 517 516
o convex_6
v -0.419976 0.18829 0.857795
v -0.439409 0.18829 0.857795
v -0.419976 0.167372 0.857208
v -0.419976 0.202618 0.852265
v -0.481248 0.167372 0.836849
v -0.449869 0.177826 0.852517
v -0.428949 0.156918 0.852517
v -0.419976 0.165826 0.856957
v -0.446364 0.202242 0.850757
v -0.455072 0.198754 0.847322
v -0.488204 0.202242 0.829895
v -0.49516 0.18829 0.829895
v -0.49516 0.167372 0.829895
v -0.419976 0.209218 0.836849
v -0.439409 0.209218 0.836849
v -0.491708 0.156918 0.831571
v -0.419976 0.153948 0.851008
v -0.481248 0.15343 0.829895
v -0.481248 0.209218 0.815903
v -0.50477 0.203981 0.815903
v -0.496912 0.198754 0.826376
v -0.509124 0.18829 0.822857
v -0.509124 0.167372 0.822857
v -0.419976 0.209218 0.646995
v -0.502168 0.151691 0.8185
v -0.669527 0.167372 0.698187
v -0.679987 0.156918 0.685117
v -0.419976 0.153308 0.849919
v -0.481248 0.146454 0.815903
v -0.419976 0.14684 0.837017
v -0.669527 0.209218 0.669449
v -0.676482 0.202242 0.683441
v -0.68519 0.198754 0.679922
v -0.659067 0.177826 0.706063
v -0.419976 0.203981 0.623452
v -0.774073 0.209218 0.00186191
v -0.683491 0.15343 0.676404
v -0.606767 0.151691 0.734801
v -0.669527 0.146454 0.669449
v -0.683491 0.18829 0.683441
v -0.698252 0.18829 0.669449
v -0.683491 0.167372 0.683441
v -0.70611 0.177826 0.658977
v -0.789789 0.177826 0.554415
v -0.784533 0.156918 0.549136
v -0.419976 0.146454 0.835257
v -0.419976 0.105329 0.638366
v -0.734835 0.203981 0.606696
v -0.815912 0.209218 0.481188
v -0.818514 0.203981 0.50205
v -0.831629 0.198754 0.491661
v -0.419976 0.125149 0.458482
v -0.59344 0.105329 0.00186191
v -0.599812 0.111583 0.00186191
v -0.704358 0.174348 0.00186191
v -0.709455 0.1769 0.00186191
v -0.718269 0.181314 0.00186191
v -0.760108 0.202242 0.00186191
v -0.941431 0.209218 0.00186191
v -0.732233 0.151691 0.609293
v -0.794992 0.151691 0.525593
v -0.794992 0.146454 0.50205
v -0.639581 0.105329 0.418853
v -0.555901 0.105329 0.523331
v -0.534981 0.105329 0.544277
v -0.523088 0.105329 0.556174
v -0.822921 0.18829 0.509088
v -0.802001 0.167372 0.52995
v -0.805452 0.156918 0.517801
v -0.808957 0.15343 0.509088
v -0.419976 0.105329 0.418937
v -0.878672 0.209218 0.334818
v -0.881327 0.203981 0.35568
v -0.852549 0.177826 0.449769
v -0.894388 0.198754 0.345291
v -0.419976 0.118691 0.44558
v -0.754586 0.105329 0.00186191
v -0.954174 0.202862 0.00186191
v -0.941431 0.209218 0.0419105
v -0.836832 0.146454 0.418518
v -0.65004 0.105329 0.398242
v -0.831629 0.167372 0.483785
v -0.826372 0.156918 0.486382
v -0.850796 0.15343 0.425472
v -0.899592 0.209218 0.272064
v -0.892636 0.202242 0.334818
v -0.852549 0.167372 0.441893
v -0.847292 0.156918 0.444574
v -0.915308 0.177826 0.303399
v -0.899592 0.167372 0.334818
v -0.892636 0.15343 0.341772
v -0.913556 0.202242 0.272064
v -0.936228 0.198754 0.219699
v -0.936228 0.177826 0.240645
v -0.941431 0.146454 0.00186191
v -0.754586 0.105329 0.0844725
v -0.955395 0.202242 0.00186191
v -0.955395 0.202242 0.0419105
v -0.920511 0.209218 0.209226
v -0.878672 0.146454 0.334818
v -0.67096 0.105329 0.356434
v -0.915308 0.167372 0.295523
v -0.910051 0.156918 0.298204
v -0.934476 0.15343 0.216264
v -0.934476 0.202242 0.209226
v -0.957148 0.198754 0.0523834
v -0.962404 0.18829 0.0419105
v -0.941431 0.18829 0.209226
v -0.941431 0.167372 0.209226
v -0.936228 0.167372 0.232769
v -0.945201 0.148325 0.00186191
v -0.941431 0.146454 0.0419105
v -0.733667 0.105329 0.20998
v -0.920511 0.146454 0.209226
v -0.962404 0.18829 0.00186191
v -0.899592 0.146454 0.272064
v -0.691827 0.105329 0.314626
v -0.930971 0.156918 0.235451
v -0.962404 0.167372 0.0419105
v -0.955395 0.15343 0.0488645
v -0.955395 0.15343 0.00186191
v -0.962404 0.167372 0.00186191
f 518 519 520
f 518 520 525
f 518 525 534
f 518 534 545
f 518 545 547
f 518 547 563
f 518 563 564
f 518 564 588
f 518 588 593
f 518 593 569
f 518 569 552
f 518 552 541
f 518 541 531
f 518 531 521
f 518 521 519
f 519 522 523
f 519 523 524
f 519 524 525
f 519 525 520
f 519 521 526
f 519 526 527
f 519 527 528
f 519 528 529
f 519 529 530
f 519 530 522
f 521 531 532
f 521 532 526
f 522 530 533
f 522 533 523
f 523 533 524
f 524 534 525
f 524 533 535
f 524 535 534
f 526 532 528
f 526 528 527
f 528 536 537
f 528 537 538
f 528 538 539
f 528 539 529
f 528 532 536
f 529 539 540
f 529 540 530
f 530 540 533
f 531 541 553
f 531 553 576
f 531 576 596
f 531 596 616
f 531 616 602
f 531 602 589
f 531 589 566
f 531 566 548
f 531 548 536
f 531 536 532
f 533 542 535
f 533 540 543
f 533 543 544
f 533 544 542
f 534 535 545
f 535 542 546
f 535 546 547
f 535 547 545
f 536 548 537
f 537 549 550
f 537 550 538
f 537 548 549
f 538 550 539
f 539 550 551
f 539 551 543
f 539 543 540
f 541 552 553
f 542 544 554
f 542 554 555
f 542 555 556
f 542 556 546
f 543 551 557
f 543 557 558
f 543 558 559
f 543 559 544
f 544 559 560
f 544 560 561
f 544 561 562
f 544 562 554
f 546 563 547
f 546 556 564
f 546 564 563
f 548 565 549
f 548 566 567
f 548 567 565
f 549 565 567
f 549 567 550
f 550 558 557
f 550 557 551
f 550 567 568
f 550 568 558
f 552 569 570
f 552 570 571
f 552 571 572
f 552 572 573
f 552 573 574
f 552 574 575
f 552 575 553
f 553 575 574
f 553 574 573
f 553 573 572
f 553 572 571
f 553 571 570
f 553 570 594
f 553 594 612
f 553 612 628
f 553 628 638
f 553 638 639
f 553 639 632
f 553 632 614
f 553 614 595
f 553 595 576
f 554 577 556
f 554 556 555
f 554 562 577
f 556 577 578
f 556 578 579
f 556 579 580
f 556 580 581
f 556 581 582
f 556 582 583
f 556 583 564
f 558 560 559
f 558 568 584
f 558 584 561
f 558 561 560
f 561 584 585
f 561 585 562
f 562 585 586
f 562 586 587
f 562 587 578
f 562 578 577
f 564 583 582
f 564 582 581
f 564 581 580
f 564 580 598
f 564 598 618
f 564 618 634
f 564 634 630
f 564 630 613
f 564 613 594
f 564 594 570
f 564 570 588
f 566 589 590
f 566 590 567
f 567 590 568
f 568 591 584
f 568 590 592
f 568 592 606
f 568 606 591
f 569 593 570
f 570 593 588
f 576 595 596
f 578 587 579
f 579 587 597
f 579 597 598
f 579 598 580
f 584 591 599
f 584 599 600
f 584 600 585
f 585 600 586
f 586 600 587
f 587 600 605
f 587 605 601
f 587 601 597
f 589 602 609
f 589 609 603
f 589 603 590
f 590 603 592
f 591 604 605
f 591 605 599
f 591 606 607
f 591 607 608
f 591 608 604
f 592 603 609
f 592 609 610
f 592 610 611
f 592 611 606
f 594 613 629
f 594 629 612
f 595 614 615
f 595 615 596
f 596 615 622
f 596 622 616
f 597 601 608
f 597 608 617
f 597 617 618
f 597 618 598
f 599 605 600
f 601 605 608
f 602 616 622
f 602 622 609
f 604 608 605
f 606 611 627
f 606 627 619
f 606 619 608
f 606 608 607
f 608 619 620
f 608 620 635
f 608 635 621
f 608 621 633
f 608 633 617
f 609 622 610
f 610 622 615
f 610 615 623
f 610 623 624
f 610 624 625
f 610 625 611
f 611 625 626
f 611 626 627
f 612 629 628
f 613 630 631
f 613 631 629
f 614 632 624
f 614 624 623
f 614 623 615
f 617 633 630
f 617 630 634
f 617 634 618
f 619 627 635
f 619 635 620
f 621 631 633
f 621 635 627
f 621 627 626
f 621 626 636
f 621 636 637
f 621 637 629
f 621 629 631
f 624 632 639
f 624 639 636
f 624 636 626
f 624 626 625
f 628 629 637
f 628 637 638
f 630 633 631
f 636 639 638
f 636 638 637
o convex_7
v 0.00190112 0.105329 -0.593467
v 0.00190112 0.111583 -0.599811
v -0.422166 0.105329 -0.413138
v 0.00190112 0.105329 -0.754601
v 0.00190112 0.174348 -0.704331
v -0.422166 0.134647 -0.472119
v -0.422166 0.105329 -0.568573
v -0.0558035 0.195266 -0.725245
v -0.0829953 0.105329 -0.754601
v 0.00190112 0.146454 -0.941436
v 0.00190112 0.195266 -0.74616
v -0.422166 0.195388 -0.59965
v 0.00190112 0.209218 -0.774064
v -0.422166 0.105359 -0.626963
v -0.422 0.105329 -0.626963
v -0.188317 0.146454 -0.920521
v -0.0418548 0.146454 -0.941436
v -0.208534 0.105329 -0.733687
v 0.00190112 0.148396 -0.94536
v -0.397506 0.209218 -0.64863
v -0.422166 0.205771 -0.631102
v -0.0627779 0.209218 -0.75315
v 0.00190112 0.209218 -0.941436
v -0.409379 0.105329 -0.639597
v -0.422166 0.147206 -0.836109
v -0.418429 0.146454 -0.836862
v -0.271968 0.146454 -0.899606
v -0.181342 0.15343 -0.9345
v -0.0348804 0.15343 -0.955415
v -0.298495 0.105329 -0.695997
v -0.376583 0.146454 -0.857777
v 0.00190112 0.15343 -0.955415
v -0.422166 0.209218 -0.64863
v 0.00190112 0.202242 -0.955415
v -0.0418548 0.209218 -0.941436
v -0.401076 0.105329 -0.647877
v -0.422166 0.150186 -0.840572
v -0.404481 0.160396 -0.864766
v -0.345198 0.156918 -0.889176
v -0.384263 0.105329 -0.656318
v -0.398212 0.105329 -0.649329
v -0.264993 0.15343 -0.913585
v -0.21966 0.156918 -0.931005
v -0.0418548 0.167372 -0.962404
v -0.342417 0.105329 -0.677233
v 0.00190112 0.167372 -0.962404
v -0.422166 0.209218 -0.815947
v 0.00190112 0.18829 -0.962404
v -0.0418548 0.202242 -0.955415
v -0.0523163 0.203981 -0.95192
v -0.20924 0.209218 -0.920521
v -0.422166 0.155575 -0.848637
v -0.376583 0.167372 -0.878692
v -0.422166 0.168114 -0.857024
v -0.334737 0.18829 -0.899606
v -0.271968 0.167372 -0.920521
v -0.299865 0.160396 -0.906596
v -0.237096 0.160396 -0.92751
v -0.205752 0.17086 -0.937995
v -0.188317 0.167372 -0.941436
v -0.0418548 0.18829 -0.962404
v -0.20924 0.18829 -0.941436
v -0.418429 0.209218 -0.836862
v -0.422166 0.207815 -0.836862
v -0.20924 0.202242 -0.9345
v -0.21966 0.203981 -0.931005
v -0.345198 0.203981 -0.889176
v -0.334737 0.209218 -0.878692
v -0.422166 0.184558 -0.857024
v -0.348686 0.195266 -0.892617
v -0.230121 0.190903 -0.93622
v -0.240583 0.177826 -0.931005
v -0.422166 0.207347 -0.840572
v -0.240583 0.193517 -0.931005
v -0.390532 0.195266 -0.871702
v -0.387045 0.203981 -0.868207
v -0.422166 0.188758 -0.856809
v -0.422166 0.202862 -0.849551
v -0.422166 0.200218 -0.85111
f 640 641 642
f 640 642 646
f 640 646 654
f 640 654 663
f 640 663 675
f 640 675 680
f 640 680 679
f 640 679 684
f 640 684 669
f 640 669 657
f 640 657 648
f 640 648 643
f 640 643 649
f 640 649 658
f 640 658 671
f 640 671 685
f 640 685 687
f 640 687 673
f 640 673 662
f 640 662 652
f 640 652 650
f 640 650 644
f 640 644 641
f 641 644 642
f 642 645 651
f 642 651 660
f 642 660 672
f 642 672 686
f 642 686 703
f 642 703 712
f 642 712 717
f 642 717 718
f 642 718 716
f 642 716 708
f 642 708 693
f 642 693 691
f 642 691 676
f 642 676 664
f 642 664 653
f 642 653 646
f 642 644 647
f 642 647 645
f 643 648 656
f 643 656 649
f 644 650 647
f 645 647 652
f 645 652 651
f 646 653 654
f 647 650 652
f 648 655 656
f 648 657 655
f 649 656 658
f 651 659 660
f 651 652 661
f 651 661 659
f 652 662 674
f 652 674 690
f 652 690 707
f 652 707 702
f 652 702 686
f 652 686 672
f 652 672 659
f 652 659 661
f 653 663 654
f 653 664 665
f 653 665 663
f 655 666 681
f 655 681 667
f 655 667 668
f 655 668 656
f 655 657 666
f 656 668 658
f 657 669 670
f 657 670 666
f 658 668 671
f 659 672 660
f 662 673 688
f 662 688 674
f 663 665 675
f 664 676 677
f 664 677 665
f 665 677 678
f 665 678 670
f 665 670 684
f 665 684 679
f 665 679 680
f 665 680 675
f 666 670 678
f 666 678 681
f 667 682 683
f 667 683 668
f 667 681 682
f 668 683 685
f 668 685 671
f 669 684 670
f 673 687 700
f 673 700 688
f 674 688 689
f 674 689 690
f 676 691 677
f 677 692 678
f 677 691 693
f 677 693 692
f 678 692 694
f 678 694 695
f 678 695 696
f 678 696 681
f 681 696 697
f 681 697 682
f 682 698 699
f 682 699 683
f 682 697 698
f 683 700 687
f 683 687 685
f 683 699 701
f 683 701 700
f 686 702 703
f 688 700 704
f 688 704 689
f 689 704 705
f 689 705 690
f 690 705 706
f 690 706 707
f 692 693 694
f 693 708 694
f 694 708 709
f 694 709 710
f 694 710 695
f 695 697 696
f 695 710 711
f 695 711 698
f 695 698 697
f 698 711 701
f 698 701 699
f 700 701 704
f 701 710 704
f 701 711 710
f 702 707 706
f 702 706 712
f 702 712 703
f 704 710 705
f 705 710 713
f 705 713 706
f 706 709 714
f 706 714 715
f 706 715 712
f 706 713 710
f 706 710 709
f 708 716 709
f 709 716 714
f 712 715 717
f 714 716 718
f 714 718 717
f 714 717 715
o convex_8
v -0.422218 0.105329 -0.413217
v -0.422218 0.105329 -0.568503
v -0.422218 0.134647 -0.472069
v -0.593449 0.105329 0.00177785
v -0.433112 0.105329 -0.621387
v -0.422218 0.105359 -0.626852
v -0.422218 0.195388 -0.599611
v -0.599795 0.111583 0.00177785
v -0.754579 0.105329 0.00177785
v -0.438665 0.105329 -0.618612
v -0.460293 0.146454 -0.815936
v -0.422218 0.147206 -0.836114
v -0.422218 0.205771 -0.631055
v -0.428934 0.198754 -0.596248
v -0.704342 0.174348 0.00177785
v -0.941463 0.146454 0.00177785
v -0.754579 0.105329 -0.0829698
v -0.669546 0.146454 -0.669478
v -0.502175 0.146454 -0.795002
v -0.522376 0.105329 -0.555808
v -0.449823 0.156918 -0.847296
v -0.422218 0.155575 -0.848642
v -0.422218 0.209218 -0.648543
v -0.774093 0.209218 0.00177785
v -0.746171 0.195266 0.00177785
v -0.73036 0.187364 0.00177785
v -0.955424 0.15343 0.00177785
v -0.941463 0.146454 -0.0418571
v -0.920522 0.146454 -0.209251
v -0.733691 0.105329 -0.208578
v -0.728773 0.149942 -0.603226
v -0.700852 0.156918 -0.658968
v -0.659075 0.156918 -0.700838
v -0.603285 0.149942 -0.728751
v -0.53914 0.105329 -0.539077
v -0.555903 0.105329 -0.522262
v -0.647864 0.105329 -0.401194
v -0.794981 0.146454 -0.502084
v -0.519573 0.149942 -0.791471
v -0.491705 0.156918 -0.826362
v -0.435915 0.17086 -0.854275
v -0.422218 0.168114 -0.857049
v -0.509103 0.181314 -0.822915
v -0.481234 0.18829 -0.836871
v -0.422218 0.209218 -0.815936
v -0.941463 0.209218 0.00177785
v -0.962404 0.167372 0.00177785
v -0.955424 0.15343 -0.0348789
v -0.934483 0.15343 -0.202272
v -0.930992 0.156918 -0.240611
v -0.899634 0.146454 -0.272055
v -0.857751 0.146454 -0.376644
v -0.695987 0.105329 -0.298538
v -0.791491 0.149942 -0.519488
v -0.826393 0.156918 -0.491659
v -0.739191 0.160396 -0.613652
v -0.693871 0.163884 -0.672925
v -0.673036 0.163884 -0.693859
v -0.613756 0.160396 -0.739176
v -0.575364 0.156918 -0.763642
v -0.649345 0.105329 -0.398251
v -0.836863 0.146454 -0.418513
v -0.530044 0.160396 -0.80198
v -0.439405 0.190903 -0.852509
v -0.422218 0.184558 -0.857049
v -0.669546 0.185676 -0.695625
v -0.683454 0.195266 -0.683434
v -0.495195 0.195266 -0.829893
v -0.422218 0.207815 -0.836871
v -0.481234 0.209218 -0.815936
v -0.955424 0.202242 0.00177785
v -0.941463 0.209218 -0.0418571
v -0.962404 0.18829 0.00177785
v -0.962404 0.167372 -0.0418571
v -0.941463 0.167372 -0.209251
v -0.937973 0.17086 -0.226654
v -0.910051 0.156918 -0.303415
v -0.677214 0.105329 -0.34251
v -0.847334 0.156918 -0.449789
v -0.826393 0.193517 -0.491659
v -0.821157 0.185676 -0.502084
v -0.819412 0.163884 -0.505531
v -0.801961 0.160396 -0.529997
v -0.739191 0.181314 -0.613652
v -0.695616 0.185676 -0.669478
v -0.683454 0.174348 -0.683434
v -0.422218 0.202862 -0.849566
v -0.422218 0.200218 -0.85108
v -0.422218 0.188758 -0.856797
v -0.449823 0.193517 -0.847296
v -0.428934 0.203981 -0.847296
v -0.742681 0.203981 -0.596248
v -0.679963 0.203981 -0.679903
v -0.801961 0.181314 -0.529997
v -0.808942 0.195266 -0.516041
v -0.491705 0.203981 -0.826362
v -0.422218 0.207347 -0.84057
v -0.669546 0.209218 -0.669478
v -0.955424 0.202242 -0.0418571
v -0.951933 0.203981 -0.0523665
v -0.920522 0.209218 -0.209251
v -0.962404 0.18829 -0.0418571
v -0.941463 0.18829 -0.209251
v -0.936228 0.190903 -0.230185
v -0.917032 0.17086 -0.289458
v -0.899634 0.18829 -0.334775
v -0.854261 0.17086 -0.435833
v -0.847334 0.193517 -0.449789
v -0.889163 0.203981 -0.345284
v -0.826393 0.203981 -0.470724
v -0.805451 0.203981 -0.512509
v -0.794981 0.209218 -0.502084
v -0.934483 0.202242 -0.209251
v -0.930992 0.203981 -0.21976
v -0.899634 0.209218 -0.272055
v -0.915287 0.190903 -0.292989
v -0.892653 0.195266 -0.348731
v -0.852516 0.190903 -0.43928
v -0.878692 0.209218 -0.334775
v -0.836863 0.209218 -0.418513
f 719 720 724
f 719 724 730
f 719 730 740
f 719 740 760
f 719 760 783
f 719 783 807
f 719 807 806
f 719 806 805
f 719 805 815
f 719 815 787
f 719 787 763
f 719 763 741
f 719 741 731
f 719 731 725
f 719 725 721
f 719 721 722
f 719 722 727
f 719 727 735
f 719 735 748
f 719 748 771
f 719 771 796
f 719 796 779
f 719 779 755
f 719 755 754
f 719 754 753
f 719 753 738
f 719 738 728
f 719 728 723
f 719 723 720
f 720 723 724
f 721 725 722
f 722 726 733
f 722 733 744
f 722 744 743
f 722 743 742
f 722 742 764
f 722 764 789
f 722 789 791
f 722 791 765
f 722 765 745
f 722 745 734
f 722 734 727
f 722 725 726
f 723 728 729
f 723 729 724
f 724 729 730
f 725 731 732
f 725 732 726
f 726 732 731
f 726 731 733
f 727 734 746
f 727 746 735
f 728 736 737
f 728 737 729
f 728 738 736
f 729 737 758
f 729 758 739
f 729 739 730
f 730 739 740
f 731 741 742
f 731 742 743
f 731 743 744
f 731 744 733
f 734 745 766
f 734 766 746
f 735 746 747
f 735 747 748
f 736 749 750
f 736 750 751
f 736 751 752
f 736 752 737
f 736 738 753
f 736 753 754
f 736 754 755
f 736 755 756
f 736 756 749
f 737 752 757
f 737 757 758
f 739 759 760
f 739 760 740
f 739 758 761
f 739 761 762
f 739 762 759
f 741 763 788
f 741 788 816
f 741 816 830
f 741 830 838
f 741 838 837
f 741 837 833
f 741 833 819
f 741 819 790
f 741 790 764
f 741 764 742
f 745 765 792
f 745 792 766
f 746 766 767
f 746 767 747
f 747 767 768
f 747 768 769
f 747 769 748
f 748 769 770
f 748 770 771
f 749 756 772
f 749 772 773
f 749 773 750
f 750 774 775
f 750 775 776
f 750 776 751
f 750 773 801
f 750 801 774
f 751 776 777
f 751 777 781
f 751 781 778
f 751 778 752
f 752 778 758
f 752 758 757
f 755 779 756
f 756 779 780
f 756 780 773
f 756 773 772
f 758 778 781
f 758 781 761
f 759 762 782
f 759 782 783
f 759 783 760
f 761 776 784
f 761 784 785
f 761 785 786
f 761 786 762
f 761 781 777
f 761 777 776
f 762 786 782
f 763 787 788
f 764 790 817
f 764 817 789
f 765 791 820
f 765 820 792
f 766 792 793
f 766 793 767
f 767 793 768
f 768 793 794
f 768 794 823
f 768 823 795
f 768 795 769
f 769 795 770
f 770 796 771
f 770 795 797
f 770 797 780
f 770 780 796
f 773 798 799
f 773 799 800
f 773 800 801
f 773 780 797
f 773 797 826
f 773 826 798
f 774 802 775
f 774 801 812
f 774 812 802
f 775 802 803
f 775 803 785
f 775 785 804
f 775 804 776
f 776 804 785
f 776 785 784
f 779 796 780
f 782 805 806
f 782 806 807
f 782 807 783
f 782 786 808
f 782 808 809
f 782 809 805
f 785 810 811
f 785 811 814
f 785 814 786
f 785 803 802
f 785 802 812
f 785 812 813
f 785 813 810
f 786 814 808
f 787 815 788
f 788 815 809
f 788 809 814
f 788 814 816
f 789 817 820
f 789 820 791
f 790 818 817
f 790 819 832
f 790 832 818
f 792 820 821
f 792 821 793
f 793 821 794
f 794 821 822
f 794 822 834
f 794 834 823
f 795 823 824
f 795 824 797
f 797 825 826
f 797 824 825
f 798 826 827
f 798 827 828
f 798 828 829
f 798 829 813
f 798 813 799
f 799 813 812
f 799 812 800
f 800 812 801
f 805 809 815
f 808 814 809
f 810 816 811
f 810 813 829
f 810 829 816
f 811 816 814
f 816 829 830
f 817 818 832
f 817 832 831
f 817 831 821
f 817 821 820
f 819 833 832
f 821 831 822
f 822 831 832
f 822 832 827
f 822 827 834
f 823 834 824
f 824 834 835
f 824 835 836
f 824 836 825
f 825 836 826
f 826 836 835
f 826 835 827
f 827 835 834
f 827 832 833
f 827 833 837
f 827 837 838
f 827 838 828
f 828 838 830
f 828 830 829
o convex_9
v 0.754625 0.105329 0.0851621
v 0.324338 -0.203984 0.0523373
v 0.327815 -0.202229 0.0418734
v 0.718262 0.0766946 0.0209458
v 0.754625 0.105329 0.00152324
v 0.733657 0.105329 0.210728
v 0.73923 0.0976316 0.125584
v 0.30337 -0.203984 0.11512
v 0.292942 -0.209218 0.104656
v 0.313854 -0.209218 0.0418734
v 0.313854 -0.209218 0.00152324
v 0.327815 -0.202229 0.00152324
v 0.718262 0.0766946 0.00152324
v 0.596592 0.105329 0.00152324
v 0.698453 0.105329 0.305046
v 0.690397 0.0967387 0.292933
v 0.282458 -0.203984 0.156975
v 0.627603 0.0758325 0.355716
v 0.251116 -0.209218 0.188367
v 0.272029 -0.209218 0.00152324
v 0.190915 -0.11374 0.00152324
v 0.190915 0.105329 0.557396
v 0.67754 0.105329 0.346901
v 0.261545 -0.203984 0.198759
v 0.656627 0.105329 0.388684
v 0.627603 0.0967387 0.418427
v 0.198806 -0.203984 0.261542
v 0.209235 -0.209218 0.23015
v 0.268939 -0.207679 0.00152324
v 0.190915 -0.209218 0.209223
v 0.190915 -0.167344 0.00152324
v 0.190915 0.105329 0.733704
v 0.543952 0.0967387 0.522994
v 0.639025 0.105329 0.418427
v 0.634501 0.105329 0.425236
v 0.550794 0.105329 0.529874
v 0.190915 -0.207894 0.25373
v 0.523039 0.0967387 0.543922
v 0.418474 0.0967387 0.627632
v 0.35568 0.0758325 0.627632
v 0.305026 0.105329 0.698442
v 0.292942 0.0967387 0.690415
v 0.210669 0.105329 0.733704
v 0.190915 -0.20266 0.264194
v 0.190915 -0.208233 0.251078
v 0.190915 -0.209218 0.23015
v 0.258068 -0.202229 0.00152324
v 0.190915 0.0776799 0.692135
v 0.529881 0.105329 0.550802
v 0.425316 0.105329 0.634441
v 0.418474 0.105329 0.639028
v 0.388733 0.105329 0.656587
f 839 840 841
f 839 841 842
f 839 842 851
f 839 851 843
f 839 843 852
f 839 852 860
f 839 860 870
f 839 870 881
f 839 881 879
f 839 879 890
f 839 890 889
f 839 889 888
f 839 888 887
f 839 887 874
f 839 874 873
f 839 873 872
f 839 872 863
f 839 863 861
f 839 861 853
f 839 853 844
f 839 844 845
f 839 845 840
f 840 846 847
f 840 847 848
f 840 848 849
f 840 849 850
f 840 850 841
f 840 845 844
f 840 844 846
f 841 850 851
f 841 851 842
f 843 851 850
f 843 850 849
f 843 849 858
f 843 858 867
f 843 867 885
f 843 885 869
f 843 869 859
f 843 859 852
f 844 853 854
f 844 854 846
f 846 855 857
f 846 857 847
f 846 854 853
f 846 853 856
f 846 856 855
f 847 857 866
f 847 866 884
f 847 884 868
f 847 868 858
f 847 858 849
f 847 849 848
f 852 859 860
f 853 861 856
f 855 862 857
f 855 856 862
f 856 861 863
f 856 863 864
f 856 864 862
f 857 862 865
f 857 865 866
f 858 868 867
f 859 869 868
f 859 868 884
f 859 884 883
f 859 883 875
f 859 875 882
f 859 882 886
f 859 886 870
f 859 870 860
f 862 864 871
f 862 871 876
f 862 876 865
f 863 872 864
f 864 872 873
f 864 873 874
f 864 874 871
f 865 875 866
f 865 876 877
f 865 877 878
f 865 878 879
f 865 879 880
f 865 880 881
f 865 881 882
f 865 882 875
f 866 875 883
f 866 883 884
f 867 868 885
f 868 869 885
f 870 886 881
f 871 874 887
f 871 887 876
f 876 887 877
f 877 887 888
f 877 888 889
f 877 889 890
f 877 890 878
f 878 890 879
f 879 881 880
f 881 886 882
o convex_10
v 0.188295 -0.209218 0.20926
v 1.56962e-05 -0.166605 0.00152324
v 0.167359 -0.167344 0.00152324
v 0.190915 -0.209218 0.20926
v -0.106557 -0.209218 0.270078
v -0.106557 -0.146438 0.00152324
v -0.106557 -0.205 0.251132
v 0.190915 -0.167344 0.00152324
v 0.190915 -0.209218 0.230196
v -0.106557 -0.209218 0.291014
v -0.106557 -0.125501 0.00152324
v 0.190915 -0.11374 0.00152324
v 0.190915 -0.208233 0.251132
v 0.188295 -0.209218 0.251132
v -0.104606 -0.209218 0.29293
v -0.106557 -0.208726 0.293151
v -0.106557 0.105329 0.586475
v 0.17822 0.105329 0.558167
v 0.190915 0.105329 0.557356
v 0.190915 -0.207894 0.253712
v 0.156905 -0.203984 0.282462
v 0.115062 -0.203984 0.303398
v 0.104609 -0.209218 0.29293
v -0.0418273 -0.209218 0.313866
v -0.104606 -0.202229 0.306863
v -0.106557 -0.202383 0.305831
v -0.106557 0.105329 0.749613
v 0.190915 0.105329 0.73369
v 0.190915 -0.20266 0.26418
v 0.190915 0.0776799 0.692113
v 0.0522831 -0.203984 0.324334
v 0.0418587 -0.209218 0.313866
v -0.0418273 -0.202229 0.327799
v -0.106557 -0.201582 0.307231
v -0.106557 0.10459 0.748654
v -0.0836703 0.105329 0.754625
v 0.158536 0.105329 0.740324
v 0.125516 0.0976316 0.739218
v 0.0418587 -0.202229 0.327799
v 0.0850994 0.105329 0.754625
v -0.0209204 0.0766946 0.718283
v -0.106557 0.0976316 0.739218
v -0.0522808 -0.19875 0.329568
v 0.0209226 0.0766946 0.718283
f 891 892 893
f 891 893 898
f 891 898 894
f 891 894 899
f 891 899 904
f 891 904 913
f 891 913 922
f 891 922 914
f 891 914 905
f 891 905 900
f 891 900 895
f 891 895 892
f 892 896 901
f 892 901 902
f 892 902 898
f 892 898 893
f 892 895 897
f 892 897 896
f 894 898 902
f 894 902 909
f 894 909 918
f 894 918 920
f 894 920 919
f 894 919 910
f 894 910 903
f 894 903 899
f 895 900 906
f 895 906 916
f 895 916 924
f 895 924 932
f 895 932 925
f 895 925 917
f 895 917 907
f 895 907 901
f 895 901 896
f 895 896 897
f 899 903 904
f 900 905 906
f 901 907 902
f 902 907 908
f 902 908 909
f 903 910 904
f 904 910 911
f 904 911 912
f 904 912 913
f 905 914 923
f 905 923 915
f 905 915 916
f 905 916 906
f 907 917 926
f 907 926 930
f 907 930 927
f 907 927 918
f 907 918 909
f 907 909 908
f 910 919 911
f 911 919 920
f 911 920 912
f 912 921 922
f 912 922 913
f 912 920 918
f 912 918 921
f 914 922 921
f 914 921 923
f 915 923 924
f 915 924 916
f 917 925 926
f 918 927 928
f 918 928 921
f 921 929 923
f 921 928 930
f 921 930 929
f 923 929 934
f 923 934 931
f 923 931 926
f 923 926 932
f 923 932 933
f 923 933 924
f 924 933 932
f 925 932 926
f 926 931 934
f 926 934 930
f 927 930 928
f 929 930 934
o convex_11
v 0.427182 -0.0897755 0.00152319
v 0.279365 -0.0897755 0.00152319
v 0.327759 -0.202238 0.00152319
v 0.427182 -0.0897755 -0.10196
v 0.000237945 -0.125541 0.00152319
v 0.000237945 -0.0897755 -0.277286
v 0.313801 -0.209218 0.00152319
v 0.327759 -0.202238 -0.0418677
v 0.426597 -0.0897755 -0.104646
v 0.329515 -0.198754 -0.0523167
v 0.000237945 -0.166602 0.00152319
v 0.000237945 -0.0897755 -0.427182
v 0.271968 -0.209218 0.00152319
v 0.313801 -0.209218 -0.0418677
v 0.292905 -0.209218 -0.104646
v 0.306822 -0.202238 -0.104646
v 0.308577 -0.198754 -0.115095
v 0.405659 -0.0897755 -0.167382
v 0.000237945 -0.167292 0.00013839
v 0.0749615 -0.0897755 -0.427182
v 0.000237945 -0.202238 -0.327769
v 0.000237945 -0.167374 -2.94706e-05
v 0.000237945 -0.209218 -0.271957
v 0.295496 -0.20398 -0.125544
v 0.25103 -0.209218 -0.188322
v 0.253663 -0.20398 -0.20922
v 0.277192 -0.198754 -0.177873
v 0.384763 -0.0897755 -0.20922
v 0.0968185 -0.0897755 -0.426385
v 0.027904 -0.202238 -0.327769
v 0.000237945 -0.208973 -0.314298
v 0.000237945 -0.209218 -0.313795
v 0.188301 -0.209218 -0.251059
v 0.211871 -0.20398 -0.251059
v 0.310082 -0.0897755 -0.313124
v 0.3609 -0.0941483 -0.240568
v 0.266744 -0.198754 -0.198771
v 0.371808 -0.0897755 -0.231839
v 0.098532 -0.0897755 -0.425839
v 0.0976544 -0.0906641 -0.425377
v 0.111613 -0.202238 -0.306829
v 0.104634 -0.209218 -0.292897
v 0.0209248 -0.209218 -0.313795
v 0.19528 -0.202238 -0.264991
v 0.153446 -0.202238 -0.285931
v 0.235358 -0.0941483 -0.366124
v 0.228797 -0.0897755 -0.374853
v 0.110484 -0.0897755 -0.421852
v 0.130795 -0.198754 -0.303346
v 0.12181 -0.0897755 -0.41774
v 0.172629 -0.198754 -0.282406
v 0.226373 -0.0897755 -0.375902
f 935 936 939
f 935 939 945
f 935 945 947
f 935 947 941
f 935 941 937
f 935 937 942
f 935 942 938
f 935 938 943
f 935 943 952
f 935 952 962
f 935 962 972
f 935 972 969
f 935 969 981
f 935 981 986
f 935 986 984
f 935 984 982
f 935 982 973
f 935 973 963
f 935 963 954
f 935 954 946
f 935 946 940
f 935 940 936
f 936 940 939
f 937 941 948
f 937 948 942
f 938 942 944
f 938 944 943
f 939 940 946
f 939 946 955
f 939 955 965
f 939 965 966
f 939 966 957
f 939 957 956
f 939 956 953
f 939 953 945
f 941 947 957
f 941 957 966
f 941 966 977
f 941 977 976
f 941 976 967
f 941 967 959
f 941 959 949
f 941 949 948
f 942 948 949
f 942 949 950
f 942 950 951
f 942 951 944
f 943 944 951
f 943 951 952
f 945 953 947
f 946 954 964
f 946 964 955
f 947 953 956
f 947 956 957
f 949 958 950
f 949 959 960
f 949 960 958
f 950 958 951
f 951 958 961
f 951 961 962
f 951 962 952
f 954 963 964
f 955 964 965
f 958 960 961
f 959 967 968
f 959 968 960
f 960 968 969
f 960 969 970
f 960 970 971
f 960 971 961
f 961 971 962
f 962 971 972
f 963 973 974
f 963 974 964
f 964 975 976
f 964 976 977
f 964 977 965
f 964 974 975
f 965 977 966
f 967 978 968
f 967 976 979
f 967 979 978
f 968 978 980
f 968 980 969
f 969 980 981
f 969 972 970
f 970 972 971
f 973 982 974
f 974 982 975
f 975 983 979
f 975 979 976
f 975 982 984
f 975 984 983
f 978 979 983
f 978 983 985
f 978 985 980
f 980 985 981
f 981 985 983
f 981 983 986
f 983 984 986
o convex_12
v 0.000237945 -0.125532 0.00152321
v -0.20919 -0.10461 0.00152321
v 0.000237945 -0.16661 0.00152321
v 0.000237945 -0.10461 -0.209205
v -0.255605 -0.102083 0.00152321
v 0.000237945 -0.102083 -0.254962
v -0.271958 -0.209218 0.00152321
v 0.000237945 -0.167291 0.000156144
v -0.409239 -0.102083 0.00152321
v 0.000237945 -0.102083 -0.409239
v 0.000237945 -0.167365 -4.68949e-06
v -0.313804 -0.209218 0.00152321
v 0.000237945 -0.209218 -0.27197
v -0.404469 -0.111584 0.00152321
v -0.409239 -0.102083 -0.0326533
v 0.000237945 -0.111584 -0.404454
v -0.0326693 -0.102083 -0.409239
v -0.327752 -0.202234 0.00152321
v -0.313804 -0.209218 -0.0209529
v 0.000237945 -0.209218 -0.313826
v -0.404469 -0.111584 -0.0279088
v -0.402545 -0.102083 -0.102092
v -0.0278995 -0.111584 -0.404454
v 0.000237945 -0.202234 -0.327738
v -0.102091 -0.102083 -0.402564
v -0.327752 -0.202234 -0.0139568
v -0.324265 -0.198752 -0.0523149
v -0.303342 -0.198752 -0.136027
v -0.292881 -0.209218 -0.104625
v -0.0209253 -0.209218 -0.313826
v -0.380059 -0.108102 -0.149979
v -0.383546 -0.111584 -0.132529
v -0.383065 -0.102083 -0.152955
v -0.0139511 -0.202234 -0.327738
v -0.152955 -0.102083 -0.383064
v -0.0523094 -0.198752 -0.32428
v -0.136 -0.198752 -0.303332
v -0.132513 -0.111584 -0.383546
v -0.149949 -0.108102 -0.380048
v -0.271958 -0.209218 -0.146481
v -0.365149 -0.102083 -0.197827
v -0.28242 -0.198752 -0.177843
v -0.104616 -0.209218 -0.292878
v -0.197807 -0.102083 -0.365171
v -0.177846 -0.198752 -0.282424
v -0.251035 -0.209218 -0.188297
v -0.3512 -0.102083 -0.225691
v -0.350238 -0.102083 -0.22758
v -0.25801 -0.19526 -0.216161
v -0.247548 -0.205726 -0.205707
v -0.188307 -0.209218 -0.251062
v -0.225664 -0.102083 -0.351219
v -0.216164 -0.19526 -0.258018
v -0.227588 -0.102083 -0.350254
v -0.205703 -0.205726 -0.247564
v -0.295406 -0.102083 -0.295411
v -0.237087 -0.19526 -0.23711
f 987 988 991
f 987 991 995
f 987 995 1000
f 987 1000 1004
f 987 1004 998
f 987 998 993
f 987 993 989
f 987 989 994
f 987 994 997
f 987 997 999
f 987 999 1006
f 987 1006 1010
f 987 1010 1002
f 987 1002 996
f 987 996 992
f 987 992 990
f 987 990 988
f 988 990 992
f 988 992 991
f 989 993 994
f 991 992 996
f 991 996 1003
f 991 1003 1011
f 991 1011 1021
f 991 1021 1030
f 991 1030 1038
f 991 1038 1040
f 991 1040 1042
f 991 1042 1034
f 991 1034 1033
f 991 1033 1027
f 991 1027 1019
f 991 1019 1008
f 991 1008 1001
f 991 1001 995
f 993 997 994
f 993 998 1005
f 993 1005 1015
f 993 1015 1026
f 993 1026 1032
f 993 1032 1037
f 993 1037 1029
f 993 1029 1016
f 993 1016 1006
f 993 1006 999
f 993 999 997
f 995 1001 1007
f 995 1007 1000
f 996 1002 1009
f 996 1009 1003
f 998 1004 1012
f 998 1012 1005
f 1000 1007 1012
f 1000 1012 1004
f 1001 1008 1007
f 1002 1010 1020
f 1002 1020 1009
f 1003 1009 1011
f 1005 1012 1013
f 1005 1013 1014
f 1005 1014 1015
f 1006 1016 1020
f 1006 1020 1010
f 1007 1008 1012
f 1008 1017 1018
f 1008 1018 1014
f 1008 1014 1013
f 1008 1013 1012
f 1008 1019 1017
f 1009 1020 1011
f 1011 1020 1022
f 1011 1022 1023
f 1011 1023 1024
f 1011 1024 1025
f 1011 1025 1021
f 1014 1026 1015
f 1014 1018 1017
f 1014 1017 1027
f 1014 1027 1028
f 1014 1028 1032
f 1014 1032 1026
f 1016 1029 1023
f 1016 1023 1022
f 1016 1022 1020
f 1017 1019 1027
f 1021 1025 1030
f 1023 1029 1037
f 1023 1037 1031
f 1023 1031 1030
f 1023 1030 1025
f 1023 1025 1024
f 1027 1033 1028
f 1028 1033 1034
f 1028 1034 1035
f 1028 1035 1036
f 1028 1036 1032
f 1030 1031 1038
f 1031 1039 1040
f 1031 1040 1038
f 1031 1037 1041
f 1031 1041 1039
f 1032 1036 1037
f 1034 1042 1035
f 1035 1043 1036
f 1035 1042 1043
f 1036 1043 1041
f 1036 1041 1037
f 1039 1042 1040
f 1039 1041 1043
f 1039 1043 1042
o convex_13
v 0.142907 -0.0897756 -0.229177
v 0.27943 -0.0897756 0.00152321
v 0.27949 -0.0896419 0.00152321
v 0.285957 -0.0767126 0.00152321
v 0.390565 -0.0139376 0.00152321
v 0.495112 0.0487991 0.00152321
v 0.596606 0.105329 0.00152321
v 0.591217 0.105329 -0.0107389
v 0.143626 -0.0893936 -0.229177
v 0.3732 -0.0897756 -0.229177
v 0.42721 -0.0897756 0.00152321
v 0.754625 0.105329 0.00152321
v 0.54535 0.105329 -0.22798
v 0.185481 -0.0684623 -0.229177
v 0.378709 -0.0897756 -0.219828
v 0.488765 -0.0275736 -0.229177
v 0.42721 -0.0897756 -0.101971
v 0.509064 -0.0488105 0.00152321
v 0.718279 0.0767012 0.00152321
v 0.754625 0.105329 -0.083702
v 0.54535 0.105329 -0.229177
v 0.384816 -0.0897756 -0.209214
v 0.677083 0.0770258 -0.229177
v 0.405714 -0.0897756 -0.167369
v 0.426671 -0.0897756 -0.104613
v 0.467209 -0.0697227 -0.083702
v 0.509064 -0.0488105 -0.0209235
v 0.718279 0.0767012 -0.0209235
v 0.739237 0.0976325 -0.125524
v 0.733668 0.105329 -0.209214
v 0.724028 0.105329 -0.229177
v 0.73259 0.105329 -0.212082
v 0.655527 0.0557889 -0.18828
v 0.488166 -0.0488105 -0.146435
v 0.529962 -0.0278791 -0.125524
v 0.697382 0.0767012 -0.167369
v 0.676424 0.0557889 -0.083702
f 1044 1045 1046
f 1044 1046 1047
f 1044 1047 1048
f 1044 1048 1049
f 1044 1049 1050
f 1044 1050 1051
f 1044 1051 1052
f 1044 1052 1057
f 1044 1057 1064
f 1044 1064 1074
f 1044 1074 1066
f 1044 1066 1059
f 1044 1059 1053
f 1044 1053 1058
f 1044 1058 1065
f 1044 1065 1067
f 1044 1067 1068
f 1044 1068 1060
f 1044 1060 1054
f 1044 1054 1045
f 1045 1054 1061
f 1045 1061 1062
f 1045 1062 1055
f 1045 1055 1050
f 1045 1050 1049
f 1045 1049 1048
f 1045 1048 1047
f 1045 1047 1046
f 1050 1055 1063
f 1050 1063 1073
f 1050 1073 1075
f 1050 1075 1074
f 1050 1074 1064
f 1050 1064 1056
f 1050 1056 1051
f 1051 1056 1057
f 1051 1057 1052
f 1053 1059 1058
f 1054 1060 1070
f 1054 1070 1061
f 1055 1062 1071
f 1055 1071 1063
f 1056 1064 1057
f 1058 1059 1065
f 1059 1066 1067
f 1059 1067 1065
f 1060 1068 1069
f 1060 1069 1070
f 1061 1070 1071
f 1061 1071 1062
f 1063 1071 1072
f 1063 1072 1073
f 1066 1074 1075
f 1066 1075 1073
f 1066 1073 1076
f 1066 1076 1077
f 1066 1077 1067
f 1067 1077 1068
f 1068 1077 1069
f 1069 1077 1078
f 1069 1078 1079
f 1069 1079 1072
f 1069 1072 1080
f 1069 1080 1071
f 1069 1071 1070
f 1071 1080 1072
f 1072 1079 1073
f 1073 1079 1076
f 1076 1079 1077
f 1077 1079 1078
o convex_14
v 0.000237916 0.105329 -0.754625
v 0.000237916 0.0767012 -0.718313
v 0.000237916 0.105329 -0.593483
v 0.0844127 0.105329 -0.754625
v 0.0139836 0.0767012 -0.718313
v 0.000237916 -0.0488105 -0.50908
v 0.000237916 0.0878162 -0.56072
v 0.54539 0.105329 -0.229177
v 0.118564 0.0976325 -0.739195
v 0.209966 0.105329 -0.733692
v 0.0139836 -0.0488105 -0.50908
v 0.0767605 0.0557889 -0.676446
v 0.000237916 -0.05242 -0.501879
v 0.000237916 0.0278868 -0.453326
v 0.54454 0.104928 -0.229177
v 0.724084 0.105329 -0.229177
v 0.000237916 -0.034869 -0.348709
v 0.000237916 -0.0767126 -0.28596
v 0.0358067 -0.0897756 -0.259831
v 0.132523 0.0906427 -0.725257
v 0.1953 0.0487991 -0.641574
v 0.174398 0.0697304 -0.683441
v 0.314618 0.105329 -0.691825
v 0.278978 0.0906427 -0.683441
v 0.000237916 -0.0625228 -0.481717
v 0.118564 -0.0278791 -0.530014
v 0.0697459 -0.0767126 -0.453326
v 0.0907187 0.0487991 -0.662507
v 0.185451 -0.0684623 -0.229177
v 0.677108 0.0770258 -0.229177
v 0.67647 0.0767012 -0.230154
v 0.697372 0.0976325 -0.272021
v 0.707788 0.105329 -0.272021
v 0.000237916 -0.0897756 -0.277319
v 0.142938 -0.0897756 -0.229177
v 0.143647 -0.0893936 -0.229177
v 0.153496 -0.0767126 -0.432392
v 0.132523 -0.034869 -0.516024
v 0.398226 0.105329 -0.650009
v 0.360957 0.0732254 -0.617143
v 0.341755 0.0697304 -0.62064
v 0.29988 0.0487991 -0.599758
v 0.237174 -0.034869 -0.474259
v 0.000237916 -0.0836833 -0.439387
v 0.0628022 -0.0836833 -0.439387
v 0.096883 -0.0897756 -0.426426
v 0.0749891 -0.0897756 -0.427197
v 0.488778 -0.0275736 -0.229177
v 0.613694 0.0557889 -0.292955
v 0.634596 0.0767012 -0.33477
v 0.48814 -0.0278791 -0.230154
v 0.690712 0.105329 -0.316717
v 0.691846 0.105329 -0.313837
v 0.000237916 -0.0897756 -0.427197
v 0.373144 -0.0897756 -0.229177
v 0.226475 -0.0897756 -0.375918
v 0.121824 -0.0897756 -0.417785
v 0.110487 -0.0897756 -0.421899
v 0.418774 0.105329 -0.639516
v 0.423663 0.0941376 -0.617143
v 0.360957 0.052294 -0.575327
v 0.29818 -0.0104427 -0.491695
v 0.278978 -0.0139376 -0.495141
v 0.228814 -0.0897756 -0.374889
v 0.509042 -0.00696689 -0.272021
v 0.609301 0.0679925 -0.355704
v 0.63991 0.105329 -0.418453
v 0.660812 0.105329 -0.376638
v 0.672715 0.105329 -0.352824
v 0.462845 -0.0366069 -0.251087
v 0.371797 -0.0897756 -0.231903
v 0.483747 -0.0156756 -0.292955
v 0.523354 0.105329 -0.555833
v 0.381788 -0.0313741 -0.387079
v 0.29818 -0.0522863 -0.408012
v 0.528243 0.0941376 -0.53346
v 0.444565 0.052294 -0.512577
v 0.319082 -0.0732176 -0.345212
v 0.310154 -0.0897756 -0.313168
v 0.567497 0.0470612 -0.355704
v 0.609301 0.0889048 -0.418453
v 0.611922 0.0941376 -0.428946
v 0.55616 0.105329 -0.523019
v 0.337433 -0.0784505 -0.313837
v 0.400068 -0.0575191 -0.292955
v 0.441943 -0.0366069 -0.292955
v 0.544327 0.105329 -0.5349
v 0.379166 -0.0366069 -0.376638
v 0.465467 0.0313818 -0.449828
v 0.462845 0.0261489 -0.439387
f 1081 1082 1086
f 1081 1086 1093
f 1081 1093 1105
f 1081 1105 1124
f 1081 1124 1134
f 1081 1134 1114
f 1081 1114 1098
f 1081 1098 1097
f 1081 1097 1094
f 1081 1094 1087
f 1081 1087 1083
f 1081 1083 1088
f 1081 1088 1096
f 1081 1096 1113
f 1081 1113 1133
f 1081 1133 1132
f 1081 1132 1149
f 1081 1149 1148
f 1081 1148 1147
f 1081 1147 1163
f 1081 1163 1167
f 1081 1167 1153
f 1081 1153 1139
f 1081 1139 1119
f 1081 1119 1103
f 1081 1103 1090
f 1081 1090 1084
f 1081 1084 1085
f 1081 1085 1082
f 1082 1085 1091
f 1082 1091 1086
f 1083 1087 1088
f 1084 1089 1085
f 1084 1090 1089
f 1085 1089 1092
f 1085 1092 1091
f 1086 1091 1093
f 1087 1094 1088
f 1088 1095 1109
f 1088 1109 1116
f 1088 1116 1115
f 1088 1115 1135
f 1088 1135 1128
f 1088 1128 1110
f 1088 1110 1096
f 1088 1094 1097
f 1088 1097 1098
f 1088 1098 1099
f 1088 1099 1095
f 1089 1090 1100
f 1089 1100 1108
f 1089 1108 1092
f 1090 1101 1102
f 1090 1102 1100
f 1090 1103 1104
f 1090 1104 1101
f 1091 1105 1093
f 1091 1092 1106
f 1091 1106 1107
f 1091 1107 1105
f 1092 1108 1106
f 1095 1099 1109
f 1096 1110 1111
f 1096 1111 1112
f 1096 1112 1113
f 1098 1114 1099
f 1099 1114 1134
f 1099 1134 1127
f 1099 1127 1126
f 1099 1126 1138
f 1099 1138 1137
f 1099 1137 1136
f 1099 1136 1144
f 1099 1144 1159
f 1099 1159 1151
f 1099 1151 1135
f 1099 1135 1115
f 1099 1115 1116
f 1099 1116 1109
f 1100 1102 1108
f 1101 1117 1118
f 1101 1118 1102
f 1101 1104 1123
f 1101 1123 1117
f 1102 1118 1106
f 1102 1106 1108
f 1103 1119 1120
f 1103 1120 1121
f 1103 1121 1104
f 1104 1121 1122
f 1104 1122 1123
f 1105 1107 1125
f 1105 1125 1124
f 1106 1118 1107
f 1107 1118 1126
f 1107 1126 1127
f 1107 1127 1125
f 1110 1128 1111
f 1111 1129 1130
f 1111 1130 1112
f 1111 1128 1131
f 1111 1131 1129
f 1112 1132 1133
f 1112 1133 1113
f 1112 1130 1132
f 1117 1123 1136
f 1117 1136 1137
f 1117 1137 1138
f 1117 1138 1126
f 1117 1126 1118
f 1119 1139 1120
f 1120 1139 1140
f 1120 1140 1141
f 1120 1141 1142
f 1120 1142 1121
f 1121 1142 1143
f 1121 1143 1123
f 1121 1123 1122
f 1123 1144 1136
f 1123 1143 1144
f 1124 1125 1127
f 1124 1127 1134
f 1128 1135 1131
f 1129 1131 1145
f 1129 1145 1130
f 1130 1146 1147
f 1130 1147 1148
f 1130 1148 1149
f 1130 1149 1132
f 1130 1145 1152
f 1130 1152 1146
f 1131 1150 1145
f 1131 1135 1150
f 1135 1151 1152
f 1135 1152 1150
f 1139 1153 1156
f 1139 1156 1140
f 1140 1154 1155
f 1140 1155 1141
f 1140 1156 1157
f 1140 1157 1154
f 1141 1155 1142
f 1142 1155 1144
f 1142 1144 1143
f 1144 1155 1158
f 1144 1158 1159
f 1145 1150 1152
f 1146 1160 1161
f 1146 1161 1147
f 1146 1152 1166
f 1146 1166 1160
f 1147 1161 1162
f 1147 1162 1156
f 1147 1156 1163
f 1151 1159 1164
f 1151 1164 1165
f 1151 1165 1166
f 1151 1166 1152
f 1153 1167 1156
f 1154 1168 1159
f 1154 1159 1158
f 1154 1158 1155
f 1154 1157 1156
f 1154 1156 1169
f 1154 1169 1170
f 1154 1170 1168
f 1156 1167 1163
f 1156 1162 1169
f 1159 1168 1164
f 1160 1166 1165
f 1160 1165 1161
f 1161 1170 1162
f 1161 1165 1170
f 1162 1170 1169
f 1164 1168 1165
f 1165 1168 1170
o convex_15
v 0.000237945 -0.102063 -0.254975
v 0.000237945 -0.0767046 -0.285949
v -0.0126459 -0.102063 -0.242828
v 0.000237945 -0.102063 -0.409298
v 0.000237945 -0.0348609 -0.348747
v -0.200913 -0.102063 -0.138185
v -0.0259796 -0.102063 -0.235237
v -0.0326465 -0.102063 -0.409298
v 0.000237945 -0.0488088 -0.509082
v -0.208684 -0.102063 -0.134238
v 0.000237945 0.0278947 -0.453268
v -0.102096 -0.102063 -0.402617
v -0.111565 -0.0906526 -0.425453
v -0.027902 -0.0488088 -0.509082
v 0.000237945 0.0767022 -0.718307
v -0.208684 -0.102063 -0.359739
v -0.0139547 0.0906502 -0.557911
v -0.20848 0.105309 -0.551656
v -0.208684 0.105309 -0.551656
v 0.000237945 0.0878078 -0.560705
v -0.152936 -0.102063 -0.383122
v -0.135983 -0.0941446 -0.408022
v -0.208684 -0.0906526 -0.383608
v -0.195269 -0.0488088 -0.467237
v -0.195269 0.0557905 -0.655509
v -0.132486 -0.0278767 -0.529974
v -0.132486 0.0348585 -0.634617
v -0.027902 0.0767022 -0.718307
v 0.000237945 0.105309 -0.754565
v -0.208684 -0.0944085 -0.376077
v -0.20668 -0.102063 -0.360772
v 0.000237945 0.105309 -0.593501
v -0.0202126 0.105309 -0.587245
v -0.208684 0.105309 -0.733551
v -0.197784 -0.102063 -0.365205
v -0.208684 -0.0461288 -0.464565
v -0.208684 0.0584705 -0.652837
v -0.208684 0.105126 -0.733308
v -0.174348 0.0767022 -0.697354
v -0.132486 0.0976343 -0.739199
v -0.0829752 0.105309 -0.754565
v -0.20848 0.105309 -0.733673
f 1171 1172 1173
f 1171 1173 1177
f 1171 1177 1176
f 1171 1176 1180
f 1171 1180 1186
f 1171 1186 1201
f 1171 1201 1205
f 1171 1205 1191
f 1171 1191 1182
f 1171 1182 1178
f 1171 1178 1174
f 1171 1174 1179
f 1171 1179 1185
f 1171 1185 1199
f 1171 1199 1202
f 1171 1202 1190
f 1171 1190 1181
f 1171 1181 1175
f 1171 1175 1172
f 1172 1175 1176
f 1172 1176 1177
f 1172 1177 1173
f 1174 1178 1184
f 1174 1184 1179
f 1175 1180 1176
f 1175 1181 1180
f 1178 1182 1183
f 1178 1183 1184
f 1179 1184 1198
f 1179 1198 1185
f 1180 1181 1187
f 1180 1187 1188
f 1180 1188 1189
f 1180 1189 1204
f 1180 1204 1208
f 1180 1208 1207
f 1180 1207 1206
f 1180 1206 1193
f 1180 1193 1200
f 1180 1200 1186
f 1181 1190 1187
f 1182 1191 1192
f 1182 1192 1183
f 1183 1192 1193
f 1183 1193 1194
f 1183 1194 1195
f 1183 1195 1196
f 1183 1196 1184
f 1184 1196 1197
f 1184 1197 1198
f 1185 1198 1211
f 1185 1211 1199
f 1186 1200 1201
f 1187 1190 1202
f 1187 1202 1203
f 1187 1203 1188
f 1188 1203 1202
f 1188 1202 1199
f 1188 1199 1211
f 1188 1211 1212
f 1188 1212 1204
f 1188 1204 1189
f 1191 1205 1192
f 1192 1205 1200
f 1192 1200 1193
f 1193 1206 1194
f 1194 1206 1207
f 1194 1207 1195
f 1195 1207 1208
f 1195 1208 1209
f 1195 1209 1196
f 1196 1209 1197
f 1197 1209 1210
f 1197 1210 1198
f 1198 1210 1211
f 1200 1205 1201
f 1204 1212 1208
f 1208 1212 1209
f 1209 1212 1210
f 1210 1212 1211
o convex_16
v -0.208684 -0.102063 -0.134192
v -0.214296 -0.102063 -0.109725
v -0.208684 -0.102063 -0.359783
v -0.208684 0.105309 -0.551626
v -0.235244 -0.102063 -0.0260371
v -0.225732 -0.102063 -0.351292
v -0.240641 -0.0941446 -0.366116
v -0.216219 -0.0906526 -0.38353
v -0.208684 -0.0944085 -0.376046
v -0.208684 0.105309 -0.733539
v -0.593398 0.105309 0.0014513
v -0.56096 0.0875642 0.0014513
v -0.453332 0.0278947 0.0014513
v -0.34875 -0.0348609 0.0014513
v -0.285958 -0.0767046 0.0014513
v -0.242779 -0.102063 -0.0126527
v -0.227656 -0.102063 -0.350285
v -0.295471 -0.102063 -0.295452
v -0.317328 -0.0871605 -0.317327
v -0.324328 -0.0732126 -0.345248
v -0.366172 0.0313664 -0.533492
v -0.366172 0.0522984 -0.575301
v -0.30338 -0.0104571 -0.491612
v -0.208684 -0.0906526 -0.38353
v -0.278958 -0.006965 -0.509026
v -0.299906 0.0557905 -0.613655
v -0.216219 0.0139467 -0.571847
v -0.208684 -0.0461288 -0.464556
v -0.208684 0.105126 -0.733323
v -0.278958 0.0976343 -0.697343
v -0.296433 0.101106 -0.693889
v -0.298517 0.105309 -0.695976
v -0.754625 0.105309 0.0014513
v -0.255658 -0.102063 0.0014513
v -0.3503 -0.102063 -0.227666
v -0.366172 -0.0941446 -0.240619
v -0.345223 -0.0732126 -0.324307
v -0.533492 0.0941422 -0.533492
v -0.449858 0.0522984 -0.512552
v -0.449858 0.0941422 -0.596241
v -0.324328 0.0522984 -0.596241
v -0.387067 0.0941422 -0.638049
v -0.237114 0.0767022 -0.676403
v -0.208684 0.0584705 -0.652801
v -0.30338 0.0941422 -0.679929
v -0.362698 0.0976343 -0.655535
v -0.355003 0.105309 -0.670934
v -0.342444 0.105309 -0.677123
v -0.718286 0.0767022 0.0014513
v -0.754625 0.105309 -0.0830287
v -0.409244 -0.102063 0.0014513
v -0.353186 -0.102063 -0.22191
v -0.360774 -0.102063 -0.206726
v -0.36521 -0.102063 -0.197803
v -0.408015 -0.0941446 -0.136062
v -0.383593 -0.0906526 -0.216225
v -0.491648 -0.0104571 -0.303367
v -0.575335 0.0522984 -0.366116
v -0.533492 0.0313664 -0.366116
v -0.512543 0.0522984 -0.449804
v -0.547439 0.101106 -0.526512
v -0.528629 0.105309 -0.549539
v -0.526491 0.101106 -0.547453
v -0.401121 0.105309 -0.647835
v -0.59623 0.0941422 -0.449804
v -0.647853 0.105309 -0.401088
v -0.396846 0.105309 -0.649994
v -0.613705 0.0139467 0.0014513
v -0.718286 0.0767022 -0.027908
v -0.733677 0.105309 -0.208525
v -0.739235 0.0976343 -0.132536
v -0.50907 -0.0488088 0.0014513
v -0.409244 -0.102063 -0.0326573
v -0.383112 -0.102063 -0.152973
v -0.402618 -0.102063 -0.102098
v -0.425436 -0.0906526 -0.111596
v -0.50907 -0.006965 -0.278973
v -0.446385 -0.0697205 -0.153477
v -0.613705 0.0557905 -0.299913
v -0.59623 0.0522984 -0.324307
v -0.659022 0.0941422 -0.345248
v -0.638073 0.0941422 -0.386984
v -0.555829 0.105309 -0.522267
v -0.543218 0.105309 -0.534932
v -0.522323 0.105309 -0.5558
v -0.649296 0.105309 -0.398209
v -0.613705 0.0139467 -0.027908
v -0.697391 0.0976343 -0.278973
v -0.697391 0.0767022 -0.174417
v -0.696002 0.105309 -0.298546
v -0.693864 0.101106 -0.296459
v -0.6346 0.0348585 -0.132536
v -0.50907 -0.0488088 -0.027908
v -0.46728 -0.0697205 -0.0697882
v -0.530018 -0.0278767 -0.132536
v -0.655548 0.0557905 -0.195285
v -0.676443 0.0767022 -0.237165
v -0.592756 0.0348585 -0.258105
v -0.679917 0.0941422 -0.303367
v -0.677191 0.105309 -0.342513
f 1213 1214 1217
f 1213 1217 1228
f 1213 1228 1246
f 1213 1246 1263
f 1213 1263 1285
f 1213 1285 1287
f 1213 1287 1286
f 1213 1286 1266
f 1213 1266 1265
f 1213 1265 1264
f 1213 1264 1247
f 1213 1247 1230
f 1213 1230 1229
f 1213 1229 1218
f 1213 1218 1215
f 1213 1215 1221
f 1213 1221 1236
f 1213 1236 1240
f 1213 1240 1256
f 1213 1256 1241
f 1213 1241 1222
f 1213 1222 1216
f 1213 1216 1214
f 1214 1216 1217
f 1215 1218 1219
f 1215 1219 1220
f 1215 1220 1221
f 1216 1222 1244
f 1216 1244 1260
f 1216 1260 1259
f 1216 1259 1279
f 1216 1279 1276
f 1216 1276 1297
f 1216 1297 1274
f 1216 1274 1296
f 1216 1296 1295
f 1216 1295 1278
f 1216 1278 1298
f 1216 1298 1312
f 1216 1312 1302
f 1216 1302 1282
f 1216 1282 1262
f 1216 1262 1245
f 1216 1245 1223
f 1216 1223 1224
f 1216 1224 1225
f 1216 1225 1226
f 1216 1226 1227
f 1216 1227 1228
f 1216 1228 1217
f 1218 1229 1219
f 1219 1229 1230
f 1219 1230 1231
f 1219 1231 1232
f 1219 1232 1233
f 1219 1233 1234
f 1219 1234 1235
f 1219 1235 1237
f 1219 1237 1220
f 1220 1236 1221
f 1220 1237 1238
f 1220 1238 1239
f 1220 1239 1240
f 1220 1240 1236
f 1222 1241 1242
f 1222 1242 1243
f 1222 1243 1244
f 1223 1245 1261
f 1223 1261 1280
f 1223 1280 1284
f 1223 1284 1263
f 1223 1263 1246
f 1223 1246 1227
f 1223 1227 1226
f 1223 1226 1225
f 1223 1225 1224
f 1227 1246 1228
f 1230 1247 1248
f 1230 1248 1231
f 1231 1249 1232
f 1231 1248 1249
f 1232 1249 1250
f 1232 1250 1251
f 1232 1251 1233
f 1233 1251 1250
f 1233 1250 1252
f 1233 1252 1234
f 1234 1253 1235
f 1234 1252 1254
f 1234 1254 1257
f 1234 1257 1253
f 1235 1253 1238
f 1235 1238 1237
f 1238 1253 1257
f 1238 1257 1242
f 1238 1242 1239
f 1239 1242 1255
f 1239 1255 1256
f 1239 1256 1240
f 1241 1255 1242
f 1241 1256 1255
f 1242 1257 1243
f 1243 1257 1258
f 1243 1258 1259
f 1243 1259 1260
f 1243 1260 1244
f 1245 1262 1281
f 1245 1281 1261
f 1247 1264 1248
f 1248 1264 1265
f 1248 1265 1266
f 1248 1266 1267
f 1248 1267 1268
f 1248 1268 1289
f 1248 1289 1269
f 1248 1269 1270
f 1248 1270 1271
f 1248 1271 1272
f 1248 1272 1249
f 1249 1272 1250
f 1250 1273 1274
f 1250 1274 1275
f 1250 1275 1276
f 1250 1276 1252
f 1250 1272 1271
f 1250 1271 1270
f 1250 1270 1277
f 1250 1277 1278
f 1250 1278 1273
f 1252 1276 1254
f 1254 1276 1279
f 1254 1279 1258
f 1254 1258 1257
f 1258 1279 1259
f 1261 1281 1299
f 1261 1299 1280
f 1262 1282 1283
f 1262 1283 1281
f 1263 1284 1305
f 1263 1305 1285
f 1266 1286 1267
f 1267 1286 1287
f 1267 1287 1288
f 1267 1288 1268
f 1268 1288 1290
f 1268 1290 1291
f 1268 1291 1289
f 1269 1291 1292
f 1269 1292 1270
f 1269 1289 1291
f 1270 1292 1293
f 1270 1293 1294
f 1270 1294 1277
f 1273 1295 1296
f 1273 1296 1274
f 1273 1278 1295
f 1274 1297 1275
f 1275 1297 1276
f 1277 1294 1278
f 1278 1294 1293
f 1278 1293 1298
f 1280 1299 1305
f 1280 1305 1284
f 1281 1283 1299
f 1282 1300 1301
f 1282 1301 1283
f 1282 1302 1303
f 1282 1303 1300
f 1283 1301 1304
f 1283 1304 1299
f 1285 1305 1306
f 1285 1306 1288
f 1285 1288 1287
f 1288 1306 1307
f 1288 1307 1308
f 1288 1308 1290
f 1290 1308 1309
f 1290 1309 1310
f 1290 1310 1291
f 1291 1310 1309
f 1291 1309 1300
f 1291 1300 1311
f 1291 1311 1292
f 1292 1311 1293
f 1293 1312 1298
f 1293 1311 1300
f 1293 1300 1312
f 1299 1304 1307
f 1299 1307 1305
f 1300 1309 1301
f 1300 1303 1312
f 1301 1308 1307
f 1301 1307 1304
f 1301 1309 1308
f 1302 1312 1303
f 1305 1307 1306
