o convex_0
v -0.655284 -0.334976 -0.62628
v -0.650431 -0.344693 -0.621376
v -0.662629 -0.342229 -0.618924
v -0.66499 -0.330117 -0.621376
v -0.655284 0.334976 -0.62628
v 0.655284 -0.334976 -0.62628
v -0.655284 -0.349552 -0.61169
v 0.660137 -0.344693 -0.621376
v -0.66499 -0.344693 -0.606785
v -0.669974 -0.334976 -0.61169
v -0.66499 0.339834 -0.621376
v -0.655284 0.344693 -0.621376
v 0.655284 0.334976 -0.62628
v 0.662629 0.342229 -0.622602
v 0.66499 -0.334976 -0.621376
v 0.666301 -0.342229 -0.618924
v -0.655284 -0.349552 0.61169
v 0.655284 -0.349552 -0.61169
v -0.66499 -0.344693 0.616471
v -0.669974 0.334976 -0.61169
v -0.669974 -0.334976 0.61169
v -0.662629 0.345856 -0.618924
v -0.655284 0.349552 -0.61169
v 0.655284 0.344693 -0.621376
v 0.66499 0.344693 -0.616471
v 0.669974 0.334976 -0.61169
v 0.66499 0.334976 -0.621376
v 0.655284 0.349552 -0.61169
v 0.669974 -0.334976 -0.61169
v 0.669974 -0.334976 0.61169
v 0.66499 -0.344693 0.61169
v 0.66499 -0.344693 -0.61169
v -0.655284 -0.344693 0.621376
v -0.662629 -0.342229 0.622602
v 0.655284 -0.349552 0.61169
v -0.669974 0.334976 0.61169
v -0.666301 0.342229 0.618924
v -0.66499 0.344693 -0.61169
v -0.66499 -0.334976 0.621376
v -0.655284 0.349552 0.61169
v 0.66499 0.344693 0.606785
v 0.669974 0.334976 0.61169
v 0.655284 0.349552 0.61169
v 0.66499 -0.339834 0.621376
v 0.662629 -0.345856 0.618924
v -0.655284 -0.334976 0.62628
v 0.655284 -0.344693 0.621376
v -0.66499 0.334976 0.621376
v -0.655284 0.334976 0.62628
v -0.660137 0.344693 0.621376
v -0.66499 0.344693 0.61169
v 0.662629 0.342229 0.618924
v 0.66499 0.330117 0.621376
v 0.650431 0.344693 0.621376
v 0.655284 -0.334976 0.62628
v 0.655284 0.334976 0.62628
f 1 2 3
f 1 3 4
f 1 4 11
f 1 11 5
f 1 5 13
f 1 13 6
f 1 6 8
f 1 8 2
f 2 7 3
f 2 8 18
f 2 18 7
f 3 7 9
f 3 9 10
f 3 10 4
f 4 10 20
f 4 20 11
f 5 11 12
f 5 12 24
f 5 24 13
f 6 13 14
f 6 14 15
f 6 15 16
f 6 16 8
f 7 17 19
f 7 19 9
f 7 18 35
f 7 35 17
f 8 16 18
f 9 19 21
f 9 21 10
f 10 21 36
f 10 36 20
f 11 20 22
f 11 22 12
f 12 22 23
f 12 23 28
f 12 28 24
f 13 24 14
f 14 25 26
f 14 26 27
f 14 27 15
f 14 24 28
f 14 28 25
f 15 27 16
f 16 26 29
f 16 29 30
f 16 30 31
f 16 31 32
f 16 32 18
f 16 27 26
f 17 33 34
f 17 34 19
f 17 35 47
f 17 47 33
f 18 32 31
f 18 31 35
f 19 34 21
f 20 36 37
f 20 37 38
f 20 38 22
f 21 37 36
f 21 34 39
f 21 39 37
f 22 38 23
f 23 38 51
f 23 51 40
f 23 40 43
f 23 43 28
f 25 28 43
f 25 43 41
f 25 41 42
f 25 42 26
f 26 42 30
f 26 30 29
f 30 44 45
f 30 45 31
f 30 42 53
f 30 53 44
f 31 45 35
f 33 46 34
f 33 47 55
f 33 55 46
f 34 48 39
f 34 46 49
f 34 49 48
f 35 45 47
f 37 39 48
f 37 48 49
f 37 49 50
f 37 50 40
f 37 40 51
f 37 51 38
f 40 50 54
f 40 54 43
f 41 43 52
f 41 52 42
f 42 52 53
f 43 54 52
f 44 55 47
f 44 47 45
f 44 53 56
f 44 56 55
f 46 55 56
f 46 56 49
f 49 56 54
f 49 54 50
f 52 54 56
f 52 56 53
