# https://github.com/mikedh/trimesh
v 0.26560800 0.55123600 -0.36715400
v 0.28561200 0.61207200 -0.36715400
v 0.28561200 0.55123600 -0.36715400
v 0.20442400 0.55123600 -0.36226100
v 0.20741700 0.55426800 -0.36379900
v 0.31621600 0.62226800 -0.36212200
v 0.28606100 0.55123600 -0.36708400
v 0.11241100 0.81603200 -0.34681500
v 0.24480600 0.81603200 -0.34681500
v 0.11241100 0.55123600 -0.34681500
v 0.32641800 0.63246400 -0.35443300
v 0.31621600 0.58144500 -0.36212200
v 0.32641800 0.73446300 -0.34681500
v 0.33661900 0.74465900 -0.34171200
v 0.34001200 0.73446300 -0.33996500
v 0.32636800 0.55123600 -0.35436300
v 0.11241100 0.90764500 -0.32123300
v 0.25500700 0.82622800 -0.34171200
v 0.11241100 0.55123600 0.04473670
v 0.32641800 0.59164100 -0.35443300
v 0.32666700 0.55123600 -0.35415400
v 0.28561200 0.81603200 -0.33402400
v 0.29581300 0.82622800 -0.32130300
v 0.31621600 0.80583600 -0.31109800
v 0.34001200 0.74803200 -0.33318500
v 0.34682100 0.73446300 -0.32640500
v 0.34001200 0.55123600 -0.33996500
v 0.34013600 0.55123600 -0.33975500
v 0.11241100 0.90794800 -0.32102300
v 0.18362200 0.90442300 -0.31277600
v 0.19382300 0.88744300 -0.32130300
v 0.23462900 0.86705000 -0.32130300
v 0.20933800 0.55123600 0.16621400
v 0.11241100 0.67935100 0.28559500
v 0.25500700 0.86705000 -0.31109800
v 0.29920600 0.82963900 -0.31277600
v 0.31960900 0.80924700 -0.29236600
v 0.34001200 0.76842500 -0.29236600
v 0.34682100 0.55123600 -0.32640500
v 0.34682100 0.75481700 -0.28558700
v 0.36722400 0.57124900 -0.00006590
v 0.11241100 0.92402000 -0.29781800
v 0.14281600 0.92485400 -0.29236600
v 0.22442800 0.88403100 -0.31277600
v 0.20402500 0.91295200 -0.28810300
v 0.21422600 0.90783500 -0.29068900
v 0.22402900 0.55123600 0.18340800
v 0.22430300 0.55123600 0.18368800
v 0.22482700 0.55123600 0.18417700
v 0.15301700 0.66305200 0.29069700
v 0.18362200 0.66646400 0.31278400
v 0.11241100 0.70004600 0.30831000
v 0.23462900 0.88744300 -0.30089400
v 0.23802200 0.89085400 -0.29236600
v 0.25161500 0.88403100 -0.27880700
v 0.29239600 0.84324700 -0.27880700
v 0.31279900 0.82281700 -0.27880700
v 0.32641800 0.79564000 -0.28558700
v 0.36722400 0.55123600 -0.00006590
v 0.33320200 0.78203200 -0.27880700
v 0.30601500 0.77524700 0.08157140
v 0.32300100 0.73105200 0.07814650
v 0.32641800 0.71407100 0.10198100
v 0.34682100 0.65285600 0.08157140
v 0.36709900 0.55123600 0.04068280
v 0.11241100 0.92818900 -0.29068900
v 0.11241100 0.93247200 -0.28335000
v 0.11241100 0.93595900 -0.27643000
v 0.14281600 0.93163800 -0.27880700
v 0.16321900 0.93334400 -0.26776300
v 0.21761900 0.91124600 -0.27195700
v 0.24440700 0.55123600 0.19640900
v 0.20402500 0.68685600 0.33319300
v 0.18362200 0.69367800 0.33403200
v 0.11241100 0.71752000 0.32291800
v 0.11241100 0.70891600 0.31613900
v 0.26520900 0.55123600 0.20395700
v 0.23123700 0.90442300 -0.25839700
v 0.29239600 0.84324700 -0.17676000
v 0.27199300 0.84324700 0.08835120
v 0.29239600 0.80242400 0.08835120
v 0.29581300 0.78544300 0.11218500
v 0.30601500 0.75481700 0.12239000
v 0.27541000 0.74465900 0.23457100
v 0.30601500 0.69367800 0.18354800
v 0.32641800 0.63246400 0.14279900
v 0.34682100 0.57124900 0.10198100
v 0.36699900 0.55123600 0.04117210
v 0.11241100 0.93842300 -0.26517700
v 0.14281600 0.93842300 -0.26517700
v 0.16321900 0.93842300 -0.24476800
v 0.17681300 0.93163800 -0.25154800
v 0.19043100 0.92485400 -0.23798800
v 0.21761900 0.91124600 -0.23120800
v 0.22442800 0.69621800 0.33151600
v 0.21422600 0.69875800 0.33661800
v 0.20402500 0.71407100 0.34675300
v 0.19382300 0.70387500 0.34172000
v 0.22442800 0.66646400 0.31278400
v 0.11241100 0.72445600 0.32641300
v 0.27880300 0.55123600 0.19717800
v 0.23123700 0.90442300 -0.21757900
v 0.25161500 0.88403100 -0.11560200
v 0.27199300 0.86363900 -0.13594200
v 0.25161500 0.86363900 0.06794190
v 0.23462900 0.86705000 0.09177600
v 0.25500700 0.84662000 0.11218500
v 0.21422600 0.80583600 0.29579900
v 0.23123700 0.80242400 0.27196500
v 0.27199300 0.82281700 0.12917000
v 0.27541000 0.82622800 0.11218500
v 0.29239600 0.78203200 0.12917000
v 0.23462900 0.78544300 0.29579900
v 0.23462900 0.76501300 0.31620900
v 0.25161500 0.74128600 0.29237400
v 0.26520900 0.73446300 0.26518500
v 0.33449900 0.55123600 0.13042800
v 0.34682100 0.55123600 0.10198100
v 0.11241100 0.93842300 -0.10197300
v 0.14281600 0.93842300 -0.12238200
v 0.15982700 0.93505000 -0.14614600
v 0.17342000 0.92822700 -0.13258700
v 0.20402500 0.91803100 -0.22435900
v 0.21761900 0.70724800 0.33997300
v 0.23462900 0.67836500 0.31620900
v 0.23802200 0.68685600 0.31956400
v 0.23123700 0.72085500 0.33319300
v 0.20402500 0.73446300 0.34675300
v 0.18362200 0.73446300 0.34675300
v 0.11241100 0.75705400 0.34081200
v 0.28601100 0.55123600 0.19354300
v 0.21422600 0.90783500 -0.13258700
v 0.22782000 0.90105000 -0.13936600
v 0.23123700 0.88403100 0.02719310
v 0.21422600 0.88744300 0.05095740
v 0.18362200 0.89763900 0.06116200
v 0.20741700 0.88062000 0.08499620
v 0.19382300 0.82622800 0.27539000
v 0.17342000 0.80583600 0.31620900
v 0.19043100 0.80242400 0.31278400
v 0.21422600 0.78544300 0.31620900
v 0.23123700 0.74128600 0.33319300
v 0.31279900 0.55123600 0.16998800
v 0.12241300 0.93842300 -0.10197300
v 0.11241100 0.91803100 0.04075270
v 0.14281600 0.91803100 0.04075270
v 0.20402500 0.89763900 0.02034340
v 0.29065000 0.55123600 0.18990800
v 0.11562900 0.76842500 0.33997300
v 0.21083400 0.76164000 0.33319300
v 0.14281600 0.79564000 0.32641300
v 0.11241100 0.76842500 0.33997300
v 0.11241100 0.76463400 0.34039200
v 0.17342000 0.84662000 0.23457100
v 0.14281600 0.85685400 0.22436700
v 0.16321900 0.83642400 0.26518500
v 0.17002800 0.82281700 0.29237400
v 0.13603200 0.80924700 0.31956400
v 0.11241100 0.85685400 0.22436700
v 0.11241100 0.79564000 0.32641300
v 0.15643500 0.82963900 0.27881500
v 0.11241100 0.81083900 0.31641800
v 0.11241100 0.80924700 0.31956400
v 0.11241100 0.82963900 0.27881500
f 1 2 3
f 89 119 144
f 87 118 88
f 87 117 118
f 86 117 87
f 85 117 86
f 85 116 117
f 84 112 113
f 89 144 120
f 84 116 85
f 84 114 115
f 84 113 114
f 83 112 84
f 82 112 83
f 82 110 112
f 82 111 110
f 80 103 105
f 84 115 116
f 80 104 103
f 89 120 91
f 91 120 121
f 97 130 98
f 97 129 130
f 97 128 129
f 97 142 128
f 97 127 142
f 97 124 127
f 96 124 97
f 89 91 90
f 95 126 124
f 95 99 125
f 95 124 96
f 93 102 94
f 91 93 92
f 91 123 93
f 91 122 123
f 91 121 122
f 95 125 126
f 80 82 81
f 80 111 82
f 80 110 111
f 70 92 71
f 70 91 92
f 70 90 91
f 69 90 70
f 68 90 69
f 68 89 90
f 64 88 65
f 71 92 93
f 64 87 88
f 64 85 86
f 63 85 64
f 63 84 85
f 63 83 84
f 63 82 83
f 61 63 62
f 61 82 63
f 64 86 87
f 71 93 94
f 71 94 102
f 71 102 78
f 80 109 110
f 80 108 109
f 80 107 108
f 80 106 107
f 80 105 106
f 79 104 80
f 79 103 104
f 79 102 103
f 77 101 99
f 74 100 75
f 74 98 100
f 73 99 95
f 73 77 99
f 73 98 74
f 73 97 98
f 73 96 97
f 73 95 96
f 98 130 100
f 99 101 131
f 99 131 125
f 102 123 122
f 138 157 139
f 138 156 157
f 138 155 156
f 138 154 155
f 136 138 137
f 136 154 138
f 136 146 154
f 139 158 151
f 135 146 136
f 134 147 135
f 132 134 133
f 129 153 130
f 129 152 153
f 128 151 149
f 128 150 151
f 128 142 150
f 135 147 146
f 139 151 150
f 139 150 141
f 139 141 140
f 161 164 162
f 158 161 162
f 158 162 163
f 157 161 158
f 156 161 157
f 155 161 156
f 155 164 161
f 155 159 164
f 151 163 160
f 151 158 163
f 149 160 152
f 149 151 160
f 146 155 154
f 145 155 146
f 145 159 155
f 141 150 142
f 139 157 158
f 128 152 129
f 61 81 82
f 128 149 152
f 126 131 148
f 108 141 113
f 108 140 141
f 108 139 140
f 108 138 139
f 106 108 107
f 106 138 108
f 106 137 138
f 108 113 109
f 106 136 137
f 106 134 135
f 105 134 106
f 103 134 105
f 103 133 134
f 102 133 103
f 102 132 133
f 102 122 132
f 106 135 136
f 109 113 110
f 110 113 112
f 113 141 114
f 125 131 126
f 124 126 127
f 122 134 132
f 122 147 134
f 121 147 122
f 121 146 147
f 120 146 121
f 120 144 146
f 119 146 144
f 119 145 146
f 117 126 143
f 117 127 126
f 117 142 127
f 115 117 116
f 115 142 117
f 114 142 115
f 114 141 142
f 126 148 143
f 60 81 61
f 93 123 102
f 57 80 60
f 8 145 119
f 8 159 145
f 8 164 159
f 8 162 164
f 8 163 162
f 8 160 163
f 8 152 160
f 8 119 89
f 8 153 152
f 8 100 130
f 8 75 100
f 8 76 75
f 8 52 76
f 8 34 52
f 8 19 34
f 8 10 19
f 8 130 153
f 8 89 68
f 8 68 67
f 8 67 66
f 14 26 15
f 14 25 26
f 14 24 25
f 14 23 24
f 14 22 23
f 14 18 22
f 12 21 16
f 12 20 21
f 11 27 20
f 11 15 27
f 9 14 13
f 9 18 14
f 9 17 18
f 8 17 9
f 8 29 17
f 8 42 29
f 8 66 42
f 7 12 16
f 15 26 28
f 6 15 11
f 6 13 14
f 1 101 77
f 1 131 101
f 60 80 81
f 1 143 148
f 1 117 143
f 1 118 117
f 1 88 118
f 1 77 72
f 1 65 88
f 1 39 59
f 1 28 39
f 1 27 28
f 1 21 27
f 1 16 21
f 1 7 16
f 1 3 7
f 1 59 65
f 1 72 49
f 1 49 48
f 1 48 47
f 6 9 13
f 6 12 7
f 6 20 12
f 6 11 20
f 5 10 8
f 4 10 5
f 2 9 6
f 2 8 9
f 2 5 8
f 2 7 3
f 2 6 7
f 1 5 2
f 1 4 5
f 1 10 4
f 1 19 10
f 1 33 19
f 1 47 33
f 6 14 15
f 15 28 27
f 1 148 131
f 17 30 31
f 43 70 45
f 43 69 70
f 43 68 69
f 43 67 68
f 43 66 67
f 42 66 43
f 41 65 59
f 44 46 53
f 41 64 65
f 40 63 64
f 40 62 63
f 40 61 62
f 40 60 61
f 40 58 60
f 37 40 38
f 37 58 40
f 40 64 41
f 45 70 71
f 45 71 46
f 46 71 54
f 17 29 30
f 57 79 80
f 57 60 58
f 56 79 57
f 56 102 79
f 56 78 102
f 55 78 56
f 54 71 78
f 51 77 73
f 51 72 77
f 51 76 52
f 51 75 76
f 51 74 75
f 51 73 74
f 50 72 51
f 49 72 50
f 46 54 53
f 37 57 58
f 36 57 37
f 54 78 55
f 36 55 56
f 26 40 41
f 26 38 40
f 26 39 28
f 25 38 26
f 25 37 38
f 24 37 25
f 24 36 37
f 26 41 59
f 23 36 24
f 23 32 35
f 20 27 21
f 18 23 22
f 18 32 23
f 18 31 32
f 36 56 57
f 17 31 18
f 23 35 36
f 26 59 39
f 19 33 34
f 29 43 30
f 29 42 43
f 35 53 54
f 35 44 53
f 36 54 55
f 34 50 51
f 34 49 50
f 34 48 49
f 34 47 48
f 34 51 52
f 32 44 35
f 30 44 32
f 33 47 34
f 30 32 31
f 30 43 45
f 35 54 36
f 30 45 46
f 30 46 44

