# https://github.com/mikedh/trimesh
v -0.30601600 -0.17961400 -0.36715900
v -0.31959500 -0.17961400 -0.36039200
v -0.30601600 -0.12240300 -0.36715900
v -0.22440300 -0.17961400 -0.36715900
v -0.33317500 -0.17961400 -0.35356100
v -0.31959500 -0.11559700 -0.36039200
v -0.28557900 -0.06121070 -0.36715900
v -0.16315900 -0.10200500 -0.36715900
v 0.26520900 -0.17961400 -0.34679400
v -0.33860700 -0.17961400 -0.34276000
v -0.33317500 -0.14960500 -0.35356100
v -0.33996500 -0.13599400 -0.33996300
v -0.31620100 -0.09689100 -0.35700900
v -0.29915800 -0.05440500 -0.36039200
v -0.28557900 -0.03826630 -0.36208400
v -0.24477200 -0.00001895 -0.36715900
v -0.16315900 -0.02041620 -0.36715900
v 0.26520900 -0.08158810 -0.34679400
v 0.27539400 -0.07141930 -0.34171900
v 0.29236800 -0.17961400 -0.33319600
v -0.34281700 -0.17961400 -0.33436700
v -0.34682300 -0.14280000 -0.32636400
v -0.31959500 -0.07482220 -0.33996300
v -0.29576300 -0.03571910 -0.35700900
v -0.25835200 0.00678677 -0.36039200
v -0.22338400 0.02368170 -0.36208400
v -0.20396500 -0.00001895 -0.36715900
v 0.22440300 0.02039820 -0.34679400
v 0.22766200 0.02368170 -0.34516800
v 0.27539400 -0.05102200 -0.33150400
v 0.28048600 -0.06121070 -0.32896700
v 0.29236800 -0.12240300 -0.33319600
v 0.23689600 0.02368170 -0.34054800
v 0.31009000 -0.17961400 -0.30391800
v -0.34682300 -0.17961400 -0.32636400
v -0.34682300 -0.12240300 -0.26520500
v -0.32638500 -0.08158810 -0.32636400
v -0.30085600 -0.03826630 -0.34679400
v -0.27539400 0.01528400 -0.33657900
v -0.26520900 0.02039820 -0.34679400
v -0.25495700 0.01528400 -0.35700900
v -0.24782700 0.02368170 -0.35460200
v 0.20396500 0.02368170 -0.34679400
v 0.22440300 0.02368170 -0.34555800
v 0.26093200 0.02368170 -0.28446400
v 0.34682300 0.02368170 -0.04073790
v 0.23825400 0.02368170 -0.33820600
v 0.24395700 0.02368170 -0.32682000
v 0.30601600 -0.12240300 -0.30600000
v 0.31416400 -0.17961400 -0.28160100
v -0.34682300 -0.17961400 -0.18355100
v -0.34682300 -0.14280000 -0.20398100
v -0.32638500 -0.08158810 -0.20398100
v -0.30601600 -0.04081350 -0.20398100
v -0.27376400 0.02368170 -0.22441100
v -0.27376400 0.02368170 -0.32636400
v -0.30601600 -0.04081350 -0.32636400
v -0.27301800 0.02368170 -0.32942200
v -0.26446200 0.02368170 -0.34386600
v -0.26229000 0.02368170 -0.34607800
v 0.34682300 0.02368170 0.02035620
v 0.34682300 -0.00001895 -0.04073790
v 0.32638500 -0.16319700 -0.14275700
v 0.32638500 -0.17961400 -0.12239200
v -0.34682300 -0.16319700 -0.18355100
v -0.28557900 -0.17961400 -0.04073790
v -0.26520900 0.02368170 -0.02043820
v -0.32129300 -0.07141930 -0.19376600
v -0.30085600 -0.03060490 -0.19376600
v -0.28048600 0.01018960 -0.21419600
v 0.34682300 0.02039820 0.02035620
v 0.34587200 0.02368170 0.02412990
v 0.34682300 -0.02041620 -0.02043820
v 0.32638500 -0.17961400 -0.01640430
v -0.28557900 -0.12240300 -0.04073790
v -0.24049400 0.02368170 0.06329780
v -0.27199900 -0.17961400 -0.01360660
v -0.23940800 0.02368170 0.06550990
v 0.34682300 -0.00001895 -0.00000847
v 0.32638500 0.02039820 0.08158050
v 0.32638500 -0.04081350 0.06115070
v 0.32638500 -0.08158810 0.04078600
v 0.32638500 -0.16319700 -0.00000847
v 0.32543500 0.02368170 0.08535410
v 0.32271900 -0.17961400 -0.00000847
v -0.24959300 -0.17961400 0.02302380
v -0.23805000 0.02368170 0.06785220
v 0.32027400 0.02368170 0.09797640
v 0.31959500 -0.04761920 0.07474890
v 0.31959500 -0.08839380 0.05438420
v 0.31959500 -0.17000300 0.01358970
v 0.32061400 -0.17961400 0.00545682
v -0.23119200 -0.17961400 0.04755260
v -0.16994800 0.02039820 0.14957100
v -0.16994800 0.02368170 0.14957100
v 0.25943800 0.02368170 0.20890900
v 0.30601600 -0.14280000 0.06115070
v 0.25495700 0.01528400 0.21417900
v 0.29915800 -0.14960500 0.07474890
v 0.30486200 -0.17961400 0.04534040
v -0.14957900 -0.17961400 0.12920700
v -0.16994800 -0.10200500 0.12920700
v -0.14957900 -0.00001895 0.17000100
v -0.14767800 0.02368170 0.17260400
v 0.24803100 0.02368170 0.22276700
v 0.19011400 0.02368170 0.29212400
v 0.27878900 -0.17000300 0.09517870
v 0.29576300 -0.16829100 0.07136560
v 0.29990500 -0.17961400 0.05737710
v -0.12371000 -0.17961400 0.15028700
v -0.04406570 0.02368170 0.26681500
v -0.12235200 -0.02041620 0.19121200
v -0.12914200 -0.00001895 0.19036600
v -0.12805500 0.02368170 0.19257800
v 0.17863900 0.02368170 0.29589800
v 0.18359600 -0.17961400 0.18112700
v 0.19378100 -0.14789400 0.19374900
v 0.21415000 -0.14789400 0.17338400
v 0.26914700 -0.17961400 0.09999330
v 0.27980700 -0.17961400 0.08711080
v -0.11834600 -0.17961400 0.15341000
v -0.10198300 -0.16319700 0.17084700
v -0.10985900 0.02368170 0.21021000
v -0.10877200 0.02039820 0.21079600
v -0.08154540 -0.14280000 0.19121200
v -0.03747960 0.02368170 0.27013300
v 0.15786300 0.02368170 0.29739400
v 0.16315900 -0.17000300 0.19036600
v 0.18909600 -0.17961400 0.17780900
v -0.07760730 -0.17961400 0.17384000
v 0.20199600 -0.17961400 0.16720300
v 0.22840900 -0.17961400 0.14078800
v 0.26317200 -0.17961400 0.10597900
v -0.07136070 -0.13259100 0.19888900
v -0.02036940 0.02368170 0.27703000
v 0.14278900 0.02368170 0.29739400
v 0.14278900 0.01359250 0.29238500
v -0.07136070 -0.17340600 0.17845900
f 63 73 64
f 65 75 76
f 65 76 67
f 66 78 76
f 66 76 75
f 67 70 69
f 64 73 74
f 67 69 68
f 71 72 84
f 71 84 80
f 71 80 81
f 71 81 82
f 71 82 83
f 66 77 78
f 81 84 88
f 73 79 74
f 86 93 87
f 83 92 85
f 62 73 63
f 83 91 92
f 82 91 83
f 82 90 91
f 71 83 79
f 81 90 82
f 81 88 89
f 80 84 81
f 77 87 78
f 77 86 87
f 74 83 85
f 74 79 83
f 81 89 90
f 61 72 71
f 40 60 41
f 55 69 70
f 34 46 50
f 87 93 94
f 36 52 53
f 36 53 54
f 36 54 55
f 36 55 56
f 36 56 57
f 36 57 37
f 37 57 38
f 38 57 56
f 38 56 58
f 38 58 39
f 39 58 59
f 39 59 40
f 55 70 67
f 40 59 60
f 46 71 79
f 46 79 73
f 46 73 62
f 46 62 50
f 50 62 63
f 50 63 64
f 51 66 75
f 51 75 65
f 52 65 67
f 52 67 53
f 53 67 68
f 53 68 54
f 54 68 69
f 54 69 55
f 41 60 42
f 87 94 95
f 111 124 113
f 89 97 90
f 110 122 111
f 111 123 124
f 111 113 112
f 111 122 125
f 111 125 126
f 113 124 123
f 113 123 114
f 115 127 128
f 115 128 116
f 116 129 117
f 116 128 130
f 117 129 131
f 117 131 118
f 118 131 132
f 110 121 122
f 118 132 133
f 121 130 122
f 122 130 125
f 125 130 134
f 125 134 135
f 125 135 126
f 127 136 137
f 127 137 128
f 128 137 138
f 128 138 130
f 130 138 134
f 134 138 137
f 134 137 136
f 134 136 135
f 34 49 46
f 118 133 119
f 108 120 109
f 107 120 108
f 107 119 120
f 89 96 98
f 89 98 99
f 89 99 97
f 90 97 91
f 91 97 99
f 91 99 100
f 91 100 92
f 93 101 102
f 93 102 103
f 93 103 94
f 94 103 104
f 94 104 95
f 96 105 98
f 98 105 106
f 98 106 107
f 98 107 108
f 98 108 99
f 106 119 107
f 106 118 119
f 106 117 118
f 106 116 117
f 106 115 116
f 103 114 104
f 88 96 89
f 103 113 114
f 101 113 102
f 101 112 113
f 101 111 112
f 101 110 111
f 99 109 100
f 99 108 109
f 102 113 103
f 32 49 34
f 46 61 71
f 31 46 49
f 1 35 21
f 1 21 10
f 1 10 5
f 1 5 2
f 2 5 11
f 2 11 6
f 3 6 14
f 3 14 7
f 4 8 9
f 5 10 11
f 6 11 12
f 6 12 13
f 6 13 14
f 7 14 15
f 1 51 35
f 7 15 16
f 8 18 9
f 9 18 19
f 9 19 20
f 10 21 22
f 10 22 11
f 11 22 12
f 12 22 23
f 12 23 13
f 13 23 24
f 13 24 14
f 14 24 15
f 15 24 25
f 15 25 16
f 16 25 26
f 8 17 18
f 1 66 51
f 1 77 66
f 1 86 77
f 31 49 32
f 1 2 6
f 1 6 3
f 1 3 7
f 1 7 16
f 1 16 27
f 1 27 17
f 1 17 8
f 1 8 4
f 1 4 9
f 1 9 20
f 1 20 34
f 1 34 50
f 1 50 64
f 1 64 74
f 1 74 85
f 1 85 92
f 1 93 86
f 1 101 93
f 1 110 101
f 1 121 110
f 1 130 121
f 1 116 130
f 16 26 27
f 1 131 129
f 1 133 132
f 1 119 133
f 1 120 119
f 1 109 120
f 1 100 109
f 1 92 100
f 1 132 131
f 17 27 28
f 1 129 116
f 18 28 29
f 26 123 111
f 26 111 126
f 26 126 135
f 26 135 136
f 26 136 127
f 26 127 115
f 26 115 106
f 26 106 105
f 26 105 96
f 26 96 88
f 26 88 84
f 26 84 72
f 26 72 61
f 26 61 46
f 26 114 123
f 26 46 45
f 26 47 33
f 26 33 29
f 26 29 44
f 26 44 43
f 26 43 27
f 27 43 28
f 28 43 44
f 28 44 29
f 30 45 46
f 30 46 31
f 30 33 47
f 30 47 48
f 17 28 18
f 30 48 45
f 26 45 48
f 26 104 114
f 26 48 47
f 26 87 95
f 23 37 38
f 22 37 23
f 22 36 37
f 22 52 36
f 22 65 52
f 22 35 51
f 23 38 24
f 21 35 22
f 19 33 30
f 19 29 33
f 19 32 20
f 19 31 32
f 26 95 104
f 19 30 31
f 20 32 34
f 24 38 39
f 22 51 65
f 24 39 40
f 26 78 87
f 26 76 78
f 26 67 76
f 26 55 67
f 26 56 55
f 26 58 56
f 26 59 58
f 18 29 19
f 26 42 60
f 26 41 42
f 25 41 26
f 25 40 41
f 24 40 25
f 26 60 59

