# https://github.com/mikedh/trimesh
v 0.24942000 0.31127000 -0.34811900
v 0.26456700 0.31127000 -0.34811900
v 0.22967000 0.31127000 -0.34781500
v 0.24822200 0.35023900 -0.36376700
v 0.27114000 0.31127000 -0.34545000
v 0.26776800 0.34683300 -0.36206800
v 0.27031800 0.33663900 -0.35697400
v 0.19239300 0.31127000 -0.34678400
v 0.22441500 0.36724500 -0.36722400
v 0.26521800 0.36724500 -0.36722400
v 0.28122000 0.31127000 -0.34041600
v 0.28815200 0.38763400 -0.36206800
v 0.31281500 0.40804600 -0.35357700
v 0.29241400 0.36724500 -0.35357700
v 0.29070200 0.31622700 -0.33659500
v 0.28493400 0.31127000 -0.33823200
v 0.19239300 0.38995900 -0.36485800
v 0.20401400 0.38763400 -0.36722400
v 0.19239300 0.31127000 0.01178700
v 0.28560200 0.40804600 -0.36722400
v 0.31620400 0.54061900 -0.36206800
v 0.34001100 0.51001300 -0.33999100
v 0.34170500 0.49981800 -0.33659500
v 0.32130400 0.39782800 -0.33659500
v 0.30090300 0.33663900 -0.33659500
v 0.29195200 0.31127000 -0.33162100
v 0.19239300 0.40804600 -0.36722400
v 0.19412100 0.31127000 0.16317300
v 0.19239300 0.31479400 0.01421310
v 0.28560200 0.55121300 -0.36722400
v 0.28606400 0.55121300 -0.36710300
v 0.32637000 0.55121300 -0.35436600
v 0.32640400 0.55081300 -0.35442600
v 0.34001100 0.55121300 -0.33999100
v 0.34014800 0.55121300 -0.33974900
v 0.34680600 0.51001300 -0.32640500
v 0.32667800 0.55121300 -0.35418400
v 0.34170500 0.45901700 -0.31621600
v 0.32130400 0.37743900 -0.31621600
v 0.30090300 0.31622700 -0.31621600
v 0.29720600 0.31127000 -0.32112900
v 0.29457000 0.31127000 -0.32640500
v 0.19239300 0.46921200 -0.36722400
v 0.21452300 0.31127000 0.22437000
v 0.20902900 0.55121300 0.16566000
v 0.20401400 0.55121300 0.14315800
v 0.19239300 0.55121300 0.06558490
v 0.19239300 0.48962400 0.06558490
v 0.19239300 0.46921200 0.06285550
v 0.26562800 0.55121300 -0.36722400
v 0.34680600 0.55121300 -0.32640500
v 0.36722400 0.48962400 -0.04085840
v 0.34680600 0.46921200 -0.30596600
v 0.32640400 0.38763400 -0.30596600
v 0.30600300 0.32644400 -0.30596600
v 0.34680600 0.31127000 -0.00004000
v 0.20442500 0.55121300 -0.36231100
v 0.26521800 0.55081300 -0.36722400
v 0.19239300 0.55121300 -0.35624600
v 0.19381300 0.55121300 -0.35697400
v 0.22711900 0.31127000 0.24474900
v 0.20914900 0.55121300 0.16596300
v 0.36722400 0.53042500 -0.02041890
v 0.36722400 0.55121300 -0.00004000
v 0.36722400 0.46921200 -0.00004000
v 0.34680600 0.31127000 0.14279400
v 0.25007100 0.31127000 0.25239100
v 0.26521800 0.55121300 0.20399100
v 0.24442300 0.55121300 0.19641000
v 0.22482600 0.55121300 0.18415800
v 0.22429500 0.55121300 0.18373400
v 0.20932000 0.55121300 0.16620600
v 0.36712100 0.55121300 0.04071780
v 0.36722400 0.55081300 0.04077840
v 0.36722400 0.48962400 0.02039950
v 0.34680600 0.40804600 0.14279400
v 0.33398600 0.31127000 0.16845000
v 0.36722400 0.53042500 0.04077840
v 0.27047200 0.31127000 0.25239100
v 0.27233800 0.31127000 0.25190600
v 0.26562800 0.55121300 0.20381000
v 0.36701800 0.55121300 0.04114230
v 0.34680600 0.55121300 0.10197600
v 0.34680600 0.51001300 0.12235500
v 0.33321600 0.51682400 0.14958700
v 0.33321600 0.39444600 0.16996600
v 0.31281500 0.31282100 0.21078400
v 0.31281500 0.31127000 0.21078400
v 0.31281500 0.55121300 0.16996600
v 0.29065100 0.55121300 0.18992000
v 0.28601300 0.55121300 0.19355900
v 0.27882400 0.55121300 0.19719900
v 0.33450000 0.55121300 0.13048200
v 0.33660500 0.54061900 0.13260500
f 36 51 52
f 35 51 36
f 36 52 53
f 32 37 33
f 36 53 38
f 38 53 54
f 38 54 39
f 39 54 40
f 40 54 55
f 43 60 57
f 40 56 41
f 43 57 58
f 43 59 60
f 44 61 62
f 44 62 45
f 50 58 57
f 30 32 31
f 51 63 52
f 51 64 63
f 40 55 56
f 30 37 32
f 30 68 81
f 30 35 34
f 30 47 46
f 52 63 64
f 30 46 45
f 30 45 62
f 30 62 72
f 30 72 71
f 30 71 70
f 30 70 69
f 30 69 68
f 30 34 37
f 30 81 92
f 30 91 90
f 30 90 89
f 30 89 93
f 30 93 83
f 30 83 82
f 30 82 73
f 30 73 64
f 30 64 51
f 30 51 35
f 30 92 91
f 52 64 74
f 76 87 77
f 52 78 75
f 74 84 76
f 76 84 85
f 76 85 86
f 76 86 87
f 77 87 88
f 80 88 87
f 80 87 89
f 80 89 90
f 80 90 91
f 80 91 92
f 80 92 81
f 83 93 94
f 83 94 84
f 84 94 85
f 85 94 89
f 85 89 87
f 85 87 86
f 89 94 93
f 30 59 47
f 74 83 84
f 74 82 83
f 73 82 74
f 68 80 81
f 52 75 65
f 52 65 56
f 52 56 53
f 53 56 54
f 54 56 55
f 56 65 66
f 61 67 68
f 61 68 69
f 61 69 70
f 52 74 78
f 61 70 71
f 61 72 62
f 64 73 74
f 65 75 66
f 66 76 77
f 66 75 78
f 66 78 74
f 66 74 76
f 67 79 68
f 68 79 80
f 61 71 72
f 30 60 59
f 9 27 43
f 30 50 57
f 3 8 4
f 4 9 10
f 30 57 60
f 4 8 9
f 5 7 11
f 6 10 20
f 6 20 12
f 6 12 13
f 6 13 14
f 6 14 7
f 7 14 15
f 7 15 16
f 7 16 11
f 8 17 18
f 8 18 9
f 8 19 29
f 8 29 49
f 8 49 48
f 8 48 47
f 2 7 5
f 2 6 7
f 2 4 6
f 1 4 2
f 1 2 5
f 1 5 11
f 1 11 16
f 1 16 26
f 1 26 42
f 1 42 41
f 1 41 56
f 1 56 66
f 1 66 77
f 8 47 59
f 1 77 88
f 1 80 79
f 1 79 67
f 1 67 61
f 1 61 44
f 1 44 28
f 1 28 19
f 1 19 8
f 1 8 3
f 1 3 4
f 1 88 80
f 8 59 43
f 4 10 6
f 8 27 17
f 22 34 35
f 22 35 36
f 22 36 23
f 22 33 37
f 22 37 34
f 23 36 38
f 23 38 24
f 24 38 39
f 24 39 40
f 24 40 25
f 25 40 41
f 25 41 42
f 25 42 26
f 28 44 45
f 28 45 46
f 28 46 47
f 8 43 27
f 28 48 49
f 28 49 29
f 21 33 22
f 21 32 33
f 28 47 48
f 21 30 31
f 9 18 27
f 9 43 58
f 9 58 50
f 9 50 30
f 9 30 20
f 9 20 10
f 13 20 21
f 13 21 22
f 13 22 23
f 12 20 13
f 13 24 25
f 20 30 21
f 13 23 24
f 19 28 29
f 17 27 18
f 21 31 32
f 15 25 26
f 13 15 14
f 13 25 15
f 15 26 16

