# https://github.com/mikedh/trimesh
v 0.24939000 0.31127000 -0.34813500
v 0.26451800 0.31127000 -0.34813500
v 0.20400400 0.26521600 -0.34681500
v -0.06117410 0.30601400 -0.34681500
v -0.06117410 0.31127000 -0.34681500
v 0.27109400 0.31127000 -0.34549600
v 0.26520600 0.28561500 -0.34681500
v 0.24479100 0.26521600 -0.34681500
v -0.09224770 0.20640000 -0.32639800
v -0.09224770 0.31127000 -0.33524800
v 0.28119400 0.31127000 -0.34045000
v 0.27878700 0.28561500 -0.33998400
v 0.26774200 0.26521600 -0.34169200
v 0.25158200 0.25162300 -0.33998400
v 0.20636800 0.20640000 -0.32639800
v -0.09224770 0.20640000 -0.06120690
v -0.09224770 0.31127000 -0.04482650
v 0.28493300 0.31127000 -0.33823700
v 0.29193900 0.31127000 -0.33163800
v 0.28050600 0.27541000 -0.33660700
v 0.24732700 0.22441800 -0.32131300
v 0.22931900 0.20640000 -0.32131300
v -0.09177490 0.27541000 -0.04591340
v -0.09224770 0.27496900 -0.04626270
v 0.27130900 0.20640000 0.04840960
v -0.09224770 0.30601400 -0.04482650
v -0.07634560 0.31127000 -0.03884890
v 0.29718200 0.31127000 -0.32115800
v 0.25424600 0.20640000 -0.28323500
v 0.26009200 0.23462200 -0.31619000
v 0.34231000 0.20640000 -0.04071200
v 0.25158200 0.21762100 -0.30602000
v 0.23967700 0.20640000 -0.30602000
v -0.09224770 0.27673500 -0.04614630
v -0.08158900 0.28561500 -0.04082850
v 0.34682300 0.20640000 0.04840960
v 0.25630900 0.25631500 0.04840960
v -0.02038740 0.30601400 -0.02041120
v -0.02038740 0.31127000 -0.02041120
v 0.34682300 0.31127000 -0.00003281
v 0.34682300 0.26521600 -0.02041120
v 0.34682300 0.20640000 -0.02041120
v 0.25184000 0.20640000 -0.28797000
v 0.34682300 0.31127000 0.04840960
v 0.24999200 0.29322200 0.04840960
v 0.24999200 0.31119900 0.04840960
v 0.25003500 0.31127000 0.04837080
v 0.25080800 0.31127000 0.04840960
f 21 32 22
f 23 35 26
f 21 30 32
f 23 25 35
f 23 26 34
f 23 34 24
f 20 31 29
f 22 32 33
f 20 28 31
f 13 21 22
f 20 29 30
f 19 28 20
f 17 26 27
f 16 23 24
f 14 22 15
f 13 22 14
f 13 20 21
f 25 36 44
f 12 20 13
f 20 30 21
f 25 44 48
f 38 45 46
f 25 46 45
f 12 19 20
f 46 48 47
f 39 46 47
f 38 46 39
f 37 45 38
f 36 40 44
f 36 41 40
f 36 42 41
f 32 43 33
f 25 48 46
f 30 43 32
f 28 42 31
f 28 41 42
f 28 40 41
f 27 38 39
f 27 35 38
f 26 35 27
f 25 38 35
f 25 37 38
f 25 45 37
f 29 43 30
f 12 18 19
f 16 25 23
f 9 25 16
f 2 7 8
f 2 6 7
f 1 6 2
f 1 11 6
f 1 18 11
f 1 19 18
f 1 28 19
f 1 40 28
f 1 48 44
f 3 9 4
f 1 47 48
f 1 27 39
f 1 17 27
f 1 10 17
f 1 5 10
f 1 4 5
f 1 3 4
f 1 8 3
f 1 2 8
f 11 18 12
f 1 39 47
f 3 8 15
f 1 44 40
f 4 9 10
f 3 15 9
f 9 42 36
f 9 31 42
f 9 29 31
f 9 43 29
f 9 33 43
f 9 15 22
f 9 17 10
f 9 26 17
f 9 34 26
f 9 22 33
f 9 36 25
f 9 24 34
f 6 11 7
f 7 11 12
f 7 12 13
f 4 10 5
f 8 13 14
f 8 14 15
f 9 16 24
f 7 13 8

