# https://github.com/mikedh/trimesh
v -0.36722400 -0.28568600 -0.30597900
v -0.36722400 -0.24483200 -0.28558300
v -0.36722400 -0.26525900 -0.30597900
v -0.35357600 -0.29244600 -0.33319300
v -0.34678700 -0.40810000 -0.32637600
v -0.34678700 -0.44888000 -0.30597900
v -0.34678700 -0.44888000 -0.26518600
v -0.32641700 -0.44888000 -0.14280400
v -0.34678700 -0.24483200 -0.18359800
v -0.36722400 -0.22448000 -0.28558300
v -0.32641700 -0.38767300 -0.12240700
v -0.35357600 -0.27201900 -0.33319300
v -0.34678700 -0.17968900 -0.32637600
v -0.36036600 -0.25842600 -0.31961300
v -0.33320700 -0.31287300 -0.35359000
v -0.33999700 -0.40126600 -0.34001000
v -0.33660200 -0.43862900 -0.33657500
v -0.33320700 -0.45564000 -0.33319300
v -0.31616500 -0.54069000 -0.31617800
v -0.32641700 -0.53044000 -0.28558300
v -0.32641700 -0.46923300 -0.16320100
v -0.32641700 -0.53044000 -0.26518600
v -0.32125700 -0.46923300 -0.14022800
v -0.28051800 -0.59157200 -0.09943400
v -0.28561100 -0.57122000 -0.10195700
v -0.34678700 -0.17968900 -0.18359800
v -0.29240000 -0.44888000 -0.07485040
v -0.31277000 -0.38767300 -0.09519360
v -0.29240000 -0.36724600 -0.05445350
v -0.28561100 -0.30603900 -0.04081980
v -0.32641700 -0.28568600 -0.12240700
v -0.33320700 -0.17968900 -0.35359000
v -0.33999700 -0.17968900 -0.34001000
v -0.32641700 -0.40810000 -0.34677300
v -0.32241100 -0.17968900 -0.35901100
v -0.30598000 -0.30603900 -0.36722400
v -0.31616500 -0.47948400 -0.33657500
v -0.28561100 -0.55086700 -0.32637600
v -0.27535800 -0.64260300 -0.29578100
v -0.29240000 -0.61883300 -0.29239900
v -0.30598000 -0.59157200 -0.28558300
v -0.28561100 -0.65277900 -0.26518600
v -0.30598000 -0.55086700 -0.16320100
v -0.30088800 -0.55086700 -0.14022800
v -0.30598000 -0.59157200 -0.24478900
v -0.23115600 -0.69363300 -0.07485040
v -0.27196300 -0.57122000 -0.07485040
v -0.28561100 -0.59157200 -0.12240700
v -0.24480400 -0.69363300 -0.10195700
v -0.23801400 -0.70722700 -0.09519360
v -0.23455100 -0.70381000 -0.08671280
v -0.28561100 -0.17968900 -0.04081980
v -0.27196300 -0.40810000 -0.03400290
v -0.25159400 -0.34689300 0.00679088
v -0.27196300 -0.30603900 -0.01360600
v -0.26008100 -0.19387600 0.01017250
v -0.30598000 -0.44888000 -0.34677300
v -0.30598000 -0.17968900 -0.36722400
v -0.22436700 -0.20405300 -0.36722400
v 0.26517700 -0.32646600 -0.34677300
v 0.22437100 -0.34689300 -0.34677300
v -0.28561100 -0.46923300 -0.34677300
v -0.30258500 -0.46589000 -0.34339200
v -0.24480400 -0.57122000 -0.32637600
v -0.20399700 -0.71398600 -0.28558300
v -0.23455100 -0.72423700 -0.27538400
v -0.25498900 -0.70381000 -0.27538400
v -0.27196300 -0.68004000 -0.27200300
v -0.28561100 -0.63242700 -0.20399500
v -0.25159400 -0.72082000 -0.25160600
v -0.23801400 -0.74800700 -0.21757500
v -0.23801400 -0.74800700 -0.17678100
v -0.24480400 -0.73441300 -0.18359800
v -0.19035000 -0.69363300 -0.01360600
v -0.21078700 -0.67320600 -0.03400290
v -0.15300600 -0.82622400 -0.03572060
v -0.19381300 -0.72423700 -0.03572060
v -0.21078700 -0.63242700 -0.01360600
v -0.22436700 -0.77519300 -0.14280400
v -0.21927400 -0.77519300 -0.11983100
v -0.21418200 -0.78544400 -0.11725400
v -0.17337500 -0.80579700 -0.05611750
v -0.27746300 -0.17968900 -0.02455590
v -0.23115600 -0.36724600 0.02718780
v -0.19035000 -0.26525900 0.08837850
v -0.21078700 -0.24483200 0.06798160
v -0.23115600 -0.22448000 0.04758470
v -0.25240800 -0.18362500 0.02037090
v -0.27196300 -0.17968900 -0.01360600
v -0.22436700 -0.17968900 -0.36722400
v 0.27875700 -0.32646600 -0.34001000
v 0.30598400 -0.36724600 -0.32637600
v 0.28561500 -0.46923300 -0.32637600
v 0.26517700 -0.48966000 -0.32637600
v 0.26517700 -0.17968900 -0.34677300
v 0.26782500 -0.17968900 -0.34548500
v 0.22437100 -0.61199900 -0.30597900
v 0.18356400 -0.69363300 -0.28558300
v -0.12238400 -0.71398600 -0.28558300
v -0.16319100 -0.77519300 -0.26518600
v -0.21078700 -0.74124700 -0.27200300
v -0.19381300 -0.78544400 -0.25498700
v -0.21418200 -0.78544400 -0.23459000
v -0.21078700 -0.80238000 -0.21081200
v -0.21078700 -0.80238000 -0.14956700
v -0.21757700 -0.78878600 -0.13598700
v -0.14954300 -0.75484000 0.00679088
v -0.15300600 -0.84665100 -0.05611750
v -0.13256900 -0.86700300 -0.03572060
v -0.12917400 -0.83640000 -0.01360600
v -0.19381300 -0.80579700 -0.09685760
v -0.16998000 -0.69363300 0.00679088
v -0.16998000 -0.36724600 0.08837850
v -0.21078700 -0.36724600 0.04758470
v -0.19720700 -0.80921300 -0.11559100
v -0.16998000 -0.26525900 0.10877500
v -0.21078700 -0.17968900 0.06798160
v -0.23115600 -0.17968900 0.04758470
v -0.24962500 -0.17968900 0.02305470
v 0.29240400 -0.32646600 -0.33319300
v 0.31956400 -0.36724600 -0.31961300
v 0.29919400 -0.46923300 -0.31961300
v 0.28812700 -0.48966000 -0.32127700
v 0.28561500 -0.57122000 -0.30597900
v 0.26517700 -0.59157200 -0.30597900
v 0.28147300 -0.17968900 -0.33866800
v 0.24732000 -0.69363300 -0.28048300
v 0.12238800 -0.81604700 -0.24478900
v -0.10194700 -0.77519300 -0.26518600
v -0.16998000 -0.80238000 -0.25160600
v -0.12238400 -0.81604700 -0.24478900
v -0.19381300 -0.80579700 -0.23459000
v -0.16998000 -0.84323400 -0.19036100
v -0.16998000 -0.84323400 -0.10877400
v -0.10194700 -0.83640000 0.00764970
v -0.13256900 -0.76501700 0.01527170
v -0.11219900 -0.25508300 0.15810400
v -0.14275300 -0.36724600 0.10963400
v -0.17677000 -0.82964100 -0.09519360
v -0.13596400 -0.87042000 -0.05445350
v -0.12917400 -0.88401400 -0.06803350
v -0.11219900 -0.88743100 -0.03572060
v -0.11219900 -0.86700300 -0.01532370
v -0.11219900 -0.84665100 -0.00512520
v -0.12917400 -0.24483200 0.14956900
v -0.16998000 -0.17968900 0.10877500
v 0.32642100 -0.36724600 -0.30597900
v 0.32126100 -0.37749700 -0.31617800
v 0.31277400 -0.46923300 -0.31279600
v 0.31956400 -0.26525900 -0.31961300
v 0.28812700 -0.59157200 -0.30088000
v 0.29240400 -0.17968900 -0.33319300
v 0.29070700 -0.60182300 -0.29578100
v 0.24990000 -0.70381000 -0.27538400
v 0.19035400 -0.80921300 -0.23797200
v 0.12917800 -0.82964100 -0.23797200
v 0.11559800 -0.84323400 -0.23120900
v -0.10880400 -0.84323400 -0.23120900
v -0.15300600 -0.82622400 -0.23459000
v -0.13256900 -0.86700300 -0.19379700
v -0.11219900 -0.88743100 -0.17340000
v -0.12917400 -0.88401400 -0.14956700
v -0.10880400 -0.90444100 -0.10877400
v -0.10880400 -0.90444100 -0.08843040
v -0.05095540 -0.88743100 0.01527170
v -0.06114010 -0.83640000 0.02804660
v -0.10194700 -0.77519300 0.02804660
v -0.10194700 -0.24483200 0.16320300
v -0.10194700 -0.22448000 0.16320300
v -0.11559400 -0.22448000 0.15638600
v -0.12917400 -0.22448000 0.14956900
v -0.09176200 -0.76501700 0.03566860
v -0.05095540 -0.82622400 0.03566860
v -0.04077070 -0.81604700 0.04076780
v -0.11559400 -0.89084700 -0.05445350
v -0.09176200 -0.90785800 -0.05611750
v -0.07139270 -0.90785800 -0.01532370
v -0.14954300 -0.17968900 0.12917200
v 0.32642100 -0.46923300 -0.28558300
v 0.32642100 -0.26525900 -0.30597900
v 0.32126100 -0.47948400 -0.29578100
v 0.31365600 -0.55086700 -0.28558300
v 0.30089200 -0.58139600 -0.29578100
v 0.29919400 -0.57122000 -0.29921600
v 0.31616900 -0.21422900 -0.32127700
v 0.32126100 -0.21422900 -0.31617800
v 0.31005800 -0.17968900 -0.30394000
v 0.31616900 -0.19387600 -0.31107900
v 0.30089200 -0.66303000 -0.25498700
v 0.27027000 -0.72423700 -0.25498700
v 0.24990000 -0.78544400 -0.23459000
v 0.23116000 -0.74800700 -0.25836900
v 0.19035400 -0.84999300 -0.21757500
v 0.10874100 -0.87042000 -0.21757500
v 0.09516090 -0.88401400 -0.21081200
v -0.02719110 -0.88401400 -0.21081200
v -0.09176200 -0.88743100 -0.19379700
v -0.04077070 -0.91803400 -0.16320100
v -0.09176200 -0.90785800 -0.13260600
v -0.08157730 -0.91803400 -0.10195700
v -0.08157730 -0.91803400 -0.08161360
v -0.09515690 -0.91120000 -0.07485040
v -0.04077070 -0.90444100 0.00679088
v -0.01021660 -0.90785800 0.01527170
v -0.02040130 -0.87725400 0.02804660
v -0.01021660 -0.86700300 0.03566860
v -0.03058600 -0.84665100 0.03566860
v -0.00003195 -0.85682700 0.04076780
v -0.09176200 -0.27543600 0.15810400
v 0.17337900 -0.19387600 0.17850100
v 0.18356400 -0.17968900 0.18113100
v -0.07757140 -0.17968900 0.17383100
v -0.08558330 -0.17968900 0.16985900
v -0.11837800 -0.17968900 0.15343400
v -0.12367400 -0.17968900 0.15026700
v -0.07478750 -0.91120000 -0.03400290
v -0.06114010 -0.91290900 -0.01790010
v 0.32642100 -0.53044000 -0.26518600
v 0.32642100 -0.20405300 -0.28558300
v 0.32126100 -0.54069000 -0.27538400
v 0.31365600 -0.59157200 -0.26518600
v 0.32126100 -0.20405300 -0.30855600
v 0.31420000 -0.17968900 -0.28161100
v 0.31956400 -0.19045900 -0.29239900
v 0.32126100 -0.58139600 -0.25498700
v 0.32642100 -0.57122000 -0.24478900
v 0.30089200 -0.68338300 -0.23459000
v 0.29321900 -0.69363300 -0.24478900
v 0.27285000 -0.75484000 -0.22439200
v 0.26008500 -0.78544400 -0.21419300
v 0.25159800 -0.80238000 -0.20399500
v 0.21079100 -0.84323400 -0.20399500
v 0.20651300 -0.83640000 -0.21929300
v 0.23116000 -0.78878600 -0.23797200
v 0.19890900 -0.84665100 -0.21419300
v 0.18865600 -0.86700300 -0.19379700
v 0.14785000 -0.88743100 -0.19379700
v 0.12917800 -0.89084700 -0.19717800
v 0.09516090 -0.90444100 -0.19036100
v -0.02719110 -0.90444100 -0.19036100
v 0.01354760 -0.92479300 -0.16996400
v 0.02033740 -0.93838700 -0.14280400
v -0.02040130 -0.93838700 -0.12240700
v -0.06114010 -0.91803400 -0.04081980
v -0.02040130 -0.93838700 -0.06121670
v -0.03398090 -0.93162700 -0.05445350
v -0.02040130 -0.91290900 0.00249679
v 0.06114410 -0.89760700 0.02037090
v 0.04077470 -0.88401400 0.02718780
v -0.00003195 -0.88401400 0.02718780
v -0.00003195 -0.91120000 0.01355410
v 0.06114410 -0.91120000 0.01355410
v 0.04077470 -0.85682700 0.04076780
v 0.19721100 -0.25166600 0.15638600
v 0.19374900 -0.18875100 0.17340100
v 0.18906400 -0.17968900 0.17780300
v 0.08158130 -0.83640000 0.04076780
v 0.10195100 -0.83900000 0.03566860
v 0.12238800 -0.81857300 0.03566860
v 0.18356400 -0.40810000 0.12235500
v 0.19721100 -0.41486000 0.11559200
v -0.02040130 -0.93333600 -0.03829700
v 0.32642100 -0.17968900 -0.12240700
v 0.30598400 -0.67320600 -0.22439200
v 0.32642100 -0.55086700 -0.20399500
v 0.30598400 -0.67320600 -0.16320100
v 0.28561500 -0.73441300 -0.20399500
v 0.28045400 -0.74459000 -0.21419300
v 0.28045400 -0.76501700 -0.15300300
v 0.26008500 -0.80579700 -0.15300300
v 0.25241200 -0.81604700 -0.16320100
v 0.23116000 -0.84323400 -0.16320100
v 0.21079100 -0.86358700 -0.16320100
v 0.16828700 -0.88743100 -0.17340000
v 0.12748000 -0.90785800 -0.17340000
v 0.10874100 -0.91120000 -0.17678100
v 0.04756450 -0.93162700 -0.15638400
v 0.03398490 -0.92479300 -0.16996400
v 0.02719510 -0.93162700 -0.15638400
v 0.04077470 -0.93838700 -0.14280400
v -0.00003195 -0.93838700 -0.04081980
v -0.00003195 -0.91803400 -0.00002598
v 0.08158130 -0.90020700 0.01527170
v 0.07139670 -0.91290900 0.01017250
v 0.21758100 -0.27201900 0.13598900
v 0.21079100 -0.23807300 0.14956900
v 0.21758100 -0.35365300 0.11559200
v 0.20196400 -0.17968900 0.16717500
v 0.10195100 -0.87725400 0.02037090
v 0.11559800 -0.88401400 0.01355410
v 0.13257300 -0.82109800 0.03056940
v 0.23116000 -0.34006000 0.10877500
v 0.17337900 -0.73953900 0.03056940
v 0.19374900 -0.69868400 0.03056940
v 0.19721100 -0.68004000 0.03395100
v 0.21418600 -0.71911200 0.01017250
v 0.21758100 -0.70039300 0.01355410
v 0.23116000 -0.68680000 0.00679088
v -0.00003195 -0.93162700 -0.02723970
v 0.32642100 -0.17968900 -0.01645090
v 0.28561500 -0.75484000 -0.14280400
v 0.32642100 -0.53044000 -0.18359800
v 0.28561500 -0.73441300 -0.12240700
v 0.32642100 -0.24483200 -0.04081980
v 0.30598400 -0.28568600 0.02037090
v 0.25159800 -0.82280700 -0.14280400
v 0.16998400 -0.90444100 -0.12240700
v 0.14785000 -0.90785800 -0.15300300
v 0.14533700 -0.91290900 -0.14280400
v 0.12490000 -0.91290900 -0.16320100
v 0.10195100 -0.91803400 -0.16320100
v 0.08837110 -0.93162700 -0.13598700
v 0.08158130 -0.93838700 -0.12240700
v 0.06114410 -0.93838700 -0.04081980
v 0.07139670 -0.93333600 -0.03062130
v 0.06114410 -0.91803400 -0.00002598
v 0.10195100 -0.90444100 0.00679088
v 0.11220300 -0.89255600 0.01017250
v 0.11220300 -0.91290900 -0.01022440
v 0.08158130 -0.92568500 -0.02042290
v 0.25159800 -0.34006000 0.08837850
v 0.23116000 -0.23807300 0.12917200
v 0.26320800 -0.17968900 0.10598400
v 0.22240200 -0.17968900 0.14677800
v 0.20800700 -0.17968900 0.16116300
v 0.17337900 -0.86195200 -0.01022440
v 0.15301000 -0.84152500 0.01017250
v 0.21418600 -0.84152500 -0.03062130
v 0.21758100 -0.82280700 -0.02723970
v 0.23795000 -0.70039300 -0.00684284
v 0.25838800 -0.35365300 0.07479840
v 0.32275500 -0.17968900 -0.00002598
v 0.28045400 -0.75736600 -0.12240700
v 0.26008500 -0.79814600 -0.08161360
v 0.26517700 -0.79562000 -0.10195700
v 0.25159800 -0.82280700 -0.10195700
v 0.26517700 -0.77519300 -0.08161360
v 0.30598400 -0.20405300 0.04076780
v 0.29919400 -0.21088600 0.05440150
v 0.29919400 -0.29244600 0.03395100
v 0.25838800 -0.78202700 -0.06803350
v 0.16998400 -0.90444100 -0.06121670
v 0.11220300 -0.93333600 -0.07141510
v 0.11559800 -0.93162700 -0.10195700
v 0.14275700 -0.91803400 -0.12240700
v 0.10453100 -0.93333600 -0.12240700
v 0.10195100 -0.93838700 -0.10195700
v 0.08158130 -0.93838700 -0.06121670
v 0.13257300 -0.90273200 -0.01022440
v 0.15301000 -0.91290900 -0.05101820
v 0.15301000 -0.90273200 -0.03062130
v 0.29240400 -0.27885300 0.04758470
v 0.27875700 -0.25166600 0.07479840
v 0.27536200 -0.18875100 0.09176010
v 0.26918300 -0.17968900 0.09997250
v 0.21079100 -0.86358700 -0.06121670
v 0.25499300 -0.80074500 -0.07141510
v 0.32058200 -0.17968900 0.00550265
v 0.23116000 -0.84323400 -0.08161360
v 0.30483000 -0.17968900 0.04533030
v 0.29994100 -0.17968900 0.05735370
v 0.29240400 -0.19721900 0.06798160
v 0.10195100 -0.93838700 -0.08161360
v 0.27977500 -0.17968900 0.08709020
f 216 244 262
f 204 247 251
f 204 251 252
f 204 252 248
f 206 208 207
f 208 250 249
f 208 249 253
f 208 253 210
f 211 254 255
f 210 253 211
f 211 255 256
f 211 260 261
f 211 253 257
f 211 257 258
f 211 261 254
f 211 259 260
f 204 206 205
f 208 210 209
f 211 258 259
f 198 243 199
f 204 250 208
f 195 239 240
f 195 240 196
f 216 262 217
f 196 240 197
f 197 240 198
f 198 241 242
f 198 242 243
f 198 240 241
f 199 243 200
f 200 243 245
f 200 245 201
f 201 244 216
f 201 216 202
f 201 245 246
f 201 246 244
f 203 217 247
f 203 247 204
f 204 248 249
f 204 249 250
f 204 208 206
f 217 262 247
f 239 241 240
f 219 222 224
f 236 275 237
f 237 275 238
f 238 275 276
f 238 276 239
f 239 276 277
f 239 277 278
f 239 278 241
f 241 278 277
f 241 277 279
f 241 279 242
f 242 279 277
f 242 277 280
f 242 280 313
f 242 313 347
f 242 347 363
f 242 363 348
f 242 348 314
f 242 314 281
f 195 238 239
f 236 274 275
f 218 226 220
f 236 273 274
f 232 236 235
f 219 224 263
f 220 226 225
f 223 263 224
f 226 264 227
f 226 265 266
f 226 266 264
f 227 264 267
f 227 267 268
f 227 268 229
f 227 229 228
f 229 268 230
f 230 269 270
f 230 270 271
f 230 271 231
f 230 268 269
f 231 271 272
f 231 272 232
f 232 272 273
f 232 273 236
f 232 235 233
f 193 195 194
f 161 198 199
f 193 237 238
f 161 199 163
f 161 163 162
f 163 199 200
f 163 200 201
f 163 201 164
f 164 201 202
f 164 202 175
f 165 177 203
f 165 203 204
f 165 204 205
f 165 205 206
f 165 206 207
f 165 207 173
f 165 173 166
f 166 173 172
f 166 172 167
f 168 174 208
f 168 208 209
f 168 209 210
f 242 281 245
f 168 210 211
f 161 197 198
f 158 197 159
f 151 183 153
f 152 187 188
f 152 188 186
f 152 186 185
f 153 183 189
f 153 189 190
f 153 190 154
f 154 190 191
f 154 191 192
f 154 192 155
f 155 192 234
f 155 234 193
f 155 193 156
f 156 193 194
f 156 194 195
f 156 195 157
f 157 195 196
f 157 196 158
f 158 196 197
f 160 197 161
f 193 238 195
f 168 211 212
f 169 212 213
f 187 224 188
f 188 224 222
f 189 221 225
f 189 225 226
f 189 226 227
f 189 227 228
f 189 228 190
f 190 228 229
f 190 229 191
f 191 229 230
f 191 230 231
f 191 231 232
f 191 232 233
f 191 233 193
f 191 193 234
f 191 234 192
f 193 233 235
f 193 235 236
f 193 236 237
f 187 223 224
f 168 212 169
f 186 222 219
f 182 189 183
f 169 213 170
f 170 213 214
f 170 214 171
f 171 214 215
f 171 215 178
f 173 207 174
f 174 207 208
f 175 202 176
f 176 202 216
f 176 216 177
f 177 216 217
f 177 217 203
f 179 218 220
f 179 220 181
f 180 186 219
f 181 220 182
f 182 220 225
f 182 225 221
f 182 221 189
f 186 188 222
f 242 245 243
f 283 318 290
f 245 281 262
f 307 345 309
f 307 309 308
f 309 345 346
f 309 346 310
f 310 346 311
f 311 346 312
f 312 346 313
f 313 346 347
f 307 344 345
f 314 348 315
f 315 343 350
f 315 350 319
f 315 319 320
f 317 349 318
f 317 319 349
f 318 349 326
f 319 350 351
f 319 351 349
f 315 348 343
f 307 343 344
f 307 342 343
f 306 342 307
f 298 329 330
f 298 330 331
f 298 331 321
f 300 332 304
f 301 303 333
f 301 333 334
f 301 334 335
f 301 335 336
f 301 336 306
f 303 337 334
f 303 334 333
f 303 305 337
f 304 332 305
f 305 332 338
f 305 338 339
f 305 339 340
f 305 340 341
f 305 341 337
f 306 336 342
f 321 331 352
f 321 352 353
f 321 353 354
f 321 354 322
f 338 360 361
f 338 361 339
f 339 361 362
f 339 362 352
f 339 352 340
f 342 351 350
f 342 350 343
f 342 359 356
f 343 348 363
f 343 363 347
f 343 347 344
f 344 347 345
f 345 347 346
f 352 362 353
f 353 362 354
f 354 362 364
f 354 364 355
f 361 364 362
f 151 184 183
f 338 358 360
f 298 328 329
f 336 359 342
f 334 336 335
f 322 354 355
f 322 355 323
f 326 328 327
f 326 349 351
f 326 351 328
f 328 351 342
f 328 342 356
f 328 356 336
f 328 336 357
f 328 357 341
f 328 341 329
f 329 341 330
f 330 341 340
f 330 340 331
f 331 340 352
f 332 358 338
f 334 337 341
f 334 341 357
f 334 357 336
f 336 356 359
f 244 246 262
f 296 298 297
f 296 327 328
f 261 292 287
f 261 291 293
f 261 293 294
f 261 294 295
f 261 295 296
f 261 296 297
f 261 297 298
f 261 298 292
f 259 261 260
f 262 281 299
f 264 301 267
f 264 266 301
f 265 302 266
f 266 303 301
f 266 302 304
f 266 304 305
f 266 305 303
f 267 301 269
f 262 299 282
f 259 291 261
f 259 290 291
f 258 290 259
f 245 262 246
f 247 282 251
f 247 262 282
f 248 252 283
f 248 283 253
f 248 253 249
f 251 282 284
f 251 284 252
f 252 284 283
f 253 283 258
f 253 258 257
f 254 285 286
f 254 286 255
f 254 261 287
f 254 287 285
f 255 288 256
f 255 286 288
f 258 283 289
f 258 289 290
f 267 269 268
f 269 301 270
f 270 301 306
f 270 306 271
f 284 316 315
f 284 315 320
f 284 320 319
f 285 287 292
f 285 292 321
f 285 321 286
f 286 321 322
f 286 322 323
f 286 323 324
f 286 324 325
f 286 325 288
f 290 318 326
f 290 326 327
f 290 327 291
f 291 327 293
f 292 298 321
f 293 327 296
f 293 296 294
f 294 296 295
f 284 319 317
f 296 328 298
f 283 284 317
f 283 317 318
f 271 306 272
f 272 306 307
f 272 307 273
f 273 307 274
f 274 307 308
f 274 308 275
f 275 308 309
f 275 309 310
f 275 310 276
f 276 310 311
f 276 311 277
f 277 312 313
f 277 313 280
f 277 311 312
f 281 314 315
f 281 315 299
f 282 316 284
f 282 299 315
f 282 315 316
f 283 290 289
f 150 186 180
f 84 116 85
f 150 152 185
f 27 29 28
f 27 47 53
f 29 53 54
f 29 54 55
f 29 55 30
f 30 55 56
f 30 56 52
f 34 57 37
f 27 53 29
f 34 36 57
f 36 58 90
f 36 90 59
f 36 59 60
f 36 60 61
f 36 61 62
f 36 62 57
f 37 57 63
f 37 63 38
f 35 58 36
f 26 31 52
f 25 47 27
f 24 51 46
f 19 39 40
f 19 40 41
f 19 41 20
f 19 37 38
f 20 41 42
f 20 42 22
f 21 22 43
f 21 43 44
f 21 44 23
f 22 42 45
f 22 45 43
f 23 44 24
f 24 46 47
f 24 47 25
f 24 44 43
f 24 43 48
f 24 48 49
f 24 49 50
f 24 50 51
f 38 64 65
f 38 65 66
f 38 66 39
f 38 63 62
f 49 79 80
f 49 80 50
f 50 80 81
f 50 81 82
f 50 82 76
f 50 76 51
f 52 56 83
f 53 78 54
f 54 78 84
f 54 84 85
f 54 85 86
f 54 86 87
f 54 87 55
f 55 87 56
f 56 88 89
f 56 89 83
f 56 87 88
f 57 62 63
f 59 90 95
f 48 79 49
f 19 38 39
f 48 69 79
f 47 75 78
f 38 62 64
f 39 66 67
f 39 67 40
f 40 67 68
f 40 68 42
f 40 42 41
f 42 69 45
f 42 68 70
f 42 70 71
f 42 71 72
f 42 72 73
f 42 73 69
f 43 45 69
f 43 69 48
f 46 74 75
f 46 75 47
f 46 51 76
f 46 76 77
f 46 77 74
f 47 78 53
f 59 95 60
f 18 37 19
f 17 34 37
f 6 18 19
f 6 19 20
f 6 20 22
f 6 22 7
f 7 21 8
f 7 22 21
f 8 21 23
f 8 23 24
f 6 17 18
f 8 24 25
f 9 11 31
f 9 31 26
f 10 26 13
f 11 27 28
f 11 28 29
f 11 29 30
f 11 30 52
f 11 52 31
f 8 25 11
f 5 17 6
f 5 16 17
f 4 16 5
f 1 2 10
f 1 10 3
f 1 3 12
f 1 12 4
f 1 4 5
f 1 5 6
f 1 6 7
f 1 7 8
f 1 8 2
f 2 9 26
f 2 26 10
f 2 8 11
f 2 11 9
f 3 10 13
f 3 13 14
f 150 185 186
f 4 12 32
f 4 32 15
f 4 15 16
f 11 25 27
f 12 14 32
f 13 26 52
f 13 52 83
f 13 300 263
f 13 263 223
f 13 223 187
f 13 187 152
f 13 152 126
f 13 126 96
f 13 96 95
f 13 95 90
f 13 90 58
f 13 58 35
f 13 35 32
f 13 32 33
f 13 33 14
f 14 33 32
f 15 34 16
f 15 32 35
f 15 35 36
f 15 36 34
f 16 34 17
f 13 332 300
f 17 37 18
f 13 358 332
f 13 361 360
f 13 83 89
f 13 89 119
f 13 119 118
f 13 118 117
f 13 117 146
f 13 146 178
f 13 178 215
f 13 215 214
f 13 214 213
f 13 213 212
f 13 212 211
f 13 211 256
f 13 256 288
f 13 288 325
f 13 325 324
f 13 324 323
f 13 323 355
f 13 355 364
f 13 364 361
f 13 360 358
f 60 91 121
f 3 14 12
f 60 92 93
f 123 151 124
f 124 151 125
f 125 151 127
f 126 152 150
f 127 153 154
f 127 154 155
f 127 155 156
f 127 156 128
f 123 149 151
f 127 151 153
f 128 157 158
f 128 158 131
f 130 131 158
f 130 158 159
f 130 159 132
f 132 159 197
f 132 197 160
f 132 160 133
f 128 156 157
f 122 149 123
f 121 180 147
f 121 150 180
f 108 139 140
f 108 140 109
f 108 115 139
f 109 140 141
f 109 141 142
f 109 142 143
f 109 143 110
f 110 143 144
f 110 144 135
f 112 138 113
f 113 138 145
f 113 145 116
f 113 116 114
f 115 134 139
f 120 126 121
f 121 147 148
f 121 148 149
f 121 149 122
f 121 126 150
f 133 160 161
f 133 161 162
f 133 162 163
f 133 163 164
f 143 177 165
f 146 171 178
f 147 179 181
f 147 181 148
f 147 180 219
f 147 219 263
f 147 263 300
f 147 300 304
f 147 304 302
f 147 302 265
f 147 265 226
f 147 226 218
f 147 218 179
f 148 181 149
f 149 181 182
f 149 182 183
f 149 183 184
f 149 184 151
f 60 121 92
f 142 177 143
f 107 138 112
f 142 176 177
f 141 175 142
f 133 164 134
f 134 164 141
f 134 141 140
f 135 144 143
f 135 143 165
f 135 165 166
f 135 166 167
f 135 167 136
f 136 167 137
f 137 168 169
f 137 169 170
f 137 170 171
f 137 171 145
f 137 145 138
f 137 167 172
f 137 172 173
f 137 173 174
f 137 174 168
f 141 164 175
f 142 175 176
f 107 137 138
f 134 140 139
f 107 135 136
f 71 105 72
f 72 105 106
f 72 106 79
f 72 79 73
f 74 78 75
f 74 77 76
f 74 76 107
f 74 107 112
f 71 104 105
f 74 112 78
f 76 109 110
f 76 110 107
f 76 82 81
f 76 81 111
f 76 111 108
f 78 112 113
f 78 113 114
f 78 114 84
f 76 108 109
f 70 104 71
f 69 73 79
f 67 70 68
f 60 93 94
f 107 136 137
f 60 94 61
f 60 95 96
f 60 96 91
f 61 94 62
f 62 94 97
f 62 97 64
f 64 97 98
f 64 98 99
f 64 99 65
f 65 99 129
f 65 129 100
f 65 100 101
f 65 101 66
f 66 101 102
f 66 102 67
f 67 102 103
f 67 103 70
f 79 106 80
f 80 106 81
f 70 103 104
f 81 115 108
f 94 125 97
f 97 125 127
f 97 127 98
f 98 127 128
f 98 128 129
f 98 129 99
f 100 130 101
f 100 128 131
f 100 131 130
f 101 130 102
f 102 130 132
f 102 132 103
f 103 132 104
f 104 132 133
f 104 133 134
f 104 134 105
f 105 134 115
f 81 106 115
f 105 115 106
f 94 124 125
f 93 124 94
f 100 129 128
f 107 110 135
f 81 108 111
f 84 114 116
f 93 123 124
f 85 116 86
f 86 116 145
f 86 145 171
f 86 146 117
f 86 117 118
f 86 118 87
f 86 171 146
f 88 118 119
f 88 119 89
f 91 120 121
f 91 96 126
f 91 126 120
f 93 122 123
f 87 118 88
f 92 121 122
f 92 122 93

