# https://github.com/mikedh/trimesh
v 0.12240600 0.31127000 -0.34680300
v 0.19237600 0.31127000 -0.34680300
v 0.01232310 0.31127000 -0.33922000
v 0.01232310 0.31836400 -0.34277900
v 0.01232310 0.32644400 -0.34680300
v 0.19237600 0.38995900 -0.36489400
v 0.19237600 0.31127000 0.01178120
v 0.01232310 0.31127000 -0.01846800
v 0.01232310 0.46921200 -0.35082800
v 0.18359900 0.40804600 -0.36722400
v 0.19237600 0.40804600 -0.36722400
v 0.19237600 0.31479400 0.01419610
v 0.18885100 0.31127000 0.01156940
v 0.01232310 0.31836400 -0.01579900
v 0.04605650 0.31127000 -0.00885095
v 0.05100900 0.31622700 -0.00512275
v 0.01232310 0.47750300 -0.35082800
v 0.18359900 0.46921200 -0.36722400
v 0.19237600 0.46921200 -0.36722400
v 0.16320700 0.34683300 0.02038150
v 0.06121360 0.32644400 -0.00003885
v 0.10201500 0.31127000 -0.00003885
v 0.19237600 0.46921200 0.06283210
v 0.03061740 0.33663900 -0.00512275
v 0.01232310 0.35916500 -0.00406360
v 0.08162290 0.38763400 0.02038150
v 0.07141830 0.37743900 0.01529760
v 0.01232310 0.50193200 -0.34981100
v 0.01232310 0.55121300 -0.34680300
v 0.19237600 0.55121300 -0.35629300
v 0.19237600 0.48962400 0.06558590
v 0.12240600 0.44882300 0.04080190
v 0.02041270 0.36724500 -0.00003885
v 0.01232310 0.50193200 0.01635680
v 0.01232310 0.55121300 0.02059330
v 0.19237600 0.55121300 0.06558590
v 0.16359500 0.55121300 0.06134930
v 0.16320700 0.53042500 0.06117980
v 0.01232310 0.53042500 0.02038150
v 0.02041270 0.51001300 0.02038150
v 0.08162290 0.55081300 0.04080190
v 0.08162290 0.55121300 0.04080190
f 17 28 18
f 21 23 26
f 20 23 21
f 18 30 19
f 18 29 30
f 18 28 29
f 23 31 32
f 12 22 13
f 16 27 25
f 16 26 27
f 16 21 26
f 15 22 16
f 14 24 25
f 14 16 24
f 12 23 20
f 23 32 26
f 16 25 24
f 25 27 26
f 31 39 40
f 25 40 34
f 12 16 22
f 38 41 39
f 37 41 38
f 37 42 41
f 35 41 42
f 35 39 41
f 34 40 39
f 32 40 33
f 31 40 32
f 31 38 39
f 31 37 38
f 31 36 37
f 29 36 30
f 29 37 36
f 29 42 37
f 29 35 42
f 26 32 33
f 25 33 40
f 12 21 16
f 25 26 33
f 10 19 11
f 2 12 7
f 2 23 12
f 2 31 23
f 2 36 31
f 2 30 36
f 2 19 30
f 2 11 19
f 2 6 11
f 1 6 2
f 1 5 6
f 1 4 5
f 1 3 4
f 1 8 3
f 1 15 8
f 1 13 22
f 1 7 13
f 1 2 7
f 3 8 14
f 12 20 21
f 1 22 15
f 3 25 34
f 3 14 25
f 10 18 19
f 9 17 18
f 8 16 14
f 8 15 16
f 7 12 13
f 6 10 11
f 5 10 6
f 9 18 10
f 3 5 4
f 3 9 5
f 3 17 9
f 3 28 17
f 3 29 28
f 3 35 29
f 3 39 35
f 5 9 10
f 3 34 39

