# https://github.com/mikedh/trimesh
v 0.34682300 0.31127000 0.14281700
v 0.33166700 0.31127000 0.17313800
v 0.34682300 0.24481700 0.14281700
v 0.34682300 0.31127000 0.04840960
v 0.31281200 0.31127000 0.21079000
v 0.31961900 0.29921800 0.19723600
v 0.31961900 0.21762100 0.19723600
v 0.34612900 0.20640000 0.12514500
v 0.34682300 0.20640000 0.12242900
v 0.34682300 0.20640000 0.04840960
v 0.25082800 0.31127000 0.04840960
v 0.27230300 0.31127000 0.25191800
v 0.26860400 0.28901300 0.26859700
v 0.27199400 0.27201200 0.27201500
v 0.29241600 0.25162300 0.25159700
v 0.29462500 0.20640000 0.24718600
v 0.30482300 0.20640000 0.22676800
v 0.30600500 0.20640000 0.22440200
v 0.27130100 0.20640000 0.04840960
v 0.24998000 0.31119900 0.04840960
v 0.23801000 0.31127000 0.05442700
v 0.27045300 0.31127000 0.25238500
v 0.15642600 0.25842000 0.34001700
v 0.19043600 0.25162300 0.33321100
v 0.25501500 0.25502100 0.29579200
v 0.29241600 0.21081500 0.25159700
v 0.22801700 0.20640000 0.32999700
v 0.29210800 0.20640000 0.25037000
v 0.25629900 0.25631500 0.04840960
v 0.14260600 0.20640000 0.10700600
v 0.24998000 0.29322200 0.04840960
v 0.14245200 0.20640000 0.10715200
v 0.13158600 0.20640000 0.11798900
v 0.12716800 0.20640000 0.12242900
v 0.21928300 0.31127000 0.07648080
v 0.23801000 0.29921800 0.05442700
v 0.25005700 0.31127000 0.25238500
v 0.08442340 0.26873700 0.32993900
v 0.08442340 0.25842000 0.34001700
v 0.16323300 0.24481700 0.34682300
v 0.22781200 0.20741700 0.32979300
v 0.18321800 0.20640000 0.34556700
v 0.11745800 0.20640000 0.13536900
v 0.17343100 0.30091200 0.15301200
v 0.19413500 0.31127000 0.16323600
v 0.08442340 0.23802100 0.23120800
v 0.08442340 0.24922100 0.24701100
v 0.08442340 0.25872800 0.26196600
v 0.08442340 0.25987700 0.26392400
v 0.22709200 0.31127000 0.24476200
v 0.08442340 0.27281300 0.31361000
v 0.08442340 0.24481700 0.34682300
v 0.16706100 0.22059900 0.34682300
v 0.15285500 0.20640000 0.34682300
v 0.08442340 0.20640000 0.20202700
v 0.08442340 0.22628600 0.21873500
v 0.08442340 0.26081200 0.26579300
v 0.08442340 0.26961000 0.28781800
v 0.08442340 0.27401400 0.30879100
v 0.18362900 0.30601400 0.22440200
v 0.21453100 0.31127000 0.22440200
v 0.08442340 0.20640000 0.34682300
f 24 41 25
f 25 41 27
f 26 27 28
f 35 47 48
f 27 40 42
f 34 43 35
f 30 36 31
f 35 44 45
f 35 43 46
f 35 46 47
f 24 27 41
f 29 30 31
f 24 40 27
f 21 36 30
f 23 52 40
f 23 39 52
f 23 38 39
f 22 38 23
f 22 37 38
f 21 34 35
f 21 33 34
f 21 32 33
f 21 30 32
f 20 36 21
f 20 31 36
f 19 30 29
f 35 48 49
f 23 40 24
f 35 49 44
f 50 59 51
f 38 51 59
f 50 60 59
f 50 61 60
f 45 60 61
f 45 59 60
f 44 59 45
f 44 58 59
f 44 57 58
f 44 49 57
f 43 56 46
f 43 55 56
f 42 53 54
f 40 53 42
f 40 54 53
f 40 62 54
f 40 52 62
f 38 50 51
f 38 52 39
f 38 62 52
f 38 55 62
f 38 56 55
f 38 46 56
f 38 47 46
f 38 48 47
f 38 49 48
f 38 57 49
f 38 58 57
f 38 59 58
f 37 50 38
f 16 26 28
f 15 25 27
f 15 26 16
f 5 12 13
f 4 20 11
f 4 31 20
f 4 29 31
f 4 19 29
f 4 10 19
f 3 7 8
f 3 8 9
f 2 7 3
f 2 6 7
f 2 5 6
f 1 5 2
f 5 13 14
f 1 12 5
f 1 37 22
f 1 50 37
f 1 45 61
f 1 35 45
f 1 21 35
f 1 11 21
f 1 4 11
f 1 10 4
f 1 9 10
f 1 3 9
f 1 2 3
f 15 27 26
f 1 22 12
f 5 14 15
f 1 61 50
f 6 15 16
f 14 25 15
f 5 15 6
f 13 25 14
f 13 24 25
f 12 24 13
f 12 23 24
f 11 20 21
f 8 10 9
f 8 19 10
f 8 30 19
f 8 32 30
f 8 33 32
f 8 34 33
f 12 22 23
f 8 55 43
f 7 16 17
f 8 43 34
f 6 16 7
f 7 17 18
f 7 18 8
f 8 17 16
f 8 18 17
f 8 28 27
f 8 27 42
f 8 42 54
f 8 54 62
f 8 62 55
f 8 16 28

