# https://github.com/mikedh/trimesh
v -0.18360700 0.31127000 -0.34680700
v -0.05596840 0.31127000 -0.34680700
v -0.19410400 0.31127000 -0.34156800
v -0.19039600 0.42164600 -0.35358700
v -0.16319100 0.42843500 -0.36722400
v -0.14279900 0.40804600 -0.36722400
v 0.01232310 0.32644400 -0.34680700
v 0.01232310 0.31127000 -0.33921900
v -0.19720900 0.31282100 -0.33998900
v -0.19688500 0.31127000 -0.33968100
v -0.19039600 0.50322400 -0.35358700
v -0.19876200 0.31127000 -0.33690700
v -0.16319100 0.51001300 -0.36722400
v -0.04081310 0.44882300 -0.36722400
v -0.02042070 0.46921200 -0.36722400
v 0.01232310 0.46921200 -0.35085200
v 0.01232310 0.31127000 -0.01844910
v -0.17679400 0.51682400 -0.36040600
v -0.19720900 0.55121300 -0.33998900
v -0.20399900 0.31127000 -0.32639100
v -0.20360500 0.55121300 -0.32720000
v -0.14279900 0.53042500 -0.36722400
v -0.15816200 0.55121300 -0.36082900
v -0.03061690 0.49981800 -0.36210000
v 0.01232310 0.55121300 -0.34680700
v -0.01020130 0.47943000 -0.36210000
v 0.01232310 0.47750300 -0.35085200
v 0.01232310 0.31836400 -0.01579110
v -0.10662500 0.31127000 0.02631300
v -0.22441500 0.44882300 -0.24480200
v -0.20399900 0.55121300 -0.32639100
v -0.22441500 0.31127000 -0.17835200
v -0.14319200 0.55121300 -0.35963500
v 0.01232310 0.50193200 -0.34985100
v 0.01232310 0.55121300 0.02057330
v 0.01232310 0.35916500 -0.00404205
v -0.09907060 0.32644400 0.02631300
v -0.22175000 0.31127000 0.02631300
v -0.22441500 0.46921200 -0.24480200
v -0.22441500 0.51001300 -0.22438600
v -0.20399900 0.55121300 -0.20400800
v -0.22441500 0.31127000 0.02038070
v -0.03325870 0.55121300 0.02631300
v -0.03353680 0.52889800 0.02631300
v 0.01232310 0.53042500 0.02038070
v 0.01232310 0.50193200 0.01633590
v -0.07026630 0.38763400 0.02631300
v -0.22144800 0.33234000 0.02631300
v -0.22441500 0.32644400 0.02038070
v -0.20386000 0.55121300 -0.18359100
v -0.20399900 0.42843500 0.02631300
v -0.18360700 0.55081300 -0.04083020
v -0.16319100 0.55121300 0.02631300
v -0.03596990 0.51292500 0.02631300
v -0.18339800 0.55121300 -0.04040650
v -0.18064000 0.51593200 0.02631300
v -0.18360700 0.51001300 0.02038070
f 25 34 26
f 26 34 27
f 28 36 29
f 29 36 37
f 29 54 44
f 29 47 54
f 29 44 43
f 22 25 24
f 29 43 53
f 29 53 56
f 29 37 47
f 22 33 25
f 19 25 33
f 20 32 30
f 20 31 21
f 20 39 31
f 20 30 39
f 19 33 23
f 19 35 25
f 19 43 35
f 19 53 43
f 19 55 53
f 29 56 51
f 19 50 55
f 22 23 33
f 29 51 48
f 40 52 50
f 30 32 42
f 19 41 50
f 52 56 55
f 52 57 56
f 51 57 52
f 51 56 57
f 50 52 55
f 48 51 49
f 45 47 46
f 45 54 47
f 44 54 45
f 40 51 52
f 53 55 56
f 40 49 51
f 40 50 41
f 38 49 42
f 38 48 49
f 36 47 37
f 36 46 47
f 35 44 45
f 35 43 44
f 31 40 41
f 31 39 40
f 30 40 39
f 30 49 40
f 30 42 49
f 29 48 38
f 19 31 41
f 1 4 5
f 18 19 23
f 5 22 15
f 5 13 22
f 4 12 11
f 4 9 12
f 4 13 5
f 4 18 13
f 4 11 18
f 3 10 9
f 3 9 4
f 2 7 8
f 2 6 7
f 5 15 14
f 1 6 2
f 1 3 4
f 1 10 3
f 1 12 10
f 1 20 12
f 1 32 20
f 1 42 32
f 1 38 42
f 1 29 38
f 1 8 17
f 1 2 8
f 19 21 31
f 1 5 6
f 5 14 6
f 1 17 29
f 7 14 15
f 6 14 7
f 15 27 16
f 15 25 26
f 15 24 25
f 15 22 24
f 13 23 22
f 13 18 23
f 12 21 19
f 12 20 21
f 11 19 18
f 11 12 19
f 15 26 27
f 7 17 8
f 7 15 16
f 9 10 12
f 7 16 27
f 7 27 34
f 7 34 25
f 17 28 29
f 7 35 45
f 7 45 46
f 7 46 36
f 7 36 28
f 7 25 35
f 7 28 17

