# https://github.com/mikedh/trimesh
v 0.08159360 0.75482900 0.34679500
v 0.11241100 0.75706200 0.34084700
v 0.11241100 0.76463400 0.34040000
v 0.11241100 0.76843700 0.34000900
v 0.11241100 0.77482200 0.33682500
v 0.06118330 0.75482900 0.34679500
v 0.08159360 0.73441800 0.34679500
v 0.11241100 0.72447400 0.32640900
v 0.06118330 0.69366400 0.34679500
v 0.07479910 0.68686000 0.34000900
v 0.07140190 0.66815800 0.33660200
v 0.05438890 0.76843700 0.34000900
v 0.11241100 0.80605000 0.32121500
v 0.03823870 0.75482900 0.34171200
v 0.02038990 0.71407600 0.34679500
v 0.11241100 0.71753000 0.32294700
v 0.04080010 0.67325200 0.34679500
v 0.06118330 0.67070500 0.34171200
v 0.09178520 0.66815800 0.31621700
v 0.05099170 0.65797000 0.33660200
v 0.06118330 0.64519900 0.30599600
v 0.08159360 0.64519900 0.28561100
v 0.06797780 0.78204500 0.33319500
v 0.03397870 0.78884900 0.31959600
v 0.03567730 0.76501800 0.33660200
v 0.09518240 0.80922600 0.31959600
v 0.11241100 0.80922600 0.31959600
v 0.01529410 0.74464100 0.33660200
v 0.01782850 0.73441800 0.34171200
v 0.00677409 0.71407600 0.34000900
v 0.01019830 0.70385300 0.34171200
v 0.03058150 0.66306400 0.34171200
v 0.11241100 0.70894700 0.31613300
v 0.04080010 0.65964500 0.34000900
v 0.09178520 0.65797000 0.29580400
v 0.11241100 0.67935900 0.28561100
v 0.11241100 0.70004900 0.30837000
v -0.06119700 0.55123600 0.19401800
v -0.05502270 0.55123600 0.19248200
v -0.04078680 0.55123600 0.18787400
v -0.02040360 0.55123600 0.18069700
v -0.01819270 0.55123600 0.17927300
v -0.01021190 0.55123600 0.17343700
v 0.08838800 0.64607200 0.26519800
v -0.00511613 0.55123600 0.16617600
v -0.00392981 0.55123600 0.16321600
v 0.02548570 0.78542900 0.31621700
v 0.01782850 0.77524100 0.32129900
v 0.07649770 0.80584100 0.31621700
v 0.03567730 0.80584100 0.29580400
v 0.11241100 0.81083100 0.31641200
v 0.07479910 0.82963700 0.27879800
v 0.00507549 0.76501800 0.31621700
v 0.00507549 0.72426400 0.33660200
v -0.14254100 0.55123600 0.14294300
v -0.12213100 0.55123600 0.16335600
v 0.01359550 0.67325200 0.33319500
v -0.10422800 0.55123600 0.17877100
v -0.08120280 0.55123600 0.19158800
v 0.10879800 0.66644900 0.26519800
v 0.11241100 0.67028700 0.26519800
v 0.11241100 0.65353900 0.06156980
v 0.11241100 0.66826300 0.24481300
v 0.00019537 0.55123600 0.14283100
v 0.01359550 0.78204500 0.30599600
v 0.05608750 0.82625300 0.27539100
v 0.03567730 0.82625300 0.25500500
v -0.02719800 0.84324500 0.12241800
v 0.11241100 0.83124200 0.27561400
v 0.07479910 0.85004900 0.23799900
v -0.05610120 0.82625300 0.09181250
v -0.00765056 0.75482900 0.30599600
v -0.15278700 0.55123600 0.12241800
v -0.12180800 0.55123600 0.16363500
v 0.11241100 0.90765500 0.06156980
v 0.00019537 0.55123600 0.12303200
v 0.00014145 0.55123600 0.10242400
v -0.01247670 0.55123600 0.06162560
v -0.01250370 0.55123600 0.06156980
v 0.03823870 0.83134700 0.24481300
v 0.01774760 0.89237300 0.06156980
v 0.01529410 0.88745300 0.07142730
v -0.00681474 0.85004900 0.13601800
v -0.01530780 0.84662900 0.13261100
v -0.02679360 0.86376100 0.06156980
v -0.02706320 0.86351700 0.06156980
v 0.11241100 0.85685300 0.22440000
v 0.08159360 0.85685300 0.22440000
v 0.03823870 0.89254700 0.08161990
v 0.01817900 0.89254700 0.06156980
v -0.04744640 0.84321000 0.06156980
v -0.10921600 0.75517800 0.06156980
v -0.10964800 0.73441800 0.10203300
v -0.08923750 0.75482900 0.12241800
v -0.07648450 0.70385300 0.19382200
v -0.13768800 0.68347600 0.07142730
v -0.14262200 0.67360100 0.06156980
v -0.16300500 0.55123600 0.08201080
v -0.11730500 0.72426400 0.09181250
v 0.08191710 0.90765500 0.06156980
v -0.16303200 0.55123600 0.06156980
v 0.06118330 0.89764100 0.08161990
v -0.12992300 0.71407600 0.06156980
v -0.15041400 0.63145200 0.06156980
f 50 66 67
f 53 71 72
f 53 65 71
f 52 70 66
f 51 69 70
f 50 68 65
f 50 67 68
f 53 72 54
f 51 70 52
f 54 72 55
f 62 101 104
f 56 74 57
f 57 74 58
f 60 63 61
f 62 64 76
f 62 76 77
f 62 77 78
f 62 79 101
f 62 97 103
f 62 104 97
f 49 66 50
f 55 72 73
f 62 78 79
f 38 101 79
f 48 65 53
f 38 56 55
f 38 55 73
f 62 103 92
f 38 73 98
f 38 98 101
f 38 79 78
f 38 78 77
f 38 77 76
f 38 76 64
f 38 64 46
f 49 52 66
f 38 46 45
f 38 43 42
f 38 42 41
f 38 41 40
f 38 40 39
f 44 62 63
f 44 63 60
f 44 46 64
f 44 64 62
f 47 65 48
f 47 50 65
f 38 45 43
f 62 92 91
f 89 100 90
f 62 86 85
f 71 94 72
f 72 94 93
f 72 93 95
f 72 95 73
f 73 96 97
f 73 97 98
f 73 95 99
f 73 99 96
f 75 100 88
f 75 88 87
f 71 93 94
f 82 84 83
f 88 102 89
f 89 102 100
f 92 103 99
f 92 99 93
f 93 99 95
f 96 99 103
f 96 103 97
f 97 104 98
f 38 74 56
f 98 104 101
f 88 100 102
f 71 92 93
f 71 91 92
f 71 86 91
f 62 85 81
f 62 81 90
f 62 90 100
f 62 100 75
f 65 68 71
f 66 70 67
f 67 80 81
f 67 81 82
f 67 82 83
f 67 83 84
f 67 84 68
f 67 70 80
f 68 84 82
f 68 82 81
f 68 81 85
f 68 85 86
f 68 86 71
f 69 87 88
f 69 88 70
f 70 88 89
f 70 89 90
f 70 90 81
f 70 81 80
f 62 91 86
f 38 58 74
f 23 26 24
f 35 61 36
f 2 9 10
f 2 10 11
f 2 11 8
f 5 12 6
f 5 13 12
f 6 12 14
f 6 14 15
f 8 11 16
f 9 17 18
f 9 18 10
f 10 18 11
f 11 19 16
f 11 18 20
f 11 20 21
f 11 21 22
f 11 22 19
f 12 23 24
f 12 24 25
f 12 25 14
f 12 13 26
f 12 26 23
f 2 7 9
f 2 4 3
f 2 5 4
f 2 13 5
f 38 59 58
f 1 2 3
f 1 3 4
f 1 4 5
f 1 5 6
f 1 6 15
f 1 15 17
f 1 17 9
f 1 9 7
f 1 7 2
f 13 27 26
f 2 8 16
f 2 33 37
f 2 37 36
f 2 36 61
f 2 61 63
f 2 63 62
f 2 62 75
f 2 75 87
f 2 69 51
f 2 51 27
f 2 27 13
f 2 16 33
f 14 28 29
f 2 87 69
f 14 25 28
f 24 26 49
f 24 49 50
f 24 50 47
f 25 48 28
f 26 27 51
f 26 51 52
f 26 52 49
f 28 48 53
f 28 53 54
f 28 54 29
f 24 48 25
f 29 54 30
f 31 55 56
f 31 56 57
f 31 57 32
f 32 57 58
f 32 58 59
f 32 59 34
f 34 59 38
f 35 44 60
f 14 29 15
f 35 60 61
f 30 55 31
f 24 47 48
f 30 54 55
f 22 45 46
f 15 30 31
f 22 46 44
f 15 31 32
f 15 32 17
f 16 19 33
f 17 32 34
f 15 29 30
f 18 34 20
f 19 22 35
f 19 35 36
f 19 36 37
f 17 34 18
f 22 43 45
f 20 34 38
f 20 38 39
f 20 39 40
f 20 40 41
f 20 41 21
f 21 41 42
f 21 42 43
f 21 43 22
f 22 44 35
f 19 37 33

