# https://github.com/mikedh/trimesh
v -0.22173800 0.31127000 0.02631300
v -0.22144600 0.33234000 0.02631300
v -0.10664300 0.31127000 0.02631300
v -0.20400300 0.31127000 0.12241700
v -0.20400300 0.40804600 0.12241700
v -0.20400300 0.42843500 0.02631300
v -0.20400300 0.42843500 0.08161380
v -0.09905580 0.32644400 0.02631300
v -0.00773458 0.31127000 0.15932600
v -0.18927700 0.31127000 0.16844700
v -0.18359700 0.32644400 0.18359800
v -0.19890700 0.41824000 0.13261800
v -0.18359700 0.48962400 0.10201600
v -0.18063400 0.51593200 0.02631300
v -0.07027660 0.38763400 0.02631300
v -0.05440540 0.40804600 0.03402650
v -0.04591980 0.39782800 0.05101120
v 0.00050409 0.31127000 0.18254200
v -0.02551390 0.49981800 0.05101120
v -0.01247120 0.55121300 0.06161410
v -0.18359700 0.31127000 0.18359800
v -0.17850200 0.33663900 0.19379800
v -0.15809600 0.54061900 0.13261800
v -0.17850200 0.49981800 0.11221600
v -0.19125200 0.42843500 0.14281900
v -0.16319200 0.55081300 0.08161380
v -0.17850200 0.52023000 0.03060940
v -0.16319200 0.55121300 0.04081030
v -0.16319200 0.55121300 0.02631300
v -0.03595260 0.51292500 0.02631300
v 0.00755297 0.31127000 0.20925000
v -0.00001223 0.55081300 0.10201600
v 0.00014491 0.55121300 0.10241800
v -0.03352810 0.52889800 0.02631300
v -0.03325870 0.55121300 0.02631300
v -0.17504400 0.31127000 0.20070800
v -0.16999400 0.31127000 0.21080800
v -0.16999400 0.32644400 0.21080800
v -0.15279800 0.55121300 0.12241700
v -0.16299000 0.55121300 0.08201580
v -0.17084700 0.48962400 0.14281900
v -0.14958800 0.53042500 0.14962800
v -0.14253900 0.55121300 0.14294500
v -0.14267400 0.55121300 0.14269300
v -0.17084700 0.44882300 0.16319600
v 0.00755297 0.31127000 0.21158700
v 0.00018981 0.55121300 0.12302000
v -0.12348000 0.31127000 0.27045600
v -0.14958800 0.48962400 0.17000500
v -0.12920400 0.53042500 0.17000500
v -0.12213300 0.55121300 0.16332100
v -0.15809600 0.45901700 0.17339700
v -0.11730700 0.31622700 0.27540500
v 0.00524076 0.31127000 0.21854700
v 0.00018981 0.55121300 0.14281900
v -0.00394075 0.55121300 0.16319600
v -0.11647600 0.31127000 0.27706400
v -0.10424100 0.55121300 0.17872300
v -0.10464500 0.31127000 0.28299300
v -0.10879800 0.31963300 0.27879700
v -0.00030407 0.31127000 0.22965200
v -0.00510808 0.55121300 0.16616100
v -0.08120910 0.55121300 0.19156200
v -0.06120730 0.55121300 0.19399900
v -0.08423960 0.31127000 0.28299300
v -0.00526522 0.31127000 0.23955200
v -0.01020390 0.55121300 0.17339700
v -0.05503390 0.55121300 0.19246700
v -0.06892960 0.31127000 0.27789300
v -0.04082390 0.55121300 0.18784400
v -0.05411350 0.31127000 0.27231500
v -0.01819570 0.55121300 0.17922600
v -0.05595430 0.31127000 0.27354600
v -0.02041810 0.55121300 0.18068300
f 23 39 40
f 23 40 24
f 23 41 42
f 23 42 43
f 23 43 44
f 23 44 39
f 26 40 28
f 25 38 45
f 25 45 41
f 26 28 27
f 31 33 47
f 31 47 55
f 22 38 25
f 31 55 46
f 24 40 26
f 22 37 38
f 20 72 67
f 21 36 22
f 37 48 38
f 20 43 51
f 20 51 58
f 20 58 63
f 20 63 64
f 20 64 68
f 22 36 37
f 20 70 74
f 20 67 62
f 20 62 56
f 20 56 55
f 20 55 47
f 20 47 33
f 20 33 32
f 20 74 72
f 38 48 45
f 54 62 61
f 41 49 42
f 59 64 63
f 59 63 60
f 59 65 64
f 61 62 66
f 62 67 66
f 64 65 68
f 58 60 63
f 65 69 70
f 66 67 72
f 66 72 71
f 69 73 70
f 70 73 74
f 71 72 73
f 72 74 73
f 65 70 68
f 20 44 43
f 54 56 62
f 53 60 58
f 42 49 50
f 42 50 43
f 43 50 51
f 45 52 49
f 45 48 53
f 45 53 52
f 46 55 56
f 46 56 54
f 48 57 53
f 49 52 53
f 49 53 50
f 50 53 58
f 50 58 51
f 53 57 59
f 53 59 60
f 41 45 49
f 20 39 44
f 20 68 70
f 20 28 40
f 1 69 65
f 1 65 59
f 1 59 57
f 1 57 48
f 1 48 37
f 1 37 36
f 1 73 69
f 1 36 21
f 1 10 4
f 1 4 5
f 1 5 2
f 2 5 7
f 2 7 6
f 3 8 9
f 1 21 10
f 1 71 73
f 1 66 71
f 1 61 66
f 1 2 6
f 1 6 14
f 1 14 29
f 1 29 35
f 1 35 34
f 1 34 30
f 1 30 15
f 1 15 8
f 20 40 39
f 1 3 9
f 1 9 18
f 1 18 31
f 1 31 46
f 1 46 54
f 1 54 61
f 4 10 5
f 5 10 11
f 1 8 3
f 5 22 12
f 14 27 28
f 14 28 29
f 14 26 27
f 15 30 16
f 16 30 17
f 17 30 19
f 13 26 14
f 18 20 32
f 18 33 31
f 19 34 20
f 20 34 35
f 20 35 29
f 20 29 28
f 5 11 22
f 18 32 33
f 13 24 26
f 19 30 34
f 12 25 41
f 5 12 24
f 12 41 23
f 5 24 13
f 5 13 7
f 7 13 14
f 8 15 16
f 8 16 17
f 6 7 14
f 9 17 19
f 12 22 25
f 9 19 20
f 9 20 18
f 10 21 11
f 11 21 22
f 8 17 9
f 12 23 24

