o convex_0
v 0.265608 0.551236 -0.367154
v 0.285612 0.612072 -0.367154
v 0.285612 0.551236 -0.367154
v 0.204424 0.551236 -0.362261
v 0.207417 0.554268 -0.363799
v 0.316216 0.622268 -0.362122
v 0.286061 0.551236 -0.367084
v 0.112411 0.816032 -0.346815
v 0.244806 0.816032 -0.346815
v 0.112411 0.551236 -0.346815
v 0.326418 0.632464 -0.354433
v 0.316216 0.581445 -0.362122
v 0.326418 0.734463 -0.346815
v 0.336619 0.744659 -0.341712
v 0.340012 0.734463 -0.339965
v 0.326368 0.551236 -0.354363
v 0.112411 0.907645 -0.321233
v 0.255007 0.826228 -0.341712
v 0.112411 0.551236 0.0447367
v 0.326418 0.591641 -0.354433
v 0.326667 0.551236 -0.354154
v 0.285612 0.816032 -0.334024
v 0.295813 0.826228 -0.321303
v 0.316216 0.805836 -0.311098
v 0.340012 0.748032 -0.333185
v 0.346821 0.734463 -0.326405
v 0.340012 0.551236 -0.339965
v 0.340136 0.551236 -0.339755
v 0.112411 0.907948 -0.321023
v 0.183622 0.904423 -0.312776
v 0.193823 0.887443 -0.321303
v 0.234629 0.86705 -0.321303
v 0.209338 0.551236 0.166214
v 0.112411 0.679351 0.285595
v 0.255007 0.86705 -0.311098
v 0.299206 0.829639 -0.312776
v 0.319609 0.809247 -0.292366
v 0.340012 0.768425 -0.292366
v 0.346821 0.551236 -0.326405
v 0.346821 0.754817 -0.285587
v 0.367224 0.571249 -6.58977e-05
v 0.112411 0.92402 -0.297818
v 0.142816 0.924854 -0.292366
v 0.224428 0.884031 -0.312776
v 0.204025 0.912952 -0.288103
v 0.214226 0.907835 -0.290689
v 0.224029 0.551236 0.183408
v 0.224303 0.551236 0.183688
v 0.224827 0.551236 0.184177
v 0.153017 0.663052 0.290697
v 0.183622 0.666464 0.312784
v 0.112411 0.700046 0.30831
v 0.234629 0.887443 -0.300894
v 0.238022 0.890854 -0.292366
v 0.251615 0.884031 -0.278807
v 0.292396 0.843247 -0.278807
v 0.312799 0.822817 -0.278807
v 0.326418 0.79564 -0.285587
v 0.367224 0.551236 -6.58977e-05
v 0.333202 0.782032 -0.278807
v 0.306015 0.775247 0.0815714
v 0.323001 0.731052 0.0781465
v 0.326418 0.714071 0.101981
v 0.346821 0.652856 0.0815714
v 0.367099 0.551236 0.0406828
v 0.112411 0.928189 -0.290689
v 0.112411 0.932472 -0.28335
v 0.112411 0.935959 -0.27643
v 0.142816 0.931638 -0.278807
v 0.163219 0.933344 -0.267763
v 0.217619 0.911246 -0.271957
v 0.244407 0.551236 0.196409
v 0.204025 0.686856 0.333193
v 0.183622 0.693678 0.334032
v 0.112411 0.71752 0.322918
v 0.112411 0.708916 0.316139
v 0.265209 0.551236 0.203957
v 0.231237 0.904423 -0.258397
v 0.292396 0.843247 -0.17676
v 0.271993 0.843247 0.0883512
v 0.292396 0.802424 0.0883512
v 0.295813 0.785443 0.112185
v 0.306015 0.754817 0.12239
v 0.27541 0.744659 0.234571
v 0.306015 0.693678 0.183548
v 0.326418 0.632464 0.142799
v 0.346821 0.571249 0.101981
v 0.366999 0.551236 0.0411721
v 0.112411 0.938423 -0.265177
v 0.142816 0.938423 -0.265177
v 0.163219 0.938423 -0.244768
v 0.176813 0.931638 -0.251548
v 0.190431 0.924854 -0.237988
v 0.217619 0.911246 -0.231208
v 0.224428 0.696218 0.331516
v 0.214226 0.698758 0.336618
v 0.204025 0.714071 0.346753
v 0.193823 0.703875 0.34172
v 0.224428 0.666464 0.312784
v 0.112411 0.724456 0.326413
v 0.278803 0.551236 0.197178
v 0.231237 0.904423 -0.217579
v 0.251615 0.884031 -0.115602
v 0.271993 0.863639 -0.135942
v 0.251615 0.863639 0.0679419
v 0.234629 0.86705 0.091776
v 0.255007 0.84662 0.112185
v 0.214226 0.805836 0.295799
v 0.231237 0.802424 0.271965
v 0.271993 0.822817 0.12917
v 0.27541 0.826228 0.112185
v 0.292396 0.782032 0.12917
v 0.234629 0.785443 0.295799
v 0.234629 0.765013 0.316209
v 0.251615 0.741286 0.292374
v 0.265209 0.734463 0.265185
v 0.334499 0.551236 0.130428
v 0.346821 0.551236 0.101981
v 0.112411 0.938423 -0.101973
v 0.142816 0.938423 -0.122382
v 0.159827 0.93505 -0.146146
v 0.17342 0.928227 -0.132587
v 0.204025 0.918031 -0.224359
v 0.217619 0.707248 0.339973
v 0.234629 0.678365 0.316209
v 0.238022 0.686856 0.319564
v 0.231237 0.720855 0.333193
v 0.204025 0.734463 0.346753
v 0.183622 0.734463 0.346753
v 0.112411 0.757054 0.340812
v 0.286011 0.551236 0.193543
v 0.214226 0.907835 -0.132587
v 0.22782 0.90105 -0.139366
v 0.231237 0.884031 0.0271931
v 0.214226 0.887443 0.0509574
v 0.183622 0.897639 0.061162
v 0.207417 0.88062 0.0849962
v 0.193823 0.826228 0.27539
v 0.17342 0.805836 0.316209
v 0.190431 0.802424 0.312784
v 0.214226 0.785443 0.316209
v 0.231237 0.741286 0.333193
v 0.312799 0.551236 0.169988
v 0.122413 0.938423 -0.101973
v 0.112411 0.918031 0.0407527
v 0.142816 0.918031 0.0407527
v 0.204025 0.897639 0.0203434
v 0.29065 0.551236 0.189908
v 0.115629 0.768425 0.339973
v 0.210834 0.76164 0.333193
v 0.142816 0.79564 0.326413
v 0.112411 0.768425 0.339973
v 0.112411 0.764634 0.340392
v 0.17342 0.84662 0.234571
v 0.142816 0.856854 0.224367
v 0.163219 0.836424 0.265185
v 0.170028 0.822817 0.292374
v 0.136032 0.809247 0.319564
v 0.112411 0.856854 0.224367
v 0.112411 0.79564 0.326413
v 0.156435 0.829639 0.278815
v 0.112411 0.810839 0.316418
v 0.112411 0.809247 0.319564
v 0.112411 0.829639 0.278815
f 1 2 3
f 1 3 7
f 1 7 16
f 1 16 21
f 1 21 27
f 1 27 28
f 1 28 39
f 1 39 59
f 1 59 65
f 1 65 88
f 1 88 118
f 1 118 117
f 1 117 143
f 1 143 148
f 1 148 131
f 1 131 101
f 1 101 77
f 1 77 72
f 1 72 49
f 1 49 48
f 1 48 47
f 1 47 33
f 1 33 19
f 1 19 10
f 1 10 4
f 1 4 5
f 1 5 2
f 2 6 7
f 2 7 3
f 2 5 8
f 2 8 9
f 2 9 6
f 4 10 5
f 5 10 8
f 6 11 20
f 6 20 12
f 6 12 7
f 6 9 13
f 6 13 14
f 6 14 15
f 6 15 11
f 7 12 16
f 8 10 19
f 8 19 34
f 8 34 52
f 8 52 76
f 8 76 75
f 8 75 100
f 8 100 130
f 8 130 153
f 8 153 152
f 8 152 160
f 8 160 163
f 8 163 162
f 8 162 164
f 8 164 159
f 8 159 145
f 8 145 119
f 8 119 89
f 8 89 68
f 8 68 67
f 8 67 66
f 8 66 42
f 8 42 29
f 8 29 17
f 8 17 9
f 9 17 18
f 9 18 14
f 9 14 13
f 11 15 27
f 11 27 20
f 12 20 21
f 12 21 16
f 14 18 22
f 14 22 23
f 14 23 24
f 14 24 25
f 14 25 26
f 14 26 15
f 15 26 28
f 15 28 27
f 17 29 30
f 17 30 31
f 17 31 18
f 18 31 32
f 18 32 23
f 18 23 22
f 19 33 34
f 20 27 21
f 23 32 35
f 23 35 36
f 23 36 24
f 24 36 37
f 24 37 25
f 25 37 38
f 25 38 26
f 26 39 28
f 26 38 40
f 26 40 41
f 26 41 59
f 26 59 39
f 29 42 43
f 29 43 30
f 30 44 32
f 30 32 31
f 30 43 45
f 30 45 46
f 30 46 44
f 32 44 35
f 33 47 34
f 34 47 48
f 34 48 49
f 34 49 50
f 34 50 51
f 34 51 52
f 35 44 53
f 35 53 54
f 35 54 36
f 36 54 55
f 36 55 56
f 36 56 57
f 36 57 37
f 37 57 58
f 37 58 40
f 37 40 38
f 40 58 60
f 40 60 61
f 40 61 62
f 40 62 63
f 40 63 64
f 40 64 41
f 41 64 65
f 41 65 59
f 42 66 43
f 43 66 67
f 43 67 68
f 43 68 69
f 43 69 70
f 43 70 45
f 44 46 53
f 45 70 71
f 45 71 46
f 46 71 54
f 46 54 53
f 49 72 50
f 50 72 51
f 51 73 74
f 51 74 75
f 51 75 76
f 51 76 52
f 51 72 77
f 51 77 73
f 54 71 78
f 54 78 55
f 55 78 56
f 56 78 102
f 56 102 79
f 56 79 57
f 57 60 58
f 57 79 80
f 57 80 60
f 60 80 81
f 60 81 61
f 61 81 82
f 61 82 63
f 61 63 62
f 63 82 83
f 63 83 84
f 63 84 85
f 63 85 64
f 64 85 86
f 64 86 87
f 64 87 88
f 64 88 65
f 68 89 90
f 68 90 69
f 69 90 70
f 70 90 91
f 70 91 92
f 70 92 71
f 71 92 93
f 71 93 94
f 71 94 102
f 71 102 78
f 73 95 96
f 73 96 97
f 73 97 98
f 73 98 74
f 73 77 99
f 73 99 95
f 74 98 100
f 74 100 75
f 77 101 99
f 79 102 103
f 79 103 104
f 79 104 80
f 80 105 106
f 80 106 107
f 80 107 108
f 80 108 109
f 80 109 110
f 80 110 111
f 80 111 82
f 80 82 81
f 80 104 103
f 80 103 105
f 82 111 110
f 82 110 112
f 82 112 83
f 83 112 84
f 84 113 114
f 84 114 115
f 84 115 116
f 84 116 85
f 84 112 113
f 85 116 117
f 85 117 86
f 86 117 87
f 87 117 118
f 87 118 88
f 89 119 144
f 89 144 120
f 89 120 91
f 89 91 90
f 91 120 121
f 91 121 122
f 91 122 123
f 91 123 93
f 91 93 92
f 93 123 102
f 93 102 94
f 95 124 96
f 95 99 125
f 95 125 126
f 95 126 124
f 96 124 97
f 97 124 127
f 97 127 142
f 97 142 128
f 97 128 129
f 97 129 130
f 97 130 98
f 98 130 100
f 99 101 131
f 99 131 125
f 102 123 122
f 102 122 132
f 102 132 133
f 102 133 103
f 103 133 134
f 103 134 105
f 105 134 106
f 106 134 135
f 106 135 136
f 106 136 137
f 106 137 138
f 106 138 108
f 106 108 107
f 108 138 139
f 108 139 140
f 108 140 141
f 108 141 113
f 108 113 109
f 109 113 110
f 110 113 112
f 113 141 114
f 114 141 142
f 114 142 115
f 115 142 117
f 115 117 116
f 117 142 127
f 117 127 126
f 117 126 143
f 119 145 146
f 119 146 144
f 120 144 146
f 120 146 121
f 121 146 147
f 121 147 122
f 122 147 134
f 122 134 132
f 124 126 127
f 125 131 126
f 126 131 148
f 126 148 143
f 128 149 152
f 128 152 129
f 128 142 150
f 128 150 151
f 128 151 149
f 129 152 153
f 129 153 130
f 132 134 133
f 134 147 135
f 135 147 146
f 135 146 136
f 136 146 154
f 136 154 138
f 136 138 137
f 138 154 155
f 138 155 156
f 138 156 157
f 138 157 139
f 139 158 151
f 139 151 150
f 139 150 141
f 139 141 140
f 139 157 158
f 141 150 142
f 145 159 155
f 145 155 146
f 146 155 154
f 149 151 160
f 149 160 152
f 151 158 163
f 151 163 160
f 155 159 164
f 155 164 161
f 155 161 156
f 156 161 157
f 157 161 158
f 158 162 163
f 158 161 162
f 161 164 162
o convex_1
v -0.306016 -0.179614 -0.367159
v -0.319595 -0.179614 -0.360392
v -0.306016 -0.122403 -0.367159
v -0.224403 -0.179614 -0.367159
v -0.333175 -0.179614 -0.353561
v -0.319595 -0.115597 -0.360392
v -0.285579 -0.0612107 -0.367159
v -0.163159 -0.102005 -0.367159
v 0.265209 -0.179614 -0.346794
v -0.338607 -0.179614 -0.34276
v -0.333175 -0.149605 -0.353561
v -0.339965 -0.135994 -0.339963
v -0.316201 -0.096891 -0.357009
v -0.299158 -0.054405 -0.360392
v -0.285579 -0.0382663 -0.362084
v -0.244772 -1.89485e-05 -0.367159
v -0.163159 -0.0204162 -0.367159
v 0.265209 -0.0815881 -0.346794
v 0.275394 -0.0714193 -0.341719
v 0.292368 -0.179614 -0.333196
v -0.342817 -0.179614 -0.334367
v -0.346823 -0.1428 -0.326364
v -0.319595 -0.0748222 -0.339963
v -0.295763 -0.0357191 -0.357009
v -0.258352 0.00678677 -0.360392
v -0.223384 0.0236817 -0.362084
v -0.203965 -1.89485e-05 -0.367159
v 0.224403 0.0203982 -0.346794
v 0.227662 0.0236817 -0.345168
v 0.275394 -0.051022 -0.331504
v 0.280486 -0.0612107 -0.328967
v 0.292368 -0.122403 -0.333196
v 0.236896 0.0236817 -0.340548
v 0.31009 -0.179614 -0.303918
v -0.346823 -0.179614 -0.326364
v -0.346823 -0.122403 -0.265205
v -0.326385 -0.0815881 -0.326364
v -0.300856 -0.0382663 -0.346794
v -0.275394 0.015284 -0.336579
v -0.265209 0.0203982 -0.346794
v -0.254957 0.015284 -0.357009
v -0.247827 0.0236817 -0.354602
v 0.203965 0.0236817 -0.346794
v 0.224403 0.0236817 -0.345558
v 0.260932 0.0236817 -0.284464
v 0.346823 0.0236817 -0.0407379
v 0.238254 0.0236817 -0.338206
v 0.243957 0.0236817 -0.32682
v 0.306016 -0.122403 -0.306
v 0.314164 -0.179614 -0.281601
v -0.346823 -0.179614 -0.183551
v -0.346823 -0.1428 -0.203981
v -0.326385 -0.0815881 -0.203981
v -0.306016 -0.0408135 -0.203981
v -0.273764 0.0236817 -0.224411
v -0.273764 0.0236817 -0.326364
v -0.306016 -0.0408135 -0.326364
v -0.273018 0.0236817 -0.329422
v -0.264462 0.0236817 -0.343866
v -0.26229 0.0236817 -0.346078
v 0.346823 0.0236817 0.0203562
v 0.346823 -1.89485e-05 -0.0407379
v 0.326385 -0.163197 -0.142757
v 0.326385 -0.179614 -0.122392
v -0.346823 -0.163197 -0.183551
v -0.285579 -0.179614 -0.0407379
v -0.265209 0.0236817 -0.0204382
v -0.321293 -0.0714193 -0.193766
v -0.300856 -0.0306049 -0.193766
v -0.280486 0.0101896 -0.214196
v 0.346823 0.0203982 0.0203562
v 0.345872 0.0236817 0.0241299
v 0.346823 -0.0204162 -0.0204382
v 0.326385 -0.179614 -0.0164043
v -0.285579 -0.122403 -0.0407379
v -0.240494 0.0236817 0.0632978
v -0.271999 -0.179614 -0.0136066
v -0.239408 0.0236817 0.0655099
v 0.346823 -1.89485e-05 -8.4744e-06
v 0.326385 0.0203982 0.0815805
v 0.326385 -0.0408135 0.0611507
v 0.326385 -0.0815881 0.040786
v 0.326385 -0.163197 -8.4744e-06
v 0.325435 0.0236817 0.0853541
v 0.322719 -0.179614 -8.4744e-06
v -0.249593 -0.179614 0.0230238
v -0.23805 0.0236817 0.0678522
v 0.320274 0.0236817 0.0979764
v 0.319595 -0.0476192 0.0747489
v 0.319595 -0.0883938 0.0543842
v 0.319595 -0.170003 0.0135897
v 0.320614 -0.179614 0.00545682
v -0.231192 -0.179614 0.0475526
v -0.169948 0.0203982 0.149571
v -0.169948 0.0236817 0.149571
v 0.259438 0.0236817 0.208909
v 0.306016 -0.1428 0.0611507
v 0.254957 0.015284 0.214179
v 0.299158 -0.149605 0.0747489
v 0.304862 -0.179614 0.0453404
v -0.149579 -0.179614 0.129207
v -0.169948 -0.102005 0.129207
v -0.149579 -1.89485e-05 0.170001
v -0.147678 0.0236817 0.172604
v 0.248031 0.0236817 0.222767
v 0.190114 0.0236817 0.292124
v 0.278789 -0.170003 0.0951787
v 0.295763 -0.168291 0.0713656
v 0.299905 -0.179614 0.0573771
v -0.12371 -0.179614 0.150287
v -0.0440657 0.0236817 0.266815
v -0.122352 -0.0204162 0.191212
v -0.129142 -1.89485e-05 0.190366
v -0.128055 0.0236817 0.192578
v 0.178639 0.0236817 0.295898
v 0.183596 -0.179614 0.181127
v 0.193781 -0.147894 0.193749
v 0.21415 -0.147894 0.173384
v 0.269147 -0.179614 0.0999933
v 0.279807 -0.179614 0.0871108
v -0.118346 -0.179614 0.15341
v -0.101983 -0.163197 0.170847
v -0.109859 0.0236817 0.21021
v -0.108772 0.0203982 0.210796
v -0.0815454 -0.1428 0.191212
v -0.0374796 0.0236817 0.270133
v 0.157863 0.0236817 0.297394
v 0.163159 -0.170003 0.190366
v 0.189096 -0.179614 0.177809
v -0.0776073 -0.179614 0.17384
v 0.201996 -0.179614 0.167203
v 0.228409 -0.179614 0.140788
v 0.263172 -0.179614 0.105979
v -0.0713607 -0.132591 0.198889
v -0.0203694 0.0236817 0.27703
v 0.142789 0.0236817 0.297394
v 0.142789 0.0135925 0.292385
v -0.0713607 -0.173406 0.178459
f 165 166 170
f 165 170 167
f 165 167 171
f 165 171 180
f 165 180 191
f 165 191 181
f 165 181 172
f 165 172 168
f 165 168 173
f 165 173 184
f 165 184 198
f 165 198 214
f 165 214 228
f 165 228 238
f 165 238 249
f 165 249 256
f 165 256 264
f 165 264 273
f 165 273 284
f 165 284 283
f 165 283 297
f 165 297 296
f 165 296 295
f 165 295 293
f 165 293 280
f 165 280 294
f 165 294 285
f 165 285 274
f 165 274 265
f 165 265 257
f 165 257 250
f 165 250 241
f 165 241 230
f 165 230 215
f 165 215 199
f 165 199 185
f 165 185 174
f 165 174 169
f 165 169 166
f 166 169 175
f 166 175 170
f 167 170 178
f 167 178 171
f 168 172 173
f 169 174 175
f 170 175 176
f 170 176 177
f 170 177 178
f 171 178 179
f 171 179 180
f 172 181 182
f 172 182 173
f 173 182 183
f 173 183 184
f 174 185 186
f 174 186 175
f 175 186 176
f 176 186 187
f 176 187 177
f 177 187 188
f 177 188 178
f 178 188 179
f 179 188 189
f 179 189 180
f 180 189 190
f 180 190 191
f 181 191 192
f 181 192 182
f 182 192 193
f 182 193 183
f 183 194 195
f 183 195 196
f 183 196 184
f 183 193 197
f 183 197 194
f 184 196 198
f 185 199 186
f 186 199 215
f 186 215 229
f 186 229 216
f 186 216 200
f 186 200 201
f 186 201 187
f 187 201 202
f 187 202 188
f 188 202 203
f 188 203 204
f 188 204 189
f 189 204 205
f 189 205 190
f 190 205 206
f 190 206 224
f 190 224 223
f 190 223 222
f 190 222 220
f 190 220 219
f 190 219 231
f 190 231 240
f 190 240 242
f 190 242 251
f 190 251 259
f 190 259 268
f 190 268 278
f 190 278 287
f 190 287 275
f 190 275 290
f 190 290 299
f 190 299 300
f 190 300 291
f 190 291 279
f 190 279 270
f 190 270 269
f 190 269 260
f 190 260 252
f 190 252 248
f 190 248 236
f 190 236 225
f 190 225 210
f 190 210 209
f 190 209 212
f 190 212 211
f 190 211 197
f 190 197 193
f 190 193 208
f 190 208 207
f 190 207 191
f 191 207 192
f 192 207 208
f 192 208 193
f 194 209 210
f 194 210 195
f 194 197 211
f 194 211 212
f 194 212 209
f 195 210 213
f 195 213 196
f 196 213 198
f 198 213 210
f 198 210 214
f 200 216 217
f 200 217 218
f 200 218 219
f 200 219 220
f 200 220 221
f 200 221 201
f 201 221 202
f 202 221 220
f 202 220 222
f 202 222 203
f 203 222 223
f 203 223 204
f 204 223 224
f 204 224 205
f 205 224 206
f 210 225 235
f 210 235 243
f 210 243 237
f 210 237 226
f 210 226 214
f 214 226 227
f 214 227 228
f 215 230 239
f 215 239 229
f 216 229 231
f 216 231 217
f 217 231 232
f 217 232 218
f 218 232 233
f 218 233 219
f 219 233 234
f 219 234 231
f 225 236 235
f 226 237 227
f 227 237 228
f 228 237 238
f 229 239 240
f 229 240 231
f 230 241 242
f 230 242 240
f 230 240 239
f 231 234 233
f 231 233 232
f 235 236 248
f 235 248 244
f 235 244 245
f 235 245 246
f 235 246 247
f 235 247 243
f 237 243 238
f 238 243 247
f 238 247 249
f 241 250 251
f 241 251 242
f 244 248 245
f 245 248 252
f 245 252 253
f 245 253 254
f 245 254 246
f 246 254 255
f 246 255 247
f 247 255 256
f 247 256 249
f 250 257 251
f 251 257 258
f 251 258 259
f 252 260 253
f 253 261 254
f 253 260 262
f 253 262 263
f 253 263 261
f 254 261 255
f 255 261 263
f 255 263 264
f 255 264 256
f 257 265 266
f 257 266 267
f 257 267 258
f 258 267 268
f 258 268 259
f 260 269 262
f 262 269 270
f 262 270 271
f 262 271 272
f 262 272 263
f 263 272 273
f 263 273 264
f 265 274 275
f 265 275 276
f 265 276 277
f 265 277 266
f 266 277 267
f 267 277 278
f 267 278 268
f 270 279 280
f 270 280 281
f 270 281 282
f 270 282 283
f 270 283 271
f 271 283 284
f 271 284 272
f 272 284 273
f 274 285 286
f 274 286 275
f 275 287 288
f 275 288 277
f 275 277 276
f 275 286 289
f 275 289 290
f 277 288 287
f 277 287 278
f 279 291 292
f 279 292 280
f 280 293 281
f 280 292 294
f 281 293 295
f 281 295 282
f 282 295 296
f 282 296 297
f 282 297 283
f 285 294 286
f 286 294 289
f 289 294 298
f 289 298 299
f 289 299 290
f 291 300 301
f 291 301 292
f 292 301 302
f 292 302 294
f 294 302 298
f 298 302 301
f 298 301 300
f 298 300 299
o convex_2
v -0.367224 -0.285686 -0.305979
v -0.367224 -0.244832 -0.285583
v -0.367224 -0.265259 -0.305979
v -0.353576 -0.292446 -0.333193
v -0.346787 -0.4081 -0.326376
v -0.346787 -0.44888 -0.305979
v -0.346787 -0.44888 -0.265186
v -0.326417 -0.44888 -0.142804
v -0.346787 -0.244832 -0.183598
v -0.367224 -0.22448 -0.285583
v -0.326417 -0.387673 -0.122407
v -0.353576 -0.272019 -0.333193
v -0.346787 -0.179689 -0.326376
v -0.360366 -0.258426 -0.319613
v -0.333207 -0.312873 -0.35359
v -0.339997 -0.401266 -0.34001
v -0.336602 -0.438629 -0.336575
v -0.333207 -0.45564 -0.333193
v -0.316165 -0.54069 -0.316178
v -0.326417 -0.53044 -0.285583
v -0.326417 -0.469233 -0.163201
v -0.326417 -0.53044 -0.265186
v -0.321257 -0.469233 -0.140228
v -0.280518 -0.591572 -0.099434
v -0.285611 -0.57122 -0.101957
v -0.346787 -0.179689 -0.183598
v -0.2924 -0.44888 -0.0748504
v -0.31277 -0.387673 -0.0951936
v -0.2924 -0.367246 -0.0544535
v -0.285611 -0.306039 -0.0408198
v -0.326417 -0.285686 -0.122407
v -0.333207 -0.179689 -0.35359
v -0.339997 -0.179689 -0.34001
v -0.326417 -0.4081 -0.346773
v -0.322411 -0.179689 -0.359011
v -0.30598 -0.306039 -0.367224
v -0.316165 -0.479484 -0.336575
v -0.285611 -0.550867 -0.326376
v -0.275358 -0.642603 -0.295781
v -0.2924 -0.618833 -0.292399
v -0.30598 -0.591572 -0.285583
v -0.285611 -0.652779 -0.265186
v -0.30598 -0.550867 -0.163201
v -0.300888 -0.550867 -0.140228
v -0.30598 -0.591572 -0.244789
v -0.231156 -0.693633 -0.0748504
v -0.271963 -0.57122 -0.0748504
v -0.285611 -0.591572 -0.122407
v -0.244804 -0.693633 -0.101957
v -0.238014 -0.707227 -0.0951936
v -0.234551 -0.70381 -0.0867128
v -0.285611 -0.179689 -0.0408198
v -0.271963 -0.4081 -0.0340029
v -0.251594 -0.346893 0.00679088
v -0.271963 -0.306039 -0.013606
v -0.260081 -0.193876 0.0101725
v -0.30598 -0.44888 -0.346773
v -0.30598 -0.179689 -0.367224
v -0.224367 -0.204053 -0.367224
v 0.265177 -0.326466 -0.346773
v 0.224371 -0.346893 -0.346773
v -0.285611 -0.469233 -0.346773
v -0.302585 -0.46589 -0.343392
v -0.244804 -0.57122 -0.326376
v -0.203997 -0.713986 -0.285583
v -0.234551 -0.724237 -0.275384
v -0.254989 -0.70381 -0.275384
v -0.271963 -0.68004 -0.272003
v -0.285611 -0.632427 -0.203995
v -0.251594 -0.72082 -0.251606
v -0.238014 -0.748007 -0.217575
v -0.238014 -0.748007 -0.176781
v -0.244804 -0.734413 -0.183598
v -0.19035 -0.693633 -0.013606
v -0.210787 -0.673206 -0.0340029
v -0.153006 -0.826224 -0.0357206
v -0.193813 -0.724237 -0.0357206
v -0.210787 -0.632427 -0.013606
v -0.224367 -0.775193 -0.142804
v -0.219274 -0.775193 -0.119831
v -0.214182 -0.785444 -0.117254
v -0.173375 -0.805797 -0.0561175
v -0.277463 -0.179689 -0.0245559
v -0.231156 -0.367246 0.0271878
v -0.19035 -0.265259 0.0883785
v -0.210787 -0.244832 0.0679816
v -0.231156 -0.22448 0.0475847
v -0.252408 -0.183625 0.0203709
v -0.271963 -0.179689 -0.013606
v -0.224367 -0.179689 -0.367224
v 0.278757 -0.326466 -0.34001
v 0.305984 -0.367246 -0.326376
v 0.285615 -0.469233 -0.326376
v 0.265177 -0.48966 -0.326376
v 0.265177 -0.179689 -0.346773
v 0.267825 -0.179689 -0.345485
v 0.224371 -0.611999 -0.305979
v 0.183564 -0.693633 -0.285583
v -0.122384 -0.713986 -0.285583
v -0.163191 -0.775193 -0.265186
v -0.210787 -0.741247 -0.272003
v -0.193813 -0.785444 -0.254987
v -0.214182 -0.785444 -0.23459
v -0.210787 -0.80238 -0.210812
v -0.210787 -0.80238 -0.149567
v -0.217577 -0.788786 -0.135987
v -0.149543 -0.75484 0.00679088
v -0.153006 -0.846651 -0.0561175
v -0.132569 -0.867003 -0.0357206
v -0.129174 -0.8364 -0.013606
v -0.193813 -0.805797 -0.0968576
v -0.16998 -0.693633 0.00679088
v -0.16998 -0.367246 0.0883785
v -0.210787 -0.367246 0.0475847
v -0.197207 -0.809213 -0.115591
v -0.16998 -0.265259 0.108775
v -0.210787 -0.179689 0.0679816
v -0.231156 -0.179689 0.0475847
v -0.249625 -0.179689 0.0230547
v 0.292404 -0.326466 -0.333193
v 0.319564 -0.367246 -0.319613
v 0.299194 -0.469233 -0.319613
v 0.288127 -0.48966 -0.321277
v 0.285615 -0.57122 -0.305979
v 0.265177 -0.591572 -0.305979
v 0.281473 -0.179689 -0.338668
v 0.24732 -0.693633 -0.280483
v 0.122388 -0.816047 -0.244789
v -0.101947 -0.775193 -0.265186
v -0.16998 -0.80238 -0.251606
v -0.122384 -0.816047 -0.244789
v -0.193813 -0.805797 -0.23459
v -0.16998 -0.843234 -0.190361
v -0.16998 -0.843234 -0.108774
v -0.101947 -0.8364 0.0076497
v -0.132569 -0.765017 0.0152717
v -0.112199 -0.255083 0.158104
v -0.142753 -0.367246 0.109634
v -0.17677 -0.829641 -0.0951936
v -0.135964 -0.87042 -0.0544535
v -0.129174 -0.884014 -0.0680335
v -0.112199 -0.887431 -0.0357206
v -0.112199 -0.867003 -0.0153237
v -0.112199 -0.846651 -0.0051252
v -0.129174 -0.244832 0.149569
v -0.16998 -0.179689 0.108775
v 0.326421 -0.367246 -0.305979
v 0.321261 -0.377497 -0.316178
v 0.312774 -0.469233 -0.312796
v 0.319564 -0.265259 -0.319613
v 0.288127 -0.591572 -0.30088
v 0.292404 -0.179689 -0.333193
v 0.290707 -0.601823 -0.295781
v 0.2499 -0.70381 -0.275384
v 0.190354 -0.809213 -0.237972
v 0.129178 -0.829641 -0.237972
v 0.115598 -0.843234 -0.231209
v -0.108804 -0.843234 -0.231209
v -0.153006 -0.826224 -0.23459
v -0.132569 -0.867003 -0.193797
v -0.112199 -0.887431 -0.1734
v -0.129174 -0.884014 -0.149567
v -0.108804 -0.904441 -0.108774
v -0.108804 -0.904441 -0.0884304
v -0.0509554 -0.887431 0.0152717
v -0.0611401 -0.8364 0.0280466
v -0.101947 -0.775193 0.0280466
v -0.101947 -0.244832 0.163203
v -0.101947 -0.22448 0.163203
v -0.115594 -0.22448 0.156386
v -0.129174 -0.22448 0.149569
v -0.091762 -0.765017 0.0356686
v -0.0509554 -0.826224 0.0356686
v -0.0407707 -0.816047 0.0407678
v -0.115594 -0.890847 -0.0544535
v -0.091762 -0.907858 -0.0561175
v -0.0713927 -0.907858 -0.0153237
v -0.149543 -0.179689 0.129172
v 0.326421 -0.469233 -0.285583
v 0.326421 -0.265259 -0.305979
v 0.321261 -0.479484 -0.295781
v 0.313656 -0.550867 -0.285583
v 0.300892 -0.581396 -0.295781
v 0.299194 -0.57122 -0.299216
v 0.316169 -0.214229 -0.321277
v 0.321261 -0.214229 -0.316178
v 0.310058 -0.179689 -0.30394
v 0.316169 -0.193876 -0.311079
v 0.300892 -0.66303 -0.254987
v 0.27027 -0.724237 -0.254987
v 0.2499 -0.785444 -0.23459
v 0.23116 -0.748007 -0.258369
v 0.190354 -0.849993 -0.217575
v 0.108741 -0.87042 -0.217575
v 0.0951609 -0.884014 -0.210812
v -0.0271911 -0.884014 -0.210812
v -0.091762 -0.887431 -0.193797
v -0.0407707 -0.918034 -0.163201
v -0.091762 -0.907858 -0.132606
v -0.0815773 -0.918034 -0.101957
v -0.0815773 -0.918034 -0.0816136
v -0.0951569 -0.9112 -0.0748504
v -0.0407707 -0.904441 0.00679088
v -0.0102166 -0.907858 0.0152717
v -0.0204013 -0.877254 0.0280466
v -0.0102166 -0.867003 0.0356686
v -0.030586 -0.846651 0.0356686
v -3.19486e-05 -0.856827 0.0407678
v -0.091762 -0.275436 0.158104
v 0.173379 -0.193876 0.178501
v 0.183564 -0.179689 0.181131
v -0.0775714 -0.179689 0.173831
v -0.0855833 -0.179689 0.169859
v -0.118378 -0.179689 0.153434
v -0.123674 -0.179689 0.150267
v -0.0747875 -0.9112 -0.0340029
v -0.0611401 -0.912909 -0.0179001
v 0.326421 -0.53044 -0.265186
v 0.326421 -0.204053 -0.285583
v 0.321261 -0.54069 -0.275384
v 0.313656 -0.591572 -0.265186
v 0.321261 -0.204053 -0.308556
v 0.3142 -0.179689 -0.281611
v 0.319564 -0.190459 -0.292399
v 0.321261 -0.581396 -0.254987
v 0.326421 -0.57122 -0.244789
v 0.300892 -0.683383 -0.23459
v 0.293219 -0.693633 -0.244789
v 0.27285 -0.75484 -0.224392
v 0.260085 -0.785444 -0.214193
v 0.251598 -0.80238 -0.203995
v 0.210791 -0.843234 -0.203995
v 0.206513 -0.8364 -0.219293
v 0.23116 -0.788786 -0.237972
v 0.198909 -0.846651 -0.214193
v 0.188656 -0.867003 -0.193797
v 0.14785 -0.887431 -0.193797
v 0.129178 -0.890847 -0.197178
v 0.0951609 -0.904441 -0.190361
v -0.0271911 -0.904441 -0.190361
v 0.0135476 -0.924793 -0.169964
v 0.0203374 -0.938387 -0.142804
v -0.0204013 -0.938387 -0.122407
v -0.0611401 -0.918034 -0.0408198
v -0.0204013 -0.938387 -0.0612167
v -0.0339809 -0.931627 -0.0544535
v -0.0204013 -0.912909 0.00249679
v 0.0611441 -0.897607 0.0203709
v 0.0407747 -0.884014 0.0271878
v -3.19486e-05 -0.884014 0.0271878
v -3.19486e-05 -0.9112 0.0135541
v 0.0611441 -0.9112 0.0135541
v 0.0407747 -0.856827 0.0407678
v 0.197211 -0.251666 0.156386
v 0.193749 -0.188751 0.173401
v 0.189064 -0.179689 0.177803
v 0.0815813 -0.8364 0.0407678
v 0.101951 -0.839 0.0356686
v 0.122388 -0.818573 0.0356686
v 0.183564 -0.4081 0.122355
v 0.197211 -0.41486 0.115592
v -0.0204013 -0.933336 -0.038297
v 0.326421 -0.179689 -0.122407
v 0.305984 -0.673206 -0.224392
v 0.326421 -0.550867 -0.203995
v 0.305984 -0.673206 -0.163201
v 0.285615 -0.734413 -0.203995
v 0.280454 -0.74459 -0.214193
v 0.280454 -0.765017 -0.153003
v 0.260085 -0.805797 -0.153003
v 0.252412 -0.816047 -0.163201
v 0.23116 -0.843234 -0.163201
v 0.210791 -0.863587 -0.163201
v 0.168287 -0.887431 -0.1734
v 0.12748 -0.907858 -0.1734
v 0.108741 -0.9112 -0.176781
v 0.0475645 -0.931627 -0.156384
v 0.0339849 -0.924793 -0.169964
v 0.0271951 -0.931627 -0.156384
v 0.0407747 -0.938387 -0.142804
v -3.19486e-05 -0.938387 -0.0408198
v -3.19486e-05 -0.918034 -2.59826e-05
v 0.0815813 -0.900207 0.0152717
v 0.0713967 -0.912909 0.0101725
v 0.217581 -0.272019 0.135989
v 0.210791 -0.238073 0.149569
v 0.217581 -0.353653 0.115592
v 0.201964 -0.179689 0.167175
v 0.101951 -0.877254 0.0203709
v 0.115598 -0.884014 0.0135541
v 0.132573 -0.821098 0.0305694
v 0.23116 -0.34006 0.108775
v 0.173379 -0.739539 0.0305694
v 0.193749 -0.698684 0.0305694
v 0.197211 -0.68004 0.033951
v 0.214186 -0.719112 0.0101725
v 0.217581 -0.700393 0.0135541
v 0.23116 -0.6868 0.00679088
v -3.19486e-05 -0.931627 -0.0272397
v 0.326421 -0.179689 -0.0164509
v 0.285615 -0.75484 -0.142804
v 0.326421 -0.53044 -0.183598
v 0.285615 -0.734413 -0.122407
v 0.326421 -0.244832 -0.0408198
v 0.305984 -0.285686 0.0203709
v 0.251598 -0.822807 -0.142804
v 0.169984 -0.904441 -0.122407
v 0.14785 -0.907858 -0.153003
v 0.145337 -0.912909 -0.142804
v 0.1249 -0.912909 -0.163201
v 0.101951 -0.918034 -0.163201
v 0.0883711 -0.931627 -0.135987
v 0.0815813 -0.938387 -0.122407
v 0.0611441 -0.938387 -0.0408198
v 0.0713967 -0.933336 -0.0306213
v 0.0611441 -0.918034 -2.59826e-05
v 0.101951 -0.904441 0.00679088
v 0.112203 -0.892556 0.0101725
v 0.112203 -0.912909 -0.0102244
v 0.0815813 -0.925685 -0.0204229
v 0.251598 -0.34006 0.0883785
v 0.23116 -0.238073 0.129172
v 0.263208 -0.179689 0.105984
v 0.222402 -0.179689 0.146778
v 0.208007 -0.179689 0.161163
v 0.173379 -0.861952 -0.0102244
v 0.15301 -0.841525 0.0101725
v 0.214186 -0.841525 -0.0306213
v 0.217581 -0.822807 -0.0272397
v 0.23795 -0.700393 -0.00684284
v 0.258388 -0.353653 0.0747984
v 0.322755 -0.179689 -2.59826e-05
v 0.280454 -0.757366 -0.122407
v 0.260085 -0.798146 -0.0816136
v 0.265177 -0.79562 -0.101957
v 0.251598 -0.822807 -0.101957
v 0.265177 -0.775193 -0.0816136
v 0.305984 -0.204053 0.0407678
v 0.299194 -0.210886 0.0544015
v 0.299194 -0.292446 0.033951
v 0.258388 -0.782027 -0.0680335
v 0.169984 -0.904441 -0.0612167
v 0.112203 -0.933336 -0.0714151
v 0.115598 -0.931627 -0.101957
v 0.142757 -0.918034 -0.122407
v 0.104531 -0.933336 -0.122407
v 0.101951 -0.938387 -0.101957
v 0.0815813 -0.938387 -0.0612167
v 0.132573 -0.902732 -0.0102244
v 0.15301 -0.912909 -0.0510182
v 0.15301 -0.902732 -0.0306213
v 0.292404 -0.278853 0.0475847
v 0.278757 -0.251666 0.0747984
v 0.275362 -0.188751 0.0917601
v 0.269183 -0.179689 0.0999725
v 0.210791 -0.863587 -0.0612167
v 0.254993 -0.800745 -0.0714151
v 0.320582 -0.179689 0.00550265
v 0.23116 -0.843234 -0.0816136
v 0.30483 -0.179689 0.0453303
v 0.299941 -0.179689 0.0573537
v 0.292404 -0.197219 0.0679816
v 0.101951 -0.938387 -0.0816136
v 0.279775 -0.179689 0.0870902
f 303 304 312
f 303 312 305
f 303 305 314
f 303 314 306
f 303 306 307
f 303 307 308
f 303 308 309
f 303 309 310
f 303 310 304
f 304 311 328
f 304 328 312
f 304 310 313
f 304 313 311
f 305 312 315
f 305 315 316
f 305 316 314
f 306 314 334
f 306 334 317
f 306 317 318
f 306 318 307
f 307 318 319
f 307 319 308
f 308 319 320
f 308 320 321
f 308 321 322
f 308 322 324
f 308 324 309
f 309 323 310
f 309 324 323
f 310 323 325
f 310 325 326
f 310 326 327
f 310 327 313
f 311 313 333
f 311 333 328
f 312 328 315
f 313 329 330
f 313 330 331
f 313 331 332
f 313 332 354
f 313 354 333
f 313 327 329
f 314 316 334
f 315 328 354
f 315 354 385
f 315 385 391
f 315 391 421
f 315 421 420
f 315 420 419
f 315 419 448
f 315 448 480
f 315 480 517
f 315 517 516
f 315 516 515
f 315 515 514
f 315 514 513
f 315 513 558
f 315 558 590
f 315 590 627
f 315 627 626
f 315 626 625
f 315 625 657
f 315 657 666
f 315 666 663
f 315 663 662
f 315 662 660
f 315 660 634
f 315 634 602
f 315 602 565
f 315 565 525
f 315 525 489
f 315 489 454
f 315 454 428
f 315 428 398
f 315 398 397
f 315 397 392
f 315 392 360
f 315 360 337
f 315 337 334
f 315 334 335
f 315 335 316
f 316 335 334
f 317 336 318
f 317 334 337
f 317 337 338
f 317 338 336
f 318 336 319
f 319 336 339
f 319 339 320
f 320 339 321
f 321 340 341
f 321 341 342
f 321 342 343
f 321 343 322
f 321 339 340
f 322 343 344
f 322 344 324
f 323 324 345
f 323 345 346
f 323 346 325
f 324 344 347
f 324 347 345
f 325 346 326
f 326 348 349
f 326 349 327
f 326 346 345
f 326 345 350
f 326 350 351
f 326 351 352
f 326 352 353
f 326 353 348
f 327 349 329
f 328 333 354
f 329 355 331
f 329 331 330
f 329 349 355
f 331 355 356
f 331 356 357
f 331 357 332
f 332 357 358
f 332 358 354
f 336 359 339
f 336 338 359
f 337 360 338
f 338 360 392
f 338 392 361
f 338 361 362
f 338 362 363
f 338 363 364
f 338 364 359
f 339 359 365
f 339 365 340
f 340 366 367
f 340 367 368
f 340 368 341
f 340 365 364
f 340 364 366
f 341 368 369
f 341 369 342
f 342 369 370
f 342 370 344
f 342 344 343
f 344 371 347
f 344 370 372
f 344 372 373
f 344 373 374
f 344 374 375
f 344 375 371
f 345 347 371
f 345 371 350
f 348 376 377
f 348 377 349
f 348 353 378
f 348 378 379
f 348 379 376
f 349 377 380
f 349 380 355
f 350 371 381
f 350 381 351
f 351 381 382
f 351 382 352
f 352 382 383
f 352 383 384
f 352 384 378
f 352 378 353
f 354 358 385
f 355 380 356
f 356 380 386
f 356 386 387
f 356 387 388
f 356 388 389
f 356 389 357
f 357 389 358
f 358 390 391
f 358 391 385
f 358 389 390
f 359 364 365
f 361 392 397
f 361 397 362
f 362 393 423
f 362 423 394
f 362 394 395
f 362 395 396
f 362 396 363
f 362 397 398
f 362 398 393
f 363 396 364
f 364 396 399
f 364 399 366
f 366 399 400
f 366 400 401
f 366 401 367
f 367 401 431
f 367 431 402
f 367 402 403
f 367 403 368
f 368 403 404
f 368 404 369
f 369 404 405
f 369 405 372
f 369 372 370
f 371 375 381
f 372 405 406
f 372 406 373
f 373 406 407
f 373 407 374
f 374 407 408
f 374 408 381
f 374 381 375
f 376 380 377
f 376 379 378
f 376 378 409
f 376 409 414
f 376 414 380
f 378 410 411
f 378 411 412
f 378 412 409
f 378 384 383
f 378 383 413
f 378 413 410
f 380 414 415
f 380 415 416
f 380 416 386
f 381 408 382
f 382 408 383
f 383 408 417
f 383 417 410
f 383 410 413
f 386 416 418
f 386 418 387
f 387 418 388
f 388 418 447
f 388 447 473
f 388 473 448
f 388 448 419
f 388 419 420
f 388 420 389
f 389 420 390
f 390 420 421
f 390 421 391
f 393 422 423
f 393 398 428
f 393 428 422
f 394 423 424
f 394 424 395
f 395 424 425
f 395 425 426
f 395 426 396
f 396 426 427
f 396 427 399
f 399 427 429
f 399 429 400
f 400 429 430
f 400 430 431
f 400 431 401
f 402 432 403
f 402 431 430
f 402 430 433
f 402 433 432
f 403 432 404
f 404 432 434
f 404 434 405
f 405 434 406
f 406 434 435
f 406 435 436
f 406 436 407
f 407 436 417
f 407 417 408
f 409 412 437
f 409 437 438
f 409 438 439
f 409 439 440
f 409 440 414
f 410 441 442
f 410 442 411
f 410 417 441
f 411 442 443
f 411 443 444
f 411 444 445
f 411 445 412
f 412 445 446
f 412 446 437
f 414 440 415
f 415 440 447
f 415 447 418
f 415 418 416
f 417 436 441
f 422 428 423
f 423 449 450
f 423 450 451
f 423 451 424
f 423 428 452
f 423 452 482
f 423 482 449
f 424 451 425
f 425 451 453
f 425 453 426
f 426 453 427
f 427 453 429
f 428 454 452
f 429 455 456
f 429 456 457
f 429 457 458
f 429 458 430
f 429 453 455
f 430 458 459
f 430 459 460
f 430 460 433
f 432 433 460
f 432 460 461
f 432 461 434
f 434 461 499
f 434 499 462
f 434 462 435
f 435 462 463
f 435 463 464
f 435 464 465
f 435 465 466
f 435 466 436
f 436 466 443
f 436 443 442
f 436 442 441
f 437 446 445
f 437 445 467
f 437 467 468
f 437 468 469
f 437 469 438
f 438 469 439
f 439 470 471
f 439 471 472
f 439 472 473
f 439 473 447
f 439 447 440
f 439 469 474
f 439 474 475
f 439 475 476
f 439 476 470
f 443 466 477
f 443 477 444
f 444 477 478
f 444 478 479
f 444 479 445
f 445 479 467
f 448 473 480
f 449 481 483
f 449 483 450
f 449 482 521
f 449 521 565
f 449 565 602
f 449 602 606
f 449 606 604
f 449 604 567
f 449 567 528
f 449 528 520
f 449 520 481
f 450 483 451
f 451 483 484
f 451 484 485
f 451 485 486
f 451 486 453
f 452 454 487
f 452 487 488
f 452 488 482
f 453 486 485
f 453 485 455
f 454 489 490
f 454 490 488
f 454 488 487
f 455 485 491
f 455 491 492
f 455 492 456
f 456 492 493
f 456 493 494
f 456 494 457
f 457 494 536
f 457 536 495
f 457 495 458
f 458 495 496
f 458 496 497
f 458 497 459
f 459 497 498
f 459 498 460
f 460 498 499
f 460 499 461
f 462 499 463
f 463 499 500
f 463 500 501
f 463 501 465
f 463 465 464
f 465 501 502
f 465 502 503
f 465 503 466
f 466 503 504
f 466 504 477
f 467 479 505
f 467 505 506
f 467 506 507
f 467 507 508
f 467 508 509
f 467 509 475
f 467 475 468
f 468 475 474
f 468 474 469
f 470 476 510
f 470 510 511
f 470 511 512
f 470 512 513
f 470 513 514
f 470 514 471
f 471 514 515
f 471 515 472
f 472 515 516
f 472 516 473
f 473 516 517
f 473 517 480
f 475 509 476
f 476 509 510
f 477 504 478
f 478 504 518
f 478 518 479
f 479 518 519
f 479 519 505
f 481 520 522
f 481 522 483
f 482 488 521
f 483 522 484
f 484 522 527
f 484 527 523
f 484 523 491
f 484 491 485
f 488 490 524
f 488 524 521
f 489 525 526
f 489 526 490
f 490 526 524
f 491 523 527
f 491 527 528
f 491 528 529
f 491 529 530
f 491 530 492
f 492 530 531
f 492 531 493
f 493 531 532
f 493 532 533
f 493 533 534
f 493 534 535
f 493 535 495
f 493 495 536
f 493 536 494
f 495 535 537
f 495 537 538
f 495 538 539
f 495 539 540
f 495 540 497
f 495 497 496
f 497 540 541
f 497 541 542
f 497 542 498
f 498 542 499
f 499 542 500
f 500 543 544
f 500 544 545
f 500 545 501
f 500 542 543
f 501 545 502
f 502 545 547
f 502 547 503
f 503 546 518
f 503 518 504
f 503 547 548
f 503 548 546
f 505 519 549
f 505 549 506
f 506 550 551
f 506 551 552
f 506 552 510
f 506 510 508
f 506 508 507
f 506 549 553
f 506 553 554
f 506 554 550
f 508 510 509
f 510 552 551
f 510 551 555
f 510 555 512
f 510 512 511
f 512 555 513
f 513 556 557
f 513 557 558
f 513 555 559
f 513 559 560
f 513 560 561
f 513 561 562
f 513 562 563
f 513 563 556
f 518 546 564
f 518 564 519
f 519 564 549
f 520 528 522
f 521 524 526
f 521 526 565
f 522 528 527
f 525 565 526
f 528 566 529
f 528 567 568
f 528 568 566
f 529 566 569
f 529 569 570
f 529 570 531
f 529 531 530
f 531 570 532
f 532 571 572
f 532 572 573
f 532 573 533
f 532 570 571
f 533 573 574
f 533 574 534
f 534 574 575
f 534 575 538
f 534 538 537
f 534 537 535
f 538 575 576
f 538 576 577
f 538 577 539
f 539 577 540
f 540 577 578
f 540 578 541
f 541 578 579
f 541 579 580
f 541 580 543
f 541 543 542
f 543 580 579
f 543 579 581
f 543 581 544
f 544 581 579
f 544 579 582
f 544 582 615
f 544 615 649
f 544 649 665
f 544 665 650
f 544 650 616
f 544 616 583
f 544 583 547
f 544 547 545
f 546 548 564
f 547 583 564
f 547 564 548
f 549 584 553
f 549 564 584
f 550 554 585
f 550 585 555
f 550 555 551
f 553 584 586
f 553 586 554
f 554 586 585
f 555 585 560
f 555 560 559
f 556 587 588
f 556 588 557
f 556 563 589
f 556 589 587
f 557 590 558
f 557 588 590
f 560 585 591
f 560 591 592
f 560 592 561
f 561 592 593
f 561 593 563
f 561 563 562
f 563 594 589
f 563 593 595
f 563 595 596
f 563 596 597
f 563 597 598
f 563 598 599
f 563 599 600
f 563 600 594
f 564 583 601
f 564 601 584
f 566 603 569
f 566 568 603
f 567 604 568
f 568 605 603
f 568 604 606
f 568 606 607
f 568 607 605
f 569 603 571
f 569 571 570
f 571 603 572
f 572 603 608
f 572 608 573
f 573 608 574
f 574 608 609
f 574 609 575
f 575 609 576
f 576 609 610
f 576 610 577
f 577 610 611
f 577 611 612
f 577 612 578
f 578 612 613
f 578 613 579
f 579 614 615
f 579 615 582
f 579 613 614
f 583 616 617
f 583 617 601
f 584 618 586
f 584 601 617
f 584 617 618
f 585 619 620
f 585 620 592
f 585 592 591
f 585 586 619
f 586 621 619
f 586 618 617
f 586 617 622
f 586 622 621
f 587 589 594
f 587 594 623
f 587 623 588
f 588 623 624
f 588 624 625
f 588 625 626
f 588 626 627
f 588 627 590
f 592 620 628
f 592 628 629
f 592 629 593
f 593 629 595
f 594 600 623
f 595 629 598
f 595 598 596
f 596 598 597
f 598 629 630
f 598 630 600
f 598 600 599
f 600 630 631
f 600 631 632
f 600 632 633
f 600 633 623
f 602 634 606
f 603 605 635
f 603 635 636
f 603 636 637
f 603 637 638
f 603 638 608
f 605 639 636
f 605 636 635
f 605 607 639
f 606 634 607
f 607 634 640
f 607 640 641
f 607 641 642
f 607 642 643
f 607 643 639
f 608 638 644
f 608 644 609
f 609 644 645
f 609 645 646
f 609 646 647
f 609 647 611
f 609 611 610
f 611 647 648
f 611 648 612
f 612 648 613
f 613 648 614
f 614 648 615
f 615 648 649
f 616 650 617
f 617 650 645
f 617 645 652
f 617 652 621
f 617 621 622
f 619 651 620
f 619 621 651
f 620 651 628
f 621 652 653
f 621 653 651
f 623 633 654
f 623 654 655
f 623 655 656
f 623 656 624
f 624 656 657
f 624 657 625
f 628 630 629
f 628 651 653
f 628 653 630
f 630 653 644
f 630 644 658
f 630 658 638
f 630 638 659
f 630 659 643
f 630 643 631
f 631 643 632
f 632 643 642
f 632 642 633
f 633 642 654
f 634 660 640
f 636 639 643
f 636 643 659
f 636 659 638
f 636 638 637
f 638 658 661
f 638 661 644
f 640 660 662
f 640 662 663
f 640 663 641
f 641 663 664
f 641 664 654
f 641 654 642
f 644 653 652
f 644 652 645
f 644 661 658
f 645 650 665
f 645 665 649
f 645 649 646
f 646 649 647
f 647 649 648
f 654 664 655
f 655 664 656
f 656 664 666
f 656 666 657
f 663 666 664
o convex_3
v 0.0815936 0.754829 0.346795
v 0.112411 0.757062 0.340847
v 0.112411 0.764634 0.3404
v 0.112411 0.768437 0.340009
v 0.112411 0.774822 0.336825
v 0.0611833 0.754829 0.346795
v 0.0815936 0.734418 0.346795
v 0.112411 0.724474 0.326409
v 0.0611833 0.693664 0.346795
v 0.0747991 0.68686 0.340009
v 0.0714019 0.668158 0.336602
v 0.0543889 0.768437 0.340009
v 0.112411 0.80605 0.321215
v 0.0382387 0.754829 0.341712
v 0.0203899 0.714076 0.346795
v 0.112411 0.71753 0.322947
v 0.0408001 0.673252 0.346795
v 0.0611833 0.670705 0.341712
v 0.0917852 0.668158 0.316217
v 0.0509917 0.65797 0.336602
v 0.0611833 0.645199 0.305996
v 0.0815936 0.645199 0.285611
v 0.0679778 0.782045 0.333195
v 0.0339787 0.788849 0.319596
v 0.0356773 0.765018 0.336602
v 0.0951824 0.809226 0.319596
v 0.112411 0.809226 0.319596
v 0.0152941 0.744641 0.336602
v 0.0178285 0.734418 0.341712
v 0.00677409 0.714076 0.340009
v 0.0101983 0.703853 0.341712
v 0.0305815 0.663064 0.341712
v 0.112411 0.708947 0.316133
v 0.0408001 0.659645 0.340009
v 0.0917852 0.65797 0.295804
v 0.112411 0.679359 0.285611
v 0.112411 0.700049 0.30837
v -0.061197 0.551236 0.194018
v -0.0550227 0.551236 0.192482
v -0.0407868 0.551236 0.187874
v -0.0204036 0.551236 0.180697
v -0.0181927 0.551236 0.179273
v -0.0102119 0.551236 0.173437
v 0.088388 0.646072 0.265198
v -0.00511613 0.551236 0.166176
v -0.00392981 0.551236 0.163216
v 0.0254857 0.785429 0.316217
v 0.0178285 0.775241 0.321299
v 0.0764977 0.805841 0.316217
v 0.0356773 0.805841 0.295804
v 0.112411 0.810831 0.316412
v 0.0747991 0.829637 0.278798
v 0.00507549 0.765018 0.316217
v 0.00507549 0.724264 0.336602
v -0.142541 0.551236 0.142943
v -0.122131 0.551236 0.163356
v 0.0135955 0.673252 0.333195
v -0.104228 0.551236 0.178771
v -0.0812028 0.551236 0.191588
v 0.108798 0.666449 0.265198
v 0.112411 0.670287 0.265198
v 0.112411 0.653539 0.0615698
v 0.112411 0.668263 0.244813
v 0.000195374 0.551236 0.142831
v 0.0135955 0.782045 0.305996
v 0.0560875 0.826253 0.275391
v 0.0356773 0.826253 0.255005
v -0.027198 0.843245 0.122418
v 0.112411 0.831242 0.275614
v 0.0747991 0.850049 0.237999
v -0.0561012 0.826253 0.0918125
v -0.00765056 0.754829 0.305996
v -0.152787 0.551236 0.122418
v -0.121808 0.551236 0.163635
v 0.112411 0.907655 0.0615698
v 0.000195374 0.551236 0.123032
v 0.000141452 0.551236 0.102424
v -0.0124767 0.551236 0.0616256
v -0.0125037 0.551236 0.0615698
v 0.0382387 0.831347 0.244813
v 0.0177476 0.892373 0.0615698
v 0.0152941 0.887453 0.0714273
v -0.00681474 0.850049 0.136018
v -0.0153078 0.846629 0.132611
v -0.0267936 0.863761 0.0615698
v -0.0270632 0.863517 0.0615698
v 0.112411 0.856853 0.2244
v 0.0815936 0.856853 0.2244
v 0.0382387 0.892547 0.0816199
v 0.018179 0.892547 0.0615698
v -0.0474464 0.84321 0.0615698
v -0.109216 0.755178 0.0615698
v -0.109648 0.734418 0.102033
v -0.0892375 0.754829 0.122418
v -0.0764845 0.703853 0.193822
v -0.137688 0.683476 0.0714273
v -0.142622 0.673601 0.0615698
v -0.163005 0.551236 0.0820108
v -0.117305 0.724264 0.0918125
v 0.0819171 0.907655 0.0615698
v -0.163032 0.551236 0.0615698
v 0.0611833 0.897641 0.0816199
v -0.129923 0.714076 0.0615698
v -0.150414 0.631452 0.0615698
f 667 668 669
f 667 669 670
f 667 670 671
f 667 671 672
f 667 672 681
f 667 681 683
f 667 683 675
f 667 675 673
f 667 673 668
f 668 674 682
f 668 682 699
f 668 699 703
f 668 703 702
f 668 702 727
f 668 727 729
f 668 729 728
f 668 728 741
f 668 741 753
f 668 753 735
f 668 735 717
f 668 717 693
f 668 693 679
f 668 679 671
f 668 671 670
f 668 670 669
f 668 673 675
f 668 675 676
f 668 676 677
f 668 677 674
f 671 678 672
f 671 679 678
f 672 678 680
f 672 680 681
f 674 677 682
f 675 683 684
f 675 684 676
f 676 684 677
f 677 685 682
f 677 684 686
f 677 686 687
f 677 687 688
f 677 688 685
f 678 689 690
f 678 690 691
f 678 691 680
f 678 679 692
f 678 692 689
f 679 693 692
f 680 694 695
f 680 695 681
f 680 691 694
f 681 695 696
f 681 696 697
f 681 697 698
f 681 698 683
f 682 685 699
f 683 698 700
f 683 700 684
f 684 700 686
f 685 688 701
f 685 701 702
f 685 702 703
f 685 703 699
f 686 700 704
f 686 704 705
f 686 705 706
f 686 706 707
f 686 707 687
f 687 707 708
f 687 708 709
f 687 709 688
f 688 710 701
f 688 709 711
f 688 711 712
f 688 712 710
f 689 692 690
f 690 713 714
f 690 714 691
f 690 692 715
f 690 715 716
f 690 716 713
f 691 714 694
f 692 693 717
f 692 717 718
f 692 718 715
f 694 714 719
f 694 719 720
f 694 720 695
f 695 720 696
f 696 720 721
f 696 721 697
f 697 721 722
f 697 722 723
f 697 723 698
f 698 723 724
f 698 724 725
f 698 725 700
f 700 725 704
f 701 710 726
f 701 726 727
f 701 727 702
f 704 725 724
f 704 724 740
f 704 740 722
f 704 722 721
f 704 721 739
f 704 739 764
f 704 764 767
f 704 767 745
f 704 745 744
f 704 744 743
f 704 743 742
f 704 742 730
f 704 730 712
f 704 712 711
f 704 711 709
f 704 709 708
f 704 708 707
f 704 707 706
f 704 706 705
f 710 728 729
f 710 729 726
f 710 712 730
f 710 730 728
f 713 731 714
f 713 716 731
f 714 731 719
f 715 718 732
f 715 732 716
f 716 732 733
f 716 733 734
f 716 734 731
f 717 735 736
f 717 736 718
f 718 736 732
f 719 731 737
f 719 737 738
f 719 738 720
f 720 738 721
f 721 738 739
f 722 740 723
f 723 740 724
f 726 729 727
f 728 730 742
f 728 742 743
f 728 743 744
f 728 744 745
f 728 745 767
f 728 767 770
f 728 770 763
f 728 763 769
f 728 769 758
f 728 758 757
f 728 757 752
f 728 752 751
f 728 751 747
f 728 747 756
f 728 756 766
f 728 766 741
f 731 734 737
f 732 736 733
f 733 746 747
f 733 747 748
f 733 748 749
f 733 749 750
f 733 750 734
f 733 736 746
f 734 750 748
f 734 748 747
f 734 747 751
f 734 751 752
f 734 752 737
f 735 753 754
f 735 754 736
f 736 754 755
f 736 755 756
f 736 756 747
f 736 747 746
f 737 752 757
f 737 757 758
f 737 758 759
f 737 759 760
f 737 760 738
f 738 760 759
f 738 759 761
f 738 761 739
f 739 762 763
f 739 763 764
f 739 761 765
f 739 765 762
f 741 766 754
f 741 754 753
f 748 750 749
f 754 766 768
f 754 768 755
f 755 768 766
f 755 766 756
f 758 769 765
f 758 765 759
f 759 765 761
f 762 765 769
f 762 769 763
f 763 770 764
f 764 770 767
o convex_4
v -0.158173 0.551236 -0.360838
v -0.183602 0.612072 -0.346821
v -0.153 0.561053 -0.362124
v 0.112411 0.551236 -0.346821
v -0.197199 0.551236 -0.34002
v -0.197199 0.618856 -0.34002
v -0.16319 0.693678 -0.346821
v -0.142779 0.754817 -0.346821
v -0.122398 0.775247 -0.346821
v -0.101987 0.79564 -0.346821
v -0.0408144 0.836424 -0.346821
v 0.112411 0.816032 -0.346821
v 0.112411 0.551236 0.0447048
v -0.204013 0.551236 -0.326417
v -0.204013 0.612072 -0.326417
v -0.198903 0.635003 -0.326417
v -0.176788 0.700463 -0.34002
v -0.156407 0.76164 -0.34002
v -0.142779 0.777787 -0.34172
v -0.122398 0.798179 -0.34172
v -0.101987 0.818571 -0.34172
v -0.0917966 0.826228 -0.34172
v -0.0408144 0.863639 -0.333218
v 0.0203891 0.897639 -0.326417
v 0.102004 0.897639 -0.326417
v 0.112194 0.907835 -0.321316
v 0.112411 0.907645 -0.321233
v 0.112411 0.632464 0.0611686
v -0.0125047 0.551236 0.0615419
v -0.204013 0.551236 -0.203995
v -0.204013 0.632464 -0.306014
v -0.178491 0.71661 -0.326417
v -0.173381 0.71915 -0.336619
v -0.153 0.780326 -0.336619
v -0.112177 0.821149 -0.336619
v -0.0611949 0.884031 -0.312815
v 0.0203891 0.911246 -0.319616
v 0.0101988 0.912952 -0.316215
v 0.102004 0.911246 -0.319616
v 0.112411 0.907948 -0.321026
v 0.0815925 0.924854 -0.312815
v 0.112411 0.92402 -0.297802
v 0.112411 0.653538 0.0615419
v -0.163004 0.551236 0.0615419
v -0.203858 0.551236 -0.183592
v -0.204013 0.591641 -0.203995
v -0.204013 0.632464 -0.224399
v -0.198903 0.663052 -0.234601
v -0.183602 0.714071 -0.306014
v -0.15808 0.777787 -0.326417
v -0.149593 0.802424 -0.306014
v -0.132589 0.821149 -0.316215
v -0.112177 0.841541 -0.316215
v -0.0764957 0.879786 -0.306014
v -0.0713851 0.892522 -0.295812
v -0.0306241 0.912952 -0.295812
v 0.0509908 0.933344 -0.295812
v 0.0815925 0.938423 -0.28561
v 0.102004 0.933344 -0.28814
v 0.112411 0.928189 -0.290752
v 0.112411 0.907683 0.0615419
v -0.150398 0.63144 0.0615419
v -0.15808 0.622268 0.0509668
v -0.16319 0.612072 0.040765
v -0.183385 0.551236 -0.0404347
v -0.183447 0.551236 -0.040808
v -0.16319 0.652856 0.0203614
v -0.16319 0.693678 -0.040808
v -0.178491 0.744659 -0.234601
v -0.16319 0.775247 -0.306014
v -0.156407 0.788817 -0.306014
v -0.129182 0.843247 -0.28561
v -0.0883895 0.884031 -0.265206
v -0.0747922 0.890854 -0.28561
v 0.0101988 0.933344 -0.255005
v -0.0306241 0.912952 -0.17339
v -0.00680557 0.924854 -0.244803
v 0.0611811 0.938423 -0.28561
v 0.112411 0.938423 -0.265206
v 0.112411 0.935959 -0.276445
v 0.112411 0.932472 -0.283371
v 0.0819333 0.907683 0.0615419
v 0.112411 0.908062 0.0607954
v -0.150429 0.632464 0.0611686
v -0.142624 0.673589 0.0615419
v -0.15808 0.663052 0.0305632
v -0.15808 0.703875 -0.0306062
v -0.15808 0.785443 -0.234601
v -0.156407 0.788817 -0.244803
v -0.135996 0.829639 -0.28561
v -0.137699 0.744659 -0.0102026
v -0.108801 0.863639 -0.265206
v -0.137699 0.826228 -0.275408
v -0.149593 0.802424 -0.244803
v -0.117288 0.84662 -0.193794
v -0.109637 0.856854 -0.183592
v -0.0747922 0.890854 -0.265206
v -0.0952037 0.870424 -0.183592
v -0.0475975 0.904423 -0.163188
v -0.0340312 0.911246 -0.163188
v 0.0408006 0.938423 -0.224399
v 0.0101988 0.933344 -0.152986
v 0.112411 0.938423 -0.102019
v 0.018159 0.892522 0.0615419
v 0.0815925 0.918031 0.040765
v 0.0747784 0.911246 0.0543674
v 0.112411 0.918031 0.040765
v -0.129925 0.714071 0.0615419
v -0.137699 0.703875 0.0509668
v -0.130049 0.714071 0.0611686
v -0.109637 0.754817 0.0611686
v -0.109637 0.79564 -0.0204044
v -0.0968762 0.86705 -0.17339
v -0.0883895 0.822817 -0.0204044
v -0.0679781 0.863639 -0.0612116
v -0.0679781 0.884031 -0.142826
v -0.0357038 0.86705 0.0305632
v -0.00680557 0.884031 0.040765
v 0.0408006 0.938423 -0.142826
v 0.0178493 0.892522 0.0611686
v 0.0203891 0.897639 0.040765
v 0.0611811 0.938423 -0.102019
v 0.0177563 0.89237 0.0615419
v -0.109235 0.755158 0.0615419
v -0.0475975 0.843247 0.0611686
v -0.027217 0.863639 0.0611686
v -0.0268144 0.863753 0.0615419
v -0.0474427 0.843209 0.0615419
v -0.0270931 0.863525 0.0615419
f 771 772 773
f 771 773 774
f 771 774 783
f 771 783 799
f 771 799 814
f 771 814 835
f 771 835 836
f 771 836 815
f 771 815 800
f 771 800 784
f 771 784 775
f 771 775 776
f 771 776 772
f 772 777 773
f 772 776 787
f 772 787 777
f 773 777 778
f 773 778 779
f 773 779 780
f 773 780 781
f 773 781 782
f 773 782 774
f 774 782 797
f 774 797 810
f 774 810 812
f 774 812 830
f 774 830 851
f 774 851 850
f 774 850 849
f 774 849 873
f 774 873 877
f 774 877 853
f 774 853 831
f 774 831 813
f 774 813 798
f 774 798 783
f 775 784 785
f 775 785 776
f 776 785 786
f 776 786 802
f 776 802 787
f 777 787 788
f 777 788 778
f 778 788 789
f 778 789 779
f 779 789 790
f 779 790 791
f 779 791 780
f 780 791 792
f 780 792 781
f 781 792 793
f 781 793 807
f 781 807 794
f 781 794 795
f 781 795 782
f 782 795 796
f 782 796 797
f 783 798 799
f 784 800 816
f 784 816 817
f 784 817 801
f 784 801 785
f 785 801 786
f 786 801 819
f 786 819 802
f 787 802 803
f 787 803 804
f 787 804 788
f 788 804 789
f 789 804 790
f 790 804 805
f 790 805 791
f 791 805 792
f 792 805 806
f 792 806 793
f 793 806 808
f 793 808 807
f 794 807 811
f 794 811 809
f 794 809 795
f 795 809 796
f 796 810 797
f 796 809 811
f 796 811 812
f 796 812 810
f 798 813 799
f 799 813 831
f 799 831 852
f 799 852 874
f 799 874 893
f 799 893 897
f 799 897 899
f 799 899 898
f 799 898 894
f 799 894 878
f 799 878 855
f 799 855 832
f 799 832 814
f 800 815 816
f 801 817 818
f 801 818 839
f 801 839 819
f 802 820 804
f 802 804 803
f 802 819 840
f 802 840 820
f 804 820 821
f 804 821 842
f 804 842 822
f 804 822 805
f 805 822 823
f 805 823 824
f 805 824 806
f 806 824 825
f 806 825 826
f 806 826 808
f 807 808 811
f 808 826 827
f 808 827 811
f 811 827 828
f 811 828 829
f 811 829 812
f 812 829 830
f 814 832 833
f 814 833 834
f 814 834 835
f 815 836 816
f 816 836 817
f 817 836 837
f 817 837 818
f 818 837 838
f 818 838 839
f 819 839 840
f 820 840 841
f 820 841 821
f 821 841 860
f 821 860 842
f 822 842 823
f 823 842 825
f 823 825 824
f 825 842 843
f 825 843 844
f 825 844 826
f 826 845 827
f 826 844 867
f 826 867 846
f 826 846 847
f 826 847 845
f 827 845 848
f 827 848 828
f 828 848 871
f 828 871 889
f 828 889 892
f 828 892 873
f 828 873 849
f 828 849 850
f 828 850 829
f 829 850 851
f 829 851 830
f 831 853 852
f 832 854 833
f 832 855 854
f 833 856 837
f 833 837 834
f 833 854 855
f 833 855 856
f 834 837 835
f 835 837 836
f 837 856 857
f 837 857 838
f 838 857 839
f 839 858 859
f 839 859 860
f 839 860 841
f 839 841 840
f 839 857 861
f 839 861 858
f 842 862 843
f 842 860 863
f 842 863 864
f 842 864 865
f 842 865 866
f 842 866 862
f 843 867 844
f 843 862 866
f 843 866 868
f 843 868 869
f 843 869 870
f 843 870 867
f 845 871 848
f 845 847 872
f 845 872 889
f 845 889 871
f 846 867 870
f 846 870 872
f 846 872 847
f 852 853 875
f 852 875 876
f 852 876 874
f 853 877 875
f 855 878 879
f 855 879 856
f 856 879 857
f 857 879 861
f 858 865 864
f 858 864 859
f 858 861 865
f 859 864 863
f 859 863 860
f 861 879 880
f 861 880 881
f 861 881 882
f 861 882 866
f 861 866 865
f 866 883 868
f 866 882 884
f 866 884 885
f 866 885 883
f 868 883 869
f 869 886 887
f 869 887 888
f 869 888 872
f 869 872 870
f 869 883 886
f 872 888 890
f 872 890 891
f 872 891 875
f 872 875 892
f 872 892 889
f 873 892 875
f 873 875 877
f 874 876 875
f 874 875 890
f 874 890 893
f 875 891 890
f 878 894 881
f 878 881 880
f 878 880 879
f 881 894 895
f 881 895 882
f 882 895 884
f 883 885 886
f 884 895 885
f 885 895 887
f 885 887 886
f 887 895 896
f 887 896 888
f 888 896 893
f 888 893 890
f 893 896 897
f 894 898 895
f 895 898 896
f 896 898 899
f 896 899 897
o convex_5
v 0.24942 0.31127 -0.348119
v 0.264567 0.31127 -0.348119
v 0.22967 0.31127 -0.347815
v 0.248222 0.350239 -0.363767
v 0.27114 0.31127 -0.34545
v 0.267768 0.346833 -0.362068
v 0.270318 0.336639 -0.356974
v 0.192393 0.31127 -0.346784
v 0.224415 0.367245 -0.367224
v 0.265218 0.367245 -0.367224
v 0.28122 0.31127 -0.340416
v 0.288152 0.387634 -0.362068
v 0.312815 0.408046 -0.353577
v 0.292414 0.367245 -0.353577
v 0.290702 0.316227 -0.336595
v 0.284934 0.31127 -0.338232
v 0.192393 0.389959 -0.364858
v 0.204014 0.387634 -0.367224
v 0.192393 0.31127 0.011787
v 0.285602 0.408046 -0.367224
v 0.316204 0.540619 -0.362068
v 0.340011 0.510013 -0.339991
v 0.341705 0.499818 -0.336595
v 0.321304 0.397828 -0.336595
v 0.300903 0.336639 -0.336595
v 0.291952 0.31127 -0.331621
v 0.192393 0.408046 -0.367224
v 0.194121 0.31127 0.163173
v 0.192393 0.314794 0.0142131
v 0.285602 0.551213 -0.367224
v 0.286064 0.551213 -0.367103
v 0.32637 0.551213 -0.354366
v 0.326404 0.550813 -0.354426
v 0.340011 0.551213 -0.339991
v 0.340148 0.551213 -0.339749
v 0.346806 0.510013 -0.326405
v 0.326678 0.551213 -0.354184
v 0.341705 0.459017 -0.316216
v 0.321304 0.377439 -0.316216
v 0.300903 0.316227 -0.316216
v 0.297206 0.31127 -0.321129
v 0.29457 0.31127 -0.326405
v 0.192393 0.469212 -0.367224
v 0.214523 0.31127 0.22437
v 0.209029 0.551213 0.16566
v 0.204014 0.551213 0.143158
v 0.192393 0.551213 0.0655849
v 0.192393 0.489624 0.0655849
v 0.192393 0.469212 0.0628555
v 0.265628 0.551213 -0.367224
v 0.346806 0.551213 -0.326405
v 0.367224 0.489624 -0.0408584
v 0.346806 0.469212 -0.305966
v 0.326404 0.387634 -0.305966
v 0.306003 0.326444 -0.305966
v 0.346806 0.31127 -4.00017e-05
v 0.204425 0.551213 -0.362311
v 0.265218 0.550813 -0.367224
v 0.192393 0.551213 -0.356246
v 0.193813 0.551213 -0.356974
v 0.227119 0.31127 0.244749
v 0.209149 0.551213 0.165963
v 0.367224 0.530425 -0.0204189
v 0.367224 0.551213 -4.00017e-05
v 0.367224 0.469212 -4.00017e-05
v 0.346806 0.31127 0.142794
v 0.250071 0.31127 0.252391
v 0.265218 0.551213 0.203991
v 0.244423 0.551213 0.19641
v 0.224826 0.551213 0.184158
v 0.224295 0.551213 0.183734
v 0.20932 0.551213 0.166206
v 0.367121 0.551213 0.0407178
v 0.367224 0.550813 0.0407784
v 0.367224 0.489624 0.0203995
v 0.346806 0.408046 0.142794
v 0.333986 0.31127 0.16845
v 0.367224 0.530425 0.0407784
v 0.270472 0.31127 0.252391
v 0.272338 0.31127 0.251906
v 0.265628 0.551213 0.20381
v 0.367018 0.551213 0.0411423
v 0.346806 0.551213 0.101976
v 0.346806 0.510013 0.122355
v 0.333216 0.516824 0.149587
v 0.333216 0.394446 0.169966
v 0.312815 0.312821 0.210784
v 0.312815 0.31127 0.210784
v 0.312815 0.551213 0.169966
v 0.290651 0.551213 0.18992
v 0.286013 0.551213 0.193559
v 0.278824 0.551213 0.197199
v 0.3345 0.551213 0.130482
v 0.336605 0.540619 0.132605
f 900 901 904
f 900 904 910
f 900 910 915
f 900 915 925
f 900 925 941
f 900 941 940
f 900 940 955
f 900 955 965
f 900 965 976
f 900 976 987
f 900 987 979
f 900 979 978
f 900 978 966
f 900 966 960
f 900 960 943
f 900 943 927
f 900 927 918
f 900 918 907
f 900 907 902
f 900 902 903
f 900 903 901
f 901 903 905
f 901 905 906
f 901 906 904
f 902 907 903
f 903 908 909
f 903 909 905
f 903 907 908
f 904 906 910
f 905 909 919
f 905 919 911
f 905 911 912
f 905 912 913
f 905 913 906
f 906 913 914
f 906 914 915
f 906 915 910
f 907 916 917
f 907 917 908
f 907 918 928
f 907 928 948
f 907 948 947
f 907 947 946
f 907 946 958
f 907 958 942
f 907 942 926
f 907 926 916
f 908 917 926
f 908 926 942
f 908 942 957
f 908 957 949
f 908 949 929
f 908 929 919
f 908 919 909
f 911 919 912
f 912 919 920
f 912 920 921
f 912 921 922
f 912 922 923
f 912 923 924
f 912 924 914
f 912 914 913
f 914 924 925
f 914 925 915
f 916 926 917
f 918 927 928
f 919 929 920
f 920 929 930
f 920 930 931
f 920 931 932
f 920 932 921
f 921 933 934
f 921 934 935
f 921 935 922
f 921 932 936
f 921 936 933
f 922 935 937
f 922 937 923
f 923 937 938
f 923 938 939
f 923 939 924
f 924 939 940
f 924 940 941
f 924 941 925
f 927 943 944
f 927 944 945
f 927 945 946
f 927 946 947
f 927 947 948
f 927 948 928
f 929 949 956
f 929 956 959
f 929 959 958
f 929 958 946
f 929 946 945
f 929 945 944
f 929 944 961
f 929 961 971
f 929 971 970
f 929 970 969
f 929 969 968
f 929 968 967
f 929 967 980
f 929 980 991
f 929 991 990
f 929 990 989
f 929 989 988
f 929 988 992
f 929 992 982
f 929 982 981
f 929 981 972
f 929 972 963
f 929 963 950
f 929 950 934
f 929 934 933
f 929 933 936
f 929 936 931
f 929 931 930
f 931 936 932
f 934 950 935
f 935 950 951
f 935 951 952
f 935 952 937
f 937 952 953
f 937 953 938
f 938 953 939
f 939 953 954
f 939 954 955
f 939 955 940
f 942 956 957
f 942 958 959
f 942 959 956
f 943 960 961
f 943 961 944
f 949 957 956
f 950 962 951
f 950 963 962
f 951 962 963
f 951 963 973
f 951 973 977
f 951 977 974
f 951 974 964
f 951 964 955
f 951 955 952
f 952 955 953
f 953 955 954
f 955 964 965
f 960 966 967
f 960 967 968
f 960 968 969
f 960 969 970
f 960 970 971
f 960 971 961
f 963 972 973
f 964 974 965
f 965 975 976
f 965 974 977
f 965 977 973
f 965 973 975
f 966 978 967
f 967 978 979
f 967 979 980
f 972 981 973
f 973 981 982
f 973 982 983
f 973 983 975
f 975 983 984
f 975 984 985
f 975 985 986
f 975 986 976
f 976 986 987
f 979 987 986
f 979 986 988
f 979 988 989
f 979 989 990
f 979 990 991
f 979 991 980
f 982 992 993
f 982 993 983
f 983 993 984
f 984 993 988
f 984 988 986
f 984 986 985
f 988 993 992
o convex_6
v 0.122406 0.31127 -0.346803
v 0.192376 0.31127 -0.346803
v 0.0123231 0.31127 -0.33922
v 0.0123231 0.318364 -0.342779
v 0.0123231 0.326444 -0.346803
v 0.192376 0.389959 -0.364894
v 0.192376 0.31127 0.0117812
v 0.0123231 0.31127 -0.018468
v 0.0123231 0.469212 -0.350828
v 0.183599 0.408046 -0.367224
v 0.192376 0.408046 -0.367224
v 0.192376 0.314794 0.0141961
v 0.188851 0.31127 0.0115694
v 0.0123231 0.318364 -0.015799
v 0.0460565 0.31127 -0.00885095
v 0.051009 0.316227 -0.00512275
v 0.0123231 0.477503 -0.350828
v 0.183599 0.469212 -0.367224
v 0.192376 0.469212 -0.367224
v 0.163207 0.346833 0.0203815
v 0.0612136 0.326444 -3.8848e-05
v 0.102015 0.31127 -3.8848e-05
v 0.192376 0.469212 0.0628321
v 0.0306174 0.336639 -0.00512275
v 0.0123231 0.359165 -0.0040636
v 0.0816229 0.387634 0.0203815
v 0.0714183 0.377439 0.0152976
v 0.0123231 0.501932 -0.349811
v 0.0123231 0.551213 -0.346803
v 0.192376 0.551213 -0.356293
v 0.192376 0.489624 0.0655859
v 0.122406 0.448823 0.0408019
v 0.0204127 0.367245 -3.8848e-05
v 0.0123231 0.501932 0.0163568
v 0.0123231 0.551213 0.0205933
v 0.192376 0.551213 0.0655859
v 0.163595 0.551213 0.0613493
v 0.163207 0.530425 0.0611798
v 0.0123231 0.530425 0.0203815
v 0.0204127 0.510013 0.0203815
v 0.0816229 0.550813 0.0408019
v 0.0816229 0.551213 0.0408019
f 994 995 1000
f 994 1000 1006
f 994 1006 1015
f 994 1015 1008
f 994 1008 1001
f 994 1001 996
f 994 996 997
f 994 997 998
f 994 998 999
f 994 999 995
f 995 999 1004
f 995 1004 1012
f 995 1012 1023
f 995 1023 1029
f 995 1029 1024
f 995 1024 1016
f 995 1016 1005
f 995 1005 1000
f 996 1001 1007
f 996 1007 1018
f 996 1018 1027
f 996 1027 1032
f 996 1032 1028
f 996 1028 1022
f 996 1022 1021
f 996 1021 1010
f 996 1010 1002
f 996 1002 998
f 996 998 997
f 998 1002 1003
f 998 1003 999
f 999 1003 1004
f 1000 1005 1006
f 1001 1008 1009
f 1001 1009 1007
f 1002 1010 1011
f 1002 1011 1003
f 1003 1011 1012
f 1003 1012 1004
f 1005 1013 1014
f 1005 1014 1009
f 1005 1009 1015
f 1005 1015 1006
f 1005 1016 1013
f 1007 1009 1017
f 1007 1017 1018
f 1008 1015 1009
f 1009 1014 1019
f 1009 1019 1020
f 1009 1020 1018
f 1009 1018 1017
f 1010 1021 1011
f 1011 1021 1022
f 1011 1022 1023
f 1011 1023 1012
f 1013 1016 1014
f 1014 1016 1019
f 1016 1024 1025
f 1016 1025 1019
f 1018 1020 1019
f 1018 1019 1026
f 1018 1026 1033
f 1018 1033 1027
f 1019 1025 1026
f 1022 1028 1035
f 1022 1035 1030
f 1022 1030 1029
f 1022 1029 1023
f 1024 1029 1030
f 1024 1030 1031
f 1024 1031 1032
f 1024 1032 1033
f 1024 1033 1025
f 1025 1033 1026
f 1027 1033 1032
f 1028 1032 1034
f 1028 1034 1035
f 1030 1035 1034
f 1030 1034 1031
f 1031 1034 1032
o convex_7
v -0.221738 0.31127 0.026313
v -0.221446 0.33234 0.026313
v -0.106643 0.31127 0.026313
v -0.204003 0.31127 0.122417
v -0.204003 0.408046 0.122417
v -0.204003 0.428435 0.026313
v -0.204003 0.428435 0.0816138
v -0.0990558 0.326444 0.026313
v -0.00773458 0.31127 0.159326
v -0.189277 0.31127 0.168447
v -0.183597 0.326444 0.183598
v -0.198907 0.41824 0.132618
v -0.183597 0.489624 0.102016
v -0.180634 0.515932 0.026313
v -0.0702766 0.387634 0.026313
v -0.0544054 0.408046 0.0340265
v -0.0459198 0.397828 0.0510112
v 0.000504087 0.31127 0.182542
v -0.0255139 0.499818 0.0510112
v -0.0124712 0.551213 0.0616141
v -0.183597 0.31127 0.183598
v -0.178502 0.336639 0.193798
v -0.158096 0.540619 0.132618
v -0.178502 0.499818 0.112216
v -0.191252 0.428435 0.142819
v -0.163192 0.550813 0.0816138
v -0.178502 0.52023 0.0306094
v -0.163192 0.551213 0.0408103
v -0.163192 0.551213 0.026313
v -0.0359526 0.512925 0.026313
v 0.00755297 0.31127 0.20925
v -1.22291e-05 0.550813 0.102016
v 0.000144911 0.551213 0.102418
v -0.0335281 0.528898 0.026313
v -0.0332587 0.551213 0.026313
v -0.175044 0.31127 0.200708
v -0.169994 0.31127 0.210808
v -0.169994 0.326444 0.210808
v -0.152798 0.551213 0.122417
v -0.16299 0.551213 0.0820158
v -0.170847 0.489624 0.142819
v -0.149588 0.530425 0.149628
v -0.142539 0.551213 0.142945
v -0.142674 0.551213 0.142693
v -0.170847 0.448823 0.163196
v 0.00755297 0.31127 0.211587
v 0.000189807 0.551213 0.12302
v -0.12348 0.31127 0.270456
v -0.149588 0.489624 0.170005
v -0.129204 0.530425 0.170005
v -0.122133 0.551213 0.163321
v -0.158096 0.459017 0.173397
v -0.117307 0.316227 0.275405
v 0.00524076 0.31127 0.218547
v 0.000189807 0.551213 0.142819
v -0.00394075 0.551213 0.163196
v -0.116476 0.31127 0.277064
v -0.104241 0.551213 0.178723
v -0.104645 0.31127 0.282993
v -0.108798 0.319633 0.278797
v -0.000304065 0.31127 0.229652
v -0.00510808 0.551213 0.166161
v -0.0812091 0.551213 0.191562
v -0.0612073 0.551213 0.193999
v -0.0842396 0.31127 0.282993
v -0.00526522 0.31127 0.239552
v -0.0102039 0.551213 0.173397
v -0.0550339 0.551213 0.192467
v -0.0689296 0.31127 0.277893
v -0.0408239 0.551213 0.187844
v -0.0541135 0.31127 0.272315
v -0.0181957 0.551213 0.179226
v -0.0559543 0.31127 0.273546
v -0.0204181 0.551213 0.180683
f 1036 1037 1041
f 1036 1041 1049
f 1036 1049 1064
f 1036 1064 1070
f 1036 1070 1069
f 1036 1069 1065
f 1036 1065 1050
f 1036 1050 1043
f 1036 1043 1038
f 1036 1038 1044
f 1036 1044 1053
f 1036 1053 1066
f 1036 1066 1081
f 1036 1081 1089
f 1036 1089 1096
f 1036 1096 1101
f 1036 1101 1106
f 1036 1106 1108
f 1036 1108 1104
f 1036 1104 1100
f 1036 1100 1094
f 1036 1094 1092
f 1036 1092 1083
f 1036 1083 1072
f 1036 1072 1071
f 1036 1071 1056
f 1036 1056 1045
f 1036 1045 1039
f 1036 1039 1040
f 1036 1040 1037
f 1037 1040 1042
f 1037 1042 1041
f 1038 1043 1044
f 1039 1045 1040
f 1040 1045 1046
f 1040 1046 1057
f 1040 1057 1047
f 1040 1047 1059
f 1040 1059 1048
f 1040 1048 1042
f 1041 1042 1049
f 1042 1048 1049
f 1043 1050 1051
f 1043 1051 1052
f 1043 1052 1044
f 1044 1052 1054
f 1044 1054 1055
f 1044 1055 1053
f 1045 1056 1046
f 1046 1056 1057
f 1047 1058 1059
f 1047 1057 1060
f 1047 1060 1076
f 1047 1076 1058
f 1048 1059 1061
f 1048 1061 1049
f 1049 1062 1063
f 1049 1063 1064
f 1049 1061 1062
f 1050 1065 1051
f 1051 1065 1052
f 1052 1065 1054
f 1053 1055 1067
f 1053 1067 1068
f 1053 1068 1066
f 1054 1065 1069
f 1054 1069 1055
f 1055 1069 1070
f 1055 1070 1064
f 1055 1064 1063
f 1055 1063 1075
f 1055 1075 1074
f 1055 1074 1079
f 1055 1079 1078
f 1055 1078 1086
f 1055 1086 1093
f 1055 1093 1098
f 1055 1098 1099
f 1055 1099 1103
f 1055 1103 1105
f 1055 1105 1109
f 1055 1109 1107
f 1055 1107 1102
f 1055 1102 1097
f 1055 1097 1091
f 1055 1091 1090
f 1055 1090 1082
f 1055 1082 1068
f 1055 1068 1067
f 1056 1071 1057
f 1057 1071 1072
f 1057 1072 1073
f 1057 1073 1060
f 1058 1074 1075
f 1058 1075 1059
f 1058 1076 1077
f 1058 1077 1078
f 1058 1078 1079
f 1058 1079 1074
f 1059 1075 1061
f 1060 1073 1080
f 1060 1080 1076
f 1061 1075 1063
f 1061 1063 1062
f 1066 1068 1082
f 1066 1082 1090
f 1066 1090 1081
f 1072 1083 1073
f 1073 1083 1080
f 1076 1080 1084
f 1076 1084 1077
f 1077 1084 1085
f 1077 1085 1078
f 1078 1085 1086
f 1080 1087 1084
f 1080 1083 1088
f 1080 1088 1087
f 1081 1090 1091
f 1081 1091 1089
f 1083 1092 1088
f 1084 1087 1088
f 1084 1088 1085
f 1085 1088 1093
f 1085 1093 1086
f 1088 1092 1094
f 1088 1094 1095
f 1088 1095 1093
f 1089 1091 1097
f 1089 1097 1096
f 1093 1095 1098
f 1094 1099 1098
f 1094 1098 1095
f 1094 1100 1099
f 1096 1097 1101
f 1097 1102 1101
f 1099 1100 1103
f 1100 1104 1105
f 1100 1105 1103
f 1101 1102 1107
f 1101 1107 1106
f 1104 1108 1105
f 1105 1108 1109
f 1106 1107 1108
f 1107 1109 1108
o convex_8
v -0.183607 0.31127 -0.346807
v -0.0559684 0.31127 -0.346807
v -0.194104 0.31127 -0.341568
v -0.190396 0.421646 -0.353587
v -0.163191 0.428435 -0.367224
v -0.142799 0.408046 -0.367224
v 0.0123231 0.326444 -0.346807
v 0.0123231 0.31127 -0.339219
v -0.197209 0.312821 -0.339989
v -0.196885 0.31127 -0.339681
v -0.190396 0.503224 -0.353587
v -0.198762 0.31127 -0.336907
v -0.163191 0.510013 -0.367224
v -0.0408131 0.448823 -0.367224
v -0.0204207 0.469212 -0.367224
v 0.0123231 0.469212 -0.350852
v 0.0123231 0.31127 -0.0184491
v -0.176794 0.516824 -0.360406
v -0.197209 0.551213 -0.339989
v -0.203999 0.31127 -0.326391
v -0.203605 0.551213 -0.3272
v -0.142799 0.530425 -0.367224
v -0.158162 0.551213 -0.360829
v -0.0306169 0.499818 -0.3621
v 0.0123231 0.551213 -0.346807
v -0.0102013 0.47943 -0.3621
v 0.0123231 0.477503 -0.350852
v 0.0123231 0.318364 -0.0157911
v -0.106625 0.31127 0.026313
v -0.224415 0.448823 -0.244802
v -0.203999 0.551213 -0.326391
v -0.224415 0.31127 -0.178352
v -0.143192 0.551213 -0.359635
v 0.0123231 0.501932 -0.349851
v 0.0123231 0.551213 0.0205733
v 0.0123231 0.359165 -0.00404205
v -0.0990706 0.326444 0.026313
v -0.22175 0.31127 0.026313
v -0.224415 0.469212 -0.244802
v -0.224415 0.510013 -0.224386
v -0.203999 0.551213 -0.204008
v -0.224415 0.31127 0.0203807
v -0.0332587 0.551213 0.026313
v -0.0335368 0.528898 0.026313
v 0.0123231 0.530425 0.0203807
v 0.0123231 0.501932 0.0163359
v -0.0702663 0.387634 0.026313
v -0.221448 0.33234 0.026313
v -0.224415 0.326444 0.0203807
v -0.20386 0.551213 -0.183591
v -0.203999 0.428435 0.026313
v -0.183607 0.550813 -0.0408302
v -0.163191 0.551213 0.026313
v -0.0359699 0.512925 0.026313
v -0.183398 0.551213 -0.0404065
v -0.18064 0.515932 0.026313
v -0.183607 0.510013 0.0203807
f 1110 1111 1117
f 1110 1117 1126
f 1110 1126 1138
f 1110 1138 1147
f 1110 1147 1151
f 1110 1151 1141
f 1110 1141 1129
f 1110 1129 1121
f 1110 1121 1119
f 1110 1119 1112
f 1110 1112 1113
f 1110 1113 1114
f 1110 1114 1115
f 1110 1115 1111
f 1111 1115 1116
f 1111 1116 1117
f 1112 1118 1113
f 1112 1119 1118
f 1113 1120 1127
f 1113 1127 1122
f 1113 1122 1114
f 1113 1118 1121
f 1113 1121 1120
f 1114 1122 1131
f 1114 1131 1124
f 1114 1124 1123
f 1114 1123 1115
f 1115 1123 1116
f 1116 1123 1124
f 1116 1124 1125
f 1116 1125 1136
f 1116 1136 1143
f 1116 1143 1134
f 1116 1134 1144
f 1116 1144 1154
f 1116 1154 1155
f 1116 1155 1145
f 1116 1145 1137
f 1116 1137 1126
f 1116 1126 1117
f 1118 1119 1121
f 1120 1121 1128
f 1120 1128 1127
f 1121 1129 1130
f 1121 1130 1128
f 1122 1127 1132
f 1122 1132 1131
f 1124 1131 1133
f 1124 1133 1134
f 1124 1134 1135
f 1124 1135 1136
f 1124 1136 1125
f 1126 1137 1138
f 1127 1128 1132
f 1128 1130 1140
f 1128 1140 1150
f 1128 1150 1159
f 1128 1159 1164
f 1128 1164 1162
f 1128 1162 1152
f 1128 1152 1144
f 1128 1144 1134
f 1128 1134 1142
f 1128 1142 1132
f 1129 1139 1148
f 1129 1148 1140
f 1129 1140 1130
f 1129 1141 1139
f 1131 1132 1142
f 1131 1142 1134
f 1131 1134 1133
f 1134 1143 1135
f 1135 1143 1136
f 1137 1145 1138
f 1138 1145 1146
f 1138 1146 1156
f 1138 1156 1163
f 1138 1163 1153
f 1138 1153 1152
f 1138 1152 1162
f 1138 1162 1165
f 1138 1165 1160
f 1138 1160 1157
f 1138 1157 1147
f 1139 1141 1151
f 1139 1151 1158
f 1139 1158 1149
f 1139 1149 1148
f 1140 1148 1149
f 1140 1149 1150
f 1144 1152 1153
f 1144 1153 1154
f 1145 1155 1156
f 1145 1156 1146
f 1147 1157 1158
f 1147 1158 1151
f 1149 1159 1150
f 1149 1158 1160
f 1149 1160 1161
f 1149 1161 1159
f 1153 1163 1154
f 1154 1163 1156
f 1154 1156 1155
f 1157 1160 1158
f 1159 1161 1164
f 1160 1165 1166
f 1160 1166 1161
f 1161 1166 1165
f 1161 1165 1164
f 1162 1164 1165
o convex_9
v 0.346823 0.20639 0.122355
v 0.346117 0.20639 0.12511
v 0.346823 0.204012 0.122355
v 0.346823 0.20639 -0.0203362
v 0.305981 0.20639 0.224346
v 0.305981 0.204012 0.224346
v 0.340006 0.197209 0.135991
v 0.34171 0.181059 0.122355
v 0.345941 0.145805 0.0849605
v 0.346823 0.145805 0.0815861
v 0.346823 0.183609 -0.0407895
v 0.342298 0.20639 -0.0406518
v 0.304806 0.20639 0.226756
v 0.299164 0.197209 0.237982
v 0.299164 0.156416 0.217597
v 0.302102 0.145805 0.203962
v 0.346823 0.145805 -0.0407895
v 0.254209 0.20639 -0.283199
v 0.29458 0.20639 0.247141
v 0.231173 0.145805 0.353608
v 0.233112 0.145805 0.349752
v 0.300281 0.145805 0.208645
v 0.265198 0.145805 -0.224387
v 0.252446 0.204012 -0.28561
v 0.253033 0.20639 -0.28561
v 0.292112 0.20639 0.250378
v 0.231173 0.149613 0.353608
v 0.227353 0.145805 0.355468
v 0.238989 0.145805 -0.276795
v 0.231173 0.145805 -0.292359
v 0.251858 0.20639 -0.287951
v 0.23799 0.145805 -0.278792
v 0.228 0.20639 0.329987
v 0.210781 0.170015 0.353608
v 0.206962 0.145805 0.364214
v 0.210781 0.145805 -0.312812
v 0.229469 0.193811 -0.316186
v 0.229292 0.20639 -0.321282
v 0.183162 0.20639 0.345551
v 0.183573 0.204012 0.346791
v 0.202495 0.145805 0.365729
v 0.185571 0.145805 -0.325414
v 0.183573 0.145805 -0.326379
v 0.226648 0.20639 -0.321902
v 0.15278 0.20639 0.346791
v -0.0218696 0.145805 0.365729
v 0.206374 0.20639 -0.326379
v -0.142808 0.145805 -0.335125
v -0.16079 0.20639 -0.33781
v 0.0611655 0.20639 0.346791
v -0.040792 0.204012 0.346791
v -0.061536 0.145805 0.346033
v -0.1632 0.145805 -0.335125
v -0.183591 0.145805 -0.330235
v -0.171838 0.20639 -0.335056
v -0.0419673 0.20639 0.34562
v -0.0731715 0.145805 0.340248
v -0.0547781 0.20639 0.339215
v -0.0680002 0.204012 0.333155
v -0.181182 0.20639 -0.332645
v -0.203865 0.145805 -0.321282
v -0.0752871 0.145805 0.339009
v -0.0651795 0.20639 0.333981
v -0.0764624 0.153011 0.336598
v -0.0668837 0.20639 0.333017
v -0.0883917 0.20639 0.312771
v -0.205746 0.145805 -0.320387
v -0.187 0.200607 -0.329753
v -0.18747 0.20639 -0.328858
v -0.13652 0.20639 0.250309
v -0.190408 0.145805 0.149557
v -0.214208 0.145805 -0.316186
v -0.214208 0.147911 -0.316186
v -0.192758 0.20639 -0.324037
v -0.169194 0.20639 0.191979
v -0.184179 0.20639 0.162848
v -0.197401 0.20639 0.137092
v -0.243296 0.145805 0.0437784
v -0.21838 0.145805 -0.307716
v -0.201632 0.20639 -0.310746
v -0.197166 0.20639 -0.319561
v -0.203395 0.20639 0.125041
v -0.22361 0.20639 0.08317
v -0.224374 0.20639 0.0815861
v -0.244766 0.183609 4.82523e-05
v -0.251289 0.145805 -0.0377594
v -0.219262 0.145805 -0.305512
v -0.203454 0.20639 -0.305994
v -0.24359 0.20639 -0.0179947
v -0.244766 0.204012 -0.0203362
v -0.253522 0.145805 -0.061174
v -0.223728 0.145805 -0.28561
v -0.224374 0.20639 -0.224387
v -0.219262 0.165763 -0.28561
v -0.21932 0.20639 -0.244772
v -0.244237 0.20639 -0.0815584
v -0.244766 0.204012 -0.101943
v -0.244766 0.163213 -0.122396
v -0.224374 0.145805 -0.282579
v -0.244237 0.20639 -0.0998769
f 1167 1168 1169
f 1167 1169 1176
f 1167 1176 1183
f 1167 1183 1177
f 1167 1177 1170
f 1167 1170 1178
f 1167 1178 1184
f 1167 1184 1191
f 1167 1191 1197
f 1167 1197 1204
f 1167 1204 1210
f 1167 1210 1213
f 1167 1213 1215
f 1167 1215 1221
f 1167 1221 1226
f 1167 1226 1235
f 1167 1235 1240
f 1167 1240 1247
f 1167 1247 1246
f 1167 1246 1254
f 1167 1254 1261
f 1167 1261 1259
f 1167 1259 1266
f 1167 1266 1262
f 1167 1262 1255
f 1167 1255 1250
f 1167 1250 1249
f 1167 1249 1248
f 1167 1248 1243
f 1167 1243 1242
f 1167 1242 1241
f 1167 1241 1236
f 1167 1236 1232
f 1167 1232 1231
f 1167 1231 1229
f 1167 1229 1224
f 1167 1224 1222
f 1167 1222 1216
f 1167 1216 1211
f 1167 1211 1205
f 1167 1205 1199
f 1167 1199 1192
f 1167 1192 1185
f 1167 1185 1179
f 1167 1179 1171
f 1167 1171 1168
f 1168 1171 1172
f 1168 1172 1169
f 1169 1173 1174
f 1169 1174 1175
f 1169 1175 1176
f 1169 1172 1180
f 1169 1180 1173
f 1170 1177 1178
f 1171 1179 1172
f 1172 1179 1180
f 1173 1180 1181
f 1173 1181 1174
f 1174 1181 1182
f 1174 1182 1175
f 1175 1182 1188
f 1175 1188 1187
f 1175 1187 1186
f 1175 1186 1194
f 1175 1194 1201
f 1175 1201 1207
f 1175 1207 1212
f 1175 1212 1218
f 1175 1218 1223
f 1175 1223 1228
f 1175 1228 1237
f 1175 1237 1244
f 1175 1244 1252
f 1175 1252 1257
f 1175 1257 1265
f 1175 1265 1258
f 1175 1258 1253
f 1175 1253 1245
f 1175 1245 1238
f 1175 1238 1233
f 1175 1233 1227
f 1175 1227 1220
f 1175 1220 1219
f 1175 1219 1214
f 1175 1214 1209
f 1175 1209 1208
f 1175 1208 1202
f 1175 1202 1196
f 1175 1196 1198
f 1175 1198 1195
f 1175 1195 1189
f 1175 1189 1183
f 1175 1183 1176
f 1177 1183 1184
f 1177 1184 1178
f 1179 1185 1180
f 1180 1185 1186
f 1180 1186 1187
f 1180 1187 1181
f 1181 1187 1188
f 1181 1188 1182
f 1183 1189 1184
f 1184 1189 1190
f 1184 1190 1191
f 1185 1192 1193
f 1185 1193 1186
f 1186 1193 1194
f 1189 1195 1190
f 1190 1196 1197
f 1190 1197 1191
f 1190 1195 1198
f 1190 1198 1196
f 1192 1199 1193
f 1193 1199 1200
f 1193 1200 1201
f 1193 1201 1194
f 1196 1202 1203
f 1196 1203 1197
f 1197 1203 1204
f 1199 1205 1206
f 1199 1206 1200
f 1200 1206 1207
f 1200 1207 1201
f 1202 1208 1204
f 1202 1204 1203
f 1204 1208 1209
f 1204 1209 1210
f 1205 1211 1206
f 1206 1211 1207
f 1207 1211 1216
f 1207 1216 1212
f 1209 1213 1210
f 1209 1214 1215
f 1209 1215 1213
f 1212 1216 1217
f 1212 1217 1218
f 1214 1219 1215
f 1215 1219 1220
f 1215 1220 1221
f 1216 1222 1217
f 1217 1223 1218
f 1217 1222 1224
f 1217 1224 1225
f 1217 1225 1223
f 1220 1226 1221
f 1220 1227 1226
f 1223 1225 1228
f 1224 1229 1225
f 1225 1230 1228
f 1225 1229 1231
f 1225 1231 1232
f 1225 1232 1230
f 1226 1227 1233
f 1226 1233 1234
f 1226 1234 1235
f 1228 1230 1236
f 1228 1236 1237
f 1230 1232 1236
f 1233 1238 1234
f 1234 1239 1235
f 1234 1238 1239
f 1235 1239 1240
f 1236 1241 1237
f 1237 1242 1243
f 1237 1243 1244
f 1237 1241 1242
f 1238 1245 1239
f 1239 1245 1246
f 1239 1246 1247
f 1239 1247 1240
f 1243 1248 1244
f 1244 1248 1249
f 1244 1249 1250
f 1244 1250 1251
f 1244 1251 1252
f 1245 1253 1246
f 1246 1253 1254
f 1250 1255 1256
f 1250 1256 1251
f 1251 1256 1257
f 1251 1257 1252
f 1253 1258 1259
f 1253 1259 1260
f 1253 1260 1254
f 1254 1260 1261
f 1255 1262 1256
f 1256 1262 1266
f 1256 1266 1263
f 1256 1263 1257
f 1257 1263 1264
f 1257 1264 1265
f 1258 1265 1259
f 1259 1265 1263
f 1259 1263 1266
f 1259 1261 1260
f 1263 1265 1264
o convex_10
v 0.346823 0.145799 0.0815818
v 0.345911 0.145799 0.0850087
v 0.346823 0.142799 0.0815818
v 0.346823 0.145799 -0.0407852
v 0.302112 0.145799 0.203949
v 0.326411 0.0612159 0.102
v 0.346823 0.102001 0.0611635
v 0.346823 0.0236817 -0.0407852
v 0.260925 0.0236817 -0.284448
v 0.243976 0.0236817 -0.326784
v 0.265177 0.102001 -0.244754
v 0.260075 0.122406 -0.247324
v 0.265177 0.145799 -0.224407
v 0.30029 0.145799 0.208661
v 0.319607 0.0544143 0.115565
v 0.325439 0.0236817 0.0852942
v 0.345851 0.0236817 0.0241107
v 0.346823 0.0612159 0.0407452
v 0.346823 0.0236817 0.0203983
v 0.238266 0.0236817 -0.338207
v 0.239663 0.0408111 -0.328926
v 0.232191 0.145799 -0.290374
v 0.238995 0.145799 -0.276809
v 0.252603 0.145799 -0.249609
v 0.233103 0.145799 0.349804
v 0.244766 0.142799 0.326387
v 0.244766 0.122406 0.326387
v 0.237962 0.115605 0.339952
v 0.320276 0.0236817 0.0979307
v 0.236869 0.0236817 -0.340563
v 0.23456 0.0306028 -0.341705
v 0.231159 0.145799 -0.292373
v 0.231159 0.145799 0.353588
v 0.231159 0.129208 0.353588
v 0.217612 0.115605 0.36037
v 0.23456 0.107106 0.336596
v 0.259467 0.0236817 0.208875
v 0.227635 0.0236817 -0.345132
v 0.183593 0.145799 -0.326356
v 0.210808 0.145799 -0.312791
v 0.227392 0.145799 0.355515
v 0.204004 0.122406 0.367224
v 0.21421 0.107106 0.357015
v 0.193799 0.0255106 0.29576
v 0.248047 0.0236817 0.222725
v 0.224355 0.0236817 -0.34556
v 0.204004 0.0408111 -0.346774
v 0.183593 0.0612159 -0.346774
v -0.142805 0.122406 -0.346774
v -0.1326 0.132603 -0.341705
v -0.142805 0.145799 -0.335066
v 0.206981 0.145799 0.364225
v 0.204004 0.142799 0.367224
v 0.183593 0.122406 0.367224
v 0.173387 0.112198 0.362084
v 0.204004 0.108803 0.36037
v 0.14277 0.0340096 0.312751
v 0.183593 0.027208 0.299187
v 0.178612 0.0236817 0.295903
v 0.190154 0.0236817 0.292119
v 0.204004 0.0236817 -0.346774
v -0.214184 0.0306028 -0.362123
v -0.163156 0.122406 -0.346774
v -0.163156 0.135997 -0.339992
v -0.163156 0.145799 -0.335066
v 0.202486 0.145799 0.365725
v -0.0203983 0.142799 0.367224
v 0.183593 0.108803 0.36037
v -0.0305432 0.132603 0.362084
v -0.0203983 0.115605 0.353588
v 0.14277 0.0236817 0.297402
v 0.157897 0.0236817 0.297402
v -0.0203983 0.0340096 0.292404
v -0.223418 0.0236817 -0.362123
v -0.183567 0.124952 -0.341705
v -0.183567 0.145799 -0.330282
v -0.0218563 0.145799 0.365725
v -0.0615247 0.145799 0.34602
v -0.0731275 0.145799 0.340237
v -0.0611602 0.142799 0.346806
v -0.0713658 0.132603 0.341665
v -0.0305432 0.0510075 0.3009
v -0.0203983 0.0236817 0.277055
v -0.0509545 0.0306028 0.270273
v -0.0440293 0.0236817 0.266846
v -0.0374685 0.0236817 0.27013
v -0.247778 0.0236817 -0.354627
v -0.22439 0.0841667 -0.341705
v -0.193773 0.127498 -0.336565
v -0.203857 0.145799 -0.321287
v -0.0752537 0.145799 0.339024
v -0.0747677 0.142799 0.339952
v -0.10988 0.0236817 0.210231
v -0.231193 0.0408111 0.0883641
v -0.16996 0.0236817 0.149548
v -0.147665 0.0236817 0.172607
v -0.128104 0.0236817 0.192597
v -0.262296 0.0236817 -0.34606
v -0.234595 0.0867009 -0.336565
v -0.214184 0.107106 -0.336565
v -0.214184 0.145799 -0.316218
v -0.20574 0.145799 -0.32043
v -0.190371 0.145799 0.149548
v -0.239698 0.0510075 0.0713727
v -0.237997 0.0408111 0.0747995
v -0.239394 0.0236817 0.0655185
v -0.238058 0.0236817 0.0678031
v -0.264483 0.0236817 -0.343847
v -0.272988 0.0236817 -0.329426
v -0.218376 0.145799 -0.307722
v -0.196203 0.145799 0.137982
v -0.238483 0.145799 0.0533817
v -0.243282 0.145799 0.0437437
v -0.244801 0.142799 0.0407452
v -0.244801 0.0408111 0.0611635
v -0.240488 0.0236817 0.0633053
v -0.273778 0.0236817 -0.326356
v -0.219287 0.145799 -0.305509
v -0.251301 0.145799 -0.0377867
v -0.260109 0.132603 -0.0509943
v -0.265212 0.122406 -0.0612035
v -0.265212 0.0816087 -0.0203669
v -0.265212 0.0236817 -0.0203669
v -0.22439 0.145799 -0.282592
v -0.273778 0.0236817 -0.224407
v -0.253488 0.145799 -0.0612035
v -0.258409 0.135997 -0.0612035
f 1267 1268 1269
f 1267 1269 1273
f 1267 1273 1284
f 1267 1284 1285
f 1267 1285 1274
f 1267 1274 1270
f 1267 1270 1279
f 1267 1279 1290
f 1267 1290 1289
f 1267 1289 1288
f 1267 1288 1298
f 1267 1298 1306
f 1267 1306 1305
f 1267 1305 1317
f 1267 1317 1331
f 1267 1331 1342
f 1267 1342 1356
f 1267 1356 1368
f 1267 1368 1367
f 1267 1367 1376
f 1267 1376 1384
f 1267 1384 1390
f 1267 1390 1392
f 1267 1392 1385
f 1267 1385 1379
f 1267 1379 1378
f 1267 1378 1377
f 1267 1377 1369
f 1267 1369 1357
f 1267 1357 1345
f 1267 1345 1344
f 1267 1344 1343
f 1267 1343 1332
f 1267 1332 1318
f 1267 1318 1307
f 1267 1307 1299
f 1267 1299 1291
f 1267 1291 1280
f 1267 1280 1271
f 1267 1271 1268
f 1268 1271 1269
f 1269 1272 1273
f 1269 1271 1272
f 1270 1274 1275
f 1270 1275 1276
f 1270 1276 1277
f 1270 1277 1278
f 1270 1278 1279
f 1271 1280 1272
f 1272 1281 1282
f 1272 1282 1283
f 1272 1283 1284
f 1272 1284 1273
f 1272 1280 1281
f 1274 1285 1283
f 1274 1283 1282
f 1274 1282 1295
f 1274 1295 1303
f 1274 1303 1311
f 1274 1311 1326
f 1274 1326 1325
f 1274 1325 1338
f 1274 1338 1337
f 1274 1337 1349
f 1274 1349 1352
f 1274 1352 1351
f 1274 1351 1359
f 1274 1359 1363
f 1274 1363 1362
f 1274 1362 1361
f 1274 1361 1373
f 1274 1373 1372
f 1274 1372 1382
f 1274 1382 1389
f 1274 1389 1391
f 1274 1391 1383
f 1274 1383 1375
f 1274 1375 1374
f 1274 1374 1364
f 1274 1364 1353
f 1274 1353 1340
f 1274 1340 1327
f 1274 1327 1312
f 1274 1312 1304
f 1274 1304 1296
f 1274 1296 1286
f 1274 1286 1276
f 1274 1276 1275
f 1276 1286 1287
f 1276 1287 1278
f 1276 1278 1277
f 1278 1288 1289
f 1278 1289 1290
f 1278 1290 1279
f 1278 1287 1288
f 1280 1291 1292
f 1280 1292 1293
f 1280 1293 1294
f 1280 1294 1281
f 1281 1295 1282
f 1281 1294 1295
f 1283 1285 1284
f 1286 1296 1297
f 1286 1297 1287
f 1287 1297 1298
f 1287 1298 1288
f 1291 1299 1300
f 1291 1300 1294
f 1291 1294 1293
f 1291 1293 1292
f 1294 1300 1301
f 1294 1301 1309
f 1294 1309 1302
f 1294 1302 1303
f 1294 1303 1295
f 1296 1304 1297
f 1297 1304 1305
f 1297 1305 1306
f 1297 1306 1298
f 1299 1307 1300
f 1300 1307 1301
f 1301 1307 1308
f 1301 1308 1309
f 1302 1309 1310
f 1302 1310 1303
f 1303 1310 1311
f 1304 1312 1313
f 1304 1313 1305
f 1305 1313 1314
f 1305 1314 1315
f 1305 1315 1316
f 1305 1316 1317
f 1307 1318 1319
f 1307 1319 1308
f 1308 1319 1333
f 1308 1333 1320
f 1308 1320 1321
f 1308 1321 1322
f 1308 1322 1309
f 1309 1322 1323
f 1309 1323 1324
f 1309 1324 1310
f 1310 1324 1325
f 1310 1325 1326
f 1310 1326 1311
f 1312 1327 1313
f 1313 1327 1328
f 1313 1328 1314
f 1314 1328 1315
f 1315 1328 1329
f 1315 1329 1316
f 1316 1329 1330
f 1316 1330 1331
f 1316 1331 1317
f 1318 1332 1319
f 1319 1332 1343
f 1319 1343 1333
f 1320 1333 1321
f 1321 1334 1322
f 1321 1333 1335
f 1321 1335 1336
f 1321 1336 1323
f 1321 1323 1334
f 1322 1334 1323
f 1323 1337 1338
f 1323 1338 1325
f 1323 1325 1324
f 1323 1336 1339
f 1323 1339 1349
f 1323 1349 1337
f 1327 1340 1328
f 1328 1340 1341
f 1328 1341 1329
f 1329 1341 1330
f 1330 1341 1331
f 1331 1341 1342
f 1333 1343 1344
f 1333 1344 1345
f 1333 1345 1346
f 1333 1346 1347
f 1333 1347 1335
f 1335 1347 1348
f 1335 1348 1339
f 1335 1339 1336
f 1339 1350 1351
f 1339 1351 1352
f 1339 1352 1349
f 1339 1348 1350
f 1340 1353 1341
f 1341 1353 1354
f 1341 1354 1366
f 1341 1366 1355
f 1341 1355 1342
f 1342 1355 1356
f 1345 1357 1358
f 1345 1358 1346
f 1346 1358 1347
f 1347 1359 1350
f 1347 1350 1348
f 1347 1358 1360
f 1347 1360 1361
f 1347 1361 1362
f 1347 1362 1363
f 1347 1363 1359
f 1350 1359 1351
f 1353 1364 1365
f 1353 1365 1354
f 1354 1365 1366
f 1355 1366 1367
f 1355 1367 1368
f 1355 1368 1356
f 1357 1369 1360
f 1357 1360 1358
f 1360 1369 1370
f 1360 1370 1371
f 1360 1371 1372
f 1360 1372 1373
f 1360 1373 1361
f 1364 1374 1365
f 1365 1374 1375
f 1365 1375 1367
f 1365 1367 1366
f 1367 1375 1376
f 1369 1377 1370
f 1370 1377 1378
f 1370 1378 1379
f 1370 1379 1380
f 1370 1380 1381
f 1370 1381 1371
f 1371 1381 1372
f 1372 1381 1382
f 1375 1383 1384
f 1375 1384 1376
f 1379 1385 1386
f 1379 1386 1380
f 1380 1386 1387
f 1380 1387 1388
f 1380 1388 1381
f 1381 1388 1389
f 1381 1389 1382
f 1383 1390 1384
f 1383 1391 1387
f 1383 1387 1390
f 1385 1392 1386
f 1386 1392 1393
f 1386 1393 1387
f 1387 1393 1390
f 1387 1391 1388
f 1388 1391 1389
f 1390 1393 1392
o convex_11
v 0.346823 0.31127 0.142817
v 0.331667 0.31127 0.173138
v 0.346823 0.244817 0.142817
v 0.346823 0.31127 0.0484096
v 0.312812 0.31127 0.21079
v 0.319619 0.299218 0.197236
v 0.319619 0.217621 0.197236
v 0.346129 0.2064 0.125145
v 0.346823 0.2064 0.122429
v 0.346823 0.2064 0.0484096
v 0.250828 0.31127 0.0484096
v 0.272303 0.31127 0.251918
v 0.268604 0.289013 0.268597
v 0.271994 0.272012 0.272015
v 0.292416 0.251623 0.251597
v 0.294625 0.2064 0.247186
v 0.304823 0.2064 0.226768
v 0.306005 0.2064 0.224402
v 0.271301 0.2064 0.0484096
v 0.24998 0.311199 0.0484096
v 0.23801 0.31127 0.054427
v 0.270453 0.31127 0.252385
v 0.156426 0.25842 0.340017
v 0.190436 0.251623 0.333211
v 0.255015 0.255021 0.295792
v 0.292416 0.210815 0.251597
v 0.228017 0.2064 0.329997
v 0.292108 0.2064 0.25037
v 0.256299 0.256315 0.0484096
v 0.142606 0.2064 0.107006
v 0.24998 0.293222 0.0484096
v 0.142452 0.2064 0.107152
v 0.131586 0.2064 0.117989
v 0.127168 0.2064 0.122429
v 0.219283 0.31127 0.0764808
v 0.23801 0.299218 0.054427
v 0.250057 0.31127 0.252385
v 0.0844234 0.268737 0.329939
v 0.0844234 0.25842 0.340017
v 0.163233 0.244817 0.346823
v 0.227812 0.207417 0.329793
v 0.183218 0.2064 0.345567
v 0.117458 0.2064 0.135369
v 0.173431 0.300912 0.153012
v 0.194135 0.31127 0.163236
v 0.0844234 0.238021 0.231208
v 0.0844234 0.249221 0.247011
v 0.0844234 0.258728 0.261966
v 0.0844234 0.259877 0.263924
v 0.227092 0.31127 0.244762
v 0.0844234 0.272813 0.31361
v 0.0844234 0.244817 0.346823
v 0.167061 0.220599 0.346823
v 0.152855 0.2064 0.346823
v 0.0844234 0.2064 0.202027
v 0.0844234 0.226286 0.218735
v 0.0844234 0.260812 0.265793
v 0.0844234 0.26961 0.287818
v 0.0844234 0.274014 0.308791
v 0.183629 0.306014 0.224402
v 0.214531 0.31127 0.224402
v 0.0844234 0.2064 0.346823
f 1394 1395 1396
f 1394 1396 1402
f 1394 1402 1403
f 1394 1403 1397
f 1394 1397 1404
f 1394 1404 1414
f 1394 1414 1428
f 1394 1428 1438
f 1394 1438 1454
f 1394 1454 1443
f 1394 1443 1430
f 1394 1430 1415
f 1394 1415 1405
f 1394 1405 1398
f 1394 1398 1395
f 1395 1398 1399
f 1395 1399 1400
f 1395 1400 1396
f 1396 1401 1402
f 1396 1400 1401
f 1397 1403 1412
f 1397 1412 1422
f 1397 1422 1424
f 1397 1424 1413
f 1397 1413 1404
f 1398 1405 1406
f 1398 1406 1407
f 1398 1407 1408
f 1398 1408 1399
f 1399 1408 1409
f 1399 1409 1400
f 1400 1409 1410
f 1400 1410 1411
f 1400 1411 1401
f 1401 1411 1410
f 1401 1410 1409
f 1401 1409 1421
f 1401 1421 1420
f 1401 1420 1435
f 1401 1435 1447
f 1401 1447 1455
f 1401 1455 1448
f 1401 1448 1436
f 1401 1436 1427
f 1401 1427 1426
f 1401 1426 1425
f 1401 1425 1423
f 1401 1423 1412
f 1401 1412 1403
f 1401 1403 1402
f 1404 1413 1414
f 1405 1415 1416
f 1405 1416 1417
f 1405 1417 1406
f 1406 1417 1418
f 1406 1418 1407
f 1407 1418 1408
f 1408 1419 1409
f 1408 1418 1420
f 1408 1420 1419
f 1409 1419 1421
f 1412 1423 1422
f 1413 1424 1429
f 1413 1429 1414
f 1414 1423 1425
f 1414 1425 1426
f 1414 1426 1427
f 1414 1427 1428
f 1414 1429 1423
f 1415 1430 1431
f 1415 1431 1416
f 1416 1431 1432
f 1416 1432 1445
f 1416 1445 1433
f 1416 1433 1417
f 1417 1433 1420
f 1417 1420 1434
f 1417 1434 1418
f 1418 1434 1420
f 1419 1420 1421
f 1420 1433 1435
f 1422 1423 1424
f 1423 1429 1424
f 1427 1436 1428
f 1428 1437 1438
f 1428 1436 1439
f 1428 1439 1440
f 1428 1440 1441
f 1428 1441 1442
f 1428 1442 1437
f 1430 1443 1431
f 1431 1444 1452
f 1431 1452 1451
f 1431 1451 1450
f 1431 1450 1442
f 1431 1442 1441
f 1431 1441 1440
f 1431 1440 1439
f 1431 1439 1449
f 1431 1449 1448
f 1431 1448 1455
f 1431 1455 1445
f 1431 1445 1432
f 1431 1443 1444
f 1433 1445 1455
f 1433 1455 1447
f 1433 1447 1446
f 1433 1446 1435
f 1435 1446 1447
f 1436 1448 1449
f 1436 1449 1439
f 1437 1442 1450
f 1437 1450 1451
f 1437 1451 1452
f 1437 1452 1438
f 1438 1452 1453
f 1438 1453 1454
f 1443 1454 1453
f 1443 1453 1452
f 1443 1452 1444
o convex_12
v -0.224415 0.2064 0.0484096
v -0.224415 0.2064 0.0816218
v -0.224415 0.244817 0.0484096
v -0.127593 0.2064 0.0484096
v -0.224415 0.224418 0.0816218
v -0.203406 0.2064 0.125087
v -0.198902 0.234622 0.153012
v -0.20401 0.285615 0.142817
v -0.224415 0.244817 0.061233
v -0.220606 0.293222 0.0484096
v -0.0926494 0.31127 0.0484096
v -0.0996019 0.2064 0.0624014
v -0.19739 0.2064 0.137121
v -0.170004 0.285615 0.21079
v -0.176805 0.285615 0.197236
v -0.197209 0.285615 0.156429
v -0.184181 0.2064 0.162914
v -0.169218 0.2064 0.192008
v -0.137508 0.2064 0.248647
v -0.135997 0.224418 0.258403
v -0.183606 0.31127 0.183624
v -0.198902 0.295809 0.153012
v -0.20401 0.31127 0.122429
v -0.219306 0.295809 0.0510094
v -0.218641 0.298407 0.0484096
v -0.212233 0.31127 0.0484096
v -0.00773812 0.31127 0.159351
v 0.0843977 0.2064 0.202027
v -0.00631739 0.2064 0.119274
v -0.0348227 0.2064 0.095117
v -0.0484254 0.2064 0.0880189
v -0.170004 0.31127 0.21079
v -0.129195 0.244817 0.272015
v -0.176805 0.31127 0.197236
v -0.136511 0.2064 0.250312
v -0.132581 0.214223 0.260097
v -0.189289 0.31127 0.168464
v 0.000483978 0.31127 0.182573
v 0.0843977 0.26961 0.287818
v 0.0843977 0.260812 0.265793
v 0.0843977 0.259877 0.263924
v 0.0843977 0.258728 0.261966
v 0.0843977 0.249221 0.247011
v 0.0843977 0.238021 0.231208
v 0.0843977 0.226286 0.218735
v 0.0843977 0.2064 0.346823
v -0.129195 0.285615 0.272015
v -0.130042 0.306014 0.265209
v -0.123482 0.31127 0.270467
v -0.0883872 0.2064 0.312792
v 0.0075574 0.31127 0.209242
v 0.0843977 0.274014 0.308791
v 0.0611824 0.2064 0.346823
v 0.0843977 0.244817 0.346823
v -0.0883872 0.244817 0.312792
v -0.116469 0.31127 0.277039
v -0.0669251 0.2064 0.333006
v 0.0075574 0.31127 0.211579
v 0.0611824 0.285615 0.306016
v 0.0747851 0.278808 0.29921
v 0.0843977 0.272813 0.31361
v 0.0407783 0.244817 0.346823
v -0.042017 0.2064 0.345625
v 0.0843977 0.25842 0.340017
v -0.0652324 0.2064 0.333999
v -0.0532317 0.2064 0.340017
v -0.0764773 0.255021 0.31621
v -0.10462 0.31127 0.282969
v -0.0680134 0.25842 0.319598
v 0.00522982 0.31127 0.21856
v 0.0679838 0.272012 0.333211
v 0.0843977 0.268737 0.329939
v -0.00030196 0.31127 0.22966
v -0.0052594 0.31127 0.239562
v -0.0541083 0.31127 0.272307
v -0.0559825 0.31127 0.273563
v -0.0689504 0.31127 0.277886
v -0.0842157 0.31127 0.282969
v 0.0339769 0.25842 0.340017
v -0.0476093 0.217621 0.340017
v 0.0475797 0.272012 0.333211
f 1456 1457 1460
f 1456 1460 1464
f 1456 1464 1458
f 1456 1458 1465
f 1456 1465 1480
f 1456 1480 1481
f 1456 1481 1466
f 1456 1466 1459
f 1456 1459 1467
f 1456 1467 1486
f 1456 1486 1485
f 1456 1485 1484
f 1456 1484 1483
f 1456 1483 1501
f 1456 1501 1508
f 1456 1508 1518
f 1456 1518 1521
f 1456 1521 1520
f 1456 1520 1512
f 1456 1512 1505
f 1456 1505 1490
f 1456 1490 1474
f 1456 1474 1473
f 1456 1473 1472
f 1456 1472 1468
f 1456 1468 1461
f 1456 1461 1457
f 1457 1461 1462
f 1457 1462 1463
f 1457 1463 1460
f 1458 1464 1465
f 1459 1466 1467
f 1460 1465 1464
f 1460 1463 1465
f 1461 1468 1462
f 1462 1469 1470
f 1462 1470 1471
f 1462 1471 1463
f 1462 1468 1472
f 1462 1472 1473
f 1462 1473 1474
f 1462 1474 1475
f 1462 1475 1469
f 1463 1471 1489
f 1463 1489 1476
f 1463 1476 1477
f 1463 1477 1478
f 1463 1478 1465
f 1465 1479 1480
f 1465 1478 1479
f 1466 1481 1478
f 1466 1478 1492
f 1466 1492 1476
f 1466 1476 1489
f 1466 1489 1487
f 1466 1487 1504
f 1466 1504 1511
f 1466 1511 1523
f 1466 1523 1533
f 1466 1533 1532
f 1466 1532 1531
f 1466 1531 1530
f 1466 1530 1529
f 1466 1529 1528
f 1466 1528 1525
f 1466 1525 1513
f 1466 1513 1506
f 1466 1506 1493
f 1466 1493 1482
f 1466 1482 1483
f 1466 1483 1484
f 1466 1484 1485
f 1466 1485 1486
f 1466 1486 1467
f 1469 1487 1489
f 1469 1489 1470
f 1469 1475 1488
f 1469 1488 1502
f 1469 1502 1487
f 1470 1489 1471
f 1474 1490 1491
f 1474 1491 1475
f 1475 1491 1488
f 1476 1492 1477
f 1477 1492 1478
f 1478 1481 1480
f 1478 1480 1479
f 1482 1493 1494
f 1482 1494 1495
f 1482 1495 1496
f 1482 1496 1497
f 1482 1497 1498
f 1482 1498 1499
f 1482 1499 1500
f 1482 1500 1483
f 1483 1500 1499
f 1483 1499 1498
f 1483 1498 1497
f 1483 1497 1496
f 1483 1496 1495
f 1483 1495 1494
f 1483 1494 1507
f 1483 1507 1516
f 1483 1516 1527
f 1483 1527 1519
f 1483 1519 1509
f 1483 1509 1501
f 1487 1502 1503
f 1487 1503 1504
f 1488 1491 1505
f 1488 1505 1510
f 1488 1510 1502
f 1490 1505 1491
f 1493 1506 1507
f 1493 1507 1494
f 1501 1509 1517
f 1501 1517 1508
f 1502 1510 1511
f 1502 1511 1504
f 1502 1504 1503
f 1505 1512 1510
f 1506 1513 1514
f 1506 1514 1515
f 1506 1515 1507
f 1507 1515 1514
f 1507 1514 1516
f 1508 1517 1518
f 1509 1519 1534
f 1509 1534 1517
f 1510 1512 1520
f 1510 1520 1521
f 1510 1521 1522
f 1510 1522 1511
f 1511 1522 1524
f 1511 1524 1523
f 1513 1525 1514
f 1514 1526 1527
f 1514 1527 1516
f 1514 1525 1528
f 1514 1528 1529
f 1514 1529 1530
f 1514 1530 1531
f 1514 1531 1532
f 1514 1532 1533
f 1514 1533 1526
f 1517 1534 1535
f 1517 1535 1518
f 1518 1535 1524
f 1518 1524 1521
f 1519 1527 1526
f 1519 1526 1536
f 1519 1536 1534
f 1521 1524 1522
f 1523 1524 1534
f 1523 1534 1536
f 1523 1536 1526
f 1523 1526 1533
f 1524 1535 1534
o convex_13
v 0.24939 0.31127 -0.348135
v 0.264518 0.31127 -0.348135
v 0.204004 0.265216 -0.346815
v -0.0611741 0.306014 -0.346815
v -0.0611741 0.31127 -0.346815
v 0.271094 0.31127 -0.345496
v 0.265206 0.285615 -0.346815
v 0.244791 0.265216 -0.346815
v -0.0922477 0.2064 -0.326398
v -0.0922477 0.31127 -0.335248
v 0.281194 0.31127 -0.34045
v 0.278787 0.285615 -0.339984
v 0.267742 0.265216 -0.341692
v 0.251582 0.251623 -0.339984
v 0.206368 0.2064 -0.326398
v -0.0922477 0.2064 -0.0612069
v -0.0922477 0.31127 -0.0448265
v 0.284933 0.31127 -0.338237
v 0.291939 0.31127 -0.331638
v 0.280506 0.27541 -0.336607
v 0.247327 0.224418 -0.321313
v 0.229319 0.2064 -0.321313
v -0.0917749 0.27541 -0.0459134
v -0.0922477 0.274969 -0.0462627
v 0.271309 0.2064 0.0484096
v -0.0922477 0.306014 -0.0448265
v -0.0763456 0.31127 -0.0388489
v 0.297182 0.31127 -0.321158
v 0.254246 0.2064 -0.283235
v 0.260092 0.234622 -0.31619
v 0.34231 0.2064 -0.040712
v 0.251582 0.217621 -0.30602
v 0.239677 0.2064 -0.30602
v -0.0922477 0.276735 -0.0461463
v -0.081589 0.285615 -0.0408285
v 0.346823 0.2064 0.0484096
v 0.256309 0.256315 0.0484096
v -0.0203874 0.306014 -0.0204112
v -0.0203874 0.31127 -0.0204112
v 0.346823 0.31127 -3.28068e-05
v 0.346823 0.265216 -0.0204112
v 0.346823 0.2064 -0.0204112
v 0.25184 0.2064 -0.28797
v 0.346823 0.31127 0.0484096
v 0.249992 0.293222 0.0484096
v 0.249992 0.311199 0.0484096
v 0.250035 0.31127 0.0483708
v 0.250808 0.31127 0.0484096
f 1537 1538 1544
f 1537 1544 1539
f 1537 1539 1540
f 1537 1540 1541
f 1537 1541 1546
f 1537 1546 1553
f 1537 1553 1563
f 1537 1563 1575
f 1537 1575 1583
f 1537 1583 1584
f 1537 1584 1580
f 1537 1580 1576
f 1537 1576 1564
f 1537 1564 1555
f 1537 1555 1554
f 1537 1554 1547
f 1537 1547 1542
f 1537 1542 1538
f 1538 1542 1543
f 1538 1543 1544
f 1539 1545 1540
f 1539 1544 1551
f 1539 1551 1545
f 1540 1545 1546
f 1540 1546 1541
f 1542 1547 1543
f 1543 1547 1548
f 1543 1548 1549
f 1543 1549 1544
f 1544 1549 1550
f 1544 1550 1551
f 1545 1552 1560
f 1545 1560 1570
f 1545 1570 1562
f 1545 1562 1553
f 1545 1553 1546
f 1545 1551 1558
f 1545 1558 1569
f 1545 1569 1579
f 1545 1579 1565
f 1545 1565 1567
f 1545 1567 1578
f 1545 1578 1572
f 1545 1572 1561
f 1545 1561 1552
f 1547 1554 1548
f 1548 1554 1555
f 1548 1555 1556
f 1548 1556 1549
f 1549 1556 1557
f 1549 1557 1558
f 1549 1558 1550
f 1550 1558 1551
f 1552 1559 1560
f 1552 1561 1559
f 1553 1562 1563
f 1555 1564 1556
f 1556 1565 1566
f 1556 1566 1557
f 1556 1564 1567
f 1556 1567 1565
f 1557 1568 1558
f 1557 1566 1568
f 1558 1568 1569
f 1559 1562 1570
f 1559 1570 1560
f 1559 1561 1571
f 1559 1571 1562
f 1561 1572 1580
f 1561 1580 1584
f 1561 1584 1582
f 1561 1582 1581
f 1561 1581 1573
f 1561 1573 1574
f 1561 1574 1571
f 1562 1571 1563
f 1563 1571 1574
f 1563 1574 1575
f 1564 1576 1577
f 1564 1577 1578
f 1564 1578 1567
f 1565 1579 1566
f 1566 1579 1568
f 1568 1579 1569
f 1572 1578 1577
f 1572 1577 1576
f 1572 1576 1580
f 1573 1581 1574
f 1574 1581 1582
f 1574 1582 1575
f 1575 1582 1583
f 1582 1584 1583
o convex_14
v -0.0922477 0.31127 -0.0448274
v -0.0926644 0.31127 0.0484096
v -0.0922477 0.306014 -0.0448274
v -0.0922477 0.31127 -0.335255
v -0.212231 0.31127 0.0484096
v -0.127609 0.2064 0.0484096
v -0.0922477 0.2064 -0.0612309
v -0.0922477 0.274969 -0.0462588
v -0.0922477 0.276735 -0.0461428
v -0.0922477 0.2064 -0.326396
v -0.122415 0.285615 -0.346823
v -0.116506 0.31127 -0.345507
v -0.215222 0.31127 0.0425291
v -0.21354 0.308652 0.0484096
v -0.224405 0.2064 0.0484096
v -0.160841 0.2064 -0.337808
v -0.156421 0.210815 -0.340014
v -0.163223 0.224418 -0.346823
v -0.122415 0.31127 -0.346823
v -0.21866 0.298407 0.0484096
v -0.216978 0.31127 0.0390473
v -0.224405 0.244817 0.0484096
v -0.243618 0.2064 -0.0180556
v -0.18123 0.2064 -0.332702
v -0.17681 0.231224 -0.340014
v -0.193806 0.27541 -0.336609
v -0.183612 0.306014 -0.346823
v -0.183612 0.31127 -0.346823
v -0.224405 0.31127 0.0203998
v -0.22061 0.293222 0.0484096
v -0.224405 0.285615 0.0407882
v -0.239704 0.234622 -0.0714058
v -0.244288 0.2064 -0.0816193
v -0.187466 0.2064 -0.328871
v -0.196902 0.31127 -0.339704
v -0.194104 0.31127 -0.341561
v -0.192779 0.2064 -0.324036
v -0.197199 0.2064 -0.319587
v -0.224405 0.31127 -0.178338
v -0.244288 0.2064 -0.0999185
v -0.198762 0.31127 -0.336919
v -0.201634 0.2064 -0.310766
v -0.204001 0.306014 -0.326396
v -0.204001 0.31127 -0.326396
v -0.224405 0.306014 -0.1836
v -0.224405 0.285615 -0.203988
v -0.224405 0.224418 -0.224376
v -0.224405 0.2064 -0.224376
v -0.20348 0.2064 -0.306007
v -0.219345 0.2064 -0.244803
f 1585 1586 1587
f 1585 1587 1593
f 1585 1593 1592
f 1585 1592 1591
f 1585 1591 1594
f 1585 1594 1588
f 1585 1588 1596
f 1585 1596 1603
f 1585 1603 1612
f 1585 1612 1620
f 1585 1620 1619
f 1585 1619 1625
f 1585 1625 1628
f 1585 1628 1623
f 1585 1623 1613
f 1585 1613 1605
f 1585 1605 1597
f 1585 1597 1589
f 1585 1589 1586
f 1586 1589 1598
f 1586 1598 1604
f 1586 1604 1614
f 1586 1614 1606
f 1586 1606 1599
f 1586 1599 1590
f 1586 1590 1591
f 1586 1591 1592
f 1586 1592 1593
f 1586 1593 1587
f 1588 1594 1595
f 1588 1595 1596
f 1589 1597 1598
f 1590 1599 1607
f 1590 1607 1617
f 1590 1617 1624
f 1590 1624 1632
f 1590 1632 1634
f 1590 1634 1633
f 1590 1633 1626
f 1590 1626 1622
f 1590 1622 1621
f 1590 1621 1618
f 1590 1618 1608
f 1590 1608 1600
f 1590 1600 1594
f 1590 1594 1591
f 1594 1600 1601
f 1594 1601 1602
f 1594 1602 1595
f 1595 1602 1611
f 1595 1611 1612
f 1595 1612 1603
f 1595 1603 1596
f 1597 1604 1598
f 1597 1605 1604
f 1599 1606 1607
f 1600 1608 1602
f 1600 1602 1601
f 1602 1608 1609
f 1602 1609 1610
f 1602 1610 1611
f 1604 1605 1613
f 1604 1613 1614
f 1606 1614 1615
f 1606 1615 1607
f 1607 1615 1613
f 1607 1613 1616
f 1607 1616 1617
f 1608 1618 1609
f 1609 1618 1610
f 1610 1619 1620
f 1610 1620 1611
f 1610 1618 1621
f 1610 1621 1622
f 1610 1622 1619
f 1611 1620 1612
f 1613 1615 1614
f 1613 1623 1616
f 1616 1623 1624
f 1616 1624 1617
f 1619 1622 1625
f 1622 1626 1627
f 1622 1627 1625
f 1623 1628 1629
f 1623 1629 1624
f 1624 1629 1630
f 1624 1630 1631
f 1624 1631 1632
f 1625 1627 1628
f 1626 1633 1627
f 1627 1633 1634
f 1627 1634 1632
f 1627 1632 1631
f 1627 1631 1628
f 1628 1631 1630
f 1628 1630 1629
