# https://github.com/mikedh/trimesh
v 0.85225300 0.00000000 0.11110300
v 0.84293700 -0.04628180 0.12968000
v 0.85225300 0.00000000 0.09259520
v 0.83368500 0.08334720 0.11110300
v 0.84293700 0.03702550 0.12968000
v 0.83368500 0.01851270 0.16669600
v 0.81518100 0.01851270 0.22228800
v 0.81518100 -0.00925637 0.22228800
v 0.84293700 -0.00925637 0.13889900
v 0.84293700 -0.04628180 0.10188400
v 0.83368500 -0.07409080 0.14818800
v 0.83368500 -0.08334720 0.13889900
v 0.84293700 -0.03702550 0.02778340
v 0.84293700 -0.01851270 0.00920631
v 0.84293700 0.00000000 -0.00001291
v 0.84293700 0.02776910 0.01849480
v 0.84293700 0.03702550 0.02778340
v 0.83368500 0.08334720 0.04629120
v 0.82443300 0.11115600 0.09259520
v 0.82443300 0.10190000 0.13889900
v 0.83368500 0.07409080 0.13889900
v 0.83368500 0.06483450 0.14818800
v 0.80592900 0.03702550 0.24079600
v 0.80592900 0.00925637 0.24100400
v 0.82443300 0.06483450 0.17598400
v 0.80592900 -0.01835310 0.24100400
v 0.80586400 -0.02764940 0.24100400
v 0.80592900 -0.02776910 0.24079600
v 0.80592900 -0.05557810 0.23157700
v 0.81518100 -0.06483450 0.20378000
v 0.83368500 -0.08334720 0.04629120
v 0.83137200 -0.08450420 0.14818800
v 0.82751700 -0.09571560 0.13889900
v 0.82443300 -0.11115600 0.08330670
v 0.84062400 -0.04165360 0.02313910
v 0.84062400 -0.03239730 0.01385060
v 0.84062400 -0.02314090 0.00463136
v 0.84062400 -0.00462818 -0.00465718
v 0.83676900 0.00000000 -0.01242070
v 0.84062400 0.00925637 -0.00119131
v 0.84062400 0.03702550 0.01731650
v 0.83137200 0.08334720 0.03589350
v 0.82443300 0.11115600 0.04629120
v 0.81826500 0.12348500 0.09571450
v 0.81826500 0.11422800 0.14201900
v 0.81980700 0.10652800 0.15283200
v 0.82443300 0.09260360 0.15747600
v 0.83214300 0.07253480 0.14666300
v 0.82289100 0.09108740 0.16517100
v 0.82443300 0.08334720 0.16669600
v 0.80130300 0.06946260 0.23622100
v 0.79886100 0.06706880 0.24100400
v 0.80580000 0.03694570 0.24100400
v 0.80592900 0.05557810 0.23157700
v 0.80117400 -0.05541850 0.24100400
v 0.80284500 -0.05865020 0.23774600
v 0.81209700 -0.06790660 0.20995000
v 0.82443300 -0.11115600 0.04629120
v 0.83137200 -0.08797540 0.04164690
v 0.82134900 -0.09571560 0.16364600
v 0.81826500 -0.10497200 0.15747600
v 0.80901300 -0.12348500 0.14818800
v 0.80901300 -0.13274100 0.11110300
v 0.81826500 -0.12348500 0.08330670
v 0.82212000 -0.11578400 0.04164690
v 0.83137200 -0.07871900 0.03235830
v 0.82212000 -0.10652800 0.03235830
v 0.83715400 -0.02776910 -0.00001291
v 0.83715400 -0.00925637 -0.00930145
v 0.82212000 -0.00462818 -0.04174200
v 0.81826500 0.00000000 -0.04943630
v 0.82212000 0.00925637 -0.03827620
v 0.83831100 0.04165360 0.01620740
v 0.82905900 0.07871900 0.02542660
v 0.83137200 0.07409080 0.02660500
v 0.82134900 0.11730000 0.04317190
v 0.81826500 0.12348500 0.04934110
v 0.80901300 0.13274100 0.09571450
v 0.79969700 0.14203700 0.10493400
v 0.77194100 0.16055000 0.16981500
v 0.80901300 0.12348500 0.15123800
v 0.79969700 0.12348500 0.18832300
v 0.81980700 0.09723170 0.17134000
v 0.79198600 0.10652800 0.22693200
v 0.78273400 0.11578400 0.23622100
v 0.78498300 0.10202000 0.24100400
v 0.78267000 -0.10174000 0.24100400
v 0.78427700 -0.10497200 0.23774600
v 0.78504800 -0.11231300 0.23157700
v 0.79198600 -0.12272700 0.20842500
v 0.80284500 -0.11422800 0.19144200
v 0.81980700 -0.09954580 0.16205100
v 0.79430000 -0.13082600 0.19449200
v 0.79198600 -0.13661100 0.18984800
v 0.79352900 -0.13585300 0.18520300
v 0.79969700 -0.13274100 0.16669600
v 0.79044500 -0.14203700 0.17598400
v 0.79044500 -0.15129400 0.12039200
v 0.80901300 -0.13274100 0.04629120
v 0.81826500 -0.12348500 0.04629120
v 0.80939800 -0.12966900 0.03700260
v 0.81749400 -0.11578400 0.03235830
v 0.81286800 -0.07871900 -0.00465718
v 0.81865000 -0.00925637 -0.04638630
v 0.79044500 0.00000000 -0.09574030
v 0.79430000 0.00925637 -0.08458020
v 0.81980700 0.01388450 -0.03938520
v 0.81980700 0.11578400 0.03935940
v 0.78273400 0.02314090 -0.09497780
v 0.80130300 0.13429700 0.02542660
v 0.80284500 0.13585300 0.03395260
v 0.80901300 0.13274100 0.04934110
v 0.79969700 0.14203700 0.08642600
v 0.78427700 0.15436600 0.11727200
v 0.76423100 0.16210600 0.17134000
v 0.77348300 0.14355300 0.20842500
v 0.78119300 0.14203700 0.19761100
v 0.76268900 0.16980600 0.14201900
v 0.75652100 0.17291800 0.13584900
v 0.77965100 0.13122500 0.22381300
v 0.78273400 0.12504100 0.22693200
v 0.79198600 0.11578400 0.21764400
v 0.77348300 0.12504100 0.24100400
v 0.78035700 0.11339000 0.24100400
v 0.77798000 -0.10772500 0.24100400
v 0.78273400 -0.10884200 0.23622100
v 0.76898500 -0.11442800 0.24100400
v 0.77810800 -0.11422800 0.23462700
v 0.78273400 -0.11809800 0.22693200
v 0.79198600 -0.13198300 0.19913600
v 0.78736000 -0.14239600 0.18520300
v 0.76885700 -0.16094900 0.16669600
v 0.77194100 -0.16055000 0.15747600
v 0.79044500 -0.15129400 0.11110300
v 0.76268900 -0.16980600 0.13889900
v 0.78119300 -0.15129400 0.02778340
v 0.80284500 -0.13585300 0.03700260
v 0.80361600 -0.13429700 0.03235830
v 0.79969700 -0.14203700 0.07408750
v 0.79430000 -0.13429700 0.01385060
v 0.79892600 -0.11578400 0.00463136
v 0.80824200 -0.08797540 -0.00465718
v 0.80008200 -0.02776910 -0.06489410
v 0.80939800 -0.01851270 -0.05560550
v 0.79083000 -0.00925637 -0.09269040
v 0.78119300 -0.00925637 -0.10502900
v 0.75343700 0.00000000 -0.14197500
v 0.78119300 0.00925637 -0.10502900
v 0.79198600 0.01388450 -0.08568930
v 0.75497900 0.01388450 -0.13199300
v 0.76423100 0.05094990 -0.09497780
v 0.76423100 0.12504100 -0.03938520
v 0.75497900 0.16210600 -0.02087750
v 0.75343700 0.16980600 0.03083340
v 0.75652100 0.16362200 -0.01242070
v 0.76268900 0.16980600 0.12351100
v 0.75960500 0.16673400 0.15747600
v 0.75844800 0.16442000 0.16669600
v 0.75960500 0.14818200 0.20378000
v 0.76885700 0.13892500 0.22228800
v 0.77194100 0.13274100 0.23462700
v 0.75652100 0.17291800 0.11727200
v 0.73795200 0.18217500 0.09876450
v 0.75035300 0.17599100 0.12968000
v 0.76898500 0.12727500 0.24100400
v 0.76885700 -0.11446800 0.24100400
v 0.76885700 -0.11462700 0.24079600
v 0.77810800 -0.12388400 0.22228800
v 0.77810800 -0.14239600 0.19449200
v 0.75497900 -0.15516400 0.18062800
v 0.76423100 -0.16442000 0.16205100
v 0.75960500 -0.17020500 0.14818800
v 0.75035300 -0.14239600 0.20378000
v 0.76268900 -0.16980600 0.11110300
v 0.77194100 -0.16055000 0.06479890
v 0.75497900 -0.17367700 0.14354400
v 0.75652100 -0.17291800 0.13889900
v 0.75343700 -0.16980600 0.02778340
v 0.76268900 -0.16055000 -0.00001291
v 0.75729200 -0.16210600 -0.01394570
v 0.79044500 -0.14203700 0.01849480
v 0.75266600 -0.16210600 -0.02316490
v 0.76191800 -0.12504100 -0.04174200
v 0.78967400 -0.04165360 -0.06953830
v 0.78042200 -0.02314090 -0.09733460
v 0.78504800 -0.01388450 -0.09733460
v 0.70711200 0.00000000 -0.18834800
v 0.60521200 0.00925637 -0.29024500
v 0.63296800 0.00925637 -0.26244900
v 0.75266600 -0.01388450 -0.13428100
v 0.63296800 -0.00925637 -0.26244900
v 0.60521200 -0.00925637 -0.29024500
v 0.69940200 0.06946260 -0.15050100
v 0.63451000 0.02314090 -0.25239800
v 0.60675400 0.05094990 -0.26168600
v 0.60675400 0.15281000 -0.18758600
v 0.67158200 0.13429700 -0.13199300
v 0.69940200 0.14355300 -0.09497780
v 0.75035300 0.16442000 -0.01969910
v 0.66233000 0.17136200 -0.11341600
v 0.65770400 0.17367700 -0.11237700
v 0.74720400 0.17291800 0.02466410
v 0.73795200 0.18217500 0.08025670
v 0.74412000 0.17906300 0.08642600
v 0.75035300 0.16673400 -0.00930145
v 0.74913200 0.17367700 0.13889900
v 0.75035300 0.16673400 0.15747600
v 0.74720400 0.16362200 0.16364600
v 0.75652100 0.14510900 0.20995000
v 0.76268900 0.14203700 0.21611900
v 0.76577300 0.13585300 0.22845700
v 0.75954000 0.12958900 0.24100400
v 0.73178400 0.18524700 0.09259520
v 0.74103600 0.17599100 0.12968000
v 0.73062800 0.18293300 0.10188400
v 0.76840700 -0.11458700 0.24100400
v 0.76885700 -0.13314000 0.21300000
v 0.75035300 -0.15747800 0.17598400
v 0.75035300 -0.16673400 0.15747600
v 0.75960500 -0.16673400 0.15747600
v 0.74566200 -0.14586800 0.19913600
v 0.75960500 -0.13274100 0.21611900
v 0.74103600 -0.12348500 0.23462700
v 0.73191300 -0.12033300 0.24100400
v 0.75652100 -0.17291800 0.11110300
v 0.74412000 -0.17906300 0.07408750
v 0.73641000 -0.18293300 0.10652800
v 0.75035300 -0.17599100 0.12968000
v 0.74103600 -0.16442000 0.15858500
v 0.20384200 -0.20144600 -0.19333900
v 0.21309400 -0.20380000 -0.19451800
v 0.54186100 -0.20144600 -0.03245350
v 0.67620800 -0.19450300 0.04629120
v 0.73795200 -0.18217500 0.10188400
v 0.74720400 -0.17291800 0.02778340
v 0.75035300 -0.16673400 -0.00930145
v 0.75652100 -0.16362200 -0.00930145
v 0.73795200 -0.18217500 0.07408750
v 0.75150900 -0.16442000 -0.01859000
v 0.66001700 -0.17136200 -0.11577300
v 0.76191800 -0.08797540 -0.06953830
v 0.63219700 -0.16210600 -0.15278900
v 0.65153600 0.00000000 -0.24394100
v 0.59750200 0.01388450 -0.29405800
v 0.59750200 0.02314090 -0.28948300
v 0.58664400 0.00000000 -0.30875300
v 0.59281200 0.00925637 -0.29988000
v 0.62525800 0.02314090 -0.26168600
v 0.59512500 -0.15281000 -0.19916200
v 0.58587300 -0.11578400 -0.23617800
v 0.63219700 -0.02314090 -0.25468500
v 0.61369300 -0.02314090 -0.27326200
v 0.59512500 -0.02314090 -0.29177000
v 0.59750200 0.05094990 -0.27090600
v 0.58818600 0.11578400 -0.23389000
v 0.56968200 0.17136200 -0.21073800
v 0.57122400 0.17291800 -0.20685600
v 0.56968200 0.18061900 -0.19680500
v 0.56505600 0.18293300 -0.19562700
v 0.56505600 0.18524700 -0.18522900
v 0.65770400 0.17599100 -0.10191000
v 0.74103600 0.17599100 0.02778340
v 0.73178400 0.18524700 0.08330670
v 0.72253200 0.18524700 0.04629120
v 0.21309400 0.20380000 -0.19451800
v 0.21001000 0.20068800 -0.18834800
v 0.75652100 0.13585300 0.22845700
v 0.19587500 0.20100700 -0.19638900
v 0.74932500 0.12735500 0.24100400
v 0.72253200 0.18524700 0.09259520
v 0.67620800 0.19450300 0.04629120
v 0.52798300 0.20380000 -0.04638630
v 0.73178400 -0.12033300 0.24100400
v 0.73056400 -0.12009300 0.24100400
v 0.72253200 -0.11849700 0.24100400
v 0.66695600 -0.12735500 0.19567000
v 0.64845200 -0.13661100 0.16787400
v 0.73178400 -0.18524700 0.09259520
v 0.19587500 -0.18835900 -0.17289100
v 0.19587500 -0.19486200 -0.18543700
v 0.19587500 -0.19805400 -0.19160600
v 0.19587500 -0.20080700 -0.19694400
v 0.19587500 -0.20344100 -0.20228100
v 0.19587500 -0.20380000 -0.20373700
v 0.52798300 -0.20380000 -0.04638630
v 0.52798300 -0.20380000 -0.05560550
v 0.64845200 -0.19450300 0.00920631
v 0.56505600 -0.18524700 -0.19451800
v 0.62063200 -0.18524700 -0.11119800
v 0.65770400 -0.18524700 -0.05560550
v 0.67620800 -0.18524700 -0.02780920
v 0.72253200 -0.18524700 0.04629120
v 0.73178400 -0.18524700 0.07408750
v 0.74103600 -0.17599100 0.02778340
v 0.73178400 -0.17599100 0.00920631
v 0.71328000 -0.17599100 -0.01859000
v 0.65886100 -0.17367700 -0.11119800
v 0.56814000 -0.18217500 -0.20068700
v 0.57199500 -0.18061900 -0.19916200
v 0.57199500 -0.17136200 -0.20838100
v 0.57893400 0.00462818 -0.31263500
v 0.57893400 0.04165360 -0.28948300
v 0.57893400 0.10652800 -0.24775400
v 0.58124700 -0.00462818 -0.31027800
v 0.57739200 -0.00614431 -0.31187200
v 0.39222300 0.00000000 -0.41065000
v 0.57662100 -0.15281000 -0.21767000
v 0.59512500 -0.05094990 -0.27326200
v 0.57662100 -0.04165360 -0.29177000
v 0.56505600 0.16673400 -0.21649100
v 0.34744100 0.17136200 -0.32649800
v 0.54655200 0.17906300 -0.21614500
v 0.56043000 0.18061900 -0.20609400
v 0.57430800 0.10190000 -0.25357600
v 0.55580400 0.18293300 -0.20491500
v 0.55580400 0.18524700 -0.19451800
v 0.51879600 0.20380000 -0.06489410
v 0.54655200 0.19450300 -0.12041700
v 0.19587500 0.20380000 -0.20373700
v 0.19587500 0.20340100 -0.20221200
v 0.74797500 0.13429700 0.22693200
v 0.19587500 0.18835900 -0.17289100
v 0.68314700 0.11578400 0.22693200
v 0.68237600 0.10804400 0.23774600
v 0.68565300 0.10644800 0.24100400
v 0.68295400 -0.10581000 0.24100400
v 0.19587500 -0.15129400 -0.12658700
v 0.19587500 -0.20380000 -0.22092800
v 0.51879600 -0.20380000 -0.06489410
v 0.56505600 -0.19450300 -0.10191000
v 0.21309400 -0.19450300 -0.29641400
v 0.50954400 -0.18524700 -0.22231400
v 0.51262800 -0.18217500 -0.22848300
v 0.52110900 -0.18061900 -0.22695800
v 0.55811700 -0.18061900 -0.20838100
v 0.55811700 -0.17136200 -0.21767000
v 0.56814000 -0.17291800 -0.20990600
v 0.56736900 -0.16210600 -0.21767000
v 0.56505600 0.03702550 -0.29988000
v 0.38444900 0.00462818 -0.41453100
v 0.52798300 0.00925637 -0.33689600
v 0.53954800 -0.01388450 -0.32885500
v 0.38290700 -0.00614431 -0.41376900
v 0.34975400 -0.00462818 -0.43075200
v 0.38599100 0.00000000 -0.41376900
v 0.57662100 -0.06946260 -0.27326200
v 0.52110900 -0.11578400 -0.27326200
v 0.55811700 -0.14355300 -0.23617800
v 0.54655200 0.13892500 -0.24428800
v 0.41689500 0.15747800 -0.29988000
v 0.33349900 0.16673400 -0.33689600
v 0.31499500 0.16673400 -0.34618400
v 0.31962100 0.17136200 -0.34043100
v 0.50029200 0.18293300 -0.23271200
v 0.49097500 0.17906300 -0.24394100
v 0.48172300 0.18293300 -0.24200000
v 0.49097500 0.08334720 -0.30916900
v 0.54655200 0.18524700 -0.20373700
v 0.50954400 0.18524700 -0.22231400
v 0.46321900 0.20380000 -0.09269040
v 0.19587500 0.20380000 -0.21170800
v 0.19587500 0.15129400 -0.12658700
v 0.67967800 0.10182000 0.24100400
v 0.19587500 0.11422800 -0.08035180
v 0.67922800 -0.10321600 0.24100400
v 0.19587500 -0.11422800 -0.08035180
v 0.21309400 -0.20380000 -0.21302500
v 0.19587500 -0.19450300 -0.30431700
v 0.46321900 -0.20380000 -0.09269040
v 0.28717400 -0.18524700 -0.33343000
v 0.39839100 -0.18524700 -0.27790700
v 0.34589900 -0.18217500 -0.31187200
v 0.37288400 -0.18061900 -0.30105900
v 0.34512800 -0.17136200 -0.32885500
v 0.49328800 -0.15281000 -0.26397400
v 0.41689500 0.02776910 -0.38326900
v 0.34744100 0.00462818 -0.43303900
v 0.35206700 0.03702550 -0.41106500
v 0.51185700 -0.05094990 -0.31956600
v 0.44702800 -0.06020630 -0.34736300
v 0.34512800 -0.04165360 -0.41217500
v 0.34589900 -0.00614431 -0.43227700
v 0.34898300 0.00000000 -0.43227700
v 0.34281500 0.00000000 -0.43532700
v 0.38213600 -0.06946260 -0.37515900
v 0.34281500 0.10190000 -0.37398100
v 0.30574300 0.15747800 -0.35547300
v 0.29186500 0.17136200 -0.34965000
v 0.32424700 0.10190000 -0.38326900
v 0.28717400 0.17291800 -0.34888800
v 0.29649100 0.17906300 -0.33654900
v 0.34281500 0.17906300 -0.31804100
v 0.37057100 0.18293300 -0.29759300
v 0.39839100 0.18524700 -0.27790700
v 0.36131900 0.18524700 -0.29641400
v 0.34281500 0.18524700 -0.30563400
v 0.27792200 0.19450300 -0.25933000
v 0.25016600 0.20380000 -0.19451800
v 0.22234600 0.20380000 -0.20373700
v 0.29649100 0.18524700 -0.32421100
v 0.23159800 0.18524700 -0.33343000
v 0.19587500 0.18524700 -0.33343000
v 0.19587500 0.09076820 -0.06766680
v 0.67286700 0.09272320 0.24100400
v 0.67865000 -0.10273800 0.24100400
v 0.19587500 -0.10716600 -0.07626210
v 0.19587500 -0.18524700 -0.35200700
v 0.22234600 -0.18524700 -0.35200700
v 0.25941800 -0.18524700 -0.34271800
v 0.29032300 -0.18217500 -0.33959900
v 0.29880400 -0.18061900 -0.33807400
v 0.32656000 -0.17136200 -0.33807400
v 0.33581200 -0.10652800 -0.37515900
v 0.31036900 0.00462818 -0.44232800
v 0.31499500 0.00925637 -0.43886200
v 0.33349900 0.01851270 -0.42957300
v 0.32424700 0.05557810 -0.41106500
v 0.33812500 0.04165360 -0.41453100
v 0.31730800 -0.16210600 -0.34736300
v 0.30805600 -0.15281000 -0.35658200
v 0.32656000 -0.05094990 -0.41217500
v 0.33658300 -0.04320970 -0.41376900
v 0.33581200 -0.01388450 -0.43075200
v 0.30882700 -0.02469690 -0.43227700
v 0.30882700 -0.00614431 -0.44156500
v 0.26867000 0.00000000 -0.45390400
v 0.22697200 0.17136200 -0.36822700
v 0.22234600 0.17291800 -0.36739500
v 0.29649100 0.18217500 -0.33038000
v 0.30574300 0.18293300 -0.32532000
v 0.35206700 0.18293300 -0.30681200
v 0.22234600 0.17599100 -0.36122600
v 0.19587500 0.17399600 -0.37016800
v 0.19587500 0.08486330 -0.06524060
v 0.67280300 0.09260360 0.24100400
v 0.67813600 -0.10190000 0.24100400
v 0.19587500 -0.08334720 -0.06489410
v 0.19587500 -0.10190000 -0.07362810
v 0.19587500 -0.18229500 -0.35866100
v 0.22543000 -0.18217500 -0.35817600
v 0.26250200 -0.18217500 -0.34888800
v 0.28409000 -0.17906300 -0.34583800
v 0.29880400 -0.17136200 -0.34736300
v 0.29186500 0.01388450 -0.44232800
v 0.27329600 0.00462818 -0.45154700
v 0.29649100 0.01851270 -0.43886200
v 0.31499500 0.02776910 -0.42957300
v 0.29957500 -0.15436600 -0.35817600
v 0.31807900 -0.05246600 -0.41376900
v 0.31730800 -0.02314090 -0.43075200
v 0.24399800 -0.03395330 -0.44156500
v 0.29032300 -0.01540070 -0.44156500
v 0.29032300 -0.12659700 -0.37668400
v 0.28100600 -0.09878780 -0.39519200
v 0.27175400 -0.00614431 -0.45078400
v 0.19587500 -0.00925637 -0.46492500
v 0.22234600 0.00000000 -0.46312300
v 0.19587500 0.00925637 -0.46610400
v 0.21309400 0.16673400 -0.37398100
v 0.20384200 0.16980600 -0.37356500
v 0.19587500 0.17299800 -0.37197000
v 0.19587500 0.17355700 -0.37106900
v 0.19587500 0.05805180 -0.05796230
v 0.63605200 0.00925637 0.23462700
v 0.65063700 0.02274190 0.24100400
v 0.19587500 0.01851270 -0.04770330
v 0.19587500 0.00925637 -0.04569310
v 0.67421600 -0.09260360 0.24100400
v 0.19587500 -0.08203050 -0.06440880
v 0.19587500 -0.17906300 -0.36434600
v 0.20075800 -0.17906300 -0.36434600
v 0.23468200 -0.16362200 -0.36739500
v 0.29032300 -0.17291800 -0.34888800
v 0.20692600 -0.17291800 -0.36739500
v 0.19767400 -0.14510900 -0.38597300
v 0.22543000 -0.13585300 -0.38597300
v 0.19587500 0.01013410 -0.46568800
v 0.27792200 0.00925637 -0.44808100
v 0.21309400 0.01851270 -0.45737000
v 0.25016600 0.03702550 -0.43886200
v 0.19767400 -0.09878780 -0.41376900
v 0.20692600 -0.01540070 -0.46007300
v 0.19587500 0.00000000 -0.46714300
v 0.19767400 -0.03395330 -0.45078400
v 0.19587500 -0.03570880 -0.44995300
v 0.19587500 0.15835600 -0.38229900
v 0.64389000 0.00000000 0.24100400
v 0.19587500 -0.00925637 -0.04569310
v 0.64446900 -0.01176990 0.24100400
v 0.20384200 -0.01851270 -0.04285110
v 0.19587500 -0.04628180 -0.05512030
v 0.19587500 -0.16338300 -0.37446600
v 0.19587500 -0.14686500 -0.38507100
v 0.19587500 -0.07077930 -0.43005800
v 0.19690300 -0.06946260 -0.43075200
v 0.19587500 -0.10054300 -0.41286800
v 0.64389000 -0.00925637 0.24100400
f 268 488 467
f 268 323 269
f 268 322 323
f 268 362 322
f 268 364 362
f 268 466 463
f 268 491 488
f 268 434 403
f 268 463 434
f 268 467 466
f 268 269 321
f 268 403 364
f 269 323 324
f 287 330 288
f 271 317 272
f 271 318 317
f 275 326 276
f 276 326 279
f 279 326 327
f 286 329 288
f 286 288 330
f 286 330 287
f 288 331 332
f 288 332 333
f 288 298 297
f 268 469 491
f 288 333 298
f 269 324 325
f 268 437 469
f 268 477 458
f 268 406 438
f 268 402 433
f 288 329 331
f 268 433 462
f 268 462 461
f 268 461 486
f 268 486 477
f 268 458 483
f 268 483 456
f 268 456 485
f 268 485 494
f 268 494 496
f 268 496 493
f 268 493 492
f 268 492 470
f 268 470 439
f 268 439 407
f 268 407 368
f 268 368 328
f 268 328 284
f 268 284 283
f 268 283 282
f 268 282 281
f 268 281 280
f 268 280 279
f 268 279 327
f 268 327 366
f 268 366 406
f 268 438 437
f 289 296 290
f 316 358 317
f 290 295 291
f 310 349 350
f 310 350 311
f 311 350 351
f 311 351 352
f 311 352 353
f 311 353 312
f 312 354 315
f 312 315 313
f 312 353 355
f 312 355 393
f 312 393 356
f 312 356 354
f 314 339 357
f 314 357 349
f 315 358 316
f 315 354 359
f 315 359 358
f 317 358 359
f 317 359 394
f 317 394 360
f 322 362 324
f 322 324 323
f 324 363 325
f 324 362 364
f 324 364 363
f 326 365 366
f 268 361 402
f 310 314 349
f 290 296 295
f 309 348 347
f 309 346 336
f 291 295 292
f 292 294 293
f 298 333 334
f 298 334 335
f 298 335 336
f 298 336 337
f 298 337 300
f 298 300 299
f 300 337 336
f 300 336 338
f 300 338 307
f 301 339 302
f 301 306 340
f 301 340 341
f 301 341 339
f 302 339 314
f 302 314 303
f 305 309 342
f 305 342 343
f 305 343 306
f 306 343 344
f 306 344 345
f 306 345 340
f 307 338 308
f 308 338 336
f 308 336 346
f 309 347 342
f 309 336 348
f 268 319 361
f 221 274 275
f 267 268 321
f 230 283 231
f 230 277 276
f 230 276 279
f 231 284 328
f 231 328 367
f 231 367 369
f 231 369 329
f 231 329 286
f 231 286 285
f 231 285 232
f 232 285 233
f 233 285 286
f 233 286 287
f 233 287 288
f 233 288 289
f 233 289 290
f 233 290 291
f 233 291 292
f 233 292 293
f 233 293 278
f 234 278 293
f 234 293 238
f 235 294 236
f 235 238 293
f 235 293 294
f 236 239 237
f 236 294 292
f 230 282 283
f 236 292 295
f 230 281 282
f 230 279 280
f 209 212 210
f 209 266 268
f 209 268 267
f 210 212 211
f 212 267 269
f 213 270 215
f 213 263 271
f 213 271 270
f 214 215 270
f 214 270 271
f 214 271 272
f 214 272 265
f 216 224 223
f 216 223 222
f 216 222 217
f 218 221 219
f 219 221 229
f 221 224 273
f 221 273 274
f 326 366 327
f 221 275 276
f 221 276 277
f 221 277 230
f 221 230 229
f 227 278 228
f 227 233 278
f 228 278 234
f 230 280 281
f 268 320 319
f 236 295 296
f 236 289 288
f 256 311 312
f 256 312 313
f 256 313 257
f 256 303 314
f 256 314 310
f 257 313 258
f 258 313 315
f 258 315 259
f 259 315 316
f 259 316 260
f 260 316 317
f 260 317 318
f 260 318 271
f 260 271 264
f 260 264 261
f 262 264 263
f 263 264 271
f 265 319 320
f 265 320 266
f 265 272 317
f 265 317 360
f 265 360 398
f 265 398 399
f 265 399 361
f 265 361 319
f 266 320 268
f 267 321 269
f 256 310 311
f 236 296 289
f 254 256 255
f 253 305 304
f 236 288 297
f 236 297 239
f 240 297 298
f 240 298 299
f 240 299 300
f 240 300 242
f 241 242 249
f 242 300 249
f 244 247 301
f 244 301 245
f 245 301 302
f 245 302 303
f 245 303 254
f 246 301 247
f 246 253 304
f 246 304 305
f 246 305 306
f 246 306 301
f 249 300 307
f 249 307 250
f 250 307 308
f 250 308 251
f 251 308 252
f 252 308 253
f 253 308 346
f 253 346 309
f 253 309 305
f 254 303 256
f 328 368 331
f 387 427 388
f 329 369 331
f 424 451 452
f 424 452 425
f 424 450 449
f 424 449 448
f 424 448 453
f 424 453 454
f 424 454 451
f 425 452 455
f 425 455 426
f 426 455 456
f 426 456 457
f 426 457 458
f 426 458 445
f 427 459 460
f 427 460 461
f 427 461 428
f 427 447 459
f 428 461 462
f 428 462 432
f 432 462 433
f 434 463 435
f 435 464 465
f 435 463 466
f 435 466 467
f 435 467 464
f 436 468 469
f 436 469 437
f 423 450 424
f 439 470 471
f 422 450 423
f 421 448 449
f 404 434 435
f 405 436 437
f 405 437 438
f 405 438 406
f 407 439 408
f 408 439 440
f 408 440 441
f 408 441 409
f 409 441 410
f 410 441 442
f 410 442 411
f 411 442 412
f 412 442 443
f 412 443 419
f 412 419 413
f 414 444 446
f 414 446 415
f 414 426 445
f 414 445 444
f 415 446 447
f 415 447 416
f 416 447 417
f 417 447 427
f 419 443 420
f 420 443 448
f 420 448 421
f 421 449 422
f 422 449 450
f 403 434 404
f 439 471 440
f 440 448 473
f 459 480 479
f 459 479 477
f 459 477 486
f 460 486 461
f 464 487 465
f 464 467 487
f 467 488 497
f 467 497 487
f 468 489 488
f 468 488 490
f 468 490 491
f 468 491 469
f 470 492 471
f 471 492 493
f 471 493 475
f 471 475 474
f 475 493 496
f 475 496 481
f 477 479 478
f 481 494 495
f 481 495 482
f 481 496 494
f 482 495 484
f 484 495 485
f 485 495 494
f 488 491 490
f 488 489 497
f 459 486 460
f 440 472 448
f 457 483 458
f 456 482 484
f 440 473 442
f 440 442 441
f 440 471 474
f 440 474 475
f 440 475 481
f 440 481 476
f 440 476 472
f 442 473 443
f 443 473 448
f 444 445 478
f 444 478 446
f 445 458 477
f 445 477 478
f 446 478 479
f 446 479 480
f 446 480 447
f 447 480 459
f 448 472 476
f 448 476 453
f 451 481 482
f 451 482 452
f 451 454 476
f 451 476 481
f 452 482 455
f 453 476 454
f 455 482 456
f 456 483 457
f 456 484 485
f 328 331 367
f 401 433 402
f 400 431 430
f 347 380 379
f 347 348 375
f 349 357 350
f 350 357 378
f 350 378 386
f 350 386 351
f 351 386 352
f 352 387 388
f 352 388 353
f 352 386 389
f 352 389 387
f 353 388 390
f 353 390 391
f 353 391 392
f 353 392 355
f 354 356 359
f 355 392 393
f 356 393 394
f 356 394 359
f 357 376 378
f 360 394 395
f 360 395 396
f 360 396 397
f 360 397 398
f 361 399 397
f 361 397 400
f 361 400 401
f 347 385 380
f 361 401 402
f 347 375 385
f 344 382 384
f 331 369 367
f 331 368 370
f 331 370 371
f 331 371 332
f 332 371 372
f 332 372 333
f 333 372 334
f 334 372 373
f 334 373 374
f 334 374 335
f 335 374 336
f 336 374 375
f 336 375 348
f 339 341 376
f 339 376 357
f 340 345 383
f 340 383 377
f 340 377 378
f 340 378 376
f 340 376 341
f 342 347 379
f 342 379 380
f 342 380 381
f 342 381 343
f 343 381 382
f 343 382 344
f 344 383 345
f 344 384 383
f 401 432 433
f 363 403 404
f 365 405 366
f 382 422 423
f 382 423 424
f 382 424 425
f 382 425 426
f 382 426 384
f 387 389 417
f 387 417 427
f 209 267 212
f 388 427 390
f 389 418 417
f 390 427 428
f 390 428 391
f 391 428 429
f 391 429 430
f 391 430 431
f 391 431 392
f 392 431 393
f 393 431 396
f 393 396 395
f 393 395 394
f 396 431 400
f 396 400 397
f 397 399 398
f 400 430 429
f 400 429 428
f 400 428 432
f 400 432 401
f 381 422 382
f 363 364 403
f 381 421 422
f 381 419 420
f 366 405 406
f 368 407 408
f 368 408 409
f 368 409 370
f 370 372 371
f 370 409 410
f 370 410 372
f 372 410 411
f 372 411 373
f 373 411 374
f 374 411 412
f 374 412 413
f 374 413 381
f 374 381 385
f 374 385 375
f 377 384 426
f 377 426 414
f 377 414 415
f 377 415 416
f 377 416 417
f 377 417 418
f 377 418 378
f 377 383 384
f 378 418 389
f 378 389 386
f 380 385 381
f 381 413 419
f 381 420 421
f 208 266 209
f 231 283 284
f 207 265 208
f 44 112 78
f 45 81 82
f 45 82 46
f 46 82 83
f 46 83 47
f 47 83 49
f 49 83 50
f 50 83 51
f 50 51 54
f 51 84 85
f 51 85 86
f 51 86 52
f 51 83 84
f 55 87 56
f 56 87 88
f 56 88 89
f 56 89 90
f 56 90 57
f 57 90 91
f 57 91 60
f 59 65 67
f 59 67 66
f 60 92 61
f 60 91 93
f 60 93 92
f 61 92 93
f 61 93 94
f 44 77 112
f 61 94 95
f 44 81 45
f 44 79 80
f 33 63 64
f 33 64 34
f 34 64 65
f 34 65 58
f 35 59 66
f 35 66 36
f 36 66 67
f 36 67 37
f 37 67 68
f 37 68 69
f 37 69 38
f 38 69 104
f 38 104 70
f 38 70 39
f 39 70 71
f 39 71 72
f 39 72 40
f 40 72 41
f 41 73 74
f 41 74 75
f 41 75 42
f 41 72 107
f 41 107 73
f 42 76 43
f 42 75 76
f 43 76 77
f 44 78 79
f 44 80 81
f 33 62 63
f 61 95 96
f 62 96 63
f 77 111 112
f 78 112 113
f 78 113 79
f 79 113 114
f 79 114 80
f 80 115 116
f 80 116 117
f 80 117 81
f 80 114 118
f 80 118 119
f 80 119 115
f 81 117 82
f 82 117 120
f 82 120 121
f 82 121 122
f 82 122 83
f 83 122 84
f 84 122 121
f 84 121 85
f 85 123 124
f 85 124 86
f 85 121 123
f 87 125 88
f 88 126 89
f 88 125 126
f 89 126 125
f 89 125 127
f 77 110 111
f 61 96 62
f 76 110 77
f 74 109 108
f 63 96 97
f 63 97 98
f 63 98 134
f 63 134 99
f 63 99 100
f 63 100 64
f 64 100 65
f 65 100 101
f 65 101 138
f 65 138 102
f 65 102 67
f 67 102 142
f 67 142 103
f 67 103 104
f 67 104 68
f 68 104 69
f 70 104 71
f 71 104 145
f 71 145 105
f 71 105 106
f 71 106 72
f 72 106 149
f 72 149 107
f 73 107 74
f 74 108 76
f 74 76 75
f 74 107 109
f 76 108 110
f 33 61 62
f 32 57 60
f 32 61 33
f 7 24 26
f 7 26 8
f 7 25 23
f 8 26 27
f 8 27 28
f 8 28 29
f 8 29 30
f 8 30 11
f 10 31 13
f 11 30 32
f 11 32 12
f 12 32 33
f 12 33 34
f 12 34 58
f 12 58 31
f 13 31 59
f 13 59 35
f 13 35 36
f 13 36 14
f 14 36 37
f 14 37 38
f 14 38 15
f 15 38 39
f 15 39 40
f 15 40 41
f 15 41 16
f 16 41 17
f 7 23 24
f 17 41 18
f 6 25 7
f 5 22 6
f 1 2 10
f 1 10 3
f 1 3 18
f 1 18 4
f 1 4 5
f 1 5 6
f 1 6 7
f 1 7 8
f 1 8 9
f 1 9 2
f 2 9 8
f 2 8 11
f 2 11 12
f 2 12 31
f 2 31 10
f 3 10 13
f 3 13 14
f 3 14 15
f 3 15 16
f 3 16 17
f 3 17 18
f 4 19 20
f 4 20 21
f 4 21 5
f 4 18 43
f 4 43 19
f 5 21 22
f 6 22 25
f 18 41 42
f 18 42 43
f 19 44 45
f 24 489 468
f 24 468 436
f 24 436 405
f 24 405 365
f 24 365 326
f 24 326 275
f 24 275 274
f 24 274 273
f 24 273 224
f 24 224 216
f 24 216 166
f 24 166 127
f 24 127 125
f 208 265 266
f 24 87 55
f 24 55 27
f 24 27 26
f 25 50 54
f 27 55 56
f 27 56 29
f 27 29 28
f 29 56 57
f 29 57 30
f 30 57 32
f 31 58 65
f 31 65 59
f 32 60 61
f 24 497 489
f 24 487 497
f 24 465 487
f 24 435 465
f 19 45 20
f 19 43 77
f 19 77 44
f 20 45 46
f 20 46 47
f 20 47 21
f 21 47 48
f 21 48 22
f 22 48 47
f 22 47 49
f 22 49 50
f 22 50 25
f 23 51 52
f 89 127 128
f 23 52 53
f 23 25 54
f 23 54 51
f 24 53 52
f 24 52 86
f 24 86 124
f 24 124 123
f 24 123 165
f 24 165 212
f 24 212 269
f 24 269 325
f 24 325 363
f 24 363 404
f 24 404 435
f 23 53 24
f 89 128 129
f 24 125 87
f 89 130 90
f 164 215 214
f 166 216 167
f 167 216 217
f 167 217 169
f 167 169 168
f 169 217 173
f 170 218 219
f 170 219 220
f 170 220 171
f 170 173 221
f 170 221 218
f 171 220 176
f 173 217 222
f 173 222 223
f 173 223 224
f 173 224 221
f 174 225 238
f 174 238 226
f 174 226 178
f 174 178 175
f 176 227 228
f 176 228 177
f 176 220 219
f 176 219 229
f 176 229 230
f 176 230 231
f 176 231 232
f 164 213 215
f 176 232 233
f 164 214 206
f 163 203 263
f 152 198 153
f 153 199 155
f 153 198 196
f 153 196 200
f 153 200 201
f 153 201 199
f 154 155 202
f 154 202 203
f 154 203 204
f 154 204 156
f 155 205 202
f 155 199 205
f 156 204 162
f 157 164 158
f 158 164 206
f 158 206 214
f 158 214 207
f 158 207 208
f 158 208 209
f 158 209 159
f 159 209 210
f 159 210 160
f 160 210 211
f 160 211 161
f 161 211 212
f 161 212 165
f 162 204 203
f 163 263 213
f 152 196 198
f 176 233 227
f 177 234 238
f 191 251 252
f 191 252 192
f 192 253 246
f 192 252 253
f 193 195 196
f 194 248 195
f 195 248 245
f 195 245 254
f 195 254 255
f 195 255 196
f 196 255 256
f 196 256 200
f 199 201 205
f 200 256 257
f 200 257 258
f 200 258 201
f 201 258 259
f 201 259 260
f 201 260 261
f 201 261 205
f 202 205 262
f 202 262 263
f 202 263 203
f 205 264 262
f 205 261 264
f 207 214 265
f 89 129 130
f 190 241 249
f 177 228 234
f 190 251 191
f 190 249 250
f 177 238 225
f 178 235 236
f 178 236 237
f 178 237 179
f 178 226 238
f 179 237 180
f 180 237 239
f 180 239 182
f 180 182 181
f 182 239 297
f 182 297 240
f 182 240 183
f 183 241 185
f 183 185 184
f 183 240 242
f 183 242 241
f 185 241 190
f 187 192 243
f 187 243 188
f 188 244 245
f 188 245 248
f 188 248 189
f 188 243 192
f 188 192 246
f 188 246 247
f 188 247 244
f 189 248 194
f 190 250 251
f 152 197 196
f 178 238 235
f 151 196 197
f 105 149 106
f 107 149 109
f 108 109 110
f 109 148 150
f 109 150 151
f 109 151 152
f 109 152 110
f 110 152 153
f 110 153 111
f 111 154 113
f 111 113 112
f 111 153 155
f 111 155 154
f 113 156 114
f 113 154 156
f 114 156 118
f 115 119 157
f 115 157 158
f 115 158 159
f 115 159 160
f 115 160 116
f 116 160 161
f 116 161 120
f 116 120 117
f 118 156 162
f 118 162 119
f 119 162 203
f 105 109 149
f 119 203 163
f 105 148 109
f 105 145 146
f 90 130 91
f 151 197 152
f 91 130 93
f 93 130 94
f 94 130 131
f 94 131 97
f 94 97 95
f 95 97 96
f 97 131 132
f 97 132 133
f 97 133 98
f 98 133 135
f 98 135 174
f 98 174 134
f 99 136 137
f 99 137 138
f 99 138 100
f 99 134 139
f 99 139 136
f 100 138 101
f 102 138 140
f 102 140 141
f 102 141 142
f 103 142 143
f 103 143 144
f 103 144 104
f 104 144 145
f 105 146 147
f 119 163 213
f 105 147 148
f 119 164 157
f 138 180 181
f 138 181 140
f 140 181 182
f 140 182 183
f 140 183 141
f 141 183 142
f 142 183 184
f 142 184 143
f 143 184 185
f 143 185 145
f 143 145 144
f 145 185 186
f 146 186 185
f 137 180 138
f 146 185 190
f 147 187 188
f 147 188 189
f 147 189 150
f 147 150 148
f 147 190 191
f 147 191 192
f 147 192 187
f 150 193 151
f 150 189 194
f 150 194 195
f 119 213 164
f 150 195 193
f 151 193 196
f 146 190 147
f 136 180 137
f 145 186 146
f 130 169 131
f 121 161 123
f 123 161 165
f 136 179 180
f 127 166 167
f 127 167 168
f 127 168 129
f 127 129 128
f 129 168 130
f 130 168 169
f 131 169 132
f 132 170 171
f 132 171 176
f 132 176 172
f 132 172 133
f 120 161 121
f 132 169 173
f 132 173 170
f 133 172 135
f 134 174 175
f 134 175 136
f 136 175 178
f 134 136 139
f 135 172 176
f 135 225 174
f 136 178 179
f 135 176 177
f 135 177 225

