# https://github.com/mikedh/trimesh
v -0.24103100 0.00007980 -0.43530100
v -0.24103100 0.01045330 -0.43296600
v -0.24103100 -0.00941596 -0.43296600
v -0.24550200 -0.01388450 -0.43073200
v -0.26868700 0.00000000 -0.42611200
v -0.26868700 0.01041340 -0.42377600
v -0.25015100 0.05673510 -0.41453600
v -0.24103100 0.06579200 -0.41453600
v -0.24550200 -0.04165360 -0.42149200
v -0.24103100 -0.03722500 -0.42367500
v -0.25480000 -0.03239730 -0.42149200
v -0.27327700 -0.01388450 -0.42149200
v -0.27482600 0.00307216 -0.42301500
v -0.31499900 0.00000000 -0.40758100
v -0.32119800 0.00307216 -0.40448400
v -0.31499900 0.01041340 -0.40524500
v -0.25480000 0.05789220 -0.41220100
v -0.28722400 0.11231300 -0.37747400
v -0.25015100 0.10305700 -0.39600500
v -0.31964800 0.01157050 -0.40296000
v -0.24103100 0.11211400 -0.39600500
v -0.24103100 -0.11131600 -0.39590300
v -0.24550200 -0.11578400 -0.39366900
v -0.42615900 0.00000000 -0.36127800
v -0.49565600 -0.01388450 -0.32883500
v -0.43235800 0.00307216 -0.35818100
v -0.53731900 0.01041340 -0.31263900
v -0.36596000 0.05789220 -0.36589800
v -0.38449600 0.08566130 -0.34736600
v -0.29181300 0.11347000 -0.37513800
v -0.28257500 0.12272700 -0.37513800
v -0.26868700 0.13082600 -0.37747400
v -0.54196800 0.01157050 -0.31030400
v -0.24103100 0.11235300 -0.39590300
v -0.24103100 -0.12264700 -0.39128300
v -0.24550200 -0.13429700 -0.38442900
v -0.29181300 -0.13429700 -0.36589800
v -0.30111100 -0.12504100 -0.36589800
v -0.56044500 -0.01388450 -0.30106400
v -0.53731900 0.00000000 -0.31492400
v -0.54351700 0.00307216 -0.31182700
v -0.36596000 0.10421400 -0.34736600
v -0.58822000 0.03008320 -0.28253200
v -0.27327700 0.13198300 -0.37513800
v -0.25938900 0.14203700 -0.37361500
v -0.24103100 0.13086600 -0.38666300
v -0.24103100 -0.14116000 -0.38199200
v -0.25480000 -0.14355300 -0.37513800
v -0.44934400 -0.12504100 -0.30106400
v -0.56044500 -0.07871900 -0.27324100
v -0.58822000 -0.05094990 -0.27324100
v -0.59590900 -0.02158490 -0.28095800
v -0.59745800 -0.01388450 -0.28253200
v -0.58667000 -0.00307216 -0.29024900
v -0.54959700 -0.00307216 -0.30878100
v -0.59286900 0.00000000 -0.28715200
v -0.58047100 0.00307216 -0.29334600
v -0.58976900 0.02158490 -0.28405500
v -0.43080800 0.12272700 -0.31030400
v -0.56968300 0.04859590 -0.28253200
v -0.59745800 0.01157050 -0.28253200
v -0.60675600 0.01157050 -0.27324100
v -0.62529300 0.03008320 -0.24547000
v -0.58822000 0.10421400 -0.24547000
v -0.54196800 0.11347000 -0.26400100
v -0.52343100 0.11347000 -0.27324100
v -0.26403800 0.14586800 -0.36589800
v -0.24550200 0.14586800 -0.37513800
v -0.24103100 0.13756900 -0.38219500
v -0.42151000 0.12735500 -0.31030400
v -0.44004600 0.12735500 -0.30106400
v -0.45858300 0.12735500 -0.29177200
v -0.24103100 -0.14818200 -0.37046700
v -0.24550200 -0.17136200 -0.31959500
v -0.25480000 -0.19913200 -0.25471000
v -0.56044500 -0.11578400 -0.25471000
v -0.54196800 -0.11578400 -0.26400100
v -0.58822000 -0.06946260 -0.26400100
v -0.59590900 -0.04013750 -0.27171800
v -0.60520700 -0.00307216 -0.28095800
v -0.59900800 0.00307216 -0.28405500
v -0.44934400 0.12272700 -0.30106400
v -0.62529300 0.01157050 -0.25471000
v -0.62529300 0.06714850 -0.22693800
v -0.67160500 0.01157050 -0.20840700
v -0.60675600 0.10884200 -0.21764700
v -0.57892200 0.11347000 -0.24547000
v -0.69938000 0.07640490 -0.14362300
v -0.67160500 0.09028950 -0.16215500
v -0.56968300 0.11809800 -0.24547000
v -0.30111100 0.18293300 -0.26400100
v -0.24550200 0.15516400 -0.35660700
v -0.24103100 0.14514900 -0.37666100
v -0.40297300 0.15516400 -0.26400100
v -0.50489500 0.12735500 -0.26400100
v -0.24103100 -0.19817400 -0.26303600
v -0.24103100 -0.20376000 -0.25003900
v -0.43539700 -0.17599100 -0.17596400
v -0.49565600 -0.16210600 -0.17139500
v -0.54196800 -0.15281000 -0.16215500
v -0.54196800 -0.14355300 -0.18987600
v -0.57433200 -0.12041300 -0.23155800
v -0.57743200 -0.11422800 -0.24389600
v -0.58822000 -0.10652800 -0.24547000
v -0.59590900 -0.07716300 -0.25318700
v -0.60520700 -0.05865020 -0.25318700
v -0.60520700 -0.02158490 -0.27171800
v -0.62374300 -0.00307216 -0.26242700
v -0.68084300 0.01157050 -0.19916700
v -0.73645300 0.03933960 -0.12509200
v -0.67005500 -0.00307216 -0.21612400
v -0.57892200 0.11809800 -0.23617900
v -0.78276400 0.06252040 -0.06025790
v -0.80130100 0.04859590 -0.05096680
v -0.54196800 0.15516400 -0.15286400
v -0.52343100 0.15516400 -0.17139500
v -0.43080800 0.15516400 -0.24547000
v -0.38449600 0.16442000 -0.25471000
v -0.24550200 0.20144600 -0.25471000
v -0.24103100 0.17934200 -0.30578500
v -0.24103100 0.15735800 -0.35219000
v -0.24103100 0.15440600 -0.35813000
v -0.24103100 -0.20380000 -0.24084900
v -0.25015100 -0.20380000 -0.24084900
v -0.24103100 -0.15739800 -0.12971200
v -0.57433200 -0.14818200 -0.11118100
v -0.49100700 -0.16673400 -0.15748400
v -0.50489500 -0.16210600 -0.16215500
v -0.52808000 -0.15747800 -0.15748400
v -0.63453100 -0.11578400 -0.14362300
v -0.57892200 -0.12504100 -0.20840700
v -0.53731900 -0.15747800 -0.14824400
v -0.55114700 -0.15281000 -0.14362300
v -0.64377000 -0.12504100 -0.08802950
v -0.78276400 -0.06946260 -0.06025790
v -0.58822000 -0.11578400 -0.22693800
v -0.58667000 -0.11422800 -0.23465500
v -0.61444500 -0.07716300 -0.23465500
v -0.60520700 -0.07716300 -0.24389600
v -0.65306800 -0.09723170 -0.18063500
v -0.73645300 -0.07871900 -0.10656100
v -0.74414200 -0.06790660 -0.10503800
v -0.62374300 -0.05865020 -0.23465500
v -0.62374300 -0.02158490 -0.25318700
v -0.68859100 -0.02158490 -0.18835200
v -0.67929300 -0.00307216 -0.20688400
v -0.81977800 0.01157050 -0.05096680
v -0.75493000 0.02082680 -0.11580100
v -0.58822000 0.11809800 -0.21764700
v -0.75493000 0.07177670 -0.07878920
v -0.82907600 0.03933960 -0.02319520
v -0.83831400 0.04396770 -0.00466390
v -0.81053900 0.05326400 -0.03243550
v -0.80589000 0.05904920 -0.02781540
v -0.80130100 0.06252040 -0.02319520
v -0.76887700 0.06830560 -0.06487800
v -0.57892200 0.14586800 -0.11580100
v -0.53731900 0.15747800 -0.14824400
v -0.49565600 0.16442000 -0.16215500
v -0.62529300 0.11809800 -0.14362300
v -0.64377000 0.11809800 -0.10656100
v -0.68084300 0.10884200 -0.06949820
v -0.71791600 0.09954580 -0.03243550
v -0.38449600 0.18293300 -0.19916700
v -0.29181300 0.19218900 -0.24547000
v -0.24103100 0.20368000 -0.25029300
v -0.24103100 -0.15440600 -0.12362000
v -0.66695500 -0.08334720 0.02777860
v -0.75034000 -0.07409080 0.04630990
v -0.63918000 -0.12966900 -0.07411830
v -0.54506700 -0.15592200 -0.13742900
v -0.53731900 -0.15747800 -0.13900300
v -0.63453100 -0.10652800 -0.18063500
v -0.76422800 -0.08797540 -0.01390420
v -0.69938000 -0.10652800 -0.06025790
v -0.79200300 -0.06946260 -0.04172660
v -0.79975100 -0.06790660 -0.03091240
v -0.81053900 -0.06020630 -0.03243550
v -0.81977800 -0.05094990 -0.03243550
v -0.79975100 -0.05865020 -0.04944370
v -0.79975100 -0.03084130 -0.06797500
v -0.69783000 -0.02158490 -0.17906100
v -0.80130100 -0.04165360 -0.06025790
v -0.80899000 -0.01232850 -0.06797500
v -0.81822800 -0.00307216 -0.05868400
v -0.82132800 0.00307216 -0.05254070
v -0.82907600 0.00231409 -0.04172660
v -0.76422800 0.07177670 -0.06025790
v -0.84993700 -0.00462818 -0.01390420
v -0.83831400 0.03008320 -0.01390420
v -0.83986400 0.04013750 -0.00618704
v -0.83986400 0.04320970 -0.00004377
v -0.82907600 0.05326400 0.01386740
v -0.77346600 0.07177670 -0.04172660
v -0.79200300 0.07177670 0.00462714
v -0.77346600 0.08103310 0.00462714
v -0.52808000 0.14818200 -0.11118100
v -0.53731900 0.15747800 -0.13900300
v -0.71326700 0.10190000 -0.02781540
v -0.50489500 0.16442000 -0.15286400
v -0.49100700 0.16673400 -0.15748400
v -0.43539700 0.17599100 -0.17596400
v -0.25015100 0.20380000 -0.24084900
v -0.24103100 0.20372000 -0.25009000
v -0.24103100 -0.15133400 -0.11757800
v -0.24550200 -0.14586800 -0.10656100
v -0.66230600 -0.08103310 0.03239870
v -0.66695500 -0.08027500 0.03392190
v -0.71326700 -0.07409080 0.04630990
v -0.75034000 -0.07101870 0.05245320
v -0.77811500 -0.08027500 0.02468160
v -0.77811500 -0.08334720 0.01848760
v -0.75957900 -0.09260360 -0.00004377
v -0.77191700 -0.08645920 -0.00309002
v -0.79045300 -0.07716300 -0.00309002
v -0.80899000 -0.06790660 0.00615026
v -0.81822800 -0.05865020 -0.02162130
v -0.83831400 -0.04165360 -0.01390420
v -0.82907600 -0.03239730 -0.03243550
v -0.81053900 -0.02314090 -0.06025790
v -0.82752600 -0.02158490 -0.04015270
v -0.82907600 -0.01388450 -0.04172660
v -0.82675100 -0.00115705 -0.04634670
v -0.84296400 0.03702550 -0.00004377
v -0.84451300 -0.01077250 -0.02009820
v -0.84296400 -0.03702550 -0.00004377
v -0.83372500 -0.04628180 0.02777860
v -0.83372500 0.04628180 0.02777860
v -0.84063900 0.04165360 0.00462714
v -0.83140100 0.05094990 0.03239870
v -0.83062600 0.05246600 0.02777860
v -0.83062600 0.05246600 0.01848760
v -0.82442700 0.05557810 0.02777860
v -0.79355200 0.07101870 0.01848760
v -0.79355200 0.07101870 0.00924728
v -0.76887700 0.08334720 0.00924728
v -0.60210700 0.11115600 -0.03705570
v -0.52498100 0.14203700 -0.09884370
v -0.43539700 0.15747800 -0.12971200
v -0.24103100 0.20380000 -0.24084900
v -0.24103100 -0.15125400 -0.11742600
v -0.24103100 -0.14032200 -0.10432700
v -0.24103100 -0.14008200 -0.10417500
v -0.70861800 -0.07177670 0.05093010
v -0.71326700 -0.07101870 0.05245320
v -0.75034000 -0.06790660 0.05864720
v -0.77811500 -0.07716300 0.03087560
v -0.78431400 -0.08027500 0.02158460
v -0.76577700 -0.08953140 0.00305324
v -0.78431400 -0.08027500 0.00305324
v -0.82752600 -0.05865020 0.02468160
v -0.83521500 -0.04783790 -0.00156690
v -0.83986400 -0.04320970 0.00305324
v -0.83062600 -0.05246600 0.03087560
v -0.82907600 -0.05094990 0.03473420
v -0.82442700 -0.04628180 0.04630990
v -0.81518800 -0.03702550 0.06484120
v -0.81518800 0.03702550 0.06484120
v -0.81286400 0.04165360 0.06946140
v -0.81751300 0.05094990 0.05093010
v -0.82561900 0.05326400 0.03701890
v -0.80589000 0.06483450 0.02777860
v -0.79045300 0.07101870 0.02468160
v -0.77191700 0.08027500 0.01539050
v -0.62064400 0.10190000 -0.01857510
v -0.62678300 0.08645920 0.01234430
v -0.50024500 0.11115600 -0.03705570
v -0.31499900 0.15747800 -0.12971200
v -0.24103100 0.17599100 -0.17596400
v -0.24103100 -0.04628180 -0.06487800
v -0.73180400 -0.01966980 0.08103710
v -0.74104200 -0.04743890 0.07174610
v -0.72250600 -0.05673510 0.06250580
v -0.70402900 -0.06599150 0.05326550
v -0.73180400 -0.06790660 0.05864720
v -0.75034000 -0.05865020 0.06788750
v -0.79665200 -0.04939390 0.06788750
v -0.80589000 -0.05326400 0.05671790
v -0.81977800 -0.05094990 0.05326550
v -0.78276400 -0.07871900 0.02544320
v -0.82132800 -0.05246600 0.04935620
v -0.82132800 -0.06172240 0.03087560
v -0.81518800 -0.06483450 0.02777860
v -0.82442700 -0.05557810 0.03701890
v -0.82132800 -0.04628180 0.05245320
v -0.81208900 -0.03702550 0.07098450
v -0.80899000 -0.00925637 0.07717850
v -0.80899000 0.00925637 0.07717850
v -0.81208900 0.03702550 0.07098450
v -0.80589000 0.03702550 0.07408150
v -0.80899000 0.04320970 0.07098450
v -0.80899000 0.06172240 0.03392190
v -0.79045300 0.05246600 0.06174420
v -0.77191700 0.07101870 0.03392190
v -0.63298200 0.08953140 0.00615026
v -0.60830600 0.08645920 0.01234430
v -0.75647900 0.05865020 0.05864720
v -0.27482600 0.14203700 -0.09884370
v -0.25015100 0.14818200 -0.11118100
v -0.24103100 0.14598700 -0.11138400
v -0.24103100 -0.01871220 -0.05563770
v -0.25015100 0.00000000 -0.04634670
v -0.69473100 -0.00925637 0.07408150
v -0.72250600 -0.01041340 0.08103710
v -0.74104200 -0.01851270 0.08337260
v -0.75034000 -0.04628180 0.07408150
v -0.75493000 -0.05094990 0.07174610
v -0.81053900 -0.04165360 0.07174610
v -0.80130100 -0.01388450 0.08103710
v -0.79665200 -0.00925637 0.08337260
v -0.79665200 0.00925637 0.08337260
v -0.75034000 0.03702550 0.07408150
v -0.78431400 0.04939390 0.06788750
v -0.76267800 0.06172240 0.05245320
v -0.72870400 0.05865020 0.05864720
v -0.25325000 0.14510900 -0.10503800
v -0.24103100 0.14355300 -0.10656100
v -0.24103100 -0.00015959 -0.05086530
v -0.24395200 -0.00307216 -0.04944370
v -0.72250600 0.00000000 0.08337260
v -0.24103100 0.01113160 -0.05370850
v -0.24103100 0.01851270 -0.05558700
v -0.69008100 0.01388450 0.06946140
v -0.78735400 -0.01851270 0.08337260
v -0.80589000 -0.03702550 0.07408150
v -0.74104200 0.00925637 0.08337260
v -0.73645300 0.04165360 0.06946140
v -0.74724100 0.04939390 0.06788750
v -0.69938000 0.06020630 0.05093010
v -0.67315400 0.06790660 0.04011590
v -0.25015100 0.13892500 -0.10194100
v -0.24103100 0.13876600 -0.10417500
v -0.66230600 0.06020630 0.04163900
v -0.71791600 0.03239730 0.06946140
v -0.24103100 0.11095700 -0.09254810
v -0.68084300 0.05094990 0.05093010
f 192 232 193
f 193 232 231
f 192 231 232
f 193 231 233
f 193 233 234
f 193 234 235
f 193 235 195
f 197 239 202
f 195 236 196
f 196 236 199
f 197 200 198
f 197 199 236
f 197 236 237
f 197 237 238
f 192 230 231
f 197 238 239
f 195 235 236
f 192 229 230
f 184 221 222
f 191 224 192
f 184 220 219
f 184 219 221
f 197 202 201
f 184 222 185
f 185 222 189
f 185 189 223
f 185 223 186
f 186 223 187
f 187 223 189
f 189 224 191
f 189 191 190
f 189 222 225
f 189 225 218
f 189 218 226
f 189 226 227
f 189 227 228
f 189 228 224
f 192 224 229
f 197 201 200
f 224 228 229
f 203 240 204
f 216 250 251
f 216 251 217
f 217 251 252
f 217 252 218
f 218 252 253
f 218 253 226
f 218 225 219
f 219 225 222
f 219 222 221
f 226 253 254
f 226 254 227
f 227 254 255
f 227 255 279
f 227 279 256
f 227 256 257
f 183 219 220
f 227 257 258
f 215 250 216
f 202 239 203
f 214 250 215
f 213 249 214
f 203 239 268
f 203 268 240
f 205 241 206
f 206 241 242
f 206 242 243
f 206 243 244
f 206 244 207
f 207 244 245
f 207 245 208
f 210 246 247
f 210 247 211
f 210 245 275
f 210 275 246
f 211 247 248
f 211 248 212
f 212 248 249
f 212 249 213
f 214 249 250
f 181 184 182
f 142 183 181
f 181 183 220
f 149 188 160
f 150 156 188
f 151 187 189
f 151 189 190
f 151 190 191
f 151 191 152
f 152 191 192
f 152 192 193
f 152 193 154
f 152 154 153
f 154 193 155
f 155 194 188
f 155 188 156
f 155 193 195
f 155 195 196
f 155 196 163
f 155 163 194
f 147 187 151
f 157 197 198
f 147 186 187
f 146 184 185
f 227 258 228
f 135 180 141
f 135 141 136
f 135 136 173
f 136 141 137
f 137 141 140
f 138 143 139
f 138 142 181
f 138 181 182
f 138 182 145
f 138 145 143
f 141 180 179
f 141 179 183
f 141 183 142
f 143 145 144
f 145 182 146
f 146 182 184
f 147 185 186
f 181 220 184
f 157 198 158
f 157 199 197
f 169 211 212
f 169 212 213
f 169 213 170
f 169 209 245
f 169 245 210
f 170 213 174
f 174 213 214
f 174 214 176
f 176 214 177
f 177 215 216
f 177 216 217
f 177 217 178
f 177 214 215
f 178 217 179
f 179 217 218
f 179 218 219
f 179 219 183
f 169 210 211
f 157 163 199
f 168 209 169
f 168 208 245
f 158 198 200
f 158 200 159
f 159 200 201
f 159 201 164
f 160 188 194
f 160 194 161
f 161 194 162
f 162 194 163
f 163 196 199
f 164 201 202
f 164 202 203
f 164 203 166
f 166 203 204
f 167 205 206
f 167 206 207
f 167 207 168
f 168 207 208
f 168 245 209
f 228 230 229
f 305 310 324
f 230 258 259
f 290 311 326
f 290 326 312
f 290 312 328
f 290 328 313
f 290 313 291
f 291 313 293
f 293 313 297
f 293 297 314
f 293 314 294
f 294 314 295
f 296 315 316
f 296 316 298
f 297 313 328
f 297 328 315
f 298 316 299
f 299 316 317
f 299 317 300
f 289 311 290
f 301 318 319
f 288 311 289
f 287 310 311
f 271 302 303
f 272 305 306
f 272 306 276
f 272 276 273
f 273 276 275
f 273 275 274
f 276 306 307
f 276 307 308
f 276 308 277
f 277 308 279
f 277 279 278
f 279 286 285
f 279 308 286
f 281 284 282
f 286 308 287
f 287 308 309
f 287 309 310
f 287 311 288
f 271 305 272
f 301 319 302
f 302 319 318
f 315 329 330
f 315 330 317
f 315 317 316
f 317 331 332
f 317 330 329
f 317 329 333
f 317 333 331
f 320 323 334
f 320 334 327
f 320 327 326
f 322 335 323
f 323 335 334
f 327 334 336
f 327 336 329
f 329 336 333
f 331 333 332
f 332 333 336
f 315 327 329
f 302 320 303
f 315 328 327
f 312 326 327
f 302 318 321
f 302 321 322
f 302 322 323
f 302 323 320
f 303 320 304
f 304 320 305
f 305 324 306
f 305 320 326
f 305 326 311
f 305 311 310
f 135 179 180
f 306 324 307
f 307 324 325
f 307 325 308
f 308 325 310
f 308 310 309
f 310 325 324
f 312 327 328
f 228 258 230
f 271 304 305
f 270 302 271
f 243 272 273
f 243 273 274
f 243 274 244
f 244 274 275
f 244 275 245
f 246 275 276
f 246 276 277
f 246 277 247
f 247 277 278
f 247 278 279
f 247 279 280
f 247 280 248
f 248 250 249
f 248 280 279
f 248 279 281
f 248 281 282
f 248 282 283
f 243 271 272
f 248 283 250
f 243 270 271
f 237 239 238
f 230 259 260
f 230 260 261
f 230 261 231
f 231 261 233
f 233 261 262
f 233 262 234
f 234 262 236
f 234 236 235
f 236 262 263
f 236 263 264
f 236 264 265
f 236 265 237
f 237 265 266
f 237 266 296
f 237 296 267
f 237 267 268
f 237 268 239
f 240 268 269
f 271 303 304
f 250 283 251
f 251 253 252
f 263 292 291
f 263 291 293
f 263 293 294
f 263 294 264
f 264 294 295
f 264 295 265
f 265 295 266
f 266 295 314
f 266 314 297
f 266 297 315
f 266 315 296
f 267 296 298
f 267 298 268
f 268 298 299
f 268 299 269
f 269 299 300
f 270 301 302
f 262 292 263
f 251 254 253
f 261 292 262
f 260 291 292
f 251 283 282
f 251 282 284
f 251 284 254
f 254 284 281
f 254 281 279
f 254 279 255
f 256 279 285
f 256 285 286
f 256 286 257
f 257 286 287
f 257 287 288
f 257 288 258
f 258 288 259
f 259 289 290
f 259 290 291
f 259 291 260
f 259 288 289
f 260 292 261
f 135 178 179
f 73 96 74
f 135 176 177
f 32 45 46
f 32 46 34
f 33 41 58
f 33 58 43
f 35 47 36
f 36 47 48
f 36 48 37
f 32 44 45
f 37 48 49
f 37 50 38
f 38 50 51
f 38 51 39
f 39 51 52
f 39 52 53
f 39 53 54
f 39 54 55
f 37 49 50
f 31 42 44
f 31 44 32
f 29 43 42
f 21 32 34
f 22 35 23
f 23 35 36
f 23 36 37
f 23 37 38
f 23 38 39
f 23 39 25
f 24 25 40
f 24 40 41
f 24 41 26
f 25 39 40
f 26 41 27
f 27 41 33
f 28 33 29
f 29 42 31
f 29 31 30
f 29 33 43
f 39 55 40
f 40 55 54
f 40 54 56
f 40 56 41
f 45 71 72
f 45 72 67
f 47 73 48
f 48 73 74
f 48 74 75
f 48 75 49
f 49 75 76
f 49 76 77
f 49 77 50
f 50 77 51
f 51 77 78
f 51 78 79
f 51 79 52
f 52 79 80
f 52 80 53
f 53 80 54
f 54 80 56
f 45 70 71
f 20 33 28
f 45 59 70
f 45 68 69
f 41 56 57
f 41 57 58
f 42 59 44
f 42 43 60
f 42 60 59
f 43 58 81
f 43 81 61
f 43 61 62
f 43 62 83
f 43 83 63
f 43 63 84
f 43 84 64
f 43 64 65
f 43 65 66
f 43 66 60
f 44 59 45
f 45 67 68
f 45 69 46
f 20 27 33
f 19 32 21
f 18 30 31
f 1 318 301
f 1 301 270
f 1 270 243
f 1 243 242
f 1 242 241
f 1 241 205
f 1 205 167
f 1 167 125
f 1 125 123
f 1 123 97
f 1 97 96
f 1 96 73
f 1 73 47
f 1 47 35
f 1 35 22
f 1 22 10
f 1 10 3
f 1 321 318
f 1 3 4
f 1 322 321
f 1 332 335
f 332 336 334
f 1 2 8
f 1 8 21
f 1 21 34
f 1 34 46
f 1 46 69
f 1 69 93
f 1 93 122
f 1 122 121
f 1 121 120
f 1 120 166
f 1 166 204
f 1 204 240
f 1 240 269
f 1 269 300
f 1 300 317
f 1 317 332
f 1 335 322
f 56 81 57
f 1 4 5
f 1 6 2
f 9 22 23
f 9 23 11
f 11 23 12
f 12 24 14
f 12 23 25
f 12 25 24
f 14 24 26
f 14 26 15
f 15 26 27
f 15 27 16
f 16 27 20
f 17 20 28
f 17 28 29
f 17 29 30
f 17 30 18
f 18 31 32
f 18 32 19
f 9 10 22
f 1 5 6
f 7 20 17
f 7 21 8
f 2 7 8
f 2 6 7
f 3 9 4
f 3 10 9
f 4 9 11
f 4 11 12
f 4 12 5
f 5 13 6
f 5 12 14
f 5 14 15
f 5 15 13
f 6 13 15
f 6 15 16
f 6 16 7
f 7 17 18
f 7 18 19
f 7 19 21
f 7 16 20
f 56 80 81
f 57 81 58
f 59 82 71
f 106 144 107
f 108 144 145
f 108 145 111
f 109 146 185
f 109 185 147
f 109 147 148
f 109 148 110
f 110 148 114
f 111 145 146
f 112 149 115
f 112 150 188
f 112 188 149
f 113 114 151
f 113 151 152
f 113 152 153
f 113 153 154
f 113 154 155
f 106 143 144
f 113 155 156
f 106 139 143
f 104 142 138
f 100 130 131
f 100 131 102
f 100 102 101
f 100 129 132
f 100 132 133
f 100 133 134
f 100 134 135
f 100 135 130
f 102 131 136
f 102 136 137
f 102 137 103
f 103 137 104
f 104 138 139
f 104 139 105
f 104 137 140
f 104 140 141
f 104 141 142
f 105 139 106
f 99 127 128
f 113 156 150
f 114 147 151
f 126 170 171
f 126 171 172
f 126 172 127
f 127 172 132
f 127 132 128
f 130 135 131
f 131 135 173
f 131 173 136
f 132 172 171
f 132 171 170
f 132 170 133
f 133 170 134
f 134 170 174
f 134 174 175
f 134 175 135
f 135 175 174
f 135 174 176
f 126 169 170
f 114 148 147
f 126 168 169
f 125 167 168
f 115 157 158
f 115 158 159
f 115 159 116
f 115 149 160
f 115 160 161
f 115 161 162
f 115 162 163
f 115 163 157
f 116 159 164
f 116 164 117
f 117 164 165
f 117 165 119
f 117 119 118
f 119 166 120
f 119 165 164
f 119 164 166
f 123 125 124
f 125 168 126
f 135 177 178
f 99 129 100
f 99 128 132
f 67 72 91
f 68 92 93
f 68 93 69
f 71 90 72
f 72 94 91
f 72 90 95
f 72 95 94
f 74 96 75
f 75 96 97
f 75 97 98
f 75 98 99
f 75 99 100
f 75 100 101
f 75 101 102
f 75 102 76
f 76 102 103
f 76 103 104
f 67 92 68
f 76 104 77
f 67 91 92
f 65 90 71
f 59 71 70
f 59 60 66
f 59 66 65
f 59 65 82
f 61 81 80
f 61 80 62
f 62 80 108
f 62 108 83
f 63 83 85
f 63 85 84
f 64 86 87
f 64 87 65
f 64 84 110
f 64 110 88
f 64 88 89
f 64 89 86
f 65 87 90
f 65 71 82
f 99 132 129
f 77 104 78
f 79 104 105
f 90 116 117
f 90 117 118
f 90 118 94
f 90 94 95
f 91 119 92
f 91 94 118
f 91 118 119
f 92 119 120
f 92 120 121
f 92 121 122
f 92 122 93
f 97 123 124
f 97 124 98
f 98 124 125
f 98 125 126
f 98 126 127
f 98 127 99
f 90 115 116
f 78 104 79
f 90 112 115
f 88 114 113
f 79 105 106
f 79 106 107
f 79 107 80
f 80 107 144
f 80 144 108
f 83 108 111
f 83 111 85
f 84 85 109
f 84 109 110
f 85 111 146
f 85 146 109
f 86 112 87
f 86 89 113
f 86 113 150
f 86 150 112
f 87 112 90
f 88 110 114
f 88 113 89
f 332 334 335

