# https://github.com/mikedh/trimesh
v 0.19587500 0.00925999 -0.04564860
v 0.19587500 -0.00925999 -0.04564860
v 0.19587500 0.01852000 -0.04765380
v -0.24103100 -0.00016685 -0.05087950
v 0.19587500 -0.04630000 -0.05510780
v -0.24103100 0.01831140 -0.05550010
v 0.19587500 0.05806270 -0.05794120
v -0.24103100 -0.01852000 -0.05558730
v 0.19587500 -0.08200520 -0.06434900
v 0.19587500 0.08488330 -0.06526440
v -0.24103100 0.06465310 -0.07402620
v -0.24103100 -0.01868680 -0.05563090
v -0.24103100 -0.04630000 -0.06487210
v -0.24103100 -0.04642510 -0.06491570
v 0.19450600 -0.08333990 -0.06487210
v 0.19587500 -0.08333990 -0.06487210
v 0.19587500 0.09076460 -0.06766190
v -0.24103100 0.11095300 -0.09255220
v 0.14819000 -0.10186000 -0.07411330
v -0.24103100 -0.14019300 -0.10423500
v 0.19587500 -0.10186000 -0.07363390
v 0.19587500 0.11424800 -0.08030320
v 0.17906800 0.11424800 -0.08030320
v 0.14511100 0.10807500 -0.07720830
v 0.14819000 0.10186000 -0.07411330
v -0.24103100 0.13877500 -0.10414700
v 0.14357100 -0.10649000 -0.07646720
v 0.19587500 -0.10715700 -0.07624930
v -0.24103100 -0.14031800 -0.10432200
v 0.17598800 -0.11424800 -0.08030320
v 0.14819000 -0.10807500 -0.07720830
v -0.23619900 0.14357200 -0.10654500
v 0.19587500 0.18832800 -0.17293400
v -0.24103100 0.14357200 -0.10654500
v 0.19587500 -0.11424800 -0.08030320
v -0.24103100 -0.15128800 -0.11744300
v -0.24081800 -0.15128800 -0.11735500
v -0.19450100 -0.15128800 -0.11735500
v 0.19587500 0.20100900 -0.19642900
v 0.18834800 0.18832800 -0.17293400
v 0.04011800 0.20684800 -0.20998600
v 0.03395960 0.20993500 -0.21617600
v -0.24103100 0.14594900 -0.11138300
v 0.19587500 -0.18832800 -0.17293400
v -0.24103100 -0.15433300 -0.12350200
v -0.24081800 -0.15746200 -0.12969200
v -0.12038600 -0.18215500 -0.16983900
v -0.12038600 -0.17906800 -0.16369200
v 0.18526900 -0.18832800 -0.17293400
v 0.19587500 0.20338600 -0.20227000
v 0.05555690 0.21302200 -0.22236600
v 0.03703880 0.21302200 -0.22236600
v -0.24103100 0.17598200 -0.17602900
v 0.19587500 -0.19483500 -0.18544400
v -0.24103100 -0.15742000 -0.12969200
v -0.24103100 -0.20376200 -0.24089200
v -0.12038600 -0.18524200 -0.17602900
v 0.03703880 -0.20684800 -0.20998600
v 0.19587500 0.20376200 -0.20383900
v 0.03703880 0.21302200 -0.23160700
v 0.19587500 0.20376200 -0.21172900
v 0.19450600 0.20376200 -0.21308100
v 0.19587500 0.18524200 -0.33347800
v -0.03703340 0.21302200 -0.23160700
v -0.24103100 0.20376200 -0.24089200
v 0.19587500 -0.19804700 -0.19167800
v -0.24103100 -0.20376200 -0.25008900
v -0.08335000 -0.21302200 -0.24089200
v -0.04631380 -0.21302200 -0.23160700
v -0.07406950 -0.20376200 -0.21308100
v 0.03703880 -0.21302200 -0.22236600
v 0.19587500 -0.20080000 -0.19703900
v 0.00924034 0.21302200 -0.24089200
v 0.19587500 0.17402100 -0.37018200
v 0.18526900 0.17598200 -0.37053100
v 0.12039100 0.17598200 -0.38905700
v 0.08335530 0.17598200 -0.39829800
v 0.04627650 0.18524200 -0.37053100
v 0.01852080 0.20376200 -0.28714100
v -0.00004007 0.21302200 -0.24089200
v -0.09724920 0.21072700 -0.23622700
v -0.24081800 0.20376200 -0.25013300
v -0.24103100 0.20372000 -0.25013300
v -0.22230000 -0.20376200 -0.25941800
v -0.24103100 -0.19817200 -0.26307900
v -0.22691800 -0.18987200 -0.29176200
v -0.21306200 -0.19450200 -0.28714100
v -0.20378100 -0.20376200 -0.26861500
v -0.15746500 -0.20376200 -0.28714100
v -0.12966600 -0.20376200 -0.29642600
v -0.07406950 -0.20376200 -0.30566700
v -0.00927772 -0.20376200 -0.31495200
v -0.01855810 -0.21302200 -0.25013300
v 0.06483730 -0.21302200 -0.22236600
v 0.19587500 -0.20342800 -0.20231400
v 0.19587500 0.17356200 -0.37105400
v 0.19450600 0.17368700 -0.37166400
v 0.18526900 0.17289500 -0.37672000
v 0.12039100 0.17289500 -0.39524700
v 0.08335530 0.17289500 -0.40448800
v 0.02313960 0.17368700 -0.40296200
v 0.02775840 0.17598200 -0.39829800
v -0.22230000 0.20376200 -0.25941800
v -0.24103100 0.20367800 -0.25030700
v -0.24103100 -0.14816000 -0.37048700
v -0.23619900 -0.15283200 -0.36591000
v -0.21768100 -0.16209200 -0.35662500
v -0.21614100 -0.18832800 -0.29952100
v -0.19450100 -0.18524200 -0.31495200
v -0.13894700 -0.19450200 -0.31495200
v 0.00924034 -0.19450200 -0.37053100
v 0.03703880 -0.19450200 -0.37977200
v 0.00924034 -0.21302200 -0.25013300
v 0.19587500 -0.20376200 -0.22101400
v 0.19587500 -0.20376200 -0.20383900
v 0.02775840 -0.21302200 -0.24089200
v 0.08335530 -0.19450200 -0.37053100
v 0.13895200 -0.20376200 -0.25941800
v 0.18526900 -0.20376200 -0.23160700
v 0.19587500 0.17302000 -0.37201300
v 0.18988800 0.17135200 -0.37746200
v 0.12505300 0.17135200 -0.39598800
v 0.08797420 0.17135200 -0.40527200
v 0.06483730 0.16980800 -0.41067800
v 0.02775840 0.16980800 -0.41067800
v -0.05093270 0.16442700 -0.40296200
v -0.22691800 0.20146700 -0.26403800
v -0.23619900 0.18294700 -0.30104700
v -0.24103100 0.17940200 -0.30566700
v -0.24103100 -0.14803500 -0.37070500
v -0.23619900 -0.14357200 -0.38443600
v -0.19916300 -0.15283200 -0.38443600
v -0.18988200 -0.17135200 -0.34738400
v -0.15746500 -0.16672200 -0.37053100
v 0.00616112 -0.18832800 -0.38286700
v 0.03395960 -0.18832800 -0.39215200
v 0.06483730 -0.19450200 -0.37977200
v 0.19587500 -0.19450200 -0.30436000
v 0.19587500 -0.18524200 -0.35200400
v 0.14819000 -0.19450200 -0.33347800
v 0.19450600 -0.19450200 -0.30566700
v 0.19587500 0.15833800 -0.38230000
v 0.16670800 0.15746200 -0.39254400
v 0.14819000 0.16672200 -0.39254400
v 0.19587500 0.01013590 -0.46568900
v 0.19450600 0.00925999 -0.46664800
v 0.08335530 0.14820200 -0.42031100
v 0.07407490 0.16672200 -0.41107000
v 0.06945610 0.16209200 -0.41451400
v 0.07873650 0.14357200 -0.42379800
v 0.06483730 0.16363500 -0.41377300
v 0.02775840 0.16363500 -0.41377300
v -0.09263040 0.15437500 -0.40448800
v -0.20378100 0.14511500 -0.39524700
v -0.04631380 0.16363500 -0.40448800
v -0.20840000 0.14586600 -0.39367700
v -0.20840000 0.15512600 -0.37515100
v -0.21768100 0.18294700 -0.31028800
v -0.22691800 0.16442700 -0.34738400
v -0.23158000 0.16092400 -0.35200400
v -0.24103100 0.15737800 -0.35217900
v -0.24103100 -0.14115200 -0.38199500
v -0.24103100 -0.12263200 -0.39128000
v -0.23619900 -0.12505200 -0.39367700
v -0.21768100 -0.14357200 -0.39367700
v -0.18834300 -0.15128800 -0.39215200
v -0.16054400 -0.16054800 -0.38286700
v -0.02163730 -0.17906800 -0.39215200
v 0.05247770 -0.18832800 -0.39215200
v -0.09878880 -0.16363500 -0.39524700
v -0.17906200 -0.14202800 -0.40139300
v -0.11422800 -0.15128800 -0.40139300
v 0.03395960 -0.06790660 -0.45697100
v 0.06171530 -0.10494700 -0.43844500
v 0.06791650 -0.19141500 -0.38596200
v 0.17598800 -0.18524200 -0.36124600
v 0.17906800 -0.18215500 -0.36743600
v 0.19587500 -0.18228000 -0.35867400
v 0.19587500 0.00925999 -0.46612500
v 0.18988800 0.00463000 -0.47009200
v 0.15280900 0.00463000 -0.47937700
v 0.15747000 0.00925999 -0.47588900
v 0.07407490 0.12659500 -0.43229900
v 0.08797420 0.03241000 -0.47937700
v 0.08335530 0.00925999 -0.49097200
v 0.02775840 0.15746200 -0.41682400
v -0.09263040 0.14820200 -0.40758300
v 0.04627650 0.12659500 -0.43229900
v 0.06483730 0.05247330 -0.46935100
v -0.21306200 0.14011000 -0.39598800
v -0.20378100 0.12042200 -0.40758300
v -0.21768100 0.14123600 -0.39367700
v -0.22691800 0.14586600 -0.38443600
v -0.23158000 0.15166400 -0.37053100
v -0.24103100 0.15441700 -0.35810700
v -0.24103100 -0.11132800 -0.39590000
v -0.21460200 -0.13122500 -0.39986700
v -0.23619900 -0.05093000 -0.42148800
v -0.21768100 -0.05093000 -0.43072900
v -0.20686100 -0.13276800 -0.40139300
v -0.20070200 -0.14511500 -0.39524700
v -0.15438600 -0.15437500 -0.39524700
v 0.06791650 -0.09877330 -0.44154000
v 0.05863610 -0.18215500 -0.39524700
v 0.14203100 -0.18215500 -0.37672000
v -0.17598300 -0.12968200 -0.40758300
v -0.07719150 -0.08642660 -0.43844500
v 0.02467920 -0.04938660 -0.46625600
v -0.12350800 -0.13276800 -0.41067800
v 0.07253530 -0.02006330 -0.48321300
v 0.08220060 -0.01852000 -0.48399700
v 0.18834800 -0.16363500 -0.37672000
v 0.18757800 -0.18061200 -0.36591000
v 0.19587500 -0.17906800 -0.36434100
v 0.19587500 0.00000000 -0.46712800
v 0.19142700 0.00000000 -0.46935100
v 0.18526900 0.00000000 -0.47240200
v 0.14819000 0.00000000 -0.48168700
v 0.10187300 0.00000000 -0.49097200
v 0.10649200 0.00463000 -0.48861800
v 0.08797420 0.01389000 -0.48861800
v 0.04627650 0.00000000 -0.49097200
v 0.07407490 0.02778000 -0.48168700
v 0.06483730 0.04630000 -0.47240200
v -0.20994000 0.12350800 -0.40448800
v -0.19450100 0.05556000 -0.43535000
v -0.19450100 0.00925999 -0.45387600
v -0.20378100 0.01038620 -0.45156600
v -0.23619900 0.12271600 -0.39367700
v -0.23619900 0.14123600 -0.38443600
v -0.24103100 0.14515700 -0.37663300
v -0.24103100 -0.03720680 -0.42371100
v -0.20840000 -0.01389000 -0.44925500
v -0.20840000 -0.10649000 -0.41220300
v -0.20378100 -0.12042200 -0.40758300
v -0.22691800 -0.01389000 -0.44001400
v 0.08566480 -0.01389000 -0.48630800
v 0.07715410 -0.08025330 -0.45082500
v 0.06791650 -0.16363500 -0.40448800
v 0.09571500 -0.04321330 -0.46935100
v 0.15126900 -0.16363500 -0.38596200
v -0.16670300 -0.11116200 -0.41682400
v -0.07406950 -0.07407990 -0.44463500
v 0.02775840 -0.03704000 -0.47240200
v 0.06945610 -0.01389000 -0.48630800
v 0.07561450 -0.00771666 -0.48940300
v 0.19587500 -0.16338500 -0.37449700
v 0.19587500 -0.14686700 -0.38509000
v 0.19587500 -0.00925999 -0.46490500
v 0.18834800 -0.00617333 -0.46935100
v 0.15126900 -0.00617333 -0.47859200
v 0.10495300 -0.00617333 -0.48787700
v 0.08451000 -0.00925999 -0.48861800
v -0.01855810 -0.04630000 -0.46316100
v -0.10186800 -0.06481990 -0.44463500
v -0.10186800 -0.01852000 -0.46316100
v -0.19450100 -0.00925999 -0.45387600
v -0.14818500 0.00000000 -0.46316100
v -0.24103100 0.11212100 -0.39598800
v -0.20840000 0.01155410 -0.44925500
v -0.22691800 0.03933410 -0.43072900
v -0.24103100 0.06582100 -0.41451400
v -0.20378100 0.00000000 -0.45387600
v -0.20994000 0.00308666 -0.45082500
v -0.24103100 0.11233000 -0.39590000
v -0.24103100 0.13089100 -0.38665900
v -0.24103100 0.13756500 -0.38221300
v -0.24103100 -0.00942684 -0.43295300
v -0.21614100 -0.00308666 -0.44773000
v -0.20224200 -0.00771666 -0.45235000
v -0.19450100 -0.10186000 -0.41682400
v -0.23465900 -0.00308666 -0.43844500
v 0.14203100 -0.13585500 -0.40448800
v 0.18834800 -0.07099330 -0.43229900
v 0.19587500 -0.10052500 -0.41285700
v 0.19587500 -0.03570520 -0.44995300
v 0.19587500 -0.07074300 -0.43007600
v -0.22691800 0.01155410 -0.44001400
v -0.24103100 0.03799930 -0.42379800
v -0.22850100 0.00308666 -0.44154000
v -0.24103100 0.00008342 -0.43526300
v -0.24103100 0.01042790 -0.43295300
f 156 190 192
f 156 192 230
f 156 193 159
f 154 191 190
f 156 230 193
f 156 159 157
f 159 194 160
f 159 193 194
f 160 195 161
f 160 194 231
f 160 231 195
f 163 196 164
f 154 187 191
f 157 159 158
f 148 150 149
f 150 181 184
f 153 187 154
f 147 150 148
f 164 197 165
f 147 182 150
f 150 183 151
f 150 182 181
f 150 184 185
f 154 190 156
f 150 185 183
f 151 188 152
f 152 186 187
f 152 188 185
f 152 185 189
f 152 189 224
f 152 224 186
f 151 183 188
f 164 196 232
f 174 211 203
f 164 198 199
f 178 213 214
f 177 213 178
f 146 182 147
f 177 212 213
f 177 205 212
f 175 205 177
f 174 210 211
f 173 210 174
f 173 208 210
f 172 208 173
f 172 209 208
f 171 209 172
f 171 208 209
f 171 207 208
f 171 206 207
f 171 235 206
f 171 200 235
f 164 199 197
f 165 197 235
f 165 235 200
f 165 200 171
f 165 171 201
f 165 201 166
f 164 232 198
f 166 201 202
f 169 174 203
f 169 203 204
f 169 204 205
f 169 205 175
f 170 202 171
f 171 202 201
f 166 202 168
f 146 181 182
f 121 143 144
f 146 179 180
f 126 156 157
f 126 154 156
f 126 155 154
f 125 155 126
f 125 154 155
f 125 153 154
f 125 187 153
f 125 152 187
f 124 152 125
f 124 151 152
f 124 150 151
f 124 149 150
f 124 148 149
f 123 148 124
f 123 147 148
f 122 147 123
f 122 144 147
f 179 215 180
f 113 117 116
f 114 119 138
f 117 137 139
f 117 139 140
f 117 140 118
f 126 157 158
f 118 140 141
f 119 141 138
f 120 142 121
f 121 144 122
f 121 142 145
f 121 145 146
f 121 146 143
f 118 141 119
f 126 158 127
f 127 158 159
f 127 159 128
f 136 171 172
f 136 172 173
f 136 173 174
f 136 174 169
f 137 175 177
f 137 177 176
f 136 170 171
f 137 176 139
f 139 176 177
f 139 177 178
f 139 141 140
f 143 146 144
f 144 146 147
f 145 179 146
f 138 141 139
f 146 180 181
f 136 202 170
f 135 168 136
f 128 159 129
f 129 159 160
f 129 160 161
f 130 162 131
f 131 162 163
f 131 163 164
f 136 168 202
f 131 164 165
f 132 165 166
f 132 166 134
f 132 134 133
f 134 166 167
f 135 167 166
f 135 166 168
f 131 165 132
f 180 216 217
f 255 257 256
f 180 218 181
f 237 253 252
f 237 246 253
f 236 272 269
f 236 268 272
f 235 271 242
f 235 257 271
f 233 235 234
f 233 257 235
f 233 270 257
f 233 263 270
f 233 269 263
f 233 236 269
f 232 268 236
f 230 266 267
f 230 267 231
f 229 266 230
f 229 265 266
f 222 256 257
f 222 257 258
f 222 258 227
f 222 227 226
f 225 259 229
f 225 228 260
f 237 252 240
f 225 260 261
f 225 262 259
f 227 258 263
f 227 263 228
f 228 263 264
f 228 264 260
f 229 259 265
f 225 261 262
f 222 255 256
f 237 240 238
f 239 240 273
f 113 137 117
f 280 281 282
f 278 282 279
f 278 280 282
f 274 277 275
f 269 281 280
f 269 272 281
f 268 281 272
f 264 280 278
f 264 269 280
f 263 269 264
f 262 278 279
f 261 278 262
f 260 278 261
f 260 264 278
f 257 263 258
f 257 270 263
f 240 252 251
f 240 251 274
f 240 274 273
f 241 273 274
f 241 274 275
f 241 275 248
f 239 273 241
f 242 271 255
f 243 254 244
f 249 276 250
f 250 276 277
f 250 277 274
f 250 274 251
f 255 271 257
f 242 255 243
f 222 243 255
f 222 254 243
f 222 244 254
f 198 236 233
f 198 232 236
f 197 234 235
f 197 233 234
f 197 199 233
f 193 231 194
f 193 230 231
f 192 229 230
f 192 225 229
f 191 228 225
f 191 227 228
f 191 226 227
f 191 222 226
f 191 224 222
f 190 191 225
f 190 225 192
f 189 223 224
f 180 215 216
f 181 218 219
f 181 219 220
f 181 220 221
f 181 221 184
f 183 185 188
f 198 233 199
f 184 221 185
f 185 220 219
f 185 219 222
f 185 222 223
f 185 223 189
f 186 224 187
f 187 224 191
f 185 221 220
f 203 211 237
f 203 237 238
f 203 238 204
f 212 248 247
f 215 249 216
f 216 249 217
f 217 249 250
f 217 250 218
f 218 251 252
f 212 241 248
f 218 252 219
f 219 252 253
f 219 253 246
f 219 246 222
f 222 224 223
f 222 246 245
f 222 245 244
f 218 250 251
f 180 217 218
f 212 214 213
f 211 246 237
f 204 239 205
f 204 238 240
f 204 240 239
f 205 239 241
f 205 241 212
f 206 235 242
f 212 247 214
f 206 242 243
f 207 243 208
f 208 243 244
f 208 244 245
f 208 245 210
f 210 245 211
f 211 245 246
f 206 243 207
f 112 175 137
f 1 139 178
f 112 136 169
f 17 22 23
f 15 21 16
f 15 19 21
f 14 20 19
f 14 19 15
f 10 18 11
f 10 17 18
f 9 12 13
f 9 15 16
f 9 14 15
f 9 13 14
f 8 12 9
f 6 10 11
f 6 7 10
f 5 8 9
f 4 8 5
f 4 12 8
f 4 163 162
f 4 162 130
f 4 130 105
f 4 105 85
f 4 85 67
f 4 67 56
f 17 23 24
f 4 56 55
f 4 45 36
f 4 36 29
f 4 29 20
f 4 20 14
f 4 14 13
f 4 13 12
f 4 55 45
f 4 196 163
f 17 24 25
f 17 26 18
f 37 48 49
f 37 47 48
f 37 46 47
f 37 45 46
f 36 45 37
f 35 38 44
f 34 42 43
f 34 41 42
f 34 40 41
f 33 39 40
f 32 40 34
f 32 33 40
f 29 35 30
f 29 38 35
f 29 37 38
f 29 36 37
f 28 30 35
f 19 27 28
f 19 28 21
f 19 20 27
f 20 29 30
f 20 30 31
f 20 31 27
f 17 25 26
f 22 32 34
f 22 33 32
f 23 34 24
f 24 34 26
f 24 26 25
f 27 31 28
f 28 31 30
f 22 34 23
f 37 49 44
f 4 232 196
f 4 281 268
f 1 74 63
f 1 96 74
f 1 120 96
f 1 142 120
f 1 145 142
f 1 179 145
f 1 215 179
f 1 249 215
f 1 276 249
f 1 277 276
f 1 275 277
f 1 248 275
f 1 247 248
f 1 214 247
f 1 178 214
f 1 138 139
f 1 114 138
f 112 169 175
f 1 2 5
f 1 5 9
f 1 9 16
f 1 16 21
f 1 21 28
f 1 63 61
f 1 28 35
f 1 44 54
f 1 54 66
f 1 66 72
f 1 72 95
f 1 95 115
f 1 115 114
f 1 35 44
f 4 268 232
f 1 61 59
f 1 50 39
f 4 282 281
f 4 279 282
f 4 262 279
f 4 259 262
f 4 265 259
f 4 266 265
f 4 267 266
f 4 231 267
f 4 195 231
f 4 129 161
f 4 104 129
f 4 83 104
f 4 65 83
f 4 53 65
f 4 43 53
f 4 34 43
f 4 26 34
f 1 39 33
f 1 33 22
f 1 22 17
f 1 17 10
f 1 10 7
f 1 7 3
f 1 59 50
f 1 3 4
f 2 4 5
f 3 6 4
f 3 7 6
f 4 6 11
f 4 11 18
f 4 18 26
f 1 4 2
f 37 44 38
f 4 161 195
f 39 51 52
f 94 115 95
f 94 114 115
f 92 113 93
f 92 137 113
f 92 112 137
f 91 112 92
f 90 112 91
f 90 111 112
f 89 111 90
f 89 110 111
f 87 89 88
f 87 110 89
f 87 109 110
f 87 108 109
f 86 108 87
f 86 107 108
f 86 106 107
f 76 100 77
f 77 100 101
f 77 101 102
f 77 102 78
f 78 102 103
f 78 103 79
f 94 116 117
f 79 103 80
f 81 103 82
f 82 103 104
f 82 104 83
f 84 87 88
f 85 105 106
f 85 106 86
f 80 103 81
f 76 99 100
f 94 117 118
f 94 119 114
f 111 136 112
f 39 50 51
f 111 135 136
f 111 167 135
f 111 134 167
f 110 134 111
f 109 134 110
f 108 134 109
f 108 133 134
f 108 132 133
f 107 132 108
f 106 132 107
f 106 131 132
f 105 131 106
f 105 130 131
f 104 128 129
f 104 127 128
f 96 120 97
f 97 121 98
f 98 121 122
f 98 122 99
f 99 122 123
f 99 123 100
f 94 118 119
f 100 123 124
f 101 124 125
f 101 125 126
f 101 126 127
f 101 127 103
f 101 103 102
f 103 127 104
f 100 124 101
f 75 99 76
f 97 120 121
f 75 97 98
f 51 73 80
f 51 80 64
f 51 64 52
f 51 59 61
f 51 61 62
f 51 62 63
f 51 60 73
f 51 63 60
f 53 64 65
f 56 67 68
f 56 68 69
f 56 69 70
f 56 70 57
f 57 70 71
f 52 64 53
f 58 71 72
f 50 59 51
f 48 58 49
f 39 42 41
f 39 52 42
f 75 98 99
f 39 41 40
f 42 52 43
f 43 52 53
f 49 58 54
f 44 49 54
f 46 55 56
f 46 56 57
f 46 57 47
f 47 57 71
f 47 71 58
f 47 58 48
f 45 55 46
f 58 72 66
f 54 58 66
f 61 63 62
f 68 89 90
f 68 90 91
f 68 91 92
f 68 92 93
f 68 93 113
f 60 63 73
f 68 113 116
f 68 116 94
f 68 94 71
f 68 71 69
f 69 71 70
f 71 94 95
f 71 95 72
f 74 97 75
f 74 96 97
f 73 79 80
f 68 84 88
f 68 88 89
f 67 87 84
f 63 74 75
f 63 75 76
f 63 76 77
f 63 77 78
f 63 79 73
f 64 80 81
f 63 78 79
f 65 81 82
f 65 82 83
f 67 84 68
f 67 85 86
f 67 86 87
f 64 81 65

