o convex_0
v 0.787389 0.0555748 0.490972
v 0.799745 0.0586578 0.484781
v 0.78431 0.0617408 0.487864
v 0.768875 0.0555748 0.490972
v 0.805923 0.0463013 0.490972
v 0.787389 0.0648238 0.481698
v 0.818278 0.0493843 0.484781
v 0.773494 0.12504 0.245506
v 0.765777 0.0617408 0.487864
v 0.747263 0.0524918 0.487864
v 0.731828 0.0370523 0.490972
v 0.815179 0.0370523 0.490972
v 0.81364 0.0447598 0.489406
v 0.768875 0.0648238 0.481698
v 0.769012 0.127291 0.241004
v 0.75954 0.129616 0.241004
v 0.827535 0.0401353 0.484781
v 0.773494 0.12504 0.241004
v 0.68566 0.106444 0.241004
v 0.728749 0.0432183 0.487864
v 0.72489 0.0416768 0.486323
v 0.72567 0.0370523 0.487864
v 0.716393 0.00925632 0.487864
v 0.722571 0.00925632 0.490972
v 0.824456 0.0277788 0.490972
v 0.822916 0.0354863 0.489406
v 0.749367 0.12734 0.241004
v 0.749153 0.127291 0.241004
v 0.833713 0.00925632 0.490972
v 0.838351 0.0138808 0.486323
v 0.833713 0.0277788 0.481698
v 0.830634 0.0339448 0.478615
v 0.780373 0.113393 0.241004
v 0.679716 0.101844 0.241004
v 0.678566 0.0972442 0.254755
v 0.715633 0.0138808 0.486323
v 0.672837 0.0926197 0.241004
v 0.713314 0.00925632 0.481698
v 0.716393 -0.0092417 0.487864
v 0.717933 -0.0138907 0.488647
v 0.722571 -0.0092417 0.490972
v 0.839891 0.00617331 0.487864
v 0.833713 -0.0092417 0.490972
v 0.842989 7.30778e-06 0.481698
v 0.84067 0.00925632 0.480548
v 0.798907 0.0670749 0.241004
v 0.785012 0.10204 0.241004
v 0.672895 0.0927176 0.241004
v 0.650659 0.0227383 0.241004
v 0.643916 7.30778e-06 0.241004
v 0.713314 -0.0092417 0.481698
v 0.716393 -0.0154322 0.484781
v 0.72567 -0.0432281 0.484781
v 0.727209 -0.0416622 0.488647
v 0.731828 -0.0370377 0.490972
v 0.839891 -0.0123492 0.487864
v 0.84067 -0.0138907 0.486323
v 0.824456 -0.0277887 0.490972
v 0.805923 0.00925632 0.241004
v 0.805903 0.0184809 0.241004
v 0.805845 0.0369789 0.241004
v 0.801226 -0.0554133 0.241004
v 0.805884 -0.0276418 0.241004
v 0.805923 -0.0183684 0.241004
v 0.643916 -0.0092417 0.241004
v 0.64454 -0.0117619 0.241004
v 0.722571 -0.0370377 0.481698
v 0.678566 -0.0926296 0.260554
v 0.679346 -0.0987956 0.253214
v 0.68299 -0.105818 0.241004
v 0.762697 -0.0617506 0.484781
v 0.764237 -0.0602091 0.488647
v 0.745704 -0.0509356 0.488647
v 0.750342 -0.0463111 0.490972
v 0.830634 -0.0308717 0.487864
v 0.829075 -0.0347376 0.486323
v 0.827535 -0.0401207 0.481698
v 0.830634 -0.0339547 0.481698
v 0.831394 -0.0324132 0.477074
v 0.782692 -0.101732 0.241004
v 0.824456 -0.0382121 0.488647
v 0.805923 -0.0463111 0.490972
v 0.67422 -0.0926296 0.241004
v 0.676247 -0.0926296 0.250131
v 0.678157 -0.101879 0.241004
v 0.678683 -0.102735 0.241004
v 0.679248 -0.103224 0.241004
v 0.722571 -0.118493 0.241004
v 0.768875 -0.0648336 0.481698
v 0.768875 -0.0617506 0.487864
v 0.787389 -0.0617506 0.487864
v 0.787389 -0.0555601 0.490972
v 0.768875 -0.0555601 0.490972
v 0.818278 -0.0493941 0.481698
v 0.777976 -0.107727 0.241004
v 0.778093 -0.107604 0.241004
v 0.815179 -0.0474612 0.488647
v 0.796666 -0.0567346 0.488647
v 0.731828 -0.120352 0.241004
v 0.787389 -0.0648336 0.481698
v 0.792027 -0.0625091 0.486323
v 0.810561 -0.0532601 0.486323
v 0.769012 -0.114431 0.241004
v 0.731984 -0.120352 0.241004
v 0.768427 -0.114602 0.241004
f 1 2 3
f 1 3 9
f 1 9 4
f 1 4 11
f 1 11 24
f 1 24 41
f 1 41 55
f 1 55 74
f 1 74 93
f 1 93 92
f 1 92 82
f 1 82 58
f 1 58 43
f 1 43 29
f 1 29 25
f 1 25 12
f 1 12 5
f 1 5 7
f 1 7 2
f 2 6 3
f 2 7 8
f 2 8 6
f 3 6 14
f 3 14 9
f 4 9 10
f 4 10 11
f 5 12 13
f 5 13 7
f 6 8 15
f 6 15 16
f 6 16 14
f 7 13 17
f 7 17 8
f 8 18 15
f 8 17 18
f 9 14 19
f 9 19 10
f 10 19 20
f 10 20 11
f 11 20 21
f 11 21 22
f 11 22 23
f 11 23 24
f 12 25 26
f 12 26 13
f 13 26 17
f 14 16 27
f 14 27 28
f 14 28 19
f 15 18 33
f 15 33 47
f 15 47 46
f 15 46 61
f 15 61 60
f 15 60 59
f 15 59 64
f 15 64 63
f 15 63 62
f 15 62 80
f 15 80 96
f 15 96 95
f 15 95 103
f 15 103 105
f 15 105 104
f 15 104 99
f 15 99 88
f 15 88 70
f 15 70 87
f 15 87 86
f 15 86 85
f 15 85 83
f 15 83 66
f 15 66 65
f 15 65 50
f 15 50 49
f 15 49 37
f 15 37 48
f 15 48 34
f 15 34 19
f 15 19 28
f 15 28 27
f 15 27 16
f 17 26 25
f 17 25 29
f 17 29 30
f 17 30 31
f 17 31 32
f 17 32 33
f 17 33 18
f 19 34 35
f 19 35 21
f 19 21 20
f 21 36 23
f 21 23 22
f 21 35 37
f 21 37 36
f 23 36 38
f 23 38 51
f 23 51 39
f 23 39 40
f 23 40 24
f 24 40 41
f 29 42 30
f 29 43 56
f 29 56 42
f 30 42 44
f 30 44 45
f 30 45 31
f 31 45 46
f 31 46 47
f 31 47 33
f 31 33 32
f 34 48 35
f 35 48 37
f 36 37 49
f 36 49 50
f 36 50 38
f 38 50 65
f 38 65 51
f 39 51 40
f 40 51 52
f 40 52 53
f 40 53 54
f 40 54 55
f 40 55 41
f 42 56 57
f 42 57 44
f 43 58 56
f 44 59 60
f 44 60 61
f 44 61 46
f 44 46 45
f 44 57 62
f 44 62 63
f 44 63 64
f 44 64 59
f 51 65 66
f 51 66 67
f 51 67 52
f 52 67 53
f 53 67 68
f 53 68 69
f 53 69 70
f 53 70 71
f 53 71 72
f 53 72 73
f 53 73 54
f 54 73 55
f 55 73 74
f 56 58 75
f 56 75 57
f 57 75 76
f 57 76 77
f 57 77 78
f 57 78 79
f 57 79 80
f 57 80 62
f 58 81 75
f 58 82 81
f 66 83 84
f 66 84 68
f 66 68 67
f 68 84 69
f 69 84 83
f 69 83 85
f 69 85 86
f 69 86 87
f 69 87 70
f 70 88 89
f 70 89 71
f 71 89 72
f 72 89 90
f 72 90 91
f 72 91 92
f 72 92 93
f 72 93 74
f 72 74 73
f 75 81 76
f 76 81 77
f 77 79 78
f 77 81 94
f 77 94 95
f 77 95 96
f 77 96 80
f 77 80 79
f 81 82 97
f 81 97 94
f 82 92 98
f 82 98 97
f 88 99 89
f 89 100 91
f 89 91 90
f 89 99 104
f 89 104 100
f 91 100 101
f 91 101 98
f 91 98 92
f 94 97 102
f 94 102 103
f 94 103 95
f 97 98 102
f 98 101 102
f 100 104 105
f 100 105 103
f 100 103 101
f 101 103 102
o convex_1
v 0.852253 0 0.111103
v 0.842937 -0.0462818 0.12968
v 0.852253 0 0.0925952
v 0.833685 0.0833472 0.111103
v 0.842937 0.0370255 0.12968
v 0.833685 0.0185127 0.166696
v 0.815181 0.0185127 0.222288
v 0.815181 -0.00925637 0.222288
v 0.842937 -0.00925637 0.138899
v 0.842937 -0.0462818 0.101884
v 0.833685 -0.0740908 0.148188
v 0.833685 -0.0833472 0.138899
v 0.842937 -0.0370255 0.0277834
v 0.842937 -0.0185127 0.00920631
v 0.842937 0 -1.29106e-05
v 0.842937 0.0277691 0.0184948
v 0.842937 0.0370255 0.0277834
v 0.833685 0.0833472 0.0462912
v 0.824433 0.111156 0.0925952
v 0.824433 0.1019 0.138899
v 0.833685 0.0740908 0.138899
v 0.833685 0.0648345 0.148188
v 0.805929 0.0370255 0.240796
v 0.805929 0.00925637 0.241004
v 0.824433 0.0648345 0.175984
v 0.805929 -0.0183531 0.241004
v 0.805864 -0.0276494 0.241004
v 0.805929 -0.0277691 0.240796
v 0.805929 -0.0555781 0.231577
v 0.815181 -0.0648345 0.20378
v 0.833685 -0.0833472 0.0462912
v 0.831372 -0.0845042 0.148188
v 0.827517 -0.0957156 0.138899
v 0.824433 -0.111156 0.0833067
v 0.840624 -0.0416536 0.0231391
v 0.840624 -0.0323973 0.0138506
v 0.840624 -0.0231409 0.00463136
v 0.840624 -0.00462818 -0.00465718
v 0.836769 0 -0.0124207
v 0.840624 0.00925637 -0.00119131
v 0.840624 0.0370255 0.0173165
v 0.831372 0.0833472 0.0358935
v 0.824433 0.111156 0.0462912
v 0.818265 0.123485 0.0957145
v 0.818265 0.114228 0.142019
v 0.819807 0.106528 0.152832
v 0.824433 0.0926036 0.157476
v 0.832143 0.0725348 0.146663
v 0.822891 0.0910874 0.165171
v 0.824433 0.0833472 0.166696
v 0.801303 0.0694626 0.236221
v 0.798861 0.0670688 0.241004
v 0.8058 0.0369457 0.241004
v 0.805929 0.0555781 0.231577
v 0.801174 -0.0554185 0.241004
v 0.802845 -0.0586502 0.237746
v 0.812097 -0.0679066 0.20995
v 0.824433 -0.111156 0.0462912
v 0.831372 -0.0879754 0.0416469
v 0.821349 -0.0957156 0.163646
v 0.818265 -0.104972 0.157476
v 0.809013 -0.123485 0.148188
v 0.809013 -0.132741 0.111103
v 0.818265 -0.123485 0.0833067
v 0.82212 -0.115784 0.0416469
v 0.831372 -0.078719 0.0323583
v 0.82212 -0.106528 0.0323583
v 0.837154 -0.0277691 -1.29106e-05
v 0.837154 -0.00925637 -0.00930145
v 0.82212 -0.00462818 -0.041742
v 0.818265 0 -0.0494363
v 0.82212 0.00925637 -0.0382762
v 0.838311 0.0416536 0.0162074
v 0.829059 0.078719 0.0254266
v 0.831372 0.0740908 0.026605
v 0.821349 0.1173 0.0431719
v 0.818265 0.123485 0.0493411
v 0.809013 0.132741 0.0957145
v 0.799697 0.142037 0.104934
v 0.771941 0.16055 0.169815
v 0.809013 0.123485 0.151238
v 0.799697 0.123485 0.188323
v 0.819807 0.0972317 0.17134
v 0.791986 0.106528 0.226932
v 0.782734 0.115784 0.236221
v 0.784983 0.10202 0.241004
v 0.78267 -0.10174 0.241004
v 0.784277 -0.104972 0.237746
v 0.785048 -0.112313 0.231577
v 0.791986 -0.122727 0.208425
v 0.802845 -0.114228 0.191442
v 0.819807 -0.0995458 0.162051
v 0.7943 -0.130826 0.194492
v 0.791986 -0.136611 0.189848
v 0.793529 -0.135853 0.185203
v 0.799697 -0.132741 0.166696
v 0.790445 -0.142037 0.175984
v 0.790445 -0.151294 0.120392
v 0.809013 -0.132741 0.0462912
v 0.818265 -0.123485 0.0462912
v 0.809398 -0.129669 0.0370026
v 0.817494 -0.115784 0.0323583
v 0.812868 -0.078719 -0.00465718
v 0.81865 -0.00925637 -0.0463863
v 0.790445 0 -0.0957403
v 0.7943 0.00925637 -0.0845802
v 0.819807 0.0138845 -0.0393852
v 0.819807 0.115784 0.0393594
v 0.782734 0.0231409 -0.0949778
v 0.801303 0.134297 0.0254266
v 0.802845 0.135853 0.0339526
v 0.809013 0.132741 0.0493411
v 0.799697 0.142037 0.086426
v 0.784277 0.154366 0.117272
v 0.764231 0.162106 0.17134
v 0.773483 0.143553 0.208425
v 0.781193 0.142037 0.197611
v 0.762689 0.169806 0.142019
v 0.756521 0.172918 0.135849
v 0.779651 0.131225 0.223813
v 0.782734 0.125041 0.226932
v 0.791986 0.115784 0.217644
v 0.773483 0.125041 0.241004
v 0.780357 0.11339 0.241004
v 0.77798 -0.107725 0.241004
v 0.782734 -0.108842 0.236221
v 0.768985 -0.114428 0.241004
v 0.778108 -0.114228 0.234627
v 0.782734 -0.118098 0.226932
v 0.791986 -0.131983 0.199136
v 0.78736 -0.142396 0.185203
v 0.768857 -0.160949 0.166696
v 0.771941 -0.16055 0.157476
v 0.790445 -0.151294 0.111103
v 0.762689 -0.169806 0.138899
v 0.781193 -0.151294 0.0277834
v 0.802845 -0.135853 0.0370026
v 0.803616 -0.134297 0.0323583
v 0.799697 -0.142037 0.0740875
v 0.7943 -0.134297 0.0138506
v 0.798926 -0.115784 0.00463136
v 0.808242 -0.0879754 -0.00465718
v 0.800082 -0.0277691 -0.0648941
v 0.809398 -0.0185127 -0.0556055
v 0.79083 -0.00925637 -0.0926904
v 0.781193 -0.00925637 -0.105029
v 0.753437 0 -0.141975
v 0.781193 0.00925637 -0.105029
v 0.791986 0.0138845 -0.0856893
v 0.754979 0.0138845 -0.131993
v 0.764231 0.0509499 -0.0949778
v 0.764231 0.125041 -0.0393852
v 0.754979 0.162106 -0.0208775
v 0.753437 0.169806 0.0308334
v 0.756521 0.163622 -0.0124207
v 0.762689 0.169806 0.123511
v 0.759605 0.166734 0.157476
v 0.758448 0.16442 0.166696
v 0.759605 0.148182 0.20378
v 0.768857 0.138925 0.222288
v 0.771941 0.132741 0.234627
v 0.756521 0.172918 0.117272
v 0.737952 0.182175 0.0987645
v 0.750353 0.175991 0.12968
v 0.768985 0.127275 0.241004
v 0.768857 -0.114468 0.241004
v 0.768857 -0.114627 0.240796
v 0.778108 -0.123884 0.222288
v 0.778108 -0.142396 0.194492
v 0.754979 -0.155164 0.180628
v 0.764231 -0.16442 0.162051
v 0.759605 -0.170205 0.148188
v 0.750353 -0.142396 0.20378
v 0.762689 -0.169806 0.111103
v 0.771941 -0.16055 0.0647989
v 0.754979 -0.173677 0.143544
v 0.756521 -0.172918 0.138899
v 0.753437 -0.169806 0.0277834
v 0.762689 -0.16055 -1.29106e-05
v 0.757292 -0.162106 -0.0139457
v 0.790445 -0.142037 0.0184948
v 0.752666 -0.162106 -0.0231649
v 0.761918 -0.125041 -0.041742
v 0.789674 -0.0416536 -0.0695383
v 0.780422 -0.0231409 -0.0973346
v 0.785048 -0.0138845 -0.0973346
v 0.707112 0 -0.188348
v 0.605212 0.00925637 -0.290245
v 0.632968 0.00925637 -0.262449
v 0.752666 -0.0138845 -0.134281
v 0.632968 -0.00925637 -0.262449
v 0.605212 -0.00925637 -0.290245
v 0.699402 0.0694626 -0.150501
v 0.63451 0.0231409 -0.252398
v 0.606754 0.0509499 -0.261686
v 0.606754 0.15281 -0.187586
v 0.671582 0.134297 -0.131993
v 0.699402 0.143553 -0.0949778
v 0.750353 0.16442 -0.0196991
v 0.66233 0.171362 -0.113416
v 0.657704 0.173677 -0.112377
v 0.747204 0.172918 0.0246641
v 0.737952 0.182175 0.0802567
v 0.74412 0.179063 0.086426
v 0.750353 0.166734 -0.00930145
v 0.749132 0.173677 0.138899
v 0.750353 0.166734 0.157476
v 0.747204 0.163622 0.163646
v 0.756521 0.145109 0.20995
v 0.762689 0.142037 0.216119
v 0.765773 0.135853 0.228457
v 0.75954 0.129589 0.241004
v 0.731784 0.185247 0.0925952
v 0.741036 0.175991 0.12968
v 0.730628 0.182933 0.101884
v 0.768407 -0.114587 0.241004
v 0.768857 -0.13314 0.213
v 0.750353 -0.157478 0.175984
v 0.750353 -0.166734 0.157476
v 0.759605 -0.166734 0.157476
v 0.745662 -0.145868 0.199136
v 0.759605 -0.132741 0.216119
v 0.741036 -0.123485 0.234627
v 0.731913 -0.120333 0.241004
v 0.756521 -0.172918 0.111103
v 0.74412 -0.179063 0.0740875
v 0.73641 -0.182933 0.106528
v 0.750353 -0.175991 0.12968
v 0.741036 -0.16442 0.158585
v 0.203842 -0.201446 -0.193339
v 0.213094 -0.2038 -0.194518
v 0.541861 -0.201446 -0.0324535
v 0.676208 -0.194503 0.0462912
v 0.737952 -0.182175 0.101884
v 0.747204 -0.172918 0.0277834
v 0.750353 -0.166734 -0.00930145
v 0.756521 -0.163622 -0.00930145
v 0.737952 -0.182175 0.0740875
v 0.751509 -0.16442 -0.01859
v 0.660017 -0.171362 -0.115773
v 0.761918 -0.0879754 -0.0695383
v 0.632197 -0.162106 -0.152789
v 0.651536 0 -0.243941
v 0.597502 0.0138845 -0.294058
v 0.597502 0.0231409 -0.289483
v 0.586644 0 -0.308753
v 0.592812 0.00925637 -0.29988
v 0.625258 0.0231409 -0.261686
v 0.595125 -0.15281 -0.199162
v 0.585873 -0.115784 -0.236178
v 0.632197 -0.0231409 -0.254685
v 0.613693 -0.0231409 -0.273262
v 0.595125 -0.0231409 -0.29177
v 0.597502 0.0509499 -0.270906
v 0.588186 0.115784 -0.23389
v 0.569682 0.171362 -0.210738
v 0.571224 0.172918 -0.206856
v 0.569682 0.180619 -0.196805
v 0.565056 0.182933 -0.195627
v 0.565056 0.185247 -0.185229
v 0.657704 0.175991 -0.10191
v 0.741036 0.175991 0.0277834
v 0.731784 0.185247 0.0833067
v 0.722532 0.185247 0.0462912
v 0.213094 0.2038 -0.194518
v 0.21001 0.200688 -0.188348
v 0.756521 0.135853 0.228457
v 0.195875 0.201007 -0.196389
v 0.749325 0.127355 0.241004
v 0.722532 0.185247 0.0925952
v 0.676208 0.194503 0.0462912
v 0.527983 0.2038 -0.0463863
v 0.731784 -0.120333 0.241004
v 0.730564 -0.120093 0.241004
v 0.722532 -0.118497 0.241004
v 0.666956 -0.127355 0.19567
v 0.648452 -0.136611 0.167874
v 0.731784 -0.185247 0.0925952
v 0.195875 -0.188359 -0.172891
v 0.195875 -0.194862 -0.185437
v 0.195875 -0.198054 -0.191606
v 0.195875 -0.200807 -0.196944
v 0.195875 -0.203441 -0.202281
v 0.195875 -0.2038 -0.203737
v 0.527983 -0.2038 -0.0463863
v 0.527983 -0.2038 -0.0556055
v 0.648452 -0.194503 0.00920631
v 0.565056 -0.185247 -0.194518
v 0.620632 -0.185247 -0.111198
v 0.657704 -0.185247 -0.0556055
v 0.676208 -0.185247 -0.0278092
v 0.722532 -0.185247 0.0462912
v 0.731784 -0.185247 0.0740875
v 0.741036 -0.175991 0.0277834
v 0.731784 -0.175991 0.00920631
v 0.71328 -0.175991 -0.01859
v 0.658861 -0.173677 -0.111198
v 0.56814 -0.182175 -0.200687
v 0.571995 -0.180619 -0.199162
v 0.571995 -0.171362 -0.208381
v 0.578934 0.00462818 -0.312635
v 0.578934 0.0416536 -0.289483
v 0.578934 0.106528 -0.247754
v 0.581247 -0.00462818 -0.310278
v 0.577392 -0.00614431 -0.311872
v 0.392223 0 -0.41065
v 0.576621 -0.15281 -0.21767
v 0.595125 -0.0509499 -0.273262
v 0.576621 -0.0416536 -0.29177
v 0.565056 0.166734 -0.216491
v 0.347441 0.171362 -0.326498
v 0.546552 0.179063 -0.216145
v 0.56043 0.180619 -0.206094
v 0.574308 0.1019 -0.253576
v 0.555804 0.182933 -0.204915
v 0.555804 0.185247 -0.194518
v 0.518796 0.2038 -0.0648941
v 0.546552 0.194503 -0.120417
v 0.195875 0.2038 -0.203737
v 0.195875 0.203401 -0.202212
v 0.747975 0.134297 0.226932
v 0.195875 0.188359 -0.172891
v 0.683147 0.115784 0.226932
v 0.682376 0.108044 0.237746
v 0.685653 0.106448 0.241004
v 0.682954 -0.10581 0.241004
v 0.195875 -0.151294 -0.126587
v 0.195875 -0.2038 -0.220928
v 0.518796 -0.2038 -0.0648941
v 0.565056 -0.194503 -0.10191
v 0.213094 -0.194503 -0.296414
v 0.509544 -0.185247 -0.222314
v 0.512628 -0.182175 -0.228483
v 0.521109 -0.180619 -0.226958
v 0.558117 -0.180619 -0.208381
v 0.558117 -0.171362 -0.21767
v 0.56814 -0.172918 -0.209906
v 0.567369 -0.162106 -0.21767
v 0.565056 0.0370255 -0.29988
v 0.384449 0.00462818 -0.414531
v 0.527983 0.00925637 -0.336896
v 0.539548 -0.0138845 -0.328855
v 0.382907 -0.00614431 -0.413769
v 0.349754 -0.00462818 -0.430752
v 0.385991 0 -0.413769
v 0.576621 -0.0694626 -0.273262
v 0.521109 -0.115784 -0.273262
v 0.558117 -0.143553 -0.236178
v 0.546552 0.138925 -0.244288
v 0.416895 0.157478 -0.29988
v 0.333499 0.166734 -0.336896
v 0.314995 0.166734 -0.346184
v 0.319621 0.171362 -0.340431
v 0.500292 0.182933 -0.232712
v 0.490975 0.179063 -0.243941
v 0.481723 0.182933 -0.242
v 0.490975 0.0833472 -0.309169
v 0.546552 0.185247 -0.203737
v 0.509544 0.185247 -0.222314
v 0.463219 0.2038 -0.0926904
v 0.195875 0.2038 -0.211708
v 0.195875 0.151294 -0.126587
v 0.679678 0.10182 0.241004
v 0.195875 0.114228 -0.0803518
v 0.679228 -0.103216 0.241004
v 0.195875 -0.114228 -0.0803518
v 0.213094 -0.2038 -0.213025
v 0.195875 -0.194503 -0.304317
v 0.463219 -0.2038 -0.0926904
v 0.287174 -0.185247 -0.33343
v 0.398391 -0.185247 -0.277907
v 0.345899 -0.182175 -0.311872
v 0.372884 -0.180619 -0.301059
v 0.345128 -0.171362 -0.328855
v 0.493288 -0.15281 -0.263974
v 0.416895 0.0277691 -0.383269
v 0.347441 0.00462818 -0.433039
v 0.352067 0.0370255 -0.411065
v 0.511857 -0.0509499 -0.319566
v 0.447028 -0.0602063 -0.347363
v 0.345128 -0.0416536 -0.412175
v 0.345899 -0.00614431 -0.432277
v 0.348983 0 -0.432277
v 0.342815 0 -0.435327
v 0.382136 -0.0694626 -0.375159
v 0.342815 0.1019 -0.373981
v 0.305743 0.157478 -0.355473
v 0.291865 0.171362 -0.34965
v 0.324247 0.1019 -0.383269
v 0.287174 0.172918 -0.348888
v 0.296491 0.179063 -0.336549
v 0.342815 0.179063 -0.318041
v 0.370571 0.182933 -0.297593
v 0.398391 0.185247 -0.277907
v 0.361319 0.185247 -0.296414
v 0.342815 0.185247 -0.305634
v 0.277922 0.194503 -0.25933
v 0.250166 0.2038 -0.194518
v 0.222346 0.2038 -0.203737
v 0.296491 0.185247 -0.324211
v 0.231598 0.185247 -0.33343
v 0.195875 0.185247 -0.33343
v 0.195875 0.0907682 -0.0676668
v 0.672867 0.0927232 0.241004
v 0.67865 -0.102738 0.241004
v 0.195875 -0.107166 -0.0762621
v 0.195875 -0.185247 -0.352007
v 0.222346 -0.185247 -0.352007
v 0.259418 -0.185247 -0.342718
v 0.290323 -0.182175 -0.339599
v 0.298804 -0.180619 -0.338074
v 0.32656 -0.171362 -0.338074
v 0.335812 -0.106528 -0.375159
v 0.310369 0.00462818 -0.442328
v 0.314995 0.00925637 -0.438862
v 0.333499 0.0185127 -0.429573
v 0.324247 0.0555781 -0.411065
v 0.338125 0.0416536 -0.414531
v 0.317308 -0.162106 -0.347363
v 0.308056 -0.15281 -0.356582
v 0.32656 -0.0509499 -0.412175
v 0.336583 -0.0432097 -0.413769
v 0.335812 -0.0138845 -0.430752
v 0.308827 -0.0246969 -0.432277
v 0.308827 -0.00614431 -0.441565
v 0.26867 0 -0.453904
v 0.226972 0.171362 -0.368227
v 0.222346 0.172918 -0.367395
v 0.296491 0.182175 -0.33038
v 0.305743 0.182933 -0.32532
v 0.352067 0.182933 -0.306812
v 0.222346 0.175991 -0.361226
v 0.195875 0.173996 -0.370168
v 0.195875 0.0848633 -0.0652406
v 0.672803 0.0926036 0.241004
v 0.678136 -0.1019 0.241004
v 0.195875 -0.0833472 -0.0648941
v 0.195875 -0.1019 -0.0736281
v 0.195875 -0.182295 -0.358661
v 0.22543 -0.182175 -0.358176
v 0.262502 -0.182175 -0.348888
v 0.28409 -0.179063 -0.345838
v 0.298804 -0.171362 -0.347363
v 0.291865 0.0138845 -0.442328
v 0.273296 0.00462818 -0.451547
v 0.296491 0.0185127 -0.438862
v 0.314995 0.0277691 -0.429573
v 0.299575 -0.154366 -0.358176
v 0.318079 -0.052466 -0.413769
v 0.317308 -0.0231409 -0.430752
v 0.243998 -0.0339533 -0.441565
v 0.290323 -0.0154007 -0.441565
v 0.290323 -0.126597 -0.376684
v 0.281006 -0.0987878 -0.395192
v 0.271754 -0.00614431 -0.450784
v 0.195875 -0.00925637 -0.464925
v 0.222346 0 -0.463123
v 0.195875 0.00925637 -0.466104
v 0.213094 0.166734 -0.373981
v 0.203842 0.169806 -0.373565
v 0.195875 0.172998 -0.37197
v 0.195875 0.173557 -0.371069
v 0.195875 0.0580518 -0.0579623
v 0.636052 0.00925637 0.234627
v 0.650637 0.0227419 0.241004
v 0.195875 0.0185127 -0.0477033
v 0.195875 0.00925637 -0.0456931
v 0.674216 -0.0926036 0.241004
v 0.195875 -0.0820305 -0.0644088
v 0.195875 -0.179063 -0.364346
v 0.200758 -0.179063 -0.364346
v 0.234682 -0.163622 -0.367395
v 0.290323 -0.172918 -0.348888
v 0.206926 -0.172918 -0.367395
v 0.197674 -0.145109 -0.385973
v 0.22543 -0.135853 -0.385973
v 0.195875 0.0101341 -0.465688
v 0.277922 0.00925637 -0.448081
v 0.213094 0.0185127 -0.45737
v 0.250166 0.0370255 -0.438862
v 0.197674 -0.0987878 -0.413769
v 0.206926 -0.0154007 -0.460073
v 0.195875 0 -0.467143
v 0.197674 -0.0339533 -0.450784
v 0.195875 -0.0357088 -0.449953
v 0.195875 0.158356 -0.382299
v 0.64389 0 0.241004
v 0.195875 -0.00925637 -0.0456931
v 0.644469 -0.0117699 0.241004
v 0.203842 -0.0185127 -0.0428511
v 0.195875 -0.0462818 -0.0551203
v 0.195875 -0.163383 -0.374466
v 0.195875 -0.146865 -0.385071
v 0.195875 -0.0707793 -0.430058
v 0.196903 -0.0694626 -0.430752
v 0.195875 -0.100543 -0.412868
v 0.64389 -0.00925637 0.241004
f 106 107 115
f 106 115 108
f 106 108 123
f 106 123 109
f 106 109 110
f 106 110 111
f 106 111 112
f 106 112 113
f 106 113 114
f 106 114 107
f 107 114 113
f 107 113 116
f 107 116 117
f 107 117 136
f 107 136 115
f 108 115 118
f 108 118 119
f 108 119 120
f 108 120 121
f 108 121 122
f 108 122 123
f 109 124 125
f 109 125 126
f 109 126 110
f 109 123 148
f 109 148 124
f 110 126 127
f 110 127 111
f 111 127 130
f 111 130 112
f 112 128 129
f 112 129 131
f 112 131 113
f 112 130 128
f 113 131 132
f 113 132 133
f 113 133 134
f 113 134 135
f 113 135 116
f 115 136 118
f 116 135 137
f 116 137 117
f 117 137 138
f 117 138 139
f 117 139 163
f 117 163 136
f 118 136 164
f 118 164 140
f 118 140 141
f 118 141 119
f 119 141 142
f 119 142 143
f 119 143 120
f 120 143 144
f 120 144 145
f 120 145 146
f 120 146 121
f 121 146 122
f 122 146 123
f 123 146 147
f 123 147 148
f 124 149 150
f 124 150 125
f 124 148 182
f 124 182 149
f 125 150 151
f 125 151 152
f 125 152 126
f 126 152 153
f 126 153 127
f 127 153 152
f 127 152 154
f 127 154 155
f 127 155 130
f 128 156 157
f 128 157 158
f 128 158 129
f 128 130 159
f 128 159 156
f 129 158 157
f 129 157 191
f 129 191 229
f 129 229 228
f 129 228 270
f 129 270 317
f 129 317 374
f 129 374 430
f 129 430 468
f 129 468 509
f 129 509 540
f 129 540 570
f 129 570 592
f 129 592 602
f 129 602 594
f 129 594 573
f 129 573 541
f 129 541 510
f 129 510 470
f 129 470 431
f 129 431 380
f 129 380 379
f 129 379 378
f 129 378 329
f 129 329 321
f 129 321 271
f 129 271 232
f 129 232 230
f 129 230 192
f 129 192 160
f 129 160 132
f 129 132 131
f 130 155 159
f 132 160 161
f 132 161 134
f 132 134 133
f 134 161 162
f 134 162 135
f 135 162 137
f 136 163 170
f 136 170 164
f 137 165 166
f 137 166 138
f 137 162 165
f 138 166 167
f 138 167 168
f 138 168 169
f 138 169 139
f 139 169 170
f 139 170 163
f 140 164 171
f 140 171 141
f 141 171 172
f 141 172 142
f 142 172 173
f 142 173 174
f 142 174 143
f 143 174 209
f 143 209 175
f 143 175 144
f 144 175 176
f 144 176 177
f 144 177 145
f 145 177 146
f 146 178 179
f 146 179 180
f 146 180 147
f 146 177 212
f 146 212 178
f 147 181 148
f 147 180 181
f 148 181 182
f 149 183 184
f 149 184 185
f 149 185 186
f 149 186 150
f 149 182 217
f 149 217 183
f 150 186 187
f 150 187 151
f 151 187 188
f 151 188 152
f 152 188 154
f 154 188 155
f 155 188 156
f 155 156 159
f 156 189 190
f 156 190 191
f 156 191 157
f 156 188 189
f 160 192 161
f 161 192 193
f 161 193 194
f 161 194 195
f 161 195 162
f 162 195 196
f 162 196 165
f 164 170 172
f 164 172 171
f 165 197 166
f 165 196 198
f 165 198 197
f 166 197 198
f 166 198 199
f 166 199 200
f 166 200 201
f 166 201 167
f 167 201 168
f 168 201 202
f 168 202 203
f 168 203 239
f 168 239 204
f 168 204 205
f 168 205 169
f 169 205 170
f 170 205 206
f 170 206 243
f 170 243 207
f 170 207 172
f 172 207 247
f 172 247 208
f 172 208 209
f 172 209 173
f 173 209 174
f 175 209 176
f 176 209 250
f 176 250 210
f 176 210 211
f 176 211 177
f 177 211 254
f 177 254 212
f 178 212 179
f 179 213 181
f 179 181 180
f 179 212 214
f 179 214 213
f 181 213 215
f 181 215 182
f 182 215 216
f 182 216 217
f 183 217 218
f 183 218 184
f 184 218 219
f 184 219 185
f 185 220 221
f 185 221 222
f 185 222 186
f 185 219 223
f 185 223 224
f 185 224 220
f 186 222 187
f 187 222 225
f 187 225 226
f 187 226 227
f 187 227 188
f 188 227 189
f 189 227 226
f 189 226 190
f 190 228 229
f 190 229 191
f 190 226 228
f 192 230 193
f 193 231 194
f 193 230 231
f 194 231 230
f 194 230 232
f 194 232 233
f 194 233 234
f 194 234 235
f 194 235 195
f 195 235 196
f 196 235 198
f 198 235 199
f 199 235 236
f 199 236 202
f 199 202 200
f 200 202 201
f 202 236 237
f 202 237 238
f 202 238 203
f 203 238 240
f 203 240 279
f 203 279 239
f 204 241 242
f 204 242 243
f 204 243 205
f 204 239 244
f 204 244 241
f 205 243 206
f 207 243 245
f 207 245 246
f 207 246 247
f 208 247 248
f 208 248 249
f 208 249 209
f 209 249 250
f 210 250 251
f 210 251 252
f 210 252 253
f 210 253 214
f 210 214 254
f 210 254 211
f 212 254 214
f 213 214 215
f 214 253 255
f 214 255 256
f 214 256 257
f 214 257 215
f 215 257 258
f 215 258 216
f 216 259 218
f 216 218 217
f 216 258 260
f 216 260 259
f 218 261 219
f 218 259 261
f 219 261 223
f 220 224 262
f 220 262 263
f 220 263 264
f 220 264 265
f 220 265 221
f 221 265 266
f 221 266 225
f 221 225 222
f 223 261 267
f 223 267 224
f 224 267 308
f 224 308 268
f 224 268 318
f 224 318 269
f 224 269 262
f 225 266 226
f 226 266 228
f 228 266 270
f 232 271 272
f 232 272 273
f 232 273 234
f 232 234 233
f 234 273 235
f 235 274 236
f 235 273 274
f 236 274 237
f 237 275 276
f 237 276 281
f 237 281 277
f 237 277 238
f 237 274 278
f 237 278 275
f 238 277 240
f 239 279 280
f 239 280 241
f 239 241 244
f 240 277 281
f 240 281 282
f 240 282 330
f 240 330 279
f 241 280 283
f 241 283 284
f 241 284 285
f 241 285 242
f 242 285 243
f 243 285 286
f 243 286 245
f 245 286 287
f 245 287 288
f 245 288 246
f 246 288 247
f 247 288 289
f 247 289 248
f 248 289 290
f 248 290 250
f 248 250 249
f 250 290 291
f 250 291 251
f 251 291 290
f 251 290 295
f 251 295 252
f 252 292 293
f 252 293 294
f 252 294 255
f 252 255 253
f 252 295 296
f 252 296 297
f 252 297 292
f 255 298 256
f 255 294 299
f 255 299 300
f 255 300 298
f 256 298 301
f 256 301 302
f 256 302 257
f 257 302 301
f 257 301 303
f 257 303 258
f 258 304 260
f 258 303 301
f 258 301 305
f 258 305 306
f 258 306 304
f 259 260 307
f 259 307 308
f 259 308 309
f 259 309 261
f 260 310 307
f 260 304 310
f 261 309 267
f 262 269 263
f 263 269 311
f 263 311 319
f 263 319 312
f 263 312 313
f 263 313 314
f 263 314 264
f 264 314 315
f 264 315 265
f 265 315 316
f 265 316 266
f 266 316 317
f 266 317 270
f 267 309 308
f 268 308 368
f 268 368 318
f 269 319 311
f 269 318 320
f 269 320 319
f 271 321 272
f 272 321 322
f 272 322 274
f 272 274 273
f 274 322 278
f 275 323 324
f 275 324 325
f 275 325 276
f 275 278 326
f 275 326 323
f 276 325 281
f 278 322 327
f 278 327 328
f 278 328 329
f 278 329 326
f 279 330 343
f 279 343 331
f 279 331 283
f 279 283 280
f 281 332 333
f 281 333 282
f 281 325 324
f 281 324 334
f 281 334 335
f 281 335 336
f 281 336 337
f 281 337 338
f 281 338 332
f 282 333 339
f 282 339 343
f 282 343 330
f 283 340 341
f 283 341 342
f 283 342 284
f 283 331 343
f 283 343 340
f 284 342 285
f 285 342 344
f 285 344 287
f 285 287 286
f 287 344 402
f 287 402 345
f 287 345 288
f 288 346 290
f 288 290 289
f 288 345 347
f 288 347 346
f 290 346 295
f 292 297 348
f 292 348 293
f 293 349 350
f 293 350 353
f 293 353 294
f 293 348 297
f 293 297 351
f 293 351 352
f 293 352 349
f 294 353 299
f 295 354 355
f 295 355 356
f 295 356 296
f 295 346 354
f 296 356 357
f 296 357 297
f 297 358 351
f 297 357 358
f 298 300 301
f 299 353 300
f 300 353 350
f 300 350 359
f 300 359 360
f 300 360 301
f 301 360 361
f 301 361 305
f 304 306 310
f 305 361 362
f 305 362 363
f 305 363 306
f 306 363 364
f 306 364 365
f 306 365 366
f 306 366 310
f 307 310 367
f 307 367 368
f 307 368 308
f 310 369 367
f 310 366 369
f 312 319 370
f 312 370 313
f 313 370 371
f 313 371 314
f 314 372 317
f 314 317 315
f 314 371 373
f 314 373 372
f 315 317 316
f 317 372 374
f 318 375 320
f 318 368 376
f 318 376 375
f 319 320 375
f 319 375 376
f 319 376 377
f 319 377 370
f 321 329 328
f 321 328 327
f 321 327 322
f 323 326 324
f 324 326 334
f 326 329 378
f 326 378 379
f 326 379 380
f 326 380 381
f 326 381 382
f 326 382 335
f 326 335 334
f 332 383 333
f 332 338 383
f 333 383 339
f 335 384 385
f 335 385 386
f 335 386 387
f 335 387 388
f 335 388 336
f 335 382 381
f 335 381 384
f 336 388 389
f 336 389 433
f 336 433 472
f 336 472 474
f 336 474 434
f 336 434 391
f 336 391 390
f 336 390 337
f 337 390 338
f 338 390 391
f 338 391 392
f 338 392 393
f 338 393 394
f 338 394 395
f 338 395 396
f 338 396 397
f 338 397 398
f 338 398 383
f 339 383 398
f 339 398 343
f 340 399 341
f 340 343 398
f 340 398 399
f 341 344 342
f 341 399 397
f 341 397 400
f 341 400 401
f 341 401 394
f 341 394 393
f 341 393 402
f 341 402 344
f 345 402 403
f 345 403 404
f 345 404 405
f 345 405 347
f 346 347 354
f 347 405 354
f 349 352 406
f 349 406 350
f 350 406 407
f 350 407 408
f 350 408 359
f 351 406 352
f 351 358 409
f 351 409 410
f 351 410 411
f 351 411 406
f 354 405 412
f 354 412 355
f 355 412 413
f 355 413 356
f 356 413 357
f 357 413 358
f 358 413 451
f 358 451 414
f 358 414 410
f 358 410 409
f 359 408 361
f 359 361 360
f 361 415 416
f 361 416 417
f 361 417 418
f 361 418 362
f 361 408 419
f 361 419 415
f 362 418 363
f 363 418 420
f 363 420 364
f 364 420 421
f 364 421 365
f 365 421 422
f 365 422 423
f 365 423 376
f 365 376 369
f 365 369 366
f 367 369 368
f 368 369 376
f 370 424 425
f 370 425 371
f 370 377 422
f 370 422 465
f 370 465 503
f 370 503 504
f 370 504 466
f 370 466 424
f 371 425 373
f 372 426 374
f 372 373 426
f 373 425 424
f 373 424 466
f 373 466 507
f 373 507 538
f 373 538 567
f 373 567 566
f 373 566 591
f 373 591 582
f 373 582 563
f 373 563 588
f 373 588 561
f 373 561 590
f 373 590 599
f 373 599 601
f 373 601 598
f 373 598 597
f 373 597 575
f 373 575 544
f 373 544 512
f 373 512 473
f 373 473 433
f 373 433 389
f 373 389 388
f 373 388 387
f 373 387 386
f 373 386 385
f 373 385 384
f 373 384 432
f 373 432 471
f 373 471 511
f 373 511 543
f 373 543 542
f 373 542 574
f 373 574 596
f 373 596 593
f 373 593 572
f 373 572 571
f 373 571 568
f 373 568 539
f 373 539 508
f 373 508 469
f 373 469 467
f 373 467 427
f 373 427 428
f 373 428 374
f 373 374 426
f 374 428 429
f 374 429 430
f 376 422 377
f 376 423 422
f 380 431 381
f 381 431 384
f 384 431 432
f 391 434 393
f 391 393 435
f 391 435 392
f 392 435 393
f 393 436 437
f 393 437 438
f 393 438 403
f 393 403 402
f 393 434 436
f 394 401 395
f 395 401 400
f 395 400 396
f 396 400 397
f 397 399 398
f 403 438 439
f 403 439 440
f 403 440 441
f 403 441 442
f 403 442 405
f 403 405 404
f 405 442 441
f 405 441 443
f 405 443 412
f 406 444 407
f 406 411 445
f 406 445 446
f 406 446 444
f 407 444 419
f 407 419 408
f 410 414 447
f 410 447 448
f 410 448 411
f 411 448 449
f 411 449 450
f 411 450 445
f 412 443 413
f 413 443 441
f 413 441 451
f 414 452 447
f 414 451 441
f 414 441 453
f 414 453 452
f 415 419 454
f 415 454 455
f 415 455 416
f 416 455 456
f 416 456 457
f 416 457 458
f 416 458 417
f 417 459 420
f 417 420 418
f 417 458 460
f 417 460 498
f 417 498 461
f 417 461 459
f 419 444 462
f 419 462 454
f 420 463 421
f 420 459 464
f 420 464 463
f 421 463 422
f 422 463 464
f 422 464 499
f 422 499 465
f 427 467 429
f 427 429 428
f 429 468 430
f 429 467 469
f 429 469 468
f 431 470 471
f 431 471 432
f 433 473 436
f 433 436 472
f 434 474 436
f 436 474 472
f 436 473 475
f 436 475 476
f 436 476 437
f 437 476 477
f 437 477 438
f 438 477 439
f 439 477 478
f 439 478 479
f 439 479 440
f 440 479 441
f 441 479 480
f 441 480 453
f 444 446 481
f 444 481 462
f 445 450 488
f 445 488 482
f 445 482 483
f 445 483 481
f 445 481 446
f 447 452 484
f 447 484 485
f 447 485 486
f 447 486 448
f 448 486 487
f 448 487 449
f 449 488 450
f 449 487 489
f 449 489 488
f 452 480 490
f 452 490 485
f 452 485 484
f 452 453 480
f 454 462 455
f 455 462 483
f 455 483 491
f 455 491 456
f 456 491 457
f 457 492 493
f 457 493 458
f 457 491 494
f 457 494 492
f 458 493 495
f 458 495 496
f 458 496 497
f 458 497 460
f 459 461 464
f 460 497 498
f 461 498 499
f 461 499 464
f 462 481 483
f 465 499 500
f 465 500 501
f 465 501 502
f 465 502 503
f 466 504 502
f 466 502 505
f 466 505 506
f 466 506 507
f 468 508 509
f 468 469 508
f 470 510 471
f 471 510 511
f 473 512 513
f 473 513 514
f 473 514 475
f 475 477 476
f 475 514 515
f 475 515 477
f 477 515 516
f 477 516 478
f 478 516 479
f 479 516 517
f 479 517 518
f 479 518 486
f 479 486 490
f 479 490 480
f 482 489 531
f 482 531 519
f 482 519 520
f 482 520 521
f 482 521 522
f 482 522 523
f 482 523 483
f 482 488 489
f 483 523 494
f 483 494 491
f 485 490 486
f 486 518 524
f 486 524 525
f 486 525 526
f 486 526 527
f 486 527 487
f 487 527 528
f 487 528 529
f 487 529 530
f 487 530 531
f 487 531 489
f 492 494 522
f 492 522 532
f 492 532 493
f 493 532 495
f 494 523 522
f 495 532 533
f 495 533 496
f 496 533 534
f 496 534 535
f 496 535 536
f 496 536 497
f 497 536 498
f 498 536 501
f 498 501 500
f 498 500 499
f 501 536 505
f 501 505 502
f 502 504 503
f 505 535 534
f 505 534 533
f 505 533 537
f 505 537 506
f 505 536 535
f 506 537 538
f 506 538 507
f 508 539 509
f 509 539 540
f 510 541 542
f 510 542 543
f 510 543 511
f 512 544 513
f 513 544 545
f 513 545 546
f 513 546 514
f 514 546 515
f 515 546 547
f 515 547 516
f 516 547 517
f 517 547 548
f 517 548 524
f 517 524 518
f 519 549 551
f 519 551 520
f 519 531 550
f 519 550 549
f 520 551 552
f 520 552 521
f 521 552 522
f 522 552 532
f 524 548 525
f 525 548 553
f 525 553 526
f 526 554 527
f 526 553 554
f 527 554 555
f 527 555 528
f 528 555 529
f 529 556 557
f 529 557 530
f 529 555 554
f 529 554 553
f 529 553 558
f 529 558 559
f 529 559 556
f 530 557 560
f 530 560 531
f 531 560 561
f 531 561 562
f 531 562 563
f 531 563 550
f 532 564 565
f 532 565 566
f 532 566 533
f 532 552 564
f 533 566 567
f 533 567 537
f 537 567 538
f 539 568 540
f 540 569 570
f 540 568 571
f 540 571 572
f 540 572 569
f 541 573 574
f 541 574 542
f 544 575 576
f 544 576 545
f 545 577 553
f 545 553 578
f 545 578 547
f 545 547 546
f 545 576 579
f 545 579 580
f 545 580 586
f 545 586 581
f 545 581 577
f 547 578 548
f 548 578 553
f 549 550 583
f 549 583 551
f 550 563 582
f 550 582 583
f 551 583 584
f 551 584 585
f 551 585 552
f 552 585 564
f 553 577 581
f 553 581 558
f 556 586 587
f 556 587 557
f 556 559 581
f 556 581 586
f 557 587 560
f 558 581 559
f 560 587 561
f 561 588 562
f 561 587 589
f 561 589 590
f 562 588 563
f 564 591 565
f 564 585 584
f 564 584 582
f 564 582 591
f 565 591 566
f 569 592 570
f 569 572 592
f 572 593 602
f 572 602 592
f 573 594 593
f 573 593 595
f 573 595 596
f 573 596 574
f 575 597 576
f 576 597 598
f 576 598 580
f 576 580 579
f 580 598 601
f 580 601 586
f 582 584 583
f 586 599 600
f 586 600 587
f 586 601 599
f 587 600 589
f 589 600 590
f 590 600 599
f 593 596 595
f 593 594 602
o convex_2
v 0.195875 0.00925999 -0.0456486
v 0.195875 -0.00925999 -0.0456486
v 0.195875 0.01852 -0.0476538
v -0.241031 -0.000166847 -0.0508795
v 0.195875 -0.0463 -0.0551078
v -0.241031 0.0183114 -0.0555001
v 0.195875 0.0580627 -0.0579412
v -0.241031 -0.01852 -0.0555873
v 0.195875 -0.0820052 -0.064349
v 0.195875 0.0848833 -0.0652644
v -0.241031 0.0646531 -0.0740262
v -0.241031 -0.0186868 -0.0556309
v -0.241031 -0.0463 -0.0648721
v -0.241031 -0.0464251 -0.0649157
v 0.194506 -0.0833399 -0.0648721
v 0.195875 -0.0833399 -0.0648721
v 0.195875 0.0907646 -0.0676619
v -0.241031 0.110953 -0.0925522
v 0.14819 -0.10186 -0.0741133
v -0.241031 -0.140193 -0.104235
v 0.195875 -0.10186 -0.0736339
v 0.195875 0.114248 -0.0803032
v 0.179068 0.114248 -0.0803032
v 0.145111 0.108075 -0.0772083
v 0.14819 0.10186 -0.0741133
v -0.241031 0.138775 -0.104147
v 0.143571 -0.10649 -0.0764672
v 0.195875 -0.107157 -0.0762493
v -0.241031 -0.140318 -0.104322
v 0.175988 -0.114248 -0.0803032
v 0.14819 -0.108075 -0.0772083
v -0.236199 0.143572 -0.106545
v 0.195875 0.188328 -0.172934
v -0.241031 0.143572 -0.106545
v 0.195875 -0.114248 -0.0803032
v -0.241031 -0.151288 -0.117443
v -0.240818 -0.151288 -0.117355
v -0.194501 -0.151288 -0.117355
v 0.195875 0.201009 -0.196429
v 0.188348 0.188328 -0.172934
v 0.040118 0.206848 -0.209986
v 0.0339596 0.209935 -0.216176
v -0.241031 0.145949 -0.111383
v 0.195875 -0.188328 -0.172934
v -0.241031 -0.154333 -0.123502
v -0.240818 -0.157462 -0.129692
v -0.120386 -0.182155 -0.169839
v -0.120386 -0.179068 -0.163692
v 0.185269 -0.188328 -0.172934
v 0.195875 0.203386 -0.20227
v 0.0555569 0.213022 -0.222366
v 0.0370388 0.213022 -0.222366
v -0.241031 0.175982 -0.176029
v 0.195875 -0.194835 -0.185444
v -0.241031 -0.15742 -0.129692
v -0.241031 -0.203762 -0.240892
v -0.120386 -0.185242 -0.176029
v 0.0370388 -0.206848 -0.209986
v 0.195875 0.203762 -0.203839
v 0.0370388 0.213022 -0.231607
v 0.195875 0.203762 -0.211729
v 0.194506 0.203762 -0.213081
v 0.195875 0.185242 -0.333478
v -0.0370334 0.213022 -0.231607
v -0.241031 0.203762 -0.240892
v 0.195875 -0.198047 -0.191678
v -0.241031 -0.203762 -0.250089
v -0.08335 -0.213022 -0.240892
v -0.0463138 -0.213022 -0.231607
v -0.0740695 -0.203762 -0.213081
v 0.0370388 -0.213022 -0.222366
v 0.195875 -0.2008 -0.197039
v 0.00924034 0.213022 -0.240892
v 0.195875 0.174021 -0.370182
v 0.185269 0.175982 -0.370531
v 0.120391 0.175982 -0.389057
v 0.0833553 0.175982 -0.398298
v 0.0462765 0.185242 -0.370531
v 0.0185208 0.203762 -0.287141
v -4.00719e-05 0.213022 -0.240892
v -0.0972492 0.210727 -0.236227
v -0.240818 0.203762 -0.250133
v -0.241031 0.20372 -0.250133
v -0.2223 -0.203762 -0.259418
v -0.241031 -0.198172 -0.263079
v -0.226918 -0.189872 -0.291762
v -0.213062 -0.194502 -0.287141
v -0.203781 -0.203762 -0.268615
v -0.157465 -0.203762 -0.287141
v -0.129666 -0.203762 -0.296426
v -0.0740695 -0.203762 -0.305667
v -0.00927772 -0.203762 -0.314952
v -0.0185581 -0.213022 -0.250133
v 0.0648373 -0.213022 -0.222366
v 0.195875 -0.203428 -0.202314
v 0.195875 0.173562 -0.371054
v 0.194506 0.173687 -0.371664
v 0.185269 0.172895 -0.37672
v 0.120391 0.172895 -0.395247
v 0.0833553 0.172895 -0.404488
v 0.0231396 0.173687 -0.402962
v 0.0277584 0.175982 -0.398298
v -0.2223 0.203762 -0.259418
v -0.241031 0.203678 -0.250307
v -0.241031 -0.14816 -0.370487
v -0.236199 -0.152832 -0.36591
v -0.217681 -0.162092 -0.356625
v -0.216141 -0.188328 -0.299521
v -0.194501 -0.185242 -0.314952
v -0.138947 -0.194502 -0.314952
v 0.00924034 -0.194502 -0.370531
v 0.0370388 -0.194502 -0.379772
v 0.00924034 -0.213022 -0.250133
v 0.195875 -0.203762 -0.221014
v 0.195875 -0.203762 -0.203839
v 0.0277584 -0.213022 -0.240892
v 0.0833553 -0.194502 -0.370531
v 0.138952 -0.203762 -0.259418
v 0.185269 -0.203762 -0.231607
v 0.195875 0.17302 -0.372013
v 0.189888 0.171352 -0.377462
v 0.125053 0.171352 -0.395988
v 0.0879742 0.171352 -0.405272
v 0.0648373 0.169808 -0.410678
v 0.0277584 0.169808 -0.410678
v -0.0509327 0.164427 -0.402962
v -0.226918 0.201467 -0.264038
v -0.236199 0.182947 -0.301047
v -0.241031 0.179402 -0.305667
v -0.241031 -0.148035 -0.370705
v -0.236199 -0.143572 -0.384436
v -0.199163 -0.152832 -0.384436
v -0.189882 -0.171352 -0.347384
v -0.157465 -0.166722 -0.370531
v 0.00616112 -0.188328 -0.382867
v 0.0339596 -0.188328 -0.392152
v 0.0648373 -0.194502 -0.379772
v 0.195875 -0.194502 -0.30436
v 0.195875 -0.185242 -0.352004
v 0.14819 -0.194502 -0.333478
v 0.194506 -0.194502 -0.305667
v 0.195875 0.158338 -0.3823
v 0.166708 0.157462 -0.392544
v 0.14819 0.166722 -0.392544
v 0.195875 0.0101359 -0.465689
v 0.194506 0.00925999 -0.466648
v 0.0833553 0.148202 -0.420311
v 0.0740749 0.166722 -0.41107
v 0.0694561 0.162092 -0.414514
v 0.0787365 0.143572 -0.423798
v 0.0648373 0.163635 -0.413773
v 0.0277584 0.163635 -0.413773
v -0.0926304 0.154375 -0.404488
v -0.203781 0.145115 -0.395247
v -0.0463138 0.163635 -0.404488
v -0.2084 0.145866 -0.393677
v -0.2084 0.155126 -0.375151
v -0.217681 0.182947 -0.310288
v -0.226918 0.164427 -0.347384
v -0.23158 0.160924 -0.352004
v -0.241031 0.157378 -0.352179
v -0.241031 -0.141152 -0.381995
v -0.241031 -0.122632 -0.39128
v -0.236199 -0.125052 -0.393677
v -0.217681 -0.143572 -0.393677
v -0.188343 -0.151288 -0.392152
v -0.160544 -0.160548 -0.382867
v -0.0216373 -0.179068 -0.392152
v 0.0524777 -0.188328 -0.392152
v -0.0987888 -0.163635 -0.395247
v -0.179062 -0.142028 -0.401393
v -0.114228 -0.151288 -0.401393
v 0.0339596 -0.0679066 -0.456971
v 0.0617153 -0.104947 -0.438445
v 0.0679165 -0.191415 -0.385962
v 0.175988 -0.185242 -0.361246
v 0.179068 -0.182155 -0.367436
v 0.195875 -0.18228 -0.358674
v 0.195875 0.00925999 -0.466125
v 0.189888 0.00463 -0.470092
v 0.152809 0.00463 -0.479377
v 0.15747 0.00925999 -0.475889
v 0.0740749 0.126595 -0.432299
v 0.0879742 0.03241 -0.479377
v 0.0833553 0.00925999 -0.490972
v 0.0277584 0.157462 -0.416824
v -0.0926304 0.148202 -0.407583
v 0.0462765 0.126595 -0.432299
v 0.0648373 0.0524733 -0.469351
v -0.213062 0.14011 -0.395988
v -0.203781 0.120422 -0.407583
v -0.217681 0.141236 -0.393677
v -0.226918 0.145866 -0.384436
v -0.23158 0.151664 -0.370531
v -0.241031 0.154417 -0.358107
v -0.241031 -0.111328 -0.3959
v -0.214602 -0.131225 -0.399867
v -0.236199 -0.05093 -0.421488
v -0.217681 -0.05093 -0.430729
v -0.206861 -0.132768 -0.401393
v -0.200702 -0.145115 -0.395247
v -0.154386 -0.154375 -0.395247
v 0.0679165 -0.0987733 -0.44154
v 0.0586361 -0.182155 -0.395247
v 0.142031 -0.182155 -0.37672
v -0.175983 -0.129682 -0.407583
v -0.0771915 -0.0864266 -0.438445
v 0.0246792 -0.0493866 -0.466256
v -0.123508 -0.132768 -0.410678
v 0.0725353 -0.0200633 -0.483213
v 0.0822006 -0.01852 -0.483997
v 0.188348 -0.163635 -0.37672
v 0.187578 -0.180612 -0.36591
v 0.195875 -0.179068 -0.364341
v 0.195875 0 -0.467128
v 0.191427 0 -0.469351
v 0.185269 0 -0.472402
v 0.14819 0 -0.481687
v 0.101873 0 -0.490972
v 0.106492 0.00463 -0.488618
v 0.0879742 0.01389 -0.488618
v 0.0462765 0 -0.490972
v 0.0740749 0.02778 -0.481687
v 0.0648373 0.0463 -0.472402
v -0.20994 0.123508 -0.404488
v -0.194501 0.05556 -0.43535
v -0.194501 0.00925999 -0.453876
v -0.203781 0.0103862 -0.451566
v -0.236199 0.122716 -0.393677
v -0.236199 0.141236 -0.384436
v -0.241031 0.145157 -0.376633
v -0.241031 -0.0372068 -0.423711
v -0.2084 -0.01389 -0.449255
v -0.2084 -0.10649 -0.412203
v -0.203781 -0.120422 -0.407583
v -0.226918 -0.01389 -0.440014
v 0.0856648 -0.01389 -0.486308
v 0.0771541 -0.0802533 -0.450825
v 0.0679165 -0.163635 -0.404488
v 0.095715 -0.0432133 -0.469351
v 0.151269 -0.163635 -0.385962
v -0.166703 -0.111162 -0.416824
v -0.0740695 -0.0740799 -0.444635
v 0.0277584 -0.03704 -0.472402
v 0.0694561 -0.01389 -0.486308
v 0.0756145 -0.00771666 -0.489403
v 0.195875 -0.163385 -0.374497
v 0.195875 -0.146867 -0.38509
v 0.195875 -0.00925999 -0.464905
v 0.188348 -0.00617333 -0.469351
v 0.151269 -0.00617333 -0.478592
v 0.104953 -0.00617333 -0.487877
v 0.08451 -0.00925999 -0.488618
v -0.0185581 -0.0463 -0.463161
v -0.101868 -0.0648199 -0.444635
v -0.101868 -0.01852 -0.463161
v -0.194501 -0.00925999 -0.453876
v -0.148185 0 -0.463161
v -0.241031 0.112121 -0.395988
v -0.2084 0.0115541 -0.449255
v -0.226918 0.0393341 -0.430729
v -0.241031 0.065821 -0.414514
v -0.203781 0 -0.453876
v -0.20994 0.00308666 -0.450825
v -0.241031 0.11233 -0.3959
v -0.241031 0.130891 -0.386659
v -0.241031 0.137565 -0.382213
v -0.241031 -0.00942684 -0.432953
v -0.216141 -0.00308666 -0.44773
v -0.202242 -0.00771666 -0.45235
v -0.194501 -0.10186 -0.416824
v -0.234659 -0.00308666 -0.438445
v 0.142031 -0.135855 -0.404488
v 0.188348 -0.0709933 -0.432299
v 0.195875 -0.100525 -0.412857
v 0.195875 -0.0357052 -0.449953
v 0.195875 -0.070743 -0.430076
v -0.226918 0.0115541 -0.440014
v -0.241031 0.0379993 -0.423798
v -0.228501 0.00308666 -0.44154
v -0.241031 8.34234e-05 -0.435263
v -0.241031 0.0104279 -0.432953
f 603 604 607
f 603 607 611
f 603 611 618
f 603 618 623
f 603 623 630
f 603 630 637
f 603 637 646
f 603 646 656
f 603 656 668
f 603 668 674
f 603 674 697
f 603 697 717
f 603 717 716
f 603 716 740
f 603 740 741
f 603 741 780
f 603 780 816
f 603 816 849
f 603 849 850
f 603 850 877
f 603 877 879
f 603 879 878
f 603 878 851
f 603 851 817
f 603 817 781
f 603 781 747
f 603 747 744
f 603 744 722
f 603 722 698
f 603 698 676
f 603 676 665
f 603 665 663
f 603 663 661
f 603 661 652
f 603 652 641
f 603 641 635
f 603 635 624
f 603 624 619
f 603 619 612
f 603 612 609
f 603 609 605
f 603 605 606
f 603 606 604
f 604 606 607
f 605 608 606
f 605 609 608
f 606 608 613
f 606 613 620
f 606 620 628
f 606 628 636
f 606 636 645
f 606 645 655
f 606 655 667
f 606 667 685
f 606 685 706
f 606 706 731
f 606 731 763
f 606 763 797
f 606 797 833
f 606 833 869
f 606 869 868
f 606 868 867
f 606 867 861
f 606 861 864
f 606 864 881
f 606 881 884
f 606 884 883
f 606 883 870
f 606 870 834
f 606 834 798
f 606 798 765
f 606 765 764
f 606 764 732
f 606 732 707
f 606 707 687
f 606 687 669
f 606 669 658
f 606 658 657
f 606 657 647
f 606 647 638
f 606 638 631
f 606 631 622
f 606 622 616
f 606 616 615
f 606 615 614
f 606 614 610
f 606 610 607
f 607 610 611
f 608 609 612
f 608 612 613
f 610 614 611
f 611 615 616
f 611 616 617
f 611 617 618
f 611 614 615
f 612 619 620
f 612 620 613
f 616 621 617
f 616 622 621
f 617 621 623
f 617 623 618
f 619 624 625
f 619 625 626
f 619 626 627
f 619 627 628
f 619 628 620
f 621 629 630
f 621 630 623
f 621 622 629
f 622 631 632
f 622 632 633
f 622 633 629
f 624 634 636
f 624 636 625
f 624 635 634
f 625 636 626
f 626 636 628
f 626 628 627
f 629 633 630
f 630 633 632
f 630 632 637
f 631 638 639
f 631 639 640
f 631 640 637
f 631 637 632
f 634 635 642
f 634 642 636
f 635 641 642
f 636 642 643
f 636 643 644
f 636 644 645
f 637 640 646
f 638 647 639
f 639 647 648
f 639 648 649
f 639 649 650
f 639 650 651
f 639 651 646
f 639 646 640
f 641 652 653
f 641 653 654
f 641 654 644
f 641 644 643
f 641 643 642
f 644 654 645
f 645 654 655
f 646 651 656
f 647 657 648
f 648 657 658
f 648 658 659
f 648 659 649
f 649 659 673
f 649 673 660
f 649 660 650
f 650 660 651
f 651 660 656
f 652 661 653
f 653 662 675
f 653 675 682
f 653 682 666
f 653 666 654
f 653 661 663
f 653 663 664
f 653 664 665
f 653 665 662
f 654 666 655
f 655 666 667
f 656 660 668
f 658 669 670
f 658 670 671
f 658 671 672
f 658 672 659
f 659 672 673
f 660 673 674
f 660 674 668
f 662 665 675
f 663 665 664
f 665 676 677
f 665 677 678
f 665 678 679
f 665 679 680
f 665 680 681
f 665 681 675
f 666 682 683
f 666 683 667
f 667 683 684
f 667 684 685
f 669 686 670
f 669 687 688
f 669 688 689
f 669 689 686
f 670 686 690
f 670 690 691
f 670 691 692
f 670 692 693
f 670 693 694
f 670 694 695
f 670 695 715
f 670 715 718
f 670 718 696
f 670 696 673
f 670 673 671
f 671 673 672
f 673 696 697
f 673 697 674
f 675 681 682
f 676 698 699
f 676 699 677
f 677 699 700
f 677 700 701
f 677 701 678
f 678 701 702
f 678 702 679
f 679 702 703
f 679 703 704
f 679 704 680
f 680 704 705
f 680 705 681
f 681 705 682
f 682 705 683
f 683 705 684
f 684 705 706
f 684 706 685
f 686 689 690
f 687 707 708
f 687 708 688
f 688 708 709
f 688 709 710
f 688 710 689
f 689 710 711
f 689 711 712
f 689 712 691
f 689 691 690
f 691 712 713
f 691 713 692
f 692 713 714
f 692 714 693
f 693 714 694
f 694 714 739
f 694 739 715
f 694 715 695
f 696 716 717
f 696 717 697
f 696 718 719
f 696 719 720
f 696 720 721
f 696 721 716
f 698 722 699
f 699 722 723
f 699 723 700
f 700 723 724
f 700 724 701
f 701 724 725
f 701 725 702
f 702 725 726
f 702 726 703
f 703 726 727
f 703 727 728
f 703 728 729
f 703 729 705
f 703 705 704
f 705 729 706
f 706 729 730
f 706 730 731
f 707 732 733
f 707 733 708
f 708 733 734
f 708 734 709
f 709 734 710
f 710 734 735
f 710 735 736
f 710 736 711
f 711 736 712
f 712 736 713
f 713 736 769
f 713 769 737
f 713 737 738
f 713 738 714
f 714 738 771
f 714 771 777
f 714 777 739
f 715 739 719
f 715 719 718
f 716 721 740
f 719 739 741
f 719 741 742
f 719 742 720
f 720 742 743
f 720 743 721
f 721 743 740
f 722 744 723
f 723 745 746
f 723 746 724
f 723 744 747
f 723 747 748
f 723 748 745
f 724 746 749
f 724 749 725
f 725 749 750
f 725 750 726
f 726 750 751
f 726 751 752
f 726 752 753
f 726 753 754
f 726 754 727
f 727 754 789
f 727 789 755
f 727 755 756
f 727 756 757
f 727 757 728
f 728 757 756
f 728 756 758
f 728 758 759
f 728 759 760
f 728 760 729
f 729 760 761
f 729 761 730
f 730 761 731
f 731 761 762
f 731 762 763
f 732 764 733
f 733 764 765
f 733 765 766
f 733 766 767
f 733 767 734
f 734 767 768
f 734 768 736
f 734 736 735
f 736 768 769
f 737 769 768
f 737 768 770
f 737 770 738
f 738 770 804
f 738 804 772
f 738 772 773
f 738 773 774
f 738 774 775
f 738 775 776
f 738 776 771
f 739 777 779
f 739 779 778
f 739 778 741
f 740 743 741
f 741 778 779
f 741 779 780
f 741 743 742
f 745 748 746
f 746 748 749
f 747 781 748
f 748 781 782
f 748 782 783
f 748 783 784
f 748 784 749
f 749 784 752
f 749 752 750
f 750 752 751
f 752 785 753
f 752 784 783
f 752 783 786
f 752 786 787
f 752 787 785
f 753 785 790
f 753 790 754
f 754 788 789
f 754 790 787
f 754 787 791
f 754 791 826
f 754 826 788
f 755 789 756
f 756 792 758
f 756 789 793
f 756 793 792
f 758 792 794
f 758 794 832
f 758 832 795
f 758 795 761
f 758 761 759
f 759 761 760
f 761 795 796
f 761 796 762
f 762 796 833
f 762 833 797
f 762 797 763
f 765 798 766
f 766 799 767
f 766 798 834
f 766 834 800
f 766 800 801
f 766 801 799
f 767 799 837
f 767 837 802
f 767 802 773
f 767 773 803
f 767 803 768
f 768 803 804
f 768 804 770
f 771 776 805
f 771 805 806
f 771 806 807
f 771 807 777
f 772 804 773
f 773 804 803
f 773 802 837
f 773 837 808
f 773 808 809
f 773 809 810
f 773 810 811
f 773 811 774
f 774 811 810
f 774 810 775
f 775 810 812
f 775 812 776
f 776 812 813
f 776 813 805
f 777 807 779
f 779 807 814
f 779 814 815
f 779 815 780
f 780 815 816
f 781 817 782
f 782 818 819
f 782 819 820
f 782 820 783
f 782 817 818
f 783 820 821
f 783 821 822
f 783 822 823
f 783 823 786
f 785 787 790
f 786 823 787
f 787 823 822
f 787 822 821
f 787 821 824
f 787 824 825
f 787 825 791
f 788 826 789
f 789 826 793
f 791 825 826
f 792 827 794
f 792 793 827
f 793 826 824
f 793 824 828
f 793 828 829
f 793 829 830
f 793 830 827
f 794 827 831
f 794 831 832
f 795 832 833
f 795 833 796
f 799 801 835
f 799 835 836
f 799 836 837
f 800 834 838
f 800 838 835
f 800 835 801
f 805 813 839
f 805 839 840
f 805 840 806
f 806 841 807
f 806 840 842
f 806 842 841
f 807 841 843
f 807 843 814
f 808 837 844
f 808 844 845
f 808 845 809
f 809 845 810
f 810 845 846
f 810 846 847
f 810 847 812
f 812 847 813
f 813 847 848
f 813 848 839
f 814 849 816
f 814 816 815
f 814 843 850
f 814 850 849
f 817 851 818
f 818 851 819
f 819 851 852
f 819 852 820
f 820 853 854
f 820 854 821
f 820 852 853
f 821 854 855
f 821 855 848
f 821 848 824
f 824 826 825
f 824 848 847
f 824 847 846
f 824 846 856
f 824 856 845
f 824 845 857
f 824 857 858
f 824 858 859
f 824 859 860
f 824 860 829
f 824 829 828
f 827 861 831
f 827 830 862
f 827 862 863
f 827 863 864
f 827 864 861
f 829 860 865
f 829 865 830
f 830 865 866
f 830 866 862
f 831 861 867
f 831 867 868
f 831 868 832
f 832 869 833
f 832 868 869
f 834 870 838
f 835 838 871
f 835 871 865
f 835 865 872
f 835 872 859
f 835 859 837
f 835 837 836
f 837 859 873
f 837 873 844
f 838 870 874
f 838 874 871
f 839 848 855
f 839 855 854
f 839 854 842
f 839 842 840
f 841 875 843
f 841 842 875
f 842 854 853
f 842 853 876
f 842 876 875
f 843 875 876
f 843 876 877
f 843 877 850
f 844 873 857
f 844 857 845
f 845 856 846
f 851 878 852
f 852 878 879
f 852 879 876
f 852 876 853
f 857 873 859
f 857 859 858
f 859 872 865
f 859 865 860
f 862 866 880
f 862 880 863
f 863 880 864
f 864 880 881
f 865 871 866
f 866 871 882
f 866 882 880
f 870 883 874
f 871 874 883
f 871 883 882
f 876 879 877
f 880 882 884
f 880 884 881
f 882 883 884
o convex_3
v -0.241031 7.97963e-05 -0.435301
v -0.241031 0.0104533 -0.432966
v -0.241031 -0.00941596 -0.432966
v -0.245502 -0.0138845 -0.430732
v -0.268687 0 -0.426112
v -0.268687 0.0104134 -0.423776
v -0.250151 0.0567351 -0.414536
v -0.241031 0.065792 -0.414536
v -0.245502 -0.0416536 -0.421492
v -0.241031 -0.037225 -0.423675
v -0.2548 -0.0323973 -0.421492
v -0.273277 -0.0138845 -0.421492
v -0.274826 0.00307216 -0.423015
v -0.314999 0 -0.407581
v -0.321198 0.00307216 -0.404484
v -0.314999 0.0104134 -0.405245
v -0.2548 0.0578922 -0.412201
v -0.287224 0.112313 -0.377474
v -0.250151 0.103057 -0.396005
v -0.319648 0.0115705 -0.40296
v -0.241031 0.112114 -0.396005
v -0.241031 -0.111316 -0.395903
v -0.245502 -0.115784 -0.393669
v -0.426159 0 -0.361278
v -0.495656 -0.0138845 -0.328835
v -0.432358 0.00307216 -0.358181
v -0.537319 0.0104134 -0.312639
v -0.36596 0.0578922 -0.365898
v -0.384496 0.0856613 -0.347366
v -0.291813 0.11347 -0.375138
v -0.282575 0.122727 -0.375138
v -0.268687 0.130826 -0.377474
v -0.541968 0.0115705 -0.310304
v -0.241031 0.112353 -0.395903
v -0.241031 -0.122647 -0.391283
v -0.245502 -0.134297 -0.384429
v -0.291813 -0.134297 -0.365898
v -0.301111 -0.125041 -0.365898
v -0.560445 -0.0138845 -0.301064
v -0.537319 0 -0.314924
v -0.543517 0.00307216 -0.311827
v -0.36596 0.104214 -0.347366
v -0.58822 0.0300832 -0.282532
v -0.273277 0.131983 -0.375138
v -0.259389 0.142037 -0.373615
v -0.241031 0.130866 -0.386663
v -0.241031 -0.14116 -0.381992
v -0.2548 -0.143553 -0.375138
v -0.449344 -0.125041 -0.301064
v -0.560445 -0.078719 -0.273241
v -0.58822 -0.0509499 -0.273241
v -0.595909 -0.0215849 -0.280958
v -0.597458 -0.0138845 -0.282532
v -0.58667 -0.00307216 -0.290249
v -0.549597 -0.00307216 -0.308781
v -0.592869 0 -0.287152
v -0.580471 0.00307216 -0.293346
v -0.589769 0.0215849 -0.284055
v -0.430808 0.122727 -0.310304
v -0.569683 0.0485959 -0.282532
v -0.597458 0.0115705 -0.282532
v -0.606756 0.0115705 -0.273241
v -0.625293 0.0300832 -0.24547
v -0.58822 0.104214 -0.24547
v -0.541968 0.11347 -0.264001
v -0.523431 0.11347 -0.273241
v -0.264038 0.145868 -0.365898
v -0.245502 0.145868 -0.375138
v -0.241031 0.137569 -0.382195
v -0.42151 0.127355 -0.310304
v -0.440046 0.127355 -0.301064
v -0.458583 0.127355 -0.291772
v -0.241031 -0.148182 -0.370467
v -0.245502 -0.171362 -0.319595
v -0.2548 -0.199132 -0.25471
v -0.560445 -0.115784 -0.25471
v -0.541968 -0.115784 -0.264001
v -0.58822 -0.0694626 -0.264001
v -0.595909 -0.0401375 -0.271718
v -0.605207 -0.00307216 -0.280958
v -0.599008 0.00307216 -0.284055
v -0.449344 0.122727 -0.301064
v -0.625293 0.0115705 -0.25471
v -0.625293 0.0671485 -0.226938
v -0.671605 0.0115705 -0.208407
v -0.606756 0.108842 -0.217647
v -0.578922 0.11347 -0.24547
v -0.69938 0.0764049 -0.143623
v -0.671605 0.0902895 -0.162155
v -0.569683 0.118098 -0.24547
v -0.301111 0.182933 -0.264001
v -0.245502 0.155164 -0.356607
v -0.241031 0.145149 -0.376661
v -0.402973 0.155164 -0.264001
v -0.504895 0.127355 -0.264001
v -0.241031 -0.198174 -0.263036
v -0.241031 -0.20376 -0.250039
v -0.435397 -0.175991 -0.175964
v -0.495656 -0.162106 -0.171395
v -0.541968 -0.15281 -0.162155
v -0.541968 -0.143553 -0.189876
v -0.574332 -0.120413 -0.231558
v -0.577432 -0.114228 -0.243896
v -0.58822 -0.106528 -0.24547
v -0.595909 -0.077163 -0.253187
v -0.605207 -0.0586502 -0.253187
v -0.605207 -0.0215849 -0.271718
v -0.623743 -0.00307216 -0.262427
v -0.680843 0.0115705 -0.199167
v -0.736453 0.0393396 -0.125092
v -0.670055 -0.00307216 -0.216124
v -0.578922 0.118098 -0.236179
v -0.782764 0.0625204 -0.0602579
v -0.801301 0.0485959 -0.0509668
v -0.541968 0.155164 -0.152864
v -0.523431 0.155164 -0.171395
v -0.430808 0.155164 -0.24547
v -0.384496 0.16442 -0.25471
v -0.245502 0.201446 -0.25471
v -0.241031 0.179342 -0.305785
v -0.241031 0.157358 -0.35219
v -0.241031 0.154406 -0.35813
v -0.241031 -0.2038 -0.240849
v -0.250151 -0.2038 -0.240849
v -0.241031 -0.157398 -0.129712
v -0.574332 -0.148182 -0.111181
v -0.491007 -0.166734 -0.157484
v -0.504895 -0.162106 -0.162155
v -0.52808 -0.157478 -0.157484
v -0.634531 -0.115784 -0.143623
v -0.578922 -0.125041 -0.208407
v -0.537319 -0.157478 -0.148244
v -0.551147 -0.15281 -0.143623
v -0.64377 -0.125041 -0.0880295
v -0.782764 -0.0694626 -0.0602579
v -0.58822 -0.115784 -0.226938
v -0.58667 -0.114228 -0.234655
v -0.614445 -0.077163 -0.234655
v -0.605207 -0.077163 -0.243896
v -0.653068 -0.0972317 -0.180635
v -0.736453 -0.078719 -0.106561
v -0.744142 -0.0679066 -0.105038
v -0.623743 -0.0586502 -0.234655
v -0.623743 -0.0215849 -0.253187
v -0.688591 -0.0215849 -0.188352
v -0.679293 -0.00307216 -0.206884
v -0.819778 0.0115705 -0.0509668
v -0.75493 0.0208268 -0.115801
v -0.58822 0.118098 -0.217647
v -0.75493 0.0717767 -0.0787892
v -0.829076 0.0393396 -0.0231952
v -0.838314 0.0439677 -0.0046639
v -0.810539 0.053264 -0.0324355
v -0.80589 0.0590492 -0.0278154
v -0.801301 0.0625204 -0.0231952
v -0.768877 0.0683056 -0.064878
v -0.578922 0.145868 -0.115801
v -0.537319 0.157478 -0.148244
v -0.495656 0.16442 -0.162155
v -0.625293 0.118098 -0.143623
v -0.64377 0.118098 -0.106561
v -0.680843 0.108842 -0.0694982
v -0.717916 0.0995458 -0.0324355
v -0.384496 0.182933 -0.199167
v -0.291813 0.192189 -0.24547
v -0.241031 0.20368 -0.250293
v -0.241031 -0.154406 -0.12362
v -0.666955 -0.0833472 0.0277786
v -0.75034 -0.0740908 0.0463099
v -0.63918 -0.129669 -0.0741183
v -0.545067 -0.155922 -0.137429
v -0.537319 -0.157478 -0.139003
v -0.634531 -0.106528 -0.180635
v -0.764228 -0.0879754 -0.0139042
v -0.69938 -0.106528 -0.0602579
v -0.792003 -0.0694626 -0.0417266
v -0.799751 -0.0679066 -0.0309124
v -0.810539 -0.0602063 -0.0324355
v -0.819778 -0.0509499 -0.0324355
v -0.799751 -0.0586502 -0.0494437
v -0.799751 -0.0308413 -0.067975
v -0.69783 -0.0215849 -0.179061
v -0.801301 -0.0416536 -0.0602579
v -0.80899 -0.0123285 -0.067975
v -0.818228 -0.00307216 -0.058684
v -0.821328 0.00307216 -0.0525407
v -0.829076 0.00231409 -0.0417266
v -0.764228 0.0717767 -0.0602579
v -0.849937 -0.00462818 -0.0139042
v -0.838314 0.0300832 -0.0139042
v -0.839864 0.0401375 -0.00618704
v -0.839864 0.0432097 -4.37666e-05
v -0.829076 0.053264 0.0138674
v -0.773466 0.0717767 -0.0417266
v -0.792003 0.0717767 0.00462714
v -0.773466 0.0810331 0.00462714
v -0.52808 0.148182 -0.111181
v -0.537319 0.157478 -0.139003
v -0.713267 0.1019 -0.0278154
v -0.504895 0.16442 -0.152864
v -0.491007 0.166734 -0.157484
v -0.435397 0.175991 -0.175964
v -0.250151 0.2038 -0.240849
v -0.241031 0.20372 -0.25009
v -0.241031 -0.151334 -0.117578
v -0.245502 -0.145868 -0.106561
v -0.662306 -0.0810331 0.0323987
v -0.666955 -0.080275 0.0339219
v -0.713267 -0.0740908 0.0463099
v -0.75034 -0.0710187 0.0524532
v -0.778115 -0.080275 0.0246816
v -0.778115 -0.0833472 0.0184876
v -0.759579 -0.0926036 -4.37666e-05
v -0.771917 -0.0864592 -0.00309002
v -0.790453 -0.077163 -0.00309002
v -0.80899 -0.0679066 0.00615026
v -0.818228 -0.0586502 -0.0216213
v -0.838314 -0.0416536 -0.0139042
v -0.829076 -0.0323973 -0.0324355
v -0.810539 -0.0231409 -0.0602579
v -0.827526 -0.0215849 -0.0401527
v -0.829076 -0.0138845 -0.0417266
v -0.826751 -0.00115705 -0.0463467
v -0.842964 0.0370255 -4.37666e-05
v -0.844513 -0.0107725 -0.0200982
v -0.842964 -0.0370255 -4.37666e-05
v -0.833725 -0.0462818 0.0277786
v -0.833725 0.0462818 0.0277786
v -0.840639 0.0416536 0.00462714
v -0.831401 0.0509499 0.0323987
v -0.830626 0.052466 0.0277786
v -0.830626 0.052466 0.0184876
v -0.824427 0.0555781 0.0277786
v -0.793552 0.0710187 0.0184876
v -0.793552 0.0710187 0.00924728
v -0.768877 0.0833472 0.00924728
v -0.602107 0.111156 -0.0370557
v -0.524981 0.142037 -0.0988437
v -0.435397 0.157478 -0.129712
v -0.241031 0.2038 -0.240849
v -0.241031 -0.151254 -0.117426
v -0.241031 -0.140322 -0.104327
v -0.241031 -0.140082 -0.104175
v -0.708618 -0.0717767 0.0509301
v -0.713267 -0.0710187 0.0524532
v -0.75034 -0.0679066 0.0586472
v -0.778115 -0.077163 0.0308756
v -0.784314 -0.080275 0.0215846
v -0.765777 -0.0895314 0.00305324
v -0.784314 -0.080275 0.00305324
v -0.827526 -0.0586502 0.0246816
v -0.835215 -0.0478379 -0.0015669
v -0.839864 -0.0432097 0.00305324
v -0.830626 -0.052466 0.0308756
v -0.829076 -0.0509499 0.0347342
v -0.824427 -0.0462818 0.0463099
v -0.815188 -0.0370255 0.0648412
v -0.815188 0.0370255 0.0648412
v -0.812864 0.0416536 0.0694614
v -0.817513 0.0509499 0.0509301
v -0.825619 0.053264 0.0370189
v -0.80589 0.0648345 0.0277786
v -0.790453 0.0710187 0.0246816
v -0.771917 0.080275 0.0153905
v -0.620644 0.1019 -0.0185751
v -0.626783 0.0864592 0.0123443
v -0.500245 0.111156 -0.0370557
v -0.314999 0.157478 -0.129712
v -0.241031 0.175991 -0.175964
v -0.241031 -0.0462818 -0.064878
v -0.731804 -0.0196698 0.0810371
v -0.741042 -0.0474389 0.0717461
v -0.722506 -0.0567351 0.0625058
v -0.704029 -0.0659915 0.0532655
v -0.731804 -0.0679066 0.0586472
v -0.75034 -0.0586502 0.0678875
v -0.796652 -0.0493939 0.0678875
v -0.80589 -0.053264 0.0567179
v -0.819778 -0.0509499 0.0532655
v -0.782764 -0.078719 0.0254432
v -0.821328 -0.052466 0.0493562
v -0.821328 -0.0617224 0.0308756
v -0.815188 -0.0648345 0.0277786
v -0.824427 -0.0555781 0.0370189
v -0.821328 -0.0462818 0.0524532
v -0.812089 -0.0370255 0.0709845
v -0.80899 -0.00925637 0.0771785
v -0.80899 0.00925637 0.0771785
v -0.812089 0.0370255 0.0709845
v -0.80589 0.0370255 0.0740815
v -0.80899 0.0432097 0.0709845
v -0.80899 0.0617224 0.0339219
v -0.790453 0.052466 0.0617442
v -0.771917 0.0710187 0.0339219
v -0.632982 0.0895314 0.00615026
v -0.608306 0.0864592 0.0123443
v -0.756479 0.0586502 0.0586472
v -0.274826 0.142037 -0.0988437
v -0.250151 0.148182 -0.111181
v -0.241031 0.145987 -0.111384
v -0.241031 -0.0187122 -0.0556377
v -0.250151 0 -0.0463467
v -0.694731 -0.00925637 0.0740815
v -0.722506 -0.0104134 0.0810371
v -0.741042 -0.0185127 0.0833726
v -0.75034 -0.0462818 0.0740815
v -0.75493 -0.0509499 0.0717461
v -0.810539 -0.0416536 0.0717461
v -0.801301 -0.0138845 0.0810371
v -0.796652 -0.00925637 0.0833726
v -0.796652 0.00925637 0.0833726
v -0.75034 0.0370255 0.0740815
v -0.784314 0.0493939 0.0678875
v -0.762678 0.0617224 0.0524532
v -0.728704 0.0586502 0.0586472
v -0.25325 0.145109 -0.105038
v -0.241031 0.143553 -0.106561
v -0.241031 -0.000159593 -0.0508653
v -0.243952 -0.00307216 -0.0494437
v -0.722506 0 0.0833726
v -0.241031 0.0111316 -0.0537085
v -0.241031 0.0185127 -0.055587
v -0.690081 0.0138845 0.0694614
v -0.787354 -0.0185127 0.0833726
v -0.80589 -0.0370255 0.0740815
v -0.741042 0.00925637 0.0833726
v -0.736453 0.0416536 0.0694614
v -0.747241 0.0493939 0.0678875
v -0.69938 0.0602063 0.0509301
v -0.673154 0.0679066 0.0401159
v -0.250151 0.138925 -0.101941
v -0.241031 0.138766 -0.104175
v -0.662306 0.0602063 0.041639
v -0.717916 0.0323973 0.0694614
v -0.241031 0.110957 -0.0925481
v -0.680843 0.0509499 0.0509301
f 885 886 892
f 885 892 905
f 885 905 918
f 885 918 930
f 885 930 953
f 885 953 977
f 885 977 1006
f 885 1006 1005
f 885 1005 1004
f 885 1004 1050
f 885 1050 1088
f 885 1088 1124
f 885 1124 1153
f 885 1153 1184
f 885 1184 1201
f 885 1201 1216
f 885 1216 1219
f 885 1219 1206
f 885 1206 1205
f 885 1205 1202
f 885 1202 1185
f 885 1185 1154
f 885 1154 1127
f 885 1127 1126
f 885 1126 1125
f 885 1125 1089
f 885 1089 1051
f 885 1051 1009
f 885 1009 1007
f 885 1007 981
f 885 981 980
f 885 980 957
f 885 957 931
f 885 931 919
f 885 919 906
f 885 906 894
f 885 894 887
f 885 887 888
f 885 888 889
f 885 889 890
f 885 890 886
f 886 891 892
f 886 890 891
f 887 893 888
f 887 894 893
f 888 893 895
f 888 895 896
f 888 896 889
f 889 897 890
f 889 896 898
f 889 898 899
f 889 899 897
f 890 897 899
f 890 899 900
f 890 900 891
f 891 901 902
f 891 902 903
f 891 903 905
f 891 905 892
f 891 900 904
f 891 904 901
f 893 894 906
f 893 906 907
f 893 907 895
f 895 907 896
f 896 908 898
f 896 907 909
f 896 909 908
f 898 908 910
f 898 910 899
f 899 910 911
f 899 911 900
f 900 911 904
f 901 904 912
f 901 912 913
f 901 913 914
f 901 914 902
f 902 915 916
f 902 916 903
f 902 914 915
f 903 916 905
f 904 911 917
f 904 917 912
f 905 916 918
f 906 919 907
f 907 919 920
f 907 920 921
f 907 921 922
f 907 922 923
f 907 923 909
f 908 909 924
f 908 924 925
f 908 925 910
f 909 923 924
f 910 925 911
f 911 925 917
f 912 917 913
f 913 926 915
f 913 915 914
f 913 917 927
f 913 927 926
f 915 928 916
f 915 926 928
f 916 928 929
f 916 929 930
f 916 930 918
f 917 925 942
f 917 942 927
f 919 931 920
f 920 931 932
f 920 932 921
f 921 932 933
f 921 933 934
f 921 934 922
f 922 934 935
f 922 935 923
f 923 935 936
f 923 936 937
f 923 937 938
f 923 938 939
f 923 939 924
f 924 939 938
f 924 938 940
f 924 940 925
f 925 940 941
f 925 941 942
f 926 943 928
f 926 927 944
f 926 944 943
f 927 942 965
f 927 965 945
f 927 945 946
f 927 946 967
f 927 967 947
f 927 947 968
f 927 968 948
f 927 948 949
f 927 949 950
f 927 950 944
f 928 943 929
f 929 951 952
f 929 952 953
f 929 953 930
f 929 943 954
f 929 954 955
f 929 955 956
f 929 956 951
f 931 957 932
f 932 957 958
f 932 958 959
f 932 959 933
f 933 959 960
f 933 960 961
f 933 961 934
f 934 961 935
f 935 961 962
f 935 962 963
f 935 963 936
f 936 963 964
f 936 964 937
f 937 964 938
f 938 964 940
f 940 965 941
f 940 964 965
f 941 965 942
f 943 966 955
f 943 955 954
f 943 944 950
f 943 950 949
f 943 949 966
f 945 965 964
f 945 964 946
f 946 964 992
f 946 992 967
f 947 967 969
f 947 969 968
f 948 970 971
f 948 971 949
f 948 968 994
f 948 994 972
f 948 972 973
f 948 973 970
f 949 971 974
f 949 974 955
f 949 955 966
f 951 975 976
f 951 976 952
f 951 956 975
f 952 976 977
f 952 977 953
f 955 974 956
f 956 978 975
f 956 974 979
f 956 979 978
f 957 980 958
f 958 980 959
f 959 980 981
f 959 981 982
f 959 982 983
f 959 983 984
f 959 984 985
f 959 985 986
f 959 986 960
f 960 986 987
f 960 987 988
f 960 988 961
f 961 988 962
f 962 988 963
f 963 988 989
f 963 989 990
f 963 990 991
f 963 991 964
f 964 991 1028
f 964 1028 992
f 967 992 995
f 967 995 969
f 968 969 993
f 968 993 994
f 969 995 1030
f 969 1030 993
f 970 996 971
f 970 973 997
f 970 997 1034
f 970 1034 996
f 971 996 974
f 972 994 998
f 972 998 997
f 972 997 973
f 974 996 999
f 974 999 1000
f 974 1000 1001
f 974 1001 1002
f 974 1002 978
f 974 978 979
f 975 1003 976
f 975 978 1002
f 975 1002 1003
f 976 1003 1004
f 976 1004 1005
f 976 1005 1006
f 976 1006 977
f 981 1007 1008
f 981 1008 982
f 982 1008 1009
f 982 1009 1010
f 982 1010 1011
f 982 1011 983
f 983 1012 1016
f 983 1016 1013
f 983 1013 984
f 983 1011 1012
f 984 1014 1015
f 984 1015 986
f 984 986 985
f 984 1013 1016
f 984 1016 1017
f 984 1017 1018
f 984 1018 1019
f 984 1019 1014
f 986 1015 1020
f 986 1020 1021
f 986 1021 987
f 987 1021 988
f 988 1022 1023
f 988 1023 989
f 988 1021 1024
f 988 1024 1025
f 988 1025 1026
f 988 1026 1022
f 989 1023 990
f 990 1023 1027
f 990 1027 1028
f 990 1028 991
f 992 1028 1029
f 992 1029 995
f 993 1030 1069
f 993 1069 1031
f 993 1031 1032
f 993 1032 994
f 994 1032 998
f 995 1029 1030
f 996 1033 999
f 996 1034 1072
f 996 1072 1033
f 997 998 1035
f 997 1035 1036
f 997 1036 1037
f 997 1037 1038
f 997 1038 1039
f 997 1039 1040
f 997 1040 1034
f 998 1032 1031
f 998 1031 1035
f 999 1041 1042
f 999 1042 1043
f 999 1043 1000
f 999 1033 1044
f 999 1044 1045
f 999 1045 1046
f 999 1046 1047
f 999 1047 1041
f 1000 1043 1048
f 1000 1048 1001
f 1001 1048 1049
f 1001 1049 1003
f 1001 1003 1002
f 1003 1050 1004
f 1003 1049 1048
f 1003 1048 1050
f 1007 1009 1008
f 1009 1051 1052
f 1009 1052 1010
f 1010 1052 1053
f 1010 1053 1054
f 1010 1054 1055
f 1010 1055 1056
f 1010 1056 1011
f 1011 1056 1016
f 1011 1016 1012
f 1014 1019 1015
f 1015 1019 1057
f 1015 1057 1020
f 1016 1056 1055
f 1016 1055 1054
f 1016 1054 1017
f 1017 1054 1018
f 1018 1054 1058
f 1018 1058 1059
f 1018 1059 1019
f 1019 1059 1058
f 1019 1058 1060
f 1019 1060 1061
f 1019 1061 1062
f 1019 1062 1063
f 1019 1063 1064
f 1019 1064 1025
f 1019 1025 1020
f 1019 1020 1057
f 1020 1025 1021
f 1021 1025 1024
f 1022 1027 1023
f 1022 1026 1065
f 1022 1065 1066
f 1022 1066 1029
f 1022 1029 1027
f 1025 1064 1063
f 1025 1063 1067
f 1025 1067 1026
f 1026 1067 1065
f 1027 1029 1028
f 1029 1066 1030
f 1030 1066 1068
f 1030 1068 1069
f 1031 1069 1070
f 1031 1070 1071
f 1031 1071 1035
f 1033 1072 1044
f 1034 1040 1072
f 1035 1071 1073
f 1035 1073 1074
f 1035 1074 1075
f 1035 1075 1036
f 1036 1075 1076
f 1036 1076 1077
f 1036 1077 1038
f 1036 1038 1037
f 1038 1077 1039
f 1039 1078 1072
f 1039 1072 1040
f 1039 1077 1079
f 1039 1079 1080
f 1039 1080 1047
f 1039 1047 1078
f 1041 1081 1082
f 1041 1082 1042
f 1041 1047 1083
f 1041 1083 1081
f 1042 1082 1084
f 1042 1084 1043
f 1043 1084 1085
f 1043 1085 1048
f 1044 1072 1078
f 1044 1078 1045
f 1045 1078 1046
f 1046 1078 1047
f 1047 1080 1083
f 1048 1085 1086
f 1048 1086 1087
f 1048 1087 1050
f 1050 1087 1088
f 1051 1089 1090
f 1051 1090 1091
f 1051 1091 1052
f 1052 1091 1092
f 1052 1092 1129
f 1052 1129 1093
f 1052 1093 1053
f 1053 1094 1095
f 1053 1095 1096
f 1053 1096 1097
f 1053 1097 1054
f 1053 1093 1129
f 1053 1129 1094
f 1054 1097 1058
f 1058 1097 1098
f 1058 1098 1060
f 1060 1098 1061
f 1061 1099 1100
f 1061 1100 1101
f 1061 1101 1062
f 1061 1098 1099
f 1062 1101 1063
f 1063 1101 1102
f 1063 1102 1103
f 1063 1103 1067
f 1065 1067 1104
f 1065 1104 1068
f 1065 1068 1066
f 1067 1103 1104
f 1068 1104 1103
f 1068 1103 1105
f 1068 1105 1106
f 1068 1106 1069
f 1069 1106 1073
f 1069 1073 1107
f 1069 1107 1070
f 1070 1107 1071
f 1071 1107 1073
f 1073 1108 1075
f 1073 1075 1074
f 1073 1106 1109
f 1073 1109 1102
f 1073 1102 1110
f 1073 1110 1111
f 1073 1111 1112
f 1073 1112 1108
f 1075 1108 1076
f 1076 1108 1113
f 1076 1113 1114
f 1076 1114 1115
f 1076 1115 1116
f 1076 1116 1077
f 1077 1116 1115
f 1077 1115 1117
f 1077 1117 1118
f 1077 1118 1119
f 1077 1119 1079
f 1079 1119 1120
f 1079 1120 1080
f 1080 1120 1083
f 1081 1084 1082
f 1081 1083 1120
f 1081 1120 1121
f 1081 1121 1122
f 1081 1122 1123
f 1081 1123 1086
f 1081 1086 1085
f 1081 1085 1084
f 1086 1123 1087
f 1087 1124 1088
f 1087 1123 1152
f 1087 1152 1124
f 1089 1125 1090
f 1090 1125 1126
f 1090 1126 1127
f 1090 1127 1128
f 1090 1128 1091
f 1091 1128 1129
f 1091 1129 1092
f 1094 1130 1131
f 1094 1131 1095
f 1094 1129 1159
f 1094 1159 1130
f 1095 1131 1132
f 1095 1132 1096
f 1096 1132 1133
f 1096 1133 1097
f 1097 1133 1098
f 1098 1133 1134
f 1098 1134 1099
f 1099 1134 1100
f 1100 1134 1135
f 1100 1135 1101
f 1101 1135 1136
f 1101 1136 1102
f 1102 1136 1137
f 1102 1137 1110
f 1102 1109 1103
f 1103 1109 1106
f 1103 1106 1105
f 1108 1112 1113
f 1110 1137 1138
f 1110 1138 1111
f 1111 1138 1139
f 1111 1139 1163
f 1111 1163 1140
f 1111 1140 1141
f 1111 1141 1142
f 1111 1142 1112
f 1112 1114 1113
f 1112 1142 1114
f 1114 1142 1143
f 1114 1143 1144
f 1114 1144 1145
f 1114 1145 1115
f 1115 1145 1117
f 1117 1145 1146
f 1117 1146 1118
f 1118 1146 1120
f 1118 1120 1119
f 1120 1146 1147
f 1120 1147 1148
f 1120 1148 1149
f 1120 1149 1121
f 1121 1149 1150
f 1121 1150 1180
f 1121 1180 1151
f 1121 1151 1152
f 1121 1152 1123
f 1121 1123 1122
f 1124 1152 1153
f 1127 1154 1155
f 1127 1155 1156
f 1127 1156 1157
f 1127 1157 1158
f 1127 1158 1128
f 1128 1158 1159
f 1128 1159 1129
f 1130 1159 1160
f 1130 1160 1161
f 1130 1161 1131
f 1131 1161 1162
f 1131 1162 1163
f 1131 1163 1164
f 1131 1164 1132
f 1132 1134 1133
f 1132 1164 1163
f 1132 1163 1165
f 1132 1165 1166
f 1132 1166 1167
f 1132 1167 1134
f 1134 1167 1135
f 1135 1138 1137
f 1135 1137 1136
f 1135 1167 1166
f 1135 1166 1168
f 1135 1168 1138
f 1138 1168 1165
f 1138 1165 1163
f 1138 1163 1139
f 1140 1163 1169
f 1140 1169 1170
f 1140 1170 1141
f 1141 1170 1171
f 1141 1171 1172
f 1141 1172 1142
f 1142 1172 1143
f 1143 1173 1174
f 1143 1174 1175
f 1143 1175 1144
f 1143 1172 1173
f 1144 1175 1176
f 1144 1176 1145
f 1145 1176 1146
f 1146 1176 1147
f 1147 1176 1175
f 1147 1175 1177
f 1147 1177 1178
f 1147 1178 1148
f 1148 1178 1179
f 1148 1179 1149
f 1149 1179 1150
f 1150 1179 1198
f 1150 1198 1181
f 1150 1181 1199
f 1150 1199 1180
f 1151 1180 1182
f 1151 1182 1152
f 1152 1182 1183
f 1152 1183 1153
f 1153 1183 1184
f 1154 1185 1186
f 1154 1186 1155
f 1155 1187 1188
f 1155 1188 1189
f 1155 1189 1156
f 1155 1186 1187
f 1156 1189 1190
f 1156 1190 1160
f 1156 1160 1157
f 1157 1160 1159
f 1157 1159 1158
f 1160 1190 1191
f 1160 1191 1192
f 1160 1192 1161
f 1161 1192 1163
f 1161 1163 1162
f 1163 1170 1169
f 1163 1192 1170
f 1165 1168 1166
f 1170 1192 1171
f 1171 1192 1193
f 1171 1193 1194
f 1171 1194 1195
f 1171 1195 1172
f 1172 1195 1173
f 1173 1195 1174
f 1174 1195 1210
f 1174 1210 1196
f 1174 1196 1212
f 1174 1212 1197
f 1174 1197 1175
f 1175 1197 1177
f 1177 1197 1181
f 1177 1181 1198
f 1177 1198 1178
f 1178 1198 1179
f 1180 1199 1200
f 1180 1200 1182
f 1181 1197 1212
f 1181 1212 1199
f 1182 1200 1183
f 1183 1200 1201
f 1183 1201 1184
f 1185 1202 1203
f 1185 1203 1186
f 1186 1204 1187
f 1186 1203 1202
f 1186 1202 1205
f 1186 1205 1206
f 1186 1206 1207
f 1186 1207 1204
f 1187 1204 1188
f 1188 1204 1189
f 1189 1208 1190
f 1189 1204 1210
f 1189 1210 1195
f 1189 1195 1194
f 1189 1194 1208
f 1190 1208 1191
f 1191 1208 1209
f 1191 1209 1192
f 1192 1209 1194
f 1192 1194 1193
f 1194 1209 1208
f 1196 1210 1211
f 1196 1211 1212
f 1199 1212 1211
f 1199 1211 1213
f 1199 1213 1214
f 1199 1214 1201
f 1199 1201 1200
f 1201 1215 1216
f 1201 1214 1213
f 1201 1213 1217
f 1201 1217 1215
f 1204 1207 1218
f 1204 1218 1211
f 1204 1211 1210
f 1206 1219 1207
f 1207 1219 1218
f 1211 1218 1220
f 1211 1220 1213
f 1213 1220 1217
f 1215 1217 1216
f 1216 1217 1220
f 1216 1220 1218
f 1216 1218 1219
