# https://github.com/mikedh/trimesh
v -0.84520400 -0.10255100 -0.33592300
v -0.82759400 -0.10610300 -0.33949600
v -0.86641300 -0.10255100 -0.31473600
v -0.87001100 -0.10610300 -0.29703800
v -0.87711100 -0.09193640 -0.32537100
v -0.94783700 -0.09901970 -0.16268600
v -0.93363500 -0.10610300 -0.16974800
v -0.95484400 -0.10610300 -0.10610300
v -0.63653000 -0.10610300 -0.40314100
v -0.62952400 -0.09901970 -0.41726600
v -0.82049300 -0.09901970 -0.35362100
v -0.85580900 -0.09193640 -0.34655800
v -0.82049300 -0.01414570 -0.39607900
v -0.79218400 -0.02829130 -0.41020400
v -0.76387400 -0.02120810 -0.42441200
v -0.82049300 0.02829130 -0.39607900
v -0.87711100 0.07779080 -0.32537100
v -0.85580900 0.07779080 -0.34655800
v -0.84170100 0.09193640 -0.35362100
v -0.86291000 0.09193640 -0.33243400
v -0.88411800 0.09193640 -0.31116300
v -0.88061500 0.10078500 -0.30767300
v -0.94783700 0.07072830 -0.18387300
v -0.92662900 -0.07779080 -0.22633100
v -0.95484400 -0.08487400 -0.16974800
v -0.95484400 0.06364510 -0.16974800
v -0.96544800 0.07957720 -0.11665500
v -0.94423900 0.07957720 -0.18030000
v -0.96544800 0.10078500 -0.03182260
v -0.96904600 0.09901970 -0.02118730
v -0.95484400 0.10610300 0.00000000
v -0.96904600 0.09901970 0.08483250
v -0.97614700 0.08487400 -0.02118730
v -0.96904600 0.07779080 -0.10610300
v -0.97614700 0.02120810 -0.10610300
v -0.97614700 -0.08487400 -0.10610300
v -0.94073600 -0.09193640 -0.19799800
v -0.96904600 -0.09901970 -0.09895730
v -0.95484400 -0.10610300 0.08483250
v -0.96904600 -0.09901970 0.09189490
v -0.97614700 -0.08487400 0.08483250
v -0.94783700 -0.09901970 0.17681000
v -0.95484400 -0.08487400 0.16974800
v -0.89832000 -0.08487400 0.28291300
v -0.90182300 -0.09548840 0.27053300
v -0.85940600 -0.09548840 0.33417800
v -0.86291000 -0.09901970 0.32537100
v -0.90532600 -0.09901970 0.26164300
v -0.89121900 -0.10610300 0.25458000
v -0.89121900 -0.10078500 0.27851000
v -0.84880200 -0.10610300 0.31830900
v -0.91242700 -0.10610300 0.21220600
v -0.93363500 -0.10610300 0.16974800
v -0.82759400 -0.10610300 0.33949600
v -0.84880200 -0.10078500 0.34215500
v -0.85580900 -0.08487400 0.34655800
v -0.81339200 -0.02120810 0.41020400
v -0.79568700 -0.03182260 0.41909400
v -0.83819800 -0.09548840 0.35536600
v -0.62592600 -0.09548840 0.41909400
v -0.82759400 -0.09901970 0.35362100
v -0.61532200 -0.09901970 0.41726600
v -0.61532200 -0.10610300 0.40314100
v -0.00889767 -0.10610300 0.40314100
v 0.64715600 -0.10078500 0.41377600
v 0.63654900 -0.09901970 0.41726600
v 0.63654900 -0.08487400 0.42441200
v -0.00889767 -0.08487400 0.42441200
v 0.76392200 -0.02120810 0.42441200
v 0.77452900 -0.03711940 0.41377600
v 0.77800000 -0.02829130 0.41726600
v 0.82052200 -0.02829130 0.39607900
v 0.84173500 -0.09193640 0.35362100
v 0.83816700 -0.10078500 0.35013100
v 0.86294700 -0.09193640 0.33243400
v 0.85581200 -0.07779080 0.34655800
v 0.87702500 -0.07779080 0.32537100
v 0.82052200 0.01414570 0.39607900
v 0.87702500 0.09193640 0.32537100
v 0.88416000 -0.09193640 0.31116300
v 0.88059300 -0.10078500 0.30767300
v 0.94779900 -0.09193640 0.18387300
v 0.94076000 0.09193640 0.19799800
v 0.88416000 0.07779080 0.31116300
v 0.86998600 0.10610300 0.29703800
v 0.94779900 0.09901970 0.16268600
v 0.95483700 0.08487400 0.16974800
v 0.95483700 -0.08487400 0.16974800
v 0.97614700 0.08487400 0.08483250
v 0.97614700 -0.08487400 0.08483250
v 0.94423100 -0.10078500 0.18030000
v 0.96901100 -0.09901970 0.08483250
v 0.96544400 -0.10078500 0.09546770
v 0.95483700 -0.10610300 0.08483250
v 0.93362500 -0.10610300 0.16974800
v 0.86998600 -0.10610300 0.29703800
v 0.95483700 -0.10610300 -0.10610300
v 0.96901100 -0.09901970 -0.10610300
v 0.97614700 -0.08487400 -0.10610300
v 0.97074700 -0.09548840 -0.11665500
v 0.92832100 -0.09548840 -0.24402800
v 0.92658600 -0.09901970 -0.23339300
v 0.91511200 -0.10078500 -0.25458000
v 0.87268600 -0.10078500 -0.31830900
v 0.91241200 -0.10610300 -0.23339300
v 0.82756100 -0.10610300 -0.33949600
v 0.86998600 -0.10610300 -0.29703800
v 0.85147300 -0.10078500 -0.33949600
v 0.87702500 -0.08487400 -0.32537100
v 0.85581200 -0.08487400 -0.34655800
v 0.84347000 -0.09548840 -0.35013100
v 0.83459900 -0.09901970 -0.35362100
v 0.64368400 -0.09901970 -0.41726600
v 0.63654900 -0.10610300 -0.40314100
v 0.63654900 -0.10610300 0.40314100
v 0.82756100 -0.10610300 0.33949600
v 0.63654900 -0.08487400 -0.42441200
v 0.82756100 -0.08487400 -0.36068300
v 0.84173500 0.08487400 -0.35362100
v 0.85581200 0.08487400 -0.34655800
v 0.87702500 0.08487400 -0.32537100
v 0.84877300 0.10078500 -0.34215500
v 0.83816700 0.09548840 -0.35536600
v 0.82756100 0.08487400 -0.36068300
v 0.63654900 0.06364510 -0.42441200
v 0.64715600 0.07425960 -0.41909400
v 0.82756100 0.09901970 -0.35362100
v 0.63654900 0.07779080 -0.41726600
v 0.40320900 0.09901970 -0.41726600
v 0.41381500 0.09548840 -0.41909400
v -0.42444700 0.09901970 -0.41726600
v -0.42444700 0.08487400 -0.42441200
v 0.40320900 0.08487400 -0.42441200
v -0.63653000 -0.08487400 -0.42441200
v -0.76387400 0.02120810 -0.42441200
v -0.63653000 0.06364510 -0.42441200
v -0.63653000 0.07779080 -0.41726600
v -0.76387400 0.03535380 -0.41726600
v -0.64713400 0.07957720 -0.41377600
v -0.77447900 0.03711940 -0.41377600
v -0.83819800 0.10078500 -0.35013100
v -0.77807600 0.02829130 -0.41726600
v -0.87001100 0.10610300 -0.29703800
v -0.82759400 0.10610300 -0.33949600
v -0.43505100 0.10078500 -0.41377600
v 0.40320900 0.10610300 -0.40314100
v -0.42444700 0.10610300 -0.40314100
v -0.84880200 0.10610300 0.31830900
v -0.95484400 0.10610300 0.08483250
v -0.93363500 0.10610300 0.16974800
v -0.89121900 0.10610300 0.25458000
v -0.89387000 0.10078500 0.27585100
v -0.93628600 0.10078500 0.19093500
v -0.94954100 0.09548840 0.18030000
v -0.94783700 0.09901970 0.16974800
v -0.97075000 0.09548840 0.09546770
v -0.97614700 0.08487400 0.08483250
v -0.95484400 0.08487400 0.16974800
v -0.89832000 0.08487400 0.28291300
v -0.81339200 0.02120810 0.41020400
v -0.85580900 0.08487400 0.34655800
v -0.86470800 0.09548840 0.32886100
v -0.90712500 0.09548840 0.26521600
v -0.85145300 0.10078500 0.33949600
v -0.84350000 0.09548840 0.35013100
v -0.83460000 0.09901970 0.35362100
v -0.79218400 0.03535380 0.41726600
v -0.80098900 0.03182260 0.41377600
v -0.78508300 0.02120810 0.42441200
v -0.61532200 0.06364510 0.42441200
v -0.78508300 -0.02120810 0.42441200
v -0.61532200 -0.08487400 0.42441200
v 0.76392200 0.02120810 0.42441200
v 0.79217400 0.02829130 0.41020400
v 0.85581200 0.09193640 0.34655800
v 0.86641900 0.10255100 0.31473600
v 0.84520600 0.10255100 0.33592300
v 0.83816700 0.09548840 0.35013100
v 0.82756100 0.10610300 0.33949600
v 0.95483700 0.10610300 -0.10610300
v 0.95483700 0.10610300 0.08483250
v 0.96901100 0.09901970 0.07777000
v 0.93362500 0.10610300 0.16974800
v 0.97614700 0.08487400 -0.10610300
v 0.96901100 0.09901970 -0.11316500
v 0.91241200 0.10610300 -0.23339300
v 0.92658600 0.09901970 -0.24045600
v 0.93362500 0.08487400 -0.23339300
v 0.93362500 -0.08487400 -0.23339300
v 0.91954700 0.08487400 -0.26164300
v 0.91954700 -0.08487400 -0.26164300
v 0.88589600 -0.09548840 -0.30767300
v 0.88059300 0.09548840 -0.31299100
v 0.86998600 0.10078500 -0.32088400
v 0.86998600 0.10610300 -0.29703800
v 0.82756100 0.10610300 -0.33949600
v 0.91241200 0.10078500 -0.25723900
v 0.88416000 0.09901970 -0.30410100
v 0.92301800 0.09548840 -0.24926300
v -0.82759400 0.10610300 0.33949600
v 0.63654900 0.08487400 0.40314100
v 0.82052200 0.09901970 0.35362100
v 0.75678700 0.03535380 0.41726600
v 0.62951000 0.07779080 0.41726600
v -0.00889767 0.07779080 0.41726600
v 0.63654900 0.06364510 0.42441200
v -0.00889767 0.06364510 0.42441200
v -0.62242300 0.07779080 0.41726600
v -0.61532200 0.08487400 0.40314100
v -0.00889767 0.08487400 0.40314100
f 2 3 1
f 169 58 171
f 169 171 170
f 169 170 167
f 169 167 168
f 169 168 160
f 165 161 160
f 165 160 168
f 165 168 167
f 165 167 166
f 165 166 164
f 169 160 58
f 165 164 161
f 162 164 163
f 162 163 159
f 162 159 161
f 159 160 161
f 159 44 160
f 159 43 44
f 41 36 38
f 32 157 156
f 33 157 32
f 33 36 157
f 162 161 164
f 157 36 41
f 160 57 58
f 60 171 58
f 181 86 182
f 181 182 180
f 181 180 85
f 85 180 179
f 176 79 85
f 176 85 179
f 177 176 179
f 177 179 178
f 177 178 175
f 177 175 176
f 160 44 57
f 176 175 79
f 174 78 175
f 174 175 173
f 174 173 78
f 78 173 72
f 69 72 173
f 69 173 68
f 68 173 171
f 172 60 68
f 172 68 171
f 172 171 60
f 175 78 79
f 183 86 181
f 157 41 43
f 158 43 159
f 141 143 144
f 141 22 143
f 20 22 141
f 20 141 19
f 142 19 141
f 142 16 19
f 142 135 16
f 140 138 135
f 140 135 142
f 140 142 141
f 141 144 145
f 140 141 139
f 138 139 137
f 138 137 135
f 136 135 137
f 136 137 132
f 136 132 135
f 135 132 134
f 134 132 117
f 125 117 132
f 133 125 132
f 126 125 133
f 140 139 138
f 158 157 43
f 139 141 145
f 139 131 137
f 158 159 154
f 158 154 157
f 157 154 156
f 155 156 154
f 155 32 156
f 155 150 32
f 153 150 155
f 153 155 154
f 153 154 152
f 153 152 150
f 139 145 131
f 151 150 152
f 151 148 150
f 150 148 149
f 149 148 143
f 143 148 147
f 144 143 147
f 145 144 147
f 145 147 146
f 145 146 129
f 131 145 129
f 131 132 137
f 151 152 148
f 130 126 133
f 183 85 86
f 182 86 89
f 159 163 154
f 152 154 163
f 152 163 164
f 152 164 148
f 164 200 148
f 166 200 164
f 166 208 200
f 166 167 208
f 170 208 167
f 170 171 207
f 209 200 208
f 170 207 208
f 206 207 171
f 173 206 171
f 204 206 173
f 204 205 206
f 204 201 205
f 204 202 201
f 203 202 204
f 203 204 173
f 203 173 202
f 202 173 178
f 208 207 206
f 202 178 179
f 209 210 200
f 201 210 208
f 60 62 66
f 39 8 54
f 54 8 64
f 134 117 10
f 11 134 10
f 15 11 12
f 15 134 11
f 15 135 134
f 16 135 15
f 18 19 16
f 209 208 210
f 29 143 22
f 31 149 143
f 31 32 149
f 150 149 32
f 86 87 89
f 121 109 110
f 128 129 127
f 175 178 173
f 205 208 206
f 205 201 208
f 201 200 210
f 31 143 29
f 183 181 85
f 202 179 201
f 200 179 148
f 121 190 109
f 100 101 99
f 189 99 101
f 191 189 101
f 192 191 101
f 104 192 101
f 104 109 192
f 192 109 191
f 191 109 190
f 191 190 189
f 121 193 190
f 189 190 188
f 90 99 89
f 184 89 99
f 184 99 188
f 184 188 187
f 185 184 187
f 185 187 186
f 185 186 180
f 185 180 182
f 185 182 184
f 182 89 184
f 189 188 99
f 201 179 200
f 121 194 193
f 122 195 194
f 179 180 148
f 180 147 148
f 188 190 187
f 199 187 190
f 199 190 193
f 199 193 187
f 198 187 193
f 198 193 194
f 198 194 187
f 197 186 187
f 122 194 121
f 197 187 194
f 195 186 194
f 195 196 186
f 186 196 180
f 196 147 180
f 146 147 196
f 146 196 129
f 129 196 127
f 122 123 127
f 122 127 196
f 122 196 195
f 197 194 186
f 130 133 132
f 130 132 131
f 130 131 129
f 53 39 52
f 53 40 39
f 42 40 53
f 42 53 52
f 49 42 52
f 49 52 51
f 49 51 50
f 49 50 48
f 49 48 42
f 45 42 48
f 52 39 54
f 45 48 47
f 45 46 44
f 45 44 42
f 42 44 43
f 42 43 41
f 42 41 40
f 40 41 38
f 40 38 39
f 38 8 39
f 6 8 38
f 6 38 36
f 45 47 46
f 6 36 37
f 51 52 54
f 50 51 55
f 67 60 66
f 67 66 65
f 65 66 62
f 65 62 63
f 65 63 64
f 63 54 64
f 59 56 55
f 61 59 55
f 61 55 54
f 61 54 63
f 51 54 55
f 61 63 62
f 61 60 59
f 59 60 58
f 59 58 56
f 56 58 57
f 56 57 44
f 46 56 44
f 46 55 56
f 47 55 46
f 47 48 50
f 47 50 55
f 61 62 60
f 67 68 60
f 6 37 5
f 25 24 37
f 17 19 18
f 17 18 16
f 17 16 5
f 13 5 16
f 13 16 15
f 14 13 15
f 14 15 12
f 14 12 13
f 13 12 5
f 5 12 1
f 17 20 19
f 2 1 12
f 2 11 10
f 2 10 9
f 2 9 8
f 4 2 8
f 7 4 8
f 7 8 6
f 7 6 4
f 4 6 5
f 4 5 3
f 4 3 2
f 2 12 11
f 5 37 24
f 21 20 17
f 21 23 22
f 25 37 36
f 25 36 26
f 35 26 36
f 35 36 33
f 35 33 34
f 35 34 26
f 26 34 27
f 30 27 34
f 30 34 33
f 30 33 32
f 21 22 20
f 30 32 31
f 30 29 27
f 27 29 22
f 28 27 22
f 23 28 22
f 23 27 28
f 23 26 27
f 23 25 26
f 23 24 25
f 23 17 24
f 21 17 23
f 30 31 29
f 67 69 68
f 67 65 69
f 69 65 70
f 81 74 96
f 116 115 96
f 116 96 74
f 116 74 115
f 65 74 70
f 65 115 74
f 65 64 115
f 115 64 96
f 96 64 114
f 97 96 114
f 81 75 74
f 106 97 114
f 106 113 112
f 108 106 112
f 108 112 111
f 108 111 110
f 108 110 109
f 108 109 104
f 108 104 106
f 107 106 104
f 107 104 105
f 107 105 106
f 106 114 113
f 105 97 106
f 114 64 8
f 9 10 114
f 130 129 126
f 126 129 128
f 126 128 127
f 126 127 123
f 126 123 125
f 123 124 125
f 124 117 125
f 118 117 124
f 119 118 124
f 119 124 123
f 9 114 8
f 120 119 123
f 120 122 121
f 120 121 110
f 120 110 119
f 119 110 118
f 111 118 110
f 111 112 118
f 118 112 117
f 112 113 117
f 113 10 117
f 113 114 10
f 120 123 122
f 102 98 97
f 102 97 105
f 103 102 105
f 83 86 85
f 83 85 79
f 84 83 79
f 80 84 79
f 80 83 84
f 80 82 83
f 80 81 82
f 80 75 81
f 77 76 75
f 77 75 80
f 83 87 86
f 77 80 79
f 77 78 72
f 77 72 76
f 76 72 73
f 76 73 75
f 75 73 74
f 73 70 74
f 71 70 73
f 71 73 72
f 71 72 69
f 71 69 70
f 77 79 78
f 82 87 83
f 88 87 82
f 88 89 87
f 103 105 104
f 103 104 101
f 103 101 102
f 102 101 98
f 98 101 100
f 98 100 99
f 98 99 90
f 92 98 90
f 92 97 98
f 92 94 97
f 94 96 97
f 95 96 94
f 95 81 96
f 91 82 81
f 91 81 95
f 93 91 95
f 93 95 94
f 93 94 92
f 93 92 91
f 91 92 90
f 91 90 82
f 88 82 90
f 88 90 89
f 17 5 24
f 5 1 3

