# https://github.com/mikedh/trimesh
v -0.59409500 -0.40125800 -0.01747340
v -0.57598100 -0.40125800 -0.05367900
v -0.59409500 -0.40125800 -0.00001368
v -0.59409500 -0.29698600 -0.03494680
v -0.58241700 -0.30276500 -0.05823550
v -0.57073900 -0.40125800 -0.06406450
v -0.58805700 -0.40125800 0.01206850
v -0.59409500 -0.29698600 -0.00001368
v -0.58825600 -0.29120600 -0.04659110
v -0.59409500 -0.15720800 -0.01747340
v -0.57657800 0.71637100 -0.05242020
v -0.56496700 -0.26785000 -0.07570890
v -0.57073900 0.72215100 -0.06406450
v -0.56496700 0.69301600 -0.07570890
v -0.55912800 -0.40125800 -0.06989360
v -0.58241700 -0.40125800 0.02328870
v -0.58241700 -0.34935800 0.02328870
v -0.58825600 -0.29698600 0.01164440
v -0.58971600 -0.28825700 0.00872985
v -0.57657800 0.45427400 -0.00001368
v -0.57657800 0.75128600 -0.01747340
v -0.57657800 0.76874300 -0.03494680
v -0.57073900 0.77464100 -0.04659110
v -0.55328900 -0.25617300 -0.08153790
v -0.54161100 -0.26207100 -0.08735330
v -0.55328900 0.75706600 -0.08153790
v -0.52416000 -0.36693300 -0.08735330
v -0.52548700 -0.40125800 -0.08282410
v -0.58201900 -0.40125800 0.02350770
v -0.57073900 0.01748400 0.02911780
v -0.57073900 0.45427400 0.01164440
v -0.57219900 0.46300200 0.00872985
v -0.57219900 0.76001400 -0.00874354
v -0.57219900 0.77747200 -0.02620320
v -0.56496700 0.79209800 -0.03494680
v -0.55036900 0.77310700 -0.07862340
v -0.56782000 0.78183600 -0.04367660
v -0.56350700 0.78407700 -0.05242020
v -0.55328900 0.79209800 -0.06406450
v -0.54161100 0.75128600 -0.08735330
v -0.54161100 0.77098400 -0.08298830
v -0.50671000 -0.40125800 -0.08735330
v -0.52416000 -0.40125800 -0.08333040
v -0.55912800 -0.40125800 0.03494680
v -0.55912800 0.01748400 0.03494680
v -0.56496700 0.40178300 0.02328870
v -0.56496700 0.75128600 0.00581534
v -0.56569700 0.76874300 -0.00001368
v -0.56569700 0.78620100 -0.01747340
v -0.55474900 0.79492900 -0.00874354
v -0.55328900 0.79787800 -0.01747340
v -0.54161100 0.80377600 -0.01747340
v -0.54161100 0.80377600 -0.05242020
v -0.55328900 0.79787800 -0.05242020
v -0.55036900 0.79929400 -0.06115000
v -0.52416000 0.79209800 -0.07570890
v -0.52416000 0.76874300 -0.08735330
v -0.52416000 0.78042100 -0.08153790
v 0.08375640 -0.40125800 -0.08735330
v -0.41932400 -0.40125800 0.03494680
v -0.50671000 -0.10483600 0.05240650
v -0.50671000 0.05251690 0.05240650
v -0.54161100 0.40178300 0.03494680
v -0.53583800 0.75128600 0.02911780
v -0.54745000 0.75128600 0.02328870
v -0.55474900 0.77747200 0.00872985
v -0.54599000 0.79492900 0.00872985
v -0.54380000 0.79929400 -0.00001368
v -0.52635000 0.79929400 0.01745970
v -0.50671000 0.80377600 0.01745970
v 0.05237190 0.80377600 -0.05242020
v -0.54161100 0.79787800 -0.06406450
v -0.03494730 0.79209800 -0.07570890
v 0.01747080 0.76874300 -0.08735330
v 0.01747080 0.78042100 -0.08153790
v 0.08375640 -0.40125800 0.01745970
v 0.08375640 0.75128600 -0.08735330
v -0.40200600 -0.40125800 0.03480990
v -0.10488200 0.75128600 0.05240650
v -0.47174200 0.76874300 0.05240650
v -0.52416000 0.75128600 0.03494680
v -0.52635000 0.76874300 0.03056820
v -0.52999900 0.78620100 0.02328870
v -0.51978100 0.79492900 0.02620320
v -0.51254900 0.79787800 0.02911780
v -0.08743170 0.80377600 0.01745970
v -0.46590300 0.79209800 0.04076210
v 0.08375640 0.80377600 -0.00001368
v 0.08375640 0.79823200 -0.04824680
v 0.06988880 0.79929400 -0.05459580
v 0.05237190 0.79787800 -0.06406450
v 0.02616290 0.77747200 -0.08298830
v 0.06113040 0.79492900 -0.06551490
v 0.08375640 0.48918800 0.03494680
v 0.08375640 0.76296300 -0.08153790
v 0.08375640 0.76874300 0.03494680
v -0.08743170 0.78620100 0.03494680
v -0.47758100 0.78042100 0.04659110
v -0.50671000 0.78620100 0.03494680
v -0.09320430 0.79787800 0.02911780
v 0.08375640 0.79209800 0.02328870
v 0.08375640 0.79327800 -0.05763340
v 0.08375640 0.77464100 -0.07570890
v 0.08375640 0.78266200 0.02800940
f 56 73 75
f 57 58 75
f 56 75 58
f 57 75 74
f 61 76 79
f 53 72 55
f 53 56 72
f 59 77 95
f 53 73 56
f 55 72 56
f 59 95 103
f 61 78 76
f 59 102 89
f 59 89 88
f 59 88 101
f 59 101 104
f 59 104 96
f 59 96 94
f 59 94 76
f 60 78 61
f 61 79 80
f 53 71 73
f 59 103 102
f 53 55 54
f 44 61 62
f 52 88 71
f 41 58 57
f 61 80 62
f 44 60 61
f 44 62 45
f 45 62 63
f 45 63 46
f 46 63 81
f 46 81 64
f 46 64 65
f 46 65 47
f 52 71 53
f 47 65 66
f 48 66 67
f 48 67 49
f 49 67 50
f 50 67 68
f 50 68 51
f 51 68 52
f 52 68 69
f 52 69 70
f 52 70 86
f 52 86 88
f 47 66 48
f 62 80 63
f 92 93 103
f 64 81 82
f 80 87 98
f 80 98 99
f 80 99 81
f 81 99 82
f 82 99 85
f 82 85 84
f 82 84 83
f 85 99 98
f 85 98 87
f 86 87 100
f 80 97 87
f 86 100 101
f 87 97 100
f 89 102 90
f 90 93 91
f 90 102 93
f 92 103 95
f 93 102 103
f 96 104 97
f 97 104 101
f 97 101 100
f 41 56 58
f 86 101 88
f 63 80 81
f 79 97 80
f 79 94 96
f 64 82 65
f 65 82 83
f 65 83 66
f 66 83 67
f 67 83 84
f 67 84 85
f 67 85 69
f 67 69 68
f 69 85 70
f 70 85 87
f 79 96 97
f 70 87 86
f 71 89 90
f 71 90 91
f 71 91 73
f 73 91 75
f 74 92 77
f 74 75 92
f 75 91 93
f 75 93 92
f 76 94 79
f 77 92 95
f 71 88 89
f 40 41 57
f 17 30 18
f 36 56 41
f 5 9 13
f 5 13 14
f 5 14 12
f 6 12 15
f 7 16 17
f 7 17 18
f 7 18 19
f 7 19 8
f 8 19 32
f 8 32 20
f 5 12 6
f 8 20 21
f 10 21 22
f 10 22 11
f 11 22 23
f 11 23 13
f 12 24 25
f 12 25 15
f 12 14 26
f 12 26 24
f 13 23 26
f 13 26 14
f 8 21 10
f 15 27 28
f 4 13 9
f 4 10 11
f 1 2 6
f 1 6 15
f 1 15 28
f 1 28 43
f 1 43 42
f 1 42 59
f 38 55 39
f 1 76 78
f 1 78 60
f 1 60 44
f 4 11 13
f 1 44 29
f 1 16 7
f 1 7 3
f 1 3 8
f 1 8 10
f 1 10 4
f 1 4 5
f 1 5 2
f 2 5 6
f 3 7 8
f 4 9 5
f 1 29 16
f 15 25 27
f 1 59 76
f 17 29 30
f 27 43 28
f 29 44 45
f 29 45 30
f 30 45 46
f 30 46 31
f 31 46 47
f 31 47 32
f 32 47 33
f 33 48 49
f 33 49 34
f 27 42 43
f 33 47 48
f 35 38 37
f 35 49 50
f 35 50 51
f 35 51 52
f 35 52 53
f 35 53 54
f 35 55 38
f 36 39 55
f 36 55 56
f 16 29 17
f 34 49 35
f 26 41 40
f 35 54 55
f 25 42 27
f 26 36 41
f 18 30 31
f 18 32 19
f 20 32 21
f 21 33 34
f 21 34 22
f 21 32 33
f 22 34 35
f 22 35 23
f 23 36 26
f 18 31 32
f 23 37 38
f 23 35 37
f 25 77 59
f 25 74 77
f 25 57 74
f 25 59 42
f 24 40 25
f 24 26 40
f 23 39 36
f 23 38 39
f 25 40 57

