# https://github.com/mikedh/trimesh
v 0.59409500 -0.40125800 -0.01746310
v 0.59088200 -0.40125800 -0.00234324
v 0.59409500 -0.41938300 0.00000000
v 0.59409500 -0.64648800 -0.03494340
v 0.58244000 -0.40125800 -0.04075870
v 0.58941100 -0.40125800 0.00061574
v 0.59409500 -0.68143700 -0.01746310
v 0.58532700 -0.40125800 0.00872301
v 0.58826800 -0.42521400 0.01164780
v 0.57661300 -0.71638500 0.05240650
v 0.57661300 -0.73387900 0.05240650
v 0.59409500 -0.75133400 -0.03494340
v 0.58244000 -0.64648800 -0.05823890
v 0.56495800 -0.48927900 -0.07570210
v 0.54464300 -0.40125800 -0.08268050
v 0.57661300 -0.41938300 0.01746310
v 0.52754200 -0.40125800 0.03831280
v 0.52999300 -0.41355100 0.04075870
v 0.55913000 -0.71638500 0.06988670
v 0.57078500 -0.72221600 0.06405430
v 0.57078500 -0.73967100 0.06405430
v 0.58968400 -0.77753500 -0.02620320
v 0.58968400 -0.76008100 -0.04368350
v 0.58826800 -0.75133400 -0.04659110
v 0.58244000 -0.68143700 -0.05823890
v 0.56495800 -0.68143700 -0.07570210
v 0.54164800 -0.48927900 -0.08736690
v 0.55036200 -0.48053200 -0.08298830
v 0.54377200 -0.40125800 -0.08314230
v 0.52481900 -0.40125800 0.03899700
v 0.50668300 -0.41938300 0.05240650
v 0.55913000 -0.73387900 0.06988670
v 0.50668300 -0.68143700 0.08736690
v 0.51833800 -0.73967100 0.08153450
v 0.51545100 -0.74696000 0.07862680
v 0.56784400 -0.74696000 0.06114660
v 0.58532700 -0.78190900 -0.02620320
v 0.58097000 -0.77753500 -0.04368350
v 0.57661300 -0.78628200 -0.01746310
v 0.53729100 -0.79502900 -0.07862680
v 0.55477300 -0.72513200 -0.07862680
v 0.55330300 -0.71638500 -0.08153450
v 0.54164800 -0.71638500 -0.08736690
v 0.52481900 -0.40125800 -0.08736690
v 0.50733600 -0.40125800 0.04335850
v 0.48925400 -0.68143700 0.08736690
v 0.50085500 -0.40772000 0.04659110
v 0.03770360 -0.40125800 0.01746310
v 0.50668300 -0.73387900 0.08736690
v 0.50668300 -0.74550200 0.08153450
v 0.47177200 -0.75716500 0.07570210
v 0.48925400 -0.75787400 0.06988670
v 0.56784400 -0.79940200 -0.02620320
v 0.54164800 -0.75787400 0.05240650
v 0.57661300 -0.78628200 -0.03494340
v 0.52999300 -0.79794500 -0.08153450
v 0.52416500 -0.78628200 -0.08736690
v 0.53582000 -0.78628200 -0.08153450
v 0.03770360 -0.40125800 -0.08736690
v 0.41932400 -0.73387900 0.08736690
v 0.03770360 -0.68143700 0.05240650
v 0.45428900 -0.75716500 0.07570210
v 0.13982100 -0.78045100 0.04659110
v 0.14853500 -0.78190900 0.04368350
v 0.48048600 -0.76445400 0.06114660
v 0.52416500 -0.80377600 -0.06988670
v 0.47177200 -0.76882700 0.05240650
v 0.13982100 -0.78628200 0.03494340
v 0.48925400 -0.80377600 -0.03494340
v 0.40766900 -0.79794500 -0.08153450
v 0.40184200 -0.78628200 -0.08736690
v 0.03770360 -0.75133400 -0.08736690
v 0.41061000 -0.74258700 0.08298830
v 0.41932400 -0.74550200 0.08153450
v 0.03770360 -0.75133400 0.05240650
v 0.05246300 -0.76882700 0.05240650
v 0.04369450 -0.77753500 0.04804500
v 0.05246300 -0.78045100 0.04659110
v 0.06994550 -0.78628200 0.03494340
v 0.40184200 -0.80377600 -0.06988670
v 0.40184200 -0.80377600 -0.03494340
v 0.03770360 -0.77461900 -0.07570210
v 0.03770360 -0.76606900 -0.07999510
v 0.03770360 -0.76299600 -0.08153450
v 0.03770360 -0.77158600 0.04653980
v 0.03770360 -0.77454100 0.03769710
v 0.03770360 -0.78628200 -0.05240650
v 0.05534950 -0.78336600 0.03785100
v 0.36693100 -0.80377600 -0.05240650
v 0.03770360 -0.78352400 -0.05793110
v 0.03770360 -0.77891400 -0.06713300
f 48 82 91
f 49 60 62
f 48 90 87
f 48 87 86
f 48 86 85
f 48 85 75
f 48 75 61
f 48 91 90
f 51 63 64
f 49 51 50
f 51 62 78
f 51 78 63
f 51 64 65
f 51 65 52
f 52 65 53
f 52 53 54
f 48 83 82
f 53 66 56
f 49 62 51
f 48 84 83
f 40 57 58
f 35 51 52
f 53 65 67
f 35 52 54
f 35 54 36
f 36 53 39
f 36 54 53
f 37 39 53
f 37 53 55
f 38 55 53
f 38 53 40
f 40 56 57
f 40 58 42
f 40 42 41
f 40 53 56
f 42 58 57
f 42 57 43
f 45 48 47
f 46 48 61
f 46 61 60
f 48 59 72
f 48 72 84
f 53 67 68
f 70 82 71
f 53 69 66
f 71 83 84
f 71 84 72
f 73 77 74
f 74 77 78
f 75 85 77
f 75 77 76
f 77 85 86
f 77 86 87
f 77 87 88
f 77 88 78
f 78 88 79
f 79 88 87
f 79 87 89
f 79 89 81
f 80 89 87
f 80 87 90
f 80 90 91
f 80 91 82
f 35 50 51
f 71 82 83
f 53 68 69
f 70 80 82
f 68 79 81
f 56 66 80
f 56 80 70
f 56 70 71
f 56 71 57
f 60 73 74
f 60 74 62
f 60 61 75
f 60 75 76
f 60 76 77
f 60 77 73
f 62 74 78
f 63 78 64
f 64 78 79
f 64 79 68
f 64 68 67
f 64 67 65
f 66 69 81
f 66 81 89
f 66 89 80
f 68 81 69
f 35 49 50
f 17 30 31
f 33 60 49
f 3 11 7
f 4 12 24
f 4 24 25
f 4 25 13
f 5 14 15
f 7 11 12
f 8 16 9
f 8 17 18
f 3 10 11
f 8 18 16
f 9 19 20
f 10 20 21
f 10 21 11
f 11 21 22
f 11 22 12
f 12 22 23
f 12 23 24
f 13 25 26
f 9 16 19
f 3 20 10
f 3 9 20
f 3 8 9
f 1 2 3
f 1 3 7
f 1 7 12
f 1 12 4
f 1 4 13
f 1 13 5
f 1 5 15
f 1 15 29
f 1 29 44
f 1 44 59
f 1 59 48
f 1 48 45
f 1 45 30
f 1 30 17
f 1 17 8
f 1 8 6
f 1 6 2
f 2 6 3
f 3 6 8
f 13 26 14
f 14 26 42
f 5 13 14
f 14 43 27
f 23 38 40
f 23 40 24
f 24 40 41
f 24 41 42
f 24 42 26
f 24 26 25
f 27 43 57
f 27 57 71
f 27 71 72
f 27 72 59
f 27 59 44
f 27 44 29
f 27 29 28
f 30 45 31
f 14 42 43
f 31 45 47
f 31 47 48
f 31 48 46
f 33 46 60
f 22 39 37
f 22 36 39
f 31 46 33
f 22 55 38
f 22 38 23
f 14 27 28
f 14 28 29
f 16 18 19
f 34 49 35
f 17 31 18
f 18 31 19
f 19 32 21
f 19 21 20
f 14 29 15
f 19 33 49
f 19 49 32
f 21 32 49
f 21 49 34
f 21 34 35
f 21 35 36
f 21 36 22
f 19 31 33
f 22 37 55

