# https://github.com/mikedh/trimesh
v -0.29043700 -0.40127500 0.01746960
v -0.33199500 -0.43685100 0.03494240
v -0.29043700 -0.41272100 0.01963320
v -0.29043700 -0.40127500 -0.08736690
v -0.40203100 -0.40127500 0.03481910
v -0.29706600 -0.48925100 0.03494240
v -0.29043700 -0.49057400 0.03361410
v -0.47177000 -0.43685100 0.05241510
v -0.45429100 -0.45431200 0.05241510
v -0.43684100 -0.47179000 0.05241510
v -0.29043700 -0.57660700 -0.08736690
v -0.50669900 -0.40127500 -0.08736690
v -0.41936200 -0.40127500 0.03494240
v -0.29043700 -0.50671200 0.03494240
v -0.52417800 -0.43685100 0.05241510
v -0.41960000 -0.57683100 0.05252470
v -0.29043700 -0.57683100 -0.08499800
v -0.29049700 -0.57683100 -0.08736690
v -0.52417800 -0.41937200 -0.08736690
v -0.52417800 -0.40127500 -0.08334110
v -0.55913700 -0.40127500 0.03494240
v -0.29043700 -0.57683100 0.03494240
v -0.52408900 -0.57683100 0.05252470
v -0.55913700 -0.55914600 0.05241510
v -0.50669900 -0.57683100 -0.08736690
v -0.52417800 -0.55914600 -0.08736690
v -0.57078900 -0.40127500 -0.06406080
v -0.55913700 -0.40127500 -0.06988050
v -0.57037300 -0.40127500 0.02932810
v -0.57078900 -0.55914600 0.04659550
v -0.54162800 -0.57683100 0.05246990
v -0.55928500 -0.57683100 0.05234670
v -0.55913700 -0.57683100 0.05241510
v -0.52438600 -0.57683100 -0.08288920
v -0.54748400 -0.56497300 -0.07571390
v -0.57078900 -0.44848500 -0.06406080
v -0.57599200 -0.40127500 -0.05366750
v -0.58244200 -0.40127500 0.02328930
v -0.57078900 -0.57683100 0.04659550
v -0.58826900 -0.54166800 0.02910900
v -0.54510600 -0.57683100 -0.07334490
v -0.56496300 -0.57683100 -0.05824110
v -0.58244200 -0.51253800 -0.04076830
v -0.58244200 -0.40127500 -0.04076830
v -0.58806100 -0.40127500 0.01206070
v -0.58972500 -0.53293800 0.02620600
v -0.58972500 -0.55914600 0.01964690
v -0.58826900 -0.57683100 0.01163620
v -0.59409500 -0.54166800 0.01746960
v -0.58244200 -0.57683100 -0.02329560
v -0.59409500 -0.57660700 -0.00000314
v -0.59409500 -0.50671200 -0.01746220
v -0.59409500 -0.40127500 -0.01746220
v -0.59409500 -0.40127500 -0.00000314
v -0.59403600 -0.57683100 0.00003795
v -0.58523700 -0.57683100 -0.01768130
f 21 29 30
f 21 30 24
f 23 24 31
f 24 30 32
f 24 32 33
f 26 34 35
f 25 34 26
f 27 36 37
f 29 38 30
f 30 39 32
f 24 33 31
f 19 28 20
f 51 56 55
f 19 36 27
f 19 35 36
f 19 26 35
f 16 17 22
f 16 50 42
f 16 18 17
f 16 25 18
f 16 34 25
f 16 41 34
f 16 42 41
f 30 38 40
f 19 27 28
f 30 40 39
f 43 52 53
f 35 41 42
f 16 56 50
f 50 56 51
f 49 51 55
f 49 52 51
f 49 53 52
f 49 54 53
f 47 55 48
f 47 49 55
f 46 54 49
f 45 54 46
f 43 53 44
f 34 41 35
f 43 51 52
f 42 50 43
f 40 49 47
f 40 46 49
f 39 47 48
f 39 40 47
f 38 46 40
f 38 45 46
f 37 43 44
f 36 43 37
f 36 42 43
f 35 42 36
f 43 50 51
f 16 55 56
f 14 16 22
f 16 39 48
f 2 6 7
f 1 5 2
f 1 13 5
f 1 21 13
f 1 29 21
f 1 38 29
f 1 45 38
f 1 54 45
f 1 53 54
f 1 44 53
f 1 37 44
f 1 27 37
f 1 28 27
f 1 12 20
f 1 4 12
f 1 11 4
f 1 17 11
f 1 22 17
f 1 14 22
f 1 7 14
f 1 3 7
f 1 2 3
f 16 48 55
f 2 7 3
f 2 5 8
f 1 20 28
f 2 9 10
f 16 32 39
f 2 8 9
f 16 33 32
f 16 31 33
f 16 23 31
f 15 24 23
f 12 19 20
f 11 17 18
f 10 16 14
f 9 16 10
f 8 21 15
f 8 13 21
f 15 21 24
f 8 23 16
f 4 11 18
f 8 16 9
f 4 18 25
f 4 25 26
f 2 10 6
f 4 19 12
f 4 26 19
f 5 13 8
f 6 14 7
f 6 10 14
f 8 15 23

