o convex_0
v 0.0837564 -0.401258 -0.0873669
v 0.524808 -0.401258 -0.0873669
v 0.0837564 -0.401258 0.0174631
v 0.0837564 0.751286 -0.0873669
v 0.543741 -0.401258 -0.0831491
v 0.541643 -0.384391 -0.0873669
v 0.507324 -0.401258 0.0433551
v 0.515416 -0.375662 0.0480501
v 0.506724 -0.3319 0.0524065
v 0.506724 -0.104836 0.0698936
v 0.139806 0.716371 0.0524065
v 0.0874031 0.419359 0.0349348
v 0.0837564 0.489188 0.0349348
v 0.0837564 0.774641 -0.075714
v 0.297064 0.751286 -0.0873669
v 0.54419 -0.401258 -0.0829336
v 0.550385 -0.375662 -0.0829952
v 0.553282 -0.384391 -0.0815328
v 0.524158 -0.0348882 -0.0873669
v 0.541643 0.768743 -0.0698799
v 0.550385 0.777472 -0.0655235
v 0.513568 -0.401258 0.0418003
v 0.524808 -0.401258 0.0389987
v 0.527555 -0.401258 0.038306
v 0.570766 -0.337798 0.029116
v 0.559127 -0.3319 0.0349348
v 0.524158 -0.296986 0.0524065
v 0.515416 -0.131022 0.0655218
v 0.524158 0.384326 0.0698936
v 0.506724 0.384326 0.0698936
v 0.139806 0.751286 0.0524065
v 0.0837564 0.768743 0.0349348
v 0.0837564 0.793278 -0.057642
v 0.253403 0.794929 -0.0655235
v 0.314548 0.797878 -0.0640611
v 0.297064 0.774641 -0.075714
v 0.305806 0.760014 -0.0829952
v 0.314548 0.733828 -0.0873669
v 0.54464 -0.401258 -0.0826719
v 0.582406 -0.296986 -0.0407707
v 0.582406 -0.401258 -0.0407707
v 0.554731 -0.393119 -0.0786234
v 0.553282 0.768743 -0.0640611
v 0.506724 0.297039 -0.0873669
v 0.497982 0.497917 -0.0829952
v 0.32329 0.794929 -0.0655235
v 0.524158 0.792098 -0.0582424
v 0.550385 0.794929 -0.0393083
v 0.553282 0.780421 -0.0582424
v 0.559127 0.768743 -0.0524082
v 0.585353 -0.401258 0.00873499
v 0.588251 -0.372713 0.0116444
v 0.582406 -0.168886 0.0232973
v 0.535848 0.378546 0.0640594
v 0.530003 -0.116396 0.0582406
v 0.518364 -0.128073 0.0640594
v 0.524158 0.733828 0.0698936
v 0.15729 0.768743 0.0524065
v 0.137608 0.768743 0.0480501
v 0.151445 0.780421 0.0465877
v 0.0837564 0.782662 0.0280077
v 0.0837564 0.798232 -0.0482365
v 0.253403 0.799294 -0.0611517
v 0.314548 0.803776 -0.0524082
v 0.594095 -0.296986 -0.0174648
v 0.582656 -0.401258 -0.0403397
v 0.524158 0.803776 -0.0349365
v 0.541643 0.799294 -0.0371224
v 0.553282 0.797878 -0.0232836
v 0.559127 0.786201 -0.0174648
v 0.576611 0.576593 0.0174631
v 0.576611 0.541561 -8.54947e-06
v 0.594095 -0.122293 -8.54947e-06
v 0.590898 -0.401258 -0.00234837
v 0.594095 -0.366933 -8.54947e-06
v 0.582406 -0.116396 0.0232973
v 0.535848 0.728048 0.0640594
v 0.541643 0.768743 0.0524065
v 0.535848 0.780421 0.0465877
v 0.518364 0.745506 0.0640594
v 0.448477 0.797878 0.029116
v 0.0837564 0.792098 0.0232973
v 0.0837564 0.803776 -8.54947e-06
v 0.209693 0.803776 -0.0349365
v 0.594095 -0.401258 -0.0174648
v 0.541643 0.803776 -0.0174648
v 0.547487 0.792098 0.00581021
v 0.553282 0.780421 0.029116
v 0.559127 0.768743 0.0349348
v 0.553282 0.762963 0.0465877
v 0.570766 0.570696 0.029116
v 0.550385 0.777472 0.0436783
v 0.541643 0.786201 0.0349348
v 0.471756 0.803776 0.0174631
v 0.465911 0.797878 0.029116
v 0.454272 0.803776 0.0174631
f 1 2 5
f 1 5 16
f 1 16 39
f 1 39 41
f 1 41 66
f 1 66 85
f 1 85 74
f 1 74 51
f 1 51 24
f 1 24 23
f 1 23 22
f 1 22 7
f 1 7 3
f 1 3 13
f 1 13 32
f 1 32 61
f 1 61 82
f 1 82 83
f 1 83 62
f 1 62 33
f 1 33 14
f 1 14 4
f 1 4 15
f 1 15 38
f 1 38 44
f 1 44 19
f 1 19 6
f 1 6 2
f 2 6 5
f 3 7 8
f 3 8 9
f 3 9 10
f 3 10 11
f 3 11 12
f 3 12 13
f 4 14 36
f 4 36 15
f 5 6 16
f 6 17 18
f 6 18 16
f 6 19 20
f 6 20 21
f 6 21 17
f 7 22 8
f 8 22 23
f 8 23 24
f 8 24 25
f 8 25 26
f 8 26 27
f 8 27 10
f 8 10 9
f 10 27 28
f 10 28 29
f 10 29 57
f 10 57 30
f 10 30 31
f 10 31 11
f 11 31 32
f 11 32 13
f 11 13 12
f 14 33 34
f 14 34 35
f 14 35 36
f 15 37 21
f 15 21 20
f 15 20 38
f 15 36 37
f 16 18 39
f 17 21 43
f 17 43 18
f 18 40 41
f 18 41 42
f 18 42 39
f 18 43 40
f 19 44 20
f 20 44 45
f 20 45 38
f 21 37 46
f 21 46 47
f 21 47 48
f 21 48 49
f 21 49 50
f 21 50 43
f 24 51 25
f 25 51 52
f 25 52 53
f 25 53 54
f 25 54 55
f 25 55 56
f 25 56 28
f 25 28 26
f 26 28 27
f 28 56 54
f 28 54 29
f 29 54 77
f 29 77 57
f 30 57 31
f 31 57 58
f 31 58 59
f 31 59 32
f 32 59 60
f 32 60 61
f 33 62 63
f 33 63 34
f 34 63 35
f 35 63 64
f 35 64 47
f 35 47 46
f 35 46 36
f 36 46 37
f 38 45 44
f 39 42 41
f 40 65 66
f 40 66 41
f 40 43 50
f 40 50 65
f 47 64 67
f 47 67 68
f 47 68 48
f 48 68 69
f 48 69 49
f 49 70 50
f 49 69 70
f 50 70 71
f 50 71 72
f 50 72 73
f 50 73 65
f 51 74 52
f 52 74 75
f 52 75 73
f 52 73 76
f 52 76 53
f 53 76 77
f 53 77 54
f 54 56 55
f 57 77 78
f 57 78 79
f 57 79 80
f 57 80 60
f 57 60 58
f 58 60 59
f 60 80 79
f 60 79 95
f 60 95 81
f 60 81 82
f 60 82 61
f 62 83 84
f 62 84 64
f 62 64 63
f 64 84 83
f 64 83 96
f 64 96 94
f 64 94 86
f 64 86 67
f 65 73 75
f 65 75 85
f 65 85 66
f 67 86 68
f 68 86 69
f 69 86 87
f 69 87 88
f 69 88 89
f 69 89 70
f 70 89 71
f 71 73 72
f 71 89 90
f 71 90 91
f 71 91 76
f 71 76 73
f 74 85 75
f 76 91 90
f 76 90 77
f 77 90 78
f 78 90 92
f 78 92 79
f 79 92 93
f 79 93 94
f 79 94 95
f 81 95 94
f 81 94 96
f 81 96 83
f 81 83 82
f 86 94 93
f 86 93 87
f 87 93 92
f 87 92 88
f 88 92 89
f 89 92 90
o convex_1
v -0.594095 -0.401258 -0.0174734
v -0.575981 -0.401258 -0.053679
v -0.594095 -0.401258 -1.36824e-05
v -0.594095 -0.296986 -0.0349468
v -0.582417 -0.302765 -0.0582355
v -0.570739 -0.401258 -0.0640645
v -0.588057 -0.401258 0.0120685
v -0.594095 -0.296986 -1.36824e-05
v -0.588256 -0.291206 -0.0465911
v -0.594095 -0.157208 -0.0174734
v -0.576578 0.716371 -0.0524202
v -0.564967 -0.26785 -0.0757089
v -0.570739 0.722151 -0.0640645
v -0.564967 0.693016 -0.0757089
v -0.559128 -0.401258 -0.0698936
v -0.582417 -0.401258 0.0232887
v -0.582417 -0.349358 0.0232887
v -0.588256 -0.296986 0.0116444
v -0.589716 -0.288257 0.00872985
v -0.576578 0.454274 -1.36824e-05
v -0.576578 0.751286 -0.0174734
v -0.576578 0.768743 -0.0349468
v -0.570739 0.774641 -0.0465911
v -0.553289 -0.256173 -0.0815379
v -0.541611 -0.262071 -0.0873533
v -0.553289 0.757066 -0.0815379
v -0.52416 -0.366933 -0.0873533
v -0.525487 -0.401258 -0.0828241
v -0.582019 -0.401258 0.0235077
v -0.570739 0.017484 0.0291178
v -0.570739 0.454274 0.0116444
v -0.572199 0.463002 0.00872985
v -0.572199 0.760014 -0.00874354
v -0.572199 0.777472 -0.0262032
v -0.564967 0.792098 -0.0349468
v -0.550369 0.773107 -0.0786234
v -0.56782 0.781836 -0.0436766
v -0.563507 0.784077 -0.0524202
v -0.553289 0.792098 -0.0640645
v -0.541611 0.751286 -0.0873533
v -0.541611 0.770984 -0.0829883
v -0.50671 -0.401258 -0.0873533
v -0.52416 -0.401258 -0.0833304
v -0.559128 -0.401258 0.0349468
v -0.559128 0.017484 0.0349468
v -0.564967 0.401783 0.0232887
v -0.564967 0.751286 0.00581534
v -0.565697 0.768743 -1.36824e-05
v -0.565697 0.786201 -0.0174734
v -0.554749 0.794929 -0.00874354
v -0.553289 0.797878 -0.0174734
v -0.541611 0.803776 -0.0174734
v -0.541611 0.803776 -0.0524202
v -0.553289 0.797878 -0.0524202
v -0.550369 0.799294 -0.06115
v -0.52416 0.792098 -0.0757089
v -0.52416 0.768743 -0.0873533
v -0.52416 0.780421 -0.0815379
v 0.0837564 -0.401258 -0.0873533
v -0.419324 -0.401258 0.0349468
v -0.50671 -0.104836 0.0524065
v -0.50671 0.0525169 0.0524065
v -0.541611 0.401783 0.0349468
v -0.535838 0.751286 0.0291178
v -0.54745 0.751286 0.0232887
v -0.554749 0.777472 0.00872985
v -0.54599 0.794929 0.00872985
v -0.5438 0.799294 -1.36824e-05
v -0.52635 0.799294 0.0174597
v -0.50671 0.803776 0.0174597
v 0.0523719 0.803776 -0.0524202
v -0.541611 0.797878 -0.0640645
v -0.0349473 0.792098 -0.0757089
v 0.0174708 0.768743 -0.0873533
v 0.0174708 0.780421 -0.0815379
v 0.0837564 -0.401258 0.0174597
v 0.0837564 0.751286 -0.0873533
v -0.402006 -0.401258 0.0348099
v -0.104882 0.751286 0.0524065
v -0.471742 0.768743 0.0524065
v -0.52416 0.751286 0.0349468
v -0.52635 0.768743 0.0305682
v -0.529999 0.786201 0.0232887
v -0.519781 0.794929 0.0262032
v -0.512549 0.797878 0.0291178
v -0.0874317 0.803776 0.0174597
v -0.465903 0.792098 0.0407621
v 0.0837564 0.803776 -1.36824e-05
v 0.0837564 0.798232 -0.0482468
v 0.0698888 0.799294 -0.0545958
v 0.0523719 0.797878 -0.0640645
v 0.0261629 0.777472 -0.0829883
v 0.0611304 0.794929 -0.0655149
v 0.0837564 0.489188 0.0349468
v 0.0837564 0.762963 -0.0815379
v 0.0837564 0.768743 0.0349468
v -0.0874317 0.786201 0.0349468
v -0.477581 0.780421 0.0465911
v -0.50671 0.786201 0.0349468
v -0.0932043 0.797878 0.0291178
v 0.0837564 0.792098 0.0232887
v 0.0837564 0.793278 -0.0576334
v 0.0837564 0.774641 -0.0757089
v 0.0837564 0.782662 0.0280094
f 97 98 102
f 97 102 111
f 97 111 124
f 97 124 139
f 97 139 138
f 97 138 155
f 97 155 172
f 97 172 174
f 97 174 156
f 97 156 140
f 97 140 125
f 97 125 112
f 97 112 103
f 97 103 99
f 97 99 104
f 97 104 106
f 97 106 100
f 97 100 101
f 97 101 98
f 98 101 102
f 99 103 104
f 100 105 101
f 100 106 107
f 100 107 109
f 100 109 105
f 101 108 102
f 101 105 109
f 101 109 110
f 101 110 108
f 102 108 111
f 103 112 113
f 103 113 114
f 103 114 115
f 103 115 104
f 104 115 128
f 104 128 116
f 104 116 117
f 104 117 106
f 106 117 118
f 106 118 107
f 107 118 119
f 107 119 109
f 108 120 121
f 108 121 111
f 108 110 122
f 108 122 120
f 109 119 122
f 109 122 110
f 111 123 124
f 111 121 123
f 112 125 113
f 113 125 126
f 113 126 114
f 114 126 127
f 114 127 128
f 114 128 115
f 116 128 117
f 117 129 130
f 117 130 118
f 117 128 129
f 118 130 131
f 118 131 119
f 119 132 122
f 119 131 133
f 119 133 134
f 119 134 135
f 119 135 132
f 120 122 136
f 120 136 121
f 121 136 153
f 121 153 170
f 121 170 173
f 121 173 155
f 121 155 138
f 121 138 123
f 122 132 137
f 122 137 136
f 123 138 139
f 123 139 124
f 125 140 141
f 125 141 126
f 126 141 142
f 126 142 127
f 127 142 143
f 127 143 128
f 128 143 129
f 129 144 145
f 129 145 130
f 129 143 144
f 130 145 131
f 131 134 133
f 131 145 146
f 131 146 147
f 131 147 148
f 131 148 149
f 131 149 150
f 131 150 151
f 131 151 134
f 132 135 151
f 132 151 152
f 132 152 137
f 134 151 135
f 136 137 153
f 137 152 154
f 137 154 153
f 140 156 157
f 140 157 158
f 140 158 141
f 141 158 159
f 141 159 142
f 142 159 177
f 142 177 160
f 142 160 161
f 142 161 143
f 143 161 162
f 143 162 144
f 144 162 163
f 144 163 145
f 145 163 146
f 146 163 164
f 146 164 147
f 147 164 148
f 148 164 165
f 148 165 166
f 148 166 182
f 148 182 184
f 148 184 167
f 148 167 149
f 149 151 150
f 149 167 169
f 149 169 152
f 149 152 168
f 149 168 151
f 151 168 152
f 152 169 171
f 152 171 154
f 153 154 171
f 153 171 170
f 155 173 191
f 155 191 199
f 155 199 198
f 155 198 185
f 155 185 184
f 155 184 197
f 155 197 200
f 155 200 192
f 155 192 190
f 155 190 172
f 156 174 157
f 157 174 172
f 157 172 175
f 157 175 176
f 157 176 158
f 158 176 159
f 159 176 177
f 160 177 178
f 160 178 161
f 161 178 179
f 161 179 162
f 162 179 163
f 163 179 180
f 163 180 181
f 163 181 165
f 163 165 164
f 165 181 166
f 166 181 183
f 166 183 182
f 167 184 185
f 167 185 186
f 167 186 187
f 167 187 169
f 169 187 171
f 170 188 173
f 170 171 188
f 171 187 189
f 171 189 188
f 172 190 175
f 173 188 191
f 175 190 192
f 175 192 193
f 175 193 176
f 176 193 183
f 176 183 194
f 176 194 195
f 176 195 177
f 177 195 178
f 178 195 181
f 178 181 180
f 178 180 179
f 181 195 194
f 181 194 183
f 182 183 196
f 182 196 197
f 182 197 184
f 183 193 196
f 185 198 186
f 186 189 187
f 186 198 189
f 188 199 191
f 188 189 199
f 189 198 199
f 192 200 193
f 193 200 197
f 193 197 196
o convex_2
v 0.594095 -0.401258 -0.0174631
v 0.590882 -0.401258 -0.00234324
v 0.594095 -0.419383 0
v 0.594095 -0.646488 -0.0349434
v 0.58244 -0.401258 -0.0407587
v 0.589411 -0.401258 0.000615742
v 0.594095 -0.681437 -0.0174631
v 0.585327 -0.401258 0.00872301
v 0.588268 -0.425214 0.0116478
v 0.576613 -0.716385 0.0524065
v 0.576613 -0.733879 0.0524065
v 0.594095 -0.751334 -0.0349434
v 0.58244 -0.646488 -0.0582389
v 0.564958 -0.489279 -0.0757021
v 0.544643 -0.401258 -0.0826805
v 0.576613 -0.419383 0.0174631
v 0.527542 -0.401258 0.0383128
v 0.529993 -0.413551 0.0407587
v 0.55913 -0.716385 0.0698867
v 0.570785 -0.722216 0.0640543
v 0.570785 -0.739671 0.0640543
v 0.589684 -0.777535 -0.0262032
v 0.589684 -0.760081 -0.0436835
v 0.588268 -0.751334 -0.0465911
v 0.58244 -0.681437 -0.0582389
v 0.564958 -0.681437 -0.0757021
v 0.541648 -0.489279 -0.0873669
v 0.550362 -0.480532 -0.0829883
v 0.543772 -0.401258 -0.0831423
v 0.524819 -0.401258 0.038997
v 0.506683 -0.419383 0.0524065
v 0.55913 -0.733879 0.0698867
v 0.506683 -0.681437 0.0873669
v 0.518338 -0.739671 0.0815345
v 0.515451 -0.74696 0.0786268
v 0.567844 -0.74696 0.0611466
v 0.585327 -0.781909 -0.0262032
v 0.58097 -0.777535 -0.0436835
v 0.576613 -0.786282 -0.0174631
v 0.537291 -0.795029 -0.0786268
v 0.554773 -0.725132 -0.0786268
v 0.553303 -0.716385 -0.0815345
v 0.541648 -0.716385 -0.0873669
v 0.524819 -0.401258 -0.0873669
v 0.507336 -0.401258 0.0433585
v 0.489254 -0.681437 0.0873669
v 0.500855 -0.40772 0.0465911
v 0.0377036 -0.401258 0.0174631
v 0.506683 -0.733879 0.0873669
v 0.506683 -0.745502 0.0815345
v 0.471772 -0.757165 0.0757021
v 0.489254 -0.757874 0.0698867
v 0.567844 -0.799402 -0.0262032
v 0.541648 -0.757874 0.0524065
v 0.576613 -0.786282 -0.0349434
v 0.529993 -0.797945 -0.0815345
v 0.524165 -0.786282 -0.0873669
v 0.53582 -0.786282 -0.0815345
v 0.0377036 -0.401258 -0.0873669
v 0.419324 -0.733879 0.0873669
v 0.0377036 -0.681437 0.0524065
v 0.454289 -0.757165 0.0757021
v 0.139821 -0.780451 0.0465911
v 0.148535 -0.781909 0.0436835
v 0.480486 -0.764454 0.0611466
v 0.524165 -0.803776 -0.0698867
v 0.471772 -0.768827 0.0524065
v 0.139821 -0.786282 0.0349434
v 0.489254 -0.803776 -0.0349434
v 0.407669 -0.797945 -0.0815345
v 0.401842 -0.786282 -0.0873669
v 0.0377036 -0.751334 -0.0873669
v 0.41061 -0.742587 0.0829883
v 0.419324 -0.745502 0.0815345
v 0.0377036 -0.751334 0.0524065
v 0.052463 -0.768827 0.0524065
v 0.0436945 -0.777535 0.048045
v 0.052463 -0.780451 0.0465911
v 0.0699455 -0.786282 0.0349434
v 0.401842 -0.803776 -0.0698867
v 0.401842 -0.803776 -0.0349434
v 0.0377036 -0.774619 -0.0757021
v 0.0377036 -0.766069 -0.0799951
v 0.0377036 -0.762996 -0.0815345
v 0.0377036 -0.771586 0.0465398
v 0.0377036 -0.774541 0.0376971
v 0.0377036 -0.786282 -0.0524065
v 0.0553495 -0.783366 0.037851
v 0.366931 -0.803776 -0.0524065
v 0.0377036 -0.783524 -0.0579311
v 0.0377036 -0.778914 -0.067133
f 201 202 203
f 201 203 207
f 201 207 212
f 201 212 204
f 201 204 213
f 201 213 205
f 201 205 215
f 201 215 229
f 201 229 244
f 201 244 259
f 201 259 248
f 201 248 245
f 201 245 230
f 201 230 217
f 201 217 208
f 201 208 206
f 201 206 202
f 202 206 203
f 203 206 208
f 203 208 209
f 203 209 220
f 203 220 210
f 203 210 211
f 203 211 207
f 204 212 224
f 204 224 225
f 204 225 213
f 205 213 214
f 205 214 215
f 207 211 212
f 208 216 209
f 208 217 218
f 208 218 216
f 209 216 219
f 209 219 220
f 210 220 221
f 210 221 211
f 211 221 222
f 211 222 212
f 212 222 223
f 212 223 224
f 213 225 226
f 213 226 214
f 214 226 242
f 214 242 243
f 214 243 227
f 214 227 228
f 214 228 229
f 214 229 215
f 216 218 219
f 217 230 231
f 217 231 218
f 218 231 219
f 219 232 221
f 219 221 220
f 219 231 233
f 219 233 249
f 219 249 232
f 221 232 249
f 221 249 234
f 221 234 235
f 221 235 236
f 221 236 222
f 222 237 255
f 222 255 238
f 222 238 223
f 222 236 239
f 222 239 237
f 223 238 240
f 223 240 224
f 224 240 241
f 224 241 242
f 224 242 226
f 224 226 225
f 227 243 257
f 227 257 271
f 227 271 272
f 227 272 259
f 227 259 244
f 227 244 229
f 227 229 228
f 230 245 231
f 231 246 233
f 231 245 247
f 231 247 248
f 231 248 246
f 233 246 260
f 233 260 249
f 234 249 235
f 235 249 250
f 235 250 251
f 235 251 252
f 235 252 254
f 235 254 236
f 236 253 239
f 236 254 253
f 237 239 253
f 237 253 255
f 238 255 253
f 238 253 240
f 240 256 257
f 240 257 258
f 240 258 242
f 240 242 241
f 240 253 256
f 242 258 257
f 242 257 243
f 245 248 247
f 246 248 261
f 246 261 260
f 248 259 272
f 248 272 284
f 248 284 283
f 248 283 282
f 248 282 291
f 248 291 290
f 248 290 287
f 248 287 286
f 248 286 285
f 248 285 275
f 248 275 261
f 249 260 262
f 249 262 251
f 249 251 250
f 251 262 278
f 251 278 263
f 251 263 264
f 251 264 265
f 251 265 252
f 252 265 253
f 252 253 254
f 253 266 256
f 253 265 267
f 253 267 268
f 253 268 269
f 253 269 266
f 256 266 280
f 256 280 270
f 256 270 271
f 256 271 257
f 260 273 274
f 260 274 262
f 260 261 275
f 260 275 276
f 260 276 277
f 260 277 273
f 262 274 278
f 263 278 264
f 264 278 279
f 264 279 268
f 264 268 267
f 264 267 265
f 266 269 281
f 266 281 289
f 266 289 280
f 268 279 281
f 268 281 269
f 270 280 282
f 270 282 271
f 271 282 283
f 271 283 284
f 271 284 272
f 273 277 274
f 274 277 278
f 275 285 277
f 275 277 276
f 277 285 286
f 277 286 287
f 277 287 288
f 277 288 278
f 278 288 279
f 279 288 287
f 279 287 289
f 279 289 281
f 280 289 287
f 280 287 290
f 280 290 291
f 280 291 282
o convex_3
v -0.290407 -0.786303 -0.0698799
v -0.290407 -0.780875 -0.0807169
v -0.26208 -0.786303 -0.0698799
v -0.192192 -0.786303 -0.0524082
v -0.290407 -0.768814 0.0524065
v -0.290407 -0.780461 -0.0815328
v -0.256267 -0.780461 -0.0815328
v 0.0377036 -0.786303 -0.0524082
v 0.0377036 -0.774543 0.0376903
v 0.0377036 -0.771566 0.0465415
v -0.0873935 -0.768814 0.0524065
v -0.0786576 -0.764442 0.06115
v -0.290407 -0.762972 0.0640594
v -0.290407 -0.779631 -0.0819484
v -0.26208 -0.768814 -0.0873669
v 0.0377036 -0.751326 -0.0873669
v 0.0377036 -0.756866 -0.0845961
v 0.0377036 -0.774619 -0.075714
v 0.0377036 -0.751326 0.0524065
v -0.104865 -0.751326 0.0698936
v -0.0873935 -0.762972 0.0640594
v -0.290407 -0.758562 0.0662761
v -0.290407 -0.768814 -0.0873669
v 0.0377036 -0.401258 -0.0873669
v 0.0377036 -0.681448 0.0524065
v -0.0524499 -0.716387 0.0698936
v -0.290407 -0.751326 0.0698936
v -0.290407 -0.401258 -0.0873669
v 0.0377036 -0.401258 0.0174631
v -0.122337 -0.698899 0.0698936
v -0.290407 -0.698899 0.0698936
v -0.290407 -0.401258 0.0174631
v -0.157249 -0.471814 0.0349348
v -0.227136 -0.681448 0.0698936
v -0.290407 -0.682767 0.0685543
v -0.290407 -0.412754 0.0196336
f 292 293 294
f 292 294 299
f 292 299 295
f 292 295 296
f 292 296 304
f 292 304 313
f 292 313 318
f 292 318 322
f 292 322 326
f 292 326 327
f 292 327 323
f 292 323 319
f 292 319 314
f 292 314 305
f 292 305 297
f 292 297 293
f 293 297 298
f 293 298 294
f 294 298 299
f 295 299 300
f 295 300 296
f 296 300 301
f 296 301 302
f 296 302 303
f 296 303 304
f 297 305 298
f 298 305 306
f 298 306 307
f 298 307 308
f 298 308 309
f 298 309 299
f 299 309 308
f 299 308 307
f 299 307 315
f 299 315 320
f 299 320 316
f 299 316 310
f 299 310 301
f 299 301 300
f 301 310 311
f 301 311 312
f 301 312 303
f 301 303 302
f 303 312 304
f 304 312 313
f 305 314 306
f 306 314 319
f 306 319 315
f 306 315 307
f 310 316 317
f 310 317 311
f 311 318 313
f 311 313 312
f 311 317 321
f 311 321 325
f 311 325 322
f 311 322 318
f 315 319 323
f 315 323 320
f 316 320 317
f 317 320 321
f 320 323 324
f 320 324 321
f 321 324 325
f 322 325 326
f 323 327 324
f 324 327 326
f 324 326 325
o convex_4
v -0.290437 -0.401275 0.0174696
v -0.331995 -0.436851 0.0349424
v -0.290437 -0.412721 0.0196332
v -0.290437 -0.401275 -0.0873669
v -0.402031 -0.401275 0.0348191
v -0.297066 -0.489251 0.0349424
v -0.290437 -0.490574 0.0336141
v -0.47177 -0.436851 0.0524151
v -0.454291 -0.454312 0.0524151
v -0.436841 -0.47179 0.0524151
v -0.290437 -0.576607 -0.0873669
v -0.506699 -0.401275 -0.0873669
v -0.419362 -0.401275 0.0349424
v -0.290437 -0.506712 0.0349424
v -0.524178 -0.436851 0.0524151
v -0.4196 -0.576831 0.0525247
v -0.290437 -0.576831 -0.084998
v -0.290497 -0.576831 -0.0873669
v -0.524178 -0.419372 -0.0873669
v -0.524178 -0.401275 -0.0833411
v -0.559137 -0.401275 0.0349424
v -0.290437 -0.576831 0.0349424
v -0.524089 -0.576831 0.0525247
v -0.559137 -0.559146 0.0524151
v -0.506699 -0.576831 -0.0873669
v -0.524178 -0.559146 -0.0873669
v -0.570789 -0.401275 -0.0640608
v -0.559137 -0.401275 -0.0698805
v -0.570373 -0.401275 0.0293281
v -0.570789 -0.559146 0.0465955
v -0.541628 -0.576831 0.0524699
v -0.559285 -0.576831 0.0523467
v -0.559137 -0.576831 0.0524151
v -0.524386 -0.576831 -0.0828892
v -0.547484 -0.564973 -0.0757139
v -0.570789 -0.448485 -0.0640608
v -0.575992 -0.401275 -0.0536675
v -0.582442 -0.401275 0.0232893
v -0.570789 -0.576831 0.0465955
v -0.588269 -0.541668 0.029109
v -0.545106 -0.576831 -0.0733449
v -0.564963 -0.576831 -0.0582411
v -0.582442 -0.512538 -0.0407683
v -0.582442 -0.401275 -0.0407683
v -0.588061 -0.401275 0.0120607
v -0.589725 -0.532938 0.026206
v -0.589725 -0.559146 0.0196469
v -0.588269 -0.576831 0.0116362
v -0.594095 -0.541668 0.0174696
v -0.582442 -0.576831 -0.0232956
v -0.594095 -0.576607 -3.13503e-06
v -0.594095 -0.506712 -0.0174622
v -0.594095 -0.401275 -0.0174622
v -0.594095 -0.401275 -3.13503e-06
v -0.594036 -0.576831 3.79452e-05
v -0.585237 -0.576831 -0.0176813
f 328 329 330
f 328 330 334
f 328 334 341
f 328 341 349
f 328 349 344
f 328 344 338
f 328 338 331
f 328 331 339
f 328 339 347
f 328 347 355
f 328 355 354
f 328 354 364
f 328 364 371
f 328 371 380
f 328 380 381
f 328 381 372
f 328 372 365
f 328 365 356
f 328 356 348
f 328 348 340
f 328 340 332
f 328 332 329
f 329 333 334
f 329 334 330
f 329 332 335
f 329 335 336
f 329 336 337
f 329 337 333
f 331 338 345
f 331 345 352
f 331 352 353
f 331 353 346
f 331 346 339
f 332 340 335
f 333 341 334
f 333 337 341
f 335 342 350
f 335 350 343
f 335 343 336
f 335 340 348
f 335 348 342
f 336 343 337
f 337 343 341
f 338 344 345
f 339 346 347
f 341 343 349
f 342 348 351
f 342 351 350
f 343 350 358
f 343 358 360
f 343 360 359
f 343 359 366
f 343 366 375
f 343 375 382
f 343 382 383
f 343 383 377
f 343 377 369
f 343 369 368
f 343 368 361
f 343 361 352
f 343 352 345
f 343 345 344
f 343 344 349
f 346 353 362
f 346 362 363
f 346 363 354
f 346 354 355
f 346 355 347
f 348 356 357
f 348 357 351
f 350 351 358
f 351 357 359
f 351 359 360
f 351 360 358
f 352 361 353
f 353 361 362
f 354 363 364
f 356 365 357
f 357 366 359
f 357 365 367
f 357 367 366
f 361 368 362
f 362 368 369
f 362 369 363
f 363 369 370
f 363 370 364
f 364 370 371
f 365 372 373
f 365 373 367
f 366 367 374
f 366 374 375
f 367 373 376
f 367 376 374
f 369 377 370
f 370 377 378
f 370 378 379
f 370 379 380
f 370 380 371
f 372 381 373
f 373 381 376
f 374 376 382
f 374 382 375
f 376 381 380
f 376 380 379
f 376 379 378
f 376 378 382
f 377 383 378
f 378 383 382
o convex_5
v -0.54167 -0.786282 0.0174631
v -0.506731 -0.786282 -0.0524065
v -0.29042 -0.786282 -0.0698867
v -0.454314 -0.786282 -0.0698867
v -0.29042 -0.780459 -0.0815345
v -0.29042 -0.768812 -0.0873669
v -0.454314 -0.768812 -0.0873669
v -0.448494 -0.780459 -0.0815345
v -0.480531 -0.777547 -0.0786268
v -0.530012 -0.774636 -0.0582389
v -0.530012 -0.722227 -0.0757021
v -0.564968 -0.722227 -0.0582389
v -0.550409 -0.777547 -0.0262032
v -0.521274 -0.78337 -0.0494988
v -0.524192 -0.786282 -0.0349434
v -0.54167 -0.786282 0
v -0.553311 -0.780459 0.00581534
v -0.559148 -0.768812 0
v -0.553311 -0.780459 0.0232956
v -0.54167 -0.781915 0.0371156
v -0.532931 -0.777547 0.0567851
v -0.524192 -0.781915 0.0545958
v -0.515453 -0.777547 0.0655252
v -0.506731 -0.768812 0.0764375
v -0.506731 -0.780459 0.0640543
v -0.48927 -0.775374 0.0698867
v -0.332 -0.762989 0.0815345
v -0.497992 -0.781915 0.0611466
v -0.29042 -0.768812 0.0524065
v -0.332 -0.768812 0.0698867
v -0.323259 -0.764445 0.0786268
v -0.332 -0.751343 0.0873669
v -0.320346 -0.757166 0.0815345
v -0.29042 -0.762989 0.0640543
v -0.29042 -0.75856 0.0662778
v -0.29042 -0.751343 0.0698867
v -0.29042 -0.698934 0.0698867
v -0.334914 -0.701845 0.0844422
v -0.29042 -0.682776 0.0685526
v -0.29042 -0.576831 0.0349434
v -0.29705 -0.681464 0.0698867
v -0.349469 -0.698934 0.0873669
v -0.436836 -0.646525 0.0873669
v -0.506731 -0.646525 0.0873669
v -0.419563 -0.576831 0.0525091
v -0.541636 -0.576831 0.0524578
v -0.559148 -0.576831 0.0524065
v -0.54167 -0.629055 0.0698867
v -0.570789 -0.576831 0.0465911
v -0.594053 -0.576831 3.42079e-05
v -0.564968 -0.629055 0.0582389
v -0.524192 -0.698934 0.0873669
v -0.54749 -0.698934 0.0757021
v -0.564968 -0.698934 0.0582389
v -0.576609 -0.698934 0.0349434
v -0.572248 -0.716404 0.0371156
v -0.576609 -0.716404 0.0174631
v -0.576609 -0.716404 -0.0349434
v -0.559148 -0.768812 0.0174631
v -0.564968 -0.576831 -0.0582389
v -0.290498 -0.576831 -0.0873669
v -0.506731 -0.576831 -0.0873669
v -0.545125 -0.576831 -0.0733417
v -0.506731 -0.716404 -0.0873669
v -0.52441 -0.576831 -0.0828857
v -0.550409 -0.777547 0.0305647
v -0.54749 -0.768812 0.0407587
v -0.532931 -0.760078 0.0655252
v -0.532931 -0.707669 0.0829883
v -0.48927 -0.751343 0.0873669
v -0.497992 -0.760078 0.0829883
v -0.48927 -0.762989 0.0815345
f 385 386 384
f 387 386 385
f 388 386 387
f 388 389 386
f 388 390 389
f 391 390 388
f 391 392 390
f 391 387 392
f 391 388 387
f 387 385 392
f 393 392 385
f 393 394 392
f 393 395 394
f 393 396 395
f 397 396 393
f 397 398 396
f 397 385 398
f 397 393 385
f 398 385 399
f 398 399 396
f 400 396 399
f 400 401 396
f 400 402 401
f 400 399 402
f 402 399 384
f 403 402 384
f 403 404 402
f 405 404 403
f 406 404 405
f 406 407 404
f 408 407 406
f 408 409 407
f 408 410 409
f 408 411 410
f 408 405 411
f 408 406 405
f 405 384 411
f 405 403 384
f 411 384 386
f 411 386 412
f 411 412 413
f 414 411 413
f 414 410 411
f 414 415 410
f 414 416 415
f 414 417 416
f 414 412 417
f 414 413 412
f 412 386 417
f 417 386 418
f 417 418 416
f 419 416 418
f 419 415 416
f 420 415 419
f 420 421 415
f 420 422 421
f 420 419 422
f 419 418 422
f 422 418 423
f 424 422 423
f 424 425 422
f 424 423 425
f 426 425 423
f 426 427 425
f 426 428 427
f 426 423 428
f 428 423 429
f 428 429 427
f 430 427 429
f 430 431 427
f 430 432 431
f 430 429 432
f 432 429 433
f 434 432 433
f 434 431 432
f 434 435 431
f 434 436 435
f 434 437 436
f 434 433 437
f 438 437 433
f 438 439 437
f 438 440 439
f 438 433 440
f 441 440 433
f 442 440 441
f 442 439 440
f 442 402 439
f 401 402 442
f 401 442 441
f 401 441 396
f 441 395 396
f 441 443 395
f 441 433 443
f 443 433 444
f 445 443 444
f 446 443 445
f 446 395 443
f 446 394 395
f 446 447 394
f 448 447 446
f 448 445 447
f 448 446 445
f 445 444 447
f 444 389 447
f 444 423 389
f 444 433 423
f 429 423 433
f 386 389 423
f 418 386 423
f 390 447 389
f 390 392 447
f 394 447 392
f 449 439 402
f 450 439 449
f 450 404 439
f 450 449 404
f 449 402 404
f 439 404 437
f 451 437 404
f 451 436 437
f 452 436 451
f 452 435 436
f 452 453 435
f 452 454 453
f 452 407 454
f 452 451 407
f 407 451 404
f 455 454 407
f 455 453 454
f 455 410 453
f 455 407 410
f 407 409 410
f 453 410 415
f 453 415 435
f 415 425 435
f 421 425 415
f 421 422 425
f 435 425 427
f 431 435 427
f 399 385 384
