# https://github.com/mikedh/trimesh
v -0.12347400 -0.83634800 0.19712000
v -0.12347400 -0.69446200 0.19712000
v -0.12261700 -0.83661300 0.19712000
v -0.12347400 -0.85546400 0.22514300
v -0.12347400 -0.69446200 0.29921000
v 0.47488700 -0.69446200 0.19712000
v -0.09228980 -0.84145300 0.19712000
v -0.10290400 -0.87475100 0.24442200
v -0.12347400 -0.87601700 0.25660000
v -0.12347400 -0.80078200 0.39556300
v 0.42445200 -0.69446200 0.40520300
v 0.53112300 -0.69446200 0.25086300
v 0.47277700 -0.69869700 0.19712000
v 0.01932590 -0.84901700 0.19712000
v -0.09644330 -0.88762700 0.27016300
v -0.12347400 -0.87894800 0.26246400
v 0.05149860 -0.87475100 0.24442200
v -0.12347400 -0.81275100 0.40290000
v 0.46328300 -0.69446200 0.41260300
v 0.54035300 -0.69446200 0.26009700
v 0.46948100 -0.70109800 0.19712000
v 0.48721500 -0.72361800 0.24122300
v 0.02347930 -0.84901700 0.19712000
v -0.11576000 -0.88762700 0.28946400
v 0.05789360 -0.88762700 0.27016300
v -0.12347400 -0.88377000 0.29330300
v 0.16080700 -0.86189300 0.23800300
v 0.06435450 -0.88117900 0.25730300
v -0.12347400 -0.82973000 0.40520300
v 0.48240200 -0.69446200 0.41497100
v 0.54470400 -0.69446200 0.27016300
v 0.54668200 -0.70109800 0.28946400
v 0.50811400 -0.72040400 0.27016300
v 0.44324100 -0.71913700 0.19712000
v 0.45023000 -0.75899500 0.27016300
v 0.43895600 -0.76220900 0.26050200
v 0.39069700 -0.78151500 0.24122300
v 0.43203400 -0.72637900 0.19712000
v 0.15388400 -0.83077000 0.19712000
v -0.11576000 -0.88762700 0.34732300
v 0.15441200 -0.86832200 0.25086300
v 0.09652730 -0.88762700 0.28946400
v -0.12347400 -0.88377000 0.35116200
v 0.25027100 -0.81146500 0.19712000
v 0.23794200 -0.84258800 0.23800300
v 0.17610200 -0.86350000 0.25086300
v -0.12347400 -0.84901700 0.40520300
v 0.50165300 -0.69446200 0.41497100
v 0.55004400 -0.69446200 0.28946400
v 0.54668200 -0.70109800 0.36662300
v 0.48879700 -0.73969000 0.28946400
v 0.47594200 -0.74613800 0.28946400
v 0.43737400 -0.76542400 0.27016300
v 0.38832400 -0.78633600 0.25086300
v 0.37302800 -0.75899500 0.19712000
v 0.42913300 -0.72809900 0.19712000
v 0.35212900 -0.80078200 0.24122300
v 0.34678900 -0.77289200 0.19712000
v -0.09644330 -0.88762700 0.36662300
v -0.11576000 -0.88278700 0.36903300
v 0.17372900 -0.86832200 0.27016300
v 0.19298000 -0.86832200 0.28946400
v 0.09652730 -0.88762700 0.34732300
v -0.12347400 -0.88182200 0.35988400
v 0.25547900 -0.80940400 0.19712000
v 0.25561100 -0.83937300 0.24122300
v 0.25323800 -0.84419500 0.25086300
v 0.19541900 -0.86350000 0.27016300
v -0.12347400 -0.85416000 0.40264400
v 0.15441200 -0.84901700 0.40520300
v 0.50738900 -0.69446200 0.41354200
v 0.23154700 -0.82973000 0.40520300
v 0.34731600 -0.79113900 0.40520300
v 0.36656700 -0.79354000 0.40038300
v 0.40520100 -0.77427300 0.40038300
v 0.44376900 -0.75496800 0.40038300
v 0.55004400 -0.69446200 0.36662300
v 0.54859400 -0.69446200 0.37229600
v 0.54061700 -0.69446200 0.38592400
v 0.53059600 -0.69949100 0.39556300
v 0.53059600 -0.70915300 0.37626300
v 0.48240200 -0.74050300 0.38592400
v 0.48879700 -0.73969000 0.36662300
v 0.47594200 -0.74613800 0.36662300
v 0.43737400 -0.76542400 0.38592400
v 0.33446100 -0.81687300 0.27016300
v 0.34969000 -0.80560400 0.25086300
v 0.30868300 -0.82973000 0.27016300
v 0.31514400 -0.82330200 0.25730300
v -0.09644330 -0.87475100 0.39234300
v 0.07721050 -0.88762700 0.36662300
v -0.12347400 -0.87121500 0.38447400
v -0.12347400 -0.87894800 0.37095300
v 0.25079800 -0.84901700 0.27016300
v 0.19298000 -0.86832200 0.36662300
v -0.12347400 -0.86189300 0.39878400
v 0.15441200 -0.86189300 0.39878400
v 0.50165300 -0.70109800 0.41164400
v 0.50165300 -0.71637600 0.40038300
v 0.52110200 -0.69446200 0.40535200
v 0.23154700 -0.84258800 0.39878400
v 0.28943200 -0.82330200 0.39878400
v 0.34731600 -0.80399600 0.39878400
v 0.35694200 -0.80560400 0.39556300
v 0.39551000 -0.78633600 0.39556300
v 0.43414300 -0.76703100 0.39556300
v 0.49202800 -0.72843900 0.39556300
v 0.47271100 -0.74774500 0.37626300
v 0.45023000 -0.75899500 0.38592400
v 0.31837400 -0.82490900 0.37626300
v 0.33446100 -0.81687300 0.36662300
v 0.30868300 -0.82973000 0.36662300
v 0.07721050 -0.87475100 0.39234300
v 0.20267100 -0.86350000 0.37626300
v 0.15441200 -0.86832200 0.38592400
v 0.16403700 -0.86350000 0.39556300
v 0.08683590 -0.88278700 0.37626300
v 0.24117300 -0.84419500 0.39556300
v 0.29905700 -0.82490900 0.39556300
v 0.21229600 -0.85625800 0.38592400
f 60 92 93
f 54 88 87
f 54 86 88
f 57 87 89
f 57 89 66
f 57 66 65
f 57 65 58
f 59 90 60
f 59 91 113
f 59 113 90
f 60 90 92
f 60 93 64
f 70 97 72
f 62 68 67
f 62 67 94
f 62 94 88
f 62 88 112
f 62 112 95
f 63 95 91
f 66 89 67
f 67 89 88
f 67 88 94
f 69 96 97
f 54 87 57
f 69 97 70
f 61 68 62
f 53 86 54
f 41 68 61
f 53 85 111
f 71 76 98
f 41 46 68
f 41 61 42
f 42 61 62
f 42 62 95
f 42 95 63
f 43 60 64
f 44 65 66
f 44 66 45
f 45 66 67
f 46 67 68
f 47 69 70
f 53 111 86
f 48 70 72
f 48 73 74
f 48 74 75
f 48 75 76
f 48 76 71
f 50 77 78
f 50 78 79
f 50 79 80
f 50 80 81
f 50 81 82
f 50 82 83
f 51 83 84
f 51 84 52
f 48 72 73
f 71 98 99
f 114 120 116
f 72 101 102
f 90 113 97
f 90 97 96
f 91 95 114
f 91 114 115
f 91 115 116
f 91 116 117
f 91 117 113
f 95 112 110
f 95 110 114
f 97 113 116
f 97 116 118
f 97 118 101
f 90 96 92
f 101 118 119
f 102 119 104
f 102 104 103
f 104 119 114
f 104 114 110
f 104 110 105
f 105 110 106
f 106 109 108
f 113 117 116
f 114 119 118
f 114 118 120
f 114 116 115
f 40 60 43
f 101 119 102
f 71 99 100
f 88 110 112
f 86 110 88
f 72 102 73
f 72 97 101
f 73 103 74
f 73 102 103
f 74 103 104
f 74 104 75
f 75 104 105
f 116 120 118
f 75 106 76
f 76 106 107
f 76 107 99
f 76 99 98
f 87 88 89
f 79 100 80
f 80 99 107
f 80 107 82
f 80 82 81
f 82 108 83
f 82 107 106
f 82 106 108
f 83 108 84
f 84 108 109
f 85 109 106
f 85 106 110
f 85 110 111
f 86 111 110
f 80 100 99
f 40 59 60
f 75 105 106
f 37 57 58
f 1 5 2
f 2 5 11
f 2 11 19
f 2 19 30
f 2 30 48
f 2 48 71
f 2 71 100
f 2 100 79
f 2 79 78
f 2 78 77
f 2 77 49
f 2 49 31
f 1 10 5
f 2 31 20
f 2 12 6
f 3 7 8
f 3 8 4
f 4 8 9
f 5 10 11
f 6 12 13
f 7 14 8
f 8 15 16
f 8 16 9
f 8 14 23
f 8 23 17
f 8 17 25
f 2 20 12
f 8 25 15
f 1 18 10
f 1 47 29
f 1 2 6
f 1 6 13
f 1 13 21
f 1 21 34
f 1 34 38
f 1 38 56
f 1 56 55
f 1 55 58
f 1 58 65
f 1 65 44
f 1 44 39
f 1 39 23
f 1 29 18
f 1 23 14
f 1 7 3
f 1 3 4
f 1 4 9
f 1 9 16
f 1 16 26
f 1 26 43
f 1 43 64
f 1 64 93
f 1 93 92
f 1 92 96
f 1 96 69
f 1 69 47
f 1 14 7
f 10 18 19
f 37 58 55
f 12 20 13
f 27 39 44
f 27 44 45
f 27 45 67
f 27 67 46
f 29 47 30
f 30 47 70
f 30 70 48
f 31 49 32
f 32 49 77
f 32 77 50
f 32 50 83
f 32 83 51
f 25 41 42
f 32 51 35
f 35 51 52
f 35 52 84
f 35 84 109
f 35 109 85
f 35 85 53
f 35 53 54
f 35 54 36
f 36 54 37
f 37 55 56
f 37 56 38
f 37 54 57
f 10 19 11
f 32 35 33
f 25 27 41
f 27 46 41
f 24 43 26
f 13 20 22
f 13 22 21
f 15 24 16
f 15 25 42
f 15 42 63
f 15 63 91
f 15 91 59
f 25 28 27
f 15 40 24
f 16 24 26
f 17 23 27
f 17 27 28
f 17 28 25
f 15 59 40
f 18 30 19
f 18 29 30
f 23 39 27
f 22 38 34
f 22 37 38
f 22 36 37
f 24 40 43
f 22 33 35
f 21 22 34
f 20 33 22
f 20 32 33
f 20 31 32
f 22 35 36

