# https://github.com/mikedh/trimesh
v -0.46297000 -0.54918900 0.33090000
v -0.71553400 -0.54918900 0.33090000
v -0.47288000 -0.54918900 0.33752700
v -0.12347400 -0.80077800 0.39556700
v -0.12347400 -0.78574400 0.37202500
v -0.12347400 -0.77414900 0.34501300
v -0.12347400 -0.77241300 0.33090000
v -0.70104600 -0.56602500 0.33090000
v -0.71553400 -0.54918900 0.34576300
v -0.60797100 -0.54918900 0.39541400
v -0.13512200 -0.81044100 0.40522100
v -0.12347400 -0.81273400 0.40290000
v -0.63677400 -0.54918900 0.40522100
v -0.12347400 -0.88377900 0.33090000
v -0.70104600 -0.56602500 0.34090300
v -0.68174700 -0.58535000 0.33090000
v -0.70504400 -0.54918900 0.37105800
v -0.68174700 -0.58535000 0.36020300
v -0.68818000 -0.57247800 0.37305800
v -0.12347400 -0.82973300 0.40522100
v -0.66488200 -0.54918900 0.40078300
v -0.63677400 -0.55960500 0.40522100
v -0.12347400 -0.88377900 0.35118200
v -0.23155800 -0.86831900 0.33090000
v -0.64320700 -0.62393500 0.33090000
v -0.70429100 -0.54997500 0.37145100
v -0.70348000 -0.54918900 0.37262900
v -0.64320700 -0.62393500 0.36020300
v -0.68499200 -0.56926800 0.38109700
v -0.63034100 -0.63035500 0.37305800
v -0.12347400 -0.84902600 0.40522100
v -0.66650500 -0.54918900 0.40019400
v -0.66569300 -0.54997500 0.40039000
v -0.55957900 -0.63680800 0.40522100
v -0.12347400 -0.88181400 0.35990500
v -0.21226000 -0.86831900 0.36663400
v -0.23155800 -0.86831900 0.34733400
v -0.28945500 -0.84902600 0.33090000
v -0.56601200 -0.70110600 0.33090000
v -0.68499200 -0.54997500 0.39074400
v -0.68574600 -0.54918900 0.39035100
v -0.58531100 -0.68181300 0.36020300
v -0.63677400 -0.59819000 0.39315900
v -0.67531400 -0.55960500 0.39315900
v -0.56920000 -0.68502300 0.38109700
v -0.59817700 -0.63680800 0.39315900
v -0.57244500 -0.68823300 0.37305800
v -0.12347400 -0.86189900 0.39878300
v -0.15442100 -0.84902600 0.40522100
v -0.68418100 -0.54918900 0.39133300
v -0.51130300 -0.70431500 0.40039000
v -0.50168300 -0.69468600 0.40522100
v -0.12347400 -0.87893100 0.37096300
v -0.21226000 -0.86189900 0.37948900
v -0.23155800 -0.86350400 0.36903500
v -0.15442100 -0.86831900 0.38592000
v -0.15442100 -0.86189900 0.39878300
v -0.28945500 -0.84902600 0.34733400
v -0.38594800 -0.81044100 0.33090000
v -0.56601200 -0.70110600 0.34090300
v -0.50811600 -0.73965800 0.33090000
v -0.55314600 -0.70755800 0.35376500
v -0.55957900 -0.67539300 0.39315900
v -0.49200500 -0.74290100 0.38109700
v -0.53060200 -0.70431500 0.39074400
v -0.49525000 -0.74611100 0.37305800
v -0.12347400 -0.87120100 0.38447300
v -0.16404200 -0.85865600 0.40039000
v -0.23155800 -0.82973300 0.40522100
v -0.24123700 -0.83936300 0.40039000
v -0.48238400 -0.73323800 0.39315900
v -0.45340700 -0.74290100 0.40039000
v -0.44378700 -0.73323800 0.40522100
v -0.21226000 -0.85544600 0.39235200
v -0.32805200 -0.81686100 0.39235200
v -0.28945500 -0.84417800 0.36903500
v -0.32805200 -0.82973300 0.36663400
v -0.38594800 -0.81044100 0.34733400
v -0.40240700 -0.80221900 0.33090000
v -0.50811600 -0.73965800 0.36020300
v -0.44094700 -0.78292700 0.33090000
v -0.44378700 -0.75898300 0.39235200
v -0.39562700 -0.80077800 0.37145100
v -0.43735400 -0.78469600 0.33447200
v -0.39881400 -0.80398800 0.35376500
v -0.28945500 -0.81044100 0.40522100
v -0.29913300 -0.82007100 0.40039000
v -0.41492500 -0.76219300 0.40039000
v -0.40524700 -0.75253000 0.40522100
v -0.40524700 -0.77827600 0.39235200
v -0.33773000 -0.82007100 0.38109700
v -0.29913300 -0.83936300 0.37145100
v -0.34091800 -0.82328100 0.37305800
v -0.41168000 -0.79756800 0.34090300
v -0.38594800 -0.80559300 0.36903500
f 51 65 71
f 45 65 63
f 45 64 65
f 47 62 66
f 48 57 67
f 49 68 57
f 49 69 70
f 49 70 68
f 51 71 72
f 55 75 76
f 51 63 65
f 52 72 73
f 53 67 57
f 53 57 56
f 54 74 55
f 54 57 74
f 55 74 75
f 45 66 64
f 55 76 58
f 51 72 52
f 45 47 66
f 32 44 33
f 42 60 62
f 32 40 44
f 57 68 74
f 33 44 43
f 33 43 46
f 33 46 63
f 33 63 51
f 33 51 52
f 33 52 34
f 35 53 36
f 42 62 47
f 36 54 55
f 36 53 56
f 36 56 57
f 36 57 54
f 37 55 58
f 38 58 78
f 38 78 59
f 39 61 80
f 39 80 60
f 40 50 41
f 36 55 37
f 58 76 77
f 86 89 88
f 59 78 79
f 75 91 92
f 75 92 76
f 76 92 93
f 76 93 77
f 77 93 85
f 77 85 78
f 78 85 94
f 78 94 79
f 79 94 81
f 75 83 91
f 81 94 85
f 82 83 90
f 82 90 88
f 83 85 95
f 83 95 93
f 83 93 91
f 91 93 92
f 85 93 95
f 86 88 87
f 32 50 40
f 81 85 84
f 58 77 78
f 75 90 83
f 75 87 88
f 60 80 62
f 61 81 80
f 62 80 66
f 64 82 72
f 64 72 71
f 64 71 65
f 64 66 83
f 64 83 82
f 66 80 81
f 75 88 90
f 66 81 84
f 66 85 83
f 68 70 74
f 69 86 87
f 69 87 70
f 70 87 75
f 70 75 74
f 72 82 88
f 72 88 73
f 73 88 89
f 66 84 85
f 31 57 48
f 1 27 41
f 29 46 43
f 1 8 2
f 2 8 15
f 2 15 9
f 3 10 4
f 4 11 12
f 4 12 20
f 4 20 31
f 4 31 48
f 4 48 67
f 4 67 53
f 4 53 35
f 4 35 23
f 4 23 14
f 4 14 7
f 4 7 6
f 4 6 5
f 4 10 13
f 4 13 11
f 8 16 18
f 1 16 8
f 1 25 16
f 1 39 25
f 1 61 39
f 31 49 57
f 1 2 9
f 1 9 17
f 1 17 27
f 1 41 50
f 1 50 32
f 1 32 21
f 1 21 13
f 1 13 10
f 8 18 15
f 1 3 4
f 1 5 6
f 1 6 7
f 1 7 14
f 1 14 24
f 1 24 38
f 1 38 59
f 1 59 79
f 1 79 81
f 1 81 61
f 1 4 5
f 9 15 18
f 1 10 3
f 9 19 17
f 22 33 34
f 23 35 36
f 23 36 37
f 24 37 58
f 24 58 38
f 25 39 60
f 25 60 42
f 25 42 28
f 26 29 40
f 26 40 27
f 27 40 41
f 28 42 47
f 28 47 30
f 29 44 40
f 29 30 47
f 29 47 45
f 29 45 63
f 9 18 19
f 29 63 46
f 21 33 22
f 21 32 33
f 29 43 44
f 19 28 30
f 11 13 22
f 19 30 29
f 11 20 12
f 11 22 34
f 11 34 52
f 11 73 89
f 11 89 86
f 11 86 69
f 11 69 49
f 11 49 31
f 11 52 73
f 17 26 27
f 13 21 22
f 14 23 37
f 14 37 24
f 19 29 26
f 16 25 28
f 16 28 18
f 17 19 26
f 11 31 20
f 18 28 19

