# https://github.com/mikedh/trimesh
v -0.44377100 -0.29734200 0.36661600
v -0.63678700 -0.54028200 0.40520100
v -0.44377100 -0.32805400 0.36661600
v -0.44377100 -0.29734200 0.19709800
v -0.79114500 -0.29734200 0.40520100
v -0.77181600 -0.30875400 0.40520100
v -0.63678700 -0.54915600 0.40520100
v -0.44377100 -0.54910700 0.32803100
v -0.60799000 -0.54915600 0.39540200
v -0.44377100 -0.54915600 0.19709800
v -0.79766600 -0.29734200 0.19709800
v -0.81833100 -0.29734200 0.40126900
v -0.79114500 -0.32805400 0.40520100
v -0.65603800 -0.54028200 0.40520100
v -0.66491600 -0.54915600 0.40078000
v -0.44385000 -0.54915600 0.32803100
v -0.44377100 -0.54915600 0.30963500
v -0.66334500 -0.54915600 0.19709800
v -0.78882700 -0.32576200 0.19709800
v -0.79754800 -0.33448800 0.20583800
v -0.81683800 -0.33448800 0.22513100
v -0.83935000 -0.29909200 0.24120400
v -0.83935000 -0.29734200 0.24120400
v -0.82064900 -0.29734200 0.40008700
v -0.82006000 -0.29909200 0.40039300
v -0.76219000 -0.41489300 0.40039300
v -0.73323600 -0.44380600 0.40520100
v -0.67536700 -0.52098200 0.40520100
v -0.68499200 -0.53064500 0.40039300
v -0.66648800 -0.54915600 0.40018900
v -0.66491600 -0.54915600 0.19868700
v -0.66460200 -0.54883600 0.19709800
v -0.77873000 -0.35423200 0.19709800
v -0.75944000 -0.39283200 0.19709800
v -0.75896900 -0.41166400 0.20583800
v -0.77825900 -0.41166400 0.22513100
v -0.80077000 -0.39559300 0.24120400
v -0.82972400 -0.32805400 0.25086100
v -0.82972400 -0.34735500 0.28944600
v -0.84025300 -0.29734200 0.24295600
v -0.83353500 -0.29734200 0.38971800
v -0.81683800 -0.32805400 0.39234600
v -0.75896900 -0.44380600 0.39234600
v -0.74290100 -0.45344400 0.40039300
v -0.77825900 -0.40523000 0.39234600
v -0.69465600 -0.50168200 0.40520100
v -0.70428200 -0.51134500 0.40039300
v -0.70428200 -0.53064500 0.39073600
v -0.67536700 -0.54915600 0.39576800
v -0.70428200 -0.54915600 0.24120400
v -0.68224200 -0.52788400 0.19709800
v -0.72357200 -0.51134500 0.22191200
v -0.72082100 -0.46998300 0.19709800
v -0.73967900 -0.45024000 0.20583800
v -0.75896900 -0.45024000 0.22513100
v -0.78148000 -0.43414400 0.24120400
v -0.77825900 -0.45024000 0.26371600
v -0.79754800 -0.41166400 0.26371600
v -0.81043500 -0.38593000 0.27015300
v -0.82972400 -0.34735500 0.32803100
v -0.84508500 -0.29734200 0.27410500
v -0.76541200 -0.47597300 0.29588300
v -0.83880000 -0.29734200 0.38313800
v -0.80077000 -0.39559300 0.37144400
v -0.74290100 -0.49204400 0.38110000
v -0.78148000 -0.43414400 0.37144400
v -0.68577800 -0.54915600 0.39034900
v -0.68420600 -0.54915600 0.39132700
v -0.72357200 -0.53064500 0.37144400
v -0.70467500 -0.54915600 0.24199900
v -0.72038900 -0.52741600 0.24442300
v -0.74290100 -0.49204400 0.24120400
v -0.75896900 -0.46954000 0.24442300
v -0.79114500 -0.42450600 0.27015300
v -0.73967900 -0.50811600 0.26371600
v -0.75896900 -0.48881500 0.28302800
v -0.81043500 -0.38593000 0.34732300
v -0.84508500 -0.29734200 0.37056800
v -0.76541200 -0.47597300 0.33444800
v -0.84257100 -0.30232100 0.37305300
v -0.83935000 -0.29909200 0.38110000
v -0.80399200 -0.39879700 0.35376100
v -0.78470200 -0.43737300 0.35376100
v -0.74608300 -0.49524900 0.37305300
v -0.70506700 -0.54915600 0.37105700
v -0.72679300 -0.53384900 0.35376100
v -0.72038900 -0.54671600 0.34088600
v -0.70950700 -0.54915600 0.27459400
v -0.72038900 -0.54671600 0.32159300
v -0.75896900 -0.48881500 0.32159300
v -0.79114500 -0.42450600 0.34732300
v -0.71551800 -0.54915600 0.34575500
v -0.71551800 -0.54915600 0.31916900
f 48 65 69
f 43 66 65
f 44 65 47
f 44 47 46
f 47 65 48
f 48 67 68
f 48 68 49
f 43 64 66
f 48 69 85
f 52 71 72
f 50 70 52
f 51 52 53
f 52 70 71
f 43 45 64
f 52 72 56
f 52 56 55
f 52 55 53
f 53 55 54
f 56 72 73
f 48 85 67
f 43 65 44
f 39 59 62
f 42 63 64
f 56 73 57
f 34 53 54
f 34 54 35
f 35 54 55
f 32 52 51
f 35 55 36
f 36 55 37
f 37 55 56
f 37 56 57
f 37 57 58
f 37 58 59
f 37 59 38
f 38 59 39
f 39 60 78
f 39 78 61
f 39 61 40
f 39 62 79
f 39 79 60
f 41 63 42
f 42 64 45
f 57 74 59
f 85 87 92
f 57 73 72
f 70 76 75
f 70 75 71
f 71 75 72
f 76 89 87
f 76 87 90
f 77 91 83
f 77 83 82
f 77 82 78
f 77 79 91
f 78 82 80
f 79 90 87
f 79 87 86
f 79 86 83
f 79 83 91
f 83 86 84
f 87 89 93
f 87 93 92
f 88 93 89
f 32 50 52
f 70 89 76
f 70 88 89
f 69 87 85
f 69 86 87
f 57 72 75
f 57 75 76
f 57 76 62
f 57 62 74
f 59 74 62
f 60 77 78
f 60 79 77
f 62 76 90
f 62 90 79
f 57 59 58
f 63 78 80
f 63 81 64
f 64 82 83
f 64 83 66
f 64 81 80
f 64 80 82
f 65 66 84
f 65 84 69
f 66 83 84
f 69 84 86
f 63 80 81
f 31 50 32
f 15 29 30
f 29 48 49
f 2 28 14
f 2 14 7
f 3 7 9
f 3 9 8
f 4 10 18
f 4 18 32
f 4 32 51
f 4 51 53
f 4 53 34
f 4 34 33
f 4 33 19
f 4 19 11
f 5 12 13
f 7 14 15
f 7 15 30
f 7 30 49
f 7 49 68
f 7 68 67
f 7 67 85
f 2 27 46
f 7 85 92
f 2 13 27
f 2 6 5
f 29 49 30
f 1 2 7
f 1 7 3
f 1 3 8
f 1 8 17
f 1 17 10
f 1 10 4
f 1 4 11
f 1 11 23
f 1 23 40
f 1 40 61
f 1 61 78
f 1 78 63
f 1 63 41
f 1 41 24
f 1 24 12
f 1 12 5
f 1 5 6
f 1 6 2
f 2 5 13
f 7 92 93
f 2 46 28
f 7 88 70
f 20 34 35
f 20 35 36
f 20 36 21
f 21 36 37
f 21 37 22
f 22 38 39
f 22 39 40
f 22 37 38
f 24 41 25
f 20 33 34
f 25 41 42
f 26 43 44
f 26 44 27
f 26 42 45
f 26 45 43
f 27 44 46
f 28 46 47
f 28 47 29
f 7 93 88
f 29 47 48
f 25 42 26
f 19 33 20
f 22 40 23
f 7 50 31
f 7 70 50
f 18 31 32
f 7 31 18
f 7 18 10
f 7 10 17
f 7 17 16
f 7 16 9
f 8 9 16
f 11 19 20
f 11 20 21
f 8 16 17
f 11 22 23
f 11 21 22
f 14 28 15
f 13 26 27
f 12 26 13
f 15 28 29
f 12 24 25
f 12 25 26

