# https://github.com/mikedh/trimesh
v -0.85110300 -0.01938970 0.19703800
v -0.84903000 -0.01922310 0.15432300
v -0.84895900 -0.01938970 0.15438400
v -0.12114000 -0.01938970 0.19703800
v -0.85110300 0.05584810 0.19703800
v -0.82973600 0.00002381 0.03859130
v -0.82973600 -0.01922310 0.03859130
v -0.82966500 -0.01938970 0.03859130
v -0.85003100 0.07667810 0.19703800
v -0.82973600 0.07726130 0.05787990
v -0.12114000 -0.01938970 -0.25718700
v -0.12114000 0.83180600 0.19703800
v -0.79107600 0.00002381 -0.17364400
v -0.81044200 0.07726130 -0.05791250
v -0.79107600 -0.01938970 -0.17364400
v -0.83073600 0.17316300 0.19703800
v -0.82973600 0.17374600 0.17361100
v -0.82973600 0.09650820 0.07716850
v -0.81044200 0.17374600 0.03859130
v -0.13507500 -0.01938970 -0.32801300
v -0.12114000 -0.01930640 -0.32801300
v -0.12114000 0.82705700 0.11045200
v -0.12892900 0.83180600 0.19703800
v -0.77178200 0.07726130 -0.27008700
v -0.77178200 0.17374600 -0.17364400
v -0.77178200 -0.01938970 -0.27008700
v -0.82973600 0.17782800 0.19703800
v -0.81044200 0.19299300 0.07716850
v -0.82487700 0.19957500 0.19703800
v -0.79107600 0.28947700 0.15432300
v -0.79107600 0.27023000 0.11574600
v -0.77178200 0.27023000 -0.00004672
v -0.73319400 0.27023000 -0.23151000
v -0.79107600 0.19299300 -0.03862390
v -0.75248800 0.19299300 -0.25079800
v -0.21232300 -0.01938970 -0.34730200
v -0.12114000 0.61742400 -0.40516800
v -0.12114000 0.80772700 -0.02462900
v -0.19302800 0.79106300 -0.05791250
v -0.21232300 0.81039300 0.11574600
v -0.13507500 0.82972300 0.17361100
v -0.13507500 0.83122300 0.19703800
v -0.75248800 0.17374600 -0.27008700
v -0.76535100 0.08367700 -0.28298700
v -0.76213500 -0.01938970 -0.28949700
v -0.79107600 0.29364300 0.19703800
v -0.74770000 0.39254400 0.19703800
v -0.73319400 0.40529200 0.13503400
v -0.73319400 0.36663100 0.01924190
v -0.75248800 0.28947700 -0.07720110
v -0.69460500 0.36663100 -0.21222100
v -0.68981800 0.36904800 -0.23151000
v -0.72840600 0.27256300 -0.25079800
v -0.74770000 0.19540900 -0.27008700
v -0.63672300 -0.01938970 -0.42451700
v -0.38597000 0.54027000 -0.42451700
v -0.12114000 0.67533200 -0.40516800
v -0.12114000 0.78848000 -0.14036100
v -0.17373400 0.77181600 -0.19293300
v -0.19302800 0.77181600 -0.17364400
v -0.20267600 0.78631400 -0.06758720
v -0.21232300 0.79106300 -0.01933530
v -0.22197000 0.80556100 0.10607100
v -0.30879400 0.77181600 0.09645700
v -0.29914600 0.78631400 0.18328600
v -0.28949900 0.79106300 0.19296100
v -0.23161700 0.81039300 0.19296100
v -0.22747200 0.81197600 0.19703800
v -0.22197000 0.78631400 -0.02894920
v -0.74605700 0.18016100 -0.28298700
v -0.74605700 0.14158400 -0.30227500
v -0.75248800 0.09650820 -0.30872500
v -0.75263100 -0.01938970 -0.30854200
v -0.74012500 0.40595800 0.19703800
v -0.72033100 0.43087100 0.13503400
v -0.68174300 0.41162400 -0.15435500
v -0.68174300 0.39237700 -0.21222100
v -0.68817400 0.37954600 -0.21222100
v -0.72676200 0.37954600 0.01924190
v -0.67052300 0.38837800 -0.27008700
v -0.67052300 0.36904800 -0.30872500
v -0.70911200 0.29189300 -0.28943600
v -0.72840600 0.25331600 -0.27008700
v -0.72840600 0.21473900 -0.30872500
v -0.65601700 -0.01938970 -0.42451700
v -0.46314700 0.48236300 -0.42451700
v -0.40526400 0.54268600 -0.41964900
v -0.36667600 0.56193300 -0.41964900
v -0.21232300 0.65600100 -0.40516800
v -0.13507500 0.67533200 -0.40516800
v -0.12114000 0.68466300 -0.40054300
v -0.12114000 0.76915000 -0.25609200
v -0.17373400 0.75248600 -0.28943600
v -0.21232300 0.75248600 -0.25079800
v -0.27020500 0.73323900 -0.25079800
v -0.28949900 0.73323900 -0.21222100
v -0.31844100 0.76698300 0.08678230
v -0.32808800 0.77339900 0.19703800
v -0.33773500 0.76698300 0.16399800
v -0.28949900 0.79106300 0.19703800
v -0.28535500 0.79264600 0.19703800
v -0.29914600 0.72840600 -0.22189600
v -0.31844100 0.74765300 -0.04829860
v -0.73319400 0.19299300 -0.30872500
v -0.73319400 0.15441600 -0.32801300
v -0.74605700 0.10292400 -0.32156400
v -0.73962500 0.09009260 -0.33446300
v -0.73319400 -0.01938970 -0.34742400
v -0.68138500 0.49102800 0.19703800
v -0.68174300 0.48877800 0.17361100
v -0.66244800 0.50810900 0.11574600
v -0.64315400 0.50810900 -0.00004672
v -0.62386000 0.48877800 -0.19293300
v -0.66244800 0.41162400 -0.25079800
v -0.66244800 0.39237700 -0.28943600
v -0.66566400 0.37146400 -0.31833900
v -0.70911200 0.27256300 -0.30872500
v -0.72354700 0.21715500 -0.31833900
v -0.72676200 0.19940800 -0.32156400
v -0.65616000 -0.01938970 -0.42445600
v -0.65601700 0.13508500 -0.42451700
v -0.50166400 0.44378600 -0.42451700
v -0.48244100 0.48477900 -0.41964900
v -0.41491100 0.54510300 -0.41484300
v -0.32808800 0.61984100 -0.40036100
v -0.30879400 0.61742400 -0.40516800
v -0.23161700 0.65841800 -0.40036100
v -0.21232300 0.66891600 -0.39877900
v -0.13507500 0.68816300 -0.39877900
v -0.12114000 0.68816300 -0.39877900
v -0.12114000 0.75581900 -0.30872500
v -0.18338100 0.74765300 -0.29905000
v -0.22197000 0.74765300 -0.26047300
v -0.27985200 0.72840600 -0.26047300
v -0.41491100 0.72840600 0.14470900
v -0.41534000 0.72973900 0.19703800
v -0.31844100 0.72840600 -0.16396900
v -0.31844100 0.70907600 -0.27976200
v -0.37632300 0.68982900 -0.22189600
v -0.41491100 0.70907600 0.00962800
v -0.72676200 0.16083100 -0.34085200
v -0.72033100 0.14800000 -0.35375200
v -0.72033100 0.03218530 -0.37304000
v -0.72354700 -0.01938970 -0.36671200
v -0.66845100 0.50927500 0.19703800
v -0.60456600 0.58526300 0.17361100
v -0.58527200 0.58526300 0.03859130
v -0.60456600 0.48877800 -0.27008700
v -0.62386000 0.46953100 -0.25079800
v -0.54668300 0.56601600 -0.23151000
v -0.54989900 0.55468400 -0.26047300
v -0.60456600 0.46953100 -0.30872500
v -0.60778200 0.45828300 -0.31833900
v -0.62707600 0.41004100 -0.33762700
v -0.60778200 0.39079400 -0.37626500
v -0.64637000 0.31364000 -0.37626500
v -0.66566400 0.27497900 -0.37626500
v -0.68495800 0.29431000 -0.33762700
v -0.70425300 0.27497900 -0.31833900
v -0.70425300 0.19782500 -0.35697700
v -0.72354700 0.17849500 -0.33762700
v -0.68495800 0.25573300 -0.35697700
v -0.67545400 -0.01938970 -0.41478200
v -0.66888000 0.14158400 -0.41806700
v -0.63672300 0.19299300 -0.42451700
v -0.50166400 0.46544900 -0.41964900
v -0.55954600 0.36663100 -0.42451700
v -0.55954600 0.38837800 -0.41964900
v -0.51131100 0.46786500 -0.41484300
v -0.49201700 0.48719500 -0.41484300
v -0.45350000 0.54510300 -0.39555400
v -0.33773500 0.62225700 -0.39555400
v -0.31844100 0.63192200 -0.39555400
v -0.30879400 0.63033900 -0.39877900
v -0.22197000 0.67049900 -0.39555400
v -0.14479300 0.68982900 -0.39555400
v -0.12114000 0.69807800 -0.38940800
v -0.12114000 0.75315200 -0.31401900
v -0.19302800 0.74048800 -0.30872500
v -0.22197000 0.72840600 -0.31833900
v -0.43099000 0.70107700 0.01924190
v -0.43099000 0.72032400 0.15432300
v -0.45900200 0.70499300 0.19703800
v -0.39561700 0.68982900 -0.16396900
v -0.27985200 0.70907600 -0.31833900
v -0.32808800 0.70182700 -0.28943600
v -0.38597000 0.68258000 -0.23151000
v -0.40526400 0.68258000 -0.17364400
v -0.42455900 0.70182700 -0.00004672
v -0.68817400 0.19940800 -0.37949000
v -0.68174300 0.18657700 -0.39232900
v -0.68174300 0.10942300 -0.41161800
v -0.70103700 0.09009260 -0.39232900
v -0.66888000 0.21873900 -0.39877900
v -0.72033100 -0.01938970 -0.37304000
v -0.60320800 0.58801200 0.19703800
v -0.58527200 0.60459300 0.17361100
v -0.52738900 0.66250000 0.19296100
v -0.52738900 0.64317000 0.07716850
v -0.50809500 0.64317000 -0.01933530
v -0.54668300 0.54668600 -0.28943600
v -0.48880100 0.62384000 -0.19293300
v -0.48244100 0.62467300 -0.21222100
v -0.54025200 0.56676600 -0.25079800
v -0.52738900 0.56601600 -0.28943600
v -0.54989900 0.52577200 -0.31833900
v -0.58848700 0.46786500 -0.33762700
v -0.56919300 0.39079400 -0.41484300
v -0.56919300 0.44861800 -0.37626500
v -0.60778200 0.31364000 -0.41484300
v -0.66566400 0.23640200 -0.39555400
v -0.68495800 0.21715500 -0.37626500
v -0.68174300 -0.01938970 -0.41161800
v -0.64958600 0.19940800 -0.41806700
v -0.59813500 0.28947700 -0.42451700
v -0.57240900 0.37313000 -0.41806700
v -0.54989900 0.44861800 -0.39555400
v -0.47279400 0.54510300 -0.37626500
v -0.45350000 0.58368000 -0.35697700
v -0.45350000 0.60292700 -0.33762700
v -0.39561700 0.65116900 -0.31833900
v -0.35702900 0.64158700 -0.35697700
v -0.30879400 0.64400300 -0.38587900
v -0.25091100 0.66250000 -0.39232900
v -0.21232300 0.68258000 -0.38587900
v -0.19302800 0.68174700 -0.39232900
v -0.17373400 0.70107700 -0.37304000
v -0.17373400 0.72115700 -0.34730200
v -0.15444000 0.72032400 -0.35375200
v -0.12114000 0.73990400 -0.33269900
v -0.21232300 0.72032400 -0.33446300
v -0.27020500 0.70107700 -0.33446300
v -0.46450500 0.70166100 0.19703800
v -0.31844100 0.68982900 -0.31833900
v -0.30879400 0.70182700 -0.30872500
v -0.34738200 0.68258000 -0.30872500
v -0.38597000 0.66325000 -0.30872500
v -0.40526400 0.66325000 -0.27008700
v -0.42455900 0.66325000 -0.21222100
v -0.61099700 0.29589300 -0.41806700
v -0.52738900 0.66250000 0.19703800
v -0.46314700 0.62467300 -0.27008700
v -0.48880100 0.60459300 -0.27008700
v -0.51131100 0.56434900 -0.31833900
v -0.53060500 0.54510300 -0.31833900
v -0.46957800 0.60459300 -0.30872500
v -0.54989900 0.50652500 -0.33762700
v -0.53060500 0.50652500 -0.35697700
v -0.47279400 0.58368000 -0.33762700
v -0.45350000 0.61259200 -0.31833900
v -0.44385300 0.62467300 -0.30872500
v -0.42455900 0.64400300 -0.28943600
f 138 185 235
f 138 186 139
f 139 186 187
f 139 187 188
f 138 235 186
f 141 160 190
f 140 184 188
f 140 188 189
f 140 189 181
f 141 161 160
f 137 184 140
f 139 188 184
f 136 182 183
f 155 208 210
f 135 181 182
f 135 140 181
f 134 185 138
f 134 180 185
f 132 178 179
f 132 134 133
f 132 180 134
f 132 179 180
f 131 178 132
f 129 177 130
f 129 176 177
f 141 190 142
f 128 176 129
f 135 182 136
f 142 191 192
f 154 207 209
f 142 190 194
f 128 226 176
f 154 209 155
f 153 207 154
f 152 207 153
f 152 206 207
f 152 201 206
f 151 205 201
f 151 204 205
f 150 204 151
f 150 203 204
f 150 202 203
f 150 200 202
f 148 201 152
f 148 151 201
f 148 152 149
f 147 200 150
f 147 199 200
f 147 198 199
f 147 197 198
f 146 197 147
f 146 196 197
f 145 196 146
f 143 213 195
f 143 192 213
f 143 193 192
f 143 195 144
f 142 194 191
f 142 192 193
f 128 175 226
f 98 135 136
f 128 174 173
f 113 147 150
f 113 149 114
f 113 148 149
f 112 147 113
f 111 147 112
f 111 146 147
f 111 145 146
f 110 145 111
f 109 145 110
f 107 144 108
f 107 143 144
f 107 193 143
f 107 142 193
f 106 142 107
f 106 141 142
f 104 141 105
f 104 119 141
f 103 137 140
f 102 184 137
f 102 139 184
f 102 138 139
f 102 134 138
f 102 137 103
f 98 99 135
f 97 135 99
f 97 140 135
f 155 210 156
f 113 150 151
f 113 151 148
f 114 149 115
f 115 149 152
f 125 128 127
f 125 174 128
f 125 173 174
f 125 172 173
f 124 170 171
f 124 171 172
f 123 170 124
f 123 169 170
f 123 166 169
f 122 168 166
f 122 167 168
f 122 166 123
f 121 164 165
f 128 173 175
f 120 164 121
f 118 162 160
f 118 159 162
f 118 141 119
f 118 161 141
f 118 160 161
f 116 158 159
f 116 157 158
f 116 156 157
f 116 155 156
f 116 154 155
f 116 153 154
f 116 152 153
f 115 152 116
f 120 163 164
f 155 209 217
f 238 252 242
f 156 210 211
f 206 247 207
f 206 245 247
f 205 220 244
f 205 246 220
f 205 243 246
f 205 244 245
f 204 243 205
f 203 238 242
f 203 239 238
f 203 243 204
f 203 242 243
f 201 245 206
f 201 205 245
f 200 203 202
f 200 239 203
f 198 200 199
f 198 241 233
f 196 198 197
f 196 241 198
f 194 240 214
f 194 210 240
f 194 211 210
f 194 212 211
f 189 239 200
f 188 239 189
f 187 239 188
f 187 238 239
f 207 247 209
f 208 216 210
f 209 247 248
f 209 248 218
f 97 103 140
f 246 251 250
f 245 248 247
f 242 252 251
f 242 246 243
f 242 251 246
f 237 252 238
f 237 251 252
f 225 228 227
f 225 231 228
f 225 232 231
f 224 232 225
f 223 232 224
f 186 238 187
f 222 234 223
f 222 237 236
f 221 237 222
f 220 251 237
f 220 250 251
f 220 246 250
f 220 245 244
f 220 249 245
f 219 249 220
f 219 245 249
f 219 248 245
f 218 248 219
f 215 240 216
f 210 216 240
f 222 236 234
f 155 217 208
f 186 237 238
f 186 235 236
f 171 217 209
f 171 219 172
f 171 218 219
f 170 217 171
f 169 208 217
f 169 217 170
f 168 216 208
f 167 216 168
f 167 215 216
f 166 208 169
f 166 168 208
f 165 240 215
f 165 214 240
f 164 214 165
f 164 194 214
f 164 191 194
f 164 192 191
f 163 192 164
f 163 213 192
f 160 194 190
f 160 212 194
f 160 162 212
f 158 162 159
f 157 162 158
f 157 212 162
f 157 211 212
f 156 211 157
f 171 209 218
f 172 219 220
f 172 220 221
f 172 221 222
f 185 236 235
f 185 234 236
f 185 223 234
f 185 232 223
f 182 233 183
f 182 198 233
f 181 198 182
f 181 200 198
f 181 189 200
f 180 232 185
f 180 231 232
f 180 228 231
f 178 180 179
f 186 236 237
f 178 228 180
f 178 230 229
f 177 229 230
f 176 225 227
f 176 226 225
f 176 229 177
f 176 228 229
f 176 227 228
f 175 225 226
f 175 224 225
f 173 224 175
f 173 223 224
f 173 222 223
f 172 222 173
f 178 229 228
f 95 102 96
f 220 237 221
f 94 134 95
f 19 34 35
f 19 33 34
f 19 32 33
f 19 31 32
f 19 30 31
f 19 28 30
f 17 30 28
f 17 29 30
f 17 27 29
f 17 19 18
f 17 28 19
f 16 27 17
f 14 25 24
f 14 19 25
f 13 26 15
f 13 24 26
f 13 14 24
f 12 22 23
f 11 20 21
f 10 19 14
f 10 18 19
f 9 18 10
f 9 17 18
f 9 16 17
f 7 15 8
f 6 14 13
f 6 10 14
f 19 35 25
f 20 36 21
f 21 36 37
f 22 38 39
f 37 56 57
f 37 55 56
f 36 55 37
f 35 54 43
f 33 35 34
f 33 54 35
f 33 53 54
f 33 52 53
f 33 51 52
f 33 50 51
f 32 50 33
f 30 32 31
f 30 50 32
f 6 15 7
f 30 49 50
f 30 47 48
f 30 46 47
f 29 46 30
f 25 35 43
f 24 45 26
f 24 44 45
f 24 70 44
f 24 43 70
f 24 25 43
f 22 42 23
f 22 41 42
f 22 40 41
f 22 39 40
f 30 48 49
f 38 58 59
f 6 13 15
f 4 38 22
f 1 136 183
f 1 98 136
f 1 100 98
f 1 101 100
f 1 68 101
f 1 42 68
f 1 23 42
f 1 12 23
f 1 4 12
f 1 11 4
f 95 134 102
f 1 20 11
f 1 36 20
f 1 55 36
f 1 85 55
f 1 120 85
f 1 163 120
f 1 213 163
f 1 144 195
f 1 108 144
f 1 73 108
f 1 45 73
f 1 26 45
f 1 15 26
f 1 8 15
f 1 3 8
f 1 2 3
f 1 183 233
f 1 233 241
f 1 241 196
f 1 196 145
f 4 58 38
f 4 92 58
f 4 131 92
f 4 178 131
f 4 230 178
f 4 177 230
f 4 130 177
f 4 91 130
f 4 57 91
f 4 37 57
f 4 21 37
f 4 11 21
f 2 10 6
f 4 22 12
f 2 9 10
f 2 8 3
f 2 7 8
f 2 6 7
f 1 5 2
f 1 9 5
f 1 16 9
f 1 27 16
f 1 29 27
f 1 46 29
f 1 47 46
f 1 74 47
f 1 109 74
f 1 145 109
f 2 5 9
f 38 59 39
f 1 195 213
f 39 60 61
f 77 114 80
f 76 113 114
f 76 114 77
f 75 113 76
f 75 112 113
f 75 111 112
f 75 110 111
f 75 109 110
f 74 109 75
f 73 107 108
f 72 141 106
f 72 105 141
f 72 107 73
f 72 106 107
f 70 84 104
f 70 105 71
f 70 104 105
f 69 103 97
f 69 102 103
f 69 96 102
f 66 68 67
f 66 101 68
f 66 100 101
f 66 98 100
f 65 99 98
f 65 97 99
f 65 98 66
f 80 114 115
f 80 115 81
f 81 115 116
f 81 116 159
f 39 59 60
f 94 133 134
f 93 133 94
f 93 132 133
f 93 131 132
f 91 129 130
f 90 129 91
f 90 128 129
f 89 125 127
f 89 126 125
f 89 128 90
f 89 127 128
f 88 126 89
f 64 97 65
f 88 125 126
f 87 125 88
f 87 172 125
f 87 124 172
f 86 122 123
f 85 120 121
f 84 159 118
f 84 117 159
f 84 119 104
f 84 118 119
f 82 84 83
f 82 117 84
f 81 117 82
f 81 159 117
f 87 123 124
f 63 69 97
f 92 131 93
f 61 95 96
f 49 78 51
f 49 79 78
f 48 75 76
f 48 79 49
f 48 78 79
f 48 77 78
f 48 76 77
f 47 75 48
f 47 74 75
f 44 73 45
f 44 72 73
f 44 105 72
f 44 71 105
f 44 70 71
f 43 54 70
f 40 69 63
f 40 62 69
f 40 42 41
f 40 68 42
f 40 67 68
f 40 66 67
f 40 65 66
f 40 64 65
f 40 63 97
f 39 62 40
f 61 96 69
f 39 61 62
f 49 51 50
f 51 78 52
f 40 97 64
f 52 77 80
f 52 78 77
f 60 94 95
f 60 93 94
f 59 93 60
f 59 92 93
f 58 92 59
f 57 90 91
f 56 90 57
f 61 69 62
f 56 89 90
f 56 88 89
f 56 87 88
f 56 123 87
f 56 86 123
f 60 95 61
f 55 122 86
f 55 86 56
f 52 81 53
f 53 83 54
f 53 81 82
f 54 83 84
f 53 82 83
f 55 85 121
f 55 167 122
f 54 84 70
f 55 215 167
f 52 80 81
f 55 165 215
f 55 121 165

