# https://github.com/mikedh/trimesh
v 0.83534400 -0.29734200 0.30876000
v 0.83534400 -0.29734200 0.30655600
v 0.82971200 -0.29734200 0.37801400
v 0.82971200 -0.30877000 0.36661600
v 0.83393600 -0.29734200 0.28155700
v 0.82971200 -0.30877000 0.27015900
v 0.82792800 -0.29734200 0.38591700
v 0.82483100 -0.31118000 0.38591700
v 0.81037600 -0.34737000 0.38591700
v 0.80399300 -0.36019800 0.38591700
v 0.81685200 -0.33450400 0.36661600
v 0.82971200 -0.29734200 0.27015900
v 0.82483100 -0.31841000 0.26052000
v 0.81685200 -0.30877000 0.24442500
v 0.82708400 -0.29734200 0.26488300
v 0.81685200 -0.33450400 0.27015900
v 0.80558900 -0.35701100 0.26052000
v 0.82342300 -0.29734200 0.39753700
v 0.82004400 -0.31359000 0.39555600
v 0.80399300 -0.35378400 0.39878300
v 0.76541500 -0.43739900 0.38591700
v 0.78972600 -0.29734200 0.19709800
v 0.74589100 -0.40019800 0.19709800
v 0.78212300 -0.32393000 0.19709800
v 0.81685200 -0.29734200 0.24442500
v 0.76541500 -0.43739900 0.27015900
v 0.76701100 -0.43417200 0.26052000
v 0.82210900 -0.29734200 0.39967400
v 0.80399300 -0.31518400 0.41808400
v 0.80070800 -0.33287100 0.41485600
v 0.78146600 -0.37147100 0.41485600
v 0.76541500 -0.43098500 0.39878300
v 0.75893800 -0.45026500 0.38591700
v 0.74607900 -0.47599900 0.36661600
v -0.12347400 -0.29734200 0.19709800
v 0.74082300 -0.41030500 0.19709800
v 0.74607900 -0.47599900 0.28945900
v 0.74767500 -0.47277300 0.27979800
v 0.74044700 -0.48241300 0.27015900
v 0.68178300 -0.50810800 0.19709800
v 0.81582000 -0.29734200 0.40768800
v 0.80399300 -0.29734200 0.41808400
v 0.79113400 -0.30877000 0.42451700
v 0.76541500 -0.39238500 0.41808400
v 0.74288800 -0.44867200 0.41485600
v 0.70431000 -0.50651400 0.41485600
v 0.74288800 -0.46795200 0.39555600
v 0.76213000 -0.43899200 0.39555600
v 0.72036100 -0.50810800 0.38591700
v 0.73960300 -0.48886600 0.36661600
v -0.12347400 -0.69446200 0.19709800
v -0.12347400 -0.29734200 0.40521700
v 0.73960300 -0.48886600 0.28945900
v 0.70186900 -0.54029400 0.27015900
v 0.68976100 -0.54993400 0.26052000
v 0.67530600 -0.55957400 0.25085900
v 0.66085100 -0.56921500 0.24122000
v 0.60575300 -0.59125600 0.19709800
v 0.79113400 -0.29734200 0.42451700
v 0.73322000 -0.42453200 0.42451700
v 0.74607900 -0.43098500 0.41808400
v 0.73322000 -0.44626200 0.41968700
v 0.65606400 -0.58126500 0.40038600
v 0.66563800 -0.57403500 0.39555600
v 0.72355200 -0.49687300 0.39555600
v 0.69464200 -0.50410400 0.41968700
v 0.65606400 -0.54270400 0.41968700
v 0.60781800 -0.60299500 0.41485600
v 0.59815000 -0.63918500 0.40038600
v 0.66244700 -0.58530800 0.38591700
v 0.68178300 -0.56598800 0.36661600
v 0.70102500 -0.54670800 0.34731600
v -0.12347400 -0.69446200 0.29921000
v 0.47490700 -0.69446200 0.19709800
v -0.12347400 -0.30877000 0.40521700
v 0.21227700 -0.29734200 0.42451700
v 0.70102500 -0.54670800 0.28945900
v 0.68178300 -0.56598800 0.27015900
v 0.54511700 -0.68501600 0.24122000
v 0.52737700 -0.66247000 0.19709800
v 0.69464200 -0.48241300 0.42451700
v 0.64320500 -0.60458900 0.38591700
v 0.52099400 -0.65605600 0.42451700
v 0.55957200 -0.63918500 0.41968700
v 0.52099400 -0.67774600 0.41968700
v 0.54990400 -0.66087600 0.41485600
v 0.57881400 -0.65846600 0.40038600
v 0.58529100 -0.66247000 0.38591700
v 0.42450200 -0.69446200 0.40521700
v 0.47274800 -0.68501600 0.41968700
v -0.12347400 -0.67533600 0.30876000
v 0.53113100 -0.69446200 0.25085900
v -0.07710500 -0.34737000 0.40521700
v 0.30876800 -0.54029400 0.42451700
v 0.25085500 -0.44385200 0.42451700
v 0.23161300 -0.40525100 0.42451700
v 0.21227700 -0.30877000 0.42451700
v 0.64320500 -0.60458900 0.27015900
v 0.58529100 -0.66247000 0.27015900
v 0.56595500 -0.68178900 0.27015900
v 0.54033000 -0.69446200 0.26009700
v 0.50165800 -0.67533600 0.42451700
v 0.50165800 -0.69446200 0.41496700
v 0.50738400 -0.69446200 0.41354300
v 0.53056800 -0.68015700 0.41485600
v 0.56914600 -0.67051600 0.39555600
v 0.56595500 -0.68178900 0.36661600
v 0.55957200 -0.68256700 0.38591700
v 0.54859000 -0.69446200 0.37231500
v 0.46326800 -0.69446200 0.41260800
v 0.48232200 -0.69446200 0.41496700
v 0.48232200 -0.67533600 0.42451700
v 0.54999800 -0.69446200 0.28945900
v 0.54464800 -0.69446200 0.27015900
v 0.52108800 -0.69446200 0.40535000
v 0.54061200 -0.69446200 0.38591700
v 0.54999800 -0.69446200 0.36661600
f 51 111 110
f 54 78 55
f 54 77 78
f 53 77 54
f 51 89 73
f 52 75 97
f 51 110 89
f 51 104 103
f 55 78 56
f 51 103 111
f 52 97 76
f 56 78 57
f 63 70 64
f 57 98 79
f 57 79 58
f 58 79 80
f 60 81 62
f 60 62 61
f 62 81 66
f 63 69 82
f 63 82 70
f 64 70 65
f 51 115 104
f 67 81 83
f 66 81 67
f 57 78 98
f 51 116 115
f 46 65 47
f 51 117 109
f 44 61 45
f 67 83 84
f 44 60 61
f 45 61 62
f 45 62 66
f 45 66 46
f 46 63 64
f 46 64 65
f 46 66 67
f 46 67 84
f 46 84 68
f 46 68 69
f 46 69 63
f 47 65 49
f 49 65 70
f 49 70 71
f 49 71 50
f 50 71 72
f 50 72 77
f 50 77 53
f 51 74 92
f 51 92 101
f 51 101 114
f 51 114 113
f 51 113 117
f 51 109 116
f 68 84 85
f 90 103 102
f 68 86 69
f 87 106 88
f 87 105 106
f 88 107 100
f 88 100 99
f 88 106 108
f 88 108 109
f 88 109 107
f 89 110 90
f 90 110 111
f 90 111 103
f 90 102 112
f 90 112 91
f 91 112 93
f 93 112 94
f 100 107 117
f 100 117 113
f 100 113 114
f 100 114 101
f 104 115 105
f 105 115 106
f 106 115 116
f 106 116 108
f 107 109 117
f 108 116 109
f 43 60 44
f 85 105 86
f 85 104 105
f 85 103 104
f 85 102 103
f 69 86 105
f 69 105 87
f 69 87 88
f 69 88 82
f 70 82 71
f 71 82 98
f 71 98 78
f 71 78 77
f 71 77 72
f 73 89 90
f 73 90 91
f 74 80 79
f 68 85 86
f 74 79 92
f 75 93 94
f 75 94 95
f 75 95 96
f 75 96 97
f 79 98 99
f 79 99 100
f 79 100 101
f 79 101 92
f 82 88 99
f 82 99 98
f 83 102 85
f 83 85 84
f 75 91 93
f 43 81 60
f 32 46 47
f 43 102 83
f 6 14 15
f 6 15 12
f 6 16 17
f 6 17 13
f 7 18 8
f 8 18 19
f 8 19 20
f 8 20 9
f 9 20 10
f 10 20 32
f 10 32 21
f 11 21 26
f 11 26 16
f 13 22 14
f 13 17 23
f 13 23 24
f 13 24 22
f 14 25 15
f 14 22 25
f 16 26 17
f 17 26 27
f 17 27 23
f 18 28 19
f 19 28 29
f 19 29 30
f 5 6 12
f 19 30 20
f 4 16 6
f 4 21 11
f 43 83 81
f 1 2 5
f 1 5 12
f 1 12 15
f 1 15 25
f 1 25 22
f 1 22 35
f 1 35 52
f 1 52 76
f 1 76 59
f 1 59 42
f 1 42 41
f 1 41 28
f 1 28 18
f 1 18 7
f 1 7 3
f 1 3 4
f 1 4 6
f 1 6 2
f 2 6 5
f 3 7 8
f 3 8 4
f 4 8 9
f 4 9 10
f 4 10 21
f 4 11 16
f 20 30 31
f 6 13 14
f 20 45 32
f 32 48 33
f 33 48 47
f 33 47 49
f 33 49 50
f 34 50 53
f 34 53 37
f 35 51 73
f 35 73 91
f 35 91 75
f 37 53 38
f 38 53 39
f 39 53 54
f 39 54 40
f 40 54 55
f 40 55 56
f 40 56 57
f 40 57 58
f 43 59 76
f 43 76 97
f 43 97 96
f 43 96 95
f 43 95 94
f 43 94 112
f 20 31 45
f 43 112 102
f 32 47 48
f 32 45 46
f 35 75 52
f 21 50 34
f 21 32 33
f 21 33 50
f 29 31 30
f 21 34 37
f 21 37 26
f 22 24 23
f 22 23 36
f 22 36 40
f 22 40 58
f 22 80 74
f 22 74 51
f 22 51 35
f 23 27 36
f 22 58 80
f 26 38 27
f 29 45 31
f 26 37 38
f 29 43 44
f 29 59 43
f 29 42 59
f 29 41 42
f 29 44 45
f 27 40 36
f 27 39 40
f 27 38 39
f 28 41 29

