# https://github.com/mikedh/trimesh
v 0.13502100 0.88762700 0.34731600
v 0.13502100 0.88762700 0.30876000
v 0.09644340 0.88762700 0.38591700
v 0.23146400 0.86825600 0.36661600
v 0.21217600 0.86825600 0.27015900
v 0.11573200 0.88762700 0.28945900
v 0.23146400 0.86825600 0.30876000
v 0.10287300 0.87475200 0.41165000
v 0.17359800 0.86825600 0.40521700
v 0.21217600 0.86825600 0.38591700
v -0.05786610 0.88762700 0.38591700
v 0.24119500 0.85862900 0.39555600
v 0.28933000 0.84900200 0.38591700
v 0.22503500 0.86187700 0.26372600
v 0.21217600 0.86187700 0.25729200
v 0.15430900 0.86825600 0.25085900
v 0.07715470 0.88762700 0.27015900
v 0.28933000 0.84900200 0.28945900
v 0.28933000 0.84413000 0.26775500
v 0.16716900 0.86187700 0.41808400
v -0.05143650 0.87475200 0.41165000
v 0.20244400 0.85862900 0.41485600
v -0.07715470 0.88762700 0.36661600
v -0.25075300 0.84900200 0.38591700
v -0.16073900 0.86187700 0.39878300
v -0.06429560 0.88113100 0.39878300
v 0.23476600 0.85225000 0.40842300
v 0.29906100 0.83937500 0.39555600
v 0.37291500 0.81687200 0.39235000
v 0.34719600 0.82963100 0.38591700
v 0.22190700 0.85862900 0.25568900
v 0.32790800 0.82487600 0.24845500
v 0.21217600 0.85538100 0.24442500
v 0.15430900 0.86187700 0.23799200
v 0.10061400 0.84900200 0.19709800
v 0.07715470 0.87475200 0.24442500
v -0.03857740 0.88762700 0.27015900
v 0.34719600 0.82963100 0.28945900
v 0.34719600 0.82487600 0.26775500
v 0.17359800 0.84900200 0.42451700
v -0.10287300 0.86187700 0.41808400
v 0.26048400 0.83937500 0.41485600
v -0.07715470 0.88762700 0.28945900
v -0.19288700 0.86825600 0.32801600
v -0.17359800 0.86825600 0.36661600
v -0.25075300 0.84900200 0.28945900
v -0.30861900 0.82963100 0.36661600
v -0.31105200 0.82487600 0.38591700
v -0.35362600 0.80399700 0.39878300
v -0.25718200 0.84250600 0.39878300
v 0.33433700 0.81687200 0.41165000
v 0.37291500 0.81687200 0.29589300
v 0.35049800 0.81362400 0.40842300
v 0.45024300 0.77824700 0.39235000
v 0.39863300 0.80399700 0.26372600
v 0.33763900 0.82000400 0.24602800
v 0.33259900 0.78996200 0.19709800
v 0.21686700 0.82847100 0.19709800
v 0.21217600 0.82963100 0.19709800
v -0.01928870 0.84900200 0.19709800
v -0.03857740 0.87475200 0.24442500
v -0.04813480 0.88275500 0.26052000
v -0.18315600 0.86350100 0.26052000
v -0.17359800 0.86825600 0.27015900
v 0.36005500 0.82325200 0.28302600
v 0.23146400 0.82963100 0.42451700
v -0.09644340 0.84900200 0.42451700
v -0.24432300 0.83612700 0.41165000
v -0.25718200 0.82325200 0.41808400
v 0.32790800 0.79112200 0.42451700
v -0.19288700 0.86825600 0.28945900
v -0.20244400 0.86350100 0.27979800
v -0.31835000 0.82487600 0.27979800
v -0.30861900 0.82963100 0.28945900
v -0.33433700 0.81687200 0.36661600
v -0.34719600 0.81037700 0.38591700
v -0.34076700 0.79750200 0.41165000
v -0.36179300 0.80074900 0.39555600
v -0.40037100 0.78149500 0.39555600
v -0.39220300 0.78462700 0.39878300
v -0.37135100 0.78149500 0.41485600
v 0.35692800 0.80074900 0.41485600
v 0.39550500 0.78149500 0.41485600
v 0.45024300 0.77824700 0.27659300
v 0.46623000 0.75574500 0.40842300
v 0.47596100 0.76537200 0.37948300
v 0.48882000 0.75887600 0.39235000
v 0.39550500 0.80074900 0.25568900
v 0.43721000 0.78462700 0.26372600
v 0.43408200 0.78149500 0.25568900
v 0.34372100 0.78543900 0.19709800
v -0.13502100 0.83125500 0.19709800
v -0.09644340 0.85538100 0.22512500
v -0.10600100 0.86350100 0.24122000
v -0.17359800 0.85538100 0.24442500
v -0.19288700 0.85619300 0.25085900
v -0.25075300 0.83693900 0.25085900
v -0.29906100 0.82487600 0.26052000
v -0.25075300 0.81037700 0.42451700
v -0.35362600 0.78462700 0.41808400
v 0.44381300 0.73324200 0.42451700
v -0.35692800 0.80550500 0.26052000
v -0.43408200 0.76699600 0.26052000
v -0.47596100 0.74611700 0.28945900
v -0.47596100 0.74611700 0.32801600
v -0.36005500 0.80399700 0.38591700
v -0.45024300 0.74611700 0.39878300
v -0.46310200 0.73324200 0.40521700
v -0.40992800 0.76212400 0.41485600
v -0.41149200 0.77824700 0.38591700
v -0.46953200 0.73962200 0.38591700
v -0.54494900 0.68499000 0.39555600
v -0.39220300 0.76537200 0.41808400
v 0.47266000 0.74287000 0.41485600
v 0.47596100 0.76537200 0.28302600
v 0.58839200 0.66561900 0.41485600
v 0.56597500 0.70099700 0.39235000
v 0.54668600 0.72036700 0.37305000
v 0.48882000 0.75887600 0.29589300
v 0.53382700 0.72674700 0.26372600
v 0.49194800 0.74287000 0.24602800
v 0.42087600 0.74681300 0.19709800
v -0.22729400 0.81188500 0.19709800
v -0.28516000 0.79263000 0.19709800
v -0.30861900 0.81756800 0.25085900
v -0.34719600 0.77175200 0.42451700
v 0.55954600 0.65599200 0.42451700
v -0.28933000 0.79112200 0.19709800
v -0.32790800 0.77337500 0.19709800
v -0.41531500 0.72964700 0.19709800
v -0.45893200 0.70494100 0.19709800
v -0.46431900 0.70169300 0.19709800
v -0.52739800 0.66248800 0.19709800
v -0.49194800 0.72837100 0.26052000
v -0.48239100 0.74043400 0.27015900
v -0.47266000 0.74762500 0.27979800
v -0.48882000 0.73962200 0.28945900
v -0.45024300 0.75887600 0.36661600
v -0.48882000 0.73962200 0.32801600
v -0.50810900 0.70749200 0.39878300
v -0.46779400 0.72349900 0.41485600
v -0.40749500 0.75249700 0.41968700
v -0.50810900 0.72036700 0.36661600
v -0.52739800 0.70099700 0.38591700
v -0.56597500 0.68174200 0.36661600
v -0.60455300 0.64311700 0.38591700
v -0.59325700 0.64636500 0.39555600
v -0.60055600 0.63673800 0.40038600
v -0.38577400 0.75249700 0.42451700
v 0.54668600 0.72036700 0.27659300
v 0.66572000 0.58848500 0.41485600
v 0.66572000 0.60774000 0.39555600
v 0.60768000 0.66561900 0.39555600
v 0.62384100 0.66248800 0.37305000
v 0.61098200 0.66886700 0.28302600
v 0.60768000 0.66561900 0.26532900
v 0.54981400 0.70424500 0.24602800
v 0.54025700 0.71387200 0.25085900
v 0.50063700 0.70076500 0.19709800
v 0.48239100 0.71166800 0.19709800
v 0.57883400 0.63673800 0.42451700
v -0.60316200 0.58802100 0.19709800
v -0.56910300 0.66086400 0.24122000
v -0.55954600 0.68255400 0.27015900
v -0.56597500 0.68174200 0.28945900
v -0.46536100 0.71387200 0.41968700
v -0.44381300 0.71387200 0.42451700
v -0.58526400 0.66248800 0.36661600
v -0.64313000 0.60460800 0.36661600
v -0.66241900 0.58523700 0.36661600
v -0.70099600 0.52735800 0.38591700
v -0.66085500 0.56923000 0.39555600
v -0.61254600 0.62711000 0.39555600
v -0.69699900 0.52097800 0.40038600
v -0.54269000 0.63673800 0.41968700
v -0.50411200 0.67536300 0.41968700
v 0.62384100 0.66248800 0.29589300
v 0.68500900 0.56923000 0.41485600
v 0.66241900 0.62386200 0.37305000
v 0.70429800 0.54986000 0.41485600
v 0.72028500 0.54661200 0.39235000
v 0.66572000 0.60774000 0.26532900
v 0.60229300 0.61539500 0.19709800
v 0.59603800 0.62154300 0.19709800
v 0.52739800 0.68174200 0.19709800
v 0.51731900 0.68893400 0.19709800
v 0.69456600 0.52097800 0.42451700
v 0.67215000 0.55635500 0.42128900
v -0.66832700 0.50926300 0.19709800
v -0.66572000 0.56435900 0.24122000
v -0.58526400 0.66248800 0.27015900
v -0.56910300 0.67049100 0.26052000
v -0.48239100 0.67536300 0.42451700
v -0.64313000 0.60460800 0.27015900
v -0.68170700 0.56598300 0.34731600
v -0.68257600 0.55948700 0.36661600
v -0.70898900 0.51123500 0.39555600
v -0.72115300 0.50160700 0.38591700
v -0.73557700 0.46309800 0.40038600
v -0.72358600 0.39547500 0.41968700
v -0.52096800 0.63673800 0.42451700
v 0.66241900 0.62386200 0.29589300
v 0.73957300 0.52735800 0.37305000
v 0.74287500 0.49198000 0.41485600
v 0.74287500 0.51123500 0.39555600
v 0.73644500 0.52411000 0.38912200
v 0.66884800 0.61098700 0.28302600
v 0.70429800 0.54986000 0.24602800
v 0.66241900 0.54661200 0.19709800
v 0.73314400 0.46309800 0.42451700
v -0.68136000 0.49105200 0.19709800
v -0.72358600 0.48722400 0.24122000
v -0.66241900 0.58523700 0.27015900
v -0.68170700 0.56598300 0.28945900
v -0.73957300 0.48873200 0.32801600
v -0.72028500 0.50810300 0.36661600
v -0.74756700 0.45335500 0.39555600
v -0.75973100 0.44372800 0.38591700
v -0.75729800 0.43410000 0.39555600
v -0.78631800 0.37622100 0.39555600
v -0.82489500 0.29908600 0.39555600
v -0.81273100 0.30871400 0.40038600
v -0.78145200 0.27983200 0.41968700
v -0.75243200 0.27020500 0.42451700
v 0.72671400 0.53385300 0.28302600
v 0.73957300 0.52735800 0.31517100
v 0.75886200 0.48873200 0.39235000
v 0.76529200 0.47597300 0.37948300
v 0.78145200 0.41484600 0.41485600
v 0.75886200 0.46947800 0.41165000
v 0.70742600 0.55310800 0.26372600
v 0.72358600 0.51123500 0.23638900
v 0.72740900 0.45950300 0.19709800
v 0.72028500 0.46947800 0.19709800
v 0.72358600 0.53060500 0.26532900
v 0.78145200 0.43410000 0.24602800
v 0.79101000 0.34722300 0.42451700
v -0.74009500 0.40579900 0.19709800
v -0.74287500 0.40997400 0.20261900
v -0.76216400 0.42922900 0.24122000
v -0.75886200 0.45022300 0.27015900
v -0.72028500 0.50810300 0.27015900
v -0.73957300 0.48873200 0.28945900
v -0.74600300 0.47597300 0.32801600
v -0.75886200 0.45022300 0.36661600
v -0.76685600 0.43410000 0.37625500
v -0.78631800 0.39547500 0.37625500
v -0.77902000 0.40521900 0.38591700
v -0.82315800 0.28945900 0.39878300
v -0.81759700 0.32796800 0.38591700
v -0.82489500 0.31834100 0.37625500
v -0.84418400 0.27983200 0.35697700
v -0.84418400 0.26057700 0.37625500
v -0.84418400 0.24120700 0.39555600
v -0.81029800 0.28945900 0.40521700
v -0.82958700 0.23157900 0.40521700
v -0.84887600 0.15444500 0.40521700
v -0.84887600 -0.15432400 0.40521700
v -0.73314400 0.25095000 0.42451700
v -0.82958700 -0.23145900 0.40521700
v -0.81029800 -0.28933800 0.40521700
v 0.74600300 0.51448200 0.30232600
v 0.76529200 0.47597300 0.28302600
v 0.77815100 0.45022300 0.39235000
v 0.80074100 0.37622100 0.41485600
v 0.79743900 0.39234400 0.41165000
v 0.78562300 0.35279000 0.19709800
v 0.74287500 0.51123500 0.28462900
v 0.76216400 0.47272600 0.26532900
v 0.78458000 0.43734800 0.26372600
v 0.82315800 0.36009800 0.26372600
v 0.82003000 0.35696600 0.25568900
v 0.81029800 0.28945900 0.42451700
v 0.81672800 0.35371800 0.41165000
v -0.74756700 0.39246000 0.19709800
v -0.76685600 0.42690900 0.25085900
v -0.78145200 0.39072000 0.24122000
v -0.78631800 0.38828400 0.25085900
v -0.74600300 0.47597300 0.28945900
v -0.82489500 0.31114900 0.25085900
v -0.81672800 0.33446400 0.27015900
v -0.80560700 0.35696600 0.37625500
v -0.84244600 0.23157900 0.39878300
v -0.84887600 0.27020500 0.34731600
v -0.86347300 0.22195200 0.35697700
v -0.82958700 0.30871400 0.27015900
v -0.86347300 0.20269700 0.37625500
v -0.86347300 0.16407200 0.39555600
v -0.86173500 0.15444500 0.39878300
v -0.85860700 -0.16395100 0.40038600
v -0.83931800 -0.24120200 0.40038600
v -0.67527800 0.21232500 0.42451700
v -0.81829200 -0.29734200 0.40125400
v -0.15430900 -0.11569900 0.42451700
v -0.28933000 -0.03856470 0.42451700
v -0.79101000 -0.29734200 0.40521700
v 0.17359800 -0.28933800 0.42451700
v 0.81672800 0.37297300 0.39235000
v 0.78770800 0.34722300 0.19709800
v 0.82958700 0.34722300 0.27015900
v 0.84887600 0.28945900 0.27015900
v 0.86173500 0.24445400 0.26372600
v 0.81672800 0.34722300 0.24442500
v 0.85860700 0.24120700 0.25568900
v 0.83601700 0.28945900 0.24442500
v 0.82958700 0.23157900 0.42451700
v 0.85530500 0.23807500 0.41165000
v 0.84887600 0.28945900 0.38591700
v 0.82958700 0.34722300 0.38591700
v -0.79101000 0.29363500 0.19709800
v -0.82003000 0.31346900 0.24122000
v -0.83931800 0.25570600 0.24122000
v -0.84418400 0.25327000 0.25085900
v -0.84887600 0.25095000 0.27015900
v -0.86816500 0.21232500 0.34731600
v -0.86816500 0.19307000 0.36661600
v -0.88762700 0.07719470 0.36661600
v -0.87459400 0.07719470 0.39235000
v -0.88276100 0.08693800 0.37625500
v -0.85530500 -0.21220400 0.39235000
v -0.87459400 -0.11569900 0.39235000
v -0.83601700 -0.28933800 0.39235000
v -0.82055100 -0.29734200 0.40009700
v 0.21217600 -0.29734200 0.42451700
v 0.85530500 0.23157900 0.24442500
v 0.81134100 0.27020500 0.19709800
v 0.86816500 0.23157900 0.27015900
v 0.84887600 0.13507400 0.42451700
v 0.87459400 0.12231500 0.41165000
v 0.88762700 0.11582000 0.38591700
v 0.86816500 0.23157900 0.38591700
v -0.82489500 0.19956600 0.19709800
v -0.84244600 0.23807500 0.23799200
v -0.86173500 0.19945000 0.25729200
v -0.86816500 0.19307000 0.27015900
v -0.88762700 0.09656530 0.28945900
v -0.88762700 0.09656530 0.34731600
v -0.88762700 -0.11569900 0.36661600
v -0.88276100 -0.13507000 0.36902000
v -0.86347300 -0.23145900 0.36902000
v -0.83879700 -0.29734200 0.38313400
v -0.83341000 -0.29734200 0.38972300
v 0.79101000 -0.29734200 0.42451700
v 0.88762700 0.11582000 0.27015900
v 0.87459400 0.11582000 0.24442500
v 0.84140400 0.13507400 0.19709800
v 0.82958700 0.19713000 0.19709800
v 0.82489500 0.21882000 0.19709800
v 0.88762700 0.15444500 0.30876000
v 0.84887600 -0.09644450 0.42451700
v 0.87459400 -0.05143980 0.41165000
v 0.88762700 -0.05781930 0.38591700
v 0.88762700 0.13507400 0.36661600
v -0.82593800 0.19492600 0.19709800
v -0.86173500 0.16082500 0.23799200
v -0.86816500 0.15444500 0.25085900
v -0.88762700 0.03868560 0.25085900
v -0.88762700 0.07719470 0.27015900
v -0.88762700 -0.13507000 0.34731600
v -0.86816500 -0.21220400 0.36661600
v -0.86816500 -0.23145900 0.34731600
v -0.84887600 -0.28933800 0.36661600
v -0.84505300 -0.29734200 0.37055600
v 0.80247900 -0.29734200 0.41879600
v 0.82315800 -0.25720900 0.41808400
v 0.81029800 -0.25082900 0.42451700
v 0.88762700 -0.05781930 0.27015900
v 0.88276100 -0.06744660 0.26052000
v 0.87459400 -0.05781930 0.24442500
v 0.84887600 0.06211580 0.19709800
v 0.86173500 -0.10282400 0.41808400
v 0.82958700 -0.19294900 0.42451700
v 0.88102400 -0.06431480 0.39878300
v 0.85530500 -0.16719900 0.41165000
v 0.88762700 -0.09644450 0.34731600
v 0.86173500 -0.18007400 0.39878300
v 0.86816500 -0.17357900 0.38591700
v 0.86816500 -0.19294900 0.36661600
v -0.83063000 0.17323600 0.19709800
v -0.85530500 0.14795000 0.22512500
v -0.84991800 0.07673080 0.19709800
v -0.88102400 0.04506510 0.23799200
v -0.87459400 0.03219010 0.22512500
v -0.88762700 -0.07707390 0.25085900
v -0.88762700 -0.13507000 0.28945900
v -0.86816500 -0.23145900 0.28945900
v -0.84887600 -0.28933800 0.27015900
v -0.84505300 -0.29734200 0.27409900
v 0.80386900 -0.29734200 0.41808400
v 0.82003000 -0.27495500 0.41485600
v 0.83601700 -0.24433400 0.41165000
v 0.84244600 -0.19932900 0.41808400
v 0.88762700 -0.09644450 0.28945900
v 0.86347300 -0.18320600 0.26052000
v 0.82958700 -0.19294900 0.19709800
v 0.84887600 -0.07707390 0.19709800
v 0.84244600 -0.25720900 0.39878300
v 0.86347300 -0.19526900 0.38591700
v 0.86816500 -0.19294900 0.28945900
v 0.84887600 -0.25082900 0.38591700
v 0.84887600 -0.27008400 0.30876000
v -0.85096100 0.05585230 0.19709800
v -0.87459400 -0.08356940 0.22512500
v -0.88762700 -0.11569900 0.27015900
v -0.85530500 -0.19932900 0.22512500
v -0.86816500 -0.19294900 0.25085900
v -0.86503700 -0.22832700 0.27336500
v -0.84574800 -0.28620600 0.25408700
v -0.84018700 -0.29734200 0.24295600
v 0.81585900 -0.29734200 0.40768800
v 0.86816500 -0.17357900 0.27015900
v 0.86347300 -0.20257700 0.27979800
v 0.84418400 -0.26045600 0.26052000
v 0.78962000 -0.29734200 0.19709800
v 0.82211500 -0.29734200 0.39967400
v 0.82333100 -0.29734200 0.39753700
v 0.82784900 -0.29734200 0.38591700
v 0.84887600 -0.25082900 0.27015900
v 0.82958700 -0.29734200 0.37801400
v 0.83532200 -0.29734200 0.30876000
v 0.84418400 -0.27971100 0.29909900
v -0.85096100 -0.05990710 0.19709800
v -0.85530500 -0.12219500 0.20584700
v -0.83601700 -0.21858300 0.20584700
v -0.83601700 -0.27657900 0.22512500
v -0.85860700 -0.22183100 0.24122000
v -0.86503700 -0.20895600 0.25408700
v -0.85860700 -0.24120200 0.26052000
v -0.83931800 -0.29734200 0.24122000
v 0.83393100 -0.29734200 0.28155700
v 0.82958700 -0.29734200 0.27015900
v 0.82698100 -0.29734200 0.26488300
v 0.82055100 -0.29734200 0.25203900
v 0.81672800 -0.29734200 0.24442500
v -0.79761300 -0.29734200 0.19709800
v 0.83532200 -0.29734200 0.30655600
v -0.84661700 -0.11337900 0.19709800
v -0.83653800 -0.16116800 0.19709800
v -0.81724900 -0.23841800 0.19709800
v -0.80803900 -0.26776400 0.19709800
v -0.81672800 -0.27657900 0.20584700
f 1 2 6
f 252 282 279
f 252 281 286
f 252 286 284
f 254 287 288
f 254 288 289
f 254 289 283
f 256 283 289
f 256 289 257
f 257 289 290
f 257 290 258
f 258 290 291
f 258 291 260
f 259 261 292
f 260 291 293
f 260 293 261
f 261 294 295
f 261 295 292
f 261 293 296
f 261 296 297
f 261 297 294
f 262 263 269
f 262 269 268
f 264 266 274
f 252 287 253
f 252 285 287
f 252 315 285
f 252 284 315
f 237 273 274
f 237 274 265
f 238 275 239
f 239 275 240
f 240 276 241
f 240 275 277
f 240 277 278
f 240 278 276
f 241 279 243
f 241 243 242
f 241 276 278
f 264 274 298
f 241 278 280
f 241 281 252
f 241 252 279
f 244 279 282
f 244 282 247
f 244 247 245
f 245 247 246
f 248 282 251
f 248 251 250
f 249 283 256
f 249 256 255
f 251 282 252
f 241 280 281
f 236 272 267
f 267 272 299
f 271 301 302
f 288 318 289
f 288 317 319
f 288 319 318
f 289 318 290
f 290 320 291
f 290 318 321
f 290 321 320
f 291 322 323
f 291 323 293
f 291 320 322
f 293 323 342
f 293 342 341
f 293 341 363
f 293 363 388
f 293 388 409
f 293 409 429
f 293 429 435
f 293 435 414
f 293 414 434
f 293 434 433
f 293 433 432
f 293 432 431
f 293 431 430
f 287 317 288
f 287 316 317
f 285 316 287
f 285 315 316
f 271 302 272
f 272 303 299
f 272 302 304
f 272 304 325
f 272 325 305
f 272 305 303
f 273 306 307
f 273 307 274
f 274 307 308
f 274 308 309
f 274 309 298
f 271 300 301
f 275 310 311
f 277 311 280
f 277 280 278
f 280 286 281
f 280 311 312
f 280 312 313
f 280 313 335
f 280 335 314
f 280 314 286
f 284 314 335
f 284 335 315
f 284 286 314
f 275 311 277
f 293 430 436
f 236 271 272
f 236 263 270
f 202 231 207
f 202 226 225
f 203 206 205
f 203 205 227
f 203 227 264
f 203 264 228
f 203 228 263
f 203 263 226
f 204 210 229
f 204 229 266
f 204 266 230
f 204 230 227
f 204 227 205
f 208 232 233
f 208 233 234
f 208 234 209
f 208 231 225
f 208 225 235
f 208 235 269
f 208 269 236
f 208 236 232
f 210 237 265
f 210 265 229
f 202 225 231
f 200 224 201
f 200 223 224
f 199 223 200
f 182 231 208
f 182 208 183
f 183 208 209
f 189 211 212
f 189 212 190
f 190 213 194
f 190 194 191
f 190 212 242
f 190 242 213
f 194 213 214
f 195 214 243
f 211 238 239
f 195 243 215
f 195 216 198
f 195 198 196
f 197 198 218
f 197 218 217
f 198 216 245
f 198 245 218
f 199 217 219
f 199 219 220
f 199 220 221
f 199 221 222
f 199 222 223
f 195 215 216
f 236 270 271
f 211 239 212
f 212 240 241
f 223 257 258
f 223 258 224
f 224 258 260
f 224 260 261
f 224 261 259
f 225 226 262
f 225 262 268
f 225 268 235
f 226 263 262
f 227 230 264
f 228 264 298
f 228 298 309
f 228 309 300
f 228 300 271
f 228 271 270
f 228 270 263
f 229 265 274
f 229 274 266
f 230 266 264
f 232 236 233
f 233 236 267
f 235 268 269
f 236 269 263
f 223 256 257
f 223 255 256
f 222 255 223
f 222 249 255
f 212 241 242
f 213 242 214
f 214 242 243
f 215 243 279
f 215 279 244
f 215 244 245
f 215 245 216
f 217 218 219
f 218 245 246
f 218 246 247
f 218 247 282
f 212 239 240
f 218 282 248
f 218 220 219
f 220 248 221
f 221 249 222
f 221 248 250
f 221 250 251
f 221 251 252
f 221 252 253
f 221 253 287
f 221 287 254
f 221 254 283
f 221 283 249
f 218 248 220
f 182 207 231
f 293 436 420
f 293 419 417
f 375 399 393
f 376 397 398
f 377 398 378
f 378 398 400
f 378 400 401
f 378 401 399
f 379 381 380
f 381 402 383
f 381 383 382
f 383 402 422
f 383 422 403
f 384 403 405
f 384 405 406
f 384 406 404
f 385 404 406
f 385 406 386
f 386 406 407
f 386 407 387
f 387 408 409
f 387 409 388
f 387 407 408
f 389 410 390
f 390 410 397
f 375 378 399
f 374 397 376
f 374 391 397
f 374 392 391
f 355 382 357
f 355 357 356
f 357 382 383
f 357 383 403
f 357 403 384
f 359 361 360
f 359 385 386
f 359 386 361
f 361 386 387
f 361 387 362
f 362 387 388
f 390 397 391
f 362 388 363
f 365 389 390
f 365 390 391
f 365 391 392
f 365 392 372
f 365 372 366
f 367 393 394
f 367 394 368
f 368 394 395
f 368 395 396
f 368 396 369
f 371 392 374
f 364 389 365
f 355 381 382
f 393 399 411
f 394 411 412
f 409 428 426
f 409 426 429
f 412 418 413
f 413 418 421
f 413 421 430
f 413 430 431
f 413 431 432
f 413 432 433
f 413 433 434
f 413 434 414
f 420 436 421
f 421 436 430
f 422 437 423
f 423 437 424
f 424 437 438
f 424 438 439
f 424 439 440
f 424 440 441
f 424 441 425
f 425 429 426
f 425 441 435
f 425 435 429
f 435 441 440
f 407 409 408
f 407 428 409
f 407 426 428
f 407 427 426
f 394 412 413
f 394 413 395
f 395 413 414
f 397 400 398
f 397 410 415
f 397 415 416
f 397 416 417
f 397 417 400
f 399 401 418
f 399 418 412
f 399 412 411
f 393 411 394
f 400 417 419
f 401 419 420
f 401 420 421
f 401 421 418
f 403 422 423
f 403 423 405
f 405 423 424
f 405 424 425
f 405 425 426
f 405 426 406
f 406 427 407
f 406 426 427
f 400 419 401
f 293 420 419
f 355 380 381
f 354 379 355
f 312 332 333
f 313 334 335
f 315 335 336
f 315 336 337
f 315 337 316
f 316 337 317
f 317 337 336
f 317 336 358
f 317 358 357
f 317 357 384
f 317 384 404
f 317 404 385
f 317 385 359
f 317 359 338
f 317 338 319
f 318 319 321
f 319 338 321
f 320 321 339
f 320 339 340
f 320 340 322
f 321 338 339
f 322 340 341
f 322 341 342
f 312 334 313
f 312 333 334
f 311 332 312
f 310 332 311
f 293 417 416
f 293 416 415
f 293 415 410
f 293 410 389
f 293 389 364
f 293 364 343
f 293 343 324
f 293 324 296
f 296 324 297
f 299 303 305
f 299 305 325
f 322 342 323
f 299 325 326
f 300 308 301
f 301 308 331
f 301 331 327
f 301 327 302
f 302 327 304
f 304 327 325
f 306 328 307
f 307 328 329
f 307 329 330
f 307 330 331
f 307 331 308
f 300 309 308
f 355 379 380
f 325 327 344
f 325 345 346
f 338 340 339
f 340 360 361
f 340 361 362
f 340 362 363
f 340 363 341
f 343 364 365
f 343 365 366
f 344 367 368
f 344 368 345
f 345 368 369
f 345 369 396
f 345 396 370
f 345 370 346
f 350 372 392
f 350 392 371
f 351 373 352
f 351 371 374
f 351 374 376
f 351 376 373
f 352 373 376
f 352 376 377
f 352 377 378
f 352 378 375
f 338 360 340
f 338 359 360
f 335 358 336
f 335 357 358
f 325 346 347
f 325 347 348
f 325 348 326
f 327 331 349
f 327 349 344
f 328 350 371
f 328 371 351
f 328 351 329
f 329 351 352
f 329 352 330
f 330 352 375
f 325 344 345
f 330 375 393
f 330 367 344
f 330 344 349
f 330 349 353
f 330 353 331
f 331 353 349
f 332 354 355
f 332 355 333
f 333 355 334
f 334 355 356
f 334 356 335
f 335 356 357
f 330 393 367
f 182 202 207
f 376 398 377
f 181 205 206
f 35 162 133
f 35 133 132
f 35 132 131
f 35 131 130
f 35 130 129
f 35 129 128
f 35 128 124
f 35 124 123
f 35 123 92
f 35 92 60
f 35 60 61
f 35 61 36
f 37 61 62
f 37 62 63
f 37 63 64
f 37 64 43
f 38 65 39
f 39 65 55
f 40 66 42
f 40 67 99
f 40 99 126
f 40 126 149
f 40 149 167
f 35 189 162
f 35 211 189
f 35 238 211
f 35 275 238
f 35 234 233
f 35 233 267
f 35 267 299
f 35 299 326
f 35 326 348
f 35 348 347
f 35 347 346
f 35 346 370
f 35 370 396
f 35 396 395
f 35 395 414
f 40 167 193
f 35 414 435
f 35 440 439
f 35 439 438
f 35 438 437
f 35 437 422
f 35 422 402
f 35 402 381
f 35 381 379
f 35 379 354
f 35 354 332
f 35 332 310
f 35 310 275
f 35 435 440
f 35 209 234
f 40 193 201
f 40 224 259
f 46 72 73
f 46 73 74
f 47 74 73
f 47 73 75
f 47 75 106
f 47 106 76
f 47 76 48
f 48 76 49
f 49 77 68
f 49 68 50
f 49 76 78
f 49 78 79
f 49 79 80
f 49 80 109
f 49 109 81
f 49 81 77
f 51 70 82
f 51 82 83
f 51 83 53
f 52 84 55
f 52 55 65
f 53 83 85
f 53 85 54
f 46 71 72
f 43 64 71
f 42 70 51
f 42 66 70
f 40 259 292
f 40 292 295
f 40 295 294
f 40 294 297
f 40 297 324
f 40 324 343
f 40 343 366
f 40 366 372
f 40 372 350
f 40 350 328
f 40 328 306
f 40 201 224
f 40 306 273
f 40 237 210
f 40 210 187
f 40 187 161
f 40 161 127
f 40 127 101
f 40 101 70
f 40 70 66
f 41 50 68
f 41 68 69
f 41 69 99
f 41 99 67
f 40 273 237
f 54 86 115
f 35 183 209
f 35 185 184
f 5 19 14
f 8 20 9
f 8 21 41
f 8 41 67
f 8 67 40
f 8 40 20
f 9 20 22
f 9 22 12
f 9 12 10
f 11 23 24
f 11 24 25
f 11 25 26
f 11 26 21
f 12 22 27
f 12 27 13
f 13 27 28
f 13 28 29
f 13 29 30
f 13 30 38
f 13 38 18
f 14 31 15
f 14 19 32
f 14 32 31
f 5 18 19
f 5 7 18
f 5 17 6
f 5 16 17
f 181 206 203
f 1 6 17
f 1 17 37
f 1 37 43
f 1 43 23
f 1 23 11
f 1 11 3
f 1 3 10
f 1 10 4
f 1 4 7
f 1 7 2
f 15 31 33
f 2 5 6
f 3 8 9
f 3 9 10
f 3 11 21
f 3 21 8
f 4 12 13
f 4 13 18
f 4 18 7
f 4 10 12
f 5 14 15
f 5 15 34
f 5 34 16
f 2 7 5
f 35 184 183
f 15 33 34
f 16 35 17
f 29 52 65
f 29 65 38
f 29 38 30
f 29 51 53
f 29 53 54
f 29 54 84
f 29 84 52
f 31 32 33
f 32 39 55
f 32 55 56
f 32 56 57
f 32 57 58
f 32 58 33
f 33 58 59
f 33 59 35
f 33 35 34
f 35 59 58
f 35 57 91
f 35 91 122
f 35 122 160
f 35 160 159
f 35 159 186
f 35 186 185
f 27 29 28
f 27 51 29
f 27 42 51
f 25 50 41
f 17 35 36
f 17 36 61
f 17 61 37
f 18 38 39
f 18 39 19
f 19 39 32
f 20 40 22
f 21 26 41
f 22 40 42
f 22 42 27
f 23 43 71
f 16 34 35
f 23 71 44
f 23 45 24
f 24 45 44
f 24 44 71
f 24 71 46
f 24 46 74
f 24 74 47
f 24 47 48
f 24 48 49
f 24 49 50
f 24 50 25
f 25 41 26
f 23 44 45
f 54 115 84
f 35 58 57
f 54 87 86
f 135 137 136
f 137 165 145
f 137 145 139
f 138 139 143
f 139 145 143
f 141 148 166
f 142 166 167
f 142 167 149
f 145 165 191
f 145 191 168
f 145 168 146
f 146 169 170
f 146 170 171
f 146 171 172
f 146 172 173
f 146 173 148
f 146 148 147
f 146 168 169
f 148 173 172
f 148 172 174
f 148 174 175
f 148 175 176
f 148 176 166
f 135 165 137
f 135 164 165
f 135 163 164
f 134 163 135
f 115 119 150
f 115 150 120
f 116 127 151
f 116 151 152
f 116 152 153
f 116 153 117
f 117 153 154
f 118 154 177
f 118 177 150
f 120 150 177
f 120 177 155
f 151 178 152
f 120 155 156
f 120 157 158
f 120 158 121
f 121 158 157
f 121 157 159
f 121 159 160
f 121 160 122
f 124 128 125
f 127 161 178
f 127 178 151
f 133 162 163
f 133 163 134
f 120 156 157
f 113 142 149
f 152 179 154
f 152 180 181
f 170 196 198
f 170 198 171
f 171 197 172
f 171 198 197
f 172 197 174
f 174 197 217
f 174 217 199
f 174 199 200
f 174 200 175
f 175 201 193
f 175 193 176
f 175 200 201
f 177 202 182
f 178 188 187
f 178 187 180
f 179 181 203
f 179 203 226
f 179 226 202
f 180 187 210
f 180 210 204
f 180 204 205
f 54 85 87
f 180 205 181
f 170 195 196
f 169 195 170
f 169 214 195
f 169 194 214
f 152 181 179
f 154 179 202
f 154 202 177
f 155 177 156
f 156 177 182
f 156 182 183
f 156 183 184
f 156 184 157
f 157 184 185
f 157 185 186
f 157 186 159
f 152 154 153
f 161 187 188
f 162 189 190
f 162 190 163
f 163 191 192
f 163 192 164
f 163 190 191
f 164 192 191
f 164 191 165
f 166 176 167
f 167 176 193
f 168 191 194
f 168 194 169
f 161 188 178
f 112 141 140
f 152 178 180
f 112 147 148
f 73 102 103
f 73 103 104
f 73 104 105
f 73 105 75
f 75 105 106
f 76 106 78
f 78 106 79
f 79 107 108
f 79 108 109
f 79 109 80
f 79 106 110
f 70 83 82
f 79 110 111
f 79 144 112
f 79 112 140
f 79 140 107
f 81 109 113
f 81 113 100
f 83 101 114
f 83 114 85
f 84 115 89
f 85 114 116
f 85 116 87
f 86 87 119
f 79 111 144
f 86 119 115
f 70 101 83
f 69 100 126
f 55 88 56
f 55 84 89
f 112 148 141
f 55 89 90
f 55 90 88
f 56 91 57
f 56 88 91
f 60 92 93
f 60 93 61
f 61 93 94
f 61 94 62
f 69 126 99
f 62 94 63
f 63 94 93
f 63 93 95
f 63 95 96
f 63 96 97
f 63 97 98
f 63 98 73
f 63 73 72
f 64 72 71
f 68 77 81
f 68 81 69
f 69 81 100
f 63 72 64
f 87 116 117
f 73 98 102
f 87 154 118
f 103 133 134
f 103 134 135
f 103 135 136
f 103 136 137
f 103 137 104
f 103 129 130
f 104 137 139
f 104 139 105
f 105 138 110
f 105 139 138
f 107 140 108
f 103 132 133
f 108 141 109
f 109 142 113
f 109 141 166
f 109 166 142
f 110 138 143
f 110 143 111
f 111 143 145
f 111 145 144
f 87 117 154
f 112 144 145
f 112 145 146
f 112 146 147
f 108 140 141
f 103 131 132
f 105 110 106
f 90 121 122
f 88 90 91
f 103 130 131
f 89 115 120
f 89 120 121
f 89 121 90
f 90 122 91
f 92 123 96
f 92 96 95
f 92 95 93
f 96 124 97
f 97 124 125
f 96 123 124
f 97 125 102
f 97 102 98
f 100 113 149
f 100 149 126
f 101 127 116
f 101 116 114
f 102 125 128
f 102 128 129
f 102 129 103
f 87 118 150
f 87 150 119

