# https://github.com/mikedh/trimesh
v -0.00144295 0.85210300 -0.06295020
v 0.76345200 -0.00154130 -0.06006380
v 0.83251300 -0.00154130 -0.06006380
v -0.00144295 -0.85355100 -0.06006380
v -0.00144295 -0.78449600 -0.06006380
v -0.00144295 -0.73629100 -0.14726300
v -0.00144295 -0.80643000 -0.11219600
v -0.00144295 -0.84846300 -0.07012820
v 0.08720980 -0.85355100 -0.06006380
v 0.07716900 -0.84846300 -0.07012820
v 0.18239300 -0.82744700 -0.07012820
v 0.19243400 -0.83245100 -0.06006380
v 0.31863800 -0.79041700 -0.06006380
v 0.30859700 -0.78533000 -0.07012820
v 0.34190300 -0.76781600 -0.07363670
v 0.30859700 -0.76431300 -0.09117040
v 0.24549500 -0.76431300 -0.11219600
v 0.25953600 -0.75030200 -0.11921200
v 0.18239300 -0.78533000 -0.11219600
v 0.07716900 -0.82744700 -0.09117040
v 0.05610790 -0.80643000 -0.11219600
v 0.14027100 -0.76431300 -0.13323800
v 0.15431200 -0.75030200 -0.14024600
v 0.19635200 -0.77131900 -0.11921200
v 0.21741300 -0.72928500 -0.14024600
v 0.14729100 -0.73629100 -0.14726300
v 0.27349500 -0.69417400 -0.14726300
v 0.28051500 -0.70818500 -0.14024600
v 0.29986200 -0.70468300 -0.13673800
v 0.40680000 -0.64513500 -0.14024600
v 0.42598400 -0.64163300 -0.13673800
v 0.42337200 -0.63112400 -0.14199600
v 0.39978000 -0.63112400 -0.14726300
v 0.58900400 -0.44172400 -0.14726300
v 0.57063700 -0.48384100 -0.14199600
v 0.59431000 -0.47333200 -0.13673800
v 0.51014700 -0.64163300 -0.09467030
v 0.59431000 -0.59951600 -0.07363670
v 0.48908600 -0.68366600 -0.07363670
v 0.54402400 -0.65214100 -0.06006380
v 0.59055500 -0.61311000 -0.06006380
v 0.61161600 -0.59209300 -0.06006380
v 0.65365700 -0.54255400 -0.06006380
v 0.67839100 -0.49434900 -0.07363670
v 0.63635100 -0.51536600 -0.09467030
v 0.63635100 -0.47333200 -0.11570400
v 0.63373800 -0.46282400 -0.12096200
v 0.65912600 -0.44172400 -0.11219600
v 0.65912600 -0.37875700 -0.13323800
v 0.63373800 -0.39977400 -0.14199600
v 0.59161600 -0.46282400 -0.14199600
v 0.63112600 -0.37875700 -0.14726300
v 0.67316700 -0.29460700 -0.14726300
v 0.71520700 -0.14732400 -0.14726300
v 0.69422800 -0.23147400 -0.14726300
v 0.70124800 -0.29460700 -0.13323800
v 0.72222800 -0.23147400 -0.13323800
v 0.74328900 -0.14732400 -0.13323800
v 0.76435000 -0.21045700 -0.11219600
v 0.78533000 -0.12630700 -0.11219600
v 0.78534900 -0.00154130 -0.11219600
v 0.74330000 0.14727800 -0.13323300
v 0.72578000 0.15780700 -0.14199800
v 0.71526700 0.14727800 -0.14725500
v 0.69416100 0.23142300 -0.14725500
v 0.70475500 0.24195100 -0.14199800
v 0.67313700 0.29459400 -0.14725500
v 0.65211200 0.33662400 -0.14725500
v 0.66262500 0.34715300 -0.14199800
v 0.56801400 0.46279900 -0.14725500
v 0.44178500 0.58897400 -0.14725500
v 0.57852600 0.47332800 -0.14199800
v 0.67313700 0.35768100 -0.13410800
v 0.58903800 0.48385600 -0.13410800
v 0.50485900 0.56800100 -0.13410800
v 0.45229700 0.59950300 -0.14199800
v 0.46280900 0.61003100 -0.13410800
v 0.39973600 0.65214500 -0.13410800
v 0.38922300 0.64161700 -0.14199800
v 0.34717400 0.66267400 -0.14199800
v 0.33666200 0.65214500 -0.14725500
v 0.37871100 0.63108800 -0.14725500
v 0.25248200 0.69417600 -0.14725500
v 0.26299400 0.70470400 -0.14199800
v 0.18940800 0.71523300 -0.14725500
v 0.08420370 0.73629000 -0.14725500
v 0.09471600 0.74681800 -0.14199800
v -0.00144295 0.73629000 -0.14725500
v -0.00144295 0.82745300 -0.09116730
v -0.00144295 0.76428200 -0.13323300
v 0.08420370 0.76428200 -0.13323300
v 0.18940800 0.74330900 -0.13323300
v 0.14727800 0.78533900 -0.11219600
v 0.02104850 0.82745300 -0.09116730
v 0.16830200 0.80639600 -0.09116730
v 0.16830200 0.82745300 -0.07013040
v 0.00002388 0.84851000 -0.07013040
v -0.00144295 0.84851000 -0.07013040
v 0.00002388 0.85210300 -0.06295020
v 0.16830200 0.83104600 -0.06295020
v 0.17449500 0.82945900 -0.06295020
v 0.25892000 0.80581100 -0.06295020
v 0.30072400 0.78742800 -0.06295020
v 0.29453100 0.78533900 -0.07013040
v 0.29453100 0.76428200 -0.09116730
v 0.23145700 0.76428200 -0.11219600
v 0.29453100 0.73629000 -0.11307100
v 0.33666200 0.74330900 -0.09116730
v 0.42067900 0.72225200 -0.07013040
v 0.37871100 0.72225200 -0.09116730
v 0.37871100 0.69417600 -0.11307100
v 0.38922300 0.70470400 -0.09993200
v 0.45229700 0.70470400 -0.06837250
v 0.46924700 0.70061000 -0.06295020
v 0.51537100 0.66267400 -0.06837250
v 0.53639500 0.62056000 -0.08941770
v 0.55334500 0.63752200 -0.06295020
v 0.61650100 0.57443500 -0.06295020
v 0.59955100 0.55747200 -0.08941770
v 0.50485900 0.61003100 -0.11307100
v 0.56801400 0.54694400 -0.11307100
v 0.58903800 0.52588700 -0.11307100
v 0.62057500 0.47332800 -0.12096100
v 0.62057500 0.49430100 -0.11044600
v 0.66262500 0.51535800 -0.06837250
v 0.67330000 0.50499700 -0.06295020
v 0.70068100 0.46923300 -0.06295020
v 0.72431300 0.42686900 -0.06295020
v 0.72227600 0.42076900 -0.07013040
v 0.70475500 0.45227100 -0.06837250
v 0.70475500 0.38926700 -0.09993200
v 0.72227600 0.37873800 -0.09116730
v 0.69416100 0.37873800 -0.11307100
v 0.66262500 0.41024000 -0.12096100
v 0.71526700 0.33662400 -0.11307100
v 0.74330000 0.33662400 -0.09116730
v 0.78534900 0.29459400 -0.07013040
v 0.78738700 0.30069400 -0.06295020
v 0.80841100 0.23760600 -0.06295020
v 0.80637400 0.23142300 -0.07013040
v 0.83106600 0.14727800 -0.06295020
v 0.83251300 -0.14732400 -0.06006380
v 0.82745200 -0.14732400 -0.07012820
v 0.82739900 0.14727800 -0.07013040
v 0.78534900 0.10524800 -0.11219600
v 0.80639100 -0.14732400 -0.09117040
v 0.78533000 -0.23147400 -0.09117040
v 0.80639100 -0.23147400 -0.07012820
v 0.76435000 -0.29460700 -0.09117040
v 0.78533000 -0.29460700 -0.07012820
v 0.81145200 -0.23147400 -0.06006380
v 0.79039100 -0.29460700 -0.06006380
v 0.78296200 -0.31253800 -0.06006380
v 0.70124800 -0.46282400 -0.07012820
v 0.70124800 -0.42079100 -0.09117040
v 0.69569700 -0.48684300 -0.06006380
v 0.45994300 -0.71527400 -0.06006380
v 0.48533100 -0.69726000 -0.06006380
v 0.47308600 -0.70643400 -0.06006380
v 0.42598400 -0.72578300 -0.07363670
v 0.44704500 -0.66264900 -0.11570400
v 0.38394300 -0.72578300 -0.09467030
v 0.34190300 -0.74679900 -0.09467030
v 0.27880100 -0.74679900 -0.11570400
v 0.33814800 -0.78141000 -0.06006380
v 0.42222900 -0.73929300 -0.06006380
v 0.43292300 -0.73320500 -0.06006380
v 0.67839100 -0.45223200 -0.09467030
v 0.67577900 -0.31562400 -0.14199600
v 0.74328900 -0.27350700 -0.11219600
v 0.76432500 0.21044900 -0.11219600
v 0.78534900 0.23142300 -0.09116730
v 0.74330000 0.27353700 -0.11219600
v 0.75731700 0.23142300 -0.11307100
v 0.74680400 0.22097800 -0.12096100
v 0.71526700 0.25248000 -0.13410800
v 0.68364900 0.30512200 -0.14199800
v 0.69416100 0.31556700 -0.13410800
v 0.42687200 0.72425700 -0.06295020
v 0.27350700 0.71523300 -0.13410800
v 0.21043300 0.73629000 -0.13410800
v 0.19992000 0.72576100 -0.14199800
f 2 3 1
f 154 153 156
f 154 156 44
f 154 44 155
f 154 155 149
f 154 149 150
f 154 150 153
f 153 150 152
f 151 152 150
f 153 152 156
f 151 142 152
f 148 143 151
f 148 151 150
f 148 150 149
f 148 147 143
f 146 143 147
f 146 147 59
f 146 59 60
f 146 60 61
f 143 142 151
f 156 152 42
f 43 156 42
f 43 44 156
f 164 162 163
f 163 162 160
f 161 160 162
f 161 162 31
f 161 31 37
f 161 37 39
f 161 39 160
f 39 157 160
f 159 158 157
f 159 157 39
f 159 39 158
f 158 39 40
f 158 40 157
f 40 42 157
f 157 42 13
f 13 42 4
f 42 3 4
f 142 3 152
f 152 3 42
f 146 61 143
f 164 31 162
f 143 61 145
f 143 144 141
f 130 129 131
f 130 131 127
f 130 127 129
f 129 127 128
f 128 127 3
f 126 118 3
f 126 3 127
f 126 127 125
f 131 129 132
f 126 125 118
f 124 122 119
f 124 119 125
f 124 125 123
f 124 123 122
f 122 123 74
f 122 74 121
f 122 121 119
f 120 119 121
f 125 119 118
f 131 132 133
f 131 133 134
f 131 134 123
f 143 141 142
f 141 3 142
f 139 3 141
f 139 141 140
f 139 140 137
f 139 137 138
f 139 138 3
f 128 3 138
f 128 138 137
f 129 128 137
f 129 137 132
f 132 137 136
f 132 136 135
f 133 132 135
f 133 135 73
f 133 73 134
f 134 73 123
f 125 127 123
f 131 123 127
f 143 145 144
f 164 29 31
f 164 18 29
f 164 163 18
f 179 109 103
f 179 103 3
f 179 3 114
f 116 77 78
f 121 75 77
f 121 74 75
f 74 123 73
f 140 141 144
f 179 114 109
f 177 66 67
f 177 69 73
f 177 73 178
f 135 178 73
f 136 137 173
f 135 136 173
f 135 173 178
f 174 178 173
f 176 178 174
f 177 67 69
f 109 104 103
f 112 78 111
f 78 107 111
f 7 6 21
f 100 96 97
f 108 111 107
f 180 78 80
f 84 180 80
f 95 96 102
f 95 102 106
f 95 106 93
f 106 92 93
f 106 181 92
f 182 92 181
f 87 92 182
f 87 182 85
f 84 85 182
f 84 182 180
f 180 182 181
f 180 181 106
f 180 106 107
f 180 107 78
f 176 177 178
f 176 66 177
f 63 64 66
f 63 171 62
f 169 56 50
f 49 50 56
f 49 56 155
f 49 155 48
f 46 48 155
f 46 155 168
f 155 44 168
f 9 13 4
f 166 157 13
f 167 160 157
f 167 157 166
f 167 166 160
f 165 160 166
f 165 166 13
f 165 13 15
f 165 15 160
f 15 163 160
f 16 163 15
f 16 18 163
f 169 53 56
f 120 121 77
f 169 50 53
f 170 149 56
f 175 171 63
f 175 63 66
f 175 66 176
f 175 176 174
f 175 174 171
f 172 171 174
f 172 174 173
f 172 173 137
f 172 137 140
f 172 140 144
f 172 144 171
f 145 171 144
f 145 62 171
f 145 61 62
f 46 168 44
f 59 147 149
f 59 56 57
f 170 56 59
f 170 59 149
f 149 155 56
f 120 77 116
f 148 149 147
f 117 119 116
f 45 46 44
f 45 44 38
f 38 44 43
f 38 43 42
f 41 38 42
f 41 42 40
f 41 40 38
f 38 40 39
f 45 38 46
f 38 39 37
f 36 37 31
f 32 36 31
f 32 35 36
f 32 33 35
f 33 34 35
f 33 27 34
f 28 27 33
f 30 28 33
f 38 37 36
f 46 38 36
f 47 46 36
f 47 48 46
f 58 62 61
f 58 61 60
f 58 60 59
f 58 59 57
f 58 57 55
f 55 57 56
f 55 56 53
f 55 53 54
f 53 34 54
f 52 34 53
f 52 53 50
f 52 50 51
f 52 51 34
f 51 35 34
f 51 36 35
f 47 36 51
f 47 51 50
f 47 50 49
f 47 49 48
f 30 33 32
f 30 32 31
f 30 31 29
f 30 29 28
f 17 18 16
f 17 16 11
f 14 11 16
f 14 16 15
f 14 15 13
f 14 13 11
f 12 11 13
f 12 13 9
f 12 9 11
f 11 9 10
f 10 9 8
f 8 9 4
f 8 4 7
f 7 4 6
f 6 4 1
f 5 2 1
f 5 1 4
f 5 4 2
f 2 4 3
f 17 19 18
f 58 63 62
f 17 11 19
f 11 10 20
f 28 29 18
f 28 18 25
f 28 25 27
f 25 26 27
f 26 6 27
f 120 116 119
f 23 22 21
f 23 21 26
f 23 26 25
f 23 25 18
f 24 23 18
f 24 18 19
f 24 19 23
f 23 19 22
f 22 19 21
f 20 21 19
f 20 7 21
f 8 7 20
f 10 8 20
f 11 20 19
f 58 64 63
f 26 21 6
f 58 55 54
f 101 3 102
f 101 102 96
f 101 96 100
f 101 100 3
f 99 1 3
f 99 3 100
f 99 100 97
f 99 97 1
f 102 3 103
f 98 89 1
f 98 97 89
f 91 90 89
f 94 91 89
f 94 89 97
f 94 97 96
f 94 96 95
f 94 95 93
f 94 93 91
f 98 1 97
f 104 102 103
f 105 102 104
f 105 106 102
f 58 54 64
f 117 118 119
f 117 3 118
f 117 114 3
f 115 114 117
f 115 117 116
f 115 116 78
f 115 78 112
f 113 115 112
f 113 114 115
f 113 109 114
f 110 109 113
f 110 113 112
f 110 112 111
f 110 111 108
f 110 108 109
f 108 104 109
f 105 104 108
f 105 108 107
f 91 93 92
f 91 92 87
f 105 107 106
f 87 88 90
f 79 80 78
f 79 78 76
f 76 78 77
f 76 77 75
f 76 75 72
f 72 75 74
f 72 74 73
f 72 73 69
f 72 70 71
f 71 70 54
f 68 54 70
f 68 70 69
f 68 69 67
f 68 67 54
f 65 54 67
f 65 67 66
f 65 66 64
f 91 87 90
f 65 64 54
f 79 81 80
f 82 81 79
f 72 69 70
f 82 71 54
f 90 88 89
f 89 88 1
f 82 54 81
f 88 6 1
f 27 6 34
f 54 34 6
f 86 54 88
f 86 88 87
f 86 87 85
f 86 85 54
f 54 6 88
f 83 54 85
f 83 85 84
f 83 84 80
f 83 80 81
f 83 81 54
f 76 72 71
f 79 76 71
f 82 79 71

