# https://github.com/mikedh/trimesh
v 0.35870800 0.89879000 0.12493000
v 0.35870800 0.89879000 0.12332300
v 0.35870800 0.89596900 0.13862500
v 0.36818700 0.89408900 0.13672300
v 0.39974300 0.88355200 0.12622000
v 0.35870800 0.87778100 0.08124200
v 0.41377200 0.87654900 0.11920300
v 0.35870800 0.88335700 0.14704500
v 0.51543300 0.80992400 0.15777500
v 0.42780200 0.86954600 0.13323700
v 0.53295900 0.80642300 0.15426600
v 0.36818700 0.87304800 0.07888790
v 0.35870800 0.84840800 0.03556230
v 0.45581800 0.85550800 0.11920300
v 0.45232100 0.85200600 0.09991680
v 0.35870800 0.86251100 0.14724900
v 0.52596500 0.77837900 0.16830100
v 0.52246800 0.79591800 0.16479200
v 0.46984800 0.84850500 0.13323700
v 0.55752100 0.78888300 0.15777500
v 0.54698800 0.79942000 0.14724900
v 0.38921000 0.85200600 0.05783620
v 0.37867800 0.82746400 0.01403530
v 0.35870800 0.83569900 0.01815510
v 0.49441000 0.83096500 0.12094600
v 0.56101800 0.79238500 0.14023200
v 0.45232100 0.80992400 0.03682990
v 0.41023300 0.83096500 0.03682990
v 0.53649800 0.78888300 0.07888790
v 0.35870800 0.84814800 0.14018700
v 0.72578900 0.57853700 0.16302600
v 0.51543300 0.76784200 0.16302600
v 0.75734500 0.56761100 0.16830100
v 0.54698800 0.77837900 0.16830100
v 0.62059000 0.74683300 0.15777500
v 0.57155000 0.78188000 0.15075800
v 0.37867800 0.78538200 -0.02804530
v 0.35870800 0.82081800 0.00072525
v 0.42076600 0.80642300 0.01403530
v 0.46285400 0.72229100 -0.04907430
v 0.62059000 0.74683300 0.12094600
v 0.65913900 0.72229100 0.15426600
v 0.49441000 0.76784200 0.01577830
v 0.59956700 0.72582500 0.05783620
v 0.57850200 0.72582500 0.03682990
v 0.35870800 0.65261800 -0.06295020
v 0.37914100 0.63157700 -0.06295020
v 0.36818700 0.83096500 0.13147200
v 0.72073400 0.56761100 0.14998800
v 0.73590100 0.56761100 0.16010600
v 0.73644800 0.56761100 0.16042300
v 0.75936700 0.56761100 0.16789300
v 0.75734500 0.56803200 0.16830100
v 0.63112200 0.71528800 0.16830100
v 0.64864900 0.71178600 0.16479200
v 0.37867800 0.76434000 -0.04907430
v 0.35870800 0.77873500 -0.04135530
v 0.46285400 0.76434000 -0.00699367
v 0.49441000 0.72582500 -0.02627970
v 0.49441000 0.70478300 -0.04733130
v 0.47338700 0.70478300 -0.05783450
v 0.46930000 0.70069800 -0.06295020
v 0.42691700 0.72436600 -0.06295020
v 0.68020400 0.70128200 0.15426600
v 0.66267800 0.70478300 0.12094600
v 0.66267800 0.68374200 0.07888790
v 0.64161300 0.70478300 0.07888790
v 0.55752100 0.70478300 -0.00525069
v 0.72578900 0.59957800 0.05783620
v 0.35870800 0.75681900 -0.06295020
v 0.46327500 0.56845400 -0.06295020
v 0.50536300 0.56761100 -0.06295020
v 0.77794700 0.56761100 0.16169100
v 0.71525700 0.63115600 0.16830100
v 0.69423400 0.65219700 0.16830100
v 0.71176000 0.64866300 0.16479200
v 0.38482900 0.74537400 -0.06295020
v 0.35870800 0.75769400 -0.06238430
v 0.55752100 0.68374200 -0.02627970
v 0.57850200 0.64166000 -0.04733130
v 0.55343400 0.63757500 -0.06295020
v 0.72225000 0.65920000 0.15426600
v 0.72578900 0.64166000 0.12094600
v 0.68370100 0.66270100 0.07888790
v 0.59956700 0.62061900 -0.04733130
v 0.74681200 0.62061900 0.12094600
v 0.76783500 0.57853700 0.09991680
v 0.72578900 0.57853700 0.03682990
v 0.66267800 0.57853700 -0.02627970
v 0.61793600 0.56761100 -0.06295020
v 0.78687800 0.56761100 0.15573800
v 0.78536200 0.57503500 0.15426600
v 0.74681200 0.62061900 0.15777500
v 0.59548000 0.59552500 -0.06295020
v 0.62059000 0.59957800 -0.04733130
v 0.78911100 0.56761100 0.14684200
v 0.78414000 0.56761100 0.12950200
v 0.78384500 0.56761100 0.12855200
v 0.77310200 0.56803200 0.10254300
v 0.77310200 0.56761100 0.10213500
v 0.73105600 0.56803200 0.03945570
v 0.73084500 0.56761100 0.03895770
v 0.71567800 0.56761100 0.02125620
v 0.71538300 0.56761100 0.02091670
v 0.67333700 0.56761100 -0.02116390
v 0.67278900 0.56761100 -0.02163930
v 0.63799000 0.56761100 -0.04934590
v 0.61650300 0.57448400 -0.06295020
f 46 77 63
f 46 63 62
f 46 70 77
f 46 81 94
f 46 94 108
f 44 69 68
f 46 108 90
f 46 90 72
f 46 72 71
f 46 71 47
f 46 62 81
f 54 75 55
f 47 49 48
f 49 71 72
f 52 73 74
f 52 74 53
f 55 75 76
f 55 76 64
f 56 63 77
f 56 77 78
f 59 68 60
f 60 62 61
f 60 68 79
f 47 71 49
f 44 66 69
f 40 62 63
f 44 68 45
f 34 55 35
f 60 79 80
f 35 55 42
f 35 42 36
f 37 56 78
f 37 78 57
f 37 40 56
f 39 43 58
f 39 58 40
f 40 58 59
f 40 59 60
f 40 60 61
f 40 61 62
f 40 63 56
f 41 42 64
f 41 64 65
f 41 65 66
f 41 66 67
f 41 67 44
f 42 55 64
f 43 59 58
f 43 45 68
f 43 68 59
f 44 67 66
f 60 80 81
f 85 95 108
f 64 76 82
f 85 89 95
f 86 92 96
f 86 96 97
f 86 97 87
f 87 97 98
f 87 98 99
f 87 99 100
f 87 100 88
f 88 100 101
f 88 101 102
f 88 102 103
f 88 103 104
f 88 104 105
f 88 105 89
f 89 105 106
f 89 106 107
f 89 107 108
f 89 108 95
f 90 108 107
f 91 96 92
f 98 100 99
f 100 102 101
f 34 54 55
f 85 108 94
f 60 81 62
f 82 92 86
f 81 85 94
f 64 82 86
f 64 86 83
f 64 83 65
f 65 83 66
f 66 83 86
f 66 86 84
f 66 84 69
f 68 69 85
f 68 85 79
f 69 84 86
f 69 86 87
f 69 87 88
f 69 88 89
f 69 89 85
f 70 78 77
f 73 91 92
f 73 92 93
f 73 93 76
f 73 76 74
f 74 76 75
f 76 93 82
f 79 85 80
f 80 85 81
f 82 93 92
f 33 52 53
f 14 26 25
f 33 91 73
f 7 15 12
f 8 16 17
f 8 17 18
f 8 18 9
f 9 18 11
f 10 11 19
f 11 18 20
f 11 20 36
f 11 36 21
f 11 21 19
f 7 14 15
f 12 22 23
f 12 15 22
f 13 23 24
f 14 25 15
f 14 19 26
f 15 27 28
f 15 28 22
f 15 25 29
f 15 29 27
f 16 30 31
f 16 31 32
f 12 23 13
f 7 19 14
f 7 10 19
f 6 7 12
f 1 2 6
f 1 6 13
f 1 13 24
f 1 24 38
f 1 38 57
f 1 57 78
f 1 78 70
f 1 70 46
f 1 46 30
f 1 30 16
f 1 16 8
f 1 8 3
f 1 3 4
f 1 4 5
f 1 5 2
f 2 5 7
f 2 7 6
f 3 8 9
f 4 10 5
f 4 9 11
f 4 11 10
f 5 10 7
f 6 12 13
f 16 32 17
f 17 32 33
f 3 9 4
f 17 53 74
f 30 47 48
f 30 48 49
f 30 49 31
f 31 49 50
f 31 50 51
f 31 51 33
f 31 33 32
f 33 51 50
f 33 50 49
f 33 49 72
f 33 72 90
f 33 90 107
f 33 107 106
f 33 106 105
f 33 105 104
f 33 104 103
f 33 103 102
f 33 102 100
f 33 100 98
f 33 98 97
f 33 97 96
f 33 96 91
f 17 33 53
f 30 46 47
f 29 45 43
f 33 73 52
f 29 41 44
f 29 44 45
f 17 75 54
f 17 54 34
f 17 34 18
f 18 34 20
f 19 21 26
f 20 34 35
f 20 35 36
f 21 36 26
f 22 28 23
f 17 74 75
f 23 57 38
f 23 37 57
f 23 28 27
f 23 27 39
f 23 39 40
f 23 40 37
f 25 26 41
f 25 41 29
f 26 36 42
f 26 42 41
f 27 43 39
f 27 29 43
f 23 38 24

