# https://github.com/mikedh/trimesh
v -0.96769900 -0.12625800 0.10517000
v -0.96070000 -0.12625800 0.11920000
v -0.96121000 -0.00154130 0.11817900
v -0.96769900 -0.00154130 0.10517000
v -0.96694800 -0.00154130 0.10363800
v -0.95370100 -0.13324400 0.07712950
v -0.94667200 -0.23139300 0.10517000
v -0.95718500 -0.13675400 0.12095600
v -0.94667200 -0.12625800 0.12622500
v -0.96070000 -0.00154130 0.11920000
v -0.93967300 -0.23139300 0.11920000
v -0.93615800 -0.24192300 0.12095600
v -0.95370100 -0.00154130 0.07712950
v -0.93967300 -0.09817590 0.04906880
v -0.91161700 -0.07012850 -0.00701173
v -0.93264400 -0.11221700 0.03505890
v -0.91161700 -0.17533200 0.01404400
v -0.93264400 -0.23841300 0.07712950
v -0.92915900 -0.25593000 0.08064220
v -0.92564500 -0.29450800 0.10517000
v -0.93967300 -0.24543400 0.11219500
v -0.94667200 -0.00154130 0.12622500
v -0.92564500 -0.23139300 0.12622500
v -0.91513100 -0.30503900 0.12095600
v -0.93967300 -0.00154130 0.04906880
v -0.91161700 -0.00154130 -0.00701173
v -0.89059000 -0.11221700 -0.02804700
v -0.89059000 -0.19632500 -0.00701173
v -0.89059000 -0.25944000 0.01404400
v -0.89407500 -0.28397700 0.03154620
v -0.89407500 -0.32606600 0.05258150
v -0.90810200 -0.31904500 0.08064220
v -0.90458800 -0.35311500 0.10517000
v -0.91861600 -0.30854900 0.11219500
v -0.92564500 -0.04208100 0.12622500
v -0.91513100 -0.01052340 0.11568700
v -0.91690400 -0.00154130 0.11391100
v -0.90458800 -0.29450800 0.12622500
v -0.89758900 -0.35311500 0.11920000
v -0.89458500 -0.35311500 0.12071100
v -0.88356100 -0.35311500 0.12622500
v -0.89059000 -0.00154130 -0.02804700
v -0.84850600 -0.15430500 -0.07011760
v -0.84850600 -0.23841300 -0.04908230
v -0.86953300 -0.28046700 -0.00701173
v -0.88707600 -0.27699100 0.01753630
v -0.89059000 -0.30152800 0.03505890
v -0.88707600 -0.31904500 0.03855110
v -0.87304800 -0.34709300 0.03154620
v -0.89287300 -0.35311500 0.07482170
v -0.90308600 -0.35311500 0.10819200
v -0.91161700 -0.04910150 0.11920000
v -0.86253400 -0.33659600 0.12622500
v -0.84850600 -0.34358200 0.11920000
v -0.76085400 -0.00154130 -0.08241210
v -0.85202100 -0.30503900 0.11568700
v -0.66085600 -0.34526900 -0.08241210
v -0.86253400 -0.35311500 0.12622500
v -0.84850600 -0.00154130 -0.07011760
v -0.83183500 -0.14553000 -0.08241210
v -0.82922200 -0.15602600 -0.08241210
v -0.81083800 -0.22967200 -0.08241210
v -0.82744900 -0.23841300 -0.07011760
v -0.80645300 -0.30152800 -0.07011760
v -0.82744900 -0.30152800 -0.04908230
v -0.82744900 -0.34358200 -0.02804700
v -0.86953300 -0.32255500 0.01404400
v -0.87304800 -0.30503900 0.01053130
v -0.82270300 -0.35311500 -0.02328860
v -0.87004400 -0.35311500 0.03454830
v -0.85799800 -0.35311500 0.12395900
v -0.84850600 -0.35311500 0.11920000
v -0.83901400 -0.35311500 0.10970400
v -0.83183500 -0.00154130 -0.08241210
v -0.66085600 -0.35311500 -0.08241210
v -0.80819500 -0.24016800 -0.08241210
v -0.78716800 -0.30328400 -0.08241210
v -0.78542600 -0.34358200 -0.07011760
v -0.80645300 -0.34358200 -0.04908230
v -0.80170600 -0.35311500 -0.04432390
v -0.76097400 -0.35311500 -0.08241210
v -0.76614100 -0.34533800 -0.08241210
v -0.78068000 -0.35311500 -0.06535920
f 35 53 54
f 36 57 55
f 35 54 52
f 36 55 37
f 36 52 54
f 36 54 56
f 36 56 57
f 43 59 74
f 44 65 45
f 43 60 61
f 43 61 62
f 43 62 63
f 43 63 44
f 44 63 64
f 44 64 65
f 35 52 36
f 43 74 60
f 34 51 39
f 31 48 49
f 33 39 51
f 45 65 66
f 31 49 50
f 31 50 32
f 32 50 33
f 33 50 70
f 33 70 69
f 33 69 80
f 33 80 83
f 33 83 81
f 33 81 75
f 33 75 73
f 33 73 72
f 33 72 71
f 33 71 58
f 33 58 41
f 33 41 40
f 33 40 39
f 33 51 34
f 45 66 67
f 78 80 79
f 45 49 68
f 55 61 60
f 55 60 74
f 57 73 75
f 62 76 63
f 63 76 64
f 64 77 82
f 64 82 78
f 64 78 79
f 64 79 66
f 64 66 65
f 64 76 77
f 66 79 80
f 66 80 69
f 78 82 81
f 78 81 83
f 78 83 80
f 31 47 48
f 55 62 61
f 45 67 49
f 55 76 62
f 55 82 77
f 45 68 47
f 45 47 46
f 47 68 49
f 47 49 48
f 49 69 70
f 49 70 50
f 49 67 66
f 49 66 69
f 53 58 71
f 53 71 54
f 54 57 56
f 54 71 72
f 54 72 73
f 54 73 57
f 55 57 75
f 55 75 81
f 55 81 82
f 55 77 76
f 30 47 31
f 18 31 19
f 29 46 47
f 3 25 13
f 3 13 5
f 3 5 4
f 5 13 6
f 6 13 25
f 6 25 14
f 6 14 15
f 3 26 25
f 6 15 16
f 6 17 18
f 6 18 7
f 7 18 19
f 7 19 20
f 7 20 21
f 7 21 11
f 8 12 9
f 6 16 17
f 3 42 26
f 3 59 42
f 3 74 59
f 29 47 30
f 1 2 3
f 1 3 4
f 1 4 5
f 1 5 6
f 1 6 7
f 1 7 11
f 1 11 2
f 2 8 9
f 2 9 22
f 2 22 10
f 2 10 3
f 2 12 8
f 3 10 22
f 3 22 37
f 3 37 55
f 3 55 74
f 9 12 23
f 9 23 38
f 2 11 12
f 9 41 58
f 20 33 34
f 20 34 21
f 21 34 24
f 22 35 36
f 22 36 37
f 23 24 38
f 24 34 39
f 24 39 40
f 24 40 41
f 27 43 44
f 27 44 28
f 27 42 59
f 27 59 43
f 28 44 29
f 29 44 45
f 9 38 41
f 29 45 46
f 20 32 33
f 19 32 20
f 24 41 38
f 12 24 23
f 9 58 53
f 9 35 22
f 11 21 12
f 12 21 24
f 14 25 26
f 14 26 15
f 9 53 35
f 15 42 27
f 15 26 42
f 15 17 16
f 17 27 28
f 17 28 29
f 17 29 18
f 18 29 30
f 18 30 31
f 15 27 17
f 19 31 32

