# https://github.com/mikedh/trimesh
v -0.90461600 -0.35764200 0.10517000
v -0.89757200 -0.37167900 0.11219500
v -0.89406600 -0.36819000 0.12095600
v -0.89757200 -0.35764200 0.11920000
v -0.90310400 -0.35315700 0.10819200
v -0.90461600 -0.35315700 0.10517000
v -0.89287600 -0.35315700 0.07482170
v -0.88705500 -0.38218600 0.08064220
v -0.87303200 -0.41026000 0.07361680
v -0.89056100 -0.38571600 0.09816480
v -0.82745600 -0.51192400 0.09816480
v -0.83446800 -0.49792900 0.11219500
v -0.86251400 -0.39975300 0.12622500
v -0.88354900 -0.35764200 0.12622500
v -0.89458100 -0.35315700 0.12071100
v -0.83096200 -0.49439900 0.12095600
v -0.89757200 -0.35315700 0.11920000
v -0.87004000 -0.35315700 0.03454830
v -0.85199700 -0.43127400 0.05258150
v -0.83096200 -0.47338500 0.05258150
v -0.83096200 -0.49439900 0.07361680
v -0.78889300 -0.55752400 0.07361680
v -0.78538700 -0.57500800 0.09816480
v -0.79239800 -0.56101200 0.11219500
v -0.78889300 -0.55752400 0.12095600
v -0.82044500 -0.48389200 0.12622500
v -0.88354900 -0.35315700 0.12622500
v -0.82269600 -0.35315700 -0.02328860
v -0.83096200 -0.36819000 -0.01050400
v -0.82745600 -0.38571600 -0.00701173
v -0.83096200 -0.41026000 0.01053130
v -0.78889300 -0.49439900 0.01053130
v -0.78889300 -0.51545400 0.03154620
v -0.74682300 -0.55752400 0.01053130
v -0.74682300 -0.57849600 0.03154620
v -0.72582000 -0.62060700 0.05258150
v -0.68375100 -0.68369100 0.07361680
v -0.69777400 -0.67667200 0.10167700
v -0.72582000 -0.64162100 0.12095600
v -0.77837500 -0.54701700 0.12622500
v -0.86251400 -0.35315700 0.12622500
v -0.78062700 -0.35315700 -0.06535920
v -0.76785800 -0.36819000 -0.07363030
v -0.76435200 -0.38571600 -0.07011760
v -0.72231500 -0.46985500 -0.07011760
v -0.78538700 -0.46985500 -0.00701173
v -0.70478600 -0.49439900 -0.07363030
v -0.72582000 -0.55752400 -0.01050400
v -0.68375100 -0.66267700 0.05258150
v -0.64164900 -0.70474600 0.05258150
v -0.62061400 -0.72576000 0.05258150
v -0.63814300 -0.72227200 0.07712950
v -0.59607400 -0.76434100 0.09816480
v -0.64164900 -0.72576000 0.09465210
v -0.67673900 -0.69772800 0.10167700
v -0.68725700 -0.68722100 0.11219500
v -0.70478600 -0.66267700 0.12095600
v -0.71530300 -0.63111400 0.12622500
v -0.84849100 -0.35315700 0.11920000
v -0.58906200 -0.71525300 0.12622500
v -0.57603600 -0.71787000 0.12361100
v -0.76094300 -0.35315700 -0.08241210
v -0.75907700 -0.35938600 -0.08241210
v -0.73807500 -0.40145600 -0.08241210
v -0.71704000 -0.44356700 -0.08241210
v -0.72582000 -0.45232900 -0.07363030
v -0.70037900 -0.46898300 -0.08241210
v -0.67497000 -0.50665000 -0.08241210
v -0.64164900 -0.57849600 -0.07363030
v -0.68375100 -0.55752400 -0.05257460
v -0.59958000 -0.62060700 -0.07363030
v -0.62061400 -0.70474600 0.03154620
v -0.59958000 -0.72576000 0.03154620
v -0.57854500 -0.76787100 0.07361680
v -0.57603600 -0.77738200 0.10619100
v -0.64164900 -0.72576000 0.12095600
v -0.66268400 -0.70474600 0.12095600
v -0.65216600 -0.69423900 0.12622500
v -0.67323300 -0.67318400 0.12622500
v -0.83096200 -0.36819000 0.11568700
v -0.83900300 -0.35315700 0.10970400
v -0.57603600 -0.73630900 0.12622500
v -0.57603600 -0.70973000 0.11819900
v -0.66088300 -0.35315700 -0.08241210
v -0.63727500 -0.55312200 -0.08241210
v -0.62939500 -0.56101200 -0.08241210
v -0.57603600 -0.63763500 -0.06960710
v -0.57854500 -0.66267700 -0.05257460
v -0.57854500 -0.70474600 -0.01050400
v -0.58468800 -0.60569800 -0.08241210
v -0.57603600 -0.61429500 -0.08241210
v -0.57854500 -0.72576000 0.01053130
v -0.57603600 -0.76787100 0.07361680
v -0.57603600 -0.76911700 0.07612880
v -0.57603600 -0.77435000 0.11480900
v -0.58205100 -0.77136000 0.11219500
v -0.57603600 -0.77036300 0.12032300
v -0.57854500 -0.76787100 0.12095600
v -0.63113200 -0.71525300 0.12622500
v -0.61881300 -0.40843300 -0.08241210
v -0.57603600 -0.70524500 0.11519700
v -0.58906200 -0.73630900 0.12622500
v -0.57603600 -0.76533800 0.12220200
v -0.57603600 -0.66267700 -0.05257460
v -0.57603600 -0.70225500 -0.01301600
v -0.57603600 -0.48248000 -0.08241210
v -0.57603600 -0.72576000 0.01053130
v -0.57671100 -0.47155800 -0.08241210
f 53 55 54
f 59 80 81
f 59 61 80
f 57 79 58
f 57 77 78
f 55 76 56
f 56 77 57
f 56 76 77
f 60 82 61
f 57 78 79
f 61 82 103
f 61 105 104
f 61 97 95
f 61 95 75
f 61 75 94
f 61 94 93
f 61 93 107
f 61 107 105
f 61 104 87
f 61 87 91
f 61 106 101
f 53 76 55
f 61 91 106
f 61 103 97
f 53 75 76
f 43 66 45
f 52 74 53
f 42 62 43
f 61 101 83
f 43 62 63
f 43 63 64
f 43 64 65
f 43 65 66
f 43 45 44
f 45 66 47
f 45 47 46
f 47 66 65
f 47 65 67
f 47 67 68
f 47 68 69
f 47 69 70
f 47 70 48
f 48 70 49
f 49 71 72
f 49 72 50
f 49 70 71
f 50 72 73
f 50 73 51
f 51 73 74
f 51 74 52
f 53 74 75
f 61 83 80
f 88 104 105
f 62 100 108
f 75 95 96
f 75 96 76
f 76 96 95
f 76 95 97
f 76 97 98
f 76 98 99
f 76 99 78
f 76 78 77
f 80 100 84
f 80 84 81
f 80 83 101
f 80 101 100
f 82 102 103
f 87 104 88
f 88 105 89
f 89 105 92
f 92 105 107
f 97 103 98
f 98 103 99
f 99 103 102
f 100 101 108
f 101 106 108
f 41 61 59
f 74 107 93
f 62 84 100
f 74 92 107
f 74 93 94
f 62 108 106
f 62 106 91
f 62 91 90
f 62 90 86
f 62 86 85
f 62 85 68
f 62 68 67
f 62 67 65
f 62 65 64
f 62 64 63
f 68 85 69
f 69 85 86
f 69 86 71
f 69 71 70
f 71 87 88
f 71 88 89
f 71 89 72
f 71 86 90
f 71 90 91
f 71 91 87
f 72 89 73
f 73 92 74
f 73 89 92
f 74 94 75
f 41 60 61
f 1 7 8
f 39 56 57
f 5 42 28
f 5 28 18
f 5 18 7
f 5 7 6
f 7 18 8
f 8 18 9
f 9 18 19
f 9 19 20
f 9 20 21
f 9 21 11
f 5 62 42
f 9 11 10
f 11 22 23
f 11 23 24
f 11 24 12
f 12 24 25
f 12 25 16
f 13 26 40
f 13 40 58
f 13 58 79
f 13 79 78
f 13 78 99
f 11 21 22
f 5 84 62
f 5 81 84
f 5 59 81
f 39 57 58
f 1 2 3
f 1 3 4
f 1 4 5
f 1 5 6
f 1 6 7
f 1 8 9
f 1 9 10
f 1 10 11
f 1 11 12
f 1 12 2
f 2 12 3
f 3 13 14
f 3 15 4
f 3 12 16
f 3 16 26
f 3 26 13
f 4 15 17
f 4 17 5
f 5 17 15
f 5 15 27
f 5 27 41
f 5 41 59
f 13 99 102
f 13 102 82
f 3 14 15
f 13 60 41
f 29 43 30
f 30 43 44
f 30 44 45
f 30 45 46
f 30 46 32
f 30 32 31
f 32 46 47
f 32 47 48
f 32 48 34
f 32 34 33
f 34 48 36
f 34 36 35
f 36 49 37
f 36 48 49
f 37 49 50
f 37 51 52
f 37 52 53
f 37 53 54
f 37 54 55
f 37 55 38
f 38 55 56
f 13 82 60
f 38 56 39
f 28 43 29
f 28 42 43
f 37 50 51
f 25 39 58
f 13 27 14
f 25 58 40
f 13 41 27
f 14 27 15
f 16 25 40
f 16 40 26
f 18 28 29
f 18 30 31
f 18 31 19
f 19 31 20
f 20 31 32
f 20 32 33
f 18 29 30
f 22 37 23
f 20 33 22
f 23 37 38
f 22 33 34
f 23 38 39
f 22 36 37
f 23 39 24
f 24 39 25
f 22 35 36
f 22 34 35
f 20 22 21

