# https://github.com/mikedh/trimesh
v 0.50533500 0.54738700 -0.06295020
v 0.72580500 0.55747100 0.15250100
v 0.72078100 0.56761100 0.14998800
v 0.50533500 0.56761100 -0.06295020
v 0.75766900 -0.00148558 -0.06295020
v 0.91658300 -0.00154130 0.14571000
v 0.91794100 -0.00154130 0.14706800
v 0.93265100 -0.00154130 0.16128300
v 0.74680600 0.53641200 0.16302600
v 0.73594400 0.56761100 0.16010600
v 0.61799200 0.56761100 -0.06295020
v 0.77369200 -0.00154130 -0.06295020
v 0.77034300 -0.00154130 -0.05661210
v 0.94668200 -0.00154130 0.16830100
v 0.75735200 0.54694200 0.16830100
v 0.73648700 0.56761100 0.16042300
v 0.63804300 0.56761100 -0.04934590
v 0.67334700 0.50499100 -0.06295020
v 0.83103800 -0.00154130 -0.06295020
v 0.96071300 -0.00154130 0.16128300
v 0.94668200 0.12626200 0.16830100
v 0.75735200 0.56761100 0.16830100
v 0.67280400 0.56761100 -0.02163930
v 0.66271000 0.55747100 -0.03680550
v 0.70480400 0.49435000 -0.04733130
v 0.70068500 0.46922400 -0.06295020
v 0.84850900 -0.00154130 -0.04907430
v 0.83103800 0.14726500 -0.06295020
v 0.96768300 -0.00154130 0.14724900
v 0.96071300 0.11924200 0.16128300
v 0.92563500 0.23144600 0.16830100
v 0.75934400 0.56761100 0.16789300
v 0.77835400 0.54694200 0.16830100
v 0.67334700 0.56761100 -0.02116390
v 0.70480400 0.47329100 -0.05783450
v 0.71544000 0.56761100 0.02091670
v 0.74680600 0.49435000 -0.00525069
v 0.74332100 0.46281700 -0.02804530
v 0.72232000 0.46281700 -0.04907430
v 0.72435700 0.42688300 -0.06295020
v 0.89055800 -0.00154130 -0.00699367
v 0.84850900 0.12626200 -0.04907430
v 0.82950000 0.15344900 -0.06295020
v 0.84850900 0.21038700 -0.02804530
v 0.96768300 -0.00154130 0.12622000
v 0.96768300 0.12626200 0.14724900
v 0.94668200 0.23144600 0.14724900
v 0.93966600 0.22442600 0.16128300
v 0.88354200 0.35763300 0.16830100
v 0.77794600 0.56761100 0.16169100
v 0.77486900 0.56449100 0.16479200
v 0.82044700 0.48382000 0.16830100
v 0.73087400 0.56761100 0.03895770
v 0.76785300 0.51540900 0.03682990
v 0.78890000 0.45228700 0.01577830
v 0.78536900 0.42069900 -0.00699367
v 0.80641600 0.37863600 -0.00699367
v 0.80641600 0.33657400 -0.02804530
v 0.80641600 0.29451100 -0.04907430
v 0.78745100 0.30064000 -0.06295020
v 0.93265100 -0.00154130 0.05609330
v 0.89055800 0.04208110 -0.00699367
v 0.86951100 0.10520300 -0.02804530
v 0.89055800 0.16832400 0.01403530
v 0.80999200 0.23144600 -0.06295020
v 0.80845300 0.23757400 -0.06295020
v 0.84850900 0.27350800 -0.00699367
v 0.89055800 0.23144600 0.03506430
v 0.96718600 -0.00154130 0.12517900
v 0.96768300 0.04208110 0.12622000
v 0.94668200 0.14726500 0.10516800
v 0.94143200 0.16832400 0.10254300
v 0.91513500 0.30504100 0.15777500
v 0.94143200 0.21038700 0.12359400
v 0.92038500 0.29451100 0.12359400
v 0.89933800 0.35763300 0.12359400
v 0.90458900 0.35763300 0.14724900
v 0.89757300 0.35061300 0.16128300
v 0.86254100 0.39969500 0.16830100
v 0.78686300 0.56761100 0.15573800
v 0.80994600 0.53641200 0.15777500
v 0.77310300 0.56761100 0.10213500
v 0.76785300 0.55747100 0.07888790
v 0.80994600 0.51540900 0.09991680
v 0.80994600 0.47329100 0.05783620
v 0.80994600 0.41022500 0.01577830
v 0.84850900 0.31551500 0.01403530
v 0.93966600 -0.00154130 0.07010500
v 0.93265100 0.04208110 0.05609330
v 0.91160400 0.12626200 0.03506430
v 0.89055800 0.27350800 0.05609330
v 0.89933800 0.25250500 0.06046200
v 0.91160400 0.18938300 0.05609330
v 0.96071300 -0.00154130 0.11218600
v 0.96071300 0.04208110 0.11218600
v 0.93265100 0.14726500 0.07712220
v 0.93966600 0.04208110 0.07010500
v 0.92038500 0.25250500 0.10254300
v 0.89408800 0.36810700 0.15777500
v 0.89933800 0.29451100 0.08151370
v 0.87829200 0.35763300 0.08151370
v 0.89408800 0.36810700 0.12094600
v 0.89757300 0.37161700 0.14023200
v 0.85552500 0.45579700 0.14023200
v 0.84850900 0.46983700 0.15426600
v 0.89055800 0.38565600 0.15426600
v 0.78908100 0.56761100 0.14684200
v 0.80293100 0.55045200 0.15075800
v 0.82746300 0.51189900 0.15426600
v 0.77333000 0.56761100 0.10265600
v 0.80994600 0.53641200 0.12094600
v 0.87304100 0.41022500 0.12094600
v 0.87304100 0.36810700 0.07888790
v 0.83094800 0.43122800 0.05783620
v 0.85199500 0.34710300 0.03682990
v 0.86951100 0.33657400 0.05609330
v 0.83447800 0.49786000 0.14023200
v 0.78414700 0.56761100 0.12950200
v 0.78383000 0.56761100 0.12855200
f 61 97 88
f 62 90 89
f 62 63 90
f 72 92 98
f 59 66 60
f 58 67 59
f 57 86 87
f 63 64 90
f 57 67 58
f 57 87 67
f 61 89 97
f 64 68 93
f 70 95 71
f 67 91 68
f 67 87 91
f 68 91 92
f 68 92 93
f 69 94 95
f 69 95 70
f 71 96 72
f 71 95 97
f 71 97 96
f 72 96 93
f 55 85 86
f 72 93 92
f 64 93 90
f 55 57 56
f 46 72 47
f 54 83 84
f 43 65 44
f 72 98 74
f 44 65 66
f 44 66 59
f 44 59 67
f 44 67 68
f 44 68 64
f 45 69 70
f 46 70 71
f 46 71 72
f 47 73 48
f 47 72 74
f 55 86 57
f 47 74 75
f 47 76 77
f 47 77 73
f 48 73 78
f 49 78 79
f 50 51 81
f 50 81 80
f 51 52 81
f 52 79 81
f 53 82 83
f 53 83 54
f 54 84 85
f 111 119 118
f 47 75 76
f 73 77 99
f 90 93 96
f 74 98 75
f 87 115 113
f 87 113 116
f 87 116 91
f 88 97 95
f 88 95 94
f 89 90 96
f 89 96 97
f 91 100 92
f 91 116 101
f 91 101 100
f 99 106 105
f 101 116 113
f 101 113 102
f 102 112 104
f 102 104 103
f 104 112 111
f 104 111 117
f 104 117 109
f 104 109 105
f 107 108 111
f 107 111 118
f 108 109 111
f 109 117 111
f 110 119 111
f 42 64 63
f 86 115 87
f 86 113 115
f 86 114 113
f 85 114 86
f 75 98 92
f 75 92 100
f 75 100 101
f 75 101 76
f 76 101 102
f 76 102 103
f 76 103 77
f 77 103 104
f 77 104 105
f 77 105 106
f 77 106 99
f 78 99 79
f 73 99 78
f 79 99 105
f 80 81 108
f 80 108 107
f 81 105 109
f 81 109 108
f 82 110 111
f 82 111 83
f 83 111 84
f 84 111 112
f 84 112 85
f 85 112 102
f 85 102 113
f 85 113 114
f 79 105 81
f 42 44 64
f 54 85 55
f 41 89 61
f 3 110 82
f 3 82 53
f 3 53 36
f 3 36 34
f 3 34 23
f 3 23 17
f 3 17 11
f 3 11 4
f 5 12 13
f 5 13 6
f 6 13 12
f 6 12 19
f 6 19 27
f 6 27 41
f 6 41 61
f 6 61 88
f 6 88 94
f 6 94 69
f 6 69 45
f 6 45 29
f 6 29 20
f 6 20 14
f 6 14 8
f 6 8 7
f 8 14 9
f 3 119 110
f 3 118 119
f 3 80 107
f 3 50 80
f 42 63 62
f 1 2 3
f 1 3 4
f 1 4 11
f 1 11 18
f 1 18 26
f 1 26 40
f 1 40 60
f 1 60 66
f 1 66 65
f 1 65 43
f 1 43 28
f 9 15 16
f 1 28 19
f 1 12 5
f 1 5 6
f 1 6 7
f 1 7 8
f 1 8 2
f 2 8 9
f 2 9 10
f 2 10 3
f 3 10 16
f 3 16 22
f 3 22 32
f 3 32 50
f 1 19 12
f 9 16 10
f 3 107 118
f 11 17 18
f 26 39 40
f 27 42 62
f 27 62 41
f 28 43 44
f 28 44 42
f 29 45 70
f 29 70 46
f 30 46 47
f 30 47 48
f 31 48 78
f 31 78 49
f 32 51 50
f 26 35 39
f 33 52 51
f 36 54 37
f 37 54 55
f 37 55 38
f 38 55 56
f 38 56 57
f 38 57 58
f 38 58 39
f 39 58 59
f 39 59 60
f 39 60 40
f 9 14 15
f 41 62 89
f 36 53 54
f 25 39 35
f 32 33 51
f 25 38 39
f 14 20 30
f 14 21 31
f 14 31 49
f 14 49 79
f 14 79 52
f 14 52 33
f 14 33 22
f 14 22 15
f 15 22 16
f 17 23 24
f 17 24 25
f 17 25 18
f 18 25 26
f 14 30 21
f 25 35 26
f 19 42 27
f 20 29 46
f 20 46 30
f 21 30 48
f 21 48 31
f 22 33 32
f 23 34 25
f 23 25 24
f 19 28 42
f 25 34 36
f 25 36 37
f 25 37 38

