# https://github.com/mikedh/trimesh
v -0.83364900 -0.00145956 -0.07882080
v -0.76799200 -0.00145956 -0.07882080
v -0.00152440 0.74690900 -0.07882080
v -0.00152425 -0.83185400 -0.08241210
v -0.10345600 -0.83185400 -0.08241210
v -0.11223500 -0.82746500 -0.09116400
v -0.20863900 -0.81080300 -0.08241210
v -0.21741800 -0.80641400 -0.09116400
v -0.21920600 -0.80812100 -0.08241210
v -0.34544200 -0.76610200 -0.08241210
v -0.34365400 -0.76431300 -0.09116400
v -0.28057700 -0.76431300 -0.11220700
v -0.17539300 -0.76431300 -0.13323400
v -0.09118190 -0.80641400 -0.11220700
v -0.16832200 -0.73627300 -0.14725700
v -0.25952400 -0.74326300 -0.13323400
v -0.28407200 -0.72578900 -0.13674000
v -0.25245200 -0.71522300 -0.14725700
v -0.23148000 -0.67312200 -0.16830100
v -0.14726900 -0.69417300 -0.16830100
v -0.29455800 -0.65215300 -0.16830100
v -0.32609600 -0.66263800 -0.15777500
v -0.41030800 -0.62053700 -0.15777500
v -0.41030800 -0.66263800 -0.13674000
v -0.45225100 -0.64158700 -0.13674000
v -0.51541000 -0.59956800 -0.13674000
v -0.41030800 -0.72578900 -0.09466990
v -0.38576000 -0.68019300 -0.13323400
v -0.38576000 -0.74326300 -0.09116400
v -0.40152900 -0.73798000 -0.08241210
v -0.42680900 -0.72140000 -0.08241210
v -0.48996800 -0.67929900 -0.08241210
v -0.52760300 -0.65386000 -0.08241210
v -0.53638200 -0.64158700 -0.09466990
v -0.57848700 -0.57851700 -0.11571300
v -0.59954000 -0.55746700 -0.11571300
v -0.59954000 -0.51536600 -0.13674000
v -0.66261800 -0.43124600 -0.13674000
v -0.62059300 -0.43124600 -0.15777500
v -0.72577600 -0.30510600 -0.13674000
v -0.68367000 -0.30510600 -0.15777500
v -0.70122800 -0.28056100 -0.15426900
v -0.74325300 -0.28056100 -0.13323400
v -0.72228100 -0.38573100 -0.11220700
v -0.70472300 -0.41027700 -0.11571300
v -0.66261800 -0.51536600 -0.09466990
v -0.70472300 -0.45229600 -0.09466990
v -0.72228100 -0.42775100 -0.09116400
v -0.71699700 -0.44351800 -0.08241210
v -0.70033400 -0.46887600 -0.08241210
v -0.67489200 -0.50658800 -0.08241210
v -0.78714700 -0.30331800 -0.08241210
v -0.78535800 -0.30161100 -0.09116400
v -0.74325300 -0.34363100 -0.11220700
v -0.78535800 -0.23846000 -0.11220700
v -0.76430500 -0.21740900 -0.13323400
v -0.80641100 -0.15434000 -0.11220700
v -0.80641100 -0.23846000 -0.09116400
v -0.80811800 -0.24024800 -0.08241210
v -0.83185400 -0.14556200 -0.08241210
v -0.83364900 0.15264500 -0.07882080
v -0.82745800 0.14030000 -0.09117070
v -0.83250900 0.17406500 -0.07882080
v -0.79153400 0.29988300 -0.07882080
v -0.81255100 0.23676900 -0.07882080
v -0.80636000 0.22442400 -0.09117070
v -0.78534300 0.28753800 -0.09117070
v -0.76432600 0.20341400 -0.13323000
v -0.80636000 0.14030000 -0.11220100
v -0.78534300 0.09819760 -0.13323000
v -0.72929800 0.15428000 -0.16128500
v -0.78535800 -0.11223900 -0.13323400
v -0.74325300 -0.15434000 -0.15426900
v -0.71520900 -0.14726900 -0.16830100
v -0.71520500 0.14733100 -0.16829200
v -0.67317100 0.27355800 -0.16829200
v -0.63105600 0.35768200 -0.16829200
v -0.58902200 0.42071400 -0.16829200
v -0.58902200 0.44434100 -0.16303700
v -0.63105600 0.38130900 -0.16303700
v -0.64164500 0.38400700 -0.15778100
v -0.64514800 0.36471300 -0.16128500
v -0.68718200 0.36471300 -0.14024600
v -0.68718200 0.28050700 -0.16128500
v -0.75031400 0.21739400 -0.14024600
v -0.70819900 0.32261000 -0.14024600
v -0.68367900 0.38400700 -0.13674300
v -0.64164500 0.44703800 -0.13674300
v -0.59953000 0.44703800 -0.15778100
v -0.56800500 0.52854600 -0.14199800
v -0.57851300 0.53116200 -0.13674300
v -0.66266200 0.46804900 -0.11571300
v -0.72579500 0.36291400 -0.11571300
v -0.70469600 0.44703800 -0.09467430
v -0.76782900 0.32089300 -0.09467430
v -0.72929800 0.34362100 -0.11921600
v -0.70469600 0.34190400 -0.13674300
v -0.78371400 0.31827700 -0.07882080
v -0.72058100 0.44442200 -0.07882080
v -0.70991000 0.46306200 -0.07882080
v -0.63643200 0.54963900 -0.07882080
v -0.65744900 0.52854600 -0.07882080
v -0.69435100 0.48652500 -0.07882080
v -0.64164500 0.53116200 -0.09467430
v -0.59953000 0.57326500 -0.09467430
v -0.53639800 0.63637900 -0.09467430
v -0.55741500 0.55217300 -0.13674300
v -0.54690600 0.54955700 -0.14199800
v -0.47326500 0.61528600 -0.13674300
v -0.49436400 0.63637900 -0.11571300
v -0.47326500 0.67840000 -0.09467430
v -0.50503500 0.67586600 -0.07882080
v -0.53126600 0.65477300 -0.07882080
v -0.33127900 0.76530300 -0.07882080
v -0.42072300 0.72148400 -0.07882080
v -0.46813300 0.69687600 -0.07882080
v -0.44174000 0.70120900 -0.09117070
v -0.31563800 0.76432200 -0.09117070
v -0.39978800 0.70120900 -0.11220100
v -0.43123200 0.67840000 -0.11571300
v -0.41029600 0.65738900 -0.13674300
v -0.46275700 0.61267000 -0.14199800
v -0.50487200 0.52854600 -0.16303700
v -0.39978800 0.65477300 -0.14199800
v -0.37868900 0.68019800 -0.13323000
v -0.31563800 0.74331200 -0.11220100
v -0.29454000 0.72222000 -0.13323000
v -0.31563800 0.69679400 -0.14199800
v -0.29454000 0.69417800 -0.14726200
v -0.29454000 0.70824000 -0.14024600
v -0.23148900 0.74331200 -0.13323000
v -0.25250600 0.76432200 -0.11220100
v -0.18937400 0.80642500 -0.09117070
v -0.14734000 0.76432200 -0.13323000
v -0.14734000 0.73628100 -0.14726200
v -0.23148900 0.71527100 -0.14726200
v -0.44174000 0.54694100 -0.16829200
v -0.00152440 0.73628100 -0.14726200
v -0.00152440 0.76432200 -0.13323000
v -0.00152425 -0.73627300 -0.14725700
v -0.00152440 0.82743600 -0.09117070
v -0.00152440 0.83356700 -0.07882080
v -0.04209200 0.82743600 -0.09117070
v -0.04209200 0.83356700 -0.07882080
v -0.18937400 0.81255700 -0.07882080
v -0.27352300 0.79007500 -0.07882080
v -0.37868900 0.74249400 -0.07882080
v -0.00152425 -0.80641400 -0.11220700
v -0.12629700 -0.69417300 -0.16830100
v -0.52589600 -0.50488200 -0.16830100
v -0.37868800 -0.61005200 -0.16830100
v -0.44176500 -0.56795100 -0.16830100
v -0.47330400 -0.57851700 -0.15777500
v -0.55044400 -0.52942700 -0.15076300
v -0.61002600 -0.39979200 -0.16830100
v -0.67318500 -0.27349000 -0.16830100
v -0.48385500 0.52593000 -0.16829200
v -0.37868900 0.65215700 -0.14726200
v -0.56800500 0.46543300 -0.16303700
v -0.00152425 -0.82746500 -0.09116400
v -0.82746400 -0.15434000 -0.09116400
v -0.63717500 -0.55307800 -0.08241210
v -0.57409800 -0.61614800 -0.08241210
f 131 134 135
f 131 132 133
f 131 126 132
f 127 126 131
f 127 131 130
f 131 133 134
f 121 119 125
f 128 124 127
f 128 130 129
f 128 129 124
f 127 124 125
f 127 125 126
f 136 131 135
f 125 119 126
f 121 120 119
f 128 127 130
f 136 130 131
f 141 139 143
f 136 137 129
f 145 146 142
f 121 125 124
f 145 133 146
f 144 133 145
f 144 145 142
f 144 142 143
f 144 143 133
f 143 134 133
f 143 139 134
f 141 143 142
f 141 142 140
f 141 140 139
f 139 140 138
f 139 138 134
f 135 134 138
f 135 138 137
f 136 135 137
f 136 129 130
f 122 121 124
f 107 110 109
f 122 123 108
f 107 106 110
f 107 109 108
f 107 108 91
f 107 91 106
f 106 91 105
f 94 104 92
f 91 92 104
f 106 111 110
f 91 104 105
f 102 101 104
f 103 102 104
f 103 104 94
f 103 94 100
f 103 100 102
f 102 100 101
f 146 114 142
f 104 101 105
f 106 112 111
f 106 113 112
f 106 101 113
f 122 108 109
f 122 109 121
f 121 109 110
f 121 110 120
f 120 110 111
f 120 111 119
f 117 111 112
f 117 119 111
f 117 118 119
f 117 115 118
f 116 115 117
f 116 117 112
f 116 112 115
f 115 112 114
f 112 101 114
f 113 101 112
f 106 105 101
f 122 124 123
f 118 114 146
f 90 108 123
f 147 115 114
f 14 148 6
f 14 15 20
f 14 20 148
f 43 56 42
f 42 56 73
f 42 73 74
f 158 124 129
f 14 6 8
f 90 91 108
f 90 159 79
f 79 159 78
f 157 74 78
f 157 78 159
f 157 159 123
f 157 123 124
f 157 124 158
f 90 123 159
f 157 158 129
f 160 6 148
f 160 148 4
f 100 64 101
f 33 1 163
f 33 163 34
f 35 34 163
f 162 51 46
f 38 36 46
f 36 162 46
f 160 4 6
f 36 35 162
f 162 163 1
f 162 1 51
f 161 57 58
f 161 58 60
f 161 60 62
f 161 62 57
f 76 75 71
f 162 35 163
f 157 129 137
f 157 137 74
f 140 149 138
f 21 150 149
f 20 21 149
f 20 149 148
f 148 149 140
f 148 140 4
f 140 142 4
f 3 4 142
f 151 150 21
f 3 142 1
f 101 1 142
f 114 101 142
f 132 126 133
f 118 126 119
f 118 133 126
f 118 146 133
f 147 118 115
f 64 1 101
f 152 153 150
f 152 151 153
f 151 23 153
f 137 138 149
f 137 149 74
f 74 149 150
f 155 74 150
f 156 74 155
f 156 42 74
f 156 41 42
f 39 41 156
f 39 156 155
f 39 155 150
f 154 26 37
f 154 37 39
f 154 39 150
f 154 150 26
f 153 26 150
f 153 23 26
f 151 21 23
f 147 114 118
f 98 67 64
f 152 150 151
f 99 98 100
f 38 39 37
f 38 37 36
f 36 37 26
f 36 26 35
f 35 26 34
f 27 34 26
f 32 34 27
f 40 39 38
f 32 33 34
f 31 1 32
f 31 32 27
f 31 27 30
f 31 30 1
f 30 10 1
f 29 11 10
f 29 10 30
f 32 1 33
f 29 30 27
f 40 41 39
f 40 42 41
f 48 52 53
f 48 49 52
f 49 1 52
f 50 1 49
f 50 51 1
f 50 46 51
f 47 46 50
f 98 64 100
f 47 50 49
f 47 48 45
f 47 45 46
f 45 38 46
f 40 38 45
f 40 45 44
f 40 44 43
f 40 43 42
f 47 49 48
f 12 11 27
f 12 27 17
f 17 27 28
f 13 14 8
f 13 8 12
f 12 8 11
f 8 10 11
f 9 10 8
f 9 1 10
f 7 5 1
f 13 15 14
f 7 1 9
f 7 8 6
f 7 6 5
f 5 6 4
f 5 4 1
f 2 1 4
f 2 4 3
f 2 3 1
f 7 9 8
f 13 16 15
f 13 12 16
f 16 12 17
f 24 17 28
f 24 28 27
f 25 24 27
f 25 27 26
f 25 26 23
f 25 23 24
f 24 23 17
f 22 17 23
f 22 23 21
f 22 21 17
f 18 17 21
f 19 18 21
f 19 21 20
f 19 20 15
f 19 15 18
f 16 18 15
f 16 17 18
f 48 53 44
f 45 48 44
f 29 27 11
f 43 44 54
f 89 90 79
f 89 79 81
f 89 81 88
f 88 81 87
f 83 87 81
f 83 86 87
f 84 86 83
f 89 88 91
f 84 85 86
f 84 76 71
f 82 80 77
f 82 77 76
f 82 76 84
f 82 84 83
f 82 83 81
f 82 81 80
f 84 71 85
f 88 92 91
f 88 87 92
f 93 92 87
f 44 53 54
f 99 100 94
f 99 94 98
f 98 94 95
f 98 95 67
f 95 96 67
f 96 68 67
f 85 71 68
f 85 68 96
f 85 96 86
f 97 93 87
f 97 87 86
f 97 86 96
f 97 96 93
f 93 96 95
f 93 95 94
f 93 94 92
f 80 81 79
f 80 79 77
f 89 91 90
f 55 43 53
f 65 66 63
f 65 63 64
f 63 1 64
f 61 1 63
f 61 63 62
f 61 62 60
f 59 52 1
f 59 1 60
f 59 60 58
f 59 58 52
f 58 53 52
f 55 53 58
f 55 58 57
f 55 57 56
f 55 56 43
f 77 79 78
f 43 54 53
f 65 64 66
f 66 64 67
f 61 60 1
f 77 74 76
f 77 78 74
f 66 67 68
f 76 74 75
f 75 74 71
f 72 71 74
f 72 74 73
f 72 56 57
f 72 57 62
f 72 73 56
f 70 71 72
f 70 68 71
f 69 68 70
f 69 70 62
f 69 62 63
f 69 63 66
f 69 66 68
f 70 72 62

