# https://github.com/mikedh/trimesh
v -0.00150055 0.96772900 0.12621700
v -0.00150055 0.96069900 0.14024800
v -0.00150055 0.92564600 0.04205530
v -0.12624800 0.96772900 0.12621700
v -0.00150055 0.94668700 0.14726300
v -0.15429600 0.96069900 0.14024800
v -0.00150055 0.91814500 0.02709510
v -0.08420500 0.92564600 0.04205530
v -0.12624800 0.94668700 0.08414720
v -0.13678800 0.94140400 0.07361320
v -0.13678800 0.96244500 0.11570500
v -0.23141400 0.94668700 0.12621700
v -0.15781000 0.96244500 0.13672900
v -0.00150055 0.94569700 0.14677600
v -0.14727000 0.94668700 0.14726300
v -0.52589000 0.77835800 0.14726300
v -0.58981900 0.71443200 0.12601800
v -0.23844100 0.93965800 0.14024800
v -0.00150055 0.91158700 0.01403820
v -0.08420500 0.91158700 0.01403820
v -0.12624800 0.93262900 0.05608590
v -0.19991100 0.92036200 0.05258930
v -0.19991100 0.94140400 0.09465920
v -0.24195400 0.94140400 0.11570500
v -0.32604100 0.92036200 0.11570500
v -0.31815000 0.92036200 0.12621700
v -0.00150055 0.93262900 0.14024800
v -0.23141400 0.92564600 0.14726300
v -0.54697000 0.77835800 0.14726300
v -0.58981900 0.71528100 0.12621700
v -0.58981900 0.70093900 0.11926800
v -0.29453700 0.90460500 0.14726300
v -0.32080000 0.91512600 0.13672900
v -0.36462800 0.89757600 0.14024800
v -0.00150055 0.84851100 -0.07012360
v -0.14727000 0.89054600 -0.00700777
v -0.04210400 0.84851100 -0.07012360
v -0.18937100 0.91158700 0.03506210
v -0.21039300 0.91248400 0.04205530
v -0.25249400 0.93352500 0.10517100
v -0.33658000 0.91248400 0.10517100
v -0.36814100 0.89932100 0.11570500
v -0.42775100 0.86955200 0.12621700
v -0.35760200 0.90460500 0.12621700
v -0.00150055 0.91861700 0.13323200
v -0.50751800 0.82044000 0.14199600
v -0.55393800 0.79236900 0.14024800
v -0.56275000 0.78887800 0.13672900
v -0.56096500 0.77835800 0.14024800
v -0.58981900 0.73627500 0.12621700
v -0.48384700 0.82044000 0.14726300
v -0.58981900 0.70037300 0.11893600
v -0.35760200 0.88356400 0.14726300
v -0.37338300 0.89408400 0.13672900
v -0.41548300 0.87304300 0.13672900
v -0.49087300 0.83445200 0.14024800
v -0.39970300 0.86252300 0.14726300
v -0.00150055 0.83360300 -0.07882080
v -0.16834900 0.86955200 -0.02803160
v -0.16834900 0.89144200 0.00000756
v -0.04210400 0.83360300 -0.07882080
v -0.18937100 0.81260900 -0.07882080
v -0.18937100 0.82747000 -0.07012360
v -0.18937100 0.84851100 -0.04907760
v -0.25249400 0.91248400 0.06310120
v -0.29453700 0.89144200 0.04205530
v -0.34712000 0.87828000 0.05258930
v -0.39970300 0.84936000 0.04205530
v -0.46282500 0.84936000 0.10517100
v -0.53643000 0.81520300 0.11570500
v -0.51189500 0.82747000 0.12621700
v -0.00150055 0.74693700 -0.07882080
v -0.57853100 0.69952400 0.11570500
v -0.58981900 0.48595100 -0.07848890
v -0.49962800 0.83096100 0.13672900
v -0.56096500 0.79236900 0.12621700
v -0.57588200 0.77835800 0.12621700
v -0.58981900 0.75981700 0.12157000
v -0.18937100 0.87040100 -0.02101630
v -0.25249400 0.87040100 0.00000756
v -0.27351500 0.79010500 -0.07882080
v -0.27351500 0.80642800 -0.07012360
v -0.27351500 0.82747000 -0.04907760
v -0.27351500 0.84936000 -0.02101630
v -0.29453700 0.86955200 0.01403820
v -0.33658000 0.86955200 0.03506210
v -0.39970300 0.82747000 0.01403820
v -0.41018500 0.83619700 0.03156550
v -0.43126400 0.82572400 0.03156550
v -0.44174600 0.82831900 0.04205530
v -0.46282500 0.82831900 0.06310120
v -0.50486900 0.82831900 0.10517100
v -0.52589000 0.80727800 0.08414720
v -0.53643000 0.79416200 0.07361320
v -0.57853100 0.77312100 0.09465920
v -0.56799100 0.78623600 0.10517100
v -0.58981900 0.76746000 0.10517100
v -0.58981900 0.48576200 -0.07882080
v -0.58981900 0.76613900 0.11052700
v -0.29442200 0.78118800 -0.07882080
v -0.33122400 0.76533700 -0.07882080
v -0.37862400 0.74250300 -0.07882080
v -0.37862400 0.78538700 -0.04907760
v -0.42072400 0.76434600 -0.04907760
v -0.44174600 0.80642800 0.01403820
v -0.47330700 0.80468300 0.03156550
v -0.51540800 0.76260000 0.01051950
v -0.57853100 0.72056500 0.01051950
v -0.57853100 0.76260000 0.07361320
v -0.58981900 0.75811800 0.08644880
v -0.58981900 0.59479000 -0.07882080
v -0.42072400 0.72150900 -0.07882080
v -0.46812400 0.69692900 -0.07882080
v -0.48384700 0.70126900 -0.07012360
v -0.45228600 0.74155900 -0.05257420
v -0.45228600 0.76260000 -0.03155040
v -0.57853100 0.67848300 -0.03155040
v -0.58981900 0.71570600 0.02180600
v -0.58981900 0.74321000 0.06232670
v -0.51540800 0.72056500 -0.03155040
v -0.58981900 0.75684500 0.08414720
v -0.58981900 0.63399400 -0.05746500
v -0.57853100 0.65744100 -0.05257420
v -0.57329000 0.61276400 -0.07882080
v -0.50504200 0.67588800 -0.07882080
v -0.51540800 0.67848300 -0.07362020
v -0.58981900 0.67362300 -0.02026390
v -0.58981900 0.65102500 -0.04283680
v -0.58981900 0.65258200 -0.04128770
v -0.53124700 0.65484700 -0.07882080
f 64 84 79
f 66 84 83
f 63 82 83
f 64 83 84
f 63 83 64
f 62 82 63
f 70 94 109
f 60 84 80
f 60 79 84
f 60 64 79
f 66 83 85
f 59 64 60
f 62 81 82
f 66 85 86
f 70 93 94
f 66 80 84
f 67 86 68
f 68 86 87
f 68 87 88
f 68 88 89
f 68 89 106
f 68 106 90
f 68 90 91
f 68 91 69
f 69 91 92
f 69 92 70
f 70 92 93
f 58 62 61
f 66 86 67
f 58 81 62
f 43 71 75
f 58 101 100
f 70 109 95
f 43 70 71
f 43 75 55
f 45 52 73
f 45 73 74
f 45 74 72
f 46 51 56
f 46 56 47
f 47 56 48
f 48 56 75
f 48 75 71
f 48 71 70
f 48 70 76
f 48 76 77
f 48 77 78
f 48 78 49
f 49 78 50
f 51 57 56
f 52 74 73
f 55 75 56
f 58 72 98
f 58 98 111
f 58 111 124
f 58 124 130
f 58 130 125
f 58 125 113
f 58 113 112
f 58 112 102
f 58 102 101
f 58 100 81
f 70 95 96
f 123 130 124
f 70 97 76
f 104 115 116
f 104 116 106
f 104 106 105
f 106 116 107
f 107 116 120
f 107 120 108
f 108 117 127
f 108 127 118
f 108 118 119
f 108 119 109
f 108 120 126
f 108 126 117
f 109 119 121
f 104 126 115
f 109 121 110
f 111 123 124
f 113 125 126
f 113 126 114
f 115 126 116
f 116 126 120
f 117 123 129
f 117 129 127
f 117 126 123
f 122 128 123
f 123 128 129
f 123 126 130
f 125 130 126
f 43 54 44
f 111 122 123
f 104 114 126
f 104 113 114
f 104 112 113
f 72 74 98
f 76 97 77
f 77 97 99
f 77 99 78
f 81 100 82
f 82 100 101
f 82 101 102
f 82 102 103
f 82 103 83
f 83 86 85
f 83 103 87
f 83 87 86
f 87 103 104
f 87 104 105
f 87 105 106
f 87 106 89
f 87 89 88
f 90 106 93
f 90 93 91
f 91 93 92
f 93 106 94
f 94 107 108
f 94 108 109
f 94 106 107
f 95 109 110
f 95 110 97
f 95 97 96
f 102 112 103
f 103 112 104
f 70 96 97
f 43 55 54
f 4 12 13
f 41 70 42
f 6 13 18
f 6 18 28
f 6 28 15
f 7 19 20
f 7 20 8
f 8 20 21
f 8 21 10
f 8 10 9
f 10 21 38
f 10 38 22
f 10 22 23
f 10 23 11
f 11 23 24
f 5 17 14
f 12 24 25
f 12 26 18
f 12 18 13
f 14 17 27
f 16 29 17
f 17 30 50
f 17 50 78
f 17 78 99
f 17 99 97
f 17 97 110
f 17 110 121
f 17 121 119
f 17 119 118
f 17 118 127
f 12 25 26
f 17 127 129
f 5 16 17
f 5 51 29
f 1 2 5
f 1 5 14
f 1 14 27
f 1 45 72
f 1 72 58
f 1 58 35
f 1 35 19
f 1 19 7
f 1 7 3
f 1 3 8
f 1 8 4
f 1 4 6
f 1 6 2
f 5 29 16
f 2 6 15
f 3 7 8
f 4 8 9
f 4 9 10
f 4 10 11
f 4 11 24
f 4 24 12
f 42 70 43
f 4 13 6
f 5 15 28
f 5 28 32
f 5 32 53
f 5 53 57
f 5 57 51
f 2 15 5
f 17 129 128
f 1 27 45
f 17 122 111
f 29 51 46
f 31 52 45
f 32 34 53
f 34 44 54
f 34 54 55
f 34 55 56
f 34 56 57
f 34 57 53
f 35 58 61
f 35 61 37
f 36 37 59
f 36 59 60
f 36 60 39
f 29 50 30
f 36 39 38
f 37 62 63
f 37 63 64
f 37 64 59
f 39 65 40
f 39 60 80
f 39 80 66
f 39 66 65
f 40 65 66
f 40 66 41
f 41 66 67
f 41 68 69
f 41 69 70
f 17 128 122
f 37 61 62
f 29 49 50
f 41 67 68
f 29 47 48
f 29 48 49
f 17 98 74
f 17 52 31
f 17 31 27
f 17 29 30
f 18 32 28
f 18 26 33
f 18 33 34
f 18 34 32
f 19 35 37
f 19 37 20
f 20 36 21
f 20 37 36
f 21 36 38
f 17 74 52
f 22 39 23
f 29 46 47
f 22 38 39
f 27 31 45
f 26 34 33
f 26 44 34
f 25 44 26
f 17 111 98
f 25 42 43
f 23 40 24
f 25 43 44
f 24 40 41
f 23 39 40
f 24 41 25
f 25 41 42

