# https://github.com/mikedh/trimesh
v 0.49741600 -0.58925900 -0.06005530
v 0.61306100 -0.58925900 -0.06005530
v 0.69417800 -0.58925900 0.12641200
v 0.93264900 -0.00154130 0.16128200
v 0.91791700 -0.00154130 0.14706600
v 0.91658200 -0.00154130 0.14570200
v 0.76346300 -0.00154130 -0.06005530
v 0.65744000 -0.55744600 -0.05258940
v 0.63640100 -0.57850100 -0.05258940
v 0.65744000 -0.57850100 -0.03155550
v 0.67332300 -0.58925900 0.00020781
v 0.65371100 -0.54254600 -0.06005530
v 0.65481600 -0.54697500 -0.05784230
v 0.71245400 -0.58925900 0.14199100
v 0.94563100 -0.00154130 0.16778700
v 0.83247200 -0.00154130 -0.06005530
v 0.69578900 -0.48691500 -0.06005530
v 0.69951800 -0.49433600 -0.05258940
v 0.67847900 -0.55744600 -0.03155550
v 0.72055700 -0.57850100 0.03156880
v 0.71498600 -0.58925900 0.04187340
v 0.73607100 -0.58925900 0.14724400
v 0.73630100 -0.56797400 0.14724400
v 0.84149600 -0.42069900 0.16830100
v 0.94669000 -0.00154130 0.16830100
v 0.84849300 -0.00154130 -0.04908000
v 0.83247200 -0.14732000 -0.06005530
v 0.75885900 -0.36069600 -0.06005530
v 0.80641500 -0.29453700 -0.04908000
v 0.72230600 -0.46281000 -0.04908000
v 0.72055700 -0.49433600 -0.03155550
v 0.72055700 -0.55744600 0.01053480
v 0.74155000 -0.57850100 0.05260270
v 0.73597900 -0.58925900 0.06288500
v 0.73630100 -0.58925900 0.14724400
v 0.80991400 -0.49433600 0.16302500
v 0.82045700 -0.48645500 0.16302500
v 0.86253400 -0.39970100 0.16830100
v 0.94669000 -0.12626500 0.16830100
v 0.96068500 -0.00154130 0.16128200
v 0.89057100 -0.00154130 -0.00701213
v 0.84849300 -0.12626500 -0.04908000
v 0.82745400 -0.23142800 -0.04908000
v 0.81143400 -0.23142800 -0.06005530
v 0.77989800 -0.31858500 -0.06005530
v 0.78293700 -0.31248600 -0.06005530
v 0.79039500 -0.29453700 -0.06005530
v 0.84849300 -0.27353900 -0.00701213
v 0.82745400 -0.33659100 -0.00701213
v 0.76433800 -0.46281000 -0.00701213
v 0.76258800 -0.49433600 0.01053480
v 0.78362700 -0.51539200 0.05260270
v 0.78537700 -0.57499200 0.12621000
v 0.73648500 -0.58925900 0.06371200
v 0.78362700 -0.53644800 0.07361430
v 0.78362700 -0.55744600 0.09464830
v 0.75973400 -0.58925900 0.14199100
v 0.83095300 -0.48910100 0.15777300
v 0.86253400 -0.42334500 0.16302500
v 0.87653000 -0.40671900 0.16128200
v 0.88357300 -0.35758900 0.16830100
v 0.96068500 -0.13328300 0.16128200
v 0.92565100 -0.23142800 0.16830100
v 0.96772900 -0.00154130 0.14724400
v 0.93264900 -0.00154130 0.05608970
v 0.89057100 -0.04209930 -0.00701213
v 0.86953200 -0.10520900 -0.02804610
v 0.84849300 -0.21043000 -0.02804610
v 0.84936800 -0.23142800 -0.02102730
v 0.87040700 -0.27353900 0.02104060
v 0.84936800 -0.33659100 0.02104060
v 0.80641500 -0.42069900 0.01404420
v 0.80466600 -0.45228200 0.03156880
v 0.85724000 -0.45228200 0.11570500
v 0.77837900 -0.57062000 0.14199100
v 0.76627100 -0.58925900 0.13204400
v 0.76774400 -0.58925900 0.12621000
v 0.75692600 -0.58925900 0.10455100
v 0.79412400 -0.55744600 0.11570500
v 0.80729000 -0.54697500 0.12621000
v 0.81516200 -0.53644800 0.13673900
v 0.79941800 -0.54956400 0.14199100
v 0.87303100 -0.41546400 0.15777300
v 0.88357300 -0.39970100 0.14724400
v 0.89407000 -0.37341000 0.15777300
v 0.89756800 -0.36460800 0.16128200
v 0.90461200 -0.29453700 0.16830100
v 0.96772900 -0.12626500 0.14724400
v 0.93964600 -0.23844600 0.16128200
v 0.96772900 -0.00154130 0.12621000
v 0.94669000 -0.00154130 0.08414250
v 0.93264900 -0.04209930 0.05608970
v 0.91161000 -0.12626500 0.03507810
v 0.89057100 -0.16831800 0.01404420
v 0.86953200 -0.18937400 -0.00701213
v 0.87040700 -0.21043000 0.00000664
v 0.89144600 -0.18937400 0.02104060
v 0.89144600 -0.25248400 0.04209690
v 0.89144600 -0.29453700 0.06310850
v 0.89144600 -0.33659100 0.08414250
v 0.87040700 -0.35758900 0.06310850
v 0.82832900 -0.42069900 0.04209690
v 0.81516200 -0.43122700 0.03156880
v 0.89144600 -0.37864500 0.12621000
v 0.89931800 -0.36811700 0.13673900
v 0.86253400 -0.44175500 0.12621000
v 0.84849300 -0.46982900 0.12621000
v 0.86953200 -0.42771700 0.14724400
v 0.90461200 -0.35758900 0.14724400
v 0.92565100 -0.29453700 0.14724400
v 0.94669000 -0.23142800 0.14724400
v 0.96243500 -0.13679200 0.13673900
v 0.96772900 -0.04209930 0.12621000
v 0.94669000 -0.04209930 0.08414250
v 0.94139600 -0.05262720 0.07361430
v 0.92035700 -0.13679200 0.05260270
v 0.91248400 -0.14732000 0.04209690
v 0.93352300 -0.16831800 0.08414250
v 0.91248400 -0.21043000 0.06310850
v 0.93352300 -0.25248400 0.12621000
v 0.89931800 -0.32606300 0.09464830
v 0.89931800 -0.34711900 0.11570500
v 0.94139600 -0.24195600 0.13673900
v 0.94139600 -0.15779100 0.09464830
v 0.96243500 -0.05262720 0.11570500
v 0.94139600 -0.19990200 0.11570500
v 0.93352300 -0.21043000 0.10517600
f 65 114 92
f 60 81 83
f 66 93 67
f 67 93 94
f 66 92 93
f 65 91 114
f 62 89 111
f 64 88 113
f 63 87 89
f 62 111 88
f 67 94 95
f 61 86 87
f 64 113 90
f 68 95 97
f 70 100 71
f 69 96 70
f 70 96 97
f 70 97 98
f 70 98 99
f 70 99 100
f 71 101 102
f 71 100 101
f 72 102 103
f 72 103 73
f 73 103 102
f 74 104 105
f 73 102 74
f 68 97 96
f 60 85 86
f 48 71 49
f 60 83 84
f 74 105 109
f 48 70 71
f 49 71 102
f 49 72 50
f 50 72 73
f 50 73 51
f 51 73 52
f 52 73 74
f 52 74 55
f 53 75 57
f 53 57 76
f 53 76 77
f 53 77 78
f 53 78 54
f 53 56 79
f 53 79 80
f 53 80 81
f 53 81 82
f 53 82 75
f 55 74 56
f 56 74 80
f 56 80 79
f 57 75 58
f 58 75 82
f 58 82 81
f 58 81 60
f 58 60 59
f 60 84 85
f 74 109 106
f 120 127 126
f 74 107 81
f 98 119 99
f 99 119 127
f 99 127 120
f 99 120 100
f 100 120 121
f 100 121 122
f 100 122 104
f 104 122 105
f 105 122 123
f 105 123 110
f 105 110 109
f 110 123 111
f 112 124 125
f 97 119 98
f 112 123 126
f 113 125 115
f 113 115 114
f 115 125 124
f 115 124 116
f 116 124 118
f 116 118 117
f 118 127 119
f 118 124 127
f 43 70 48
f 120 126 123
f 120 123 121
f 121 123 122
f 124 126 127
f 112 126 124
f 74 106 107
f 97 118 119
f 94 97 95
f 74 81 80
f 74 102 101
f 74 101 100
f 74 100 104
f 81 107 84
f 81 84 108
f 81 108 83
f 83 108 84
f 84 107 106
f 84 106 109
f 84 109 85
f 85 109 86
f 86 109 110
f 97 117 118
f 86 110 89
f 88 111 123
f 88 123 112
f 88 112 125
f 88 125 113
f 89 110 111
f 90 113 114
f 90 114 91
f 92 114 115
f 92 115 116
f 92 116 93
f 93 116 117
f 93 117 97
f 93 97 94
f 86 89 87
f 43 69 70
f 49 102 72
f 43 68 96
f 4 15 25
f 4 25 40
f 4 40 64
f 4 64 90
f 4 90 91
f 4 91 65
f 4 65 41
f 4 41 26
f 4 26 16
f 4 16 7
f 4 7 6
f 4 6 5
f 4 14 15
f 8 13 17
f 8 17 18
f 8 18 31
f 8 31 19
f 8 19 10
f 8 10 9
f 10 20 21
f 10 21 11
f 10 19 20
f 12 17 13
f 14 22 23
f 14 23 24
f 14 24 25
f 14 25 15
f 3 14 4
f 2 12 13
f 2 10 11
f 2 9 10
f 43 96 69
f 1 2 11
f 1 11 21
f 1 21 34
f 1 34 54
f 1 54 78
f 1 78 77
f 1 77 76
f 1 76 57
f 1 57 35
f 1 35 22
f 1 22 14
f 1 14 3
f 16 26 42
f 1 3 4
f 1 5 6
f 1 6 7
f 1 7 16
f 1 16 27
f 1 27 44
f 1 44 47
f 1 47 46
f 1 46 45
f 1 45 28
f 1 28 17
f 1 17 12
f 1 12 2
f 2 8 9
f 1 4 5
f 16 42 27
f 2 13 8
f 17 29 30
f 30 49 50
f 30 50 31
f 31 51 32
f 31 50 51
f 32 51 52
f 32 52 33
f 33 53 54
f 33 54 34
f 33 52 55
f 33 55 56
f 33 56 53
f 36 57 37
f 37 57 58
f 29 49 30
f 37 58 59
f 38 59 60
f 38 60 86
f 38 86 61
f 39 63 89
f 39 89 62
f 40 62 88
f 40 88 64
f 41 65 92
f 41 92 66
f 42 67 95
f 42 95 68
f 17 28 29
f 42 68 43
f 37 59 38
f 29 48 49
f 35 57 36
f 23 36 24
f 17 30 18
f 18 30 31
f 29 43 48
f 19 31 32
f 19 32 20
f 20 33 34
f 20 34 21
f 20 32 33
f 22 35 36
f 22 36 23
f 24 36 37
f 24 37 38
f 24 38 61
f 24 87 63
f 24 61 87
f 24 39 25
f 29 44 43
f 29 47 44
f 29 46 47
f 29 45 46
f 28 45 29
f 27 43 44
f 24 63 39
f 27 42 43
f 26 66 67
f 26 41 66
f 25 62 40
f 25 39 62
f 26 67 42

