o convex_0
v -0.00144295 0.852103 -0.0629502
v 0.763452 -0.0015413 -0.0600638
v 0.832513 -0.0015413 -0.0600638
v -0.00144295 -0.853551 -0.0600638
v -0.00144295 -0.784496 -0.0600638
v -0.00144295 -0.736291 -0.147263
v -0.00144295 -0.80643 -0.112196
v -0.00144295 -0.848463 -0.0701282
v 0.0872098 -0.853551 -0.0600638
v 0.077169 -0.848463 -0.0701282
v 0.182393 -0.827447 -0.0701282
v 0.192434 -0.832451 -0.0600638
v 0.318638 -0.790417 -0.0600638
v 0.308597 -0.78533 -0.0701282
v 0.341903 -0.767816 -0.0736367
v 0.308597 -0.764313 -0.0911704
v 0.245495 -0.764313 -0.112196
v 0.259536 -0.750302 -0.119212
v 0.182393 -0.78533 -0.112196
v 0.077169 -0.827447 -0.0911704
v 0.0561079 -0.80643 -0.112196
v 0.140271 -0.764313 -0.133238
v 0.154312 -0.750302 -0.140246
v 0.196352 -0.771319 -0.119212
v 0.217413 -0.729285 -0.140246
v 0.147291 -0.736291 -0.147263
v 0.273495 -0.694174 -0.147263
v 0.280515 -0.708185 -0.140246
v 0.299862 -0.704683 -0.136738
v 0.4068 -0.645135 -0.140246
v 0.425984 -0.641633 -0.136738
v 0.423372 -0.631124 -0.141996
v 0.39978 -0.631124 -0.147263
v 0.589004 -0.441724 -0.147263
v 0.570637 -0.483841 -0.141996
v 0.59431 -0.473332 -0.136738
v 0.510147 -0.641633 -0.0946703
v 0.59431 -0.599516 -0.0736367
v 0.489086 -0.683666 -0.0736367
v 0.544024 -0.652141 -0.0600638
v 0.590555 -0.61311 -0.0600638
v 0.611616 -0.592093 -0.0600638
v 0.653657 -0.542554 -0.0600638
v 0.678391 -0.494349 -0.0736367
v 0.636351 -0.515366 -0.0946703
v 0.636351 -0.473332 -0.115704
v 0.633738 -0.462824 -0.120962
v 0.659126 -0.441724 -0.112196
v 0.659126 -0.378757 -0.133238
v 0.633738 -0.399774 -0.141996
v 0.591616 -0.462824 -0.141996
v 0.631126 -0.378757 -0.147263
v 0.673167 -0.294607 -0.147263
v 0.715207 -0.147324 -0.147263
v 0.694228 -0.231474 -0.147263
v 0.701248 -0.294607 -0.133238
v 0.722228 -0.231474 -0.133238
v 0.743289 -0.147324 -0.133238
v 0.76435 -0.210457 -0.112196
v 0.78533 -0.126307 -0.112196
v 0.785349 -0.0015413 -0.112196
v 0.7433 0.147278 -0.133233
v 0.72578 0.157807 -0.141998
v 0.715267 0.147278 -0.147255
v 0.694161 0.231423 -0.147255
v 0.704755 0.241951 -0.141998
v 0.673137 0.294594 -0.147255
v 0.652112 0.336624 -0.147255
v 0.662625 0.347153 -0.141998
v 0.568014 0.462799 -0.147255
v 0.441785 0.588974 -0.147255
v 0.578526 0.473328 -0.141998
v 0.673137 0.357681 -0.134108
v 0.589038 0.483856 -0.134108
v 0.504859 0.568001 -0.134108
v 0.452297 0.599503 -0.141998
v 0.462809 0.610031 -0.134108
v 0.399736 0.652145 -0.134108
v 0.389223 0.641617 -0.141998
v 0.347174 0.662674 -0.141998
v 0.336662 0.652145 -0.147255
v 0.378711 0.631088 -0.147255
v 0.252482 0.694176 -0.147255
v 0.262994 0.704704 -0.141998
v 0.189408 0.715233 -0.147255
v 0.0842037 0.73629 -0.147255
v 0.094716 0.746818 -0.141998
v -0.00144295 0.73629 -0.147255
v -0.00144295 0.827453 -0.0911673
v -0.00144295 0.764282 -0.133233
v 0.0842037 0.764282 -0.133233
v 0.189408 0.743309 -0.133233
v 0.147278 0.785339 -0.112196
v 0.0210485 0.827453 -0.0911673
v 0.168302 0.806396 -0.0911673
v 0.168302 0.827453 -0.0701304
v 2.388e-05 0.84851 -0.0701304
v -0.00144295 0.84851 -0.0701304
v 2.388e-05 0.852103 -0.0629502
v 0.168302 0.831046 -0.0629502
v 0.174495 0.829459 -0.0629502
v 0.25892 0.805811 -0.0629502
v 0.300724 0.787428 -0.0629502
v 0.294531 0.785339 -0.0701304
v 0.294531 0.764282 -0.0911673
v 0.231457 0.764282 -0.112196
v 0.294531 0.73629 -0.113071
v 0.336662 0.743309 -0.0911673
v 0.420679 0.722252 -0.0701304
v 0.378711 0.722252 -0.0911673
v 0.378711 0.694176 -0.113071
v 0.389223 0.704704 -0.099932
v 0.452297 0.704704 -0.0683725
v 0.469247 0.70061 -0.0629502
v 0.515371 0.662674 -0.0683725
v 0.536395 0.62056 -0.0894177
v 0.553345 0.637522 -0.0629502
v 0.616501 0.574435 -0.0629502
v 0.599551 0.557472 -0.0894177
v 0.504859 0.610031 -0.113071
v 0.568014 0.546944 -0.113071
v 0.589038 0.525887 -0.113071
v 0.620575 0.473328 -0.120961
v 0.620575 0.494301 -0.110446
v 0.662625 0.515358 -0.0683725
v 0.6733 0.504997 -0.0629502
v 0.700681 0.469233 -0.0629502
v 0.724313 0.426869 -0.0629502
v 0.722276 0.420769 -0.0701304
v 0.704755 0.452271 -0.0683725
v 0.704755 0.389267 -0.099932
v 0.722276 0.378738 -0.0911673
v 0.694161 0.378738 -0.113071
v 0.662625 0.41024 -0.120961
v 0.715267 0.336624 -0.113071
v 0.7433 0.336624 -0.0911673
v 0.785349 0.294594 -0.0701304
v 0.787387 0.300694 -0.0629502
v 0.808411 0.237606 -0.0629502
v 0.806374 0.231423 -0.0701304
v 0.831066 0.147278 -0.0629502
v 0.832513 -0.147324 -0.0600638
v 0.827452 -0.147324 -0.0701282
v 0.827399 0.147278 -0.0701304
v 0.785349 0.105248 -0.112196
v 0.806391 -0.147324 -0.0911704
v 0.78533 -0.231474 -0.0911704
v 0.806391 -0.231474 -0.0701282
v 0.76435 -0.294607 -0.0911704
v 0.78533 -0.294607 -0.0701282
v 0.811452 -0.231474 -0.0600638
v 0.790391 -0.294607 -0.0600638
v 0.782962 -0.312538 -0.0600638
v 0.701248 -0.462824 -0.0701282
v 0.701248 -0.420791 -0.0911704
v 0.695697 -0.486843 -0.0600638
v 0.459943 -0.715274 -0.0600638
v 0.485331 -0.69726 -0.0600638
v 0.473086 -0.706434 -0.0600638
v 0.425984 -0.725783 -0.0736367
v 0.447045 -0.662649 -0.115704
v 0.383943 -0.725783 -0.0946703
v 0.341903 -0.746799 -0.0946703
v 0.278801 -0.746799 -0.115704
v 0.338148 -0.78141 -0.0600638
v 0.422229 -0.739293 -0.0600638
v 0.432923 -0.733205 -0.0600638
v 0.678391 -0.452232 -0.0946703
v 0.675779 -0.315624 -0.141996
v 0.743289 -0.273507 -0.112196
v 0.764325 0.210449 -0.112196
v 0.785349 0.231423 -0.0911673
v 0.7433 0.273537 -0.112196
v 0.757317 0.231423 -0.113071
v 0.746804 0.220978 -0.120961
v 0.715267 0.25248 -0.134108
v 0.683649 0.305122 -0.141998
v 0.694161 0.315567 -0.134108
v 0.426872 0.724257 -0.0629502
v 0.273507 0.715233 -0.134108
v 0.210433 0.73629 -0.134108
v 0.19992 0.725761 -0.141998
f 2 3 1
f 2 4 3
f 5 4 2
f 5 1 4
f 5 2 1
f 6 4 1
f 7 4 6
f 8 4 7
f 8 9 4
f 10 9 8
f 11 9 10
f 12 9 11
f 12 13 9
f 12 11 13
f 14 13 11
f 14 15 13
f 14 16 15
f 14 11 16
f 17 16 11
f 17 18 16
f 17 19 18
f 17 11 19
f 11 20 19
f 11 10 20
f 10 8 20
f 8 7 20
f 20 7 21
f 20 21 19
f 22 19 21
f 23 19 22
f 24 19 23
f 24 18 19
f 24 23 18
f 23 25 18
f 23 26 25
f 23 21 26
f 23 22 21
f 26 21 6
f 26 6 27
f 25 26 27
f 28 25 27
f 28 18 25
f 28 29 18
f 30 29 28
f 30 31 29
f 30 32 31
f 30 33 32
f 30 28 33
f 28 27 33
f 33 27 34
f 33 34 35
f 32 33 35
f 32 35 36
f 32 36 31
f 36 37 31
f 38 37 36
f 38 39 37
f 38 40 39
f 41 40 38
f 41 42 40
f 41 38 42
f 38 43 42
f 38 44 43
f 45 44 38
f 45 46 44
f 45 38 46
f 46 38 36
f 47 46 36
f 47 48 46
f 47 49 48
f 47 50 49
f 47 51 50
f 47 36 51
f 51 36 35
f 51 35 34
f 52 51 34
f 52 50 51
f 52 53 50
f 52 34 53
f 53 34 54
f 55 53 54
f 55 56 53
f 55 57 56
f 58 57 55
f 58 59 57
f 58 60 59
f 58 61 60
f 58 62 61
f 58 63 62
f 58 64 63
f 58 54 64
f 58 55 54
f 65 64 54
f 65 66 64
f 65 67 66
f 65 54 67
f 68 67 54
f 68 69 67
f 68 70 69
f 68 54 70
f 71 70 54
f 72 70 71
f 72 69 70
f 72 73 69
f 72 74 73
f 72 75 74
f 76 75 72
f 76 77 75
f 76 78 77
f 79 78 76
f 79 80 78
f 79 81 80
f 82 81 79
f 82 54 81
f 82 71 54
f 82 79 71
f 79 76 71
f 76 72 71
f 83 81 54
f 83 80 81
f 83 84 80
f 83 85 84
f 83 54 85
f 86 85 54
f 86 87 85
f 86 88 87
f 86 54 88
f 54 6 88
f 54 34 6
f 27 6 34
f 88 6 1
f 89 88 1
f 90 88 89
f 87 88 90
f 91 87 90
f 91 92 87
f 91 93 92
f 94 93 91
f 94 95 93
f 94 96 95
f 94 97 96
f 94 89 97
f 94 91 89
f 91 90 89
f 98 97 89
f 98 1 97
f 98 89 1
f 99 97 1
f 99 100 97
f 99 3 100
f 99 1 3
f 101 100 3
f 101 96 100
f 101 102 96
f 101 3 102
f 102 3 103
f 104 102 103
f 105 102 104
f 105 106 102
f 105 107 106
f 105 108 107
f 105 104 108
f 108 104 109
f 110 108 109
f 110 111 108
f 110 112 111
f 110 113 112
f 110 109 113
f 113 109 114
f 113 114 115
f 113 115 112
f 115 78 112
f 115 116 78
f 115 117 116
f 115 114 117
f 117 114 3
f 117 3 118
f 117 118 119
f 117 119 116
f 120 116 119
f 120 77 116
f 120 121 77
f 120 119 121
f 122 121 119
f 122 74 121
f 122 123 74
f 124 123 122
f 124 125 123
f 124 119 125
f 124 122 119
f 125 119 118
f 126 125 118
f 126 127 125
f 126 3 127
f 126 118 3
f 128 127 3
f 129 127 128
f 130 127 129
f 130 131 127
f 130 129 131
f 131 129 132
f 131 132 133
f 131 133 134
f 131 134 123
f 131 123 127
f 125 127 123
f 134 73 123
f 133 73 134
f 133 135 73
f 133 132 135
f 132 136 135
f 132 137 136
f 129 137 132
f 129 128 137
f 128 138 137
f 128 3 138
f 139 138 3
f 139 137 138
f 139 140 137
f 139 141 140
f 139 3 141
f 141 3 142
f 143 141 142
f 143 144 141
f 143 145 144
f 143 61 145
f 146 61 143
f 146 60 61
f 146 59 60
f 146 147 59
f 146 143 147
f 148 147 143
f 148 149 147
f 148 150 149
f 148 151 150
f 148 143 151
f 143 142 151
f 151 142 152
f 151 152 150
f 153 150 152
f 154 150 153
f 154 149 150
f 154 155 149
f 154 44 155
f 154 156 44
f 154 153 156
f 153 152 156
f 156 152 42
f 43 156 42
f 43 44 156
f 152 3 42
f 142 3 152
f 42 3 4
f 13 42 4
f 157 42 13
f 40 42 157
f 158 40 157
f 158 39 40
f 159 39 158
f 159 157 39
f 159 158 157
f 39 157 160
f 161 39 160
f 161 37 39
f 161 31 37
f 161 162 31
f 161 160 162
f 163 162 160
f 164 162 163
f 164 31 162
f 164 29 31
f 164 18 29
f 164 163 18
f 16 18 163
f 16 163 15
f 15 163 160
f 165 15 160
f 165 13 15
f 165 166 13
f 165 160 166
f 167 166 160
f 167 157 166
f 167 160 157
f 166 157 13
f 9 13 4
f 155 44 168
f 46 155 168
f 46 48 155
f 49 155 48
f 49 56 155
f 49 50 56
f 169 56 50
f 169 53 56
f 169 50 53
f 149 155 56
f 170 149 56
f 170 59 149
f 170 56 59
f 59 56 57
f 59 147 149
f 46 168 44
f 145 61 62
f 145 62 171
f 145 171 144
f 172 144 171
f 172 140 144
f 172 137 140
f 172 173 137
f 172 174 173
f 172 171 174
f 175 174 171
f 175 176 174
f 175 66 176
f 175 63 66
f 175 171 63
f 63 171 62
f 63 64 66
f 176 66 177
f 176 177 178
f 176 178 174
f 174 178 173
f 135 173 178
f 135 136 173
f 136 137 173
f 135 178 73
f 177 73 178
f 177 69 73
f 177 67 69
f 177 66 67
f 140 141 144
f 74 123 73
f 121 74 75
f 121 75 77
f 116 77 78
f 179 3 114
f 179 103 3
f 179 109 103
f 179 114 109
f 109 104 103
f 112 78 111
f 78 107 111
f 180 107 78
f 180 106 107
f 180 181 106
f 180 182 181
f 84 182 180
f 84 85 182
f 87 182 85
f 87 92 182
f 182 92 181
f 106 181 92
f 106 92 93
f 95 106 93
f 95 102 106
f 95 96 102
f 84 180 80
f 180 78 80
f 108 111 107
f 100 96 97
f 7 6 21
o convex_1
v -0.904616 -0.357642 0.10517
v -0.897572 -0.371679 0.112195
v -0.894066 -0.36819 0.120956
v -0.897572 -0.357642 0.1192
v -0.903104 -0.353157 0.108192
v -0.904616 -0.353157 0.10517
v -0.892876 -0.353157 0.0748217
v -0.887055 -0.382186 0.0806422
v -0.873032 -0.41026 0.0736168
v -0.890561 -0.385716 0.0981648
v -0.827456 -0.511924 0.0981648
v -0.834468 -0.497929 0.112195
v -0.862514 -0.399753 0.126225
v -0.883549 -0.357642 0.126225
v -0.894581 -0.353157 0.120711
v -0.830962 -0.494399 0.120956
v -0.897572 -0.353157 0.1192
v -0.87004 -0.353157 0.0345483
v -0.851997 -0.431274 0.0525815
v -0.830962 -0.473385 0.0525815
v -0.830962 -0.494399 0.0736168
v -0.788893 -0.557524 0.0736168
v -0.785387 -0.575008 0.0981648
v -0.792398 -0.561012 0.112195
v -0.788893 -0.557524 0.120956
v -0.820445 -0.483892 0.126225
v -0.883549 -0.353157 0.126225
v -0.822696 -0.353157 -0.0232886
v -0.830962 -0.36819 -0.010504
v -0.827456 -0.385716 -0.00701173
v -0.830962 -0.41026 0.0105313
v -0.788893 -0.494399 0.0105313
v -0.788893 -0.515454 0.0315462
v -0.746823 -0.557524 0.0105313
v -0.746823 -0.578496 0.0315462
v -0.72582 -0.620607 0.0525815
v -0.683751 -0.683691 0.0736168
v -0.697774 -0.676672 0.101677
v -0.72582 -0.641621 0.120956
v -0.778375 -0.547017 0.126225
v -0.862514 -0.353157 0.126225
v -0.780627 -0.353157 -0.0653592
v -0.767858 -0.36819 -0.0736303
v -0.764352 -0.385716 -0.0701176
v -0.722315 -0.469855 -0.0701176
v -0.785387 -0.469855 -0.00701173
v -0.704786 -0.494399 -0.0736303
v -0.72582 -0.557524 -0.010504
v -0.683751 -0.662677 0.0525815
v -0.641649 -0.704746 0.0525815
v -0.620614 -0.72576 0.0525815
v -0.638143 -0.722272 0.0771295
v -0.596074 -0.764341 0.0981648
v -0.641649 -0.72576 0.0946521
v -0.676739 -0.697728 0.101677
v -0.687257 -0.687221 0.112195
v -0.704786 -0.662677 0.120956
v -0.715303 -0.631114 0.126225
v -0.848491 -0.353157 0.1192
v -0.589062 -0.715253 0.126225
v -0.576036 -0.71787 0.123611
v -0.760943 -0.353157 -0.0824121
v -0.759077 -0.359386 -0.0824121
v -0.738075 -0.401456 -0.0824121
v -0.71704 -0.443567 -0.0824121
v -0.72582 -0.452329 -0.0736303
v -0.700379 -0.468983 -0.0824121
v -0.67497 -0.50665 -0.0824121
v -0.641649 -0.578496 -0.0736303
v -0.683751 -0.557524 -0.0525746
v -0.59958 -0.620607 -0.0736303
v -0.620614 -0.704746 0.0315462
v -0.59958 -0.72576 0.0315462
v -0.578545 -0.767871 0.0736168
v -0.576036 -0.777382 0.106191
v -0.641649 -0.72576 0.120956
v -0.662684 -0.704746 0.120956
v -0.652166 -0.694239 0.126225
v -0.673233 -0.673184 0.126225
v -0.830962 -0.36819 0.115687
v -0.839003 -0.353157 0.109704
v -0.576036 -0.736309 0.126225
v -0.576036 -0.70973 0.118199
v -0.660883 -0.353157 -0.0824121
v -0.637275 -0.553122 -0.0824121
v -0.629395 -0.561012 -0.0824121
v -0.576036 -0.637635 -0.0696071
v -0.578545 -0.662677 -0.0525746
v -0.578545 -0.704746 -0.010504
v -0.584688 -0.605698 -0.0824121
v -0.576036 -0.614295 -0.0824121
v -0.578545 -0.72576 0.0105313
v -0.576036 -0.767871 0.0736168
v -0.576036 -0.769117 0.0761288
v -0.576036 -0.77435 0.114809
v -0.582051 -0.77136 0.112195
v -0.576036 -0.770363 0.120323
v -0.578545 -0.767871 0.120956
v -0.631132 -0.715253 0.126225
v -0.618813 -0.408433 -0.0824121
v -0.576036 -0.705245 0.115197
v -0.589062 -0.736309 0.126225
v -0.576036 -0.765338 0.122202
v -0.576036 -0.662677 -0.0525746
v -0.576036 -0.702255 -0.013016
v -0.576036 -0.48248 -0.0824121
v -0.576036 -0.72576 0.0105313
v -0.576711 -0.471558 -0.0824121
f 183 184 185
f 183 185 186
f 183 186 187
f 183 187 188
f 183 188 189
f 183 189 190
f 183 190 191
f 183 191 192
f 183 192 193
f 183 193 194
f 183 194 184
f 184 194 185
f 185 195 196
f 185 196 197
f 185 197 186
f 185 194 198
f 185 198 208
f 185 208 195
f 186 197 199
f 186 199 187
f 187 199 197
f 187 197 209
f 187 209 223
f 187 223 241
f 187 241 263
f 187 263 266
f 187 266 244
f 187 244 224
f 187 224 210
f 187 210 200
f 187 200 189
f 187 189 188
f 189 200 190
f 190 200 191
f 191 200 201
f 191 201 202
f 191 202 203
f 191 203 193
f 191 193 192
f 193 203 204
f 193 204 205
f 193 205 206
f 193 206 194
f 194 206 207
f 194 207 198
f 195 208 222
f 195 222 240
f 195 240 261
f 195 261 260
f 195 260 281
f 195 281 284
f 195 284 264
f 195 264 242
f 195 242 223
f 195 223 209
f 195 209 196
f 196 209 197
f 198 207 222
f 198 222 208
f 200 210 211
f 200 211 212
f 200 212 213
f 200 213 201
f 201 213 202
f 202 213 214
f 202 214 215
f 202 215 204
f 202 204 203
f 204 216 217
f 204 217 218
f 204 218 219
f 204 219 205
f 204 215 216
f 205 219 220
f 205 220 221
f 205 221 206
f 206 221 207
f 207 221 240
f 207 240 222
f 210 224 225
f 210 225 211
f 211 225 212
f 212 225 226
f 212 226 227
f 212 227 228
f 212 228 214
f 212 214 213
f 214 228 229
f 214 229 230
f 214 230 216
f 214 216 215
f 216 230 218
f 216 218 217
f 218 231 219
f 218 230 231
f 219 231 232
f 219 232 233
f 219 233 234
f 219 234 235
f 219 235 236
f 219 236 237
f 219 237 220
f 220 237 238
f 220 238 221
f 221 238 239
f 221 239 240
f 223 242 243
f 223 243 241
f 224 244 225
f 225 244 245
f 225 245 246
f 225 246 247
f 225 247 248
f 225 248 227
f 225 227 226
f 227 248 229
f 227 229 228
f 229 248 247
f 229 247 249
f 229 249 250
f 229 250 251
f 229 251 252
f 229 252 230
f 230 252 231
f 231 253 254
f 231 254 232
f 231 252 253
f 232 254 255
f 232 255 233
f 233 255 256
f 233 256 234
f 234 256 235
f 235 256 257
f 235 257 258
f 235 258 237
f 235 237 236
f 237 258 238
f 238 258 259
f 238 259 239
f 239 259 260
f 239 260 261
f 239 261 240
f 241 243 262
f 241 262 263
f 242 264 243
f 243 264 285
f 243 285 279
f 243 279 277
f 243 277 257
f 243 257 276
f 243 276 275
f 243 275 289
f 243 289 287
f 243 287 286
f 243 286 269
f 243 269 273
f 243 273 288
f 243 288 283
f 243 283 265
f 243 265 262
f 244 266 282
f 244 282 290
f 244 290 288
f 244 288 273
f 244 273 272
f 244 272 268
f 244 268 267
f 244 267 250
f 244 250 249
f 244 249 247
f 244 247 246
f 244 246 245
f 250 267 251
f 251 267 268
f 251 268 253
f 251 253 252
f 253 269 270
f 253 270 271
f 253 271 254
f 253 268 272
f 253 272 273
f 253 273 269
f 254 271 255
f 255 274 256
f 255 271 274
f 256 275 276
f 256 276 257
f 256 274 289
f 256 289 275
f 257 277 278
f 257 278 258
f 258 278 277
f 258 277 279
f 258 279 280
f 258 280 281
f 258 281 260
f 258 260 259
f 262 282 266
f 262 266 263
f 262 265 283
f 262 283 282
f 264 284 285
f 269 286 270
f 270 286 287
f 270 287 271
f 271 287 274
f 274 287 289
f 279 285 280
f 280 285 281
f 281 285 284
f 282 283 290
f 283 288 290
o convex_2
v -0.833649 -0.00145956 -0.0788208
v -0.767992 -0.00145956 -0.0788208
v -0.0015244 0.746909 -0.0788208
v -0.00152425 -0.831854 -0.0824121
v -0.103456 -0.831854 -0.0824121
v -0.112235 -0.827465 -0.091164
v -0.208639 -0.810803 -0.0824121
v -0.217418 -0.806414 -0.091164
v -0.219206 -0.808121 -0.0824121
v -0.345442 -0.766102 -0.0824121
v -0.343654 -0.764313 -0.091164
v -0.280577 -0.764313 -0.112207
v -0.175393 -0.764313 -0.133234
v -0.0911819 -0.806414 -0.112207
v -0.168322 -0.736273 -0.147257
v -0.259524 -0.743263 -0.133234
v -0.284072 -0.725789 -0.13674
v -0.252452 -0.715223 -0.147257
v -0.23148 -0.673122 -0.168301
v -0.147269 -0.694173 -0.168301
v -0.294558 -0.652153 -0.168301
v -0.326096 -0.662638 -0.157775
v -0.410308 -0.620537 -0.157775
v -0.410308 -0.662638 -0.13674
v -0.452251 -0.641587 -0.13674
v -0.51541 -0.599568 -0.13674
v -0.410308 -0.725789 -0.0946699
v -0.38576 -0.680193 -0.133234
v -0.38576 -0.743263 -0.091164
v -0.401529 -0.73798 -0.0824121
v -0.426809 -0.7214 -0.0824121
v -0.489968 -0.679299 -0.0824121
v -0.527603 -0.65386 -0.0824121
v -0.536382 -0.641587 -0.0946699
v -0.578487 -0.578517 -0.115713
v -0.59954 -0.557467 -0.115713
v -0.59954 -0.515366 -0.13674
v -0.662618 -0.431246 -0.13674
v -0.620593 -0.431246 -0.157775
v -0.725776 -0.305106 -0.13674
v -0.68367 -0.305106 -0.157775
v -0.701228 -0.280561 -0.154269
v -0.743253 -0.280561 -0.133234
v -0.722281 -0.385731 -0.112207
v -0.704723 -0.410277 -0.115713
v -0.662618 -0.515366 -0.0946699
v -0.704723 -0.452296 -0.0946699
v -0.722281 -0.427751 -0.091164
v -0.716997 -0.443518 -0.0824121
v -0.700334 -0.468876 -0.0824121
v -0.674892 -0.506588 -0.0824121
v -0.787147 -0.303318 -0.0824121
v -0.785358 -0.301611 -0.091164
v -0.743253 -0.343631 -0.112207
v -0.785358 -0.23846 -0.112207
v -0.764305 -0.217409 -0.133234
v -0.806411 -0.15434 -0.112207
v -0.806411 -0.23846 -0.091164
v -0.808118 -0.240248 -0.0824121
v -0.831854 -0.145562 -0.0824121
v -0.833649 0.152645 -0.0788208
v -0.827458 0.1403 -0.0911707
v -0.832509 0.174065 -0.0788208
v -0.791534 0.299883 -0.0788208
v -0.812551 0.236769 -0.0788208
v -0.80636 0.224424 -0.0911707
v -0.785343 0.287538 -0.0911707
v -0.764326 0.203414 -0.13323
v -0.80636 0.1403 -0.112201
v -0.785343 0.0981976 -0.13323
v -0.729298 0.15428 -0.161285
v -0.785358 -0.112239 -0.133234
v -0.743253 -0.15434 -0.154269
v -0.715209 -0.147269 -0.168301
v -0.715205 0.147331 -0.168292
v -0.673171 0.273558 -0.168292
v -0.631056 0.357682 -0.168292
v -0.589022 0.420714 -0.168292
v -0.589022 0.444341 -0.163037
v -0.631056 0.381309 -0.163037
v -0.641645 0.384007 -0.157781
v -0.645148 0.364713 -0.161285
v -0.687182 0.364713 -0.140246
v -0.687182 0.280507 -0.161285
v -0.750314 0.217394 -0.140246
v -0.708199 0.32261 -0.140246
v -0.683679 0.384007 -0.136743
v -0.641645 0.447038 -0.136743
v -0.59953 0.447038 -0.157781
v -0.568005 0.528546 -0.141998
v -0.578513 0.531162 -0.136743
v -0.662662 0.468049 -0.115713
v -0.725795 0.362914 -0.115713
v -0.704696 0.447038 -0.0946743
v -0.767829 0.320893 -0.0946743
v -0.729298 0.343621 -0.119216
v -0.704696 0.341904 -0.136743
v -0.783714 0.318277 -0.0788208
v -0.720581 0.444422 -0.0788208
v -0.70991 0.463062 -0.0788208
v -0.636432 0.549639 -0.0788208
v -0.657449 0.528546 -0.0788208
v -0.694351 0.486525 -0.0788208
v -0.641645 0.531162 -0.0946743
v -0.59953 0.573265 -0.0946743
v -0.536398 0.636379 -0.0946743
v -0.557415 0.552173 -0.136743
v -0.546906 0.549557 -0.141998
v -0.473265 0.615286 -0.136743
v -0.494364 0.636379 -0.115713
v -0.473265 0.6784 -0.0946743
v -0.505035 0.675866 -0.0788208
v -0.531266 0.654773 -0.0788208
v -0.331279 0.765303 -0.0788208
v -0.420723 0.721484 -0.0788208
v -0.468133 0.696876 -0.0788208
v -0.44174 0.701209 -0.0911707
v -0.315638 0.764322 -0.0911707
v -0.399788 0.701209 -0.112201
v -0.431232 0.6784 -0.115713
v -0.410296 0.657389 -0.136743
v -0.462757 0.61267 -0.141998
v -0.504872 0.528546 -0.163037
v -0.399788 0.654773 -0.141998
v -0.378689 0.680198 -0.13323
v -0.315638 0.743312 -0.112201
v -0.29454 0.72222 -0.13323
v -0.315638 0.696794 -0.141998
v -0.29454 0.694178 -0.147262
v -0.29454 0.70824 -0.140246
v -0.231489 0.743312 -0.13323
v -0.252506 0.764322 -0.112201
v -0.189374 0.806425 -0.0911707
v -0.14734 0.764322 -0.13323
v -0.14734 0.736281 -0.147262
v -0.231489 0.715271 -0.147262
v -0.44174 0.546941 -0.168292
v -0.0015244 0.736281 -0.147262
v -0.0015244 0.764322 -0.13323
v -0.00152425 -0.736273 -0.147257
v -0.0015244 0.827436 -0.0911707
v -0.0015244 0.833567 -0.0788208
v -0.042092 0.827436 -0.0911707
v -0.042092 0.833567 -0.0788208
v -0.189374 0.812557 -0.0788208
v -0.273523 0.790075 -0.0788208
v -0.378689 0.742494 -0.0788208
v -0.00152425 -0.806414 -0.112207
v -0.126297 -0.694173 -0.168301
v -0.525896 -0.504882 -0.168301
v -0.378688 -0.610052 -0.168301
v -0.441765 -0.567951 -0.168301
v -0.473304 -0.578517 -0.157775
v -0.550444 -0.529427 -0.150763
v -0.610026 -0.399792 -0.168301
v -0.673185 -0.27349 -0.168301
v -0.483855 0.52593 -0.168292
v -0.378689 0.652157 -0.147262
v -0.568005 0.465433 -0.163037
v -0.00152425 -0.827465 -0.091164
v -0.827464 -0.15434 -0.091164
v -0.637175 -0.553078 -0.0824121
v -0.574098 -0.616148 -0.0824121
f 292 293 291
f 292 294 293
f 292 291 294
f 295 294 291
f 295 296 294
f 297 296 295
f 297 298 296
f 297 299 298
f 297 291 299
f 297 295 291
f 299 291 300
f 299 300 298
f 298 300 301
f 302 298 301
f 303 298 302
f 303 304 298
f 303 305 304
f 303 306 305
f 303 302 306
f 306 302 307
f 306 307 308
f 306 308 305
f 309 305 308
f 309 310 305
f 309 311 310
f 309 308 311
f 308 307 311
f 312 311 307
f 312 313 311
f 312 307 313
f 314 313 307
f 315 313 314
f 315 316 313
f 315 317 316
f 315 314 317
f 314 318 317
f 314 307 318
f 307 317 318
f 302 317 307
f 302 301 317
f 319 317 301
f 319 320 317
f 319 300 320
f 319 301 300
f 320 300 291
f 321 320 291
f 321 317 320
f 321 322 317
f 321 291 322
f 322 291 323
f 322 323 324
f 322 324 317
f 317 324 316
f 325 316 324
f 326 316 325
f 326 327 316
f 328 327 326
f 328 329 327
f 330 329 328
f 330 331 329
f 330 332 331
f 330 333 332
f 330 334 333
f 330 335 334
f 330 328 335
f 335 328 336
f 337 335 336
f 337 338 335
f 337 339 338
f 337 340 339
f 337 336 340
f 340 336 341
f 340 341 291
f 340 291 339
f 339 291 342
f 338 339 342
f 338 342 343
f 338 343 334
f 335 338 334
f 334 343 344
f 333 334 344
f 333 344 343
f 345 333 343
f 345 346 333
f 345 347 346
f 345 348 347
f 345 343 348
f 348 343 342
f 349 348 342
f 349 350 348
f 349 291 350
f 349 342 291
f 351 350 291
f 351 352 350
f 351 353 352
f 351 291 353
f 353 291 354
f 355 353 354
f 355 356 353
f 355 354 356
f 356 354 357
f 356 357 358
f 359 356 358
f 359 353 356
f 359 352 353
f 359 360 352
f 359 358 360
f 360 358 361
f 360 361 362
f 360 362 352
f 362 347 352
f 362 346 347
f 362 363 346
f 362 364 363
f 362 361 364
f 365 364 361
f 366 364 365
f 367 364 366
f 367 368 364
f 367 369 368
f 370 369 367
f 370 371 369
f 372 371 370
f 372 373 371
f 372 374 373
f 372 366 374
f 372 367 366
f 372 370 367
f 374 366 361
f 374 361 375
f 374 375 376
f 374 376 373
f 373 376 377
f 373 377 371
f 378 371 377
f 379 371 378
f 379 369 371
f 379 380 369
f 379 381 380
f 379 378 381
f 378 382 381
f 378 377 382
f 383 382 377
f 383 384 382
f 383 385 384
f 383 386 385
f 387 386 383
f 387 376 386
f 387 377 376
f 387 383 377
f 375 386 376
f 375 358 386
f 375 361 358
f 386 358 357
f 385 386 357
f 388 385 357
f 388 384 385
f 389 384 388
f 389 390 384
f 389 388 390
f 388 354 390
f 388 357 354
f 390 354 391
f 392 390 391
f 393 390 392
f 393 384 390
f 393 394 384
f 393 392 394
f 392 391 394
f 394 391 395
f 381 394 395
f 381 382 394
f 384 394 382
f 396 381 395
f 397 381 396
f 397 398 381
f 397 399 398
f 397 400 399
f 397 396 400
f 396 401 400
f 396 402 401
f 396 403 402
f 396 391 403
f 396 395 391
f 403 391 402
f 402 391 404
f 405 402 404
f 406 402 405
f 406 407 402
f 406 405 407
f 407 405 408
f 407 408 409
f 407 409 401
f 407 401 402
f 410 401 409
f 410 400 401
f 411 400 410
f 411 399 400
f 412 399 411
f 412 398 399
f 412 413 398
f 412 414 413
f 412 411 414
f 411 415 414
f 411 409 415
f 411 410 409
f 415 409 416
f 417 415 416
f 417 414 415
f 418 414 417
f 418 419 414
f 418 420 419
f 418 417 420
f 417 421 420
f 417 416 421
f 421 416 422
f 421 422 423
f 421 423 424
f 421 424 425
f 426 421 425
f 426 420 421
f 426 419 420
f 426 427 419
f 426 425 427
f 425 428 427
f 425 424 428
f 429 428 424
f 429 430 428
f 431 430 429
f 431 432 430
f 431 433 432
f 431 429 433
f 433 429 424
f 433 424 423
f 434 433 423
f 434 432 433
f 434 435 432
f 434 423 435
f 435 423 436
f 435 436 432
f 436 404 432
f 408 404 436
f 437 404 408
f 437 405 404
f 437 408 405
f 408 436 423
f 408 423 416
f 408 416 409
f 422 416 423
f 404 391 432
f 391 291 432
f 354 291 391
f 293 432 291
f 293 294 432
f 430 432 294
f 438 430 294
f 438 439 430
f 310 439 438
f 310 311 439
f 311 440 439
f 441 440 311
f 442 440 441
f 442 443 440
f 442 441 443
f 441 313 443
f 441 311 313
f 443 313 316
f 443 316 440
f 444 440 316
f 444 329 440
f 444 327 329
f 444 316 327
f 329 445 440
f 329 446 445
f 329 331 446
f 446 331 332
f 446 332 364
f 446 364 445
f 445 364 440
f 364 439 440
f 427 439 364
f 427 428 439
f 430 439 428
f 447 427 364
f 447 419 427
f 447 448 419
f 447 414 448
f 447 413 414
f 447 449 413
f 447 368 449
f 447 364 368
f 369 449 368
f 380 449 369
f 380 413 449
f 380 398 413
f 380 381 398
f 448 414 419
f 332 363 364
f 332 346 363
f 333 346 332
f 304 310 438
f 304 305 310
f 304 438 296
f 304 296 298
f 450 296 438
f 450 294 296
f 450 438 294
f 366 365 361
f 451 352 347
f 451 350 352
f 451 348 350
f 451 347 348
f 452 291 341
f 452 453 291
f 452 325 453
f 326 325 452
f 326 452 336
f 328 326 336
f 452 341 336
f 325 324 453
f 323 453 324
f 323 291 453
o convex_3
v -0.967699 -0.126258 0.10517
v -0.9607 -0.126258 0.1192
v -0.96121 -0.0015413 0.118179
v -0.967699 -0.0015413 0.10517
v -0.966948 -0.0015413 0.103638
v -0.953701 -0.133244 0.0771295
v -0.946672 -0.231393 0.10517
v -0.957185 -0.136754 0.120956
v -0.946672 -0.126258 0.126225
v -0.9607 -0.0015413 0.1192
v -0.939673 -0.231393 0.1192
v -0.936158 -0.241923 0.120956
v -0.953701 -0.0015413 0.0771295
v -0.939673 -0.0981759 0.0490688
v -0.911617 -0.0701285 -0.00701173
v -0.932644 -0.112217 0.0350589
v -0.911617 -0.175332 0.014044
v -0.932644 -0.238413 0.0771295
v -0.929159 -0.25593 0.0806422
v -0.925645 -0.294508 0.10517
v -0.939673 -0.245434 0.112195
v -0.946672 -0.0015413 0.126225
v -0.925645 -0.231393 0.126225
v -0.915131 -0.305039 0.120956
v -0.939673 -0.0015413 0.0490688
v -0.911617 -0.0015413 -0.00701173
v -0.89059 -0.112217 -0.028047
v -0.89059 -0.196325 -0.00701173
v -0.89059 -0.25944 0.014044
v -0.894075 -0.283977 0.0315462
v -0.894075 -0.326066 0.0525815
v -0.908102 -0.319045 0.0806422
v -0.904588 -0.353115 0.10517
v -0.918616 -0.308549 0.112195
v -0.925645 -0.042081 0.126225
v -0.915131 -0.0105234 0.115687
v -0.916904 -0.0015413 0.113911
v -0.904588 -0.294508 0.126225
v -0.897589 -0.353115 0.1192
v -0.894585 -0.353115 0.120711
v -0.883561 -0.353115 0.126225
v -0.89059 -0.0015413 -0.028047
v -0.848506 -0.154305 -0.0701176
v -0.848506 -0.238413 -0.0490823
v -0.869533 -0.280467 -0.00701173
v -0.887076 -0.276991 0.0175363
v -0.89059 -0.301528 0.0350589
v -0.887076 -0.319045 0.0385511
v -0.873048 -0.347093 0.0315462
v -0.892873 -0.353115 0.0748217
v -0.903086 -0.353115 0.108192
v -0.911617 -0.0491015 0.1192
v -0.862534 -0.336596 0.126225
v -0.848506 -0.343582 0.1192
v -0.760854 -0.0015413 -0.0824121
v -0.852021 -0.305039 0.115687
v -0.660856 -0.345269 -0.0824121
v -0.862534 -0.353115 0.126225
v -0.848506 -0.0015413 -0.0701176
v -0.831835 -0.14553 -0.0824121
v -0.829222 -0.156026 -0.0824121
v -0.810838 -0.229672 -0.0824121
v -0.827449 -0.238413 -0.0701176
v -0.806453 -0.301528 -0.0701176
v -0.827449 -0.301528 -0.0490823
v -0.827449 -0.343582 -0.028047
v -0.869533 -0.322555 0.014044
v -0.873048 -0.305039 0.0105313
v -0.822703 -0.353115 -0.0232886
v -0.870044 -0.353115 0.0345483
v -0.857998 -0.353115 0.123959
v -0.848506 -0.353115 0.1192
v -0.839014 -0.353115 0.109704
v -0.831835 -0.0015413 -0.0824121
v -0.660856 -0.353115 -0.0824121
v -0.808195 -0.240168 -0.0824121
v -0.787168 -0.303284 -0.0824121
v -0.785426 -0.343582 -0.0701176
v -0.806453 -0.343582 -0.0490823
v -0.801706 -0.353115 -0.0443239
v -0.760974 -0.353115 -0.0824121
v -0.766141 -0.345338 -0.0824121
v -0.78068 -0.353115 -0.0653592
f 454 455 456
f 454 456 457
f 454 457 458
f 454 458 459
f 454 459 460
f 454 460 464
f 454 464 455
f 455 461 462
f 455 462 475
f 455 475 463
f 455 463 456
f 455 464 465
f 455 465 461
f 456 463 475
f 456 475 490
f 456 490 508
f 456 508 527
f 456 527 512
f 456 512 495
f 456 495 479
f 456 479 478
f 456 478 466
f 456 466 458
f 456 458 457
f 458 466 459
f 459 466 478
f 459 478 467
f 459 467 468
f 459 468 469
f 459 469 470
f 459 470 471
f 459 471 460
f 460 471 472
f 460 472 473
f 460 473 474
f 460 474 464
f 461 465 462
f 462 465 476
f 462 476 491
f 462 491 494
f 462 494 511
f 462 511 506
f 462 506 488
f 462 488 475
f 464 474 465
f 465 474 477
f 465 477 476
f 467 478 479
f 467 479 468
f 468 479 495
f 468 495 480
f 468 480 470
f 468 470 469
f 470 480 481
f 470 481 482
f 470 482 471
f 471 482 483
f 471 483 484
f 471 484 472
f 472 484 485
f 472 485 473
f 473 485 486
f 473 486 487
f 473 487 474
f 474 487 477
f 475 488 489
f 475 489 490
f 476 477 491
f 477 487 492
f 477 492 493
f 477 493 494
f 477 494 491
f 480 496 497
f 480 497 481
f 480 495 512
f 480 512 496
f 481 497 482
f 482 497 498
f 482 498 499
f 482 499 500
f 482 500 483
f 483 500 484
f 484 500 501
f 484 501 502
f 484 502 503
f 484 503 485
f 485 503 486
f 486 503 523
f 486 523 522
f 486 522 533
f 486 533 536
f 486 536 534
f 486 534 528
f 486 528 526
f 486 526 525
f 486 525 524
f 486 524 511
f 486 511 494
f 486 494 493
f 486 493 492
f 486 492 504
f 486 504 487
f 487 504 492
f 488 505 489
f 488 506 507
f 488 507 505
f 489 508 490
f 489 505 507
f 489 507 509
f 489 509 510
f 489 510 508
f 496 512 527
f 496 527 513
f 496 513 514
f 496 514 515
f 496 515 516
f 496 516 497
f 497 516 517
f 497 517 518
f 497 518 498
f 498 518 519
f 498 519 520
f 498 520 502
f 498 502 521
f 498 521 500
f 498 500 499
f 500 521 502
f 500 502 501
f 502 522 523
f 502 523 503
f 502 520 519
f 502 519 522
f 506 511 524
f 506 524 507
f 507 510 509
f 507 524 525
f 507 525 526
f 507 526 510
f 508 510 528
f 508 528 534
f 508 534 535
f 508 535 530
f 508 530 529
f 508 529 515
f 508 515 514
f 508 514 513
f 508 513 527
f 510 526 528
f 515 529 516
f 516 529 517
f 517 530 535
f 517 535 531
f 517 531 532
f 517 532 519
f 517 519 518
f 517 529 530
f 519 532 533
f 519 533 522
f 531 535 534
f 531 534 536
f 531 536 533
f 531 533 532
o convex_4
v 0.505335 0.547387 -0.0629502
v 0.725805 0.557471 0.152501
v 0.720781 0.567611 0.149988
v 0.505335 0.567611 -0.0629502
v 0.757669 -0.00148558 -0.0629502
v 0.916583 -0.0015413 0.14571
v 0.917941 -0.0015413 0.147068
v 0.932651 -0.0015413 0.161283
v 0.746806 0.536412 0.163026
v 0.735944 0.567611 0.160106
v 0.617992 0.567611 -0.0629502
v 0.773692 -0.0015413 -0.0629502
v 0.770343 -0.0015413 -0.0566121
v 0.946682 -0.0015413 0.168301
v 0.757352 0.546942 0.168301
v 0.736487 0.567611 0.160423
v 0.638043 0.567611 -0.0493459
v 0.673347 0.504991 -0.0629502
v 0.831038 -0.0015413 -0.0629502
v 0.960713 -0.0015413 0.161283
v 0.946682 0.126262 0.168301
v 0.757352 0.567611 0.168301
v 0.672804 0.567611 -0.0216393
v 0.66271 0.557471 -0.0368055
v 0.704804 0.49435 -0.0473313
v 0.700685 0.469224 -0.0629502
v 0.848509 -0.0015413 -0.0490743
v 0.831038 0.147265 -0.0629502
v 0.967683 -0.0015413 0.147249
v 0.960713 0.119242 0.161283
v 0.925635 0.231446 0.168301
v 0.759344 0.567611 0.167893
v 0.778354 0.546942 0.168301
v 0.673347 0.567611 -0.0211639
v 0.704804 0.473291 -0.0578345
v 0.71544 0.567611 0.0209167
v 0.746806 0.49435 -0.00525069
v 0.743321 0.462817 -0.0280453
v 0.72232 0.462817 -0.0490743
v 0.724357 0.426883 -0.0629502
v 0.890558 -0.0015413 -0.00699367
v 0.848509 0.126262 -0.0490743
v 0.8295 0.153449 -0.0629502
v 0.848509 0.210387 -0.0280453
v 0.967683 -0.0015413 0.12622
v 0.967683 0.126262 0.147249
v 0.946682 0.231446 0.147249
v 0.939666 0.224426 0.161283
v 0.883542 0.357633 0.168301
v 0.777946 0.567611 0.161691
v 0.774869 0.564491 0.164792
v 0.820447 0.48382 0.168301
v 0.730874 0.567611 0.0389577
v 0.767853 0.515409 0.0368299
v 0.7889 0.452287 0.0157783
v 0.785369 0.420699 -0.00699367
v 0.806416 0.378636 -0.00699367
v 0.806416 0.336574 -0.0280453
v 0.806416 0.294511 -0.0490743
v 0.787451 0.30064 -0.0629502
v 0.932651 -0.0015413 0.0560933
v 0.890558 0.0420811 -0.00699367
v 0.869511 0.105203 -0.0280453
v 0.890558 0.168324 0.0140353
v 0.809992 0.231446 -0.0629502
v 0.808453 0.237574 -0.0629502
v 0.848509 0.273508 -0.00699367
v 0.890558 0.231446 0.0350643
v 0.967186 -0.0015413 0.125179
v 0.967683 0.0420811 0.12622
v 0.946682 0.147265 0.105168
v 0.941432 0.168324 0.102543
v 0.915135 0.305041 0.157775
v 0.941432 0.210387 0.123594
v 0.920385 0.294511 0.123594
v 0.899338 0.357633 0.123594
v 0.904589 0.357633 0.147249
v 0.897573 0.350613 0.161283
v 0.862541 0.399695 0.168301
v 0.786863 0.567611 0.155738
v 0.809946 0.536412 0.157775
v 0.773103 0.567611 0.102135
v 0.767853 0.557471 0.0788879
v 0.809946 0.515409 0.0999168
v 0.809946 0.473291 0.0578362
v 0.809946 0.410225 0.0157783
v 0.848509 0.315515 0.0140353
v 0.939666 -0.0015413 0.070105
v 0.932651 0.0420811 0.0560933
v 0.911604 0.126262 0.0350643
v 0.890558 0.273508 0.0560933
v 0.899338 0.252505 0.060462
v 0.911604 0.189383 0.0560933
v 0.960713 -0.0015413 0.112186
v 0.960713 0.0420811 0.112186
v 0.932651 0.147265 0.0771222
v 0.939666 0.0420811 0.070105
v 0.920385 0.252505 0.102543
v 0.894088 0.368107 0.157775
v 0.899338 0.294511 0.0815137
v 0.878292 0.357633 0.0815137
v 0.894088 0.368107 0.120946
v 0.897573 0.371617 0.140232
v 0.855525 0.455797 0.140232
v 0.848509 0.469837 0.154266
v 0.890558 0.385656 0.154266
v 0.789081 0.567611 0.146842
v 0.802931 0.550452 0.150758
v 0.827463 0.511899 0.154266
v 0.77333 0.567611 0.102656
v 0.809946 0.536412 0.120946
v 0.873041 0.410225 0.120946
v 0.873041 0.368107 0.0788879
v 0.830948 0.431228 0.0578362
v 0.851995 0.347103 0.0368299
v 0.869511 0.336574 0.0560933
v 0.834478 0.49786 0.140232
v 0.784147 0.567611 0.129502
v 0.78383 0.567611 0.128552
f 537 538 539
f 537 539 540
f 537 540 547
f 537 547 554
f 537 554 562
f 537 562 576
f 537 576 596
f 537 596 602
f 537 602 601
f 537 601 579
f 537 579 564
f 537 564 555
f 537 555 548
f 537 548 541
f 537 541 542
f 537 542 543
f 537 543 544
f 537 544 538
f 538 544 545
f 538 545 546
f 538 546 539
f 539 546 552
f 539 552 558
f 539 558 568
f 539 568 586
f 539 586 616
f 539 616 643
f 539 643 654
f 539 654 655
f 539 655 646
f 539 646 618
f 539 618 589
f 539 589 572
f 539 572 570
f 539 570 559
f 539 559 553
f 539 553 547
f 539 547 540
f 541 548 549
f 541 549 542
f 542 549 548
f 542 548 555
f 542 555 563
f 542 563 577
f 542 577 597
f 542 597 624
f 542 624 630
f 542 630 605
f 542 605 581
f 542 581 565
f 542 565 556
f 542 556 550
f 542 550 544
f 542 544 543
f 544 550 545
f 545 551 552
f 545 552 546
f 545 550 551
f 547 553 554
f 550 556 566
f 550 566 557
f 550 557 567
f 550 567 585
f 550 585 615
f 550 615 588
f 550 588 569
f 550 569 558
f 550 558 551
f 551 558 552
f 553 559 560
f 553 560 561
f 553 561 554
f 554 561 562
f 555 564 578
f 555 578 563
f 556 565 582
f 556 582 566
f 557 566 584
f 557 584 567
f 558 569 568
f 559 570 561
f 559 561 560
f 561 571 562
f 561 570 572
f 561 572 573
f 561 573 574
f 561 574 575
f 561 575 571
f 562 571 575
f 562 575 576
f 563 578 598
f 563 598 577
f 564 579 580
f 564 580 578
f 565 581 606
f 565 606 582
f 566 582 583
f 566 583 584
f 567 584 614
f 567 614 585
f 568 569 587
f 568 587 586
f 569 588 587
f 572 589 590
f 572 590 573
f 573 590 591
f 573 591 574
f 574 591 592
f 574 592 593
f 574 593 594
f 574 594 575
f 575 594 595
f 575 595 596
f 575 596 576
f 577 598 625
f 577 625 597
f 578 599 598
f 578 580 600
f 578 600 599
f 579 601 580
f 580 601 602
f 580 602 595
f 580 595 603
f 580 603 604
f 580 604 600
f 581 605 606
f 582 606 607
f 582 607 608
f 582 608 583
f 583 609 584
f 583 608 610
f 583 610 611
f 583 611 612
f 583 612 613
f 583 613 609
f 584 609 614
f 585 614 615
f 586 587 617
f 586 617 616
f 587 588 617
f 588 615 617
f 589 618 619
f 589 619 590
f 590 620 621
f 590 621 591
f 590 619 620
f 591 622 593
f 591 593 592
f 591 621 622
f 593 623 603
f 593 603 594
f 593 622 623
f 594 603 595
f 595 602 596
f 597 625 633
f 597 633 624
f 598 599 626
f 598 626 625
f 599 600 626
f 600 604 629
f 600 629 626
f 603 627 604
f 603 623 627
f 604 627 628
f 604 628 629
f 605 630 631
f 605 631 606
f 606 631 607
f 607 632 608
f 607 631 633
f 607 633 632
f 608 632 629
f 608 629 628
f 608 628 634
f 608 634 610
f 609 613 635
f 609 635 614
f 610 634 611
f 611 634 628
f 611 628 636
f 611 636 637
f 611 637 612
f 612 637 638
f 612 638 639
f 612 639 613
f 613 639 640
f 613 640 641
f 613 641 642
f 613 642 635
f 614 635 615
f 615 635 641
f 615 641 617
f 616 617 644
f 616 644 643
f 617 641 645
f 617 645 644
f 618 646 647
f 618 647 619
f 619 647 620
f 620 647 648
f 620 648 621
f 621 648 638
f 621 638 649
f 621 649 650
f 621 650 622
f 622 650 649
f 622 649 651
f 622 651 623
f 623 651 649
f 623 649 652
f 623 652 627
f 624 633 631
f 624 631 630
f 625 626 632
f 625 632 633
f 626 629 632
f 627 636 628
f 627 652 637
f 627 637 636
f 635 642 641
f 637 652 649
f 637 649 638
f 638 648 640
f 638 640 639
f 640 648 647
f 640 647 653
f 640 653 645
f 640 645 641
f 643 644 647
f 643 647 654
f 644 645 647
f 645 653 647
f 646 655 647
f 647 655 654
o convex_5
v 0.497416 -0.589259 -0.0600553
v 0.613061 -0.589259 -0.0600553
v 0.694178 -0.589259 0.126412
v 0.932649 -0.0015413 0.161282
v 0.917917 -0.0015413 0.147066
v 0.916582 -0.0015413 0.145702
v 0.763463 -0.0015413 -0.0600553
v 0.65744 -0.557446 -0.0525894
v 0.636401 -0.578501 -0.0525894
v 0.65744 -0.578501 -0.0315555
v 0.673323 -0.589259 0.000207814
v 0.653711 -0.542546 -0.0600553
v 0.654816 -0.546975 -0.0578423
v 0.712454 -0.589259 0.141991
v 0.945631 -0.0015413 0.167787
v 0.832472 -0.0015413 -0.0600553
v 0.695789 -0.486915 -0.0600553
v 0.699518 -0.494336 -0.0525894
v 0.678479 -0.557446 -0.0315555
v 0.720557 -0.578501 0.0315688
v 0.714986 -0.589259 0.0418734
v 0.736071 -0.589259 0.147244
v 0.736301 -0.567974 0.147244
v 0.841496 -0.420699 0.168301
v 0.94669 -0.0015413 0.168301
v 0.848493 -0.0015413 -0.04908
v 0.832472 -0.14732 -0.0600553
v 0.758859 -0.360696 -0.0600553
v 0.806415 -0.294537 -0.04908
v 0.722306 -0.46281 -0.04908
v 0.720557 -0.494336 -0.0315555
v 0.720557 -0.557446 0.0105348
v 0.74155 -0.578501 0.0526027
v 0.735979 -0.589259 0.062885
v 0.736301 -0.589259 0.147244
v 0.809914 -0.494336 0.163025
v 0.820457 -0.486455 0.163025
v 0.862534 -0.399701 0.168301
v 0.94669 -0.126265 0.168301
v 0.960685 -0.0015413 0.161282
v 0.890571 -0.0015413 -0.00701213
v 0.848493 -0.126265 -0.04908
v 0.827454 -0.231428 -0.04908
v 0.811434 -0.231428 -0.0600553
v 0.779898 -0.318585 -0.0600553
v 0.782937 -0.312486 -0.0600553
v 0.790395 -0.294537 -0.0600553
v 0.848493 -0.273539 -0.00701213
v 0.827454 -0.336591 -0.00701213
v 0.764338 -0.46281 -0.00701213
v 0.762588 -0.494336 0.0105348
v 0.783627 -0.515392 0.0526027
v 0.785377 -0.574992 0.12621
v 0.736485 -0.589259 0.063712
v 0.783627 -0.536448 0.0736143
v 0.783627 -0.557446 0.0946483
v 0.759734 -0.589259 0.141991
v 0.830953 -0.489101 0.157773
v 0.862534 -0.423345 0.163025
v 0.87653 -0.406719 0.161282
v 0.883573 -0.357589 0.168301
v 0.960685 -0.133283 0.161282
v 0.925651 -0.231428 0.168301
v 0.967729 -0.0015413 0.147244
v 0.932649 -0.0015413 0.0560897
v 0.890571 -0.0420993 -0.00701213
v 0.869532 -0.105209 -0.0280461
v 0.848493 -0.21043 -0.0280461
v 0.849368 -0.231428 -0.0210273
v 0.870407 -0.273539 0.0210406
v 0.849368 -0.336591 0.0210406
v 0.806415 -0.420699 0.0140442
v 0.804666 -0.452282 0.0315688
v 0.85724 -0.452282 0.115705
v 0.778379 -0.57062 0.141991
v 0.766271 -0.589259 0.132044
v 0.767744 -0.589259 0.12621
v 0.756926 -0.589259 0.104551
v 0.794124 -0.557446 0.115705
v 0.80729 -0.546975 0.12621
v 0.815162 -0.536448 0.136739
v 0.799418 -0.549564 0.141991
v 0.873031 -0.415464 0.157773
v 0.883573 -0.399701 0.147244
v 0.89407 -0.37341 0.157773
v 0.897568 -0.364608 0.161282
v 0.904612 -0.294537 0.168301
v 0.967729 -0.126265 0.147244
v 0.939646 -0.238446 0.161282
v 0.967729 -0.0015413 0.12621
v 0.94669 -0.0015413 0.0841425
v 0.932649 -0.0420993 0.0560897
v 0.91161 -0.126265 0.0350781
v 0.890571 -0.168318 0.0140442
v 0.869532 -0.189374 -0.00701213
v 0.870407 -0.21043 6.64054e-06
v 0.891446 -0.189374 0.0210406
v 0.891446 -0.252484 0.0420969
v 0.891446 -0.294537 0.0631085
v 0.891446 -0.336591 0.0841425
v 0.870407 -0.357589 0.0631085
v 0.828329 -0.420699 0.0420969
v 0.815162 -0.431227 0.0315688
v 0.891446 -0.378645 0.12621
v 0.899318 -0.368117 0.136739
v 0.862534 -0.441755 0.12621
v 0.848493 -0.469829 0.12621
v 0.869532 -0.427717 0.147244
v 0.904612 -0.357589 0.147244
v 0.925651 -0.294537 0.147244
v 0.94669 -0.231428 0.147244
v 0.962435 -0.136792 0.136739
v 0.967729 -0.0420993 0.12621
v 0.94669 -0.0420993 0.0841425
v 0.941396 -0.0526272 0.0736143
v 0.920357 -0.136792 0.0526027
v 0.912484 -0.14732 0.0420969
v 0.933523 -0.168318 0.0841425
v 0.912484 -0.21043 0.0631085
v 0.933523 -0.252484 0.12621
v 0.899318 -0.326063 0.0946483
v 0.899318 -0.347119 0.115705
v 0.941396 -0.241956 0.136739
v 0.941396 -0.157791 0.0946483
v 0.962435 -0.0526272 0.115705
v 0.941396 -0.199902 0.115705
v 0.933523 -0.21043 0.105176
f 656 657 666
f 656 666 676
f 656 676 689
f 656 689 709
f 656 709 733
f 656 733 732
f 656 732 731
f 656 731 712
f 656 712 690
f 656 690 677
f 656 677 669
f 656 669 658
f 656 658 659
f 656 659 660
f 656 660 661
f 656 661 662
f 656 662 671
f 656 671 682
f 656 682 699
f 656 699 702
f 656 702 701
f 656 701 700
f 656 700 683
f 656 683 672
f 656 672 667
f 656 667 657
f 657 663 664
f 657 664 665
f 657 665 666
f 657 667 668
f 657 668 663
f 658 669 659
f 659 670 680
f 659 680 695
f 659 695 719
f 659 719 745
f 659 745 746
f 659 746 720
f 659 720 696
f 659 696 681
f 659 681 671
f 659 671 662
f 659 662 661
f 659 661 660
f 659 669 670
f 663 668 672
f 663 672 673
f 663 673 686
f 663 686 674
f 663 674 665
f 663 665 664
f 665 675 676
f 665 676 666
f 665 674 675
f 667 672 668
f 669 677 678
f 669 678 679
f 669 679 680
f 669 680 670
f 671 681 697
f 671 697 682
f 672 683 684
f 672 684 685
f 672 685 673
f 673 685 686
f 674 686 687
f 674 687 675
f 675 688 689
f 675 689 676
f 675 687 688
f 677 690 691
f 677 691 678
f 678 691 679
f 679 691 692
f 679 692 693
f 679 693 716
f 679 716 742
f 679 742 718
f 679 718 694
f 679 694 680
f 680 694 717
f 680 717 695
f 681 696 721
f 681 721 722
f 681 722 697
f 682 697 698
f 682 698 699
f 683 700 684
f 684 700 701
f 684 701 702
f 684 702 699
f 684 699 698
f 684 698 703
f 684 703 704
f 684 704 685
f 685 704 705
f 685 705 686
f 686 706 687
f 686 705 706
f 687 706 707
f 687 707 688
f 688 708 709
f 688 709 689
f 688 707 710
f 688 710 711
f 688 711 708
f 690 712 691
f 691 712 692
f 692 712 713
f 692 713 714
f 692 714 693
f 693 714 715
f 693 715 741
f 693 741 716
f 694 718 744
f 694 744 717
f 695 717 743
f 695 743 719
f 696 720 747
f 696 747 721
f 697 722 750
f 697 750 723
f 697 723 698
f 698 723 751
f 698 751 724
f 698 724 725
f 698 725 703
f 703 725 726
f 703 726 704
f 704 726 757
f 704 757 727
f 704 727 705
f 705 727 728
f 705 728 706
f 706 728 707
f 707 728 729
f 707 729 710
f 708 730 712
f 708 712 731
f 708 731 732
f 708 732 733
f 708 733 709
f 708 711 734
f 708 734 735
f 708 735 736
f 708 736 737
f 708 737 730
f 710 729 711
f 711 729 735
f 711 735 734
f 712 730 713
f 713 730 737
f 713 737 736
f 713 736 715
f 713 715 714
f 715 738 739
f 715 739 740
f 715 740 741
f 715 736 738
f 716 741 742
f 717 744 766
f 717 766 743
f 718 742 744
f 719 743 768
f 719 768 745
f 720 746 769
f 720 769 747
f 721 747 748
f 721 748 722
f 722 748 749
f 722 749 750
f 723 750 752
f 723 752 751
f 724 751 725
f 725 751 752
f 725 752 753
f 725 753 754
f 725 754 755
f 725 755 726
f 726 756 757
f 726 755 756
f 727 757 758
f 727 758 728
f 728 758 757
f 728 757 729
f 729 759 760
f 729 760 764
f 729 764 761
f 729 761 762
f 729 762 736
f 729 736 735
f 729 757 756
f 729 756 755
f 729 755 759
f 736 762 739
f 736 739 763
f 736 763 738
f 738 763 739
f 739 762 761
f 739 761 764
f 739 764 740
f 740 764 741
f 741 764 765
f 741 765 744
f 741 744 742
f 743 766 778
f 743 778 767
f 743 767 780
f 743 780 768
f 744 765 766
f 745 768 769
f 745 769 746
f 747 769 770
f 747 770 771
f 747 771 748
f 748 771 772
f 748 772 752
f 748 752 749
f 749 752 750
f 752 772 773
f 752 773 774
f 752 774 753
f 753 774 754
f 754 774 782
f 754 782 775
f 754 775 755
f 755 775 776
f 755 776 777
f 755 777 759
f 759 777 760
f 760 777 778
f 760 778 765
f 760 765 764
f 765 778 766
f 767 779 780
f 767 778 781
f 767 781 779
f 768 780 770
f 768 770 769
f 770 780 779
f 770 779 771
f 771 779 773
f 771 773 772
f 773 782 774
f 773 779 782
f 775 782 781
f 775 781 778
f 775 778 776
f 776 778 777
f 779 781 782
o convex_6
v -0.00150055 0.967729 0.126217
v -0.00150055 0.960699 0.140248
v -0.00150055 0.925646 0.0420553
v -0.126248 0.967729 0.126217
v -0.00150055 0.946687 0.147263
v -0.154296 0.960699 0.140248
v -0.00150055 0.918145 0.0270951
v -0.084205 0.925646 0.0420553
v -0.126248 0.946687 0.0841472
v -0.136788 0.941404 0.0736132
v -0.136788 0.962445 0.115705
v -0.231414 0.946687 0.126217
v -0.15781 0.962445 0.136729
v -0.00150055 0.945697 0.146776
v -0.14727 0.946687 0.147263
v -0.52589 0.778358 0.147263
v -0.589819 0.714432 0.126018
v -0.238441 0.939658 0.140248
v -0.00150055 0.911587 0.0140382
v -0.084205 0.911587 0.0140382
v -0.126248 0.932629 0.0560859
v -0.199911 0.920362 0.0525893
v -0.199911 0.941404 0.0946592
v -0.241954 0.941404 0.115705
v -0.326041 0.920362 0.115705
v -0.31815 0.920362 0.126217
v -0.00150055 0.932629 0.140248
v -0.231414 0.925646 0.147263
v -0.54697 0.778358 0.147263
v -0.589819 0.715281 0.126217
v -0.589819 0.700939 0.119268
v -0.294537 0.904605 0.147263
v -0.3208 0.915126 0.136729
v -0.364628 0.897576 0.140248
v -0.00150055 0.848511 -0.0701236
v -0.14727 0.890546 -0.00700777
v -0.042104 0.848511 -0.0701236
v -0.189371 0.911587 0.0350621
v -0.210393 0.912484 0.0420553
v -0.252494 0.933525 0.105171
v -0.33658 0.912484 0.105171
v -0.368141 0.899321 0.115705
v -0.427751 0.869552 0.126217
v -0.357602 0.904605 0.126217
v -0.00150055 0.918617 0.133232
v -0.507518 0.82044 0.141996
v -0.553938 0.792369 0.140248
v -0.56275 0.788878 0.136729
v -0.560965 0.778358 0.140248
v -0.589819 0.736275 0.126217
v -0.483847 0.82044 0.147263
v -0.589819 0.700373 0.118936
v -0.357602 0.883564 0.147263
v -0.373383 0.894084 0.136729
v -0.415483 0.873043 0.136729
v -0.490873 0.834452 0.140248
v -0.399703 0.862523 0.147263
v -0.00150055 0.833603 -0.0788208
v -0.168349 0.869552 -0.0280316
v -0.168349 0.891442 7.55623e-06
v -0.042104 0.833603 -0.0788208
v -0.189371 0.812609 -0.0788208
v -0.189371 0.82747 -0.0701236
v -0.189371 0.848511 -0.0490776
v -0.252494 0.912484 0.0631012
v -0.294537 0.891442 0.0420553
v -0.34712 0.87828 0.0525893
v -0.399703 0.84936 0.0420553
v -0.462825 0.84936 0.105171
v -0.53643 0.815203 0.115705
v -0.511895 0.82747 0.126217
v -0.00150055 0.746937 -0.0788208
v -0.578531 0.699524 0.115705
v -0.589819 0.485951 -0.0784889
v -0.499628 0.830961 0.136729
v -0.560965 0.792369 0.126217
v -0.575882 0.778358 0.126217
v -0.589819 0.759817 0.12157
v -0.189371 0.870401 -0.0210163
v -0.252494 0.870401 7.55623e-06
v -0.273515 0.790105 -0.0788208
v -0.273515 0.806428 -0.0701236
v -0.273515 0.82747 -0.0490776
v -0.273515 0.84936 -0.0210163
v -0.294537 0.869552 0.0140382
v -0.33658 0.869552 0.0350621
v -0.399703 0.82747 0.0140382
v -0.410185 0.836197 0.0315655
v -0.431264 0.825724 0.0315655
v -0.441746 0.828319 0.0420553
v -0.462825 0.828319 0.0631012
v -0.504869 0.828319 0.105171
v -0.52589 0.807278 0.0841472
v -0.53643 0.794162 0.0736132
v -0.578531 0.773121 0.0946592
v -0.567991 0.786236 0.105171
v -0.589819 0.76746 0.105171
v -0.589819 0.485762 -0.0788208
v -0.589819 0.766139 0.110527
v -0.294422 0.781188 -0.0788208
v -0.331224 0.765337 -0.0788208
v -0.378624 0.742503 -0.0788208
v -0.378624 0.785387 -0.0490776
v -0.420724 0.764346 -0.0490776
v -0.441746 0.806428 0.0140382
v -0.473307 0.804683 0.0315655
v -0.515408 0.7626 0.0105195
v -0.578531 0.720565 0.0105195
v -0.578531 0.7626 0.0736132
v -0.589819 0.758118 0.0864488
v -0.589819 0.59479 -0.0788208
v -0.420724 0.721509 -0.0788208
v -0.468124 0.696929 -0.0788208
v -0.483847 0.701269 -0.0701236
v -0.452286 0.741559 -0.0525742
v -0.452286 0.7626 -0.0315504
v -0.578531 0.678483 -0.0315504
v -0.589819 0.715706 0.021806
v -0.589819 0.74321 0.0623267
v -0.515408 0.720565 -0.0315504
v -0.589819 0.756845 0.0841472
v -0.589819 0.633994 -0.057465
v -0.578531 0.657441 -0.0525742
v -0.57329 0.612764 -0.0788208
v -0.505042 0.675888 -0.0788208
v -0.515408 0.678483 -0.0736202
v -0.589819 0.673623 -0.0202639
v -0.589819 0.651025 -0.0428368
v -0.589819 0.652582 -0.0412877
v -0.531247 0.654847 -0.0788208
f 783 784 787
f 783 787 796
f 783 796 809
f 783 809 827
f 783 827 854
f 783 854 840
f 783 840 817
f 783 817 801
f 783 801 789
f 783 789 785
f 783 785 790
f 783 790 786
f 783 786 788
f 783 788 784
f 784 788 797
f 784 797 787
f 785 789 790
f 786 790 791
f 786 791 792
f 786 792 793
f 786 793 806
f 786 806 794
f 786 794 795
f 786 795 788
f 787 797 810
f 787 810 814
f 787 814 835
f 787 835 839
f 787 839 833
f 787 833 811
f 787 811 798
f 787 798 799
f 787 799 796
f 788 795 800
f 788 800 810
f 788 810 797
f 789 801 802
f 789 802 790
f 790 802 803
f 790 803 792
f 790 792 791
f 792 803 820
f 792 820 804
f 792 804 805
f 792 805 793
f 793 805 806
f 794 806 807
f 794 807 808
f 794 808 800
f 794 800 795
f 796 799 809
f 798 811 799
f 799 812 832
f 799 832 860
f 799 860 881
f 799 881 879
f 799 879 892
f 799 892 903
f 799 903 901
f 799 901 900
f 799 900 909
f 799 909 911
f 799 911 910
f 799 910 904
f 799 904 893
f 799 893 880
f 799 880 856
f 799 856 834
f 799 834 813
f 799 813 809
f 799 811 812
f 800 814 810
f 800 808 815
f 800 815 816
f 800 816 814
f 801 817 819
f 801 819 802
f 802 818 803
f 802 819 818
f 803 818 820
f 804 820 821
f 804 821 805
f 805 821 822
f 805 822 806
f 806 822 823
f 806 823 807
f 807 823 824
f 807 824 825
f 807 825 826
f 807 826 808
f 808 826 816
f 808 816 815
f 809 813 827
f 811 828 829
f 811 829 830
f 811 830 831
f 811 831 832
f 811 832 812
f 811 833 828
f 813 834 827
f 814 816 835
f 816 826 836
f 816 836 837
f 816 837 838
f 816 838 839
f 816 839 835
f 817 840 843
f 817 843 819
f 818 819 841
f 818 841 842
f 818 842 821
f 818 821 820
f 819 843 844
f 819 844 845
f 819 845 846
f 819 846 841
f 821 847 822
f 821 842 862
f 821 862 848
f 821 848 847
f 822 847 848
f 822 848 823
f 823 848 849
f 823 849 850
f 823 850 851
f 823 851 852
f 823 852 824
f 824 852 825
f 825 837 836
f 825 836 826
f 825 852 853
f 825 853 857
f 825 857 837
f 827 834 855
f 827 855 856
f 827 856 854
f 828 833 838
f 828 838 829
f 829 838 830
f 830 838 857
f 830 857 853
f 830 853 852
f 830 852 858
f 830 858 859
f 830 859 860
f 830 860 831
f 831 860 832
f 833 839 838
f 834 856 855
f 837 857 838
f 840 854 880
f 840 880 893
f 840 893 906
f 840 906 912
f 840 912 907
f 840 907 895
f 840 895 894
f 840 894 884
f 840 884 883
f 840 883 882
f 840 882 863
f 840 863 844
f 840 844 843
f 841 846 842
f 842 846 861
f 842 861 866
f 842 866 862
f 844 863 864
f 844 864 845
f 845 864 865
f 845 865 846
f 846 865 866
f 846 866 861
f 848 866 865
f 848 865 867
f 848 867 868
f 848 868 849
f 848 862 866
f 849 868 850
f 850 868 869
f 850 869 870
f 850 870 871
f 850 871 888
f 850 888 872
f 850 872 873
f 850 873 851
f 851 873 874
f 851 874 852
f 852 874 875
f 852 875 876
f 852 876 891
f 852 891 877
f 852 877 878
f 852 878 879
f 852 879 858
f 854 856 880
f 858 879 859
f 859 879 881
f 859 881 860
f 863 882 864
f 864 882 883
f 864 883 884
f 864 884 885
f 864 885 865
f 865 868 867
f 865 885 869
f 865 869 868
f 869 885 886
f 869 886 887
f 869 887 888
f 869 888 871
f 869 871 870
f 872 888 875
f 872 875 873
f 873 875 874
f 875 888 876
f 876 889 890
f 876 890 891
f 876 888 889
f 877 891 892
f 877 892 879
f 877 879 878
f 884 894 885
f 885 894 886
f 886 894 895
f 886 895 896
f 886 896 908
f 886 908 897
f 886 897 898
f 886 898 888
f 886 888 887
f 888 898 889
f 889 898 902
f 889 902 890
f 890 899 909
f 890 909 900
f 890 900 901
f 890 901 891
f 890 902 908
f 890 908 899
f 891 901 903
f 891 903 892
f 893 904 905
f 893 905 906
f 895 907 908
f 895 908 896
f 897 908 898
f 898 908 902
f 899 905 911
f 899 911 909
f 899 908 905
f 904 910 905
f 905 910 911
f 905 908 912
f 905 912 906
f 907 912 908
o convex_7
v -0.57598 -0.482461 -0.0824121
v -0.57598 -0.614371 -0.0824121
v -0.57598 -0.705287 0.115204
v -0.00149919 -0.918613 0.133234
v -0.00149919 -0.741198 -0.0824121
v -0.57598 -0.637646 -0.0696199
v -0.574124 -0.616223 -0.0824121
v -0.575024 -0.638169 -0.0701145
v -0.57598 -0.717922 0.123612
v -0.00149919 -0.932626 0.140249
v -0.00149919 -0.831829 -0.0824121
v -0.57598 -0.662726 -0.0525786
v -0.527666 -0.653939 -0.0824121
v -0.515405 -0.683722 -0.0736216
v -0.57598 -0.736305 0.12622
v -0.567993 -0.736305 0.12622
v -0.126249 -0.925643 0.147263
v -0.00149919 -0.946686 0.147263
v -0.00149919 -0.848502 -0.0701145
v -0.10347 -0.831829 -0.0824121
v -0.57598 -0.681252 -0.0340535
v -0.557475 -0.704765 -0.0315355
v -0.489982 -0.679352 -0.0824121
v -0.494369 -0.72576 -0.0525786
v -0.426876 -0.721437 -0.0824121
v -0.452298 -0.72576 -0.0736216
v -0.57598 -0.765328 0.122196
v -0.567993 -0.757348 0.12622
v -0.210391 -0.925643 0.147263
v -0.00149919 -0.960699 0.140249
v -0.0841785 -0.946686 0.147263
v -0.00149919 -0.869545 -0.0490714
v -0.112244 -0.848502 -0.0701145
v -0.208647 -0.810786 -0.0824121
v -0.57598 -0.723337 0.00803263
v -0.557475 -0.72576 -0.0105149
v -0.494369 -0.746803 -0.0315355
v -0.46979 -0.743288 -0.0490714
v -0.401397 -0.738015 -0.0824121
v -0.387392 -0.745045 -0.0824121
v -0.368157 -0.767846 -0.0736216
v -0.427719 -0.743288 -0.0701145
v -0.57598 -0.770363 0.12033
v -0.557475 -0.788888 0.120959
v -0.546958 -0.778343 0.12622
v -0.220909 -0.936141 0.142002
v -0.483851 -0.820429 0.12622
v -0.494369 -0.830974 0.120959
v -0.00149919 -0.967729 0.12622
v -0.0841785 -0.960699 0.140249
v -0.0946962 -0.957184 0.142002
v -0.00149919 -0.930631 0.0420702
v -0.0140417 -0.939656 0.0490846
v -0.0281028 -0.932626 0.0350559
v -0.0912091 -0.869545 -0.0490714
v -0.175351 -0.890587 -0.00700776
v -0.217422 -0.848502 -0.0490714
v -0.217422 -0.827459 -0.0701145
v -0.219165 -0.808174 -0.0824121
v -0.57598 -0.72576 0.0105281
v -0.452298 -0.788888 -0.0105149
v -0.53644 -0.788888 0.0525918
v -0.427719 -0.785373 -0.0280283
v -0.345321 -0.766088 -0.0824121
v -0.343578 -0.785373 -0.0701145
v -0.57598 -0.774353 0.114822
v -0.57598 -0.777346 0.106189
v -0.57148 -0.781858 0.10167
v -0.241944 -0.936141 0.131481
v -0.231426 -0.941413 0.12885
v -0.210391 -0.939656 0.140249
v -0.452298 -0.852017 0.120959
v -0.368157 -0.894055 0.120959
v -0.508374 -0.823944 0.10167
v -0.494369 -0.830974 0.0946554
v -0.00149919 -0.967729 0.105177
v -0.0841785 -0.967729 0.12622
v -0.00149919 -0.931676 0.043644
v -0.0210722 -0.946686 0.0630908
v -0.00149919 -0.953668 0.0771195
v -0.00149919 -0.956471 0.082695
v -0.0491382 -0.953668 0.0771195
v -0.154315 -0.932626 0.0560989
v -0.112244 -0.911583 0.0140353
v -0.238457 -0.890587 0.0140353
v -0.259492 -0.869545 -0.00700776
v -0.280528 -0.848502 -0.0280283
v -0.280528 -0.806416 -0.0701145
v -0.282271 -0.787131 -0.0824121
v -0.57598 -0.767846 0.0736123
v -0.410227 -0.809931 -0.0105149
v -0.473334 -0.809931 0.0315712
v -0.515405 -0.809931 0.0736123
v -0.553988 -0.785373 0.0771195
v -0.57598 -0.769081 0.0761078
v -0.385649 -0.806416 -0.0280283
v -0.343578 -0.806416 -0.0490714
v -0.557475 -0.788888 0.0946554
v -0.290989 -0.922128 0.108684
v -0.210391 -0.946686 0.12622
v -0.354096 -0.901085 0.108684
v -0.452298 -0.852017 0.0946554
v -0.382161 -0.887072 0.10167
v -0.0421077 -0.967729 0.105177
v -0.126249 -0.960699 0.119206
v -0.119219 -0.960699 0.112191
v -0.147285 -0.946686 0.0841339
v -0.178838 -0.936141 0.0736123
v -0.26298 -0.894055 0.0315712
v -0.280528 -0.890587 0.0350559
v -0.389192 -0.852017 0.0315712
v -0.364613 -0.848502 0.0140353
v -0.431263 -0.852017 0.0736123
v -0.304994 -0.915098 0.0946554
v -0.256005 -0.929158 0.10167
v -0.368157 -0.894055 0.0946554
v -0.189356 -0.946686 0.105177
v -0.220909 -0.936141 0.0946554
v -0.26298 -0.915098 0.0736123
v -0.347065 -0.894055 0.0736123
v -0.322542 -0.890587 0.0560989
v -0.340091 -0.887072 0.0596061
f 913 914 918
f 913 918 924
f 913 924 933
f 913 933 947
f 913 947 972
f 913 972 1002
f 913 1002 1007
f 913 1007 979
f 913 979 978
f 913 978 955
f 913 955 939
f 913 939 927
f 913 927 921
f 913 921 915
f 913 915 916
f 913 916 917
f 913 917 923
f 913 923 932
f 913 932 946
f 913 946 971
f 913 971 1001
f 913 1001 976
f 913 976 952
f 913 952 951
f 913 951 937
f 913 937 935
f 913 935 925
f 913 925 919
f 913 919 914
f 914 919 920
f 914 920 918
f 915 921 916
f 916 922 930
f 916 930 942
f 916 942 961
f 916 961 988
f 916 988 993
f 916 993 992
f 916 992 990
f 916 990 964
f 916 964 944
f 916 944 931
f 916 931 923
f 916 923 917
f 916 921 922
f 918 920 924
f 919 925 926
f 919 926 920
f 920 926 924
f 921 927 928
f 921 928 929
f 921 929 930
f 921 930 922
f 923 931 945
f 923 945 932
f 924 926 934
f 924 934 933
f 925 935 926
f 926 936 934
f 926 935 937
f 926 937 938
f 926 938 936
f 927 939 940
f 927 940 941
f 927 941 929
f 927 929 928
f 929 941 943
f 929 943 930
f 930 943 962
f 930 962 942
f 931 944 967
f 931 967 945
f 932 945 970
f 932 970 946
f 933 934 947
f 934 948 947
f 934 936 949
f 934 949 948
f 936 938 954
f 936 954 950
f 936 950 949
f 937 951 938
f 938 951 952
f 938 952 976
f 938 976 953
f 938 953 977
f 938 977 954
f 939 955 956
f 939 956 940
f 940 956 957
f 940 957 941
f 941 958 963
f 941 963 943
f 941 957 959
f 941 959 960
f 941 960 958
f 942 962 989
f 942 989 961
f 943 963 962
f 944 964 965
f 944 965 966
f 944 966 967
f 945 967 968
f 945 968 969
f 945 969 970
f 946 970 971
f 947 948 972
f 948 949 973
f 948 973 974
f 948 974 972
f 949 950 973
f 950 954 977
f 950 977 1009
f 950 1009 1008
f 950 1008 975
f 950 975 973
f 953 976 977
f 955 978 956
f 956 978 979
f 956 979 980
f 956 980 986
f 956 986 960
f 956 960 959
f 956 959 957
f 958 981 982
f 958 982 983
f 958 983 962
f 958 962 963
f 958 960 984
f 958 984 985
f 958 985 981
f 960 986 987
f 960 987 1014
f 960 1014 984
f 961 989 1016
f 961 1016 988
f 962 983 1012
f 962 1012 989
f 964 990 965
f 965 991 966
f 965 990 992
f 965 992 993
f 965 993 991
f 966 991 994
f 966 994 995
f 966 995 996
f 966 996 967
f 967 996 968
f 968 995 997
f 968 997 998
f 968 998 969
f 968 996 995
f 969 998 999
f 969 999 1000
f 969 1000 970
f 970 1000 1001
f 970 1001 971
f 972 974 1002
f 973 975 1008
f 973 1008 1003
f 973 1003 1023
f 973 1023 1004
f 973 1004 974
f 974 1004 1023
f 974 1023 1025
f 974 1025 1005
f 974 1005 1006
f 974 1006 1007
f 974 1007 1002
f 976 1001 1000
f 976 1000 977
f 977 1000 999
f 977 999 1009
f 979 1007 980
f 980 1006 1010
f 980 1010 987
f 980 987 986
f 980 1007 1006
f 981 985 982
f 982 1011 1012
f 982 1012 983
f 982 985 1013
f 982 1013 1011
f 984 1014 1015
f 984 1015 985
f 985 1015 1013
f 987 1010 1006
f 987 1006 1005
f 987 1005 1025
f 987 1025 1014
f 988 1016 991
f 988 991 993
f 989 1017 1018
f 989 1018 1016
f 989 1012 1017
f 991 1016 994
f 994 1016 1019
f 994 1019 995
f 995 1019 1020
f 995 1020 997
f 997 1021 1022
f 997 1022 998
f 997 1020 1021
f 998 1022 1023
f 998 1023 999
f 999 1023 1024
f 999 1024 1008
f 999 1008 1009
f 1003 1008 1024
f 1003 1024 1023
f 1011 1026 1027
f 1011 1027 1012
f 1011 1013 1028
f 1011 1028 1026
f 1012 1027 1029
f 1012 1029 1017
f 1013 1015 1028
f 1014 1025 1028
f 1014 1028 1015
f 1016 1018 1019
f 1017 1029 1018
f 1018 1029 1019
f 1019 1029 1030
f 1019 1030 1020
f 1020 1030 1031
f 1020 1031 1021
f 1021 1031 1032
f 1021 1032 1022
f 1022 1032 1033
f 1022 1033 1034
f 1022 1034 1023
f 1023 1034 1032
f 1023 1032 1028
f 1023 1028 1025
f 1026 1030 1027
f 1026 1028 1032
f 1026 1032 1031
f 1026 1031 1030
f 1027 1030 1029
f 1032 1034 1033
o convex_8
v 0.358708 0.89879 0.12493
v 0.358708 0.89879 0.123323
v 0.358708 0.895969 0.138625
v 0.368187 0.894089 0.136723
v 0.399743 0.883552 0.12622
v 0.358708 0.877781 0.081242
v 0.413772 0.876549 0.119203
v 0.358708 0.883357 0.147045
v 0.515433 0.809924 0.157775
v 0.427802 0.869546 0.133237
v 0.532959 0.806423 0.154266
v 0.368187 0.873048 0.0788879
v 0.358708 0.848408 0.0355623
v 0.455818 0.855508 0.119203
v 0.452321 0.852006 0.0999168
v 0.358708 0.862511 0.147249
v 0.525965 0.778379 0.168301
v 0.522468 0.795918 0.164792
v 0.469848 0.848505 0.133237
v 0.557521 0.788883 0.157775
v 0.546988 0.79942 0.147249
v 0.38921 0.852006 0.0578362
v 0.378678 0.827464 0.0140353
v 0.358708 0.835699 0.0181551
v 0.49441 0.830965 0.120946
v 0.561018 0.792385 0.140232
v 0.452321 0.809924 0.0368299
v 0.410233 0.830965 0.0368299
v 0.536498 0.788883 0.0788879
v 0.358708 0.848148 0.140187
v 0.725789 0.578537 0.163026
v 0.515433 0.767842 0.163026
v 0.757345 0.567611 0.168301
v 0.546988 0.778379 0.168301
v 0.62059 0.746833 0.157775
v 0.57155 0.78188 0.150758
v 0.378678 0.785382 -0.0280453
v 0.358708 0.820818 0.00072525
v 0.420766 0.806423 0.0140353
v 0.462854 0.722291 -0.0490743
v 0.62059 0.746833 0.120946
v 0.659139 0.722291 0.154266
v 0.49441 0.767842 0.0157783
v 0.599567 0.725825 0.0578362
v 0.578502 0.725825 0.0368299
v 0.358708 0.652618 -0.0629502
v 0.379141 0.631577 -0.0629502
v 0.368187 0.830965 0.131472
v 0.720734 0.567611 0.149988
v 0.735901 0.567611 0.160106
v 0.736448 0.567611 0.160423
v 0.759367 0.567611 0.167893
v 0.757345 0.568032 0.168301
v 0.631122 0.715288 0.168301
v 0.648649 0.711786 0.164792
v 0.378678 0.76434 -0.0490743
v 0.358708 0.778735 -0.0413553
v 0.462854 0.76434 -0.00699367
v 0.49441 0.725825 -0.0262797
v 0.49441 0.704783 -0.0473313
v 0.473387 0.704783 -0.0578345
v 0.4693 0.700698 -0.0629502
v 0.426917 0.724366 -0.0629502
v 0.680204 0.701282 0.154266
v 0.662678 0.704783 0.120946
v 0.662678 0.683742 0.0788879
v 0.641613 0.704783 0.0788879
v 0.557521 0.704783 -0.00525069
v 0.725789 0.599578 0.0578362
v 0.358708 0.756819 -0.0629502
v 0.463275 0.568454 -0.0629502
v 0.505363 0.567611 -0.0629502
v 0.777947 0.567611 0.161691
v 0.715257 0.631156 0.168301
v 0.694234 0.652197 0.168301
v 0.71176 0.648663 0.164792
v 0.384829 0.745374 -0.0629502
v 0.358708 0.757694 -0.0623843
v 0.557521 0.683742 -0.0262797
v 0.578502 0.64166 -0.0473313
v 0.553434 0.637575 -0.0629502
v 0.72225 0.6592 0.154266
v 0.725789 0.64166 0.120946
v 0.683701 0.662701 0.0788879
v 0.599567 0.620619 -0.0473313
v 0.746812 0.620619 0.120946
v 0.767835 0.578537 0.0999168
v 0.725789 0.578537 0.0368299
v 0.662678 0.578537 -0.0262797
v 0.617936 0.567611 -0.0629502
v 0.786878 0.567611 0.155738
v 0.785362 0.575035 0.154266
v 0.746812 0.620619 0.157775
v 0.59548 0.595525 -0.0629502
v 0.62059 0.599578 -0.0473313
v 0.789111 0.567611 0.146842
v 0.78414 0.567611 0.129502
v 0.783845 0.567611 0.128552
v 0.773102 0.568032 0.102543
v 0.773102 0.567611 0.102135
v 0.731056 0.568032 0.0394557
v 0.730845 0.567611 0.0389577
v 0.715678 0.567611 0.0212562
v 0.715383 0.567611 0.0209167
v 0.673337 0.567611 -0.0211639
v 0.672789 0.567611 -0.0216393
v 0.63799 0.567611 -0.0493459
v 0.616503 0.574484 -0.0629502
f 1035 1036 1040
f 1035 1040 1047
f 1035 1047 1058
f 1035 1058 1072
f 1035 1072 1091
f 1035 1091 1112
f 1035 1112 1104
f 1035 1104 1080
f 1035 1080 1064
f 1035 1064 1050
f 1035 1050 1042
f 1035 1042 1037
f 1035 1037 1038
f 1035 1038 1039
f 1035 1039 1036
f 1036 1039 1041
f 1036 1041 1040
f 1037 1042 1043
f 1037 1043 1038
f 1038 1044 1039
f 1038 1043 1045
f 1038 1045 1044
f 1039 1044 1041
f 1040 1046 1047
f 1040 1041 1046
f 1041 1044 1053
f 1041 1053 1048
f 1041 1048 1049
f 1041 1049 1046
f 1042 1050 1051
f 1042 1051 1052
f 1042 1052 1043
f 1043 1052 1045
f 1044 1045 1053
f 1045 1052 1054
f 1045 1054 1070
f 1045 1070 1055
f 1045 1055 1053
f 1046 1056 1057
f 1046 1057 1047
f 1046 1049 1056
f 1047 1057 1058
f 1048 1059 1049
f 1048 1053 1060
f 1048 1060 1059
f 1049 1061 1062
f 1049 1062 1056
f 1049 1059 1063
f 1049 1063 1061
f 1050 1064 1065
f 1050 1065 1066
f 1050 1066 1051
f 1051 1066 1067
f 1051 1067 1087
f 1051 1087 1108
f 1051 1108 1109
f 1051 1109 1088
f 1051 1088 1068
f 1051 1068 1052
f 1052 1068 1054
f 1053 1055 1060
f 1054 1068 1069
f 1054 1069 1070
f 1055 1070 1060
f 1056 1062 1057
f 1057 1071 1091
f 1057 1091 1072
f 1057 1072 1058
f 1057 1062 1061
f 1057 1061 1073
f 1057 1073 1074
f 1057 1074 1071
f 1059 1060 1075
f 1059 1075 1063
f 1060 1070 1076
f 1060 1076 1075
f 1061 1077 1073
f 1061 1063 1077
f 1063 1075 1078
f 1063 1078 1079
f 1063 1079 1077
f 1064 1080 1081
f 1064 1081 1082
f 1064 1082 1083
f 1064 1083 1065
f 1065 1083 1084
f 1065 1084 1085
f 1065 1085 1067
f 1065 1067 1066
f 1067 1085 1084
f 1067 1084 1083
f 1067 1083 1106
f 1067 1106 1124
f 1067 1124 1141
f 1067 1141 1140
f 1067 1140 1139
f 1067 1139 1138
f 1067 1138 1137
f 1067 1137 1136
f 1067 1136 1134
f 1067 1134 1132
f 1067 1132 1131
f 1067 1131 1130
f 1067 1130 1125
f 1067 1125 1107
f 1067 1107 1086
f 1067 1086 1087
f 1068 1088 1089
f 1068 1089 1069
f 1069 1089 1076
f 1069 1076 1070
f 1071 1090 1112
f 1071 1112 1091
f 1071 1074 1090
f 1073 1077 1092
f 1073 1092 1074
f 1074 1092 1093
f 1074 1093 1094
f 1074 1094 1095
f 1074 1095 1096
f 1074 1096 1097
f 1074 1097 1090
f 1075 1076 1098
f 1075 1098 1099
f 1075 1099 1100
f 1075 1100 1101
f 1075 1101 1078
f 1076 1089 1098
f 1077 1093 1092
f 1077 1079 1102
f 1077 1102 1093
f 1078 1102 1079
f 1078 1101 1100
f 1078 1100 1103
f 1078 1103 1102
f 1080 1104 1111
f 1080 1111 1097
f 1080 1097 1096
f 1080 1096 1115
f 1080 1115 1128
f 1080 1128 1142
f 1080 1142 1124
f 1080 1124 1106
f 1080 1106 1105
f 1080 1105 1081
f 1081 1105 1083
f 1081 1083 1082
f 1083 1105 1106
f 1086 1107 1108
f 1086 1108 1087
f 1088 1109 1089
f 1089 1109 1110
f 1089 1110 1098
f 1090 1097 1111
f 1090 1111 1112
f 1093 1102 1094
f 1094 1096 1095
f 1094 1102 1113
f 1094 1113 1114
f 1094 1114 1115
f 1094 1115 1096
f 1098 1110 1116
f 1098 1116 1120
f 1098 1120 1117
f 1098 1117 1099
f 1099 1117 1100
f 1100 1117 1120
f 1100 1120 1118
f 1100 1118 1103
f 1102 1103 1119
f 1102 1119 1113
f 1103 1118 1120
f 1103 1120 1121
f 1103 1121 1122
f 1103 1122 1123
f 1103 1123 1119
f 1104 1112 1111
f 1107 1125 1126
f 1107 1126 1127
f 1107 1127 1110
f 1107 1110 1108
f 1108 1110 1109
f 1110 1127 1116
f 1113 1119 1114
f 1114 1119 1115
f 1115 1119 1128
f 1116 1127 1126
f 1116 1126 1120
f 1119 1129 1142
f 1119 1142 1128
f 1119 1123 1129
f 1120 1126 1130
f 1120 1130 1131
f 1120 1131 1121
f 1121 1131 1132
f 1121 1132 1133
f 1121 1133 1134
f 1121 1134 1122
f 1122 1134 1135
f 1122 1135 1136
f 1122 1136 1137
f 1122 1137 1138
f 1122 1138 1139
f 1122 1139 1123
f 1123 1139 1140
f 1123 1140 1141
f 1123 1141 1142
f 1123 1142 1129
f 1124 1142 1141
f 1125 1130 1126
f 1132 1134 1133
f 1134 1136 1135
o convex_9
v 0.126246 0.967729 0.126213
v 0.147292 0.962454 0.123579
v 0.210361 0.941416 0.10255
v 0.189314 0.94666 0.105183
v 0.189314 0.939658 0.0911499
v 0.189314 0.932656 0.0771371
v 0.126246 0.953693 0.0981666
v 0.105199 0.932656 0.056087
v -0.00144299 0.939195 0.0691533
v -0.00144299 0.967729 0.126213
v 0.140277 0.960696 0.140246
v 0.308542 0.918621 0.140246
v 0.294511 0.925623 0.126213
v 0.315557 0.920379 0.123579
v 0.315557 0.899342 0.08152
v 0.273465 0.899342 0.0604698
v 0.252418 0.890581 0.035078
v 0.168303 0.911618 0.035078
v 0.126246 0.890581 -0.00700172
v 0.0631416 0.911618 0.0140278
v -0.00144299 0.918158 0.0270941
v -0.00144299 0.960696 0.140246
v 0.147292 0.94666 0.147263
v 0.315557 0.904585 0.147263
v 0.358708 0.883363 0.147037
v 0.358708 0.895979 0.138621
v 0.326063 0.915104 0.136728
v 0.358708 0.898817 0.124917
v 0.358708 0.898817 0.123312
v 0.326063 0.915104 0.120966
v 0.326063 0.894067 0.0788861
v 0.294511 0.890581 0.056087
v 0.273465 0.869544 0.0140278
v 0.168303 0.848506 -0.0490814
v 2.40819e-06 0.852084 -0.0629502
v -0.00144299 0.911618 0.0140278
v -0.00144299 0.94666 0.147263
v 0.357615 0.883548 0.147263
v 0.358708 0.86251 0.147263
v 0.358708 0.87778 0.0812525
v 0.347109 0.873029 0.057836
v 0.347109 0.894067 0.0999157
v 0.315557 0.869544 0.035078
v 0.336569 0.827469 -0.00700172
v 0.294511 0.827469 -0.0280313
v 0.231407 0.848506 -0.0280313
v 0.174473 0.829504 -0.0629502
v 0.168303 0.831047 -0.0629502
v 0.262959 0.809948 -0.0578472
v 0.25887 0.805876 -0.0629502
v -0.00144299 0.852084 -0.0629502
v -0.00144299 0.918621 0.13323
v 0.347109 0.851992 0.141995
v 0.357615 0.86251 0.147263
v 0.358708 0.848136 0.140205
v 0.358708 0.848414 0.0355718
v 0.358708 0.835705 0.0181432
v 0.358708 0.820806 0.000714601
v 0.336569 0.806462 -0.0280313
v 0.294511 0.806462 -0.0490814
v 0.300645 0.78746 -0.0629502
v -0.00144299 0.767965 -0.0629502
v -0.00144299 0.771389 -0.0560981
v 0.358038 0.652598 -0.0629502
v 0.358708 0.652598 -0.0629502
v 0.358708 0.799799 -0.020315
v 0.336569 0.785424 -0.0490814
v 0.342738 0.766423 -0.0629502
v 0.358708 0.75686 -0.0629502
v 0.358708 0.757724 -0.0623947
v 0.357862 0.757446 -0.0629502
f 1143 1144 1145
f 1143 1145 1146
f 1143 1146 1147
f 1143 1147 1148
f 1143 1148 1149
f 1143 1149 1150
f 1143 1150 1151
f 1143 1151 1152
f 1143 1152 1164
f 1143 1164 1153
f 1143 1153 1154
f 1143 1154 1155
f 1143 1155 1156
f 1143 1156 1144
f 1144 1156 1145
f 1145 1156 1157
f 1145 1157 1158
f 1145 1158 1148
f 1145 1148 1147
f 1145 1147 1146
f 1148 1158 1159
f 1148 1159 1160
f 1148 1160 1150
f 1148 1150 1149
f 1150 1160 1161
f 1150 1161 1162
f 1150 1162 1163
f 1150 1163 1151
f 1151 1163 1178
f 1151 1178 1193
f 1151 1193 1204
f 1151 1204 1205
f 1151 1205 1194
f 1151 1194 1179
f 1151 1179 1164
f 1151 1164 1152
f 1153 1164 1179
f 1153 1179 1165
f 1153 1165 1166
f 1153 1166 1154
f 1154 1166 1167
f 1154 1167 1168
f 1154 1168 1169
f 1154 1169 1155
f 1155 1169 1156
f 1156 1169 1170
f 1156 1170 1171
f 1156 1171 1172
f 1156 1172 1173
f 1156 1173 1157
f 1157 1173 1174
f 1157 1174 1158
f 1158 1174 1159
f 1159 1174 1175
f 1159 1175 1160
f 1160 1175 1161
f 1161 1176 1177
f 1161 1177 1162
f 1161 1175 1176
f 1162 1177 1193
f 1162 1193 1178
f 1162 1178 1163
f 1165 1179 1196
f 1165 1196 1181
f 1165 1181 1180
f 1165 1180 1166
f 1166 1180 1167
f 1167 1180 1181
f 1167 1181 1197
f 1167 1197 1207
f 1167 1207 1211
f 1167 1211 1212
f 1167 1212 1208
f 1167 1208 1200
f 1167 1200 1199
f 1167 1199 1198
f 1167 1198 1182
f 1167 1182 1171
f 1167 1171 1170
f 1167 1170 1168
f 1168 1170 1169
f 1171 1182 1183
f 1171 1183 1184
f 1171 1184 1172
f 1172 1184 1183
f 1172 1183 1173
f 1173 1183 1174
f 1174 1183 1185
f 1174 1185 1175
f 1175 1185 1186
f 1175 1186 1187
f 1175 1187 1188
f 1175 1188 1176
f 1176 1189 1190
f 1176 1190 1177
f 1176 1188 1191
f 1176 1191 1192
f 1176 1192 1189
f 1177 1190 1189
f 1177 1189 1192
f 1177 1192 1203
f 1177 1203 1210
f 1177 1210 1213
f 1177 1213 1211
f 1177 1211 1207
f 1177 1207 1206
f 1177 1206 1204
f 1177 1204 1193
f 1179 1194 1195
f 1179 1195 1196
f 1181 1196 1197
f 1182 1198 1183
f 1183 1186 1185
f 1183 1198 1199
f 1183 1199 1186
f 1186 1199 1200
f 1186 1200 1208
f 1186 1208 1201
f 1186 1201 1202
f 1186 1202 1187
f 1187 1202 1191
f 1187 1191 1188
f 1191 1202 1192
f 1192 1202 1203
f 1194 1205 1206
f 1194 1206 1195
f 1195 1206 1197
f 1195 1197 1196
f 1197 1206 1207
f 1201 1208 1209
f 1201 1209 1202
f 1202 1209 1210
f 1202 1210 1203
f 1204 1206 1205
f 1208 1212 1209
f 1209 1212 1210
f 1210 1212 1213
f 1211 1213 1212
o convex_10
v 0.767768 -0.589259 0.126219
v 0.766294 -0.589259 0.132043
v 0.752059 -0.620622 0.136731
v 0.764357 -0.596081 0.126219
v 0.736519 -0.589259 0.0637148
v 0.759766 -0.589259 0.141987
v 0.722284 -0.638156 0.105174
v 0.741572 -0.620622 0.115707
v 0.744184 -0.610096 0.105174
v 0.750332 -0.617103 0.140242
v 0.736308 -0.633772 0.141987
v 0.680211 -0.701283 0.126219
v 0.743299 -0.596081 0.0841503
v 0.735971 -0.589259 0.062903
v 0.720515 -0.620622 0.073618
v 0.736308 -0.589259 0.147263
v 0.736308 -0.610096 0.147263
v 0.652162 -0.717921 0.141987
v 0.657384 -0.704771 0.0946623
v 0.678442 -0.683749 0.0946623
v 0.631104 -0.738974 0.141987
v 0.620575 -0.752093 0.136731
v 0.575007 -0.7854 0.126219
v 0.552264 -0.788889 0.0946623
v 0.720515 -0.5996 0.0525939
v 0.715377 -0.589259 0.0422848
v 0.699499 -0.641675 0.073618
v 0.736097 -0.589259 0.147263
v 0.610089 -0.736319 0.147263
v 0.615311 -0.725823 0.073618
v 0.552264 -0.746845 0.0315699
v 0.552264 -0.725823 0.0105255
v 0.547 -0.802039 0.141987
v 0.536471 -0.815189 0.136731
v 0.573238 -0.746845 0.0525939
v 0.489134 -0.830963 0.0946623
v 0.468118 -0.830963 0.073618
v 0.699499 -0.5996 0.0315699
v 0.611605 -0.59213 -0.0600553
v 0.613037 -0.589259 -0.0600553
v 0.552264 -0.683749 -0.0315429
v 0.552264 -0.662696 -0.0525872
v 0.712639 -0.589259 0.142048
v 0.35765 -0.862511 0.147263
v 0.525942 -0.799415 0.147263
v 0.531207 -0.725823 -0.0104985
v 0.447061 -0.830963 0.0525939
v 0.489134 -0.788889 0.0315699
v 0.468118 -0.767867 -0.0104985
v 0.504927 -0.823091 0.141987
v 0.511918 -0.827475 0.126219
v 0.494398 -0.836241 0.136731
v 0.486522 -0.836241 0.105174
v 0.447061 -0.852015 0.0946623
v 0.426045 -0.852015 0.073618
v 0.636369 -0.5996 -0.0315429
v 0.615311 -0.5996 -0.0525872
v 0.590547 -0.613152 -0.0600553
v 0.49743 -0.589259 -0.0600553
v 0.544136 -0.65217 -0.0600553
v 0.531207 -0.704771 -0.0315429
v 0.468118 -0.725823 -0.0525872
v 0.473172 -0.706499 -0.0600553
v 0.485428 -0.6973 -0.0600553
v 0.712429 -0.589259 0.141987
v 0.337519 -0.859547 0.141621
v 0.337519 -0.862511 0.142778
v 0.337519 -0.882637 0.147263
v 0.35765 -0.883563 0.147263
v 0.362914 -0.852015 0.0315699
v 0.426045 -0.809941 0.0105255
v 0.420781 -0.865166 0.141987
v 0.427772 -0.869549 0.126219
v 0.410252 -0.878316 0.136731
v 0.402376 -0.878316 0.105174
v 0.404987 -0.873037 0.0946623
v 0.341899 -0.873037 0.0525939
v 0.339667 -0.695788 -0.0600553
v 0.688971 -0.5996 0.136731
v 0.694109 -0.589259 0.126422
v 0.341899 -0.809941 -0.0315429
v 0.341899 -0.788889 -0.0525872
v 0.422297 -0.739375 -0.0600553
v 0.432994 -0.733263 -0.0600553
v 0.445713 -0.724805 -0.0600553
v 0.45999 -0.715297 -0.0600553
v 0.337519 -0.852015 0.136731
v 0.337519 -0.883563 0.147263
v 0.337519 -0.896991 0.140546
v 0.35765 -0.897578 0.140242
v 0.378707 -0.886187 0.141987
v 0.341899 -0.830963 -0.0104985
v 0.35765 -0.904585 0.126219
v 0.368179 -0.899337 0.136731
v 0.364683 -0.897578 0.112196
v 0.341899 -0.89409 0.0946623
v 0.337519 -0.899337 0.10347
v 0.337519 -0.878995 0.0631059
v 0.337519 -0.870135 0.04679
v 0.337519 -0.6973 -0.0600553
v 0.337519 -0.822289 -0.0191842
v 0.337519 -0.809941 -0.0315429
v 0.33815 -0.781418 -0.0600553
v 0.337519 -0.897578 0.140242
v 0.337519 -0.904307 0.126828
v 0.337519 -0.830963 -0.0104985
v 0.337519 -0.904585 0.126219
v 0.337519 -0.900017 0.105174
v 0.337519 -0.781418 -0.0600553
f 1214 1215 1216
f 1214 1216 1217
f 1214 1217 1218
f 1214 1218 1227
f 1214 1227 1239
f 1214 1239 1253
f 1214 1253 1272
f 1214 1272 1293
f 1214 1293 1278
f 1214 1278 1256
f 1214 1256 1241
f 1214 1241 1229
f 1214 1229 1219
f 1214 1219 1215
f 1215 1219 1216
f 1216 1220 1221
f 1216 1221 1222
f 1216 1222 1217
f 1216 1219 1223
f 1216 1223 1224
f 1216 1224 1225
f 1216 1225 1220
f 1217 1222 1226
f 1217 1226 1218
f 1218 1226 1228
f 1218 1228 1227
f 1219 1229 1230
f 1219 1230 1223
f 1220 1228 1221
f 1220 1225 1233
f 1220 1233 1228
f 1221 1228 1222
f 1222 1228 1226
f 1223 1230 1224
f 1224 1230 1242
f 1224 1242 1231
f 1224 1231 1225
f 1225 1232 1233
f 1225 1231 1234
f 1225 1234 1235
f 1225 1235 1236
f 1225 1236 1237
f 1225 1237 1232
f 1227 1228 1238
f 1227 1238 1239
f 1228 1233 1240
f 1228 1240 1238
f 1229 1241 1257
f 1229 1257 1281
f 1229 1281 1301
f 1229 1301 1282
f 1229 1282 1258
f 1229 1258 1242
f 1229 1242 1230
f 1231 1242 1234
f 1232 1243 1233
f 1232 1237 1243
f 1233 1243 1244
f 1233 1244 1245
f 1233 1245 1240
f 1234 1242 1246
f 1234 1246 1247
f 1234 1247 1235
f 1235 1247 1236
f 1236 1247 1237
f 1237 1244 1248
f 1237 1248 1243
f 1237 1247 1249
f 1237 1249 1250
f 1237 1250 1244
f 1238 1240 1251
f 1238 1251 1239
f 1239 1251 1252
f 1239 1252 1253
f 1240 1245 1254
f 1240 1254 1255
f 1240 1255 1251
f 1241 1256 1257
f 1242 1258 1246
f 1243 1248 1244
f 1244 1259 1245
f 1244 1250 1260
f 1244 1260 1261
f 1244 1261 1262
f 1244 1262 1259
f 1245 1259 1254
f 1246 1258 1263
f 1246 1263 1265
f 1246 1265 1247
f 1247 1264 1249
f 1247 1265 1264
f 1249 1266 1267
f 1249 1267 1268
f 1249 1268 1250
f 1249 1264 1266
f 1250 1268 1260
f 1251 1255 1269
f 1251 1269 1252
f 1252 1269 1270
f 1252 1270 1255
f 1252 1255 1271
f 1252 1271 1273
f 1252 1273 1277
f 1252 1277 1276
f 1252 1276 1299
f 1252 1299 1298
f 1252 1298 1297
f 1252 1297 1296
f 1252 1296 1316
f 1252 1316 1322
f 1252 1322 1313
f 1252 1313 1291
f 1252 1291 1272
f 1252 1272 1253
f 1254 1259 1274
f 1254 1274 1255
f 1255 1273 1271
f 1255 1270 1269
f 1255 1274 1275
f 1255 1275 1276
f 1255 1276 1277
f 1255 1277 1273
f 1256 1278 1279
f 1256 1279 1280
f 1256 1280 1257
f 1257 1280 1281
f 1258 1282 1285
f 1258 1285 1263
f 1259 1262 1275
f 1259 1275 1274
f 1260 1268 1283
f 1260 1283 1284
f 1260 1284 1262
f 1260 1262 1261
f 1262 1284 1275
f 1263 1285 1287
f 1263 1287 1265
f 1264 1265 1287
f 1264 1287 1286
f 1264 1286 1288
f 1264 1288 1266
f 1266 1288 1267
f 1267 1288 1289
f 1267 1289 1268
f 1268 1289 1290
f 1268 1290 1283
f 1272 1291 1292
f 1272 1292 1293
f 1275 1284 1294
f 1275 1294 1295
f 1275 1295 1316
f 1275 1316 1296
f 1275 1296 1297
f 1275 1297 1298
f 1275 1298 1299
f 1275 1299 1276
f 1278 1293 1292
f 1278 1292 1300
f 1278 1300 1279
f 1279 1300 1313
f 1279 1313 1322
f 1279 1322 1315
f 1279 1315 1314
f 1279 1314 1319
f 1279 1319 1312
f 1279 1312 1311
f 1279 1311 1310
f 1279 1310 1321
f 1279 1321 1320
f 1279 1320 1318
f 1279 1318 1317
f 1279 1317 1302
f 1279 1302 1301
f 1279 1301 1281
f 1279 1281 1280
f 1282 1301 1302
f 1282 1302 1303
f 1282 1303 1304
f 1282 1304 1285
f 1283 1290 1305
f 1283 1305 1284
f 1284 1305 1294
f 1285 1304 1307
f 1285 1307 1287
f 1286 1287 1307
f 1286 1307 1306
f 1286 1306 1288
f 1288 1306 1308
f 1288 1308 1289
f 1289 1308 1290
f 1290 1309 1310
f 1290 1310 1311
f 1290 1311 1312
f 1290 1312 1305
f 1290 1308 1309
f 1291 1313 1292
f 1292 1313 1300
f 1294 1305 1314
f 1294 1314 1315
f 1294 1315 1322
f 1294 1322 1316
f 1294 1316 1295
f 1302 1317 1303
f 1303 1307 1304
f 1303 1317 1318
f 1303 1318 1307
f 1305 1312 1319
f 1305 1319 1314
f 1306 1307 1318
f 1306 1318 1320
f 1306 1320 1321
f 1306 1321 1310
f 1306 1310 1308
f 1308 1310 1309
o convex_11
v 0.337519 -0.697298 -0.0600553
v 0.337519 -0.78145 -0.0600553
v 0.335063 -0.697298 -0.0600553
v 0.337519 -0.851996 0.136731
v 0.337519 -0.822322 -0.0191842
v 0.30852 -0.806465 -0.0490765
v 0.318606 -0.79045 -0.0600553
v 0.331314 -0.851996 0.136731
v -0.00144299 -0.784521 -0.0600553
v -0.00144299 -0.918624 0.13322
v 0.337519 -0.85954 0.141621
v 0.337519 -0.831004 -0.0104985
v 0.30852 -0.827484 -0.0280321
v 0.182305 -0.848502 -0.0490765
v 0.255499 -0.811495 -0.0600553
v -0.00144299 -0.853531 -0.0600553
v -0.00144299 -0.927095 0.137461
v 0.337519 -0.862532 0.142778
v -0.00144299 -0.946684 0.147263
v 0.337519 -0.870155 0.04679
v 0.320796 -0.851996 0.0105255
v 0.322555 -0.834472 -0.0140093
v 0.259447 -0.855517 -0.0140093
v 0.245412 -0.848502 -0.0280321
v 0.192392 -0.832513 -0.0600553
v 0.19634 -0.855517 -0.0350537
v 0.161302 -0.869547 -0.0280321
v 0.0561234 -0.869547 -0.0490765
v 0.0872126 -0.853531 -0.0600553
v -0.00144299 -0.869547 -0.0490765
v 0.337519 -0.88265 0.147263
v 0.294518 -0.883576 0.147263
v -0.00144299 -0.960714 0.140242
v 0.126232 -0.946684 0.147263
v 0.337519 -0.878997 0.0631059
v 0.320796 -0.894085 0.073618
v 0.257689 -0.873041 0.0105255
v 0.278725 -0.851996 -0.0104985
v 0.238412 -0.876561 0.00701474
v 0.154302 -0.89758 0.00701474
v 0.140267 -0.890565 -0.00700807
v -0.00144299 -0.931701 0.0436445
v 0.098195 -0.911609 0.0140363
v 0.337519 -0.883576 0.147263
v -0.00144299 -0.967729 0.126219
v 0.126232 -0.960714 0.140242
v 0.231411 -0.925639 0.147263
v 0.337519 -0.899353 0.10347
v 0.29976 -0.91513 0.0946623
v 0.257689 -0.91513 0.073618
v 0.236653 -0.894085 0.0315699
v 0.217376 -0.89758 0.0280591
v 0.133266 -0.939669 0.0701072
v 0.11223 -0.918624 0.0280591
v 0.238412 -0.918624 0.0701072
v 0.0140518 -0.953699 0.0771287
v -0.00144299 -0.953699 0.0771287
v 0.337519 -0.89758 0.140242
v 0.294518 -0.904595 0.147263
v 0.315554 -0.907242 0.141987
v 0.126232 -0.967729 0.126219
v -0.00144299 -0.967729 0.105174
v 0.13675 -0.962461 0.136731
v 0.231411 -0.939669 0.140242
v 0.337519 -0.900015 0.105174
v 0.297139 -0.920372 0.105174
v 0.238412 -0.939669 0.112196
v 0.280483 -0.918624 0.0911516
v 0.133266 -0.960714 0.112196
v 0.0280536 -0.960714 0.0911516
v 0.19634 -0.939669 0.0911516
v 0.337519 -0.904303 0.126828
v 0.305036 -0.920372 0.136731
v 0.294518 -0.918624 0.140242
v 0.231411 -0.946684 0.126219
v 0.0210527 -0.967729 0.105174
v 0.241929 -0.941416 0.136731
v 0.337519 -0.904595 0.126219
v 0.294518 -0.925639 0.126219
f 1323 1324 1329
f 1323 1329 1337
f 1323 1337 1347
f 1323 1347 1351
f 1323 1351 1338
f 1323 1338 1331
f 1323 1331 1325
f 1323 1325 1330
f 1323 1330 1326
f 1323 1326 1333
f 1323 1333 1340
f 1323 1340 1353
f 1323 1353 1366
f 1323 1366 1380
f 1323 1380 1394
f 1323 1394 1400
f 1323 1400 1387
f 1323 1387 1370
f 1323 1370 1357
f 1323 1357 1342
f 1323 1342 1334
f 1323 1334 1327
f 1323 1327 1324
f 1324 1327 1328
f 1324 1328 1329
f 1325 1331 1332
f 1325 1332 1330
f 1326 1330 1333
f 1327 1334 1328
f 1328 1334 1335
f 1328 1335 1346
f 1328 1346 1336
f 1328 1336 1347
f 1328 1347 1337
f 1328 1337 1329
f 1330 1332 1333
f 1331 1338 1352
f 1331 1352 1364
f 1331 1364 1379
f 1331 1379 1384
f 1331 1384 1367
f 1331 1367 1355
f 1331 1355 1341
f 1331 1341 1339
f 1331 1339 1332
f 1332 1339 1333
f 1333 1339 1341
f 1333 1341 1340
f 1334 1342 1343
f 1334 1343 1344
f 1334 1344 1335
f 1335 1344 1345
f 1335 1345 1346
f 1336 1346 1345
f 1336 1345 1348
f 1336 1348 1349
f 1336 1349 1350
f 1336 1350 1351
f 1336 1351 1347
f 1338 1351 1350
f 1338 1350 1352
f 1340 1341 1354
f 1340 1354 1353
f 1341 1355 1368
f 1341 1368 1356
f 1341 1356 1369
f 1341 1369 1381
f 1341 1381 1366
f 1341 1366 1353
f 1341 1353 1354
f 1342 1357 1358
f 1342 1358 1343
f 1343 1358 1372
f 1343 1372 1359
f 1343 1359 1360
f 1343 1360 1344
f 1344 1360 1345
f 1345 1360 1359
f 1345 1359 1361
f 1345 1361 1348
f 1348 1361 1349
f 1349 1362 1363
f 1349 1363 1350
f 1349 1361 1362
f 1350 1364 1352
f 1350 1363 1365
f 1350 1365 1364
f 1355 1367 1383
f 1355 1383 1368
f 1356 1368 1386
f 1356 1386 1369
f 1357 1370 1358
f 1358 1371 1372
f 1358 1370 1371
f 1359 1372 1373
f 1359 1373 1361
f 1361 1373 1374
f 1361 1374 1362
f 1362 1375 1376
f 1362 1376 1365
f 1362 1365 1363
f 1362 1374 1377
f 1362 1377 1375
f 1364 1378 1379
f 1364 1365 1378
f 1365 1376 1378
f 1366 1381 1382
f 1366 1382 1380
f 1367 1384 1398
f 1367 1398 1383
f 1368 1383 1385
f 1368 1385 1399
f 1368 1399 1386
f 1369 1386 1396
f 1369 1396 1381
f 1370 1387 1371
f 1371 1387 1388
f 1371 1388 1389
f 1371 1389 1390
f 1371 1390 1377
f 1371 1377 1372
f 1372 1377 1374
f 1372 1374 1373
f 1375 1391 1392
f 1375 1392 1376
f 1375 1377 1393
f 1375 1393 1391
f 1376 1392 1378
f 1377 1390 1389
f 1377 1389 1393
f 1378 1392 1398
f 1378 1398 1384
f 1378 1384 1379
f 1380 1382 1395
f 1380 1395 1394
f 1381 1396 1382
f 1382 1396 1395
f 1383 1397 1399
f 1383 1399 1385
f 1383 1398 1391
f 1383 1391 1397
f 1386 1399 1395
f 1386 1395 1396
f 1387 1400 1388
f 1388 1400 1401
f 1388 1401 1397
f 1388 1397 1389
f 1389 1397 1393
f 1391 1398 1392
f 1391 1393 1397
f 1394 1395 1400
f 1395 1399 1397
f 1395 1397 1401
f 1395 1401 1400
o convex_12
v -0.904616 0.339735 0.105171
v -0.89947 0.339735 0.0846582
v -0.89759 0.339735 0.119201
v -0.904616 0.357657 0.105171
v -0.899316 0.339735 0.0842769
v -0.88357 0.339735 0.126225
v -0.89759 0.357657 0.119201
v -0.878301 0.40238 0.0841364
v -0.89759 0.364692 0.0911613
v -0.899347 0.368168 0.115688
v -0.83624 0.494421 0.115688
v -0.86955 0.427798 0.105171
v -0.898422 0.339735 0.0822899
v -0.880458 0.339735 0.126225
v -0.88357 0.357657 0.126225
v -0.886189 0.378678 0.120947
v -0.873032 0.404976 0.0736191
v -0.83624 0.486507 0.0841364
v -0.852016 0.44706 0.0736191
v -0.873032 0.34187 0.0315501
v -0.894078 0.34187 0.0736191
v -0.844128 0.462847 0.120947
v -0.823082 0.504932 0.120947
v -0.738959 0.631101 0.120947
v -0.752086 0.62059 0.115688
v -0.785396 0.574989 0.105171
v -0.827457 0.511925 0.105171
v -0.834483 0.497897 0.105171
v -0.871614 0.339735 0.0286599
v -0.862524 0.339735 0.122231
v -0.862524 0.357657 0.126225
v -0.820463 0.483868 0.126225
v -0.852016 0.426039 0.0525846
v -0.83097 0.489145 0.0736191
v -0.855498 0.343629 0.00702324
v -0.852016 0.362933 0.0105357
v -0.73634 0.61008 0.126225
v -0.717913 0.652164 0.120947
v -0.701274 0.680179 0.105171
v -0.788909 0.55225 0.0736191
v -0.855776 0.339735 0.00593941
v -0.857717 0.339735 0.120345
v -0.589819 0.714391 0.126025
v -0.589819 0.71527 0.126225
v -0.83097 0.468123 0.0525846
v -0.853557 0.339735 0.00310938
v -0.788909 0.383955 -0.0525879
v -0.809924 0.44706 0.0105357
v -0.673233 0.673186 0.126225
v -0.696898 0.673186 0.120947
v -0.654806 0.71527 0.120947
v -0.63376 0.736291 0.120947
v -0.620633 0.752078 0.115688
v -0.638167 0.722263 0.0841364
v -0.683741 0.678462 0.0736191
v -0.704787 0.657399 0.0736191
v -0.746848 0.573272 0.0315501
v -0.788909 0.531229 0.0525846
v -0.852016 0.339735 0.115688
v -0.589819 0.700321 0.11894
v -0.589819 0.700865 0.119261
v -0.589819 0.736291 0.126225
v -0.788909 0.510166 0.0315501
v -0.767863 0.489145 -0.0104988
v -0.805734 0.339735 -0.0462856
v -0.792391 0.364692 -0.0560803
v -0.741671 0.40238 -0.0788208
v -0.762655 0.360337 -0.0788208
v -0.771653 0.339735 -0.0788208
v -0.746848 0.489145 -0.0315534
v -0.704787 0.489145 -0.0736224
v -0.720625 0.444464 -0.0788208
v -0.631141 0.71527 0.126225
v -0.610095 0.736291 0.126225
v -0.617121 0.750319 0.119201
v -0.589819 0.759825 0.121569
v -0.589819 0.766148 0.11053
v -0.589819 0.767488 0.105171
v -0.596075 0.764348 0.105171
v -0.610095 0.744164 0.0841364
v -0.620633 0.741567 0.0946536
v -0.620633 0.720504 0.0525846
v -0.620633 0.699483 0.0315501
v -0.704787 0.55225 -0.0315534
v -0.725802 0.55225 -0.0104988
v -0.684881 0.339735 -0.0788208
v -0.589819 0.48592 -0.0784997
v -0.782592 0.339735 -0.0694276
v -0.694402 0.486548 -0.0788208
v -0.709963 0.46314 -0.0788208
v -0.662695 0.573272 -0.0525879
v -0.657518 0.528633 -0.0788208
v -0.589819 0.758108 0.0864446
v -0.589819 0.756852 0.0841364
v -0.599587 0.720504 0.0315501
v -0.599587 0.678462 -0.0104988
v -0.599587 0.636377 -0.0525879
v -0.620633 0.636377 -0.0315534
v -0.589819 0.485795 -0.0788208
v -0.594411 0.591697 -0.0788208
v -0.589819 0.743243 0.0623392
v -0.589819 0.715647 0.0218156
v -0.589819 0.693076 -0.000764342
v -0.589819 0.652541 -0.041308
v -0.589819 0.650992 -0.0428334
v -0.589819 0.633949 -0.0574652
v -0.589819 0.594754 -0.0788208
f 1402 1403 1406
f 1402 1406 1414
f 1402 1414 1430
f 1402 1430 1442
f 1402 1442 1447
f 1402 1447 1466
f 1402 1466 1489
f 1402 1489 1470
f 1402 1470 1487
f 1402 1487 1460
f 1402 1460 1443
f 1402 1443 1431
f 1402 1431 1415
f 1402 1415 1407
f 1402 1407 1404
f 1402 1404 1408
f 1402 1408 1405
f 1402 1405 1403
f 1403 1405 1406
f 1404 1407 1416
f 1404 1416 1408
f 1405 1409 1410
f 1405 1410 1406
f 1405 1408 1411
f 1405 1411 1412
f 1405 1412 1413
f 1405 1413 1409
f 1406 1410 1414
f 1407 1415 1432
f 1407 1432 1445
f 1407 1445 1463
f 1407 1463 1475
f 1407 1475 1474
f 1407 1474 1450
f 1407 1450 1438
f 1407 1438 1433
f 1407 1433 1416
f 1408 1416 1417
f 1408 1417 1411
f 1409 1418 1410
f 1409 1413 1419
f 1409 1419 1420
f 1409 1420 1418
f 1410 1418 1421
f 1410 1421 1422
f 1410 1422 1414
f 1411 1417 1423
f 1411 1423 1412
f 1412 1423 1424
f 1412 1424 1425
f 1412 1425 1426
f 1412 1426 1427
f 1412 1427 1428
f 1412 1428 1429
f 1412 1429 1413
f 1413 1429 1419
f 1414 1422 1430
f 1415 1431 1432
f 1416 1433 1423
f 1416 1423 1417
f 1418 1420 1434
f 1418 1434 1421
f 1419 1435 1420
f 1419 1429 1428
f 1419 1428 1435
f 1420 1435 1446
f 1420 1446 1434
f 1421 1436 1430
f 1421 1430 1422
f 1421 1434 1437
f 1421 1437 1436
f 1423 1433 1424
f 1424 1433 1438
f 1424 1438 1425
f 1425 1438 1439
f 1425 1439 1440
f 1425 1440 1426
f 1426 1440 1427
f 1427 1441 1428
f 1427 1440 1441
f 1428 1441 1435
f 1430 1436 1442
f 1431 1443 1444
f 1431 1444 1445
f 1431 1445 1432
f 1434 1446 1437
f 1435 1441 1459
f 1435 1459 1446
f 1436 1447 1442
f 1436 1437 1447
f 1437 1448 1447
f 1437 1446 1449
f 1437 1449 1448
f 1438 1450 1451
f 1438 1451 1439
f 1439 1451 1440
f 1440 1451 1452
f 1440 1452 1453
f 1440 1453 1454
f 1440 1454 1455
f 1440 1455 1456
f 1440 1456 1457
f 1440 1457 1441
f 1441 1458 1459
f 1441 1457 1458
f 1443 1460 1461
f 1443 1461 1462
f 1443 1462 1444
f 1444 1462 1461
f 1444 1461 1488
f 1444 1488 1500
f 1444 1500 1508
f 1444 1508 1507
f 1444 1507 1506
f 1444 1506 1505
f 1444 1505 1504
f 1444 1504 1503
f 1444 1503 1502
f 1444 1502 1495
f 1444 1495 1494
f 1444 1494 1479
f 1444 1479 1478
f 1444 1478 1477
f 1444 1477 1463
f 1444 1463 1445
f 1446 1459 1458
f 1446 1458 1464
f 1446 1464 1465
f 1446 1465 1449
f 1447 1448 1467
f 1447 1467 1466
f 1448 1468 1469
f 1448 1469 1470
f 1448 1470 1467
f 1448 1449 1465
f 1448 1465 1471
f 1448 1471 1472
f 1448 1472 1473
f 1448 1473 1468
f 1450 1474 1452
f 1450 1452 1451
f 1452 1474 1475
f 1452 1475 1453
f 1453 1475 1476
f 1453 1476 1454
f 1454 1476 1477
f 1454 1477 1478
f 1454 1478 1479
f 1454 1479 1480
f 1454 1480 1481
f 1454 1481 1482
f 1454 1482 1455
f 1455 1482 1483
f 1455 1483 1456
f 1456 1483 1484
f 1456 1484 1485
f 1456 1485 1458
f 1456 1458 1457
f 1458 1485 1486
f 1458 1486 1465
f 1458 1465 1464
f 1460 1487 1461
f 1461 1487 1488
f 1463 1477 1475
f 1465 1486 1485
f 1465 1485 1471
f 1466 1467 1489
f 1467 1470 1489
f 1468 1473 1491
f 1468 1491 1490
f 1468 1490 1493
f 1468 1493 1501
f 1468 1501 1508
f 1468 1508 1500
f 1468 1500 1487
f 1468 1487 1470
f 1468 1470 1469
f 1471 1485 1472
f 1472 1490 1491
f 1472 1491 1473
f 1472 1485 1492
f 1472 1492 1493
f 1472 1493 1490
f 1475 1477 1476
f 1479 1494 1480
f 1480 1494 1483
f 1480 1483 1481
f 1481 1483 1482
f 1483 1494 1495
f 1483 1495 1496
f 1483 1496 1484
f 1484 1496 1497
f 1484 1497 1498
f 1484 1498 1499
f 1484 1499 1485
f 1485 1499 1498
f 1485 1498 1492
f 1487 1500 1488
f 1492 1498 1493
f 1493 1498 1501
f 1495 1502 1496
f 1496 1502 1503
f 1496 1503 1504
f 1496 1504 1505
f 1496 1505 1497
f 1497 1505 1498
f 1498 1505 1506
f 1498 1506 1507
f 1498 1507 1501
f 1501 1507 1508
o convex_13
v -0.967701 -0.0015413 0.105171
v -0.966953 -0.0015413 0.103645
v -0.961222 -0.0015413 0.118177
v -0.962468 0.136776 0.115688
v -0.967701 0.126254 0.105171
v -0.956432 -0.0015413 0.0825909
v -0.946685 0.105211 0.0631019
v -0.960696 -0.0015413 0.119201
v -0.960696 0.126254 0.119201
v -0.941424 0.241925 0.115688
v -0.946685 0.231404 0.105171
v -0.960696 0.133269 0.0911613
v -0.927192 -0.0015413 0.0241037
v -0.939652 0.112226 0.0490722
v -0.918636 0.0701392 0.00702324
v -0.946685 -0.0015413 0.126225
v -0.946685 0.126254 0.126225
v -0.939652 0.231404 0.119201
v -0.918636 0.2945 0.119201
v -0.92038 0.305021 0.115688
v -0.925641 0.2945 0.105171
v -0.918636 0.301514 0.0911613
v -0.939652 0.238418 0.0911613
v -0.918636 0.175288 0.0280377
v -0.918636 -0.0015413 0.00702324
v -0.911603 0.0561104 -0.00700645
v -0.916919 -0.0015413 0.113902
v -0.925641 0.0631248 0.126225
v -0.925641 0.231404 0.126225
v -0.904597 0.2945 0.126225
v -0.907228 0.315543 0.120947
v -0.897592 0.339693 0.119201
v -0.903573 0.339693 0.107238
v -0.904597 0.339693 0.105171
v -0.899475 0.339693 0.0846582
v -0.894076 0.320821 0.0525846
v -0.897592 0.301514 0.0490722
v -0.897592 0.259461 0.0280377
v -0.869543 0.140283 -0.0490755
v -0.911603 0.161293 0.0140281
v -0.911603 -0.0015413 -0.00700645
v -0.890587 0.0981968 -0.028041
v -0.768035 -0.0015413 -0.0788208
v -0.684856 0.339693 -0.0788208
v -0.852016 0.331309 0.115688
v -0.911603 0.0561104 0.119201
v -0.85772 0.339693 0.120345
v -0.862538 0.339693 0.122231
v -0.883554 0.2945 0.126225
v -0.883554 0.339693 0.126225
v -0.899309 0.339693 0.0842769
v -0.852016 0.320821 -0.0104988
v -0.87306 0.299777 0.0105357
v -0.894076 0.278734 0.0315501
v -0.898423 0.339693 0.0822899
v -0.87306 0.339693 0.0315501
v -0.871592 0.339693 0.0286599
v -0.855505 0.301514 -0.0140113
v -0.848499 0.287485 -0.028041
v -0.869543 0.266476 -0.00700645
v -0.834488 0.175288 -0.0771349
v -0.848499 0.140283 -0.07011
v -0.848499 0.224389 -0.0490755
v -0.890587 -0.0015413 -0.028041
v -0.83363 -0.0015413 -0.0788208
v -0.771662 0.339693 -0.0788208
v -0.852016 0.339693 0.115688
v -0.88048 0.339693 0.126225
v -0.809956 0.320821 -0.0525879
v -0.806467 0.287485 -0.07011
v -0.860516 0.339693 0.0127234
v -0.855781 0.339693 0.00593941
v -0.853566 0.339693 0.00310938
v -0.805747 0.339693 -0.0462856
v -0.782627 0.339693 -0.0694276
v -0.83255 0.173986 -0.0788208
v -0.827455 0.224389 -0.07011
v -0.812614 0.236715 -0.0788208
v -0.83363 0.152609 -0.0788208
v -0.848499 -0.0015413 -0.07011
v -0.783734 0.318215 -0.0788208
v -0.788912 0.320821 -0.0736224
v -0.791598 0.299844 -0.0788208
f 1509 1510 1514
f 1509 1514 1521
f 1509 1521 1533
f 1509 1533 1549
f 1509 1549 1572
f 1509 1572 1588
f 1509 1588 1573
f 1509 1573 1551
f 1509 1551 1535
f 1509 1535 1524
f 1509 1524 1516
f 1509 1516 1511
f 1509 1511 1512
f 1509 1512 1513
f 1509 1513 1510
f 1510 1513 1515
f 1510 1515 1514
f 1511 1516 1517
f 1511 1517 1512
f 1512 1517 1526
f 1512 1526 1518
f 1512 1518 1519
f 1512 1519 1513
f 1513 1520 1515
f 1513 1519 1520
f 1514 1515 1521
f 1515 1520 1522
f 1515 1522 1523
f 1515 1523 1521
f 1516 1524 1525
f 1516 1525 1517
f 1517 1525 1537
f 1517 1537 1526
f 1518 1526 1527
f 1518 1527 1528
f 1518 1528 1529
f 1518 1529 1519
f 1519 1529 1530
f 1519 1530 1531
f 1519 1531 1520
f 1520 1532 1522
f 1520 1531 1532
f 1521 1523 1533
f 1522 1532 1523
f 1523 1534 1549
f 1523 1549 1533
f 1523 1532 1534
f 1524 1535 1536
f 1524 1536 1557
f 1524 1557 1576
f 1524 1576 1558
f 1524 1558 1538
f 1524 1538 1537
f 1524 1537 1525
f 1526 1537 1527
f 1527 1538 1539
f 1527 1539 1528
f 1527 1537 1538
f 1528 1539 1540
f 1528 1540 1541
f 1528 1541 1542
f 1528 1542 1529
f 1529 1542 1543
f 1529 1543 1530
f 1530 1543 1544
f 1530 1544 1531
f 1531 1544 1545
f 1531 1545 1546
f 1531 1546 1532
f 1532 1547 1548
f 1532 1548 1534
f 1532 1546 1547
f 1534 1548 1550
f 1534 1550 1572
f 1534 1572 1549
f 1535 1551 1552
f 1535 1552 1553
f 1535 1553 1554
f 1535 1554 1536
f 1536 1554 1555
f 1536 1555 1556
f 1536 1556 1557
f 1538 1558 1539
f 1539 1558 1540
f 1540 1558 1576
f 1540 1576 1556
f 1540 1556 1555
f 1540 1555 1575
f 1540 1575 1552
f 1540 1552 1574
f 1540 1574 1583
f 1540 1583 1582
f 1540 1582 1581
f 1540 1581 1580
f 1540 1580 1579
f 1540 1579 1565
f 1540 1565 1564
f 1540 1564 1563
f 1540 1563 1559
f 1540 1559 1543
f 1540 1543 1542
f 1540 1542 1541
f 1543 1559 1544
f 1544 1560 1561
f 1544 1561 1562
f 1544 1562 1546
f 1544 1546 1545
f 1544 1559 1563
f 1544 1563 1564
f 1544 1564 1565
f 1544 1565 1560
f 1546 1562 1561
f 1546 1561 1560
f 1546 1560 1566
f 1546 1566 1567
f 1546 1567 1568
f 1546 1568 1547
f 1547 1569 1570
f 1547 1570 1588
f 1547 1588 1572
f 1547 1572 1550
f 1547 1550 1548
f 1547 1568 1567
f 1547 1567 1571
f 1547 1571 1569
f 1551 1573 1587
f 1551 1587 1584
f 1551 1584 1586
f 1551 1586 1591
f 1551 1591 1589
f 1551 1589 1574
f 1551 1574 1552
f 1552 1575 1553
f 1553 1575 1555
f 1553 1555 1554
f 1556 1576 1557
f 1560 1577 1578
f 1560 1578 1567
f 1560 1567 1566
f 1560 1565 1579
f 1560 1579 1580
f 1560 1580 1581
f 1560 1581 1582
f 1560 1582 1583
f 1560 1583 1577
f 1567 1578 1571
f 1569 1584 1570
f 1569 1571 1585
f 1569 1585 1586
f 1569 1586 1584
f 1570 1584 1587
f 1570 1587 1573
f 1570 1573 1588
f 1571 1578 1585
f 1574 1589 1590
f 1574 1590 1583
f 1577 1590 1578
f 1577 1583 1590
f 1578 1590 1591
f 1578 1591 1586
f 1578 1586 1585
f 1589 1591 1590
