# https://github.com/mikedh/trimesh
v -0.39527300 0.15788400 0.05867630
v -0.39527300 0.15788400 0.03946940
v -0.39531200 0.15788400 0.05913970
v -0.39527300 0.14474000 0.05913970
v -0.39527300 0.15127700 0.02630950
v -0.50327300 0.15294600 0.02959950
v -0.49339500 0.15788400 0.03946940
v -0.47375500 0.15788400 0.05913970
v -0.39527300 -0.19735500 0.05913970
v -0.39527300 0.07234300 -0.05262660
v -0.49339500 0.15127700 0.02630950
v -0.69072000 0.07234300 -0.05262660
v -0.70059800 0.07397730 -0.04933670
v -0.64137000 0.15294600 0.04932770
v -0.63156900 0.15784900 0.05913970
v -0.39527300 -0.19735500 0.03946940
v -0.47375500 -0.19735500 0.05913970
v -0.39527300 0.05919880 -0.05920660
v -0.69072000 0.05919880 -0.05920660
v -0.76966500 0.05262680 -0.05262660
v -0.77954300 0.05426110 -0.04933670
v -0.65117000 0.15047800 0.05913970
v -0.39527300 -0.19074800 0.02630950
v -0.49339500 -0.19735500 0.03946940
v -0.61173600 -0.19732000 0.05913970
v -0.39527300 -0.09919150 -0.05920660
v -0.76966500 0.03944790 -0.05920660
v -0.78282300 0.04601990 -0.05262660
v -0.78942100 0.03944790 -0.03946670
v -0.78282300 0.05262680 -0.03946670
v -0.67084900 0.13806400 0.05913970
v -0.40789100 -0.13156500 -0.05262660
v -0.39967200 -0.12826200 -0.04933670
v -0.39527300 -0.12092500 -0.05394720
v -0.48683600 -0.19074800 0.02630950
v -0.74994800 -0.13813700 -0.03946670
v -0.74335000 -0.13156500 -0.05262660
v -0.74998700 -0.15774900 0.05913970
v -0.39527300 -0.11838600 -0.05493190
v -0.41445000 -0.11838600 -0.05920660
v -0.76966500 -0.00001931 -0.05920660
v -0.78282300 0.00655276 -0.05262660
v -0.78942100 -0.00001931 -0.03946670
v -0.78942100 0.03944790 0.03946940
v -0.78282300 0.05262680 0.05913970
v -0.76970400 0.06653590 0.05913970
v -0.76310600 -0.13156500 -0.03288680
v -0.75978700 -0.12826200 -0.04933670
v -0.76310600 -0.11181400 -0.05262660
v -0.71047600 -0.11838600 -0.05920660
v -0.75974900 -0.14797800 0.05913970
v -0.74994800 -0.03945170 -0.05920660
v -0.78942100 -0.00001931 0.03946940
v -0.76966500 -0.11838600 -0.03946670
v -0.78942100 0.03937830 0.05913970
v -0.76569100 -0.13417300 0.05913970
v -0.76966500 -0.11838600 0.03946940
v -0.78938200 -0.00008886 0.05913970
v -0.78942100 0.01966210 0.05913970
v -0.76962700 -0.11845600 0.05913970
f 26 39 40
f 27 41 42
f 27 42 28
f 28 42 43
f 28 43 29
f 29 59 55
f 29 53 59
f 29 55 44
f 25 38 36
f 29 45 30
f 29 44 45
f 29 43 53
f 24 37 35
f 21 29 30
f 24 25 36
f 23 37 32
f 23 35 37
f 23 33 34
f 23 32 33
f 21 31 22
f 21 30 31
f 21 28 29
f 21 27 28
f 20 27 21
f 30 45 46
f 19 27 20
f 24 36 37
f 30 46 31
f 47 54 48
f 32 34 33
f 18 27 19
f 56 60 57
f 54 56 57
f 53 58 59
f 53 60 58
f 53 57 60
f 51 56 54
f 49 52 50
f 48 54 49
f 47 51 54
f 44 55 45
f 43 57 53
f 32 40 34
f 43 54 57
f 42 49 43
f 41 52 49
f 41 49 42
f 38 51 47
f 37 49 50
f 37 48 49
f 36 48 37
f 36 47 48
f 36 38 47
f 34 40 39
f 32 50 40
f 32 37 50
f 43 49 54
f 18 41 27
f 3 9 4
f 18 50 52
f 3 60 56
f 3 58 60
f 3 59 58
f 3 55 59
f 3 45 55
f 3 46 45
f 3 31 46
f 3 22 31
f 3 15 22
f 3 8 15
f 2 6 7
f 2 5 6
f 3 56 51
f 1 5 2
f 1 18 10
f 1 26 18
f 1 39 26
f 1 34 39
f 1 23 34
f 1 16 23
f 1 9 16
f 1 4 9
f 1 3 4
f 1 8 3
f 1 7 8
f 1 2 7
f 18 52 41
f 3 51 38
f 1 10 5
f 3 25 17
f 3 38 25
f 18 40 50
f 18 26 40
f 17 25 24
f 16 35 23
f 16 24 35
f 14 22 15
f 13 21 14
f 12 21 13
f 12 20 21
f 12 19 20
f 10 19 12
f 10 18 19
f 14 21 22
f 9 17 24
f 3 17 9
f 9 24 16
f 5 10 12
f 5 12 11
f 6 11 12
f 5 11 6
f 6 13 14
f 6 14 7
f 7 14 15
f 7 15 8
f 6 12 13

