# https://github.com/mikedh/trimesh
v -0.39523500 0.15784700 0.21707100
v -0.39523500 0.15784700 0.05921510
v -0.45394800 0.15784700 0.23681500
v -0.39523500 0.15296600 0.23066100
v -0.39523500 0.14474400 0.05913970
v -0.39533100 0.15784700 0.05913970
v -0.46050900 0.15127700 0.24997800
v -0.57234000 0.15784700 0.25656000
v -0.39523500 0.13813700 0.23681500
v -0.45394800 0.13813700 0.25656000
v -0.39523500 -0.19734400 0.05913970
v -0.63163200 0.15784700 0.05913970
v -0.57894900 0.15127700 0.26969800
v -0.57234000 0.13813700 0.27627900
v -0.84858600 0.15784700 0.29602400
v -0.85519600 0.15127700 0.30918700
v -0.71702400 0.15127700 0.28944200
v -0.43421600 -0.15784900 0.25656000
v -0.40787500 -0.15127900 0.24339700
v -0.39523500 -0.13865300 0.23706700
v -0.47372800 -0.19734400 0.05913970
v -0.39523500 -0.19734400 0.21707100
v -0.73019500 -0.21705400 0.07895960
v -0.72363400 -0.21048400 0.06579660
v -0.65117100 0.15047000 0.05913970
v -0.74992700 0.13813700 0.05921510
v -0.74992700 0.15127700 0.06579660
v -0.75981700 0.15292900 0.06908730
v -0.87820800 0.15292900 0.08883180
v -0.86831800 0.15784700 0.09867900
v -0.84858600 0.13813700 0.31576800
v -0.86831800 0.15784700 0.29602400
v -0.87492800 0.15127700 0.30918700
v -0.43421600 -0.17759700 0.25656000
v -0.40787500 -0.17102600 0.24339700
v -0.39523500 -0.17734000 0.23706700
v -0.61180300 -0.19730700 0.05913970
v -0.74336600 -0.21048400 0.06579660
v -0.39523500 -0.19073700 0.23041000
v -0.42432600 -0.19238800 0.24668800
v -0.43421600 -0.19734400 0.23681500
v -0.73019500 -0.21705400 0.27627900
v -0.74992700 -0.21705400 0.07895960
v -0.67085400 0.13806400 0.05913970
v -0.76970700 0.06652630 0.05913970
v -0.78282900 0.05261520 0.05913970
v -0.78939100 0.03940150 0.05913970
v -0.86831800 0.13813700 0.07895960
v -0.86831800 0.15127700 0.08554110
v -0.88148900 0.14470700 0.08554110
v -0.88809800 0.13813700 0.09867900
v -0.88148900 0.15127700 0.09867900
v -0.88148900 0.15127700 0.29602400
v -0.86831800 0.13813700 0.31576800
v -0.84858600 -0.19734400 0.31576800
v -0.88312900 0.14801100 0.30589600
v -0.88148900 0.13813700 0.30918700
v -0.43421600 -0.19077300 0.24997800
v -0.42104500 -0.18416700 0.24997800
v -0.39523500 -0.17792700 0.23681500
v -0.74992700 -0.19734400 0.05921510
v -0.74997500 -0.15773900 0.05913970
v -0.86831800 -0.21705400 0.09867900
v -0.86175700 -0.21048400 0.08554110
v -0.72030500 -0.21213600 0.28615200
v -0.84858600 -0.21705400 0.29602400
v -0.78939100 0.01965440 0.05913970
v -0.86831800 -0.19734400 0.07895960
v -0.88148900 -0.19077300 0.08554110
v -0.88809800 -0.19734400 0.09867900
v -0.88809800 0.13813700 0.29602400
v -0.86831800 -0.19734400 0.31576800
v -0.84858600 -0.21048400 0.30918700
v -0.88148900 -0.19734400 0.30918700
v -0.73019500 -0.21048400 0.28944200
v -0.76570300 -0.13417500 0.05913970
v -0.75976900 -0.14797600 0.05913970
v -0.86831800 -0.21705400 0.29602400
v -0.88148900 -0.21048400 0.10526100
v -0.87820800 -0.20721700 0.08883180
v -0.83874500 -0.21213600 0.30589600
v -0.78934200 -0.00009273 0.05913970
v -0.76961000 -0.11846500 0.05913970
v -0.88809800 -0.19734400 0.29602400
v -0.87820800 -0.20721700 0.31082000
v -0.86831800 -0.21048400 0.30918700
v -0.88148900 -0.21048400 0.30260500
f 37 61 62
f 39 59 40
f 38 43 63
f 38 63 64
f 38 64 68
f 38 68 61
f 39 60 59
f 40 59 58
f 47 68 48
f 40 65 41
f 41 65 42
f 42 65 66
f 47 67 68
f 48 68 69
f 48 69 50
f 50 69 70
f 37 38 61
f 40 58 65
f 36 59 60
f 29 50 51
f 34 55 58
f 26 49 27
f 26 44 45
f 27 49 29
f 27 29 28
f 29 49 48
f 29 48 50
f 50 70 51
f 29 51 52
f 35 59 36
f 29 52 53
f 29 32 30
f 31 54 72
f 31 72 55
f 32 53 56
f 32 56 33
f 33 57 54
f 33 56 57
f 34 58 59
f 29 53 32
f 51 70 84
f 61 68 76
f 51 71 53
f 66 81 78
f 67 82 68
f 68 80 69
f 68 82 83
f 68 83 76
f 69 80 70
f 70 80 79
f 70 79 87
f 65 81 66
f 70 87 84
f 72 74 85
f 73 86 81
f 74 84 85
f 78 86 85
f 78 85 87
f 78 81 86
f 84 87 85
f 26 48 49
f 72 85 86
f 51 84 71
f 65 73 81
f 64 80 68
f 51 53 52
f 53 71 56
f 54 57 74
f 54 74 72
f 55 72 86
f 55 86 73
f 55 73 58
f 56 71 57
f 65 75 73
f 57 71 84
f 58 73 75
f 58 75 65
f 61 76 77
f 61 77 62
f 63 78 87
f 63 87 79
f 63 79 80
f 63 80 64
f 57 84 74
f 26 47 48
f 14 31 18
f 26 45 46
f 5 21 37
f 5 37 62
f 5 62 77
f 5 77 76
f 5 76 83
f 5 83 82
f 5 82 67
f 5 67 47
f 5 47 46
f 5 46 45
f 5 45 44
f 5 44 25
f 5 25 12
f 5 12 6
f 7 8 13
f 7 13 14
f 7 14 10
f 5 11 21
f 4 10 9
f 4 7 10
f 3 8 7
f 1 2 6
f 1 6 12
f 1 12 30
f 1 30 32
f 1 32 15
f 1 15 8
f 1 8 3
f 1 3 4
f 8 15 16
f 1 4 9
f 1 20 36
f 1 36 60
f 1 60 39
f 1 22 11
f 1 11 5
f 1 5 2
f 2 5 6
f 3 7 4
f 1 9 20
f 8 16 17
f 1 39 22
f 9 18 19
f 18 59 35
f 18 35 19
f 18 31 55
f 18 55 34
f 19 35 36
f 19 36 20
f 21 38 37
f 22 39 40
f 22 40 41
f 22 41 42
f 23 66 78
f 23 78 63
f 23 63 43
f 23 43 38
f 23 38 24
f 25 44 26
f 8 17 13
f 18 34 59
f 16 31 17
f 23 42 66
f 16 33 54
f 9 19 20
f 16 54 31
f 9 10 18
f 10 14 18
f 11 22 42
f 11 23 24
f 11 24 38
f 11 38 21
f 12 25 26
f 11 42 23
f 12 27 28
f 12 28 29
f 12 29 30
f 15 33 16
f 13 17 14
f 14 17 31
f 26 46 47
f 12 26 27
f 15 32 33

