# https://github.com/mikedh/trimesh
v 0.04029740 -0.21709100 -0.23225500
v 0.04029740 -0.21709100 -0.17762200
v 0.04029740 -0.19735600 -0.23225500
v 0.88804800 -0.21709100 -0.23225500
v 0.04029740 -0.21051200 -0.16446600
v 0.88804800 -0.21709100 -0.17762200
v 0.04029740 -0.19347400 -0.18959800
v 0.87607400 -0.19347400 -0.23225500
v 0.89110500 -0.21556700 -0.23225500
v 0.04029740 -0.20995900 -0.16418900
v 0.88804800 -0.21051200 -0.16446600
v 0.90121000 -0.21051200 -0.17762200
v 0.89789800 -0.21215500 -0.16775700
v 0.04029740 -0.19347400 -0.15788400
v 0.90783400 -0.19347400 -0.23225500
v 0.90121000 -0.21051200 -0.23225500
v 0.04029740 -0.19735600 -0.15788400
v 0.88804800 -0.19735600 -0.15788400
v 0.90121000 -0.20393500 -0.16446600
v 0.90783400 -0.19735600 -0.17762200
v 0.88804800 -0.19347400 -0.15788400
v 0.90783400 -0.19347400 -0.17762200
v 0.90783400 -0.19735600 -0.23225500
v 0.89195400 -0.19347400 -0.15982800
v 0.90588100 -0.19347400 -0.17374100
v 0.90121000 -0.19347400 -0.16446600
f 11 19 18
f 11 13 19
f 10 18 17
f 10 11 18
f 7 15 8
f 7 22 15
f 12 19 13
f 7 25 22
f 9 16 12
f 12 16 23
f 19 20 25
f 14 17 18
f 14 18 21
f 15 22 20
f 15 20 23
f 18 19 24
f 18 24 21
f 19 25 26
f 19 26 24
f 20 22 25
f 7 26 25
f 12 20 19
f 7 24 26
f 12 23 20
f 7 14 21
f 7 21 24
f 1 2 5
f 1 5 10
f 1 10 17
f 1 17 14
f 1 14 7
f 1 3 8
f 1 8 15
f 1 15 23
f 1 23 16
f 1 16 9
f 1 7 3
f 1 9 4
f 1 4 6
f 1 6 2
f 2 6 11
f 2 11 5
f 6 13 11
f 3 7 8
f 4 9 6
f 5 11 10
f 6 9 12
f 6 12 13

