# https://github.com/mikedh/trimesh
v 0.04035870 0.19735500 -0.23225500
v 0.04035870 0.17753800 -0.17762200
v 0.04035870 0.21709100 -0.23225500
v 0.66700400 0.19735500 -0.23225500
v 0.04035870 0.17753800 -0.15788400
v 0.66694300 0.17753800 -0.17762200
v 0.04035870 0.21709100 -0.17762200
v 0.66700400 0.21709100 -0.23225500
v 0.66700400 0.17762300 -0.17762200
v 0.04035870 0.19735500 -0.15788400
v 0.66700400 0.17753800 -0.15788400
v 0.66700400 0.17753800 -0.15832100
v 0.04035870 0.21051200 -0.16446600
v 0.66700400 0.21709100 -0.17762200
v 0.66700400 0.19735500 -0.15788400
v 0.66700400 0.21051200 -0.16446600
f 4 15 11
f 4 11 12
f 4 12 9
f 4 9 6
f 5 11 15
f 10 15 16
f 6 9 12
f 7 13 16
f 7 16 14
f 10 16 13
f 4 14 16
f 5 15 10
f 4 8 14
f 4 16 15
f 3 7 14
f 1 2 5
f 1 5 10
f 1 10 13
f 3 14 8
f 1 7 3
f 1 3 8
f 1 13 7
f 1 4 6
f 1 6 2
f 2 6 12
f 2 12 11
f 2 11 5
f 1 8 4

