# https://github.com/mikedh/trimesh
v 0.04029740 0.21709100 -0.17762600
v 0.04029740 0.21050300 -0.16446700
v 0.04029740 0.21709100 -0.23682100
v -0.88806600 0.21709100 -0.17762600
v 0.04029740 0.19817800 -0.15829900
v -0.89465500 0.21050300 -0.16446700
v 0.04029740 0.21611300 -0.23775100
v 0.04020460 0.21709100 -0.23775100
v -0.88806600 0.21709100 -0.23775100
v -0.90124500 0.21050300 -0.17762600
v 0.04029740 0.19732800 -0.15788400
v -0.88806600 0.19732800 -0.15788400
v -0.90282200 0.20718800 -0.16775900
v -0.90124500 0.19732800 -0.16446700
v 0.04029740 -0.21709100 -0.23775100
v -0.90124500 0.21050300 -0.23775100
v -0.90783400 0.19732800 -0.17762600
v 0.04029740 -0.19732800 -0.15788400
v -0.88806600 -0.19732800 -0.15788400
v -0.90124500 -0.19732800 -0.16446700
v 0.04029740 -0.21709100 -0.17762600
v -0.88806600 -0.21709100 -0.23775100
v -0.90783400 0.19732800 -0.23775100
v -0.90783400 -0.19732800 -0.17762600
v 0.04029740 -0.21050300 -0.16446700
v -0.89790400 -0.20718800 -0.16282600
v -0.88806600 -0.21050300 -0.16446700
v -0.90124500 -0.21050300 -0.17104300
v -0.88806600 -0.21709100 -0.17762600
v -0.90124500 -0.21050300 -0.23775100
v -0.90783400 -0.19732800 -0.23775100
f 17 23 31
f 15 29 22
f 15 21 29
f 14 24 20
f 14 17 24
f 13 17 14
f 11 19 18
f 12 14 20
f 11 12 19
f 27 28 29
f 10 23 17
f 12 20 19
f 17 31 24
f 26 28 27
f 18 27 25
f 19 20 26
f 19 26 27
f 20 28 26
f 20 24 28
f 21 25 27
f 21 27 29
f 22 29 28
f 22 28 30
f 24 31 30
f 24 30 28
f 10 16 23
f 18 19 27
f 7 9 8
f 10 17 13
f 7 23 16
f 7 16 9
f 1 2 5
f 1 5 11
f 1 11 18
f 1 18 25
f 1 25 21
f 1 21 15
f 1 15 7
f 1 3 8
f 1 8 9
f 1 9 4
f 1 4 6
f 1 6 2
f 1 7 3
f 3 7 8
f 7 31 23
f 2 6 5
f 7 30 31
f 7 22 30
f 7 15 22
f 6 13 14
f 6 14 12
f 5 12 11
f 5 6 12
f 4 10 6
f 4 16 10
f 4 9 16
f 6 10 13

