# https://github.com/mikedh/trimesh
v 0.13738300 0.17758300 0.13813000
v 0.13738300 0.17688600 0.13955100
v 0.13738300 0.17758300 -0.03945550
v 0.07893280 0.17758300 0.15788100
v 0.13738300 0.17101300 0.15129700
v 0.13738300 0.17736300 -0.03991950
v 0.03946230 0.17758300 -0.03945550
v 0.07236310 0.17101300 0.17101900
v -0.03947870 0.17758300 0.17760300
v -0.04610060 0.17101300 0.19077100
v 0.13738300 0.15787300 0.15788100
v 0.07893280 0.15787300 0.17760300
v 0.13738300 0.17101300 -0.05262290
v 0.03946230 0.17101300 -0.05262290
v 0.02955560 0.17266500 -0.04931650
v -0.09871050 0.17758300 -0.01973340
v -0.03947870 0.15787300 0.19735400
v -0.17759900 0.17758300 0.19735400
v -0.32234200 0.17101300 0.23024400
v 0.09864200 -0.15786100 0.17760300
v 0.13738300 -0.13884800 0.15822900
v 0.13738300 0.15787300 -0.05920660
v 0.03946230 0.15787300 -0.05920660
v -0.39523500 0.07235070 -0.05262290
v -0.09871050 0.17101300 -0.03287180
v -0.10856500 0.17266500 -0.02959450
v -0.33548100 0.17758300 0.01973970
v -0.03947870 -0.15786100 0.19735400
v -0.31572000 0.15787300 0.23679800
v -0.31572000 0.17758300 0.21707600
v -0.36509700 0.17266500 0.22693700
v -0.36181200 0.17101300 0.23024400
v 0.09864200 -0.17103800 0.17101900
v 0.11183400 -0.16443100 0.17101900
v -0.17759900 -0.17760800 0.21707600
v 0.13738300 -0.15749400 0.15822900
v 0.13738300 -0.15786100 -0.05920660
v -0.39523500 0.05917370 -0.05920660
v -0.39523500 0.15130200 0.02632340
v -0.35519100 0.16033200 0.00494814
v -0.34533600 0.17266500 0.00987866
v -0.33548100 0.17101300 0.00660131
v -0.21707000 0.17101300 -0.01314980
v -0.39523500 0.15787300 0.03949070
v -0.33548100 0.17758300 0.21707600
v -0.35519100 0.15787300 0.23679800
v -0.39523500 -0.13866400 0.23708800
v -0.31572000 -0.17760800 0.23679800
v -0.39523500 0.15787300 0.21707600
v -0.39523500 0.15295400 0.23065000
v -0.39523500 0.13812500 0.23679800
v 0.10849700 -0.17265300 0.16774200
v -0.17759900 -0.19074800 0.21049300
v -0.16774500 -0.19240000 0.20721500
v 0.13738300 -0.17100100 0.15152900
v 0.13738300 -0.15830100 0.15788100
v -0.31572000 -0.19074800 0.23024400
v 0.13738300 -0.17103800 -0.05262290
v 0.03946230 -0.15786100 -0.05920660
v -0.39523500 -0.09917020 -0.05920660
v -0.39523500 -0.17735100 0.23708800
v -0.39523500 -0.17793800 0.23679800
v -0.39523500 -0.19074800 0.23041800
v -0.08885590 -0.19240000 0.18746400
v 0.09864200 -0.17760800 0.15788100
v 0.13738300 -0.17760800 0.13813000
v -0.30586600 -0.19240000 0.22693700
v -0.17759900 -0.19731900 0.19735400
v 0.13738300 -0.17760800 -0.03945550
v -0.09214080 -0.19074800 -0.01314980
v 0.04603200 -0.17103800 -0.05262290
v -0.39523500 -0.12089900 -0.05395700
v -0.39523500 -0.11840300 -0.05491410
v -0.39523500 -0.19731900 0.21707600
v -0.31572000 -0.19731900 0.21707600
v -0.09871050 -0.19731900 0.17760300
v -0.09871050 -0.19731900 0.00001763
v -0.21050000 -0.19074800 -0.01314980
v -0.34862100 -0.19074800 0.00660131
v -0.39523500 -0.12236800 -0.05227480
v -0.39523500 -0.19731900 0.03949070
v -0.21707000 -0.19731900 0.00001763
v -0.35519100 -0.19731900 0.01973970
v -0.39523500 -0.19074800 0.02632340
v -0.39523500 -0.19706200 0.03896870
f 33 35 53
f 33 52 34
f 34 56 36
f 33 53 54
f 33 54 52
f 34 52 55
f 34 55 56
f 35 48 57
f 24 50 49
f 37 58 71
f 37 71 59
f 39 44 41
f 39 41 40
f 41 43 42
f 46 51 47
f 32 51 46
f 48 61 62
f 35 57 53
f 32 50 51
f 24 49 44
f 31 49 50
f 48 62 63
f 24 44 39
f 24 39 40
f 24 40 41
f 24 41 42
f 24 42 43
f 24 43 25
f 25 43 26
f 26 43 41
f 27 41 44
f 27 44 31
f 27 31 45
f 29 46 47
f 29 47 61
f 29 61 48
f 30 45 31
f 31 44 49
f 31 50 32
f 48 63 57
f 79 84 80
f 52 64 65
f 68 74 81
f 68 81 83
f 68 83 82
f 68 82 77
f 68 77 76
f 69 77 70
f 70 77 82
f 70 82 78
f 71 78 72
f 72 78 79
f 72 79 80
f 78 82 83
f 78 83 79
f 79 83 84
f 81 85 83
f 83 85 84
f 24 51 50
f 68 75 74
f 52 54 64
f 66 77 69
f 65 76 66
f 52 65 66
f 52 66 55
f 53 57 54
f 54 57 67
f 54 67 75
f 54 75 68
f 54 76 64
f 57 63 67
f 58 69 70
f 58 70 78
f 58 78 71
f 59 71 72
f 59 72 73
f 59 73 60
f 63 74 75
f 63 75 67
f 64 76 65
f 66 76 77
f 24 47 51
f 54 68 76
f 24 62 61
f 1 9 4
f 1 4 2
f 2 4 5
f 3 6 7
f 4 8 5
f 4 9 10
f 4 10 8
f 5 8 12
f 5 12 11
f 6 13 14
f 6 14 15
f 6 15 7
f 7 15 16
f 8 10 17
f 8 17 12
f 9 18 10
f 10 18 19
f 1 18 9
f 10 19 17
f 1 30 18
f 1 27 45
f 24 61 47
f 1 5 11
f 1 11 21
f 1 21 36
f 1 36 56
f 1 56 55
f 1 55 66
f 1 66 69
f 1 69 58
f 1 58 37
f 1 37 22
f 1 22 13
f 1 13 6
f 1 6 3
f 1 3 7
f 1 7 16
f 1 16 27
f 1 45 30
f 11 20 21
f 1 2 5
f 12 17 20
f 20 28 35
f 20 35 33
f 21 34 36
f 22 37 59
f 22 59 60
f 22 60 38
f 22 38 23
f 23 38 24
f 24 38 60
f 24 60 73
f 24 72 80
f 24 80 84
f 24 84 85
f 24 85 81
f 24 81 74
f 24 74 63
f 11 12 20
f 20 34 21
f 20 33 34
f 24 73 72
f 19 32 46
f 19 46 29
f 13 22 23
f 13 23 14
f 14 23 24
f 14 24 25
f 14 26 15
f 15 26 16
f 24 63 62
f 16 26 41
f 14 25 26
f 17 28 20
f 17 19 29
f 17 29 48
f 17 48 35
f 17 35 28
f 18 30 19
f 16 41 27
f 19 30 31
f 19 31 32

