# https://github.com/mikedh/trimesh
v 0.90783400 -0.01069620 -0.15005400
v 0.90783400 -0.13813600 -0.15005400
v 0.90783400 -0.01069620 -0.23226300
v 0.69483500 -0.01069620 -0.15005400
v 0.90485300 -0.15153700 -0.15005400
v 0.90783400 -0.19347400 -0.17762400
v 0.90783400 -0.19347400 -0.23226300
v 0.88807800 -0.01069620 -0.23226300
v 0.69697100 -0.01069620 -0.15113300
v 0.68057500 -0.11840200 -0.17762400
v 0.68057500 -0.11203300 -0.17444500
v 0.68057500 -0.10525200 -0.17104900
v 0.68057500 -0.09850710 -0.16468400
v 0.68057500 -0.09510770 -0.15788400
v 0.68057500 -0.09412370 -0.15005400
v 0.90222800 -0.15676100 -0.15005400
v 0.90124900 -0.19347400 -0.16446700
v 0.87610900 -0.19347400 -0.23226300
v 0.68057500 -0.19347400 -0.18959700
v 0.74996500 -0.01069620 -0.17762400
v 0.73679400 -0.01069620 -0.17104900
v 0.68057500 -0.12296500 -0.15005400
v 0.88934600 -0.16320200 -0.15005400
v 0.88807800 -0.19347400 -0.15788400
v 0.68057500 -0.19347400 -0.15788400
v 0.68057500 -0.12817100 -0.15010300
v 0.68088600 -0.12827800 -0.15005400
v 0.88807800 -0.16382800 -0.15005400
v 0.71049800 -0.16382800 -0.15005400
v 0.69085300 -0.15778100 -0.15005400
v 0.69027500 -0.15688700 -0.15005400
v 0.68057500 -0.16806900 -0.15431100
v 0.68417900 -0.13938900 -0.15005400
f 10 22 15
f 10 26 22
f 10 32 26
f 10 25 32
f 10 19 25
f 6 25 19
f 31 33 32
f 8 19 10
f 8 18 19
f 6 18 7
f 6 19 18
f 10 15 14
f 9 21 10
f 10 14 13
f 23 28 24
f 10 12 11
f 10 21 20
f 16 23 24
f 16 24 17
f 22 26 27
f 24 28 29
f 24 29 25
f 25 29 30
f 25 30 31
f 25 31 32
f 26 32 33
f 26 33 27
f 6 24 25
f 10 13 12
f 6 17 24
f 8 10 20
f 5 16 17
f 5 17 6
f 1 2 6
f 1 6 7
f 1 7 3
f 1 8 20
f 1 20 21
f 1 21 9
f 1 9 4
f 1 4 15
f 1 15 22
f 1 22 27
f 1 27 33
f 1 33 31
f 1 31 30
f 1 3 8
f 1 29 28
f 1 30 29
f 4 14 15
f 4 13 14
f 4 11 12
f 4 10 11
f 4 9 10
f 4 12 13
f 3 7 18
f 2 5 6
f 1 5 2
f 1 16 5
f 1 23 16
f 3 18 8
f 1 28 23

