# https://github.com/mikedh/trimesh
v 0.88808400 0.21709100 -0.15005400
v 0.89590900 0.21316600 -0.15005400
v 0.88808400 0.21709100 -0.23226300
v 0.76970300 0.21709100 -0.15788400
v 0.76579100 0.21316600 -0.15005400
v 0.90123500 0.21049100 -0.15005400
v 0.90123500 0.21049100 -0.23226300
v 0.66708900 0.21709100 -0.23226300
v 0.66708900 0.21709100 -0.17762400
v 0.66708900 0.21314400 -0.16973700
v 0.66708900 0.21049100 -0.16446700
v 0.71644000 0.20328900 -0.15005400
v 0.90389800 0.20518400 -0.15005400
v 0.90554800 0.20190600 -0.23226300
v 0.66708900 0.19733600 -0.23226300
v 0.66708900 0.20522900 -0.16182700
v 0.69273100 0.19588600 -0.15005400
v 0.69659600 0.19733600 -0.15005400
v 0.90783400 0.19733600 -0.15005400
v 0.90783400 0.19733600 -0.23226300
v 0.74995300 -0.01069620 -0.17762400
v 0.73187700 -0.01069620 -0.16858700
v 0.69732600 -0.01069620 -0.15131000
v 0.69697300 -0.01069620 -0.15113300
v 0.69482800 -0.01069620 -0.15005400
v 0.66708900 0.10524900 -0.17104900
v 0.88808400 -0.01069620 -0.23226300
v 0.66708900 0.19733600 -0.15788400
v 0.68481200 0.17878400 -0.15005400
v 0.90783400 -0.01069620 -0.15005400
v 0.90783400 -0.01069620 -0.23226300
v 0.66711200 0.09476900 -0.15005400
v 0.66708900 0.09479130 -0.15007100
v 0.66708900 0.12498200 -0.15005400
v 0.66708900 0.09490280 -0.15005400
f 15 22 23
f 11 18 12
f 15 21 22
f 14 19 20
f 13 19 14
f 11 17 18
f 8 28 16
f 8 10 9
f 8 11 10
f 8 16 11
f 8 34 28
f 8 35 34
f 15 23 24
f 11 16 17
f 15 24 25
f 25 32 33
f 15 27 21
f 16 28 17
f 17 28 29
f 19 30 31
f 19 31 20
f 21 27 31
f 21 31 30
f 21 30 25
f 21 25 24
f 21 24 23
f 21 23 22
f 32 35 33
f 28 34 29
f 8 33 35
f 15 25 26
f 8 26 33
f 25 33 26
f 6 14 7
f 8 15 26
f 1 2 3
f 1 3 8
f 1 8 9
f 1 9 4
f 1 5 12
f 1 12 18
f 1 18 17
f 1 17 29
f 1 29 34
f 1 34 35
f 1 35 32
f 1 32 25
f 1 25 30
f 1 30 19
f 1 4 5
f 1 13 6
f 1 19 13
f 6 13 14
f 5 11 12
f 5 10 11
f 4 9 5
f 3 15 8
f 3 27 15
f 5 9 10
f 3 20 31
f 3 14 20
f 3 7 14
f 2 7 3
f 2 6 7
f 3 31 27
f 1 6 2

