# https://github.com/mikedh/trimesh
v 0.57978000 -0.11675500 0.34429000
v 0.57978000 -0.11675500 0.37101000
v 0.57978000 -0.11609200 0.32912400
v 0.66782200 -0.10386400 0.35618100
v 0.57978000 -0.11428600 0.38585200
v 0.66782200 -0.10386400 0.37101000
v 0.57978000 -0.10091500 0.32847100
v 0.66782200 -0.08902910 0.34133900
v 0.67276800 -0.09892630 0.34628400
v 0.67895200 -0.09645770 0.34876000
v 0.67771300 -0.09892630 0.35618100
v 0.67524600 -0.10016100 0.37843100
v 0.57978000 -0.10338300 0.39675300
v 0.57978000 0.08902910 0.32847100
v 0.67771300 -0.08902910 0.34628400
v 0.66782200 0.08902910 0.34133900
v 0.67524600 0.09645770 0.34504600
v 0.68266900 -0.08902910 0.35618100
v 0.68266900 -0.08902910 0.37101000
v 0.67771300 -0.09892630 0.37101000
v 0.67771300 -0.09398920 0.38090700
v 0.66782200 -0.09892630 0.38090700
v 0.66782200 -0.08902910 0.38585200
v 0.57978000 -0.08804630 0.39872700
v 0.57978000 0.10386400 0.33093300
v 0.67771300 0.08902910 0.34628400
v 0.57978000 0.11476600 0.34182700
v 0.66782200 0.09892630 0.34628400
v 0.66782200 0.10386400 0.35618100
v 0.67771300 0.09892630 0.35122900
v 0.68266900 0.08902910 0.35618100
v 0.68266900 0.08902910 0.37101000
v 0.67771300 0.08409200 0.38090700
v 0.66782200 0.08902910 0.38585200
v 0.57978000 0.10189800 0.39872700
v 0.57978000 0.11675500 0.35716500
v 0.66782200 0.10386400 0.37101000
v 0.67771300 0.09892630 0.36606500
v 0.67524600 0.09645770 0.37843100
v 0.66287700 0.09892630 0.38090700
v 0.57978000 0.11378400 0.39577000
v 0.57978000 0.11675500 0.38388500
f 17 31 26
f 19 33 21
f 19 32 33
f 21 33 34
f 18 32 19
f 18 31 32
f 21 23 22
f 17 30 31
f 15 26 31
f 17 28 29
f 17 27 28
f 17 25 27
f 16 25 17
f 15 31 18
f 15 17 26
f 21 34 23
f 14 25 16
f 17 29 30
f 23 34 35
f 37 42 41
f 27 36 29
f 13 23 24
f 37 39 38
f 37 40 39
f 37 41 40
f 34 41 35
f 34 40 41
f 34 39 40
f 33 39 34
f 32 39 33
f 32 38 39
f 30 32 31
f 30 38 32
f 29 38 30
f 29 37 38
f 29 42 37
f 29 36 42
f 27 29 28
f 23 35 24
f 13 22 23
f 1 41 42
f 12 21 22
f 3 7 8
f 2 6 5
f 1 6 2
f 1 4 6
f 1 3 4
f 1 7 3
f 1 14 7
f 3 8 9
f 1 25 14
f 1 36 27
f 1 42 36
f 1 35 41
f 1 13 24
f 1 5 13
f 1 2 5
f 12 22 13
f 1 27 25
f 3 9 4
f 1 24 35
f 4 10 11
f 4 9 10
f 12 20 19
f 11 20 12
f 10 19 20
f 10 18 19
f 10 15 18
f 9 15 10
f 8 17 15
f 10 20 11
f 8 15 9
f 4 11 12
f 8 16 17
f 4 12 6
f 5 6 12
f 12 19 21
f 5 12 13
f 7 14 16
f 7 16 8

