# https://github.com/mikedh/trimesh
v -0.66771600 -0.32643300 -0.62330600
v -0.66277300 -0.33632300 -0.61830300
v -0.67513100 -0.33385000 -0.61586300
v -0.67760200 -0.32148800 -0.61830300
v -0.66771600 0.32643300 -0.62330600
v 0.56382800 -0.32643300 -0.62330600
v -0.66771600 -0.34133400 -0.60841900
v 0.56877100 -0.33632300 -0.61830300
v -0.67760200 -0.33632300 -0.60341600
v -0.68266900 -0.32643300 -0.60841900
v -0.67760200 0.33137800 -0.61830300
v -0.67513100 0.33759200 -0.61586300
v -0.66771600 0.33632300 -0.61830300
v 0.56382800 0.32643300 -0.62330600
v 0.57371400 -0.32643300 -0.61830300
v 0.57507400 -0.33385000 -0.61586300
v -0.66771600 -0.34133400 0.60841900
v 0.56382800 -0.34133400 -0.60841900
v -0.67760200 -0.33632300 0.61330000
v -0.68266900 0.32643300 -0.60841900
v -0.68266900 -0.32643300 0.60841900
v -0.67760200 0.33632300 -0.60841900
v -0.67760200 0.33632300 0.60841900
v -0.66771600 0.34133400 0.60841900
v -0.66771600 0.34133400 -0.60841900
v 0.56382800 0.34133400 -0.60841900
v 0.56382800 0.33632300 -0.61830300
v 0.57124300 0.33385000 -0.61952400
v 0.57371400 0.32643300 -0.61830300
v 0.57371400 -0.33632300 0.60841900
v 0.57371400 -0.33632300 -0.60841900
v 0.57878100 0.32643300 -0.60841900
v 0.57878100 -0.32643300 -0.60841900
v 0.57878100 -0.32643300 0.60841900
v -0.66771600 -0.33632300 0.61830300
v -0.67513100 -0.33385000 0.61952400
v 0.56382800 -0.34133400 0.60841900
v 0.57124300 -0.33759200 0.61586300
v -0.68266900 0.32643300 0.60841900
v -0.67760200 -0.32643300 0.61830300
v -0.67883800 0.33385000 0.61586300
v -0.67265900 0.33632300 0.61830300
v 0.56382800 0.34133400 0.60841900
v 0.57371400 0.33632300 -0.61330000
v 0.57878100 0.32643300 0.60841900
v 0.57977000 0.11674100 -0.16217200
v 0.57977000 0.11473600 -0.17754700
v 0.57977000 0.10384400 -0.18840700
v 0.57977000 0.08900890 -0.19084800
v 0.57977000 -0.10090400 -0.19084800
v 0.57977000 -0.11607200 -0.19023800
v 0.57977000 -0.11674100 -0.17510700
v 0.57371400 -0.33137800 0.61830300
v 0.57977000 -0.11674100 0.37095800
v 0.57977000 -0.11426800 0.38584500
v 0.57977000 -0.10337600 0.39670500
v 0.57977000 -0.08800660 0.39865700
v -0.66771600 -0.32643300 0.62330600
v 0.56382800 -0.33632300 0.61830300
v 0.56382800 -0.32643300 0.62330600
v -0.67760200 0.32643300 0.61830300
v -0.66771600 0.32643300 0.62330600
v 0.55888500 0.33632300 0.61830300
v 0.57124300 0.33385000 0.61586300
v 0.57371400 0.33632300 0.60341600
v 0.57977000 0.10190600 0.39865700
v 0.57977000 0.11373400 0.39572900
v 0.57977000 0.11674100 0.38377000
v 0.57371400 0.32148800 0.61830300
v 0.56382800 0.32643300 0.62330600
f 1 2 3
f 35 59 60
f 35 38 59
f 35 58 36
f 34 69 53
f 34 45 69
f 34 66 45
f 34 57 66
f 34 56 57
f 34 55 56
f 34 54 55
f 34 53 38
f 33 54 34
f 33 52 54
f 33 50 51
f 35 60 58
f 32 50 33
f 32 48 49
f 32 47 48
f 32 46 47
f 32 68 46
f 32 45 68
f 32 65 45
f 32 44 65
f 30 34 38
f 30 38 31
f 28 32 29
f 28 44 32
f 26 28 27
f 26 44 28
f 26 65 44
f 32 49 50
f 36 58 40
f 38 53 60
f 38 60 59
f 64 70 69
f 63 70 64
f 58 70 62
f 58 60 70
f 53 70 60
f 53 69 70
f 46 48 47
f 46 49 48
f 46 50 49
f 46 51 50
f 46 52 51
f 46 54 52
f 46 55 54
f 46 56 55
f 46 57 56
f 46 66 57
f 46 67 66
f 39 61 41
f 40 58 62
f 40 62 61
f 41 61 62
f 41 62 42
f 42 62 70
f 26 43 65
f 42 70 63
f 43 64 65
f 45 66 67
f 45 67 68
f 45 65 64
f 45 64 69
f 46 68 67
f 43 63 64
f 24 26 25
f 33 51 52
f 24 63 43
f 10 21 39
f 9 21 10
f 9 19 21
f 8 16 18
f 7 37 17
f 7 18 37
f 7 19 9
f 7 17 19
f 6 16 8
f 6 15 16
f 6 29 15
f 6 14 29
f 5 27 14
f 5 13 27
f 5 12 13
f 5 11 12
f 4 20 11
f 1 3 4
f 1 4 11
f 1 11 5
f 1 5 14
f 1 14 6
f 1 6 8
f 10 39 20
f 1 8 2
f 2 8 18
f 2 18 7
f 3 7 9
f 3 9 10
f 3 10 4
f 24 43 26
f 2 7 3
f 11 20 12
f 4 10 20
f 12 22 23
f 12 20 22
f 24 42 63
f 24 41 42
f 23 41 24
f 23 39 41
f 21 61 39
f 21 40 61
f 20 23 22
f 20 39 23
f 19 36 21
f 18 38 37
f 18 31 38
f 17 38 35
f 17 37 38
f 17 36 19
f 21 36 40
f 16 34 30
f 12 23 24
f 17 35 36
f 12 24 25
f 12 25 26
f 12 26 27
f 14 27 28
f 14 28 29
f 12 27 13
f 15 29 16
f 16 30 31
f 16 31 18
f 16 29 32
f 16 32 33
f 16 33 34

