# https://github.com/mikedh/trimesh
v 0.57978000 -0.11675500 -0.17512800
v 0.57978000 -0.11675500 -0.16324700
v 0.57978000 -0.11609200 -0.19029600
v 0.66782200 -0.10386400 -0.16324700
v 0.57978000 -0.11428600 -0.14840900
v 0.57978000 -0.10091500 -0.19095800
v 0.66782200 -0.08902910 -0.17808400
v 0.67276800 -0.09892630 -0.17313700
v 0.67895200 -0.09645770 -0.17066300
v 0.67771300 -0.09892630 -0.16324700
v 0.67524600 -0.10016100 -0.15583100
v 0.57978000 -0.10338300 -0.13751000
v 0.57978000 0.08902910 -0.19095800
v 0.67771300 -0.08902910 -0.17313700
v 0.66782200 0.08902910 -0.17808400
v 0.67524600 0.09645770 -0.17437400
v 0.68266900 -0.08902910 -0.16324700
v 0.67771300 -0.09398920 -0.15335700
v 0.66782200 -0.09892630 -0.15335700
v 0.66782200 -0.08902910 -0.14840900
v 0.57978000 -0.08804630 -0.13554100
v 0.57978000 0.10386400 -0.18849500
v 0.67771300 0.08902910 -0.17313700
v 0.57978000 0.11476600 -0.17759100
v 0.66782200 0.09892630 -0.17313700
v 0.66782200 0.10386400 -0.16324700
v 0.67771300 0.09892630 -0.16818900
v 0.68266900 0.08902910 -0.16324700
v 0.67771300 0.08409200 -0.15335700
v 0.66782200 0.08902910 -0.14840900
v 0.57978000 0.10189800 -0.13554100
v 0.57978000 0.11675500 -0.16226500
v 0.57978000 0.11675500 -0.15037900
v 0.57978000 0.11378400 -0.13849200
v 0.66287700 0.09892630 -0.15335700
v 0.67524600 0.09645770 -0.15583100
f 17 29 18
f 17 28 29
f 16 28 23
f 16 27 28
f 16 26 27
f 16 25 26
f 16 24 25
f 16 22 24
f 15 22 16
f 14 28 17
f 14 16 23
f 13 22 15
f 12 19 20
f 12 20 21
f 14 23 28
f 26 33 34
f 18 29 30
f 30 36 35
f 11 19 12
f 29 36 30
f 28 36 29
f 27 36 28
f 26 36 27
f 18 20 19
f 26 35 36
f 26 32 33
f 24 26 25
f 24 32 26
f 20 31 21
f 20 30 31
f 18 30 20
f 26 34 35
f 11 18 19
f 2 4 5
f 10 17 11
f 30 35 34
f 1 2 5
f 1 5 12
f 1 12 21
f 1 21 31
f 1 31 34
f 1 34 33
f 1 33 32
f 1 32 24
f 1 24 22
f 1 22 13
f 1 13 6
f 1 6 3
f 1 3 4
f 1 4 2
f 3 6 7
f 3 7 8
f 9 17 10
f 9 14 17
f 7 16 14
f 7 15 16
f 7 9 8
f 7 14 9
f 11 17 18
f 6 15 7
f 5 11 12
f 4 11 5
f 4 10 11
f 4 9 10
f 4 8 9
f 3 8 4
f 6 13 15
f 30 34 31

