o convex_0
v -0.667716 -0.326433 -0.623306
v -0.662773 -0.336323 -0.618303
v -0.675131 -0.33385 -0.615863
v -0.677602 -0.321488 -0.618303
v -0.667716 0.326433 -0.623306
v 0.563828 -0.326433 -0.623306
v -0.667716 -0.341334 -0.608419
v 0.568771 -0.336323 -0.618303
v -0.677602 -0.336323 -0.603416
v -0.682669 -0.326433 -0.608419
v -0.677602 0.331378 -0.618303
v -0.675131 0.337592 -0.615863
v -0.667716 0.336323 -0.618303
v 0.563828 0.326433 -0.623306
v 0.573714 -0.326433 -0.618303
v 0.575074 -0.33385 -0.615863
v -0.667716 -0.341334 0.608419
v 0.563828 -0.341334 -0.608419
v -0.677602 -0.336323 0.6133
v -0.682669 0.326433 -0.608419
v -0.682669 -0.326433 0.608419
v -0.677602 0.336323 -0.608419
v -0.677602 0.336323 0.608419
v -0.667716 0.341334 0.608419
v -0.667716 0.341334 -0.608419
v 0.563828 0.341334 -0.608419
v 0.563828 0.336323 -0.618303
v 0.571243 0.33385 -0.619524
v 0.573714 0.326433 -0.618303
v 0.573714 -0.336323 0.608419
v 0.573714 -0.336323 -0.608419
v 0.578781 0.326433 -0.608419
v 0.578781 -0.326433 -0.608419
v 0.578781 -0.326433 0.608419
v -0.667716 -0.336323 0.618303
v -0.675131 -0.33385 0.619524
v 0.563828 -0.341334 0.608419
v 0.571243 -0.337592 0.615863
v -0.682669 0.326433 0.608419
v -0.677602 -0.326433 0.618303
v -0.678838 0.33385 0.615863
v -0.672659 0.336323 0.618303
v 0.563828 0.341334 0.608419
v 0.573714 0.336323 -0.6133
v 0.578781 0.326433 0.608419
v 0.57977 0.116741 -0.162172
v 0.57977 0.114736 -0.177547
v 0.57977 0.103844 -0.188407
v 0.57977 0.0890089 -0.190848
v 0.57977 -0.100904 -0.190848
v 0.57977 -0.116072 -0.190238
v 0.57977 -0.116741 -0.175107
v 0.573714 -0.331378 0.618303
v 0.57977 -0.116741 0.370958
v 0.57977 -0.114268 0.385845
v 0.57977 -0.103376 0.396705
v 0.57977 -0.0880066 0.398657
v -0.667716 -0.326433 0.623306
v 0.563828 -0.336323 0.618303
v 0.563828 -0.326433 0.623306
v -0.677602 0.326433 0.618303
v -0.667716 0.326433 0.623306
v 0.558885 0.336323 0.618303
v 0.571243 0.33385 0.615863
v 0.573714 0.336323 0.603416
v 0.57977 0.101906 0.398657
v 0.57977 0.113734 0.395729
v 0.57977 0.116741 0.38377
v 0.573714 0.321488 0.618303
v 0.563828 0.326433 0.623306
f 1 2 3
f 1 3 4
f 1 4 11
f 1 11 5
f 1 5 14
f 1 14 6
f 1 6 8
f 1 8 2
f 2 7 3
f 2 8 18
f 2 18 7
f 3 7 9
f 3 9 10
f 3 10 4
f 4 10 20
f 4 20 11
f 5 11 12
f 5 12 13
f 5 13 27
f 5 27 14
f 6 14 29
f 6 29 15
f 6 15 16
f 6 16 8
f 7 17 19
f 7 19 9
f 7 18 37
f 7 37 17
f 8 16 18
f 9 19 21
f 9 21 10
f 10 21 39
f 10 39 20
f 11 20 12
f 12 20 22
f 12 22 23
f 12 23 24
f 12 24 25
f 12 25 26
f 12 26 27
f 12 27 13
f 14 27 28
f 14 28 29
f 15 29 16
f 16 30 31
f 16 31 18
f 16 29 32
f 16 32 33
f 16 33 34
f 16 34 30
f 17 35 36
f 17 36 19
f 17 37 38
f 17 38 35
f 18 31 38
f 18 38 37
f 19 36 21
f 20 39 23
f 20 23 22
f 21 36 40
f 21 40 61
f 21 61 39
f 23 39 41
f 23 41 24
f 24 41 42
f 24 42 63
f 24 63 43
f 24 43 26
f 24 26 25
f 26 43 65
f 26 65 44
f 26 44 28
f 26 28 27
f 28 44 32
f 28 32 29
f 30 38 31
f 30 34 38
f 32 44 65
f 32 65 45
f 32 45 68
f 32 68 46
f 32 46 47
f 32 47 48
f 32 48 49
f 32 49 50
f 32 50 33
f 33 50 51
f 33 51 52
f 33 52 54
f 33 54 34
f 34 53 38
f 34 54 55
f 34 55 56
f 34 56 57
f 34 57 66
f 34 66 45
f 34 45 69
f 34 69 53
f 35 58 36
f 35 38 59
f 35 59 60
f 35 60 58
f 36 58 40
f 38 53 60
f 38 60 59
f 39 61 41
f 40 58 62
f 40 62 61
f 41 61 62
f 41 62 42
f 42 62 70
f 42 70 63
f 43 63 64
f 43 64 65
f 45 66 67
f 45 67 68
f 45 65 64
f 45 64 69
f 46 68 67
f 46 67 66
f 46 66 57
f 46 57 56
f 46 56 55
f 46 55 54
f 46 54 52
f 46 52 51
f 46 51 50
f 46 50 49
f 46 49 48
f 46 48 47
f 53 69 70
f 53 70 60
f 58 60 70
f 58 70 62
f 63 70 64
f 64 70 69
o convex_1
v 0.57978 -0.116755 0.34429
v 0.57978 -0.116755 0.37101
v 0.57978 -0.116092 0.329124
v 0.667822 -0.103864 0.356181
v 0.57978 -0.114286 0.385852
v 0.667822 -0.103864 0.37101
v 0.57978 -0.100915 0.328471
v 0.667822 -0.0890291 0.341339
v 0.672768 -0.0989263 0.346284
v 0.678952 -0.0964577 0.34876
v 0.677713 -0.0989263 0.356181
v 0.675246 -0.100161 0.378431
v 0.57978 -0.103383 0.396753
v 0.57978 0.0890291 0.328471
v 0.677713 -0.0890291 0.346284
v 0.667822 0.0890291 0.341339
v 0.675246 0.0964577 0.345046
v 0.682669 -0.0890291 0.356181
v 0.682669 -0.0890291 0.37101
v 0.677713 -0.0989263 0.37101
v 0.677713 -0.0939892 0.380907
v 0.667822 -0.0989263 0.380907
v 0.667822 -0.0890291 0.385852
v 0.57978 -0.0880463 0.398727
v 0.57978 0.103864 0.330933
v 0.677713 0.0890291 0.346284
v 0.57978 0.114766 0.341827
v 0.667822 0.0989263 0.346284
v 0.667822 0.103864 0.356181
v 0.677713 0.0989263 0.351229
v 0.682669 0.0890291 0.356181
v 0.682669 0.0890291 0.37101
v 0.677713 0.084092 0.380907
v 0.667822 0.0890291 0.385852
v 0.57978 0.101898 0.398727
v 0.57978 0.116755 0.357165
v 0.667822 0.103864 0.37101
v 0.677713 0.0989263 0.366065
v 0.675246 0.0964577 0.378431
v 0.662877 0.0989263 0.380907
v 0.57978 0.113784 0.39577
v 0.57978 0.116755 0.383885
f 71 72 75
f 71 75 83
f 71 83 94
f 71 94 105
f 71 105 111
f 71 111 112
f 71 112 106
f 71 106 97
f 71 97 95
f 71 95 84
f 71 84 77
f 71 77 73
f 71 73 74
f 71 74 76
f 71 76 72
f 72 76 75
f 73 77 78
f 73 78 79
f 73 79 74
f 74 79 80
f 74 80 81
f 74 81 82
f 74 82 76
f 75 76 82
f 75 82 83
f 77 84 86
f 77 86 78
f 78 85 79
f 78 86 87
f 78 87 85
f 79 85 80
f 80 85 88
f 80 88 89
f 80 89 90
f 80 90 81
f 81 90 82
f 82 90 89
f 82 89 91
f 82 91 92
f 82 92 83
f 83 92 93
f 83 93 94
f 84 95 86
f 85 87 96
f 85 96 101
f 85 101 88
f 86 95 87
f 87 95 97
f 87 97 98
f 87 98 99
f 87 99 100
f 87 100 101
f 87 101 96
f 88 101 102
f 88 102 89
f 89 102 103
f 89 103 91
f 91 93 92
f 91 103 104
f 91 104 93
f 93 104 105
f 93 105 94
f 97 106 99
f 97 99 98
f 99 106 112
f 99 112 107
f 99 107 108
f 99 108 100
f 100 108 102
f 100 102 101
f 102 108 109
f 102 109 103
f 103 109 104
f 104 109 110
f 104 110 111
f 104 111 105
f 107 112 111
f 107 111 110
f 107 110 109
f 107 109 108
o convex_2
v 0.57978 -0.116755 -0.175128
v 0.57978 -0.116755 -0.163247
v 0.57978 -0.116092 -0.190296
v 0.667822 -0.103864 -0.163247
v 0.57978 -0.114286 -0.148409
v 0.57978 -0.100915 -0.190958
v 0.667822 -0.0890291 -0.178084
v 0.672768 -0.0989263 -0.173137
v 0.678952 -0.0964577 -0.170663
v 0.677713 -0.0989263 -0.163247
v 0.675246 -0.100161 -0.155831
v 0.57978 -0.103383 -0.13751
v 0.57978 0.0890291 -0.190958
v 0.677713 -0.0890291 -0.173137
v 0.667822 0.0890291 -0.178084
v 0.675246 0.0964577 -0.174374
v 0.682669 -0.0890291 -0.163247
v 0.677713 -0.0939892 -0.153357
v 0.667822 -0.0989263 -0.153357
v 0.667822 -0.0890291 -0.148409
v 0.57978 -0.0880463 -0.135541
v 0.57978 0.103864 -0.188495
v 0.677713 0.0890291 -0.173137
v 0.57978 0.114766 -0.177591
v 0.667822 0.0989263 -0.173137
v 0.667822 0.103864 -0.163247
v 0.677713 0.0989263 -0.168189
v 0.682669 0.0890291 -0.163247
v 0.677713 0.084092 -0.153357
v 0.667822 0.0890291 -0.148409
v 0.57978 0.101898 -0.135541
v 0.57978 0.116755 -0.162265
v 0.57978 0.116755 -0.150379
v 0.57978 0.113784 -0.138492
v 0.662877 0.0989263 -0.153357
v 0.675246 0.0964577 -0.155831
f 113 114 117
f 113 117 124
f 113 124 133
f 113 133 143
f 113 143 146
f 113 146 145
f 113 145 144
f 113 144 136
f 113 136 134
f 113 134 125
f 113 125 118
f 113 118 115
f 113 115 116
f 113 116 114
f 114 116 117
f 115 118 119
f 115 119 120
f 115 120 116
f 116 120 121
f 116 121 122
f 116 122 123
f 116 123 117
f 117 123 124
f 118 125 127
f 118 127 119
f 119 126 121
f 119 121 120
f 119 127 128
f 119 128 126
f 121 126 129
f 121 129 122
f 122 129 123
f 123 129 130
f 123 130 131
f 123 131 124
f 124 131 132
f 124 132 133
f 125 134 127
f 126 128 135
f 126 135 140
f 126 140 129
f 127 134 128
f 128 134 136
f 128 136 137
f 128 137 138
f 128 138 139
f 128 139 140
f 128 140 135
f 129 140 141
f 129 141 130
f 130 132 131
f 130 141 142
f 130 142 132
f 132 142 143
f 132 143 133
f 136 144 138
f 136 138 137
f 138 144 145
f 138 145 146
f 138 146 147
f 138 147 148
f 138 148 139
f 139 148 140
f 140 148 141
f 141 148 142
f 142 148 147
f 142 147 146
f 142 146 143
