# https://github.com/mikedh/trimesh
v -0.13674000 -0.81303900 -0.21956800
v -0.27078600 -0.81303900 0.00051437
v -0.35912500 -0.81303900 0.00051437
v -0.27953900 0.89849500 0.00053591
v -0.35913500 0.89898300 0.00053591
v -0.35940800 -0.81303900 -0.00000276
v -0.31280800 -0.81303900 -0.15307300
v -0.31448100 0.90841000 -0.14975200
v -0.35940800 0.89849500 -0.00002137
v -0.35274400 0.91182300 -0.00002137
v -0.35274400 0.90515900 -0.01332920
v -0.34942200 0.91344900 -0.00998555
v -0.30947700 0.91344900 -0.14975200
v -0.33949900 0.91832500 0.00053591
v -0.35244900 0.91182300 0.00053591
v -0.35282800 0.91149800 0.00053591
v -0.29949100 0.91832500 0.00053591
v -0.27953900 0.91832500 -0.17968900
v -0.28950500 0.91344900 -0.18967500
v -0.29284700 0.90515900 -0.19299700
v -0.21209600 0.91279800 -0.22719100
v -0.21588000 0.90759700 -0.22719100
v -0.22450000 0.89361900 -0.22719100
v -0.17971900 0.91832500 -0.22719100
v -0.20723900 0.91458600 -0.22719100
v -0.19969200 0.91832500 -0.21963500
v -0.17971900 0.91832500 -0.21963500
v -0.16222800 0.91588700 -0.22719100
v -0.28618300 0.91182300 0.00053591
v -0.16306900 0.91507400 -0.22295600
v -0.15024400 0.90792200 -0.22719100
v -0.15308200 0.90515900 -0.21296900
v -0.14465200 0.89361900 -0.22719100
v -0.22450000 -0.74185800 -0.22719100
v -0.29284300 -0.81303900 -0.19300000
v -0.22965600 -0.81303900 -0.21956800
v -0.27952600 -0.81303900 -0.19965800
v -0.14465200 -0.74185800 -0.22719100
f 32 1 33
f 32 4 1
f 5 4 17
f 29 17 4
f 29 4 32
f 30 29 32
f 28 17 29
f 30 31 28
f 30 28 29
f 27 17 28
f 27 28 24
f 27 24 17
f 18 17 24
f 26 18 24
f 30 32 31
f 31 32 33
f 7 35 3
f 28 33 24
f 26 19 18
f 38 33 1
f 38 1 34
f 37 36 35
f 37 35 34
f 37 34 36
f 36 34 1
f 36 1 35
f 35 1 3
f 7 8 35
f 8 20 35
f 23 35 20
f 23 34 35
f 23 24 34
f 34 24 33
f 31 33 28
f 25 21 19
f 12 10 14
f 25 26 24
f 12 13 8
f 12 8 11
f 11 8 9
f 11 9 10
f 10 9 5
f 6 5 9
f 12 14 13
f 6 9 8
f 6 7 3
f 6 3 5
f 5 3 4
f 4 3 2
f 2 3 1
f 38 34 33
f 6 8 7
f 12 11 10
f 15 14 10
f 15 16 14
f 25 24 21
f 21 24 23
f 22 21 23
f 22 23 20
f 22 20 21
f 21 20 19
f 19 20 8
f 13 19 8
f 13 18 19
f 13 14 18
f 14 17 18
f 14 5 17
f 16 5 14
f 16 10 5
f 15 10 16
f 25 19 26
f 4 2 1

