# https://github.com/mikedh/trimesh
v 0.31946900 0.91848700 0.00053592
v 0.29948500 0.91848700 0.00053592
v 0.33933300 0.91831800 0.00053592
v 0.33942400 0.91848700 -0.00002080
v 0.05193760 0.91848700 -0.28747400
v 0.05193760 0.91662500 -0.27952600
v 0.05193760 0.91188400 -0.26730900
v 0.28618200 0.91171400 0.00053592
v 0.35131200 0.91036000 0.00053592
v 0.27953100 0.91848700 -0.17968700
v 0.35272700 0.91171400 -0.00667053
v 0.29948500 0.91340800 -0.16221200
v 0.17972900 0.91848700 -0.27952600
v 0.14978300 0.91340800 -0.30946500
v 0.05193760 0.91544000 -0.30099000
v 0.05193760 0.91120600 -0.26672100
v 0.27953100 0.89850700 0.00053592
v 0.35886600 0.89901500 0.00053592
v 0.35940800 0.89850700 -0.00002080
v 0.29283400 0.91171400 -0.18633700
v 0.30947700 0.90849700 -0.15475800
v 0.19303200 0.91171400 -0.28617500
v 0.05193760 0.91340800 -0.30996000
v 0.18969100 0.90849700 -0.29449500
v 0.14978300 0.90849700 -0.31447500
v 0.05193760 0.89850700 -0.26353500
v 0.27321000 -0.81133900 0.00053592
v 0.35913700 0.89816800 0.00053592
v 0.31281800 0.89850700 -0.15308800
v 0.35940800 -0.81133900 -0.00002080
v 0.28952300 0.90849700 -0.19465700
v 0.05193760 0.90951300 -0.31193900
v 0.19303200 0.89850700 -0.29282500
v 0.17972900 0.89850700 -0.29950600
v 0.05193760 0.89850700 -0.31543400
v 0.17972900 -0.81133900 -0.29950600
v 0.15309300 -0.81133900 -0.31280500
v 0.05193760 -0.81133900 -0.31543400
v 0.05193760 -0.81133900 -0.25750400
v 0.35913700 -0.81133900 0.00053592
v 0.29283400 0.89850700 -0.19298700
v 0.31281800 -0.81133900 -0.15308800
v 0.29527100 -0.81133900 -0.18813100
v 0.19303200 -0.81133900 -0.29282500
v 0.18460500 -0.81133900 -0.29706200
v 0.29283400 -0.81133900 -0.19298700
f 25 36 37
f 25 34 36
f 21 29 31
f 25 35 32
f 24 34 25
f 24 33 34
f 24 31 33
f 23 25 32
f 22 31 24
f 19 40 30
f 20 21 31
f 19 42 29
f 19 30 42
f 19 28 40
f 19 29 21
f 18 28 19
f 25 37 38
f 17 26 27
f 20 31 22
f 25 38 35
f 29 41 31
f 27 39 38
f 41 43 46
f 14 25 23
f 34 45 36
f 33 45 34
f 33 44 45
f 33 46 44
f 33 41 46
f 31 41 33
f 29 43 41
f 29 42 43
f 27 30 40
f 27 42 30
f 27 43 42
f 27 46 43
f 27 44 46
f 27 45 44
f 27 36 45
f 27 37 36
f 27 38 37
f 26 39 27
f 14 24 25
f 16 26 17
f 14 23 15
f 4 11 12
f 4 9 11
f 3 9 4
f 2 7 8
f 2 6 7
f 2 5 6
f 1 5 2
f 1 13 5
f 1 10 13
f 1 4 10
f 1 3 4
f 1 18 9
f 1 28 18
f 1 40 28
f 1 27 40
f 1 17 27
f 1 8 17
f 1 2 8
f 14 22 24
f 4 12 10
f 5 13 14
f 1 9 3
f 5 15 23
f 13 22 14
f 5 14 15
f 12 21 20
f 11 21 12
f 11 19 21
f 10 20 22
f 10 12 20
f 9 19 11
f 9 18 19
f 10 22 13
f 7 16 8
f 5 7 6
f 5 16 7
f 5 26 16
f 5 39 26
f 5 38 39
f 5 35 38
f 5 23 32
f 8 16 17
f 5 32 35

