# https://github.com/mikedh/trimesh
v -0.05189890 0.89848300 0.31551200
v -0.05189890 0.90957800 0.31187400
v -0.15310000 0.89848300 0.31279800
v -0.05189890 -0.79884800 0.31551200
v -0.05189890 0.91344400 0.30999300
v -0.15475400 0.90840100 0.30946900
v -0.18636200 0.91176300 0.29285000
v -0.19303900 0.89848300 0.29285000
v -0.17983600 -0.79884800 0.29944800
v -0.15310000 -0.79884800 0.31279800
v -0.05189890 -0.79884800 0.26346800
v -0.05189890 0.91848700 0.28751700
v -0.17971600 0.91848700 0.27953100
v -0.14311500 0.91512500 0.29614900
v -0.16224200 0.91344400 0.29947900
v -0.28617900 0.91176300 0.19298700
v -0.19469300 0.90840100 0.28952100
v -0.27953300 0.91848700 0.17969800
v -0.29451000 0.90840100 0.18965700
v -0.29282600 0.89848300 0.19298700
v -0.19303900 -0.79884800 0.29285000
v -0.27944300 -0.79884800 0.00053591
v -0.05189890 0.90638400 0.26356000
v -0.05189890 0.91647000 0.27851400
v -0.29950200 0.91848700 0.00053591
v -0.30948700 0.91344400 0.14976100
v -0.33890000 0.91848700 0.00053591
v -0.31447900 0.90840100 0.14976100
v -0.29950200 0.89848300 0.17969800
v -0.29950200 -0.79884800 0.17969800
v -0.29288600 -0.79884800 0.19289400
v -0.29282600 -0.79884800 0.19298700
v -0.27953300 0.89848300 0.00053591
v -0.35914000 -0.79884800 0.00053591
v -0.05189890 0.90907400 0.26488600
v -0.05189890 0.91243600 0.27055900
v -0.28617900 0.91176300 0.00053591
v -0.33950100 0.91831900 0.00053591
v -0.35282400 0.91159500 0.00053591
v -0.35438800 0.90840100 0.01000120
v -0.35914000 0.89898700 0.00053591
v -0.31279500 -0.79884800 0.15309100
f 1 2 3
f 22 33 23
f 20 31 32
f 19 31 20
f 19 30 31
f 19 29 30
f 19 28 29
f 19 26 28
f 22 34 41
f 18 27 26
f 16 18 26
f 13 15 14
f 12 18 13
f 12 27 18
f 12 25 27
f 12 24 25
f 11 22 23
f 16 26 19
f 22 41 39
f 22 39 38
f 22 38 27
f 39 41 40
f 35 37 36
f 33 37 35
f 28 30 29
f 28 42 30
f 28 34 42
f 28 41 34
f 28 40 41
f 26 40 28
f 26 39 40
f 26 38 39
f 26 27 38
f 24 37 25
f 24 36 37
f 22 37 33
f 22 25 37
f 22 27 25
f 8 21 9
f 8 32 21
f 23 33 35
f 8 19 20
f 3 9 10
f 3 8 9
f 3 7 8
f 3 6 7
f 2 6 3
f 2 5 6
f 1 5 2
f 4 10 9
f 1 12 5
f 1 35 36
f 1 23 35
f 1 11 23
f 1 4 11
f 1 10 4
f 1 3 10
f 8 20 32
f 1 36 24
f 4 9 21
f 1 24 12
f 4 32 31
f 8 17 19
f 4 21 32
f 7 18 16
f 7 13 18
f 7 15 13
f 7 17 8
f 7 16 19
f 6 15 7
f 5 15 6
f 7 19 17
f 5 13 14
f 5 12 13
f 4 22 11
f 4 34 22
f 4 42 34
f 4 31 30
f 5 14 15
f 4 30 42

