# https://github.com/mikedh/trimesh
v 0.17971100 0.91832500 0.22722000
v 0.17971100 0.91832500 0.21963200
v 0.15215500 0.91279800 0.22722000
v 0.29949100 0.91832500 0.00053591
v 0.28617500 0.91182300 0.00053591
v 0.33931300 0.91832500 0.00053591
v 0.27953900 0.91832500 0.17969100
v 0.29617300 0.91507400 0.15639300
v 0.30948900 0.90841000 0.14973600
v 0.35130600 0.91036000 0.00053591
v 0.35886700 0.89898300 0.00053591
v 0.30614900 0.90515900 0.16637800
v 0.28951500 0.90841000 0.18967600
v 0.19817300 0.91686200 0.22722000
v 0.22629600 0.90515900 0.22628800
v 0.22167500 0.90597200 0.22722000
v 0.22444700 0.90320900 0.22722000
v 0.22270800 -0.81200900 0.22809500
v 0.19968500 0.91832500 0.21963200
v 0.13221200 -0.81203600 0.22809500
v 0.29283400 -0.81203600 0.19301200
v 0.27953900 0.89849500 0.19966100
v 0.29283300 0.89183100 0.19300500
v 0.31280700 0.89183100 0.15306400
v 0.35914000 0.89817000 0.00053591
v 0.27953900 0.89849500 0.00053591
v 0.14459400 0.90320900 0.22722000
v 0.14736600 0.90743500 0.22722000
v 0.13743200 -0.81203600 0.21729200
v 0.27277600 -0.81203600 0.00053591
v 0.35911800 -0.81203600 0.00053591
v 0.31280400 -0.81203600 0.15307400
f 5 27 28
f 5 26 27
f 5 25 26
f 6 25 5
f 10 25 6
f 22 21 23
f 11 12 25
f 12 21 24
f 12 23 21
f 5 28 3
f 13 23 12
f 11 25 10
f 28 20 3
f 32 24 21
f 29 20 27
f 29 30 20
f 29 26 30
f 29 27 26
f 30 26 31
f 30 31 20
f 21 20 31
f 32 21 31
f 25 24 32
f 25 32 31
f 25 31 26
f 3 20 1
f 13 22 23
f 28 27 20
f 15 22 13
f 12 24 25
f 17 18 22
f 2 3 1
f 4 3 2
f 4 5 3
f 4 6 5
f 15 17 22
f 6 2 1
f 7 6 1
f 8 6 7
f 9 6 8
f 9 10 6
f 9 11 10
f 9 12 11
f 9 8 12
f 8 7 12
f 4 2 6
f 14 13 7
f 7 13 12
f 22 18 21
f 18 20 21
f 19 14 7
f 19 7 1
f 19 1 14
f 18 1 20
f 16 14 18
f 16 18 17
f 16 17 15
f 16 15 14
f 14 15 13
f 14 1 18

