o convex_0
v -0.0518989 0.898483 0.315512
v -0.0518989 0.909578 0.311874
v -0.1531 0.898483 0.312798
v -0.0518989 -0.798848 0.315512
v -0.0518989 0.913444 0.309993
v -0.154754 0.908401 0.309469
v -0.186362 0.911763 0.29285
v -0.193039 0.898483 0.29285
v -0.179836 -0.798848 0.299448
v -0.1531 -0.798848 0.312798
v -0.0518989 -0.798848 0.263468
v -0.0518989 0.918487 0.287517
v -0.179716 0.918487 0.279531
v -0.143115 0.915125 0.296149
v -0.162242 0.913444 0.299479
v -0.286179 0.911763 0.192987
v -0.194693 0.908401 0.289521
v -0.279533 0.918487 0.179698
v -0.29451 0.908401 0.189657
v -0.292826 0.898483 0.192987
v -0.193039 -0.798848 0.29285
v -0.279443 -0.798848 0.00053591
v -0.0518989 0.906384 0.26356
v -0.0518989 0.91647 0.278514
v -0.299502 0.918487 0.00053591
v -0.309487 0.913444 0.149761
v -0.3389 0.918487 0.00053591
v -0.314479 0.908401 0.149761
v -0.299502 0.898483 0.179698
v -0.299502 -0.798848 0.179698
v -0.292886 -0.798848 0.192894
v -0.292826 -0.798848 0.192987
v -0.279533 0.898483 0.00053591
v -0.35914 -0.798848 0.00053591
v -0.0518989 0.909074 0.264886
v -0.0518989 0.912436 0.270559
v -0.286179 0.911763 0.00053591
v -0.339501 0.918319 0.00053591
v -0.352824 0.911595 0.00053591
v -0.354388 0.908401 0.0100012
v -0.35914 0.898987 0.00053591
v -0.312795 -0.798848 0.153091
f 1 2 3
f 1 3 10
f 1 10 4
f 1 4 11
f 1 11 23
f 1 23 35
f 1 35 36
f 1 36 24
f 1 24 12
f 1 12 5
f 1 5 2
f 2 5 6
f 2 6 3
f 3 6 7
f 3 7 8
f 3 8 9
f 3 9 10
f 4 10 9
f 4 9 21
f 4 21 32
f 4 32 31
f 4 31 30
f 4 30 42
f 4 42 34
f 4 34 22
f 4 22 11
f 5 12 13
f 5 13 14
f 5 14 15
f 5 15 6
f 6 15 7
f 7 16 19
f 7 19 17
f 7 17 8
f 7 15 13
f 7 13 18
f 7 18 16
f 8 17 19
f 8 19 20
f 8 20 32
f 8 32 21
f 8 21 9
f 11 22 23
f 12 24 25
f 12 25 27
f 12 27 18
f 12 18 13
f 13 15 14
f 16 18 26
f 16 26 19
f 18 27 26
f 19 26 28
f 19 28 29
f 19 29 30
f 19 30 31
f 19 31 20
f 20 31 32
f 22 33 23
f 22 34 41
f 22 41 39
f 22 39 38
f 22 38 27
f 22 27 25
f 22 25 37
f 22 37 33
f 23 33 35
f 24 36 37
f 24 37 25
f 26 27 38
f 26 38 39
f 26 39 40
f 26 40 28
f 28 40 41
f 28 41 34
f 28 34 42
f 28 42 30
f 28 30 29
f 33 37 35
f 35 37 36
f 39 41 40
o convex_1
v 0.339948 -0.918216 0.00053591
v 0.279515 -0.918487 0.179726
v 0.319469 -0.918487 0.00053591
v -0.179716 -0.918487 0.279531
v 4.05121e-06 -0.918487 0.33942
v -0.149761 -0.913487 0.309469
v -0.193039 -0.911824 0.286191
v -0.279533 -0.918487 0.179698
v -0.292826 -0.911824 0.186358
v -0.289518 -0.908498 0.194652
v -0.1897 -0.908498 0.294485
v -0.149761 -0.908498 0.314463
v -0.193039 -0.89852 0.29285
v -0.292826 -0.89852 0.192987
v -0.193039 -0.798848 0.29285
v -0.1531 -0.798848 0.312798
v -0.0518989 -0.798848 0.315512
v 4.05121e-06 -0.812043 0.359408
v 4.05121e-06 -0.898513 0.359408
v -0.00997419 -0.908495 0.354385
v 4.05121e-06 -0.911829 0.352734
v 0.0100225 -0.913486 0.349396
v 0.149758 -0.913486 0.309455
v 0.149758 -0.908495 0.314479
v 0.189671 -0.913486 0.289502
v 0.179693 -0.918487 0.279526
v 0.289494 -0.913486 0.189667
v 0.193011 -0.905171 0.29284
v 0.292833 -0.905171 0.193005
v 0.292833 -0.812043 0.193005
v 0.314479 -0.908495 0.149762
v 0.30945 -0.913486 0.149762
v 0.349403 -0.913486 0.00998547
v 0.352743 -0.905171 0.0133227
v 0.352542 -0.911913 0.00053591
v 0.3591 -0.898784 0.00053591
v 0.3591 -0.812043 0.00053591
v -0.3389 -0.918487 0.00053591
v -0.340494 -0.917949 0.00053591
v -0.351501 -0.910606 0.00053591
v -0.352734 -0.911824 0.0066714
v -0.299502 -0.913487 0.162217
v -0.309487 -0.908498 0.154756
v -0.358869 -0.899586 0.00053591
v -0.35914 -0.89852 0.00053591
v -0.312795 -0.89852 0.153091
v -0.292826 -0.798848 0.192987
v -0.312795 -0.798848 0.153091
v -0.35914 -0.798848 0.00053591
v -0.279443 -0.798848 0.00053591
v -0.0518989 -0.798848 0.263468
v 0.31279 -0.812043 0.153099
v 0.193011 -0.812043 0.29284
v 0.153098 -0.812043 0.312793
v 0.0133218 -0.905171 0.352734
f 44 45 43
f 44 46 45
f 47 46 44
f 48 46 47
f 49 46 48
f 49 50 46
f 49 51 50
f 49 52 51
f 49 53 52
f 49 48 53
f 53 48 54
f 53 54 55
f 53 55 52
f 55 56 52
f 55 57 56
f 58 57 55
f 58 59 57
f 58 60 59
f 58 54 60
f 58 55 54
f 54 61 60
f 62 61 54
f 63 61 62
f 63 64 61
f 63 47 64
f 63 48 47
f 63 62 48
f 62 54 48
f 65 64 47
f 65 66 64
f 65 67 66
f 65 68 67
f 65 47 68
f 68 47 44
f 68 44 67
f 69 67 44
f 69 70 67
f 71 70 69
f 71 72 70
f 71 73 72
f 71 69 73
f 69 74 73
f 69 44 74
f 74 44 43
f 75 74 43
f 75 73 74
f 75 76 73
f 75 77 76
f 75 43 77
f 77 43 78
f 76 77 78
f 76 78 73
f 78 79 73
f 78 43 79
f 43 80 79
f 45 80 43
f 45 46 80
f 50 80 46
f 81 80 50
f 81 82 80
f 81 83 82
f 81 84 83
f 81 50 84
f 84 50 51
f 84 51 85
f 84 85 83
f 86 83 85
f 86 82 83
f 86 87 82
f 86 88 87
f 86 85 88
f 85 52 88
f 85 51 52
f 88 52 56
f 89 88 56
f 89 90 88
f 89 57 90
f 89 56 57
f 57 59 90
f 90 59 91
f 87 90 91
f 88 90 87
f 87 91 80
f 82 87 80
f 80 91 79
f 92 79 91
f 93 79 92
f 93 59 79
f 93 92 59
f 92 91 59
f 94 79 59
f 94 73 79
f 94 72 73
f 94 59 72
f 72 59 95
f 72 95 70
f 70 95 66
f 70 66 67
f 66 95 96
f 66 96 60
f 66 60 61
f 97 66 61
f 97 64 66
f 97 61 64
f 96 59 60
f 96 95 59
o convex_2
v 0.319469 0.918487 0.000535923
v 0.299485 0.918487 0.000535923
v 0.339333 0.918318 0.000535923
v 0.339424 0.918487 -2.08035e-05
v 0.0519376 0.918487 -0.287474
v 0.0519376 0.916625 -0.279526
v 0.0519376 0.911884 -0.267309
v 0.286182 0.911714 0.000535923
v 0.351312 0.91036 0.000535923
v 0.279531 0.918487 -0.179687
v 0.352727 0.911714 -0.00667053
v 0.299485 0.913408 -0.162212
v 0.179729 0.918487 -0.279526
v 0.149783 0.913408 -0.309465
v 0.0519376 0.91544 -0.30099
v 0.0519376 0.911206 -0.266721
v 0.279531 0.898507 0.000535923
v 0.358866 0.899015 0.000535923
v 0.359408 0.898507 -2.08035e-05
v 0.292834 0.911714 -0.186337
v 0.309477 0.908497 -0.154758
v 0.193032 0.911714 -0.286175
v 0.0519376 0.913408 -0.30996
v 0.189691 0.908497 -0.294495
v 0.149783 0.908497 -0.314475
v 0.0519376 0.898507 -0.263535
v 0.27321 -0.811339 0.000535923
v 0.359137 0.898168 0.000535923
v 0.312818 0.898507 -0.153088
v 0.359408 -0.811339 -2.08035e-05
v 0.289523 0.908497 -0.194657
v 0.0519376 0.909513 -0.311939
v 0.193032 0.898507 -0.292825
v 0.179729 0.898507 -0.299506
v 0.0519376 0.898507 -0.315434
v 0.179729 -0.811339 -0.299506
v 0.153093 -0.811339 -0.312805
v 0.0519376 -0.811339 -0.315434
v 0.0519376 -0.811339 -0.257504
v 0.359137 -0.811339 0.000535923
v 0.292834 0.898507 -0.192987
v 0.312818 -0.811339 -0.153088
v 0.295271 -0.811339 -0.188131
v 0.193032 -0.811339 -0.292825
v 0.184605 -0.811339 -0.297062
v 0.292834 -0.811339 -0.192987
f 98 99 105
f 98 105 114
f 98 114 124
f 98 124 137
f 98 137 125
f 98 125 115
f 98 115 106
f 98 106 100
f 98 100 101
f 98 101 107
f 98 107 110
f 98 110 102
f 98 102 99
f 99 102 103
f 99 103 104
f 99 104 105
f 100 106 101
f 101 106 108
f 101 108 109
f 101 109 107
f 102 110 111
f 102 111 112
f 102 112 120
f 102 120 129
f 102 129 132
f 102 132 135
f 102 135 136
f 102 136 123
f 102 123 113
f 102 113 104
f 102 104 103
f 104 113 105
f 105 113 114
f 106 115 116
f 106 116 108
f 107 109 117
f 107 117 119
f 107 119 110
f 108 116 118
f 108 118 109
f 109 118 117
f 110 119 111
f 111 120 112
f 111 119 121
f 111 121 122
f 111 122 120
f 113 123 114
f 114 123 124
f 115 125 116
f 116 126 118
f 116 125 137
f 116 137 127
f 116 127 139
f 116 139 126
f 117 118 128
f 117 128 119
f 118 126 128
f 119 128 121
f 120 122 129
f 121 128 130
f 121 130 131
f 121 131 122
f 122 132 129
f 122 131 133
f 122 133 134
f 122 134 135
f 122 135 132
f 123 136 124
f 124 136 135
f 124 135 134
f 124 134 133
f 124 133 142
f 124 142 141
f 124 141 143
f 124 143 140
f 124 140 139
f 124 139 127
f 124 127 137
f 126 138 128
f 126 139 140
f 126 140 138
f 128 138 130
f 130 138 143
f 130 143 141
f 130 141 142
f 130 142 131
f 131 142 133
f 138 140 143
o convex_3
v 0.292834 -0.81135 -0.192987
v 0.292834 -0.898518 -0.192987
v 0.193032 -0.898518 -0.292825
v 0.294489 -0.908503 -0.189677
v 0.314473 -0.908503 -0.149779
v 0.312818 -0.81135 -0.153088
v 0.359408 -0.81135 -2.08035e-05
v 0.359408 -0.898518 -2.08035e-05
v 0.354412 -0.908503 -0.0100109
v 0.352727 -0.911827 -2.08035e-05
v 0.309477 -0.913495 -0.149779
v 0.339424 -0.918487 -2.08035e-05
v 0.339965 -0.918215 0.000535923
v 0.352546 -0.911911 0.000535923
v 0.359137 -0.89878 0.000535923
v 0.339424 -0.918278 0.000535923
v 0.319469 -0.918487 0.000535923
v -0.338873 -0.918487 0.000500681
v -0.340484 -0.917951 0.000500681
v -0.339437 -0.918487 -2.78247e-05
v -0.279523 -0.918487 -0.179683
v -0.296152 -0.915153 -0.156429
v -0.30948 -0.908496 -0.14977
v -0.351516 -0.910601 0.000500681
v -0.358844 -0.899588 0.000500681
v -0.359368 -0.898515 -2.78247e-05
v -0.359126 -0.898515 0.000500681
v 0.27321 -0.81135 0.000535923
v 0.359137 -0.81135 0.000535923
v 0.0519376 -0.81135 -0.257504
v -0.359126 -0.813039 0.000500681
v -0.359368 -0.813039 -2.78247e-05
v -0.312781 -0.813039 -0.153082
v 0.0519376 -0.81135 -0.315434
v -0.29285 -0.813039 -0.193001
v -0.192993 -0.813039 -0.292817
v -0.153091 -0.813039 -0.312794
v -4.03753e-06 -0.813039 -0.359373
v 0.153093 -0.81135 -0.312805
v 0.193032 -0.81135 -0.292825
v 0.153093 -0.898518 -0.312805
v 0.194687 -0.908503 -0.289516
v 0.154749 -0.908503 -0.309465
v 0.186381 -0.911827 -0.292825
v 0.286182 -0.911827 -0.192987
v 0.179729 -0.918487 -0.279526
v 0.162243 -0.913495 -0.299506
v 0.00663966 -0.91183 -0.352749
v -4.03753e-06 -0.918487 -0.339431
v -0.179666 -0.918487 -0.279534
v -0.156393 -0.915153 -0.296164
v -0.149789 -0.908496 -0.309482
v -0.189651 -0.908496 -0.289505
v -0.166378 -0.905172 -0.306135
v -0.192993 -0.891857 -0.292817
v -0.29285 -0.891857 -0.193001
v -0.289508 -0.908496 -0.189654
v -0.306138 -0.905172 -0.1664
v 0.279531 -0.918487 -0.179687
v -0.312781 -0.891857 -0.153082
v -0.153091 -0.891857 -0.312794
v -4.03753e-06 -0.898515 -0.359373
f 145 146 144
f 145 147 146
f 145 148 147
f 145 149 148
f 145 144 149
f 149 144 150
f 149 150 148
f 151 148 150
f 151 152 148
f 153 152 151
f 153 154 152
f 153 155 154
f 153 156 155
f 153 157 156
f 153 151 157
f 157 151 158
f 157 158 159
f 156 157 159
f 156 159 155
f 160 155 159
f 160 161 155
f 162 161 160
f 163 161 162
f 163 164 161
f 165 164 163
f 165 166 164
f 165 163 166
f 163 162 166
f 167 166 162
f 168 166 167
f 168 169 166
f 168 170 169
f 168 171 170
f 168 160 171
f 168 167 160
f 167 162 160
f 160 159 171
f 171 159 172
f 171 172 173
f 171 173 174
f 171 174 170
f 170 174 169
f 175 169 174
f 175 176 169
f 177 176 175
f 177 178 176
f 177 179 178
f 177 180 179
f 177 181 180
f 177 182 181
f 177 173 182
f 177 175 173
f 175 174 173
f 173 172 182
f 182 172 150
f 144 182 150
f 183 182 144
f 183 146 182
f 183 144 146
f 146 184 182
f 185 184 146
f 185 186 184
f 185 187 186
f 185 147 187
f 185 146 147
f 187 147 188
f 187 188 189
f 187 189 190
f 187 190 186
f 190 191 186
f 190 192 191
f 190 189 192
f 192 189 193
f 194 192 193
f 194 195 192
f 194 193 195
f 196 195 193
f 196 197 195
f 196 198 197
f 196 199 198
f 200 199 196
f 200 201 199
f 200 164 201
f 200 196 164
f 196 193 164
f 164 193 161
f 161 193 155
f 189 155 193
f 202 155 189
f 202 154 155
f 188 154 202
f 188 147 154
f 154 147 148
f 152 154 148
f 188 202 189
f 164 166 201
f 166 169 201
f 203 201 169
f 203 176 201
f 203 169 176
f 176 178 201
f 199 201 178
f 199 178 198
f 179 198 178
f 179 204 198
f 180 204 179
f 180 181 204
f 181 205 204
f 181 182 205
f 184 205 182
f 186 205 184
f 191 205 186
f 191 195 205
f 191 192 195
f 197 205 195
f 197 204 205
f 197 198 204
f 158 150 172
f 151 150 158
f 159 158 172
o convex_4
v 0.189682 0.90841 0.289536
v 0.221655 0.905972 0.227233
v 0.19301 0.911823 0.272896
v 0.179701 0.918325 0.279547
v 0.198149 0.916862 0.227233
v 0.224441 0.903209 0.227233
v 0.199664 0.898495 0.279547
v 0.199664 -0.741858 0.279547
v 0.19301 0.891831 0.292861
v 0.166393 0.905159 0.30615
v 0.153057 0.891831 0.312814
v 9.58057e-06 0.898495 0.359408
v 0.14973 0.90841 0.309488
v 0.156384 0.915074 0.296174
v 9.58057e-06 0.918325 0.33943
v -0.00664465 0.911823 0.352744
v -0.0266074 0.898495 0.346094
v -0.0149489 0.90841 0.349419
v -0.0224417 0.913449 0.33943
v -0.0518989 0.913449 0.309993
v -0.0465701 0.898495 0.326128
v -0.0266062 -0.812036 0.346092
v -0.0465769 -0.812036 0.326117
v -0.0518989 0.898495 0.315505
v -0.0518989 -0.812036 0.3155
v -0.0518989 0.909548 0.311895
v -0.0518989 -0.812036 0.2569
v 3.55165e-06 -0.812036 0.359408
v 0.153077 -0.812036 0.312813
v 0.192991 -0.812036 0.292852
v 0.132192 -0.812036 0.228108
v 0.199657 -0.812036 0.279548
v 0.224441 -0.741858 0.227233
v 0.222692 -0.812009 0.228108
v 0.144563 -0.741858 0.227233
v 0.144563 0.903209 0.227233
v -0.0518989 0.906459 0.26358
v 0.14735 0.907435 0.227233
v 0.152137 0.912798 0.227233
v -0.0518989 0.90906 0.2649
v 0.179701 0.918325 0.227233
v -0.0518989 0.912473 0.270567
v -0.0518989 0.918325 0.287543
v -0.0518989 0.916374 0.27855
f 207 208 206
f 207 209 208
f 207 210 209
f 207 211 210
f 207 206 211
f 212 211 206
f 212 213 211
f 212 214 213
f 212 206 214
f 215 214 206
f 215 216 214
f 215 217 216
f 215 218 217
f 215 219 218
f 215 209 219
f 215 206 209
f 206 208 209
f 219 209 220
f 219 220 221
f 219 221 218
f 221 217 218
f 221 222 217
f 223 222 221
f 223 224 222
f 223 221 224
f 224 221 220
f 224 220 225
f 224 225 222
f 226 222 225
f 226 227 222
f 226 228 227
f 229 228 226
f 229 230 228
f 229 225 230
f 231 225 229
f 231 226 225
f 231 229 226
f 230 225 232
f 230 232 228
f 228 232 233
f 227 228 233
f 227 233 222
f 222 233 217
f 234 217 233
f 216 217 234
f 216 234 214
f 234 235 214
f 234 233 235
f 235 233 236
f 237 235 236
f 237 213 235
f 237 238 213
f 237 239 238
f 237 236 239
f 238 239 236
f 240 238 236
f 240 241 238
f 240 236 241
f 241 236 232
f 241 232 242
f 243 241 242
f 243 244 241
f 243 242 244
f 245 244 242
f 245 246 244
f 245 247 246
f 245 242 247
f 247 242 248
f 249 247 248
f 249 246 247
f 249 248 246
f 248 220 246
f 248 225 220
f 248 242 225
f 225 242 232
f 209 246 220
f 210 246 209
f 210 211 246
f 211 241 246
f 238 241 211
f 213 238 211
f 244 246 241
f 233 232 236
f 213 214 235
o convex_5
v 0.179711 0.918325 0.22722
v 0.179711 0.918325 0.219632
v 0.152155 0.912798 0.22722
v 0.299491 0.918325 0.00053591
v 0.286175 0.911823 0.00053591
v 0.339313 0.918325 0.00053591
v 0.279539 0.918325 0.179691
v 0.296173 0.915074 0.156393
v 0.309489 0.90841 0.149736
v 0.351306 0.91036 0.00053591
v 0.358867 0.898983 0.00053591
v 0.306149 0.905159 0.166378
v 0.289515 0.90841 0.189676
v 0.198173 0.916862 0.22722
v 0.226296 0.905159 0.226288
v 0.221675 0.905972 0.22722
v 0.224447 0.903209 0.22722
v 0.222708 -0.812009 0.228095
v 0.199685 0.918325 0.219632
v 0.132212 -0.812036 0.228095
v 0.292834 -0.812036 0.193012
v 0.279539 0.898495 0.199661
v 0.292833 0.891831 0.193005
v 0.312807 0.891831 0.153064
v 0.35914 0.89817 0.00053591
v 0.279539 0.898495 0.00053591
v 0.144594 0.903209 0.22722
v 0.147366 0.907435 0.22722
v 0.137432 -0.812036 0.217292
v 0.272776 -0.812036 0.00053591
v 0.359118 -0.812036 0.00053591
v 0.312804 -0.812036 0.153074
f 251 252 250
f 253 252 251
f 253 254 252
f 253 255 254
f 253 251 255
f 255 251 250
f 256 255 250
f 257 255 256
f 258 255 257
f 258 259 255
f 258 260 259
f 258 261 260
f 258 257 261
f 257 256 261
f 256 262 261
f 263 262 256
f 263 264 262
f 265 264 263
f 265 266 264
f 265 267 266
f 265 263 267
f 263 250 267
f 268 250 263
f 268 256 250
f 268 263 256
f 267 250 269
f 267 269 270
f 271 267 270
f 266 267 271
f 264 266 271
f 264 271 262
f 262 271 272
f 262 272 261
f 261 272 270
f 261 270 273
f 261 273 274
f 260 261 274
f 260 274 259
f 259 274 255
f 255 274 254
f 254 274 275
f 254 275 276
f 254 276 277
f 254 277 252
f 277 269 252
f 277 276 269
f 278 269 276
f 278 279 269
f 278 275 279
f 278 276 275
f 279 275 280
f 279 280 269
f 270 269 280
f 281 270 280
f 281 273 270
f 274 273 281
f 274 281 280
f 274 280 275
f 252 269 250
f 271 270 272
o convex_6
v -0.193015 -0.813039 -0.292838
v -0.229646 -0.742027 -0.219589
v -0.193002 0.905159 -0.29286
v -0.199659 0.898495 -0.279542
v -0.224499 0.893619 -0.227204
v -0.21584 0.907597 -0.227204
v -0.189674 0.913449 -0.289534
v -0.212079 0.912798 -0.227204
v -0.207209 0.914586 -0.227204
v -0.179689 0.918325 -0.279542
v -0.179689 0.918325 -0.227204
v -0.149769 -0.742027 -0.219589
v -0.162209 0.915887 -0.227204
v -0.150222 0.907922 -0.227204
v -0.144621 0.893619 -0.227204
v -0.136731 -0.813039 -0.219589
v -0.229646 -0.813039 -0.219589
v -1.873e-05 -0.813039 -0.359394
v -0.153076 -0.813039 -0.312806
v -0.149735 0.90841 -0.314473
v -1.60954e-05 0.898495 -0.359408
v -0.0133292 0.905159 -0.352743
v -0.010001 0.913449 -0.349417
v -0.149735 0.913449 -0.30949
v -0.153063 0.905159 -0.312816
v -0.153063 -0.741858 -0.312816
v -1.60954e-05 0.918325 -0.339438
v -1.60954e-05 0.911823 -0.352743
v 0.00996876 0.90841 -0.354412
v 0.0199536 0.913449 -0.341936
v 0.0266102 0.898495 -0.346091
v 0.0465799 0.898495 -0.326121
v 0.0519106 0.913449 -0.309956
v 0.0519106 0.918325 -0.287515
v 0.0519106 0.916699 -0.279542
v 0.0519376 -0.813039 -0.256871
v 0.0519106 0.911823 -0.267338
v 0.0519106 0.911173 -0.266755
v 0.0519106 0.898495 -0.263559
v 0.0266072 -0.813039 -0.346091
v 0.0519376 -0.813039 -0.315434
v 0.0519106 0.909385 -0.311949
v 0.0519106 0.898495 -0.315431
v 0.0465628 -0.813039 -0.326123
f 283 284 282
f 285 284 283
f 285 286 284
f 285 283 286
f 287 286 283
f 287 288 286
f 287 289 288
f 287 283 289
f 290 289 283
f 290 288 289
f 290 291 288
f 290 292 291
f 290 283 292
f 293 292 283
f 293 294 292
f 293 295 294
f 293 296 295
f 293 297 296
f 293 283 297
f 283 298 297
f 283 282 298
f 282 299 298
f 300 299 282
f 301 299 300
f 301 302 299
f 301 303 302
f 301 304 303
f 301 305 304
f 301 288 305
f 301 284 288
f 301 306 284
f 301 307 306
f 301 300 307
f 300 282 307
f 307 282 284
f 306 307 284
f 288 284 286
f 305 288 291
f 305 291 308
f 305 308 304
f 309 304 308
f 303 304 309
f 303 309 302
f 309 310 302
f 311 310 309
f 311 312 310
f 311 313 312
f 311 314 313
f 311 315 314
f 311 308 315
f 311 309 308
f 315 308 292
f 316 315 292
f 316 317 315
f 316 318 317
f 316 292 318
f 294 318 292
f 319 318 294
f 319 317 318
f 319 320 317
f 319 295 320
f 319 294 295
f 295 296 320
f 296 297 320
f 297 317 320
f 297 298 317
f 317 298 299
f 321 317 299
f 322 317 321
f 322 315 317
f 314 315 322
f 323 314 322
f 323 313 314
f 323 324 313
f 323 322 324
f 322 313 324
f 325 313 322
f 325 321 313
f 325 322 321
f 312 313 321
f 312 321 302
f 312 302 310
f 321 299 302
f 308 291 292
o convex_7
v -0.13674 -0.813039 -0.219568
v -0.270786 -0.813039 0.000514367
v -0.359125 -0.813039 0.000514367
v -0.279539 0.898495 0.00053591
v -0.359135 0.898983 0.00053591
v -0.359408 -0.813039 -2.76468e-06
v -0.312808 -0.813039 -0.153073
v -0.314481 0.90841 -0.149752
v -0.359408 0.898495 -2.13715e-05
v -0.352744 0.911823 -2.13715e-05
v -0.352744 0.905159 -0.0133292
v -0.349422 0.913449 -0.00998555
v -0.309477 0.913449 -0.149752
v -0.339499 0.918325 0.00053591
v -0.352449 0.911823 0.00053591
v -0.352828 0.911498 0.00053591
v -0.299491 0.918325 0.00053591
v -0.279539 0.918325 -0.179689
v -0.289505 0.913449 -0.189675
v -0.292847 0.905159 -0.192997
v -0.212096 0.912798 -0.227191
v -0.21588 0.907597 -0.227191
v -0.2245 0.893619 -0.227191
v -0.179719 0.918325 -0.227191
v -0.207239 0.914586 -0.227191
v -0.199692 0.918325 -0.219635
v -0.179719 0.918325 -0.219635
v -0.162228 0.915887 -0.227191
v -0.286183 0.911823 0.00053591
v -0.163069 0.915074 -0.222956
v -0.150244 0.907922 -0.227191
v -0.153082 0.905159 -0.212969
v -0.144652 0.893619 -0.227191
v -0.2245 -0.741858 -0.227191
v -0.292843 -0.813039 -0.193
v -0.229656 -0.813039 -0.219568
v -0.279526 -0.813039 -0.199658
v -0.144652 -0.741858 -0.227191
f 327 328 326
f 329 328 327
f 330 328 329
f 331 328 330
f 331 332 328
f 331 333 332
f 331 334 333
f 331 330 334
f 335 334 330
f 336 334 335
f 336 333 334
f 337 333 336
f 337 338 333
f 337 339 338
f 337 335 339
f 337 336 335
f 340 339 335
f 340 341 339
f 340 335 341
f 341 335 330
f 341 330 339
f 339 330 342
f 339 342 343
f 338 339 343
f 338 343 344
f 338 344 333
f 344 345 333
f 346 345 344
f 347 345 346
f 347 348 345
f 347 346 348
f 346 349 348
f 350 349 346
f 350 351 349
f 350 344 351
f 350 346 344
f 351 344 343
f 351 343 349
f 343 342 349
f 352 349 342
f 352 353 349
f 352 342 353
f 353 342 354
f 355 353 354
f 355 356 353
f 355 357 356
f 355 354 357
f 354 329 357
f 354 342 329
f 330 329 342
f 357 329 326
f 357 326 358
f 356 357 358
f 356 358 353
f 353 358 349
f 359 349 358
f 348 349 359
f 348 359 360
f 348 360 345
f 333 345 360
f 332 333 360
f 332 360 328
f 360 326 328
f 361 326 360
f 361 359 326
f 362 359 361
f 362 360 359
f 362 361 360
f 363 326 359
f 363 358 326
f 363 359 358
f 329 327 326
