# https://github.com/mikedh/trimesh
v 0.03958170 0.00000000 0.32916400
v 0.02638520 0.02638520 0.32916400
v 0.02638520 -0.02638520 0.32916400
v 0.03958170 0.00000000 -0.65307000
v 0.00000000 0.03958170 0.32916400
v 0.02638520 0.02638520 -0.64646900
v 0.00000000 -0.03958170 0.32916400
v 0.02638520 -0.02638520 -0.65307000
v 0.03463010 -0.00989543 -0.66297300
v 0.02638520 0.00000000 -0.67947700
v 0.03297960 0.01318870 -0.65967200
v -0.02638520 0.02638520 0.32916400
v 0.00000000 0.03958170 -0.65307000
v 0.01979090 0.01979090 -0.67287500
v 0.01318870 0.03297960 -0.65967200
v -0.02638520 -0.02638520 0.32916400
v 0.00000000 -0.03958170 -0.65307000
v 0.00659437 -0.03297960 -0.66627400
v 0.01483930 -0.02967850 -0.66297300
v 0.01979090 -0.01979090 -0.67287500
v 0.01483930 -0.00989543 -0.68277800
v 0.00000000 0.00000000 -0.69268000
v 0.00989543 0.00989543 -0.68767900
v 0.02967850 0.00989543 -0.66787400
v -0.03958170 0.00000000 0.32916400
v -0.02638520 0.02638520 -0.65307000
v 0.00000000 0.02638520 -0.67947700
v -0.00989543 0.03463010 -0.66297300
v 0.00989543 0.02967850 -0.66787400
v -0.02638520 -0.02638520 -0.65967200
v -0.00659437 -0.02638520 -0.67947700
v 0.00659437 -0.01318870 -0.68607800
v -0.02638520 -0.00659437 -0.67947700
v -0.01318870 0.00659437 -0.68607800
v -0.00989543 0.01483930 -0.68277800
v -0.03958170 0.00000000 -0.65307000
v -0.01979090 0.01979090 -0.67287500
v -0.02967850 0.01483930 -0.66297300
v -0.03297960 0.00659437 -0.66627400
v -0.01979090 -0.01979090 -0.67287500
f 20 31 32
f 20 32 21
f 18 31 20
f 17 31 18
f 17 30 31
f 18 20 19
f 16 36 30
f 14 23 27
f 15 29 27
f 14 27 29
f 14 29 15
f 13 28 26
f 21 32 22
f 13 15 27
f 13 27 28
f 16 25 36
f 22 33 34
f 30 36 33
f 22 35 27
f 33 37 34
f 12 36 25
f 33 39 37
f 33 36 39
f 31 40 33
f 30 40 31
f 30 33 40
f 22 34 35
f 27 37 28
f 26 39 36
f 26 38 39
f 26 37 38
f 26 28 37
f 22 31 33
f 22 32 31
f 22 27 23
f 27 35 37
f 12 26 36
f 2 6 13
f 10 24 11
f 4 8 9
f 3 17 8
f 3 7 17
f 2 13 5
f 1 6 2
f 1 4 6
f 1 8 4
f 1 3 8
f 1 7 3
f 1 16 7
f 1 25 16
f 1 12 25
f 1 5 12
f 1 2 5
f 34 37 35
f 4 9 10
f 4 10 11
f 4 11 6
f 5 13 26
f 10 14 24
f 10 23 14
f 10 22 23
f 10 21 22
f 10 20 21
f 9 20 10
f 8 20 9
f 11 24 14
f 8 19 20
f 8 17 18
f 7 30 17
f 7 16 30
f 6 15 13
f 6 14 15
f 6 11 14
f 5 26 12
f 8 18 19
f 37 39 38

