o convex_0
v -0.0889833 0.905432 0.366135
v -0.0790569 0.903659 0.362861
v -0.217672 0.883983 0.362861
v -0.227421 0.885579 0.366135
v -0.224231 0.883983 0.369444
v -0.0724983 0.8971 0.382646
v 0.0856154 0.8971 0.382646
v 0.0724983 0.903659 0.369444
v 0.0790569 0.903659 0.362861
v -0.0790569 0.890542 0.356243
v 0.0889833 0.900468 0.361189
v -0.217672 0.870689 0.356243
v -0.277054 0.864131 0.362861
v -0.286803 0.865726 0.366135
v -0.283612 0.864131 0.369444
v -0.270318 0.857572 0.382646
v -0.210936 0.877248 0.382646
v -0.191261 0.857572 0.40243
v -0.0526455 0.877248 0.40243
v -0.0131171 0.857572 0.422214
v 0.0262341 0.857572 0.422214
v 0.204378 0.857572 0.40243
v 0.224231 0.877248 0.382646
v 0.210936 0.883983 0.369444
v 0.217672 0.883983 0.362861
v 0.0790569 0.890542 0.356243
v 1.11022e-16 0.0395284 0.3292
v 0.227421 0.880615 0.361189
v 0.217672 0.870689 0.356243
v -0.277054 0.850836 0.356243
v -0.296729 0.853318 0.361189
v -0.425418 0.806345 0.366135
v -0.400602 0.801381 0.385955
v -0.301692 0.841087 0.385955
v -0.283612 0.844278 0.389228
v -0.290171 0.798191 0.422214
v -0.244084 0.804749 0.428832
v -0.224231 0.864131 0.389228
v -0.191261 0.778338 0.461818
v -0.151555 0.837719 0.422214
v -0.204378 0.765221 0.4684
v -0.0329699 0.798191 0.461818
v 0.046087 0.798191 0.461818
v 0.204378 0.778338 0.461818
v 0.16485 0.837719 0.422214
v 0.224231 0.798191 0.441998
v 0.283612 0.857572 0.382646
v 0.227421 0.880615 0.366135
v 0.277054 0.864131 0.362861
v 0.277054 0.850836 0.356243
v 0.415492 0.791632 0.356243
v 0.0145351 0.0322609 0.3292
v -0.0131171 0.0329699 0.3292
v -0.415492 0.791632 0.356243
v 0.286803 0.860763 0.361189
v -0.435345 0.793937 0.361189
v -0.464947 0.786669 0.366135
v -0.440308 0.781706 0.385955
v -0.321545 0.781706 0.425523
v -0.382522 0.804749 0.389228
v -0.303288 0.784896 0.428832
v -0.184702 0.70584 0.507969
v -0.171408 0.718957 0.501386
v -0.0329699 0.738809 0.501386
v -0.303288 0.725515 0.4684
v -0.323141 0.685987 0.488185
v -0.224231 0.725515 0.488185
v 0.046087 0.738809 0.501386
v 0.224231 0.738809 0.481602
v 0.303288 0.738809 0.461818
v 0.303288 0.798191 0.422214
v 0.184702 0.718957 0.501386
v 0.286803 0.860763 0.366135
v 0.405565 0.801381 0.385955
v 0.42205 0.798191 0.382646
v 0.425418 0.801381 0.366135
v 0.425418 0.801381 0.361189
v 0.464947 0.781706 0.361189
v 0.45502 0.771779 0.356243
v 0.0262341 0.0262341 0.3292
v -0.0262341 0.0262341 0.3292
v -0.45502 0.771779 0.356243
v -0.474873 0.774261 0.361189
v -0.479836 0.761853 0.385955
v -0.544181 0.727288 0.366135
v -0.440308 0.662943 0.465091
v -0.380926 0.662943 0.484911
v -0.321545 0.722325 0.465091
v -0.125321 0.606753 0.567321
v -0.105468 0.646458 0.547537
v -0.0856154 0.685987 0.527753
v -0.244084 0.646458 0.527753
v -0.204378 0.626605 0.547537
v -0.0923512 0.580518 0.580522
v -0.341221 0.682619 0.484911
v -0.361074 0.603562 0.524444
v -0.342993 0.606753 0.527753
v 0.105468 0.580518 0.580522
v 0.125321 0.620047 0.560738
v 0.0856154 0.699104 0.521134
v 0.204378 0.6399 0.540919
v 0.283612 0.679428 0.501386
v 0.362669 0.679428 0.481602
v 0.38589 0.662943 0.484911
v 0.326508 0.722325 0.465091
v 0.326508 0.781706 0.425523
v 0.445271 0.781706 0.385955
v 0.461756 0.778338 0.382646
v 0.464947 0.781706 0.366135
v 0.544181 0.722325 0.361189
v 0.613488 0.653017 0.356243
v 0.0322609 0.0145351 0.3292
v 0.653017 0.613488 0.356243
v 0.771779 0.45502 0.356243
v -0.0287157 0.0214482 0.3292
v -0.771779 0.45502 0.356243
v -0.653017 0.613488 0.356243
v -0.613488 0.653017 0.356243
v -0.554107 0.71488 0.361189
v -0.479836 0.702472 0.425523
v -0.55907 0.702472 0.385955
v -0.623238 0.667906 0.366135
v -0.519365 0.603562 0.465091
v -0.420455 0.603562 0.504695
v -0.184702 0.547371 0.587105
v -0.177967 0.534254 0.593724
v -0.0989097 0.554107 0.593724
v -0.118585 0.593636 0.573904
v -0.112027 0.620047 0.560738
v -0.244084 0.567224 0.567321
v -0.380926 0.544181 0.544228
v -0.299211 0.494726 0.588778
v -0.301692 0.504652 0.583796
v -0.283612 0.507843 0.587105
v 0.0989097 0.554107 0.593724
v 0.118585 0.593636 0.573904
v 0.177967 0.534254 0.593724
v 0.184702 0.560666 0.580522
v 0.244084 0.580518 0.560738
v 0.267127 0.564034 0.564012
v 0.227421 0.623238 0.544228
v 0.366037 0.603562 0.524444
v 0.342993 0.620047 0.521134
v 0.359478 0.715766 0.458508
v 0.445271 0.662943 0.465091
v 0.41886 0.715766 0.438724
v 0.484799 0.761853 0.385955
v 0.544181 0.722325 0.366135
v 0.623238 0.662943 0.361189
v 0.0395284 1.11022e-16 0.3292
v 0.791632 0.415492 0.356243
v 0.662943 0.623238 0.361189
v 0.722325 0.544181 0.361189
v 0.781706 0.464947 0.361189
v -0.0329699 0.0131171 0.3292
v -0.791632 0.415492 0.356243
v -0.784896 0.461756 0.362861
v -0.771779 0.477355 0.361189
v -0.712398 0.556589 0.361189
v -0.653017 0.635646 0.361189
v -0.633164 0.655498 0.361189
v -0.539217 0.623238 0.445307
v -0.635646 0.653017 0.371081
v -0.618452 0.623238 0.405739
v -0.667906 0.623238 0.366135
v -0.55907 0.603562 0.445307
v -0.519365 0.564034 0.484911
v -0.519365 0.524328 0.504695
v -0.440308 0.544181 0.524444
v -0.277054 0.494726 0.593724
v -0.197819 0.474873 0.613508
v -0.138438 0.494726 0.613508
v -0.0989097 0.45502 0.633292
v -0.0395284 0.514401 0.613508
v -0.046087 0.527696 0.606889
v -0.378445 0.534254 0.549174
v -0.459983 0.484799 0.544228
v -0.378445 0.435345 0.588778
v -0.299211 0.435345 0.608562
v 0.0329699 0.527696 0.606889
v 0.0395284 0.514401 0.613508
v 0.0989097 0.45502 0.633292
v 0.138438 0.494726 0.613508
v 0.197819 0.474873 0.613508
v 0.257201 0.494726 0.593724
v 0.306656 0.445271 0.603616
v 0.326508 0.484799 0.583796
v 0.346184 0.524328 0.564012
v 0.38589 0.544181 0.544228
v 0.445271 0.544181 0.524444
v 0.445271 0.583709 0.504695
v 0.524328 0.564034 0.484911
v 0.524328 0.603562 0.465091
v 0.484799 0.702472 0.425523
v 0.564034 0.702472 0.385955
v 0.623238 0.662943 0.366135
v 0.0329699 -0.0131171 0.3292
v 0.850836 0.277054 0.356243
v 0.870689 0.217672 0.356243
v 0.890542 0.0790569 0.356243
v 0.890542 -0.0790569 0.356243
v 0.870689 -0.217672 0.356243
v 0.850836 -0.277054 0.356243
v 0.791632 -0.415492 0.356243
v 0.801381 0.425418 0.361189
v 0.860763 0.286803 0.361189
v 0.662943 0.623238 0.366135
v 0.722325 0.544181 0.366135
v 0.781706 0.464947 0.366135
v -0.0395284 1.11022e-16 0.3292
v -0.811308 0.375963 0.356243
v -0.824602 0.382522 0.362861
v -0.786669 0.464947 0.366135
v -0.727288 0.544181 0.366135
v -0.655498 0.633164 0.371081
v -0.697508 0.564034 0.385955
v -0.618452 0.544181 0.445307
v -0.55907 0.564034 0.465091
v -0.55907 0.524328 0.484911
v -0.516883 0.514401 0.509641
v -0.479836 0.464947 0.544228
v -0.598599 0.425418 0.504695
v -0.277054 0.435345 0.613508
v -0.158291 0.435345 0.633292
v -0.0989097 0.395816 0.653076
v -0.457502 0.474873 0.549174
v -0.378445 0.375963 0.608562
v -0.437826 0.435345 0.568958
v -0.437826 0.375963 0.588778
v -0.319064 0.35611 0.628346
v 0.0989097 0.395816 0.653076
v 0.158291 0.435345 0.633292
v 0.277054 0.435345 0.613508
v 0.38589 0.38589 0.603616
v 0.38589 0.445271 0.583796
v 0.464947 0.484799 0.544228
v 0.524328 0.524328 0.504695
v 0.564034 0.524328 0.484911
v 0.564034 0.564034 0.465091
v 0.564034 0.603562 0.445307
v 0.583709 0.623238 0.425523
v 0.623238 0.623238 0.405739
v 0.702472 0.564034 0.385955
v 0.629973 0.649649 0.372753
v 0.0262341 -0.0262341 0.3292
v 0.771779 -0.45502 0.356243
v 0.880615 0.227421 0.361189
v 0.900468 0.0889833 0.361189
v 0.903659 -0.0790569 0.362861
v 0.883983 -0.217672 0.362861
v 0.864131 -0.277054 0.362861
v 0.853318 -0.296729 0.361189
v 0.774261 -0.474873 0.361189
v 0.793937 -0.435345 0.361189
v 0.801381 0.425418 0.366135
v 0.860763 0.286803 0.366135
v 0.864131 0.277054 0.362861
v 0.649649 0.629973 0.372753
v 0.761853 0.484799 0.385955
v 0.778338 0.461756 0.382646
v 0.798191 0.42205 0.382646
v -0.0329699 -0.0131171 0.3292
v -0.791632 -0.415492 0.356243
v -0.811308 -0.375963 0.356243
v -0.850836 -0.277054 0.356243
v -0.870689 -0.217672 0.356243
v -0.890542 -0.0790569 0.356243
v -0.890542 0.0790569 0.356243
v -0.870689 0.217672 0.356243
v -0.850836 0.277054 0.356243
v -0.864131 0.283612 0.362861
v -0.826197 0.38589 0.366135
v -0.778338 0.45502 0.382646
v -0.75689 0.484799 0.385955
v -0.798191 0.415492 0.382646
v -0.697508 0.484799 0.425523
v -0.677833 0.464947 0.445307
v -0.65798 0.445271 0.465091
v -0.598599 0.524328 0.465091
v -0.596117 0.415492 0.509641
v -0.536736 0.435345 0.52939
v -0.477355 0.45502 0.549174
v -0.296729 0.35611 0.633292
v -0.237348 0.395816 0.633292
v -0.197819 0.35611 0.653076
v -0.0989097 0.316582 0.67286
v 1.11022e-16 0.336435 0.67286
v -0.358592 0.316582 0.628346
v -0.338916 0.336435 0.628346
v -0.437826 0.296729 0.608562
v -0.536736 0.375963 0.549174
v -0.497207 0.296729 0.588778
v -0.299211 0.296729 0.64813
v -0.277054 0.296729 0.653076
v 0.0989097 0.316582 0.67286
v 0.197819 0.35611 0.653076
v 0.237348 0.395816 0.633292
v 0.296729 0.35611 0.633292
v 0.326508 0.366037 0.6234
v 0.316582 0.336435 0.633292
v 0.336435 0.316582 0.633292
v 0.366037 0.326508 0.6234
v 0.435345 0.277054 0.613508
v 0.445271 0.306656 0.603616
v 0.445271 0.38589 0.583796
v 0.445271 0.445271 0.564012
v 0.484799 0.464947 0.544228
v 0.544181 0.445271 0.524444
v 0.583709 0.445271 0.504695
v 0.662943 0.445271 0.465091
v 0.603562 0.524328 0.465091
v 0.603562 0.564034 0.445307
v 0.603562 0.603562 0.425523
v 0.623238 0.583709 0.425523
v 0.702472 0.484799 0.425523
v 0.0214482 -0.0287157 0.3292
v 0.653017 -0.613488 0.356243
v 0.613488 -0.653017 0.356243
v 0.45502 -0.771779 0.356243
v 0.883983 0.217672 0.362861
v 0.903659 0.0790569 0.362861
v 0.905432 -0.0889833 0.366135
v 0.885579 -0.227421 0.366135
v 0.865726 -0.286803 0.366135
v 0.786669 -0.464947 0.366135
v 0.71488 -0.554107 0.361189
v 0.806345 -0.425418 0.366135
v 0.857572 0.283612 0.382646
v 0.880615 0.227421 0.366135
v 0.781706 0.445271 0.385955
v 0.798191 0.303288 0.422214
v 0.801381 0.405565 0.385955
v -0.0269431 -0.0249933 0.3292
v -0.771779 -0.45502 0.356243
v -0.824602 -0.369405 0.362861
v -0.781706 -0.464947 0.366135
v -0.864131 -0.270318 0.362861
v -0.883983 -0.210936 0.362861
v -0.903659 -0.0724983 0.362861
v -0.903659 0.0856154 0.362861
v -0.883983 0.224231 0.362861
v -0.865726 0.286803 0.366135
v -0.857572 0.277054 0.382646
v -0.817866 0.375963 0.382646
v -0.679428 0.415492 0.461818
v -0.718957 0.45502 0.422214
v -0.798191 0.296729 0.422214
v -0.738809 0.296729 0.461818
v -0.655498 0.435345 0.470037
v -0.596117 0.35611 0.52939
v -0.655498 0.375963 0.489857
v -0.177967 0.277054 0.67286
v -0.237348 0.237348 0.67286
v -0.0989097 0.217672 0.69268
v -0.0196756 0.237348 0.69268
v 0.0196756 0.237348 0.69268
v -0.35611 0.296729 0.633292
v -0.296729 0.277054 0.653076
v -0.435345 0.277054 0.613508
v -0.494726 0.277054 0.593724
v -0.61597 0.217672 0.549174
v 0.0989097 0.217672 0.69268
v 0.177967 0.277054 0.67286
v 0.237348 0.237348 0.67286
v 0.277054 0.296729 0.653076
v 0.293539 0.293539 0.649767
v 0.296729 0.277054 0.653076
v 0.35611 0.296729 0.633292
v 0.395816 0.237348 0.633292
v 0.435345 0.158291 0.633292
v 0.474873 0.197819 0.613508
v 0.494726 0.257201 0.593724
v 0.564034 0.267127 0.564012
v 0.484799 0.326508 0.583796
v 0.524328 0.346184 0.564012
v 0.544181 0.38589 0.544228
v 0.603562 0.366037 0.524444
v 0.662943 0.38589 0.484911
v 0.715766 0.41886 0.438724
v 0.0131171 -0.0329699 0.3292
v 0.655498 -0.633164 0.361189
v 0.635646 -0.653017 0.361189
v 0.556589 -0.712398 0.361189
v 0.477355 -0.771779 0.361189
v 0.461756 -0.784896 0.362861
v 0.415492 -0.791632 0.356243
v 0.883983 0.210936 0.369444
v 0.903659 0.0724983 0.369444
v 0.877248 0.224231 0.382646
v 0.8971 0.0856154 0.382646
v 0.8971 -0.0724983 0.382646
v 0.883983 -0.224231 0.369444
v 0.864131 -0.283612 0.369444
v 0.801381 -0.400602 0.385955
v 0.781706 -0.440308 0.385955
v 0.761853 -0.479836 0.385955
v 0.727288 -0.544181 0.366135
v 0.857572 0.204378 0.40243
v 0.798191 0.224231 0.441998
v 0.781706 0.326508 0.425523
v 0.738809 0.303288 0.461818
v 0.778338 0.204378 0.461818
v -0.0262341 -0.0262341 0.3292
v -0.768411 -0.471505 0.359552
v -0.653017 -0.613488 0.356243
v -0.821234 -0.38589 0.366135
v -0.722325 -0.544181 0.366135
v -0.781706 -0.464947 0.371081
v -0.860763 -0.286803 0.366135
v -0.883983 -0.217672 0.369444
v -0.880615 -0.227421 0.366135
v -0.903659 -0.0790569 0.369444
v -0.905432 0.0889833 0.366135
v -0.885579 0.227421 0.366135
v -0.877248 0.217672 0.382646
v -0.857572 0.197819 0.40243
v -0.798191 0.217672 0.441998
v -0.679428 0.35611 0.481602
v -0.778338 0.197819 0.461818
v -0.738809 0.217672 0.481602
v -0.699104 0.316582 0.481602
v -0.675351 0.336435 0.489857
v -0.620047 0.336435 0.521134
v -0.35611 0.197819 0.653076
v -0.277054 0.177967 0.67286
v -0.177967 0.158291 0.69268
v -0.158291 0.177967 0.69268
v -0.395816 0.237348 0.633292
v -0.534254 0.177967 0.593724
v -0.474873 0.197819 0.613508
v -0.435345 0.158291 0.633292
v -0.613488 0.197819 0.55412
v -0.6399 0.197819 0.540919
v 0.158291 0.177967 0.69268
v 0.277054 0.177967 0.67286
v 0.35611 0.197819 0.653076
v 0.177967 0.158291 0.69268
v 0.395816 0.0989097 0.653076
v 0.45502 0.0989097 0.633292
v 0.494726 0.138438 0.613508
v 0.534254 0.177967 0.593724
v 0.580518 0.244084 0.560738
v 0.6399 0.204378 0.540919
v 0.623238 0.227421 0.544228
v 0.620047 0.342993 0.521134
v 0.715766 0.359478 0.458508
v 0.679428 0.362669 0.481602
v 0.722325 0.326508 0.465091
v 1.11022e-16 -0.0395284 0.3292
v 0.667906 -0.623238 0.366135
v 0.623238 -0.667906 0.366135
v 0.544181 -0.727288 0.366135
v 0.464947 -0.786669 0.366135
v 0.42205 -0.804749 0.362861
v 0.283612 -0.864131 0.362861
v 0.277054 -0.850836 0.356243
v 0.857572 0.0262341 0.422214
v 0.877248 -0.210936 0.382646
v 0.857572 -0.0131171 0.422214
v 0.857572 -0.191261 0.40243
v 0.857572 -0.270318 0.382646
v 0.841087 -0.301692 0.385955
v 0.804749 -0.382522 0.389228
v 0.781706 -0.321545 0.425523
v 0.662943 -0.380926 0.484911
v 0.662943 -0.440308 0.465091
v 0.702472 -0.479836 0.425523
v 0.702472 -0.55907 0.385955
v 0.837719 0.16485 0.422214
v 0.738809 0.224231 0.481602
v 0.718957 0.184702 0.501386
v 0.738809 0.046087 0.501386
v 0.798191 0.046087 0.461818
v -0.0249933 -0.0269431 0.3292
v -0.45502 -0.771779 0.356243
v -0.613488 -0.653017 0.356243
v -0.649649 -0.629973 0.359552
v -0.821234 -0.38589 0.371081
v -0.722325 -0.544181 0.371081
v -0.662943 -0.623238 0.366135
v -0.761853 -0.484799 0.381009
v -0.778338 -0.45502 0.382646
v -0.798191 -0.415492 0.382646
v -0.860763 -0.286803 0.371081
v -0.864131 -0.277054 0.369444
v -0.880615 -0.227421 0.371081
v -0.877248 -0.217672 0.382646
v -0.8971 -0.0790569 0.382646
v -0.8971 0.0790569 0.382646
v -0.877248 0.059204 0.40243
v -0.857572 0.0196756 0.422214
v -0.837719 0.158291 0.422214
v -0.738809 0.0395284 0.501386
v -0.718957 0.177967 0.501386
v -0.798191 0.0395284 0.461818
v -0.679428 0.277054 0.501386
v -0.316582 0.0989097 0.67286
v -0.395816 0.0989097 0.653076
v -0.217672 0.0989097 0.69268
v -0.593636 0.118585 0.573904
v -0.554107 0.0989097 0.593724
v -0.494726 0.138438 0.613508
v -0.45502 0.0989097 0.633292
v -0.620047 0.118585 0.560738
v 0.217672 0.0989097 0.69268
v 0.316582 0.0989097 0.67286
v 0.395816 -0.0989097 0.653076
v 0.514401 0.0395284 0.613508
v 0.336435 1.11022e-16 0.67286
v 0.554107 0.0989097 0.593724
v 0.593636 0.118585 0.573904
v 0.620047 0.125321 0.560738
v 0.560666 0.184702 0.580522
v 0.679428 0.283612 0.501386
v 0.217672 -0.870689 0.356243
v 0.0790569 -0.890542 0.356243
v -0.0790569 -0.890542 0.356243
v -0.217672 -0.870689 0.356243
v -0.277054 -0.850836 0.356243
v -0.415492 -0.791632 0.356243
v -0.0131171 -0.0329699 0.3292
v 0.653017 -0.635646 0.371081
v 0.633164 -0.655498 0.371081
v 0.564034 -0.697508 0.385955
v 0.484799 -0.75689 0.385955
v 0.45502 -0.778338 0.382646
v 0.415492 -0.798191 0.382646
v 0.425418 -0.806345 0.366135
v 0.286803 -0.865726 0.366135
v 0.224231 -0.883983 0.362861
v 0.864131 -0.224231 0.389228
v 0.798191 -0.0329699 0.461818
v 0.778338 -0.191261 0.461818
v 0.837719 -0.151555 0.422214
v 0.804749 -0.244084 0.428832
v 0.765221 -0.204378 0.4684
v 0.798191 -0.290171 0.422214
v 0.844278 -0.283612 0.389228
v 0.784896 -0.303288 0.428832
v 0.722325 -0.321545 0.465091
v 0.666134 -0.362669 0.488185
v 0.606753 -0.342993 0.527753
v 0.603562 -0.361074 0.524444
v 0.725515 -0.303288 0.4684
v 0.583709 -0.440308 0.504695
v 0.564034 -0.519365 0.484911
v 0.603562 -0.519365 0.465091
v 0.623238 -0.578746 0.425523
v 0.623238 -0.618452 0.405739
v 0.699104 0.0856154 0.521134
v 0.738809 -0.0329699 0.501386
v 0.580518 0.105468 0.580522
v -0.464947 -0.781706 0.366135
v -0.471505 -0.768411 0.359552
v -0.629973 -0.649649 0.359552
v -0.817866 -0.375963 0.382646
v -0.857572 -0.277054 0.382646
v -0.662943 -0.623238 0.371081
v -0.702472 -0.564034 0.381009
v -0.623238 -0.662943 0.366135
v -0.751927 -0.45502 0.403248
v -0.761853 -0.464947 0.390901
v -0.791632 -0.375963 0.403248
v -0.850836 -0.217672 0.403248
v -0.857572 -0.197819 0.40243
v -0.877248 -0.059204 0.40243
v -0.857572 -0.0196756 0.422214
v -0.738809 -0.0395284 0.501386
v -0.722325 -0.0494549 0.509641
v -0.580518 0.0989097 0.580522
v -0.699104 0.0790569 0.521134
v -0.798191 -0.0395284 0.461818
v -0.336435 1.11022e-16 0.67286
v -0.237348 0.0395284 0.69268
v -0.514401 0.0395284 0.613508
v -0.395816 -0.0989097 0.653076
v -0.564034 -0.108836 0.588778
v -0.527696 0.0395284 0.606889
v 0.237348 0.0196756 0.69268
v 0.435345 -0.158291 0.633292
v 0.45502 -0.0989097 0.633292
v 0.514401 -0.0395284 0.613508
v 0.316582 -0.0989097 0.67286
v 0.35611 -0.197819 0.653076
v 0.527696 0.0329699 0.606889
v 0.237348 -0.0196756 0.69268
v 0.554107 -0.0989097 0.593724
v 0.0856154 -0.903659 0.362861
v -0.0724983 -0.903659 0.362861
v -0.210936 -0.883983 0.362861
v -0.270318 -0.864131 0.362861
v -0.408933 -0.804749 0.362861
v 0.583709 -0.618452 0.425523
v 0.484799 -0.697508 0.425523
v 0.45502 -0.718957 0.422214
v 0.415492 -0.679428 0.461818
v 0.296729 -0.738809 0.461818
v 0.296729 -0.798191 0.422214
v 0.277054 -0.857572 0.382646
v 0.227421 -0.885579 0.366135
v 0.0889833 -0.905432 0.366135
v 0.718957 -0.171408 0.501386
v 0.70584 -0.184702 0.507969
v 0.725515 -0.224231 0.488185
v 0.646458 -0.244084 0.527753
v 0.626605 -0.204378 0.547537
v 0.567224 -0.244084 0.567321
v 0.527696 -0.323141 0.567321
v 0.514401 -0.338916 0.568958
v 0.544181 -0.380926 0.544228
v 0.544181 -0.440308 0.524444
v 0.524328 -0.519365 0.504695
v 0.524328 -0.55907 0.484911
v 0.564034 -0.55907 0.465091
v 0.603562 -0.55907 0.445307
v 0.646458 -0.105468 0.547537
v 0.685987 -0.0856154 0.527753
v 0.580518 -0.0923512 0.580522
v -0.425418 -0.801381 0.366135
v -0.464947 -0.781706 0.371081
v -0.544181 -0.722325 0.366135
v -0.831161 -0.277054 0.403248
v -0.623238 -0.662943 0.371081
v -0.623238 -0.623238 0.400793
v -0.613488 -0.593636 0.423032
v -0.692545 -0.534254 0.403248
v -0.732251 -0.435345 0.423032
v -0.692545 -0.494726 0.423032
v -0.692545 -0.45502 0.442852
v -0.798191 -0.296729 0.422214
v -0.732251 -0.375963 0.442852
v -0.732251 -0.316582 0.462636
v -0.791632 -0.237348 0.442852
v -0.771779 -0.217672 0.462636
v -0.837719 -0.158291 0.422214
v -0.778338 -0.197819 0.461818
v -0.718957 -0.177967 0.501386
v -0.699104 -0.0790569 0.521134
v -0.682619 -0.0889833 0.52939
v -0.620047 -0.118585 0.560738
v -0.316582 -0.0989097 0.67286
v -0.237348 -0.0395284 0.69268
v -0.514401 -0.0395284 0.613508
v -0.45502 -0.0989097 0.633292
v -0.435345 -0.158291 0.633292
v -0.35611 -0.197819 0.653076
v -0.544181 -0.187893 0.588778
v -0.504652 -0.148365 0.608562
v -0.464947 -0.108836 0.628346
v -0.554107 -0.0989097 0.593724
v -0.527696 -0.0395284 0.606889
v -0.603562 -0.128512 0.568958
v 0.395816 -0.237348 0.633292
v 0.435345 -0.277054 0.613508
v 0.474873 -0.197819 0.613508
v 0.494726 -0.138438 0.613508
v 0.527696 -0.046087 0.606889
v 0.217672 -0.0989097 0.69268
v 0.277054 -0.177967 0.67286
v 0.237348 -0.237348 0.67286
v 0.296729 -0.277054 0.653076
v 0.35611 -0.296729 0.633292
v 0.593636 -0.118585 0.573904
v 0.620047 -0.112027 0.560738
v 0.534254 -0.177967 0.593724
v 0.606753 -0.125321 0.567321
v -0.0790569 -0.903659 0.369444
v -0.217672 -0.883983 0.369444
v -0.227421 -0.880615 0.366135
v -0.286803 -0.860763 0.366135
v 0.564034 -0.598599 0.445307
v 0.524328 -0.598599 0.465091
v 0.464947 -0.677833 0.445307
v 0.445271 -0.65798 0.465091
v 0.435345 -0.655498 0.470037
v 0.375963 -0.655498 0.489857
v 0.35611 -0.679428 0.481602
v 0.316582 -0.699104 0.481602
v 0.217672 -0.738809 0.481602
v 0.197819 -0.778338 0.461818
v 0.217672 -0.798191 0.441998
v 0.197819 -0.857572 0.40243
v 0.217672 -0.877248 0.382646
v 0.0790569 -0.8971 0.382646
v -0.0790569 -0.8971 0.382646
v 0.547371 -0.184702 0.587105
v 0.494726 -0.257201 0.593724
v 0.474873 -0.319064 0.588778
v 0.435345 -0.378445 0.588778
v 0.534254 -0.378445 0.549174
v 0.484799 -0.459983 0.544228
v 0.464947 -0.479836 0.544228
v 0.514401 -0.516883 0.509641
v 0.445271 -0.539217 0.524444
v 0.445271 -0.618452 0.484911
v -0.425418 -0.801381 0.371081
v -0.415492 -0.798191 0.382646
v -0.45502 -0.778338 0.382646
v -0.484799 -0.761853 0.381009
v -0.544181 -0.722325 0.371081
v -0.564034 -0.702472 0.381009
v -0.593636 -0.613488 0.423032
v -0.613488 -0.554107 0.442852
v -0.67287 -0.435345 0.462636
v -0.613488 -0.514401 0.462636
v -0.732251 -0.237348 0.48242
v -0.67287 -0.375963 0.48242
v -0.692545 -0.336435 0.48242
v -0.712398 -0.197819 0.502204
v -0.702472 -0.187893 0.509641
v -0.64309 -0.108836 0.549174
v -0.277054 -0.177967 0.67286
v -0.217672 -0.0989097 0.69268
v -0.445271 -0.168217 0.628346
v -0.366037 -0.207746 0.64813
v -0.35611 -0.296729 0.633292
v -0.296729 -0.277054 0.653076
v -0.237348 -0.237348 0.67286
v -0.564034 -0.247274 0.568958
v -0.504652 -0.286803 0.588778
v -0.484799 -0.207746 0.608562
v -0.623238 -0.207746 0.549174
v 0.435345 -0.299211 0.608562
v 0.488167 -0.204378 0.606889
v 0.35611 -0.319064 0.628346
v 0.177967 -0.158291 0.69268
v 0.277054 -0.296729 0.653076
v 0.158291 -0.177967 0.69268
v 0.177967 -0.277054 0.67286
v 0.197819 -0.35611 0.653076
v 0.296729 -0.299211 0.64813
v -0.217672 -0.877248 0.382646
v -0.227421 -0.880615 0.371081
v -0.277054 -0.864131 0.369444
v -0.286803 -0.860763 0.371081
v 0.366037 -0.598599 0.524444
v 0.35611 -0.596117 0.52939
v 0.336435 -0.675351 0.489857
v 0.336435 -0.620047 0.521134
v 0.277054 -0.679428 0.501386
v 0.197819 -0.6399 0.540919
v 0.177967 -0.718957 0.501386
v 0.0395284 -0.738809 0.501386
v 0.0395284 -0.798191 0.461818
v 0.0196756 -0.857572 0.422214
v 0.158291 -0.837719 0.422214
v -0.0196756 -0.857572 0.422214
v -0.059204 -0.877248 0.40243
v -0.197819 -0.857572 0.40243
v 0.435345 -0.437826 0.568958
v 0.474873 -0.457502 0.549174
v 0.375963 -0.378445 0.608562
v 0.375963 -0.437826 0.588778
v 0.45502 -0.477355 0.549174
v 0.435345 -0.536736 0.52939
v -0.277054 -0.857572 0.382646
v -0.375963 -0.791632 0.403248
v -0.45502 -0.751927 0.403248
v -0.464947 -0.761853 0.390901
v -0.534254 -0.692545 0.403248
v -0.554107 -0.613488 0.442852
v -0.554107 -0.534254 0.48242
v -0.613488 -0.415492 0.502204
v -0.534254 -0.514401 0.502204
v -0.67287 -0.296729 0.502204
v -0.613488 -0.35611 0.521953
v -0.633164 -0.217672 0.541773
v -0.177967 -0.158291 0.69268
v -0.494726 -0.277054 0.593724
v -0.435345 -0.277054 0.613508
v -0.395816 -0.237348 0.633292
v -0.366037 -0.306656 0.628346
v -0.336435 -0.316582 0.633292
v -0.277054 -0.296729 0.653076
v -0.197819 -0.35611 0.653076
v -0.177967 -0.277054 0.67286
v -0.158291 -0.177967 0.69268
v -0.603562 -0.346184 0.52939
v -0.544181 -0.366037 0.549174
v -0.445271 -0.366037 0.588778
v -0.445271 -0.286803 0.608562
v 0.336435 -0.338916 0.628346
v 0.296729 -0.35611 0.633292
v 0.316582 -0.358592 0.628346
v 0.0989097 -0.217672 0.69268
v 0.0989097 -0.316582 0.67286
v 0.0989097 -0.395816 0.653076
v 0.158291 -0.435345 0.633292
v 0.237348 -0.395816 0.633292
v -0.217672 -0.850836 0.403248
v 0.375963 -0.536736 0.549174
v 0.336435 -0.516883 0.568958
v 0.257201 -0.556589 0.568958
v 0.217672 -0.61597 0.549174
v 0.197819 -0.613488 0.55412
v 0.118585 -0.620047 0.560738
v 0.0790569 -0.699104 0.521134
v 0.0989097 -0.580518 0.580522
v -0.0494549 -0.722325 0.509641
v -0.0395284 -0.738809 0.501386
v -0.0395284 -0.798191 0.461818
v -0.197819 -0.778338 0.461818
v -0.158291 -0.837719 0.422214
v -0.217672 -0.771779 0.462636
v 0.296729 -0.437826 0.608562
v 0.316582 -0.477355 0.588778
v -0.277054 -0.831161 0.403248
v -0.296729 -0.798191 0.422214
v -0.316582 -0.732251 0.462636
v -0.375963 -0.732251 0.442852
v -0.435345 -0.732251 0.423032
v -0.45502 -0.692545 0.442852
v -0.494726 -0.692545 0.423032
v -0.514401 -0.613488 0.462636
v -0.534254 -0.554107 0.48242
v -0.494726 -0.45502 0.541773
v -0.554107 -0.375963 0.541773
v -0.514401 -0.534254 0.502204
v -0.38589 -0.366037 0.608562
v -0.316582 -0.336435 0.633292
v -0.306656 -0.366037 0.628346
v -0.296729 -0.35611 0.633292
v -0.207746 -0.366037 0.64813
v -0.158291 -0.435345 0.633292
v -0.0989097 -0.395816 0.653076
v -0.0989097 -0.316582 0.67286
v -0.0989097 -0.217672 0.69268
v -0.484799 -0.445271 0.549174
v -0.366037 -0.445271 0.588778
v 0.277054 -0.435345 0.613508
v 0.0196756 -0.237348 0.69268
v 1.11022e-16 -0.336435 0.67286
v 0.0395284 -0.514401 0.613508
v 0.0989097 -0.45502 0.633292
v 0.138438 -0.494726 0.613508
v 0.197819 -0.474873 0.613508
v -0.237348 -0.791632 0.442852
v 0.277054 -0.497207 0.588778
v 0.237348 -0.554107 0.573904
v 0.197819 -0.536736 0.588778
v 0.177967 -0.534254 0.593724
v 0.118585 -0.593636 0.573904
v 0.0989097 -0.554107 0.593724
v -0.108836 -0.564034 0.588778
v -0.118585 -0.620047 0.560738
v -0.0889833 -0.682619 0.52939
v -0.0790569 -0.699104 0.521134
v -0.177967 -0.718957 0.501386
v -0.237348 -0.732251 0.48242
v -0.197819 -0.712398 0.502204
v -0.336435 -0.692545 0.48242
v -0.375963 -0.67287 0.48242
v -0.435345 -0.67287 0.462636
v -0.415492 -0.613488 0.502204
v -0.45502 -0.494726 0.541773
v -0.366037 -0.38589 0.608562
v -0.286803 -0.445271 0.608562
v -0.277054 -0.435345 0.613508
v -0.237348 -0.395816 0.633292
v -0.168217 -0.445271 0.628346
v -0.0989097 -0.45502 0.633292
v -0.0395284 -0.514401 0.613508
v -0.0196756 -0.237348 0.69268
v -0.445271 -0.484799 0.549174
v -0.286803 -0.504652 0.588778
v 0.217672 -0.477355 0.608562
v 0.0395284 -0.527696 0.606889
v -0.0395284 -0.527696 0.606889
v -0.0989097 -0.554107 0.593724
v -0.108836 -0.464947 0.628346
v -0.148365 -0.504652 0.608562
v -0.187893 -0.544181 0.588778
v -0.128512 -0.603562 0.568958
v -0.108836 -0.64309 0.549174
v -0.187893 -0.702472 0.509641
v -0.296729 -0.67287 0.502204
v -0.217672 -0.633164 0.541773
v -0.35611 -0.613488 0.521953
v -0.375963 -0.554107 0.541773
v -0.277054 -0.494726 0.593724
v -0.207746 -0.484799 0.608562
v -0.366037 -0.544181 0.549174
v -0.346184 -0.603562 0.52939
v -0.247274 -0.564034 0.568958
v -0.207746 -0.623238 0.549174
f 1 2 3
f 1 3 4
f 1 4 5
f 1 5 6
f 1 6 7
f 1 7 8
f 1 8 9
f 1 9 2
f 2 10 3
f 2 9 11
f 2 11 10
f 3 12 30
f 3 30 13
f 3 13 14
f 3 14 4
f 3 10 12
f 4 14 15
f 4 15 5
f 5 15 16
f 5 16 17
f 5 17 6
f 6 17 18
f 6 18 19
f 6 19 20
f 6 20 21
f 6 21 7
f 7 21 22
f 7 22 23
f 7 23 24
f 7 24 8
f 8 24 25
f 8 25 9
f 9 25 11
f 10 11 26
f 10 26 27
f 10 27 12
f 11 25 28
f 11 28 29
f 11 29 26
f 12 27 30
f 13 30 31
f 13 31 14
f 14 31 56
f 14 56 32
f 14 32 33
f 14 33 15
f 15 33 16
f 16 34 35
f 16 35 36
f 16 36 37
f 16 37 18
f 16 18 38
f 16 38 17
f 16 33 34
f 17 38 18
f 18 39 40
f 18 40 20
f 18 20 19
f 18 37 41
f 18 41 39
f 20 40 39
f 20 39 42
f 20 42 43
f 20 43 21
f 21 43 44
f 21 44 45
f 21 45 22
f 22 44 46
f 22 46 47
f 22 47 23
f 22 45 44
f 23 47 48
f 23 48 25
f 23 25 24
f 25 48 73
f 25 73 49
f 25 49 55
f 25 55 28
f 26 29 27
f 27 29 50
f 27 50 51
f 27 51 52
f 27 52 80
f 27 80 112
f 27 112 150
f 27 150 197
f 27 197 245
f 27 245 316
f 27 316 380
f 27 380 449
f 27 449 521
f 27 521 474
f 27 474 403
f 27 403 333
f 27 333 262
f 27 262 210
f 27 210 155
f 27 155 115
f 27 115 81
f 27 81 53
f 27 53 54
f 27 54 30
f 28 55 50
f 28 50 29
f 30 54 31
f 31 54 56
f 32 56 83
f 32 83 57
f 32 57 58
f 32 58 33
f 33 58 59
f 33 59 60
f 33 60 34
f 34 60 35
f 35 60 61
f 35 61 36
f 36 41 37
f 36 61 41
f 39 62 63
f 39 63 64
f 39 64 42
f 39 41 62
f 41 61 65
f 41 65 66
f 41 66 67
f 41 67 62
f 42 64 68
f 42 68 43
f 43 68 44
f 44 69 70
f 44 70 71
f 44 71 46
f 44 68 72
f 44 72 69
f 46 71 47
f 47 73 48
f 47 71 74
f 47 74 75
f 47 75 76
f 47 76 73
f 49 73 55
f 50 55 51
f 51 77 78
f 51 78 79
f 51 79 52
f 51 55 77
f 52 79 80
f 53 81 82
f 53 82 54
f 54 82 83
f 54 83 56
f 55 73 76
f 55 76 77
f 57 84 58
f 57 83 119
f 57 119 85
f 57 85 121
f 57 121 84
f 58 84 120
f 58 120 86
f 58 86 87
f 58 87 59
f 59 87 88
f 59 88 65
f 59 65 61
f 59 61 60
f 62 89 90
f 62 90 91
f 62 91 64
f 62 64 63
f 62 67 66
f 62 66 92
f 62 92 93
f 62 93 89
f 64 91 90
f 64 90 94
f 64 94 98
f 64 98 68
f 65 88 66
f 66 88 95
f 66 95 87
f 66 87 96
f 66 96 97
f 66 97 92
f 68 98 99
f 68 99 100
f 68 100 72
f 69 101 102
f 69 102 103
f 69 103 70
f 69 72 101
f 70 103 104
f 70 104 105
f 70 105 106
f 70 106 71
f 71 106 107
f 71 107 75
f 71 75 74
f 72 100 99
f 72 99 101
f 75 107 108
f 75 108 109
f 75 109 76
f 76 109 78
f 76 78 77
f 78 109 148
f 78 148 110
f 78 110 111
f 78 111 79
f 79 111 80
f 80 111 113
f 80 113 114
f 80 114 112
f 81 115 116
f 81 116 117
f 81 117 118
f 81 118 82
f 82 118 119
f 82 119 83
f 84 121 120
f 85 119 161
f 85 161 122
f 85 122 121
f 86 120 123
f 86 123 124
f 86 124 87
f 87 95 88
f 87 124 96
f 89 125 126
f 89 126 127
f 89 127 128
f 89 128 129
f 89 129 90
f 89 93 125
f 90 129 127
f 90 127 94
f 92 97 93
f 93 97 130
f 93 130 125
f 94 127 135
f 94 135 98
f 96 131 132
f 96 132 133
f 96 133 134
f 96 134 97
f 96 124 131
f 97 134 130
f 98 135 99
f 99 135 136
f 99 136 137
f 99 137 138
f 99 138 101
f 101 139 140
f 101 140 141
f 101 141 142
f 101 142 143
f 101 143 102
f 101 138 139
f 102 143 103
f 103 143 104
f 104 144 105
f 104 143 142
f 104 142 145
f 104 145 146
f 104 146 144
f 105 144 106
f 106 144 146
f 106 146 107
f 107 146 145
f 107 145 194
f 107 194 147
f 107 147 108
f 108 147 109
f 109 147 195
f 109 195 148
f 110 148 196
f 110 196 149
f 110 149 111
f 111 149 152
f 111 152 113
f 112 114 151
f 112 151 150
f 113 152 153
f 113 153 154
f 113 154 114
f 114 154 151
f 115 155 116
f 116 156 157
f 116 157 158
f 116 158 159
f 116 159 117
f 116 155 156
f 117 159 160
f 117 160 161
f 117 161 118
f 118 161 119
f 120 121 164
f 120 164 162
f 120 162 123
f 121 122 163
f 121 163 164
f 122 161 160
f 122 160 165
f 122 165 215
f 122 215 163
f 123 162 166
f 123 166 167
f 123 167 124
f 124 167 168
f 124 168 169
f 124 169 131
f 125 130 134
f 125 134 170
f 125 170 126
f 126 170 171
f 126 171 224
f 126 224 172
f 126 172 127
f 127 129 128
f 127 172 173
f 127 173 174
f 127 174 175
f 127 175 180
f 127 180 135
f 131 176 132
f 131 169 177
f 131 177 226
f 131 226 176
f 132 176 178
f 132 178 227
f 132 227 179
f 132 179 223
f 132 223 170
f 132 170 134
f 132 134 133
f 135 180 181
f 135 181 182
f 135 182 183
f 135 183 137
f 135 137 136
f 137 183 232
f 137 232 184
f 137 184 233
f 137 233 185
f 137 185 140
f 137 140 139
f 137 139 138
f 140 185 186
f 140 186 187
f 140 187 188
f 140 188 142
f 140 142 141
f 142 188 189
f 142 189 190
f 142 190 191
f 142 191 145
f 145 191 192
f 145 192 193
f 145 193 194
f 147 194 195
f 148 195 196
f 149 196 207
f 149 207 152
f 150 151 198
f 150 198 199
f 150 199 200
f 150 200 201
f 150 201 202
f 150 202 203
f 150 203 204
f 150 204 197
f 151 205 206
f 151 206 198
f 151 154 205
f 152 207 208
f 152 208 153
f 153 208 209
f 153 209 154
f 154 209 255
f 154 255 205
f 155 210 156
f 156 210 211
f 156 211 212
f 156 212 157
f 157 213 158
f 157 212 213
f 158 213 214
f 158 214 159
f 159 214 165
f 159 165 160
f 162 164 166
f 163 215 164
f 164 215 216
f 164 216 217
f 164 217 218
f 164 218 166
f 165 216 215
f 165 214 216
f 166 218 167
f 167 218 219
f 167 219 168
f 168 220 282
f 168 282 221
f 168 221 177
f 168 177 169
f 168 219 222
f 168 222 280
f 168 280 220
f 170 223 284
f 170 284 224
f 170 224 171
f 172 224 173
f 173 224 225
f 173 225 174
f 174 225 231
f 174 231 181
f 174 181 180
f 174 180 175
f 176 226 178
f 177 221 282
f 177 282 226
f 178 226 228
f 178 228 229
f 178 229 227
f 179 227 230
f 179 230 223
f 181 231 182
f 182 231 232
f 182 232 183
f 184 232 233
f 185 233 186
f 186 234 235
f 186 235 187
f 186 233 234
f 187 235 188
f 188 235 189
f 189 235 236
f 189 236 190
f 190 236 237
f 190 237 192
f 190 192 191
f 192 237 238
f 192 238 239
f 192 239 240
f 192 240 193
f 193 240 241
f 193 241 194
f 194 241 195
f 195 241 242
f 195 242 243
f 195 243 258
f 195 258 244
f 195 244 196
f 196 244 258
f 196 258 207
f 197 204 246
f 197 246 245
f 198 206 247
f 198 247 199
f 199 247 248
f 199 248 200
f 200 248 201
f 201 248 249
f 201 249 250
f 201 250 202
f 202 250 251
f 202 251 203
f 203 251 252
f 203 252 204
f 204 253 246
f 204 252 254
f 204 254 253
f 205 255 256
f 205 256 206
f 206 256 257
f 206 257 320
f 206 320 247
f 207 258 243
f 207 243 208
f 208 243 259
f 208 259 209
f 209 259 260
f 209 260 261
f 209 261 255
f 210 262 263
f 210 263 264
f 210 264 265
f 210 265 266
f 210 266 267
f 210 267 268
f 210 268 269
f 210 269 270
f 210 270 211
f 211 270 271
f 211 271 212
f 212 271 272
f 212 272 213
f 213 273 274
f 213 274 216
f 213 216 214
f 213 272 275
f 213 275 273
f 216 276 217
f 216 274 276
f 217 276 277
f 217 277 278
f 217 278 279
f 217 279 219
f 217 219 218
f 219 279 222
f 220 280 281
f 220 281 282
f 222 279 278
f 222 278 349
f 222 349 280
f 223 230 283
f 223 283 284
f 224 284 285
f 224 285 225
f 225 285 286
f 225 286 287
f 225 287 231
f 226 282 228
f 227 288 289
f 227 289 230
f 227 229 292
f 227 292 290
f 227 290 288
f 228 282 229
f 229 282 291
f 229 291 292
f 230 293 294
f 230 294 283
f 230 289 293
f 231 287 295
f 231 295 296
f 231 296 232
f 232 296 297
f 232 297 233
f 233 297 298
f 233 298 299
f 233 299 234
f 234 299 300
f 234 300 301
f 234 301 302
f 234 302 303
f 234 303 304
f 234 304 305
f 234 305 306
f 234 306 235
f 235 306 236
f 236 306 307
f 236 307 237
f 237 308 238
f 237 307 308
f 238 308 309
f 238 309 310
f 238 310 311
f 238 311 312
f 238 312 239
f 239 312 313
f 239 313 240
f 240 313 242
f 240 242 241
f 242 313 312
f 242 312 314
f 242 314 243
f 243 314 315
f 243 315 259
f 245 246 317
f 245 317 318
f 245 318 319
f 245 319 316
f 246 253 326
f 246 326 317
f 247 320 248
f 248 321 249
f 248 320 321
f 249 321 322
f 249 322 250
f 250 322 323
f 250 323 324
f 250 324 251
f 251 324 252
f 252 324 327
f 252 327 254
f 253 254 327
f 253 327 325
f 253 325 397
f 253 397 326
f 255 261 328
f 255 328 256
f 256 328 329
f 256 329 320
f 256 320 257
f 259 330 260
f 259 315 310
f 259 310 330
f 260 330 261
f 261 331 332
f 261 332 328
f 261 330 400
f 261 400 331
f 262 333 334
f 262 334 263
f 263 335 264
f 263 334 336
f 263 336 335
f 264 335 265
f 265 337 338
f 265 338 266
f 265 335 337
f 266 338 267
f 267 338 339
f 267 339 340
f 267 340 268
f 268 340 341
f 268 341 269
f 269 341 271
f 269 271 270
f 271 341 414
f 271 414 342
f 271 342 272
f 272 342 343
f 272 343 344
f 272 344 275
f 273 275 345
f 273 345 346
f 273 346 276
f 273 276 274
f 275 344 347
f 275 347 348
f 275 348 345
f 276 346 277
f 277 346 345
f 277 345 278
f 278 345 349
f 280 350 291
f 280 291 281
f 280 349 351
f 280 351 350
f 281 291 282
f 283 294 285
f 283 285 284
f 285 352 286
f 285 294 353
f 285 353 352
f 286 352 354
f 286 354 355
f 286 355 287
f 287 356 295
f 287 355 356
f 288 357 358
f 288 358 293
f 288 293 289
f 288 290 359
f 288 359 357
f 290 292 360
f 290 360 359
f 291 350 292
f 292 350 361
f 292 361 360
f 293 358 294
f 294 358 353
f 295 356 362
f 295 362 363
f 295 363 296
f 296 364 365
f 296 365 298
f 296 298 297
f 296 363 364
f 298 300 299
f 298 365 300
f 300 365 366
f 300 366 301
f 301 366 367
f 301 367 368
f 301 368 302
f 302 368 303
f 303 369 370
f 303 370 371
f 303 371 441
f 303 441 372
f 303 372 304
f 303 368 369
f 304 372 373
f 304 373 374
f 304 374 305
f 305 374 375
f 305 375 376
f 305 376 307
f 305 307 306
f 307 376 308
f 308 376 377
f 308 377 309
f 309 377 310
f 310 378 379
f 310 379 330
f 310 315 311
f 310 377 378
f 311 315 314
f 311 314 312
f 316 319 380
f 317 326 381
f 317 381 382
f 317 382 318
f 318 382 383
f 318 383 384
f 318 384 319
f 319 384 385
f 319 385 386
f 319 386 380
f 320 387 388
f 320 388 321
f 320 329 389
f 320 389 387
f 321 388 322
f 322 388 390
f 322 390 391
f 322 391 392
f 322 392 323
f 323 392 393
f 323 393 324
f 324 393 394
f 324 394 327
f 325 327 395
f 325 395 396
f 325 396 468
f 325 468 397
f 326 397 450
f 326 450 381
f 327 394 395
f 328 398 389
f 328 389 329
f 328 332 331
f 328 331 399
f 328 399 398
f 330 379 446
f 330 446 400
f 331 400 401
f 331 401 402
f 331 402 399
f 333 403 334
f 334 404 336
f 334 403 405
f 334 405 477
f 334 477 404
f 335 336 406
f 335 406 409
f 335 409 337
f 336 404 477
f 336 477 407
f 336 407 479
f 336 479 408
f 336 408 478
f 336 478 406
f 337 409 411
f 337 411 338
f 338 410 339
f 338 411 410
f 339 412 413
f 339 413 340
f 339 410 412
f 340 413 341
f 341 413 414
f 342 414 343
f 343 414 415
f 343 415 416
f 343 416 417
f 343 417 347
f 343 347 344
f 345 418 351
f 345 351 349
f 345 348 418
f 347 417 419
f 347 419 348
f 348 419 420
f 348 420 421
f 348 421 418
f 350 351 422
f 350 422 423
f 350 423 361
f 351 418 422
f 352 353 427
f 352 427 354
f 353 358 424
f 353 424 425
f 353 425 499
f 353 499 426
f 353 426 427
f 354 427 426
f 354 426 499
f 354 499 574
f 354 574 642
f 354 642 713
f 354 713 768
f 354 768 777
f 354 777 827
f 354 827 863
f 354 863 831
f 354 831 785
f 354 785 728
f 354 728 726
f 354 726 658
f 354 658 586
f 354 586 579
f 354 579 505
f 354 505 437
f 354 437 434
f 354 434 362
f 354 362 356
f 354 356 355
f 357 359 428
f 357 428 424
f 357 424 358
f 359 360 431
f 359 431 428
f 360 429 430
f 360 430 431
f 360 361 432
f 360 432 429
f 361 423 433
f 361 433 432
f 362 434 364
f 362 364 363
f 364 435 436
f 364 436 367
f 364 367 365
f 364 434 437
f 364 437 505
f 364 505 435
f 365 367 366
f 367 436 368
f 368 436 369
f 369 436 370
f 370 436 438
f 370 438 439
f 370 439 440
f 370 440 441
f 370 441 371
f 372 441 373
f 373 375 374
f 373 441 442
f 373 442 443
f 373 443 444
f 373 444 377
f 373 377 375
f 375 377 376
f 377 444 443
f 377 443 445
f 377 445 378
f 378 446 379
f 378 445 447
f 378 447 401
f 378 401 448
f 378 448 446
f 380 386 449
f 381 450 451
f 381 451 382
f 382 451 452
f 382 452 383
f 383 452 453
f 383 453 384
f 384 453 385
f 385 453 454
f 385 454 386
f 386 454 455
f 386 455 456
f 386 456 449
f 387 390 388
f 387 389 390
f 389 398 390
f 390 398 457
f 390 457 459
f 390 459 391
f 391 458 392
f 391 459 460
f 391 460 458
f 392 458 461
f 392 461 393
f 393 461 394
f 394 461 462
f 394 462 463
f 394 463 464
f 394 464 395
f 395 464 465
f 395 465 466
f 395 466 467
f 395 467 396
f 396 467 468
f 397 468 450
f 398 399 402
f 398 402 469
f 398 469 457
f 400 446 448
f 400 448 401
f 401 447 514
f 401 514 470
f 401 470 402
f 402 470 471
f 402 471 472
f 402 472 473
f 402 473 457
f 402 457 469
f 403 474 475
f 403 475 476
f 403 476 405
f 405 476 555
f 405 555 477
f 406 478 484
f 406 484 409
f 407 477 480
f 407 480 558
f 407 558 479
f 408 479 559
f 408 559 481
f 408 481 482
f 408 482 483
f 408 483 478
f 409 484 485
f 409 485 410
f 409 410 411
f 410 485 484
f 410 484 486
f 410 486 487
f 410 487 488
f 410 488 412
f 412 488 413
f 413 488 489
f 413 489 415
f 413 415 414
f 415 489 416
f 416 489 490
f 416 490 491
f 416 491 492
f 416 492 419
f 416 419 417
f 418 421 422
f 419 493 494
f 419 494 420
f 419 492 491
f 419 491 495
f 419 495 493
f 420 494 433
f 420 433 496
f 420 496 421
f 421 496 423
f 421 423 422
f 423 496 433
f 424 497 425
f 424 428 431
f 424 431 498
f 424 498 497
f 425 497 499
f 429 500 501
f 429 501 502
f 429 502 431
f 429 431 430
f 429 432 500
f 431 502 503
f 431 503 498
f 432 433 504
f 432 504 500
f 433 494 504
f 435 505 506
f 435 506 436
f 436 506 438
f 438 507 582
f 438 582 508
f 438 508 439
f 438 506 509
f 438 509 507
f 439 508 510
f 439 510 440
f 440 510 441
f 441 510 511
f 441 511 512
f 441 512 513
f 441 513 442
f 442 513 443
f 443 512 471
f 443 471 470
f 443 470 514
f 443 514 445
f 443 513 512
f 445 514 447
f 449 456 515
f 449 515 516
f 449 516 517
f 449 517 518
f 449 518 519
f 449 519 520
f 449 520 521
f 450 468 522
f 450 522 523
f 450 523 451
f 451 523 524
f 451 524 452
f 452 524 525
f 452 525 453
f 453 525 526
f 453 526 527
f 453 527 528
f 453 528 454
f 454 528 455
f 455 529 600
f 455 600 530
f 455 530 515
f 455 515 456
f 455 528 529
f 457 473 532
f 457 532 459
f 458 460 531
f 458 531 461
f 459 532 533
f 459 533 534
f 459 534 460
f 460 535 461
f 460 461 531
f 460 534 533
f 460 533 536
f 460 536 535
f 461 535 537
f 461 537 538
f 461 538 462
f 462 538 463
f 463 538 539
f 463 539 464
f 464 539 544
f 464 544 540
f 464 540 465
f 465 541 542
f 465 542 543
f 465 543 466
f 465 540 544
f 465 544 541
f 466 543 545
f 466 545 546
f 466 546 547
f 466 547 467
f 467 547 548
f 467 548 549
f 467 549 468
f 468 549 522
f 471 512 550
f 471 550 472
f 472 551 532
f 472 532 473
f 472 550 512
f 472 512 552
f 472 552 618
f 472 618 551
f 474 521 475
f 475 520 553
f 475 553 554
f 475 554 555
f 475 555 476
f 475 521 520
f 477 555 560
f 477 560 480
f 478 483 556
f 478 556 557
f 478 557 484
f 479 558 559
f 480 560 623
f 480 623 558
f 481 561 562
f 481 562 482
f 481 559 626
f 481 626 561
f 482 562 561
f 482 561 563
f 482 563 483
f 483 563 556
f 484 557 486
f 486 557 487
f 487 557 622
f 487 622 564
f 487 564 565
f 487 565 488
f 488 565 566
f 488 566 567
f 488 567 491
f 488 491 489
f 489 491 490
f 491 567 572
f 491 572 495
f 493 495 572
f 493 572 568
f 493 568 569
f 493 569 570
f 493 570 504
f 493 504 571
f 493 571 494
f 494 571 504
f 497 573 574
f 497 574 499
f 497 498 573
f 498 503 575
f 498 575 643
f 498 643 576
f 498 576 573
f 500 504 501
f 501 504 570
f 501 570 577
f 501 577 578
f 501 578 575
f 501 575 503
f 501 503 502
f 505 579 506
f 506 579 509
f 507 580 581
f 507 581 582
f 507 509 583
f 507 583 584
f 507 584 580
f 508 582 657
f 508 657 585
f 508 585 510
f 509 579 586
f 509 586 583
f 510 587 618
f 510 618 552
f 510 552 512
f 510 512 511
f 510 585 657
f 510 657 587
f 515 530 516
f 516 530 588
f 516 588 589
f 516 589 517
f 517 589 590
f 517 590 518
f 518 590 591
f 518 591 519
f 519 591 520
f 520 591 592
f 520 592 553
f 522 549 523
f 523 549 524
f 524 593 594
f 524 594 525
f 524 549 593
f 525 594 595
f 525 595 526
f 526 595 596
f 526 596 527
f 527 596 597
f 527 597 598
f 527 598 599
f 527 599 528
f 528 599 529
f 529 599 600
f 530 600 601
f 530 601 588
f 532 551 533
f 533 551 602
f 533 602 603
f 533 603 536
f 535 536 537
f 536 604 544
f 536 544 539
f 536 539 537
f 536 603 604
f 537 539 538
f 541 544 604
f 541 604 542
f 542 604 603
f 542 603 605
f 542 605 606
f 542 606 607
f 542 607 608
f 542 608 543
f 543 608 609
f 543 609 610
f 543 610 611
f 543 611 545
f 545 611 546
f 546 611 612
f 546 612 613
f 546 613 614
f 546 614 615
f 546 615 547
f 547 615 549
f 547 549 548
f 549 615 614
f 549 614 671
f 549 671 593
f 551 616 617
f 551 617 603
f 551 603 602
f 551 618 616
f 553 592 619
f 553 619 696
f 553 696 620
f 553 620 700
f 553 700 621
f 553 621 555
f 553 555 554
f 555 621 560
f 556 563 557
f 557 563 622
f 558 623 624
f 558 624 559
f 559 624 625
f 559 625 626
f 560 621 700
f 560 700 623
f 561 627 563
f 561 626 628
f 561 628 629
f 561 629 704
f 561 704 627
f 563 630 622
f 563 627 704
f 563 704 631
f 563 631 632
f 563 632 630
f 564 622 633
f 564 633 634
f 564 634 565
f 565 635 567
f 565 567 566
f 565 634 636
f 565 636 635
f 567 635 636
f 567 636 572
f 568 636 637
f 568 637 638
f 568 638 639
f 568 639 569
f 568 572 636
f 569 639 640
f 569 640 577
f 569 577 570
f 573 641 642
f 573 642 574
f 573 576 641
f 575 578 651
f 575 651 643
f 576 643 644
f 576 644 645
f 576 645 646
f 576 646 641
f 577 647 648
f 577 648 649
f 577 649 644
f 577 644 650
f 577 650 651
f 577 651 578
f 577 640 652
f 577 652 647
f 580 584 653
f 580 653 654
f 580 654 655
f 580 655 665
f 580 665 656
f 580 656 581
f 581 656 587
f 581 587 582
f 582 587 657
f 583 586 658
f 583 658 659
f 583 659 584
f 584 659 660
f 584 660 661
f 584 661 662
f 584 662 653
f 587 663 664
f 587 664 616
f 587 616 618
f 587 656 665
f 587 665 666
f 587 666 663
f 588 601 589
f 589 667 668
f 589 668 590
f 589 601 667
f 590 668 669
f 590 669 670
f 590 670 591
f 591 670 619
f 591 619 592
f 593 671 672
f 593 672 594
f 594 673 595
f 594 672 673
f 595 673 596
f 596 673 674
f 596 674 675
f 596 675 676
f 596 676 677
f 596 677 597
f 597 677 678
f 597 678 679
f 597 679 680
f 597 680 598
f 598 680 681
f 598 681 599
f 599 681 682
f 599 682 683
f 599 683 600
f 600 683 601
f 601 683 684
f 601 684 685
f 601 685 667
f 603 617 616
f 603 616 666
f 603 666 606
f 603 606 605
f 606 666 686
f 606 686 607
f 607 686 665
f 607 665 687
f 607 687 608
f 608 687 654
f 608 654 688
f 608 688 609
f 609 688 689
f 609 689 690
f 609 690 610
f 610 690 751
f 610 751 691
f 610 691 611
f 611 691 612
f 612 691 692
f 612 692 754
f 612 754 693
f 612 693 755
f 612 755 694
f 612 694 613
f 613 672 671
f 613 671 614
f 613 694 695
f 613 695 674
f 613 674 672
f 616 664 666
f 619 670 735
f 619 735 696
f 620 696 697
f 620 697 698
f 620 698 699
f 620 699 701
f 620 701 700
f 622 630 633
f 623 700 701
f 623 701 624
f 624 701 702
f 624 702 625
f 625 703 626
f 625 702 761
f 625 761 703
f 626 703 628
f 628 703 629
f 629 703 705
f 629 705 704
f 630 632 634
f 630 634 633
f 631 704 707
f 631 707 632
f 632 706 634
f 632 707 708
f 632 708 706
f 634 706 709
f 634 709 637
f 634 637 636
f 637 709 710
f 637 710 639
f 637 639 638
f 639 710 711
f 639 711 640
f 640 711 652
f 641 646 712
f 641 712 713
f 641 713 642
f 643 651 650
f 643 650 644
f 644 649 714
f 644 714 645
f 645 714 715
f 645 715 646
f 646 715 772
f 646 772 716
f 646 716 717
f 646 717 718
f 646 718 712
f 647 719 720
f 647 720 721
f 647 721 714
f 647 714 648
f 647 652 722
f 647 722 719
f 648 714 649
f 652 711 710
f 652 710 722
f 653 662 654
f 654 723 688
f 654 687 724
f 654 724 655
f 654 662 725
f 654 725 723
f 655 724 665
f 658 726 660
f 658 660 659
f 660 727 661
f 660 726 728
f 660 728 785
f 660 785 729
f 660 729 730
f 660 730 727
f 661 731 725
f 661 725 662
f 661 727 731
f 663 666 664
f 665 724 687
f 665 686 666
f 667 685 668
f 668 685 732
f 668 732 733
f 668 733 735
f 668 735 734
f 668 734 670
f 668 670 669
f 670 734 735
f 672 674 673
f 674 695 736
f 674 736 737
f 674 737 675
f 675 737 676
f 676 737 738
f 676 738 677
f 677 738 678
f 678 738 739
f 678 739 740
f 678 740 679
f 679 740 741
f 679 741 742
f 679 742 680
f 680 742 743
f 680 743 744
f 680 744 745
f 680 745 746
f 680 746 682
f 680 682 681
f 682 746 745
f 682 745 684
f 682 684 683
f 684 745 747
f 684 747 685
f 685 747 748
f 685 748 749
f 685 749 732
f 688 723 689
f 689 750 751
f 689 751 690
f 689 723 752
f 689 752 753
f 689 753 750
f 691 751 754
f 691 754 692
f 693 754 755
f 694 755 737
f 694 737 736
f 694 736 695
f 696 735 756
f 696 756 697
f 697 756 757
f 697 757 758
f 697 758 698
f 698 758 759
f 698 759 699
f 699 759 758
f 699 758 760
f 699 760 701
f 701 760 702
f 702 760 761
f 703 761 815
f 703 815 762
f 703 762 705
f 704 705 763
f 704 763 707
f 705 762 764
f 705 764 763
f 706 708 765
f 706 765 767
f 706 767 709
f 707 763 766
f 707 766 708
f 708 766 765
f 709 767 710
f 710 767 722
f 712 718 768
f 712 768 713
f 714 721 769
f 714 769 770
f 714 770 771
f 714 771 715
f 715 771 772
f 716 772 717
f 717 772 773
f 717 773 820
f 717 820 774
f 717 774 718
f 718 774 775
f 718 775 776
f 718 776 827
f 718 827 777
f 718 777 768
f 719 722 778
f 719 778 720
f 720 779 828
f 720 828 780
f 720 780 819
f 720 819 781
f 720 781 770
f 720 770 769
f 720 769 721
f 720 778 779
f 722 767 778
f 723 725 752
f 725 731 782
f 725 782 752
f 727 783 784
f 727 784 731
f 727 730 783
f 729 785 786
f 729 786 730
f 730 786 787
f 730 787 788
f 730 788 789
f 730 789 783
f 731 784 782
f 732 749 790
f 732 790 807
f 732 807 756
f 732 756 733
f 733 756 735
f 737 739 738
f 737 755 791
f 737 791 792
f 737 792 793
f 737 793 794
f 737 794 739
f 739 794 741
f 739 741 740
f 741 795 796
f 741 796 742
f 741 794 795
f 742 796 797
f 742 797 743
f 743 797 796
f 743 796 798
f 743 798 799
f 743 799 800
f 743 800 801
f 743 801 744
f 744 801 747
f 744 747 745
f 747 801 802
f 747 802 803
f 747 803 749
f 747 749 748
f 749 802 804
f 749 804 790
f 749 803 802
f 750 754 751
f 750 753 754
f 752 782 784
f 752 784 805
f 752 805 753
f 753 805 806
f 753 806 792
f 753 792 791
f 753 791 754
f 754 791 755
f 756 807 757
f 757 807 808
f 757 808 809
f 757 809 810
f 757 810 853
f 757 853 811
f 757 811 758
f 758 811 853
f 758 853 812
f 758 812 813
f 758 813 760
f 760 813 761
f 761 813 812
f 761 812 814
f 761 814 815
f 762 815 818
f 762 818 764
f 763 764 816
f 763 816 817
f 763 817 766
f 764 818 855
f 764 855 816
f 765 766 767
f 766 817 778
f 766 778 767
f 770 781 772
f 770 772 771
f 772 781 819
f 772 819 773
f 773 819 856
f 773 856 820
f 774 820 821
f 774 821 822
f 774 822 775
f 775 822 821
f 775 821 823
f 775 823 860
f 775 860 824
f 775 824 825
f 775 825 826
f 775 826 776
f 776 826 827
f 778 817 779
f 779 817 828
f 780 828 864
f 780 864 829
f 780 829 856
f 780 856 819
f 783 789 830
f 783 830 784
f 784 830 805
f 785 831 786
f 786 831 832
f 786 832 787
f 787 833 834
f 787 834 788
f 787 832 825
f 787 825 862
f 787 862 833
f 788 835 841
f 788 841 836
f 788 836 830
f 788 830 789
f 788 834 835
f 790 804 837
f 790 837 807
f 792 806 838
f 792 838 793
f 793 839 795
f 793 795 794
f 793 838 840
f 793 840 841
f 793 841 839
f 795 841 842
f 795 842 796
f 795 839 841
f 796 842 843
f 796 843 798
f 798 843 844
f 798 844 799
f 799 844 845
f 799 845 846
f 799 846 847
f 799 847 800
f 800 847 848
f 800 848 802
f 800 802 801
f 802 848 850
f 802 850 804
f 804 849 809
f 804 809 808
f 804 808 837
f 804 850 849
f 805 830 806
f 806 830 838
f 807 837 808
f 809 851 852
f 809 852 853
f 809 853 810
f 809 849 851
f 812 853 814
f 814 818 815
f 814 853 854
f 814 854 818
f 816 855 864
f 816 864 828
f 816 828 817
f 818 854 855
f 820 856 821
f 821 856 857
f 821 857 858
f 821 858 859
f 821 859 823
f 823 859 860
f 824 860 870
f 824 870 861
f 824 861 825
f 825 832 826
f 825 861 862
f 826 832 863
f 826 863 827
f 829 865 857
f 829 857 856
f 829 864 882
f 829 882 865
f 830 866 838
f 830 836 866
f 831 863 832
f 833 867 843
f 833 843 834
f 833 862 868
f 833 868 867
f 834 843 835
f 835 843 841
f 836 841 840
f 836 840 866
f 838 866 840
f 841 843 842
f 843 867 844
f 844 868 869
f 844 869 861
f 844 861 870
f 844 870 871
f 844 871 872
f 844 872 873
f 844 873 845
f 844 867 868
f 845 873 874
f 845 874 846
f 846 874 875
f 846 875 848
f 846 848 847
f 848 875 850
f 849 850 877
f 849 877 876
f 849 876 851
f 850 875 877
f 851 876 878
f 851 878 852
f 852 878 854
f 852 854 853
f 854 878 879
f 854 879 855
f 855 879 864
f 857 865 880
f 857 880 858
f 858 880 860
f 858 860 859
f 860 871 870
f 860 880 881
f 860 881 872
f 860 872 871
f 861 869 862
f 862 869 868
f 864 879 882
f 865 881 880
f 865 882 883
f 865 883 884
f 865 884 872
f 865 872 881
f 872 884 885
f 872 885 873
f 873 885 875
f 873 875 874
f 875 885 877
f 876 877 878
f 877 885 883
f 877 883 878
f 878 883 879
f 879 883 882
f 883 885 884
o convex_1
v 0.0395817 1.11022e-16 0.329164
v 0.0263852 0.0263852 0.329164
v 0.0263852 -0.0263852 0.329164
v 0.0395817 1.11022e-16 -0.65307
v 1.11022e-16 0.0395817 0.329164
v 0.0263852 0.0263852 -0.646469
v 1.11022e-16 -0.0395817 0.329164
v 0.0263852 -0.0263852 -0.65307
v 0.0346301 -0.00989543 -0.662973
v 0.0263852 1.11022e-16 -0.679477
v 0.0329796 0.0131887 -0.659672
v -0.0263852 0.0263852 0.329164
v 1.11022e-16 0.0395817 -0.65307
v 0.0197909 0.0197909 -0.672875
v 0.0131887 0.0329796 -0.659672
v -0.0263852 -0.0263852 0.329164
v 1.11022e-16 -0.0395817 -0.65307
v 0.00659437 -0.0329796 -0.666274
v 0.0148393 -0.0296785 -0.662973
v 0.0197909 -0.0197909 -0.672875
v 0.0148393 -0.00989543 -0.682778
v 1.11022e-16 1.11022e-16 -0.69268
v 0.00989543 0.00989543 -0.687679
v 0.0296785 0.00989543 -0.667874
v -0.0395817 1.11022e-16 0.329164
v -0.0263852 0.0263852 -0.65307
v 1.11022e-16 0.0263852 -0.679477
v -0.00989543 0.0346301 -0.662973
v 0.00989543 0.0296785 -0.667874
v -0.0263852 -0.0263852 -0.659672
v -0.00659437 -0.0263852 -0.679477
v 0.00659437 -0.0131887 -0.686078
v -0.0263852 -0.00659437 -0.679477
v -0.0131887 0.00659437 -0.686078
v -0.00989543 0.0148393 -0.682778
v -0.0395817 1.11022e-16 -0.65307
v -0.0197909 0.0197909 -0.672875
v -0.0296785 0.0148393 -0.662973
v -0.0329796 0.00659437 -0.666274
v -0.0197909 -0.0197909 -0.672875
f 886 887 890
f 886 890 897
f 886 897 910
f 886 910 901
f 886 901 892
f 886 892 888
f 886 888 893
f 886 893 889
f 886 889 891
f 886 891 887
f 887 891 898
f 887 898 890
f 888 892 902
f 888 902 893
f 889 893 894
f 889 894 895
f 889 895 896
f 889 896 891
f 890 898 911
f 890 911 897
f 891 896 899
f 891 899 900
f 891 900 898
f 892 901 915
f 892 915 902
f 893 902 903
f 893 903 904
f 893 904 905
f 893 905 894
f 894 905 895
f 895 905 906
f 895 906 907
f 895 907 908
f 895 908 899
f 895 899 909
f 895 909 896
f 896 909 899
f 897 911 921
f 897 921 910
f 898 900 912
f 898 912 913
f 898 913 911
f 899 914 900
f 899 908 912
f 899 912 914
f 900 914 912
f 901 910 921
f 901 921 915
f 902 915 916
f 902 916 903
f 903 916 905
f 903 905 904
f 905 916 917
f 905 917 906
f 906 917 907
f 907 918 919
f 907 919 920
f 907 920 912
f 907 912 908
f 907 917 916
f 907 916 918
f 911 913 922
f 911 922 923
f 911 923 924
f 911 924 921
f 912 920 922
f 912 922 913
f 915 921 918
f 915 918 925
f 915 925 916
f 916 925 918
f 918 921 924
f 918 924 922
f 918 922 919
f 919 922 920
f 922 924 923
