# https://github.com/mikedh/trimesh
v -0.05614720 -0.01871630 -0.09359670
v 0.04678900 -0.01871630 -0.09359670
v -0.05614720 -0.01871630 -0.04679840
v -0.06238720 -0.01559090 -0.09047230
v -0.05614720 0.00000036 -0.17779800
v 0.05302900 -0.01559090 -0.09359670
v 0.04905160 -0.01758470 -0.02470480
v 0.04678900 -0.01871630 -0.02470480
v 0.04678900 0.00000036 -0.17779800
v -0.04678720 -0.01871630 -0.02470480
v -0.05494440 -0.01751290 -0.02470480
v -0.06238720 -0.01559090 -0.04367410
v -0.06550720 -0.00935799 -0.09359670
v -0.06238720 0.00312580 -0.17467300
v -0.06082720 0.00468852 -0.18246200
v -0.05302720 0.00312580 -0.18402400
v 0.05380310 -0.01402820 -0.09826090
v 0.05614900 -0.00935799 -0.09359670
v 0.05302900 -0.01559090 -0.02470480
v 0.05302900 0.00312580 -0.17779800
v 0.04990900 0.00312580 -0.18402400
v -0.06082720 -0.01402820 -0.02470480
v -0.06430440 -0.00815452 -0.02470480
v -0.06550720 -0.00935799 -0.04679840
v -0.06550720 0.00935871 -0.17779800
v -0.05926720 0.06240130 -0.22769800
v 0.05380310 0.00468852 -0.18246200
v 0.05614900 -0.00935799 -0.02470480
v 0.05614900 0.00935871 -0.17779800
v 0.04366900 0.06240130 -0.22769800
v 0.04990900 0.06863430 -0.23082200
v -0.06550720 0.00000036 -0.02470480
v -0.06550720 0.07484920 -0.22457400
v -0.06394720 0.06707150 -0.22303400
v -0.05926720 0.08110010 -0.23707100
v -0.05614720 0.07484920 -0.23394700
v 0.05380310 0.07019700 -0.22926000
v 0.05614900 0.03743380 -0.02470480
v 0.05614900 0.07484920 -0.22457400
v 0.04678900 0.07484920 -0.23394700
v 0.04990900 0.08733300 -0.24017300
v 0.05380310 0.08889570 -0.23863300
v -0.06550720 0.03743380 -0.02470480
v -0.06550720 0.09356590 -0.23394700
v -0.06082720 0.08889570 -0.23863300
v -0.05614720 0.09356590 -0.24329800
v 0.04366900 0.08110010 -0.23707100
v 0.05302900 0.04368460 -0.02470480
v 0.05614900 0.16478600 -0.18714900
v 0.05451760 0.16478600 -0.18063200
v 0.05614900 0.09356590 -0.23394700
v 0.04678900 0.09356590 -0.24329800
v 0.05302900 0.09356590 -0.24017300
v 0.05302900 0.15907400 -0.24954600
v 0.05380310 0.15440400 -0.24798400
v -0.06238720 0.04368460 -0.02470480
v -0.06407820 0.16478600 -0.18074400
v -0.06550720 0.16478600 -0.18714900
v -0.06550720 0.15907400 -0.24329800
v -0.06238720 0.16220000 -0.24954600
v -0.06238720 0.09669130 -0.24017300
v -0.05614720 0.15907400 -0.25264800
v 0.04678900 0.04679210 -0.02470480
v 0.05363630 0.16478600 -0.17849000
v 0.05614900 0.16478600 -0.23760700
v 0.05614900 0.15907400 -0.24329800
v 0.04678900 0.15907400 -0.25264800
v 0.05349340 0.16478600 -0.24644400
v 0.05472000 0.16478600 -0.24401200
v 0.05146900 0.16376300 -0.25032700
v -0.06012460 0.04481630 -0.02470480
v -0.06285160 0.16478600 -0.17831100
v -0.06550720 0.16478600 -0.23760700
v -0.06423300 0.16478600 -0.24329800
v -0.06264920 0.16478600 -0.24735900
v -0.06135120 0.16478600 -0.24852000
v -0.05723090 0.16478600 -0.24954600
v -0.05614720 0.16478600 -0.24981400
v -0.05614720 0.04679210 -0.02470480
v 0.04678900 0.16478600 -0.17494100
v 0.05196920 0.16478600 -0.24905500
v 0.04840860 0.16478600 -0.24981400
v -0.05668310 0.16478600 -0.17520900
v -0.05614720 0.16478600 -0.17494100
f 44 61 45
f 42 66 51
f 43 56 57
f 43 57 58
f 44 59 60
f 44 60 61
f 45 61 46
f 49 68 81
f 46 62 67
f 46 67 52
f 46 61 60
f 48 50 64
f 48 64 63
f 49 65 69
f 49 69 68
f 42 55 66
f 46 60 62
f 42 54 55
f 31 41 42
f 42 52 53
f 49 81 82
f 31 42 37
f 33 44 34
f 34 44 45
f 34 45 35
f 35 45 46
f 35 46 52
f 35 52 47
f 35 47 40
f 35 40 36
f 37 42 39
f 38 49 50
f 38 50 48
f 39 42 51
f 40 47 52
f 40 52 41
f 41 52 42
f 42 53 54
f 49 82 78
f 54 70 68
f 49 77 76
f 60 74 75
f 60 75 76
f 60 76 77
f 60 77 62
f 62 78 70
f 62 70 67
f 62 77 78
f 63 64 80
f 63 80 84
f 63 84 79
f 79 84 83
f 68 70 81
f 70 78 82
f 70 82 81
f 71 79 72
f 72 79 83
f 31 40 41
f 59 74 60
f 49 78 77
f 59 73 74
f 56 71 72
f 49 76 75
f 49 75 74
f 49 74 73
f 49 73 58
f 49 58 57
f 49 57 72
f 49 72 83
f 49 83 84
f 49 84 80
f 49 80 64
f 49 64 50
f 52 67 54
f 52 54 53
f 54 68 69
f 54 69 66
f 54 66 55
f 54 67 70
f 56 72 57
f 30 40 31
f 65 66 69
f 27 37 29
f 5 16 21
f 5 21 9
f 6 17 18
f 6 18 28
f 6 28 19
f 6 19 7
f 6 20 27
f 6 27 17
f 7 19 28
f 7 28 38
f 7 38 48
f 7 48 63
f 7 63 79
f 7 79 71
f 7 71 56
f 7 56 43
f 7 43 32
f 5 14 15
f 7 32 23
f 4 25 14
f 4 24 13
f 29 37 39
f 1 2 8
f 1 8 10
f 1 10 3
f 1 3 12
f 1 12 4
f 1 4 14
f 1 14 5
f 1 5 9
f 1 9 2
f 2 6 7
f 2 7 8
f 2 9 20
f 2 20 6
f 3 10 11
f 3 11 12
f 4 12 24
f 4 13 25
f 7 23 22
f 5 15 16
f 7 11 10
f 18 29 39
f 18 39 51
f 18 51 66
f 18 66 65
f 18 65 49
f 18 49 38
f 18 38 28
f 20 21 27
f 21 30 31
f 21 31 37
f 21 37 27
f 23 32 24
f 25 33 34
f 26 34 35
f 26 35 36
f 26 36 40
f 7 22 11
f 17 29 18
f 17 27 29
f 26 40 30
f 16 26 30
f 16 30 21
f 9 21 20
f 11 22 12
f 12 22 23
f 12 23 24
f 13 24 32
f 13 32 43
f 13 43 58
f 13 58 73
f 7 10 8
f 13 59 44
f 13 44 33
f 13 33 25
f 14 25 15
f 15 25 34
f 15 34 26
f 15 26 16
f 13 73 59

