# https://github.com/mikedh/trimesh
v -0.08422350 0.32754300 -0.82351600
v -0.08109070 0.33067200 -0.82975600
v -0.07954080 0.32286800 -0.82819200
v -0.08109070 0.32130300 -0.82040500
v -0.08265710 0.32441300 -0.77986600
v -0.08422350 0.32754300 -0.77986600
v -0.08422350 0.38369800 -0.82351600
v -0.07485800 0.32754300 -0.83287500
v -0.08109070 0.38680900 -0.82975600
v -0.03431270 0.44294600 -0.85783200
v -0.07174170 0.32130300 -0.82975600
v -0.07485800 0.31819300 -0.82351600
v -0.07609470 0.31694500 -0.77986600
v -0.07799080 0.31819300 -0.77986600
v -0.08109070 0.32130300 -0.77986600
v -0.08422350 0.38369800 -0.77986600
v -0.07485800 0.42733800 -0.77986600
v -0.06549250 0.46790400 -0.83287500
v -0.06237620 0.47101400 -0.83911400
v 0.07485800 0.32754300 -0.83287500
v -0.02806350 0.43981700 -0.86095200
v -0.03431270 0.45229600 -0.85783200
v 0.07797440 0.32130300 -0.82975600
v -0.06862540 0.31506400 -0.77986600
v 0.07485800 0.31819300 -0.82351600
v -0.07406660 0.43085800 -0.77986600
v -0.06549250 0.46790400 -0.77986600
v -0.06237620 0.47414400 -0.83287500
v -0.06082630 0.47492600 -0.83755100
v 0.07954080 0.38837300 -0.83053300
v 0.08109070 0.32754300 -0.82975600
v 0.08188210 0.32286800 -0.82819200
v 0.01871450 0.43981700 -0.86095200
v -0.02806350 0.44918500 -0.86095200
v -0.03274630 0.45620700 -0.85626800
v -0.01871450 0.45970900 -0.85861000
v 0.08109070 0.32130300 -0.82351600
v 0.06237620 0.31506400 -0.77986600
v 0.07408310 0.31662800 -0.77986600
v -0.06237620 0.47414400 -0.77986600
v -0.02494720 0.50221200 -0.82351600
v -0.01403180 0.46555700 -0.85626800
v -0.02338080 0.50299400 -0.82819200
v 0.08109070 0.38369800 -0.82975600
v 0.06082630 0.45386000 -0.83989200
v 0.08422350 0.32754300 -0.82351600
v 0.08422350 0.32754300 -0.77986600
v 0.08109070 0.32130300 -0.77986600
v 0.08422350 0.38369800 -0.82351600
v 0.01871450 0.44918500 -0.86095200
v -0.00934901 0.45853500 -0.86095200
v -0.00934901 0.46477500 -0.85783200
v -0.02494720 0.50221200 -0.77986600
v -0.01871450 0.50534100 -0.82351600
v -0.01871450 0.50221200 -0.82975600
v 0.06237620 0.44918500 -0.83911400
v 0.02338080 0.45386000 -0.85861000
v 0.05146080 0.47257900 -0.83989200
v 0.05302720 0.47414400 -0.83599500
v 0.06237620 0.45542500 -0.83599500
v 0.06549250 0.44918500 -0.83287500
v 0.08422350 0.38369800 -0.77986600
v 0.00000000 0.45853500 -0.86095200
v 0.00466626 0.46322900 -0.85861000
v 0.00000000 0.46477500 -0.85783200
v -0.01871450 0.50534100 -0.77986600
v 0.00000000 0.50534100 -0.82351600
v 0.00000000 0.50221200 -0.82975600
v 0.00466626 0.50064800 -0.83053300
v 0.05302720 0.47414400 -0.78920900
v 0.06239270 0.45540600 -0.77986600
v 0.00623267 0.50221200 -0.82663600
v 0.06549250 0.44918500 -0.77986600
v 0.00000000 0.50534100 -0.77986600
v 0.05302720 0.47412500 -0.77986600
v 0.05614350 0.46790400 -0.77986600
v 0.05770990 0.46477500 -0.77986600
v 0.00623267 0.50221200 -0.78920900
v 0.00623267 0.50219300 -0.77986600
f 33 50 45
f 34 36 51
f 36 42 52
f 36 52 51
f 37 48 39
f 41 53 66
f 41 66 54
f 43 54 55
f 42 43 55
f 42 55 52
f 44 56 49
f 45 50 57
f 45 57 58
f 45 58 59
f 32 49 46
f 41 54 43
f 32 44 49
f 23 37 25
f 32 47 48
f 25 37 39
f 25 39 38
f 28 40 53
f 28 53 41
f 28 41 29
f 29 42 36
f 29 36 35
f 29 41 43
f 29 43 42
f 30 44 31
f 30 33 45
f 30 45 56
f 30 56 44
f 31 44 32
f 32 46 47
f 32 48 37
f 45 59 60
f 70 78 79
f 45 61 56
f 59 70 77
f 59 77 71
f 59 71 60
f 59 72 78
f 59 78 70
f 60 71 61
f 61 71 73
f 58 72 59
f 64 65 68
f 67 72 68
f 67 74 78
f 67 78 72
f 68 72 69
f 70 75 76
f 70 76 77
f 23 32 37
f 64 68 69
f 45 60 61
f 58 69 72
f 57 64 58
f 46 49 62
f 46 62 47
f 49 56 61
f 49 61 73
f 49 73 62
f 50 63 64
f 50 64 57
f 58 64 69
f 51 52 64
f 52 65 64
f 52 55 68
f 52 68 65
f 54 66 74
f 54 74 67
f 54 67 68
f 54 68 55
f 51 64 63
f 22 36 34
f 5 27 26
f 22 29 35
f 5 15 14
f 5 14 13
f 5 13 24
f 5 24 38
f 5 38 39
f 5 39 48
f 5 48 47
f 5 47 62
f 5 62 73
f 5 73 71
f 5 71 77
f 5 77 76
f 5 76 75
f 5 75 79
f 5 79 74
f 4 15 5
f 4 14 15
f 4 13 14
f 4 12 13
f 70 79 75
f 1 2 3
f 1 3 4
f 1 4 5
f 1 5 6
f 1 6 16
f 1 16 7
f 5 74 66
f 1 7 9
f 2 8 3
f 2 9 22
f 2 22 10
f 2 10 8
f 3 8 11
f 3 11 12
f 3 12 4
f 1 9 2
f 22 35 36
f 5 66 53
f 5 40 27
f 17 26 18
f 18 26 27
f 18 27 40
f 18 40 28
f 18 28 29
f 18 29 19
f 19 29 22
f 20 30 31
f 20 31 32
f 20 32 23
f 20 33 30
f 21 34 51
f 21 51 63
f 21 63 50
f 21 50 33
f 12 38 24
f 12 25 38
f 12 24 13
f 11 25 12
f 5 26 17
f 5 17 16
f 5 16 6
f 7 16 17
f 7 17 18
f 7 18 19
f 7 19 9
f 5 53 40
f 8 20 23
f 8 10 21
f 8 21 33
f 8 33 20
f 9 19 22
f 10 22 34
f 10 34 21
f 11 23 25
f 8 23 11
f 74 79 78

