# https://github.com/mikedh/trimesh
v -0.07485800 0.04311700 0.17306600
v -0.09358170 0.25268200 0.17306600
v 0.07485800 0.04311700 0.17306600
v -0.09358170 0.04311700 0.29950100
v -0.09358170 0.28078400 0.17306600
v 0.08421990 0.30878500 0.17306600
v 0.08421990 0.04311700 0.29950100
v -0.09358170 0.04311700 0.52403800
v -0.08421990 0.44914300 0.17306600
v -0.09358170 0.48661200 0.30883100
v 0.08421990 0.44914300 0.17306600
v 0.09358170 0.22463000 0.43051500
v 0.09358170 0.21526300 0.43984400
v 0.09358170 0.20589600 0.44923100
v 0.08421990 0.04311700 0.52403800
v -0.09098020 0.04311700 0.53707500
v -0.07485800 0.24331500 0.73924500
v -0.09358170 0.05617120 0.52403800
v -0.08268090 0.45223200 0.17306600
v -0.09358170 0.48661200 0.42112800
v -0.09123670 0.49129500 0.42582100
v -0.09044890 0.49284000 0.30883100
v -0.06238170 0.49284000 0.17306600
v -0.06395730 0.48970100 0.17306600
v -0.08187480 0.45970600 0.18720400
v 0.07485800 0.48661200 0.17306600
v 0.08421990 0.48661200 0.29011400
v 0.09358170 0.25268200 0.43051500
v 0.09358170 0.20589600 0.55208300
v 0.09358170 0.27141600 0.62694800
v 0.08308400 0.04311700 0.53226600
v -0.07485800 0.04311700 0.58951500
v -0.07174350 0.23708700 0.74237400
v -0.07174350 0.24331500 0.74550300
v -0.07251300 0.24799900 0.74393800
v -0.07485800 0.47724500 0.59890200
v -0.08421990 0.28078400 0.62694800
v -0.07485800 0.48661200 0.58951500
v -0.05613440 0.54276500 0.58951500
v -0.05380760 0.54744800 0.59420900
v -0.09044890 0.49284000 0.42112800
v -0.05301990 0.54899300 0.57079900
v -0.08889160 0.49363700 0.30419500
v -0.05613440 0.49597900 0.17306600
v -0.05146260 0.54979000 0.56616400
v 0.07174350 0.49284000 0.17306600
v 0.08108700 0.49284000 0.28698500
v 0.05301990 0.54899300 0.56772800
v 0.08421990 0.48661200 0.43984400
v 0.09358170 0.28078400 0.57079900
v 0.09358170 0.26204900 0.46794700
v 0.09358170 0.28078400 0.62694800
v 0.07485800 0.24331500 0.73924500
v 0.07485800 0.04311700 0.58951500
v -0.07174350 0.04311700 0.59577300
v -0.06861070 0.04311700 0.60203100
v -0.07018630 0.23868100 0.74625600
v -0.06861070 0.24331500 0.75176100
v -0.07251300 0.48192800 0.60359600
v -0.07251300 0.49129500 0.59420900
v -0.06315120 0.24799900 0.75332500
v -0.05926720 0.24959300 0.75489000
v -0.04990540 0.54899300 0.59577300
v -0.04679080 0.55213200 0.58951500
v -0.05301990 0.54899300 0.58951500
v 0.06549620 0.49597900 0.17306600
v -0.04679080 0.55213200 0.57079900
v 0.04679080 0.55213200 0.57079900
v 0.05301990 0.54899300 0.58644400
v 0.05613440 0.54276500 0.58951500
v 0.07485800 0.48661200 0.58951500
v 0.07485800 0.47724500 0.59890200
v 0.06861070 0.24645400 0.75176100
v 0.07174350 0.24022600 0.74550300
v 0.07174350 0.04311700 0.59577300
v -0.05926720 0.04311700 0.61136100
v -0.06082440 0.22931400 0.75095000
v -0.06082440 0.23868100 0.75564300
v -0.06238170 0.24331500 0.75489000
v -0.05613440 0.24331500 0.75796100
v 0.05301990 0.24959300 0.75489000
v -0.01559080 0.47101600 0.63946400
v -0.02181990 0.46478800 0.64259300
v 0.04365800 0.54899300 0.59577300
v 0.04679080 0.55213200 0.58951500
v 0.05146260 0.54744800 0.59420900
v 0.07330080 0.48501700 0.59733800
v 0.04679080 0.54276500 0.59890200
v 0.05613440 0.24331500 0.75796100
v 0.06238170 0.24022600 0.75489000
v 0.06082440 0.23165600 0.75332500
v 0.06861070 0.04311700 0.60203100
v -0.05547480 0.04311700 0.61327300
v -0.02339540 0.21994700 0.76503000
v 0.01247630 0.47101600 0.63946400
v 0.01559080 0.22149100 0.76421900
v 0.01870530 0.21840200 0.76421900
v 0.02339540 0.21760500 0.76265500
v 0.05613440 0.23280200 0.75564300
v 0.05926720 0.04311700 0.61136100
v -0.04299850 0.04311700 0.61953100
v -0.01870530 0.21840200 0.76421900
v -0.03429620 0.04311700 0.62387700
v -0.02806720 0.04311700 0.62694800
v 0.02806720 0.04311700 0.62694800
v 0.03429620 0.04311700 0.62387700
v 0.04310840 0.04311700 0.61947300
v 0.05247020 0.04311700 0.61477900
f 1 2 5
f 49 69 70
f 49 70 71
f 49 71 52
f 52 72 53
f 52 71 72
f 53 72 73
f 53 73 74
f 53 74 54
f 54 74 75
f 56 76 77
f 48 66 68
f 56 77 58
f 58 77 78
f 58 78 79
f 58 79 62
f 58 62 61
f 62 79 80
f 62 80 89
f 62 89 81
f 62 81 95
f 62 95 82
f 62 82 83
f 56 58 57
f 48 85 69
f 48 68 85
f 46 48 47
f 33 57 58
f 33 58 34
f 33 55 56
f 34 58 35
f 35 58 40
f 35 40 59
f 36 59 60
f 36 60 38
f 38 60 40
f 38 40 39
f 40 60 59
f 40 58 61
f 40 61 62
f 40 62 63
f 40 63 64
f 40 64 65
f 42 65 45
f 44 45 67
f 44 67 68
f 44 68 66
f 45 65 64
f 45 64 67
f 46 66 48
f 62 83 63
f 63 84 85
f 63 85 64
f 63 83 82
f 84 88 86
f 89 94 96
f 89 96 97
f 89 97 98
f 89 98 99
f 89 99 90
f 90 99 91
f 91 99 98
f 91 98 100
f 91 100 92
f 93 101 94
f 94 102 97
f 94 97 96
f 94 101 103
f 94 103 104
f 94 104 102
f 97 102 104
f 97 104 105
f 97 105 98
f 98 105 106
f 98 106 107
f 98 107 108
f 98 108 100
f 84 95 88
f 33 56 57
f 84 86 85
f 81 89 88
f 63 82 95
f 63 95 84
f 64 85 68
f 64 68 67
f 69 86 70
f 70 86 87
f 70 87 71
f 71 87 72
f 72 87 73
f 73 88 89
f 73 89 90
f 73 90 91
f 73 91 74
f 73 87 86
f 73 86 88
f 74 91 92
f 74 92 75
f 76 93 94
f 76 94 77
f 77 94 78
f 78 94 80
f 78 80 79
f 80 94 89
f 81 88 95
f 32 55 33
f 69 85 86
f 30 53 31
f 1 76 56
f 1 56 55
f 1 55 32
f 1 32 16
f 1 16 8
f 1 8 4
f 1 4 2
f 2 4 8
f 2 8 18
f 2 18 20
f 1 93 76
f 2 20 10
f 3 6 7
f 5 10 9
f 6 11 28
f 6 28 12
f 6 12 7
f 7 12 13
f 7 13 14
f 7 14 29
f 7 29 15
f 8 16 17
f 2 10 5
f 1 101 93
f 1 103 101
f 1 105 104
f 31 53 54
f 1 5 9
f 1 9 19
f 1 19 24
f 1 24 23
f 1 23 44
f 1 44 66
f 1 66 46
f 1 46 26
f 1 26 11
f 1 11 6
f 1 6 3
f 1 3 7
f 1 7 15
f 1 15 31
f 1 31 54
f 1 54 75
f 1 75 92
f 1 92 100
f 1 100 108
f 1 108 107
f 1 107 106
f 1 106 105
f 8 17 18
f 9 10 19
f 1 104 103
f 10 21 22
f 20 38 39
f 20 39 40
f 20 40 21
f 21 41 22
f 21 40 65
f 21 65 41
f 22 41 65
f 22 65 42
f 22 42 45
f 22 43 23
f 23 43 45
f 23 45 44
f 26 46 47
f 26 47 27
f 27 47 48
f 27 48 69
f 27 69 49
f 27 49 52
f 27 52 50
f 27 50 51
f 27 51 28
f 10 20 21
f 30 52 53
f 20 36 38
f 19 25 24
f 22 45 43
f 17 32 33
f 10 22 23
f 10 23 24
f 18 37 20
f 10 24 25
f 10 25 19
f 11 26 27
f 11 27 28
f 12 28 51
f 12 50 52
f 12 52 30
f 12 30 29
f 12 29 14
f 12 51 50
f 15 29 30
f 15 30 31
f 16 32 17
f 17 37 18
f 17 33 34
f 17 34 35
f 17 35 59
f 17 59 36
f 17 36 20
f 12 14 13
f 17 20 37

