# https://github.com/mikedh/trimesh
v -0.05657410 0.20544700 -0.28923800
v 0.04635120 0.20544700 -0.28923800
v -0.06060460 0.20544700 -0.28516800
v -0.05613440 0.20590200 -0.42080100
v 0.05274500 0.20544700 -0.28028400
v 0.05613440 0.20590200 -0.42080100
v -0.06527630 0.20544700 -0.27115700
v -0.05666570 0.20615800 -0.42080100
v -0.06549620 0.20590200 -0.32749100
v 0.05591450 0.20544700 -0.27179600
v 0.05631760 0.20598700 -0.42080100
v 0.06549620 0.20590200 -0.32749100
v -0.07485800 0.20544700 0.15905500
v -0.06238170 0.20900200 -0.42080100
v -0.07174350 0.20900200 -0.32441000
v -0.06861070 0.21213000 -0.42080100
v 0.07469310 0.20544700 0.13097500
v 0.06238170 0.20900200 -0.42080100
v 0.07174350 0.20900200 -0.32749100
v -0.07485800 0.20544700 0.17300800
v -0.09358170 0.25268500 0.02807280
v -0.08421990 0.23397200 -0.26197100
v -0.07485800 0.21525900 -0.32749100
v -0.07031450 0.21551400 -0.42080100
v 0.07485800 0.20544700 0.14033500
v 0.06861070 0.21213000 -0.42080100
v 0.09044890 0.23710000 -0.38365200
v 0.07485800 0.20544700 0.17300800
v -0.09358170 0.25268500 0.17300800
v -0.09358170 0.28075400 0.02807280
v -0.08421990 0.30882400 -0.42080100
v -0.08187480 0.24449400 -0.40237200
v -0.08108700 0.23710000 -0.39923200
v -0.07485800 0.22461500 -0.42080100
v -0.07174350 0.21835800 -0.42080100
v 0.09123670 0.23863600 -0.38836100
v 0.09358170 0.24332800 -0.38365200
v 0.06870230 0.21230100 -0.42080100
v 0.08421990 0.30882400 0.17300800
v 0.09358170 0.24332800 -0.12168700
v -0.09358170 0.28075400 0.17300800
v -0.08421990 0.48659800 -0.00936728
v -0.08421990 0.42110200 -0.41173200
v -0.08421990 0.38393200 -0.42080100
v -0.07491300 0.22487100 -0.42080100
v 0.07174350 0.21835800 -0.42080100
v 0.07485800 0.22461500 -0.42080100
v 0.08421990 0.30882400 -0.42080100
v 0.09358170 0.27139800 -0.38365200
v 0.08421990 0.44917200 0.17300800
v 0.09358170 0.27139800 -0.12168700
v -0.08421990 0.44917200 0.17300800
v -0.08421990 0.48659800 0.10289500
v -0.08187480 0.49129100 0.10760400
v -0.08108700 0.49285500 -0.00936728
v -0.06238170 0.48349800 -0.42080100
v -0.06549620 0.47724200 -0.42080100
v -0.07485800 0.45852800 -0.41173200
v -0.07174350 0.46165700 -0.41795200
v -0.08108700 0.42423100 -0.41795200
v -0.07965800 0.42135800 -0.42080100
v 0.08421990 0.38367600 -0.42080100
v 0.08421990 0.40238900 -0.40237200
v 0.08421990 0.41174600 -0.36493200
v 0.08421990 0.48659800 -0.00936728
v 0.07485800 0.48659800 0.17300800
v 0.08421990 0.48659800 0.09353470
v -0.06238170 0.49285500 0.17300800
v -0.08108700 0.49285500 0.10289500
v -0.07485800 0.49598300 -0.00936728
v -0.07952980 0.49362300 -0.01407640
v -0.05613440 0.48659800 -0.42080100
v -0.07031450 0.45878400 -0.42080100
v 0.07485800 0.44917200 -0.42080100
v 0.08108700 0.49285500 -0.01250670
v 0.07174350 0.49285500 0.17300800
v 0.08108700 0.49285500 0.09045350
v -0.05613440 0.49598300 0.17300800
v -0.07485800 0.49598300 0.10289500
v 0.07485800 0.49598300 -0.00936728
v 0.04679080 0.48659800 -0.42080100
v 0.07174350 0.45542900 -0.42080100
v 0.06861070 0.46165700 -0.42080100
v 0.05847940 0.47724200 -0.41992900
v 0.05732520 0.47857800 -0.42080100
v 0.05301990 0.48349800 -0.42080100
v 0.04704730 0.48648400 -0.42080100
v 0.06549620 0.49598300 0.17300800
v 0.07485800 0.49598300 0.09353470
v 0.05908400 0.47604700 -0.42080100
v 0.05827790 0.47724200 -0.42080100
f 39 51 50
f 42 56 57
f 39 40 51
f 41 52 53
f 42 53 54
f 42 54 55
f 42 55 56
f 42 57 58
f 49 62 63
f 43 58 59
f 43 59 60
f 43 60 44
f 44 60 61
f 49 63 64
f 49 64 65
f 49 65 67
f 37 51 40
f 49 67 51
f 42 58 43
f 37 49 51
f 23 35 24
f 37 48 62
f 50 51 67
f 25 27 36
f 25 36 37
f 25 37 40
f 25 40 28
f 26 38 36
f 26 36 27
f 28 40 39
f 30 41 53
f 30 53 42
f 30 42 43
f 30 43 44
f 31 45 32
f 32 45 33
f 33 45 34
f 36 38 46
f 36 46 47
f 36 47 48
f 36 48 37
f 37 62 49
f 50 67 66
f 70 81 72
f 52 54 53
f 70 78 88
f 70 88 89
f 70 89 80
f 70 80 81
f 74 82 75
f 75 80 89
f 75 89 77
f 75 82 83
f 70 79 78
f 75 83 84
f 75 85 86
f 75 86 87
f 75 87 80
f 76 77 89
f 76 89 88
f 80 87 81
f 84 90 91
f 84 91 85
f 75 84 85
f 70 72 71
f 68 79 69
f 68 78 79
f 54 68 69
f 54 69 55
f 55 69 79
f 55 79 70
f 55 70 71
f 55 71 56
f 56 71 72
f 57 73 59
f 57 59 58
f 59 73 61
f 59 61 60
f 62 74 63
f 63 74 64
f 64 74 65
f 65 75 77
f 65 77 67
f 65 74 75
f 66 67 76
f 67 77 76
f 52 68 54
f 23 34 35
f 83 90 84
f 22 33 23
f 4 44 61
f 4 61 73
f 4 73 57
f 4 57 56
f 4 56 72
f 4 72 81
f 4 81 87
f 4 86 85
f 4 31 44
f 4 85 91
f 4 90 83
f 4 83 82
f 4 82 74
f 4 74 62
f 4 62 48
f 4 48 47
f 4 47 46
f 4 46 38
f 4 91 90
f 4 45 31
f 4 34 45
f 4 35 34
f 1 2 5
f 1 5 10
f 23 33 34
f 1 10 17
f 1 17 25
f 1 25 28
f 1 28 20
f 1 20 13
f 1 13 7
f 1 7 3
f 1 3 4
f 1 4 6
f 1 6 2
f 2 6 5
f 3 7 4
f 4 8 14
f 4 14 16
f 4 16 24
f 4 24 35
f 4 38 26
f 4 26 18
f 4 87 86
f 4 11 6
f 19 26 27
f 19 27 25
f 20 28 39
f 20 39 50
f 20 50 66
f 20 66 76
f 20 76 88
f 20 88 78
f 20 78 68
f 20 68 52
f 4 18 11
f 20 41 29
f 21 29 41
f 21 41 30
f 21 30 44
f 21 44 31
f 21 31 32
f 21 32 22
f 22 32 33
f 18 26 19
f 17 19 25
f 20 52 41
f 15 23 16
f 16 23 24
f 4 7 9
f 4 9 8
f 5 6 10
f 6 11 12
f 7 13 9
f 8 9 14
f 9 15 16
f 9 16 14
f 9 13 15
f 6 12 10
f 11 18 19
f 11 19 12
f 12 19 17
f 13 20 29
f 13 29 21
f 13 21 22
f 13 22 23
f 10 12 17
f 13 23 15

