# https://github.com/mikedh/trimesh
v -0.07490750 0.22486900 -0.42085900
v 0.07485800 0.22462200 -0.42085900
v 0.04677800 0.48659700 -0.42085900
v 0.08422350 0.30882300 -0.42085900
v 0.07485800 0.44916800 -0.42085900
v 0.05302720 0.48349200 -0.42085900
v 0.04677800 0.48662500 -0.59892700
v 0.05302720 0.48349200 -0.48405700
v 0.05302720 0.48349000 -0.60204400
v 0.04677800 0.47724700 -0.69910200
v 0.05302720 0.47413900 -0.69910200
v 0.05925990 0.47100500 -0.68938100
v 0.06862540 0.46165400 -0.67066200
v 0.05769340 0.47881500 -0.49443000
v 0.05769340 0.47882000 -0.45699000
v 0.05731420 0.47857300 -0.42085900
v 0.05827050 0.47725400 -0.42085900
v 0.06862540 0.46164500 -0.42085900
v 0.07485800 0.44916800 -0.67378000
v 0.07174170 0.45541100 -0.67689800
v 0.06237620 0.46478800 -0.69561700
v 0.06273890 0.46184000 -0.69910200
v 0.05970500 0.46691400 -0.69910200
v 0.06402500 0.45854600 -0.69910200
v 0.08422350 0.38365900 -0.69910200
v 0.05858380 0.46832200 -0.69910200
v -0.06549250 0.46789700 -0.69910200
v -0.05614350 0.47724700 -0.69910200
v -0.05614350 0.48662500 -0.59892700
v -0.06082630 0.48426100 -0.60360900
v -0.06237620 0.48349000 -0.59892700
v -0.06237620 0.47413900 -0.69910200
v -0.07485800 0.45854600 -0.67378000
v -0.06862540 0.47100500 -0.67378000
v -0.06237620 0.48349200 -0.42085900
v -0.07485800 0.45853900 -0.43983400
v -0.06549250 0.47725400 -0.42085900
v -0.07030720 0.45878700 -0.42085900
v -0.07967270 0.42135800 -0.42085900
v -0.08422350 0.42111000 -0.43983400
v -0.08422350 0.38392900 -0.42085900
v -0.08422350 0.30882300 -0.42085900
v -0.08422350 0.32755400 -0.69910200
v -0.08422350 0.29947500 -0.67378000
v -0.08422350 0.29948000 -0.47726400
v -0.07485800 0.22461500 -0.67378000
v -0.06862540 0.21214500 -0.42085900
v -0.07174170 0.21837300 -0.67066200
v -0.07017530 0.21994000 -0.67846300
v -0.07208800 0.25652000 -0.69910200
v -0.07156030 0.25545700 -0.69910200
v -0.07424790 0.26204500 -0.69910200
v -0.07485800 0.26480800 -0.69910200
v -0.06273890 0.24661100 -0.69910200
v -0.06237620 0.21837300 -0.68001600
v -0.06549250 0.21526400 -0.67378000
v 0.06862540 0.21837300 -0.68001600
v -0.05337340 0.24331700 -0.69910200
v 0.04677800 0.24331700 -0.69910200
v 0.07174170 0.24645200 -0.69910200
v -0.05614350 0.24392800 -0.69910200
v 0.07485800 0.25269400 -0.69910200
v 0.07251670 0.21994000 -0.67846300
v 0.07485800 0.22461500 -0.67378000
v 0.08422350 0.29947500 -0.67378000
v 0.08422350 0.29947500 -0.48407200
v 0.08422350 0.32755400 -0.69910200
v 0.08422350 0.29948000 -0.47726400
v 0.07174170 0.21837300 -0.67378000
v 0.06549250 0.21526400 -0.67378000
v 0.05614350 0.20590700 -0.45854900
v -0.05614350 0.20590700 -0.45854900
v 0.05614350 0.20590700 -0.42085900
v 0.06237620 0.20901300 -0.45854900
v 0.06862540 0.21214500 -0.45854900
v 0.06862540 0.21214500 -0.42085900
v -0.05614350 0.20590700 -0.42085900
v -0.06862540 0.21214500 -0.46166700
v 0.08422350 0.40239600 -0.43048000
v 0.08422350 0.38368100 -0.42085900
v 0.08422350 0.40238800 -0.67378000
v -0.08422350 0.38365900 -0.69910200
v -0.07485800 0.43046700 -0.69910200
v -0.08422350 0.42111600 -0.67378000
v -0.05614350 0.48659700 -0.42085900
f 66 68 2
f 66 2 64
f 69 64 2
f 69 63 64
f 69 57 63
f 69 70 57
f 74 76 73
f 71 70 69
f 71 69 74
f 71 73 72
f 71 74 73
f 75 74 69
f 75 76 74
f 75 69 76
f 69 2 76
f 76 2 73
f 66 25 68
f 71 72 70
f 67 65 62
f 60 54 25
f 67 25 65
f 73 2 77
f 55 56 49
f 55 57 56
f 58 57 55
f 59 57 58
f 59 60 57
f 59 58 60
f 58 54 60
f 61 54 58
f 61 55 54
f 61 58 55
f 62 60 25
f 62 63 60
f 62 64 63
f 65 64 62
f 65 66 64
f 65 25 66
f 67 62 25
f 72 73 77
f 14 15 13
f 78 72 47
f 83 27 82
f 83 84 27
f 83 82 84
f 82 43 84
f 40 84 43
f 40 33 84
f 36 33 40
f 33 27 84
f 42 1 37
f 37 1 3
f 85 37 3
f 35 37 85
f 35 85 29
f 31 35 29
f 85 3 29
f 7 29 3
f 55 49 54
f 82 27 43
f 43 27 54
f 54 27 25
f 68 25 79
f 78 56 72
f 78 48 56
f 78 47 48
f 48 49 56
f 72 56 70
f 70 56 57
f 47 77 1
f 77 2 1
f 72 77 47
f 57 60 63
f 4 68 79
f 80 4 79
f 80 5 4
f 80 79 5
f 5 79 19
f 81 19 79
f 81 25 19
f 81 79 25
f 4 2 68
f 51 54 49
f 46 44 43
f 52 43 54
f 18 5 13
f 18 6 5
f 13 5 19
f 20 13 19
f 20 21 13
f 22 21 20
f 22 23 21
f 22 24 23
f 22 20 24
f 20 19 24
f 24 19 25
f 24 25 11
f 23 24 11
f 26 23 11
f 26 12 23
f 26 11 12
f 12 21 23
f 18 13 15
f 12 13 21
f 17 18 15
f 16 6 17
f 2 3 1
f 4 3 2
f 51 52 54
f 6 3 5
f 6 7 3
f 8 7 6
f 9 7 8
f 9 10 7
f 9 11 10
f 9 12 11
f 9 13 12
f 9 14 13
f 9 15 14
f 9 8 15
f 8 6 15
f 16 15 6
f 16 17 15
f 17 6 18
f 11 25 27
f 5 3 4
f 10 11 28
f 41 40 42
f 42 40 43
f 44 42 43
f 45 42 44
f 45 1 42
f 45 44 1
f 46 1 44
f 46 47 1
f 46 48 47
f 46 49 48
f 50 49 46
f 50 51 49
f 50 52 51
f 50 46 52
f 53 52 46
f 53 43 52
f 28 11 27
f 41 42 37
f 39 41 37
f 53 46 43
f 39 36 40
f 10 28 7
f 28 29 7
f 30 29 28
f 30 31 29
f 30 32 31
f 39 40 41
f 32 28 27
f 32 27 33
f 30 28 32
f 34 31 32
f 34 35 31
f 34 33 35
f 36 35 33
f 36 37 35
f 38 37 36
f 38 39 37
f 38 36 39
f 34 32 33

