# https://github.com/mikedh/trimesh
v 0.07486540 0.20544700 0.17306600
v -0.07486540 0.20544700 0.17306600
v 0.07486540 0.10941800 0.17306600
v 0.07486540 0.20544700 0.14037200
v -0.07486540 0.10941800 0.17306600
v -0.07486540 0.20544700 0.15907100
v 0.07486540 0.10941800 0.14972200
v 0.07486540 0.12165700 0.14037200
v 0.07468950 0.20544700 0.13100400
v -0.07486540 0.10941800 0.15907100
v -0.06549990 0.20544700 -0.02466320
v 0.07146500 0.10941800 0.14132100
v 0.05302720 0.19027600 -0.02466320
v 0.05415570 0.19254100 -0.02466320
v 0.05613440 0.19651700 -0.02466320
v 0.07464550 0.20544700 0.13057800
v -0.06549990 0.10941800 0.12165400
v -0.06549990 0.19651700 -0.02466320
v 0.05613440 0.20544700 -0.02466320
v 0.02806720 0.10941800 0.03743320
v 0.04678350 0.18715500 -0.02466320
v 0.02711450 0.10941800 0.03551690
v 0.02494530 0.10941800 0.03120030
v 0.01871630 0.10941800 0.02808390
v -0.06237800 0.19027600 -0.02466320
v -0.03743270 0.10941800 0.03743320
v -0.05613440 0.18715500 -0.02466320
v -0.02806720 0.10941800 0.02808390
v -0.03093990 0.10941800 0.02951630
v -0.03431080 0.10941800 0.03120030
f 11 27 25
f 11 21 27
f 11 13 21
f 11 14 13
f 11 15 14
f 8 16 9
f 10 18 17
f 8 15 16
f 7 15 8
f 11 25 18
f 7 14 15
f 11 19 15
f 12 20 13
f 25 27 28
f 13 22 23
f 13 23 24
f 13 24 21
f 15 19 16
f 17 18 25
f 17 25 26
f 21 24 28
f 21 28 27
f 25 28 29
f 25 29 30
f 25 30 26
f 7 13 14
f 13 20 22
f 7 12 13
f 1 16 19
f 6 11 18
f 6 18 10
f 1 2 5
f 1 5 3
f 1 7 8
f 1 8 4
f 1 4 9
f 1 9 16
f 1 19 11
f 1 11 6
f 1 6 2
f 2 6 10
f 2 10 5
f 1 3 7
f 3 10 17
f 3 5 10
f 3 12 7
f 3 22 20
f 3 23 22
f 3 24 23
f 3 20 12
f 3 29 28
f 3 30 29
f 3 26 30
f 3 17 26
f 3 28 24
f 4 8 9

