# https://github.com/mikedh/trimesh
v 0.07486540 0.10941800 0.17306600
v -0.07486540 0.10941800 0.17306600
v 0.07486540 -0.00934707 0.17306600
v 0.07486540 0.10941800 0.14972200
v -0.07486540 0.10941800 0.15907100
v -0.07486540 -0.00934707 0.17306600
v 0.07174350 -0.01559320 0.17306600
v 0.07486540 -0.00934707 0.16844000
v 0.07146500 0.10941800 0.14132100
v 0.07486540 0.03743660 0.14972200
v 0.05613440 0.03743660 -0.02466320
v 0.05444890 0.04083560 -0.02466320
v 0.05302720 0.04368280 -0.02466320
v -0.07486540 0.00000967 0.15907100
v -0.06549990 0.10941800 0.12165400
v -0.06237800 0.04368280 -0.02466320
v -0.06549990 0.03743660 -0.02466320
v -0.07174350 -0.01559320 0.17306600
v -0.07486540 -0.00934707 0.16844000
v 0.06857770 -0.01717360 0.17306600
v 0.07174350 -0.01559320 0.16844000
v 0.07486540 0.00000967 0.15907100
v 0.07252030 -0.01402540 0.16375500
v 0.05613440 -0.00934707 -0.02466320
v 0.02806720 0.10941800 0.03743320
v 0.04678350 0.04678080 -0.02466320
v 0.02494530 0.10941800 0.03120030
v 0.02711450 0.10941800 0.03551690
v -0.06549990 0.00000967 -0.02466320
v -0.06549990 -0.00934707 -0.01870130
v -0.03743270 0.10941800 0.03743320
v -0.06012090 0.04481160 -0.02466320
v -0.03431080 0.10941800 0.03120030
v -0.07023390 -0.01634580 0.17306600
v -0.07174350 -0.01559320 0.17155600
v 0.06549990 -0.01870380 0.17306600
v 0.06549990 -0.01870380 0.16844000
v 0.05302720 -0.01559320 -0.02466320
v 0.05415570 -0.01333560 -0.02466320
v -0.05613440 0.04678080 -0.02466320
v 0.01871630 0.10941800 0.02808390
v -0.06431270 -0.00815552 -0.02466320
v -0.06082440 -0.01402540 -0.02466320
v -0.06237800 -0.01559320 -0.01558490
v -0.03093990 0.10941800 0.02951630
v -0.06549990 -0.01870380 0.17306600
v -0.06549990 -0.01870380 0.16844000
v 0.04678350 -0.01870380 -0.02466320
v -0.02806720 0.10941800 0.02808390
v -0.05494720 -0.01751230 -0.02466320
v -0.05613440 -0.01870380 -0.01870130
v -0.04678350 -0.01870380 -0.02466320
f 20 37 21
f 20 36 37
f 14 29 30
f 19 44 35
f 19 30 44
f 18 35 34
f 16 33 32
f 16 31 33
f 15 31 16
f 14 30 19
f 11 40 26
f 13 27 28
f 13 26 27
f 11 13 12
f 11 26 13
f 11 32 40
f 11 17 16
f 11 29 17
f 11 42 29
f 21 37 48
f 11 43 42
f 13 28 25
f 21 48 38
f 35 44 51
f 23 38 39
f 11 50 43
f 50 52 51
f 43 51 44
f 43 50 51
f 40 45 49
f 36 48 37
f 36 52 48
f 36 51 52
f 36 47 51
f 36 46 47
f 21 38 23
f 35 51 47
f 34 35 47
f 33 45 40
f 32 33 40
f 30 43 44
f 30 42 43
f 29 42 30
f 26 41 27
f 26 49 41
f 26 40 49
f 23 39 24
f 34 47 46
f 11 52 50
f 11 16 32
f 11 38 48
f 1 31 15
f 1 33 31
f 1 45 33
f 1 49 45
f 1 41 49
f 1 27 41
f 1 28 27
f 1 25 28
f 1 9 25
f 1 4 9
f 1 15 5
f 1 10 4
f 1 8 22
f 1 3 8
f 1 7 3
f 1 36 20
f 1 46 36
f 1 34 46
f 1 18 34
f 1 6 18
f 1 2 6
f 11 48 52
f 1 22 10
f 1 5 2
f 1 20 7
f 2 14 19
f 11 39 38
f 2 5 14
f 11 24 39
f 10 22 24
f 9 13 25
f 8 23 24
f 8 21 23
f 7 20 21
f 6 35 18
f 6 19 35
f 5 29 14
f 8 24 22
f 5 16 17
f 5 17 29
f 3 21 8
f 4 10 24
f 2 19 6
f 4 24 11
f 4 12 13
f 4 13 9
f 5 15 16
f 4 11 12
f 3 7 21

