# https://github.com/mikedh/trimesh
v 0.05614900 0.20544700 -0.02470840
v -0.06550720 0.20544700 -0.02470840
v 0.05614900 0.19652000 -0.02470840
v 0.05614900 0.20544700 -0.25264600
v -0.06550720 0.19652000 -0.02470840
v -0.06550720 0.20544700 -0.25264600
v 0.05302900 0.19027900 -0.02470840
v 0.05614900 0.16479000 -0.18715500
v 0.05614900 0.19652000 -0.25264600
v 0.05592280 0.20544700 -0.27181000
v -0.06238720 0.19027900 -0.02470840
v -0.06550720 0.16479000 -0.18715500
v -0.06541190 0.20544700 -0.26191700
v -0.06550720 0.19652000 -0.25264600
v 0.04678900 0.18716200 -0.02470840
v 0.05451760 0.16479000 -0.18062900
v 0.05614900 0.16479000 -0.23760100
v 0.05380310 0.20120000 -0.27605700
v 0.05274320 0.20544700 -0.28030400
v 0.05472000 0.16479000 -0.24402300
v -0.05614720 0.18716200 -0.02470840
v -0.06407820 0.16479000 -0.18073300
v -0.06550720 0.16479000 -0.23760100
v -0.06528090 0.20544700 -0.27116200
v 0.04678900 0.16479000 -0.17493200
v 0.05363630 0.16479000 -0.17848000
v 0.04634840 0.20544700 -0.28921200
v 0.05349340 0.16479000 -0.24645700
v 0.05196920 0.16479000 -0.24904700
v -0.06285160 0.16479000 -0.17829900
v -0.05614720 0.16479000 -0.17493200
v -0.06423300 0.16479000 -0.24329800
v -0.06506660 0.20544700 -0.27181000
v -0.05657590 0.20544700 -0.28921200
v 0.04840860 0.16479000 -0.24979800
v -0.06294690 0.20544700 -0.27818000
v -0.06060090 0.20544700 -0.28519800
v -0.06264920 0.16479000 -0.24736400
v -0.05614720 0.16479000 -0.24979800
v -0.05723090 0.16479000 -0.24953900
v -0.06135120 0.16479000 -0.24850300
f 14 24 23
f 15 21 31
f 10 18 19
f 11 22 21
f 11 12 22
f 10 20 18
f 10 17 20
f 8 29 28
f 8 20 17
f 8 28 20
f 8 35 29
f 8 39 35
f 15 31 25
f 8 40 39
f 8 41 40
f 9 17 10
f 15 25 26
f 27 39 34
f 18 27 19
f 8 38 41
f 34 38 37
f 34 41 38
f 34 40 41
f 34 39 40
f 32 37 38
f 32 36 37
f 32 33 36
f 27 35 39
f 27 29 35
f 24 33 32
f 23 24 32
f 21 30 31
f 21 22 30
f 18 29 27
f 18 28 29
f 18 20 28
f 15 26 16
f 8 32 38
f 13 24 14
f 8 12 23
f 1 37 36
f 1 34 37
f 1 27 34
f 1 19 27
f 1 10 19
f 1 4 10
f 1 17 9
f 1 36 33
f 1 8 17
f 1 7 3
f 1 15 7
f 1 21 15
f 1 11 21
f 1 5 11
f 1 2 5
f 8 23 32
f 1 3 8
f 1 33 24
f 1 9 4
f 1 13 6
f 1 24 13
f 8 30 22
f 8 31 30
f 8 25 31
f 8 26 25
f 8 16 26
f 7 15 16
f 6 13 14
f 7 16 8
f 8 22 12
f 4 9 10
f 3 7 8
f 2 12 5
f 2 23 12
f 2 14 23
f 2 6 14
f 1 6 2
f 5 12 11

