o convex_0
v -0.074858 0.043117 0.173066
v -0.0935817 0.252682 0.173066
v 0.074858 0.043117 0.173066
v -0.0935817 0.043117 0.299501
v -0.0935817 0.280784 0.173066
v 0.0842199 0.308785 0.173066
v 0.0842199 0.043117 0.299501
v -0.0935817 0.043117 0.524038
v -0.0842199 0.449143 0.173066
v -0.0935817 0.486612 0.308831
v 0.0842199 0.449143 0.173066
v 0.0935817 0.22463 0.430515
v 0.0935817 0.215263 0.439844
v 0.0935817 0.205896 0.449231
v 0.0842199 0.043117 0.524038
v -0.0909802 0.043117 0.537075
v -0.074858 0.243315 0.739245
v -0.0935817 0.0561712 0.524038
v -0.0826809 0.452232 0.173066
v -0.0935817 0.486612 0.421128
v -0.0912367 0.491295 0.425821
v -0.0904489 0.49284 0.308831
v -0.0623817 0.49284 0.173066
v -0.0639573 0.489701 0.173066
v -0.0818748 0.459706 0.187204
v 0.074858 0.486612 0.173066
v 0.0842199 0.486612 0.290114
v 0.0935817 0.252682 0.430515
v 0.0935817 0.205896 0.552083
v 0.0935817 0.271416 0.626948
v 0.083084 0.043117 0.532266
v -0.074858 0.043117 0.589515
v -0.0717435 0.237087 0.742374
v -0.0717435 0.243315 0.745503
v -0.072513 0.247999 0.743938
v -0.074858 0.477245 0.598902
v -0.0842199 0.280784 0.626948
v -0.074858 0.486612 0.589515
v -0.0561344 0.542765 0.589515
v -0.0538076 0.547448 0.594209
v -0.0904489 0.49284 0.421128
v -0.0530199 0.548993 0.570799
v -0.0888916 0.493637 0.304195
v -0.0561344 0.495979 0.173066
v -0.0514626 0.54979 0.566164
v 0.0717435 0.49284 0.173066
v 0.081087 0.49284 0.286985
v 0.0530199 0.548993 0.567728
v 0.0842199 0.486612 0.439844
v 0.0935817 0.280784 0.570799
v 0.0935817 0.262049 0.467947
v 0.0935817 0.280784 0.626948
v 0.074858 0.243315 0.739245
v 0.074858 0.043117 0.589515
v -0.0717435 0.043117 0.595773
v -0.0686107 0.043117 0.602031
v -0.0701863 0.238681 0.746256
v -0.0686107 0.243315 0.751761
v -0.072513 0.481928 0.603596
v -0.072513 0.491295 0.594209
v -0.0631512 0.247999 0.753325
v -0.0592672 0.249593 0.75489
v -0.0499054 0.548993 0.595773
v -0.0467908 0.552132 0.589515
v -0.0530199 0.548993 0.589515
v 0.0654962 0.495979 0.173066
v -0.0467908 0.552132 0.570799
v 0.0467908 0.552132 0.570799
v 0.0530199 0.548993 0.586444
v 0.0561344 0.542765 0.589515
v 0.074858 0.486612 0.589515
v 0.074858 0.477245 0.598902
v 0.0686107 0.246454 0.751761
v 0.0717435 0.240226 0.745503
v 0.0717435 0.043117 0.595773
v -0.0592672 0.043117 0.611361
v -0.0608244 0.229314 0.75095
v -0.0608244 0.238681 0.755643
v -0.0623817 0.243315 0.75489
v -0.0561344 0.243315 0.757961
v 0.0530199 0.249593 0.75489
v -0.0155908 0.471016 0.639464
v -0.0218199 0.464788 0.642593
v 0.043658 0.548993 0.595773
v 0.0467908 0.552132 0.589515
v 0.0514626 0.547448 0.594209
v 0.0733008 0.485017 0.597338
v 0.0467908 0.542765 0.598902
v 0.0561344 0.243315 0.757961
v 0.0623817 0.240226 0.75489
v 0.0608244 0.231656 0.753325
v 0.0686107 0.043117 0.602031
v -0.0554748 0.043117 0.613273
v -0.0233954 0.219947 0.76503
v 0.0124763 0.471016 0.639464
v 0.0155908 0.221491 0.764219
v 0.0187053 0.218402 0.764219
v 0.0233954 0.217605 0.762655
v 0.0561344 0.232802 0.755643
v 0.0592672 0.043117 0.611361
v -0.0429985 0.043117 0.619531
v -0.0187053 0.218402 0.764219
v -0.0342962 0.043117 0.623877
v -0.0280672 0.043117 0.626948
v 0.0280672 0.043117 0.626948
v 0.0342962 0.043117 0.623877
v 0.0431084 0.043117 0.619473
v 0.0524702 0.043117 0.614779
f 1 2 5
f 1 5 9
f 1 9 19
f 1 19 24
f 1 24 23
f 1 23 44
f 1 44 66
f 1 66 46
f 1 46 26
f 1 26 11
f 1 11 6
f 1 6 3
f 1 3 7
f 1 7 15
f 1 15 31
f 1 31 54
f 1 54 75
f 1 75 92
f 1 92 100
f 1 100 108
f 1 108 107
f 1 107 106
f 1 106 105
f 1 105 104
f 1 104 103
f 1 103 101
f 1 101 93
f 1 93 76
f 1 76 56
f 1 56 55
f 1 55 32
f 1 32 16
f 1 16 8
f 1 8 4
f 1 4 2
f 2 4 8
f 2 8 18
f 2 18 20
f 2 20 10
f 2 10 5
f 3 6 7
f 5 10 9
f 6 11 28
f 6 28 12
f 6 12 7
f 7 12 13
f 7 13 14
f 7 14 29
f 7 29 15
f 8 16 17
f 8 17 18
f 9 10 19
f 10 20 21
f 10 21 22
f 10 22 23
f 10 23 24
f 10 24 25
f 10 25 19
f 11 26 27
f 11 27 28
f 12 28 51
f 12 51 50
f 12 50 52
f 12 52 30
f 12 30 29
f 12 29 14
f 12 14 13
f 15 29 30
f 15 30 31
f 16 32 17
f 17 33 34
f 17 34 35
f 17 35 59
f 17 59 36
f 17 36 20
f 17 20 37
f 17 37 18
f 17 32 33
f 18 37 20
f 19 25 24
f 20 36 38
f 20 38 39
f 20 39 40
f 20 40 21
f 21 41 22
f 21 40 65
f 21 65 41
f 22 41 65
f 22 65 42
f 22 42 45
f 22 45 43
f 22 43 23
f 23 43 45
f 23 45 44
f 26 46 47
f 26 47 27
f 27 47 48
f 27 48 69
f 27 69 49
f 27 49 52
f 27 52 50
f 27 50 51
f 27 51 28
f 30 52 53
f 30 53 31
f 31 53 54
f 32 55 33
f 33 56 57
f 33 57 58
f 33 58 34
f 33 55 56
f 34 58 35
f 35 58 40
f 35 40 59
f 36 59 60
f 36 60 38
f 38 60 40
f 38 40 39
f 40 60 59
f 40 58 61
f 40 61 62
f 40 62 63
f 40 63 64
f 40 64 65
f 42 65 45
f 44 45 67
f 44 67 68
f 44 68 66
f 45 65 64
f 45 64 67
f 46 66 48
f 46 48 47
f 48 68 85
f 48 85 69
f 48 66 68
f 49 69 70
f 49 70 71
f 49 71 52
f 52 72 53
f 52 71 72
f 53 72 73
f 53 73 74
f 53 74 54
f 54 74 75
f 56 76 77
f 56 77 58
f 56 58 57
f 58 77 78
f 58 78 79
f 58 79 62
f 58 62 61
f 62 79 80
f 62 80 89
f 62 89 81
f 62 81 95
f 62 95 82
f 62 82 83
f 62 83 63
f 63 84 85
f 63 85 64
f 63 83 82
f 63 82 95
f 63 95 84
f 64 85 68
f 64 68 67
f 69 85 86
f 69 86 70
f 70 86 87
f 70 87 71
f 71 87 72
f 72 87 73
f 73 88 89
f 73 89 90
f 73 90 91
f 73 91 74
f 73 87 86
f 73 86 88
f 74 91 92
f 74 92 75
f 76 93 94
f 76 94 77
f 77 94 78
f 78 94 80
f 78 80 79
f 80 94 89
f 81 89 88
f 81 88 95
f 84 86 85
f 84 95 88
f 84 88 86
f 89 94 96
f 89 96 97
f 89 97 98
f 89 98 99
f 89 99 90
f 90 99 91
f 91 99 98
f 91 98 100
f 91 100 92
f 93 101 94
f 94 102 97
f 94 97 96
f 94 101 103
f 94 103 104
f 94 104 102
f 97 102 104
f 97 104 105
f 97 105 98
f 98 105 106
f 98 106 107
f 98 107 108
f 98 108 100
o convex_1
v 0.0608144 -0.549792 0.444573
v -0.0561444 -0.54898 0.446117
v -0.053029 -0.54898 0.442963
v -0.0592599 -0.545846 0.436722
v 0.0530171 -0.545846 0.436722
v 0.0592654 -0.54898 0.442963
v 0.0592654 -0.539636 0.433635
v 0.063164 -0.538069 0.435179
v 0.063164 -0.547413 0.444573
v 0.0623808 -0.539636 0.514765
v 0.0608144 -0.54039 0.519328
v 0.0561325 -0.54277 0.514765
v -0.0561444 -0.54277 0.514765
v -0.0608263 -0.547413 0.446855
v -0.0608263 -0.547413 0.444573
v -0.0187072 -0.495934 0.402431
v -0.0155918 -0.502202 0.405585
v -0.0639417 -0.541203 0.441419
v -0.0748544 -0.00940676 0.173133
v -0.0717389 -0.0156168 0.173133
v -0.0702421 -0.0163713 0.173133
v -0.0654907 -0.0187508 0.173133
v 0.0218281 -0.502202 0.405585
v 0.0654962 -0.0187508 0.173133
v 0.0717444 -0.0156168 0.173133
v 0.0725103 -0.481889 0.425851
v 0.0748599 -0.477246 0.430481
v 0.0654962 -0.533368 0.439876
v 0.0748599 -0.00940676 0.173133
v 0.0748599 -0.48659 0.439876
v 0.0748599 -0.48659 0.496043
v 0.0654962 -0.533368 0.514765
v 0.0654962 -0.51468 0.655015
v 0.0623808 -0.52089 0.655015
v 0.0608144 -0.521702 0.659712
v 0.0561325 -0.524024 0.655015
v -0.0623753 -0.539636 0.517785
v -0.0561444 -0.524024 0.655015
v -0.0623753 -0.52089 0.658169
v -0.0631585 -0.54277 0.450411
v 0.0187127 -0.495934 0.402431
v -1.46554e-05 -0.4585 0.383709
v -0.0654907 -0.533368 0.514765
v -0.0748544 -0.48659 0.477321
v -0.0748544 -0.48659 0.439876
v -0.0654907 -0.533368 0.439876
v -0.0935817 -0.00940676 0.299492
v -0.0748544 0.043117 0.173133
v -0.0701725 -0.491291 0.425851
v -0.0748544 -0.477246 0.430481
v -0.0935817 -0.383632 0.458598
v -0.0935817 -0.318165 0.430481
v -0.0935817 -0.252699 0.402431
v 0.0842235 -0.383632 0.458598
v 0.0842235 -0.00940676 0.20588
v 0.0748599 0.043117 0.173133
v 0.0842235 -0.383632 0.514765
v 0.0842235 -0.364944 0.69246
v 0.0748599 -0.477246 0.570798
v 0.0748599 -0.4585 0.711182
v 0.0654962 -0.505336 0.720577
v 0.0623808 -0.511546 0.720577
v 0.0608144 -0.512358 0.725207
v 0.0561325 -0.51468 0.720577
v -0.0654907 -0.51468 0.655015
v -0.0561444 -0.51468 0.720577
v -0.0623753 -0.502202 0.789158
v -0.0654907 -0.505336 0.720577
v -0.0935817 -0.383632 0.514765
v -0.0935817 -0.364944 0.69246
v -0.0935817 0.043117 0.299492
v 0.0842235 0.00933928 0.20588
v 0.0842235 0.043117 0.299492
v 0.0842235 -0.3556 0.739232
v 0.0748599 -0.439812 0.823516
v 0.0748599 -0.449156 0.776677
v 0.0654962 -0.495934 0.786071
v 0.0623808 -0.502202 0.786071
v 0.0608144 -0.502956 0.790702
v 0.0561325 -0.505336 0.786071
v -0.0561444 -0.505336 0.786071
v -0.0623753 -0.492858 0.807881
v -0.0654907 -0.495934 0.786071
v -0.0748544 -0.439812 0.823516
v -0.0935817 -0.3556 0.739232
v -0.0935817 0.043117 0.524026
v 0.0842235 0.043117 0.524026
v 0.0842235 -0.346197 0.739232
v 0.0748599 -0.421066 0.823516
v 0.0717444 -0.442946 0.829757
v 0.0654962 -0.48659 0.804794
v 0.063164 -0.497153 0.795399
v 0.0608144 -0.493612 0.809424
v 0.0561325 -0.492858 0.811035
v -0.0561444 -0.492858 0.811035
v -0.0608263 -0.491291 0.811773
v -0.0701725 -0.444513 0.830495
v -0.0717389 -0.446022 0.826603
v -0.0654907 -0.48659 0.804794
v -0.0717389 -0.439812 0.829757
v -0.0748544 -0.411722 0.823516
v -0.0935817 -0.346197 0.739232
v -0.0935817 0.0374293 0.533353
v -0.0912321 0.0420724 0.538051
v -0.0909884 0.043117 0.537044
v 0.0830748 0.043117 0.532213
v 0.0842235 0.0374293 0.533353
v 0.0842235 -0.308763 0.720577
v 0.0748599 -0.318165 0.786071
v 0.0748599 -0.364944 0.804794
v 0.0686116 -0.41799 0.835931
v 0.0717444 -0.4242 0.829757
v 0.0686116 -0.36181 0.817275
v 0.0686116 -0.427334 0.835931
v 0.0623808 -0.433544 0.839084
v 0.0654962 -0.438651 0.835192
v 0.0623808 -0.489724 0.811035
v 0.0608144 -0.43749 0.837541
v 0.0561325 -0.436678 0.839084
v -1.46554e-05 -0.408588 0.857807
v -1.46554e-05 -0.414856 0.854653
v -0.00467908 -0.407079 0.858545
v -0.0608263 -0.435111 0.83989
v -0.0654907 -0.439812 0.836333
v -0.0686235 -0.430468 0.835931
v -0.0717389 -0.411722 0.829757
v -0.0725222 -0.407079 0.828146
v -0.0725222 -0.33221 0.800096
v -0.0748544 -0.336853 0.795399
v -0.0935817 -0.308763 0.720577
v -0.0935817 -0.00940676 0.56147
v -0.0912321 -0.00470575 0.566168
v -0.0748544 0.043117 0.58952
v 0.0748599 0.043117 0.58952
v 0.0842235 -0.00940676 0.56147
v 0.0748599 -0.261985 0.757954
v 0.0748599 -0.280731 0.767349
v 0.0842235 -0.149741 0.636293
v 0.070178 -0.266686 0.772046
v 0.070178 -0.285374 0.781374
v 0.070178 -0.30412 0.790702
v 0.0686116 -0.315031 0.798553
v 0.0514681 -0.407079 0.846869
v 0.0561325 -0.419905 0.84452
v 0.0592654 -0.343122 0.817275
v 0.0592654 -0.296285 0.798553
v 0.0514681 -0.418744 0.846869
v 0.0561325 -0.430468 0.842171
v 0.0467863 -0.41799 0.848412
v 0.0452199 -0.413289 0.850023
v 0.0374226 -0.411722 0.851566
v 0.0187127 -0.393034 0.851566
v -1.46554e-05 -0.383632 0.851566
v -0.0187072 -0.393034 0.851566
v -0.029237 -0.393034 0.849217
v -0.0386006 -0.402378 0.849217
v -0.0479469 -0.411722 0.849217
v -0.0514626 -0.416423 0.849217
v -0.0561444 -0.421066 0.845728
v -0.0686235 -0.411722 0.835931
v -0.0686235 -0.318165 0.798553
v -0.0725222 -0.27603 0.772046
v -0.0748544 -0.318165 0.786071
v -0.0686235 -0.336853 0.807881
v -0.0748544 -0.280731 0.767349
v -0.0748544 -0.243355 0.748627
v -0.0748544 -0.224609 0.739232
v -0.0935817 -0.149741 0.636293
v -0.0725222 -0.219966 0.743929
v -0.0729573 0.043117 0.593345
v 0.0720229 0.043117 0.595224
v 0.070178 -0.145098 0.706485
v 0.0748599 -0.159143 0.701854
v 0.070178 -0.247998 0.762652
v 0.0686116 -0.277597 0.779831
v 0.0421044 -0.369645 0.837541
v 0.0421044 -0.397677 0.846869
v 0.0514681 -0.33221 0.818819
v 0.0514681 -0.285374 0.800096
v 0.0686116 -0.258909 0.770436
v 0.0608144 -0.22931 0.762652
v 0.0265099 -0.394601 0.850023
v 0.0327408 -0.388333 0.846869
v 0.0327408 -0.360243 0.837541
v 0.0187127 -0.364944 0.842171
v -1.46554e-05 -0.308763 0.823516
v -0.0187072 -0.364944 0.842171
v -0.029237 -0.364944 0.83989
v -0.0386006 -0.374288 0.83989
v -0.0386006 -0.346197 0.830495
v -0.0479469 -0.308763 0.811773
v -0.0491304 -0.30412 0.809424
v -0.0592599 -0.318165 0.807881
v -0.0592599 -0.299419 0.798553
v -0.0686235 -0.280731 0.779831
v -0.0725222 -0.238654 0.753324
v -0.0686235 -0.224609 0.751714
v -0.0686235 0.043117 0.602002
v -0.0698418 0.043117 0.599586
v 0.0711875 0.043117 0.596902
v 0.0686116 -0.156009 0.714336
v 0.0686116 0.043117 0.602002
v 0.0421044 -0.294776 0.809424
v 0.0514681 -0.145098 0.725207
v 0.0421044 -0.154442 0.734602
v 0.0592654 -0.156009 0.723664
v 0.0327408 -0.313464 0.818819
v -0.00313008 -0.283807 0.811035
v -0.00313008 -0.302553 0.820362
v -0.0311863 -0.293209 0.811035
v -0.0311863 -0.339987 0.829757
v -0.0218226 -0.358676 0.839084
v 0.0280589 -0.299419 0.814121
v 0.00311817 -0.296285 0.817275
v -0.0386006 -0.299419 0.811773
v -0.0397667 -0.294776 0.809424
v -0.0491304 -0.285374 0.800096
v -0.0592599 -0.280731 0.789158
v -0.0686235 -0.243355 0.761108
v -0.0584766 -0.191876 0.743929
v -0.0592599 0.043117 0.611397
v 0.0592654 0.043117 0.611397
v 0.0327408 -0.219966 0.772046
v 0.0311918 -0.286941 0.807881
v 0.0467863 0.043117 0.617637
v 0.0337502 0.043117 0.624147
v 0.0280589 0.043117 0.626965
v 0.0311918 -0.146665 0.732991
v 0.0218281 -0.212131 0.770436
v -0.0218226 -0.199653 0.764195
v -0.0311863 -0.274463 0.80164
v 0.00311817 -0.277597 0.807881
v 0.00311817 -0.137263 0.732991
v -0.00313008 -0.143531 0.736145
v -0.0124763 -0.162219 0.745473
v -0.0397667 -0.27603 0.800096
v -0.0491304 -0.266686 0.790702
v -0.0491304 -0.145098 0.725207
v -0.0467808 0.043117 0.617637
v -0.0280708 0.043117 0.626965
v 0.0124644 -0.156009 0.742386
v -0.0304031 -0.20122 0.762652
v -0.0311863 -0.152875 0.736145
v -0.0397667 -0.154442 0.734602
v -0.0305075 0.043117 0.625757
f 109 110 111
f 109 111 112
f 109 112 113
f 109 113 114
f 109 114 115
f 109 115 116
f 109 116 117
f 109 117 118
f 109 118 119
f 109 119 120
f 109 120 121
f 109 121 110
f 110 122 123
f 110 123 111
f 110 121 122
f 111 123 112
f 112 124 125
f 112 125 131
f 112 131 113
f 112 123 126
f 112 126 127
f 112 127 128
f 112 128 129
f 112 129 130
f 112 130 124
f 113 115 114
f 113 131 115
f 115 131 132
f 115 132 133
f 115 133 116
f 116 134 135
f 116 135 136
f 116 136 117
f 116 133 137
f 116 137 134
f 117 136 138
f 117 138 139
f 117 139 140
f 117 140 118
f 118 140 141
f 118 141 142
f 118 142 143
f 118 143 119
f 119 143 120
f 120 143 144
f 120 144 146
f 120 146 121
f 121 145 122
f 121 146 147
f 121 147 145
f 122 148 123
f 122 145 148
f 123 148 126
f 124 149 131
f 124 131 125
f 124 130 150
f 124 150 149
f 126 148 151
f 126 151 152
f 126 152 153
f 126 153 154
f 126 154 127
f 127 155 179
f 127 179 156
f 127 156 164
f 127 164 137
f 127 137 133
f 127 133 132
f 127 132 130
f 127 130 129
f 127 129 128
f 127 154 157
f 127 157 158
f 127 158 159
f 127 159 160
f 127 160 161
f 127 161 155
f 130 132 150
f 131 149 132
f 132 149 150
f 134 137 135
f 135 162 138
f 135 138 136
f 135 137 163
f 135 163 162
f 137 164 180
f 137 180 163
f 138 162 165
f 138 165 139
f 139 165 166
f 139 166 167
f 139 167 140
f 140 167 141
f 141 167 168
f 141 168 169
f 141 169 170
f 141 170 142
f 142 170 143
f 143 170 186
f 143 186 171
f 143 171 188
f 143 188 172
f 143 172 144
f 144 172 174
f 144 174 146
f 145 151 148
f 145 147 173
f 145 173 151
f 146 174 147
f 147 174 189
f 147 189 175
f 147 175 176
f 147 176 173
f 151 177 152
f 151 173 178
f 151 178 177
f 152 177 159
f 152 159 153
f 153 158 154
f 153 159 158
f 154 158 157
f 155 161 160
f 155 160 159
f 155 159 177
f 155 177 178
f 155 178 193
f 155 193 210
f 155 210 238
f 155 238 276
f 155 276 239
f 155 239 211
f 155 211 194
f 155 194 179
f 156 179 194
f 156 194 213
f 156 213 241
f 156 241 278
f 156 278 307
f 156 307 306
f 156 306 329
f 156 329 347
f 156 347 353
f 156 353 348
f 156 348 335
f 156 335 334
f 156 334 333
f 156 333 330
f 156 330 310
f 156 310 308
f 156 308 279
f 156 279 242
f 156 242 214
f 156 214 195
f 156 195 181
f 156 181 164
f 162 163 180
f 162 180 181
f 162 181 195
f 162 195 215
f 162 215 243
f 162 243 246
f 162 246 216
f 162 216 196
f 162 196 182
f 162 182 166
f 162 166 165
f 164 181 180
f 166 182 183
f 166 183 184
f 166 184 168
f 166 168 167
f 168 184 169
f 169 184 185
f 169 185 186
f 169 186 170
f 171 186 187
f 171 187 188
f 172 188 189
f 172 189 174
f 173 176 178
f 175 189 190
f 175 190 207
f 175 207 191
f 175 191 176
f 176 191 178
f 178 191 192
f 178 192 193
f 182 196 197
f 182 197 183
f 183 197 220
f 183 220 198
f 183 198 225
f 183 225 199
f 183 199 185
f 183 185 184
f 185 199 200
f 185 200 186
f 186 200 187
f 187 200 201
f 187 201 188
f 188 201 202
f 188 202 203
f 188 203 189
f 189 203 190
f 190 203 204
f 190 204 205
f 190 205 206
f 190 206 192
f 190 192 207
f 191 207 192
f 192 206 208
f 192 208 234
f 192 234 209
f 192 209 210
f 192 210 193
f 194 211 212
f 194 212 213
f 195 214 215
f 196 216 217
f 196 217 218
f 196 218 197
f 197 219 220
f 197 218 221
f 197 221 219
f 198 220 219
f 198 219 222
f 198 222 223
f 198 223 224
f 198 224 225
f 199 225 200
f 200 225 201
f 201 225 202
f 202 225 226
f 202 226 227
f 202 227 228
f 202 228 229
f 202 229 203
f 203 229 204
f 204 229 230
f 204 230 231
f 204 231 232
f 204 232 205
f 205 232 233
f 205 233 208
f 205 208 206
f 208 233 268
f 208 268 234
f 209 234 235
f 209 235 236
f 209 236 237
f 209 237 210
f 210 237 238
f 211 239 240
f 211 240 212
f 212 240 241
f 212 241 213
f 214 242 215
f 215 242 243
f 216 244 245
f 216 245 217
f 216 246 244
f 217 245 247
f 217 247 248
f 217 248 249
f 217 249 250
f 217 250 221
f 217 221 218
f 219 251 252
f 219 252 222
f 219 221 251
f 221 253 251
f 221 250 254
f 221 254 253
f 222 252 223
f 223 252 255
f 223 255 256
f 223 256 226
f 223 226 225
f 223 225 224
f 226 256 227
f 227 256 228
f 228 257 258
f 228 258 259
f 228 259 230
f 228 230 229
f 228 256 257
f 230 260 261
f 230 261 262
f 230 262 263
f 230 263 264
f 230 264 265
f 230 265 266
f 230 266 231
f 230 259 260
f 231 266 267
f 231 267 232
f 232 267 233
f 233 267 268
f 234 268 235
f 235 268 272
f 235 272 236
f 236 269 270
f 236 270 271
f 236 271 237
f 236 272 269
f 237 271 238
f 238 271 273
f 238 273 274
f 238 274 275
f 238 275 276
f 239 276 275
f 239 275 277
f 239 277 240
f 240 277 241
f 241 277 278
f 242 279 280
f 242 280 281
f 242 281 243
f 243 281 244
f 243 244 246
f 244 282 247
f 244 247 245
f 244 281 282
f 247 282 288
f 247 288 283
f 247 283 250
f 247 250 248
f 248 250 249
f 250 283 254
f 251 284 292
f 251 292 285
f 251 285 258
f 251 258 252
f 251 253 286
f 251 286 284
f 252 258 255
f 253 254 287
f 253 287 286
f 254 283 288
f 254 288 289
f 254 289 287
f 255 258 257
f 255 257 256
f 258 290 260
f 258 260 259
f 258 285 290
f 260 290 291
f 260 291 292
f 260 292 293
f 260 293 261
f 261 294 295
f 261 295 262
f 261 293 294
f 262 295 296
f 262 296 263
f 263 296 297
f 263 297 264
f 264 297 265
f 265 297 298
f 265 298 266
f 266 268 267
f 266 298 299
f 266 299 300
f 266 300 301
f 266 301 268
f 268 301 272
f 269 302 303
f 269 303 270
f 269 272 302
f 270 273 271
f 270 303 327
f 270 327 304
f 270 304 274
f 270 274 273
f 272 301 302
f 274 304 275
f 275 304 277
f 277 304 305
f 277 305 306
f 277 306 307
f 277 307 278
f 279 308 280
f 280 309 282
f 280 282 281
f 280 308 310
f 280 310 309
f 282 309 288
f 284 286 311
f 284 311 292
f 285 291 290
f 285 292 291
f 286 287 311
f 287 289 312
f 287 312 313
f 287 313 311
f 288 309 289
f 289 309 314
f 289 314 312
f 292 294 293
f 292 311 315
f 292 315 294
f 294 316 317
f 294 317 318
f 294 318 319
f 294 319 320
f 294 320 295
f 294 315 321
f 294 321 332
f 294 332 322
f 294 322 316
f 295 320 296
f 296 320 319
f 296 319 298
f 296 298 297
f 298 319 318
f 298 318 323
f 298 323 299
f 299 323 300
f 300 323 324
f 300 324 344
f 300 344 325
f 300 325 302
f 300 302 301
f 302 325 345
f 302 345 326
f 302 326 305
f 302 305 327
f 302 327 303
f 304 327 305
f 305 326 328
f 305 328 306
f 306 328 329
f 309 310 330
f 309 330 314
f 311 331 332
f 311 332 321
f 311 321 315
f 311 313 331
f 312 314 330
f 312 330 333
f 312 333 334
f 312 334 335
f 312 335 313
f 313 336 337
f 313 337 331
f 313 335 336
f 316 338 339
f 316 339 318
f 316 318 317
f 316 322 340
f 316 340 341
f 316 341 342
f 316 342 343
f 316 343 338
f 318 324 323
f 318 339 344
f 318 344 324
f 322 332 340
f 325 344 345
f 326 345 328
f 328 345 346
f 328 346 329
f 329 346 347
f 331 337 332
f 332 337 340
f 335 348 341
f 335 341 349
f 335 349 336
f 336 349 337
f 337 349 340
f 338 350 344
f 338 344 339
f 338 343 351
f 338 351 352
f 338 352 350
f 340 349 341
f 341 348 342
f 342 348 343
f 343 348 351
f 344 350 352
f 344 352 346
f 344 346 345
f 346 352 348
f 346 348 353
f 346 353 347
f 348 352 351
o convex_2
v -0.0565741 0.205447 -0.289238
v 0.0463512 0.205447 -0.289238
v -0.0606046 0.205447 -0.285168
v -0.0561344 0.205902 -0.420801
v 0.052745 0.205447 -0.280284
v 0.0561344 0.205902 -0.420801
v -0.0652763 0.205447 -0.271157
v -0.0566657 0.206158 -0.420801
v -0.0654962 0.205902 -0.327491
v 0.0559145 0.205447 -0.271796
v 0.0563176 0.205987 -0.420801
v 0.0654962 0.205902 -0.327491
v -0.074858 0.205447 0.159055
v -0.0623817 0.209002 -0.420801
v -0.0717435 0.209002 -0.32441
v -0.0686107 0.21213 -0.420801
v 0.0746931 0.205447 0.130975
v 0.0623817 0.209002 -0.420801
v 0.0717435 0.209002 -0.327491
v -0.074858 0.205447 0.173008
v -0.0935817 0.252685 0.0280728
v -0.0842199 0.233972 -0.261971
v -0.074858 0.215259 -0.327491
v -0.0703145 0.215514 -0.420801
v 0.074858 0.205447 0.140335
v 0.0686107 0.21213 -0.420801
v 0.0904489 0.2371 -0.383652
v 0.074858 0.205447 0.173008
v -0.0935817 0.252685 0.173008
v -0.0935817 0.280754 0.0280728
v -0.0842199 0.308824 -0.420801
v -0.0818748 0.244494 -0.402372
v -0.081087 0.2371 -0.399232
v -0.074858 0.224615 -0.420801
v -0.0717435 0.218358 -0.420801
v 0.0912367 0.238636 -0.388361
v 0.0935817 0.243328 -0.383652
v 0.0687023 0.212301 -0.420801
v 0.0842199 0.308824 0.173008
v 0.0935817 0.243328 -0.121687
v -0.0935817 0.280754 0.173008
v -0.0842199 0.486598 -0.00936728
v -0.0842199 0.421102 -0.411732
v -0.0842199 0.383932 -0.420801
v -0.074913 0.224871 -0.420801
v 0.0717435 0.218358 -0.420801
v 0.074858 0.224615 -0.420801
v 0.0842199 0.308824 -0.420801
v 0.0935817 0.271398 -0.383652
v 0.0842199 0.449172 0.173008
v 0.0935817 0.271398 -0.121687
v -0.0842199 0.449172 0.173008
v -0.0842199 0.486598 0.102895
v -0.0818748 0.491291 0.107604
v -0.081087 0.492855 -0.00936728
v -0.0623817 0.483498 -0.420801
v -0.0654962 0.477242 -0.420801
v -0.074858 0.458528 -0.411732
v -0.0717435 0.461657 -0.417952
v -0.081087 0.424231 -0.417952
v -0.079658 0.421358 -0.420801
v 0.0842199 0.383676 -0.420801
v 0.0842199 0.402389 -0.402372
v 0.0842199 0.411746 -0.364932
v 0.0842199 0.486598 -0.00936728
v 0.074858 0.486598 0.173008
v 0.0842199 0.486598 0.0935347
v -0.0623817 0.492855 0.173008
v -0.081087 0.492855 0.102895
v -0.074858 0.495983 -0.00936728
v -0.0795298 0.493623 -0.0140764
v -0.0561344 0.486598 -0.420801
v -0.0703145 0.458784 -0.420801
v 0.074858 0.449172 -0.420801
v 0.081087 0.492855 -0.0125067
v 0.0717435 0.492855 0.173008
v 0.081087 0.492855 0.0904535
v -0.0561344 0.495983 0.173008
v -0.074858 0.495983 0.102895
v 0.074858 0.495983 -0.00936728
v 0.0467908 0.486598 -0.420801
v 0.0717435 0.455429 -0.420801
v 0.0686107 0.461657 -0.420801
v 0.0584794 0.477242 -0.419929
v 0.0573252 0.478578 -0.420801
v 0.0530199 0.483498 -0.420801
v 0.0470473 0.486484 -0.420801
v 0.0654962 0.495983 0.173008
v 0.074858 0.495983 0.0935347
v 0.059084 0.476047 -0.420801
v 0.0582779 0.477242 -0.420801
f 354 355 358
f 354 358 363
f 354 363 370
f 354 370 378
f 354 378 381
f 354 381 373
f 354 373 366
f 354 366 360
f 354 360 356
f 354 356 357
f 354 357 359
f 354 359 355
f 355 359 358
f 356 360 357
f 357 361 367
f 357 367 369
f 357 369 377
f 357 377 388
f 357 388 387
f 357 387 398
f 357 398 384
f 357 384 397
f 357 397 414
f 357 414 426
f 357 426 410
f 357 410 409
f 357 409 425
f 357 425 434
f 357 434 440
f 357 440 439
f 357 439 438
f 357 438 444
f 357 444 443
f 357 443 436
f 357 436 435
f 357 435 427
f 357 427 415
f 357 415 401
f 357 401 400
f 357 400 399
f 357 399 391
f 357 391 379
f 357 379 371
f 357 371 364
f 357 364 359
f 357 360 362
f 357 362 361
f 358 359 363
f 359 364 365
f 359 365 363
f 360 366 362
f 361 362 367
f 362 368 369
f 362 369 367
f 362 366 368
f 363 365 370
f 364 371 372
f 364 372 365
f 365 372 370
f 366 373 382
f 366 382 374
f 366 374 375
f 366 375 376
f 366 376 368
f 368 376 369
f 369 376 377
f 370 372 378
f 371 379 372
f 372 379 380
f 372 380 378
f 373 381 392
f 373 392 403
f 373 403 419
f 373 419 429
f 373 429 441
f 373 441 431
f 373 431 421
f 373 421 405
f 373 405 394
f 373 394 382
f 374 382 394
f 374 394 383
f 374 383 397
f 374 397 384
f 374 384 385
f 374 385 375
f 375 385 386
f 375 386 376
f 376 386 387
f 376 387 388
f 376 388 377
f 378 380 389
f 378 389 390
f 378 390 393
f 378 393 381
f 379 391 389
f 379 389 380
f 381 393 392
f 383 394 406
f 383 406 395
f 383 395 396
f 383 396 397
f 384 398 385
f 385 398 386
f 386 398 387
f 389 391 399
f 389 399 400
f 389 400 401
f 389 401 390
f 390 401 415
f 390 415 402
f 390 402 404
f 390 404 393
f 392 393 404
f 392 404 403
f 394 405 406
f 395 406 407
f 395 407 408
f 395 408 409
f 395 409 410
f 395 410 411
f 395 411 396
f 396 411 412
f 396 412 413
f 396 413 397
f 397 413 414
f 402 415 416
f 402 416 417
f 402 417 418
f 402 418 420
f 402 420 404
f 403 404 420
f 403 420 419
f 405 421 407
f 405 407 406
f 407 421 422
f 407 422 408
f 408 422 432
f 408 432 423
f 408 423 424
f 408 424 409
f 409 424 425
f 410 426 412
f 410 412 411
f 412 426 414
f 412 414 413
f 415 427 416
f 416 427 417
f 417 427 418
f 418 428 430
f 418 430 420
f 418 427 428
f 419 420 429
f 420 430 429
f 421 431 432
f 421 432 422
f 423 425 424
f 423 432 431
f 423 431 441
f 423 441 442
f 423 442 433
f 423 433 434
f 423 434 425
f 427 435 428
f 428 433 442
f 428 442 430
f 428 435 436
f 428 436 437
f 428 437 438
f 428 438 439
f 428 439 440
f 428 440 433
f 429 430 442
f 429 442 441
f 433 440 434
f 436 443 437
f 437 443 444
f 437 444 438
o convex_3
v 0.0748654 0.205447 0.173066
v -0.0748654 0.205447 0.173066
v 0.0748654 0.109418 0.173066
v 0.0748654 0.205447 0.140372
v -0.0748654 0.109418 0.173066
v -0.0748654 0.205447 0.159071
v 0.0748654 0.109418 0.149722
v 0.0748654 0.121657 0.140372
v 0.0746895 0.205447 0.131004
v -0.0748654 0.109418 0.159071
v -0.0654999 0.205447 -0.0246632
v 0.071465 0.109418 0.141321
v 0.0530272 0.190276 -0.0246632
v 0.0541557 0.192541 -0.0246632
v 0.0561344 0.196517 -0.0246632
v 0.0746455 0.205447 0.130578
v -0.0654999 0.109418 0.121654
v -0.0654999 0.196517 -0.0246632
v 0.0561344 0.205447 -0.0246632
v 0.0280672 0.109418 0.0374332
v 0.0467835 0.187155 -0.0246632
v 0.0271145 0.109418 0.0355169
v 0.0249453 0.109418 0.0312003
v 0.0187163 0.109418 0.0280839
v -0.062378 0.190276 -0.0246632
v -0.0374327 0.109418 0.0374332
v -0.0561344 0.187155 -0.0246632
v -0.0280672 0.109418 0.0280839
v -0.0309399 0.109418 0.0295163
v -0.0343108 0.109418 0.0312003
f 445 446 449
f 445 449 447
f 445 447 451
f 445 451 452
f 445 452 448
f 445 448 453
f 445 453 460
f 445 460 463
f 445 463 455
f 445 455 450
f 445 450 446
f 446 450 454
f 446 454 449
f 447 449 454
f 447 454 461
f 447 461 470
f 447 470 474
f 447 474 473
f 447 473 472
f 447 472 468
f 447 468 467
f 447 467 466
f 447 466 464
f 447 464 456
f 447 456 451
f 448 452 453
f 450 455 462
f 450 462 454
f 451 456 457
f 451 457 458
f 451 458 459
f 451 459 452
f 452 460 453
f 452 459 460
f 454 462 461
f 455 463 459
f 455 459 458
f 455 458 457
f 455 457 465
f 455 465 471
f 455 471 469
f 455 469 462
f 456 464 457
f 457 464 466
f 457 466 467
f 457 467 468
f 457 468 465
f 459 463 460
f 461 462 469
f 461 469 470
f 465 468 472
f 465 472 471
f 469 471 472
f 469 472 473
f 469 473 474
f 469 474 470
o convex_4
v 0.0748654 0.109418 0.173066
v -0.0748654 0.109418 0.173066
v 0.0748654 -0.00934707 0.173066
v 0.0748654 0.109418 0.149722
v -0.0748654 0.109418 0.159071
v -0.0748654 -0.00934707 0.173066
v 0.0717435 -0.0155932 0.173066
v 0.0748654 -0.00934707 0.16844
v 0.071465 0.109418 0.141321
v 0.0748654 0.0374366 0.149722
v 0.0561344 0.0374366 -0.0246632
v 0.0544489 0.0408356 -0.0246632
v 0.0530272 0.0436828 -0.0246632
v -0.0748654 9.67065e-06 0.159071
v -0.0654999 0.109418 0.121654
v -0.062378 0.0436828 -0.0246632
v -0.0654999 0.0374366 -0.0246632
v -0.0717435 -0.0155932 0.173066
v -0.0748654 -0.00934707 0.16844
v 0.0685777 -0.0171736 0.173066
v 0.0717435 -0.0155932 0.16844
v 0.0748654 9.67065e-06 0.159071
v 0.0725203 -0.0140254 0.163755
v 0.0561344 -0.00934707 -0.0246632
v 0.0280672 0.109418 0.0374332
v 0.0467835 0.0467808 -0.0246632
v 0.0249453 0.109418 0.0312003
v 0.0271145 0.109418 0.0355169
v -0.0654999 9.67065e-06 -0.0246632
v -0.0654999 -0.00934707 -0.0187013
v -0.0374327 0.109418 0.0374332
v -0.0601209 0.0448116 -0.0246632
v -0.0343108 0.109418 0.0312003
v -0.0702339 -0.0163458 0.173066
v -0.0717435 -0.0155932 0.171556
v 0.0654999 -0.0187038 0.173066
v 0.0654999 -0.0187038 0.16844
v 0.0530272 -0.0155932 -0.0246632
v 0.0541557 -0.0133356 -0.0246632
v -0.0561344 0.0467808 -0.0246632
v 0.0187163 0.109418 0.0280839
v -0.0643127 -0.00815552 -0.0246632
v -0.0608244 -0.0140254 -0.0246632
v -0.062378 -0.0155932 -0.0155849
v -0.0309399 0.109418 0.0295163
v -0.0654999 -0.0187038 0.173066
v -0.0654999 -0.0187038 0.16844
v 0.0467835 -0.0187038 -0.0246632
v -0.0280672 0.109418 0.0280839
v -0.0549472 -0.0175123 -0.0246632
v -0.0561344 -0.0187038 -0.0187013
v -0.0467835 -0.0187038 -0.0246632
f 475 476 480
f 475 480 492
f 475 492 508
f 475 508 520
f 475 520 510
f 475 510 494
f 475 494 481
f 475 481 477
f 475 477 482
f 475 482 496
f 475 496 484
f 475 484 478
f 475 478 483
f 475 483 499
f 475 499 502
f 475 502 501
f 475 501 515
f 475 515 523
f 475 523 519
f 475 519 507
f 475 507 505
f 475 505 489
f 475 489 479
f 475 479 476
f 476 479 488
f 476 488 493
f 476 493 480
f 477 481 495
f 477 495 482
f 478 484 498
f 478 498 485
f 478 485 486
f 478 486 487
f 478 487 483
f 479 489 490
f 479 490 491
f 479 491 503
f 479 503 488
f 480 493 509
f 480 509 492
f 481 494 495
f 482 495 497
f 482 497 498
f 482 498 496
f 483 487 499
f 484 496 498
f 485 498 513
f 485 513 512
f 485 512 522
f 485 522 526
f 485 526 524
f 485 524 517
f 485 517 516
f 485 516 503
f 485 503 491
f 485 491 490
f 485 490 506
f 485 506 514
f 485 514 500
f 485 500 487
f 485 487 486
f 487 500 501
f 487 501 502
f 487 502 499
f 488 503 504
f 488 504 493
f 489 505 490
f 490 505 507
f 490 507 506
f 492 509 508
f 493 504 518
f 493 518 509
f 494 510 511
f 494 511 495
f 495 511 522
f 495 522 512
f 495 512 497
f 497 512 513
f 497 513 498
f 500 514 523
f 500 523 515
f 500 515 501
f 503 516 504
f 504 516 517
f 504 517 518
f 506 507 514
f 507 519 514
f 508 509 521
f 508 521 520
f 509 518 525
f 509 525 521
f 510 520 521
f 510 521 525
f 510 525 526
f 510 526 522
f 510 522 511
f 514 519 523
f 517 524 525
f 517 525 518
f 524 526 525
o convex_5
v 0.056149 0.205447 -0.0247084
v -0.0655072 0.205447 -0.0247084
v 0.056149 0.19652 -0.0247084
v 0.056149 0.205447 -0.252646
v -0.0655072 0.19652 -0.0247084
v -0.0655072 0.205447 -0.252646
v 0.053029 0.190279 -0.0247084
v 0.056149 0.16479 -0.187155
v 0.056149 0.19652 -0.252646
v 0.0559228 0.205447 -0.27181
v -0.0623872 0.190279 -0.0247084
v -0.0655072 0.16479 -0.187155
v -0.0654119 0.205447 -0.261917
v -0.0655072 0.19652 -0.252646
v 0.046789 0.187162 -0.0247084
v 0.0545176 0.16479 -0.180629
v 0.056149 0.16479 -0.237601
v 0.0538031 0.2012 -0.276057
v 0.0527432 0.205447 -0.280304
v 0.05472 0.16479 -0.244023
v -0.0561472 0.187162 -0.0247084
v -0.0640782 0.16479 -0.180733
v -0.0655072 0.16479 -0.237601
v -0.0652809 0.205447 -0.271162
v 0.046789 0.16479 -0.174932
v 0.0536363 0.16479 -0.17848
v 0.0463484 0.205447 -0.289212
v 0.0534934 0.16479 -0.246457
v 0.0519692 0.16479 -0.249047
v -0.0628516 0.16479 -0.178299
v -0.0561472 0.16479 -0.174932
v -0.064233 0.16479 -0.243298
v -0.0650666 0.205447 -0.27181
v -0.0565759 0.205447 -0.289212
v 0.0484086 0.16479 -0.249798
v -0.0629469 0.205447 -0.27818
v -0.0606009 0.205447 -0.285198
v -0.0626492 0.16479 -0.247364
v -0.0561472 0.16479 -0.249798
v -0.0572309 0.16479 -0.249539
v -0.0613512 0.16479 -0.248503
f 527 528 531
f 527 531 537
f 527 537 547
f 527 547 541
f 527 541 533
f 527 533 529
f 527 529 534
f 527 534 543
f 527 543 535
f 527 535 530
f 527 530 536
f 527 536 545
f 527 545 553
f 527 553 560
f 527 560 563
f 527 563 562
f 527 562 559
f 527 559 550
f 527 550 539
f 527 539 532
f 527 532 528
f 528 532 540
f 528 540 549
f 528 549 538
f 528 538 531
f 529 533 534
f 530 535 536
f 531 538 537
f 532 539 540
f 533 541 542
f 533 542 534
f 534 542 552
f 534 552 551
f 534 551 557
f 534 557 556
f 534 556 548
f 534 548 538
f 534 538 549
f 534 549 558
f 534 558 564
f 534 564 567
f 534 567 566
f 534 566 565
f 534 565 561
f 534 561 555
f 534 555 554
f 534 554 546
f 534 546 543
f 535 543 536
f 536 544 545
f 536 543 546
f 536 546 544
f 537 538 548
f 537 548 547
f 539 550 540
f 540 550 549
f 541 547 557
f 541 557 551
f 541 551 552
f 541 552 542
f 544 553 545
f 544 546 554
f 544 554 555
f 544 555 553
f 547 548 556
f 547 556 557
f 549 550 558
f 550 559 558
f 553 555 561
f 553 561 565
f 553 565 560
f 558 559 562
f 558 562 563
f 558 563 564
f 560 565 566
f 560 566 567
f 560 567 564
f 560 564 563
o convex_6
v -0.0561472 -0.0187163 -0.0935967
v 0.046789 -0.0187163 -0.0935967
v -0.0561472 -0.0187163 -0.0467984
v -0.0623872 -0.0155909 -0.0904723
v -0.0561472 3.59714e-07 -0.177798
v 0.053029 -0.0155909 -0.0935967
v 0.0490516 -0.0175847 -0.0247048
v 0.046789 -0.0187163 -0.0247048
v 0.046789 3.59714e-07 -0.177798
v -0.0467872 -0.0187163 -0.0247048
v -0.0549444 -0.0175129 -0.0247048
v -0.0623872 -0.0155909 -0.0436741
v -0.0655072 -0.00935799 -0.0935967
v -0.0623872 0.0031258 -0.174673
v -0.0608272 0.00468852 -0.182462
v -0.0530272 0.0031258 -0.184024
v 0.0538031 -0.0140282 -0.0982609
v 0.056149 -0.00935799 -0.0935967
v 0.053029 -0.0155909 -0.0247048
v 0.053029 0.0031258 -0.177798
v 0.049909 0.0031258 -0.184024
v -0.0608272 -0.0140282 -0.0247048
v -0.0643044 -0.00815452 -0.0247048
v -0.0655072 -0.00935799 -0.0467984
v -0.0655072 0.00935871 -0.177798
v -0.0592672 0.0624013 -0.227698
v 0.0538031 0.00468852 -0.182462
v 0.056149 -0.00935799 -0.0247048
v 0.056149 0.00935871 -0.177798
v 0.043669 0.0624013 -0.227698
v 0.049909 0.0686343 -0.230822
v -0.0655072 3.59714e-07 -0.0247048
v -0.0655072 0.0748492 -0.224574
v -0.0639472 0.0670715 -0.223034
v -0.0592672 0.0811001 -0.237071
v -0.0561472 0.0748492 -0.233947
v 0.0538031 0.070197 -0.22926
v 0.056149 0.0374338 -0.0247048
v 0.056149 0.0748492 -0.224574
v 0.046789 0.0748492 -0.233947
v 0.049909 0.087333 -0.240173
v 0.0538031 0.0888957 -0.238633
v -0.0655072 0.0374338 -0.0247048
v -0.0655072 0.0935659 -0.233947
v -0.0608272 0.0888957 -0.238633
v -0.0561472 0.0935659 -0.243298
v 0.043669 0.0811001 -0.237071
v 0.053029 0.0436846 -0.0247048
v 0.056149 0.164786 -0.187149
v 0.0545176 0.164786 -0.180632
v 0.056149 0.0935659 -0.233947
v 0.046789 0.0935659 -0.243298
v 0.053029 0.0935659 -0.240173
v 0.053029 0.159074 -0.249546
v 0.0538031 0.154404 -0.247984
v -0.0623872 0.0436846 -0.0247048
v -0.0640782 0.164786 -0.180744
v -0.0655072 0.164786 -0.187149
v -0.0655072 0.159074 -0.243298
v -0.0623872 0.1622 -0.249546
v -0.0623872 0.0966913 -0.240173
v -0.0561472 0.159074 -0.252648
v 0.046789 0.0467921 -0.0247048
v 0.0536363 0.164786 -0.17849
v 0.056149 0.164786 -0.237607
v 0.056149 0.159074 -0.243298
v 0.046789 0.159074 -0.252648
v 0.0534934 0.164786 -0.246444
v 0.05472 0.164786 -0.244012
v 0.051469 0.163763 -0.250327
v -0.0601246 0.0448163 -0.0247048
v -0.0628516 0.164786 -0.178311
v -0.0655072 0.164786 -0.237607
v -0.064233 0.164786 -0.243298
v -0.0626492 0.164786 -0.247359
v -0.0613512 0.164786 -0.24852
v -0.0572309 0.164786 -0.249546
v -0.0561472 0.164786 -0.249814
v -0.0561472 0.0467921 -0.0247048
v 0.046789 0.164786 -0.174941
v 0.0519692 0.164786 -0.249055
v 0.0484086 0.164786 -0.249814
v -0.0566831 0.164786 -0.175209
v -0.0561472 0.164786 -0.174941
f 568 569 575
f 568 575 577
f 568 577 570
f 568 570 579
f 568 579 571
f 568 571 581
f 568 581 572
f 568 572 576
f 568 576 569
f 569 573 574
f 569 574 575
f 569 576 587
f 569 587 573
f 570 577 578
f 570 578 579
f 571 579 591
f 571 591 580
f 571 580 592
f 571 592 581
f 572 581 582
f 572 582 583
f 572 583 588
f 572 588 576
f 573 584 585
f 573 585 595
f 573 595 586
f 573 586 574
f 573 587 594
f 573 594 584
f 574 586 595
f 574 595 605
f 574 605 615
f 574 615 630
f 574 630 646
f 574 646 638
f 574 638 623
f 574 623 610
f 574 610 599
f 574 599 590
f 574 590 589
f 574 589 578
f 574 578 577
f 574 577 575
f 576 588 587
f 578 589 579
f 579 589 590
f 579 590 591
f 580 591 599
f 580 599 610
f 580 610 625
f 580 625 640
f 580 640 626
f 580 626 611
f 580 611 600
f 580 600 592
f 581 592 582
f 582 592 601
f 582 601 593
f 582 593 583
f 583 593 597
f 583 597 588
f 584 594 596
f 584 596 585
f 585 596 606
f 585 606 618
f 585 618 633
f 585 633 632
f 585 632 616
f 585 616 605
f 585 605 595
f 587 588 594
f 588 597 598
f 588 598 604
f 588 604 594
f 590 599 591
f 592 600 601
f 593 601 602
f 593 602 603
f 593 603 607
f 593 607 597
f 594 604 596
f 596 604 606
f 597 607 598
f 598 607 608
f 598 608 609
f 598 609 604
f 600 611 601
f 601 611 612
f 601 612 602
f 602 612 613
f 602 613 619
f 602 619 614
f 602 614 607
f 602 607 603
f 604 609 606
f 605 616 617
f 605 617 615
f 606 609 618
f 607 614 619
f 607 619 608
f 608 619 609
f 609 619 620
f 609 620 621
f 609 621 622
f 609 622 633
f 609 633 618
f 610 623 624
f 610 624 625
f 611 626 627
f 611 627 628
f 611 628 612
f 612 628 613
f 613 627 629
f 613 629 634
f 613 634 619
f 613 628 627
f 615 617 631
f 615 631 630
f 616 632 636
f 616 636 635
f 616 635 648
f 616 648 649
f 616 649 645
f 616 645 644
f 616 644 643
f 616 643 642
f 616 642 641
f 616 641 640
f 616 640 625
f 616 625 624
f 616 624 639
f 616 639 650
f 616 650 651
f 616 651 647
f 616 647 631
f 616 631 617
f 619 634 621
f 619 621 620
f 621 635 636
f 621 636 633
f 621 633 622
f 621 634 637
f 621 637 635
f 623 638 639
f 623 639 624
f 626 640 641
f 626 641 627
f 627 641 642
f 627 642 643
f 627 643 644
f 627 644 629
f 629 645 637
f 629 637 634
f 629 644 645
f 630 631 647
f 630 647 651
f 630 651 646
f 632 633 636
f 635 637 648
f 637 645 649
f 637 649 648
f 638 646 639
f 639 646 650
f 646 651 650
o convex_7
v -0.0749075 0.224869 -0.420859
v 0.074858 0.224622 -0.420859
v 0.046778 0.486597 -0.420859
v 0.0842235 0.308823 -0.420859
v 0.074858 0.449168 -0.420859
v 0.0530272 0.483492 -0.420859
v 0.046778 0.486625 -0.598927
v 0.0530272 0.483492 -0.484057
v 0.0530272 0.48349 -0.602044
v 0.046778 0.477247 -0.699102
v 0.0530272 0.474139 -0.699102
v 0.0592599 0.471005 -0.689381
v 0.0686254 0.461654 -0.670662
v 0.0576934 0.478815 -0.49443
v 0.0576934 0.47882 -0.45699
v 0.0573142 0.478573 -0.420859
v 0.0582705 0.477254 -0.420859
v 0.0686254 0.461645 -0.420859
v 0.074858 0.449168 -0.67378
v 0.0717417 0.455411 -0.676898
v 0.0623762 0.464788 -0.695617
v 0.0627389 0.46184 -0.699102
v 0.059705 0.466914 -0.699102
v 0.064025 0.458546 -0.699102
v 0.0842235 0.383659 -0.699102
v 0.0585838 0.468322 -0.699102
v -0.0654925 0.467897 -0.699102
v -0.0561435 0.477247 -0.699102
v -0.0561435 0.486625 -0.598927
v -0.0608263 0.484261 -0.603609
v -0.0623762 0.48349 -0.598927
v -0.0623762 0.474139 -0.699102
v -0.074858 0.458546 -0.67378
v -0.0686254 0.471005 -0.67378
v -0.0623762 0.483492 -0.420859
v -0.074858 0.458539 -0.439834
v -0.0654925 0.477254 -0.420859
v -0.0703072 0.458787 -0.420859
v -0.0796727 0.421358 -0.420859
v -0.0842235 0.42111 -0.439834
v -0.0842235 0.383929 -0.420859
v -0.0842235 0.308823 -0.420859
v -0.0842235 0.327554 -0.699102
v -0.0842235 0.299475 -0.67378
v -0.0842235 0.29948 -0.477264
v -0.074858 0.224615 -0.67378
v -0.0686254 0.212145 -0.420859
v -0.0717417 0.218373 -0.670662
v -0.0701753 0.21994 -0.678463
v -0.072088 0.25652 -0.699102
v -0.0715603 0.255457 -0.699102
v -0.0742479 0.262045 -0.699102
v -0.074858 0.264808 -0.699102
v -0.0627389 0.246611 -0.699102
v -0.0623762 0.218373 -0.680016
v -0.0654925 0.215264 -0.67378
v 0.0686254 0.218373 -0.680016
v -0.0533734 0.243317 -0.699102
v 0.046778 0.243317 -0.699102
v 0.0717417 0.246452 -0.699102
v -0.0561435 0.243928 -0.699102
v 0.074858 0.252694 -0.699102
v 0.0725167 0.21994 -0.678463
v 0.074858 0.224615 -0.67378
v 0.0842235 0.299475 -0.67378
v 0.0842235 0.299475 -0.484072
v 0.0842235 0.327554 -0.699102
v 0.0842235 0.29948 -0.477264
v 0.0717417 0.218373 -0.67378
v 0.0654925 0.215264 -0.67378
v 0.0561435 0.205907 -0.458549
v -0.0561435 0.205907 -0.458549
v 0.0561435 0.205907 -0.420859
v 0.0623762 0.209013 -0.458549
v 0.0686254 0.212145 -0.458549
v 0.0686254 0.212145 -0.420859
v -0.0561435 0.205907 -0.420859
v -0.0686254 0.212145 -0.461667
v 0.0842235 0.402396 -0.43048
v 0.0842235 0.383681 -0.420859
v 0.0842235 0.402388 -0.67378
v -0.0842235 0.383659 -0.699102
v -0.074858 0.430467 -0.699102
v -0.0842235 0.421116 -0.67378
v -0.0561435 0.486597 -0.420859
f 653 654 652
f 655 654 653
f 656 654 655
f 657 654 656
f 657 658 654
f 659 658 657
f 660 658 659
f 660 661 658
f 660 662 661
f 660 663 662
f 660 664 663
f 660 665 664
f 660 666 665
f 660 659 666
f 659 657 666
f 667 666 657
f 667 668 666
f 667 657 668
f 668 657 669
f 668 669 666
f 669 664 666
f 669 656 664
f 669 657 656
f 664 656 670
f 671 664 670
f 671 672 664
f 673 672 671
f 673 674 672
f 673 675 674
f 673 671 675
f 671 670 675
f 675 670 676
f 675 676 662
f 674 675 662
f 677 674 662
f 677 663 674
f 677 662 663
f 663 672 674
f 663 664 672
f 662 676 678
f 679 662 678
f 661 662 679
f 661 679 658
f 679 680 658
f 681 680 679
f 681 682 680
f 681 683 682
f 681 679 683
f 683 679 678
f 683 678 684
f 685 683 684
f 685 682 683
f 685 686 682
f 685 684 686
f 687 686 684
f 687 688 686
f 689 688 687
f 689 690 688
f 689 687 690
f 690 687 691
f 690 691 692
f 690 692 688
f 692 693 688
f 692 691 693
f 693 691 694
f 695 693 694
f 696 693 695
f 696 652 693
f 696 695 652
f 697 652 695
f 697 698 652
f 697 699 698
f 697 700 699
f 701 700 697
f 701 702 700
f 701 703 702
f 701 697 703
f 704 703 697
f 704 694 703
f 704 697 694
f 697 695 694
f 703 694 705
f 702 703 705
f 702 705 700
f 706 700 705
f 706 707 700
f 706 708 707
f 709 708 706
f 710 708 709
f 710 711 708
f 710 709 711
f 709 705 711
f 712 705 709
f 712 706 705
f 712 709 706
f 711 705 676
f 713 711 676
f 713 714 711
f 713 715 714
f 716 715 713
f 716 717 715
f 716 676 717
f 718 676 716
f 718 713 676
f 718 716 713
f 717 676 719
f 717 719 653
f 717 653 715
f 720 715 653
f 720 714 715
f 720 708 714
f 720 721 708
f 722 721 720
f 722 723 721
f 722 724 723
f 722 725 724
f 722 720 725
f 726 725 720
f 726 727 725
f 726 720 727
f 720 653 727
f 727 653 724
f 725 727 724
f 724 653 728
f 723 724 728
f 723 728 698
f 729 723 698
f 729 707 723
f 729 699 707
f 729 698 699
f 699 700 707
f 723 707 721
f 721 707 708
f 698 728 652
f 728 653 652
f 708 711 714
f 655 653 719
f 655 719 730
f 731 655 730
f 731 656 655
f 731 730 656
f 656 730 670
f 732 670 730
f 732 676 670
f 732 730 676
f 719 676 730
f 705 678 676
f 694 678 705
f 733 678 694
f 734 678 733
f 734 735 678
f 734 733 735
f 733 694 735
f 691 735 694
f 691 684 735
f 687 684 691
f 684 678 735
f 693 652 688
f 688 652 654
f 736 688 654
f 686 688 736
f 686 736 680
f 682 686 680
f 736 654 680
f 658 680 654
f 665 666 664
o convex_8
v -0.0842235 0.327543 -0.779858
v -0.0842235 0.327543 -0.699102
v -0.0842235 0.383663 -0.779858
v -0.0826571 0.324414 -0.779858
v -0.0654925 0.262036 -0.776727
v -0.0717417 0.265165 -0.773605
v -0.074858 0.262036 -0.767368
v -0.0842235 0.383663 -0.699102
v -0.074858 0.262036 -0.701868
v -0.074858 0.264806 -0.699102
v -0.074858 0.430472 -0.776727
v -0.074858 0.427343 -0.779858
v -0.0810907 0.321311 -0.779858
v -0.0561435 0.252674 -0.776727
v -0.0639426 0.254239 -0.775162
v -0.0686254 0.249571 -0.770483
v -0.074858 0.430472 -0.699102
v -0.0742479 0.262036 -0.699102
v -0.0717417 0.255803 -0.699102
v -0.072088 0.256522 -0.699102
v -0.0654925 0.467894 -0.779858
v -0.0740666 0.430857 -0.779858
v -0.0779908 0.318207 -0.779858
v -0.0760947 0.31695 -0.779858
v -0.0686254 0.315078 -0.779858
v 0.046778 0.252674 -0.776727
v -0.0530272 0.246442 -0.773605
v -0.0608263 0.248006 -0.772048
v -0.0686254 0.249571 -0.704983
v -0.0561435 0.243312 -0.767368
v -0.0654925 0.467894 -0.699102
v -0.0715603 0.255444 -0.699102
v -0.0645857 0.469741 -0.699102
v -0.0623762 0.474127 -0.779858
v 0.0623762 0.315078 -0.779858
v 0.0740831 0.316643 -0.779858
v 0.0654925 0.262036 -0.776727
v 0.0670589 0.254239 -0.775162
v 0.0725167 0.248006 -0.772048
v 0.0498944 0.246442 -0.773605
v -0.0561435 0.243312 -0.701868
v -0.0616672 0.246082 -0.699102
v -0.0627389 0.246621 -0.699102
v 0.046778 0.243312 -0.767368
v -0.0623762 0.474127 -0.699102
v -0.0249472 0.502212 -0.779858
v 0.0810907 0.321311 -0.779858
v 0.0717417 0.252674 -0.773605
v 0.0842235 0.327543 -0.779858
v 0.0717417 0.246442 -0.767368
v 0.074858 0.252674 -0.767368
v -0.0533734 0.243312 -0.699102
v -0.0561435 0.243928 -0.699102
v 0.046778 0.243312 -0.699102
v -0.060546 0.47505 -0.699102
v -0.0249472 0.502212 -0.767368
v -0.0187145 0.505341 -0.779858
v 0.0842235 0.383663 -0.779858
v 0.0842235 0.327543 -0.699102
v 0.0717417 0.246442 -0.699102
v 0.074858 0.252674 -0.699102
v -0.0561435 0.477256 -0.699102
v -0.0187145 0.505341 -0.767368
v 0 0.505341 -0.779858
v 0.0654925 0.44917 -0.779858
v 0.064025 0.458532 -0.699102
v 0.0842235 0.383663 -0.699102
v 0.046778 0.477256 -0.699102
v 0 0.505341 -0.767368
v 0.00623267 0.502212 -0.779842
v 0.00623267 0.502186 -0.779858
v 0.0623927 0.455403 -0.779858
v 0.0627389 0.461841 -0.699102
v 0.0495481 0.475871 -0.699102
v 0.00623267 0.502212 -0.770483
v 0.0530272 0.474127 -0.699102
v 0.0530272 0.474127 -0.779858
v 0.059705 0.466919 -0.699102
v 0.0585838 0.46833 -0.699102
f 737 738 744
f 737 744 739
f 737 739 748
f 737 748 758
f 737 758 757
f 737 757 770
f 737 770 782
f 737 782 793
f 737 793 800
f 737 800 807
f 737 807 813
f 737 813 808
f 737 808 801
f 737 801 794
f 737 794 785
f 737 785 783
f 737 783 772
f 737 772 771
f 737 771 761
f 737 761 760
f 737 760 759
f 737 759 749
f 737 749 740
f 737 740 741
f 737 741 742
f 737 742 743
f 737 743 745
f 737 745 738
f 738 745 746
f 738 746 754
f 738 754 756
f 738 756 755
f 738 755 768
f 738 768 779
f 738 779 778
f 738 778 789
f 738 789 788
f 738 788 790
f 738 790 796
f 738 796 797
f 738 797 795
f 738 795 803
f 738 803 802
f 738 802 809
f 738 809 814
f 738 814 815
f 738 815 812
f 738 812 810
f 738 810 804
f 738 804 798
f 738 798 791
f 738 791 781
f 738 781 769
f 738 769 767
f 738 767 753
f 738 753 744
f 739 744 753
f 739 753 747
f 739 747 748
f 740 749 741
f 741 750 751
f 741 751 742
f 741 749 750
f 742 751 752
f 742 752 743
f 743 752 765
f 743 765 755
f 743 755 745
f 745 754 746
f 745 755 756
f 745 756 754
f 747 753 767
f 747 767 757
f 747 757 758
f 747 758 748
f 749 759 750
f 750 759 760
f 750 760 761
f 750 761 771
f 750 771 762
f 750 762 776
f 750 776 763
f 750 763 764
f 750 764 752
f 750 752 751
f 752 764 766
f 752 766 777
f 752 777 765
f 755 765 768
f 757 767 769
f 757 769 770
f 762 771 772
f 762 772 773
f 762 773 774
f 762 774 775
f 762 775 776
f 763 776 780
f 763 780 766
f 763 766 764
f 765 777 778
f 765 778 779
f 765 779 768
f 766 780 790
f 766 790 788
f 766 788 777
f 769 781 770
f 770 781 792
f 770 792 782
f 772 783 773
f 773 784 774
f 773 783 785
f 773 785 784
f 774 784 775
f 775 786 780
f 775 780 776
f 775 784 785
f 775 785 787
f 775 787 786
f 777 788 789
f 777 789 778
f 780 786 796
f 780 796 790
f 781 791 792
f 782 792 799
f 782 799 793
f 785 794 803
f 785 803 795
f 785 795 797
f 785 797 787
f 786 787 797
f 786 797 796
f 791 798 799
f 791 799 792
f 793 799 805
f 793 805 800
f 794 801 802
f 794 802 803
f 798 804 805
f 798 805 799
f 800 806 807
f 800 805 811
f 800 811 806
f 801 808 809
f 801 809 802
f 804 810 805
f 805 810 812
f 805 812 811
f 806 813 807
f 806 811 812
f 806 812 813
f 808 813 809
f 809 813 814
f 812 815 813
f 813 815 814
o convex_9
v -0.0842235 0.327543 -0.823516
v -0.0810907 0.330672 -0.829756
v -0.0795408 0.322868 -0.828192
v -0.0810907 0.321303 -0.820405
v -0.0826571 0.324413 -0.779866
v -0.0842235 0.327543 -0.779866
v -0.0842235 0.383698 -0.823516
v -0.074858 0.327543 -0.832875
v -0.0810907 0.386809 -0.829756
v -0.0343127 0.442946 -0.857832
v -0.0717417 0.321303 -0.829756
v -0.074858 0.318193 -0.823516
v -0.0760947 0.316945 -0.779866
v -0.0779908 0.318193 -0.779866
v -0.0810907 0.321303 -0.779866
v -0.0842235 0.383698 -0.779866
v -0.074858 0.427338 -0.779866
v -0.0654925 0.467904 -0.832875
v -0.0623762 0.471014 -0.839114
v 0.074858 0.327543 -0.832875
v -0.0280635 0.439817 -0.860952
v -0.0343127 0.452296 -0.857832
v 0.0779744 0.321303 -0.829756
v -0.0686254 0.315064 -0.779866
v 0.074858 0.318193 -0.823516
v -0.0740666 0.430858 -0.779866
v -0.0654925 0.467904 -0.779866
v -0.0623762 0.474144 -0.832875
v -0.0608263 0.474926 -0.837551
v 0.0795408 0.388373 -0.830533
v 0.0810907 0.327543 -0.829756
v 0.0818821 0.322868 -0.828192
v 0.0187145 0.439817 -0.860952
v -0.0280635 0.449185 -0.860952
v -0.0327463 0.456207 -0.856268
v -0.0187145 0.459709 -0.85861
v 0.0810907 0.321303 -0.823516
v 0.0623762 0.315064 -0.779866
v 0.0740831 0.316628 -0.779866
v -0.0623762 0.474144 -0.779866
v -0.0249472 0.502212 -0.823516
v -0.0140318 0.465557 -0.856268
v -0.0233808 0.502994 -0.828192
v 0.0810907 0.383698 -0.829756
v 0.0608263 0.45386 -0.839892
v 0.0842235 0.327543 -0.823516
v 0.0842235 0.327543 -0.779866
v 0.0810907 0.321303 -0.779866
v 0.0842235 0.383698 -0.823516
v 0.0187145 0.449185 -0.860952
v -0.00934901 0.458535 -0.860952
v -0.00934901 0.464775 -0.857832
v -0.0249472 0.502212 -0.779866
v -0.0187145 0.505341 -0.823516
v -0.0187145 0.502212 -0.829756
v 0.0623762 0.449185 -0.839114
v 0.0233808 0.45386 -0.85861
v 0.0514608 0.472579 -0.839892
v 0.0530272 0.474144 -0.835995
v 0.0623762 0.455425 -0.835995
v 0.0654925 0.449185 -0.832875
v 0.0842235 0.383698 -0.779866
v 0 0.458535 -0.860952
v 0.00466626 0.463229 -0.85861
v 0 0.464775 -0.857832
v -0.0187145 0.505341 -0.779866
v 0 0.505341 -0.823516
v 0 0.502212 -0.829756
v 0.00466626 0.500648 -0.830533
v 0.0530272 0.474144 -0.789209
v 0.0623927 0.455406 -0.779866
v 0.00623267 0.502212 -0.826636
v 0.0654925 0.449185 -0.779866
v 0 0.505341 -0.779866
v 0.0530272 0.474125 -0.779866
v 0.0561435 0.467904 -0.779866
v 0.0577099 0.464775 -0.779866
v 0.00623267 0.502212 -0.789209
v 0.00623267 0.502193 -0.779866
f 816 817 818
f 816 818 819
f 816 819 820
f 816 820 821
f 816 821 831
f 816 831 822
f 816 822 824
f 816 824 817
f 817 823 818
f 817 824 837
f 817 837 825
f 817 825 823
f 818 823 826
f 818 826 827
f 818 827 819
f 819 827 828
f 819 828 829
f 819 829 830
f 819 830 820
f 820 830 829
f 820 829 828
f 820 828 839
f 820 839 853
f 820 853 854
f 820 854 863
f 820 863 862
f 820 862 877
f 820 877 888
f 820 888 886
f 820 886 892
f 820 892 891
f 820 891 890
f 820 890 894
f 820 894 889
f 820 889 881
f 820 881 868
f 820 868 855
f 820 855 842
f 820 842 841
f 820 841 832
f 820 832 831
f 820 831 821
f 822 831 832
f 822 832 833
f 822 833 834
f 822 834 824
f 823 835 838
f 823 838 826
f 823 825 836
f 823 836 848
f 823 848 835
f 824 834 837
f 825 837 849
f 825 849 836
f 826 838 840
f 826 840 827
f 827 839 828
f 827 840 853
f 827 853 839
f 832 841 833
f 833 841 842
f 833 842 855
f 833 855 843
f 833 843 844
f 833 844 834
f 834 844 837
f 835 845 846
f 835 846 847
f 835 847 838
f 835 848 845
f 836 849 866
f 836 866 878
f 836 878 865
f 836 865 848
f 837 844 850
f 837 850 851
f 837 851 849
f 838 847 852
f 838 852 840
f 840 852 854
f 840 854 853
f 843 855 868
f 843 868 856
f 843 856 844
f 844 857 851
f 844 851 850
f 844 856 858
f 844 858 857
f 845 859 846
f 845 848 860
f 845 860 871
f 845 871 859
f 846 859 847
f 847 861 862
f 847 862 863
f 847 863 852
f 847 859 864
f 847 864 861
f 848 865 860
f 849 851 866
f 851 857 867
f 851 867 866
f 852 863 854
f 856 868 881
f 856 881 869
f 856 869 858
f 857 858 870
f 857 870 867
f 858 869 870
f 859 871 864
f 860 865 872
f 860 872 873
f 860 873 874
f 860 874 875
f 860 875 876
f 860 876 871
f 861 864 877
f 861 877 862
f 864 871 876
f 864 876 888
f 864 888 877
f 865 878 879
f 865 879 872
f 866 867 879
f 866 879 878
f 867 880 879
f 867 870 883
f 867 883 880
f 869 881 889
f 869 889 882
f 869 882 883
f 869 883 870
f 872 879 873
f 873 879 884
f 873 884 887
f 873 887 874
f 874 885 892
f 874 892 886
f 874 886 875
f 874 887 893
f 874 893 885
f 875 886 876
f 876 886 888
f 879 880 883
f 879 883 884
f 882 887 883
f 882 889 893
f 882 893 887
f 883 887 884
f 885 890 891
f 885 891 892
f 885 893 894
f 885 894 890
f 889 894 893
