# https://github.com/mikedh/trimesh
v 0.42644500 0.07753890 0.58146300
v 0.42644500 0.05786350 0.56208700
v 0.42644500 0.09692890 0.52333400
v 0.41993300 0.09046940 0.86564900
v 0.41993300 0.08399840 0.87210800
v 0.41350500 0.07107930 0.87210800
v 0.39730900 0.06299920 0.88188300
v 0.38762400 0.05816020 0.87210800
v 0.42202100 0.05786350 0.58146300
v 0.42644500 0.05786350 -0.85273100
v 0.41993300 0.10984800 0.51687600
v 0.42644500 0.13568600 -0.44582900
v 0.41350500 0.10338800 0.76230900
v 0.40699300 0.09692890 0.87210800
v 0.41667800 0.08722820 0.88188300
v 0.41667800 0.08238930 0.88188300
v 0.40699300 0.07511940 0.88677100
v 0.38762400 0.06461980 0.88502500
v -0.24227600 0.06299920 0.88188300
v -0.38762400 0.05816020 0.87210800
v 0.38762400 0.05786350 0.60066500
v 0.38996200 0.05786350 0.60031600
v 0.40699300 0.05786350 0.59752300
v 0.40857900 0.05786350 0.59647600
v 0.41667800 0.05786350 0.59106400
v 0.42152000 0.05786350 0.58355800
v 0.42627800 0.05786350 -0.85308000
v 0.42644500 0.13568600 -0.85273100
v 0.41993300 0.14860500 -0.45228800
v 0.41350500 0.16152400 -0.76876700
v 0.38762400 0.11629600 0.75585000
v 0.40699300 0.15506500 -0.44582900
v 0.40699300 0.13568600 0.03875260
v 0.40699300 0.11629600 0.52333400
v -0.38762400 0.09692890 0.87210800
v 0.40056500 0.09046940 0.88502500
v 0.29069700 0.11629600 0.79460200
v 0.15503300 0.11629600 0.81397900
v 0.38762400 0.07753890 0.89165800
v 0.26164400 0.06784960 0.88677100
v -0.38762400 0.06461980 0.88502500
v -0.39730900 0.06784960 0.88677100
v -0.40056500 0.06461980 0.87856600
v -0.42644500 0.05786350 0.56208700
v -0.42160300 0.05786350 0.58355800
v -0.42143600 0.05786350 0.58390700
v -0.40732700 0.05786350 0.59333300
v -0.40674300 0.05786350 0.59368300
v -0.38795800 0.05786350 0.60066500
v 0.41985000 0.05786350 -0.86599800
v 0.41350500 0.11629600 -0.87856600
v 0.41993300 0.13568600 -0.86564900
v 0.41667800 0.14537600 -0.86739400
v 0.41993300 0.14860500 -0.85919000
v 0.41350500 0.16152400 -0.84627300
v 0.38762400 0.17444300 -0.77522600
v 0.36825600 0.17444300 -0.73647400
v 0.27132900 0.17444300 -0.67834500
v 0.23259100 0.17444300 -0.65896800
v -0.40699300 0.09692890 0.85273100
v -0.40941400 0.09207860 0.87210800
v -0.39413600 0.09046940 0.88502500
v -0.11629600 0.11629600 0.81397900
v -0.23259100 0.11629600 0.79460200
v -0.29069700 0.11629600 0.77522600
v -0.32951800 0.11629600 0.75585000
v -0.38762400 0.11629600 0.71709700
v 0.11629600 0.17444300 -0.62021600
v 0.00000000 0.17444300 -0.60084000
v -0.38762400 0.07753890 0.89165800
v -0.40056500 0.07753890 0.88502500
v -0.42152000 0.08722820 0.86250700
v -0.41350500 0.07107930 0.84627300
v -0.41993300 0.08399840 0.85919000
v -0.42644500 0.07753890 0.58146300
v -0.42644500 0.05786350 -0.85273100
v 0.41350500 0.05786350 -0.87856600
v 0.41325500 0.05786350 -0.87874100
v 0.39730900 0.12598500 -0.88677100
v 0.40699300 0.13568600 -0.87943900
v 0.39730900 0.16475400 -0.86739400
v 0.40056500 0.16798400 -0.85919000
v 0.38762400 0.17444300 -0.85273100
v -0.41993300 0.09046940 0.85273100
v -0.40056500 0.10984800 0.71709700
v -0.41667800 0.08722820 0.86739400
v -0.40215100 0.08722820 0.88188300
v -0.17440200 0.17444300 -0.65896800
v -0.29069700 0.17444300 -0.71709700
v -0.40699300 0.11629600 0.58146300
v -0.38762400 0.17444300 -0.79460200
v -0.41993300 0.10984800 0.58146300
v -0.42152000 0.10661800 0.59106400
v -0.42644500 0.09692890 0.58146300
v -0.42644500 0.13568600 -0.85273100
v -0.42627800 0.05786350 -0.85308000
v 0.38762400 0.05786350 -0.89165800
v 0.38762400 0.11629600 -0.89165800
v -0.35857100 0.16475400 -0.86739400
v 0.38762400 0.16798400 -0.86564900
v 0.30038200 0.16960500 -0.86250700
v -0.38762400 0.17444300 -0.85273100
v -0.40699300 0.15506500 -0.46520500
v -0.41350500 0.16152400 -0.79460200
v -0.41993300 0.14860500 -0.46520500
v -0.42152000 0.14537600 -0.45543000
v -0.42644500 0.13568600 -0.46520500
v -0.41350500 0.16152400 -0.85273100
v -0.41993300 0.14214600 -0.86564900
v -0.41993300 0.05786350 -0.86564900
v 0.05785560 0.05786350 -0.89165800
v 0.36825600 0.11629600 -0.89165800
v -0.38762400 0.16798400 -0.86564900
v -0.38762400 0.15506500 -0.87210800
v -0.39730900 0.16960500 -0.86250700
v -0.40699300 0.15748400 -0.86739400
v -0.41667800 0.15021500 -0.86250700
v -0.40699300 0.13568600 -0.87210800
v -0.40732700 0.05786350 -0.87210800
v 0.05810610 0.05816020 -0.89165800
f 1 2 10
f 56 88 69
f 56 69 68
f 56 68 59
f 56 59 58
f 56 58 57
f 60 84 61
f 60 67 85
f 60 85 84
f 61 84 72
f 61 72 86
f 61 86 87
f 61 87 62
f 62 87 70
f 63 69 64
f 64 69 88
f 64 88 65
f 65 88 66
f 66 88 89
f 66 89 67
f 67 90 92
f 67 92 85
f 67 89 91
f 67 91 90
f 70 87 71
f 71 87 86
f 56 89 88
f 56 91 89
f 56 102 91
f 56 83 102
f 37 69 38
f 38 69 63
f 39 70 42
f 39 42 40
f 42 70 71
f 42 71 72
f 42 72 43
f 43 72 73
f 43 73 44
f 44 73 74
f 44 74 72
f 44 72 75
f 71 86 72
f 44 75 94
f 44 107 95
f 44 95 76
f 50 77 51
f 51 77 78
f 51 78 79
f 51 79 80
f 51 80 53
f 51 53 52
f 53 80 81
f 53 81 82
f 53 82 54
f 54 82 55
f 44 94 107
f 72 74 73
f 72 84 92
f 72 92 93
f 95 109 96
f 96 109 110
f 97 111 120
f 97 120 112
f 97 112 98
f 99 112 114
f 99 114 113
f 100 113 115
f 100 115 101
f 102 115 108
f 104 107 105
f 105 107 106
f 95 108 109
f 108 115 116
f 108 117 109
f 109 117 116
f 109 116 118
f 109 118 119
f 109 119 110
f 111 119 118
f 111 118 120
f 112 120 114
f 113 114 116
f 113 116 115
f 114 120 118
f 114 118 116
f 108 116 117
f 37 68 69
f 95 104 108
f 94 106 107
f 72 93 94
f 76 95 96
f 78 97 98
f 78 98 79
f 79 98 81
f 79 81 80
f 81 98 112
f 81 112 99
f 81 99 113
f 81 113 100
f 81 100 83
f 81 83 82
f 95 107 104
f 83 100 101
f 83 115 102
f 84 85 92
f 90 91 103
f 90 103 92
f 91 102 108
f 91 108 104
f 91 104 105
f 91 105 103
f 92 103 105
f 92 105 106
f 92 106 93
f 93 106 94
f 83 101 115
f 37 59 68
f 72 94 75
f 36 62 70
f 2 77 50
f 2 50 27
f 2 27 10
f 3 11 4
f 3 12 29
f 3 29 11
f 4 13 14
f 4 14 15
f 4 15 5
f 4 11 13
f 5 15 16
f 5 16 6
f 6 16 17
f 6 17 7
f 7 17 18
f 7 18 41
f 7 41 19
f 7 19 20
f 7 20 8
f 8 20 49
f 8 49 21
f 8 21 22
f 8 22 23
f 8 23 24
f 8 24 25
f 2 78 77
f 2 97 78
f 2 119 111
f 2 110 119
f 36 70 39
f 1 10 28
f 1 28 12
f 1 12 3
f 1 3 4
f 1 4 5
f 1 5 2
f 2 5 6
f 2 6 7
f 2 7 8
f 2 8 9
f 2 9 26
f 8 25 26
f 2 26 25
f 2 24 23
f 2 23 22
f 2 22 21
f 2 21 49
f 2 49 48
f 2 48 47
f 2 47 46
f 2 46 45
f 2 45 44
f 2 44 76
f 2 76 96
f 2 96 110
f 2 25 24
f 8 26 9
f 2 111 97
f 11 29 13
f 20 48 49
f 27 50 28
f 28 50 51
f 28 51 52
f 28 52 53
f 28 53 54
f 28 54 55
f 29 30 32
f 30 55 82
f 30 82 83
f 30 56 32
f 31 34 33
f 20 47 48
f 31 33 32
f 31 56 57
f 31 57 58
f 31 58 59
f 31 59 37
f 35 60 61
f 35 61 62
f 35 63 64
f 35 64 65
f 35 65 66
f 35 66 67
f 10 27 28
f 35 67 60
f 31 32 56
f 20 46 47
f 30 83 56
f 14 35 62
f 20 45 46
f 12 55 30
f 12 30 29
f 13 31 14
f 13 29 32
f 13 32 33
f 13 33 34
f 13 34 31
f 14 62 36
f 14 36 15
f 14 31 37
f 12 28 55
f 14 38 63
f 14 37 38
f 19 41 20
f 15 36 39
f 15 39 17
f 15 17 16
f 17 39 18
f 18 39 40
f 18 40 42
f 18 42 41
f 14 63 35
f 20 41 42
f 20 42 43
f 20 43 44
f 20 44 45

