o convex_0
v 0.426445 0.0775389 0.581463
v 0.426445 0.0578635 0.562087
v 0.426445 0.0969289 0.523334
v 0.419933 0.0904694 0.865649
v 0.419933 0.0839984 0.872108
v 0.413505 0.0710793 0.872108
v 0.397309 0.0629992 0.881883
v 0.387624 0.0581602 0.872108
v 0.422021 0.0578635 0.581463
v 0.426445 0.0578635 -0.852731
v 0.419933 0.109848 0.516876
v 0.426445 0.135686 -0.445829
v 0.413505 0.103388 0.762309
v 0.406993 0.0969289 0.872108
v 0.416678 0.0872282 0.881883
v 0.416678 0.0823893 0.881883
v 0.406993 0.0751194 0.886771
v 0.387624 0.0646198 0.885025
v -0.242276 0.0629992 0.881883
v -0.387624 0.0581602 0.872108
v 0.387624 0.0578635 0.600665
v 0.389962 0.0578635 0.600316
v 0.406993 0.0578635 0.597523
v 0.408579 0.0578635 0.596476
v 0.416678 0.0578635 0.591064
v 0.42152 0.0578635 0.583558
v 0.426278 0.0578635 -0.85308
v 0.426445 0.135686 -0.852731
v 0.419933 0.148605 -0.452288
v 0.413505 0.161524 -0.768767
v 0.387624 0.116296 0.75585
v 0.406993 0.155065 -0.445829
v 0.406993 0.135686 0.0387526
v 0.406993 0.116296 0.523334
v -0.387624 0.0969289 0.872108
v 0.400565 0.0904694 0.885025
v 0.290697 0.116296 0.794602
v 0.155033 0.116296 0.813979
v 0.387624 0.0775389 0.891658
v 0.261644 0.0678496 0.886771
v -0.387624 0.0646198 0.885025
v -0.397309 0.0678496 0.886771
v -0.400565 0.0646198 0.878566
v -0.426445 0.0578635 0.562087
v -0.421603 0.0578635 0.583558
v -0.421436 0.0578635 0.583907
v -0.407327 0.0578635 0.593333
v -0.406743 0.0578635 0.593683
v -0.387958 0.0578635 0.600665
v 0.41985 0.0578635 -0.865998
v 0.413505 0.116296 -0.878566
v 0.419933 0.135686 -0.865649
v 0.416678 0.145376 -0.867394
v 0.419933 0.148605 -0.85919
v 0.413505 0.161524 -0.846273
v 0.387624 0.174443 -0.775226
v 0.368256 0.174443 -0.736474
v 0.271329 0.174443 -0.678345
v 0.232591 0.174443 -0.658968
v -0.406993 0.0969289 0.852731
v -0.409414 0.0920786 0.872108
v -0.394136 0.0904694 0.885025
v -0.116296 0.116296 0.813979
v -0.232591 0.116296 0.794602
v -0.290697 0.116296 0.775226
v -0.329518 0.116296 0.75585
v -0.387624 0.116296 0.717097
v 0.116296 0.174443 -0.620216
v 0 0.174443 -0.60084
v -0.387624 0.0775389 0.891658
v -0.400565 0.0775389 0.885025
v -0.42152 0.0872282 0.862507
v -0.413505 0.0710793 0.846273
v -0.419933 0.0839984 0.85919
v -0.426445 0.0775389 0.581463
v -0.426445 0.0578635 -0.852731
v 0.413505 0.0578635 -0.878566
v 0.413255 0.0578635 -0.878741
v 0.397309 0.125985 -0.886771
v 0.406993 0.135686 -0.879439
v 0.397309 0.164754 -0.867394
v 0.400565 0.167984 -0.85919
v 0.387624 0.174443 -0.852731
v -0.419933 0.0904694 0.852731
v -0.400565 0.109848 0.717097
v -0.416678 0.0872282 0.867394
v -0.402151 0.0872282 0.881883
v -0.174402 0.174443 -0.658968
v -0.290697 0.174443 -0.717097
v -0.406993 0.116296 0.581463
v -0.387624 0.174443 -0.794602
v -0.419933 0.109848 0.581463
v -0.42152 0.106618 0.591064
v -0.426445 0.0969289 0.581463
v -0.426445 0.135686 -0.852731
v -0.426278 0.0578635 -0.85308
v 0.387624 0.0578635 -0.891658
v 0.387624 0.116296 -0.891658
v -0.358571 0.164754 -0.867394
v 0.387624 0.167984 -0.865649
v 0.300382 0.169605 -0.862507
v -0.387624 0.174443 -0.852731
v -0.406993 0.155065 -0.465205
v -0.413505 0.161524 -0.794602
v -0.419933 0.148605 -0.465205
v -0.42152 0.145376 -0.45543
v -0.426445 0.135686 -0.465205
v -0.413505 0.161524 -0.852731
v -0.419933 0.142146 -0.865649
v -0.419933 0.0578635 -0.865649
v 0.0578556 0.0578635 -0.891658
v 0.368256 0.116296 -0.891658
v -0.387624 0.167984 -0.865649
v -0.387624 0.155065 -0.872108
v -0.397309 0.169605 -0.862507
v -0.406993 0.157484 -0.867394
v -0.416678 0.150215 -0.862507
v -0.406993 0.135686 -0.872108
v -0.407327 0.0578635 -0.872108
v 0.0581061 0.0581602 -0.891658
f 1 2 10
f 1 10 28
f 1 28 12
f 1 12 3
f 1 3 4
f 1 4 5
f 1 5 2
f 2 5 6
f 2 6 7
f 2 7 8
f 2 8 9
f 2 9 26
f 2 26 25
f 2 25 24
f 2 24 23
f 2 23 22
f 2 22 21
f 2 21 49
f 2 49 48
f 2 48 47
f 2 47 46
f 2 46 45
f 2 45 44
f 2 44 76
f 2 76 96
f 2 96 110
f 2 110 119
f 2 119 111
f 2 111 97
f 2 97 78
f 2 78 77
f 2 77 50
f 2 50 27
f 2 27 10
f 3 11 4
f 3 12 29
f 3 29 11
f 4 13 14
f 4 14 15
f 4 15 5
f 4 11 13
f 5 15 16
f 5 16 6
f 6 16 17
f 6 17 7
f 7 17 18
f 7 18 41
f 7 41 19
f 7 19 20
f 7 20 8
f 8 20 49
f 8 49 21
f 8 21 22
f 8 22 23
f 8 23 24
f 8 24 25
f 8 25 26
f 8 26 9
f 10 27 28
f 11 29 13
f 12 28 55
f 12 55 30
f 12 30 29
f 13 31 14
f 13 29 32
f 13 32 33
f 13 33 34
f 13 34 31
f 14 35 62
f 14 62 36
f 14 36 15
f 14 31 37
f 14 37 38
f 14 38 63
f 14 63 35
f 15 36 39
f 15 39 17
f 15 17 16
f 17 39 18
f 18 39 40
f 18 40 42
f 18 42 41
f 19 41 20
f 20 41 42
f 20 42 43
f 20 43 44
f 20 44 45
f 20 45 46
f 20 46 47
f 20 47 48
f 20 48 49
f 27 50 28
f 28 50 51
f 28 51 52
f 28 52 53
f 28 53 54
f 28 54 55
f 29 30 32
f 30 55 82
f 30 82 83
f 30 83 56
f 30 56 32
f 31 34 33
f 31 33 32
f 31 32 56
f 31 56 57
f 31 57 58
f 31 58 59
f 31 59 37
f 35 60 61
f 35 61 62
f 35 63 64
f 35 64 65
f 35 65 66
f 35 66 67
f 35 67 60
f 36 62 70
f 36 70 39
f 37 59 68
f 37 68 69
f 37 69 38
f 38 69 63
f 39 70 42
f 39 42 40
f 42 70 71
f 42 71 72
f 42 72 43
f 43 72 73
f 43 73 44
f 44 73 74
f 44 74 72
f 44 72 75
f 44 75 94
f 44 94 107
f 44 107 95
f 44 95 76
f 50 77 51
f 51 77 78
f 51 78 79
f 51 79 80
f 51 80 53
f 51 53 52
f 53 80 81
f 53 81 82
f 53 82 54
f 54 82 55
f 56 83 102
f 56 102 91
f 56 91 89
f 56 89 88
f 56 88 69
f 56 69 68
f 56 68 59
f 56 59 58
f 56 58 57
f 60 84 61
f 60 67 85
f 60 85 84
f 61 84 72
f 61 72 86
f 61 86 87
f 61 87 62
f 62 87 70
f 63 69 64
f 64 69 88
f 64 88 65
f 65 88 66
f 66 88 89
f 66 89 67
f 67 90 92
f 67 92 85
f 67 89 91
f 67 91 90
f 70 87 71
f 71 87 86
f 71 86 72
f 72 74 73
f 72 84 92
f 72 92 93
f 72 93 94
f 72 94 75
f 76 95 96
f 78 97 98
f 78 98 79
f 79 98 81
f 79 81 80
f 81 98 112
f 81 112 99
f 81 99 113
f 81 113 100
f 81 100 83
f 81 83 82
f 83 100 101
f 83 101 115
f 83 115 102
f 84 85 92
f 90 91 103
f 90 103 92
f 91 102 108
f 91 108 104
f 91 104 105
f 91 105 103
f 92 103 105
f 92 105 106
f 92 106 93
f 93 106 94
f 94 106 107
f 95 107 104
f 95 104 108
f 95 108 109
f 95 109 96
f 96 109 110
f 97 111 120
f 97 120 112
f 97 112 98
f 99 112 114
f 99 114 113
f 100 113 115
f 100 115 101
f 102 115 108
f 104 107 105
f 105 107 106
f 108 115 116
f 108 116 117
f 108 117 109
f 109 117 116
f 109 116 118
f 109 118 119
f 109 119 110
f 111 119 118
f 111 118 120
f 112 120 114
f 113 114 116
f 113 116 115
f 114 120 118
f 114 118 116
o convex_1
v 0.426445 0.0578635 0.562043
v 0.422021 0.0578635 0.581473
v 0.426445 0.0387614 0.562043
v 0.426445 0.0578635 -0.8528
v 0.42152 0.0578635 0.583518
v 0.419933 0.032303 0.575045
v 0.426445 -1.14266e-05 0.542614
v 0.426445 -0.0775343 -0.8528
v 0.413505 0.0578635 -0.878657
v 0.416678 0.0578635 0.591115
v 0.416678 0.0532927 0.591115
v 0.416678 -0.0242302 0.552402
v 0.419933 -0.00646977 0.555616
v 0.426445 -0.135682 0.465188
v 0.42152 -0.0872218 -0.862441
v 0.413505 -0.0775343 -0.878657
v 0.426445 -0.0969093 -0.755945
v 0.413255 0.0578635 -0.878803
v 0.408579 0.0578635 0.59652
v 0.406993 0.0578635 0.597542
v 0.406993 -0.0218197 0.557223
v 0.400565 -0.103368 0.516903
v 0.406993 -0.15749 0.479651
v 0.416678 -0.121128 0.49426
v 0.419933 -0.14214 0.478044
v 0.413505 -0.161515 0.465188
v 0.426445 -0.135682 0.193761
v 0.42152 -0.106597 -0.765586
v 0.413505 -0.103368 -0.8528
v 0.406993 -0.0969093 -0.872229
v 0.402151 -0.0872218 -0.881871
v 0.394136 -0.090451 -0.885085
v 0.387624 -0.0775343 -0.891658
v 0.387624 0.0578635 -0.891658
v 0.387624 0.0578635 0.600756
v 0.387624 -0.109826 0.516903
v 0.387624 -0.122743 0.510329
v 0.397309 -0.111441 0.513543
v 0.397309 -0.169588 0.47483
v 0.416678 -0.150213 0.47483
v 0.387624 -0.174455 0.465188
v 0.413505 -0.161515 0.445759
v 0.419933 -0.148599 0.193761
v 0.42152 -0.14537 0.184119
v 0.419933 -0.109826 -0.755945
v 0.387624 -0.116284 -0.8528
v 0.394136 -0.109826 -0.865801
v 0.402151 -0.106597 -0.862441
v 0.381196 -0.103368 -0.878657
v 0.310066 -0.0775343 -0.891658
v 0.0578556 0.0578635 -0.891658
v -0.387958 0.0578635 0.600756
v -0.387624 -0.109826 0.516903
v -0.368256 -0.148599 0.497473
v 0.387624 -0.167974 0.478044
v -0.387624 -0.174455 0.445759
v 0.387624 -0.174455 0.445759
v -0.397309 -0.169588 0.47483
v 0.406993 -0.155057 0.193761
v 0.406993 -0.116284 -0.755945
v -0.0968435 -0.135682 -0.755945
v -0.135664 -0.135682 -0.775228
v -0.358571 -0.130838 -0.804299
v -0.406993 -0.116284 -0.8528
v 0.387624 -0.155057 -0.019525
v 0.348887 -0.155057 -0.0582378
v 0.290697 -0.155057 -0.0969506
v -0.400565 -0.109826 -0.865801
v 0.303638 -0.103368 -0.878657
v 0.0581061 -0.0581593 -0.891658
v -0.406993 -0.0969093 -0.872229
v 0.0387374 0.0387614 -0.891658
v -0.406993 0.0578635 -0.872229
v -0.406743 0.0578635 0.593598
v -0.397309 0.0484489 0.595935
v -0.397309 0.00967609 0.576652
v -0.397309 -0.106597 0.51851
v -0.387624 -0.148599 0.497473
v -0.387624 -0.162334 0.484472
v -0.400565 -0.167974 0.471616
v -0.413505 -0.161515 0.458615
v -0.387624 -0.174455 0.310045
v 0.310066 -0.174455 0.348904
v -0.416678 -0.14537 0.489439
v -0.397309 -0.14537 0.49908
v 0.135664 -0.174455 0.232473
v -0.310066 -0.135682 -0.775228
v -0.0774748 -0.174455 0.174331
v -0.348887 -0.135682 -0.755945
v -0.368256 -0.135682 -0.736515
v -0.387624 -0.135682 -0.697802
v -0.419933 -0.109826 -0.846372
v -0.416678 -0.106597 -0.862441
v -0.406993 -0.135682 -0.581372
v 0.0387374 -0.0387842 -0.891658
v 0 -1.14266e-05 -0.891658
v -0.419933 -0.090451 -0.865801
v -0.407327 0.0578635 -0.872083
v -0.407327 0.0578635 0.593306
v -0.406993 0.0387614 0.588777
v -0.406993 -0.116284 0.511205
v -0.419933 -0.148599 0.471616
v -0.426445 -0.135682 0.465188
v -0.413505 -0.161515 0.303617
v -0.368256 -0.174455 0.290616
v -0.406993 -0.155057 -0.0582378
v -0.42152 -0.135682 0.486955
v -0.416678 -0.0290967 0.547581
v -0.421436 0.0578635 0.583956
v -0.42152 -0.0969093 0.506385
v -0.135664 -0.174455 0.174331
v -0.213223 -0.174455 0.193761
v -0.290697 -0.174455 0.232473
v -0.348887 -0.174455 0.271332
v -0.426445 -0.0969093 -0.8528
v -0.419933 -0.129224 -0.574944
v -0.419933 0.0578635 -0.865801
v -0.416678 0.0484489 0.586294
v -0.416678 0.0290739 0.576652
v -0.426445 -0.116284 0.484472
v -0.426445 -0.135682 -0.0582378
v -0.419933 -0.148599 -0.05181
v -0.426445 -0.0387842 0.523331
v -0.421603 0.0578635 0.583518
v -0.426445 0.0387614 0.562043
v -0.42152 0.0193636 0.564527
v -0.426445 0.0578635 -0.8528
v -0.426445 -0.116284 -0.581372
v -0.426445 0.0578635 0.562043
f 121 122 123
f 121 123 127
f 121 127 134
f 121 134 147
f 121 147 137
f 121 137 128
f 121 128 124
f 121 124 129
f 121 129 138
f 121 138 154
f 121 154 171
f 121 171 193
f 121 193 218
f 121 218 237
f 121 237 247
f 121 247 249
f 121 249 244
f 121 244 229
f 121 229 219
f 121 219 194
f 121 194 172
f 121 172 155
f 121 155 140
f 121 140 139
f 121 139 130
f 121 130 125
f 121 125 122
f 122 125 123
f 123 125 126
f 123 126 133
f 123 133 127
f 124 128 136
f 124 136 129
f 125 130 131
f 125 131 126
f 126 132 133
f 126 131 132
f 127 133 134
f 128 135 136
f 128 137 148
f 128 148 135
f 129 136 138
f 130 139 131
f 131 139 140
f 131 140 132
f 132 140 141
f 132 141 142
f 132 142 143
f 132 143 144
f 132 144 145
f 132 145 133
f 133 145 134
f 134 145 146
f 134 146 162
f 134 162 147
f 135 148 149
f 135 149 150
f 135 150 136
f 136 151 152
f 136 152 153
f 136 153 138
f 136 150 151
f 137 147 164
f 137 164 148
f 138 153 154
f 140 155 156
f 140 156 141
f 141 156 157
f 141 157 142
f 142 157 158
f 142 158 143
f 143 159 146
f 143 146 160
f 143 160 145
f 143 145 144
f 143 158 157
f 143 157 159
f 145 160 146
f 146 161 177
f 146 177 162
f 146 159 161
f 147 162 163
f 147 163 164
f 148 165 149
f 148 164 163
f 148 163 165
f 149 166 167
f 149 167 168
f 149 168 150
f 149 165 180
f 149 180 166
f 150 168 167
f 150 167 152
f 150 152 151
f 152 167 169
f 152 169 153
f 153 169 189
f 153 189 170
f 153 170 190
f 153 190 215
f 153 215 216
f 153 216 192
f 153 192 171
f 153 171 154
f 155 172 173
f 155 173 156
f 156 173 198
f 156 198 174
f 156 174 157
f 157 174 175
f 157 175 159
f 159 175 161
f 161 176 202
f 161 202 225
f 161 225 234
f 161 234 233
f 161 233 232
f 161 232 231
f 161 231 208
f 161 208 206
f 161 206 203
f 161 203 177
f 161 175 178
f 161 178 176
f 162 177 163
f 163 177 179
f 163 179 180
f 163 180 165
f 166 181 182
f 166 182 183
f 166 183 184
f 166 184 188
f 166 188 167
f 166 180 185
f 166 185 186
f 166 186 187
f 166 187 181
f 167 188 189
f 167 189 169
f 170 189 191
f 170 191 190
f 171 192 193
f 172 194 195
f 172 195 196
f 172 196 197
f 172 197 173
f 173 197 205
f 173 205 198
f 174 198 199
f 174 199 175
f 175 199 178
f 176 178 200
f 176 200 201
f 176 201 224
f 176 224 202
f 177 203 185
f 177 185 180
f 177 180 179
f 178 204 200
f 178 199 205
f 178 205 204
f 181 187 206
f 181 206 182
f 182 207 183
f 182 206 208
f 182 208 231
f 182 231 207
f 183 207 209
f 183 209 210
f 183 210 211
f 183 211 184
f 184 212 213
f 184 213 188
f 184 211 214
f 184 214 236
f 184 236 212
f 185 203 186
f 186 203 206
f 186 206 187
f 188 213 191
f 188 191 189
f 190 191 215
f 191 193 216
f 191 216 215
f 191 213 217
f 191 217 218
f 191 218 193
f 192 216 193
f 194 219 220
f 194 220 195
f 195 220 196
f 196 220 197
f 197 221 205
f 197 220 221
f 198 205 199
f 200 204 201
f 201 204 222
f 201 222 223
f 201 223 241
f 201 241 224
f 202 224 226
f 202 226 214
f 202 214 211
f 202 211 210
f 202 210 209
f 202 209 225
f 204 227 222
f 204 205 221
f 204 221 220
f 204 220 228
f 204 228 229
f 204 229 230
f 204 230 227
f 207 231 232
f 207 232 209
f 209 232 233
f 209 233 234
f 209 234 225
f 212 235 213
f 212 236 235
f 213 235 217
f 214 226 242
f 214 242 236
f 217 235 247
f 217 247 237
f 217 237 218
f 219 229 238
f 219 238 220
f 220 238 239
f 220 239 228
f 222 227 223
f 223 227 240
f 223 240 243
f 223 243 245
f 223 245 249
f 223 249 247
f 223 247 235
f 223 235 248
f 223 248 241
f 224 241 242
f 224 242 226
f 227 230 243
f 227 243 240
f 228 239 229
f 229 239 238
f 229 244 245
f 229 245 243
f 229 243 246
f 229 246 230
f 230 246 243
f 235 236 248
f 236 242 241
f 236 241 248
f 244 249 245
