# https://github.com/mikedh/trimesh
v 0.53562400 0.51830000 0.22460700
v 0.53562400 0.52983400 0.21884700
v 0.34194400 0.51830000 0.22460700
v 0.53562400 -0.51830000 0.22460700
v 0.34194400 0.52983400 0.21884700
v 0.53562400 0.53560100 0.20732600
v 0.34194400 -0.43189900 0.22460700
v 0.44920300 -0.51830000 0.22460700
v 0.53558700 -0.52983400 0.21884700
v 0.53562400 -0.52972900 0.21884700
v 0.34194400 0.53560100 0.20732600
v 0.53562400 0.53560100 0.00000000
v 0.34194400 -0.50099900 0.20732600
v 0.44055700 -0.52689800 0.22025400
v 0.44920300 -0.52983400 0.21884700
v 0.53562400 -0.53560100 0.20732600
v 0.34194400 0.53560100 0.00000000
v 0.39738400 0.53560100 -0.12092200
v 0.53562400 0.48369800 -0.20732600
v 0.34194400 -0.51253300 0.20156600
v 0.44920300 -0.53560100 0.20732600
v 0.53562400 -0.53560100 -0.19004500
v 0.36283900 0.53560100 -0.12092200
v 0.35419300 0.53119700 -0.12954000
v 0.35131100 0.52983400 -0.12092200
v 0.34556600 0.51830000 -0.12092200
v 0.34194400 0.53465700 -0.00404539
v 0.39738400 0.52983400 -0.13244200
v 0.53562400 0.47793100 -0.21884700
v 0.34194400 -0.51830000 0.19004500
v 0.34194400 -0.53560100 0.10364100
v 0.53558700 -0.53560100 -0.20732600
v 0.53562400 -0.53549600 -0.20737000
v 0.36283900 0.52983400 -0.13244200
v 0.34194400 0.47918900 -0.21867100
v 0.34194400 0.48369800 -0.20956900
v 0.34194400 0.48548000 -0.20547900
v 0.53562400 0.46639700 -0.22460700
v 0.34194400 -0.53560100 -0.20732600
v 0.53562400 -0.52983400 -0.21884700
v 0.34194400 0.46639700 -0.22460700
v 0.53562400 -0.50099900 -0.22460700
v 0.34194400 -0.52983400 -0.21884700
v 0.53558700 -0.51830000 -0.22460700
v 0.53562400 -0.51830000 -0.22456300
v 0.34194400 -0.51830000 -0.22460700
f 18 34 23
f 16 39 32
f 17 26 27
f 17 25 26
f 17 24 25
f 17 23 24
f 16 32 22
f 18 28 34
f 15 20 30
f 16 21 31
f 15 30 21
f 14 20 15
f 13 20 14
f 12 19 18
f 9 16 10
f 9 15 21
f 18 19 29
f 9 21 16
f 16 31 39
f 18 29 28
f 29 38 35
f 22 32 33
f 40 43 46
f 8 14 15
f 40 44 45
f 38 46 41
f 38 44 46
f 38 42 44
f 35 38 41
f 32 40 33
f 32 43 40
f 32 39 43
f 28 35 34
f 28 29 35
f 26 37 27
f 25 37 26
f 24 37 25
f 24 36 37
f 24 35 36
f 24 34 35
f 23 34 24
f 21 30 31
f 8 13 14
f 1 6 2
f 6 17 11
f 1 12 6
f 1 19 12
f 1 29 19
f 1 38 29
f 1 42 38
f 1 45 42
f 1 40 45
f 1 33 40
f 2 6 11
f 1 22 33
f 1 10 16
f 1 4 10
f 1 8 4
f 1 7 8
f 1 3 7
f 1 5 3
f 1 2 5
f 40 46 44
f 1 16 22
f 2 11 5
f 3 5 11
f 3 11 17
f 6 23 17
f 6 18 23
f 6 12 18
f 4 9 10
f 4 15 9
f 4 8 15
f 3 13 7
f 3 20 13
f 3 30 20
f 3 31 30
f 3 39 31
f 3 43 39
f 3 46 43
f 3 41 46
f 3 35 41
f 3 36 35
f 3 37 36
f 3 27 37
f 3 17 27
f 7 13 8
f 42 45 44

