# https://github.com/mikedh/trimesh
v 0.77746300 0.51830000 0.22460700
v 0.78897900 0.51253300 0.21884700
v 0.78611300 0.52689800 0.21594400
v 0.77170500 0.52983400 0.21884700
v 0.53565000 0.51830000 0.22460700
v 0.77746300 -0.51830000 0.22460700
v 0.79476300 0.51830000 0.20732600
v 0.78897900 -0.52406700 0.21884700
v 0.78897900 0.52983400 0.20156600
v 0.77746300 0.53560100 0.20732600
v 0.53565000 0.52983400 0.21884700
v 0.53565000 -0.51830000 0.22460700
v 0.77746300 -0.52983400 0.21884700
v 0.79476300 0.51830000 0.00000000
v 0.79476300 -0.51830000 0.20732600
v 0.78611300 -0.53119700 0.21594400
v 0.78897900 -0.52983400 0.20732600
v 0.78897900 0.52983400 -0.00571631
v 0.53565000 0.53560100 0.20732600
v 0.77746300 0.53560100 0.00000000
v 0.53565000 -0.52972900 0.21884700
v 0.55289900 -0.52983400 0.21884700
v 0.77746300 -0.53560100 0.20732600
v 0.68533400 0.51830000 -0.21884700
v 0.68533400 0.52983400 -0.21308600
v 0.79476300 -0.51830000 0.00000000
v 0.78897900 -0.52983400 0.00000000
v 0.53565000 0.53560100 0.00000000
v 0.67381800 0.53560100 -0.20732600
v 0.53565000 -0.53560100 0.20732600
v 0.77746300 -0.53560100 0.00000000
v 0.67381800 0.51830000 -0.22460700
v 0.68244200 0.52689800 -0.22025400
v 0.68533400 -0.51830000 -0.21884700
v 0.67381800 0.52983400 -0.21884700
v 0.79042500 -0.52689800 -0.00861843
v 0.73860300 -0.52689800 -0.11230300
v 0.77964500 -0.53119700 -0.01723690
v 0.66519400 0.53119700 -0.21594400
v 0.53565000 0.48369800 -0.20732600
v 0.53565000 -0.53560100 -0.19004500
v 0.67381800 -0.53560100 -0.20732600
v 0.53565000 0.46639700 -0.22460700
v 0.67381800 -0.51830000 -0.22460700
v 0.70405400 -0.52689800 -0.18138300
v 0.68675500 -0.52689800 -0.21594400
v 0.67957600 -0.52983400 -0.21884700
v 0.53565000 0.47793100 -0.21884700
v 0.69324800 -0.53119700 -0.19004500
v 0.55289900 -0.53560100 -0.20732600
v 0.53565000 -0.53549600 -0.20737000
v 0.53565000 -0.50099900 -0.22460700
v 0.55289900 -0.51830000 -0.22460700
v 0.53565000 -0.52983400 -0.21884700
v 0.53565000 -0.51830000 -0.22456300
f 24 44 32
f 28 39 40
f 28 29 39
f 27 38 36
f 26 37 34
f 26 36 37
f 29 35 39
f 26 27 36
f 25 35 29
f 25 33 35
f 27 31 38
f 23 41 50
f 24 33 25
f 24 32 33
f 23 42 31
f 23 50 42
f 23 30 41
f 21 30 22
f 20 25 29
f 18 25 20
f 17 31 27
f 31 42 38
f 17 23 31
f 24 34 44
f 32 43 48
f 41 51 50
f 32 35 33
f 16 23 17
f 53 54 55
f 52 53 55
f 50 51 54
f 46 49 47
f 45 49 46
f 44 54 53
f 44 47 54
f 42 47 49
f 42 54 47
f 42 50 54
f 32 48 35
f 39 48 40
f 37 49 45
f 37 38 49
f 36 38 37
f 35 48 39
f 34 47 44
f 34 46 47
f 34 45 46
f 34 37 45
f 32 52 43
f 32 53 52
f 32 44 53
f 38 42 49
f 15 27 26
f 6 22 13
f 14 34 24
f 5 52 55
f 5 43 52
f 5 48 43
f 5 40 48
f 5 28 40
f 5 19 28
f 5 11 19
f 4 19 11
f 4 10 19
f 3 10 4
f 3 9 10
f 3 7 9
f 2 15 7
f 2 8 15
f 2 7 3
f 1 8 2
f 1 6 8
f 1 12 6
f 1 11 5
f 1 4 11
f 1 3 4
f 1 2 3
f 15 17 27
f 5 55 54
f 5 54 51
f 1 5 12
f 5 41 30
f 14 26 34
f 5 51 41
f 14 25 18
f 14 24 25
f 13 30 23
f 13 22 30
f 12 21 22
f 10 28 19
f 10 29 28
f 10 20 29
f 9 20 10
f 9 18 20
f 13 23 16
f 8 16 17
f 8 17 15
f 6 12 22
f 6 13 8
f 5 30 21
f 5 21 12
f 7 18 9
f 7 15 26
f 7 26 14
f 8 13 16
f 7 14 18

