o convex_0
v 0.341925 0.535601 0.207326
v 0.341925 0.529834 0.218847
v 0.341925 0.535601 0
v -0.777405 0.535601 0.207326
v 0.341925 0.5183 0.224607
v -0.783191 0.529834 0.218847
v 0.341925 0.534657 -0.00404539
v 0.32824 0.5183 -0.207326
v 0.322454 0.529834 -0.213086
v 0.310993 0.535601 -0.207326
v -0.777405 0.535601 0
v -0.788977 0.529834 0.207326
v 0.341925 -0.431899 0.224607
v -0.777405 0.5183 0.224607
v -0.790423 0.526898 0.215944
v -0.788977 0.5183 0.218847
v 0.341925 0.48548 -0.205479
v 0.341925 0.483698 -0.209569
v 0.319561 0.526898 -0.220254
v 0.310993 0.529834 -0.218847
v 0.341925 0.479189 -0.218671
v -0.673817 0.535601 -0.207326
v -0.768838 0.531197 -0.0431801
v -0.786084 0.531197 -0.00861843
v -0.788977 0.529834 0
v -0.742913 0.535601 -0.0690794
v -0.794763 0.5183 0.207326
v 0.341925 -0.500999 0.207326
v 0.22454 -0.5183 0.224607
v -0.777405 -0.5183 0.224607
v -0.788977 -0.5183 0.218847
v 0.310993 0.5183 -0.224607
v 0.341925 0.466397 -0.224607
v -0.673817 0.529834 -0.218847
v -0.682385 0.531197 -0.215944
v -0.716988 0.531197 -0.146821
v -0.788977 0.524067 -0.0114766
v -0.719881 0.524067 -0.149723
v -0.794763 0.5183 0
v -0.794763 -0.5183 0.207326
v 0.341925 -0.512533 0.201566
v 0.22454 -0.529834 0.218847
v -0.786084 -0.526898 0.220254
v -0.777405 -0.529834 0.218847
v -0.788977 -0.529834 0.213086
v -0.673817 0.5183 -0.224607
v 0.341925 -0.5183 -0.224607
v -0.685278 0.524067 -0.218847
v -0.696849 0.512533 -0.195805
v -0.794763 -0.5183 0
v 0.341925 -0.5183 0.190045
v 0.233219 -0.531197 0.215944
v 0.22454 -0.535601 0.207326
v -0.777405 -0.535601 0.207326
v -0.788977 -0.529834 0.00571631
v -0.673817 -0.5183 -0.224607
v 0.341925 -0.529834 -0.218847
v -0.685278 -0.512533 -0.218847
v -0.696849 -0.524067 -0.195805
v -0.765945 -0.524067 -0.0575588
v -0.783191 -0.524067 -0.0229971
v 0.341925 -0.535601 0.103641
v -0.777405 -0.535601 0
v -0.673817 -0.535601 -0.207326
v -0.742913 -0.535601 -0.0690794
v -0.668031 -0.529834 -0.218847
v -0.682385 -0.526898 -0.215944
v 0.341925 -0.535601 -0.207326
f 1 2 5
f 1 5 13
f 1 13 28
f 1 28 41
f 1 41 51
f 1 51 62
f 1 62 68
f 1 68 57
f 1 57 47
f 1 47 33
f 1 33 21
f 1 21 18
f 1 18 17
f 1 17 7
f 1 7 3
f 1 3 10
f 1 10 22
f 1 22 26
f 1 26 11
f 1 11 4
f 1 4 6
f 1 6 2
f 2 6 14
f 2 14 5
f 3 7 8
f 3 8 9
f 3 9 10
f 4 11 25
f 4 25 12
f 4 12 6
f 5 14 30
f 5 30 29
f 5 29 13
f 6 12 15
f 6 15 16
f 6 16 14
f 7 17 8
f 8 17 18
f 8 18 9
f 9 19 20
f 9 20 10
f 9 18 21
f 9 21 19
f 10 20 34
f 10 34 22
f 11 23 24
f 11 24 25
f 11 26 23
f 12 25 39
f 12 39 27
f 12 27 15
f 13 29 28
f 14 16 31
f 14 31 30
f 15 27 16
f 16 27 40
f 16 40 31
f 19 32 20
f 19 21 33
f 19 33 32
f 20 32 46
f 20 46 34
f 22 34 35
f 22 35 36
f 22 36 23
f 22 23 26
f 23 37 24
f 23 36 38
f 23 38 37
f 24 37 25
f 25 37 39
f 27 39 50
f 27 50 40
f 28 29 42
f 28 42 41
f 29 30 44
f 29 44 42
f 30 31 43
f 30 43 44
f 31 40 45
f 31 45 43
f 32 33 47
f 32 47 56
f 32 56 46
f 34 46 48
f 34 48 35
f 35 48 38
f 35 38 36
f 37 38 39
f 38 48 49
f 38 49 39
f 39 49 59
f 39 59 50
f 40 50 55
f 40 55 45
f 41 42 52
f 41 52 51
f 42 53 52
f 42 44 54
f 42 54 53
f 43 45 44
f 44 45 54
f 45 55 63
f 45 63 54
f 46 56 58
f 46 58 48
f 47 57 66
f 47 66 56
f 48 58 59
f 48 59 49
f 50 60 61
f 50 61 55
f 50 59 60
f 51 52 53
f 51 53 62
f 53 54 63
f 53 63 65
f 53 65 64
f 53 64 68
f 53 68 62
f 55 61 60
f 55 60 59
f 55 59 64
f 55 64 65
f 55 65 63
f 56 66 67
f 56 67 58
f 57 68 64
f 57 64 66
f 58 67 59
f 59 67 64
f 64 67 66
o convex_1
v 0.777463 0.5183 0.224607
v 0.788979 0.512533 0.218847
v 0.786113 0.526898 0.215944
v 0.771705 0.529834 0.218847
v 0.53565 0.5183 0.224607
v 0.777463 -0.5183 0.224607
v 0.794763 0.5183 0.207326
v 0.788979 -0.524067 0.218847
v 0.788979 0.529834 0.201566
v 0.777463 0.535601 0.207326
v 0.53565 0.529834 0.218847
v 0.53565 -0.5183 0.224607
v 0.777463 -0.529834 0.218847
v 0.794763 0.5183 0
v 0.794763 -0.5183 0.207326
v 0.786113 -0.531197 0.215944
v 0.788979 -0.529834 0.207326
v 0.788979 0.529834 -0.00571631
v 0.53565 0.535601 0.207326
v 0.777463 0.535601 0
v 0.53565 -0.529729 0.218847
v 0.552899 -0.529834 0.218847
v 0.777463 -0.535601 0.207326
v 0.685334 0.5183 -0.218847
v 0.685334 0.529834 -0.213086
v 0.794763 -0.5183 0
v 0.788979 -0.529834 0
v 0.53565 0.535601 0
v 0.673818 0.535601 -0.207326
v 0.53565 -0.535601 0.207326
v 0.777463 -0.535601 0
v 0.673818 0.5183 -0.224607
v 0.682442 0.526898 -0.220254
v 0.685334 -0.5183 -0.218847
v 0.673818 0.529834 -0.218847
v 0.790425 -0.526898 -0.00861843
v 0.738603 -0.526898 -0.112303
v 0.779645 -0.531197 -0.0172369
v 0.665194 0.531197 -0.215944
v 0.53565 0.483698 -0.207326
v 0.53565 -0.535601 -0.190045
v 0.673818 -0.535601 -0.207326
v 0.53565 0.466397 -0.224607
v 0.673818 -0.5183 -0.224607
v 0.704054 -0.526898 -0.181383
v 0.686755 -0.526898 -0.215944
v 0.679576 -0.529834 -0.218847
v 0.53565 0.477931 -0.218847
v 0.693248 -0.531197 -0.190045
v 0.552899 -0.535601 -0.207326
v 0.53565 -0.535496 -0.20737
v 0.53565 -0.500999 -0.224607
v 0.552899 -0.5183 -0.224607
v 0.53565 -0.529834 -0.218847
v 0.53565 -0.5183 -0.224563
f 69 70 71
f 69 71 72
f 69 72 79
f 69 79 73
f 69 73 80
f 69 80 74
f 69 74 76
f 69 76 70
f 70 75 71
f 70 76 83
f 70 83 75
f 71 75 77
f 71 77 78
f 71 78 72
f 72 78 87
f 72 87 79
f 73 79 87
f 73 87 96
f 73 96 108
f 73 108 116
f 73 116 111
f 73 111 120
f 73 120 123
f 73 123 122
f 73 122 119
f 73 119 109
f 73 109 98
f 73 98 89
f 73 89 80
f 74 80 90
f 74 90 81
f 74 81 76
f 75 82 86
f 75 86 77
f 75 83 94
f 75 94 82
f 76 81 84
f 76 84 85
f 76 85 83
f 77 86 88
f 77 88 78
f 78 88 97
f 78 97 96
f 78 96 87
f 80 89 90
f 81 90 98
f 81 98 91
f 81 91 84
f 82 92 93
f 82 93 86
f 82 94 102
f 82 102 92
f 83 85 95
f 83 95 94
f 84 91 85
f 85 91 99
f 85 99 95
f 86 93 88
f 88 93 97
f 89 98 90
f 91 98 109
f 91 109 118
f 91 118 110
f 91 110 99
f 92 100 101
f 92 101 93
f 92 102 112
f 92 112 100
f 93 101 103
f 93 103 97
f 94 95 104
f 94 104 105
f 94 105 102
f 95 106 104
f 95 99 106
f 96 97 107
f 96 107 108
f 97 103 107
f 99 110 106
f 100 111 116
f 100 116 103
f 100 103 101
f 100 112 121
f 100 121 120
f 100 120 111
f 102 105 113
f 102 113 114
f 102 114 115
f 102 115 112
f 103 116 107
f 104 106 105
f 105 106 117
f 105 117 113
f 106 110 117
f 107 116 108
f 109 119 118
f 110 118 122
f 110 122 115
f 110 115 117
f 112 115 122
f 112 122 121
f 113 117 114
f 114 117 115
f 118 119 122
f 120 121 123
f 121 122 123
o convex_2
v 0.535624 0.5183 0.224607
v 0.535624 0.529834 0.218847
v 0.341944 0.5183 0.224607
v 0.535624 -0.5183 0.224607
v 0.341944 0.529834 0.218847
v 0.535624 0.535601 0.207326
v 0.341944 -0.431899 0.224607
v 0.449203 -0.5183 0.224607
v 0.535587 -0.529834 0.218847
v 0.535624 -0.529729 0.218847
v 0.341944 0.535601 0.207326
v 0.535624 0.535601 0
v 0.341944 -0.500999 0.207326
v 0.440557 -0.526898 0.220254
v 0.449203 -0.529834 0.218847
v 0.535624 -0.535601 0.207326
v 0.341944 0.535601 0
v 0.397384 0.535601 -0.120922
v 0.535624 0.483698 -0.207326
v 0.341944 -0.512533 0.201566
v 0.449203 -0.535601 0.207326
v 0.535624 -0.535601 -0.190045
v 0.362839 0.535601 -0.120922
v 0.354193 0.531197 -0.12954
v 0.351311 0.529834 -0.120922
v 0.345566 0.5183 -0.120922
v 0.341944 0.534657 -0.00404539
v 0.397384 0.529834 -0.132442
v 0.535624 0.477931 -0.218847
v 0.341944 -0.5183 0.190045
v 0.341944 -0.535601 0.103641
v 0.535587 -0.535601 -0.207326
v 0.535624 -0.535496 -0.20737
v 0.362839 0.529834 -0.132442
v 0.341944 0.479189 -0.218671
v 0.341944 0.483698 -0.209569
v 0.341944 0.48548 -0.205479
v 0.535624 0.466397 -0.224607
v 0.341944 -0.535601 -0.207326
v 0.535624 -0.529834 -0.218847
v 0.341944 0.466397 -0.224607
v 0.535624 -0.500999 -0.224607
v 0.341944 -0.529834 -0.218847
v 0.535587 -0.5183 -0.224607
v 0.535624 -0.5183 -0.224563
v 0.341944 -0.5183 -0.224607
f 124 125 128
f 124 128 126
f 124 126 130
f 124 130 131
f 124 131 127
f 124 127 133
f 124 133 139
f 124 139 145
f 124 145 156
f 124 156 163
f 124 163 168
f 124 168 165
f 124 165 161
f 124 161 152
f 124 152 142
f 124 142 135
f 124 135 129
f 124 129 125
f 125 129 134
f 125 134 128
f 126 128 134
f 126 134 140
f 126 140 150
f 126 150 160
f 126 160 159
f 126 159 158
f 126 158 164
f 126 164 169
f 126 169 166
f 126 166 162
f 126 162 154
f 126 154 153
f 126 153 143
f 126 143 136
f 126 136 130
f 127 131 138
f 127 138 132
f 127 132 133
f 129 135 141
f 129 141 146
f 129 146 140
f 129 140 134
f 130 136 131
f 131 136 137
f 131 137 138
f 132 138 144
f 132 144 139
f 132 139 133
f 135 142 141
f 136 143 137
f 137 143 138
f 138 143 153
f 138 153 144
f 139 144 154
f 139 154 162
f 139 162 155
f 139 155 145
f 140 146 147
f 140 147 148
f 140 148 149
f 140 149 150
f 141 151 157
f 141 157 146
f 141 142 152
f 141 152 151
f 144 153 154
f 145 155 156
f 146 157 147
f 147 157 158
f 147 158 159
f 147 159 160
f 147 160 148
f 148 160 149
f 149 160 150
f 151 152 158
f 151 158 157
f 152 161 158
f 155 162 166
f 155 166 163
f 155 163 156
f 158 161 164
f 161 165 167
f 161 167 169
f 161 169 164
f 163 167 168
f 163 166 169
f 163 169 167
f 165 168 167
