# https://github.com/mikedh/trimesh
v 0.29774900 0.02121780 -0.02272090
v 0.29267800 0.04360150 -0.02272090
v 0.29774900 -0.02121780 -0.02272090
v 0.29774900 0.02121780 -0.38284800
v 0.27647300 0.10632200 -0.02272090
v 0.27647300 0.10632200 -0.38284800
v 0.28387600 -0.08650350 -0.02272090
v 0.29774900 -0.02121780 -0.38284800
v 0.23392100 0.04249400 -0.85063800
v 0.23392100 0.06377010 -0.82940400
v 0.26977000 0.12206100 -0.02272090
v 0.26936200 0.12048700 -0.38995700
v 0.25519700 0.14887500 -0.38284800
v 0.27647300 -0.10632200 -0.02272090
v 0.27647300 -0.10632200 -0.38284800
v 0.23392100 -0.06377010 -0.82940400
v 0.23392100 -0.04249400 -0.85063800
v 0.22861600 -0.05316120 -0.86130100
v 0.21975600 0.04249400 -0.87898000
v 0.22861600 0.06377010 -0.85335100
v 0.22680900 0.07793480 -0.83651300
v 0.24103200 0.17720400 -0.02272090
v 0.24808600 0.16303900 -0.38995700
v 0.24103200 0.17720400 -0.37573900
v 0.24103200 -0.17720400 -0.02272090
v 0.24989300 -0.15948400 -0.39351100
v 0.27111000 -0.11693100 -0.39351100
v 0.22861600 -0.07443730 -0.84006800
v 0.22063100 -0.08504620 -0.85063800
v 0.19935400 -0.12759900 -0.85063800
v 0.18606400 -0.13820700 -0.86130100
v 0.17720400 -0.12759900 -0.87898000
v 0.21975600 -0.04249400 -0.87898000
v 0.09921090 0.00000000 -0.97121000
v 0.09565520 0.01060890 -0.97298700
v 0.20203600 0.05316120 -0.88786700
v 0.17720400 0.12759900 -0.87898000
v 0.22331200 0.07443730 -0.85597000
v 0.20553300 0.12048700 -0.83651300
v 0.17720400 0.24103200 -0.02272090
v 0.19848000 0.13465200 -0.82229500
v 0.21975600 0.19848000 -0.39706600
v 0.17720400 -0.24103200 -0.02272090
v 0.24103200 -0.17720400 -0.38284800
v 0.20734000 -0.11693100 -0.84006800
v 0.17720400 -0.15592800 -0.85063800
v 0.19848000 -0.13465200 -0.82940400
v 0.17009200 -0.14887500 -0.87196500
v 0.15417900 -0.15948400 -0.88253500
v 0.09215770 -0.04249400 -0.96410100
v 0.10101800 -0.01060890 -0.96765600
v 0.08772760 -0.02121780 -0.97298700
v 0.08504620 0.00000000 -0.97831900
v 0.07443730 0.05316120 -0.97298700
v 0.15948400 0.13820700 -0.88786700
v 0.15948400 0.15948400 -0.87729700
v 0.20203600 0.11693100 -0.85597000
v 0.18431500 0.14176300 -0.85774700
v 0.12206100 0.26977000 -0.02272090
v 0.17720400 0.24103200 -0.37573900
v 0.17720400 0.15592800 -0.84362200
v 0.19848000 0.21975600 -0.39706600
v 0.10632200 -0.27647300 -0.02272090
v 0.17720400 -0.24103200 -0.38284800
v 0.21975600 -0.19848000 -0.40417400
v 0.15592800 -0.17720400 -0.85063800
v 0.14887500 -0.17009200 -0.87196500
v 0.11162700 -0.20203600 -0.86130100
v 0.06907460 -0.20203600 -0.88253500
v 0.06907460 -0.07443730 -0.96765600
v 0.06645150 -0.06377010 -0.97298700
v 0.06377010 -0.04249400 -0.97831900
v 0.06377010 0.04249400 -0.97831900
v 0.05316120 0.07443730 -0.97298700
v 0.13820700 0.15948400 -0.88786700
v 0.12759900 0.17720400 -0.87898000
v 0.11693100 0.20203600 -0.85597000
v 0.14176300 0.18431500 -0.85774700
v 0.15592800 0.17720400 -0.84362200
v 0.10632200 0.27647300 -0.02272090
v 0.16303900 0.24808600 -0.38995700
v 0.14887500 0.25519700 -0.38284800
v 0.10632200 0.27647300 -0.38284800
v 0.13465200 0.19848000 -0.82229500
v 0.04354320 -0.29279500 -0.02272090
v 0.10632200 -0.27647300 -0.38284800
v 0.19848000 -0.21975600 -0.40417400
v 0.09215770 -0.21975600 -0.82940400
v 0.13465200 -0.19848000 -0.82940400
v 0.14351200 -0.18076000 -0.86130100
v 0.13465200 -0.18431500 -0.86485600
v 0.06907460 -0.22331200 -0.86130100
v 0.10894500 -0.20734000 -0.85063800
v 0.06645150 -0.22861600 -0.85063800
v 0.03544080 -0.21975600 -0.87898000
v 0.04960550 -0.20553300 -0.88608900
v 0.00705318 -0.09921090 -0.97121000
v 0.02658060 -0.09565520 -0.96765600
v 0.04960550 -0.07793480 -0.97121000
v 0.04249400 -0.06377010 -0.97831900
v 0.04249400 0.06377010 -0.97831900
v 0.00000000 0.08504620 -0.97831900
v 0.01060890 0.09565520 -0.97298700
v 0.05316120 0.20203600 -0.88786700
v 0.04249400 0.21975600 -0.87898000
v 0.07443730 0.22331200 -0.85597000
v 0.12048700 0.20553300 -0.83651300
v 0.04360150 0.29267800 -0.02272090
v 0.12048700 0.26936200 -0.38995700
v 0.02121780 0.29774900 -0.38284800
v 0.06377010 0.23392100 -0.82940400
v 0.02121780 -0.29774900 -0.02272090
v 0.02121780 -0.29774900 -0.38284800
v 0.06377010 -0.23392100 -0.82940400
v 0.04960550 -0.22680900 -0.86485600
v 0.04249400 -0.23392100 -0.85063800
v -0.04960550 -0.21975600 -0.87898000
v -0.03188510 -0.09565520 -0.96765600
v 0.00000000 -0.08504620 -0.97831900
v -0.04249400 0.06377010 -0.97831900
v -0.06377010 0.06645150 -0.97298700
v -0.02121780 0.08772760 -0.97298700
v 0.00000000 0.09921090 -0.97121000
v -0.04249400 0.21975600 -0.87898000
v -0.05316120 0.22861600 -0.86130100
v 0.04249400 0.23392100 -0.85063800
v 0.06377010 0.22861600 -0.85335100
v 0.07793480 0.22680900 -0.83651300
v 0.02121780 0.29774900 -0.02272090
v -0.02121780 0.29774900 -0.38284800
v -0.02121780 -0.29774900 -0.02272090
v 0.00000000 -0.29774900 -0.40417400
v -0.04249400 -0.23392100 -0.85063800
v -0.09215770 -0.19848000 -0.87898000
v -0.07443730 -0.20203600 -0.88253500
v -0.04960550 -0.09215770 -0.96410100
v -0.07443730 -0.22331200 -0.86130100
v -0.07443730 -0.07443730 -0.96765600
v -0.04249400 -0.06377010 -0.97831900
v -0.06377010 0.04249400 -0.97831900
v -0.07793480 0.04960550 -0.97121000
v -0.07443730 0.06907460 -0.96765600
v -0.04249400 0.09215770 -0.96410100
v -0.01060890 0.10101800 -0.96765600
v -0.12759900 0.17720400 -0.87898000
v -0.13820700 0.18606400 -0.86130100
v -0.12759900 0.19935400 -0.85063800
v -0.08504620 0.22063100 -0.85063800
v -0.07443730 0.22861600 -0.84006800
v -0.04249400 0.23392100 -0.85063800
v -0.02121780 0.29774900 -0.02272090
v -0.10632200 0.27647300 -0.38284800
v -0.08650350 0.28387600 -0.02272090
v -0.06377010 0.23392100 -0.82940400
v -0.08965120 -0.28102000 -0.02272090
v -0.02121780 -0.29774900 -0.38284800
v -0.06377010 -0.23392100 -0.82940400
v -0.13465200 -0.17720400 -0.87898000
v -0.15948400 -0.15948400 -0.88253500
v -0.09215770 -0.21975600 -0.83651300
v -0.11693100 -0.20203600 -0.86130100
v -0.09215770 -0.04960550 -0.96410100
v -0.09565520 -0.03188510 -0.96765600
v -0.08504620 0.00000000 -0.97831900
v -0.06377010 -0.04249400 -0.97831900
v -0.20203600 -0.07443730 -0.88253500
v -0.09921090 0.00705318 -0.97121000
v -0.09565520 0.02658060 -0.96765600
v -0.20203600 0.06907460 -0.88253500
v -0.15948400 0.15417900 -0.88253500
v -0.14887500 0.17009200 -0.87196500
v -0.15592800 0.17720400 -0.85063800
v -0.13465200 0.19848000 -0.82940400
v -0.11693100 0.20734000 -0.84006800
v -0.15948400 0.24989300 -0.39351100
v -0.11693100 0.27111000 -0.39351100
v -0.10632200 0.27647300 -0.02272090
v -0.10632200 -0.27647300 -0.02272090
v -0.10632200 -0.27647300 -0.38284800
v -0.17720400 -0.13465200 -0.87898000
v -0.19848000 -0.09215770 -0.87898000
v -0.15592800 -0.17720400 -0.85774700
v -0.17720400 -0.15592800 -0.85774700
v -0.20203600 -0.11693100 -0.86130100
v -0.13465200 -0.19848000 -0.83651300
v -0.13465200 -0.26225000 -0.38995700
v -0.17720400 -0.24103200 -0.38995700
v -0.21975600 -0.04960550 -0.87898000
v -0.21975600 0.03544080 -0.87898000
v -0.20553300 0.04960550 -0.88608900
v -0.22331200 0.06907460 -0.86130100
v -0.17009200 0.14887500 -0.87196500
v -0.17720400 0.15592800 -0.85063800
v -0.20203600 0.11162700 -0.86130100
v -0.19848000 0.21975600 -0.40417400
v -0.17720400 0.24103200 -0.38284800
v -0.17720400 0.24103200 -0.02272090
v -0.13581800 -0.26341600 -0.02272090
v -0.22331200 -0.07443730 -0.86130100
v -0.19848000 -0.21975600 -0.41119000
v -0.19848000 -0.13465200 -0.83651300
v -0.21975600 -0.19848000 -0.41119000
v -0.17831100 -0.24214000 -0.02272090
v -0.23392100 -0.04249400 -0.85063800
v -0.23392100 0.04249400 -0.85063800
v -0.22680900 0.04960550 -0.86485600
v -0.22861600 0.06645150 -0.85063800
v -0.18431500 0.13465200 -0.86485600
v -0.18076000 0.14351200 -0.86130100
v -0.19848000 0.13465200 -0.82940400
v -0.21975600 0.19848000 -0.40417400
v -0.20734000 0.10894500 -0.85063800
v -0.24103200 0.17720400 -0.02272090
v -0.21975600 -0.09215770 -0.83651300
v -0.23392100 -0.06377010 -0.82940400
v -0.24103200 -0.17720400 -0.38995700
v -0.24214000 -0.17831100 -0.02272090
v -0.29774900 -0.02121780 -0.38284800
v -0.29774900 0.02121780 -0.38284800
v -0.23392100 0.06377010 -0.82940400
v -0.21975600 0.09215770 -0.82940400
v -0.24103200 0.17720400 -0.38284800
v -0.27647300 0.10632200 -0.02272090
v -0.26225000 -0.13465200 -0.38995700
v -0.27647300 -0.10632200 -0.38284800
v -0.26341600 -0.13581800 -0.02272090
v -0.28102000 -0.08965120 -0.02272090
v -0.29774900 -0.02121780 -0.02272090
v -0.29774900 0.02121780 -0.02272090
v -0.29279500 0.04354320 -0.02272090
v -0.27647300 0.10632200 -0.38284800
v -0.27647300 -0.10632200 -0.02272090
f 134 161 158
f 137 157 160
f 134 137 161
f 134 158 159
f 133 157 137
f 132 157 133
f 132 156 157
f 131 155 156
f 130 154 152
f 135 159 138
f 134 159 135
f 124 144 143
f 130 153 151
f 125 145 146
f 125 150 126
f 125 154 150
f 125 149 154
f 125 148 149
f 125 147 148
f 125 146 147
f 124 145 125
f 123 144 124
f 137 160 185
f 124 143 145
f 130 150 154
f 130 152 153
f 142 168 169
f 138 162 163
f 149 176 152
f 149 175 176
f 149 174 175
f 122 144 123
f 147 149 148
f 147 174 149
f 147 173 174
f 147 172 173
f 146 171 172
f 146 172 147
f 145 171 146
f 145 170 171
f 143 170 145
f 142 170 143
f 142 169 170
f 142 167 168
f 141 167 142
f 141 164 167
f 140 164 141
f 138 188 162
f 138 166 188
f 138 159 166
f 138 165 139
f 138 164 165
f 138 163 164
f 137 185 161
f 122 143 144
f 106 128 107
f 121 142 143
f 105 125 126
f 105 124 125
f 105 123 124
f 103 105 104
f 103 123 105
f 102 123 103
f 102 122 123
f 102 121 122
f 102 120 121
f 99 119 100
f 97 117 118
f 97 119 99
f 97 118 119
f 95 133 117
f 95 116 133
f 95 115 116
f 95 97 96
f 95 117 97
f 94 114 116
f 94 116 115
f 92 115 95
f 92 94 115
f 149 152 154
f 88 93 89
f 88 94 93
f 105 126 127
f 121 143 122
f 105 127 106
f 108 110 129
f 121 141 142
f 121 140 141
f 120 140 121
f 119 138 139
f 118 138 119
f 118 136 138
f 117 137 134
f 117 133 137
f 117 136 118
f 117 138 136
f 117 135 138
f 117 134 135
f 116 132 133
f 114 132 116
f 113 132 114
f 112 132 113
f 112 156 132
f 112 131 156
f 111 127 126
f 111 128 127
f 110 150 130
f 110 126 150
f 110 111 126
f 110 151 129
f 110 130 151
f 106 127 128
f 152 176 175
f 189 205 206
f 152 196 197
f 204 218 219
f 204 215 218
f 202 217 216
f 201 216 214
f 200 217 202
f 200 203 217
f 199 215 204
f 199 214 215
f 195 197 196
f 195 213 197
f 195 222 213
f 195 211 222
f 194 209 208
f 194 212 210
f 194 207 212
f 193 210 211
f 193 194 210
f 193 209 194
f 192 209 193
f 192 208 209
f 192 194 208
f 191 206 207
f 191 207 194
f 189 206 191
f 188 205 189
f 204 219 205
f 188 204 205
f 205 219 220
f 205 207 206
f 223 231 230
f 88 114 94
f 221 231 222
f 220 231 221
f 219 231 220
f 219 230 231
f 219 229 230
f 218 229 219
f 218 228 229
f 218 227 228
f 218 225 227
f 216 225 224
f 216 226 225
f 216 217 226
f 215 225 218
f 214 225 215
f 214 224 225
f 214 216 224
f 213 231 223
f 213 222 231
f 210 222 211
f 210 221 222
f 207 210 212
f 207 221 210
f 207 220 221
f 205 220 207
f 152 175 196
f 188 199 204
f 187 198 203
f 167 188 189
f 167 169 168
f 167 190 169
f 167 189 190
f 166 181 188
f 163 188 167
f 163 167 164
f 162 188 163
f 161 185 182
f 160 187 185
f 160 186 187
f 160 179 186
f 159 184 180
f 159 183 184
f 159 182 183
f 159 161 182
f 159 181 166
f 159 180 181
f 158 161 159
f 157 179 160
f 156 179 157
f 155 179 156
f 155 178 179
f 152 177 153
f 152 197 177
f 169 190 189
f 187 203 200
f 169 189 191
f 169 194 170
f 184 214 199
f 184 201 214
f 183 216 201
f 183 202 216
f 183 201 184
f 182 202 183
f 182 200 202
f 182 187 200
f 182 185 187
f 181 199 188
f 180 199 181
f 180 184 199
f 179 187 186
f 179 198 187
f 178 198 179
f 173 175 174
f 173 196 175
f 173 195 196
f 172 195 173
f 172 211 195
f 172 193 211
f 170 194 192
f 170 172 171
f 170 193 172
f 170 192 193
f 169 191 194
f 86 114 88
f 28 45 30
f 85 113 86
f 19 35 36
f 19 34 35
f 19 33 34
f 18 33 19
f 18 32 33
f 18 31 32
f 18 30 31
f 18 29 30
f 18 28 29
f 16 18 17
f 16 28 18
f 19 36 37
f 15 28 16
f 15 26 27
f 14 26 15
f 14 44 26
f 14 25 44
f 12 39 23
f 12 21 39
f 11 24 22
f 11 23 24
f 11 13 23
f 10 20 21
f 9 20 10
f 15 27 28
f 19 37 38
f 19 38 20
f 20 38 21
f 32 49 50
f 32 48 49
f 31 48 32
f 31 46 48
f 30 47 46
f 30 45 47
f 30 46 31
f 28 30 29
f 26 28 27
f 26 45 28
f 26 47 45
f 26 44 47
f 25 65 44
f 25 87 65
f 25 64 87
f 25 43 64
f 24 61 42
f 24 41 61
f 23 41 24
f 23 39 41
f 22 60 40
f 22 62 60
f 22 42 62
f 22 24 42
f 21 38 39
f 9 19 20
f 9 18 19
f 9 17 18
f 8 16 17
f 1 198 178
f 1 203 198
f 1 217 203
f 1 226 217
f 1 232 226
f 1 227 232
f 1 228 227
f 1 229 228
f 1 230 229
f 1 223 230
f 1 213 223
f 1 197 213
f 1 177 197
f 1 153 177
f 1 151 153
f 1 129 151
f 1 108 129
f 1 80 108
f 1 59 80
f 1 40 59
f 1 22 40
f 1 11 22
f 1 5 11
f 1 2 5
f 225 226 232
f 1 178 155
f 32 50 33
f 1 155 131
f 1 112 85
f 8 15 16
f 7 15 8
f 7 14 15
f 6 21 12
f 6 10 21
f 6 13 11
f 6 23 13
f 6 12 23
f 5 6 11
f 4 10 6
f 4 9 10
f 4 17 9
f 4 8 17
f 3 7 8
f 2 6 5
f 2 4 6
f 1 4 2
f 1 8 4
f 1 3 8
f 1 7 3
f 1 14 7
f 1 25 14
f 1 43 25
f 1 63 43
f 1 85 63
f 1 131 112
f 33 50 51
f 33 51 34
f 34 51 52
f 69 97 98
f 69 96 97
f 69 95 96
f 68 94 92
f 68 93 94
f 68 89 93
f 68 91 90
f 67 91 68
f 67 90 91
f 66 87 89
f 66 90 67
f 66 68 90
f 66 89 68
f 64 89 87
f 64 88 89
f 64 86 88
f 63 85 86
f 60 107 81
f 60 84 107
f 60 79 84
f 60 62 79
f 59 83 80
f 59 82 83
f 59 81 82
f 59 60 81
f 69 98 70
f 56 58 57
f 69 92 95
f 70 97 99
f 85 112 113
f 83 111 110
f 83 128 111
f 83 109 128
f 83 110 108
f 81 128 109
f 81 107 128
f 81 83 82
f 81 109 83
f 80 83 108
f 78 84 79
f 78 107 84
f 77 107 78
f 77 106 107
f 76 106 77
f 76 105 106
f 76 104 105
f 75 104 76
f 74 104 75
f 74 103 104
f 74 102 103
f 74 101 102
f 71 100 72
f 71 99 100
f 70 99 71
f 70 98 97
f 86 113 114
f 56 61 58
f 56 78 79
f 49 66 67
f 46 87 66
f 46 65 87
f 46 47 65
f 46 49 48
f 46 66 49
f 44 65 47
f 43 86 64
f 43 63 86
f 42 79 62
f 42 61 79
f 41 58 61
f 40 60 59
f 39 58 41
f 39 57 58
f 38 57 39
f 37 57 38
f 37 56 57
f 37 55 56
f 36 54 55
f 36 55 37
f 35 54 36
f 35 53 54
f 34 53 35
f 34 52 53
f 49 67 68
f 56 79 61
f 49 68 92
f 49 69 70
f 56 77 78
f 56 76 77
f 56 75 76
f 56 74 75
f 54 56 55
f 54 74 56
f 54 101 74
f 54 73 101
f 53 71 72
f 53 73 54
f 53 101 73
f 53 102 101
f 53 120 102
f 53 140 120
f 53 164 140
f 53 165 164
f 53 139 165
f 53 119 139
f 53 100 119
f 53 72 100
f 52 71 53
f 50 52 51
f 50 71 52
f 50 70 71
f 49 70 50
f 49 92 69
f 225 232 227

