# https://github.com/mikedh/trimesh
v -0.97630900 0.02658710 -0.04789390
v -0.97545600 0.02478090 -0.04967020
v -0.96832800 0.00002500 -0.06385330
v -0.96832800 -0.01059980 -0.05320920
v -0.97545600 0.02127470 -0.04611770
v -0.96566800 0.05851480 -0.04789390
v -0.96566800 0.05453050 -0.05320920
v -0.96566800 0.04385250 -0.06385330
v -0.96481400 0.03545890 -0.07094480
v -0.96481400 0.00358433 -0.07094480
v -0.96125000 -0.00353432 -0.07804990
v -0.96300700 -0.01591230 -0.06918210
v -0.96657100 -0.00884675 -0.06207700
v -0.95768700 -0.03190270 -0.06385330
v -0.96481400 -0.01771850 -0.04967020
v -0.97364900 0.01596230 -0.04523630
v -0.96832800 0.02127470 -0.04257870
v -0.96481400 0.05320240 -0.04611770
v -0.95904200 0.06382720 -0.04523630
v -0.94840000 0.08513000 -0.04523630
v -0.95502600 0.07976450 -0.04789390
v -0.95417300 0.08157070 -0.05320920
v -0.95768700 0.07445210 -0.05320920
v -0.95502600 0.07578020 -0.06385330
v -0.96300700 0.04518060 -0.06918210
v -0.95236600 0.05585860 -0.07981260
v -0.95417300 0.04608370 -0.08158890
v -0.95060900 0.03901820 -0.08868040
v -0.96125000 0.02834020 -0.07804990
v -0.95060900 -0.01415920 -0.08868040
v -0.95949400 -0.01240610 -0.07627360
v -0.95060900 -0.03546200 -0.07804990
v -0.95060900 -0.04608680 -0.06740580
v -0.96300700 -0.01591230 -0.04523630
v -0.93996800 -0.06738970 -0.05676170
v -0.94353200 -0.06027100 -0.04967020
v -0.94172400 -0.05851790 -0.04523630
v -0.95768700 -0.01059980 -0.04257870
v -0.85559000 -0.01490290 -0.02110070
v -0.85769800 -0.00640303 -0.02110070
v -0.85945500 0.00124686 -0.02110070
v -0.85935400 0.00156561 -0.02110070
v -0.95768700 0.05320240 -0.04257870
v -0.94704500 0.07445210 -0.04257870
v -0.92576200 0.10638000 -0.04257870
v -0.92711800 0.11700500 -0.04523630
v -0.93374300 0.11169200 -0.04789390
v -0.95060900 0.08863620 -0.05320920
v -0.93374300 0.10770800 -0.07449730
v -0.95236600 0.07710830 -0.06918210
v -0.94172400 0.08778630 -0.07981260
v -0.94353200 0.07801140 -0.08158890
v -0.93996800 0.07089280 -0.08868040
v -0.92932600 0.07089280 -0.09931090
v -0.93996800 0.02834020 -0.09931090
v -0.91868500 -0.01415920 -0.10995500
v -0.92932600 -0.03546200 -0.09931090
v -0.93996800 0.00714365 -0.09931090
v -0.91868500 -0.07801450 -0.08868040
v -0.93108300 -0.06914280 -0.07981260
v -0.92756900 -0.07626140 -0.07627360
v -0.91868500 -0.09931730 -0.05676170
v -0.92224900 -0.09219870 -0.04967020
v -0.92044200 -0.09044560 -0.04523630
v -0.93640400 -0.05320550 -0.04257870
v -0.83430700 -0.03620570 -0.02110070
v -0.91512100 -0.08508000 -0.04257870
v -0.90448000 -0.09575800 -0.04257870
v -0.72011300 0.21995900 -0.02110070
v -0.89383800 0.14893200 -0.04257870
v -0.89740200 0.15605100 -0.04611770
v -0.90181900 0.15429800 -0.04789390
v -0.92932600 0.12056400 -0.05320920
v -0.92932600 0.12056400 -0.06385330
v -0.93108300 0.10903600 -0.07981260
v -0.92044200 0.08778630 -0.10108700
v -0.92224900 0.07801140 -0.10286300
v -0.93289000 0.03545890 -0.10286300
v -0.91160700 -0.00709365 -0.11350700
v -0.89740200 -0.02478400 -0.12059900
v -0.90804400 -0.04608680 -0.10995500
v -0.90628700 -0.05495860 -0.10817900
v -0.90804400 -0.07801450 -0.09931090
v -0.93289000 0.01420920 -0.10286300
v -0.89915900 -0.09044560 -0.10108700
v -0.90980000 -0.09044560 -0.09044310
v -0.90980000 -0.10107000 -0.07981260
v -0.90804400 -0.10994200 -0.06740580
v -0.88676100 -0.13124500 -0.05676170
v -0.90096600 -0.11350200 -0.04967020
v -0.88851800 -0.12237300 -0.04523630
v -0.71730200 -0.15323800 -0.02110070
v -0.87255600 -0.12768600 -0.04257870
v -0.71991200 0.22006600 -0.02110070
v -0.85483700 0.18797900 -0.04611770
v -0.86326900 0.18086000 -0.04523630
v -0.89915900 0.15695400 -0.04789390
v -0.89915900 0.14627600 -0.07981260
v -0.89915900 0.14096400 -0.09044310
v -0.92044200 0.10903600 -0.09044310
v -0.89915900 0.11971400 -0.10108700
v -0.89915900 0.09841110 -0.11173100
v -0.90096600 0.08863620 -0.11350700
v -0.91160700 0.05670860 -0.11350700
v -0.86904200 0.01420920 -0.13478200
v -0.89032500 -0.01771850 -0.12413800
v -0.88319700 -0.02127780 -0.12769100
v -0.88851800 -0.03721510 -0.12237500
v -0.89915900 -0.05851790 -0.11173100
v -0.85659300 -0.09044560 -0.12237500
v -0.87787600 -0.11169500 -0.10108700
v -0.87787600 -0.12237300 -0.09044310
v -0.88851800 -0.12237300 -0.07981260
v -0.89740200 -0.12056700 -0.06740580
v -0.87611900 -0.13124500 -0.07804990
v -0.85308000 -0.15074200 -0.06562950
v -0.85483700 -0.15249500 -0.05676170
v -0.84775900 -0.15605400 -0.04967020
v -0.87968300 -0.13475100 -0.04967020
v -0.87787600 -0.13299800 -0.04523630
v -0.70510500 -0.16232300 -0.02110070
v -0.84595200 -0.15430100 -0.04523630
v -0.84063100 -0.14893500 -0.04257870
v -0.79098800 0.21990600 -0.04611770
v -0.81227100 0.20928100 -0.04611770
v -0.71298500 0.22351900 -0.02110070
v -0.85925400 0.18622500 -0.04789390
v -0.79274500 0.22080900 -0.04789390
v -0.86547800 0.18441900 -0.05320920
v -0.87611900 0.17379400 -0.06385330
v -0.86904200 0.13124200 -0.11350700
v -0.86723500 0.17289100 -0.07981260
v -0.87787600 0.15695400 -0.09044310
v -0.85659300 0.16226600 -0.10108700
v -0.86723500 0.10903600 -0.12237500
v -0.89383800 0.09708300 -0.11438900
v -0.85840100 0.06738650 -0.13478200
v -0.88319700 0.05320240 -0.12769100
v -0.89032500 0.05670860 -0.12413800
v -0.86191400 0.10770800 -0.12503300
v -0.86904200 0.09931420 -0.12413800
v -0.86904200 0.03545890 -0.13478200
v -0.86191400 0.01064990 -0.13833500
v -0.85127300 -0.03190270 -0.13833500
v -0.87787600 -0.05851790 -0.12237500
v -0.83531100 -0.07976760 -0.13300600
v -0.81402800 -0.12237300 -0.12237500
v -0.85659300 -0.11169500 -0.11173100
v -0.83531100 -0.14362300 -0.10108700
v -0.86723500 -0.13299800 -0.09044310
v -0.82466900 -0.16492600 -0.07981260
v -0.83179700 -0.16136600 -0.07627360
v -0.83355400 -0.16312000 -0.06740580
v -0.84063100 -0.15961300 -0.05320920
v -0.80519400 -0.17735700 -0.04967020
v -0.63889700 -0.20200700 -0.02110070
v -0.80338700 -0.17555100 -0.04523630
v -0.53564600 0.28376200 -0.02484310
v -0.60657100 0.23409000 -0.02110070
v -0.53208200 0.27664300 -0.02129060
v -0.53208200 0.28726800 -0.03193460
v -0.76614200 0.22346600 -0.07449730
v -0.77146300 0.22080900 -0.07981260
v -0.80338700 0.21013100 -0.07981260
v -0.81402800 0.21013100 -0.05853800
v -0.81583500 0.20928100 -0.05320920
v -0.85840100 0.18797900 -0.05320920
v -0.85659300 0.18888200 -0.05853800
v -0.86191400 0.18484400 -0.06385330
v -0.86723500 0.17820400 -0.06918210
v -0.83531100 0.14096400 -0.12237500
v -0.82999000 0.13963600 -0.12503300
v -0.85127300 0.11838600 -0.12503300
v -0.83531100 0.16226600 -0.11173100
v -0.84595200 0.18888200 -0.07981260
v -0.85659300 0.17289100 -0.09044310
v -0.82466900 0.18351600 -0.10108700
v -0.85127300 0.06382720 -0.13833500
v -0.84063100 0.08513000 -0.13833500
v -0.86191400 0.03189960 -0.13833500
v -0.84063100 0.09708300 -0.13567700
v -0.82999000 0.02127470 -0.14897900
v -0.81934900 -0.02127780 -0.14897900
v -0.82999000 -0.06383030 -0.13833500
v -0.85659300 -0.04783990 -0.13300600
v -0.81934900 -0.07445520 -0.13833500
v -0.80338700 -0.10107000 -0.13300600
v -0.82823300 -0.07270210 -0.13655800
v -0.80163000 -0.13124500 -0.12059900
v -0.78742500 -0.09575800 -0.13833500
v -0.76614200 -0.10638300 -0.13833500
v -0.81227100 -0.14187000 -0.10995500
v -0.79098800 -0.15249500 -0.10995500
v -0.79098800 -0.16312000 -0.09931090
v -0.81227100 -0.16312000 -0.08868040
v -0.80338700 -0.16492600 -0.09044310
v -0.78034700 -0.17379800 -0.08868040
v -0.79274500 -0.17555100 -0.07981260
v -0.80338700 -0.17555100 -0.06918210
v -0.81934900 -0.17023800 -0.06385330
v -0.79806600 -0.18086300 -0.05320920
v -0.76614200 -0.19154100 -0.05320920
v -0.77326900 -0.18798200 -0.04967020
v -0.61189200 -0.21810300 -0.02394820
v -0.60657100 -0.21279100 -0.02129060
v -0.48951600 -0.24471800 -0.02129060
v -0.63849600 -0.20206000 -0.02110070
v -0.77146300 -0.18617500 -0.04523630
v -0.51436300 0.28376200 -0.02484310
v -0.58925400 0.23085000 -0.02110070
v -0.51079900 0.27664300 -0.02129060
v -0.51079900 0.28726800 -0.03193460
v -0.53208200 0.28376200 -0.03902620
v -0.53740200 0.28461200 -0.03724990
v -0.76614200 0.21634700 -0.08868040
v -0.79806600 0.20572200 -0.08868040
v -0.80870700 0.19552200 -0.09577190
v -0.80870700 0.12901100 -0.13567700
v -0.82999000 0.16093800 -0.11438900
v -0.79806600 0.16093800 -0.12503300
v -0.81934900 0.11838600 -0.13567700
v -0.81934900 0.17379400 -0.10995500
v -0.81402800 0.18888200 -0.10108700
v -0.81934900 0.06382720 -0.14897900
v -0.80870700 0.08645820 -0.14630700
v -0.81934900 0.07578020 -0.14630700
v -0.77678300 0.02127470 -0.15962300
v -0.75550000 -0.02127780 -0.15962300
v -0.78742500 -0.05320550 -0.14897900
v -0.76614200 -0.07445520 -0.14897900
v -0.76970600 -0.12056700 -0.13124300
v -0.76970600 -0.14187000 -0.12059900
v -0.74485900 -0.08508000 -0.14897900
v -0.72357600 -0.11700800 -0.13833500
v -0.72714000 -0.13124500 -0.13124300
v -0.75906400 -0.16312000 -0.10995500
v -0.75906400 -0.17379800 -0.09931090
v -0.77146300 -0.17555100 -0.09044310
v -0.75018000 -0.18617500 -0.07981260
v -0.73421800 -0.19154100 -0.07449730
v -0.48951600 -0.25534300 -0.03193460
v -0.49664400 -0.25183700 -0.02838210
v -0.49483700 -0.25003100 -0.02394820
v -0.63834500 -0.20206000 -0.02110070
v -0.48951600 -0.25183700 -0.02484310
v -0.47887500 -0.24604700 -0.02394820
v -0.46823400 -0.22346900 -0.02129060
v -0.46361600 -0.20179400 -0.02110070
v -0.49664400 0.28020200 -0.02838210
v -0.50196500 0.27489000 -0.02306680
v -0.46823400 0.23409000 -0.02129060
v -0.48951600 0.25539300 -0.02129060
v -0.46361600 0.09485180 -0.02110070
v -0.50372200 0.28376200 -0.03547360
v -0.51079900 0.28376200 -0.03902620
v -0.72357600 0.20572200 -0.10995500
v -0.71298500 0.21634700 -0.09931090
v -0.76614200 0.20572200 -0.09931090
v -0.78210400 0.19950700 -0.10108700
v -0.79806600 0.12768300 -0.13833500
v -0.77678300 0.10638000 -0.14897900
v -0.78742500 0.10770800 -0.14630700
v -0.78742500 0.17379400 -0.12059900
v -0.78742500 0.15961000 -0.12769100
v -0.79806600 0.18441900 -0.10995500
v -0.79806600 0.08513000 -0.14897900
v -0.75550000 0.06382720 -0.15962300
v -0.74485900 -0.03190270 -0.15962300
v -0.71654900 -0.15249500 -0.12059900
v -0.72357600 -0.04252750 -0.15962300
v -0.46361600 -0.08508000 -0.14897900
v -0.46361600 -0.11700800 -0.13833500
v -0.46361600 -0.13124500 -0.13124300
v -0.46361600 -0.14431400 -0.12470700
v -0.48600300 -0.25183700 -0.03902620
v -0.73778200 -0.18442200 -0.08868040
v -0.48243900 -0.25183700 -0.03193460
v -0.48419600 -0.25268700 -0.02660580
v -0.47536100 -0.24827800 -0.03193460
v -0.46823400 -0.23542200 -0.02394820
v -0.46361600 -0.22405300 -0.02245670
v -0.46361600 -0.21879400 -0.02129060
v -0.48600300 0.26957700 -0.02838210
v -0.46361600 0.23409000 -0.06385330
v -0.47004100 0.24296200 -0.02306680
v -0.46361600 0.21278800 -0.02129060
v -0.46361600 0.22250900 -0.02222620
v -0.46361600 0.23175300 -0.02362280
v -0.46361600 0.23876500 -0.02595500
v -0.46472000 0.24827500 -0.02838210
v -0.50547800 0.28195500 -0.03990750
v -0.46361600 0.22856600 -0.07493120
v -0.46361600 0.22346600 -0.08514140
v -0.46361600 0.21634700 -0.09931090
v -0.46361600 0.20572200 -0.10995500
v -0.74485900 0.16317000 -0.13124300
v -0.74485900 0.18441900 -0.12059900
v -0.76614200 0.19504400 -0.10995500
v -0.77678300 0.13830700 -0.13833500
v -0.75550000 0.11700500 -0.14897900
v -0.74485900 0.14893200 -0.13833500
v -0.73421800 0.07445210 -0.15962300
v -0.46361600 -0.15249500 -0.12059900
v -0.46361600 -0.04252750 -0.15962300
v -0.47757000 -0.24471800 -0.03990750
v -0.48153500 -0.25003100 -0.03724990
v -0.46472000 -0.23765300 -0.03193460
v -0.46361600 -0.23074700 -0.02394820
v -0.46361600 0.24604300 -0.03060580
v -0.46361600 0.24269700 -0.02727020
v -0.46361600 0.16317000 -0.13124300
v -0.71298500 0.12768300 -0.14897900
v -0.46361600 0.07445210 -0.15962300
v -0.46361600 -0.17379800 -0.09931090
v -0.46692800 -0.23409400 -0.03990750
v -0.46361600 -0.18442200 -0.08868040
v -0.46361600 -0.23074700 -0.03990750
v -0.46361600 -0.23542200 -0.03193460
v -0.46361600 -0.23372200 -0.02858550
v -0.46361600 0.12768300 -0.14897900
f 189 231 232
f 189 191 231
f 193 237 194
f 184 186 188
f 189 232 236
f 184 229 230
f 186 230 190
f 184 230 186
f 190 233 191
f 189 193 192
f 190 230 233
f 191 233 234
f 191 234 235
f 191 235 231
f 193 236 237
f 189 236 193
f 173 221 181
f 180 224 182
f 183 228 229
f 174 177 222
f 174 222 219
f 194 237 196
f 175 217 223
f 175 223 177
f 175 177 176
f 177 223 222
f 183 229 184
f 178 179 224
f 179 181 224
f 181 221 225
f 181 225 226
f 181 226 224
f 182 227 183
f 182 224 227
f 183 227 228
f 178 224 180
f 197 237 238
f 206 280 247
f 198 238 239
f 209 211 250
f 209 250 249
f 210 251 252
f 210 252 211
f 210 253 251
f 211 252 250
f 212 249 254
f 209 249 212
f 212 254 255
f 213 295 256
f 213 256 257
f 213 257 214
f 214 257 215
f 172 220 218
f 215 257 256
f 215 256 258
f 213 255 295
f 197 238 198
f 206 248 244
f 206 246 280
f 198 239 202
f 198 202 199
f 199 202 201
f 199 201 200
f 202 240 241
f 202 241 242
f 202 242 203
f 206 247 248
f 202 239 240
f 203 243 208
f 204 243 206
f 204 206 205
f 204 208 243
f 206 244 207
f 206 243 245
f 206 245 246
f 203 242 243
f 172 219 220
f 151 196 237
f 172 218 221
f 146 184 188
f 146 188 186
f 147 189 192
f 147 192 149
f 147 149 148
f 147 187 190
f 147 190 191
f 146 187 147
f 147 191 189
f 149 193 194
f 149 194 195
f 149 195 151
f 149 151 150
f 151 153 152
f 151 195 194
f 151 194 196
f 149 192 193
f 151 237 197
f 146 190 187
f 144 185 145
f 137 178 138
f 215 258 259
f 137 141 179
f 137 179 178
f 138 142 139
f 138 178 180
f 138 180 142
f 146 186 190
f 140 181 141
f 141 181 179
f 143 180 182
f 143 182 183
f 143 183 144
f 144 183 184
f 144 184 146
f 144 146 185
f 140 173 181
f 172 221 173
f 151 197 198
f 151 199 200
f 161 213 214
f 161 214 163
f 161 163 162
f 163 215 216
f 163 216 164
f 163 214 215
f 164 216 217
f 161 255 213
f 164 217 175
f 164 168 165
f 165 168 166
f 166 168 167
f 168 175 169
f 169 175 170
f 171 174 219
f 171 219 172
f 164 175 168
f 151 198 199
f 161 212 255
f 159 210 211
f 151 200 153
f 154 200 155
f 155 200 201
f 155 201 202
f 155 202 203
f 155 203 208
f 155 208 157
f 159 211 160
f 156 157 204
f 156 205 206
f 156 206 207
f 157 208 204
f 158 160 211
f 158 211 209
f 158 209 212
f 158 212 161
f 156 204 205
f 215 259 223
f 248 287 286
f 216 223 217
f 254 284 292
f 254 292 293
f 254 293 294
f 254 294 291
f 255 291 294
f 255 294 295
f 256 295 311
f 254 291 255
f 256 311 296
f 256 297 263
f 256 263 298
f 256 298 258
f 258 298 259
f 260 264 299
f 260 299 300
f 260 300 261
f 256 296 297
f 261 300 302
f 251 253 286
f 251 290 285
f 248 292 284
f 248 284 309
f 248 309 310
f 248 310 289
f 248 289 288
f 248 288 287
f 248 286 253
f 251 285 252
f 249 283 284
f 249 250 283
f 250 252 285
f 250 285 283
f 251 286 287
f 251 287 288
f 251 288 289
f 251 289 290
f 249 284 254
f 248 293 292
f 261 302 267
f 263 296 264
f 290 310 309
f 296 311 320
f 296 320 312
f 296 312 301
f 299 301 300
f 300 312 302
f 300 301 312
f 289 310 290
f 302 312 320
f 303 314 305
f 305 314 316
f 305 316 315
f 307 315 317
f 307 317 318
f 307 318 319
f 134 177 174
f 302 320 313
f 261 267 266
f 284 290 309
f 283 290 284
f 263 265 298
f 263 297 296
f 264 296 301
f 264 301 299
f 269 274 303
f 269 303 275
f 275 305 306
f 283 285 290
f 275 306 279
f 275 303 305
f 277 279 278
f 279 306 305
f 279 305 315
f 279 315 307
f 280 307 308
f 280 308 281
f 275 279 277
f 215 223 216
f 248 294 293
f 248 311 295
f 227 302 313
f 227 313 304
f 227 304 270
f 227 270 268
f 227 268 228
f 228 268 230
f 228 230 229
f 227 267 302
f 230 268 270
f 231 235 232
f 232 269 236
f 232 235 269
f 233 270 304
f 233 304 271
f 233 271 272
f 233 272 234
f 230 270 233
f 234 272 273
f 225 261 266
f 224 267 227
f 218 260 261
f 218 261 262
f 218 262 225
f 218 225 221
f 218 220 264
f 218 264 260
f 219 222 263
f 225 262 261
f 219 263 220
f 222 223 265
f 222 265 263
f 223 259 298
f 223 298 265
f 224 226 225
f 224 225 266
f 224 266 267
f 220 263 264
f 248 295 294
f 234 273 235
f 235 274 269
f 248 282 281
f 248 281 308
f 248 308 319
f 248 319 318
f 248 318 317
f 248 317 316
f 248 316 314
f 247 282 248
f 248 314 303
f 248 274 273
f 248 273 272
f 248 272 271
f 248 271 304
f 248 304 313
f 248 313 320
f 248 320 311
f 248 303 274
f 235 273 274
f 247 281 282
f 246 307 280
f 236 269 275
f 236 275 237
f 237 275 276
f 237 276 239
f 237 239 238
f 239 276 240
f 240 276 241
f 247 280 281
f 241 275 277
f 241 278 245
f 241 245 242
f 241 276 275
f 242 245 243
f 245 278 246
f 246 278 279
f 246 279 307
f 241 277 278
f 134 176 177
f 51 53 52
f 133 175 176
f 35 63 36
f 36 63 64
f 36 64 37
f 37 64 65
f 38 65 39
f 39 66 92
f 39 92 121
f 39 121 156
f 39 156 207
f 39 207 244
f 39 244 248
f 39 248 253
f 39 253 210
f 39 210 159
f 39 159 126
f 35 62 63
f 35 61 62
f 34 65 38
f 34 37 65
f 26 51 52
f 26 52 27
f 27 52 28
f 28 52 53
f 28 53 54
f 28 54 55
f 30 56 57
f 39 126 94
f 30 57 32
f 30 58 56
f 32 57 83
f 32 83 59
f 32 59 60
f 32 60 33
f 33 60 61
f 33 61 35
f 30 32 31
f 39 94 69
f 39 69 42
f 39 42 41
f 54 76 77
f 54 77 78
f 54 78 55
f 55 78 84
f 55 84 58
f 56 79 80
f 56 80 81
f 53 76 54
f 56 81 57
f 56 84 79
f 57 81 82
f 57 82 83
f 59 83 85
f 59 85 86
f 59 86 60
f 60 86 87
f 56 58 84
f 25 51 26
f 51 75 76
f 50 75 51
f 39 41 40
f 39 65 67
f 39 67 68
f 39 68 66
f 42 69 44
f 42 44 43
f 44 69 45
f 51 76 53
f 45 70 46
f 46 70 71
f 46 71 72
f 46 72 47
f 47 72 73
f 48 73 74
f 49 74 75
f 49 75 50
f 45 69 70
f 25 50 51
f 24 49 50
f 24 74 49
f 4 16 5
f 5 16 17
f 5 17 43
f 5 43 18
f 6 18 19
f 6 19 20
f 6 20 21
f 4 15 16
f 6 21 22
f 6 23 24
f 6 24 7
f 7 24 8
f 8 24 50
f 8 50 25
f 8 25 9
f 9 25 26
f 6 22 23
f 9 26 27
f 4 14 15
f 4 13 12
f 307 319 308
f 1 2 3
f 1 3 4
f 1 4 5
f 1 5 18
f 1 18 6
f 1 6 7
f 4 12 14
f 1 7 8
f 1 9 2
f 2 10 3
f 2 9 10
f 3 10 11
f 3 11 12
f 3 12 13
f 3 13 4
f 1 8 9
f 60 87 61
f 9 27 28
f 9 29 11
f 17 40 41
f 17 41 42
f 17 42 43
f 18 43 19
f 19 43 20
f 20 43 44
f 20 44 45
f 17 39 40
f 20 45 46
f 20 47 21
f 21 47 73
f 21 73 48
f 21 48 22
f 22 24 23
f 22 48 24
f 24 48 74
f 20 46 47
f 9 28 29
f 17 38 39
f 16 34 38
f 9 11 10
f 11 30 31
f 11 31 12
f 11 29 28
f 11 28 55
f 11 55 58
f 11 58 30
f 16 38 17
f 12 31 32
f 12 33 14
f 14 33 15
f 15 34 16
f 15 33 35
f 15 35 36
f 15 36 37
f 15 37 34
f 12 32 33
f 61 87 88
f 61 88 62
f 62 88 89
f 105 142 180
f 105 180 143
f 107 144 145
f 107 145 108
f 107 143 144
f 108 145 109
f 110 145 185
f 105 107 106
f 110 185 146
f 110 147 148
f 111 148 149
f 111 149 150
f 112 150 113
f 113 150 115
f 115 150 151
f 115 151 152
f 110 146 147
f 115 152 116
f 105 143 107
f 103 141 137
f 99 131 101
f 99 130 132
f 99 132 175
f 99 175 133
f 99 133 134
f 99 134 131
f 101 131 102
f 104 139 142
f 102 131 135
f 102 140 136
f 102 136 103
f 103 137 138
f 103 138 139
f 103 139 104
f 103 136 140
f 103 140 141
f 102 135 140
f 98 130 99
f 116 152 153
f 117 153 200
f 128 164 165
f 128 165 166
f 128 166 167
f 128 167 129
f 129 167 168
f 129 168 169
f 129 169 130
f 128 163 164
f 130 169 170
f 131 171 172
f 131 172 173
f 131 173 140
f 131 140 135
f 131 134 174
f 131 174 171
f 132 170 175
f 130 170 132
f 116 153 117
f 128 162 163
f 128 158 161
f 117 200 154
f 117 154 118
f 118 122 120
f 118 120 119
f 118 154 155
f 118 155 122
f 121 123 122
f 128 161 162
f 121 122 156
f 122 157 156
f 124 128 125
f 124 126 158
f 124 158 128
f 126 159 160
f 126 160 158
f 127 128 129
f 122 155 157
f 133 176 134
f 97 130 98
f 97 127 129
f 74 99 75
f 75 99 100
f 75 100 76
f 76 100 99
f 76 99 101
f 76 101 102
f 76 102 103
f 74 98 99
f 76 103 77
f 77 104 78
f 78 104 79
f 78 79 84
f 79 105 106
f 79 106 80
f 79 104 142
f 79 142 105
f 77 103 104
f 80 106 107
f 72 97 98
f 72 98 74
f 62 89 90
f 62 90 63
f 63 90 64
f 64 68 67
f 64 67 65
f 64 90 91
f 64 91 93
f 72 74 73
f 64 93 68
f 68 93 92
f 69 94 95
f 69 95 96
f 69 96 70
f 70 96 71
f 71 96 97
f 71 97 72
f 66 68 92
f 97 129 130
f 80 107 108
f 80 109 81
f 89 118 119
f 89 119 90
f 90 119 120
f 90 120 91
f 91 120 93
f 92 93 121
f 93 120 122
f 89 117 118
f 93 122 123
f 94 124 125
f 94 125 95
f 94 126 124
f 95 127 97
f 95 97 96
f 95 125 128
f 95 128 127
f 93 123 121
f 80 108 109
f 89 116 117
f 89 113 115
f 81 109 82
f 82 109 85
f 82 85 83
f 85 109 145
f 85 145 110
f 85 110 148
f 85 148 111
f 89 115 116
f 85 111 150
f 85 112 113
f 85 113 86
f 86 113 87
f 87 113 88
f 88 113 114
f 88 114 89
f 89 114 113
f 85 150 112
f 315 316 317

