# https://github.com/mikedh/trimesh
v 0.18092500 0.27667900 -0.03193790
v 0.18092500 0.27310700 -0.03902770
v 0.14902800 0.27667900 -0.03193790
v 0.17739200 0.27310700 -0.02483450
v 0.78391200 0.23053800 -0.04611760
v 0.77674800 0.23411100 -0.05322100
v 0.74485100 0.23411100 -0.06385570
v 0.76614800 0.22344400 -0.08513880
v 0.76614800 0.21992200 -0.09221510
v 0.76614800 0.21634900 -0.09931850
v 0.14902800 0.27310700 -0.03902770
v 0.14549500 0.27310700 -0.02483450
v 0.14372900 0.27397400 -0.03725530
v -0.02360420 0.23411100 -0.06385570
v -0.02360420 0.23411100 -0.05322100
v 0.18082700 0.26626700 -0.02139780
v 0.78744500 0.22344400 -0.04257270
v 0.82640800 0.21992200 -0.04611760
v 0.83533900 0.21813500 -0.04789000
v 0.81934200 0.22344400 -0.05322100
v 0.82994100 0.22079000 -0.05454690
v 0.81934200 0.22344400 -0.06385570
v 0.80874200 0.22344400 -0.07450400
v 0.80874200 0.21992200 -0.08159390
v 0.80874200 0.21634900 -0.08868370
v 0.77674800 0.20573200 -0.10995300
v -0.02360420 0.21634900 -0.09931850
v 0.14893000 0.26626700 -0.02139780
v -0.02360420 0.23053800 -0.04611760
v -0.02360420 0.21037700 -0.02139780
v -0.02360420 0.21992200 -0.09221510
v -0.02360420 0.22701700 -0.07804890
v 0.35238000 0.23283500 -0.02139780
v 0.82994100 0.12764000 -0.02139780
v 0.82994100 0.21282700 -0.04257270
v 0.85123800 0.21282700 -0.05322100
v 0.83887200 0.21104100 -0.04434510
v 0.86546900 0.20573200 -0.04966250
v 0.82640800 0.21992200 -0.06740060
v 0.81934200 0.22079000 -0.07583000
v 0.82464100 0.21813500 -0.07715590
v 0.81934200 0.20573200 -0.09931850
v 0.81934200 0.19154300 -0.11040000
v 0.80874200 0.18087600 -0.12103500
v 0.79804500 0.18444800 -0.12060200
v 0.77674800 0.19154300 -0.11705700
v -0.02360420 0.20573200 -0.10995300
v -0.02360420 -0.18391400 -0.02139780
v 0.83828300 0.12534300 -0.02139780
v 0.85123800 0.20216000 -0.04257270
v 0.85840200 0.20925400 -0.05676590
v 0.86016900 0.20037300 -0.04434510
v 0.89736500 0.18444800 -0.04966250
v 0.85123800 0.21012200 -0.06518170
v 0.85663600 0.20746800 -0.06652120
v 0.83533900 0.20746800 -0.08780420
v 0.85663600 0.19685100 -0.08780420
v 0.86193500 0.18444800 -0.09931850
v 0.86193500 0.17025900 -0.11040000
v 0.82994100 0.17025900 -0.12103500
v 0.84593800 0.15428300 -0.12502600
v 0.82994100 0.14897500 -0.13168300
v 0.80334400 0.17556700 -0.12502600
v 0.79804500 0.17025900 -0.12769100
v 0.78744500 0.14897500 -0.13834000
v -0.02360420 0.19154300 -0.11705700
v -0.02360420 -0.19151900 -0.05322100
v -0.02350610 -0.19095800 -0.02139780
v 0.92543400 -0.06412100 -0.02139780
v 0.95772300 0.07445520 -0.04257270
v 0.93642600 0.11702300 -0.04257270
v 0.92572800 0.13830700 -0.04257270
v 0.91512900 0.14897500 -0.04257270
v 0.88323200 0.18087600 -0.04257270
v 0.89029900 0.18797000 -0.05676590
v 0.89206500 0.17908900 -0.04434510
v 0.90806200 0.17378100 -0.04966250
v 0.90806200 0.17378100 -0.06031080
v 0.88853200 0.18618400 -0.06652120
v 0.86723500 0.19685100 -0.07715590
v 0.87783500 0.18618400 -0.08780420
v 0.87783500 0.17556700 -0.09842550
v 0.86723500 0.17556700 -0.10374300
v 0.88853200 0.14361600 -0.11439100
v 0.85123800 0.15959100 -0.12103500
v 0.82464100 0.14361600 -0.13567400
v 0.86193500 0.12769100 -0.13168300
v 0.85663600 0.12233200 -0.13567400
v 0.79274500 0.15428300 -0.13567400
v 0.81934200 0.13830700 -0.13834000
v 0.76614800 0.12769100 -0.14897400
v -0.02360420 0.14897500 -0.13834000
v -0.02066000 -0.20157400 -0.02139780
v -0.02360420 -0.19151900 -0.07450400
v 0.92543400 -0.07448230 -0.02139780
v 0.96832200 0.02127050 -0.04257270
v 0.96478900 0.07093340 -0.04611760
v 0.95595600 0.08333630 -0.04434510
v 0.93289300 0.13478600 -0.04611760
v 0.92396200 0.14718900 -0.04434510
v 0.91336200 0.15780500 -0.04434510
v 0.90089800 0.17735400 -0.06740060
v 0.91866200 0.16316400 -0.04966250
v 0.91866200 0.16316400 -0.06031080
v 0.90982900 0.16490000 -0.07715590
v 0.89913100 0.17556700 -0.07715590
v 0.88853200 0.17556700 -0.08780420
v 0.88853200 0.16490000 -0.09842550
v 0.89383200 0.14897500 -0.10640800
v 0.90443100 0.10640700 -0.12103500
v 0.87253500 0.11702300 -0.13168300
v 0.92042800 0.13299900 -0.09842550
v 0.91512900 0.11702300 -0.11040000
v 0.82464100 0.11171500 -0.14630900
v 0.86723500 0.11171500 -0.13567400
v 0.86193500 0.10640700 -0.13834000
v 0.81934200 0.10640700 -0.14897400
v 0.79804500 0.11702300 -0.14897400
v 0.78744500 0.07445520 -0.15962300
v -0.02360420 0.12769100 -0.14897400
v 0.02134500 -0.21280300 -0.03193790
v 0.12243200 -0.23276000 -0.02660700
v 0.12243200 -0.22877900 -0.02341380
v 0.12684800 -0.22653300 -0.02139780
v -0.02360420 -0.18799700 -0.08159390
v 0.12243200 -0.22877900 -0.03725530
v 0.92523700 -0.08509880 -0.02139780
v 0.97538800 0.00713219 -0.04611760
v 0.96832200 0.01065400 -0.04257270
v 0.97538800 0.01769770 -0.04611760
v 0.97902000 0.02127050 -0.05322100
v 0.96832200 0.07445520 -0.05322100
v 0.96125600 0.08864460 -0.04966250
v 0.93112600 0.14361600 -0.04789000
v 0.92926100 0.15249700 -0.04966250
v 0.93289300 0.14540200 -0.05676590
v 0.92219500 0.15607000 -0.06740060
v 0.92042800 0.15428300 -0.07715590
v 0.93112600 0.13299900 -0.08780420
v 0.90982900 0.14361600 -0.09842550
v 0.89913100 0.10104800 -0.12502600
v 0.91512900 0.08512270 -0.12103500
v 0.92926100 0.11702300 -0.09931850
v 0.92042800 0.12233200 -0.10374300
v 0.93995900 0.09573930 -0.09931850
v 0.93642600 0.07445520 -0.11040000
v 0.90982900 0.07976350 -0.12502600
v 0.88853200 0.06914690 -0.13567400
v 0.88323200 0.06383870 -0.13834000
v 0.84063900 0.08512270 -0.14897400
v 0.79804500 0.06383870 -0.15962300
v -0.02360420 0.07445520 -0.15962300
v 0.55386600 -0.24414200 -0.02139780
v 0.58527200 -0.24475500 -0.03193790
v -0.02360420 -0.18442400 -0.08868370
v 0.58880500 -0.24118200 -0.03902770
v 0.91463800 -0.10638300 -0.02139780
v 0.96567200 -0.04783890 -0.04789000
v 0.96478900 -0.04610350 -0.04611760
v 0.97902000 0.01065400 -0.05322100
v 0.96832200 0.05317110 -0.07450400
v 0.96832200 0.06383870 -0.06385570
v 0.96125600 0.05317110 -0.08868370
v 0.96567200 0.06383870 -0.07583000
v 0.96567200 0.07445520 -0.06518170
v 0.95507300 0.09573930 -0.07583000
v 0.95772300 0.09573930 -0.06385570
v 0.95772300 0.09573930 -0.05322100
v 0.93995900 0.13121300 -0.04966250
v 0.93112600 0.14361600 -0.06652120
v 0.94349200 0.12411800 -0.06740060
v 0.94172500 0.12233200 -0.07715590
v 0.94172500 0.11171500 -0.08780420
v 0.93112600 0.06914690 -0.11439100
v 0.95055800 0.08512270 -0.08868370
v 0.95055800 0.06383870 -0.09931850
v 0.94172500 0.07976350 -0.10374300
v 0.93995900 0.06383870 -0.10995300
v 0.92042800 0.03719530 -0.12502600
v 0.89913100 0.03719530 -0.13567400
v 0.89383200 0.03188710 -0.13834000
v 0.86193500 0.04255460 -0.14897400
v 0.80874200 0.04255460 -0.15962300
v -0.02360420 -0.04253060 -0.15962300
v 0.60647100 -0.24475500 -0.03193790
v 0.57673300 -0.24256000 -0.02139780
v -0.02360420 -0.17380800 -0.09931850
v 0.61010200 -0.24118200 -0.03902770
v -0.02360420 -0.15252400 -0.12060200
v 0.90982900 -0.13562900 -0.04789000
v 0.91247900 -0.13297500 -0.04789000
v 0.94172500 -0.09311220 -0.04789000
v 0.94349200 -0.08867170 -0.04611760
v 0.87253500 -0.14849200 -0.02139780
v 0.95772300 -0.06381470 -0.05322100
v 0.95772300 -0.06381470 -0.06385570
v 0.96832200 -0.03191410 -0.06385570
v 0.93995900 -0.09928820 -0.05322100
v 0.96567200 -0.03722240 -0.06917310
v 0.96567200 -0.01593830 -0.07982140
v 0.96125600 -0.01063010 -0.08868370
v 0.95409100 0.10283400 -0.06740060
v 0.95232500 0.10104800 -0.07715590
v 0.92926100 0.03188710 -0.12060200
v 0.93995900 -0.02124660 -0.10995300
v 0.90806200 0.03188710 -0.13123600
v 0.89383200 0.01065400 -0.13834000
v 0.86193500 0.00003750 -0.14897400
v 0.81934200 0.02127050 -0.15962300
v -0.02360420 -0.08509880 -0.14897400
v 0.76614800 -0.04253060 -0.15962300
v 0.80874200 -0.19151900 -0.05322100
v 0.81404200 -0.18886500 -0.04789000
v 0.61186800 -0.24205000 -0.02660700
v 0.80157800 -0.18799700 -0.07094560
v 0.79804500 -0.19151900 -0.06385570
v 0.81001800 -0.18886500 -0.06385570
v 0.60647100 -0.23944700 -0.02139780
v 0.76261500 -0.15252400 -0.12060200
v 0.79451200 -0.16314000 -0.10995300
v 0.79451200 -0.17380800 -0.09931850
v 0.77321500 -0.18442400 -0.08868370
v 0.78028100 -0.18799700 -0.08159390
v -0.02360420 -0.11705000 -0.13834000
v 0.90806200 -0.13124000 -0.07450400
v 0.86723500 -0.16758100 -0.04789000
v 0.87606800 -0.16314000 -0.05322100
v 0.88676600 -0.15252400 -0.06385570
v 0.89736500 -0.14185600 -0.07450400
v 0.91866200 -0.12057200 -0.07450400
v 0.78734700 -0.18044300 -0.02139780
v 0.84593800 -0.17819700 -0.04789000
v 0.95507300 -0.06912300 -0.06917310
v 0.94035100 -0.09576630 -0.06385570
v 0.94437500 -0.09040700 -0.05853830
v 0.92975200 -0.10638300 -0.07450400
v 0.95507300 -0.05850650 -0.07982140
v 0.95507300 -0.03722240 -0.09045620
v 0.96164800 -0.02124660 -0.08513880
v 0.95055800 -0.03191410 -0.09931850
v 0.92926100 0.01065400 -0.12060200
v 0.92926100 -0.05319820 -0.10995300
v 0.91866200 -0.03191410 -0.12060200
v 0.90806200 0.01065400 -0.13123600
v 0.88323200 -0.03191410 -0.13834000
v 0.85123800 -0.03191410 -0.14897400
v 0.80874200 -0.01063010 -0.15962300
v 0.78744500 -0.08509880 -0.14897400
v 0.78744500 -0.03191410 -0.15962300
v 0.84063900 -0.18090300 -0.05322100
v 0.61716800 -0.23812000 -0.02139780
v 0.61677600 -0.23817100 -0.02139780
v 0.82287500 -0.17733000 -0.08159390
v 0.81139200 -0.18621100 -0.06917310
v 0.83131500 -0.17819700 -0.07450400
v 0.84191400 -0.17819700 -0.06385570
v 0.77674800 -0.11705000 -0.13834000
v 0.76968200 -0.14542900 -0.12414600
v 0.80157800 -0.15604600 -0.11349800
v 0.81227500 -0.16671300 -0.10286300
v 0.80157800 -0.17733000 -0.09221510
v 0.90717900 -0.12235900 -0.09045620
v 0.86900200 -0.16671300 -0.05322100
v 0.86321100 -0.16758100 -0.06385570
v 0.86546900 -0.16314000 -0.07450400
v 0.89118200 -0.14364300 -0.07982140
v 0.89383200 -0.13833400 -0.08513880
v 0.89648200 -0.13297500 -0.09045620
v 0.91777900 -0.11169100 -0.09045620
v 0.92307800 -0.11169100 -0.07982140
v 0.95104900 -0.07448230 -0.07450400
v 0.94437500 -0.07979050 -0.07982140
v 0.93995900 -0.07448230 -0.08868370
v 0.95055800 -0.05319820 -0.08868370
v 0.93995900 -0.05319820 -0.09931850
v 0.91866200 -0.07448230 -0.10995300
v 0.91640500 -0.06381470 -0.11439100
v 0.90580500 -0.04253060 -0.12502600
v 0.91159600 -0.03191410 -0.12414600
v 0.88450800 -0.04253060 -0.13567400
v 0.87390900 -0.06381470 -0.13567400
v 0.87253500 -0.05319820 -0.13834000
v 0.85261200 -0.04253060 -0.14630900
v 0.82071600 -0.07448230 -0.14630900
v 0.80874200 -0.07448230 -0.14897400
v 0.80874200 -0.10638300 -0.13834000
v 0.81139200 -0.17554300 -0.09045620
v 0.83268900 -0.17554300 -0.07982140
v 0.85477100 -0.16671300 -0.08159390
v 0.78028100 -0.12414500 -0.13478100
v 0.81227500 -0.13476200 -0.12414600
v 0.81139200 -0.15425900 -0.11172600
v 0.82199100 -0.16492700 -0.10109100
v 0.89648200 -0.12235900 -0.10109100
v 0.85928600 -0.16492700 -0.07982140
v 0.88676600 -0.14542900 -0.08159390
v 0.86193500 -0.15961900 -0.08513880
v 0.86458500 -0.15425900 -0.09045620
v 0.90717900 -0.09040700 -0.11172600
v 0.90580500 -0.08509880 -0.11439100
v 0.89520600 -0.06381470 -0.12502600
v 0.88450800 -0.08509880 -0.12502600
v 0.87390900 -0.09576630 -0.12502600
v 0.85261200 -0.08509880 -0.13567400
v 0.84191400 -0.09576630 -0.13567400
v 0.82994100 -0.09576630 -0.13834000
v 0.83357200 -0.10286100 -0.13478100
v 0.81227500 -0.11347800 -0.13478100
v 0.84328800 -0.16492700 -0.09045620
v 0.83357200 -0.12414500 -0.12414600
v 0.82199100 -0.13297500 -0.12237400
v 0.83268900 -0.14364300 -0.11172600
v 0.86458500 -0.14364300 -0.10109100
v 0.87518500 -0.12235900 -0.11172600
v 0.86458500 -0.11169100 -0.12237400
v 0.88588200 -0.09040700 -0.12237400
v 0.86321100 -0.10638300 -0.12502600
v 0.84328800 -0.10107500 -0.13300900
v 0.85477100 -0.11347800 -0.12414600
v 0.84328800 -0.12235900 -0.12237400
f 190 225 191
f 189 257 219
f 194 232 226
f 188 223 215
f 190 194 226
f 188 222 223
f 189 224 257
f 190 226 227
f 191 230 198
f 190 228 229
f 190 229 225
f 191 198 192
f 191 225 230
f 194 231 232
f 188 221 222
f 195 233 196
f 190 227 228
f 188 220 221
f 215 217 216
f 186 214 218
f 181 206 244
f 195 198 233
f 181 244 207
f 181 207 208
f 181 208 182
f 182 208 209
f 182 209 183
f 188 219 220
f 184 211 248
f 185 212 213
f 185 213 214
f 185 214 186
f 185 188 215
f 185 215 216
f 185 216 217
f 185 217 212
f 184 248 210
f 196 233 199
f 215 288 254
f 198 234 235
f 210 248 257
f 210 257 224
f 211 249 285
f 211 285 248
f 212 217 250
f 212 250 213
f 213 250 232
f 208 247 209
f 213 232 251
f 214 251 252
f 214 252 218
f 215 223 253
f 215 253 288
f 215 254 217
f 217 254 288
f 180 206 181
f 213 251 214
f 196 199 197
f 208 246 247
f 207 244 245
f 198 235 233
f 198 230 236
f 198 236 234
f 199 233 237
f 199 237 200
f 200 237 238
f 200 238 239
f 208 245 246
f 200 239 201
f 201 240 205
f 204 241 244
f 204 244 206
f 205 240 242
f 205 242 243
f 205 243 241
f 207 245 208
f 201 239 240
f 179 206 180
f 133 169 134
f 178 241 204
f 145 173 175
f 145 175 163
f 145 163 176
f 145 176 177
f 145 177 146
f 146 177 178
f 146 178 174
f 142 174 147
f 147 174 179
f 147 180 148
f 148 180 181
f 148 181 149
f 149 181 182
f 150 183 151
f 150 182 183
f 153 154 185
f 147 179 180
f 153 185 186
f 142 146 174
f 139 173 145
f 132 168 133
f 217 288 255
f 133 168 136
f 133 136 169
f 134 169 135
f 135 169 136
f 136 170 138
f 139 145 143
f 136 138 137
f 136 167 171
f 136 171 172
f 136 172 170
f 138 170 139
f 139 170 172
f 139 172 203
f 139 203 173
f 136 168 167
f 179 204 206
f 154 156 188
f 155 187 156
f 163 201 205
f 163 205 178
f 163 178 176
f 163 175 166
f 164 166 165
f 166 202 167
f 166 175 173
f 163 166 164
f 166 173 203
f 167 202 171
f 171 202 203
f 171 203 172
f 174 204 179
f 174 178 204
f 176 178 177
f 178 205 241
f 166 203 202
f 154 188 185
f 161 163 164
f 160 200 201
f 156 187 189
f 156 189 219
f 156 219 188
f 157 190 191
f 157 191 192
f 157 192 193
f 157 193 158
f 161 164 162
f 157 194 190
f 158 196 197
f 158 197 160
f 158 193 192
f 158 192 198
f 158 198 195
f 160 197 199
f 160 199 200
f 158 195 196
f 217 255 256
f 307 319 310
f 219 257 258
f 278 301 281
f 278 281 280
f 281 301 300
f 281 300 302
f 281 302 303
f 281 303 304
f 281 304 284
f 277 301 278
f 281 284 283
f 284 305 306
f 284 306 285
f 285 306 286
f 286 306 307
f 286 307 308
f 287 293 309
f 287 309 288
f 284 304 305
f 288 309 289
f 277 300 301
f 273 276 275
f 262 268 294
f 262 294 269
f 264 295 265
f 264 289 295
f 266 296 267
f 266 295 296
f 267 296 297
f 276 299 300
f 267 297 298
f 268 298 313
f 268 313 294
f 269 294 299
f 269 299 276
f 269 276 273
f 269 273 272
f 269 272 271
f 267 298 268
f 260 287 261
f 289 309 298
f 289 297 295
f 303 316 315
f 303 315 317
f 303 317 305
f 303 305 304
f 305 318 307
f 305 307 306
f 305 317 315
f 302 316 303
f 305 315 318
f 307 315 319
f 310 319 315
f 310 315 320
f 312 320 313
f 313 315 314
f 313 320 315
f 132 167 168
f 307 318 315
f 289 298 297
f 300 316 302
f 298 309 313
f 290 308 291
f 291 308 307
f 291 307 310
f 291 310 320
f 291 320 311
f 291 311 292
f 292 311 320
f 299 316 300
f 292 320 312
f 293 312 313
f 293 313 309
f 294 313 314
f 294 314 315
f 294 315 316
f 294 316 299
f 295 297 296
f 292 312 293
f 217 256 250
f 260 293 287
f 259 292 260
f 229 295 266
f 229 266 267
f 229 267 268
f 230 269 270
f 230 270 236
f 231 251 232
f 233 235 271
f 229 265 295
f 233 271 237
f 234 236 271
f 236 270 269
f 236 269 271
f 237 271 272
f 237 272 273
f 237 273 274
f 237 274 240
f 234 271 235
f 237 240 238
f 228 265 229
f 227 264 265
f 219 258 259
f 219 259 220
f 220 259 260
f 220 260 221
f 221 260 261
f 221 261 223
f 221 223 222
f 227 265 228
f 223 261 253
f 225 269 230
f 225 229 268
f 225 268 262
f 226 263 227
f 226 232 250
f 226 250 263
f 227 263 264
f 225 262 269
f 260 292 293
f 238 240 239
f 240 273 275
f 247 285 249
f 248 285 286
f 248 286 257
f 250 256 264
f 250 264 263
f 253 287 288
f 253 261 287
f 246 281 283
f 255 288 289
f 256 289 264
f 257 286 308
f 257 308 290
f 257 290 258
f 258 290 291
f 258 291 259
f 259 291 292
f 255 289 256
f 240 274 273
f 246 282 281
f 246 284 285
f 240 275 276
f 240 276 242
f 241 243 279
f 241 279 244
f 242 276 300
f 242 300 277
f 242 277 243
f 246 285 247
f 243 277 278
f 244 279 245
f 245 279 278
f 245 278 280
f 245 280 281
f 245 281 282
f 245 282 246
f 246 283 284
f 243 278 279
f 132 166 167
f 12 15 29
f 132 164 165
f 25 41 42
f 26 42 43
f 26 43 44
f 26 44 45
f 26 45 46
f 26 46 66
f 26 66 47
f 34 49 35
f 35 49 50
f 35 50 52
f 35 52 37
f 36 38 51
f 36 51 39
f 37 52 38
f 38 52 76
f 25 40 41
f 24 40 25
f 23 40 24
f 22 40 23
f 16 95 69
f 16 69 49
f 16 49 34
f 16 34 33
f 16 33 17
f 17 34 35
f 17 33 34
f 38 76 53
f 18 35 37
f 19 36 21
f 19 21 20
f 19 37 38
f 19 38 36
f 21 36 22
f 22 36 39
f 22 39 40
f 18 37 19
f 38 53 75
f 38 75 51
f 39 51 40
f 46 92 66
f 48 67 68
f 49 69 70
f 49 70 71
f 49 71 72
f 49 72 73
f 49 73 74
f 46 65 92
f 49 74 50
f 51 75 79
f 51 79 55
f 51 55 54
f 52 74 76
f 53 76 77
f 53 77 78
f 53 78 75
f 50 74 52
f 16 127 95
f 45 65 46
f 45 63 64
f 40 51 54
f 40 54 55
f 40 55 41
f 41 56 42
f 41 55 57
f 41 57 56
f 42 56 57
f 45 64 65
f 42 57 58
f 42 59 43
f 43 59 44
f 44 59 60
f 44 60 61
f 44 61 62
f 44 62 63
f 44 63 45
f 132 165 166
f 16 157 127
f 16 194 157
f 16 231 194
f 5 17 35
f 5 35 18
f 5 18 6
f 5 16 17
f 6 18 19
f 6 19 20
f 6 20 21
f 4 16 5
f 6 21 22
f 6 23 7
f 7 23 8
f 8 23 24
f 8 24 9
f 9 24 10
f 10 24 25
f 10 25 42
f 6 22 23
f 10 42 26
f 4 28 16
f 3 15 12
f 1 2 11
f 1 11 3
f 1 3 12
f 1 12 4
f 1 4 5
f 1 5 6
f 1 6 7
f 4 12 28
f 1 7 8
f 1 9 10
f 1 10 2
f 2 10 27
f 2 27 11
f 3 11 13
f 3 13 14
f 3 14 15
f 1 8 9
f 55 79 106
f 10 26 47
f 11 27 13
f 14 94 67
f 14 67 48
f 14 48 30
f 14 30 29
f 14 29 15
f 16 28 30
f 16 30 48
f 14 125 94
f 16 48 68
f 16 93 124
f 16 124 153
f 16 153 186
f 16 186 218
f 16 218 252
f 16 252 251
f 16 251 231
f 16 68 93
f 10 47 27
f 14 155 125
f 14 189 187
f 12 29 30
f 12 30 28
f 13 27 31
f 13 31 32
f 13 32 14
f 14 32 31
f 14 31 27
f 14 187 155
f 14 27 47
f 14 66 92
f 14 92 120
f 14 120 152
f 14 152 184
f 14 184 210
f 14 210 224
f 14 224 189
f 14 47 66
f 55 106 80
f 42 58 59
f 57 80 81
f 105 139 107
f 105 107 106
f 107 139 140
f 107 140 108
f 108 140 109
f 109 140 112
f 110 141 115
f 105 138 139
f 55 80 57
f 110 142 147
f 110 147 141
f 112 139 143
f 112 143 144
f 112 144 113
f 112 140 139
f 113 144 143
f 110 113 142
f 113 143 145
f 104 137 138
f 104 135 136
f 94 122 121
f 95 127 128
f 95 128 129
f 96 129 128
f 96 128 130
f 96 130 97
f 97 130 131
f 104 136 137
f 97 131 132
f 97 133 98
f 98 133 99
f 99 134 100
f 99 133 134
f 100 134 135
f 100 135 103
f 103 135 104
f 97 132 133
f 94 126 122
f 113 145 146
f 115 141 147
f 125 155 126
f 126 155 156
f 126 156 154
f 127 157 158
f 127 158 159
f 127 159 128
f 128 160 131
f 122 154 153
f 128 131 130
f 128 158 160
f 131 161 162
f 131 162 132
f 131 160 201
f 131 201 163
f 131 163 161
f 132 162 164
f 128 159 158
f 113 146 142
f 122 126 154
f 122 153 124
f 115 147 148
f 115 148 149
f 115 149 116
f 116 149 182
f 116 182 150
f 116 150 117
f 117 150 119
f 122 124 123
f 117 119 118
f 119 151 183
f 119 183 209
f 119 209 247
f 119 247 249
f 119 249 211
f 119 211 184
f 119 184 152
f 119 150 151
f 94 125 126
f 110 115 111
f 93 122 123
f 65 118 91
f 65 91 120
f 65 120 92
f 67 93 68
f 67 94 93
f 69 95 129
f 69 129 96
f 65 90 118
f 69 96 70
f 70 97 98
f 70 98 99
f 70 99 71
f 71 99 100
f 71 100 72
f 72 100 73
f 73 100 101
f 70 96 97
f 73 101 74
f 65 86 90
f 63 86 89
f 57 81 58
f 58 81 82
f 58 82 83
f 58 83 59
f 59 83 82
f 59 82 84
f 59 84 85
f 65 89 86
f 59 85 60
f 93 123 124
f 61 85 87
f 61 87 88
f 61 88 86
f 62 86 63
f 63 89 65
f 63 65 64
f 60 85 61
f 74 101 76
f 61 86 62
f 75 102 106
f 84 112 113
f 84 113 110
f 86 114 117
f 86 117 90
f 86 88 114
f 87 111 115
f 87 115 88
f 84 109 112
f 88 115 116
f 88 117 114
f 90 117 118
f 91 119 152
f 91 152 120
f 93 94 121
f 93 121 122
f 75 78 102
f 88 116 117
f 84 87 85
f 91 118 119
f 84 110 111
f 84 111 87
f 75 106 79
f 76 101 77
f 77 100 103
f 77 103 104
f 77 104 78
f 78 104 138
f 78 138 105
f 77 101 100
f 78 106 102
f 80 106 81
f 81 106 107
f 81 107 82
f 82 107 108
f 82 108 109
f 78 105 106
f 82 109 84

