# https://github.com/mikedh/trimesh
v 0.18087100 0.26626700 -0.02139780
v 0.35245900 0.23282100 -0.02139780
v 0.14896200 0.26626700 -0.02139780
v 0.76973000 0.20570600 0.07802530
v 0.78030100 0.21632700 0.05676210
v 0.77677800 0.22342500 0.04256890
v 0.75553700 0.23409800 0.01065640
v 0.77677800 0.23409800 0.00000711
v 0.78744700 0.23052300 -0.00708062
v 0.79273200 0.22878700 -0.00796659
v 0.78744700 0.22342500 -0.01062450
v 0.83002500 0.12763000 -0.02139780
v -0.02350640 0.21040400 -0.02139780
v -0.02350640 0.22899100 -0.00872852
v -0.02350640 0.23052300 -0.00708062
v -0.02350640 0.23333200 -0.00153448
v -0.02350640 0.23409800 0.00000711
v -0.02350640 0.23409800 0.01065640
v -0.02350640 0.22342500 0.04256890
v -0.02350640 0.22112700 0.04721140
v -0.02350640 0.21990200 0.04967440
v -0.02350640 0.21050600 0.06849230
v -0.02350640 0.20866800 0.07216020
v -0.02350640 0.20570600 0.07802530
v 0.79097000 0.19508500 0.08867460
v 0.80164000 0.20570600 0.06741140
v 0.79273200 0.21811500 0.04790240
v 0.81407100 0.21811500 0.03725310
v 0.79801800 0.22342500 0.03193730
v 0.81935600 0.22342500 0.01065640
v 0.78568500 0.23231000 -0.00176482
v 0.83002500 0.21990200 -0.00708062
v 0.83531100 0.21811500 -0.00796659
v 0.83002500 0.21280400 -0.01062450
v 0.83022100 0.12757900 -0.02139780
v -0.02350640 -0.19095400 -0.02139780
v -0.02350640 0.19508500 0.08867460
v 0.79097000 0.17379200 0.10995500
v 0.82288000 0.19508500 0.07802530
v 0.81407100 0.20749300 0.05853400
v 0.83531100 0.20749300 0.04790240
v 0.84598000 0.20749300 0.03725310
v 0.82464200 0.21811500 0.02660380
v 0.81759400 0.22168900 0.01951610
v 0.80692500 0.22168900 0.03016540
v 0.83531100 0.21811500 0.00532290
v 0.82826400 0.22168900 -0.00176482
v 0.85655100 0.20749300 -0.00796659
v 0.85126600 0.20218300 -0.01062450
v 0.83824800 0.12533200 -0.02139780
v -0.02350640 -0.20218800 -0.02127380
v -0.02066780 -0.20157600 -0.02139780
v -0.02350640 0.17379200 0.10995500
v 0.78030100 0.14187700 0.13123600
v 0.80164000 0.15249800 0.12058700
v 0.82111800 0.12946900 0.12946400
v 0.82111800 0.16138300 0.10818400
v 0.82288000 0.17379200 0.09930620
v 0.83531100 0.19682100 0.06916560
v 0.84421800 0.17379200 0.08867460
v 0.86545900 0.17379200 0.07802530
v 0.87789000 0.17557900 0.06916560
v 0.87789000 0.18620000 0.04790240
v 0.86722100 0.19682100 0.03725310
v 0.87612800 0.19508500 0.02483190
v 0.85479000 0.20570600 0.02483190
v 0.85655100 0.20749300 0.00532290
v 0.86369700 0.20391900 0.00177904
v 0.89736800 0.18441300 0.00355097
v 0.89032100 0.18798700 -0.00353676
v 0.88855900 0.18620000 -0.00796659
v 0.88317500 0.18088900 -0.01062450
v 0.90451400 0.15959600 -0.01062450
v 0.92575400 0.13830300 -0.01062450
v 0.92575400 -0.04256410 -0.02127380
v 0.93642300 -0.06380640 -0.02127380
v 0.92546000 -0.06411280 -0.02139780
v -0.02350640 -0.20448600 -0.02012200
v 0.20221000 -0.24472400 -0.02127380
v 0.12684000 -0.22654600 -0.02139780
v -0.02350640 0.14187700 0.13123600
v 0.77677800 0.12768100 0.13832400
v 0.81221100 0.13120500 0.13123600
v -0.02350640 0.13600500 0.13417800
v 0.82464200 0.12237100 0.13300800
v 0.85655100 0.12237100 0.12237700
v 0.84421800 0.16311900 0.09930620
v 0.86545900 0.16311900 0.08867460
v 0.87789000 0.15428500 0.09044650
v 0.88855900 0.15428500 0.07979720
v 0.88855900 0.16490700 0.06916560
v 0.90979900 0.16490700 0.03725310
v 0.88669900 0.18441300 0.03548120
v 0.87436600 0.19329800 0.03370930
v 0.90803700 0.17379200 0.01420030
v 0.90803700 0.17379200 0.00355097
v 0.92223000 0.15607300 -0.00353676
v 0.92046800 0.15428500 -0.00796659
v 0.93104000 0.14361300 -0.00796659
v 0.94170900 0.12237100 -0.00796659
v 0.94709200 0.09576670 -0.01062450
v 0.95766400 0.07447330 -0.01062450
v 0.96833300 0.02126520 -0.01062450
v 0.93642300 -0.08509990 -0.02127380
v 0.92546000 -0.07447870 -0.02139780
v -0.02350640 -0.20923500 -0.01772990
v 0.20583100 -0.25182200 -0.01772990
v 0.55390000 -0.24416200 -0.02139780
v 0.74486800 -0.24472400 -0.02127380
v 0.78744700 0.09576670 0.14897300
v 0.80868700 0.11700900 0.13832400
v -0.02350640 0.12768100 0.13832400
v 0.80868700 0.08509450 0.14897300
v 0.82464200 0.09040510 0.14365800
v 0.83531100 0.07978390 0.14365800
v 0.84598000 0.10107700 0.13300800
v 0.85655100 0.09040510 0.13300800
v 0.87789000 0.09040510 0.12237700
v 0.87789000 0.12237100 0.11172700
v 0.85655100 0.15428500 0.10107800
v 0.88855900 0.14361300 0.09044650
v 0.90979900 0.13299200 0.07979720
v 0.90979900 0.14361300 0.06916560
v 0.93104000 0.13299200 0.04790240
v 0.92927800 0.14187700 0.03548120
v 0.91870700 0.16311900 0.01420030
v 0.91870700 0.16311900 0.00355097
v 0.93290000 0.14540000 -0.00353676
v 0.96304700 0.07978390 -0.00796659
v 0.97361800 0.02657580 -0.00796659
v 0.96833300 0.01059300 -0.01062450
v 0.94347100 -0.08509990 -0.01772990
v 0.93290000 -0.12768700 -0.01772990
v 0.92575400 -0.12768700 -0.02127380
v 0.92526500 -0.08509990 -0.02139780
v -0.02350640 -0.21280900 -0.01062450
v 0.20221000 -0.25539600 -0.01062450
v 0.74839200 -0.25182200 -0.01772990
v 0.57670700 -0.24257900 -0.02139780
v 0.60656100 -0.23946500 -0.02139780
v 0.61683800 -0.23818800 -0.02139780
v 0.81935600 -0.23410300 -0.02127380
v 0.76610800 0.06380100 0.15962300
v -0.02350640 0.09576670 0.14897300
v 0.81935600 0.07447330 0.14897300
v 0.81759400 0.08335830 0.14720200
v 0.82826400 0.07268610 0.14720200
v 0.83002500 0.06380100 0.14897300
v 0.86722100 0.06916270 0.13300800
v 0.88855900 0.06916270 0.12237700
v 0.88855900 0.10107700 0.11172700
v 0.90803700 0.09929010 0.09930620
v 0.89913000 0.11169900 0.10107800
v 0.91870700 0.09929010 0.08867460
v 0.92927800 0.09929010 0.07802530
v 0.93104000 0.11169900 0.06916560
v 0.93104000 0.12237100 0.05853400
v 0.94170900 0.12237100 0.03725310
v 0.93818500 0.12946900 0.03370930
v 0.93994700 0.13120500 0.02483190
v 0.92927800 0.15249800 0.00355097
v 0.94709200 0.11700900 0.02128800
v 0.96480900 0.08157110 -0.00353676
v 0.96480900 0.07447330 -0.00708062
v 0.97538000 0.02126520 -0.00708062
v 0.97538000 0.01059300 -0.00708062
v 0.96480900 -0.04256410 -0.00708062
v 0.94435200 -0.09041050 -0.01595800
v 0.93378000 -0.13299700 -0.01595800
v 0.91156100 -0.20218800 -0.01772990
v 0.90451400 -0.20218800 -0.02127380
v 0.91459600 -0.10639300 -0.02139780
v -0.02350640 -0.21005200 -0.00507834
v 0.74486800 -0.25539600 -0.01062450
v 0.20221000 -0.25182200 -0.00353676
v -0.02350640 -0.16394200 0.08711530
v -0.02350640 -0.17379700 0.06741140
v 0.82288000 -0.24120100 -0.01772990
v 0.61713200 -0.23813700 -0.02139780
v 0.89384500 -0.22343100 -0.02127380
v 0.78744700 0.04255870 0.15962300
v -0.02350640 0.06380100 0.15962300
v 0.79801800 0.03188640 0.15962300
v 0.84059700 0.03188640 0.14897300
v 0.86193500 0.05317980 0.13832400
v 0.87612800 0.05675430 0.13123600
v 0.89736800 0.05675430 0.12058700
v 0.90803700 0.06737550 0.10995500
v 0.91870700 0.07799670 0.09930620
v 0.90627600 0.07626050 0.10818400
v 0.92927800 0.07799670 0.08867460
v 0.93818500 0.09750290 0.06563950
v 0.94170900 0.10107700 0.05853400
v 0.95237800 0.10107700 0.03725310
v 0.95061600 0.10991100 0.02483190
v 0.96833300 0.07447330 0.00000711
v 0.97538000 0.01769080 -0.00353676
v 0.97626100 0.00533343 -0.00530869
v 0.96833300 0.06380100 0.02128800
v 0.96569000 -0.04787470 -0.00530869
v 0.91244200 -0.20749900 -0.01595800
v 0.90578600 -0.21280900 -0.01861590
v 0.87250600 -0.14852100 -0.02139780
v 0.89384500 -0.23410300 -0.01062450
v 0.89913000 -0.23144800 -0.00530869
v 0.75015400 -0.25269000 -0.00530869
v 0.74486800 -0.25182200 -0.00353676
v -0.02350640 -0.16312500 0.08867460
v 0.89736800 -0.23052900 -0.01772990
v 0.78734900 -0.18043500 -0.02139780
v -0.02350640 -0.03189180 0.15962300
v 0.79801800 0.01059300 0.15962300
v 0.80692500 0.01947800 0.15783300
v 0.84059700 0.01059300 0.14897300
v 0.84774200 0.02836300 0.14543000
v 0.89032100 0.04965650 0.12414900
v 0.89736800 -0.00707498 0.12058700
v 0.92927800 0.02478860 0.09930620
v 0.93994700 0.02478860 0.08867460
v 0.93994700 0.06737550 0.07802530
v 0.93818500 0.07626050 0.07625330
v 0.94885400 0.08688170 0.05499020
v 0.95237800 0.09040510 0.04790240
v 0.95766400 0.09576670 0.02128800
v 0.96833300 0.04255870 0.03193730
v 0.96833300 -0.01059840 0.03193730
v 0.96833300 -0.02127060 0.02128800
v 0.96833300 -0.03189180 0.01065640
v 0.96304700 0.05849040 0.03725310
v 0.91508500 -0.20218800 -0.01062450
v 0.90451400 -0.22343100 -0.01062450
v 0.90177300 -0.22879200 -0.01595800
v 0.90089200 -0.23052900 -0.01062450
v 0.90979900 -0.21015400 -0.00530869
v 0.90089200 -0.22700500 -0.00353676
v 0.88855900 -0.08775520 0.10107800
v 0.87789000 -0.09842740 0.10107800
v 0.86722100 -0.10904900 0.10107800
v 0.82464200 -0.11967000 0.11172700
v 0.80868700 -0.13121000 0.10995500
v 0.75553700 -0.14188200 0.10995500
v 0.75553700 -0.16312500 0.08867460
v 0.81935600 -0.24120100 -0.00353676
v -0.02350640 -0.14188200 0.10995500
v -0.02350640 -0.06380640 0.14897300
v 0.75553700 -0.03189180 0.15962300
v 0.78744700 -0.01059840 0.15962300
v 0.83002500 -0.02127060 0.14897300
v 0.80868700 0.00926531 0.15694700
v 0.84774200 0.00706958 0.14543000
v 0.86193500 -0.01059840 0.13832400
v 0.89032100 -0.01417280 0.12414900
v 0.90803700 -0.01769620 0.10995500
v 0.92927800 0.01416740 0.09930620
v 0.93994700 -0.02836840 0.07802530
v 0.95061600 -0.00707498 0.06741140
v 0.94709200 0.02126520 0.07448140
v 0.95061600 0.04608200 0.06741140
v 0.95061600 0.07799670 0.05676210
v 0.96480900 0.03898420 0.03902500
v 0.96118700 0.04608200 0.04613050
v 0.96480900 -0.01417280 0.03902500
v 0.96569000 -0.02259830 0.03193730
v 0.96569000 -0.03321950 0.02128800
v 0.95766400 -0.06380640 0.01065640
v 0.95502100 -0.06513410 0.02128800
v 0.91156100 -0.20571200 -0.00353676
v 0.92046800 -0.08775520 0.06916560
v 0.90979900 -0.07713400 0.09044650
v 0.88855900 -0.06646170 0.11172700
v 0.87789000 -0.07713400 0.11172700
v 0.84598000 -0.08775520 0.12237700
v 0.81935600 -0.11834200 0.11438500
v 0.79801800 -0.09929550 0.13123600
v 0.78744700 -0.12058900 0.12058700
v 0.78744700 -0.11349100 0.12414900
v -0.02350640 -0.07958500 0.14110600
v -0.02350640 -0.06538940 0.14819400
v 0.77677800 -0.06380640 0.14897300
v 0.77677800 -0.02127060 0.15962300
v 0.80868700 -0.04256410 0.14897300
v 0.81935600 -0.04389170 0.14631600
v 0.83002500 -0.03321950 0.14631600
v 0.85841100 -0.03546620 0.13478000
v 0.86898200 -0.01417280 0.13478000
v 0.89032100 -0.05670860 0.11349900
v 0.91870700 -0.02836840 0.09930620
v 0.94170900 -0.04521940 0.06916560
v 0.94347100 -0.03546620 0.07093750
v 0.95414000 -0.01417280 0.06030600
v 0.95414000 -0.03546620 0.04967440
v 0.96304700 -0.02392590 0.03725310
v 0.95237800 -0.04521940 0.04790240
v 0.95502100 -0.04389170 0.04256890
v 0.95502100 -0.05451290 0.03193730
v 0.94347100 -0.06738090 0.04967440
v 0.86722100 -0.06646170 0.12237700
v 0.83707300 -0.06738090 0.13478000
v 0.84059700 -0.08642750 0.12503500
v 0.80868700 -0.08642750 0.13566600
v 0.79801800 -0.08509990 0.13832400
v 0.77677800 -0.07800210 0.14188600
v 0.79801800 -0.05318530 0.14897300
v 0.80868700 -0.05451290 0.14631600
v 0.83002500 -0.06380640 0.13832400
v 0.85126600 -0.04389170 0.13566600
v 0.85655100 -0.04521940 0.13300800
v 0.86898200 -0.05670860 0.12414900
v 0.86193500 -0.06513410 0.12503500
f 1 2 12
f 184 213 214
f 184 214 250
f 184 250 215
f 184 215 185
f 185 215 186
f 186 215 216
f 186 216 187
f 187 216 252
f 187 252 217
f 187 217 254
f 187 254 218
f 187 218 188
f 188 218 189
f 189 218 219
f 189 219 191
f 183 213 184
f 191 219 220
f 183 212 213
f 180 202 209
f 169 200 201
f 170 201 202
f 170 202 171
f 171 202 180
f 171 180 172
f 172 180 203
f 174 178 204
f 174 204 205
f 174 205 206
f 174 206 207
f 175 208 176
f 175 207 242
f 175 242 208
f 178 209 204
f 179 210 180
f 180 210 203
f 191 220 221
f 191 221 192
f 192 221 222
f 201 232 202
f 202 232 209
f 204 209 232
f 204 232 233
f 204 233 205
f 205 233 231
f 205 231 234
f 205 234 267
f 205 267 235
f 205 235 236
f 205 236 237
f 205 237 238
f 205 238 239
f 205 239 240
f 205 240 241
f 201 231 232
f 201 230 231
f 200 230 201
f 200 228 230
f 192 222 193
f 193 222 223
f 193 223 194
f 194 223 199
f 194 199 224
f 194 224 195
f 195 224 196
f 168 200 169
f 196 224 199
f 197 225 198
f 198 225 226
f 198 226 227
f 198 227 228
f 198 228 200
f 199 229 225
f 199 223 229
f 197 199 225
f 205 241 242
f 166 200 167
f 165 199 197
f 134 171 135
f 135 171 172
f 136 137 173
f 137 174 207
f 137 207 175
f 137 175 176
f 137 176 177
f 137 177 173
f 138 178 174
f 141 179 180
f 141 180 142
f 142 180 209
f 142 209 178
f 143 182 211
f 143 211 246
f 133 171 134
f 143 246 280
f 133 170 171
f 133 169 201
f 126 160 161
f 126 161 127
f 127 161 128
f 128 161 160
f 128 160 162
f 128 162 163
f 128 163 129
f 129 163 164
f 129 164 165
f 129 165 130
f 132 166 167
f 132 167 200
f 132 200 168
f 132 168 169
f 132 169 133
f 133 201 170
f 143 280 247
f 143 247 212
f 143 212 183
f 156 192 193
f 156 193 157
f 157 193 194
f 157 194 158
f 158 194 195
f 158 195 160
f 158 160 159
f 160 195 162
f 162 195 196
f 162 196 163
f 163 196 164
f 164 196 165
f 165 197 198
f 165 198 166
f 165 196 199
f 155 192 156
f 155 191 192
f 154 191 155
f 154 189 191
f 143 183 181
f 145 148 147
f 145 147 146
f 145 181 148
f 148 181 183
f 148 183 184
f 148 184 185
f 166 198 200
f 149 185 186
f 150 187 188
f 150 188 189
f 150 189 190
f 150 190 151
f 150 186 187
f 151 190 189
f 152 189 154
f 149 186 150
f 125 160 126
f 205 242 243
f 205 207 206
f 263 294 295
f 263 295 266
f 263 266 264
f 266 295 267
f 267 295 294
f 267 294 296
f 267 296 288
f 267 288 268
f 268 288 269
f 269 287 270
f 270 286 308
f 270 308 297
f 270 297 272
f 270 272 271
f 270 287 286
f 263 293 294
f 272 298 299
f 263 292 293
f 262 293 292
f 252 284 286
f 253 287 254
f 254 287 255
f 255 288 289
f 255 289 256
f 255 287 269
f 255 269 288
f 256 289 290
f 256 290 262
f 256 262 257
f 257 262 260
f 257 260 258
f 258 261 259
f 262 290 291
f 262 291 293
f 262 292 263
f 272 299 273
f 272 297 298
f 273 299 300
f 288 296 293
f 288 293 291
f 288 291 289
f 289 291 290
f 293 296 294
f 297 307 306
f 297 306 309
f 297 309 298
f 298 306 305
f 298 305 300
f 298 300 299
f 298 309 306
f 300 305 304
f 300 304 303
f 300 303 301
f 284 306 307
f 284 308 286
f 284 297 308
f 284 307 297
f 274 301 279
f 274 279 302
f 274 302 276
f 274 276 275
f 274 300 301
f 276 302 277
f 277 302 279
f 252 285 284
f 277 279 278
f 280 303 281
f 281 303 304
f 281 304 282
f 282 304 305
f 282 305 283
f 283 305 306
f 283 306 284
f 279 301 303
f 205 243 207
f 252 287 253
f 251 285 252
f 219 258 220
f 219 254 255
f 220 258 259
f 220 259 222
f 220 222 221
f 222 259 223
f 223 259 229
f 225 260 262
f 225 262 226
f 225 229 259
f 225 259 261
f 225 261 258
f 225 258 260
f 226 262 263
f 226 263 227
f 219 257 258
f 227 263 228
f 219 256 257
f 218 254 219
f 207 243 242
f 208 242 241
f 211 245 279
f 211 279 246
f 212 247 248
f 212 248 249
f 212 249 213
f 213 249 214
f 214 249 248
f 214 248 251
f 214 251 250
f 215 250 252
f 215 252 216
f 217 253 254
f 217 252 253
f 219 255 256
f 228 263 264
f 228 264 266
f 228 266 265
f 240 275 241
f 241 275 276
f 241 276 277
f 241 277 244
f 245 278 279
f 246 279 303
f 246 303 280
f 247 280 248
f 248 280 281
f 248 281 282
f 248 282 283
f 248 283 284
f 248 284 251
f 250 251 252
f 251 284 285
f 240 274 275
f 240 300 274
f 240 273 300
f 239 273 240
f 228 265 230
f 230 265 266
f 230 266 267
f 230 267 234
f 230 234 231
f 231 233 232
f 235 267 268
f 252 286 287
f 235 268 269
f 236 270 271
f 236 271 237
f 236 269 270
f 237 271 272
f 237 272 238
f 238 272 239
f 239 272 273
f 235 269 236
f 125 159 160
f 208 241 244
f 124 158 159
f 25 53 38
f 26 39 40
f 26 40 27
f 27 40 28
f 28 40 41
f 28 41 42
f 28 42 43
f 28 43 44
f 28 44 45
f 28 45 29
f 29 45 30
f 30 44 43
f 30 43 42
f 30 42 46
f 30 46 47
f 25 37 53
f 30 47 31
f 25 39 26
f 25 38 58
f 13 112 84
f 13 84 81
f 13 81 53
f 13 53 37
f 13 37 24
f 13 24 23
f 13 23 22
f 13 22 21
f 13 21 20
f 13 20 19
f 13 19 18
f 13 18 17
f 13 17 16
f 13 16 15
f 13 15 14
f 25 58 39
f 30 45 44
f 32 47 33
f 33 47 48
f 42 63 64
f 42 64 65
f 42 65 66
f 42 66 46
f 46 66 65
f 46 65 67
f 46 67 47
f 47 67 68
f 47 68 48
f 48 68 69
f 48 69 70
f 48 70 71
f 48 71 49
f 49 71 72
f 49 72 50
f 42 62 63
f 41 62 42
f 41 59 62
f 40 59 41
f 33 48 49
f 33 49 34
f 34 49 50
f 34 50 35
f 36 52 51
f 38 54 55
f 38 55 56
f 13 144 112
f 38 56 57
f 38 53 81
f 38 81 54
f 39 59 40
f 39 58 60
f 39 60 61
f 39 61 62
f 39 62 59
f 38 57 58
f 50 72 73
f 13 182 144
f 13 278 245
f 1 3 24
f 1 24 4
f 1 4 5
f 1 5 6
f 1 6 7
f 1 7 8
f 1 8 9
f 1 9 10
f 1 10 11
f 1 11 2
f 2 11 12
f 3 13 14
f 3 14 15
f 3 15 16
f 3 16 17
f 1 13 3
f 3 17 18
f 1 36 13
f 1 80 52
f 124 159 125
f 1 12 35
f 1 35 50
f 1 50 77
f 1 77 105
f 1 105 135
f 1 135 172
f 1 172 203
f 1 203 210
f 1 210 179
f 1 179 141
f 1 141 140
f 1 140 139
f 1 139 108
f 1 108 80
f 1 52 36
f 3 18 19
f 3 19 20
f 3 20 21
f 10 33 34
f 10 34 11
f 11 34 12
f 12 34 35
f 13 36 51
f 13 51 78
f 13 78 106
f 13 106 136
f 13 136 173
f 13 173 177
f 13 177 176
f 13 176 208
f 13 208 244
f 13 244 277
f 13 277 278
f 10 32 33
f 9 32 10
f 9 47 32
f 9 31 47
f 3 21 22
f 3 22 23
f 3 23 24
f 4 25 26
f 4 26 5
f 4 24 37
f 4 37 25
f 13 245 211
f 5 26 27
f 6 27 28
f 6 28 29
f 6 29 7
f 7 29 8
f 8 29 30
f 8 30 31
f 8 31 9
f 5 27 6
f 50 73 74
f 13 211 182
f 50 75 76
f 101 129 102
f 102 129 103
f 103 130 165
f 103 165 166
f 103 166 131
f 103 129 130
f 104 131 166
f 104 166 132
f 104 132 133
f 104 133 134
f 104 134 135
f 104 135 105
f 106 107 137
f 106 137 136
f 107 138 174
f 100 128 129
f 108 139 109
f 100 129 101
f 98 128 99
f 89 121 90
f 90 121 122
f 90 122 123
f 90 123 91
f 91 123 92
f 92 123 124
f 92 124 125
f 92 125 126
f 92 126 95
f 92 95 93
f 95 126 127
f 95 127 96
f 96 127 128
f 96 128 97
f 97 128 98
f 99 128 100
f 109 139 140
f 109 140 141
f 109 141 142
f 119 150 151
f 119 151 189
f 119 189 152
f 119 152 153
f 119 153 122
f 119 122 121
f 122 152 154
f 122 154 155
f 122 155 156
f 122 156 157
f 122 157 124
f 122 124 123
f 122 153 152
f 50 74 75
f 124 157 158
f 118 150 119
f 117 150 118
f 117 149 150
f 115 117 116
f 109 142 178
f 109 178 138
f 110 143 113
f 110 113 111
f 110 144 182
f 110 182 143
f 113 145 146
f 89 119 121
f 113 146 114
f 113 181 145
f 114 146 115
f 115 146 147
f 115 147 148
f 115 148 185
f 115 185 149
f 115 149 117
f 113 143 181
f 87 89 88
f 107 174 137
f 61 89 62
f 62 89 90
f 62 90 91
f 62 91 92
f 62 92 63
f 63 92 93
f 63 93 65
f 63 65 94
f 63 94 64
f 64 94 65
f 65 93 95
f 65 95 69
f 65 69 68
f 69 95 96
f 69 96 70
f 70 96 97
f 61 88 89
f 60 88 61
f 60 87 88
f 58 87 60
f 50 76 77
f 51 52 79
f 87 120 89
f 51 79 78
f 52 80 79
f 54 82 111
f 54 111 83
f 70 97 98
f 54 83 55
f 54 84 82
f 55 83 56
f 56 83 85
f 56 85 86
f 56 86 57
f 57 87 58
f 57 86 87
f 54 81 84
f 70 98 71
f 65 68 67
f 71 73 72
f 79 138 107
f 82 110 111
f 82 84 112
f 82 112 144
f 82 144 110
f 85 111 113
f 85 113 114
f 79 109 138
f 85 114 115
f 85 116 86
f 86 117 118
f 86 118 119
f 86 119 89
f 86 89 120
f 86 120 87
f 86 116 117
f 85 115 116
f 79 108 109
f 83 111 85
f 76 101 102
f 79 80 108
f 74 99 100
f 74 100 101
f 74 101 76
f 74 76 75
f 74 98 99
f 76 102 103
f 73 98 74
f 71 98 73
f 76 131 104
f 76 104 105
f 76 105 77
f 78 79 106
f 79 107 106
f 76 103 131

