# https://github.com/mikedh/trimesh
v -0.02360420 -0.16315400 0.08867050
v -0.30329400 -0.28466000 -0.02660380
v -0.02360420 -0.21281300 -0.01063360
v -0.30861000 -0.28732100 -0.03192460
v -0.32987600 -0.28732100 -0.03192460
v -0.32987600 -0.28377100 -0.02483090
v -0.30861000 -0.28377100 -0.02483090
v -0.02360420 -0.14185900 0.10995300
v -0.02360420 -0.06383730 0.14897300
v -0.46355500 -0.06384310 0.14896700
v -0.46355500 -0.14187700 0.10993600
v -0.46355500 -0.03192240 0.15962300
v -0.02360420 -0.03191710 0.15962300
v -0.02360420 0.06384320 0.15962300
v -0.02360420 0.17378500 0.10995300
v -0.02360420 0.12768300 0.13832300
v -0.22237200 0.12768300 0.13832300
v -0.02360420 0.14186500 0.13123500
v -0.46355500 0.14187400 0.13121700
v -0.46355500 0.17379400 0.10993600
v -0.46355500 0.20571500 0.07803010
v -0.46355500 0.06383980 0.15962300
v -0.46355500 0.12768100 0.13831100
v -0.46355500 -0.23539300 -0.03190580
v -0.46355500 -0.16314100 0.08865500
v -0.33520600 -0.28199900 -0.02394340
v -0.33697800 -0.28377100 -0.02837880
v -0.46355500 -0.23372100 -0.02856210
v -0.34406700 -0.28022700 -0.03547030
v -0.32633200 -0.28377100 -0.03901820
v -0.46355500 -0.23075800 -0.03990570
v -0.46355500 -0.15248500 -0.12059200
v -0.46355500 -0.18440600 -0.08865500
v -0.02360420 -0.15252300 -0.12059300
v -0.30506600 -0.28377100 -0.03901820
v -0.02360420 -0.19153600 -0.07449190
v -0.02360420 -0.18441400 -0.08868700
v -0.02360420 -0.11704800 -0.13833000
v -0.46355500 -0.11702800 -0.13831100
v -0.46355500 -0.08510770 -0.14896700
v -0.46355500 0.12768100 -0.14896700
v -0.46355500 0.07444820 -0.15962300
v -0.46355500 -0.04253080 -0.15962300
v -0.02360420 -0.04256090 -0.15962300
v -0.02360420 -0.08511230 -0.14897000
v -0.02360420 0.07447810 -0.15962300
v -0.02360420 0.12769000 -0.14897000
v -0.02360420 0.23411300 -0.06385220
v -0.02360420 0.20571600 -0.10995300
v -0.02360420 0.21637600 -0.09931350
v -0.35649600 0.25273600 -0.03721820
v -0.02360420 0.23411300 0.01064840
v -0.35826800 0.25182800 -0.03190580
v -0.02360420 0.22344400 0.04258050
v -0.35915900 0.25006000 -0.02659340
v -0.46355500 0.23410000 0.01062480
v -0.46355500 0.24604600 -0.03059330
v -0.46355500 0.23410000 -0.06384280
v -0.46355500 0.21637100 -0.09931110
v -0.22237200 0.20571600 -0.10995300
v -0.46355500 0.20571500 -0.10993600
v -0.46355500 0.22344400 0.04256190
v -0.02360420 0.20570500 0.07802050
f 50 48 49
f 51 48 50
f 51 52 48
f 53 52 51
f 53 54 52
f 53 57 56
f 53 56 55
f 53 51 57
f 51 58 57
f 49 48 47
f 51 59 58
f 53 55 54
f 47 48 45
f 44 40 43
f 46 41 47
f 46 42 41
f 39 40 38
f 43 42 46
f 44 43 46
f 44 46 45
f 44 45 40
f 43 40 42
f 42 40 41
f 40 24 41
f 32 24 40
f 39 32 40
f 51 50 59
f 46 47 45
f 50 60 59
f 54 15 48
f 49 47 60
f 39 38 32
f 5 30 4
f 22 41 24
f 36 3 4
f 36 37 3
f 38 40 45
f 38 45 37
f 3 45 9
f 48 9 45
f 15 9 48
f 52 54 48
f 63 21 15
f 63 15 54
f 63 54 21
f 62 21 54
f 62 54 55
f 56 62 55
f 56 57 62
f 62 57 21
f 21 57 22
f 57 41 22
f 58 59 57
f 59 41 57
f 61 41 59
f 61 59 60
f 61 60 41
f 60 47 41
f 50 49 60
f 34 32 38
f 37 45 3
f 35 34 37
f 20 21 19
f 20 15 21
f 18 16 15
f 18 15 20
f 18 20 19
f 18 19 17
f 18 17 16
f 16 17 14
f 16 14 15
f 14 9 15
f 13 9 14
f 13 14 12
f 13 12 9
f 10 9 12
f 10 12 11
f 10 11 8
f 10 8 9
f 8 3 9
f 7 2 1
f 7 1 8
f 7 8 6
f 7 6 2
f 2 6 5
f 2 5 4
f 2 4 3
f 2 3 1
f 34 38 37
f 19 21 22
f 23 19 22
f 1 3 8
f 23 22 17
f 35 37 36
f 23 17 19
f 35 36 4
f 35 4 30
f 35 30 34
f 34 30 32
f 33 32 30
f 33 31 32
f 31 24 32
f 29 24 31
f 29 31 30
f 29 30 5
f 29 5 24
f 5 27 24
f 33 30 31
f 28 25 24
f 14 22 12
f 17 22 14
f 28 24 27
f 12 22 11
f 11 22 24
f 25 11 24
f 6 8 11
f 6 11 25
f 26 6 25
f 26 5 6
f 26 27 5
f 26 28 27
f 26 25 28

