# https://github.com/mikedh/trimesh
v -0.46361600 0.23411300 0.01065320
v -0.46361600 0.22343900 0.04256640
v -0.46361600 0.23411300 0.00000372
v -0.70234400 0.23411300 0.01065320
v -0.46361600 0.22113300 0.04723670
v -0.72357600 0.22343900 0.04256640
v -0.46361600 0.23210700 -0.00397658
v -0.60657100 0.23411300 -0.02110070
v -0.72357600 0.23411300 0.00000372
v -0.75550000 0.22343900 0.03193460
v -0.46361600 0.20571900 0.07803540
v -0.72714000 0.21989500 0.04967790
v -0.72357600 0.21280700 0.06386550
v -0.72006300 0.20571900 0.07803540
v -0.46361600 0.23052700 -0.00709006
v -0.58925400 0.23082600 -0.02110070
v -0.71298500 0.22352400 -0.02110070
v -0.73953800 0.23142300 -0.00530335
v -0.79274500 0.22079100 -0.00530335
v -0.76614200 0.22343900 0.02128510
v -0.76749700 0.22079100 0.03193460
v -0.75906400 0.21989500 0.03902840
v -0.46361600 0.19508700 0.08866720
v -0.75906400 0.20926300 0.06030970
v -0.72714000 0.20926300 0.07094160
v -0.74134500 0.19508700 0.08866720
v -0.46361600 0.22343900 -0.01062810
v -0.46361600 0.09482980 -0.02110070
v -0.71991200 0.22006500 -0.02110070
v -0.78742500 0.21280700 -0.01062810
v -0.79806600 0.21413000 -0.00797457
v -0.78742500 0.21989500 -0.00709006
v -0.83531100 0.19952700 -0.00530335
v -0.81583500 0.20926300 0.00000372
v -0.80870700 0.21280700 0.00000372
v -0.81934900 0.20217500 0.03193460
v -0.79942100 0.21015900 0.03193460
v -0.76880200 0.21814400 0.03725940
v -0.78878000 0.21015900 0.04256640
v -0.78034700 0.20926300 0.04967790
v -0.46361600 0.17378000 0.10994900
v -0.78034700 0.19863100 0.07094160
v -0.74842300 0.19863100 0.08157340
v -0.77326900 0.19508700 0.07803540
v -0.74134500 0.17378000 0.10994900
v -0.46361600 -0.20179900 -0.02110070
v -0.72011300 0.21993700 -0.02110070
v -0.85127300 0.18086800 -0.01062810
v -0.82999000 0.19154300 -0.01062810
v -0.86191400 0.18223400 -0.00797457
v -0.85659300 0.18885300 -0.00530335
v -0.85840100 0.18799900 0.00000372
v -0.82647600 0.19863100 0.03193460
v -0.82291300 0.19863100 0.03902840
v -0.79008500 0.20746900 0.04789120
v -0.79008500 0.19683700 0.06917260
v -0.46361600 0.14188400 0.13123000
v -0.77326900 0.17378000 0.09931670
v -0.79008500 0.16494100 0.10108600
v -0.75816100 0.16494100 0.11173500
v -0.74842300 0.16669200 0.11350400
v -0.73070400 0.14188400 0.13123000
v -0.46361600 -0.19150800 0.03193460
v -0.63834500 -0.20209800 -0.02110070
v -0.85935400 0.00153296 -0.02110070
v -0.94704500 0.07446250 -0.01062810
v -0.92576200 0.10640100 -0.01062810
v -0.88319700 0.14897200 -0.01062810
v -0.90448000 0.13966400 -0.00797457
v -0.90804400 0.14188400 0.00000372
v -0.86547800 0.18441200 0.00000372
v -0.83355400 0.19508700 0.03193460
v -0.82733000 0.19683700 0.03725940
v -0.85393300 0.17557300 0.04789120
v -0.82291300 0.18799900 0.06030970
v -0.85393300 0.16494100 0.06917260
v -0.46361600 0.13231900 0.13600600
v -0.82200900 0.13300300 0.11173500
v -0.83265000 0.14363500 0.10108600
v -0.75906400 0.14542800 0.12413600
v -0.77944400 0.12237100 0.13301700
v -0.73778200 0.13475300 0.13478600
v -0.73421800 0.12766500 0.13832400
v -0.46361600 -0.18997100 0.03504810
v -0.72357600 -0.19150800 0.03193460
v -0.63849600 -0.20209800 -0.02110070
v -0.85945500 0.00123407 -0.02110070
v -0.95768700 0.05319850 -0.01062810
v -0.95417300 0.07800650 -0.00709006
v -0.94704500 0.08646090 -0.00797457
v -0.92576200 0.11835700 -0.00797457
v -0.92932600 0.12057700 0.00000372
v -0.90804400 0.14188400 0.02128510
v -0.87611900 0.17378000 0.01065320
v -0.88676100 0.16314800 0.02128510
v -0.86547800 0.17378000 0.03193460
v -0.87521600 0.16494100 0.03725940
v -0.87521600 0.15426700 0.05854070
v -0.89649900 0.13300300 0.05854070
v -0.89649900 0.12237100 0.06917260
v -0.88585700 0.12237100 0.07980440
v -0.85393300 0.14363500 0.09043620
v -0.46361600 0.12766500 0.13832400
v -0.81136800 0.12237100 0.12236700
v -0.83265000 0.12237100 0.11173500
v -0.76970600 0.12412100 0.13478600
v -0.77813800 0.11703300 0.13567000
v -0.76614200 0.11703300 0.13832400
v -0.74485900 0.09576920 0.14897300
v -0.46361600 -0.17579500 0.06342320
v -0.72357600 -0.17378800 0.06740350
v -0.75550000 -0.17733200 0.04967790
v -0.75550000 -0.18087600 0.04256640
v -0.76614200 -0.17822900 0.04391090
v -0.73421800 -0.18886100 0.03326140
v -0.77678300 -0.18087600 0.03193460
v -0.74485900 -0.19150800 0.01065320
v -0.63889700 -0.20197000 -0.02110070
v -0.75550000 -0.19150800 0.00000372
v -0.76262800 -0.18796400 -0.00709006
v -0.76614200 -0.18087600 -0.01062810
v -0.85769800 -0.00640902 -0.02110070
v -0.96832800 0.02125980 -0.01062810
v -0.96481400 0.05674250 -0.00709006
v -0.95236600 0.08244720 -0.00530335
v -0.93289000 0.10994500 -0.00709006
v -0.96566800 0.05849320 -0.00530335
v -0.93108300 0.11438600 -0.00530335
v -0.95060900 0.08863850 0.00000372
v -0.92932600 0.12057700 0.01065320
v -0.91868500 0.13120900 0.02128510
v -0.89740200 0.14188400 0.04256640
v -0.88676100 0.15251600 0.04256640
v -0.91778100 0.12237100 0.03725940
v -0.91778100 0.10106400 0.05854070
v -0.89740200 0.10640100 0.07803540
v -0.88585700 0.10106400 0.09043620
v -0.86457400 0.11169600 0.10108600
v -0.85393300 0.12237100 0.10108600
v -0.46361600 0.09576920 0.14897300
v -0.81006300 0.11703300 0.12502100
v -0.83265000 0.10106400 0.12236700
v -0.83134500 0.09576920 0.12502100
v -0.85393300 0.10106400 0.11173500
v -0.79942100 0.09576920 0.13567000
v -0.77813800 0.08509450 0.14632000
v -0.76614200 0.08509450 0.14897300
v -0.72357600 0.06383050 0.15962300
v -0.46361600 -0.16516300 0.08468690
v -0.75550000 -0.16315600 0.07803540
v -0.75550000 -0.17024400 0.06386550
v -0.70234400 -0.16315600 0.08866720
v -0.76614200 -0.16759700 0.06519220
v -0.78742500 -0.17822900 0.03326140
v -0.78742500 -0.18087600 0.02128510
v -0.70510500 -0.16234500 -0.02110070
v -0.79806600 -0.17024400 -0.01062810
v -0.84063100 -0.14898000 -0.01062810
v -0.76614200 -0.18886100 0.00133049
v -0.79806600 -0.18087600 0.00000372
v -0.77146300 -0.18621400 -0.00530335
v -0.79455200 -0.17733200 -0.00709006
v -0.85559000 -0.01490610 -0.02110070
v -0.97545600 0.02480380 -0.00709006
v -0.95768700 -0.01063620 -0.01062810
v -0.97630900 0.02659720 -0.00530335
v -0.95502600 0.07979990 0.00532848
v -0.95417300 0.08155050 0.00000372
v -0.95106100 0.08509450 0.01065320
v -0.92977800 0.11703300 0.02128510
v -0.92310200 0.12237100 0.02660980
v -0.92977800 0.10640100 0.03193460
v -0.92977800 0.09576920 0.04256640
v -0.91868500 0.08509450 0.06740350
v -0.92977800 0.08509450 0.05321600
v -0.93374300 0.06916790 0.05854070
v -0.92932600 0.06383050 0.06740350
v -0.90804400 0.06383050 0.08866720
v -0.89740200 0.08509450 0.08866720
v -0.87611900 0.09576920 0.09931670
v -0.46361600 0.06383050 0.15962300
v -0.85262800 0.09576920 0.11438900
v -0.82070400 0.07446250 0.13567000
v -0.86547800 0.08509450 0.10994900
v -0.78878000 0.07446250 0.14632000
v -0.78742500 0.06383050 0.14897300
v -0.73421800 0.05319850 0.15962300
v -0.46361600 -0.16315600 0.08866720
v -0.76614200 -0.15252400 0.08866720
v -0.77678300 -0.16315600 0.06740350
v -0.70234400 -0.15252400 0.09931670
v -0.71298500 -0.14185000 0.10994900
v -0.78742500 -0.16759700 0.05454270
v -0.79274500 -0.17558200 0.03458810
v -0.81934900 -0.16759700 0.02262950
v -0.79455200 -0.17733200 0.02484080
v -0.87255600 -0.12767400 -0.01062810
v -0.71730200 -0.15325000 -0.02110070
v -0.83711800 -0.15606800 -0.00709006
v -0.84951600 -0.14718700 -0.00885908
v -0.88144000 -0.12592300 -0.00885908
v -0.80519400 -0.17733200 0.00355946
v -0.81227100 -0.17378800 -0.00353432
v -0.80338700 -0.17558200 -0.00530335
v -0.83430700 -0.03621280 -0.02110070
v -0.91512100 -0.08510290 -0.01062810
v -0.93640400 -0.05320690 -0.01062810
v -0.96832800 -0.01063620 0.00000372
v -0.97545600 0.02125980 -0.00353432
v -0.96481400 -0.00709220 -0.00709006
v -0.95502600 0.04786120 0.03725940
v -0.95502600 0.06916790 0.01597800
v -0.95106100 0.06383050 0.03193460
v -0.94041900 0.09576920 0.02128510
v -0.95106100 0.05319850 0.04256640
v -0.94041900 0.06383050 0.05321600
v -0.93996800 0.05319850 0.05677170
v -0.92224900 0.02125980 0.08157340
v -0.89740200 0.05319850 0.09931670
v -0.87611900 0.06383050 0.10994900
v -0.46361600 -0.03190020 0.15962300
v -0.85262800 0.05319850 0.12502100
v -0.86326900 0.07446250 0.11438900
v -0.81934900 0.06383050 0.13832400
v -0.85127300 0.04252380 0.12769200
v -0.79806600 0.03189180 0.14897300
v -0.75550000 0.02125980 0.15962300
v -0.74485900 0.04252380 0.15962300
v -0.46361600 -0.15252400 0.09931670
v -0.76614200 -0.14185000 0.09931670
v -0.80870700 -0.12058600 0.09931670
v -0.78742500 -0.15252400 0.07803540
v -0.80338700 -0.15427500 0.06651900
v -0.79274500 -0.16490700 0.05586950
v -0.46361600 -0.14185000 0.10994900
v -0.46361600 -0.13877500 0.11150500
v -0.71830600 -0.13301100 0.11438900
v -0.73421800 -0.12058600 0.12059800
v -0.75550000 -0.13121800 0.10994900
v -0.82647600 -0.15606800 0.04612220
v -0.82466900 -0.16490700 0.02395630
v -0.82647600 -0.16670000 0.01419130
v -0.89383800 -0.10641000 -0.01062810
v -0.85483700 -0.15252400 -0.00353432
v -0.88676100 -0.13121800 -0.00353432
v -0.90804400 -0.10995400 -0.00353432
v -0.91336400 -0.09398430 -0.00885908
v -0.84775900 -0.15606800 0.00355946
v -0.93464700 -0.06204560 -0.00885908
v -0.96481400 -0.01772420 0.00355946
v -0.96566800 -0.01063620 0.01198000
v -0.96832800 0.00003850 0.01065320
v -0.96125000 -0.02481220 -0.00353432
v -0.96481400 0.00003850 0.01774700
v -0.95417300 0.04252380 0.03902840
v -0.94353200 -0.04962020 -0.00709006
v -0.93996800 -0.06738290 -0.00353432
v -0.95060900 0.04252380 0.04612220
v -0.95060900 0.00003850 0.04612220
v -0.93996800 -0.01063620 0.05677170
v -0.92932600 -0.02126820 0.06740350
v -0.90804400 -0.02126820 0.08866720
v -0.89740200 -0.01063620 0.09931670
v -0.88676100 0.01067050 0.10994900
v -0.88676100 0.03189180 0.10994900
v -0.86547800 0.04252380 0.12059800
v -0.46361600 -0.06383890 0.14897300
v -0.71298500 -0.03190020 0.15962300
v -0.85840100 0.04252380 0.12413600
v -0.82999000 0.03189180 0.13832400
v -0.83711800 0.03189180 0.13478600
v -0.79806600 0.00003850 0.14897300
v -0.75550000 0.01067050 0.15962300
v -0.76614200 -0.12767400 0.11039100
v -0.80870700 -0.10641000 0.11039100
v -0.81402800 -0.11170400 0.10373900
v -0.82466900 -0.11170400 0.09843220
v -0.82999000 -0.12058600 0.08866720
v -0.82999000 -0.13121800 0.07803540
v -0.84595200 -0.13301100 0.06651900
v -0.82466900 -0.15427500 0.05056240
v -0.46361600 -0.08911660 0.13634200
v -0.73421800 -0.10641000 0.12769200
v -0.73953800 -0.11170400 0.12502100
v -0.74485900 -0.11704200 0.12104000
v -0.75018000 -0.09044030 0.13567000
v -0.85659300 -0.13301100 0.05586950
v -0.85659300 -0.14364300 0.03458810
v -0.85840100 -0.14539400 0.02484080
v -0.87968300 -0.13476200 0.00355946
v -0.89740200 -0.12058600 0.00709751
v -0.90804400 -0.10995400 0.00709751
v -0.91868500 -0.09927890 -0.00353432
v -0.94353200 -0.06029490 0.00355946
v -0.95417300 -0.03898820 0.01419130
v -0.95502600 -0.03190020 0.02262950
v -0.95502600 -0.01063620 0.03326140
v -0.95417300 0.00003850 0.03902840
v -0.95060900 -0.02126820 0.03547270
v -0.92932600 -0.04253220 0.05677170
v -0.92044200 -0.04786960 0.06651900
v -0.92044200 -0.03723760 0.07182610
v -0.90804400 -0.05320690 0.07803540
v -0.88676100 -0.04253220 0.09931670
v -0.89383800 -0.02126820 0.09975900
v -0.88319700 0.00003850 0.11039100
v -0.87787600 0.00533315 0.11438900
v -0.86547800 0.00003850 0.12059800
v -0.87968300 0.01067050 0.11350400
v -0.87968300 0.03189180 0.11350400
v -0.72357600 -0.06383890 0.14897300
v -0.73421800 -0.02126820 0.15962300
v -0.75550000 -0.05320690 0.14897300
v -0.82999000 0.01067050 0.13832400
v -0.83711800 0.01067050 0.13478600
v -0.78742500 -0.03190020 0.14897300
v -0.81934900 -0.03190020 0.13832400
v -0.77678300 -0.10641000 0.12104000
v -0.81934900 -0.08510290 0.12104000
v -0.82466900 -0.09044030 0.11438900
v -0.82999000 -0.10641000 0.09975900
v -0.84595200 -0.11170400 0.08778270
v -0.87787600 -0.10107200 0.07182610
v -0.75550000 -0.09573490 0.13167200
v -0.76082100 -0.05850160 0.14632000
v -0.77146300 -0.07980830 0.13567000
v -0.87787600 -0.12233600 0.04523770
v -0.88851800 -0.12233600 0.02395630
v -0.89032500 -0.12413000 0.01419130
v -0.90980000 -0.10107200 0.02395630
v -0.91160700 -0.10286600 0.01419130
v -0.92224900 -0.09219090 0.00355946
v -0.93289000 -0.07092690 0.02484080
v -0.95236600 -0.03723760 0.02395630
v -0.93108300 -0.05850160 0.04523770
v -0.90980000 -0.06913360 0.06651900
v -0.89915900 -0.06913360 0.07715080
v -0.89915900 -0.05850160 0.08245790
v -0.89383800 -0.05320690 0.08910950
v -0.87787600 -0.04786960 0.10373900
v -0.85127300 -0.04253220 0.12104000
v -0.86191400 -0.01063620 0.12104000
v -0.85659300 -0.00529885 0.12502100
v -0.85840100 0.00003850 0.12413600
v -0.79274500 -0.03723760 0.14632000
v -0.83531100 0.00533315 0.13567000
v -0.85127300 0.00003850 0.12769200
v -0.82466900 -0.03723760 0.13567000
v -0.81402800 -0.07980830 0.12502100
v -0.82999000 -0.07447090 0.12104000
v -0.83531100 -0.09044030 0.10906400
v -0.87787600 -0.07980830 0.08778270
v -0.87968300 -0.10286600 0.06740350
v -0.90980000 -0.07980830 0.05586950
v -0.90980000 -0.09044030 0.04523770
v -0.79274500 -0.06913360 0.13567000
v -0.93108300 -0.06913360 0.03458810
v -0.92224900 -0.07092690 0.04612220
v -0.87255600 -0.06383890 0.09975900
v -0.84595200 -0.06913360 0.11438900
v -0.82999000 -0.04253220 0.13167200
v -0.84595200 -0.03723760 0.12502100
v -0.82466900 -0.06913360 0.12502100
v -0.84595200 -0.07980830 0.10906400
f 211 215 212
f 217 258 218
f 211 258 215
f 213 215 214
f 215 258 217
f 215 217 216
f 212 215 213
f 218 258 259
f 218 264 265
f 218 260 261
f 218 261 262
f 218 262 263
f 218 263 264
f 218 265 219
f 219 265 266
f 211 255 258
f 219 266 220
f 220 266 223
f 218 259 260
f 210 257 253
f 206 243 247
f 209 298 255
f 221 268 311
f 201 245 246
f 201 246 247
f 201 247 243
f 202 242 248
f 202 248 244
f 202 244 203
f 206 247 207
f 210 256 257
f 207 249 256
f 207 247 249
f 208 250 251
f 208 251 252
f 208 252 209
f 208 210 253
f 208 253 250
f 209 252 254
f 209 254 298
f 207 256 210
f 221 311 267
f 238 274 239
f 222 266 269
f 237 283 238
f 237 282 283
f 238 284 285
f 238 285 274
f 201 244 245
f 238 283 286
f 238 286 284
f 240 281 280
f 240 280 287
f 240 287 288
f 240 288 241
f 241 288 242
f 242 288 289
f 242 289 248
f 244 248 290
f 244 290 245
f 245 290 329
f 245 329 291
f 245 291 292
f 236 282 237
f 222 223 266
f 233 280 281
f 233 281 240
f 222 269 225
f 224 225 270
f 225 269 271
f 225 271 270
f 226 272 273
f 226 273 227
f 226 270 314
f 226 314 272
f 230 239 274
f 230 274 275
f 230 275 231
f 231 275 276
f 231 276 277
f 231 277 322
f 231 322 278
f 231 278 232
f 232 278 279
f 232 279 280
f 232 280 233
f 233 240 234
f 200 244 201
f 183 225 224
f 198 243 205
f 163 243 206
f 163 206 207
f 163 207 165
f 164 208 209
f 164 209 166
f 164 210 208
f 165 207 210
f 166 209 255
f 163 205 243
f 166 255 211
f 166 212 167
f 167 212 169
f 169 212 213
f 169 213 214
f 169 214 170
f 170 214 172
f 172 214 173
f 173 214 215
f 166 211 212
f 162 244 199
f 162 203 244
f 162 204 203
f 152 192 189
f 153 190 193
f 154 193 194
f 154 194 195
f 154 195 196
f 154 196 155
f 155 196 202
f 155 202 160
f 155 160 159
f 156 158 197
f 156 197 198
f 157 162 199
f 157 199 158
f 158 199 200
f 158 200 201
f 158 201 197
f 160 202 203
f 160 203 204
f 160 204 161
f 173 215 216
f 173 216 175
f 176 216 177
f 177 216 217
f 190 232 233
f 190 233 234
f 190 234 193
f 191 229 235
f 191 235 192
f 192 235 236
f 192 236 237
f 192 237 238
f 192 238 239
f 192 239 230
f 193 234 194
f 194 234 240
f 194 240 241
f 194 241 195
f 195 241 242
f 195 242 196
f 196 242 202
f 197 201 243
f 197 243 198
f 189 192 230
f 199 244 200
f 189 231 232
f 186 228 187
f 177 217 218
f 177 218 178
f 178 219 180
f 178 180 179
f 178 218 219
f 180 220 184
f 180 219 220
f 182 222 183
f 182 184 220
f 182 220 223
f 182 223 222
f 183 224 186
f 183 186 185
f 183 222 225
f 245 292 246
f 186 224 270
f 186 270 226
f 186 226 227
f 186 227 228
f 189 230 231
f 246 292 293
f 263 305 306
f 247 293 257
f 314 348 317
f 315 344 347
f 315 347 346
f 316 317 348
f 316 348 345
f 318 349 319
f 318 326 349
f 319 350 364
f 314 346 348
f 319 364 351
f 319 349 350
f 320 351 321
f 321 351 322
f 322 351 364
f 322 364 352
f 322 352 323
f 323 353 327
f 323 352 337
f 319 351 320
f 314 315 346
f 313 345 325
f 313 316 345
f 300 335 301
f 301 336 303
f 301 303 302
f 301 335 336
f 303 336 337
f 303 337 338
f 303 338 339
f 303 339 304
f 304 340 305
f 304 339 340
f 305 340 341
f 305 341 342
f 305 342 306
f 307 342 343
f 307 343 308
f 308 343 344
f 308 344 315
f 308 315 309
f 312 316 313
f 323 337 336
f 323 336 354
f 323 354 355
f 323 355 353
f 341 361 348
f 341 348 362
f 341 362 342
f 342 362 343
f 343 346 347
f 343 347 344
f 343 362 348
f 343 348 346
f 345 348 349
f 345 349 356
f 348 361 350
f 348 350 363
f 348 363 349
f 349 363 350
f 350 360 364
f 352 364 359
f 354 358 355
f 355 358 357
f 359 364 360
f 341 350 361
f 300 334 335
f 341 360 350
f 340 359 360
f 325 345 356
f 325 356 326
f 326 356 349
f 327 353 355
f 327 355 330
f 327 330 328
f 330 355 357
f 330 357 333
f 330 333 331
f 331 333 332
f 333 357 334
f 334 357 335
f 335 357 358
f 335 358 336
f 336 358 354
f 337 339 338
f 337 352 339
f 339 352 359
f 339 359 340
f 340 360 341
f 246 293 247
f 299 334 300
f 296 334 299
f 261 302 262
f 262 302 303
f 262 303 304
f 262 304 305
f 262 305 263
f 152 191 192
f 263 306 264
f 264 306 307
f 261 301 302
f 264 307 308
f 264 309 310
f 264 310 265
f 265 310 266
f 266 310 271
f 266 271 269
f 267 311 282
f 268 312 313
f 268 313 311
f 264 308 309
f 261 300 301
f 260 299 300
f 260 300 261
f 247 257 249
f 248 289 290
f 249 257 256
f 250 294 295
f 250 295 296
f 250 296 251
f 250 253 257
f 250 257 294
f 251 254 252
f 251 296 297
f 251 297 298
f 251 298 254
f 255 298 259
f 255 259 258
f 257 293 332
f 257 332 294
f 259 298 297
f 259 297 299
f 259 299 260
f 270 271 315
f 270 315 314
f 271 310 309
f 271 309 315
f 286 325 326
f 286 326 318
f 286 318 324
f 287 323 327
f 287 327 288
f 288 327 328
f 288 328 329
f 288 329 289
f 289 329 290
f 291 329 328
f 291 328 330
f 291 330 292
f 292 330 331
f 292 331 332
f 292 332 293
f 294 332 333
f 294 333 295
f 295 333 334
f 295 334 296
f 286 313 325
f 296 299 297
f 286 311 313
f 285 286 324
f 272 316 273
f 272 314 317
f 272 317 316
f 273 316 312
f 274 285 318
f 274 318 275
f 275 318 319
f 275 319 320
f 275 320 321
f 275 321 277
f 275 277 276
f 277 321 322
f 278 322 280
f 278 280 279
f 280 322 323
f 280 323 287
f 282 311 283
f 283 311 286
f 284 286 285
f 285 324 318
f 152 229 191
f 306 342 307
f 150 152 189
f 36 53 54
f 36 54 37
f 37 54 39
f 38 39 55
f 38 55 40
f 39 54 55
f 40 55 56
f 40 56 42
f 34 52 53
f 41 45 62
f 42 56 44
f 44 56 59
f 44 59 58
f 45 58 60
f 45 60 61
f 45 61 62
f 46 63 64
f 47 65 66
f 41 62 57
f 34 36 35
f 34 53 36
f 33 51 52
f 21 37 39
f 21 39 38
f 22 38 40
f 22 40 24
f 23 26 45
f 23 45 41
f 24 40 42
f 24 42 43
f 24 43 25
f 26 43 42
f 26 42 44
f 26 44 58
f 26 58 45
f 29 47 48
f 29 48 49
f 29 49 30
f 30 49 50
f 30 50 31
f 33 50 51
f 47 66 67
f 47 67 68
f 47 68 48
f 48 68 50
f 60 80 61
f 60 78 81
f 60 81 80
f 61 80 82
f 61 82 62
f 62 82 83
f 62 83 77
f 63 84 85
f 63 85 86
f 63 86 64
f 65 87 88
f 65 88 66
f 66 88 124
f 66 124 89
f 66 89 90
f 66 90 67
f 67 90 91
f 67 91 69
f 69 91 92
f 59 79 78
f 21 38 22
f 59 76 79
f 58 59 60
f 48 50 49
f 50 68 67
f 50 67 69
f 50 69 70
f 50 70 71
f 50 71 51
f 51 71 52
f 52 71 72
f 52 72 53
f 53 72 54
f 54 72 73
f 54 73 74
f 54 74 76
f 54 76 75
f 54 75 56
f 54 56 55
f 56 75 76
f 56 76 59
f 57 62 77
f 59 78 60
f 69 92 70
f 19 21 20
f 19 36 37
f 1 27 15
f 1 15 7
f 1 7 3
f 1 3 8
f 1 8 9
f 1 9 4
f 1 4 6
f 1 6 2
f 1 28 27
f 2 6 5
f 4 9 10
f 4 10 6
f 5 6 12
f 5 12 13
f 5 13 14
f 5 14 11
f 6 10 12
f 7 15 8
f 3 7 8
f 1 63 46
f 1 84 63
f 1 110 84
f 152 188 229
f 1 2 5
f 1 5 11
f 1 11 23
f 1 23 41
f 1 41 57
f 1 57 77
f 1 77 103
f 1 103 140
f 1 140 181
f 1 181 221
f 1 221 267
f 1 267 282
f 1 282 236
f 1 236 235
f 1 235 229
f 1 229 188
f 1 188 149
f 1 149 110
f 8 15 16
f 8 16 28
f 8 28 46
f 8 46 64
f 12 24 25
f 12 25 13
f 13 25 14
f 14 25 43
f 14 43 26
f 15 27 16
f 16 27 28
f 17 29 30
f 17 30 31
f 17 31 32
f 17 32 19
f 17 19 18
f 19 32 31
f 19 31 50
f 19 50 33
f 19 33 52
f 19 52 34
f 19 34 35
f 19 35 36
f 12 22 24
f 19 37 21
f 11 26 23
f 10 22 12
f 8 64 86
f 8 86 118
f 8 118 156
f 8 156 198
f 8 198 205
f 8 205 163
f 8 163 122
f 8 122 87
f 8 87 65
f 8 65 47
f 8 47 29
f 8 29 17
f 8 17 18
f 8 18 9
f 9 18 19
f 9 19 20
f 9 20 10
f 10 20 21
f 10 21 22
f 11 14 26
f 70 92 130
f 1 46 28
f 70 93 95
f 119 159 160
f 119 160 161
f 119 161 120
f 120 161 204
f 120 204 162
f 120 162 157
f 120 157 121
f 122 163 123
f 119 155 159
f 123 163 165
f 123 210 164
f 124 164 166
f 124 166 127
f 125 127 129
f 127 166 167
f 127 167 168
f 127 168 129
f 129 168 167
f 123 165 210
f 118 158 156
f 118 157 158
f 118 121 157
f 107 146 147
f 107 147 108
f 108 147 109
f 109 147 148
f 109 148 181
f 109 181 140
f 110 149 111
f 111 150 151
f 111 149 152
f 111 152 150
f 112 151 153
f 112 153 114
f 112 114 113
f 114 153 193
f 114 193 154
f 114 154 115
f 116 154 155
f 116 155 119
f 116 119 117
f 129 167 169
f 129 169 130
f 130 169 170
f 130 170 131
f 143 185 145
f 144 180 184
f 144 184 182
f 146 185 186
f 146 186 147
f 147 186 187
f 147 187 148
f 148 228 227
f 148 227 273
f 148 273 312
f 148 312 268
f 148 268 221
f 148 221 181
f 149 188 152
f 150 189 232
f 150 232 190
f 150 190 153
f 70 130 93
f 150 153 151
f 143 183 185
f 107 185 146
f 143 182 183
f 142 144 182
f 131 134 132
f 131 170 171
f 131 171 134
f 134 171 170
f 134 170 172
f 134 172 173
f 134 173 135
f 135 173 175
f 135 175 216
f 135 216 176
f 135 176 177
f 135 177 174
f 136 174 177
f 136 177 178
f 136 178 179
f 137 180 138
f 137 179 180
f 138 180 144
f 138 144 139
f 142 182 143
f 107 145 185
f 148 187 228
f 107 141 143
f 81 104 141
f 81 141 107
f 81 107 106
f 82 106 108
f 82 108 83
f 83 108 109
f 83 109 140
f 83 140 103
f 80 106 82
f 84 110 111
f 85 111 151
f 85 151 112
f 85 112 113
f 85 113 114
f 85 114 115
f 85 115 154
f 85 154 116
f 85 116 117
f 84 111 85
f 80 81 106
f 78 105 104
f 78 139 105
f 70 94 71
f 107 143 145
f 70 95 94
f 71 94 72
f 72 94 95
f 72 95 96
f 72 96 74
f 72 74 73
f 74 97 76
f 76 97 98
f 76 98 99
f 76 99 100
f 76 100 101
f 76 101 102
f 76 102 79
f 77 83 103
f 78 104 81
f 78 79 102
f 78 102 139
f 85 117 86
f 86 117 119
f 74 96 97
f 86 120 121
f 98 133 132
f 98 132 99
f 99 132 134
f 99 134 100
f 100 134 135
f 100 135 174
f 100 174 136
f 100 136 101
f 101 137 138
f 101 138 102
f 101 136 179
f 101 179 137
f 102 138 139
f 104 144 142
f 104 142 143
f 106 107 108
f 104 143 141
f 86 119 120
f 105 139 144
f 97 133 98
f 95 97 96
f 104 105 144
f 89 125 128
f 95 133 97
f 88 123 164
f 88 164 124
f 87 123 88
f 89 128 126
f 89 126 90
f 86 121 118
f 89 124 127
f 89 127 125
f 90 126 91
f 87 122 123
f 93 133 95
f 91 128 92
f 92 128 125
f 92 125 129
f 92 129 130
f 93 130 131
f 93 131 132
f 91 126 128
f 93 132 133

