o convex_0
v 0.180871 0.266267 -0.0213978
v 0.352459 0.232821 -0.0213978
v 0.148962 0.266267 -0.0213978
v 0.76973 0.205706 0.0780253
v 0.780301 0.216327 0.0567621
v 0.776778 0.223425 0.0425689
v 0.755537 0.234098 0.0106564
v 0.776778 0.234098 7.10953e-06
v 0.787447 0.230523 -0.00708062
v 0.792732 0.228787 -0.00796659
v 0.787447 0.223425 -0.0106245
v 0.830025 0.12763 -0.0213978
v -0.0235064 0.210404 -0.0213978
v -0.0235064 0.228991 -0.00872852
v -0.0235064 0.230523 -0.00708062
v -0.0235064 0.233332 -0.00153448
v -0.0235064 0.234098 7.10953e-06
v -0.0235064 0.234098 0.0106564
v -0.0235064 0.223425 0.0425689
v -0.0235064 0.221127 0.0472114
v -0.0235064 0.219902 0.0496744
v -0.0235064 0.210506 0.0684923
v -0.0235064 0.208668 0.0721602
v -0.0235064 0.205706 0.0780253
v 0.79097 0.195085 0.0886746
v 0.80164 0.205706 0.0674114
v 0.792732 0.218115 0.0479024
v 0.814071 0.218115 0.0372531
v 0.798018 0.223425 0.0319373
v 0.819356 0.223425 0.0106564
v 0.785685 0.23231 -0.00176482
v 0.830025 0.219902 -0.00708062
v 0.835311 0.218115 -0.00796659
v 0.830025 0.212804 -0.0106245
v 0.830221 0.127579 -0.0213978
v -0.0235064 -0.190954 -0.0213978
v -0.0235064 0.195085 0.0886746
v 0.79097 0.173792 0.109955
v 0.82288 0.195085 0.0780253
v 0.814071 0.207493 0.058534
v 0.835311 0.207493 0.0479024
v 0.84598 0.207493 0.0372531
v 0.824642 0.218115 0.0266038
v 0.817594 0.221689 0.0195161
v 0.806925 0.221689 0.0301654
v 0.835311 0.218115 0.0053229
v 0.828264 0.221689 -0.00176482
v 0.856551 0.207493 -0.00796659
v 0.851266 0.202183 -0.0106245
v 0.838248 0.125332 -0.0213978
v -0.0235064 -0.202188 -0.0212738
v -0.0206678 -0.201576 -0.0213978
v -0.0235064 0.173792 0.109955
v 0.780301 0.141877 0.131236
v 0.80164 0.152498 0.120587
v 0.821118 0.129469 0.129464
v 0.821118 0.161383 0.108184
v 0.82288 0.173792 0.0993062
v 0.835311 0.196821 0.0691656
v 0.844218 0.173792 0.0886746
v 0.865459 0.173792 0.0780253
v 0.87789 0.175579 0.0691656
v 0.87789 0.1862 0.0479024
v 0.867221 0.196821 0.0372531
v 0.876128 0.195085 0.0248319
v 0.85479 0.205706 0.0248319
v 0.856551 0.207493 0.0053229
v 0.863697 0.203919 0.00177904
v 0.897368 0.184413 0.00355097
v 0.890321 0.187987 -0.00353676
v 0.888559 0.1862 -0.00796659
v 0.883175 0.180889 -0.0106245
v 0.904514 0.159596 -0.0106245
v 0.925754 0.138303 -0.0106245
v 0.925754 -0.0425641 -0.0212738
v 0.936423 -0.0638064 -0.0212738
v 0.92546 -0.0641128 -0.0213978
v -0.0235064 -0.204486 -0.020122
v 0.20221 -0.244724 -0.0212738
v 0.12684 -0.226546 -0.0213978
v -0.0235064 0.141877 0.131236
v 0.776778 0.127681 0.138324
v 0.812211 0.131205 0.131236
v -0.0235064 0.136005 0.134178
v 0.824642 0.122371 0.133008
v 0.856551 0.122371 0.122377
v 0.844218 0.163119 0.0993062
v 0.865459 0.163119 0.0886746
v 0.87789 0.154285 0.0904465
v 0.888559 0.154285 0.0797972
v 0.888559 0.164907 0.0691656
v 0.909799 0.164907 0.0372531
v 0.886699 0.184413 0.0354812
v 0.874366 0.193298 0.0337093
v 0.908037 0.173792 0.0142003
v 0.908037 0.173792 0.00355097
v 0.92223 0.156073 -0.00353676
v 0.920468 0.154285 -0.00796659
v 0.93104 0.143613 -0.00796659
v 0.941709 0.122371 -0.00796659
v 0.947092 0.0957667 -0.0106245
v 0.957664 0.0744733 -0.0106245
v 0.968333 0.0212652 -0.0106245
v 0.936423 -0.0850999 -0.0212738
v 0.92546 -0.0744787 -0.0213978
v -0.0235064 -0.209235 -0.0177299
v 0.205831 -0.251822 -0.0177299
v 0.5539 -0.244162 -0.0213978
v 0.744868 -0.244724 -0.0212738
v 0.787447 0.0957667 0.148973
v 0.808687 0.117009 0.138324
v -0.0235064 0.127681 0.138324
v 0.808687 0.0850945 0.148973
v 0.824642 0.0904051 0.143658
v 0.835311 0.0797839 0.143658
v 0.84598 0.101077 0.133008
v 0.856551 0.0904051 0.133008
v 0.87789 0.0904051 0.122377
v 0.87789 0.122371 0.111727
v 0.856551 0.154285 0.101078
v 0.888559 0.143613 0.0904465
v 0.909799 0.132992 0.0797972
v 0.909799 0.143613 0.0691656
v 0.93104 0.132992 0.0479024
v 0.929278 0.141877 0.0354812
v 0.918707 0.163119 0.0142003
v 0.918707 0.163119 0.00355097
v 0.9329 0.1454 -0.00353676
v 0.963047 0.0797839 -0.00796659
v 0.973618 0.0265758 -0.00796659
v 0.968333 0.010593 -0.0106245
v 0.943471 -0.0850999 -0.0177299
v 0.9329 -0.127687 -0.0177299
v 0.925754 -0.127687 -0.0212738
v 0.925265 -0.0850999 -0.0213978
v -0.0235064 -0.212809 -0.0106245
v 0.20221 -0.255396 -0.0106245
v 0.748392 -0.251822 -0.0177299
v 0.576707 -0.242579 -0.0213978
v 0.606561 -0.239465 -0.0213978
v 0.616838 -0.238188 -0.0213978
v 0.819356 -0.234103 -0.0212738
v 0.766108 0.063801 0.159623
v -0.0235064 0.0957667 0.148973
v 0.819356 0.0744733 0.148973
v 0.817594 0.0833583 0.147202
v 0.828264 0.0726861 0.147202
v 0.830025 0.063801 0.148973
v 0.867221 0.0691627 0.133008
v 0.888559 0.0691627 0.122377
v 0.888559 0.101077 0.111727
v 0.908037 0.0992901 0.0993062
v 0.89913 0.111699 0.101078
v 0.918707 0.0992901 0.0886746
v 0.929278 0.0992901 0.0780253
v 0.93104 0.111699 0.0691656
v 0.93104 0.122371 0.058534
v 0.941709 0.122371 0.0372531
v 0.938185 0.129469 0.0337093
v 0.939947 0.131205 0.0248319
v 0.929278 0.152498 0.00355097
v 0.947092 0.117009 0.021288
v 0.964809 0.0815711 -0.00353676
v 0.964809 0.0744733 -0.00708062
v 0.97538 0.0212652 -0.00708062
v 0.97538 0.010593 -0.00708062
v 0.964809 -0.0425641 -0.00708062
v 0.944352 -0.0904105 -0.015958
v 0.93378 -0.132997 -0.015958
v 0.911561 -0.202188 -0.0177299
v 0.904514 -0.202188 -0.0212738
v 0.914596 -0.106393 -0.0213978
v -0.0235064 -0.210052 -0.00507834
v 0.744868 -0.255396 -0.0106245
v 0.20221 -0.251822 -0.00353676
v -0.0235064 -0.163942 0.0871153
v -0.0235064 -0.173797 0.0674114
v 0.82288 -0.241201 -0.0177299
v 0.617132 -0.238137 -0.0213978
v 0.893845 -0.223431 -0.0212738
v 0.787447 0.0425587 0.159623
v -0.0235064 0.063801 0.159623
v 0.798018 0.0318864 0.159623
v 0.840597 0.0318864 0.148973
v 0.861935 0.0531798 0.138324
v 0.876128 0.0567543 0.131236
v 0.897368 0.0567543 0.120587
v 0.908037 0.0673755 0.109955
v 0.918707 0.0779967 0.0993062
v 0.906276 0.0762605 0.108184
v 0.929278 0.0779967 0.0886746
v 0.938185 0.0975029 0.0656395
v 0.941709 0.101077 0.058534
v 0.952378 0.101077 0.0372531
v 0.950616 0.109911 0.0248319
v 0.968333 0.0744733 7.10953e-06
v 0.97538 0.0176908 -0.00353676
v 0.976261 0.00533343 -0.00530869
v 0.968333 0.063801 0.021288
v 0.96569 -0.0478747 -0.00530869
v 0.912442 -0.207499 -0.015958
v 0.905786 -0.212809 -0.0186159
v 0.872506 -0.148521 -0.0213978
v 0.893845 -0.234103 -0.0106245
v 0.89913 -0.231448 -0.00530869
v 0.750154 -0.25269 -0.00530869
v 0.744868 -0.251822 -0.00353676
v -0.0235064 -0.163125 0.0886746
v 0.897368 -0.230529 -0.0177299
v 0.787349 -0.180435 -0.0213978
v -0.0235064 -0.0318918 0.159623
v 0.798018 0.010593 0.159623
v 0.806925 0.019478 0.157833
v 0.840597 0.010593 0.148973
v 0.847742 0.028363 0.14543
v 0.890321 0.0496565 0.124149
v 0.897368 -0.00707498 0.120587
v 0.929278 0.0247886 0.0993062
v 0.939947 0.0247886 0.0886746
v 0.939947 0.0673755 0.0780253
v 0.938185 0.0762605 0.0762533
v 0.948854 0.0868817 0.0549902
v 0.952378 0.0904051 0.0479024
v 0.957664 0.0957667 0.021288
v 0.968333 0.0425587 0.0319373
v 0.968333 -0.0105984 0.0319373
v 0.968333 -0.0212706 0.021288
v 0.968333 -0.0318918 0.0106564
v 0.963047 0.0584904 0.0372531
v 0.915085 -0.202188 -0.0106245
v 0.904514 -0.223431 -0.0106245
v 0.901773 -0.228792 -0.015958
v 0.900892 -0.230529 -0.0106245
v 0.909799 -0.210154 -0.00530869
v 0.900892 -0.227005 -0.00353676
v 0.888559 -0.0877552 0.101078
v 0.87789 -0.0984274 0.101078
v 0.867221 -0.109049 0.101078
v 0.824642 -0.11967 0.111727
v 0.808687 -0.13121 0.109955
v 0.755537 -0.141882 0.109955
v 0.755537 -0.163125 0.0886746
v 0.819356 -0.241201 -0.00353676
v -0.0235064 -0.141882 0.109955
v -0.0235064 -0.0638064 0.148973
v 0.755537 -0.0318918 0.159623
v 0.787447 -0.0105984 0.159623
v 0.830025 -0.0212706 0.148973
v 0.808687 0.00926531 0.156947
v 0.847742 0.00706958 0.14543
v 0.861935 -0.0105984 0.138324
v 0.890321 -0.0141728 0.124149
v 0.908037 -0.0176962 0.109955
v 0.929278 0.0141674 0.0993062
v 0.939947 -0.0283684 0.0780253
v 0.950616 -0.00707498 0.0674114
v 0.947092 0.0212652 0.0744814
v 0.950616 0.046082 0.0674114
v 0.950616 0.0779967 0.0567621
v 0.964809 0.0389842 0.039025
v 0.961187 0.046082 0.0461305
v 0.964809 -0.0141728 0.039025
v 0.96569 -0.0225983 0.0319373
v 0.96569 -0.0332195 0.021288
v 0.957664 -0.0638064 0.0106564
v 0.955021 -0.0651341 0.021288
v 0.911561 -0.205712 -0.00353676
v 0.920468 -0.0877552 0.0691656
v 0.909799 -0.077134 0.0904465
v 0.888559 -0.0664617 0.111727
v 0.87789 -0.077134 0.111727
v 0.84598 -0.0877552 0.122377
v 0.819356 -0.118342 0.114385
v 0.798018 -0.0992955 0.131236
v 0.787447 -0.120589 0.120587
v 0.787447 -0.113491 0.124149
v -0.0235064 -0.079585 0.141106
v -0.0235064 -0.0653894 0.148194
v 0.776778 -0.0638064 0.148973
v 0.776778 -0.0212706 0.159623
v 0.808687 -0.0425641 0.148973
v 0.819356 -0.0438917 0.146316
v 0.830025 -0.0332195 0.146316
v 0.858411 -0.0354662 0.13478
v 0.868982 -0.0141728 0.13478
v 0.890321 -0.0567086 0.113499
v 0.918707 -0.0283684 0.0993062
v 0.941709 -0.0452194 0.0691656
v 0.943471 -0.0354662 0.0709375
v 0.95414 -0.0141728 0.060306
v 0.95414 -0.0354662 0.0496744
v 0.963047 -0.0239259 0.0372531
v 0.952378 -0.0452194 0.0479024
v 0.955021 -0.0438917 0.0425689
v 0.955021 -0.0545129 0.0319373
v 0.943471 -0.0673809 0.0496744
v 0.867221 -0.0664617 0.122377
v 0.837073 -0.0673809 0.13478
v 0.840597 -0.0864275 0.125035
v 0.808687 -0.0864275 0.135666
v 0.798018 -0.0850999 0.138324
v 0.776778 -0.0780021 0.141886
v 0.798018 -0.0531853 0.148973
v 0.808687 -0.0545129 0.146316
v 0.830025 -0.0638064 0.138324
v 0.851266 -0.0438917 0.135666
v 0.856551 -0.0452194 0.133008
v 0.868982 -0.0567086 0.124149
v 0.861935 -0.0651341 0.125035
f 1 2 12
f 1 12 35
f 1 35 50
f 1 50 77
f 1 77 105
f 1 105 135
f 1 135 172
f 1 172 203
f 1 203 210
f 1 210 179
f 1 179 141
f 1 141 140
f 1 140 139
f 1 139 108
f 1 108 80
f 1 80 52
f 1 52 36
f 1 36 13
f 1 13 3
f 1 3 24
f 1 24 4
f 1 4 5
f 1 5 6
f 1 6 7
f 1 7 8
f 1 8 9
f 1 9 10
f 1 10 11
f 1 11 2
f 2 11 12
f 3 13 14
f 3 14 15
f 3 15 16
f 3 16 17
f 3 17 18
f 3 18 19
f 3 19 20
f 3 20 21
f 3 21 22
f 3 22 23
f 3 23 24
f 4 25 26
f 4 26 5
f 4 24 37
f 4 37 25
f 5 26 27
f 5 27 6
f 6 27 28
f 6 28 29
f 6 29 7
f 7 29 8
f 8 29 30
f 8 30 31
f 8 31 9
f 9 31 47
f 9 47 32
f 9 32 10
f 10 32 33
f 10 33 34
f 10 34 11
f 11 34 12
f 12 34 35
f 13 36 51
f 13 51 78
f 13 78 106
f 13 106 136
f 13 136 173
f 13 173 177
f 13 177 176
f 13 176 208
f 13 208 244
f 13 244 277
f 13 277 278
f 13 278 245
f 13 245 211
f 13 211 182
f 13 182 144
f 13 144 112
f 13 112 84
f 13 84 81
f 13 81 53
f 13 53 37
f 13 37 24
f 13 24 23
f 13 23 22
f 13 22 21
f 13 21 20
f 13 20 19
f 13 19 18
f 13 18 17
f 13 17 16
f 13 16 15
f 13 15 14
f 25 38 58
f 25 58 39
f 25 39 26
f 25 37 53
f 25 53 38
f 26 39 40
f 26 40 27
f 27 40 28
f 28 40 41
f 28 41 42
f 28 42 43
f 28 43 44
f 28 44 45
f 28 45 29
f 29 45 30
f 30 44 43
f 30 43 42
f 30 42 46
f 30 46 47
f 30 47 31
f 30 45 44
f 32 47 33
f 33 47 48
f 33 48 49
f 33 49 34
f 34 49 50
f 34 50 35
f 36 52 51
f 38 54 55
f 38 55 56
f 38 56 57
f 38 57 58
f 38 53 81
f 38 81 54
f 39 59 40
f 39 58 60
f 39 60 61
f 39 61 62
f 39 62 59
f 40 59 41
f 41 59 62
f 41 62 42
f 42 62 63
f 42 63 64
f 42 64 65
f 42 65 66
f 42 66 46
f 46 66 65
f 46 65 67
f 46 67 47
f 47 67 68
f 47 68 48
f 48 68 69
f 48 69 70
f 48 70 71
f 48 71 49
f 49 71 72
f 49 72 50
f 50 72 73
f 50 73 74
f 50 74 75
f 50 75 76
f 50 76 77
f 51 52 79
f 51 79 78
f 52 80 79
f 54 82 111
f 54 111 83
f 54 83 55
f 54 81 84
f 54 84 82
f 55 83 56
f 56 83 85
f 56 85 86
f 56 86 57
f 57 87 58
f 57 86 87
f 58 87 60
f 60 87 88
f 60 88 61
f 61 88 89
f 61 89 62
f 62 89 90
f 62 90 91
f 62 91 92
f 62 92 63
f 63 92 93
f 63 93 65
f 63 65 94
f 63 94 64
f 64 94 65
f 65 68 67
f 65 93 95
f 65 95 69
f 65 69 68
f 69 95 96
f 69 96 70
f 70 96 97
f 70 97 98
f 70 98 71
f 71 73 72
f 71 98 73
f 73 98 74
f 74 98 99
f 74 99 100
f 74 100 101
f 74 101 76
f 74 76 75
f 76 101 102
f 76 102 103
f 76 103 131
f 76 131 104
f 76 104 105
f 76 105 77
f 78 79 106
f 79 107 106
f 79 80 108
f 79 108 109
f 79 109 138
f 79 138 107
f 82 110 111
f 82 84 112
f 82 112 144
f 82 144 110
f 83 111 85
f 85 111 113
f 85 113 114
f 85 114 115
f 85 115 116
f 85 116 86
f 86 117 118
f 86 118 119
f 86 119 89
f 86 89 120
f 86 120 87
f 86 116 117
f 87 120 89
f 87 89 88
f 89 119 121
f 89 121 90
f 90 121 122
f 90 122 123
f 90 123 91
f 91 123 92
f 92 123 124
f 92 124 125
f 92 125 126
f 92 126 95
f 92 95 93
f 95 126 127
f 95 127 96
f 96 127 128
f 96 128 97
f 97 128 98
f 98 128 99
f 99 128 100
f 100 129 101
f 100 128 129
f 101 129 102
f 102 129 103
f 103 130 165
f 103 165 166
f 103 166 131
f 103 129 130
f 104 131 166
f 104 166 132
f 104 132 133
f 104 133 134
f 104 134 135
f 104 135 105
f 106 107 137
f 106 137 136
f 107 138 174
f 107 174 137
f 108 139 109
f 109 139 140
f 109 140 141
f 109 141 142
f 109 142 178
f 109 178 138
f 110 143 113
f 110 113 111
f 110 144 182
f 110 182 143
f 113 145 146
f 113 146 114
f 113 143 181
f 113 181 145
f 114 146 115
f 115 146 147
f 115 147 148
f 115 148 185
f 115 185 149
f 115 149 117
f 115 117 116
f 117 149 150
f 117 150 118
f 118 150 119
f 119 150 151
f 119 151 189
f 119 189 152
f 119 152 153
f 119 153 122
f 119 122 121
f 122 152 154
f 122 154 155
f 122 155 156
f 122 156 157
f 122 157 124
f 122 124 123
f 122 153 152
f 124 157 158
f 124 158 159
f 124 159 125
f 125 159 160
f 125 160 126
f 126 160 161
f 126 161 127
f 127 161 128
f 128 161 160
f 128 160 162
f 128 162 163
f 128 163 129
f 129 163 164
f 129 164 165
f 129 165 130
f 132 166 167
f 132 167 200
f 132 200 168
f 132 168 169
f 132 169 133
f 133 169 201
f 133 201 170
f 133 170 171
f 133 171 134
f 134 171 135
f 135 171 172
f 136 137 173
f 137 174 207
f 137 207 175
f 137 175 176
f 137 176 177
f 137 177 173
f 138 178 174
f 141 179 180
f 141 180 142
f 142 180 209
f 142 209 178
f 143 182 211
f 143 211 246
f 143 246 280
f 143 280 247
f 143 247 212
f 143 212 183
f 143 183 181
f 145 148 147
f 145 147 146
f 145 181 148
f 148 181 183
f 148 183 184
f 148 184 185
f 149 185 186
f 149 186 150
f 150 187 188
f 150 188 189
f 150 189 190
f 150 190 151
f 150 186 187
f 151 190 189
f 152 189 154
f 154 189 191
f 154 191 155
f 155 191 192
f 155 192 156
f 156 192 193
f 156 193 157
f 157 193 194
f 157 194 158
f 158 194 195
f 158 195 160
f 158 160 159
f 160 195 162
f 162 195 196
f 162 196 163
f 163 196 164
f 164 196 165
f 165 197 198
f 165 198 166
f 165 196 199
f 165 199 197
f 166 198 200
f 166 200 167
f 168 200 169
f 169 200 201
f 170 201 202
f 170 202 171
f 171 202 180
f 171 180 172
f 172 180 203
f 174 178 204
f 174 204 205
f 174 205 206
f 174 206 207
f 175 208 176
f 175 207 242
f 175 242 208
f 178 209 204
f 179 210 180
f 180 202 209
f 180 210 203
f 183 212 213
f 183 213 184
f 184 213 214
f 184 214 250
f 184 250 215
f 184 215 185
f 185 215 186
f 186 215 216
f 186 216 187
f 187 216 252
f 187 252 217
f 187 217 254
f 187 254 218
f 187 218 188
f 188 218 189
f 189 218 219
f 189 219 191
f 191 219 220
f 191 220 221
f 191 221 192
f 192 221 222
f 192 222 193
f 193 222 223
f 193 223 194
f 194 223 199
f 194 199 224
f 194 224 195
f 195 224 196
f 196 224 199
f 197 199 225
f 197 225 198
f 198 225 226
f 198 226 227
f 198 227 228
f 198 228 200
f 199 229 225
f 199 223 229
f 200 228 230
f 200 230 201
f 201 230 231
f 201 231 232
f 201 232 202
f 202 232 209
f 204 209 232
f 204 232 233
f 204 233 205
f 205 233 231
f 205 231 234
f 205 234 267
f 205 267 235
f 205 235 236
f 205 236 237
f 205 237 238
f 205 238 239
f 205 239 240
f 205 240 241
f 205 241 242
f 205 242 243
f 205 243 207
f 205 207 206
f 207 243 242
f 208 242 241
f 208 241 244
f 211 245 279
f 211 279 246
f 212 247 248
f 212 248 249
f 212 249 213
f 213 249 214
f 214 249 248
f 214 248 251
f 214 251 250
f 215 250 252
f 215 252 216
f 217 253 254
f 217 252 253
f 218 254 219
f 219 255 256
f 219 256 257
f 219 257 258
f 219 258 220
f 219 254 255
f 220 258 259
f 220 259 222
f 220 222 221
f 222 259 223
f 223 259 229
f 225 260 262
f 225 262 226
f 225 229 259
f 225 259 261
f 225 261 258
f 225 258 260
f 226 262 263
f 226 263 227
f 227 263 228
f 228 263 264
f 228 264 266
f 228 266 265
f 228 265 230
f 230 265 266
f 230 266 267
f 230 267 234
f 230 234 231
f 231 233 232
f 235 267 268
f 235 268 269
f 235 269 236
f 236 270 271
f 236 271 237
f 236 269 270
f 237 271 272
f 237 272 238
f 238 272 239
f 239 272 273
f 239 273 240
f 240 273 300
f 240 300 274
f 240 274 275
f 240 275 241
f 241 275 276
f 241 276 277
f 241 277 244
f 245 278 279
f 246 279 303
f 246 303 280
f 247 280 248
f 248 280 281
f 248 281 282
f 248 282 283
f 248 283 284
f 248 284 251
f 250 251 252
f 251 284 285
f 251 285 252
f 252 286 287
f 252 287 253
f 252 285 284
f 252 284 286
f 253 287 254
f 254 287 255
f 255 288 289
f 255 289 256
f 255 287 269
f 255 269 288
f 256 289 290
f 256 290 262
f 256 262 257
f 257 262 260
f 257 260 258
f 258 261 259
f 262 290 291
f 262 291 293
f 262 293 292
f 262 292 263
f 263 292 293
f 263 293 294
f 263 294 295
f 263 295 266
f 263 266 264
f 266 295 267
f 267 295 294
f 267 294 296
f 267 296 288
f 267 288 268
f 268 288 269
f 269 287 270
f 270 286 308
f 270 308 297
f 270 297 272
f 270 272 271
f 270 287 286
f 272 298 299
f 272 299 273
f 272 297 298
f 273 299 300
f 274 301 279
f 274 279 302
f 274 302 276
f 274 276 275
f 274 300 301
f 276 302 277
f 277 302 279
f 277 279 278
f 279 301 303
f 280 303 281
f 281 303 304
f 281 304 282
f 282 304 305
f 282 305 283
f 283 305 306
f 283 306 284
f 284 307 297
f 284 297 308
f 284 308 286
f 284 306 307
f 288 296 293
f 288 293 291
f 288 291 289
f 289 291 290
f 293 296 294
f 297 307 306
f 297 306 309
f 297 309 298
f 298 306 305
f 298 305 300
f 298 300 299
f 298 309 306
f 300 305 304
f 300 304 303
f 300 303 301
o convex_1
v 0.180925 0.276679 -0.0319379
v 0.180925 0.273107 -0.0390277
v 0.149028 0.276679 -0.0319379
v 0.177392 0.273107 -0.0248345
v 0.783912 0.230538 -0.0461176
v 0.776748 0.234111 -0.053221
v 0.744851 0.234111 -0.0638557
v 0.766148 0.223444 -0.0851388
v 0.766148 0.219922 -0.0922151
v 0.766148 0.216349 -0.0993185
v 0.149028 0.273107 -0.0390277
v 0.145495 0.273107 -0.0248345
v 0.143729 0.273974 -0.0372553
v -0.0236042 0.234111 -0.0638557
v -0.0236042 0.234111 -0.053221
v 0.180827 0.266267 -0.0213978
v 0.787445 0.223444 -0.0425727
v 0.826408 0.219922 -0.0461176
v 0.835339 0.218135 -0.04789
v 0.819342 0.223444 -0.053221
v 0.829941 0.22079 -0.0545469
v 0.819342 0.223444 -0.0638557
v 0.808742 0.223444 -0.074504
v 0.808742 0.219922 -0.0815939
v 0.808742 0.216349 -0.0886837
v 0.776748 0.205732 -0.109953
v -0.0236042 0.216349 -0.0993185
v 0.14893 0.266267 -0.0213978
v -0.0236042 0.230538 -0.0461176
v -0.0236042 0.210377 -0.0213978
v -0.0236042 0.219922 -0.0922151
v -0.0236042 0.227017 -0.0780489
v 0.35238 0.232835 -0.0213978
v 0.829941 0.12764 -0.0213978
v 0.829941 0.212827 -0.0425727
v 0.851238 0.212827 -0.053221
v 0.838872 0.211041 -0.0443451
v 0.865469 0.205732 -0.0496625
v 0.826408 0.219922 -0.0674006
v 0.819342 0.22079 -0.07583
v 0.824641 0.218135 -0.0771559
v 0.819342 0.205732 -0.0993185
v 0.819342 0.191543 -0.1104
v 0.808742 0.180876 -0.121035
v 0.798045 0.184448 -0.120602
v 0.776748 0.191543 -0.117057
v -0.0236042 0.205732 -0.109953
v -0.0236042 -0.183914 -0.0213978
v 0.838283 0.125343 -0.0213978
v 0.851238 0.20216 -0.0425727
v 0.858402 0.209254 -0.0567659
v 0.860169 0.200373 -0.0443451
v 0.897365 0.184448 -0.0496625
v 0.851238 0.210122 -0.0651817
v 0.856636 0.207468 -0.0665212
v 0.835339 0.207468 -0.0878042
v 0.856636 0.196851 -0.0878042
v 0.861935 0.184448 -0.0993185
v 0.861935 0.170259 -0.1104
v 0.829941 0.170259 -0.121035
v 0.845938 0.154283 -0.125026
v 0.829941 0.148975 -0.131683
v 0.803344 0.175567 -0.125026
v 0.798045 0.170259 -0.127691
v 0.787445 0.148975 -0.13834
v -0.0236042 0.191543 -0.117057
v -0.0236042 -0.191519 -0.053221
v -0.0235061 -0.190958 -0.0213978
v 0.925434 -0.064121 -0.0213978
v 0.957723 0.0744552 -0.0425727
v 0.936426 0.117023 -0.0425727
v 0.925728 0.138307 -0.0425727
v 0.915129 0.148975 -0.0425727
v 0.883232 0.180876 -0.0425727
v 0.890299 0.18797 -0.0567659
v 0.892065 0.179089 -0.0443451
v 0.908062 0.173781 -0.0496625
v 0.908062 0.173781 -0.0603108
v 0.888532 0.186184 -0.0665212
v 0.867235 0.196851 -0.0771559
v 0.877835 0.186184 -0.0878042
v 0.877835 0.175567 -0.0984255
v 0.867235 0.175567 -0.103743
v 0.888532 0.143616 -0.114391
v 0.851238 0.159591 -0.121035
v 0.824641 0.143616 -0.135674
v 0.861935 0.127691 -0.131683
v 0.856636 0.122332 -0.135674
v 0.792745 0.154283 -0.135674
v 0.819342 0.138307 -0.13834
v 0.766148 0.127691 -0.148974
v -0.0236042 0.148975 -0.13834
v -0.02066 -0.201574 -0.0213978
v -0.0236042 -0.191519 -0.074504
v 0.925434 -0.0744823 -0.0213978
v 0.968322 0.0212705 -0.0425727
v 0.964789 0.0709334 -0.0461176
v 0.955956 0.0833363 -0.0443451
v 0.932893 0.134786 -0.0461176
v 0.923962 0.147189 -0.0443451
v 0.913362 0.157805 -0.0443451
v 0.900898 0.177354 -0.0674006
v 0.918662 0.163164 -0.0496625
v 0.918662 0.163164 -0.0603108
v 0.909829 0.1649 -0.0771559
v 0.899131 0.175567 -0.0771559
v 0.888532 0.175567 -0.0878042
v 0.888532 0.1649 -0.0984255
v 0.893832 0.148975 -0.106408
v 0.904431 0.106407 -0.121035
v 0.872535 0.117023 -0.131683
v 0.920428 0.132999 -0.0984255
v 0.915129 0.117023 -0.1104
v 0.824641 0.111715 -0.146309
v 0.867235 0.111715 -0.135674
v 0.861935 0.106407 -0.13834
v 0.819342 0.106407 -0.148974
v 0.798045 0.117023 -0.148974
v 0.787445 0.0744552 -0.159623
v -0.0236042 0.127691 -0.148974
v 0.021345 -0.212803 -0.0319379
v 0.122432 -0.23276 -0.026607
v 0.122432 -0.228779 -0.0234138
v 0.126848 -0.226533 -0.0213978
v -0.0236042 -0.187997 -0.0815939
v 0.122432 -0.228779 -0.0372553
v 0.925237 -0.0850988 -0.0213978
v 0.975388 0.00713219 -0.0461176
v 0.968322 0.010654 -0.0425727
v 0.975388 0.0176977 -0.0461176
v 0.97902 0.0212705 -0.053221
v 0.968322 0.0744552 -0.053221
v 0.961256 0.0886446 -0.0496625
v 0.931126 0.143616 -0.04789
v 0.929261 0.152497 -0.0496625
v 0.932893 0.145402 -0.0567659
v 0.922195 0.15607 -0.0674006
v 0.920428 0.154283 -0.0771559
v 0.931126 0.132999 -0.0878042
v 0.909829 0.143616 -0.0984255
v 0.899131 0.101048 -0.125026
v 0.915129 0.0851227 -0.121035
v 0.929261 0.117023 -0.0993185
v 0.920428 0.122332 -0.103743
v 0.939959 0.0957393 -0.0993185
v 0.936426 0.0744552 -0.1104
v 0.909829 0.0797635 -0.125026
v 0.888532 0.0691469 -0.135674
v 0.883232 0.0638387 -0.13834
v 0.840639 0.0851227 -0.148974
v 0.798045 0.0638387 -0.159623
v -0.0236042 0.0744552 -0.159623
v 0.553866 -0.244142 -0.0213978
v 0.585272 -0.244755 -0.0319379
v -0.0236042 -0.184424 -0.0886837
v 0.588805 -0.241182 -0.0390277
v 0.914638 -0.106383 -0.0213978
v 0.965672 -0.0478389 -0.04789
v 0.964789 -0.0461035 -0.0461176
v 0.97902 0.010654 -0.053221
v 0.968322 0.0531711 -0.074504
v 0.968322 0.0638387 -0.0638557
v 0.961256 0.0531711 -0.0886837
v 0.965672 0.0638387 -0.07583
v 0.965672 0.0744552 -0.0651817
v 0.955073 0.0957393 -0.07583
v 0.957723 0.0957393 -0.0638557
v 0.957723 0.0957393 -0.053221
v 0.939959 0.131213 -0.0496625
v 0.931126 0.143616 -0.0665212
v 0.943492 0.124118 -0.0674006
v 0.941725 0.122332 -0.0771559
v 0.941725 0.111715 -0.0878042
v 0.931126 0.0691469 -0.114391
v 0.950558 0.0851227 -0.0886837
v 0.950558 0.0638387 -0.0993185
v 0.941725 0.0797635 -0.103743
v 0.939959 0.0638387 -0.109953
v 0.920428 0.0371953 -0.125026
v 0.899131 0.0371953 -0.135674
v 0.893832 0.0318871 -0.13834
v 0.861935 0.0425546 -0.148974
v 0.808742 0.0425546 -0.159623
v -0.0236042 -0.0425306 -0.159623
v 0.606471 -0.244755 -0.0319379
v 0.576733 -0.24256 -0.0213978
v -0.0236042 -0.173808 -0.0993185
v 0.610102 -0.241182 -0.0390277
v -0.0236042 -0.152524 -0.120602
v 0.909829 -0.135629 -0.04789
v 0.912479 -0.132975 -0.04789
v 0.941725 -0.0931122 -0.04789
v 0.943492 -0.0886717 -0.0461176
v 0.872535 -0.148492 -0.0213978
v 0.957723 -0.0638147 -0.053221
v 0.957723 -0.0638147 -0.0638557
v 0.968322 -0.0319141 -0.0638557
v 0.939959 -0.0992882 -0.053221
v 0.965672 -0.0372224 -0.0691731
v 0.965672 -0.0159383 -0.0798214
v 0.961256 -0.0106301 -0.0886837
v 0.954091 0.102834 -0.0674006
v 0.952325 0.101048 -0.0771559
v 0.929261 0.0318871 -0.120602
v 0.939959 -0.0212466 -0.109953
v 0.908062 0.0318871 -0.131236
v 0.893832 0.010654 -0.13834
v 0.861935 3.75017e-05 -0.148974
v 0.819342 0.0212705 -0.159623
v -0.0236042 -0.0850988 -0.148974
v 0.766148 -0.0425306 -0.159623
v 0.808742 -0.191519 -0.053221
v 0.814042 -0.188865 -0.04789
v 0.611868 -0.24205 -0.026607
v 0.801578 -0.187997 -0.0709456
v 0.798045 -0.191519 -0.0638557
v 0.810018 -0.188865 -0.0638557
v 0.606471 -0.239447 -0.0213978
v 0.762615 -0.152524 -0.120602
v 0.794512 -0.16314 -0.109953
v 0.794512 -0.173808 -0.0993185
v 0.773215 -0.184424 -0.0886837
v 0.780281 -0.187997 -0.0815939
v -0.0236042 -0.11705 -0.13834
v 0.908062 -0.13124 -0.074504
v 0.867235 -0.167581 -0.04789
v 0.876068 -0.16314 -0.053221
v 0.886766 -0.152524 -0.0638557
v 0.897365 -0.141856 -0.074504
v 0.918662 -0.120572 -0.074504
v 0.787347 -0.180443 -0.0213978
v 0.845938 -0.178197 -0.04789
v 0.955073 -0.069123 -0.0691731
v 0.940351 -0.0957663 -0.0638557
v 0.944375 -0.090407 -0.0585383
v 0.929752 -0.106383 -0.074504
v 0.955073 -0.0585065 -0.0798214
v 0.955073 -0.0372224 -0.0904562
v 0.961648 -0.0212466 -0.0851388
v 0.950558 -0.0319141 -0.0993185
v 0.929261 0.010654 -0.120602
v 0.929261 -0.0531982 -0.109953
v 0.918662 -0.0319141 -0.120602
v 0.908062 0.010654 -0.131236
v 0.883232 -0.0319141 -0.13834
v 0.851238 -0.0319141 -0.148974
v 0.808742 -0.0106301 -0.159623
v 0.787445 -0.0850988 -0.148974
v 0.787445 -0.0319141 -0.159623
v 0.840639 -0.180903 -0.053221
v 0.617168 -0.23812 -0.0213978
v 0.616776 -0.238171 -0.0213978
v 0.822875 -0.17733 -0.0815939
v 0.811392 -0.186211 -0.0691731
v 0.831315 -0.178197 -0.074504
v 0.841914 -0.178197 -0.0638557
v 0.776748 -0.11705 -0.13834
v 0.769682 -0.145429 -0.124146
v 0.801578 -0.156046 -0.113498
v 0.812275 -0.166713 -0.102863
v 0.801578 -0.17733 -0.0922151
v 0.907179 -0.122359 -0.0904562
v 0.869002 -0.166713 -0.053221
v 0.863211 -0.167581 -0.0638557
v 0.865469 -0.16314 -0.074504
v 0.891182 -0.143643 -0.0798214
v 0.893832 -0.138334 -0.0851388
v 0.896482 -0.132975 -0.0904562
v 0.917779 -0.111691 -0.0904562
v 0.923078 -0.111691 -0.0798214
v 0.951049 -0.0744823 -0.074504
v 0.944375 -0.0797905 -0.0798214
v 0.939959 -0.0744823 -0.0886837
v 0.950558 -0.0531982 -0.0886837
v 0.939959 -0.0531982 -0.0993185
v 0.918662 -0.0744823 -0.109953
v 0.916405 -0.0638147 -0.114391
v 0.905805 -0.0425306 -0.125026
v 0.911596 -0.0319141 -0.124146
v 0.884508 -0.0425306 -0.135674
v 0.873909 -0.0638147 -0.135674
v 0.872535 -0.0531982 -0.13834
v 0.852612 -0.0425306 -0.146309
v 0.820716 -0.0744823 -0.146309
v 0.808742 -0.0744823 -0.148974
v 0.808742 -0.106383 -0.13834
v 0.811392 -0.175543 -0.0904562
v 0.832689 -0.175543 -0.0798214
v 0.854771 -0.166713 -0.0815939
v 0.780281 -0.124145 -0.134781
v 0.812275 -0.134762 -0.124146
v 0.811392 -0.154259 -0.111726
v 0.821991 -0.164927 -0.101091
v 0.896482 -0.122359 -0.101091
v 0.859286 -0.164927 -0.0798214
v 0.886766 -0.145429 -0.0815939
v 0.861935 -0.159619 -0.0851388
v 0.864585 -0.154259 -0.0904562
v 0.907179 -0.090407 -0.111726
v 0.905805 -0.0850988 -0.114391
v 0.895206 -0.0638147 -0.125026
v 0.884508 -0.0850988 -0.125026
v 0.873909 -0.0957663 -0.125026
v 0.852612 -0.0850988 -0.135674
v 0.841914 -0.0957663 -0.135674
v 0.829941 -0.0957663 -0.13834
v 0.833572 -0.102861 -0.134781
v 0.812275 -0.113478 -0.134781
v 0.843288 -0.164927 -0.0904562
v 0.833572 -0.124145 -0.124146
v 0.821991 -0.132975 -0.122374
v 0.832689 -0.143643 -0.111726
v 0.864585 -0.143643 -0.101091
v 0.875185 -0.122359 -0.111726
v 0.864585 -0.111691 -0.122374
v 0.885882 -0.090407 -0.122374
v 0.863211 -0.106383 -0.125026
v 0.843288 -0.101075 -0.133009
v 0.854771 -0.113478 -0.124146
v 0.843288 -0.122359 -0.122374
f 310 311 320
f 310 320 312
f 310 312 321
f 310 321 313
f 310 313 314
f 310 314 315
f 310 315 316
f 310 316 317
f 310 317 318
f 310 318 319
f 310 319 311
f 311 319 336
f 311 336 320
f 312 320 322
f 312 322 323
f 312 323 324
f 312 324 321
f 313 321 337
f 313 337 325
f 313 325 314
f 314 326 344
f 314 344 327
f 314 327 315
f 314 325 326
f 315 327 328
f 315 328 329
f 315 329 330
f 315 330 331
f 315 331 332
f 315 332 316
f 316 332 317
f 317 332 333
f 317 333 318
f 318 333 319
f 319 333 334
f 319 334 351
f 319 351 335
f 319 335 356
f 319 356 336
f 320 336 322
f 321 324 338
f 321 338 339
f 321 339 337
f 322 336 340
f 322 340 341
f 322 341 323
f 323 341 340
f 323 340 336
f 323 336 356
f 323 356 375
f 323 375 401
f 323 401 429
f 323 429 461
f 323 461 493
f 323 493 519
f 323 519 533
f 323 533 498
f 323 498 496
f 323 496 464
f 323 464 434
f 323 434 403
f 323 403 376
f 323 376 357
f 323 357 339
f 323 339 338
f 323 338 324
f 325 337 339
f 325 339 357
f 325 357 377
f 325 377 402
f 325 402 433
f 325 433 462
f 325 462 495
f 325 495 527
f 325 527 561
f 325 561 560
f 325 560 540
f 325 540 503
f 325 503 466
f 325 466 436
f 325 436 404
f 325 404 378
f 325 378 358
f 325 358 343
f 325 343 342
f 325 342 326
f 326 343 344
f 326 342 343
f 327 344 346
f 327 346 328
f 328 345 330
f 328 330 329
f 328 346 347
f 328 347 345
f 330 345 331
f 331 345 348
f 331 348 349
f 331 349 332
f 332 349 333
f 333 349 334
f 334 349 350
f 334 350 351
f 335 351 352
f 335 352 353
f 335 353 354
f 335 354 355
f 335 355 375
f 335 375 356
f 343 358 344
f 344 358 359
f 344 359 361
f 344 361 346
f 345 347 360
f 345 360 348
f 346 361 347
f 347 361 385
f 347 385 362
f 347 362 384
f 347 384 360
f 348 360 349
f 349 360 363
f 349 363 364
f 349 364 350
f 350 365 351
f 350 364 366
f 350 366 365
f 351 365 366
f 351 366 367
f 351 367 368
f 351 368 352
f 352 368 353
f 353 368 369
f 353 369 370
f 353 370 371
f 353 371 372
f 353 372 354
f 354 372 373
f 354 373 374
f 354 374 355
f 355 374 401
f 355 401 375
f 357 376 377
f 358 378 379
f 358 379 380
f 358 380 381
f 358 381 382
f 358 382 383
f 358 383 359
f 359 383 361
f 360 384 388
f 360 388 364
f 360 364 363
f 361 383 385
f 362 385 386
f 362 386 387
f 362 387 384
f 364 388 415
f 364 415 389
f 364 389 366
f 366 389 390
f 366 390 367
f 367 390 391
f 367 391 392
f 367 392 368
f 368 392 391
f 368 391 393
f 368 393 394
f 368 394 369
f 369 394 370
f 370 395 371
f 370 394 396
f 370 396 397
f 370 397 395
f 371 395 372
f 372 398 374
f 372 374 373
f 372 395 398
f 374 398 395
f 374 395 399
f 374 399 427
f 374 427 400
f 374 400 429
f 374 429 401
f 376 402 377
f 376 403 402
f 378 404 438
f 378 438 405
f 378 405 379
f 379 405 406
f 379 406 407
f 379 407 408
f 379 408 380
f 380 408 409
f 380 409 381
f 381 409 382
f 382 409 410
f 382 410 383
f 383 410 385
f 384 387 411
f 384 411 415
f 384 415 388
f 385 410 386
f 386 410 409
f 386 409 412
f 386 412 413
f 386 413 387
f 387 413 447
f 387 447 414
f 387 414 415
f 387 415 411
f 389 415 390
f 390 415 416
f 390 416 391
f 391 416 417
f 391 417 418
f 391 418 393
f 393 419 420
f 393 420 396
f 393 396 394
f 393 418 421
f 393 421 422
f 393 422 419
f 395 423 426
f 395 426 399
f 395 397 423
f 396 420 424
f 396 424 397
f 397 424 425
f 397 425 426
f 397 426 423
f 399 426 427
f 400 427 428
f 400 428 461
f 400 461 429
f 402 403 430
f 402 430 431
f 402 431 432
f 402 432 433
f 403 434 435
f 403 435 431
f 403 431 430
f 404 436 437
f 404 437 438
f 405 438 437
f 405 437 439
f 405 439 406
f 406 439 440
f 406 440 441
f 406 441 442
f 406 442 407
f 407 442 408
f 408 443 409
f 408 442 443
f 409 443 444
f 409 444 412
f 412 444 413
f 413 444 445
f 413 445 446
f 413 446 447
f 414 447 448
f 414 448 416
f 414 416 415
f 416 448 449
f 416 449 417
f 417 449 418
f 418 449 421
f 419 450 424
f 419 424 420
f 419 422 451
f 419 451 456
f 419 456 450
f 421 448 452
f 421 452 453
f 421 453 422
f 421 449 448
f 422 453 452
f 422 452 454
f 422 454 455
f 422 455 451
f 424 450 456
f 424 456 457
f 424 457 458
f 424 458 425
f 425 458 491
f 425 491 459
f 425 459 426
f 426 459 428
f 426 428 427
f 428 459 460
f 428 460 492
f 428 492 518
f 428 518 556
f 428 556 558
f 428 558 520
f 428 520 493
f 428 493 461
f 431 462 433
f 431 433 432
f 431 435 463
f 431 463 462
f 434 464 435
f 435 464 465
f 435 465 463
f 436 466 467
f 436 467 468
f 436 468 437
f 437 469 440
f 437 440 439
f 437 468 467
f 437 467 469
f 440 470 471
f 440 471 441
f 440 469 510
f 440 510 472
f 440 472 470
f 441 471 473
f 441 473 474
f 441 474 475
f 441 475 476
f 441 476 477
f 441 477 442
f 442 477 445
f 442 445 478
f 442 478 443
f 443 478 444
f 444 478 445
f 445 479 447
f 445 447 446
f 445 477 476
f 445 476 480
f 445 480 481
f 445 481 479
f 447 479 448
f 448 479 481
f 448 481 512
f 448 512 482
f 448 482 454
f 448 454 452
f 451 455 483
f 451 483 456
f 454 482 484
f 454 484 472
f 454 472 485
f 454 485 486
f 454 486 455
f 455 486 487
f 455 487 483
f 456 483 488
f 456 488 489
f 456 489 457
f 457 489 490
f 457 490 458
f 458 490 491
f 459 492 460
f 459 491 492
f 462 463 494
f 462 494 495
f 463 465 497
f 463 497 494
f 464 496 465
f 465 496 498
f 465 498 528
f 465 528 497
f 466 499 500
f 466 500 501
f 466 501 502
f 466 502 467
f 466 503 499
f 467 504 505
f 467 505 506
f 467 506 469
f 467 502 501
f 467 501 507
f 467 507 504
f 469 506 508
f 469 508 509
f 469 509 510
f 470 473 471
f 470 472 473
f 472 475 473
f 472 510 514
f 472 514 487
f 472 487 485
f 472 484 475
f 473 475 474
f 475 511 476
f 475 484 482
f 475 482 512
f 475 512 511
f 476 511 480
f 480 511 512
f 480 512 481
f 483 513 488
f 483 487 513
f 485 487 486
f 487 514 550
f 487 550 513
f 488 513 515
f 488 515 489
f 489 515 490
f 490 515 553
f 490 553 516
f 490 516 517
f 490 517 491
f 491 517 518
f 491 518 492
f 493 520 557
f 493 557 519
f 494 521 522
f 494 522 523
f 494 523 495
f 494 497 524
f 494 524 525
f 494 525 526
f 494 526 521
f 495 523 527
f 497 528 529
f 497 529 530
f 497 530 531
f 497 531 532
f 497 532 524
f 498 533 566
f 498 566 528
f 499 534 500
f 499 503 535
f 499 535 536
f 499 536 537
f 499 537 538
f 499 538 534
f 500 507 501
f 500 534 539
f 500 539 507
f 503 540 541
f 503 541 535
f 504 542 505
f 504 507 542
f 505 542 508
f 505 508 506
f 507 543 544
f 507 544 542
f 507 539 545
f 507 545 543
f 508 542 546
f 508 546 509
f 509 546 547
f 509 547 548
f 509 548 510
f 510 548 549
f 510 549 514
f 513 550 553
f 513 553 515
f 514 549 551
f 514 551 552
f 514 552 550
f 516 554 517
f 516 553 554
f 517 554 555
f 517 555 556
f 517 556 518
f 519 557 566
f 519 566 533
f 520 558 594
f 520 594 557
f 521 526 559
f 521 559 522
f 522 559 541
f 522 541 560
f 522 560 523
f 523 560 561
f 523 561 527
f 524 532 562
f 524 562 597
f 524 597 563
f 524 563 526
f 524 526 525
f 526 563 597
f 526 597 564
f 526 564 565
f 526 565 559
f 528 566 567
f 528 567 568
f 528 568 529
f 529 568 569
f 529 569 530
f 530 569 570
f 530 570 532
f 530 532 531
f 532 570 562
f 534 571 578
f 534 578 539
f 534 538 577
f 534 577 571
f 535 572 536
f 535 541 559
f 535 559 572
f 536 572 573
f 536 573 574
f 536 574 537
f 537 574 538
f 538 574 604
f 538 604 575
f 538 575 576
f 538 576 577
f 539 578 579
f 539 579 545
f 540 560 541
f 542 544 580
f 542 580 546
f 543 580 544
f 543 545 580
f 545 579 578
f 545 578 580
f 546 580 581
f 546 581 582
f 546 582 583
f 546 583 549
f 546 549 547
f 547 549 548
f 549 583 582
f 549 582 584
f 549 584 585
f 549 585 551
f 550 552 588
f 550 588 553
f 551 585 609
f 551 609 586
f 551 586 552
f 552 586 587
f 552 587 588
f 553 588 554
f 554 588 587
f 554 587 589
f 554 589 590
f 554 590 591
f 554 591 555
f 555 592 593
f 555 593 594
f 555 594 556
f 555 591 590
f 555 590 592
f 556 594 558
f 557 594 595
f 557 595 566
f 559 565 573
f 559 573 572
f 562 596 597
f 562 570 596
f 564 597 598
f 564 598 565
f 565 598 573
f 566 595 617
f 566 617 599
f 566 599 567
f 567 599 600
f 567 600 568
f 568 600 601
f 568 601 569
f 569 601 602
f 569 602 596
f 569 596 570
f 571 577 603
f 571 603 578
f 573 604 574
f 573 598 604
f 575 605 576
f 575 604 605
f 576 605 606
f 576 606 607
f 576 607 577
f 577 607 622
f 577 622 603
f 578 603 608
f 578 608 585
f 578 585 582
f 578 582 581
f 578 581 580
f 582 585 584
f 585 608 609
f 586 609 610
f 586 610 587
f 587 610 590
f 587 590 589
f 590 610 609
f 590 609 611
f 590 611 612
f 590 612 613
f 590 613 593
f 590 593 592
f 593 613 614
f 593 614 615
f 593 615 594
f 594 615 595
f 595 615 616
f 595 616 617
f 596 602 618
f 596 618 597
f 597 618 598
f 598 618 607
f 598 607 606
f 598 606 604
f 599 617 600
f 600 617 616
f 600 616 619
f 600 619 629
f 600 629 620
f 600 620 601
f 601 620 629
f 601 629 621
f 601 621 602
f 602 621 622
f 602 622 618
f 603 622 623
f 603 623 624
f 603 624 625
f 603 625 608
f 604 606 605
f 607 618 622
f 608 625 609
f 609 625 611
f 611 625 612
f 612 625 624
f 612 624 626
f 612 626 614
f 612 614 613
f 614 627 616
f 614 616 615
f 614 626 624
f 614 624 627
f 616 627 624
f 616 624 628
f 616 628 619
f 619 628 624
f 619 624 629
f 621 629 622
f 622 624 623
f 622 629 624
o convex_2
v -0.0236042 -0.163154 0.0886705
v -0.303294 -0.28466 -0.0266038
v -0.0236042 -0.212813 -0.0106336
v -0.30861 -0.287321 -0.0319246
v -0.329876 -0.287321 -0.0319246
v -0.329876 -0.283771 -0.0248309
v -0.30861 -0.283771 -0.0248309
v -0.0236042 -0.141859 0.109953
v -0.0236042 -0.0638373 0.148973
v -0.463555 -0.0638431 0.148967
v -0.463555 -0.141877 0.109936
v -0.463555 -0.0319224 0.159623
v -0.0236042 -0.0319171 0.159623
v -0.0236042 0.0638432 0.159623
v -0.0236042 0.173785 0.109953
v -0.0236042 0.127683 0.138323
v -0.222372 0.127683 0.138323
v -0.0236042 0.141865 0.131235
v -0.463555 0.141874 0.131217
v -0.463555 0.173794 0.109936
v -0.463555 0.205715 0.0780301
v -0.463555 0.0638398 0.159623
v -0.463555 0.127681 0.138311
v -0.463555 -0.235393 -0.0319058
v -0.463555 -0.163141 0.088655
v -0.335206 -0.281999 -0.0239434
v -0.336978 -0.283771 -0.0283788
v -0.463555 -0.233721 -0.0285621
v -0.344067 -0.280227 -0.0354703
v -0.326332 -0.283771 -0.0390182
v -0.463555 -0.230758 -0.0399057
v -0.463555 -0.152485 -0.120592
v -0.463555 -0.184406 -0.088655
v -0.0236042 -0.152523 -0.120593
v -0.305066 -0.283771 -0.0390182
v -0.0236042 -0.191536 -0.0744919
v -0.0236042 -0.184414 -0.088687
v -0.0236042 -0.117048 -0.13833
v -0.463555 -0.117028 -0.138311
v -0.463555 -0.0851077 -0.148967
v -0.463555 0.127681 -0.148967
v -0.463555 0.0744482 -0.159623
v -0.463555 -0.0425308 -0.159623
v -0.0236042 -0.0425609 -0.159623
v -0.0236042 -0.0851123 -0.14897
v -0.0236042 0.0744781 -0.159623
v -0.0236042 0.12769 -0.14897
v -0.0236042 0.234113 -0.0638522
v -0.0236042 0.205716 -0.109953
v -0.0236042 0.216376 -0.0993135
v -0.356496 0.252736 -0.0372182
v -0.0236042 0.234113 0.0106484
v -0.358268 0.251828 -0.0319058
v -0.0236042 0.223444 0.0425805
v -0.359159 0.25006 -0.0265934
v -0.463555 0.2341 0.0106248
v -0.463555 0.246046 -0.0305933
v -0.463555 0.2341 -0.0638428
v -0.463555 0.216371 -0.0993111
v -0.222372 0.205716 -0.109953
v -0.463555 0.205715 -0.109936
v -0.463555 0.223444 0.0425619
v -0.0236042 0.205705 0.0780205
f 631 632 630
f 631 633 632
f 631 634 633
f 631 635 634
f 636 635 631
f 636 637 635
f 636 630 637
f 636 631 630
f 630 632 637
f 637 632 638
f 639 637 638
f 639 640 637
f 639 641 640
f 639 638 641
f 642 641 638
f 642 643 641
f 642 638 643
f 643 638 644
f 645 643 644
f 645 646 643
f 647 646 645
f 647 648 646
f 647 649 648
f 647 644 649
f 647 645 644
f 649 644 650
f 649 650 648
f 648 650 651
f 652 648 651
f 652 646 648
f 652 651 646
f 646 651 643
f 643 651 641
f 641 651 640
f 640 651 653
f 654 640 653
f 635 640 654
f 635 637 640
f 655 635 654
f 655 634 635
f 655 656 634
f 655 657 656
f 655 654 657
f 657 654 653
f 657 653 656
f 634 656 653
f 658 634 653
f 658 659 634
f 658 660 659
f 658 653 660
f 660 653 661
f 662 660 661
f 662 659 660
f 662 661 659
f 663 659 661
f 664 659 663
f 664 633 659
f 664 665 633
f 664 666 665
f 664 663 666
f 663 667 666
f 663 661 667
f 668 667 661
f 668 669 667
f 668 661 669
f 661 653 669
f 669 653 670
f 671 669 670
f 672 669 671
f 673 669 672
f 673 674 669
f 673 675 674
f 673 672 675
f 672 671 675
f 675 671 670
f 675 670 676
f 675 676 674
f 676 677 674
f 678 677 676
f 679 677 678
f 680 677 679
f 680 681 677
f 682 681 680
f 682 683 681
f 682 684 683
f 682 685 684
f 682 686 685
f 682 680 686
f 680 687 686
f 680 688 687
f 680 679 688
f 679 689 688
f 679 678 689
f 678 676 689
f 689 676 670
f 690 689 670
f 690 688 689
f 690 670 688
f 688 670 686
f 687 688 686
f 686 670 651
f 650 686 651
f 691 686 650
f 685 686 691
f 685 691 684
f 691 683 684
f 691 650 683
f 692 683 650
f 692 644 683
f 692 650 644
f 683 644 677
f 681 683 677
f 644 638 677
f 677 638 674
f 632 674 638
f 666 674 632
f 667 674 666
f 667 669 674
f 665 666 632
f 665 632 633
f 651 670 653
f 634 659 633
o convex_3
v -0.463616 0.234113 0.0106532
v -0.463616 0.223439 0.0425664
v -0.463616 0.234113 3.7223e-06
v -0.702344 0.234113 0.0106532
v -0.463616 0.221133 0.0472367
v -0.723576 0.223439 0.0425664
v -0.463616 0.232107 -0.00397658
v -0.606571 0.234113 -0.0211007
v -0.723576 0.234113 3.7223e-06
v -0.7555 0.223439 0.0319346
v -0.463616 0.205719 0.0780354
v -0.72714 0.219895 0.0496779
v -0.723576 0.212807 0.0638655
v -0.720063 0.205719 0.0780354
v -0.463616 0.230527 -0.00709006
v -0.589254 0.230826 -0.0211007
v -0.712985 0.223524 -0.0211007
v -0.739538 0.231423 -0.00530335
v -0.792745 0.220791 -0.00530335
v -0.766142 0.223439 0.0212851
v -0.767497 0.220791 0.0319346
v -0.759064 0.219895 0.0390284
v -0.463616 0.195087 0.0886672
v -0.759064 0.209263 0.0603097
v -0.72714 0.209263 0.0709416
v -0.741345 0.195087 0.0886672
v -0.463616 0.223439 -0.0106281
v -0.463616 0.0948298 -0.0211007
v -0.719912 0.220065 -0.0211007
v -0.787425 0.212807 -0.0106281
v -0.798066 0.21413 -0.00797457
v -0.787425 0.219895 -0.00709006
v -0.835311 0.199527 -0.00530335
v -0.815835 0.209263 3.7223e-06
v -0.808707 0.212807 3.7223e-06
v -0.819349 0.202175 0.0319346
v -0.799421 0.210159 0.0319346
v -0.768802 0.218144 0.0372594
v -0.78878 0.210159 0.0425664
v -0.780347 0.209263 0.0496779
v -0.463616 0.17378 0.109949
v -0.780347 0.198631 0.0709416
v -0.748423 0.198631 0.0815734
v -0.773269 0.195087 0.0780354
v -0.741345 0.17378 0.109949
v -0.463616 -0.201799 -0.0211007
v -0.720113 0.219937 -0.0211007
v -0.851273 0.180868 -0.0106281
v -0.82999 0.191543 -0.0106281
v -0.861914 0.182234 -0.00797457
v -0.856593 0.188853 -0.00530335
v -0.858401 0.187999 3.7223e-06
v -0.826476 0.198631 0.0319346
v -0.822913 0.198631 0.0390284
v -0.790085 0.207469 0.0478912
v -0.790085 0.196837 0.0691726
v -0.463616 0.141884 0.13123
v -0.773269 0.17378 0.0993167
v -0.790085 0.164941 0.101086
v -0.758161 0.164941 0.111735
v -0.748423 0.166692 0.113504
v -0.730704 0.141884 0.13123
v -0.463616 -0.191508 0.0319346
v -0.638345 -0.202098 -0.0211007
v -0.859354 0.00153296 -0.0211007
v -0.947045 0.0744625 -0.0106281
v -0.925762 0.106401 -0.0106281
v -0.883197 0.148972 -0.0106281
v -0.90448 0.139664 -0.00797457
v -0.908044 0.141884 3.7223e-06
v -0.865478 0.184412 3.7223e-06
v -0.833554 0.195087 0.0319346
v -0.82733 0.196837 0.0372594
v -0.853933 0.175573 0.0478912
v -0.822913 0.187999 0.0603097
v -0.853933 0.164941 0.0691726
v -0.463616 0.132319 0.136006
v -0.822009 0.133003 0.111735
v -0.83265 0.143635 0.101086
v -0.759064 0.145428 0.124136
v -0.779444 0.122371 0.133017
v -0.737782 0.134753 0.134786
v -0.734218 0.127665 0.138324
v -0.463616 -0.189971 0.0350481
v -0.723576 -0.191508 0.0319346
v -0.638496 -0.202098 -0.0211007
v -0.859455 0.00123407 -0.0211007
v -0.957687 0.0531985 -0.0106281
v -0.954173 0.0780065 -0.00709006
v -0.947045 0.0864609 -0.00797457
v -0.925762 0.118357 -0.00797457
v -0.929326 0.120577 3.7223e-06
v -0.908044 0.141884 0.0212851
v -0.876119 0.17378 0.0106532
v -0.886761 0.163148 0.0212851
v -0.865478 0.17378 0.0319346
v -0.875216 0.164941 0.0372594
v -0.875216 0.154267 0.0585407
v -0.896499 0.133003 0.0585407
v -0.896499 0.122371 0.0691726
v -0.885857 0.122371 0.0798044
v -0.853933 0.143635 0.0904362
v -0.463616 0.127665 0.138324
v -0.811368 0.122371 0.122367
v -0.83265 0.122371 0.111735
v -0.769706 0.124121 0.134786
v -0.778138 0.117033 0.13567
v -0.766142 0.117033 0.138324
v -0.744859 0.0957692 0.148973
v -0.463616 -0.175795 0.0634232
v -0.723576 -0.173788 0.0674035
v -0.7555 -0.177332 0.0496779
v -0.7555 -0.180876 0.0425664
v -0.766142 -0.178229 0.0439109
v -0.734218 -0.188861 0.0332614
v -0.776783 -0.180876 0.0319346
v -0.744859 -0.191508 0.0106532
v -0.638897 -0.20197 -0.0211007
v -0.7555 -0.191508 3.7223e-06
v -0.762628 -0.187964 -0.00709006
v -0.766142 -0.180876 -0.0106281
v -0.857698 -0.00640902 -0.0211007
v -0.968328 0.0212598 -0.0106281
v -0.964814 0.0567425 -0.00709006
v -0.952366 0.0824472 -0.00530335
v -0.93289 0.109945 -0.00709006
v -0.965668 0.0584932 -0.00530335
v -0.931083 0.114386 -0.00530335
v -0.950609 0.0886385 3.7223e-06
v -0.929326 0.120577 0.0106532
v -0.918685 0.131209 0.0212851
v -0.897402 0.141884 0.0425664
v -0.886761 0.152516 0.0425664
v -0.917781 0.122371 0.0372594
v -0.917781 0.101064 0.0585407
v -0.897402 0.106401 0.0780354
v -0.885857 0.101064 0.0904362
v -0.864574 0.111696 0.101086
v -0.853933 0.122371 0.101086
v -0.463616 0.0957692 0.148973
v -0.810063 0.117033 0.125021
v -0.83265 0.101064 0.122367
v -0.831345 0.0957692 0.125021
v -0.853933 0.101064 0.111735
v -0.799421 0.0957692 0.13567
v -0.778138 0.0850945 0.14632
v -0.766142 0.0850945 0.148973
v -0.723576 0.0638305 0.159623
v -0.463616 -0.165163 0.0846869
v -0.7555 -0.163156 0.0780354
v -0.7555 -0.170244 0.0638655
v -0.702344 -0.163156 0.0886672
v -0.766142 -0.167597 0.0651922
v -0.787425 -0.178229 0.0332614
v -0.787425 -0.180876 0.0212851
v -0.705105 -0.162345 -0.0211007
v -0.798066 -0.170244 -0.0106281
v -0.840631 -0.14898 -0.0106281
v -0.766142 -0.188861 0.00133049
v -0.798066 -0.180876 3.7223e-06
v -0.771463 -0.186214 -0.00530335
v -0.794552 -0.177332 -0.00709006
v -0.85559 -0.0149061 -0.0211007
v -0.975456 0.0248038 -0.00709006
v -0.957687 -0.0106362 -0.0106281
v -0.976309 0.0265972 -0.00530335
v -0.955026 0.0797999 0.00532848
v -0.954173 0.0815505 3.7223e-06
v -0.951061 0.0850945 0.0106532
v -0.929778 0.117033 0.0212851
v -0.923102 0.122371 0.0266098
v -0.929778 0.106401 0.0319346
v -0.929778 0.0957692 0.0425664
v -0.918685 0.0850945 0.0674035
v -0.929778 0.0850945 0.053216
v -0.933743 0.0691679 0.0585407
v -0.929326 0.0638305 0.0674035
v -0.908044 0.0638305 0.0886672
v -0.897402 0.0850945 0.0886672
v -0.876119 0.0957692 0.0993167
v -0.463616 0.0638305 0.159623
v -0.852628 0.0957692 0.114389
v -0.820704 0.0744625 0.13567
v -0.865478 0.0850945 0.109949
v -0.78878 0.0744625 0.14632
v -0.787425 0.0638305 0.148973
v -0.734218 0.0531985 0.159623
v -0.463616 -0.163156 0.0886672
v -0.766142 -0.152524 0.0886672
v -0.776783 -0.163156 0.0674035
v -0.702344 -0.152524 0.0993167
v -0.712985 -0.14185 0.109949
v -0.787425 -0.167597 0.0545427
v -0.792745 -0.175582 0.0345881
v -0.819349 -0.167597 0.0226295
v -0.794552 -0.177332 0.0248408
v -0.872556 -0.127674 -0.0106281
v -0.717302 -0.15325 -0.0211007
v -0.837118 -0.156068 -0.00709006
v -0.849516 -0.147187 -0.00885908
v -0.88144 -0.125923 -0.00885908
v -0.805194 -0.177332 0.00355946
v -0.812271 -0.173788 -0.00353432
v -0.803387 -0.175582 -0.00530335
v -0.834307 -0.0362128 -0.0211007
v -0.915121 -0.0851029 -0.0106281
v -0.936404 -0.0532069 -0.0106281
v -0.968328 -0.0106362 3.7223e-06
v -0.975456 0.0212598 -0.00353432
v -0.964814 -0.0070922 -0.00709006
v -0.955026 0.0478612 0.0372594
v -0.955026 0.0691679 0.015978
v -0.951061 0.0638305 0.0319346
v -0.940419 0.0957692 0.0212851
v -0.951061 0.0531985 0.0425664
v -0.940419 0.0638305 0.053216
v -0.939968 0.0531985 0.0567717
v -0.922249 0.0212598 0.0815734
v -0.897402 0.0531985 0.0993167
v -0.876119 0.0638305 0.109949
v -0.463616 -0.0319002 0.159623
v -0.852628 0.0531985 0.125021
v -0.863269 0.0744625 0.114389
v -0.819349 0.0638305 0.138324
v -0.851273 0.0425238 0.127692
v -0.798066 0.0318918 0.148973
v -0.7555 0.0212598 0.159623
v -0.744859 0.0425238 0.159623
v -0.463616 -0.152524 0.0993167
v -0.766142 -0.14185 0.0993167
v -0.808707 -0.120586 0.0993167
v -0.787425 -0.152524 0.0780354
v -0.803387 -0.154275 0.066519
v -0.792745 -0.164907 0.0558695
v -0.463616 -0.14185 0.109949
v -0.463616 -0.138775 0.111505
v -0.718306 -0.133011 0.114389
v -0.734218 -0.120586 0.120598
v -0.7555 -0.131218 0.109949
v -0.826476 -0.156068 0.0461222
v -0.824669 -0.164907 0.0239563
v -0.826476 -0.1667 0.0141913
v -0.893838 -0.10641 -0.0106281
v -0.854837 -0.152524 -0.00353432
v -0.886761 -0.131218 -0.00353432
v -0.908044 -0.109954 -0.00353432
v -0.913364 -0.0939843 -0.00885908
v -0.847759 -0.156068 0.00355946
v -0.934647 -0.0620456 -0.00885908
v -0.964814 -0.0177242 0.00355946
v -0.965668 -0.0106362 0.01198
v -0.968328 3.84996e-05 0.0106532
v -0.96125 -0.0248122 -0.00353432
v -0.964814 3.84996e-05 0.017747
v -0.954173 0.0425238 0.0390284
v -0.943532 -0.0496202 -0.00709006
v -0.939968 -0.0673829 -0.00353432
v -0.950609 0.0425238 0.0461222
v -0.950609 3.84996e-05 0.0461222
v -0.939968 -0.0106362 0.0567717
v -0.929326 -0.0212682 0.0674035
v -0.908044 -0.0212682 0.0886672
v -0.897402 -0.0106362 0.0993167
v -0.886761 0.0106705 0.109949
v -0.886761 0.0318918 0.109949
v -0.865478 0.0425238 0.120598
v -0.463616 -0.0638389 0.148973
v -0.712985 -0.0319002 0.159623
v -0.858401 0.0425238 0.124136
v -0.82999 0.0318918 0.138324
v -0.837118 0.0318918 0.134786
v -0.798066 3.84996e-05 0.148973
v -0.7555 0.0106705 0.159623
v -0.766142 -0.127674 0.110391
v -0.808707 -0.10641 0.110391
v -0.814028 -0.111704 0.103739
v -0.824669 -0.111704 0.0984322
v -0.82999 -0.120586 0.0886672
v -0.82999 -0.131218 0.0780354
v -0.845952 -0.133011 0.066519
v -0.824669 -0.154275 0.0505624
v -0.463616 -0.0891166 0.136342
v -0.734218 -0.10641 0.127692
v -0.739538 -0.111704 0.125021
v -0.744859 -0.117042 0.12104
v -0.75018 -0.0904403 0.13567
v -0.856593 -0.133011 0.0558695
v -0.856593 -0.143643 0.0345881
v -0.858401 -0.145394 0.0248408
v -0.879683 -0.134762 0.00355946
v -0.897402 -0.120586 0.00709751
v -0.908044 -0.109954 0.00709751
v -0.918685 -0.0992789 -0.00353432
v -0.943532 -0.0602949 0.00355946
v -0.954173 -0.0389882 0.0141913
v -0.955026 -0.0319002 0.0226295
v -0.955026 -0.0106362 0.0332614
v -0.954173 3.84996e-05 0.0390284
v -0.950609 -0.0212682 0.0354727
v -0.929326 -0.0425322 0.0567717
v -0.920442 -0.0478696 0.066519
v -0.920442 -0.0372376 0.0718261
v -0.908044 -0.0532069 0.0780354
v -0.886761 -0.0425322 0.0993167
v -0.893838 -0.0212682 0.099759
v -0.883197 3.84996e-05 0.110391
v -0.877876 0.00533315 0.114389
v -0.865478 3.84996e-05 0.120598
v -0.879683 0.0106705 0.113504
v -0.879683 0.0318918 0.113504
v -0.723576 -0.0638389 0.148973
v -0.734218 -0.0212682 0.159623
v -0.7555 -0.0532069 0.148973
v -0.82999 0.0106705 0.138324
v -0.837118 0.0106705 0.134786
v -0.787425 -0.0319002 0.148973
v -0.819349 -0.0319002 0.138324
v -0.776783 -0.10641 0.12104
v -0.819349 -0.0851029 0.12104
v -0.824669 -0.0904403 0.114389
v -0.82999 -0.10641 0.099759
v -0.845952 -0.111704 0.0877827
v -0.877876 -0.101072 0.0718261
v -0.7555 -0.0957349 0.131672
v -0.760821 -0.0585016 0.14632
v -0.771463 -0.0798083 0.13567
v -0.877876 -0.122336 0.0452377
v -0.888518 -0.122336 0.0239563
v -0.890325 -0.12413 0.0141913
v -0.9098 -0.101072 0.0239563
v -0.911607 -0.102866 0.0141913
v -0.922249 -0.0921909 0.00355946
v -0.93289 -0.0709269 0.0248408
v -0.952366 -0.0372376 0.0239563
v -0.931083 -0.0585016 0.0452377
v -0.9098 -0.0691336 0.066519
v -0.899159 -0.0691336 0.0771508
v -0.899159 -0.0585016 0.0824579
v -0.893838 -0.0532069 0.0891095
v -0.877876 -0.0478696 0.103739
v -0.851273 -0.0425322 0.12104
v -0.861914 -0.0106362 0.12104
v -0.856593 -0.00529885 0.125021
v -0.858401 3.84996e-05 0.124136
v -0.792745 -0.0372376 0.14632
v -0.835311 0.00533315 0.13567
v -0.851273 3.84996e-05 0.127692
v -0.824669 -0.0372376 0.13567
v -0.814028 -0.0798083 0.125021
v -0.82999 -0.0744709 0.12104
v -0.835311 -0.0904403 0.109064
v -0.877876 -0.0798083 0.0877827
v -0.879683 -0.102866 0.0674035
v -0.9098 -0.0798083 0.0558695
v -0.9098 -0.0904403 0.0452377
v -0.792745 -0.0691336 0.13567
v -0.931083 -0.0691336 0.0345881
v -0.922249 -0.0709269 0.0461222
v -0.872556 -0.0638389 0.099759
v -0.845952 -0.0691336 0.114389
v -0.82999 -0.0425322 0.131672
v -0.845952 -0.0372376 0.125021
v -0.824669 -0.0691336 0.125021
v -0.845952 -0.0798083 0.109064
f 693 694 697
f 693 697 703
f 693 703 715
f 693 715 733
f 693 733 749
f 693 749 769
f 693 769 795
f 693 795 832
f 693 832 873
f 693 873 913
f 693 913 959
f 693 959 974
f 693 974 928
f 693 928 927
f 693 927 921
f 693 921 880
f 693 880 841
f 693 841 802
f 693 802 776
f 693 776 755
f 693 755 738
f 693 738 720
f 693 720 719
f 693 719 707
f 693 707 699
f 693 699 695
f 693 695 700
f 693 700 701
f 693 701 696
f 693 696 698
f 693 698 694
f 694 698 697
f 695 699 700
f 696 701 702
f 696 702 698
f 697 698 704
f 697 704 705
f 697 705 706
f 697 706 703
f 698 702 704
f 699 707 700
f 700 707 708
f 700 708 720
f 700 720 738
f 700 738 756
f 700 756 778
f 700 778 810
f 700 810 848
f 700 848 890
f 700 890 897
f 700 897 855
f 700 855 814
f 700 814 779
f 700 779 757
f 700 757 739
f 700 739 721
f 700 721 709
f 700 709 710
f 700 710 701
f 701 710 711
f 701 711 712
f 701 712 702
f 702 712 713
f 702 713 714
f 702 714 704
f 703 706 718
f 703 718 715
f 704 714 716
f 704 716 717
f 704 717 705
f 705 717 706
f 706 717 735
f 706 735 718
f 707 719 708
f 708 719 720
f 709 721 722
f 709 722 723
f 709 723 724
f 709 724 711
f 709 711 710
f 711 724 723
f 711 723 742
f 711 742 725
f 711 725 744
f 711 744 726
f 711 726 727
f 711 727 728
f 711 728 729
f 711 729 713
f 711 713 712
f 713 730 714
f 713 729 731
f 713 731 730
f 714 730 732
f 714 732 716
f 715 718 737
f 715 737 733
f 716 732 734
f 716 734 735
f 716 735 717
f 718 735 734
f 718 734 736
f 718 736 750
f 718 750 737
f 721 739 740
f 721 740 741
f 721 741 722
f 722 741 742
f 722 742 723
f 725 742 743
f 725 743 744
f 726 745 728
f 726 728 727
f 726 744 745
f 728 745 746
f 728 746 729
f 729 746 731
f 730 731 747
f 730 747 732
f 731 746 747
f 732 747 748
f 732 748 734
f 733 737 754
f 733 754 749
f 734 748 736
f 736 748 751
f 736 751 750
f 737 750 752
f 737 752 753
f 737 753 754
f 738 755 756
f 739 757 758
f 739 758 759
f 739 759 760
f 739 760 740
f 740 760 742
f 740 742 741
f 742 760 759
f 742 759 761
f 742 761 762
f 742 762 763
f 742 763 743
f 743 763 744
f 744 763 764
f 744 764 745
f 745 764 746
f 746 764 765
f 746 765 766
f 746 766 768
f 746 768 767
f 746 767 748
f 746 748 747
f 748 767 768
f 748 768 751
f 749 754 769
f 750 751 752
f 751 770 752
f 751 768 771
f 751 771 770
f 752 772 753
f 752 770 773
f 752 773 772
f 753 772 774
f 753 774 754
f 754 774 775
f 754 775 769
f 755 776 777
f 755 777 778
f 755 778 756
f 757 779 780
f 757 780 758
f 758 780 816
f 758 816 781
f 758 781 782
f 758 782 759
f 759 782 783
f 759 783 761
f 761 783 784
f 761 784 762
f 762 784 822
f 762 822 785
f 762 785 787
f 762 787 786
f 762 786 763
f 763 786 764
f 764 786 787
f 764 787 788
f 764 788 766
f 764 766 765
f 766 788 789
f 766 789 768
f 768 789 790
f 768 790 791
f 768 791 792
f 768 792 793
f 768 793 794
f 768 794 771
f 769 775 795
f 770 796 773
f 770 771 794
f 770 794 831
f 770 831 797
f 770 797 796
f 772 773 798
f 772 798 774
f 773 796 833
f 773 833 799
f 773 799 798
f 774 798 800
f 774 800 775
f 775 800 801
f 775 801 832
f 775 832 795
f 776 802 803
f 776 803 777
f 777 803 843
f 777 843 804
f 777 804 805
f 777 805 806
f 777 806 807
f 777 807 846
f 777 846 808
f 777 808 809
f 777 809 778
f 778 809 811
f 778 811 812
f 778 812 813
f 778 813 810
f 779 814 815
f 779 815 780
f 780 815 856
f 780 856 816
f 781 817 820
f 781 820 818
f 781 818 782
f 781 816 819
f 781 819 817
f 782 818 783
f 783 818 820
f 783 820 784
f 784 820 817
f 784 817 821
f 784 821 822
f 785 822 823
f 785 823 824
f 785 824 825
f 785 825 787
f 787 825 789
f 787 789 788
f 789 825 790
f 790 825 824
f 790 824 791
f 791 824 826
f 791 826 792
f 792 826 827
f 792 827 866
f 792 866 828
f 792 828 793
f 793 829 830
f 793 830 794
f 793 828 871
f 793 871 829
f 794 830 831
f 796 797 836
f 796 836 834
f 796 834 835
f 796 835 833
f 797 831 836
f 798 799 800
f 799 833 835
f 799 835 837
f 799 837 877
f 799 877 838
f 799 838 839
f 799 839 800
f 800 839 801
f 801 839 840
f 801 840 873
f 801 873 832
f 802 841 803
f 803 842 843
f 803 841 844
f 803 844 842
f 804 843 845
f 804 845 806
f 804 806 805
f 806 845 885
f 806 885 846
f 806 846 807
f 808 846 847
f 808 847 811
f 808 811 809
f 810 813 849
f 810 849 850
f 810 850 848
f 811 847 851
f 811 851 852
f 811 852 853
f 811 853 812
f 812 853 896
f 812 896 854
f 812 854 849
f 812 849 813
f 814 855 815
f 815 855 857
f 815 857 902
f 815 902 856
f 816 856 858
f 816 858 819
f 817 819 821
f 819 858 859
f 819 859 860
f 819 860 821
f 821 860 859
f 821 859 861
f 821 861 822
f 822 861 862
f 822 862 823
f 823 826 824
f 823 862 863
f 823 863 826
f 826 863 862
f 826 862 864
f 826 864 865
f 826 865 827
f 827 865 867
f 827 867 908
f 827 908 868
f 827 868 869
f 827 869 866
f 828 866 869
f 828 869 870
f 828 870 871
f 829 872 830
f 829 871 872
f 830 872 836
f 830 836 831
f 834 836 874
f 834 874 835
f 835 874 875
f 835 875 877
f 835 877 837
f 836 872 876
f 836 876 874
f 838 877 878
f 838 878 839
f 839 878 879
f 839 879 840
f 840 879 920
f 840 920 919
f 840 919 965
f 840 965 1004
f 840 1004 960
f 840 960 913
f 840 913 873
f 841 880 844
f 842 881 924
f 842 924 882
f 842 882 845
f 842 845 843
f 842 844 881
f 844 880 921
f 844 921 883
f 844 883 884
f 844 884 881
f 845 882 885
f 846 885 886
f 846 886 887
f 846 887 888
f 846 888 847
f 847 888 894
f 847 894 852
f 847 852 851
f 848 850 889
f 848 889 890
f 849 854 891
f 849 891 850
f 850 891 892
f 850 892 893
f 850 893 889
f 852 894 895
f 852 895 896
f 852 896 853
f 854 896 895
f 854 895 936
f 854 936 891
f 855 897 935
f 855 935 898
f 855 898 899
f 855 899 857
f 856 900 901
f 856 901 858
f 856 902 900
f 857 899 902
f 858 901 947
f 858 947 903
f 858 903 904
f 858 904 859
f 859 904 861
f 861 904 905
f 861 905 906
f 861 906 862
f 862 906 864
f 864 906 865
f 865 906 907
f 865 907 908
f 865 908 867
f 868 908 869
f 869 908 909
f 869 909 910
f 869 910 870
f 870 911 872
f 870 872 871
f 870 910 911
f 872 912 876
f 872 911 912
f 874 914 875
f 874 876 912
f 874 912 915
f 874 915 914
f 875 916 878
f 875 878 877
f 875 914 917
f 875 917 916
f 878 916 962
f 878 962 918
f 878 918 919
f 878 919 920
f 878 920 879
f 881 922 923
f 881 923 924
f 881 884 922
f 882 924 925
f 882 925 926
f 882 926 885
f 883 921 927
f 883 927 884
f 884 927 928
f 884 928 929
f 884 929 930
f 884 930 931
f 884 931 922
f 885 926 886
f 886 926 932
f 886 932 933
f 886 933 887
f 887 933 934
f 887 934 888
f 888 934 894
f 889 893 935
f 889 935 890
f 890 935 897
f 891 936 892
f 892 936 893
f 893 936 937
f 893 937 938
f 893 938 939
f 893 939 935
f 894 934 940
f 894 940 936
f 894 936 895
f 898 935 939
f 898 939 899
f 899 941 948
f 899 948 902
f 899 939 941
f 900 942 943
f 900 943 944
f 900 944 901
f 900 902 945
f 900 945 942
f 901 944 946
f 901 946 990
f 901 990 947
f 902 948 949
f 902 949 945
f 903 947 950
f 903 950 907
f 903 907 904
f 904 907 905
f 905 907 906
f 907 950 909
f 907 909 908
f 909 950 910
f 910 950 951
f 910 951 952
f 910 952 953
f 910 953 954
f 910 954 955
f 910 955 956
f 910 956 957
f 910 957 911
f 911 957 958
f 911 958 912
f 912 958 915
f 913 960 1003
f 913 1003 959
f 914 915 958
f 914 958 961
f 914 961 917
f 916 917 962
f 917 961 963
f 917 963 962
f 918 964 965
f 918 965 919
f 918 962 1006
f 918 1006 964
f 922 931 966
f 922 966 967
f 922 967 923
f 923 967 968
f 923 968 969
f 923 969 1014
f 923 1014 970
f 923 970 924
f 924 970 971
f 924 971 972
f 924 972 925
f 925 973 932
f 925 932 926
f 925 972 973
f 928 974 929
f 929 975 930
f 929 974 975
f 930 976 977
f 930 977 966
f 930 966 931
f 930 975 978
f 930 978 976
f 932 973 972
f 932 972 979
f 932 979 980
f 932 980 933
f 933 980 934
f 934 980 981
f 934 981 940
f 936 940 982
f 936 982 937
f 937 982 1021
f 937 1021 983
f 937 983 984
f 937 984 938
f 938 984 985
f 938 985 939
f 939 985 949
f 939 949 941
f 940 981 982
f 941 949 948
f 942 986 987
f 942 987 988
f 942 988 943
f 942 945 949
f 942 949 986
f 943 946 944
f 943 988 989
f 943 989 990
f 943 990 946
f 947 990 951
f 947 951 950
f 949 985 1024
f 949 1024 986
f 951 990 989
f 951 989 991
f 951 991 952
f 952 992 953
f 952 991 992
f 953 992 993
f 953 993 994
f 953 994 954
f 954 994 995
f 954 995 996
f 954 996 997
f 954 997 955
f 955 997 998
f 955 998 956
f 956 998 999
f 956 999 1000
f 956 1000 1001
f 956 1001 1002
f 956 1002 957
f 957 1002 958
f 958 1002 963
f 958 963 961
f 959 1003 974
f 960 1004 1005
f 960 1005 1003
f 962 963 1007
f 962 1007 1006
f 963 1002 1001
f 963 1001 1007
f 964 1008 965
f 964 1006 1009
f 964 1009 1008
f 965 1008 1004
f 966 977 1010
f 966 1010 967
f 967 1010 1011
f 967 1011 1012
f 967 1012 1013
f 967 1013 969
f 967 969 968
f 969 1013 1014
f 970 1014 972
f 970 972 971
f 972 1014 1015
f 972 1015 979
f 974 1003 975
f 975 1003 978
f 976 978 977
f 977 978 1016
f 977 1016 1010
f 978 1003 1005
f 978 1005 1017
f 978 1017 1018
f 978 1018 1010
f 978 1010 1016
f 979 1015 1019
f 979 1019 980
f 980 1019 1020
f 980 1020 1021
f 980 1021 981
f 981 1021 982
f 983 1021 1020
f 983 1020 1022
f 983 1022 984
f 984 1022 1023
f 984 1023 1024
f 984 1024 985
f 986 1024 1025
f 986 1025 987
f 987 1025 1026
f 987 1026 988
f 988 1026 991
f 988 991 989
f 991 1026 992
f 992 1026 1027
f 992 1027 993
f 993 1028 995
f 993 995 994
f 993 1027 1028
f 995 1028 1029
f 995 1029 1030
f 995 1030 1031
f 995 1031 996
f 996 1032 997
f 996 1031 1032
f 997 1032 1033
f 997 1033 1034
f 997 1034 998
f 998 1034 999
f 999 1034 1035
f 999 1035 1000
f 1000 1035 1036
f 1000 1036 1007
f 1000 1007 1001
f 1004 1008 1005
f 1005 1008 1037
f 1005 1037 1017
f 1006 1007 1038
f 1006 1038 1040
f 1006 1040 1009
f 1007 1036 1039
f 1007 1039 1038
f 1008 1009 1040
f 1008 1040 1037
f 1010 1041 1011
f 1010 1018 1041
f 1011 1042 1056
f 1011 1056 1043
f 1011 1043 1012
f 1011 1041 1042
f 1012 1043 1013
f 1013 1043 1014
f 1014 1043 1056
f 1014 1056 1044
f 1014 1044 1015
f 1015 1045 1019
f 1015 1044 1029
f 1015 1029 1028
f 1015 1028 1046
f 1015 1046 1047
f 1015 1047 1045
f 1017 1037 1048
f 1017 1048 1018
f 1018 1048 1041
f 1019 1045 1047
f 1019 1047 1022
f 1019 1022 1020
f 1022 1047 1049
f 1022 1049 1025
f 1022 1025 1023
f 1023 1025 1024
f 1025 1049 1026
f 1026 1049 1027
f 1027 1049 1050
f 1027 1050 1028
f 1028 1050 1046
f 1029 1031 1030
f 1029 1044 1031
f 1031 1044 1051
f 1031 1051 1032
f 1032 1051 1052
f 1032 1052 1033
f 1033 1052 1042
f 1033 1042 1053
f 1033 1053 1040
f 1033 1040 1054
f 1033 1054 1034
f 1034 1054 1035
f 1035 1038 1039
f 1035 1039 1036
f 1035 1054 1040
f 1035 1040 1038
f 1037 1040 1041
f 1037 1041 1048
f 1040 1053 1042
f 1040 1042 1055
f 1040 1055 1041
f 1041 1055 1042
f 1042 1052 1056
f 1044 1056 1051
f 1046 1050 1047
f 1047 1050 1049
f 1051 1056 1052
o convex_4
v -0.976309 0.0265871 -0.0478939
v -0.975456 0.0247809 -0.0496702
v -0.968328 2.50017e-05 -0.0638533
v -0.968328 -0.0105998 -0.0532092
v -0.975456 0.0212747 -0.0461177
v -0.965668 0.0585148 -0.0478939
v -0.965668 0.0545305 -0.0532092
v -0.965668 0.0438525 -0.0638533
v -0.964814 0.0354589 -0.0709448
v -0.964814 0.00358433 -0.0709448
v -0.96125 -0.00353432 -0.0780499
v -0.963007 -0.0159123 -0.0691821
v -0.966571 -0.00884675 -0.062077
v -0.957687 -0.0319027 -0.0638533
v -0.964814 -0.0177185 -0.0496702
v -0.973649 0.0159623 -0.0452363
v -0.968328 0.0212747 -0.0425787
v -0.964814 0.0532024 -0.0461177
v -0.959042 0.0638272 -0.0452363
v -0.9484 0.08513 -0.0452363
v -0.955026 0.0797645 -0.0478939
v -0.954173 0.0815707 -0.0532092
v -0.957687 0.0744521 -0.0532092
v -0.955026 0.0757802 -0.0638533
v -0.963007 0.0451806 -0.0691821
v -0.952366 0.0558586 -0.0798126
v -0.954173 0.0460837 -0.0815889
v -0.950609 0.0390182 -0.0886804
v -0.96125 0.0283402 -0.0780499
v -0.950609 -0.0141592 -0.0886804
v -0.959494 -0.0124061 -0.0762736
v -0.950609 -0.035462 -0.0780499
v -0.950609 -0.0460868 -0.0674058
v -0.963007 -0.0159123 -0.0452363
v -0.939968 -0.0673897 -0.0567617
v -0.943532 -0.060271 -0.0496702
v -0.941724 -0.0585179 -0.0452363
v -0.957687 -0.0105998 -0.0425787
v -0.85559 -0.0149029 -0.0211007
v -0.857698 -0.00640303 -0.0211007
v -0.859455 0.00124686 -0.0211007
v -0.859354 0.00156561 -0.0211007
v -0.957687 0.0532024 -0.0425787
v -0.947045 0.0744521 -0.0425787
v -0.925762 0.10638 -0.0425787
v -0.927118 0.117005 -0.0452363
v -0.933743 0.111692 -0.0478939
v -0.950609 0.0886362 -0.0532092
v -0.933743 0.107708 -0.0744973
v -0.952366 0.0771083 -0.0691821
v -0.941724 0.0877863 -0.0798126
v -0.943532 0.0780114 -0.0815889
v -0.939968 0.0708928 -0.0886804
v -0.929326 0.0708928 -0.0993109
v -0.939968 0.0283402 -0.0993109
v -0.918685 -0.0141592 -0.109955
v -0.929326 -0.035462 -0.0993109
v -0.939968 0.00714365 -0.0993109
v -0.918685 -0.0780145 -0.0886804
v -0.931083 -0.0691428 -0.0798126
v -0.927569 -0.0762614 -0.0762736
v -0.918685 -0.0993173 -0.0567617
v -0.922249 -0.0921987 -0.0496702
v -0.920442 -0.0904456 -0.0452363
v -0.936404 -0.0532055 -0.0425787
v -0.834307 -0.0362057 -0.0211007
v -0.915121 -0.08508 -0.0425787
v -0.90448 -0.095758 -0.0425787
v -0.720113 0.219959 -0.0211007
v -0.893838 0.148932 -0.0425787
v -0.897402 0.156051 -0.0461177
v -0.901819 0.154298 -0.0478939
v -0.929326 0.120564 -0.0532092
v -0.929326 0.120564 -0.0638533
v -0.931083 0.109036 -0.0798126
v -0.920442 0.0877863 -0.101087
v -0.922249 0.0780114 -0.102863
v -0.93289 0.0354589 -0.102863
v -0.911607 -0.00709365 -0.113507
v -0.897402 -0.024784 -0.120599
v -0.908044 -0.0460868 -0.109955
v -0.906287 -0.0549586 -0.108179
v -0.908044 -0.0780145 -0.0993109
v -0.93289 0.0142092 -0.102863
v -0.899159 -0.0904456 -0.101087
v -0.9098 -0.0904456 -0.0904431
v -0.9098 -0.10107 -0.0798126
v -0.908044 -0.109942 -0.0674058
v -0.886761 -0.131245 -0.0567617
v -0.900966 -0.113502 -0.0496702
v -0.888518 -0.122373 -0.0452363
v -0.717302 -0.153238 -0.0211007
v -0.872556 -0.127686 -0.0425787
v -0.719912 0.220066 -0.0211007
v -0.854837 0.187979 -0.0461177
v -0.863269 0.18086 -0.0452363
v -0.899159 0.156954 -0.0478939
v -0.899159 0.146276 -0.0798126
v -0.899159 0.140964 -0.0904431
v -0.920442 0.109036 -0.0904431
v -0.899159 0.119714 -0.101087
v -0.899159 0.0984111 -0.111731
v -0.900966 0.0886362 -0.113507
v -0.911607 0.0567086 -0.113507
v -0.869042 0.0142092 -0.134782
v -0.890325 -0.0177185 -0.124138
v -0.883197 -0.0212778 -0.127691
v -0.888518 -0.0372151 -0.122375
v -0.899159 -0.0585179 -0.111731
v -0.856593 -0.0904456 -0.122375
v -0.877876 -0.111695 -0.101087
v -0.877876 -0.122373 -0.0904431
v -0.888518 -0.122373 -0.0798126
v -0.897402 -0.120567 -0.0674058
v -0.876119 -0.131245 -0.0780499
v -0.85308 -0.150742 -0.0656295
v -0.854837 -0.152495 -0.0567617
v -0.847759 -0.156054 -0.0496702
v -0.879683 -0.134751 -0.0496702
v -0.877876 -0.132998 -0.0452363
v -0.705105 -0.162323 -0.0211007
v -0.845952 -0.154301 -0.0452363
v -0.840631 -0.148935 -0.0425787
v -0.790988 0.219906 -0.0461177
v -0.812271 0.209281 -0.0461177
v -0.712985 0.223519 -0.0211007
v -0.859254 0.186225 -0.0478939
v -0.792745 0.220809 -0.0478939
v -0.865478 0.184419 -0.0532092
v -0.876119 0.173794 -0.0638533
v -0.869042 0.131242 -0.113507
v -0.867235 0.172891 -0.0798126
v -0.877876 0.156954 -0.0904431
v -0.856593 0.162266 -0.101087
v -0.867235 0.109036 -0.122375
v -0.893838 0.097083 -0.114389
v -0.858401 0.0673865 -0.134782
v -0.883197 0.0532024 -0.127691
v -0.890325 0.0567086 -0.124138
v -0.861914 0.107708 -0.125033
v -0.869042 0.0993142 -0.124138
v -0.869042 0.0354589 -0.134782
v -0.861914 0.0106499 -0.138335
v -0.851273 -0.0319027 -0.138335
v -0.877876 -0.0585179 -0.122375
v -0.835311 -0.0797676 -0.133006
v -0.814028 -0.122373 -0.122375
v -0.856593 -0.111695 -0.111731
v -0.835311 -0.143623 -0.101087
v -0.867235 -0.132998 -0.0904431
v -0.824669 -0.164926 -0.0798126
v -0.831797 -0.161366 -0.0762736
v -0.833554 -0.16312 -0.0674058
v -0.840631 -0.159613 -0.0532092
v -0.805194 -0.177357 -0.0496702
v -0.638897 -0.202007 -0.0211007
v -0.803387 -0.175551 -0.0452363
v -0.535646 0.283762 -0.0248431
v -0.606571 0.23409 -0.0211007
v -0.532082 0.276643 -0.0212906
v -0.532082 0.287268 -0.0319346
v -0.766142 0.223466 -0.0744973
v -0.771463 0.220809 -0.0798126
v -0.803387 0.210131 -0.0798126
v -0.814028 0.210131 -0.058538
v -0.815835 0.209281 -0.0532092
v -0.858401 0.187979 -0.0532092
v -0.856593 0.188882 -0.058538
v -0.861914 0.184844 -0.0638533
v -0.867235 0.178204 -0.0691821
v -0.835311 0.140964 -0.122375
v -0.82999 0.139636 -0.125033
v -0.851273 0.118386 -0.125033
v -0.835311 0.162266 -0.111731
v -0.845952 0.188882 -0.0798126
v -0.856593 0.172891 -0.0904431
v -0.824669 0.183516 -0.101087
v -0.851273 0.0638272 -0.138335
v -0.840631 0.08513 -0.138335
v -0.861914 0.0318996 -0.138335
v -0.840631 0.097083 -0.135677
v -0.82999 0.0212747 -0.148979
v -0.819349 -0.0212778 -0.148979
v -0.82999 -0.0638303 -0.138335
v -0.856593 -0.0478399 -0.133006
v -0.819349 -0.0744552 -0.138335
v -0.803387 -0.10107 -0.133006
v -0.828233 -0.0727021 -0.136558
v -0.80163 -0.131245 -0.120599
v -0.787425 -0.095758 -0.138335
v -0.766142 -0.106383 -0.138335
v -0.812271 -0.14187 -0.109955
v -0.790988 -0.152495 -0.109955
v -0.790988 -0.16312 -0.0993109
v -0.812271 -0.16312 -0.0886804
v -0.803387 -0.164926 -0.0904431
v -0.780347 -0.173798 -0.0886804
v -0.792745 -0.175551 -0.0798126
v -0.803387 -0.175551 -0.0691821
v -0.819349 -0.170238 -0.0638533
v -0.798066 -0.180863 -0.0532092
v -0.766142 -0.191541 -0.0532092
v -0.773269 -0.187982 -0.0496702
v -0.611892 -0.218103 -0.0239482
v -0.606571 -0.212791 -0.0212906
v -0.489516 -0.244718 -0.0212906
v -0.638496 -0.20206 -0.0211007
v -0.771463 -0.186175 -0.0452363
v -0.514363 0.283762 -0.0248431
v -0.589254 0.23085 -0.0211007
v -0.510799 0.276643 -0.0212906
v -0.510799 0.287268 -0.0319346
v -0.532082 0.283762 -0.0390262
v -0.537402 0.284612 -0.0372499
v -0.766142 0.216347 -0.0886804
v -0.798066 0.205722 -0.0886804
v -0.808707 0.195522 -0.0957719
v -0.808707 0.129011 -0.135677
v -0.82999 0.160938 -0.114389
v -0.798066 0.160938 -0.125033
v -0.819349 0.118386 -0.135677
v -0.819349 0.173794 -0.109955
v -0.814028 0.188882 -0.101087
v -0.819349 0.0638272 -0.148979
v -0.808707 0.0864582 -0.146307
v -0.819349 0.0757802 -0.146307
v -0.776783 0.0212747 -0.159623
v -0.7555 -0.0212778 -0.159623
v -0.787425 -0.0532055 -0.148979
v -0.766142 -0.0744552 -0.148979
v -0.769706 -0.120567 -0.131243
v -0.769706 -0.14187 -0.120599
v -0.744859 -0.08508 -0.148979
v -0.723576 -0.117008 -0.138335
v -0.72714 -0.131245 -0.131243
v -0.759064 -0.16312 -0.109955
v -0.759064 -0.173798 -0.0993109
v -0.771463 -0.175551 -0.0904431
v -0.75018 -0.186175 -0.0798126
v -0.734218 -0.191541 -0.0744973
v -0.489516 -0.255343 -0.0319346
v -0.496644 -0.251837 -0.0283821
v -0.494837 -0.250031 -0.0239482
v -0.638345 -0.20206 -0.0211007
v -0.489516 -0.251837 -0.0248431
v -0.478875 -0.246047 -0.0239482
v -0.468234 -0.223469 -0.0212906
v -0.463616 -0.201794 -0.0211007
v -0.496644 0.280202 -0.0283821
v -0.501965 0.27489 -0.0230668
v -0.468234 0.23409 -0.0212906
v -0.489516 0.255393 -0.0212906
v -0.463616 0.0948518 -0.0211007
v -0.503722 0.283762 -0.0354736
v -0.510799 0.283762 -0.0390262
v -0.723576 0.205722 -0.109955
v -0.712985 0.216347 -0.0993109
v -0.766142 0.205722 -0.0993109
v -0.782104 0.199507 -0.101087
v -0.798066 0.127683 -0.138335
v -0.776783 0.10638 -0.148979
v -0.787425 0.107708 -0.146307
v -0.787425 0.173794 -0.120599
v -0.787425 0.15961 -0.127691
v -0.798066 0.184419 -0.109955
v -0.798066 0.08513 -0.148979
v -0.7555 0.0638272 -0.159623
v -0.744859 -0.0319027 -0.159623
v -0.716549 -0.152495 -0.120599
v -0.723576 -0.0425275 -0.159623
v -0.463616 -0.08508 -0.148979
v -0.463616 -0.117008 -0.138335
v -0.463616 -0.131245 -0.131243
v -0.463616 -0.144314 -0.124707
v -0.486003 -0.251837 -0.0390262
v -0.737782 -0.184422 -0.0886804
v -0.482439 -0.251837 -0.0319346
v -0.484196 -0.252687 -0.0266058
v -0.475361 -0.248278 -0.0319346
v -0.468234 -0.235422 -0.0239482
v -0.463616 -0.224053 -0.0224567
v -0.463616 -0.218794 -0.0212906
v -0.486003 0.269577 -0.0283821
v -0.463616 0.23409 -0.0638533
v -0.470041 0.242962 -0.0230668
v -0.463616 0.212788 -0.0212906
v -0.463616 0.222509 -0.0222262
v -0.463616 0.231753 -0.0236228
v -0.463616 0.238765 -0.025955
v -0.46472 0.248275 -0.0283821
v -0.505478 0.281955 -0.0399075
v -0.463616 0.228566 -0.0749312
v -0.463616 0.223466 -0.0851414
v -0.463616 0.216347 -0.0993109
v -0.463616 0.205722 -0.109955
v -0.744859 0.16317 -0.131243
v -0.744859 0.184419 -0.120599
v -0.766142 0.195044 -0.109955
v -0.776783 0.138307 -0.138335
v -0.7555 0.117005 -0.148979
v -0.744859 0.148932 -0.138335
v -0.734218 0.0744521 -0.159623
v -0.463616 -0.152495 -0.120599
v -0.463616 -0.0425275 -0.159623
v -0.47757 -0.244718 -0.0399075
v -0.481535 -0.250031 -0.0372499
v -0.46472 -0.237653 -0.0319346
v -0.463616 -0.230747 -0.0239482
v -0.463616 0.246043 -0.0306058
v -0.463616 0.242697 -0.0272702
v -0.463616 0.16317 -0.131243
v -0.712985 0.127683 -0.148979
v -0.463616 0.0744521 -0.159623
v -0.463616 -0.173798 -0.0993109
v -0.466928 -0.234094 -0.0399075
v -0.463616 -0.184422 -0.0886804
v -0.463616 -0.230747 -0.0399075
v -0.463616 -0.235422 -0.0319346
v -0.463616 -0.233722 -0.0285855
v -0.463616 0.127683 -0.148979
f 1057 1058 1059
f 1057 1059 1060
f 1057 1060 1061
f 1057 1061 1074
f 1057 1074 1062
f 1057 1062 1063
f 1057 1063 1064
f 1057 1064 1065
f 1057 1065 1058
f 1058 1066 1059
f 1058 1065 1066
f 1059 1066 1067
f 1059 1067 1068
f 1059 1068 1069
f 1059 1069 1060
f 1060 1069 1068
f 1060 1068 1070
f 1060 1070 1071
f 1060 1071 1072
f 1060 1072 1061
f 1061 1072 1073
f 1061 1073 1099
f 1061 1099 1074
f 1062 1074 1075
f 1062 1075 1076
f 1062 1076 1077
f 1062 1077 1078
f 1062 1078 1079
f 1062 1079 1080
f 1062 1080 1063
f 1063 1080 1064
f 1064 1080 1106
f 1064 1106 1081
f 1064 1081 1065
f 1065 1081 1082
f 1065 1082 1083
f 1065 1083 1084
f 1065 1084 1085
f 1065 1085 1067
f 1065 1067 1066
f 1067 1086 1087
f 1067 1087 1068
f 1067 1085 1084
f 1067 1084 1111
f 1067 1111 1114
f 1067 1114 1086
f 1068 1087 1088
f 1068 1088 1089
f 1068 1089 1070
f 1070 1089 1071
f 1071 1090 1072
f 1071 1089 1091
f 1071 1091 1092
f 1071 1092 1093
f 1071 1093 1090
f 1072 1090 1094
f 1072 1094 1073
f 1073 1094 1095
f 1073 1095 1096
f 1073 1096 1097
f 1073 1097 1098
f 1073 1098 1099
f 1074 1099 1075
f 1075 1099 1076
f 1076 1099 1100
f 1076 1100 1101
f 1076 1101 1102
f 1076 1102 1103
f 1076 1103 1077
f 1077 1103 1129
f 1077 1129 1104
f 1077 1104 1078
f 1078 1080 1079
f 1078 1104 1080
f 1080 1104 1130
f 1080 1130 1105
f 1080 1105 1106
f 1081 1106 1107
f 1081 1107 1082
f 1082 1107 1108
f 1082 1108 1083
f 1083 1108 1084
f 1084 1108 1109
f 1084 1109 1110
f 1084 1110 1111
f 1086 1112 1113
f 1086 1113 1088
f 1086 1088 1087
f 1086 1114 1112
f 1088 1113 1139
f 1088 1139 1115
f 1088 1115 1116
f 1088 1116 1089
f 1089 1116 1117
f 1089 1117 1091
f 1090 1093 1121
f 1090 1121 1094
f 1091 1117 1118
f 1091 1118 1119
f 1091 1119 1092
f 1092 1119 1120
f 1092 1120 1093
f 1093 1120 1121
f 1094 1121 1095
f 1095 1122 1148
f 1095 1148 1177
f 1095 1177 1212
f 1095 1212 1263
f 1095 1263 1300
f 1095 1300 1304
f 1095 1304 1309
f 1095 1309 1266
f 1095 1266 1215
f 1095 1215 1182
f 1095 1182 1150
f 1095 1150 1125
f 1095 1125 1098
f 1095 1098 1097
f 1095 1097 1096
f 1095 1121 1123
f 1095 1123 1124
f 1095 1124 1122
f 1098 1125 1100
f 1098 1100 1099
f 1100 1125 1101
f 1101 1126 1102
f 1101 1125 1126
f 1102 1126 1127
f 1102 1127 1128
f 1102 1128 1103
f 1103 1128 1129
f 1104 1129 1130
f 1105 1130 1131
f 1105 1131 1106
f 1106 1131 1107
f 1107 1132 1109
f 1107 1109 1108
f 1107 1131 1132
f 1109 1132 1110
f 1110 1132 1133
f 1110 1133 1134
f 1110 1134 1111
f 1111 1134 1140
f 1111 1140 1114
f 1112 1135 1136
f 1112 1136 1137
f 1112 1137 1113
f 1112 1114 1140
f 1112 1140 1135
f 1113 1137 1138
f 1113 1138 1139
f 1115 1139 1141
f 1115 1141 1142
f 1115 1142 1116
f 1116 1142 1143
f 1116 1143 1117
f 1117 1143 1144
f 1117 1144 1118
f 1118 1144 1145
f 1118 1145 1146
f 1118 1146 1119
f 1119 1146 1120
f 1120 1124 1123
f 1120 1123 1121
f 1120 1146 1147
f 1120 1147 1149
f 1120 1149 1124
f 1122 1124 1148
f 1124 1149 1148
f 1125 1150 1151
f 1125 1151 1152
f 1125 1152 1126
f 1126 1152 1127
f 1127 1152 1153
f 1127 1153 1128
f 1128 1154 1130
f 1128 1130 1129
f 1128 1153 1154
f 1130 1154 1155
f 1130 1155 1131
f 1131 1155 1156
f 1131 1156 1132
f 1132 1156 1155
f 1132 1155 1157
f 1132 1157 1158
f 1132 1158 1159
f 1132 1159 1133
f 1133 1159 1160
f 1133 1160 1134
f 1134 1160 1135
f 1134 1135 1140
f 1135 1161 1162
f 1135 1162 1136
f 1135 1160 1198
f 1135 1198 1161
f 1136 1162 1163
f 1136 1163 1164
f 1136 1164 1165
f 1136 1165 1137
f 1137 1165 1138
f 1138 1165 1141
f 1138 1141 1139
f 1141 1165 1201
f 1141 1201 1166
f 1141 1166 1204
f 1141 1204 1167
f 1141 1167 1206
f 1141 1206 1168
f 1141 1168 1169
f 1141 1169 1142
f 1142 1169 1143
f 1143 1169 1144
f 1144 1169 1170
f 1144 1170 1145
f 1145 1170 1169
f 1145 1169 1171
f 1145 1171 1172
f 1145 1172 1173
f 1145 1173 1174
f 1145 1174 1175
f 1145 1175 1146
f 1146 1175 1176
f 1146 1176 1147
f 1147 1176 1149
f 1148 1149 1177
f 1149 1176 1178
f 1149 1178 1179
f 1149 1179 1177
f 1150 1180 1181
f 1150 1181 1151
f 1150 1182 1180
f 1151 1183 1153
f 1151 1153 1152
f 1151 1181 1184
f 1151 1184 1183
f 1153 1183 1185
f 1153 1185 1186
f 1153 1186 1154
f 1154 1186 1155
f 1155 1187 1157
f 1155 1186 1188
f 1155 1188 1231
f 1155 1231 1189
f 1155 1189 1190
f 1155 1190 1187
f 1157 1187 1158
f 1158 1187 1191
f 1158 1191 1196
f 1158 1196 1192
f 1158 1192 1159
f 1159 1193 1194
f 1159 1194 1195
f 1159 1195 1160
f 1159 1192 1196
f 1159 1196 1197
f 1159 1197 1193
f 1160 1195 1198
f 1161 1199 1163
f 1161 1163 1162
f 1161 1198 1236
f 1161 1236 1199
f 1163 1200 1201
f 1163 1201 1164
f 1163 1199 1200
f 1164 1201 1165
f 1166 1201 1241
f 1166 1241 1202
f 1166 1202 1203
f 1166 1203 1204
f 1167 1204 1205
f 1167 1205 1206
f 1168 1206 1169
f 1169 1206 1171
f 1171 1206 1207
f 1171 1207 1208
f 1171 1208 1172
f 1172 1208 1209
f 1172 1209 1173
f 1173 1209 1256
f 1173 1256 1210
f 1173 1210 1174
f 1174 1178 1176
f 1174 1176 1175
f 1174 1210 1211
f 1174 1211 1178
f 1177 1179 1178
f 1177 1178 1212
f 1178 1211 1213
f 1178 1213 1212
f 1180 1184 1181
f 1180 1182 1214
f 1180 1214 1184
f 1182 1215 1216
f 1182 1216 1214
f 1183 1184 1185
f 1184 1214 1217
f 1184 1217 1218
f 1184 1218 1219
f 1184 1219 1220
f 1184 1220 1221
f 1184 1221 1222
f 1184 1222 1223
f 1184 1223 1185
f 1185 1223 1224
f 1185 1224 1225
f 1185 1225 1186
f 1186 1225 1226
f 1186 1226 1188
f 1187 1227 1228
f 1187 1228 1229
f 1187 1229 1196
f 1187 1196 1191
f 1187 1190 1230
f 1187 1230 1227
f 1188 1226 1231
f 1189 1231 1232
f 1189 1232 1190
f 1190 1232 1233
f 1190 1233 1230
f 1193 1234 1194
f 1193 1197 1235
f 1193 1235 1234
f 1194 1198 1195
f 1194 1234 1236
f 1194 1236 1198
f 1196 1237 1197
f 1196 1229 1237
f 1197 1237 1235
f 1199 1236 1238
f 1199 1238 1239
f 1199 1239 1200
f 1200 1239 1240
f 1200 1240 1202
f 1200 1202 1241
f 1200 1241 1201
f 1202 1242 1246
f 1202 1246 1243
f 1202 1243 1203
f 1202 1240 1244
f 1202 1244 1242
f 1203 1245 1248
f 1203 1248 1205
f 1203 1205 1204
f 1203 1243 1246
f 1203 1246 1247
f 1203 1247 1245
f 1205 1248 1249
f 1205 1249 1250
f 1205 1250 1251
f 1205 1251 1207
f 1205 1207 1206
f 1207 1209 1208
f 1207 1251 1250
f 1207 1250 1252
f 1207 1252 1293
f 1207 1293 1253
f 1207 1253 1254
f 1207 1254 1255
f 1207 1255 1256
f 1207 1256 1209
f 1210 1256 1211
f 1211 1256 1257
f 1211 1257 1258
f 1211 1258 1259
f 1211 1259 1264
f 1211 1264 1213
f 1212 1213 1260
f 1212 1260 1261
f 1212 1261 1262
f 1212 1262 1263
f 1213 1264 1260
f 1214 1216 1267
f 1214 1267 1265
f 1214 1265 1268
f 1214 1268 1217
f 1215 1266 1267
f 1215 1267 1216
f 1217 1268 1311
f 1217 1311 1269
f 1217 1269 1270
f 1217 1270 1219
f 1217 1219 1218
f 1219 1271 1272
f 1219 1272 1220
f 1219 1270 1271
f 1220 1272 1273
f 1220 1273 1231
f 1220 1231 1224
f 1220 1224 1221
f 1221 1224 1222
f 1222 1224 1223
f 1224 1231 1225
f 1225 1231 1226
f 1227 1230 1275
f 1227 1275 1228
f 1228 1274 1277
f 1228 1277 1229
f 1228 1275 1276
f 1228 1276 1274
f 1229 1277 1237
f 1230 1233 1278
f 1230 1278 1275
f 1231 1273 1279
f 1231 1279 1233
f 1231 1233 1232
f 1233 1279 1278
f 1234 1235 1280
f 1234 1280 1236
f 1235 1237 1280
f 1236 1280 1238
f 1237 1277 1281
f 1237 1281 1282
f 1237 1282 1280
f 1238 1283 1239
f 1238 1280 1283
f 1239 1283 1284
f 1239 1284 1285
f 1239 1285 1240
f 1240 1285 1286
f 1240 1286 1242
f 1240 1242 1244
f 1242 1286 1246
f 1245 1247 1287
f 1245 1287 1288
f 1245 1288 1292
f 1245 1292 1249
f 1245 1249 1248
f 1246 1286 1289
f 1246 1289 1247
f 1247 1289 1290
f 1247 1290 1291
f 1247 1291 1287
f 1249 1292 1293
f 1249 1293 1250
f 1250 1293 1252
f 1253 1293 1294
f 1253 1294 1254
f 1254 1294 1295
f 1254 1295 1258
f 1254 1258 1255
f 1255 1258 1257
f 1255 1257 1256
f 1258 1296 1297
f 1258 1297 1298
f 1258 1298 1259
f 1258 1295 1296
f 1259 1298 1299
f 1259 1299 1264
f 1260 1299 1262
f 1260 1262 1261
f 1260 1264 1299
f 1262 1300 1263
f 1262 1299 1301
f 1262 1301 1302
f 1262 1302 1336
f 1262 1336 1303
f 1262 1303 1304
f 1262 1304 1300
f 1265 1305 1268
f 1265 1267 1306
f 1265 1306 1305
f 1266 1307 1308
f 1266 1308 1267
f 1266 1309 1307
f 1267 1308 1306
f 1268 1305 1310
f 1268 1310 1311
f 1269 1311 1351
f 1269 1351 1312
f 1269 1312 1313
f 1269 1313 1270
f 1270 1313 1271
f 1271 1313 1312
f 1271 1312 1314
f 1271 1314 1315
f 1271 1315 1279
f 1271 1279 1272
f 1272 1279 1273
f 1274 1316 1317
f 1274 1317 1318
f 1274 1318 1281
f 1274 1281 1277
f 1274 1276 1320
f 1274 1320 1316
f 1275 1278 1319
f 1275 1319 1276
f 1276 1319 1320
f 1278 1279 1321
f 1278 1321 1319
f 1279 1315 1354
f 1279 1354 1321
f 1280 1282 1281
f 1280 1281 1322
f 1280 1322 1323
f 1280 1323 1283
f 1281 1318 1317
f 1281 1317 1322
f 1283 1323 1358
f 1283 1358 1369
f 1283 1369 1360
f 1283 1360 1326
f 1283 1326 1324
f 1283 1324 1284
f 1284 1324 1286
f 1284 1286 1285
f 1286 1324 1326
f 1286 1326 1289
f 1287 1291 1288
f 1288 1325 1292
f 1288 1291 1325
f 1289 1326 1360
f 1289 1360 1327
f 1289 1327 1328
f 1289 1328 1290
f 1290 1328 1329
f 1290 1329 1291
f 1291 1329 1330
f 1291 1330 1325
f 1292 1325 1331
f 1292 1331 1293
f 1293 1331 1332
f 1293 1332 1295
f 1293 1295 1294
f 1295 1332 1296
f 1296 1332 1297
f 1297 1331 1333
f 1297 1333 1334
f 1297 1334 1301
f 1297 1301 1298
f 1297 1332 1331
f 1298 1301 1299
f 1301 1334 1302
f 1302 1334 1335
f 1302 1335 1363
f 1302 1363 1336
f 1303 1336 1337
f 1303 1337 1338
f 1303 1338 1304
f 1304 1338 1337
f 1304 1337 1364
f 1304 1364 1375
f 1304 1375 1374
f 1304 1374 1373
f 1304 1373 1372
f 1304 1372 1370
f 1304 1370 1359
f 1304 1359 1330
f 1304 1330 1329
f 1304 1329 1328
f 1304 1328 1327
f 1304 1327 1360
f 1304 1360 1369
f 1304 1369 1376
f 1304 1376 1367
f 1304 1367 1351
f 1304 1351 1350
f 1304 1350 1349
f 1304 1349 1348
f 1304 1348 1340
f 1304 1340 1365
f 1304 1365 1366
f 1304 1366 1345
f 1304 1345 1344
f 1304 1344 1343
f 1304 1343 1342
f 1304 1342 1309
f 1305 1339 1340
f 1305 1340 1310
f 1305 1306 1339
f 1306 1308 1341
f 1306 1341 1339
f 1307 1342 1343
f 1307 1343 1344
f 1307 1344 1345
f 1307 1345 1346
f 1307 1346 1341
f 1307 1341 1308
f 1307 1309 1342
f 1310 1347 1311
f 1310 1340 1348
f 1310 1348 1349
f 1310 1349 1350
f 1310 1350 1347
f 1311 1347 1350
f 1311 1350 1351
f 1312 1351 1367
f 1312 1367 1352
f 1312 1352 1353
f 1312 1353 1319
f 1312 1319 1354
f 1312 1354 1314
f 1314 1354 1315
f 1316 1320 1355
f 1316 1355 1356
f 1316 1356 1317
f 1317 1356 1358
f 1317 1358 1323
f 1317 1323 1322
f 1319 1352 1320
f 1319 1321 1354
f 1319 1353 1352
f 1320 1352 1357
f 1320 1357 1355
f 1325 1330 1359
f 1325 1359 1331
f 1331 1361 1362
f 1331 1362 1335
f 1331 1335 1333
f 1331 1359 1361
f 1333 1335 1334
f 1335 1362 1361
f 1335 1361 1371
f 1335 1371 1363
f 1336 1363 1364
f 1336 1364 1337
f 1339 1346 1340
f 1339 1341 1346
f 1340 1346 1365
f 1345 1366 1346
f 1346 1366 1365
f 1352 1367 1376
f 1352 1376 1368
f 1352 1368 1357
f 1355 1357 1356
f 1356 1368 1358
f 1356 1357 1368
f 1358 1368 1376
f 1358 1376 1369
f 1359 1370 1361
f 1361 1370 1372
f 1361 1372 1371
f 1363 1371 1373
f 1363 1373 1374
f 1363 1374 1375
f 1363 1375 1364
f 1371 1372 1373
