# https://github.com/mikedh/trimesh
v -0.49571600 -0.53109700 0.03569870
v -0.46743900 -0.59128700 0.03569870
v -0.46915000 -0.59299900 0.04426140
v -0.47799300 -0.58417500 0.07082110
v -0.49571600 -0.53109700 0.08852240
v -0.49571600 0.51333700 0.03569870
v -0.44847900 -0.62553100 0.03569870
v -0.46620200 -0.60775000 0.06492070
v -0.47209800 -0.59602900 0.07672150
v -0.47799300 -0.58417500 0.08852240
v -0.47209800 -0.59602900 0.09442280
v -0.48978400 -0.54281900 0.09442280
v -0.49127700 -0.51331700 0.10845000
v -0.49571600 -0.49566800 0.10623900
v -0.49571600 0.51333700 0.08852240
v -0.49560700 0.51360100 0.03569870
v -0.43079200 -0.64317900 0.03569870
v -0.44847900 -0.62553100 0.08262200
v -0.46620200 -0.60775000 0.08262200
v -0.46915000 -0.59299900 0.10180200
v -0.48683700 -0.53992100 0.10180200
v -0.41896400 -0.64910600 0.09442280
v -0.45142700 -0.61078000 0.10180200
v -0.48683700 -0.50449200 0.11948800
v -0.48978400 -0.49566800 0.11802500
v -0.48978400 -0.35395100 0.15342700
v -0.49571600 -0.35395100 0.14162600
v -0.49127700 0.52216200 0.09738080
v -0.47209800 0.56062000 0.08852240
v -0.49571600 0.38940100 0.12392500
v -0.47209800 0.56062000 0.03569870
v -0.43079200 -0.64317900 0.08262200
v -0.40382500 -0.66109200 0.03569870
v -0.46030600 -0.58417500 0.10623900
v -0.39833000 -0.66385700 0.03983990
v -0.39108800 -0.66807200 0.03569870
v -0.34818100 -0.68453500 0.09442280
v -0.38060600 -0.66385700 0.10180200
v -0.41601700 -0.64607700 0.10180200
v -0.43374000 -0.62842800 0.10180200
v -0.42489600 -0.61960400 0.10623900
v -0.47799300 -0.49566800 0.12392500
v -0.48683700 -0.36290800 0.15490600
v -0.48978400 -0.24779600 0.17112800
v -0.49571600 -0.24779600 0.15932800
v -0.48021300 0.53111800 0.10180200
v -0.45586700 0.59302000 0.09738080
v -0.49127700 0.39822600 0.13276800
v -0.46030600 0.58419600 0.08852240
v -0.49127700 0.30971900 0.15048500
v -0.49571600 0.21238800 0.15932800
v -0.46030600 0.58419600 0.03569870
v -0.38948600 -0.66873100 0.03569870
v -0.33635300 -0.69033100 0.08852240
v -0.33635300 -0.68453500 0.10033900
v -0.34519600 -0.68150600 0.10180200
v -0.37176300 -0.65503300 0.10623900
v -0.40717300 -0.63725300 0.10623900
v -0.47799300 -0.35395100 0.15932800
v -0.47799300 -0.24779600 0.17702900
v -0.48683700 -0.25662000 0.17260700
v -0.48683700 -0.06195760 0.19030900
v -0.48978400 -0.05300160 0.18883000
v -0.49571600 -0.05300160 0.17702900
v -0.44480300 0.60184400 0.10180200
v -0.44847900 0.60777100 0.08852240
v -0.48978400 0.38940100 0.13572600
v -0.48388900 0.40125500 0.13572600
v -0.45430200 0.59618100 0.03569870
v -0.49127700 0.22121200 0.16818600
v -0.49571600 -0.00005545 0.17702900
v -0.33635300 -0.69033100 0.03569870
v -0.26556900 -0.69033100 0.08852240
v -0.26556900 -0.68453500 0.10033900
v -0.33635300 -0.67268200 0.10623900
v -0.14165200 -0.24779600 0.17702900
v -0.47799300 -0.05300160 0.19474600
v -0.48978400 -0.00005545 0.18883000
v -0.49127700 0.00876890 0.18588700
v -0.44258300 0.58419600 0.10623900
v -0.42489600 0.60184400 0.10623900
v -0.43079200 0.61369800 0.10033900
v -0.43814300 0.61066900 0.09738080
v -0.47799300 0.38940100 0.14162600
v -0.44847900 0.60777100 0.03569870
v -0.42489600 0.61962500 0.08852240
v -0.44829700 0.60790300 0.03569870
v -0.48978400 0.21238800 0.17112800
v -0.26538700 -0.69033100 0.03569870
v -0.25672600 -0.68598400 0.09738080
v -0.24788200 -0.67492100 0.10180200
v -0.26556900 -0.67268200 0.10623900
v -0.12986100 -0.25372300 0.17112800
v -0.14165200 -0.05300160 0.19474600
v -0.14165200 -0.35395100 0.15932800
v -0.47799300 -0.00005545 0.19474600
v -0.38948600 0.61962500 0.10623900
v -0.47799300 0.21238800 0.17702900
v -0.35997200 0.64912700 0.10033900
v -0.43650600 0.61383000 0.03569870
v -0.36586700 0.64912700 0.08852240
v -0.25377800 -0.68453500 0.03569870
v -0.25377800 -0.68453500 0.08852240
v -0.23015900 -0.67268200 0.08852240
v -0.22131600 -0.66820400 0.09738080
v -0.21247200 -0.65714000 0.10180200
v -0.23015900 -0.65503300 0.10623900
v -0.12392900 -0.24779600 0.15932800
v -0.12986100 -0.05892840 0.18883000
v -0.12986100 -0.35987800 0.15342700
v -0.14165200 -0.00005545 0.19474600
v -0.19474900 -0.63949200 0.10180200
v -0.17706200 -0.62184300 0.10180200
v -0.15933900 -0.60406300 0.10180200
v -0.14165200 -0.49566800 0.12392500
v -0.35407600 0.63727300 0.10623900
v -0.28329300 0.21238800 0.17702900
v -0.27146500 0.64912700 0.10033900
v -0.35407600 0.65492200 0.08852240
v -0.37747700 0.64333200 0.03569870
v -0.36586700 0.64912700 0.03569870
v -0.21818600 -0.66675500 0.03569870
v -0.20657700 -0.66082800 0.08852240
v -0.12392900 -0.05300160 0.17702900
v -0.12392900 -0.35395100 0.14162600
v -0.12986100 -0.00598225 0.18883000
v -0.12986100 -0.50159500 0.11802500
v -0.12392900 -0.49566800 0.10623900
v -0.12986100 0.18881200 0.17112800
v -0.14165200 0.19473900 0.17702900
v -0.18885400 -0.64317900 0.08852240
v -0.17116700 -0.62553100 0.08852240
v -0.15344400 -0.60775000 0.08852240
v -0.15049600 -0.59747700 0.09738080
v -0.14754800 -0.59010200 0.10033900
v -0.26556900 0.63727300 0.10623900
v -0.24198700 0.64320000 0.09442280
v -0.26556900 0.65492200 0.08852240
v -0.23015900 0.61962500 0.10623900
v -0.22131600 0.62844900 0.09738080
v -0.35407600 0.65492200 0.03569870
v -0.20657700 -0.66082800 0.03569870
v -0.12392900 -0.00005545 0.17702900
v -0.12986100 -0.55467300 0.10033900
v -0.12392900 -0.54874600 0.08852240
v -0.12392900 0.19473900 0.15932800
v -0.12986100 0.29496800 0.15342700
v -0.14165200 0.30089400 0.15932800
v -0.18885400 -0.64317900 0.03569870
v -0.17116700 -0.62553100 0.03569870
v -0.15344400 -0.60775000 0.03569870
v -0.15337100 -0.60761900 0.03569870
v -0.14754800 -0.59602900 0.08852240
v -0.25377800 0.64912700 0.08262200
v -0.20657700 0.62542000 0.09442280
v -0.23015900 0.63727300 0.08852240
v -0.21218100 0.62831700 0.03569870
v -0.26556900 0.65492200 0.03569870
v -0.26527800 0.65479100 0.03569870
v -0.15933900 0.54876700 0.10623900
v -0.19769700 0.59894700 0.10328100
v -0.21542000 0.61659600 0.10328100
v -0.14154300 -0.58404300 0.03569870
v -0.12392900 -0.54874600 0.03569870
v -0.12392900 0.30089400 0.14162600
v -0.12986100 0.43668400 0.11802500
v -0.14165200 0.37175300 0.14162600
v -0.14754800 -0.59602900 0.03569870
v -0.25377800 0.64912700 0.03569870
v -0.20657700 0.62542000 0.03569870
v -0.18885400 0.60777100 0.09442280
v -0.16821900 0.59302000 0.04426140
v -0.14165200 0.51333700 0.10623900
v -0.14754800 0.54284000 0.10033900
v -0.15344400 0.57234200 0.09442280
v -0.16232300 0.56351800 0.10328100
v -0.17116700 0.59012300 0.09442280
v -0.12392900 0.51333700 0.03569870
v -0.12392900 0.37175300 0.12392500
v -0.12392900 0.51333700 0.08852240
v -0.12986100 0.50741100 0.10033900
v -0.16821900 0.59302000 0.03569870
v -0.15064100 0.56681000 0.03569870
v -0.15344400 0.57234200 0.03569870
v -0.13575700 0.53691300 0.09442280
v -0.14754800 0.56062000 0.08262200
v -0.14136100 0.54824000 0.03569870
f 99 138 119
f 103 122 104
f 101 121 120
f 101 141 121
f 104 122 123
f 101 119 141
f 99 119 101
f 102 122 103
f 99 118 138
f 97 98 116
f 99 116 136
f 98 136 116
f 98 117 136
f 97 116 99
f 96 117 98
f 96 111 117
f 104 123 105
f 95 115 127
f 95 127 110
f 99 136 118
f 105 123 106
f 109 143 126
f 106 131 112
f 112 132 113
f 95 114 115
f 112 131 132
f 111 130 117
f 111 129 130
f 111 126 129
f 110 128 125
f 110 127 128
f 109 124 143
f 108 143 124
f 108 146 143
f 108 165 146
f 108 179 165
f 108 180 179
f 108 178 180
f 108 164 178
f 108 145 164
f 108 128 145
f 108 125 128
f 106 123 131
f 95 113 114
f 77 94 111
f 95 106 112
f 81 84 98
f 81 97 82
f 80 84 81
f 78 96 88
f 77 111 96
f 76 110 93
f 76 95 110
f 76 92 95
f 76 93 94
f 74 91 92
f 74 90 91
f 73 90 74
f 73 89 90
f 70 78 88
f 70 79 78
f 67 98 84
f 67 88 98
f 67 84 68
f 113 132 133
f 81 98 97
f 82 97 99
f 82 99 86
f 86 99 101
f 95 107 106
f 94 126 111
f 94 109 126
f 93 125 108
f 93 110 125
f 93 109 94
f 93 124 109
f 93 108 124
f 92 107 95
f 95 112 113
f 91 107 92
f 90 106 91
f 90 105 106
f 90 104 105
f 90 103 104
f 89 103 90
f 89 102 103
f 88 96 98
f 86 120 100
f 86 101 120
f 91 106 107
f 113 133 114
f 155 182 170
f 114 134 135
f 160 175 176
f 160 181 174
f 160 173 181
f 66 87 85
f 155 172 182
f 155 171 172
f 155 161 171
f 155 162 161
f 155 157 156
f 155 170 157
f 154 169 159
f 154 157 169
f 153 168 163
f 152 168 153
f 148 167 160
f 147 167 148
f 147 166 167
f 147 179 166
f 147 165 179
f 160 176 161
f 145 163 164
f 160 167 173
f 161 176 177
f 183 186 187
f 180 185 181
f 180 187 186
f 178 187 180
f 175 186 183
f 175 180 186
f 175 185 180
f 175 177 176
f 175 183 184
f 174 185 175
f 174 181 185
f 172 184 182
f 172 175 184
f 172 177 175
f 171 177 172
f 166 173 167
f 166 181 173
f 166 180 181
f 166 179 180
f 161 177 171
f 145 153 163
f 139 148 160
f 139 155 140
f 129 165 147
f 129 146 165
f 128 144 145
f 127 144 128
f 127 135 144
f 126 146 129
f 126 143 146
f 123 149 131
f 123 142 149
f 122 142 123
f 119 158 141
f 119 138 158
f 118 140 137
f 118 139 140
f 118 136 139
f 118 137 138
f 117 130 136
f 114 127 115
f 114 135 127
f 129 147 148
f 129 148 130
f 130 148 136
f 131 149 150
f 139 162 155
f 139 161 162
f 139 160 161
f 138 159 158
f 138 154 159
f 137 157 154
f 137 156 157
f 137 155 156
f 137 140 155
f 114 133 134
f 137 154 138
f 135 145 144
f 135 153 145
f 134 153 135
f 133 153 134
f 133 152 153
f 133 151 152
f 132 151 133
f 132 150 151
f 131 150 132
f 136 148 139
f 66 100 87
f 160 174 175
f 66 82 86
f 7 19 8
f 7 18 19
f 7 32 18
f 7 17 32
f 6 15 16
f 5 13 14
f 5 12 13
f 5 11 12
f 5 10 11
f 4 11 10
f 4 9 11
f 4 8 9
f 3 7 8
f 2 7 3
f 1 7 2
f 1 17 7
f 1 33 17
f 1 36 33
f 1 53 36
f 8 19 11
f 1 72 53
f 8 11 9
f 11 21 12
f 20 34 42
f 20 23 34
f 18 32 22
f 17 33 32
f 16 29 31
f 15 30 28
f 15 29 16
f 15 28 29
f 14 26 27
f 14 25 26
f 13 25 14
f 13 24 25
f 13 20 24
f 13 21 20
f 12 21 13
f 11 23 20
f 11 22 23
f 11 18 22
f 11 19 18
f 11 20 21
f 1 89 72
f 1 102 89
f 1 122 102
f 1 69 85
f 1 52 69
f 1 31 52
f 1 16 31
f 1 6 16
f 1 15 6
f 1 30 15
f 1 51 30
f 1 71 51
f 1 64 71
f 1 45 64
f 1 27 45
f 1 14 27
f 1 5 14
f 1 10 5
f 1 4 10
f 1 3 4
f 1 2 3
f 66 86 100
f 1 85 87
f 1 87 100
f 1 100 120
f 1 120 121
f 1 142 122
f 1 149 142
f 1 150 149
f 1 151 150
f 1 152 151
f 1 168 152
f 1 163 168
f 1 164 163
f 1 178 164
f 20 42 24
f 1 187 178
f 1 184 183
f 1 182 184
f 1 170 182
f 1 157 170
f 1 169 157
f 1 159 169
f 1 158 159
f 1 141 158
f 1 121 141
f 1 183 187
f 22 32 33
f 3 8 4
f 22 35 36
f 55 92 75
f 55 74 92
f 54 74 55
f 54 73 74
f 54 89 73
f 54 72 89
f 53 72 54
f 51 79 70
f 51 71 79
f 50 88 67
f 50 70 88
f 49 69 52
f 49 66 69
f 48 68 65
f 48 67 68
f 48 50 67
f 47 66 49
f 47 65 66
f 46 48 65
f 55 75 56
f 57 75 59
f 57 59 58
f 59 75 60
f 66 83 82
f 66 85 69
f 65 84 80
f 65 68 84
f 65 83 66
f 65 82 83
f 65 81 82
f 65 80 81
f 22 33 35
f 46 65 47
f 63 79 64
f 62 78 63
f 62 96 78
f 62 77 96
f 61 77 62
f 60 92 76
f 60 75 92
f 60 77 61
f 60 94 77
f 60 76 94
f 63 78 79
f 44 64 45
f 64 79 71
f 44 62 63
f 29 52 31
f 29 49 52
f 29 47 49
f 28 48 46
f 28 30 48
f 28 47 29
f 28 46 47
f 26 45 27
f 26 44 45
f 30 50 48
f 26 43 44
f 24 43 25
f 24 42 43
f 23 41 34
f 22 40 23
f 22 39 40
f 22 38 39
f 22 37 38
f 44 63 64
f 22 36 37
f 25 43 26
f 30 51 70
f 23 40 41
f 33 36 35
f 44 61 62
f 30 70 50
f 43 60 61
f 43 59 60
f 43 61 44
f 41 58 43
f 39 41 40
f 39 58 41
f 38 58 39
f 38 57 58
f 43 58 59
f 38 56 75
f 37 56 38
f 37 55 56
f 37 54 55
f 36 54 37
f 36 53 54
f 34 43 42
f 34 41 43
f 38 75 57

