# https://github.com/mikedh/trimesh
v -0.12360700 0.81438100 0.01770620
v -0.12360700 0.81422400 0.01802740
v -0.12360700 0.81438100 0.00829381
v -0.51341400 0.81438100 0.01770620
v -0.12360700 0.80848800 0.02950500
v -0.51931700 0.80848800 0.02950500
v -0.12360700 0.72475900 0.00829381
v -0.51341400 0.81438100 0.00829381
v -0.52522100 0.80848800 0.01770620
v -0.12360700 0.79700700 0.03524640
v -0.52669700 0.80553700 0.02655600
v -0.51341400 0.79668300 0.03540830
v -0.12360700 0.73767400 0.02360430
v -0.49570200 0.70746900 0.01770620
v -0.48257900 0.70746900 0.01310620
v -0.47970600 0.70746900 0.00829381
v -0.52522100 0.80848800 0.00829381
v -0.12360700 0.79668300 0.03540830
v -0.53112500 0.79668300 0.01770620
v -0.53112500 0.74357700 0.01770620
v -0.52522100 0.74357700 0.02950500
v -0.52522100 0.79668300 0.02950500
v -0.51341400 0.74357700 0.03540830
v -0.12360700 0.76127600 0.03540830
v -0.49570200 0.74357700 0.03540830
v -0.51341400 0.70746900 0.01770620
v -0.52697600 0.70746900 0.00829381
v -0.53112500 0.79668300 0.00829381
v -0.53112500 0.73416800 0.00829381
v -0.52925000 0.71553800 0.00829381
v -0.52669700 0.72587900 0.01991730
v -0.52226900 0.73472300 0.03098080
v -0.52522100 0.70746900 0.01180290
f 14 23 26
f 12 25 24
f 14 25 23
f 13 24 14
f 12 24 18
f 12 23 25
f 11 21 22
f 12 21 32
f 12 22 21
f 11 22 12
f 11 20 21
f 14 26 33
f 12 32 23
f 14 33 27
f 27 31 30
f 14 16 15
f 14 24 25
f 19 28 29
f 19 29 20
f 20 29 30
f 20 30 31
f 20 31 21
f 21 31 32
f 23 32 26
f 26 32 33
f 27 33 31
f 31 33 32
f 11 19 20
f 14 27 16
f 9 19 11
f 10 12 18
f 9 17 28
f 9 28 19
f 1 2 5
f 1 10 18
f 1 18 24
f 1 24 13
f 1 13 7
f 1 7 3
f 1 3 8
f 1 8 4
f 1 4 2
f 2 4 6
f 2 6 5
f 3 7 16
f 3 16 27
f 3 27 30
f 1 5 10
f 3 29 28
f 3 30 29
f 7 14 15
f 7 13 14
f 6 12 10
f 6 11 12
f 6 9 11
f 7 15 16
f 4 9 6
f 4 17 9
f 4 8 17
f 3 17 8
f 3 28 17
f 5 6 10

