# https://github.com/mikedh/trimesh
v -0.12360700 -0.81439100 -0.12391500
v -0.12360700 -0.81439100 -0.07083740
v -0.12360700 -0.80833300 -0.13572000
v 0.51337200 -0.81439100 -0.12391500
v 0.51337200 -0.81439100 -0.07083740
v -0.12360700 -0.80833300 -0.05880710
v 0.51926800 -0.80833300 -0.13572000
v -0.12360700 -0.77293800 -0.18884300
v 0.52663900 -0.80546300 -0.13276900
v 0.52516500 -0.80833300 -0.12391500
v 0.52221600 -0.80992700 -0.06198360
v 0.51337200 -0.80243400 -0.04722730
v -0.12360700 -0.80243400 -0.04722730
v 0.48389100 -0.77293800 -0.18884300
v -0.12360700 -0.76114000 -0.19474600
v 0.52516500 -0.80833300 -0.07083740
v 0.49126200 -0.77006900 -0.18589200
v 0.52516500 -0.79653500 -0.13572000
v 0.53112500 -0.79653500 -0.12391500
v 0.53112500 -0.79653500 -0.07083740
v 0.52663900 -0.79876700 -0.05312980
v 0.51337200 -0.78473700 -0.02951960
v -0.12360700 -0.78473700 -0.02951960
v 0.47799500 -0.76114000 -0.19474600
v -0.12360700 0.76114000 -0.19474600
v 0.48978800 -0.76114000 -0.18884300
v 0.52516500 0.79653500 -0.13572000
v 0.53112500 0.79653500 -0.12391500
v 0.53112500 -0.76114000 -0.03542220
v 0.52663900 -0.78107000 -0.03542220
v -0.12360700 -0.78457700 -0.02940700
v 0.52221600 -0.77453300 -0.02656840
v 0.51337200 -0.72574600 -0.00000694
v 0.47799500 0.76114000 -0.19474600
v -0.12360700 0.76145900 -0.19463300
v 0.48978800 0.76114000 -0.18884300
v 0.52221600 0.80546300 -0.13720700
v 0.52516500 0.80833300 -0.12981800
v 0.53112500 0.79653500 0.01770070
v 0.53112500 -0.72574600 -0.01771460
v 0.52516500 -0.76703900 -0.02361710
v -0.12360700 -0.73738400 -0.00579683
v 0.52221600 -0.73913800 -0.00886075
v -0.12360700 -0.72574600 -0.00000694
v 0.52516500 -0.73164500 -0.00590948
v 0.51337200 0.74344300 0.03540830
v 0.48683900 0.77006900 -0.19030800
v -0.12360700 0.77293800 -0.18884300
v 0.51337200 0.80833300 -0.13572000
v 0.51337200 0.81439100 -0.12391500
v 0.47799500 0.77293800 -0.18884300
v 0.52516500 0.80833300 0.01179810
v 0.52221600 0.80546300 0.02655450
v 0.52516500 0.79063600 0.02950580
v 0.53112500 0.74344300 0.01770070
v -0.07079820 0.74344300 0.03540830
v -0.12360700 0.76114000 0.03540830
v 0.52516500 0.73754400 0.02950580
v 0.51337200 0.79653500 0.03540830
v -0.12360700 0.77309800 -0.18861800
v -0.12360700 0.80849200 -0.13549500
v -0.12360700 0.81439100 -0.12391500
v 0.51337200 0.81439100 0.01770070
v 0.50747600 0.80833300 0.02950580
v -0.12360700 0.79653500 0.03540830
v -0.12360700 0.81439100 0.01770070
v -0.12360700 0.80833300 0.02950580
f 1 2 6
f 36 47 37
f 35 48 47
f 34 47 36
f 34 35 47
f 33 56 44
f 33 46 56
f 33 58 46
f 33 45 58
f 33 43 45
f 33 44 42
f 32 45 43
f 32 41 45
f 30 41 32
f 29 41 30
f 29 45 41
f 29 40 45
f 28 52 39
f 28 38 52
f 28 37 38
f 27 37 28
f 27 36 37
f 25 35 34
f 24 36 26
f 24 34 36
f 22 42 31
f 22 33 42
f 22 43 33
f 22 32 43
f 22 30 32
f 37 49 50
f 22 31 23
f 37 50 38
f 37 51 49
f 63 67 64
f 63 66 67
f 59 67 65
f 59 64 67
f 53 64 59
f 53 63 64
f 53 59 54
f 52 63 53
f 50 66 63
f 50 62 66
f 50 61 62
f 49 60 61
f 49 51 60
f 49 61 50
f 48 60 51
f 47 48 51
f 46 57 56
f 46 65 57
f 46 59 65
f 46 58 54
f 44 56 57
f 40 58 45
f 40 55 58
f 39 58 55
f 39 54 58
f 39 53 54
f 39 52 53
f 38 63 52
f 38 50 63
f 37 47 51
f 20 30 21
f 46 54 59
f 19 29 20
f 4 11 5
f 4 10 11
f 4 9 10
f 4 7 9
f 3 14 7
f 3 8 14
f 2 5 6
f 1 5 2
f 1 4 5
f 1 7 4
f 1 3 7
f 1 8 3
f 1 15 8
f 1 25 15
f 1 35 25
f 1 48 35
f 1 60 48
f 1 61 60
f 1 66 62
f 1 67 66
f 1 65 67
f 1 57 65
f 1 44 57
f 1 42 44
f 1 31 42
f 1 23 31
f 1 13 23
f 1 6 13
f 20 29 30
f 5 11 6
f 6 11 12
f 1 62 61
f 7 14 17
f 19 40 29
f 6 12 13
f 19 55 40
f 19 39 55
f 19 28 39
f 18 28 19
f 18 27 28
f 18 26 36
f 17 24 26
f 16 20 21
f 15 34 24
f 15 25 34
f 14 24 17
f 12 23 13
f 12 22 23
f 18 36 27
f 12 21 30
f 8 15 24
f 12 30 22
f 7 17 9
f 8 24 14
f 9 16 10
f 9 26 18
f 9 18 19
f 9 17 26
f 9 19 20
f 9 20 16
f 10 16 11
f 11 16 21
f 11 21 12

