# https://github.com/mikedh/trimesh
v -0.50038600 -0.53111200 0.00829384
v -0.49511600 -0.54824000 0.00829384
v -0.49570600 -0.53111200 0.03569870
v -0.50038600 -0.31869400 0.00829384
v -0.48214400 -0.58423000 0.00829384
v -0.47639500 -0.59671200 0.00829384
v -0.46743900 -0.59133900 0.03569870
v -0.49570600 -0.24760800 0.03569870
v -0.49950200 -0.31466400 0.00829384
v -0.49570600 -0.24788800 0.03540630
v -0.47856900 -0.12368400 0.03569870
v -0.47167700 -0.60286900 0.00829384
v -0.44849700 -0.62553800 0.03569870
v -0.47797900 -0.12396400 0.03540630
v -0.49283100 -0.30033500 0.00829384
v -0.47797900 -0.12334800 0.03569870
v -0.40666800 -0.67098800 0.00829384
v -0.43077000 -0.64322600 0.03569870
v -0.14165600 -0.12396400 0.03540630
v -0.47735300 -0.29753600 0.00829384
v -0.48535000 -0.29792800 0.00829384
v -0.14106600 -0.12334800 0.03569870
v -0.38945800 -0.67742500 0.00829384
v -0.33635200 -0.69041100 0.03569870
v -0.38945800 -0.66874900 0.03569870
v -0.39107900 -0.66807800 0.03569870
v -0.40383000 -0.66113700 0.03569870
v -0.14165600 -0.30212600 0.00829384
v -0.46489600 -0.29753600 0.00829384
v -0.13126300 -0.30677200 0.00829384
v -0.12392900 -0.24760800 0.03569870
v -0.12392900 -0.24788800 0.03540630
v -0.12986300 -0.24788800 0.02360460
v -0.12864600 -0.31869400 0.00829384
v -0.12949400 -0.31427200 0.00829384
v -0.35348900 -0.68985100 0.00829384
v -0.33635200 -0.69516900 0.00829384
v -0.26559300 -0.69041100 0.03569870
v -0.12392900 -0.54879900 0.03569870
v -0.12392900 -0.31869400 0.01770510
v -0.12392900 -0.43427800 0.00829384
v -0.26559300 -0.69516900 0.00829384
v -0.26537200 -0.69035500 0.03569870
v -0.14744200 -0.59581700 0.03569870
v -0.15068500 -0.60230900 0.00829384
v -0.12392900 -0.54879900 0.00829384
v -0.21613600 -0.67042900 0.00829384
v -0.24197000 -0.67865700 0.03569870
v -0.15344900 -0.60779500 0.03569870
v -0.15658100 -0.61406400 0.00829384
v -0.21149300 -0.66807800 0.00829384
v -0.20655400 -0.66091300 0.03569870
v -0.21838400 -0.66684600 0.03569870
v -0.17117500 -0.62553800 0.03569870
v -0.17393900 -0.64048300 0.00829384
v -0.16841100 -0.63354200 0.00829384
v -0.18573200 -0.65050200 0.00829384
v -0.18591600 -0.65061400 0.00885455
f 17 25 26
f 17 26 27
f 17 27 18
f 19 28 29
f 19 30 28
f 22 31 32
f 22 32 33
f 17 24 25
f 22 34 35
f 22 33 34
f 19 22 30
f 17 23 24
f 12 17 13
f 14 20 21
f 14 29 20
f 14 19 29
f 14 22 19
f 14 16 22
f 13 17 18
f 11 16 14
f 9 14 15
f 9 11 14
f 22 35 30
f 8 11 10
f 14 21 15
f 23 36 24
f 47 52 53
f 24 37 42
f 6 13 7
f 55 58 57
f 52 55 54
f 52 58 55
f 51 57 58
f 49 56 50
f 49 55 56
f 49 54 55
f 47 53 48
f 47 51 52
f 45 49 50
f 44 49 45
f 42 48 43
f 42 47 48
f 39 45 46
f 39 44 45
f 38 42 43
f 34 40 41
f 32 34 33
f 32 40 34
f 31 40 32
f 31 41 40
f 31 46 41
f 31 39 46
f 24 42 38
f 24 36 37
f 6 12 13
f 51 58 52
f 4 10 11
f 1 36 23
f 1 37 36
f 1 42 37
f 1 47 42
f 1 51 47
f 1 57 51
f 1 55 57
f 1 56 55
f 1 50 56
f 1 45 50
f 1 46 45
f 1 41 46
f 1 35 34
f 1 30 35
f 1 28 30
f 1 29 28
f 1 20 29
f 1 21 20
f 1 15 21
f 1 9 15
f 1 4 9
f 1 8 4
f 1 3 8
f 1 2 3
f 4 11 9
f 1 23 17
f 1 17 12
f 1 34 41
f 1 6 5
f 1 12 6
f 4 8 10
f 3 11 8
f 3 16 11
f 3 22 16
f 3 31 22
f 3 39 31
f 3 49 44
f 3 54 49
f 3 52 54
f 3 53 52
f 3 48 53
f 3 43 48
f 3 44 39
f 3 38 43
f 1 5 2
f 2 5 3
f 3 5 6
f 3 6 7
f 3 13 18
f 3 7 13
f 3 27 26
f 3 26 25
f 3 25 24
f 3 24 38
f 3 18 27

