o convex_0
v -0.123607 -0.814391 -0.123915
v -0.123607 -0.814391 -0.0708374
v -0.123607 -0.808333 -0.13572
v 0.513372 -0.814391 -0.123915
v 0.513372 -0.814391 -0.0708374
v -0.123607 -0.808333 -0.0588071
v 0.519268 -0.808333 -0.13572
v -0.123607 -0.772938 -0.188843
v 0.526639 -0.805463 -0.132769
v 0.525165 -0.808333 -0.123915
v 0.522216 -0.809927 -0.0619836
v 0.513372 -0.802434 -0.0472273
v -0.123607 -0.802434 -0.0472273
v 0.483891 -0.772938 -0.188843
v -0.123607 -0.76114 -0.194746
v 0.525165 -0.808333 -0.0708374
v 0.491262 -0.770069 -0.185892
v 0.525165 -0.796535 -0.13572
v 0.531125 -0.796535 -0.123915
v 0.531125 -0.796535 -0.0708374
v 0.526639 -0.798767 -0.0531298
v 0.513372 -0.784737 -0.0295196
v -0.123607 -0.784737 -0.0295196
v 0.477995 -0.76114 -0.194746
v -0.123607 0.76114 -0.194746
v 0.489788 -0.76114 -0.188843
v 0.525165 0.796535 -0.13572
v 0.531125 0.796535 -0.123915
v 0.531125 -0.76114 -0.0354222
v 0.526639 -0.78107 -0.0354222
v -0.123607 -0.784577 -0.029407
v 0.522216 -0.774533 -0.0265684
v 0.513372 -0.725746 -6.93537e-06
v 0.477995 0.76114 -0.194746
v -0.123607 0.761459 -0.194633
v 0.489788 0.76114 -0.188843
v 0.522216 0.805463 -0.137207
v 0.525165 0.808333 -0.129818
v 0.531125 0.796535 0.0177007
v 0.531125 -0.725746 -0.0177146
v 0.525165 -0.767039 -0.0236171
v -0.123607 -0.737384 -0.00579683
v 0.522216 -0.739138 -0.00886075
v -0.123607 -0.725746 -6.93537e-06
v 0.525165 -0.731645 -0.00590948
v 0.513372 0.743443 0.0354083
v 0.486839 0.770069 -0.190308
v -0.123607 0.772938 -0.188843
v 0.513372 0.808333 -0.13572
v 0.513372 0.814391 -0.123915
v 0.477995 0.772938 -0.188843
v 0.525165 0.808333 0.0117981
v 0.522216 0.805463 0.0265545
v 0.525165 0.790636 0.0295058
v 0.531125 0.743443 0.0177007
v -0.0707982 0.743443 0.0354083
v -0.123607 0.76114 0.0354083
v 0.525165 0.737544 0.0295058
v 0.513372 0.796535 0.0354083
v -0.123607 0.773098 -0.188618
v -0.123607 0.808492 -0.135495
v -0.123607 0.814391 -0.123915
v 0.513372 0.814391 0.0177007
v 0.507476 0.808333 0.0295058
v -0.123607 0.796535 0.0354083
v -0.123607 0.814391 0.0177007
v -0.123607 0.808333 0.0295058
f 1 2 6
f 1 6 13
f 1 13 23
f 1 23 31
f 1 31 42
f 1 42 44
f 1 44 57
f 1 57 65
f 1 65 67
f 1 67 66
f 1 66 62
f 1 62 61
f 1 61 60
f 1 60 48
f 1 48 35
f 1 35 25
f 1 25 15
f 1 15 8
f 1 8 3
f 1 3 7
f 1 7 4
f 1 4 5
f 1 5 2
f 2 5 6
f 3 8 14
f 3 14 7
f 4 7 9
f 4 9 10
f 4 10 11
f 4 11 5
f 5 11 6
f 6 11 12
f 6 12 13
f 7 14 17
f 7 17 9
f 8 15 24
f 8 24 14
f 9 16 10
f 9 17 26
f 9 26 18
f 9 18 19
f 9 19 20
f 9 20 16
f 10 16 11
f 11 16 21
f 11 21 12
f 12 21 30
f 12 30 22
f 12 22 23
f 12 23 13
f 14 24 17
f 15 25 34
f 15 34 24
f 16 20 21
f 17 24 26
f 18 26 36
f 18 36 27
f 18 27 28
f 18 28 19
f 19 28 39
f 19 39 55
f 19 55 40
f 19 40 29
f 19 29 20
f 20 29 30
f 20 30 21
f 22 31 23
f 22 30 32
f 22 32 43
f 22 43 33
f 22 33 42
f 22 42 31
f 24 34 36
f 24 36 26
f 25 35 34
f 27 36 37
f 27 37 28
f 28 37 38
f 28 38 52
f 28 52 39
f 29 40 45
f 29 45 41
f 29 41 30
f 30 41 32
f 32 41 45
f 32 45 43
f 33 44 42
f 33 43 45
f 33 45 58
f 33 58 46
f 33 46 56
f 33 56 44
f 34 35 47
f 34 47 36
f 35 48 47
f 36 47 37
f 37 49 50
f 37 50 38
f 37 47 51
f 37 51 49
f 38 50 63
f 38 63 52
f 39 52 53
f 39 53 54
f 39 54 58
f 39 58 55
f 40 55 58
f 40 58 45
f 44 56 57
f 46 58 54
f 46 54 59
f 46 59 65
f 46 65 57
f 46 57 56
f 47 48 51
f 48 60 51
f 49 61 50
f 49 51 60
f 49 60 61
f 50 61 62
f 50 62 66
f 50 66 63
f 52 63 53
f 53 59 54
f 53 63 64
f 53 64 59
f 59 64 67
f 59 67 65
f 63 66 67
f 63 67 64
o convex_1
v -0.495716 -0.531097 0.0356987
v -0.467439 -0.591287 0.0356987
v -0.46915 -0.592999 0.0442614
v -0.477993 -0.584175 0.0708211
v -0.495716 -0.531097 0.0885224
v -0.495716 0.513337 0.0356987
v -0.448479 -0.625531 0.0356987
v -0.466202 -0.60775 0.0649207
v -0.472098 -0.596029 0.0767215
v -0.477993 -0.584175 0.0885224
v -0.472098 -0.596029 0.0944228
v -0.489784 -0.542819 0.0944228
v -0.491277 -0.513317 0.10845
v -0.495716 -0.495668 0.106239
v -0.495716 0.513337 0.0885224
v -0.495607 0.513601 0.0356987
v -0.430792 -0.643179 0.0356987
v -0.448479 -0.625531 0.082622
v -0.466202 -0.60775 0.082622
v -0.46915 -0.592999 0.101802
v -0.486837 -0.539921 0.101802
v -0.418964 -0.649106 0.0944228
v -0.451427 -0.61078 0.101802
v -0.486837 -0.504492 0.119488
v -0.489784 -0.495668 0.118025
v -0.489784 -0.353951 0.153427
v -0.495716 -0.353951 0.141626
v -0.491277 0.522162 0.0973808
v -0.472098 0.56062 0.0885224
v -0.495716 0.389401 0.123925
v -0.472098 0.56062 0.0356987
v -0.430792 -0.643179 0.082622
v -0.403825 -0.661092 0.0356987
v -0.460306 -0.584175 0.106239
v -0.39833 -0.663857 0.0398399
v -0.391088 -0.668072 0.0356987
v -0.348181 -0.684535 0.0944228
v -0.380606 -0.663857 0.101802
v -0.416017 -0.646077 0.101802
v -0.43374 -0.628428 0.101802
v -0.424896 -0.619604 0.106239
v -0.477993 -0.495668 0.123925
v -0.486837 -0.362908 0.154906
v -0.489784 -0.247796 0.171128
v -0.495716 -0.247796 0.159328
v -0.480213 0.531118 0.101802
v -0.455867 0.59302 0.0973808
v -0.491277 0.398226 0.132768
v -0.460306 0.584196 0.0885224
v -0.491277 0.309719 0.150485
v -0.495716 0.212388 0.159328
v -0.460306 0.584196 0.0356987
v -0.389486 -0.668731 0.0356987
v -0.336353 -0.690331 0.0885224
v -0.336353 -0.684535 0.100339
v -0.345196 -0.681506 0.101802
v -0.371763 -0.655033 0.106239
v -0.407173 -0.637253 0.106239
v -0.477993 -0.353951 0.159328
v -0.477993 -0.247796 0.177029
v -0.486837 -0.25662 0.172607
v -0.486837 -0.0619576 0.190309
v -0.489784 -0.0530016 0.18883
v -0.495716 -0.0530016 0.177029
v -0.444803 0.601844 0.101802
v -0.448479 0.607771 0.0885224
v -0.489784 0.389401 0.135726
v -0.483889 0.401255 0.135726
v -0.454302 0.596181 0.0356987
v -0.491277 0.221212 0.168186
v -0.495716 -5.54511e-05 0.177029
v -0.336353 -0.690331 0.0356987
v -0.265569 -0.690331 0.0885224
v -0.265569 -0.684535 0.100339
v -0.336353 -0.672682 0.106239
v -0.141652 -0.247796 0.177029
v -0.477993 -0.0530016 0.194746
v -0.489784 -5.54511e-05 0.18883
v -0.491277 0.0087689 0.185887
v -0.442583 0.584196 0.106239
v -0.424896 0.601844 0.106239
v -0.430792 0.613698 0.100339
v -0.438143 0.610669 0.0973808
v -0.477993 0.389401 0.141626
v -0.448479 0.607771 0.0356987
v -0.424896 0.619625 0.0885224
v -0.448297 0.607903 0.0356987
v -0.489784 0.212388 0.171128
v -0.265387 -0.690331 0.0356987
v -0.256726 -0.685984 0.0973808
v -0.247882 -0.674921 0.101802
v -0.265569 -0.672682 0.106239
v -0.129861 -0.253723 0.171128
v -0.141652 -0.0530016 0.194746
v -0.141652 -0.353951 0.159328
v -0.477993 -5.54511e-05 0.194746
v -0.389486 0.619625 0.106239
v -0.477993 0.212388 0.177029
v -0.359972 0.649127 0.100339
v -0.436506 0.61383 0.0356987
v -0.365867 0.649127 0.0885224
v -0.253778 -0.684535 0.0356987
v -0.253778 -0.684535 0.0885224
v -0.230159 -0.672682 0.0885224
v -0.221316 -0.668204 0.0973808
v -0.212472 -0.65714 0.101802
v -0.230159 -0.655033 0.106239
v -0.123929 -0.247796 0.159328
v -0.129861 -0.0589284 0.18883
v -0.129861 -0.359878 0.153427
v -0.141652 -5.54511e-05 0.194746
v -0.194749 -0.639492 0.101802
v -0.177062 -0.621843 0.101802
v -0.159339 -0.604063 0.101802
v -0.141652 -0.495668 0.123925
v -0.354076 0.637273 0.106239
v -0.283293 0.212388 0.177029
v -0.271465 0.649127 0.100339
v -0.354076 0.654922 0.0885224
v -0.377477 0.643332 0.0356987
v -0.365867 0.649127 0.0356987
v -0.218186 -0.666755 0.0356987
v -0.206577 -0.660828 0.0885224
v -0.123929 -0.0530016 0.177029
v -0.123929 -0.353951 0.141626
v -0.129861 -0.00598225 0.18883
v -0.129861 -0.501595 0.118025
v -0.123929 -0.495668 0.106239
v -0.129861 0.188812 0.171128
v -0.141652 0.194739 0.177029
v -0.188854 -0.643179 0.0885224
v -0.171167 -0.625531 0.0885224
v -0.153444 -0.60775 0.0885224
v -0.150496 -0.597477 0.0973808
v -0.147548 -0.590102 0.100339
v -0.265569 0.637273 0.106239
v -0.241987 0.6432 0.0944228
v -0.265569 0.654922 0.0885224
v -0.230159 0.619625 0.106239
v -0.221316 0.628449 0.0973808
v -0.354076 0.654922 0.0356987
v -0.206577 -0.660828 0.0356987
v -0.123929 -5.54511e-05 0.177029
v -0.129861 -0.554673 0.100339
v -0.123929 -0.548746 0.0885224
v -0.123929 0.194739 0.159328
v -0.129861 0.294968 0.153427
v -0.141652 0.300894 0.159328
v -0.188854 -0.643179 0.0356987
v -0.171167 -0.625531 0.0356987
v -0.153444 -0.60775 0.0356987
v -0.153371 -0.607619 0.0356987
v -0.147548 -0.596029 0.0885224
v -0.253778 0.649127 0.082622
v -0.206577 0.62542 0.0944228
v -0.230159 0.637273 0.0885224
v -0.212181 0.628317 0.0356987
v -0.265569 0.654922 0.0356987
v -0.265278 0.654791 0.0356987
v -0.159339 0.548767 0.106239
v -0.197697 0.598947 0.103281
v -0.21542 0.616596 0.103281
v -0.141543 -0.584043 0.0356987
v -0.123929 -0.548746 0.0356987
v -0.123929 0.300894 0.141626
v -0.129861 0.436684 0.118025
v -0.141652 0.371753 0.141626
v -0.147548 -0.596029 0.0356987
v -0.253778 0.649127 0.0356987
v -0.206577 0.62542 0.0356987
v -0.188854 0.607771 0.0944228
v -0.168219 0.59302 0.0442614
v -0.141652 0.513337 0.106239
v -0.147548 0.54284 0.100339
v -0.153444 0.572342 0.0944228
v -0.162323 0.563518 0.103281
v -0.171167 0.590123 0.0944228
v -0.123929 0.513337 0.0356987
v -0.123929 0.371753 0.123925
v -0.123929 0.513337 0.0885224
v -0.129861 0.507411 0.100339
v -0.168219 0.59302 0.0356987
v -0.150641 0.56681 0.0356987
v -0.153444 0.572342 0.0356987
v -0.135757 0.536913 0.0944228
v -0.147548 0.56062 0.082622
v -0.141361 0.54824 0.0356987
f 68 69 70
f 68 70 71
f 68 71 77
f 68 77 72
f 68 72 81
f 68 81 94
f 68 94 112
f 68 112 131
f 68 131 138
f 68 138 118
f 68 118 97
f 68 97 82
f 68 82 73
f 68 73 83
f 68 83 98
f 68 98 119
f 68 119 136
f 68 136 152
f 68 152 154
f 68 154 167
f 68 167 187
f 68 187 188
f 68 188 208
f 68 208 225
f 68 225 226
f 68 226 236
f 68 236 224
f 68 224 237
f 68 237 249
f 68 249 251
f 68 251 250
f 68 250 254
f 68 254 245
f 68 245 231
f 68 231 230
f 68 230 235
f 68 235 219
f 68 219 218
f 68 218 217
f 68 217 216
f 68 216 209
f 68 209 189
f 68 189 169
f 68 169 156
f 68 156 139
f 68 139 120
f 68 120 103
f 68 103 100
f 68 100 84
f 68 84 74
f 68 74 69
f 69 74 70
f 70 74 75
f 70 75 71
f 71 75 76
f 71 76 78
f 71 78 77
f 72 77 78
f 72 78 79
f 72 79 80
f 72 80 81
f 73 82 83
f 74 84 99
f 74 99 85
f 74 85 86
f 74 86 75
f 75 86 78
f 75 78 76
f 78 87 88
f 78 88 79
f 78 86 85
f 78 85 89
f 78 89 90
f 78 90 87
f 79 88 80
f 80 88 87
f 80 87 91
f 80 91 92
f 80 92 81
f 81 92 93
f 81 93 94
f 82 95 96
f 82 96 83
f 82 97 95
f 83 96 98
f 84 100 99
f 85 99 89
f 87 90 101
f 87 101 109
f 87 109 91
f 89 99 100
f 89 100 102
f 89 102 103
f 89 103 104
f 89 104 105
f 89 105 106
f 89 106 107
f 89 107 90
f 90 107 108
f 90 108 101
f 91 109 110
f 91 110 92
f 92 110 93
f 93 110 111
f 93 111 112
f 93 112 94
f 95 113 114
f 95 114 96
f 95 97 115
f 95 115 113
f 96 114 116
f 96 116 119
f 96 119 98
f 97 117 115
f 97 118 137
f 97 137 117
f 100 103 102
f 101 108 110
f 101 110 109
f 103 120 121
f 103 121 104
f 104 121 122
f 104 122 123
f 104 123 105
f 105 123 142
f 105 142 124
f 105 124 125
f 105 125 106
f 106 125 108
f 106 108 107
f 108 125 110
f 110 125 126
f 110 126 127
f 110 127 128
f 110 128 111
f 111 128 129
f 111 129 130
f 111 130 131
f 111 131 112
f 113 132 114
f 113 115 132
f 114 132 133
f 114 133 116
f 115 117 134
f 115 134 135
f 115 135 132
f 116 133 136
f 116 136 119
f 117 137 155
f 117 155 134
f 118 138 146
f 118 146 137
f 120 139 121
f 121 139 156
f 121 156 140
f 121 140 141
f 121 141 122
f 122 141 159
f 122 159 142
f 122 142 123
f 124 142 126
f 124 126 125
f 126 142 127
f 127 143 161
f 127 161 144
f 127 144 128
f 127 142 159
f 127 159 143
f 128 144 129
f 129 144 163
f 129 163 145
f 129 145 130
f 130 145 146
f 130 146 131
f 131 146 138
f 132 147 148
f 132 148 149
f 132 149 150
f 132 150 133
f 132 135 151
f 132 151 147
f 133 152 136
f 133 150 149
f 133 149 153
f 133 153 167
f 133 167 154
f 133 154 152
f 134 151 135
f 134 155 165
f 134 165 151
f 137 146 145
f 137 145 155
f 140 156 157
f 140 157 141
f 141 157 158
f 141 158 159
f 143 160 161
f 143 159 162
f 143 162 177
f 143 177 160
f 144 161 178
f 144 178 163
f 145 163 155
f 147 151 148
f 148 164 149
f 148 151 165
f 148 165 164
f 149 164 166
f 149 166 153
f 153 166 168
f 153 168 187
f 153 187 167
f 155 163 165
f 156 169 170
f 156 170 157
f 157 170 171
f 157 171 172
f 157 172 173
f 157 173 158
f 158 173 174
f 158 174 159
f 159 174 162
f 160 175 191
f 160 191 176
f 160 176 161
f 160 177 192
f 160 192 175
f 161 176 193
f 161 193 178
f 162 174 173
f 162 173 179
f 162 179 180
f 162 180 181
f 162 181 182
f 162 182 194
f 162 194 177
f 163 178 184
f 163 184 165
f 164 183 166
f 164 165 183
f 165 184 203
f 165 203 183
f 166 183 203
f 166 203 185
f 166 185 205
f 166 205 186
f 166 186 168
f 168 186 208
f 168 208 188
f 168 188 187
f 169 189 170
f 170 189 171
f 171 189 190
f 171 190 172
f 172 190 173
f 173 190 198
f 173 198 179
f 175 192 195
f 175 195 212
f 175 212 231
f 175 231 245
f 175 245 247
f 175 247 246
f 175 246 232
f 175 232 213
f 175 213 210
f 175 210 191
f 176 191 210
f 176 210 193
f 177 194 195
f 177 195 192
f 178 193 196
f 178 196 197
f 178 197 184
f 179 198 199
f 179 199 180
f 180 199 200
f 180 200 181
f 181 200 201
f 181 201 202
f 181 202 194
f 181 194 182
f 184 197 203
f 185 204 205
f 185 203 206
f 185 206 207
f 185 207 204
f 186 205 225
f 186 225 208
f 189 209 190
f 190 209 216
f 190 216 198
f 193 210 213
f 193 213 196
f 194 202 211
f 194 211 195
f 195 211 212
f 196 213 232
f 196 232 214
f 196 214 215
f 196 215 197
f 197 215 203
f 198 216 217
f 198 217 199
f 199 217 218
f 199 218 200
f 200 218 219
f 200 219 220
f 200 220 201
f 201 220 202
f 202 220 212
f 202 212 211
f 203 215 206
f 204 221 205
f 204 207 222
f 204 222 223
f 204 223 224
f 204 224 221
f 205 221 226
f 205 226 225
f 206 227 228
f 206 228 229
f 206 229 222
f 206 222 207
f 206 215 227
f 212 220 230
f 212 230 231
f 214 232 246
f 214 246 233
f 214 233 234
f 214 234 215
f 215 234 227
f 219 235 220
f 220 235 230
f 221 224 236
f 221 236 226
f 222 237 224
f 222 224 223
f 222 229 228
f 222 228 238
f 222 238 239
f 222 239 249
f 222 249 237
f 227 240 248
f 227 248 241
f 227 241 242
f 227 242 243
f 227 243 228
f 227 234 240
f 228 244 238
f 228 243 244
f 233 246 247
f 233 247 248
f 233 248 240
f 233 240 234
f 238 244 239
f 239 244 242
f 239 242 251
f 239 251 249
f 241 248 252
f 241 252 242
f 242 250 251
f 242 244 243
f 242 252 247
f 242 247 253
f 242 253 250
f 245 254 247
f 247 254 253
f 247 252 248
f 250 253 254
o convex_2
v -0.531125 -0.796535 -0.123913
v -0.525221 -0.790636 -0.135719
v -0.522269 -0.805463 -0.132777
v -0.525221 -0.808333 -0.118011
v -0.531125 -0.796535 -0.0708288
v -0.531125 0.796535 -0.123913
v -0.489799 -0.755241 -0.188843
v -0.525221 0.802434 -0.135719
v -0.50751 -0.808333 -0.135719
v -0.513414 -0.814391 -0.123913
v -0.486847 -0.770069 -0.185882
v -0.472087 -0.772938 -0.188843
v -0.525221 -0.808333 -0.0649261
v -0.526697 -0.796535 -0.0509147
v -0.531125 -0.76114 -0.0354127
v -0.531125 0.796535 0.00827128
v -0.525221 0.808333 -0.123913
v -0.522269 0.809927 -0.132777
v -0.477991 -0.76114 -0.194726
v -0.489799 0.767039 -0.188843
v -0.123607 -0.808333 -0.135719
v -0.123607 -0.814391 -0.123913
v -0.513414 -0.814391 -0.0708288
v -0.123607 -0.772938 -0.188843
v -0.522269 -0.805463 -0.0575527
v -0.513414 -0.802434 -0.0472181
v -0.526697 -0.778837 -0.0332066
v -0.531125 -0.725746 -0.0177046
v -0.525221 0.808333 0.00827128
v -0.531125 0.734036 0.00827128
v -0.123607 0.808492 -0.1355
v -0.513414 0.808333 -0.135719
v -0.477991 0.772938 -0.188843
v -0.486847 0.774533 -0.185882
v -0.519676 0.811203 0.00827128
v -0.513414 0.814391 0.00827128
v -0.513414 0.814391 -0.123913
v -0.123607 0.814391 -0.123913
v -0.123607 -0.76114 -0.194726
v -0.477991 0.76114 -0.194726
v -0.123607 -0.814391 -0.0708288
v -0.123607 -0.808333 -0.0588048
v -0.123607 -0.802434 -0.0472181
v -0.513414 -0.784737 -0.02951
v -0.522269 -0.770069 -0.0221366
v -0.526697 -0.743443 -0.0154985
v -0.525221 -0.725746 -0.00591904
v -0.522269 -0.734674 -0.00442846
v -0.513414 -0.725746 -1.63403e-05
v -0.500409 -0.531076 0.00827128
v -0.123607 0.773098 -0.188624
v -0.123607 0.761459 -0.194627
v -0.123607 0.772938 -0.188843
v -0.123607 0.814391 0.00827128
v -0.123607 0.76114 -0.194726
v -0.123607 -0.784737 -0.02951
v -0.123607 -0.784577 -0.0294106
v -0.123607 -0.737384 -0.00579979
v -0.123607 -0.725746 -1.63403e-05
v -0.336341 -0.695134 0.00827128
v -0.353494 -0.689873 0.00827128
v -0.389475 -0.677437 0.00827128
v -0.406668 -0.6709 0.00827128
v -0.471689 -0.602822 0.00827128
v -0.476396 -0.596604 0.00827128
v -0.48214 -0.584168 0.00827128
v -0.495104 -0.548136 0.00827128
v -0.123607 0.255573 0.00827128
v -0.123966 -0.548773 0.00827128
v -0.135734 -0.57237 0.00827128
v -0.153445 -0.607764 0.00827128
v -0.156597 -0.613982 0.00827128
v -0.168005 -0.632795 0.00827128
v -0.168404 -0.633433 0.00827128
v -0.173909 -0.640448 0.00827128
v -0.185716 -0.650493 0.00827128
v -0.211485 -0.668031 0.00827128
v -0.216113 -0.670422 0.00827128
v -0.24958 -0.687163 0.00827128
v -0.265576 -0.695134 0.00827128
f 255 256 257
f 255 257 258
f 255 258 267
f 255 267 259
f 255 259 269
f 255 269 282
f 255 282 284
f 255 284 270
f 255 270 260
f 255 260 262
f 255 262 256
f 256 261 257
f 256 262 274
f 256 274 261
f 257 263 264
f 257 264 258
f 257 261 265
f 257 265 266
f 257 266 263
f 258 264 277
f 258 277 267
f 259 268 281
f 259 281 269
f 259 267 268
f 260 270 283
f 260 283 271
f 260 271 272
f 260 272 262
f 261 273 265
f 261 274 294
f 261 294 273
f 262 272 274
f 263 275 276
f 263 276 264
f 263 266 278
f 263 278 275
f 264 276 295
f 264 295 277
f 265 273 266
f 266 273 293
f 266 293 278
f 267 279 268
f 267 277 279
f 268 279 280
f 268 280 298
f 268 298 281
f 269 281 300
f 269 300 282
f 270 284 304
f 270 304 321
f 270 321 320
f 270 320 319
f 270 319 318
f 270 318 317
f 270 317 316
f 270 316 315
f 270 315 314
f 270 314 334
f 270 334 333
f 270 333 332
f 270 332 331
f 270 331 330
f 270 330 329
f 270 329 328
f 270 328 327
f 270 327 326
f 270 326 325
f 270 325 324
f 270 324 323
f 270 323 322
f 270 322 308
f 270 308 290
f 270 290 289
f 270 289 283
f 271 283 272
f 272 285 286
f 272 286 287
f 272 287 288
f 272 288 274
f 272 283 289
f 272 289 290
f 272 290 291
f 272 291 292
f 272 292 285
f 273 294 309
f 273 309 293
f 274 288 294
f 275 278 293
f 275 293 309
f 275 309 306
f 275 306 307
f 275 307 305
f 275 305 285
f 275 285 292
f 275 292 308
f 275 308 322
f 275 322 313
f 275 313 312
f 275 312 311
f 275 311 310
f 275 310 297
f 275 297 296
f 275 296 295
f 275 295 276
f 277 295 296
f 277 296 280
f 277 280 279
f 280 296 297
f 280 297 310
f 280 310 298
f 281 298 299
f 281 299 302
f 281 302 300
f 282 300 301
f 282 301 284
f 284 301 302
f 284 302 303
f 284 303 304
f 285 305 286
f 286 305 287
f 287 306 294
f 287 294 288
f 287 305 307
f 287 307 306
f 290 308 292
f 290 292 291
f 294 306 309
f 298 310 311
f 298 311 299
f 299 311 312
f 299 312 302
f 300 302 301
f 302 312 313
f 302 313 303
f 303 313 334
f 303 334 314
f 303 314 315
f 303 315 316
f 303 316 317
f 303 317 318
f 303 318 319
f 303 319 320
f 303 320 321
f 303 321 304
f 313 323 324
f 313 324 325
f 313 325 326
f 313 326 327
f 313 327 328
f 313 328 329
f 313 329 330
f 313 330 331
f 313 331 332
f 313 332 333
f 313 333 334
f 313 322 323
o convex_3
v -0.500386 -0.531112 0.00829384
v -0.495116 -0.54824 0.00829384
v -0.495706 -0.531112 0.0356987
v -0.500386 -0.318694 0.00829384
v -0.482144 -0.58423 0.00829384
v -0.476395 -0.596712 0.00829384
v -0.467439 -0.591339 0.0356987
v -0.495706 -0.247608 0.0356987
v -0.499502 -0.314664 0.00829384
v -0.495706 -0.247888 0.0354063
v -0.478569 -0.123684 0.0356987
v -0.471677 -0.602869 0.00829384
v -0.448497 -0.625538 0.0356987
v -0.477979 -0.123964 0.0354063
v -0.492831 -0.300335 0.00829384
v -0.477979 -0.123348 0.0356987
v -0.406668 -0.670988 0.00829384
v -0.43077 -0.643226 0.0356987
v -0.141656 -0.123964 0.0354063
v -0.477353 -0.297536 0.00829384
v -0.48535 -0.297928 0.00829384
v -0.141066 -0.123348 0.0356987
v -0.389458 -0.677425 0.00829384
v -0.336352 -0.690411 0.0356987
v -0.389458 -0.668749 0.0356987
v -0.391079 -0.668078 0.0356987
v -0.40383 -0.661137 0.0356987
v -0.141656 -0.302126 0.00829384
v -0.464896 -0.297536 0.00829384
v -0.131263 -0.306772 0.00829384
v -0.123929 -0.247608 0.0356987
v -0.123929 -0.247888 0.0354063
v -0.129863 -0.247888 0.0236046
v -0.128646 -0.318694 0.00829384
v -0.129494 -0.314272 0.00829384
v -0.353489 -0.689851 0.00829384
v -0.336352 -0.695169 0.00829384
v -0.265593 -0.690411 0.0356987
v -0.123929 -0.548799 0.0356987
v -0.123929 -0.318694 0.0177051
v -0.123929 -0.434278 0.00829384
v -0.265593 -0.695169 0.00829384
v -0.265372 -0.690355 0.0356987
v -0.147442 -0.595817 0.0356987
v -0.150685 -0.602309 0.00829384
v -0.123929 -0.548799 0.00829384
v -0.216136 -0.670429 0.00829384
v -0.24197 -0.678657 0.0356987
v -0.153449 -0.607795 0.0356987
v -0.156581 -0.614064 0.00829384
v -0.211493 -0.668078 0.00829384
v -0.206554 -0.660913 0.0356987
v -0.218384 -0.666846 0.0356987
v -0.171175 -0.625538 0.0356987
v -0.173939 -0.640483 0.00829384
v -0.168411 -0.633542 0.00829384
v -0.185732 -0.650502 0.00829384
v -0.185916 -0.650614 0.00885455
f 335 336 337
f 335 337 342
f 335 342 338
f 335 338 343
f 335 343 349
f 335 349 355
f 335 355 354
f 335 354 363
f 335 363 362
f 335 362 364
f 335 364 369
f 335 369 368
f 335 368 375
f 335 375 380
f 335 380 379
f 335 379 384
f 335 384 390
f 335 390 389
f 335 389 391
f 335 391 385
f 335 385 381
f 335 381 376
f 335 376 371
f 335 371 370
f 335 370 357
f 335 357 351
f 335 351 346
f 335 346 340
f 335 340 339
f 335 339 336
f 336 339 337
f 337 339 340
f 337 340 341
f 337 341 347
f 337 347 352
f 337 352 361
f 337 361 360
f 337 360 359
f 337 359 358
f 337 358 372
f 337 372 377
f 337 377 382
f 337 382 387
f 337 387 386
f 337 386 388
f 337 388 383
f 337 383 378
f 337 378 373
f 337 373 365
f 337 365 356
f 337 356 350
f 337 350 345
f 337 345 342
f 338 342 344
f 338 344 345
f 338 345 343
f 340 346 347
f 340 347 341
f 342 345 344
f 343 345 348
f 343 348 349
f 345 350 348
f 346 351 347
f 347 351 352
f 348 350 356
f 348 356 353
f 348 353 363
f 348 363 354
f 348 354 355
f 348 355 349
f 351 357 358
f 351 358 359
f 351 359 360
f 351 360 361
f 351 361 352
f 353 362 363
f 353 356 364
f 353 364 362
f 356 365 366
f 356 366 367
f 356 367 368
f 356 368 369
f 356 369 364
f 357 370 358
f 358 370 371
f 358 371 376
f 358 376 372
f 365 373 380
f 365 380 375
f 365 375 374
f 365 374 366
f 366 374 368
f 366 368 367
f 368 374 375
f 372 376 377
f 373 378 379
f 373 379 380
f 376 381 382
f 376 382 377
f 378 383 379
f 379 383 384
f 381 385 386
f 381 386 387
f 381 387 382
f 383 388 389
f 383 389 390
f 383 390 384
f 385 391 392
f 385 392 386
f 386 392 389
f 386 389 388
f 389 392 391
o convex_4
v -0.123607 0.814381 0.0177062
v -0.123607 0.814224 0.0180274
v -0.123607 0.814381 0.00829381
v -0.513414 0.814381 0.0177062
v -0.123607 0.808488 0.029505
v -0.519317 0.808488 0.029505
v -0.123607 0.724759 0.00829381
v -0.513414 0.814381 0.00829381
v -0.525221 0.808488 0.0177062
v -0.123607 0.797007 0.0352464
v -0.526697 0.805537 0.026556
v -0.513414 0.796683 0.0354083
v -0.123607 0.737674 0.0236043
v -0.495702 0.707469 0.0177062
v -0.482579 0.707469 0.0131062
v -0.479706 0.707469 0.00829381
v -0.525221 0.808488 0.00829381
v -0.123607 0.796683 0.0354083
v -0.531125 0.796683 0.0177062
v -0.531125 0.743577 0.0177062
v -0.525221 0.743577 0.029505
v -0.525221 0.796683 0.029505
v -0.513414 0.743577 0.0354083
v -0.123607 0.761276 0.0354083
v -0.495702 0.743577 0.0354083
v -0.513414 0.707469 0.0177062
v -0.526976 0.707469 0.00829381
v -0.531125 0.796683 0.00829381
v -0.531125 0.734168 0.00829381
v -0.52925 0.715538 0.00829381
v -0.526697 0.725879 0.0199173
v -0.522269 0.734723 0.0309808
v -0.525221 0.707469 0.0118029
f 393 394 397
f 393 397 402
f 393 402 410
f 393 410 416
f 393 416 405
f 393 405 399
f 393 399 395
f 393 395 400
f 393 400 396
f 393 396 394
f 394 396 398
f 394 398 397
f 395 399 408
f 395 408 419
f 395 419 422
f 395 422 421
f 395 421 420
f 395 420 409
f 395 409 400
f 396 400 409
f 396 409 401
f 396 401 398
f 397 398 402
f 398 401 403
f 398 403 404
f 398 404 402
f 399 405 406
f 399 406 407
f 399 407 408
f 401 409 420
f 401 420 411
f 401 411 403
f 402 404 410
f 403 411 412
f 403 412 413
f 403 413 414
f 403 414 404
f 404 414 413
f 404 413 424
f 404 424 415
f 404 415 417
f 404 417 416
f 404 416 410
f 405 416 406
f 406 417 415
f 406 415 418
f 406 418 425
f 406 425 419
f 406 419 408
f 406 408 407
f 406 416 417
f 411 420 421
f 411 421 412
f 412 421 422
f 412 422 423
f 412 423 413
f 413 423 424
f 415 424 418
f 418 424 425
f 419 425 423
f 419 423 422
f 423 425 424
o convex_5
v -0.526979 0.655011 0.00829384
v -0.525202 0.655011 0.011803
v -0.525439 0.707469 0.0113388
v -0.526979 0.707469 0.00829384
v -0.500406 0.265597 0.00829384
v -0.495708 0.194801 0.0354063
v -0.495708 0.194801 0.0356987
v -0.525202 0.707469 0.011803
v -0.479716 0.707469 0.00829384
v -0.495352 0.248257 0.00829384
v -0.478571 0.0711091 0.0356987
v -0.495708 0.513417 0.0356987
v -0.51387 0.707469 0.0174717
v -0.265593 0.655011 0.00829384
v -0.482599 0.707469 0.0131041
v -0.265593 0.655011 0.0356987
v -0.491917 0.246011 0.00829384
v -0.477979 0.0708596 0.0354063
v -0.478295 0.0705477 0.0356987
v -0.460211 0.584401 0.0356987
v -0.513397 0.707469 0.0177051
v -0.265277 0.654886 0.0356987
v -0.257301 0.650894 0.00829384
v -0.495708 0.707469 0.0177051
v -0.354077 0.655011 0.0356987
v -0.480388 0.241957 0.00829384
v -0.141652 0.0708596 0.0354063
v -0.477703 0.0702358 0.0356987
v -0.448484 0.607792 0.0356987
v -0.448287 0.607917 0.0356987
v -0.424873 0.619644 0.0356987
v -0.377492 0.643346 0.0356987
v -0.365883 0.649147 0.0356987
v -0.253787 0.649147 0.0356987
v -0.253787 0.649147 0.00829384
v -0.14406 0.241957 0.00829384
v -0.141059 0.0708596 0.0356987
v -0.141375 0.0702358 0.0356987
v -0.139401 0.243204 0.00829384
v -0.125897 0.249442 0.00829384
v -0.21837 0.631433 0.0356987
v -0.21837 0.631433 0.00829384
v -0.123844 0.254931 0.00829384
v -0.123607 0.25568 0.00829384
v -0.123963 0.194801 0.0354063
v -0.123963 0.194801 0.0356987
v -0.206564 0.625507 0.0356987
v -0.206564 0.625507 0.00829384
v -0.123607 0.281753 0.00829384
v -0.123607 0.265909 0.0170613
v -0.123963 0.513417 0.0356987
v -0.168225 0.593071 0.0356987
v -0.174108 0.60486 0.0206562
v -0.17162 0.607355 0.00829384
v -0.123607 0.282626 0.0170613
v -0.123963 0.513417 0.00829384
v -0.124081 0.513667 0.0356987
v -0.153458 0.572425 0.0356987
v -0.168777 0.603052 0.00829384
v -0.129846 0.525206 0.00829384
v -0.129846 0.525206 0.0356987
v -0.159341 0.584214 0.0177051
v -0.163487 0.59251 0.00829384
f 426 427 428
f 426 428 429
f 426 429 434
f 426 434 439
f 426 439 448
f 426 448 460
f 426 460 467
f 426 467 473
f 426 473 479
f 426 479 484
f 426 484 488
f 426 488 485
f 426 485 481
f 426 481 474
f 426 474 469
f 426 469 468
f 426 468 465
f 426 465 464
f 426 464 461
f 426 461 451
f 426 451 442
f 426 442 435
f 426 435 430
f 426 430 431
f 426 431 432
f 426 432 427
f 427 433 428
f 427 432 437
f 427 437 433
f 428 433 438
f 428 438 446
f 428 446 449
f 428 449 440
f 428 440 434
f 428 434 429
f 430 435 436
f 430 436 431
f 431 436 432
f 432 436 444
f 432 444 453
f 432 453 463
f 432 463 462
f 432 462 471
f 432 471 476
f 432 476 482
f 432 482 486
f 432 486 483
f 432 483 477
f 432 477 472
f 432 472 466
f 432 466 459
f 432 459 447
f 432 447 441
f 432 441 450
f 432 450 458
f 432 458 457
f 432 457 456
f 432 456 455
f 432 455 454
f 432 454 445
f 432 445 437
f 433 437 438
f 434 440 441
f 434 441 439
f 435 442 443
f 435 443 436
f 436 443 444
f 437 445 446
f 437 446 438
f 439 447 448
f 439 441 447
f 440 449 441
f 441 449 446
f 441 446 450
f 442 451 443
f 443 452 463
f 443 463 453
f 443 453 444
f 443 451 461
f 443 461 452
f 445 454 446
f 446 454 455
f 446 455 456
f 446 456 457
f 446 457 458
f 446 458 450
f 447 459 460
f 447 460 448
f 452 462 463
f 452 461 464
f 452 464 465
f 452 465 462
f 459 466 467
f 459 467 460
f 462 465 468
f 462 468 469
f 462 469 470
f 462 470 471
f 466 472 473
f 466 473 467
f 469 474 480
f 469 480 475
f 469 475 471
f 469 471 470
f 471 475 480
f 471 480 476
f 472 477 478
f 472 478 479
f 472 479 473
f 474 481 480
f 476 481 482
f 476 480 481
f 477 479 478
f 477 483 479
f 479 483 484
f 481 485 482
f 482 485 486
f 483 486 487
f 483 487 488
f 483 488 484
f 485 488 486
f 486 488 487
