# https://github.com/mikedh/trimesh
v 0.57502700 0.40165300 -0.27496700
v 0.56890600 0.40653600 -0.27496700
v 0.62095600 0.40165300 -0.27496700
v 0.68723000 0.40165300 0.05938710
v 0.54862100 0.42682500 -0.27496700
v 0.74969700 0.40165300 0.24394800
v 0.61973800 0.40596200 -0.27496700
v 0.62817400 0.40165300 -0.26867100
v 0.53336300 0.44312800 -0.27496700
v 0.75822500 0.40165300 0.26742900
v 0.53790100 0.63937400 0.22829400
v 0.53336300 0.63653700 0.20855600
v 0.54128100 0.50069100 -0.10821500
v 0.61252000 0.42628600 -0.27496700
v 0.63938200 0.41612400 -0.24859300
v 0.67660100 0.40596200 -0.20974100
v 0.67516900 0.40165300 -0.21257700
v 0.53336300 0.55538100 0.00567491
v 0.53336300 0.51387000 -0.27496700
v 0.76730100 0.40165300 0.28211900
v 0.74086400 0.43641300 0.28920900
v 0.53336300 0.67715100 0.28977600
v 0.53790100 0.65966300 0.26890400
v 0.53336300 0.64389800 0.22608200
v 0.60648900 0.43670000 -0.27496700
v 0.61909800 0.45670200 -0.24859300
v 0.67998100 0.43641300 -0.18773400
v 0.67803200 0.40165300 -0.20900400
v 0.72055000 0.41612400 -0.14712400
v 0.72347300 0.40165300 -0.14996000
v 0.53388000 0.51358300 -0.27496700
v 0.53336300 0.54245400 -0.24638100
v 0.53790100 0.55821800 -0.22834400
v 0.53790100 0.51760400 -0.26889800
v 0.77805200 0.40165300 0.29766000
v 0.53452000 0.67657600 0.29091100
v 0.53790100 0.67995200 0.29936200
v 0.53336300 0.67887400 0.29193200
v 0.53336300 0.66418700 0.26663500
v 0.59479400 0.45271600 -0.27496700
v 0.59881400 0.45670200 -0.26889800
v 0.61909800 0.47702700 -0.22834400
v 0.70026500 0.45670200 -0.14712400
v 0.74086400 0.43641300 -0.08626530
v 0.74086400 0.41612400 -0.10651400
v 0.74592000 0.40165300 -0.10832900
v 0.72563600 0.40596200 -0.14457200
v 0.72776800 0.40165300 -0.14349400
v 0.55419500 0.49329400 -0.27496700
v 0.53336300 0.63484900 -0.15393000
v 0.55821500 0.55821800 -0.20803900
v 0.59881400 0.49731600 -0.22834400
v 0.55821500 0.49731600 -0.26889800
v 0.53790100 0.63937400 -0.14712400
v 0.79160500 0.40165300 0.30446600
v 0.53336300 0.68447600 0.29822700
v 0.54804300 0.69011400 0.30446600
v 0.53336300 0.71040300 0.30446600
v 0.57849900 0.47702700 -0.26889800
v 0.57849900 0.55821800 -0.18773400
v 0.67998100 0.49731600 -0.12681900
v 0.72055000 0.45670200 -0.10651400
v 0.78146300 0.43641300 0.01520360
v 0.80174700 0.41612400 0.03550870
v 0.80683300 0.40596200 0.03800430
v 0.80789900 0.40165300 0.03857150
v 0.53336300 0.64163600 -0.14599000
v 0.55821500 0.57850700 -0.18773400
v 0.53790100 0.67995200 -0.06596020
v 0.57849900 0.63937400 -0.08626530
v 0.61909800 0.59876000 -0.08626530
v 0.81188900 0.40165300 0.30446600
v 0.53336300 0.73069200 0.30446600
v 0.65969700 0.55821800 -0.06596020
v 0.70026500 0.51760400 -0.04565510
v 0.74086400 0.49731600 0.01520360
v 0.76114800 0.45670200 -0.00504483
v 0.80174700 0.43641300 0.07606220
v 0.80512800 0.41950000 0.05411230
v 0.81188900 0.40596200 0.06086170
v 0.81298600 0.40165300 0.06142890
v 0.53336300 0.68221400 -0.06482580
v 0.53336300 0.71772800 0.02586660
v 0.57849900 0.65966300 -0.04565510
v 0.59881400 0.63937400 -0.04565510
v 0.63938200 0.63937400 0.03550870
v 0.63938200 0.61904900 -0.00504483
v 0.82900600 0.40165300 0.30123300
v 0.81188900 0.42628600 0.30446600
v 0.54804300 0.73069200 0.30446600
v 0.53336300 0.74986700 0.30333200
v 0.67998100 0.59876000 0.05581380
v 0.74086400 0.51760400 0.05581380
v 0.76114800 0.49731600 0.07606220
v 0.80512800 0.43978800 0.09472250
v 0.81188900 0.42628600 0.10147200
v 0.82419400 0.40165300 0.11746600
v 0.57849900 0.67995200 0.01520360
v 0.53336300 0.75116000 0.14072100
v 0.54128100 0.74423000 0.13527600
v 0.56159600 0.72394100 0.11497100
v 0.64276300 0.66303800 0.11497100
v 0.63938200 0.65966300 0.09636730
v 0.65631600 0.65628700 0.12852700
v 0.65969700 0.63937400 0.09636730
v 0.83065100 0.40165300 0.30015600
v 0.82882300 0.40258600 0.30106300
v 0.79160500 0.46686400 0.30446600
v 0.83896500 0.41274900 0.29091100
v 0.80174700 0.47702700 0.29431400
v 0.64955500 0.64950000 0.30446600
v 0.53336300 0.76204100 0.29522100
v 0.54466200 0.74760500 0.30106300
v 0.55483500 0.75776800 0.29091100
v 0.53790100 0.76114300 0.29431400
v 0.67660100 0.61567300 0.08791630
v 0.68336200 0.60213600 0.07441740
v 0.74424500 0.52098000 0.07441740
v 0.76452900 0.50069100 0.09472250
v 0.79836600 0.45332600 0.10822100
v 0.80512800 0.46011300 0.17588600
v 0.82541200 0.43978800 0.23680200
v 0.83220400 0.42628600 0.24355100
v 0.83220400 0.40596200 0.18263600
v 0.83220400 0.40165300 0.17832500
v 0.53336300 0.75834200 0.16800200
v 0.53452000 0.75776800 0.16913700
v 0.55483500 0.73747900 0.14883200
v 0.67660100 0.63596200 0.14883200
v 0.68336200 0.62246000 0.13527600
v 0.71716900 0.57513200 0.12852700
v 0.75776800 0.51422900 0.10822100
v 0.73748400 0.53451800 0.08791630
v 0.66307800 0.64274900 0.11497100
v 0.67660100 0.65628700 0.29091100
v 0.68336200 0.64274900 0.23680200
v 0.84115800 0.40165300 0.29312300
v 0.78822400 0.48377800 0.30106300
v 0.69012300 0.60892200 0.30446600
v 0.84450800 0.40165300 0.27985100
v 0.83220400 0.42628600 0.28416100
v 0.81865100 0.45332600 0.29091100
v 0.73748400 0.57513200 0.29091100
v 0.66645800 0.64612500 0.30106300
v 0.53336300 0.76566800 0.28977600
v 0.54128100 0.76451900 0.27735500
v 0.53336300 0.76850400 0.28132500
v 0.78484400 0.48040200 0.13527600
v 0.79836600 0.47361500 0.18944200
v 0.81865100 0.45332600 0.25030100
v 0.73748400 0.57513200 0.27060600
v 0.68674300 0.62583600 0.30106300
v 0.79666100 0.48715300 0.28665700
v 0.77805200 0.51422900 0.25030100
f 89 107 106
f 86 103 104
f 88 107 89
f 88 106 107
f 86 105 92
f 86 104 105
f 83 100 101
f 83 101 102
f 84 86 85
f 84 103 86
f 84 98 103
f 83 103 98
f 89 106 109
f 83 102 103
f 86 92 87
f 89 109 110
f 92 117 118
f 90 111 91
f 95 123 96
f 95 122 123
f 83 99 100
f 95 121 122
f 95 120 121
f 95 132 120
f 95 119 132
f 89 110 108
f 94 118 119
f 92 118 93
f 92 116 117
f 92 105 116
f 91 115 112
f 91 114 115
f 91 113 114
f 91 111 113
f 93 118 94
f 83 98 84
f 69 83 84
f 80 96 97
f 65 81 66
f 65 80 81
f 65 79 80
f 64 78 79
f 64 79 65
f 63 78 64
f 63 94 78
f 63 76 94
f 63 77 76
f 62 76 77
f 62 75 76
f 61 75 62
f 61 74 75
f 96 123 124
f 61 71 74
f 69 82 83
f 80 97 81
f 69 84 70
f 70 85 71
f 79 96 80
f 79 95 96
f 78 95 79
f 78 119 95
f 78 94 119
f 76 93 94
f 76 92 93
f 75 92 76
f 75 87 92
f 74 87 75
f 73 90 91
f 72 88 89
f 71 87 74
f 71 86 87
f 71 85 86
f 70 84 85
f 96 124 97
f 121 148 149
f 99 126 100
f 126 147 146
f 124 140 125
f 123 140 124
f 123 141 140
f 123 142 141
f 123 150 142
f 122 150 123
f 121 150 122
f 121 149 150
f 120 148 121
f 120 132 148
f 118 132 119
f 118 133 132
f 116 134 133
f 116 118 117
f 126 146 127
f 129 131 130
f 129 136 151
f 129 151 131
f 55 58 57
f 151 153 154
f 150 154 153
f 149 154 150
f 149 151 154
f 143 153 151
f 142 150 153
f 116 133 118
f 142 153 143
f 135 151 136
f 135 143 151
f 135 152 143
f 135 144 152
f 132 151 149
f 132 149 148
f 131 151 132
f 138 143 152
f 97 124 125
f 114 127 146
f 114 145 115
f 104 114 135
f 104 127 114
f 104 128 127
f 104 134 105
f 104 133 134
f 104 132 133
f 104 131 132
f 104 130 131
f 104 129 130
f 102 104 103
f 101 104 102
f 101 128 104
f 100 128 101
f 100 127 128
f 100 126 127
f 104 135 136
f 104 136 129
f 105 134 116
f 106 137 109
f 114 147 145
f 114 146 147
f 113 144 114
f 112 115 145
f 111 144 113
f 111 152 144
f 111 139 152
f 114 144 135
f 110 143 138
f 109 142 110
f 109 141 142
f 109 140 141
f 109 137 140
f 108 110 138
f 108 152 139
f 108 138 152
f 110 142 143
f 55 73 58
f 40 59 41
f 55 111 90
f 9 58 73
f 9 56 58
f 9 38 56
f 9 22 38
f 9 39 22
f 9 24 39
f 9 12 24
f 9 18 12
f 9 13 18
f 8 16 17
f 8 15 16
f 8 14 15
f 7 14 8
f 6 13 9
f 6 12 13
f 9 73 91
f 6 11 12
f 9 91 112
f 9 145 147
f 12 18 13
f 11 23 24
f 11 24 12
f 10 23 11
f 10 22 23
f 10 21 22
f 10 20 21
f 9 32 19
f 9 50 32
f 9 67 50
f 9 82 67
f 9 83 82
f 9 99 83
f 9 126 99
f 9 147 126
f 9 112 145
f 14 25 26
f 6 10 11
f 3 7 8
f 1 30 48
f 1 28 30
f 1 17 28
f 1 8 17
f 55 90 73
f 1 7 3
f 1 14 7
f 1 25 14
f 1 40 25
f 1 49 40
f 1 31 49
f 1 19 31
f 1 9 19
f 1 5 9
f 1 2 5
f 1 48 46
f 5 6 9
f 1 46 66
f 1 81 97
f 2 6 5
f 2 4 6
f 1 4 2
f 1 6 4
f 1 10 6
f 1 20 10
f 1 35 20
f 1 55 35
f 1 72 55
f 1 88 72
f 1 106 88
f 1 137 106
f 1 140 137
f 1 125 140
f 1 97 125
f 1 66 81
f 14 26 27
f 1 3 8
f 15 27 16
f 44 64 45
f 44 63 64
f 43 62 44
f 43 61 62
f 42 61 43
f 42 60 61
f 42 51 60
f 42 52 51
f 42 53 52
f 42 59 53
f 41 59 42
f 40 53 59
f 40 49 53
f 37 58 56
f 37 57 58
f 44 62 77
f 37 55 57
f 44 77 63
f 46 48 47
f 14 27 15
f 55 139 111
f 55 108 139
f 55 89 108
f 55 72 89
f 54 71 61
f 54 69 70
f 54 82 69
f 54 67 82
f 54 60 68
f 54 61 60
f 51 68 60
f 50 67 54
f 46 65 66
f 46 64 65
f 45 64 46
f 37 56 38
f 54 70 71
f 35 55 37
f 25 40 41
f 23 39 24
f 22 39 23
f 22 36 38
f 21 37 36
f 21 35 37
f 21 36 22
f 20 35 21
f 19 34 31
f 19 33 34
f 19 32 33
f 16 29 30
f 16 27 29
f 36 37 38
f 16 28 17
f 25 41 26
f 26 41 42
f 16 30 28
f 26 43 27
f 26 42 43
f 33 50 54
f 33 68 51
f 33 52 53
f 33 51 52
f 32 50 33
f 31 53 49
f 33 53 34
f 30 47 48
f 27 43 29
f 31 34 53
f 29 43 44
f 29 44 45
f 33 54 68
f 29 46 47
f 29 47 30
f 29 45 46

