# https://github.com/mikedh/trimesh
v 0.35058400 -0.85989400 0.20294100
v 0.36536900 -0.85248700 0.16233100
v 0.38567300 -0.85248700 0.22324600
v 0.35058400 -0.85989400 0.28416100
v 0.35058400 -0.84973100 0.10147200
v 0.42626000 -0.83220500 0.18263600
v 0.41273800 -0.83896600 0.22324600
v 0.38567300 -0.85248700 0.28416100
v 0.39581500 -0.84740600 0.29431400
v 0.35058400 -0.85248700 0.29890800
v 0.35058400 -0.84693200 0.08666850
v 0.38567300 -0.83220500 0.08116680
v 0.42880600 -0.82712400 0.16233100
v 0.45332500 -0.81864100 0.18263600
v 0.49389200 -0.79835900 0.26385600
v 0.42626000 -0.83220500 0.28416100
v 0.41273800 -0.83896600 0.28416100
v 0.43640200 -0.82712400 0.29431400
v 0.44656400 -0.81442100 0.29936200
v 0.40595700 -0.83470300 0.29936200
v 0.38567300 -0.84572600 0.29766000
v 0.38567300 -0.83220500 0.30446600
v 0.35058400 -0.84882700 0.30072300
v 0.35058400 -0.84620000 0.08354900
v 0.38819800 -0.82712400 0.06086170
v 0.41273800 -0.81864100 0.08116680
v 0.53450000 -0.75775200 0.16233100
v 0.51419600 -0.77807700 0.20294100
v 0.45332500 -0.79835900 0.10147200
v 0.51419600 -0.75775200 0.10147200
v 0.53788100 -0.76623500 0.29431400
v 0.49389200 -0.79835900 0.28416100
v 0.47698900 -0.80679900 0.29431400
v 0.48713100 -0.79413900 0.29936200
v 0.35058400 -0.83220500 0.30446600
v 0.46684800 -0.79159800 0.30446600
v 0.35058400 -0.82591800 0.00244197
v 0.35058400 -0.82514300 0.00000309
v 0.35058400 -0.82187000 -0.00975244
v 0.39074400 -0.82204300 0.05070920
v 0.50998100 -0.72562800 -0.02024530
v 0.53450000 -0.71714500 0.00000309
v 0.55861200 -0.73553200 0.14781100
v 0.55861200 -0.74569500 0.24355100
v 0.55861200 -0.72239800 0.08763270
v 0.55861200 -0.72437900 0.09602700
v 0.55861200 -0.73462800 0.14208200
v 0.55861200 -0.74638400 0.28416100
v 0.55861200 -0.74569500 0.29295300
v 0.55818400 -0.74591000 0.29431400
v 0.55861200 -0.74293900 0.29936200
v 0.54802200 -0.75353200 0.29936200
v 0.35058400 -0.81188000 0.30446600
v 0.52773900 -0.75099100 0.30446600
v 0.35058400 -0.78126300 -0.09097290
v 0.37044000 -0.80176100 -0.03039790
v 0.51250600 -0.72054700 -0.03039790
v 0.53281000 -0.70026500 -0.05070300
v 0.55480400 -0.69686300 -0.02024530
v 0.55861200 -0.69406400 -0.01542430
v 0.55861200 -0.74535000 0.29448400
v 0.55861200 -0.72011600 0.30446600
v 0.54802200 -0.73070900 0.30446600
v 0.54802200 -0.69010200 0.30446600
v 0.52519300 -0.69010200 0.29936200
v 0.35058400 -0.79835900 0.29766000
v 0.35058400 -0.70009300 -0.23305200
v 0.37044000 -0.76115400 -0.11161800
v 0.45163500 -0.70026500 -0.15222900
v 0.41104800 -0.76115400 -0.07100810
v 0.51250600 -0.67994000 -0.11161800
v 0.55861200 -0.64717000 -0.09205060
v 0.55311300 -0.67994000 -0.05070300
v 0.55861200 -0.67628000 -0.04701630
v 0.55861200 -0.69010200 0.30446600
v 0.55861200 -0.67800200 0.30140400
v 0.55861200 -0.67180100 0.29885100
v 0.54126100 -0.67658100 0.29766000
v 0.53281000 -0.67994000 0.29431400
v 0.35058400 -0.79034900 0.28416100
v 0.35058400 -0.67976800 -0.25352700
v 0.39074400 -0.67994000 -0.23339200
v 0.43133100 -0.70026500 -0.17247700
v 0.41104800 -0.72054700 -0.15222900
v 0.45332500 -0.68334200 -0.17588000
v 0.46684800 -0.66982000 -0.18263000
v 0.55311300 -0.59881200 -0.17247700
v 0.47191900 -0.65965800 -0.19278200
v 0.55861200 -0.59510900 -0.16884700
v 0.55861200 -0.66151000 0.29057000
v 0.55861200 -0.42906400 -0.24632400
v 0.35058400 -0.77635400 0.25160500
v 0.35058400 -0.65948600 -0.27383200
v 0.39074400 -0.63941900 -0.27400300
v 0.47191900 -0.63941900 -0.21308700
v 0.55311300 -0.53792300 -0.25369700
v 0.55861200 -0.53422000 -0.25001100
v 0.55861200 -0.42131300 -0.26793400
v 0.35058400 -0.73579100 0.12983100
v 0.35058400 -0.65780600 -0.27496700
v 0.39027600 -0.63847200 -0.27496700
v 0.55311300 -0.51759800 -0.27400300
v 0.55861200 -0.51393800 -0.27031600
v 0.55861200 -0.42002100 -0.27496700
v 0.40231100 -0.55631100 -0.27496700
v 0.35058400 -0.60402300 -0.27496700
v 0.55262500 -0.51665100 -0.27496700
v 0.55861200 -0.51316300 -0.27071300
v 0.55722700 -0.50747900 -0.27496700
v 0.55861200 -0.50468000 -0.27496700
f 51 63 52
f 56 69 70
f 56 68 69
f 55 67 68
f 53 64 65
f 52 63 54
f 50 61 51
f 51 62 63
f 56 70 58
f 53 65 66
f 56 58 57
f 59 74 60
f 58 69 71
f 58 71 72
f 58 72 73
f 58 73 59
f 59 73 74
f 64 75 76
f 64 76 77
f 64 77 78
f 49 61 50
f 65 78 66
f 64 78 65
f 58 70 69
f 45 59 60
f 43 72 89
f 43 49 48
f 42 57 58
f 66 79 80
f 42 58 59
f 42 59 45
f 43 47 46
f 43 46 45
f 43 45 60
f 43 60 74
f 43 74 72
f 43 89 97
f 43 97 103
f 43 48 44
f 43 103 108
f 43 110 104
f 43 104 98
f 43 98 91
f 43 91 90
f 43 90 77
f 43 77 76
f 43 76 75
f 43 75 62
f 43 62 51
f 43 51 61
f 43 61 49
f 43 108 110
f 66 78 79
f 96 102 103
f 67 82 83
f 91 98 92
f 92 98 99
f 93 100 101
f 93 101 94
f 94 101 102
f 94 102 96
f 94 96 95
f 96 103 97
f 98 104 105
f 98 105 99
f 99 105 106
f 100 106 105
f 100 105 104
f 100 104 110
f 100 110 109
f 100 109 107
f 100 107 101
f 101 107 102
f 102 108 103
f 102 107 109
f 102 109 108
f 108 109 110
f 41 57 42
f 89 96 97
f 88 95 96
f 87 96 89
f 87 88 96
f 67 83 84
f 67 84 68
f 68 84 69
f 69 84 83
f 69 83 85
f 69 85 86
f 69 86 71
f 71 87 72
f 71 86 88
f 71 88 87
f 72 74 73
f 67 81 82
f 72 87 89
f 78 90 79
f 79 90 80
f 80 90 91
f 80 91 92
f 81 93 94
f 81 94 82
f 82 95 88
f 82 88 83
f 82 94 95
f 83 88 85
f 85 88 86
f 77 90 78
f 40 57 41
f 31 49 50
f 39 56 57
f 3 17 8
f 4 8 9
f 4 9 10
f 5 11 12
f 5 12 6
f 6 12 13
f 6 13 14
f 6 14 15
f 6 15 32
f 6 32 16
f 6 16 17
f 6 17 7
f 8 17 9
f 9 18 19
f 9 19 20
f 9 20 21
f 9 21 10
f 9 17 18
f 10 21 22
f 10 22 23
f 11 24 25
f 11 25 12
f 12 25 13
f 3 7 17
f 3 6 7
f 2 5 6
f 2 6 3
f 39 57 40
f 1 2 3
f 1 3 8
f 1 8 4
f 1 4 10
f 1 10 23
f 1 23 35
f 1 35 53
f 1 53 66
f 1 66 80
f 1 80 92
f 13 25 26
f 1 92 99
f 1 106 100
f 1 100 93
f 1 93 81
f 1 81 67
f 1 67 55
f 1 55 39
f 1 39 38
f 1 38 37
f 1 24 11
f 1 11 5
f 1 5 2
f 1 99 106
f 13 26 14
f 1 37 24
f 14 28 15
f 25 41 42
f 25 42 26
f 26 42 29
f 27 43 44
f 27 44 28
f 27 30 45
f 27 45 46
f 27 46 47
f 27 47 43
f 28 44 31
f 29 42 30
f 30 42 45
f 31 44 48
f 31 48 49
f 31 50 51
f 31 51 52
f 31 52 34
f 31 34 33
f 34 52 54
f 34 54 36
f 39 55 68
f 14 27 28
f 39 68 56
f 25 40 41
f 25 39 40
f 31 33 32
f 25 37 38
f 14 29 30
f 25 38 39
f 14 30 27
f 15 31 32
f 15 28 31
f 16 32 18
f 16 18 17
f 14 26 29
f 18 33 34
f 18 34 19
f 19 34 22
f 19 22 20
f 18 32 33
f 22 75 64
f 22 53 35
f 20 22 21
f 22 64 53
f 22 62 75
f 22 63 62
f 24 37 25
f 22 36 54
f 22 34 36
f 22 35 23
f 22 54 63

