# https://github.com/mikedh/trimesh
v -0.33997500 0.78778700 0.28416100
v -0.33997500 0.79031700 0.28920900
v -0.75430800 0.40584600 0.26385600
v -0.76444000 0.40584600 0.28058800
v -0.77623500 0.40584600 0.29811400
v -0.33997500 0.79749200 0.29595900
v -0.33997500 0.80112600 0.29811400
v -0.33997500 0.81124500 0.30316200
v -0.33997500 0.86519800 0.28416100
v -0.33997500 0.83727900 0.30446600
v -0.33997500 0.81699500 0.30446600
v -0.34507200 0.81188900 0.30446600
v -0.36536500 0.83217300 0.30446600
v -0.33997500 0.85250300 0.30106300
v -0.46683000 0.79160500 0.30446600
v -0.33997500 0.85889700 0.29856800
v -0.33999900 0.86262200 0.29431400
v -0.47360200 0.80512800 0.29766000
v -0.48967100 0.79160500 0.29936200
v -0.55057400 0.75099100 0.29936200
v -0.53450500 0.76451300 0.29766000
v -0.54295200 0.76115600 0.29431400
v -0.67238000 0.64951700 0.29936200
v -0.52773300 0.75099100 0.30446600
v -0.64953200 0.64951700 0.30446600
v -0.69013700 0.60891600 0.30446600
v -0.79158700 0.46685800 0.30446600
v -0.79414600 0.48717400 0.29936200
v -0.69267000 0.62920100 0.29936200
v -0.67660200 0.65627900 0.28416100
v -0.70536100 0.61905800 0.29431400
v -0.80681100 0.47700000 0.29431400
v -0.82712700 0.43643000 0.29431400
v -0.83490500 0.40584600 0.29930500
v -0.81190300 0.42625600 0.30446600
v -0.81203100 0.40584600 0.30446600
v -0.58103700 0.39535100 -0.27496700
v -0.79158700 0.40584600 0.30446600
v -0.43830200 0.52032200 -0.27496700
v -0.33997500 0.76750300 0.22324600
v -0.33997500 0.63177000 -0.21813500
v -0.33997500 0.62703200 -0.23588800
v -0.33997500 0.61976500 -0.26759300
v -0.34323200 0.61447500 -0.27496700
v -0.38384100 0.57386100 -0.27496700
v -0.33997500 0.66350700 -0.27496700
v -0.33997500 0.61820100 -0.27496700
v -0.33997500 0.86519800 0.20294100
v -0.33997500 0.82329600 0.00510773
v -0.33997500 0.86391000 0.18774000
v -0.47697700 0.80683000 0.25370400
v -0.45670700 0.80683000 0.15217800
v -0.43641400 0.80683000 0.09131940
v -0.49729300 0.78649900 0.15217800
v -0.44656100 0.79919400 0.08116680
v -0.42626800 0.79919400 0.04055660
v -0.41612100 0.80683000 0.05070920
v -0.35521900 0.84739800 0.13193000
v -0.33997500 0.84362600 0.08627150
v -0.37551200 0.82711400 0.07101430
v -0.35521900 0.80683000 -0.03039790
v -0.36536500 0.79919400 -0.04055040
v -0.41612100 0.78649900 -0.01009280
v -0.46683000 0.75862600 0.00000309
v -0.40597500 0.77891000 -0.04055040
v -0.34507200 0.79919400 -0.06085550
v -0.33997500 0.80301200 -0.05575090
v -0.34507200 0.77891000 -0.10146600
v -0.33997500 0.77762200 -0.10657000
v -0.33997500 0.67744300 -0.25874500
v -0.35521900 0.67486800 -0.25369700
v -0.34507200 0.66286300 -0.27496700
v -0.45670700 0.63429900 -0.23339200
v -0.39582800 0.63429900 -0.27400300
v -0.39486100 0.63379400 -0.27496700
v -0.47603300 0.57294100 -0.27496700
v -0.47697700 0.57344700 -0.27400300
v -0.45670700 0.61401500 -0.25369700
v -0.59879400 0.45164400 -0.27400300
v -0.59784700 0.45117400 -0.27496700
v -0.61862300 0.41032200 -0.27496700
v -0.60616300 0.43686800 -0.27496700
v -0.61908400 0.45164400 -0.25369700
v -0.63940000 0.41104200 -0.25369700
v -0.61862300 0.40584600 -0.27496700
v -0.63940000 0.40584600 -0.25369700
v -0.67992800 0.40584600 -0.20310500
v -0.72056000 0.40584600 -0.15222900
v -0.72056000 0.41104200 -0.15222900
v -0.67998000 0.43135900 -0.19278200
v -0.70029500 0.45164400 -0.15222900
v -0.61908400 0.47192900 -0.23339200
v -0.53787900 0.63429900 -0.15222900
v -0.47697700 0.67486800 -0.15222900
v -0.45670700 0.67486800 -0.17247700
v -0.41612100 0.73576600 -0.11161800
v -0.40597500 0.75862600 -0.08116070
v -0.46683000 0.69772800 -0.12177100
v -0.52773300 0.65711300 -0.12177100
v -0.52773300 0.69772800 -0.04055040
v -0.50744000 0.73829600 0.02025150
v -0.56831900 0.67739700 -0.02024530
v -0.56831900 0.69772800 0.04055660
v -0.59541700 0.65627900 -0.02024530
v -0.57846500 0.66474900 -0.03039790
v -0.57846500 0.63429900 -0.09131320
v -0.59541700 0.63599400 -0.06085550
v -0.63599700 0.63599400 0.02025150
v -0.61570700 0.61567700 -0.06085550
v -0.61908400 0.59370200 -0.09131320
v -0.59879400 0.61398700 -0.09131320
v -0.67998000 0.49224500 -0.13192300
v -0.67660200 0.51422100 -0.10146600
v -0.69689200 0.53453700 -0.02024530
v -0.71718200 0.47361900 -0.08116070
v -0.73747200 0.51422100 0.04055660
v -0.72056000 0.45164400 -0.11161800
v -0.74085000 0.43135900 -0.09131320
v -0.80174500 0.41104200 0.03040400
v -0.76116500 0.45164400 -0.01009280
v -0.79836800 0.43304900 0.06086170
v -0.80681100 0.40850700 0.04055660
v -0.74594100 0.40584600 -0.10413200
v -0.74085000 0.41104200 -0.11161800
v -0.72670000 0.40584600 -0.14207600
v -0.80742500 0.40584600 0.04055660
v -0.81190300 0.40597100 0.06086170
v -0.80681100 0.42879200 0.08116680
v -0.79836800 0.45333400 0.10147200
v -0.81190300 0.42625600 0.10147200
v -0.83219300 0.40597100 0.18263600
v -0.83219300 0.42625600 0.24355100
v -0.81865800 0.45333400 0.24355100
v -0.84242700 0.40584600 0.28416100
v -0.83219300 0.40584600 0.18252200
v -0.81192800 0.40584600 0.06086170
v -0.77807800 0.51422100 0.24355100
v -0.79836800 0.47361900 0.18263600
v -0.67660200 0.63599400 0.14208200
v -0.73747200 0.57507600 0.26385600
v -0.73747200 0.57507600 0.28416100
v -0.68338300 0.64275600 0.24355100
v -0.65631200 0.65627900 0.12177700
v -0.73747200 0.53453700 0.08116680
v -0.75776200 0.51422100 0.10147200
v -0.75776200 0.47361900 0.02025150
v -0.67660200 0.61567700 0.08116680
v -0.51418800 0.77803600 0.16233100
v -0.48712300 0.77891000 0.10147200
v -0.49389500 0.79836600 0.26385600
v -0.49389500 0.79836600 0.28416100
v -0.46683000 0.81188900 0.28416100
v -0.46683000 0.81188900 0.26385600
v -0.48205000 0.80172400 0.29431400
v -0.55479800 0.75775200 0.28416100
v -0.66475600 0.65966000 0.29431400
v -0.38565800 0.75862600 -0.10146600
v -0.42626800 0.69772800 -0.16238100
f 128 127 130
f 128 130 129
f 128 129 122
f 128 122 127
f 127 122 126
f 123 126 122
f 123 37 126
f 125 88 37
f 130 127 131
f 125 37 123
f 118 91 124
f 125 123 89
f 91 90 89
f 91 89 124
f 119 118 124
f 125 89 88
f 123 124 89
f 33 134 34
f 132 133 130
f 137 139 138
f 119 124 123
f 137 138 133
f 137 133 32
f 33 32 133
f 33 133 134
f 134 37 34
f 132 130 131
f 136 135 131
f 136 127 126
f 136 126 37
f 136 37 135
f 135 37 134
f 135 134 131
f 132 131 134
f 132 134 133
f 136 131 127
f 119 123 122
f 102 105 104
f 119 121 120
f 107 108 104
f 107 104 105
f 107 105 106
f 106 105 93
f 100 93 105
f 102 100 105
f 102 104 103
f 102 103 101
f 102 101 100
f 100 101 64
f 100 64 99
f 100 99 93
f 98 94 93
f 98 93 99
f 137 140 139
f 107 109 108
f 107 110 109
f 107 111 110
f 107 106 111
f 119 120 117
f 119 117 118
f 118 117 91
f 91 117 112
f 113 112 117
f 115 113 117
f 115 117 116
f 119 122 121
f 115 116 114
f 113 114 108
f 113 108 109
f 113 109 110
f 113 110 112
f 110 93 112
f 110 111 93
f 106 93 111
f 115 114 113
f 137 32 140
f 150 148 155
f 140 141 31
f 23 156 30
f 22 156 23
f 22 30 156
f 22 155 30
f 22 151 155
f 154 151 22
f 154 22 18
f 154 18 151
f 51 152 153
f 51 153 48
f 2 1 48
f 9 2 48
f 9 48 153
f 9 153 152
f 9 152 17
f 30 155 143
f 142 30 143
f 148 143 155
f 151 150 155
f 98 99 97
f 96 158 95
f 158 71 95
f 69 71 68
f 157 68 71
f 157 71 158
f 157 158 96
f 18 17 152
f 157 96 97
f 97 66 68
f 97 65 66
f 97 64 65
f 97 99 64
f 92 91 93
f 91 112 93
f 32 31 141
f 157 97 68
f 18 152 151
f 151 152 51
f 151 51 150
f 146 120 121
f 146 121 116
f 121 144 116
f 129 121 122
f 129 144 121
f 139 145 138
f 130 133 129
f 146 116 120
f 71 73 95
f 129 145 144
f 144 145 139
f 144 139 143
f 139 142 143
f 140 142 139
f 140 30 142
f 140 31 30
f 129 138 145
f 140 32 141
f 120 116 117
f 144 143 147
f 54 51 52
f 54 150 51
f 54 148 150
f 149 148 54
f 149 54 55
f 101 56 64
f 101 55 56
f 144 147 116
f 101 149 55
f 101 143 148
f 101 103 143
f 104 143 103
f 104 108 143
f 114 116 108
f 147 108 116
f 147 143 108
f 101 148 149
f 98 97 94
f 133 138 129
f 94 96 95
f 12 25 38
f 27 36 25
f 36 38 25
f 36 37 38
f 36 34 37
f 35 34 36
f 35 36 27
f 35 27 28
f 35 28 34
f 28 33 34
f 28 32 33
f 28 31 32
f 28 29 31
f 29 30 31
f 29 23 30
f 8 12 38
f 8 38 5
f 38 37 5
f 4 5 37
f 47 43 44
f 47 44 46
f 44 37 46
f 39 37 44
f 45 39 44
f 42 39 45
f 42 45 44
f 26 23 29
f 42 44 43
f 42 41 39
f 40 39 41
f 40 41 1
f 40 1 3
f 40 3 39
f 39 3 37
f 4 37 3
f 42 43 41
f 26 29 28
f 26 28 27
f 26 27 25
f 14 13 10
f 10 13 12
f 11 10 12
f 11 12 8
f 11 8 10
f 10 8 9
f 8 2 9
f 14 15 13
f 6 2 8
f 7 8 5
f 7 5 6
f 6 5 2
f 2 5 4
f 2 4 3
f 2 3 1
f 94 97 96
f 7 6 8
f 47 46 43
f 14 16 15
f 16 10 9
f 26 25 23
f 24 23 25
f 24 25 12
f 13 24 12
f 15 24 13
f 15 20 24
f 20 23 24
f 14 10 16
f 20 22 23
f 21 18 22
f 19 18 21
f 19 21 20
f 19 15 18
f 16 18 15
f 16 17 18
f 16 9 17
f 21 22 20
f 43 46 1
f 19 20 15
f 46 48 1
f 86 84 85
f 84 81 85
f 82 81 84
f 82 84 83
f 82 83 79
f 82 79 80
f 82 80 81
f 80 76 81
f 77 76 80
f 77 80 79
f 77 79 78
f 77 78 74
f 77 74 76
f 75 76 74
f 75 46 76
f 86 87 84
f 86 37 87
f 86 85 37
f 37 85 46
f 41 43 1
f 94 95 73
f 94 73 93
f 78 73 74
f 78 93 73
f 79 93 78
f 83 93 79
f 72 70 46
f 83 92 93
f 83 90 91
f 83 84 90
f 84 89 90
f 84 87 89
f 87 37 88
f 81 76 85
f 76 46 85
f 83 91 92
f 72 46 75
f 87 88 89
f 72 74 73
f 57 60 49
f 59 50 49
f 59 49 60
f 59 60 58
f 59 58 50
f 53 50 58
f 53 58 57
f 58 60 57
f 53 57 56
f 53 54 52
f 53 52 50
f 50 52 51
f 50 51 48
f 50 48 49
f 72 75 74
f 49 48 46
f 53 55 54
f 61 57 49
f 53 56 55
f 62 56 61
f 72 71 70
f 72 73 71
f 56 57 61
f 70 71 69
f 70 69 46
f 69 49 46
f 67 49 69
f 67 69 68
f 67 68 66
f 67 61 49
f 62 61 66
f 62 66 65
f 63 56 62
f 63 62 65
f 63 64 56
f 67 66 61
f 63 65 64

