# https://github.com/mikedh/trimesh
v 0.55863200 -0.74641700 0.28416100
v 0.57513300 -0.73745700 0.28416100
v 0.55863200 -0.74568500 0.29295300
v 0.55863200 -0.74568500 0.24355100
v 0.56157900 -0.74422300 0.24355100
v 0.57513300 -0.73745700 0.24355100
v 0.63602900 -0.69686500 0.28416100
v 0.61910300 -0.70532200 0.29431400
v 0.55863200 -0.74536500 0.29448400
v 0.55863200 -0.73553700 0.14781100
v 0.63602900 -0.69686500 0.26385600
v 0.59543200 -0.71716100 0.16233100
v 0.67659400 -0.65627300 0.28416100
v 0.62925200 -0.69266000 0.29936200
v 0.55863200 -0.74294300 0.29936200
v 0.55863200 -0.73462300 0.14208200
v 0.65629500 -0.67656900 0.26385600
v 0.61573000 -0.69686500 0.12177700
v 0.63602900 -0.67656900 0.12177700
v 0.57513300 -0.71716100 0.10147200
v 0.75775500 -0.55479200 0.26385600
v 0.75775500 -0.55479200 0.28416100
v 0.78653400 -0.51758300 0.29431400
v 0.67999900 -0.64443300 0.29431400
v 0.66984900 -0.65202200 0.29936200
v 0.69689200 -0.61568100 0.18263600
v 0.66984900 -0.62921100 0.30446600
v 0.60895300 -0.69010000 0.30446600
v 0.55863200 -0.72008700 0.30446600
v 0.55863200 -0.72438400 0.09602700
v 0.55863200 -0.69403100 -0.01542430
v 0.59543200 -0.67656900 0.02025150
v 0.71719100 -0.57508800 0.10147200
v 0.67659400 -0.59538500 0.04055660
v 0.55863200 -0.72241800 0.08763270
v 0.77890500 -0.52773100 0.28416100
v 0.75775500 -0.53449600 0.14208200
v 0.77805400 -0.51420000 0.18263600
v 0.81190700 -0.46688800 0.28416100
v 0.84743000 -0.39585200 0.29431400
v 0.80513000 -0.47365400 0.29766000
v 0.78483100 -0.51420000 0.29766000
v 0.77131000 -0.53024500 0.29936200
v 0.79835300 -0.49395000 0.26385600
v 0.80683200 -0.47703600 0.25370400
v 0.77131000 -0.50748000 0.30446600
v 0.55863200 -0.69010000 0.30446600
v 0.55863200 -0.67629500 -0.04701630
v 0.57343100 -0.63935900 -0.09131320
v 0.57513300 -0.67656900 -0.02024530
v 0.59543200 -0.63597700 -0.06085550
v 0.61573000 -0.61568100 -0.06085550
v 0.61573000 -0.63597700 -0.02024530
v 0.73745700 -0.53449600 0.06086170
v 0.75860700 -0.50748000 0.06086170
v 0.73830800 -0.54802700 0.10147200
v 0.75860700 -0.52773100 0.12177700
v 0.69689200 -0.53449600 -0.04055040
v 0.77890500 -0.50748000 0.16233100
v 0.78653400 -0.49733200 0.17248300
v 0.89310100 -0.28417800 0.26385600
v 0.89310100 -0.28417800 0.28416100
v 0.88632400 -0.29094300 0.29766000
v 0.84572700 -0.39242300 0.29766000
v 0.82542800 -0.43306100 0.29766000
v 0.86772800 -0.31462200 0.15217800
v 0.88802700 -0.29432600 0.25370400
v 0.80683200 -0.43644400 0.11162500
v 0.81190700 -0.42629600 0.30446600
v 0.83498800 -0.27946900 0.30055300
v 0.55863200 -0.67798600 0.30140400
v 0.83220600 -0.30447400 0.30446600
v 0.55863200 -0.64713000 -0.09205060
v 0.61402800 -0.59876700 -0.09131320
v 0.55863200 -0.59506500 -0.16884700
v 0.57343100 -0.51758300 -0.25369700
v 0.67492400 -0.51758300 -0.11161800
v 0.67659400 -0.53449600 -0.08116070
v 0.73745700 -0.51420000 0.02025150
v 0.79920400 -0.42629600 0.06086170
v 0.76623500 -0.49733200 0.07101430
v 0.77890500 -0.48718400 0.10147200
v 0.74593600 -0.49733200 0.01015560
v 0.75860700 -0.46688800 0.00000309
v 0.70537200 -0.51758300 -0.05070300
v 0.71804200 -0.50748000 -0.04055040
v 0.78653400 -0.47703600 0.11162500
v 0.89310100 -0.27946900 0.26385600
v 0.87280300 -0.30447400 0.16233100
v 0.87280300 -0.28417800 0.10147200
v 0.88396700 -0.27946900 0.18740000
v 0.89310100 -0.27946900 0.28416100
v 0.88632400 -0.27946900 0.29766000
v 0.87280300 -0.28417800 0.30446600
v 0.83220600 -0.38565800 0.30446600
v 0.84743000 -0.33491800 0.07101430
v 0.86772800 -0.29432600 0.09131940
v 0.80683200 -0.41614800 0.07101430
v 0.83184500 -0.27946900 0.29896500
v 0.85250400 -0.27946900 0.30446600
v 0.82847300 -0.27946900 0.29698000
v 0.55863200 -0.67176900 0.29885100
v 0.63432700 -0.51758300 -0.17247700
v 0.55863200 -0.53417600 -0.25001100
v 0.57343100 -0.49733200 -0.27400300
v 0.64955100 -0.50748000 -0.16238100
v 0.70537200 -0.47703600 -0.11161800
v 0.69774400 -0.50748000 -0.08116070
v 0.66477500 -0.49733200 -0.15222900
v 0.83980100 -0.34506600 0.06086170
v 0.77890500 -0.42629600 0.00000309
v 0.73830800 -0.40600000 -0.12177100
v 0.86366800 -0.27946900 0.04532090
v 0.87280300 -0.27946900 0.10147200
v 0.87280300 -0.27946900 0.30446600
v 0.82307100 -0.27946900 0.28886900
v 0.55863200 -0.66148400 0.29057000
v 0.55863200 -0.51388000 -0.27031600
v 0.55863200 -0.51310300 -0.27071300
v 0.55863200 -0.50469200 -0.27496700
v 0.57294000 -0.49541300 -0.27496700
v 0.65413400 -0.35430000 -0.27496700
v 0.65462500 -0.35521400 -0.27400300
v 0.65462500 -0.43644400 -0.21308700
v 0.71552100 -0.43644400 -0.13192300
v 0.81950300 -0.32477000 -0.02024530
v 0.86010000 -0.28417800 0.04055660
v 0.77890500 -0.30447400 -0.14207600
v 0.75860700 -0.34506600 -0.14207600
v 0.82307100 -0.27946900 -0.05614790
v 0.82068100 -0.27946900 0.28416100
v 0.81832400 -0.27946900 0.27939700
v 0.81426400 -0.27946900 0.26856400
v 0.79396600 -0.27946900 0.20770500
v 0.75336800 -0.27946900 0.08593120
v 0.70281800 -0.28417800 -0.06085550
v 0.63452300 -0.28417800 -0.27496700
v 0.59392600 -0.34506600 -0.27496700
v 0.57362700 -0.38565800 -0.27496700
v 0.55863200 -0.42908400 -0.24632400
v 0.55863200 -0.41998800 -0.27496700
v 0.67443300 -0.31370700 -0.27496700
v 0.68507300 -0.29432600 -0.27400300
v 0.73578700 -0.37551000 -0.15222900
v 0.81950300 -0.28417800 -0.06085550
v 0.77638400 -0.29432600 -0.15222900
v 0.78515900 -0.27946900 -0.14678400
v 0.78653400 -0.29432600 -0.13192300
v 0.70638700 -0.27946900 -0.06085550
v 0.63887700 -0.27946900 -0.27496700
v 0.56416500 -0.40600000 -0.27496700
v 0.55863200 -0.42131300 -0.26793400
v 0.68363300 -0.29528600 -0.27496700
v 0.68458200 -0.29149100 -0.27496700
v 0.68743000 -0.27946900 -0.27496700
v 0.69754700 -0.27946900 -0.26543800
v 0.69774400 -0.28417800 -0.26385000
v 0.75860700 -0.28417800 -0.18263000
v 0.77841400 -0.27946900 -0.15761700
v 0.71755100 -0.27946900 -0.23878100
f 71 101 102
f 70 116 101
f 74 76 103
f 71 99 101
f 70 101 99
f 74 103 77
f 70 134 133
f 70 132 131
f 70 133 132
f 70 135 134
f 70 149 135
f 70 150 149
f 75 104 76
f 70 155 150
f 70 156 155
f 70 131 116
f 76 104 105
f 80 96 98
f 76 106 103
f 90 97 113
f 70 160 156
f 86 108 107
f 84 112 111
f 84 107 112
f 83 107 84
f 83 86 107
f 76 105 106
f 80 111 110
f 79 86 83
f 77 109 107
f 77 106 109
f 77 103 106
f 77 86 85
f 77 108 86
f 77 107 108
f 80 110 96
f 70 159 160
f 62 93 63
f 70 130 147
f 63 94 95
f 63 115 94
f 63 93 115
f 62 92 93
f 61 91 88
f 61 90 91
f 61 89 90
f 63 95 64
f 61 66 89
f 61 92 62
f 61 88 92
f 60 87 68
f 59 87 60
f 59 82 87
f 58 86 79
f 90 113 114
f 61 67 66
f 70 147 159
f 64 95 69
f 66 68 96
f 70 113 130
f 70 114 113
f 70 91 114
f 70 88 91
f 70 92 88
f 70 93 92
f 70 115 93
f 64 69 65
f 70 100 115
f 70 99 71
f 68 98 96
f 68 81 98
f 68 87 81
f 66 90 89
f 66 97 90
f 66 96 97
f 70 72 100
f 90 114 91
f 126 128 127
f 96 113 97
f 128 146 147
f 128 144 146
f 128 129 144
f 127 145 130
f 127 128 145
f 58 85 86
f 125 144 129
f 128 147 148
f 124 144 125
f 123 146 144
f 123 143 146
f 122 143 123
f 122 142 143
f 120 122 121
f 120 142 122
f 120 153 142
f 123 144 124
f 120 154 153
f 128 148 130
f 130 148 147
f 156 160 157
f 146 157 158
f 146 159 147
f 146 158 159
f 143 157 146
f 143 156 157
f 143 155 156
f 128 130 145
f 143 154 155
f 142 153 143
f 141 152 151
f 140 151 152
f 139 151 140
f 137 149 150
f 136 149 137
f 135 149 136
f 143 153 154
f 96 110 113
f 120 155 154
f 120 137 150
f 110 126 127
f 110 111 126
f 107 125 112
f 107 109 125
f 105 109 106
f 105 125 109
f 105 124 125
f 110 127 113
f 105 123 124
f 105 121 122
f 105 120 121
f 105 119 120
f 105 118 119
f 104 118 105
f 101 117 102
f 101 116 117
f 105 122 123
f 120 150 155
f 111 112 128
f 112 125 129
f 120 138 137
f 120 139 138
f 120 151 139
f 120 141 151
f 117 139 140
f 117 138 139
f 117 137 138
f 111 128 126
f 117 136 137
f 117 134 135
f 117 133 134
f 117 132 133
f 117 131 132
f 116 131 117
f 113 127 130
f 112 129 128
f 117 135 136
f 58 77 85
f 33 54 55
f 55 111 80
f 13 17 19
f 13 25 14
f 13 24 25
f 13 23 24
f 13 22 23
f 13 21 22
f 12 20 18
f 12 16 20
f 11 19 17
f 11 18 19
f 11 12 18
f 11 17 13
f 10 16 12
f 8 15 9
f 8 14 15
f 13 19 26
f 13 26 21
f 14 25 27
f 14 27 28
f 22 36 23
f 21 38 36
f 21 37 38
f 21 26 37
f 21 36 22
f 20 35 31
f 20 30 35
f 7 11 13
f 19 34 33
f 19 33 26
f 18 32 19
f 18 31 32
f 18 20 31
f 16 30 20
f 15 28 29
f 14 28 15
f 19 32 34
f 7 14 8
f 7 13 14
f 6 12 11
f 1 118 104
f 1 119 118
f 1 120 119
f 1 141 120
f 1 152 141
f 1 140 152
f 1 117 140
f 1 104 75
f 1 102 117
f 1 47 71
f 1 29 47
f 1 15 29
f 1 9 15
f 1 3 9
f 1 2 3
f 157 160 159
f 1 71 102
f 23 39 40
f 1 75 73
f 1 48 31
f 6 10 12
f 5 10 6
f 4 10 5
f 2 11 7
f 2 6 11
f 2 9 3
f 2 8 9
f 1 73 48
f 2 7 8
f 1 5 6
f 1 4 5
f 1 10 4
f 1 16 10
f 1 30 16
f 1 35 30
f 1 31 35
f 1 6 2
f 23 40 41
f 23 41 42
f 23 42 43
f 49 52 51
f 49 74 52
f 48 73 49
f 47 72 70
f 47 70 71
f 45 68 66
f 45 60 68
f 49 51 50
f 44 60 45
f 41 46 42
f 41 69 46
f 41 65 69
f 40 67 61
f 40 66 67
f 40 45 66
f 40 65 41
f 42 46 43
f 40 64 65
f 49 73 75
f 49 76 74
f 55 84 111
f 55 83 84
f 55 79 83
f 55 57 56
f 55 59 57
f 55 82 59
f 55 87 82
f 49 75 76
f 55 81 87
f 55 80 98
f 54 79 55
f 54 58 79
f 52 58 53
f 52 78 58
f 52 77 78
f 52 74 77
f 55 98 81
f 58 78 77
f 40 63 64
f 40 61 62
f 27 72 47
f 27 100 72
f 27 115 100
f 27 94 115
f 27 95 94
f 27 69 95
f 27 46 69
f 27 47 29
f 26 33 37
f 25 43 46
f 23 45 39
f 23 44 45
f 23 38 44
f 23 36 38
f 23 25 24
f 23 43 25
f 25 46 27
f 40 62 63
f 27 29 28
f 31 49 50
f 39 45 40
f 38 60 44
f 38 59 60
f 37 59 38
f 37 57 59
f 34 58 54
f 34 53 58
f 31 48 49
f 33 57 37
f 33 55 56
f 33 34 54
f 32 53 34
f 32 52 53
f 32 51 52
f 32 50 51
f 31 50 32
f 33 56 57
f 157 159 158

