# https://github.com/mikedh/trimesh
v -0.89308600 -0.00188468 0.30446600
v -0.87953700 -0.00188468 0.29766000
v -0.91337400 -0.00188468 0.30446600
v -0.57510900 -0.69009500 0.30446600
v -0.57510900 -0.67252600 0.30174400
v -0.87332400 -0.00188468 0.29057000
v -0.92692300 -0.00188468 0.29766000
v -0.91337400 -0.08123260 0.30446600
v -0.60894600 -0.69009500 0.30446600
v -0.57510900 -0.71716800 0.30106300
v -0.57510900 -0.65963700 0.29431400
v -0.86869100 -0.00188468 0.28416100
v -0.92755400 -0.00188468 0.29641200
v -0.92692300 -0.08123260 0.29766000
v -0.92351800 -0.09138510 0.29936200
v -0.89308600 -0.20299100 0.30446600
v -0.64955800 -0.64948500 0.30446600
v -0.63941400 -0.67994200 0.29936200
v -0.61909000 -0.70024700 0.29936200
v -0.57851400 -0.72055200 0.29936200
v -0.57510900 -0.72393600 0.29851100
v -0.57510900 -0.64948500 0.28416100
v -0.85763400 -0.00188468 0.26436700
v -0.86475900 -0.00188468 0.27826300
v -0.93369700 -0.00188468 0.28416100
v -0.93369700 -0.08123260 0.28416100
v -0.90659900 -0.20299100 0.29766000
v -0.90323000 -0.21314300 0.29936200
v -0.87279700 -0.28421100 0.30446600
v -0.66984600 -0.62918000 0.30446600
v -0.62249500 -0.70363100 0.29091100
v -0.67999000 -0.63933200 0.29936200
v -0.57510900 -0.72732000 0.29386000
v -0.57510900 -0.64106000 0.27230700
v -0.81231900 -0.00188468 0.12177700
v -0.85742300 -0.00188468 0.26385600
v -0.93369700 -0.00188468 0.24167900
v -0.93369700 -0.06092760 0.24355100
v -0.91337400 -0.20299100 0.28416100
v -0.88294200 -0.29436300 0.29936200
v -0.83218600 -0.38559200 0.30446600
v -0.77128700 -0.50742200 0.30446600
v -0.63600900 -0.69686300 0.27735500
v -0.57510900 -0.73747300 0.27735500
v -0.68336000 -0.64271600 0.29091100
v -0.67662000 -0.65625300 0.27735500
v -0.78143100 -0.51757400 0.29936200
v -0.57510900 -0.39538400 -0.27496700
v -0.57661900 -0.37644700 -0.27496700
v -0.68823900 -0.00188468 -0.27496700
v -0.91337400 -0.00188468 0.08116680
v -0.93369700 -0.02031760 0.22324600
v -0.93369700 -0.04062260 0.22324600
v -0.91337400 -0.10153800 0.14208200
v -0.89308600 -0.22329600 0.14208200
v -0.91337400 -0.18268600 0.24355100
v -0.89308600 -0.26390600 0.20294100
v -0.89308600 -0.28421100 0.26385600
v -0.89308600 -0.28421100 0.28416100
v -0.88631100 -0.29774700 0.29091100
v -0.84233000 -0.39574400 0.29936200
v -0.79161000 -0.46681200 0.30446600
v -0.63600900 -0.69686300 0.25705000
v -0.57510900 -0.73747300 0.23674500
v -0.69690800 -0.61564300 0.17588600
v -0.67662000 -0.63594800 0.15558100
v -0.63600900 -0.67655800 0.11497100
v -0.65629700 -0.67655800 0.25705000
v -0.75777300 -0.55480000 0.27735500
v -0.75777300 -0.55480000 0.25705000
v -0.79834900 -0.49388500 0.27735500
v -0.77469100 -0.53111100 0.28075800
v -0.80175400 -0.47696400 0.29936200
v -0.80512400 -0.48034800 0.29091100
v -0.57510900 -0.49539700 -0.27496700
v -0.73372900 -0.00188468 -0.27496700
v -0.91284700 -0.00188468 0.07901160
v -0.91000400 -0.03723840 0.06426480
v -0.91337400 -0.04062260 0.08116680
v -0.89308600 -0.16245300 0.08116680
v -0.87279700 -0.26390600 0.06086170
v -0.87279700 -0.28421100 0.10147200
v -0.87279700 -0.30451600 0.16233100
v -0.87279700 -0.32482100 0.24355100
v -0.83218600 -0.42620200 0.28416100
v -0.82541200 -0.43973800 0.29091100
v -0.61572100 -0.69686300 0.11497100
v -0.59543300 -0.71716800 0.15558100
v -0.57510900 -0.71716800 0.09466580
v -0.75777300 -0.53449500 0.13527600
v -0.73752000 -0.55480000 0.11497100
v -0.67662000 -0.59533800 0.03380710
v -0.59543300 -0.67655800 0.01355870
v -0.59880200 -0.67994200 0.03040400
v -0.71719700 -0.57503300 0.09472250
v -0.73752000 -0.53449500 0.05411230
v -0.79834900 -0.49388500 0.25705000
v -0.77806100 -0.51419000 0.17588600
v -0.81189800 -0.46681200 0.28416100
v -0.57510900 -0.49726900 -0.27400300
v -0.57661900 -0.49539700 -0.27496700
v -0.73534400 -0.01110110 -0.27496700
v -0.75777300 -0.00188468 -0.25029400
v -0.89308600 -0.00188468 0.02025150
v -0.90831900 -0.01779740 0.06086170
v -0.87279700 -0.02031760 -0.04055040
v -0.87279700 -0.04062260 -0.04055040
v -0.89308600 -0.06092760 0.02025150
v -0.89308600 -0.14214800 0.06086170
v -0.87279700 -0.18268600 0.02025150
v -0.86265300 -0.25375300 0.03040400
v -0.78143100 -0.29436300 -0.15222900
v -0.82204200 -0.29436300 -0.05070300
v -0.85587900 -0.28759500 0.03721020
v -0.84233000 -0.33497300 0.05070920
v -0.86265300 -0.29436300 0.07101430
v -0.85247400 -0.32482100 0.08116680
v -0.81189800 -0.42620200 0.12177700
v -0.81189800 -0.46681200 0.26385600
v -0.81867200 -0.45327500 0.27735500
v -0.57851400 -0.70024700 0.05070920
v -0.57510900 -0.67655800 -0.02705150
v -0.77806100 -0.49388500 0.11497100
v -0.75777300 -0.51419000 0.07441740
v -0.61572100 -0.63594800 -0.02705150
v -0.69690800 -0.53449500 -0.04735660
v -0.59543300 -0.65625300 -0.02705150
v -0.75440300 -0.51080600 0.05745860
v -0.74088900 -0.51757400 0.03040400
v -0.73752000 -0.51419000 0.01355870
v -0.79161000 -0.48711700 0.18263600
v -0.79834900 -0.45327500 0.11497100
v -0.57851400 -0.49726900 -0.27400300
v -0.57510900 -0.51757400 -0.25369700
v -0.65875400 -0.35427000 -0.27496700
v -0.77806100 -0.00678092 -0.22998900
v -0.73534400 -0.04523080 -0.27496700
v -0.77771000 -0.00188468 -0.22868500
v -0.86725200 -0.00188468 -0.04429380
v -0.86602300 -0.01354930 -0.05410610
v -0.82713200 -0.01779740 -0.14207600
v -0.82881600 -0.03723840 -0.13867300
v -0.82204200 -0.05077510 -0.15222900
v -0.81189800 -0.10153800 -0.16238100
v -0.79161000 -0.26390600 -0.14207600
v -0.82204200 -0.31466800 -0.03039790
v -0.77806100 -0.27067400 -0.16913100
v -0.72060100 -0.29436300 -0.23339200
v -0.76114300 -0.33497300 -0.15222900
v -0.74088900 -0.39574400 -0.13192300
v -0.78143100 -0.41604900 -0.01009280
v -0.74088900 -0.49726900 -0.01009280
v -0.76114300 -0.49726900 0.05070920
v -0.80175400 -0.43635400 0.09131940
v -0.83896100 -0.35189400 0.07441740
v -0.59543300 -0.63594800 -0.06760500
v -0.57851400 -0.63933200 -0.09131320
v -0.57510900 -0.63933200 -0.09131320
v -0.78143100 -0.47696400 0.09131940
v -0.61572100 -0.61564300 -0.06760500
v -0.70027800 -0.51757400 -0.07100810
v -0.61909000 -0.59872200 -0.09131320
v -0.57851400 -0.51757400 -0.25369700
v -0.63941400 -0.49726900 -0.19278200
v -0.72060100 -0.43635400 -0.13192300
v -0.74088900 -0.37543900 -0.15222900
v -0.65970200 -0.35527800 -0.27400300
v -0.57510900 -0.52095800 -0.25029400
v -0.67904200 -0.31373200 -0.27496700
v -0.78051800 -0.00188468 -0.22511100
v -0.77806100 -0.04739090 -0.22998900
v -0.79497900 -0.04400670 -0.20633800
v -0.79666400 -0.02283770 -0.20293500
v -0.72885000 -0.11262600 -0.27496700
v -0.73752000 -0.10830600 -0.27059900
v -0.85247400 -0.00188468 -0.08116070
v -0.82204200 -0.01527730 -0.15222900
v -0.80175400 -0.01527730 -0.19278200
v -0.80175400 -0.05077510 -0.19278200
v -0.79834900 -0.10830600 -0.18943600
v -0.77806100 -0.20975900 -0.18943600
v -0.75777300 -0.23006400 -0.20974100
v -0.73752000 -0.25036900 -0.22998900
v -0.71719700 -0.27067400 -0.25029400
v -0.67999000 -0.31466800 -0.27400300
v -0.72060100 -0.35527800 -0.19278200
v -0.57510900 -0.58180100 -0.16913100
v -0.63941400 -0.51757400 -0.17247700
v -0.69690800 -0.49388500 -0.10821500
v -0.67999000 -0.51757400 -0.11161800
v -0.67999000 -0.47696400 -0.15222900
v -0.69690800 -0.27067400 -0.27059900
v -0.69259100 -0.26635400 -0.27496700
v -0.80572000 -0.00188468 -0.17826200
v -0.72011000 -0.15179600 -0.27496700
v -0.82600800 -0.00188468 -0.13765200
f 106 142 107
f 102 171 136
f 106 141 142
f 104 106 105
f 106 140 141
f 104 140 106
f 104 139 140
f 103 136 138
f 96 130 126
f 98 132 123
f 102 136 103
f 101 133 135
f 100 163 133
f 100 134 163
f 98 131 132
f 97 131 98
f 107 142 143
f 97 119 131
f 96 129 130
f 102 137 171
f 107 143 144
f 114 146 115
f 107 110 108
f 118 131 119
f 118 132 131
f 96 128 129
f 118 155 132
f 117 155 118
f 115 146 151
f 115 155 117
f 115 154 155
f 115 153 154
f 115 152 153
f 115 151 152
f 112 150 146
f 112 165 150
f 112 149 165
f 112 148 149
f 112 147 148
f 112 145 147
f 112 146 113
f 111 145 112
f 110 144 145
f 110 145 111
f 107 144 110
f 96 124 128
f 81 114 115
f 93 127 122
f 81 115 116
f 81 146 114
f 81 113 146
f 81 112 113
f 81 111 112
f 81 110 111
f 80 109 81
f 78 109 79
f 78 108 109
f 81 116 82
f 78 107 108
f 78 105 106
f 77 105 78
f 77 104 105
f 76 102 103
f 75 133 101
f 75 100 133
f 74 85 99
f 122 127 156
f 74 86 85
f 78 106 107
f 81 109 108
f 81 108 110
f 82 116 115
f 93 125 127
f 93 122 94
f 92 126 125
f 92 96 126
f 92 125 93
f 91 96 95
f 90 96 91
f 90 124 96
f 90 123 124
f 90 98 123
f 89 121 122
f 87 89 88
f 87 121 89
f 87 94 121
f 85 120 99
f 85 119 120
f 83 119 84
f 83 118 119
f 83 117 118
f 82 117 83
f 82 115 117
f 94 122 121
f 122 156 157
f 157 187 158
f 123 153 124
f 164 190 191
f 164 188 190
f 162 190 188
f 161 190 162
f 161 189 190
f 161 165 189
f 157 168 187
f 157 163 168
f 157 188 163
f 164 191 165
f 157 162 188
f 156 162 157
f 156 160 162
f 153 159 154
f 150 152 151
f 150 165 152
f 149 166 165
f 149 186 166
f 148 186 149
f 148 167 186
f 71 119 97
f 165 191 190
f 165 190 189
f 166 186 167
f 184 192 185
f 177 194 178
f 177 196 194
f 176 196 177
f 175 181 180
f 175 182 181
f 175 183 182
f 175 184 183
f 175 192 184
f 175 193 192
f 175 195 193
f 174 195 175
f 172 178 173
f 172 180 179
f 171 180 172
f 171 175 180
f 170 178 194
f 170 173 178
f 169 192 193
f 169 185 192
f 167 185 169
f 148 185 167
f 122 157 158
f 148 184 185
f 147 184 148
f 133 166 167
f 133 165 166
f 133 164 165
f 133 188 164
f 133 163 188
f 132 155 154
f 129 152 130
f 128 152 129
f 128 153 152
f 133 167 135
f 126 162 160
f 126 152 161
f 126 130 152
f 125 156 127
f 125 160 156
f 125 126 160
f 124 153 128
f 123 159 153
f 123 154 159
f 123 132 154
f 126 161 162
f 134 168 163
f 135 167 169
f 136 170 138
f 147 183 184
f 147 182 183
f 147 181 182
f 146 150 151
f 144 147 145
f 144 180 147
f 143 180 144
f 143 179 180
f 143 172 179
f 141 143 142
f 141 172 143
f 141 178 172
f 141 177 178
f 141 176 177
f 140 176 141
f 139 176 140
f 137 175 171
f 137 174 175
f 136 173 170
f 136 172 173
f 136 171 172
f 147 180 181
f 71 120 119
f 152 165 161
f 71 74 99
f 11 23 24
f 11 22 23
f 10 20 21
f 9 20 10
f 9 19 20
f 9 18 19
f 9 17 18
f 8 28 16
f 8 15 28
f 11 24 12
f 8 14 15
f 6 11 12
f 5 11 6
f 4 11 5
f 4 22 11
f 4 34 22
f 4 48 34
f 4 75 48
f 4 100 75
f 4 134 100
f 7 13 14
f 13 25 26
f 13 26 14
f 14 26 39
f 26 38 56
f 25 38 26
f 25 53 38
f 25 52 53
f 25 37 52
f 22 36 23
f 22 35 36
f 22 34 35
f 19 21 20
f 19 33 21
f 19 31 33
f 18 45 31
f 18 32 45
f 18 31 19
f 17 32 18
f 17 30 32
f 16 40 29
f 16 28 40
f 14 28 15
f 14 27 28
f 14 39 27
f 4 168 134
f 26 56 39
f 4 187 168
f 4 122 158
f 1 51 37
f 1 77 51
f 1 104 77
f 1 139 104
f 1 176 139
f 1 196 176
f 1 194 196
f 1 170 194
f 1 138 170
f 1 37 25
f 1 103 138
f 1 50 76
f 1 35 50
f 1 36 35
f 1 23 36
f 1 24 23
f 1 12 24
f 1 6 12
f 1 2 6
f 71 99 120
f 1 76 103
f 1 13 7
f 1 7 3
f 1 3 8
f 4 89 122
f 4 64 89
f 4 44 64
f 4 33 44
f 4 21 33
f 4 10 21
f 4 9 10
f 3 14 8
f 3 7 14
f 2 5 6
f 1 5 2
f 1 4 5
f 1 9 4
f 1 17 9
f 1 30 17
f 1 42 30
f 1 62 42
f 1 41 62
f 1 29 41
f 1 16 29
f 1 8 16
f 4 158 187
f 27 39 28
f 1 25 13
f 28 59 40
f 58 85 59
f 58 119 85
f 58 84 119
f 58 83 84
f 57 83 58
f 57 82 83
f 57 81 82
f 55 57 56
f 55 81 57
f 59 85 86
f 55 80 81
f 54 109 80
f 54 79 109
f 51 53 52
f 51 79 53
f 51 78 79
f 51 77 78
f 48 50 49
f 48 76 50
f 48 102 76
f 54 80 55
f 59 86 60
f 60 86 61
f 61 86 74
f 71 97 72
f 28 39 59
f 70 98 90
f 70 97 98
f 70 72 97
f 69 72 70
f 67 96 92
f 67 95 96
f 67 91 95
f 67 94 87
f 67 93 94
f 67 92 93
f 65 91 66
f 65 90 91
f 65 70 90
f 64 88 89
f 63 67 87
f 63 68 67
f 63 88 64
f 63 87 88
f 61 74 73
f 48 137 102
f 48 174 137
f 66 91 67
f 48 193 195
f 39 58 59
f 39 57 58
f 39 56 57
f 38 55 56
f 38 54 55
f 38 79 54
f 38 53 79
f 37 51 52
f 34 50 35
f 40 59 60
f 34 49 50
f 32 47 45
f 31 46 43
f 31 44 33
f 31 43 44
f 30 47 32
f 30 42 47
f 48 195 174
f 29 61 41
f 29 40 61
f 34 48 49
f 40 60 61
f 31 45 46
f 41 73 62
f 48 101 135
f 41 61 73
f 48 135 169
f 48 169 193
f 48 75 101
f 47 74 71
f 47 72 69
f 47 71 72
f 46 70 65
f 46 69 70
f 46 47 69
f 47 73 74
f 42 73 47
f 46 68 63
f 43 63 64
f 43 46 63
f 45 47 46
f 43 64 44
f 46 65 66
f 46 66 67
f 46 67 68
f 42 62 73

