# https://github.com/mikedh/trimesh
v -0.00128325 -0.89308500 0.30446600
v -0.00128325 -0.91339100 0.30446600
v -0.00128325 -0.89058000 0.30321900
v -0.34503800 -0.81189300 0.30446600
v -0.08120560 -0.91339100 0.30446600
v -0.09135170 -0.92354400 0.29936200
v -0.00128325 -0.92691700 0.29766000
v -0.00128325 -0.87955800 0.29766000
v -0.36493900 -0.81189300 0.30446600
v -0.35180200 -0.79836700 0.29766000
v -0.22325000 -0.89308500 0.30446600
v -0.23339600 -0.90323800 0.29936200
v -0.08120560 -0.92691700 0.29766000
v -0.00128325 -0.92731800 0.29686600
v -0.03385740 -0.86603200 0.29091100
v -0.31460000 -0.80174000 0.29431400
v -0.00128325 -0.86442900 0.27219400
v -0.01018330 -0.86262500 0.27400900
v -0.36493900 -0.83219900 0.30446600
v -0.36493900 -0.79836700 0.29766000
v -0.36493900 -0.78674400 0.28898200
v -0.28416200 -0.87277800 0.30446600
v -0.29430800 -0.88293200 0.29936200
v -0.23677800 -0.90661100 0.29091100
v -0.22325000 -0.91339100 0.28416100
v -0.22325000 -0.90661100 0.29766000
v -0.08120560 -0.93369700 0.28416100
v -0.00128325 -0.93369700 0.28416100
v -0.00128325 -0.85250600 0.24355100
v -0.35518400 -0.78143400 0.27400900
v -0.33489200 -0.86262500 0.29936200
v -0.32474600 -0.85250600 0.30446600
v -0.36493900 -0.84585900 0.29766000
v -0.36493900 -0.77659100 0.26425300
v -0.33827400 -0.86603200 0.29091100
v -0.29769000 -0.88630500 0.29091100
v -0.28416200 -0.89308500 0.28416100
v -0.22325000 -0.91339100 0.24355100
v -0.08120560 -0.93369700 0.24355100
v -0.00128325 -0.93369700 0.20294100
v -0.00128325 -0.83219900 0.18263600
v -0.36493900 -0.64466800 -0.11689300
v -0.36493900 -0.85250600 0.28438800
v -0.36493900 -0.85270600 0.28393400
v -0.28416200 -0.89308500 0.26385600
v -0.26387000 -0.89308500 0.18263600
v -0.20295800 -0.91339100 0.18263600
v -0.18270200 -0.91339100 0.16233100
v -0.04062140 -0.93369700 0.20294100
v -0.00128325 -0.91339100 0.06086170
v -0.00128325 -0.77131400 -0.02024530
v -0.36493900 -0.59249900 -0.27496700
v -0.36493900 -0.60408900 -0.23866700
v -0.36493900 -0.85270600 0.18308900
v -0.32474600 -0.87277800 0.20294100
v -0.34503800 -0.85250600 0.10147200
v -0.24354200 -0.89308500 0.14208200
v -0.24016000 -0.88971100 0.12512300
v -0.28416200 -0.85250600 0.02025150
v -0.15902800 -0.88971100 0.04395970
v -0.14211700 -0.91339100 0.12177700
v -0.12179000 -0.91339100 0.10147200
v -0.08120560 -0.91339100 0.08116680
v -0.02032930 -0.91339100 0.06086170
v -0.00128325 -0.85250600 -0.10146600
v -0.00128325 -0.73073500 -0.16238100
v -0.00128325 -0.71042900 -0.24354500
v -0.00128325 -0.70488500 -0.27496700
v -0.36493900 -0.64617100 -0.27496700
v -0.36493900 -0.85257200 0.16278400
v -0.36493900 -0.84255300 0.10186900
v -0.35518400 -0.84235200 0.07101430
v -0.36493900 -0.85250600 0.16233100
v -0.29430800 -0.84235200 -0.01009280
v -0.26387000 -0.85250600 0.00000309
v -0.14211700 -0.89308500 0.04055660
v -0.08120560 -0.89308500 0.02025150
v -0.08120560 -0.87277800 -0.04055040
v -0.02032930 -0.85250600 -0.10146600
v -0.00128325 -0.81867300 -0.16913100
v -0.00128325 -0.74322600 -0.27496700
v -0.35425900 -0.65876200 -0.27496700
v -0.36493900 -0.65776000 -0.27207400
v -0.36493900 -0.83747600 0.07589210
v -0.36493900 -0.81717000 -0.00527170
v -0.35518400 -0.82204600 -0.01009280
v -0.31460000 -0.82204600 -0.05070300
v -0.23339600 -0.84235200 -0.05070300
v -0.20295800 -0.85250600 -0.04055040
v -0.16241000 -0.85250600 -0.06085550
v -0.12179000 -0.85250600 -0.08116070
v -0.06091350 -0.83219900 -0.14207600
v -0.06767750 -0.81867300 -0.16913100
v -0.00128325 -0.77806100 -0.22998900
v -0.10826200 -0.75778800 -0.25029400
v -0.14888200 -0.73751500 -0.27059900
v -0.15318900 -0.72883200 -0.27496700
v -0.04738550 -0.77806100 -0.22998900
v -0.33393100 -0.67903500 -0.27496700
v -0.36493900 -0.67803300 -0.25176900
v -0.33489200 -0.68000300 -0.27400300
v -0.36493900 -0.79689700 -0.04582520
v -0.35518400 -0.78143400 -0.09131320
v -0.29430800 -0.76119500 -0.17247700
v -0.25368800 -0.80174000 -0.13192300
v -0.25368800 -0.82204600 -0.09131320
v -0.18270200 -0.83219900 -0.10146600
v -0.14211700 -0.83219900 -0.12177100
v -0.12855400 -0.79836700 -0.18943600
v -0.14888200 -0.81867300 -0.14882500
v -0.23001400 -0.71720900 -0.27059900
v -0.19234900 -0.72011500 -0.27496700
v -0.27305500 -0.69934100 -0.27496700
v -0.35518400 -0.70027600 -0.23339200
v -0.36493900 -0.69543300 -0.22851500
v -0.27401600 -0.70027600 -0.27400300
v -0.24692400 -0.71383600 -0.26725300
v -0.30783600 -0.69352900 -0.26725300
v -0.32812800 -0.71383600 -0.22664300
v -0.36493900 -0.77659100 -0.08643550
v -0.36493900 -0.75518300 -0.12591100
v -0.29092600 -0.73751500 -0.20974100
v -0.23001400 -0.79836700 -0.14882500
v -0.17255600 -0.82204600 -0.13192300
v -0.23001400 -0.75778800 -0.20974100
v -0.28754400 -0.71383600 -0.24694800
f 72 85 86
f 72 84 85
f 71 84 72
f 72 86 74
f 69 82 83
f 63 76 64
f 65 79 93
f 64 78 79
f 64 77 78
f 64 76 77
f 62 76 63
f 65 93 80
f 74 86 87
f 76 90 91
f 74 106 88
f 74 88 75
f 75 88 89
f 75 89 76
f 76 89 90
f 76 91 78
f 76 78 77
f 78 91 79
f 79 92 93
f 79 91 92
f 80 93 98
f 61 76 62
f 81 95 96
f 74 87 106
f 80 98 94
f 52 99 82
f 60 75 76
f 48 60 61
f 81 96 97
f 48 61 49
f 49 61 62
f 49 62 63
f 49 63 64
f 50 64 79
f 50 79 65
f 51 66 52
f 52 66 67
f 52 67 68
f 52 68 81
f 52 81 97
f 60 76 61
f 52 97 112
f 52 113 99
f 52 82 69
f 54 70 55
f 55 70 56
f 56 71 72
f 56 72 59
f 56 59 57
f 56 70 73
f 56 73 71
f 57 59 58
f 59 72 74
f 59 74 75
f 59 75 60
f 52 112 113
f 81 94 98
f 101 113 116
f 82 99 83
f 101 119 114
f 103 120 121
f 103 121 114
f 104 114 119
f 104 119 122
f 104 122 105
f 105 123 110
f 105 110 124
f 105 124 106
f 105 122 123
f 106 124 107
f 108 124 110
f 109 125 111
f 109 110 123
f 109 123 125
f 111 117 116
f 111 116 113
f 111 113 112
f 111 125 117
f 114 121 115
f 117 126 118
f 117 125 122
f 117 122 126
f 118 126 122
f 118 122 119
f 122 125 123
f 48 59 60
f 101 118 119
f 101 117 118
f 101 116 117
f 100 114 115
f 83 99 101
f 83 101 100
f 85 102 86
f 86 102 120
f 86 120 103
f 86 103 87
f 87 103 114
f 87 114 104
f 87 104 105
f 87 105 106
f 88 106 107
f 88 107 90
f 88 90 89
f 81 98 95
f 90 107 124
f 90 108 91
f 91 108 92
f 92 108 110
f 92 110 93
f 93 109 95
f 93 95 98
f 93 110 109
f 95 109 96
f 96 111 112
f 96 112 97
f 96 109 111
f 99 113 101
f 100 101 114
f 90 124 108
f 47 59 48
f 37 44 54
f 47 57 58
f 5 11 12
f 5 12 6
f 6 12 26
f 6 26 13
f 6 13 7
f 7 13 14
f 8 15 16
f 8 16 10
f 8 17 18
f 8 18 15
f 9 20 21
f 9 21 34
f 9 34 42
f 9 42 53
f 9 53 52
f 9 52 69
f 9 69 83
f 9 83 100
f 9 100 115
f 9 115 121
f 9 121 120
f 9 120 102
f 9 102 85
f 9 85 84
f 9 84 71
f 9 71 73
f 9 73 70
f 4 20 9
f 4 10 20
f 4 8 10
f 3 8 4
f 47 58 59
f 1 2 7
f 1 7 14
f 1 14 28
f 1 28 40
f 1 40 50
f 1 50 65
f 1 65 80
f 1 80 94
f 1 94 81
f 1 81 68
f 1 68 67
f 1 67 66
f 9 70 54
f 1 66 51
f 1 29 17
f 1 17 8
f 1 8 3
f 1 3 4
f 1 4 9
f 1 9 19
f 1 19 32
f 1 32 22
f 1 22 11
f 1 11 5
f 1 5 2
f 2 5 6
f 2 6 7
f 1 51 41
f 9 54 44
f 1 41 29
f 9 43 33
f 27 39 49
f 27 49 40
f 27 40 28
f 29 41 42
f 29 42 30
f 30 42 34
f 31 33 35
f 33 43 35
f 35 43 44
f 35 44 37
f 35 37 36
f 37 54 45
f 38 45 46
f 38 46 47
f 38 47 39
f 39 47 48
f 39 48 49
f 40 49 64
f 41 51 52
f 41 52 53
f 41 53 42
f 45 54 55
f 45 55 46
f 46 55 56
f 46 56 47
f 9 44 43
f 47 56 57
f 25 39 27
f 25 38 39
f 40 64 50
f 25 37 45
f 10 16 21
f 25 45 38
f 9 33 19
f 10 21 20
f 11 22 23
f 11 23 12
f 12 23 36
f 12 24 25
f 12 25 26
f 13 26 25
f 13 25 27
f 13 27 14
f 14 27 28
f 15 21 16
f 12 36 24
f 22 32 23
f 15 18 21
f 23 35 36
f 23 31 35
f 23 32 31
f 21 30 34
f 19 33 31
f 24 36 37
f 24 37 25
f 18 30 21
f 18 29 30
f 17 29 18
f 19 31 32

