# https://github.com/mikedh/trimesh
v -0.73372100 -0.00184477 -0.27496700
v -0.73372100 0.01004780 -0.27496700
v -0.68825700 -0.00184477 -0.27496700
v -0.75778100 -0.00184477 -0.25029400
v -0.72885300 0.08311920 -0.27496700
v -0.75778100 0.03383290 -0.25029400
v -0.73751800 0.07445920 -0.27059900
v -0.58400600 0.37041600 -0.27496700
v -0.81232300 -0.00184477 0.12177700
v -0.77773400 -0.00184477 -0.22868500
v -0.72519400 0.12733700 -0.27496700
v -0.78049600 -0.00184477 -0.22511100
v -0.79837700 0.07445920 -0.18943600
v -0.77807900 0.11504500 -0.20974100
v -0.73751800 0.19621800 -0.25029400
v -0.58310800 0.37452700 -0.27496700
v -0.58103700 0.40581500 -0.25517200
v -0.58466200 0.40581500 -0.24354500
v -0.85740700 -0.00184477 0.26385600
v -0.71342300 0.19270600 -0.27496700
v -0.71722000 0.19621800 -0.27059900
v -0.80573000 -0.00184477 -0.17826200
v -0.80514300 0.08798790 -0.17588000
v -0.79837700 0.15563200 -0.16913100
v -0.74428400 0.20970700 -0.23679500
v -0.70030500 0.24861700 -0.27400300
v -0.70579400 0.22834400 -0.27496700
v -0.58103700 0.39527900 -0.27496700
v -0.58103700 0.39539900 -0.27468300
v -0.58103700 0.40206300 -0.26135400
v -0.58103700 0.40581500 -0.27496700
v -0.60496000 0.40581500 -0.18263000
v -0.68615200 0.40581500 0.06086170
v -0.74238500 0.40581500 0.22891800
v -0.75432900 0.40581500 0.26385600
v -0.85927100 0.01355970 0.27735500
v -0.85764900 -0.00184477 0.26436700
v -0.64555600 0.40581500 -0.06085550
v -0.82602800 -0.00184477 -0.13765200
v -0.81190900 0.08120360 -0.16238100
v -0.81190900 0.16241600 -0.14207600
v -0.80514300 0.16916100 -0.15557500
v -0.77807900 0.19621800 -0.18943600
v -0.78484500 0.20970700 -0.17588000
v -0.74090100 0.22834400 -0.23339200
v -0.64676400 0.35565000 -0.27496700
v -0.69933800 0.24813800 -0.27496700
v -0.68000700 0.32983000 -0.25369700
v -0.61863000 0.40581500 -0.27496700
v -0.75557200 0.40581500 0.26595500
v -0.77807900 0.37887700 0.29766000
v -0.86869500 -0.00184477 0.28416100
v -0.86476000 -0.00184477 0.27826300
v -0.87335500 -0.00184477 0.29057000
v -0.85250500 -0.00184477 -0.08116070
v -0.85250500 0.02030410 -0.08116070
v -0.82544100 0.20970700 -0.09471630
v -0.85250500 0.10151700 -0.06085550
v -0.85250500 0.18268900 -0.04055040
v -0.84573900 0.18947400 -0.05410610
v -0.78484500 0.25033300 -0.15557500
v -0.78146200 0.22834400 -0.17247700
v -0.78146200 0.26893000 -0.15222900
v -0.76116400 0.28920400 -0.17247700
v -0.72060300 0.30951700 -0.21308700
v -0.62646600 0.39623700 -0.27496700
v -0.65970900 0.37041600 -0.25369700
v -0.72060300 0.40581500 -0.15222900
v -0.63941100 0.40581500 -0.25369700
v -0.76444400 0.40581500 0.28058800
v -0.76682600 0.40581500 0.28416100
v -0.77625000 0.40581500 0.29811400
v -0.79161100 0.38562100 0.30446600
v -0.89310100 -0.00184477 0.30446600
v -0.87956900 -0.00184477 0.29766000
v -0.89310100 -0.00184477 0.02025150
v -0.89310100 0.02030410 0.02025150
v -0.88633500 0.18947400 0.04730610
v -0.87280300 0.20296300 0.02025150
v -0.86603700 0.20970700 0.00680927
v -0.86772900 0.22579000 0.02025150
v -0.82713300 0.22579000 -0.08116070
v -0.82205800 0.22834400 -0.09131320
v -0.89310100 0.10151700 0.04055660
v -0.89310100 0.18268900 0.06086170
v -0.84235600 0.30951700 0.03040400
v -0.74090100 0.39072900 -0.13192300
v -0.67993800 0.40581500 -0.20310500
v -0.72674800 0.40581500 -0.14207600
v -0.79161100 0.40581500 0.30446600
v -0.91339900 -0.00184477 0.30446600
v -0.91284700 -0.00184477 0.07901160
v -0.91339900 0.00003090 0.08116680
v -0.88802700 0.20547700 0.06086170
v -0.86772900 0.24610300 0.04055660
v -0.84743100 0.30700300 0.04055660
v -0.91339900 0.14210300 0.18263600
v -0.91339900 0.16241600 0.20294100
v -0.89310100 0.20296300 0.08116680
v -0.80652400 0.40581500 0.03828790
v -0.74597500 0.40581500 -0.10413200
v -0.81204700 0.40581500 0.30446600
v -0.91339900 0.06093040 0.30446600
v -0.92693100 -0.00184477 0.29766000
v -0.91339900 -0.00184477 0.08116680
v -0.93366200 -0.00184477 0.24167900
v -0.93366200 0.04061720 0.26385600
v -0.85250500 0.30444800 0.06086170
v -0.83220700 0.36534800 0.08116680
v -0.82713300 0.36786200 0.06086170
v -0.81190900 0.40581500 0.06074830
v -0.80742200 0.40581500 0.04055660
v -0.93366200 0.06093040 0.28416100
v -0.91339900 0.20296300 0.24355100
v -0.87280300 0.28413500 0.14208200
v -0.91339900 0.22323600 0.28416100
v -0.89310100 0.24354900 0.18263600
v -0.83220700 0.38562100 0.30446600
v -0.83472700 0.40581500 0.29941900
v -0.89310100 0.22323600 0.30446600
v -0.92693100 0.06093040 0.29766000
v -0.92862300 0.07106700 0.29431400
v -0.93366200 -0.00184477 0.28416100
v -0.83220700 0.38562100 0.12177700
v -0.82713300 0.38817500 0.10147200
v -0.82212700 0.40581500 0.12177700
v -0.90832500 0.23341200 0.29431400
v -0.85250500 0.38562100 0.28416100
v -0.87280300 0.32476200 0.26385600
v -0.89310100 0.26386200 0.24355100
v -0.85250500 0.34503500 0.16233100
v -0.83490000 0.40581500 0.29930500
v -0.84743100 0.39579800 0.29431400
v -0.84573900 0.38562100 0.29766000
v -0.90663300 0.22323600 0.29766000
v -0.85250500 0.36534800 0.22324600
v -0.83220700 0.40581500 0.18252200
v -0.84242500 0.40581500 0.28416100
f 73 118 120
f 76 92 77
f 77 92 93
f 73 91 74
f 73 103 91
f 73 120 103
f 66 67 69
f 68 87 89
f 73 90 102
f 72 90 73
f 67 68 88
f 64 68 65
f 67 88 69
f 73 102 118
f 77 93 84
f 84 93 85
f 78 94 81
f 78 81 79
f 79 81 80
f 81 94 95
f 81 95 96
f 81 96 82
f 82 96 83
f 83 96 86
f 85 93 97
f 85 97 98
f 85 98 114
f 85 114 99
f 64 87 68
f 85 99 94
f 78 85 94
f 63 87 64
f 50 70 51
f 63 83 86
f 86 96 100
f 45 64 65
f 45 65 48
f 46 48 67
f 46 67 66
f 48 65 68
f 48 68 67
f 49 66 69
f 51 71 72
f 51 72 73
f 51 73 74
f 51 74 75
f 51 75 54
f 51 70 71
f 63 86 87
f 55 76 77
f 56 77 84
f 56 84 58
f 57 63 61
f 57 60 78
f 57 78 79
f 57 79 80
f 57 80 81
f 57 81 82
f 57 82 83
f 57 83 63
f 58 84 85
f 58 85 59
f 59 85 78
f 59 78 60
f 55 77 56
f 86 100 87
f 119 133 134
f 87 100 101
f 113 123 122
f 113 122 116
f 113 116 114
f 115 117 131
f 115 131 124
f 116 122 127
f 116 127 133
f 116 133 128
f 116 128 129
f 116 129 130
f 116 130 117
f 117 130 129
f 117 129 136
f 117 136 131
f 111 124 126
f 118 119 120
f 119 134 135
f 119 135 120
f 121 135 127
f 121 127 122
f 124 131 136
f 124 136 128
f 124 128 137
f 124 137 126
f 127 135 134
f 127 134 133
f 128 133 138
f 128 138 137
f 128 136 129
f 45 63 64
f 119 132 133
f 111 125 124
f 110 125 111
f 109 125 110
f 91 103 121
f 91 121 104
f 92 105 93
f 93 105 106
f 93 106 107
f 93 107 97
f 94 96 95
f 94 99 96
f 132 138 133
f 96 108 124
f 96 124 125
f 96 125 109
f 96 109 110
f 96 110 111
f 96 111 112
f 96 112 100
f 97 107 113
f 106 113 107
f 106 123 113
f 104 122 123
f 104 121 122
f 103 135 121
f 103 120 135
f 87 101 89
f 102 119 118
f 99 116 117
f 99 114 116
f 99 124 108
f 99 115 124
f 98 113 114
f 97 113 98
f 99 117 115
f 45 62 63
f 96 99 108
f 44 61 63
f 1 6 2
f 2 6 7
f 2 7 5
f 3 8 9
f 4 10 6
f 5 7 11
f 6 10 12
f 6 12 13
f 6 13 7
f 7 13 14
f 7 14 15
f 7 15 11
f 8 16 17
f 8 17 18
f 1 4 6
f 8 18 19
f 11 15 21
f 11 21 20
f 12 22 13
f 13 22 23
f 13 23 42
f 13 42 24
f 13 24 25
f 13 25 14
f 14 25 15
f 15 26 27
f 15 27 21
f 15 25 26
f 16 28 29
f 16 29 30
f 8 19 9
f 1 10 4
f 1 12 10
f 1 22 12
f 44 63 62
f 1 2 5
f 1 5 11
f 1 11 20
f 1 20 27
f 1 27 47
f 1 47 46
f 1 46 66
f 1 66 49
f 1 49 31
f 1 31 28
f 1 28 16
f 1 16 8
f 1 8 3
f 1 3 9
f 1 19 37
f 1 37 53
f 1 39 22
f 1 55 39
f 1 76 55
f 1 92 76
f 1 105 92
f 1 106 105
f 16 30 17
f 1 123 106
f 1 91 104
f 1 74 91
f 1 75 74
f 1 54 75
f 1 52 54
f 1 53 52
f 1 104 123
f 17 30 29
f 1 9 19
f 17 28 31
f 23 39 40
f 23 40 41
f 23 41 42
f 24 43 25
f 24 42 43
f 25 43 44
f 25 44 62
f 25 62 45
f 25 45 26
f 26 46 47
f 26 47 27
f 26 45 48
f 26 48 46
f 35 50 51
f 22 39 23
f 35 51 36
f 36 53 37
f 36 51 54
f 36 54 52
f 39 55 56
f 39 56 40
f 40 56 58
f 41 57 42
f 41 58 59
f 41 59 60
f 41 60 57
f 42 57 61
f 42 61 44
f 42 44 43
f 17 29 28
f 36 52 53
f 20 21 27
f 40 58 41
f 19 32 38
f 17 31 49
f 17 49 69
f 19 38 33
f 17 69 88
f 17 88 68
f 17 68 89
f 17 101 100
f 17 100 112
f 17 112 111
f 17 111 126
f 17 126 137
f 17 137 138
f 17 138 132
f 17 132 119
f 17 119 102
f 17 89 101
f 18 32 19
f 19 36 37
f 19 33 34
f 19 34 35
f 17 32 18
f 17 38 32
f 17 102 90
f 17 33 38
f 17 35 34
f 17 50 35
f 17 70 50
f 17 71 70
f 17 72 71
f 17 90 72
f 17 34 33
f 19 35 36

