# https://github.com/mikedh/trimesh
v 0.53336300 0.44310800 -0.27496700
v 0.26871200 0.71545600 -0.03317710
v 0.26871200 0.65462600 -0.23617200
v 0.28630200 0.62978300 -0.27496700
v 0.53336300 0.51384900 -0.27496700
v 0.53336300 0.55538600 0.00567491
v 0.26871200 0.81694300 0.27123000
v 0.26871200 0.81456400 0.26516100
v 0.26871200 0.64308600 -0.27496700
v 0.51357100 0.53389100 -0.27496700
v 0.51758600 0.53789900 -0.26889800
v 0.51758600 0.57851200 -0.22834400
v 0.53336300 0.59428100 -0.19454000
v 0.53336300 0.63661100 0.20855600
v 0.27402300 0.82205200 0.28920900
v 0.26871200 0.82469500 0.28523900
v 0.53336300 0.64392300 0.22608200
v 0.26871200 0.68515100 -0.27496700
v 0.47297700 0.57450300 -0.27496700
v 0.47699200 0.57851200 -0.26889800
v 0.47699200 0.61912400 -0.22834400
v 0.51758600 0.61912400 -0.18773400
v 0.53336300 0.63489300 -0.15393000
v 0.53336300 0.67713500 0.28977600
v 0.53336300 0.67885300 0.29193200
v 0.53336300 0.68449100 0.29822700
v 0.29433300 0.82205200 0.29936200
v 0.26871200 0.83733700 0.29749000
v 0.53336300 0.66422900 0.26663500
v 0.28417800 0.68515100 -0.27496700
v 0.26871200 0.69647200 -0.26838700
v 0.39181500 0.63537700 -0.27496700
v 0.45668200 0.61912400 -0.24859300
v 0.45668200 0.63938600 -0.22834400
v 0.47699200 0.63938600 -0.20803900
v 0.51758600 0.63938600 -0.16742900
v 0.53336300 0.64167600 -0.14599000
v 0.53336300 0.71039100 0.30446600
v 0.52774100 0.71039100 0.30446600
v 0.30448800 0.83218300 0.30446600
v 0.26871200 0.85248900 0.30446600
v 0.29762300 0.68158400 -0.27496700
v 0.32477200 0.67656200 -0.27059900
v 0.26871200 0.75734600 -0.18722400
v 0.28417800 0.73748000 -0.20974100
v 0.37710100 0.64449500 -0.27496700
v 0.39583000 0.63938600 -0.26889800
v 0.45668200 0.67995400 -0.16742900
v 0.35523600 0.67995400 -0.24859300
v 0.47699200 0.67995400 -0.14712400
v 0.47699200 0.72056600 -0.06596020
v 0.53336300 0.66198200 -0.10537900
v 0.53336300 0.73069700 0.30446600
v 0.26871200 0.87279500 0.30446600
v 0.31826900 0.67440400 -0.27496700
v 0.26871200 0.78408300 -0.14581900
v 0.27402300 0.78144000 -0.14712400
v 0.29433300 0.76113400 -0.16742900
v 0.31461700 0.74082800 -0.18773400
v 0.41608800 0.74082800 -0.10651400
v 0.41608800 0.76113400 -0.06596020
v 0.41608800 0.78144000 -0.02534990
v 0.47699200 0.74082800 -0.02534990
v 0.53336300 0.68220000 -0.06482580
v 0.52774100 0.75100300 0.30446600
v 0.53336300 0.74985800 0.30333200
v 0.28417800 0.87279500 0.30446600
v 0.26871200 0.88631800 0.29766000
v 0.26871200 0.80438900 -0.10520900
v 0.32477200 0.78650600 -0.10401800
v 0.33492600 0.78144000 -0.10651400
v 0.37552000 0.76113400 -0.10651400
v 0.39583000 0.76113400 -0.08626530
v 0.39583000 0.78144000 -0.04565510
v 0.35523600 0.80174600 -0.04565510
v 0.41608800 0.80174600 0.03550870
v 0.43639800 0.78144000 0.01520360
v 0.51758600 0.72056600 -0.00504483
v 0.53336300 0.71774700 0.02586660
v 0.48375400 0.78822400 0.30106300
v 0.46683700 0.79157100 0.30446600
v 0.53336300 0.76205900 0.29522100
v 0.49390900 0.79835500 0.29091100
v 0.46007600 0.80513800 0.29766000
v 0.27741600 0.88631800 0.29766000
v 0.26871200 0.89067900 0.28898200
v 0.26871200 0.80681200 -0.09914030
v 0.32477200 0.80681200 -0.06340790
v 0.33492600 0.80174600 -0.06596020
v 0.35523600 0.78144000 -0.08626530
v 0.34508100 0.80681200 -0.04310270
v 0.40593300 0.80681200 0.03800430
v 0.41948200 0.80513800 0.05411230
v 0.43639800 0.80174600 0.07606220
v 0.47699200 0.78144000 0.09636730
v 0.49727600 0.78144000 0.13697800
v 0.50067000 0.78483200 0.15558100
v 0.52095400 0.72391400 0.01355870
v 0.51419300 0.77804800 0.16913700
v 0.53336300 0.75113500 0.14072100
v 0.47699200 0.80174600 0.29431400
v 0.53336300 0.76567100 0.28977600
v 0.46683700 0.81187700 0.28416100
v 0.31124900 0.87953500 0.29091100
v 0.53336300 0.76849000 0.28132500
v 0.49390900 0.79835500 0.27060600
v 0.48036000 0.80513800 0.27735500
v 0.29433300 0.88292600 0.29431400
v 0.28417800 0.89305700 0.28416100
v 0.26871200 0.89305700 0.28416100
v 0.26871200 0.85125600 0.01968430
v 0.28417800 0.84742400 0.01775590
v 0.32477200 0.82711800 -0.00249251
v 0.36536500 0.82711800 0.05830940
v 0.43976600 0.80513800 0.09472250
v 0.32477200 0.84742400 0.07861450
v 0.28417800 0.87279500 0.12177700
v 0.30448800 0.87279500 0.16233100
v 0.46007600 0.80513800 0.15558100
v 0.48036000 0.80513800 0.25705000
v 0.53336300 0.75831500 0.16800200
v 0.46683700 0.81187700 0.26385600
v 0.28417800 0.89305700 0.24355100
v 0.26871200 0.89305700 0.22806700
v 0.26871200 0.86768600 0.08349230
v 0.28417800 0.86768600 0.09891960
v 0.32477200 0.87279500 0.20294100
v 0.33832000 0.86601200 0.19619100
v 0.26871200 0.88741900 0.16556400
v 0.26871200 0.89067900 0.18025400
f 71 73 72
f 75 91 92
f 73 75 74
f 73 90 75
f 71 90 73
f 67 81 84
f 70 89 71
f 70 88 89
f 69 87 88
f 68 85 86
f 67 84 85
f 71 89 90
f 75 92 76
f 80 83 101
f 75 89 88
f 75 88 91
f 76 92 93
f 76 93 94
f 77 94 78
f 78 94 95
f 78 95 96
f 78 96 97
f 78 97 98
f 78 98 79
f 79 98 97
f 79 97 99
f 79 99 100
f 80 101 81
f 75 90 89
f 66 83 80
f 60 72 73
f 65 80 81
f 50 61 51
f 81 101 84
f 51 61 62
f 51 62 63
f 51 63 52
f 52 63 64
f 53 66 65
f 54 67 85
f 54 85 68
f 56 69 88
f 56 88 70
f 56 70 57
f 57 70 71
f 57 71 58
f 58 71 59
f 59 71 72
f 59 72 60
f 60 73 61
f 61 73 74
f 61 74 62
f 62 74 75
f 62 75 76
f 62 76 94
f 62 94 77
f 62 77 78
f 62 78 63
f 63 78 64
f 64 78 79
f 65 66 80
f 66 82 83
f 82 102 83
f 97 119 120
f 83 109 104
f 99 105 121
f 99 121 100
f 103 107 120
f 103 120 122
f 103 122 123
f 103 123 109
f 104 109 108
f 109 123 124
f 109 124 110
f 111 125 112
f 112 125 126
f 112 126 116
f 112 116 114
f 99 106 105
f 115 127 128
f 116 126 117
f 117 126 129
f 117 129 130
f 117 130 118
f 118 130 127
f 119 128 120
f 120 128 127
f 120 127 122
f 122 127 123
f 123 127 130
f 123 130 124
f 125 129 126
f 50 60 61
f 115 128 119
f 97 115 119
f 97 106 99
f 97 120 106
f 83 104 108
f 83 108 101
f 83 102 105
f 83 105 106
f 83 106 120
f 83 120 107
f 83 107 103
f 84 101 108
f 84 108 85
f 85 108 109
f 85 109 86
f 86 109 110
f 87 111 112
f 87 112 88
f 88 112 91
f 91 112 113
f 91 113 92
f 92 113 112
f 92 112 114
f 92 114 93
f 93 115 94
f 93 114 116
f 93 116 117
f 93 117 118
f 93 118 127
f 93 127 115
f 94 115 97
f 94 97 96
f 94 96 95
f 83 103 109
f 48 60 50
f 38 41 40
f 48 49 59
f 1 6 7
f 1 7 8
f 1 8 2
f 2 8 7
f 2 7 16
f 2 16 28
f 2 28 41
f 2 41 54
f 2 54 68
f 2 68 86
f 2 86 110
f 2 110 124
f 2 124 130
f 1 14 6
f 2 130 129
f 2 125 111
f 2 111 87
f 2 87 69
f 2 69 56
f 2 56 44
f 2 44 31
f 2 31 18
f 2 18 9
f 2 9 3
f 3 9 4
f 5 10 11
f 5 11 12
f 5 12 13
f 2 129 125
f 1 17 14
f 1 29 17
f 1 24 29
f 1 2 3
f 1 3 4
f 1 4 9
f 1 9 18
f 1 18 30
f 1 30 42
f 1 42 55
f 1 55 46
f 1 46 32
f 1 32 19
f 1 19 10
f 48 59 60
f 1 5 13
f 1 13 23
f 1 23 37
f 1 37 52
f 1 52 64
f 1 64 79
f 1 79 100
f 1 100 121
f 1 121 105
f 1 105 102
f 1 102 82
f 1 82 66
f 1 66 53
f 1 53 38
f 1 38 26
f 1 26 25
f 1 25 24
f 6 14 7
f 7 15 16
f 1 10 5
f 7 17 15
f 31 45 43
f 32 46 47
f 32 47 33
f 33 47 34
f 34 48 50
f 34 50 35
f 34 47 49
f 34 49 48
f 35 50 36
f 36 50 37
f 37 50 51
f 37 51 52
f 38 53 65
f 31 44 45
f 38 65 81
f 38 67 54
f 38 54 41
f 38 40 39
f 42 43 55
f 43 49 46
f 43 46 55
f 43 45 49
f 44 57 45
f 45 57 58
f 45 58 59
f 45 59 49
f 46 49 47
f 7 14 17
f 38 81 67
f 31 43 42
f 44 56 57
f 27 41 28
f 10 19 20
f 30 31 42
f 10 20 11
f 11 20 21
f 11 21 12
f 12 22 23
f 12 23 13
f 15 24 25
f 15 25 26
f 15 26 27
f 15 27 28
f 15 28 16
f 15 17 29
f 15 29 24
f 12 21 22
f 19 32 33
f 18 31 30
f 26 39 40
f 26 38 39
f 22 36 23
f 27 40 41
f 21 33 34
f 23 36 37
f 21 35 36
f 21 34 35
f 20 33 21
f 19 33 20
f 21 36 22
f 26 40 27

