# https://github.com/mikedh/trimesh
v 0.68824100 -0.00184518 -0.27496700
v 0.68518600 0.00309238 -0.27496700
v 0.73462100 -0.00184518 -0.27496700
v 0.79206200 -0.00184518 0.06108860
v 0.58368200 0.36535200 -0.27496700
v 0.73430500 0.01486350 -0.27496700
v 0.73750000 0.08122440 -0.27059900
v 0.77805300 0.00001134 -0.22998900
v 0.77805300 -0.00184518 -0.22998900
v 0.85708600 -0.00184518 0.26425300
v 0.57501000 0.40165300 -0.27496700
v 0.68722200 0.40165300 0.05938710
v 0.72882800 0.08122440 -0.27496700
v 0.72517700 0.12179100 -0.27496700
v 0.71401200 0.19751400 -0.27496700
v 0.73750000 0.20296500 -0.25029400
v 0.77805300 0.12179100 -0.20974100
v 0.79834700 0.08122440 -0.18943600
v 0.79206200 -0.00184518 -0.20270800
v 0.85771800 -0.00184518 0.26550100
v 0.85757800 0.00001134 0.26635200
v 0.75821500 0.40165300 0.26742900
v 0.74971900 0.40165300 0.24394800
v 0.62096900 0.40165300 -0.27496700
v 0.70193400 0.23669800 -0.27496700
v 0.71720700 0.20296500 -0.27059900
v 0.70028300 0.25368400 -0.26889800
v 0.67661900 0.30444200 -0.27059900
v 0.75775900 0.26383500 -0.18943600
v 0.75775900 0.22326800 -0.20974100
v 0.77805300 0.20296500 -0.18943600
v 0.79834700 0.16239800 -0.16913100
v 0.80529800 -0.00184518 -0.17673100
v 0.81189900 0.08122440 -0.16238100
v 0.85849100 -0.00184518 0.26686200
v 0.86600400 0.02031460 0.29091100
v 0.78145900 0.37550300 0.29936200
v 0.76730900 0.40165300 0.28211900
v 0.77805300 0.38565500 0.29766000
v 0.62679700 0.39608300 -0.27496700
v 0.62816700 0.40165300 -0.26867100
v 0.69628100 0.24969400 -0.27496700
v 0.67444200 0.29796400 -0.27496700
v 0.65313000 0.34504800 -0.27496700
v 0.67999000 0.33489700 -0.24859300
v 0.72057700 0.31459300 -0.20803900
v 0.76116500 0.29429000 -0.16742900
v 0.77805300 0.24357100 -0.16913100
v 0.78651400 0.22326800 -0.16487700
v 0.80680800 0.18270100 -0.14457200
v 0.81189900 0.16239800 -0.14207600
v 0.82559200 -0.00184518 -0.13617700
v 0.85248700 0.10152800 -0.06085550
v 0.85248700 0.02031460 -0.08116070
v 0.83173700 -0.00184518 -0.12386900
v 0.86818100 -0.00184518 0.28183600
v 0.87955700 -0.00184518 0.29766000
v 0.86263400 0.07107280 0.29936200
v 0.89307400 -0.00184518 0.30446600
v 0.79160500 0.38565500 0.30446600
v 0.77805300 0.40165300 0.29766000
v 0.63283600 0.38565500 -0.27496700
v 0.67518000 0.40165300 -0.21257700
v 0.65969600 0.37550300 -0.24859300
v 0.67805900 0.40165300 -0.20900400
v 0.71720700 0.38565500 -0.16913100
v 0.72352600 0.40165300 -0.14996000
v 0.72781000 0.40165300 -0.14349400
v 0.74087100 0.39576700 -0.12681900
v 0.78145900 0.27398700 -0.14712400
v 0.78651400 0.26383500 -0.14457200
v 0.80680800 0.22326800 -0.12432300
v 0.82710200 0.22326800 -0.08371300
v 0.83219300 0.20296500 -0.08116070
v 0.85248700 0.18270100 -0.04055040
v 0.89307400 0.10152800 0.04055660
v 0.86818100 -0.00184518 -0.04287590
v 0.85248700 -0.00184518 -0.08116070
v 0.89307400 0.02031460 0.02025150
v 0.91336800 -0.00184518 0.30446600
v 0.79160500 0.40165300 0.30446600
v 0.74596200 0.40165300 -0.10832900
v 0.80789700 0.40165300 0.03857150
v 0.84234000 0.31459300 0.03550870
v 0.84743100 0.30444200 0.03800430
v 0.84743100 0.20296500 -0.04310270
v 0.86772500 0.22326800 0.01775590
v 0.89307400 0.18270100 0.06086170
v 0.91291200 -0.00184518 0.07906830
v 0.89307400 -0.00184518 0.02025150
v 0.91336800 0.06092110 0.30446600
v 0.92692100 -0.00184518 0.29766000
v 0.81189900 0.40165300 0.30446600
v 0.81189900 0.40165300 0.05655110
v 0.82541700 0.37886100 0.07441740
v 0.84571000 0.31799000 0.05411230
v 0.85248700 0.30444200 0.06086170
v 0.88801800 0.20296500 0.05830940
v 0.86772500 0.24357100 0.03800430
v 0.89307400 0.20296500 0.08116680
v 0.91336800 0.18270100 0.22324600
v 0.91336800 0.14209500 0.18263600
v 0.91336800 0.00001134 0.08116680
v 0.91336800 -0.00184518 0.08116680
v 0.89307400 0.22326800 0.30446600
v 0.92692100 0.05416650 0.29766000
v 0.93369700 -0.00184518 0.28416100
v 0.83219300 0.38565500 0.30446600
v 0.82899800 0.40165300 0.30123300
v 0.81295300 0.40165300 0.06142890
v 0.82541700 0.39916400 0.11497100
v 0.83219300 0.36535200 0.08116680
v 0.83219300 0.38565500 0.12177700
v 0.87278100 0.28413800 0.14208200
v 0.89307400 0.24357100 0.18263600
v 0.91336800 0.22326800 0.28416100
v 0.91336800 0.20296500 0.24355100
v 0.93369700 0.06092110 0.28416100
v 0.93369700 0.04061790 0.26385600
v 0.93369700 -0.00184518 0.24167900
v 0.90662700 0.21647400 0.29766000
v 0.84571000 0.37886100 0.29766000
v 0.84234000 0.39576700 0.29431400
v 0.84118100 0.40165300 0.29312300
v 0.83064800 0.40165300 0.30015600
v 0.82418800 0.40165300 0.11746600
v 0.83219300 0.40165300 0.17832500
v 0.84571000 0.39916400 0.27735500
v 0.85248700 0.38565500 0.28416100
v 0.89985100 0.25032600 0.29091100
v 0.90322100 0.23342000 0.29431400
v 0.84448200 0.40165300 0.27985100
f 73 86 74
f 62 63 64
f 63 65 64
f 59 81 60
f 68 82 69
f 69 82 83
f 69 83 84
f 69 84 70
f 70 84 85
f 70 85 71
f 71 85 73
f 71 73 72
f 65 67 66
f 77 79 90
f 73 87 86
f 74 86 75
f 75 86 98
f 75 98 88
f 76 88 89
f 76 89 79
f 79 89 90
f 80 92 106
f 80 106 91
f 83 94 95
f 83 95 96
f 83 96 85
f 59 93 81
f 83 85 84
f 73 85 87
f 59 108 93
f 48 71 49
f 59 91 105
f 85 96 97
f 40 63 62
f 44 62 64
f 44 64 45
f 45 64 65
f 45 65 66
f 45 66 46
f 46 66 47
f 47 66 67
f 47 67 68
f 47 68 69
f 47 69 70
f 47 70 48
f 48 70 71
f 49 71 72
f 49 72 50
f 50 72 73
f 50 73 51
f 51 73 74
f 51 74 75
f 53 75 88
f 53 88 76
f 53 76 79
f 53 79 54
f 54 77 78
f 54 78 55
f 54 79 77
f 57 59 58
f 59 80 91
f 59 105 108
f 85 97 100
f 107 119 118
f 85 98 99
f 106 118 121
f 107 120 119
f 108 121 122
f 108 122 123
f 108 123 124
f 108 124 125
f 108 125 109
f 110 126 111
f 111 113 112
f 111 126 127
f 111 127 128
f 111 128 129
f 111 129 113
f 113 129 115
f 113 115 114
f 115 129 116
f 116 129 130
f 116 130 131
f 116 131 121
f 116 118 117
f 121 131 123
f 121 123 122
f 123 131 124
f 124 131 130
f 124 130 129
f 124 129 132
f 127 132 128
f 128 132 129
f 40 41 63
f 105 121 108
f 85 100 98
f 105 106 121
f 103 119 120
f 85 99 87
f 86 87 98
f 87 99 98
f 88 98 100
f 88 100 117
f 88 117 101
f 88 101 102
f 88 102 103
f 88 103 89
f 89 103 104
f 91 106 105
f 92 107 118
f 92 118 106
f 93 108 109
f 94 110 95
f 95 111 112
f 95 112 96
f 95 110 111
f 96 112 97
f 97 112 113
f 97 113 100
f 100 113 114
f 100 114 115
f 100 115 116
f 100 116 117
f 101 117 118
f 101 118 119
f 101 119 102
f 102 119 103
f 103 120 104
f 39 81 61
f 116 121 118
f 38 39 61
f 1 20 10
f 1 10 4
f 1 4 2
f 2 4 5
f 3 6 7
f 3 7 8
f 3 8 9
f 4 10 5
f 5 10 12
f 5 12 11
f 6 13 7
f 7 13 14
f 7 14 15
f 7 15 16
f 7 16 17
f 7 17 18
f 7 18 8
f 8 18 19
f 8 19 9
f 10 20 21
f 10 21 22
f 10 22 23
f 10 23 12
f 11 12 23
f 11 23 22
f 11 22 38
f 11 38 61
f 11 61 81
f 11 81 93
f 1 35 20
f 11 93 109
f 1 56 35
f 1 59 57
f 1 2 5
f 1 11 24
f 1 24 40
f 1 40 62
f 1 62 44
f 1 44 43
f 1 43 42
f 1 42 25
f 39 60 81
f 1 25 15
f 1 15 14
f 1 14 13
f 1 13 6
f 1 6 3
f 1 3 9
f 1 9 19
f 1 19 33
f 1 33 52
f 1 52 55
f 1 55 78
f 1 78 77
f 1 77 90
f 1 90 89
f 1 89 104
f 1 104 120
f 1 120 107
f 1 107 92
f 1 92 80
f 1 80 59
f 1 57 56
f 11 109 125
f 1 5 11
f 11 124 132
f 24 41 40
f 25 42 28
f 25 28 27
f 28 42 43
f 28 43 44
f 28 44 45
f 28 45 46
f 28 46 29
f 29 46 47
f 29 47 48
f 29 48 30
f 30 48 31
f 31 48 49
f 31 49 50
f 31 50 32
f 32 50 51
f 33 34 52
f 34 51 75
f 34 75 53
f 34 53 54
f 34 54 55
f 34 55 52
f 35 56 36
f 36 57 37
f 36 56 57
f 37 57 58
f 37 58 59
f 37 59 60
f 11 125 124
f 22 39 38
f 22 37 39
f 37 60 39
f 21 36 37
f 11 132 127
f 11 127 126
f 11 126 110
f 11 110 94
f 11 94 83
f 11 83 82
f 11 82 68
f 11 68 67
f 21 37 22
f 11 65 63
f 11 63 41
f 11 41 24
f 15 25 26
f 15 26 16
f 11 67 65
f 16 25 27
f 21 35 36
f 16 26 25
f 20 35 21
f 18 34 33
f 18 51 34
f 18 33 19
f 18 32 51
f 16 32 18
f 16 31 32
f 16 30 31
f 16 29 30
f 16 28 29
f 16 27 28
f 16 18 17

