# https://github.com/mikedh/trimesh
v 0.00560175 -0.74546900 -0.27496700
v 0.73532000 -0.00654300 -0.27496700
v -0.02027300 0.73532000 -0.27496700
v 0.47294800 0.57447200 -0.27496700
v 0.37706200 0.64439600 -0.27496700
v 0.31833000 0.67441600 -0.27496700
v 0.14213500 0.72875400 -0.27496700
v 0.03417460 0.73532000 -0.27496700
v 0.02030950 0.72391900 -0.29769800
v -0.02027300 0.72391900 -0.29769800
v -0.03039910 0.72557900 -0.29431700
v -0.14213900 0.71716700 -0.29093200
v -0.16241500 0.70364800 -0.29769800
v -0.17255300 0.70529300 -0.29431700
v -0.16241500 0.71802500 -0.28417000
v -0.28420200 0.67654000 -0.29093200
v -0.34509600 0.62919000 -0.30446600
v -0.16241500 0.69005800 -0.30446600
v -0.02027300 0.71035200 -0.30446600
v 0.02030950 0.71035200 -0.30446600
v 0.03051360 0.72052700 -0.29939000
v 0.17259100 0.70025000 -0.29939000
v 0.14213500 0.71713600 -0.29093200
v 0.19751700 0.71396000 -0.27496700
v 0.28421300 0.67658100 -0.29093200
v 0.35517300 0.63934500 -0.29939000
v 0.34504700 0.62917000 -0.30446600
v 0.16238700 0.69007500 -0.30446600
v 0.44654200 0.54798800 -0.30446600
v 0.45666900 0.55816300 -0.29939000
v 0.59874600 0.41607700 -0.29939000
v 0.49725100 0.53788600 -0.28924600
v 0.47692100 0.55816300 -0.28924600
v 0.37550400 0.63934500 -0.28924600
v 0.39178300 0.63530400 -0.27496700
v 0.29768800 0.68156000 -0.27496700
v 0.59874600 0.43635400 -0.28924600
v 0.63932900 0.35524400 -0.28924600
v 0.61245500 0.42625100 -0.27496700
v 0.60645800 0.43664300 -0.27496700
v 0.59469600 0.45266300 -0.27496700
v 0.69619100 0.24974400 -0.27496700
v 0.65303800 0.34506900 -0.27496700
v 0.69681400 0.22333200 -0.29093200
v 0.63932900 0.33496700 -0.29939000
v 0.58862000 0.40590200 -0.30446600
v 0.62920300 0.32479200 -0.30446600
v 0.66978500 0.22333200 -0.30446600
v 0.67991100 0.23343500 -0.29939000
v 0.70024100 0.17260300 -0.29939000
v 0.69011500 0.16242800 -0.30446600
v 0.72054000 -0.01018230 -0.29939000
v 0.72392900 -0.02029960 -0.29769800
v 0.71714400 0.12180100 -0.29093200
v 0.71395100 0.19757100 -0.27496700
v 0.72516700 0.12180100 -0.27496700
v 0.72875000 0.08124570 -0.27496700
v 0.73428100 0.01485690 -0.27496700
v 0.72392900 -0.04060700 -0.29769800
v 0.71037400 -0.04060700 -0.30446600
v 0.71037400 -0.02029960 -0.30446600
v 0.66978200 -0.24360800 -0.30446600
v 0.68333700 -0.24360800 -0.29769800
v 0.67230500 -0.26391500 -0.29939000
v 0.65204500 -0.30453000 -0.29939000
v 0.67655900 -0.28422300 -0.29093200
v 0.68499500 -0.25372500 -0.29431700
v 0.68362500 -0.29528600 -0.27496700
v 0.69227700 -0.26391500 -0.27496700
v 0.71801600 -0.14214400 -0.28417000
v 0.72486600 -0.13290000 -0.27496700
v 0.72875900 -0.11448500 -0.27496700
v 0.71715100 -0.12183600 -0.29093200
v 0.72558700 -0.05079710 -0.29431700
v 0.73532000 -0.04060700 -0.27496700
v 0.55262000 -0.51662900 -0.27496700
v 0.57288000 -0.49537600 -0.27496700
v 0.65406400 -0.35431600 -0.27496700
v 0.65622700 -0.32476500 -0.29093200
v 0.61145400 -0.38561400 -0.29939000
v 0.60893000 -0.36537900 -0.30446600
v 0.57086200 -0.44653600 -0.29939000
v 0.61397700 -0.39580400 -0.29431700
v 0.57338500 -0.45665300 -0.29431700
v 0.53445100 -0.50061600 -0.29769800
v 0.52767400 -0.48707800 -0.30446600
v 0.30452600 -0.64946400 -0.30446600
v 0.36537800 -0.60892200 -0.30446600
v 0.32731000 -0.64946400 -0.29939000
v 0.38816100 -0.60892200 -0.29939000
v 0.46934500 -0.54800000 -0.29939000
v 0.47186900 -0.55811700 -0.29431700
v 0.39068500 -0.61903900 -0.29431700
v 0.32990500 -0.65965400 -0.29431700
v 0.31130300 -0.66300200 -0.29769800
v 0.18275000 -0.69007900 -0.30446600
v 0.18945500 -0.70361700 -0.29769800
v 0.29774900 -0.67654100 -0.29093200
v 0.32940000 -0.67901500 -0.27496700
v 0.31130300 -0.68331000 -0.27740400
v 0.25037900 -0.70361700 -0.27740400
v 0.26847600 -0.69932300 -0.27496700
v 0.24872100 -0.70572800 -0.27496700
v 0.16753700 -0.72603500 -0.27496700
v 0.16919500 -0.72392400 -0.27740400
v 0.15564100 -0.71715500 -0.29093200
v 0.06767940 -0.72392400 -0.29769800
v 0.06090200 -0.71038600 -0.30446600
v -0.06095940 -0.71040500 -0.30446600
v -0.00678053 -0.73747100 -0.29093200
v 0.00682744 -0.74423200 -0.27740400
v 0.39025200 -0.63840100 -0.27496700
v 0.54295900 -0.49726800 -0.29431700
v -0.15322100 -0.72876400 -0.27496700
v -0.16917300 -0.71715300 -0.29093200
v -0.05413310 -0.72390200 -0.29769800
v -0.18268200 -0.69008700 -0.30446600
v -0.30447700 -0.64952300 -0.30446600
v -0.31130300 -0.67659000 -0.29093200
v -0.25037000 -0.69683500 -0.29093200
v -0.27307600 -0.69930200 -0.27496700
v -0.19238300 -0.72005600 -0.27496700
v -0.33400900 -0.67898400 -0.27496700
v -0.33494300 -0.65961000 -0.29431700
v -0.39580500 -0.61904600 -0.29431700
v -0.39479900 -0.63842100 -0.27496700
v -0.55719100 -0.51658500 -0.27496700
v -0.57652000 -0.49539600 -0.27496700
v -0.55474800 -0.49387200 -0.29093200
v -0.53448500 -0.51419000 -0.29093200
v -0.52773100 -0.48712400 -0.30446600
v -0.57846000 -0.45664700 -0.29431700
v -0.61905900 -0.39576500 -0.29431700
v -0.60892700 -0.36536000 -0.30446600
v -0.66978800 -0.24359700 -0.30446600
v -0.67992000 -0.27407400 -0.29431700
v -0.65628000 -0.33154500 -0.29093200
v -0.67654300 -0.29098200 -0.29093200
v -0.67898600 -0.31369500 -0.27496700
v -0.69249500 -0.26631000 -0.27496700
v -0.71714100 -0.12858200 -0.29093200
v -0.72008700 -0.15180300 -0.27496700
v -0.72878200 -0.11261800 -0.27496700
v -0.73532000 -0.04520570 -0.27496700
v -0.72389500 -0.03388570 -0.29769800
v -0.71038700 -0.04063420 -0.30446600
v -0.71038700 -0.02031610 -0.30446600
v -0.72389500 -0.01356760 -0.29769800
v -0.69011600 0.16241100 -0.30446600
v -0.70361200 0.16920600 -0.29769800
v -0.71717300 0.11506000 -0.29093200
v -0.72388800 0.12857900 -0.27740400
v -0.71335500 0.19273800 -0.27496700
v -0.72513900 0.12736300 -0.27496700
v -0.72882500 0.08308830 -0.27496700
v -0.73532000 -0.01110040 -0.27496700
v -0.70578400 0.22842900 -0.27496700
v -0.70361200 0.23007400 -0.27740400
v -0.69683100 0.21655600 -0.29093200
v -0.69926700 0.24824200 -0.27496700
v -0.64673400 0.35567400 -0.27496700
v -0.63936100 0.35016700 -0.29431700
v -0.68333600 0.23007400 -0.29769800
v -0.66977500 0.22327900 -0.30446600
v -0.62922300 0.32477500 -0.30446600
v -0.64271800 0.33157000 -0.29769800
v -0.60216600 0.41268000 -0.29769800
v -0.59874300 0.43127700 -0.29431700
v -0.58860500 0.42877400 -0.29939000
v -0.57846700 0.45159000 -0.29431700
v -0.59782100 0.45109000 -0.27496700
v -0.60611600 0.43678500 -0.27496700
v -0.34509600 0.66287800 -0.27496700
v -0.47603400 0.57289900 -0.27496700
v -0.47695600 0.55308600 -0.29431700
v -0.37551000 0.63426800 -0.29431700
v -0.36537200 0.63176500 -0.29939000
v -0.46681800 0.55051100 -0.29939000
v -0.44654200 0.54800800 -0.30446600
v -0.34509600 0.64270800 -0.29769800
v -0.35523400 0.64442500 -0.29431700
v -0.34509600 0.65708500 -0.28417000
v -0.29532800 0.68362100 -0.27496700
v -0.39486400 0.63376700 -0.27496700
v -0.14213900 0.72882500 -0.27496700
v -0.16241500 0.72374700 -0.27496700
v -0.58860500 0.40588500 -0.30446600
v -0.68329700 -0.23684900 -0.29769800
v -0.36541000 -0.60888700 -0.30446600
v -0.47692900 -0.55816400 -0.29431700
v -0.65872300 -0.35433100 -0.27496700
v 0.23682500 -0.69684800 -0.29093200
v 0.70187700 0.23675400 -0.27496700
v 0.05543950 0.73423800 -0.27496700
f 2 3 1
f 156 145 144
f 156 144 154
f 155 156 154
f 155 148 156
f 152 148 155
f 152 155 154
f 152 154 153
f 152 153 150
f 152 150 151
f 148 145 156
f 152 151 148
f 148 150 149
f 148 149 147
f 148 147 145
f 145 147 146
f 145 146 141
f 145 141 143
f 143 139 144
f 140 139 143
f 142 140 143
f 148 151 150
f 142 143 141
f 154 144 157
f 153 157 150
f 172 171 168
f 168 171 170
f 168 170 169
f 168 169 167
f 168 167 162
f 162 167 166
f 162 166 163
f 163 166 165
f 163 165 164
f 153 154 157
f 163 164 149
f 159 163 150
f 159 162 163
f 160 162 159
f 160 161 162
f 160 157 161
f 158 157 160
f 158 160 159
f 158 159 150
f 158 150 157
f 163 149 150
f 172 161 171
f 142 141 140
f 140 136 139
f 122 114 121
f 122 115 114
f 120 117 115
f 120 115 122
f 120 122 121
f 120 121 119
f 120 119 117
f 117 119 118
f 117 118 109
f 121 114 123
f 117 109 115
f 116 109 110
f 116 110 115
f 115 110 114
f 110 1 114
f 76 2 1
f 113 85 84
f 113 84 77
f 113 77 76
f 113 76 85
f 116 115 109
f 140 141 136
f 121 123 119
f 124 118 119
f 136 138 139
f 136 137 138
f 136 133 137
f 134 133 136
f 134 136 135
f 134 135 131
f 134 131 133
f 133 131 132
f 133 132 128
f 124 119 123
f 129 128 132
f 129 131 130
f 129 130 127
f 129 127 128
f 127 123 128
f 126 123 127
f 126 127 125
f 126 125 123
f 124 123 125
f 124 125 118
f 129 132 131
f 172 168 161
f 168 162 161
f 161 157 171
f 48 51 46
f 46 51 29
f 51 62 29
f 96 109 87
f 87 109 62
f 190 125 127
f 190 127 130
f 190 130 131
f 190 131 125
f 46 29 31
f 189 118 125
f 189 131 118
f 131 135 118
f 118 135 109
f 109 135 62
f 135 29 62
f 18 20 17
f 20 29 17
f 17 29 135
f 188 135 136
f 189 125 131
f 188 136 141
f 169 170 175
f 123 1 144
f 194 9 8
f 194 8 7
f 194 7 9
f 42 4 2
f 193 55 44
f 193 44 42
f 193 42 55
f 55 42 2
f 56 55 2
f 144 1 3
f 97 98 192
f 101 97 192
f 191 139 138
f 191 138 137
f 191 137 133
f 191 133 128
f 191 128 139
f 139 128 144
f 128 123 144
f 114 1 123
f 101 192 98
f 188 141 135
f 146 135 141
f 146 147 135
f 181 182 16
f 181 176 182
f 181 177 176
f 180 177 181
f 180 181 16
f 180 16 17
f 180 17 177
f 177 17 179
f 178 177 179
f 182 183 16
f 178 179 169
f 178 175 177
f 177 175 176
f 176 175 174
f 174 175 170
f 174 170 171
f 174 171 173
f 173 171 3
f 171 144 3
f 157 144 171
f 178 169 175
f 182 173 183
f 182 176 173
f 184 173 176
f 149 164 147
f 147 164 135
f 164 17 135
f 187 17 164
f 165 187 164
f 165 166 167
f 165 167 187
f 167 169 187
f 179 187 169
f 179 17 187
f 183 15 16
f 185 173 3
f 185 3 11
f 185 11 12
f 15 185 12
f 186 185 15
f 186 15 183
f 186 183 185
f 183 173 185
f 184 176 174
f 184 174 173
f 92 85 76
f 92 76 93
f 145 143 144
f 94 93 112
f 45 38 44
f 38 42 44
f 43 42 38
f 43 38 39
f 43 39 42
f 39 40 42
f 40 4 42
f 41 4 40
f 37 4 41
f 45 31 38
f 37 41 40
f 37 39 38
f 37 38 31
f 37 31 32
f 37 32 4
f 24 7 6
f 36 25 24
f 36 24 6
f 36 6 25
f 35 5 4
f 37 40 39
f 35 4 34
f 45 46 31
f 47 48 46
f 52 53 59
f 53 2 59
f 58 53 54
f 58 2 53
f 58 56 2
f 57 56 58
f 57 58 54
f 57 54 56
f 56 54 55
f 47 46 45
f 54 44 55
f 50 49 44
f 50 44 54
f 50 54 53
f 50 53 52
f 50 52 51
f 50 51 48
f 50 48 49
f 48 45 49
f 47 45 48
f 45 44 49
f 35 34 5
f 34 6 5
f 34 25 6
f 19 13 10
f 19 10 20
f 19 20 18
f 19 18 13
f 13 18 17
f 13 17 16
f 14 13 16
f 14 16 15
f 14 15 12
f 21 20 10
f 14 12 13
f 10 12 11
f 10 11 3
f 10 3 9
f 9 3 8
f 8 3 7
f 7 3 6
f 6 3 5
f 5 3 4
f 4 3 2
f 13 12 10
f 21 22 20
f 21 23 22
f 21 9 23
f 34 26 25
f 34 30 26
f 94 112 99
f 33 34 4
f 33 4 32
f 33 32 30
f 30 32 31
f 30 31 29
f 30 29 26
f 27 26 29
f 27 29 20
f 28 27 20
f 28 20 22
f 28 22 27
f 27 22 26
f 22 25 26
f 23 25 22
f 23 24 25
f 23 7 24
f 23 9 7
f 21 10 9
f 60 52 59
f 61 52 60
f 33 30 34
f 61 60 51
f 100 99 101
f 100 101 98
f 100 98 99
f 98 94 99
f 95 94 98
f 95 98 97
f 95 97 96
f 95 96 87
f 95 87 89
f 102 101 99
f 95 89 94
f 90 93 94
f 91 93 90
f 91 92 93
f 91 85 92
f 91 86 85
f 88 86 91
f 88 91 90
f 88 90 89
f 88 89 87
f 89 90 94
f 88 87 86
f 102 103 101
f 101 103 104
f 61 51 52
f 112 93 76
f 112 76 99
f 99 76 1
f 104 99 1
f 111 104 1
f 111 1 110
f 111 110 104
f 110 107 104
f 103 99 104
f 108 107 110
f 108 109 96
f 108 96 107
f 97 107 96
f 97 106 107
f 106 104 107
f 105 104 106
f 105 106 97
f 105 97 101
f 105 101 104
f 108 110 109
f 86 87 62
f 102 99 103
f 81 86 62
f 74 75 72
f 73 74 72
f 73 59 74
f 73 63 59
f 67 64 63
f 67 63 73
f 70 67 73
f 70 73 72
f 70 71 69
f 74 59 75
f 70 69 67
f 67 68 66
f 67 66 64
f 64 66 65
f 64 65 62
f 64 62 63
f 63 62 59
f 60 59 62
f 65 81 62
f 60 62 51
f 67 69 68
f 75 59 2
f 70 72 71
f 79 78 83
f 75 2 72
f 82 86 81
f 82 84 85
f 82 83 84
f 84 83 77
f 78 77 83
f 80 79 83
f 80 83 82
f 80 82 81
f 82 85 86
f 80 81 65
f 80 65 66
f 80 66 79
f 79 66 78
f 78 66 68
f 78 68 77
f 77 68 76
f 68 2 76
f 71 72 69
f 69 72 68
f 72 2 68

