# https://github.com/mikedh/trimesh
v 0.26871200 0.87278600 0.30446600
v 0.26871200 0.85250200 0.30446600
v 0.26871200 0.88632800 0.29766000
v 0.20296900 0.89309900 0.30446600
v 0.22324700 0.85250200 0.30446600
v 0.26871200 0.83733800 0.29749000
v 0.19618800 0.90661300 0.29766000
v 0.26871200 0.89309900 0.28416100
v 0.20296900 0.91338400 0.28416100
v 0.07445280 0.92692600 0.29766000
v 0.08120150 0.91338400 0.30446600
v -0.06116700 0.89309900 0.30446600
v -0.06116700 0.89278600 0.30435300
v 0.21310800 0.84234500 0.29936200
v 0.26871200 0.82470700 0.28523900
v 0.22324700 0.83896000 0.29766000
v 0.26871200 0.89309900 0.22806700
v 0.20296900 0.91338400 0.24355100
v 0.08120150 0.93369700 0.28416100
v -0.06116700 0.92692600 0.29766000
v -0.06116700 0.91338400 0.30446600
v -0.06116700 0.87944400 0.29771700
v -0.06116700 0.86607200 0.29102400
v -0.06116700 0.86593000 0.29079700
v 0.26871200 0.81696800 0.27123000
v 0.26871200 0.89065300 0.18025400
v 0.26386800 0.89309900 0.18263600
v 0.08120150 0.93369700 0.26385600
v 0.16238000 0.91338400 0.16233100
v -0.06116700 0.93369700 0.28416100
v -0.06116700 0.85927300 0.27746900
v -0.06116700 0.85250200 0.26385600
v -0.06116700 0.85238800 0.26357300
v 0.26871200 0.81455000 0.26516100
v 0.26871200 0.88741000 0.16556400
v 0.25708700 0.88632800 0.13527600
v 0.24355800 0.89309900 0.14208200
v 0.06092310 0.93369700 0.24355100
v 0.04061240 0.93369700 0.22324600
v 0.20296900 0.89309900 0.08116680
v 0.14206900 0.91338400 0.14208200
v -0.06116700 0.93369700 0.26385600
v -0.06116700 0.68459300 -0.27496700
v 0.26871200 0.71551700 -0.03317710
v 0.26871200 0.86772200 0.08349230
v 0.25708700 0.86601500 0.05411230
v 0.24355800 0.88800700 0.11922500
v 0.08120150 0.91338400 0.10147200
v 0.00002335 0.93369700 0.20294100
v 0.16238000 0.88800700 0.03800430
v 0.14206900 0.89309900 0.04055660
v 0.24355800 0.87278600 0.06086170
v 0.26871200 0.85127900 0.01968430
v 0.24355800 0.80681200 -0.12432300
v -0.06087640 0.93369700 0.24355100
v -0.06116700 0.93358300 0.24355100
v -0.06116700 0.72883200 -0.27496700
v 0.24720700 0.64399500 -0.27496700
v 0.26871200 0.65460700 -0.23617200
v 0.10151200 0.89309900 0.02025150
v 0.00002335 0.89309900 0.00000309
v -0.04056570 0.93369700 0.22324600
v -0.06116700 0.91338400 0.10147200
v 0.22324700 0.81190400 -0.12177100
v 0.26871200 0.80681200 -0.09914030
v 0.26386800 0.80681200 -0.10401800
v 0.26871200 0.80439400 -0.10520900
v 0.25369700 0.80174800 -0.12681900
v 0.22324700 0.79836200 -0.14882500
v 0.12175800 0.79836200 -0.18943600
v 0.14206900 0.80681200 -0.16487700
v 0.12175800 0.81190400 -0.16238100
v -0.06116700 0.93355500 0.24326700
v -0.06116700 0.73731000 -0.27071300
v -0.04056570 0.73290000 -0.27496700
v 0.26871200 0.64305600 -0.27496700
v 0.12175800 0.87278600 -0.02024530
v 0.10151200 0.83218900 -0.12177100
v 0.04061240 0.87278600 -0.04055040
v -0.06116700 0.89309900 0.02025150
v 0.06092310 0.77810600 -0.22998900
v -0.06087640 0.77810600 -0.22998900
v -0.06116700 0.81190400 -0.16238100
v -0.06087640 0.84573100 -0.09471630
v -0.06087640 0.85250200 -0.08116070
v -0.05073720 0.86772200 -0.05070300
v 0.26871200 0.78413800 -0.14581900
v 0.26386800 0.75779300 -0.18943600
v 0.24355800 0.77810600 -0.16913100
v 0.16238000 0.77810600 -0.20974100
v -0.06116700 0.73750900 -0.27059900
v -0.02028730 0.73534700 -0.27496700
v 0.26871200 0.68516200 -0.27496700
v -0.06116700 0.85236000 -0.08144430
v 0.14206900 0.73750900 -0.27059900
v 0.03412200 0.73534700 -0.27496700
v -0.06116700 0.75779300 -0.25029400
v -0.06116700 0.77810600 -0.22993300
v -0.06116700 0.78490600 -0.21637700
v 0.26871200 0.75739500 -0.18722400
v 0.22324700 0.75779300 -0.20974100
v 0.26386800 0.69691100 -0.27059900
v 0.25837900 0.69372500 -0.27496700
v 0.26871200 0.69651300 -0.26838700
v 0.19747900 0.71400900 -0.27496700
v 0.14206900 0.72883200 -0.27496700
v 0.05543370 0.73432200 -0.27496700
f 49 63 62
f 54 68 69
f 49 61 63
f 50 54 64
f 50 64 51
f 51 64 60
f 53 65 66
f 53 66 54
f 54 66 67
f 54 67 68
f 55 63 73
f 54 70 71
f 54 71 72
f 54 72 64
f 55 62 63
f 55 73 56
f 57 74 75
f 58 76 59
f 60 64 77
f 48 61 49
f 60 77 72
f 60 72 78
f 54 69 70
f 48 60 61
f 43 92 96
f 46 52 47
f 39 41 48
f 60 78 79
f 39 48 49
f 40 50 51
f 40 51 48
f 40 47 52
f 40 52 53
f 40 53 54
f 40 54 50
f 42 55 56
f 43 57 75
f 43 75 92
f 43 96 107
f 43 107 106
f 43 106 105
f 43 105 103
f 43 103 93
f 43 93 76
f 43 76 58
f 43 58 44
f 44 58 59
f 45 53 46
f 46 53 52
f 48 51 60
f 60 79 61
f 82 97 98
f 61 79 78
f 82 91 97
f 82 98 99
f 82 99 83
f 83 94 84
f 84 94 85
f 85 94 86
f 87 100 88
f 88 101 90
f 88 90 89
f 88 100 104
f 82 92 91
f 88 104 102
f 90 101 102
f 90 102 95
f 93 103 102
f 93 102 104
f 95 102 103
f 95 103 105
f 95 105 106
f 95 106 107
f 95 107 96
f 37 47 40
f 88 102 101
f 81 92 82
f 81 96 92
f 81 95 96
f 61 78 72
f 61 72 81
f 61 81 82
f 61 82 83
f 61 83 84
f 61 84 85
f 61 85 86
f 61 86 80
f 64 72 77
f 65 67 66
f 67 87 68
f 68 87 88
f 68 88 89
f 68 89 69
f 69 89 90
f 69 90 70
f 70 90 81
f 70 81 72
f 70 72 71
f 74 91 75
f 75 91 92
f 80 86 94
f 81 90 95
f 61 80 63
f 36 47 37
f 40 48 41
f 36 45 46
f 3 7 4
f 3 8 9
f 3 9 7
f 4 7 10
f 4 10 11
f 5 12 13
f 5 13 14
f 5 14 6
f 6 14 16
f 6 16 15
f 7 9 10
f 8 17 18
f 8 18 9
f 9 18 28
f 9 28 19
f 9 19 10
f 10 19 30
f 10 30 20
f 10 20 21
f 10 21 11
f 12 21 20
f 12 20 30
f 12 30 42
f 2 5 6
f 12 42 56
f 1 5 2
f 1 11 21
f 36 46 47
f 1 2 6
f 1 6 15
f 1 15 25
f 1 25 34
f 1 34 44
f 1 44 59
f 1 59 76
f 1 76 93
f 1 93 104
f 1 104 100
f 1 100 87
f 1 87 67
f 1 67 65
f 1 65 53
f 1 53 45
f 1 45 35
f 1 35 26
f 1 26 17
f 1 17 8
f 1 8 3
f 1 3 4
f 1 4 11
f 1 12 5
f 12 56 73
f 1 21 12
f 12 63 80
f 19 38 39
f 19 39 49
f 19 49 62
f 19 62 55
f 19 55 42
f 19 42 30
f 24 31 25
f 25 31 32
f 25 32 33
f 25 33 34
f 19 28 38
f 26 36 27
f 27 37 29
f 28 29 38
f 29 39 38
f 29 37 40
f 29 40 41
f 29 41 39
f 33 43 44
f 33 44 34
f 12 73 63
f 35 45 36
f 27 36 37
f 18 29 28
f 26 35 36
f 17 27 18
f 12 94 83
f 12 80 94
f 18 27 29
f 12 83 99
f 12 99 98
f 12 98 97
f 12 97 91
f 12 91 74
f 12 57 43
f 12 43 33
f 12 33 32
f 12 32 31
f 12 74 57
f 12 31 24
f 12 24 23
f 12 23 22
f 12 22 13
f 13 22 14
f 14 22 23
f 14 23 16
f 15 16 23
f 15 23 24
f 15 24 25
f 17 26 27

