# https://github.com/mikedh/trimesh
v 0.44723500 -0.00008800 0.07170680
v 0.44723500 -0.03454190 0.08892070
v 0.44723500 -0.77028700 0.07170680
v -0.47736400 -0.00008800 0.07170680
v -0.47736400 -0.02949070 0.08639810
v 0.44723500 -0.03589890 0.08957850
v -0.47736400 -0.03589890 0.08957850
v 0.44723500 -0.74691600 0.08338570
v -0.47736400 -0.74224100 0.08572630
v -0.47736400 -0.77028700 0.07170680
v 0.44723500 -0.73447600 0.08957850
v -0.47736400 -0.73447600 0.08957850
v 0.44723500 -0.73492900 0.08935810
f 3 8 9
f 8 13 9
f 6 12 11
f 6 7 12
f 4 7 5
f 4 12 7
f 4 9 12
f 4 10 9
f 3 9 10
f 2 7 6
f 1 8 3
f 1 5 2
f 1 4 5
f 1 10 4
f 1 3 10
f 1 13 8
f 1 11 13
f 1 6 11
f 1 2 6
f 9 13 12
f 2 5 7
f 11 12 13

