# https://github.com/mikedh/trimesh
v 0.46486300 0.77028700 0.07170680
v 0.55520400 -0.73444800 0.07170680
v 0.44723500 -0.77028700 0.07170680
v 0.51954500 -0.77006800 0.07170680
v 0.50163700 -0.73444800 0.08957850
v 0.44723500 -0.73444800 0.08957850
v 0.51954500 -0.71658400 0.08957850
v 0.51954500 -0.73675000 0.08509830
v 0.51955300 0.71660100 0.08957850
v 0.44723500 -0.03586760 0.08957850
v 0.44723500 -0.00013850 0.07170680
v 0.46486300 0.73452400 0.08957850
v 0.50164500 0.73452400 0.08957850
v 0.53724900 0.77012200 0.07170680
v 0.55516600 0.75220000 0.07170680
f 2 3 1
f 11 3 6
f 11 1 3
f 15 2 1
f 15 9 2
f 13 12 9
f 13 9 15
f 14 13 15
f 14 15 1
f 14 1 13
f 13 1 12
f 12 1 10
f 10 1 11
f 12 10 9
f 10 6 9
f 10 11 6
f 4 3 2
f 5 3 4
f 5 7 6
f 5 8 7
f 5 6 3
f 8 4 2
f 8 2 7
f 7 2 9
f 7 9 6
f 5 4 8

