# https://github.com/mikedh/trimesh
v -0.60913400 -0.73441700 -0.00000591
v -0.60614300 -0.73151300 -0.01493630
v -0.60016300 -0.74345200 -0.02687470
v -0.59717200 -0.75829600 -0.00598003
v -0.60913400 -0.73441700 0.01063760
v -0.60913400 -0.71650900 -0.01791850
v -0.59717200 -0.72247800 -0.04179530
v -0.58222000 -0.74345200 -0.06269980
v -0.57923000 -0.75829600 -0.05971770
v -0.57923000 -0.77620400 -0.04179530
v -0.59717200 -0.75829600 0.01063760
v -0.57858900 -0.79346800 0.01063760
v -0.60913400 0.73441700 0.01063760
v -0.60315300 -0.71053900 -0.02986670
v -0.60913400 0.71650900 -0.01791850
v -0.59119100 -0.71650900 -0.05374360
v -0.56128800 -0.72247800 -0.07763020
v -0.54640700 -0.74345200 -0.08061240
v -0.56427800 -0.77927000 -0.06269980
v -0.58521100 -0.71053900 -0.06568200
v -0.55836800 -0.79120900 -0.03882300
v -0.56427800 -0.79717800 -0.00896219
v -0.55388300 -0.80460000 0.01063760
v -0.58521100 0.78217400 0.01063760
v -0.60913400 0.73441700 -0.00000591
v -0.60315300 0.72247800 -0.02986670
v -0.60464800 0.73667600 -0.01791850
v -0.53743600 -0.71650900 -0.08957850
v -0.53444500 -0.73151300 -0.08658650
v -0.50162200 -0.75232600 -0.08957850
v -0.52846500 -0.76136100 -0.08061240
v -0.52547400 -0.79411300 -0.05971770
v -0.54042600 -0.79120900 -0.05672570
v -0.54640700 -0.79717800 -0.04478730
v -0.50760300 -0.77620400 -0.07763020
v -0.54939700 -0.71053900 -0.08360440
v -0.58521100 0.72247800 -0.06568200
v -0.50162200 -0.82412200 -0.00000591
v -0.52846500 -0.81508700 0.00895037
v -0.52682700 -0.81589400 0.01063760
v -0.58521100 0.78217400 -0.00000591
v -0.58165100 0.78927300 0.01063760
v -0.60016300 0.73893500 -0.02687470
v -0.58521100 0.75829600 -0.04776950
v -0.58670600 0.77249400 -0.01791850
v -0.53743600 0.71650900 -0.08957850
v 0.11824200 -0.75232600 -0.08957850
v 0.11824200 -0.75958600 -0.08598810
v 0.11824200 -0.77394600 -0.07882700
v 0.11824200 -0.79411300 -0.05971770
v -0.43590500 -0.81202200 -0.04179530
v -0.42992400 -0.82412200 -0.01791850
v -0.51949300 -0.80605200 -0.03584080
v 0.11824200 -0.77620400 -0.07763020
v -0.54939700 0.72247800 -0.08360440
v -0.58222000 0.73893500 -0.06269980
v -0.56726800 0.75829600 -0.06568200
v -0.50162200 -0.82412200 0.01063760
v -0.58222000 0.78378700 -0.00896219
v -0.57680900 0.79443600 0.01063760
v -0.58222000 0.76587900 -0.04478730
v -0.56427800 0.77475200 -0.06269980
v -0.57923000 0.77620400 -0.03584080
v -0.53743600 0.73667600 -0.08509540
v -0.50162200 0.75232600 -0.08957850
v 0.11824200 0.75232600 -0.08957850
v 0.11824200 -0.79540400 -0.05732410
v -0.38214900 -0.81202200 -0.04179530
v -0.37616800 -0.82412200 -0.01791850
v -0.54640700 0.73893500 -0.08061240
v -0.26872800 -0.82412200 0.01063760
v -0.57324900 0.79492000 -0.00000591
v -0.56484800 0.80137300 0.01063760
v -0.56427800 0.80169600 0.00895037
v -0.55537800 0.77249400 -0.06718290
v -0.56427800 0.78378700 -0.04478730
v -0.55537800 0.79492000 -0.03584080
v -0.53743600 0.79492000 -0.05374360
v -0.54640700 0.78378700 -0.06269980
v -0.51949300 0.75458500 -0.08509540
v -0.50162200 0.77620400 -0.07763020
v 0.11824200 0.77152600 -0.08002380
v 0.11824200 0.75958600 -0.08598810
v 0.11824200 -0.80008300 -0.04776950
v -0.37018800 -0.81799100 -0.02986670
v -0.26872800 -0.82412200 -0.00000591
v 0.11824200 -0.80008300 -0.04179530
v 0.11824200 -0.79653300 -0.03464400
v 0.11824200 -0.79056400 -0.02269580
v 0.11824200 -0.78459400 -0.01075740
v 0.11824200 -0.78217400 -0.00598003
v 0.11824200 -0.77507500 -0.00238967
v 0.11824200 -0.77023500 -0.00000591
v -0.25676600 -0.82137900 0.01063760
v -0.56264000 0.80250300 0.01063760
v -0.54640700 0.80169600 -0.02687470
v -0.52846500 0.81960500 0.00895037
v -0.51059300 0.81960500 -0.02687470
v -0.51949300 0.81282800 -0.03584080
v -0.51949300 0.79411300 -0.05971770
v -0.50162200 0.81202200 -0.04179530
v 0.11824200 0.77620400 -0.07763020
v 0.11824200 -0.72247800 0.01063760
v -0.52682700 0.82041100 0.01063760
v -0.50162200 0.82412200 -0.01791850
v 0.11824200 0.81573300 -0.03464400
v 0.11824200 0.79411300 -0.05971770
v 0.11824200 0.81202200 -0.04179530
v 0.11824200 0.82412200 0.01063760
v -0.50162200 0.82412200 0.01063760
v 0.11824200 0.82412200 -0.01791850
f 51 68 69
f 50 67 68
f 47 49 48
f 47 54 49
f 47 84 67
f 47 67 50
f 47 87 84
f 47 88 87
f 51 69 52
f 47 50 54
f 55 57 62
f 62 76 77
f 55 70 64
f 59 60 72
f 59 72 63
f 60 73 74
f 60 74 72
f 61 63 62
f 62 75 70
f 62 63 76
f 62 77 78
f 47 89 88
f 62 78 79
f 55 62 70
f 47 90 89
f 41 59 45
f 47 92 91
f 38 71 58
f 38 58 40
f 38 40 39
f 41 42 59
f 62 79 75
f 42 60 59
f 44 45 61
f 44 61 62
f 44 62 56
f 45 59 63
f 45 63 61
f 47 91 90
f 46 55 64
f 47 66 83
f 47 83 82
f 47 82 102
f 47 102 107
f 47 107 108
f 47 108 106
f 47 106 111
f 47 111 109
f 47 109 103
f 47 103 93
f 47 93 92
f 46 64 65
f 63 72 77
f 72 74 77
f 64 70 75
f 77 96 98
f 77 98 99
f 77 99 78
f 105 111 106
f 78 100 79
f 78 99 101
f 78 101 100
f 79 100 81
f 81 102 82
f 81 100 107
f 81 107 102
f 75 79 81
f 93 103 94
f 97 105 98
f 98 105 106
f 98 106 101
f 98 101 99
f 100 101 108
f 100 108 107
f 101 106 108
f 104 110 105
f 105 110 109
f 105 109 111
f 38 86 71
f 97 104 105
f 63 77 76
f 75 81 80
f 74 97 98
f 64 75 80
f 64 80 65
f 65 80 81
f 65 81 82
f 65 82 83
f 65 83 66
f 67 84 69
f 67 69 85
f 67 85 68
f 68 85 69
f 69 84 86
f 74 98 96
f 71 86 84
f 71 87 88
f 71 88 89
f 71 89 90
f 71 90 91
f 71 91 92
f 71 92 93
f 71 93 94
f 73 95 74
f 74 96 77
f 74 95 104
f 74 104 97
f 71 84 87
f 38 69 86
f 5 23 40
f 38 53 52
f 5 73 60
f 5 60 42
f 5 42 24
f 5 24 13
f 6 14 16
f 6 16 7
f 6 15 26
f 6 26 14
f 7 16 8
f 8 17 18
f 8 18 19
f 8 19 9
f 8 16 20
f 8 20 17
f 9 19 10
f 10 19 21
f 10 21 22
f 10 22 12
f 12 22 23
f 13 24 41
f 13 41 25
f 14 26 37
f 14 37 20
f 5 95 73
f 5 104 95
f 5 110 104
f 5 109 110
f 1 2 3
f 1 3 4
f 1 4 11
f 1 11 5
f 1 5 13
f 1 13 25
f 1 25 15
f 1 15 6
f 1 6 2
f 2 6 3
f 3 6 7
f 14 20 16
f 3 7 8
f 3 9 10
f 3 10 4
f 4 10 12
f 4 12 11
f 5 11 12
f 5 12 23
f 5 40 58
f 5 58 71
f 5 71 94
f 5 94 103
f 38 52 69
f 3 8 9
f 15 25 27
f 5 103 109
f 17 20 36
f 28 46 65
f 28 65 66
f 28 66 47
f 28 47 30
f 30 47 48
f 30 48 49
f 30 49 35
f 30 35 31
f 32 50 68
f 32 68 51
f 32 51 52
f 32 52 53
f 32 53 34
f 32 34 33
f 32 35 54
f 32 54 50
f 34 53 38
f 35 49 54
f 37 44 56
f 37 56 62
f 37 62 57
f 37 57 55
f 15 27 26
f 28 36 55
f 28 30 29
f 28 55 46
f 27 45 44
f 17 36 28
f 17 28 18
f 18 28 29
f 18 29 30
f 18 30 31
f 18 31 19
f 19 32 33
f 19 33 34
f 19 34 21
f 19 31 35
f 27 44 43
f 20 37 55
f 19 35 32
f 21 34 22
f 26 44 37
f 26 43 44
f 20 55 36
f 25 45 27
f 25 41 45
f 26 27 43
f 23 39 40
f 22 39 23
f 22 38 39
f 22 34 38
f 24 42 41

