# https://github.com/mikedh/trimesh
v 0.11824200 -0.80008300 -0.04776900
v 0.26875400 -0.82412200 -0.00000826
v 0.11824200 -0.80008300 -0.04179760
v 0.11824200 -0.79540400 -0.05732520
v 0.39412900 -0.82412200 -0.00000826
v 0.26875400 -0.82412200 0.01329390
v 0.25534400 -0.81960500 0.01329390
v 0.11824200 -0.79653300 -0.03463810
v 0.11824200 -0.79411300 -0.05971170
v 0.43102200 -0.79411300 -0.05971170
v 0.43102200 -0.79766200 -0.05269310
v 0.40910100 -0.82073400 0.01329390
v 0.39412900 -0.82412200 0.01329390
v 0.43102200 -0.80008300 -0.04776900
v 0.24419900 -0.81282800 0.01329390
v 0.11824200 -0.77023500 -0.00000826
v 0.11824200 -0.77507500 -0.00239478
v 0.11824200 -0.78217400 -0.00597960
v 0.11824200 -0.78459400 -0.01075270
v 0.11824200 -0.77620400 -0.07762570
v 0.43102200 -0.77620400 -0.07762570
v 0.41216200 -0.81912100 0.01329390
v 0.43102200 -0.79959900 -0.03793090
v 0.11824200 -0.72522100 0.01329390
v 0.11824200 -0.77394600 -0.07882400
v 0.43102200 -0.76926700 -0.08114010
v 0.42070500 -0.80605200 0.01329390
v 0.43102200 -0.79943700 -0.03618880
v 0.11824200 0.82412200 0.01329390
v 0.11824200 -0.75958600 -0.08599370
v 0.43102200 -0.75232600 -0.08957850
v 0.43102200 -0.78717500 -0.02739790
v 0.43102200 -0.51015600 0.01329390
v 0.43102200 0.82412200 0.01329390
v 0.11824200 0.82412200 -0.01792230
v 0.11824200 -0.75232600 -0.08957850
v 0.43102200 0.75232600 -0.08957850
v 0.43102200 0.82412200 -0.01792230
v 0.43102200 0.81250600 -0.04110280
v 0.11824200 0.81573300 -0.03463810
v 0.11824200 0.75232600 -0.08957850
v 0.43102200 0.75313300 -0.08922610
v 0.43102200 0.81202200 -0.04179760
v 0.11824200 0.81202200 -0.04179760
v 0.11824200 0.75958600 -0.08599370
v 0.43102200 0.76507200 -0.08325470
v 0.43102200 0.77620400 -0.07762570
v 0.11824200 0.77620400 -0.07762570
v 0.11824200 0.77152600 -0.08002230
f 14 23 22
f 10 33 32
f 10 32 28
f 10 28 23
f 10 14 11
f 12 14 22
f 15 24 16
f 10 34 33
f 10 23 14
f 10 38 34
f 10 31 37
f 10 43 39
f 10 47 43
f 10 46 47
f 10 42 46
f 10 37 42
f 10 26 31
f 10 21 26
f 20 25 21
f 9 21 10
f 10 39 38
f 21 25 26
f 42 45 49
f 22 28 27
f 9 20 21
f 47 49 48
f 46 49 47
f 43 48 44
f 43 47 48
f 42 49 46
f 41 45 42
f 39 44 40
f 39 43 44
f 37 41 42
f 35 39 40
f 35 38 39
f 31 41 37
f 31 36 41
f 30 36 31
f 29 38 35
f 29 34 38
f 27 32 33
f 27 28 32
f 26 30 31
f 25 30 26
f 22 23 28
f 7 19 8
f 4 9 10
f 7 17 18
f 1 25 20
f 1 30 25
f 1 36 30
f 1 41 36
f 1 45 41
f 1 49 45
f 1 48 49
f 1 44 48
f 1 40 44
f 1 20 9
f 1 29 35
f 1 16 24
f 1 17 16
f 1 18 17
f 1 19 18
f 1 8 19
f 1 3 8
f 1 6 3
f 1 2 6
f 7 18 19
f 1 24 29
f 1 9 4
f 1 35 40
f 2 5 13
f 7 16 17
f 1 4 2
f 7 15 16
f 6 15 7
f 6 24 15
f 6 29 24
f 6 34 29
f 6 27 33
f 6 22 27
f 6 12 22
f 6 13 12
f 6 33 34
f 5 14 12
f 5 11 14
f 5 12 13
f 4 11 5
f 4 10 11
f 3 7 8
f 3 6 7
f 2 4 5
f 2 13 6

