# https://github.com/mikedh/trimesh
v 0.43102200 0.82412200 0.01329960
v -0.50162200 0.82412200 0.01063760
v -0.51949300 0.82412200 0.05374350
v -0.51949300 0.82412200 0.01791860
v -0.56264000 0.80250300 0.01063760
v -0.52682700 0.82041100 0.01063760
v -0.60913400 0.73441700 0.01063760
v -0.58165100 0.78927300 0.01063760
v -0.57680900 0.79443600 0.01063760
v -0.56484800 0.80137300 0.01063760
v -0.57923000 0.79411300 0.01791860
v -0.60464800 0.76136100 0.04478880
v -0.60913400 0.73441700 0.05374350
v -0.60464800 0.74345200 0.06270420
v -0.59788400 0.77023500 0.05374350
v -0.58670600 0.77927000 0.06270420
v -0.57552800 0.78814300 0.06718160
v -0.59339900 0.75232600 0.06718160
v -0.60315300 0.73441700 0.06568710
v -0.60315300 -0.73441700 0.06568710
v -0.60913400 -0.73441700 0.05374350
v -0.60913400 -0.73441700 0.01063760
v -0.60614300 -0.74942200 0.03882290
v -0.60464800 -0.75232600 0.05598520
v -0.60016300 -0.74345200 0.06718160
v -0.60016300 -0.76136100 0.05822090
v -0.60016300 -0.76136100 0.02687930
v -0.59418200 -0.77330000 0.03285110
v -0.59567700 -0.77023500 0.05150180
v -0.58521100 -0.78217400 0.05971530
v -0.57923000 -0.79411300 0.04777170
v -0.57923000 -0.79411300 0.01194680
v -0.51949300 -0.82412200 0.03583400
v -0.55537800 -0.80605200 0.01791860
v -0.55388300 -0.80460000 0.01063760
v -0.52682700 -0.81589400 0.01063760
v -0.57858900 -0.79346800 0.01063760
v -0.59717200 -0.75829600 0.01063760
v 0.11824200 -0.72247800 0.01063760
v -0.26872800 -0.82412200 0.01063760
v -0.50162200 -0.82412200 0.01063760
v 0.11824200 -0.82412200 0.03583340
v 0.43102200 -0.82412200 0.03583340
v 0.39412900 -0.82412200 0.01329960
v 0.40910100 -0.82073400 0.01329960
v 0.43102200 -0.81847500 0.02253380
v 0.41216200 -0.81912100 0.01329960
v 0.42070500 -0.80605200 0.01329960
v 0.43102200 -0.80605200 0.01791950
v 0.43102200 -0.51015600 0.01329960
v 0.11824200 0.82412200 0.01063760
v 0.43102200 -0.82412200 0.05374150
v -0.51949300 -0.82412200 0.05374350
v -0.56726800 -0.80008300 0.05971530
v -0.58222000 -0.77927000 0.06718160
v -0.57324900 -0.77023500 0.07165890
v -0.55537800 -0.78814300 0.07165890
v 0.43102200 -0.80605200 0.07166100
v -0.51949300 -0.80605200 0.07165890
v -0.52846500 -0.81508700 0.06718160
v -0.56427800 -0.79717800 0.06718160
v -0.53145500 -0.81799100 0.05971530
v -0.51949300 -0.81799100 0.06568710
v 0.11824200 -0.81799100 0.06568710
v 0.43102200 -0.81799100 0.06568590
v 0.43102200 0.80605200 0.07166100
v -0.59119100 -0.73441700 0.07165890
v -0.59119100 0.73441700 0.07165890
v -0.57324900 0.77023500 0.07165890
v -0.55537800 0.78814300 0.07165890
v -0.56128800 0.80008300 0.06568710
v -0.52547400 0.81799100 0.06568710
v -0.51949300 0.80605200 0.07165890
v 0.11824200 0.81799100 0.06568710
v -0.56876400 0.79717800 0.06270420
v -0.57923000 0.79411300 0.05374350
v 0.43102200 0.82412200 0.05374150
v 0.43102200 0.81799100 0.06568590
f 57 61 60
f 62 53 60
f 57 55 61
f 61 55 54
f 61 54 60
f 62 60 54
f 62 54 53
f 65 60 64
f 63 64 60
f 63 53 64
f 64 53 52
f 65 64 52
f 65 58 60
f 65 52 58
f 57 60 59
f 63 60 53
f 57 59 58
f 43 46 52
f 57 56 55
f 50 1 49
f 49 1 52
f 46 49 52
f 46 47 49
f 58 52 66
f 43 52 42
f 42 52 53
f 33 42 53
f 33 53 31
f 31 53 54
f 31 54 30
f 55 30 54
f 26 30 55
f 26 55 25
f 55 56 25
f 57 58 56
f 67 58 66
f 70 69 66
f 67 25 56
f 5 76 3
f 11 76 5
f 15 76 11
f 15 16 76
f 17 76 16
f 15 11 12
f 74 77 3
f 78 77 74
f 78 66 77
f 78 74 66
f 77 66 1
f 77 1 3
f 66 52 1
f 19 20 25
f 59 60 58
f 75 3 76
f 75 76 17
f 75 71 72
f 75 72 3
f 68 25 67
f 68 19 25
f 68 18 19
f 17 18 68
f 17 68 69
f 70 17 69
f 70 71 17
f 67 56 58
f 70 72 71
f 70 66 73
f 51 39 2
f 68 66 69
f 68 67 66
f 72 73 66
f 72 66 74
f 72 74 3
f 70 73 72
f 51 2 1
f 75 17 71
f 39 1 50
f 14 18 17
f 14 19 18
f 14 20 19
f 14 21 20
f 14 13 21
f 13 7 21
f 21 7 22
f 23 21 22
f 24 21 23
f 24 20 21
f 24 25 20
f 24 26 25
f 24 23 26
f 26 23 27
f 26 27 28
f 14 17 16
f 14 16 15
f 14 15 12
f 14 12 13
f 51 1 39
f 2 3 1
f 4 3 2
f 6 5 4
f 6 2 5
f 6 4 2
f 5 2 7
f 29 26 28
f 8 5 7
f 10 5 9
f 10 11 5
f 10 9 11
f 9 8 11
f 8 12 11
f 8 7 12
f 13 12 7
f 9 5 8
f 29 30 26
f 4 5 3
f 29 28 31
f 36 41 33
f 36 33 34
f 41 40 33
f 40 42 33
f 40 43 42
f 44 43 40
f 45 43 44
f 45 46 43
f 45 47 46
f 45 39 47
f 45 40 39
f 45 44 40
f 48 47 39
f 48 50 49
f 29 31 30
f 36 37 41
f 41 37 40
f 48 49 47
f 48 39 50
f 40 37 39
f 32 33 31
f 32 34 33
f 35 34 32
f 35 36 34
f 35 37 36
f 35 32 37
f 32 38 37
f 32 31 28
f 32 28 27
f 27 22 38
f 23 22 27
f 22 7 38
f 2 38 7
f 39 38 2
f 32 27 38
f 37 38 39

