# https://github.com/mikedh/trimesh
v -0.51942100 -0.77028700 0.07170680
v -0.55518400 0.73452400 0.07170680
v -0.46520700 0.77028700 0.07170680
v -0.51952700 0.77016300 0.07170680
v -0.50164100 0.73452400 0.08957850
v -0.52179300 0.73452400 0.08509830
v -0.51955300 0.71660100 0.08957850
v -0.55526800 -0.75231300 0.07170680
v -0.51955100 -0.71658400 0.08957850
v -0.47736400 -0.73444800 0.08957850
v -0.46520700 0.73452400 0.08957850
v -0.46520700 0.69876100 0.07170680
v -0.47736400 -0.77028700 0.07170680
v -0.50164600 -0.73444800 0.08957850
v -0.53734800 -0.77017800 0.07170680
f 8 2 1
f 14 10 9
f 14 9 8
f 15 14 8
f 12 13 3
f 15 1 14
f 14 1 10
f 13 1 3
f 13 10 1
f 11 10 13
f 12 11 13
f 12 3 11
f 15 8 1
f 11 5 10
f 11 3 5
f 4 3 2
f 4 5 3
f 6 5 4
f 6 7 5
f 2 3 1
f 6 4 2
f 7 2 8
f 7 8 9
f 7 9 5
f 10 5 9
f 6 2 7

