# https://github.com/mikedh/trimesh
v 0.33878900 -0.05044050 -0.20567900
v 0.33878900 0.12501700 -0.25033100
v 0.38097000 0.12501700 -0.25001500
v 0.34530800 -0.05044050 -0.20241400
v 0.33878900 -0.05044050 0.10829100
v 0.33878900 0.13901900 -0.25033100
v 0.38097000 0.13901900 -0.25001500
v 0.38097000 -0.05044050 -0.16671300
v 0.36316600 -0.05044050 -0.18454600
v 0.36316600 -0.05044050 0.07736470
v 0.33878900 0.13901900 0.10829100
v 0.38097000 0.13901900 0.04176920
v 0.38097000 -0.05044050 0.04176920
v 0.36807500 0.13901900 0.06757070
v 0.36316600 0.13901900 0.07736470
v 0.36912000 -0.05044050 0.06546440
v 0.37700600 0.13901900 0.04970270
f 3 9 4
f 5 10 15
f 5 15 11
f 6 11 15
f 6 15 14
f 6 14 17
f 13 17 14
f 6 12 7
f 10 14 15
f 12 17 13
f 13 14 16
f 3 8 9
f 6 17 12
f 3 13 8
f 10 16 14
f 3 7 12
f 1 2 3
f 1 3 4
f 1 4 9
f 1 9 8
f 1 8 13
f 1 16 10
f 1 13 16
f 1 5 11
f 1 11 6
f 1 6 2
f 2 6 7
f 2 7 3
f 1 10 5
f 3 12 13

