# https://github.com/mikedh/trimesh
v -0.37507600 -0.11596800 -0.37507400
v -0.34141700 -0.11596800 -0.37507400
v -0.44061700 -0.11596800 -0.35717900
v -0.37507600 0.08564070 -0.37507400
v -0.34141700 0.08564070 -0.37507400
v -0.34141700 -0.11596800 0.22219700
v -0.44061700 0.08564070 -0.35717900
v -0.44061700 -0.11596800 0.19644400
v -0.34141700 0.08564070 0.23500700
v -0.34141700 -0.01784740 0.29437100
v -0.39292500 -0.11596800 0.21427300
v -0.44061700 0.08564070 0.19644400
v -0.34141700 -0.00000735 0.29952200
v -0.34141700 0.04808580 0.28024000
v -0.34141700 0.01169520 0.29952200
v -0.34141700 0.03022600 0.29813500
f 3 8 12
f 3 12 7
f 4 7 12
f 4 12 9
f 4 9 5
f 6 10 11
f 8 15 12
f 8 13 15
f 9 12 14
f 12 15 16
f 12 16 14
f 8 10 13
f 2 10 6
f 8 11 10
f 2 15 13
f 2 13 10
f 1 2 6
f 1 6 11
f 1 11 8
f 1 3 7
f 1 7 4
f 1 8 3
f 1 4 5
f 1 5 2
f 2 5 9
f 2 9 14
f 2 14 16
f 2 16 15

