# https://github.com/mikedh/trimesh
v 0.33878900 0.13901900 -0.39290200
v 0.33878900 0.17861700 -0.39290200
v 0.33935800 0.26789400 -0.42860900
v 0.35126100 0.26195600 -0.45243500
v 0.36912000 0.26195600 -0.48814200
v 0.38399800 0.24113200 -0.50902800
v 0.40196200 0.24698400 -0.52097200
v 0.33935800 0.13901900 -0.39290200
v 0.33878900 0.13901900 0.10824700
v 0.33878900 0.19053500 -0.38696100
v 0.33935800 0.32148100 -0.42860900
v 0.34530600 0.27385200 -0.44055300
v 0.37506900 0.26789400 -0.50008600
v 0.38102400 0.27385200 -0.51196700
v 0.40196200 0.26338700 -0.52247300
v 0.40196200 0.13901900 -0.37501700
v 0.40196200 0.13901900 0.03570700
v 0.34530600 0.27385200 0.11306200
v 0.33878900 0.26733800 0.11637600
v 0.33878900 0.35125400 -0.15483500
v 0.34530600 0.33339900 -0.42860900
v 0.34530600 0.32744000 -0.44055300
v 0.37506900 0.32148100 -0.50008600
v 0.38102400 0.32744000 -0.51196700
v 0.40196200 0.33051500 -0.52247300
v 0.40196200 0.30362600 0.03570700
v 0.34530600 0.30958400 0.11306200
v 0.33878900 0.30304900 0.11637600
v 0.33878900 0.35125400 -0.14889400
v 0.37506900 0.35721300 -0.44649400
v 0.36614600 0.35272800 -0.45543600
v 0.35126100 0.34529500 -0.42860900
v 0.34828700 0.33487200 -0.43755100
v 0.35275200 0.33711500 -0.44649400
v 0.36614600 0.34380000 -0.47325800
v 0.38399800 0.34380000 -0.50902800
v 0.40196200 0.33536400 -0.52134700
v 0.40196200 0.31552200 0.02976630
v 0.33878900 0.31609900 0.10655800
v 0.33878900 0.31088700 0.11437500
v 0.40196200 0.31840500 0.02682720
v 0.40196200 0.33032300 0.00900494
v 0.40196200 0.33038700 0.00887987
v 0.40196200 0.35125400 -0.14889400
v 0.40196200 0.35721300 -0.31242100
v 0.37506900 0.35721300 -0.33931000
v 0.33878900 0.33933600 0.03570700
v 0.39293400 0.35721300 -0.48220100
v 0.38399800 0.35272800 -0.49114300
v 0.40186300 0.35272800 -0.50902800
v 0.40196200 0.34608500 -0.51571900
v 0.33878900 0.33515000 0.05296640
v 0.36614600 0.33040900 0.04464940
v 0.34828700 0.33040900 0.06247160
v 0.40196200 0.33933600 -0.01788480
v 0.33935800 0.33933600 0.03570700
v 0.40196200 0.35721300 -0.48220100
v 0.33878900 0.33878100 0.03852100
v 0.40196200 0.35279200 -0.50890300
v 0.40196200 0.35270600 -0.50909000
f 22 24 23
f 27 43 39
f 27 42 43
f 27 41 42
f 29 45 46
f 27 40 28
f 27 39 40
f 26 38 27
f 24 37 25
f 24 36 37
f 29 44 45
f 27 38 41
f 20 32 21
f 22 35 36
f 22 34 35
f 22 33 34
f 22 32 33
f 21 32 22
f 20 31 32
f 20 46 30
f 20 29 46
f 18 28 19
f 18 27 28
f 29 47 56
f 17 27 18
f 22 36 24
f 29 56 44
f 39 53 54
f 30 45 57
f 17 26 27
f 55 56 58
f 53 55 54
f 52 55 58
f 52 54 55
f 50 60 51
f 50 59 60
f 49 59 50
f 48 59 49
f 48 57 59
f 47 58 56
f 44 56 55
f 30 46 45
f 43 55 53
f 39 43 53
f 36 51 37
f 36 50 51
f 36 49 50
f 32 34 33
f 32 35 34
f 31 35 32
f 31 36 35
f 31 49 36
f 30 49 31
f 30 48 49
f 30 57 48
f 39 54 52
f 14 25 15
f 20 30 31
f 13 24 14
f 4 12 13
f 3 12 4
f 3 22 12
f 3 11 22
f 2 10 11
f 1 10 2
f 1 20 10
f 1 29 20
f 1 47 29
f 1 52 58
f 1 39 52
f 1 40 39
f 4 13 5
f 1 28 40
f 1 9 19
f 1 17 9
f 1 16 17
f 1 8 16
f 1 7 8
f 1 6 7
f 1 5 6
f 1 4 5
f 1 3 4
f 1 11 3
f 1 2 11
f 14 24 25
f 1 19 28
f 5 13 6
f 1 58 47
f 6 14 7
f 13 23 24
f 12 23 13
f 6 13 14
f 11 20 21
f 11 21 22
f 10 20 11
f 9 18 19
f 9 17 18
f 7 16 8
f 7 17 16
f 7 26 17
f 7 38 26
f 7 41 38
f 12 22 23
f 7 43 42
f 7 42 41
f 7 25 37
f 7 37 51
f 7 51 60
f 7 60 59
f 7 15 25
f 7 57 45
f 7 55 43
f 7 59 57
f 7 14 15
f 7 45 44
f 7 44 55

