# https://github.com/mikedh/trimesh
v 0.69656800 -0.35721300 -0.32145800
v 0.75015100 -0.35721300 -0.32145800
v 0.67885200 -0.35721300 -0.28573800
v 0.67885200 -0.35155900 -0.30390500
v 0.68764000 -0.34826800 -0.33038900
v 0.69359200 -0.34231600 -0.34231800
v 0.70252100 -0.35124400 -0.33338800
v 0.70847300 -0.34529200 -0.34528400
v 0.74419900 -0.34529200 -0.34528400
v 0.75608900 -0.35124400 -0.33338800
v 0.77395900 -0.34529200 -0.32145800
v 0.80967200 -0.32743600 -0.30359800
v 0.75015100 -0.35721300 -0.21429600
v 0.67885200 -0.35721300 -0.16074900
v 0.67885200 -0.33949700 -0.32162900
v 0.69061600 -0.32743600 -0.34528400
v 0.71443900 -0.32148400 -0.35717900
v 0.72039100 -0.33338800 -0.35124800
v 0.77395900 -0.33338800 -0.35124800
v 0.76577200 -0.34380400 -0.33931900
v 0.76353600 -0.34826800 -0.33038900
v 0.78139200 -0.33041200 -0.34824900
v 0.81711900 -0.31255600 -0.31252800
v 0.82159000 -0.30362800 -0.30359800
v 0.80967200 -0.32743600 -0.25001700
v 0.77395900 -0.34529200 -0.21429600
v 0.75906500 -0.35273200 -0.20536600
v 0.75906500 -0.33487600 -0.08037760
v 0.75015100 -0.33934000 -0.08930770
v 0.71443900 -0.35721300 -0.16074900
v 0.67885200 -0.33934000 -0.07144740
v 0.67885200 -0.33920000 -0.32176500
v 0.68466400 -0.33338800 -0.33338800
v 0.67885200 -0.18359200 -0.36481400
v 0.67885200 -0.17862100 -0.36604100
v 0.71443900 -0.19647600 -0.37504000
v 0.76800700 -0.32148400 -0.35717900
v 0.77991100 -0.32148400 -0.35124800
v 0.79926300 -0.20540400 -0.36610900
v 0.80967200 -0.30362800 -0.32742300
v 0.79255600 -0.32148400 -0.33931900
v 0.82159000 -0.17837500 -0.30359800
v 0.82159000 -0.30362800 -0.23215700
v 0.80372000 -0.19647600 -0.35717900
v 0.81562400 -0.31553200 -0.23215700
v 0.81264800 -0.31702000 -0.22322600
v 0.77395900 -0.32743600 -0.08930770
v 0.76800700 -0.32370700 -0.07591250
v 0.74122300 -0.32594800 -0.06251720
v 0.72336700 -0.33487600 -0.06251720
v 0.71443900 -0.33934000 -0.07144740
v 0.67885200 -0.32743600 -0.04765630
v 0.67885200 -0.17837500 -0.36604100
v 0.71443900 -0.17837500 -0.37504000
v 0.78586300 -0.19647600 -0.37504000
v 0.79776800 -0.19647600 -0.36910900
v 0.79776800 -0.18457200 -0.36314400
v 0.80975600 -0.17837500 -0.32728700
v 0.82159000 -0.17837500 -0.26767300
v 0.82159000 -0.21433200 -0.23215700
v 0.80372000 -0.25006100 -0.14288900
v 0.78586300 -0.30362800 -0.08930770
v 0.79926300 -0.31255600 -0.15181900
v 0.77693500 -0.31702000 -0.08037760
v 0.77991100 -0.30958000 -0.07741220
v 0.74419900 -0.30958000 -0.05955180
v 0.70847300 -0.30958000 -0.04169150
v 0.67885200 -0.30347100 -0.02689870
v 0.69656800 -0.32743600 -0.04765630
v 0.67885200 -0.31479700 -0.03579480
v 0.67885200 -0.17837500 -0.03582890
v 0.76800700 -0.17837500 -0.37504000
v 0.79479200 -0.18754800 -0.37057400
v 0.78578000 -0.17837500 -0.36835900
v 0.79468000 -0.17837500 -0.35697500
v 0.81766400 -0.17837500 -0.24783600
v 0.78586300 -0.17837500 -0.08930770
v 0.77991100 -0.17837500 -0.07741220
v 0.76800700 -0.30362800 -0.07144740
v 0.73229500 -0.30362800 -0.05358700
v 0.69656800 -0.30362800 -0.03572660
v 0.67885200 -0.21419200 -0.02689870
v 0.67885200 -0.19294000 -0.03218180
v 0.68168800 -0.19350000 -0.03276130
v 0.68466400 -0.20838000 -0.02979590
v 0.73229500 -0.17837500 -0.05358700
v 0.76800700 -0.17837500 -0.07144740
v 0.69656800 -0.21433200 -0.03572660
f 42 77 76
f 42 54 53
f 42 53 71
f 42 71 86
f 42 86 87
f 42 87 78
f 42 78 77
f 42 76 59
f 46 63 47
f 43 61 62
f 43 62 63
f 43 63 45
f 44 56 57
f 45 63 46
f 42 72 54
f 47 63 64
f 47 64 48
f 43 60 61
f 42 74 72
f 37 55 56
f 42 58 75
f 48 64 65
f 28 48 49
f 28 49 50
f 28 50 29
f 29 50 51
f 29 51 30
f 31 51 50
f 31 50 52
f 42 75 74
f 32 34 33
f 35 54 36
f 36 54 72
f 36 72 55
f 37 56 38
f 38 56 39
f 39 56 44
f 42 44 57
f 42 57 58
f 35 53 54
f 48 65 49
f 71 85 86
f 49 66 67
f 66 80 81
f 66 81 67
f 67 81 68
f 68 81 88
f 68 88 82
f 68 70 69
f 71 83 84
f 71 84 85
f 65 80 66
f 28 47 48
f 79 87 86
f 79 86 80
f 80 86 88
f 80 88 81
f 82 88 85
f 82 85 83
f 83 85 84
f 85 88 86
f 72 74 73
f 49 65 66
f 65 79 80
f 65 78 87
f 49 67 68
f 49 68 69
f 49 69 50
f 50 69 52
f 52 69 70
f 55 72 73
f 55 73 56
f 57 73 74
f 65 87 79
f 57 74 75
f 59 76 60
f 60 76 77
f 60 77 61
f 61 77 62
f 62 77 78
f 62 78 65
f 62 65 63
f 63 65 64
f 57 75 58
f 26 28 27
f 56 73 57
f 25 47 26
f 3 82 83
f 3 83 71
f 3 71 53
f 3 35 34
f 3 34 32
f 3 32 15
f 3 15 4
f 4 15 5
f 3 68 82
f 5 15 6
f 6 17 8
f 6 8 7
f 6 15 16
f 8 17 18
f 8 18 19
f 8 19 9
f 9 19 10
f 10 19 20
f 6 16 17
f 10 20 21
f 3 70 68
f 3 31 52
f 26 47 28
f 1 2 13
f 1 13 30
f 1 30 14
f 1 14 3
f 1 3 4
f 1 4 5
f 1 5 6
f 3 52 70
f 1 6 7
f 1 8 9
f 1 9 2
f 2 9 10
f 2 10 11
f 2 11 12
f 2 12 25
f 2 25 13
f 3 14 31
f 1 7 8
f 10 21 11
f 3 53 35
f 11 20 22
f 17 19 18
f 19 38 22
f 19 22 20
f 19 37 38
f 22 38 39
f 22 39 40
f 22 40 41
f 22 41 23
f 23 41 40
f 23 40 39
f 23 39 24
f 24 42 59
f 24 59 60
f 24 60 43
f 24 39 44
f 11 21 20
f 25 43 45
f 25 45 46
f 25 46 47
f 17 37 19
f 17 55 37
f 24 44 42
f 17 35 36
f 17 36 55
f 12 23 24
f 12 43 25
f 12 22 23
f 13 26 27
f 13 27 28
f 13 28 29
f 13 29 30
f 12 24 43
f 14 30 51
f 14 51 31
f 15 32 33
f 15 33 16
f 16 33 34
f 11 22 12
f 16 34 35
f 13 25 26
f 16 35 17

