# https://github.com/mikedh/trimesh
v -0.34140700 -0.35178100 -0.37130600
v -0.11902500 -0.35122900 -0.36908100
v -0.11602900 -0.35274800 -0.36611500
v 0.26787900 -0.35122900 -0.14877900
v -0.34140700 -0.33935100 0.05354060
v -0.34140700 -0.33935100 -0.37606400
v -0.11602900 -0.33037300 -0.38842300
v -0.12794700 -0.34232000 -0.37804200
v 0.25596100 -0.31552600 -0.38694000
v 0.26787900 -0.33935100 -0.30357700
v 0.33878900 -0.35122900 -0.15477300
v 0.33878900 -0.35122900 -0.14877900
v 0.25003600 -0.32146500 -0.37501400
v 0.32147700 -0.33935100 0.05354060
v -0.34140700 -0.32146500 0.17855400
v -0.34140700 0.33935100 -0.37606400
v -0.00004413 -0.30357900 -0.39293400
v 0.25003600 -0.30357900 -0.39293400
v -0.11602900 0.33037300 -0.38842300
v 0.33878900 -0.17858400 -0.39293400
v 0.26341800 -0.31255600 -0.38397400
v 0.28798700 -0.33486200 -0.30357700
v 0.28572300 -0.33935100 -0.28571900
v 0.29910600 -0.33037300 -0.29467900
v 0.31701700 -0.33037300 -0.25896100
v 0.33878900 -0.19046200 -0.38694000
v 0.33878900 -0.33935100 0.03568160
v 0.30356700 -0.32146500 0.16069500
v 0.28572300 -0.32146500 0.17855400
v -0.34140700 -0.31621600 0.18912100
v -0.34140700 0.35136700 -0.37000800
v -0.00004413 0.30357900 -0.39293400
v -0.12501700 0.35122900 -0.36908100
v 0.25003600 0.31552600 -0.38694000
v 0.25895800 0.31255600 -0.38842300
v 0.25003600 0.30357900 -0.39293400
v 0.33878900 0.17858400 -0.39293400
v 0.33878900 -0.32857800 0.07084340
v 0.31255600 -0.31697600 0.16965500
v 0.29464500 -0.31697600 0.18751400
v 0.28572300 -0.31552600 0.19048000
v -0.34140700 -0.31552600 0.19048000
v -0.34140700 0.35122900 -0.36314900
v 0.25895800 0.35274800 -0.15180700
v 0.33878900 0.35122900 -0.15477300
v 0.26787900 0.33935100 -0.30357700
v 0.25003600 0.32146500 -0.37501400
v 0.26195400 0.31552600 -0.38100800
v 0.33878900 0.19046200 -0.38694000
v 0.33878900 0.19011600 -0.38712500
v 0.33878900 -0.31490400 0.10767400
v 0.31548500 -0.30951800 0.17262100
v 0.29764100 -0.30951800 0.19048000
v 0.28572300 -0.30357900 0.19641300
v 0.25895800 -0.31255600 0.19196300
v -0.34140700 -0.30496000 0.19573300
v -0.34140700 0.33935100 0.05354060
v 0.32147700 0.33935100 0.05354060
v 0.33878900 0.35122900 -0.14877900
v 0.31548500 0.33334300 -0.25599500
v 0.29764100 0.33334300 -0.29171300
v 0.28572300 0.33486200 -0.30580200
v 0.28572300 0.33935100 -0.28571900
v 0.33878900 -0.31428300 0.10823000
v 0.31255600 -0.29018100 0.18751400
v 0.33878900 -0.30413100 0.11632500
v 0.32147700 -0.30357900 0.16069500
v 0.31548500 -0.27381500 0.19048000
v -0.34140700 -0.30357900 0.19641300
v 0.30356700 -0.26787600 0.19641300
v -0.00077653 -0.08652960 0.23837200
v -0.00337320 -0.08963720 0.23837200
v -0.01708900 -0.10365600 0.23837200
v -0.03493280 -0.12154200 0.23837200
v -0.07062040 -0.15724500 0.23837200
v -0.10637500 -0.17513100 0.23837200
v -0.12475100 -0.18431600 0.23837200
v -0.12501700 -0.18438500 0.23837200
v -0.34140700 0.32146500 0.17855400
v 0.33878900 0.33935100 0.03568160
v 0.19643800 0.32146500 0.17855400
v 0.30356700 0.32146500 0.16069500
v 0.32147700 -0.26787600 0.17855400
v 0.33878900 0.30302600 0.11632500
v 0.31548500 0.29764000 0.17262100
v -0.21430300 -0.18438500 0.23837200
v -0.23254600 -0.17899800 0.23837200
v -0.34140700 -0.23217300 0.21427200
v 0.00581503 -0.06553600 0.23837200
v -0.00004413 -0.08501030 0.23837200
v 0.30356700 0.30357900 0.17855400
v 0.14284000 0.26787600 0.23213100
v -0.34140700 0.31552600 0.19048000
v 0.33878900 0.33872900 0.03852420
v 0.19051200 0.31552600 0.19048000
v 0.29764100 0.31552600 0.17262100
v 0.31255600 0.31255600 0.16965500
v 0.33878900 0.33513800 0.05298440
v 0.32147700 0.30357900 0.16069500
v 0.33878900 0.31083000 0.11440900
v -0.26830100 -0.16111200 0.23837200
v -0.30205700 -0.14129200 0.23837200
v -0.31184500 -0.13252200 0.23837200
v -0.33974200 -0.08970620 0.23837200
v -0.34140700 -0.08390540 0.23837200
v 0.02365880 0.00580086 0.23837200
v 0.13691400 0.27975400 0.22619800
v 0.10715200 0.26787600 0.23213100
v -0.11915800 0.18438500 0.23837200
v -0.08340410 0.16656800 0.23837200
v -0.06522730 0.15724500 0.23837200
v -0.06109930 0.15317000 0.23837200
v -0.01162930 0.10372500 0.23837200
v -0.00337320 0.09543800 0.23837200
v 0.00581503 0.07727580 0.23837200
v -0.34140700 0.30772200 0.19437300
v 0.10116000 0.27975400 0.22619800
v 0.33878900 0.31607800 0.10656100
v -0.34140700 0.07900220 0.23837200
v -0.20844400 0.18438500 0.23837200
v -0.34140700 0.30357900 0.19641300
v -0.33661300 0.08853220 0.23837200
v -0.34140700 0.23217300 0.21427200
v -0.22788600 0.17858400 0.23837200
v -0.32715900 0.10710900 0.23837200
v -0.31757100 0.12499500 0.23837200
v -0.31217800 0.13114100 0.23837200
v -0.30671800 0.13666600 0.23837200
v -0.30152500 0.14080900 0.23837200
v -0.26517100 0.15993800 0.23837200
v -0.22941700 0.17782400 0.23837200
f 68 91 70
f 71 115 114
f 71 106 115
f 71 114 113
f 71 89 106
f 69 87 88
f 70 91 92
f 70 92 89
f 70 90 71
f 70 89 90
f 71 113 112
f 69 86 87
f 71 90 89
f 71 112 111
f 71 128 127
f 71 110 109
f 71 109 120
f 71 120 124
f 71 124 131
f 71 131 130
f 71 130 129
f 71 129 128
f 71 127 126
f 71 126 125
f 71 119 105
f 71 122 119
f 68 85 91
f 71 125 122
f 71 111 110
f 68 99 85
f 52 83 68
f 66 84 83
f 49 61 60
f 51 64 52
f 71 105 104
f 52 65 53
f 52 64 66
f 52 66 67
f 52 67 83
f 52 68 65
f 53 65 68
f 53 68 70
f 53 70 54
f 54 69 56
f 54 56 55
f 54 70 71
f 54 71 72
f 54 72 73
f 54 73 74
f 54 74 75
f 54 75 76
f 54 76 77
f 54 77 78
f 54 78 86
f 54 86 69
f 57 79 81
f 57 81 58
f 58 80 59
f 58 81 82
f 58 82 80
f 66 83 67
f 68 83 99
f 71 104 103
f 119 122 123
f 71 102 101
f 92 120 109
f 92 109 110
f 92 110 111
f 92 111 112
f 92 112 113
f 92 113 114
f 92 114 115
f 92 115 106
f 93 116 117
f 93 117 107
f 93 107 95
f 95 107 96
f 97 99 100
f 97 100 118
f 97 118 98
f 108 117 121
f 108 121 120
f 116 121 117
f 120 121 124
f 121 123 124
f 122 125 123
f 123 125 126
f 123 126 127
f 123 127 128
f 123 128 129
f 123 129 130
f 123 130 131
f 123 131 124
f 48 61 49
f 92 108 120
f 71 103 102
f 92 117 108
f 92 96 107
f 71 101 87
f 71 87 86
f 71 86 78
f 71 78 77
f 71 77 76
f 71 76 75
f 71 75 74
f 71 74 73
f 71 73 72
f 79 93 95
f 79 95 81
f 80 82 94
f 81 95 96
f 81 96 82
f 82 96 97
f 82 97 98
f 82 98 94
f 83 84 99
f 84 100 99
f 85 99 97
f 85 97 91
f 87 101 88
f 88 101 102
f 88 102 103
f 88 103 104
f 88 104 105
f 89 92 106
f 91 97 96
f 91 96 92
f 92 107 117
f 48 62 61
f 14 27 28
f 46 62 47
f 5 14 29
f 5 29 15
f 6 16 19
f 6 19 7
f 7 17 18
f 7 18 9
f 7 9 8
f 7 19 32
f 7 32 17
f 9 18 20
f 9 20 21
f 9 21 22
f 9 22 13
f 4 14 5
f 10 22 23
f 10 13 22
f 11 23 22
f 11 22 24
f 11 24 25
f 11 25 26
f 11 26 20
f 11 20 37
f 11 37 50
f 11 50 49
f 11 49 45
f 11 45 59
f 11 59 80
f 11 80 94
f 10 23 11
f 4 12 14
f 3 13 10
f 3 9 13
f 1 2 3
f 1 3 4
f 1 4 5
f 1 5 15
f 1 15 30
f 1 30 42
f 1 42 56
f 1 56 69
f 47 62 48
f 1 88 105
f 1 105 119
f 1 119 123
f 1 123 121
f 1 121 116
f 1 116 93
f 1 93 79
f 1 79 57
f 1 57 43
f 1 43 31
f 1 31 16
f 1 16 6
f 1 6 7
f 1 7 8
f 1 8 2
f 2 8 9
f 2 9 3
f 3 10 11
f 3 11 12
f 3 12 4
f 11 94 98
f 11 98 118
f 1 69 88
f 11 100 84
f 33 45 46
f 33 46 47
f 33 47 34
f 34 47 48
f 34 48 35
f 35 48 49
f 35 49 50
f 35 50 37
f 35 37 36
f 38 51 39
f 39 51 52
f 39 52 53
f 39 53 40
f 33 44 45
f 40 53 41
f 41 54 55
f 41 55 42
f 42 55 56
f 43 57 44
f 44 58 59
f 44 59 45
f 44 57 58
f 45 49 60
f 45 61 62
f 45 62 63
f 45 63 46
f 46 63 62
f 11 118 100
f 41 53 54
f 31 44 33
f 45 60 61
f 30 41 42
f 11 84 66
f 31 43 44
f 11 66 64
f 11 64 51
f 11 38 27
f 11 27 12
f 12 27 14
f 14 28 29
f 15 29 30
f 16 31 19
f 17 32 36
f 17 36 37
f 17 37 20
f 17 20 18
f 11 51 38
f 19 33 34
f 19 31 33
f 29 39 40
f 27 39 28
f 29 41 30
f 27 38 39
f 24 26 25
f 28 39 29
f 21 24 22
f 19 34 35
f 21 26 24
f 19 35 36
f 29 40 41
f 19 36 32
f 20 26 21

