# https://github.com/mikedh/trimesh
v 0.67882600 0.30376600 -0.02689590
v 0.67564500 0.22478200 -0.02527350
v 0.67882600 0.22478200 -0.02689590
v 0.67882600 0.31074000 -0.02863020
v 0.66083200 0.30362300 -0.01788860
v 0.67274600 0.29767300 -0.02381890
v 0.67274600 0.22478200 -0.02381890
v 0.67882600 0.22478200 -0.32172900
v 0.66381900 0.32446800 -0.03277020
v 0.65487500 0.31553700 -0.02381890
v 0.67882600 0.32860300 -0.04647690
v 0.66083200 0.22478200 -0.01788860
v 0.67128700 0.22478200 -0.02309160
v 0.58346000 0.31553700 -0.00597219
v 0.58940000 0.30362300 -0.00004196
v 0.57982300 0.22478200 -0.47020900
v 0.62510700 0.23219700 -0.48223800
v 0.64297800 0.23219700 -0.44648800
v 0.64521000 0.23665600 -0.46433500
v 0.65487500 0.23814700 -0.44648800
v 0.65636800 0.24112800 -0.45544000
v 0.66752700 0.25006000 -0.42864200
v 0.67422200 0.25899100 -0.41969000
v 0.67870300 0.26791000 -0.41073900
v 0.67882600 0.33947900 -0.32172900
v 0.64893500 0.32743700 -0.02980500
v 0.67882600 0.33935000 -0.07148460
v 0.66975900 0.33041800 -0.04468660
v 0.58940000 0.23219700 -0.00004196
v 0.58940000 0.22478200 -0.00166438
v 0.50011400 0.30362300 0.01786070
v 0.57750300 0.32743700 -0.01195840
v 0.57372500 0.22478200 -0.47630700
v 0.58940000 0.23219700 -0.51793100
v 0.62733900 0.23665600 -0.50008400
v 0.63851500 0.24112800 -0.49113300
v 0.64967300 0.25006000 -0.48223800
v 0.65636800 0.25899100 -0.47328600
v 0.66083200 0.26791000 -0.46433500
v 0.67870300 0.32148700 -0.41073900
v 0.67882600 0.35042000 -0.30651200
v 0.64297800 0.33935000 -0.05358190
v 0.67882600 0.35720000 -0.16077400
v 0.50011400 0.23219700 0.01786070
v 0.58200200 0.22478200 -0.00004196
v 0.49932400 0.30517900 0.01707740
v 0.49932400 0.30362300 0.01786070
v 0.57154600 0.33935000 -0.03573530
v 0.49932400 0.32878500 -0.01061570
v 0.49932400 0.31449900 0.01086740
v 0.53800100 0.22478200 -0.49421000
v 0.55369300 0.23219700 -0.53577800
v 0.55965000 0.23814700 -0.54769400
v 0.59533900 0.23814700 -0.52984700
v 0.60948500 0.23665600 -0.51793100
v 0.63106400 0.25006000 -0.50601400
v 0.64893500 0.26791000 -0.48816800
v 0.64893500 0.32148700 -0.48816800
v 0.66083200 0.32148700 -0.46433500
v 0.65636800 0.33935000 -0.46657300
v 0.67274600 0.33338700 -0.41672500
v 0.67882600 0.35720000 -0.28575600
v 0.58940000 0.35720000 -0.16077400
v 0.49932400 0.23141900 0.01786070
v 0.49932400 0.22478200 0.01635010
v 0.49932400 0.33935000 -0.03573530
v 0.52977700 0.22478200 -0.49773400
v 0.49932400 0.23219700 -0.53577800
v 0.49932400 0.23258500 -0.53656100
v 0.51492800 0.22478200 -0.50310500
v 0.49932400 0.23814700 -0.54769400
v 0.49932400 0.24928200 -0.55328900
v 0.55369300 0.25006000 -0.55362400
v 0.57377800 0.25006000 -0.54920400
v 0.57601000 0.24112800 -0.54472900
v 0.60279000 0.24112800 -0.52688200
v 0.61321100 0.25006000 -0.52386100
v 0.59533900 0.26791000 -0.54176400
v 0.65190500 0.34828100 -0.46881100
v 0.59533900 0.32148700 -0.54176400
v 0.63106400 0.33935000 -0.50601400
v 0.65487500 0.35125000 -0.45241800
v 0.64297800 0.35720000 -0.44648800
v 0.49932400 0.35125000 -0.14885700
v 0.49932400 0.35720000 -0.26791000
v 0.49932400 0.22478200 -0.50310500
v 0.49932400 0.25006000 -0.55362400
v 0.57154600 0.26791000 -0.55362400
v 0.58346000 0.26791000 -0.54769400
v 0.58047300 0.33041800 -0.54920400
v 0.63405100 0.34828100 -0.49560900
v 0.63702100 0.35125000 -0.48816800
v 0.60725400 0.33935000 -0.52464400
v 0.61618000 0.34828100 -0.51345500
v 0.62510700 0.35274100 -0.50232200
v 0.62510700 0.35720000 -0.48223800
v 0.49932400 0.35720000 -0.53577800
v 0.49932400 0.33935000 -0.55362400
v 0.57154600 0.32148700 -0.55362400
v 0.54476600 0.34828100 -0.54920400
v 0.57154600 0.34530000 -0.54176400
v 0.60725400 0.35720000 -0.50008400
v 0.55369300 0.35274100 -0.53801500
v 0.53582200 0.35720000 -0.53577800
v 0.49932400 0.35695400 -0.53628100
v 0.49932400 0.35073100 -0.54797400
v 0.53582200 0.33935000 -0.55362400
v 0.53582200 0.35125000 -0.54769400
v 0.57154600 0.35720000 -0.51793100
v 0.49932400 0.35125000 -0.54769400
f 46 64 47
f 53 69 71
f 52 86 68
f 52 70 86
f 51 67 52
f 52 69 53
f 52 68 69
f 48 66 49
f 53 71 72
f 52 67 70
f 53 72 73
f 55 76 77
f 53 74 75
f 53 75 54
f 54 76 55
f 54 75 76
f 58 60 59
f 56 77 78
f 56 78 57
f 57 78 80
f 57 80 58
f 46 65 64
f 58 79 60
f 53 73 74
f 46 86 65
f 45 64 65
f 46 69 68
f 43 62 83
f 58 80 81
f 43 83 96
f 43 96 102
f 43 102 109
f 43 109 104
f 43 104 97
f 43 97 85
f 43 85 63
f 44 64 45
f 46 50 49
f 46 49 66
f 46 66 84
f 46 84 85
f 46 85 97
f 46 97 105
f 46 105 110
f 46 110 106
f 46 106 98
f 46 98 87
f 46 87 72
f 46 72 71
f 46 71 69
f 46 68 86
f 58 81 79
f 90 101 94
f 61 79 82
f 88 90 89
f 90 99 100
f 90 100 101
f 43 66 48
f 90 94 93
f 91 95 92
f 92 95 96
f 94 101 95
f 95 102 96
f 95 101 103
f 95 103 109
f 88 99 90
f 95 109 102
f 98 106 100
f 98 100 107
f 99 107 100
f 100 106 108
f 100 108 103
f 100 103 101
f 103 108 104
f 103 104 109
f 104 108 105
f 105 108 110
f 106 110 108
f 97 104 105
f 60 79 61
f 83 92 96
f 81 95 91
f 61 82 62
f 62 82 83
f 63 84 66
f 63 85 84
f 72 87 73
f 73 88 74
f 73 87 98
f 73 98 107
f 73 107 99
f 73 99 88
f 74 88 89
f 82 92 83
f 74 89 78
f 75 78 77
f 75 77 76
f 78 89 90
f 78 90 80
f 79 81 91
f 79 91 92
f 79 92 82
f 80 90 93
f 80 93 81
f 81 93 94
f 81 94 95
f 74 78 75
f 43 63 66
f 31 47 64
f 40 62 41
f 4 10 5
f 4 11 9
f 5 12 13
f 5 13 6
f 5 10 14
f 5 14 15
f 5 15 29
f 5 29 12
f 6 13 7
f 8 16 17
f 8 17 18
f 8 18 19
f 8 19 20
f 8 20 21
f 8 21 22
f 42 43 48
f 8 23 24
f 8 24 40
f 8 40 25
f 9 26 10
f 9 11 26
f 10 26 14
f 11 27 28
f 4 9 10
f 11 28 26
f 2 6 7
f 2 16 8
f 1 2 3
f 1 3 8
f 1 8 25
f 1 25 41
f 1 41 62
f 1 62 43
f 1 43 27
f 1 27 11
f 1 11 4
f 1 4 5
f 1 5 6
f 1 6 2
f 2 7 13
f 2 13 12
f 2 12 30
f 2 30 45
f 2 45 65
f 2 65 86
f 2 86 70
f 2 70 67
f 2 67 51
f 2 51 33
f 2 33 16
f 2 8 3
f 12 29 30
f 8 22 23
f 14 26 32
f 31 46 47
f 31 64 44
f 31 32 46
f 32 48 49
f 32 49 50
f 32 50 46
f 33 51 34
f 14 31 15
f 34 52 53
f 34 53 54
f 34 54 55
f 35 55 77
f 35 77 56
f 35 56 36
f 36 56 37
f 37 56 57
f 37 57 38
f 38 57 58
f 38 58 59
f 38 59 39
f 40 59 60
f 40 60 61
f 40 61 62
f 29 45 30
f 29 44 45
f 34 51 52
f 27 42 28
f 14 32 31
f 27 43 42
f 15 44 29
f 16 33 17
f 17 33 34
f 17 34 55
f 17 55 35
f 17 35 19
f 17 19 18
f 19 21 20
f 19 35 21
f 21 35 36
f 15 31 44
f 21 37 38
f 21 36 37
f 26 42 48
f 26 28 42
f 25 40 41
f 24 59 40
f 26 48 32
f 24 38 39
f 23 38 24
f 21 23 22
f 21 38 23
f 24 39 59

