# https://github.com/mikedh/trimesh
v -0.73551100 0.28254800 0.23043600
v -0.73648800 0.27912200 0.23043600
v -0.74301400 0.28752300 0.23043600
v -0.73824100 0.27981500 0.52983700
v -0.73824100 0.27386300 0.53579700
v -0.73824100 0.27386300 0.23043600
v -0.74388900 0.28752300 0.23043600
v -0.75907500 0.28130400 0.54472200
v -0.75610000 0.27981500 0.54771700
v -0.74121900 0.27684000 0.54472200
v -0.74121900 0.27237500 0.54472200
v -0.73957800 0.27369700 0.23043600
v -0.74717100 0.27088700 0.53879300
v -0.74476400 0.28576900 0.23043600
v -0.76354300 0.27684000 0.54472200
v -0.75907500 0.27684000 0.54918400
v -0.75014600 0.27386300 0.54771700
v -0.74632000 0.27333200 0.23043600
f 7 14 15
f 9 16 17
f 6 13 12
f 7 15 8
f 8 16 9
f 9 17 10
f 13 15 18
f 11 17 13
f 12 13 18
f 13 17 15
f 14 18 15
f 6 11 13
f 15 17 16
f 10 17 11
f 5 11 6
f 8 15 16
f 4 10 5
f 5 10 11
f 1 2 6
f 1 6 12
f 1 18 14
f 1 14 7
f 1 7 3
f 1 3 4
f 1 12 18
f 1 5 2
f 2 5 6
f 3 7 8
f 3 8 4
f 4 8 9
f 1 4 5
f 4 9 10

