# https://github.com/mikedh/trimesh
v -0.70686400 -0.11596800 -0.25129300
v -0.70686400 0.08564070 -0.25129300
v -0.67807800 -0.11596800 -0.25129300
v -0.70686400 -0.11596800 0.17860700
v -0.67807800 0.08564070 -0.25129300
v -0.70686400 0.08564070 0.16072200
v -0.59017900 -0.11596800 -0.12942600
v -0.59017900 -0.11596800 0.17860700
v -0.70686400 -0.00000735 0.17860700
v -0.59017900 0.08564070 -0.12538700
v -0.60726800 0.08564070 0.17860700
v -0.59017900 0.08564070 0.17860700
f 2 10 5
f 7 10 12
f 6 9 11
f 5 10 7
f 4 11 9
f 4 12 11
f 4 8 12
f 3 5 7
f 2 12 10
f 7 12 8
f 2 6 11
f 1 6 2
f 1 9 6
f 1 4 9
f 1 8 4
f 1 7 8
f 1 3 7
f 1 5 3
f 1 2 5
f 2 11 12

