# https://github.com/mikedh/trimesh
v 0.82159000 -0.05044050 -0.23216000
v 0.82159000 -0.16074300 -0.23216000
v 0.82159000 -0.05044050 -0.30361300
v 0.78586400 -0.05044050 -0.08932090
v 0.81766700 -0.17837500 -0.24785100
v 0.82159000 -0.17837500 -0.26767500
v 0.78586400 -0.17837500 -0.08932090
v 0.82159000 -0.17837500 -0.30361300
v 0.80967100 -0.05044050 -0.32744100
v 0.78428900 -0.05044050 -0.08616330
v 0.77989000 -0.17837500 -0.07740670
v 0.80967100 -0.17837500 -0.32744100
v 0.80589700 -0.16719200 -0.33251900
v 0.79986300 -0.05044050 -0.33232400
v 0.77989000 -0.05044050 -0.07740670
v 0.76800200 -0.17837500 -0.07144970
v 0.80589700 -0.17837500 -0.33251900
v 0.79944700 -0.05044050 -0.33251900
v 0.76800200 -0.05044050 -0.07144970
v 0.75037700 -0.17837500 -0.06262800
v 0.65083900 -0.17837500 -0.33251900
v 0.67316000 -0.05044050 -0.33251900
v 0.74416500 -0.05044050 -0.05953550
v 0.73251400 -0.17837500 -0.05370860
v 0.51798300 -0.17837500 -0.17812400
v 0.51798300 -0.05044050 -0.16077300
v 0.73542700 -0.05044050 -0.05517350
v 0.73227600 -0.05044050 -0.05361100
v 0.73227600 -0.17837500 -0.05361100
v 0.51798300 -0.17837500 -0.00002988
v 0.51798300 -0.05044050 -0.00002988
v 0.67868800 -0.05044050 -0.03573980
v 0.67868800 -0.17837500 -0.03573980
v 0.55370900 -0.17837500 -0.00002988
v 0.55370900 -0.05044050 -0.00002988
f 13 21 22
f 13 17 21
f 11 19 16
f 11 15 19
f 10 15 11
f 9 13 14
f 5 12 8
f 9 12 17
f 7 10 11
f 5 8 6
f 5 17 12
f 5 21 17
f 13 22 18
f 9 17 13
f 13 18 14
f 28 33 29
f 19 23 20
f 20 23 24
f 21 25 26
f 21 26 22
f 23 27 24
f 24 27 28
f 24 28 29
f 25 31 26
f 28 32 33
f 30 34 35
f 30 35 31
f 32 35 34
f 32 34 33
f 5 25 21
f 16 19 20
f 5 30 25
f 25 30 31
f 5 33 34
f 1 2 6
f 1 6 8
f 1 8 3
f 1 3 9
f 1 9 14
f 1 14 18
f 1 18 22
f 5 34 30
f 1 22 26
f 1 31 35
f 1 35 32
f 1 32 28
f 1 28 27
f 1 27 23
f 1 23 19
f 1 26 31
f 1 15 10
f 1 19 15
f 5 24 29
f 5 20 24
f 5 16 20
f 5 11 16
f 5 7 11
f 4 10 7
f 5 29 33
f 3 8 12
f 2 7 5
f 2 5 6
f 1 7 2
f 1 4 7
f 1 10 4
f 3 12 9

