# https://github.com/mikedh/trimesh
v -0.34140700 0.14711700 -0.25008100
v -0.39292800 0.14711700 -0.26368800
v -0.39292800 0.14711100 -0.25008100
v -0.34140700 0.08564670 -0.25008100
v -0.34140700 0.14711700 -0.37507400
v -0.41086600 0.14711700 -0.33944200
v -0.41086600 0.14709300 -0.33934400
v -0.39292800 0.08564670 -0.25008100
v -0.34140700 0.08564670 -0.37507400
v -0.37507900 0.14711700 -0.37507400
v -0.41086600 0.14711700 -0.35720900
v -0.41086600 0.08564670 -0.33934400
v -0.37507900 0.08564670 -0.37507400
v -0.41086600 0.08564670 -0.35720900
f 10 14 11
f 10 13 14
f 6 12 7
f 6 11 14
f 5 13 10
f 5 9 13
f 4 13 9
f 4 14 13
f 4 12 14
f 4 8 12
f 3 6 7
f 6 14 12
f 3 7 12
f 2 6 3
f 1 6 2
f 1 11 6
f 1 10 11
f 1 5 10
f 1 9 5
f 1 4 9
f 1 8 4
f 1 3 8
f 1 2 3
f 3 12 8

