# https://github.com/mikedh/trimesh
v -0.34142600 0.08564670 0.23503700
v -0.34142600 0.10716600 0.22781900
v -0.39294300 0.14711700 0.21428600
v -0.51795600 0.14711700 0.19643200
v -0.51795600 0.08564670 0.19643200
v -0.34142600 0.08564670 -0.25006900
v -0.34142600 0.14711700 0.21428600
v -0.52703900 0.14711700 0.19192000
v -0.52039500 0.08564670 0.19524400
v -0.39294300 0.08564670 -0.25006900
v -0.34142600 0.14711700 -0.25006900
v -0.53313900 0.14711700 0.18883400
v -0.52985400 0.08564670 0.19049600
v -0.39294300 0.14711100 -0.25006900
v -0.53313900 0.08564670 -0.12499400
v -0.39294300 0.14711700 -0.25002100
v -0.53313900 0.08564670 0.18883400
v -0.53313900 0.14711700 -0.12499400
f 3 8 4
f 4 8 9
f 4 9 5
f 6 10 14
f 6 14 11
f 8 12 17
f 8 17 13
f 11 14 16
f 10 15 18
f 10 18 14
f 12 18 15
f 12 15 17
f 14 18 16
f 3 12 8
f 8 13 9
f 3 18 12
f 3 11 16
f 1 2 3
f 3 16 18
f 1 3 4
f 1 4 5
f 1 5 9
f 1 13 17
f 1 17 15
f 1 9 13
f 1 10 6
f 1 6 11
f 1 11 7
f 1 7 2
f 2 7 3
f 3 7 11
f 1 15 10

