# https://github.com/mikedh/trimesh
v -0.56734100 -0.21872200 0.17856800
v -0.70685000 -0.21872200 0.17856800
v -0.56734100 -0.30362100 0.17856800
v -0.56734100 -0.21872200 -0.21417700
v -0.70685000 -0.30362100 0.17856800
v -0.70685000 -0.21872200 -0.21417700
v -0.56734100 -0.31553600 0.17264700
v -0.56734100 -0.24459300 -0.21417700
v -0.70685000 -0.31553600 0.17264700
v -0.70685000 -0.33934100 -0.21417700
v -0.56734100 -0.32148700 0.16072700
v -0.68460300 -0.33340100 -0.21417700
v -0.56734100 -0.33338900 -0.11904700
v -0.70685000 -0.32148700 0.16072700
v -0.69655300 -0.33934100 -0.21417700
v -0.70685000 -0.33934100 0.05356190
v -0.56734100 -0.33934100 0.05356190
v -0.69643000 -0.33931700 -0.21417700
v -0.56734100 -0.33514900 -0.11554800
v -0.56734100 -0.33934100 -0.10712700
f 7 9 14
f 4 12 18
f 4 18 15
f 4 15 10
f 4 10 6
f 4 8 12
f 7 14 11
f 11 16 17
f 10 15 20
f 10 20 17
f 10 17 16
f 11 14 16
f 12 13 18
f 13 19 18
f 3 9 7
f 8 13 12
f 3 5 9
f 1 3 7
f 2 14 9
f 15 18 20
f 1 2 5
f 1 5 3
f 1 7 11
f 1 11 17
f 1 17 20
f 1 20 19
f 1 19 13
f 1 13 8
f 1 8 4
f 1 4 6
f 1 6 2
f 2 6 10
f 2 10 16
f 2 16 14
f 2 9 5
f 18 19 20

