# https://github.com/mikedh/trimesh
v -0.34140700 -0.16364500 0.21432800
v -0.39295600 -0.16364500 0.21432800
v -0.34140700 -0.21872200 0.21432800
v -0.34140700 -0.16364500 -0.37503200
v -0.39295600 -0.21872200 0.21432800
v -0.70686400 -0.16364500 0.17856300
v -0.34140700 -0.21872200 -0.37523900
v -0.34140700 -0.21617700 -0.37523900
v -0.46468100 -0.21872200 -0.46651500
v -0.49984600 -0.21872200 -0.48412100
v -0.50041800 -0.21872200 -0.48439700
v -0.51798300 -0.21872200 -0.49102500
v -0.52685400 -0.18307700 -0.45539900
v -0.37510500 -0.16364500 -0.37503200
v -0.70686400 -0.21872200 0.17856300
v -0.70686400 -0.16364500 -0.28575800
v -0.52671100 -0.21872200 -0.49102500
v -0.52685400 -0.18754100 -0.45988700
v -0.58029900 -0.21872200 -0.47314300
v -0.56259200 -0.18307700 -0.43758500
v -0.55364800 -0.17860700 -0.42861000
v -0.44976300 -0.16364500 -0.35749400
v -0.70686400 -0.21872200 -0.28196000
v -0.58938600 -0.16364500 -0.32207500
v -0.70686400 -0.18890500 -0.28575800
v -0.70686400 -0.20760400 -0.28403200
v -0.51798300 -0.16364500 -0.34078600
f 12 18 13
f 12 17 18
f 7 9 8
f 6 23 15
f 4 12 13
f 6 25 26
f 6 16 25
f 4 13 14
f 13 18 19
f 6 26 23
f 13 19 20
f 16 21 20
f 13 21 14
f 14 21 22
f 16 24 21
f 16 20 19
f 17 19 18
f 19 23 26
f 19 26 25
f 21 24 27
f 21 27 22
f 4 11 12
f 13 20 21
f 4 10 11
f 16 19 25
f 4 8 9
f 4 9 10
f 1 2 5
f 1 5 3
f 1 3 7
f 1 7 8
f 1 8 4
f 1 4 14
f 1 14 22
f 1 22 27
f 1 27 24
f 1 16 6
f 1 24 16
f 2 6 15
f 3 9 7
f 3 10 9
f 3 11 10
f 3 12 11
f 1 6 2
f 3 19 17
f 3 17 12
f 3 23 19
f 3 15 23
f 3 5 15
f 2 15 5

