# https://github.com/mikedh/trimesh
v 0.52311200 -0.22704600 0.00635383
v 0.52311200 -0.29847700 0.00635383
v 0.52311200 -0.17837500 -0.00002153
v 0.33880700 -0.17837500 0.10826500
v 0.34532000 -0.26195700 0.11309400
v 0.52311200 -0.31155800 -0.00002153
v 0.34532000 -0.29766500 0.11309400
v 0.33880700 -0.30418000 0.11637600
v 0.51199700 -0.30957800 0.01187700
v 0.52311200 -0.17837500 -0.17812100
v 0.33880700 -0.25870800 0.11637600
v 0.33880700 -0.17837500 -0.20567400
v 0.52311200 -0.31499400 -0.00172583
v 0.33880700 -0.31430000 0.10826500
v 0.50902000 -0.31702400 0.00891029
v 0.52311200 -0.17861200 -0.20605300
v 0.49962000 -0.17837500 -0.20605300
v 0.46436500 -0.17837500 -0.20605300
v 0.33880700 -0.30362200 -0.20567400
v 0.52311200 -0.32743200 -0.01192010
v 0.33880700 -0.31492600 0.10769700
v 0.52311200 -0.25006100 -0.20605300
v 0.46436500 -0.21433700 -0.20605300
v 0.47031900 -0.22625000 -0.20605300
v 0.47627300 -0.23814700 -0.20605300
v 0.49050900 -0.24527200 -0.20605300
v 0.50008900 -0.25006100 -0.20605300
v 0.33880700 -0.30920600 -0.20425400
v 0.52311200 -0.33338900 -0.02381860
v 0.33880700 -0.32860000 0.07086490
v 0.34829700 -0.31702400 0.09822840
v 0.52311200 -0.33934600 -0.03574880
v 0.52311200 -0.34965200 -0.15558700
v 0.33880700 -0.31514600 -0.20018200
v 0.52311200 -0.35124200 -0.15476600
v 0.33880700 -0.33934600 0.03570570
v 0.33936600 -0.33934600 0.03570570
v 0.52311200 -0.35124200 -0.14883200
v 0.33880700 -0.31672000 -0.19879400
v 0.33880700 -0.35124200 -0.15476600
v 0.33880700 -0.35124200 -0.14883200
f 19 24 25
f 19 23 24
f 16 18 17
f 16 23 18
f 16 24 23
f 16 25 24
f 16 26 25
f 14 21 15
f 16 22 27
f 15 21 20
f 13 15 20
f 12 23 19
f 12 18 23
f 19 25 26
f 10 16 17
f 16 27 26
f 19 26 27
f 28 35 34
f 19 22 28
f 8 15 9
f 36 38 37
f 36 41 38
f 35 40 39
f 35 41 40
f 35 38 41
f 34 35 39
f 32 37 38
f 30 32 31
f 30 37 32
f 30 36 37
f 28 33 35
f 22 33 28
f 21 32 29
f 21 31 32
f 21 30 31
f 20 21 29
f 19 27 22
f 8 14 15
f 9 15 13
f 5 8 7
f 1 7 2
f 1 5 7
f 1 4 5
f 1 3 4
f 1 10 3
f 1 16 10
f 1 22 16
f 2 7 8
f 1 35 33
f 1 32 38
f 1 29 32
f 1 20 29
f 1 13 20
f 1 6 13
f 1 2 6
f 6 9 13
f 1 38 35
f 2 8 9
f 1 33 22
f 3 10 17
f 5 11 8
f 2 9 6
f 4 8 11
f 4 14 8
f 4 21 14
f 4 30 21
f 4 41 36
f 4 40 41
f 4 39 40
f 4 36 30
f 4 34 39
f 3 17 18
f 3 12 4
f 4 11 5
f 3 18 12
f 4 19 28
f 4 28 34
f 4 12 19

