# https://github.com/mikedh/trimesh
v 0.40197200 0.13901900 -0.37506000
v 0.40197200 0.24698400 -0.52102500
v 0.40485000 0.24410100 -0.52391000
v 0.43758600 0.24113200 -0.54473800
v 0.47032300 0.23816300 -0.54768000
v 0.49932400 0.13901900 -0.37506000
v 0.40197200 0.13901900 0.03572130
v 0.40197200 0.26338700 -0.52246800
v 0.42271000 0.26195600 -0.54173700
v 0.42568300 0.24709100 -0.53879500
v 0.44651600 0.26789400 -0.55368000
v 0.46437600 0.25003800 -0.55368000
v 0.49932400 0.23816300 -0.54768000
v 0.49932400 0.13901900 0.00929747
v 0.41079700 0.13901900 0.03572130
v 0.40197200 0.30362600 0.03572130
v 0.40197200 0.33051500 -0.52246800
v 0.42271000 0.31552200 -0.54173700
v 0.44651600 0.32148100 -0.55368000
v 0.49932400 0.25003800 -0.55368000
v 0.49932400 0.23141400 0.01783620
v 0.49622600 0.13901900 0.01085520
v 0.41079700 0.30362600 0.03572130
v 0.48223600 0.13901900 0.01783620
v 0.40197200 0.31552200 0.02972110
v 0.40197200 0.33536400 -0.52137100
v 0.43461300 0.32744000 -0.54768000
v 0.46437600 0.34157900 -0.54918000
v 0.48223600 0.33933600 -0.55368000
v 0.49932400 0.33933600 -0.55368000
v 0.49932400 0.30362600 0.01783620
v 0.49932400 0.30516300 0.01708610
v 0.49413900 0.31552200 0.01189370
v 0.40485000 0.31552200 0.02972110
v 0.40197200 0.31840500 0.02683640
v 0.40197200 0.34608500 -0.51571800
v 0.41675300 0.34529500 -0.52985200
v 0.42865700 0.33711500 -0.54023700
v 0.43758600 0.33487200 -0.54473800
v 0.44651600 0.34529500 -0.54173700
v 0.47330600 0.35272800 -0.54473800
v 0.48223600 0.35125400 -0.54768000
v 0.49932400 0.35074100 -0.54796800
v 0.49932400 0.31449700 0.01085520
v 0.47032300 0.32744000 0.00595121
v 0.40197200 0.32325400 0.01962470
v 0.40197200 0.35270600 -0.50908300
v 0.41972700 0.35272800 -0.52685200
v 0.48223600 0.35721300 -0.53579500
v 0.49932400 0.35125400 -0.54768000
v 0.49932400 0.32878500 -0.01060700
v 0.49116600 0.33040900 -0.00893384
v 0.40197200 0.33038700 0.00889361
v 0.40197200 0.33032300 0.00900898
v 0.46437600 0.33933600 -0.01787640
v 0.40197200 0.35279200 -0.50891000
v 0.42865700 0.35721300 -0.51791000
v 0.49932400 0.35721300 -0.53579500
v 0.49932400 0.33933600 -0.03576150
v 0.40197200 0.33933600 -0.01787640
v 0.49932400 0.35125400 -0.14884200
v 0.40197200 0.35721300 -0.48219700
v 0.41079700 0.35721300 -0.50008200
v 0.49932400 0.35721300 -0.26786400
v 0.40197200 0.35125400 -0.14884200
v 0.40197200 0.35721300 -0.31246200
v 0.44651600 0.35721300 -0.26786400
v 0.41079700 0.35721300 -0.30357700
f 28 42 29
f 29 42 43
f 29 43 30
f 32 44 33
f 33 44 45
f 33 45 34
f 36 47 48
f 35 45 46
f 36 48 37
f 37 48 38
f 38 40 39
f 28 41 42
f 38 48 40
f 34 45 35
f 28 40 41
f 23 32 33
f 27 39 28
f 27 38 39
f 27 37 38
f 26 37 27
f 26 36 37
f 25 34 35
f 23 33 34
f 23 31 32
f 21 24 22
f 19 27 28
f 19 28 29
f 18 26 27
f 18 27 19
f 40 48 41
f 28 39 40
f 41 49 42
f 65 68 66
f 41 57 49
f 17 26 18
f 65 67 68
f 61 67 65
f 61 64 67
f 56 63 57
f 56 62 63
f 55 65 60
f 55 61 65
f 55 59 61
f 53 55 60
f 52 59 55
f 51 59 52
f 49 64 58
f 49 67 64
f 41 48 57
f 49 68 67
f 49 62 66
f 49 63 62
f 49 57 63
f 48 56 57
f 47 56 48
f 45 55 53
f 45 52 55
f 45 54 46
f 45 53 54
f 44 52 45
f 44 51 52
f 42 50 43
f 42 58 50
f 42 49 58
f 49 66 68
f 16 34 25
f 1 16 25
f 15 31 23
f 3 9 10
f 3 8 9
f 2 8 3
f 1 8 2
f 1 17 8
f 1 26 17
f 1 36 26
f 1 47 36
f 1 56 47
f 1 62 56
f 1 66 62
f 1 65 66
f 1 60 65
f 1 53 60
f 1 54 53
f 1 46 54
f 1 35 46
f 1 25 35
f 1 7 16
f 1 15 7
f 1 24 15
f 1 22 24
f 1 14 22
f 1 6 14
f 1 13 6
f 1 4 5
f 1 3 4
f 1 2 3
f 16 23 34
f 3 10 4
f 4 10 9
f 1 5 13
f 4 11 12
f 4 9 11
f 15 21 31
f 15 24 21
f 11 20 12
f 11 30 20
f 11 29 30
f 11 19 29
f 9 19 11
f 9 18 19
f 8 18 9
f 8 17 18
f 7 23 16
f 7 15 23
f 6 21 14
f 6 31 21
f 14 21 22
f 6 44 32
f 6 32 31
f 5 12 20
f 6 13 20
f 6 20 30
f 6 30 43
f 6 43 50
f 5 20 13
f 6 58 64
f 6 51 44
f 6 59 51
f 6 50 58
f 4 12 5
f 6 61 59
f 6 64 61

