# https://github.com/mikedh/trimesh
v -0.44653900 0.14711700 -0.35721300
v -0.70686400 0.14711700 -0.28578000
v -0.70686400 0.14711700 -0.25007900
v -0.70686400 -0.16364000 -0.28577700
v -0.58940400 -0.16364000 -0.32212800
v -0.51798000 -0.16364000 -0.34079600
v -0.58937700 0.14711700 -0.32149100
v -0.44653300 -0.11596800 -0.35721300
v -0.48034900 -0.16364000 -0.34126900
v -0.66812500 -0.16364000 -0.26208600
v -0.53438900 -0.16364000 -0.30218100
v -0.67806600 -0.11596800 -0.25129300
v -0.46438500 -0.11596800 -0.32148500
v -0.48034900 -0.16355600 -0.32008200
v -0.48034900 -0.16364000 -0.32241500
v -0.44064300 -0.11596800 -0.33336600
v -0.44064300 -0.11596800 -0.35721300
v -0.41087300 0.08564670 -0.35721300
v -0.41087300 0.14711700 -0.35721300
v -0.67867300 0.14711700 -0.25007900
v -0.41087300 0.14709300 -0.33935200
v -0.41087300 0.08564670 -0.33935200
v -0.46438500 0.08564070 -0.32148500
v -0.67867300 0.08564670 -0.25007900
v -0.70686400 0.08564670 -0.25007900
v -0.70686400 -0.16364000 -0.26208600
v -0.70686400 -0.11596800 -0.25129300
f 24 25 12
f 18 19 21
f 22 18 21
f 22 16 18
f 22 13 16
f 22 21 13
f 13 21 23
f 13 23 20
f 24 13 20
f 24 12 13
f 24 20 25
f 19 20 21
f 26 25 3
f 26 27 25
f 26 10 27
f 26 4 10
f 26 3 4
f 10 4 6
f 10 12 27
f 25 27 12
f 13 14 16
f 20 1 3
f 23 21 20
f 25 20 3
f 19 1 20
f 5 4 2
f 17 8 1
f 2 3 1
f 2 4 3
f 5 6 4
f 7 6 5
f 7 1 6
f 7 2 1
f 7 5 2
f 6 1 8
f 9 6 8
f 9 10 6
f 11 10 9
f 17 9 8
f 11 13 12
f 11 14 13
f 15 14 11
f 15 16 14
f 15 9 16
f 15 11 9
f 17 16 9
f 17 18 16
f 17 19 18
f 17 1 19
f 11 12 10

