# https://github.com/mikedh/trimesh
v 0.82155800 0.22478200 -0.23219100
v 0.78584900 0.22478200 -0.08934020
v 0.82155800 0.13902700 -0.23219100
v 0.82155800 0.22478200 -0.30359100
v 0.78061300 0.22478200 -0.07886410
v 0.78200100 0.13902700 -0.08161030
v 0.78584900 0.13902700 -0.08934020
v 0.82155800 0.13902700 -0.30359100
v 0.80370400 0.19646600 -0.35719200
v 0.79777300 0.20837000 -0.36314200
v 0.81316700 0.22478200 -0.32047500
v 0.77988700 0.22478200 -0.07744020
v 0.77988700 0.13902700 -0.07744020
v 0.82029700 0.13902700 -0.30618500
v 0.79925600 0.18753300 -0.36614300
v 0.79777300 0.19646600 -0.36909200
v 0.79477600 0.20538900 -0.37056700
v 0.80534400 0.22478200 -0.33329000
v 0.80966600 0.22478200 -0.32744200
v 0.77843600 0.22478200 -0.07667740
v 0.75607000 0.13902700 -0.06548930
v 0.80966600 0.13902700 -0.32744200
v 0.77988700 0.13902700 -0.36909200
v 0.76799400 0.13902700 -0.37504200
v 0.78584900 0.19646600 -0.37504200
v 0.53803000 0.22478200 -0.49419500
v 0.57373900 0.22478200 -0.47634500
v 0.78849900 0.22478200 -0.35063200
v 0.73228500 0.22478200 -0.05358930
v 0.74001400 0.13902700 -0.05745430
v 0.49932400 0.13902700 -0.37504200
v 0.49932400 0.18409100 -0.44237400
v 0.51493900 0.22478200 -0.50314500
v 0.52976500 0.22478200 -0.49770400
v 0.73228500 0.13902700 -0.05358930
v 0.68913100 0.22478200 -0.03202690
v 0.49932400 0.13902700 0.00926715
v 0.49932400 0.22478200 -0.50314500
v 0.67869000 0.13902700 -0.03573930
v 0.66083500 0.21432200 -0.01788930
v 0.66083500 0.22478200 -0.01788930
v 0.55370800 0.13902700 -0.00003926
v 0.49932400 0.22478200 0.01638680
v 0.58941700 0.22478200 -0.00166663
v 0.58200400 0.22478200 -0.00003926
f 15 22 23
f 17 26 27
f 17 25 26
f 16 25 17
f 16 24 25
f 16 23 24
f 17 27 28
f 15 23 16
f 42 45 43
f 13 20 21
f 12 20 13
f 10 19 11
f 10 18 19
f 10 17 18
f 17 28 18
f 9 16 10
f 9 15 16
f 8 15 9
f 14 22 15
f 20 29 30
f 29 35 30
f 24 31 32
f 8 14 15
f 40 45 42
f 40 44 45
f 40 41 44
f 39 40 42
f 37 42 43
f 36 41 40
f 35 40 39
f 20 30 21
f 35 36 40
f 31 38 32
f 31 43 38
f 31 37 43
f 29 36 35
f 24 26 25
f 24 34 26
f 24 33 34
f 24 32 33
f 32 38 33
f 5 13 6
f 10 16 17
f 4 10 11
f 1 41 36
f 1 44 41
f 1 45 44
f 1 43 45
f 1 38 43
f 1 33 38
f 1 34 33
f 1 26 34
f 1 36 29
f 1 27 26
f 1 18 28
f 1 19 18
f 1 11 19
f 1 8 4
f 1 3 8
f 1 7 3
f 1 2 7
f 5 12 13
f 1 28 27
f 1 29 20
f 1 4 11
f 1 12 5
f 4 9 10
f 1 20 12
f 4 8 9
f 3 14 8
f 3 23 22
f 3 24 23
f 3 31 24
f 3 37 31
f 3 42 37
f 3 22 14
f 3 35 39
f 3 30 35
f 3 21 30
f 3 13 21
f 3 6 13
f 1 5 2
f 3 7 6
f 2 6 7
f 3 39 42
f 2 5 6

