# https://github.com/mikedh/trimesh
v -0.34140700 0.23219700 0.21432800
v -0.39295100 0.23219700 0.21432800
v -0.34140700 0.20505000 0.21432800
v -0.34140700 0.30362100 0.19642500
v -0.39295100 0.20505000 0.21432800
v -0.51795700 0.30362100 0.19642500
v -0.34140700 0.20505000 -0.22113700
v -0.34140700 0.30773500 0.19437900
v -0.51795700 0.20505000 0.19642500
v -0.52388700 0.31553100 0.19050000
v -0.60829500 0.30362100 0.17856500
v -0.59403100 0.20505000 -0.22113700
v -0.34140700 0.30957600 -0.22113700
v -0.34140700 0.31553100 0.19050000
v -0.60829500 0.25004900 0.17856500
v -0.60725000 0.20505000 0.17856500
v -0.34140700 0.31943600 0.18269900
v -0.51795700 0.32148600 0.17856500
v -0.60829500 0.32148600 0.16070500
v -0.60829500 0.32044800 0.16279300
v -0.60829500 0.31553100 0.17264000
v -0.60829500 0.30568500 0.17754200
v -0.60829500 0.32148600 -0.13443600
v -0.60829500 0.33437000 -0.12851100
v -0.60829500 0.33488300 -0.12825500
v -0.59115800 0.21079400 -0.22113700
v -0.60829500 0.20505000 -0.13443600
v -0.37071900 0.32393200 -0.22113700
v -0.34140700 0.32148600 -0.19645600
v -0.60829500 0.20505000 0.17805300
v -0.34140700 0.32148600 0.17856500
v -0.60829500 0.33933900 0.05354350
v -0.60829500 0.33933900 -0.10817900
v -0.38911000 0.32787600 -0.22113700
v -0.55792700 0.25004900 -0.22113700
v -0.56529400 0.24636800 -0.22113700
v -0.57746800 0.23815200 -0.22113700
v -0.38137800 0.32775700 -0.22113700
v -0.34140700 0.33933900 -0.12501600
v -0.34140700 0.33933900 0.05354350
v -0.42866300 0.33933900 -0.12501600
v -0.38571400 0.32787600 -0.22113700
f 12 25 26
f 11 25 24
f 12 23 24
f 11 30 15
f 11 27 30
f 11 23 27
f 11 24 23
f 12 24 25
f 11 20 19
f 11 32 33
f 11 19 32
f 11 21 20
f 11 22 21
f 10 14 17
f 10 22 11
f 12 27 23
f 10 21 22
f 11 33 25
f 13 28 29
f 28 38 29
f 17 31 18
f 10 20 21
f 38 42 39
f 34 39 42
f 34 41 39
f 33 41 34
f 32 41 33
f 32 39 41
f 32 40 39
f 29 38 39
f 25 37 26
f 25 36 37
f 25 35 36
f 25 34 35
f 25 33 34
f 18 32 19
f 18 40 32
f 18 31 40
f 15 30 16
f 10 19 20
f 7 35 34
f 10 17 18
f 3 5 9
f 2 9 5
f 2 6 9
f 1 6 2
f 1 4 6
f 1 8 4
f 1 14 8
f 1 17 14
f 1 31 17
f 1 40 31
f 1 29 39
f 1 13 29
f 1 7 13
f 1 3 7
f 1 5 3
f 1 2 5
f 10 18 19
f 3 9 16
f 3 16 30
f 1 39 40
f 3 27 12
f 9 15 16
f 3 30 27
f 8 14 10
f 7 28 13
f 7 38 28
f 7 34 42
f 7 36 35
f 7 37 36
f 7 42 38
f 7 12 26
f 6 15 9
f 6 11 15
f 6 10 11
f 6 8 10
f 7 26 37
f 3 12 7
f 4 8 6

