# https://github.com/mikedh/trimesh
v -0.34142900 -0.21872200 0.21432800
v -0.39293600 -0.21872200 0.21432800
v -0.34142900 -0.23219500 0.21432800
v -0.34142900 -0.21872200 -0.21421500
v -0.39293600 -0.23219500 0.21432800
v -0.51795600 -0.21872200 0.19645800
v -0.34142900 -0.30362100 0.19645800
v -0.34142900 -0.31260700 -0.21421500
v -0.56734100 -0.21872200 -0.21421500
v -0.51795600 -0.30362100 0.19645800
v -0.56734100 -0.21872200 0.17858800
v -0.34142900 -0.31553600 0.19050100
v -0.37318700 -0.32325800 -0.21421500
v -0.34142900 -0.32148700 -0.19642900
v -0.56734100 -0.24459300 -0.21421500
v -0.56734100 -0.30362100 0.17858800
v -0.52686900 -0.31256000 0.19196900
v -0.51795600 -0.31553600 0.19050100
v -0.34142900 -0.32148700 0.17858800
v -0.39061400 -0.32370700 -0.21421500
v -0.34142900 -0.33934100 -0.12499100
v -0.56596900 -0.24571500 -0.21421500
v -0.56734100 -0.33338900 -0.11903400
v -0.56734100 -0.31553600 0.17263100
v -0.51795600 -0.32148700 0.17858800
v -0.34142900 -0.33934100 0.05354040
v -0.39072500 -0.32370700 -0.21421500
v -0.42867500 -0.33934100 -0.12499100
v -0.56734100 -0.33514900 -0.11555300
v -0.56734100 -0.32148700 0.16071800
v -0.56734100 -0.33934100 0.05354040
v -0.56734100 -0.33934100 -0.10716300
f 13 21 20
f 13 14 21
f 12 25 19
f 12 18 25
f 10 17 18
f 9 30 24
f 9 16 11
f 9 24 16
f 15 22 23
f 27 32 29
f 9 32 31
f 10 16 17
f 16 24 17
f 19 31 26
f 18 24 30
f 18 30 25
f 19 25 31
f 20 21 28
f 20 28 27
f 21 26 31
f 21 31 32
f 21 32 28
f 22 27 23
f 23 27 29
f 25 30 31
f 27 28 32
f 9 29 32
f 17 24 18
f 9 23 29
f 9 31 30
f 8 14 13
f 9 15 23
f 1 2 5
f 1 5 3
f 1 3 7
f 1 7 12
f 1 12 19
f 1 26 21
f 1 21 14
f 1 14 8
f 1 8 4
f 1 4 9
f 1 9 11
f 1 11 6
f 1 6 2
f 1 19 26
f 2 10 5
f 7 18 12
f 2 6 10
f 7 10 18
f 6 16 10
f 4 15 9
f 4 22 15
f 6 11 16
f 4 27 22
f 4 20 27
f 4 13 20
f 4 8 13
f 3 10 7
f 3 5 10

