# https://github.com/mikedh/trimesh
v -0.34142100 -0.11596800 0.22226200
v -0.39294400 -0.11596800 0.21430200
v -0.39294400 -0.16364000 0.21430200
v -0.34142100 -0.16364000 0.21430200
v -0.34142100 -0.11596800 -0.31988900
v -0.48032700 -0.11596800 0.19641800
v -0.48032700 -0.16364000 0.19641800
v -0.34142100 -0.16364000 -0.31988900
v -0.36694500 -0.11596800 -0.31988900
v -0.48032700 -0.11596800 -0.13489100
v -0.48032700 -0.16364000 -0.13871200
v -0.37054800 -0.16364000 -0.31988900
v -0.37220700 -0.16364000 -0.31856300
f 3 13 12
f 3 12 8
f 3 8 4
f 5 8 12
f 10 13 11
f 6 10 11
f 6 11 7
f 9 12 13
f 9 13 10
f 5 12 9
f 3 11 13
f 2 7 3
f 2 6 7
f 1 6 2
f 1 10 6
f 1 9 10
f 1 5 9
f 1 8 5
f 1 4 8
f 1 3 4
f 1 2 3
f 3 7 11

