# https://github.com/mikedh/trimesh
v -0.44678000 -0.11596800 -0.16951900
v -0.59015300 -0.11596800 -0.12941600
v -0.44063200 -0.11594800 -0.17262600
v -0.44063200 -0.11596800 -0.09899500
v -0.59015300 0.08564070 -0.12540500
v -0.44063200 0.08564070 -0.17262600
v -0.59015300 -0.11596800 0.17858300
v -0.44063200 -0.11596800 0.19646700
v -0.59015300 0.08564070 0.17858300
v -0.44063200 0.08564070 0.19646700
v -0.51795400 -0.11596800 0.19646700
v -0.51795400 0.08564070 0.19646700
f 3 8 4
f 5 9 12
f 8 12 11
f 5 12 10
f 3 10 8
f 7 11 12
f 7 12 9
f 8 10 12
f 5 10 6
f 3 6 10
f 1 7 2
f 2 7 9
f 1 2 3
f 1 3 4
f 1 4 8
f 2 9 5
f 1 11 7
f 2 5 6
f 2 6 3
f 1 8 11

