# https://github.com/mikedh/trimesh
v -0.34140700 0.20505000 0.21432800
v -0.39295600 0.20505000 0.21432800
v -0.34140700 0.14712300 0.21432800
v -0.34140700 0.20505000 -0.37455400
v -0.39295600 0.14712300 0.21432800
v -0.51798300 0.20505000 0.19644700
v -0.34140700 0.14712300 -0.37501800
v -0.34140700 0.19441100 -0.37501800
v -0.52156000 0.20505000 -0.46223800
v -0.51798300 0.14712300 0.19644700
v -0.70686400 0.20505000 0.16068500
v -0.37510500 0.14712300 -0.37501800
v -0.52245400 0.18753300 -0.45541600
v -0.52685400 0.18753300 -0.45541600
v -0.53247100 0.20505000 -0.46104600
v -0.70686400 0.14712300 0.16068500
v -0.70686400 0.20505000 -0.28289800
v -0.44654400 0.14712300 -0.35720300
v -0.53282800 0.18157800 -0.44349600
v -0.54177200 0.19051000 -0.45243600
v -0.55794100 0.20505000 -0.45078100
v -0.70686400 0.14712300 -0.28574500
v -0.58037100 0.20505000 -0.43746900
v -0.70686400 0.19646400 -0.28574500
v -0.51798300 0.14712300 -0.33932200
v -0.55364800 0.17860100 -0.42859500
v -0.58938600 0.14712300 -0.32144100
v -0.57747300 0.19051000 -0.43455500
v -0.56853000 0.18157800 -0.42561500
f 14 19 20
f 14 20 15
f 12 19 14
f 12 18 19
f 11 22 16
f 11 17 24
f 9 14 15
f 9 13 14
f 15 20 21
f 7 9 8
f 11 24 22
f 17 23 24
f 22 24 23
f 19 26 29
f 19 29 28
f 19 28 20
f 19 25 27
f 19 27 26
f 20 28 21
f 22 23 28
f 22 28 29
f 22 29 26
f 22 26 27
f 7 13 9
f 18 25 19
f 7 14 13
f 21 28 23
f 6 16 10
f 1 2 5
f 1 5 3
f 1 3 7
f 1 7 8
f 1 8 4
f 7 12 14
f 1 4 9
f 1 15 21
f 1 21 23
f 1 23 17
f 1 17 11
f 1 11 6
f 1 9 15
f 2 6 10
f 1 6 2
f 4 8 9
f 3 12 7
f 3 18 12
f 3 25 18
f 3 27 25
f 6 11 16
f 3 16 22
f 3 10 16
f 3 5 10
f 2 10 5
f 3 22 27

