# https://github.com/mikedh/trimesh
v 0.22887300 -0.60348800 -0.09364750
v -0.20807100 -0.63471200 -0.08323400
v -0.22887300 -0.60348800 -0.09364750
v -0.18728800 -0.69220400 -0.06242390
v 0.18728800 -0.69220400 -0.06242390
v 0.19422700 -0.69220400 0.05895070
v 0.19769700 -0.69220400 0.05202010
v 0.23407400 -0.61130400 0.07802730
v 0.23580700 -0.60695800 0.07976900
v 0.23932100 -0.60348800 0.07282060
v 0.23580700 -0.61042700 0.07282060
v 0.23932100 -0.60348800 -0.08323400
v 0.23932100 0.91558800 -0.08323400
v 0.23669800 -0.60869200 -0.08844070
v 0.19769700 -0.69220400 -0.05201520
v 0.19422700 -0.69220400 -0.05895870
v 0.23234000 -0.61042700 -0.09016410
v 0.23580700 -0.60348800 -0.09016410
v 0.23580700 -0.45794300 -0.09016410
v 0.23407400 0.92085200 -0.09104410
v 0.22887300 0.91558800 -0.09364750
v 0.20807100 0.93636700 -0.09364750
v 0.21327100 0.94163100 -0.09104410
v 0.21500500 0.94329400 -0.08669910
v 0.19246900 0.95202100 -0.09104410
v 0.18726800 0.94675700 -0.09364750
v -0.18726800 0.94675700 -0.09364750
v -0.20807100 0.93636700 -0.09364750
v -0.21847200 0.93775300 -0.09104410
v -0.19767000 0.94814200 -0.09104410
v -0.18726800 0.95368300 -0.09016410
v -0.19246900 0.95465300 -0.08844070
v 0.18726800 0.95368300 -0.09016410
v 0.18726800 0.95728500 -0.08323400
v -0.18726800 0.95728500 -0.08323400
v -0.21327100 0.94426300 -0.08844070
v -0.22193900 0.93983100 -0.08323400
v -0.22887300 0.92736300 -0.09104410
v -0.23234000 0.92944100 -0.08323400
v -0.23407400 0.92334600 -0.08844070
v -0.23580700 0.91905100 -0.09016410
v -0.22887300 0.91558800 -0.09364750
v -0.23580700 -0.60001900 -0.09016410
v -0.23932100 -0.60348800 -0.08323400
v -0.23407400 -0.60869200 -0.08844070
v -0.19422700 -0.69220400 -0.05895870
v -0.19769700 -0.69220400 -0.05201520
v -0.23932100 -0.60348800 0.07282060
v -0.23932100 0.91558800 -0.08323400
v -0.23669800 0.92085200 0.08844070
v -0.23234000 0.92944100 0.08323400
v -0.23018500 0.92597800 0.09104410
v -0.23580700 0.91558800 0.09016410
v -0.23669800 -0.54628100 0.08844070
v -0.23932100 0.91558800 0.08323400
v -0.23932100 -0.43700700 0.08323400
v -0.23580700 -0.60348800 0.07976900
v -0.23407400 -0.60869200 0.08063070
v -0.23407400 -0.54628100 0.09104410
v -0.23580700 -0.43700700 0.09016410
v -0.22887300 0.91558800 0.09364750
v -0.20807100 0.93636700 0.09364750
v -0.21978400 0.93636700 0.09104410
v -0.22193900 0.93983100 0.08323400
v -0.21589500 0.94163100 0.08844070
v -0.18726800 0.95728500 0.08323400
v -0.19073600 0.95368300 0.09016410
v -0.21153800 0.94329400 0.09016410
v -0.18726800 0.94675700 0.09364750
v 0.18380100 0.95368300 0.09016410
v 0.18726800 0.95728500 0.08323400
v 0.22193900 0.93983100 0.08669910
v 0.22193900 0.93983100 -0.07976900
v 0.23234000 0.92944100 -0.07976900
v 0.23234000 0.92944100 0.08669910
v 0.23580700 0.92251400 -0.08669910
v 0.23580700 0.91558800 -0.09016410
v 0.23932100 0.91558800 0.08323400
v 0.23932100 -0.54107700 0.08323400
v 0.23580700 -0.54454600 0.09016410
v 0.22887300 -0.54107700 0.09364750
v 0.23580700 0.91212500 0.09016410
v 0.22714000 0.92431500 0.09190580
v 0.22887300 0.91558800 0.09364750
v 0.21673800 0.93470500 0.09190580
v 0.19246900 0.95202100 0.08844070
v 0.18726800 0.94675700 0.09364750
v 0.20807100 0.93636700 0.09364750
v 0.20113700 0.95022000 0.08669910
v -0.22887300 -0.43700700 0.09364750
v -0.11441300 -0.58269100 0.09364750
v 0.17686700 -0.56187500 0.09364750
v 0.22887300 -0.60348800 0.08323400
v 0.07280840 -0.59438600 0.09104410
v -0.06414070 -0.59483300 0.09190580
v -0.06760780 -0.59830300 0.09104410
v 0.06240720 -0.60001900 0.09016410
v 0.18728800 -0.69220400 0.06242880
v -0.18728800 -0.69220400 0.06242880
v -0.22887300 -0.60348800 0.08323400
v -0.19422700 -0.69220400 0.05895070
v -0.19769700 -0.69220400 0.05202010
v -0.23580700 -0.61042700 0.07630400
v -0.22020600 -0.54281200 0.09190580
v 0.19420300 0.95368300 -0.08669910
v 0.20807100 -0.63471200 -0.08323400
f 83 85 84
f 83 84 82
f 83 82 75
f 75 82 78
f 80 82 81
f 80 9 79
f 80 78 82
f 80 81 9
f 83 75 85
f 80 79 78
f 85 75 72
f 69 61 87
f 85 86 87
f 88 85 87
f 88 84 85
f 88 87 84
f 84 87 81
f 82 84 81
f 87 61 81
f 62 61 69
f 79 9 10
f 70 69 87
f 85 72 86
f 79 10 78
f 36 37 64
f 13 75 78
f 70 87 86
f 35 66 34
f 35 36 66
f 66 36 64
f 39 64 37
f 51 64 39
f 51 52 64
f 72 34 71
f 73 34 72
f 73 24 34
f 13 78 10
f 73 74 24
f 75 74 72
f 13 74 75
f 13 76 74
f 13 20 76
f 77 20 13
f 77 19 20
f 77 14 19
f 77 13 14
f 24 76 20
f 24 74 76
f 73 72 74
f 70 86 71
f 105 25 34
f 89 72 71
f 46 4 47
f 98 4 6
f 9 98 6
f 9 93 98
f 9 81 93
f 97 98 93
f 97 93 94
f 97 94 95
f 58 57 48
f 104 59 91
f 47 4 98
f 104 90 59
f 59 90 61
f 105 34 24
f 66 71 34
f 105 24 25
f 33 34 25
f 31 33 25
f 31 25 27
f 28 1 3
f 21 1 28
f 106 1 5
f 104 91 90
f 99 47 98
f 102 47 99
f 102 48 47
f 89 86 72
f 90 81 61
f 91 81 90
f 92 81 91
f 92 93 81
f 92 94 93
f 92 91 94
f 91 95 94
f 96 95 91
f 96 97 95
f 96 98 97
f 96 99 98
f 96 91 99
f 91 100 99
f 59 100 91
f 59 58 100
f 58 99 100
f 101 99 58
f 101 102 99
f 101 103 102
f 101 58 103
f 103 58 48
f 103 48 102
f 89 71 86
f 66 70 71
f 43 41 3
f 67 69 70
f 18 1 20
f 21 20 1
f 22 20 21
f 23 20 22
f 23 24 20
f 23 25 24
f 23 22 25
f 26 25 22
f 26 27 25
f 26 22 27
f 18 20 19
f 22 21 27
f 29 27 28
f 30 27 29
f 30 31 27
f 32 31 30
f 32 33 31
f 32 34 33
f 32 35 34
f 32 36 35
f 32 30 36
f 30 29 36
f 27 21 28
f 29 37 36
f 18 19 14
f 17 1 14
f 2 3 1
f 2 4 3
f 5 4 2
f 5 6 4
f 7 6 5
f 8 6 7
f 8 9 6
f 8 10 9
f 8 11 10
f 8 7 11
f 18 14 1
f 7 10 11
f 12 13 10
f 12 14 13
f 15 14 12
f 16 14 15
f 16 17 14
f 16 5 17
f 16 15 5
f 15 7 5
f 15 12 7
f 17 5 1
f 12 10 7
f 38 37 29
f 38 39 37
f 40 39 38
f 56 55 48
f 56 54 55
f 56 48 54
f 57 54 48
f 58 54 57
f 59 54 58
f 59 60 54
f 53 60 59
f 53 54 60
f 53 59 61
f 55 49 48
f 53 61 52
f 63 52 62
f 63 64 52
f 65 64 63
f 65 66 64
f 65 67 66
f 65 68 67
f 65 63 68
f 63 62 68
f 68 62 69
f 67 68 69
f 62 52 61
f 50 49 55
f 50 55 54
f 50 54 53
f 40 41 39
f 40 38 41
f 38 42 41
f 38 29 42
f 29 28 42
f 42 28 3
f 42 3 41
f 106 2 1
f 43 44 41
f 43 45 44
f 43 3 45
f 45 3 4
f 45 4 46
f 45 46 47
f 45 47 44
f 44 47 48
f 44 48 49
f 44 49 41
f 39 41 49
f 50 39 49
f 50 51 39
f 50 52 51
f 50 53 52
f 67 70 66
f 106 5 2

