o convex_0
v 0.409511 0.241976 0.837476
v 0.403258 0.254374 0.831274
v 0.400131 0.251262 0.846863
v 0.403258 0.235752 0.84988
v 0.409511 -0.241976 0.837476
v 0.409511 0.241976 -0.837476
v 0.390831 0.260598 0.837476
v 0.403258 0.254374 -0.843678
v 0.384658 0.254374 0.84988
v 0.390831 0.241976 0.85625
v 0.403258 -0.24815 0.84988
v 0.400131 -0.255904 0.846863
v 0.403258 -0.254374 0.837476
v 0.409511 -0.241976 -0.837476
v 0.404781 -0.251262 -0.846863
v 0.403258 0.241976 -0.84988
v 0.400131 0.251262 -0.851557
v -0.390831 0.260598 0.837476
v 0.390831 0.260598 -0.837476
v -0.397085 0.254374 0.84988
v 0.390831 -0.241976 0.85625
v -0.390831 0.241976 0.85625
v -0.390831 -0.254374 0.84988
v -0.390831 -0.260598 0.837476
v 0.390831 -0.260598 0.837476
v 0.390831 -0.254374 0.84988
v 0.403258 -0.254374 -0.837476
v 0.397085 -0.254374 -0.84988
v 0.390831 -0.241976 -0.85625
v 0.403258 -0.241976 -0.84988
v -0.390831 0.254374 -0.84988
v 0.390831 0.254374 -0.84988
v 0.390831 0.241976 -0.85625
v -0.390831 0.241976 -0.85625
v -0.403258 0.254374 0.837476
v -0.390831 0.260598 -0.837476
v -0.400131 0.255904 -0.846863
v -0.404781 0.251262 0.846863
v -0.390831 -0.241976 0.85625
v -0.400131 -0.251262 0.851557
v -0.403258 0.241976 0.84988
v -0.403258 -0.254374 0.843678
v -0.390831 -0.260598 -0.837476
v 0.390831 -0.260598 -0.837476
v -0.384658 -0.254374 -0.84988
v -0.390831 -0.241976 -0.85625
v -0.403258 0.24815 -0.84988
v -0.409511 0.241976 0.837476
v -0.403258 0.254374 -0.837476
v -0.409511 0.241976 -0.837476
v -0.403258 -0.241976 0.84988
v -0.409511 -0.241976 0.837476
v -0.403258 -0.254374 -0.831274
v -0.400131 -0.251262 -0.846863
v -0.403258 -0.235752 -0.84988
v -0.409511 -0.241976 -0.837476
f 1 2 3
f 1 3 4
f 1 4 11
f 1 11 5
f 1 5 14
f 1 14 6
f 1 6 8
f 1 8 2
f 2 7 3
f 2 8 19
f 2 19 7
f 3 7 9
f 3 9 10
f 3 10 4
f 4 10 21
f 4 21 11
f 5 11 12
f 5 12 13
f 5 13 27
f 5 27 14
f 6 14 15
f 6 15 16
f 6 16 17
f 6 17 8
f 7 18 20
f 7 20 9
f 7 19 36
f 7 36 18
f 8 17 19
f 9 20 22
f 9 22 10
f 10 22 39
f 10 39 21
f 11 21 12
f 12 23 24
f 12 24 25
f 12 25 13
f 12 21 26
f 12 26 23
f 13 25 44
f 13 44 27
f 14 27 15
f 15 28 29
f 15 29 30
f 15 30 16
f 15 27 28
f 16 30 17
f 17 31 32
f 17 32 19
f 17 30 29
f 17 29 33
f 17 33 34
f 17 34 31
f 18 35 20
f 18 36 49
f 18 49 35
f 19 32 37
f 19 37 36
f 20 35 38
f 20 38 22
f 21 39 40
f 21 40 26
f 22 38 41
f 22 41 40
f 22 40 39
f 23 26 40
f 23 40 24
f 24 40 42
f 24 42 53
f 24 53 43
f 24 43 44
f 24 44 25
f 27 44 28
f 28 44 43
f 28 43 45
f 28 45 46
f 28 46 29
f 29 46 34
f 29 34 33
f 31 37 32
f 31 34 37
f 34 47 37
f 34 46 55
f 34 55 47
f 35 48 38
f 35 49 50
f 35 50 48
f 36 37 49
f 37 50 49
f 37 47 50
f 38 51 41
f 38 48 52
f 38 52 51
f 40 41 51
f 40 51 52
f 40 52 42
f 42 52 56
f 42 56 53
f 43 53 54
f 43 54 45
f 45 54 46
f 46 54 55
f 47 55 56
f 47 56 50
f 48 50 56
f 48 56 52
f 53 56 54
f 54 56 55
