# https://github.com/mikedh/trimesh
v 0.26183300 -0.04439560 -0.06321570
v 0.25194800 -0.04439560 0.02124800
v 0.27293000 -0.10497100 0.02099160
v 0.25239500 -0.14719400 -0.06321570
v 0.12551800 -0.04439560 -0.06321570
v 0.25194800 -0.06270330 0.02128100
v 0.27288700 -0.10502600 0.02128100
v 0.21483100 -0.04439560 0.02128100
v 0.26513800 -0.12625900 0.02128100
v 0.25236600 -0.14668400 0.02128100
v 0.25203400 -0.14706100 0.02128100
v 0.25194800 -0.14757000 -0.06321570
v 0.12551800 -0.06344580 -0.06321570
v 0.20995300 -0.04439560 0.02128100
v 0.25180300 -0.14724900 0.02128100
v 0.25137000 -0.14753700 0.02128100
v 0.23122500 -0.15761100 0.02128100
v 0.22249400 -0.15541700 0.02128100
v 0.25148600 -0.14742600 -0.06321570
v 0.14651500 -0.08444650 -0.06321570
v 0.21666400 -0.14668400 0.02128100
v 0.21024200 -0.12740100 0.02128100
v 0.20995300 -0.12597100 0.02128100
v 0.20949200 -0.12642600 -0.06321570
f 6 21 18
f 6 9 7
f 6 18 17
f 6 17 16
f 6 16 15
f 6 15 11
f 6 11 10
f 6 10 9
f 11 15 12
f 13 22 23
f 12 16 17
f 12 17 18
f 12 18 19
f 13 20 18
f 13 18 21
f 13 21 22
f 18 20 24
f 18 24 19
f 6 22 21
f 12 15 16
f 6 23 22
f 6 14 23
f 1 12 19
f 6 8 14
f 1 2 3
f 1 3 4
f 1 4 12
f 1 19 24
f 1 24 20
f 1 20 13
f 1 13 5
f 1 14 8
f 1 8 2
f 1 5 14
f 2 7 3
f 2 8 6
f 3 7 9
f 3 9 4
f 4 9 10
f 4 10 11
f 4 11 12
f 5 13 23
f 5 23 14
f 2 6 7

