# https://github.com/mikedh/trimesh
v -0.23103600 0.25722100 -0.05769690
v -0.23103600 0.23359500 -0.05769690
v -0.16795600 0.25193400 -0.06300640
v -0.18895100 0.27291700 -0.06300640
v -0.23103600 0.29317200 -0.06804210
v -0.16795600 0.16793900 -0.06300640
v -0.23103600 0.08391050 -0.06296430
v -0.20994500 0.10499200 -0.06300640
v -0.06605330 0.29317200 -0.08399180
v -0.23103600 0.29317200 -0.25162200
v -0.06605330 0.08093660 -0.08399180
v -0.23103600 0.06044990 -0.06816850
v -0.06605330 -0.04439560 -0.10499800
v -0.08399540 0.06299430 -0.08399180
v -0.06605330 0.29317200 -0.25193800
v -0.23079400 0.29317200 -0.25179100
v -0.23103600 0.10492600 -0.25193800
v -0.23103600 0.00001425 -0.08397080
v -0.23103600 -0.00008488 -0.08401290
v -0.23103600 -0.04439560 -0.10499800
v -0.06605330 -0.04439560 -0.25737400
v -0.20994500 0.29317200 -0.25193800
v -0.06605330 -0.02404110 -0.26211500
v -0.07349820 -0.03147580 -0.26767700
v -0.10499000 -0.04198340 -0.27294500
v -0.23103600 -0.04439560 -0.25193800
v -0.08166980 -0.04439560 -0.26738200
v -0.08407610 -0.04439560 -0.26828800
v -0.10499000 -0.04439560 -0.27294500
f 13 26 29
f 13 20 26
f 13 19 20
f 12 18 13
f 9 21 23
f 10 16 17
f 9 23 15
f 9 13 21
f 13 29 28
f 11 14 13
f 13 28 27
f 24 28 29
f 15 23 24
f 15 24 25
f 15 25 22
f 16 22 25
f 16 25 17
f 17 25 29
f 17 29 26
f 21 27 24
f 21 24 23
f 24 27 28
f 24 29 25
f 9 11 13
f 13 27 21
f 7 11 8
f 13 18 19
f 7 13 14
f 7 14 11
f 1 2 6
f 1 6 3
f 1 3 4
f 1 4 5
f 1 5 10
f 1 17 26
f 1 26 20
f 1 20 19
f 1 19 18
f 1 18 12
f 1 12 7
f 1 10 17
f 2 7 8
f 7 12 13
f 1 7 2
f 6 8 11
f 5 16 10
f 5 22 16
f 5 9 15
f 5 15 22
f 4 9 5
f 3 11 9
f 3 6 11
f 3 9 4
f 2 8 6

