# https://github.com/mikedh/trimesh
v 0.23096500 -0.88178900 0.02099570
v 0.13302500 -0.88178900 0.02099570
v 0.20996100 -0.90280800 0.02099570
v 0.23096500 -0.90539000 0.01573240
v 0.24496800 -0.88881500 0.01399580
v 0.29392500 -0.83981100 -0.00000412
v 0.29392500 -0.79783300 -0.00000412
v 0.33590700 -0.46195100 -0.06300370
v 0.33590700 -0.35229300 -0.08400360
v 0.13302500 -0.92376700 0.02099570
v 0.20996100 -0.35229300 -0.08400360
v 0.13302500 -0.53894100 -0.05603050
v 0.14697600 -0.92376700 0.02099570
v 0.20996100 -0.91680000 0.01399580
v 0.22047600 -0.91854200 0.01049580
v 0.24145400 -0.90803300 0.01049580
v 0.30441400 -0.86605500 -0.01050400
v 0.30792800 -0.84677700 -0.00700407
v 0.32193100 -0.79080700 -0.01400400
v 0.33590700 -0.71381800 -0.02100400
v 0.35691100 -0.37793600 -0.08400360
v 0.36154400 -0.35229300 -0.09156460
v 0.13302500 -0.93307500 0.01634690
v 0.13302500 -0.35229300 -0.10500300
v 0.14697600 -0.93775900 0.01399580
v 0.15749100 -0.93950100 0.01049580
v 0.20996100 -0.93163400 -0.00000412
v 0.26245800 -0.90803300 -0.01050400
v 0.30967200 -0.86341200 -0.02100400
v 0.32893200 -0.82581900 -0.02800390
v 0.34642200 -0.78203900 -0.03150390
v 0.30092700 -0.88881500 -0.04200380
v 0.32193100 -0.81182600 -0.01400400
v 0.34991000 -0.76282200 -0.02800390
v 0.34991000 -0.72084400 -0.02800390
v 0.36042500 -0.68931600 -0.03850390
v 0.34642200 -0.68235000 -0.03150390
v 0.35691100 -0.50392900 -0.06300370
v 0.36740000 -0.35229300 -0.09450350
v 0.36740000 -0.47246100 -0.07350360
v 0.13302500 -0.93775900 0.01399580
v 0.13302500 -0.35229300 -0.25194900
v 0.13302500 -0.94244400 0.00469814
v 0.14697600 -0.94478600 -0.00000412
v 0.16798000 -0.96580500 -0.04200380
v 0.17846900 -0.96052000 -0.03150390
v 0.18898400 -0.95265300 -0.02100400
v 0.25196900 -0.93163400 -0.04200380
v 0.26245800 -0.91854200 -0.03150390
v 0.27992300 -0.90977400 -0.04200380
v 0.33067600 -0.84245400 -0.06300370
v 0.35165400 -0.82143500 -0.10500300
v 0.33590700 -0.81879200 -0.04200380
v 0.35165400 -0.77945700 -0.04200380
v 0.28343600 -0.91854200 -0.09450350
v 0.30441400 -0.89752300 -0.09450350
v 0.30792800 -0.89578200 -0.10500300
v 0.32193100 -0.86779600 -0.08400360
v 0.35691100 -0.75579600 -0.04200380
v 0.37791500 -0.69285900 -0.06300370
v 0.37091400 -0.69982500 -0.04900380
v 0.37091400 -0.65790800 -0.04900380
v 0.38491700 -0.51792200 -0.07700360
v 0.37034100 -0.35229300 -0.10035500
v 0.37091400 -0.38496200 -0.09100350
v 0.38491700 -0.43396600 -0.09800350
v 0.37791500 -0.37793600 -0.10500300
v 0.35691100 -0.35229300 -0.25194900
v 0.13302500 -0.39895500 -0.25194900
v 0.13302500 -0.96580500 -0.04200380
v 0.18898400 -0.96580500 -0.06300370
v 0.19947300 -0.96052000 -0.05250380
v 0.20996100 -0.95265300 -0.04200380
v 0.24145400 -0.93950100 -0.05250380
v 0.25897100 -0.93079300 -0.06300370
v 0.34290900 -0.84677700 -0.12595000
v 0.35691100 -0.81879200 -0.12595000
v 0.37265800 -0.75843800 -0.10500300
v 0.37265800 -0.71646000 -0.06300370
v 0.27555000 -0.91854200 -0.10500300
v 0.27817900 -0.91325700 -0.11547700
v 0.29918300 -0.89229800 -0.13645000
v 0.30967200 -0.89229800 -0.11547700
v 0.25897100 -0.93079300 -0.08400360
v 0.18898400 -0.96580500 -0.08400360
v 0.23359400 -0.93950100 -0.10500300
v 0.23622300 -0.93427600 -0.11547700
v 0.37791500 -0.75579600 -0.12595000
v 0.39891900 -0.62992200 -0.14695000
v 0.39891900 -0.56692600 -0.10500300
v 0.39891900 -0.52494800 -0.10500300
v 0.39891900 -0.44093300 -0.12595000
v 0.37791500 -0.35229300 -0.12595000
v 0.37091400 -0.35229300 -0.24494900
v 0.35691100 -0.41997400 -0.25194900
v 0.27292100 -0.41997400 -0.25194900
v 0.13302500 -0.58788500 -0.23094900
v 0.13302500 -0.96580500 -0.08400360
v 0.34116500 -0.82930200 -0.15745000
v 0.35165400 -0.82930200 -0.13645000
v 0.37791500 -0.75579600 -0.14695000
v 0.27992300 -0.89578200 -0.13995000
v 0.32193100 -0.83278500 -0.16095000
v 0.19598500 -0.95877800 -0.09800350
v 0.21696300 -0.93775900 -0.11895000
v 0.39891900 -0.62992200 -0.16795000
v 0.39891900 -0.41997400 -0.14695000
v 0.37791500 -0.35229300 -0.23094900
v 0.38491700 -0.44093300 -0.23794900
v 0.37091400 -0.44093300 -0.24494900
v 0.37791500 -0.56692600 -0.23094900
v 0.20996100 -0.58788500 -0.23094900
v 0.13302500 -0.75579600 -0.18894900
v 0.13302500 -0.95175200 -0.11200300
v 0.33853600 -0.81879200 -0.16271300
v 0.36216900 -0.76630500 -0.17844900
v 0.37265800 -0.74534600 -0.17844900
v 0.37265800 -0.76630500 -0.15745000
v 0.37791500 -0.73483700 -0.16795000
v 0.18198200 -0.95175200 -0.11200300
v 0.27292100 -0.88178900 -0.14695000
v 0.31492900 -0.81879200 -0.16795000
v 0.34290900 -0.76978800 -0.18194900
v 0.35954000 -0.75579600 -0.18371300
v 0.39891900 -0.60890400 -0.18894900
v 0.39891900 -0.41997400 -0.18894900
v 0.39891900 -0.44093300 -0.20994900
v 0.39191800 -0.56692600 -0.22394900
v 0.39366200 -0.57743500 -0.22044900
v 0.38491700 -0.58091800 -0.22394900
v 0.35691100 -0.67184000 -0.20994900
v 0.33590700 -0.75579600 -0.18894900
v 0.13302500 -0.88178900 -0.14695000
v 0.39366200 -0.61941300 -0.19944900
v 0.36391300 -0.68583300 -0.20294900
v 0.37265800 -0.68235000 -0.19944900
v 0.39891900 -0.56692600 -0.20994900
f 76 99 100
f 77 100 118
f 76 82 99
f 76 83 82
f 76 100 77
f 72 75 74
f 89 106 125
f 71 84 75
f 71 85 84
f 69 96 97
f 68 110 95
f 68 109 110
f 77 118 101
f 71 75 72
f 77 101 88
f 86 104 87
f 80 87 81
f 81 87 82
f 82 87 102
f 82 102 103
f 82 103 99
f 85 98 114
f 85 114 120
f 85 120 104
f 85 104 86
f 68 94 109
f 87 104 105
f 87 105 102
f 88 101 106
f 88 106 89
f 78 88 79
f 67 92 93
f 60 79 88
f 64 67 93
f 52 76 77
f 52 77 88
f 52 88 78
f 52 78 54
f 52 54 53
f 54 78 79
f 54 79 60
f 54 60 59
f 55 80 81
f 55 81 82
f 55 82 83
f 55 83 57
f 55 57 56
f 55 75 84
f 66 92 67
f 55 84 85
f 55 86 87
f 51 76 52
f 55 87 80
f 57 83 76
f 57 76 58
f 60 88 89
f 60 89 90
f 60 90 91
f 60 91 63
f 60 63 62
f 60 62 61
f 63 91 92
f 63 92 66
f 63 66 65
f 55 85 86
f 89 125 137
f 117 124 129
f 89 127 126
f 108 126 127
f 109 127 137
f 109 137 128
f 109 128 111
f 109 111 110
f 111 128 129
f 111 129 130
f 111 130 135
f 111 135 131
f 111 131 112
f 113 132 122
f 113 122 121
f 113 121 133
f 114 133 121
f 106 119 125
f 114 121 120
f 51 58 76
f 117 129 134
f 117 134 125
f 117 125 119
f 123 132 124
f 124 132 131
f 124 131 135
f 124 135 136
f 124 136 129
f 125 134 129
f 125 129 137
f 128 137 129
f 129 136 135
f 129 135 130
f 116 124 117
f 104 120 105
f 103 124 115
f 103 123 124
f 89 126 107
f 89 107 92
f 89 92 91
f 89 91 90
f 92 107 93
f 93 107 126
f 93 126 108
f 94 108 127
f 94 127 109
f 95 110 111
f 95 111 112
f 95 112 97
f 95 97 96
f 97 112 131
f 97 131 132
f 97 132 113
f 99 103 115
f 103 132 123
f 103 122 132
f 102 122 103
f 102 121 122
f 102 120 121
f 102 105 120
f 89 137 127
f 101 119 106
f 101 118 117
f 100 117 118
f 99 117 100
f 99 116 117
f 99 124 116
f 99 115 124
f 101 117 119
f 50 75 55
f 39 66 67
f 48 75 50
f 6 18 33
f 6 33 19
f 6 19 7
f 7 19 20
f 7 20 8
f 8 21 9
f 8 20 21
f 9 22 39
f 9 39 64
f 9 64 93
f 9 93 108
f 9 108 94
f 9 94 68
f 9 68 42
f 5 18 6
f 9 42 24
f 9 21 22
f 10 23 13
f 11 24 12
f 13 23 25
f 14 25 26
f 14 26 15
f 15 26 27
f 15 27 16
f 16 27 48
f 16 48 28
f 16 28 17
f 17 29 30
f 17 30 31
f 17 31 18
f 9 24 11
f 17 28 32
f 48 50 49
f 4 16 5
f 1 2 10
f 1 10 13
f 1 13 3
f 1 3 4
f 1 4 5
f 1 5 6
f 1 6 7
f 1 7 8
f 1 8 9
f 1 9 11
f 1 11 2
f 2 11 12
f 2 12 24
f 2 24 42
f 5 16 17
f 2 42 69
f 2 97 113
f 2 113 133
f 2 133 114
f 2 114 98
f 2 98 70
f 2 70 43
f 2 43 41
f 2 41 23
f 2 23 10
f 3 13 25
f 3 25 14
f 3 14 4
f 4 14 15
f 4 15 16
f 2 69 97
f 17 32 29
f 5 17 18
f 18 34 33
f 34 54 59
f 34 59 60
f 34 60 61
f 34 61 36
f 34 36 35
f 36 61 62
f 36 62 63
f 36 63 38
f 36 38 37
f 38 63 40
f 39 40 65
f 39 67 64
f 40 63 65
f 42 68 95
f 32 58 51
f 42 95 96
f 43 70 45
f 43 45 44
f 45 70 98
f 45 98 85
f 45 85 71
f 45 71 72
f 45 72 46
f 46 72 47
f 47 72 73
f 47 73 48
f 48 73 72
f 48 72 74
f 48 74 75
f 18 31 34
f 42 96 69
f 32 57 58
f 39 65 66
f 32 55 56
f 19 35 20
f 19 33 34
f 32 56 57
f 20 35 36
f 20 36 37
f 20 37 38
f 20 38 21
f 21 39 22
f 21 38 40
f 21 40 39
f 23 41 25
f 25 41 43
f 25 43 44
f 25 44 26
f 26 44 45
f 19 34 35
f 26 46 47
f 26 45 46
f 32 50 55
f 30 54 31
f 30 53 54
f 30 52 53
f 30 51 52
f 29 32 51
f 31 54 34
f 28 50 32
f 28 49 50
f 28 48 49
f 27 47 48
f 26 47 27
f 29 51 30

