# https://github.com/mikedh/trimesh
v 0.28051500 0.29317200 -0.10498000
v 0.29394100 0.20993700 -0.08400580
v 0.28051500 0.29317200 -0.10576000
v 0.27293900 0.29317200 -0.04200260
v 0.29394100 0.14695700 -0.06300420
v 0.29394100 -0.04439560 -0.12835200
v 0.28463800 -0.04439560 -0.19135700
v 0.27255100 0.29317200 -0.21071300
v 0.27262100 0.29317200 -0.20993200
v 0.27991600 0.15396200 -0.03500210
v 0.26592600 0.29317200 -0.02800160
v 0.29394100 -0.04439560 -0.10498000
v 0.26000600 0.00031164 0.02128100
v 0.28118400 -0.04439560 -0.20340500
v 0.27938700 -0.04439560 -0.20912300
v 0.26888600 -0.04439560 -0.23296900
v 0.26606700 0.29317200 -0.22368200
v 0.25193700 0.29317200 -0.02100100
v 0.22043400 0.22044400 0.02128100
v 0.22554300 0.21023400 0.02128100
v 0.24732000 0.12597400 0.02128100
v 0.25193700 0.10528900 0.02128100
v 0.25193700 -0.04439560 0.02122530
v 0.25204200 -0.04168610 0.02128100
v 0.26649000 -0.04439560 -0.23656700
v 0.25274700 -0.04439560 -0.25274400
v 0.24954000 -0.04439560 -0.25553300
v 0.26550300 0.29317200 -0.22401600
v 0.16796400 0.29317200 -0.02100100
v 0.18766200 0.23660200 0.02128100
v 0.21021400 0.23065500 0.02128100
v 0.25193700 -0.04198340 0.02128100
v 0.21483100 -0.04439560 0.02128100
v 0.23093500 -0.04439560 -0.26364900
v 0.25204200 0.29317200 -0.23073800
v -0.06605330 0.29317200 -0.08400580
v 0.18484300 0.23095200 0.02128100
v 0.20993300 -0.04439560 0.02128100
v 0.16831600 0.29317200 -0.25154400
v 0.19065700 0.29317200 -0.24658000
v 0.19175000 0.29317200 -0.24630100
v 0.16796400 -0.04439560 -0.26364900
v 0.14618700 0.29317200 -0.25193500
v 0.16725900 0.29317200 -0.25174000
v -0.06605330 0.29317200 -0.25193500
v -0.06605330 0.08093660 -0.08400580
v 0.17860600 0.20993700 0.02128100
v 0.18893100 0.00001425 0.02128100
v -0.06605330 -0.04439560 -0.10498000
v -0.06513710 -0.04439560 -0.25748500
v -0.06605330 -0.02404110 -0.26211500
v -0.06605330 -0.04439560 -0.25737400
f 13 38 33
f 13 33 32
f 13 32 24
f 13 24 23
f 17 25 26
f 18 30 31
f 17 26 27
f 17 27 28
f 18 29 30
f 16 25 17
f 13 48 38
f 13 20 19
f 13 37 47
f 13 30 37
f 13 31 30
f 13 19 31
f 13 21 20
f 13 22 21
f 12 13 23
f 11 22 13
f 18 31 19
f 11 21 22
f 13 47 48
f 23 24 32
f 36 52 49
f 27 34 35
f 11 20 21
f 50 52 51
f 46 48 47
f 46 49 48
f 42 51 45
f 42 50 51
f 38 48 49
f 36 47 37
f 36 46 47
f 36 49 46
f 23 32 33
f 36 51 52
f 34 44 39
f 34 43 44
f 34 45 43
f 34 42 45
f 34 41 35
f 34 40 41
f 34 39 40
f 30 36 37
f 29 36 30
f 27 35 28
f 36 45 51
f 11 19 20
f 7 14 8
f 10 11 13
f 2 6 7
f 2 12 6
f 2 5 12
f 2 4 5
f 1 4 2
f 1 11 4
f 1 18 11
f 1 29 18
f 1 36 29
f 1 45 36
f 2 7 8
f 1 44 43
f 1 40 39
f 1 41 40
f 1 35 41
f 1 28 35
f 1 17 28
f 1 8 17
f 1 9 8
f 1 3 9
f 1 2 3
f 11 18 19
f 1 39 44
f 2 8 9
f 1 43 45
f 4 10 5
f 8 16 17
f 2 9 3
f 8 15 16
f 8 14 15
f 6 14 7
f 6 15 14
f 6 25 16
f 6 26 25
f 6 27 26
f 6 34 27
f 6 42 34
f 6 16 15
f 6 50 42
f 6 52 50
f 6 49 52
f 6 38 49
f 6 33 38
f 6 23 33
f 6 12 23
f 5 13 12
f 5 10 13
f 4 11 10

