# https://github.com/mikedh/trimesh
v 0.13302500 -0.92378100 0.02098680
v 0.04198850 -0.89581700 0.03499150
v 0.13302500 -0.93778900 0.01399260
v 0.02100180 -0.90981300 0.02799480
v 0.06298910 -0.93778900 0.01399260
v 0.05249530 -0.93430400 0.01573550
v 0.04199180 -0.95179700 -0.01400680
v -0.01071020 -0.90995700 0.02128260
v 0.00000506 -0.90281200 0.02886950
v 0.01049840 -0.89231600 0.03674110
v 0.03498620 -0.88882100 0.03499150
v 0.13302500 -0.88179100 0.02098680
v 0.13302500 -0.62991600 -0.06298880
v 0.03513010 -0.62991600 -0.06298880
v 0.00014632 -0.86197100 0.02128260
v -0.01971030 -0.88182600 0.02128260
v 0.03513010 -0.62991600 -0.20995800
v 0.13301500 -0.62991600 -0.20995800
v 0.06298910 -0.69288500 -0.20995800
v 0.03513010 -0.67187300 -0.20995800
v -0.02023500 -0.90281200 0.02128260
v 0.03513010 -0.75450500 -0.18757200
v 0.04199180 -0.75585400 -0.18895200
v 0.03513010 -0.81882200 -0.16794700
v 0.03513010 -0.88044300 -0.14558400
v 0.04199180 -0.88179100 -0.14696400
v 0.13302500 -0.88179100 -0.14696400
v 0.13302500 -0.95179700 -0.11197100
v 0.05599320 -0.95179700 -0.11197100
v 0.03513010 -0.90967500 -0.13302100
v 0.03513010 -0.94153800 -0.11183500
v 0.03849390 -0.94827800 -0.10846200
v 0.03513010 -0.95166500 -0.10171700
v 0.03513010 -0.95893200 -0.09087510
v 0.04199180 -0.96580500 -0.08399410
v 0.13302500 -0.96580500 -0.08399410
v 0.13302500 -0.96580500 -0.04200620
v 0.04199180 -0.96580500 -0.04200620
v 0.03513010 -0.96580500 -0.06298880
v 0.03513010 -0.96442300 -0.08261330
v 0.03513010 -0.96580500 -0.04886460
v 0.03513010 -0.96406200 -0.04114610
v 0.03513010 -0.95936000 -0.03173000
v 0.03513010 -0.95406600 -0.02201960
v 0.13302500 -0.75585400 -0.18895200
v 0.13302500 -0.65089500 -0.20995800
v 0.10497400 -0.69288500 -0.20995800
f 40 39 21
f 43 44 8
f 43 8 42
f 41 39 38
f 41 38 42
f 41 42 21
f 43 7 44
f 41 21 39
f 40 21 34
f 37 5 38
f 40 35 39
f 39 35 38
f 35 37 38
f 3 5 37
f 3 37 1
f 37 28 1
f 36 28 37
f 36 37 35
f 43 38 7
f 40 34 35
f 7 38 5
f 47 19 18
f 8 21 42
f 36 35 28
f 47 27 19
f 47 45 27
f 46 45 47
f 46 47 18
f 46 18 13
f 46 13 45
f 45 13 27
f 1 27 13
f 28 27 1
f 25 26 30
f 25 30 21
f 31 21 30
f 33 21 31
f 33 34 21
f 21 16 17
f 10 16 21
f 9 10 21
f 8 9 21
f 44 7 8
f 29 28 35
f 43 42 38
f 32 29 34
f 15 14 16
f 15 16 10
f 15 10 14
f 10 13 14
f 10 11 13
f 12 13 11
f 12 1 13
f 2 1 12
f 2 11 10
f 14 17 16
f 4 2 10
f 4 9 8
f 6 4 8
f 6 8 7
f 6 7 5
f 6 5 4
f 4 5 3
f 4 3 2
f 2 3 1
f 29 35 34
f 4 10 9
f 14 13 17
f 2 12 11
f 19 17 18
f 18 17 13
f 32 33 31
f 32 31 29
f 29 31 30
f 29 30 26
f 29 26 28
f 26 19 27
f 23 20 19
f 23 19 26
f 24 23 26
f 26 27 28
f 20 17 19
f 24 26 25
f 20 21 17
f 20 22 21
f 23 22 20
f 32 34 33
f 24 21 22
f 24 25 21
f 24 22 23

