# https://github.com/mikedh/trimesh
v 0.31493600 0.61402900 -0.16795800
v 0.31493600 0.61402900 -0.20995800
v 0.31385300 0.61402900 -0.14798100
v 0.31493600 0.60884600 -0.14697000
v 0.31493600 0.54587500 -0.20995800
v 0.30092000 0.60884600 -0.23794900
v 0.30964800 0.61402900 -0.22051300
v 0.29391200 0.61402900 -0.08400770
v 0.31493600 0.54587500 -0.14697000
v 0.30964800 0.53538500 -0.22043900
v 0.30092000 0.54587500 -0.23794900
v 0.31493600 0.52486300 -0.18894500
v 0.29391200 0.35692900 -0.18894500
v 0.29391200 0.39892000 -0.20995800
v 0.29391200 0.44091200 -0.23094500
v 0.28868700 0.43042200 -0.24145100
v 0.30264000 0.61402900 -0.23449600
v 0.27804800 0.61402900 -0.24936800
v 0.28518300 0.61402900 -0.24579200
v 0.29920000 0.61402900 -0.23814600
v 0.29136300 0.61402900 -0.07885330
v 0.29391200 0.33594900 -0.08400770
v 0.28690400 0.44091200 -0.24492800
v 0.27288700 0.44091200 -0.25193300
v 0.29391200 0.33594900 -0.12598300
v 0.28868700 0.30444700 -0.09448910
v 0.27288700 0.29395700 -0.20995800
v 0.27250500 0.29317200 -0.21072200
v 0.28868700 0.34643900 -0.19945100
v 0.26607000 0.29317200 -0.22369400
v 0.26766300 0.34643900 -0.24145100
v 0.26594300 0.35692900 -0.24492800
v 0.27288700 0.60884600 -0.25193300
v 0.27288700 0.61402900 -0.25000900
v 0.28085100 0.61402900 -0.05784110
v 0.26594300 0.30796500 -0.02799980
v 0.26594300 0.29317200 -0.02799980
v 0.28868700 0.31233000 -0.08400770
v 0.27288700 0.29317200 -0.04200790
v 0.25192600 0.35692900 -0.25193300
v -0.02094640 0.52486300 -0.27294500
v 0.28046900 0.29317200 -0.10499500
v 0.28046900 0.29317200 -0.10576000
v 0.27263200 0.29317200 -0.20995800
v 0.26549700 0.29317200 -0.22401500
v 0.25715100 0.32545900 -0.24145100
v 0.25453900 0.33594900 -0.24668000
v 0.25192600 0.61402900 -0.25193300
v -0.02094640 0.58786600 -0.27294500
v -0.06293180 0.60884600 -0.27294500
v 0.27989500 0.61402900 -0.05599140
v 0.25192600 0.31493700 -0.02099570
v 0.25192600 0.29317200 -0.02099570
v 0.23090200 0.33594900 -0.25193300
v -0.04197090 0.46189200 -0.27294500
v 0.25199000 0.29317200 -0.23074800
v 0.19152900 0.29395700 -0.24668000
v 0.16795600 0.29395700 -0.25193300
v -0.06414230 0.61402900 -0.27112000
v -0.09739920 0.61402900 -0.27294500
v 0.25708700 0.61402900 -0.04457280
v 0.25192600 0.61402900 -0.04200790
v 0.23090200 0.41993200 -0.02099570
v 0.16795600 0.29317200 -0.02099570
v -0.14696600 0.44091200 -0.27294500
v 0.19172000 0.29317200 -0.24631000
v 0.19063700 0.29317200 -0.24658100
v 0.16833800 0.29317200 -0.25156300
v 0.16725500 0.29317200 -0.25173500
v 0.14616700 0.29317200 -0.25193300
v -0.25189800 0.61402900 -0.27294500
v 0.18891700 0.61402900 -0.04200790
v -0.27292200 0.41993200 -0.04200790
v 0.18891700 0.35692900 -0.02099570
v 0.16795600 0.29395700 -0.02099570
v -0.29388300 0.29317200 -0.04200790
v -0.23093700 0.44091200 -0.27294500
v -0.20991200 0.29317200 -0.25193300
v -0.27292200 0.56685500 -0.27294500
v -0.28693800 0.57385900 -0.26594100
v -0.26642400 0.61402900 -0.26606400
v -0.25189800 0.61402900 -0.06299550
v -0.29388300 0.35692900 -0.04200790
v -0.29477500 0.29317200 -0.04220520
v -0.23093700 0.29395700 -0.25193300
v -0.27292200 0.31493700 -0.25193300
v -0.25189800 0.46189200 -0.27294500
v -0.23074600 0.29317200 -0.25178500
v -0.27292200 0.50388300 -0.27294500
v -0.28706600 0.61402900 -0.24544600
v -0.27993000 0.61402900 -0.25893700
v -0.28693800 0.51088700 -0.26594100
v -0.29388300 0.56685500 -0.25193300
v -0.29388300 0.61402900 -0.23094500
v -0.26247400 0.61402900 -0.06827320
v -0.30789900 0.35692900 -0.04901200
v -0.30828200 0.29317200 -0.04893800
v -0.25266200 0.29317200 -0.24631000
v -0.27368700 0.29317200 -0.24105700
v -0.28114100 0.29317200 -0.23918200
v -0.28343400 0.30444700 -0.24145100
v -0.28693800 0.32194100 -0.24492800
v -0.28343400 0.45143300 -0.26243900
v -0.30089100 0.29317200 -0.21693700
v -0.29388300 0.50388300 -0.25193300
v -0.31490700 0.46189200 -0.18894500
v -0.31490700 0.52486300 -0.14697000
v -0.29388300 0.61402900 -0.12598300
v -0.27649000 0.61402900 -0.07527720
v -0.30968300 0.36745000 -0.05248940
v -0.32191600 0.31493700 -0.05599140
v -0.32178800 0.29317200 -0.05574480
v -0.30401300 0.29317200 -0.21072200
v -0.31452500 0.29317200 -0.18971000
v -0.31490700 0.29317200 -0.18894500
v -0.33140900 0.29317200 -0.12598300
v -0.33593200 0.29317200 -0.10576000
v -0.33593200 0.29395700 -0.10499500
v -0.33593200 0.31493700 -0.08400770
v -0.31490700 0.50388300 -0.12598300
v -0.29388300 0.60884600 -0.10499500
v -0.29197200 0.61402900 -0.10499500
v -0.28012100 0.61402900 -0.07870530
v -0.27993000 0.60884600 -0.07700360
v -0.32280800 0.33594900 -0.06299550
v -0.33064400 0.32545900 -0.07350160
v -0.32886000 0.29317200 -0.06975290
v -0.32210700 0.29317200 -0.05626270
v -0.33593200 0.29317200 -0.08400770
v -0.29133500 0.61402900 -0.09984080
v -0.28776700 0.61402900 -0.09271340
f 63 72 73
f 55 58 65
f 64 75 83
f 62 72 63
f 63 73 74
f 58 70 65
f 57 66 67
f 58 68 69
f 57 68 58
f 57 67 68
f 64 83 76
f 56 66 57
f 58 69 70
f 65 70 78
f 73 75 74
f 71 79 80
f 71 80 81
f 72 82 73
f 73 82 83
f 73 83 75
f 76 83 84
f 77 78 85
f 77 85 86
f 77 86 87
f 78 88 85
f 79 89 92
f 80 90 91
f 79 92 80
f 65 78 77
f 54 58 55
f 35 51 36
f 52 75 64
f 80 91 81
f 33 50 48
f 36 52 53
f 36 53 37
f 36 51 52
f 40 47 54
f 40 54 55
f 40 55 41
f 41 55 65
f 41 65 77
f 41 77 87
f 41 87 89
f 41 89 79
f 41 79 71
f 41 71 60
f 41 60 50
f 41 50 49
f 45 56 46
f 46 56 47
f 47 56 57
f 47 57 58
f 47 58 54
f 48 50 59
f 50 60 59
f 51 61 52
f 52 61 62
f 52 62 63
f 52 63 74
f 52 74 75
f 52 64 53
f 80 92 105
f 123 126 125
f 80 93 94
f 106 116 117
f 106 117 107
f 107 117 118
f 107 118 119
f 107 119 120
f 107 120 121
f 107 121 108
f 108 121 122
f 109 123 124
f 109 124 110
f 110 125 111
f 110 124 123
f 110 123 125
f 106 115 116
f 111 125 126
f 111 119 127
f 111 127 128
f 111 128 112
f 117 129 119
f 117 119 118
f 119 129 127
f 119 126 130
f 119 130 121
f 119 121 120
f 121 130 122
f 123 131 126
f 126 131 130
f 33 49 50
f 111 126 119
f 105 114 115
f 105 113 114
f 104 113 105
f 80 94 90
f 82 95 83
f 83 96 97
f 83 97 84
f 83 95 109
f 83 109 96
f 85 88 86
f 86 98 99
f 86 99 100
f 86 100 101
f 86 101 102
f 86 103 89
f 86 89 87
f 86 88 98
f 89 103 92
f 92 103 102
f 92 102 104
f 92 104 105
f 93 105 115
f 93 115 106
f 93 106 94
f 94 106 107
f 94 107 108
f 96 110 111
f 96 111 112
f 96 112 97
f 96 109 110
f 100 104 101
f 101 104 102
f 80 105 93
f 33 48 34
f 86 102 103
f 31 47 32
f 1 12 5
f 1 5 2
f 2 5 11
f 2 11 6
f 2 6 7
f 3 8 4
f 4 22 9
f 5 10 11
f 5 12 13
f 5 13 14
f 5 14 15
f 5 15 16
f 5 16 10
f 1 9 12
f 6 17 7
f 6 18 19
f 32 47 40
f 6 19 20
f 6 20 17
f 8 21 22
f 9 22 12
f 10 16 11
f 11 16 23
f 11 23 24
f 11 24 18
f 12 22 25
f 12 25 13
f 13 25 26
f 6 11 18
f 1 4 9
f 1 3 4
f 1 8 3
f 1 2 7
f 1 7 17
f 1 17 20
f 1 20 19
f 1 19 18
f 1 18 34
f 1 34 48
f 1 48 59
f 1 59 60
f 1 60 71
f 1 71 81
f 1 81 91
f 1 91 90
f 1 90 94
f 1 94 108
f 1 108 122
f 1 122 130
f 1 130 131
f 1 131 123
f 1 123 109
f 1 109 95
f 1 95 82
f 1 82 72
f 1 72 62
f 1 62 61
f 1 61 51
f 1 51 35
f 1 35 21
f 1 21 8
f 13 26 27
f 13 27 28
f 4 8 22
f 13 29 14
f 28 64 76
f 28 76 84
f 28 84 97
f 28 97 112
f 28 112 128
f 28 128 127
f 28 127 129
f 28 129 117
f 28 117 116
f 28 116 115
f 28 115 114
f 28 114 113
f 28 113 104
f 28 104 100
f 28 100 99
f 28 99 98
f 28 98 88
f 28 88 78
f 28 78 70
f 28 70 69
f 28 69 68
f 13 28 29
f 28 67 66
f 28 66 56
f 28 56 45
f 28 45 30
f 30 45 46
f 30 46 31
f 31 46 47
f 28 53 64
f 28 37 53
f 28 68 67
f 28 42 39
f 28 39 37
f 14 29 16
f 14 16 15
f 16 29 28
f 16 30 31
f 16 31 32
f 16 32 23
f 18 24 33
f 18 33 34
f 21 35 36
f 21 36 37
f 21 37 22
f 22 38 26
f 22 26 25
f 22 37 39
f 16 28 30
f 23 32 40
f 22 39 38
f 28 44 43
f 28 43 42
f 26 44 27
f 26 43 44
f 26 42 43
f 27 44 28
f 26 39 42
f 26 38 39
f 24 49 33
f 24 41 49
f 24 40 41
f 23 40 24

