# https://github.com/mikedh/trimesh
v 0.12598100 -0.10495400 0.25194900
v 0.10507700 -0.10495400 0.25194900
v 0.10507700 -0.14684700 0.25192600
v 0.10507700 -0.14697000 0.25190400
v 0.11898000 -0.15396300 0.24495000
v 0.13998200 -0.11194600 0.24495000
v 0.15398300 -0.09796110 0.23795000
v 0.16796800 -0.06299870 0.23095000
v 0.19595400 0.00698799 0.19595300
v 0.17496900 0.00698799 0.19595300
v 0.10507700 -0.09096860 0.24495000
v 0.10507700 -0.17048500 0.24668800
v 0.12598100 -0.20990300 0.23095000
v 0.13998200 -0.21689500 0.22395100
v 0.20295500 -0.17494000 0.20295200
v 0.18196900 -0.06999120 0.22395100
v 0.19595400 -0.05600620 0.21695100
v 0.19245400 -0.03849410 0.21345200
v 0.18897000 -0.02104380 0.20995200
v 0.22044000 0.03149260 0.17845400
v 0.19595400 0.04894290 0.17495400
v 0.18196900 0.03495790 0.18195400
v 0.11898000 -0.04901370 0.22395100
v 0.11023700 -0.05254090 0.22045100
v 0.10507700 -0.08193410 0.23463100
v 0.10507700 -0.23094200 0.23092800
v 0.12598100 -0.23354100 0.22569000
v 0.13648200 -0.23620200 0.22045100
v 0.24668400 -0.13645100 0.15745600
v 0.24494200 -0.13292300 0.16095500
v 0.23794200 -0.11893900 0.17495400
v 0.15748300 -0.25717900 0.19945300
v 0.17846900 -0.27815700 0.17845400
v 0.19945400 -0.27815700 0.15745600
v 0.22394000 -0.25891200 0.13995700
v 0.23794200 0.09095960 0.13298000
v 0.21695600 0.11193700 0.13298000
v 0.26244400 -0.05254090 0.13648000
v 0.20295500 0.18192400 0.07700620
v 0.18768800 0.23662600 0.02128110
v 0.10507700 -0.06287490 0.21011000
v 0.18486200 0.23093300 0.02128110
v 0.10507700 -0.29647300 0.20469100
v 0.14698200 -0.35952900 0.16271600
v 0.23094100 -0.25191900 0.12598000
v 0.24668400 -0.21256300 0.10498200
v 0.25194300 -0.18892500 0.10498200
v 0.26944400 -0.06652590 0.12248100
v 0.26244400 -0.07877820 0.13648000
v 0.16098400 -0.34288400 0.16095500
v 0.17846900 -0.32017300 0.15745600
v 0.22044000 -0.26763700 0.13648000
v 0.21695600 -0.27988900 0.12598000
v 0.24144200 0.11546400 0.11548100
v 0.21695600 0.19590900 0.07000670
v 0.27294500 -0.04202120 0.10498200
v 0.25194300 0.08396710 0.10498200
v 0.21345600 0.21342100 0.04550840
v 0.21023500 0.23062400 0.02128110
v 0.10507700 -0.06287490 0.20995200
v 0.17861700 0.20995600 0.02128110
v 0.10507700 -0.33855200 0.18367000
v 0.10507700 -0.38044500 0.16271600
v 0.11548000 -0.38316800 0.15745600
v 0.13648200 -0.37264800 0.15745600
v 0.15398300 -0.36392300 0.14695600
v 0.15748300 -0.35167100 0.15745600
v 0.22569900 -0.26243900 0.11548100
v 0.24668400 -0.22042200 0.09448250
v 0.27294500 -0.12593100 0.04200870
v 0.27294500 -0.06299870 0.10498200
v 0.18372800 -0.32543300 0.13648000
v 0.21782700 -0.27289700 0.10498200
v 0.25194300 0.12592200 0.08398320
v 0.24144200 0.13644200 0.09448250
v 0.22044000 0.22041300 0.03150940
v 0.27294500 -0.00000449 0.06300720
v 0.22044000 0.22041300 0.02128110
v 0.10507700 -0.06293680 0.20977100
v 0.18897000 -0.00000449 0.02128110
v 0.10507700 -0.35686800 0.10500400
v 0.10507700 -0.33329200 0.11022000
v 0.10507700 -0.20730400 0.15217200
v 0.10507700 -0.38050700 0.16267100
v 0.10507700 -0.39096500 0.14704700
v 0.11548000 -0.39362500 0.13648000
v 0.12598100 -0.38576700 0.14695600
v 0.11023700 -0.38836600 0.11548100
v 0.20469700 -0.28341600 0.09448250
v 0.23881300 -0.23094200 0.08398320
v 0.24668400 -0.19944500 0.05250790
v 0.26768600 -0.13645100 0.03150940
v 0.27287900 -0.10501500 0.02128110
v 0.25194300 0.12592200 0.04200870
v 0.22555100 0.21020300 0.02128110
v 0.26768600 0.01045330 0.03150940
v 0.26768600 0.02097290 0.03938950
v 0.20995500 -0.12593100 0.02128110
v 0.21023500 -0.12735400 0.02128110
v 0.21505000 -0.14183400 0.02128110
v 0.21666000 -0.14666100 0.02128110
v 0.22249400 -0.15538600 0.02128110
v 0.10507700 -0.37790800 0.10967800
v 0.10507700 -0.39102600 0.14686600
v 0.10507700 -0.39554400 0.12598000
v 0.10507700 -0.38836600 0.11548100
v 0.10507700 -0.38044500 0.11024300
v 0.23123700 -0.15755200 0.02128110
v 0.25136800 -0.14752700 0.02128110
v 0.23794200 -0.20291000 0.04900820
v 0.21695600 -0.24492700 0.07000670
v 0.25204100 -0.14703200 0.02128110
v 0.25237000 -0.14666100 0.02128110
v 0.26513900 -0.12624000 0.02128110
v 0.25194300 0.10525400 0.02128110
v 0.24734100 0.12592200 0.02128110
v 0.25179500 -0.14721800 0.02128110
f 1 2 3
f 48 70 71
f 50 67 51
f 51 67 66
f 51 66 72
f 51 72 52
f 52 72 53
f 53 72 73
f 53 73 68
f 54 74 75
f 54 75 55
f 54 57 74
f 55 76 58
f 55 75 76
f 56 70 77
f 56 77 74
f 56 74 57
f 58 76 59
f 59 76 78
f 60 61 79
f 61 80 81
f 61 81 82
f 61 82 83
f 61 83 79
f 63 84 64
f 64 85 86
f 48 71 56
f 64 86 87
f 47 69 70
f 46 69 47
f 40 114 113
f 40 113 112
f 40 112 117
f 40 117 109
f 40 109 108
f 40 108 102
f 40 102 101
f 40 101 100
f 40 100 99
f 40 99 98
f 40 98 80
f 40 80 61
f 40 61 42
f 41 42 61
f 41 61 60
f 43 62 44
f 44 62 63
f 44 63 64
f 44 64 65
f 44 65 66
f 44 66 67
f 44 67 50
f 45 68 69
f 45 69 46
f 45 53 68
f 47 70 48
f 40 93 114
f 64 87 65
f 65 87 66
f 86 105 88
f 88 105 106
f 88 106 107
f 88 107 108
f 88 108 109
f 88 109 110
f 88 110 91
f 88 91 111
f 88 111 89
f 89 111 91
f 89 91 90
f 91 112 113
f 91 113 114
f 91 114 92
f 91 110 112
f 92 114 93
f 93 115 96
f 94 97 115
f 94 115 116
f 94 116 95
f 96 115 97
f 102 108 107
f 102 107 103
f 109 117 110
f 110 117 112
f 86 104 105
f 64 84 85
f 85 104 86
f 81 101 102
f 66 87 86
f 66 86 88
f 66 88 89
f 66 89 72
f 68 73 90
f 68 90 69
f 69 90 91
f 69 91 92
f 69 92 70
f 70 92 93
f 70 93 77
f 72 89 73
f 73 89 90
f 74 94 95
f 74 95 76
f 74 76 75
f 74 77 94
f 76 95 78
f 77 96 97
f 77 97 94
f 77 93 96
f 80 98 81
f 81 98 99
f 81 99 100
f 81 100 101
f 81 102 103
f 40 115 93
f 56 71 70
f 40 95 116
f 2 4 3
f 4 12 13
f 4 13 5
f 5 13 14
f 5 14 6
f 6 14 15
f 6 15 7
f 7 16 8
f 7 15 16
f 8 16 17
f 8 17 18
f 8 18 19
f 8 19 9
f 9 19 20
f 9 20 21
f 9 21 22
f 9 22 10
f 10 22 11
f 11 22 23
f 11 23 24
f 11 24 25
f 12 26 27
f 12 27 13
f 13 27 14
f 14 27 28
f 2 12 4
f 14 28 15
f 2 26 12
f 2 62 43
f 1 3 4
f 1 4 5
f 1 5 6
f 1 6 7
f 1 7 8
f 1 8 9
f 1 9 10
f 1 10 2
f 2 10 11
f 2 11 25
f 2 25 41
f 2 41 60
f 40 116 115
f 2 79 83
f 2 83 82
f 2 82 81
f 2 81 103
f 2 103 107
f 2 107 106
f 2 106 105
f 2 105 104
f 2 104 85
f 2 85 84
f 2 84 63
f 2 63 62
f 2 43 26
f 15 29 30
f 2 60 79
f 15 31 17
f 29 48 49
f 29 49 30
f 30 49 31
f 31 49 38
f 32 44 33
f 33 44 50
f 33 50 51
f 33 51 34
f 34 51 35
f 35 51 52
f 35 52 53
f 35 53 45
f 36 54 37
f 36 38 57
f 36 57 54
f 37 54 55
f 37 55 39
f 38 49 48
f 38 56 57
f 39 55 40
f 40 55 58
f 40 58 59
f 40 59 78
f 40 78 95
f 15 30 31
f 29 47 48
f 29 46 47
f 38 48 56
f 29 35 45
f 15 17 16
f 29 45 46
f 15 28 32
f 15 32 33
f 15 33 34
f 15 35 29
f 17 20 18
f 17 31 20
f 18 20 19
f 20 36 37
f 20 37 21
f 20 31 38
f 15 34 35
f 24 42 41
f 21 37 22
f 22 37 39
f 22 39 23
f 23 39 40
f 23 40 24
f 24 41 25
f 24 40 42
f 28 44 32
f 27 44 28
f 26 43 27
f 27 43 44
f 20 38 36

