# https://github.com/mikedh/trimesh
v 0.04197820 -0.16798100 0.27294500
v 0.02100850 -0.16798100 0.27294500
v 0.04197820 -0.23095400 0.25192800
v 0.00001215 -0.23095400 0.25192800
v 0.02100850 -0.33592600 0.20993700
v -0.01049270 -0.24148900 0.24669500
v 0.01050370 -0.34641400 0.20470400
v -0.03147570 -0.28344000 0.22569900
v -0.03147570 -0.20997900 0.25192800
v -0.03147570 -0.16798100 0.25192800
v -0.03147570 -0.14909300 0.24984300
v 0.01400530 -0.15401200 0.26593900
v -0.03147570 -0.13651700 0.24144100
v 0.09797740 -0.09099200 0.24494400
v 0.10506100 -0.10500700 0.25192800
v 0.10506100 -0.09099200 0.24494400
v 0.10506100 -0.08198910 0.23464400
v 0.10506100 -0.06282320 0.21010400
v 0.10506100 -0.14691200 0.25192800
v 0.05598460 -0.17498800 0.26593900
v 0.10496700 -0.17062600 0.24669500
v 0.10506100 -0.23100100 0.23093300
v 0.05598460 -0.23796200 0.24494400
v 0.08397090 -0.31754900 0.20470400
v 0.10506100 -0.29652700 0.20470400
v 0.09447570 -0.32014800 0.19944900
v 0.09447570 -0.36214600 0.17845400
v 0.08397090 -0.40149900 0.16273300
v 0.04197820 -0.33852500 0.20470400
v 0.06297450 -0.46888100 0.13298100
v 0.02100850 -0.36390900 0.19594700
v -0.01049270 -0.45138600 0.14173700
v 0.00001215 -0.45486600 0.13998600
v 0.04197820 -0.48985700 0.11198500
v 0.06297450 -0.53185500 0.06999350
v 0.09447920 -0.56162700 0.03149550
v 0.07347940 -0.45663000 0.13648300
v 0.07698100 -0.44790500 0.13998600
v 0.07873180 -0.46451900 0.12597500
v 0.09958380 -0.56928400 0.02128100
v 0.09969050 -0.56915900 0.02128100
v 0.10506100 -0.38052300 0.16269100
v 0.10506100 -0.35690200 0.10500000
v 0.10506100 -0.06291600 0.20979100
v -0.03147570 -0.13127300 0.22567800
v -0.03147570 -0.13651700 0.21519100
v 0.03566950 -0.48118500 0.02128100
v 0.04199690 -0.47802800 0.02128100
v 0.06298160 -0.47226900 0.02128100
v 0.06922690 -0.47383300 0.02128100
v 0.10483600 -0.52503400 0.02128100
v 0.09097490 -0.49690000 0.02128100
v 0.07842670 -0.48046500 0.02128100
v 0.07679360 -0.47902500 0.02128100
v 0.10506100 -0.20738000 0.15218300
v 0.10483600 -0.54602400 0.02128100
v 0.08398270 -0.56999000 0.02128100
v 0.05235380 -0.54559400 0.02128100
v 0.03773760 -0.50814200 0.02128100
v 0.03660500 -0.50360100 0.02128100
v 0.02799610 -0.47591000 0.02799480
v 0.02100400 -0.48291600 0.04199010
v -0.03147570 -0.39681200 0.10708500
v -0.03147570 -0.40948100 0.11550800
v -0.02798750 -0.42688300 0.11899000
v 0.04184920 -0.52460500 0.02128100
v -0.02098420 -0.44089800 0.12597500
v -0.03147570 -0.41992200 0.12595400
v -0.03147570 -0.41597800 0.15155800
v -0.01399430 -0.45486600 0.13298100
v 0.04899720 -0.53887900 0.04898770
v -0.03147570 -0.40938800 0.16273300
v -0.03147570 -0.37787800 0.10497900
v -0.03147570 -0.26251100 0.15222500
v 0.05249330 -0.53539000 0.05773750
v 0.06298160 -0.55113300 0.03936740
v 0.06998200 -0.55988300 0.02799480
v 0.07974800 -0.56842600 0.02128100
v 0.06326880 -0.55651800 0.02128100
v 0.05800010 -0.55237900 0.02128100
v 0.08398270 -0.55988300 0.03499620
v 0.10506100 -0.17062600 0.24665300
f 62 60 59
f 62 59 66
f 66 59 58
f 66 58 65
f 65 58 67
f 65 67 68
f 64 65 68
f 70 67 58
f 68 69 63
f 68 70 69
f 68 67 70
f 70 58 71
f 70 71 32
f 70 32 72
f 62 66 65
f 70 72 69
f 64 68 63
f 62 65 64
f 55 51 44
f 62 63 61
f 72 9 69
f 52 44 51
f 53 44 52
f 54 44 53
f 54 50 44
f 54 53 50
f 53 52 50
f 55 43 51
f 55 44 43
f 51 43 56
f 51 56 47
f 47 56 57
f 58 47 57
f 59 47 58
f 60 47 59
f 60 61 47
f 62 61 60
f 62 64 63
f 8 9 72
f 81 35 57
f 7 72 32
f 80 71 58
f 79 58 57
f 76 57 35
f 36 35 81
f 36 81 40
f 81 57 40
f 40 57 56
f 80 58 79
f 41 40 56
f 43 42 56
f 19 25 18
f 22 25 19
f 82 22 19
f 82 21 22
f 82 19 21
f 52 51 50
f 41 56 42
f 80 79 71
f 77 71 79
f 78 77 79
f 69 9 73
f 63 69 73
f 61 63 73
f 61 73 74
f 61 74 47
f 74 46 47
f 74 73 46
f 46 73 9
f 11 46 9
f 75 32 71
f 75 35 32
f 75 76 35
f 75 71 76
f 77 76 71
f 78 76 77
f 78 57 76
f 78 79 57
f 8 72 7
f 50 51 47
f 48 49 47
f 49 44 50
f 16 15 18
f 15 19 18
f 15 1 19
f 2 1 15
f 20 19 1
f 20 21 19
f 20 22 21
f 17 16 18
f 20 1 22
f 24 22 23
f 24 25 22
f 26 25 24
f 26 27 25
f 26 24 27
f 24 28 27
f 29 28 24
f 23 22 1
f 17 18 14
f 17 14 16
f 16 14 15
f 2 3 1
f 4 3 2
f 4 5 3
f 6 5 4
f 6 7 5
f 6 8 7
f 6 9 8
f 6 4 9
f 4 2 9
f 10 9 2
f 10 11 9
f 10 2 11
f 12 11 2
f 12 13 11
f 12 14 13
f 12 2 14
f 14 2 15
f 29 30 28
f 29 31 30
f 49 50 47
f 29 3 5
f 38 39 42
f 38 42 28
f 27 28 42
f 27 42 25
f 42 18 25
f 43 18 42
f 44 18 43
f 39 41 42
f 45 18 44
f 13 14 18
f 13 45 11
f 45 44 46
f 44 47 46
f 48 47 44
f 48 44 49
f 29 5 31
f 13 18 45
f 39 40 41
f 45 46 11
f 37 36 39
f 39 36 40
f 24 23 3
f 23 1 3
f 29 24 3
f 31 7 32
f 33 31 32
f 33 30 31
f 33 34 30
f 31 5 7
f 34 32 35
f 34 35 30
f 36 30 35
f 37 30 36
f 37 28 30
f 37 38 28
f 33 32 34
f 37 39 38

