# https://github.com/mikedh/trimesh
v 0.08392550 0.96577000 -0.16794500
v 0.06294620 0.96577000 -0.14694600
v 0.08046860 0.96229200 -0.15044600
v 0.12594400 0.94480000 -0.12599900
v 0.09793150 0.95878000 -0.17494500
v 0.09447470 0.95530200 -0.18370900
v 0.08392550 0.95878000 -0.18194500
v -0.05244000 0.96053600 -0.19944500
v -0.06292970 0.96577000 -0.16794500
v 0.04196680 0.96577000 -0.12599900
v 0.07343580 0.95530200 -0.11549900
v 0.09447470 0.95530200 -0.13647200
v 0.13643300 0.93429800 -0.09449940
v 0.15395600 0.93078500 -0.11899900
v 0.19591400 0.90981500 -0.11899900
v 0.13995000 0.93781000 -0.13299900
v 0.13995000 0.93781000 -0.17494500
v 0.17845200 0.91329300 -0.19420900
v 0.15741300 0.91329300 -0.20470900
v 0.08392550 0.94480000 -0.19682700
v 0.06294620 0.95179000 -0.19594500
v -0.05244000 0.95530200 -0.20470900
v -0.10494800 0.93078500 -0.21694500
v -0.12592700 0.93168100 -0.20994500
v -0.11543800 0.93953200 -0.19944500
v -0.07347890 0.96053600 -0.17844500
v -0.06292970 0.96577000 -0.14694600
v 0.04196680 0.94480000 -0.06299960
v 0.08392550 0.94480000 -0.08399940
v -0.02097110 0.96577000 -0.12599900
v 0.11545400 0.93429800 -0.07349950
v 0.17845200 0.91329300 -0.09449940
v 0.22041000 0.87131800 -0.07349950
v 0.21695300 0.88881100 -0.11899900
v 0.19591400 0.90981500 -0.16094500
v 0.18190800 0.91680500 -0.17494500
v 0.20294700 0.89580100 -0.19594500
v 0.19943100 0.89228800 -0.20470900
v 0.12594400 0.90279100 -0.21782700
v 0.10496400 0.90981500 -0.21694500
v 0.16796200 0.88182000 -0.21782700
v 0.02098750 0.93078500 -0.21694500
v -0.12592700 0.91680500 -0.22394500
v 0.02098750 0.91680500 -0.22394500
v -0.13641700 0.91856100 -0.22044500
v -0.15745600 0.90805900 -0.22044500
v -0.16794500 0.91067600 -0.20994500
v -0.15745600 0.91856100 -0.19944500
v -0.10494800 0.94480000 -0.18894500
v -0.11895400 0.93781000 -0.18894500
v -0.11895400 0.93781000 -0.12599900
v -0.10494800 0.94480000 -0.12599900
v -0.04195040 0.94480000 -0.06299960
v -0.10757000 0.93953200 -0.10499900
v -0.06561170 0.93953200 -0.06299960
v 0.03493400 0.93781000 -0.04899970
v 0.04894010 0.93078500 -0.03499980
v 0.07343580 0.93429800 -0.05249970
v 0.11545400 0.91329300 -0.03149980
v 0.17845200 0.89228800 -0.05249970
v 0.24144900 0.82930900 -0.05249970
v 0.24144900 0.85031400 -0.09449940
v 0.23793300 0.86780600 -0.11899900
v 0.17845200 0.87131800 -0.03149980
v 0.21695300 0.88881100 -0.18194500
v 0.24144900 0.85031400 -0.20470900
v 0.24490600 0.85382600 -0.19594500
v 0.23090000 0.83981100 -0.21782700
v 0.22041000 0.82930900 -0.22568200
v 0.15741300 0.87131800 -0.22568200
v 0.11545400 0.89228800 -0.22568200
v 0.03147720 0.91329300 -0.22568200
v -0.12592700 0.90279100 -0.23094500
v -0.18892500 0.85382600 -0.24494500
v -0.14696600 0.90540800 -0.22568200
v 0.02098750 0.90279100 -0.23094500
v -0.20990400 0.84242800 -0.24668200
v -0.19941400 0.85554700 -0.24144500
v -0.17843500 0.89755700 -0.22044500
v -0.17491900 0.90981500 -0.18894500
v -0.17491900 0.90981500 -0.14694600
v -0.13296000 0.93078500 -0.12599900
v -0.04898320 0.93781000 -0.04899970
v -0.11019300 0.93429800 -0.09449940
v -0.06823410 0.93429800 -0.05249970
v 0.06997900 0.90981500 -0.01399990
v -0.03497710 0.93078500 -0.03499980
v 0.13643300 0.87131800 -0.01049990
v 0.15741300 0.89228800 -0.03149980
v 0.22041000 0.82930900 -0.03149980
v 0.23793300 0.80482600 -0.03499980
v 0.24144900 0.78736900 -0.03149980
v 0.26242800 0.80830400 -0.07349950
v 0.25891200 0.82583100 -0.09799930
v 0.26242800 0.82930900 -0.13647200
v 0.25539600 0.84332300 -0.14344600
v 0.23793300 0.86780600 -0.18194500
v 0.17845200 0.82930900 -0.01049990
v 0.26242800 0.80830400 -0.21518200
v 0.25718400 0.83981100 -0.16532700
v 0.26242800 0.82930900 -0.17320900
v 0.26594500 0.81181700 -0.19594500
v 0.26242800 0.78736900 -0.22568200
v 0.20992100 0.81880700 -0.23094500
v 0.14692300 0.86081600 -0.23094500
v 0.10496400 0.88182000 -0.23094500
v -0.18892500 0.83981100 -0.25194500
v 0.04196680 0.81880700 -0.25194500
v -0.08396860 0.83981100 -0.25194500
v -0.22045300 0.83457700 -0.24144500
v -0.21693700 0.84680100 -0.23094500
v -0.23094300 0.73485700 -0.27294500
v -0.24494900 0.74188100 -0.26594500
v -0.22391000 0.82583100 -0.24494500
v -0.19595800 0.88881100 -0.18894500
v -0.23791600 0.82583100 -0.12599900
v -0.19595800 0.86780600 -0.08399940
v -0.17491900 0.88881100 -0.08399940
v -0.15393900 0.90981500 -0.10499900
v -0.06996250 0.91680500 -0.02799980
v -0.15221100 0.89228800 -0.05249970
v -0.08921340 0.91329300 -0.03149980
v 0.06294620 0.88182000 -0.00000000
v 0.09447470 0.89228800 -0.01049990
v -0.01393820 0.90981500 -0.01399990
v 0.10496400 0.86081600 -0.00000000
v 0.16796200 0.79783600 -0.00000000
v 0.23090000 0.75586200 -0.02099990
v 0.25891200 0.74188100 -0.03499980
v 0.26242800 0.76636400 -0.05249970
v 0.28340800 0.72435500 -0.07349950
v 0.29389700 0.73485700 -0.10499900
v 0.27291800 0.79783600 -0.10499900
v 0.29389700 0.75586200 -0.14694600
v 0.26940200 0.81532900 -0.15044600
v 0.26767300 0.81880700 -0.17059000
v 0.28340800 0.76636400 -0.21518200
v 0.28692400 0.76987600 -0.19594500
v 0.28340800 0.74535900 -0.22568200
v 0.25193900 0.77686600 -0.23094500
v 0.16796200 0.73485700 -0.25194500
v 0.08392550 0.79783600 -0.25194500
v -0.16794500 0.71388700 -0.27294500
v -0.24494900 0.78385600 -0.24494500
v -0.24494900 0.79081200 -0.23094500
v -0.24494900 0.81181700 -0.14694600
v -0.23791600 0.82583100 -0.14694600
v -0.25192200 0.69288200 -0.27294500
v -0.26592800 0.69987200 -0.26594500
v -0.26241200 0.71912100 -0.26244500
v -0.24494900 0.81181700 -0.12599900
v -0.24667700 0.80830400 -0.11549900
v -0.23881000 0.81880700 -0.10499900
v -0.21783100 0.83981100 -0.08399940
v -0.20465900 0.85031400 -0.07349950
v -0.19417000 0.85031400 -0.05249970
v -0.17319000 0.87131800 -0.05249970
v -0.11192100 0.89580100 -0.02799980
v -0.02794430 0.89580100 -0.00699996
v -0.15221100 0.87131800 -0.03149980
v -0.13117200 0.89228800 -0.03149980
v -0.02097110 0.88182000 -0.00000000
v 0.23090000 0.69288200 -0.02099990
v -0.25192200 0.61402900 -0.06299960
v 0.25891200 0.69987200 -0.03499980
v 0.27989100 0.69987200 -0.05599960
v 0.29389700 0.69288200 -0.08399940
v 0.31493600 0.67187800 -0.16794500
v 0.29389700 0.75586200 -0.18894500
v 0.28865300 0.75586200 -0.21256300
v 0.30438700 0.66137500 -0.22568200
v 0.29920200 0.61402900 -0.23815900
v 0.29389700 0.62990300 -0.23882700
v 0.28340800 0.61940000 -0.24668200
v 0.27291800 0.73485700 -0.23094500
v 0.25193900 0.65087300 -0.25194500
v 0.18894100 0.71388700 -0.25194500
v -0.12592700 0.67187800 -0.27294500
v -0.26765700 0.71650400 -0.25194500
v -0.26765700 0.73750800 -0.23094500
v -0.25192200 0.77686600 -0.23094500
v -0.26592800 0.76987600 -0.14694600
v -0.25192200 0.61402900 -0.27294500
v -0.26640500 0.61402900 -0.26605200
v -0.27993400 0.62287800 -0.25894500
v -0.28690800 0.63689300 -0.24494500
v -0.29394100 0.62990300 -0.23094500
v -0.27290200 0.69288200 -0.25194500
v -0.26765700 0.76636400 -0.13647200
v -0.26765700 0.74535900 -0.09449940
v -0.25979000 0.75586200 -0.08399940
v -0.21783100 0.81880700 -0.06299960
v -0.23881000 0.77686600 -0.06299960
v -0.17491900 0.83981100 -0.03499980
v -0.22569800 0.78736900 -0.05249970
v -0.12855000 0.88182000 -0.02626320
v -0.04457280 0.88182000 -0.00526333
v -0.14958900 0.86081600 -0.02626320
v -0.14696600 0.83981100 -0.02099990
v -0.15745600 0.80830400 -0.02626320
v 0.24490600 0.68589200 -0.02799980
v 0.18894100 0.61402900 -0.04199970
v 0.25193900 0.61402900 -0.04199970
v -0.20990400 0.75586200 -0.04199970
v -0.22045300 0.74535900 -0.04726300
v -0.26592800 0.61402900 -0.06999950
v 0.27989100 0.61402900 -0.05599960
v 0.28084500 0.61402900 -0.05784310
v 0.28692400 0.68589200 -0.06999950
v 0.29133500 0.61402900 -0.07884300
v 0.29389700 0.61402900 -0.08399940
v 0.31386300 0.61402900 -0.14798800
v 0.31493600 0.61402900 -0.16794500
v 0.31493600 0.67187800 -0.18894500
v 0.30963200 0.67187800 -0.21256300
v 0.30790300 0.65087300 -0.22394500
v 0.30259900 0.61402900 -0.23449800
v 0.28519600 0.61402900 -0.24580000
v 0.27804400 0.61402900 -0.24935300
v 0.27291800 0.61402900 -0.24999500
v 0.25193900 0.61402900 -0.25194500
v -0.08003500 0.62594300 -0.27294500
v -0.28863600 0.65352400 -0.23094500
v -0.29394100 0.65087300 -0.20994500
v -0.27290200 0.73485700 -0.20994500
v -0.27290200 0.75586200 -0.14694600
v -0.09743830 0.61402900 -0.27294500
v -0.27993400 0.61402900 -0.25894500
v -0.28702700 0.61402900 -0.24545300
v -0.29394100 0.61402900 -0.23094500
v -0.27290200 0.73485700 -0.10499900
v -0.29394100 0.65087300 -0.12599900
v -0.28863600 0.61940000 -0.09449940
v -0.25889500 0.73485700 -0.07699950
v -0.28076900 0.62990300 -0.08399940
v -0.28011300 0.61402900 -0.07870940
v -0.23791600 0.75586200 -0.05599960
v -0.22391000 0.77686600 -0.04899970
v -0.20990400 0.77686600 -0.04199970
v 0.26594500 0.61402900 -0.04899970
v -0.26592800 0.65087300 -0.06999950
v -0.27647800 0.61402900 -0.07528960
v 0.28692400 0.61402900 -0.06999950
v 0.31493600 0.61402900 -0.20994500
v 0.31493600 0.65087300 -0.20994500
v 0.30790300 0.61402900 -0.22394500
v -0.06412170 0.61402900 -0.27112800
v -0.29394100 0.67187800 -0.14694600
v -0.29394100 0.61402900 -0.12599900
v -0.29197400 0.61402900 -0.10499900
v -0.29131800 0.61402900 -0.09984290
v -0.28774200 0.61402900 -0.09270930
f 145 181 182
f 145 182 146
f 146 182 151
f 148 183 184
f 148 184 149
f 149 186 187
f 149 185 186
f 149 187 188
f 149 188 179
f 149 179 150
f 149 184 185
f 144 181 145
f 140 175 176
f 144 179 180
f 144 150 179
f 143 177 178
f 141 143 142
f 141 177 143
f 140 177 141
f 140 176 177
f 139 174 175
f 139 173 174
f 139 172 173
f 139 171 172
f 139 215 171
f 151 182 152
f 144 180 181
f 152 182 189
f 160 196 161
f 152 190 191
f 164 206 242
f 164 205 206
f 164 204 205
f 164 199 204
f 164 200 199
f 163 203 201
f 163 202 203
f 163 164 202
f 162 200 164
f 162 199 200
f 162 197 199
f 139 170 215
f 160 198 196
f 152 189 190
f 160 194 198
f 158 197 159
f 158 196 197
f 158 161 196
f 156 195 194
f 156 192 195
f 156 160 157
f 156 194 160
f 154 193 192
f 154 156 155
f 154 192 156
f 153 193 154
f 153 191 193
f 152 191 153
f 159 197 162
f 138 169 170
f 128 163 201
f 137 138 170
f 117 156 157
f 117 155 156
f 117 154 155
f 116 154 117
f 164 242 236
f 116 152 153
f 116 151 152
f 116 146 151
f 116 147 146
f 115 147 116
f 114 150 144
f 113 150 114
f 113 149 150
f 113 148 149
f 112 148 113
f 112 183 148
f 112 227 183
f 112 222 227
f 112 178 222
f 112 143 178
f 111 147 115
f 111 146 147
f 111 145 146
f 110 145 111
f 110 144 145
f 110 114 144
f 108 112 109
f 117 157 121
f 117 121 118
f 118 121 119
f 120 122 161
f 136 169 138
f 135 169 136
f 134 169 135
f 134 214 169
f 134 168 214
f 132 134 133
f 132 168 134
f 132 167 168
f 131 166 167
f 131 167 132
f 129 131 130
f 129 166 131
f 129 207 166
f 137 170 139
f 129 165 207
f 128 201 165
f 127 164 163
f 127 162 164
f 127 163 128
f 125 159 162
f 123 127 126
f 123 162 127
f 121 161 122
f 121 160 161
f 121 157 160
f 120 159 125
f 120 158 159
f 120 161 158
f 128 165 129
f 164 236 252
f 168 244 245
f 164 251 250
f 197 198 199
f 196 198 197
f 195 237 238
f 194 199 198
f 194 238 199
f 194 195 238
f 193 237 195
f 192 193 195
f 191 236 234
f 191 235 236
f 191 237 193
f 191 234 237
f 190 235 191
f 190 233 235
f 190 232 233
f 190 231 232
f 190 226 231
f 189 226 190
f 187 229 230
f 187 224 223
f 187 248 224
f 187 232 248
f 187 249 232
f 187 230 249
f 186 229 187
f 185 229 186
f 185 228 229
f 199 238 239
f 199 239 204
f 201 203 240
f 201 240 207
f 237 242 241
f 236 242 237
f 234 236 237
f 233 236 235
f 233 252 236
f 233 251 252
f 232 251 233
f 232 250 251
f 232 249 250
f 231 248 232
f 226 248 231
f 224 226 225
f 224 248 226
f 184 228 185
f 222 247 227
f 216 246 217
f 216 244 246
f 216 245 244
f 215 245 216
f 214 245 215
f 209 243 210
f 208 243 209
f 206 241 242
f 205 241 206
f 205 237 241
f 205 238 237
f 205 239 238
f 204 239 205
f 221 247 222
f 164 252 251
f 182 226 189
f 181 225 226
f 165 201 207
f 164 203 202
f 164 240 203
f 164 207 240
f 164 208 207
f 164 243 208
f 164 210 243
f 164 211 210
f 164 212 211
f 164 213 212
f 164 244 213
f 164 246 244
f 164 217 246
f 164 172 217
f 164 218 172
f 164 219 218
f 164 220 219
f 164 221 220
f 164 247 221
f 164 227 247
f 164 183 227
f 164 184 183
f 164 228 184
f 164 229 228
f 164 230 229
f 164 249 230
f 164 250 249
f 166 207 208
f 166 208 209
f 166 209 167
f 167 209 210
f 180 225 181
f 180 224 225
f 180 223 224
f 179 223 180
f 179 187 223
f 179 188 187
f 176 178 177
f 176 222 178
f 176 221 222
f 176 220 221
f 176 219 220
f 174 176 175
f 174 219 176
f 181 226 182
f 174 218 219
f 172 218 174
f 172 216 217
f 171 216 172
f 171 215 216
f 170 214 215
f 169 214 170
f 168 245 214
f 108 143 112
f 168 213 244
f 168 212 213
f 167 212 168
f 167 211 212
f 167 210 211
f 172 174 173
f 108 142 143
f 116 153 154
f 106 142 108
f 31 59 60
f 28 83 56
f 28 53 83
f 28 31 29
f 28 58 31
f 28 57 58
f 28 56 57
f 27 55 53
f 27 54 55
f 27 52 54
f 27 53 30
f 26 52 27
f 26 51 52
f 26 50 51
f 26 49 50
f 25 50 49
f 25 48 50
f 25 49 26
f 24 48 25
f 24 47 48
f 24 46 47
f 24 45 46
f 23 45 24
f 23 43 45
f 22 44 43
f 22 42 44
f 22 43 23
f 31 60 32
f 31 58 59
f 32 60 33
f 33 61 62
f 44 72 76
f 43 76 73
f 43 44 76
f 43 75 45
f 43 74 75
f 43 107 74
f 43 73 107
f 42 72 44
f 41 70 71
f 40 72 42
f 40 71 72
f 39 41 71
f 39 71 40
f 21 42 22
f 38 70 41
f 38 68 69
f 38 66 68
f 37 67 66
f 37 65 67
f 37 66 38
f 35 37 36
f 35 65 37
f 34 97 65
f 34 63 97
f 33 64 61
f 33 60 64
f 33 63 34
f 33 62 63
f 38 69 70
f 45 75 77
f 21 40 42
f 19 41 39
f 6 18 19
f 6 21 7
f 6 20 21
f 6 19 20
f 5 18 6
f 5 17 18
f 4 12 13
f 4 15 16
f 4 14 15
f 4 13 14
f 3 12 4
f 3 11 12
f 3 10 11
f 2 10 3
f 1 10 2
f 1 30 10
f 1 27 30
f 1 9 27
f 1 8 9
f 1 7 8
f 1 6 7
f 1 5 6
f 1 17 5
f 1 16 17
f 1 4 16
f 1 3 4
f 1 2 3
f 7 21 8
f 8 22 23
f 8 23 24
f 8 24 25
f 19 38 41
f 19 40 20
f 19 39 40
f 18 38 19
f 18 37 38
f 18 36 37
f 17 36 18
f 17 35 36
f 15 17 16
f 15 35 17
f 15 65 35
f 15 34 65
f 15 33 34
f 107 109 112
f 15 32 33
f 13 32 15
f 13 31 32
f 12 31 13
f 12 29 31
f 11 29 12
f 10 53 28
f 10 30 53
f 10 29 11
f 10 28 29
f 9 26 27
f 8 21 22
f 8 26 9
f 8 25 26
f 13 15 14
f 45 77 78
f 20 40 21
f 46 78 79
f 88 123 126
f 88 124 123
f 87 120 125
f 86 162 123
f 86 125 162
f 86 124 88
f 86 123 124
f 85 121 122
f 84 121 85
f 84 119 121
f 83 120 87
f 83 122 120
f 83 85 122
f 82 119 84
f 81 119 82
f 81 118 119
f 81 117 118
f 81 116 117
f 81 115 116
f 80 115 81
f 79 115 80
f 79 111 115
f 77 114 110
f 77 113 114
f 77 112 113
f 77 107 112
f 77 79 78
f 88 126 127
f 88 127 98
f 90 98 92
f 92 98 127
f 45 78 46
f 105 142 106
f 104 142 105
f 104 141 142
f 104 140 141
f 103 175 140
f 103 139 175
f 103 137 139
f 101 138 102
f 101 136 138
f 99 137 103
f 99 138 137
f 99 102 138
f 77 111 79
f 96 100 97
f 95 101 100
f 95 136 101
f 95 135 136
f 95 134 135
f 95 133 134
f 94 133 95
f 93 133 94
f 93 132 133
f 93 131 132
f 93 130 131
f 92 129 130
f 92 128 129
f 92 127 128
f 95 100 96
f 77 110 111
f 90 92 91
f 76 106 108
f 61 92 130
f 61 91 92
f 61 90 91
f 61 64 90
f 60 89 64
f 59 86 88
f 59 89 60
f 59 88 89
f 57 125 86
f 57 87 125
f 57 59 58
f 57 86 59
f 56 83 87
f 61 130 93
f 55 85 83
f 54 84 85
f 54 82 84
f 53 55 83
f 51 81 82
f 51 54 52
f 51 82 54
f 48 51 50
f 48 81 51
f 48 80 81
f 47 80 48
f 47 79 80
f 76 108 109
f 46 79 47
f 54 85 55
f 61 93 62
f 56 87 57
f 62 93 94
f 74 77 75
f 73 109 107
f 73 76 109
f 72 106 76
f 71 106 72
f 70 106 71
f 70 105 106
f 69 105 70
f 69 104 105
f 69 140 104
f 69 103 140
f 68 103 69
f 68 99 103
f 67 97 100
f 74 107 77
f 63 96 97
f 67 101 102
f 67 100 101
f 66 99 68
f 66 67 99
f 65 97 67
f 64 88 98
f 64 89 88
f 64 98 90
f 67 102 99
f 63 95 96
f 63 94 95
f 62 94 63

