o convex_0
v 0.125981 -0.104954 0.251949
v 0.105077 -0.104954 0.251949
v 0.105077 -0.146847 0.251926
v 0.105077 -0.14697 0.251904
v 0.11898 -0.153963 0.24495
v 0.139982 -0.111946 0.24495
v 0.153983 -0.0979611 0.23795
v 0.167968 -0.0629987 0.23095
v 0.195954 0.00698799 0.195953
v 0.174969 0.00698799 0.195953
v 0.105077 -0.0909686 0.24495
v 0.105077 -0.170485 0.246688
v 0.125981 -0.209903 0.23095
v 0.139982 -0.216895 0.223951
v 0.202955 -0.17494 0.202952
v 0.181969 -0.0699912 0.223951
v 0.195954 -0.0560062 0.216951
v 0.192454 -0.0384941 0.213452
v 0.18897 -0.0210438 0.209952
v 0.22044 0.0314926 0.178454
v 0.195954 0.0489429 0.174954
v 0.181969 0.0349579 0.181954
v 0.11898 -0.0490137 0.223951
v 0.110237 -0.0525409 0.220451
v 0.105077 -0.0819341 0.234631
v 0.105077 -0.230942 0.230928
v 0.125981 -0.233541 0.22569
v 0.136482 -0.236202 0.220451
v 0.246684 -0.136451 0.157456
v 0.244942 -0.132923 0.160955
v 0.237942 -0.118939 0.174954
v 0.157483 -0.257179 0.199453
v 0.178469 -0.278157 0.178454
v 0.199454 -0.278157 0.157456
v 0.22394 -0.258912 0.139957
v 0.237942 0.0909596 0.13298
v 0.216956 0.111937 0.13298
v 0.262444 -0.0525409 0.13648
v 0.202955 0.181924 0.0770062
v 0.187688 0.236626 0.0212811
v 0.105077 -0.0628749 0.21011
v 0.184862 0.230933 0.0212811
v 0.105077 -0.296473 0.204691
v 0.146982 -0.359529 0.162716
v 0.230941 -0.251919 0.12598
v 0.246684 -0.212563 0.104982
v 0.251943 -0.188925 0.104982
v 0.269444 -0.0665259 0.122481
v 0.262444 -0.0787782 0.13648
v 0.160984 -0.342884 0.160955
v 0.178469 -0.320173 0.157456
v 0.22044 -0.267637 0.13648
v 0.216956 -0.279889 0.12598
v 0.241442 0.115464 0.115481
v 0.216956 0.195909 0.0700067
v 0.272945 -0.0420212 0.104982
v 0.251943 0.0839671 0.104982
v 0.213456 0.213421 0.0455084
v 0.210235 0.230624 0.0212811
v 0.105077 -0.0628749 0.209952
v 0.178617 0.209956 0.0212811
v 0.105077 -0.338552 0.18367
v 0.105077 -0.380445 0.162716
v 0.11548 -0.383168 0.157456
v 0.136482 -0.372648 0.157456
v 0.153983 -0.363923 0.146956
v 0.157483 -0.351671 0.157456
v 0.225699 -0.262439 0.115481
v 0.246684 -0.220422 0.0944825
v 0.272945 -0.125931 0.0420087
v 0.272945 -0.0629987 0.104982
v 0.183728 -0.325433 0.13648
v 0.217827 -0.272897 0.104982
v 0.251943 0.125922 0.0839832
v 0.241442 0.136442 0.0944825
v 0.22044 0.220413 0.0315094
v 0.272945 -4.49018e-06 0.0630072
v 0.22044 0.220413 0.0212811
v 0.105077 -0.0629368 0.209771
v 0.18897 -4.49018e-06 0.0212811
v 0.105077 -0.356868 0.105004
v 0.105077 -0.333292 0.11022
v 0.105077 -0.207304 0.152172
v 0.105077 -0.380507 0.162671
v 0.105077 -0.390965 0.147047
v 0.11548 -0.393625 0.13648
v 0.125981 -0.385767 0.146956
v 0.110237 -0.388366 0.115481
v 0.204697 -0.283416 0.0944825
v 0.238813 -0.230942 0.0839832
v 0.246684 -0.199445 0.0525079
v 0.267686 -0.136451 0.0315094
v 0.272879 -0.105015 0.0212811
v 0.251943 0.125922 0.0420087
v 0.225551 0.210203 0.0212811
v 0.267686 0.0104533 0.0315094
v 0.267686 0.0209729 0.0393895
v 0.209955 -0.125931 0.0212811
v 0.210235 -0.127354 0.0212811
v 0.21505 -0.141834 0.0212811
v 0.21666 -0.146661 0.0212811
v 0.222494 -0.155386 0.0212811
v 0.105077 -0.377908 0.109678
v 0.105077 -0.391026 0.146866
v 0.105077 -0.395544 0.12598
v 0.105077 -0.388366 0.115481
v 0.105077 -0.380445 0.110243
v 0.231237 -0.157552 0.0212811
v 0.251368 -0.147527 0.0212811
v 0.237942 -0.20291 0.0490082
v 0.216956 -0.244927 0.0700067
v 0.252041 -0.147032 0.0212811
v 0.25237 -0.146661 0.0212811
v 0.265139 -0.12624 0.0212811
v 0.251943 0.105254 0.0212811
v 0.247341 0.125922 0.0212811
v 0.251795 -0.147218 0.0212811
f 1 2 3
f 1 3 4
f 1 4 5
f 1 5 6
f 1 6 7
f 1 7 8
f 1 8 9
f 1 9 10
f 1 10 2
f 2 10 11
f 2 11 25
f 2 25 41
f 2 41 60
f 2 60 79
f 2 79 83
f 2 83 82
f 2 82 81
f 2 81 103
f 2 103 107
f 2 107 106
f 2 106 105
f 2 105 104
f 2 104 85
f 2 85 84
f 2 84 63
f 2 63 62
f 2 62 43
f 2 43 26
f 2 26 12
f 2 12 4
f 2 4 3
f 4 12 13
f 4 13 5
f 5 13 14
f 5 14 6
f 6 14 15
f 6 15 7
f 7 16 8
f 7 15 16
f 8 16 17
f 8 17 18
f 8 18 19
f 8 19 9
f 9 19 20
f 9 20 21
f 9 21 22
f 9 22 10
f 10 22 11
f 11 22 23
f 11 23 24
f 11 24 25
f 12 26 27
f 12 27 13
f 13 27 14
f 14 27 28
f 14 28 15
f 15 29 30
f 15 30 31
f 15 31 17
f 15 17 16
f 15 28 32
f 15 32 33
f 15 33 34
f 15 34 35
f 15 35 29
f 17 20 18
f 17 31 20
f 18 20 19
f 20 36 37
f 20 37 21
f 20 31 38
f 20 38 36
f 21 37 22
f 22 37 39
f 22 39 23
f 23 39 40
f 23 40 24
f 24 41 25
f 24 40 42
f 24 42 41
f 26 43 27
f 27 43 44
f 27 44 28
f 28 44 32
f 29 35 45
f 29 45 46
f 29 46 47
f 29 47 48
f 29 48 49
f 29 49 30
f 30 49 31
f 31 49 38
f 32 44 33
f 33 44 50
f 33 50 51
f 33 51 34
f 34 51 35
f 35 51 52
f 35 52 53
f 35 53 45
f 36 54 37
f 36 38 57
f 36 57 54
f 37 54 55
f 37 55 39
f 38 49 48
f 38 48 56
f 38 56 57
f 39 55 40
f 40 55 58
f 40 58 59
f 40 59 78
f 40 78 95
f 40 95 116
f 40 116 115
f 40 115 93
f 40 93 114
f 40 114 113
f 40 113 112
f 40 112 117
f 40 117 109
f 40 109 108
f 40 108 102
f 40 102 101
f 40 101 100
f 40 100 99
f 40 99 98
f 40 98 80
f 40 80 61
f 40 61 42
f 41 42 61
f 41 61 60
f 43 62 44
f 44 62 63
f 44 63 64
f 44 64 65
f 44 65 66
f 44 66 67
f 44 67 50
f 45 68 69
f 45 69 46
f 45 53 68
f 46 69 47
f 47 70 48
f 47 69 70
f 48 71 56
f 48 70 71
f 50 67 51
f 51 67 66
f 51 66 72
f 51 72 52
f 52 72 53
f 53 72 73
f 53 73 68
f 54 74 75
f 54 75 55
f 54 57 74
f 55 76 58
f 55 75 76
f 56 71 70
f 56 70 77
f 56 77 74
f 56 74 57
f 58 76 59
f 59 76 78
f 60 61 79
f 61 80 81
f 61 81 82
f 61 82 83
f 61 83 79
f 63 84 64
f 64 85 86
f 64 86 87
f 64 87 65
f 64 84 85
f 65 87 66
f 66 87 86
f 66 86 88
f 66 88 89
f 66 89 72
f 68 73 90
f 68 90 69
f 69 90 91
f 69 91 92
f 69 92 70
f 70 92 93
f 70 93 77
f 72 89 73
f 73 89 90
f 74 94 95
f 74 95 76
f 74 76 75
f 74 77 94
f 76 95 78
f 77 96 97
f 77 97 94
f 77 93 96
f 80 98 81
f 81 98 99
f 81 99 100
f 81 100 101
f 81 101 102
f 81 102 103
f 85 104 86
f 86 104 105
f 86 105 88
f 88 105 106
f 88 106 107
f 88 107 108
f 88 108 109
f 88 109 110
f 88 110 91
f 88 91 111
f 88 111 89
f 89 111 91
f 89 91 90
f 91 112 113
f 91 113 114
f 91 114 92
f 91 110 112
f 92 114 93
f 93 115 96
f 94 97 115
f 94 115 116
f 94 116 95
f 96 115 97
f 102 108 107
f 102 107 103
f 109 117 110
f 110 117 112
o convex_1
v -0.216848 -0.311491 0.129422
v -0.216848 -0.308798 0.141417
v -0.216848 -0.300968 0.0980974
v -0.195945 -0.321931 0.118986
v -0.0944943 -0.388382 0.115485
v -0.17495 -0.342894 0.139974
v -0.209953 -0.309668 0.149597
v -0.216848 -0.30623 0.144437
v -0.16096 -0.349895 0.153977
v -0.216848 -0.300802 0.0979315
v -0.0314757 -0.396792 0.10709
v -0.0314757 -0.409469 0.115502
v -0.0314757 -0.419951 0.125954
v -0.104982 -0.383162 0.144354
v -0.216848 -0.279798 0.0874292
v -0.216848 -0.272921 0.0839948
v -0.199447 -0.304407 0.162721
v -0.216848 -0.294174 0.153911
v -0.157458 -0.346415 0.162721
v -0.0944943 -0.388382 0.152235
v -0.0314757 -0.377901 0.104983
v -0.209953 -0.272921 0.0839948
v -0.0314757 -0.415974 0.151555
v -0.0839882 -0.393644 0.149597
v -0.216848 -0.251917 0.0824518
v -0.188959 -0.293925 0.175828
v -0.216848 -0.203073 0.203801
v -0.146952 -0.335892 0.175828
v -0.167965 -0.31493 0.175828
v -0.115488 -0.36742 0.162721
v -0.0314757 -0.409387 0.162737
v -0.0314757 -0.26244 0.152235
v -0.216848 -0.230912 0.0845423
v -0.216848 -0.188987 0.0910461
v -0.216848 -0.17486 0.0946464
v -0.216848 -0.105011 0.113511
v -0.216848 -0.0279127 0.136639
v -0.216848 -0.0210356 0.138945
v -0.167965 -0.272921 0.196833
v -0.216848 -0.195864 0.206505
v -0.199447 -0.220431 0.204697
v -0.125958 -0.31493 0.196833
v -0.104982 -0.356897 0.175828
v -0.0314757 -0.31493 0.209956
v -0.042 -0.31493 0.209956
v -0.042 -0.328932 0.202955
v -0.0525061 -0.325411 0.204697
v -0.115488 -0.304407 0.204697
v -0.042 -0.230912 0.160099
v -0.0314757 -0.251917 0.157478
v -0.216848 -0.014117 0.143541
v -0.0314757 -0.136497 0.215199
v -0.042 -0.146978 0.202075
v -0.157458 -0.26244 0.204697
v -0.136464 -0.136497 0.24669
v -0.199447 -0.0735255 0.225701
v -0.209953 -0.0840069 0.217821
v -0.216848 -0.0840069 0.210504
v -0.115488 -0.241435 0.225701
v -0.0314757 -0.283402 0.225701
v -0.0314938 -0.283402 0.225701
v -0.0944943 -0.26244 0.225701
v -0.0314757 -0.230912 0.167964
v -0.216848 -0.000362712 0.153861
v -0.216848 -0.00011414 0.154309
v -0.0314757 -0.132975 0.222201
v -0.115488 -0.157501 0.24669
v -0.104982 -0.146978 0.251949
v -0.104982 -0.126015 0.251949
v -0.209953 -0.0419984 0.209956
v -0.216848 -0.0282441 0.203054
v -0.216848 -0.0419984 0.206505
v -0.0314757 -0.20995 0.251949
v -0.042 -0.20995 0.251949
v -0.0629941 -0.188987 0.251949
v -0.216848 0.003283 0.161078
v -0.0314757 -0.131235 0.225685
v -0.0735002 -0.115493 0.241447
v -0.111986 -0.112013 0.244947
v -0.042 -0.146978 0.251949
v -0.16096 -0.0560012 0.216941
v -0.216848 -0.028037 0.202922
v -0.0314757 -0.167983 0.251949
v -0.216848 -0.00011414 0.167847
v -0.206451 -0.0175141 0.192452
v -0.143468 -0.0595227 0.21344
v -0.042 -0.126015 0.230944
v -0.0314757 -0.136497 0.241447
v -0.049004 -0.132975 0.244947
v -0.0314757 -0.149091 0.249842
v -0.216848 -0.0279127 0.202839
v -0.216848 -0.0191713 0.193282
f 118 119 125
f 118 125 135
f 118 135 144
f 118 144 157
f 118 157 175
f 118 175 189
f 118 189 188
f 118 188 199
f 118 199 208
f 118 208 209
f 118 209 201
f 118 201 193
f 118 193 182
f 118 182 181
f 118 181 168
f 118 168 155
f 118 155 154
f 118 154 153
f 118 153 152
f 118 152 151
f 118 151 150
f 118 150 142
f 118 142 133
f 118 133 132
f 118 132 127
f 118 127 120
f 118 120 121
f 118 121 122
f 118 122 123
f 118 123 119
f 119 124 125
f 119 123 126
f 119 126 124
f 120 122 121
f 120 127 122
f 122 128 129
f 122 129 130
f 122 130 131
f 122 131 123
f 122 127 132
f 122 132 133
f 122 133 128
f 123 131 126
f 124 134 135
f 124 135 125
f 124 126 136
f 124 136 134
f 126 131 137
f 126 137 136
f 128 138 149
f 128 149 167
f 128 167 180
f 128 180 169
f 128 169 183
f 128 183 194
f 128 194 205
f 128 205 207
f 128 207 200
f 128 200 190
f 128 190 177
f 128 177 161
f 128 161 148
f 128 148 140
f 128 140 130
f 128 130 129
f 128 133 139
f 128 139 138
f 130 140 141
f 130 141 131
f 131 141 137
f 133 142 139
f 134 136 146
f 134 146 143
f 134 143 144
f 134 144 135
f 136 145 146
f 136 137 147
f 136 147 160
f 136 160 145
f 137 141 140
f 137 140 148
f 137 148 147
f 138 139 142
f 138 142 150
f 138 150 151
f 138 151 152
f 138 152 153
f 138 153 154
f 138 154 155
f 138 155 149
f 143 146 156
f 143 156 144
f 144 156 158
f 144 158 157
f 145 159 146
f 145 160 159
f 146 159 156
f 147 148 160
f 148 161 162
f 148 162 163
f 148 163 164
f 148 164 165
f 148 165 159
f 148 159 160
f 149 155 166
f 149 166 167
f 155 168 169
f 155 169 170
f 155 170 166
f 156 171 158
f 156 159 171
f 157 172 173
f 157 173 174
f 157 174 175
f 157 158 176
f 157 176 172
f 158 171 179
f 158 179 176
f 159 165 171
f 161 177 178
f 161 178 162
f 162 164 163
f 162 178 164
f 164 178 179
f 164 179 165
f 165 179 171
f 166 180 167
f 166 170 180
f 168 181 169
f 169 180 170
f 169 181 182
f 169 182 183
f 172 176 184
f 172 184 185
f 172 185 186
f 172 186 173
f 173 186 187
f 173 187 188
f 173 188 189
f 173 189 174
f 174 189 175
f 176 179 184
f 177 190 191
f 177 191 178
f 178 191 179
f 179 191 192
f 179 192 184
f 182 193 183
f 183 193 194
f 184 192 185
f 185 192 191
f 185 191 190
f 185 190 200
f 185 200 197
f 185 197 186
f 186 195 196
f 186 196 187
f 186 197 195
f 187 198 188
f 187 196 198
f 188 198 199
f 193 201 202
f 193 202 203
f 193 203 204
f 193 204 194
f 194 204 205
f 195 197 206
f 195 206 205
f 195 205 203
f 195 203 198
f 195 198 196
f 197 200 207
f 197 207 205
f 197 205 206
f 198 203 202
f 198 202 208
f 198 208 199
f 201 209 202
f 202 209 208
f 203 205 204
o convex_2
v -0.216848 -0.0839775 0.21051
v -0.216848 -0.0420194 0.206509
v -0.251958 -0.0210159 0.188949
v -0.265957 -0.0210159 0.181948
v -0.265957 -0.146939 0.181948
v -0.262449 -0.157465 0.183707
v -0.220462 -0.199423 0.204694
v -0.216848 -0.195849 0.206509
v -0.216848 -0.0282129 0.203064
v -0.258952 -0.00701359 0.181948
v -0.267706 -0.0105387 0.178447
v -0.283442 0.0104649 0.162703
v -0.288688 0.0104649 0.157461
v -0.286939 -0.125936 0.160961
v -0.283442 -0.136462 0.162703
v -0.278185 -0.146939 0.165333
v -0.241455 -0.283437 0.131214
v -0.216965 -0.293915 0.15396
v -0.216848 -0.294159 0.153886
v -0.216848 -0.203046 0.203805
v -0.216848 -0.0280171 0.202934
v -0.216965 -0.0280171 0.202953
v -0.258952 0.0349445 0.160961
v -0.278185 0.0314684 0.157461
v -0.300939 0.0419456 0.132955
v -0.309681 0.0524719 0.115488
v -0.307933 -0.104932 0.11897
v -0.293933 -0.125936 0.146958
v -0.309681 -0.0734513 0.115488
v -0.286939 -0.139938 0.15396
v -0.278185 -0.230953 0.102355
v -0.286939 -0.223952 0.0909823
v -0.244952 -0.286914 0.111987
v -0.223958 -0.307917 0.132955
v -0.220462 -0.304392 0.141716
v -0.216848 -0.306203 0.144421
v -0.216848 -0.0279192 0.202841
v -0.223958 0.00698875 0.174946
v -0.248461 0.0454707 0.150459
v -0.265957 0.0699503 0.132955
v -0.279934 0.055948 0.139957
v -0.300939 0.097955 0.0979839
v -0.299179 0.0734754 0.115488
v -0.309681 0.0944789 0.0944831
v -0.314927 0.0419456 0.104986
v -0.314927 0.0839527 0.0839992
v -0.314927 -0.0839775 0.104986
v -0.31143 -0.101456 0.108486
v -0.309681 -0.17842 0.0734968
v -0.307933 -0.181945 0.069996
v -0.300939 -0.195947 0.0559928
v -0.286939 -0.223952 0.069996
v -0.279934 -0.237905 0.0769976
v -0.234461 -0.29744 0.101485
v -0.216848 -0.311491 0.129417
v -0.216848 -0.308798 0.141401
v -0.216848 -0.0192044 0.193284
v -0.216848 -0.00011034 0.167852
v -0.278325 0.183536 0.0212811
v -0.283442 0.178444 0.0315056
v -0.299179 0.178444 0.0315056
v -0.286939 0.111957 0.0909823
v -0.309681 0.15744 0.0315056
v -0.314927 0.12596 0.042008
v -0.33592 -1.242e-05 0.042008
v -0.33592 -0.0210159 0.042008
v -0.33592 -0.0417257 0.0212811
v -0.314927 -0.167943 0.042008
v -0.307933 -0.181945 0.0489911
v -0.31143 -0.164466 0.024504
v -0.302384 -0.176413 0.0212811
v -0.283442 -0.220427 0.0524919
v -0.276437 -0.234429 0.0594936
v -0.216965 -0.300916 0.0979839
v -0.216848 -0.300965 0.098095
v -0.216848 0.00326785 0.161073
v -0.273091 0.16782 0.0212811
v -0.293653 0.188676 0.0212811
v -0.294073 0.188676 0.0212811
v -0.306849 0.168211 0.0212811
v -0.307129 0.167673 0.0212811
v -0.314787 0.147208 0.0212811
v -0.33592 -1.242e-05 0.0212811
v -0.33578 0.0212359 0.0212811
v -0.335815 0.0209911 0.0212811
v -0.335862 -0.0420194 0.0212811
v -0.314647 -0.148359 0.0212811
v -0.309821 -0.162851 0.0212811
v -0.308213 -0.167649 0.0212811
v -0.293653 -0.178567 0.0212811
v -0.265957 -0.223952 0.0489911
v -0.216848 -0.300818 0.0979283
v -0.216848 -0.00011034 0.154293
v -0.216848 -0.000355135 0.153849
v -0.216848 -0.0141127 0.143513
v -0.216848 -0.0210159 0.138919
v -0.251958 -1.242e-05 0.0212811
v -0.27639 -0.167159 0.0212811
v -0.262449 -0.17842 0.0262452
v -0.216848 -0.286914 0.0909823
v -0.216848 -0.0279192 0.136622
v -0.251958 -0.0210159 0.0212811
v -0.216848 -0.104932 0.113525
v -0.216848 -0.174846 0.0946498
v -0.216848 -0.188946 0.0910379
v -0.216848 -0.230953 0.0845364
v -0.216848 -0.251908 0.0824618
v -0.275504 -0.166425 0.0212811
v -0.257203 -0.17842 0.0315056
v -0.216848 -0.272911 0.0839992
v -0.266435 -0.149779 0.0212811
v -0.265001 -0.146939 0.0212811
v -0.264862 -0.146645 0.0212811
v -0.262309 -0.125936 0.0212811
f 210 211 212
f 210 212 213
f 210 213 214
f 210 214 215
f 210 215 216
f 210 216 217
f 210 217 229
f 210 229 228
f 210 228 245
f 210 245 265
f 210 265 264
f 210 264 284
f 210 284 301
f 210 301 309
f 210 309 319
f 210 319 316
f 210 316 315
f 210 315 314
f 210 314 313
f 210 313 312
f 210 312 310
f 210 310 305
f 210 305 304
f 210 304 303
f 210 303 302
f 210 302 285
f 210 285 267
f 210 267 266
f 210 266 246
f 210 246 230
f 210 230 218
f 210 218 211
f 211 218 212
f 212 218 219
f 212 219 213
f 213 219 220
f 213 220 221
f 213 221 222
f 213 222 223
f 213 223 214
f 214 223 215
f 215 223 224
f 215 224 225
f 215 225 226
f 215 226 227
f 215 227 216
f 216 227 228
f 216 228 229
f 216 229 217
f 218 230 231
f 218 231 219
f 219 231 232
f 219 232 233
f 219 233 221
f 219 221 220
f 221 233 234
f 221 234 222
f 222 234 235
f 222 235 223
f 223 236 237
f 223 237 224
f 223 235 238
f 223 238 236
f 224 239 225
f 224 237 239
f 225 239 241
f 225 241 240
f 225 240 226
f 226 240 241
f 226 241 242
f 226 242 243
f 226 243 244
f 226 244 227
f 227 244 245
f 227 245 228
f 230 246 247
f 230 247 248
f 230 248 232
f 230 232 231
f 232 248 249
f 232 249 250
f 232 250 233
f 233 250 251
f 233 251 252
f 233 252 234
f 234 252 253
f 234 253 235
f 235 254 256
f 235 256 238
f 235 253 255
f 235 255 254
f 236 238 256
f 236 256 257
f 236 257 258
f 236 258 237
f 237 258 239
f 239 258 241
f 241 258 259
f 241 259 260
f 241 260 261
f 241 261 262
f 241 262 242
f 242 263 243
f 242 262 263
f 243 263 264
f 243 264 265
f 243 265 244
f 244 265 245
f 246 266 247
f 247 266 267
f 247 267 268
f 247 268 269
f 247 269 248
f 248 269 249
f 249 269 270
f 249 270 271
f 249 271 251
f 249 251 250
f 251 271 270
f 251 270 253
f 251 253 252
f 253 270 272
f 253 272 273
f 253 273 255
f 254 255 274
f 254 274 275
f 254 275 256
f 255 273 274
f 256 258 257
f 256 275 258
f 258 275 276
f 258 276 277
f 258 277 259
f 259 277 278
f 259 278 260
f 260 278 279
f 260 279 261
f 261 279 280
f 261 280 281
f 261 281 282
f 261 282 262
f 262 282 263
f 263 283 264
f 263 282 283
f 264 283 284
f 267 285 268
f 268 286 306
f 268 306 311
f 268 311 323
f 268 323 322
f 268 322 321
f 268 321 320
f 268 320 317
f 268 317 307
f 268 307 299
f 268 299 280
f 268 280 298
f 268 298 297
f 268 297 296
f 268 296 295
f 268 295 276
f 268 276 292
f 268 292 294
f 268 294 293
f 268 293 291
f 268 291 290
f 268 290 289
f 268 289 288
f 268 288 287
f 268 287 269
f 268 285 286
f 269 287 288
f 269 288 270
f 270 288 289
f 270 289 290
f 270 290 272
f 272 290 291
f 272 291 273
f 273 291 293
f 273 293 274
f 274 292 276
f 274 276 275
f 274 293 294
f 274 294 292
f 276 295 277
f 277 296 279
f 277 279 278
f 277 295 296
f 279 297 298
f 279 298 280
f 279 296 297
f 280 299 300
f 280 300 282
f 280 282 281
f 282 300 283
f 283 300 301
f 283 301 284
f 285 302 286
f 286 302 303
f 286 303 304
f 286 304 305
f 286 305 306
f 299 307 308
f 299 308 300
f 300 308 301
f 301 308 309
f 305 310 306
f 306 310 312
f 306 312 313
f 306 313 314
f 306 314 315
f 306 315 316
f 306 316 311
f 307 317 308
f 308 318 319
f 308 319 309
f 308 317 320
f 308 320 321
f 308 321 322
f 308 322 323
f 308 323 311
f 308 311 318
f 311 316 319
f 311 319 318
o convex_3
v 0.0419782 -0.167981 0.272945
v 0.0210085 -0.167981 0.272945
v 0.0419782 -0.230954 0.251928
v 1.21537e-05 -0.230954 0.251928
v 0.0210085 -0.335926 0.209937
v -0.0104927 -0.241489 0.246695
v 0.0105037 -0.346414 0.204704
v -0.0314757 -0.28344 0.225699
v -0.0314757 -0.209979 0.251928
v -0.0314757 -0.167981 0.251928
v -0.0314757 -0.149093 0.249843
v 0.0140053 -0.154012 0.265939
v -0.0314757 -0.136517 0.241441
v 0.0979774 -0.090992 0.244944
v 0.105061 -0.105007 0.251928
v 0.105061 -0.090992 0.244944
v 0.105061 -0.0819891 0.234644
v 0.105061 -0.0628232 0.210104
v 0.105061 -0.146912 0.251928
v 0.0559846 -0.174988 0.265939
v 0.104967 -0.170626 0.246695
v 0.105061 -0.231001 0.230933
v 0.0559846 -0.237962 0.244944
v 0.0839709 -0.317549 0.204704
v 0.105061 -0.296527 0.204704
v 0.0944757 -0.320148 0.199449
v 0.0944757 -0.362146 0.178454
v 0.0839709 -0.401499 0.162733
v 0.0419782 -0.338525 0.204704
v 0.0629745 -0.468881 0.132981
v 0.0210085 -0.363909 0.195947
v -0.0104927 -0.451386 0.141737
v 1.21537e-05 -0.454866 0.139986
v 0.0419782 -0.489857 0.111985
v 0.0629745 -0.531855 0.0699935
v 0.0944792 -0.561627 0.0314955
v 0.0734794 -0.45663 0.136483
v 0.076981 -0.447905 0.139986
v 0.0787318 -0.464519 0.125975
v 0.0995838 -0.569284 0.021281
v 0.0996905 -0.569159 0.021281
v 0.105061 -0.380523 0.162691
v 0.105061 -0.356902 0.105
v 0.105061 -0.062916 0.209791
v -0.0314757 -0.131273 0.225678
v -0.0314757 -0.136517 0.215191
v 0.0356695 -0.481185 0.021281
v 0.0419969 -0.478028 0.021281
v 0.0629816 -0.472269 0.021281
v 0.0692269 -0.473833 0.021281
v 0.104836 -0.525034 0.021281
v 0.0909749 -0.4969 0.021281
v 0.0784267 -0.480465 0.021281
v 0.0767936 -0.479025 0.021281
v 0.105061 -0.20738 0.152183
v 0.104836 -0.546024 0.021281
v 0.0839827 -0.56999 0.021281
v 0.0523538 -0.545594 0.021281
v 0.0377376 -0.508142 0.021281
v 0.036605 -0.503601 0.021281
v 0.0279961 -0.47591 0.0279948
v 0.021004 -0.482916 0.0419901
v -0.0314757 -0.396812 0.107085
v -0.0314757 -0.409481 0.115508
v -0.0279875 -0.426883 0.11899
v 0.0418492 -0.524605 0.021281
v -0.0209842 -0.440898 0.125975
v -0.0314757 -0.419922 0.125954
v -0.0314757 -0.415978 0.151558
v -0.0139943 -0.454866 0.132981
v 0.0489972 -0.538879 0.0489877
v -0.0314757 -0.409388 0.162733
v -0.0314757 -0.377878 0.104979
v -0.0314757 -0.262511 0.152225
v 0.0524933 -0.53539 0.0577375
v 0.0629816 -0.551133 0.0393674
v 0.069982 -0.559883 0.0279948
v 0.079748 -0.568426 0.021281
v 0.0632688 -0.556518 0.021281
v 0.0580001 -0.552379 0.021281
v 0.0839827 -0.559883 0.0349962
v 0.105061 -0.170626 0.246653
f 325 326 324
f 327 326 325
f 327 328 326
f 329 328 327
f 329 330 328
f 329 331 330
f 329 332 331
f 329 327 332
f 327 325 332
f 333 332 325
f 333 334 332
f 333 325 334
f 335 334 325
f 335 336 334
f 335 337 336
f 335 325 337
f 337 325 338
f 339 337 338
f 340 337 339
f 340 341 337
f 340 339 341
f 339 338 341
f 338 342 341
f 338 324 342
f 325 324 338
f 343 342 324
f 343 344 342
f 343 345 344
f 343 324 345
f 346 345 324
f 347 345 346
f 347 348 345
f 349 348 347
f 349 350 348
f 349 347 350
f 347 351 350
f 352 351 347
f 352 353 351
f 352 354 353
f 352 328 354
f 352 326 328
f 352 347 326
f 347 346 326
f 346 324 326
f 354 328 330
f 354 330 355
f 356 354 355
f 356 353 354
f 356 357 353
f 356 355 357
f 357 355 358
f 357 358 353
f 359 353 358
f 360 353 359
f 360 351 353
f 360 361 351
f 360 362 361
f 360 359 362
f 362 359 363
f 362 363 364
f 362 364 365
f 361 362 365
f 361 365 351
f 350 351 365
f 350 365 348
f 365 341 348
f 366 341 365
f 367 341 366
f 368 341 367
f 336 341 368
f 336 337 341
f 336 368 334
f 368 369 334
f 368 367 369
f 367 370 369
f 371 370 367
f 371 372 370
f 371 367 372
f 372 367 373
f 372 373 370
f 373 374 370
f 375 374 373
f 375 367 374
f 376 367 375
f 377 367 376
f 377 373 367
f 377 376 373
f 376 375 373
f 378 374 367
f 378 366 374
f 378 367 366
f 374 366 379
f 374 379 370
f 370 379 380
f 381 370 380
f 382 370 381
f 383 370 382
f 383 384 370
f 385 384 383
f 385 386 384
f 385 387 386
f 385 388 387
f 385 389 388
f 385 382 389
f 385 383 382
f 389 382 381
f 389 381 388
f 388 381 390
f 388 390 391
f 387 388 391
f 387 391 386
f 391 392 386
f 391 393 392
f 391 390 393
f 393 390 381
f 393 381 394
f 393 394 355
f 393 355 395
f 393 395 392
f 395 332 392
f 331 332 395
f 331 395 330
f 330 395 355
f 392 332 396
f 386 392 396
f 384 386 396
f 384 396 397
f 384 397 370
f 397 369 370
f 397 396 369
f 369 396 332
f 334 369 332
f 398 355 394
f 398 358 355
f 398 399 358
f 398 394 399
f 400 399 394
f 401 399 400
f 401 380 399
f 401 402 380
f 401 400 402
f 400 394 402
f 403 402 394
f 403 381 402
f 403 394 381
f 402 381 380
f 399 380 358
f 404 358 380
f 359 358 404
f 359 404 363
f 404 380 363
f 363 380 379
f 364 363 379
f 364 379 365
f 366 365 379
f 342 348 341
f 345 348 342
f 405 345 342
f 405 344 345
f 405 342 344
o convex_4
v 0.0839255 0.96577 -0.167945
v 0.0629462 0.96577 -0.146946
v 0.0804686 0.962292 -0.150446
v 0.125944 0.9448 -0.125999
v 0.0979315 0.95878 -0.174945
v 0.0944747 0.955302 -0.183709
v 0.0839255 0.95878 -0.181945
v -0.05244 0.960536 -0.199445
v -0.0629297 0.96577 -0.167945
v 0.0419668 0.96577 -0.125999
v 0.0734358 0.955302 -0.115499
v 0.0944747 0.955302 -0.136472
v 0.136433 0.934298 -0.0944994
v 0.153956 0.930785 -0.118999
v 0.195914 0.909815 -0.118999
v 0.13995 0.93781 -0.132999
v 0.13995 0.93781 -0.174945
v 0.178452 0.913293 -0.194209
v 0.157413 0.913293 -0.204709
v 0.0839255 0.9448 -0.196827
v 0.0629462 0.95179 -0.195945
v -0.05244 0.955302 -0.204709
v -0.104948 0.930785 -0.216945
v -0.125927 0.931681 -0.209945
v -0.115438 0.939532 -0.199445
v -0.0734789 0.960536 -0.178445
v -0.0629297 0.96577 -0.146946
v 0.0419668 0.9448 -0.0629996
v 0.0839255 0.9448 -0.0839994
v -0.0209711 0.96577 -0.125999
v 0.115454 0.934298 -0.0734995
v 0.178452 0.913293 -0.0944994
v 0.22041 0.871318 -0.0734995
v 0.216953 0.888811 -0.118999
v 0.195914 0.909815 -0.160945
v 0.181908 0.916805 -0.174945
v 0.202947 0.895801 -0.195945
v 0.199431 0.892288 -0.204709
v 0.125944 0.902791 -0.217827
v 0.104964 0.909815 -0.216945
v 0.167962 0.88182 -0.217827
v 0.0209875 0.930785 -0.216945
v -0.125927 0.916805 -0.223945
v 0.0209875 0.916805 -0.223945
v -0.136417 0.918561 -0.220445
v -0.157456 0.908059 -0.220445
v -0.167945 0.910676 -0.209945
v -0.157456 0.918561 -0.199445
v -0.104948 0.9448 -0.188945
v -0.118954 0.93781 -0.188945
v -0.118954 0.93781 -0.125999
v -0.104948 0.9448 -0.125999
v -0.0419504 0.9448 -0.0629996
v -0.10757 0.939532 -0.104999
v -0.0656117 0.939532 -0.0629996
v 0.034934 0.93781 -0.0489997
v 0.0489401 0.930785 -0.0349998
v 0.0734358 0.934298 -0.0524997
v 0.115454 0.913293 -0.0314998
v 0.178452 0.892288 -0.0524997
v 0.241449 0.829309 -0.0524997
v 0.241449 0.850314 -0.0944994
v 0.237933 0.867806 -0.118999
v 0.178452 0.871318 -0.0314998
v 0.216953 0.888811 -0.181945
v 0.241449 0.850314 -0.204709
v 0.244906 0.853826 -0.195945
v 0.2309 0.839811 -0.217827
v 0.22041 0.829309 -0.225682
v 0.157413 0.871318 -0.225682
v 0.115454 0.892288 -0.225682
v 0.0314772 0.913293 -0.225682
v -0.125927 0.902791 -0.230945
v -0.188925 0.853826 -0.244945
v -0.146966 0.905408 -0.225682
v 0.0209875 0.902791 -0.230945
v -0.209904 0.842428 -0.246682
v -0.199414 0.855547 -0.241445
v -0.178435 0.897557 -0.220445
v -0.174919 0.909815 -0.188945
v -0.174919 0.909815 -0.146946
v -0.13296 0.930785 -0.125999
v -0.0489832 0.93781 -0.0489997
v -0.110193 0.934298 -0.0944994
v -0.0682341 0.934298 -0.0524997
v 0.069979 0.909815 -0.0139999
v -0.0349771 0.930785 -0.0349998
v 0.136433 0.871318 -0.0104999
v 0.157413 0.892288 -0.0314998
v 0.22041 0.829309 -0.0314998
v 0.237933 0.804826 -0.0349998
v 0.241449 0.787369 -0.0314998
v 0.262428 0.808304 -0.0734995
v 0.258912 0.825831 -0.0979993
v 0.262428 0.829309 -0.136472
v 0.255396 0.843323 -0.143446
v 0.237933 0.867806 -0.181945
v 0.178452 0.829309 -0.0104999
v 0.262428 0.808304 -0.215182
v 0.257184 0.839811 -0.165327
v 0.262428 0.829309 -0.173209
v 0.265945 0.811817 -0.195945
v 0.262428 0.787369 -0.225682
v 0.209921 0.818807 -0.230945
v 0.146923 0.860816 -0.230945
v 0.104964 0.88182 -0.230945
v -0.188925 0.839811 -0.251945
v 0.0419668 0.818807 -0.251945
v -0.0839686 0.839811 -0.251945
v -0.220453 0.834577 -0.241445
v -0.216937 0.846801 -0.230945
v -0.230943 0.734857 -0.272945
v -0.244949 0.741881 -0.265945
v -0.22391 0.825831 -0.244945
v -0.195958 0.888811 -0.188945
v -0.237916 0.825831 -0.125999
v -0.195958 0.867806 -0.0839994
v -0.174919 0.888811 -0.0839994
v -0.153939 0.909815 -0.104999
v -0.0699625 0.916805 -0.0279998
v -0.152211 0.892288 -0.0524997
v -0.0892134 0.913293 -0.0314998
v 0.0629462 0.88182 -2.77556e-17
v 0.0944747 0.892288 -0.0104999
v -0.0139382 0.909815 -0.0139999
v 0.104964 0.860816 -2.77556e-17
v 0.167962 0.797836 -2.77556e-17
v 0.2309 0.755862 -0.0209999
v 0.258912 0.741881 -0.0349998
v 0.262428 0.766364 -0.0524997
v 0.283408 0.724355 -0.0734995
v 0.293897 0.734857 -0.104999
v 0.272918 0.797836 -0.104999
v 0.293897 0.755862 -0.146946
v 0.269402 0.815329 -0.150446
v 0.267673 0.818807 -0.17059
v 0.283408 0.766364 -0.215182
v 0.286924 0.769876 -0.195945
v 0.283408 0.745359 -0.225682
v 0.251939 0.776866 -0.230945
v 0.167962 0.734857 -0.251945
v 0.0839255 0.797836 -0.251945
v -0.167945 0.713887 -0.272945
v -0.244949 0.783856 -0.244945
v -0.244949 0.790812 -0.230945
v -0.244949 0.811817 -0.146946
v -0.237916 0.825831 -0.146946
v -0.251922 0.692882 -0.272945
v -0.265928 0.699872 -0.265945
v -0.262412 0.719121 -0.262445
v -0.244949 0.811817 -0.125999
v -0.246677 0.808304 -0.115499
v -0.23881 0.818807 -0.104999
v -0.217831 0.839811 -0.0839994
v -0.204659 0.850314 -0.0734995
v -0.19417 0.850314 -0.0524997
v -0.17319 0.871318 -0.0524997
v -0.111921 0.895801 -0.0279998
v -0.0279443 0.895801 -0.00699996
v -0.152211 0.871318 -0.0314998
v -0.131172 0.892288 -0.0314998
v -0.0209711 0.88182 -2.77556e-17
v 0.2309 0.692882 -0.0209999
v -0.251922 0.614029 -0.0629996
v 0.258912 0.699872 -0.0349998
v 0.279891 0.699872 -0.0559996
v 0.293897 0.692882 -0.0839994
v 0.314936 0.671878 -0.167945
v 0.293897 0.755862 -0.188945
v 0.288653 0.755862 -0.212563
v 0.304387 0.661375 -0.225682
v 0.299202 0.614029 -0.238159
v 0.293897 0.629903 -0.238827
v 0.283408 0.6194 -0.246682
v 0.272918 0.734857 -0.230945
v 0.251939 0.650873 -0.251945
v 0.188941 0.713887 -0.251945
v -0.125927 0.671878 -0.272945
v -0.267657 0.716504 -0.251945
v -0.267657 0.737508 -0.230945
v -0.251922 0.776866 -0.230945
v -0.265928 0.769876 -0.146946
v -0.251922 0.614029 -0.272945
v -0.266405 0.614029 -0.266052
v -0.279934 0.622878 -0.258945
v -0.286908 0.636893 -0.244945
v -0.293941 0.629903 -0.230945
v -0.272902 0.692882 -0.251945
v -0.267657 0.766364 -0.136472
v -0.267657 0.745359 -0.0944994
v -0.25979 0.755862 -0.0839994
v -0.217831 0.818807 -0.0629996
v -0.23881 0.776866 -0.0629996
v -0.174919 0.839811 -0.0349998
v -0.225698 0.787369 -0.0524997
v -0.12855 0.88182 -0.0262632
v -0.0445728 0.88182 -0.00526333
v -0.149589 0.860816 -0.0262632
v -0.146966 0.839811 -0.0209999
v -0.157456 0.808304 -0.0262632
v 0.244906 0.685892 -0.0279998
v 0.188941 0.614029 -0.0419997
v 0.251939 0.614029 -0.0419997
v -0.209904 0.755862 -0.0419997
v -0.220453 0.745359 -0.047263
v -0.265928 0.614029 -0.0699995
v 0.279891 0.614029 -0.0559996
v 0.280845 0.614029 -0.0578431
v 0.286924 0.685892 -0.0699995
v 0.291335 0.614029 -0.078843
v 0.293897 0.614029 -0.0839994
v 0.313863 0.614029 -0.147988
v 0.314936 0.614029 -0.167945
v 0.314936 0.671878 -0.188945
v 0.309632 0.671878 -0.212563
v 0.307903 0.650873 -0.223945
v 0.302599 0.614029 -0.234498
v 0.285196 0.614029 -0.2458
v 0.278044 0.614029 -0.249353
v 0.272918 0.614029 -0.249995
v 0.251939 0.614029 -0.251945
v -0.080035 0.625943 -0.272945
v -0.288636 0.653524 -0.230945
v -0.293941 0.650873 -0.209945
v -0.272902 0.734857 -0.209945
v -0.272902 0.755862 -0.146946
v -0.0974383 0.614029 -0.272945
v -0.279934 0.614029 -0.258945
v -0.287027 0.614029 -0.245453
v -0.293941 0.614029 -0.230945
v -0.272902 0.734857 -0.104999
v -0.293941 0.650873 -0.125999
v -0.288636 0.6194 -0.0944994
v -0.258895 0.734857 -0.0769995
v -0.280769 0.629903 -0.0839994
v -0.280113 0.614029 -0.0787094
v -0.237916 0.755862 -0.0559996
v -0.22391 0.776866 -0.0489997
v -0.209904 0.776866 -0.0419997
v 0.265945 0.614029 -0.0489997
v -0.265928 0.650873 -0.0699995
v -0.276478 0.614029 -0.0752896
v 0.286924 0.614029 -0.0699995
v 0.314936 0.614029 -0.209945
v 0.314936 0.650873 -0.209945
v 0.307903 0.614029 -0.223945
v -0.0641217 0.614029 -0.271128
v -0.293941 0.671878 -0.146946
v -0.293941 0.614029 -0.125999
v -0.291974 0.614029 -0.104999
v -0.291318 0.614029 -0.0998429
v -0.287742 0.614029 -0.0927093
f 406 407 408
f 406 408 409
f 406 409 421
f 406 421 422
f 406 422 410
f 406 410 411
f 406 411 412
f 406 412 413
f 406 413 414
f 406 414 432
f 406 432 435
f 406 435 415
f 406 415 407
f 407 415 408
f 408 415 416
f 408 416 417
f 408 417 409
f 409 418 419
f 409 419 420
f 409 420 421
f 409 417 418
f 410 422 423
f 410 423 411
f 411 424 425
f 411 425 426
f 411 426 412
f 411 423 424
f 412 426 413
f 413 427 428
f 413 428 429
f 413 429 430
f 413 430 431
f 413 431 414
f 413 426 427
f 414 431 432
f 415 433 434
f 415 434 416
f 415 435 458
f 415 458 433
f 416 434 417
f 417 434 436
f 417 436 418
f 418 436 437
f 418 437 420
f 418 420 419
f 420 437 438
f 420 438 439
f 420 439 470
f 420 470 440
f 420 440 422
f 420 422 421
f 422 440 441
f 422 441 423
f 423 441 442
f 423 442 443
f 423 443 424
f 424 444 445
f 424 445 425
f 424 443 446
f 424 446 444
f 425 445 426
f 426 445 447
f 426 447 427
f 427 448 428
f 427 447 449
f 427 449 448
f 428 448 450
f 428 450 429
f 429 450 451
f 429 451 452
f 429 452 453
f 429 453 430
f 430 454 431
f 430 453 455
f 430 455 454
f 431 454 455
f 431 455 456
f 431 456 457
f 431 457 432
f 432 458 435
f 432 457 459
f 432 459 460
f 432 460 458
f 433 461 462
f 433 462 463
f 433 463 436
f 433 436 434
f 433 458 488
f 433 488 461
f 436 464 465
f 436 465 437
f 436 463 464
f 437 465 438
f 438 466 467
f 438 467 468
f 438 468 439
f 438 465 469
f 438 469 466
f 439 468 502
f 439 502 470
f 440 470 442
f 440 442 441
f 442 471 443
f 442 470 472
f 442 472 471
f 443 471 473
f 443 473 474
f 443 474 475
f 443 475 446
f 444 476 445
f 444 446 476
f 445 476 477
f 445 477 447
f 446 475 476
f 447 477 449
f 448 478 512
f 448 512 479
f 448 479 480
f 448 480 450
f 448 449 481
f 448 481 478
f 449 477 481
f 450 480 482
f 450 482 483
f 450 483 451
f 451 483 484
f 451 484 452
f 452 484 485
f 452 485 453
f 453 485 486
f 453 486 456
f 453 456 455
f 456 487 459
f 456 459 457
f 456 486 487
f 458 460 488
f 459 487 489
f 459 489 490
f 459 490 460
f 460 490 488
f 461 488 492
f 461 492 462
f 462 491 464
f 462 464 463
f 462 492 530
f 462 530 491
f 464 493 494
f 464 494 465
f 464 491 493
f 465 494 469
f 466 469 495
f 466 495 496
f 466 496 497
f 466 497 535
f 466 535 498
f 466 498 467
f 467 498 499
f 467 499 468
f 468 499 500
f 468 500 501
f 468 501 502
f 469 503 495
f 469 494 493
f 469 493 503
f 470 502 472
f 471 472 504
f 471 504 473
f 472 505 506
f 472 506 507
f 472 507 504
f 472 502 505
f 473 504 508
f 473 508 474
f 474 508 545
f 474 545 509
f 474 509 510
f 474 510 475
f 475 510 511
f 475 511 476
f 476 511 477
f 477 511 481
f 478 481 514
f 478 514 512
f 479 512 482
f 479 482 480
f 481 511 513
f 481 513 514
f 482 515 516
f 482 516 484
f 482 484 483
f 482 512 517
f 482 517 518
f 482 518 519
f 482 519 515
f 484 516 520
f 484 520 485
f 485 520 486
f 486 520 521
f 486 521 522
f 486 522 523
f 486 523 524
f 486 524 487
f 487 524 489
f 488 490 527
f 488 527 525
f 488 525 492
f 489 524 526
f 489 526 490
f 490 526 527
f 491 528 529
f 491 529 493
f 491 530 567
f 491 567 528
f 492 525 530
f 493 529 528
f 493 528 531
f 493 531 532
f 493 532 503
f 495 497 496
f 495 503 497
f 497 503 532
f 497 532 533
f 497 533 534
f 497 534 535
f 498 535 536
f 498 536 537
f 498 537 538
f 498 538 499
f 499 538 500
f 500 538 539
f 500 539 540
f 500 540 541
f 500 541 506
f 500 506 505
f 500 505 501
f 501 505 502
f 504 507 543
f 504 543 542
f 504 542 508
f 506 541 543
f 506 543 507
f 508 542 544
f 508 544 580
f 508 580 545
f 509 545 546
f 509 546 547
f 509 547 510
f 510 547 511
f 511 547 513
f 512 514 517
f 513 547 548
f 513 548 517
f 513 517 514
f 515 519 549
f 515 549 550
f 515 550 516
f 516 550 551
f 516 551 552
f 516 552 520
f 517 548 583
f 517 583 627
f 517 627 632
f 517 632 588
f 517 588 553
f 517 553 518
f 518 553 554
f 518 554 555
f 518 555 519
f 519 555 549
f 520 552 521
f 521 552 551
f 521 551 556
f 521 556 557
f 521 557 558
f 521 558 559
f 521 559 522
f 522 559 560
f 522 560 561
f 522 561 562
f 522 562 526
f 522 526 523
f 523 526 524
f 525 527 566
f 525 566 563
f 525 563 564
f 525 564 530
f 526 562 565
f 526 565 566
f 526 566 527
f 528 567 532
f 528 532 531
f 530 564 567
f 532 568 533
f 532 567 569
f 532 569 568
f 533 568 606
f 533 606 570
f 533 570 534
f 534 570 612
f 534 612 571
f 534 571 536
f 534 536 535
f 536 572 537
f 536 571 572
f 537 572 573
f 537 573 539
f 537 539 538
f 539 573 619
f 539 619 574
f 539 574 540
f 540 574 541
f 541 574 543
f 542 543 575
f 542 575 544
f 543 574 575
f 544 575 620
f 544 620 576
f 544 576 577
f 544 577 578
f 544 578 579
f 544 579 580
f 545 580 581
f 545 581 582
f 545 582 546
f 546 582 548
f 546 548 547
f 548 582 583
f 549 555 584
f 549 584 585
f 549 585 586
f 549 586 550
f 550 586 587
f 550 587 551
f 551 587 556
f 553 588 589
f 553 589 554
f 554 589 590
f 554 590 591
f 554 591 592
f 554 592 593
f 554 593 584
f 554 584 555
f 556 587 557
f 557 587 594
f 557 594 595
f 557 595 596
f 557 596 558
f 558 596 598
f 558 598 559
f 559 597 561
f 559 561 560
f 559 598 597
f 561 599 565
f 561 565 562
f 561 597 600
f 561 600 599
f 563 566 601
f 563 601 602
f 563 602 564
f 564 602 567
f 565 599 603
f 565 603 601
f 565 601 566
f 567 602 604
f 567 604 605
f 567 605 569
f 568 569 607
f 568 607 608
f 568 608 606
f 569 605 604
f 569 604 609
f 569 609 610
f 569 610 611
f 569 611 647
f 569 647 641
f 569 641 657
f 569 657 656
f 569 656 655
f 569 655 654
f 569 654 635
f 569 635 634
f 569 634 633
f 569 633 589
f 569 589 588
f 569 588 632
f 569 632 652
f 569 652 626
f 569 626 625
f 569 625 624
f 569 624 623
f 569 623 577
f 569 577 622
f 569 622 651
f 569 651 649
f 569 649 618
f 569 618 617
f 569 617 616
f 569 616 615
f 569 615 648
f 569 648 613
f 569 613 612
f 569 612 645
f 569 645 608
f 569 608 607
f 570 606 612
f 571 612 613
f 571 613 614
f 571 614 572
f 572 614 615
f 572 615 616
f 572 616 617
f 572 617 573
f 573 617 618
f 573 618 649
f 573 649 650
f 573 650 619
f 574 619 575
f 575 619 620
f 576 620 621
f 576 621 577
f 577 621 622
f 577 623 579
f 577 579 578
f 579 623 624
f 579 624 581
f 579 581 580
f 581 624 625
f 581 625 626
f 581 626 627
f 581 627 583
f 581 583 582
f 584 593 592
f 584 592 628
f 584 628 585
f 585 628 629
f 585 629 630
f 585 630 586
f 586 630 631
f 586 631 587
f 587 631 594
f 589 633 590
f 590 633 634
f 590 634 591
f 591 634 592
f 592 635 654
f 592 654 637
f 592 637 653
f 592 653 629
f 592 629 628
f 592 634 635
f 594 631 595
f 595 631 636
f 595 636 637
f 595 637 638
f 595 638 640
f 595 640 596
f 596 639 642
f 596 642 598
f 596 640 641
f 596 641 639
f 597 598 600
f 598 642 600
f 599 600 643
f 599 643 604
f 599 604 603
f 600 642 643
f 601 603 602
f 602 603 604
f 604 643 644
f 604 644 609
f 606 608 645
f 606 645 612
f 609 644 610
f 610 644 643
f 610 643 642
f 610 642 646
f 610 646 611
f 611 646 647
f 613 648 614
f 614 648 615
f 619 650 620
f 620 650 621
f 621 650 649
f 621 649 651
f 621 651 622
f 626 652 627
f 627 652 632
f 629 653 631
f 629 631 630
f 631 653 636
f 636 653 637
f 637 654 655
f 637 655 656
f 637 656 638
f 638 656 657
f 638 657 641
f 638 641 640
f 639 641 642
f 641 647 642
f 642 647 646
o convex_5
v 0.314936 0.614029 -0.167958
v 0.314936 0.614029 -0.209958
v 0.313853 0.614029 -0.147981
v 0.314936 0.608846 -0.14697
v 0.314936 0.545875 -0.209958
v 0.30092 0.608846 -0.237949
v 0.309648 0.614029 -0.220513
v 0.293912 0.614029 -0.0840077
v 0.314936 0.545875 -0.14697
v 0.309648 0.535385 -0.220439
v 0.30092 0.545875 -0.237949
v 0.314936 0.524863 -0.188945
v 0.293912 0.356929 -0.188945
v 0.293912 0.39892 -0.209958
v 0.293912 0.440912 -0.230945
v 0.288687 0.430422 -0.241451
v 0.30264 0.614029 -0.234496
v 0.278048 0.614029 -0.249368
v 0.285183 0.614029 -0.245792
v 0.2992 0.614029 -0.238146
v 0.291363 0.614029 -0.0788533
v 0.293912 0.335949 -0.0840077
v 0.286904 0.440912 -0.244928
v 0.272887 0.440912 -0.251933
v 0.293912 0.335949 -0.125983
v 0.288687 0.304447 -0.0944891
v 0.272887 0.293957 -0.209958
v 0.272505 0.293172 -0.210722
v 0.288687 0.346439 -0.199451
v 0.26607 0.293172 -0.223694
v 0.267663 0.346439 -0.241451
v 0.265943 0.356929 -0.244928
v 0.272887 0.608846 -0.251933
v 0.272887 0.614029 -0.250009
v 0.280851 0.614029 -0.0578411
v 0.265943 0.307965 -0.0279998
v 0.265943 0.293172 -0.0279998
v 0.288687 0.31233 -0.0840077
v 0.272887 0.293172 -0.0420079
v 0.251926 0.356929 -0.251933
v -0.0209464 0.524863 -0.272945
v 0.280469 0.293172 -0.104995
v 0.280469 0.293172 -0.10576
v 0.272632 0.293172 -0.209958
v 0.265497 0.293172 -0.224015
v 0.257151 0.325459 -0.241451
v 0.254539 0.335949 -0.24668
v 0.251926 0.614029 -0.251933
v -0.0209464 0.587866 -0.272945
v -0.0629318 0.608846 -0.272945
v 0.279895 0.614029 -0.0559914
v 0.251926 0.314937 -0.0209957
v 0.251926 0.293172 -0.0209957
v 0.230902 0.335949 -0.251933
v -0.0419709 0.461892 -0.272945
v 0.25199 0.293172 -0.230748
v 0.191529 0.293957 -0.24668
v 0.167956 0.293957 -0.251933
v -0.0641423 0.614029 -0.27112
v -0.0973992 0.614029 -0.272945
v 0.257087 0.614029 -0.0445728
v 0.251926 0.614029 -0.0420079
v 0.230902 0.419932 -0.0209957
v 0.167956 0.293172 -0.0209957
v -0.146966 0.440912 -0.272945
v 0.19172 0.293172 -0.24631
v 0.190637 0.293172 -0.246581
v 0.168338 0.293172 -0.251563
v 0.167255 0.293172 -0.251735
v 0.146167 0.293172 -0.251933
v -0.251898 0.614029 -0.272945
v 0.188917 0.614029 -0.0420079
v -0.272922 0.419932 -0.0420079
v 0.188917 0.356929 -0.0209957
v 0.167956 0.293957 -0.0209957
v -0.293883 0.293172 -0.0420079
v -0.230937 0.440912 -0.272945
v -0.209912 0.293172 -0.251933
v -0.272922 0.566855 -0.272945
v -0.286938 0.573859 -0.265941
v -0.266424 0.614029 -0.266064
v -0.251898 0.614029 -0.0629955
v -0.293883 0.356929 -0.0420079
v -0.294775 0.293172 -0.0422052
v -0.230937 0.293957 -0.251933
v -0.272922 0.314937 -0.251933
v -0.251898 0.461892 -0.272945
v -0.230746 0.293172 -0.251785
v -0.272922 0.503883 -0.272945
v -0.287066 0.614029 -0.245446
v -0.27993 0.614029 -0.258937
v -0.286938 0.510887 -0.265941
v -0.293883 0.566855 -0.251933
v -0.293883 0.614029 -0.230945
v -0.262474 0.614029 -0.0682732
v -0.307899 0.356929 -0.049012
v -0.308282 0.293172 -0.048938
v -0.252662 0.293172 -0.24631
v -0.273687 0.293172 -0.241057
v -0.281141 0.293172 -0.239182
v -0.283434 0.304447 -0.241451
v -0.286938 0.321941 -0.244928
v -0.283434 0.451433 -0.262439
v -0.300891 0.293172 -0.216937
v -0.293883 0.503883 -0.251933
v -0.314907 0.461892 -0.188945
v -0.314907 0.524863 -0.14697
v -0.293883 0.614029 -0.125983
v -0.27649 0.614029 -0.0752772
v -0.309683 0.36745 -0.0524894
v -0.321916 0.314937 -0.0559914
v -0.321788 0.293172 -0.0557448
v -0.304013 0.293172 -0.210722
v -0.314525 0.293172 -0.18971
v -0.314907 0.293172 -0.188945
v -0.331409 0.293172 -0.125983
v -0.335932 0.293172 -0.10576
v -0.335932 0.293957 -0.104995
v -0.335932 0.314937 -0.0840077
v -0.314907 0.503883 -0.125983
v -0.293883 0.608846 -0.104995
v -0.291972 0.614029 -0.104995
v -0.280121 0.614029 -0.0787053
v -0.27993 0.608846 -0.0770036
v -0.322808 0.335949 -0.0629955
v -0.330644 0.325459 -0.0735016
v -0.32886 0.293172 -0.0697529
v -0.322107 0.293172 -0.0562627
v -0.335932 0.293172 -0.0840077
v -0.291335 0.614029 -0.0998408
v -0.287767 0.614029 -0.0927134
f 658 659 664
f 658 664 674
f 658 674 677
f 658 677 676
f 658 676 675
f 658 675 691
f 658 691 705
f 658 705 716
f 658 716 717
f 658 717 728
f 658 728 738
f 658 738 748
f 658 748 747
f 658 747 751
f 658 751 765
f 658 765 779
f 658 779 787
f 658 787 788
f 658 788 780
f 658 780 766
f 658 766 752
f 658 752 739
f 658 739 729
f 658 729 719
f 658 719 718
f 658 718 708
f 658 708 692
f 658 692 678
f 658 678 665
f 658 665 660
f 658 660 661
f 658 661 666
f 658 666 669
f 658 669 662
f 658 662 659
f 659 662 668
f 659 668 663
f 659 663 664
f 660 665 661
f 661 665 679
f 661 679 666
f 662 667 668
f 662 669 670
f 662 670 671
f 662 671 672
f 662 672 673
f 662 673 667
f 663 674 664
f 663 668 675
f 663 675 676
f 663 676 677
f 663 677 674
f 665 678 679
f 666 679 669
f 667 673 668
f 668 673 680
f 668 680 681
f 668 681 675
f 669 679 682
f 669 682 670
f 670 682 683
f 670 683 684
f 670 684 685
f 670 685 686
f 670 686 671
f 671 686 673
f 671 673 672
f 673 686 685
f 673 685 687
f 673 687 688
f 673 688 689
f 673 689 680
f 675 681 690
f 675 690 691
f 678 692 693
f 678 693 694
f 678 694 679
f 679 695 683
f 679 683 682
f 679 694 696
f 679 696 695
f 680 689 697
f 680 697 681
f 681 697 698
f 681 698 706
f 681 706 690
f 683 695 696
f 683 696 699
f 683 699 700
f 683 700 701
f 683 701 684
f 684 701 685
f 685 701 700
f 685 700 699
f 685 699 696
f 685 696 694
f 685 694 710
f 685 710 721
f 685 721 733
f 685 733 741
f 685 741 754
f 685 754 769
f 685 769 785
f 685 785 784
f 685 784 786
f 685 786 774
f 685 774 773
f 685 773 772
f 685 772 771
f 685 771 770
f 685 770 761
f 685 761 757
f 685 757 756
f 685 756 755
f 685 755 745
f 685 745 735
f 685 735 727
f 685 727 726
f 685 726 725
f 685 725 724
f 685 724 723
f 685 723 713
f 685 713 702
f 685 702 687
f 687 702 703
f 687 703 688
f 688 703 704
f 688 704 689
f 689 704 697
f 690 705 691
f 690 706 707
f 690 707 705
f 692 708 693
f 693 709 710
f 693 710 694
f 693 708 709
f 697 704 711
f 697 711 712
f 697 712 698
f 698 712 722
f 698 722 734
f 698 734 744
f 698 744 746
f 698 746 736
f 698 736 728
f 698 728 717
f 698 717 707
f 698 707 706
f 702 713 703
f 703 713 704
f 704 713 714
f 704 714 715
f 704 715 711
f 705 707 716
f 707 717 716
f 708 718 709
f 709 718 719
f 709 719 720
f 709 720 731
f 709 731 732
f 709 732 721
f 709 721 710
f 711 715 712
f 712 715 722
f 713 723 714
f 714 723 724
f 714 724 725
f 714 725 715
f 715 725 726
f 715 726 727
f 715 727 722
f 719 729 720
f 720 729 730
f 720 730 731
f 721 732 740
f 721 740 733
f 722 727 735
f 722 735 734
f 728 736 737
f 728 737 738
f 729 739 730
f 730 739 740
f 730 740 732
f 730 732 731
f 733 740 741
f 734 735 742
f 734 742 743
f 734 743 744
f 735 745 742
f 736 746 749
f 736 749 737
f 737 747 748
f 737 748 738
f 737 749 762
f 737 762 750
f 737 750 751
f 737 751 747
f 739 752 740
f 740 753 754
f 740 754 741
f 740 752 766
f 740 766 753
f 742 745 743
f 743 755 756
f 743 756 757
f 743 757 758
f 743 758 759
f 743 759 760
f 743 760 746
f 743 746 744
f 743 745 755
f 746 760 749
f 749 760 759
f 749 759 761
f 749 761 762
f 750 762 772
f 750 772 763
f 750 763 751
f 751 763 764
f 751 764 765
f 753 767 768
f 753 768 769
f 753 769 754
f 753 766 767
f 757 761 758
f 758 761 759
f 761 770 762
f 762 770 771
f 762 771 772
f 763 772 773
f 763 773 774
f 763 774 764
f 764 774 775
f 764 775 776
f 764 776 777
f 764 777 778
f 764 778 765
f 765 778 779
f 766 780 781
f 766 781 767
f 767 782 768
f 767 781 780
f 767 780 782
f 768 782 783
f 768 783 776
f 768 776 784
f 768 784 785
f 768 785 769
f 774 786 776
f 774 776 775
f 776 786 784
f 776 783 787
f 776 787 778
f 776 778 777
f 778 787 779
f 780 788 783
f 780 783 782
f 783 788 787
o convex_6
v 0.280515 0.293172 -0.10498
v 0.293941 0.209937 -0.0840058
v 0.280515 0.293172 -0.10576
v 0.272939 0.293172 -0.0420026
v 0.293941 0.146957 -0.0630042
v 0.293941 -0.0443956 -0.128352
v 0.284638 -0.0443956 -0.191357
v 0.272551 0.293172 -0.210713
v 0.272621 0.293172 -0.209932
v 0.279916 0.153962 -0.0350021
v 0.265926 0.293172 -0.0280016
v 0.293941 -0.0443956 -0.10498
v 0.260006 0.000311636 0.021281
v 0.281184 -0.0443956 -0.203405
v 0.279387 -0.0443956 -0.209123
v 0.268886 -0.0443956 -0.232969
v 0.266067 0.293172 -0.223682
v 0.251937 0.293172 -0.021001
v 0.220434 0.220444 0.021281
v 0.225543 0.210234 0.021281
v 0.24732 0.125974 0.021281
v 0.251937 0.105289 0.021281
v 0.251937 -0.0443956 0.0212253
v 0.252042 -0.0416861 0.021281
v 0.26649 -0.0443956 -0.236567
v 0.252747 -0.0443956 -0.252744
v 0.24954 -0.0443956 -0.255533
v 0.265503 0.293172 -0.224016
v 0.167964 0.293172 -0.021001
v 0.187662 0.236602 0.021281
v 0.210214 0.230655 0.021281
v 0.251937 -0.0419834 0.021281
v 0.214831 -0.0443956 0.021281
v 0.230935 -0.0443956 -0.263649
v 0.252042 0.293172 -0.230738
v -0.0660533 0.293172 -0.0840058
v 0.184843 0.230952 0.021281
v 0.209933 -0.0443956 0.021281
v 0.168316 0.293172 -0.251544
v 0.190657 0.293172 -0.24658
v 0.19175 0.293172 -0.246301
v 0.167964 -0.0443956 -0.263649
v 0.146187 0.293172 -0.251935
v 0.167259 0.293172 -0.25174
v -0.0660533 0.293172 -0.251935
v -0.0660533 0.0809366 -0.0840058
v 0.178606 0.209937 0.021281
v 0.188931 1.42477e-05 0.021281
v -0.0660533 -0.0443956 -0.10498
v -0.0651371 -0.0443956 -0.257485
v -0.0660533 -0.0240411 -0.262115
v -0.0660533 -0.0443956 -0.257374
f 789 790 791
f 789 791 797
f 789 797 796
f 789 796 805
f 789 805 816
f 789 816 823
f 789 823 829
f 789 829 828
f 789 828 827
f 789 827 832
f 789 832 831
f 789 831 833
f 789 833 824
f 789 824 817
f 789 817 806
f 789 806 799
f 789 799 792
f 789 792 790
f 790 792 793
f 790 793 800
f 790 800 794
f 790 794 795
f 790 795 796
f 790 796 797
f 790 797 791
f 792 798 793
f 792 799 798
f 793 798 801
f 793 801 800
f 794 800 811
f 794 811 821
f 794 821 826
f 794 826 837
f 794 837 840
f 794 840 838
f 794 838 830
f 794 830 822
f 794 822 815
f 794 815 814
f 794 814 813
f 794 813 804
f 794 804 803
f 794 803 802
f 794 802 795
f 795 802 796
f 796 802 803
f 796 803 804
f 796 804 805
f 798 799 801
f 799 806 807
f 799 807 808
f 799 808 809
f 799 809 810
f 799 810 801
f 800 801 811
f 801 810 809
f 801 809 808
f 801 808 807
f 801 807 819
f 801 819 818
f 801 818 825
f 801 825 835
f 801 835 836
f 801 836 826
f 801 826 821
f 801 821 820
f 801 820 812
f 801 812 811
f 804 813 805
f 805 813 814
f 805 814 815
f 805 815 816
f 806 817 818
f 806 818 819
f 806 819 807
f 811 812 820
f 811 820 821
f 815 822 823
f 815 823 816
f 817 824 818
f 818 824 825
f 822 827 828
f 822 828 829
f 822 829 823
f 822 830 833
f 822 833 831
f 822 831 832
f 822 832 827
f 824 833 839
f 824 839 840
f 824 840 837
f 824 837 834
f 824 834 835
f 824 835 825
f 826 836 837
f 830 838 839
f 830 839 833
f 834 837 836
f 834 836 835
f 838 840 839
o convex_7
v 0.293897 -0.0443956 -0.104993
v 0.342868 -0.223932 -0.0979926
v 0.35686 -0.230924 -0.125995
v 0.335872 -0.167995 -0.125995
v 0.314885 -0.105005 -0.146976
v 0.293897 -0.0443956 -0.128397
v 0.28462 -0.0443956 -0.0863934
v 0.363856 -0.307929 -0.0979926
v 0.367354 -0.283426 -0.115484
v 0.279906 -0.0443956 -0.076991
v 0.377924 -0.314921 -0.125995
v 0.377924 -0.293914 -0.146976
v 0.377924 -0.293914 -0.20994
v 0.335872 -0.167995 -0.188959
v 0.293897 -0.0629912 -0.188959
v 0.286902 -0.0490068 -0.195959
v 0.28462 -0.0443956 -0.191361
v 0.367354 -0.346416 -0.0944821
v 0.261808 -0.0443956 -0.0632157
v 0.377924 -0.352293 -0.125995
v 0.370319 -0.352293 -0.100353
v 0.377924 -0.314921 -0.230941
v 0.372601 -0.293914 -0.233569
v 0.351613 -0.230924 -0.233569
v 0.35686 -0.230924 -0.20994
v 0.28865 -0.0629912 -0.212568
v 0.283404 -0.0525029 -0.215195
v 0.281198 -0.0443956 -0.203411
v 0.328877 -0.174987 -0.237942
v 0.309638 -0.125981 -0.233569
v 0.361499 -0.352293 -0.0915669
v 0.367354 -0.352293 -0.0944821
v 0.252379 -0.147199 -0.0632157
v 0.335872 -0.352293 -0.0839915
v 0.335872 -0.293914 -0.0839915
v -0.319075 -0.0443956 -0.0632157
v 0.377924 -0.352293 -0.230941
v 0.372449 -0.352293 -0.241843
v 0.370852 -0.314921 -0.244943
v 0.367354 -0.304433 -0.246688
v 0.351613 -0.283426 -0.262434
v 0.321881 -0.188971 -0.258944
v 0.346366 -0.220436 -0.236197
v 0.304391 -0.115493 -0.236197
v 0.283404 -0.0735096 -0.236197
v 0.26888 -0.0443956 -0.232974
v 0.279373 -0.0443956 -0.209119
v 0.325379 -0.178483 -0.246688
v 0.251922 -0.147591 -0.0632157
v -0.33474 -0.352293 -0.0632157
v -0.337478 -0.0443956 -0.0778327
v -0.37086 -0.188971 -0.090992
v -0.363864 -0.335928 -0.076991
v -0.336337 -0.335928 -0.0632157
v 0.370852 -0.352293 -0.244943
v 0.346366 -0.283426 -0.267689
v 0.325379 -0.220436 -0.267689
v 0.258918 -0.0629912 -0.258944
v 0.266446 -0.0443956 -0.236567
v -0.336337 -0.352293 -0.0632157
v -0.3647 -0.0443956 -0.104192
v -0.363864 -0.0629912 -0.0979926
v -0.372609 -0.178483 -0.0944821
v -0.384852 -0.335928 -0.0979926
v -0.363864 -0.352293 -0.076991
v -0.360822 -0.352293 -0.0754512
v -0.346831 -0.352293 -0.0684507
v 0.359978 -0.352293 -0.250403
v 0.35686 -0.352293 -0.251943
v 0.314885 -0.272938 -0.272945
v 0.314885 -0.230924 -0.272945
v 0.241429 -0.0525029 -0.267689
v 0.252683 -0.0443956 -0.252744
v -0.366602 -0.0443956 -0.107395
v -0.372609 -0.0525029 -0.115484
v -0.393596 -0.325409 -0.115484
v -0.398919 -0.335928 -0.125995
v -0.384852 -0.352293 -0.0979926
v -0.104942 -0.352293 -0.251943
v 0.293897 -0.272938 -0.272945
v 0.230935 -0.0629912 -0.272945
v -0.104942 -0.0443956 -0.272945
v 0.230935 -0.0443956 -0.263645
v 0.249489 -0.0443956 -0.255536
v -0.368579 -0.0443956 -0.125995
v -0.377856 -0.0629912 -0.125995
v -0.398919 -0.251931 -0.146976
v -0.398919 -0.352293 -0.125995
v -0.164635 -0.352293 -0.248658
v -0.230943 -0.335928 -0.251943
v -0.104942 -0.230924 -0.272945
v -0.167904 -0.0839979 -0.272945
v -0.335881 -0.0443956 -0.251943
v -0.368579 -0.0443956 -0.146976
v -0.377856 -0.0629912 -0.146976
v -0.398919 -0.251931 -0.188959
v -0.398919 -0.352293 -0.188959
v -0.226304 -0.352293 -0.243752
v -0.35223 -0.352293 -0.231865
v -0.314893 -0.314921 -0.251943
v -0.356868 -0.293914 -0.251943
v -0.167904 -0.188971 -0.272945
v -0.188892 -0.105005 -0.272945
v -0.356868 -0.167995 -0.251943
v -0.37086 -0.160972 -0.244943
v -0.338314 -0.0443956 -0.250732
v -0.356868 -0.0443956 -0.230941
v -0.377856 -0.0839979 -0.188959
v -0.394281 -0.352293 -0.198217
v -0.377856 -0.105005 -0.20994
v -0.377856 -0.167995 -0.230941
v -0.356868 -0.352293 -0.230941
v -0.373217 -0.352293 -0.222771
v -0.384852 -0.352293 -0.21694
v -0.37086 -0.286922 -0.244943
v -0.188892 -0.167995 -0.272945
v -0.37086 -0.0979823 -0.223941
v -0.349872 -0.0443956 -0.244943
v -0.372609 -0.0813758 -0.20994
v -0.390707 -0.352293 -0.205321
f 841 842 843
f 841 843 844
f 841 844 845
f 841 845 846
f 841 846 857
f 841 857 868
f 841 868 887
f 841 887 886
f 841 886 899
f 841 899 913
f 841 913 924
f 841 924 923
f 841 923 922
f 841 922 933
f 841 933 946
f 841 946 958
f 841 958 947
f 841 947 934
f 841 934 925
f 841 925 914
f 841 914 901
f 841 901 891
f 841 891 876
f 841 876 859
f 841 859 850
f 841 850 847
f 841 847 842
f 842 848 849
f 842 849 843
f 842 847 850
f 842 850 848
f 843 849 851
f 843 851 852
f 843 852 844
f 844 852 845
f 845 852 853
f 845 853 854
f 845 854 846
f 846 855 856
f 846 856 857
f 846 854 855
f 848 858 851
f 848 851 849
f 848 850 859
f 848 859 858
f 851 860 877
f 851 877 862
f 851 862 853
f 851 853 852
f 851 858 861
f 851 861 860
f 853 862 863
f 853 863 864
f 853 864 865
f 853 865 854
f 854 865 855
f 855 865 869
f 855 869 856
f 856 866 867
f 856 867 868
f 856 868 857
f 856 869 870
f 856 870 866
f 858 871 872
f 858 872 861
f 858 859 871
f 859 873 874
f 859 874 875
f 859 875 871
f 859 876 894
f 859 894 900
f 859 900 890
f 859 890 889
f 859 889 873
f 860 861 872
f 860 872 871
f 860 871 874
f 860 874 890
f 860 890 900
f 860 900 907
f 860 907 906
f 860 906 905
f 860 905 918
f 860 918 928
f 860 928 937
f 860 937 949
f 860 949 960
f 860 960 954
f 860 954 953
f 860 953 952
f 860 952 939
f 860 939 938
f 860 938 929
f 860 929 919
f 860 919 909
f 860 909 908
f 860 908 895
f 860 895 878
f 860 878 877
f 862 877 878
f 862 878 879
f 862 879 863
f 863 879 880
f 863 880 881
f 863 881 864
f 864 881 882
f 864 882 883
f 864 883 869
f 864 869 865
f 866 870 884
f 866 884 867
f 867 884 885
f 867 885 886
f 867 886 887
f 867 887 868
f 869 883 888
f 869 888 884
f 869 884 870
f 871 875 874
f 873 889 874
f 874 889 890
f 876 891 892
f 876 892 893
f 876 893 894
f 878 895 879
f 879 895 896
f 879 896 881
f 879 881 880
f 881 896 897
f 881 897 882
f 882 884 888
f 882 888 883
f 882 897 898
f 882 898 884
f 884 898 885
f 885 898 899
f 885 899 886
f 891 901 902
f 891 902 892
f 892 902 903
f 892 903 904
f 892 904 893
f 893 904 918
f 893 918 905
f 893 905 906
f 893 906 894
f 894 906 907
f 894 907 900
f 895 908 896
f 896 908 909
f 896 909 910
f 896 910 911
f 896 911 897
f 897 911 921
f 897 921 912
f 897 912 898
f 898 912 913
f 898 913 899
f 901 914 902
f 902 914 915
f 902 915 903
f 903 915 916
f 903 916 904
f 904 916 917
f 904 917 928
f 904 928 918
f 909 919 920
f 909 920 910
f 910 920 931
f 910 931 942
f 910 942 956
f 910 956 943
f 910 943 932
f 910 932 922
f 910 922 921
f 910 921 911
f 912 921 922
f 912 922 923
f 912 923 924
f 912 924 913
f 914 925 915
f 915 925 926
f 915 926 917
f 915 917 916
f 917 926 927
f 917 927 936
f 917 936 937
f 917 937 928
f 919 929 930
f 919 930 931
f 919 931 920
f 922 932 933
f 925 934 935
f 925 935 926
f 926 935 936
f 926 936 927
f 929 938 930
f 930 938 939
f 930 939 940
f 930 940 931
f 931 940 941
f 931 941 942
f 932 943 933
f 933 944 945
f 933 945 946
f 933 943 944
f 934 947 935
f 935 948 936
f 935 947 948
f 936 949 937
f 936 948 950
f 936 950 951
f 936 951 945
f 936 945 949
f 939 952 941
f 939 941 940
f 941 952 953
f 941 953 954
f 941 954 955
f 941 955 945
f 941 945 944
f 941 944 943
f 941 943 956
f 941 956 942
f 945 957 958
f 945 958 946
f 945 955 949
f 945 951 950
f 945 950 957
f 947 958 957
f 947 957 950
f 947 950 959
f 947 959 948
f 948 959 950
f 949 955 960
f 954 960 955
o convex_8
v -0.398919 -0.419974 -0.146947
v -0.398919 -0.356977 -0.125952
v -0.398919 -0.377936 -0.188937
v -0.377889 -0.524948 -0.167942
v -0.377889 -0.524948 -0.125952
v -0.377889 -0.503929 -0.104984
v -0.384899 -0.356977 -0.098003
v -0.398919 -0.352293 -0.125952
v -0.370921 -0.503929 -0.0909958
v -0.363911 -0.503929 -0.077008
v -0.398919 -0.352293 -0.188937
v -0.391909 -0.37097 -0.202952
v -0.384899 -0.384962 -0.216939
v -0.377889 -0.503929 -0.188937
v -0.374405 -0.521405 -0.18546
v -0.367394 -0.535397 -0.199448
v -0.3569 -0.587885 -0.167942
v -0.372663 -0.524948 -0.102363
v -0.3569 -0.587885 -0.104984
v -0.384899 -0.352293 -0.098003
v -0.342922 -0.545907 -0.0560129
v -0.391909 -0.352293 -0.202952
v -0.384899 -0.352293 -0.216939
v -0.370921 -0.412947 -0.223947
v -0.367394 -0.451442 -0.220443
v -0.335912 -0.545907 -0.209932
v -0.342922 -0.573892 -0.195944
v -0.325418 -0.640372 -0.178453
v -0.342922 -0.61593 -0.174949
v -0.335912 -0.629922 -0.0839885
v -0.351675 -0.566926 -0.0813674
v -0.342922 -0.61593 -0.111991
v -0.34989 -0.601937 -0.098003
v -0.363911 -0.352293 -0.077008
v -0.314924 -0.566926 -0.0419983
v -0.342922 -0.503929 -0.0560129
v -0.321934 -0.629922 -0.0560129
v -0.300903 -0.629922 -0.0350178
v -0.283442 -0.640372 -0.0262454
v -0.370921 -0.352293 -0.223947
v -0.3569 -0.419974 -0.230927
v -0.335912 -0.440933 -0.230927
v -0.293936 -0.566926 -0.209932
v -0.272905 -0.650881 -0.188937
v -0.30443 -0.661331 -0.178453
v -0.283442 -0.724327 -0.157458
v -0.300903 -0.699825 -0.153954
v -0.321934 -0.657908 -0.153954
v -0.321934 -0.657908 -0.0909958
v -0.328902 -0.643915 -0.077008
v -0.325418 -0.640372 -0.0682622
v -0.346831 -0.352293 -0.0684495
v -0.314924 -0.503929 -0.0419983
v -0.30443 -0.68235 -0.0577513
v -0.30443 -0.661331 -0.0472672
v -0.293936 -0.650881 -0.0341352
v -0.262411 -0.724327 -0.0262454
v -0.220434 -0.745346 -0.0052503
v -0.20994 -0.734837 -8.21761e-06
v -0.272905 -0.629922 -0.0210033
v -0.272905 -0.608904 -0.0210033
v -0.3569 -0.352293 -0.230927
v -0.352269 -0.352293 -0.231863
v -0.226298 -0.352293 -0.243765
v -0.104999 -0.398955 -0.251949
v -0.293936 -0.461951 -0.230927
v -0.168006 -0.629922 -0.209932
v -0.188952 -0.692859 -0.188937
v -0.262411 -0.68235 -0.178453
v -0.279915 -0.741803 -0.132959
v -0.241423 -0.745346 -0.157458
v -0.241423 -0.787324 -0.136463
v -0.237939 -0.8048 -0.111991
v -0.293936 -0.713818 -0.125952
v -0.293936 -0.713818 -0.0839885
v -0.286925 -0.727811 -0.077008
v -0.283442 -0.724327 -0.0577513
v -0.335912 -0.352293 -0.0629934
v -0.262411 -0.745346 -0.0367563
v -0.216951 -0.776815 -0.0140228
v -0.199446 -0.787324 -0.0052503
v -0.15747 -0.808283 0.0157448
v -0.146976 -0.797833 0.0209869
v -0.164735 -0.352293 -0.248659
v -0.0630228 -0.419974 -0.251949
v -0.104999 -0.352293 -0.251949
v -0.20994 -0.503929 -0.230927
v -0.0419921 -0.67184 -0.209932
v -0.125987 -0.713818 -0.188937
v -0.0630228 -0.566926 -0.230927
v -0.0419921 -0.797833 -0.167942
v -0.168006 -0.755796 -0.167942
v -0.199446 -0.766305 -0.157458
v -0.279915 -0.741803 -0.0909958
v -0.15747 -0.829302 -0.136463
v -0.174974 -0.825819 -0.132959
v -0.112009 -0.888815 -0.111991
v -0.1785 -0.850321 -0.115468
v -0.19592 -0.846777 -0.111991
v -0.216951 -0.825819 -0.111991
v -0.237939 -0.8048 -0.0909958
v -0.244949 -0.790807 -0.077008
v -0.241423 -0.787324 -0.0577513
v -0.315859 -0.352293 -0.0639295
v -0.125987 -0.797833 0.0209869
v -0.199446 -0.808283 -0.0157612
v -0.15747 -0.829302 0.00523386
v -0.115493 -0.850321 0.0157448
v -0.0630228 -0.881789 0.0209869
v -0.0202391 -0.902808 0.021281
v -0.0197293 -0.881789 0.021281
v 0.000111794 -0.861911 0.021281
v 0.02127 -0.861371 0.021281
v -0.0419921 -0.419974 -0.251949
v 0.0209726 -0.587885 -0.230927
v 0.0351205 -0.352293 -0.251949
v 0.0351205 -0.67184 -0.209932
v 0.0351205 -0.754414 -0.187573
v 0.0209726 -0.818792 -0.167942
v -0.0210039 -0.86077 -0.146947
v -0.0280141 -0.888815 -0.132959
v -0.174974 -0.783841 -0.153954
v -0.132998 -0.846777 -0.132959
v -0.0699905 -0.909774 -0.111991
v -0.129514 -0.885272 -0.108487
v -0.153986 -0.867796 -0.111991
v -0.19592 -0.846777 -0.0909958
v -0.0945051 -0.913257 -0.0944994
v -0.112009 -0.909774 -0.0700007
v -0.216951 -0.825819 -0.0909958
v -0.1785 -0.850321 -0.0577513
v -0.1785 -0.829302 -0.0157612
v 0.0351205 -0.352293 -0.104984
v -0.136482 -0.850321 0.00523386
v -0.0735169 -0.892298 0.0157448
v -0.0107222 -0.909954 0.021281
v 0.0351205 -0.868097 0.021281
v 0.0351205 -0.398955 -0.251949
v 0.0351205 -0.418592 -0.250558
v 0.0351205 -0.587885 -0.230927
v 0.0351205 -0.818792 -0.167942
v 0.0351205 -0.880408 -0.145583
v 0.0349505 -0.909774 -0.132959
v -0.0070259 -0.930793 -0.111991
v 0.0104784 -0.955295 -0.0944994
v -0.132998 -0.888815 -0.0490056
v -0.0665067 -0.92731 -0.0874921
v -0.0699905 -0.930793 -0.0700007
v -0.097989 -0.9168 -0.0560129
v -0.115493 -0.892298 -0.0157612
v -0.0945051 -0.892298 0.00523386
v -0.0630228 -0.909774 0.0069723
v -0.031498 -0.913257 0.0157448
v -1.56581e-05 -0.930793 0.0069723
v 0.0109033 -0.913137 0.021281
v 0.0351205 -0.914098 0.021281
v 0.0351205 -0.909654 -0.133013
v 0.0351205 -0.909774 -0.132959
v 0.0351205 -0.941543 -0.111857
v 0.0351205 -0.951632 -0.101747
v 0.0351205 -0.956016 -0.0952215
v 0.0351205 -0.964423 -0.0826245
v 0.0209726 -0.965805 -0.0629934
v -0.0419921 -0.944786 -0.0629934
v -0.118977 -0.895782 -0.0350178
v -0.0770008 -0.9168 -0.0140228
v -0.0945051 -0.913257 -0.0367563
v -0.0560126 -0.937759 -0.0560129
v -0.084011 -0.902808 -8.21761e-06
v -0.0735169 -0.913257 -0.0052503
v -0.031498 -0.934276 -0.0157612
v -0.0210039 -0.939501 -0.0183822
v 0.0209726 -0.96052 -0.0393773
v 0.0351205 -0.954094 -0.0220196
v 0.0351205 -0.951211 -0.017152
v 0.0351205 -0.936078 0.00432452
v 0.0351205 -0.965805 -0.0629934
v 0.0351205 -0.965805 -0.0488719
v -0.0419921 -0.939501 -0.0393773
v -0.0525287 -0.934276 -0.0367563
v 0.0351205 -0.964063 -0.0411425
v 0.0351205 -0.959319 -0.0317282
f 961 962 968
f 961 968 971
f 961 971 963
f 961 963 974
f 961 974 964
f 961 964 965
f 961 965 966
f 961 966 962
f 962 967 980
f 962 980 968
f 962 966 969
f 962 969 970
f 962 970 967
f 963 971 982
f 963 982 972
f 963 972 973
f 963 973 974
f 964 974 975
f 964 975 976
f 964 976 977
f 964 977 979
f 964 979 965
f 965 978 966
f 965 979 978
f 966 978 969
f 967 970 981
f 967 981 996
f 967 996 994
f 967 994 980
f 968 980 994
f 968 994 1012
f 968 1012 1038
f 968 1038 1064
f 968 1064 1093
f 968 1093 1076
f 968 1076 1046
f 968 1046 1044
f 968 1044 1024
f 968 1024 1023
f 968 1023 1022
f 968 1022 1000
f 968 1000 983
f 968 983 982
f 968 982 971
f 969 978 970
f 970 978 991
f 970 991 981
f 972 982 983
f 972 983 973
f 973 983 1000
f 973 1000 984
f 973 984 985
f 973 985 976
f 973 976 974
f 974 976 975
f 976 985 986
f 976 986 987
f 976 987 988
f 976 988 989
f 976 989 977
f 977 989 992
f 977 992 979
f 978 979 990
f 978 990 991
f 979 992 993
f 979 993 990
f 981 995 1013
f 981 1013 996
f 981 991 997
f 981 997 998
f 981 998 999
f 981 999 995
f 984 1001 985
f 984 1000 1022
f 984 1022 1001
f 985 1001 986
f 986 1001 1002
f 986 1002 1026
f 986 1026 1003
f 986 1003 1004
f 986 1004 1005
f 986 1005 988
f 986 988 987
f 988 1005 1006
f 988 1006 989
f 989 1006 1007
f 989 1007 1030
f 989 1030 1008
f 989 1008 1009
f 989 1009 992
f 990 992 1009
f 990 1009 1010
f 990 1010 991
f 990 993 992
f 991 1010 1011
f 991 1011 997
f 994 996 1012
f 995 999 1013
f 996 1013 1012
f 997 1011 1014
f 997 1014 1015
f 997 1015 998
f 998 1015 1016
f 998 1016 1017
f 998 1017 999
f 999 1017 1018
f 999 1018 1019
f 999 1019 1020
f 999 1020 1021
f 999 1021 1013
f 1001 1022 1023
f 1001 1023 1024
f 1001 1024 1025
f 1001 1025 1002
f 1002 1025 1045
f 1002 1045 1026
f 1003 1026 1027
f 1003 1027 1004
f 1004 1027 1028
f 1004 1028 1029
f 1004 1029 1005
f 1005 1029 1031
f 1005 1031 1006
f 1006 1030 1007
f 1006 1031 1032
f 1006 1032 1033
f 1006 1033 1030
f 1008 1030 1034
f 1008 1034 1035
f 1008 1035 1009
f 1009 1035 1036
f 1009 1036 1010
f 1010 1036 1037
f 1010 1037 1014
f 1010 1014 1011
f 1012 1013 1038
f 1013 1021 1038
f 1014 1037 1039
f 1014 1039 1017
f 1014 1017 1015
f 1015 1017 1016
f 1017 1039 1040
f 1017 1040 1041
f 1017 1041 1018
f 1018 1041 1042
f 1018 1042 1043
f 1018 1043 1019
f 1019 1043 1021
f 1019 1021 1020
f 1021 1043 1038
f 1024 1044 1025
f 1025 1044 1046
f 1025 1046 1076
f 1025 1076 1098
f 1025 1098 1074
f 1025 1074 1045
f 1026 1047 1027
f 1026 1045 1047
f 1027 1048 1049
f 1027 1049 1028
f 1027 1047 1050
f 1027 1050 1048
f 1028 1049 1079
f 1028 1079 1051
f 1028 1051 1052
f 1028 1052 1053
f 1028 1053 1031
f 1028 1031 1029
f 1030 1054 1036
f 1030 1036 1035
f 1030 1035 1034
f 1030 1033 1061
f 1030 1061 1054
f 1031 1053 1055
f 1031 1055 1032
f 1032 1055 1056
f 1032 1056 1057
f 1032 1057 1058
f 1032 1058 1059
f 1032 1059 1060
f 1032 1060 1033
f 1033 1060 1090
f 1033 1090 1061
f 1036 1054 1061
f 1036 1061 1062
f 1036 1062 1037
f 1037 1062 1063
f 1037 1063 1039
f 1038 1043 1065
f 1038 1065 1064
f 1039 1063 1066
f 1039 1066 1040
f 1040 1066 1041
f 1041 1066 1067
f 1041 1067 1042
f 1042 1067 1094
f 1042 1094 1068
f 1042 1068 1043
f 1043 1068 1095
f 1043 1095 1069
f 1043 1069 1070
f 1043 1070 1071
f 1043 1071 1072
f 1043 1072 1073
f 1043 1073 1065
f 1045 1074 1100
f 1045 1100 1075
f 1045 1075 1050
f 1045 1050 1047
f 1048 1077 1078
f 1048 1078 1079
f 1048 1079 1049
f 1048 1050 1075
f 1048 1075 1100
f 1048 1100 1077
f 1051 1079 1080
f 1051 1080 1052
f 1052 1080 1081
f 1052 1081 1082
f 1052 1082 1053
f 1053 1082 1055
f 1055 1083 1084
f 1055 1084 1057
f 1055 1057 1056
f 1055 1082 1081
f 1055 1081 1083
f 1057 1084 1085
f 1057 1085 1086
f 1057 1086 1058
f 1058 1086 1059
f 1059 1087 1090
f 1059 1090 1060
f 1059 1086 1085
f 1059 1085 1088
f 1059 1088 1089
f 1059 1089 1087
f 1061 1063 1062
f 1061 1090 1063
f 1063 1090 1091
f 1063 1091 1092
f 1063 1092 1066
f 1064 1065 1073
f 1064 1073 1093
f 1066 1092 1067
f 1067 1092 1094
f 1068 1094 1111
f 1068 1111 1095
f 1069 1095 1096
f 1069 1096 1070
f 1070 1096 1115
f 1070 1115 1116
f 1070 1116 1097
f 1070 1097 1073
f 1070 1073 1072
f 1070 1072 1071
f 1073 1097 1093
f 1074 1098 1099
f 1074 1099 1100
f 1076 1093 1097
f 1076 1097 1116
f 1076 1116 1136
f 1076 1136 1135
f 1076 1135 1134
f 1076 1134 1142
f 1076 1142 1141
f 1076 1141 1138
f 1076 1138 1137
f 1076 1137 1122
f 1076 1122 1121
f 1076 1121 1120
f 1076 1120 1119
f 1076 1119 1118
f 1076 1118 1117
f 1076 1117 1102
f 1076 1102 1101
f 1076 1101 1078
f 1076 1078 1077
f 1076 1077 1100
f 1076 1100 1099
f 1076 1099 1098
f 1078 1101 1079
f 1079 1101 1102
f 1079 1102 1080
f 1080 1102 1103
f 1080 1103 1081
f 1081 1103 1104
f 1081 1104 1084
f 1081 1084 1083
f 1084 1104 1105
f 1084 1105 1088
f 1084 1088 1085
f 1087 1089 1106
f 1087 1106 1091
f 1087 1091 1090
f 1088 1105 1107
f 1088 1107 1108
f 1088 1108 1089
f 1089 1108 1109
f 1089 1109 1106
f 1091 1106 1110
f 1091 1110 1092
f 1092 1110 1111
f 1092 1111 1094
f 1095 1111 1112
f 1095 1112 1113
f 1095 1113 1096
f 1096 1113 1114
f 1096 1114 1115
f 1102 1117 1103
f 1103 1118 1119
f 1103 1119 1104
f 1103 1117 1118
f 1104 1119 1105
f 1105 1119 1120
f 1105 1120 1121
f 1105 1121 1122
f 1105 1122 1123
f 1105 1123 1124
f 1105 1124 1107
f 1106 1109 1125
f 1106 1125 1110
f 1107 1124 1108
f 1108 1124 1109
f 1109 1126 1127
f 1109 1127 1110
f 1109 1110 1125
f 1109 1124 1128
f 1109 1128 1126
f 1110 1127 1126
f 1110 1126 1129
f 1110 1129 1111
f 1111 1129 1112
f 1112 1130 1131
f 1112 1131 1132
f 1112 1132 1114
f 1112 1114 1113
f 1112 1129 1130
f 1114 1132 1133
f 1114 1133 1134
f 1114 1134 1135
f 1114 1135 1136
f 1114 1136 1115
f 1115 1136 1116
f 1122 1137 1123
f 1123 1137 1138
f 1123 1138 1133
f 1123 1133 1139
f 1123 1139 1124
f 1124 1139 1128
f 1126 1128 1140
f 1126 1140 1139
f 1126 1139 1132
f 1126 1132 1131
f 1126 1131 1130
f 1126 1130 1129
f 1128 1139 1140
f 1132 1139 1133
f 1133 1138 1141
f 1133 1141 1142
f 1133 1142 1134
o convex_9
v 0.133025 -0.923781 0.0209868
v 0.0419885 -0.895817 0.0349915
v 0.133025 -0.937789 0.0139926
v 0.0210018 -0.909813 0.0279948
v 0.0629891 -0.937789 0.0139926
v 0.0524953 -0.934304 0.0157355
v 0.0419918 -0.951797 -0.0140068
v -0.0107102 -0.909957 0.0212826
v 5.05865e-06 -0.902812 0.0288695
v 0.0104984 -0.892316 0.0367411
v 0.0349862 -0.888821 0.0349915
v 0.133025 -0.881791 0.0209868
v 0.133025 -0.629916 -0.0629888
v 0.0351301 -0.629916 -0.0629888
v 0.000146316 -0.861971 0.0212826
v -0.0197103 -0.881826 0.0212826
v 0.0351301 -0.629916 -0.209958
v 0.133015 -0.629916 -0.209958
v 0.0629891 -0.692885 -0.209958
v 0.0351301 -0.671873 -0.209958
v -0.020235 -0.902812 0.0212826
v 0.0351301 -0.754505 -0.187572
v 0.0419918 -0.755854 -0.188952
v 0.0351301 -0.818822 -0.167947
v 0.0351301 -0.880443 -0.145584
v 0.0419918 -0.881791 -0.146964
v 0.133025 -0.881791 -0.146964
v 0.133025 -0.951797 -0.111971
v 0.0559932 -0.951797 -0.111971
v 0.0351301 -0.909675 -0.133021
v 0.0351301 -0.941538 -0.111835
v 0.0384939 -0.948278 -0.108462
v 0.0351301 -0.951665 -0.101717
v 0.0351301 -0.958932 -0.0908751
v 0.0419918 -0.965805 -0.0839941
v 0.133025 -0.965805 -0.0839941
v 0.133025 -0.965805 -0.0420062
v 0.0419918 -0.965805 -0.0420062
v 0.0351301 -0.965805 -0.0629888
v 0.0351301 -0.964423 -0.0826133
v 0.0351301 -0.965805 -0.0488646
v 0.0351301 -0.964062 -0.0411461
v 0.0351301 -0.95936 -0.03173
v 0.0351301 -0.954066 -0.0220196
v 0.133025 -0.755854 -0.188952
v 0.133025 -0.650895 -0.209958
v 0.104974 -0.692885 -0.209958
f 1144 1145 1143
f 1146 1145 1144
f 1146 1147 1145
f 1148 1147 1146
f 1148 1149 1147
f 1148 1150 1149
f 1148 1146 1150
f 1146 1151 1150
f 1146 1152 1151
f 1146 1144 1152
f 1144 1153 1152
f 1144 1154 1153
f 1144 1143 1154
f 1154 1143 1155
f 1154 1155 1153
f 1152 1153 1155
f 1152 1155 1156
f 1157 1152 1156
f 1157 1158 1152
f 1157 1156 1158
f 1156 1159 1158
f 1156 1155 1159
f 1160 1159 1155
f 1161 1159 1160
f 1162 1159 1161
f 1162 1163 1159
f 1162 1164 1163
f 1165 1164 1162
f 1166 1164 1165
f 1166 1163 1164
f 1166 1167 1163
f 1166 1168 1167
f 1166 1165 1168
f 1165 1161 1168
f 1165 1162 1161
f 1168 1161 1169
f 1168 1169 1170
f 1171 1168 1170
f 1171 1172 1168
f 1171 1173 1172
f 1174 1173 1171
f 1174 1175 1173
f 1174 1176 1175
f 1174 1171 1176
f 1171 1177 1176
f 1171 1170 1177
f 1178 1177 1170
f 1178 1179 1177
f 1178 1170 1179
f 1179 1170 1143
f 1145 1179 1143
f 1145 1147 1179
f 1179 1147 1180
f 1177 1179 1180
f 1181 1177 1180
f 1182 1177 1181
f 1182 1176 1177
f 1182 1163 1176
f 1182 1181 1163
f 1183 1163 1181
f 1183 1184 1163
f 1183 1180 1184
f 1183 1181 1180
f 1185 1184 1180
f 1185 1150 1184
f 1185 1186 1150
f 1185 1149 1186
f 1185 1180 1149
f 1149 1180 1147
f 1186 1149 1150
f 1150 1163 1184
f 1150 1151 1163
f 1151 1152 1163
f 1152 1158 1163
f 1163 1158 1159
f 1175 1176 1163
f 1175 1163 1173
f 1173 1163 1172
f 1167 1172 1163
f 1167 1168 1172
f 1170 1169 1143
f 1143 1169 1155
f 1187 1155 1169
f 1188 1155 1187
f 1188 1160 1155
f 1188 1189 1160
f 1188 1187 1189
f 1189 1187 1169
f 1189 1169 1161
f 1189 1161 1160
o convex_10
v 0.0629891 -0.472285 0.021281
v 0.0419918 -0.478018 0.021281
v 0.0692375 -0.473834 0.021281
v 0.133025 -0.352293 -0.104984
v 0.0351301 -0.352293 -0.104984
v 0.0356667 -0.481197 0.021281
v 0.0767989 -0.479024 0.021281
v 0.133025 -0.352293 -0.251949
v 0.0784281 -0.480464 0.021281
v 0.0909728 -0.496876 0.021281
v 0.0943366 -0.503587 0.021281
v 0.104687 -0.524591 0.021281
v 0.10483 -0.525026 0.021281
v 0.104974 -0.52489 0.0209869
v 0.125972 -0.566871 -0.0210033
v 0.133025 -0.538911 -0.0560396
v 0.0351301 -0.352293 -0.251949
v 0.0351301 -0.566871 -0.0629934
v 0.0366059 -0.503587 0.021281
v 0.0351301 -0.629856 -0.0629934
v 0.133025 -0.39892 -0.251949
v 0.10483 -0.54603 0.021281
v 0.118976 -0.573881 -0.00701548
v 0.133025 -0.629856 -0.0629934
v 0.133025 -0.607113 -0.0595165
v 0.133025 -0.580892 -0.0560396
v 0.0351301 -0.39892 -0.251949
v 0.0377368 -0.508152 0.021281
v 0.0351301 -0.629856 -0.209932
v 0.0944803 -0.582631 0.0104759
v 0.0839865 -0.569969 0.021281
v 0.0797602 -0.56842 0.021281
v 0.0632766 -0.556518 0.021281
v 0.0580057 -0.552361 0.021281
v 0.0523515 -0.545595 0.021281
v 0.0419918 -0.52489 0.021281
v 0.0418576 -0.524591 0.021281
v 0.0419918 -0.419924 -0.251949
v 0.133025 -0.587875 -0.230927
v 0.0996937 -0.569153 0.021281
v 0.133025 -0.629856 -0.209932
v 0.0997225 -0.569507 0.0209869
v 0.0351301 -0.418566 -0.250558
v 0.0351301 -0.615726 -0.21702
v 0.133025 -0.622818 -0.213463
v 0.0995787 -0.569289 0.021281
v 0.0944803 -0.577359 0.0157448
v 0.0351301 -0.587875 -0.230927
v 0.133025 -0.601977 -0.223893
v 0.0351301 -0.594749 -0.227504
v 0.0351301 -0.601869 -0.223947
f 1190 1191 1195
f 1190 1195 1208
f 1190 1208 1217
f 1190 1217 1226
f 1190 1226 1225
f 1190 1225 1224
f 1190 1224 1223
f 1190 1223 1222
f 1190 1222 1221
f 1190 1221 1220
f 1190 1220 1235
f 1190 1235 1229
f 1190 1229 1211
f 1190 1211 1202
f 1190 1202 1201
f 1190 1201 1200
f 1190 1200 1199
f 1190 1199 1198
f 1190 1198 1196
f 1190 1196 1192
f 1190 1192 1193
f 1190 1193 1194
f 1190 1194 1191
f 1191 1194 1195
f 1192 1196 1193
f 1193 1197 1206
f 1193 1206 1194
f 1193 1196 1198
f 1193 1198 1199
f 1193 1199 1200
f 1193 1200 1201
f 1193 1201 1202
f 1193 1202 1203
f 1193 1203 1204
f 1193 1204 1205
f 1193 1205 1215
f 1193 1215 1214
f 1193 1214 1213
f 1193 1213 1230
f 1193 1230 1234
f 1193 1234 1238
f 1193 1238 1228
f 1193 1228 1210
f 1193 1210 1197
f 1194 1206 1216
f 1194 1216 1232
f 1194 1232 1237
f 1194 1237 1239
f 1194 1239 1240
f 1194 1240 1233
f 1194 1233 1218
f 1194 1218 1209
f 1194 1209 1207
f 1194 1207 1195
f 1195 1207 1209
f 1195 1209 1208
f 1197 1210 1227
f 1197 1227 1216
f 1197 1216 1206
f 1202 1211 1204
f 1202 1204 1203
f 1204 1211 1212
f 1204 1212 1213
f 1204 1213 1214
f 1204 1214 1215
f 1204 1215 1205
f 1208 1209 1217
f 1209 1218 1230
f 1209 1230 1213
f 1209 1213 1219
f 1209 1219 1220
f 1209 1220 1221
f 1209 1221 1222
f 1209 1222 1223
f 1209 1223 1224
f 1209 1224 1225
f 1209 1225 1226
f 1209 1226 1217
f 1210 1228 1227
f 1211 1229 1212
f 1212 1229 1213
f 1213 1229 1231
f 1213 1231 1219
f 1216 1227 1232
f 1218 1233 1234
f 1218 1234 1230
f 1219 1231 1235
f 1219 1235 1236
f 1219 1236 1220
f 1220 1236 1235
f 1227 1228 1237
f 1227 1237 1232
f 1228 1238 1239
f 1228 1239 1237
f 1229 1235 1231
f 1233 1240 1238
f 1233 1238 1234
f 1238 1240 1239
o convex_11
v -0.231036 0.257221 -0.0576969
v -0.231036 0.233595 -0.0576969
v -0.167956 0.251934 -0.0630064
v -0.188951 0.272917 -0.0630064
v -0.231036 0.293172 -0.0680421
v -0.167956 0.167939 -0.0630064
v -0.231036 0.0839105 -0.0629643
v -0.209945 0.104992 -0.0630064
v -0.0660533 0.293172 -0.0839918
v -0.231036 0.293172 -0.251622
v -0.0660533 0.0809366 -0.0839918
v -0.231036 0.0604499 -0.0681685
v -0.0660533 -0.0443956 -0.104998
v -0.0839954 0.0629943 -0.0839918
v -0.0660533 0.293172 -0.251938
v -0.230794 0.293172 -0.251791
v -0.231036 0.104926 -0.251938
v -0.231036 1.42477e-05 -0.0839708
v -0.231036 -8.48817e-05 -0.0840129
v -0.231036 -0.0443956 -0.104998
v -0.0660533 -0.0443956 -0.257374
v -0.209945 0.293172 -0.251938
v -0.0660533 -0.0240411 -0.262115
v -0.0734982 -0.0314758 -0.267677
v -0.10499 -0.0419834 -0.272945
v -0.231036 -0.0443956 -0.251938
v -0.0816698 -0.0443956 -0.267382
v -0.0840761 -0.0443956 -0.268288
v -0.10499 -0.0443956 -0.272945
f 1241 1242 1246
f 1241 1246 1243
f 1241 1243 1244
f 1241 1244 1245
f 1241 1245 1250
f 1241 1250 1257
f 1241 1257 1266
f 1241 1266 1260
f 1241 1260 1259
f 1241 1259 1258
f 1241 1258 1252
f 1241 1252 1247
f 1241 1247 1242
f 1242 1247 1248
f 1242 1248 1246
f 1243 1249 1244
f 1243 1246 1251
f 1243 1251 1249
f 1244 1249 1245
f 1245 1249 1255
f 1245 1255 1262
f 1245 1262 1256
f 1245 1256 1250
f 1246 1248 1251
f 1247 1252 1253
f 1247 1253 1254
f 1247 1254 1251
f 1247 1251 1248
f 1249 1251 1253
f 1249 1253 1261
f 1249 1261 1263
f 1249 1263 1255
f 1250 1256 1257
f 1251 1254 1253
f 1252 1258 1253
f 1253 1258 1259
f 1253 1259 1260
f 1253 1260 1266
f 1253 1266 1269
f 1253 1269 1268
f 1253 1268 1267
f 1253 1267 1261
f 1255 1263 1264
f 1255 1264 1265
f 1255 1265 1262
f 1256 1262 1265
f 1256 1265 1257
f 1257 1265 1269
f 1257 1269 1266
f 1261 1267 1264
f 1261 1264 1263
f 1264 1267 1268
f 1264 1268 1269
f 1264 1269 1265
o convex_12
v -0.293662 0.188657 0.021281
v -0.294091 0.188657 0.021281
v -0.278341 0.183568 0.021281
v -0.269454 0.213439 0.00349542
v -0.293953 0.293172 -0.0419983
v -0.306847 0.168236 0.021281
v -0.294812 0.293172 -0.0421856
v -0.308288 0.293172 -0.0489521
v -0.321806 0.293172 -0.0557454
v -0.273239 0.168236 0.021281
v -0.265947 0.195959 0.0069723
v -0.23105 0.293172 -0.0680483
v -0.265947 0.237924 -0.0140228
v -0.307124 0.167675 0.021281
v -0.322153 0.293172 -0.0562536
v -0.343795 0.251934 -0.0629934
v -0.273101 0.167807 0.021281
v -0.251958 1.42477e-05 0.021281
v -0.23105 0.257221 -0.0576978
v -0.23105 0.293172 -0.251628
v -0.314791 0.147254 0.021281
v -0.328891 0.293172 -0.0697332
v -0.33592 0.293172 -0.0839885
v -0.35167 0.241427 -0.0735043
v -0.251958 -0.0209681 0.021281
v -0.23105 0.233595 -0.0576978
v -0.25272 0.293172 -0.246306
v -0.23105 0.104926 -0.251949
v -0.272948 0.0840096 -0.251949
v -0.293953 0.0629943 -0.251949
v -0.314929 0.0209966 -0.251949
v -0.33592 -0.0419834 -0.251949
v -0.335781 0.021294 0.021281
v -0.33592 0.293172 -0.105759
v -0.356925 0.230952 -0.0839885
v -0.335823 0.0209966 0.021281
v -0.23105 -8.48817e-05 -0.0840152
v -0.23105 1.42477e-05 -0.0839885
v -0.23105 0.0604499 -0.068182
v -0.23105 0.0839105 -0.0629667
v -0.259985 -0.0443956 0.021281
v -0.23105 -0.0443956 -0.104984
v -0.273725 0.293172 -0.241064
v -0.23105 -0.0443956 -0.251949
v -0.33592 -0.0443956 -0.251949
v -0.338333 -0.0443956 -0.250745
v -0.349923 -0.0349783 -0.244942
v -0.281197 0.293172 -0.239191
v -0.331428 0.293172 -0.125952
v -0.356925 0.230952 -0.104984
v -0.372675 0.1155 -0.0944994
v -0.33592 0.0209966 0.0209869
v -0.33592 1.42477e-05 0.021281
v -0.334423 -0.0443956 0.021281
v -0.349923 -0.0443956 -0.244942
v -0.356925 -0.0419834 -0.230927
v -0.314929 0.293172 -0.188937
v -0.30094 0.293172 -0.216939
v -0.307928 0.237924 -0.223947
v -0.356925 0.188954 -0.125952
v -0.368626 -0.0443956 -0.146947
v -0.368626 -0.0443956 -0.125952
v -0.370914 0.0840096 -0.0909958
v -0.33592 -0.0416861 0.021281
v -0.335643 -0.0425452 0.021281
v -0.366602 -0.0443956 -0.107391
v -0.356925 -0.0443956 -0.230927
v -0.335865 -0.0419834 0.021281
f 1270 1271 1275
f 1270 1275 1283
f 1270 1283 1290
f 1270 1290 1302
f 1270 1302 1305
f 1270 1305 1322
f 1270 1322 1333
f 1270 1333 1337
f 1270 1337 1334
f 1270 1334 1323
f 1270 1323 1310
f 1270 1310 1294
f 1270 1294 1287
f 1270 1287 1286
f 1270 1286 1279
f 1270 1279 1272
f 1270 1272 1273
f 1270 1273 1274
f 1270 1274 1271
f 1271 1274 1276
f 1271 1276 1277
f 1271 1277 1278
f 1271 1278 1275
f 1272 1279 1280
f 1272 1280 1273
f 1273 1281 1282
f 1273 1282 1274
f 1273 1280 1281
f 1274 1282 1281
f 1274 1281 1289
f 1274 1289 1296
f 1274 1296 1312
f 1274 1312 1317
f 1274 1317 1327
f 1274 1327 1326
f 1274 1326 1318
f 1274 1318 1303
f 1274 1303 1292
f 1274 1292 1291
f 1274 1291 1284
f 1274 1284 1278
f 1274 1278 1277
f 1274 1277 1276
f 1275 1278 1283
f 1278 1284 1285
f 1278 1285 1283
f 1279 1286 1280
f 1280 1286 1287
f 1280 1287 1288
f 1280 1288 1281
f 1281 1288 1295
f 1281 1295 1309
f 1281 1309 1308
f 1281 1308 1307
f 1281 1307 1306
f 1281 1306 1311
f 1281 1311 1313
f 1281 1313 1297
f 1281 1297 1289
f 1283 1285 1290
f 1284 1291 1285
f 1285 1291 1292
f 1285 1292 1293
f 1285 1293 1290
f 1287 1294 1295
f 1287 1295 1288
f 1289 1297 1298
f 1289 1298 1299
f 1289 1299 1300
f 1289 1300 1301
f 1289 1301 1296
f 1290 1293 1302
f 1292 1303 1319
f 1292 1319 1304
f 1292 1304 1293
f 1293 1304 1305
f 1293 1305 1302
f 1294 1306 1307
f 1294 1307 1308
f 1294 1308 1309
f 1294 1309 1295
f 1294 1310 1311
f 1294 1311 1306
f 1296 1301 1312
f 1297 1313 1314
f 1297 1314 1301
f 1297 1301 1300
f 1297 1300 1299
f 1297 1299 1298
f 1301 1314 1315
f 1301 1315 1316
f 1301 1316 1317
f 1301 1317 1312
f 1303 1318 1319
f 1304 1319 1320
f 1304 1320 1305
f 1305 1321 1322
f 1305 1320 1321
f 1310 1323 1335
f 1310 1335 1331
f 1310 1331 1330
f 1310 1330 1336
f 1310 1336 1324
f 1310 1324 1315
f 1310 1315 1314
f 1310 1314 1313
f 1310 1313 1311
f 1315 1324 1316
f 1316 1324 1336
f 1316 1336 1325
f 1316 1325 1326
f 1316 1326 1327
f 1316 1327 1328
f 1316 1328 1317
f 1317 1328 1327
f 1318 1326 1319
f 1319 1326 1329
f 1319 1329 1320
f 1320 1329 1325
f 1320 1325 1330
f 1320 1330 1331
f 1320 1331 1332
f 1320 1332 1333
f 1320 1333 1322
f 1320 1322 1321
f 1323 1334 1335
f 1325 1336 1330
f 1325 1329 1326
f 1331 1335 1332
f 1332 1335 1333
f 1333 1335 1337
f 1334 1337 1335
o convex_13
v 0.261833 -0.0443956 -0.0632157
v 0.251948 -0.0443956 0.021248
v 0.27293 -0.104971 0.0209916
v 0.252395 -0.147194 -0.0632157
v 0.125518 -0.0443956 -0.0632157
v 0.251948 -0.0627033 0.021281
v 0.272887 -0.105026 0.021281
v 0.214831 -0.0443956 0.021281
v 0.265138 -0.126259 0.021281
v 0.252366 -0.146684 0.021281
v 0.252034 -0.147061 0.021281
v 0.251948 -0.14757 -0.0632157
v 0.125518 -0.0634458 -0.0632157
v 0.209953 -0.0443956 0.021281
v 0.251803 -0.147249 0.021281
v 0.25137 -0.147537 0.021281
v 0.231225 -0.157611 0.021281
v 0.222494 -0.155417 0.021281
v 0.251486 -0.147426 -0.0632157
v 0.146515 -0.0844465 -0.0632157
v 0.216664 -0.146684 0.021281
v 0.210242 -0.127401 0.021281
v 0.209953 -0.125971 0.021281
v 0.209492 -0.126426 -0.0632157
f 1338 1339 1340
f 1338 1340 1341
f 1338 1341 1349
f 1338 1349 1356
f 1338 1356 1361
f 1338 1361 1357
f 1338 1357 1350
f 1338 1350 1342
f 1338 1342 1351
f 1338 1351 1345
f 1338 1345 1339
f 1339 1343 1344
f 1339 1344 1340
f 1339 1345 1343
f 1340 1344 1346
f 1340 1346 1341
f 1341 1346 1347
f 1341 1347 1348
f 1341 1348 1349
f 1342 1350 1360
f 1342 1360 1351
f 1343 1345 1351
f 1343 1351 1360
f 1343 1360 1359
f 1343 1359 1358
f 1343 1358 1355
f 1343 1355 1354
f 1343 1354 1353
f 1343 1353 1352
f 1343 1352 1348
f 1343 1348 1347
f 1343 1347 1346
f 1343 1346 1344
f 1348 1352 1349
f 1349 1352 1353
f 1349 1353 1354
f 1349 1354 1355
f 1349 1355 1356
f 1350 1357 1355
f 1350 1355 1358
f 1350 1358 1359
f 1350 1359 1360
f 1355 1357 1361
f 1355 1361 1356
o convex_14
v 0.230965 -0.881789 0.0209957
v 0.133025 -0.881789 0.0209957
v 0.209961 -0.902808 0.0209957
v 0.230965 -0.90539 0.0157324
v 0.244968 -0.888815 0.0139958
v 0.293925 -0.839811 -4.116e-06
v 0.293925 -0.797833 -4.116e-06
v 0.335907 -0.461951 -0.0630037
v 0.335907 -0.352293 -0.0840036
v 0.133025 -0.923767 0.0209957
v 0.209961 -0.352293 -0.0840036
v 0.133025 -0.538941 -0.0560305
v 0.146976 -0.923767 0.0209957
v 0.209961 -0.9168 0.0139958
v 0.220476 -0.918542 0.0104958
v 0.241454 -0.908033 0.0104958
v 0.304414 -0.866055 -0.010504
v 0.307928 -0.846777 -0.00700407
v 0.321931 -0.790807 -0.014004
v 0.335907 -0.713818 -0.021004
v 0.356911 -0.377936 -0.0840036
v 0.361544 -0.352293 -0.0915646
v 0.133025 -0.933075 0.0163469
v 0.133025 -0.352293 -0.105003
v 0.146976 -0.937759 0.0139958
v 0.157491 -0.939501 0.0104958
v 0.209961 -0.931634 -4.116e-06
v 0.262458 -0.908033 -0.010504
v 0.309672 -0.863412 -0.021004
v 0.328932 -0.825819 -0.0280039
v 0.346422 -0.782039 -0.0315039
v 0.300927 -0.888815 -0.0420038
v 0.321931 -0.811826 -0.014004
v 0.34991 -0.762822 -0.0280039
v 0.34991 -0.720844 -0.0280039
v 0.360425 -0.689316 -0.0385039
v 0.346422 -0.68235 -0.0315039
v 0.356911 -0.503929 -0.0630037
v 0.3674 -0.352293 -0.0945035
v 0.3674 -0.472461 -0.0735036
v 0.133025 -0.937759 0.0139958
v 0.133025 -0.352293 -0.251949
v 0.133025 -0.942444 0.00469814
v 0.146976 -0.944786 -4.116e-06
v 0.16798 -0.965805 -0.0420038
v 0.178469 -0.96052 -0.0315039
v 0.188984 -0.952653 -0.021004
v 0.251969 -0.931634 -0.0420038
v 0.262458 -0.918542 -0.0315039
v 0.279923 -0.909774 -0.0420038
v 0.330676 -0.842454 -0.0630037
v 0.351654 -0.821435 -0.105003
v 0.335907 -0.818792 -0.0420038
v 0.351654 -0.779457 -0.0420038
v 0.283436 -0.918542 -0.0945035
v 0.304414 -0.897523 -0.0945035
v 0.307928 -0.895782 -0.105003
v 0.321931 -0.867796 -0.0840036
v 0.356911 -0.755796 -0.0420038
v 0.377915 -0.692859 -0.0630037
v 0.370914 -0.699825 -0.0490038
v 0.370914 -0.657908 -0.0490038
v 0.384917 -0.517922 -0.0770036
v 0.370341 -0.352293 -0.100355
v 0.370914 -0.384962 -0.0910035
v 0.384917 -0.433966 -0.0980035
v 0.377915 -0.377936 -0.105003
v 0.356911 -0.352293 -0.251949
v 0.133025 -0.398955 -0.251949
v 0.133025 -0.965805 -0.0420038
v 0.188984 -0.965805 -0.0630037
v 0.199473 -0.96052 -0.0525038
v 0.209961 -0.952653 -0.0420038
v 0.241454 -0.939501 -0.0525038
v 0.258971 -0.930793 -0.0630037
v 0.342909 -0.846777 -0.12595
v 0.356911 -0.818792 -0.12595
v 0.372658 -0.758438 -0.105003
v 0.372658 -0.71646 -0.0630037
v 0.27555 -0.918542 -0.105003
v 0.278179 -0.913257 -0.115477
v 0.299183 -0.892298 -0.13645
v 0.309672 -0.892298 -0.115477
v 0.258971 -0.930793 -0.0840036
v 0.188984 -0.965805 -0.0840036
v 0.233594 -0.939501 -0.105003
v 0.236223 -0.934276 -0.115477
v 0.377915 -0.755796 -0.12595
v 0.398919 -0.629922 -0.14695
v 0.398919 -0.566926 -0.105003
v 0.398919 -0.524948 -0.105003
v 0.398919 -0.440933 -0.12595
v 0.377915 -0.352293 -0.12595
v 0.370914 -0.352293 -0.244949
v 0.356911 -0.419974 -0.251949
v 0.272921 -0.419974 -0.251949
v 0.133025 -0.587885 -0.230949
v 0.133025 -0.965805 -0.0840036
v 0.341165 -0.829302 -0.15745
v 0.351654 -0.829302 -0.13645
v 0.377915 -0.755796 -0.14695
v 0.279923 -0.895782 -0.13995
v 0.321931 -0.832785 -0.16095
v 0.195985 -0.958778 -0.0980035
v 0.216963 -0.937759 -0.11895
v 0.398919 -0.629922 -0.16795
v 0.398919 -0.419974 -0.14695
v 0.377915 -0.352293 -0.230949
v 0.384917 -0.440933 -0.237949
v 0.370914 -0.440933 -0.244949
v 0.377915 -0.566926 -0.230949
v 0.209961 -0.587885 -0.230949
v 0.133025 -0.755796 -0.188949
v 0.133025 -0.951752 -0.112003
v 0.338536 -0.818792 -0.162713
v 0.362169 -0.766305 -0.178449
v 0.372658 -0.745346 -0.178449
v 0.372658 -0.766305 -0.15745
v 0.377915 -0.734837 -0.16795
v 0.181982 -0.951752 -0.112003
v 0.272921 -0.881789 -0.14695
v 0.314929 -0.818792 -0.16795
v 0.342909 -0.769788 -0.181949
v 0.35954 -0.755796 -0.183713
v 0.398919 -0.608904 -0.188949
v 0.398919 -0.419974 -0.188949
v 0.398919 -0.440933 -0.209949
v 0.391918 -0.566926 -0.223949
v 0.393662 -0.577435 -0.220449
v 0.384917 -0.580918 -0.223949
v 0.356911 -0.67184 -0.209949
v 0.335907 -0.755796 -0.188949
v 0.133025 -0.881789 -0.14695
v 0.393662 -0.619413 -0.199449
v 0.363913 -0.685833 -0.202949
v 0.372658 -0.68235 -0.199449
v 0.398919 -0.566926 -0.209949
f 1362 1363 1371
f 1362 1371 1374
f 1362 1374 1364
f 1362 1364 1365
f 1362 1365 1366
f 1362 1366 1367
f 1362 1367 1368
f 1362 1368 1369
f 1362 1369 1370
f 1362 1370 1372
f 1362 1372 1363
f 1363 1372 1373
f 1363 1373 1385
f 1363 1385 1403
f 1363 1403 1430
f 1363 1430 1458
f 1363 1458 1474
f 1363 1474 1494
f 1363 1494 1475
f 1363 1475 1459
f 1363 1459 1431
f 1363 1431 1404
f 1363 1404 1402
f 1363 1402 1384
f 1363 1384 1371
f 1364 1374 1386
f 1364 1386 1375
f 1364 1375 1365
f 1365 1375 1376
f 1365 1376 1377
f 1365 1377 1366
f 1366 1377 1378
f 1366 1378 1379
f 1366 1379 1367
f 1367 1379 1394
f 1367 1394 1380
f 1367 1380 1368
f 1368 1380 1381
f 1368 1381 1369
f 1369 1382 1370
f 1369 1381 1382
f 1370 1383 1400
f 1370 1400 1425
f 1370 1425 1454
f 1370 1454 1469
f 1370 1469 1455
f 1370 1455 1429
f 1370 1429 1403
f 1370 1403 1385
f 1370 1385 1372
f 1370 1382 1383
f 1371 1384 1374
f 1372 1385 1373
f 1374 1384 1386
f 1375 1386 1387
f 1375 1387 1376
f 1376 1387 1388
f 1376 1388 1377
f 1377 1388 1409
f 1377 1409 1389
f 1377 1389 1378
f 1378 1390 1391
f 1378 1391 1392
f 1378 1392 1379
f 1378 1389 1393
f 1378 1393 1390
f 1379 1392 1395
f 1379 1395 1394
f 1380 1396 1381
f 1380 1394 1395
f 1380 1395 1396
f 1381 1396 1397
f 1381 1397 1398
f 1381 1398 1399
f 1381 1399 1382
f 1382 1400 1383
f 1382 1399 1401
f 1382 1401 1400
f 1384 1402 1386
f 1386 1402 1404
f 1386 1404 1405
f 1386 1405 1387
f 1387 1405 1406
f 1387 1406 1407
f 1387 1407 1408
f 1387 1408 1388
f 1388 1408 1409
f 1389 1409 1410
f 1389 1410 1411
f 1389 1411 1393
f 1390 1412 1391
f 1390 1393 1412
f 1391 1412 1413
f 1391 1413 1414
f 1391 1414 1415
f 1391 1415 1392
f 1392 1415 1395
f 1393 1411 1416
f 1393 1416 1417
f 1393 1417 1418
f 1393 1418 1419
f 1393 1419 1412
f 1395 1415 1420
f 1395 1420 1421
f 1395 1421 1422
f 1395 1422 1397
f 1395 1397 1396
f 1397 1422 1423
f 1397 1423 1424
f 1397 1424 1399
f 1397 1399 1398
f 1399 1424 1401
f 1400 1401 1426
f 1400 1426 1427
f 1400 1427 1428
f 1400 1428 1425
f 1401 1424 1426
f 1403 1429 1456
f 1403 1456 1457
f 1403 1457 1430
f 1404 1431 1406
f 1404 1406 1405
f 1406 1431 1459
f 1406 1459 1446
f 1406 1446 1432
f 1406 1432 1433
f 1406 1433 1407
f 1407 1433 1408
f 1408 1433 1434
f 1408 1434 1409
f 1409 1434 1433
f 1409 1433 1435
f 1409 1435 1436
f 1409 1436 1411
f 1409 1411 1410
f 1411 1436 1416
f 1412 1419 1437
f 1412 1437 1413
f 1413 1437 1438
f 1413 1438 1449
f 1413 1449 1439
f 1413 1439 1415
f 1413 1415 1414
f 1415 1439 1440
f 1415 1440 1421
f 1415 1421 1420
f 1416 1441 1442
f 1416 1442 1443
f 1416 1443 1444
f 1416 1444 1418
f 1416 1418 1417
f 1416 1436 1445
f 1416 1445 1446
f 1416 1446 1447
f 1416 1447 1448
f 1416 1448 1441
f 1418 1444 1437
f 1418 1437 1419
f 1421 1440 1449
f 1421 1449 1450
f 1421 1450 1451
f 1421 1451 1452
f 1421 1452 1424
f 1421 1424 1423
f 1421 1423 1422
f 1424 1452 1453
f 1424 1453 1427
f 1424 1427 1426
f 1425 1428 1454
f 1427 1453 1428
f 1428 1453 1454
f 1429 1455 1470
f 1429 1470 1471
f 1429 1471 1456
f 1430 1457 1458
f 1432 1446 1445
f 1432 1445 1436
f 1432 1436 1433
f 1433 1436 1435
f 1437 1460 1461
f 1437 1461 1438
f 1437 1444 1443
f 1437 1443 1460
f 1438 1461 1479
f 1438 1479 1462
f 1438 1462 1449
f 1439 1449 1440
f 1441 1448 1442
f 1442 1448 1443
f 1443 1448 1463
f 1443 1463 1464
f 1443 1464 1460
f 1446 1459 1475
f 1446 1475 1481
f 1446 1481 1465
f 1446 1465 1447
f 1447 1465 1448
f 1448 1465 1466
f 1448 1466 1463
f 1449 1462 1467
f 1449 1467 1450
f 1450 1467 1486
f 1450 1486 1498
f 1450 1498 1488
f 1450 1488 1487
f 1450 1487 1468
f 1450 1468 1453
f 1450 1453 1452
f 1450 1452 1451
f 1453 1468 1454
f 1454 1468 1487
f 1454 1487 1469
f 1455 1469 1488
f 1455 1488 1470
f 1456 1471 1472
f 1456 1472 1473
f 1456 1473 1458
f 1456 1458 1457
f 1458 1473 1492
f 1458 1492 1493
f 1458 1493 1474
f 1460 1464 1476
f 1460 1476 1485
f 1460 1485 1477
f 1460 1477 1478
f 1460 1478 1461
f 1461 1478 1479
f 1462 1479 1478
f 1462 1478 1480
f 1462 1480 1467
f 1463 1466 1481
f 1463 1481 1482
f 1463 1482 1483
f 1463 1483 1464
f 1464 1483 1493
f 1464 1493 1484
f 1464 1484 1485
f 1464 1485 1476
f 1465 1481 1466
f 1467 1480 1486
f 1469 1487 1488
f 1470 1488 1498
f 1470 1498 1489
f 1470 1489 1472
f 1470 1472 1471
f 1472 1489 1490
f 1472 1490 1491
f 1472 1491 1496
f 1472 1496 1492
f 1472 1492 1473
f 1474 1493 1483
f 1474 1483 1482
f 1474 1482 1494
f 1475 1494 1482
f 1475 1482 1481
f 1477 1485 1478
f 1478 1485 1490
f 1478 1490 1495
f 1478 1495 1486
f 1478 1486 1480
f 1484 1493 1485
f 1485 1493 1492
f 1485 1492 1496
f 1485 1496 1497
f 1485 1497 1490
f 1486 1495 1490
f 1486 1490 1498
f 1489 1498 1490
f 1490 1497 1496
f 1490 1496 1491
o convex_15
v -0.25998 -0.0443956 0.021281
v -0.272951 -0.0629981 -0.0632157
v -0.272951 -0.0443956 -0.0632157
v -0.334424 -0.0443956 0.021281
v -0.262305 -0.125965 0.021281
v -0.280814 -0.0839127 -0.0632157
v -0.264863 -0.146683 0.021281
v -0.278198 -0.0944882 -0.0524882
v -0.319114 -0.0443956 -0.0632157
v -0.312221 -0.0812721 -0.0632157
v -0.314932 -0.146959 0.0209916
v -0.314932 -0.146959 0.021281
v -0.280967 -0.0840703 -0.0632157
v -0.266429 -0.149823 0.021281
v -0.265074 -0.146959 0.0209916
v -0.275502 -0.166441 0.021281
v -0.276391 -0.167177 0.021281
v -0.286942 -0.0979828 -0.0559868
v -0.302289 -0.0923468 -0.0632157
v -0.300933 -0.111974 -0.0489895
v -0.300933 -0.153961 -0.00700584
v -0.300933 -0.174954 0.0139943
v -0.30822 -0.167676 0.021281
v -0.311434 -0.143464 0.00349836
v -0.314647 -0.148391 0.021281
v -0.294171 -0.09437 -0.0632157
v -0.293661 -0.178607 0.021281
v -0.286942 -0.160963 0.006997
v -0.286942 -0.13997 -0.0140031
v -0.302391 -0.176413 0.021281
f 1499 1500 1501
f 1499 1501 1507
f 1499 1507 1502
f 1499 1502 1510
f 1499 1510 1523
f 1499 1523 1521
f 1499 1521 1528
f 1499 1528 1525
f 1499 1525 1515
f 1499 1515 1514
f 1499 1514 1512
f 1499 1512 1505
f 1499 1505 1503
f 1499 1503 1500
f 1500 1504 1511
f 1500 1511 1524
f 1500 1524 1517
f 1500 1517 1508
f 1500 1508 1507
f 1500 1507 1501
f 1500 1503 1505
f 1500 1505 1506
f 1500 1506 1504
f 1502 1507 1508
f 1502 1508 1509
f 1502 1509 1510
f 1504 1506 1511
f 1505 1512 1513
f 1505 1513 1506
f 1506 1513 1512
f 1506 1512 1514
f 1506 1514 1515
f 1506 1515 1516
f 1506 1516 1511
f 1508 1517 1518
f 1508 1518 1519
f 1508 1519 1520
f 1508 1520 1521
f 1508 1521 1522
f 1508 1522 1523
f 1508 1523 1509
f 1509 1523 1510
f 1511 1516 1524
f 1515 1525 1526
f 1515 1526 1527
f 1515 1527 1516
f 1516 1527 1524
f 1517 1524 1518
f 1518 1524 1519
f 1519 1524 1527
f 1519 1527 1525
f 1519 1525 1520
f 1520 1525 1528
f 1520 1528 1521
f 1521 1523 1522
f 1525 1527 1526
o convex_16
v -0.336389 -0.352293 -0.0632157
v -0.33479 -0.352293 -0.0632157
v -0.335932 -0.352293 -0.0629873
v -0.336389 -0.335933 -0.0632157
v -0.33479 -0.336162 -0.0632157
v -0.335932 -0.335933 -0.0629873
v -0.33616 -0.335475 -0.0632157
v -0.335703 -0.335704 -0.0632157
f 1529 1530 1531
f 1529 1531 1534
f 1529 1534 1532
f 1529 1532 1535
f 1529 1535 1536
f 1529 1536 1533
f 1529 1533 1530
f 1530 1533 1534
f 1530 1534 1531
f 1532 1534 1535
f 1533 1536 1534
f 1534 1536 1535
