# https://github.com/mikedh/trimesh
v 0.46742300 -0.11046600 -0.16571900
v 0.49293300 -0.13597100 -0.15296700
v 0.48725000 -0.15863100 -0.14163700
v 0.43626300 -0.15863100 -0.14163700
v 0.44194600 -0.13597100 -0.15296700
v 0.37632100 -0.14666900 -0.14668300
v 0.37632100 -0.12890000 -0.14825400
v 0.45893100 -0.10763800 -0.16429600
v 0.45893100 -0.06799060 -0.15296700
v 0.47591600 -0.06799060 -0.15296700
v 0.64586100 -0.08499400 -0.15296700
v 0.66284600 -0.10198100 -0.15296700
v 0.64586100 -0.11896800 -0.15296700
v 0.49858400 -0.14730100 -0.14729300
v 0.47026500 -0.17561800 -0.12463400
v 0.65151200 -0.16428800 -0.13030800
v 0.45328100 -0.17561800 -0.12463400
v 0.37632100 -0.18067600 -0.11267600
v 0.37632100 -0.08499400 -0.14825400
v 0.45893100 -0.04533040 -0.14163700
v 0.37632100 -0.06799060 -0.14235800
v 0.47591600 -0.04533040 -0.14163700
v 0.48444100 -0.05948880 -0.14871600
v 0.65435400 -0.07649230 -0.14871600
v 0.67137100 -0.09349580 -0.14871600
v 0.68551400 -0.10198100 -0.14163700
v 0.66499400 -0.11896800 -0.14871600
v 0.65151200 -0.13029800 -0.14729300
v 0.48159900 -0.18129200 -0.11330500
v 0.68551400 -0.14730100 -0.13030800
v 0.66710900 -0.16146000 -0.12746200
v 0.66710900 -0.17846300 -0.09347380
v 0.65151200 -0.18129200 -0.09630150
v 0.45893100 -0.18696500 -0.10197500
v 0.42492900 -0.18696500 -0.08497220
v 0.37632100 -0.18224000 -0.09489690
v 0.44194600 -0.01699680 -0.08497220
v 0.37632100 -0.04343370 -0.11779600
v 0.43342100 -0.03824280 -0.12746200
v 0.47591600 -0.01699680 -0.08497220
v 0.49293300 -0.03967360 -0.13030800
v 0.64586100 -0.04533040 -0.12463400
v 0.64586100 -0.06233380 -0.14163700
v 0.66284600 -0.06799060 -0.14234000
v 0.67986400 -0.08499400 -0.14234000
v 0.68835600 -0.07649230 -0.13171200
v 0.70253200 -0.10198100 -0.12463400
v 0.69119800 -0.13597100 -0.13030800
v 0.66710900 -0.12746900 -0.14446500
v 0.69261900 -0.14447300 -0.12746200
v 0.47591600 -0.18696500 -0.10197500
v 0.64586100 -0.18696500 -0.08497220
v 0.68409300 -0.16146000 -0.11047700
v 0.67137100 -0.18270600 -0.07647060
v 0.66499400 -0.18270600 -0.08497220
v 0.42492900 -0.18696500 -0.06798750
v 0.37632100 -0.18224000 -0.06798750
v 0.44194600 -0.01699680 -0.06798750
v 0.43342100 -0.02125600 -0.09347380
v 0.37632100 -0.02643020 -0.08378930
v 0.49293300 -0.03400030 -0.11896000
v 0.49293300 -0.01699680 -0.06798750
v 0.63736900 -0.02125600 -0.07647060
v 0.64586100 -0.02267020 -0.07931680
v 0.66284600 -0.03824280 -0.10410100
v 0.67137100 -0.04250200 -0.10622600
v 0.68835600 -0.05948880 -0.12321100
v 0.67137100 -0.05948880 -0.13171200
v 0.70534100 -0.07649230 -0.10622600
v 0.70960300 -0.08499400 -0.10410100
v 0.71386600 -0.10198100 -0.10197500
v 0.70960300 -0.11046600 -0.11047700
v 0.70322600 -0.11896800 -0.11896000
v 0.70960300 -0.12746900 -0.09347380
v 0.69261900 -0.16146000 -0.09347380
v 0.64586100 -0.18696500 -0.06798750
v 0.65435400 -0.18270600 -0.05950430
v 0.69119800 -0.16428800 -0.08497220
v 0.67986400 -0.17633400 -0.06798750
v 0.67137100 -0.16571900 -0.02549790
v 0.44194600 -0.18696500 -0.05100270
v 0.37632100 -0.17635000 -0.05100270
v 0.44759700 -0.04533040 -0.01134090
v 0.37632100 -0.02643020 -0.07623030
v 0.37632100 -0.02879280 -0.06279410
v 0.37632100 -0.03872530 -0.03871240
v 0.42492900 -0.03400030 -0.03399950
v 0.49858400 -0.04533040 -0.01134090
v 0.64586100 -0.03400030 -0.03399950
v 0.64021100 -0.02267020 -0.07364290
v 0.65435400 -0.02549850 -0.07647060
v 0.65435400 -0.02549850 -0.08072140
v 0.67986400 -0.03824280 -0.08709760
v 0.68835600 -0.04250200 -0.08922300
v 0.70818200 -0.07366390 -0.09064610
v 0.71386600 -0.08499400 -0.08497220
v 0.71386600 -0.11896800 -0.08497220
v 0.71386600 -0.11896800 -0.06798750
v 0.69119800 -0.16428800 -0.06798750
v 0.48444100 -0.18270600 -0.04250110
v 0.47591600 -0.18696500 -0.05100270
v 0.47591600 -0.15295800 0.02307210
v 0.68835600 -0.16571900 -0.05950430
v 0.68551400 -0.15863100 -0.03399950
v 0.67986400 -0.15508800 -0.02124710
v 0.64586100 -0.15863100 -0.01134090
v 0.44194600 -0.15295800 0.02307210
v 0.37632100 -0.15934700 -0.01701480
v 0.44194600 -0.06799060 0.02307210
v 0.41927800 -0.03967360 -0.02267020
v 0.37632100 -0.04579620 -0.02878770
v 0.47591600 -0.06799060 0.02307210
v 0.64021100 -0.03967360 -0.02267020
v 0.67137100 -0.04250200 -0.02549790
v 0.66003700 -0.03682860 -0.03682720
v 0.66568800 -0.03117190 -0.06515970
v 0.68835600 -0.04250200 -0.05950430
v 0.67702200 -0.03682860 -0.07083360
v 0.70253200 -0.06233380 -0.07931680
v 0.71386600 -0.08499400 -0.06798750
v 0.71386600 -0.10198100 -0.05100270
v 0.70960300 -0.12109700 -0.05100270
v 0.69261900 -0.15508800 -0.05100270
v 0.48725000 -0.14730100 0.02307210
v 0.64586100 -0.14730100 -0.00566702
v 0.64586100 -0.13597100 -0.00001160
v 0.68835600 -0.14871500 -0.02549790
v 0.67137100 -0.14021400 -0.00851321
v 0.69119800 -0.14162800 -0.02267020
v 0.66284600 -0.13808400 -0.00426240
v 0.43104200 -0.14751800 0.02307210
v 0.43061200 -0.14730100 0.02307210
v 0.37632100 -0.15177700 -0.00943729
v 0.37632100 -0.05334960 -0.01936200
v 0.41927800 -0.07932070 0.02307210
v 0.48202900 -0.07103520 0.02307210
v 0.64586100 -0.08499400 -0.00001160
v 0.65151200 -0.06233380 -0.01134090
v 0.67137100 -0.07649230 -0.00851321
v 0.68835600 -0.05948880 -0.02549790
v 0.68267200 -0.04815870 -0.03117180
v 0.68551400 -0.04533040 -0.04532880
v 0.69119800 -0.05666050 -0.03967340
v 0.70253200 -0.06233380 -0.06233200
v 0.70534100 -0.07649230 -0.04250110
v 0.70818200 -0.10763800 -0.03967340
v 0.70253200 -0.09632410 -0.02834410
v 0.70534100 -0.12321000 -0.04250110
v 0.49131400 -0.14527100 0.02307210
v 0.66284600 -0.11896800 -0.00001160
v 0.49858400 -0.14162800 0.02307210
v 0.67418000 -0.12464100 -0.00566702
v 0.68551400 -0.11331100 -0.01134090
v 0.43038100 -0.14686900 0.02307210
v 0.37632100 -0.13360900 -0.00472445
v 0.42492900 -0.13597100 0.02307210
v 0.41359500 -0.11331100 0.02307210
v 0.40794400 -0.10198100 0.02307210
v 0.37632100 -0.06278310 -0.01180300
v 0.37632100 -0.07271560 -0.00472445
v 0.41359500 -0.09065080 0.02307210
v 0.49858400 -0.07932070 0.02307210
v 0.66284600 -0.10198100 -0.00001160
v 0.66003700 -0.08782240 -0.00283931
v 0.68551400 -0.09632410 -0.01134090
v 0.69119800 -0.07366390 -0.02267020
v 0.50991800 -0.11896800 0.02307210
v 0.50426700 -0.13029800 0.02307210
v 0.50063300 -0.13756800 0.02307210
v 0.67418000 -0.10763800 -0.00566702
v 0.40996000 -0.09792130 0.02307210
v 0.50426700 -0.09065080 0.02307210
v 0.50991800 -0.10198100 0.02307210
f 102 151 169
f 98 122 123
f 102 149 151
f 102 124 149
f 100 102 101
f 99 123 103
f 98 123 99
f 98 121 122
f 91 93 92
f 96 119 144
f 95 119 96
f 94 119 95
f 94 144 119
f 94 117 144
f 93 117 94
f 93 118 117
f 102 169 168
f 96 144 120
f 102 168 167
f 102 126 124
f 102 173 172
f 91 118 93
f 102 125 126
f 102 106 125
f 102 131 107
f 102 132 131
f 102 154 132
f 102 156 154
f 102 157 156
f 102 158 157
f 102 171 158
f 102 161 171
f 102 135 161
f 102 109 135
f 102 112 109
f 102 136 112
f 102 162 136
f 102 172 162
f 102 167 173
f 91 117 118
f 80 106 102
f 91 114 116
f 79 99 103
f 78 99 79
f 77 102 100
f 77 80 102
f 76 100 101
f 76 77 100
f 75 99 78
f 75 98 99
f 79 103 104
f 75 97 98
f 71 74 72
f 71 97 74
f 71 98 97
f 71 121 98
f 71 120 121
f 71 96 120
f 70 96 71
f 70 95 96
f 74 97 75
f 91 116 117
f 79 104 80
f 80 105 106
f 91 115 114
f 90 115 91
f 89 115 90
f 89 114 115
f 89 113 114
f 88 113 89
f 88 112 113
f 86 110 87
f 80 104 105
f 86 111 110
f 83 87 110
f 83 112 88
f 83 109 112
f 82 107 108
f 81 107 82
f 81 102 107
f 81 101 102
f 103 123 104
f 83 110 109
f 104 123 127
f 114 141 142
f 105 128 106
f 139 163 165
f 139 164 163
f 139 166 140
f 139 165 166
f 137 162 163
f 137 139 138
f 137 164 139
f 137 163 164
f 136 162 137
f 135 160 161
f 135 159 160
f 134 159 135
f 133 158 155
f 133 157 158
f 133 156 157
f 133 154 156
f 132 154 133
f 140 142 141
f 140 166 147
f 140 147 145
f 140 145 144
f 69 94 95
f 163 172 173
f 162 172 163
f 160 171 161
f 158 171 160
f 155 158 160
f 152 165 170
f 152 153 165
f 130 152 150
f 150 170 163
f 150 169 151
f 150 168 169
f 150 167 168
f 150 173 167
f 150 163 173
f 147 165 153
f 147 166 165
f 140 144 143
f 150 152 170
f 129 153 152
f 129 147 153
f 129 146 147
f 114 142 117
f 114 140 141
f 163 170 165
f 114 139 140
f 112 114 113
f 112 138 114
f 112 137 138
f 112 136 137
f 114 117 116
f 109 134 135
f 109 110 111
f 108 132 133
f 108 131 132
f 107 131 108
f 106 130 125
f 106 128 130
f 105 129 128
f 105 127 129
f 109 111 134
f 104 127 105
f 114 138 139
f 117 140 143
f 129 148 146
f 128 152 130
f 128 129 152
f 126 151 149
f 126 150 151
f 126 130 150
f 125 130 126
f 124 126 149
f 117 142 140
f 123 129 127
f 122 148 129
f 122 146 148
f 121 147 146
f 121 145 147
f 121 146 122
f 120 144 145
f 120 145 121
f 117 143 144
f 122 129 123
f 69 95 70
f 18 34 35
f 66 94 67
f 15 16 29
f 15 34 17
f 15 51 34
f 15 29 51
f 14 28 16
f 13 27 28
f 12 27 13
f 12 26 27
f 12 25 26
f 11 23 24
f 11 25 12
f 11 24 25
f 10 23 11
f 10 22 23
f 9 21 20
f 9 19 21
f 9 22 10
f 16 28 30
f 16 30 31
f 16 31 32
f 16 32 33
f 26 45 46
f 25 45 26
f 24 43 44
f 24 45 25
f 24 44 45
f 23 43 24
f 22 43 23
f 22 42 43
f 9 20 22
f 22 41 42
f 20 39 37
f 20 38 39
f 20 21 38
f 20 40 22
f 20 37 40
f 18 35 36
f 17 34 18
f 16 33 29
f 22 40 41
f 26 46 47
f 8 19 9
f 6 19 7
f 3 17 4
f 3 15 17
f 2 28 14
f 2 13 28
f 2 14 3
f 1 13 2
f 1 12 13
f 1 11 12
f 1 10 11
f 1 9 10
f 1 8 9
f 1 6 7
f 1 5 6
f 1 4 5
f 1 3 4
f 1 2 3
f 67 94 69
f 3 14 16
f 3 16 15
f 4 17 18
f 4 18 6
f 6 21 19
f 6 38 21
f 6 60 38
f 6 84 60
f 6 85 84
f 6 86 85
f 6 111 86
f 6 134 111
f 7 19 8
f 6 159 134
f 6 155 160
f 6 133 155
f 6 108 133
f 6 82 108
f 6 57 82
f 6 36 57
f 6 18 36
f 4 6 5
f 6 160 159
f 26 47 48
f 1 7 8
f 27 49 28
f 54 77 76
f 53 75 54
f 52 54 76
f 52 55 54
f 50 75 53
f 50 74 75
f 50 72 74
f 50 73 72
f 47 67 69
f 47 50 48
f 47 73 50
f 47 72 73
f 47 71 72
f 47 70 71
f 47 69 70
f 46 67 47
f 45 67 46
f 54 75 78
f 54 78 79
f 54 79 80
f 54 80 77
f 66 93 94
f 26 48 27
f 65 93 66
f 65 92 93
f 64 91 92
f 63 91 64
f 63 90 91
f 63 89 90
f 44 67 45
f 62 89 63
f 58 87 83
f 58 86 87
f 58 85 86
f 58 84 85
f 58 88 62
f 58 83 88
f 57 81 82
f 56 81 57
f 62 88 89
f 44 68 67
f 64 92 65
f 42 68 43
f 34 81 56
f 34 101 81
f 34 76 101
f 34 52 76
f 34 51 52
f 33 55 52
f 32 55 33
f 32 54 55
f 32 53 54
f 31 53 32
f 31 50 53
f 30 50 31
f 29 52 51
f 29 33 52
f 27 30 49
f 43 68 44
f 27 48 50
f 34 56 35
f 35 56 57
f 28 49 30
f 37 58 62
f 42 67 68
f 42 66 67
f 35 57 36
f 42 65 66
f 42 64 65
f 41 64 42
f 41 61 64
f 40 64 61
f 40 63 64
f 27 50 30
f 40 61 41
f 40 62 63
f 37 59 60
f 37 62 40
f 37 60 84
f 37 39 59
f 37 84 58
f 38 60 39
f 39 60 59

