# https://github.com/mikedh/trimesh
v 0.00003558 -0.05183980 0.50948100
v 0.03401330 -0.05183980 0.51797100
v 0.00003558 -0.05183980 0.54445600
v 0.00003558 0.25495400 0.41642000
v 0.00568522 0.26059000 0.41359000
v 0.00850006 0.26340900 0.41218500
v 0.05014370 -0.05183980 0.52562200
v 0.04249770 0.02553760 0.49714500
v 0.10763800 0.43056400 0.39660900
v 0.03171750 -0.05183980 0.57332300
v 0.03171750 -0.02380970 0.57332300
v 0.00003558 -0.03395590 0.54389000
v 0.00003558 0.26622700 0.41359000
v 0.00003558 0.44183800 0.37394900
v 0.01700450 0.44188900 0.37393000
v 0.03401330 0.44188900 0.37393000
v 0.10198900 0.44188900 0.39093000
v 0.05184060 -0.05183980 0.52646100
v 0.11472500 0.43338300 0.39944000
v 0.05992580 -0.05183980 0.57332300
v 0.03229640 -0.01699430 0.57332300
v 0.00003558 0.11900500 0.50989000
v 0.00003558 0.45890200 0.37393000
v 0.03401330 0.45890200 0.37393000
v 0.10198900 0.45890200 0.39093000
v 0.12462700 0.44188900 0.40227000
v 0.05992580 -0.05183980 0.54303200
v 0.14163600 0.44188900 0.41927000
v 0.17563400 0.44188900 0.45325000
v 0.18270100 0.43338300 0.46742000
v 0.16766800 0.30132900 0.57332300
v 0.13425000 0.40335400 0.57332300
v 0.00003558 0.39090200 0.44193000
v 0.00003558 0.47022700 0.37961000
v 0.04249770 0.46740800 0.37818500
v 0.11047300 0.46740800 0.39518500
v 0.12462700 0.45890200 0.40227000
v 0.14870300 0.26340900 0.51840000
v 0.15295500 0.27191500 0.52689000
v 0.14163600 0.45890200 0.41927000
v 0.17563400 0.45890200 0.45325000
v 0.18695300 0.44188900 0.47591000
v 0.19971000 0.43338300 0.53538100
v 0.20396200 0.44188900 0.54389000
v 0.20396200 0.44188900 0.57332300
v 0.13596600 0.40791500 0.57332300
v 0.00003558 0.40381500 0.43666000
v 0.00003558 0.47022700 0.38527000
v 0.03187720 0.47166100 0.39093000
v 0.05100210 0.47166100 0.38880200
v 0.03401330 0.47022700 0.37961000
v 0.10198900 0.47022700 0.39660900
v 0.11897800 0.47166100 0.40580200
v 0.18695300 0.45890200 0.47591000
v 0.16996400 0.47166100 0.45680200
v 0.17844800 0.46740800 0.46316500
v 0.18128300 0.47022700 0.47025000
v 0.20396200 0.45890200 0.54389000
v 0.20396200 0.45890200 0.57332300
v 0.00003558 0.41467900 0.43172200
v 0.14163600 0.41924000 0.57332300
v 0.19262300 0.47022700 0.57332300
v 0.18483700 0.47166100 0.54389000
v 0.18695300 0.47166100 0.52476300
v 0.19829200 0.47022700 0.53823000
v 0.19829200 0.47022700 0.57332300
f 31 39 44
f 31 44 45
f 32 46 33
f 33 46 47
f 34 48 49
f 34 49 50
f 34 50 51
f 34 51 35
f 35 51 52
f 36 52 53
f 36 53 37
f 38 43 39
f 37 53 40
f 35 52 36
f 27 39 31
f 30 42 43
f 29 42 30
f 29 54 42
f 29 41 54
f 28 41 29
f 28 40 41
f 27 38 39
f 27 30 38
f 26 40 28
f 26 37 40
f 25 36 37
f 24 36 25
f 39 43 44
f 24 35 36
f 30 43 38
f 40 53 41
f 49 55 53
f 41 55 56
f 23 35 24
f 64 66 65
f 63 66 64
f 62 66 63
f 58 66 59
f 58 65 66
f 55 57 56
f 55 65 57
f 55 64 65
f 54 65 58
f 54 57 65
f 50 52 51
f 50 53 52
f 49 53 50
f 49 64 55
f 49 63 64
f 48 61 62
f 48 60 61
f 48 63 49
f 48 62 63
f 46 61 60
f 46 60 47
f 44 59 45
f 44 58 59
f 42 44 43
f 42 58 44
f 42 54 58
f 41 57 54
f 41 56 57
f 41 53 55
f 23 34 35
f 17 26 19
f 21 32 22
f 6 14 15
f 6 13 14
f 5 13 6
f 4 13 5
f 3 11 12
f 3 10 11
f 2 9 7
f 2 8 9
f 2 6 8
f 1 6 2
f 1 5 6
f 1 4 5
f 1 13 4
f 1 14 13
f 1 23 14
f 1 34 23
f 1 48 34
f 1 60 48
f 1 47 60
f 1 33 47
f 1 22 33
f 1 12 22
f 1 3 12
f 1 10 3
f 1 20 10
f 1 27 20
f 22 32 33
f 1 7 18
f 1 2 7
f 6 15 16
f 6 16 17
f 1 18 27
f 7 9 18
f 6 17 8
f 20 27 31
f 18 29 30
f 18 28 29
f 18 26 28
f 18 19 26
f 17 37 26
f 17 25 37
f 16 25 17
f 16 24 25
f 15 24 16
f 15 23 24
f 14 23 15
f 12 21 22
f 18 30 27
f 10 21 11
f 9 17 19
f 8 17 9
f 9 19 18
f 10 20 31
f 10 31 45
f 11 21 12
f 10 45 59
f 10 59 66
f 10 66 62
f 10 62 61
f 10 61 46
f 10 46 32
f 10 32 21

