# https://github.com/mikedh/trimesh
v -0.20396200 0.44188900 0.54389000
v -0.16904000 0.30680600 0.57332300
v -0.20396200 0.44188900 0.57332300
v -0.20396200 0.45889600 0.54389000
v -0.18695000 0.44188900 0.47591000
v -0.15296700 0.27191800 0.52689000
v -0.05992370 -0.05183980 0.54389000
v -0.05992370 -0.05183980 0.57332300
v -0.20396200 0.45889600 0.57332300
v -0.19829100 0.47020000 0.54389000
v -0.19545600 0.47163900 0.53538100
v -0.17846500 0.47163900 0.46742000
v -0.18695000 0.45889600 0.47591000
v -0.17562900 0.43623700 0.45325000
v -0.05852600 -0.05183980 0.53830800
v -0.02815710 -0.05183980 0.57332300
v -0.19829100 0.47020000 0.57332300
v -0.18978600 0.47307800 0.54106000
v -0.17279400 0.47307800 0.47308000
v -0.11047900 0.47163900 0.39944000
v -0.13030500 0.46454800 0.41359000
v -0.18128000 0.46454800 0.46459000
v -0.17562900 0.45324400 0.45325000
v -0.12463500 0.43623700 0.40227000
v -0.10764400 0.26626600 0.45325000
v -0.12463500 0.26626600 0.47025000
v -0.05155770 -0.05183980 0.52632400
v 0.00001562 -0.05183980 0.54445600
v 0.00001562 -0.03395880 0.54389000
v -0.03171110 -0.02152440 0.57332300
v -0.19262100 0.47020000 0.57332300
v -0.03684250 0.47307800 0.38810000
v 0.00001562 0.47020000 0.38527000
v -0.10480800 0.47307800 0.40510000
v -0.04249300 0.47163900 0.38244000
v -0.03400720 0.45889600 0.37393000
v -0.10197300 0.45889600 0.39093000
v -0.11329400 0.46454800 0.39660900
v -0.12463500 0.45324400 0.40227000
v -0.10197300 0.44188900 0.39093000
v -0.03957790 -0.05183980 0.51935700
v 0.00001562 -0.05183980 0.50948100
v 0.00001562 0.11900500 0.50989000
v -0.13595600 0.40787400 0.57332300
v -0.14162600 0.41923000 0.57332300
v 0.00001562 0.47020000 0.37961000
v 0.00001562 0.41470800 0.43172200
v -0.03400720 0.47020000 0.37961000
v 0.00001562 0.45889600 0.37393000
v -0.03400720 0.44188900 0.37393000
v -0.00567483 0.24925800 0.41927000
v -0.05099870 0.27191800 0.42493000
v -0.01701580 -0.05183980 0.51195900
v -0.00000436 -0.05183980 0.50946100
v 0.00001562 0.25496200 0.41642000
v 0.00001562 0.39091800 0.44193000
v 0.00001562 0.40381500 0.43666000
v 0.00001562 0.44183800 0.37394900
v -0.00000436 0.44188900 0.37393000
v -0.00000436 0.26626600 0.41359000
v -0.00128220 -0.05183980 0.50946100
v 0.00001562 0.26626600 0.41359000
f 28 49 46
f 28 46 33
f 28 58 49
f 28 33 47
f 30 43 44
f 28 57 56
f 28 56 43
f 28 43 29
f 29 43 30
f 31 45 33
f 28 47 57
f 58 62 59
f 24 37 40
f 28 42 55
f 25 27 26
f 24 27 25
f 24 41 27
f 24 40 41
f 24 39 37
f 21 23 22
f 21 39 23
f 21 38 39
f 20 38 21
f 20 37 38
f 32 33 46
f 20 36 37
f 28 55 62
f 32 46 35
f 42 54 55
f 35 46 48
f 20 35 36
f 55 60 62
f 54 61 55
f 53 55 61
f 51 53 52
f 51 55 53
f 50 55 51
f 50 60 55
f 50 62 60
f 50 59 62
f 49 58 59
f 44 47 45
f 44 57 47
f 44 56 57
f 43 56 44
f 41 52 53
f 40 52 41
f 40 51 52
f 40 50 51
f 37 39 38
f 36 46 49
f 36 48 46
f 36 40 37
f 36 50 40
f 36 59 50
f 36 49 59
f 35 48 36
f 33 45 47
f 20 32 35
f 28 62 58
f 18 33 32
f 6 15 7
f 5 15 6
f 5 14 15
f 5 23 14
f 5 13 23
f 4 12 13
f 4 11 12
f 4 10 11
f 4 17 10
f 4 9 17
f 2 9 3
f 2 17 9
f 2 31 17
f 2 45 31
f 2 44 45
f 2 30 44
f 2 8 16
f 2 7 8
f 2 6 7
f 1 6 2
f 1 5 6
f 1 13 5
f 1 4 13
f 1 9 4
f 1 3 9
f 1 2 3
f 20 34 32
f 7 15 27
f 7 27 41
f 2 16 30
f 7 53 61
f 18 31 33
f 7 41 53
f 18 34 19
f 18 32 34
f 17 31 18
f 16 29 30
f 16 28 29
f 14 26 27
f 14 25 26
f 14 24 25
f 14 39 24
f 14 23 39
f 13 22 23
f 14 27 15
f 12 21 22
f 7 54 42
f 12 22 13
f 7 42 28
f 7 28 16
f 10 17 11
f 11 17 18
f 7 16 8
f 11 18 19
f 11 19 12
f 12 19 34
f 12 34 20
f 12 20 21
f 7 61 54

