# https://github.com/mikedh/trimesh
v -0.25169800 -0.10198600 0.62888200
v -0.25169800 -0.08172980 0.61875500
v -0.28895300 -0.10198600 0.62888200
v -0.25169800 -0.14513500 0.60729900
v -0.29461400 -0.09065580 0.62320400
v -0.25169800 -0.07932570 0.61752600
v -0.28329100 -0.07932570 0.61752600
v -0.29744500 -0.11047900 0.62463200
v -0.29744500 -0.14447000 0.60763200
v -0.38241900 -0.11047900 0.59063100
v -0.28895300 -0.14729800 0.60620400
v -0.25169800 -0.14729800 0.60620400
v -0.37607500 -0.10198600 0.59063100
v -0.36118800 -0.07648900 0.58638100
v -0.37819800 -0.09348410 0.58638100
v -0.25169800 -0.07811950 0.61513600
v -0.28895300 -0.06798730 0.59488100
v -0.29461400 -0.07366060 0.60620400
v -0.34561900 -0.07366060 0.58920300
v -0.30596300 -0.11897300 0.61825700
v -0.30596300 -0.14872000 0.59700600
v -0.36543400 -0.12747400 0.59063100
v -0.35694200 -0.14163300 0.58352500
v -0.39515700 -0.07648900 0.56938100
v -0.41358200 -0.10198600 0.56655800
v -0.38241900 -0.12747400 0.58213100
v -0.28895300 -0.15296300 0.59488100
v -0.25169800 -0.15296300 0.59488100
v -0.37961300 -0.07366060 0.57220300
v -0.25169800 -0.06798730 0.59488100
v -0.33995700 -0.06798730 0.57788100
v -0.37395200 -0.14872000 0.56300600
v -0.39940300 -0.14447000 0.55663000
v -0.40792100 -0.14872000 0.54600500
v -0.39303400 -0.07223810 0.56088000
v -0.41216700 -0.07648900 0.55238000
v -0.44757700 -0.10198600 0.53255800
v -0.41358200 -0.13596800 0.54955800
v -0.35694200 -0.15296300 0.56088000
v -0.25169800 -0.15296300 0.56088000
v -0.37395200 -0.06798730 0.56088000
v -0.25169800 -0.06798730 0.56088000
v -0.44191500 -0.14872000 0.51200400
v -0.40792100 -0.15296300 0.52688000
v -0.39091100 -0.15296300 0.54388000
v -0.41004400 -0.07223810 0.54388000
v -0.44616100 -0.07648900 0.51837900
v -0.46456100 -0.10198600 0.51555700
v -0.44757700 -0.13596800 0.51555700
v -0.25169800 -0.14610000 0.54713400
v -0.44191500 -0.15296300 0.28967100
v -0.44141000 -0.15272200 0.28967100
v -0.43056700 -0.14729800 0.28967100
v -0.44191500 -0.06798730 0.49287900
v -0.44403800 -0.07223810 0.50987900
v -0.25169800 -0.07932570 0.53820200
v -0.41924400 -0.07932570 0.28967100
v -0.42417200 -0.07685500 0.28967100
v -0.44118200 -0.06835330 0.28967100
v -0.44191500 -0.06798730 0.28967100
v -0.45040800 -0.14447000 0.50562900
v -0.45323800 -0.14729800 0.49855700
v -0.44191500 -0.15296300 0.49287900
v -0.46314600 -0.07648900 0.50137900
v -0.47163800 -0.11897300 0.49500400
v -0.46739200 -0.12747400 0.49712900
v -0.47163800 -0.09348410 0.50137900
v -0.48864800 -0.09348410 0.46741200
v -0.49289400 -0.10198600 0.45894500
v -0.50563300 -0.11047900 0.43344400
v -0.25169800 -0.14163300 0.53820200
v -0.47591000 -0.15296300 0.28967100
v -0.41899100 -0.12415500 0.28967100
v -0.45890000 -0.06798730 0.47587900
v -0.46102300 -0.07223810 0.49287900
v -0.25169800 -0.08848460 0.53362000
v -0.40792100 -0.10198600 0.28967100
v -0.40827500 -0.10126200 0.28967100
v -0.41676700 -0.08426700 0.28967100
v -0.47591000 -0.06798730 0.28967100
v -0.46739200 -0.14447000 0.48012900
v -0.47022300 -0.14729800 0.46455600
v -0.45890000 -0.15296300 0.45894500
v -0.47163800 -0.07648900 0.48437900
v -0.48227900 -0.08499070 0.47587900
v -0.48864800 -0.11897300 0.46103600
v -0.48440200 -0.12747400 0.46316100
v -0.49926400 -0.08499070 0.42494400
v -0.50563300 -0.09348410 0.41644400
v -0.50990400 -0.10198600 0.40794300
v -0.50990400 -0.11897300 0.39094300
v -0.50421700 -0.13030300 0.39662100
v -0.50138700 -0.12747400 0.41219300
v -0.48440200 -0.14447000 0.42919400
v -0.25169800 -0.12548600 0.53013400
v -0.41333000 -0.11282500 0.28967100
v -0.49855600 -0.14163300 0.28967100
v -0.47591000 -0.15296300 0.40794300
v -0.47591000 -0.06798730 0.42494400
v -0.47022300 -0.07366060 0.47587900
v -0.25169800 -0.10198600 0.52688000
v -0.25169800 -0.11897300 0.52688000
v -0.49807600 -0.07908440 0.28967100
v -0.48723300 -0.14729800 0.41362100
v -0.48864800 -0.07648900 0.43344400
v -0.49855600 -0.07932570 0.40794300
v -0.50399000 -0.09017330 0.28967100
v -0.50990400 -0.10198600 0.28967100
v -0.50990400 -0.11897300 0.28967100
v -0.50176600 -0.13524400 0.28967100
v -0.49855600 -0.14163300 0.38526500
v -0.48723300 -0.07366060 0.42494400
v -0.49855600 -0.07932570 0.28967100
f 54 74 75
f 51 57 79
f 51 79 78
f 51 78 77
f 51 77 96
f 51 96 73
f 51 73 53
f 51 53 52
f 53 73 71
f 54 75 55
f 64 85 67
f 56 77 78
f 56 78 79
f 56 79 57
f 61 66 62
f 62 66 81
f 62 81 82
f 62 82 83
f 62 83 63
f 64 75 84
f 64 84 85
f 51 58 57
f 65 70 86
f 56 76 77
f 51 59 58
f 48 70 65
f 51 80 60
f 42 57 58
f 65 86 87
f 42 58 59
f 42 59 60
f 43 49 61
f 43 61 62
f 43 62 63
f 47 55 75
f 47 75 64
f 48 65 66
f 48 66 49
f 48 64 67
f 48 67 68
f 48 68 69
f 48 69 70
f 49 66 61
f 50 53 71
f 51 72 97
f 51 97 110
f 51 110 109
f 51 109 108
f 51 108 107
f 51 107 113
f 51 113 103
f 51 103 80
f 51 60 59
f 65 87 66
f 80 103 99
f 67 85 68
f 84 100 112
f 84 112 105
f 84 105 85
f 85 105 88
f 88 105 106
f 88 106 89
f 89 106 90
f 90 106 107
f 90 107 108
f 90 108 109
f 90 109 91
f 83 104 98
f 91 109 110
f 91 111 92
f 92 104 94
f 92 94 93
f 92 111 104
f 97 111 110
f 99 106 112
f 99 103 106
f 103 113 106
f 105 112 106
f 106 113 107
f 42 56 57
f 91 110 111
f 82 104 83
f 81 104 82
f 81 94 104
f 68 85 88
f 68 88 89
f 68 89 70
f 68 70 69
f 70 89 90
f 70 90 91
f 70 91 92
f 70 92 93
f 70 93 94
f 70 94 87
f 70 87 86
f 71 73 96
f 71 96 77
f 71 77 95
f 72 98 104
f 72 104 111
f 72 111 97
f 74 99 112
f 74 112 100
f 74 100 75
f 75 100 84
f 76 101 77
f 77 101 102
f 77 102 95
f 81 87 94
f 66 87 81
f 41 55 46
f 27 44 63
f 40 53 50
f 5 7 14
f 5 14 15
f 5 15 13
f 6 16 7
f 7 16 17
f 7 17 18
f 7 18 19
f 7 19 14
f 8 10 20
f 9 21 11
f 9 20 22
f 5 13 10
f 9 22 23
f 10 22 20
f 10 13 15
f 10 15 24
f 10 24 25
f 10 25 26
f 10 26 22
f 11 21 27
f 11 27 28
f 11 28 12
f 14 19 29
f 14 29 24
f 9 23 21
f 14 24 15
f 4 11 12
f 3 10 8
f 41 54 55
f 1 2 3
f 1 3 4
f 1 4 12
f 1 12 28
f 1 28 40
f 1 40 50
f 1 50 71
f 1 71 95
f 1 95 102
f 1 102 101
f 4 9 11
f 1 101 76
f 1 56 42
f 1 42 30
f 1 30 16
f 1 16 6
f 1 6 2
f 2 5 3
f 2 6 7
f 2 7 5
f 3 8 9
f 3 9 4
f 3 5 10
f 1 76 56
f 16 30 17
f 8 20 9
f 17 42 60
f 27 45 44
f 27 63 83
f 27 83 98
f 27 98 72
f 27 72 51
f 27 51 40
f 27 40 28
f 29 41 35
f 32 34 45
f 32 45 39
f 33 38 34
f 27 39 45
f 34 38 49
f 34 43 63
f 34 63 44
f 17 30 42
f 35 41 46
f 36 46 55
f 36 55 47
f 37 47 64
f 37 64 48
f 37 48 49
f 40 51 52
f 40 52 53
f 34 49 43
f 26 38 33
f 34 44 45
f 25 49 38
f 17 60 80
f 25 38 26
f 17 80 99
f 17 99 74
f 17 74 54
f 17 54 41
f 17 31 19
f 17 19 18
f 19 31 41
f 19 41 29
f 21 23 32
f 21 32 39
f 21 39 27
f 17 41 31
f 23 26 33
f 22 26 23
f 25 36 47
f 25 37 49
f 24 46 36
f 24 36 25
f 24 29 35
f 23 34 32
f 23 33 34
f 24 35 46
f 25 47 37

