# https://github.com/mikedh/trimesh
v 0.37393000 -0.45596600 0.00289252
v 0.37078200 -0.45596600 0.02143490
v 0.37393000 -0.45891400 -0.00004813
v 0.37393000 -0.45596600 -0.18702400
v 0.36280300 -0.45596600 0.05688600
v 0.36961100 -0.46104000 0.01694230
v 0.36822000 -0.47024300 -0.00004813
v 0.37393000 -0.45891400 -0.18702400
v 0.37041600 -0.45596600 -0.20278900
v 0.36961100 -0.46741000 -0.77327500
v 0.36822000 -0.46458000 -0.77049800
v 0.35687300 -0.45891400 -0.76478000
v -0.35687300 -0.45596600 0.05688600
v 0.35687300 -0.45891400 0.05092310
v 0.35687300 -0.47591100 -0.00004813
v 0.36536500 -0.47166100 0.00844708
v 0.36822000 -0.47024300 -0.76478000
v 0.36924500 -0.45596600 -0.20573000
v 0.36258300 -0.47024300 -0.77613400
v 0.36536500 -0.46741000 -0.77760400
v 0.35687300 -0.46458000 -0.77613400
v -0.35687300 -0.45891400 -0.76478000
v 0.35687300 -0.45596600 -0.21512400
v -0.36280300 -0.45596600 0.05386370
v -0.35687300 -0.45891400 0.05092310
v -0.35687300 -0.47591100 -0.00004813
v 0.35687300 -0.47591100 -0.76478000
v -0.35123600 -0.47024300 -0.77613400
v -0.35687300 -0.46458000 -0.77613400
v -0.36536500 -0.46316400 -0.77327500
v -0.37393000 -0.45596600 -0.18702400
v -0.36990400 -0.45596600 -0.20303400
v -0.36968400 -0.45596600 -0.20385100
v -0.36902500 -0.45596600 -0.20450500
v -0.35687300 -0.45596600 -0.21512400
v -0.36887900 -0.45596600 0.02976670
v -0.36822000 -0.47024300 0.00558809
v -0.35687300 -0.47591100 -0.76478000
v -0.36536500 -0.46741000 -0.77327500
v -0.36822000 -0.46458000 -0.76478000
v -0.37393000 -0.45891400 -0.18702400
v -0.37393000 -0.45596600 0.00289252
v -0.37041600 -0.45596600 0.02168000
v -0.37393000 -0.45891400 -0.00004813
v -0.36822000 -0.47024300 -0.75914300
f 19 38 28
f 20 28 29
f 22 31 32
f 22 30 31
f 22 32 33
f 20 29 21
f 19 27 38
f 15 26 38
f 17 27 19
f 15 38 27
f 14 26 15
f 14 25 26
f 13 24 25
f 12 23 18
f 12 22 35
f 22 33 34
f 12 35 23
f 19 28 20
f 22 34 35
f 31 41 44
f 24 37 26
f 12 29 22
f 42 44 43
f 40 45 41
f 39 45 40
f 38 45 39
f 37 41 45
f 37 44 41
f 36 44 37
f 36 43 44
f 31 40 41
f 31 44 42
f 30 40 31
f 30 39 40
f 29 39 30
f 28 39 29
f 28 38 39
f 26 45 38
f 26 37 45
f 24 26 25
f 24 36 37
f 12 21 29
f 22 29 30
f 11 20 12
f 1 5 2
f 1 13 5
f 1 24 13
f 1 36 24
f 1 43 36
f 1 42 43
f 1 31 42
f 1 32 31
f 2 5 6
f 1 33 32
f 1 35 34
f 1 23 35
f 1 18 23
f 1 9 18
f 1 8 4
f 1 3 8
f 1 2 3
f 12 20 21
f 1 34 33
f 2 6 3
f 1 4 9
f 3 7 17
f 10 20 11
f 3 6 7
f 10 19 20
f 9 12 18
f 8 17 10
f 7 27 17
f 7 15 27
f 7 16 15
f 6 16 7
f 10 17 19
f 5 15 16
f 5 14 15
f 5 25 14
f 5 13 25
f 4 12 9
f 3 17 8
f 4 11 12
f 4 10 11
f 5 16 6
f 4 8 10

