# https://github.com/mikedh/trimesh
v -0.40793300 -0.10198600 0.28967100
v -0.40829300 -0.10126200 0.28967100
v -0.41901400 -0.12415500 0.28967100
v -0.41162700 -0.10938100 0.02290250
v -0.40793300 -0.10198600 0.02290250
v -0.41359300 -0.09065580 0.28967100
v -0.41087800 -0.09607960 0.02290250
v -0.42492400 -0.13596800 0.28967100
v -0.42492400 -0.13596800 0.02290250
v -0.41728700 -0.12070300 0.02290250
v -0.41678800 -0.08426700 0.28967100
v -0.41902400 -0.07979980 0.02290250
v -0.43059400 -0.14729800 0.28967100
v -0.43059400 -0.14729800 0.02290250
v -0.41926400 -0.07932570 0.28967100
v -0.41926400 -0.07932570 0.02290250
v -0.44143500 -0.15272200 0.28967100
v -0.43798100 -0.15100000 0.02290250
v -0.44192400 -0.06798730 0.28967100
v -0.41974300 -0.07908440 0.02290250
v -0.43601400 -0.07094040 0.02290250
v -0.44192400 -0.15296300 0.28967100
v -0.44192400 -0.15296300 0.02290250
v -0.47590400 -0.06798730 0.28967100
v -0.44192400 -0.06798730 0.02290250
v -0.47590400 -0.15296300 0.28967100
v -0.47590400 -0.15296300 0.02290250
v -0.49808500 -0.07908440 0.28967100
v -0.47590400 -0.06798730 0.02290250
v -0.49463100 -0.07735410 0.02290250
v -0.49856400 -0.14163300 0.28967100
v -0.48771300 -0.14706500 0.02290250
v -0.49856400 -0.07932570 0.28967100
v -0.49856400 -0.07932570 0.02290250
v -0.50176900 -0.13524400 0.28967100
v -0.49856400 -0.14163300 0.02290250
v -0.50399500 -0.09017330 0.28967100
v -0.50226800 -0.08671270 0.02290250
v -0.50990400 -0.11897300 0.28967100
v -0.50990400 -0.11897300 0.02290250
v -0.50399500 -0.13078500 0.02290250
v -0.50990400 -0.10198600 0.28967100
v -0.50990400 -0.10198600 0.02290250
f 17 22 23
f 12 16 15
f 15 21 19
f 15 20 21
f 15 16 20
f 13 18 14
f 13 17 18
f 11 12 15
f 4 21 20
f 8 13 14
f 7 12 11
f 6 7 11
f 4 7 5
f 4 12 7
f 4 16 12
f 4 20 16
f 17 23 18
f 8 14 9
f 19 21 25
f 37 38 42
f 19 29 24
f 4 25 21
f 38 43 42
f 35 41 36
f 35 40 41
f 35 39 40
f 33 38 37
f 33 34 38
f 31 36 32
f 31 35 36
f 28 34 33
f 28 30 34
f 26 32 27
f 26 31 32
f 24 30 28
f 24 29 30
f 22 27 23
f 22 26 27
f 19 25 29
f 4 29 25
f 1 6 11
f 4 34 30
f 1 13 8
f 1 17 13
f 1 22 17
f 1 26 22
f 1 31 26
f 1 35 31
f 1 39 35
f 1 42 39
f 1 37 42
f 1 33 37
f 1 28 33
f 1 24 28
f 1 19 24
f 1 15 19
f 1 11 15
f 1 2 6
f 39 42 43
f 1 8 3
f 4 30 29
f 1 3 4
f 1 5 2
f 4 38 34
f 4 43 38
f 4 40 43
f 4 41 40
f 4 36 41
f 4 32 36
f 4 27 32
f 4 23 27
f 4 18 23
f 4 14 18
f 4 9 14
f 4 10 9
f 3 10 4
f 3 9 10
f 3 8 9
f 2 7 6
f 2 5 7
f 1 4 5
f 39 43 40

