# https://github.com/mikedh/trimesh
v 0.01701110 0.45889600 0.78183300
v 0.08498950 0.45889600 0.76485000
v 0.01134290 0.47020000 0.77617900
v -0.00138048 0.46167100 0.78046500
v -0.00138048 0.45889600 0.78183300
v 0.01701110 0.44188900 0.78183300
v 0.10764200 0.46454800 0.75352100
v 0.07932130 0.47020000 0.75917500
v 0.08498950 0.44188900 0.76485000
v 0.09916000 0.47307800 0.74500900
v 0.03116150 0.47307800 0.76201300
v -0.00138048 0.47020000 0.77617900
v -0.00138048 0.44188900 0.78183300
v 0.00000643 0.32288900 0.74784700
v 0.01616690 -0.05183980 0.63782500
v 0.03399560 0.27191800 0.73084300
v 0.15863600 0.46454800 0.70253200
v 0.16711800 0.47307800 0.67705800
v 0.11614500 0.47307800 0.72802700
v 0.10764200 0.44754100 0.75352100
v 0.09632590 0.43623700 0.75917500
v 0.02396570 -0.05183980 0.63586600
v 0.18412300 0.47307800 0.62606800
v 0.19262500 0.47020000 0.57332300
v -0.00138048 0.47035500 0.76987100
v -0.00138048 0.32155300 0.74715300
v -0.00138048 -0.05183980 0.63782500
v 0.17562100 0.46454800 0.68552900
v 0.15863600 0.44754100 0.70253200
v 0.18128900 0.47020000 0.65721700
v 0.17845500 0.46737500 0.67138300
v 0.09349180 0.25917500 0.70534900
v 0.12746100 0.25917500 0.67138300
v 0.03485990 -0.05183980 0.62974200
v 0.19829400 0.47020000 0.60622700
v 0.19829400 0.47020000 0.57332300
v 0.14163100 0.41923000 0.57332300
v -0.00138048 0.43058500 0.72518900
v -0.00138048 -0.05183980 0.61341200
v 0.17562100 0.44754100 0.68552900
v 0.18128900 0.45324400 0.67422000
v 0.18695700 0.45889600 0.66289100
v 0.05950260 0.01279870 0.63739700
v 0.06800490 0.01701200 0.62888500
v 0.07648710 0.02127670 0.62039300
v 0.14446600 0.25917500 0.63739700
v 0.18128900 0.43623700 0.67422000
v 0.05184450 -0.05183980 0.61273900
v 0.20396200 0.45889600 0.61190200
v 0.19937900 0.46804200 0.57332300
v 0.14010400 0.41619800 0.57332300
v 0.13596300 0.40787400 0.57332300
v -0.00138048 0.42966000 0.72472000
v -0.00083778 -0.05183980 0.61147300
v -0.00138048 -0.05178840 0.61120800
v 0.18695700 0.44188900 0.66289100
v 0.05797500 -0.05183980 0.60185900
v 0.07932130 0.02266400 0.61190200
v 0.14730000 0.26061400 0.62888500
v 0.20396200 0.44188900 0.61190200
v 0.20396200 0.45889600 0.57332300
v 0.13425500 0.40335300 0.57332300
v -0.00138048 0.40653800 0.71333000
v -0.00138048 0.40787400 0.71386100
v -0.00138048 0.41923000 0.71951500
v 0.03172430 -0.05183980 0.57332300
v -0.00138048 -0.01905810 0.61120800
v 0.05992470 -0.05183980 0.59404100
v 0.16995200 0.30593200 0.57789500
v 0.20396200 0.44188900 0.57332300
v 0.03228710 -0.01695140 0.57332300
v -0.00138048 0.13601300 0.64588800
v 0.05992470 -0.05183980 0.57332300
v 0.03172430 -0.02383660 0.57332300
v -0.00138048 -0.01695140 0.61137100
v 0.16768100 0.30136000 0.57332300
f 30 42 49
f 30 49 35
f 32 34 43
f 32 43 33
f 33 43 44
f 33 44 45
f 34 48 43
f 33 46 47
f 33 47 40
f 35 49 50
f 35 50 36
f 37 51 38
f 30 31 42
f 38 51 52
f 33 45 46
f 29 33 40
f 24 74 71
f 28 41 42
f 38 52 53
f 24 36 50
f 24 50 61
f 24 61 70
f 24 70 76
f 24 76 73
f 24 73 66
f 24 66 74
f 24 71 62
f 24 62 52
f 24 52 51
f 24 51 37
f 24 37 38
f 24 38 25
f 28 47 41
f 28 42 31
f 39 55 54
f 54 55 66
f 41 56 42
f 55 67 74
f 55 74 66
f 57 68 58
f 58 68 69
f 58 69 59
f 59 69 60
f 60 69 70
f 62 71 72
f 62 72 63
f 67 75 74
f 68 73 69
f 69 76 70
f 69 73 76
f 71 74 75
f 71 75 72
f 23 36 24
f 41 47 56
f 52 65 53
f 52 63 64
f 42 56 60
f 42 60 49
f 43 48 44
f 44 48 45
f 45 48 57
f 45 57 58
f 45 58 46
f 46 58 59
f 46 59 60
f 46 60 56
f 46 56 47
f 49 61 50
f 49 60 70
f 49 70 61
f 52 62 63
f 52 64 65
f 23 35 36
f 28 40 47
f 21 22 32
f 4 65 64
f 4 64 63
f 4 63 72
f 4 72 75
f 4 75 67
f 4 67 55
f 4 55 39
f 4 39 27
f 4 27 26
f 4 26 13
f 4 13 5
f 6 13 14
f 6 14 15
f 6 15 16
f 6 16 9
f 4 53 65
f 7 17 18
f 4 25 38
f 3 12 4
f 22 34 32
f 1 2 3
f 1 3 4
f 1 4 5
f 1 5 13
f 1 13 6
f 1 6 9
f 1 9 2
f 2 7 8
f 2 8 3
f 2 9 20
f 2 20 7
f 3 8 10
f 3 10 11
f 3 11 12
f 4 12 25
f 7 18 19
f 4 38 53
f 7 10 8
f 15 68 57
f 15 57 48
f 15 48 34
f 15 34 22
f 15 22 16
f 17 28 18
f 17 29 40
f 17 40 28
f 18 30 35
f 18 35 23
f 18 28 31
f 18 31 30
f 20 21 32
f 20 32 33
f 7 19 10
f 15 73 68
f 15 66 73
f 20 33 29
f 7 20 29
f 7 29 17
f 9 21 20
f 9 16 22
f 9 22 21
f 15 54 66
f 10 18 23
f 10 23 11
f 10 19 18
f 11 24 25
f 11 25 12
f 13 26 14
f 14 26 27
f 14 27 15
f 15 27 39
f 15 39 54
f 11 23 24

