o convex_0
v 0.376214 -0.0679748 -0.142303
v 0.376214 -0.0434241 -0.117765
v 0.376214 -0.0264074 -0.0837828
v 0.373863 0.203945 -0.254909
v 0.373863 0.0679853 -0.390908
v 0.373863 -0.0169681 -0.42489
v 0.376214 -0.128897 -0.148241
v 0.376214 -0.151759 -0.00945172
v 0.376214 -0.0387044 -0.038712
v 0.376214 -0.133573 -0.00473002
v 0.37393 -0.203983 0.271924
v 0.37393 -0.187395 0.271924
v 0.376214 -0.0726945 -0.00473002
v 0.373863 -0.0169681 0.271919
v 0.373863 0.033952 0.254892
v 0.373863 0.101975 0.22091
v 0.373863 0.186929 0.13592
v 0.373863 0.237935 0.0339737
v 0.373863 0.237935 -0.169918
v 0.373863 0.220919 -0.220927
v 0.368204 0.232263 -0.226579
v 0.368204 0.24928 -0.17557
v 0.368204 0.24928 0.0283219
v 0.356887 0.254909 -0.169918
v 0.356887 0.237935 -0.220927
v 0.368204 0.21529 -0.260561
v 0.356887 0.209618 -0.277587
v 0.365412 0.212432 -0.267643
v 0.369674 0.203945 -0.27401
v 0.369674 0.0849587 -0.392983
v 0.356887 0.0906309 -0.39656
v 0.365412 0.076472 -0.403643
v 0.369674 5.2396e-06 -0.427037
v 0.365412 -0.00848145 -0.437625
v 0.368204 -0.0169681 -0.436194
v 0.368204 -0.186962 -0.436194
v 0.37371 -0.187395 -0.425324
v 0.373863 -0.186962 -0.42489
v 0.37393 -0.237975 -0.407873
v 0.369611 -0.195465 -0.433406
v 0.356887 -0.186962 -0.441917
v 0.356887 -0.0169681 -0.441917
v 0.356887 0.0679853 -0.407864
v -0.35689 -0.0169681 -0.441917
v -0.35689 -0.186962 -0.441917
v 0.356873 -0.237975 -0.424895
v 0.362583 -0.249306 -0.419245
v 0.362583 -0.198305 -0.436195
v 0.369611 -0.246467 -0.416384
v 0.369611 -0.314451 -0.382412
v 0.362583 -0.31729 -0.385201
v 0.356873 -0.305959 -0.390923
v 0.351236 -0.328594 -0.379551
v 0.351236 -0.413588 -0.294586
v 0.362583 -0.385248 -0.317257
v 0.369611 -0.416401 -0.280425
v 0.362583 -0.41924 -0.283214
v 0.356873 -0.455966 -0.215055
v 0.369245 -0.455966 -0.205686
v 0.370416 -0.455966 -0.202754
v -0.356873 -0.455966 -0.215055
v -0.362583 -0.413588 -0.294586
v -0.362583 -0.328594 -0.379551
v -0.356873 -0.237975 -0.424895
v -0.36822 -0.232297 -0.419245
v -0.367032 -0.187351 -0.434978
v -0.368207 -0.181289 -0.436194
v -0.368207 -0.0112959 -0.436194
v -0.373866 -0.186962 -0.42489
v -0.37393 -0.237975 -0.407873
v -0.37393 -0.187395 -0.407873
v -0.37438 -0.0682346 -0.150817
v -0.37438 -0.15033 -0.150316
v -0.37393 -0.305959 -0.373901
v -0.37393 -0.407909 -0.271914
v -0.371075 -0.40507 -0.286075
v -0.371075 -0.320129 -0.371041
v -0.362583 -0.260637 -0.413523
v -0.369684 -0.455966 -0.203827
v -0.37393 -0.455966 -0.186948
v -0.362803 -0.455966 0.0539311
v -0.37393 -0.455966 0.00293741
v -0.37438 -0.185879 -0.100881
v -0.37438 -0.0183537 -0.0680438
v -0.37438 -0.052387 -0.00143913
v -0.373866 0.186929 0.13592
v -0.373866 0.237935 0.0339737
v -0.369677 0.195459 0.144433
v -0.373866 0.169955 0.152946
v -0.373866 0.101975 0.22091
v -0.369677 0.110462 0.229424
v -0.373866 0.0679853 0.237937
v -0.373866 0.033952 0.254892
v -0.369677 0.042482 0.263406
v -0.373866 -0.0169681 0.271919
v -0.37393 -0.187395 0.271924
v -0.369677 -0.00848145 0.280432
v -0.362549 0.0452964 0.266267
v -0.362549 -0.00562368 0.283222
v -0.35689 -0.0169681 0.288946
v -0.368207 -0.0169681 0.283222
v -0.36822 -0.187395 0.283224
v -0.36822 -0.203983 0.283224
v -0.356873 -0.203983 0.288946
v -0.365365 -0.212475 0.284655
v -0.369611 -0.220966 0.27407
v -0.37393 -0.203983 0.271924
v -0.37438 -0.152928 -0.00236916
v -0.37393 -0.271967 0.237952
v -0.369611 -0.322916 0.223076
v -0.365365 -0.314451 0.233661
v 0.356873 -0.203983 0.288946
v 0.356887 -0.187351 0.288946
v 0.356887 -0.0169681 0.288946
v 0.356887 0.033952 0.271919
v 0.362546 0.0566409 0.260616
v -0.362549 0.113276 0.232285
v 0.362546 0.124621 0.226562
v 0.365412 0.110462 0.229424
v 0.37107 0.116134 0.21812
v 0.368204 0.0283664 0.266267
v 0.368204 -0.0226404 0.283222
v 0.36822 -0.209635 0.283224
v 0.36822 -0.243627 0.266274
v 0.37393 -0.305959 0.22093
v 0.37393 -0.390926 0.135965
v 0.37393 -0.407909 0.118943
v 0.376214 -0.182242 -0.0680438
v 0.37393 -0.424918 0.0849708
v 0.369611 -0.410039 0.135965
v 0.369611 -0.325045 0.22093
v 0.356873 -0.413588 0.141615
v 0.365365 -0.42066 0.127454
v 0.369611 -0.444031 0.0679491
v 0.37393 -0.441901 0.0509273
v 0.37393 -0.455966 0.00293741
v 0.36822 -0.453232 0.0509273
v 0.365365 -0.454652 0.0594382
v 0.370782 -0.455966 0.0214611
v 0.362803 -0.455966 0.0568635
v -0.356873 -0.413588 0.141615
v 0.356873 -0.328594 0.22658
v 0.365365 -0.31871 0.229441
v 0.36822 -0.311612 0.23223
v -0.356873 -0.328594 0.22658
v -0.369611 -0.407909 0.138039
v -0.37393 -0.407909 0.118943
v -0.37393 -0.305959 0.22093
v -0.37393 -0.441901 0.0509273
v -0.36822 -0.453232 0.0566489
v -0.36822 -0.41924 0.124593
v -0.368879 -0.455966 0.0297574
v -0.365365 -0.416401 0.131673
v -0.356873 -0.455966 0.0568635
v 0.37393 -0.455966 -0.186948
v 0.376214 -0.18064 -0.112685
v 0.376214 -0.14665 -0.146667
v 0.37393 -0.305959 -0.373901
v 0.37393 -0.407909 -0.271914
v 0.37107 0.184114 0.150085
v 0.362546 0.192601 0.158598
v 0.365412 0.229449 0.076469
v 0.362546 0.243608 0.0566522
v 0.356887 0.254909 0.0339737
v -0.362549 0.24928 0.0452771
v -0.362549 0.198273 0.147295
v -0.369677 0.246422 0.042487
v -0.368207 0.24928 0.0339737
v -0.368207 0.24928 -0.169918
v -0.35689 0.254909 0.0339737
v -0.35689 0.254909 -0.169918
v -0.35689 0.237935 -0.220927
v -0.365415 0.250666 -0.178432
v -0.365415 0.233692 -0.22944
v -0.35689 0.209618 -0.277587
v -0.365415 0.216675 -0.263422
v -0.369677 0.206067 -0.271936
v -0.369677 0.22304 -0.237954
v -0.368207 0.232263 -0.220927
v -0.373866 0.220919 -0.220927
v -0.373866 0.203945 -0.254909
v -0.373866 0.237935 -0.169918
v -0.373866 0.0679853 -0.390908
v -0.373866 -0.0169681 -0.42489
v -0.368207 0.0736142 -0.402212
v -0.35689 0.0679853 -0.407864
v -0.35689 0.0906309 -0.39656
v -0.365415 0.0807153 -0.399422
v -0.369677 0.0870804 -0.390908
v -0.369677 0.178442 0.16146
v -0.369677 0.076472 0.24645
v -0.351232 0.192601 0.158598
v -0.351232 0.124621 0.226562
v -0.35689 0.033952 0.271919
f 2 3 1
f 2 4 3
f 2 5 4
f 2 1 5
f 1 6 5
f 1 7 6
f 1 8 7
f 9 8 1
f 10 8 9
f 10 11 8
f 10 12 11
f 13 12 10
f 13 14 12
f 13 15 14
f 13 16 15
f 13 9 16
f 13 10 9
f 9 17 16
f 9 18 17
f 3 18 9
f 3 19 18
f 3 20 19
f 3 4 20
f 20 4 21
f 20 21 19
f 22 19 21
f 22 23 19
f 22 24 23
f 22 25 24
f 22 21 25
f 26 25 21
f 26 27 25
f 28 27 26
f 28 29 27
f 28 26 29
f 29 26 4
f 29 4 5
f 29 5 30
f 29 30 27
f 30 31 27
f 30 32 31
f 33 32 30
f 33 34 32
f 35 34 33
f 35 36 34
f 35 37 36
f 35 6 37
f 35 33 6
f 33 5 6
f 33 30 5
f 37 6 38
f 37 38 39
f 37 39 40
f 37 40 36
f 36 40 41
f 36 41 34
f 34 41 42
f 34 42 32
f 42 43 32
f 42 44 43
f 42 45 44
f 41 45 42
f 41 46 45
f 41 47 46
f 48 47 41
f 48 40 47
f 48 41 40
f 47 40 49
f 47 49 50
f 51 47 50
f 51 52 47
f 51 53 52
f 51 54 53
f 51 55 54
f 51 50 55
f 55 50 56
f 57 55 56
f 57 54 55
f 57 58 54
f 57 59 58
f 57 56 59
f 59 56 60
f 59 60 58
f 58 60 61
f 58 61 54
f 54 61 62
f 54 62 63
f 53 54 63
f 53 63 52
f 52 63 64
f 47 52 64
f 47 64 46
f 64 45 46
f 65 45 64
f 66 45 65
f 67 45 66
f 67 68 45
f 67 69 68
f 70 69 67
f 70 71 69
f 70 72 71
f 70 73 72
f 74 73 70
f 74 75 73
f 74 76 75
f 74 77 76
f 74 63 77
f 74 78 63
f 74 70 78
f 70 65 78
f 70 67 65
f 67 66 65
f 78 65 64
f 78 64 63
f 77 63 62
f 76 77 62
f 76 62 79
f 76 79 75
f 79 80 75
f 79 61 80
f 79 62 61
f 80 61 81
f 82 80 81
f 83 80 82
f 83 75 80
f 83 73 75
f 83 84 73
f 85 84 83
f 86 84 85
f 86 87 84
f 86 88 87
f 86 89 88
f 86 85 89
f 90 89 85
f 90 91 89
f 90 92 91
f 90 85 92
f 93 92 85
f 93 94 92
f 93 95 94
f 93 85 95
f 95 85 96
f 95 96 97
f 95 97 94
f 97 98 94
f 97 99 98
f 97 100 99
f 97 101 100
f 102 101 97
f 102 100 101
f 103 100 102
f 103 104 100
f 103 105 104
f 103 106 105
f 103 107 106
f 103 97 107
f 103 102 97
f 107 97 96
f 107 96 85
f 107 85 108
f 107 108 109
f 107 109 106
f 106 109 110
f 106 110 111
f 106 111 105
f 105 111 104
f 104 111 112
f 104 112 100
f 113 100 112
f 114 100 113
f 114 115 100
f 116 115 114
f 116 98 115
f 116 117 98
f 116 118 117
f 116 119 118
f 116 120 119
f 116 121 120
f 116 114 121
f 122 121 114
f 122 14 121
f 122 12 14
f 122 123 12
f 122 114 123
f 114 113 123
f 123 113 112
f 123 112 124
f 123 124 11
f 123 11 12
f 11 124 125
f 8 11 125
f 8 125 126
f 127 8 126
f 127 128 8
f 127 129 128
f 127 130 129
f 127 126 130
f 126 125 130
f 130 125 131
f 130 131 132
f 133 130 132
f 134 130 133
f 129 130 134
f 135 129 134
f 135 128 129
f 135 136 128
f 135 137 136
f 135 134 137
f 137 134 138
f 137 138 139
f 137 139 136
f 139 140 136
f 138 140 139
f 138 133 140
f 138 134 133
f 133 132 140
f 132 141 140
f 132 142 141
f 131 142 132
f 143 142 131
f 143 112 142
f 143 124 112
f 143 144 124
f 143 131 144
f 144 131 125
f 144 125 124
f 112 111 142
f 145 142 111
f 145 141 142
f 110 141 145
f 110 146 141
f 110 147 146
f 110 148 147
f 110 109 148
f 108 148 109
f 108 147 148
f 108 149 147
f 108 83 149
f 108 85 83
f 83 82 149
f 149 82 150
f 149 150 147
f 150 151 147
f 150 81 151
f 152 81 150
f 152 82 81
f 152 150 82
f 151 81 141
f 153 151 141
f 153 146 151
f 153 141 146
f 146 147 151
f 154 141 81
f 154 140 141
f 154 81 140
f 140 81 60
f 136 140 60
f 155 136 60
f 128 136 155
f 128 155 156
f 128 156 8
f 8 156 7
f 157 7 156
f 157 38 7
f 157 39 38
f 157 158 39
f 157 156 158
f 158 156 159
f 158 159 50
f 158 50 39
f 39 50 49
f 39 49 40
f 56 50 159
f 56 159 155
f 56 155 60
f 155 159 156
f 38 6 7
f 61 60 81
f 110 145 111
f 15 121 14
f 15 120 121
f 15 16 120
f 120 16 17
f 160 120 17
f 160 161 120
f 160 162 161
f 160 18 162
f 160 17 18
f 23 162 18
f 23 163 162
f 164 163 23
f 165 163 164
f 165 166 163
f 165 88 166
f 165 167 88
f 168 167 165
f 168 169 167
f 168 170 169
f 168 165 170
f 165 164 170
f 164 24 170
f 164 23 24
f 24 171 170
f 24 25 171
f 172 171 25
f 172 173 171
f 172 174 173
f 172 25 174
f 174 25 27
f 174 27 175
f 174 175 176
f 174 176 177
f 178 174 177
f 179 174 178
f 179 169 174
f 179 180 169
f 179 178 180
f 178 177 180
f 180 177 181
f 180 181 84
f 180 84 182
f 180 182 169
f 167 169 182
f 167 182 87
f 167 87 88
f 84 87 182
f 72 84 181
f 72 73 84
f 72 181 183
f 72 183 184
f 72 184 71
f 69 71 184
f 69 184 68
f 183 68 184
f 185 68 183
f 185 44 68
f 186 44 185
f 186 43 44
f 186 32 43
f 186 187 32
f 186 188 187
f 186 185 188
f 185 189 188
f 185 183 189
f 183 177 189
f 183 181 177
f 177 175 189
f 176 175 177
f 189 175 187
f 188 189 187
f 175 27 187
f 31 187 27
f 31 32 187
f 68 44 45
f 173 174 169
f 173 169 171
f 169 170 171
f 190 166 88
f 190 117 166
f 91 117 190
f 91 191 117
f 91 92 191
f 94 191 92
f 94 98 191
f 98 117 191
f 89 91 190
f 89 190 88
f 166 117 192
f 166 192 161
f 166 161 163
f 163 161 162
f 192 118 161
f 193 118 192
f 193 117 118
f 193 192 117
f 120 161 118
f 119 120 118
f 23 18 19
f 98 194 115
f 98 100 194
f 98 99 100
f 115 194 100
f 26 21 4
f 3 9 1
o convex_1
v 0.37393 -0.455966 0.00289252
v 0.370782 -0.455966 0.0214349
v 0.37393 -0.458914 -4.8126e-05
v 0.37393 -0.455966 -0.187024
v 0.362803 -0.455966 0.056886
v 0.369611 -0.46104 0.0169423
v 0.36822 -0.470243 -4.8126e-05
v 0.37393 -0.458914 -0.187024
v 0.370416 -0.455966 -0.202789
v 0.369611 -0.46741 -0.773275
v 0.36822 -0.46458 -0.770498
v 0.356873 -0.458914 -0.76478
v -0.356873 -0.455966 0.056886
v 0.356873 -0.458914 0.0509231
v 0.356873 -0.475911 -4.8126e-05
v 0.365365 -0.471661 0.00844708
v 0.36822 -0.470243 -0.76478
v 0.369245 -0.455966 -0.20573
v 0.362583 -0.470243 -0.776134
v 0.365365 -0.46741 -0.777604
v 0.356873 -0.46458 -0.776134
v -0.356873 -0.458914 -0.76478
v 0.356873 -0.455966 -0.215124
v -0.362803 -0.455966 0.0538637
v -0.356873 -0.458914 0.0509231
v -0.356873 -0.475911 -4.8126e-05
v 0.356873 -0.475911 -0.76478
v -0.351236 -0.470243 -0.776134
v -0.356873 -0.46458 -0.776134
v -0.365365 -0.463164 -0.773275
v -0.37393 -0.455966 -0.187024
v -0.369904 -0.455966 -0.203034
v -0.369684 -0.455966 -0.203851
v -0.369025 -0.455966 -0.204505
v -0.356873 -0.455966 -0.215124
v -0.368879 -0.455966 0.0297667
v -0.36822 -0.470243 0.00558809
v -0.356873 -0.475911 -0.76478
v -0.365365 -0.46741 -0.773275
v -0.36822 -0.46458 -0.76478
v -0.37393 -0.458914 -0.187024
v -0.37393 -0.455966 0.00289252
v -0.370416 -0.455966 0.02168
v -0.37393 -0.458914 -4.8126e-05
v -0.36822 -0.470243 -0.759143
f 195 196 197
f 195 197 202
f 195 202 198
f 195 198 203
f 195 203 212
f 195 212 217
f 195 217 229
f 195 229 228
f 195 228 227
f 195 227 226
f 195 226 225
f 195 225 236
f 195 236 237
f 195 237 230
f 195 230 218
f 195 218 207
f 195 207 199
f 195 199 196
f 196 199 200
f 196 200 197
f 197 200 201
f 197 201 211
f 197 211 202
f 198 202 204
f 198 204 205
f 198 205 206
f 198 206 203
f 199 207 219
f 199 219 208
f 199 208 209
f 199 209 210
f 199 210 200
f 200 210 201
f 201 210 209
f 201 209 221
f 201 221 211
f 202 211 204
f 203 206 212
f 204 211 213
f 204 213 214
f 204 214 205
f 205 214 206
f 206 214 215
f 206 215 223
f 206 223 216
f 206 216 229
f 206 229 217
f 206 217 212
f 207 218 219
f 208 219 220
f 208 220 209
f 209 220 232
f 209 232 221
f 211 221 213
f 213 222 214
f 213 221 232
f 213 232 222
f 214 222 223
f 214 223 215
f 216 223 224
f 216 224 225
f 216 225 226
f 216 226 227
f 216 227 228
f 216 228 229
f 218 230 231
f 218 231 220
f 218 220 219
f 220 231 239
f 220 239 232
f 222 232 233
f 222 233 223
f 223 233 224
f 224 233 234
f 224 234 225
f 225 235 238
f 225 238 236
f 225 234 235
f 230 237 238
f 230 238 231
f 231 238 235
f 231 235 239
f 232 239 233
f 233 239 234
f 234 239 235
f 236 238 237
o convex_2
v 0.0170111 0.458896 0.781833
v 0.0849895 0.458896 0.76485
v 0.0113429 0.4702 0.776179
v -0.00138048 0.461671 0.780465
v -0.00138048 0.458896 0.781833
v 0.0170111 0.441889 0.781833
v 0.107642 0.464548 0.753521
v 0.0793213 0.4702 0.759175
v 0.0849895 0.441889 0.76485
v 0.09916 0.473078 0.745009
v 0.0311615 0.473078 0.762013
v -0.00138048 0.4702 0.776179
v -0.00138048 0.441889 0.781833
v 6.42523e-06 0.322889 0.747847
v 0.0161669 -0.0518398 0.637825
v 0.0339956 0.271918 0.730843
v 0.158636 0.464548 0.702532
v 0.167118 0.473078 0.677058
v 0.116145 0.473078 0.728027
v 0.107642 0.447541 0.753521
v 0.0963259 0.436237 0.759175
v 0.0239657 -0.0518398 0.635866
v 0.184123 0.473078 0.626068
v 0.192625 0.4702 0.573323
v -0.00138048 0.470355 0.769871
v -0.00138048 0.321553 0.747153
v -0.00138048 -0.0518398 0.637825
v 0.175621 0.464548 0.685529
v 0.158636 0.447541 0.702532
v 0.181289 0.4702 0.657217
v 0.178455 0.467375 0.671383
v 0.0934918 0.259175 0.705349
v 0.127461 0.259175 0.671383
v 0.0348599 -0.0518398 0.629742
v 0.198294 0.4702 0.606227
v 0.198294 0.4702 0.573323
v 0.141631 0.41923 0.573323
v -0.00138048 0.430585 0.725189
v -0.00138048 -0.0518398 0.613412
v 0.175621 0.447541 0.685529
v 0.181289 0.453244 0.67422
v 0.186957 0.458896 0.662891
v 0.0595026 0.0127987 0.637397
v 0.0680049 0.017012 0.628885
v 0.0764871 0.0212767 0.620393
v 0.144466 0.259175 0.637397
v 0.181289 0.436237 0.67422
v 0.0518445 -0.0518398 0.612739
v 0.203962 0.458896 0.611902
v 0.199379 0.468042 0.573323
v 0.140104 0.416198 0.573323
v 0.135963 0.407874 0.573323
v -0.00138048 0.42966 0.72472
v -0.000837778 -0.0518398 0.611473
v -0.00138048 -0.0517884 0.611208
v 0.186957 0.441889 0.662891
v 0.057975 -0.0518398 0.601859
v 0.0793213 0.022664 0.611902
v 0.1473 0.260614 0.628885
v 0.203962 0.441889 0.611902
v 0.203962 0.458896 0.573323
v 0.134255 0.403353 0.573323
v -0.00138048 0.406538 0.71333
v -0.00138048 0.407874 0.713861
v -0.00138048 0.41923 0.719515
v 0.0317243 -0.0518398 0.573323
v -0.00138048 -0.0190581 0.611208
v 0.0599247 -0.0518398 0.594041
v 0.169952 0.305932 0.577895
v 0.203962 0.441889 0.573323
v 0.0322871 -0.0169514 0.573323
v -0.00138048 0.136013 0.645888
v 0.0599247 -0.0518398 0.573323
v 0.0317243 -0.0238366 0.573323
v -0.00138048 -0.0169514 0.611371
v 0.167681 0.30136 0.573323
f 240 241 242
f 240 242 243
f 240 243 244
f 240 244 252
f 240 252 245
f 240 245 248
f 240 248 241
f 241 246 247
f 241 247 242
f 241 248 259
f 241 259 246
f 242 247 249
f 242 249 250
f 242 250 251
f 242 251 243
f 243 251 264
f 243 264 277
f 243 277 292
f 243 292 304
f 243 304 303
f 243 303 302
f 243 302 311
f 243 311 314
f 243 314 306
f 243 306 294
f 243 294 278
f 243 278 266
f 243 266 265
f 243 265 252
f 243 252 244
f 245 252 253
f 245 253 254
f 245 254 255
f 245 255 248
f 246 256 257
f 246 257 258
f 246 258 249
f 246 249 247
f 246 259 268
f 246 268 256
f 248 260 259
f 248 255 261
f 248 261 260
f 249 258 257
f 249 257 262
f 249 262 250
f 250 262 263
f 250 263 264
f 250 264 251
f 252 265 253
f 253 265 266
f 253 266 254
f 254 266 278
f 254 278 293
f 254 293 305
f 254 305 312
f 254 312 307
f 254 307 296
f 254 296 287
f 254 287 273
f 254 273 261
f 254 261 255
f 256 267 257
f 256 268 279
f 256 279 267
f 257 269 274
f 257 274 262
f 257 267 270
f 257 270 269
f 259 260 271
f 259 271 272
f 259 272 268
f 260 261 271
f 261 273 271
f 262 274 275
f 262 275 263
f 263 275 289
f 263 289 300
f 263 300 309
f 263 309 315
f 263 315 312
f 263 312 305
f 263 305 313
f 263 313 310
f 263 310 301
f 263 301 291
f 263 291 290
f 263 290 276
f 263 276 277
f 263 277 264
f 267 279 286
f 267 286 280
f 267 280 281
f 267 281 270
f 268 272 279
f 269 270 281
f 269 281 288
f 269 288 274
f 271 273 282
f 271 282 272
f 272 282 283
f 272 283 284
f 272 284 285
f 272 285 286
f 272 286 279
f 273 287 282
f 274 288 289
f 274 289 275
f 276 290 277
f 277 290 291
f 277 291 292
f 278 294 293
f 280 286 295
f 280 295 281
f 281 295 299
f 281 299 288
f 282 287 283
f 283 287 284
f 284 287 296
f 284 296 297
f 284 297 285
f 285 297 298
f 285 298 299
f 285 299 295
f 285 295 286
f 288 300 289
f 288 299 309
f 288 309 300
f 291 301 302
f 291 302 303
f 291 303 304
f 291 304 292
f 293 294 305
f 294 306 313
f 294 313 305
f 296 307 297
f 297 307 308
f 297 308 298
f 298 308 299
f 299 308 309
f 301 310 311
f 301 311 302
f 306 314 313
f 307 312 308
f 308 315 309
f 308 312 315
f 310 313 314
f 310 314 311
o convex_3
v -0.00140032 0.458902 0.781833
v -0.00140032 0.461669 0.780465
v -0.0170064 0.458902 0.781833
v -0.00140032 0.441889 0.781833
v -0.00140032 0.470227 0.776179
v -0.0226777 0.470227 0.776179
v -0.0850028 0.458902 0.76485
v -0.0170064 0.441889 0.781833
v -0.00140032 0.321519 0.747153
v -0.00140032 0.470329 0.769871
v -0.0170064 0.471661 0.762727
v -0.0361223 0.471661 0.76485
v -0.0906542 0.470227 0.759175
v -0.107629 0.458902 0.753521
v -0.0934899 0.433383 0.760604
v -0.0850028 0.441889 0.76485
v -0.0255133 0.433383 0.777587
v -0.0340005 0.271915 0.730843
v -0.017859 -0.0518398 0.637825
v -0.00140032 -0.0518398 0.637825
v -0.192619 0.470227 0.573323
v -0.00140032 0.430564 0.725189
v -0.186948 0.471661 0.609779
v -0.104099 0.471661 0.747847
v -0.0977335 0.467408 0.756338
v -0.124643 0.458902 0.736518
v -0.107629 0.441889 0.753521
v -0.0934899 0.263409 0.709615
v -0.0425075 0.263409 0.726598
v -0.0344368 -0.0518398 0.629742
v -0.00140032 -0.0518398 0.613412
v -0.19829 0.470227 0.573323
v -0.141637 0.41924 0.573323
v -0.00140032 0.429642 0.72472
v -0.135965 0.407915 0.573323
v -0.140526 0.417036 0.573323
v -0.189089 0.471661 0.628885
v -0.138087 0.471661 0.713861
v -0.158631 0.458902 0.702532
v -0.124643 0.441889 0.736518
v -0.131722 0.263409 0.671383
v -0.0595016 0.0255376 0.641642
v -0.158631 0.441889 0.702532
v -0.0637452 0.0255376 0.637397
v -0.0514309 -0.0518398 0.612739
v -0.0281705 -0.0518398 0.573323
v -0.00140032 -0.0517885 0.611208
v -0.19829 0.470227 0.611902
v -0.203962 0.458902 0.573323
v -0.00140032 0.41924 0.719515
v -0.00140032 0.407915 0.713861
v -0.00140032 0.406531 0.71333
v -0.0317201 -0.021555 0.573323
v -0.172075 0.471661 0.679854
v -0.181296 0.470227 0.662891
v -0.175625 0.458902 0.685529
v -0.148716 0.263409 0.637397
v -0.0807393 0.0255376 0.620393
v -0.175625 0.441889 0.685529
v -0.178461 0.433383 0.675629
v -0.181296 0.430564 0.668546
v -0.0522836 -0.0518398 0.611045
v -0.00140032 -0.0169943 0.611371
v -0.00140032 -0.0190441 0.611208
v -0.0599181 -0.0518398 0.573323
v -0.203962 0.458902 0.611902
v -0.199698 0.467408 0.620393
v -0.203962 0.441889 0.573323
v -0.00140032 0.136018 0.645888
v -0.182704 0.467408 0.671383
v -0.181296 0.458902 0.67422
v -0.186948 0.441889 0.662891
v -0.203962 0.441889 0.611902
v -0.169954 0.305941 0.577895
v -0.0599181 -0.0518398 0.594899
v -0.181296 0.441889 0.67422
v -0.169041 0.306812 0.573323
v -0.186948 0.458902 0.662891
f 316 317 318
f 316 318 323
f 316 323 319
f 316 319 324
f 316 324 335
f 316 335 346
f 316 346 362
f 316 362 379
f 316 379 378
f 316 378 384
f 316 384 367
f 316 367 366
f 316 366 365
f 316 365 349
f 316 349 337
f 316 337 325
f 316 325 320
f 316 320 317
f 317 320 321
f 317 321 318
f 318 321 322
f 318 322 331
f 318 331 323
f 319 323 324
f 320 325 326
f 320 326 327
f 320 327 321
f 321 327 339
f 321 339 328
f 321 328 322
f 322 329 330
f 322 330 331
f 322 328 329
f 323 331 332
f 323 332 344
f 323 344 333
f 323 333 334
f 323 334 324
f 324 334 335
f 325 336 326
f 325 337 336
f 326 336 338
f 326 338 352
f 326 352 369
f 326 369 353
f 326 353 339
f 326 339 327
f 328 340 329
f 328 339 340
f 329 341 355
f 329 355 342
f 329 342 330
f 329 340 339
f 329 339 341
f 330 332 331
f 330 342 343
f 330 343 344
f 330 344 332
f 333 344 334
f 334 344 343
f 334 343 345
f 334 345 360
f 334 360 377
f 334 377 390
f 334 390 380
f 334 380 361
f 334 361 346
f 334 346 335
f 336 347 338
f 336 337 348
f 336 348 351
f 336 351 350
f 336 350 368
f 336 368 361
f 336 361 380
f 336 380 392
f 336 392 383
f 336 383 364
f 336 364 347
f 337 349 350
f 337 350 351
f 337 351 348
f 338 347 352
f 339 353 354
f 339 354 341
f 341 354 358
f 341 358 355
f 342 355 343
f 343 356 357
f 343 357 345
f 343 355 358
f 343 358 356
f 345 357 359
f 345 359 373
f 345 373 360
f 346 361 362
f 347 363 352
f 347 364 381
f 347 381 363
f 349 365 350
f 350 365 366
f 350 366 367
f 350 367 368
f 352 363 370
f 352 370 369
f 353 369 371
f 353 371 354
f 354 371 374
f 354 374 358
f 356 372 373
f 356 373 359
f 356 359 357
f 356 358 374
f 356 374 375
f 356 375 376
f 356 376 372
f 360 373 377
f 361 368 378
f 361 378 379
f 361 379 362
f 363 381 382
f 363 382 385
f 363 385 370
f 364 383 388
f 364 388 381
f 367 384 368
f 368 384 378
f 369 370 385
f 369 385 371
f 371 386 391
f 371 391 374
f 371 385 386
f 372 376 387
f 372 387 388
f 372 388 389
f 372 389 373
f 373 390 377
f 373 389 390
f 374 391 375
f 375 391 376
f 376 391 387
f 380 390 389
f 380 389 392
f 381 393 385
f 381 385 382
f 381 388 387
f 381 387 393
f 383 392 389
f 383 389 388
f 385 393 386
f 386 393 387
f 386 387 391
o convex_4
v 3.5577e-05 -0.0518398 0.509481
v 0.0340133 -0.0518398 0.517971
v 3.5577e-05 -0.0518398 0.544456
v 3.5577e-05 0.254954 0.41642
v 0.00568522 0.26059 0.41359
v 0.00850006 0.263409 0.412185
v 0.0501437 -0.0518398 0.525622
v 0.0424977 0.0255376 0.497145
v 0.107638 0.430564 0.396609
v 0.0317175 -0.0518398 0.573323
v 0.0317175 -0.0238097 0.573323
v 3.5577e-05 -0.0339559 0.54389
v 3.5577e-05 0.266227 0.41359
v 3.5577e-05 0.441838 0.373949
v 0.0170045 0.441889 0.37393
v 0.0340133 0.441889 0.37393
v 0.101989 0.441889 0.39093
v 0.0518406 -0.0518398 0.526461
v 0.114725 0.433383 0.39944
v 0.0599258 -0.0518398 0.573323
v 0.0322964 -0.0169943 0.573323
v 3.5577e-05 0.119005 0.50989
v 3.5577e-05 0.458902 0.37393
v 0.0340133 0.458902 0.37393
v 0.101989 0.458902 0.39093
v 0.124627 0.441889 0.40227
v 0.0599258 -0.0518398 0.543032
v 0.141636 0.441889 0.41927
v 0.175634 0.441889 0.45325
v 0.182701 0.433383 0.46742
v 0.167668 0.301329 0.573323
v 0.13425 0.403354 0.573323
v 3.5577e-05 0.390902 0.44193
v 3.5577e-05 0.470227 0.37961
v 0.0424977 0.467408 0.378185
v 0.110473 0.467408 0.395185
v 0.124627 0.458902 0.40227
v 0.148703 0.263409 0.5184
v 0.152955 0.271915 0.52689
v 0.141636 0.458902 0.41927
v 0.175634 0.458902 0.45325
v 0.186953 0.441889 0.47591
v 0.19971 0.433383 0.535381
v 0.203962 0.441889 0.54389
v 0.203962 0.441889 0.573323
v 0.135966 0.407915 0.573323
v 3.5577e-05 0.403815 0.43666
v 3.5577e-05 0.470227 0.38527
v 0.0318772 0.471661 0.39093
v 0.0510021 0.471661 0.388802
v 0.0340133 0.470227 0.37961
v 0.101989 0.470227 0.396609
v 0.118978 0.471661 0.405802
v 0.186953 0.458902 0.47591
v 0.169964 0.471661 0.456802
v 0.178448 0.467408 0.463165
v 0.181283 0.470227 0.47025
v 0.203962 0.458902 0.54389
v 0.203962 0.458902 0.573323
v 3.5577e-05 0.414679 0.431722
v 0.141636 0.41924 0.573323
v 0.192623 0.470227 0.573323
v 0.184837 0.471661 0.54389
v 0.186953 0.471661 0.524763
v 0.198292 0.470227 0.53823
v 0.198292 0.470227 0.573323
f 394 395 400
f 394 400 411
f 394 411 420
f 394 420 413
f 394 413 403
f 394 403 396
f 394 396 405
f 394 405 415
f 394 415 426
f 394 426 440
f 394 440 453
f 394 453 441
f 394 441 427
f 394 427 416
f 394 416 407
f 394 407 406
f 394 406 397
f 394 397 398
f 394 398 399
f 394 399 395
f 395 399 401
f 395 401 402
f 395 402 400
f 396 403 404
f 396 404 405
f 397 406 398
f 398 406 399
f 399 406 407
f 399 407 408
f 399 408 409
f 399 409 410
f 399 410 401
f 400 402 411
f 401 410 402
f 402 410 412
f 402 412 411
f 403 413 424
f 403 424 438
f 403 438 452
f 403 452 459
f 403 459 455
f 403 455 454
f 403 454 439
f 403 439 425
f 403 425 414
f 403 414 404
f 404 414 405
f 405 414 415
f 407 416 408
f 408 416 417
f 408 417 409
f 409 417 418
f 409 418 410
f 410 418 430
f 410 430 419
f 410 419 412
f 411 412 419
f 411 419 421
f 411 421 422
f 411 422 423
f 411 423 420
f 413 420 424
f 414 425 415
f 415 425 426
f 416 427 428
f 416 428 417
f 417 428 429
f 417 429 418
f 418 429 430
f 419 430 433
f 419 433 421
f 420 423 431
f 420 431 432
f 420 432 424
f 421 433 434
f 421 434 422
f 422 434 447
f 422 447 435
f 422 435 423
f 423 435 436
f 423 436 431
f 424 432 437
f 424 437 438
f 425 439 426
f 426 439 440
f 427 441 442
f 427 442 443
f 427 443 444
f 427 444 428
f 428 444 445
f 428 445 429
f 429 445 446
f 429 446 430
f 430 446 433
f 431 436 432
f 432 436 437
f 433 446 434
f 434 446 448
f 434 448 449
f 434 449 450
f 434 450 447
f 435 447 451
f 435 451 437
f 435 437 436
f 437 451 452
f 437 452 438
f 439 453 440
f 439 454 453
f 441 455 456
f 441 456 442
f 441 453 454
f 441 454 455
f 442 456 457
f 442 457 448
f 442 448 446
f 442 446 443
f 443 446 445
f 443 445 444
f 447 450 458
f 447 458 451
f 448 457 458
f 448 458 450
f 448 450 449
f 451 458 459
f 451 459 452
f 455 459 456
f 456 459 457
f 457 459 458
o convex_5
v -0.203962 0.441889 0.54389
v -0.16904 0.306806 0.573323
v -0.203962 0.441889 0.573323
v -0.203962 0.458896 0.54389
v -0.18695 0.441889 0.47591
v -0.152967 0.271918 0.52689
v -0.0599237 -0.0518398 0.54389
v -0.0599237 -0.0518398 0.573323
v -0.203962 0.458896 0.573323
v -0.198291 0.4702 0.54389
v -0.195456 0.471639 0.535381
v -0.178465 0.471639 0.46742
v -0.18695 0.458896 0.47591
v -0.175629 0.436237 0.45325
v -0.058526 -0.0518398 0.538308
v -0.0281571 -0.0518398 0.573323
v -0.198291 0.4702 0.573323
v -0.189786 0.473078 0.54106
v -0.172794 0.473078 0.47308
v -0.110479 0.471639 0.39944
v -0.130305 0.464548 0.41359
v -0.18128 0.464548 0.46459
v -0.175629 0.453244 0.45325
v -0.124635 0.436237 0.40227
v -0.107644 0.266266 0.45325
v -0.124635 0.266266 0.47025
v -0.0515577 -0.0518398 0.526324
v 1.56158e-05 -0.0518398 0.544456
v 1.56158e-05 -0.0339588 0.54389
v -0.0317111 -0.0215244 0.573323
v -0.192621 0.4702 0.573323
v -0.0368425 0.473078 0.3881
v 1.56158e-05 0.4702 0.38527
v -0.104808 0.473078 0.4051
v -0.042493 0.471639 0.38244
v -0.0340072 0.458896 0.37393
v -0.101973 0.458896 0.39093
v -0.113294 0.464548 0.396609
v -0.124635 0.453244 0.40227
v -0.101973 0.441889 0.39093
v -0.0395779 -0.0518398 0.519357
v 1.56158e-05 -0.0518398 0.509481
v 1.56158e-05 0.119005 0.50989
v -0.135956 0.407874 0.573323
v -0.141626 0.41923 0.573323
v 1.56158e-05 0.4702 0.37961
v 1.56158e-05 0.414708 0.431722
v -0.0340072 0.4702 0.37961
v 1.56158e-05 0.458896 0.37393
v -0.0340072 0.441889 0.37393
v -0.00567483 0.249258 0.41927
v -0.0509987 0.271918 0.42493
v -0.0170158 -0.0518398 0.511959
v -4.35707e-06 -0.0518398 0.509461
v 1.56158e-05 0.254962 0.41642
v 1.56158e-05 0.390918 0.44193
v 1.56158e-05 0.403815 0.43666
v 1.56158e-05 0.441838 0.373949
v -4.35707e-06 0.441889 0.37393
v -4.35707e-06 0.266266 0.41359
v -0.0012822 -0.0518398 0.509461
v 1.56158e-05 0.266266 0.41359
f 460 461 462
f 460 462 468
f 460 468 463
f 460 463 472
f 460 472 464
f 460 464 465
f 460 465 461
f 461 465 466
f 461 466 467
f 461 467 475
f 461 475 489
f 461 489 503
f 461 503 504
f 461 504 490
f 461 490 476
f 461 476 468
f 461 468 462
f 463 468 476
f 463 476 469
f 463 469 470
f 463 470 471
f 463 471 472
f 464 472 482
f 464 482 473
f 464 473 474
f 464 474 465
f 465 474 466
f 466 474 486
f 466 486 500
f 466 500 512
f 466 512 520
f 466 520 513
f 466 513 501
f 466 501 487
f 466 487 475
f 466 475 467
f 469 476 470
f 470 476 477
f 470 477 478
f 470 478 471
f 471 478 493
f 471 493 479
f 471 479 480
f 471 480 481
f 471 481 472
f 472 481 482
f 473 482 498
f 473 498 483
f 473 483 484
f 473 484 485
f 473 485 486
f 473 486 474
f 475 487 488
f 475 488 489
f 476 490 477
f 477 491 493
f 477 493 478
f 477 490 492
f 477 492 491
f 479 493 491
f 479 491 494
f 479 494 495
f 479 495 496
f 479 496 497
f 479 497 480
f 480 497 498
f 480 498 482
f 480 482 481
f 483 498 496
f 483 496 499
f 483 499 500
f 483 500 486
f 483 486 484
f 484 486 485
f 487 501 514
f 487 514 521
f 487 521 517
f 487 517 508
f 487 508 505
f 487 505 492
f 487 492 506
f 487 506 516
f 487 516 515
f 487 515 502
f 487 502 488
f 488 502 489
f 489 502 503
f 490 504 492
f 491 492 505
f 491 505 494
f 492 504 506
f 494 505 507
f 494 507 495
f 495 508 518
f 495 518 509
f 495 509 499
f 495 499 496
f 495 507 505
f 495 505 508
f 496 498 497
f 499 509 510
f 499 510 511
f 499 511 500
f 500 511 512
f 501 513 514
f 502 515 503
f 503 515 516
f 503 516 506
f 503 506 504
f 508 517 518
f 509 518 521
f 509 521 519
f 509 519 514
f 509 514 510
f 510 514 512
f 510 512 511
f 512 514 520
f 513 520 514
f 514 519 521
f 517 521 518
o convex_6
v 0.329874 -0.0989163 0.495986
v 0.336846 -0.0834518 0.495986
v 0.332503 -0.109398 0.495986
v 0.0852111 -0.118973 0.52691
v 0.0852111 -0.101986 0.52691
v 0.353837 -0.0736024 0.495986
v 0.336846 -0.122042 0.495986
v 0.0852111 -0.131817 0.532192
v 0.353837 -0.139037 0.495986
v 0.376696 -0.150185 0.495986
v 0.0852111 -0.0906558 0.53257
v 0.373915 -0.0679873 0.495986
v 0.0852111 -0.0793257 0.538242
v 0.0852111 -0.141633 0.538242
v 0.390906 -0.152963 0.495986
v 0.424889 -0.0679873 0.495986
v 0.0852111 -0.0792591 0.538359
v 0.0852111 -0.0679873 0.560905
v 0.0852111 -0.148671 0.548195
v 0.424889 -0.152963 0.495986
v 0.0852111 -0.152963 0.560905
v 0.424889 -0.0679873 0.509906
v 0.441271 -0.0686028 0.495986
v 0.0852111 -0.0679873 0.594887
v 0.441881 -0.151815 0.495986
v 0.424889 -0.152963 0.509906
v 0.0852111 -0.152963 0.594887
v 0.407898 -0.0679873 0.52691
v 0.450415 -0.076489 0.518415
v 0.467406 -0.076489 0.501411
v 0.461958 -0.0737771 0.495986
v 0.0852111 -0.0782276 0.618643
v 0.288919 -0.0679873 0.594887
v 0.444967 -0.151432 0.495986
v 0.407898 -0.152963 0.52691
v 0.0852111 -0.152905 0.595004
v 0.288919 -0.152963 0.594887
v 0.373915 -0.0679873 0.560905
v 0.430566 -0.0963208 0.549574
v 0.464549 -0.0963208 0.515579
v 0.399402 -0.076489 0.569388
v 0.47434 -0.103517 0.495986
v 0.470111 -0.0819211 0.495986
v 0.467406 -0.076489 0.495986
v 0.0852111 -0.101986 0.628869
v 0.288919 -0.101986 0.628869
v 0.294596 -0.0793257 0.61755
v 0.339932 -0.0679873 0.577883
v 0.452205 -0.147814 0.495986
v 0.450415 -0.14872 0.501411
v 0.390906 -0.152963 0.543901
v 0.0852111 -0.147298 0.606219
v 0.297415 -0.14872 0.603383
v 0.356923 -0.152963 0.560905
v 0.365419 -0.076489 0.586379
v 0.413574 -0.0963208 0.566551
v 0.38241 -0.123224 0.586379
v 0.450415 -0.123224 0.518415
v 0.467406 -0.123224 0.501411
v 0.470225 -0.107651 0.504247
v 0.38241 -0.0934841 0.586379
v 0.471254 -0.117459 0.495986
v 0.0852111 -0.113183 0.623275
v 0.288919 -0.124638 0.61755
v 0.305911 -0.138097 0.607624
v 0.300272 -0.107651 0.62321
v 0.373915 -0.121094 0.590633
v 0.371096 -0.104814 0.592051
v 0.311587 -0.0963208 0.61755
v 0.464663 -0.130012 0.495986
v 0.470111 -0.121868 0.495986
v 0.453234 -0.141633 0.504247
v 0.419251 -0.141633 0.538242
v 0.399402 -0.14872 0.552397
v 0.0852111 -0.124638 0.61755
v 0.288919 -0.147298 0.606219
v 0.314406 -0.140219 0.603383
v 0.331436 -0.14872 0.586379
v 0.356923 -0.141633 0.583555
v 0.393725 -0.0991492 0.580719
v 0.402221 -0.141633 0.555233
f 522 523 527
f 522 527 533
f 522 533 537
f 522 537 544
f 522 544 552
f 522 552 565
f 522 565 564
f 522 564 563
f 522 563 583
f 522 583 592
f 522 592 591
f 522 591 570
f 522 570 555
f 522 555 546
f 522 546 541
f 522 541 536
f 522 536 531
f 522 531 530
f 522 530 528
f 522 528 524
f 522 524 525
f 522 525 526
f 522 526 523
f 523 526 527
f 524 528 525
f 525 529 535
f 525 535 540
f 525 540 542
f 525 542 548
f 525 548 557
f 525 557 573
f 525 573 596
f 525 596 584
f 525 584 566
f 525 566 553
f 525 553 545
f 525 545 539
f 525 539 538
f 525 538 534
f 525 534 532
f 525 532 526
f 525 528 530
f 525 530 531
f 525 531 529
f 526 532 527
f 527 532 534
f 527 534 533
f 529 531 535
f 531 536 535
f 533 534 538
f 533 538 539
f 533 539 545
f 533 545 554
f 533 554 569
f 533 569 559
f 533 559 549
f 533 549 543
f 533 543 537
f 535 536 540
f 536 541 547
f 536 547 556
f 536 556 572
f 536 572 575
f 536 575 558
f 536 558 548
f 536 548 542
f 536 542 540
f 537 543 544
f 541 546 547
f 543 549 544
f 544 549 550
f 544 550 551
f 544 551 552
f 545 553 554
f 546 555 547
f 547 555 556
f 548 558 557
f 549 559 550
f 550 560 561
f 550 561 551
f 550 559 562
f 550 562 560
f 551 563 564
f 551 564 565
f 551 565 552
f 551 561 563
f 553 566 567
f 553 567 568
f 553 568 554
f 554 568 569
f 555 570 571
f 555 571 572
f 555 572 556
f 557 558 574
f 557 574 573
f 558 575 574
f 559 576 562
f 559 569 576
f 560 577 578
f 560 578 579
f 560 579 561
f 560 562 577
f 561 579 580
f 561 580 581
f 561 581 563
f 562 576 582
f 562 582 577
f 563 581 583
f 566 584 567
f 567 584 585
f 567 585 586
f 567 586 587
f 567 587 588
f 567 588 589
f 567 589 582
f 567 582 590
f 567 590 568
f 568 590 582
f 568 582 576
f 568 576 569
f 570 591 571
f 571 591 592
f 571 592 580
f 571 580 593
f 571 593 594
f 571 594 595
f 571 595 572
f 572 595 575
f 573 574 597
f 573 597 585
f 573 585 596
f 574 598 586
f 574 586 597
f 574 575 599
f 574 599 600
f 574 600 598
f 575 595 599
f 577 601 578
f 577 582 601
f 578 595 602
f 578 602 594
f 578 594 579
f 578 601 589
f 578 589 588
f 578 588 598
f 578 598 600
f 578 600 595
f 579 594 593
f 579 593 580
f 580 592 581
f 581 592 583
f 582 589 601
f 584 596 585
f 585 597 586
f 586 598 588
f 586 588 587
f 594 602 595
f 595 600 599
o convex_7
v 0.509887 -0.101986 0.407907
v 0.509887 -0.118973 0.390944
v 0.509887 -0.101986 0.289671
v 0.509534 -0.101262 0.289671
v 0.504231 -0.0906558 0.402252
v 0.498557 -0.0793257 0.413581
v 0.501394 -0.0934841 0.433412
v 0.507068 -0.104814 0.422083
v 0.504231 -0.113308 0.42491
v 0.50564 -0.121094 0.407907
v 0.504231 -0.130303 0.390944
v 0.504478 -0.12982 0.289671
v 0.509887 -0.118973 0.289671
v 0.501042 -0.084267 0.289671
v 0.498557 -0.0793257 0.289671
v 0.493624 -0.076855 0.289671
v 0.475899 -0.0679873 0.42491
v 0.484392 -0.076489 0.450415
v 0.495738 -0.082154 0.427737
v 0.481572 -0.0793257 0.464571
v 0.478736 -0.082154 0.478727
v 0.481572 -0.0963208 0.481574
v 0.492902 -0.101986 0.458897
v 0.501394 -0.114722 0.433412
v 0.498557 -0.141633 0.390944
v 0.498557 -0.124638 0.42491
v 0.498804 -0.14115 0.289671
v 0.475899 -0.0679873 0.289671
v 0.458896 -0.0679873 0.4759
v 0.467406 -0.076489 0.495953
v 0.47012 -0.0819211 0.495953
v 0.475899 -0.101986 0.492903
v 0.487228 -0.107651 0.470225
v 0.497148 -0.116851 0.441913
v 0.487722 -0.147057 0.289671
v 0.498557 -0.141633 0.289671
v 0.481572 -0.141633 0.441913
v 0.467406 -0.14872 0.467398
v 0.484392 -0.14872 0.416408
v 0.488655 -0.121094 0.458897
v 0.484392 -0.123224 0.467398
v 0.441911 -0.0679873 0.289671
v 0.441911 -0.0679873 0.492903
v 0.456077 -0.0708239 0.490056
v 0.461962 -0.0737771 0.495953
v 0.474366 -0.103517 0.495953
v 0.471265 -0.117459 0.495953
v 0.47012 -0.121868 0.495953
v 0.476392 -0.152722 0.289671
v 0.467406 -0.140219 0.484402
v 0.458896 -0.152963 0.458897
v 0.475899 -0.152963 0.407907
v 0.452219 -0.147814 0.495953
v 0.444977 -0.151432 0.495953
v 0.441911 -0.152963 0.492903
v 0.431058 -0.0734194 0.289671
v 0.353885 -0.0736024 0.495953
v 0.373936 -0.0679873 0.492903
v 0.424909 -0.0679873 0.495953
v 0.441295 -0.0686028 0.495953
v 0.464693 -0.130012 0.495953
v 0.475899 -0.152963 0.289671
v 0.441911 -0.151815 0.495953
v 0.424909 -0.152963 0.495953
v 0.419746 -0.0790844 0.289671
v 0.336882 -0.0834518 0.495953
v 0.373936 -0.0679873 0.495953
v 0.41927 -0.0793257 0.289671
v 0.441911 -0.152963 0.289671
v 0.390939 -0.152963 0.495953
v 0.329905 -0.0989163 0.495953
v 0.407924 -0.101986 0.289671
v 0.440449 -0.152239 0.289671
v 0.390939 -0.152963 0.492903
v 0.37672 -0.150185 0.495953
v 0.365443 -0.14447 0.484402
v 0.334275 -0.107651 0.487229
v 0.332531 -0.109398 0.495953
v 0.425631 -0.137424 0.289671
v 0.336882 -0.122042 0.495953
v 0.430582 -0.147298 0.289671
v 0.353885 -0.139037 0.495953
f 603 604 615
f 603 615 605
f 603 605 606
f 603 606 607
f 603 607 608
f 603 608 609
f 603 609 610
f 603 610 604
f 604 610 611
f 604 611 612
f 604 612 613
f 604 613 614
f 604 614 615
f 605 615 614
f 605 614 629
f 605 629 638
f 605 638 637
f 605 637 651
f 605 651 664
f 605 664 671
f 605 671 675
f 605 675 683
f 605 683 681
f 605 681 674
f 605 674 670
f 605 670 667
f 605 667 658
f 605 658 644
f 605 644 630
f 605 630 618
f 605 618 617
f 605 617 616
f 605 616 606
f 606 616 607
f 607 616 608
f 608 616 617
f 608 617 618
f 608 618 619
f 608 619 620
f 608 620 621
f 608 621 609
f 609 621 622
f 609 622 623
f 609 623 624
f 609 624 625
f 609 625 610
f 610 625 626
f 610 626 611
f 611 626 612
f 612 627 613
f 612 626 628
f 612 628 627
f 613 627 629
f 613 629 614
f 618 630 619
f 619 631 620
f 619 630 644
f 619 644 660
f 619 660 669
f 619 669 661
f 619 661 645
f 619 645 631
f 620 631 632
f 620 632 622
f 620 622 621
f 622 632 623
f 623 632 633
f 623 633 624
f 624 633 634
f 624 634 635
f 624 635 625
f 625 635 626
f 626 636 628
f 626 635 636
f 627 637 638
f 627 638 629
f 627 628 639
f 627 639 640
f 627 640 641
f 627 641 637
f 628 636 642
f 628 642 643
f 628 643 652
f 628 652 639
f 631 645 646
f 631 646 647
f 631 647 632
f 632 647 662
f 632 662 661
f 632 661 669
f 632 669 659
f 632 659 668
f 632 668 673
f 632 673 680
f 632 680 682
f 632 682 684
f 632 684 677
f 632 677 672
f 632 672 666
f 632 666 665
f 632 665 656
f 632 656 655
f 632 655 663
f 632 663 650
f 632 650 649
f 632 649 648
f 632 648 633
f 633 648 634
f 634 648 635
f 635 643 642
f 635 642 636
f 635 648 649
f 635 649 650
f 635 650 643
f 637 641 651
f 639 652 640
f 640 653 654
f 640 654 641
f 640 652 655
f 640 655 656
f 640 656 657
f 640 657 653
f 641 654 651
f 643 650 652
f 644 658 659
f 644 659 660
f 645 661 662
f 645 662 647
f 645 647 646
f 650 663 652
f 651 654 664
f 652 663 655
f 653 657 666
f 653 666 672
f 653 672 676
f 653 676 671
f 653 671 664
f 653 664 654
f 656 665 657
f 657 665 666
f 658 667 659
f 659 669 660
f 659 667 670
f 659 670 668
f 668 670 674
f 668 674 673
f 671 676 677
f 671 677 678
f 671 678 675
f 672 677 676
f 673 679 680
f 673 674 679
f 674 681 682
f 674 682 679
f 675 678 683
f 677 684 678
f 678 684 683
f 679 682 680
f 681 683 682
f 682 683 684
o convex_8
v -0.0170159 -0.118979 0.492908
v -0.0170159 -0.0849862 0.492908
v -9.35318e-07 -0.135962 0.492908
v -0.251698 -0.118979 0.526914
v -0.0170159 -0.0623286 0.504254
v -0.00128695 -0.051853 0.509495
v 0.0169811 -0.0849862 0.492908
v -0.251698 -0.101983 0.526914
v -0.251698 -0.0998134 0.527996
v -0.251698 -0.0884913 0.533653
v 0.0169811 -0.118979 0.492908
v 0.0190915 -0.135962 0.497167
v 0.00563776 -0.147298 0.498581
v -0.0056726 -0.158633 0.504254
v -0.251698 -0.125473 0.530159
v -0.0170159 -0.051853 0.511974
v -0.251698 -0.0793251 0.538245
v -9.35318e-07 -0.051853 0.509495
v 0.0169811 -0.0623286 0.504254
v 0.0254886 -0.0764945 0.497167
v 0.085173 -0.101983 0.526914
v 0.085173 -0.118979 0.526914
v 0.0212348 -0.144467 0.501409
v 0.0226528 -0.164294 0.515584
v 0.0113094 -0.17563 0.521241
v -0.0226876 -0.17563 0.521241
v -0.251698 -0.141637 0.538245
v -0.251698 -0.130301 0.532571
v -0.0396037 -0.051853 0.519378
v -0.251698 -0.0782405 0.540407
v 0.0339631 -0.051853 0.51798
v 0.0339631 -0.0679897 0.503539
v 0.0594856 -0.0764945 0.514154
v 0.085173 -0.101864 0.526964
v 0.085173 -0.131809 0.532205
v 0.0382169 -0.161464 0.518413
v 0.0382169 -0.17846 0.5354
v 0.0226528 -0.181291 0.532571
v 0.0169811 -0.186965 0.543901
v -0.0170159 -0.186965 0.543901
v -0.251698 -0.152959 0.560905
v -0.251698 -0.146094 0.547162
v -0.251698 -0.0679897 0.560905
v -0.0515735 -0.051853 0.526349
v 0.0501208 -0.051853 0.525633
v 0.0424706 -0.0594981 0.514154
v 0.0594856 -0.0594981 0.522655
v 0.085173 -0.0906605 0.532571
v 0.085173 -0.141637 0.538245
v 0.085173 -0.148673 0.54821
v 0.0566498 -0.17563 0.560905
v 0.0361065 -0.182706 0.543901
v 0.0339631 -0.186965 0.560905
v -0.033998 -0.186965 0.560905
v -0.251698 -0.152959 0.594878
v -0.251698 -0.0679897 0.594878
v -0.0599162 -0.051853 0.543901
v -0.0585312 -0.051853 0.538328
v 0.0518355 -0.051853 0.526482
v 0.0598813 -0.051853 0.543053
v 0.085173 -0.0679897 0.560905
v 0.085173 -0.0792589 0.538361
v 0.085173 -0.0793251 0.538245
v 0.085173 -0.152959 0.560905
v 0.0566498 -0.17563 0.594878
v 0.0339631 -0.186965 0.594878
v -0.033998 -0.186965 0.594878
v -0.251698 -0.151874 0.597058
v -0.0170159 -0.186965 0.611882
v -0.251698 -0.0696166 0.598139
v -0.0178733 -0.051853 0.637803
v -0.0344266 -0.051853 0.629717
v -0.0514416 -0.051853 0.61273
v -0.0518703 -0.051853 0.611882
v -0.0599162 -0.051853 0.594878
v 0.0598813 -0.051853 0.59403
v 0.085173 -0.0679897 0.594878
v 0.085173 -0.152959 0.594878
v 0.0424706 -0.182706 0.60338
v 0.085173 -0.152906 0.595012
v 0.0169811 -0.186965 0.611882
v -0.251698 -0.147298 0.606209
v -0.0170159 -0.17563 0.634542
v -0.251698 -0.0793251 0.617539
v 0.00563776 -0.0623286 0.651529
v 0.0161238 -0.051853 0.637803
v 0.0579358 -0.051853 0.601849
v 0.085173 -0.0782272 0.618637
v 0.0594856 -0.0594981 0.620367
v 0.0424706 -0.174214 0.620367
v 0.0254886 -0.182706 0.620367
v 0.085173 -0.147298 0.606209
v 0.0169811 -0.17563 0.634542
v -0.251698 -0.135962 0.611882
v -9.35318e-07 -0.152959 0.652244
v 0.00847359 -0.144467 0.658616
v -0.251698 -0.0817323 0.618753
v -0.0056726 -0.073664 0.657202
v -9.35318e-07 -0.0849862 0.662859
v 0.0198169 -0.0651591 0.648701
v 0.0424706 -0.0594981 0.63737
v 0.0239388 -0.051853 0.63584
v 0.0518355 -0.051853 0.61273
v 0.085173 -0.101983 0.628869
v 0.0424706 -0.157218 0.63737
v 0.085173 -0.147179 0.606275
v -0.251698 -0.113318 0.623212
v 0.0453065 -0.141637 0.640199
v -9.35318e-07 -0.118979 0.662859
v -0.251698 -0.101983 0.628869
v 0.0226528 -0.0793251 0.651529
v 0.0348205 -0.051853 0.629717
v 0.085173 -0.113199 0.623279
f 685 686 691
f 685 691 695
f 685 695 687
f 685 687 688
f 685 688 692
f 685 692 686
f 686 689 690
f 686 690 702
f 686 702 691
f 686 692 693
f 686 693 694
f 686 694 689
f 687 695 696
f 687 696 697
f 687 697 698
f 687 698 688
f 688 699 712
f 688 712 711
f 688 711 726
f 688 726 725
f 688 725 739
f 688 739 752
f 688 752 766
f 688 766 778
f 688 778 791
f 688 791 794
f 688 794 781
f 688 781 768
f 688 768 754
f 688 754 740
f 688 740 727
f 688 727 714
f 688 714 701
f 688 701 694
f 688 694 693
f 688 693 692
f 688 698 699
f 689 700 690
f 689 694 701
f 689 701 700
f 690 700 713
f 690 713 728
f 690 728 742
f 690 742 741
f 690 741 759
f 690 759 758
f 690 758 757
f 690 757 756
f 690 756 755
f 690 755 770
f 690 770 786
f 690 786 796
f 690 796 787
f 690 787 771
f 690 771 760
f 690 760 744
f 690 744 743
f 690 743 729
f 690 729 715
f 690 715 702
f 691 702 703
f 691 703 704
f 691 704 705
f 691 705 706
f 691 706 695
f 695 706 696
f 696 707 697
f 696 706 707
f 697 707 708
f 697 708 709
f 697 709 698
f 698 709 710
f 698 710 711
f 698 711 712
f 698 712 699
f 700 701 713
f 701 714 713
f 702 715 703
f 703 715 716
f 703 716 704
f 704 716 717
f 704 717 705
f 705 717 718
f 705 718 732
f 705 732 747
f 705 747 746
f 705 746 745
f 705 745 761
f 705 761 772
f 705 772 788
f 705 788 797
f 705 797 790
f 705 790 776
f 705 776 764
f 705 764 762
f 705 762 748
f 705 748 734
f 705 734 733
f 705 733 719
f 705 719 706
f 706 719 707
f 707 719 720
f 707 720 708
f 708 720 709
f 709 720 721
f 709 721 722
f 709 722 723
f 709 723 724
f 709 724 710
f 710 724 725
f 710 725 726
f 710 726 711
f 713 714 727
f 713 727 728
f 715 729 730
f 715 730 716
f 716 730 731
f 716 731 717
f 717 731 718
f 718 731 732
f 719 733 720
f 720 733 721
f 721 733 734
f 721 734 735
f 721 735 736
f 721 736 722
f 722 736 723
f 723 736 737
f 723 737 750
f 723 750 765
f 723 765 753
f 723 753 751
f 723 751 738
f 723 738 724
f 724 738 725
f 725 738 751
f 725 751 739
f 727 740 759
f 727 759 741
f 727 741 742
f 727 742 728
f 729 743 730
f 730 743 731
f 731 743 744
f 731 744 745
f 731 745 746
f 731 746 747
f 731 747 732
f 734 748 735
f 735 749 750
f 735 750 737
f 735 737 736
f 735 748 762
f 735 762 749
f 739 751 753
f 739 753 752
f 740 754 755
f 740 755 756
f 740 756 757
f 740 757 758
f 740 758 759
f 744 760 761
f 744 761 745
f 749 763 750
f 749 762 764
f 749 764 763
f 750 763 765
f 752 753 766
f 753 765 777
f 753 777 767
f 753 767 766
f 754 768 755
f 755 769 770
f 755 768 769
f 760 771 761
f 761 771 773
f 761 773 772
f 763 764 774
f 763 774 775
f 763 775 765
f 764 776 774
f 765 775 777
f 766 767 779
f 766 779 780
f 766 780 778
f 767 777 779
f 768 781 782
f 768 782 769
f 769 783 784
f 769 784 785
f 769 785 786
f 769 786 770
f 769 782 783
f 771 787 773
f 772 773 785
f 772 785 788
f 773 787 785
f 774 776 789
f 774 789 777
f 774 777 775
f 776 790 789
f 777 780 779
f 777 789 780
f 778 780 791
f 780 789 792
f 780 792 788
f 780 788 793
f 780 793 794
f 780 794 791
f 781 794 782
f 782 794 783
f 783 793 788
f 783 788 795
f 783 795 785
f 783 785 784
f 783 794 793
f 785 787 796
f 785 796 786
f 785 795 788
f 788 792 789
f 788 789 797
f 789 790 797
o convex_9
v -0.251698 -0.101986 0.628882
v -0.251698 -0.0817298 0.618755
v -0.288953 -0.101986 0.628882
v -0.251698 -0.145135 0.607299
v -0.294614 -0.0906558 0.623204
v -0.251698 -0.0793257 0.617526
v -0.283291 -0.0793257 0.617526
v -0.297445 -0.110479 0.624632
v -0.297445 -0.14447 0.607632
v -0.382419 -0.110479 0.590631
v -0.288953 -0.147298 0.606204
v -0.251698 -0.147298 0.606204
v -0.376075 -0.101986 0.590631
v -0.361188 -0.076489 0.586381
v -0.378198 -0.0934841 0.586381
v -0.251698 -0.0781195 0.615136
v -0.288953 -0.0679873 0.594881
v -0.294614 -0.0736606 0.606204
v -0.345619 -0.0736606 0.589203
v -0.305963 -0.118973 0.618257
v -0.305963 -0.14872 0.597006
v -0.365434 -0.127474 0.590631
v -0.356942 -0.141633 0.583525
v -0.395157 -0.076489 0.569381
v -0.413582 -0.101986 0.566558
v -0.382419 -0.127474 0.582131
v -0.288953 -0.152963 0.594881
v -0.251698 -0.152963 0.594881
v -0.379613 -0.0736606 0.572203
v -0.251698 -0.0679873 0.594881
v -0.339957 -0.0679873 0.577881
v -0.373952 -0.14872 0.563006
v -0.399403 -0.14447 0.55663
v -0.407921 -0.14872 0.546005
v -0.393034 -0.0722381 0.56088
v -0.412167 -0.076489 0.55238
v -0.447577 -0.101986 0.532558
v -0.413582 -0.135968 0.549558
v -0.356942 -0.152963 0.56088
v -0.251698 -0.152963 0.56088
v -0.373952 -0.0679873 0.56088
v -0.251698 -0.0679873 0.56088
v -0.441915 -0.14872 0.512004
v -0.407921 -0.152963 0.52688
v -0.390911 -0.152963 0.54388
v -0.410044 -0.0722381 0.54388
v -0.446161 -0.076489 0.518379
v -0.464561 -0.101986 0.515557
v -0.447577 -0.135968 0.515557
v -0.251698 -0.1461 0.547134
v -0.441915 -0.152963 0.289671
v -0.44141 -0.152722 0.289671
v -0.430567 -0.147298 0.289671
v -0.441915 -0.0679873 0.492879
v -0.444038 -0.0722381 0.509879
v -0.251698 -0.0793257 0.538202
v -0.419244 -0.0793257 0.289671
v -0.424172 -0.076855 0.289671
v -0.441182 -0.0683533 0.289671
v -0.441915 -0.0679873 0.289671
v -0.450408 -0.14447 0.505629
v -0.453238 -0.147298 0.498557
v -0.441915 -0.152963 0.492879
v -0.463146 -0.076489 0.501379
v -0.471638 -0.118973 0.495004
v -0.467392 -0.127474 0.497129
v -0.471638 -0.0934841 0.501379
v -0.488648 -0.0934841 0.467412
v -0.492894 -0.101986 0.458945
v -0.505633 -0.110479 0.433444
v -0.251698 -0.141633 0.538202
v -0.47591 -0.152963 0.289671
v -0.418991 -0.124155 0.289671
v -0.4589 -0.0679873 0.475879
v -0.461023 -0.0722381 0.492879
v -0.251698 -0.0884846 0.53362
v -0.407921 -0.101986 0.289671
v -0.408275 -0.101262 0.289671
v -0.416767 -0.084267 0.289671
v -0.47591 -0.0679873 0.289671
v -0.467392 -0.14447 0.480129
v -0.470223 -0.147298 0.464556
v -0.4589 -0.152963 0.458945
v -0.471638 -0.076489 0.484379
v -0.482279 -0.0849907 0.475879
v -0.488648 -0.118973 0.461036
v -0.484402 -0.127474 0.463161
v -0.499264 -0.0849907 0.424944
v -0.505633 -0.0934841 0.416444
v -0.509904 -0.101986 0.407943
v -0.509904 -0.118973 0.390943
v -0.504217 -0.130303 0.396621
v -0.501387 -0.127474 0.412193
v -0.484402 -0.14447 0.429194
v -0.251698 -0.125486 0.530134
v -0.41333 -0.112825 0.289671
v -0.498556 -0.141633 0.289671
v -0.47591 -0.152963 0.407943
v -0.47591 -0.0679873 0.424944
v -0.470223 -0.0736606 0.475879
v -0.251698 -0.101986 0.52688
v -0.251698 -0.118973 0.52688
v -0.498076 -0.0790844 0.289671
v -0.487233 -0.147298 0.413621
v -0.488648 -0.076489 0.433444
v -0.498556 -0.0793257 0.407943
v -0.50399 -0.0901733 0.289671
v -0.509904 -0.101986 0.289671
v -0.509904 -0.118973 0.289671
v -0.501766 -0.135244 0.289671
v -0.498556 -0.141633 0.385265
v -0.487233 -0.0736606 0.424944
v -0.498556 -0.0793257 0.289671
f 798 799 800
f 798 800 801
f 798 801 809
f 798 809 825
f 798 825 837
f 798 837 847
f 798 847 868
f 798 868 892
f 798 892 899
f 798 899 898
f 798 898 873
f 798 873 853
f 798 853 839
f 798 839 827
f 798 827 813
f 798 813 803
f 798 803 799
f 799 802 800
f 799 803 804
f 799 804 802
f 800 805 806
f 800 806 801
f 800 802 807
f 800 807 805
f 801 806 808
f 801 808 809
f 802 810 807
f 802 804 811
f 802 811 812
f 802 812 810
f 803 813 804
f 804 813 814
f 804 814 815
f 804 815 816
f 804 816 811
f 805 817 806
f 805 807 817
f 806 818 808
f 806 817 819
f 806 819 820
f 806 820 818
f 807 819 817
f 807 810 812
f 807 812 821
f 807 821 822
f 807 822 823
f 807 823 819
f 808 818 824
f 808 824 825
f 808 825 809
f 811 816 826
f 811 826 821
f 811 821 812
f 813 827 814
f 814 827 839
f 814 839 857
f 814 857 877
f 814 877 896
f 814 896 871
f 814 871 851
f 814 851 838
f 814 838 828
f 814 828 816
f 814 816 815
f 816 828 838
f 816 838 826
f 818 820 829
f 818 829 836
f 818 836 824
f 819 823 820
f 820 823 830
f 820 830 831
f 820 831 829
f 821 826 832
f 821 832 843
f 821 843 833
f 821 833 822
f 822 833 844
f 822 844 834
f 822 834 846
f 822 846 835
f 822 835 823
f 823 835 830
f 824 836 842
f 824 842 841
f 824 841 860
f 824 860 880
f 824 880 895
f 824 895 869
f 824 869 848
f 824 848 837
f 824 837 825
f 826 838 832
f 829 831 842
f 829 842 836
f 830 835 831
f 831 835 846
f 831 846 840
f 831 840 860
f 831 860 841
f 831 841 842
f 832 838 843
f 833 843 852
f 833 852 844
f 834 844 861
f 834 861 845
f 834 845 846
f 837 848 849
f 837 849 850
f 837 850 847
f 838 851 852
f 838 852 843
f 839 853 854
f 839 854 855
f 839 855 856
f 839 856 857
f 840 846 858
f 840 858 859
f 840 859 860
f 844 852 872
f 844 872 861
f 845 862 863
f 845 863 846
f 845 861 864
f 845 864 865
f 845 865 866
f 845 866 867
f 845 867 862
f 846 863 858
f 847 850 868
f 848 869 894
f 848 894 907
f 848 907 906
f 848 906 905
f 848 905 904
f 848 904 910
f 848 910 900
f 848 900 877
f 848 877 857
f 848 857 856
f 848 856 855
f 848 855 854
f 848 854 876
f 848 876 875
f 848 875 874
f 848 874 893
f 848 893 870
f 848 870 850
f 848 850 849
f 850 870 868
f 851 871 872
f 851 872 852
f 853 873 874
f 853 874 875
f 853 875 876
f 853 876 854
f 858 863 859
f 859 863 878
f 859 878 879
f 859 879 880
f 859 880 860
f 861 872 881
f 861 881 882
f 861 882 864
f 862 867 883
f 862 883 884
f 862 884 863
f 863 884 878
f 864 882 865
f 865 882 885
f 865 885 886
f 865 886 867
f 865 867 866
f 867 886 887
f 867 887 888
f 867 888 889
f 867 889 890
f 867 890 891
f 867 891 884
f 867 884 883
f 868 870 893
f 868 893 874
f 868 874 892
f 869 895 901
f 869 901 908
f 869 908 894
f 871 896 909
f 871 909 897
f 871 897 872
f 872 897 881
f 873 898 874
f 874 898 899
f 874 899 892
f 877 900 896
f 878 884 891
f 878 891 901
f 878 901 879
f 879 901 880
f 880 901 895
f 881 897 909
f 881 909 902
f 881 902 882
f 882 902 885
f 885 902 903
f 885 903 886
f 886 903 887
f 887 903 904
f 887 904 905
f 887 905 906
f 887 906 888
f 888 906 907
f 888 907 908
f 888 908 889
f 889 901 891
f 889 891 890
f 889 908 901
f 894 908 907
f 896 903 909
f 896 900 903
f 900 910 903
f 902 909 903
f 903 910 904
o convex_10
v 0.509904 -0.101986 0.289671
v 0.50104 -0.084267 0.289671
v 0.509904 -0.118973 0.289671
v 0.509904 -0.101986 0.0231167
v 0.498564 -0.0793257 0.289671
v 0.498993 -0.0801825 0.0231167
v 0.498564 -0.0793257 0.0231167
v 0.498814 -0.14115 0.289671
v 0.509904 -0.118973 0.0231167
v 0.493633 -0.076855 0.289671
v 0.497716 -0.0788931 0.0231167
v 0.498564 -0.141633 0.289671
v 0.498564 -0.141633 0.0231167
v 0.500601 -0.137573 0.0231167
v 0.475904 -0.0679873 0.289671
v 0.475904 -0.0679873 0.0231167
v 0.487723 -0.147057 0.289671
v 0.491297 -0.145268 0.0231167
v 0.441924 -0.0679873 0.289671
v 0.441924 -0.0679873 0.0231167
v 0.476393 -0.152722 0.289671
v 0.479967 -0.150933 0.0231167
v 0.419743 -0.0790844 0.289671
v 0.423326 -0.0772876 0.0231167
v 0.475904 -0.152963 0.289671
v 0.475904 -0.152963 0.0231167
v 0.419264 -0.0793257 0.289671
v 0.419264 -0.0793257 0.0231167
v 0.441924 -0.152963 0.289671
v 0.441924 -0.152963 0.0231167
v 0.413833 -0.0901733 0.289671
v 0.413593 -0.0906558 0.0231167
v 0.430594 -0.147298 0.289671
v 0.431023 -0.147514 0.0231167
v 0.408173 -0.101503 0.289671
v 0.40996 -0.0979263 0.0231167
v 0.424924 -0.135968 0.289671
v 0.430374 -0.146874 0.0231167
v 0.430594 -0.147298 0.0231167
v 0.407933 -0.101986 0.289671
v 0.407933 -0.101986 0.0231167
v 0.408652 -0.103433 0.289671
f 911 912 915
f 911 915 920
f 911 920 925
f 911 925 929
f 911 929 933
f 911 933 937
f 911 937 941
f 911 941 945
f 911 945 950
f 911 950 952
f 911 952 947
f 911 947 943
f 911 943 939
f 911 939 935
f 911 935 931
f 911 931 927
f 911 927 922
f 911 922 918
f 911 918 913
f 911 913 919
f 911 919 914
f 911 914 912
f 912 914 916
f 912 916 917
f 912 917 915
f 913 918 919
f 914 919 924
f 914 924 923
f 914 923 928
f 914 928 932
f 914 932 936
f 914 936 940
f 914 940 944
f 914 944 949
f 914 949 948
f 914 948 951
f 914 951 946
f 914 946 942
f 914 942 938
f 914 938 934
f 914 934 930
f 914 930 926
f 914 926 921
f 914 921 917
f 914 917 916
f 915 917 921
f 915 921 920
f 918 922 923
f 918 923 924
f 918 924 919
f 920 921 925
f 921 926 925
f 922 927 923
f 923 927 928
f 925 926 930
f 925 930 929
f 927 931 932
f 927 932 928
f 929 930 934
f 929 934 933
f 931 935 936
f 931 936 932
f 933 934 938
f 933 938 937
f 935 939 940
f 935 940 936
f 937 938 941
f 938 942 941
f 939 943 944
f 939 944 940
f 941 942 946
f 941 946 945
f 943 947 948
f 943 948 949
f 943 949 944
f 945 946 951
f 945 951 950
f 947 952 948
f 948 952 951
f 950 951 952
o convex_11
v 0.467423 -0.110466 -0.165719
v 0.492933 -0.135971 -0.152967
v 0.48725 -0.158631 -0.141637
v 0.436263 -0.158631 -0.141637
v 0.441946 -0.135971 -0.152967
v 0.376321 -0.146669 -0.146683
v 0.376321 -0.1289 -0.148254
v 0.458931 -0.107638 -0.164296
v 0.458931 -0.0679906 -0.152967
v 0.475916 -0.0679906 -0.152967
v 0.645861 -0.084994 -0.152967
v 0.662846 -0.101981 -0.152967
v 0.645861 -0.118968 -0.152967
v 0.498584 -0.147301 -0.147293
v 0.470265 -0.175618 -0.124634
v 0.651512 -0.164288 -0.130308
v 0.453281 -0.175618 -0.124634
v 0.376321 -0.180676 -0.112676
v 0.376321 -0.084994 -0.148254
v 0.458931 -0.0453304 -0.141637
v 0.376321 -0.0679906 -0.142358
v 0.475916 -0.0453304 -0.141637
v 0.484441 -0.0594888 -0.148716
v 0.654354 -0.0764923 -0.148716
v 0.671371 -0.0934958 -0.148716
v 0.685514 -0.101981 -0.141637
v 0.664994 -0.118968 -0.148716
v 0.651512 -0.130298 -0.147293
v 0.481599 -0.181292 -0.113305
v 0.685514 -0.147301 -0.130308
v 0.667109 -0.16146 -0.127462
v 0.667109 -0.178463 -0.0934738
v 0.651512 -0.181292 -0.0963015
v 0.458931 -0.186965 -0.101975
v 0.424929 -0.186965 -0.0849722
v 0.376321 -0.18224 -0.0948969
v 0.441946 -0.0169968 -0.0849722
v 0.376321 -0.0434337 -0.117796
v 0.433421 -0.0382428 -0.127462
v 0.475916 -0.0169968 -0.0849722
v 0.492933 -0.0396736 -0.130308
v 0.645861 -0.0453304 -0.124634
v 0.645861 -0.0623338 -0.141637
v 0.662846 -0.0679906 -0.14234
v 0.679864 -0.084994 -0.14234
v 0.688356 -0.0764923 -0.131712
v 0.702532 -0.101981 -0.124634
v 0.691198 -0.135971 -0.130308
v 0.667109 -0.127469 -0.144465
v 0.692619 -0.144473 -0.127462
v 0.475916 -0.186965 -0.101975
v 0.645861 -0.186965 -0.0849722
v 0.684093 -0.16146 -0.110477
v 0.671371 -0.182706 -0.0764706
v 0.664994 -0.182706 -0.0849722
v 0.424929 -0.186965 -0.0679875
v 0.376321 -0.18224 -0.0679875
v 0.441946 -0.0169968 -0.0679875
v 0.433421 -0.021256 -0.0934738
v 0.376321 -0.0264302 -0.0837893
v 0.492933 -0.0340003 -0.11896
v 0.492933 -0.0169968 -0.0679875
v 0.637369 -0.021256 -0.0764706
v 0.645861 -0.0226702 -0.0793168
v 0.662846 -0.0382428 -0.104101
v 0.671371 -0.042502 -0.106226
v 0.688356 -0.0594888 -0.123211
v 0.671371 -0.0594888 -0.131712
v 0.705341 -0.0764923 -0.106226
v 0.709603 -0.084994 -0.104101
v 0.713866 -0.101981 -0.101975
v 0.709603 -0.110466 -0.110477
v 0.703226 -0.118968 -0.11896
v 0.709603 -0.127469 -0.0934738
v 0.692619 -0.16146 -0.0934738
v 0.645861 -0.186965 -0.0679875
v 0.654354 -0.182706 -0.0595043
v 0.691198 -0.164288 -0.0849722
v 0.679864 -0.176334 -0.0679875
v 0.671371 -0.165719 -0.0254979
v 0.441946 -0.186965 -0.0510027
v 0.376321 -0.17635 -0.0510027
v 0.447597 -0.0453304 -0.0113409
v 0.376321 -0.0264302 -0.0762303
v 0.376321 -0.0287928 -0.0627941
v 0.376321 -0.0387253 -0.0387124
v 0.424929 -0.0340003 -0.0339995
v 0.498584 -0.0453304 -0.0113409
v 0.645861 -0.0340003 -0.0339995
v 0.640211 -0.0226702 -0.0736429
v 0.654354 -0.0254985 -0.0764706
v 0.654354 -0.0254985 -0.0807214
v 0.679864 -0.0382428 -0.0870976
v 0.688356 -0.042502 -0.089223
v 0.708182 -0.0736639 -0.0906461
v 0.713866 -0.084994 -0.0849722
v 0.713866 -0.118968 -0.0849722
v 0.713866 -0.118968 -0.0679875
v 0.691198 -0.164288 -0.0679875
v 0.484441 -0.182706 -0.0425011
v 0.475916 -0.186965 -0.0510027
v 0.475916 -0.152958 0.0230721
v 0.688356 -0.165719 -0.0595043
v 0.685514 -0.158631 -0.0339995
v 0.679864 -0.155088 -0.0212471
v 0.645861 -0.158631 -0.0113409
v 0.441946 -0.152958 0.0230721
v 0.376321 -0.159347 -0.0170148
v 0.441946 -0.0679906 0.0230721
v 0.419278 -0.0396736 -0.0226702
v 0.376321 -0.0457962 -0.0287877
v 0.475916 -0.0679906 0.0230721
v 0.640211 -0.0396736 -0.0226702
v 0.671371 -0.042502 -0.0254979
v 0.660037 -0.0368286 -0.0368272
v 0.665688 -0.0311719 -0.0651597
v 0.688356 -0.042502 -0.0595043
v 0.677022 -0.0368286 -0.0708336
v 0.702532 -0.0623338 -0.0793168
v 0.713866 -0.084994 -0.0679875
v 0.713866 -0.101981 -0.0510027
v 0.709603 -0.121097 -0.0510027
v 0.692619 -0.155088 -0.0510027
v 0.48725 -0.147301 0.0230721
v 0.645861 -0.147301 -0.00566702
v 0.645861 -0.135971 -1.16021e-05
v 0.688356 -0.148715 -0.0254979
v 0.671371 -0.140214 -0.00851321
v 0.691198 -0.141628 -0.0226702
v 0.662846 -0.138084 -0.0042624
v 0.431042 -0.147518 0.0230721
v 0.430612 -0.147301 0.0230721
v 0.376321 -0.151777 -0.00943729
v 0.376321 -0.0533496 -0.019362
v 0.419278 -0.0793207 0.0230721
v 0.482029 -0.0710352 0.0230721
v 0.645861 -0.084994 -1.16021e-05
v 0.651512 -0.0623338 -0.0113409
v 0.671371 -0.0764923 -0.00851321
v 0.688356 -0.0594888 -0.0254979
v 0.682672 -0.0481587 -0.0311718
v 0.685514 -0.0453304 -0.0453288
v 0.691198 -0.0566605 -0.0396734
v 0.702532 -0.0623338 -0.062332
v 0.705341 -0.0764923 -0.0425011
v 0.708182 -0.107638 -0.0396734
v 0.702532 -0.0963241 -0.0283441
v 0.705341 -0.12321 -0.0425011
v 0.491314 -0.145271 0.0230721
v 0.662846 -0.118968 -1.16021e-05
v 0.498584 -0.141628 0.0230721
v 0.67418 -0.124641 -0.00566702
v 0.685514 -0.113311 -0.0113409
v 0.430381 -0.146869 0.0230721
v 0.376321 -0.133609 -0.00472445
v 0.424929 -0.135971 0.0230721
v 0.413595 -0.113311 0.0230721
v 0.407944 -0.101981 0.0230721
v 0.376321 -0.0627831 -0.011803
v 0.376321 -0.0727156 -0.00472445
v 0.413595 -0.0906508 0.0230721
v 0.498584 -0.0793207 0.0230721
v 0.662846 -0.101981 -1.16021e-05
v 0.660037 -0.0878224 -0.00283931
v 0.685514 -0.0963241 -0.0113409
v 0.691198 -0.0736639 -0.0226702
v 0.509918 -0.118968 0.0230721
v 0.504267 -0.130298 0.0230721
v 0.500633 -0.137568 0.0230721
v 0.67418 -0.107638 -0.00566702
v 0.40996 -0.0979213 0.0230721
v 0.504267 -0.0906508 0.0230721
v 0.509918 -0.101981 0.0230721
f 953 954 955
f 953 955 956
f 953 956 957
f 953 957 958
f 953 958 959
f 953 959 960
f 953 960 961
f 953 961 962
f 953 962 963
f 953 963 964
f 953 964 965
f 953 965 954
f 954 966 955
f 954 965 980
f 954 980 966
f 955 967 969
f 955 969 956
f 955 966 968
f 955 968 967
f 956 969 970
f 956 970 958
f 956 958 957
f 958 970 988
f 958 988 1009
f 958 1009 1034
f 958 1034 1060
f 958 1060 1085
f 958 1085 1107
f 958 1107 1112
f 958 1112 1111
f 958 1111 1086
f 958 1086 1063
f 958 1063 1038
f 958 1038 1037
f 958 1037 1036
f 958 1036 1012
f 958 1012 990
f 958 990 973
f 958 973 971
f 958 971 959
f 959 971 960
f 960 971 961
f 961 972 974
f 961 974 962
f 961 971 973
f 961 973 972
f 962 974 975
f 962 975 963
f 963 976 977
f 963 977 964
f 963 975 976
f 964 977 978
f 964 978 979
f 964 979 965
f 965 979 980
f 966 980 968
f 967 981 1003
f 967 1003 986
f 967 986 969
f 967 968 981
f 968 980 982
f 968 982 983
f 968 983 984
f 968 984 985
f 968 985 981
f 969 986 970
f 970 987 988
f 970 986 987
f 972 989 992
f 972 992 974
f 972 973 990
f 972 990 991
f 972 991 989
f 974 992 993
f 974 993 994
f 974 994 995
f 974 995 975
f 975 995 976
f 976 996 997
f 976 997 977
f 976 995 996
f 977 997 978
f 978 997 998
f 978 998 999
f 978 999 1000
f 978 1000 979
f 979 1001 980
f 979 1000 1002
f 979 1002 982
f 979 982 1001
f 980 1001 982
f 981 985 1004
f 981 1004 1003
f 982 1002 983
f 983 1002 1005
f 983 1005 984
f 984 1005 1006
f 984 1006 1007
f 984 1007 985
f 985 1007 1004
f 986 1003 1004
f 986 1004 1028
f 986 1028 1053
f 986 1053 1033
f 986 1033 1008
f 986 1008 987
f 987 1008 1009
f 987 1009 988
f 989 1010 1014
f 989 1014 992
f 989 991 1011
f 989 1011 1012
f 989 1012 1036
f 989 1036 1010
f 990 1012 991
f 991 1012 1011
f 992 1013 993
f 992 1014 1015
f 992 1015 1016
f 992 1016 1013
f 993 1013 1016
f 993 1016 994
f 994 1016 1017
f 994 1017 1018
f 994 1018 1019
f 994 1019 1020
f 994 1020 995
f 995 1020 996
f 996 1020 1019
f 996 1019 997
f 997 1019 998
f 998 1019 999
f 999 1021 1022
f 999 1022 1023
f 999 1023 1024
f 999 1024 1025
f 999 1025 1002
f 999 1002 1000
f 999 1019 1021
f 1002 1025 1024
f 1002 1024 1026
f 1002 1026 1027
f 1002 1027 1005
f 1004 1007 1006
f 1004 1006 1028
f 1005 1027 1006
f 1006 1029 1028
f 1006 1027 1030
f 1006 1030 1031
f 1006 1031 1032
f 1006 1032 1029
f 1008 1033 1009
f 1009 1033 1034
f 1010 1035 1040
f 1010 1040 1014
f 1010 1036 1037
f 1010 1037 1038
f 1010 1038 1039
f 1010 1039 1035
f 1014 1040 1041
f 1014 1041 1015
f 1015 1041 1042
f 1015 1042 1043
f 1015 1043 1016
f 1016 1043 1044
f 1016 1044 1017
f 1017 1044 1045
f 1017 1045 1018
f 1018 1045 1046
f 1018 1046 1019
f 1019 1046 1021
f 1021 1047 1022
f 1021 1046 1047
f 1022 1047 1048
f 1022 1048 1023
f 1023 1048 1072
f 1023 1072 1073
f 1023 1073 1050
f 1023 1050 1049
f 1023 1049 1026
f 1023 1026 1024
f 1026 1049 1027
f 1027 1049 1050
f 1027 1050 1051
f 1027 1051 1030
f 1028 1029 1052
f 1028 1052 1053
f 1029 1032 1054
f 1029 1054 1052
f 1030 1051 1031
f 1031 1051 1055
f 1031 1055 1056
f 1031 1056 1032
f 1032 1056 1057
f 1032 1057 1058
f 1032 1058 1054
f 1033 1053 1054
f 1033 1054 1059
f 1033 1059 1034
f 1034 1059 1060
f 1035 1061 1064
f 1035 1064 1040
f 1035 1039 1062
f 1035 1062 1061
f 1038 1063 1062
f 1038 1062 1039
f 1040 1064 1065
f 1040 1065 1041
f 1041 1065 1066
f 1041 1066 1067
f 1041 1067 1042
f 1042 1067 1043
f 1043 1067 1066
f 1043 1066 1068
f 1043 1068 1069
f 1043 1069 1070
f 1043 1070 1045
f 1043 1045 1044
f 1045 1070 1069
f 1045 1069 1046
f 1046 1069 1096
f 1046 1096 1071
f 1046 1071 1047
f 1047 1071 1048
f 1048 1071 1096
f 1048 1096 1072
f 1050 1073 1074
f 1050 1074 1075
f 1050 1075 1051
f 1051 1075 1055
f 1052 1054 1053
f 1054 1076 1101
f 1054 1101 1103
f 1054 1103 1121
f 1054 1121 1120
f 1054 1120 1119
f 1054 1119 1125
f 1054 1125 1124
f 1054 1124 1114
f 1054 1114 1088
f 1054 1088 1064
f 1054 1064 1061
f 1054 1061 1087
f 1054 1087 1113
f 1054 1113 1123
f 1054 1123 1110
f 1054 1110 1109
f 1054 1109 1108
f 1054 1108 1106
f 1054 1106 1084
f 1054 1084 1083
f 1054 1083 1059
f 1054 1058 1077
f 1054 1077 1078
f 1054 1078 1076
f 1055 1075 1056
f 1056 1075 1079
f 1056 1079 1057
f 1057 1080 1058
f 1057 1079 1081
f 1057 1081 1080
f 1058 1080 1082
f 1058 1082 1077
f 1059 1083 1060
f 1060 1083 1084
f 1060 1084 1085
f 1061 1062 1063
f 1061 1063 1086
f 1061 1086 1087
f 1064 1088 1089
f 1064 1089 1090
f 1064 1090 1066
f 1064 1066 1065
f 1066 1091 1092
f 1066 1092 1093
f 1066 1093 1094
f 1066 1094 1069
f 1066 1069 1068
f 1066 1090 1091
f 1069 1094 1092
f 1069 1092 1095
f 1069 1095 1096
f 1072 1097 1073
f 1072 1096 1097
f 1073 1098 1074
f 1073 1097 1099
f 1073 1099 1098
f 1074 1098 1100
f 1074 1100 1081
f 1074 1081 1075
f 1075 1081 1079
f 1076 1078 1101
f 1077 1082 1078
f 1078 1082 1102
f 1078 1102 1103
f 1078 1103 1101
f 1080 1081 1104
f 1080 1104 1082
f 1081 1100 1098
f 1081 1098 1099
f 1081 1099 1105
f 1081 1105 1104
f 1082 1104 1102
f 1084 1106 1085
f 1085 1106 1108
f 1085 1108 1109
f 1085 1109 1110
f 1085 1110 1107
f 1086 1111 1087
f 1087 1111 1112
f 1087 1112 1113
f 1088 1114 1089
f 1089 1115 1116
f 1089 1116 1091
f 1089 1091 1090
f 1089 1114 1115
f 1091 1117 1118
f 1091 1118 1092
f 1091 1116 1115
f 1091 1115 1117
f 1092 1094 1093
f 1092 1118 1099
f 1092 1099 1097
f 1092 1097 1096
f 1092 1096 1095
f 1099 1118 1117
f 1099 1117 1105
f 1102 1115 1125
f 1102 1125 1119
f 1102 1119 1120
f 1102 1120 1121
f 1102 1121 1103
f 1102 1104 1122
f 1102 1122 1115
f 1104 1105 1117
f 1104 1117 1122
f 1107 1110 1112
f 1110 1123 1112
f 1112 1123 1113
f 1114 1124 1115
f 1115 1124 1125
f 1115 1122 1117
o convex_12
v -0.450436 -0.110466 -0.165719
v -0.475919 -0.0679906 -0.152961
v -0.458941 -0.0679906 -0.152961
v -0.374454 -0.0682568 -0.150874
v -0.374454 -0.0855098 -0.151908
v -0.374454 -0.134923 -0.151908
v -0.374454 -0.150346 -0.150339
v -0.492929 -0.135971 -0.152961
v -0.645857 -0.118968 -0.152961
v -0.662868 -0.101981 -0.152961
v -0.645857 -0.084994 -0.152961
v -0.475919 -0.0453304 -0.141624
v -0.450436 -0.0594888 -0.148714
v -0.374454 -0.0533496 -0.135974
v -0.458941 -0.0453304 -0.141624
v -0.374454 -0.167333 -0.133353
v -0.498577 -0.158631 -0.141624
v -0.651539 -0.141628 -0.141624
v -0.671373 -0.127469 -0.144468
v -0.660011 -0.116139 -0.150136
v -0.662868 -0.0828644 -0.148714
v -0.685526 -0.107638 -0.141624
v -0.674197 -0.0963241 -0.147292
v -0.645857 -0.0623338 -0.141624
v -0.501434 -0.0382428 -0.127463
v -0.645857 -0.0453304 -0.124638
v -0.374454 -0.0363628 -0.11897
v -0.441931 -0.0169968 -0.0849787
v -0.441931 -0.0340003 -0.11897
v -0.441931 -0.0396736 -0.130306
v -0.374454 -0.184336 -0.116348
v -0.4816 -0.175618 -0.124638
v -0.640209 -0.164288 -0.130306
v -0.645857 -0.152958 -0.135974
v -0.671373 -0.16146 -0.127463
v -0.679845 -0.135971 -0.135974
v -0.68835 -0.144473 -0.127463
v -0.682702 -0.121796 -0.138799
v -0.671373 -0.0807349 -0.144468
v -0.691174 -0.130298 -0.130306
v -0.702504 -0.107638 -0.124638
v -0.691174 -0.0793207 -0.130306
v -0.68835 -0.063748 -0.127463
v -0.671373 -0.0552463 -0.127463
v -0.484424 -0.021256 -0.0934719
v -0.475919 -0.0169968 -0.0849787
v -0.654363 -0.0382428 -0.110477
v -0.654363 -0.021256 -0.0764856
v -0.662868 -0.0446316 -0.11897
v -0.374454 -0.0193593 -0.0849787
v -0.441931 -0.0169968 -0.0679925
v -0.374454 -0.0183944 -0.0679925
v -0.374454 -0.185917 -0.100931
v -0.458941 -0.186965 -0.101965
v -0.475919 -0.186965 -0.101965
v -0.645857 -0.186965 -0.0849787
v -0.651539 -0.175618 -0.107633
v -0.645857 -0.169961 -0.11897
v -0.68835 -0.16146 -0.110477
v -0.682702 -0.155803 -0.121795
v -0.671373 -0.178463 -0.0934719
v -0.705361 -0.127469 -0.110477
v -0.713866 -0.101981 -0.101965
v -0.708185 -0.0963241 -0.113301
v -0.705361 -0.0807349 -0.110477
v -0.68835 -0.0552463 -0.110477
v -0.679845 -0.0446316 -0.101965
v -0.702504 -0.0623338 -0.0849787
v -0.692603 -0.042502 -0.0764856
v -0.492929 -0.0169968 -0.0679925
v -0.662868 -0.0276281 -0.0849787
v -0.68835 -0.0382428 -0.0764856
v -0.664994 -0.0382428 -0.0340015
v -0.645857 -0.0340003 -0.0340015
v -0.374454 -0.0183944 -0.0523909
v -0.374454 -0.185917 -0.0685279
v -0.42492 -0.186965 -0.0849787
v -0.645857 -0.186965 -0.0679925
v -0.660011 -0.18412 -0.0821354
v -0.691174 -0.164288 -0.0793105
v -0.696856 -0.152958 -0.0849787
v -0.702504 -0.141628 -0.090647
v -0.682702 -0.17279 -0.0878036
v -0.662868 -0.182706 -0.0658692
v -0.671373 -0.178463 -0.0637459
v -0.713866 -0.118968 -0.0849787
v -0.713866 -0.084994 -0.0849787
v -0.709613 -0.0828644 -0.101965
v -0.709613 -0.0764923 -0.0594993
v -0.703234 -0.0679906 -0.0510062
v -0.692603 -0.0594888 -0.0255083
v -0.685526 -0.0453304 -0.0510062
v -0.66712 -0.042502 -0.0255083
v -0.651539 -0.0396736 -0.022665
v -0.374454 -0.0353978 -0.0183999
v -0.374454 -0.184869 -0.0512647
v -0.441931 -0.186965 -0.0510062
v -0.42492 -0.186965 -0.0679925
v -0.662868 -0.169961 -0.0340015
v -0.475919 -0.186965 -0.0510062
v -0.475919 -0.152958 0.0228841
v -0.691174 -0.164288 -0.0623242
v -0.696856 -0.152958 -0.0679925
v -0.679845 -0.174204 -0.0701157
v -0.674197 -0.164288 -0.0283332
v -0.68835 -0.16146 -0.0467596
v -0.713866 -0.118968 -0.0679925
v -0.713866 -0.084994 -0.0679925
v -0.709613 -0.0934958 -0.0424946
v -0.703234 -0.084994 -0.0340015
v -0.702504 -0.101981 -0.0283332
v -0.685526 -0.101981 -0.0113469
v -0.691174 -0.0679906 -0.022665
v -0.664994 -0.084994 -0.00425702
v -0.685526 -0.0566605 -0.022665
v -0.651539 -0.0736639 -0.0056787
v -0.475919 -0.0679906 0.0228841
v -0.441931 -0.0679906 0.0228841
v -0.374454 -0.0524013 -0.00141367
v -0.374454 -0.167865 -0.0172737
v -0.441931 -0.152958 0.0228841
v -0.662868 -0.164288 -0.022665
v -0.671373 -0.16146 -0.0212618
v -0.487015 -0.147418 0.0228841
v -0.654363 -0.144473 -0.00425702
v -0.662868 -0.152958 -0.0106269
v -0.645857 -0.158631 -0.0113469
v -0.691174 -0.147301 -0.0283332
v -0.708185 -0.130298 -0.0623242
v -0.709613 -0.118968 -0.0488829
v -0.713866 -0.101981 -0.0510062
v -0.68835 -0.144473 -0.0212618
v -0.691174 -0.135971 -0.022665
v -0.685526 -0.118968 -0.0113469
v -0.671373 -0.127469 -0.00425702
v -0.662868 -0.101981 -1.04577e-05
v -0.645857 -0.084994 -1.04577e-05
v -0.66712 -0.0764923 -0.00850359
v -0.494657 -0.0773575 0.0228841
v -0.419737 -0.0790877 0.0228841
v -0.419272 -0.0793207 0.0228841
v -0.413591 -0.0906508 0.0228841
v -0.407943 -0.101981 0.0228841
v -0.374454 -0.0695711 -0.00106287
v -0.374454 -0.152958 -0.00237376
v -0.430602 -0.147301 0.0228841
v -0.498577 -0.141628 0.0228841
v -0.645857 -0.135971 -1.04577e-05
v -0.679845 -0.135971 -0.0106269
v -0.705361 -0.127469 -0.0467596
v -0.662868 -0.118968 -1.04577e-05
v -0.509906 -0.101981 0.0228841
v -0.504258 -0.0906508 0.0228841
v -0.502298 -0.0867243 0.0228841
v -0.498577 -0.0793207 0.0228841
v -0.413591 -0.113311 0.0228841
v -0.374454 -0.135971 -0.00106287
v -0.42492 -0.135971 0.0228841
v -0.504391 -0.130065 0.0228841
v -0.509906 -0.118968 0.0228841
f 1126 1127 1128
f 1126 1128 1129
f 1126 1129 1130
f 1126 1130 1131
f 1126 1131 1132
f 1126 1132 1133
f 1126 1133 1134
f 1126 1134 1135
f 1126 1135 1136
f 1126 1136 1127
f 1127 1137 1138
f 1127 1138 1128
f 1127 1136 1149
f 1127 1149 1137
f 1128 1138 1129
f 1129 1139 1152
f 1129 1152 1175
f 1129 1175 1177
f 1129 1177 1200
f 1129 1200 1220
f 1129 1220 1244
f 1129 1244 1269
f 1129 1269 1282
f 1129 1282 1270
f 1129 1270 1245
f 1129 1245 1221
f 1129 1221 1201
f 1129 1201 1178
f 1129 1178 1156
f 1129 1156 1141
f 1129 1141 1132
f 1129 1132 1131
f 1129 1131 1130
f 1129 1138 1140
f 1129 1140 1139
f 1132 1141 1142
f 1132 1142 1133
f 1133 1142 1143
f 1133 1143 1134
f 1134 1143 1144
f 1134 1144 1145
f 1134 1145 1135
f 1135 1146 1136
f 1135 1145 1144
f 1135 1144 1147
f 1135 1147 1148
f 1135 1148 1146
f 1136 1146 1149
f 1137 1150 1140
f 1137 1140 1138
f 1137 1149 1151
f 1137 1151 1150
f 1139 1140 1152
f 1140 1150 1153
f 1140 1153 1154
f 1140 1154 1155
f 1140 1155 1152
f 1141 1156 1142
f 1142 1156 1157
f 1142 1157 1158
f 1142 1158 1159
f 1142 1159 1143
f 1143 1159 1160
f 1143 1160 1144
f 1144 1160 1161
f 1144 1161 1162
f 1144 1162 1163
f 1144 1163 1147
f 1146 1148 1164
f 1146 1164 1149
f 1147 1163 1165
f 1147 1165 1166
f 1147 1166 1167
f 1147 1167 1148
f 1148 1167 1164
f 1149 1164 1168
f 1149 1168 1169
f 1149 1169 1151
f 1150 1170 1171
f 1150 1171 1153
f 1150 1151 1172
f 1150 1172 1173
f 1150 1173 1170
f 1151 1169 1174
f 1151 1174 1172
f 1152 1155 1154
f 1152 1154 1153
f 1152 1153 1175
f 1153 1171 1195
f 1153 1195 1176
f 1153 1176 1200
f 1153 1200 1177
f 1153 1177 1175
f 1156 1178 1179
f 1156 1179 1180
f 1156 1180 1157
f 1157 1180 1181
f 1157 1181 1182
f 1157 1182 1183
f 1157 1183 1158
f 1158 1183 1160
f 1158 1160 1159
f 1160 1184 1185
f 1160 1185 1162
f 1160 1162 1161
f 1160 1183 1182
f 1160 1182 1186
f 1160 1186 1184
f 1162 1185 1184
f 1162 1184 1187
f 1162 1187 1165
f 1162 1165 1163
f 1164 1167 1168
f 1165 1187 1166
f 1166 1187 1188
f 1166 1188 1189
f 1166 1189 1167
f 1167 1189 1190
f 1167 1190 1168
f 1168 1191 1192
f 1168 1192 1174
f 1168 1174 1169
f 1168 1190 1193
f 1168 1193 1194
f 1168 1194 1191
f 1170 1173 1171
f 1171 1173 1195
f 1172 1174 1196
f 1172 1196 1173
f 1173 1196 1197
f 1173 1197 1198
f 1173 1198 1199
f 1173 1199 1195
f 1174 1192 1196
f 1176 1195 1200
f 1178 1201 1223
f 1178 1223 1202
f 1178 1202 1179
f 1179 1202 1223
f 1179 1223 1222
f 1179 1222 1225
f 1179 1225 1203
f 1179 1203 1181
f 1179 1181 1180
f 1181 1203 1204
f 1181 1204 1186
f 1181 1186 1182
f 1184 1205 1206
f 1184 1206 1207
f 1184 1207 1187
f 1184 1186 1208
f 1184 1208 1205
f 1186 1204 1209
f 1186 1209 1210
f 1186 1210 1208
f 1187 1207 1211
f 1187 1211 1188
f 1188 1211 1232
f 1188 1232 1256
f 1188 1256 1233
f 1188 1233 1212
f 1188 1212 1213
f 1188 1213 1189
f 1189 1213 1190
f 1190 1213 1193
f 1191 1197 1192
f 1191 1194 1197
f 1192 1197 1196
f 1193 1213 1212
f 1193 1212 1194
f 1194 1212 1214
f 1194 1214 1215
f 1194 1215 1216
f 1194 1216 1197
f 1195 1199 1200
f 1197 1216 1217
f 1197 1217 1218
f 1197 1218 1198
f 1198 1218 1219
f 1198 1219 1199
f 1199 1219 1200
f 1200 1219 1220
f 1201 1221 1222
f 1201 1222 1223
f 1203 1224 1209
f 1203 1209 1204
f 1203 1225 1226
f 1203 1226 1224
f 1205 1208 1227
f 1205 1227 1228
f 1205 1228 1206
f 1206 1228 1232
f 1206 1232 1211
f 1206 1211 1207
f 1208 1229 1227
f 1208 1210 1229
f 1209 1224 1230
f 1209 1230 1210
f 1210 1230 1231
f 1210 1231 1227
f 1210 1227 1229
f 1212 1233 1214
f 1214 1233 1234
f 1214 1234 1216
f 1214 1216 1215
f 1216 1234 1235
f 1216 1235 1236
f 1216 1236 1237
f 1216 1237 1238
f 1216 1238 1239
f 1216 1239 1240
f 1216 1240 1218
f 1216 1218 1217
f 1218 1240 1219
f 1219 1240 1241
f 1219 1241 1242
f 1219 1242 1220
f 1220 1242 1243
f 1220 1243 1244
f 1221 1245 1246
f 1221 1246 1222
f 1222 1246 1226
f 1222 1226 1225
f 1224 1247 1248
f 1224 1248 1230
f 1224 1226 1247
f 1226 1246 1271
f 1226 1271 1283
f 1226 1283 1281
f 1226 1281 1268
f 1226 1268 1267
f 1226 1267 1266
f 1226 1266 1265
f 1226 1265 1243
f 1226 1243 1242
f 1226 1242 1264
f 1226 1264 1280
f 1226 1280 1279
f 1226 1279 1278
f 1226 1278 1277
f 1226 1277 1285
f 1226 1285 1284
f 1226 1284 1272
f 1226 1272 1249
f 1226 1249 1250
f 1226 1250 1251
f 1226 1251 1252
f 1226 1252 1247
f 1227 1253 1254
f 1227 1254 1232
f 1227 1232 1228
f 1227 1231 1253
f 1230 1253 1231
f 1230 1248 1257
f 1230 1257 1253
f 1232 1254 1255
f 1232 1255 1256
f 1233 1256 1234
f 1234 1256 1236
f 1234 1236 1235
f 1236 1256 1255
f 1236 1255 1257
f 1236 1257 1258
f 1236 1258 1259
f 1236 1259 1237
f 1237 1259 1260
f 1237 1260 1261
f 1237 1261 1239
f 1237 1239 1238
f 1239 1261 1262
f 1239 1262 1241
f 1239 1241 1263
f 1239 1263 1240
f 1240 1263 1241
f 1241 1262 1242
f 1242 1262 1264
f 1243 1265 1244
f 1244 1265 1266
f 1244 1266 1267
f 1244 1267 1268
f 1244 1268 1269
f 1245 1270 1246
f 1246 1270 1271
f 1247 1252 1248
f 1248 1252 1251
f 1248 1251 1274
f 1248 1274 1257
f 1249 1272 1250
f 1250 1273 1276
f 1250 1276 1260
f 1250 1260 1251
f 1250 1272 1273
f 1251 1260 1274
f 1253 1257 1255
f 1253 1255 1275
f 1253 1275 1254
f 1254 1275 1255
f 1257 1274 1259
f 1257 1259 1258
f 1259 1274 1260
f 1260 1276 1261
f 1261 1276 1285
f 1261 1285 1277
f 1261 1277 1278
f 1261 1278 1279
f 1261 1279 1280
f 1261 1280 1262
f 1262 1280 1264
f 1268 1281 1270
f 1268 1270 1282
f 1268 1282 1269
f 1270 1281 1283
f 1270 1283 1271
f 1272 1284 1276
f 1272 1276 1273
f 1276 1284 1285
o convex_13
v -0.407933 -0.101986 0.289671
v -0.408293 -0.101262 0.289671
v -0.419014 -0.124155 0.289671
v -0.411627 -0.109381 0.0229025
v -0.407933 -0.101986 0.0229025
v -0.413593 -0.0906558 0.289671
v -0.410878 -0.0960796 0.0229025
v -0.424924 -0.135968 0.289671
v -0.424924 -0.135968 0.0229025
v -0.417287 -0.120703 0.0229025
v -0.416788 -0.084267 0.289671
v -0.419024 -0.0797998 0.0229025
v -0.430594 -0.147298 0.289671
v -0.430594 -0.147298 0.0229025
v -0.419264 -0.0793257 0.289671
v -0.419264 -0.0793257 0.0229025
v -0.441435 -0.152722 0.289671
v -0.437981 -0.151 0.0229025
v -0.441924 -0.0679873 0.289671
v -0.419743 -0.0790844 0.0229025
v -0.436014 -0.0709404 0.0229025
v -0.441924 -0.152963 0.289671
v -0.441924 -0.152963 0.0229025
v -0.475904 -0.0679873 0.289671
v -0.441924 -0.0679873 0.0229025
v -0.475904 -0.152963 0.289671
v -0.475904 -0.152963 0.0229025
v -0.498085 -0.0790844 0.289671
v -0.475904 -0.0679873 0.0229025
v -0.494631 -0.0773541 0.0229025
v -0.498564 -0.141633 0.289671
v -0.487713 -0.147065 0.0229025
v -0.498564 -0.0793257 0.289671
v -0.498564 -0.0793257 0.0229025
v -0.501769 -0.135244 0.289671
v -0.498564 -0.141633 0.0229025
v -0.503995 -0.0901733 0.289671
v -0.502268 -0.0867127 0.0229025
v -0.509904 -0.118973 0.289671
v -0.509904 -0.118973 0.0229025
v -0.503995 -0.130785 0.0229025
v -0.509904 -0.101986 0.289671
v -0.509904 -0.101986 0.0229025
f 1286 1287 1291
f 1286 1291 1296
f 1286 1296 1300
f 1286 1300 1304
f 1286 1304 1309
f 1286 1309 1313
f 1286 1313 1318
f 1286 1318 1322
f 1286 1322 1327
f 1286 1327 1324
f 1286 1324 1320
f 1286 1320 1316
f 1286 1316 1311
f 1286 1311 1307
f 1286 1307 1302
f 1286 1302 1298
f 1286 1298 1293
f 1286 1293 1288
f 1286 1288 1289
f 1286 1289 1290
f 1286 1290 1287
f 1287 1290 1292
f 1287 1292 1291
f 1288 1293 1294
f 1288 1294 1295
f 1288 1295 1289
f 1289 1295 1294
f 1289 1294 1299
f 1289 1299 1303
f 1289 1303 1308
f 1289 1308 1312
f 1289 1312 1317
f 1289 1317 1321
f 1289 1321 1326
f 1289 1326 1325
f 1289 1325 1328
f 1289 1328 1323
f 1289 1323 1319
f 1289 1319 1315
f 1289 1315 1314
f 1289 1314 1310
f 1289 1310 1306
f 1289 1306 1305
f 1289 1305 1301
f 1289 1301 1297
f 1289 1297 1292
f 1289 1292 1290
f 1291 1292 1296
f 1292 1297 1296
f 1293 1298 1299
f 1293 1299 1294
f 1296 1297 1300
f 1297 1301 1300
f 1298 1302 1303
f 1298 1303 1299
f 1300 1301 1305
f 1300 1305 1306
f 1300 1306 1304
f 1302 1307 1308
f 1302 1308 1303
f 1304 1306 1310
f 1304 1310 1314
f 1304 1314 1309
f 1307 1311 1312
f 1307 1312 1308
f 1309 1314 1315
f 1309 1315 1313
f 1311 1316 1317
f 1311 1317 1312
f 1313 1315 1319
f 1313 1319 1318
f 1316 1320 1321
f 1316 1321 1317
f 1318 1319 1323
f 1318 1323 1322
f 1320 1324 1325
f 1320 1325 1326
f 1320 1326 1321
f 1322 1323 1327
f 1323 1328 1327
f 1324 1327 1328
f 1324 1328 1325
