# https://github.com/mikedh/trimesh
v -0.31457300 -0.06292880 0.02097280
v -0.31457300 -0.04195620 0.04195140
v -0.31457300 -0.04195620 0.02097280
v -0.30058800 -0.06991960 -0.00698991
v -0.29648400 -0.07809570 -0.01515570
v -0.29359500 -0.16776700 -0.01515570
v -0.29359500 -0.23068500 0.00000740
v -0.28247900 -0.27529100 0.03928260
v -0.30758000 -0.04195620 0.05591950
v -0.31457300 -0.02816810 0.04195140
v -0.31457300 -0.02816810 0.03475490
v -0.31151000 -0.02816810 0.02097280
v -0.30758000 -0.03496540 0.00699142
v -0.30058800 -0.04894710 -0.00698991
v -0.29648400 -0.04485900 -0.01515570
v -0.28600500 -0.22487900 -0.01515570
v -0.27450400 -0.27526600 -0.01515570
v -0.28236400 -0.27529100 0.01270080
v -0.28444400 -0.27529100 0.02097280
v -0.28126600 -0.27529100 0.04106180
v -0.26543100 -0.02816810 0.09877960
v -0.29839100 -0.02816810 0.06567850
v -0.30758000 -0.02816810 0.05591950
v -0.24466400 -0.25165700 0.09786350
v -0.23067900 -0.25165700 0.11272100
v -0.30829300 -0.02816810 0.01271410
v -0.29504000 -0.02816810 -0.01515570
v -0.26733800 -0.27529100 -0.01515570
v -0.27785600 -0.27529100 -0.00003244
v -0.27793300 -0.27529100 0.00016673
v -0.27949300 -0.27529100 0.04294720
v -0.24115800 -0.26213100 0.09960280
v -0.23379900 -0.06604920 0.12046200
v -0.23206600 -0.04323830 0.12046200
v -0.22863700 -0.03172400 0.12046200
v -0.22757700 -0.02816810 0.12046200
v -0.22214500 -0.23068500 0.12046200
v -0.23067900 -0.26563900 0.09786350
v -0.20971900 -0.25951900 0.10484800
v -0.20480700 -0.24321500 0.12046200
v -0.20971900 -0.24311800 0.12046200
v -0.22033400 -0.24130400 0.12046200
v -0.22938800 -0.02816810 -0.01515570
v -0.11777200 -0.27529100 -0.01515570
v -0.25431500 -0.27529100 0.06744440
v -0.14225700 -0.02816810 0.12046200
v -0.22019900 -0.26738100 0.09437140
v -0.23067900 -0.27263000 0.08388210
v -0.19411500 -0.24256200 0.12046200
v -0.11777200 -0.27529100 0.07145430
v -0.11777200 -0.03414290 0.12046200
v -0.11777200 -0.03496540 0.11882900
v -0.11777200 -0.04248840 0.10860500
v -0.11777200 -0.07260470 0.06855980
v -0.11777200 -0.07584610 0.06512090
v -0.11777200 -0.16486400 -0.01515570
v -0.22934900 -0.27529100 0.07368490
v -0.16916900 -0.22676600 0.12046200
v -0.11777200 -0.18636900 0.12046200
f 33 41 40
f 33 40 49
f 33 42 41
f 33 37 42
f 31 45 32
f 25 42 37
f 50 59 58
f 25 41 42
f 25 40 41
f 25 39 40
f 25 38 39
f 32 45 38
f 21 33 34
f 24 32 25
f 21 37 33
f 21 25 37
f 21 35 36
f 21 34 35
f 20 32 24
f 20 31 32
f 17 30 18
f 17 29 30
f 17 28 29
f 33 49 58
f 13 15 14
f 25 32 38
f 33 58 59
f 43 55 56
f 33 51 46
f 13 27 15
f 49 50 58
f 48 57 50
f 47 48 50
f 45 57 48
f 44 59 50
f 44 51 59
f 44 52 51
f 44 53 52
f 44 54 53
f 44 55 54
f 44 56 55
f 33 59 51
f 43 54 55
f 43 52 53
f 43 51 52
f 43 46 51
f 39 50 49
f 39 47 50
f 39 49 40
f 38 48 47
f 38 45 48
f 38 47 39
f 33 35 34
f 33 36 35
f 33 46 36
f 43 53 54
f 13 26 27
f 8 50 57
f 10 12 11
f 5 17 16
f 5 28 17
f 5 44 28
f 5 56 44
f 5 43 56
f 5 27 43
f 4 15 5
f 4 14 15
f 3 12 13
f 3 11 12
f 2 8 9
f 2 23 10
f 2 9 23
f 1 8 2
f 1 7 8
f 1 6 7
f 1 5 6
f 1 4 5
f 1 14 4
f 1 13 14
f 1 3 13
f 1 11 3
f 1 10 11
f 1 2 10
f 12 26 13
f 5 16 6
f 6 16 7
f 5 15 27
f 7 17 18
f 10 26 12
f 10 27 26
f 10 43 27
f 10 46 43
f 7 16 17
f 10 21 36
f 10 22 21
f 10 23 22
f 9 25 21
f 9 24 25
f 9 20 24
f 9 22 23
f 9 21 22
f 10 36 46
f 8 31 20
f 8 20 9
f 7 18 19
f 7 19 8
f 8 18 30
f 8 30 29
f 8 19 18
f 8 28 44
f 8 44 50
f 8 57 45
f 8 45 31
f 8 29 28

