# https://github.com/mikedh/trimesh
v -0.31457300 -0.12585000 0.18874300
v -0.30058800 -0.15378600 0.18175200
v -0.30758000 -0.13980700 0.19573300
v -0.30758000 -0.12585000 0.20272400
v -0.30931400 -0.11534500 0.19922900
v -0.31457300 -0.08389290 0.16778100
v -0.31457300 -0.10486100 0.16778100
v -0.31106700 -0.12233400 0.17127700
v -0.28660200 -0.16077500 0.19573300
v -0.30058800 -0.13283900 0.16079100
v -0.22033400 -0.24132000 0.12048600
v -0.30407400 -0.13631300 0.20447200
v -0.27261600 -0.16252200 0.21233600
v -0.26213700 -0.15728000 0.22544400
v -0.25165700 -0.14679700 0.23068700
v -0.29359500 -0.12585000 0.20971500
v -0.29621500 -0.10486100 0.20447200
v -0.29883500 -0.09437690 0.19922900
v -0.30931400 -0.07340900 0.17825700
v -0.30758000 -0.06991430 0.16778100
v -0.30758000 -0.07690360 0.15380000
v -0.30758000 -0.09787150 0.15380000
v -0.22214500 -0.23066800 0.12048600
v -0.20971900 -0.24311000 0.12048600
v -0.17826100 -0.22542600 0.15729500
v -0.29708200 -0.08738760 0.14331400
v -0.25165700 -0.16077500 0.22369600
v -0.16778200 -0.14679700 0.23068700
v -0.11777200 -0.08389290 0.22422500
v -0.11777200 -0.08176670 0.22369600
v -0.11777200 -0.07229320 0.22132300
v -0.11777200 -0.02816810 0.20913200
v -0.25863100 -0.13283900 0.22369600
v -0.13302900 -0.02816810 0.20611200
v -0.30058800 -0.06991430 0.18175200
v -0.29359500 -0.06292510 0.16778100
v -0.22863700 -0.02816810 0.15849300
v -0.30407400 -0.06816700 0.15729500
v -0.27261600 -0.06029350 0.13108000
v -0.28311500 -0.06816700 0.13632300
v -0.28311500 -0.07340900 0.13632300
v -0.23379900 -0.06604080 0.12048600
v -0.20480700 -0.24321500 0.12048600
v -0.19411500 -0.24256200 0.12048600
v -0.15730200 -0.22542600 0.13632300
v -0.13632400 -0.20445800 0.17825700
v -0.12584400 -0.19660600 0.18874300
v -0.20971900 -0.17561700 0.20971500
v -0.16778200 -0.16077500 0.22369600
v -0.11777200 -0.17717500 0.20620900
v -0.11777200 -0.16856400 0.21051300
v -0.11777200 -0.15568100 0.21373900
v -0.11777200 -0.09681890 0.22362100
v -0.11777200 -0.08709280 0.22422500
v -0.11777200 -0.02816810 0.13241800
v -0.17587200 -0.02816810 0.19210900
v -0.21792600 -0.02816810 0.16583900
v -0.22757700 -0.02816810 0.12048600
v -0.22863700 -0.03172590 0.12048600
v -0.23206600 -0.04324140 0.12048600
v -0.16916900 -0.22677300 0.12048600
v -0.11885100 -0.19572200 0.16778100
v -0.11777200 -0.18637400 0.12048600
v -0.11777200 -0.18652200 0.19679100
v -0.12584400 -0.18174300 0.20272400
v -0.14680300 -0.18873200 0.19660700
v -0.11777200 -0.03227320 0.12421900
v -0.14225700 -0.02816810 0.12048600
v -0.11777200 -0.19374300 0.16729600
v -0.11777200 -0.19359500 0.17097500
v -0.11777200 -0.03414690 0.12048600
f 29 32 31
f 29 54 53
f 29 53 52
f 29 52 51
f 29 51 50
f 29 50 64
f 29 63 71
f 29 70 69
f 29 69 63
f 29 71 67
f 29 67 55
f 28 54 29
f 29 55 32
f 29 64 70
f 28 53 54
f 25 45 46
f 28 51 52
f 23 26 41
f 29 31 30
f 23 41 39
f 23 39 42
f 24 43 25
f 25 43 44
f 28 52 53
f 25 44 45
f 25 47 48
f 25 48 27
f 26 40 41
f 27 48 49
f 28 49 50
f 28 50 51
f 25 46 47
f 32 55 68
f 47 62 64
f 32 58 37
f 45 63 62
f 47 64 50
f 47 50 65
f 47 65 49
f 47 49 66
f 47 66 48
f 45 61 63
f 48 66 49
f 55 67 68
f 62 69 70
f 62 70 64
f 62 63 69
f 67 71 68
f 21 26 22
f 49 65 50
f 32 68 58
f 45 47 46
f 44 61 45
f 32 37 57
f 32 57 56
f 32 56 34
f 32 34 33
f 34 56 35
f 35 56 57
f 45 62 47
f 35 57 37
f 37 58 38
f 38 58 39
f 39 58 59
f 39 59 60
f 39 60 42
f 39 41 40
f 35 37 36
f 21 40 26
f 15 30 31
f 21 38 39
f 11 23 42
f 10 22 11
f 9 11 13
f 7 10 8
f 7 22 10
f 6 22 7
f 6 21 22
f 6 20 21
f 6 19 20
f 5 19 6
f 5 18 19
f 5 17 18
f 4 17 5
f 4 16 17
f 4 15 16
f 4 14 15
f 4 12 14
f 1 2 3
f 1 3 4
f 1 4 5
f 1 5 6
f 1 6 7
f 21 39 40
f 11 42 60
f 1 8 2
f 2 8 10
f 2 10 11
f 2 11 9
f 3 12 4
f 3 9 13
f 3 13 12
f 2 9 3
f 11 60 59
f 1 7 8
f 11 58 68
f 11 59 58
f 20 38 21
f 20 37 38
f 20 36 37
f 19 35 20
f 18 34 35
f 18 35 19
f 17 33 34
f 17 34 18
f 15 17 16
f 15 33 17
f 15 32 33
f 15 31 32
f 15 29 30
f 15 28 29
f 20 35 36
f 14 49 28
f 14 28 15
f 11 71 63
f 11 63 61
f 11 44 43
f 11 43 24
f 11 24 25
f 11 25 14
f 11 61 44
f 11 22 26
f 14 27 49
f 11 14 13
f 14 25 27
f 11 68 71
f 12 13 14
f 11 26 23

