# https://github.com/mikedh/trimesh
v -0.33773600 -0.12743100 -0.11782100
v -0.33153700 -0.01295970 -0.11782100
v -0.27911300 -0.12743100 -0.11782100
v -0.29359900 -0.12743100 -0.01516890
v -0.29649400 -0.07807960 -0.01516890
v -0.29649400 0.10194200 -0.01516890
v -0.29505200 0.12508400 -0.01516890
v -0.29359900 0.14747200 -0.01516890
v -0.31056100 0.13382900 -0.11782100
v -0.25219500 -0.12743100 -0.06398280
v -0.27854200 -0.12428200 -0.11782100
v -0.26564800 -0.08386500 -0.11184200
v -0.26476600 -0.10485400 -0.10484900
v -0.23234900 -0.12743100 -0.01516890
v -0.23069200 0.14747200 -0.01516890
v -0.30436200 0.14747200 -0.11782100
v -0.30470600 0.14679900 -0.11782100
v -0.30871000 0.13878100 -0.11782100
v -0.25166800 -0.12743100 -0.06291770
v -0.24517800 0.11133300 -0.11782100
v -0.25690900 -0.09435960 -0.09436850
v -0.25166800 -0.08386500 -0.08387820
v -0.22779600 -0.04194070 -0.01516890
v -0.23069200 0.14747200 -0.02097680
v -0.24517800 0.14747200 -0.11782100
f 8 18 9
f 8 17 18
f 8 16 17
f 4 7 6
f 8 24 25
f 8 15 24
f 4 6 5
f 10 13 19
f 8 25 16
f 11 20 12
f 14 22 20
f 12 20 21
f 14 19 21
f 14 21 22
f 14 20 23
f 15 23 24
f 20 25 23
f 20 22 21
f 23 25 24
f 4 8 7
f 12 21 13
f 4 15 8
f 13 21 19
f 4 14 23
f 4 23 15
f 1 2 9
f 1 9 18
f 1 18 17
f 1 17 16
f 1 16 25
f 1 20 11
f 1 11 3
f 1 3 10
f 1 10 19
f 1 25 20
f 1 14 4
f 1 4 5
f 1 5 6
f 1 6 2
f 2 6 7
f 2 7 8
f 2 8 9
f 3 11 12
f 3 12 13
f 1 19 14
f 3 13 10

