# https://github.com/mikedh/trimesh
v 0.00096962 0.14755200 -0.29360000
v 0.16775300 0.14755200 -0.29360000
v 0.00096962 0.14755200 -0.16778200
v 0.00096962 0.58719900 -0.30110200
v 0.20971400 0.46144900 -0.29360000
v 0.16820500 0.14755200 -0.29337800
v 0.14679800 0.14755200 -0.12584200
v 0.00096962 0.87725800 -0.11187500
v 0.00096962 0.58815900 -0.30110200
v 0.22367500 0.46144900 -0.28659800
v 0.18174000 0.14755200 -0.28659800
v 0.20971400 0.75494700 -0.29360000
v 0.22019100 0.76542600 -0.28835800
v 0.23766200 0.58719900 -0.27961400
v 0.19570000 0.14755200 -0.11187500
v 0.00096962 0.94365300 -0.11187500
v 0.00096962 0.92269400 -0.29322900
v 0.08390900 0.90173600 -0.29360000
v 0.12584400 0.88077700 -0.29360000
v 0.16775300 0.83886100 -0.29360000
v 0.18873300 0.81782200 -0.29360000
v 0.22543000 0.45088900 -0.28311500
v 0.19567400 0.14755200 -0.27929900
v 0.19921000 0.82830100 -0.28835800
v 0.22019100 0.78638400 -0.27787300
v 0.22543000 0.77590500 -0.27524200
v 0.22367500 0.75494700 -0.28659800
v 0.23766200 0.65007500 -0.27961400
v 0.24641100 0.57664000 -0.26212700
v 0.25864300 0.14755200 -0.11187500
v 0.08390900 0.94365300 -0.11187500
v 0.00096962 0.96461100 -0.16778200
v 0.00096962 0.92365400 -0.29310000
v 0.01048940 0.93317400 -0.28835800
v 0.09438620 0.91221500 -0.28835800
v 0.13632100 0.89125700 -0.28835800
v 0.17825600 0.84934000 -0.28835800
v 0.24641100 0.45088900 -0.24115700
v 0.21692100 0.14755200 -0.23723000
v 0.20992700 0.14755200 -0.25119700
v 0.19594000 0.14755200 -0.27883600
v 0.20272100 0.83182100 -0.27961400
v 0.24641100 0.79686400 -0.21233300
v 0.24641100 0.75494700 -0.23330300
v 0.23066800 0.75494700 -0.27261200
v 0.25164900 0.65007500 -0.25164200
v 0.25164900 0.58719900 -0.25164200
v 0.26912000 0.32857900 -0.11187500
v 0.23066800 0.14755200 -0.20970300
v 0.27263000 0.52432400 -0.18875100
v 0.27263000 0.48240700 -0.16778200
v 0.10837300 0.94717200 -0.14331100
v 0.09090260 0.95069200 -0.13982800
v 0.07691540 0.95765200 -0.15379600
v 0.06292820 0.96461100 -0.16778200
v 0.11464900 0.93253400 -0.11187500
v 0.00096962 0.96461100 -0.20970300
v 0.00096962 0.93637300 -0.28676400
v 0.02099310 0.93845300 -0.27524200
v 0.10486300 0.91749500 -0.27524200
v 0.11536700 0.91221500 -0.27787300
v 0.13980500 0.89477600 -0.27961400
v 0.17825600 0.89125700 -0.23591500
v 0.19921000 0.87029800 -0.23591500
v 0.25164900 0.46144900 -0.23067200
v 0.22391400 0.14755200 -0.22324400
v 0.22019100 0.84934000 -0.21494500
v 0.24117200 0.80734300 -0.21494500
v 0.24465600 0.81086300 -0.19573500
v 0.25164900 0.79686400 -0.18875100
v 0.25164900 0.77590500 -0.20970300
v 0.25164900 0.73398800 -0.23067200
v 0.27263000 0.69199200 -0.18875100
v 0.27263000 0.44041000 -0.12584200
v 0.27263000 0.44041000 -0.11187500
v 0.13632100 0.93317400 -0.13632700
v 0.15376500 0.92973400 -0.16079800
v 0.12584400 0.94365300 -0.16778200
v 0.09438620 0.95413200 -0.15729700
v 0.08390900 0.95941200 -0.17041200
v 0.06292820 0.96461100 -0.18875100
v 0.18176600 0.89477600 -0.11187500
v 0.02099310 0.96461100 -0.20970300
v 0.00096962 0.94341300 -0.27274100
v 0.00096962 0.93677300 -0.28607900
v 0.04194740 0.95941200 -0.21233300
v 0.06292820 0.93845300 -0.25427200
v 0.12584400 0.93845300 -0.21233300
v 0.13632100 0.91221500 -0.25688400
v 0.13632100 0.93317400 -0.21494500
v 0.18174000 0.89477600 -0.21670500
v 0.19572700 0.88773700 -0.20273700
v 0.20272100 0.87373800 -0.21670500
v 0.22367500 0.85278000 -0.19573500
v 0.24117200 0.82830100 -0.17302400
v 0.24641100 0.81782200 -0.17041200
v 0.24813900 0.81438200 -0.15031300
v 0.27263000 0.71303000 -0.16778200
v 0.27263000 0.62911600 -0.11187500
v 0.15376500 0.92973400 -0.18176800
v 0.19431800 0.88637700 -0.11187500
v 0.19572700 0.88773700 -0.11884000
v 0.21668100 0.86677800 -0.16079800
v 0.12584400 0.94365300 -0.18875100
v 0.13980500 0.93669300 -0.19573500
v 0.21668100 0.86677800 -0.18176800
v 0.23590700 0.83886100 -0.16515100
v 0.25164900 0.79686400 -0.11187500
v 0.24117200 0.82830100 -0.13632700
v 0.23766200 0.82486200 -0.11187500
f 1 2 6
f 50 74 51
f 52 56 76
f 52 76 77
f 52 77 78
f 52 78 79
f 52 79 55
f 52 55 54
f 52 54 53
f 55 80 81
f 55 79 80
f 56 82 76
f 57 83 84
f 58 85 59
f 59 85 84
f 59 84 83
f 59 83 86
f 59 86 87
f 59 87 60
f 60 87 88
f 60 88 61
f 61 89 62
f 61 88 90
f 61 90 89
f 50 75 74
f 62 89 63
f 50 99 75
f 50 73 98
f 36 61 62
f 36 62 37
f 37 62 63
f 37 63 64
f 37 64 42
f 38 65 49
f 38 49 66
f 42 67 68
f 42 68 43
f 42 64 67
f 43 68 69
f 43 69 70
f 43 70 71
f 43 71 72
f 43 72 44
f 45 72 46
f 46 72 73
f 46 73 50
f 46 50 47
f 47 50 65
f 48 51 74
f 48 74 75
f 49 65 50
f 50 98 99
f 63 91 92
f 63 92 64
f 63 89 90
f 81 88 87
f 81 87 86
f 88 105 90
f 88 104 105
f 91 105 100
f 91 100 92
f 92 100 106
f 92 106 94
f 92 94 93
f 94 106 107
f 94 107 95
f 95 107 96
f 96 107 97
f 97 108 98
f 97 107 109
f 97 109 108
f 98 108 99
f 101 110 102
f 102 110 109
f 102 109 103
f 103 109 107
f 103 107 106
f 108 109 110
f 81 104 88
f 81 86 83
f 80 104 81
f 78 80 79
f 63 90 105
f 63 105 91
f 64 92 93
f 64 93 67
f 67 94 69
f 67 69 68
f 67 93 94
f 69 94 95
f 69 95 96
f 70 96 97
f 70 97 98
f 35 59 60
f 70 98 71
f 71 73 72
f 76 82 77
f 77 100 105
f 77 105 104
f 77 104 78
f 77 82 101
f 77 101 102
f 77 102 103
f 77 103 106
f 77 106 100
f 78 104 80
f 71 98 73
f 35 61 36
f 69 96 70
f 34 59 35
f 4 12 5
f 5 10 11
f 5 11 6
f 5 12 13
f 5 13 14
f 5 14 10
f 7 15 8
f 8 15 30
f 8 30 48
f 8 48 75
f 8 75 99
f 8 99 108
f 8 108 110
f 8 110 101
f 8 101 82
f 8 82 56
f 8 56 31
f 8 31 16
f 9 17 18
f 9 18 19
f 9 19 20
f 9 20 21
f 9 21 12
f 4 9 12
f 10 22 23
f 3 7 8
f 2 5 6
f 35 60 61
f 1 6 11
f 1 11 23
f 1 23 41
f 1 41 40
f 1 40 39
f 1 39 66
f 1 66 49
f 1 49 30
f 1 30 15
f 1 15 7
f 1 7 3
f 1 3 8
f 1 8 16
f 1 16 32
f 1 32 57
f 1 57 84
f 1 84 85
f 1 85 58
f 1 58 33
f 1 33 17
f 1 17 9
f 1 4 2
f 2 4 5
f 10 23 11
f 1 9 4
f 12 21 24
f 25 42 26
f 26 42 43
f 26 43 44
f 26 44 72
f 26 72 45
f 26 45 27
f 27 45 46
f 27 46 28
f 28 46 29
f 29 46 47
f 29 47 65
f 24 42 25
f 30 49 50
f 30 51 48
f 31 52 53
f 31 53 54
f 31 54 55
f 31 56 52
f 32 55 81
f 32 81 83
f 32 83 57
f 33 58 34
f 10 14 22
f 34 58 59
f 30 50 51
f 24 37 42
f 29 65 38
f 22 41 23
f 13 24 25
f 22 29 38
f 13 25 26
f 13 26 27
f 13 27 28
f 13 28 14
f 14 28 29
f 12 24 13
f 16 31 55
f 16 55 32
f 17 33 18
f 18 33 34
f 14 29 22
f 18 34 35
f 22 39 40
f 22 66 39
f 21 37 24
f 20 37 21
f 22 38 66
f 19 36 37
f 18 36 19
f 18 35 36
f 19 37 20
f 22 40 41

