# https://github.com/mikedh/trimesh
v 0.18875800 0.63438500 0.21088000
v 0.20971700 0.62914300 0.20971100
v 0.20866800 0.63438500 0.20863700
v 0.16778400 0.63438500 0.20740500
v 0.18875800 0.60817100 0.20971100
v 0.20971700 0.56622900 0.20971100
v 0.22371000 0.62213600 0.20269800
v 0.21496100 0.63438500 0.20446700
v 0.23767200 0.59415900 0.19571600
v 0.16254000 0.63438500 0.20314000
v 0.17827100 0.59768600 0.20446700
v 0.19923000 0.55574300 0.20446700
v 0.22371000 0.55922300 0.20269800
v 0.23767200 0.57318800 0.19571600
v 0.27262400 0.20971900 0.14678100
v 0.27262400 0.37748800 0.16775800
v 0.28660200 0.37052900 0.16077600
v 0.22546300 0.63438500 0.19397800
v 0.22125300 0.63438500 0.20026500
v 0.27960500 0.53124500 0.15376300
v 0.25864700 0.61513000 0.15376300
v 0.23419800 0.61165100 0.19220900
v 0.28660200 0.39145300 0.16077600
v 0.15729700 0.63438500 0.19726400
v 0.25864700 0.14747200 0.11882300
v 0.26213700 0.19923300 0.14153700
v 0.27262400 0.14747200 0.12580500
v 0.29359900 0.14747200 0.12580500
v 0.28660200 0.20276000 0.13979900
v 0.30058000 0.21672500 0.13281800
v 0.31422900 0.14747200 0.10552300
v 0.25479600 0.63438500 0.14994000
v 0.29359900 0.52428700 0.12580500
v 0.29359900 0.39845900 0.14678100
v 0.15468300 0.63438500 0.19397800
v 0.25186900 0.14747200 0.10530200
v 0.25908500 0.14747200 0.11904400
v 0.29427200 0.14747200 0.12548900
v 0.30757700 0.14747200 0.11882300
v 0.31457300 0.14747200 0.10482800
v 0.31457300 0.31457500 0.10482800
v 0.26213700 0.61865700 0.13629300
v 0.27157600 0.63438500 0.01994240
v 0.29359900 0.56622900 -0.02096820
v 0.26738100 0.60817100 0.12318200
v 0.15468300 0.63438500 0.15202500
v 0.19572400 0.14747200 -0.11185600
v 0.23591900 0.16777600 0.06552850
v 0.25165000 0.14747200 0.10482800
v 0.31457300 0.14747200 0.00000833
v 0.31457300 0.31457500 0.08388300
v 0.27262400 0.63438500 0.00000833
v 0.27262400 0.62914300 -0.11185600
v 0.27157600 0.63438500 -0.11185600
v 0.27262400 0.63438500 -0.07862220
v 0.31457300 0.29360300 0.02098490
v 0.29359900 0.52428700 -0.04191320
v 0.15991100 0.63438500 0.11793800
v 0.19572400 0.41938300 -0.11185600
v 0.25863100 0.14747200 -0.11185600
v 0.31457300 0.18874700 0.00000833
v 0.26586300 0.14747200 -0.09741900
v 0.26911800 0.32858700 -0.11185600
v 0.27262400 0.33554600 -0.10484300
v 0.27262400 0.44040200 -0.11185600
v 0.22720100 0.63438500 -0.11185600
v 0.21671400 0.63438500 -0.11182500
v 0.21669800 0.62909500 -0.11185600
f 33 43 45
f 33 44 43
f 35 49 36
f 32 42 43
f 31 41 34
f 32 33 42
f 33 45 42
f 35 47 48
f 33 41 44
f 35 46 47
f 35 48 49
f 40 50 61
f 31 40 41
f 33 34 41
f 30 39 31
f 25 40 31
f 29 38 39
f 28 38 29
f 26 37 27
f 25 35 36
f 25 37 26
f 25 27 37
f 25 28 27
f 25 38 28
f 25 39 38
f 25 31 39
f 25 50 40
f 25 62 50
f 40 61 56
f 25 60 62
f 29 39 30
f 40 56 51
f 56 61 57
f 41 51 44
f 25 47 60
f 66 68 67
f 63 65 64
f 60 63 62
f 59 67 68
f 58 67 59
f 53 57 61
f 50 53 61
f 50 65 53
f 50 64 65
f 50 63 64
f 50 62 63
f 47 58 59
f 47 49 48
f 40 51 41
f 47 63 60
f 47 53 65
f 47 54 53
f 47 66 54
f 47 68 66
f 47 59 68
f 46 58 47
f 44 57 53
f 44 56 57
f 44 51 56
f 44 55 52
f 44 54 55
f 44 53 54
f 43 44 52
f 42 45 43
f 47 65 63
f 25 49 47
f 17 30 31
f 24 35 25
f 6 13 14
f 4 6 5
f 4 12 6
f 4 11 12
f 4 10 11
f 2 9 7
f 2 14 9
f 2 6 14
f 2 8 3
f 2 7 8
f 1 6 2
f 1 5 6
f 1 4 5
f 1 10 4
f 6 12 26
f 1 24 10
f 1 46 35
f 1 58 46
f 1 66 67
f 1 54 66
f 1 55 54
f 1 52 55
f 1 43 52
f 1 32 43
f 1 18 32
f 1 19 18
f 1 8 19
f 1 3 8
f 1 2 3
f 25 36 49
f 1 35 24
f 6 26 15
f 1 67 58
f 6 16 17
f 23 31 34
f 6 15 16
f 21 33 32
f 21 32 22
f 20 34 33
f 20 23 34
f 20 33 21
f 17 31 23
f 17 29 30
f 15 17 16
f 15 29 17
f 15 28 29
f 15 27 28
f 15 26 27
f 18 22 32
f 11 26 12
f 7 18 19
f 6 17 13
f 13 17 14
f 7 19 8
f 7 9 18
f 9 20 21
f 9 22 18
f 9 21 22
f 9 17 23
f 9 23 20
f 10 24 25
f 10 25 26
f 10 26 11
f 9 14 17

