# https://github.com/mikedh/trimesh
v -0.23233100 -0.12744500 -0.01516890
v 0.01008890 -0.17714700 -0.01516890
v -0.25164000 -0.12744500 -0.06291770
v -0.29359300 -0.12744500 -0.01516890
v 0.01008890 -0.27527600 -0.01516890
v 0.01008890 -0.18316800 -0.01818340
v -0.27911200 -0.12744500 -0.11782100
v -0.27314900 -0.12744500 -0.10592400
v -0.25217200 -0.12744500 -0.06398280
v -0.33771100 -0.12744500 -0.11782100
v -0.33029300 -0.13631700 -0.09436850
v -0.35127000 -0.22019100 -0.11533900
v -0.34250300 -0.23068400 -0.09786520
v -0.29359300 -0.16778300 -0.01516890
v 0.01008890 -0.27527600 -0.05250790
v -0.27449800 -0.27527600 -0.01516890
v 0.01008890 -0.20272100 -0.02797030
v -0.24230500 -0.27527600 -0.11782100
v 0.01008890 -0.20997200 -0.03159760
v 0.01008890 -0.23068400 -0.04194720
v -0.34200600 -0.14681100 -0.11782100
v -0.35251200 -0.22266600 -0.11782100
v -0.35251200 -0.27262800 -0.11782100
v -0.34250300 -0.27262800 -0.09786520
v -0.28599700 -0.22488000 -0.01516890
v -0.34229000 -0.27527600 -0.09908100
v -0.35198000 -0.27527600 -0.11782100
v -0.34974400 -0.27527600 -0.11328900
v -0.34339000 -0.27527600 -0.10097000
f 7 21 10
f 7 22 21
f 7 23 22
f 7 27 23
f 5 28 27
f 6 17 7
f 5 18 15
f 5 27 18
f 7 17 19
f 7 18 27
f 7 19 20
f 16 24 26
f 7 15 18
f 10 21 11
f 11 21 12
f 12 22 23
f 12 23 24
f 12 24 13
f 12 21 22
f 14 24 25
f 16 25 24
f 5 29 28
f 23 27 28
f 23 28 24
f 7 20 15
f 5 26 29
f 2 17 6
f 4 24 14
f 24 28 29
f 1 2 3
f 1 3 9
f 1 9 8
f 1 8 7
f 1 7 10
f 1 10 4
f 1 4 14
f 1 14 25
f 1 25 16
f 1 16 5
f 5 16 26
f 1 5 2
f 2 15 20
f 2 20 19
f 2 19 17
f 2 6 7
f 2 7 8
f 2 8 9
f 2 9 3
f 4 10 11
f 4 11 12
f 4 12 13
f 4 13 24
f 2 5 15
f 24 29 26

