# https://github.com/mikedh/trimesh
v -0.25767300 0.67381200 -0.12089500
v -0.25767300 0.67603100 -0.12089500
v -0.19860700 0.67381200 -0.12089500
v -0.24635600 0.67381200 0.12588100
v -0.24640600 0.68158000 0.13631100
v -0.25164700 0.75500100 -0.10485000
v -0.25164700 0.75500100 -0.12089500
v 0.00096962 0.87278200 -0.12089500
v 0.00096962 0.79693000 0.18871500
v -0.14541500 0.67381200 0.16774600
v -0.24511500 0.67381200 0.13890000
v -0.23777300 0.67381200 0.15286800
v -0.21564600 0.67381200 0.19053900
v -0.23853300 0.69206800 0.14677700
v -0.22544400 0.72353500 0.15728000
v -0.22544400 0.82837000 -0.07337800
v -0.24919100 0.78089300 -0.12089500
v -0.24979900 0.77595200 -0.12089500
v 0.00096962 0.94369300 -0.12089500
v 0.00096962 0.79693000 0.23065300
v -0.14541500 0.67381200 0.18871500
v -0.20270900 0.67381200 0.20271900
v -0.20270900 0.69206800 0.20271900
v -0.20445600 0.70255700 0.19921800
v -0.17561900 0.75500100 0.20968400
v -0.20445600 0.76546300 0.15728000
v -0.18349300 0.87029800 -0.07337800
v -0.17475800 0.88778800 -0.10485000
v -0.21668400 0.84583300 -0.10485000
v -0.22205100 0.83516000 -0.12089500
v -0.19921500 0.77072100 0.15728000
v -0.07895730 0.94369300 -0.12089500
v 0.00096962 0.94369300 -0.04194290
v 0.00096962 0.79724700 0.23131000
v -0.15134000 0.67381200 0.20512600
v -0.20088600 0.67381200 0.20363100
v -0.15726400 0.70255700 0.22543800
v -0.16075800 0.75500100 0.22368800
v -0.17475800 0.73402400 0.21668600
v -0.16250500 0.76546300 0.22018700
v -0.15202300 0.78644100 0.22018700
v -0.15377000 0.80393100 0.18871500
v -0.11187000 0.84583300 0.18871500
v -0.15377000 0.88778800 -0.04194290
v -0.15151700 0.90834300 -0.12089500
v -0.17475800 0.88778800 -0.12089500
v -0.21668400 0.84583300 -0.12089500
v -0.08452720 0.94247800 -0.12089500
v -0.06293140 0.94369300 -0.08388070
v -0.00001775 0.94369300 -0.04194290
v 0.00096962 0.90176500 0.12580900
v 0.00096962 0.80393100 0.24465700
v -0.16777100 0.67381200 0.21070500
v -0.18873300 0.67381200 0.20968400
v 0.00096962 0.80456500 0.24498500
v 0.00096962 0.81788100 0.25165900
v -0.08389420 0.79693000 0.25165900
v -0.14678300 0.73402400 0.23065300
v -0.14678300 0.75500100 0.23065300
v -0.18599900 0.67381200 0.21070500
v -0.14941600 0.77595200 0.22543800
v -0.08913490 0.82837000 0.24115600
v -0.13106000 0.80741900 0.22018700
v -0.11012300 0.82837000 0.22018700
v -0.08913490 0.84934700 0.22018700
v -0.08652720 0.85457800 0.20968400
v -0.12842700 0.89653300 -0.02093750
v -0.12842700 0.91748500 -0.10485000
v -0.14802300 0.91040400 -0.12089500
v -0.13713700 0.91616400 -0.12089500
v -0.08652720 0.93846200 -0.10485000
v -0.06553910 0.93846200 -0.06291180
v -0.04194330 0.94369300 -0.06291180
v -0.02098050 0.90176500 0.12580900
v -0.00351156 0.87730000 0.20622000
v 0.00096962 0.87505400 0.21066900
v 0.00096962 0.83885800 0.25165900
v -0.04194330 0.83885800 0.25165900
v -0.06553910 0.83885800 0.24640700
v -0.08652720 0.81788100 0.24640700
v -0.06817210 0.84934700 0.24115600
v -0.06553910 0.85457800 0.23065300
v -0.02361350 0.87555600 0.20968400
v -0.06553910 0.87555600 0.16774600
v -0.08652720 0.91748500 -0.02093750
v 0.00096962 0.86459200 0.23163800
v 0.00096962 0.85283500 0.24465700
v -0.04895620 0.85283500 0.24465700
v -0.02622120 0.87029800 0.22018700
v -0.01837290 0.86506700 0.23065300
v 0.00096962 0.86350800 0.23375300
v 0.00096962 0.86078700 0.23670700
f 41 80 62
f 41 61 80
f 42 63 64
f 41 62 81
f 41 81 63
f 40 61 41
f 41 63 42
f 42 64 43
f 44 68 69
f 43 65 66
f 43 66 67
f 43 67 44
f 44 67 68
f 44 69 45
f 48 70 71
f 38 61 40
f 48 71 72
f 48 72 49
f 43 64 65
f 38 59 61
f 32 48 49
f 37 60 53
f 49 72 73
f 28 45 46
f 28 46 47
f 28 47 29
f 28 44 45
f 29 47 30
f 31 42 43
f 33 50 74
f 33 74 51
f 34 52 35
f 35 52 53
f 36 54 37
f 37 52 55
f 37 55 56
f 37 56 57
f 37 57 58
f 37 58 59
f 37 59 38
f 37 54 60
f 37 53 52
f 50 73 74
f 78 88 79
f 51 75 76
f 72 74 73
f 74 84 83
f 74 83 75
f 75 83 86
f 75 86 76
f 77 87 88
f 77 88 78
f 79 88 81
f 79 81 80
f 81 88 89
f 81 89 83
f 81 83 82
f 83 89 86
f 86 89 90
f 86 90 91
f 87 92 88
f 88 92 91
f 88 91 90
f 27 44 28
f 72 84 74
f 51 74 75
f 72 85 84
f 68 70 69
f 56 77 78
f 56 78 57
f 57 78 79
f 57 79 80
f 57 80 61
f 57 61 59
f 57 59 58
f 88 90 89
f 63 81 64
f 64 81 65
f 65 81 66
f 66 81 82
f 66 82 83
f 66 83 84
f 66 84 85
f 66 85 67
f 67 85 71
f 67 71 68
f 68 71 70
f 71 85 72
f 27 43 44
f 62 80 81
f 26 42 31
f 1 13 12
f 1 12 11
f 1 11 4
f 1 4 5
f 1 5 2
f 2 6 7
f 2 5 6
f 3 8 9
f 3 9 10
f 4 11 5
f 5 11 12
f 5 12 13
f 5 13 14
f 5 14 15
f 5 15 16
f 5 16 17
f 5 17 6
f 6 17 18
f 6 18 7
f 1 22 13
f 8 19 33
f 1 36 22
f 1 60 54
f 27 31 43
f 1 2 7
f 1 7 18
f 1 18 17
f 1 17 30
f 1 30 47
f 1 47 46
f 1 46 45
f 1 45 69
f 1 69 70
f 1 70 48
f 1 48 32
f 1 32 19
f 1 8 3
f 1 3 10
f 1 10 21
f 1 21 35
f 1 35 53
f 1 53 60
f 1 54 36
f 8 33 51
f 1 19 8
f 8 76 86
f 16 26 31
f 16 31 27
f 19 32 49
f 19 49 73
f 19 73 50
f 19 50 33
f 20 34 35
f 20 35 21
f 22 36 23
f 23 36 37
f 23 37 38
f 23 39 24
f 24 39 38
f 24 38 40
f 24 40 25
f 25 40 41
f 25 41 26
f 26 41 42
f 8 51 76
f 16 30 17
f 16 29 30
f 23 38 39
f 16 27 28
f 8 86 91
f 16 28 29
f 8 91 92
f 8 92 87
f 8 87 77
f 8 56 55
f 8 55 52
f 8 52 34
f 8 34 20
f 8 20 9
f 8 77 56
f 9 21 10
f 13 22 23
f 13 23 24
f 15 26 16
f 13 24 14
f 14 24 15
f 15 24 25
f 9 20 21
f 15 25 26

