# https://github.com/mikedh/trimesh
v -0.11777200 -0.27529100 -0.01516890
v 0.21637300 -0.27529100 -0.01516890
v -0.11777200 -0.27529100 0.07149490
v -0.11777200 -0.16485100 -0.01516890
v 0.21637300 -0.27529100 0.07533590
v 0.21637300 -0.21905900 -0.01516890
v -0.08653610 -0.27529100 0.08844030
v -0.11777200 -0.18650100 0.19679400
v -0.09615230 -0.16485100 -0.01516890
v -0.11777200 0.09556810 0.20505700
v 0.20970000 0.09085800 0.18175300
v 0.20986400 -0.27529100 0.07859590
v 0.21637300 -0.19265700 0.15322000
v 0.20970000 -0.19571500 0.15376900
v 0.15802200 -0.19848300 -0.01516890
v 0.20970000 -0.16774300 0.00000128
v 0.21637300 -0.16109100 0.00335809
v -0.08120470 -0.27529100 0.09108710
v -0.11777200 -0.17716400 0.20618700
v -0.04457170 -0.27529100 0.10354600
v 0.00000933 -0.27529100 0.11174400
v 0.02097520 -0.27529100 0.11403600
v -0.08385410 -0.14679600 0.23852900
v 0.08387270 -0.16076100 -0.00697056
v 0.09100310 -0.17712200 -0.01516890
v 0.21637300 0.09085800 0.18175300
v -0.11777200 0.10428600 0.21344900
v 0.20970000 0.11184700 0.20270100
v 0.16790000 -0.27529100 0.09954360
v 0.21637300 -0.16972600 0.16716400
v 0.16076900 -0.09085290 0.24466100
v 0.15727000 -0.09961200 0.24114300
v 0.11533800 -0.09961200 0.26212300
v 0.16776900 -0.27529100 0.09960820
v 0.09509160 -0.17749400 -0.01516890
v 0.21637300 -0.15600900 0.00590797
v -0.11777200 -0.16857000 0.21051200
v 0.10483900 -0.27529100 0.11403600
v -0.06288820 -0.13977200 0.24466100
v -0.07338750 -0.13630100 0.24640400
v -0.11777200 0.10482300 0.29359300
v 0.20970000 -0.15377800 0.00700539
v 0.21637300 0.00330789 0.11920000
v 0.21637300 0.11184700 0.20270100
v -0.11777200 0.11184700 0.22368100
v 0.21637300 0.13341400 0.22845800
v 0.21637300 -0.00003877 0.25163300
v 0.11883800 -0.09085290 0.26560900
v 0.10483900 -0.08387040 0.27261300
v 0.10483900 -0.09783540 0.26560900
v 0.03147450 -0.09436480 0.26738400
v -0.03145580 -0.09436480 0.26738400
v 0.00000933 0.10482300 0.31457300
v -0.00699019 0.11882900 0.30756900
v -0.11777200 0.11882900 0.28658900
v -0.02095650 -0.08387040 0.27261300
v -0.11777200 0.11453200 0.22903900
v 0.21637300 0.13866100 0.23733400
v 0.21637300 0.12246500 0.29026900
v 0.18173500 -0.00702129 0.26560900
v 0.20970000 0.12581200 0.29359300
v 0.14677000 0.11184700 0.30756900
v 0.08387270 0.10482300 0.31457300
v 0.13980300 0.11882900 0.30756900
v 0.13280400 0.13279400 0.30056500
v 0.11533800 0.14155400 0.28310300
v -0.11777200 0.12581200 0.27261300
v -0.11777200 0.12581200 0.25163300
v 0.16776900 0.14680100 0.27261300
v 0.21637300 0.14056200 0.24498400
v 0.21637300 0.13246400 0.28694400
v 0.20270100 0.13977700 0.28658900
v 0.15377000 0.13279400 0.30056500
v 0.20970000 0.14680100 0.27261300
v 0.21637300 0.14543700 0.27129000
v 0.21637300 0.13705000 0.28387800
f 38 50 39
f 39 50 49
f 45 58 46
f 33 38 34
f 39 49 51
f 33 50 38
f 36 42 43
f 39 51 40
f 41 56 53
f 40 52 41
f 41 53 54
f 41 54 55
f 41 52 56
f 45 57 58
f 33 49 50
f 40 51 52
f 33 48 49
f 23 40 41
f 31 33 32
f 47 59 60
f 22 38 23
f 23 38 39
f 23 39 40
f 23 41 37
f 24 42 36
f 24 36 35
f 24 35 25
f 24 26 43
f 24 43 42
f 27 45 46
f 27 46 28
f 28 46 44
f 30 47 31
f 31 48 33
f 31 47 48
f 47 60 48
f 69 74 70
f 48 59 49
f 61 72 73
f 61 73 64
f 61 64 62
f 62 64 63
f 74 76 75
f 65 73 66
f 66 73 74
f 66 74 69
f 66 69 67
f 67 69 68
f 70 74 75
f 71 76 72
f 72 76 74
f 72 74 73
f 19 23 37
f 61 71 72
f 48 60 59
f 59 71 61
f 58 69 70
f 49 56 52
f 49 52 51
f 49 59 61
f 49 61 62
f 49 62 63
f 49 63 53
f 49 53 56
f 53 63 64
f 53 64 54
f 54 64 73
f 54 73 65
f 54 65 66
f 54 66 67
f 54 67 55
f 57 68 58
f 58 68 69
f 17 35 36
f 1 7 3
f 15 35 16
f 1 45 27
f 1 27 10
f 1 10 4
f 1 4 9
f 1 9 25
f 1 25 35
f 1 57 45
f 1 35 15
f 1 6 2
f 2 6 17
f 2 17 36
f 2 36 43
f 2 43 26
f 2 26 44
f 1 15 6
f 1 68 57
f 1 67 68
f 1 55 67
f 16 35 17
f 1 5 12
f 1 12 29
f 1 29 34
f 1 34 38
f 1 38 22
f 1 22 21
f 1 21 20
f 1 20 18
f 1 18 7
f 1 3 8
f 1 8 19
f 1 19 37
f 1 37 41
f 1 41 55
f 2 44 46
f 2 46 58
f 1 2 5
f 2 70 75
f 8 22 23
f 8 23 19
f 9 24 25
f 9 26 24
f 10 27 11
f 11 27 28
f 11 28 44
f 11 44 26
f 12 14 29
f 13 30 31
f 13 31 32
f 13 32 33
f 13 33 14
f 14 34 29
f 2 58 70
f 8 21 22
f 8 20 21
f 14 33 34
f 7 18 8
f 8 18 20
f 2 76 71
f 2 71 59
f 2 59 47
f 2 47 30
f 2 30 13
f 2 13 5
f 2 75 76
f 4 10 11
f 4 11 26
f 4 26 9
f 5 13 14
f 5 14 12
f 6 15 16
f 6 16 17
f 3 7 8

