# https://github.com/mikedh/trimesh
v 0.01008890 -0.27529100 -0.29360200
v 0.10486800 -0.27529100 -0.29360200
v 0.01008890 -0.27529100 -0.18876000
v 0.01008890 0.14747200 -0.29360200
v 0.29357900 -0.27529100 -0.27262900
v 0.16780600 -0.20970000 -0.29360200
v 0.26526400 -0.27529100 -0.09375890
v 0.25034300 -0.27524900 -0.09375890
v 0.01008890 0.06288650 -0.16778800
v 0.01008890 0.14747200 -0.16778800
v 0.16780600 0.14747200 -0.29360200
v 0.32155500 -0.27529100 -0.25864100
v 0.23067500 -0.12581700 -0.29360200
v 0.29357900 -0.25162000 -0.27262900
v 0.33552600 -0.27529100 -0.09375890
v 0.21097300 0.14676900 -0.09375890
v 0.21097300 0.14747200 -0.09375890
v 0.18177700 0.14747200 -0.28659800
v 0.24115400 -0.09436670 -0.28835900
v 0.23067500 -0.10483600 -0.29360200
v 0.32155500 -0.27260100 -0.25864100
v 0.33620400 -0.27529100 -0.23035200
v 0.30405700 -0.24115000 -0.26738600
v 0.35651600 -0.27529100 -0.16778800
v 0.33552600 -0.27260100 -0.09375890
v 0.26767100 0.14747200 -0.09375890
v 0.19564600 0.14747200 -0.27930100
v 0.19571400 0.14676900 -0.27961400
v 0.34973400 -0.27529100 -0.20394100
v 0.30056400 -0.18871900 -0.25864100
v 0.32155500 -0.20970000 -0.23766900
v 0.35651600 -0.27529100 -0.18876000
v 0.35651600 -0.25162000 -0.16778800
v 0.33552600 -0.20970000 -0.10487100
v 0.32996500 -0.21524500 -0.09375890
v 0.33552600 -0.16773800 -0.16778800
v 0.33552600 -0.20970000 -0.20971300
v 0.25163200 0.12582900 -0.16778800
v 0.24464600 0.13977500 -0.17477200
v 0.23067500 0.14747200 -0.20971300
v 0.29357900 -0.00001481 -0.09375890
v 0.19595100 0.14747200 -0.27883100
v 0.35583800 -0.27529100 -0.19175300
v 0.32504800 -0.19918800 -0.22544200
v 0.35651600 -0.27260100 -0.18876000
v 0.35126000 -0.25162000 -0.19138200
v 0.32504800 -0.17824900 -0.09438500
v 0.32474200 -0.17853900 -0.09375890
v 0.32854000 -0.19571200 -0.21669700
v 0.21670400 0.14747200 -0.23766900
v 0.20992200 0.14747200 -0.25120700
f 26 39 40
f 25 33 34
f 25 34 35
f 26 33 36
f 26 37 38
f 26 38 39
f 26 41 34
f 24 45 33
f 26 36 37
f 24 32 45
f 18 27 28
f 21 30 31
f 21 28 30
f 21 23 28
f 21 29 22
f 19 28 23
f 18 28 19
f 15 33 25
f 15 24 33
f 26 34 33
f 14 19 23
f 21 31 29
f 27 42 28
f 37 40 38
f 28 31 30
f 14 20 19
f 49 51 50
f 42 49 44
f 42 51 49
f 41 48 47
f 40 49 50
f 38 40 39
f 37 49 40
f 37 44 49
f 37 45 43
f 28 42 31
f 37 46 45
f 34 41 47
f 34 48 35
f 34 47 48
f 33 46 36
f 33 45 46
f 32 43 45
f 31 42 44
f 31 37 43
f 31 44 37
f 29 31 43
f 36 46 37
f 14 23 21
f 9 16 17
f 11 19 20
f 3 8 9
f 3 7 8
f 2 6 5
f 1 6 2
f 1 13 6
f 1 20 13
f 1 11 20
f 1 4 11
f 1 10 4
f 1 9 10
f 1 3 9
f 1 15 7
f 1 24 15
f 1 32 24
f 1 43 32
f 1 29 43
f 1 22 29
f 1 12 22
f 1 5 12
f 1 2 5
f 12 21 22
f 4 10 17
f 4 17 26
f 1 7 3
f 4 40 50
f 11 18 19
f 4 26 40
f 9 17 10
f 8 16 9
f 7 16 8
f 7 26 17
f 7 41 26
f 7 48 41
f 7 35 48
f 7 25 35
f 7 17 16
f 5 21 12
f 5 14 21
f 5 20 14
f 5 13 20
f 5 6 13
f 4 18 11
f 4 27 18
f 4 42 27
f 7 15 25
f 4 50 51
f 4 51 42

