# https://github.com/mikedh/trimesh
v -0.16777800 0.67381200 0.21073600
v -0.15136400 0.67381200 0.20515300
v -0.18603700 0.67381200 0.21073600
v -0.18875700 0.65011200 0.20969800
v -0.16777800 0.64748500 0.20447100
v -0.14543900 0.67381200 0.18872700
v -0.24117200 0.16256800 0.09436020
v -0.23713900 0.14747200 0.07900560
v -0.23087000 0.14747200 0.06365110
v -0.18875700 0.67381200 0.20969800
v -0.19923000 0.63960200 0.20447100
v -0.27262400 0.16782300 0.10484500
v -0.25164600 0.16519500 0.09958650
v -0.14543900 0.67381200 0.16775700
v -0.23068300 0.14747200 0.06290450
v -0.20972000 0.20976100 0.02099600
v -0.25164600 0.14747200 0.08867930
v -0.20091900 0.67381200 0.20362700
v -0.20273200 0.65011200 0.20271800
v -0.21670700 0.65011200 0.19570700
v -0.22020900 0.55572600 0.18350100
v -0.28311400 0.15731300 0.09958650
v -0.27262400 0.15380900 0.09786610
v -0.27262400 0.14747200 0.09468480
v -0.26605900 0.14747200 0.09306170
v -0.19862100 0.65500700 -0.12089500
v -0.19862100 0.67381200 -0.12089500
v -0.23068300 0.14747200 -0.02094490
v -0.24231300 0.14747200 -0.12089500
v -0.24054700 0.15793100 -0.12089500
v -0.20273200 0.67381200 0.20271800
v -0.21566000 0.67381200 0.19054500
v -0.21758300 0.67108200 0.18872700
v -0.22543000 0.66057100 0.17824200
v -0.24640900 0.59766400 0.15727200
v -0.23767000 0.58715400 0.17473600
v -0.23767000 0.56618400 0.17473600
v -0.25863300 0.48230800 0.15376600
v -0.26213500 0.38802400 0.14152700
v -0.26563700 0.39848300 0.13980700
v -0.28660000 0.16782300 0.09786610
v -0.28802200 0.14747200 0.08731590
v -0.25766400 0.67381200 -0.12089500
v -0.30512400 0.14747200 -0.12089500
v -0.23778000 0.67381200 0.15285700
v -0.26737200 0.61863300 0.11533100
v -0.26737200 0.51378700 0.13630100
v -0.25863300 0.50327700 0.15376600
v -0.26563700 0.50327700 0.13980700
v -0.29358700 0.16782300 0.08387490
v -0.30120000 0.14747200 0.06355370
v -0.28828800 0.14747200 0.08686140
v -0.28660000 0.33557600 0.09786610
v -0.24640900 0.67370900 0.12581600
v -0.24636200 0.67381200 0.12588100
v -0.27015500 0.63403800 -0.12089500
v -0.30374800 0.14747200 0.04196650
v -0.29358700 0.33557600 0.08387490
v -0.29113300 0.38246000 -0.12089500
v -0.24511100 0.67381200 0.13889800
v -0.27262400 0.58715400 0.10484500
v -0.27262400 0.50327700 0.12581600
v -0.28835100 0.34603500 0.09436020
v -0.27078000 0.62914300 -0.12089500
v -0.27262400 0.60817400 -0.10482700
v -0.27262400 0.60817400 -0.12089500
f 26 56 43
f 26 43 27
f 32 45 33
f 33 45 34
f 34 45 46
f 35 47 48
f 35 46 47
f 35 48 36
f 38 48 49
f 26 64 56
f 38 40 39
f 38 49 40
f 34 46 35
f 26 66 64
f 21 39 22
f 26 44 59
f 26 29 44
f 26 30 29
f 22 24 23
f 22 42 24
f 22 41 42
f 22 39 40
f 21 38 39
f 21 37 38
f 20 37 21
f 20 38 37
f 40 49 53
f 20 48 38
f 26 59 66
f 40 53 41
f 53 63 58
f 41 51 52
f 20 36 48
f 64 66 65
f 61 64 65
f 59 65 66
f 58 65 59
f 58 61 65
f 58 62 61
f 58 63 62
f 56 64 61
f 54 60 55
f 51 58 57
f 50 58 51
f 49 63 53
f 49 62 63
f 47 49 48
f 47 62 49
f 46 62 47
f 46 61 62
f 46 56 61
f 46 60 54
f 45 60 46
f 44 58 59
f 44 57 58
f 43 46 54
f 43 56 46
f 43 54 55
f 41 58 50
f 41 53 58
f 41 52 42
f 41 50 51
f 20 35 36
f 22 40 41
f 20 33 34
f 7 13 17
f 6 16 14
f 6 15 16
f 6 9 15
f 5 13 7
f 5 12 13
f 4 12 5
f 4 11 12
f 4 10 11
f 3 10 4
f 2 9 6
f 2 8 9
f 2 7 8
f 2 5 7
f 1 5 2
f 1 4 5
f 1 3 4
f 1 10 3
f 1 18 10
f 1 31 18
f 1 32 31
f 1 45 32
f 1 60 45
f 1 43 55
f 1 27 43
f 1 14 27
f 1 6 14
f 1 2 6
f 20 34 35
f 7 17 8
f 8 17 25
f 1 55 60
f 8 24 42
f 20 32 33
f 8 25 24
f 20 31 32
f 19 31 20
f 16 30 26
f 16 29 30
f 16 28 29
f 15 28 16
f 14 16 26
f 14 26 27
f 13 25 17
f 13 24 25
f 13 23 24
f 12 23 13
f 18 31 19
f 11 22 12
f 12 22 23
f 8 51 57
f 8 57 44
f 8 44 29
f 8 29 28
f 8 42 52
f 8 28 15
f 8 52 51
f 10 18 11
f 11 18 19
f 11 19 20
f 11 20 21
f 8 15 9
f 11 21 22

