# https://github.com/mikedh/trimesh
v -0.11777200 0.10485200 0.29360200
v -0.12584400 0.10485200 0.29360200
v -0.13632400 0.09436400 0.28834300
v -0.11777200 0.09087390 0.28659000
v -0.11777200 0.11882900 0.28659000
v -0.15379600 0.10485200 0.27960800
v -0.13283700 0.11882900 0.28659000
v -0.17826100 0.11533900 0.26736700
v -0.13302900 -0.02815090 0.20610300
v -0.11777200 -0.02815090 0.20912500
v -0.12584400 0.09087390 0.28659000
v -0.22863700 -0.02815090 0.15846900
v -0.21792600 -0.02815090 0.16581400
v -0.17587200 -0.02815090 0.19210900
v -0.11777200 0.12582700 0.27262600
v -0.12584400 0.12582700 0.27262600
v -0.19575300 0.13980400 0.24463800
v -0.20448000 0.13631400 0.24116300
v -0.21669300 0.12582700 0.23765700
v -0.11777200 -0.02815090 0.13241600
v -0.23767100 0.12582700 0.21668100
v -0.28311500 -0.01047680 0.09962260
v -0.30758000 -0.02815090 0.05594870
v -0.11777200 0.12582700 0.25165000
v -0.18876000 0.14678400 0.23067500
v -0.21233900 0.14155800 0.23067500
v -0.11777200 -0.01396690 0.13979100
v -0.22938800 -0.02815090 -0.01516890
v -0.22938800 -0.02096430 -0.01516890
v -0.23067900 0.14745500 -0.01516890
v -0.23329800 0.14155800 0.20969900
v -0.24639800 0.13631400 0.19921100
v -0.24466400 0.12582700 0.20271700
v -0.30758000 0.02098570 0.07692430
v -0.30407400 0.01049820 0.07864700
v -0.30931400 0.00001070 0.06556000
v -0.31457300 -0.02815090 0.04195480
v -0.11777200 0.11453100 0.22904300
v -0.23067900 0.14678400 0.18872400
v -0.23067900 0.14745500 0.06293040
v -0.23087100 0.14745500 0.06368610
v -0.23713200 0.14745500 0.07900970
v -0.25165700 0.14745500 0.08871170
v -0.26604700 0.14745500 0.09309420
v -0.27261600 0.14745500 0.09472630
v -0.28800800 0.14745500 0.08735160
v -0.11777200 0.09193990 0.20262700
v -0.29504000 -0.02815090 -0.01516890
v -0.29359500 0.14745500 -0.01516890
v -0.11777200 0.11183200 0.22369300
v -0.11777200 0.10430100 0.21344700
v -0.11777200 0.09558470 0.20507500
v -0.28829700 0.14745500 0.08689830
v -0.30120400 0.14745500 0.06359540
v -0.25165700 0.12582700 0.18872400
v -0.30931400 0.13631400 0.05244260
v -0.30931400 0.03147330 0.07341820
v -0.31457300 0.02098570 0.06293040
v -0.31457300 -0.02815090 0.03476150
v -0.29648400 0.04775470 -0.01516890
v -0.30829300 -0.02815090 0.01272800
v -0.31457300 0.06290150 0.02097920
v -0.29504000 0.12508700 -0.01516890
v -0.30758000 0.11183200 0.00701566
v -0.31457300 0.10485200 0.02097920
v -0.30931400 0.12844000 0.02097920
v -0.31457300 0.12582700 0.04195480
v -0.30758000 0.13980400 0.04195480
v -0.30374700 0.14745500 0.04195480
v -0.31151000 -0.02815090 0.02097920
v -0.29648400 0.10194600 -0.01516890
v -0.30058800 0.05593840 -0.00697815
v -0.30058800 0.09785410 -0.00697815
f 65 67 66
f 30 44 43
f 30 43 42
f 30 42 41
f 30 41 40
f 30 38 50
f 30 52 47
f 30 51 52
f 31 39 53
f 31 53 54
f 31 54 32
f 32 55 33
f 30 46 45
f 30 50 51
f 32 54 56
f 28 71 63
f 30 54 53
f 32 56 57
f 25 41 42
f 25 42 43
f 25 43 44
f 25 44 45
f 25 45 46
f 25 46 39
f 27 30 47
f 28 48 60
f 28 60 71
f 28 63 49
f 28 49 30
f 28 30 29
f 30 49 69
f 30 69 54
f 30 53 46
f 32 57 58
f 49 67 68
f 33 55 58
f 56 68 67
f 56 67 58
f 56 58 57
f 59 62 70
f 60 62 72
f 60 72 73
f 56 69 68
f 60 73 71
f 62 65 73
f 62 73 72
f 63 71 64
f 64 71 73
f 64 73 65
f 25 40 41
f 61 70 62
f 32 58 55
f 54 69 56
f 49 66 67
f 33 58 34
f 34 58 36
f 34 36 35
f 36 58 37
f 37 58 67
f 37 67 65
f 49 68 69
f 37 65 62
f 39 46 53
f 48 61 62
f 48 62 60
f 49 63 64
f 49 64 65
f 49 65 66
f 37 62 59
f 25 30 40
f 30 45 44
f 25 39 31
f 3 9 10
f 3 10 11
f 3 11 4
f 3 6 8
f 3 8 12
f 3 12 13
f 2 8 6
f 3 13 14
f 4 11 10
f 5 15 16
f 5 16 7
f 7 16 17
f 7 17 8
f 8 17 18
f 3 14 9
f 8 18 19
f 2 7 8
f 1 7 2
f 25 31 26
f 1 2 3
f 1 3 4
f 1 4 10
f 1 10 20
f 1 20 27
f 2 6 3
f 1 27 47
f 1 52 51
f 1 51 50
f 1 50 38
f 1 24 15
f 1 15 5
f 1 5 7
f 1 47 52
f 8 19 12
f 1 38 24
f 9 13 12
f 20 28 29
f 20 29 30
f 20 30 27
f 21 26 31
f 21 31 32
f 21 32 33
f 19 26 21
f 21 33 34
f 22 35 23
f 23 35 36
f 23 36 37
f 24 38 30
f 24 30 25
f 9 14 13
f 21 35 22
f 18 26 19
f 21 34 35
f 17 25 26
f 9 12 23
f 17 26 18
f 9 23 37
f 9 37 59
f 9 59 70
f 9 61 48
f 9 48 28
f 9 28 20
f 9 70 61
f 12 19 21
f 12 21 22
f 16 25 17
f 12 22 23
f 15 24 25
f 9 20 10
f 15 25 16

