# https://github.com/mikedh/trimesh
v 0.24462300 -0.63613400 0.03492250
v 0.16774000 -0.79692800 0.06291460
v 0.18169400 -0.80394000 0.05589400
v 0.16774000 -0.82049300 0.05764920
v 0.23068200 -0.88341600 -0.02622880
v 0.18870100 -0.90439000 -0.00525932
v 0.17825100 -0.91749900 -0.01049400
v 0.12581900 -0.84146800 0.05764920
v 0.14678000 -0.81787200 0.06291460
v 0.10479800 -0.83884600 0.06291460
v -0.04192490 -0.81787200 0.06291460
v 0.00005644 -0.83884600 0.06291460
v 0.02101690 -0.86680100 0.04890420
v -0.01045400 -0.84933300 0.05764920
v -0.05237490 -0.82835900 0.05764920
v -0.07339580 -0.80741500 0.05764920
v -0.06288540 -0.79692800 0.06291460
v 0.16774000 -0.77595400 0.06291460
v 0.23065300 -0.62913900 0.04194310
v 0.25859300 -0.60118800 0.02793260
v 0.22367500 -0.74101700 0.03492450
v 0.26209300 -0.84408900 -0.03146350
v 0.28655600 -0.80394000 -0.04895350
v 0.30757700 -0.65712000 -0.04895350
v 0.32155800 -0.55924800 -0.05594530
v 0.32851000 -0.57322800 -0.06992500
v 0.34949800 -0.57322800 -0.11186400
v 0.32853800 -0.67809400 -0.09089240
v 0.33554500 -0.67111300 -0.10484100
v 0.35645000 -0.56623300 -0.12581300
v 0.35645000 -0.55562600 -0.12581300
v 0.32155800 -0.55562600 -0.05594530
v 0.25859300 -0.55562600 0.02793260
v 0.24462300 -0.55562600 0.03492250
v 0.23767100 -0.55562600 0.03492250
v 0.35645000 -0.55562600 -0.16775200
v 0.35645000 -0.58720800 -0.16775200
v 0.35128600 -0.55562600 -0.19909800
v 0.34294300 -0.55562600 -0.21323200
v 0.34340700 -0.56623300 -0.20969100
v 0.35122000 -0.59769100 -0.17825200
v 0.33554500 -0.69208700 -0.12581100
v 0.35645000 -0.58720800 -0.14678200
v 0.33029000 -0.69470900 -0.10484100
v 0.30932900 -0.75760100 -0.08390260
v 0.29356300 -0.79692800 -0.06293310
v 0.31452400 -0.75497900 -0.10484100
v 0.31452400 -0.75497900 -0.12581100
v 0.30932900 -0.76546600 -0.13631100
v 0.26559600 -0.85283900 -0.06293310
v 0.26734800 -0.84146800 -0.04196360
v 0.25858900 -0.86680100 -0.06293310
v 0.25858900 -0.86680100 -0.12581100
v 0.19570800 -0.92972400 -0.06293310
v 0.23762900 -0.88777500 -0.04196360
v 0.24113200 -0.87555100 -0.03146350
v 0.24463500 -0.86680100 -0.02798400
v 0.22017200 -0.89652500 -0.03146350
v 0.20966100 -0.90963400 -0.04196360
v 0.17825100 -0.93847300 -0.05243300
v 0.16774000 -0.93060800 -0.02099410
v 0.13626900 -0.93847300 -0.01049400
v 0.11530900 -0.85457600 0.05241450
v 0.08383790 -0.92972400 0.00696519
v 0.10479800 -0.85283900 0.05589400
v 0.06287740 -0.86680100 0.04890420
v 0.02101690 -0.92972400 0.00696519
v 0.08383790 -0.95069800 -0.01400430
v 0.02101690 -0.95069800 -0.01400430
v 0.09434830 -0.95944800 -0.03146350
v 0.10479800 -0.95158200 -0.02099410
v 0.13626900 -0.95944800 -0.07340250
v 0.08383790 -0.96466100 -0.04196360
v 0.02101690 -0.96466100 -0.04196360
v 0.00005644 -0.95944800 -0.03934630
v 0.00005644 -0.96466100 -0.06293310
v -0.06288540 -0.94371700 -0.06293310
v 0.00005644 -0.96466100 -0.10484100
v -0.06288540 -0.94371700 -0.10484100
v -0.09085280 -0.92972400 -0.06992290
v -0.07683890 -0.93670500 -0.05594330
v -0.13978100 -0.89475700 -0.07691280
v -0.07339580 -0.93323000 -0.03672900
v -0.06288540 -0.93847300 -0.03934630
v -0.04192490 -0.93847300 -0.01837680
v -0.03141450 -0.93323000 -0.00525932
v -0.05237490 -0.93323000 -0.01572870
v -0.07339580 -0.91225600 -0.00525932
v -0.13627700 -0.87030700 -0.02622880
v -0.11531700 -0.89128100 -0.02622880
v -0.11882000 -0.89475700 -0.03497380
v -0.13978100 -0.87381300 -0.03497380
v -0.19921900 -0.80741500 -0.04719830
v -0.20272300 -0.81089000 -0.05594330
v -0.15723800 -0.87030700 -0.05769840
v -0.16074100 -0.87381300 -0.07691280
v -0.15373400 -0.88777500 -0.09089240
v -0.17475500 -0.86680100 -0.11183100
v -0.24464300 -0.74799800 -0.11882100
v -0.26560400 -0.70605000 -0.11882100
v -0.27261100 -0.69208700 -0.12581100
v -0.26735600 -0.69208700 -0.10222400
v -0.26210000 -0.70257400 -0.09960660
v -0.24464300 -0.72702400 -0.07691280
v -0.30756100 -0.58021300 -0.11882300
v -0.24114000 -0.72354800 -0.06816780
v -0.17819800 -0.66062600 0.01571020
v -0.25863200 -0.60817400 -0.05594530
v -0.30054300 -0.56623300 -0.09788430
v -0.31451300 -0.56623300 -0.12581300
v -0.31451300 -0.58720800 -0.16775200
v -0.30054300 -0.61515900 -0.17474200
v -0.25859700 -0.72004300 -0.13280100
v -0.30405200 -0.59769100 -0.19922100
v -0.31107000 -0.58371100 -0.18524200
v -0.31981000 -0.55562600 -0.17812900
v -0.31981000 -0.55562600 -0.17304800
v -0.31451300 -0.55562600 -0.12581300
v -0.31716100 -0.55562600 -0.14810600
v -0.30054300 -0.55562600 -0.09788430
v -0.18871600 -0.55562600 0.02094280
v -0.20268600 -0.55562600 0.01395300
v -0.18871600 -0.56623300 0.02094280
v -0.20268600 -0.56623300 0.01395300
v -0.19917700 -0.57672600 0.01570810
v -0.12582700 -0.71306100 0.04191430
v -0.13627700 -0.72354800 0.03667970
v -0.18870900 -0.79692800 -0.03408080
v -0.11531700 -0.78644100 0.03667970
v 0.10485600 -0.55562600 -0.27263000
v -0.27260300 -0.55562600 -0.25163000
v -0.29988100 -0.55562600 -0.23697300
v -0.31246000 -0.55562600 -0.20762800
v -0.30405200 -0.57672600 -0.22019100
v -0.28306400 -0.59769100 -0.24116000
v -0.26210000 -0.66062600 -0.22018900
v -0.24114000 -0.72354800 -0.19921900
v -0.26210000 -0.70257400 -0.15728000
v -0.23763600 -0.76199100 -0.13280100
v -0.21667600 -0.76199100 -0.19570900
v -0.17475500 -0.84582700 -0.15377000
v -0.13277400 -0.88777500 -0.15377000
v -0.15723800 -0.84933300 -0.17825000
v -0.17819800 -0.82835900 -0.17825000
v -0.19571600 -0.78296500 -0.19570900
v -0.20616600 -0.75150400 -0.20620900
v -0.23763600 -0.69906800 -0.21667900
v -0.23063000 -0.67111300 -0.23065800
v -0.25161400 -0.58720800 -0.25163000
v -0.20970400 -0.60817400 -0.25163000
v -0.16772700 -0.62913900 -0.25163000
v -0.14678800 -0.77595400 -0.20968900
v -0.06288540 -0.73400500 -0.23065800
v 0.00005644 -0.67111300 -0.25165900
v -0.08384040 -0.56623300 -0.27263000
v -0.16256300 -0.55562600 -0.26742600
v -0.27260300 -0.56623300 -0.25163000
v -0.08384040 -0.55562600 -0.27263000
v 0.10485600 -0.56623300 -0.27263000
v 0.06287740 -0.67111300 -0.25165900
v 0.23065300 -0.60817400 -0.25163000
v 0.29355100 -0.56623300 -0.25163000
v 0.27260300 -0.67111300 -0.23065800
v 0.16774000 -0.71306100 -0.23065800
v 0.12581900 -0.79692800 -0.20968900
v 0.23068200 -0.75497900 -0.20968900
v 0.23068200 -0.81787200 -0.18871900
v 0.27260300 -0.73400500 -0.20968900
v 0.25424000 -0.81787200 -0.18348500
v 0.27961000 -0.74799800 -0.20269900
v 0.29622100 -0.67111300 -0.22542400
v 0.30546900 -0.55562600 -0.24898200
v 0.29355100 -0.55562600 -0.25163000
v 0.31242100 -0.55562600 -0.24553300
v 0.32155800 -0.56623300 -0.23765000
v 0.30932900 -0.66062600 -0.22018900
v 0.33029700 -0.59769100 -0.22019100
v 0.31977000 -0.55562600 -0.24122200
v 0.33029700 -0.63963100 -0.19922100
v 0.32241900 -0.65011400 -0.20969100
v 0.30932900 -0.70257400 -0.19921900
v 0.33029000 -0.70257400 -0.13631100
v 0.28830800 -0.78644100 -0.17825000
v 0.29881900 -0.68160000 -0.22018900
v 0.28830800 -0.74449200 -0.19921900
v 0.27520000 -0.79692800 -0.18348500
v 0.26734800 -0.84933300 -0.15728000
v 0.25689800 -0.82835900 -0.17825000
v 0.23762900 -0.83186500 -0.18172900
v 0.16774000 -0.83884600 -0.18871900
v 0.19570800 -0.89475700 -0.16076000
v 0.21491600 -0.89128100 -0.15728000
v 0.25858900 -0.85283900 -0.16076000
v 0.20446600 -0.91225600 -0.13631100
v 0.17299500 -0.93323000 -0.13631100
v 0.21666800 -0.90875000 -0.12581100
v 0.19570800 -0.92972400 -0.10484100
v 0.17033800 -0.93847300 -0.12581100
v 0.11180500 -0.95767900 -0.11882100
v 0.15378700 -0.93670500 -0.13979000
v 0.07689140 -0.92972400 -0.15377000
v 0.09084490 -0.91573100 -0.16076000
v 0.06988440 -0.87381300 -0.18172900
v -0.04893190 -0.92972400 -0.15377000
v 0.09785180 -0.95069800 -0.13280100
v -0.00695052 -0.95069800 -0.13280100
v -0.07339580 -0.93323000 -0.13631100
v -0.10831000 -0.90524400 -0.15029100
v -0.13277400 -0.86680100 -0.17474000
v -0.15373400 -0.88777500 -0.11183100
v -0.12927000 -0.90524400 -0.10835200
v -0.09085280 -0.92972400 -0.11183100
v -0.12582700 -0.90701200 -0.08651990
v -0.13627700 -0.89128100 -0.05769840
v -0.07683890 -0.91573100 -0.01400430
v 0.10479800 -0.96466100 -0.10484100
v 0.10479800 -0.96466100 -0.06293310
v 0.16774000 -0.94371700 -0.10484100
v -0.12582700 -0.83884600 -0.18871900
v -0.04192490 -0.90176800 -0.16775000
v 0.04191700 -0.85982000 -0.18871900
v 0.06287740 -0.85982000 -0.18871900
v -0.02096440 -0.79692800 -0.20968900
v -0.18870900 -0.75497900 -0.20968900
v -0.29378900 -0.55562600 -0.24103700
v -0.24114000 -0.74449200 -0.15728000
f 180 177 179
f 175 171 174
f 175 176 171
f 175 177 176
f 178 174 39
f 178 39 175
f 178 175 174
f 177 39 40
f 174 171 172
f 175 39 177
f 177 40 179
f 173 130 172
f 39 172 36
f 172 130 36
f 162 159 130
f 173 162 130
f 173 172 162
f 162 172 171
f 163 162 171
f 168 163 171
f 168 171 170
f 180 176 177
f 168 170 169
f 168 169 167
f 174 172 39
f 180 181 176
f 186 187 188
f 181 179 182
f 194 192 187
f 168 167 163
f 193 188 187
f 193 187 192
f 193 192 188
f 188 192 191
f 189 188 191
f 189 191 190
f 189 190 167
f 169 189 167
f 169 188 189
f 180 179 181
f 169 170 188
f 186 183 187
f 185 184 183
f 185 183 186
f 185 186 170
f 185 170 184
f 184 170 171
f 176 184 171
f 176 181 184
f 184 181 183
f 181 49 183
f 181 182 49
f 186 188 170
f 166 163 167
f 145 140 146
f 166 165 163
f 147 146 140
f 145 146 143
f 145 143 140
f 140 143 144
f 141 140 144
f 141 144 143
f 141 143 142
f 141 142 98
f 141 98 140
f 140 98 137
f 98 139 137
f 147 148 146
f 99 139 98
f 101 113 139
f 113 138 139
f 113 114 138
f 138 114 137
f 134 114 115
f 134 137 114
f 134 136 137
f 133 132 134
f 134 135 136
f 134 132 135
f 194 195 192
f 101 139 99
f 166 167 165
f 147 135 148
f 147 140 136
f 163 165 164
f 163 164 161
f 163 161 162
f 162 161 159
f 159 161 160
f 159 160 155
f 159 155 130
f 158 131 130
f 158 130 155
f 156 158 155
f 156 131 158
f 147 136 135
f 156 157 131
f 150 149 156
f 151 150 156
f 151 156 155
f 151 155 154
f 151 154 153
f 151 153 152
f 151 152 148
f 151 148 150
f 150 148 149
f 149 148 135
f 140 137 136
f 156 149 157
f 194 196 195
f 60 61 62
f 187 53 196
f 154 160 221
f 222 221 160
f 222 160 165
f 190 165 167
f 190 222 165
f 202 203 191
f 190 191 203
f 190 203 222
f 203 221 222
f 203 220 221
f 203 204 220
f 154 155 160
f 204 219 220
f 209 143 219
f 76 78 74
f 217 74 78
f 73 74 217
f 73 217 72
f 54 197 53
f 59 54 55
f 59 60 54
f 60 197 54
f 72 218 60
f 60 218 197
f 209 219 204
f 218 198 197
f 154 221 223
f 153 223 219
f 133 134 115
f 65 66 64
f 68 62 64
f 226 139 138
f 226 138 137
f 226 137 139
f 149 135 157
f 225 157 135
f 225 135 132
f 225 132 131
f 225 131 157
f 154 223 153
f 40 41 179
f 41 42 182
f 42 49 182
f 164 160 161
f 164 165 160
f 219 221 220
f 219 223 221
f 146 224 143
f 152 224 148
f 152 143 224
f 152 219 143
f 152 153 219
f 41 182 179
f 216 199 198
f 216 198 218
f 216 218 72
f 208 142 143
f 208 143 209
f 208 209 204
f 208 204 207
f 204 206 207
f 205 206 204
f 205 199 206
f 205 200 199
f 201 200 205
f 201 205 204
f 201 204 203
f 208 207 142
f 201 203 202
f 201 191 200
f 200 191 192
f 195 200 192
f 195 199 200
f 195 198 199
f 195 197 198
f 195 196 197
f 196 53 197
f 187 183 49
f 187 49 50
f 187 50 53
f 201 202 191
f 210 142 207
f 210 98 142
f 210 97 98
f 216 72 217
f 216 217 78
f 216 78 199
f 78 206 199
f 78 207 206
f 78 79 207
f 212 210 207
f 212 207 79
f 80 212 79
f 215 83 88
f 91 215 88
f 91 83 215
f 214 95 97
f 92 95 214
f 91 92 214
f 91 214 83
f 82 83 214
f 82 214 97
f 82 97 80
f 213 80 97
f 213 97 211
f 213 211 80
f 80 211 212
f 212 211 210
f 210 211 97
f 194 187 196
f 133 115 116
f 146 148 224
f 132 116 131
f 52 53 50
f 51 52 50
f 51 22 52
f 51 23 22
f 46 29 23
f 46 23 51
f 46 51 50
f 46 50 49
f 46 49 47
f 48 49 42
f 48 42 47
f 52 54 53
f 45 47 42
f 45 29 46
f 44 29 45
f 44 45 42
f 44 42 29
f 43 37 30
f 43 30 29
f 43 29 42
f 43 42 37
f 37 42 41
f 38 37 41
f 38 41 40
f 45 46 47
f 38 40 39
f 52 55 54
f 56 55 22
f 67 68 64
f 67 64 66
f 67 66 13
f 10 13 66
f 10 66 65
f 10 65 8
f 63 7 8
f 63 8 65
f 63 65 64
f 63 64 62
f 63 62 7
f 52 22 55
f 7 62 61
f 7 5 6
f 58 5 7
f 58 7 60
f 58 60 59
f 58 59 55
f 58 55 5
f 57 56 22
f 57 22 3
f 57 3 5
f 57 5 56
f 56 5 55
f 7 61 60
f 38 39 36
f 38 36 37
f 37 36 30
f 1 20 19
f 2 1 19
f 2 19 18
f 133 116 132
f 2 18 17
f 11 2 17
f 11 17 16
f 11 16 15
f 11 15 14
f 12 11 14
f 12 14 13
f 1 21 20
f 12 13 10
f 10 2 11
f 9 4 2
f 9 2 10
f 9 10 8
f 9 8 4
f 4 8 7
f 4 7 6
f 4 6 5
f 4 5 3
f 4 3 2
f 2 3 1
f 12 10 11
f 1 3 21
f 21 3 22
f 23 21 22
f 31 30 36
f 31 36 32
f 32 36 35
f 33 32 35
f 34 33 35
f 34 35 18
f 34 18 19
f 34 19 33
f 33 19 20
f 33 20 32
f 32 20 25
f 27 32 25
f 27 31 32
f 27 30 31
f 27 29 30
f 28 29 27
f 28 23 29
f 28 24 23
f 26 24 28
f 26 28 27
f 26 27 25
f 26 25 24
f 24 25 20
f 24 20 23
f 23 20 21
f 69 68 67
f 70 68 69
f 48 47 49
f 71 62 68
f 122 121 120
f 120 121 116
f 118 120 116
f 118 110 120
f 117 111 110
f 119 117 110
f 119 110 118
f 119 118 117
f 117 118 116
f 117 116 111
f 111 116 115
f 122 123 121
f 111 115 114
f 112 114 113
f 112 113 101
f 112 101 111
f 101 110 111
f 101 102 110
f 102 105 110
f 105 109 110
f 106 109 105
f 106 108 109
f 106 107 108
f 106 93 107
f 112 111 114
f 122 124 123
f 122 120 124
f 120 109 124
f 131 116 130
f 130 116 36
f 35 36 116
f 121 35 116
f 17 18 35
f 17 35 121
f 123 17 121
f 16 17 127
f 16 127 129
f 89 16 129
f 89 129 93
f 128 107 93
f 128 93 129
f 128 129 127
f 128 127 107
f 125 108 107
f 71 68 70
f 126 125 127
f 126 127 17
f 126 17 123
f 126 123 125
f 125 123 124
f 125 124 108
f 108 124 109
f 120 110 109
f 94 93 106
f 104 94 106
f 125 107 127
f 104 105 102
f 87 83 85
f 87 85 86
f 85 69 86
f 85 75 69
f 84 81 77
f 84 77 75
f 84 75 85
f 84 85 83
f 84 83 81
f 81 83 82
f 81 82 80
f 87 88 83
f 81 80 77
f 77 79 78
f 77 78 76
f 75 76 74
f 75 74 69
f 70 69 74
f 70 74 73
f 70 73 72
f 70 72 60
f 70 60 62
f 71 70 62
f 104 106 105
f 77 80 79
f 87 86 88
f 77 76 75
f 86 67 14
f 104 102 94
f 86 14 88
f 94 102 103
f 100 94 103
f 100 103 102
f 100 102 101
f 100 99 94
f 94 99 98
f 96 94 98
f 96 98 97
f 96 97 95
f 96 95 94
f 100 101 99
f 94 92 93
f 94 95 92
f 69 67 86
f 88 14 15
f 16 88 15
f 67 13 14
f 90 88 89
f 89 88 16
f 90 91 88
f 90 92 91
f 90 89 92
f 92 89 93

