# https://github.com/mikedh/trimesh
v -0.31452200 -0.29360900 -0.29360200
v -0.31452200 -0.27529100 -0.29360200
v -0.29359000 -0.31458700 -0.29360200
v -0.29359000 -0.42299300 -0.27261400
v -0.31452200 -0.39845800 -0.27261400
v -0.32505900 -0.32506900 -0.28310800
v -0.32850100 -0.28661100 -0.28657900
v -0.32850100 -0.27529100 -0.28657900
v 0.10483300 -0.27529100 -0.29360200
v -0.23065100 -0.35651500 -0.29360200
v -0.31810500 -0.42299300 -0.26559200
v -0.08384190 -0.37747900 -0.29360200
v 0.31099800 -0.42299300 -0.27261400
v -0.32505900 -0.42299300 -0.26212100
v -0.34247900 -0.38447700 -0.25861000
v -0.33903700 -0.27612900 -0.27608600
v -0.33819500 -0.27529100 -0.27692400
v 0.29357800 -0.27529100 -0.27261400
v 0.12576600 -0.29360900 -0.29360200
v 0.04189450 -0.37747900 -0.29360200
v 0.06289740 -0.35651500 -0.29360200
v 0.31451100 -0.41942200 -0.27261400
v 0.31500200 -0.42299300 -0.27173700
v -0.34599200 -0.42299300 -0.22018600
v -0.34599200 -0.40894000 -0.24113400
v -0.33903700 -0.40194200 -0.25513800
v -0.35645800 -0.37747900 -0.23068000
v -0.34599200 -0.28312700 -0.26212100
v -0.33938900 -0.27529100 -0.27528800
v -0.33903700 -0.27529100 -0.27596600
v -0.34992500 -0.27529100 -0.25430000
v 0.30580000 -0.27529100 -0.26651000
v 0.32504700 -0.36699700 -0.26734800
v 0.31451100 -0.37747900 -0.27261400
v 0.32848900 -0.41942200 -0.26563200
v 0.32659200 -0.42299300 -0.26591100
v -0.34943400 -0.42299300 -0.21324400
v -0.35301600 -0.41592300 -0.20618100
v -0.35301600 -0.39495900 -0.22716900
v -0.35575500 -0.42299300 -0.18802700
v -0.35645800 -0.39845800 -0.20969300
v -0.36109400 -0.27529100 -0.17270600
v -0.36039200 -0.27529100 -0.19137900
v -0.35645800 -0.27529100 -0.23068000
v 0.31977900 -0.27529100 -0.25952700
v 0.32153500 -0.27529100 -0.25861000
v 0.32848900 -0.37747900 -0.26563200
v 0.32912100 -0.42299300 -0.26443500
v -0.35575500 -0.42299300 -0.17130900
v -0.35645800 -0.41942200 -0.18870500
v -0.36109400 -0.27529100 -0.17003200
v 0.33614600 -0.27529100 -0.23032100
v 0.35124800 -0.29360900 -0.21232600
v 0.34246800 -0.31458700 -0.23766200
v 0.35651600 -0.31458700 -0.20969300
v 0.33375700 -0.42299300 -0.25521800
v -0.35561500 -0.42299300 -0.16731900
v -0.35645800 -0.41942200 -0.16775800
v -0.35645800 -0.27529100 -0.12845700
v 0.34338100 -0.27529100 -0.21623600
v 0.34970300 -0.27529100 -0.20390700
v 0.35581400 -0.27529100 -0.19169800
v 0.35651600 -0.27529100 -0.18870500
v 0.35651600 -0.42299300 -0.20969300
v 0.35532200 -0.42299300 -0.21208700
v -0.33461200 -0.42299300 -0.12534500
v -0.33025700 -0.37747900 -0.08129560
v -0.33025700 -0.36699700 -0.07343540
v -0.35582600 -0.27529100 -0.12546400
v 0.35651600 -0.27529100 -0.16775800
v 0.35651600 -0.42299300 -0.12582400
v -0.32878200 -0.42299300 -0.11377400
v -0.32274100 -0.42299300 -0.10200400
v -0.32126600 -0.42299300 -0.09948980
v -0.24343600 -0.42299300 0.01454340
v -0.28832100 -0.31458700 0.02356070
v -0.28656500 -0.29360900 0.03493210
v -0.29359000 -0.29360900 0.02096720
v -0.28832100 -0.28312700 0.03142090
v -0.28242100 -0.27529100 0.03928120
v 0.35651600 -0.33555100 -0.12582400
v 0.31654800 -0.27529100 0.04131600
v 0.31640700 -0.27529100 0.04175490
v 0.31451100 -0.33555100 0.02096720
v 0.30755600 -0.34254900 0.03493210
v 0.29357800 -0.42299300 0.02096720
v -0.23423400 -0.42299300 0.01917170
v -0.25425300 -0.27529100 0.06745030
v -0.27258700 -0.29360900 0.04977480
v -0.28305300 -0.30409100 0.03668770
v -0.27947100 -0.27529100 0.04291200
v -0.28122700 -0.27529100 0.04103680
v 0.29772200 -0.27529100 0.06705130
v 0.28655400 -0.42299300 0.03493210
v -0.22931700 -0.27529100 0.07367470
v -0.08742430 -0.42299300 0.04015900
v -0.01043710 -0.40894000 0.05763500
v -0.01043710 -0.30409100 0.09960940
v 0.16777100 -0.27529100 0.09956950
v 0.27257500 -0.42299300 0.04191450
v 0.27974000 -0.42299300 0.03836350
v -0.00004106 -0.27529100 0.11169900
v -0.02448590 -0.42299300 0.04845810
v -0.00004106 -0.42299300 0.05061270
v -0.00004106 -0.41243900 0.05591930
v -0.00004106 -0.39845800 0.06290180
v -0.00004106 -0.29360900 0.10483600
v 0.10483300 -0.27529100 0.11401300
v 0.10483300 -0.39845800 0.06290180
v 0.10483300 -0.41243900 0.05591930
v 0.10483300 -0.42299300 0.05061270
v 0.02096180 -0.27529100 0.11401300
f 49 57 58
f 51 58 59
f 53 61 62
f 53 62 55
f 47 56 48
f 53 55 54
f 53 60 61
f 55 62 63
f 55 63 70
f 55 70 81
f 52 60 53
f 57 67 68
f 55 71 64
f 55 64 65
f 55 65 56
f 57 66 67
f 57 68 58
f 58 69 59
f 58 68 69
f 66 72 67
f 47 55 56
f 67 72 73
f 67 73 68
f 55 81 71
f 47 54 55
f 33 46 47
f 46 53 54
f 25 38 39
f 68 73 74
f 25 39 27
f 27 39 40
f 27 40 41
f 27 41 42
f 27 42 43
f 27 43 44
f 27 44 31
f 27 31 28
f 32 45 33
f 46 54 47
f 33 45 46
f 35 47 48
f 35 48 36
f 37 40 38
f 38 40 39
f 40 49 58
f 40 58 50
f 40 50 41
f 41 50 42
f 42 50 58
f 42 58 51
f 46 52 53
f 33 47 34
f 68 74 75
f 88 91 89
f 68 76 77
f 87 98 95
f 93 99 100
f 93 100 101
f 93 101 94
f 95 98 102
f 97 103 104
f 97 104 105
f 97 105 106
f 97 106 98
f 98 106 107
f 98 107 102
f 87 97 98
f 99 108 100
f 100 109 110
f 100 110 111
f 102 107 112
f 104 111 110
f 104 110 105
f 105 110 109
f 105 109 106
f 106 109 108
f 106 108 112
f 106 112 107
f 25 37 38
f 100 108 109
f 68 75 76
f 87 96 97
f 85 94 86
f 68 77 78
f 68 78 69
f 69 78 79
f 69 79 80
f 70 82 81
f 71 82 83
f 71 83 84
f 71 84 85
f 71 85 86
f 71 81 82
f 75 87 88
f 87 95 88
f 75 88 89
f 75 90 76
f 76 90 77
f 77 90 89
f 77 89 91
f 77 91 92
f 77 92 79
f 77 79 78
f 79 92 80
f 83 93 85
f 83 85 84
f 85 93 94
f 75 89 90
f 24 37 25
f 96 103 97
f 22 35 23
f 2 95 102
f 2 102 112
f 2 112 108
f 2 108 99
f 2 99 93
f 2 93 83
f 2 83 82
f 2 82 70
f 2 70 63
f 2 63 62
f 2 62 61
f 2 88 95
f 2 61 60
f 2 52 46
f 2 46 45
f 2 45 32
f 2 32 18
f 2 18 9
f 3 10 4
f 4 11 5
f 4 10 12
f 4 12 20
f 4 20 13
f 4 13 23
f 2 60 52
f 4 23 36
f 2 91 88
f 2 80 92
f 1 2 9
f 1 9 19
f 1 19 21
f 1 21 20
f 1 20 12
f 1 12 10
f 1 10 3
f 1 3 4
f 1 4 5
f 1 5 6
f 1 6 7
f 2 92 91
f 1 7 8
f 2 8 17
f 2 17 30
f 2 30 29
f 2 29 31
f 2 31 44
f 23 35 36
f 2 44 43
f 2 43 42
f 2 42 51
f 2 59 69
f 2 69 80
f 1 8 2
f 4 36 48
f 2 51 59
f 4 56 65
f 7 16 8
f 8 16 17
f 9 18 19
f 13 20 21
f 13 21 19
f 13 19 22
f 13 22 23
f 14 24 25
f 14 25 26
f 14 26 15
f 15 26 25
f 7 15 16
f 15 25 27
f 16 29 30
f 16 30 17
f 16 28 31
f 16 31 29
f 18 32 33
f 18 33 34
f 18 34 19
f 19 34 22
f 22 34 47
f 22 47 35
f 4 48 56
f 15 28 16
f 6 15 7
f 15 27 28
f 6 11 14
f 4 65 64
f 6 14 15
f 4 64 71
f 4 71 86
f 4 86 94
f 4 94 101
f 4 101 100
f 4 111 104
f 4 104 103
f 4 103 96
f 4 96 87
f 4 87 75
f 4 100 111
f 4 37 24
f 4 74 73
f 4 73 72
f 4 72 66
f 4 66 57
f 4 57 49
f 4 49 40
f 4 40 37
f 5 11 6
f 4 24 14
f 4 14 11
f 4 75 74

