o convex_0
v 0.000969624 0.147552 -0.2936
v 0.167753 0.147552 -0.2936
v 0.000969624 0.147552 -0.167782
v 0.000969624 0.587199 -0.301102
v 0.209714 0.461449 -0.2936
v 0.168205 0.147552 -0.293378
v 0.146798 0.147552 -0.125842
v 0.000969624 0.877258 -0.111875
v 0.000969624 0.588159 -0.301102
v 0.223675 0.461449 -0.286598
v 0.18174 0.147552 -0.286598
v 0.209714 0.754947 -0.2936
v 0.220191 0.765426 -0.288358
v 0.237662 0.587199 -0.279614
v 0.1957 0.147552 -0.111875
v 0.000969624 0.943653 -0.111875
v 0.000969624 0.922694 -0.293229
v 0.083909 0.901736 -0.2936
v 0.125844 0.880777 -0.2936
v 0.167753 0.838861 -0.2936
v 0.188733 0.817822 -0.2936
v 0.22543 0.450889 -0.283115
v 0.195674 0.147552 -0.279299
v 0.19921 0.828301 -0.288358
v 0.220191 0.786384 -0.277873
v 0.22543 0.775905 -0.275242
v 0.223675 0.754947 -0.286598
v 0.237662 0.650075 -0.279614
v 0.246411 0.57664 -0.262127
v 0.258643 0.147552 -0.111875
v 0.083909 0.943653 -0.111875
v 0.000969624 0.964611 -0.167782
v 0.000969624 0.923654 -0.2931
v 0.0104894 0.933174 -0.288358
v 0.0943862 0.912215 -0.288358
v 0.136321 0.891257 -0.288358
v 0.178256 0.84934 -0.288358
v 0.246411 0.450889 -0.241157
v 0.216921 0.147552 -0.23723
v 0.209927 0.147552 -0.251197
v 0.19594 0.147552 -0.278836
v 0.202721 0.831821 -0.279614
v 0.246411 0.796864 -0.212333
v 0.246411 0.754947 -0.233303
v 0.230668 0.754947 -0.272612
v 0.251649 0.650075 -0.251642
v 0.251649 0.587199 -0.251642
v 0.26912 0.328579 -0.111875
v 0.230668 0.147552 -0.209703
v 0.27263 0.524324 -0.188751
v 0.27263 0.482407 -0.167782
v 0.108373 0.947172 -0.143311
v 0.0909026 0.950692 -0.139828
v 0.0769154 0.957652 -0.153796
v 0.0629282 0.964611 -0.167782
v 0.114649 0.932534 -0.111875
v 0.000969624 0.964611 -0.209703
v 0.000969624 0.936373 -0.286764
v 0.0209931 0.938453 -0.275242
v 0.104863 0.917495 -0.275242
v 0.115367 0.912215 -0.277873
v 0.139805 0.894776 -0.279614
v 0.178256 0.891257 -0.235915
v 0.19921 0.870298 -0.235915
v 0.251649 0.461449 -0.230672
v 0.223914 0.147552 -0.223244
v 0.220191 0.84934 -0.214945
v 0.241172 0.807343 -0.214945
v 0.244656 0.810863 -0.195735
v 0.251649 0.796864 -0.188751
v 0.251649 0.775905 -0.209703
v 0.251649 0.733988 -0.230672
v 0.27263 0.691992 -0.188751
v 0.27263 0.44041 -0.125842
v 0.27263 0.44041 -0.111875
v 0.136321 0.933174 -0.136327
v 0.153765 0.929734 -0.160798
v 0.125844 0.943653 -0.167782
v 0.0943862 0.954132 -0.157297
v 0.083909 0.959412 -0.170412
v 0.0629282 0.964611 -0.188751
v 0.181766 0.894776 -0.111875
v 0.0209931 0.964611 -0.209703
v 0.000969624 0.943413 -0.272741
v 0.000969624 0.936773 -0.286079
v 0.0419474 0.959412 -0.212333
v 0.0629282 0.938453 -0.254272
v 0.125844 0.938453 -0.212333
v 0.136321 0.912215 -0.256884
v 0.136321 0.933174 -0.214945
v 0.18174 0.894776 -0.216705
v 0.195727 0.887737 -0.202737
v 0.202721 0.873738 -0.216705
v 0.223675 0.85278 -0.195735
v 0.241172 0.828301 -0.173024
v 0.246411 0.817822 -0.170412
v 0.248139 0.814382 -0.150313
v 0.27263 0.71303 -0.167782
v 0.27263 0.629116 -0.111875
v 0.153765 0.929734 -0.181768
v 0.194318 0.886377 -0.111875
v 0.195727 0.887737 -0.11884
v 0.216681 0.866778 -0.160798
v 0.125844 0.943653 -0.188751
v 0.139805 0.936693 -0.195735
v 0.216681 0.866778 -0.181768
v 0.235907 0.838861 -0.165151
v 0.251649 0.796864 -0.111875
v 0.241172 0.828301 -0.136327
v 0.237662 0.824862 -0.111875
f 1 2 6
f 1 6 11
f 1 11 23
f 1 23 41
f 1 41 40
f 1 40 39
f 1 39 66
f 1 66 49
f 1 49 30
f 1 30 15
f 1 15 7
f 1 7 3
f 1 3 8
f 1 8 16
f 1 16 32
f 1 32 57
f 1 57 84
f 1 84 85
f 1 85 58
f 1 58 33
f 1 33 17
f 1 17 9
f 1 9 4
f 1 4 2
f 2 5 6
f 2 4 5
f 3 7 8
f 4 9 12
f 4 12 5
f 5 10 11
f 5 11 6
f 5 12 13
f 5 13 14
f 5 14 10
f 7 15 8
f 8 15 30
f 8 30 48
f 8 48 75
f 8 75 99
f 8 99 108
f 8 108 110
f 8 110 101
f 8 101 82
f 8 82 56
f 8 56 31
f 8 31 16
f 9 17 18
f 9 18 19
f 9 19 20
f 9 20 21
f 9 21 12
f 10 22 23
f 10 23 11
f 10 14 22
f 12 21 24
f 12 24 13
f 13 24 25
f 13 25 26
f 13 26 27
f 13 27 28
f 13 28 14
f 14 28 29
f 14 29 22
f 16 31 55
f 16 55 32
f 17 33 18
f 18 33 34
f 18 34 35
f 18 35 36
f 18 36 19
f 19 36 37
f 19 37 20
f 20 37 21
f 21 37 24
f 22 38 66
f 22 66 39
f 22 39 40
f 22 40 41
f 22 41 23
f 22 29 38
f 24 37 42
f 24 42 25
f 25 42 26
f 26 42 43
f 26 43 44
f 26 44 72
f 26 72 45
f 26 45 27
f 27 45 46
f 27 46 28
f 28 46 29
f 29 46 47
f 29 47 65
f 29 65 38
f 30 49 50
f 30 50 51
f 30 51 48
f 31 52 53
f 31 53 54
f 31 54 55
f 31 56 52
f 32 55 81
f 32 81 83
f 32 83 57
f 33 58 34
f 34 58 59
f 34 59 35
f 35 60 61
f 35 61 36
f 35 59 60
f 36 61 62
f 36 62 37
f 37 62 63
f 37 63 64
f 37 64 42
f 38 65 49
f 38 49 66
f 42 67 68
f 42 68 43
f 42 64 67
f 43 68 69
f 43 69 70
f 43 70 71
f 43 71 72
f 43 72 44
f 45 72 46
f 46 72 73
f 46 73 50
f 46 50 47
f 47 50 65
f 48 51 74
f 48 74 75
f 49 65 50
f 50 73 98
f 50 98 99
f 50 99 75
f 50 75 74
f 50 74 51
f 52 56 76
f 52 76 77
f 52 77 78
f 52 78 79
f 52 79 55
f 52 55 54
f 52 54 53
f 55 80 81
f 55 79 80
f 56 82 76
f 57 83 84
f 58 85 59
f 59 85 84
f 59 84 83
f 59 83 86
f 59 86 87
f 59 87 60
f 60 87 88
f 60 88 61
f 61 89 62
f 61 88 90
f 61 90 89
f 62 89 63
f 63 91 92
f 63 92 64
f 63 89 90
f 63 90 105
f 63 105 91
f 64 92 93
f 64 93 67
f 67 94 69
f 67 69 68
f 67 93 94
f 69 94 95
f 69 95 96
f 69 96 70
f 70 96 97
f 70 97 98
f 70 98 71
f 71 98 73
f 71 73 72
f 76 82 77
f 77 100 105
f 77 105 104
f 77 104 78
f 77 82 101
f 77 101 102
f 77 102 103
f 77 103 106
f 77 106 100
f 78 104 80
f 78 80 79
f 80 104 81
f 81 86 83
f 81 104 88
f 81 88 87
f 81 87 86
f 88 105 90
f 88 104 105
f 91 105 100
f 91 100 92
f 92 100 106
f 92 106 94
f 92 94 93
f 94 106 107
f 94 107 95
f 95 107 96
f 96 107 97
f 97 108 98
f 97 107 109
f 97 109 108
f 98 108 99
f 101 110 102
f 102 110 109
f 102 109 103
f 103 109 107
f 103 107 106
f 108 109 110
o convex_1
v -0.314424 0.147552 -0.209127
v -0.313899 0.147552 -0.211061
v -0.314424 0.147552 -0.188747
v -0.272623 0.691992 -0.188747
v -0.272623 0.671033 -0.209734
v -0.308003 0.147552 -0.225431
v -0.272623 0.587199 -0.230683
v -0.314208 0.147552 -0.146148
v -0.293585 0.377535 -0.125844
v -0.272623 0.629116 -0.125844
v -0.267374 0.723509 -0.178263
v -0.251629 0.796864 -0.188747
v -0.244652 0.699031 -0.265623
v -0.251629 0.775905 -0.209734
v -0.251629 0.754947 -0.230683
v -0.244652 0.761906 -0.244655
v -0.265615 0.17483 -0.307578
v -0.28704 0.147552 -0.267367
v -0.265615 0.594159 -0.244655
v -0.305131 0.147552 -0.120895
v -0.291115 0.382495 -0.120895
v -0.272623 0.608158 -0.120895
v -0.27077 0.629116 -0.120895
v -0.270153 0.634076 -0.120895
v -0.24919 0.780865 -0.120895
v -0.251629 0.775905 -0.125844
v -0.251629 0.796864 -0.167779
v -0.246412 0.807343 -0.157295
v -0.237675 0.824862 -0.188747
v -0.246412 0.799503 -0.209734
v -0.237675 0.685032 -0.279614
v -0.244652 0.5732 -0.28661
v -0.22369 0.761906 -0.28661
v -0.246412 0.778545 -0.230683
v -0.241164 0.781185 -0.241167
v -0.251629 0.167791 -0.314554
v -0.252988 0.147552 -0.313891
v -0.265615 0.147552 -0.307578
v -0.244652 0.426491 -0.307578
v -0.242306 0.147552 -0.120895
v -0.22369 0.831821 -0.120895
v -0.238539 0.817822 -0.146811
v -0.225419 0.84934 -0.157295
v -0.237675 0.824862 -0.167779
v -0.230667 0.838861 -0.188747
v -0.225419 0.84142 -0.209734
v -0.220201 0.84406 -0.220199
v -0.241164 0.802143 -0.220199
v -0.237675 0.559201 -0.300582
v -0.220201 0.781185 -0.283102
v -0.202696 0.803903 -0.28661
v -0.209704 0.754947 -0.293586
v -0.209704 0.631756 -0.309322
v -0.220201 0.634316 -0.30407
v -0.251629 0.147552 -0.314554
v -0.230667 0.419452 -0.314554
v -0.22369 0.5732 -0.307578
v 0.000969609 0.147552 -0.167779
v 0.000969609 0.872778 -0.120895
v -0.216682 0.84582 -0.120895
v -0.230667 0.838861 -0.167779
v -0.216682 0.866778 -0.167779
v -0.216682 0.866778 -0.188747
v -0.195719 0.887737 -0.209734
v -0.199208 0.865019 -0.241167
v -0.199208 0.823102 -0.283102
v -0.181734 0.84582 -0.28661
v -0.167749 0.838861 -0.293586
v -0.188742 0.650075 -0.314554
v -0.209704 0.566161 -0.314554
v -0.230667 0.147552 -0.314554
v 0.000969609 0.147552 -0.293586
v 0.000969609 0.943653 -0.120895
v -0.174757 0.887737 -0.120895
v -0.174757 0.908695 -0.167779
v -0.174757 0.908695 -0.209734
v -0.178245 0.885977 -0.241167
v -0.146817 0.883417 -0.288354
v -0.174757 0.866778 -0.272619
v -0.167749 0.862379 -0.288354
v -0.178245 0.854539 -0.283102
v -0.146817 0.859819 -0.293586
v -0.125855 0.71303 -0.314554
v -0.209704 0.188749 -0.314554
v -0.010515 0.57664 -0.309322
v 0.000969609 0.587199 -0.301094
v 0.000969609 0.964611 -0.167779
v -0.0789593 0.943653 -0.120895
v -0.151541 0.908295 -0.120895
v -0.153794 0.908695 -0.125844
v -0.149441 0.917495 -0.146811
v -0.160771 0.915735 -0.167779
v -0.157283 0.917495 -0.220199
v -0.153794 0.887737 -0.272619
v -0.13632 0.896456 -0.283102
v -0.115358 0.907015 -0.283102
v -0.0943956 0.917495 -0.283102
v -0.104861 0.904376 -0.288354
v -0.125855 0.880777 -0.293586
v -0.0629365 0.671033 -0.314554
v -0.0838989 0.901736 -0.293586
v -0.0209807 0.922694 -0.293586
v -1.82994e-05 0.922694 -0.293586
v -0.0524398 0.744468 -0.309322
v -0.104861 0.503366 -0.314554
v 0.000969609 0.922694 -0.293226
v 0.000969609 0.588159 -0.301094
v 0.000969609 0.964611 -0.209734
v -0.0629365 0.964611 -0.167779
v -0.0845164 0.942453 -0.120895
v -0.148052 0.910375 -0.120895
v -0.137154 0.916135 -0.120895
v -0.126472 0.921494 -0.120895
v -0.107486 0.938453 -0.146811
v -0.090907 0.950692 -0.167779
v -0.132832 0.929734 -0.167779
v -0.125855 0.909575 -0.272619
v -0.132832 0.929734 -0.209734
v -0.115358 0.938453 -0.220199
v -0.0314774 0.938453 -0.283102
v -0.0838989 0.915735 -0.28661
v -0.0209807 0.936693 -0.28661
v 0.000969609 0.923654 -0.293112
v 0.000969609 0.943413 -0.272751
v -1.82994e-05 0.943653 -0.272619
v -0.0209807 0.964611 -0.209734
v -0.0629365 0.964611 -0.188747
v -0.0734023 0.959412 -0.199231
v -0.090907 0.950692 -0.188747
v -1.82994e-05 0.936693 -0.28661
v -0.0314774 0.959412 -0.220199
v -0.0209807 0.943653 -0.272619
v 0.000969609 0.936373 -0.286761
v 0.000969609 0.936773 -0.286079
f 111 112 116
f 111 116 128
f 111 128 148
f 111 148 147
f 111 147 165
f 111 165 181
f 111 181 182
f 111 182 168
f 111 168 150
f 111 150 130
f 111 130 118
f 111 118 113
f 111 113 114
f 111 114 115
f 111 115 112
f 112 115 117
f 112 117 116
f 113 118 114
f 114 118 119
f 114 119 120
f 114 120 121
f 114 121 122
f 114 122 124
f 114 124 115
f 115 123 117
f 115 124 125
f 115 125 126
f 115 126 123
f 116 127 128
f 116 117 129
f 116 129 127
f 117 123 129
f 118 130 119
f 119 130 131
f 119 131 132
f 119 132 120
f 120 133 134
f 120 134 135
f 120 135 136
f 120 136 121
f 120 132 133
f 121 136 137
f 121 137 122
f 122 137 138
f 122 138 139
f 122 139 140
f 122 140 124
f 123 141 142
f 123 142 129
f 123 126 143
f 123 143 141
f 124 140 144
f 124 144 125
f 125 144 126
f 126 144 145
f 126 145 143
f 127 146 147
f 127 147 148
f 127 148 128
f 127 129 142
f 127 142 149
f 127 149 166
f 127 166 146
f 130 150 169
f 130 169 183
f 130 183 198
f 130 198 220
f 130 220 223
f 130 223 222
f 130 222 221
f 130 221 199
f 130 199 184
f 130 184 170
f 130 170 151
f 130 151 135
f 130 135 134
f 130 134 133
f 130 133 132
f 130 132 131
f 135 151 152
f 135 152 138
f 135 138 137
f 135 137 136
f 138 152 153
f 138 153 154
f 138 154 139
f 139 154 171
f 139 171 155
f 139 155 140
f 140 155 156
f 140 156 157
f 140 157 158
f 140 158 145
f 140 145 144
f 141 159 142
f 141 143 159
f 142 159 149
f 143 145 160
f 143 160 161
f 143 161 162
f 143 162 163
f 143 163 164
f 143 164 159
f 145 158 157
f 145 157 160
f 146 165 147
f 146 166 180
f 146 180 179
f 146 179 193
f 146 193 210
f 146 210 215
f 146 215 194
f 146 194 181
f 146 181 165
f 149 159 167
f 149 167 180
f 149 180 166
f 150 168 169
f 151 170 152
f 152 170 153
f 153 155 171
f 153 171 154
f 153 170 172
f 153 172 173
f 153 173 155
f 155 173 156
f 156 173 157
f 157 173 174
f 157 174 175
f 157 175 176
f 157 176 160
f 159 164 167
f 160 176 177
f 160 177 161
f 161 177 178
f 161 178 162
f 162 178 179
f 162 179 163
f 163 179 180
f 163 180 167
f 163 167 164
f 168 182 196
f 168 196 217
f 168 217 216
f 168 216 233
f 168 233 243
f 168 243 244
f 168 244 234
f 168 234 218
f 168 218 197
f 168 197 183
f 168 183 169
f 170 184 185
f 170 185 172
f 172 185 186
f 172 186 174
f 172 174 173
f 174 186 187
f 174 187 175
f 175 187 188
f 175 188 189
f 175 189 190
f 175 190 191
f 175 191 177
f 175 177 176
f 177 191 190
f 177 190 178
f 178 190 188
f 178 188 192
f 178 192 179
f 179 192 193
f 181 194 182
f 182 194 195
f 182 195 196
f 183 197 219
f 183 219 198
f 184 199 200
f 184 200 185
f 185 200 201
f 185 201 202
f 185 202 203
f 185 203 186
f 186 203 187
f 187 203 204
f 187 204 188
f 188 204 205
f 188 205 206
f 188 206 207
f 188 207 208
f 188 208 211
f 188 211 209
f 188 209 192
f 188 190 189
f 192 209 193
f 193 209 211
f 193 211 212
f 193 212 213
f 193 213 214
f 193 214 210
f 194 215 195
f 195 210 213
f 195 213 216
f 195 216 217
f 195 217 196
f 195 215 210
f 197 218 236
f 197 236 237
f 197 237 219
f 198 219 220
f 199 221 200
f 200 221 201
f 201 221 222
f 201 222 223
f 201 223 220
f 201 220 224
f 201 224 225
f 201 225 226
f 201 226 202
f 202 226 203
f 203 227 205
f 203 205 204
f 203 226 228
f 203 228 229
f 203 229 227
f 205 227 206
f 206 227 207
f 207 229 230
f 207 230 232
f 207 232 231
f 207 231 208
f 207 227 229
f 208 231 211
f 210 214 213
f 211 231 232
f 211 232 212
f 212 232 233
f 212 233 213
f 213 233 216
f 218 234 235
f 218 235 242
f 218 242 236
f 219 237 238
f 219 238 225
f 219 225 224
f 219 224 220
f 225 238 239
f 225 239 228
f 225 228 226
f 228 239 229
f 229 239 238
f 229 238 230
f 230 240 232
f 230 238 241
f 230 241 236
f 230 236 242
f 230 242 235
f 230 235 240
f 232 240 233
f 233 240 243
f 234 244 240
f 234 240 235
f 236 241 238
f 236 238 237
f 240 244 243
o convex_2
v -0.314522 -0.293609 -0.293602
v -0.314522 -0.275291 -0.293602
v -0.29359 -0.314587 -0.293602
v -0.29359 -0.422993 -0.272614
v -0.314522 -0.398458 -0.272614
v -0.325059 -0.325069 -0.283108
v -0.328501 -0.286611 -0.286579
v -0.328501 -0.275291 -0.286579
v 0.104833 -0.275291 -0.293602
v -0.230651 -0.356515 -0.293602
v -0.318105 -0.422993 -0.265592
v -0.0838419 -0.377479 -0.293602
v 0.310998 -0.422993 -0.272614
v -0.325059 -0.422993 -0.262121
v -0.342479 -0.384477 -0.25861
v -0.339037 -0.276129 -0.276086
v -0.338195 -0.275291 -0.276924
v 0.293578 -0.275291 -0.272614
v 0.125766 -0.293609 -0.293602
v 0.0418945 -0.377479 -0.293602
v 0.0628974 -0.356515 -0.293602
v 0.314511 -0.419422 -0.272614
v 0.315002 -0.422993 -0.271737
v -0.345992 -0.422993 -0.220186
v -0.345992 -0.40894 -0.241134
v -0.339037 -0.401942 -0.255138
v -0.356458 -0.377479 -0.23068
v -0.345992 -0.283127 -0.262121
v -0.339389 -0.275291 -0.275288
v -0.339037 -0.275291 -0.275966
v -0.349925 -0.275291 -0.2543
v 0.3058 -0.275291 -0.26651
v 0.325047 -0.366997 -0.267348
v 0.314511 -0.377479 -0.272614
v 0.328489 -0.419422 -0.265632
v 0.326592 -0.422993 -0.265911
v -0.349434 -0.422993 -0.213244
v -0.353016 -0.415923 -0.206181
v -0.353016 -0.394959 -0.227169
v -0.355755 -0.422993 -0.188027
v -0.356458 -0.398458 -0.209693
v -0.361094 -0.275291 -0.172706
v -0.360392 -0.275291 -0.191379
v -0.356458 -0.275291 -0.23068
v 0.319779 -0.275291 -0.259527
v 0.321535 -0.275291 -0.25861
v 0.328489 -0.377479 -0.265632
v 0.329121 -0.422993 -0.264435
v -0.355755 -0.422993 -0.171309
v -0.356458 -0.419422 -0.188705
v -0.361094 -0.275291 -0.170032
v 0.336146 -0.275291 -0.230321
v 0.351248 -0.293609 -0.212326
v 0.342468 -0.314587 -0.237662
v 0.356516 -0.314587 -0.209693
v 0.333757 -0.422993 -0.255218
v -0.355615 -0.422993 -0.167319
v -0.356458 -0.419422 -0.167758
v -0.356458 -0.275291 -0.128457
v 0.343381 -0.275291 -0.216236
v 0.349703 -0.275291 -0.203907
v 0.355814 -0.275291 -0.191698
v 0.356516 -0.275291 -0.188705
v 0.356516 -0.422993 -0.209693
v 0.355322 -0.422993 -0.212087
v -0.334612 -0.422993 -0.125345
v -0.330257 -0.377479 -0.0812956
v -0.330257 -0.366997 -0.0734354
v -0.355826 -0.275291 -0.125464
v 0.356516 -0.275291 -0.167758
v 0.356516 -0.422993 -0.125824
v -0.328782 -0.422993 -0.113774
v -0.322741 -0.422993 -0.102004
v -0.321266 -0.422993 -0.0994898
v -0.243436 -0.422993 0.0145434
v -0.288321 -0.314587 0.0235607
v -0.286565 -0.293609 0.0349321
v -0.29359 -0.293609 0.0209672
v -0.288321 -0.283127 0.0314209
v -0.282421 -0.275291 0.0392812
v 0.356516 -0.335551 -0.125824
v 0.316548 -0.275291 0.041316
v 0.316407 -0.275291 0.0417549
v 0.314511 -0.335551 0.0209672
v 0.307556 -0.342549 0.0349321
v 0.293578 -0.422993 0.0209672
v -0.234234 -0.422993 0.0191717
v -0.254253 -0.275291 0.0674503
v -0.272587 -0.293609 0.0497748
v -0.283053 -0.304091 0.0366877
v -0.279471 -0.275291 0.042912
v -0.281227 -0.275291 0.0410368
v 0.297722 -0.275291 0.0670513
v 0.286554 -0.422993 0.0349321
v -0.229317 -0.275291 0.0736747
v -0.0874243 -0.422993 0.040159
v -0.0104371 -0.40894 0.057635
v -0.0104371 -0.304091 0.0996094
v 0.167771 -0.275291 0.0995695
v 0.272575 -0.422993 0.0419145
v 0.27974 -0.422993 0.0383635
v -4.10618e-05 -0.275291 0.111699
v -0.0244859 -0.422993 0.0484581
v -4.10618e-05 -0.422993 0.0506127
v -4.10618e-05 -0.412439 0.0559193
v -4.10618e-05 -0.398458 0.0629018
v -4.10618e-05 -0.293609 0.104836
v 0.104833 -0.275291 0.114013
v 0.104833 -0.398458 0.0629018
v 0.104833 -0.412439 0.0559193
v 0.104833 -0.422993 0.0506127
v 0.0209618 -0.275291 0.114013
f 245 246 253
f 245 253 263
f 245 263 265
f 245 265 264
f 245 264 256
f 245 256 254
f 245 254 247
f 245 247 248
f 245 248 249
f 245 249 250
f 245 250 251
f 245 251 252
f 245 252 246
f 246 252 261
f 246 261 274
f 246 274 273
f 246 273 275
f 246 275 288
f 246 288 287
f 246 287 286
f 246 286 295
f 246 295 303
f 246 303 313
f 246 313 324
f 246 324 336
f 246 336 335
f 246 335 332
f 246 332 339
f 246 339 346
f 246 346 356
f 246 356 352
f 246 352 343
f 246 343 337
f 246 337 327
f 246 327 326
f 246 326 314
f 246 314 307
f 246 307 306
f 246 306 305
f 246 305 304
f 246 304 296
f 246 296 290
f 246 290 289
f 246 289 276
f 246 276 262
f 246 262 253
f 247 254 248
f 248 255 249
f 248 254 256
f 248 256 264
f 248 264 257
f 248 257 267
f 248 267 280
f 248 280 292
f 248 292 300
f 248 300 309
f 248 309 308
f 248 308 315
f 248 315 330
f 248 330 338
f 248 338 345
f 248 345 344
f 248 344 355
f 248 355 348
f 248 348 347
f 248 347 340
f 248 340 331
f 248 331 319
f 248 319 318
f 248 318 317
f 248 317 316
f 248 316 310
f 248 310 301
f 248 301 293
f 248 293 284
f 248 284 281
f 248 281 268
f 248 268 258
f 248 258 255
f 249 255 250
f 250 255 258
f 250 258 259
f 250 259 251
f 251 259 260
f 251 260 252
f 252 260 261
f 253 262 263
f 257 264 265
f 257 265 263
f 257 263 266
f 257 266 267
f 258 268 269
f 258 269 270
f 258 270 259
f 259 270 269
f 259 269 271
f 259 271 272
f 259 272 260
f 260 273 274
f 260 274 261
f 260 272 275
f 260 275 273
f 262 276 277
f 262 277 278
f 262 278 263
f 263 278 266
f 266 278 291
f 266 291 279
f 266 279 267
f 267 279 280
f 268 281 269
f 269 281 282
f 269 282 283
f 269 283 271
f 271 283 284
f 271 284 285
f 271 285 286
f 271 286 287
f 271 287 288
f 271 288 275
f 271 275 272
f 276 289 277
f 277 289 290
f 277 290 291
f 277 291 278
f 279 291 292
f 279 292 280
f 281 284 282
f 282 284 283
f 284 293 302
f 284 302 294
f 284 294 285
f 285 294 286
f 286 294 302
f 286 302 295
f 290 296 297
f 290 297 298
f 290 298 291
f 291 298 299
f 291 299 300
f 291 300 292
f 293 301 302
f 295 302 303
f 296 304 297
f 297 305 306
f 297 306 299
f 297 299 298
f 297 304 305
f 299 306 307
f 299 307 314
f 299 314 325
f 299 325 315
f 299 315 308
f 299 308 309
f 299 309 300
f 301 310 311
f 301 311 312
f 301 312 302
f 302 313 303
f 302 312 313
f 310 316 311
f 311 316 317
f 311 317 312
f 312 317 318
f 312 318 319
f 312 319 320
f 312 320 321
f 312 321 322
f 312 322 313
f 313 322 323
f 313 323 324
f 314 326 325
f 315 326 327
f 315 327 328
f 315 328 329
f 315 329 330
f 315 325 326
f 319 331 332
f 319 332 333
f 319 333 334
f 319 334 320
f 320 334 321
f 321 334 333
f 321 333 335
f 321 335 336
f 321 336 323
f 321 323 322
f 323 336 324
f 327 337 329
f 327 329 328
f 329 337 338
f 329 338 330
f 331 339 332
f 331 340 341
f 331 341 342
f 331 342 339
f 332 335 333
f 337 343 344
f 337 344 345
f 337 345 338
f 339 342 346
f 340 347 341
f 341 347 348
f 341 348 349
f 341 349 350
f 341 350 342
f 342 350 351
f 342 351 346
f 343 352 344
f 344 352 353
f 344 353 354
f 344 354 355
f 346 351 356
f 348 355 354
f 348 354 349
f 349 354 353
f 349 353 350
f 350 353 352
f 350 352 356
f 350 356 351
o convex_3
v 0.188758 0.634385 0.21088
v 0.209717 0.629143 0.209711
v 0.208668 0.634385 0.208637
v 0.167784 0.634385 0.207405
v 0.188758 0.608171 0.209711
v 0.209717 0.566229 0.209711
v 0.22371 0.622136 0.202698
v 0.214961 0.634385 0.204467
v 0.237672 0.594159 0.195716
v 0.16254 0.634385 0.20314
v 0.178271 0.597686 0.204467
v 0.19923 0.555743 0.204467
v 0.22371 0.559223 0.202698
v 0.237672 0.573188 0.195716
v 0.272624 0.209719 0.146781
v 0.272624 0.377488 0.167758
v 0.286602 0.370529 0.160776
v 0.225463 0.634385 0.193978
v 0.221253 0.634385 0.200265
v 0.279605 0.531245 0.153763
v 0.258647 0.61513 0.153763
v 0.234198 0.611651 0.192209
v 0.286602 0.391453 0.160776
v 0.157297 0.634385 0.197264
v 0.258647 0.147472 0.118823
v 0.262137 0.199233 0.141537
v 0.272624 0.147472 0.125805
v 0.293599 0.147472 0.125805
v 0.286602 0.20276 0.139799
v 0.30058 0.216725 0.132818
v 0.314229 0.147472 0.105523
v 0.254796 0.634385 0.14994
v 0.293599 0.524287 0.125805
v 0.293599 0.398459 0.146781
v 0.154683 0.634385 0.193978
v 0.251869 0.147472 0.105302
v 0.259085 0.147472 0.119044
v 0.294272 0.147472 0.125489
v 0.307577 0.147472 0.118823
v 0.314573 0.147472 0.104828
v 0.314573 0.314575 0.104828
v 0.262137 0.618657 0.136293
v 0.271576 0.634385 0.0199424
v 0.293599 0.566229 -0.0209682
v 0.267381 0.608171 0.123182
v 0.154683 0.634385 0.152025
v 0.195724 0.147472 -0.111856
v 0.235919 0.167776 0.0655285
v 0.25165 0.147472 0.104828
v 0.314573 0.147472 8.32673e-06
v 0.314573 0.314575 0.083883
v 0.272624 0.634385 8.32673e-06
v 0.272624 0.629143 -0.111856
v 0.271576 0.634385 -0.111856
v 0.272624 0.634385 -0.0786222
v 0.314573 0.293603 0.0209849
v 0.293599 0.524287 -0.0419132
v 0.159911 0.634385 0.117938
v 0.195724 0.419383 -0.111856
v 0.258631 0.147472 -0.111856
v 0.314573 0.188747 8.32673e-06
v 0.265863 0.147472 -0.097419
v 0.269118 0.328587 -0.111856
v 0.272624 0.335546 -0.104843
v 0.272624 0.440402 -0.111856
v 0.227201 0.634385 -0.111856
v 0.216714 0.634385 -0.111825
v 0.216698 0.629095 -0.111856
f 357 358 359
f 357 359 364
f 357 364 375
f 357 375 374
f 357 374 388
f 357 388 399
f 357 399 408
f 357 408 411
f 357 411 410
f 357 410 422
f 357 422 423
f 357 423 414
f 357 414 402
f 357 402 391
f 357 391 380
f 357 380 366
f 357 366 360
f 357 360 361
f 357 361 362
f 357 362 358
f 358 363 364
f 358 364 359
f 358 362 370
f 358 370 365
f 358 365 363
f 360 366 367
f 360 367 368
f 360 368 362
f 360 362 361
f 362 369 370
f 362 368 382
f 362 382 371
f 362 371 372
f 362 372 373
f 362 373 369
f 363 374 375
f 363 375 364
f 363 365 374
f 365 376 377
f 365 377 378
f 365 378 374
f 365 370 373
f 365 373 379
f 365 379 376
f 366 380 381
f 366 381 382
f 366 382 367
f 367 382 368
f 369 373 370
f 371 382 383
f 371 383 384
f 371 384 385
f 371 385 373
f 371 373 372
f 373 385 386
f 373 386 387
f 373 387 379
f 374 378 388
f 376 389 377
f 376 379 390
f 376 390 389
f 377 388 378
f 377 389 388
f 379 387 390
f 380 391 381
f 381 392 405
f 381 405 403
f 381 403 416
f 381 416 418
f 381 418 406
f 381 406 396
f 381 396 387
f 381 387 395
f 381 395 394
f 381 394 384
f 381 384 383
f 381 383 393
f 381 393 382
f 381 391 392
f 382 393 383
f 384 394 385
f 385 394 395
f 385 395 386
f 386 395 387
f 387 396 397
f 387 397 390
f 388 398 399
f 388 389 398
f 389 400 399
f 389 399 401
f 389 401 398
f 389 390 397
f 389 397 400
f 391 402 403
f 391 403 404
f 391 404 405
f 391 405 392
f 396 406 417
f 396 417 412
f 396 412 407
f 396 407 397
f 397 407 400
f 398 401 399
f 399 400 408
f 400 409 410
f 400 410 411
f 400 411 408
f 400 407 412
f 400 412 413
f 400 413 409
f 402 414 403
f 403 415 424
f 403 424 422
f 403 422 410
f 403 410 409
f 403 409 421
f 403 421 419
f 403 419 416
f 403 405 404
f 403 414 415
f 406 418 419
f 406 419 420
f 406 420 421
f 406 421 409
f 406 409 417
f 409 413 417
f 412 417 413
f 414 423 415
f 415 423 424
f 416 419 418
f 419 421 420
f 422 424 423
o convex_4
v -0.257673 0.673812 -0.120895
v -0.257673 0.676031 -0.120895
v -0.198607 0.673812 -0.120895
v -0.246356 0.673812 0.125881
v -0.246406 0.68158 0.136311
v -0.251647 0.755001 -0.10485
v -0.251647 0.755001 -0.120895
v 0.000969624 0.872782 -0.120895
v 0.000969624 0.79693 0.188715
v -0.145415 0.673812 0.167746
v -0.245115 0.673812 0.1389
v -0.237773 0.673812 0.152868
v -0.215646 0.673812 0.190539
v -0.238533 0.692068 0.146777
v -0.225444 0.723535 0.15728
v -0.225444 0.82837 -0.073378
v -0.249191 0.780893 -0.120895
v -0.249799 0.775952 -0.120895
v 0.000969624 0.943693 -0.120895
v 0.000969624 0.79693 0.230653
v -0.145415 0.673812 0.188715
v -0.202709 0.673812 0.202719
v -0.202709 0.692068 0.202719
v -0.204456 0.702557 0.199218
v -0.175619 0.755001 0.209684
v -0.204456 0.765463 0.15728
v -0.183493 0.870298 -0.073378
v -0.174758 0.887788 -0.10485
v -0.216684 0.845833 -0.10485
v -0.222051 0.83516 -0.120895
v -0.199215 0.770721 0.15728
v -0.0789573 0.943693 -0.120895
v 0.000969624 0.943693 -0.0419429
v 0.000969624 0.797247 0.23131
v -0.15134 0.673812 0.205126
v -0.200886 0.673812 0.203631
v -0.157264 0.702557 0.225438
v -0.160758 0.755001 0.223688
v -0.174758 0.734024 0.216686
v -0.162505 0.765463 0.220187
v -0.152023 0.786441 0.220187
v -0.15377 0.803931 0.188715
v -0.11187 0.845833 0.188715
v -0.15377 0.887788 -0.0419429
v -0.151517 0.908343 -0.120895
v -0.174758 0.887788 -0.120895
v -0.216684 0.845833 -0.120895
v -0.0845272 0.942478 -0.120895
v -0.0629314 0.943693 -0.0838807
v -1.77531e-05 0.943693 -0.0419429
v 0.000969624 0.901765 0.125809
v 0.000969624 0.803931 0.244657
v -0.167771 0.673812 0.210705
v -0.188733 0.673812 0.209684
v 0.000969624 0.804565 0.244985
v 0.000969624 0.817881 0.251659
v -0.0838942 0.79693 0.251659
v -0.146783 0.734024 0.230653
v -0.146783 0.755001 0.230653
v -0.185999 0.673812 0.210705
v -0.149416 0.775952 0.225438
v -0.0891349 0.82837 0.241156
v -0.13106 0.807419 0.220187
v -0.110123 0.82837 0.220187
v -0.0891349 0.849347 0.220187
v -0.0865272 0.854578 0.209684
v -0.128427 0.896533 -0.0209375
v -0.128427 0.917485 -0.10485
v -0.148023 0.910404 -0.120895
v -0.137137 0.916164 -0.120895
v -0.0865272 0.938462 -0.10485
v -0.0655391 0.938462 -0.0629118
v -0.0419433 0.943693 -0.0629118
v -0.0209805 0.901765 0.125809
v -0.00351156 0.8773 0.20622
v 0.000969624 0.875054 0.210669
v 0.000969624 0.838858 0.251659
v -0.0419433 0.838858 0.251659
v -0.0655391 0.838858 0.246407
v -0.0865272 0.817881 0.246407
v -0.0681721 0.849347 0.241156
v -0.0655391 0.854578 0.230653
v -0.0236135 0.875556 0.209684
v -0.0655391 0.875556 0.167746
v -0.0865272 0.917485 -0.0209375
v 0.000969624 0.864592 0.231638
v 0.000969624 0.852835 0.244657
v -0.0489562 0.852835 0.244657
v -0.0262212 0.870298 0.220187
v -0.0183729 0.865067 0.230653
v 0.000969624 0.863508 0.233753
v 0.000969624 0.860787 0.236707
f 425 426 431
f 425 431 442
f 425 442 441
f 425 441 454
f 425 454 471
f 425 471 470
f 425 470 469
f 425 469 493
f 425 493 494
f 425 494 472
f 425 472 456
f 425 456 443
f 425 443 432
f 425 432 427
f 425 427 434
f 425 434 445
f 425 445 459
f 425 459 477
f 425 477 484
f 425 484 478
f 425 478 460
f 425 460 446
f 425 446 437
f 425 437 436
f 425 436 435
f 425 435 428
f 425 428 429
f 425 429 426
f 426 430 431
f 426 429 430
f 427 432 433
f 427 433 434
f 428 435 429
f 429 435 436
f 429 436 437
f 429 437 438
f 429 438 439
f 429 439 440
f 429 440 441
f 429 441 430
f 430 441 442
f 430 442 431
f 432 443 457
f 432 457 475
f 432 475 500
f 432 500 510
f 432 510 515
f 432 515 516
f 432 516 511
f 432 511 501
f 432 501 480
f 432 480 479
f 432 479 476
f 432 476 458
f 432 458 444
f 432 444 433
f 433 444 445
f 433 445 434
f 437 446 447
f 437 447 448
f 437 448 438
f 438 448 439
f 439 448 449
f 439 449 450
f 439 450 440
f 440 451 452
f 440 452 453
f 440 453 454
f 440 454 441
f 440 450 455
f 440 455 451
f 443 456 473
f 443 473 497
f 443 497 474
f 443 474 457
f 444 458 459
f 444 459 445
f 446 460 447
f 447 460 461
f 447 461 462
f 447 462 463
f 447 463 448
f 448 463 462
f 448 462 464
f 448 464 449
f 449 464 465
f 449 465 450
f 450 465 466
f 450 466 455
f 451 455 467
f 451 467 468
f 451 468 452
f 452 469 470
f 452 470 471
f 452 471 453
f 452 468 469
f 453 471 454
f 455 466 467
f 456 472 473
f 457 474 498
f 457 498 475
f 458 476 459
f 459 476 477
f 460 478 461
f 461 476 479
f 461 479 480
f 461 480 481
f 461 481 482
f 461 482 483
f 461 483 462
f 461 478 484
f 461 484 477
f 461 477 476
f 462 483 485
f 462 485 464
f 464 485 465
f 465 485 504
f 465 504 486
f 465 486 505
f 465 505 487
f 465 487 466
f 466 487 488
f 466 488 467
f 467 488 489
f 467 489 490
f 467 490 491
f 467 491 468
f 468 491 492
f 468 492 493
f 468 493 469
f 472 494 495
f 472 495 496
f 472 496 473
f 473 496 497
f 474 497 498
f 475 498 499
f 475 499 500
f 480 501 502
f 480 502 481
f 481 502 503
f 481 503 504
f 481 504 485
f 481 485 483
f 481 483 482
f 486 504 505
f 487 505 488
f 488 505 489
f 489 505 490
f 490 505 506
f 490 506 507
f 490 507 508
f 490 508 509
f 490 509 491
f 491 509 495
f 491 495 492
f 492 495 494
f 492 494 493
f 495 509 496
f 496 509 508
f 496 508 498
f 496 498 497
f 498 508 507
f 498 507 499
f 499 507 510
f 499 510 500
f 501 511 512
f 501 512 502
f 502 512 503
f 503 512 505
f 503 505 504
f 505 512 513
f 505 513 507
f 505 507 506
f 507 513 510
f 510 513 514
f 510 514 515
f 511 516 512
f 512 516 515
f 512 515 514
f 512 514 513
o convex_5
v -0.167778 0.673812 0.210736
v -0.151364 0.673812 0.205153
v -0.186037 0.673812 0.210736
v -0.188757 0.650112 0.209698
v -0.167778 0.647485 0.204471
v -0.145439 0.673812 0.188727
v -0.241172 0.162568 0.0943602
v -0.237139 0.147472 0.0790056
v -0.23087 0.147472 0.0636511
v -0.188757 0.673812 0.209698
v -0.19923 0.639602 0.204471
v -0.272624 0.167823 0.104845
v -0.251646 0.165195 0.0995865
v -0.145439 0.673812 0.167757
v -0.230683 0.147472 0.0629045
v -0.20972 0.209761 0.020996
v -0.251646 0.147472 0.0886793
v -0.200919 0.673812 0.203627
v -0.202732 0.650112 0.202718
v -0.216707 0.650112 0.195707
v -0.220209 0.555726 0.183501
v -0.283114 0.157313 0.0995865
v -0.272624 0.153809 0.0978661
v -0.272624 0.147472 0.0946848
v -0.266059 0.147472 0.0930617
v -0.198621 0.655007 -0.120895
v -0.198621 0.673812 -0.120895
v -0.230683 0.147472 -0.0209449
v -0.242313 0.147472 -0.120895
v -0.240547 0.157931 -0.120895
v -0.202732 0.673812 0.202718
v -0.21566 0.673812 0.190545
v -0.217583 0.671082 0.188727
v -0.22543 0.660571 0.178242
v -0.246409 0.597664 0.157272
v -0.23767 0.587154 0.174736
v -0.23767 0.566184 0.174736
v -0.258633 0.482308 0.153766
v -0.262135 0.388024 0.141527
v -0.265637 0.398483 0.139807
v -0.2866 0.167823 0.0978661
v -0.288022 0.147472 0.0873159
v -0.257664 0.673812 -0.120895
v -0.305124 0.147472 -0.120895
v -0.23778 0.673812 0.152857
v -0.267372 0.618633 0.115331
v -0.267372 0.513787 0.136301
v -0.258633 0.503277 0.153766
v -0.265637 0.503277 0.139807
v -0.293587 0.167823 0.0838749
v -0.3012 0.147472 0.0635537
v -0.288288 0.147472 0.0868614
v -0.2866 0.335576 0.0978661
v -0.246409 0.673709 0.125816
v -0.246362 0.673812 0.125881
v -0.270155 0.634038 -0.120895
v -0.303748 0.147472 0.0419665
v -0.293587 0.335576 0.0838749
v -0.291133 0.38246 -0.120895
v -0.245111 0.673812 0.138898
v -0.272624 0.587154 0.104845
v -0.272624 0.503277 0.125816
v -0.288351 0.346035 0.0943602
v -0.27078 0.629143 -0.120895
v -0.272624 0.608174 -0.104827
v -0.272624 0.608174 -0.120895
f 517 518 522
f 517 522 530
f 517 530 543
f 517 543 559
f 517 559 571
f 517 571 576
f 517 576 561
f 517 561 548
f 517 548 547
f 517 547 534
f 517 534 526
f 517 526 519
f 517 519 520
f 517 520 521
f 517 521 518
f 518 521 523
f 518 523 524
f 518 524 525
f 518 525 522
f 519 526 520
f 520 526 527
f 520 527 528
f 520 528 521
f 521 528 529
f 521 529 523
f 522 525 531
f 522 531 532
f 522 532 530
f 523 529 533
f 523 533 524
f 524 533 541
f 524 541 540
f 524 540 558
f 524 558 568
f 524 568 567
f 524 567 573
f 524 573 560
f 524 560 545
f 524 545 544
f 524 544 531
f 524 531 525
f 526 534 527
f 527 534 535
f 527 535 536
f 527 536 537
f 527 537 538
f 527 538 528
f 528 538 539
f 528 539 529
f 529 539 540
f 529 540 541
f 529 541 533
f 530 542 543
f 530 532 542
f 531 544 532
f 532 544 545
f 532 545 546
f 532 546 542
f 534 547 535
f 535 547 536
f 536 547 548
f 536 548 549
f 536 549 550
f 536 550 551
f 536 551 552
f 536 552 564
f 536 564 554
f 536 554 553
f 536 553 537
f 537 553 554
f 537 554 555
f 537 555 538
f 538 555 556
f 538 556 557
f 538 557 558
f 538 558 540
f 538 540 539
f 542 546 545
f 542 545 560
f 542 560 575
f 542 575 582
f 542 582 580
f 542 580 572
f 542 572 559
f 542 559 543
f 548 561 549
f 549 561 550
f 550 561 562
f 550 562 551
f 551 562 563
f 551 563 564
f 551 564 552
f 554 564 565
f 554 565 556
f 554 556 555
f 556 565 569
f 556 569 557
f 557 566 567
f 557 567 568
f 557 568 558
f 557 569 574
f 557 574 566
f 559 570 571
f 559 572 562
f 559 562 570
f 560 573 574
f 560 574 575
f 561 576 562
f 562 576 570
f 562 572 577
f 562 577 578
f 562 578 563
f 563 578 565
f 563 565 564
f 565 578 579
f 565 579 569
f 566 574 567
f 567 574 573
f 569 579 574
f 570 576 571
f 572 580 577
f 574 579 578
f 574 578 577
f 574 577 581
f 574 581 575
f 575 581 582
f 577 580 581
f 580 582 581
o convex_6
v 0.244623 -0.636134 0.0349225
v 0.16774 -0.796928 0.0629146
v 0.181694 -0.80394 0.055894
v 0.16774 -0.820493 0.0576492
v 0.230682 -0.883416 -0.0262288
v 0.188701 -0.90439 -0.00525932
v 0.178251 -0.917499 -0.010494
v 0.125819 -0.841468 0.0576492
v 0.14678 -0.817872 0.0629146
v 0.104798 -0.838846 0.0629146
v -0.0419249 -0.817872 0.0629146
v 5.64435e-05 -0.838846 0.0629146
v 0.0210169 -0.866801 0.0489042
v -0.010454 -0.849333 0.0576492
v -0.0523749 -0.828359 0.0576492
v -0.0733958 -0.807415 0.0576492
v -0.0628854 -0.796928 0.0629146
v 0.16774 -0.775954 0.0629146
v 0.230653 -0.629139 0.0419431
v 0.258593 -0.601188 0.0279326
v 0.223675 -0.741017 0.0349245
v 0.262093 -0.844089 -0.0314635
v 0.286556 -0.80394 -0.0489535
v 0.307577 -0.65712 -0.0489535
v 0.321558 -0.559248 -0.0559453
v 0.32851 -0.573228 -0.069925
v 0.349498 -0.573228 -0.111864
v 0.328538 -0.678094 -0.0908924
v 0.335545 -0.671113 -0.104841
v 0.35645 -0.566233 -0.125813
v 0.35645 -0.555626 -0.125813
v 0.321558 -0.555626 -0.0559453
v 0.258593 -0.555626 0.0279326
v 0.244623 -0.555626 0.0349225
v 0.237671 -0.555626 0.0349225
v 0.35645 -0.555626 -0.167752
v 0.35645 -0.587208 -0.167752
v 0.351286 -0.555626 -0.199098
v 0.342943 -0.555626 -0.213232
v 0.343407 -0.566233 -0.209691
v 0.35122 -0.597691 -0.178252
v 0.335545 -0.692087 -0.125811
v 0.35645 -0.587208 -0.146782
v 0.33029 -0.694709 -0.104841
v 0.309329 -0.757601 -0.0839026
v 0.293563 -0.796928 -0.0629331
v 0.314524 -0.754979 -0.104841
v 0.314524 -0.754979 -0.125811
v 0.309329 -0.765466 -0.136311
v 0.265596 -0.852839 -0.0629331
v 0.267348 -0.841468 -0.0419636
v 0.258589 -0.866801 -0.0629331
v 0.258589 -0.866801 -0.125811
v 0.195708 -0.929724 -0.0629331
v 0.237629 -0.887775 -0.0419636
v 0.241132 -0.875551 -0.0314635
v 0.244635 -0.866801 -0.027984
v 0.220172 -0.896525 -0.0314635
v 0.209661 -0.909634 -0.0419636
v 0.178251 -0.938473 -0.052433
v 0.16774 -0.930608 -0.0209941
v 0.136269 -0.938473 -0.010494
v 0.115309 -0.854576 0.0524145
v 0.0838379 -0.929724 0.00696519
v 0.104798 -0.852839 0.055894
v 0.0628774 -0.866801 0.0489042
v 0.0210169 -0.929724 0.00696519
v 0.0838379 -0.950698 -0.0140043
v 0.0210169 -0.950698 -0.0140043
v 0.0943483 -0.959448 -0.0314635
v 0.104798 -0.951582 -0.0209941
v 0.136269 -0.959448 -0.0734025
v 0.0838379 -0.964661 -0.0419636
v 0.0210169 -0.964661 -0.0419636
v 5.64435e-05 -0.959448 -0.0393463
v 5.64435e-05 -0.964661 -0.0629331
v -0.0628854 -0.943717 -0.0629331
v 5.64435e-05 -0.964661 -0.104841
v -0.0628854 -0.943717 -0.104841
v -0.0908528 -0.929724 -0.0699229
v -0.0768389 -0.936705 -0.0559433
v -0.139781 -0.894757 -0.0769128
v -0.0733958 -0.93323 -0.036729
v -0.0628854 -0.938473 -0.0393463
v -0.0419249 -0.938473 -0.0183768
v -0.0314145 -0.93323 -0.00525932
v -0.0523749 -0.93323 -0.0157287
v -0.0733958 -0.912256 -0.00525932
v -0.136277 -0.870307 -0.0262288
v -0.115317 -0.891281 -0.0262288
v -0.11882 -0.894757 -0.0349738
v -0.139781 -0.873813 -0.0349738
v -0.199219 -0.807415 -0.0471983
v -0.202723 -0.81089 -0.0559433
v -0.157238 -0.870307 -0.0576984
v -0.160741 -0.873813 -0.0769128
v -0.153734 -0.887775 -0.0908924
v -0.174755 -0.866801 -0.111831
v -0.244643 -0.747998 -0.118821
v -0.265604 -0.70605 -0.118821
v -0.272611 -0.692087 -0.125811
v -0.267356 -0.692087 -0.102224
v -0.2621 -0.702574 -0.0996066
v -0.244643 -0.727024 -0.0769128
v -0.307561 -0.580213 -0.118823
v -0.24114 -0.723548 -0.0681678
v -0.178198 -0.660626 0.0157102
v -0.258632 -0.608174 -0.0559453
v -0.300543 -0.566233 -0.0978843
v -0.314513 -0.566233 -0.125813
v -0.314513 -0.587208 -0.167752
v -0.300543 -0.615159 -0.174742
v -0.258597 -0.720043 -0.132801
v -0.304052 -0.597691 -0.199221
v -0.31107 -0.583711 -0.185242
v -0.31981 -0.555626 -0.178129
v -0.31981 -0.555626 -0.173048
v -0.314513 -0.555626 -0.125813
v -0.317161 -0.555626 -0.148106
v -0.300543 -0.555626 -0.0978843
v -0.188716 -0.555626 0.0209428
v -0.202686 -0.555626 0.013953
v -0.188716 -0.566233 0.0209428
v -0.202686 -0.566233 0.013953
v -0.199177 -0.576726 0.0157081
v -0.125827 -0.713061 0.0419143
v -0.136277 -0.723548 0.0366797
v -0.188709 -0.796928 -0.0340808
v -0.115317 -0.786441 0.0366797
v 0.104856 -0.555626 -0.27263
v -0.272603 -0.555626 -0.25163
v -0.299881 -0.555626 -0.236973
v -0.31246 -0.555626 -0.207628
v -0.304052 -0.576726 -0.220191
v -0.283064 -0.597691 -0.24116
v -0.2621 -0.660626 -0.220189
v -0.24114 -0.723548 -0.199219
v -0.2621 -0.702574 -0.15728
v -0.237636 -0.761991 -0.132801
v -0.216676 -0.761991 -0.195709
v -0.174755 -0.845827 -0.15377
v -0.132774 -0.887775 -0.15377
v -0.157238 -0.849333 -0.17825
v -0.178198 -0.828359 -0.17825
v -0.195716 -0.782965 -0.195709
v -0.206166 -0.751504 -0.206209
v -0.237636 -0.699068 -0.216679
v -0.23063 -0.671113 -0.230658
v -0.251614 -0.587208 -0.25163
v -0.209704 -0.608174 -0.25163
v -0.167727 -0.629139 -0.25163
v -0.146788 -0.775954 -0.209689
v -0.0628854 -0.734005 -0.230658
v 5.64435e-05 -0.671113 -0.251659
v -0.0838404 -0.566233 -0.27263
v -0.162563 -0.555626 -0.267426
v -0.272603 -0.566233 -0.25163
v -0.0838404 -0.555626 -0.27263
v 0.104856 -0.566233 -0.27263
v 0.0628774 -0.671113 -0.251659
v 0.230653 -0.608174 -0.25163
v 0.293551 -0.566233 -0.25163
v 0.272603 -0.671113 -0.230658
v 0.16774 -0.713061 -0.230658
v 0.125819 -0.796928 -0.209689
v 0.230682 -0.754979 -0.209689
v 0.230682 -0.817872 -0.188719
v 0.272603 -0.734005 -0.209689
v 0.25424 -0.817872 -0.183485
v 0.27961 -0.747998 -0.202699
v 0.296221 -0.671113 -0.225424
v 0.305469 -0.555626 -0.248982
v 0.293551 -0.555626 -0.25163
v 0.312421 -0.555626 -0.245533
v 0.321558 -0.566233 -0.23765
v 0.309329 -0.660626 -0.220189
v 0.330297 -0.597691 -0.220191
v 0.31977 -0.555626 -0.241222
v 0.330297 -0.639631 -0.199221
v 0.322419 -0.650114 -0.209691
v 0.309329 -0.702574 -0.199219
v 0.33029 -0.702574 -0.136311
v 0.288308 -0.786441 -0.17825
v 0.298819 -0.6816 -0.220189
v 0.288308 -0.744492 -0.199219
v 0.2752 -0.796928 -0.183485
v 0.267348 -0.849333 -0.15728
v 0.256898 -0.828359 -0.17825
v 0.237629 -0.831865 -0.181729
v 0.16774 -0.838846 -0.188719
v 0.195708 -0.894757 -0.16076
v 0.214916 -0.891281 -0.15728
v 0.258589 -0.852839 -0.16076
v 0.204466 -0.912256 -0.136311
v 0.172995 -0.93323 -0.136311
v 0.216668 -0.90875 -0.125811
v 0.195708 -0.929724 -0.104841
v 0.170338 -0.938473 -0.125811
v 0.111805 -0.957679 -0.118821
v 0.153787 -0.936705 -0.13979
v 0.0768914 -0.929724 -0.15377
v 0.0908449 -0.915731 -0.16076
v 0.0698844 -0.873813 -0.181729
v -0.0489319 -0.929724 -0.15377
v 0.0978518 -0.950698 -0.132801
v -0.00695052 -0.950698 -0.132801
v -0.0733958 -0.93323 -0.136311
v -0.10831 -0.905244 -0.150291
v -0.132774 -0.866801 -0.17474
v -0.153734 -0.887775 -0.111831
v -0.12927 -0.905244 -0.108352
v -0.0908528 -0.929724 -0.111831
v -0.125827 -0.907012 -0.0865199
v -0.136277 -0.891281 -0.0576984
v -0.0768389 -0.915731 -0.0140043
v 0.104798 -0.964661 -0.104841
v 0.104798 -0.964661 -0.0629331
v 0.16774 -0.943717 -0.104841
v -0.125827 -0.838846 -0.188719
v -0.0419249 -0.901768 -0.16775
v 0.041917 -0.85982 -0.188719
v 0.0628774 -0.85982 -0.188719
v -0.0209644 -0.796928 -0.209689
v -0.188709 -0.754979 -0.209689
v -0.293789 -0.555626 -0.241037
v -0.24114 -0.744492 -0.15728
f 584 585 583
f 586 585 584
f 586 587 585
f 586 588 587
f 586 589 588
f 586 590 589
f 591 590 586
f 591 592 590
f 591 584 592
f 591 586 584
f 592 584 593
f 594 592 593
f 594 595 592
f 594 596 595
f 594 593 596
f 593 597 596
f 593 598 597
f 593 599 598
f 593 584 599
f 584 600 599
f 584 601 600
f 584 583 601
f 583 602 601
f 583 603 602
f 583 585 603
f 603 585 604
f 605 603 604
f 605 602 603
f 606 602 605
f 606 607 602
f 608 607 606
f 608 609 607
f 608 610 609
f 608 606 610
f 610 606 605
f 610 605 611
f 610 611 609
f 609 611 612
f 609 612 613
f 609 613 614
f 609 614 607
f 614 602 607
f 615 602 614
f 615 601 602
f 616 601 615
f 616 600 601
f 616 617 600
f 616 615 617
f 615 614 617
f 614 618 617
f 613 618 614
f 613 612 618
f 619 618 612
f 620 618 619
f 620 621 618
f 620 622 621
f 620 623 622
f 620 619 623
f 619 624 623
f 625 624 619
f 625 611 624
f 625 612 611
f 625 619 612
f 626 624 611
f 626 627 624
f 626 611 627
f 627 611 628
f 627 628 629
f 627 629 624
f 630 624 629
f 630 631 624
f 630 629 631
f 628 631 629
f 628 632 631
f 628 633 632
f 628 605 633
f 628 611 605
f 633 605 604
f 633 604 634
f 633 634 632
f 634 635 632
f 634 636 635
f 634 637 636
f 634 604 637
f 638 637 604
f 638 587 637
f 639 587 638
f 639 585 587
f 639 604 585
f 639 638 604
f 640 637 587
f 640 641 637
f 640 642 641
f 640 589 642
f 640 587 589
f 589 587 588
f 589 643 642
f 589 644 643
f 645 644 589
f 645 646 644
f 645 647 646
f 645 590 647
f 645 589 590
f 592 647 590
f 592 648 647
f 592 595 648
f 649 648 595
f 649 646 648
f 649 650 646
f 651 650 649
f 652 650 651
f 653 650 652
f 653 644 650
f 653 652 644
f 652 642 644
f 652 654 642
f 652 655 654
f 652 656 655
f 652 651 656
f 657 656 651
f 657 658 656
f 659 658 657
f 659 660 658
f 659 661 660
f 659 662 661
f 663 662 659
f 663 664 662
f 663 665 664
f 666 665 663
f 666 667 665
f 666 657 667
f 666 659 657
f 666 663 659
f 667 657 651
f 667 651 668
f 669 667 668
f 669 665 667
f 669 670 665
f 669 668 670
f 668 596 670
f 668 649 596
f 651 649 668
f 649 595 596
f 670 596 597
f 598 670 597
f 671 670 598
f 672 670 671
f 672 673 670
f 672 674 673
f 672 671 674
f 674 671 675
f 676 674 675
f 676 677 674
f 678 677 676
f 678 679 677
f 678 680 679
f 678 676 680
f 676 681 680
f 682 681 676
f 682 683 681
f 682 684 683
f 682 685 684
f 682 676 685
f 676 684 685
f 686 684 676
f 686 687 684
f 686 688 687
f 686 676 688
f 676 675 688
f 688 675 689
f 688 689 690
f 688 690 691
f 688 691 687
f 687 691 692
f 684 687 692
f 683 684 692
f 683 692 693
f 694 683 693
f 694 695 683
f 694 696 695
f 694 693 696
f 693 697 696
f 693 698 697
f 699 698 693
f 699 700 698
f 701 700 699
f 701 692 700
f 701 699 692
f 699 693 692
f 700 692 702
f 700 702 698
f 702 703 698
f 704 703 702
f 704 705 703
f 704 706 705
f 704 702 706
f 702 691 706
f 702 692 691
f 690 706 691
f 707 706 690
f 707 705 706
f 708 705 707
f 708 599 705
f 708 709 599
f 708 707 709
f 707 689 709
f 707 690 689
f 710 709 689
f 710 711 709
f 710 675 711
f 710 689 675
f 671 711 675
f 671 598 711
f 598 709 711
f 598 599 709
f 705 599 703
f 599 617 703
f 599 600 617
f 703 617 698
f 617 618 698
f 712 698 618
f 713 698 712
f 714 698 713
f 715 698 714
f 715 697 698
f 715 716 697
f 715 714 716
f 716 714 717
f 716 717 718
f 716 718 719
f 716 719 696
f 716 696 697
f 720 696 719
f 695 696 720
f 695 720 721
f 683 695 721
f 683 721 681
f 681 721 680
f 680 721 719
f 722 680 719
f 723 680 722
f 723 724 680
f 723 725 724
f 723 726 725
f 723 722 726
f 722 725 726
f 727 725 722
f 727 728 725
f 727 722 728
f 729 728 722
f 729 730 728
f 729 717 730
f 729 718 717
f 729 722 718
f 722 719 718
f 731 730 717
f 732 730 731
f 733 730 732
f 733 734 730
f 733 735 734
f 733 736 735
f 733 737 736
f 733 738 737
f 733 732 738
f 732 731 738
f 738 731 739
f 738 739 713
f 738 713 740
f 738 740 737
f 740 712 737
f 740 713 712
f 741 737 712
f 741 742 737
f 741 743 742
f 744 743 741
f 745 743 744
f 745 746 743
f 745 747 746
f 748 747 745
f 748 749 747
f 748 745 749
f 750 749 745
f 750 751 749
f 750 752 751
f 750 753 752
f 750 745 753
f 745 744 753
f 744 754 753
f 755 754 744
f 755 712 754
f 755 744 712
f 744 741 712
f 754 712 618
f 621 754 618
f 756 754 621
f 756 753 754
f 757 753 756
f 757 758 753
f 757 759 758
f 757 621 759
f 760 621 757
f 760 756 621
f 760 757 756
f 759 621 622
f 759 622 761
f 762 759 761
f 762 758 759
f 762 763 758
f 762 761 763
f 763 761 764
f 763 764 631
f 763 631 765
f 766 763 765
f 758 763 766
f 758 766 753
f 766 752 753
f 767 752 766
f 767 768 752
f 767 765 768
f 767 766 765
f 768 765 769
f 768 769 770
f 768 770 752
f 751 752 770
f 751 770 771
f 751 771 749
f 771 772 749
f 771 773 772
f 771 770 773
f 770 774 773
f 775 774 770
f 775 769 774
f 775 770 769
f 776 774 769
f 776 777 774
f 776 778 777
f 776 769 778
f 769 635 778
f 769 632 635
f 769 631 632
f 769 765 631
f 778 635 779
f 777 778 779
f 777 779 780
f 777 780 781
f 777 781 782
f 777 782 774
f 782 773 774
f 783 773 782
f 783 784 773
f 783 785 784
f 783 786 785
f 783 787 786
f 783 782 787
f 787 782 781
f 787 781 788
f 787 788 786
f 786 788 789
f 790 786 789
f 790 791 786
f 790 725 791
f 790 724 725
f 790 789 724
f 792 724 789
f 792 680 724
f 792 679 680
f 792 793 679
f 794 793 792
f 662 793 794
f 795 793 662
f 795 679 793
f 795 662 679
f 664 679 662
f 664 796 679
f 664 665 796
f 673 796 665
f 673 674 796
f 674 677 796
f 796 677 679
f 673 665 797
f 673 797 670
f 797 665 670
f 662 794 661
f 794 789 661
f 794 792 789
f 660 661 789
f 660 789 788
f 660 788 781
f 798 660 781
f 798 799 660
f 798 654 799
f 798 800 654
f 798 780 800
f 798 781 780
f 800 780 779
f 642 800 779
f 654 800 642
f 642 779 636
f 641 642 636
f 641 636 637
f 636 779 635
f 655 799 654
f 655 656 799
f 799 656 660
f 658 660 656
f 791 725 801
f 791 801 786
f 786 801 802
f 785 786 802
f 785 802 803
f 785 803 804
f 772 785 804
f 772 773 785
f 784 785 773
f 772 804 747
f 772 747 749
f 804 742 747
f 804 803 742
f 736 742 803
f 736 737 742
f 736 803 805
f 736 805 735
f 735 805 801
f 734 735 801
f 734 801 725
f 734 725 806
f 734 806 730
f 728 730 806
f 728 806 725
f 801 805 803
f 801 803 802
f 746 747 742
f 746 742 743
f 624 631 764
f 623 624 764
f 623 764 761
f 622 623 761
f 807 713 739
f 807 714 713
f 807 717 714
f 807 739 717
f 731 717 739
f 808 719 721
f 808 720 719
f 808 721 720
f 642 643 644
f 650 644 646
f 647 648 646
o convex_7
v 0.251634 0.796932 -0.0838524
v 0.24972 0.785519 -0.0648156
v 0.251634 0.785519 -0.0838524
v 0.251634 0.796932 -0.111856
v 0.244665 0.8109 -0.0908622
v 0.237671 0.824884 -0.0768782
v 0.230678 0.8179 -0.0209419
v 0.241156 0.786448 -0.0104805
v 0.241622 0.785519 -0.0113701
v 0.251634 0.785519 -0.111856
v 0.244665 0.8109 -0.111856
v 0.237671 0.824884 -0.111856
v 0.194336 0.886392 -0.111856
v 0.216691 0.845866 -0.034926
v 0.213206 0.842367 -0.0174548
v 0.2202 0.807416 0.0314717
v 0.2202 0.786448 0.05243
v 0.220641 0.785519 0.0515404
v 0.167907 0.785519 -0.111856
v 0.181747 0.89477 -0.111856
v 0.181747 0.894785 -0.111821
v 0.153773 0.908753 -0.0768782
v 0.178238 0.891286 -0.0733911
v 0.19571 0.866818 -0.034926
v 0.132817 0.824884 0.216681
v 0.136301 0.807416 0.241162
v 0.157282 0.786448 0.220168
v 0.15819 0.785519 0.219278
v 0.169576 0.785519 0.190563
v 0.164251 0.786433 -0.111856
v 0.165159 0.785519 -0.111821
v 0.114658 0.932524 -0.111856
v 0.125848 0.922737 -0.0838524
v 0.136301 0.912253 -0.0523972
v 0.150289 0.905269 -0.059407
v 0.157282 0.891286 -0.0314388
v 0.111861 0.845866 0.195722
v 0.108376 0.842367 0.213193
v 0.115345 0.828383 0.241162
v 0.104867 0.796932 0.251659
v 0.123934 0.785519 0.249737
v 0.136498 0.785519 0.24134
v 0.138142 0.785519 0.240236
v 0.15635 0.785519 0.222018
v 0.000994162 0.877302 -0.111856
v 0.0743163 0.785519 0.137224
v 0.000994162 0.796932 0.188712
v 0.0838864 0.94372 -0.111856
v 0.0838864 0.94372 -0.104846
v 0.0629302 0.94372 -0.0628941
v 0.115345 0.912253 -0.0104805
v 0.108376 0.863334 0.150283
v 0.094389 0.849351 0.220168
v 0.0734083 0.849351 0.241162
v 0.0838864 0.8179 0.251659
v 0.104867 0.785519 0.251659
v 0.000994162 0.94372 -0.111856
v 0.054268 0.785519 0.201024
v 0.000994162 0.796932 0.230665
v 0.0209933 0.94372 -0.0419358
v 0.0209933 0.901769 0.125802
v 0.0419495 0.880802 0.188712
v 0.094389 0.870318 0.157257
v 0.0664147 0.863334 0.213193
v 0.0349559 0.85285 0.244649
v 0.0419495 0.838867 0.251659
v 0.0489431 0.866818 0.216681
v 0.0743163 0.785519 0.246179
v 0.000994162 0.8179 0.251659
v 0.000994162 0.803916 0.244649
v 0.000994162 0.94372 -0.0419358
v 0.054268 0.785519 0.235468
v 0.000994162 0.901769 0.125802
v 0.000994162 0.875072 0.210667
v 0.0104907 0.870318 0.220168
v 0.00349713 0.863334 0.234152
v 0.000994162 0.85285 0.244649
v 0.000994162 0.838867 0.251659
v 0.000994162 0.864604 0.231625
v 0.000994162 0.863535 0.23376
v 0.000994162 0.86081 0.236678
f 809 810 811
f 809 811 818
f 809 818 812
f 809 812 819
f 809 819 813
f 809 813 814
f 809 814 815
f 809 815 816
f 809 816 817
f 809 817 810
f 810 817 826
f 810 826 837
f 810 837 836
f 810 836 852
f 810 852 851
f 810 851 850
f 810 850 849
f 810 849 864
f 810 864 876
f 810 876 880
f 810 880 866
f 810 866 854
f 810 854 839
f 810 839 827
f 810 827 818
f 810 818 811
f 812 818 827
f 812 827 838
f 812 838 853
f 812 853 865
f 812 865 856
f 812 856 840
f 812 840 828
f 812 828 821
f 812 821 820
f 812 820 819
f 813 819 820
f 813 820 814
f 814 820 821
f 814 821 822
f 814 822 815
f 815 822 823
f 815 823 824
f 815 824 816
f 816 824 825
f 816 825 817
f 817 825 826
f 821 828 829
f 821 829 830
f 821 830 831
f 821 831 832
f 821 832 822
f 822 832 823
f 823 832 833
f 823 833 834
f 823 834 824
f 824 834 835
f 824 835 836
f 824 836 837
f 824 837 825
f 825 837 826
f 827 839 838
f 828 840 829
f 829 840 830
f 830 841 842
f 830 842 843
f 830 843 831
f 830 840 841
f 831 843 832
f 832 843 844
f 832 844 845
f 832 845 846
f 832 846 833
f 833 846 847
f 833 847 834
f 834 847 848
f 834 848 849
f 834 849 850
f 834 850 851
f 834 851 852
f 834 852 836
f 834 836 835
f 838 839 853
f 839 854 855
f 839 855 853
f 840 856 857
f 840 857 841
f 841 857 858
f 841 858 859
f 841 859 842
f 842 859 843
f 843 859 860
f 843 860 844
f 844 860 845
f 845 860 846
f 846 860 871
f 846 871 861
f 846 861 847
f 847 862 874
f 847 874 863
f 847 863 848
f 847 861 862
f 848 864 849
f 848 863 874
f 848 874 886
f 848 886 877
f 848 877 864
f 853 855 867
f 853 867 878
f 853 878 877
f 853 877 886
f 853 886 885
f 853 885 889
f 853 889 888
f 853 888 887
f 853 887 882
f 853 882 881
f 853 881 879
f 853 879 865
f 854 866 855
f 855 866 880
f 855 880 867
f 856 865 879
f 856 879 868
f 856 868 858
f 856 858 857
f 858 868 869
f 858 869 870
f 858 870 859
f 859 870 871
f 859 871 860
f 861 871 872
f 861 872 862
f 862 873 874
f 862 872 870
f 862 870 875
f 862 875 883
f 862 883 884
f 862 884 873
f 864 877 878
f 864 878 876
f 867 880 876
f 867 876 878
f 868 879 881
f 868 881 869
f 869 881 882
f 869 882 870
f 870 882 883
f 870 883 875
f 870 872 871
f 873 884 885
f 873 885 886
f 873 886 874
f 882 887 883
f 883 887 888
f 883 888 884
f 884 888 889
f 884 889 885
o convex_8
v 0.27263 0.650126 1.64235e-05
v 0.271561 0.634385 0.0199428
v 0.27263 0.634385 1.64235e-05
v 0.27263 0.671104 -0.0209419
v 0.254803 0.634385 0.149927
v 0.27263 0.634385 -0.0786217
v 0.27263 0.671104 -0.0419358
v 0.251639 0.785505 -0.0838524
v 0.251639 0.775933 -0.0419358
v 0.251639 0.650126 0.146796
v 0.241165 0.681578 0.157257
v 0.234175 0.695558 0.171241
v 0.23766 0.678086 0.174728
v 0.221243 0.634385 0.200277
v 0.271561 0.634385 -0.111856
v 0.251639 0.785505 -0.111856
v 0.249737 0.785505 -0.0648156
v 0.241614 0.785505 -0.0113701
v 0.246402 0.671104 0.144163
v 0.178257 0.765459 0.220168
v 0.21669 0.699064 0.195722
v 0.220196 0.660615 0.199209
v 0.19572 0.699064 0.216681
v 0.214937 0.634385 0.204476
v 0.227185 0.634385 -0.111856
v 0.167889 0.785505 -0.111856
v 0.220644 0.785505 0.0515404
v 0.174751 0.78293 0.195722
v 0.158206 0.785505 0.219278
v 0.156389 0.785505 0.222018
v 0.138156 0.785505 0.240236
v 0.13651 0.785505 0.24134
v 0.153803 0.761953 0.237674
v 0.181741 0.72701 0.22369
v 0.19572 0.678086 0.216681
v 0.208653 0.634385 0.208639
v 0.21669 0.650096 -0.111856
v 0.21669 0.634385 -0.111821
v 0.165175 0.785505 -0.111821
v 0.17753 0.75497 -0.111856
v 0.169599 0.785505 0.190563
v 0.12392 0.785505 0.249737
v 0.125843 0.775933 0.251659
v 0.125843 0.75497 0.251659
v 0.181741 0.664106 0.22369
v 0.167761 0.671104 0.230665
v 0.188731 0.634385 0.210845
v 0.196875 0.700218 -0.111856
v 0.159916 0.634385 0.117938
v 0.157287 0.639637 0.115341
v 0.0542563 0.785505 0.201024
v 0.074328 0.785505 0.137224
v 0.104874 0.785505 0.251659
v 0.104874 0.775933 0.251659
v 0.115348 0.744481 0.246392
v 0.157287 0.660615 0.225434
v 0.167761 0.657109 0.22369
v 0.167761 0.634385 0.207393
v 0.167761 0.643129 0.216681
v 0.154679 0.634385 0.152026
v 0.0542563 0.785505 0.235468
v 0.074328 0.785505 0.246179
v 0.0943784 0.765459 0.246392
v 0.15205 0.650126 0.212304
v 0.162545 0.634385 0.203159
v 0.154679 0.634385 0.193979
v 0.153803 0.636146 0.195722
v 0.157287 0.639637 0.20444
v 0.157308 0.634385 0.197252
f 890 891 892
f 890 892 895
f 890 895 896
f 890 896 893
f 890 893 894
f 890 894 891
f 891 894 903
f 891 903 913
f 891 913 925
f 891 925 936
f 891 936 947
f 891 947 954
f 891 954 958
f 891 958 955
f 891 955 949
f 891 949 938
f 891 938 927
f 891 927 914
f 891 914 904
f 891 904 895
f 891 895 892
f 893 896 905
f 893 905 897
f 893 897 898
f 893 898 894
f 894 899 900
f 894 900 901
f 894 901 902
f 894 902 903
f 894 898 899
f 895 904 896
f 896 904 905
f 897 905 915
f 897 915 928
f 897 928 941
f 897 941 940
f 897 940 950
f 897 950 951
f 897 951 942
f 897 942 931
f 897 931 921
f 897 921 920
f 897 920 919
f 897 919 918
f 897 918 930
f 897 930 916
f 897 916 907
f 897 907 906
f 897 906 898
f 898 906 907
f 898 907 901
f 898 901 900
f 898 900 908
f 898 908 899
f 899 908 900
f 901 909 910
f 901 910 902
f 901 907 909
f 902 910 911
f 902 911 903
f 903 911 912
f 903 912 913
f 904 914 926
f 904 926 937
f 904 937 929
f 904 929 915
f 904 915 905
f 907 916 917
f 907 917 909
f 909 918 919
f 909 919 920
f 909 920 921
f 909 921 922
f 909 922 923
f 909 923 912
f 909 912 910
f 909 917 918
f 910 912 911
f 912 923 934
f 912 934 924
f 912 924 925
f 912 925 913
f 914 927 926
f 915 929 928
f 916 930 917
f 917 930 918
f 921 931 932
f 921 932 922
f 922 932 933
f 922 933 934
f 922 934 923
f 924 934 925
f 925 934 935
f 925 935 936
f 926 927 937
f 927 928 929
f 927 929 937
f 927 938 939
f 927 939 940
f 927 940 941
f 927 941 928
f 931 942 932
f 932 942 943
f 932 943 933
f 933 943 944
f 933 944 945
f 933 945 935
f 933 935 934
f 935 945 946
f 935 946 936
f 936 946 948
f 936 948 947
f 938 949 940
f 938 940 939
f 940 949 955
f 940 955 950
f 942 951 943
f 943 952 944
f 943 951 952
f 944 952 945
f 945 952 951
f 945 951 950
f 945 950 953
f 945 953 948
f 945 948 946
f 947 948 953
f 947 953 954
f 950 955 956
f 950 956 953
f 953 956 957
f 953 957 954
f 954 957 956
f 954 956 958
f 955 958 956
o convex_9
v 0.216373 0.122477 0.290243
v 0.223697 0.118836 0.286595
v 0.237688 0.132781 0.279599
v 0.216373 0.13245 0.286924
v 0.216373 -1.48063e-05 0.251644
v 0.2307 -1.48063e-05 0.251644
v 0.251664 -0.0026219 0.246412
v 0.325053 0.00524077 0.220191
v 0.335535 0.00259229 0.214929
v 0.255158 0.129305 0.255142
v 0.307568 0.147472 0.118866
v 0.227206 0.143293 0.269135
v 0.220203 0.136299 0.283097
v 0.349511 -0.00700844 0.202701
v 0.346017 0.010455 0.199202
v 0.216373 0.137044 0.283875
v 0.216373 -0.169724 0.167181
v 0.2307 -0.0140021 0.244648
v 0.346017 -0.0524463 0.183476
v 0.356514 -0.0445837 0.183476
v 0.314571 0.147472 0.104873
v 0.294278 0.147472 0.125503
v 0.2307 0.146769 0.251644
v 0.216373 0.145444 0.271287
v 0.356514 -1.48063e-05 0.188738
v 0.372245 -0.0314654 0.178244
v 0.216373 -0.19265 0.153219
v 0.2307 -0.186112 0.152023
v 0.251664 -0.207092 0.131094
v 0.293607 -0.249013 0.0891465
v 0.304074 -0.267387 0.07342
v 0.307568 -0.258614 0.0769181
v 0.335535 0.0838674 0.0629256
v 0.314571 0.147472 1.94494e-05
v 0.293607 0.147472 0.125832
v 0.272643 0.147472 0.125832
v 0.258652 0.147472 0.118866
v 0.251664 0.147472 0.104873
v 0.246095 0.147472 0.0608029
v 0.246095 0.147472 0.0426246
v 0.251664 0.147472 -0.015139
v 0.216373 0.140561 0.244977
v 0.330302 -0.262131 0.0524313
v 0.335535 -0.104836 0.0629256
v 0.311199 -0.0209957 -0.015139
v 0.216373 -0.275291 0.0753335
v 0.2307 -0.216693 0.132828
v 0.325053 -0.267387 0.0524313
v 0.293607 -0.265607 0.0769181
v 0.293607 -0.275291 0.067829
v 0.297757 -0.275291 0.0670815
v 0.307797 0.147472 -0.0135245
v 0.216373 0.00329579 0.119194
v 0.216373 0.090861 0.181742
v 0.216373 0.111842 0.202701
v 0.216373 0.133402 0.228443
v 0.216373 0.138658 0.237323
v 0.306988 0.147472 -0.015139
v 0.216373 -0.219052 -0.015139
v 0.216373 -0.161075 0.00333817
v 0.216373 -0.155985 0.00590943
v 0.3166 -0.275291 0.041339
v 0.314571 -0.275291 0.0209782
v 0.30058 -0.275291 -0.00697677
v 0.296491 -0.275291 -0.015139
v 0.216373 -0.275291 -0.015139
v 0.316463 -0.275291 0.0418174
f 959 960 961
f 959 961 962
f 959 962 974
f 959 974 982
f 959 982 1000
f 959 1000 1015
f 959 1015 1014
f 959 1014 1013
f 959 1013 1012
f 959 1012 1011
f 959 1011 1019
f 959 1019 1018
f 959 1018 1017
f 959 1017 1024
f 959 1024 1004
f 959 1004 985
f 959 985 975
f 959 975 963
f 959 963 964
f 959 964 965
f 959 965 960
f 960 965 966
f 960 966 967
f 960 967 961
f 961 968 969
f 961 969 970
f 961 970 971
f 961 971 962
f 961 967 972
f 961 972 973
f 961 973 968
f 962 971 974
f 963 975 964
f 964 975 976
f 964 976 965
f 965 967 966
f 965 976 975
f 965 975 977
f 965 977 978
f 965 978 967
f 967 978 972
f 968 979 969
f 968 973 979
f 969 979 992
f 969 992 1010
f 969 1010 1016
f 969 1016 999
f 969 999 998
f 969 998 997
f 969 997 996
f 969 996 995
f 969 995 994
f 969 994 993
f 969 993 980
f 969 980 981
f 969 981 970
f 970 981 982
f 970 982 971
f 971 982 974
f 972 983 973
f 972 978 984
f 972 984 983
f 973 983 979
f 975 985 986
f 975 986 977
f 977 986 987
f 977 987 988
f 977 988 978
f 978 988 989
f 978 989 990
f 978 990 984
f 979 991 992
f 979 983 984
f 979 984 991
f 980 993 981
f 981 993 994
f 981 994 995
f 981 995 996
f 981 996 997
f 981 997 998
f 981 998 982
f 982 998 999
f 982 999 1000
f 984 990 1001
f 984 1001 1002
f 984 1002 1003
f 984 1003 991
f 985 1004 1005
f 985 1005 986
f 986 1005 987
f 987 1005 988
f 988 1005 989
f 989 1006 1001
f 989 1001 990
f 989 1005 1007
f 989 1007 1008
f 989 1008 1009
f 989 1009 1006
f 991 1003 992
f 992 1003 1010
f 999 1011 1012
f 999 1012 1013
f 999 1013 1014
f 999 1014 1015
f 999 1015 1000
f 999 1016 1003
f 999 1003 1023
f 999 1023 1024
f 999 1024 1017
f 999 1017 1018
f 999 1018 1019
f 999 1019 1011
f 1001 1006 1020
f 1001 1020 1021
f 1001 1021 1003
f 1001 1003 1002
f 1003 1016 1010
f 1003 1021 1022
f 1003 1022 1023
f 1004 1024 1023
f 1004 1023 1022
f 1004 1022 1021
f 1004 1021 1020
f 1004 1020 1025
f 1004 1025 1009
f 1004 1009 1008
f 1004 1008 1005
f 1005 1008 1007
f 1006 1009 1025
f 1006 1025 1020
o convex_10
v -0.117772 -0.275291 -0.0151689
v 0.216373 -0.275291 -0.0151689
v -0.117772 -0.275291 0.0714949
v -0.117772 -0.164851 -0.0151689
v 0.216373 -0.275291 0.0753359
v 0.216373 -0.219059 -0.0151689
v -0.0865361 -0.275291 0.0884403
v -0.117772 -0.186501 0.196794
v -0.0961523 -0.164851 -0.0151689
v -0.117772 0.0955681 0.205057
v 0.2097 0.090858 0.181753
v 0.209864 -0.275291 0.0785959
v 0.216373 -0.192657 0.15322
v 0.2097 -0.195715 0.153769
v 0.158022 -0.198483 -0.0151689
v 0.2097 -0.167743 1.27938e-06
v 0.216373 -0.161091 0.00335809
v -0.0812047 -0.275291 0.0910871
v -0.117772 -0.177164 0.206187
v -0.0445717 -0.275291 0.103546
v 9.33298e-06 -0.275291 0.111744
v 0.0209752 -0.275291 0.114036
v -0.0838541 -0.146796 0.238529
v 0.0838727 -0.160761 -0.00697056
v 0.0910031 -0.177122 -0.0151689
v 0.216373 0.090858 0.181753
v -0.117772 0.104286 0.213449
v 0.2097 0.111847 0.202701
v 0.1679 -0.275291 0.0995436
v 0.216373 -0.169726 0.167164
v 0.160769 -0.0908529 0.244661
v 0.15727 -0.099612 0.241143
v 0.115338 -0.099612 0.262123
v 0.167769 -0.275291 0.0996082
v 0.0950916 -0.177494 -0.0151689
v 0.216373 -0.156009 0.00590797
v -0.117772 -0.16857 0.210512
v 0.104839 -0.275291 0.114036
v -0.0628882 -0.139772 0.244661
v -0.0733875 -0.136301 0.246404
v -0.117772 0.104823 0.293593
v 0.2097 -0.153778 0.00700539
v 0.216373 0.00330789 0.1192
v 0.216373 0.111847 0.202701
v -0.117772 0.111847 0.223681
v 0.216373 0.133414 0.228458
v 0.216373 -3.87694e-05 0.251633
v 0.118838 -0.0908529 0.265609
v 0.104839 -0.0838704 0.272613
v 0.104839 -0.0978354 0.265609
v 0.0314745 -0.0943648 0.267384
v -0.0314558 -0.0943648 0.267384
v 9.33298e-06 0.104823 0.314573
v -0.00699019 0.118829 0.307569
v -0.117772 0.118829 0.286589
v -0.0209565 -0.0838704 0.272613
v -0.117772 0.114532 0.229039
v 0.216373 0.138661 0.237334
v 0.216373 0.122465 0.290269
v 0.181735 -0.00702129 0.265609
v 0.2097 0.125812 0.293593
v 0.14677 0.111847 0.307569
v 0.0838727 0.104823 0.314573
v 0.139803 0.118829 0.307569
v 0.132804 0.132794 0.300565
v 0.115338 0.141554 0.283103
v -0.117772 0.125812 0.272613
v -0.117772 0.125812 0.251633
v 0.167769 0.146801 0.272613
v 0.216373 0.140562 0.244984
v 0.216373 0.132464 0.286944
v 0.202701 0.139777 0.286589
v 0.15377 0.132794 0.300565
v 0.2097 0.146801 0.272613
v 0.216373 0.145437 0.27129
v 0.216373 0.13705 0.283878
f 1026 1027 1030
f 1026 1030 1037
f 1026 1037 1054
f 1026 1054 1059
f 1026 1059 1063
f 1026 1063 1047
f 1026 1047 1046
f 1026 1046 1045
f 1026 1045 1043
f 1026 1043 1032
f 1026 1032 1028
f 1026 1028 1033
f 1026 1033 1044
f 1026 1044 1062
f 1026 1062 1066
f 1026 1066 1080
f 1026 1080 1092
f 1026 1092 1093
f 1026 1093 1082
f 1026 1082 1070
f 1026 1070 1052
f 1026 1052 1035
f 1026 1035 1029
f 1026 1029 1034
f 1026 1034 1050
f 1026 1050 1060
f 1026 1060 1040
f 1026 1040 1031
f 1026 1031 1027
f 1027 1031 1042
f 1027 1042 1061
f 1027 1061 1068
f 1027 1068 1051
f 1027 1051 1069
f 1027 1069 1071
f 1027 1071 1083
f 1027 1083 1095
f 1027 1095 1100
f 1027 1100 1101
f 1027 1101 1096
f 1027 1096 1084
f 1027 1084 1072
f 1027 1072 1055
f 1027 1055 1038
f 1027 1038 1030
f 1028 1032 1033
f 1029 1035 1036
f 1029 1036 1051
f 1029 1051 1034
f 1030 1038 1039
f 1030 1039 1037
f 1031 1040 1041
f 1031 1041 1042
f 1032 1043 1033
f 1033 1043 1045
f 1033 1045 1046
f 1033 1046 1047
f 1033 1047 1048
f 1033 1048 1044
f 1034 1049 1050
f 1034 1051 1049
f 1035 1052 1036
f 1036 1052 1053
f 1036 1053 1069
f 1036 1069 1051
f 1037 1039 1054
f 1038 1055 1056
f 1038 1056 1057
f 1038 1057 1058
f 1038 1058 1039
f 1039 1059 1054
f 1039 1058 1059
f 1040 1060 1041
f 1041 1060 1042
f 1042 1060 1061
f 1044 1048 1062
f 1047 1063 1048
f 1048 1063 1064
f 1048 1064 1065
f 1048 1065 1066
f 1048 1066 1062
f 1049 1067 1061
f 1049 1061 1060
f 1049 1060 1050
f 1049 1051 1068
f 1049 1068 1067
f 1052 1070 1071
f 1052 1071 1053
f 1053 1071 1069
f 1055 1072 1056
f 1056 1073 1058
f 1056 1058 1057
f 1056 1072 1073
f 1058 1073 1074
f 1058 1074 1075
f 1058 1075 1063
f 1058 1063 1059
f 1061 1067 1068
f 1063 1075 1064
f 1064 1075 1074
f 1064 1074 1076
f 1064 1076 1065
f 1065 1076 1077
f 1065 1077 1066
f 1066 1078 1079
f 1066 1079 1080
f 1066 1077 1081
f 1066 1081 1078
f 1070 1082 1083
f 1070 1083 1071
f 1072 1084 1085
f 1072 1085 1073
f 1073 1085 1084
f 1073 1084 1074
f 1074 1081 1077
f 1074 1077 1076
f 1074 1084 1086
f 1074 1086 1087
f 1074 1087 1088
f 1074 1088 1078
f 1074 1078 1081
f 1078 1088 1089
f 1078 1089 1079
f 1079 1089 1098
f 1079 1098 1090
f 1079 1090 1091
f 1079 1091 1092
f 1079 1092 1080
f 1082 1093 1083
f 1083 1094 1095
f 1083 1093 1094
f 1084 1096 1086
f 1086 1096 1097
f 1086 1097 1098
f 1086 1098 1089
f 1086 1089 1087
f 1087 1089 1088
f 1090 1098 1091
f 1091 1098 1099
f 1091 1099 1094
f 1091 1094 1092
f 1092 1094 1093
f 1094 1099 1095
f 1095 1099 1100
f 1096 1101 1097
f 1097 1101 1099
f 1097 1099 1098
f 1099 1101 1100
o convex_11
v -0.117772 0.104852 0.293602
v -0.125844 0.104852 0.293602
v -0.136324 0.094364 0.288343
v -0.117772 0.0908739 0.28659
v -0.117772 0.118829 0.28659
v -0.153796 0.104852 0.279608
v -0.132837 0.118829 0.28659
v -0.178261 0.115339 0.267367
v -0.133029 -0.0281509 0.206103
v -0.117772 -0.0281509 0.209125
v -0.125844 0.0908739 0.28659
v -0.228637 -0.0281509 0.158469
v -0.217926 -0.0281509 0.165814
v -0.175872 -0.0281509 0.192109
v -0.117772 0.125827 0.272626
v -0.125844 0.125827 0.272626
v -0.195753 0.139804 0.244638
v -0.20448 0.136314 0.241163
v -0.216693 0.125827 0.237657
v -0.117772 -0.0281509 0.132416
v -0.237671 0.125827 0.216681
v -0.283115 -0.0104768 0.0996226
v -0.30758 -0.0281509 0.0559487
v -0.117772 0.125827 0.25165
v -0.18876 0.146784 0.230675
v -0.212339 0.141558 0.230675
v -0.117772 -0.0139669 0.139791
v -0.229388 -0.0281509 -0.0151689
v -0.229388 -0.0209643 -0.0151689
v -0.230679 0.147455 -0.0151689
v -0.233298 0.141558 0.209699
v -0.246398 0.136314 0.199211
v -0.244664 0.125827 0.202717
v -0.30758 0.0209857 0.0769243
v -0.304074 0.0104982 0.078647
v -0.309314 1.07022e-05 0.06556
v -0.314573 -0.0281509 0.0419548
v -0.117772 0.114531 0.229043
v -0.230679 0.146784 0.188724
v -0.230679 0.147455 0.0629304
v -0.230871 0.147455 0.0636861
v -0.237132 0.147455 0.0790097
v -0.251657 0.147455 0.0887117
v -0.266047 0.147455 0.0930942
v -0.272616 0.147455 0.0947263
v -0.288008 0.147455 0.0873516
v -0.117772 0.0919399 0.202627
v -0.29504 -0.0281509 -0.0151689
v -0.293595 0.147455 -0.0151689
v -0.117772 0.111832 0.223693
v -0.117772 0.104301 0.213447
v -0.117772 0.0955847 0.205075
v -0.288297 0.147455 0.0868983
v -0.301204 0.147455 0.0635954
v -0.251657 0.125827 0.188724
v -0.309314 0.136314 0.0524426
v -0.309314 0.0314733 0.0734182
v -0.314573 0.0209857 0.0629304
v -0.314573 -0.0281509 0.0347615
v -0.296484 0.0477547 -0.0151689
v -0.308293 -0.0281509 0.012728
v -0.314573 0.0629015 0.0209792
v -0.29504 0.125087 -0.0151689
v -0.30758 0.111832 0.00701566
v -0.314573 0.104852 0.0209792
v -0.309314 0.12844 0.0209792
v -0.314573 0.125827 0.0419548
v -0.30758 0.139804 0.0419548
v -0.303747 0.147455 0.0419548
v -0.31151 -0.0281509 0.0209792
v -0.296484 0.101946 -0.0151689
v -0.300588 0.0559384 -0.00697815
v -0.300588 0.0978541 -0.00697815
f 1102 1103 1104
f 1102 1104 1105
f 1102 1105 1111
f 1102 1111 1121
f 1102 1121 1128
f 1102 1128 1148
f 1102 1148 1153
f 1102 1153 1152
f 1102 1152 1151
f 1102 1151 1139
f 1102 1139 1125
f 1102 1125 1116
f 1102 1116 1106
f 1102 1106 1108
f 1102 1108 1103
f 1103 1107 1104
f 1103 1108 1109
f 1103 1109 1107
f 1104 1110 1111
f 1104 1111 1112
f 1104 1112 1105
f 1104 1107 1109
f 1104 1109 1113
f 1104 1113 1114
f 1104 1114 1115
f 1104 1115 1110
f 1105 1112 1111
f 1106 1116 1117
f 1106 1117 1108
f 1108 1117 1118
f 1108 1118 1109
f 1109 1118 1119
f 1109 1119 1120
f 1109 1120 1113
f 1110 1115 1114
f 1110 1114 1113
f 1110 1113 1124
f 1110 1124 1138
f 1110 1138 1160
f 1110 1160 1171
f 1110 1171 1162
f 1110 1162 1149
f 1110 1149 1129
f 1110 1129 1121
f 1110 1121 1111
f 1113 1120 1122
f 1113 1122 1123
f 1113 1123 1124
f 1116 1125 1126
f 1116 1126 1117
f 1117 1126 1118
f 1118 1126 1127
f 1118 1127 1119
f 1119 1127 1120
f 1120 1127 1122
f 1121 1129 1130
f 1121 1130 1131
f 1121 1131 1128
f 1122 1127 1132
f 1122 1132 1133
f 1122 1133 1134
f 1122 1134 1135
f 1122 1135 1136
f 1122 1136 1123
f 1123 1136 1124
f 1124 1136 1137
f 1124 1137 1138
f 1125 1139 1131
f 1125 1131 1126
f 1126 1140 1132
f 1126 1132 1127
f 1126 1131 1141
f 1126 1141 1142
f 1126 1142 1143
f 1126 1143 1144
f 1126 1144 1145
f 1126 1145 1146
f 1126 1146 1147
f 1126 1147 1140
f 1128 1131 1148
f 1129 1149 1161
f 1129 1161 1172
f 1129 1172 1164
f 1129 1164 1150
f 1129 1150 1131
f 1129 1131 1130
f 1131 1150 1170
f 1131 1170 1155
f 1131 1155 1154
f 1131 1154 1147
f 1131 1147 1146
f 1131 1146 1145
f 1131 1145 1144
f 1131 1144 1143
f 1131 1143 1142
f 1131 1142 1141
f 1131 1139 1151
f 1131 1151 1152
f 1131 1152 1153
f 1131 1153 1148
f 1132 1140 1154
f 1132 1154 1155
f 1132 1155 1133
f 1133 1156 1134
f 1133 1155 1157
f 1133 1157 1158
f 1133 1158 1159
f 1133 1159 1156
f 1134 1156 1159
f 1134 1159 1135
f 1135 1159 1137
f 1135 1137 1136
f 1137 1159 1138
f 1138 1159 1168
f 1138 1168 1166
f 1138 1166 1163
f 1138 1163 1160
f 1140 1147 1154
f 1149 1162 1163
f 1149 1163 1161
f 1150 1164 1165
f 1150 1165 1166
f 1150 1166 1167
f 1150 1167 1168
f 1150 1168 1169
f 1150 1169 1170
f 1155 1170 1157
f 1157 1170 1169
f 1157 1169 1168
f 1157 1168 1159
f 1157 1159 1158
f 1160 1163 1171
f 1161 1163 1173
f 1161 1173 1174
f 1161 1174 1172
f 1162 1171 1163
f 1163 1166 1174
f 1163 1174 1173
f 1164 1172 1165
f 1165 1172 1174
f 1165 1174 1166
f 1166 1168 1167
o convex_12
v 0.0100889 -0.275291 -0.293602
v 0.104868 -0.275291 -0.293602
v 0.0100889 -0.275291 -0.18876
v 0.0100889 0.147472 -0.293602
v 0.293579 -0.275291 -0.272629
v 0.167806 -0.2097 -0.293602
v 0.265264 -0.275291 -0.0937589
v 0.250343 -0.275249 -0.0937589
v 0.0100889 0.0628865 -0.167788
v 0.0100889 0.147472 -0.167788
v 0.167806 0.147472 -0.293602
v 0.321555 -0.275291 -0.258641
v 0.230675 -0.125817 -0.293602
v 0.293579 -0.25162 -0.272629
v 0.335526 -0.275291 -0.0937589
v 0.210973 0.146769 -0.0937589
v 0.210973 0.147472 -0.0937589
v 0.181777 0.147472 -0.286598
v 0.241154 -0.0943667 -0.288359
v 0.230675 -0.104836 -0.293602
v 0.321555 -0.272601 -0.258641
v 0.336204 -0.275291 -0.230352
v 0.304057 -0.24115 -0.267386
v 0.356516 -0.275291 -0.167788
v 0.335526 -0.272601 -0.0937589
v 0.267671 0.147472 -0.0937589
v 0.195646 0.147472 -0.279301
v 0.195714 0.146769 -0.279614
v 0.349734 -0.275291 -0.203941
v 0.300564 -0.188719 -0.258641
v 0.321555 -0.2097 -0.237669
v 0.356516 -0.275291 -0.18876
v 0.356516 -0.25162 -0.167788
v 0.335526 -0.2097 -0.104871
v 0.329965 -0.215245 -0.0937589
v 0.335526 -0.167738 -0.167788
v 0.335526 -0.2097 -0.209713
v 0.251632 0.125829 -0.167788
v 0.244646 0.139775 -0.174772
v 0.230675 0.147472 -0.209713
v 0.293579 -1.48063e-05 -0.0937589
v 0.195951 0.147472 -0.278831
v 0.355838 -0.275291 -0.191753
v 0.325048 -0.199188 -0.225442
v 0.356516 -0.272601 -0.18876
v 0.35126 -0.25162 -0.191382
v 0.325048 -0.178249 -0.094385
v 0.324742 -0.178539 -0.0937589
v 0.32854 -0.195712 -0.216697
v 0.216704 0.147472 -0.237669
v 0.209922 0.147472 -0.251207
f 1175 1176 1179
f 1175 1179 1186
f 1175 1186 1196
f 1175 1196 1203
f 1175 1203 1217
f 1175 1217 1206
f 1175 1206 1198
f 1175 1198 1189
f 1175 1189 1181
f 1175 1181 1177
f 1175 1177 1183
f 1175 1183 1184
f 1175 1184 1178
f 1175 1178 1185
f 1175 1185 1194
f 1175 1194 1187
f 1175 1187 1180
f 1175 1180 1176
f 1176 1180 1179
f 1177 1181 1182
f 1177 1182 1183
f 1178 1184 1191
f 1178 1191 1200
f 1178 1200 1214
f 1178 1214 1224
f 1178 1224 1225
f 1178 1225 1216
f 1178 1216 1201
f 1178 1201 1192
f 1178 1192 1185
f 1179 1180 1187
f 1179 1187 1194
f 1179 1194 1188
f 1179 1188 1195
f 1179 1195 1186
f 1181 1189 1199
f 1181 1199 1209
f 1181 1209 1222
f 1181 1222 1215
f 1181 1215 1200
f 1181 1200 1191
f 1181 1191 1190
f 1181 1190 1182
f 1182 1190 1183
f 1183 1190 1191
f 1183 1191 1184
f 1185 1192 1193
f 1185 1193 1194
f 1186 1195 1196
f 1188 1197 1195
f 1188 1194 1193
f 1188 1193 1197
f 1189 1198 1207
f 1189 1207 1199
f 1192 1201 1202
f 1192 1202 1193
f 1193 1202 1197
f 1195 1203 1196
f 1195 1197 1202
f 1195 1202 1204
f 1195 1204 1205
f 1195 1205 1203
f 1198 1206 1219
f 1198 1219 1207
f 1199 1207 1208
f 1199 1208 1209
f 1200 1207 1210
f 1200 1210 1211
f 1200 1211 1212
f 1200 1212 1213
f 1200 1213 1214
f 1200 1215 1208
f 1200 1208 1207
f 1201 1216 1202
f 1202 1216 1205
f 1202 1205 1204
f 1203 1205 1217
f 1205 1218 1211
f 1205 1211 1217
f 1205 1216 1218
f 1206 1217 1219
f 1207 1219 1220
f 1207 1220 1210
f 1208 1221 1222
f 1208 1222 1209
f 1208 1215 1221
f 1210 1220 1211
f 1211 1220 1219
f 1211 1219 1217
f 1211 1218 1223
f 1211 1223 1214
f 1211 1214 1212
f 1212 1214 1213
f 1214 1223 1224
f 1215 1222 1221
f 1216 1225 1223
f 1216 1223 1218
f 1223 1225 1224
o convex_13
v -0.372245 -0.25162 -0.16516
v -0.356489 -0.275291 -0.23068
v -0.366968 -0.262131 -0.178276
v -0.361092 -0.275291 -0.172729
v -0.361092 -0.275291 -0.170071
v -0.366968 -0.262131 -0.162541
v -0.356489 -0.275291 -0.12849
v -0.355815 -0.275291 -0.125505
v -0.356489 -0.272601 -0.125833
v -0.372245 -0.24115 -0.157302
v -0.370486 -0.244668 -0.181762
v -0.360419 -0.275291 -0.19141
v -0.353009 -0.269125 -0.248148
v -0.34994 -0.275291 -0.254311
v -0.351998 -0.275291 -0.117821
v -0.352485 -0.272601 -0.117821
v -0.356489 -0.0629161 -0.188753
v -0.356489 -0.0629161 -0.209726
v -0.352485 -0.222652 -0.117821
v -0.331527 -0.0129675 -0.117821
v -0.335531 -0.0209957 -0.125833
v -0.356489 -0.125817 -0.23068
v -0.35125 -0.249013 -0.251653
v -0.340771 -0.254268 -0.272627
v -0.339086 -0.275291 -0.275978
v -0.242305 -0.275291 -0.117821
v -0.314573 0.125829 -0.125833
v -0.314573 0.146769 -0.146806
v -0.330292 0.0733976 -0.178276
v -0.349491 -0.118824 -0.244662
v -0.314573 0.146769 -0.209726
v -0.313899 0.147472 -0.211074
v -0.314573 0.0628865 -0.251653
v -0.307575 0.0698801 -0.265636
v -0.328533 0.00697883 -0.244662
v -0.349491 -0.0559638 -0.223689
v -0.310569 0.133816 -0.117821
v -0.34601 -0.246406 -0.26213
v -0.328533 -0.139805 -0.286609
v -0.338188 -0.275291 -0.27696
v 0.0100889 -0.275291 -0.188753
v 0.0100889 0.0628865 -0.167779
v 0.0100889 0.147472 -0.167779
v -0.24515 0.147472 -0.117821
v -0.314236 0.147472 -0.146132
v -0.314423 0.147472 -0.188753
v -0.314423 0.147472 -0.209129
v -0.307575 0.00697883 -0.286609
v -0.307986 0.147472 -0.225422
v -0.307575 0.111842 -0.244662
v -0.286579 0.111842 -0.286609
v -0.308697 0.138782 -0.117821
v -0.314573 -0.146798 -0.2936
v -0.31723 -0.275291 -0.292271
v -0.328533 -0.275291 -0.286609
v -0.265621 0.147472 -0.307582
v -0.251624 0.147472 -0.314573
v 0.0100889 -0.275291 -0.2936
v 0.0100889 0.147472 -0.2936
v -0.304356 0.147472 -0.117821
v -0.287028 0.147472 -0.267369
v -0.314573 -0.275291 -0.2936
v -0.230666 0.147472 -0.314573
v -0.251624 0.104848 -0.314573
v -0.209708 0.125829 -0.314573
f 1226 1227 1228
f 1226 1228 1229
f 1226 1229 1230
f 1226 1230 1231
f 1226 1231 1232
f 1226 1232 1233
f 1226 1233 1234
f 1226 1234 1235
f 1226 1235 1236
f 1226 1236 1227
f 1227 1237 1228
f 1227 1236 1238
f 1227 1238 1239
f 1227 1239 1250
f 1227 1250 1265
f 1227 1265 1280
f 1227 1280 1279
f 1227 1279 1287
f 1227 1287 1283
f 1227 1283 1266
f 1227 1266 1251
f 1227 1251 1240
f 1227 1240 1233
f 1227 1233 1232
f 1227 1232 1230
f 1227 1230 1229
f 1227 1229 1237
f 1228 1237 1229
f 1230 1232 1231
f 1233 1240 1234
f 1234 1240 1241
f 1234 1241 1235
f 1235 1242 1243
f 1235 1243 1236
f 1235 1241 1244
f 1235 1244 1245
f 1235 1245 1246
f 1235 1246 1242
f 1236 1243 1247
f 1236 1247 1238
f 1238 1248 1239
f 1238 1247 1248
f 1239 1248 1249
f 1239 1249 1250
f 1240 1251 1269
f 1240 1269 1285
f 1240 1285 1277
f 1240 1277 1262
f 1240 1262 1245
f 1240 1245 1244
f 1240 1244 1241
f 1242 1246 1252
f 1242 1252 1253
f 1242 1253 1254
f 1242 1254 1243
f 1243 1255 1247
f 1243 1254 1256
f 1243 1256 1257
f 1243 1257 1258
f 1243 1258 1259
f 1243 1259 1260
f 1243 1260 1261
f 1243 1261 1255
f 1245 1262 1252
f 1245 1252 1246
f 1247 1255 1248
f 1248 1263 1249
f 1248 1255 1263
f 1249 1263 1264
f 1249 1264 1250
f 1250 1264 1265
f 1251 1266 1267
f 1251 1267 1268
f 1251 1268 1269
f 1252 1262 1270
f 1252 1270 1253
f 1253 1270 1271
f 1253 1271 1254
f 1254 1271 1272
f 1254 1272 1256
f 1255 1264 1263
f 1255 1261 1260
f 1255 1260 1259
f 1255 1259 1273
f 1255 1273 1264
f 1256 1272 1257
f 1257 1272 1271
f 1257 1271 1270
f 1257 1270 1285
f 1257 1285 1269
f 1257 1269 1268
f 1257 1268 1284
f 1257 1284 1288
f 1257 1288 1282
f 1257 1282 1281
f 1257 1281 1286
f 1257 1286 1274
f 1257 1274 1275
f 1257 1275 1259
f 1257 1259 1258
f 1259 1275 1276
f 1259 1276 1273
f 1262 1277 1270
f 1264 1278 1279
f 1264 1279 1280
f 1264 1280 1265
f 1264 1273 1281
f 1264 1281 1282
f 1264 1282 1278
f 1266 1283 1284
f 1266 1284 1268
f 1266 1268 1267
f 1270 1277 1285
f 1273 1276 1281
f 1274 1286 1275
f 1275 1286 1276
f 1276 1286 1281
f 1278 1287 1279
f 1278 1282 1289
f 1278 1289 1287
f 1282 1288 1290
f 1282 1290 1289
f 1283 1287 1289
f 1283 1289 1290
f 1283 1290 1284
f 1284 1290 1288
o convex_14
v 0.286581 -0.422993 0.0349523
v 0.272566 -0.422993 0.041914
v 0.272566 -0.440403 0.041914
v 0.104806 -0.422993 0.0506162
v 0.356516 -0.422993 -0.20969
v 0.356516 -0.422993 -0.125801
v 0.356516 -0.555626 -0.125813
v 0.293554 -0.440403 0.0209655
v 0.286581 -0.447397 0.0349523
v 0.293554 -0.422993 0.0209655
v 0.25165 -0.503319 0.0419431
v 0.265605 -0.510313 0.0349225
v 0.258628 -0.555626 0.0279326
v 0.321561 -0.555626 -0.0559453
v 0.244605 -0.555626 0.0349225
v 0.237628 -0.555626 0.0349225
v -0.188678 -0.555626 0.0209428
v 0.0209182 -0.503319 0.0419431
v 7.56887e-06 -0.422993 0.0506162
v -0.0209102 -0.48234 0.041914
v -0.0244662 -0.422993 0.0484644
v -0.243475 -0.422993 0.0145734
v -0.234202 -0.422993 0.0191618
v -0.0874288 -0.422993 0.040142
v -0.209679 -0.503319 0.0209428
v -0.220179 -0.513807 0.0157081
v -0.241105 -0.429923 0.0157126
v -0.300589 -0.555626 -0.0978843
v -0.300581 -0.48234 -0.0769102
v -0.32122 -0.422993 -0.0995042
v -0.322684 -0.422993 -0.102036
v -0.355804 -0.422993 -0.188013
v -0.32882 -0.422993 -0.113776
v -0.321522 -0.503319 -0.118823
v -0.335545 -0.503319 -0.146782
v -0.355595 -0.422993 -0.167318
v -0.335545 -0.524289 -0.167752
v -0.355804 -0.422993 -0.171305
v -0.335545 -0.503319 -0.188721
v -0.325045 -0.513807 -0.220191
v -0.325045 -0.534772 -0.199221
v -0.319828 -0.555626 -0.178129
v -0.319828 -0.555626 -0.173048
v -0.328499 -0.538266 -0.160762
v -0.317186 -0.555626 -0.148106
v -0.314544 -0.555626 -0.125813
v -0.299912 -0.555626 -0.236973
v -0.312444 -0.555626 -0.207628
v -0.325055 -0.429923 -0.262124
v -0.345973 -0.429923 -0.220196
v -0.349459 -0.422993 -0.213265
v -0.325055 -0.422993 -0.262124
v -0.293539 -0.422993 -0.272598
v -0.318082 -0.422993 -0.265605
v -0.293539 -0.461372 -0.272598
v -0.167746 -0.54526 -0.27263
v -0.272621 -0.48234 -0.272598
v -0.272612 -0.555626 -0.25163
v -0.162529 -0.555626 -0.267426
v -0.08388 -0.555626 -0.27263
v 0.104852 -0.555626 -0.27263
v 0.167717 -0.524289 -0.27263
v 0.293583 -0.555626 -0.25163
v 0.272566 -0.461372 -0.272598
v 0.310985 -0.422993 -0.272598
v 0.31496 -0.422993 -0.271712
v 0.305506 -0.555626 -0.248982
v 0.317191 -0.440403 -0.267377
v 0.326604 -0.422993 -0.265922
v 0.328538 -0.524289 -0.24464
v 0.329114 -0.422993 -0.264434
v 0.330299 -0.429923 -0.262124
v 0.3303 -0.534772 -0.24116
v 0.317158 -0.54526 -0.246395
v 0.312416 -0.555626 -0.245533
v 0.319732 -0.555626 -0.241222
v 0.3429 -0.555626 -0.213232
v 0.3513 -0.555626 -0.199098
v 0.343374 -0.503319 -0.23066
v 0.351217 -0.492828 -0.220196
v 0.342501 -0.48234 -0.237663
v 0.356516 -0.48234 -0.20969
v 0.356516 -0.54526 -0.188721
v 0.356516 -0.555626 -0.167752
v -0.202701 -0.555626 0.013953
v -0.293815 -0.555626 -0.241037
v -0.304067 -0.492828 -0.262124
v -0.330261 -0.524289 -0.144165
v -0.220179 -0.534772 0.00523877
f 1292 1293 1291
f 1292 1294 1293
f 1292 1291 1294
f 1291 1295 1294
f 1296 1295 1291
f 1296 1297 1295
f 1298 1297 1296
f 1298 1299 1297
f 1298 1291 1299
f 1300 1291 1298
f 1300 1296 1291
f 1300 1298 1296
f 1299 1291 1293
f 1299 1293 1301
f 1302 1299 1301
f 1303 1299 1302
f 1303 1304 1299
f 1303 1305 1304
f 1303 1302 1305
f 1302 1301 1305
f 1306 1305 1301
f 1306 1307 1305
f 1306 1308 1307
f 1306 1301 1308
f 1301 1294 1308
f 1301 1293 1294
f 1309 1308 1294
f 1310 1308 1309
f 1310 1307 1308
f 1310 1309 1307
f 1309 1311 1307
f 1309 1294 1311
f 1311 1294 1312
f 1313 1311 1312
f 1314 1311 1313
f 1314 1315 1311
f 1314 1313 1315
f 1313 1316 1315
f 1317 1316 1313
f 1317 1318 1316
f 1317 1319 1318
f 1317 1312 1319
f 1317 1313 1312
f 1320 1319 1312
f 1320 1321 1319
f 1320 1312 1321
f 1321 1312 1322
f 1323 1321 1322
f 1323 1324 1321
f 1323 1325 1324
f 1326 1325 1323
f 1326 1327 1325
f 1328 1327 1326
f 1328 1322 1327
f 1328 1326 1322
f 1326 1323 1322
f 1327 1322 1329
f 1330 1327 1329
f 1331 1327 1330
f 1332 1327 1331
f 1333 1327 1332
f 1333 1334 1327
f 1335 1334 1333
f 1335 1336 1334
f 1335 1333 1336
f 1333 1332 1336
f 1332 1337 1336
f 1338 1337 1332
f 1338 1331 1337
f 1338 1332 1331
f 1331 1330 1337
f 1330 1339 1337
f 1330 1340 1339
f 1341 1340 1330
f 1341 1339 1340
f 1341 1342 1339
f 1341 1322 1342
f 1341 1330 1322
f 1330 1329 1322
f 1342 1322 1343
f 1344 1342 1343
f 1344 1339 1342
f 1344 1345 1339
f 1344 1343 1345
f 1346 1345 1343
f 1346 1347 1345
f 1346 1348 1347
f 1349 1348 1346
f 1349 1350 1348
f 1349 1346 1350
f 1346 1351 1350
f 1352 1351 1346
f 1352 1353 1351
f 1352 1354 1353
f 1352 1355 1354
f 1352 1343 1355
f 1352 1346 1343
f 1355 1343 1295
f 1356 1355 1295
f 1356 1357 1355
f 1356 1358 1357
f 1359 1358 1356
f 1359 1360 1358
f 1359 1361 1360
f 1359 1356 1361
f 1361 1356 1295
f 1361 1295 1362
f 1361 1362 1360
f 1360 1362 1363
f 1364 1360 1363
f 1364 1358 1360
f 1364 1357 1358
f 1364 1365 1357
f 1364 1366 1365
f 1364 1363 1366
f 1367 1366 1363
f 1367 1368 1366
f 1369 1368 1367
f 1369 1370 1368
f 1369 1371 1370
f 1369 1363 1371
f 1369 1367 1363
f 1371 1363 1362
f 1372 1371 1362
f 1372 1370 1371
f 1372 1368 1370
f 1372 1373 1368
f 1372 1295 1373
f 1372 1362 1295
f 1373 1295 1297
f 1374 1373 1297
f 1374 1368 1373
f 1374 1297 1368
f 1368 1297 1366
f 1297 1305 1366
f 1304 1305 1297
f 1299 1304 1297
f 1366 1305 1350
f 1351 1366 1350
f 1353 1366 1351
f 1357 1366 1353
f 1365 1366 1357
f 1357 1353 1355
f 1354 1355 1353
f 1375 1350 1305
f 1348 1350 1375
f 1337 1348 1375
f 1376 1348 1337
f 1376 1377 1348
f 1376 1337 1377
f 1339 1377 1337
f 1345 1377 1339
f 1345 1347 1377
f 1347 1348 1377
f 1336 1337 1375
f 1318 1336 1375
f 1378 1336 1318
f 1378 1327 1336
f 1378 1325 1327
f 1378 1324 1325
f 1378 1318 1324
f 1318 1319 1324
f 1324 1319 1321
f 1334 1336 1327
f 1379 1318 1375
f 1379 1316 1318
f 1379 1375 1316
f 1316 1375 1307
f 1316 1307 1315
f 1311 1315 1307
f 1307 1375 1305
f 1343 1322 1295
f 1294 1295 1322
f 1312 1294 1322
o convex_15
v -0.314573 -0.12585 0.188743
v -0.300588 -0.153786 0.181752
v -0.30758 -0.139807 0.195733
v -0.30758 -0.12585 0.202724
v -0.309314 -0.115345 0.199229
v -0.314573 -0.0838929 0.167781
v -0.314573 -0.104861 0.167781
v -0.311067 -0.122334 0.171277
v -0.286602 -0.160775 0.195733
v -0.300588 -0.132839 0.160791
v -0.220334 -0.24132 0.120486
v -0.304074 -0.136313 0.204472
v -0.272616 -0.162522 0.212336
v -0.262137 -0.15728 0.225444
v -0.251657 -0.146797 0.230687
v -0.293595 -0.12585 0.209715
v -0.296215 -0.104861 0.204472
v -0.298835 -0.0943769 0.199229
v -0.309314 -0.073409 0.178257
v -0.30758 -0.0699143 0.167781
v -0.30758 -0.0769036 0.1538
v -0.30758 -0.0978715 0.1538
v -0.222145 -0.230668 0.120486
v -0.209719 -0.24311 0.120486
v -0.178261 -0.225426 0.157295
v -0.297082 -0.0873876 0.143314
v -0.251657 -0.160775 0.223696
v -0.167782 -0.146797 0.230687
v -0.117772 -0.0838929 0.224225
v -0.117772 -0.0817667 0.223696
v -0.117772 -0.0722932 0.221323
v -0.117772 -0.0281681 0.209132
v -0.258631 -0.132839 0.223696
v -0.133029 -0.0281681 0.206112
v -0.300588 -0.0699143 0.181752
v -0.293595 -0.0629251 0.167781
v -0.228637 -0.0281681 0.158493
v -0.304074 -0.068167 0.157295
v -0.272616 -0.0602935 0.13108
v -0.283115 -0.068167 0.136323
v -0.283115 -0.073409 0.136323
v -0.233799 -0.0660408 0.120486
v -0.204807 -0.243215 0.120486
v -0.194115 -0.242562 0.120486
v -0.157302 -0.225426 0.136323
v -0.136324 -0.204458 0.178257
v -0.125844 -0.196606 0.188743
v -0.209719 -0.175617 0.209715
v -0.167782 -0.160775 0.223696
v -0.117772 -0.177175 0.206209
v -0.117772 -0.168564 0.210513
v -0.117772 -0.155681 0.213739
v -0.117772 -0.0968189 0.223621
v -0.117772 -0.0870928 0.224225
v -0.117772 -0.0281681 0.132418
v -0.175872 -0.0281681 0.192109
v -0.217926 -0.0281681 0.165839
v -0.227577 -0.0281681 0.120486
v -0.228637 -0.0317259 0.120486
v -0.232066 -0.0432414 0.120486
v -0.169169 -0.226773 0.120486
v -0.118851 -0.195722 0.167781
v -0.117772 -0.186374 0.120486
v -0.117772 -0.186522 0.196791
v -0.125844 -0.181743 0.202724
v -0.146803 -0.188732 0.196607
v -0.117772 -0.0322732 0.124219
v -0.142257 -0.0281681 0.120486
v -0.117772 -0.193743 0.167296
v -0.117772 -0.193595 0.170975
v -0.117772 -0.0341469 0.120486
f 1380 1381 1382
f 1380 1382 1383
f 1380 1383 1384
f 1380 1384 1385
f 1380 1385 1386
f 1380 1386 1387
f 1380 1387 1381
f 1381 1388 1382
f 1381 1387 1389
f 1381 1389 1390
f 1381 1390 1388
f 1382 1391 1383
f 1382 1388 1392
f 1382 1392 1391
f 1383 1391 1393
f 1383 1393 1394
f 1383 1394 1395
f 1383 1395 1396
f 1383 1396 1384
f 1384 1396 1397
f 1384 1397 1398
f 1384 1398 1385
f 1385 1398 1399
f 1385 1399 1400
f 1385 1400 1401
f 1385 1401 1386
f 1386 1401 1389
f 1386 1389 1387
f 1388 1390 1392
f 1389 1401 1390
f 1390 1402 1421
f 1390 1421 1439
f 1390 1439 1438
f 1390 1438 1437
f 1390 1437 1447
f 1390 1447 1450
f 1390 1450 1442
f 1390 1442 1440
f 1390 1440 1423
f 1390 1423 1422
f 1390 1422 1403
f 1390 1403 1404
f 1390 1404 1393
f 1390 1393 1392
f 1390 1401 1405
f 1390 1405 1402
f 1391 1392 1393
f 1393 1404 1406
f 1393 1406 1428
f 1393 1428 1407
f 1393 1407 1394
f 1394 1407 1408
f 1394 1408 1409
f 1394 1409 1410
f 1394 1410 1411
f 1394 1411 1412
f 1394 1412 1396
f 1394 1396 1395
f 1396 1413 1397
f 1396 1412 1413
f 1397 1414 1398
f 1397 1413 1414
f 1398 1414 1399
f 1399 1414 1415
f 1399 1415 1416
f 1399 1416 1417
f 1399 1417 1400
f 1400 1417 1418
f 1400 1418 1419
f 1400 1419 1405
f 1400 1405 1401
f 1402 1405 1420
f 1402 1420 1418
f 1402 1418 1421
f 1403 1422 1404
f 1404 1422 1423
f 1404 1423 1424
f 1404 1424 1425
f 1404 1425 1426
f 1404 1426 1427
f 1404 1427 1406
f 1405 1419 1420
f 1406 1427 1428
f 1407 1428 1429
f 1407 1429 1430
f 1407 1430 1431
f 1407 1431 1432
f 1407 1432 1433
f 1407 1433 1408
f 1408 1433 1432
f 1408 1432 1431
f 1408 1431 1430
f 1408 1430 1429
f 1408 1429 1443
f 1408 1443 1449
f 1408 1449 1448
f 1408 1448 1442
f 1408 1442 1450
f 1408 1450 1446
f 1408 1446 1434
f 1408 1434 1411
f 1408 1411 1410
f 1408 1410 1409
f 1411 1434 1447
f 1411 1447 1437
f 1411 1437 1416
f 1411 1416 1436
f 1411 1436 1435
f 1411 1435 1413
f 1411 1413 1412
f 1413 1435 1414
f 1414 1435 1436
f 1414 1436 1416
f 1414 1416 1415
f 1416 1437 1417
f 1417 1437 1418
f 1418 1437 1438
f 1418 1438 1439
f 1418 1439 1421
f 1418 1420 1419
f 1423 1440 1424
f 1424 1441 1426
f 1424 1426 1425
f 1424 1440 1442
f 1424 1442 1441
f 1426 1441 1443
f 1426 1443 1429
f 1426 1429 1444
f 1426 1444 1428
f 1426 1428 1445
f 1426 1445 1427
f 1427 1445 1428
f 1428 1444 1429
f 1434 1446 1447
f 1441 1448 1449
f 1441 1449 1443
f 1441 1442 1448
f 1446 1450 1447
o convex_16
v -0.314573 -0.0629288 0.0209728
v -0.314573 -0.0419562 0.0419514
v -0.314573 -0.0419562 0.0209728
v -0.300588 -0.0699196 -0.00698991
v -0.296484 -0.0780957 -0.0151557
v -0.293595 -0.167767 -0.0151557
v -0.293595 -0.230685 7.39595e-06
v -0.282479 -0.275291 0.0392826
v -0.30758 -0.0419562 0.0559195
v -0.314573 -0.0281681 0.0419514
v -0.314573 -0.0281681 0.0347549
v -0.31151 -0.0281681 0.0209728
v -0.30758 -0.0349654 0.00699142
v -0.300588 -0.0489471 -0.00698991
v -0.296484 -0.044859 -0.0151557
v -0.286005 -0.224879 -0.0151557
v -0.274504 -0.275266 -0.0151557
v -0.282364 -0.275291 0.0127008
v -0.284444 -0.275291 0.0209728
v -0.281266 -0.275291 0.0410618
v -0.265431 -0.0281681 0.0987796
v -0.298391 -0.0281681 0.0656785
v -0.30758 -0.0281681 0.0559195
v -0.244664 -0.251657 0.0978635
v -0.230679 -0.251657 0.112721
v -0.308293 -0.0281681 0.0127141
v -0.29504 -0.0281681 -0.0151557
v -0.267338 -0.275291 -0.0151557
v -0.277856 -0.275291 -3.24372e-05
v -0.277933 -0.275291 0.000166725
v -0.279493 -0.275291 0.0429472
v -0.241158 -0.262131 0.0996028
v -0.233799 -0.0660492 0.120462
v -0.232066 -0.0432383 0.120462
v -0.228637 -0.031724 0.120462
v -0.227577 -0.0281681 0.120462
v -0.222145 -0.230685 0.120462
v -0.230679 -0.265639 0.0978635
v -0.209719 -0.259519 0.104848
v -0.204807 -0.243215 0.120462
v -0.209719 -0.243118 0.120462
v -0.220334 -0.241304 0.120462
v -0.229388 -0.0281681 -0.0151557
v -0.117772 -0.275291 -0.0151557
v -0.254315 -0.275291 0.0674444
v -0.142257 -0.0281681 0.120462
v -0.220199 -0.267381 0.0943714
v -0.230679 -0.27263 0.0838821
v -0.194115 -0.242562 0.120462
v -0.117772 -0.275291 0.0714543
v -0.117772 -0.0341429 0.120462
v -0.117772 -0.0349654 0.118829
v -0.117772 -0.0424884 0.108605
v -0.117772 -0.0726047 0.0685598
v -0.117772 -0.0758461 0.0651209
v -0.117772 -0.164864 -0.0151557
v -0.229349 -0.275291 0.0736849
v -0.169169 -0.226766 0.120462
v -0.117772 -0.186369 0.120462
f 1451 1452 1460
f 1451 1460 1461
f 1451 1461 1453
f 1451 1453 1463
f 1451 1463 1464
f 1451 1464 1454
f 1451 1454 1455
f 1451 1455 1456
f 1451 1456 1457
f 1451 1457 1458
f 1451 1458 1452
f 1452 1459 1473
f 1452 1473 1460
f 1452 1458 1459
f 1453 1461 1462
f 1453 1462 1463
f 1454 1464 1465
f 1454 1465 1455
f 1455 1465 1477
f 1455 1477 1493
f 1455 1493 1506
f 1455 1506 1494
f 1455 1494 1478
f 1455 1478 1467
f 1455 1467 1466
f 1455 1466 1456
f 1456 1466 1457
f 1457 1466 1467
f 1457 1467 1468
f 1457 1468 1469
f 1457 1469 1458
f 1458 1469 1468
f 1458 1468 1480
f 1458 1480 1479
f 1458 1479 1478
f 1458 1478 1494
f 1458 1494 1500
f 1458 1500 1507
f 1458 1507 1495
f 1458 1495 1481
f 1458 1481 1470
f 1458 1470 1459
f 1459 1471 1472
f 1459 1472 1473
f 1459 1470 1474
f 1459 1474 1475
f 1459 1475 1471
f 1460 1473 1472
f 1460 1472 1471
f 1460 1471 1486
f 1460 1486 1496
f 1460 1496 1493
f 1460 1493 1477
f 1460 1477 1476
f 1460 1476 1462
f 1460 1462 1461
f 1462 1476 1463
f 1463 1476 1477
f 1463 1477 1465
f 1463 1465 1464
f 1467 1478 1479
f 1467 1479 1480
f 1467 1480 1468
f 1470 1481 1482
f 1470 1482 1474
f 1471 1483 1484
f 1471 1484 1485
f 1471 1485 1486
f 1471 1475 1487
f 1471 1487 1483
f 1474 1482 1475
f 1475 1482 1488
f 1475 1488 1489
f 1475 1489 1490
f 1475 1490 1491
f 1475 1491 1492
f 1475 1492 1487
f 1481 1495 1482
f 1482 1495 1488
f 1483 1487 1492
f 1483 1492 1491
f 1483 1491 1490
f 1483 1490 1499
f 1483 1499 1508
f 1483 1508 1509
f 1483 1509 1501
f 1483 1501 1496
f 1483 1496 1486
f 1483 1486 1485
f 1483 1485 1484
f 1488 1497 1489
f 1488 1495 1498
f 1488 1498 1497
f 1489 1499 1490
f 1489 1497 1500
f 1489 1500 1499
f 1493 1496 1501
f 1493 1501 1502
f 1493 1502 1503
f 1493 1503 1504
f 1493 1504 1505
f 1493 1505 1506
f 1494 1506 1505
f 1494 1505 1504
f 1494 1504 1503
f 1494 1503 1502
f 1494 1502 1501
f 1494 1501 1509
f 1494 1509 1500
f 1495 1507 1498
f 1497 1498 1500
f 1498 1507 1500
f 1499 1500 1508
f 1500 1509 1508
o convex_17
v 0.210992 0.146773 -0.0937394
v 0.210992 0.147472 -0.0937394
v 0.225764 0.00619075 -0.0937394
v 0.250217 -0.177018 -0.0151689
v 0.251667 0.147472 -0.0151689
v 0.2677 0.147472 -0.0937394
v 0.250217 -0.168473 -0.0151689
v 0.226748 -3.01157e-06 -0.0937394
v 0.251667 -0.177018 -0.0419487
v 0.293592 -0.177018 -0.0151689
v 0.306981 0.147472 -0.0151689
v 0.293825 0.147472 -0.0415026
v 0.293592 -3.01157e-06 -0.0937394
v 0.249476 -0.104852 -0.0937394
v 0.261526 -0.177018 -0.0721587
v 0.323811 -0.177018 -0.0931241
v 0.305808 -0.0780762 -0.0151689
v 0.324021 -0.177018 -0.0937394
v 0.311197 -0.0209665 -0.0151689
v 0.270256 -0.177018 -0.0937394
f 1510 1511 1515
f 1510 1515 1522
f 1510 1522 1527
f 1510 1527 1529
f 1510 1529 1523
f 1510 1523 1517
f 1510 1517 1512
f 1510 1512 1513
f 1510 1513 1516
f 1510 1516 1511
f 1511 1514 1520
f 1511 1520 1521
f 1511 1521 1515
f 1511 1516 1514
f 1512 1517 1518
f 1512 1518 1513
f 1513 1518 1524
f 1513 1524 1529
f 1513 1529 1527
f 1513 1527 1525
f 1513 1525 1519
f 1513 1519 1526
f 1513 1526 1528
f 1513 1528 1520
f 1513 1520 1514
f 1513 1514 1516
f 1515 1521 1522
f 1517 1523 1518
f 1518 1523 1524
f 1519 1525 1526
f 1520 1527 1522
f 1520 1522 1521
f 1520 1528 1527
f 1523 1529 1524
f 1525 1527 1528
f 1525 1528 1526
o convex_18
v 0.324012 -0.177027 -0.0937394
v 0.323789 -0.177027 -0.0931241
v 0.324395 -0.177633 -0.0937394
v 0.270237 -0.177027 -0.0937394
v 0.293588 -0.177027 -0.0151689
v 0.324713 -0.178576 -0.0937394
v 0.261508 -0.177027 -0.0721587
v 0.250326 -0.275262 -0.0937394
v 0.0101208 -0.275291 -0.0525007
v 0.0101208 -0.230685 -0.0419487
v 0.0101208 -0.18202 -0.0176146
v 0.0101208 -0.177143 -0.0151689
v 0.294863 -0.188753 -0.0151689
v 0.335513 -0.272626 -0.0838796
v 0.250199 -0.177027 -0.0151689
v 0.32997 -0.215284 -0.0937394
v 0.251632 -0.177027 -0.0419487
v 0.265267 -0.275291 -0.0937394
v 0.0101208 -0.275291 -0.0151689
v 0.296488 -0.209724 -0.0151689
v 0.321559 -0.265633 -0.0559231
v 0.332869 -0.275291 -0.0785575
v 0.335513 -0.275291 -0.0838796
v 0.335513 -0.272626 -0.0937394
v 0.335513 -0.275291 -0.0937394
v 0.296488 -0.275291 -0.0151689
v 0.321559 -0.275291 -0.0559231
f 1530 1531 1532
f 1530 1532 1535
f 1530 1535 1545
f 1530 1545 1553
f 1530 1553 1554
f 1530 1554 1547
f 1530 1547 1537
f 1530 1537 1533
f 1530 1533 1536
f 1530 1536 1546
f 1530 1546 1544
f 1530 1544 1534
f 1530 1534 1531
f 1531 1534 1532
f 1532 1534 1535
f 1533 1537 1538
f 1533 1538 1539
f 1533 1539 1540
f 1533 1540 1541
f 1533 1541 1536
f 1534 1542 1543
f 1534 1543 1535
f 1534 1544 1541
f 1534 1541 1548
f 1534 1548 1555
f 1534 1555 1549
f 1534 1549 1542
f 1535 1543 1545
f 1536 1541 1546
f 1537 1547 1538
f 1538 1548 1541
f 1538 1541 1540
f 1538 1540 1539
f 1538 1547 1554
f 1538 1554 1552
f 1538 1552 1551
f 1538 1551 1556
f 1538 1556 1555
f 1538 1555 1548
f 1541 1544 1546
f 1542 1549 1550
f 1542 1550 1543
f 1543 1550 1551
f 1543 1551 1552
f 1543 1552 1554
f 1543 1554 1553
f 1543 1553 1545
f 1549 1555 1556
f 1549 1556 1550
f 1550 1556 1551
o convex_19
v -0.337736 -0.127431 -0.117821
v -0.331537 -0.0129597 -0.117821
v -0.279113 -0.127431 -0.117821
v -0.293599 -0.127431 -0.0151689
v -0.296494 -0.0780796 -0.0151689
v -0.296494 0.101942 -0.0151689
v -0.295052 0.125084 -0.0151689
v -0.293599 0.147472 -0.0151689
v -0.310561 0.133829 -0.117821
v -0.252195 -0.127431 -0.0639828
v -0.278542 -0.124282 -0.117821
v -0.265648 -0.083865 -0.111842
v -0.264766 -0.104854 -0.104849
v -0.232349 -0.127431 -0.0151689
v -0.230692 0.147472 -0.0151689
v -0.304362 0.147472 -0.117821
v -0.304706 0.146799 -0.117821
v -0.30871 0.138781 -0.117821
v -0.251668 -0.127431 -0.0629177
v -0.245178 0.111333 -0.117821
v -0.256909 -0.0943596 -0.0943685
v -0.251668 -0.083865 -0.0838782
v -0.227796 -0.0419407 -0.0151689
v -0.230692 0.147472 -0.0209768
v -0.245178 0.147472 -0.117821
f 1557 1558 1565
f 1557 1565 1574
f 1557 1574 1573
f 1557 1573 1572
f 1557 1572 1581
f 1557 1581 1576
f 1557 1576 1567
f 1557 1567 1559
f 1557 1559 1566
f 1557 1566 1575
f 1557 1575 1570
f 1557 1570 1560
f 1557 1560 1561
f 1557 1561 1562
f 1557 1562 1558
f 1558 1562 1563
f 1558 1563 1564
f 1558 1564 1565
f 1559 1567 1568
f 1559 1568 1569
f 1559 1569 1566
f 1560 1570 1579
f 1560 1579 1571
f 1560 1571 1564
f 1560 1564 1563
f 1560 1563 1562
f 1560 1562 1561
f 1564 1571 1580
f 1564 1580 1581
f 1564 1581 1572
f 1564 1572 1573
f 1564 1573 1574
f 1564 1574 1565
f 1566 1569 1575
f 1567 1576 1568
f 1568 1577 1569
f 1568 1576 1577
f 1569 1577 1575
f 1570 1575 1577
f 1570 1577 1578
f 1570 1578 1576
f 1570 1576 1579
f 1571 1579 1580
f 1576 1581 1579
f 1576 1578 1577
f 1579 1581 1580
o convex_20
v -0.232331 -0.127445 -0.0151689
v 0.0100889 -0.177147 -0.0151689
v -0.25164 -0.127445 -0.0629177
v -0.293593 -0.127445 -0.0151689
v 0.0100889 -0.275276 -0.0151689
v 0.0100889 -0.183168 -0.0181834
v -0.279112 -0.127445 -0.117821
v -0.273149 -0.127445 -0.105924
v -0.252172 -0.127445 -0.0639828
v -0.337711 -0.127445 -0.117821
v -0.330293 -0.136317 -0.0943685
v -0.35127 -0.220191 -0.115339
v -0.342503 -0.230684 -0.0978652
v -0.293593 -0.167783 -0.0151689
v 0.0100889 -0.275276 -0.0525079
v -0.274498 -0.275276 -0.0151689
v 0.0100889 -0.202721 -0.0279703
v -0.242305 -0.275276 -0.117821
v 0.0100889 -0.209972 -0.0315976
v 0.0100889 -0.230684 -0.0419472
v -0.342006 -0.146811 -0.117821
v -0.352512 -0.222666 -0.117821
v -0.352512 -0.272628 -0.117821
v -0.342503 -0.272628 -0.0978652
v -0.285997 -0.22488 -0.0151689
v -0.34229 -0.275276 -0.099081
v -0.35198 -0.275276 -0.117821
v -0.349744 -0.275276 -0.113289
v -0.34339 -0.275276 -0.10097
f 1582 1583 1584
f 1582 1584 1590
f 1582 1590 1589
f 1582 1589 1588
f 1582 1588 1591
f 1582 1591 1585
f 1582 1585 1595
f 1582 1595 1606
f 1582 1606 1597
f 1582 1597 1586
f 1582 1586 1583
f 1583 1586 1596
f 1583 1596 1601
f 1583 1601 1600
f 1583 1600 1598
f 1583 1598 1587
f 1583 1587 1588
f 1583 1588 1589
f 1583 1589 1590
f 1583 1590 1584
f 1585 1591 1592
f 1585 1592 1593
f 1585 1593 1594
f 1585 1594 1605
f 1585 1605 1595
f 1586 1597 1607
f 1586 1607 1610
f 1586 1610 1609
f 1586 1609 1608
f 1586 1608 1599
f 1586 1599 1596
f 1587 1598 1588
f 1588 1599 1608
f 1588 1608 1604
f 1588 1604 1603
f 1588 1603 1602
f 1588 1602 1591
f 1588 1598 1600
f 1588 1600 1601
f 1588 1601 1596
f 1588 1596 1599
f 1591 1602 1592
f 1592 1602 1593
f 1593 1603 1604
f 1593 1604 1605
f 1593 1605 1594
f 1593 1602 1603
f 1595 1605 1606
f 1597 1606 1605
f 1597 1605 1607
f 1604 1608 1609
f 1604 1609 1605
f 1605 1609 1610
f 1605 1610 1607
