# https://github.com/mikedh/trimesh
v -0.77272100 -0.15118400 -0.09344490
v -0.77272100 -0.16795600 0.50393300
v -0.77272100 0.07450700 -0.09344490
v -0.76530800 -0.16586500 -0.09344490
v -0.77272100 -0.16795600 0.57111400
v -0.76137500 -0.17356000 -0.09344490
v -0.76697200 -0.17916400 0.50953700
v -0.77272100 0.08397820 -0.08394540
v -0.75577800 0.16795600 -0.09344490
v -0.76848500 0.15955100 0.57952000
v -0.77272100 0.15118400 0.57111400
v -0.76697200 -0.17916400 0.57671800
v -0.76424900 -0.17636200 0.58368900
v -0.76697200 -0.16795600 0.58232200
v -0.75381100 -0.17742800 -0.09344490
v -0.75577800 -0.18476800 0.50393300
v -0.77272100 0.10079000 0.01685920
v -0.75335700 0.17285000 -0.09344490
v -0.76697200 0.15118400 0.58232200
v -0.75789600 0.16795600 0.58368900
v -0.76137500 0.17356000 0.57111400
v -0.75018000 0.17916400 -0.09344490
v -0.75577800 -0.18476800 0.57111400
v -0.75577800 -0.17916400 0.58232200
v -0.24355500 -0.17636200 0.60050100
v -0.75577800 -0.16795600 0.58792600
v -0.75577800 0.15118400 0.58792600
v -0.73898600 -0.18476800 -0.09344490
v 0.06716680 -0.20157900 0.41994100
v -0.73898600 0.16795600 0.58792600
v -0.74458300 0.17916400 0.58232200
v -0.75169300 0.17636200 0.57952000
v -0.73898600 0.18476800 0.57111400
v -0.74534000 0.18161100 -0.09344490
v 0.08395850 -0.20157900 0.43675300
v 0.15112500 -0.20157900 0.45349700
v 0.23508400 -0.20157900 0.47030900
v -0.23508400 -0.18476800 0.58792600
v -0.23508400 -0.17916400 0.59913400
v -0.23508400 -0.16795600 0.60473800
v -0.25187500 -0.15118400 0.60473800
v -0.28545900 -0.03358340 0.60473800
v -0.23508400 0.16795600 0.60473800
v 0.73898600 -0.18476800 -0.09344490
v 0.13433400 -0.20157900 0.36950400
v -0.24068100 0.17916400 0.59913400
v -0.73898600 0.18476800 -0.09344490
v -0.23508400 0.18476800 0.58792600
v 0.38636000 0.20157900 0.36950400
v -0.13433400 0.20157900 0.25202400
v -0.35262600 0.20157900 0.18484400
v -0.36941700 0.20157900 0.16803200
v 0.30225100 -0.20157900 0.47030900
v 0.72219400 -0.18476800 0.58792600
v 0.72219400 -0.17916400 0.59913400
v 0.72219400 -0.16795600 0.60473800
v 0.72219400 0.16795600 0.60473800
v 0.74397800 -0.18232100 -0.09344490
v 0.73898600 -0.18476800 0.11759500
v 0.45352700 -0.20157900 0.41994100
v 0.40315200 -0.20157900 0.40312900
v 0.35262600 -0.20157900 0.38631700
v 0.21829200 -0.20157900 0.36950400
v 0.71659700 0.17916400 0.59913400
v -0.36941700 0.20157900 -0.05038940
v -0.35262600 0.20157900 -0.08394540
v -0.33583400 0.20157900 -0.09344490
v 0.72219400 0.18476800 0.58792600
v 0.53748600 0.20157900 0.36950400
v 0.40315200 -0.20157900 0.43675300
v 0.73066600 -0.18054500 0.59633200
v 0.73338900 -0.17356000 0.59913400
v 0.73898600 -0.13437300 0.60473800
v 0.73898600 0.08397820 0.60473800
v 0.73338900 0.16235300 0.59913400
v 0.73066600 0.17636200 0.59633200
v 0.74745800 -0.18054500 0.12600200
v 0.75517300 -0.17671700 -0.09344490
v 0.57106900 0.20157900 -0.09344490
v 0.73338900 0.17916400 0.58232200
v 0.73898600 0.18476800 0.08403950
v 0.57106900 0.20157900 0.23521200
v 0.55427700 0.20157900 0.31913600
v 0.74458300 -0.17356000 0.55430100
v 0.75169300 -0.15327600 0.57111400
v 0.75018000 -0.13997700 0.59913400
v 0.75018000 0.07837440 0.59913400
v 0.73898600 0.16795600 0.58792600
v 0.76137500 -0.17356000 0.01685920
v 0.75018000 -0.17916400 0.11759500
v 0.76137500 -0.17356000 -0.09344490
v 0.73898600 0.18476800 -0.09344490
v 0.75018000 0.17916400 0.07843540
v 0.74639900 0.18109800 -0.09344490
v 0.76697200 -0.16235300 0.10085200
v 0.77272100 -0.15118400 0.10085200
v 0.75577800 -0.15118400 0.55430100
v 0.75577800 -0.13437300 0.58792600
v 0.75577800 0.08397820 0.58792600
v 0.75577800 0.15118400 0.25202400
v 0.75577800 0.16795600 0.08403950
v 0.76394700 -0.16866700 -0.09344490
v 0.75214700 0.17529700 -0.09344490
v 0.75018000 0.17916400 -0.09344490
v 0.77272100 -0.15118400 -0.09344490
v 0.77272100 -0.13437300 0.15122000
v 0.77272100 -0.11756200 0.16803200
v 0.77272100 -0.10079000 0.16803200
v 0.77272100 -0.06716680 0.15122000
v 0.77272100 -0.03358340 0.11759500
v 0.77272100 -0.01677200 0.08403950
v 0.77272100 0.00000000 0.03360300
v 0.77272100 0.01677200 -0.06713320
v 0.75577800 0.16795600 -0.09344490
v 0.77272100 0.01677200 -0.09344490
f 1 2 5
f 54 59 77
f 54 77 71
f 54 71 55
f 55 71 56
f 56 71 72
f 56 72 86
f 56 86 73
f 57 74 87
f 57 87 75
f 57 75 76
f 57 76 64
f 54 60 59
f 58 77 59
f 64 76 68
f 68 76 80
f 68 80 93
f 68 93 81
f 68 81 82
f 68 82 83
f 68 83 69
f 71 77 84
f 71 84 85
f 71 85 72
f 72 85 86
f 58 78 77
f 54 70 60
f 53 70 54
f 49 51 50
f 40 74 57
f 40 57 43
f 40 43 42
f 40 42 41
f 43 57 64
f 43 64 46
f 44 58 59
f 44 59 60
f 44 60 61
f 44 61 62
f 44 62 63
f 46 64 68
f 46 68 48
f 47 65 66
f 47 66 67
f 48 68 69
f 48 69 49
f 49 69 83
f 49 83 82
f 49 82 79
f 49 79 67
f 49 67 66
f 49 66 65
f 49 65 52
f 49 52 51
f 73 86 87
f 40 73 74
f 73 87 74
f 75 99 88
f 96 105 115
f 96 115 113
f 96 113 112
f 96 112 111
f 96 111 110
f 96 110 109
f 96 109 108
f 96 108 107
f 96 107 106
f 96 106 97
f 96 102 105
f 93 101 103
f 97 106 98
f 98 107 108
f 98 108 99
f 99 108 109
f 99 109 110
f 99 110 111
f 99 111 112
f 100 112 113
f 100 113 101
f 101 113 115
f 101 115 114
f 101 114 103
f 98 106 107
f 93 104 94
f 93 103 104
f 89 96 95
f 75 88 76
f 76 88 80
f 77 78 89
f 77 89 90
f 77 90 84
f 78 91 89
f 79 82 81
f 79 81 92
f 80 88 101
f 80 101 93
f 81 93 94
f 81 94 92
f 84 90 89
f 84 89 95
f 84 95 96
f 84 96 97
f 84 97 85
f 85 97 98
f 85 98 86
f 86 98 99
f 86 99 87
f 88 99 100
f 88 100 101
f 89 91 102
f 89 102 96
f 75 87 99
f 40 56 73
f 99 112 100
f 39 55 56
f 2 6 7
f 2 7 12
f 2 12 5
f 3 8 9
f 5 10 11
f 5 12 13
f 5 13 14
f 5 14 10
f 6 15 7
f 7 15 16
f 7 16 23
f 2 4 6
f 7 23 12
f 9 17 11
f 9 11 18
f 10 14 19
f 10 19 20
f 10 20 21
f 10 21 11
f 11 21 22
f 11 22 18
f 12 23 13
f 13 19 14
f 13 23 24
f 8 17 9
f 1 4 2
f 1 6 4
f 1 15 6
f 39 56 40
f 1 5 11
f 1 11 17
f 1 8 3
f 1 3 9
f 1 9 18
f 1 18 22
f 1 22 34
f 1 34 47
f 1 47 67
f 1 67 79
f 1 79 92
f 1 92 94
f 1 94 104
f 1 104 103
f 1 103 114
f 1 114 115
f 1 115 105
f 1 105 102
f 1 102 91
f 1 91 78
f 1 78 58
f 1 58 44
f 1 44 28
f 1 28 15
f 13 24 39
f 13 39 25
f 1 17 8
f 13 40 26
f 29 45 63
f 29 63 62
f 29 62 61
f 29 61 60
f 29 60 70
f 29 70 53
f 29 53 37
f 29 37 36
f 29 36 35
f 30 43 46
f 30 46 31
f 28 45 29
f 31 33 32
f 31 48 33
f 33 47 34
f 33 48 49
f 33 49 50
f 33 50 51
f 33 51 52
f 33 52 65
f 33 65 47
f 37 53 54
f 38 54 55
f 13 25 40
f 31 46 48
f 28 63 45
f 37 54 38
f 27 43 30
f 13 26 27
f 28 44 63
f 13 27 19
f 15 28 16
f 16 28 29
f 16 29 23
f 19 27 20
f 20 27 30
f 20 30 31
f 20 31 32
f 20 32 21
f 21 32 33
f 38 55 39
f 21 34 22
f 21 33 34
f 26 42 27
f 26 41 42
f 26 40 41
f 25 39 40
f 27 42 43
f 23 38 39
f 23 37 38
f 23 36 37
f 23 29 35
f 23 35 36
f 23 39 24

