# https://github.com/mikedh/trimesh
v -0.73898600 -0.18476800 -0.60468800
v -0.73338900 -0.19597500 -0.59913300
v -0.74745800 -0.19317400 -0.59633000
v -0.75018000 -0.17916400 -0.59913300
v -0.73898600 0.16795600 -0.60468800
v -0.62144400 -0.18476800 -0.60468800
v -0.73898600 -0.20157900 -0.58792200
v -0.61584700 -0.19597500 -0.59913300
v -0.75018000 -0.19597500 -0.58231600
v -0.75577800 -0.18476800 -0.58792200
v -0.75018000 0.17356000 -0.59913300
v -0.73898600 0.17916400 -0.59913300
v -0.49543100 0.17636200 -0.60053400
v -0.50390200 0.16795600 -0.60468800
v 0.18470900 -0.16795600 -0.60468800
v -0.70540300 -0.20157900 -0.53752300
v -0.73898600 -0.18476800 -0.09349500
v -0.62144400 -0.20157900 -0.58792200
v 0.19030600 -0.17916400 -0.59913300
v 0.74458300 -0.19597500 -0.58231600
v -0.75381100 -0.17742800 -0.09349500
v -0.76137500 -0.17356000 -0.09349500
v -0.76530800 -0.16586500 -0.09349500
v -0.77272100 -0.15118400 -0.09349500
v -0.77272100 -0.15118400 -0.28558000
v -0.77272100 -0.13437300 -0.41991000
v -0.77272100 -0.11756200 -0.47030800
v -0.77272100 -0.10079000 -0.48712500
v -0.77272100 -0.08397820 -0.50394100
v -0.77272100 -0.06716680 -0.52070700
v -0.75577800 0.16795600 -0.58792200
v -0.74745800 0.18054500 -0.59633000
v -0.73898600 0.18476800 -0.58792200
v -0.50390200 0.17916400 -0.59913300
v 0.74745800 0.17636200 -0.58371800
v 0.73898600 0.16795600 -0.58792200
v 0.01679170 0.15118400 -0.60468800
v 0.33583400 -0.15118400 -0.60468800
v 0.73898600 -0.18476800 -0.58792200
v -0.68861100 -0.20157900 -0.52070700
v -0.67181900 -0.20157900 -0.50394100
v -0.20150000 -0.20157900 -0.36956100
v 0.73898600 -0.18476800 -0.09349500
v 0.73898600 -0.20157900 -0.57110600
v 0.75789600 -0.16795600 -0.58371800
v 0.75169300 -0.19317400 -0.57951400
v -0.77272100 0.07450700 -0.09349500
v -0.77272100 -0.05039480 -0.52070700
v -0.77272100 -0.01677200 -0.50394100
v -0.77272100 0.01677200 -0.47030800
v -0.77272100 0.03358340 -0.38632700
v -0.77272100 0.06716680 -0.16801700
v -0.75577800 0.16795600 -0.09349500
v -0.75335700 0.17285000 -0.09349500
v -0.75018000 0.17916400 -0.58792200
v -0.75018000 0.17916400 -0.09349500
v -0.74534000 0.18161100 -0.09349500
v -0.73898600 0.18476800 -0.09349500
v -0.33583400 0.20157900 -0.10080200
v -0.30225100 0.20157900 -0.13443400
v -0.23508400 0.20157900 -0.20159900
v -0.08395850 0.20157900 -0.28558000
v -0.01679170 0.20157900 -0.31921300
v 0.08395850 0.20157900 -0.35274500
v 0.16791700 0.20157900 -0.36956100
v -0.50390200 0.18476800 -0.58792200
v 0.73898600 0.17916400 -0.58231600
v 0.73898600 0.18476800 -0.57110600
v 0.75018000 0.17916400 -0.57671100
v 0.75577800 0.16795600 -0.57110600
v 0.75018000 0.16795600 -0.58231600
v 0.76697200 0.05039480 -0.58231600
v 0.76424900 0.05876110 -0.58371800
v 0.75577800 0.05039480 -0.58792200
v 0.35262600 -0.03358340 -0.60468800
v 0.33583400 0.01677200 -0.60468800
v 0.31904200 0.05039480 -0.60468800
v 0.28545900 0.11756200 -0.60468800
v 0.25187500 0.13437300 -0.60468800
v 0.35262600 -0.05039480 -0.60468800
v 0.75577800 -0.15118400 -0.58792200
v -0.13433400 -0.20157900 -0.36956100
v 0.73898600 -0.20157900 -0.48712500
v 0.74745800 -0.19735700 -0.46195000
v 0.74397800 -0.18232100 -0.09349500
v 0.75018000 -0.19597500 -0.57110600
v 0.76697200 -0.15118400 -0.58231600
v 0.76848500 -0.15955100 -0.57951400
v 0.75018000 -0.19597500 -0.47030800
v 0.77272100 -0.15118400 -0.57110600
v 0.77272100 -0.15118400 -0.09349500
v 0.76394700 -0.16866700 -0.09349500
v -0.33583400 0.20157900 -0.09349500
v 0.36941700 0.20157900 -0.36956100
v 0.40315200 0.20157900 -0.35274500
v 0.43673500 0.20157900 -0.33597900
v 0.52069400 0.20157900 -0.28558000
v 0.57106900 0.20157900 -0.10080200
v 0.73898600 0.18476800 -0.09349500
v 0.74639900 0.18109800 -0.09349500
v 0.75018000 0.17916400 -0.09349500
v 0.75214700 0.17529700 -0.09349500
v 0.75577800 0.16795600 -0.09349500
v 0.77272100 0.06716680 -0.55433900
v 0.77272100 0.05039480 -0.57110600
v 0.76137500 -0.17356000 -0.09349500
v 0.75517300 -0.17671700 -0.09349500
v 0.77272100 0.01677200 -0.09349500
v 0.57106900 0.20157900 -0.09349500
v 0.77272100 0.06716680 -0.47030800
f 45 87 88
f 35 68 69
f 35 69 70
f 35 70 71
f 35 71 72
f 35 72 73
f 35 73 74
f 35 74 36
f 36 74 75
f 36 75 76
f 36 78 79
f 36 77 78
f 36 79 37
f 38 80 81
f 35 67 68
f 39 81 45
f 43 82 83
f 43 83 84
f 43 84 85
f 44 46 86
f 44 86 84
f 44 84 83
f 36 76 77
f 38 81 39
f 33 63 64
f 34 66 68
f 24 27 26
f 24 26 25
f 45 88 46
f 31 48 49
f 31 49 50
f 31 50 51
f 31 51 52
f 31 52 47
f 31 47 53
f 31 53 54
f 31 54 55
f 34 68 67
f 31 55 32
f 32 57 33
f 32 55 56
f 33 58 93
f 33 93 59
f 33 59 60
f 33 60 61
f 33 61 62
f 33 62 63
f 33 64 65
f 33 65 94
f 33 94 66
f 32 56 57
f 33 57 58
f 68 99 100
f 46 89 86
f 70 102 103
f 70 103 110
f 70 110 104
f 70 104 105
f 70 105 71
f 71 105 72
f 72 105 88
f 72 88 87
f 72 87 73
f 73 87 81
f 73 81 74
f 74 81 80
f 74 80 75
f 84 86 89
f 84 89 106
f 84 106 107
f 84 107 85
f 88 105 90
f 89 92 106
f 90 105 104
f 90 104 110
f 24 28 27
f 90 110 108
f 69 102 70
f 69 101 102
f 69 100 101
f 68 100 69
f 46 88 90
f 46 90 91
f 46 91 92
f 46 92 89
f 54 56 55
f 59 93 109
f 59 109 98
f 59 98 97
f 59 97 96
f 59 96 95
f 59 95 94
f 45 81 87
f 59 94 65
f 59 64 63
f 59 63 62
f 59 62 61
f 59 61 60
f 66 94 68
f 68 94 95
f 68 95 96
f 68 96 97
f 68 97 98
f 68 98 109
f 68 109 99
f 59 65 64
f 24 29 28
f 10 28 29
f 24 48 30
f 5 12 13
f 5 13 14
f 6 15 19
f 6 19 8
f 7 16 17
f 7 17 9
f 7 18 44
f 7 44 83
f 7 83 82
f 7 82 42
f 7 42 41
f 7 41 40
f 7 40 16
f 8 19 20
f 8 20 44
f 8 44 18
f 9 17 21
f 9 21 22
f 9 22 23
f 9 23 24
f 9 24 25
f 9 25 10
f 10 25 26
f 5 11 12
f 10 26 27
f 4 31 11
f 3 10 4
f 90 108 91
f 1 2 3
f 1 3 4
f 1 4 11
f 1 11 5
f 1 5 14
f 1 14 37
f 1 37 79
f 1 79 78
f 1 78 77
f 1 77 76
f 1 76 75
f 1 75 80
f 1 80 38
f 1 38 15
f 1 15 6
f 1 6 8
f 1 8 2
f 2 7 3
f 2 8 18
f 2 18 7
f 3 7 9
f 3 9 10
f 4 10 31
f 10 27 28
f 10 29 30
f 10 30 48
f 17 101 100
f 17 100 99
f 17 99 109
f 17 109 93
f 17 93 58
f 17 58 57
f 17 57 56
f 17 56 54
f 17 54 53
f 17 53 47
f 17 47 24
f 17 24 23
f 17 23 22
f 17 22 21
f 19 39 20
f 20 39 45
f 20 45 46
f 20 46 44
f 24 47 52
f 24 52 51
f 24 51 50
f 24 50 49
f 24 49 48
f 17 102 101
f 17 103 102
f 17 108 103
f 17 91 108
f 10 48 31
f 11 32 12
f 11 31 32
f 12 32 33
f 12 33 66
f 12 66 34
f 12 34 13
f 13 34 67
f 13 67 35
f 13 35 36
f 13 36 14
f 24 30 29
f 14 36 37
f 15 39 19
f 16 40 17
f 17 40 41
f 17 41 42
f 17 42 82
f 17 82 43
f 17 43 85
f 17 85 107
f 17 107 106
f 17 106 92
f 17 92 91
f 15 38 39
f 103 108 110

