o convex_0
v -0.772721 -0.151184 -0.0934449
v -0.772721 -0.167956 0.503933
v -0.772721 0.074507 -0.0934449
v -0.765308 -0.165865 -0.0934449
v -0.772721 -0.167956 0.571114
v -0.761375 -0.17356 -0.0934449
v -0.766972 -0.179164 0.509537
v -0.772721 0.0839782 -0.0839454
v -0.755778 0.167956 -0.0934449
v -0.768485 0.159551 0.57952
v -0.772721 0.151184 0.571114
v -0.766972 -0.179164 0.576718
v -0.764249 -0.176362 0.583689
v -0.766972 -0.167956 0.582322
v -0.753811 -0.177428 -0.0934449
v -0.755778 -0.184768 0.503933
v -0.772721 0.10079 0.0168592
v -0.753357 0.17285 -0.0934449
v -0.766972 0.151184 0.582322
v -0.757896 0.167956 0.583689
v -0.761375 0.17356 0.571114
v -0.75018 0.179164 -0.0934449
v -0.755778 -0.184768 0.571114
v -0.755778 -0.179164 0.582322
v -0.243555 -0.176362 0.600501
v -0.755778 -0.167956 0.587926
v -0.755778 0.151184 0.587926
v -0.738986 -0.184768 -0.0934449
v 0.0671668 -0.201579 0.419941
v -0.738986 0.167956 0.587926
v -0.744583 0.179164 0.582322
v -0.751693 0.176362 0.57952
v -0.738986 0.184768 0.571114
v -0.74534 0.181611 -0.0934449
v 0.0839585 -0.201579 0.436753
v 0.151125 -0.201579 0.453497
v 0.235084 -0.201579 0.470309
v -0.235084 -0.184768 0.587926
v -0.235084 -0.179164 0.599134
v -0.235084 -0.167956 0.604738
v -0.251875 -0.151184 0.604738
v -0.285459 -0.0335834 0.604738
v -0.235084 0.167956 0.604738
v 0.738986 -0.184768 -0.0934449
v 0.134334 -0.201579 0.369504
v -0.240681 0.179164 0.599134
v -0.738986 0.184768 -0.0934449
v -0.235084 0.184768 0.587926
v 0.38636 0.201579 0.369504
v -0.134334 0.201579 0.252024
v -0.352626 0.201579 0.184844
v -0.369417 0.201579 0.168032
v 0.302251 -0.201579 0.470309
v 0.722194 -0.184768 0.587926
v 0.722194 -0.179164 0.599134
v 0.722194 -0.167956 0.604738
v 0.722194 0.167956 0.604738
v 0.743978 -0.182321 -0.0934449
v 0.738986 -0.184768 0.117595
v 0.453527 -0.201579 0.419941
v 0.403152 -0.201579 0.403129
v 0.352626 -0.201579 0.386317
v 0.218292 -0.201579 0.369504
v 0.716597 0.179164 0.599134
v -0.369417 0.201579 -0.0503894
v -0.352626 0.201579 -0.0839454
v -0.335834 0.201579 -0.0934449
v 0.722194 0.184768 0.587926
v 0.537486 0.201579 0.369504
v 0.403152 -0.201579 0.436753
v 0.730666 -0.180545 0.596332
v 0.733389 -0.17356 0.599134
v 0.738986 -0.134373 0.604738
v 0.738986 0.0839782 0.604738
v 0.733389 0.162353 0.599134
v 0.730666 0.176362 0.596332
v 0.747458 -0.180545 0.126002
v 0.755173 -0.176717 -0.0934449
v 0.571069 0.201579 -0.0934449
v 0.733389 0.179164 0.582322
v 0.738986 0.184768 0.0840395
v 0.571069 0.201579 0.235212
v 0.554277 0.201579 0.319136
v 0.744583 -0.17356 0.554301
v 0.751693 -0.153276 0.571114
v 0.75018 -0.139977 0.599134
v 0.75018 0.0783744 0.599134
v 0.738986 0.167956 0.587926
v 0.761375 -0.17356 0.0168592
v 0.75018 -0.179164 0.117595
v 0.761375 -0.17356 -0.0934449
v 0.738986 0.184768 -0.0934449
v 0.75018 0.179164 0.0784354
v 0.746399 0.181098 -0.0934449
v 0.766972 -0.162353 0.100852
v 0.772721 -0.151184 0.100852
v 0.755778 -0.151184 0.554301
v 0.755778 -0.134373 0.587926
v 0.755778 0.0839782 0.587926
v 0.755778 0.151184 0.252024
v 0.755778 0.167956 0.0840395
v 0.763947 -0.168667 -0.0934449
v 0.752147 0.175297 -0.0934449
v 0.75018 0.179164 -0.0934449
v 0.772721 -0.151184 -0.0934449
v 0.772721 -0.134373 0.15122
v 0.772721 -0.117562 0.168032
v 0.772721 -0.10079 0.168032
v 0.772721 -0.0671668 0.15122
v 0.772721 -0.0335834 0.117595
v 0.772721 -0.016772 0.0840395
v 0.772721 0 0.033603
v 0.772721 0.016772 -0.0671332
v 0.755778 0.167956 -0.0934449
v 0.772721 0.016772 -0.0934449
f 1 2 5
f 1 5 11
f 1 11 17
f 1 17 8
f 1 8 3
f 1 3 9
f 1 9 18
f 1 18 22
f 1 22 34
f 1 34 47
f 1 47 67
f 1 67 79
f 1 79 92
f 1 92 94
f 1 94 104
f 1 104 103
f 1 103 114
f 1 114 115
f 1 115 105
f 1 105 102
f 1 102 91
f 1 91 78
f 1 78 58
f 1 58 44
f 1 44 28
f 1 28 15
f 1 15 6
f 1 6 4
f 1 4 2
f 2 4 6
f 2 6 7
f 2 7 12
f 2 12 5
f 3 8 9
f 5 10 11
f 5 12 13
f 5 13 14
f 5 14 10
f 6 15 7
f 7 15 16
f 7 16 23
f 7 23 12
f 8 17 9
f 9 17 11
f 9 11 18
f 10 14 19
f 10 19 20
f 10 20 21
f 10 21 11
f 11 21 22
f 11 22 18
f 12 23 13
f 13 19 14
f 13 23 24
f 13 24 39
f 13 39 25
f 13 25 40
f 13 40 26
f 13 26 27
f 13 27 19
f 15 28 16
f 16 28 29
f 16 29 23
f 19 27 20
f 20 27 30
f 20 30 31
f 20 31 32
f 20 32 21
f 21 32 33
f 21 33 34
f 21 34 22
f 23 29 35
f 23 35 36
f 23 36 37
f 23 37 38
f 23 38 39
f 23 39 24
f 25 39 40
f 26 40 41
f 26 41 42
f 26 42 27
f 27 42 43
f 27 43 30
f 28 44 63
f 28 63 45
f 28 45 29
f 29 45 63
f 29 63 62
f 29 62 61
f 29 61 60
f 29 60 70
f 29 70 53
f 29 53 37
f 29 37 36
f 29 36 35
f 30 43 46
f 30 46 31
f 31 33 32
f 31 46 48
f 31 48 33
f 33 47 34
f 33 48 49
f 33 49 50
f 33 50 51
f 33 51 52
f 33 52 65
f 33 65 47
f 37 53 54
f 37 54 38
f 38 54 55
f 38 55 39
f 39 55 56
f 39 56 40
f 40 56 73
f 40 73 74
f 40 74 57
f 40 57 43
f 40 43 42
f 40 42 41
f 43 57 64
f 43 64 46
f 44 58 59
f 44 59 60
f 44 60 61
f 44 61 62
f 44 62 63
f 46 64 68
f 46 68 48
f 47 65 66
f 47 66 67
f 48 68 69
f 48 69 49
f 49 69 83
f 49 83 82
f 49 82 79
f 49 79 67
f 49 67 66
f 49 66 65
f 49 65 52
f 49 52 51
f 49 51 50
f 53 70 54
f 54 70 60
f 54 60 59
f 54 59 77
f 54 77 71
f 54 71 55
f 55 71 56
f 56 71 72
f 56 72 86
f 56 86 73
f 57 74 87
f 57 87 75
f 57 75 76
f 57 76 64
f 58 77 59
f 58 78 77
f 64 76 68
f 68 76 80
f 68 80 93
f 68 93 81
f 68 81 82
f 68 82 83
f 68 83 69
f 71 77 84
f 71 84 85
f 71 85 72
f 72 85 86
f 73 86 87
f 73 87 74
f 75 87 99
f 75 99 88
f 75 88 76
f 76 88 80
f 77 78 89
f 77 89 90
f 77 90 84
f 78 91 89
f 79 82 81
f 79 81 92
f 80 88 101
f 80 101 93
f 81 93 94
f 81 94 92
f 84 90 89
f 84 89 95
f 84 95 96
f 84 96 97
f 84 97 85
f 85 97 98
f 85 98 86
f 86 98 99
f 86 99 87
f 88 99 100
f 88 100 101
f 89 91 102
f 89 102 96
f 89 96 95
f 93 103 104
f 93 104 94
f 93 101 103
f 96 105 115
f 96 115 113
f 96 113 112
f 96 112 111
f 96 111 110
f 96 110 109
f 96 109 108
f 96 108 107
f 96 107 106
f 96 106 97
f 96 102 105
f 97 106 98
f 98 106 107
f 98 107 108
f 98 108 99
f 99 108 109
f 99 109 110
f 99 110 111
f 99 111 112
f 99 112 100
f 100 112 113
f 100 113 101
f 101 113 115
f 101 115 114
f 101 114 103
o convex_1
v -0.738986 -0.184768 -0.604688
v -0.733389 -0.195975 -0.599133
v -0.747458 -0.193174 -0.59633
v -0.75018 -0.179164 -0.599133
v -0.738986 0.167956 -0.604688
v -0.621444 -0.184768 -0.604688
v -0.738986 -0.201579 -0.587922
v -0.615847 -0.195975 -0.599133
v -0.75018 -0.195975 -0.582316
v -0.755778 -0.184768 -0.587922
v -0.75018 0.17356 -0.599133
v -0.738986 0.179164 -0.599133
v -0.495431 0.176362 -0.600534
v -0.503902 0.167956 -0.604688
v 0.184709 -0.167956 -0.604688
v -0.705403 -0.201579 -0.537523
v -0.738986 -0.184768 -0.093495
v -0.621444 -0.201579 -0.587922
v 0.190306 -0.179164 -0.599133
v 0.744583 -0.195975 -0.582316
v -0.753811 -0.177428 -0.093495
v -0.761375 -0.17356 -0.093495
v -0.765308 -0.165865 -0.093495
v -0.772721 -0.151184 -0.093495
v -0.772721 -0.151184 -0.28558
v -0.772721 -0.134373 -0.41991
v -0.772721 -0.117562 -0.470308
v -0.772721 -0.10079 -0.487125
v -0.772721 -0.0839782 -0.503941
v -0.772721 -0.0671668 -0.520707
v -0.755778 0.167956 -0.587922
v -0.747458 0.180545 -0.59633
v -0.738986 0.184768 -0.587922
v -0.503902 0.179164 -0.599133
v 0.747458 0.176362 -0.583718
v 0.738986 0.167956 -0.587922
v 0.0167917 0.151184 -0.604688
v 0.335834 -0.151184 -0.604688
v 0.738986 -0.184768 -0.587922
v -0.688611 -0.201579 -0.520707
v -0.671819 -0.201579 -0.503941
v -0.2015 -0.201579 -0.369561
v 0.738986 -0.184768 -0.093495
v 0.738986 -0.201579 -0.571106
v 0.757896 -0.167956 -0.583718
v 0.751693 -0.193174 -0.579514
v -0.772721 0.074507 -0.093495
v -0.772721 -0.0503948 -0.520707
v -0.772721 -0.016772 -0.503941
v -0.772721 0.016772 -0.470308
v -0.772721 0.0335834 -0.386327
v -0.772721 0.0671668 -0.168017
v -0.755778 0.167956 -0.093495
v -0.753357 0.17285 -0.093495
v -0.75018 0.179164 -0.587922
v -0.75018 0.179164 -0.093495
v -0.74534 0.181611 -0.093495
v -0.738986 0.184768 -0.093495
v -0.335834 0.201579 -0.100802
v -0.302251 0.201579 -0.134434
v -0.235084 0.201579 -0.201599
v -0.0839585 0.201579 -0.28558
v -0.0167917 0.201579 -0.319213
v 0.0839585 0.201579 -0.352745
v 0.167917 0.201579 -0.369561
v -0.503902 0.184768 -0.587922
v 0.738986 0.179164 -0.582316
v 0.738986 0.184768 -0.571106
v 0.75018 0.179164 -0.576711
v 0.755778 0.167956 -0.571106
v 0.75018 0.167956 -0.582316
v 0.766972 0.0503948 -0.582316
v 0.764249 0.0587611 -0.583718
v 0.755778 0.0503948 -0.587922
v 0.352626 -0.0335834 -0.604688
v 0.335834 0.016772 -0.604688
v 0.319042 0.0503948 -0.604688
v 0.285459 0.117562 -0.604688
v 0.251875 0.134373 -0.604688
v 0.352626 -0.0503948 -0.604688
v 0.755778 -0.151184 -0.587922
v -0.134334 -0.201579 -0.369561
v 0.738986 -0.201579 -0.487125
v 0.747458 -0.197357 -0.46195
v 0.743978 -0.182321 -0.093495
v 0.75018 -0.195975 -0.571106
v 0.766972 -0.151184 -0.582316
v 0.768485 -0.159551 -0.579514
v 0.75018 -0.195975 -0.470308
v 0.772721 -0.151184 -0.571106
v 0.772721 -0.151184 -0.093495
v 0.763947 -0.168667 -0.093495
v -0.335834 0.201579 -0.093495
v 0.369417 0.201579 -0.369561
v 0.403152 0.201579 -0.352745
v 0.436735 0.201579 -0.335979
v 0.520694 0.201579 -0.28558
v 0.571069 0.201579 -0.100802
v 0.738986 0.184768 -0.093495
v 0.746399 0.181098 -0.093495
v 0.75018 0.179164 -0.093495
v 0.752147 0.175297 -0.093495
v 0.755778 0.167956 -0.093495
v 0.772721 0.0671668 -0.554339
v 0.772721 0.0503948 -0.571106
v 0.761375 -0.17356 -0.093495
v 0.755173 -0.176717 -0.093495
v 0.772721 0.016772 -0.093495
v 0.571069 0.201579 -0.093495
v 0.772721 0.0671668 -0.470308
f 116 117 118
f 116 118 119
f 116 119 126
f 116 126 120
f 116 120 129
f 116 129 152
f 116 152 194
f 116 194 193
f 116 193 192
f 116 192 191
f 116 191 190
f 116 190 195
f 116 195 153
f 116 153 130
f 116 130 121
f 116 121 123
f 116 123 117
f 117 122 118
f 117 123 133
f 117 133 122
f 118 122 124
f 118 124 125
f 118 125 119
f 119 125 146
f 119 146 126
f 120 126 127
f 120 127 128
f 120 128 129
f 121 130 134
f 121 134 123
f 122 131 132
f 122 132 124
f 122 133 159
f 122 159 198
f 122 198 197
f 122 197 157
f 122 157 156
f 122 156 155
f 122 155 131
f 123 134 135
f 123 135 159
f 123 159 133
f 124 132 136
f 124 136 137
f 124 137 138
f 124 138 139
f 124 139 140
f 124 140 125
f 125 140 141
f 125 141 142
f 125 142 143
f 125 143 144
f 125 144 145
f 125 145 163
f 125 163 146
f 126 147 127
f 126 146 147
f 127 147 148
f 127 148 181
f 127 181 149
f 127 149 128
f 128 149 182
f 128 182 150
f 128 150 151
f 128 151 129
f 129 151 152
f 130 153 154
f 130 154 134
f 131 155 132
f 132 155 156
f 132 156 157
f 132 157 197
f 132 197 158
f 132 158 200
f 132 200 222
f 132 222 221
f 132 221 207
f 132 207 206
f 132 206 223
f 132 223 218
f 132 218 217
f 132 217 216
f 132 216 215
f 132 215 214
f 132 214 224
f 132 224 208
f 132 208 173
f 132 173 172
f 132 172 171
f 132 171 169
f 132 169 168
f 132 168 162
f 132 162 139
f 132 139 138
f 132 138 137
f 132 137 136
f 134 154 135
f 135 154 160
f 135 160 161
f 135 161 159
f 139 162 167
f 139 167 166
f 139 166 165
f 139 165 164
f 139 164 163
f 139 163 145
f 139 145 144
f 139 144 143
f 139 143 142
f 139 142 141
f 139 141 140
f 146 163 164
f 146 164 165
f 146 165 166
f 146 166 167
f 146 167 162
f 146 162 168
f 146 168 169
f 146 169 170
f 146 170 147
f 147 171 172
f 147 172 148
f 147 170 171
f 148 172 173
f 148 173 208
f 148 208 174
f 148 174 175
f 148 175 176
f 148 176 177
f 148 177 178
f 148 178 179
f 148 179 180
f 148 180 209
f 148 209 181
f 149 181 183
f 149 183 182
f 150 182 183
f 150 183 184
f 150 184 185
f 150 185 186
f 150 186 187
f 150 187 188
f 150 188 189
f 150 189 151
f 151 189 190
f 151 190 191
f 151 191 192
f 151 192 193
f 151 193 194
f 151 194 152
f 153 195 196
f 153 196 154
f 154 196 160
f 158 197 198
f 158 198 199
f 158 199 200
f 159 161 201
f 159 201 199
f 159 199 198
f 160 202 203
f 160 203 161
f 160 196 202
f 161 204 201
f 161 203 205
f 161 205 206
f 161 206 207
f 161 207 204
f 169 171 170
f 174 208 224
f 174 224 213
f 174 213 212
f 174 212 211
f 174 211 210
f 174 210 209
f 174 209 180
f 174 180 179
f 174 179 178
f 174 178 177
f 174 177 176
f 174 176 175
f 181 209 183
f 183 209 210
f 183 210 211
f 183 211 212
f 183 212 213
f 183 213 224
f 183 224 214
f 183 214 215
f 183 215 184
f 184 215 216
f 184 216 217
f 184 217 185
f 185 217 218
f 185 218 225
f 185 225 219
f 185 219 220
f 185 220 186
f 186 220 187
f 187 220 203
f 187 203 202
f 187 202 188
f 188 202 196
f 188 196 189
f 189 196 195
f 189 195 190
f 199 201 204
f 199 204 221
f 199 221 222
f 199 222 200
f 203 220 205
f 204 207 221
f 205 220 219
f 205 219 225
f 205 225 223
f 205 223 206
f 218 223 225
