# https://github.com/mikedh/trimesh
v 0.53704200 0.17321600 0.77942800
v 0.53126000 0.18478100 0.77365600
v 0.52831600 0.18187100 0.78816500
v 0.53126000 0.16743300 0.79097300
v 0.53704200 -0.17321600 0.77942800
v 0.53704200 0.17321600 -0.77942800
v 0.51969500 0.19056300 0.77942800
v 0.53126000 0.18478100 -0.78520100
v 0.51391200 0.18478100 0.79097300
v 0.51969500 0.17321600 0.79690100
v 0.53126000 -0.17899800 0.79097300
v 0.53126000 -0.18478100 0.77942800
v 0.53704200 -0.17321600 -0.77942800
v 0.53126000 0.17321600 -0.79097300
v 0.52831600 0.18187100 -0.79253300
v -0.51969500 0.19056300 0.77942800
v 0.51969500 0.19056300 -0.77942800
v -0.52547700 0.18478100 0.79097300
v 0.51969500 -0.17321600 0.79690100
v -0.51969500 0.17321600 0.79690100
v 0.52831600 -0.18619800 0.78816500
v 0.51969500 -0.19056300 0.77942800
v 0.53126000 -0.18478100 -0.77942800
v 0.53262600 -0.18187100 -0.78816500
v 0.53126000 -0.17321600 -0.79097300
v -0.51969500 0.18478100 -0.79097300
v 0.51969500 0.18478100 -0.79097300
v 0.51969500 -0.17321600 -0.79690100
v 0.51969500 0.17321600 -0.79690100
v -0.51969500 0.17321600 -0.79690100
v -0.53126000 0.18478100 0.77942800
v -0.51969500 0.19056300 -0.77942800
v -0.52831600 0.18619800 -0.78816500
v -0.53262600 0.18187100 0.78816500
v -0.51969500 -0.17321600 0.79690100
v -0.52831600 -0.18187100 0.79253300
v 0.51969500 -0.18478100 0.79097300
v -0.53126000 0.17321600 0.79097300
v -0.51969500 -0.18478100 0.79097300
v -0.51969500 -0.19056300 0.77942800
v 0.51969500 -0.19056300 -0.77942800
v 0.52547700 -0.18478100 -0.79097300
v -0.51969500 -0.17321600 -0.79690100
v -0.53126000 0.17899800 -0.79097300
v -0.53704200 0.17321600 0.77942800
v -0.53126000 0.18478100 -0.77942800
v -0.53126000 -0.17321600 0.79097300
v -0.53704200 -0.17321600 0.77942800
v -0.53126000 -0.18478100 0.78520100
v -0.51969500 -0.19056300 -0.77942800
v -0.51391200 -0.18478100 -0.79097300
v -0.52831600 -0.18187100 -0.78816500
v -0.53126000 -0.16743300 -0.79097300
v -0.53704200 0.17321600 -0.77942800
v -0.53704200 -0.17321600 -0.77942800
v -0.53126000 -0.18478100 -0.77365600
f 1 2 3
f 31 46 54
f 31 45 34
f 30 53 44
f 30 43 53
f 30 44 33
f 28 30 29
f 28 43 30
f 28 51 43
f 28 42 51
f 26 30 33
f 26 33 27
f 24 28 25
f 24 42 28
f 23 42 24
f 23 41 42
f 22 50 41
f 22 40 50
f 21 37 39
f 21 40 22
f 21 39 40
f 20 36 35
f 20 38 36
f 20 34 38
f 31 54 45
f 19 37 21
f 32 33 46
f 34 45 38
f 50 52 51
f 50 56 52
f 48 56 49
f 48 55 56
f 45 55 48
f 45 54 55
f 44 54 46
f 44 55 54
f 44 53 55
f 43 52 53
f 43 51 52
f 41 51 42
f 41 50 51
f 40 56 50
f 40 49 56
f 38 48 47
f 38 45 48
f 36 39 37
f 36 40 39
f 36 49 40
f 36 48 49
f 36 47 48
f 36 38 47
f 33 44 46
f 19 36 37
f 19 35 36
f 18 34 20
f 7 16 18
f 6 15 8
f 6 14 15
f 6 25 14
f 6 13 25
f 5 23 13
f 5 12 23
f 5 11 12
f 4 19 11
f 4 10 19
f 3 10 4
f 3 9 10
f 3 7 9
f 2 17 7
f 2 8 17
f 2 7 3
f 1 8 2
f 1 6 8
f 1 13 6
f 1 5 13
f 1 11 5
f 1 4 11
f 1 3 4
f 7 18 9
f 7 17 32
f 7 32 16
f 8 15 17
f 18 31 34
f 17 33 32
f 17 27 33
f 16 46 31
f 16 32 46
f 16 31 18
f 15 30 26
f 15 29 30
f 15 28 29
f 15 25 28
f 15 27 17
f 52 56 55
f 15 26 27
f 13 24 25
f 13 23 24
f 12 41 23
f 12 22 41
f 12 21 22
f 11 19 21
f 11 21 12
f 10 35 19
f 10 20 35
f 9 20 10
f 9 18 20
f 14 25 15
f 52 55 53

