# https://github.com/mikedh/trimesh
v 0.28536800 0.33572800 0.10076000
v 0.28339700 0.32877400 0.11558900
v 0.28536800 0.32877400 0.10076000
v 0.28536800 0.33572800 0.05040690
v 0.27416500 0.35811400 0.10636200
v 0.27693900 0.34412700 0.12593600
v 0.26015300 0.34412700 0.19309600
v 0.26661200 0.32877400 0.18274800
v 0.28536800 0.32877400 0.04342080
v 0.27974800 0.34692600 0.04480480
v 0.27416500 0.35811400 0.05600900
v 0.28113500 0.33572800 0.03149160
v 0.25738000 0.37490200 0.13990900
v 0.26015300 0.36091400 0.15948300
v 0.18462000 0.41965500 0.31891200
v 0.16593800 0.42912400 0.36735400
v 0.15105000 0.42912400 0.41961800
v 0.13426500 0.42912400 0.46997100
v 0.25654100 0.32877400 0.20621100
v 0.28288600 0.32877400 0.03234840
v 0.27693900 0.34412700 0.02938260
v 0.25738000 0.37490200 0.05600900
v 0.28113500 0.32877400 0.02457140
v 0.24059500 0.39167900 0.12310200
v 0.19024000 0.42524400 0.25735500
v 0.17991300 0.42912400 0.31416700
v 0.12309900 0.42912400 0.49237900
v 0.13426500 0.35251500 0.46997100
v 0.12868200 0.34692600 0.48117500
v 0.12587200 0.33153400 0.47840700
v 0.13006900 0.32877400 0.46516000
v 0.27624500 0.32877400 0.01369670
v 0.26015300 0.34412700 -0.00416409
v 0.24336800 0.37770100 0.02938260
v 0.24617800 0.38048100 0.04480480
v 0.22939300 0.39726800 0.07835150
v 0.24059500 0.39167900 0.08955570
v 0.18250400 0.42912400 0.24964400
v 0.18250400 0.42912400 0.26124300
v 0.11018200 0.42912400 0.51821500
v 0.12309900 0.35811400 0.49237900
v 0.10908700 0.36510800 0.51195400
v 0.10908700 0.33153400 0.49514700
v 0.12404800 0.32877400 0.47656200
v 0.25873000 0.32877400 -0.02024540
v 0.24336800 0.36091400 -0.00416409
v 0.20837500 0.32877400 -0.08740460
v 0.19582300 0.34692600 -0.07270740
v 0.23497600 0.38188600 0.03149160
v 0.21819100 0.39867300 0.06510420
v 0.22658300 0.39447900 0.06299520
v 0.21819100 0.40286700 0.08395360
v 0.16568200 0.42912400 0.18255100
v 0.10627800 0.42912400 0.52592600
v 0.10627800 0.40846700 0.52592600
v 0.11189700 0.38048100 0.51472200
v 0.09109800 0.42912400 0.54424800
v 0.09233870 0.38188600 0.52876000
v 0.10726300 0.32877400 0.49330200
v 0.10069500 0.33363600 0.49936600
v 0.09686330 0.32877400 0.49738800
v 0.20140600 0.32877400 -0.09201810
v 0.18462000 0.34132700 -0.08951370
v 0.19301300 0.34412700 -0.07969350
v 0.18462000 0.34692600 -0.07830950
v 0.18462000 0.35251500 -0.06710530
v 0.20140600 0.39867300 0.04829790
v 0.20140600 0.40286700 0.06714730
v 0.15729000 0.42912400 0.16422800
v 0.16363900 0.42912400 0.17681700
v 0.08252300 0.42912400 0.54938900
v 0.07836320 0.41405600 0.54833400
v 0.08394610 0.38397800 0.53291200
v 0.06716100 0.36371400 0.52592600
v 0.09179130 0.32877400 0.49864100
v 0.18462000 0.32877400 -0.09781790
v 0.00002044 0.32877400 -0.11462400
v 0.16783500 0.36371400 -0.04476280
v 0.16783500 0.36930300 -0.03355860
v 0.18462000 0.40286700 0.05040690
v 0.14481000 0.42912400 0.15796700
v 0.06716100 0.42912400 0.55604600
v 0.06716100 0.41965500 0.55393700
v 0.06716100 0.39726800 0.54273200
v 0.06716100 0.38608000 0.53713000
v 0.03359070 0.39726800 0.54273200
v 0.07701310 0.32877400 0.50009100
v 0.08394610 0.32877400 0.50009100
v -0.01205760 0.32877400 -0.11277900
v -0.00837213 0.33153400 -0.10908800
v 0.00002044 0.36371400 -0.04476280
v 0.14265800 0.38188600 -0.00838212
v 0.15105000 0.38608000 0.00005396
v 0.16783500 0.40286700 0.05040690
v 0.05037580 0.42912400 0.13648100
v 0.13426500 0.42912400 0.15328800
v 0.05037580 0.42912400 0.55868200
v 0.03359070 0.42912400 0.55868200
v 0.02519810 0.41125600 0.54971800
v 0.00841300 0.41125600 0.54134800
v 0.04198330 0.34412700 0.49936600
v 0.07413040 0.32877400 0.49897000
v -0.01676470 0.34202500 -0.08391160
v -0.00837213 0.36510800 -0.04192880
v -0.02884270 0.32877400 -0.09597250
v -0.04194240 0.36510800 -0.02512250
v 0.00002044 0.36930300 -0.03355860
v -0.01676470 0.38608000 0.01679440
v 0.03782350 0.42912400 0.13852500
v 0.01680560 0.42912400 0.55769300
v -0.00731394 0.42912400 0.54293000
v -0.00837213 0.42804400 0.54134800
v -0.02515730 0.41125600 0.50773600
v 0.00841300 0.37770100 0.50773600
v 0.03917360 0.34132700 0.49237900
v 0.05588570 0.32877400 0.48882000
v 0.06022800 0.32877400 0.49205000
v -0.02515730 0.38188600 0.00842416
v -0.04916730 0.32877400 -0.06242590
v -0.04613870 0.35461800 -0.03355860
v -0.05872750 0.35671000 -0.00838212
v -0.05872750 0.36510800 0.00842416
v -0.03354980 0.37559900 0.00005396
v 0.02395750 0.42912400 0.15697900
v -0.02731010 0.42912400 0.52296000
v -0.04194240 0.42804400 0.50773600
v 0.02446830 0.32877400 0.45705300
v 0.04486590 0.32877400 0.47781400
v 0.02662120 0.32877400 0.45955800
v -0.04194240 0.38188600 0.04197080
v -0.07175430 0.32877400 -0.02136580
v -0.07660730 0.32877400 -0.01055710
v -0.07273950 0.34132700 0.00005396
v -0.07273950 0.35811400 0.03360060
v -0.05595430 0.37490200 0.05040690
v -0.05033500 0.37559900 0.03360060
v -0.01256840 0.42912400 0.24232800
v -0.03978950 0.42912400 0.51043800
v -0.04248970 0.42912400 0.50747200
v -0.04814560 0.42912400 0.48967700
v -0.04475210 0.42524400 0.49237900
v 0.00421671 0.32877400 0.41474100
v 0.00768321 0.32877400 0.42344100
v -0.02935350 0.42912400 0.29268100
v -0.08171590 0.32877400 0.00875370
v -0.07970890 0.33783000 0.01679440
v -0.07832230 0.34692600 0.03360060
v -0.04862000 0.42912400 0.46265500
v -0.04668600 0.42912400 0.44004900
v -0.03354980 0.42912400 0.31159600
v -0.04862000 0.42912400 0.47168500
v -0.08740820 0.32877400 0.09034660
v -0.08653250 0.32877400 0.11058000
v -0.07897920 0.32877400 0.15519900
v -0.07755610 0.32877400 0.16093300
v -0.08390520 0.32877400 0.02668040
v -0.08390520 0.33572800 0.03360060
v -0.08740820 0.32877400 0.08395360
f 80 96 81
f 80 95 96
f 80 94 95
f 80 93 94
f 74 86 87
f 79 93 80
f 78 91 92
f 78 92 79
f 77 91 78
f 77 90 91
f 74 87 88
f 82 97 83
f 74 88 75
f 77 89 90
f 79 92 93
f 83 97 84
f 89 105 106
f 84 97 98
f 93 95 94
f 93 108 95
f 93 107 108
f 74 85 86
f 92 107 93
f 91 107 92
f 91 104 107
f 90 104 91
f 89 106 103
f 89 104 90
f 89 103 104
f 86 102 87
f 86 101 102
f 86 100 101
f 86 99 100
f 86 98 99
f 84 98 86
f 84 86 85
f 73 85 74
f 54 57 55
f 73 83 84
f 55 57 56
f 52 70 53
f 52 69 70
f 52 68 69
f 50 68 52
f 50 67 68
f 49 67 50
f 48 67 49
f 48 66 67
f 48 65 66
f 48 63 65
f 48 64 63
f 95 108 109
f 47 64 48
f 47 63 64
f 57 71 72
f 57 72 58
f 58 72 73
f 58 73 60
f 72 83 73
f 72 82 83
f 71 82 72
f 69 80 81
f 68 80 69
f 67 80 68
f 66 80 67
f 73 84 85
f 66 79 80
f 65 78 79
f 63 77 78
f 63 76 77
f 62 76 63
f 61 74 75
f 60 74 61
f 60 73 74
f 65 79 66
f 98 110 99
f 130 136 144
f 100 110 111
f 134 147 148
f 134 146 147
f 133 146 134
f 132 146 133
f 132 145 146
f 130 144 137
f 126 143 127
f 126 142 143
f 126 141 142
f 126 140 141
f 126 139 140
f 126 138 139
f 125 138 126
f 124 130 137
f 122 135 136
f 134 148 149
f 134 149 150
f 134 150 135
f 135 150 144
f 47 62 63
f 156 158 157
f 148 152 151
f 148 158 152
f 148 157 158
f 147 157 148
f 146 157 147
f 122 134 135
f 145 157 146
f 141 155 142
f 140 155 141
f 140 154 155
f 140 153 154
f 140 152 153
f 140 151 152
f 135 144 136
f 145 156 157
f 121 134 122
f 121 133 134
f 121 132 133
f 106 121 122
f 105 120 106
f 105 119 120
f 104 108 107
f 104 118 108
f 104 106 118
f 103 106 104
f 106 122 136
f 101 117 102
f 101 115 116
f 101 114 115
f 100 114 101
f 100 113 114
f 100 126 113
f 100 112 126
f 100 111 112
f 101 116 117
f 99 110 100
f 106 136 123
f 106 120 121
f 121 131 132
f 119 121 120
f 119 131 121
f 118 130 124
f 118 136 130
f 118 123 136
f 115 129 128
f 106 123 118
f 115 127 129
f 114 127 115
f 113 127 114
f 113 126 127
f 112 125 126
f 111 125 112
f 109 118 124
f 108 118 109
f 115 128 116
f 46 47 48
f 63 78 65
f 43 60 61
f 6 14 7
f 5 14 6
f 5 13 14
f 5 22 13
f 5 11 22
f 4 12 10
f 4 9 12
f 4 10 11
f 2 9 3
f 2 20 9
f 2 23 20
f 2 32 23
f 2 45 32
f 2 47 45
f 2 62 47
f 7 15 16
f 7 16 17
f 7 17 18
f 7 18 8
f 15 26 16
f 13 15 14
f 13 26 15
f 13 25 26
f 13 24 25
f 13 37 24
f 13 22 37
f 2 76 62
f 12 23 21
f 11 34 22
f 11 21 34
f 10 21 11
f 10 12 21
f 9 20 12
f 8 18 19
f 7 14 15
f 12 20 23
f 2 77 76
f 2 89 77
f 2 105 89
f 2 61 75
f 2 59 61
f 2 44 59
f 2 31 44
f 2 19 31
f 2 8 19
f 1 8 2
f 2 75 88
f 1 7 8
f 1 5 6
f 1 11 5
f 1 4 11
f 1 9 4
f 1 3 9
f 1 2 3
f 43 61 59
f 1 6 7
f 16 26 39
f 2 88 87
f 2 102 117
f 2 131 119
f 2 132 131
f 2 145 132
f 2 156 145
f 2 158 156
f 2 152 158
f 2 153 152
f 2 87 102
f 2 154 153
f 2 142 155
f 2 143 142
f 2 127 143
f 2 129 127
f 2 128 129
f 2 116 128
f 2 117 116
f 2 155 154
f 16 39 38
f 2 119 105
f 16 53 70
f 33 45 47
f 32 45 33
f 30 44 31
f 30 59 44
f 30 43 59
f 30 42 43
f 30 41 42
f 29 41 30
f 27 40 41
f 25 37 38
f 25 39 26
f 25 38 39
f 24 37 25
f 22 34 35
f 22 36 37
f 33 47 46
f 34 48 49
f 34 49 50
f 34 50 51
f 43 58 60
f 16 38 53
f 42 58 43
f 42 57 58
f 42 56 57
f 41 56 42
f 40 56 41
f 22 35 36
f 40 55 56
f 38 52 53
f 36 38 37
f 36 52 38
f 36 50 52
f 36 51 50
f 34 36 35
f 34 51 36
f 40 54 55
f 21 46 34
f 34 46 48
f 21 32 33
f 16 125 111
f 16 138 125
f 16 139 138
f 16 140 139
f 16 151 140
f 16 149 148
f 16 150 149
f 16 144 150
f 16 137 144
f 16 124 137
f 16 109 124
f 16 95 109
f 16 96 95
f 16 81 96
f 21 33 46
f 16 69 81
f 16 70 69
f 16 111 110
f 16 110 98
f 16 148 151
f 16 98 97
f 21 23 32
f 19 29 30
f 19 28 29
f 18 28 19
f 18 29 28
f 18 41 29
f 18 27 41
f 16 18 17
f 19 30 31
f 16 40 27
f 16 54 40
f 16 57 54
f 16 71 57
f 16 82 71
f 16 97 82
f 16 27 18

