# https://github.com/mikedh/trimesh
v 0.35251300 -0.31892300 0.06715190
v 0.33572000 -0.06715560 0.10069800
v 0.35140900 -0.33353800 0.14997000
v 0.35251300 -0.33353800 0.06715190
v 0.35251300 -0.31892300 0.05037870
v 0.30213400 0.03356620 0.10069800
v 0.29376100 0.04195970 0.12585800
v 0.32730100 -0.05876210 0.12585800
v 0.32730100 -0.07554910 0.14267900
v 0.33291400 -0.08674040 0.13148100
v 0.33572000 -0.10072900 0.13424500
v 0.33572000 -0.06715560 0.03360550
v 0.31892700 -0.00000772 0.03360550
v 0.33526000 -0.33353800 0.23455000
v 0.35251300 -0.33353800 0.03579750
v 0.33572000 -0.10072900 0.00001151
v 0.29762600 0.04254870 0.09621910
v 0.30774700 0.02237490 0.03918070
v 0.30213400 0.03356620 0.01683230
v 0.29343900 0.04254870 0.12557200
v 0.29316300 0.04254870 0.12647800
v 0.29376100 0.02517270 0.14267900
v 0.31050800 -0.04197510 0.15945200
v 0.31050800 -0.07554910 0.17622500
v 0.30774700 -0.09513380 0.19023500
v 0.32730100 -0.31053000 0.24336600
v 0.33148700 -0.06715560 0.01468800
v 0.31474000 -0.00000772 0.01468800
v 0.32449400 -0.33011500 0.25737500
v 0.32619600 -0.33353800 0.25394400
v 0.35196100 -0.33353800 0.03331960
v 0.31892700 -0.05036860 -0.01676170
v 0.31474000 -0.03358160 -0.01885830
v 0.33148700 -0.08394250 -0.00208514
v 0.34828000 -0.33353800 0.01688000
v 0.33516800 -0.33353800 -0.01704760
v 0.30774700 -0.10072900 -0.05593090
v 0.30774700 -0.05036860 -0.03915770
v 0.29762600 0.04254870 0.01230550
v 0.29794800 0.03356620 -0.00208514
v 0.27683000 0.04254870 0.15930900
v 0.27696800 0.04195970 0.15945200
v 0.30774700 -0.06155990 0.17341400
v 0.24057600 0.04254870 0.20700800
v 0.27416100 -0.04477300 0.20700800
v 0.31050800 -0.27695600 0.26018700
v 0.32449400 -0.33353800 0.25737500
v 0.30774700 -0.31332800 0.27414800
v 0.29794800 -0.00000772 -0.03563150
v 0.33029100 -0.33353800 -0.02676840
v 0.32523000 -0.33353800 -0.03658450
v 0.31363600 -0.33353800 -0.05297650
v 0.30429700 -0.33353800 -0.06384100
v 0.29095400 -0.06715560 -0.07270410
v 0.29095400 -0.01679470 -0.05593090
v 0.29679700 0.04254870 0.00858871
v 0.29376100 0.04195970 -0.00418179
v 0.18039700 0.04254870 0.24446200
v 0.26017500 -0.26016900 0.29373300
v 0.27416100 -0.27975400 0.29092100
v 0.29095400 -0.26296700 0.27414800
v 0.30774700 -0.33353800 0.27414800
v 0.28828600 -0.33353800 0.28825300
v 0.29376100 0.00838577 -0.03772820
v 0.28534100 -0.33353800 -0.07732620
v 0.24057600 -0.08394250 -0.12307100
v 0.24057600 -0.06715560 -0.12307100
v 0.27416100 -0.05036860 -0.08952490
v 0.27696800 0.02517270 -0.05454900
v 0.27416100 -0.00000772 -0.07270410
v 0.29343900 0.04254870 -0.00375293
v 0.27696800 0.04195970 -0.03772820
v 0.17717700 0.04254870 0.24641500
v 0.16949300 0.04254870 0.25103800
v 0.15656500 0.04254870 0.25870900
v 0.15104400 0.04254870 0.26056800
v 0.14648900 0.04254870 0.26209300
v 0.25175600 -0.28534900 0.30211900
v 0.27696800 -0.32731700 0.29373300
v 0.27075700 -0.33353800 0.29683000
v 0.27512800 -0.33353800 -0.07951820
v 0.15104400 -0.15105400 -0.15104200
v 0.16995300 -0.15105400 -0.14684900
v 0.16783700 -0.13430300 -0.15104200
v 0.18463000 -0.10072900 -0.15104200
v 0.19581000 -0.10072900 -0.14546700
v 0.20699000 -0.10072900 -0.13984400
v 0.22939600 -0.08394250 -0.12869400
v 0.22939600 -0.06715560 -0.12869400
v 0.20699000 -0.03358160 -0.13984400
v 0.17864900 0.04254870 -0.14846900
v 0.19024300 0.04254870 -0.13984400
v 0.24057600 -0.00000772 -0.10629800
v 0.25736900 -0.00000772 -0.08952490
v 0.26045100 0.04254870 -0.06217320
v 0.26827200 0.04254870 -0.05049870
v 0.25736900 0.03356620 -0.07270410
v 0.20699000 0.04254870 -0.12307100
v 0.27664600 0.04254870 -0.03729930
v 0.14050800 0.04254870 0.26347400
v 0.21821600 -0.31892300 0.31894000
v 0.21821600 -0.33353800 0.31894000
v 0.26854800 -0.33353800 -0.07951820
v 0.08677100 -0.21540400 -0.13145800
v 0.11750400 -0.16784100 -0.15104200
v 0.10075700 -0.11751600 -0.16786300
v 0.11750400 -0.10072900 -0.16786300
v 0.13425100 -0.06715560 -0.16786300
v 0.14437300 0.04254870 -0.16557600
v 0.18463000 -0.03358160 -0.15104200
v 0.19581000 -0.03358160 -0.14546700
v 0.19300300 -0.02518820 -0.14684900
v 0.14957200 0.04254870 -0.16300300
v 0.25437800 0.04254870 -0.06970200
v 0.13425100 0.04254870 0.26466600
v 0.20142300 -0.30213600 0.31894000
v 0.06933400 -0.33353800 0.31894000
v 0.23496300 -0.33353800 -0.07441950
v 0.07835160 -0.30773200 -0.07270410
v 0.06155870 -0.25737100 -0.10629800
v 0.08115810 -0.23778600 -0.12026000
v 0.07554510 -0.22659500 -0.12588300
v 0.06717160 -0.16784100 -0.15104200
v 0.08396450 -0.11751600 -0.16786300
v 0.13425100 0.04254870 -0.16786300
v 0.10075700 0.04254870 0.26971700
v 0.13425100 -0.30213600 0.31894000
v 0.06689560 -0.33353800 0.31836900
v 0.08396450 -0.31892300 0.31894000
v 0.07729340 0.04254870 0.26971700
v 0.00220839 -0.33353800 -0.03396370
v 0.04476580 -0.27415800 -0.08952490
v 0.00000001 -0.33353800 -0.03353490
v -0.01665490 -0.33353800 -0.02938920
v 0.04200530 -0.24338200 -0.10911000
v 0.00841947 -0.19302100 -0.12588300
v 0.04200530 -0.17623400 -0.14265600
v 0.00841947 -0.22659500 -0.10911000
v 0.05318520 -0.16504300 -0.14827900
v 0.05037870 -0.08394250 -0.16786300
v 0.01959940 -0.13150600 -0.14827900
v 0.05935030 0.04254870 -0.16786300
v 0.05935030 0.04254870 0.26509500
v 0.03358580 -0.28534900 0.30211900
v 0.01651690 -0.33353800 0.30159500
v -0.02516630 -0.33353800 -0.02514830
v -0.00276046 -0.13710100 -0.13708100
v 0.00841947 -0.14269700 -0.14265600
v -0.00837344 -0.20980800 -0.10911000
v -0.02516630 -0.22659500 -0.09228870
v -0.05875220 -0.33353800 -0.00837508
v 0.05037870 0.03356620 -0.16786300
v 0.01679290 -0.11751600 -0.15104200
v 0.00561298 -0.11192100 -0.14546700
v -0.02797280 -0.07834690 -0.12869400
v 0.05037870 0.04254870 -0.16586200
v -0.04471970 -0.30213600 0.26295000
v -0.02235990 -0.28534900 0.27414800
v -0.00303652 -0.33353800 0.29168400
v 0.00680919 -0.33353800 0.29673500
v 0.03059530 0.04254870 0.24088800
v -0.04614600 -0.29374300 0.26018700
v -0.02235990 -0.13989900 -0.12307100
v -0.00556695 -0.12311200 -0.13984400
v -0.02516630 -0.17623400 -0.10911000
v -0.05594570 -0.17343600 -0.08952490
v -0.03915280 -0.20701000 -0.08952490
v -0.06275490 -0.33353800 -0.00437239
v -0.02797280 -0.06155990 -0.12869400
v 0.00561298 0.00558793 -0.14546700
v 0.02801890 0.02797060 -0.15666500
v 0.03919880 0.03916190 -0.16224000
v 0.04251140 0.04254870 -0.16281200
v -0.03915280 -0.08953820 -0.12307100
v -0.00455478 -0.33353800 0.29077900
v -0.05603770 -0.33353800 0.25666000
v -0.05447340 -0.33353800 0.25809000
v 0.01122590 0.04254870 0.22378100
v -0.01936930 0.04254870 0.19619100
v -0.05594570 -0.01679470 0.17341400
v -0.07273860 -0.03358160 0.15664100
v -0.05594570 -0.10632500 -0.10629800
v -0.07273860 -0.15664900 -0.07270410
v -0.07954780 -0.33353800 0.01244840
v -0.07273860 -0.20701000 -0.05593090
v -0.03915280 -0.07275120 -0.12307100
v -0.00556695 -0.00560337 -0.13984400
v -0.01117990 0.02237490 -0.12869400
v 0.03712840 0.04254870 -0.15966700
v 0.04205130 0.04254870 -0.16262200
v -0.06293890 -0.32731700 0.24336600
v -0.06188070 -0.33353800 0.24546200
v -0.07273860 -0.10072900 0.17341400
v -0.07973180 -0.09233600 0.15945200
v -0.03390790 0.04254870 0.18056200
v -0.05594570 0.04254870 0.15664100
v -0.07342870 -0.01679470 0.15106500
v -0.07973180 -0.02518820 0.14267900
v -0.08672500 -0.10352700 -0.05311950
v -0.05594570 -0.08953820 -0.10629800
v -0.08948550 -0.15664900 -0.03915770
v -0.09229200 -0.10912300 -0.04192150
v -0.09049770 -0.33353800 0.03069880
v -0.08948550 -0.20701000 -0.02233690
v -0.00837344 0.03776290 -0.12588300
v 0.01122590 0.04254870 -0.13984400
v -0.05594570 -0.03917730 -0.08952490
v -0.06151260 -0.02798600 -0.07832690
v -0.05875220 -0.01259790 -0.07551550
v -0.02516630 0.02097600 -0.10911000
v -0.07273860 -0.33353800 0.22378100
v -0.07973180 -0.31053000 0.20981900
v -0.09647870 -0.07554910 0.12585800
v -0.06413510 0.04254870 0.14024900
v -0.09022160 -0.01679470 0.11747100
v -0.09647870 -0.02518820 0.10908500
v -0.09790490 -0.09793170 -0.03077110
v -0.08810520 -0.08604090 -0.05035570
v -0.07273860 -0.05596430 -0.07270410
v -0.10071100 -0.20141400 0.00001151
v -0.10071100 -0.15105400 -0.01676170
v -0.09118780 -0.33353800 0.03360550
v -0.00644111 0.04254870 -0.12207100
v 0.00846547 0.04254870 -0.13746200
v -0.04195930 0.03776290 -0.07551550
v -0.07830550 -0.04477300 -0.06150610
v -0.07549910 -0.02938490 -0.05874230
v -0.05875220 0.02097600 -0.05874230
v -0.08391850 -0.33353800 0.20143300
v -0.10071100 -0.08394250 0.11747100
v -0.08391850 -0.31892300 0.20143300
v -0.06712560 0.04254870 0.13424500
v -0.07973180 0.04195970 0.09231170
v -0.10071100 -0.03358160 0.10069800
v -0.07007010 0.04254870 0.12647800
v -0.11750400 -0.13430300 0.03360550
v -0.10071100 -0.06715560 -0.01676170
v -0.09647870 -0.08184420 -0.03353490
v -0.09229200 -0.07974580 -0.04192150
v -0.09118780 -0.33353800 0.08392510
v -0.04002690 0.04254870 -0.07170340
v -0.06243280 0.04254870 -0.03162880
v -0.08391850 -0.05036860 -0.05035570
v -0.07830550 -0.01119900 -0.04473290
v -0.07549910 0.00418902 -0.04192150
v -0.11750400 -0.13430300 0.06715190
v -0.11750400 -0.11751600 0.06715190
v -0.08391850 0.03356620 0.08392510
v -0.07927170 0.04254870 0.09288350
v -0.07940970 0.04254870 0.09054860
v -0.07940970 0.04254870 0.03360550
v -0.08391850 0.03356620 0.03360550
v -0.10071100 -0.01679470 0.06715190
v -0.11750400 -0.11751600 0.05037870
v -0.10071100 -0.05036860 0.00001151
v -0.09647870 -0.04827020 -0.01676170
v -0.07973180 0.00209065 -0.03353490
v -0.08391850 -0.01679470 -0.03353490
v -0.07549910 0.02097600 -0.02514830
v -0.06887390 0.04254870 -0.01676170
v -0.07867360 0.04254870 0.02950750
v -0.07973180 0.03566460 0.01683230
v -0.08391850 0.01677920 0.00001151
v -0.10071100 -0.01679470 0.03360550
v -0.09647870 -0.03148330 0.00001151
v -0.07973180 0.01887760 -0.01676170
v -0.09647870 -0.01469630 0.01683230
f 155 186 169
f 152 169 170
f 152 170 171
f 152 171 172
f 152 172 173
f 154 164 174
f 153 164 154
f 154 174 155
f 155 174 186
f 157 159 158
f 157 175 159
f 151 166 167
f 152 173 156
f 151 168 166
f 147 164 148
f 149 166 165
f 149 167 166
f 149 150 167
f 148 164 153
f 147 166 163
f 147 165 166
f 147 149 165
f 147 163 164
f 143 162 157
f 143 161 162
f 143 145 144
f 157 162 176
f 143 159 160
f 143 160 145
f 150 151 167
f 157 176 177
f 174 200 186
f 161 178 162
f 181 197 198
f 143 158 159
f 180 197 181
f 180 196 197
f 180 195 196
f 179 195 180
f 176 194 191
f 176 193 194
f 176 181 193
f 176 191 192
f 174 182 200
f 172 190 173
f 172 189 190
f 171 188 172
f 170 188 171
f 170 187 188
f 169 187 170
f 169 186 187
f 166 185 183
f 166 184 185
f 166 168 184
f 166 183 182
f 163 174 164
f 163 182 174
f 163 166 182
f 162 181 176
f 162 180 181
f 162 179 180
f 162 178 179
f 157 177 175
f 143 157 158
f 108 125 109
f 141 148 153
f 119 131 133
f 119 132 120
f 118 131 119
f 117 130 128
f 117 129 130
f 116 130 127
f 116 126 130
f 115 126 116
f 110 112 111
f 109 112 110
f 109 113 112
f 106 108 107
f 106 125 108
f 106 142 125
f 106 152 142
f 106 140 152
f 106 124 140
f 105 124 106
f 105 123 124
f 104 123 105
f 104 122 123
f 103 122 104
f 103 121 122
f 103 120 121
f 103 119 120
f 103 118 119
f 101 117 102
f 101 129 117
f 181 198 194
f 119 133 134
f 119 134 132
f 120 135 122
f 120 122 121
f 140 169 152
f 140 155 169
f 140 154 155
f 140 153 154
f 140 141 153
f 138 151 150
f 138 146 151
f 138 150 149
f 137 141 139
f 137 148 141
f 136 149 147
f 136 138 149
f 136 148 137
f 136 147 148
f 142 152 156
f 134 146 138
f 132 138 135
f 128 144 145
f 128 143 144
f 128 130 143
f 127 130 129
f 124 141 140
f 124 139 141
f 123 137 139
f 123 139 124
f 122 138 136
f 122 135 138
f 122 137 123
f 122 136 137
f 120 132 135
f 132 134 138
f 181 194 193
f 236 255 237
f 182 199 200
f 236 247 254
f 236 246 247
f 101 127 129
f 236 254 255
f 234 253 247
f 234 248 253
f 233 252 248
f 233 251 252
f 233 250 251
f 233 249 250
f 233 235 249
f 233 248 234
f 230 247 231
f 230 234 247
f 229 246 240
f 229 247 246
f 229 231 247
f 228 245 242
f 227 245 228
f 227 244 245
f 226 244 227
f 226 243 244
f 226 238 243
f 226 239 238
f 225 242 241
f 225 228 242
f 222 246 236
f 222 240 246
f 220 236 221
f 237 255 265
f 220 222 236
f 237 265 256
f 237 257 258
f 265 267 266
f 264 267 265
f 264 266 267
f 263 266 264
f 260 262 261
f 260 266 262
f 259 266 260
f 256 266 257
f 256 265 266
f 255 264 265
f 254 264 255
f 252 263 264
f 252 266 263
f 252 262 266
f 252 261 262
f 251 261 252
f 248 264 253
f 248 252 264
f 247 264 254
f 247 253 264
f 245 266 259
f 245 257 266
f 244 257 245
f 244 258 257
f 243 258 244
f 242 259 260
f 242 245 259
f 237 243 238
f 237 258 243
f 237 256 257
f 218 239 226
f 218 226 219
f 217 221 236
f 200 218 219
f 199 218 200
f 199 217 218
f 199 202 217
f 198 216 213
f 198 215 216
f 198 214 215
f 196 198 197
f 196 214 198
f 194 213 212
f 194 198 213
f 191 212 211
f 191 194 212
f 191 211 192
f 188 210 205
f 188 209 210
f 188 208 209
f 188 207 208
f 188 200 207
f 188 206 189
f 188 205 206
f 186 188 187
f 186 200 188
f 185 204 201
f 185 203 204
f 184 203 185
f 183 202 199
f 183 201 202
f 183 185 201
f 200 219 207
f 201 204 220
f 201 220 221
f 201 221 202
f 217 239 218
f 217 238 239
f 217 237 238
f 217 236 237
f 216 235 233
f 216 232 235
f 216 233 234
f 215 232 216
f 214 232 215
f 213 234 230
f 213 216 234
f 212 231 229
f 212 230 231
f 212 213 230
f 182 183 199
f 211 212 229
f 209 227 228
f 209 226 227
f 208 226 209
f 207 226 208
f 207 219 226
f 205 241 223
f 205 225 241
f 205 228 225
f 205 210 228
f 205 224 206
f 205 223 224
f 203 220 204
f 203 222 220
f 202 221 217
f 209 228 210
f 101 116 127
f 172 188 189
f 100 115 116
f 17 96 95
f 17 99 96
f 17 71 99
f 17 56 71
f 17 39 56
f 16 38 32
f 16 37 38
f 16 36 37
f 16 35 36
f 16 31 35
f 16 34 27
f 16 33 34
f 16 32 33
f 15 31 16
f 14 29 30
f 14 26 29
f 13 19 18
f 13 40 19
f 13 28 40
f 12 28 13
f 12 27 28
f 12 16 27
f 11 26 14
f 9 26 11
f 9 25 26
f 9 24 25
f 9 23 24
f 9 22 23
f 9 11 10
f 17 95 114
f 17 114 98
f 17 98 92
f 17 92 91
f 17 126 115
f 17 130 126
f 17 143 130
f 17 161 143
f 17 178 161
f 17 179 178
f 17 195 179
f 17 196 195
f 17 214 196
f 17 232 214
f 17 235 232
f 17 249 235
f 17 250 249
f 17 251 250
f 7 17 20
f 17 261 251
f 17 242 260
f 17 241 242
f 17 223 241
f 17 224 223
f 17 206 224
f 17 189 206
f 17 190 189
f 17 173 190
f 17 156 173
f 17 142 156
f 17 125 142
f 17 109 125
f 17 113 109
f 17 91 113
f 17 260 261
f 17 115 100
f 7 9 8
f 7 21 22
f 3 175 177
f 3 159 175
f 3 160 159
f 3 145 160
f 3 128 145
f 3 117 128
f 3 102 117
f 3 80 102
f 3 63 80
f 3 62 63
f 3 47 62
f 3 30 47
f 3 14 30
f 3 11 14
f 2 13 6
f 2 12 13
f 2 11 3
f 2 10 11
f 2 9 10
f 2 8 9
f 2 7 8
f 2 6 7
f 1 12 2
f 1 5 12
f 1 15 5
f 1 4 15
f 1 3 4
f 1 2 3
f 100 116 101
f 3 177 176
f 3 176 192
f 3 192 211
f 3 211 229
f 7 20 21
f 6 39 17
f 6 19 39
f 6 18 19
f 6 13 18
f 6 17 7
f 5 15 16
f 3 15 4
f 3 31 15
f 3 35 31
f 3 36 35
f 3 50 36
f 3 51 50
f 3 52 51
f 7 22 9
f 3 53 52
f 3 81 65
f 3 103 81
f 3 118 103
f 3 131 118
f 3 133 131
f 3 134 133
f 3 146 134
f 3 151 146
f 3 168 151
f 3 184 168
f 3 203 184
f 3 222 203
f 3 240 222
f 3 229 240
f 3 65 53
f 17 100 77
f 5 16 12
f 17 76 75
f 68 93 94
f 68 92 93
f 67 92 68
f 67 91 92
f 67 90 91
f 67 112 90
f 67 111 112
f 67 89 111
f 66 89 67
f 66 88 89
f 66 86 88
f 66 87 86
f 65 87 66
f 65 86 87
f 65 85 86
f 65 84 85
f 65 83 84
f 65 82 83
f 65 81 82
f 63 79 80
f 60 79 63
f 60 78 79
f 59 78 60
f 59 77 78
f 59 76 77
f 59 75 76
f 59 74 75
f 59 73 74
f 58 73 59
f 68 94 70
f 69 95 96
f 69 96 72
f 69 70 97
f 97 98 114
f 17 77 76
f 95 97 114
f 92 94 93
f 92 98 94
f 91 112 113
f 90 112 91
f 86 89 88
f 86 111 89
f 85 111 86
f 85 110 111
f 85 109 110
f 85 108 109
f 85 107 108
f 57 99 71
f 84 107 85
f 82 84 83
f 82 106 84
f 82 105 106
f 81 105 82
f 81 104 105
f 81 103 104
f 80 101 102
f 79 101 80
f 78 101 79
f 77 101 78
f 77 100 101
f 72 96 99
f 70 98 97
f 70 94 98
f 84 106 107
f 57 72 99
f 69 97 95
f 57 64 69
f 33 38 55
f 32 38 33
f 29 62 47
f 29 48 62
f 29 46 48
f 29 47 30
f 28 49 40
f 28 33 49
f 27 33 28
f 27 34 33
f 25 29 26
f 25 46 29
f 25 45 46
f 25 43 44
f 23 25 24
f 23 43 25
f 23 42 43
f 23 41 42
f 22 41 23
f 21 41 22
f 19 40 39
f 17 21 20
f 17 41 21
f 17 44 41
f 17 58 44
f 17 73 58
f 17 75 74
f 57 69 72
f 17 74 73
f 33 55 49
f 36 50 37
f 25 44 45
f 37 51 52
f 56 57 71
f 55 70 69
f 55 68 70
f 37 50 51
f 55 69 64
f 54 68 55
f 53 68 54
f 53 67 68
f 53 66 67
f 53 65 66
f 48 63 62
f 48 60 63
f 48 61 60
f 46 61 48
f 44 46 45
f 49 55 64
f 44 61 46
f 37 53 54
f 37 54 55
f 37 52 53
f 37 55 38
f 39 40 56
f 40 57 56
f 40 64 57
f 40 49 64
f 42 44 43
f 44 58 59
f 44 59 60
f 44 60 61
f 41 44 42

