# https://github.com/mikedh/trimesh
v 0.30213300 0.21822100 0.10065500
v 0.30213300 0.20142900 0.08399270
v 0.30213300 0.23500400 0.08399270
v 0.28535800 0.24914900 0.16782000
v 0.28535800 0.23500400 0.16782000
v 0.28535800 0.18465600 0.15102900
v 0.28535800 0.15045200 0.13423700
v 0.30213300 0.18465600 0.03361890
v 0.30213300 0.24914900 0.06720150
v 0.25738400 0.24914900 0.22381200
v 0.25738400 0.20702300 0.22381200
v 0.26298300 0.19584400 0.21257500
v 0.26856100 0.20142900 0.20140300
v 0.26856100 0.15108000 0.18461100
v 0.26843800 0.15045200 0.18461100
v 0.28535800 0.15045200 0.05041020
v 0.30213300 0.18465600 -0.01675500
v 0.30213300 0.24914900 -0.03354620
v 0.14166300 0.24914900 0.39650400
v 0.24058800 0.17346700 0.24060400
v 0.24618700 0.16226900 0.22936700
v 0.13246200 0.24914900 0.40974400
v 0.12890100 0.24914900 0.41484600
v 0.26049300 0.15045200 0.20075700
v 0.26794400 0.15045200 0.18590300
v 0.28504900 0.15045200 -0.01740080
v 0.29795500 0.17625900 -0.02515060
v 0.30213300 0.20142900 -0.05033750
v 0.30213300 0.21822100 -0.05033750
v 0.28535800 0.23500400 -0.11750300
v 0.30147500 0.24914900 -0.03651700
v 0.22692100 0.15045200 0.25113100
v 0.24102000 0.15045200 0.23130400
v 0.23571000 0.15045200 0.23892500
v 0.12871600 0.24619300 0.41400600
v 0.12441400 0.24914900 0.41781600
v 0.25164200 0.15045200 -0.23304000
v 0.29795500 0.19305200 -0.05873320
v 0.25178600 0.15108000 -0.23304000
v 0.25919600 0.18662700 -0.23304000
v 0.25919600 0.20340000 -0.23304000
v 0.28181700 0.24914900 -0.11924600
v 0.21757600 0.15045200 0.26049500
v 0.12591600 0.23919700 0.41122900
v 0.15948800 0.16367000 0.32727300
v 0.18402400 0.15045200 0.29407800
v 0.10716400 0.24914900 0.42466200
v 0.17239400 0.15045200 -0.23304000
v 0.25475000 0.22117800 -0.23304000
v 0.24338800 0.24340000 -0.22238400
v 0.24618700 0.24619300 -0.20701300
v 0.26438300 0.24914900 -0.15580000
v 0.11751800 0.22941000 0.40845200
v 0.13561100 0.15045200 0.33179300
v 0.14269200 0.15045200 0.32727300
v 0.10325400 0.24914900 0.42608300
v 0.10072200 0.24619300 0.42524300
v 0.17107700 0.15305100 -0.23304000
v 0.09187080 0.15045200 -0.15922300
v 0.24670100 0.23149700 -0.23304000
v 0.23498900 0.23916800 -0.23304000
v 0.22661200 0.24759400 -0.22658100
v 0.23498900 0.24759400 -0.22031700
v 0.24027900 0.24914900 -0.20404200
v 0.11751800 0.15045200 0.33534500
v 0.13429400 0.15045200 0.33256800
v 0.10072200 0.24914900 0.42672900
v 0.09187080 0.24619300 0.42524300
v 0.16984200 0.15802700 -0.23304000
v 0.09187080 0.15493500 -0.15922300
v 0.16786600 0.16787300 -0.23304000
v 0.09187080 0.15045200 0.33231000
v 0.22019000 0.24277200 -0.23304000
v 0.21292400 0.24914900 -0.20669000
v 0.21821400 0.24914900 -0.20843400
v 0.23498900 0.24914900 -0.21327800
v 0.09187080 0.24914900 -0.14643500
v 0.10008400 0.15045200 0.33534500
v 0.09187080 0.24914900 0.42672900
v 0.09187080 0.23500400 -0.15102100
v 0.16786600 0.20340000 -0.23304000
v 0.18268600 0.22919700 -0.23304000
v 0.17305300 0.22278200 -0.23304000
v 0.17223000 0.22138100 -0.23304000
v 0.09187080 0.24393200 -0.14908300
v 0.17157100 0.22006700 -0.23304000
f 37 82 73
f 37 73 61
f 37 61 60
f 45 55 46
f 37 60 49
f 37 49 41
f 37 41 40
f 37 40 39
f 42 50 51
f 42 49 50
f 42 51 52
f 44 47 53
f 44 53 54
f 44 55 45
f 44 54 55
f 37 83 82
f 41 49 42
f 37 84 83
f 28 39 40
f 37 81 86
f 28 38 37
f 47 56 57
f 28 37 39
f 28 40 41
f 28 41 29
f 29 41 30
f 30 42 31
f 30 41 42
f 37 86 84
f 32 35 43
f 35 44 45
f 35 45 46
f 35 46 43
f 36 47 44
f 37 48 58
f 37 58 69
f 37 69 71
f 37 71 81
f 35 36 44
f 47 57 53
f 77 83 84
f 49 60 50
f 59 85 80
f 59 80 70
f 61 73 62
f 62 74 75
f 62 75 76
f 62 76 63
f 62 73 77
f 62 77 74
f 59 77 85
f 63 76 64
f 70 80 81
f 73 82 77
f 77 82 83
f 77 84 85
f 80 85 81
f 81 85 86
f 84 86 85
f 27 37 38
f 68 72 78
f 48 59 58
f 59 79 77
f 59 72 68
f 50 60 61
f 50 61 62
f 50 62 63
f 50 63 51
f 51 63 64
f 51 64 52
f 53 57 65
f 53 65 66
f 59 68 79
f 53 66 54
f 57 67 79
f 57 79 68
f 57 68 78
f 57 78 65
f 58 59 69
f 59 70 81
f 59 81 71
f 59 71 69
f 56 67 57
f 27 38 28
f 7 37 26
f 23 36 35
f 4 75 74
f 4 74 77
f 4 77 79
f 4 79 67
f 4 67 56
f 4 56 47
f 4 47 36
f 4 36 23
f 4 23 22
f 4 22 19
f 4 19 10
f 4 10 11
f 4 11 5
f 5 11 12
f 5 12 13
f 5 13 14
f 5 14 6
f 4 76 75
f 6 14 7
f 4 64 76
f 4 42 52
f 26 37 27
f 1 2 8
f 1 8 17
f 1 17 28
f 1 28 29
f 1 29 18
f 1 18 9
f 1 9 3
f 1 3 4
f 1 4 5
f 1 5 6
f 1 6 7
f 1 7 2
f 2 7 8
f 3 9 4
f 4 9 18
f 4 18 31
f 4 52 64
f 7 14 15
f 4 31 42
f 7 25 24
f 11 23 20
f 12 24 25
f 12 25 13
f 12 21 24
f 13 25 14
f 14 25 15
f 16 26 27
f 17 27 28
f 18 29 30
f 18 30 31
f 20 32 21
f 20 23 32
f 21 33 24
f 21 32 34
f 21 34 33
f 7 15 25
f 23 35 32
f 11 22 23
f 11 19 22
f 16 27 17
f 11 20 21
f 7 33 34
f 11 21 12
f 7 34 32
f 7 32 43
f 7 43 46
f 7 46 55
f 7 24 33
f 7 54 66
f 7 66 65
f 7 65 78
f 7 55 54
f 7 78 72
f 7 72 59
f 7 59 48
f 7 48 37
f 7 26 16
f 7 16 17
f 7 17 8
f 10 19 11

