# https://github.com/mikedh/trimesh
v -0.01679450 -0.77215800 -0.50359500
v -0.01468970 -0.76796500 -0.52039600
v -0.00560311 -0.76657200 -0.50359500
v -0.01679450 -0.77215800 -0.47003400
v -0.03356440 -0.77215800 -0.48681400
v -0.05035740 -0.73858600 -0.62107900
v 0.00558832 -0.76097200 -0.50359500
v -0.00000164 -0.73858600 -0.62107900
v 0.01118980 -0.73299900 -0.62107900
v -0.00560311 -0.76657200 -0.47003400
v -0.00839810 -0.76796500 -0.46164400
v -0.01635750 -0.75516200 -0.41924300
v -0.01679450 -0.75537200 -0.41967100
v -0.03356440 -0.76796500 -0.46793600
v -0.04475590 -0.76657200 -0.48122800
v -0.04196090 -0.76377200 -0.51198500
v -0.06154880 -0.73299900 -0.61549200
v -0.05874230 -0.73019900 -0.62946900
v -0.04475590 -0.73299900 -0.63227300
v 0.02238120 -0.74418500 -0.48681400
v 0.00558832 -0.76097200 -0.47003400
v 0.02238120 -0.72739900 -0.60429800
v 0.00558832 -0.73299900 -0.63227300
v 0.01258150 -0.73019900 -0.62946900
v -0.00000164 -0.76166800 -0.45323200
v -0.00574114 -0.74985100 -0.41924300
v -0.01679450 -0.75516200 -0.41924300
v -0.01766870 -0.75493800 -0.41924300
v -0.04196090 -0.76377200 -0.46583900
v -0.04475590 -0.74978500 -0.44764600
v -0.06154880 -0.73299900 -0.48122800
v -0.07833020 -0.71621300 -0.59871200
v -0.07274020 -0.72739900 -0.60988500
v -0.06993370 -0.72459900 -0.62388300
v -0.07553520 -0.71341300 -0.62946900
v -0.05035740 -0.72179900 -0.63788100
v 0.02937440 -0.73019900 -0.49520400
v 0.03357270 -0.72179900 -0.48681400
v 0.01258150 -0.74068900 -0.43645200
v 0.01118980 -0.74978500 -0.45323200
v 0.00838331 -0.75117900 -0.44484200
v 0.02307130 -0.72179900 -0.62107900
v 0.02937440 -0.71341300 -0.61268900
v -0.00000164 -0.72179900 -0.63788100
v 0.01118980 -0.72179900 -0.63227300
v 0.00543880 -0.74421200 -0.41924300
v -0.02938920 -0.75014000 -0.41924300
v -0.04196090 -0.74698500 -0.43225600
v -0.04511250 -0.73441900 -0.41924300
v -0.06294050 -0.72179900 -0.46793600
v -0.06713880 -0.72179900 -0.48681400
v -0.08393170 -0.70502600 -0.60429800
v -0.07833020 -0.68265300 -0.63227300
v -0.06713880 -0.68825300 -0.63788100
v -0.08393170 -0.68825300 -0.62107900
v 0.01677980 -0.68825300 -0.45323200
v 0.01231700 -0.68611000 -0.41924300
v 0.01314510 -0.68825300 -0.41924300
v 0.01677980 -0.70459200 -0.41924300
v 0.01677980 -0.72179900 -0.41924300
v 0.01677980 -0.67145300 -0.62107900
v 0.01677980 -0.67145300 -0.58751800
v 0.01118980 -0.73299900 -0.41924300
v 0.00573785 -0.74389600 -0.41924300
v 0.01118980 -0.67145300 -0.63227300
v -0.00000164 -0.67145300 -0.63788100
v -0.03312740 -0.74720900 -0.41924300
v -0.04217940 -0.73815200 -0.41924300
v -0.04992030 -0.72268000 -0.41924300
v -0.06713880 -0.70502600 -0.47003400
v -0.05025380 -0.72179900 -0.41924300
v -0.05035740 -0.72136500 -0.41924300
v -0.08393170 -0.68825300 -0.60429800
v -0.06154880 -0.64908000 -0.63227300
v -0.05035740 -0.65466700 -0.63788100
v -0.07973340 -0.67985300 -0.59590800
v -0.06154880 -0.64348100 -0.62107900
v 0.01118980 -0.67705300 -0.45884000
v 0.00838331 -0.67985300 -0.41924300
v 0.01118980 -0.66026700 -0.62668700
v 0.01118980 -0.66026700 -0.59310400
v 0.00838331 -0.66306700 -0.63366400
v -0.01679450 -0.65466700 -0.63788100
v -0.00839810 -0.64628000 -0.63366400
v -0.05035740 -0.68825300 -0.41924300
v -0.05024230 -0.68775300 -0.41924300
v -0.06294050 -0.69663900 -0.46164400
v -0.05874230 -0.64208700 -0.62946900
v -0.05035740 -0.64348100 -0.63227300
v -0.07343030 -0.67145300 -0.58751800
v -0.06294050 -0.64628000 -0.61268900
v -0.07274020 -0.66586700 -0.60429800
v -0.04479040 -0.67685600 -0.41924300
v -0.05245070 -0.64208700 -0.60429800
v -0.05035740 -0.63788100 -0.62107900
v 0.00558832 -0.64908000 -0.61549200
v 0.00212623 -0.67592300 -0.41924300
v -0.00560311 -0.64348100 -0.62668700
v -0.01679450 -0.64348100 -0.63227300
v -0.04431880 -0.67661900 -0.41924300
v -0.03356440 -0.67124300 -0.41924300
v -0.01679450 -0.63788100 -0.62107900
v -0.03356440 -0.63788100 -0.60429800
v -0.00000164 -0.67464800 -0.41924300
v -0.01679450 -0.67124300 -0.41924300
f 50 72 70
f 50 71 72
f 50 69 71
f 50 70 51
f 44 65 45
f 48 68 49
f 48 67 68
f 47 67 48
f 61 65 80
f 49 69 50
f 51 70 52
f 53 55 74
f 52 70 73
f 53 74 75
f 53 75 54
f 55 73 76
f 55 76 77
f 55 77 74
f 56 78 57
f 56 62 78
f 57 78 79
f 44 66 65
f 52 73 55
f 43 65 61
f 38 59 60
f 42 45 65
f 61 80 81
f 35 53 54
f 35 54 36
f 35 52 55
f 35 55 53
f 36 54 75
f 36 75 83
f 36 83 66
f 36 66 44
f 37 43 38
f 42 65 43
f 38 56 57
f 38 58 59
f 38 60 39
f 38 43 61
f 38 61 62
f 38 62 56
f 39 60 63
f 39 63 64
f 39 64 41
f 39 41 40
f 41 64 46
f 38 57 58
f 61 81 62
f 33 35 34
f 65 66 82
f 80 84 98
f 80 98 96
f 80 96 81
f 83 99 84
f 84 99 98
f 86 93 87
f 88 95 89
f 89 95 102
f 89 102 99
f 90 93 91
f 80 82 84
f 93 100 94
f 94 101 95
f 95 101 103
f 95 103 102
f 96 98 102
f 96 102 104
f 96 104 97
f 102 105 104
f 98 99 102
f 101 105 103
f 102 103 105
f 94 100 101
f 79 96 97
f 78 96 79
f 78 81 96
f 65 82 80
f 66 83 84
f 66 84 82
f 70 72 85
f 70 85 86
f 70 86 87
f 70 87 76
f 70 76 73
f 74 88 89
f 74 89 75
f 74 77 88
f 75 89 99
f 75 99 83
f 76 90 91
f 76 91 92
f 76 92 77
f 76 87 93
f 76 93 90
f 77 92 91
f 77 91 93
f 77 93 94
f 77 94 95
f 77 95 88
f 62 81 78
f 33 52 35
f 1 4 5
f 31 52 32
f 7 22 20
f 8 23 9
f 9 23 24
f 9 24 22
f 10 21 11
f 11 25 12
f 11 21 25
f 12 26 46
f 12 46 64
f 12 64 63
f 7 9 22
f 12 63 60
f 12 59 58
f 12 58 57
f 12 57 79
f 12 79 97
f 12 97 104
f 12 104 105
f 12 105 101
f 12 101 100
f 12 100 93
f 12 93 86
f 12 60 59
f 12 86 85
f 7 20 21
f 6 23 8
f 32 52 33
f 1 2 3
f 1 3 10
f 1 10 4
f 1 5 6
f 1 6 2
f 2 7 3
f 2 6 8
f 2 9 7
f 3 7 21
f 6 16 17
f 3 21 10
f 4 11 12
f 4 12 13
f 4 13 14
f 4 14 5
f 5 14 15
f 5 15 16
f 5 16 6
f 6 17 18
f 6 18 19
f 6 19 23
f 4 10 11
f 12 85 72
f 2 8 9
f 12 71 69
f 20 37 38
f 20 38 39
f 20 39 40
f 20 40 21
f 20 22 43
f 20 43 37
f 21 40 41
f 21 41 25
f 22 24 42
f 22 42 43
f 19 44 23
f 23 44 45
f 24 45 42
f 25 41 46
f 25 46 26
f 28 47 29
f 29 47 48
f 30 49 31
f 31 49 50
f 31 50 51
f 12 72 71
f 31 51 52
f 23 45 24
f 19 36 44
f 30 48 49
f 18 35 36
f 12 69 49
f 18 36 19
f 12 68 67
f 12 49 68
f 12 47 28
f 12 28 27
f 12 27 13
f 12 25 26
f 13 27 28
f 13 28 14
f 14 28 29
f 12 67 47
f 15 29 48
f 14 29 15
f 18 34 35
f 17 33 34
f 15 33 16
f 16 33 17
f 15 31 32
f 15 30 31
f 15 48 30
f 15 32 33
f 17 34 18

