# https://github.com/mikedh/trimesh
v 0.05160730 0.32876600 0.48190600
v 0.05035480 0.32876600 0.48148600
v 0.05160730 0.26734100 0.42025100
v 0.05160730 0.32876600 -0.09783270
v 0.04483790 0.32876600 0.47777700
v 0.04196020 0.27698200 0.42382000
v 0.05160730 0.26359200 0.41528200
v 0.05160730 0.32453400 -0.10630100
v 0.00559358 0.29095700 -0.23304000
v -0.01481880 0.30116700 -0.23304000
v -0.01678700 0.30214900 -0.23304000
v -0.00001275 0.32876600 -0.11455900
v 0.02661730 0.32876600 0.45958100
v 0.04196020 0.32733200 0.47420700
v 0.04196020 0.29375500 0.44061600
v 0.05160730 0.24914900 0.39491700
v 0.02517100 0.32733200 0.45741200
v -0.05594190 0.24914900 0.22380900
v 0.05160730 0.30774500 -0.12309700
v 0.02837680 0.27055200 -0.23304000
v 0.02517100 0.27698200 -0.23304000
v -0.03916760 0.29095700 -0.23304000
v -0.07177680 0.32876600 -0.02141140
v -0.04917250 0.32876600 -0.06242130
v -0.02884960 0.32876600 -0.09594320
v -0.01207530 0.32876600 -0.11273900
v 0.02445530 0.32876600 0.45706200
v 0.05160730 0.24914900 -0.15696800
v 0.00838184 0.32733200 0.42382000
v -0.06242790 0.24914900 0.21086200
v 0.05160730 0.28620200 -0.13968200
v 0.03356560 0.25179900 -0.23304000
v -0.04410300 0.28108900 -0.23304000
v -0.07832250 0.27418400 -0.14542100
v -0.07553420 0.28117500 -0.14262200
v -0.07273110 0.29095700 -0.13422400
v -0.05874510 0.29795600 -0.15941800
v -0.07663760 0.32876600 -0.01056400
v 0.00766614 0.32876600 0.42347000
v 0.03356560 0.24914900 -0.23304000
v 0.05160730 0.25158100 -0.15647800
v -0.08392880 0.24914900 0.16782200
v -0.07921710 0.24914900 0.17727000
v 0.05160730 0.28536800 -0.14010200
v 0.05160730 0.25179900 -0.15640800
v -0.05035050 0.26858800 -0.23304000
v -0.08392880 0.26858800 -0.13422400
v -0.07972410 0.28747300 -0.11749800
v -0.07553420 0.29795600 -0.10910000
v -0.08173700 0.32876600 0.00875124
v 0.00419200 0.32876600 0.41479200
v -0.05035050 0.24914900 -0.23304000
v -0.08392880 0.26858800 0.16782200
v -0.10071800 0.26858800 0.11750500
v -0.09651320 0.25179900 0.11960400
v -0.09651320 0.24914900 0.11701500
v -0.10071800 0.25179900 -0.06711020
v -0.10071800 0.26858800 -0.05031430
v -0.08392880 0.28536800 -0.10070200
v -0.08392880 0.25179900 -0.13422400
v -0.09651320 0.28747300 -0.03351840
v -0.08952020 0.30774500 -0.01672250
v -0.07832250 0.29655300 -0.10070200
v -0.08392880 0.32876600 0.02666690
v -0.07756210 0.32876600 0.16089400
v -0.07972410 0.32733200 0.15942400
v -0.08392880 0.31893700 0.15102600
v -0.08339200 0.24914900 -0.13373400
v -0.10071800 0.28536800 0.10077900
v -0.10071800 0.25179900 0.10077900
v -0.10071800 0.24914900 0.09811940
v -0.10071800 0.24914900 -0.06711020
v -0.10071800 0.28536800 -0.01672250
v -0.10071800 0.30214900 0.08398290
v -0.08952020 0.32453400 0.08398290
v -0.08740300 0.32876600 0.08398290
v -0.07900840 0.32876600 0.15508500
v -0.08653820 0.32876600 0.11057600
v -0.09651320 0.31054300 0.09238080
v -0.08740300 0.32876600 0.09035130
f 47 60 72
f 35 48 36
f 36 48 49
f 36 49 37
f 37 49 38
f 38 49 50
f 39 51 42
f 42 53 54
f 42 54 55
f 42 51 53
f 46 60 47
f 47 57 58
f 47 58 59
f 47 59 48
f 34 46 47
f 42 55 56
f 46 52 60
f 28 32 41
f 34 47 48
f 19 31 32
f 47 72 57
f 19 32 20
f 22 33 34
f 22 34 35
f 22 35 36
f 22 36 37
f 34 48 35
f 22 37 38
f 28 40 32
f 29 39 42
f 29 42 43
f 31 44 32
f 32 44 45
f 32 45 41
f 33 46 34
f 22 38 23
f 48 59 73
f 54 71 70
f 48 61 62
f 58 73 59
f 60 68 72
f 61 73 62
f 62 73 64
f 64 73 74
f 64 74 75
f 64 75 76
f 56 70 71
f 65 77 66
f 66 78 79
f 66 79 74
f 66 74 67
f 67 74 69
f 74 79 80
f 74 80 75
f 17 30 18
f 66 77 78
f 48 73 61
f 54 70 56
f 54 57 72
f 48 62 63
f 48 63 49
f 49 63 50
f 50 63 62
f 50 62 64
f 51 65 66
f 51 66 67
f 54 72 71
f 51 67 54
f 52 68 60
f 54 56 55
f 54 67 69
f 54 69 74
f 54 74 73
f 54 73 58
f 54 58 57
f 51 54 53
f 17 43 30
f 4 9 10
f 17 39 29
f 1 64 76
f 1 76 80
f 1 80 78
f 1 78 77
f 1 77 65
f 1 65 51
f 1 51 39
f 1 39 27
f 1 27 13
f 1 13 5
f 1 5 2
f 2 5 6
f 2 6 3
f 3 6 7
f 4 8 9
f 1 50 64
f 1 38 50
f 1 23 38
f 1 24 23
f 75 80 76
f 1 2 3
f 1 3 7
f 1 7 16
f 1 16 28
f 1 28 41
f 1 41 45
f 4 10 11
f 1 45 44
f 1 31 19
f 1 19 8
f 1 8 4
f 1 4 12
f 1 12 26
f 1 26 25
f 1 25 24
f 1 44 31
f 4 11 12
f 5 13 14
f 5 14 15
f 11 25 26
f 11 26 12
f 13 27 17
f 13 17 14
f 14 17 15
f 16 18 30
f 16 30 43
f 11 24 25
f 16 43 42
f 16 56 71
f 16 71 72
f 16 72 68
f 16 68 52
f 16 52 40
f 16 40 28
f 17 27 39
f 16 42 56
f 17 29 43
f 11 23 24
f 9 11 10
f 5 15 6
f 6 16 7
f 6 15 17
f 6 17 18
f 6 18 16
f 8 19 20
f 8 20 21
f 11 22 23
f 8 21 9
f 9 20 32
f 9 32 40
f 9 40 52
f 9 52 46
f 9 46 33
f 9 33 22
f 9 22 11
f 9 21 20
f 78 80 79

