# https://github.com/mikedh/trimesh
v 0.29345800 0.04254870 0.12558400
v 0.16784100 0.04254870 0.25201300
v 0.05935160 0.04254870 0.26507900
v 0.10073200 0.04254870 0.26973900
v 0.07729160 0.04254870 0.26973900
v 0.08393610 0.04476410 0.27413700
v 0.10073200 0.04476410 0.27413700
v 0.10072800 0.12869000 0.32450300
v 0.07554330 0.05875610 0.28115700
v 0.06734110 0.05052060 0.27498100
v 0.05877750 0.09233400 0.29790600
v 0.09234530 0.14267600 0.33151400
v 0.10011400 0.15043300 0.33540900
v 0.06716040 0.15043300 0.32700700
v 0.05877750 0.12589200 0.31471000
v 0.04479390 0.10071600 0.29095100
v 0.00840769 0.09233400 0.25595100
v -0.00557589 0.11750000 0.25734200
v 0.04479390 0.13428400 0.30769900
v 0.05017780 0.15043300 0.31849400
v 0.11749400 0.15043300 0.33540900
v 0.11749400 0.12869000 0.32450300
v 0.13426000 0.15043300 0.33257200
v 0.13426000 0.07833750 0.29095100
v 0.14052500 0.04254870 0.26346700
v 0.14650500 0.04254870 0.26207400
v 0.13428600 0.04254870 0.26464300
v 0.15654500 0.04254870 0.25872000
v 0.15946100 0.04616240 0.26015700
v 0.18039100 0.04254870 0.24447900
v 0.24059800 0.04254870 0.20702500
v 0.14546100 0.09513130 0.29651500
v 0.14267900 0.08813800 0.29373300
v 0.14267900 0.14687200 0.32728500
v 0.17624700 0.13008800 0.29373300
v 0.18397900 0.15043300 0.29406700
v 0.14267900 0.15043300 0.32728500
v 0.22690600 0.15043300 0.25111000
v 0.27684700 0.04254870 0.15933700
v 0.29316300 0.04254870 0.12645500
v 0.26296700 0.14547400 0.19580100
v 0.26047400 0.15043300 0.20075300
v 0.26791700 0.15043300 0.18589700
v 0.26842300 0.15043300 0.18461700
v 0.28533300 0.15043300 0.13426000
v 0.29766600 0.04254870 0.09618730
v 0.29766600 0.04254870 0.01230780
v 0.14436400 0.04254870 -0.16559900
v 0.25436600 0.04254870 -0.06974260
v 0.27666200 0.04254870 -0.03729700
v 0.29345800 0.04254870 -0.00371902
v 0.29681700 0.04254870 0.00856241
v 0.25162100 0.15043300 -0.23304000
v 0.24808000 0.13440200 -0.23304000
v 0.24742900 0.13309100 -0.23304000
v 0.24659800 0.13169200 -0.23304000
v 0.26828300 0.04254870 -0.05049300
v 0.26045700 0.04254870 -0.06220820
v 0.23565000 0.12436600 -0.23304000
v 0.21819800 0.11750000 -0.23304000
v 0.23434900 0.12371100 -0.23304000
v 0.17865600 0.04254870 -0.14844000
v 0.19021000 0.04254870 -0.13986000
v 0.20700600 0.04254870 -0.12309300
v 0.13428600 0.04254870 -0.16786300
v 0.05935160 0.04254870 -0.16786300
v 0.03709270 0.04254870 -0.15963200
v 0.05038160 0.04254870 -0.16586000
v 0.19023000 0.12309500 -0.23304000
v 0.19749300 0.11946600 -0.23304000
v 0.20143200 0.11794000 -0.23304000
v 0.20338300 0.11750000 -0.23304000
v 0.18661700 0.12672400 -0.23304000
v 0.18260600 0.13110600 -0.23304000
v 0.17946300 0.13625000 -0.23304000
v 0.17234400 0.15043300 -0.23304000
v 0.28504400 0.15043300 -0.01736730
v 0.28533300 0.15043300 0.05040590
v -0.07520470 0.15043300 -0.02482350
v -0.00387763 0.15043300 -0.15491700
v -0.05421130 0.15043300 -0.07100720
v -0.07101330 0.15043300 -0.03739880
v -0.06884950 0.04254870 -0.01678440
v -0.06246340 0.04254870 -0.03163530
v -0.04001990 0.04254870 -0.07170240
v -0.00646541 0.04254870 -0.12204800
v 0.00848461 0.04254870 -0.13746500
v 0.01121620 0.04254870 -0.13986000
v -0.07929600 0.04254870 0.09287750
v -0.07944370 0.04254870 0.03360430
v -0.07866850 0.04254870 0.02951050
v -0.07520470 0.15043300 0.11684400
v -0.07944370 0.04254870 0.09056920
v -0.06682180 0.15043300 0.16814600
v -0.04582840 0.15043300 0.22045100
v -0.06711450 0.04254870 0.13425100
v -0.05592970 0.04254870 0.15663600
v -0.07006760 0.04254870 0.12645500
v -0.01938520 0.04254870 0.19622400
v -0.03392920 0.04254870 0.18054600
v -0.00835816 0.09233400 0.23920300
v 0.01121620 0.04254870 0.22379200
v 0.03059590 0.04254870 0.24090800
v 0.04197550 0.07554020 0.27275500
v 0.06717730 0.05035830 0.27483400
v -0.00579269 0.15043300 0.27342300
v -0.04196210 0.14267600 0.22239800
v -0.00535909 0.15043300 0.27392400
v 0.24099800 0.15043300 0.23135700
v 0.23572200 0.15043300 0.23898000
v 0.13556100 0.15043300 0.33184800
v 0.04203910 0.04254870 -0.16259400
v 0.00685395 0.15043300 -0.16098200
f 67 48 83
f 86 67 83
f 85 86 83
f 88 67 86
f 88 80 67
f 87 86 80
f 87 88 86
f 85 80 86
f 81 80 85
f 48 1 83
f 87 80 88
f 3 83 1
f 93 90 89
f 90 83 89
f 91 83 90
f 91 79 83
f 91 90 79
f 90 92 79
f 93 92 90
f 93 89 92
f 94 92 89
f 94 95 92
f 84 85 83
f 96 95 94
f 89 83 3
f 84 81 85
f 74 75 73
f 82 84 83
f 96 97 95
f 70 69 72
f 69 73 72
f 69 68 73
f 74 73 68
f 74 68 75
f 75 68 76
f 75 76 73
f 73 76 72
f 72 76 54
f 60 72 54
f 82 81 84
f 60 66 72
f 53 76 77
f 53 77 47
f 78 47 77
f 78 45 47
f 78 77 45
f 77 79 45
f 76 79 77
f 80 79 76
f 81 79 80
f 82 79 81
f 82 83 79
f 53 54 76
f 96 89 97
f 111 34 37
f 98 94 89
f 113 80 76
f 20 21 95
f 95 21 79
f 92 95 79
f 45 79 21
f 38 45 21
f 43 45 38
f 42 43 38
f 109 42 38
f 109 39 42
f 110 39 109
f 108 20 95
f 110 38 39
f 37 38 21
f 23 37 21
f 111 37 23
f 111 23 34
f 107 95 97
f 112 67 80
f 112 68 67
f 112 76 68
f 112 113 76
f 112 80 113
f 71 70 72
f 110 109 38
f 19 20 108
f 19 108 18
f 106 18 108
f 98 96 94
f 97 89 3
f 99 97 3
f 100 97 99
f 101 97 100
f 101 18 97
f 101 17 18
f 101 99 17
f 101 100 99
f 102 17 99
f 102 103 17
f 102 99 103
f 103 99 3
f 103 3 17
f 104 17 3
f 104 11 17
f 104 3 11
f 105 11 3
f 105 10 11
f 6 10 105
f 6 105 3
f 106 97 18
f 106 107 97
f 106 95 107
f 106 108 95
f 98 89 96
f 71 72 66
f 14 13 20
f 70 66 69
f 22 7 24
f 22 8 7
f 25 24 7
f 25 26 24
f 25 27 26
f 25 7 27
f 27 7 4
f 27 4 26
f 26 4 2
f 28 26 2
f 28 24 26
f 22 24 23
f 28 29 24
f 29 2 30
f 29 30 31
f 29 31 32
f 33 29 32
f 33 24 29
f 33 23 24
f 33 34 23
f 33 32 34
f 32 31 34
f 35 34 31
f 36 34 35
f 28 2 29
f 36 37 34
f 22 23 21
f 13 8 21
f 71 66 70
f 2 3 1
f 4 3 2
f 5 3 4
f 5 6 3
f 5 4 6
f 6 4 7
f 6 7 8
f 9 6 8
f 9 10 6
f 9 11 10
f 22 21 8
f 9 12 11
f 13 12 8
f 14 12 13
f 15 12 14
f 15 11 12
f 16 11 15
f 16 18 17
f 16 19 18
f 16 15 19
f 15 20 19
f 15 14 20
f 13 21 20
f 9 8 12
f 36 38 37
f 16 17 11
f 36 35 31
f 57 56 50
f 57 58 56
f 57 50 58
f 58 50 49
f 56 58 49
f 56 49 59
f 56 59 54
f 59 60 54
f 61 60 59
f 61 62 60
f 61 63 62
f 61 59 63
f 64 63 59
f 64 49 63
f 63 49 48
f 62 63 48
f 62 48 60
f 65 60 48
f 65 66 60
f 65 48 66
f 66 48 67
f 68 66 67
f 36 31 38
f 56 51 50
f 55 51 56
f 64 59 49
f 55 54 51
f 31 39 38
f 55 56 54
f 31 2 39
f 30 2 31
f 39 2 1
f 40 39 1
f 41 39 40
f 41 42 39
f 41 43 42
f 41 40 43
f 44 43 40
f 44 45 43
f 44 1 45
f 69 66 68
f 46 45 1
f 52 51 53
f 51 54 53
f 44 40 1
f 52 53 47
f 52 47 51
f 50 47 49
f 51 47 50
f 47 1 48
f 46 1 47
f 46 47 45
f 49 47 48

