# https://github.com/mikedh/trimesh
v -0.01679510 -0.75516700 -0.41922200
v -0.01766480 -0.75492400 -0.41922200
v -0.01636020 -0.75516700 -0.41922200
v -0.01679510 -0.70500700 -0.20144700
v -0.02797390 -0.74978600 -0.41406200
v -0.02939360 -0.75012000 -0.41922200
v -0.00574423 -0.74984700 -0.41922200
v -0.00840463 -0.75118400 -0.41123500
v -0.00000137 -0.70500700 -0.20144700
v -0.04475480 -0.71619400 -0.29653000
v -0.01679510 -0.69381900 -0.17906500
v -0.02517280 -0.69661600 -0.18885900
v -0.02797390 -0.69941300 -0.19585900
v -0.03312840 -0.74720200 -0.41922200
v 0.00544732 -0.74419200 -0.41922200
v -0.00000137 -0.74489200 -0.40285400
v 0.00838911 -0.70081100 -0.19306600
v -0.00000137 -0.69381900 -0.17906500
v -0.03916540 -0.69381900 -0.20703400
v -0.04475480 -0.68263200 -0.19585900
v -0.06154860 -0.68263200 -0.27976800
v -0.04511290 -0.73440300 -0.41922200
v -0.04218400 -0.73814300 -0.41922200
v -0.00000137 -0.62107200 -0.08348810
v -0.01824040 -0.61724200 -0.08348810
v -0.03795030 -0.61134400 -0.08348810
v -0.04811870 -0.60827400 -0.08348810
v -0.05035700 -0.60745300 -0.08348810
v -0.05409180 -0.60520300 -0.08348810
v -0.03356330 -0.68822600 -0.18465200
v 0.00572871 -0.74388800 -0.41922200
v 0.02238180 -0.69381900 -0.20144700
v 0.01677960 -0.69451900 -0.18465200
v -0.06154860 -0.59872800 -0.08348810
v -0.06805880 -0.59128000 -0.08348810
v -0.07304710 -0.58410600 -0.08348810
v -0.07832950 -0.58194700 -0.09512290
v -0.06713790 -0.67144500 -0.28535600
v -0.08393170 -0.57076000 -0.10074300
v -0.04992210 -0.72266900 -0.41922200
v 0.00030560 -0.62092000 -0.08348810
v 0.01677960 -0.67703900 -0.16227000
v 0.01133090 -0.73270100 -0.41922200
v 0.01119020 -0.73297500 -0.38605900
v 0.02797110 -0.68263200 -0.18465200
v 0.02517010 -0.68403100 -0.17627100
v -0.07955740 -0.57212800 -0.08348810
v -0.08009460 -0.57076000 -0.08348810
v -0.06713790 -0.67144500 -0.31891200
v -0.05025470 -0.72178700 -0.41922200
v -0.08393170 -0.55397900 -0.08348810
v -0.08393170 -0.57076000 -0.15109500
v 0.01149720 -0.61532600 -0.08348810
v 0.02238180 -0.60988500 -0.08348810
v 0.01677960 -0.72178700 -0.41922200
v 0.01677960 -0.72178700 -0.38605900
v 0.03356050 -0.67144500 -0.18465200
v 0.02936530 -0.67354300 -0.16789000
v 0.02275270 -0.60961100 -0.08348810
v -0.05035700 -0.68822600 -0.41922200
v -0.05035700 -0.72136200 -0.41922200
v -0.08393170 -0.55397900 -0.16789000
v -0.08393170 -0.50312000 -0.08348810
v 0.01677960 -0.70458100 -0.41922200
v 0.03356050 -0.65466400 -0.30215000
v 0.03356050 -0.67144500 -0.28535600
v 0.04615900 -0.57915000 -0.09232920
v 0.04491840 -0.58161300 -0.08348810
v 0.04473930 -0.58209900 -0.08348810
v 0.03930340 -0.59298200 -0.08348810
v 0.03908600 -0.59328600 -0.08348810
v -0.05024190 -0.68773900 -0.41922200
v -0.07972360 -0.53507000 -0.16789000
v -0.08393170 -0.53716800 -0.15109500
v -0.07985150 -0.48478800 -0.08348810
v -0.08393170 -0.50360600 -0.10074300
v 0.01314710 -0.68822600 -0.41922200
v 0.02936530 -0.65466400 -0.32101600
v 0.04219400 -0.47004400 -0.08348810
v 0.04673460 -0.57076000 -0.08348810
v -0.04479320 -0.67682600 -0.41922200
v -0.07972360 -0.51828900 -0.15109500
v -0.07552840 -0.51619200 -0.15947600
v -0.08393170 -0.52038700 -0.13430000
v -0.07972360 -0.48424100 -0.08348810
v 0.01231570 -0.68609800 -0.41922200
v 0.04090220 -0.46481600 -0.08348810
v 0.02936530 -0.63785300 -0.30422100
v -0.04431990 -0.67658300 -0.41922200
v -0.06305780 -0.45074000 -0.08348810
v -0.05874750 -0.46584900 -0.10912400
v -0.05035700 -0.44764000 -0.08953550
v 0.00838911 -0.67983500 -0.41922200
v 0.03700110 -0.45657700 -0.08348810
v -0.03356330 -0.67123200 -0.41922200
v -0.06269970 -0.45055800 -0.08348810
v -0.04195370 -0.45742800 -0.10912400
v -0.05035700 -0.44460000 -0.08348810
v 0.00213462 -0.67591400 -0.41922200
v -0.00000137 -0.44764000 -0.08953550
v 0.00520431 -0.44590700 -0.08348810
v -0.00000137 -0.67460700 -0.41922200
v -0.01679510 -0.67123200 -0.41922200
v -0.03356330 -0.46445100 -0.12312500
v -0.03356330 -0.45323300 -0.10074300
v -0.03356330 -0.45882700 -0.11191800
v -0.00000137 -0.44460000 -0.08348810
f 49 61 50
f 49 60 61
f 46 59 54
f 44 56 57
f 45 58 46
f 45 57 58
f 44 57 45
f 43 56 44
f 46 58 59
f 49 52 62
f 57 67 68
f 55 64 65
f 55 65 66
f 55 66 57
f 55 57 56
f 57 68 58
f 57 66 67
f 58 68 69
f 58 69 70
f 58 71 59
f 43 55 56
f 58 70 71
f 49 62 60
f 42 54 53
f 38 49 50
f 41 42 53
f 60 62 73
f 24 33 42
f 24 42 41
f 29 34 30
f 31 43 44
f 31 44 32
f 32 44 45
f 32 45 46
f 32 46 33
f 33 46 42
f 36 47 37
f 37 47 48
f 37 48 39
f 38 50 40
f 38 39 52
f 38 52 49
f 39 48 51
f 39 51 63
f 39 63 76
f 39 76 84
f 39 84 74
f 39 74 62
f 39 62 52
f 42 46 54
f 60 73 72
f 105 107 106
f 63 75 76
f 86 94 87
f 89 92 95
f 90 96 92
f 90 92 91
f 92 97 95
f 92 96 98
f 92 98 97
f 93 99 94
f 94 100 101
f 94 99 102
f 94 102 100
f 95 97 104
f 95 104 103
f 97 98 105
f 97 105 106
f 97 106 104
f 98 107 105
f 100 104 107
f 100 107 101
f 100 102 103
f 100 103 104
f 104 106 107
f 24 26 25
f 86 93 94
f 62 74 73
f 82 90 83
f 82 84 85
f 64 77 78
f 64 78 65
f 65 78 79
f 65 79 80
f 65 80 67
f 65 67 66
f 67 80 68
f 72 73 82
f 72 82 83
f 72 83 81
f 73 74 84
f 73 84 82
f 75 85 76
f 76 85 84
f 77 86 87
f 77 87 88
f 77 88 78
f 78 88 79
f 79 88 87
f 81 83 90
f 81 90 91
f 81 91 92
f 81 92 89
f 82 85 90
f 24 27 26
f 24 35 34
f 24 29 28
f 1 4 2
f 2 5 6
f 2 4 5
f 3 7 8
f 3 8 9
f 4 10 5
f 4 9 18
f 4 18 11
f 4 11 12
f 4 12 13
f 1 3 9
f 4 13 10
f 6 10 14
f 7 15 8
f 8 15 16
f 8 16 17
f 8 17 9
f 9 17 18
f 10 13 19
f 10 19 20
f 10 20 21
f 10 21 22
f 5 10 6
f 1 7 3
f 1 15 7
f 1 31 15
f 24 28 27
f 1 2 6
f 1 6 14
f 1 14 23
f 1 23 22
f 1 22 40
f 1 40 50
f 1 50 61
f 1 61 60
f 1 60 72
f 1 72 81
f 1 81 89
f 1 89 95
f 1 95 103
f 1 103 102
f 1 102 99
f 1 99 93
f 1 93 86
f 1 86 77
f 1 77 64
f 1 64 55
f 1 55 43
f 1 43 31
f 10 22 23
f 10 23 14
f 1 9 4
f 11 24 25
f 24 54 59
f 24 59 71
f 24 71 70
f 24 70 69
f 24 69 68
f 24 68 80
f 24 80 79
f 24 79 87
f 24 87 94
f 24 94 101
f 24 101 107
f 24 107 98
f 24 98 96
f 24 96 90
f 24 90 85
f 24 85 75
f 24 75 63
f 24 63 51
f 24 51 48
f 24 48 47
f 24 47 36
f 24 36 35
f 11 18 24
f 24 53 54
f 24 41 53
f 24 34 29
f 21 39 38
f 22 38 40
f 11 26 27
f 11 27 28
f 11 28 12
f 12 28 29
f 12 29 30
f 12 30 13
f 13 30 19
f 15 31 32
f 15 32 16
f 16 32 33
f 11 25 26
f 17 33 18
f 18 33 24
f 19 30 20
f 20 30 34
f 20 34 35
f 20 35 36
f 20 36 37
f 20 37 21
f 21 38 22
f 21 37 39
f 16 33 17

