# https://github.com/mikedh/trimesh
v 0.00001928 -0.62109400 -0.08345520
v -0.01677330 -0.62109400 -0.05032930
v -0.01822610 -0.61723800 -0.08345520
v 0.02237660 -0.60989200 -0.08345520
v 0.06923340 -0.61687200 0.01678920
v 0.06714050 -0.62109400 0.03360820
v -0.05035850 -0.60747100 -0.08345520
v -0.04811790 -0.60825900 -0.08345520
v -0.03794870 -0.61135500 -0.08345520
v -0.01677330 -0.62109400 0.00000956
v 0.02274590 -0.60961000 -0.08345520
v 0.08952240 -0.60989200 0.03360820
v 0.07132630 -0.61267800 0.00839937
v 0.08602600 -0.61687200 0.05038780
v 0.08390840 -0.62109400 0.06716740
v -0.05410120 -0.60521900 -0.08345520
v -0.02797660 -0.61549300 0.00560276
v -0.03915530 -0.60989200 -0.00558365
v 0.00001928 -0.62109400 0.10072700
v 0.03907070 -0.59325600 -0.08345520
v 0.07972260 -0.59590200 -0.00838024
v 0.13404000 -0.58503700 0.06716740
v 0.10629000 -0.60989200 0.06716740
v 0.09511170 -0.61549300 0.06716740
v 0.13404000 -0.60429000 0.13401000
v 0.08390840 -0.62109400 0.15106500
v -0.06153720 -0.59868900 -0.07833470
v -0.06153720 -0.59868900 -0.08345520
v -0.01118400 -0.61549300 0.10632000
v -0.08950850 -0.55953500 0.06157420
v 0.01676260 -0.62109400 0.13428600
v 0.03929230 -0.59294700 -0.08345520
v 0.13404000 -0.54273100 0.01119600
v 0.13404000 -0.57912600 0.05877760
v 0.13404000 -0.58382700 0.06507980
v 0.13404000 -0.59128600 0.08394700
v 0.13404000 -0.60063100 0.11541900
v 0.13404000 -0.60429000 0.18462500
v 0.06714050 -0.62109400 0.16784500
v -0.06806220 -0.59125800 -0.08345520
v 0.02237660 -0.61549300 0.17343800
v 0.00839096 -0.61267800 0.15524100
v -0.00837702 -0.61267800 0.12168100
v -0.04196220 -0.57912600 0.15524100
v -0.06153720 -0.56513700 0.15665900
v -0.05594790 -0.57631100 0.12869300
v -0.08950850 -0.55953500 -0.02236330
v -0.07303590 -0.58408000 -0.08345520
v -0.07274050 -0.55953500 0.12869300
v -0.09512240 -0.54833300 0.07276060
v 0.03355520 -0.62109400 0.16784500
v 0.04473390 -0.58208200 -0.08345520
v 0.13404000 -0.50917900 -0.02236330
v 0.13404000 -0.59868900 0.19589000
v 0.11749400 -0.59379100 0.21818400
v 0.10909700 -0.60009600 0.20979400
v 0.10070100 -0.59311600 0.22381600
v 0.01676260 -0.60009600 0.20353100
v 0.00839096 -0.59590200 0.20561900
v -0.02516960 -0.57912600 0.18883900
v -0.05873020 -0.56232200 0.17206000
v -0.07552280 -0.54554600 0.15524100
v -0.07832980 -0.54833300 0.13987900
v -0.09512240 -0.54833300 -0.01117680
v -0.10071200 -0.53715800 -0.01677000
v -0.07956090 -0.57208900 -0.08345520
v -0.09512240 -0.51478100 0.13987900
v -0.10071200 -0.53715800 0.06716740
v 0.03355520 -0.59311600 0.22381600
v 0.04490630 -0.58160300 -0.08345520
v 0.13404000 -0.45558600 -0.04615410
v 0.13404000 -0.48680200 -0.03358910
v 0.13404000 -0.58759900 0.21818400
v 0.13404000 -0.58208200 0.22921300
v 0.13404000 -0.57631100 0.24059600
v 0.13404000 -0.55953500 0.25737600
v 0.00839096 -0.57912600 0.22239900
v -0.04196220 -0.54554600 0.20561900
v -0.05873020 -0.54554600 0.18883900
v -0.07552280 -0.52874200 0.17206000
v -0.09231540 -0.51196600 0.15524100
v -0.11750400 -0.50357800 0.01678920
v -0.08007800 -0.57071000 -0.08345520
v -0.10071200 -0.50357800 0.13428600
v -0.09650130 -0.50357800 0.15315300
v -0.11750400 -0.48680200 0.05038780
v 0.05034790 -0.55953500 0.25737600
v 0.03355520 -0.57631100 0.24059600
v 0.04672830 -0.57071000 -0.08345520
v 0.13404000 -0.43669900 -0.05032930
v 0.13404000 -0.54273100 0.27415500
v 0.00839096 -0.56232200 0.23917800
v -0.00837702 -0.54554600 0.23917800
v -0.04196220 -0.52874200 0.22239900
v -0.05873020 -0.52874200 0.20561900
v -0.07552280 -0.51196600 0.18883900
v -0.07973330 -0.50357800 0.18671200
v -0.11750400 -0.40289400 0.01678920
v -0.11469700 -0.50079100 0.00280616
v -0.08391910 -0.55393400 -0.08345520
v -0.10071200 -0.48680200 0.15106500
v -0.07973330 -0.47002600 0.20353100
v -0.09650130 -0.47002600 0.16993300
v -0.11750400 -0.47002600 0.06716740
v 0.11749400 -0.54273100 0.27415500
v 0.10909700 -0.52874200 0.28116700
v 0.04195160 -0.54554600 0.26434800
v 0.03355520 -0.55393400 0.25808500
v 0.02515890 -0.56232200 0.24756800
v 0.04219780 -0.47002600 -0.08345520
v 0.13404000 -0.43644600 -0.05032930
v 0.13404000 -0.53172600 0.27967000
v 0.00839096 -0.49519000 0.28116700
v -0.02516960 -0.52874200 0.23917800
v -0.05594790 -0.50357800 0.22381600
v -0.07274050 -0.48680200 0.20699700
v -0.11750400 -0.40289400 0.06716740
v -0.10071200 -0.35253800 0.03360820
v -0.09650130 -0.35042700 0.01678920
v -0.11189000 -0.39729300 0.00560276
v -0.09512240 -0.44764900 -0.04473610
v -0.10071200 -0.45325000 -0.03354970
v -0.08391910 -0.50309900 -0.08345520
v -0.10071200 -0.45325000 0.16784500
v -0.09512240 -0.45325000 0.17903100
v -0.07274050 -0.45325000 0.22381600
v -0.10071200 -0.40289400 0.18462500
v 0.09230470 -0.49519000 0.29794600
v 0.04195160 -0.51196600 0.28116700
v 0.04089280 -0.46481900 -0.08345520
v 0.13404000 -0.33353800 -0.04304240
v 0.13404000 -0.50934800 0.29085600
v 0.05874420 -0.47838600 0.29794600
v 0.04195160 -0.46163800 0.29794600
v 0.02515890 -0.44486200 0.29794600
v 0.00839096 -0.42805800 0.29794600
v -0.00837702 -0.46163800 0.28116700
v -0.01677330 -0.47002600 0.27486400
v -0.01677330 -0.50357800 0.25808500
v -0.02516960 -0.49519000 0.25595800
v -0.03915530 -0.50357800 0.24059600
v -0.05594790 -0.47002600 0.24059600
v -0.10071200 -0.38609000 0.18462500
v -0.10071200 -0.36931400 0.15106500
v -0.10071200 -0.35253800 0.08394700
v -0.09512240 -0.34133500 0.03360820
v -0.09231540 -0.34834400 0.00839937
v -0.09120740 -0.33353800 0.03360820
v -0.09049340 -0.33353800 0.03065400
v -0.09231540 -0.36512000 -0.00838024
v -0.09231540 -0.43225200 -0.04193950
v -0.07973330 -0.48421200 -0.08345520
v -0.09512240 -0.40289400 0.19581100
v -0.05594790 -0.38609000 0.25737600
v -0.08950850 -0.40289400 0.20699700
v 0.13404000 -0.48680200 0.30212100
v 0.10070100 -0.48680200 0.30212100
v 0.06714050 -0.47002600 0.30212100
v 0.03700240 -0.45657100 -0.08345520
v 0.00521465 -0.44590300 -0.08345520
v 0.00001928 -0.44460900 -0.08345520
v 0.06933190 -0.33353800 -0.04304240
v 0.13404000 -0.33353800 0.30936900
v 0.05034790 -0.45325000 0.30212100
v 0.01676260 -0.41967000 0.30212100
v -0.02516960 -0.39450600 0.28116700
v -0.00559467 -0.41967000 0.29093500
v 0.00001928 -0.43644600 0.29164400
v 0.01676260 -0.33573400 0.30212100
v -0.02236260 -0.45325000 0.27415500
v -0.04196220 -0.42805800 0.26434800
v -0.03915530 -0.47002600 0.25737600
v -0.02516960 -0.47838600 0.26434800
v -0.04474460 -0.41967000 0.26296900
v -0.09512240 -0.38609000 0.19581100
v -0.09650130 -0.37770200 0.19301400
v -0.08391910 -0.33353800 0.20140400
v -0.09650130 -0.34412200 0.09233680
v -0.09512240 -0.34133500 0.08394700
v -0.07953630 -0.33353800 0.01241700
v -0.07150930 -0.33353800 0.00438171
v -0.06276830 -0.33353800 -0.00436259
v -0.07552280 -0.34834400 -0.00838024
v -0.09120740 -0.33353800 0.08394700
v -0.07552280 -0.37350800 -0.02515990
v -0.07832980 -0.38051700 -0.02795650
v -0.06306380 -0.45071700 -0.08345520
v -0.03915530 -0.38609000 0.27415500
v -0.05594790 -0.33573400 0.25737600
v -0.08950850 -0.38609000 0.20699700
v 0.13404000 -0.41967000 0.31894000
v 0.10070100 -0.41967000 0.31894000
v -0.05035850 -0.44460900 -0.08345520
v 0.00221069 -0.33353800 -0.03398290
v 0.11968500 -0.33353800 0.31894000
v 0.13404000 -0.33359400 0.31894000
v 0.08390840 -0.40289400 0.31894000
v 0.06714050 -0.36931400 0.31894000
v -0.00559467 -0.33573400 0.29093500
v -0.03915530 -0.36931400 0.27415500
v 0.06714050 -0.33573400 0.31894000
v 0.01649180 -0.33353800 0.30157000
v 0.00679050 -0.33353800 0.29672500
v -0.05602170 -0.33353800 0.25662700
v -0.06190650 -0.33353800 0.24544100
v -0.07274050 -0.33353800 0.22381600
v -0.05873020 -0.33353800 -0.00838024
v -0.05070330 -0.33353800 -0.01239790
v -0.01714270 -0.33353800 -0.02917750
v -0.01667480 -0.33353800 -0.02937450
v -0.05449510 -0.33353800 0.25808500
v 0.00001928 -0.33353800 -0.03354970
v 0.06933190 -0.33353800 0.31894000
v -0.00303392 -0.33353800 0.29168300
v -0.00458514 -0.33353800 0.29077700
v 0.06686960 -0.33353800 0.31838900
f 121 152 123
f 121 123 122
f 121 151 152
f 124 125 153
f 115 126 116
f 125 126 153
f 126 142 154
f 120 151 121
f 126 154 155
f 124 153 127
f 120 150 151
f 117 144 145
f 119 149 147
f 119 148 149
f 119 146 148
f 119 147 120
f 118 179 146
f 118 145 179
f 118 146 119
f 117 143 144
f 115 142 126
f 126 155 153
f 120 147 150
f 127 153 175
f 131 148 184
f 128 156 157
f 131 206 205
f 115 172 142
f 131 177 206
f 131 184 177
f 131 149 148
f 131 180 149
f 131 181 180
f 131 182 181
f 131 207 182
f 131 208 207
f 131 209 208
f 131 210 209
f 131 212 210
f 131 194 212
f 131 162 194
f 131 193 162
f 131 161 193
f 131 160 161
f 131 159 160
f 130 159 131
f 128 132 156
f 128 158 133
f 128 157 158
f 127 175 143
f 115 141 172
f 93 113 114
f 114 140 172
f 99 122 123
f 98 122 99
f 98 121 122
f 98 120 121
f 98 119 120
f 98 118 119
f 98 145 118
f 98 117 145
f 97 126 102
f 97 116 126
f 96 116 97
f 96 115 116
f 95 115 96
f 94 115 95
f 94 141 115
f 94 114 141
f 92 113 93
f 92 108 113
f 92 109 108
f 91 106 105
f 91 112 106
f 89 111 90
f 131 205 204
f 99 123 100
f 114 172 141
f 101 124 104
f 102 124 103
f 114 138 140
f 114 139 138
f 113 139 114
f 113 138 139
f 113 137 138
f 113 136 137
f 113 135 136
f 113 134 135
f 113 133 134
f 113 128 133
f 113 129 128
f 112 132 128
f 110 131 111
f 110 130 131
f 108 129 113
f 107 129 108
f 107 128 129
f 106 128 107
f 106 112 128
f 104 143 117
f 104 127 143
f 104 124 127
f 102 126 125
f 102 125 124
f 131 204 211
f 189 211 204
f 131 215 214
f 176 189 204
f 176 190 189
f 175 190 176
f 171 188 174
f 170 188 171
f 169 203 199
f 169 202 203
f 169 216 202
f 169 201 216
f 167 188 170
f 166 188 167
f 166 200 188
f 166 199 200
f 166 169 199
f 165 201 169
f 165 198 201
f 165 197 198
f 164 197 165
f 163 195 196
f 162 193 194
f 158 197 164
f 158 192 197
f 157 192 158
f 176 204 205
f 156 192 157
f 176 205 206
f 177 184 178
f 201 213 216
f 199 211 200
f 199 215 211
f 199 214 215
f 199 203 214
f 193 212 194
f 193 210 212
f 191 197 192
f 191 198 197
f 191 201 198
f 191 213 201
f 191 195 213
f 191 196 195
f 89 110 111
f 189 200 211
f 187 210 193
f 187 208 209
f 187 207 208
f 185 187 186
f 185 207 187
f 183 207 185
f 182 207 183
f 178 184 179
f 176 206 177
f 131 211 215
f 156 191 192
f 154 189 190
f 138 167 170
f 138 168 167
f 138 173 140
f 138 172 173
f 138 171 172
f 138 170 171
f 136 169 166
f 136 165 169
f 136 138 137
f 136 168 138
f 136 167 168
f 136 166 167
f 135 165 136
f 135 164 165
f 134 164 135
f 134 158 164
f 133 158 134
f 131 195 163
f 131 213 195
f 131 216 213
f 131 202 216
f 131 203 202
f 131 214 203
f 140 173 172
f 154 190 155
f 142 172 171
f 142 174 154
f 154 200 189
f 154 188 200
f 154 174 188
f 153 190 175
f 153 155 190
f 150 152 151
f 150 187 152
f 150 186 187
f 150 185 186
f 150 183 185
f 147 183 150
f 147 182 183
f 147 181 182
f 147 180 181
f 147 149 180
f 146 184 148
f 146 179 184
f 145 178 179
f 145 177 178
f 144 177 145
f 143 177 144
f 143 176 177
f 143 175 176
f 142 171 174
f 88 109 92
f 187 209 210
f 87 108 88
f 22 33 53
f 22 34 33
f 22 35 34
f 21 35 22
f 20 35 21
f 20 34 35
f 20 33 34
f 20 32 33
f 19 31 29
f 18 30 27
f 18 29 30
f 17 29 18
f 16 18 27
f 16 27 28
f 15 38 26
f 15 25 38
f 15 24 25
f 14 24 15
f 14 23 24
f 12 21 22
f 12 23 14
f 12 22 23
f 11 21 12
f 22 53 72
f 11 20 21
f 22 72 71
f 22 90 111
f 27 40 28
f 26 38 39
f 23 25 24
f 23 37 25
f 23 36 37
f 22 36 23
f 22 37 36
f 22 25 37
f 22 38 25
f 22 54 38
f 22 73 54
f 22 74 73
f 22 75 74
f 22 76 75
f 22 91 76
f 22 112 91
f 22 132 112
f 22 156 132
f 22 191 156
f 22 196 191
f 22 163 196
f 22 131 163
f 22 111 131
f 22 71 90
f 27 30 40
f 10 29 17
f 7 18 16
f 1 89 70
f 1 110 89
f 1 130 110
f 1 159 130
f 1 160 159
f 1 161 160
f 1 193 161
f 1 187 193
f 1 152 187
f 1 123 152
f 1 100 123
f 1 83 100
f 1 66 83
f 1 48 66
f 1 40 48
f 1 28 40
f 1 16 28
f 1 7 16
f 1 8 7
f 1 9 8
f 1 3 9
f 1 2 3
f 88 108 109
f 1 70 52
f 10 19 29
f 1 52 32
f 1 20 11
f 7 17 18
f 7 10 17
f 6 14 15
f 5 14 6
f 5 12 14
f 5 13 12
f 4 13 5
f 4 12 13
f 4 11 12
f 2 10 7
f 2 9 3
f 2 8 9
f 2 7 8
f 1 10 2
f 1 19 10
f 1 31 19
f 1 51 31
f 1 39 51
f 1 26 39
f 1 15 26
f 1 6 15
f 1 4 5
f 1 11 4
f 1 32 20
f 29 31 41
f 1 5 6
f 29 42 43
f 76 91 105
f 70 90 71
f 70 89 90
f 69 92 77
f 69 88 92
f 69 87 88
f 68 84 86
f 68 86 82
f 67 85 84
f 67 81 85
f 67 84 68
f 66 82 83
f 65 82 66
f 65 68 82
f 62 67 63
f 62 81 67
f 61 96 80
f 61 79 96
f 61 81 62
f 61 80 81
f 60 79 61
f 60 78 79
f 60 77 78
f 76 105 87
f 59 77 60
f 77 92 93
f 78 93 114
f 29 41 42
f 87 107 108
f 87 106 107
f 87 105 106
f 85 124 101
f 85 103 124
f 85 102 103
f 85 97 102
f 84 104 86
f 84 101 104
f 84 85 101
f 82 100 83
f 82 99 100
f 82 98 99
f 82 117 98
f 82 104 117
f 82 86 104
f 81 96 97
f 80 96 81
f 79 95 96
f 78 95 79
f 78 94 95
f 78 114 94
f 77 93 78
f 59 69 77
f 81 97 85
f 57 87 69
f 41 59 42
f 41 58 59
f 41 51 58
f 39 69 51
f 39 57 69
f 39 56 57
f 38 56 39
f 38 55 56
f 38 54 55
f 32 53 33
f 32 52 53
f 31 51 41
f 30 64 47
f 30 49 50
f 30 45 49
f 30 46 45
f 30 48 40
f 30 47 48
f 29 46 30
f 29 45 46
f 58 69 59
f 29 44 45
f 29 43 44
f 42 59 44
f 42 44 43
f 30 50 64
f 44 60 61
f 55 57 56
f 57 75 76
f 57 76 87
f 44 59 60
f 55 75 57
f 55 74 75
f 55 73 74
f 54 73 55
f 52 71 72
f 52 70 71
f 51 69 58
f 50 65 64
f 50 68 65
f 52 72 53
f 50 63 67
f 49 63 50
f 47 66 48
f 44 61 45
f 47 65 66
f 47 64 65
f 45 63 49
f 45 61 62
f 50 67 68
f 45 62 63

