# https://github.com/mikedh/trimesh
v 0.09187080 0.24914900 0.42672900
v 0.08391540 0.24914900 0.42672900
v 0.09187080 0.24619300 0.42524300
v 0.09187080 0.24914900 -0.14643500
v 0.07507390 0.24914900 0.42227300
v 0.08391540 0.24619300 0.42524300
v 0.09187080 0.15045200 0.33231000
v 0.09187080 0.24393200 -0.14908300
v 0.03356250 0.24914900 -0.23304000
v 0.06449810 0.24914900 0.41568500
v 0.05874840 0.24340000 0.40703100
v 0.05013320 0.15045200 0.31848900
v 0.05874840 0.15947600 0.33147000
v 0.06713740 0.15045200 0.32701400
v 0.09187080 0.15045200 -0.15922300
v 0.09187080 0.23500400 -0.15102100
v 0.03356250 0.21822100 -0.23304000
v -0.05034630 0.24914900 -0.23304000
v 0.09187080 0.15493500 -0.15922300
v 0.05586410 0.24914900 0.40561000
v -0.03916730 0.16787300 0.24060400
v -0.00559241 0.15108000 0.27412200
v -0.00536619 0.15045200 0.27392800
v 0.03582470 0.15045200 -0.16329100
v -0.00001232 0.18465600 -0.23304000
v 0.00130730 0.18531300 -0.23304000
v 0.01118560 0.19025000 -0.23304000
v 0.02236460 0.19584400 -0.23304000
v 0.02302440 0.19715800 -0.23304000
v 0.02862340 0.20833700 -0.23304000
v -0.08339330 0.24914900 -0.13371300
v -0.05034630 0.20142900 -0.23304000
v -0.05594530 0.24914900 0.22381200
v -0.05594530 0.21822100 0.22381200
v -0.06714320 0.21822100 0.20140300
v -0.05034630 0.16787300 0.21819400
v -0.04616120 0.15108000 0.22026000
v -0.04584080 0.15045200 0.22045400
v -0.00579978 0.15045200 0.27341100
v 0.01614360 0.15045200 -0.16329100
v -0.03356830 0.18465600 -0.23304000
v -0.10071800 0.21822100 -0.06712880
v -0.10071800 0.24914900 -0.06712880
v -0.04838570 0.19750600 -0.23304000
v -0.07553220 0.17625900 -0.09231570
v -0.08952010 0.19584400 -0.07268290
v -0.06714320 0.24914900 0.20140300
v -0.06293920 0.20142900 0.20353400
v -0.08392110 0.23500400 0.16782000
v -0.04616120 0.15045200 0.21967900
v -0.06293920 0.16787300 0.18674200
v -0.06714320 0.15108000 0.16782000
v -0.06682270 0.15045200 0.16814300
v 0.00683084 0.15045200 -0.16096600
v -0.03750830 0.18662700 -0.23304000
v -0.00389576 0.15045200 -0.15489600
v -0.05422970 0.15045200 -0.07100370
v -0.07553220 0.15947600 -0.05873320
v -0.08392110 0.16787300 -0.03354620
v -0.10071800 0.20142900 0.03361890
v -0.10071800 0.24914900 0.09807160
v -0.04474740 0.19025000 -0.23304000
v -0.08392110 0.24914900 0.16782000
v -0.07971720 0.21822100 0.16995100
v -0.07971720 0.18465600 0.15316000
v -0.09651410 0.24914900 0.11693000
v -0.10071800 0.21822100 0.08399270
v -0.08392110 0.20142900 0.15102900
v -0.07971720 0.16787300 0.13636900
v -0.08392110 0.16787300 0.11744600
v -0.07832220 0.15667400 0.12306500
v -0.06697350 0.15045200 0.16730300
v -0.07100770 0.15045200 -0.03742120
v -0.07210110 0.15045200 -0.03419210
v -0.07521170 0.15045200 -0.02482770
v -0.10071800 0.20142900 0.06720150
v -0.07521170 0.15045200 0.11686500
f 37 48 51
f 35 49 48
f 36 48 37
f 35 63 49
f 37 50 38
f 37 51 52
f 41 54 56
f 37 53 50
f 40 54 41
f 35 47 63
f 41 56 57
f 41 57 55
f 42 46 58
f 42 58 59
f 37 52 53
f 35 48 36
f 31 32 42
f 33 47 35
f 42 59 60
f 20 33 34
f 20 34 21
f 21 34 35
f 21 35 36
f 21 36 37
f 21 38 22
f 22 38 39
f 22 39 23
f 24 40 41
f 24 41 25
f 31 42 43
f 32 44 45
f 32 45 46
f 32 46 42
f 33 35 34
f 21 37 38
f 59 75 60
f 42 67 61
f 58 73 74
f 58 74 75
f 58 75 59
f 58 62 73
f 60 75 77
f 60 77 76
f 64 68 65
f 65 68 69
f 67 76 68
f 68 76 70
f 68 70 69
f 70 76 71
f 71 76 77
f 71 77 72
f 18 32 31
f 57 73 62
f 55 57 62
f 53 71 72
f 52 71 53
f 42 61 43
f 44 62 45
f 45 58 46
f 45 62 58
f 48 49 64
f 48 64 65
f 48 65 51
f 42 76 67
f 49 63 66
f 49 61 67
f 49 67 68
f 49 68 64
f 51 65 52
f 52 65 69
f 52 69 70
f 52 70 71
f 49 66 61
f 15 30 17
f 42 60 76
f 15 28 29
f 1 10 5
f 1 5 2
f 2 5 6
f 3 6 7
f 4 8 9
f 5 10 6
f 6 10 11
f 6 11 12
f 6 12 13
f 6 13 14
f 6 14 7
f 7 14 12
f 7 12 23
f 7 23 39
f 7 39 38
f 1 20 10
f 7 38 50
f 1 33 20
f 1 63 47
f 15 29 30
f 1 2 6
f 1 6 3
f 1 3 7
f 1 7 15
f 1 15 19
f 1 19 16
f 1 16 8
f 1 8 4
f 1 4 9
f 1 9 18
f 1 18 31
f 1 31 43
f 1 43 61
f 1 61 66
f 1 47 33
f 7 50 53
f 1 66 63
f 7 72 77
f 9 44 32
f 9 32 18
f 9 16 19
f 9 19 15
f 9 15 17
f 10 20 11
f 11 21 22
f 11 22 23
f 11 23 12
f 12 14 13
f 15 24 25
f 15 25 26
f 15 26 27
f 7 53 72
f 15 27 28
f 9 62 44
f 9 55 62
f 11 20 21
f 9 25 41
f 7 75 74
f 9 41 55
f 7 74 73
f 7 73 57
f 7 57 56
f 7 77 75
f 7 54 40
f 7 40 24
f 7 24 15
f 7 56 54
f 8 16 9
f 9 17 30
f 9 30 29
f 9 29 28
f 9 28 27
f 9 27 26
f 9 26 25

