# https://github.com/mikedh/trimesh
v 0.22019700 0.24278000 -0.23304000
v 0.16786300 0.20339100 -0.23304000
v 0.20341400 0.11751800 -0.23304000
v 0.17108200 0.15303000 -0.23304000
v 0.19750800 0.11947500 -0.23304000
v 0.20144100 0.11795100 -0.23304000
v 0.25179500 0.05035900 -0.47001900
v 0.20144100 0.11751800 -0.23500900
v 0.23501000 0.05035900 -0.50358800
v 0.26858000 0.05035900 -0.50358800
v 0.27697100 0.05456680 -0.49516900
v 0.27976300 0.05595940 -0.50358300
v 0.28117000 0.06504920 -0.48678600
v 0.28535700 0.06715700 -0.50358300
v 0.28117000 0.05876350 -0.51196700
v 0.27416800 0.05595940 -0.51477100
v 0.25212500 0.06749580 -0.53783300
v 0.22941300 0.06156760 -0.52595900
v 0.23432700 0.07169250 -0.53783300
v 0.27084600 0.07169250 -0.53783300
v 0.28117000 0.07555050 -0.52876400
v 0.28553000 0.10080600 -0.53783300
v 0.28569200 0.11785700 -0.53783300
v 0.28535700 0.08394400 -0.46998900
v 0.28117000 0.08183620 -0.45322200
v 0.24759200 0.13219700 -0.23500900
v 0.27416800 0.14548400 -0.30216700
v 0.27697100 0.15527000 -0.29378400
v 0.27976300 0.16225200 -0.29097900
v 0.28117000 0.15946700 -0.31055100
v 0.28117000 0.16786000 -0.30425600
v 0.28535700 0.11751800 -0.43642400
v 0.28535700 0.13430500 -0.46998900
v 0.28535700 0.13430500 -0.50358300
v 0.28239300 0.13184000 -0.53783300
v 0.27976300 0.14548400 -0.50916200
v 0.27697100 0.14269800 -0.53783300
v 0.27909400 0.08416980 -0.53783300
v 0.22662200 0.07555050 -0.53783300
v 0.22102700 0.06996110 -0.51757600
v 0.22275800 0.08326650 -0.53783300
v 0.21822400 0.10073100 -0.53783300
v 0.21822400 0.06715700 -0.50358300
v 0.22381900 0.05595940 -0.49797400
v 0.17906400 0.12869700 -0.29097900
v 0.16786300 0.15107300 -0.28537000
v 0.21822400 0.11751800 -0.53783300
v 0.22951700 0.14012000 -0.53783300
v 0.22921700 0.13966800 -0.53783300
v 0.17626100 0.22241800 -0.24342200
v 0.17206200 0.22031000 -0.23500900
v 0.17206200 0.16994900 -0.28537000
v 0.17157800 0.22006500 -0.23304000
v 0.17305400 0.22277500 -0.23304000
v 0.18268600 0.22919300 -0.23304000
v 0.19304400 0.21402400 -0.29378400
v 0.19304400 0.23081100 -0.24342200
v 0.22662200 0.23081100 -0.27698600
v 0.23500800 0.23500800 -0.26860300
v 0.25212500 0.15141200 -0.53783300
v 0.20983900 0.21402400 -0.31055100
v 0.25112200 0.15107300 -0.53783300
v 0.24037100 0.14570900 -0.53783300
v 0.26611700 0.14810000 -0.53783300
v 0.24619600 0.22940000 -0.27418200
v 0.23500800 0.23916700 -0.23304000
v 0.25738500 0.22381000 -0.26299400
v 0.24671500 0.23148900 -0.23304000
v 0.25475500 0.22117600 -0.23304000
v 0.25738500 0.22381000 -0.24622700
v 0.26857400 0.20143400 -0.25180600
v 0.26857400 0.20143400 -0.28537000
v 0.26297900 0.21261300 -0.29097900
v 0.26857400 0.18464700 -0.25180600
v 0.26297900 0.17903900 -0.24061800
v 0.26437500 0.16575200 -0.25180600
v 0.24808800 0.13441800 -0.23304000
v 0.25179100 0.15107300 -0.23304000
v 0.24661200 0.13170800 -0.23304000
v 0.24339300 0.12171500 -0.24342200
v 0.23566500 0.12438700 -0.23304000
v 0.23435000 0.12372800 -0.23304000
v 0.21822400 0.11751800 -0.23304000
v 0.22662200 0.10492800 -0.27698600
v 0.25919600 0.18660400 -0.23304000
v 0.25919600 0.20339100 -0.23304000
v 0.26018800 0.05456680 -0.46160500
v 0.27416800 0.06156760 -0.46998900
v 0.16786300 0.16786000 -0.23304000
v 0.16983600 0.15801700 -0.23304000
v 0.17346900 0.13989400 -0.27979100
v 0.17947900 0.13626200 -0.23304000
v 0.18261600 0.13112400 -0.23304000
v 0.18185500 0.13150100 -0.23781300
v 0.19304400 0.10912400 -0.29796000
v 0.19025200 0.12310700 -0.23304000
v 0.18661900 0.12673900 -0.23304000
f 76 75 77
f 76 77 29
f 77 75 78
f 77 78 79
f 76 29 75
f 77 79 26
f 77 26 29
f 28 29 26
f 28 26 27
f 82 83 80
f 81 80 79
f 81 82 80
f 81 79 82
f 82 79 83
f 83 84 80
f 83 3 84
f 83 79 3
f 75 29 74
f 79 78 3
f 78 85 3
f 79 80 26
f 74 29 71
f 66 67 65
f 72 71 31
f 63 48 56
f 75 85 78
f 63 60 48
f 60 37 48
f 64 37 60
f 64 65 37
f 64 59 65
f 64 60 59
f 66 65 59
f 31 71 29
f 66 68 67
f 66 59 1
f 68 1 69
f 68 69 70
f 68 70 67
f 67 70 71
f 72 67 71
f 72 73 67
f 72 34 73
f 72 31 34
f 66 1 68
f 75 74 85
f 92 93 4
f 86 85 71
f 90 46 4
f 90 89 46
f 91 4 46
f 92 4 91
f 94 93 92
f 94 95 93
f 94 45 95
f 94 91 45
f 94 92 91
f 90 4 89
f 91 46 45
f 5 95 44
f 97 95 96
f 97 93 95
f 97 96 93
f 96 5 93
f 93 5 4
f 9 5 44
f 9 44 18
f 62 63 56
f 45 44 95
f 74 71 85
f 89 4 2
f 54 50 51
f 86 69 85
f 86 71 69
f 69 71 70
f 69 1 85
f 85 1 3
f 7 84 3
f 87 84 7
f 87 80 84
f 88 80 87
f 89 2 46
f 88 26 80
f 88 11 13
f 88 87 11
f 87 7 11
f 36 73 34
f 36 37 73
f 67 73 37
f 67 37 65
f 48 37 39
f 56 48 50
f 88 13 26
f 62 60 63
f 96 95 5
f 61 62 56
f 15 20 21
f 15 21 22
f 14 15 22
f 14 22 23
f 14 23 24
f 14 24 13
f 25 13 24
f 25 26 13
f 25 27 26
f 15 16 20
f 25 28 27
f 25 24 29
f 30 29 24
f 30 31 29
f 30 32 31
f 30 24 32
f 32 24 23
f 32 23 33
f 32 33 31
f 33 34 31
f 25 29 28
f 33 23 34
f 17 20 16
f 17 18 19
f 61 60 62
f 4 3 2
f 5 3 4
f 6 3 5
f 6 7 3
f 6 8 7
f 6 5 8
f 8 5 7
f 9 7 5
f 17 19 20
f 10 7 9
f 12 11 10
f 12 13 11
f 12 14 13
f 12 15 14
f 12 10 15
f 10 16 15
f 10 17 16
f 10 9 17
f 17 9 18
f 10 11 7
f 35 34 23
f 2 3 1
f 35 37 36
f 49 47 51
f 52 51 47
f 52 46 51
f 52 47 46
f 51 46 2
f 53 51 2
f 53 54 51
f 35 36 34
f 54 2 1
f 49 51 50
f 55 54 1
f 55 56 50
f 57 56 55
f 57 58 56
f 57 1 58
f 57 55 1
f 58 1 59
f 58 59 60
f 61 58 60
f 61 56 58
f 55 50 54
f 49 50 48
f 53 2 54
f 47 48 39
f 35 23 37
f 49 48 47
f 22 20 37
f 38 20 22
f 38 21 20
f 38 22 21
f 20 39 37
f 19 39 20
f 19 18 39
f 40 39 18
f 23 22 37
f 40 42 41
f 40 41 39
f 41 42 39
f 42 46 47
f 43 46 42
f 43 45 46
f 42 47 39
f 43 18 44
f 40 18 43
f 40 43 42
f 43 44 45

