# https://github.com/mikedh/trimesh
v 0.28535900 -0.62109400 -0.50361000
v 0.29096100 -0.61548700 -0.51479700
v 0.29795400 -0.61270000 -0.51198900
v 0.30774200 -0.60989600 -0.50361000
v 0.29375600 -0.61689700 -0.49520800
v 0.27697400 -0.60010700 -0.41128000
v 0.26859000 -0.60430500 -0.43646300
v 0.26859000 -0.61689700 -0.50150400
v 0.26019300 -0.61270000 -0.51198900
v 0.26298800 -0.60989600 -0.52596100
v 0.26859000 -0.58751500 -0.60429500
v 0.27418000 -0.58192400 -0.61548300
v 0.30774200 -0.56513400 -0.63226400
v 0.31473600 -0.56233100 -0.62947800
v 0.31473600 -0.59591000 -0.51198900
v 0.31334400 -0.59869800 -0.50361000
v 0.31334400 -0.59869800 -0.47002500
v 0.31053700 -0.60010700 -0.46164600
v 0.30215200 -0.61060100 -0.48680600
v 0.29375600 -0.60010700 -0.42806100
v 0.28535900 -0.59381100 -0.40287800
v 0.28535900 -0.59227300 -0.39878200
v 0.26859000 -0.59033500 -0.39878200
v 0.26019300 -0.59591000 -0.41546900
v 0.26859000 -0.60010700 -0.41757600
v 0.25739800 -0.59869800 -0.43086900
v 0.26019300 -0.61270000 -0.49939700
v 0.24900200 -0.60709200 -0.52315300
v 0.25179700 -0.60850200 -0.50569300
v 0.24900200 -0.57352900 -0.62388500
v 0.26298800 -0.57631700 -0.62667000
v 0.30215200 -0.55393600 -0.63788100
v 0.32103900 -0.53717800 -0.63366800
v 0.33152800 -0.52878300 -0.62947800
v 0.31893400 -0.58751500 -0.50361000
v 0.31893400 -0.58751500 -0.47002500
v 0.31334400 -0.59310600 -0.45883700
v 0.29655100 -0.58192400 -0.39878200
v 0.29375600 -0.59171200 -0.41128000
v 0.28808500 -0.59091100 -0.39878200
v 0.25729500 -0.58234000 -0.39878200
v 0.24897900 -0.57072600 -0.39878200
v 0.24348100 -0.56247500 -0.39878200
v 0.24341200 -0.57912000 -0.43225000
v 0.24341200 -0.59591000 -0.46583500
v 0.24060500 -0.59869800 -0.48121200
v 0.24060500 -0.59869800 -0.51479700
v 0.22941400 -0.55954300 -0.60988900
v 0.24620700 -0.57631700 -0.60988900
v 0.23222000 -0.55673900 -0.62388500
v 0.22661900 -0.54554100 -0.62947800
v 0.24341200 -0.56233100 -0.62947800
v 0.25179700 -0.55393600 -0.63788100
v 0.31893400 -0.52038900 -0.63788100
v 0.33012500 -0.52038900 -0.63226400
v 0.33572700 -0.52038900 -0.62107600
v 0.31893400 -0.55393600 -0.45324400
v 0.31473600 -0.55603500 -0.43646300
v 0.30215200 -0.57072600 -0.39878200
v 0.24319300 -0.56191400 -0.39878200
v 0.24060500 -0.56513400 -0.41406500
v 0.24060500 -0.58192400 -0.44765000
v 0.23501500 -0.58751500 -0.48680600
v 0.23501500 -0.58751500 -0.52036700
v 0.21823400 -0.53717800 -0.60429500
v 0.22102900 -0.53437500 -0.61829100
v 0.21823400 -0.52038900 -0.62107600
v 0.22382400 -0.51478100 -0.63226400
v 0.23501500 -0.52038900 -0.63788100
v 0.28535900 -0.48680900 -0.63788100
v 0.32733000 -0.51199400 -0.63366800
v 0.33012500 -0.50919000 -0.62667000
v 0.31053700 -0.47841500 -0.59589300
v 0.29655100 -0.50919000 -0.39878200
v 0.30010500 -0.51628700 -0.39878200
v 0.30215200 -0.52038900 -0.39878200
v 0.31893400 -0.53717800 -0.47002500
v 0.23935100 -0.55339100 -0.39878200
v 0.23501500 -0.55393600 -0.41965900
v 0.23863800 -0.55166100 -0.39878200
v 0.23501500 -0.53717800 -0.39878200
v 0.22242100 -0.51199400 -0.61269800
v 0.22382400 -0.50919000 -0.62107600
v 0.23603900 -0.53256400 -0.39878200
v 0.22661900 -0.50779600 -0.62947800
v 0.24060500 -0.48121800 -0.63226400
v 0.25179700 -0.48680900 -0.63788100
v 0.28535900 -0.46442900 -0.62667000
v 0.29375600 -0.47841500 -0.63366800
v 0.30215200 -0.47002000 -0.62107600
v 0.31053700 -0.47841500 -0.61688700
v 0.30215200 -0.47002000 -0.60429500
v 0.28535900 -0.50359900 -0.39878200
v 0.29375600 -0.46162500 -0.61269800
v 0.23921300 -0.47841500 -0.59589300
v 0.24060500 -0.47562700 -0.60429500
v 0.22941400 -0.49800800 -0.62107600
v 0.24027200 -0.52410500 -0.39878200
v 0.24060500 -0.47562700 -0.62107600
v 0.24341200 -0.47421700 -0.62947800
v 0.25179700 -0.47562700 -0.63226400
v 0.26859000 -0.46372400 -0.62107600
v 0.27697400 -0.45742800 -0.61269800
v 0.28535900 -0.45883700 -0.61548300
v 0.29375600 -0.46162500 -0.61688700
v 0.25589100 -0.51101700 -0.39878200
v 0.24197400 -0.52120600 -0.39878200
v 0.24771300 -0.51511800 -0.39878200
v 0.25179700 -0.47002000 -0.60429500
v 0.25179700 -0.51306700 -0.39878200
v 0.25179700 -0.47002000 -0.62107600
f 57 76 58
f 56 76 77
f 57 77 76
f 56 77 57
f 56 75 76
f 67 81 84
f 56 73 74
f 56 72 73
f 58 76 59
f 56 71 72
f 56 74 75
f 60 78 61
f 67 83 68
f 61 63 62
f 61 78 80
f 61 80 79
f 63 79 65
f 63 65 64
f 65 67 66
f 65 79 81
f 65 81 67
f 67 82 83
f 55 71 56
f 61 79 63
f 54 71 55
f 36 58 59
f 54 70 89
f 67 84 82
f 36 57 58
f 36 59 37
f 36 56 57
f 37 59 38
f 38 40 39
f 43 60 61
f 43 61 44
f 44 61 62
f 44 62 45
f 45 62 46
f 54 89 71
f 46 63 64
f 46 62 63
f 47 64 48
f 48 65 51
f 48 51 50
f 48 64 65
f 51 65 66
f 51 66 67
f 51 67 68
f 51 68 69
f 51 69 53
f 51 53 52
f 46 64 47
f 68 85 86
f 100 111 103
f 68 87 69
f 88 103 104
f 88 104 105
f 88 105 90
f 88 90 89
f 90 105 94
f 90 94 92
f 93 103 106
f 93 94 104
f 93 104 103
f 94 105 104
f 95 98 107
f 95 107 108
f 95 108 96
f 96 109 100
f 96 100 99
f 96 99 97
f 96 108 110
f 96 110 109
f 100 109 111
f 35 56 36
f 100 103 102
f 103 109 106
f 106 109 110
f 88 102 103
f 88 100 102
f 88 101 100
f 87 101 88
f 68 83 85
f 70 87 88
f 70 88 89
f 71 89 90
f 71 90 72
f 72 90 91
f 72 91 73
f 73 91 90
f 73 90 92
f 73 92 74
f 74 92 94
f 68 86 87
f 74 94 93
f 82 95 96
f 82 96 97
f 82 97 83
f 82 84 95
f 83 97 85
f 84 98 95
f 85 97 99
f 85 99 86
f 86 99 100
f 86 100 87
f 87 100 101
f 79 80 81
f 34 56 35
f 103 111 109
f 33 55 34
f 6 24 25
f 7 25 26
f 7 26 8
f 8 27 29
f 8 29 9
f 8 26 27
f 9 28 10
f 9 29 28
f 10 28 11
f 11 30 31
f 11 31 12
f 11 28 30
f 12 31 13
f 13 31 32
f 13 32 33
f 13 33 14
f 14 33 34
f 14 34 15
f 15 35 16
f 15 34 35
f 16 35 36
f 16 36 17
f 17 36 37
f 6 23 24
f 6 22 23
f 6 21 22
f 6 20 21
f 34 55 56
f 1 2 3
f 1 3 4
f 1 4 5
f 1 5 6
f 1 6 7
f 1 7 8
f 1 8 9
f 1 9 10
f 1 10 11
f 1 11 12
f 17 37 18
f 1 12 2
f 2 13 3
f 3 13 14
f 3 14 4
f 4 15 16
f 4 16 17
f 4 17 18
f 4 18 19
f 4 19 5
f 4 14 15
f 5 19 20
f 5 20 6
f 2 12 13
f 18 37 38
f 6 25 7
f 18 39 20
f 24 43 44
f 24 44 45
f 24 45 46
f 24 46 26
f 26 46 27
f 27 46 29
f 28 29 46
f 28 46 47
f 28 47 48
f 28 48 49
f 28 49 30
f 24 42 43
f 30 50 51
f 30 52 53
f 30 53 31
f 30 49 48
f 30 48 50
f 31 53 32
f 32 53 69
f 32 69 87
f 32 87 70
f 18 38 39
f 32 54 33
f 33 54 55
f 30 51 52
f 24 41 42
f 32 70 54
f 23 41 24
f 24 26 25
f 18 20 19
f 20 39 40
f 20 22 21
f 22 40 38
f 22 38 59
f 22 59 76
f 22 76 75
f 22 75 74
f 22 74 93
f 22 93 106
f 22 106 110
f 20 40 22
f 22 108 107
f 22 107 98
f 22 98 84
f 22 84 81
f 22 81 80
f 22 80 78
f 22 78 60
f 22 60 43
f 22 43 42
f 22 41 23
f 22 42 41
f 22 110 108

