# https://github.com/mikedh/trimesh
v 0.23502200 -0.60430800 0.10072700
v 0.13404000 -0.59129400 0.08394700
v 0.13404000 -0.58503900 0.06716740
v 0.27060700 -0.51628700 -0.08345520
v 0.26857500 -0.58750400 0.06716740
v 0.28536300 -0.58750400 0.10072700
v 0.23502200 -0.60430800 0.15106500
v 0.16787200 -0.60430800 0.11750600
v 0.13404000 -0.60062400 0.11541900
v 0.13404000 -0.58384700 0.06507980
v 0.25595800 -0.51512000 -0.08345520
v 0.27114200 -0.51615400 -0.08345520
v 0.29094500 -0.54833100 -0.01117680
v 0.27415700 -0.58191200 0.05598100
v 0.28745900 -0.58331600 0.08394700
v 0.29654700 -0.58191200 0.10072700
v 0.29374600 -0.58331600 0.12589600
v 0.28536300 -0.58750400 0.11750600
v 0.24338300 -0.60009400 0.15945500
v 0.22661700 -0.60009400 0.17623500
v 0.20144700 -0.60430800 0.18462500
v 0.13404000 -0.60430800 0.13401000
v 0.13404000 -0.57910200 0.05877760
v 0.22148500 -0.50030400 -0.08345520
v 0.13404000 -0.54273800 0.01119600
v 0.31331400 -0.48135400 -0.08345520
v 0.28955400 -0.51196600 -0.07553810
v 0.29793800 -0.54554800 -0.00838024
v 0.30634200 -0.51196600 -0.05871910
v 0.28326700 -0.57491500 0.05038780
v 0.28115000 -0.57910200 0.05877760
v 0.29793800 -0.57910200 0.09233680
v 0.29094500 -0.57631900 0.06716740
v 0.34130700 -0.50918300 0.06716740
v 0.29654700 -0.58191200 0.11750600
v 0.29094500 -0.57631900 0.16784500
v 0.27695800 -0.58331600 0.17623500
v 0.20983000 -0.60009400 0.19301400
v 0.19306400 -0.58331600 0.22661300
v 0.13404000 -0.58209700 0.22921300
v 0.13404000 -0.58761000 0.21818400
v 0.13404000 -0.60430800 0.18462500
v 0.21143400 -0.49359900 -0.08345520
v 0.13404000 -0.50918300 -0.02236330
v 0.31367700 -0.48087700 -0.08345520
v 0.31472500 -0.51196600 -0.04193950
v 0.34201300 -0.50356400 0.05038780
v 0.34830000 -0.49518900 0.05877760
v 0.35251300 -0.48678700 0.06716740
v 0.34130700 -0.50918300 0.13428600
v 0.32452000 -0.52596100 0.18462500
v 0.29094500 -0.55954200 0.20140400
v 0.27695800 -0.55813700 0.22661300
v 0.26857500 -0.57700800 0.20140400
v 0.24338300 -0.58331600 0.20979400
v 0.21823400 -0.59381200 0.20140400
v 0.20144700 -0.57700800 0.23500300
v 0.18465900 -0.57631900 0.24059600
v 0.13404000 -0.57631900 0.24059600
v 0.13404000 -0.48678700 -0.03358910
v 0.13404000 -0.45559100 -0.04615410
v 0.13404000 -0.43672000 -0.05032930
v 0.20959500 -0.48631000 -0.08345520
v 0.31910900 -0.47001000 -0.08345520
v 0.32522500 -0.48678700 -0.05032930
v 0.32522500 -0.50356400 -0.01677000
v 0.34201300 -0.48678700 0.01678920
v 0.34830000 -0.47838500 0.02521840
v 0.35251300 -0.47001000 0.03360820
v 0.35251300 -0.48678700 0.13428600
v 0.33012300 -0.51477600 0.18462500
v 0.33151300 -0.50568500 0.20140400
v 0.32732100 -0.50777900 0.20979400
v 0.29374600 -0.54133300 0.22661300
v 0.26017100 -0.56651300 0.22661300
v 0.25178800 -0.57700800 0.21818400
v 0.27695800 -0.50777900 0.26017200
v 0.26017100 -0.52455600 0.26017200
v 0.23502200 -0.54273800 0.25737600
v 0.20144700 -0.55954200 0.25737600
v 0.13404000 -0.55954200 0.25737600
v 0.13404000 -0.43645500 -0.05032930
v 0.20959500 -0.46953300 -0.08345520
v 0.33147000 -0.42171900 -0.08345520
v 0.33151300 -0.46163400 -0.05871910
v 0.33151300 -0.47838500 -0.04193950
v 0.35251300 -0.45323200 0.01678920
v 0.33572500 -0.47001000 -0.03354970
v 0.35251300 -0.47001000 0.16784500
v 0.33572500 -0.50356400 0.18462500
v 0.34830000 -0.47210400 0.18462500
v 0.33151300 -0.48888100 0.21818400
v 0.32732100 -0.49097500 0.22661300
v 0.29374600 -0.49097500 0.26017200
v 0.26017100 -0.45744700 0.29373200
v 0.24338300 -0.50777900 0.27695200
v 0.21823400 -0.52596100 0.27415500
v 0.15108400 -0.54273800 0.27415500
v 0.13404000 -0.54273800 0.27415500
v 0.13404000 -0.33356500 -0.04304240
v 0.21823400 -0.38561900 -0.08345520
v 0.33151300 -0.42116200 -0.08345520
v 0.33572500 -0.45323200 -0.05032930
v 0.35251300 -0.38609700 0.00000956
v 0.35251300 -0.45323200 0.18462500
v 0.33012300 -0.47560200 0.22941000
v 0.31053400 -0.45744700 0.26017200
v 0.26297200 -0.44204800 0.29652800
v 0.25178800 -0.45535300 0.29794600
v 0.23502200 -0.50568500 0.28116700
v 0.29374600 -0.44064300 0.27695200
v 0.29654700 -0.42527000 0.27974900
v 0.21823400 -0.51477600 0.27974900
v 0.13404000 -0.53171200 0.27967000
v 0.15108400 -0.50918300 0.29093500
v 0.23209200 -0.33356500 -0.07368680
v 0.22967500 -0.35095200 -0.08345520
v 0.22255400 -0.36547600 -0.08345520
v 0.13404000 -0.33356500 0.30936900
v 0.33052900 -0.40679700 -0.08345520
v 0.35251300 -0.36931900 0.00000956
v 0.35251300 -0.40287400 0.20140400
v 0.34691000 -0.40849300 0.21259100
v 0.33012300 -0.40849300 0.24618900
v 0.31333500 -0.44204800 0.26296900
v 0.32452000 -0.46444400 0.24059600
v 0.27976000 -0.39168900 0.29652800
v 0.25178800 -0.43645500 0.30212100
v 0.23502200 -0.45323200 0.30212100
v 0.20144700 -0.47001000 0.30212100
v 0.21823400 -0.47210400 0.29794600
v 0.21823400 -0.50356400 0.28534200
v 0.30773200 -0.41408500 0.27415500
v 0.15108400 -0.48678700 0.30212100
v 0.13404000 -0.49815800 0.29644900
v 0.23502200 -0.33356500 -0.07443520
v 0.23502200 -0.34827500 -0.08345520
v 0.13404000 -0.33359100 0.31894000
v 0.13429700 -0.33356500 0.31894000
v 0.31878800 -0.36876300 -0.08345520
v 0.34830000 -0.35251500 -0.00207805
v 0.35251300 -0.35251500 0.01678920
v 0.35251300 -0.38609700 0.20140400
v 0.33572500 -0.40287400 0.23500300
v 0.32452000 -0.39728100 0.25737600
v 0.29094500 -0.38050400 0.29093500
v 0.26857500 -0.38609700 0.30212100
v 0.21823400 -0.36931900 0.31894000
v 0.20144700 -0.40287400 0.31894000
v 0.18465900 -0.41967800 0.31894000
v 0.13404000 -0.48678700 0.30212100
v 0.13404000 -0.48694600 0.30204300
v 0.26857500 -0.33356500 -0.07951640
v 0.26857500 -0.33550000 -0.08345520
v 0.25035500 -0.34196700 -0.08345520
v 0.13404000 -0.41967800 0.31894000
v 0.21823400 -0.33356500 0.31894000
v 0.31376300 -0.35643800 -0.08345520
v 0.33516900 -0.33356500 -0.01704580
v 0.34830000 -0.33573800 0.01470160
v 0.35251300 -0.33356500 0.03577460
v 0.33572500 -0.33573800 0.23500300
v 0.35251300 -0.35251500 0.16784500
v 0.32452000 -0.33356500 0.25737600
v 0.29094500 -0.34692300 0.29093500
v 0.26857500 -0.35251500 0.30212100
v 0.27514100 -0.33356500 -0.07951640
v 0.26928100 -0.33550000 -0.08345520
v 0.27075700 -0.33356500 0.29684300
v 0.29999100 -0.34724100 -0.08345520
v 0.30433200 -0.33356500 -0.06383960
v 0.31053400 -0.34414000 -0.07132350
v 0.31363400 -0.33356500 -0.05296830
v 0.32524700 -0.33356500 -0.03658260
v 0.33029400 -0.33356500 -0.02677480
v 0.34830000 -0.33356500 0.01690730
v 0.35251300 -0.33356500 0.06716740
v 0.35251300 -0.33573800 0.15106500
v 0.33527600 -0.33356500 0.23457000
v 0.32623000 -0.33356500 0.25394900
v 0.30773200 -0.33356500 0.27415500
v 0.28827100 -0.33356500 0.28825700
v 0.28536300 -0.33356500 -0.07735000
v 0.26979400 -0.33557900 -0.08345520
v 0.28765100 -0.33936900 -0.08345520
v 0.28692400 -0.33894500 -0.08345520
v 0.28536300 -0.33804400 -0.08345520
v 0.35140100 -0.33356500 0.14996300
f 100 164 180
f 100 179 188
f 100 181 164
f 100 182 181
f 100 169 182
f 100 157 169
f 100 139 157
f 100 180 179
f 100 119 139
f 97 115 98
f 100 117 118
f 100 116 117
f 98 135 114
f 98 115 135
f 98 114 99
f 97 113 115
f 100 188 177
f 97 110 113
f 100 118 101
f 100 177 161
f 106 125 126
f 100 176 159
f 96 110 97
f 107 112 111
f 107 125 112
f 107 126 125
f 106 126 107
f 106 124 125
f 106 123 124
f 106 122 123
f 105 122 106
f 100 161 176
f 102 121 104
f 100 136 116
f 100 153 136
f 100 167 153
f 100 183 167
f 100 171 183
f 100 173 171
f 100 174 173
f 100 175 174
f 100 159 175
f 102 120 121
f 95 112 108
f 72 90 89
f 95 107 111
f 78 96 97
f 77 96 78
f 77 95 96
f 77 94 95
f 74 93 94
f 73 93 74
f 72 93 73
f 72 92 93
f 72 91 92
f 72 89 91
f 108 127 147
f 71 90 72
f 70 90 71
f 70 89 90
f 69 88 87
f 68 88 69
f 68 86 88
f 67 86 68
f 65 85 86
f 78 97 79
f 79 97 80
f 80 97 98
f 80 98 99
f 95 110 96
f 95 109 110
f 95 108 109
f 94 107 95
f 93 107 94
f 93 106 107
f 92 106 93
f 91 106 92
f 91 105 106
f 95 111 112
f 89 105 91
f 87 88 103
f 85 88 86
f 85 103 88
f 84 103 85
f 84 87 103
f 84 102 87
f 82 101 83
f 82 100 101
f 80 99 81
f 87 102 104
f 108 147 128
f 129 150 130
f 108 112 127
f 158 171 172
f 158 170 171
f 157 166 169
f 153 168 154
f 153 167 168
f 147 157 148
f 147 166 157
f 143 163 162
f 142 160 161
f 141 160 142
f 141 159 160
f 140 159 141
f 140 158 159
f 138 157 139
f 138 148 157
f 138 149 148
f 138 150 149
f 138 156 150
f 136 155 137
f 158 172 173
f 158 173 174
f 158 174 175
f 158 175 159
f 65 67 66
f 183 187 184
f 178 188 179
f 177 188 178
f 171 173 172
f 171 187 183
f 171 186 187
f 171 185 186
f 170 185 171
f 136 154 155
f 168 183 184
f 165 182 169
f 165 181 182
f 165 169 166
f 162 180 164
f 162 179 180
f 162 178 179
f 162 163 178
f 160 176 161
f 159 176 160
f 167 183 168
f 108 128 109
f 136 153 154
f 134 150 156
f 121 141 142
f 120 141 121
f 120 140 141
f 119 138 139
f 116 137 117
f 116 136 137
f 115 134 135
f 113 134 115
f 113 132 134
f 112 146 127
f 112 133 146
f 112 125 133
f 110 130 132
f 110 131 130
f 110 132 113
f 109 131 110
f 109 130 131
f 109 129 130
f 109 128 129
f 122 143 162
f 122 162 144
f 122 144 124
f 122 124 123
f 134 152 135
f 134 151 152
f 133 165 146
f 133 181 165
f 133 164 181
f 133 145 164
f 130 134 132
f 130 150 134
f 128 150 129
f 134 156 151
f 128 149 150
f 128 147 148
f 127 166 147
f 127 165 166
f 127 146 165
f 125 145 133
f 124 164 145
f 124 162 164
f 124 144 162
f 124 145 125
f 128 148 149
f 65 86 67
f 75 80 76
f 64 84 85
f 5 14 15
f 4 14 5
f 4 13 14
f 4 12 13
f 4 26 12
f 4 45 26
f 4 64 45
f 4 84 64
f 4 102 84
f 4 120 102
f 4 140 120
f 4 158 140
f 4 170 158
f 4 185 170
f 4 186 185
f 4 187 186
f 4 184 187
f 4 168 184
f 4 154 168
f 5 15 6
f 6 16 17
f 6 17 18
f 6 15 16
f 15 33 32
f 15 31 33
f 15 32 16
f 14 31 15
f 14 30 31
f 14 28 30
f 13 29 28
f 13 27 29
f 13 28 14
f 4 155 154
f 12 27 13
f 11 25 24
f 11 23 25
f 10 23 11
f 8 22 9
f 7 38 21
f 7 20 38
f 7 19 20
f 7 17 19
f 7 18 17
f 12 26 27
f 16 32 34
f 4 137 155
f 4 118 117
f 2 81 99
f 2 59 81
f 2 40 59
f 2 41 40
f 2 42 41
f 2 22 42
f 2 9 22
f 2 8 9
f 1 8 2
f 1 22 8
f 1 42 22
f 1 21 42
f 1 7 21
f 1 18 7
f 1 6 18
f 1 5 6
f 1 4 5
f 1 3 4
f 1 2 3
f 2 99 114
f 2 114 135
f 2 135 152
f 2 152 151
f 4 101 118
f 4 83 101
f 4 63 83
f 4 24 43
f 4 11 24
f 3 11 4
f 3 10 11
f 2 10 3
f 2 23 10
f 4 117 137
f 2 25 23
f 2 60 44
f 2 61 60
f 2 62 61
f 2 82 62
f 2 100 82
f 2 119 100
f 2 138 119
f 2 156 138
f 2 151 156
f 2 44 25
f 16 34 50
f 4 43 63
f 16 35 17
f 49 89 70
f 49 105 89
f 49 122 105
f 49 143 122
f 49 163 143
f 49 178 163
f 49 177 178
f 49 161 177
f 49 142 161
f 49 121 142
f 49 104 121
f 49 87 104
f 49 69 87
f 48 69 49
f 48 68 69
f 48 67 68
f 47 67 48
f 47 66 67
f 46 66 47
f 50 70 71
f 50 71 51
f 51 71 72
f 51 73 52
f 16 50 35
f 62 83 63
f 62 82 83
f 58 81 59
f 58 80 81
f 57 80 58
f 57 76 80
f 56 76 57
f 55 76 56
f 46 65 66
f 53 80 75
f 53 78 79
f 53 77 78
f 53 94 77
f 53 74 94
f 53 76 54
f 53 75 76
f 64 85 65
f 52 74 53
f 52 73 74
f 53 79 80
f 45 65 46
f 51 72 73
f 43 44 60
f 30 33 31
f 29 45 46
f 28 46 32
f 28 29 46
f 28 33 30
f 28 32 33
f 26 29 27
f 26 45 29
f 24 25 44
f 32 47 34
f 21 41 42
f 21 39 40
f 21 38 39
f 20 55 38
f 20 37 55
f 19 37 20
f 17 37 19
f 17 36 37
f 45 64 65
f 17 35 36
f 21 40 41
f 32 46 47
f 24 44 43
f 39 56 57
f 34 47 48
f 43 60 61
f 43 62 63
f 40 58 59
f 39 58 40
f 39 57 58
f 38 56 39
f 38 55 56
f 43 61 62
f 37 54 76
f 37 76 55
f 37 53 54
f 36 53 37
f 36 52 53
f 36 51 52
f 35 51 36
f 35 50 51
f 34 70 50
f 34 49 70
f 34 48 49

