# https://github.com/mikedh/trimesh
v 0.52055100 0.17950600 0.53845200
v 0.51596500 0.18847200 0.76282100
v 0.51596500 0.17052800 0.79870700
v 0.52055100 0.15425400 0.53845200
v 0.52055100 0.19745000 -0.44873700
v 0.51453900 0.19146500 0.78367300
v 0.51453900 0.17352100 0.80161600
v 0.49354500 0.17501700 0.81665000
v 0.51148100 0.16603900 0.79870700
v 0.48457700 0.16155600 0.78965400
v 0.51453900 0.15425400 0.55041400
v 0.52055100 0.15425400 -0.78965400
v 0.52055100 0.19745000 -0.78965400
v 0.51453900 0.20941500 -0.45471800
v 0.50251300 0.19745000 0.78965400
v 0.49955800 0.19445800 0.80468800
v 0.51148100 0.18847200 0.79870700
v 0.50251300 0.18174500 0.81212400
v 0.48457700 0.17726200 0.82117600
v 0.47560900 0.16603900 0.81665000
v 0.46664100 0.16155600 0.80759700
v 0.50251300 0.15425400 0.55865800
v 0.51810600 0.15425400 -0.79466600
v 0.50852600 0.19745000 -0.81357800
v 0.51148100 0.20642200 -0.80323300
v 0.51453900 0.20941500 -0.79563500
v 0.50251300 0.21540100 -0.44873700
v 0.35892400 0.21540100 0.28708800
v 0.48457700 0.19745000 0.80759700
v 0.48457700 0.21540100 -0.19737300
v 0.47866700 0.19146500 0.81955900
v 0.49354500 0.18847200 0.81665000
v 0.46664100 0.17950600 0.82570200
v 0.46664100 0.16753500 0.81955900
v -0.48457700 0.16753500 0.81955900
v -0.48457700 0.16155600 0.80759700
v 0.48457700 0.15425400 0.56173000
v 0.51209300 0.15425400 -0.80662800
v 0.50852600 0.15425400 -0.81357800
v 0.50363400 0.15425400 -0.81616500
v 0.49354500 0.20642200 -0.82117600
v 0.50251300 0.21091200 -0.80986100
v 0.50251300 0.21540100 -0.78965400
v 0.28718000 0.21540100 0.34091700
v 0.25120600 0.21540100 0.35886000
v 0.17946200 0.21540100 0.37680300
v -0.48457700 0.19745000 0.80759700
v -0.49059000 0.19146500 0.81955900
v -0.49354500 0.17052800 0.82117600
v -0.48457700 0.17950600 0.82570200
v -0.49660300 0.16753500 0.81357800
v -0.51474300 0.15425400 0.49529200
v -0.49986400 0.15425400 0.55041400
v -0.49741800 0.15425400 0.55526400
v -0.48590200 0.15425400 0.56108300
v -0.48457700 0.15425400 0.56173000
v 0.49171100 0.15425400 -0.82214600
v 0.48457700 0.19745000 -0.82570200
v -0.42180100 0.20642200 -0.82117600
v 0.48457700 0.20941500 -0.81955900
v 0.48457700 0.21540100 -0.80759700
v -0.17946200 0.21540100 0.37680300
v -0.49660300 0.19146500 0.80759700
v -0.34098800 0.21540100 0.30503100
v -0.35892400 0.21540100 0.28708800
v -0.44870500 0.21540100 -0.05382910
v -0.48457700 0.21540100 -0.32297400
v -0.51148100 0.21091200 -0.76282100
v -0.49802900 0.18847200 0.81665000
v -0.49660300 0.17950600 0.81955900
v -0.50251300 0.17950600 0.80759700
v -0.51515000 0.15425400 0.48850300
v 0.48457700 0.15425400 -0.82570200
v -0.48457700 0.19745000 -0.82570200
v -0.48457700 0.20941500 -0.81955900
v 0.40386500 0.21091200 -0.81665000
v -0.48457700 0.21540100 -0.80759700
v -0.51596500 0.20642200 -0.76282100
v -0.51453900 0.19146500 -0.14354400
v -0.49354500 0.21091200 -0.81665000
v -0.52055100 0.16155600 0.32297400
v -0.51596500 0.18847200 -0.13449200
v -0.52055100 0.17950600 -0.14354400
v -0.52055100 0.15425400 0.32297400
v -0.48457700 0.15425400 -0.82570200
v -0.50587600 0.15425400 -0.81503300
v -0.49660300 0.20343000 -0.81955900
v -0.50852600 0.20343000 -0.78965400
v -0.51148100 0.19296100 -0.79870700
v -0.51453900 0.18548000 -0.80161600
v -0.52055100 0.17950600 -0.78965400
v -0.50699700 0.19520600 -0.80759700
v -0.52055100 0.15425400 -0.78965400
v -0.50852600 0.15425400 -0.81357800
v -0.50852600 0.17352100 -0.81357800
v -0.51688300 0.15425400 -0.79709000
v -0.50985100 0.15425400 -0.81099200
f 1 2 3
f 41 59 75
f 41 75 60
f 41 60 42
f 42 60 61
f 42 61 43
f 47 63 48
f 47 62 64
f 47 64 65
f 47 65 66
f 41 74 59
f 47 66 67
f 47 68 63
f 48 69 50
f 48 63 69
f 49 50 70
f 49 70 51
f 50 69 70
f 51 70 71
f 51 71 52
f 52 71 72
f 47 67 68
f 57 73 58
f 41 58 74
f 40 57 58
f 28 44 29
f 29 44 45
f 29 45 46
f 29 46 62
f 29 62 47
f 29 47 48
f 29 48 31
f 31 33 32
f 31 48 50
f 40 58 41
f 31 50 33
f 33 50 49
f 34 49 35
f 35 49 36
f 36 49 51
f 36 51 52
f 36 52 53
f 36 53 54
f 36 54 55
f 36 55 56
f 33 49 34
f 27 28 30
f 58 73 85
f 59 74 75
f 78 90 91
f 78 91 83
f 78 83 82
f 78 82 79
f 80 87 92
f 80 92 88
f 81 83 91
f 81 91 93
f 81 93 84
f 78 89 90
f 86 94 95
f 87 95 90
f 87 90 92
f 88 92 89
f 89 92 90
f 90 95 96
f 90 96 91
f 91 96 93
f 94 97 95
f 95 97 96
f 86 95 87
f 58 85 74
f 78 88 89
f 74 85 86
f 60 76 61
f 60 75 80
f 61 76 80
f 61 80 77
f 63 68 78
f 63 78 79
f 63 79 82
f 63 82 69
f 67 77 68
f 78 80 88
f 68 77 80
f 69 81 71
f 69 71 70
f 69 82 83
f 69 83 81
f 71 81 72
f 72 81 84
f 74 86 87
f 74 87 80
f 74 80 75
f 68 80 78
f 27 44 28
f 60 80 76
f 27 46 45
f 4 96 97
f 4 97 94
f 4 94 86
f 4 86 85
f 4 85 73
f 4 73 57
f 4 57 40
f 4 40 39
f 4 39 38
f 4 93 96
f 4 38 23
f 5 13 26
f 5 26 14
f 5 14 6
f 6 15 16
f 6 16 17
f 6 17 7
f 6 14 27
f 6 27 15
f 7 17 18
f 4 23 12
f 7 18 8
f 4 84 93
f 4 53 52
f 27 45 44
f 1 3 4
f 1 4 12
f 1 12 13
f 1 13 5
f 1 5 2
f 2 6 3
f 2 5 6
f 3 6 7
f 4 52 72
f 3 7 8
f 3 9 4
f 4 9 10
f 4 10 11
f 4 11 22
f 4 22 37
f 4 37 56
f 4 56 55
f 4 55 54
f 4 54 53
f 3 8 9
f 8 18 32
f 4 72 84
f 8 19 20
f 20 35 36
f 20 36 21
f 21 36 56
f 21 56 37
f 21 37 22
f 24 38 39
f 24 39 40
f 24 41 42
f 24 42 25
f 20 34 35
f 25 42 26
f 27 43 61
f 27 61 77
f 27 77 67
f 27 67 66
f 27 66 65
f 27 65 64
f 27 64 62
f 8 32 19
f 27 62 46
f 26 42 43
f 19 32 33
f 24 40 41
f 13 23 38
f 8 20 9
f 19 34 20
f 9 21 10
f 10 21 11
f 11 21 22
f 12 23 13
f 13 38 24
f 13 24 25
f 13 25 26
f 9 20 21
f 14 26 43
f 15 28 29
f 15 29 16
f 15 27 30
f 15 30 28
f 16 29 31
f 16 31 32
f 16 32 17
f 17 32 18
f 19 33 34
f 14 43 27

