o convex_0
v -0.260506 -0.854352 0
v -0.250051 -0.875267 -0.0624745
v -0.250051 -0.89605 -0.0208078
v -0.250051 -0.89605 0.0208078
v -0.250051 -0.875267 0.0624745
v -0.260506 0.072934 0
v -0.239647 -0.854352 -0.0937373
v -0.229243 -0.875267 -0.114596
v -0.22399 -0.890822 -0.119798
v -0.234445 -0.911736 -0.0781314
v -0.239647 -0.906507 -0.0624745
v -0.250051 0.104175 -0.0624745
v -0.239647 -0.916964 -0.0312118
v -0.239647 -0.927291 0
v -0.239647 -0.916964 0.0312118
v -0.239647 -0.906507 0.0624745
v -0.237046 -0.906507 0.0742044
v -0.226591 -0.885593 0.115922
v -0.229243 -0.875267 0.114596
v -0.239647 -0.854352 0.0937373
v -0.250051 0.104175 0.0624745
v -0.250051 0.124958 0.0416667
v -0.250051 0.145873 0
v -0.250051 0.124958 -0.0416667
v -0.236179 -0.850954 -0.100724
v -0.239647 0.072934 -0.0937373
v -0.211852 -0.857882 -0.149327
v -0.222256 -0.878665 -0.128468
v -0.229243 0.0937176 -0.114596
v -0.220522 -0.887423 -0.126734
v -0.213586 -0.901279 -0.130253
v -0.213586 -0.922062 -0.119798
v -0.22399 -0.93252 -0.0781314
v -0.222256 -0.941277 -0.0659935
v -0.232711 -0.920363 -0.0659935
v -0.239647 0.156199 -0.0624745
v -0.239647 0.124958 -0.0833334
v -0.232711 -0.941277 -0.00346797
v -0.236179 -0.934219 0.00346797
v -0.236179 -0.923892 0.0347307
v -0.236179 -0.913435 0.0659935
v -0.234445 -0.911736 0.0755304
v -0.216187 -0.916964 0.115922
v -0.222256 -0.875267 0.128468
v -0.236179 -0.854352 0.100724
v -0.211852 -0.854352 0.149327
v -0.229243 0.0937176 0.114596
v -0.237046 0.0780319 0.0989903
v -0.239647 0.072934 0.0937373
v -0.24745 0.109403 0.0677275
v -0.239647 0.156199 0.0624745
v -0.239647 0.166656 0.0416667
v -0.239647 0.177113 0.0104039
v -0.239647 0.177113 -0.0104039
v -0.239647 0.166656 -0.0416667
v -0.236179 0.0763326 -0.100724
v -0.184058 -0.840497 -0.184058
v -0.201448 -0.878665 -0.159731
v -0.211852 0.0694047 -0.149327
v -0.211852 -0.889122 -0.138923
v -0.236179 0.128488 -0.0902693
v -0.225724 0.0972469 -0.121532
v -0.21532 0.0763326 -0.142391
v -0.203182 -0.911736 -0.140657
v -0.192728 -0.93252 -0.140657
v -0.192728 -0.942977 -0.130253
v -0.201448 -0.941277 -0.118064
v -0.203182 -0.942977 -0.109394
v -0.211852 -0.951604 -0.0555386
v -0.236179 0.159728 -0.0694615
v -0.237046 0.136723 -0.0833334
v -0.237046 0.167963 -0.0520706
v -0.216187 0.209661 -0.0729295
v -0.204916 -0.955133 -0.0486026
v -0.204916 -0.955133 0.0555386
v -0.225724 -0.944676 0.0242758
v -0.222256 -0.941277 0.0590066
v -0.225724 -0.934219 0.0659935
v -0.22399 -0.93252 0.0755304
v -0.213586 -0.922062 0.117197
v -0.211852 -0.906507 0.128468
v -0.201448 -0.875267 0.159731
v -0.184058 -0.844026 0.184058
v -0.211852 0.072934 0.149327
v -0.222256 0.0937176 0.128468
v -0.226591 0.0989461 0.119798
v -0.237046 0.130187 0.0885353
v -0.237046 0.161428 0.0677275
v -0.237046 0.171885 0.0468686
v -0.237046 0.182342 0.0156059
v -0.229243 0.208354 0
v -0.229243 0.197897 -0.0312118
v -0.149327 -0.857882 -0.211852
v -0.159731 -0.878665 -0.201448
v -0.18059 -0.889122 -0.18059
v -0.184058 0.0763326 -0.184058
v -0.201448 -0.899579 -0.149327
v -0.211852 0.12156 -0.138923
v -0.201448 0.100645 -0.159731
v -0.21532 0.159728 -0.121532
v -0.21532 0.128488 -0.131987
v -0.18059 -0.909906 -0.170186
v -0.182324 -0.922062 -0.161465
v -0.170186 -0.93082 -0.170186
v -0.170186 -0.941277 -0.159731
v -0.182324 -0.953434 -0.119798
v -0.190994 -0.951604 -0.10766
v -0.203182 -0.953434 -0.0677275
v -0.197981 -0.958532 -0.0520706
v -0.216187 0.17842 -0.104192
v -0.216187 0.167963 -0.114596
v -0.218788 0.208354 -0.0624745
v -0.211852 0.22221 -0.0624745
v -0.122501 0.376583 -0.0413097
v -0.213586 0.210968 -0.0781314
v -0.211852 -0.951604 0.0486026
v -0.197981 -0.958532 0.0520706
v -0.184058 -0.955133 0.10766
v -0.204916 -0.944676 0.0972053
v -0.203182 -0.942977 0.106793
v -0.204916 -0.934219 0.118064
v -0.192728 -0.93252 0.138056
v -0.203182 -0.911736 0.138056
v -0.197981 -0.937748 0.125
v -0.201448 -0.89605 0.149327
v -0.18059 -0.906507 0.170186
v -0.18059 -0.885593 0.18059
v -0.182324 -0.849124 0.184925
v -0.159731 -0.875267 0.201448
v -0.149327 -0.854352 0.211852
v -0.184058 0.072934 0.184058
v -0.201448 0.104175 0.159731
v -0.211852 0.124958 0.138923
v -0.216187 0.130187 0.130253
v -0.216187 0.161428 0.119798
v -0.212311 0.166656 0.125
v -0.233119 0.166656 0.0729295
v -0.212311 0.218811 0.0729295
v -0.216187 0.213582 0.0677275
v -0.226591 0.203125 0.0364647
v -0.229243 0.197897 0.0312118
v -0.226591 0.213582 0.00520196
v -0.222256 0.22221 0
v -0.211852 0.232667 -0.0312118
v -0.218788 0.218811 -0.0312118
v -0.114596 -0.875267 -0.229243
v -0.128468 -0.878665 -0.222256
v -0.149327 0.0694047 -0.211852
v -0.138923 -0.889122 -0.211852
v -0.149327 -0.899579 -0.201448
v -0.170186 -0.909906 -0.18059
v -0.18059 0.12156 -0.18059
v -0.159731 0.100645 -0.201448
v -0.204916 0.170185 -0.131987
v -0.213586 0.16927 -0.119798
v -0.161465 -0.922062 -0.182324
v -0.140657 -0.93252 -0.192728
v -0.130253 -0.942977 -0.192728
v -0.159731 -0.941277 -0.170186
v -0.17192 -0.953434 -0.130253
v -0.177122 -0.958532 -0.104192
v -0.213586 0.179728 -0.109394
v -0.201448 0.243124 -0.0520706
v -0.125 0.376583 -0.0312118
v -0.122399 0.376583 -0.0415647
v -0.192728 0.231752 -0.0989903
v -0.203182 0.221425 -0.0885353
v -0.177122 -0.958532 0.104192
v -0.177122 -0.956048 0.115922
v -0.182324 -0.953434 0.117197
v -0.192728 -0.942977 0.127601
v -0.17192 -0.93252 0.164117
v -0.170186 -0.927291 0.170186
v -0.182324 -0.922062 0.158864
v -0.166718 -0.937748 0.166718
v -0.170186 -0.906507 0.18059
v -0.128468 -0.875267 0.222256
v -0.149327 -0.89605 0.201448
v -0.135455 -0.89605 0.212311
v -0.125 -0.885593 0.222715
v -0.114596 -0.875267 0.229243
v -0.149327 0.072934 0.211852
v -0.159731 0.104175 0.201448
v -0.18059 0.124958 0.18059
v -0.201856 0.114501 0.156263
v -0.212311 0.135415 0.135455
v -0.191453 0.124958 0.166718
v -0.212311 0.177113 0.114596
v -0.181049 0.166656 0.166718
v -0.205783 0.171885 0.130253
v -0.200582 0.182342 0.130253
v -0.191453 0.208354 0.125
v -0.191453 0.218811 0.114596
v -0.191453 0.229137 0.104192
v -0.201856 0.229137 0.0833334
v -0.117911 0.376583 0.0520706
v -0.125 0.376583 0.0312118
v -0.191453 0.260378 0.0520706
v -0.201856 0.250052 0.0312118
v -0.212311 0.229137 0.0416667
v -0.216187 0.223909 0.0364647
v -0.205783 0.244823 0.0260098
v -0.201448 0.25345 0.0208078
v -0.190994 0.274365 0
v -0.201448 0.25345 -0.0208078
v -0.100724 -0.850954 -0.236179
v -0.0937373 -0.854352 -0.239647
v -0.0624745 -0.875267 -0.250051
v -0.119798 -0.890822 -0.22399
v -0.114596 0.0937176 -0.229243
v -0.126734 -0.887423 -0.220522
v -0.138923 0.12156 -0.211852
v -0.142391 0.0763326 -0.21532
v -0.130253 -0.901279 -0.213586
v -0.140657 -0.911736 -0.203182
v -0.173654 0.170185 -0.173654
v -0.203182 0.179728 -0.130253
v -0.119798 -0.922062 -0.213586
v -0.118064 -0.941277 -0.201448
v -0.119798 -0.953434 -0.182324
v -0.130253 -0.953434 -0.17192
v -0.104192 -0.958532 -0.177122
v -0.190994 0.263907 -0.0416667
v -0.121838 0.376583 -0.0427887
v -0.17192 0.262992 -0.0989903
v -0.182324 0.231752 -0.119798
v -0.182324 0.221425 -0.130253
v -0.104192 -0.958532 0.177122
v -0.135455 -0.956048 0.157589
v -0.16325 -0.944676 0.159731
v -0.161465 -0.93252 0.174521
v -0.161465 -0.942977 0.164117
v -0.130253 -0.942977 0.190127
v -0.125 -0.937748 0.197981
v -0.119798 -0.93252 0.205783
v -0.161465 -0.911736 0.184925
v -0.156263 -0.906507 0.191453
v -0.119798 -0.880495 0.226591
v -0.140657 -0.911736 0.200582
v -0.114596 -0.927291 0.212311
v -0.119798 -0.911736 0.216187
v -0.0677275 -0.880495 0.24745
v -0.0989903 -0.859581 0.237046
v -0.114596 0.0937176 0.229243
v -0.128468 0.0937176 0.222256
v -0.138923 0.124958 0.211852
v -0.138923 0.166656 0.201448
v -0.170186 0.156199 0.18059
v -0.174521 0.171885 0.17192
v -0.169319 0.182342 0.17192
v -0.169319 0.213582 0.151061
v -0.184925 0.213582 0.130253
v -0.179723 0.223909 0.130253
v -0.179723 0.234366 0.119798
v -0.169319 0.265607 0.0989903
v -0.181049 0.260378 0.0833334
v -0.117401 0.376583 0.0531416
v -0.100724 0.0763326 -0.236179
v -0.0937373 0.072934 -0.239647
v 0 -0.854352 -0.260506
v -0.0208078 -0.89605 -0.250051
v -0.0624745 -0.906507 -0.239647
v -0.0781314 -0.911736 -0.234445
v -0.0624745 0.104175 -0.250051
v -0.121532 0.0972469 -0.225724
v -0.0902693 0.128488 -0.236179
v -0.0833334 0.124958 -0.239647
v -0.131987 0.170185 -0.204916
v -0.131987 0.128488 -0.21532
v -0.17192 0.179728 -0.17192
v -0.0781314 -0.93252 -0.22399
v -0.0659935 -0.941277 -0.222256
v -0.109394 -0.942977 -0.203182
v -0.10766 -0.951604 -0.190994
v -0.0677275 -0.953434 -0.203182
v -0.0520706 -0.958532 -0.197981
v -0.119135 0.376583 -0.0482456
v -0.108731 0.376583 -0.0690535
v -0.103121 0.376583 -0.0771114
v -0.100826 0.376583 -0.0803754
v -0.151061 0.262992 -0.130253
v -0.151061 0.252666 -0.140657
v -0.151061 0.242209 -0.151061
v -0.17192 0.210968 -0.151061
v -0.0520706 -0.958532 0.197981
v -0.114596 -0.956048 0.178397
v -0.119798 -0.953434 0.179723
v -0.135455 -0.916964 0.201856
v -0.114596 -0.941277 0.201448
v -0.0781314 -0.901279 0.237046
v -0.0624745 -0.941277 0.222256
v -0.0677275 -0.93252 0.226591
v -0.0729295 -0.916964 0.233119
v -0.0833334 -0.906507 0.233119
v -0.0677275 -0.911736 0.237046
v -0.0260098 -0.901279 0.24745
v -0.0208078 -0.89605 0.250051
v -0.0624745 -0.875267 0.250051
v -0.0937373 -0.854352 0.239647
v -0.0937373 0.072934 0.239647
v -0.100724 0.072934 0.236179
v -0.0833334 0.124958 0.239647
v -0.104192 0.124958 0.229243
v -0.128468 0.156199 0.211852
v -0.117197 0.171885 0.213586
v -0.127601 0.182342 0.203182
v -0.14846 0.213582 0.17192
v -0.14846 0.244823 0.151061
v -0.14846 0.25528 0.140657
v -0.14846 0.265607 0.130253
v -0.106079 0.376583 0.0745104
v -0.108068 0.375015 0.0729295
v 0.0624745 -0.875267 -0.250051
v 0.0208078 -0.89605 -0.250051
v 0 0.072934 -0.260506
v 0 -0.927291 -0.239647
v -0.0312118 -0.916964 -0.239647
v -0.0659935 -0.920363 -0.232711
v -0.0624745 0.156199 -0.239647
v -0.0416667 0.124958 -0.250051
v -0.121532 0.159728 -0.21532
v -0.0833334 0.136723 -0.237046
v -0.130253 0.179728 -0.203182
v -0.151061 0.210968 -0.17192
v -0.130253 0.221425 -0.182324
v -0.00346797 -0.941277 -0.232711
v -0.0555386 -0.951604 -0.211852
v -0.0486026 -0.955133 -0.204916
v 0.0520706 -0.958532 -0.197981
v -0.0968993 0.376583 -0.0854244
v -0.0854244 0.376583 -0.0968993
v -0.140657 0.252666 -0.151061
v 0.0520706 -0.958532 0.197981
v 0.0572726 -0.956048 0.203182
v -0.0520706 -0.955133 0.204916
v -0.0624745 -0.956048 0.199256
v -0.104192 -0.951604 0.190994
v -0.0989903 -0.942977 0.205783
v -0.0520706 -0.951604 0.211852
v -0.0208078 -0.944676 0.225724
v 0 -0.941277 0.232711
v -0.0104039 -0.937748 0.233119
v -0.00520196 -0.93252 0.237046
v 0 -0.927291 0.239647
v 0.0208078 -0.89605 0.250051
v 0 -0.854352 0.260506
v -0.0624745 0.104175 0.250051
v -0.0624745 0.156199 0.239647
v -0.0846594 0.135415 0.237046
v -0.114596 0.156199 0.218788
v -0.115922 0.166656 0.216187
v -0.106793 0.182342 0.213586
v -0.0963383 0.213582 0.203182
v -0.117197 0.234366 0.182324
v -0.127601 0.223909 0.182324
v -0.138056 0.25528 0.151061
v -0.0860874 0.376583 0.0971033
v -0.0973073 0.376583 0.0862914
v 0.0937373 -0.854352 -0.239647
v 0.114596 -0.875267 -0.229243
v 0.115922 -0.885593 -0.226591
v 0.0742044 -0.906507 -0.237046
v 0.0624745 -0.906507 -0.239647
v 0.0624745 0.104175 -0.250051
v 0.0312118 -0.916964 -0.239647
v 0 0.145873 -0.250051
v 0.0416667 0.124958 -0.250051
v 0.0347307 -0.923892 -0.236179
v 0.00346797 -0.934219 -0.236179
v -0.0520706 0.167963 -0.237046
v -0.0416667 0.166656 -0.239647
v -0.0694615 0.159728 -0.236179
v -0.0729295 0.209661 -0.216187
v -0.119798 0.16927 -0.213586
v -0.114596 0.167963 -0.216187
v -0.109394 0.179728 -0.213586
v -0.0885353 0.221425 -0.203182
v -0.130253 0.262992 -0.151061
v -0.119798 0.231752 -0.182324
v 0.0590066 -0.941277 -0.222256
v 0.0242758 -0.944676 -0.225724
v 0.0555386 -0.955133 -0.204916
v 0.0659935 -0.934219 -0.225724
v 0.104192 -0.958532 -0.177122
v -0.0803754 0.376583 -0.100826
v 0.104192 -0.958532 0.177122
v 0.109394 -0.956048 0.182324
v 0.0624745 -0.952127 0.208384
v 0.0520706 -0.951604 0.211852
v 0.0260098 -0.945591 0.22399
v 0.0624745 -0.941277 0.222256
v 0.0624745 -0.906507 0.239647
v 0.0312118 -0.916964 0.239647
v 0.0624745 -0.875267 0.250051
v 0 0.072934 0.260506
v -0.0416667 0.124958 0.250051
v -0.0416667 0.166656 0.239647
v -0.0659935 0.163127 0.236179
v -0.105467 0.177113 0.216187
v -0.0755304 0.213582 0.213586
v -0.0963383 0.234366 0.192728
v -0.0963383 0.265607 0.17192
v -0.0630865 0.376583 0.111842
v -0.0642085 0.376583 0.111179
v -0.127601 0.265607 0.151061
v 0.100724 -0.854352 -0.236179
v 0.0937373 0.072934 -0.239647
v 0.0989903 0.0780319 -0.237046
v 0.149327 -0.854352 -0.211852
v 0.128468 -0.875267 -0.222256
v 0.114596 0.0937176 -0.229243
v 0.115922 -0.916964 -0.216187
v 0.0755304 -0.911736 -0.234445
v 0.0659935 -0.913435 -0.236179
v 0.0624745 0.156199 -0.239647
v 0.0677275 0.109403 -0.24745
v -0.0104039 0.177113 -0.239647
v 0.0104039 0.177113 -0.239647
v 0.0416667 0.166656 -0.239647
v -0.0312118 0.197897 -0.229243
v 0 0.208354 -0.229243
v -0.104192 0.17842 -0.216187
v -0.0781314 0.210968 -0.213586
v -0.0413097 0.376583 -0.122501
v -0.0624745 0.22221 -0.211852
v -0.0624745 0.208354 -0.218788
v -0.0989903 0.231752 -0.192728
v -0.0771114 0.376583 -0.103121
v -0.0690535 0.376583 -0.108731
v -0.0989903 0.262992 -0.17192
v 0.106793 -0.942977 -0.203182
v 0.0972053 -0.944676 -0.204916
v 0.0486026 -0.951604 -0.211852
v 0.0755304 -0.93252 -0.22399
v 0.10766 -0.955133 -0.184058
v 0.115922 -0.956048 -0.177122
v 0.177122 -0.958532 -0.104192
v 0.177122 -0.958532 0.104192
v 0.114596 -0.952127 0.187526
v 0.182324 -0.956048 0.109394
v 0.161465 -0.945591 0.161465
v 0.0989903 -0.945591 0.203182
v 0.114596 -0.941277 0.201448
v 0.0781314 -0.929905 0.22399
v 0.0729295 -0.928598 0.226591
v 0.0729295 -0.907815 0.237046
v 0.0694615 -0.878665 0.246583
v 0.114596 -0.875267 0.229243
v 0.0937373 -0.854352 0.239647
v 0.0624745 0.104175 0.250051
v 0.0416667 0.124958 0.250051
v 0 0.145873 0.250051
v -0.0104039 0.177113 0.239647
v 0 0.208354 0.229243
v -0.0312118 0.197897 0.229243
v -0.0659935 0.215282 0.21532
v -0.0742044 0.208354 0.216187
v -0.0411567 0.376583 0.122807
v -0.0422277 0.376583 0.122297
v -0.0620155 0.376583 0.112403
v 0.184058 -0.844026 -0.184058
v 0.159731 -0.875267 -0.201448
v 0.149327 0.072934 -0.211852
v 0.128468 -0.906507 -0.211852
v 0.0885353 0.130187 -0.237046
v 0.119798 0.0989461 -0.226591
v 0.128468 0.0937176 -0.222256
v 0.117197 -0.922062 -0.213586
v 0.0677275 0.161428 -0.237046
v 0.0156059 0.182342 -0.237046
v 0.0468686 0.171885 -0.237046
v -0.0312118 0.218811 -0.218788
v -0.0312118 0.232667 -0.211852
v 0 0.22221 -0.222256
v 0.00520196 0.213582 -0.226591
v 0.0364647 0.203125 -0.226591
v 0.0312118 0.197897 -0.229243
v -0.0415647 0.376583 -0.122399
v -0.0312118 0.376583 -0.125
v -0.0520706 0.243124 -0.201448
v -0.0482456 0.376583 -0.119135
v -0.0427887 0.376583 -0.121838
v 0.127601 -0.942977 -0.192728
v 0.117197 -0.953434 -0.182324
v 0.118064 -0.934219 -0.204916
v 0.157589 -0.956048 -0.135455
v 0.159731 -0.944676 -0.16325
v 0.178397 -0.956048 -0.114596
v 0.197981 -0.958532 -0.0520706
v 0.197981 -0.958532 0.0520706
v 0.130253 -0.940362 0.192728
v 0.119798 -0.945591 0.192728
v 0.203182 -0.956048 0.0572726
v 0.187526 -0.952127 0.114596
v 0.192728 -0.940362 0.130253
v 0.166718 -0.937748 0.166718
v 0.125 -0.937748 0.197981
v 0.119798 -0.935134 0.203182
v 0.119798 -0.919579 0.213586
v 0.0781314 -0.909122 0.234445
v 0.114596 -0.8869 0.226591
v 0.121532 -0.878665 0.225724
v 0.100724 -0.857882 0.236179
v 0.142391 -0.857882 0.21532
v 0.149327 -0.850954 0.211852
v 0.114596 0.0937176 0.229243
v 0.0937373 0.072934 0.239647
v 0.0833334 0.124958 0.239647
v 0.0624745 0.156199 0.239647
v 0.0416667 0.166656 0.239647
v 0.0104039 0.177113 0.239647
v 0.0347307 0.211752 0.222256
v 0.00346797 0.22221 0.222256
v -0.00346797 0.215282 0.225724
v -0.0347307 0.204825 0.225724
v 0.0312118 0.197897 0.229243
v -0.0347307 0.225739 0.21532
v -0.0451347 0.25698 0.194462
v -0.0312118 0.376583 0.125
v 0.211852 -0.854352 -0.149327
v 0.201448 -0.875267 -0.159731
v 0.184925 -0.849124 -0.182324
v 0.18059 -0.885593 -0.18059
v 0.184058 0.072934 -0.184058
v 0.170186 -0.906507 -0.18059
v 0.149327 -0.89605 -0.201448
v 0.138923 0.124958 -0.211852
v 0.159731 0.104175 -0.201448
v 0.138056 -0.911736 -0.203182
v 0.119798 0.161428 -0.216187
v 0.130253 0.130187 -0.216187
v 0.138056 -0.93252 -0.192728
v 0.125 -0.937748 -0.197981
v 0.0729295 0.166656 -0.233119
v 0.125 0.166656 -0.212311
v 0.0677275 0.213582 -0.216187
v 0.0729295 0.218811 -0.212311
v -0.0208078 0.25345 -0.201448
v -0.00520196 0.265607 -0.19538
v 0.0312118 0.376583 -0.125
v 0.0208078 0.25345 -0.201448
v 0.0260098 0.244823 -0.205783
v 0.0364647 0.223909 -0.216187
v -0.0416667 0.263907 -0.190994
v 0.166718 -0.937748 -0.166718
v 0.164117 -0.942977 -0.161465
v 0.190127 -0.942977 -0.130253
v 0.179723 -0.953434 -0.119798
v 0.190994 -0.951604 -0.104192
v 0.199256 -0.956048 -0.0624745
v 0.204916 -0.955133 -0.0520706
v 0.140657 -0.929905 0.192728
v 0.211852 -0.951604 0.0520706
v 0.208384 -0.952127 0.0624745
v 0.232711 -0.941277 0
v 0.22399 -0.945591 0.0260098
v 0.203182 -0.945591 0.0989903
v 0.201448 -0.941277 0.114596
v 0.192728 -0.945591 0.119798
v 0.197981 -0.937748 0.125
v 0.213586 -0.919579 0.119798
v 0.192728 -0.929905 0.140657
v 0.182324 -0.919579 0.161465
v 0.17192 -0.919579 0.17192
v 0.161465 -0.919579 0.182324
v 0.140657 -0.909122 0.203182
v 0.130253 -0.898665 0.213586
v 0.119798 -0.888207 0.22399
v 0.152795 -0.878665 0.204916
v 0.100724 0.0694047 0.236179
v 0.159731 -0.871737 0.201448
v 0.184058 -0.847425 0.184058
v 0.149327 0.0763326 0.211852
v 0.128468 0.0972469 0.222256
v 0.0972053 0.128488 0.232711
v 0.0885353 0.140644 0.234445
v 0.0572726 0.171885 0.234445
v 0.119798 0.171885 0.213586
v 0.0746634 0.168355 0.230977
v 0.0781314 0.213582 0.213586
v 0.0659935 0.22221 0.211852
v -0.0173399 0.25345 0.201448
v 0.0347307 0.232667 0.211852
v 0.0242758 0.25345 0.201448
v 0.0312118 0.376583 0.125
v -0.0242758 0.246522 0.204916
v 0.229243 -0.875267 -0.114596
v 0.222256 -0.875267 -0.128468
v 0.211852 0.072934 -0.149327
v 0.222715 -0.885593 -0.125
v 0.212311 -0.89605 -0.135455
v 0.201448 -0.89605 -0.149327
v 0.18059 -0.906507 -0.170186
v 0.18059 0.124958 -0.18059
v 0.201448 0.104175 -0.159731
v 0.170186 -0.927291 -0.170186
v 0.158864 -0.922062 -0.182324
v 0.135455 0.135415 -0.212311
v 0.156263 0.114501 -0.201856
v 0.166718 0.124958 -0.191453
v 0.164117 -0.93252 -0.17192
v 0.114596 0.177113 -0.212311
v 0.130253 0.182342 -0.200582
v 0.130253 0.171885 -0.205783
v 0.166718 0.166656 -0.181049
v 0.125 0.208354 -0.191453
v 0.0416667 0.229137 -0.212311
v 0.0312118 0.250052 -0.201856
v 0.0520706 0.260378 -0.191453
v 0.0520706 0.376583 -0.117911
v 0.0833334 0.229137 -0.201856
v 0.104192 0.229137 -0.191453
v 0.114596 0.218811 -0.191453
v 0.174521 -0.93252 -0.161465
v 0.205783 -0.93252 -0.119798
v 0.197981 -0.937748 -0.125
v 0.201448 -0.941277 -0.114596
v 0.211852 -0.951604 -0.0520706
v 0.205783 -0.942977 -0.0989903
v 0.222256 -0.941277 0.0624745
v 0.225724 -0.944676 -0.0208078
v 0.222256 -0.941277 -0.0624745
v 0.233119 -0.937748 -0.0104039
v 0.237046 -0.93252 -0.00520196
v 0.239647 -0.927291 0
v 0.239647 -0.916964 0.0312118
v 0.239647 -0.906507 0.0624745
v 0.22399 -0.929905 0.0781314
v 0.203182 -0.935134 0.119798
v 0.234445 -0.909122 0.0781314
v 0.22399 -0.888207 0.119798
v 0.213586 -0.898665 0.130253
v 0.203182 -0.909122 0.140657
v 0.182324 -0.898665 0.17192
v 0.17192 -0.898665 0.182324
v 0.151061 -0.888207 0.203182
v 0.18059 -0.882195 0.18059
v 0.201448 -0.871737 0.159731
v 0.211852 -0.850954 0.149327
v 0.184058 0.0694047 0.184058
v 0.159731 0.107573 0.201448
v 0.138923 0.128488 0.211852
v 0.128468 0.159728 0.211852
v 0.130253 0.182342 0.203182
v 0.109394 0.182342 0.213586
v 0.0989903 0.213582 0.203182
v 0.0989903 0.234366 0.192728
v 0.0432477 0.376583 0.121634
v 0.0555386 0.243124 0.201448
v 0.0451347 0.263907 0.190994
v 0.237046 -0.859581 -0.0989903
v 0.24745 -0.880495 -0.0677275
v 0.226591 -0.880495 -0.119798
v 0.229243 0.0937176 -0.114596
v 0.211852 0.124958 -0.138923
v 0.222256 0.0937176 -0.128468
v 0.216187 -0.911736 -0.119798
v 0.212311 -0.927291 -0.114596
v 0.200582 -0.911736 -0.140657
v 0.191453 -0.906507 -0.156263
v 0.184925 -0.911736 -0.161465
v 0.17192 0.171885 -0.174521
v 0.18059 0.156199 -0.170186
v 0.201448 0.166656 -0.138923
v 0.17192 0.182342 -0.169319
v 0.130253 0.213582 -0.184925
v 0.151061 0.213582 -0.169319
v 0.130253 0.223909 -0.179723
v 0.0531416 0.376583 -0.117401
v 0.0833334 0.260378 -0.181049
v 0.119798 0.234366 -0.179723
v 0.0989903 0.265607 -0.169319
v 0.201856 -0.916964 -0.135455
v 0.237046 -0.907815 0.0729295
v 0.226591 -0.928598 0.0729295
v 0.226591 -0.93252 -0.0677275
v 0.237046 -0.911736 -0.0677275
v 0.24745 -0.901279 -0.0260098
v 0.250051 -0.89605 -0.0208078
v 0.250051 -0.89605 0.0208078
v 0.250051 -0.875267 0.0624745
v 0.203182 -0.888207 0.151061
v 0.226591 -0.8869 0.114596
v 0.225724 -0.878665 0.121532
v 0.204916 -0.878665 0.152795
v 0.21532 -0.857882 0.142391
v 0.229243 -0.875267 0.114596
v 0.211852 0.0763326 0.149327
v 0.201448 0.107573 0.159731
v 0.18059 0.128488 0.18059
v 0.138923 0.170185 0.201448
v 0.17192 0.182342 0.17192
v 0.151061 0.213582 0.17192
v 0.130253 0.223909 0.182324
v 0.119798 0.234366 0.182324
v 0.0989903 0.265607 0.17192
v 0.0572726 0.369917 0.119798
v 0.0539066 0.376583 0.116432
v 0.239647 -0.854352 -0.0937373
v 0.236179 0.072934 -0.100724
v 0.239647 0.072934 -0.0937373
v 0.250051 -0.875267 -0.0624745
v 0.237046 -0.901279 -0.0781314
v 0.229243 0.124958 -0.104192
v 0.239647 0.124958 -0.0833334
v 0.211852 0.156199 -0.128468
v 0.233119 -0.906507 -0.0833334
v 0.233119 -0.916964 -0.0729295
v 0.203182 0.182342 -0.127601
v 0.213586 0.171885 -0.117197
v 0.17192 0.213582 -0.14846
v 0.151061 0.244823 -0.14846
v 0.140657 0.25528 -0.14846
v 0.0745104 0.376583 -0.106079
v 0.0729295 0.375015 -0.108068
v 0.130253 0.265607 -0.14846
v 0.246583 -0.878665 0.0694615
v 0.260506 -0.854352 0
v 0.239647 -0.854352 0.0937373
v 0.250051 0.104175 0.0624745
v 0.236179 -0.857882 0.100724
v 0.229243 0.0937176 0.114596
v 0.222256 0.0972469 0.128468
v 0.211852 0.128488 0.138923
v 0.201448 0.170185 0.138923
v 0.18059 0.159728 0.170186
v 0.170186 0.159728 0.18059
v 0.203182 0.182342 0.130253
v 0.17192 0.213582 0.151061
v 0.151061 0.244823 0.151061
v 0.140657 0.25528 0.151061
v 0.130253 0.265607 0.151061
v 0.0872093 0.376583 0.0976133
v 0.0746634 0.376583 0.105926
v 0.250051 0.104175 -0.0624745
v 0.218788 0.156199 -0.114596
v 0.237046 0.135415 -0.0846594
v 0.239647 0.156199 -0.0624745
v 0.216187 0.166656 -0.115922
v 0.213586 0.182342 -0.106793
v 0.182324 0.223909 -0.127601
v 0.182324 0.234366 -0.117197
v 0.203182 0.213582 -0.0963383
v 0.0862914 0.376583 -0.0973073
v 0.0971033 0.376583 -0.0860874
v 0.151061 0.25528 -0.138056
v 0.260506 0.072934 0
v 0.239647 0.072934 0.0937373
v 0.250051 0.124958 0.0416667
v 0.239647 0.156199 0.0624745
v 0.239647 0.124958 0.0833334
v 0.236179 0.0694047 0.100724
v 0.232711 0.128488 0.0972053
v 0.211852 0.159728 0.128468
v 0.213586 0.171885 0.119798
v 0.213586 0.182342 0.109394
v 0.203182 0.213582 0.0989903
v 0.182324 0.234366 0.119798
v 0.182324 0.223909 0.130253
v 0.151061 0.25528 0.140657
v 0.0976133 0.376583 0.0872093
v 0.250051 0.124958 -0.0416667
v 0.236179 0.163127 -0.0659935
v 0.239647 0.166656 -0.0416667
v 0.216187 0.177113 -0.105467
v 0.213586 0.213582 -0.0755304
v 0.151061 0.265607 -0.127601
v 0.111179 0.376583 -0.0642085
v 0.111842 0.376583 -0.0630865
v 0.17192 0.265607 -0.0963383
v 0.192728 0.234366 -0.0963383
v 0.250051 0.145873 0
v 0.239647 0.166656 0.0416667
v 0.230977 0.168355 0.0746634
v 0.234445 0.140644 0.0885353
v 0.234445 0.171885 0.0572726
v 0.213586 0.213582 0.0781314
v 0.192728 0.234366 0.0989903
v 0.17192 0.265607 0.0989903
v 0.105926 0.376583 0.0746634
v 0.151061 0.265607 0.130253
v 0.216187 0.208354 -0.0742044
v 0.21532 0.215282 -0.0659935
v 0.229243 0.197897 -0.0312118
v 0.229243 0.208354 0
v 0.239647 0.177113 -0.0104039
v 0.122807 0.376583 -0.0411567
v 0.112403 0.376583 -0.0620155
v 0.122297 0.376583 -0.0422277
v 0.239647 0.177113 0.0104039
v 0.229243 0.197897 0.0312118
v 0.211852 0.22221 0.0659935
v 0.121634 0.376583 0.0432477
v 0.119798 0.369917 0.0572726
v 0.116432 0.376583 0.0539066
v 0.125 0.376583 -0.0312118
v 0.194462 0.25698 -0.0451347
v 0.21532 0.225739 -0.0347307
v 0.225724 0.204825 -0.0347307
v 0.225724 0.215282 -0.00346797
v 0.222256 0.22221 0.00346797
v 0.222256 0.211752 0.0347307
v 0.211852 0.232667 0.0347307
v 0.201448 0.243124 0.0555386
v 0.125 0.376583 0.0312118
v 0.190994 0.274365 0.00346797
v 0.194462 0.267437 -0.00346797
v 0.204916 0.246522 -0.0242758
v 0.201448 0.25345 0.0242758
v 0.190994 0.263907 0.0451347
f 1 2 3
f 1 3 4
f 1 4 5
f 1 5 21
f 1 21 6
f 1 6 12
f 1 12 2
f 2 7 8
f 2 8 9
f 2 9 10
f 2 10 11
f 2 11 3
f 2 12 26
f 2 26 7
f 3 11 13
f 3 13 14
f 3 14 4
f 4 14 15
f 4 15 16
f 4 16 5
f 5 16 17
f 5 17 18
f 5 18 19
f 5 19 20
f 5 20 49
f 5 49 21
f 6 21 22
f 6 22 23
f 6 23 24
f 6 24 12
f 7 25 8
f 7 26 56
f 7 56 25
f 8 27 28
f 8 28 9
f 8 25 56
f 8 56 29
f 8 29 59
f 8 59 27
f 9 30 31
f 9 31 32
f 9 32 10
f 9 28 30
f 10 32 33
f 10 33 34
f 10 34 35
f 10 35 11
f 11 35 38
f 11 38 13
f 12 24 36
f 12 36 37
f 12 37 29
f 12 29 26
f 13 38 14
f 14 39 40
f 14 40 15
f 14 38 39
f 15 40 41
f 15 41 16
f 16 41 17
f 17 41 42
f 17 42 43
f 17 43 18
f 18 43 44
f 18 44 19
f 19 45 20
f 19 44 46
f 19 46 84
f 19 84 47
f 19 47 48
f 19 48 45
f 20 45 48
f 20 48 49
f 21 49 50
f 21 50 88
f 21 88 51
f 21 51 22
f 22 51 52
f 22 52 23
f 23 52 53
f 23 53 91
f 23 91 54
f 23 54 55
f 23 55 24
f 24 55 36
f 26 29 56
f 27 57 58
f 27 58 28
f 27 59 96
f 27 96 57
f 28 58 60
f 28 60 30
f 29 37 61
f 29 61 62
f 29 62 63
f 29 63 59
f 30 60 31
f 31 60 97
f 31 97 64
f 31 64 32
f 32 64 65
f 32 65 66
f 32 66 67
f 32 67 33
f 33 67 34
f 34 67 68
f 34 68 69
f 34 69 38
f 34 38 35
f 36 70 71
f 36 71 37
f 36 55 72
f 36 72 73
f 36 73 70
f 37 71 61
f 38 69 74
f 38 74 75
f 38 75 76
f 38 76 77
f 38 77 78
f 38 78 39
f 39 78 40
f 40 78 41
f 41 78 79
f 41 79 42
f 42 79 80
f 42 80 43
f 43 81 44
f 43 80 81
f 44 82 46
f 44 81 82
f 46 82 83
f 46 83 131
f 46 131 84
f 47 84 85
f 47 85 86
f 47 86 87
f 47 87 50
f 47 50 48
f 48 50 49
f 50 87 88
f 51 88 52
f 52 89 90
f 52 90 53
f 52 88 89
f 53 90 91
f 54 91 55
f 55 91 92
f 55 92 72
f 57 93 94
f 57 94 95
f 57 95 58
f 57 96 148
f 57 148 93
f 58 95 97
f 58 97 60
f 59 63 101
f 59 101 98
f 59 98 99
f 59 99 96
f 61 71 111
f 61 111 100
f 61 100 101
f 61 101 62
f 62 101 63
f 64 97 102
f 64 102 103
f 64 103 65
f 65 103 104
f 65 104 66
f 66 105 106
f 66 106 67
f 66 104 105
f 67 106 68
f 68 106 107
f 68 107 69
f 69 107 108
f 69 108 109
f 69 109 74
f 70 110 111
f 70 111 71
f 70 73 110
f 72 92 73
f 73 112 113
f 73 113 114
f 73 114 115
f 73 115 162
f 73 162 110
f 73 92 112
f 74 109 117
f 74 117 75
f 75 116 76
f 75 117 168
f 75 168 118
f 75 118 119
f 75 119 77
f 75 77 116
f 76 116 77
f 77 119 120
f 77 120 79
f 77 79 78
f 79 120 121
f 79 121 80
f 80 122 123
f 80 123 81
f 80 121 124
f 80 124 122
f 81 123 125
f 81 125 82
f 82 125 126
f 82 126 127
f 82 127 83
f 83 127 128
f 83 128 129
f 83 129 130
f 83 130 182
f 83 182 131
f 84 131 132
f 84 132 133
f 84 133 85
f 85 133 134
f 85 134 86
f 86 134 87
f 87 134 135
f 87 135 88
f 88 135 136
f 88 136 137
f 88 137 138
f 88 138 139
f 88 139 89
f 89 140 141
f 89 141 91
f 89 91 90
f 89 139 140
f 91 142 143
f 91 143 144
f 91 144 145
f 91 145 112
f 91 112 92
f 91 141 140
f 91 140 142
f 93 146 147
f 93 147 94
f 93 148 210
f 93 210 146
f 94 147 149
f 94 149 150
f 94 150 95
f 95 150 151
f 95 151 104
f 95 104 102
f 95 102 97
f 96 99 152
f 96 152 153
f 96 153 148
f 98 152 99
f 98 101 154
f 98 154 216
f 98 216 152
f 100 111 155
f 100 155 217
f 100 217 154
f 100 154 101
f 102 104 103
f 104 151 156
f 104 156 157
f 104 157 158
f 104 158 159
f 104 159 105
f 105 159 221
f 105 221 160
f 105 160 106
f 106 160 161
f 106 161 108
f 106 108 107
f 108 161 109
f 109 161 222
f 109 222 276
f 109 276 329
f 109 329 384
f 109 384 437
f 109 437 489
f 109 489 490
f 109 490 438
f 109 438 386
f 109 386 333
f 109 333 285
f 109 285 228
f 109 228 168
f 109 168 117
f 110 162 155
f 110 155 111
f 112 145 144
f 112 144 113
f 113 144 163
f 113 163 164
f 113 164 114
f 114 164 197
f 114 197 196
f 114 196 257
f 114 257 311
f 114 311 358
f 114 358 357
f 114 357 404
f 114 404 403
f 114 403 460
f 114 460 459
f 114 459 458
f 114 458 519
f 114 519 585
f 114 585 648
f 114 648 698
f 114 698 734
f 114 734 733
f 114 733 761
f 114 761 780
f 114 780 795
f 114 795 793
f 114 793 805
f 114 805 796
f 114 796 787
f 114 787 789
f 114 789 788
f 114 788 769
f 114 769 768
f 114 768 745
f 114 745 744
f 114 744 714
f 114 714 669
f 114 669 610
f 114 610 540
f 114 540 479
f 114 479 424
f 114 424 478
f 114 478 482
f 114 482 481
f 114 481 429
f 114 429 428
f 114 428 385
f 114 385 331
f 114 331 330
f 114 330 280
f 114 280 279
f 114 279 278
f 114 278 277
f 114 277 224
f 114 224 165
f 114 165 166
f 114 166 167
f 114 167 115
f 115 167 162
f 118 168 169
f 118 169 170
f 118 170 120
f 118 120 119
f 120 170 171
f 120 171 121
f 121 171 124
f 122 172 173
f 122 173 174
f 122 174 123
f 122 124 171
f 122 171 175
f 122 175 172
f 123 126 125
f 123 174 126
f 126 176 127
f 126 174 173
f 126 173 176
f 127 176 129
f 127 129 128
f 129 177 130
f 129 176 178
f 129 178 179
f 129 179 180
f 129 180 177
f 130 177 181
f 130 181 244
f 130 244 182
f 131 182 183
f 131 183 184
f 131 184 132
f 132 185 186
f 132 186 133
f 132 184 187
f 132 187 185
f 133 186 134
f 134 186 136
f 134 136 135
f 136 188 137
f 136 186 189
f 136 189 190
f 136 190 191
f 136 191 192
f 136 192 193
f 136 193 188
f 137 188 138
f 138 193 194
f 138 194 195
f 138 195 196
f 138 196 197
f 138 197 198
f 138 198 199
f 138 199 200
f 138 200 201
f 138 201 139
f 138 188 193
f 139 201 142
f 139 142 140
f 142 201 202
f 142 202 203
f 142 203 143
f 143 203 204
f 143 204 205
f 143 205 144
f 144 205 163
f 146 206 207
f 146 207 208
f 146 208 209
f 146 209 147
f 146 210 258
f 146 258 206
f 147 209 211
f 147 211 149
f 148 153 212
f 148 212 269
f 148 269 213
f 148 213 210
f 149 211 214
f 149 214 215
f 149 215 150
f 150 215 151
f 151 215 156
f 152 212 153
f 152 216 268
f 152 268 212
f 154 217 270
f 154 270 216
f 155 162 217
f 156 215 157
f 157 215 218
f 157 218 158
f 158 219 220
f 158 220 159
f 158 218 219
f 159 220 221
f 160 221 222
f 160 222 161
f 162 167 217
f 163 205 223
f 163 223 164
f 164 223 205
f 164 205 204
f 164 204 197
f 165 224 225
f 165 225 166
f 166 225 226
f 166 226 227
f 166 227 167
f 167 227 217
f 168 228 229
f 168 229 169
f 169 229 230
f 169 230 170
f 170 230 171
f 171 230 175
f 172 175 173
f 173 175 231
f 173 231 236
f 173 236 176
f 175 230 232
f 175 232 233
f 175 233 234
f 175 234 235
f 175 235 231
f 176 236 237
f 176 237 179
f 176 179 178
f 177 180 238
f 177 238 181
f 179 237 239
f 179 239 240
f 179 240 241
f 179 241 180
f 180 241 238
f 181 238 242
f 181 242 243
f 181 243 301
f 181 301 244
f 182 244 245
f 182 245 246
f 182 246 183
f 183 246 247
f 183 247 248
f 183 248 184
f 184 248 249
f 184 249 189
f 184 189 187
f 185 187 186
f 186 187 189
f 189 249 250
f 189 250 191
f 189 191 190
f 191 250 251
f 191 251 252
f 191 252 192
f 192 252 253
f 192 253 193
f 193 253 254
f 193 254 194
f 194 254 255
f 194 255 256
f 194 256 195
f 195 256 196
f 196 256 257
f 197 204 203
f 197 203 199
f 197 199 198
f 199 203 202
f 199 202 200
f 200 202 201
f 206 258 259
f 206 259 207
f 207 259 264
f 207 264 208
f 208 260 261
f 208 261 262
f 208 262 263
f 208 263 209
f 208 264 315
f 208 315 260
f 209 263 218
f 209 218 214
f 209 214 211
f 210 213 265
f 210 265 266
f 210 266 267
f 210 267 264
f 210 264 259
f 210 259 258
f 212 268 269
f 213 269 265
f 214 218 215
f 216 270 323
f 216 323 268
f 217 227 270
f 218 263 271
f 218 271 219
f 219 272 273
f 219 273 220
f 219 271 272
f 220 274 275
f 220 275 222
f 220 222 221
f 220 273 274
f 222 275 276
f 224 277 225
f 225 277 278
f 225 278 226
f 226 278 279
f 226 279 280
f 226 280 281
f 226 281 227
f 227 281 282
f 227 282 283
f 227 283 284
f 227 284 270
f 228 285 336
f 228 336 286
f 228 286 229
f 229 286 230
f 230 233 232
f 230 286 287
f 230 287 233
f 231 235 288
f 231 288 239
f 231 239 236
f 233 289 234
f 233 287 289
f 234 289 235
f 235 240 288
f 235 289 240
f 236 239 237
f 238 241 290
f 238 290 242
f 239 288 240
f 240 289 291
f 240 291 292
f 240 292 293
f 240 293 294
f 240 294 241
f 241 294 290
f 242 290 295
f 242 295 296
f 242 296 297
f 242 297 298
f 242 298 299
f 242 299 243
f 243 299 300
f 243 300 301
f 244 301 300
f 244 300 347
f 244 347 302
f 244 302 303
f 244 303 246
f 244 246 245
f 246 303 304
f 246 304 247
f 247 304 305
f 247 305 306
f 247 306 250
f 247 250 249
f 247 249 248
f 250 306 307
f 250 307 308
f 250 308 251
f 251 308 253
f 251 253 252
f 253 308 309
f 253 309 254
f 254 309 310
f 254 310 311
f 254 311 312
f 254 312 255
f 255 312 257
f 255 257 256
f 257 312 311
f 260 313 314
f 260 314 261
f 260 315 364
f 260 364 313
f 261 314 316
f 261 316 317
f 261 317 262
f 262 317 326
f 262 326 318
f 262 318 263
f 263 318 272
f 263 272 271
f 264 267 319
f 264 319 320
f 264 320 315
f 265 269 266
f 266 269 321
f 266 321 375
f 266 375 322
f 266 322 267
f 267 322 319
f 268 323 374
f 268 374 321
f 268 321 269
f 270 284 283
f 270 283 324
f 270 324 325
f 270 325 323
f 272 326 327
f 272 327 273
f 272 318 326
f 273 327 274
f 274 327 275
f 275 327 276
f 276 327 328
f 276 328 382
f 276 382 329
f 280 330 281
f 281 330 282
f 282 330 283
f 283 330 331
f 283 331 332
f 283 332 325
f 283 325 324
f 285 333 334
f 285 334 335
f 285 335 336
f 286 336 339
f 286 339 337
f 286 337 287
f 287 337 289
f 289 337 338
f 289 338 291
f 290 294 293
f 290 293 295
f 291 338 339
f 291 339 340
f 291 340 341
f 291 341 342
f 291 342 292
f 292 342 343
f 292 343 295
f 292 295 293
f 295 343 296
f 296 343 344
f 296 344 297
f 297 344 345
f 297 345 346
f 297 346 298
f 298 346 395
f 298 395 347
f 298 347 300
f 298 300 299
f 302 348 349
f 302 349 351
f 302 351 350
f 302 350 303
f 302 347 348
f 303 350 304
f 304 350 351
f 304 351 305
f 305 351 352
f 305 352 306
f 306 352 400
f 306 400 353
f 306 353 354
f 306 354 355
f 306 355 307
f 307 355 308
f 308 356 357
f 308 357 358
f 308 358 309
f 308 355 354
f 308 354 356
f 309 358 310
f 310 358 311
f 313 359 360
f 313 360 361
f 313 361 362
f 313 362 363
f 313 363 314
f 313 364 407
f 313 407 359
f 314 363 365
f 314 365 316
f 315 320 366
f 315 366 367
f 315 367 364
f 316 365 368
f 316 368 369
f 316 369 326
f 316 326 317
f 319 370 371
f 319 371 320
f 319 322 372
f 319 372 373
f 319 373 370
f 320 371 366
f 321 374 375
f 322 375 372
f 323 376 374
f 323 325 377
f 323 377 376
f 325 332 378
f 325 378 379
f 325 379 427
f 325 427 377
f 326 380 381
f 326 381 382
f 326 382 328
f 326 328 327
f 326 369 383
f 326 383 380
f 329 382 435
f 329 435 384
f 331 385 378
f 331 378 332
f 333 386 387
f 333 387 334
f 334 387 439
f 334 439 388
f 334 388 389
f 334 389 390
f 334 390 341
f 334 341 335
f 335 341 339
f 335 339 336
f 337 339 338
f 339 341 340
f 341 390 391
f 341 391 392
f 341 392 393
f 341 393 344
f 341 344 343
f 341 343 342
f 344 393 345
f 345 393 392
f 345 392 394
f 345 394 346
f 346 394 450
f 346 450 395
f 347 395 396
f 347 396 348
f 348 396 397
f 348 397 398
f 348 398 351
f 348 351 349
f 351 399 352
f 351 398 399
f 352 399 457
f 352 457 400
f 353 400 354
f 354 400 401
f 354 401 402
f 354 402 403
f 354 403 404
f 354 404 357
f 354 357 405
f 354 405 356
f 356 405 357
f 359 406 360
f 359 407 408
f 359 408 406
f 360 409 410
f 360 410 361
f 360 406 408
f 360 408 411
f 360 411 463
f 360 463 409
f 361 412 362
f 361 410 412
f 362 412 413
f 362 413 414
f 362 414 363
f 363 414 368
f 363 368 365
f 364 367 415
f 364 415 469
f 364 469 416
f 364 416 407
f 366 371 417
f 366 417 421
f 366 421 418
f 366 418 419
f 366 419 367
f 367 419 415
f 368 383 369
f 368 414 383
f 370 420 371
f 370 373 420
f 371 420 421
f 371 421 417
f 372 375 422
f 372 422 373
f 373 423 424
f 373 424 425
f 373 425 426
f 373 426 420
f 373 422 376
f 373 376 423
f 374 376 422
f 374 422 375
f 376 377 423
f 377 427 424
f 377 424 423
f 378 385 379
f 379 385 428
f 379 428 429
f 379 429 430
f 379 430 427
f 380 431 432
f 380 432 382
f 380 382 433
f 380 433 381
f 380 383 434
f 380 434 431
f 381 433 382
f 382 432 435
f 383 414 413
f 383 413 434
f 384 435 436
f 384 436 486
f 384 486 437
f 386 438 440
f 386 440 387
f 387 440 441
f 387 441 439
f 388 439 442
f 388 442 391
f 388 391 389
f 389 391 390
f 391 442 443
f 391 443 444
f 391 444 445
f 391 445 446
f 391 446 392
f 392 446 394
f 394 446 447
f 394 447 448
f 394 448 449
f 394 449 507
f 394 507 450
f 395 450 451
f 395 451 452
f 395 452 396
f 396 452 397
f 397 452 453
f 397 453 454
f 397 454 455
f 397 455 456
f 397 456 398
f 398 456 457
f 398 457 399
f 400 457 456
f 400 456 458
f 400 458 401
f 401 458 402
f 402 458 459
f 402 459 460
f 402 460 403
f 407 416 408
f 408 416 411
f 409 461 462
f 409 462 410
f 409 463 524
f 409 524 461
f 410 462 464
f 410 464 412
f 411 416 465
f 411 465 466
f 411 466 467
f 411 467 463
f 412 464 468
f 412 468 413
f 413 468 434
f 415 419 469
f 416 469 465
f 418 470 471
f 418 471 419
f 418 421 470
f 419 471 469
f 420 426 421
f 421 426 472
f 421 472 473
f 421 473 474
f 421 474 475
f 421 475 476
f 421 476 477
f 421 477 471
f 421 471 470
f 424 479 425
f 424 427 478
f 425 480 473
f 425 473 472
f 425 472 426
f 425 479 480
f 427 430 478
f 429 481 430
f 430 481 482
f 430 482 478
f 431 483 484
f 431 484 435
f 431 435 432
f 431 434 485
f 431 485 483
f 434 468 485
f 435 484 436
f 436 484 487
f 436 487 486
f 437 486 488
f 437 488 550
f 437 550 489
f 438 490 493
f 438 493 440
f 439 441 491
f 439 491 492
f 439 492 443
f 439 443 442
f 440 493 554
f 440 554 494
f 440 494 441
f 441 494 495
f 441 495 496
f 441 496 491
f 443 492 491
f 443 491 497
f 443 497 498
f 443 498 499
f 443 499 444
f 444 499 500
f 444 500 446
f 444 446 445
f 446 500 568
f 446 568 501
f 446 501 447
f 447 502 448
f 447 501 502
f 448 503 449
f 448 502 504
f 448 504 505
f 448 505 573
f 448 573 506
f 448 506 570
f 448 570 503
f 449 503 570
f 449 570 507
f 450 507 506
f 450 506 508
f 450 508 509
f 450 509 451
f 451 509 510
f 451 510 452
f 452 510 511
f 452 511 454
f 452 454 453
f 454 512 513
f 454 513 514
f 454 514 515
f 454 515 455
f 454 511 510
f 454 510 516
f 454 516 512
f 455 515 456
f 456 515 514
f 456 514 517
f 456 517 518
f 456 518 519
f 456 519 458
f 461 520 521
f 461 521 522
f 461 522 523
f 461 523 462
f 461 524 589
f 461 589 520
f 462 523 525
f 462 525 526
f 462 526 464
f 463 467 527
f 463 527 528
f 463 528 524
f 464 526 529
f 464 529 468
f 465 469 530
f 465 530 531
f 465 531 466
f 466 531 527
f 466 527 467
f 468 532 533
f 468 533 485
f 468 529 532
f 469 534 535
f 469 535 530
f 469 471 536
f 469 536 537
f 469 537 534
f 471 477 476
f 471 476 536
f 473 480 538
f 473 538 474
f 474 538 539
f 474 539 540
f 474 540 541
f 474 541 542
f 474 542 475
f 475 542 543
f 475 543 536
f 475 536 476
f 479 540 539
f 479 539 538
f 479 538 544
f 479 544 480
f 480 544 538
f 483 487 484
f 483 485 533
f 483 533 532
f 483 532 545
f 483 545 487
f 486 487 488
f 487 545 546
f 487 546 547
f 487 547 548
f 487 548 488
f 488 548 549
f 488 549 618
f 488 618 550
f 489 550 551
f 489 551 493
f 489 493 490
f 491 496 552
f 491 552 499
f 491 499 497
f 493 553 554
f 493 551 555
f 493 555 556
f 493 556 553
f 494 554 557
f 494 557 558
f 494 558 559
f 494 559 495
f 495 559 558
f 495 558 560
f 495 560 561
f 495 561 562
f 495 562 496
f 496 562 563
f 496 563 564
f 496 564 565
f 496 565 552
f 497 499 498
f 499 552 565
f 499 565 566
f 499 566 567
f 499 567 568
f 499 568 500
f 501 568 502
f 502 569 504
f 502 568 636
f 502 636 569
f 504 569 571
f 504 571 505
f 505 571 572
f 505 572 640
f 505 640 573
f 506 573 574
f 506 574 575
f 506 575 508
f 506 507 570
f 508 575 576
f 508 576 509
f 509 577 510
f 509 576 578
f 509 578 579
f 509 579 580
f 509 580 577
f 510 577 516
f 512 581 583
f 512 583 513
f 512 516 581
f 513 582 586
f 513 586 514
f 513 583 584
f 513 584 585
f 513 585 519
f 513 519 582
f 514 586 517
f 516 577 580
f 516 580 581
f 517 586 518
f 518 586 519
f 519 586 582
f 520 587 588
f 520 588 521
f 520 589 654
f 520 654 587
f 521 588 590
f 521 590 591
f 521 591 592
f 521 592 593
f 521 593 523
f 521 523 522
f 523 593 525
f 524 528 594
f 524 594 595
f 524 595 589
f 525 529 526
f 525 593 596
f 525 596 597
f 525 597 529
f 527 531 598
f 527 598 528
f 528 599 600
f 528 600 594
f 528 598 599
f 529 597 532
f 530 535 598
f 530 598 531
f 532 597 596
f 532 596 601
f 532 601 545
f 534 602 535
f 534 537 602
f 535 603 604
f 535 604 605
f 535 605 598
f 535 602 613
f 535 613 606
f 535 606 603
f 536 543 607
f 536 607 537
f 537 607 608
f 537 608 609
f 537 609 540
f 537 540 610
f 537 610 611
f 537 611 612
f 537 612 613
f 537 613 602
f 540 609 608
f 540 608 541
f 541 608 542
f 542 608 607
f 542 607 543
f 545 601 596
f 545 596 614
f 545 614 615
f 545 615 616
f 545 616 547
f 545 547 546
f 547 617 548
f 547 616 617
f 548 617 549
f 549 617 619
f 549 619 618
f 550 618 551
f 551 618 555
f 553 556 620
f 553 620 554
f 554 620 557
f 555 620 556
f 555 618 621
f 555 621 622
f 555 622 623
f 555 623 624
f 555 624 625
f 555 625 626
f 555 626 627
f 555 627 620
f 557 620 558
f 558 620 628
f 558 628 561
f 558 561 629
f 558 629 560
f 560 629 561
f 561 563 562
f 561 628 630
f 561 630 631
f 561 631 632
f 561 632 633
f 561 633 563
f 563 633 634
f 563 634 564
f 564 634 635
f 564 635 565
f 565 635 566
f 566 635 636
f 566 636 567
f 567 636 568
f 569 636 571
f 571 636 635
f 571 635 637
f 571 637 572
f 572 637 638
f 572 638 639
f 572 639 688
f 572 688 640
f 573 640 641
f 573 641 642
f 573 642 574
f 574 642 575
f 575 642 643
f 575 643 578
f 575 578 576
f 578 644 645
f 578 645 579
f 578 643 691
f 578 691 644
f 579 645 580
f 580 646 647
f 580 647 648
f 580 648 581
f 580 645 644
f 580 644 646
f 581 648 585
f 581 585 649
f 581 649 583
f 583 649 584
f 584 649 650
f 584 650 585
f 585 650 649
f 587 651 652
f 587 652 653
f 587 653 588
f 587 654 700
f 587 700 651
f 588 653 590
f 589 595 655
f 589 655 656
f 589 656 654
f 590 657 591
f 590 653 657
f 591 657 658
f 591 658 659
f 591 659 660
f 591 660 593
f 591 593 592
f 593 660 661
f 593 661 614
f 593 614 596
f 594 600 605
f 594 605 662
f 594 662 663
f 594 663 664
f 594 664 595
f 595 664 655
f 598 600 599
f 598 605 600
f 603 665 605
f 603 605 604
f 603 606 666
f 603 666 667
f 603 667 665
f 605 665 662
f 606 613 668
f 606 668 666
f 610 669 670
f 610 670 611
f 611 670 612
f 612 671 613
f 612 670 672
f 612 672 671
f 613 671 668
f 614 661 659
f 614 659 673
f 614 673 615
f 615 673 658
f 615 658 617
f 615 617 616
f 617 622 619
f 617 658 622
f 618 619 622
f 618 622 621
f 620 627 674
f 620 674 675
f 620 675 628
f 622 658 676
f 622 676 623
f 623 676 624
f 624 676 677
f 624 677 678
f 624 678 679
f 624 679 625
f 625 679 680
f 625 680 626
f 626 680 627
f 627 680 681
f 627 681 674
f 628 675 674
f 628 674 630
f 630 674 683
f 630 683 631
f 631 682 632
f 631 683 684
f 631 684 685
f 631 685 682
f 632 682 633
f 633 682 634
f 634 682 638
f 634 638 637
f 634 637 635
f 638 685 686
f 638 686 639
f 638 682 685
f 639 686 687
f 639 687 722
f 639 722 688
f 640 688 689
f 640 689 690
f 640 690 641
f 641 690 642
f 642 690 691
f 642 691 643
f 644 691 692
f 644 692 693
f 644 693 694
f 644 694 695
f 644 695 646
f 646 695 647
f 647 695 696
f 647 696 648
f 648 697 698
f 648 696 697
f 651 699 702
f 651 702 652
f 651 700 701
f 651 701 699
f 652 702 679
f 652 679 678
f 652 678 677
f 652 677 703
f 652 703 653
f 653 703 657
f 654 656 655
f 654 655 704
f 654 704 705
f 654 705 735
f 654 735 701
f 654 701 700
f 655 664 706
f 655 706 704
f 657 703 707
f 657 707 658
f 658 673 659
f 658 707 708
f 658 708 676
f 659 661 660
f 662 665 664
f 662 664 663
f 664 665 709
f 664 709 710
f 664 710 706
f 665 667 712
f 665 712 711
f 665 711 709
f 666 668 667
f 667 668 712
f 668 671 713
f 668 713 712
f 669 714 715
f 669 715 672
f 669 672 670
f 671 672 715
f 671 715 714
f 671 714 716
f 671 716 713
f 674 681 717
f 674 717 683
f 676 708 677
f 677 708 707
f 677 707 703
f 679 702 718
f 679 718 680
f 680 718 681
f 681 719 687
f 681 687 717
f 681 718 747
f 681 747 720
f 681 720 748
f 681 748 719
f 683 717 684
f 684 717 687
f 684 687 686
f 684 686 685
f 687 719 721
f 687 721 752
f 687 752 722
f 688 722 723
f 688 723 724
f 688 724 689
f 689 724 690
f 690 724 725
f 690 725 726
f 690 726 692
f 690 692 727
f 690 727 691
f 691 727 692
f 692 726 725
f 692 725 728
f 692 728 729
f 692 729 730
f 692 730 693
f 693 730 694
f 694 730 731
f 694 731 695
f 695 731 732
f 695 732 733
f 695 733 734
f 695 734 696
f 696 734 697
f 697 734 698
f 699 701 735
f 699 735 702
f 702 735 747
f 702 747 718
f 704 706 736
f 704 736 705
f 705 736 739
f 705 739 737
f 705 737 738
f 705 738 735
f 706 710 739
f 706 739 736
f 709 740 710
f 709 711 741
f 709 741 742
f 709 742 743
f 709 743 766
f 709 766 740
f 710 740 739
f 711 712 741
f 712 713 744
f 712 744 745
f 712 745 746
f 712 746 742
f 712 742 741
f 713 716 744
f 714 744 716
f 719 748 752
f 719 752 721
f 720 747 749
f 720 749 750
f 720 750 751
f 720 751 722
f 720 722 748
f 722 752 748
f 722 751 753
f 722 753 723
f 723 753 724
f 724 753 754
f 724 754 725
f 725 754 755
f 725 755 728
f 728 755 756
f 728 756 777
f 728 777 757
f 728 757 758
f 728 758 759
f 728 759 729
f 729 759 730
f 730 760 761
f 730 761 733
f 730 733 731
f 730 759 760
f 731 733 732
f 735 738 762
f 735 762 747
f 737 739 738
f 738 739 763
f 738 763 764
f 738 764 762
f 739 740 765
f 739 765 763
f 740 766 782
f 740 782 765
f 742 746 767
f 742 767 745
f 742 745 768
f 742 768 769
f 742 769 770
f 742 770 771
f 742 771 766
f 742 766 743
f 745 767 746
f 747 762 772
f 747 772 749
f 749 772 773
f 749 773 750
f 750 774 755
f 750 755 775
f 750 775 751
f 750 773 776
f 750 776 777
f 750 777 774
f 751 775 753
f 753 775 755
f 753 755 754
f 755 774 756
f 756 774 777
f 757 777 778
f 757 778 758
f 758 778 779
f 758 779 780
f 758 780 761
f 758 761 781
f 758 781 760
f 758 760 759
f 760 781 761
f 762 764 772
f 763 765 782
f 763 782 783
f 763 783 764
f 764 784 785
f 764 785 786
f 764 786 772
f 764 783 784
f 766 771 787
f 766 787 783
f 766 783 782
f 769 788 770
f 770 788 789
f 770 789 787
f 770 787 771
f 772 786 785
f 772 785 790
f 772 790 773
f 773 790 785
f 773 785 791
f 773 791 776
f 776 791 777
f 777 792 793
f 777 793 778
f 777 791 792
f 778 793 779
f 779 793 794
f 779 794 780
f 780 794 795
f 783 787 796
f 783 796 797
f 783 797 798
f 783 798 800
f 783 800 799
f 783 799 784
f 784 799 785
f 785 799 800
f 785 800 801
f 785 801 802
f 785 802 791
f 791 802 792
f 792 802 801
f 792 801 803
f 792 803 804
f 792 804 805
f 792 805 793
f 793 795 794
f 796 806 807
f 796 807 808
f 796 808 797
f 796 805 806
f 797 808 798
f 798 808 800
f 800 808 807
f 800 807 806
f 800 806 801
f 801 806 809
f 801 809 803
f 803 809 804
f 804 809 810
f 804 810 805
f 805 810 809
f 805 809 806
o convex_1
v -0.0208282 0.854468 -0.104202
v -0.0208282 0.86488 -0.104202
v -0.0104039 0.844042 -0.104202
v -0.0208282 0.812347 -0.0937781
v -0.0260506 0.838843 -0.0989801
v -0.0416769 0.844042 -0.0937781
v -0.0416769 0.86488 -0.0937781
v -0.0277846 0.868361 -0.100714
v -0.0312526 0.927397 -0.0937781
v -0.0208282 0.937809 -0.0937781
v 0.0208282 0.86488 -0.104202
v 0.0104039 0.844042 -0.104202
v -0.0353325 0.812347 -0.0874337
v -0.0468789 0.828416 -0.0885557
v 0.0208282 0.812347 -0.0937781
v -0.0555692 0.840576 -0.0868218
v -0.0694615 0.857934 -0.0798858
v -0.0486128 0.868361 -0.0902897
v -0.0590372 0.930863 -0.0798858
v -0.0381885 0.930863 -0.0902897
v -0.0312526 0.939112 -0.0911669
v -0.0208282 0.944755 -0.0902897
v 0 0.951702 -0.0868218
v 0.0208282 0.937809 -0.0937781
v 0.0312526 0.927397 -0.0937781
v 0.0260506 0.870094 -0.101591
v 0.0208282 0.854468 -0.104202
v 0.0221338 0.844042 -0.101591
v -0.0561812 0.812347 -0.0770094
v -0.0573032 0.817989 -0.0781518
v -0.0538352 0.831896 -0.0850878
v 0.0429825 0.833629 -0.0911669
v 0.0442677 0.828416 -0.0885557
v 0.0486128 0.812347 -0.0798858
v -0.0677275 0.838843 -0.0781518
v -0.0763974 0.850988 -0.0763974
v -0.0659935 0.923917 -0.0763974
v -0.0694615 0.941289 -0.0694615
v -0.0573032 0.940416 -0.0781518
v -0.0364545 0.940416 -0.0885557
v -0.0260506 0.945629 -0.0885557
v -0.0104039 0.952146 -0.0833538
v -0.00520196 0.956056 -0.0781518
v 0 0.955182 -0.0798858
v 0.0312526 0.951702 -0.0763974
v 0.0260506 0.943022 -0.0911669
v 0.0364545 0.93261 -0.0911669
v 0.0573032 0.93261 -0.0807426
v 0.0468789 0.870094 -0.0911669
v 0.0416769 0.86488 -0.0937781
v 0.0416769 0.844042 -0.0937781
v -0.0770094 0.812347 -0.0561812
v -0.0659935 0.830149 -0.0763974
v 0.0555692 0.844042 -0.0868218
v 0.0555692 0.812347 -0.0763974
v -0.0763974 0.923917 -0.0659935
v -0.0763974 0.830149 -0.0659935
v -0.0781518 0.838843 -0.0677275
v -0.0868218 0.840576 -0.0555692
v -0.0798858 0.857934 -0.0694615
v -0.0677275 0.945629 -0.0677275
v -0.0798858 0.930863 -0.0590372
v -0.0781518 0.940416 -0.0573032
v -0.0468789 0.945629 -0.0781518
v -0.0416769 0.952146 -0.0729295
v 0 0.958662 -0.0729295
v -0.0364545 0.956056 -0.0677275
v 0.0312526 0.955182 -0.0694615
v 0.0416769 0.956056 -0.0638107
v 0.0521012 0.951702 -0.0659935
v 0.0573032 0.943022 -0.0755406
v 0.0625051 0.937809 -0.0768462
v 0.0416769 0.937809 -0.0872501
v 0.0659935 0.927397 -0.0763974
v 0.0677275 0.859681 -0.0807426
v 0.0694615 0.854468 -0.0798858
v -0.0781518 0.817989 -0.0573032
v -0.0874337 0.812347 -0.0353325
v -0.0885557 0.828416 -0.0468789
v 0.0763974 0.854468 -0.0763974
v 0.0659935 0.812347 -0.0659935
v -0.0850878 0.831896 -0.0538352
v -0.0937781 0.844042 -0.0416769
v -0.0937781 0.86488 -0.0416769
v -0.0902897 0.868361 -0.0486128
v -0.0781518 0.945629 -0.0468789
v -0.0729295 0.952146 -0.0416769
v -0.0625051 0.952146 -0.0625051
v -0.100714 0.868361 -0.0277846
v -0.0902897 0.930863 -0.0381885
v -0.0885557 0.940416 -0.0364545
v -0.0885557 0.945629 -0.0260506
v -0.0573032 0.956056 -0.0573032
v -0.0312526 0.958662 -0.0625051
v 0.0312526 0.958662 -0.0625051
v -0.0521012 0.958662 -0.0521012
v 0.0521012 0.958662 -0.0521012
v 0.0590372 0.955182 -0.0555692
v 0.0573032 0.953449 -0.0599144
v 0.0625051 0.950842 -0.0611995
v 0.0677275 0.943022 -0.0703183
v 0.0763974 0.927397 -0.0659935
v -0.0937781 0.812347 -0.0208282
v -0.0989801 0.838843 -0.0260506
v 0.0763974 0.812347 -0.0555692
v 0.0868218 0.86488 -0.0555692
v 0.0798858 0.854468 -0.0694615
v 0.0807426 0.849255 -0.0677275
v 0.0872501 0.833629 -0.0521012
v -0.104202 0.854468 -0.0208282
v -0.104202 0.86488 -0.0208282
v -0.0781518 0.956056 -0.00520196
v -0.0677275 0.956056 -0.0364545
v -0.0833538 0.952146 -0.0104039
v -0.0937781 0.927397 -0.0312526
v -0.0911669 0.939112 -0.0312526
v -0.0902897 0.944755 -0.0208282
v -0.0868218 0.951702 0
v -0.0625051 0.958662 -0.0312526
v 0.0625051 0.958662 -0.0312526
v 0.0694615 0.955182 -0.0347205
v 0.0677275 0.953449 -0.0442677
v 0.0694615 0.944755 -0.0659935
v 0.0781518 0.943022 -0.054692
v 0.0807426 0.937809 -0.0533864
v 0.0798858 0.927397 -0.0590372
v -0.0937781 0.812347 0.0208282
v -0.104202 0.844042 -0.0104039
v 0.079743 0.812347 -0.0488984
v 0.0937781 0.86488 -0.0416769
v 0.0937781 0.844042 -0.0416769
v 0.0911669 0.838843 -0.0468789
v 0.0937781 0.812347 -0.0208282
v -0.104202 0.86488 0.0208282
v -0.0937781 0.937809 -0.0208282
v -0.0729295 0.958662 0
v -0.0798858 0.955182 0
v -0.0937781 0.937809 0.0208282
v -0.0911669 0.943022 0.0260506
v -0.0763974 0.951702 0.0312526
v 0.0729295 0.958662 0
v 0.0798858 0.955182 -0.00346797
v 0.0902897 0.944755 -0.0242962
v 0.0885557 0.943022 -0.0338637
v 0.0911669 0.937809 -0.0325582
v 0.0937781 0.927397 -0.0312526
v -0.0911669 0.833629 0.0429825
v -0.101591 0.844042 0.0221338
v -0.104202 0.844042 0.0104039
v -0.0798858 0.812347 0.0486128
v -0.0885557 0.828416 0.0442677
v 0.104202 0.86488 -0.0208282
v 0.101591 0.849255 -0.0260506
v 0.104202 0.854468 -0.0208282
v 0.104202 0.844042 -0.0104039
v 0.0937781 0.812347 0.0208282
v -0.104202 0.854468 0.0208282
v -0.101591 0.870094 0.0260506
v -0.0937781 0.927397 0.0312526
v -0.0625051 0.958662 0.0312526
v -0.0694615 0.955182 0.0312526
v -0.0911669 0.93261 0.0364545
v -0.0872501 0.937809 0.0416769
v -0.0768462 0.937809 0.0625051
v -0.0755406 0.943022 0.0573032
v -0.0659935 0.951702 0.0521012
v -0.0638107 0.956056 0.0416769
v 0.0625051 0.958662 0.0312526
v 0.0868218 0.951702 0.00346797
v 0.0937781 0.937809 -0.0208282
v -0.0937781 0.844042 0.0416769
v -0.0763974 0.812347 0.0555692
v -0.0868218 0.844042 0.0555692
v 0.104202 0.86488 0.0208282
v 0.104202 0.844042 0.0104039
v 0.0911669 0.832326 0.0416769
v 0.0905141 0.812347 0.028621
v 0.101591 0.842738 0.0208282
v -0.0937781 0.86488 0.0416769
v -0.0911669 0.870094 0.0468789
v -0.0807426 0.93261 0.0573032
v -0.0521012 0.958662 0.0521012
v -0.0763974 0.927397 0.0659935
v -0.0703183 0.943022 0.0677275
v -0.0611995 0.950842 0.0625051
v -0.0599144 0.953449 0.0573032
v -0.0555692 0.955182 0.0590372
v 0.0521012 0.958662 0.0521012
v 0.0677275 0.953449 0.0468789
v 0.0763974 0.951702 0.0347205
v 0.0885557 0.943022 0.0364545
v 0.0902897 0.944755 0.0173603
v 0.0937781 0.937809 0.0208282
v -0.0798858 0.854468 0.0694615
v -0.0659935 0.812347 0.0659935
v -0.0763974 0.854468 0.0763974
v 0.104202 0.854468 0.0208282
v 0.0937781 0.927397 0.0312526
v 0.0972461 0.868361 0.0347205
v 0.0937781 0.86488 0.0416769
v 0.0937781 0.844042 0.0416769
v 0.0902897 0.840576 0.0486128
v 0.0885557 0.831023 0.0468789
v 0.0800898 0.812347 0.0494492
v -0.0807426 0.859681 0.0677275
v -0.0347205 0.955182 0.0694615
v -0.0312526 0.958662 0.0625051
v -0.0659935 0.927397 0.0763974
v -0.054692 0.943022 0.0781518
v -0.0659935 0.944755 0.0694615
v -0.0442677 0.953449 0.0677275
v 0.0555692 0.951702 0.0659935
v 0.0642391 0.949969 0.0642391
v 0.0659935 0.951702 0.0555692
v 0.0312526 0.958662 0.0625051
v 0.0468789 0.953449 0.0677275
v 0.0781518 0.943022 0.0573032
v 0.0868218 0.930863 0.0451449
v 0.0920441 0.936076 0.0295186
v -0.0555692 0.812347 0.0763974
v -0.0521012 0.833629 0.0872501
v -0.0677275 0.849255 0.0807426
v -0.0694615 0.854468 0.0798858
v -0.0555692 0.86488 0.0868218
v 0.0868218 0.868361 0.0555692
v 0.0798858 0.850988 0.0694615
v 0.0781518 0.841435 0.0677275
v 0.0781518 0.820596 0.0573032
v 0.0763974 0.812347 0.0555692
v -0.0338637 0.943022 0.0885557
v -0.0242962 0.944755 0.0902897
v -0.00346797 0.955182 0.0798858
v 0 0.958662 0.0729295
v -0.0590372 0.927397 0.0798858
v -0.0533864 0.937809 0.0807426
v -0.0325582 0.937809 0.0911669
v 0.0573032 0.943022 0.0781518
v 0.0347205 0.951702 0.0763974
v 0.0364545 0.943022 0.0885557
v 0.0746634 0.939556 0.0642391
v 0.0763974 0.930863 0.0659935
v -0.0488984 0.812347 0.079743
v -0.0208282 0.812347 0.0937781
v -0.0468789 0.838843 0.0911669
v -0.0416769 0.844042 0.0937781
v -0.0416769 0.86488 0.0937781
v 0.0763974 0.857934 0.0763974
v 0.0677275 0.841435 0.0781518
v 0.0659935 0.812347 0.0659935
v -0.0208282 0.937809 0.0937781
v 0.00346797 0.951702 0.0868218
v -0.0312526 0.927397 0.0937781
v 0.0659935 0.930863 0.0763974
v 0.0642391 0.939556 0.0746634
v 0.0451449 0.930863 0.0868218
v 0.0173603 0.944755 0.0902897
v 0.0208282 0.937809 0.0937781
v 0.0295186 0.936076 0.0920441
v 0.0312526 0.927397 0.0937781
v -0.0104039 0.844042 0.104202
v -0.0208282 0.854468 0.104202
v -0.0260506 0.849255 0.101591
v 0.0208282 0.812347 0.0937781
v -0.0208282 0.86488 0.104202
v 0.0555692 0.868361 0.0868218
v 0.0694615 0.850988 0.0798858
v 0.0573032 0.820596 0.0781518
v 0.0555692 0.812347 0.0763974
v 0.0468789 0.831023 0.0885557
v 0.0347205 0.868361 0.0972461
v 0.0208282 0.86488 0.104202
v 0.0104039 0.844042 0.104202
v 0.028621 0.812347 0.0905141
v 0.0416769 0.832326 0.0911669
v 0.0208282 0.842738 0.101591
v 0.0416769 0.86488 0.0937781
v 0.0416769 0.844042 0.0937781
v 0.0486128 0.840576 0.0902897
v 0.0494492 0.812347 0.0800898
v 0.0208282 0.854468 0.104202
f 811 812 821
f 811 821 837
f 811 837 822
f 811 822 813
f 811 813 814
f 811 814 815
f 811 815 816
f 811 816 827
f 811 827 817
f 811 817 812
f 812 817 818
f 812 818 819
f 812 819 820
f 812 820 834
f 812 834 821
f 813 822 825
f 813 825 814
f 814 823 824
f 814 824 815
f 814 825 844
f 814 844 865
f 814 865 891
f 814 891 915
f 814 915 939
f 814 939 943
f 814 943 966
f 814 966 987
f 814 987 1014
f 814 1014 1039
f 814 1039 1059
f 814 1059 1078
f 814 1078 1089
f 814 1089 1083
f 814 1083 1073
f 814 1073 1053
f 814 1053 1052
f 814 1052 1030
f 814 1030 1005
f 814 1005 982
f 814 982 960
f 814 960 937
f 814 937 913
f 814 913 888
f 814 888 862
f 814 862 839
f 814 839 823
f 815 824 816
f 816 824 826
f 816 826 827
f 817 828 818
f 817 827 828
f 818 828 829
f 818 829 830
f 818 830 819
f 819 830 831
f 819 831 820
f 820 831 832
f 820 832 833
f 820 833 834
f 821 834 835
f 821 835 836
f 821 836 860
f 821 860 886
f 821 886 861
f 821 861 837
f 822 837 838
f 822 838 825
f 823 839 824
f 824 839 840
f 824 840 841
f 824 841 826
f 825 838 842
f 825 842 843
f 825 843 844
f 826 841 840
f 826 840 845
f 826 845 846
f 826 846 827
f 827 846 847
f 827 847 829
f 827 829 828
f 829 847 848
f 829 848 849
f 829 849 850
f 829 850 830
f 830 850 831
f 831 850 851
f 831 851 832
f 832 851 833
f 833 851 852
f 833 852 853
f 833 853 854
f 833 854 878
f 833 878 855
f 833 855 856
f 833 856 834
f 834 856 835
f 835 857 836
f 835 856 857
f 836 857 858
f 836 858 859
f 836 859 860
f 837 861 838
f 838 861 842
f 839 862 867
f 839 867 863
f 839 863 840
f 840 863 845
f 842 861 864
f 842 864 865
f 842 865 843
f 843 865 844
f 845 863 846
f 846 866 847
f 846 863 867
f 846 867 868
f 846 868 869
f 846 869 870
f 846 870 866
f 847 866 848
f 848 871 849
f 848 866 872
f 848 872 873
f 848 873 871
f 849 871 874
f 849 874 851
f 849 851 850
f 851 874 875
f 851 875 852
f 852 875 853
f 853 876 854
f 853 875 877
f 853 877 904
f 853 904 876
f 854 876 905
f 854 905 878
f 855 878 879
f 855 879 880
f 855 880 856
f 856 880 881
f 856 881 882
f 856 882 883
f 856 883 857
f 857 883 882
f 857 882 858
f 858 882 884
f 858 884 885
f 858 885 859
f 859 885 886
f 859 886 860
f 861 886 864
f 862 887 867
f 862 888 889
f 862 889 887
f 864 886 890
f 864 890 865
f 865 890 891
f 866 870 872
f 867 887 868
f 868 887 869
f 869 887 892
f 869 892 889
f 869 889 893
f 869 893 870
f 870 893 920
f 870 920 921
f 870 921 894
f 870 894 895
f 870 895 872
f 871 873 896
f 871 896 897
f 871 897 898
f 871 898 875
f 871 875 874
f 872 895 899
f 872 899 900
f 872 900 901
f 872 901 873
f 873 901 902
f 873 902 896
f 875 898 903
f 875 903 877
f 876 904 906
f 876 906 929
f 876 929 946
f 876 946 970
f 876 970 992
f 876 992 1017
f 876 1017 1043
f 876 1043 1025
f 876 1025 998
f 876 998 978
f 876 978 951
f 876 951 930
f 876 930 907
f 876 907 905
f 877 903 906
f 877 906 904
f 878 905 879
f 879 907 908
f 879 908 909
f 879 909 880
f 879 905 907
f 880 909 910
f 880 910 911
f 880 911 881
f 881 911 882
f 882 911 884
f 884 911 912
f 884 912 890
f 884 890 885
f 885 890 886
f 887 889 892
f 888 913 889
f 889 913 914
f 889 914 893
f 890 915 891
f 890 912 916
f 890 916 917
f 890 917 918
f 890 918 919
f 890 919 915
f 893 914 920
f 894 921 899
f 894 899 895
f 896 902 897
f 897 922 923
f 897 923 903
f 897 903 898
f 897 902 924
f 897 924 922
f 899 921 925
f 899 925 900
f 900 925 926
f 900 926 901
f 901 926 902
f 902 926 927
f 902 927 928
f 902 928 924
f 903 923 906
f 906 923 929
f 907 930 931
f 907 931 908
f 908 931 932
f 908 932 934
f 908 934 933
f 908 933 910
f 908 910 909
f 910 933 911
f 911 933 934
f 911 934 912
f 912 934 935
f 912 935 936
f 912 936 916
f 913 937 959
f 913 959 938
f 913 938 920
f 913 920 914
f 915 919 939
f 916 936 940
f 916 940 917
f 917 940 962
f 917 962 964
f 917 964 963
f 917 963 941
f 917 941 942
f 917 942 918
f 918 942 919
f 919 942 943
f 919 943 939
f 920 938 959
f 920 959 967
f 920 967 944
f 920 944 921
f 921 944 948
f 921 948 945
f 921 945 925
f 922 946 929
f 922 929 923
f 922 924 928
f 922 928 947
f 922 947 946
f 925 945 926
f 926 945 927
f 927 945 928
f 928 945 948
f 928 948 949
f 928 949 950
f 928 950 971
f 928 971 947
f 930 951 952
f 930 952 931
f 931 952 953
f 931 953 954
f 931 954 932
f 932 954 934
f 934 954 955
f 934 955 935
f 935 955 936
f 936 955 956
f 936 956 962
f 936 962 940
f 937 957 958
f 937 958 959
f 937 960 961
f 937 961 957
f 941 963 942
f 942 963 943
f 943 963 964
f 943 964 965
f 943 965 985
f 943 985 966
f 944 967 981
f 944 981 1004
f 944 1004 989
f 944 989 968
f 944 968 969
f 944 969 948
f 946 947 971
f 946 971 970
f 948 969 949
f 949 969 972
f 949 972 973
f 949 973 974
f 949 974 975
f 949 975 976
f 949 976 950
f 950 976 977
f 950 977 971
f 951 978 1000
f 951 1000 979
f 951 979 952
f 952 979 953
f 953 979 980
f 953 980 955
f 953 955 954
f 955 980 956
f 956 980 962
f 957 981 958
f 957 961 982
f 957 982 983
f 957 983 981
f 958 967 959
f 958 981 967
f 960 982 961
f 962 984 1007
f 962 1007 985
f 962 985 965
f 962 965 964
f 962 980 1003
f 962 1003 984
f 966 986 987
f 966 985 988
f 966 988 986
f 968 989 990
f 968 990 991
f 968 991 972
f 968 972 969
f 970 971 977
f 970 977 992
f 972 991 974
f 972 974 973
f 974 993 994
f 974 994 975
f 974 991 993
f 975 994 976
f 976 995 996
f 976 996 977
f 976 994 995
f 977 996 997
f 977 997 992
f 978 998 999
f 978 999 1000
f 979 1001 1002
f 979 1002 1003
f 979 1003 980
f 979 1000 1001
f 981 983 1004
f 982 1005 1006
f 982 1006 983
f 983 1006 1004
f 984 1003 1008
f 984 1008 1009
f 984 1009 1035
f 984 1035 1010
f 984 1010 1036
f 984 1036 1011
f 984 1011 1007
f 985 1007 988
f 986 988 1011
f 986 1011 1012
f 986 1012 1013
f 986 1013 987
f 987 1013 1014
f 988 1007 1011
f 989 1004 990
f 990 1004 1015
f 990 1015 991
f 991 1015 993
f 992 1016 1017
f 992 997 1016
f 993 1006 1018
f 993 1018 994
f 993 1015 1006
f 994 1018 1019
f 994 1019 1020
f 994 1020 995
f 995 1020 997
f 995 997 996
f 997 1020 1019
f 997 1019 1021
f 997 1021 1016
f 998 1022 1023
f 998 1023 1024
f 998 1024 999
f 998 1025 1026
f 998 1026 1022
f 999 1024 1027
f 999 1027 1001
f 999 1001 1000
f 1001 1028 1008
f 1001 1008 1029
f 1001 1029 1003
f 1001 1003 1002
f 1001 1027 1028
f 1003 1029 1008
f 1004 1006 1015
f 1005 1030 1006
f 1006 1030 1031
f 1006 1031 1032
f 1006 1032 1033
f 1006 1033 1034
f 1006 1034 1018
f 1008 1028 1009
f 1009 1028 1051
f 1009 1051 1035
f 1010 1035 1036
f 1011 1036 1012
f 1012 1036 1037
f 1012 1037 1013
f 1013 1037 1038
f 1013 1038 1039
f 1013 1039 1014
f 1016 1021 1040
f 1016 1040 1041
f 1016 1041 1042
f 1016 1042 1043
f 1016 1043 1017
f 1018 1034 1044
f 1018 1044 1045
f 1018 1045 1019
f 1019 1045 1046
f 1019 1046 1040
f 1019 1040 1021
f 1022 1026 1047
f 1022 1047 1023
f 1023 1047 1027
f 1023 1027 1024
f 1025 1043 1061
f 1025 1061 1048
f 1025 1048 1026
f 1026 1048 1049
f 1026 1049 1047
f 1027 1047 1064
f 1027 1064 1050
f 1027 1050 1051
f 1027 1051 1028
f 1030 1052 1031
f 1031 1052 1053
f 1031 1053 1054
f 1031 1054 1032
f 1032 1054 1033
f 1033 1054 1055
f 1033 1055 1072
f 1033 1072 1071
f 1033 1071 1074
f 1033 1074 1056
f 1033 1056 1034
f 1034 1056 1044
f 1035 1051 1057
f 1035 1057 1036
f 1036 1057 1037
f 1037 1057 1058
f 1037 1058 1059
f 1037 1059 1039
f 1037 1039 1038
f 1040 1046 1041
f 1041 1046 1060
f 1041 1060 1061
f 1041 1061 1042
f 1042 1061 1043
f 1044 1056 1074
f 1044 1074 1062
f 1044 1062 1046
f 1044 1046 1045
f 1046 1062 1060
f 1047 1063 1064
f 1047 1049 1065
f 1047 1065 1063
f 1048 1061 1049
f 1049 1061 1066
f 1049 1066 1067
f 1049 1067 1068
f 1049 1068 1069
f 1049 1069 1065
f 1050 1064 1063
f 1050 1063 1051
f 1051 1063 1057
f 1053 1070 1071
f 1053 1071 1072
f 1053 1072 1054
f 1053 1073 1082
f 1053 1082 1070
f 1054 1072 1055
f 1057 1063 1075
f 1057 1075 1076
f 1057 1076 1058
f 1058 1077 1078
f 1058 1078 1059
f 1058 1076 1088
f 1058 1088 1079
f 1058 1079 1077
f 1060 1062 1074
f 1060 1074 1081
f 1060 1081 1067
f 1060 1067 1061
f 1061 1067 1066
f 1063 1065 1080
f 1063 1080 1075
f 1065 1069 1080
f 1067 1081 1069
f 1067 1069 1068
f 1069 1081 1080
f 1070 1082 1090
f 1070 1090 1081
f 1070 1081 1074
f 1070 1074 1071
f 1073 1083 1084
f 1073 1084 1085
f 1073 1085 1082
f 1075 1080 1081
f 1075 1081 1086
f 1075 1086 1076
f 1076 1087 1088
f 1076 1086 1081
f 1076 1081 1090
f 1076 1090 1087
f 1077 1079 1078
f 1078 1079 1089
f 1079 1088 1084
f 1079 1084 1083
f 1079 1083 1089
f 1082 1085 1090
f 1084 1088 1087
f 1084 1087 1085
f 1085 1087 1090
o convex_2
v -0.125043 0.376714 -0.0312607
v -0.125043 0.376714 0.0312607
v -0.125043 0.385583 -0.0312607
v -0.122497 0.376714 -0.0413464
v -0.117919 0.376714 0.0520931
v -0.125043 0.385583 0.0312607
v -0.125043 0.448097 0
v -0.114615 0.583571 0
v -0.104186 0.677299 -0.0208323
v -0.0937822 0.812304 -0.0208323
v -0.104186 0.646042 -0.0312607
v -0.122399 0.376714 -0.0415912
v -0.117405 0.376714 0.0531457
v -0.0911628 0.724205 0.0468789
v -0.101591 0.599136 0.0468789
v -0.104186 0.646042 0.0312607
v -0.0937822 0.812304 0.0208323
v -0.104186 0.677299 0.0208323
v -0.104186 0.71896 0
v -0.0874419 0.812304 -0.0353244
v -0.0937822 0.771069 -0.0312607
v -0.121861 0.376714 -0.0427907
v -0.0937822 0.71896 -0.0416647
v -0.10612 0.376714 0.0745166
v -0.0911628 0.661649 0.0573073
v -0.0937822 0.71896 0.0416647
v -0.0868299 0.71896 0.0555692
v -0.0807344 0.765867 0.0573073
v -0.0911628 0.776271 0.0364504
v -0.0937822 0.771069 0.0312607
v -0.0869768 0.812304 0.0344431
v -0.0770135 0.812304 -0.0561812
v -0.090306 0.774566 -0.0381885
v -0.090306 0.722457 -0.0486169
v -0.119829 0.377737 -0.0468789
v -0.119829 0.376714 -0.0468789
v -0.0973073 0.376714 0.0862914
v -0.0868299 0.573124 0.0764015
v -0.0868299 0.656447 0.0659731
v -0.0764015 0.760664 0.0659731
v -0.0764015 0.812304 0.0555692
v -0.0561812 0.812304 -0.0770135
v -0.0694492 0.78497 -0.0694492
v -0.0764015 0.757168 -0.0659731
v -0.0868299 0.652993 -0.0659731
v -0.090306 0.659943 -0.0590453
v -0.111138 0.409889 -0.0590453
v -0.10071 0.597387 -0.0486169
v -0.1094 0.377737 -0.0677112
v -0.119143 0.376714 -0.0482497
v -0.0860955 0.376714 0.0971114
v -0.0868299 0.479354 0.0868299
v -0.0764015 0.677299 0.0764015
v -0.0659731 0.760664 0.0764015
v -0.0703305 0.786719 0.0677112
v -0.0555692 0.812304 0.0764015
v -0.0659731 0.757168 -0.0764015
v -0.0353244 0.812304 -0.0874419
v -0.0381885 0.774566 -0.090306
v -0.0486169 0.722457 -0.090306
v -0.0590453 0.659943 -0.090306
v -0.0659731 0.652993 -0.0868299
v -0.0764015 0.673802 -0.0764015
v -0.0868299 0.56967 -0.0764015
v -0.0972338 0.455048 -0.0764015
v -0.108715 0.376714 -0.069082
v -0.0642106 0.376714 0.111212
v -0.0764015 0.458502 0.0972338
v -0.0764015 0.573124 0.0868299
v -0.0659731 0.656447 0.0868299
v -0.0555692 0.71896 0.0868299
v -0.0451408 0.771069 0.0868299
v -0.0312607 0.771069 0.0937822
v -0.0277846 0.812304 0.090306
v -0.0764015 0.56967 -0.0868299
v -0.0208323 0.812304 -0.0937822
v -0.0312607 0.771069 -0.0937822
v -0.0486169 0.597387 -0.10071
v -0.0590453 0.409889 -0.111138
v -0.0416647 0.71896 -0.0937822
v -0.0427907 0.376714 -0.121861
v -0.0468789 0.377737 -0.119829
v -0.0677112 0.377737 -0.1094
v -0.069082 0.376714 -0.108715
v -0.0764015 0.455048 -0.0972338
v -0.0868299 0.4759 -0.0868299
v -0.0968911 0.376714 -0.0854346
v -0.0997797 0.376714 -0.0817626
v -0.100857 0.376714 -0.0803917
v -0.0630845 0.376714 0.111873
v -0.0620319 0.376714 0.112411
v -0.0416647 0.71896 0.0937822
v -0.0312607 0.646042 0.104186
v -0.0208323 0.812304 0.0937822
v -0.0411995 0.376714 0.122815
v 0.0208323 0.812304 -0.0937822
v 0 0.71896 -0.104186
v -0.0208323 0.677299 -0.104186
v -0.0312607 0.385583 -0.125043
v -0.0312607 0.646042 -0.104186
v -0.0415912 0.376714 -0.122399
v -0.0468789 0.376714 -0.119829
v -0.0482497 0.376714 -0.119143
v -0.0803917 0.376714 -0.100857
v -0.0817626 0.376714 -0.0997797
v -0.0854346 0.376714 -0.0968911
v -0.090306 0.399485 -0.090306
v -0.0422522 0.376714 0.122301
v -0.0312607 0.385583 0.125043
v 0 0.71896 0.104186
v 0.0208323 0.812304 0.0937822
v -0.0208323 0.677299 0.104186
v -0.0312607 0.376714 0.125043
v 0.0344431 0.812304 -0.0869768
v 0.0364504 0.776271 -0.0911628
v 0.0312607 0.771069 -0.0937822
v 0.0312607 0.646042 -0.104186
v 0.0312607 0.385583 -0.125043
v 0.0208323 0.677299 -0.104186
v 0 0.583571 -0.114615
v 0 0.448097 -0.125043
v -0.0312607 0.376714 -0.125043
v -0.0413464 0.376714 -0.122497
v 0 0.448097 0.125043
v 0 0.583571 0.114615
v 0.0208323 0.677299 0.104186
v 0.0312607 0.771069 0.0937822
v 0.0286169 0.812304 0.0905019
v 0.0312607 0.385583 0.125043
v 0.0312607 0.646042 0.104186
v 0.0312607 0.376714 0.125043
v 0.0555692 0.812304 -0.0764015
v 0.0573073 0.765867 -0.0807344
v 0.0468789 0.724205 -0.0911628
v 0.0416647 0.71896 -0.0937822
v 0.0468789 0.599136 -0.101591
v 0.0520931 0.376714 -0.117919
v 0.0312607 0.376714 -0.125043
v 0.0416647 0.71896 0.0937822
v 0.0555692 0.722457 0.0868299
v 0.0451408 0.774566 0.0868299
v 0.0432558 0.376714 0.12164
v 0.0468789 0.380381 0.119829
v 0.0494492 0.812304 0.080098
v 0.0764015 0.812304 -0.0555692
v 0.0677112 0.786719 -0.0703305
v 0.0659731 0.760664 -0.0764015
v 0.0555692 0.71896 -0.0868299
v 0.0573073 0.661649 -0.0911628
v 0.0531457 0.376714 -0.117405
v 0.0659731 0.659943 0.0868299
v 0.0659731 0.764118 0.0764015
v 0.0677112 0.380381 0.1094
v 0.0539046 0.376714 0.116426
v 0.0555692 0.812304 0.0764015
v 0.090306 0.812304 -0.0277846
v 0.0937822 0.771069 -0.0312607
v 0.0868299 0.771069 -0.0451408
v 0.0764015 0.760664 -0.0659731
v 0.0764015 0.677299 -0.0764015
v 0.0764015 0.573124 -0.0868299
v 0.0659731 0.656447 -0.0868299
v 0.0745166 0.376714 -0.10612
v 0.0764015 0.57662 0.0868299
v 0.0746879 0.376714 0.105949
v 0.0871971 0.376714 0.0976255
v 0.0764015 0.764118 0.0659731
v 0.0677112 0.797123 0.0677112
v 0.0764015 0.680753 0.0764015
v 0.0764015 0.812304 0.0555692
v 0.0937822 0.812304 -0.0208323
v 0.0937822 0.71896 -0.0416647
v 0.0868299 0.71896 -0.0555692
v 0.104186 0.646042 -0.0312607
v 0.122815 0.376714 -0.0411995
v 0.0868299 0.656447 -0.0659731
v 0.0868299 0.573124 -0.0764015
v 0.0868299 0.479354 -0.0868299
v 0.0862914 0.376714 -0.0973073
v 0.0976255 0.376714 0.0871971
v 0.0868299 0.482808 0.0868299
v 0.0868299 0.774566 0.0451408
v 0.080098 0.812304 0.0494492
v 0.0868299 0.57662 0.0764015
v 0.0868299 0.659943 0.0659731
v 0.0868299 0.722457 0.0555692
v 0.0937822 0.812304 0.0208323
v 0.104186 0.71896 0
v 0.104186 0.677299 -0.0208323
v 0.125043 0.385583 -0.0312607
v 0.122301 0.376714 -0.0422522
v 0.112411 0.376714 -0.0620319
v 0.125043 0.376714 -0.0312607
v 0.111873 0.376714 -0.0630845
v 0.0972338 0.458502 -0.0764015
v 0.0971114 0.376714 -0.0860955
v 0.105949 0.376714 0.0746879
v 0.0937822 0.771069 0.0312607
v 0.0905019 0.812304 0.0286169
v 0.1094 0.380381 0.0677112
v 0.0937822 0.71896 0.0416647
v 0.119829 0.380381 0.0468789
v 0.104186 0.646042 0.0312607
v 0.125043 0.385583 0.0312607
v 0.104186 0.677299 0.0208323
v 0.114615 0.583571 0
v 0.125043 0.448097 0
v 0.125043 0.376714 0.0312607
v 0.111212 0.376714 -0.0642106
v 0.116426 0.376714 0.0539046
v 0.12164 0.376714 0.0432558
f 1091 1092 1096
f 1091 1096 1097
f 1091 1097 1093
f 1091 1093 1094
f 1091 1094 1102
f 1091 1102 1112
f 1091 1112 1126
f 1091 1126 1140
f 1091 1140 1156
f 1091 1156 1179
f 1091 1179 1178
f 1091 1178 1177
f 1091 1177 1196
f 1091 1196 1195
f 1091 1195 1194
f 1091 1194 1174
f 1091 1174 1193
f 1091 1193 1192
f 1091 1192 1171
f 1091 1171 1191
f 1091 1191 1213
f 1091 1213 1212
f 1091 1212 1228
f 1091 1228 1227
f 1091 1227 1240
f 1091 1240 1253
f 1091 1253 1269
f 1091 1269 1286
f 1091 1286 1299
f 1091 1299 1284
f 1091 1284 1282
f 1091 1282 1281
f 1091 1281 1265
f 1091 1265 1283
f 1091 1283 1298
f 1091 1298 1301
f 1091 1301 1300
f 1091 1300 1287
f 1091 1287 1270
f 1091 1270 1256
f 1091 1256 1255
f 1091 1255 1244
f 1091 1244 1232
f 1091 1232 1221
f 1091 1221 1203
f 1091 1203 1185
f 1091 1185 1198
f 1091 1198 1181
f 1091 1181 1180
f 1091 1180 1157
f 1091 1157 1141
f 1091 1141 1127
f 1091 1127 1114
f 1091 1114 1103
f 1091 1103 1095
f 1091 1095 1092
f 1092 1095 1096
f 1093 1097 1098
f 1093 1098 1099
f 1093 1099 1100
f 1093 1100 1101
f 1093 1101 1094
f 1094 1101 1102
f 1095 1103 1104
f 1095 1104 1105
f 1095 1105 1106
f 1095 1106 1096
f 1096 1106 1107
f 1096 1107 1108
f 1096 1108 1098
f 1096 1098 1097
f 1098 1108 1109
f 1098 1109 1099
f 1099 1109 1100
f 1100 1109 1107
f 1100 1107 1121
f 1100 1121 1131
f 1100 1131 1146
f 1100 1146 1164
f 1100 1164 1184
f 1100 1184 1201
f 1100 1201 1218
f 1100 1218 1234
f 1100 1234 1245
f 1100 1245 1260
f 1100 1260 1273
f 1100 1273 1289
f 1100 1289 1277
f 1100 1277 1261
f 1100 1261 1246
f 1100 1246 1235
f 1100 1235 1222
f 1100 1222 1204
f 1100 1204 1186
f 1100 1186 1166
f 1100 1166 1148
f 1100 1148 1132
f 1100 1132 1122
f 1100 1122 1110
f 1100 1110 1111
f 1100 1111 1101
f 1101 1111 1102
f 1102 1111 1113
f 1102 1113 1112
f 1103 1114 1115
f 1103 1115 1104
f 1104 1116 1105
f 1104 1115 1117
f 1104 1117 1118
f 1104 1118 1119
f 1104 1119 1120
f 1104 1120 1116
f 1105 1116 1120
f 1105 1120 1106
f 1106 1120 1107
f 1107 1120 1119
f 1107 1119 1121
f 1107 1109 1108
f 1110 1122 1123
f 1110 1123 1111
f 1111 1123 1124
f 1111 1124 1113
f 1112 1125 1126
f 1112 1113 1124
f 1112 1124 1125
f 1114 1127 1128
f 1114 1128 1129
f 1114 1129 1115
f 1115 1129 1117
f 1117 1130 1118
f 1117 1129 1130
f 1118 1131 1119
f 1118 1130 1131
f 1119 1131 1121
f 1122 1124 1123
f 1122 1132 1133
f 1122 1133 1134
f 1122 1134 1135
f 1122 1135 1136
f 1122 1136 1124
f 1124 1136 1137
f 1124 1137 1138
f 1124 1138 1125
f 1125 1137 1139
f 1125 1139 1156
f 1125 1156 1140
f 1125 1140 1126
f 1125 1138 1137
f 1127 1141 1142
f 1127 1142 1128
f 1128 1142 1143
f 1128 1143 1130
f 1128 1130 1129
f 1130 1143 1144
f 1130 1144 1145
f 1130 1145 1131
f 1131 1145 1146
f 1132 1147 1133
f 1132 1148 1149
f 1132 1149 1150
f 1132 1150 1151
f 1132 1151 1152
f 1132 1152 1147
f 1133 1147 1153
f 1133 1153 1134
f 1134 1153 1154
f 1134 1154 1135
f 1135 1154 1155
f 1135 1155 1156
f 1135 1156 1136
f 1136 1156 1139
f 1136 1139 1137
f 1141 1157 1158
f 1141 1158 1159
f 1141 1159 1142
f 1142 1159 1143
f 1143 1159 1144
f 1144 1159 1160
f 1144 1160 1161
f 1144 1161 1162
f 1144 1162 1146
f 1144 1146 1145
f 1146 1162 1163
f 1146 1163 1164
f 1147 1152 1165
f 1147 1165 1153
f 1148 1166 1167
f 1148 1167 1149
f 1149 1167 1150
f 1150 1168 1169
f 1150 1169 1151
f 1150 1167 1170
f 1150 1170 1171
f 1150 1171 1172
f 1150 1172 1168
f 1151 1169 1173
f 1151 1173 1174
f 1151 1174 1152
f 1152 1174 1175
f 1152 1175 1165
f 1153 1165 1176
f 1153 1176 1154
f 1154 1176 1155
f 1155 1176 1177
f 1155 1177 1178
f 1155 1178 1179
f 1155 1179 1156
f 1157 1180 1158
f 1158 1180 1160
f 1158 1160 1159
f 1160 1180 1181
f 1160 1181 1161
f 1161 1182 1163
f 1161 1163 1162
f 1161 1181 1198
f 1161 1198 1182
f 1163 1183 1184
f 1163 1184 1164
f 1163 1182 1185
f 1163 1185 1183
f 1165 1175 1176
f 1166 1186 1187
f 1166 1187 1188
f 1166 1188 1189
f 1166 1189 1190
f 1166 1190 1167
f 1167 1190 1191
f 1167 1191 1170
f 1168 1172 1169
f 1169 1172 1173
f 1170 1191 1171
f 1171 1192 1172
f 1172 1192 1193
f 1172 1193 1174
f 1172 1174 1173
f 1174 1194 1175
f 1175 1194 1195
f 1175 1195 1196
f 1175 1196 1176
f 1176 1196 1197
f 1176 1197 1177
f 1177 1197 1196
f 1182 1198 1185
f 1183 1185 1199
f 1183 1199 1184
f 1184 1200 1201
f 1184 1199 1202
f 1184 1202 1200
f 1185 1203 1199
f 1186 1204 1205
f 1186 1205 1206
f 1186 1206 1207
f 1186 1207 1208
f 1186 1208 1209
f 1186 1209 1187
f 1187 1209 1210
f 1187 1210 1188
f 1188 1210 1189
f 1189 1211 1208
f 1189 1208 1228
f 1189 1228 1212
f 1189 1212 1213
f 1189 1213 1190
f 1189 1210 1211
f 1190 1213 1191
f 1199 1203 1221
f 1199 1221 1219
f 1199 1219 1214
f 1199 1214 1215
f 1199 1215 1202
f 1200 1202 1215
f 1200 1215 1216
f 1200 1216 1201
f 1201 1217 1218
f 1201 1216 1219
f 1201 1219 1220
f 1201 1220 1217
f 1204 1222 1205
f 1205 1222 1223
f 1205 1223 1224
f 1205 1224 1206
f 1206 1224 1225
f 1206 1225 1226
f 1206 1226 1207
f 1207 1226 1227
f 1207 1227 1208
f 1208 1227 1228
f 1208 1211 1210
f 1208 1210 1209
f 1214 1219 1215
f 1215 1219 1216
f 1217 1229 1230
f 1217 1230 1231
f 1217 1231 1218
f 1217 1220 1232
f 1217 1232 1233
f 1217 1233 1229
f 1218 1231 1234
f 1219 1221 1232
f 1219 1232 1220
f 1222 1235 1236
f 1222 1236 1237
f 1222 1237 1223
f 1223 1237 1238
f 1223 1238 1224
f 1224 1238 1239
f 1224 1239 1240
f 1224 1240 1227
f 1224 1227 1226
f 1224 1226 1225
f 1229 1233 1230
f 1230 1241 1242
f 1230 1242 1231
f 1230 1233 1243
f 1230 1243 1241
f 1231 1242 1234
f 1232 1244 1233
f 1233 1244 1243
f 1234 1242 1245
f 1235 1246 1247
f 1235 1247 1248
f 1235 1248 1249
f 1235 1249 1236
f 1236 1249 1237
f 1237 1249 1250
f 1237 1250 1251
f 1237 1251 1252
f 1237 1252 1238
f 1238 1252 1239
f 1239 1252 1253
f 1239 1253 1240
f 1241 1254 1242
f 1241 1243 1255
f 1241 1255 1256
f 1241 1256 1254
f 1242 1257 1258
f 1242 1258 1245
f 1242 1254 1259
f 1242 1259 1257
f 1243 1244 1255
f 1245 1258 1260
f 1246 1261 1247
f 1247 1262 1263
f 1247 1263 1248
f 1247 1261 1264
f 1247 1264 1265
f 1247 1265 1262
f 1248 1263 1249
f 1249 1263 1266
f 1249 1266 1267
f 1249 1267 1250
f 1250 1267 1268
f 1250 1268 1251
f 1251 1268 1269
f 1251 1269 1253
f 1251 1253 1252
f 1254 1256 1259
f 1256 1270 1271
f 1256 1271 1259
f 1257 1272 1273
f 1257 1273 1260
f 1257 1260 1258
f 1257 1259 1274
f 1257 1274 1275
f 1257 1275 1276
f 1257 1276 1272
f 1259 1271 1270
f 1259 1270 1274
f 1261 1277 1278
f 1261 1278 1279
f 1261 1279 1280
f 1261 1280 1264
f 1262 1265 1281
f 1262 1281 1282
f 1262 1282 1263
f 1263 1282 1266
f 1264 1280 1265
f 1265 1280 1283
f 1266 1282 1284
f 1266 1284 1285
f 1266 1285 1267
f 1267 1285 1286
f 1267 1286 1268
f 1268 1286 1269
f 1270 1287 1275
f 1270 1275 1274
f 1272 1288 1289
f 1272 1289 1273
f 1272 1276 1288
f 1275 1287 1290
f 1275 1290 1276
f 1276 1291 1288
f 1276 1290 1292
f 1276 1292 1291
f 1277 1289 1288
f 1277 1288 1293
f 1277 1293 1294
f 1277 1294 1295
f 1277 1295 1278
f 1278 1296 1279
f 1278 1295 1296
f 1279 1296 1280
f 1280 1297 1294
f 1280 1294 1298
f 1280 1298 1283
f 1280 1296 1297
f 1284 1299 1285
f 1285 1299 1286
f 1287 1300 1290
f 1288 1291 1292
f 1288 1292 1301
f 1288 1301 1293
f 1290 1300 1292
f 1292 1300 1301
f 1293 1301 1294
f 1294 1301 1298
f 1294 1297 1296
f 1294 1296 1295
