# https://github.com/mikedh/trimesh
v -0.71749800 -0.37678500 0.45697100
v -0.70014200 -0.33132800 0.43827100
v -0.71617400 -0.37944900 0.45429900
v -0.71617400 -0.47560600 0.45429900
v -0.71617400 -0.48101900 0.45964200
v -0.71617400 -0.38477700 0.45964200
v -0.58791400 0.24045600 0.47567900
v -0.58923800 0.24844700 0.47299800
v -0.59323800 0.24045600 0.46498400
v -0.58923800 0.26451600 0.45697100
v -0.59056100 0.25918800 0.45162800
v -0.59323800 0.22447200 0.43292900
v -0.58791400 0.22980000 0.42223400
v -0.68946300 -0.33665600 0.43292900
v -0.71082000 -0.39010500 0.44361400
v -0.71082000 -0.45429500 0.44361400
v -0.71349700 -0.48901100 0.45697100
v -0.71349700 -0.48901100 0.46097700
v -0.70549600 -0.48101900 0.46498400
v -0.70549600 -0.38477700 0.46498400
v -0.57720600 0.24045600 0.48102100
v -0.57920600 0.25652500 0.47701400
v -0.58123600 0.26451600 0.47299800
v -0.58256000 0.27792100 0.44895700
v -0.58791400 0.26718000 0.44895700
v -0.58523700 0.26855500 0.44094300
v -0.55320100 0.30060700 0.42490600
v -0.57720600 0.22447200 0.41689200
v -0.68946300 -0.40084600 0.43292900
v -0.51310500 0.22644900 0.40486200
v -0.70014200 -0.44355400 0.43827100
v -0.69746500 -0.45695900 0.44094300
v -0.70549600 -0.48101900 0.44895700
v -0.70014200 -0.49167500 0.45429900
v -0.69746500 -0.49305000 0.45697100
v -0.70549600 -0.49167500 0.45964200
v -0.69478800 -0.48634700 0.45964200
v -0.44897500 0.17635100 0.49705800
v -0.56120300 0.25652500 0.48102100
v -0.45432900 0.37940600 0.47567900
v -0.46100600 0.37674200 0.47299800
v -0.47036100 0.37407800 0.44895700
v -0.55587800 0.29923200 0.43292900
v -0.45697600 0.38078100 0.44094300
v -0.46500700 0.37072700 0.43693600
v -0.54517000 0.29923200 0.42223400
v -0.69478800 -0.44888100 0.43827100
v -0.49507200 0.22447200 0.40486200
v -0.48904100 0.23246400 0.40486200
v -0.45697600 0.18434300 0.42089900
v -0.53716900 0.29656800 0.42089900
v -0.69346400 -0.45695900 0.44094300
v -0.69346400 -0.48901100 0.45697100
v -0.43826700 0.17102300 0.49170700
v -0.41702700 0.27250800 0.48102100
v -0.44897500 0.36677400 0.47701400
v -0.44094400 0.37674200 0.47299800
v -0.44897500 0.38481900 0.46498400
v -0.45965300 0.37940600 0.46498400
v -0.44897500 0.38481900 0.44895700
v -0.44897500 0.37940600 0.43827100
v -0.44897500 0.36875000 0.43292900
v -0.44094400 0.24844700 0.42089900
v -0.41702700 0.25652500 0.43288400
v -0.41702700 0.25635300 0.43292900
v -0.41702700 0.24440800 0.43690900
v -0.45297500 0.18434300 0.42490600
v -0.68343300 -0.44888100 0.44895700
v -0.43694300 0.16827400 0.45697100
v -0.43294200 0.17635100 0.46498400
v -0.43294200 0.17635100 0.48102100
v -0.41702700 0.25643900 0.48098500
v -0.41702700 0.27242200 0.48102100
v -0.41702700 0.27276600 0.48091300
v -0.43826700 0.37940600 0.45964200
v -0.41702700 0.28324900 0.47567900
v -0.43826700 0.37940600 0.44361400
v -0.44094400 0.37674200 0.43693600
v -0.41702700 0.27242200 0.43288400
v -0.41702700 0.24045600 0.44884800
v -0.41702700 0.24045600 0.46498400
v -0.41702700 0.24569700 0.47559700
v -0.41702700 0.24578300 0.47567900
v -0.43294200 0.36875000 0.44895700
v -0.41702700 0.28866300 0.46487600
v -0.43826700 0.36875000 0.43827100
v -0.41702700 0.28324900 0.43827100
v -0.41702700 0.28866300 0.44902000
f 1 2 3
f 49 62 63
f 49 63 50
f 50 63 64
f 50 64 65
f 50 65 66
f 50 66 67
f 50 67 52
f 52 68 53
f 52 67 66
f 52 66 68
f 53 68 66
f 53 66 69
f 53 69 70
f 53 70 71
f 53 71 54
f 54 71 72
f 54 72 73
f 49 51 62
f 47 50 52
f 46 62 51
f 45 62 46
f 35 53 37
f 37 53 54
f 37 54 38
f 38 54 55
f 38 55 56
f 38 56 40
f 38 40 39
f 40 56 57
f 54 73 55
f 40 57 58
f 41 58 59
f 41 59 42
f 42 59 58
f 42 58 60
f 42 60 44
f 44 60 61
f 44 61 45
f 45 61 62
f 40 58 41
f 55 72 83
f 55 83 82
f 55 82 81
f 63 79 64
f 66 80 70
f 66 70 69
f 70 80 81
f 70 81 71
f 71 81 82
f 71 82 83
f 71 83 72
f 63 78 79
f 75 76 84
f 76 85 84
f 77 84 86
f 77 86 78
f 78 86 79
f 79 86 87
f 84 85 88
f 84 88 87
f 84 87 86
f 75 84 77
f 34 52 53
f 62 78 63
f 60 78 61
f 55 81 80
f 55 80 66
f 55 66 65
f 55 65 64
f 55 64 79
f 55 79 87
f 55 87 88
f 55 88 85
f 61 78 62
f 55 85 76
f 55 74 57
f 55 57 56
f 57 75 58
f 57 74 76
f 57 76 75
f 58 75 77
f 58 77 60
f 60 77 78
f 55 76 74
f 34 53 35
f 55 73 72
f 32 52 33
f 5 18 19
f 5 19 20
f 5 20 6
f 6 20 7
f 7 21 22
f 7 22 8
f 7 20 21
f 8 22 23
f 4 17 5
f 8 23 10
f 10 23 24
f 10 24 25
f 10 25 11
f 11 25 12
f 12 25 26
f 12 26 13
f 13 26 27
f 13 27 28
f 8 10 9
f 13 28 14
f 4 16 17
f 3 15 16
f 33 52 34
f 1 3 4
f 1 4 5
f 1 5 6
f 1 6 7
f 1 7 8
f 1 8 9
f 1 9 10
f 3 16 4
f 1 10 11
f 1 12 13
f 1 13 2
f 2 14 29
f 2 29 31
f 2 31 16
f 2 16 15
f 2 15 3
f 2 13 14
f 1 11 12
f 14 28 30
f 5 17 18
f 32 47 52
f 24 42 43
f 24 43 27
f 24 27 26
f 27 43 42
f 27 42 44
f 27 44 45
f 27 45 46
f 28 46 30
f 24 41 42
f 29 47 31
f 29 48 49
f 29 49 50
f 29 50 47
f 30 46 51
f 30 51 49
f 30 49 48
f 31 47 32
f 14 30 29
f 29 30 48
f 24 26 25
f 27 46 28
f 16 31 32
f 23 41 24
f 16 32 33
f 16 33 17
f 17 34 35
f 17 35 36
f 17 36 18
f 18 36 19
f 19 36 35
f 19 35 37
f 17 33 34
f 23 40 41
f 19 38 20
f 20 38 21
f 21 38 39
f 21 39 22
f 22 39 40
f 22 40 23
f 19 37 38

