# https://github.com/mikedh/trimesh
v 0.19240300 0.33671700 0.48102100
v 0.27299200 0.31643600 0.48147100
v 0.25653500 0.32067600 0.48102100
v 0.27299200 0.32067600 0.46497200
v 0.19240300 0.33671700 0.46497200
v 0.09616700 0.33671700 0.52912200
v 0.09084840 0.33137700 0.55576900
v 0.09123380 0.33128900 0.55576900
v 0.10368200 0.32816900 0.55576900
v 0.24851800 0.31265600 0.50507100
v 0.26185400 0.30997600 0.50238900
v 0.27299200 0.31265600 0.48902300
v 0.27299200 0.31676500 0.44744400
v 0.16033700 0.33671700 0.41689200
v 0.08302460 0.33181700 0.55576900
v 0.01604090 0.33671700 0.52912200
v 0.12025500 0.31265600 0.55576900
v 0.21645300 0.31265600 0.52109800
v 0.27299200 0.29661600 0.50507100
v 0.27299200 0.30419700 0.49749800
v 0.27299200 0.30509700 0.49659700
v 0.27299200 0.31663300 0.44714400
v 0.17101300 0.31533700 0.36344900
v 0.16033700 0.32067600 0.36879100
v 0.11223800 0.33269600 0.36679600
v 0.09616700 0.33671700 0.36879100
v 0.02667810 0.32634600 0.55576900
v -0.06412380 0.33671700 0.48102100
v -0.11222300 0.32067600 0.49704700
v -0.11758000 0.31533700 0.50773200
v 0.01072220 0.33135500 0.53980600
v 0.12626700 0.30544900 0.55576900
v 0.27299200 0.28905700 0.50884700
v 0.27299200 0.31643600 0.44682200
v 0.16835400 0.31265600 0.35677600
v 0.10418300 0.32869700 0.35677600
v 0.09616700 0.33135500 0.35810700
v 0.01604090 0.33671700 0.36879100
v 0.01064520 0.32067600 0.55576900
v -0.06412380 0.33671700 0.44894600
v -0.12066300 0.32067600 0.48859400
v -0.12066300 0.31878700 0.49704700
v -0.12066300 0.31564500 0.50511400
v -0.12066300 0.31270000 0.50807500
v 0.00355366 0.31713900 0.55576900
v 0.12792500 0.30041700 0.55576900
v 0.27299200 0.27257700 0.51307400
v 0.27299200 0.30867900 0.43517200
v 0.27299200 0.29914300 0.42217000
v 0.27299200 0.28905700 0.41712900
v 0.15694600 0.27506000 0.33660900
v 0.15232100 0.28059700 0.33660900
v 0.13628800 0.29661600 0.33660900
v 0.13073800 0.30125200 0.33660900
v 0.12827100 0.30202100 0.33660900
v 0.11223800 0.30463600 0.33660900
v 0.01604090 0.33135500 0.35810700
v 0.00802439 0.33269600 0.36078900
v -0.07214030 0.33269600 0.44094300
v -0.12066300 0.32067600 0.44894600
v -0.12066300 0.30463600 0.51120700
v -0.00006916 0.30991000 0.55576900
v -0.12066300 0.29617600 0.51307400
v 0.12900400 0.29033100 0.55576900
v 0.27299200 0.25697600 0.51307400
v 0.27299200 0.28859600 0.41706400
v 0.15767800 0.27257700 0.33660900
v 0.01604090 0.30463600 0.33660900
v -0.01587090 0.29459400 0.33660900
v -0.04007440 0.31665500 0.36078900
v -0.12066300 0.31533700 0.43828300
v -0.00268993 0.30463600 0.55576900
v -0.12066300 0.25653700 0.51307400
v -0.08015680 0.28859600 0.52912200
v 0.12603600 0.28116900 0.55576900
v 0.27299200 0.25647100 0.51296700
v 0.09543470 0.21907300 0.55576900
v 0.08572250 0.20492200 0.55576900
v 0.27299200 0.27257700 0.41689200
v 0.16033700 0.25640500 0.33660900
v -0.01602500 0.29452800 0.33660900
v -0.04273370 0.30997600 0.35810700
v -0.12066300 0.30997600 0.42759800
v -0.01614060 0.29446200 0.33660900
v -0.00800855 0.28859600 0.55576900
v -0.12066300 0.23293800 0.50895500
v -0.12023900 0.23247600 0.50908300
v -0.08817320 0.24851700 0.52511000
v -0.08015680 0.25653700 0.52912200
v -0.01082200 0.27257700 0.55576900
v -0.00920331 0.28275100 0.55576900
v 0.27299200 0.24610000 0.50777500
v 0.16033700 0.19241900 0.52912200
v 0.17101300 0.18708000 0.52378000
v 0.08186840 0.20129600 0.55576900
v 0.27299200 0.25653700 0.41689200
v 0.16033700 0.24049600 0.33660900
v -0.02666230 0.28327800 0.33660900
v -0.03598910 0.27060000 0.33660900
v -0.05876670 0.27791700 0.35810700
v -0.12066300 0.28859600 0.41689200
v -0.12066300 0.29929700 0.42223500
v -0.12066300 0.30435000 0.42476600
v -0.12066300 0.23225600 0.50852500
v -0.07214030 0.18439900 0.50908300
v -0.04007440 0.18439900 0.52511000
v 0.02679370 0.20314200 0.55576900
v -0.00912623 0.25653700 0.55576900
v -0.00989704 0.26266700 0.55576900
v 0.27299200 0.23568400 0.50254000
v 0.16835400 0.18040000 0.52109800
v 0.27299200 0.23535500 0.50234600
v 0.07485400 0.19775900 0.55576900
v 0.27299200 0.24449500 0.42191300
v 0.15020100 0.19226500 0.33660900
v 0.16026000 0.22436800 0.33660900
v -0.03999730 0.25640500 0.33660900
v -0.05340950 0.25119700 0.34742200
v -0.12066300 0.27163200 0.41500400
v -0.12066300 0.22911400 0.50316200
v -0.07614850 0.18439900 0.50507100
v 0.00536508 0.11760000 0.39018100
v 0.01604090 0.11223900 0.38483900
v -0.06412380 0.18174000 0.50773200
v -0.04809090 0.18040000 0.51509100
v -0.03205800 0.18174000 0.52378000
v 0.04922440 0.19349600 0.55576900
v 0.16033700 0.17637900 0.51307400
v 0.18438700 0.18040000 0.50507100
v 0.06413970 0.19241900 0.55576900
v 0.27299200 0.22981700 0.49170500
v 0.27299200 0.23515700 0.42759800
v 0.13894700 0.18167400 0.33660900
v -0.03201940 0.20848100 0.33660900
v -0.12066300 0.24807700 0.41311600
v -0.12066300 0.25275700 0.41311600
v -0.12066300 0.22658700 0.49809800
v -0.12066300 0.21669900 0.46866300
v 0.00802439 0.12025900 0.37681500
v -0.12066300 0.21669900 0.44117900
v -0.12066300 0.21691900 0.44051400
v -0.03205800 0.17637900 0.51307400
v 0.01873870 0.11492000 0.37147300
v 0.03207380 0.11223900 0.36879100
v 0.24851800 0.21245900 0.45697000
v 0.27299200 0.22447800 0.44894600
v 0.27299200 0.22447800 0.48102100
v 0.27299200 0.22461000 0.48132100
v 0.27299200 0.22946600 0.43693100
v 0.14831300 0.18439900 0.34474000
v 0.06429380 0.13425600 0.33660900
v -0.12066300 0.23898000 0.41539100
v -0.02238420 0.18602500 0.33660900
v 0.01072220 0.12294000 0.36344900
v -0.12066300 0.22757600 0.42446600
v 0.02675520 0.12294000 0.34742200
v 0.04814530 0.12830100 0.33660900
v 0.04278810 0.11760000 0.36879100
v -0.12066300 0.23203700 0.42002500
v 0.03615910 0.13236600 0.33660900
v -0.04007440 0.18439900 0.36078900
f 76 93 94
f 76 78 93
f 74 91 85
f 78 95 93
f 74 90 91
f 76 94 92
f 74 89 90
f 70 84 82
f 73 87 88
f 73 86 87
f 72 74 85
f 70 81 84
f 70 83 71
f 69 81 70
f 79 96 97
f 70 82 83
f 73 88 89
f 79 97 80
f 88 107 108
f 82 98 99
f 93 95 94
f 66 80 67
f 92 94 110
f 89 109 90
f 89 108 109
f 88 108 89
f 87 107 88
f 82 84 98
f 87 106 107
f 87 104 105
f 86 104 87
f 82 103 83
f 82 102 103
f 82 101 102
f 82 100 101
f 82 99 100
f 87 105 106
f 66 79 80
f 51 157 160
f 65 77 78
f 51 98 84
f 51 99 98
f 51 117 99
f 51 134 117
f 51 153 134
f 51 160 153
f 51 151 157
f 51 84 81
f 51 133 151
f 51 116 115
f 51 97 116
f 51 80 97
f 51 67 80
f 50 67 51
f 50 66 67
f 94 95 111
f 51 115 133
f 65 78 76
f 51 81 69
f 51 68 56
f 65 75 77
f 64 75 65
f 63 74 72
f 63 89 74
f 63 73 89
f 62 63 72
f 60 70 71
f 51 69 68
f 58 60 59
f 58 69 70
f 58 68 69
f 57 68 58
f 51 53 52
f 51 54 53
f 51 55 54
f 51 56 55
f 58 70 60
f 94 111 112
f 139 141 154
f 95 113 111
f 134 153 152
f 134 152 135
f 133 150 151
f 133 149 150
f 132 149 133
f 129 144 145
f 129 148 131
f 47 64 65
f 129 147 148
f 129 145 146
f 128 144 129
f 126 130 127
f 126 142 130
f 125 142 126
f 123 128 130
f 123 144 128
f 129 146 147
f 123 143 144
f 141 155 154
f 143 154 156
f 156 160 157
f 155 159 161
f 154 155 161
f 153 161 159
f 153 154 161
f 153 156 154
f 153 160 156
f 143 156 144
f 152 153 159
f 146 151 150
f 146 158 151
f 144 146 145
f 144 158 146
f 144 151 158
f 144 157 151
f 144 156 157
f 146 150 149
f 123 154 143
f 123 139 154
f 123 125 124
f 106 126 127
f 106 125 126
f 105 125 106
f 105 124 125
f 105 123 124
f 105 122 123
f 105 121 122
f 106 127 107
f 104 121 105
f 101 118 119
f 100 118 101
f 100 117 118
f 99 117 100
f 96 116 97
f 96 115 116
f 96 114 115
f 104 120 121
f 111 128 129
f 111 129 112
f 111 113 130
f 123 142 125
f 123 130 142
f 122 141 139
f 122 140 141
f 122 138 140
f 122 139 123
f 121 138 122
f 121 137 138
f 120 137 121
f 118 136 119
f 118 135 136
f 118 134 135
f 117 134 118
f 115 132 133
f 114 132 115
f 112 129 131
f 111 130 128
f 94 112 110
f 46 64 47
f 40 59 60
f 45 61 63
f 7 85 91
f 7 72 85
f 7 62 72
f 7 45 62
f 7 39 45
f 7 27 39
f 7 15 27
f 7 91 90
f 6 16 15
f 45 63 62
f 4 13 14
f 2 13 4
f 2 22 13
f 2 34 22
f 2 48 34
f 2 49 48
f 6 15 7
f 2 50 49
f 7 90 109
f 7 108 107
f 9 11 10
f 9 18 11
f 9 17 18
f 7 9 8
f 7 17 9
f 7 32 17
f 7 46 32
f 7 109 108
f 7 64 46
f 7 77 75
f 7 78 77
f 7 95 78
f 7 113 95
f 7 130 113
f 7 127 130
f 7 107 127
f 7 75 64
f 11 19 20
f 2 66 50
f 2 96 79
f 2 9 10
f 2 8 9
f 2 4 3
f 1 8 2
f 1 7 8
f 1 6 7
f 1 16 6
f 2 10 11
f 1 28 16
f 1 38 40
f 1 26 38
f 1 14 26
f 1 5 14
f 1 4 5
f 1 3 4
f 1 2 3
f 1 40 28
f 2 79 66
f 2 11 12
f 2 21 20
f 2 114 96
f 2 132 114
f 2 149 132
f 2 146 149
f 2 147 146
f 2 148 147
f 2 131 148
f 2 12 21
f 2 112 131
f 2 92 110
f 2 76 92
f 2 65 76
f 2 47 65
f 2 33 47
f 2 19 33
f 2 20 19
f 2 110 112
f 11 20 21
f 4 14 5
f 11 18 19
f 41 102 101
f 41 103 102
f 41 83 103
f 41 71 83
f 41 60 71
f 38 59 40
f 38 58 59
f 41 101 119
f 38 57 58
f 37 56 68
f 36 56 37
f 36 55 56
f 35 55 36
f 35 54 55
f 35 53 54
f 35 52 53
f 37 68 57
f 35 51 52
f 41 119 136
f 41 135 152
f 44 61 45
f 41 43 42
f 41 44 43
f 41 61 44
f 41 63 61
f 41 73 63
f 11 21 12
f 41 136 135
f 41 104 86
f 41 137 120
f 41 138 137
f 41 140 138
f 41 141 140
f 41 155 141
f 41 159 155
f 41 152 159
f 41 120 104
f 35 50 51
f 41 86 73
f 35 48 49
f 23 35 25
f 22 35 23
f 22 34 35
f 18 33 19
f 17 33 18
f 17 32 33
f 16 31 27
f 23 25 24
f 16 30 31
f 16 28 29
f 15 16 27
f 14 25 26
f 13 24 14
f 13 23 24
f 13 22 23
f 35 49 50
f 16 29 30
f 25 36 37
f 14 24 25
f 25 35 36
f 25 37 26
f 32 47 33
f 34 48 35
f 30 45 39
f 30 44 45
f 30 43 44
f 30 42 43
f 29 42 30
f 32 46 47
f 28 41 42
f 28 60 41
f 28 40 60
f 27 30 39
f 27 31 30
f 26 57 38
f 28 42 29
f 26 37 57

