# https://github.com/mikedh/trimesh
v 0.19122600 0.30465900 -0.38129200
v 0.06410520 0.30465900 -0.38129200
v 0.19122600 0.18725000 -0.38129200
v 0.19122600 0.30465900 -0.53683200
v 0.06410520 0.18725000 -0.38129200
v 0.06410520 0.30465900 -0.54518300
v 0.19122600 0.18725000 -0.55574500
v 0.17636800 0.24051900 -0.60928900
v 0.17626800 0.24103600 -0.60940000
v 0.17241000 0.25643600 -0.60940000
v 0.16439600 0.27664000 -0.60940000
v 0.15498800 0.28326000 -0.60940000
v 0.13895900 0.30465900 -0.58789800
v 0.06410520 0.18725000 -0.57179900
v 0.10690200 0.30465900 -0.58256100
v 0.10023200 0.27453700 -0.60940000
v 0.09621220 0.25653900 -0.60940000
v 0.12369000 0.18725000 -0.60156300
v 0.16561500 0.21910800 -0.60940000
v 0.17102900 0.22983100 -0.60940000
v 0.17633000 0.24045000 -0.60940000
v 0.14450900 0.28850100 -0.60940000
v 0.14429800 0.28860400 -0.60940000
v 0.12826900 0.30464800 -0.59325700
v 0.12824400 0.30465900 -0.59323400
v 0.09621220 0.25643600 -0.60940000
v 0.07244310 0.18725000 -0.57979300
v 0.11573800 0.30465900 -0.58977300
v 0.11227800 0.28260500 -0.60940000
v 0.11224100 0.18725000 -0.60384000
v 0.14429800 0.20845400 -0.60940000
v 0.14419800 0.28860400 -0.60940000
v 0.12819500 0.28857000 -0.60940000
v 0.09974640 0.24051900 -0.60940000
v 0.09277750 0.18725000 -0.59669500
v 0.10330600 0.18725000 -0.60171900
v 0.10823400 0.22426800 -0.60940000
v 0.11759200 0.21379800 -0.60940000
v 0.12817000 0.20850000 -0.60940000
v 0.12826900 0.20845400 -0.60940000
v 0.10044300 0.23873700 -0.60940000
f 9 12 11
f 9 11 10
f 13 23 24
f 13 22 23
f 9 22 12
f 13 24 25
f 12 22 13
f 9 23 22
f 9 17 16
f 9 33 32
f 9 29 33
f 9 16 29
f 9 26 17
f 9 34 26
f 9 41 34
f 14 17 26
f 9 32 23
f 14 26 27
f 30 38 39
f 16 28 29
f 9 37 41
f 34 36 35
f 34 41 36
f 30 40 31
f 36 41 37
f 30 39 40
f 30 37 38
f 30 36 37
f 28 33 29
f 26 35 27
f 26 34 35
f 24 33 28
f 24 32 33
f 24 28 25
f 23 32 24
f 18 31 19
f 18 30 31
f 15 28 16
f 9 38 37
f 1 7 4
f 9 40 39
f 3 36 30
f 3 35 36
f 3 27 35
f 3 14 27
f 3 5 14
f 2 14 5
f 2 6 14
f 3 30 18
f 1 6 2
f 1 25 28
f 1 13 25
f 1 4 13
f 1 3 7
f 1 5 3
f 1 2 5
f 9 39 38
f 1 28 15
f 3 18 7
f 1 15 6
f 4 8 9
f 9 31 40
f 4 7 8
f 9 19 31
f 9 20 19
f 9 21 20
f 7 21 8
f 7 20 21
f 7 19 20
f 8 21 9
f 7 18 19
f 6 17 14
f 6 16 17
f 6 15 16
f 4 12 13
f 4 11 12
f 4 10 11
f 4 9 10

