# https://github.com/mikedh/trimesh
v -0.06414480 0.09620480 -0.59325000
v -0.07484090 0.10155100 -0.58791600
v -0.07215560 0.10422400 -0.60126200
v -0.05880440 0.10155100 -0.60394100
v -0.05432380 0.09620480 -0.59325000
v -0.06414480 0.09620480 -0.56117900
v -0.14963800 0.15501100 -0.59860700
v -0.07484090 0.10155100 -0.55584400
v -0.06414480 0.11224300 -0.60929700
v -0.05432380 0.10155100 -0.60394100
v -0.05432380 0.09620480 -0.56117900
v -0.05432380 0.11536500 -0.38129200
v -0.19774800 0.21912300 -0.56653500
v -0.19774800 0.21912300 -0.58256000
v -0.20308800 0.24585300 -0.58791600
v -0.15499400 0.18172100 -0.60394100
v -0.14162700 0.16303000 -0.60661900
v -0.15499400 0.16570300 -0.50772600
v -0.05516860 0.11577300 -0.38129200
v -0.05880440 0.11758900 -0.38129200
v -0.13895700 0.16570300 -0.41155600
v -0.12827600 0.16035700 -0.60929700
v -0.05432380 0.11224300 -0.60929700
v -0.05432380 0.30465900 -0.38129200
v -0.20308800 0.22981500 -0.55584400
v -0.20842900 0.24050700 -0.57722600
v -0.19240700 0.24050700 -0.59325000
v -0.20443100 0.28058200 -0.58523800
v -0.20308800 0.27790900 -0.58791600
v -0.15232300 0.18439400 -0.60528000
v -0.12343300 0.16558100 -0.38129200
v -0.16567500 0.21912300 -0.38129200
v -0.07751120 0.14699200 -0.60661900
v -0.17638600 0.30465900 -0.59325000
v -0.07215560 0.15233800 -0.60528000
v -0.05432380 0.30463900 -0.52839300
v -0.15187100 0.30465900 -0.38129200
v -0.05432380 0.30465900 -0.50192300
v -0.20842900 0.24050700 -0.56117900
v -0.17103000 0.22981500 -0.38129200
v -0.17637100 0.24050700 -0.38129200
v -0.20842900 0.25654500 -0.57722600
v -0.19240700 0.27256300 -0.59325000
v -0.18839400 0.29662000 -0.53714200
v -0.18438100 0.30465900 -0.54515400
v -0.19841200 0.28860100 -0.57722600
v -0.18853000 0.30465900 -0.58827300
v -0.20842900 0.25654500 -0.56117900
v -0.20443100 0.24852600 -0.52109500
v -0.15832800 0.30465900 -0.58925500
v -0.09086240 0.30465900 -0.55048800
v -0.06613620 0.30465900 -0.53312400
v -0.16633800 0.30465900 -0.44900600
v -0.16635300 0.30463900 -0.44896100
v -0.15558200 0.29810900 -0.38129200
v -0.15856900 0.29213100 -0.38129200
v -0.17235800 0.26454400 -0.39285300
v -0.18839400 0.24852600 -0.44094900
v -0.18237500 0.30465900 -0.52915200
v -0.17235800 0.29662000 -0.45697400
f 25 32 40
f 25 40 41
f 25 41 39
f 26 42 28
f 26 39 48
f 28 46 47
f 27 43 30
f 28 44 45
f 28 45 46
f 24 53 37
f 28 47 29
f 26 48 42
f 24 59 53
f 22 30 34
f 24 47 45
f 24 34 47
f 24 50 34
f 24 51 50
f 24 52 51
f 24 38 52
f 23 35 36
f 23 33 35
f 22 34 33
f 22 33 23
f 21 32 25
f 28 42 48
f 24 45 59
f 28 48 49
f 49 58 60
f 29 47 34
f 57 60 58
f 56 60 57
f 55 60 56
f 54 60 55
f 53 59 54
f 21 31 32
f 45 47 46
f 44 54 59
f 44 60 54
f 44 49 60
f 44 59 45
f 41 58 49
f 28 49 44
f 41 57 58
f 39 49 48
f 39 41 49
f 37 54 55
f 37 53 54
f 36 52 38
f 36 51 52
f 35 51 36
f 35 50 51
f 34 50 35
f 33 34 35
f 30 43 34
f 29 34 43
f 41 56 57
f 20 31 21
f 15 43 27
f 17 30 22
f 7 16 17
f 7 15 16
f 7 14 15
f 7 13 14
f 6 12 8
f 6 11 12
f 5 12 11
f 5 24 12
f 5 38 24
f 5 36 38
f 5 23 36
f 5 10 23
f 7 17 9
f 4 23 10
f 3 9 4
f 3 7 9
f 18 21 25
f 2 7 3
f 1 8 2
f 1 6 8
f 1 11 6
f 1 5 11
f 1 10 5
f 1 4 10
f 1 3 4
f 1 2 3
f 4 9 23
f 7 8 18
f 2 8 7
f 8 12 19
f 7 18 13
f 16 27 30
f 16 30 17
f 15 29 43
f 15 26 28
f 15 27 16
f 14 26 15
f 13 18 25
f 13 26 14
f 13 39 26
f 13 25 39
f 12 20 19
f 15 28 29
f 12 32 31
f 12 40 32
f 12 41 40
f 12 56 41
f 12 55 56
f 12 37 55
f 12 24 37
f 9 22 23
f 8 19 20
f 9 17 22
f 8 21 18
f 8 20 21
f 12 31 20

