# https://github.com/mikedh/trimesh
v 0.17636300 0.28861400 -0.70549000
v 0.18706100 0.28325100 -0.71083500
v 0.17636300 0.28861400 -0.72152400
v 0.16031600 0.28861400 -0.64136700
v 0.16835200 0.28059000 -0.61731700
v 0.19241000 0.27256500 -0.70549000
v 0.18706100 0.28325100 -0.72686800
v 0.18437400 0.28059000 -0.73355500
v 0.17636300 0.28325100 -0.73221300
v -0.04808980 0.28861400 -0.72152400
v 0.14429500 0.28861400 -0.60941300
v 0.15499200 0.28325100 -0.60941300
v 0.16438400 0.27662800 -0.60941300
v 0.17239500 0.25643600 -0.60941300
v 0.17317400 0.25335500 -0.60941300
v 0.17370100 0.25385500 -0.61197200
v 0.17370100 0.26990400 -0.62800600
v 0.17626200 0.24102800 -0.60941300
v 0.17633800 0.24042700 -0.60941300
v 0.19241000 0.20842900 -0.68945600
v 0.19241000 0.27256500 -0.72152400
v 0.18706100 0.27256500 -0.73221300
v 0.17636300 0.27256500 -0.73757000
v 0.02405750 0.28059000 -0.73355500
v -0.04808980 0.28325100 -0.73221300
v -0.05610060 0.28459200 -0.72954100
v -0.05878760 0.28325100 -0.72152400
v -0.04808980 0.28861400 -0.68945600
v -0.01612200 0.28861400 -0.60941300
v 0.18706100 0.12294100 -0.69480100
v 0.19241000 0.12828400 -0.70549000
v 0.19241000 0.17639100 -0.68945600
v 0.17101400 0.22982100 -0.60941300
v 0.19241000 0.12828400 -0.72152400
v 0.18706100 0.12828400 -0.73221300
v 0.17636300 0.12828400 -0.73757000
v -0.04808980 0.27256500 -0.73757000
v -0.05878760 0.27790800 -0.73221300
v -0.06413650 0.27256500 -0.72152400
v -0.05878760 0.28325100 -0.68945600
v -0.04274090 0.28325100 -0.60941300
v -0.03211850 0.28857400 -0.60941300
v -0.03206830 0.28861400 -0.62533400
v 0.16561500 0.21909500 -0.60941300
v 0.17636300 0.11025400 -0.69347100
v 0.18437400 0.11625700 -0.69747300
v 0.18171200 0.10691200 -0.70549000
v 0.18839200 0.12026000 -0.72954100
v 0.18171200 0.10691200 -0.72152400
v 0.17837200 0.11225500 -0.73355500
v 0.16031600 0.11225500 -0.73757000
v -0.04808980 0.11225500 -0.73757000
v -0.05878760 0.11759800 -0.73221300
v -0.06413650 0.11225500 -0.72152400
v -0.06413650 0.27256500 -0.68945600
v -0.06011860 0.28059000 -0.68143900
v -0.04808980 0.27256500 -0.60941300
v 0.16835200 0.10022800 -0.69747300
v 0.15499200 0.21377200 -0.60941300
v 0.16031600 0.09620600 -0.70549000
v 0.16031600 0.09620600 -0.72152400
v 0.17234500 0.10423100 -0.72954100
v 0.16566500 0.10156900 -0.73221300
v 0.11423500 0.09620600 -0.73355500
v 0.09886670 0.09888750 -0.73488500
v 0.01870860 0.09888750 -0.73488500
v 0.02405750 0.08820150 -0.72954100
v -0.04274090 0.10156900 -0.73221300
v -0.05610060 0.10423100 -0.72954100
v -0.06413650 0.11225500 -0.70549000
v -0.05878760 0.10156900 -0.71617900
v -0.06413650 0.22445800 -0.67343500
v -0.04808980 0.22445800 -0.60941300
v 0.14429500 0.20842900 -0.60941300
v 0.16031600 0.10156900 -0.69480100
v 0.11222600 0.09020260 -0.70549000
v 0.10421600 0.08419920 -0.71350700
v 0.10687700 0.08552000 -0.72152400
v 0.10820800 0.08820150 -0.72954100
v 0.02674450 0.08552000 -0.72152400
v -0.04808980 0.09620600 -0.72152400
v -0.06413650 0.16034200 -0.68945600
v -0.05878760 0.10156900 -0.70014500
v -0.06413650 0.20842900 -0.67343500
v -0.05610060 0.10423100 -0.69347100
v -0.04274090 0.21377200 -0.60941300
v -0.03206830 0.20842900 -0.60941300
v -0.04808980 0.10156900 -0.69480100
v 0.02405750 0.08419920 -0.71350700
v -0.04808980 0.09620600 -0.70549000
f 51 63 64
f 48 49 50
f 49 62 50
f 50 62 63
f 47 61 49
f 50 63 51
f 49 61 62
f 51 64 65
f 52 69 53
f 51 66 52
f 52 66 67
f 52 67 68
f 52 68 69
f 53 69 54
f 54 69 71
f 47 60 61
f 54 83 70
f 54 71 83
f 51 65 66
f 47 58 60
f 37 53 38
f 45 47 46
f 34 48 35
f 55 72 57
f 34 49 48
f 35 48 50
f 35 50 36
f 36 50 51
f 37 52 53
f 38 53 54
f 38 54 39
f 39 54 70
f 39 70 82
f 39 82 84
f 39 84 72
f 39 72 55
f 40 55 56
f 40 56 41
f 41 56 57
f 44 58 45
f 44 59 58
f 45 58 47
f 55 57 56
f 75 88 76
f 57 84 73
f 71 90 83
f 73 84 82
f 73 83 85
f 73 85 86
f 74 87 88
f 74 88 75
f 76 88 89
f 76 89 77
f 71 81 90
f 77 89 80
f 80 89 81
f 81 89 90
f 83 90 85
f 85 90 88
f 85 88 87
f 85 87 86
f 88 90 89
f 31 49 34
f 77 80 78
f 70 73 82
f 70 83 73
f 69 81 71
f 58 59 74
f 58 74 75
f 58 75 76
f 58 76 77
f 58 77 60
f 60 77 61
f 61 63 62
f 61 77 78
f 61 78 79
f 61 79 63
f 63 79 64
f 64 79 67
f 64 67 66
f 64 66 65
f 67 80 81
f 67 81 68
f 67 79 78
f 67 78 80
f 68 81 69
f 57 72 84
f 31 47 49
f 30 45 46
f 30 46 47
f 5 15 16
f 5 16 17
f 5 17 6
f 6 18 19
f 6 19 20
f 6 20 32
f 6 32 31
f 6 31 34
f 5 14 15
f 6 34 21
f 6 16 18
f 7 21 22
f 7 22 8
f 8 22 23
f 8 23 37
f 8 37 24
f 8 24 25
f 8 25 9
f 6 17 16
f 5 13 14
f 5 12 13
f 5 11 12
f 30 47 31
f 1 2 7
f 1 7 3
f 1 3 10
f 1 10 28
f 1 28 43
f 1 43 29
f 1 29 11
f 1 11 4
f 1 4 5
f 1 5 2
f 2 6 21
f 2 21 7
f 3 7 8
f 3 8 9
f 3 9 25
f 3 25 26
f 3 26 10
f 4 11 5
f 10 26 27
f 10 27 40
f 2 5 6
f 11 29 42
f 22 35 36
f 22 36 23
f 23 36 51
f 23 51 52
f 23 52 37
f 24 37 25
f 25 37 26
f 26 38 27
f 21 35 22
f 26 37 38
f 27 39 55
f 28 41 42
f 28 42 43
f 28 40 41
f 29 43 42
f 30 33 44
f 30 44 45
f 10 40 28
f 27 38 39
f 21 34 35
f 27 55 40
f 19 32 20
f 11 42 41
f 19 33 30
f 11 41 57
f 11 57 73
f 11 73 86
f 11 87 74
f 11 74 59
f 11 59 44
f 11 44 33
f 11 86 87
f 11 19 18
f 11 18 15
f 11 15 14
f 19 31 32
f 11 14 13
f 11 13 12
f 15 18 16
f 11 33 19
f 19 30 31

