# https://github.com/mikedh/trimesh
v -0.17637000 0.30465900 -0.59324200
v -0.18853600 0.30465900 -0.58828300
v -0.18706500 0.31000800 -0.58791000
v -0.16032700 0.33673200 -0.59324200
v 0.28857200 0.30465900 -0.59324200
v -0.18436600 0.30465900 -0.54514600
v -0.18838900 0.31268200 -0.58523300
v -0.17102200 0.34206200 -0.58791000
v -0.16032700 0.35475500 -0.58923800
v -0.09615650 0.41688600 -0.59324200
v 0.28857200 0.32068600 -0.59324200
v 0.30461400 0.30465900 -0.58720400
v -0.18235500 0.30465900 -0.52914900
v -0.17234700 0.34473600 -0.56919400
v -0.17637000 0.33673200 -0.57722400
v -0.16567400 0.35810800 -0.57722400
v -0.16832400 0.34874800 -0.58523300
v -0.10822500 0.42489000 -0.58523300
v -0.09615650 0.43490900 -0.58923800
v -0.08016290 0.43291300 -0.59324200
v 0.29661800 0.32870900 -0.58923800
v 0.27257800 0.35275900 -0.59324200
v 0.31266000 0.30465900 -0.57720300
v -0.16631200 0.30465900 -0.44899600
v -0.16631200 0.35275900 -0.56118500
v -0.15630400 0.34473600 -0.48904100
v -0.14963200 0.35810800 -0.49705000
v -0.13358900 0.39018000 -0.54514600
v -0.10219100 0.43291300 -0.57722400
v -0.08815970 0.44494700 -0.58523300
v -0.01599240 0.48302800 -0.58923800
v 0.00000111 0.48101200 -0.59324200
v 0.29926700 0.33138300 -0.58255700
v 0.28057500 0.36078200 -0.58923800
v 0.20041100 0.44093600 -0.58923800
v 0.17637200 0.44894000 -0.59324200
v 0.29391900 0.34206200 -0.55583200
v 0.30461400 0.32068600 -0.56118500
v 0.30461400 0.30465900 -0.52912800
v 0.28322400 0.36345600 -0.58255700
v 0.27787700 0.37413500 -0.57187100
v -0.15184000 0.30465900 -0.38131200
v -0.14845400 0.31236200 -0.38131200
v -0.13775900 0.33373800 -0.38131200
v -0.13358900 0.34206200 -0.38131200
v -0.13427600 0.35275900 -0.41689700
v -0.11754700 0.37413500 -0.41689700
v -0.10150400 0.40618800 -0.46499300
v -0.10150400 0.42221500 -0.52910700
v -0.08551040 0.43826100 -0.52910700
v -0.09218260 0.44093600 -0.56919400
v -0.09085800 0.44361000 -0.57722400
v -0.00799567 0.49304700 -0.58523300
v 0.00000111 0.49171000 -0.58791000
v 0.11220100 0.48101200 -0.59324200
v 0.26723100 0.37948300 -0.58255700
v 0.20306000 0.44361000 -0.58255700
v 0.18436900 0.45696300 -0.58923800
v 0.14428600 0.46498500 -0.59324200
v 0.12024700 0.48903500 -0.58923800
v 0.29661800 0.32870900 -0.53713700
v 0.26188300 0.35810800 -0.44362200
v 0.26188300 0.34206200 -0.39552500
v 0.29661800 0.31268200 -0.50505900
v 0.28857200 0.30465900 -0.44897500
v 0.26188300 0.39018000 -0.57187100
v 0.24584100 0.37413500 -0.42758300
v 0.22979800 0.42221500 -0.53981400
v 0.27252900 0.30465900 -0.38131200
v -0.07780800 0.40202600 -0.38131200
v -0.08551040 0.40618800 -0.40085800
v -0.06613170 0.44494700 -0.51308900
v -0.06946780 0.45428800 -0.56118500
v -0.06613170 0.41287400 -0.38484000
v -0.00196130 0.44494700 -0.38484000
v 0.01403230 0.46097400 -0.41689700
v 0.01403230 0.49304700 -0.54514600
v 0.01604370 0.49703900 -0.56118500
v 0.01604370 0.49703900 -0.57722400
v 0.08816190 0.49304700 -0.58523300
v 0.11220100 0.49171000 -0.58791000
v 0.18701800 0.45963700 -0.58255700
v 0.15498200 0.47566400 -0.58255700
v 0.12289600 0.49171000 -0.58255700
v 0.28057500 0.32870900 -0.45698400
v 0.27257800 0.32068600 -0.40085800
v 0.24584100 0.35810800 -0.38131200
v 0.25918500 0.33940600 -0.38216300
v 0.26006800 0.33769200 -0.38131200
v 0.26678900 0.32422700 -0.38131200
v 0.28057500 0.31268200 -0.42490600
v 0.27655200 0.30465900 -0.39685300
v 0.19771300 0.45428800 -0.57187100
v 0.21375500 0.43826100 -0.53981400
v 0.21375500 0.40618800 -0.41154400
v -0.06701480 0.41110400 -0.38131200
v -0.06451280 0.41257300 -0.38131200
v -0.06215790 0.41375900 -0.38131200
v -0.03242750 0.42861900 -0.38131200
v -0.00034231 0.44464600 -0.38131200
v 0.00201256 0.44581300 -0.38131200
v 0.01604370 0.44894000 -0.38131200
v 0.11151400 0.44824300 -0.38131200
v 0.10150600 0.45963700 -0.41689700
v 0.09419630 0.47700100 -0.48103200
v 0.10955200 0.49438400 -0.54782300
v 0.11220100 0.49703900 -0.56118500
v 0.11220100 0.49703900 -0.57722400
v 0.17637200 0.46498500 -0.57722400
v 0.12289600 0.49171000 -0.56653800
v 0.16567700 0.47033400 -0.57187100
v 0.21414800 0.39053800 -0.38131200
v 0.13359100 0.48636100 -0.55583200
v 0.19771300 0.42221500 -0.42758300
v 0.19506400 0.41954100 -0.41422000
v 0.20041100 0.40886300 -0.39284900
v 0.19810500 0.40654600 -0.38131200
v 0.16386100 0.42713100 -0.38131200
v 0.12024700 0.48903500 -0.53713700
v 0.18436900 0.42489000 -0.40888800
v 0.18171900 0.42221500 -0.39552500
v 0.17887400 0.41937200 -0.38131200
v 0.17730400 0.42040700 -0.38131200
f 60 84 83
f 60 81 84
f 58 83 82
f 58 60 83
f 57 93 66
f 55 60 59
f 56 57 66
f 55 81 60
f 53 81 54
f 53 80 81
f 57 82 93
f 61 63 85
f 67 95 87
f 61 86 64
f 62 67 63
f 63 67 87
f 63 87 88
f 63 88 89
f 63 89 90
f 63 90 86
f 63 86 85
f 64 86 91
f 65 91 92
f 66 93 94
f 66 94 68
f 67 68 95
f 61 85 86
f 53 108 80
f 50 71 74
f 53 78 79
f 68 94 95
f 42 101 100
f 42 100 99
f 42 99 98
f 42 98 97
f 42 97 96
f 42 96 70
f 42 70 45
f 42 45 44
f 42 44 43
f 45 47 46
f 45 70 71
f 45 71 47
f 47 71 48
f 48 71 50
f 48 50 49
f 50 74 72
f 50 72 53
f 50 53 73
f 50 73 52
f 50 52 51
f 52 73 53
f 53 72 74
f 53 74 75
f 53 75 76
f 53 76 77
f 53 77 78
f 53 79 108
f 69 92 90
f 87 89 88
f 71 96 74
f 93 113 94
f 94 113 114
f 94 114 95
f 95 114 115
f 95 115 121
f 95 121 116
f 95 116 117
f 95 117 112
f 103 118 119
f 103 119 106
f 103 106 104
f 104 106 105
f 106 119 107
f 107 119 113
f 107 113 110
f 110 113 111
f 113 119 120
f 113 120 114
f 114 120 121
f 114 121 115
f 116 121 122
f 116 122 117
f 118 123 120
f 118 120 119
f 120 123 121
f 121 123 122
f 42 102 101
f 93 111 113
f 70 96 71
f 93 109 111
f 86 90 92
f 74 96 97
f 74 97 98
f 74 98 75
f 75 99 100
f 75 100 101
f 75 101 76
f 75 98 99
f 76 101 102
f 76 102 103
f 76 103 104
f 76 104 105
f 76 105 106
f 76 106 77
f 77 106 78
f 78 106 107
f 78 107 108
f 78 108 79
f 80 108 81
f 81 108 84
f 82 83 109
f 82 109 93
f 83 84 109
f 84 110 111
f 84 111 109
f 84 108 107
f 84 107 110
f 86 92 91
f 87 95 112
f 42 103 102
f 1 65 92
f 42 123 118
f 7 14 15
f 7 15 16
f 7 16 17
f 7 17 8
f 8 17 9
f 9 17 18
f 9 18 19
f 10 19 20
f 11 21 12
f 11 22 21
f 12 21 23
f 13 24 26
f 7 13 14
f 13 26 14
f 14 16 15
f 14 26 25
f 16 25 27
f 16 27 28
f 16 28 29
f 16 29 18
f 16 18 17
f 18 29 30
f 18 30 19
f 19 30 31
f 19 31 20
f 20 31 32
f 14 25 16
f 6 13 7
f 5 11 12
f 4 19 10
f 1 2 3
f 1 3 4
f 1 4 10
f 1 10 20
f 1 20 32
f 1 32 55
f 1 55 59
f 1 59 36
f 1 36 22
f 1 22 11
f 1 11 5
f 1 5 12
f 1 12 23
f 1 23 39
f 1 39 65
f 42 118 103
f 1 92 69
f 1 69 42
f 1 42 24
f 1 24 13
f 1 13 6
f 2 6 7
f 2 7 3
f 3 7 8
f 3 8 4
f 4 8 9
f 4 9 19
f 21 33 23
f 21 22 34
f 1 6 2
f 21 40 33
f 35 57 56
f 35 36 58
f 35 58 82
f 35 82 57
f 36 59 60
f 36 60 58
f 37 61 38
f 37 41 62
f 37 62 63
f 37 63 61
f 38 61 64
f 38 64 39
f 34 35 56
f 39 64 91
f 40 56 66
f 41 67 62
f 41 66 68
f 41 68 67
f 42 69 90
f 42 90 89
f 42 89 87
f 42 87 112
f 42 112 117
f 42 117 122
f 42 122 123
f 21 34 40
f 39 91 65
f 34 56 40
f 40 66 41
f 32 54 81
f 22 35 34
f 32 81 55
f 22 36 35
f 23 37 38
f 23 38 39
f 23 33 40
f 23 40 41
f 24 42 43
f 24 43 26
f 25 26 27
f 26 43 44
f 26 44 45
f 26 45 27
f 27 45 46
f 23 41 37
f 27 47 28
f 31 53 54
f 27 46 47
f 30 53 31
f 30 52 53
f 29 52 30
f 31 54 32
f 29 51 52
f 29 50 51
f 29 49 50
f 28 49 29
f 28 48 49
f 28 47 48

