# https://github.com/mikedh/trimesh
v -0.05431220 0.09620480 -0.59325700
v -0.05431220 0.10155100 -0.60395200
v 0.03206610 0.09620480 -0.59325700
v -0.05431220 0.09620480 -0.56119300
v -0.05431220 0.10601900 -0.60618500
v 0.03740970 0.10155100 -0.60395200
v 0.05344040 0.10689700 -0.59325700
v 0.03206610 0.09620480 -0.51307500
v -0.04809930 0.11224300 -0.38129200
v -0.05431220 0.11536500 -0.38129200
v -0.05431220 0.11224300 -0.60928900
v 0.03206610 0.11224300 -0.60928900
v 0.04408620 0.10422400 -0.60127300
v 0.06408120 0.12824000 -0.60926600
v 0.06408120 0.11609900 -0.60430900
v 0.06408120 0.11224300 -0.59327900
v 0.06408120 0.11222300 -0.57729200
v 0.05344040 0.10689700 -0.51307500
v 0.06408120 0.11222300 -0.49711000
v 0.06408120 0.11224300 -0.44901400
v 0.06408120 0.12028200 -0.38129200
v 0.03206610 0.11224300 -0.38129200
v -0.05431220 0.30465900 -0.38129200
v -0.04809930 0.27256300 -0.60940000
v -0.04809930 0.22446900 -0.60940000
v -0.04275570 0.21377700 -0.60940000
v -0.03205690 0.20843100 -0.60940000
v -0.05431220 0.30463900 -0.52839200
v 0.00000459 0.20843100 -0.60940000
v 0.01068020 0.21377700 -0.60940000
v 0.04809680 0.12828100 -0.60928900
v 0.06408120 0.14427800 -0.60928900
v 0.06408120 0.30465900 -0.38129200
v -0.05431220 0.30465900 -0.50191100
v -0.04275570 0.28325500 -0.60940000
v -0.02856790 0.30465900 -0.58977300
v 0.01598900 0.22440800 -0.60940000
v 0.01602370 0.24040500 -0.60940000
v 0.01602370 0.27256300 -0.60940000
v 0.06408120 0.30465900 -0.54518300
v -0.03212650 0.28856000 -0.60940000
v -0.01604930 0.30465900 -0.59323400
v 0.01068020 0.28325500 -0.60940000
v 0.03740970 0.30465900 -0.56652900
v -0.01613050 0.28860100 -0.60940000
v -0.01602620 0.30463900 -0.59325700
v 0.00200988 0.30465900 -0.58923800
v 0.00021323 0.28849900 -0.60940000
v 0.00000459 0.28860100 -0.60940000
f 24 39 38
f 24 35 41
f 24 41 45
f 24 45 49
f 24 48 43
f 24 38 37
f 24 43 39
f 23 36 34
f 24 49 48
f 23 42 36
f 14 19 17
f 23 44 47
f 23 40 44
f 23 33 40
f 14 16 15
f 14 17 16
f 14 20 19
f 14 21 20
f 24 37 30
f 14 33 21
f 23 47 42
f 24 30 29
f 41 46 45
f 24 27 26
f 14 40 33
f 46 47 49
f 45 46 49
f 43 47 44
f 43 48 47
f 42 47 46
f 41 42 46
f 40 43 44
f 39 43 40
f 24 29 27
f 47 48 49
f 32 39 40
f 32 38 39
f 32 37 38
f 30 32 31
f 30 37 32
f 28 36 35
f 28 34 36
f 24 28 35
f 24 26 25
f 35 36 41
f 14 32 40
f 36 42 41
f 13 15 16
f 6 13 7
f 5 12 6
f 5 11 12
f 4 9 10
f 4 8 9
f 3 18 8
f 3 7 18
f 3 6 7
f 2 5 6
f 6 12 14
f 1 5 2
f 1 34 28
f 1 23 34
f 1 10 23
f 1 4 10
f 1 8 4
f 1 3 8
f 1 6 3
f 1 2 6
f 14 31 32
f 1 11 5
f 6 14 15
f 1 28 11
f 7 13 16
f 6 15 13
f 12 31 14
f 12 30 31
f 12 29 30
f 11 28 24
f 11 29 12
f 11 26 27
f 11 25 26
f 11 24 25
f 9 23 10
f 11 27 29
f 9 21 33
f 9 22 21
f 8 22 9
f 8 21 22
f 8 20 21
f 8 19 20
f 8 18 19
f 7 19 18
f 7 17 19
f 9 33 23
f 7 16 17

