o convex_0
v -0.717498 -0.376785 0.456971
v -0.700142 -0.331328 0.438271
v -0.716174 -0.379449 0.454299
v -0.716174 -0.475606 0.454299
v -0.716174 -0.481019 0.459642
v -0.716174 -0.384777 0.459642
v -0.587914 0.240456 0.475679
v -0.589238 0.248447 0.472998
v -0.593238 0.240456 0.464984
v -0.589238 0.264516 0.456971
v -0.590561 0.259188 0.451628
v -0.593238 0.224472 0.432929
v -0.587914 0.2298 0.422234
v -0.689463 -0.336656 0.432929
v -0.71082 -0.390105 0.443614
v -0.71082 -0.454295 0.443614
v -0.713497 -0.489011 0.456971
v -0.713497 -0.489011 0.460977
v -0.705496 -0.481019 0.464984
v -0.705496 -0.384777 0.464984
v -0.577206 0.240456 0.481021
v -0.579206 0.256525 0.477014
v -0.581236 0.264516 0.472998
v -0.58256 0.277921 0.448957
v -0.587914 0.26718 0.448957
v -0.585237 0.268555 0.440943
v -0.553201 0.300607 0.424906
v -0.577206 0.224472 0.416892
v -0.689463 -0.400846 0.432929
v -0.513105 0.226449 0.404862
v -0.700142 -0.443554 0.438271
v -0.697465 -0.456959 0.440943
v -0.705496 -0.481019 0.448957
v -0.700142 -0.491675 0.454299
v -0.697465 -0.49305 0.456971
v -0.705496 -0.491675 0.459642
v -0.694788 -0.486347 0.459642
v -0.448975 0.176351 0.497058
v -0.561203 0.256525 0.481021
v -0.454329 0.379406 0.475679
v -0.461006 0.376742 0.472998
v -0.470361 0.374078 0.448957
v -0.555878 0.299232 0.432929
v -0.456976 0.380781 0.440943
v -0.465007 0.370727 0.436936
v -0.54517 0.299232 0.422234
v -0.694788 -0.448881 0.438271
v -0.495072 0.224472 0.404862
v -0.489041 0.232464 0.404862
v -0.456976 0.184343 0.420899
v -0.537169 0.296568 0.420899
v -0.693464 -0.456959 0.440943
v -0.693464 -0.489011 0.456971
v -0.438267 0.171023 0.491707
v -0.417027 0.272508 0.481021
v -0.448975 0.366774 0.477014
v -0.440944 0.376742 0.472998
v -0.448975 0.384819 0.464984
v -0.459653 0.379406 0.464984
v -0.448975 0.384819 0.448957
v -0.448975 0.379406 0.438271
v -0.448975 0.36875 0.432929
v -0.440944 0.248447 0.420899
v -0.417027 0.256525 0.432884
v -0.417027 0.256353 0.432929
v -0.417027 0.244408 0.436909
v -0.452975 0.184343 0.424906
v -0.683433 -0.448881 0.448957
v -0.436943 0.168274 0.456971
v -0.432942 0.176351 0.464984
v -0.432942 0.176351 0.481021
v -0.417027 0.256439 0.480985
v -0.417027 0.272422 0.481021
v -0.417027 0.272766 0.480913
v -0.438267 0.379406 0.459642
v -0.417027 0.283249 0.475679
v -0.438267 0.379406 0.443614
v -0.440944 0.376742 0.436936
v -0.417027 0.272422 0.432884
v -0.417027 0.240456 0.448848
v -0.417027 0.240456 0.464984
v -0.417027 0.245697 0.475597
v -0.417027 0.245783 0.475679
v -0.432942 0.36875 0.448957
v -0.417027 0.288663 0.464876
v -0.438267 0.36875 0.438271
v -0.417027 0.283249 0.438271
v -0.417027 0.288663 0.44902
f 1 2 3
f 1 3 4
f 1 4 5
f 1 5 6
f 1 6 7
f 1 7 8
f 1 8 9
f 1 9 10
f 1 10 11
f 1 11 12
f 1 12 13
f 1 13 2
f 2 14 29
f 2 29 31
f 2 31 16
f 2 16 15
f 2 15 3
f 2 13 14
f 3 15 16
f 3 16 4
f 4 16 17
f 4 17 5
f 5 17 18
f 5 18 19
f 5 19 20
f 5 20 6
f 6 20 7
f 7 21 22
f 7 22 8
f 7 20 21
f 8 22 23
f 8 23 10
f 8 10 9
f 10 23 24
f 10 24 25
f 10 25 11
f 11 25 12
f 12 25 26
f 12 26 13
f 13 26 27
f 13 27 28
f 13 28 14
f 14 28 30
f 14 30 29
f 16 31 32
f 16 32 33
f 16 33 17
f 17 34 35
f 17 35 36
f 17 36 18
f 17 33 34
f 18 36 19
f 19 36 35
f 19 35 37
f 19 37 38
f 19 38 20
f 20 38 21
f 21 38 39
f 21 39 22
f 22 39 40
f 22 40 23
f 23 40 41
f 23 41 24
f 24 26 25
f 24 41 42
f 24 42 43
f 24 43 27
f 24 27 26
f 27 43 42
f 27 42 44
f 27 44 45
f 27 45 46
f 27 46 28
f 28 46 30
f 29 47 31
f 29 30 48
f 29 48 49
f 29 49 50
f 29 50 47
f 30 46 51
f 30 51 49
f 30 49 48
f 31 47 32
f 32 47 52
f 32 52 33
f 33 52 34
f 34 53 35
f 34 52 53
f 35 53 37
f 37 53 54
f 37 54 38
f 38 54 55
f 38 55 56
f 38 56 40
f 38 40 39
f 40 56 57
f 40 57 58
f 40 58 41
f 41 58 59
f 41 59 42
f 42 59 58
f 42 58 60
f 42 60 44
f 44 60 61
f 44 61 45
f 45 61 62
f 45 62 46
f 46 62 51
f 47 50 52
f 49 51 62
f 49 62 63
f 49 63 50
f 50 63 64
f 50 64 65
f 50 65 66
f 50 66 67
f 50 67 52
f 52 68 53
f 52 67 66
f 52 66 68
f 53 68 66
f 53 66 69
f 53 69 70
f 53 70 71
f 53 71 54
f 54 71 72
f 54 72 73
f 54 73 55
f 55 73 72
f 55 72 83
f 55 83 82
f 55 82 81
f 55 81 80
f 55 80 66
f 55 66 65
f 55 65 64
f 55 64 79
f 55 79 87
f 55 87 88
f 55 88 85
f 55 85 76
f 55 76 74
f 55 74 57
f 55 57 56
f 57 75 58
f 57 74 76
f 57 76 75
f 58 75 77
f 58 77 60
f 60 77 78
f 60 78 61
f 61 78 62
f 62 78 63
f 63 78 79
f 63 79 64
f 66 80 70
f 66 70 69
f 70 80 81
f 70 81 71
f 71 81 82
f 71 82 83
f 71 83 72
f 75 76 84
f 75 84 77
f 76 85 84
f 77 84 86
f 77 86 78
f 78 86 79
f 79 86 87
f 84 85 88
f 84 88 87
f 84 87 86
o convex_1
v 0.440957 0.332708 0.456973
v 0.416898 0.320678 0.481023
v 0.448991 0.320678 0.481023
v 0.454303 0.326018 0.470333
v 0.443635 0.33137 0.459643
v 0.625302 0.304647 0.464982
v 0.657395 0.304647 0.448964
v 0.673419 0.304647 0.432923
v 0.448991 0.33137 0.454303
v 0.448991 0.320678 0.432923
v 0.440957 0.316664 0.424914
v 0.273074 0.316786 0.447459
v 0.273074 0.320678 0.464982
v 0.273074 0.316445 0.481473
v 0.411586 0.315326 0.491713
v 0.443635 0.315326 0.491713
v 0.649361 0.296631 0.473002
v 0.681409 0.296631 0.456973
v 0.692122 0.291279 0.451633
v 0.684087 0.299295 0.427584
v 0.681409 0.296631 0.420904
v 0.673419 0.299295 0.422233
v 0.448991 0.315326 0.422233
v 0.273074 0.299149 0.422167
v 0.273074 0.30843 0.434824
v 0.273074 0.308685 0.435176
v 0.273074 0.316445 0.446843
v 0.273074 0.316628 0.447162
v 0.273074 0.312663 0.489032
v 0.273074 0.304197 0.497502
v 0.273074 0.296631 0.505072
v 0.280625 0.296631 0.505072
v 0.454303 0.293955 0.502402
v 0.448991 0.304647 0.497052
v 0.625302 0.288603 0.481023
v 0.657395 0.272571 0.481023
v 0.689444 0.256551 0.481023
v 0.713502 0.264567 0.473002
v 0.6948 0.277923 0.470333
v 0.662707 0.293955 0.470333
v 0.710824 0.277923 0.454303
v 0.685448 0.296631 0.424914
v 0.713502 0.264567 0.436933
v 0.649361 0.216472 0.404864
v 0.625302 0.224488 0.400853
v 0.408908 0.264567 0.404864
v 0.448991 0.304647 0.416894
v 0.456981 0.312663 0.420904
v 0.273074 0.289053 0.417114
v 0.273074 0.289053 0.508852
v 0.448991 0.272571 0.513081
v 0.705468 0.24052 0.481023
v 0.71618 0.235167 0.475672
v 0.721492 0.24052 0.464982
v 0.718858 0.253875 0.462312
v 0.71618 0.267243 0.443613
v 0.717497 0.264567 0.440943
v 0.717497 0.232504 0.456973
v 0.646683 0.213796 0.406204
v 0.630658 0.213796 0.406204
v 0.653356 0.216472 0.408874
v 0.273074 0.244509 0.421904
v 0.273074 0.256551 0.416894
v 0.273074 0.272571 0.416894
v 0.273074 0.288603 0.417059
v 0.273074 0.272571 0.513081
v 0.273074 0.257001 0.513081
v 0.273074 0.25649 0.512972
v 0.448991 0.229828 0.491713
v 0.705468 0.229828 0.475672
v 0.713502 0.22849 0.473002
v 0.71618 0.229828 0.464982
v 0.710824 0.229828 0.454303
v 0.641327 0.208444 0.416894
v 0.625302 0.208444 0.416894
v 0.273074 0.229487 0.436922
v 0.273074 0.235167 0.427584
v 0.273074 0.246103 0.507775
v 0.273074 0.235703 0.502545
v 0.273074 0.235374 0.502358
v 0.273074 0.229828 0.491713
v 0.273074 0.224634 0.481319
v 0.448991 0.224488 0.481023
v 0.456981 0.22849 0.489032
v 0.705468 0.224488 0.464982
v 0.625302 0.208444 0.432923
v 0.609278 0.208444 0.432923
v 0.273074 0.224488 0.448964
v 0.273074 0.224488 0.481023
f 89 90 91
f 89 91 92
f 89 92 93
f 89 93 94
f 89 94 95
f 89 95 96
f 89 96 97
f 89 97 98
f 89 98 99
f 89 99 100
f 89 100 101
f 89 101 102
f 89 102 90
f 90 103 104
f 90 104 91
f 90 102 103
f 91 104 105
f 91 105 94
f 91 94 92
f 92 94 93
f 94 105 95
f 95 105 106
f 95 106 96
f 96 106 107
f 96 107 108
f 96 108 109
f 96 109 110
f 96 110 111
f 96 111 98
f 96 98 97
f 98 111 99
f 99 111 112
f 99 112 113
f 99 113 114
f 99 114 115
f 99 115 116
f 99 116 100
f 100 116 115
f 100 115 114
f 100 114 113
f 100 113 112
f 100 112 137
f 100 137 153
f 100 153 152
f 100 152 151
f 100 151 150
f 100 150 165
f 100 165 164
f 100 164 176
f 100 176 177
f 100 177 170
f 100 170 169
f 100 169 168
f 100 168 167
f 100 167 166
f 100 166 156
f 100 156 155
f 100 155 154
f 100 154 138
f 100 138 119
f 100 119 118
f 100 118 117
f 100 117 102
f 100 102 101
f 102 117 103
f 103 117 118
f 103 118 119
f 103 119 120
f 103 120 104
f 104 120 121
f 104 121 122
f 104 122 105
f 105 123 124
f 105 124 125
f 105 125 126
f 105 126 127
f 105 127 128
f 105 128 106
f 105 122 121
f 105 121 123
f 106 128 127
f 106 127 126
f 106 126 129
f 106 129 107
f 107 129 108
f 108 129 130
f 108 130 109
f 109 130 131
f 109 131 132
f 109 132 133
f 109 133 134
f 109 134 135
f 109 135 136
f 109 136 111
f 109 111 110
f 111 136 135
f 111 135 137
f 111 137 112
f 119 138 120
f 120 138 139
f 120 139 121
f 121 139 123
f 123 139 124
f 124 139 125
f 125 140 126
f 125 139 140
f 126 140 141
f 126 141 142
f 126 142 143
f 126 143 144
f 126 144 129
f 129 144 130
f 130 144 145
f 130 145 131
f 131 145 146
f 131 146 132
f 132 147 148
f 132 148 133
f 132 146 149
f 132 149 147
f 133 148 150
f 133 150 151
f 133 151 134
f 134 151 152
f 134 152 153
f 134 153 137
f 134 137 135
f 138 154 139
f 139 154 155
f 139 155 156
f 139 156 157
f 139 157 140
f 140 158 159
f 140 159 141
f 140 157 158
f 141 159 160
f 141 160 142
f 142 160 146
f 142 146 145
f 142 145 143
f 143 145 144
f 146 160 161
f 146 161 147
f 146 147 149
f 147 162 163
f 147 163 148
f 147 161 162
f 148 163 164
f 148 164 165
f 148 165 150
f 156 166 157
f 157 166 167
f 157 167 168
f 157 168 169
f 157 169 170
f 157 170 171
f 157 171 172
f 157 172 159
f 157 159 158
f 159 173 160
f 159 172 171
f 159 171 173
f 160 173 161
f 161 173 162
f 162 173 174
f 162 174 175
f 162 175 163
f 163 175 176
f 163 176 164
f 170 177 171
f 171 177 175
f 171 175 174
f 171 174 173
f 175 177 176
o convex_2
v 0.494367 0.318 -0.339377
v 0.489029 0.328693 -0.328698
v 0.489029 0.308648 -0.328698
v 0.491707 0.309988 -0.336716
v 0.493047 0.312659 -0.344733
v 0.491707 0.320681 -0.347394
v 0.489029 0.328693 -0.348742
v 0.481012 0.332704 -0.354738
v 0.478334 0.334034 -0.339377
v 0.400849 0.304647 -0.208437
v 0.408865 0.296625 -0.20042
v 0.310009 0.245864 -0.0267317
v 0.454285 0.309988 -0.26722
v 0.459642 0.293954 -0.336716
v 0.459642 0.299296 -0.277899
v 0.315347 0.235171 -0.037444
v 0.312669 0.228489 -0.0401053
v 0.456963 0.292614 -0.280594
v 0.483021 0.308648 -0.35275
v 0.48635 0.320681 -0.358073
v 0.472996 0.328693 -0.364777
v 0.472996 0.332704 -0.360768
v 0.432914 0.320681 -0.288611
v 0.320685 0.27259 -0.0801923
v 0.328701 0.264568 -0.0721749
v 0.301993 0.253875 -0.0347491
v 0.298932 0.25084 -0.0286518
v 0.298932 0.248073 -0.0245421
v 0.298932 0.235921 -0.0206344
v 0.416881 0.27259 -0.272576
v 0.451625 0.291284 -0.334021
v 0.460981 0.296625 -0.344733
v 0.392851 0.260557 -0.184419
v 0.299314 0.235171 -0.0214092
v 0.298932 0.234238 -0.0217797
v 0.298932 0.229068 -0.0263611
v 0.304652 0.224478 -0.0481227
v 0.462971 0.300636 -0.35275
v 0.470318 0.309988 -0.363429
v 0.477014 0.312659 -0.360768
v 0.475675 0.320681 -0.363429
v 0.46498 0.322687 -0.364777
v 0.459642 0.326022 -0.35275
v 0.424898 0.31667 -0.312663
v 0.432914 0.320681 -0.304646
v 0.344734 0.284602 -0.184419
v 0.320685 0.27259 -0.112262
v 0.299314 0.261897 -0.0801923
v 0.298932 0.254486 -0.0341427
v 0.298932 0.23501 -0.0212071
v 0.408865 0.280591 -0.280594
v 0.304652 0.224478 -0.0641575
v 0.336718 0.240523 -0.144332
v 0.443609 0.299296 -0.342038
v 0.456963 0.296625 -0.344733
v 0.298932 0.224478 -0.0481227
v 0.456963 0.312659 -0.360768
v 0.456963 0.31667 -0.360768
v 0.422219 0.309988 -0.315325
v 0.340735 0.280591 -0.184419
v 0.299314 0.261897 -0.0962271
v 0.312669 0.268579 -0.120279
v 0.298932 0.261501 -0.0801923
v 0.392851 0.280591 -0.264559
v 0.427576 0.299296 -0.326003
v 0.328701 0.248534 -0.152349
v 0.298932 0.224478 -0.0641575
v 0.298932 0.225625 -0.0698842
v 0.298932 0.227824 -0.0788448
v 0.347413 0.267238 -0.197725
v 0.300654 0.254551 -0.112262
v 0.298932 0.253693 -0.108826
v 0.298932 0.260589 -0.0973388
v 0.298932 0.261147 -0.0962271
v 0.298932 0.2325 -0.0882097
v 0.298932 0.234034 -0.0912752
v 0.298932 0.247387 -0.10539
v 0.298932 0.251988 -0.108826
f 178 179 180
f 178 180 181
f 178 181 182
f 178 182 183
f 178 183 184
f 178 184 179
f 179 184 185
f 179 185 186
f 179 186 187
f 179 187 188
f 179 188 189
f 179 189 190
f 179 190 180
f 180 191 181
f 180 190 192
f 180 192 193
f 180 193 194
f 180 194 195
f 180 195 191
f 181 191 196
f 181 196 182
f 182 196 197
f 182 197 183
f 183 197 184
f 184 197 185
f 185 197 198
f 185 198 199
f 185 199 186
f 186 199 200
f 186 200 187
f 187 200 201
f 187 201 202
f 187 202 188
f 188 202 189
f 189 202 201
f 189 201 203
f 189 203 204
f 189 204 205
f 189 205 206
f 189 206 193
f 189 193 192
f 189 192 190
f 191 207 208
f 191 208 209
f 191 209 196
f 191 195 210
f 191 210 207
f 193 206 211
f 193 211 194
f 194 211 212
f 194 212 213
f 194 213 214
f 194 214 210
f 194 210 195
f 196 209 215
f 196 215 216
f 196 216 217
f 196 217 197
f 197 217 218
f 197 218 198
f 198 218 216
f 198 216 219
f 198 219 199
f 199 219 220
f 199 220 221
f 199 221 222
f 199 222 200
f 200 222 223
f 200 223 201
f 201 223 224
f 201 224 238
f 201 238 225
f 201 225 226
f 201 226 203
f 203 226 204
f 204 226 240
f 204 240 251
f 204 251 250
f 204 250 249
f 204 249 255
f 204 255 254
f 204 254 253
f 204 253 252
f 204 252 246
f 204 246 245
f 204 245 244
f 204 244 233
f 204 233 213
f 204 213 212
f 204 212 227
f 204 227 206
f 204 206 205
f 206 227 211
f 207 228 208
f 207 210 229
f 207 229 230
f 207 230 228
f 208 228 231
f 208 231 232
f 208 232 209
f 209 232 215
f 210 214 229
f 211 227 212
f 213 233 214
f 214 233 244
f 214 244 229
f 215 232 231
f 215 231 234
f 215 234 216
f 216 234 219
f 216 218 217
f 219 234 235
f 219 235 220
f 220 235 221
f 221 235 236
f 221 236 237
f 221 237 223
f 221 223 222
f 223 237 238
f 223 238 239
f 223 239 224
f 224 239 238
f 225 238 240
f 225 240 226
f 228 241 242
f 228 242 231
f 228 230 243
f 228 243 241
f 229 244 230
f 230 244 245
f 230 245 246
f 230 246 243
f 231 242 234
f 234 242 235
f 235 242 236
f 236 242 237
f 237 247 248
f 237 248 249
f 237 249 250
f 237 250 238
f 237 242 247
f 238 250 251
f 238 251 240
f 241 243 247
f 241 247 242
f 243 246 252
f 243 252 253
f 243 253 254
f 243 254 247
f 247 254 255
f 247 255 248
f 248 255 249
o convex_3
v 0.298932 0.235937 -0.0206655
v 0.298932 0.235014 -0.0212277
v 0.298932 0.248099 -0.0244601
v 0.160331 0.256438 0.336588
v 0.160331 0.240518 0.336588
v 0.160285 0.2245 0.336588
v 0.298932 0.234256 -0.0217898
v 0.298932 0.254493 -0.0340871
v 0.156935 0.275093 0.336588
v 0.157679 0.272588 0.336588
v 0.150235 0.192265 0.336588
v 0.298932 0.229081 -0.0262871
v 0.130741 0.301263 0.336588
v 0.136278 0.296616 0.336588
v 0.144047 0.28887 0.336588
v 0.152282 0.280597 0.336588
v 0.298932 0.261514 -0.080114
v 0.229794 0.374104 -0.363373
v 0.197738 0.406174 -0.363373
v 0.13893 0.181685 0.336588
v 0.124227 0.142331 0.304615
v 0.120226 0.132311 0.296604
v 0.124227 0.1363 0.296604
v 0.298932 0.2245 -0.0480709
v 0.128229 0.302021 0.336588
v 0.168334 0.424895 -0.376794
v 0.120226 0.440914 -0.360703
v 0.111526 0.448231 -0.381292
v 0.298932 0.261151 -0.0961356
v 0.266782 0.324203 -0.381292
v 0.264549 0.328686 -0.381292
v 0.260036 0.337651 -0.381292
v 0.245846 0.358086 -0.379465
v 0.214115 0.390518 -0.381292
v 0.19811 0.406537 -0.381292
v 0.177313 0.420413 -0.381292
v 0.0642557 0.134256 0.336588
v 0.0721186 0.132311 0.328647
v 0.0481578 0.128323 0.336588
v 0.0641161 0.12829 0.320636
v 0.0961724 0.12829 0.288593
v 0.160331 0.112272 -0.256492
v 0.176336 0.112272 -0.352692
v 0.184385 0.11626 -0.344681
v 0.298932 0.2245 -0.0640924
v 0.248498 0.164381 -0.312638
v 0.251196 0.1657 -0.320649
v 0.0801675 0.336695 0.208415
v 0.0801675 0.320676 0.288593
v 0.112224 0.304625 0.336588
v 0.163867 0.427136 -0.381292
v 0.016055 0.448956 -0.381292
v 0.016055 0.448956 -0.368784
v 0.101523 0.443583 -0.352692
v 0.298932 0.260591 -0.0972599
v 0.298839 0.242924 -0.381292
v 0.297489 0.24945 -0.381292
v 0.294837 0.260096 -0.381292
v 0.294279 0.262272 -0.381292
v 0.245846 0.358086 -0.381292
v 0.0361542 0.132377 0.336588
v -0.0480575 0.112272 -0.304627
v -0.0320526 0.112272 -0.256492
v 3.64937e-06 0.112272 -0.224449
v 0.0321064 0.112272 -0.208427
v 0.0961724 0.112272 -0.208427
v 0.128229 0.112272 -0.224449
v 0.176336 0.112272 -0.381292
v 0.178709 0.113425 -0.381292
v 0.187037 0.117611 -0.381292
v 0.187037 0.117611 -0.352692
v 0.298932 0.225653 -0.0697843
v 0.251196 0.1657 -0.381292
v 0.279065 0.207229 -0.381292
v 0.298839 0.237651 -0.381292
v 0.0481113 0.336695 0.208415
v 0.0321064 0.320676 0.288593
v 0.016055 0.304625 0.336588
v 0.00200426 0.445825 -0.381292
v 0.0080526 0.332707 0.200404
v 0.298932 0.253702 -0.108784
v -0.0224218 0.186036 0.336588
v -0.106866 0.1657 -0.170973
v -0.0587584 0.117611 -0.299286
v -0.0551294 0.115799 -0.381292
v -0.0480575 0.112272 -0.381292
v 0.298932 0.227829 -0.0787789
v 0.298932 0.251988 -0.108784
v 0.298932 0.247407 -0.105341
v 0.298932 0.234058 -0.0912167
v 0.298932 0.231586 -0.0862978
v -0.0158616 0.294572 0.336588
v -0.0621548 0.413755 -0.381292
v -0.0180018 0.332707 0.144258
v -0.0320061 0.208481 0.336588
v -0.12422 0.232509 -0.0721032
v -0.106866 0.213821 -0.0267087
v -0.140272 0.232509 -0.168303
v -0.171025 0.229839 -0.363373
v -0.122917 0.1657 -0.283265
v -0.123429 0.165568 -0.381292
v -0.0587584 0.117611 -0.381292
v -0.0161408 0.29444 0.336588
v -0.064481 0.412568 -0.381292
v -0.0374031 0.326016 0.128237
v -0.0400085 0.256438 0.336588
v -0.0360073 0.270611 0.336588
v -0.144273 0.240518 -0.192406
v -0.176376 0.240518 -0.368784
v -0.165675 0.21916 -0.374124
v -0.165675 0.21916 -0.381292
v -0.0266556 0.283267 0.336588
v -0.0669934 0.411085 -0.381292
v -0.0694593 0.390156 -0.288605
v -0.0855107 0.390156 -0.352692
v -0.117567 0.358086 -0.352692
v -0.117567 0.342034 -0.288605
v -0.13427 0.336695 -0.352692
v -0.118218 0.320676 -0.224449
v -0.12422 0.312634 -0.23246
v -0.140272 0.264579 -0.216438
v -0.140272 0.24856 -0.184325
v -0.172328 0.24856 -0.360703
v -0.156323 0.296616 -0.376794
v -0.158556 0.292133 -0.381292
v -0.176376 0.240518 -0.381292
v -0.0777874 0.402021 -0.381292
v -0.133572 0.342034 -0.368784
v -0.140272 0.328686 -0.360703
v -0.14846 0.312338 -0.381292
v -0.155578 0.298099 -0.381292
v -0.133572 0.342034 -0.381292
v -0.137759 0.333696 -0.381292
f 256 257 262
f 256 262 267
f 256 267 279
f 256 279 300
f 256 300 327
f 256 327 342
f 256 342 346
f 256 346 345
f 256 345 344
f 256 344 343
f 256 343 336
f 256 336 310
f 256 310 284
f 256 284 272
f 256 272 263
f 256 263 258
f 256 258 259
f 256 259 260
f 256 260 261
f 256 261 257
f 257 261 262
f 258 263 264
f 258 264 265
f 258 265 259
f 259 265 264
f 259 264 271
f 259 271 270
f 259 270 269
f 259 269 268
f 259 268 280
f 259 280 305
f 259 305 333
f 259 333 347
f 259 347 358
f 259 358 367
f 259 367 362
f 259 362 361
f 259 361 350
f 259 350 337
f 259 337 316
f 259 316 294
f 259 294 292
f 259 292 275
f 259 275 266
f 259 266 261
f 259 261 260
f 261 266 262
f 262 266 267
f 263 268 269
f 263 269 270
f 263 270 271
f 263 271 264
f 263 272 273
f 263 273 274
f 263 274 268
f 266 275 276
f 266 276 277
f 266 277 278
f 266 278 267
f 267 278 277
f 267 277 279
f 268 274 281
f 268 281 282
f 268 282 283
f 268 283 280
f 272 284 285
f 272 285 286
f 272 286 287
f 272 287 288
f 272 288 273
f 273 288 289
f 273 289 290
f 273 290 274
f 274 290 291
f 274 291 281
f 275 292 276
f 276 292 277
f 277 292 293
f 277 293 294
f 277 294 295
f 277 295 296
f 277 296 297
f 277 297 298
f 277 298 299
f 277 299 279
f 279 299 301
f 279 301 302
f 279 302 328
f 279 328 300
f 280 303 304
f 280 304 305
f 280 283 303
f 281 291 306
f 281 306 283
f 281 283 282
f 283 306 291
f 283 291 290
f 283 290 289
f 283 289 315
f 283 315 287
f 283 287 286
f 283 286 285
f 283 285 314
f 283 314 313
f 283 313 312
f 283 312 311
f 283 311 330
f 283 330 329
f 283 329 328
f 283 328 325
f 283 325 324
f 283 324 323
f 283 323 341
f 283 341 340
f 283 340 357
f 283 357 356
f 283 356 366
f 283 366 381
f 283 381 380
f 283 380 386
f 283 386 385
f 283 385 388
f 283 388 387
f 283 387 382
f 283 382 368
f 283 368 359
f 283 359 348
f 283 348 334
f 283 334 307
f 283 307 308
f 283 308 309
f 283 309 303
f 284 310 311
f 284 311 312
f 284 312 313
f 284 313 314
f 284 314 285
f 287 315 288
f 288 315 289
f 292 294 293
f 294 316 317
f 294 317 318
f 294 318 319
f 294 319 320
f 294 320 321
f 294 321 322
f 294 322 295
f 295 322 297
f 295 297 296
f 297 322 321
f 297 321 320
f 297 320 319
f 297 319 318
f 297 318 317
f 297 317 341
f 297 341 323
f 297 323 298
f 298 323 324
f 298 324 299
f 299 324 325
f 299 325 326
f 299 326 302
f 299 302 301
f 300 328 329
f 300 329 330
f 300 330 327
f 302 326 325
f 302 325 328
f 303 331 332
f 303 332 304
f 303 309 308
f 303 308 331
f 304 332 333
f 304 333 305
f 307 334 308
f 308 334 335
f 308 335 332
f 308 332 331
f 310 336 311
f 311 336 343
f 311 343 330
f 316 337 338
f 316 338 339
f 316 339 317
f 317 339 340
f 317 340 341
f 327 330 342
f 330 343 344
f 330 344 345
f 330 345 346
f 330 346 342
f 332 335 347
f 332 347 333
f 334 348 349
f 334 349 335
f 335 349 347
f 337 350 351
f 337 351 352
f 337 352 338
f 338 353 354
f 338 354 355
f 338 355 339
f 338 352 351
f 338 351 353
f 339 355 356
f 339 356 357
f 339 357 340
f 347 349 358
f 348 359 360
f 348 360 349
f 349 360 358
f 350 361 351
f 351 361 362
f 351 362 363
f 351 363 364
f 351 364 353
f 353 364 354
f 354 364 381
f 354 381 366
f 354 366 365
f 354 365 355
f 355 365 356
f 356 365 366
f 358 360 367
f 359 368 360
f 360 368 369
f 360 369 370
f 360 370 371
f 360 371 372
f 360 372 367
f 362 367 372
f 362 372 373
f 362 373 374
f 362 374 375
f 362 375 376
f 362 376 377
f 362 377 363
f 363 377 364
f 364 377 378
f 364 378 379
f 364 379 380
f 364 380 381
f 368 382 370
f 368 370 369
f 370 382 371
f 371 382 383
f 371 383 372
f 372 383 373
f 373 383 384
f 373 384 374
f 374 384 375
f 375 384 379
f 375 379 376
f 376 379 378
f 376 378 377
f 379 384 385
f 379 385 386
f 379 386 380
f 382 387 383
f 383 387 388
f 383 388 384
f 384 388 385
o convex_4
v 0.176363 0.288614 -0.70549
v 0.187061 0.283251 -0.710835
v 0.176363 0.288614 -0.721524
v 0.160316 0.288614 -0.641367
v 0.168352 0.28059 -0.617317
v 0.19241 0.272565 -0.70549
v 0.187061 0.283251 -0.726868
v 0.184374 0.28059 -0.733555
v 0.176363 0.283251 -0.732213
v -0.0480898 0.288614 -0.721524
v 0.144295 0.288614 -0.609413
v 0.154992 0.283251 -0.609413
v 0.164384 0.276628 -0.609413
v 0.172395 0.256436 -0.609413
v 0.173174 0.253355 -0.609413
v 0.173701 0.253855 -0.611972
v 0.173701 0.269904 -0.628006
v 0.176262 0.241028 -0.609413
v 0.176338 0.240427 -0.609413
v 0.19241 0.208429 -0.689456
v 0.19241 0.272565 -0.721524
v 0.187061 0.272565 -0.732213
v 0.176363 0.272565 -0.73757
v 0.0240575 0.28059 -0.733555
v -0.0480898 0.283251 -0.732213
v -0.0561006 0.284592 -0.729541
v -0.0587876 0.283251 -0.721524
v -0.0480898 0.288614 -0.689456
v -0.016122 0.288614 -0.609413
v 0.187061 0.122941 -0.694801
v 0.19241 0.128284 -0.70549
v 0.19241 0.176391 -0.689456
v 0.171014 0.229821 -0.609413
v 0.19241 0.128284 -0.721524
v 0.187061 0.128284 -0.732213
v 0.176363 0.128284 -0.73757
v -0.0480898 0.272565 -0.73757
v -0.0587876 0.277908 -0.732213
v -0.0641365 0.272565 -0.721524
v -0.0587876 0.283251 -0.689456
v -0.0427409 0.283251 -0.609413
v -0.0321185 0.288574 -0.609413
v -0.0320683 0.288614 -0.625334
v 0.165615 0.219095 -0.609413
v 0.176363 0.110254 -0.693471
v 0.184374 0.116257 -0.697473
v 0.181712 0.106912 -0.70549
v 0.188392 0.12026 -0.729541
v 0.181712 0.106912 -0.721524
v 0.178372 0.112255 -0.733555
v 0.160316 0.112255 -0.73757
v -0.0480898 0.112255 -0.73757
v -0.0587876 0.117598 -0.732213
v -0.0641365 0.112255 -0.721524
v -0.0641365 0.272565 -0.689456
v -0.0601186 0.28059 -0.681439
v -0.0480898 0.272565 -0.609413
v 0.168352 0.100228 -0.697473
v 0.154992 0.213772 -0.609413
v 0.160316 0.096206 -0.70549
v 0.160316 0.096206 -0.721524
v 0.172345 0.104231 -0.729541
v 0.165665 0.101569 -0.732213
v 0.114235 0.096206 -0.733555
v 0.0988667 0.0988875 -0.734885
v 0.0187086 0.0988875 -0.734885
v 0.0240575 0.0882015 -0.729541
v -0.0427409 0.101569 -0.732213
v -0.0561006 0.104231 -0.729541
v -0.0641365 0.112255 -0.70549
v -0.0587876 0.101569 -0.716179
v -0.0641365 0.224458 -0.673435
v -0.0480898 0.224458 -0.609413
v 0.144295 0.208429 -0.609413
v 0.160316 0.101569 -0.694801
v 0.112226 0.0902026 -0.70549
v 0.104216 0.0841992 -0.713507
v 0.106877 0.08552 -0.721524
v 0.108208 0.0882015 -0.729541
v 0.0267445 0.08552 -0.721524
v -0.0480898 0.096206 -0.721524
v -0.0641365 0.160342 -0.689456
v -0.0587876 0.101569 -0.700145
v -0.0641365 0.208429 -0.673435
v -0.0561006 0.104231 -0.693471
v -0.0427409 0.213772 -0.609413
v -0.0320683 0.208429 -0.609413
v -0.0480898 0.101569 -0.694801
v 0.0240575 0.0841992 -0.713507
v -0.0480898 0.096206 -0.70549
f 389 390 395
f 389 395 391
f 389 391 398
f 389 398 416
f 389 416 431
f 389 431 417
f 389 417 399
f 389 399 392
f 389 392 393
f 389 393 390
f 390 394 409
f 390 409 395
f 390 393 394
f 391 395 396
f 391 396 397
f 391 397 413
f 391 413 414
f 391 414 398
f 392 399 393
f 393 399 400
f 393 400 401
f 393 401 402
f 393 402 403
f 393 403 404
f 393 404 405
f 393 405 394
f 394 406 407
f 394 407 408
f 394 408 420
f 394 420 419
f 394 419 422
f 394 422 409
f 394 405 404
f 394 404 406
f 395 409 410
f 395 410 396
f 396 410 411
f 396 411 425
f 396 425 412
f 396 412 413
f 396 413 397
f 398 414 415
f 398 415 428
f 398 428 416
f 399 417 430
f 399 430 429
f 399 429 445
f 399 445 461
f 399 461 474
f 399 474 475
f 399 475 462
f 399 462 447
f 399 447 432
f 399 432 421
f 399 421 407
f 399 407 406
f 399 406 403
f 399 403 402
f 399 402 401
f 399 401 400
f 403 406 404
f 407 418 419
f 407 419 420
f 407 420 408
f 407 421 418
f 409 422 423
f 409 423 410
f 410 423 424
f 410 424 411
f 411 424 439
f 411 439 440
f 411 440 425
f 412 425 413
f 413 425 414
f 414 426 415
f 414 425 426
f 415 426 427
f 415 427 443
f 415 443 428
f 416 429 430
f 416 430 431
f 416 428 429
f 417 431 430
f 418 421 432
f 418 432 433
f 418 433 434
f 418 434 435
f 418 435 419
f 419 435 437
f 419 437 422
f 422 436 423
f 422 437 436
f 423 436 438
f 423 438 424
f 424 438 439
f 425 440 441
f 425 441 426
f 426 441 442
f 426 442 427
f 427 442 458
f 427 458 470
f 427 470 472
f 427 472 460
f 427 460 443
f 428 443 444
f 428 444 429
f 429 444 445
f 432 446 433
f 432 447 446
f 433 435 434
f 433 446 435
f 435 446 448
f 435 448 449
f 435 449 437
f 436 437 438
f 437 449 450
f 437 450 438
f 438 450 451
f 438 451 439
f 439 451 452
f 439 452 453
f 439 453 454
f 439 454 440
f 440 454 455
f 440 455 456
f 440 456 457
f 440 457 441
f 441 457 442
f 442 457 459
f 442 459 471
f 442 471 458
f 443 460 445
f 443 445 444
f 445 460 472
f 445 472 461
f 446 447 462
f 446 462 463
f 446 463 464
f 446 464 465
f 446 465 448
f 448 465 449
f 449 451 450
f 449 465 466
f 449 466 467
f 449 467 451
f 451 467 452
f 452 467 455
f 452 455 454
f 452 454 453
f 455 468 469
f 455 469 456
f 455 467 466
f 455 466 468
f 456 469 457
f 457 469 459
f 458 471 461
f 458 461 470
f 459 469 478
f 459 478 471
f 461 472 470
f 461 471 473
f 461 473 474
f 462 475 476
f 462 476 463
f 463 476 464
f 464 476 477
f 464 477 465
f 465 477 468
f 465 468 466
f 468 477 469
f 469 477 478
f 471 478 473
f 473 478 476
f 473 476 475
f 473 475 474
f 476 478 477
o convex_5
v 0.0801589 0.288602 0.737552
v 0.0935217 0.293951 0.732214
v 0.0816437 0.295137 0.735275
v 0.0641303 0.288602 0.737552
v 0.0481185 0.272574 0.737552
v 0.0881732 0.200439 0.717514
v 0.117582 0.309979 0.710841
v 0.0988702 0.307304 0.724206
v 0.136276 0.228502 0.697476
v 0.136276 0.248542 0.697476
v 0.0471062 0.297623 0.733548
v 0.0881732 0.3287 0.71351
v 0.0587818 0.331355 0.71618
v 0.00803001 0.248542 0.717514
v 0.0240587 0.216467 0.717514
v 0.0390918 0.285607 0.733548
v 0.0415721 0.274043 0.735275
v 0.0561328 0.168365 0.70148
v 0.0641303 0.16569 0.700146
v 0.0801589 0.16569 0.700146
v 0.0881732 0.164353 0.697476
v 0.0908559 0.171039 0.700146
v 0.132277 0.306645 0.68945
v 0.136276 0.312653 0.681442
v 0.141625 0.318002 0.670747
v 0.13361 0.326025 0.678773
v 0.120247 0.3287 0.697476
v 0.114899 0.323351 0.708172
v 0.0921888 0.168365 0.697476
v 0.124263 0.200439 0.681442
v 0.138959 0.229839 0.68945
v 0.141625 0.237844 0.686781
v 0.0340808 0.304649 0.72554
v 0.0360886 0.296625 0.729544
v 0.0855074 0.342053 0.694807
v 0.0213928 0.350077 0.684112
v 0.0441029 0.3287 0.71351
v 0.00401441 0.248542 0.71351
v -0.0080155 0.232514 0.70148
v 0.0267245 0.288602 0.726875
v 0.0106958 0.304649 0.710841
v 0.0240587 0.184393 0.70148
v 0.0534501 0.16569 0.694807
v 0.0661381 0.164353 0.68945
v 0.0641303 0.160341 0.641366
v 0.0801589 0.160341 0.641366
v 0.0908559 0.16569 0.641366
v 0.144307 0.304649 0.657383
v 0.141625 0.318002 0.638697
v 0.140292 0.320676 0.655389
v 0.136276 0.3287 0.665408
v 0.144307 0.256546 0.673416
v 0.0962044 0.352751 0.657383
v 0.0988702 0.339379 0.692138
v 0.0921888 0.168365 0.633358
v 0.102211 0.192416 0.609298
v 0.140292 0.248542 0.633358
v 0.140292 0.232514 0.681442
v 0.144307 0.256546 0.641366
v 0.0267245 0.315328 0.71618
v 0.00963288 0.32708 0.702281
v 0.0831622 0.352751 0.670427
v 0.0641303 0.352751 0.673416
v 0.0481185 0.352751 0.673416
v 0.0481185 0.352751 0.641366
v 0.0240587 0.348739 0.649374
v -0.0080155 0.332693 0.633358
v -0.0133471 0.331355 0.662739
v 0.00268151 0.331355 0.694807
v -0.0120142 0.232514 0.697476
v 0.0213928 0.181737 0.694807
v 0.0374215 0.16569 0.630689
v 0.0481185 0.160341 0.625332
v 0.0641303 0.160341 0.609298
v 0.0821667 0.164353 0.625332
v 0.144307 0.304649 0.625332
v 0.140292 0.320676 0.623339
v 0.136276 0.3287 0.621328
v 0.10292 0.350736 0.644676
v 0.0962044 0.352751 0.641366
v 0.0855074 0.171039 0.609298
v 0.0921888 0.184393 0.60129
v 0.0857268 0.204922 0.555786
v 0.108217 0.216467 0.585256
v 0.126068 0.281181 0.555786
v 0.129004 0.290335 0.555786
v 0.0561328 0.348739 0.617324
v 0.026657 0.326346 0.555786
v 0.0106115 0.320676 0.555786
v -0.0120142 0.3287 0.633358
v 0.00354199 0.317136 0.555786
v -0.0280597 0.280597 0.649374
v -0.0106813 0.229839 0.694807
v 0.00534732 0.197765 0.678773
v 0.00803001 0.200439 0.693472
v 0.0106958 0.187067 0.668078
v 0.0400873 0.168365 0.617324
v 0.0106958 0.203114 0.60396
v 0.0240587 0.200439 0.569222
v 0.0507843 0.163016 0.611986
v 0.0587818 0.171039 0.587926
v 0.0694788 0.16569 0.598621
v 0.0761602 0.168365 0.60129
v 0.127941 0.30043 0.555786
v 0.126271 0.30544 0.555786
v 0.103696 0.328172 0.555786
v 0.120247 0.312653 0.555786
v 0.0912609 0.33128 0.555786
v 0.0908728 0.331374 0.555786
v 0.0830272 0.331807 0.555786
v 0.0841745 0.184393 0.585256
v 0.0954283 0.219066 0.555786
v 0.102211 0.22449 0.561196
v 0.0818967 0.201306 0.555786
v 0.0400873 0.332693 0.569222
v -0.00270074 0.304649 0.555786
v -0.00799863 0.288602 0.555786
v -0.00921343 0.282744 0.555786
v -0.01085 0.272574 0.555786
v -0.00990519 0.262667 0.555786
v -0.00912907 0.256546 0.555786
v 1.56896e-05 0.208463 0.673416
v -0.00533281 0.219142 0.684112
v 0.04277 0.171039 0.60396
v 0.0267245 0.203114 0.555858
v 0.0641303 0.192416 0.555786
v 0.0491983 0.193508 0.555786
v 0.0267751 0.203151 0.555786
f 479 480 481
f 479 481 482
f 479 482 483
f 479 483 484
f 479 484 480
f 480 485 486
f 480 486 481
f 480 484 487
f 480 487 488
f 480 488 485
f 481 489 482
f 481 486 490
f 481 490 491
f 481 491 489
f 482 489 483
f 483 492 493
f 483 493 484
f 483 489 494
f 483 494 495
f 483 495 492
f 484 493 496
f 484 496 497
f 484 497 498
f 484 498 499
f 484 499 500
f 484 500 487
f 485 501 502
f 485 502 503
f 485 503 504
f 485 504 505
f 485 505 506
f 485 506 486
f 485 488 501
f 486 506 490
f 487 500 507
f 487 507 508
f 487 508 509
f 487 509 510
f 487 510 488
f 488 510 503
f 488 503 502
f 488 502 501
f 489 511 512
f 489 512 494
f 489 491 511
f 490 506 505
f 490 505 513
f 490 513 491
f 491 513 514
f 491 514 515
f 491 515 511
f 492 516 517
f 492 517 493
f 492 495 518
f 492 518 519
f 492 519 516
f 493 517 520
f 493 520 496
f 494 512 518
f 494 518 495
f 496 520 521
f 496 521 497
f 497 521 522
f 497 522 499
f 497 499 498
f 499 522 523
f 499 523 524
f 499 524 525
f 499 525 507
f 499 507 500
f 503 526 554
f 503 554 527
f 503 527 555
f 503 555 528
f 503 528 529
f 503 529 504
f 503 510 530
f 503 530 526
f 504 529 505
f 505 529 531
f 505 531 532
f 505 532 513
f 507 525 508
f 508 525 533
f 508 533 534
f 508 534 535
f 508 535 536
f 508 536 509
f 509 536 510
f 510 536 537
f 510 537 530
f 511 518 512
f 511 515 538
f 511 538 539
f 511 539 518
f 513 532 540
f 513 540 541
f 513 541 514
f 514 541 542
f 514 542 543
f 514 543 544
f 514 544 545
f 514 545 546
f 514 546 547
f 514 547 539
f 514 539 515
f 515 539 538
f 516 548 517
f 516 519 548
f 517 548 520
f 518 539 519
f 519 539 547
f 519 547 548
f 520 549 521
f 520 548 549
f 521 550 551
f 521 551 523
f 521 523 522
f 521 549 550
f 523 551 552
f 523 552 524
f 524 552 553
f 524 553 525
f 525 553 533
f 526 530 537
f 526 537 554
f 527 554 555
f 528 555 556
f 528 556 529
f 529 556 557
f 529 557 531
f 531 557 558
f 531 558 543
f 531 543 542
f 531 542 541
f 531 541 540
f 531 540 532
f 533 553 559
f 533 559 534
f 534 559 560
f 534 560 561
f 534 561 562
f 534 562 535
f 535 537 536
f 535 562 563
f 535 563 564
f 535 564 537
f 537 564 554
f 543 558 565
f 543 565 566
f 543 566 544
f 544 566 567
f 544 567 545
f 545 568 546
f 545 567 569
f 545 569 568
f 546 568 570
f 546 570 548
f 546 548 547
f 548 571 572
f 548 572 573
f 548 573 549
f 548 570 571
f 549 573 572
f 549 572 574
f 549 574 550
f 550 575 551
f 550 574 576
f 550 576 577
f 550 577 603
f 550 603 575
f 551 578 552
f 551 575 578
f 552 579 580
f 552 580 553
f 552 578 579
f 553 580 581
f 553 581 559
f 554 564 582
f 554 582 555
f 555 582 583
f 555 583 556
f 556 584 557
f 556 583 585
f 556 585 584
f 557 584 558
f 558 584 586
f 558 586 587
f 558 587 588
f 558 588 565
f 559 581 589
f 559 589 560
f 560 589 561
f 561 590 591
f 561 591 562
f 561 589 592
f 561 592 604
f 561 604 605
f 561 605 606
f 561 606 599
f 561 599 598
f 561 598 597
f 561 597 596
f 561 596 595
f 561 595 594
f 561 594 569
f 561 569 567
f 561 567 566
f 561 566 588
f 561 588 587
f 561 587 586
f 561 586 584
f 561 584 585
f 561 585 583
f 561 583 582
f 561 582 564
f 561 564 563
f 561 563 590
f 562 591 563
f 563 591 590
f 565 588 593
f 565 593 566
f 566 593 588
f 568 569 594
f 568 594 595
f 568 595 570
f 570 595 596
f 570 596 597
f 570 597 598
f 570 598 599
f 570 599 600
f 570 600 601
f 570 601 571
f 571 601 574
f 571 574 572
f 574 601 600
f 574 600 599
f 574 599 576
f 575 602 578
f 575 603 602
f 576 599 577
f 577 599 603
f 578 602 603
f 578 603 579
f 579 604 580
f 579 603 605
f 579 605 604
f 580 604 592
f 580 592 581
f 581 592 589
f 599 606 603
f 603 606 605
o convex_6
v -0.17637 0.304659 -0.593242
v -0.188536 0.304659 -0.588283
v -0.187065 0.310008 -0.58791
v -0.160327 0.336732 -0.593242
v 0.288572 0.304659 -0.593242
v -0.184366 0.304659 -0.545146
v -0.188389 0.312682 -0.585233
v -0.171022 0.342062 -0.58791
v -0.160327 0.354755 -0.589238
v -0.0961565 0.416886 -0.593242
v 0.288572 0.320686 -0.593242
v 0.304614 0.304659 -0.587204
v -0.182355 0.304659 -0.529149
v -0.172347 0.344736 -0.569194
v -0.17637 0.336732 -0.577224
v -0.165674 0.358108 -0.577224
v -0.168324 0.348748 -0.585233
v -0.108225 0.42489 -0.585233
v -0.0961565 0.434909 -0.589238
v -0.0801629 0.432913 -0.593242
v 0.296618 0.328709 -0.589238
v 0.272578 0.352759 -0.593242
v 0.31266 0.304659 -0.577203
v -0.166312 0.304659 -0.448996
v -0.166312 0.352759 -0.561185
v -0.156304 0.344736 -0.489041
v -0.149632 0.358108 -0.49705
v -0.133589 0.39018 -0.545146
v -0.102191 0.432913 -0.577224
v -0.0881597 0.444947 -0.585233
v -0.0159924 0.483028 -0.589238
v 1.10504e-06 0.481012 -0.593242
v 0.299267 0.331383 -0.582557
v 0.280575 0.360782 -0.589238
v 0.200411 0.440936 -0.589238
v 0.176372 0.44894 -0.593242
v 0.293919 0.342062 -0.555832
v 0.304614 0.320686 -0.561185
v 0.304614 0.304659 -0.529128
v 0.283224 0.363456 -0.582557
v 0.277877 0.374135 -0.571871
v -0.15184 0.304659 -0.381312
v -0.148454 0.312362 -0.381312
v -0.137759 0.333738 -0.381312
v -0.133589 0.342062 -0.381312
v -0.134276 0.352759 -0.416897
v -0.117547 0.374135 -0.416897
v -0.101504 0.406188 -0.464993
v -0.101504 0.422215 -0.529107
v -0.0855104 0.438261 -0.529107
v -0.0921826 0.440936 -0.569194
v -0.090858 0.44361 -0.577224
v -0.00799567 0.493047 -0.585233
v 1.10504e-06 0.49171 -0.58791
v 0.112201 0.481012 -0.593242
v 0.267231 0.379483 -0.582557
v 0.20306 0.44361 -0.582557
v 0.184369 0.456963 -0.589238
v 0.144286 0.464985 -0.593242
v 0.120247 0.489035 -0.589238
v 0.296618 0.328709 -0.537137
v 0.261883 0.358108 -0.443622
v 0.261883 0.342062 -0.395525
v 0.296618 0.312682 -0.505059
v 0.288572 0.304659 -0.448975
v 0.261883 0.39018 -0.571871
v 0.245841 0.374135 -0.427583
v 0.229798 0.422215 -0.539814
v 0.272529 0.304659 -0.381312
v -0.077808 0.402026 -0.381312
v -0.0855104 0.406188 -0.400858
v -0.0661317 0.444947 -0.513089
v -0.0694678 0.454288 -0.561185
v -0.0661317 0.412874 -0.38484
v -0.0019613 0.444947 -0.38484
v 0.0140323 0.460974 -0.416897
v 0.0140323 0.493047 -0.545146
v 0.0160437 0.497039 -0.561185
v 0.0160437 0.497039 -0.577224
v 0.0881619 0.493047 -0.585233
v 0.112201 0.49171 -0.58791
v 0.187018 0.459637 -0.582557
v 0.154982 0.475664 -0.582557
v 0.122896 0.49171 -0.582557
v 0.280575 0.328709 -0.456984
v 0.272578 0.320686 -0.400858
v 0.245841 0.358108 -0.381312
v 0.259185 0.339406 -0.382163
v 0.260068 0.337692 -0.381312
v 0.266789 0.324227 -0.381312
v 0.280575 0.312682 -0.424906
v 0.276552 0.304659 -0.396853
v 0.197713 0.454288 -0.571871
v 0.213755 0.438261 -0.539814
v 0.213755 0.406188 -0.411544
v -0.0670148 0.411104 -0.381312
v -0.0645128 0.412573 -0.381312
v -0.0621579 0.413759 -0.381312
v -0.0324275 0.428619 -0.381312
v -0.000342314 0.444646 -0.381312
v 0.00201256 0.445813 -0.381312
v 0.0160437 0.44894 -0.381312
v 0.111514 0.448243 -0.381312
v 0.101506 0.459637 -0.416897
v 0.0941963 0.477001 -0.481032
v 0.109552 0.494384 -0.547823
v 0.112201 0.497039 -0.561185
v 0.112201 0.497039 -0.577224
v 0.176372 0.464985 -0.577224
v 0.122896 0.49171 -0.566538
v 0.165677 0.470334 -0.571871
v 0.214148 0.390538 -0.381312
v 0.133591 0.486361 -0.555832
v 0.197713 0.422215 -0.427583
v 0.195064 0.419541 -0.41422
v 0.200411 0.408863 -0.392849
v 0.198105 0.406546 -0.381312
v 0.163861 0.427131 -0.381312
v 0.120247 0.489035 -0.537137
v 0.184369 0.42489 -0.408888
v 0.181719 0.422215 -0.395525
v 0.178874 0.419372 -0.381312
v 0.177304 0.420407 -0.381312
f 607 608 609
f 607 609 610
f 607 610 616
f 607 616 626
f 607 626 638
f 607 638 661
f 607 661 665
f 607 665 642
f 607 642 628
f 607 628 617
f 607 617 611
f 607 611 618
f 607 618 629
f 607 629 645
f 607 645 671
f 607 671 698
f 607 698 675
f 607 675 648
f 607 648 630
f 607 630 619
f 607 619 612
f 607 612 608
f 608 612 613
f 608 613 609
f 609 613 614
f 609 614 610
f 610 614 615
f 610 615 625
f 610 625 616
f 611 617 618
f 612 619 613
f 613 619 620
f 613 620 621
f 613 621 622
f 613 622 623
f 613 623 614
f 614 623 615
f 615 623 624
f 615 624 625
f 616 625 626
f 617 627 618
f 617 628 627
f 618 627 629
f 619 630 632
f 619 632 620
f 620 631 622
f 620 622 621
f 620 632 631
f 622 631 633
f 622 633 634
f 622 634 635
f 622 635 624
f 622 624 623
f 624 635 636
f 624 636 625
f 625 636 637
f 625 637 626
f 626 637 638
f 627 639 629
f 627 628 640
f 627 640 646
f 627 646 639
f 628 641 640
f 628 642 641
f 629 643 644
f 629 644 645
f 629 639 646
f 629 646 647
f 629 647 643
f 630 648 649
f 630 649 632
f 631 632 633
f 632 649 650
f 632 650 651
f 632 651 633
f 633 651 652
f 633 652 653
f 633 653 634
f 634 653 654
f 634 654 655
f 634 655 635
f 635 655 656
f 635 656 657
f 635 657 658
f 635 658 636
f 636 658 659
f 636 659 637
f 637 659 660
f 637 660 638
f 638 660 687
f 638 687 661
f 640 662 646
f 640 641 662
f 641 663 662
f 641 642 664
f 641 664 688
f 641 688 663
f 642 665 666
f 642 666 664
f 643 667 644
f 643 647 668
f 643 668 669
f 643 669 667
f 644 667 670
f 644 670 645
f 645 670 697
f 645 697 671
f 646 662 672
f 646 672 647
f 647 673 668
f 647 672 674
f 647 674 673
f 648 675 696
f 648 696 695
f 648 695 693
f 648 693 718
f 648 718 723
f 648 723 728
f 648 728 729
f 648 729 724
f 648 724 709
f 648 709 708
f 648 708 707
f 648 707 706
f 648 706 705
f 648 705 704
f 648 704 703
f 648 703 702
f 648 702 676
f 648 676 651
f 648 651 650
f 648 650 649
f 651 653 652
f 651 676 677
f 651 677 653
f 653 677 654
f 654 677 656
f 654 656 655
f 656 677 680
f 656 680 678
f 656 678 659
f 656 659 679
f 656 679 658
f 656 658 657
f 658 679 659
f 659 678 680
f 659 680 681
f 659 681 682
f 659 682 683
f 659 683 684
f 659 684 685
f 659 685 714
f 659 714 686
f 659 686 687
f 659 687 660
f 661 687 666
f 661 666 665
f 662 663 672
f 663 688 699
f 663 699 672
f 664 666 689
f 664 689 688
f 666 687 690
f 666 690 689
f 667 669 691
f 667 691 692
f 667 692 670
f 668 673 669
f 669 673 693
f 669 693 694
f 669 694 695
f 669 695 696
f 669 696 692
f 669 692 691
f 670 692 697
f 671 697 698
f 672 699 700
f 672 700 674
f 673 674 701
f 673 701 693
f 674 700 701
f 675 698 696
f 676 702 677
f 677 702 680
f 680 702 703
f 680 703 704
f 680 704 681
f 681 705 706
f 681 706 707
f 681 707 682
f 681 704 705
f 682 707 708
f 682 708 709
f 682 709 710
f 682 710 711
f 682 711 712
f 682 712 683
f 683 712 684
f 684 712 713
f 684 713 714
f 684 714 685
f 686 714 687
f 687 714 690
f 688 689 715
f 688 715 699
f 689 690 715
f 690 716 717
f 690 717 715
f 690 714 713
f 690 713 716
f 692 698 697
f 692 696 698
f 693 695 694
f 693 701 718
f 699 715 717
f 699 717 719
f 699 719 700
f 700 719 720
f 700 720 701
f 701 720 721
f 701 721 727
f 701 727 722
f 701 722 723
f 701 723 718
f 709 724 725
f 709 725 712
f 709 712 710
f 710 712 711
f 712 725 713
f 713 725 719
f 713 719 716
f 716 719 717
f 719 725 726
f 719 726 720
f 720 726 727
f 720 727 721
f 722 727 728
f 722 728 723
f 724 729 726
f 724 726 725
f 726 729 727
f 727 729 728
o convex_7
v 0.192403 0.336717 0.481021
v 0.272992 0.316436 0.481471
v 0.256535 0.320676 0.481021
v 0.272992 0.320676 0.464972
v 0.192403 0.336717 0.464972
v 0.096167 0.336717 0.529122
v 0.0908484 0.331377 0.555769
v 0.0912338 0.331289 0.555769
v 0.103682 0.328169 0.555769
v 0.248518 0.312656 0.505071
v 0.261854 0.309976 0.502389
v 0.272992 0.312656 0.489023
v 0.272992 0.316765 0.447444
v 0.160337 0.336717 0.416892
v 0.0830246 0.331817 0.555769
v 0.0160409 0.336717 0.529122
v 0.120255 0.312656 0.555769
v 0.216453 0.312656 0.521098
v 0.272992 0.296616 0.505071
v 0.272992 0.304197 0.497498
v 0.272992 0.305097 0.496597
v 0.272992 0.316633 0.447144
v 0.171013 0.315337 0.363449
v 0.160337 0.320676 0.368791
v 0.112238 0.332696 0.366796
v 0.096167 0.336717 0.368791
v 0.0266781 0.326346 0.555769
v -0.0641238 0.336717 0.481021
v -0.112223 0.320676 0.497047
v -0.11758 0.315337 0.507732
v 0.0107222 0.331355 0.539806
v 0.126267 0.305449 0.555769
v 0.272992 0.289057 0.508847
v 0.272992 0.316436 0.446822
v 0.168354 0.312656 0.356776
v 0.104183 0.328697 0.356776
v 0.096167 0.331355 0.358107
v 0.0160409 0.336717 0.368791
v 0.0106452 0.320676 0.555769
v -0.0641238 0.336717 0.448946
v -0.120663 0.320676 0.488594
v -0.120663 0.318787 0.497047
v -0.120663 0.315645 0.505114
v -0.120663 0.3127 0.508075
v 0.00355366 0.317139 0.555769
v 0.127925 0.300417 0.555769
v 0.272992 0.272577 0.513074
v 0.272992 0.308679 0.435172
v 0.272992 0.299143 0.42217
v 0.272992 0.289057 0.417129
v 0.156946 0.27506 0.336609
v 0.152321 0.280597 0.336609
v 0.136288 0.296616 0.336609
v 0.130738 0.301252 0.336609
v 0.128271 0.302021 0.336609
v 0.112238 0.304636 0.336609
v 0.0160409 0.331355 0.358107
v 0.00802439 0.332696 0.360789
v -0.0721403 0.332696 0.440943
v -0.120663 0.320676 0.448946
v -0.120663 0.304636 0.511207
v -6.91637e-05 0.30991 0.555769
v -0.120663 0.296176 0.513074
v 0.129004 0.290331 0.555769
v 0.272992 0.256976 0.513074
v 0.272992 0.288596 0.417064
v 0.157678 0.272577 0.336609
v 0.0160409 0.304636 0.336609
v -0.0158709 0.294594 0.336609
v -0.0400744 0.316655 0.360789
v -0.120663 0.315337 0.438283
v -0.00268993 0.304636 0.555769
v -0.120663 0.256537 0.513074
v -0.0801568 0.288596 0.529122
v 0.126036 0.281169 0.555769
v 0.272992 0.256471 0.512967
v 0.0954347 0.219073 0.555769
v 0.0857225 0.204922 0.555769
v 0.272992 0.272577 0.416892
v 0.160337 0.256405 0.336609
v -0.016025 0.294528 0.336609
v -0.0427337 0.309976 0.358107
v -0.120663 0.309976 0.427598
v -0.0161406 0.294462 0.336609
v -0.00800855 0.288596 0.555769
v -0.120663 0.232938 0.508955
v -0.120239 0.232476 0.509083
v -0.0881732 0.248517 0.52511
v -0.0801568 0.256537 0.529122
v -0.010822 0.272577 0.555769
v -0.00920331 0.282751 0.555769
v 0.272992 0.2461 0.507775
v 0.160337 0.192419 0.529122
v 0.171013 0.18708 0.52378
v 0.0818684 0.201296 0.555769
v 0.272992 0.256537 0.416892
v 0.160337 0.240496 0.336609
v -0.0266623 0.283278 0.336609
v -0.0359891 0.2706 0.336609
v -0.0587667 0.277917 0.358107
v -0.120663 0.288596 0.416892
v -0.120663 0.299297 0.422235
v -0.120663 0.30435 0.424766
v -0.120663 0.232256 0.508525
v -0.0721403 0.184399 0.509083
v -0.0400744 0.184399 0.52511
v 0.0267937 0.203142 0.555769
v -0.00912623 0.256537 0.555769
v -0.00989704 0.262667 0.555769
v 0.272992 0.235684 0.50254
v 0.168354 0.1804 0.521098
v 0.272992 0.235355 0.502346
v 0.074854 0.197759 0.555769
v 0.272992 0.244495 0.421913
v 0.150201 0.192265 0.336609
v 0.16026 0.224368 0.336609
v -0.0399973 0.256405 0.336609
v -0.0534095 0.251197 0.347422
v -0.120663 0.271632 0.415004
v -0.120663 0.229114 0.503162
v -0.0761485 0.184399 0.505071
v 0.00536508 0.1176 0.390181
v 0.0160409 0.112239 0.384839
v -0.0641238 0.18174 0.507732
v -0.0480909 0.1804 0.515091
v -0.032058 0.18174 0.52378
v 0.0492244 0.193496 0.555769
v 0.160337 0.176379 0.513074
v 0.184387 0.1804 0.505071
v 0.0641397 0.192419 0.555769
v 0.272992 0.229817 0.491705
v 0.272992 0.235157 0.427598
v 0.138947 0.181674 0.336609
v -0.0320194 0.208481 0.336609
v -0.120663 0.248077 0.413116
v -0.120663 0.252757 0.413116
v -0.120663 0.226587 0.498098
v -0.120663 0.216699 0.468663
v 0.00802439 0.120259 0.376815
v -0.120663 0.216699 0.441179
v -0.120663 0.216919 0.440514
v -0.032058 0.176379 0.513074
v 0.0187387 0.11492 0.371473
v 0.0320738 0.112239 0.368791
v 0.248518 0.212459 0.45697
v 0.272992 0.224478 0.448946
v 0.272992 0.224478 0.481021
v 0.272992 0.22461 0.481321
v 0.272992 0.229466 0.436931
v 0.148313 0.184399 0.34474
v 0.0642938 0.134256 0.336609
v -0.120663 0.23898 0.415391
v -0.0223842 0.186025 0.336609
v 0.0107222 0.12294 0.363449
v -0.120663 0.227576 0.424466
v 0.0267552 0.12294 0.347422
v 0.0481453 0.128301 0.336609
v 0.0427881 0.1176 0.368791
v -0.120663 0.232037 0.420025
v 0.0361591 0.132366 0.336609
v -0.0400744 0.184399 0.360789
f 730 731 732
f 730 732 733
f 730 733 734
f 730 734 743
f 730 743 755
f 730 755 767
f 730 767 769
f 730 769 757
f 730 757 745
f 730 745 735
f 730 735 736
f 730 736 737
f 730 737 731
f 731 733 732
f 731 737 738
f 731 738 739
f 731 739 740
f 731 740 741
f 731 741 750
f 731 750 749
f 731 749 748
f 731 748 762
f 731 762 776
f 731 776 794
f 731 794 805
f 731 805 821
f 731 821 839
f 731 839 841
f 731 841 860
f 731 860 877
f 731 877 876
f 731 876 875
f 731 875 878
f 731 878 861
f 731 861 843
f 731 843 825
f 731 825 808
f 731 808 795
f 731 795 779
f 731 779 778
f 731 778 777
f 731 777 763
f 731 763 751
f 731 751 742
f 731 742 733
f 733 742 743
f 733 743 734
f 735 744 736
f 735 745 744
f 736 744 756
f 736 756 768
f 736 768 774
f 736 774 791
f 736 791 801
f 736 801 814
f 736 814 820
f 736 820 819
f 736 819 838
f 736 838 837
f 736 837 836
f 736 836 856
f 736 856 859
f 736 859 842
f 736 842 824
f 736 824 807
f 736 807 806
f 736 806 804
f 736 804 793
f 736 793 775
f 736 775 761
f 736 761 746
f 736 746 738
f 736 738 737
f 738 746 747
f 738 747 740
f 738 740 739
f 740 748 749
f 740 749 750
f 740 750 741
f 740 747 748
f 742 751 752
f 742 752 753
f 742 753 743
f 743 753 754
f 743 754 755
f 744 745 756
f 745 757 758
f 745 758 759
f 745 759 760
f 745 760 756
f 746 761 762
f 746 762 747
f 747 762 748
f 751 763 764
f 751 764 752
f 752 764 754
f 752 754 753
f 754 765 766
f 754 766 755
f 754 764 765
f 755 766 786
f 755 786 767
f 756 760 759
f 756 759 768
f 757 769 789
f 757 789 770
f 757 770 771
f 757 771 758
f 758 771 759
f 759 771 772
f 759 772 773
f 759 773 774
f 759 774 768
f 761 775 776
f 761 776 762
f 763 777 764
f 764 777 778
f 764 778 779
f 764 779 780
f 764 780 781
f 764 781 782
f 764 782 783
f 764 783 784
f 764 784 765
f 765 784 785
f 765 785 766
f 766 785 797
f 766 797 786
f 767 786 787
f 767 787 788
f 767 788 769
f 769 788 789
f 770 789 800
f 770 800 812
f 770 812 832
f 770 832 831
f 770 831 830
f 770 830 848
f 770 848 865
f 770 865 864
f 770 864 881
f 770 881 888
f 770 888 884
f 770 884 870
f 770 870 869
f 770 869 867
f 770 867 866
f 770 866 849
f 770 849 833
f 770 833 815
f 770 815 802
f 770 802 792
f 770 792 790
f 770 790 773
f 770 773 772
f 770 772 771
f 773 790 774
f 774 790 792
f 774 792 791
f 775 793 776
f 776 793 794
f 779 795 796
f 779 796 780
f 780 796 809
f 780 809 826
f 780 826 845
f 780 845 844
f 780 844 862
f 780 862 880
f 780 880 886
f 780 886 889
f 780 889 882
f 780 882 863
f 780 863 846
f 780 846 828
f 780 828 827
f 780 827 813
f 780 813 810
f 780 810 798
f 780 798 797
f 780 797 785
f 780 785 784
f 780 784 783
f 780 783 782
f 780 782 781
f 786 797 787
f 787 797 798
f 787 798 799
f 787 799 789
f 787 789 788
f 789 799 800
f 791 792 801
f 792 802 818
f 792 818 803
f 792 803 801
f 793 804 794
f 794 804 806
f 794 806 807
f 794 807 805
f 795 808 809
f 795 809 796
f 798 810 799
f 799 811 812
f 799 812 800
f 799 810 813
f 799 813 811
f 801 803 814
f 802 815 816
f 802 816 817
f 802 817 818
f 803 818 819
f 803 819 820
f 803 820 814
f 805 807 822
f 805 822 823
f 805 823 821
f 807 824 822
f 808 825 826
f 808 826 809
f 811 813 827
f 811 827 828
f 811 828 829
f 811 829 830
f 811 830 831
f 811 831 832
f 811 832 812
f 815 833 816
f 816 833 834
f 816 834 835
f 816 835 836
f 816 836 817
f 817 836 837
f 817 837 818
f 818 837 838
f 818 838 819
f 821 823 839
f 822 824 823
f 823 824 840
f 823 840 841
f 823 841 839
f 824 842 840
f 825 843 844
f 825 844 845
f 825 845 826
f 828 846 829
f 829 846 847
f 829 847 830
f 830 847 848
f 833 849 850
f 833 850 834
f 834 850 851
f 834 851 852
f 834 852 853
f 834 853 854
f 834 854 835
f 835 854 855
f 835 855 856
f 835 856 836
f 840 857 858
f 840 858 841
f 840 842 859
f 840 859 857
f 841 858 860
f 843 861 844
f 844 861 862
f 846 863 847
f 847 863 864
f 847 864 865
f 847 865 848
f 849 866 850
f 850 866 867
f 850 867 851
f 851 868 852
f 851 867 869
f 851 869 870
f 851 870 868
f 852 859 871
f 852 871 854
f 852 854 853
f 852 868 883
f 852 883 872
f 852 872 873
f 852 873 857
f 852 857 859
f 854 871 855
f 855 871 859
f 855 859 856
f 857 873 858
f 858 874 875
f 858 875 876
f 858 876 877
f 858 877 860
f 858 873 874
f 861 878 862
f 862 878 879
f 862 879 880
f 863 881 864
f 863 882 881
f 868 870 883
f 870 884 883
f 872 885 873
f 872 883 885
f 873 885 886
f 873 886 880
f 873 880 887
f 873 887 875
f 873 875 874
f 875 887 880
f 875 880 879
f 875 879 878
f 881 882 888
f 882 889 885
f 882 885 883
f 882 883 890
f 882 890 888
f 883 884 890
f 884 888 890
f 885 889 886
o convex_8
v -0.328683 0.332708 0.45698
v -0.320678 0.320681 0.432922
v -0.328683 0.316672 0.424906
v -0.416998 0.283305 0.438276
v -0.416998 0.288608 0.448895
v -0.416998 0.288665 0.449013
v -0.416998 0.288665 0.464878
v -0.416998 0.288631 0.465006
v -0.416998 0.283259 0.475674
v -0.326015 0.315332 0.491706
v -0.120702 0.315661 0.505115
v -0.120702 0.318796 0.49705
v -0.120702 0.320681 0.488594
v -0.120702 0.320681 0.448964
v -0.320678 0.315332 0.422234
v -0.120702 0.312515 0.432628
v -0.320678 0.304645 0.41689
v -0.331351 0.309983 0.422234
v -0.416998 0.272584 0.432922
v -0.416998 0.272811 0.480911
v -0.326015 0.283259 0.507739
v -0.120702 0.312708 0.508071
v -0.312644 0.312663 0.420903
v -0.120702 0.309983 0.427578
v -0.320678 0.240522 0.41689
v -0.416998 0.272481 0.432883
v -0.120702 0.288608 0.41689
v -0.120702 0.271641 0.415001
v -0.120702 0.252765 0.413112
v -0.416998 0.272584 0.481018
v -0.320678 0.272584 0.513092
v -0.120702 0.304645 0.511203
v -0.120702 0.304349 0.424759
v -0.315313 0.229824 0.422234
v -0.416998 0.244497 0.436905
v -0.416998 0.256547 0.432883
v -0.120702 0.248086 0.413112
v -0.120702 0.239 0.415382
v -0.416998 0.272481 0.481018
v -0.416882 0.256547 0.481018
v -0.416998 0.256479 0.480979
v -0.328683 0.264565 0.509079
v -0.120702 0.232947 0.508972
v -0.14431 0.256547 0.513092
v -0.120702 0.296184 0.513092
v -0.320678 0.224486 0.432922
v -0.120702 0.23205 0.420012
v -0.120702 0.229824 0.422234
v -0.120702 0.227598 0.424465
v -0.120702 0.222964 0.431414
v -0.120702 0.216911 0.440497
v -0.416998 0.240465 0.448964
v -0.416998 0.24586 0.475674
v -0.336688 0.256547 0.50307
v -0.328683 0.232504 0.493047
v -0.120702 0.232277 0.508522
v -0.120702 0.256547 0.513092
v -0.336688 0.224486 0.448964
v -0.120702 0.216695 0.441163
v -0.416998 0.240465 0.46482
v -0.416998 0.245781 0.475606
v -0.336688 0.228495 0.483025
v -0.320678 0.229824 0.491706
v -0.120702 0.22912 0.503158
v -0.336688 0.224486 0.464986
v -0.120702 0.216695 0.468656
v -0.416998 0.240477 0.464986
v -0.320678 0.224486 0.481018
v -0.120702 0.226598 0.498107
f 891 892 893
f 891 893 894
f 891 894 895
f 891 895 896
f 891 896 897
f 891 897 898
f 891 898 899
f 891 899 900
f 891 900 901
f 891 901 902
f 891 902 903
f 891 903 904
f 891 904 892
f 892 905 893
f 892 904 906
f 892 906 905
f 893 905 907
f 893 907 908
f 893 908 894
f 894 908 909
f 894 909 916
f 894 916 926
f 894 926 925
f 894 925 942
f 894 942 950
f 894 950 957
f 894 957 951
f 894 951 943
f 894 943 931
f 894 931 929
f 894 929 920
f 894 920 910
f 894 910 899
f 894 899 898
f 894 898 897
f 894 897 896
f 894 896 895
f 899 910 900
f 900 910 911
f 900 911 912
f 900 912 901
f 901 912 922
f 901 922 935
f 901 935 947
f 901 947 933
f 901 933 946
f 901 946 954
f 901 954 959
f 901 959 956
f 901 956 949
f 901 949 941
f 901 941 940
f 901 940 939
f 901 939 938
f 901 938 937
f 901 937 928
f 901 928 927
f 901 927 919
f 901 919 918
f 901 918 917
f 901 917 923
f 901 923 914
f 901 914 906
f 901 906 904
f 901 904 903
f 901 903 902
f 905 913 907
f 905 906 914
f 905 914 913
f 907 915 926
f 907 926 916
f 907 916 909
f 907 909 908
f 907 913 917
f 907 917 918
f 907 918 919
f 907 919 927
f 907 927 915
f 910 920 911
f 911 921 912
f 911 920 921
f 912 921 922
f 913 914 923
f 913 923 917
f 915 924 925
f 915 925 926
f 915 927 928
f 915 928 924
f 920 929 921
f 921 929 930
f 921 930 931
f 921 931 932
f 921 932 933
f 921 933 934
f 921 934 947
f 921 947 935
f 921 935 922
f 924 936 925
f 924 928 937
f 924 937 938
f 924 938 939
f 924 939 940
f 924 940 941
f 924 941 936
f 925 936 942
f 929 931 930
f 931 943 944
f 931 944 932
f 932 945 933
f 932 944 945
f 933 947 934
f 933 945 946
f 936 948 942
f 936 941 949
f 936 949 948
f 942 948 955
f 942 955 950
f 943 951 945
f 943 945 944
f 945 951 952
f 945 952 953
f 945 953 946
f 946 953 954
f 948 949 956
f 948 956 955
f 950 955 957
f 951 957 952
f 952 957 958
f 952 958 953
f 953 958 954
f 954 958 959
f 955 958 957
f 955 956 958
f 956 959 958
o convex_9
v 0.191226 0.0962048 -0.59325
v 0.191226 0.101551 -0.603941
v 0.192423 0.0962048 -0.59325
v 0.191226 0.0962048 -0.577226
v 0.191226 0.112243 -0.609297
v 0.197763 0.101551 -0.603941
v 0.204442 0.104224 -0.601262
v 0.203104 0.101551 -0.59325
v 0.192423 0.0962048 -0.577226
v 0.191226 0.125914 -0.381292
v 0.191226 0.128954 -0.60557
v 0.197763 0.149665 -0.603941
v 0.288581 0.304659 -0.59325
v 0.280591 0.184394 -0.60528
v 0.192423 0.112243 -0.609297
v 0.277914 0.165703 -0.603941
v 0.284593 0.168376 -0.601262
v 0.283269 0.165703 -0.59325
v 0.203104 0.101551 -0.577226
v 0.200441 0.100225 -0.569191
v 0.264555 0.164357 -0.440949
v 0.251211 0.165703 -0.381292
v 0.191226 0.304659 -0.381292
v 0.191226 0.143136 -0.600682
v 0.267233 0.304659 -0.58256
v 0.191226 0.304659 -0.536829
v 0.20524 0.304659 -0.548368
v 0.312663 0.29662 -0.589233
v 0.288609 0.304639 -0.59325
v 0.304645 0.304659 -0.587202
v 0.304645 0.304639 -0.587247
v 0.283269 0.176395 -0.603941
v 0.304645 0.288601 -0.59325
v 0.320681 0.256545 -0.59325
v 0.320681 0.240507 -0.59325
v 0.332701 0.232488 -0.585238
v 0.283269 0.165703 -0.545154
v 0.280591 0.164357 -0.537142
v 0.267233 0.165703 -0.448961
v 0.29395 0.219123 -0.400865
v 0.277914 0.203085 -0.38484
v 0.279096 0.207206 -0.381292
v 0.272573 0.304659 -0.381292
v 0.328699 0.264544 -0.589233
v 0.315326 0.299293 -0.58256
v 0.312649 0.304659 -0.577203
v 0.331362 0.240507 -0.587916
v 0.331362 0.256545 -0.587916
v 0.336703 0.256545 -0.577226
v 0.334039 0.253872 -0.563857
v 0.320681 0.240507 -0.497058
v 0.304645 0.240507 -0.400865
v 0.309986 0.219123 -0.497058
v 0.300629 0.238507 -0.38484
v 0.298863 0.237609 -0.381292
v 0.278284 0.294314 -0.381292
v 0.280591 0.29662 -0.392853
v 0.276575 0.304659 -0.39687
v 0.331362 0.267217 -0.58256
v 0.320681 0.288601 -0.577226
v 0.326022 0.277909 -0.571869
v 0.304631 0.304659 -0.529129
v 0.304645 0.304639 -0.529107
v 0.309986 0.293947 -0.523773
v 0.328699 0.264544 -0.553166
v 0.320681 0.256545 -0.497058
v 0.304645 0.256545 -0.41689
v 0.297524 0.249424 -0.381292
v 0.298863 0.242915 -0.381292
v 0.29432 0.262238 -0.381292
v 0.296627 0.264544 -0.392853
v 0.288609 0.304639 -0.448961
v 0.288595 0.304659 -0.448961
v 0.320681 0.272563 -0.529107
v 0.312663 0.280582 -0.50507
f 960 961 965
f 960 965 962
f 960 962 968
f 960 968 963
f 960 963 969
f 960 969 982
f 960 982 985
f 960 985 983
f 960 983 970
f 960 970 964
f 960 964 961
f 961 964 974
f 961 974 965
f 962 965 966
f 962 966 967
f 962 967 978
f 962 978 968
f 963 968 969
f 964 970 971
f 964 971 972
f 964 972 973
f 964 973 974
f 965 974 975
f 965 975 976
f 965 976 966
f 966 976 977
f 966 977 967
f 967 977 996
f 967 996 978
f 968 978 979
f 968 979 969
f 969 980 981
f 969 981 1001
f 969 1001 1014
f 969 1014 1028
f 969 1028 1027
f 969 1027 1029
f 969 1029 1015
f 969 1015 1002
f 969 1002 982
f 969 979 980
f 970 983 971
f 971 984 972
f 971 983 985
f 971 985 986
f 971 986 984
f 972 987 988
f 972 988 973
f 972 984 986
f 972 986 985
f 972 985 982
f 972 982 1002
f 972 1002 1017
f 972 1017 1032
f 972 1032 1021
f 972 1021 1005
f 972 1005 989
f 972 989 990
f 972 990 987
f 973 991 975
f 973 975 974
f 973 988 992
f 973 992 993
f 973 993 994
f 973 994 991
f 975 991 976
f 976 991 995
f 976 995 977
f 977 995 996
f 978 996 997
f 978 997 979
f 979 997 980
f 980 998 999
f 980 999 981
f 980 997 996
f 980 996 998
f 981 999 1000
f 981 1000 1001
f 987 1003 993
f 987 993 992
f 987 992 988
f 987 990 1004
f 987 1004 1018
f 987 1018 1003
f 989 1005 990
f 990 1005 1004
f 991 994 1006
f 991 1006 995
f 993 1003 1007
f 993 1007 1006
f 993 1006 994
f 995 1006 1007
f 995 1007 1008
f 995 1008 1009
f 995 1009 1010
f 995 1010 1011
f 995 1011 999
f 995 999 1012
f 995 1012 996
f 996 1012 999
f 996 999 998
f 999 1011 1013
f 999 1013 1014
f 999 1014 1000
f 1000 1014 1001
f 1002 1015 1016
f 1002 1016 1017
f 1003 1018 1008
f 1003 1008 1007
f 1004 1005 1019
f 1004 1019 1018
f 1005 1020 1019
f 1005 1021 1022
f 1005 1022 1023
f 1005 1023 1020
f 1008 1018 1019
f 1008 1019 1020
f 1008 1020 1024
f 1008 1024 1025
f 1008 1025 1011
f 1008 1011 1009
f 1009 1011 1010
f 1011 1026 1027
f 1011 1027 1028
f 1011 1028 1013
f 1011 1025 1026
f 1013 1028 1014
f 1015 1029 1030
f 1015 1030 1016
f 1016 1030 1034
f 1016 1034 1031
f 1016 1031 1017
f 1017 1031 1032
f 1020 1023 1033
f 1020 1033 1024
f 1021 1032 1022
f 1022 1032 1031
f 1022 1031 1023
f 1023 1034 1033
f 1023 1031 1034
f 1024 1033 1025
f 1025 1033 1026
f 1026 1030 1029
f 1026 1029 1027
f 1026 1033 1034
f 1026 1034 1030
o convex_10
v -0.0543122 0.0962048 -0.593257
v -0.0543122 0.101551 -0.603952
v 0.0320661 0.0962048 -0.593257
v -0.0543122 0.0962048 -0.561193
v -0.0543122 0.106019 -0.606185
v 0.0374097 0.101551 -0.603952
v 0.0534404 0.106897 -0.593257
v 0.0320661 0.0962048 -0.513075
v -0.0480993 0.112243 -0.381292
v -0.0543122 0.115365 -0.381292
v -0.0543122 0.112243 -0.609289
v 0.0320661 0.112243 -0.609289
v 0.0440862 0.104224 -0.601273
v 0.0640812 0.12824 -0.609266
v 0.0640812 0.116099 -0.604309
v 0.0640812 0.112243 -0.593279
v 0.0640812 0.112223 -0.577292
v 0.0534404 0.106897 -0.513075
v 0.0640812 0.112223 -0.49711
v 0.0640812 0.112243 -0.449014
v 0.0640812 0.120282 -0.381292
v 0.0320661 0.112243 -0.381292
v -0.0543122 0.304659 -0.381292
v -0.0480993 0.272563 -0.6094
v -0.0480993 0.224469 -0.6094
v -0.0427557 0.213777 -0.6094
v -0.0320569 0.208431 -0.6094
v -0.0543122 0.304639 -0.528392
v 4.58736e-06 0.208431 -0.6094
v 0.0106802 0.213777 -0.6094
v 0.0480968 0.128281 -0.609289
v 0.0640812 0.144278 -0.609289
v 0.0640812 0.304659 -0.381292
v -0.0543122 0.304659 -0.501911
v -0.0427557 0.283255 -0.6094
v -0.0285679 0.304659 -0.589773
v 0.015989 0.224408 -0.6094
v 0.0160237 0.240405 -0.6094
v 0.0160237 0.272563 -0.6094
v 0.0640812 0.304659 -0.545183
v -0.0321265 0.28856 -0.6094
v -0.0160493 0.304659 -0.593234
v 0.0106802 0.283255 -0.6094
v 0.0374097 0.304659 -0.566529
v -0.0161305 0.288601 -0.6094
v -0.0160262 0.304639 -0.593257
v 0.00200988 0.304659 -0.589238
v 0.00021323 0.288499 -0.6094
v 4.58736e-06 0.288601 -0.6094
f 1035 1036 1040
f 1035 1040 1037
f 1035 1037 1042
f 1035 1042 1038
f 1035 1038 1044
f 1035 1044 1057
f 1035 1057 1068
f 1035 1068 1062
f 1035 1062 1045
f 1035 1045 1039
f 1035 1039 1036
f 1036 1039 1040
f 1037 1040 1041
f 1037 1041 1052
f 1037 1052 1042
f 1038 1042 1043
f 1038 1043 1044
f 1039 1045 1046
f 1039 1046 1040
f 1040 1047 1041
f 1040 1046 1048
f 1040 1048 1049
f 1040 1049 1047
f 1041 1047 1050
f 1041 1050 1051
f 1041 1051 1053
f 1041 1053 1052
f 1042 1052 1053
f 1042 1053 1054
f 1042 1054 1055
f 1042 1055 1056
f 1042 1056 1043
f 1043 1056 1055
f 1043 1055 1067
f 1043 1067 1057
f 1043 1057 1044
f 1045 1058 1059
f 1045 1059 1060
f 1045 1060 1061
f 1045 1061 1063
f 1045 1063 1046
f 1045 1062 1058
f 1046 1063 1064
f 1046 1064 1065
f 1046 1065 1048
f 1047 1049 1050
f 1048 1065 1066
f 1048 1066 1074
f 1048 1074 1067
f 1048 1067 1055
f 1048 1055 1054
f 1048 1054 1053
f 1048 1053 1051
f 1048 1051 1050
f 1048 1050 1049
f 1057 1067 1074
f 1057 1074 1078
f 1057 1078 1081
f 1057 1081 1076
f 1057 1076 1070
f 1057 1070 1068
f 1058 1069 1075
f 1058 1075 1079
f 1058 1079 1083
f 1058 1083 1082
f 1058 1082 1077
f 1058 1077 1073
f 1058 1073 1072
f 1058 1072 1071
f 1058 1071 1064
f 1058 1064 1063
f 1058 1063 1061
f 1058 1061 1060
f 1058 1060 1059
f 1058 1062 1069
f 1062 1068 1070
f 1062 1070 1069
f 1064 1071 1066
f 1064 1066 1065
f 1066 1071 1072
f 1066 1072 1073
f 1066 1073 1074
f 1069 1070 1075
f 1070 1076 1075
f 1073 1077 1074
f 1074 1077 1078
f 1075 1076 1080
f 1075 1080 1079
f 1076 1081 1080
f 1077 1082 1081
f 1077 1081 1078
f 1079 1080 1083
f 1080 1081 1083
f 1081 1082 1083
o convex_11
v -0.0641448 0.0962048 -0.59325
v -0.0748409 0.101551 -0.587916
v -0.0721556 0.104224 -0.601262
v -0.0588044 0.101551 -0.603941
v -0.0543238 0.0962048 -0.59325
v -0.0641448 0.0962048 -0.561179
v -0.149638 0.155011 -0.598607
v -0.0748409 0.101551 -0.555844
v -0.0641448 0.112243 -0.609297
v -0.0543238 0.101551 -0.603941
v -0.0543238 0.0962048 -0.561179
v -0.0543238 0.115365 -0.381292
v -0.197748 0.219123 -0.566535
v -0.197748 0.219123 -0.58256
v -0.203088 0.245853 -0.587916
v -0.154994 0.181721 -0.603941
v -0.141627 0.16303 -0.606619
v -0.154994 0.165703 -0.507726
v -0.0551686 0.115773 -0.381292
v -0.0588044 0.117589 -0.381292
v -0.138957 0.165703 -0.411556
v -0.128276 0.160357 -0.609297
v -0.0543238 0.112243 -0.609297
v -0.0543238 0.304659 -0.381292
v -0.203088 0.229815 -0.555844
v -0.208429 0.240507 -0.577226
v -0.192407 0.240507 -0.59325
v -0.204431 0.280582 -0.585238
v -0.203088 0.277909 -0.587916
v -0.152323 0.184394 -0.60528
v -0.123433 0.165581 -0.381292
v -0.165675 0.219123 -0.381292
v -0.0775112 0.146992 -0.606619
v -0.176386 0.304659 -0.59325
v -0.0721556 0.152338 -0.60528
v -0.0543238 0.304639 -0.528393
v -0.151871 0.304659 -0.381292
v -0.0543238 0.304659 -0.501923
v -0.208429 0.240507 -0.561179
v -0.17103 0.229815 -0.381292
v -0.176371 0.240507 -0.381292
v -0.208429 0.256545 -0.577226
v -0.192407 0.272563 -0.59325
v -0.188394 0.29662 -0.537142
v -0.184381 0.304659 -0.545154
v -0.198412 0.288601 -0.577226
v -0.18853 0.304659 -0.588273
v -0.208429 0.256545 -0.561179
v -0.204431 0.248526 -0.521095
v -0.158328 0.304659 -0.589255
v -0.0908624 0.304659 -0.550488
v -0.0661362 0.304659 -0.533124
v -0.166338 0.304659 -0.449006
v -0.166353 0.304639 -0.448961
v -0.155582 0.298109 -0.381292
v -0.158569 0.292131 -0.381292
v -0.172358 0.264544 -0.392853
v -0.188394 0.248526 -0.440949
v -0.182375 0.304659 -0.529152
v -0.172358 0.29662 -0.456974
f 1084 1085 1086
f 1084 1086 1087
f 1084 1087 1093
f 1084 1093 1088
f 1084 1088 1094
f 1084 1094 1089
f 1084 1089 1091
f 1084 1091 1085
f 1085 1090 1086
f 1085 1091 1090
f 1086 1090 1092
f 1086 1092 1087
f 1087 1092 1106
f 1087 1106 1093
f 1088 1093 1106
f 1088 1106 1119
f 1088 1119 1121
f 1088 1121 1107
f 1088 1107 1095
f 1088 1095 1094
f 1089 1094 1095
f 1089 1095 1091
f 1090 1096 1097
f 1090 1097 1098
f 1090 1098 1099
f 1090 1099 1100
f 1090 1100 1092
f 1090 1091 1101
f 1090 1101 1096
f 1091 1095 1102
f 1091 1102 1103
f 1091 1103 1104
f 1091 1104 1101
f 1092 1100 1105
f 1092 1105 1106
f 1095 1107 1120
f 1095 1120 1138
f 1095 1138 1139
f 1095 1139 1124
f 1095 1124 1123
f 1095 1123 1115
f 1095 1115 1114
f 1095 1114 1103
f 1095 1103 1102
f 1096 1108 1122
f 1096 1122 1109
f 1096 1109 1097
f 1096 1101 1108
f 1097 1109 1098
f 1098 1110 1099
f 1098 1109 1111
f 1098 1111 1112
f 1098 1112 1126
f 1098 1126 1110
f 1099 1113 1100
f 1099 1110 1113
f 1100 1113 1105
f 1101 1104 1108
f 1103 1114 1104
f 1104 1114 1115
f 1104 1115 1108
f 1105 1116 1106
f 1105 1113 1117
f 1105 1117 1116
f 1106 1116 1118
f 1106 1118 1119
f 1107 1121 1135
f 1107 1135 1134
f 1107 1134 1133
f 1107 1133 1117
f 1107 1117 1130
f 1107 1130 1128
f 1107 1128 1142
f 1107 1142 1136
f 1107 1136 1120
f 1108 1115 1123
f 1108 1123 1124
f 1108 1124 1122
f 1109 1125 1111
f 1109 1122 1131
f 1109 1131 1125
f 1110 1126 1113
f 1111 1127 1128
f 1111 1128 1129
f 1111 1129 1130
f 1111 1130 1112
f 1111 1125 1131
f 1111 1131 1132
f 1111 1132 1127
f 1112 1130 1117
f 1112 1117 1126
f 1113 1126 1117
f 1116 1117 1118
f 1117 1133 1118
f 1118 1133 1134
f 1118 1134 1119
f 1119 1134 1135
f 1119 1135 1121
f 1120 1136 1137
f 1120 1137 1138
f 1122 1124 1132
f 1122 1132 1131
f 1124 1139 1140
f 1124 1140 1141
f 1124 1141 1132
f 1127 1142 1128
f 1127 1132 1143
f 1127 1143 1137
f 1127 1137 1142
f 1128 1130 1129
f 1132 1141 1143
f 1136 1142 1137
f 1137 1143 1138
f 1138 1143 1139
f 1139 1143 1140
f 1140 1143 1141
o convex_12
v 0.191226 0.304659 -0.381292
v 0.0641052 0.304659 -0.381292
v 0.191226 0.18725 -0.381292
v 0.191226 0.304659 -0.536832
v 0.0641052 0.18725 -0.381292
v 0.0641052 0.304659 -0.545183
v 0.191226 0.18725 -0.555745
v 0.176368 0.240519 -0.609289
v 0.176268 0.241036 -0.6094
v 0.17241 0.256436 -0.6094
v 0.164396 0.27664 -0.6094
v 0.154988 0.28326 -0.6094
v 0.138959 0.304659 -0.587898
v 0.0641052 0.18725 -0.571799
v 0.106902 0.304659 -0.582561
v 0.100232 0.274537 -0.6094
v 0.0962122 0.256539 -0.6094
v 0.12369 0.18725 -0.601563
v 0.165615 0.219108 -0.6094
v 0.171029 0.229831 -0.6094
v 0.17633 0.24045 -0.6094
v 0.144509 0.288501 -0.6094
v 0.144298 0.288604 -0.6094
v 0.128269 0.304648 -0.593257
v 0.128244 0.304659 -0.593234
v 0.0962122 0.256436 -0.6094
v 0.0724431 0.18725 -0.579793
v 0.115738 0.304659 -0.589773
v 0.112278 0.282605 -0.6094
v 0.112241 0.18725 -0.60384
v 0.144298 0.208454 -0.6094
v 0.144198 0.288604 -0.6094
v 0.128195 0.28857 -0.6094
v 0.0997464 0.240519 -0.6094
v 0.0927775 0.18725 -0.596695
v 0.103306 0.18725 -0.601719
v 0.108234 0.224268 -0.6094
v 0.117592 0.213798 -0.6094
v 0.12817 0.2085 -0.6094
v 0.128269 0.208454 -0.6094
v 0.100443 0.238737 -0.6094
f 1144 1145 1148
f 1144 1148 1146
f 1144 1146 1150
f 1144 1150 1147
f 1144 1147 1156
f 1144 1156 1168
f 1144 1168 1171
f 1144 1171 1158
f 1144 1158 1149
f 1144 1149 1145
f 1145 1149 1157
f 1145 1157 1148
f 1146 1148 1157
f 1146 1157 1170
f 1146 1170 1178
f 1146 1178 1179
f 1146 1179 1173
f 1146 1173 1161
f 1146 1161 1150
f 1147 1150 1151
f 1147 1151 1152
f 1147 1152 1153
f 1147 1153 1154
f 1147 1154 1155
f 1147 1155 1156
f 1149 1158 1159
f 1149 1159 1160
f 1149 1160 1157
f 1150 1161 1162
f 1150 1162 1163
f 1150 1163 1164
f 1150 1164 1151
f 1151 1164 1152
f 1152 1164 1163
f 1152 1163 1162
f 1152 1162 1174
f 1152 1174 1183
f 1152 1183 1182
f 1152 1182 1181
f 1152 1181 1180
f 1152 1180 1184
f 1152 1184 1177
f 1152 1177 1169
f 1152 1169 1160
f 1152 1160 1159
f 1152 1159 1172
f 1152 1172 1176
f 1152 1176 1175
f 1152 1175 1166
f 1152 1166 1165
f 1152 1165 1155
f 1152 1155 1154
f 1152 1154 1153
f 1155 1165 1156
f 1156 1165 1166
f 1156 1166 1167
f 1156 1167 1168
f 1157 1160 1169
f 1157 1169 1170
f 1158 1171 1159
f 1159 1171 1172
f 1161 1173 1174
f 1161 1174 1162
f 1166 1175 1167
f 1167 1171 1168
f 1167 1175 1176
f 1167 1176 1171
f 1169 1177 1178
f 1169 1178 1170
f 1171 1176 1172
f 1173 1179 1180
f 1173 1180 1181
f 1173 1181 1182
f 1173 1182 1183
f 1173 1183 1174
f 1177 1184 1179
f 1177 1179 1178
f 1179 1184 1180
o convex_13
v 0.191226 0.187241 -0.381292
v 0.0641052 0.187241 -0.381292
v 0.191226 0.125909 -0.381292
v 0.191226 0.187241 -0.555733
v 0.0641052 0.120285 -0.381292
v 0.0641052 0.187241 -0.571802
v 0.18824 0.119938 -0.381292
v 0.191226 0.0962048 -0.577226
v 0.191226 0.181172 -0.566423
v 0.12369 0.187241 -0.601553
v 0.0676644 0.118494 -0.381292
v 0.0641052 0.112247 -0.449006
v 0.0724431 0.187241 -0.579792
v 0.0641052 0.181698 -0.582582
v 0.187057 0.117585 -0.381292
v 0.176368 0.0962048 -0.561179
v 0.191226 0.0962048 -0.59325
v 0.176368 0.112247 -0.381292
v 0.191226 0.160933 -0.592067
v 0.120267 0.18439 -0.60528
v 0.112241 0.187241 -0.603851
v 0.0694813 0.117585 -0.381292
v 0.0641052 0.11222 -0.497102
v 0.0962122 0.0962048 -0.513082
v 0.0801711 0.112247 -0.381292
v 0.0927775 0.187241 -0.596687
v 0.0881979 0.180379 -0.601262
v 0.0641052 0.165665 -0.598607
v 0.0962122 0.0962048 -0.59325
v 0.191226 0.101552 -0.603941
v 0.191226 0.159302 -0.59296
v 0.191226 0.128948 -0.60557
v 0.191226 0.112247 -0.609297
v 0.0641426 0.144303 -0.609297
v 0.0962122 0.178374 -0.60528
v 0.112241 0.187063 -0.603941
v 0.191226 0.143118 -0.600682
v 0.103306 0.187241 -0.601731
v 0.0641052 0.11222 -0.577292
v 0.0641052 0.155007 -0.603941
v 0.0641052 0.112247 -0.593295
v 0.0748324 0.106899 -0.598607
v 0.101551 0.101552 -0.603941
v 0.0962122 0.112247 -0.609297
v 0.0641052 0.144259 -0.609297
v 0.0641052 0.116105 -0.60432
v 0.0641052 0.128226 -0.609275
v 0.0641426 0.128279 -0.609297
f 1185 1186 1189
f 1185 1189 1195
f 1185 1195 1206
f 1185 1206 1209
f 1185 1209 1202
f 1185 1202 1199
f 1185 1199 1191
f 1185 1191 1187
f 1185 1187 1192
f 1185 1192 1201
f 1185 1201 1214
f 1185 1214 1217
f 1185 1217 1216
f 1185 1216 1221
f 1185 1221 1215
f 1185 1215 1203
f 1185 1203 1193
f 1185 1193 1188
f 1185 1188 1194
f 1185 1194 1205
f 1185 1205 1222
f 1185 1222 1210
f 1185 1210 1197
f 1185 1197 1190
f 1185 1190 1186
f 1186 1190 1198
f 1186 1198 1212
f 1186 1212 1224
f 1186 1224 1229
f 1186 1229 1231
f 1186 1231 1230
f 1186 1230 1225
f 1186 1225 1223
f 1186 1223 1207
f 1186 1207 1196
f 1186 1196 1189
f 1187 1191 1192
f 1188 1193 1194
f 1189 1196 1195
f 1190 1197 1198
f 1191 1199 1192
f 1192 1200 1208
f 1192 1208 1213
f 1192 1213 1201
f 1192 1199 1202
f 1192 1202 1200
f 1193 1203 1194
f 1194 1203 1204
f 1194 1204 1205
f 1195 1196 1206
f 1196 1207 1208
f 1196 1208 1209
f 1196 1209 1206
f 1197 1210 1198
f 1198 1210 1211
f 1198 1211 1212
f 1200 1202 1208
f 1201 1213 1227
f 1201 1227 1214
f 1202 1209 1208
f 1203 1215 1204
f 1204 1216 1217
f 1204 1217 1218
f 1204 1218 1219
f 1204 1219 1220
f 1204 1220 1205
f 1204 1215 1221
f 1204 1221 1216
f 1205 1220 1219
f 1205 1219 1222
f 1207 1223 1213
f 1207 1213 1208
f 1210 1222 1211
f 1211 1222 1219
f 1211 1219 1218
f 1211 1218 1224
f 1211 1224 1212
f 1213 1223 1225
f 1213 1225 1226
f 1213 1226 1227
f 1214 1227 1228
f 1214 1228 1217
f 1217 1228 1232
f 1217 1232 1229
f 1217 1229 1218
f 1218 1229 1224
f 1225 1230 1226
f 1226 1230 1227
f 1227 1230 1228
f 1228 1230 1231
f 1228 1231 1232
f 1229 1232 1231
