# https://github.com/mikedh/trimesh
v 0.14907700 0.08373180 -0.32972800
v 0.26792300 0.08373180 -0.32972800
v 0.14907700 0.08373180 -0.18547300
v 0.14907700 0.80364600 -0.32972800
v 0.28162300 0.08373180 -0.32284900
v 0.32972700 0.45341700 -0.32972800
v 0.34345300 0.45341700 -0.32284900
v 0.30910000 0.08373180 -0.10156500
v 0.14907700 0.20614300 -0.16488200
v 0.14907700 0.87030800 -0.30670100
v 0.18549000 0.80364600 -0.32972800
v 0.32285200 0.08373180 -0.26102900
v 0.34517900 0.44309700 -0.31940900
v 0.35032900 0.57701300 -0.32972800
v 0.36405500 0.57701300 -0.32284900
v 0.37093100 0.08373180 -0.10156500
v 0.14907700 0.86548600 -0.10156500
v 0.14907700 0.87758300 -0.30303900
v 0.15456200 0.87580600 -0.30395400
v 0.19579100 0.81396700 -0.32456900
v 0.28849800 0.82428700 -0.30911400
v 0.28849800 0.74180600 -0.32972800
v 0.32328900 0.08373180 -0.26015800
v 0.36578000 0.56669200 -0.31940900
v 0.35032900 0.61821100 -0.32972800
v 0.36063000 0.62853200 -0.32456900
v 0.36405500 0.61821100 -0.32284900
v 0.37093100 0.08373180 -0.16488200
v 0.39153200 0.20614300 -0.10306100
v 0.39153200 0.20758100 -0.10156500
v 0.14907700 0.92732600 -0.10156500
v 0.14907700 0.89137200 -0.29557900
v 0.22669400 0.87233800 -0.29537800
v 0.23699400 0.85516500 -0.30395400
v 0.29879900 0.83460800 -0.30395400
v 0.32972700 0.78308900 -0.30911400
v 0.32972700 0.65940900 -0.32972800
v 0.35032900 0.76244800 -0.30911400
v 0.32972700 0.08373180 -0.24729300
v 0.37093100 0.61821100 -0.30911400
v 0.37093100 0.57701300 -0.30911400
v 0.38638200 0.46373800 -0.23697500
v 0.35720500 0.08373180 -0.19235200
v 0.36063000 0.77276800 -0.30395400
v 0.36405500 0.76244800 -0.30223500
v 0.39153200 0.47405900 -0.22667900
v 0.39153200 0.28853900 -0.16488200
v 0.39153200 0.22669900 -0.12365300
v 0.41213400 0.53573000 -0.16488200
v 0.41213400 0.49461600 -0.12365300
v 0.41213400 0.49461600 -0.10306100
v 0.41177300 0.49588500 -0.10156500
v 0.24732100 0.92732600 -0.10156500
v 0.14907700 0.94796700 -0.14426700
v 0.18549000 0.89983200 -0.28162100
v 0.19579100 0.89636300 -0.28334000
v 0.14907700 0.91319800 -0.27255300
v 0.24732100 0.86548600 -0.29622700
v 0.24732100 0.89298000 -0.27476400
v 0.30910000 0.84484400 -0.29622700
v 0.32972700 0.82428700 -0.29622700
v 0.39153200 0.68005100 -0.24729300
v 0.37093100 0.76244800 -0.28849900
v 0.39153200 0.55637100 -0.24729300
v 0.36063000 0.79332500 -0.29365900
v 0.36578000 0.78308900 -0.29106800
v 0.41213400 0.57701300 -0.16488200
v 0.41213400 0.51661100 -0.10156500
v 0.22669400 0.94796700 -0.14426700
v 0.27585400 0.91463600 -0.10156500
v 0.29879900 0.91700500 -0.13397100
v 0.14907700 0.94796700 -0.18547300
v 0.14907700 0.91514400 -0.26913600
v 0.20609200 0.91353600 -0.25415000
v 0.26792300 0.90152400 -0.24986200
v 0.28849800 0.89298000 -0.25415000
v 0.30910000 0.87233800 -0.27476400
v 0.22669400 0.92216500 -0.22924800
v 0.31940100 0.85516500 -0.28334000
v 0.34002800 0.85516500 -0.27304400
v 0.39153200 0.72124900 -0.20608700
v 0.41213400 0.61821100 -0.14426700
v 0.37093100 0.78308900 -0.26788500
v 0.34517900 0.84484400 -0.27047600
v 0.34345300 0.85863300 -0.25415000
v 0.36405500 0.79679400 -0.27476400
v 0.41213400 0.55637100 -0.10156500
v 0.28849800 0.92732600 -0.16488200
v 0.22669400 0.94280700 -0.16745000
v 0.20609200 0.94796700 -0.16488200
v 0.31597600 0.89298000 -0.10156500
v 0.31255100 0.91015300 -0.16144200
v 0.30225000 0.92047300 -0.17173800
v 0.14907700 0.94399100 -0.20325100
v 0.18549000 0.94796700 -0.18547300
v 0.14907700 0.92081200 -0.25841600
v 0.14907700 0.92614100 -0.24789600
v 0.20609200 0.92047300 -0.24041500
v 0.30910000 0.90152400 -0.22924800
v 0.26792300 0.92216500 -0.20865600
v 0.31940100 0.89636300 -0.23183800
v 0.31940100 0.87580600 -0.26274800
v 0.20609200 0.92732600 -0.22667900
v 0.32972700 0.86548600 -0.26788500
v 0.32285200 0.89983200 -0.21296600
v 0.39153200 0.74180600 -0.12365300
v 0.41213400 0.61821100 -0.12365300
v 0.35032900 0.84484400 -0.24729300
v 0.32972700 0.88612700 -0.20608700
v 0.32972700 0.88612700 -0.18547300
v 0.41213400 0.59756900 -0.10306100
v 0.41185100 0.57667400 -0.10156500
v 0.28849800 0.92216500 -0.18806400
v 0.20609200 0.94280700 -0.18806400
v 0.32898100 0.86700800 -0.10156500
v 0.32285200 0.89983200 -0.19235200
v 0.29879900 0.91700500 -0.19063200
v 0.24732100 0.92732600 -0.20608700
v 0.39153200 0.74180600 -0.10306100
v 0.37093100 0.78308900 -0.10156500
v 0.37780600 0.76930000 -0.10156500
v 0.38048500 0.76388600 -0.10156500
v 0.41141300 0.59689300 -0.10156500
v 0.39124900 0.74155200 -0.10156500
f 1 2 5
f 60 77 79
f 60 79 80
f 60 80 61
f 61 80 65
f 62 81 82
f 62 82 67
f 62 63 83
f 62 83 81
f 63 66 83
f 65 80 66
f 66 80 84
f 66 84 85
f 59 78 75
f 66 85 86
f 69 88 113
f 69 113 89
f 69 89 114
f 69 114 90
f 69 71 88
f 70 91 71
f 71 92 93
f 71 93 88
f 72 95 94
f 73 96 74
f 74 96 97
f 74 97 98
f 66 86 83
f 59 74 78
f 59 76 77
f 59 99 76
f 44 66 45
f 45 66 63
f 46 64 49
f 46 49 47
f 47 49 48
f 49 64 62
f 49 62 67
f 49 67 82
f 49 82 107
f 49 107 111
f 49 111 87
f 49 87 68
f 49 68 51
f 49 51 50
f 51 68 52
f 53 70 71
f 53 71 69
f 54 69 90
f 54 90 95
f 54 95 72
f 55 59 56
f 55 57 59
f 57 73 74
f 57 74 59
f 58 59 77
f 58 77 60
f 59 75 99
f 74 98 78
f 75 78 100
f 75 100 99
f 76 99 101
f 92 105 93
f 93 105 117
f 93 117 113
f 94 95 97
f 95 114 103
f 95 103 97
f 97 103 98
f 99 100 113
f 99 113 101
f 100 118 114
f 101 113 117
f 101 117 105
f 101 104 102
f 103 114 118
f 105 116 110
f 105 110 109
f 106 108 119
f 107 119 111
f 108 110 119
f 110 115 120
f 110 120 121
f 110 121 122
f 110 122 119
f 111 123 112
f 111 119 124
f 111 124 123
f 119 122 124
f 92 116 105
f 44 65 66
f 91 116 92
f 91 115 110
f 76 101 77
f 77 101 102
f 77 102 80
f 77 80 79
f 78 98 103
f 78 103 118
f 78 118 100
f 80 102 104
f 80 104 101
f 80 101 105
f 80 105 85
f 80 85 84
f 81 83 106
f 81 106 82
f 82 106 119
f 82 119 107
f 83 86 85
f 83 85 108
f 83 108 106
f 85 105 109
f 85 109 110
f 85 110 108
f 87 111 112
f 88 93 113
f 89 113 100
f 89 100 114
f 90 114 95
f 91 110 116
f 44 61 65
f 71 91 92
f 40 63 62
f 3 8 9
f 4 10 11
f 5 7 13
f 5 13 12
f 6 14 15
f 6 15 7
f 7 15 24
f 7 24 13
f 8 16 30
f 8 30 52
f 8 52 68
f 8 68 87
f 8 87 112
f 8 112 123
f 8 123 124
f 8 124 122
f 8 122 121
f 8 121 120
f 8 120 115
f 8 115 91
f 8 91 70
f 8 70 53
f 8 53 31
f 8 31 17
f 8 17 9
f 10 18 19
f 10 19 11
f 2 7 5
f 11 19 20
f 2 6 7
f 1 14 6
f 1 5 12
f 1 12 23
f 1 23 39
f 1 39 43
f 41 64 46
f 1 28 16
f 1 16 8
f 1 8 3
f 1 3 9
f 1 9 17
f 1 17 31
f 1 31 54
f 1 54 72
f 1 72 94
f 1 94 97
f 1 97 96
f 1 96 73
f 1 73 57
f 1 57 32
f 1 32 18
f 1 18 10
f 1 10 4
f 1 4 11
f 1 11 22
f 1 22 37
f 1 37 25
f 1 25 14
f 1 6 2
f 11 20 35
f 1 43 28
f 11 21 22
f 27 45 63
f 27 63 40
f 28 42 46
f 28 46 47
f 28 47 48
f 28 48 29
f 29 48 49
f 29 49 50
f 29 50 51
f 29 51 30
f 30 51 52
f 31 53 69
f 31 69 54
f 32 55 56
f 32 56 33
f 32 57 55
f 33 58 34
f 33 56 59
f 33 59 58
f 34 58 35
f 35 60 61
f 35 61 44
f 35 44 36
f 35 58 60
f 40 62 64
f 40 64 41
f 11 35 21
f 26 45 27
f 26 44 45
f 36 44 38
f 25 38 44
f 25 44 26
f 12 24 23
f 14 26 15
f 15 26 27
f 15 27 24
f 16 28 29
f 16 29 30
f 18 32 19
f 19 32 33
f 19 33 34
f 19 34 20
f 20 34 35
f 14 25 26
f 21 36 22
f 25 37 38
f 21 35 36
f 24 43 39
f 24 28 43
f 24 42 28
f 24 46 42
f 12 13 24
f 24 40 41
f 22 36 38
f 24 27 40
f 23 24 39
f 22 38 37
f 24 41 46

