# https://github.com/mikedh/trimesh
v -0.29670400 -0.43278000 -0.16064100
v -0.26789700 -0.39156500 -0.08243000
v -0.29670400 -0.38511800 -0.16064100
v -0.28636400 -0.53581700 -0.16064100
v -0.28850500 -0.47399500 -0.14425500
v -0.24213800 -0.60794300 -0.03092010
v -0.25886300 -0.38511800 -0.06435100
v -0.26789700 -0.38511800 -0.08243000
v -0.15473800 -0.38511800 -0.16064100
v -0.26789700 -0.67582700 -0.16064100
v -0.26789700 -0.65946200 -0.14425500
v -0.24729000 -0.70062200 -0.08243000
v -0.22668200 -0.72123000 -0.04123530
v -0.21978900 -0.72123000 -0.02748900
v -0.21637900 -0.73153300 -0.02577350
v -0.23698600 -0.60794300 -0.02577350
v -0.24039700 -0.51521000 -0.02748900
v -0.24213800 -0.56672800 -0.03092010
v -0.24729000 -0.38511800 -0.04123530
v 0.07393880 -0.38511800 -0.02828080
v 0.07393880 -0.38754200 -0.02997430
v -0.06185960 -0.39156500 -0.11075800
v 0.07393880 -0.61174500 -0.16064100
v -0.26695400 -0.68001500 -0.16064100
v -0.24729000 -0.74183700 -0.12364700
v -0.24213800 -0.72123000 -0.07983470
v -0.22153100 -0.74183700 -0.03864000
v -0.19577100 -0.79335600 -0.02577350
v -0.15455700 -0.85517800 -0.00516513
v -0.09277070 -0.42247600 0.05666000
v -0.08286610 -0.38511800 0.06405000
v -0.12364500 -0.38511800 0.04363950
v -0.13304200 -0.38511800 0.03893280
v -0.24039700 -0.38511800 -0.02748900
v 0.07393880 -0.38511800 0.06405000
v 0.07393880 -0.94796700 -0.16064100
v -0.24729000 -0.74183700 -0.16064100
v -0.24213800 -0.74183700 -0.10044300
v -0.23909000 -0.75825700 -0.16064100
v -0.20607500 -0.82426700 -0.08243000
v -0.22153100 -0.76244500 -0.05922640
v -0.20092300 -0.80366000 -0.03864000
v -0.19577100 -0.81396300 -0.03606670
v -0.17516400 -0.85517800 -0.03606670
v -0.15796700 -0.85865000 -0.01374280
v -0.13394900 -0.87578600 -0.00516513
v -0.14425300 -0.84487500 -0.00001853
v -0.08246700 -0.41217200 0.06180660
v -0.07651700 -0.41217200 0.06405000
v 0.07393880 -0.49019400 0.06405000
v 0.07393880 -0.94796700 -0.06182170
v -0.04125220 -0.94796700 -0.16064100
v -0.20092300 -0.82426700 -0.05922640
v -0.19787600 -0.84068700 -0.16064100
v -0.18546800 -0.86548200 -0.10303800
v -0.19918200 -0.83804200 -0.07554590
v -0.19577100 -0.83457100 -0.05665310
v -0.17516400 -0.87578600 -0.07726140
v -0.13394900 -0.89639300 -0.03606670
v -0.13736000 -0.87925700 -0.01374280
v -0.12364500 -0.86548200 -0.00001853
v -0.11334200 -0.89639300 -0.01545830
v -0.09277070 -0.89639300 -0.00516513
v 0.01030260 -0.91700100 0.01544320
v -0.08246700 -0.80366000 0.02058980
v -0.10307400 -0.76244500 0.02058980
v -0.04125220 -0.49460200 0.06180660
v -0.05590960 -0.44749100 0.06405000
v 0.00667454 -0.49019400 0.06405000
v 0.07393880 -0.53581700 0.06180660
v 0.07393880 -0.93705700 -0.04002560
v 0.05151740 -0.92218000 0.01029660
v 0.04121370 -0.92730400 -0.00001853
v -0.02060850 -0.94796700 -0.06182170
v -0.04125220 -0.94796700 -0.08243000
v -0.10307400 -0.92730400 -0.16064100
v -0.19232500 -0.85176200 -0.16064100
v -0.17171700 -0.89297700 -0.10990100
v -0.17857400 -0.87925700 -0.09615430
v -0.15455700 -0.89639300 -0.07726140
v -0.11334200 -0.91700100 -0.05665310
v -0.09277070 -0.91700100 -0.03606670
v -0.04125220 -0.84487500 0.02058980
v 0.02060630 -0.90669700 0.02058980
v -0.07216330 -0.91700100 -0.01545830
v -0.05155590 -0.91700100 -0.00516513
v 0.02060630 -0.92047200 0.01372770
v -0.02060850 -0.51521000 0.06180660
v -0.01469480 -0.48870600 0.06405000
v 0.02060630 -0.53581700 0.06180660
v 0.04121370 -0.90669700 0.02058980
v 0.07393880 -0.88609000 0.02058980
v 0.07393880 -0.93419200 -0.03435120
v 0.02060630 -0.92730400 -0.00001853
v 0.07393880 -0.91231700 0.00847115
v 0.07212480 -0.91187600 0.01029660
v 0.06182110 -0.90928700 0.01544320
v 0.04121370 -0.92047200 0.01372770
v -0.04125220 -0.94278800 -0.05922640
v -0.04125220 -0.92730400 -0.02062690
v -0.06185960 -0.92218000 -0.01805360
v -0.10307400 -0.92218000 -0.05922640
v -0.10307400 -0.92730400 -0.08243000
v -0.11940100 -0.91915000 -0.16064100
v -0.13050300 -0.91358500 -0.16064100
v -0.15796700 -0.89986500 -0.09615430
v -0.11675200 -0.92047200 -0.07554590
v -0.04125220 -0.92047200 -0.00688066
v 0.07393880 -0.89567700 0.01847840
v 0.07393880 -0.90978300 0.01089050
v 0.07393880 -0.90372200 0.01443150
f 51 72 73
f 54 77 78
f 53 56 57
f 52 103 76
f 51 94 74
f 51 73 94
f 50 90 70
f 54 78 55
f 51 71 72
f 52 75 103
f 56 79 58
f 59 82 85
f 58 79 78
f 58 78 80
f 59 62 60
f 59 80 81
f 59 81 82
f 59 85 62
f 104 107 106
f 61 84 83
f 50 69 90
f 63 86 64
f 63 85 86
f 56 58 57
f 49 65 67
f 44 58 80
f 49 67 68
f 40 54 55
f 64 86 108
f 40 55 78
f 40 78 79
f 40 79 56
f 40 56 53
f 42 53 57
f 42 57 43
f 43 57 44
f 44 80 59
f 44 59 60
f 49 66 65
f 44 60 45
f 46 60 62
f 46 62 85
f 46 85 63
f 46 63 64
f 46 64 84
f 46 84 61
f 47 61 83
f 47 83 65
f 47 65 66
f 47 66 49
f 47 49 48
f 44 57 58
f 64 108 87
f 85 101 86
f 65 83 67
f 80 107 81
f 81 107 102
f 81 102 82
f 82 102 85
f 84 87 98
f 84 98 91
f 84 90 88
f 85 102 101
f 86 101 108
f 87 108 100
f 87 100 94
f 80 106 107
f 88 90 89
f 91 97 109
f 91 109 92
f 95 110 96
f 96 110 97
f 97 110 111
f 97 111 109
f 99 101 102
f 100 108 101
f 102 107 103
f 103 107 104
f 39 54 40
f 91 98 97
f 64 87 84
f 78 106 80
f 78 105 104
f 67 88 89
f 67 89 68
f 67 83 84
f 67 84 88
f 69 89 90
f 70 90 84
f 70 84 91
f 70 91 92
f 71 93 72
f 72 94 73
f 72 93 95
f 78 104 106
f 72 95 96
f 72 97 98
f 72 98 87
f 72 87 94
f 74 99 75
f 74 94 100
f 74 100 101
f 74 101 99
f 75 99 102
f 75 102 103
f 76 103 104
f 77 105 78
f 72 96 97
f 36 75 52
f 15 29 16
f 36 51 74
f 3 35 20
f 3 20 9
f 4 10 11
f 4 11 12
f 4 12 5
f 5 12 6
f 6 12 13
f 6 13 14
f 6 14 15
f 6 15 16
f 6 16 17
f 6 17 34
f 6 34 18
f 6 18 7
f 7 18 19
f 9 20 21
f 9 21 22
f 9 22 23
f 10 24 25
f 10 25 11
f 11 25 12
f 12 25 38
f 12 38 26
f 3 31 35
f 36 74 75
f 3 33 32
f 3 34 33
f 1 2 8
f 1 8 3
f 1 3 9
f 1 9 23
f 1 23 36
f 1 36 52
f 1 52 76
f 1 76 104
f 1 104 105
f 1 105 77
f 1 77 54
f 12 26 27
f 1 54 39
f 1 37 24
f 1 24 10
f 1 10 4
f 1 4 5
f 1 5 6
f 1 6 2
f 2 7 8
f 2 6 7
f 3 8 7
f 3 7 19
f 3 19 34
f 1 39 37
f 12 27 13
f 3 32 31
f 14 27 15
f 25 40 53
f 25 53 38
f 26 38 53
f 26 53 41
f 26 41 27
f 27 41 53
f 27 53 42
f 28 43 29
f 29 43 44
f 29 44 45
f 29 60 46
f 29 46 61
f 29 61 47
f 29 47 31
f 29 31 30
f 31 47 48
f 31 48 49
f 31 49 68
f 31 68 89
f 31 89 69
f 31 69 50
f 31 50 35
f 13 27 14
f 25 39 40
f 25 37 39
f 29 45 60
f 21 23 22
f 15 27 42
f 24 37 25
f 15 42 43
f 15 43 28
f 15 28 29
f 16 29 30
f 16 30 31
f 16 31 32
f 16 33 17
f 17 33 34
f 18 34 19
f 20 35 50
f 16 32 33
f 20 36 23
f 20 23 21
f 20 50 70
f 20 51 36
f 20 71 51
f 20 95 93
f 20 93 71
f 20 111 110
f 20 109 111
f 20 92 109
f 20 70 92
f 20 110 95

