# https://github.com/mikedh/trimesh
v -0.02078160 -0.15992000 0.06405000
v -0.15325800 -0.15992000 0.06405000
v 0.02394220 -0.16375500 0.06405000
v -0.21912000 -0.15992000 -0.14588300
v -0.21102300 -0.15992000 0.00649169
v -0.25339300 -0.21918100 0.06405000
v 0.04724570 -0.16648700 0.06405000
v -0.23423200 -0.15992000 -0.16064100
v -0.21813200 -0.15992000 -0.00111823
v -0.25489900 -0.22019500 0.06405000
v 0.07393880 -0.17406900 0.06405000
v -0.29279700 -0.15992000 -0.16064100
v 0.07393880 -0.17457500 0.06301620
v 0.07393880 -0.18264100 0.05443860
v 0.07393880 -0.19396900 0.04770840
v 0.06179280 -0.20609000 0.03347830
v 0.07393880 -0.37093600 -0.02379400
v 0.07393880 -0.38504100 -0.02828080
v -0.14426700 -0.37093600 -0.15197500
v -0.15533000 -0.38197800 -0.16064100
v -0.22020300 -0.15992000 -0.00461528
v -0.28601800 -0.15992000 -0.13930600
v -0.28333400 -0.23701000 0.03090500
v -0.29623400 -0.24730200 0.02058980
v -0.26200800 -0.23295500 0.06405000
v -0.22542900 -0.15992000 -0.01506240
v 0.07393880 -0.38504100 0.06405000
v -0.29463300 -0.16487900 -0.16064100
v -0.40526600 -0.32284900 -0.11676300
v -0.40700800 -0.31941100 -0.11333200
v 0.07393880 -0.20609000 0.04256180
v -0.15476500 -0.38504100 -0.16064100
v -0.39839200 -0.32972500 -0.09615430
v -0.26299700 -0.24730200 0.06405000
v -0.29533900 -0.26790700 0.02747400
v -0.08287720 -0.38504100 0.06405000
v -0.29665700 -0.18548400 -0.16064100
v -0.38120900 -0.34001700 -0.13908700
v -0.40182900 -0.34001700 -0.11333200
v -0.40526600 -0.32972500 -0.10990100
v -0.29665700 -0.38504100 -0.16064100
v -0.40182900 -0.34001700 -0.10818500
v -0.39151900 -0.34517400 -0.10044300
v -0.37777200 -0.32972500 -0.07554590
v -0.26285600 -0.24776500 0.06405000
v -0.27820300 -0.27819900 0.03605160
v -0.25758300 -0.25761600 0.06405000
v -0.12369400 -0.38504100 0.04363950
v -0.38808200 -0.34689300 -0.12019400
v -0.26789300 -0.38504100 -0.08243000
v -0.37089900 -0.34517400 -0.07983470
v -0.26572700 -0.38504100 -0.07809720
v -0.25885400 -0.38504100 -0.06435100
v -0.25414600 -0.38504100 -0.05493750
v -0.24039900 -0.38504100 -0.02748900
v -0.36063600 -0.34001700 -0.06696820
v -0.13306200 -0.38504100 0.03893280
v -0.36063600 -0.34517400 -0.07211480
f 24 33 25
f 33 40 42
f 30 40 33
f 30 39 40
f 29 39 30
f 29 38 39
f 28 38 29
f 28 37 38
f 25 35 34
f 25 33 35
f 24 30 33
f 18 36 48
f 22 30 24
f 18 20 19
f 18 32 20
f 18 41 32
f 18 50 41
f 18 52 50
f 18 53 52
f 18 54 53
f 18 55 54
f 18 57 55
f 18 48 57
f 33 42 43
f 22 24 23
f 33 43 51
f 51 58 56
f 33 44 35
f 18 27 36
f 47 57 48
f 46 57 47
f 46 55 57
f 46 56 55
f 44 51 56
f 43 55 51
f 43 54 55
f 43 53 54
f 43 52 53
f 43 50 52
f 41 43 49
f 41 50 43
f 39 43 42
f 39 49 43
f 39 42 40
f 38 41 49
f 38 49 39
f 37 41 38
f 36 47 48
f 35 47 45
f 35 46 47
f 35 56 46
f 35 44 56
f 34 35 45
f 33 51 44
f 16 31 17
f 8 14 15
f 12 30 22
f 4 7 8
f 3 7 4
f 2 5 6
f 1 5 2
f 1 9 5
f 1 21 9
f 1 26 21
f 1 22 26
f 1 12 22
f 1 8 12
f 1 4 8
f 5 9 6
f 1 3 4
f 1 11 7
f 1 27 11
f 1 36 27
f 1 47 36
f 1 45 47
f 1 34 45
f 1 25 34
f 1 10 25
f 1 6 10
f 1 2 6
f 51 55 58
f 1 7 3
f 6 9 10
f 7 11 8
f 8 11 13
f 12 29 30
f 12 28 29
f 11 14 13
f 11 15 14
f 11 31 15
f 11 17 31
f 11 18 17
f 11 27 18
f 10 26 22
f 10 21 26
f 10 24 25
f 10 23 24
f 10 22 23
f 9 21 10
f 8 28 12
f 8 37 28
f 8 41 37
f 8 32 41
f 8 20 32
f 8 19 20
f 8 18 19
f 8 17 18
f 8 16 17
f 8 15 16
f 8 13 14
f 15 31 16
f 55 56 58

