# https://github.com/mikedh/trimesh
v 0.09787190 -0.49011300 0.06406000
v 0.14427200 -0.49011300 0.06406000
v 0.22987200 -0.39993000 0.16704800
v 0.20827400 -0.39778000 0.16704800
v 0.20154000 -0.39610100 0.16704800
v 0.11336200 -0.31944900 0.16704800
v 0.09787190 -0.30429200 0.16704800
v 0.09787190 -0.22223800 0.06406000
v 0.24728900 -0.48316400 0.06406000
v 0.24728900 -0.48083000 0.06869780
v 0.26788800 -0.47537600 0.06406000
v 0.27123200 -0.47369700 0.06406000
v 0.24243500 -0.39153800 0.16704800
v 0.09787190 -0.22223800 0.16704800
v 0.33511900 -0.22223800 0.06406000
v 0.24206400 -0.37092700 0.16704800
v 0.21229200 -0.22223800 0.16704800
v 0.33121700 -0.22223800 0.06772990
v 0.22262600 -0.22223800 0.16081700
f 3 17 14
f 3 14 7
f 3 7 6
f 3 6 5
f 3 5 4
f 8 14 17
f 8 17 19
f 13 15 16
f 8 18 15
f 9 11 10
f 12 15 13
f 15 18 16
f 16 18 19
f 16 19 17
f 3 16 17
f 8 19 18
f 3 13 16
f 1 11 9
f 3 11 12
f 3 12 13
f 1 3 4
f 1 4 5
f 1 5 6
f 1 6 7
f 1 7 14
f 1 14 8
f 1 2 3
f 1 15 12
f 1 8 15
f 2 10 3
f 2 9 10
f 3 10 11
f 1 12 11
f 1 9 2

