# https://github.com/mikedh/trimesh
v 0.09787190 -0.22223800 0.06407390
v 0.33509900 -0.22223800 0.06407390
v 0.09787190 -0.22223800 0.22532700
v 0.09787190 -0.18869400 0.06407390
v 0.34001700 -0.21121600 0.07213420
v 0.33122300 -0.22223800 0.06774420
v 0.34405300 -0.20921000 0.06407390
v 0.10257600 -0.22223800 0.22794200
v 0.09787190 -0.04121990 0.30909600
v 0.09787190 -0.18545900 0.06568120
v 0.28869600 0.08373180 0.06407390
v 0.29880000 -0.08758260 0.19577300
v 0.30224800 -0.17171200 0.13740800
v 0.28850900 -0.18803500 0.13911100
v 0.25758300 -0.20091400 0.15458400
v 0.13537400 -0.22223800 0.23837700
v 0.36578500 -0.11334000 0.09274060
v 0.34001700 -0.04637130 0.17519000
v 0.34488200 -0.20600500 0.06407390
v 0.12863800 -0.22223800 0.23631400
v 0.12366600 -0.04121990 0.30909600
v 0.09787190 -0.00000857 0.30909600
v 0.09787190 -0.18027800 0.06827200
v 0.09787190 -0.03951270 0.19855500
v 0.09787190 -0.02920990 0.20949400
v 0.09787190 -0.00018827 0.24228700
v 0.09787190 0.00280674 0.24638900
v 0.09787190 0.01349890 0.26723500
v 0.09787190 0.01930920 0.28268400
v 0.09787190 0.02059710 0.28848900
v 0.29364100 0.08373180 0.08631160
v 0.37094400 0.08373180 0.06407390
v 0.09787190 -0.17000500 0.07470100
v 0.09787190 -0.16311700 0.08072220
v 0.23697400 -0.17000500 0.19577300
v 0.29880000 -0.04637130 0.21637900
v 0.23697400 -0.06697690 0.25759200
v 0.19578300 -0.06697690 0.27819800
v 0.18549200 -0.06440120 0.28335600
v 0.34921200 -0.18656800 0.06407390
v 0.37094400 -0.08243120 0.06407390
v 0.37094400 -0.08243120 0.08244940
v 0.35033500 -0.02061420 0.16487500
v 0.34346500 -0.02750270 0.17862100
v 0.33659600 -0.01375560 0.19231800
v 0.31598700 -0.01375560 0.21294900
v 0.18549200 -0.04121990 0.28848900
v 0.14427500 -0.00000857 0.30909600
v 0.09787190 0.01373850 0.30223500
v 0.19923100 0.03434420 0.26102200
v 0.20610100 0.04120270 0.24727700
v 0.32972600 0.08373180 0.12366200
v 0.31553300 0.08373180 0.11672900
v 0.30331700 0.08373180 0.10144900
v 0.37094400 0.08373180 0.08244940
v 0.30224800 -0.02750270 0.21980900
v 0.24042200 -0.04810840 0.26102200
v 0.19923100 -0.04810840 0.28162900
v 0.34346500 -0.00689708 0.17862100
v 0.33659600 0.00685000 0.19231800
v 0.25416100 -0.03436130 0.25416100
v 0.31598700 0.02745570 0.21294900
v 0.29537800 0.00685000 0.23355500
v 0.15801400 -0.00689708 0.30223500
v 0.17175300 0.00685000 0.29537400
v 0.13740500 0.01373850 0.30223500
v 0.21984000 0.03434420 0.26102200
v 0.22671000 0.04120270 0.24727700
v 0.34346500 0.08373180 0.11680100
v 0.35720500 0.08373180 0.10991700
v 0.21297000 -0.03436130 0.27476800
v 0.33314800 0.02404130 0.18888800
v 0.29537800 0.02745570 0.23355500
v 0.21297000 0.00685000 0.27476800
v 0.25416100 0.02745570 0.25416100
v 0.20952200 0.02404130 0.27133700
v 0.26103100 0.03434420 0.24041600
v 0.26790000 0.04120270 0.22667000
v 0.28506100 0.03775850 0.22324000
f 37 57 58
f 37 58 38
f 38 58 39
f 39 58 47
f 42 55 43
f 43 55 59
f 43 59 44
f 44 59 60
f 45 60 62
f 46 61 57
f 46 57 56
f 46 62 73
f 46 73 63
f 36 57 37
f 46 63 61
f 44 60 45
f 45 62 46
f 30 50 51
f 36 46 56
f 47 58 64
f 17 44 18
f 18 44 45
f 18 45 46
f 18 46 36
f 21 39 47
f 21 47 48
f 36 56 57
f 22 48 66
f 30 49 50
f 30 51 52
f 30 52 53
f 30 53 54
f 30 54 31
f 32 55 42
f 32 42 41
f 22 66 49
f 47 64 48
f 63 74 71
f 48 65 66
f 65 73 75
f 65 75 76
f 65 76 66
f 66 76 67
f 67 77 78
f 67 78 68
f 67 76 75
f 65 74 73
f 67 75 73
f 68 78 69
f 69 78 70
f 70 78 79
f 70 79 73
f 73 79 78
f 73 78 77
f 17 43 44
f 67 73 77
f 48 64 65
f 65 71 74
f 62 70 73
f 49 66 67
f 49 67 50
f 50 67 68
f 50 68 51
f 51 68 52
f 52 68 69
f 55 70 60
f 63 73 74
f 55 60 59
f 57 71 58
f 58 71 65
f 58 65 64
f 60 70 72
f 60 72 62
f 61 63 71
f 62 72 70
f 57 61 71
f 17 42 43
f 1 29 28
f 17 40 41
f 1 11 32
f 1 32 41
f 1 41 40
f 1 40 19
f 1 19 7
f 1 7 2
f 2 5 6
f 2 7 5
f 3 8 9
f 4 10 11
f 5 12 13
f 5 13 14
f 5 14 15
f 5 15 16
f 5 16 6
f 1 4 11
f 1 10 4
f 1 23 10
f 1 33 23
f 1 2 6
f 1 6 16
f 1 16 20
f 1 20 8
f 1 8 3
f 1 3 9
f 1 9 22
f 5 7 17
f 1 22 49
f 17 41 42
f 1 28 27
f 1 27 26
f 1 26 25
f 1 25 24
f 1 24 34
f 1 34 33
f 1 49 30
f 5 17 18
f 1 30 29
f 7 19 17
f 11 23 33
f 11 33 34
f 11 34 24
f 12 35 14
f 12 14 13
f 12 18 36
f 12 36 37
f 12 37 35
f 14 35 15
f 15 35 16
f 16 37 38
f 16 38 39
f 16 39 21
f 17 19 40
f 5 18 12
f 11 55 32
f 11 70 55
f 16 35 37
f 11 52 69
f 8 20 9
f 11 69 70
f 9 21 48
f 9 48 22
f 9 16 21
f 10 23 11
f 11 24 25
f 11 25 26
f 9 20 16
f 11 27 28
f 11 28 29
f 11 53 52
f 11 29 30
f 11 30 31
f 11 31 54
f 11 26 27
f 11 54 53

