# https://github.com/mikedh/trimesh
v 0.09787190 -0.12358400 0.14563900
v 0.09787190 -0.31377000 0.14563900
v 0.09787190 -0.12358400 0.12111300
v -0.10672000 -0.12358400 0.14563900
v 0.02060590 -0.45335800 0.08243460
v 0.09787190 -0.45335800 0.08243460
v -0.18545100 -0.28782600 0.14563900
v 0.09787190 -0.14256700 0.10132200
v 0.08242700 -0.13740000 0.09617120
v 0.08242700 -0.12358400 0.11339000
v -0.12362900 -0.12358400 0.13143100
v -0.30704200 -0.14357200 0.14563900
v 0.01026750 -0.46365700 0.07728340
v 0.00666792 -0.49013900 0.06405790
v 0.09787190 -0.49013900 0.06405790
v -0.19650000 -0.28578000 0.14563900
v -0.01467860 -0.48863200 0.06405790
v 0.09787190 -0.16316500 0.08070960
v 0.08242700 -0.15799700 0.07556630
v -0.02983040 -0.12358400 0.06408190
v -0.12371300 -0.12358400 0.13134300
v -0.30909300 -0.14429000 0.14424900
v -0.30921800 -0.14414600 0.14563900
v -0.13735800 -0.12358400 0.11682400
v -0.14945400 -0.12358400 0.10044400
v -0.14949600 -0.12358400 0.10030800
v -0.16000200 -0.12358400 0.06405790
v 0.09787190 -0.18875000 0.06405790
v -0.20604400 -0.28362700 0.14563900
v -0.20704800 -0.28326800 0.14563900
v -0.27820300 -0.25761100 0.11849300
v -0.28163500 -0.26105600 0.10990800
v -0.29536400 -0.25416600 0.09617120
v -0.25756800 -0.25761100 0.06405790
v 0.09787190 -0.17005400 0.07468780
v 0.09272360 -0.17518600 0.06698100
v 0.09037960 -0.17751800 0.06405790
v -0.02983040 -0.12365600 0.06405790
v -0.03196500 -0.12358400 0.06405790
v -0.31938900 -0.14942100 0.13394700
v -0.32206800 -0.15053300 0.14563900
v -0.25488900 -0.22022000 0.06405790
v -0.30222800 -0.19922800 0.08930290
v -0.29879600 -0.19065200 0.09273710
v 0.09787190 -0.18548400 0.06567920
v 0.09569530 -0.18548400 0.06405790
v -0.31486900 -0.20622500 0.14563900
v -0.32282100 -0.19922800 0.14563900
v -0.30222800 -0.24045900 0.10990800
v -0.30909300 -0.22671500 0.10304800
v -0.29879600 -0.23701400 0.09273710
v -0.26284200 -0.24777900 0.06405790
v 0.09787190 -0.18031700 0.06826680
v -0.32282100 -0.15799700 0.13051300
v -0.32972800 -0.16488700 0.14424900
v -0.32282100 -0.15114300 0.14424900
v -0.32307300 -0.15161000 0.14563900
v -0.26200500 -0.23295900 0.06405790
v -0.26300900 -0.24731200 0.06405790
v -0.30222800 -0.21982500 0.08930290
v -0.31252500 -0.20952700 0.09960540
v -0.31938900 -0.18035300 0.11334200
v -0.32830500 -0.18824700 0.14563900
v -0.32972800 -0.18548400 0.14424900
v -0.32453800 -0.18290100 0.12364400
v -0.32939300 -0.18548400 0.14563900
v -0.32918400 -0.16488700 0.14563900
v -0.32901600 -0.16348700 0.14563900
v -0.31938900 -0.19578300 0.11334200
f 27 44 40
f 28 46 45
f 30 47 31
f 31 47 32
f 32 47 48
f 33 50 51
f 32 49 33
f 33 49 50
f 33 51 52
f 33 52 34
f 35 53 36
f 27 43 44
f 32 48 49
f 36 53 45
f 19 36 37
f 23 40 41
f 36 45 37
f 16 29 17
f 17 29 30
f 17 30 31
f 17 31 32
f 17 32 33
f 27 42 43
f 17 33 34
f 18 36 19
f 19 37 20
f 20 38 39
f 20 37 38
f 64 65 69
f 22 40 23
f 18 35 36
f 37 45 46
f 50 61 51
f 40 43 54
f 14 28 15
f 63 66 64
f 61 65 62
f 61 69 65
f 61 64 69
f 55 65 64
f 55 57 56
f 55 68 57
f 55 67 68
f 55 66 67
f 55 64 66
f 54 62 65
f 54 65 55
f 52 60 59
f 40 44 43
f 51 60 52
f 50 64 61
f 49 64 50
f 48 64 49
f 48 63 64
f 43 62 54
f 43 61 62
f 43 60 61
f 43 59 60
f 43 58 59
f 42 58 43
f 41 56 57
f 40 56 41
f 40 55 56
f 40 54 55
f 51 61 60
f 14 46 28
f 22 27 40
f 14 38 37
f 1 47 30
f 1 48 47
f 1 63 48
f 1 66 63
f 1 67 66
f 1 68 67
f 1 57 68
f 1 41 57
f 1 23 41
f 1 12 23
f 1 4 12
f 1 11 4
f 1 21 11
f 1 24 21
f 1 30 29
f 1 25 24
f 1 27 26
f 1 39 27
f 1 20 39
f 1 10 20
f 1 8 3
f 1 18 8
f 1 35 18
f 1 53 35
f 1 45 53
f 1 28 45
f 1 15 28
f 1 6 15
f 1 2 6
f 14 37 46
f 1 26 25
f 1 29 16
f 1 3 10
f 1 7 2
f 1 16 7
f 14 39 38
f 14 27 39
f 14 42 27
f 14 58 42
f 14 59 58
f 14 34 52
f 14 17 34
f 13 17 14
f 12 27 22
f 12 26 27
f 12 25 26
f 12 24 25
f 12 21 24
f 12 22 23
f 14 52 59
f 9 20 10
f 2 5 6
f 11 21 12
f 2 7 5
f 3 8 9
f 3 9 10
f 5 13 14
f 5 14 15
f 4 11 12
f 5 7 13
f 7 16 17
f 9 19 20
f 7 17 13
f 8 18 9
f 5 15 6
f 9 18 19

