# https://github.com/mikedh/trimesh
v 0.39113000 0.74178200 -0.10156500
v 0.32971700 0.74178200 -0.10156500
v 0.38049200 0.76398000 -0.10156500
v 0.37094300 0.78310800 -0.04120450
v 0.37094300 0.76250800 0.00002440
v 0.38129800 0.74178200 -0.04131300
v 0.14907700 0.86552400 -0.10156500
v 0.25252300 0.74178200 0.12353000
v 0.14907700 0.78051000 0.20606000
v 0.37094300 0.78310800 -0.10156500
v 0.36407200 0.79685900 -0.04807600
v 0.35033000 0.82432500 0.00002440
v 0.36582600 0.74178200 0.02053030
v 0.37099100 0.74178200 -0.00008410
v 0.35033000 0.80372600 0.04121710
v 0.30910300 0.76250800 0.20606000
v 0.14907700 0.92735900 -0.10156500
v 0.24221600 0.74178200 0.15973200
v 0.23705100 0.74178200 0.18533700
v 0.23705100 0.74178200 0.20595200
v 0.24219300 0.74178200 0.22410700
v 0.14907700 0.78141900 0.21087000
v 0.36407200 0.79685900 -0.10156500
v 0.31867600 0.88761300 -0.10156500
v 0.33658800 0.85179100 0.00689588
v 0.34002300 0.83460700 0.03094610
v 0.31597400 0.89300800 -0.07556190
v 0.30912700 0.74178200 0.20609700
v 0.33315200 0.82775800 0.06526730
v 0.29192500 0.78654100 0.23011100
v 0.29536100 0.76937500 0.23354600
v 0.14907700 0.92735900 0.04606330
v 0.24731100 0.92735900 -0.10156500
v 0.25418200 0.74178200 0.24041800
v 0.14907700 0.79780400 0.24728900
v 0.31597400 0.89300800 -0.10156500
v 0.29536100 0.89300800 0.04808860
v 0.33315200 0.84835800 0.02407460
v 0.33658800 0.83119200 0.04808860
v 0.27583800 0.91469800 -0.10156500
v 0.27477100 0.91360800 0.00689588
v 0.29886800 0.74178200 0.22656600
v 0.29879700 0.87582400 0.07213880
v 0.27820700 0.81402500 0.23698200
v 0.26792400 0.78310800 0.24728900
v 0.29536100 0.74178200 0.23354600
v 0.14907700 0.92220000 0.06924550
v 0.18549400 0.92735900 0.08244600
v 0.24731100 0.92735900 0.00002440
v 0.26785300 0.74178200 0.24725300
v 0.14907700 0.79940200 0.25050800
v 0.25418200 0.91360800 0.06870310
v 0.27820700 0.89644200 0.07213880
v 0.25418200 0.89300800 0.13051000
v 0.25418200 0.85179100 0.23354600
v 0.23013300 0.84835800 0.25072500
v 0.23356800 0.83119200 0.25416100
v 0.20608400 0.82432500 0.26790400
v 0.26792400 0.74189100 0.24728900
v 0.26813700 0.74178200 0.24718100
v 0.14907700 0.90323600 0.14425300
v 0.16229800 0.92220000 0.08244600
v 0.20608400 0.92735900 0.08244600
v 0.16488100 0.90674100 0.14425300
v 0.18549400 0.88614200 0.20606000
v 0.22669700 0.92735900 0.06183160
v 0.14907700 0.82432500 0.26790400
v 0.14907700 0.81059200 0.26103200
v 0.23700400 0.91704100 0.09271710
v 0.23700400 0.87582400 0.19575300
v 0.21639000 0.87582400 0.21636800
v 0.21295500 0.85179100 0.25416100
v 0.14907700 0.90082000 0.15047400
v 0.15801000 0.89987500 0.15796000
v 0.17862300 0.87925700 0.21980300
v 0.19234200 0.87239100 0.23354600
v 0.15113800 0.85179100 0.25416100
v 0.14907700 0.84973900 0.25517300
v 0.14907700 0.86659600 0.22667500
v 0.15971600 0.87582400 0.21636800
v 0.16229800 0.88098300 0.20606000
v 0.14907700 0.85280800 0.25209900
f 37 55 43
f 44 57 45
f 40 49 41
f 41 49 52
f 43 55 44
f 44 55 56
f 44 56 57
f 47 61 62
f 45 58 59
f 46 59 60
f 48 65 63
f 47 62 48
f 48 62 61
f 48 61 64
f 37 54 55
f 48 64 65
f 45 57 58
f 37 53 54
f 30 44 31
f 37 41 52
f 27 36 40
f 49 66 52
f 27 40 41
f 27 41 37
f 28 31 42
f 29 43 44
f 29 44 30
f 29 38 37
f 29 37 43
f 31 44 45
f 31 45 59
f 31 59 46
f 31 46 42
f 32 47 48
f 33 49 40
f 34 50 51
f 34 51 35
f 37 52 53
f 50 60 59
f 65 75 76
f 50 67 68
f 65 74 75
f 65 76 71
f 67 77 78
f 69 71 70
f 72 76 77
f 73 79 80
f 73 80 81
f 64 74 65
f 73 81 75
f 75 80 82
f 75 82 77
f 75 77 76
f 75 81 80
f 77 82 78
f 79 82 80
f 26 39 29
f 73 75 74
f 64 73 74
f 63 69 66
f 63 71 69
f 50 68 51
f 52 69 54
f 52 54 53
f 52 66 69
f 54 69 70
f 54 70 55
f 55 70 71
f 55 71 76
f 55 76 72
f 55 72 56
f 56 72 58
f 56 58 57
f 58 72 77
f 58 77 67
f 58 67 59
f 61 73 64
f 63 65 71
f 50 59 67
f 25 27 37
f 1 23 10
f 25 29 39
f 1 21 20
f 1 20 19
f 1 19 18
f 1 18 8
f 1 8 2
f 2 8 9
f 2 9 7
f 1 34 21
f 3 10 4
f 4 23 11
f 4 11 12
f 4 12 5
f 5 13 14
f 5 14 6
f 5 12 15
f 5 15 16
f 4 10 23
f 5 16 13
f 1 50 34
f 1 46 60
f 1 2 7
f 1 7 17
f 1 17 33
f 1 33 40
f 1 40 36
f 1 36 24
f 25 39 26
f 1 60 50
f 1 10 3
f 1 4 5
f 1 5 6
f 1 6 14
f 1 14 13
f 1 13 28
f 1 28 42
f 1 42 46
f 1 3 4
f 7 9 22
f 1 24 23
f 7 35 51
f 13 16 28
f 15 26 29
f 15 29 30
f 15 30 16
f 16 30 31
f 16 31 28
f 17 32 48
f 12 27 25
f 17 48 63
f 17 66 49
f 17 49 33
f 21 34 22
f 24 36 27
f 25 37 38
f 25 38 29
f 7 22 35
f 17 63 66
f 12 24 27
f 22 34 35
f 12 25 26
f 12 26 15
f 7 68 67
f 7 67 78
f 7 51 68
f 7 82 79
f 7 79 73
f 7 73 61
f 7 61 47
f 7 78 82
f 7 32 17
f 8 18 9
f 9 18 19
f 9 19 20
f 9 20 21
f 9 21 22
f 11 23 24
f 7 47 32
f 11 24 12

