# https://github.com/mikedh/trimesh
v -0.24729600 0.08373180 -0.22667100
v -0.24729600 0.08373180 -0.16487400
v -0.24729600 0.10310400 -0.22667100
v -0.24264000 0.08373180 -0.24729000
v -0.24679100 0.08373180 -0.14427500
v -0.24729600 0.12366100 -0.16487400
v -0.22537400 0.08373180 -0.31171400
v -0.24729600 0.12366100 -0.20609300
v -0.24213500 0.12628400 -0.22667100
v -0.24663600 0.08373180 -0.14296200
v -0.24213500 0.09278360 -0.13395500
v -0.22665500 0.16494400 -0.12365500
v -0.18545000 0.37102100 -0.12365500
v -0.14424500 0.57701300 -0.12365500
v -0.16484700 0.49461600 -0.16487400
v -0.21978700 0.08931520 -0.32284700
v -0.21978700 0.08373180 -0.32284700
v -0.13908500 0.55890900 -0.22667100
v -0.09788000 0.62853200 -0.29880900
v -0.16484700 0.47405900 -0.20609300
v -0.23716900 0.08373180 -0.11673300
v -0.22320100 0.17179700 -0.11673300
v -0.18199700 0.37787300 -0.11673300
v -0.14079200 0.58386500 -0.11673300
v -0.12364300 0.63876800 -0.11673300
v -0.14424500 0.57701300 -0.16487400
v -0.20865200 0.08373180 -0.32841400
v -0.07553160 0.64570500 -0.32284700
v -0.06179670 0.63876800 -0.32972800
v -0.14424500 0.55637100 -0.20609300
v -0.11848200 0.64139000 -0.20609300
v -0.05663640 0.75212700 -0.29880900
v -0.07211730 0.66457000 -0.31940700
v -0.17159800 0.08373180 -0.11673300
v -0.12364300 0.63876800 -0.18547300
v -0.10300100 0.70060800 -0.11673300
v -0.20605200 0.08373180 -0.32943600
v -0.03436560 0.72810100 -0.32284700
v -0.04123310 0.68005100 -0.32972800
v -0.20477200 0.08373180 -0.32972800
v -0.10300100 0.70060800 -0.16487400
v -0.08239910 0.74180600 -0.18547300
v -0.07553160 0.75559500 -0.18547300
v -0.06866410 0.76930000 -0.18547300
v -0.02749820 0.81049800 -0.28850900
v -0.03091250 0.79848600 -0.29880900
v -0.03436560 0.78994100 -0.30224900
v -0.05492920 0.74874300 -0.30224900
v -0.03091250 0.74696600 -0.31940700
v 0.14907700 0.08373180 -0.18547300
v 0.14907700 0.20614300 -0.16487400
v 0.14907700 0.70060800 -0.12365500
v 0.14907700 0.85863300 -0.11673300
v -0.10071200 0.70526000 -0.11673300
v -0.01376320 0.76930000 -0.32284700
v -0.00002831 0.76244800 -0.32972800
v 0.14907700 0.08373180 -0.32972800
v -0.09613400 0.71439700 -0.16487400
v -0.04810060 0.81049800 -0.16487400
v 0.00683915 0.85863300 -0.28850900
v 0.01029230 0.86032500 -0.29880900
v 0.00683915 0.85178100 -0.30224900
v 0.14907700 0.93375500 -0.11673300
v -0.08697740 0.73275400 -0.11673300
v 0.02057410 0.84484400 -0.30910800
v 0.04121530 0.78308900 -0.32972800
v 0.14907700 0.80364600 -0.32972800
v -0.05264010 0.80144600 -0.11673300
v -0.04810060 0.81049800 -0.11673300
v -0.00689578 0.85178100 -0.20609300
v 0.03430900 0.89298000 -0.26788900
v 0.02057410 0.85863300 -0.30224900
v 0.02057410 0.87318400 -0.28850900
v 0.06181760 0.91446700 -0.26788900
v 0.05149710 0.90152400 -0.27818900
v 0.14907700 0.93519300 -0.11883900
v 0.12533200 0.93070900 -0.11673300
v 0.14422700 0.86548600 -0.30910800
v 0.12362500 0.80364600 -0.32972800
v 0.14907700 0.87030800 -0.30668900
v -0.00689578 0.85178100 -0.11673300
v 0.03430900 0.89298000 -0.11673300
v 0.05495020 0.91353600 -0.24729000
v 0.06181760 0.89983200 -0.28162900
v 0.14422700 0.89298000 -0.29536800
v 0.08242000 0.91353600 -0.27477000
v 0.08242000 0.93502400 -0.22667100
v 0.09270180 0.94280700 -0.21639200
v 0.07209940 0.92216500 -0.25759000
v 0.14907700 0.94796700 -0.14427500
v 0.14422700 0.94796700 -0.14427500
v 0.13736000 0.94103000 -0.13053600
v 0.10302200 0.92732600 -0.11673300
v 0.14907700 0.87758300 -0.30304100
v 0.06639600 0.90905300 -0.11673300
v 0.10046200 0.94280700 -0.16487400
v 0.08928750 0.94103000 -0.18547300
v 0.08928750 0.94103000 -0.20609300
v 0.14422700 0.91353600 -0.27477000
v 0.14907700 0.89137200 -0.29557700
v 0.08242000 0.92047300 -0.26103000
v 0.10302200 0.94796700 -0.18547300
v 0.10302200 0.94796700 -0.20609300
v 0.14907700 0.94796700 -0.18547300
v 0.12106400 0.94280700 -0.14427500
v 0.14422700 0.92047300 -0.26103000
v 0.14907700 0.92614100 -0.24789500
v 0.14907700 0.92081200 -0.25840300
v 0.14907700 0.91514400 -0.26914000
v 0.14907700 0.91319800 -0.27256000
v 0.12362500 0.94796700 -0.20609300
v 0.14907700 0.94399100 -0.20323600
v 0.14422700 0.92732600 -0.24729000
v 0.14422700 0.94280700 -0.20865700
f 61 73 74
f 61 71 73
f 61 72 62
f 59 71 60
f 59 70 71
f 59 81 70
f 59 69 81
f 59 68 69
f 59 64 68
f 60 71 61
f 61 74 75
f 63 76 77
f 62 72 65
f 65 72 78
f 65 78 79
f 65 79 66
f 67 78 80
f 70 81 82
f 70 82 71
f 71 82 83
f 71 83 74
f 58 64 59
f 71 74 73
f 72 75 84
f 61 75 72
f 67 79 78
f 50 108 107
f 56 62 65
f 45 60 61
f 72 84 85
f 45 61 46
f 45 59 60
f 46 61 62
f 46 62 47
f 47 62 55
f 47 55 49
f 50 57 67
f 50 67 80
f 50 80 94
f 50 94 100
f 50 100 110
f 50 110 109
f 50 109 108
f 50 107 112
f 50 112 104
f 50 104 90
f 50 90 76
f 50 76 63
f 50 63 53
f 50 53 52
f 50 52 51
f 54 64 58
f 55 62 56
f 56 65 66
f 72 85 78
f 88 103 101
f 74 83 87
f 90 103 102
f 90 102 91
f 91 102 96
f 91 96 105
f 91 105 92
f 92 105 93
f 93 105 96
f 93 96 95
f 96 102 97
f 99 106 107
f 99 107 108
f 90 111 103
f 99 108 109
f 99 110 100
f 101 103 111
f 101 111 106
f 104 112 111
f 106 111 113
f 106 113 107
f 107 113 111
f 107 111 114
f 107 114 112
f 111 112 114
f 44 59 45
f 99 109 110
f 90 104 111
f 88 101 89
f 88 102 103
f 74 87 88
f 74 88 89
f 74 89 86
f 75 86 84
f 76 90 91
f 76 91 92
f 76 92 77
f 77 92 93
f 78 85 80
f 80 85 94
f 82 95 96
f 82 96 97
f 82 97 83
f 83 97 98
f 83 98 87
f 84 86 85
f 85 86 99
f 85 99 100
f 85 100 94
f 86 89 101
f 86 101 106
f 86 106 99
f 87 98 88
f 88 98 97
f 88 97 102
f 74 86 75
f 43 58 59
f 32 46 47
f 41 43 42
f 7 18 19
f 7 19 16
f 8 15 20
f 8 20 9
f 9 20 18
f 10 21 11
f 11 21 22
f 11 22 12
f 12 22 23
f 12 23 13
f 13 23 24
f 7 9 18
f 13 24 14
f 14 25 35
f 14 35 26
f 14 26 15
f 15 26 20
f 16 27 17
f 16 19 28
f 16 28 29
f 16 29 27
f 18 20 30
f 18 30 31
f 18 31 19
f 14 24 25
f 7 16 17
f 6 15 8
f 6 14 15
f 43 59 44
f 1 2 6
f 1 6 8
f 1 8 3
f 1 4 7
f 1 7 17
f 1 17 27
f 1 27 37
f 1 37 40
f 1 40 57
f 1 57 50
f 1 50 34
f 1 34 21
f 1 21 10
f 1 10 5
f 1 5 2
f 2 5 6
f 3 7 4
f 3 8 9
f 3 9 7
f 5 10 6
f 6 10 11
f 6 11 12
f 6 12 13
f 6 13 14
f 19 31 32
f 19 32 33
f 1 3 4
f 20 26 30
f 29 57 40
f 29 40 37
f 30 35 31
f 31 35 32
f 32 41 42
f 32 42 43
f 32 43 44
f 32 44 45
f 32 45 46
f 32 47 48
f 32 48 33
f 29 67 57
f 32 35 41
f 33 47 49
f 33 49 55
f 33 55 38
f 34 50 51
f 34 51 52
f 34 52 53
f 36 54 41
f 38 55 56
f 41 58 43
f 41 54 58
f 19 33 28
f 33 48 47
f 29 79 67
f 38 56 39
f 29 56 66
f 29 66 79
f 21 53 63
f 21 77 93
f 21 93 95
f 21 95 82
f 21 82 81
f 21 81 69
f 21 69 68
f 21 68 64
f 21 64 54
f 21 54 36
f 21 36 25
f 21 63 77
f 21 24 23
f 29 39 56
f 21 25 24
f 28 39 29
f 28 38 39
f 28 33 38
f 21 34 53
f 26 35 30
f 25 41 35
f 25 36 41
f 21 23 22
f 27 29 37

