o convex_0
v 0.149077 0.0837318 -0.329728
v 0.267923 0.0837318 -0.329728
v 0.149077 0.0837318 -0.185473
v 0.149077 0.803646 -0.329728
v 0.281623 0.0837318 -0.322849
v 0.329727 0.453417 -0.329728
v 0.343453 0.453417 -0.322849
v 0.3091 0.0837318 -0.101565
v 0.149077 0.206143 -0.164882
v 0.149077 0.870308 -0.306701
v 0.18549 0.803646 -0.329728
v 0.322852 0.0837318 -0.261029
v 0.345179 0.443097 -0.319409
v 0.350329 0.577013 -0.329728
v 0.364055 0.577013 -0.322849
v 0.370931 0.0837318 -0.101565
v 0.149077 0.865486 -0.101565
v 0.149077 0.877583 -0.303039
v 0.154562 0.875806 -0.303954
v 0.195791 0.813967 -0.324569
v 0.288498 0.824287 -0.309114
v 0.288498 0.741806 -0.329728
v 0.323289 0.0837318 -0.260158
v 0.36578 0.566692 -0.319409
v 0.350329 0.618211 -0.329728
v 0.36063 0.628532 -0.324569
v 0.364055 0.618211 -0.322849
v 0.370931 0.0837318 -0.164882
v 0.391532 0.206143 -0.103061
v 0.391532 0.207581 -0.101565
v 0.149077 0.927326 -0.101565
v 0.149077 0.891372 -0.295579
v 0.226694 0.872338 -0.295378
v 0.236994 0.855165 -0.303954
v 0.298799 0.834608 -0.303954
v 0.329727 0.783089 -0.309114
v 0.329727 0.659409 -0.329728
v 0.350329 0.762448 -0.309114
v 0.329727 0.0837318 -0.247293
v 0.370931 0.618211 -0.309114
v 0.370931 0.577013 -0.309114
v 0.386382 0.463738 -0.236975
v 0.357205 0.0837318 -0.192352
v 0.36063 0.772768 -0.303954
v 0.364055 0.762448 -0.302235
v 0.391532 0.474059 -0.226679
v 0.391532 0.288539 -0.164882
v 0.391532 0.226699 -0.123653
v 0.412134 0.53573 -0.164882
v 0.412134 0.494616 -0.123653
v 0.412134 0.494616 -0.103061
v 0.411773 0.495885 -0.101565
v 0.247321 0.927326 -0.101565
v 0.149077 0.947967 -0.144267
v 0.18549 0.899832 -0.281621
v 0.195791 0.896363 -0.28334
v 0.149077 0.913198 -0.272553
v 0.247321 0.865486 -0.296227
v 0.247321 0.89298 -0.274764
v 0.3091 0.844844 -0.296227
v 0.329727 0.824287 -0.296227
v 0.391532 0.680051 -0.247293
v 0.370931 0.762448 -0.288499
v 0.391532 0.556371 -0.247293
v 0.36063 0.793325 -0.293659
v 0.36578 0.783089 -0.291068
v 0.412134 0.577013 -0.164882
v 0.412134 0.516611 -0.101565
v 0.226694 0.947967 -0.144267
v 0.275854 0.914636 -0.101565
v 0.298799 0.917005 -0.133971
v 0.149077 0.947967 -0.185473
v 0.149077 0.915144 -0.269136
v 0.206092 0.913536 -0.25415
v 0.267923 0.901524 -0.249862
v 0.288498 0.89298 -0.25415
v 0.3091 0.872338 -0.274764
v 0.226694 0.922165 -0.229248
v 0.319401 0.855165 -0.28334
v 0.340028 0.855165 -0.273044
v 0.391532 0.721249 -0.206087
v 0.412134 0.618211 -0.144267
v 0.370931 0.783089 -0.267885
v 0.345179 0.844844 -0.270476
v 0.343453 0.858633 -0.25415
v 0.364055 0.796794 -0.274764
v 0.412134 0.556371 -0.101565
v 0.288498 0.927326 -0.164882
v 0.226694 0.942807 -0.16745
v 0.206092 0.947967 -0.164882
v 0.315976 0.89298 -0.101565
v 0.312551 0.910153 -0.161442
v 0.30225 0.920473 -0.171738
v 0.149077 0.943991 -0.203251
v 0.18549 0.947967 -0.185473
v 0.149077 0.920812 -0.258416
v 0.149077 0.926141 -0.247896
v 0.206092 0.920473 -0.240415
v 0.3091 0.901524 -0.229248
v 0.267923 0.922165 -0.208656
v 0.319401 0.896363 -0.231838
v 0.319401 0.875806 -0.262748
v 0.206092 0.927326 -0.226679
v 0.329727 0.865486 -0.267885
v 0.322852 0.899832 -0.212966
v 0.391532 0.741806 -0.123653
v 0.412134 0.618211 -0.123653
v 0.350329 0.844844 -0.247293
v 0.329727 0.886127 -0.206087
v 0.329727 0.886127 -0.185473
v 0.412134 0.597569 -0.103061
v 0.411851 0.576674 -0.101565
v 0.288498 0.922165 -0.188064
v 0.206092 0.942807 -0.188064
v 0.328981 0.867008 -0.101565
v 0.322852 0.899832 -0.192352
v 0.298799 0.917005 -0.190632
v 0.247321 0.927326 -0.206087
v 0.391532 0.741806 -0.103061
v 0.370931 0.783089 -0.101565
v 0.377806 0.7693 -0.101565
v 0.380485 0.763886 -0.101565
v 0.411413 0.596893 -0.101565
v 0.391249 0.741552 -0.101565
f 1 2 5
f 1 5 12
f 1 12 23
f 1 23 39
f 1 39 43
f 1 43 28
f 1 28 16
f 1 16 8
f 1 8 3
f 1 3 9
f 1 9 17
f 1 17 31
f 1 31 54
f 1 54 72
f 1 72 94
f 1 94 97
f 1 97 96
f 1 96 73
f 1 73 57
f 1 57 32
f 1 32 18
f 1 18 10
f 1 10 4
f 1 4 11
f 1 11 22
f 1 22 37
f 1 37 25
f 1 25 14
f 1 14 6
f 1 6 2
f 2 6 7
f 2 7 5
f 3 8 9
f 4 10 11
f 5 7 13
f 5 13 12
f 6 14 15
f 6 15 7
f 7 15 24
f 7 24 13
f 8 16 30
f 8 30 52
f 8 52 68
f 8 68 87
f 8 87 112
f 8 112 123
f 8 123 124
f 8 124 122
f 8 122 121
f 8 121 120
f 8 120 115
f 8 115 91
f 8 91 70
f 8 70 53
f 8 53 31
f 8 31 17
f 8 17 9
f 10 18 19
f 10 19 11
f 11 19 20
f 11 20 35
f 11 35 21
f 11 21 22
f 12 13 24
f 12 24 23
f 14 25 26
f 14 26 15
f 15 26 27
f 15 27 24
f 16 28 29
f 16 29 30
f 18 32 19
f 19 32 33
f 19 33 34
f 19 34 20
f 20 34 35
f 21 35 36
f 21 36 22
f 22 36 38
f 22 38 37
f 23 24 39
f 24 27 40
f 24 40 41
f 24 41 46
f 24 46 42
f 24 42 28
f 24 28 43
f 24 43 39
f 25 37 38
f 25 38 44
f 25 44 26
f 26 44 45
f 26 45 27
f 27 45 63
f 27 63 40
f 28 42 46
f 28 46 47
f 28 47 48
f 28 48 29
f 29 48 49
f 29 49 50
f 29 50 51
f 29 51 30
f 30 51 52
f 31 53 69
f 31 69 54
f 32 55 56
f 32 56 33
f 32 57 55
f 33 58 34
f 33 56 59
f 33 59 58
f 34 58 35
f 35 60 61
f 35 61 44
f 35 44 36
f 35 58 60
f 36 44 38
f 40 62 64
f 40 64 41
f 40 63 62
f 41 64 46
f 44 61 65
f 44 65 66
f 44 66 45
f 45 66 63
f 46 64 49
f 46 49 47
f 47 49 48
f 49 64 62
f 49 62 67
f 49 67 82
f 49 82 107
f 49 107 111
f 49 111 87
f 49 87 68
f 49 68 51
f 49 51 50
f 51 68 52
f 53 70 71
f 53 71 69
f 54 69 90
f 54 90 95
f 54 95 72
f 55 59 56
f 55 57 59
f 57 73 74
f 57 74 59
f 58 59 77
f 58 77 60
f 59 75 99
f 59 99 76
f 59 76 77
f 59 74 78
f 59 78 75
f 60 77 79
f 60 79 80
f 60 80 61
f 61 80 65
f 62 81 82
f 62 82 67
f 62 63 83
f 62 83 81
f 63 66 83
f 65 80 66
f 66 80 84
f 66 84 85
f 66 85 86
f 66 86 83
f 69 88 113
f 69 113 89
f 69 89 114
f 69 114 90
f 69 71 88
f 70 91 71
f 71 92 93
f 71 93 88
f 71 91 92
f 72 95 94
f 73 96 74
f 74 96 97
f 74 97 98
f 74 98 78
f 75 78 100
f 75 100 99
f 76 99 101
f 76 101 77
f 77 101 102
f 77 102 80
f 77 80 79
f 78 98 103
f 78 103 118
f 78 118 100
f 80 102 104
f 80 104 101
f 80 101 105
f 80 105 85
f 80 85 84
f 81 83 106
f 81 106 82
f 82 106 119
f 82 119 107
f 83 86 85
f 83 85 108
f 83 108 106
f 85 105 109
f 85 109 110
f 85 110 108
f 87 111 112
f 88 93 113
f 89 113 100
f 89 100 114
f 90 114 95
f 91 115 110
f 91 110 116
f 91 116 92
f 92 116 105
f 92 105 93
f 93 105 117
f 93 117 113
f 94 95 97
f 95 114 103
f 95 103 97
f 97 103 98
f 99 100 113
f 99 113 101
f 100 118 114
f 101 113 117
f 101 117 105
f 101 104 102
f 103 114 118
f 105 116 110
f 105 110 109
f 106 108 119
f 107 119 111
f 108 110 119
f 110 115 120
f 110 120 121
f 110 121 122
f 110 122 119
f 111 123 112
f 111 119 124
f 111 124 123
f 119 122 124
o convex_1
v -0.247296 0.0837318 -0.226671
v -0.247296 0.0837318 -0.164874
v -0.247296 0.103104 -0.226671
v -0.24264 0.0837318 -0.24729
v -0.246791 0.0837318 -0.144275
v -0.247296 0.123661 -0.164874
v -0.225374 0.0837318 -0.311714
v -0.247296 0.123661 -0.206093
v -0.242135 0.126284 -0.226671
v -0.246636 0.0837318 -0.142962
v -0.242135 0.0927836 -0.133955
v -0.226655 0.164944 -0.123655
v -0.18545 0.371021 -0.123655
v -0.144245 0.577013 -0.123655
v -0.164847 0.494616 -0.164874
v -0.219787 0.0893152 -0.322847
v -0.219787 0.0837318 -0.322847
v -0.139085 0.558909 -0.226671
v -0.09788 0.628532 -0.298809
v -0.164847 0.474059 -0.206093
v -0.237169 0.0837318 -0.116733
v -0.223201 0.171797 -0.116733
v -0.181997 0.377873 -0.116733
v -0.140792 0.583865 -0.116733
v -0.123643 0.638768 -0.116733
v -0.144245 0.577013 -0.164874
v -0.208652 0.0837318 -0.328414
v -0.0755316 0.645705 -0.322847
v -0.0617967 0.638768 -0.329728
v -0.144245 0.556371 -0.206093
v -0.118482 0.64139 -0.206093
v -0.0566364 0.752127 -0.298809
v -0.0721173 0.66457 -0.319407
v -0.171598 0.0837318 -0.116733
v -0.123643 0.638768 -0.185473
v -0.103001 0.700608 -0.116733
v -0.206052 0.0837318 -0.329436
v -0.0343656 0.728101 -0.322847
v -0.0412331 0.680051 -0.329728
v -0.204772 0.0837318 -0.329728
v -0.103001 0.700608 -0.164874
v -0.0823991 0.741806 -0.185473
v -0.0755316 0.755595 -0.185473
v -0.0686641 0.7693 -0.185473
v -0.0274982 0.810498 -0.288509
v -0.0309125 0.798486 -0.298809
v -0.0343656 0.789941 -0.302249
v -0.0549292 0.748743 -0.302249
v -0.0309125 0.746966 -0.319407
v 0.149077 0.0837318 -0.185473
v 0.149077 0.206143 -0.164874
v 0.149077 0.700608 -0.123655
v 0.149077 0.858633 -0.116733
v -0.100712 0.70526 -0.116733
v -0.0137632 0.7693 -0.322847
v -2.83146e-05 0.762448 -0.329728
v 0.149077 0.0837318 -0.329728
v -0.096134 0.714397 -0.164874
v -0.0481006 0.810498 -0.164874
v 0.00683915 0.858633 -0.288509
v 0.0102923 0.860325 -0.298809
v 0.00683915 0.851781 -0.302249
v 0.149077 0.933755 -0.116733
v -0.0869774 0.732754 -0.116733
v 0.0205741 0.844844 -0.309108
v 0.0412153 0.783089 -0.329728
v 0.149077 0.803646 -0.329728
v -0.0526401 0.801446 -0.116733
v -0.0481006 0.810498 -0.116733
v -0.00689578 0.851781 -0.206093
v 0.034309 0.89298 -0.267889
v 0.0205741 0.858633 -0.302249
v 0.0205741 0.873184 -0.288509
v 0.0618176 0.914467 -0.267889
v 0.0514971 0.901524 -0.278189
v 0.149077 0.935193 -0.118839
v 0.125332 0.930709 -0.116733
v 0.144227 0.865486 -0.309108
v 0.123625 0.803646 -0.329728
v 0.149077 0.870308 -0.306689
v -0.00689578 0.851781 -0.116733
v 0.034309 0.89298 -0.116733
v 0.0549502 0.913536 -0.24729
v 0.0618176 0.899832 -0.281629
v 0.144227 0.89298 -0.295368
v 0.08242 0.913536 -0.27477
v 0.08242 0.935024 -0.226671
v 0.0927018 0.942807 -0.216392
v 0.0720994 0.922165 -0.25759
v 0.149077 0.947967 -0.144275
v 0.144227 0.947967 -0.144275
v 0.13736 0.94103 -0.130536
v 0.103022 0.927326 -0.116733
v 0.149077 0.877583 -0.303041
v 0.066396 0.909053 -0.116733
v 0.100462 0.942807 -0.164874
v 0.0892875 0.94103 -0.185473
v 0.0892875 0.94103 -0.206093
v 0.144227 0.913536 -0.27477
v 0.149077 0.891372 -0.295577
v 0.08242 0.920473 -0.26103
v 0.103022 0.947967 -0.185473
v 0.103022 0.947967 -0.206093
v 0.149077 0.947967 -0.185473
v 0.121064 0.942807 -0.144275
v 0.144227 0.920473 -0.26103
v 0.149077 0.926141 -0.247895
v 0.149077 0.920812 -0.258403
v 0.149077 0.915144 -0.26914
v 0.149077 0.913198 -0.27256
v 0.123625 0.947967 -0.206093
v 0.149077 0.943991 -0.203236
v 0.144227 0.927326 -0.24729
v 0.144227 0.942807 -0.208657
f 125 126 130
f 125 130 132
f 125 132 127
f 125 127 128
f 125 128 131
f 125 131 141
f 125 141 151
f 125 151 161
f 125 161 164
f 125 164 181
f 125 181 174
f 125 174 158
f 125 158 145
f 125 145 134
f 125 134 129
f 125 129 126
f 126 129 130
f 127 131 128
f 127 132 133
f 127 133 131
f 129 134 130
f 130 134 135
f 130 135 136
f 130 136 137
f 130 137 138
f 130 138 139
f 130 139 132
f 131 140 141
f 131 133 142
f 131 142 143
f 131 143 140
f 132 139 144
f 132 144 133
f 133 144 142
f 134 145 135
f 135 145 146
f 135 146 136
f 136 146 147
f 136 147 137
f 137 147 148
f 137 148 138
f 138 148 149
f 138 149 159
f 138 159 150
f 138 150 139
f 139 150 144
f 140 151 141
f 140 143 152
f 140 152 153
f 140 153 151
f 142 144 154
f 142 154 155
f 142 155 143
f 143 155 156
f 143 156 157
f 143 157 152
f 144 150 154
f 145 158 177
f 145 177 187
f 145 187 201
f 145 201 217
f 145 217 219
f 145 219 206
f 145 206 205
f 145 205 193
f 145 193 192
f 145 192 188
f 145 188 178
f 145 178 160
f 145 160 149
f 145 149 148
f 145 148 147
f 145 147 146
f 149 160 165
f 149 165 159
f 150 159 154
f 151 153 161
f 152 157 162
f 152 162 163
f 152 163 153
f 153 163 180
f 153 180 190
f 153 190 203
f 153 203 191
f 153 191 181
f 153 181 164
f 153 164 161
f 154 159 155
f 155 159 156
f 156 165 166
f 156 166 167
f 156 167 168
f 156 168 169
f 156 169 170
f 156 170 171
f 156 171 172
f 156 172 157
f 156 159 165
f 157 172 171
f 157 171 173
f 157 173 179
f 157 179 162
f 158 174 175
f 158 175 176
f 158 176 177
f 160 178 165
f 162 179 180
f 162 180 163
f 165 178 182
f 165 182 167
f 165 167 166
f 167 183 168
f 167 182 183
f 168 183 169
f 169 184 185
f 169 185 170
f 169 183 184
f 170 185 186
f 170 186 171
f 171 186 179
f 171 179 173
f 174 181 191
f 174 191 204
f 174 204 218
f 174 218 224
f 174 224 234
f 174 234 233
f 174 233 232
f 174 232 231
f 174 231 236
f 174 236 228
f 174 228 214
f 174 214 200
f 174 200 187
f 174 187 177
f 174 177 176
f 174 176 175
f 178 188 182
f 179 186 180
f 180 186 189
f 180 189 190
f 182 188 183
f 183 188 192
f 183 192 193
f 183 193 205
f 183 205 194
f 183 194 195
f 183 195 184
f 184 195 185
f 185 196 186
f 185 195 197
f 185 197 198
f 185 198 199
f 185 199 196
f 186 196 189
f 187 200 201
f 189 196 202
f 189 202 203
f 189 203 190
f 191 203 202
f 191 202 204
f 194 205 206
f 194 206 195
f 195 206 207
f 195 207 198
f 195 198 197
f 196 199 208
f 196 208 209
f 196 209 202
f 198 210 199
f 198 207 211
f 198 211 212
f 198 212 213
f 198 213 210
f 199 210 208
f 200 214 215
f 200 215 216
f 200 216 201
f 201 216 217
f 202 209 204
f 204 209 218
f 206 219 220
f 206 220 221
f 206 221 207
f 207 221 222
f 207 222 211
f 208 210 209
f 209 210 223
f 209 223 224
f 209 224 218
f 210 213 225
f 210 225 230
f 210 230 223
f 211 222 212
f 212 222 221
f 212 221 226
f 212 226 227
f 212 227 225
f 212 225 213
f 214 228 235
f 214 235 227
f 214 227 226
f 214 226 215
f 215 226 220
f 215 220 229
f 215 229 216
f 216 229 217
f 217 229 220
f 217 220 219
f 220 226 221
f 223 230 231
f 223 231 232
f 223 232 233
f 223 233 234
f 223 234 224
f 225 227 235
f 225 235 230
f 228 236 235
f 230 235 237
f 230 237 231
f 231 237 235
f 231 235 238
f 231 238 236
f 235 236 238
o convex_2
v -0.30912 -0.494529 -0.226696
v -0.30912 -0.494529 -0.20609
v -0.30912 -0.453325 -0.288499
v -0.288483 -0.597537 -0.20609
v -0.288483 -0.535732 -0.164878
v -0.30912 -0.432724 -0.185484
v -0.267847 -0.680044 -0.164878
v -0.267847 -0.675803 -0.160641
v -0.302197 -0.446458 -0.302236
v -0.278165 -0.546033 -0.29881
v -0.281627 -0.570068 -0.28163
v -0.267847 -0.638841 -0.267892
v -0.288483 -0.556334 -0.267892
v -0.30912 -0.206105 -0.288499
v -0.267847 -0.680044 -0.185484
v -0.286353 -0.535732 -0.160641
v -0.296671 -0.432724 -0.160641
v -0.30912 -0.185504 -0.185484
v -0.247278 -0.741849 -0.160641
v -0.266915 -0.680044 -0.160641
v -0.288483 -0.453325 -0.309105
v -0.302197 -0.199238 -0.302236
v -0.267847 -0.51513 -0.309105
v -0.247278 -0.556334 -0.309105
v -0.226641 -0.700646 -0.288499
v -0.240421 -0.693779 -0.28163
v -0.27477 -0.563201 -0.295367
v -0.257596 -0.649142 -0.278204
v -0.247278 -0.700646 -0.267892
v -0.30912 -0.1443 -0.226696
v -0.288483 -0.041292 -0.226696
v -0.288483 -0.0618937 -0.247286
v -0.283358 -0.0927962 -0.29881
v -0.247278 -0.741849 -0.185484
v -0.296671 -0.185504 -0.160641
v -0.303927 -0.175203 -0.175173
v -0.286353 -0.0782538 -0.160641
v -0.288483 -0.0824953 -0.164878
v -0.30912 -0.1443 -0.20609
v -0.240421 -0.755584 -0.160641
v -0.27477 -0.192371 -0.315974
v -0.247278 -0.185504 -0.329711
v -0.226641 -0.26791 -0.329711
v -0.260991 -0.0550264 -0.322842
v -0.27477 -0.109964 -0.315974
v -0.185436 -0.37102 -0.329711
v -0.206072 -0.576935 -0.309105
v -0.185436 -0.741849 -0.288499
v -0.206072 -0.721248 -0.288499
v -0.223246 -0.717814 -0.285073
v -0.23696 -0.710947 -0.278204
v -0.233498 -0.728115 -0.274761
v -0.212928 -0.78992 -0.254155
v -0.226641 -0.762451 -0.247286
v -0.303927 -0.113398 -0.216385
v -0.283358 -0.0386663 -0.247286
v -0.288483 -0.041292 -0.185484
v -0.267847 0.0412156 -0.226696
v -0.247278 0.020513 -0.309105
v -0.240421 0.0273802 -0.322842
v -0.233498 -0.769318 -0.192353
v -0.212928 -0.810522 -0.192353
v -0.240421 -0.755584 -0.178615
v -0.265784 0.0247545 -0.160641
v -0.283358 -0.0309912 -0.175173
v -0.222448 -0.791536 -0.160641
v -0.247278 -0.0618937 -0.329711
v -0.123593 -0.391621 -0.329711
v -0.164799 -0.597537 -0.309105
v -0.0205454 -0.741849 -0.288499
v -0.14423 -0.844858 -0.267892
v -0.216323 -0.75215 -0.278204
v -0.20261 -0.738416 -0.285073
v -0.0823875 -0.618139 -0.309105
v -0.192292 -0.831123 -0.254155
v -0.267847 0.0412156 -0.185484
v -0.247278 0.0837318 -0.226696
v -0.242618 0.0837318 -0.247286
v -0.260991 0.0480828 -0.240434
v -0.225377 0.0837318 -0.311703
v -0.219785 0.0837318 -0.322842
v -0.208668 0.0837318 -0.32842
v -0.226641 0.020513 -0.329711
v -0.192292 -0.851725 -0.171747
v -0.197884 -0.840616 -0.160641
v -0.206072 -0.824256 -0.164878
v -0.253402 0.0659578 -0.160641
v -0.262721 0.0515164 -0.175173
v -0.0411817 -0.391621 -0.329711
v 0.123642 -0.803654 -0.267892
v 0.0617997 -0.824256 -0.267892
v -0.0411817 -0.844858 -0.267892
v -0.0205454 -0.618139 -0.309105
v 0.103006 -0.700646 -0.288499
v -0.0823875 -0.906663 -0.247286
v -0.151086 -0.872327 -0.254155
v -0.175117 -0.855159 -0.257598
v -0.247278 0.0837318 -0.164878
v -0.206072 0.0837318 -0.32943
v -0.206072 0.082419 -0.329711
v -0.151086 -0.892928 -0.233565
v -0.171722 -0.872327 -0.192353
v -0.192292 -0.851725 -0.160641
v -0.247278 0.082419 -0.160641
v -0.246745 0.0837318 -0.160641
v 0.0617997 -0.37102 -0.329711
v 0.164848 -0.783053 -0.267892
v 0.144211 -0.865459 -0.247286
v 0.0206604 -0.906663 -0.247286
v 0.123642 -0.350418 -0.329711
v 0.0823694 -0.576935 -0.309105
v 0.206054 -0.51513 -0.309105
v 0.185417 -0.659443 -0.288499
v -0.075531 -0.920397 -0.240434
v -0.0927056 -0.916964 -0.237008
v -0.10988 -0.91353 -0.233565
v -0.20474 0.0837318 -0.329711
v -0.130517 -0.91353 -0.171747
v -0.171722 -0.872327 -0.160641
v 0.370944 0.0837318 -0.160641
v 0.226623 -0.741849 -0.267892
v 0.206054 -0.824256 -0.247286
v 0.167377 -0.865459 -0.242155
v 0.151068 -0.879194 -0.240434
v 0.027517 -0.920397 -0.240434
v 0.247259 -0.494529 -0.309105
v 0.185417 -0.309215 -0.329711
v 0.247259 -0.618139 -0.288499
v -0.0480382 -0.934132 -0.233565
v -0.0823875 -0.927264 -0.226696
v 0.267896 0.0837318 -0.329711
v -0.103024 -0.927264 -0.164878
v -0.111478 -0.923124 -0.160641
v -0.130517 -0.91353 -0.160641
v 0.370944 0.0837318 -0.164878
v 0.370944 -0.206105 -0.160641
v 0.249856 -0.741849 -0.262745
v 0.247259 -0.721248 -0.267892
v 0.21291 -0.837991 -0.240434
v 0.169973 -0.87576 -0.237008
v 0.151068 -0.920397 -0.219828
v 0.109862 -0.940999 -0.219828
v 0.0138039 -0.934132 -0.233565
v 0.288465 -0.576935 -0.288499
v 0.267896 -0.597537 -0.288499
v 0.247259 -0.226707 -0.329711
v 0.288465 -0.432724 -0.309105
v -0.0205454 -0.947967 -0.20609
v -0.0411817 -0.942716 -0.203508
v -0.0411817 -0.947967 -0.164878
v 0.268761 0.0837318 -0.329281
v 0.298783 -0.133999 -0.324564
v 0.288465 -0.1443 -0.329711
v -0.103024 -0.927264 -0.160641
v 0.336594 0.0837318 -0.233565
v 0.370944 -0.041292 -0.185484
v 0.350307 -0.309215 -0.288499
v 0.343451 -0.309215 -0.302236
v 0.370944 -0.206105 -0.164878
v 0.350307 -0.473927 -0.160641
v 0.252385 -0.75215 -0.257598
v 0.291061 -0.597537 -0.283351
v 0.293658 -0.607838 -0.278204
v 0.28334 -0.690345 -0.257598
v 0.221497 -0.834557 -0.237008
v 0.167377 -0.906663 -0.221549
v 0.159655 -0.916964 -0.216385
v 0.171704 -0.91353 -0.20609
v 0.103006 -0.947967 -0.20609
v 0.309102 -0.391621 -0.309105
v 0.309102 -0.535732 -0.288499
v 0.267896 -0.185504 -0.329711
v -0.0411817 -0.947967 -0.160641
v 0.281609 0.0837318 -0.322842
v 0.302245 -0.1443 -0.322842
v 0.329671 -0.350418 -0.309105
v 0.323281 0.0837318 -0.260163
v 0.350307 -0.350418 -0.288499
v 0.345182 -0.360719 -0.29881
v 0.343451 -0.350418 -0.302236
v 0.322815 0.0837318 -0.261024
v 0.350307 -0.473927 -0.185484
v 0.350307 -0.453325 -0.20609
v 0.329671 -0.572795 -0.160641
v 0.329671 -0.576935 -0.164878
v 0.262703 -0.772752 -0.237008
v 0.249856 -0.783053 -0.242155
v 0.311631 -0.556334 -0.283351
v 0.324545 -0.546033 -0.278204
v 0.303909 -0.62854 -0.257598
v 0.200928 -0.87576 -0.216385
v 0.188014 -0.886061 -0.221549
v 0.19234 -0.872327 -0.160641
v 0.151068 -0.91353 -0.160641
v 0.15453 -0.922114 -0.195779
v 0.21291 -0.851725 -0.160641
v 0.113324 -0.942716 -0.195779
v 0.0823694 -0.947967 -0.160641
v 0.322815 -0.535732 -0.28163
v 0.329671 -0.535732 -0.267892
v 0.328606 -0.577541 -0.160641
v 0.309501 -0.639245 -0.160641
v 0.309102 -0.638841 -0.185484
v 0.309102 -0.618139 -0.247286
v 0.233546 -0.810522 -0.160641
v 0.228088 -0.821428 -0.160641
v 0.288465 -0.700646 -0.185484
v 0.288465 -0.700646 -0.164878
v 0.267896 -0.741849 -0.160641
v 0.112725 -0.932819 -0.160641
v 0.123642 -0.935041 -0.185484
v 0.0852318 -0.946553 -0.160641
v 0.2874 -0.701151 -0.160641
f 239 240 244
f 239 244 256
f 239 256 277
f 239 277 268
f 239 268 252
f 239 252 241
f 239 241 251
f 239 251 242
f 239 242 240
f 240 243 244
f 240 242 245
f 240 245 246
f 240 246 243
f 241 247 248
f 241 248 249
f 241 249 250
f 241 250 251
f 241 252 260
f 241 260 247
f 242 250 253
f 242 253 245
f 242 251 250
f 243 254 255
f 243 255 244
f 243 246 254
f 244 255 273
f 244 273 256
f 245 253 272
f 245 272 257
f 245 257 258
f 245 258 246
f 246 258 257
f 246 257 278
f 246 278 304
f 246 304 323
f 246 323 341
f 246 341 357
f 246 357 372
f 246 372 371
f 246 371 392
f 246 392 411
f 246 411 436
f 246 436 450
f 246 450 448
f 246 448 432
f 246 432 431
f 246 431 434
f 246 434 444
f 246 444 443
f 246 443 447
f 246 447 451
f 246 451 440
f 246 440 439
f 246 439 422
f 246 422 398
f 246 398 374
f 246 374 358
f 246 358 343
f 246 343 342
f 246 342 325
f 246 325 302
f 246 302 275
f 246 275 273
f 246 273 255
f 246 255 254
f 247 259 248
f 247 260 283
f 247 283 279
f 247 279 259
f 248 259 261
f 248 261 262
f 248 262 263
f 248 263 264
f 248 264 265
f 248 265 249
f 249 265 266
f 249 266 250
f 250 266 267
f 250 267 272
f 250 272 253
f 252 268 269
f 252 269 270
f 252 270 271
f 252 271 260
f 256 273 274
f 256 274 275
f 256 275 276
f 256 276 295
f 256 295 277
f 257 272 301
f 257 301 278
f 259 279 280
f 259 280 281
f 259 281 261
f 260 271 282
f 260 282 283
f 261 281 284
f 261 284 262
f 262 284 285
f 262 285 286
f 262 286 287
f 262 287 263
f 263 287 288
f 263 288 264
f 264 288 289
f 264 289 267
f 264 267 266
f 264 266 265
f 267 289 290
f 267 290 291
f 267 291 292
f 267 292 272
f 268 277 293
f 268 293 269
f 269 294 270
f 269 293 295
f 269 295 314
f 269 314 296
f 269 296 294
f 270 294 271
f 271 294 296
f 271 296 297
f 271 297 298
f 271 298 282
f 272 292 291
f 272 291 299
f 272 299 300
f 272 300 301
f 273 275 274
f 275 302 303
f 275 303 276
f 276 303 295
f 277 295 293
f 278 301 304
f 279 283 305
f 279 305 280
f 280 305 321
f 280 321 338
f 280 338 355
f 280 355 369
f 280 369 391
f 280 391 410
f 280 410 384
f 280 384 365
f 280 365 348
f 280 348 344
f 280 344 327
f 280 327 306
f 280 306 284
f 280 284 281
f 282 305 283
f 282 298 305
f 284 306 307
f 284 307 285
f 285 307 286
f 286 308 330
f 286 330 309
f 286 309 335
f 286 335 310
f 286 310 311
f 286 311 288
f 286 288 287
f 286 307 312
f 286 312 331
f 286 331 308
f 288 311 310
f 288 310 289
f 289 310 290
f 290 310 335
f 290 335 313
f 290 313 291
f 291 313 300
f 291 300 299
f 295 303 326
f 295 326 314
f 296 314 336
f 296 336 315
f 296 315 316
f 296 316 317
f 296 317 298
f 296 298 297
f 298 317 318
f 298 318 319
f 298 319 320
f 298 320 321
f 298 321 305
f 300 313 322
f 300 322 323
f 300 323 324
f 300 324 304
f 300 304 301
f 302 325 326
f 302 326 303
f 304 324 323
f 306 327 331
f 306 331 312
f 306 312 307
f 308 328 329
f 308 329 330
f 308 331 332
f 308 332 328
f 309 330 347
f 309 347 333
f 309 333 334
f 309 334 335
f 313 335 322
f 314 326 336
f 315 336 343
f 315 343 358
f 315 358 373
f 315 373 393
f 315 393 415
f 315 415 419
f 315 419 412
f 315 412 389
f 315 389 369
f 315 369 355
f 315 355 337
f 315 337 320
f 315 320 319
f 315 319 318
f 315 318 316
f 316 318 317
f 320 337 338
f 320 338 321
f 322 335 339
f 322 339 340
f 322 340 357
f 322 357 341
f 322 341 323
f 325 342 326
f 326 342 343
f 326 343 336
f 327 344 331
f 328 332 351
f 328 351 345
f 328 345 346
f 328 346 347
f 328 347 329
f 329 347 330
f 331 344 348
f 331 348 349
f 331 349 332
f 332 349 350
f 332 350 364
f 332 364 351
f 333 347 363
f 333 363 352
f 333 352 334
f 334 352 353
f 334 353 354
f 334 354 339
f 334 339 335
f 337 355 338
f 339 354 356
f 339 356 340
f 340 356 372
f 340 372 357
f 345 359 360
f 345 360 346
f 345 351 359
f 346 361 362
f 346 362 363
f 346 363 347
f 346 360 361
f 348 364 350
f 348 350 349
f 348 365 364
f 351 366 359
f 351 364 366
f 352 363 381
f 352 381 367
f 352 367 353
f 353 367 368
f 353 368 354
f 354 368 370
f 354 370 356
f 356 370 371
f 356 371 372
f 358 374 397
f 358 397 394
f 358 394 373
f 359 375 360
f 359 366 383
f 359 383 376
f 359 376 375
f 360 375 377
f 360 377 361
f 361 378 362
f 361 377 378
f 362 378 379
f 362 379 380
f 362 380 363
f 363 380 381
f 364 382 383
f 364 383 366
f 364 365 384
f 364 384 385
f 364 385 382
f 367 381 407
f 367 407 386
f 367 386 368
f 368 386 387
f 368 387 388
f 368 388 370
f 369 389 390
f 369 390 391
f 370 392 371
f 370 388 411
f 370 411 392
f 373 394 395
f 373 395 396
f 373 396 393
f 374 398 420
f 374 420 397
f 375 399 377
f 375 376 382
f 375 382 400
f 375 400 401
f 375 401 402
f 375 402 399
f 376 383 382
f 377 399 403
f 377 403 404
f 377 404 378
f 378 404 379
f 379 405 406
f 379 406 407
f 379 407 380
f 379 404 405
f 380 407 381
f 382 385 408
f 382 408 409
f 382 409 400
f 384 410 408
f 384 408 385
f 386 407 436
f 386 436 411
f 386 411 388
f 386 388 387
f 389 412 390
f 390 413 391
f 390 412 413
f 391 413 418
f 391 418 414
f 391 414 408
f 391 408 410
f 393 396 415
f 394 397 416
f 394 416 395
f 395 416 417
f 395 417 396
f 396 417 418
f 396 418 413
f 396 413 412
f 396 412 419
f 396 419 415
f 397 420 421
f 397 421 416
f 398 422 423
f 398 423 420
f 399 424 425
f 399 425 403
f 399 402 424
f 400 409 426
f 400 426 427
f 400 427 401
f 401 427 402
f 402 428 424
f 402 427 428
f 403 425 424
f 403 424 429
f 403 429 430
f 403 430 404
f 404 430 406
f 404 406 405
f 406 431 432
f 406 432 433
f 406 433 407
f 406 430 429
f 406 429 434
f 406 434 431
f 407 435 436
f 407 433 435
f 408 414 409
f 409 437 426
f 409 414 418
f 409 418 437
f 416 421 438
f 416 438 427
f 416 427 417
f 417 427 437
f 417 437 418
f 420 423 438
f 420 438 421
f 422 439 423
f 423 440 441
f 423 441 442
f 423 442 438
f 423 439 440
f 424 443 444
f 424 444 434
f 424 434 429
f 424 428 442
f 424 442 441
f 424 441 445
f 424 445 446
f 424 446 447
f 424 447 443
f 426 437 427
f 427 438 442
f 427 442 428
f 432 448 449
f 432 449 433
f 433 449 435
f 435 449 436
f 436 449 450
f 440 451 446
f 440 446 445
f 440 445 441
f 446 451 447
f 448 450 449
o convex_3
v 0.39113 0.741782 -0.101565
v 0.329717 0.741782 -0.101565
v 0.380492 0.76398 -0.101565
v 0.370943 0.783108 -0.0412045
v 0.370943 0.762508 2.43953e-05
v 0.381298 0.741782 -0.041313
v 0.149077 0.865524 -0.101565
v 0.252523 0.741782 0.12353
v 0.149077 0.78051 0.20606
v 0.370943 0.783108 -0.101565
v 0.364072 0.796859 -0.048076
v 0.35033 0.824325 2.43953e-05
v 0.365826 0.741782 0.0205303
v 0.370991 0.741782 -8.4098e-05
v 0.35033 0.803726 0.0412171
v 0.309103 0.762508 0.20606
v 0.149077 0.927359 -0.101565
v 0.242216 0.741782 0.159732
v 0.237051 0.741782 0.185337
v 0.237051 0.741782 0.205952
v 0.242193 0.741782 0.224107
v 0.149077 0.781419 0.21087
v 0.364072 0.796859 -0.101565
v 0.318676 0.887613 -0.101565
v 0.336588 0.851791 0.00689588
v 0.340023 0.834607 0.0309461
v 0.315974 0.893008 -0.0755619
v 0.309127 0.741782 0.206097
v 0.333152 0.827758 0.0652673
v 0.291925 0.786541 0.230111
v 0.295361 0.769375 0.233546
v 0.149077 0.927359 0.0460633
v 0.247311 0.927359 -0.101565
v 0.254182 0.741782 0.240418
v 0.149077 0.797804 0.247289
v 0.315974 0.893008 -0.101565
v 0.295361 0.893008 0.0480886
v 0.333152 0.848358 0.0240746
v 0.336588 0.831192 0.0480886
v 0.275838 0.914698 -0.101565
v 0.274771 0.913608 0.00689588
v 0.298868 0.741782 0.226566
v 0.298797 0.875824 0.0721388
v 0.278207 0.814025 0.236982
v 0.267924 0.783108 0.247289
v 0.295361 0.741782 0.233546
v 0.149077 0.9222 0.0692455
v 0.185494 0.927359 0.082446
v 0.247311 0.927359 2.43953e-05
v 0.267853 0.741782 0.247253
v 0.149077 0.799402 0.250508
v 0.254182 0.913608 0.0687031
v 0.278207 0.896442 0.0721388
v 0.254182 0.893008 0.13051
v 0.254182 0.851791 0.233546
v 0.230133 0.848358 0.250725
v 0.233568 0.831192 0.254161
v 0.206084 0.824325 0.267904
v 0.267924 0.741891 0.247289
v 0.268137 0.741782 0.247181
v 0.149077 0.903236 0.144253
v 0.162298 0.9222 0.082446
v 0.206084 0.927359 0.082446
v 0.164881 0.906741 0.144253
v 0.185494 0.886142 0.20606
v 0.226697 0.927359 0.0618316
v 0.149077 0.824325 0.267904
v 0.149077 0.810592 0.261032
v 0.237004 0.917041 0.0927171
v 0.237004 0.875824 0.195753
v 0.21639 0.875824 0.216368
v 0.212955 0.851791 0.254161
v 0.149077 0.90082 0.150474
v 0.15801 0.899875 0.15796
v 0.178623 0.879257 0.219803
v 0.192342 0.872391 0.233546
v 0.151138 0.851791 0.254161
v 0.149077 0.849739 0.255173
v 0.149077 0.866596 0.226675
v 0.159716 0.875824 0.216368
v 0.162298 0.880983 0.20606
v 0.149077 0.852808 0.252099
f 452 453 458
f 452 458 468
f 452 468 484
f 452 484 491
f 452 491 487
f 452 487 475
f 452 475 474
f 452 474 461
f 452 461 454
f 452 454 455
f 452 455 456
f 452 456 457
f 452 457 465
f 452 465 464
f 452 464 479
f 452 479 493
f 452 493 497
f 452 497 511
f 452 511 501
f 452 501 485
f 452 485 472
f 452 472 471
f 452 471 470
f 452 470 469
f 452 469 459
f 452 459 453
f 453 459 460
f 453 460 458
f 454 461 455
f 455 461 474
f 455 474 462
f 455 462 463
f 455 463 456
f 456 464 465
f 456 465 457
f 456 463 466
f 456 466 467
f 456 467 464
f 458 460 473
f 458 473 486
f 458 486 502
f 458 502 519
f 458 519 518
f 458 518 529
f 458 529 533
f 458 533 530
f 458 530 524
f 458 524 512
f 458 512 498
f 458 498 483
f 458 483 468
f 459 469 460
f 460 469 470
f 460 470 471
f 460 471 472
f 460 472 473
f 462 474 475
f 462 475 463
f 463 476 477
f 463 477 466
f 463 475 478
f 463 478 476
f 464 467 479
f 466 477 480
f 466 480 481
f 466 481 467
f 467 481 482
f 467 482 479
f 468 483 499
f 468 499 514
f 468 514 517
f 468 517 500
f 468 500 484
f 472 485 473
f 473 485 486
f 475 487 478
f 476 488 489
f 476 489 480
f 476 480 490
f 476 490 477
f 476 478 488
f 477 490 480
f 478 487 491
f 478 491 492
f 478 492 488
f 479 482 493
f 480 494 495
f 480 495 481
f 480 489 488
f 480 488 494
f 481 495 482
f 482 495 496
f 482 496 510
f 482 510 497
f 482 497 493
f 483 498 499
f 484 500 491
f 485 501 502
f 485 502 486
f 488 492 503
f 488 503 504
f 488 504 505
f 488 505 506
f 488 506 494
f 491 500 492
f 492 500 503
f 494 506 495
f 495 506 507
f 495 507 508
f 495 508 496
f 496 508 509
f 496 509 510
f 497 510 511
f 498 512 513
f 498 513 499
f 499 513 512
f 499 512 515
f 499 515 516
f 499 516 514
f 500 517 503
f 501 511 510
f 501 510 518
f 501 518 519
f 501 519 502
f 503 520 505
f 503 505 504
f 503 517 520
f 505 520 521
f 505 521 506
f 506 521 522
f 506 522 527
f 506 527 523
f 506 523 507
f 507 523 509
f 507 509 508
f 509 523 528
f 509 528 518
f 509 518 510
f 512 524 515
f 514 516 522
f 514 522 520
f 514 520 517
f 515 524 525
f 515 525 516
f 516 525 526
f 516 526 527
f 516 527 522
f 518 528 529
f 520 522 521
f 523 527 528
f 524 530 531
f 524 531 532
f 524 532 526
f 524 526 525
f 526 531 533
f 526 533 528
f 526 528 527
f 526 532 531
f 528 533 529
f 530 533 531
o convex_4
v 0.267916 0.721234 0.247296
v 0.302267 0.631957 0.219806
v 0.281646 0.714406 0.240398
v 0.295393 0.728126 0.233534
v 0.295393 0.741782 0.233534
v 0.268122 0.741782 0.247159
v 0.267847 0.741782 0.247227
v 0.254169 0.741782 0.240398
v 0.257614 0.710928 0.242139
v 0.309124 0.185505 0.144236
v 0.309124 0.288567 0.164861
v 0.329727 0.185505 0.144236
v 0.343457 0.178613 0.137372
v 0.315997 0.645677 0.212942
v 0.309158 0.741782 0.206079
v 0.315997 0.707514 0.212942
v 0.312569 0.724712 0.209493
v 0.242187 0.741782 0.224109
v 0.254169 0.721234 0.240398
v 0.295393 0.185505 0.137372
v 0.298822 0.175199 0.139079
v 0.319425 0.154587 0.139079
v 0.329727 0.0837318 0.123644
v 0.351634 0.0837318 0.112682
v 0.357205 0.0837318 0.109882
v 0.357205 0.21301 0.130508
v 0.343457 0.343512 0.157963
v 0.365844 0.741782 0.0205157
v 0.329727 0.700621 0.185453
v 0.357205 0.316007 0.130508
v 0.237045 0.741782 0.205942
v 0.247312 0.659397 0.206079
v 0.254169 0.659397 0.219806
v 0.295393 0.123668 0.116746
v 0.298822 0.113362 0.118488
v 0.315569 0.0837318 0.116712
v 0.370935 0.0837318 0.0824269
v 0.364061 0.199226 0.116746
v 0.370935 0.206118 0.103018
v 0.375083 0.741782 -0.0164329
v 0.391539 0.721234 -0.0411906
v 0.391539 0.680009 -0.020599
v 0.370935 0.288567 0.103018
v 0.237045 0.741782 0.18535
v 0.247312 0.535787 0.144236
v 0.28852 0.123668 0.103018
v 0.293679 0.103056 0.105614
v 0.298822 0.0927497 0.108175
v 0.30333 0.0837318 0.101413
v 0.370935 0.0837318 -0.101565
v 0.391539 0.207599 -0.101565
v 0.411783 0.49585 -0.101565
v 0.41216 0.535787 -0.0824078
v 0.381288 0.741782 -0.041293
v 0.391247 0.741589 -0.101565
v 0.41216 0.556399 -0.0824078
v 0.411405 0.596851 -0.101565
v 0.242204 0.741782 0.159739
v 0.309124 0.0837318 -0.101565
v 0.28852 0.0837318 0.0412439
v 0.28852 0.0837318 0.063133
v 0.293679 0.0837318 0.0862857
v 0.41216 0.516656 -0.101565
v 0.391127 0.741782 -0.101565
v 0.41216 0.556399 -0.101565
v 0.411851 0.57669 -0.101565
v 0.252506 0.741782 0.123542
v 0.309124 0.123668 -0.101565
v 0.329727 0.741782 -0.101565
f 534 535 536
f 534 536 537
f 534 537 538
f 534 538 539
f 534 539 540
f 534 540 541
f 534 541 542
f 534 542 554
f 534 554 543
f 534 543 544
f 534 544 545
f 534 545 546
f 534 546 535
f 535 547 537
f 535 537 536
f 535 546 547
f 537 547 549
f 537 549 538
f 538 548 561
f 538 561 573
f 538 573 587
f 538 587 597
f 538 597 602
f 538 602 600
f 538 600 591
f 538 591 577
f 538 577 564
f 538 564 551
f 538 551 541
f 538 541 540
f 538 540 539
f 538 549 550
f 538 550 548
f 541 551 552
f 541 552 542
f 542 552 553
f 542 553 554
f 543 554 555
f 543 555 544
f 544 555 545
f 545 555 556
f 545 556 546
f 546 556 557
f 546 557 558
f 546 558 559
f 546 559 560
f 546 560 547
f 547 560 559
f 547 559 563
f 547 563 549
f 548 550 562
f 548 562 561
f 549 562 550
f 549 563 562
f 551 564 565
f 551 565 566
f 551 566 552
f 552 566 553
f 553 567 568
f 553 568 554
f 553 566 567
f 554 568 556
f 554 556 555
f 556 568 569
f 556 569 582
f 556 582 595
f 556 595 594
f 556 594 593
f 556 593 592
f 556 592 583
f 556 583 570
f 556 570 558
f 556 558 557
f 558 570 571
f 558 571 559
f 559 571 572
f 559 572 576
f 559 576 563
f 561 562 574
f 561 574 573
f 562 575 574
f 562 563 576
f 562 576 575
f 564 577 578
f 564 578 565
f 565 578 579
f 565 579 566
f 566 579 567
f 567 579 580
f 567 580 568
f 568 580 581
f 568 581 569
f 569 581 582
f 570 572 571
f 570 583 584
f 570 584 585
f 570 585 586
f 570 586 572
f 572 586 589
f 572 589 576
f 573 574 587
f 574 588 587
f 574 575 589
f 574 589 590
f 574 590 588
f 575 576 589
f 577 591 578
f 578 591 592
f 578 592 593
f 578 593 594
f 578 594 579
f 579 594 580
f 580 594 595
f 580 595 581
f 581 595 582
f 583 592 601
f 583 601 602
f 583 602 597
f 583 597 588
f 583 588 590
f 583 590 599
f 583 599 598
f 583 598 596
f 583 596 585
f 583 585 584
f 585 596 586
f 586 596 598
f 586 598 589
f 587 588 597
f 589 598 599
f 589 599 590
f 591 600 601
f 591 601 592
f 600 602 601
o convex_5
v 0.149077 0.824316 0.267904
v 0.149077 0.813816 0.262633
v 0.149077 0.849732 0.255178
v 0.144253 0.824316 0.267904
v 0.0682079 0.707069 0.226676
v 0.149077 0.810598 0.261014
v 0.137382 0.838056 0.261014
v 0.149077 0.852817 0.252091
v 0.137382 0.858655 0.240419
v 0.128781 0.834615 0.257588
v 0.116768 0.824316 0.254161
v 0.0617998 0.707069 0.226676
v 0.082413 0.707069 0.223514
v 0.149077 0.79941 0.250509
v 0.0899664 0.707069 0.220577
v 0.12364 0.844915 0.247271
v 0.149077 0.866602 0.226676
v 0.128781 0.855214 0.236955
v 0.0978851 0.834615 0.236955
v 0.149077 0.900808 0.150472
v 0.139087 0.896435 0.154538
v 0.0892841 0.803716 0.240419
v 0.0875785 0.814016 0.236955
v 0.052346 0.707069 0.221933
v 0.0617998 0.721298 0.226676
v 0.149077 0.797812 0.247271
v 0.0932313 0.707069 0.21685
v 0.116768 0.851796 0.226676
v 0.0978851 0.896435 0.0927161
v 0.0875785 0.834615 0.21636
v 0.0746892 0.824316 0.206044
v 0.0746892 0.803716 0.226676
v 0.0566587 0.875836 0.0721589
v 0.0343399 0.872395 0.0412479
v 0.149077 0.903227 0.144222
v 0.14167 0.901585 0.144222
v 0.100444 0.901585 0.0823999
v 0.075542 0.783117 0.233529
v 0.048082 0.721298 0.219786
v 0.048082 0.707069 0.219786
v 0.149077 0.781408 0.210901
v 0.0952049 0.707069 0.208905
v 0.075542 0.892994 0.0618427
v 0.0257388 0.855214 0.0515265
v 0.0334871 0.762496 0.185449
v 0.0540759 0.783117 0.206044
v 0.0128982 0.844915 0.0412479
v -0.0283283 0.824316 -0.0205742
v -0.0489415 0.803716 -0.0412066
v 0.0463521 0.731597 0.21636
v 0.0549531 0.892994 0.0206155
v 0.013751 0.872395 -0.0205742
v -0.00686224 0.851796 -0.0205742
v 0.149077 0.922206 0.0692222
v 0.14167 0.922206 0.0618427
v 0.121057 0.922206 0.0412479
v 0.0798547 0.901585 0.0412479
v 0.0380191 0.707069 0.210336
v 0.0959115 0.707069 0.206044
v 0.149077 0.780498 0.206044
v 0.0257388 0.752196 0.175133
v 0.0128982 0.721298 0.164854
v -0.0695304 0.762496 -0.0412066
v -0.0695304 0.741897 -0.0205742
v -0.0480643 0.810598 -0.0618014
v -0.0566654 0.793417 -0.0514852
v -0.0772786 0.752196 -0.0514852
v 0.0686709 0.899876 0.0206155
v 0.075542 0.913616 -0.0412066
v 0.0343399 0.892994 -0.0618014
v 0.149077 0.923849 0.0618427
v 0.149077 0.927356 0.0460672
v 0.144253 0.927356 0.0412479
v 0.12364 0.927356 0.0206155
v 0.013483 0.707069 0.169598
v 0.0959115 0.707069 0.144222
v 0.0978851 0.710976 0.133943
v 0.149077 0.858677 -0.116733
v 0.00517433 0.710976 0.154538
v -0.0772786 0.731597 -0.0308904
v -0.0480643 0.810598 -0.116733
v -0.0595161 0.787734 -0.116733
v -0.0663872 0.773994 -0.116733
v -0.0998411 0.707069 -0.0760333
v -0.0978675 0.710976 -0.0721177
v 0.103026 0.927356 -0.0412066
v 0.075542 0.913616 -0.116733
v 0.0526871 0.902184 -0.116733
v 0.048082 0.899876 -0.0618014
v 0.0389449 0.895303 -0.116733
v 0.0343399 0.892994 -0.116733
v 0.149077 0.933838 -0.116733
v 0.00580783 0.707069 0.155856
v 0.0949369 0.707069 0.130028
v -0.0343466 0.707069 -0.116733
v 0.0743481 0.707069 0.0888005
v -0.0877558 0.707069 -0.0412066
v -0.0998411 0.707069 -0.116733
v 0.125345 0.930774 -0.116733
v 0.103026 0.927356 -0.116733
f 603 604 608
f 603 608 616
f 603 616 628
f 603 628 643
f 603 643 662
f 603 662 680
f 603 680 694
f 603 694 674
f 603 674 673
f 603 673 656
f 603 656 637
f 603 637 622
f 603 622 619
f 603 619 610
f 603 610 605
f 603 605 606
f 603 606 614
f 603 614 607
f 603 607 604
f 604 607 608
f 605 609 606
f 605 610 611
f 605 611 609
f 606 609 612
f 606 612 613
f 606 613 624
f 606 624 627
f 606 627 614
f 607 614 626
f 607 626 642
f 607 642 660
f 607 660 677
f 607 677 695
f 607 695 699
f 607 699 686
f 607 686 700
f 607 700 697
f 607 697 698
f 607 698 696
f 607 696 678
f 607 678 661
f 607 661 644
f 607 644 629
f 607 629 617
f 607 617 615
f 607 615 608
f 608 615 617
f 608 617 616
f 609 611 618
f 609 618 612
f 610 619 611
f 611 620 621
f 611 621 618
f 611 619 622
f 611 622 623
f 611 623 620
f 612 618 621
f 612 621 613
f 613 621 625
f 613 625 624
f 614 627 626
f 616 617 629
f 616 629 628
f 620 630 621
f 620 623 631
f 620 631 630
f 621 632 633
f 621 633 634
f 621 634 625
f 621 630 631
f 621 631 635
f 621 635 636
f 621 636 632
f 622 637 638
f 622 638 623
f 623 638 639
f 623 639 631
f 624 625 640
f 624 640 641
f 624 641 627
f 625 634 640
f 626 627 641
f 626 641 642
f 628 629 643
f 629 644 643
f 631 639 645
f 631 645 635
f 632 636 646
f 632 646 633
f 633 647 648
f 633 648 634
f 633 646 649
f 633 649 650
f 633 650 651
f 633 651 647
f 634 648 652
f 634 652 640
f 635 645 636
f 636 649 646
f 636 645 653
f 636 653 654
f 636 654 655
f 636 655 650
f 636 650 649
f 637 656 638
f 638 656 657
f 638 657 658
f 638 658 639
f 639 658 659
f 639 659 645
f 640 652 641
f 641 652 660
f 641 660 642
f 643 644 661
f 643 661 662
f 645 659 653
f 647 663 664
f 647 664 652
f 647 652 648
f 647 651 665
f 647 665 666
f 647 666 682
f 647 682 663
f 650 655 651
f 651 655 667
f 651 667 668
f 651 668 669
f 651 669 665
f 652 664 660
f 653 670 671
f 653 671 672
f 653 672 654
f 653 659 670
f 654 672 655
f 655 672 693
f 655 693 683
f 655 683 667
f 656 673 657
f 657 673 674
f 657 674 675
f 657 675 658
f 658 675 676
f 658 676 670
f 658 670 659
f 660 664 677
f 661 678 662
f 662 678 679
f 662 679 680
f 663 681 664
f 663 682 681
f 664 681 677
f 665 669 666
f 666 669 682
f 667 683 684
f 667 684 668
f 668 684 685
f 668 685 669
f 669 685 686
f 669 686 687
f 669 687 682
f 670 676 688
f 670 688 671
f 671 688 702
f 671 702 689
f 671 689 690
f 671 690 691
f 671 691 672
f 672 691 690
f 672 690 692
f 672 692 693
f 674 694 675
f 675 694 676
f 676 694 688
f 677 681 695
f 678 696 679
f 679 696 680
f 680 697 700
f 680 700 685
f 680 685 684
f 680 684 683
f 680 683 693
f 680 693 692
f 680 692 690
f 680 690 689
f 680 689 702
f 680 702 701
f 680 701 694
f 680 696 698
f 680 698 697
f 681 682 699
f 681 699 695
f 682 687 699
f 685 700 686
f 686 699 687
f 688 694 701
f 688 701 702
o convex_6
v 0.0682179 0.707069 0.226688
v 0.0617941 0.707069 0.226688
v 0.0617941 0.700662 0.226688
v 0.0824024 0.698039 0.221511
v 0.0824024 0.707069 0.223528
v 0.0523377 0.707069 0.221948
v 0.0514899 0.690351 0.221511
v -0.164832 0.0837318 0.0618012
v -0.144224 0.0837318 0.0618012
v 0.0899674 0.707069 0.22057
v -0.142756 0.0837318 0.0614314
v -0.128246 0.0837318 0.055515
v 0.0480661 0.707069 0.219796
v 0.0480661 0.700662 0.219796
v -0.191473 0.0837318 0.0485229
v -0.178593 0.0837318 0.0549772
v 0.0932282 0.707069 0.216872
v -0.122996 0.0837318 0.0412282
v -0.113344 0.108199 0.0515483
v -0.109887 0.116802 0.0549772
v 0.0379902 0.707069 0.210317
v -0.192386 0.0837318 0.0476825
v 0.0617941 0.597607 0.164834
v 0.0959347 0.707069 0.206048
v -0.10304 0.123697 0.0412282
v -0.122996 0.0837318 -0.0186419
v -0.116768 0.096179 0.0412282
v -0.109887 0.109969 0.0412282
v 0.0134689 0.707069 0.169574
v -0.015487 0.649104 0.154548
v -0.00687849 0.638792 0.171726
v -0.151104 0.267938 0.0686925
v -0.15968 0.27825 0.0515483
v -0.200896 0.0927621 0.0309417
v -0.199396 0.0837318 0.0339335
v 0.0411858 0.535798 0.123621
v 0.0824024 0.659416 0.164834
v 0.0959347 0.707069 0.144228
v -0.10304 0.123697 1.4984e-05
v -0.123159 0.0837318 -0.0205916
v -0.108192 0.113385 -0.0102715
v -0.116768 0.096179 1.4984e-05
v -0.109887 0.109969 1.4984e-05
v 0.00577344 0.707069 0.155859
v -0.0772793 0.669727 0.0309417
v -0.139072 0.319436 0.0721213
v -0.151952 0.288562 0.0618012
v -0.206049 0.123697 1.4984e-05
v -0.200896 0.134009 0.0103351
v -0.0901595 0.638792 0.0206216
v -0.0978876 0.628542 0.0103351
v -0.144224 0.535798 -0.0824115
v -0.205429 0.0837318 0.0219326
v 0.0411858 0.535798 0.103014
v 0.0824024 0.659416 0.144228
v 0.0949565 0.707069 0.130042
v -0.129583 0.0837318 -0.0334666
v -0.11592 0.103074 -0.0205916
v -0.0798227 0.453365 -0.116733
v 0.056642 0.607918 0.092728
v 0.0360337 0.525486 0.092728
v -0.0877465 0.707069 -0.0411983
v -0.0978876 0.690351 -0.0515184
v -0.206049 0.247315 -0.103018
v -0.2232 0.171839 -0.116733
v -0.237189 0.0837318 -0.116733
v -0.233896 0.0837318 -0.101707
v -0.10304 0.700662 -0.0824115
v -0.118496 0.628542 -0.072125
v -0.118496 0.607918 -0.0515184
v -0.139072 0.587295 -0.113338
v -0.144224 0.55636 -0.103018
v -0.18544 0.350371 -0.103018
v 0.0743482 0.707069 0.0888285
v -0.0618557 0.535798 -0.116733
v -0.171582 0.0837318 -0.116733
v -0.0998115 0.707069 -0.0760244
v -0.181984 0.377889 -0.116733
v -0.10304 0.700662 -0.116733
v -0.123615 0.638792 -0.103018
v -0.140767 0.583878 -0.116733
v -0.118496 0.649104 -0.0927316
v -0.0343997 0.686873 -0.116733
v -0.0343997 0.707069 -0.116733
v -0.0998115 0.707069 -0.116733
v -0.123615 0.638792 -0.116733
f 703 704 705
f 703 705 706
f 703 706 707
f 703 707 712
f 703 712 719
f 703 719 726
f 703 726 740
f 703 740 758
f 703 758 776
f 703 776 786
f 703 786 787
f 703 787 779
f 703 779 764
f 703 764 746
f 703 746 731
f 703 731 723
f 703 723 715
f 703 715 708
f 703 708 704
f 704 708 705
f 705 708 709
f 705 709 710
f 705 710 711
f 705 711 706
f 706 712 707
f 706 711 713
f 706 713 714
f 706 714 712
f 708 715 716
f 708 716 709
f 709 716 717
f 709 717 718
f 709 718 710
f 710 718 717
f 710 717 724
f 710 724 737
f 710 737 755
f 710 755 769
f 710 769 768
f 710 768 778
f 710 778 759
f 710 759 742
f 710 742 728
f 710 728 720
f 710 720 714
f 710 714 713
f 710 713 711
f 712 714 719
f 714 720 721
f 714 721 722
f 714 722 719
f 715 723 724
f 715 724 717
f 715 717 716
f 719 725 726
f 719 722 727
f 719 727 725
f 720 728 744
f 720 744 729
f 720 729 722
f 720 722 721
f 722 729 730
f 722 730 727
f 723 731 732
f 723 732 733
f 723 733 734
f 723 734 724
f 724 734 735
f 724 735 736
f 724 736 737
f 725 738 756
f 725 756 757
f 725 757 739
f 725 739 726
f 725 727 738
f 726 739 757
f 726 757 740
f 727 730 745
f 727 745 741
f 727 741 756
f 727 756 738
f 728 742 743
f 728 743 744
f 729 744 745
f 729 745 730
f 731 746 732
f 732 746 747
f 732 747 748
f 732 748 733
f 733 748 734
f 734 748 749
f 734 749 735
f 735 750 751
f 735 751 736
f 735 749 752
f 735 752 753
f 735 753 754
f 735 754 750
f 736 751 755
f 736 755 737
f 740 757 758
f 741 745 743
f 741 743 763
f 741 763 756
f 742 759 760
f 742 760 743
f 743 745 744
f 743 760 761
f 743 761 762
f 743 762 763
f 746 764 747
f 747 753 752
f 747 752 749
f 747 749 748
f 747 764 765
f 747 765 753
f 750 766 767
f 750 767 768
f 750 768 769
f 750 769 755
f 750 755 751
f 750 754 766
f 753 765 770
f 753 770 771
f 753 771 772
f 753 772 754
f 754 772 771
f 754 771 773
f 754 773 774
f 754 774 775
f 754 775 766
f 756 763 758
f 756 758 757
f 758 763 762
f 758 762 777
f 758 777 776
f 759 778 760
f 760 778 761
f 761 777 762
f 761 778 768
f 761 768 767
f 761 767 780
f 761 780 783
f 761 783 788
f 761 788 781
f 761 781 787
f 761 787 786
f 761 786 785
f 761 785 777
f 764 779 765
f 765 779 770
f 766 775 767
f 767 775 780
f 770 779 787
f 770 787 781
f 770 781 788
f 770 788 782
f 770 782 783
f 770 783 773
f 770 773 784
f 770 784 771
f 771 784 773
f 773 783 774
f 774 783 780
f 774 780 775
f 776 785 786
f 776 777 785
f 782 788 783
o convex_7
v 0.0978719 -0.222238 0.0640739
v 0.335099 -0.222238 0.0640739
v 0.0978719 -0.222238 0.225327
v 0.0978719 -0.188694 0.0640739
v 0.340017 -0.211216 0.0721342
v 0.331223 -0.222238 0.0677442
v 0.344053 -0.20921 0.0640739
v 0.102576 -0.222238 0.227942
v 0.0978719 -0.0412199 0.309096
v 0.0978719 -0.185459 0.0656812
v 0.288696 0.0837318 0.0640739
v 0.2988 -0.0875826 0.195773
v 0.302248 -0.171712 0.137408
v 0.288509 -0.188035 0.139111
v 0.257583 -0.200914 0.154584
v 0.135374 -0.222238 0.238377
v 0.365785 -0.11334 0.0927406
v 0.340017 -0.0463713 0.17519
v 0.344882 -0.206005 0.0640739
v 0.128638 -0.222238 0.236314
v 0.123666 -0.0412199 0.309096
v 0.0978719 -8.5673e-06 0.309096
v 0.0978719 -0.180278 0.068272
v 0.0978719 -0.0395127 0.198555
v 0.0978719 -0.0292099 0.209494
v 0.0978719 -0.000188269 0.242287
v 0.0978719 0.00280674 0.246389
v 0.0978719 0.0134989 0.267235
v 0.0978719 0.0193092 0.282684
v 0.0978719 0.0205971 0.288489
v 0.293641 0.0837318 0.0863116
v 0.370944 0.0837318 0.0640739
v 0.0978719 -0.170005 0.074701
v 0.0978719 -0.163117 0.0807222
v 0.236974 -0.170005 0.195773
v 0.2988 -0.0463713 0.216379
v 0.236974 -0.0669769 0.257592
v 0.195783 -0.0669769 0.278198
v 0.185492 -0.0644012 0.283356
v 0.349212 -0.186568 0.0640739
v 0.370944 -0.0824312 0.0640739
v 0.370944 -0.0824312 0.0824494
v 0.350335 -0.0206142 0.164875
v 0.343465 -0.0275027 0.178621
v 0.336596 -0.0137556 0.192318
v 0.315987 -0.0137556 0.212949
v 0.185492 -0.0412199 0.288489
v 0.144275 -8.5673e-06 0.309096
v 0.0978719 0.0137385 0.302235
v 0.199231 0.0343442 0.261022
v 0.206101 0.0412027 0.247277
v 0.329726 0.0837318 0.123662
v 0.315533 0.0837318 0.116729
v 0.303317 0.0837318 0.101449
v 0.370944 0.0837318 0.0824494
v 0.302248 -0.0275027 0.219809
v 0.240422 -0.0481084 0.261022
v 0.199231 -0.0481084 0.281629
v 0.343465 -0.00689708 0.178621
v 0.336596 0.00685 0.192318
v 0.254161 -0.0343613 0.254161
v 0.315987 0.0274557 0.212949
v 0.295378 0.00685 0.233555
v 0.158014 -0.00689708 0.302235
v 0.171753 0.00685 0.295374
v 0.137405 0.0137385 0.302235
v 0.21984 0.0343442 0.261022
v 0.22671 0.0412027 0.247277
v 0.343465 0.0837318 0.116801
v 0.357205 0.0837318 0.109917
v 0.21297 -0.0343613 0.274768
v 0.333148 0.0240413 0.188888
v 0.295378 0.0274557 0.233555
v 0.21297 0.00685 0.274768
v 0.254161 0.0274557 0.254161
v 0.209522 0.0240413 0.271337
v 0.261031 0.0343442 0.240416
v 0.2679 0.0412027 0.22667
v 0.285061 0.0377585 0.22324
f 789 790 794
f 789 794 804
f 789 804 808
f 789 808 796
f 789 796 791
f 789 791 797
f 789 797 810
f 789 810 837
f 789 837 818
f 789 818 817
f 789 817 816
f 789 816 815
f 789 815 814
f 789 814 813
f 789 813 812
f 789 812 822
f 789 822 821
f 789 821 811
f 789 811 798
f 789 798 792
f 789 792 799
f 789 799 820
f 789 820 829
f 789 829 828
f 789 828 807
f 789 807 795
f 789 795 790
f 790 793 794
f 790 795 793
f 791 796 797
f 792 798 799
f 793 800 801
f 793 801 802
f 793 802 803
f 793 803 804
f 793 804 794
f 793 795 805
f 793 805 806
f 793 806 800
f 795 807 805
f 796 808 797
f 797 809 836
f 797 836 810
f 797 808 804
f 797 804 809
f 798 811 799
f 799 812 813
f 799 813 814
f 799 814 815
f 799 815 816
f 799 816 817
f 799 817 818
f 799 818 819
f 799 819 842
f 799 842 841
f 799 841 840
f 799 840 857
f 799 857 858
f 799 858 843
f 799 843 820
f 799 811 821
f 799 821 822
f 799 822 812
f 800 823 802
f 800 802 801
f 800 806 824
f 800 824 825
f 800 825 823
f 802 823 803
f 803 823 804
f 804 823 825
f 804 825 826
f 804 826 827
f 804 827 809
f 805 807 828
f 805 828 829
f 805 829 830
f 805 830 831
f 805 831 832
f 805 832 806
f 806 832 833
f 806 833 834
f 806 834 824
f 809 827 835
f 809 835 836
f 810 836 854
f 810 854 837
f 818 837 838
f 818 838 839
f 818 839 840
f 818 840 841
f 818 841 842
f 818 842 819
f 820 843 830
f 820 830 829
f 824 834 844
f 824 844 845
f 824 845 825
f 825 845 846
f 825 846 826
f 826 846 827
f 827 846 835
f 830 843 831
f 831 843 847
f 831 847 832
f 832 847 848
f 832 848 833
f 833 848 850
f 833 850 834
f 834 849 845
f 834 845 844
f 834 850 861
f 834 861 851
f 834 851 849
f 835 846 852
f 835 852 836
f 836 852 853
f 836 853 854
f 837 854 855
f 837 855 838
f 838 855 856
f 838 856 839
f 839 856 840
f 840 856 857
f 843 858 848
f 843 848 847
f 845 849 859
f 845 859 846
f 846 859 853
f 846 853 852
f 848 858 860
f 848 860 850
f 849 851 859
f 850 860 858
f 850 858 861
f 851 861 862
f 851 862 859
f 853 859 862
f 853 862 861
f 853 861 863
f 853 863 864
f 853 864 854
f 854 864 855
f 855 865 866
f 855 866 856
f 855 864 863
f 855 863 861
f 855 861 865
f 856 866 857
f 857 866 858
f 858 866 867
f 858 867 861
f 861 867 866
f 861 866 865
o convex_8
v -0.199524 -0.0562259 0.0640739
v -0.200928 -0.0515078 0.0721342
v -0.19888 -0.0434227 0.0640739
v -0.180191 -0.0977809 0.0640739
v -0.180308 0.0205934 0.146835
v -0.199202 0.0411995 0.116801
v -0.200928 0.0515026 0.113347
v -0.170012 -0.103023 0.0798586
v -0.149509 -0.123549 0.100321
v -0.149451 -0.123549 0.100441
v -0.15454 -0.0515078 0.149426
v -0.159688 -0.0412048 0.146835
v -0.194639 -1.27062e-05 0.0640739
v -0.15998 -0.123549 0.0640739
v -0.171709 0.0411995 0.171736
v -0.178582 0.0411995 0.158014
v -0.151118 -0.0205987 0.171736
v -0.180308 0.0721087 0.154584
v -0.195751 0.0566642 0.113347
v -0.162613 0.0573699 0.0640739
v -0.177997 0.0414818 0.0640739
v -0.191802 0.0230936 0.0640739
v -0.192358 0.0205934 0.0640739
v -0.178582 0.0755565 0.144269
v -0.149334 -0.123549 0.100609
v -0.113329 -0.0927201 0.180324
v -0.133949 -0.0927201 0.149426
v -0.109907 -0.082417 0.192318
v -0.133949 -0.0309017 0.190615
v -0.0319317 -0.123549 0.0640739
v -0.171709 0.0618056 0.171736
v -0.130498 -1.27062e-05 0.212949
v -0.109907 -1.27062e-05 0.233555
v -0.167439 0.0772703 0.164875
v -0.17516 0.0772703 0.133953
v -0.164836 0.0824319 0.144269
v -0.148691 0.0573699 0.0640739
v -0.137371 -0.123549 0.116825
v -0.0927094 -0.113326 0.190615
v -0.103034 -0.103023 0.185481
v -0.0892874 -0.082417 0.212949
v -0.109907 -0.0412048 0.212949
v -0.051528 -0.113326 0.231828
v -0.0317562 -0.115846 0.0640739
v -0.0298258 -0.123549 0.0640979
v -0.109907 0.0411995 0.233555
v -0.130498 0.0618056 0.212949
v -0.0686674 -0.082417 0.233555
v -0.0686674 -0.0412048 0.254161
v -0.0412326 -0.0412048 0.275631
v -0.0481059 -0.0205987 0.274768
v -0.0892874 0.0411995 0.254161
v -0.146819 0.0772703 0.185481
v -0.103034 0.0824319 0.206064
v -0.144245 0.0824319 0.164875
v -0.144245 0.0824319 0.144269
v -0.0875618 -0.0158201 0.0640739
v -0.123625 0.0772703 0.141702
v -0.0824141 0.0772703 0.182915
v -0.0721187 0.0721087 0.180324
v 0.0978719 0.00283021 0.246389
v 0.0978719 -0.00019417 0.242287
v 0.0978719 -0.0291879 0.209494
v 0.0978719 -0.039491 0.198555
v 0.0978719 -0.121915 0.121935
v 0.0978719 -0.123549 0.121119
v -0.07557 -0.123549 0.199227
v -0.0618233 -0.123549 0.21386
v -0.0413203 -0.123549 0.226718
v -0.0411449 -0.123549 0.226814
v -0.0309372 -0.113326 0.242143
v -0.0206126 -0.103023 0.255001
v -0.0412326 -0.082417 0.255001
v -0.051528 -0.0927201 0.242143
v 0.0824288 -0.123549 0.113395
v -0.0523469 -0.0746343 0.0640739
v -0.126199 0.0772703 0.206064
v -0.118477 0.0721087 0.216379
v -0.051528 -0.0515078 0.262749
v -0.0309372 -0.0309017 0.283356
v -2.18838e-05 -0.082417 0.275631
v -0.0481059 0.0205934 0.274768
v -0.0618233 0.0411995 0.267883
v -0.0772664 0.0515026 0.257592
v -0.109907 0.0755565 0.219809
v -0.0686674 0.0549504 0.261022
v -0.0824141 0.0824319 0.206064
v -0.123625 0.0824319 0.164875
v -0.0603317 -0.060339 0.0640739
v 0.094947 -0.123549 0.119656
v -0.0686674 0.0755565 0.199203
v 0.0978719 0.019303 0.282684
v 0.0978719 0.0135164 0.267235
v 0.0978719 -0.123549 0.25764
v -0.0206126 -0.123549 0.237033
v 0.0413058 -0.123549 0.255097
v 0.0103027 0.0102903 0.303962
v 0.0103027 -0.0721139 0.283356
v 0.0308935 -0.0309017 0.303962
v 0.0618088 -0.103023 0.275631
v 0.0411888 -0.0618109 0.296238
v -0.0274859 0.0343443 0.281629
v 0.0274714 0.0274688 0.295374
v -0.0481059 0.0549504 0.261022
v -0.0412326 0.0618056 0.247277
v 0.0978719 0.0205934 0.288489
v 0.0978719 -0.109899 0.274768
v 0.0618088 -0.123549 0.25764
v 0.0824288 -0.109899 0.274768
v 0.0411888 -0.0205987 0.309096
v 0.0411888 -1.27062e-05 0.309096
v 0.0978719 -1.27062e-05 0.309096
v 0.0978719 0.0103307 0.303938
v 0.0978719 0.0137381 0.302235
v 0.0137248 0.0137381 0.302235
v 0.0515135 -0.0515078 0.303962
v 0.0721042 -0.0927201 0.283356
v 0.0978719 -0.0858648 0.286786
v 0.0618088 -0.0686863 0.295374
v 0.0618088 -0.0412048 0.309096
v 0.0978719 -0.0412048 0.309096
v 0.0978719 -0.0446526 0.307393
f 868 869 870
f 868 870 880
f 868 880 890
f 868 890 889
f 868 889 888
f 868 888 887
f 868 887 904
f 868 904 924
f 868 924 956
f 868 956 943
f 868 943 911
f 868 911 897
f 868 897 881
f 868 881 871
f 868 871 869
f 869 872 873
f 869 873 874
f 869 874 870
f 869 871 875
f 869 875 876
f 869 876 877
f 869 877 878
f 869 878 879
f 869 879 872
f 870 874 880
f 871 881 876
f 871 876 875
f 872 882 883
f 872 883 873
f 872 879 884
f 872 884 882
f 873 883 885
f 873 885 874
f 874 886 887
f 874 887 888
f 874 888 889
f 874 889 890
f 874 890 880
f 874 885 891
f 874 891 886
f 876 881 897
f 876 897 912
f 876 912 942
f 876 942 957
f 876 957 933
f 876 933 961
f 876 961 975
f 876 975 963
f 876 963 962
f 876 962 937
f 876 937 936
f 876 936 935
f 876 935 934
f 876 934 905
f 876 905 892
f 876 892 877
f 877 892 893
f 877 893 894
f 877 894 878
f 878 894 893
f 878 893 895
f 878 895 896
f 878 896 884
f 878 884 879
f 882 898 885
f 882 885 883
f 882 884 899
f 882 899 900
f 882 900 913
f 882 913 898
f 884 896 899
f 885 898 901
f 885 901 891
f 886 891 902
f 886 902 887
f 887 902 903
f 887 903 923
f 887 923 904
f 891 901 903
f 891 903 902
f 892 905 906
f 892 906 907
f 892 907 893
f 893 907 895
f 895 908 909
f 895 909 899
f 895 899 896
f 895 907 906
f 895 906 910
f 895 910 908
f 897 911 912
f 898 913 914
f 898 914 901
f 899 909 900
f 900 909 908
f 900 908 915
f 900 915 916
f 900 916 917
f 900 917 918
f 900 918 919
f 900 919 913
f 901 914 920
f 901 920 921
f 901 921 922
f 901 922 903
f 903 922 921
f 903 921 954
f 903 954 955
f 903 955 923
f 904 923 925
f 904 925 926
f 904 926 927
f 904 927 928
f 904 928 929
f 904 929 930
f 904 930 931
f 904 931 932
f 904 932 933
f 904 933 924
f 905 934 906
f 906 934 935
f 906 935 910
f 908 910 915
f 910 936 937
f 910 937 938
f 910 938 939
f 910 939 940
f 910 940 917
f 910 917 941
f 910 941 915
f 910 935 936
f 911 942 912
f 911 943 942
f 913 919 914
f 914 944 920
f 914 919 951
f 914 951 945
f 914 945 944
f 915 941 946
f 915 946 916
f 916 946 917
f 917 947 918
f 917 946 941
f 917 940 948
f 917 948 947
f 918 947 949
f 918 949 919
f 919 950 951
f 919 949 950
f 920 944 921
f 921 952 953
f 921 953 971
f 921 971 954
f 921 944 952
f 923 955 925
f 924 933 957
f 924 957 942
f 924 942 956
f 925 955 954
f 925 954 926
f 926 954 958
f 926 958 927
f 927 958 959
f 927 959 960
f 927 960 928
f 928 960 959
f 928 959 973
f 928 973 981
f 928 981 980
f 928 980 979
f 928 979 988
f 928 988 989
f 928 989 985
f 928 985 974
f 928 974 961
f 928 961 933
f 928 933 932
f 928 932 931
f 928 931 930
f 928 930 929
f 937 962 938
f 938 962 939
f 939 948 940
f 939 962 963
f 939 963 948
f 942 943 956
f 944 945 952
f 945 951 952
f 947 964 949
f 947 948 965
f 947 965 983
f 947 983 966
f 947 966 964
f 948 963 967
f 948 967 968
f 948 968 983
f 948 983 965
f 949 964 950
f 950 953 951
f 950 964 953
f 951 953 952
f 953 964 969
f 953 969 970
f 953 970 971
f 954 971 972
f 954 972 973
f 954 973 958
f 958 973 959
f 961 974 976
f 961 976 975
f 963 975 976
f 963 976 967
f 964 966 977
f 964 977 978
f 964 978 979
f 964 979 980
f 964 980 981
f 964 981 970
f 964 970 982
f 964 982 969
f 966 983 987
f 966 987 977
f 967 984 968
f 967 976 984
f 968 984 983
f 969 982 970
f 970 981 972
f 970 972 971
f 972 981 973
f 974 985 976
f 976 985 986
f 976 986 984
f 977 987 988
f 977 988 979
f 977 979 978
f 983 984 986
f 983 986 989
f 983 989 987
f 985 989 986
f 987 989 988
o convex_9
v 0.212263 -0.222257 0.167048
v 0.226669 -0.247298 0.309106
v 0.254157 -0.261037 0.315985
v 0.274759 -0.281654 0.315985
v 0.281626 -0.295392 0.302243
v 0.283343 -0.309131 0.285921
v 0.283343 -0.350327 0.22412
v 0.274759 -0.370926 0.199215
v 0.262741 -0.381243 0.175169
v 0.257591 -0.381243 0.170026
v 0.242065 -0.370926 0.167048
v 0.0978905 -0.222257 0.167048
v 0.135362 -0.222257 0.238404
v 0.185485 -0.2267 0.267895
v 0.219802 -0.254177 0.322849
v 0.178618 -0.23356 0.281637
v 0.157997 -0.23356 0.281637
v 0.243856 -0.271354 0.326288
v 0.264458 -0.291953 0.326288
v 0.281626 -0.31599 0.322849
v 0.288512 -0.309131 0.309106
v 0.288512 -0.350327 0.247305
v 0.288512 -0.370926 0.226699
v 0.283343 -0.381243 0.216397
v 0.275617 -0.391543 0.206094
v 0.25244 -0.401842 0.175169
v 0.249865 -0.391543 0.170026
v 0.242438 -0.391543 0.167048
v 0.0978905 -0.304278 0.167048
v 0.0978905 -0.222257 0.225346
v 0.128625 -0.222257 0.236333
v 0.164865 -0.2267 0.267895
v 0.200917 -0.257616 0.319409
v 0.203493 -0.267915 0.324568
v 0.226669 -0.267915 0.329712
v 0.102574 -0.222257 0.227957
v 0.141688 -0.231849 0.267895
v 0.149413 -0.236999 0.278198
v 0.24729 -0.288514 0.329712
v 0.267891 -0.309131 0.329712
v 0.281626 -0.357187 0.302243
v 0.267891 -0.332294 0.324568
v 0.278192 -0.334879 0.319409
v 0.288512 -0.350327 0.2885
v 0.288512 -0.370926 0.267895
v 0.274759 -0.398403 0.226699
v 0.262741 -0.401842 0.195791
v 0.249865 -0.406991 0.185472
v 0.233555 -0.405281 0.171746
v 0.22986 -0.399927 0.167048
v 0.0978905 -0.303962 0.167462
v 0.11336 -0.319411 0.167048
v 0.11336 -0.319411 0.170026
v 0.0978905 -0.2267 0.227543
v 0.137396 -0.247298 0.274758
v 0.195767 -0.278214 0.324568
v 0.226669 -0.288514 0.329712
v 0.24729 -0.309131 0.329712
v 0.257591 -0.340028 0.324568
v 0.283343 -0.37351 0.2885
v 0.278192 -0.365776 0.298803
v 0.267891 -0.377804 0.29538
v 0.281626 -0.384664 0.267895
v 0.278192 -0.386393 0.278198
v 0.267891 -0.399276 0.247305
v 0.257591 -0.406991 0.237002
v 0.261024 -0.405281 0.226699
v 0.261024 -0.405281 0.206094
v 0.24729 -0.41216 0.206094
v 0.226669 -0.41216 0.185472
v 0.208251 -0.397789 0.167048
v 0.0978905 -0.27669 0.201954
v 0.201515 -0.396097 0.167048
v 0.199201 -0.398403 0.178609
v 0.216369 -0.401842 0.211237
v 0.0978905 -0.247298 0.223467
v 0.175184 -0.278214 0.303963
v 0.185485 -0.283364 0.311686
v 0.236989 -0.340028 0.314266
v 0.216369 -0.298831 0.324568
v 0.257591 -0.381243 0.283357
v 0.24729 -0.406991 0.229279
v 0.236989 -0.401842 0.231843
v 0.226669 -0.406991 0.208658
v 0.212935 -0.405281 0.192351
v 0.0978905 -0.274106 0.204533
v 0.17175 -0.281654 0.29538
f 990 991 992
f 990 992 993
f 990 993 994
f 990 994 995
f 990 995 996
f 990 996 997
f 990 997 998
f 990 998 999
f 990 999 1000
f 990 1000 1017
f 990 1017 1039
f 990 1039 1060
f 990 1060 1062
f 990 1062 1041
f 990 1041 1018
f 990 1018 1001
f 990 1001 1019
f 990 1019 1025
f 990 1025 1020
f 990 1020 1002
f 990 1002 1003
f 990 1003 991
f 991 1004 992
f 991 1003 1005
f 991 1005 1006
f 991 1006 1004
f 992 1007 1008
f 992 1008 993
f 992 1004 1007
f 993 1008 1009
f 993 1009 1010
f 993 1010 994
f 994 1010 995
f 995 1010 1011
f 995 1011 996
f 996 1011 1012
f 996 1012 997
f 997 1012 998
f 998 1012 1013
f 998 1013 1014
f 998 1014 1015
f 998 1015 999
f 999 1015 1016
f 999 1016 1017
f 999 1017 1000
f 1001 1018 1040
f 1001 1040 1061
f 1001 1061 1075
f 1001 1075 1065
f 1001 1065 1043
f 1001 1043 1019
f 1002 1020 1021
f 1002 1021 1003
f 1003 1021 1006
f 1003 1006 1005
f 1004 1022 1023
f 1004 1023 1024
f 1004 1024 1007
f 1004 1006 1022
f 1006 1021 1025
f 1006 1025 1019
f 1006 1019 1026
f 1006 1026 1027
f 1006 1027 1022
f 1007 1028 1008
f 1007 1024 1028
f 1008 1029 1009
f 1008 1028 1029
f 1009 1030 1033
f 1009 1033 1010
f 1009 1029 1031
f 1009 1031 1032
f 1009 1032 1030
f 1010 1033 1034
f 1010 1034 1012
f 1010 1012 1011
f 1012 1034 1035
f 1012 1035 1013
f 1013 1035 1014
f 1014 1035 1036
f 1014 1036 1015
f 1015 1017 1016
f 1015 1036 1037
f 1015 1037 1038
f 1015 1038 1039
f 1015 1039 1017
f 1018 1041 1042
f 1018 1042 1040
f 1019 1043 1044
f 1019 1044 1027
f 1019 1027 1026
f 1020 1025 1021
f 1022 1027 1045
f 1022 1045 1023
f 1023 1045 1024
f 1024 1045 1046
f 1024 1046 1047
f 1024 1047 1029
f 1024 1029 1028
f 1027 1044 1045
f 1029 1047 1048
f 1029 1048 1031
f 1030 1049 1033
f 1030 1032 1050
f 1030 1050 1049
f 1031 1048 1032
f 1032 1048 1051
f 1032 1051 1050
f 1033 1049 1034
f 1034 1049 1052
f 1034 1052 1035
f 1035 1052 1053
f 1035 1053 1054
f 1035 1054 1055
f 1035 1055 1056
f 1035 1056 1058
f 1035 1058 1057
f 1035 1057 1036
f 1036 1057 1037
f 1037 1057 1058
f 1037 1058 1059
f 1037 1059 1038
f 1038 1059 1060
f 1038 1060 1039
f 1040 1042 1061
f 1041 1062 1063
f 1041 1063 1042
f 1042 1063 1064
f 1042 1064 1061
f 1043 1065 1044
f 1044 1065 1066
f 1044 1066 1045
f 1045 1066 1067
f 1045 1067 1068
f 1045 1068 1069
f 1045 1069 1046
f 1046 1069 1047
f 1047 1069 1048
f 1048 1069 1068
f 1048 1068 1051
f 1049 1050 1051
f 1049 1051 1053
f 1049 1053 1052
f 1051 1070 1055
f 1051 1055 1053
f 1051 1068 1070
f 1053 1055 1054
f 1055 1071 1058
f 1055 1058 1056
f 1055 1070 1072
f 1055 1072 1071
f 1058 1071 1073
f 1058 1073 1059
f 1059 1073 1074
f 1059 1074 1063
f 1059 1063 1062
f 1059 1062 1060
f 1061 1064 1068
f 1061 1068 1076
f 1061 1076 1066
f 1061 1066 1075
f 1063 1074 1064
f 1064 1074 1073
f 1064 1073 1071
f 1064 1071 1072
f 1064 1072 1070
f 1064 1070 1068
f 1065 1075 1066
f 1066 1076 1067
f 1067 1076 1068
o convex_10
v 0.0978719 -0.490113 0.06406
v 0.144272 -0.490113 0.06406
v 0.229872 -0.39993 0.167048
v 0.208274 -0.39778 0.167048
v 0.20154 -0.396101 0.167048
v 0.113362 -0.319449 0.167048
v 0.0978719 -0.304292 0.167048
v 0.0978719 -0.222238 0.06406
v 0.247289 -0.483164 0.06406
v 0.247289 -0.48083 0.0686978
v 0.267888 -0.475376 0.06406
v 0.271232 -0.473697 0.06406
v 0.242435 -0.391538 0.167048
v 0.0978719 -0.222238 0.167048
v 0.335119 -0.222238 0.06406
v 0.242064 -0.370927 0.167048
v 0.212292 -0.222238 0.167048
v 0.331217 -0.222238 0.0677299
v 0.222626 -0.222238 0.160817
f 1077 1078 1079
f 1077 1079 1080
f 1077 1080 1081
f 1077 1081 1082
f 1077 1082 1083
f 1077 1083 1090
f 1077 1090 1084
f 1077 1084 1091
f 1077 1091 1088
f 1077 1088 1087
f 1077 1087 1085
f 1077 1085 1078
f 1078 1085 1086
f 1078 1086 1079
f 1079 1086 1087
f 1079 1087 1088
f 1079 1088 1089
f 1079 1089 1092
f 1079 1092 1093
f 1079 1093 1090
f 1079 1090 1083
f 1079 1083 1082
f 1079 1082 1081
f 1079 1081 1080
f 1084 1090 1093
f 1084 1093 1095
f 1084 1095 1094
f 1084 1094 1091
f 1085 1087 1086
f 1088 1091 1089
f 1089 1091 1092
f 1091 1094 1092
f 1092 1094 1095
f 1092 1095 1093
o convex_11
v 0.0978719 -0.123567 0.257647
v 0.0978719 -0.247283 0.223455
v 0.0978719 -0.123567 0.145639
v 0.061818 -0.123567 0.257647
v -0.164836 -0.164874 0.267904
v -0.103059 -0.18549 0.267904
v -0.0927701 -0.216386 0.262746
v 0.0205778 -0.274771 0.212947
v 0.0978719 -0.274082 0.204533
v 0.0978719 -0.313805 0.145639
v -0.106698 -0.123567 0.145639
v 0.0412816 -0.123567 0.255098
v -0.247275 -0.12366 0.226686
v -0.254134 -0.130532 0.240425
v -0.233556 -0.15113 0.261034
v -0.226654 -0.164874 0.267904
v -0.185456 -0.18549 0.267904
v -0.195745 -0.195789 0.262746
v -0.0927701 -0.221526 0.257599
v 0.0978719 -0.309112 0.159701
v 0.0978719 -0.30738 0.163148
v 0.0927273 -0.283356 0.195785
v 0.0978719 -0.27667 0.201948
v -0.164836 -0.274771 0.171741
v -0.185456 -0.281624 0.158002
v -0.185456 -0.287807 0.145639
v -0.307044 -0.143569 0.145639
v -0.298804 -0.1288 0.175176
v -0.288473 -0.12366 0.18548
v -0.0979983 -0.123567 0.167373
v -0.0206206 -0.123567 0.237038
v -0.267895 -0.12366 0.206089
v -0.270446 -0.1288 0.226686
v -0.041157 -0.123567 0.22683
v -0.0413244 -0.123567 0.226734
v -0.0618608 -0.123567 0.213868
v -0.26275 -0.133959 0.23699
v -0.244681 -0.144258 0.252441
v -0.24213 -0.154575 0.257599
v -0.254134 -0.164874 0.254165
v -0.240415 -0.164874 0.261034
v -0.236985 -0.175173 0.262746
v -0.206076 -0.283356 0.146836
v -0.195745 -0.278197 0.159713
v -0.196498 -0.28574 0.145639
v -0.309218 -0.144127 0.145639
v -0.322059 -0.150534 0.145639
v -0.302234 -0.130532 0.18548
v -0.291066 -0.1288 0.206089
v -0.0756215 -0.123567 0.199255
v -0.0876673 -0.123567 0.182979
v -0.0979146 -0.123567 0.167528
v -0.274754 -0.144258 0.233556
v -0.247275 -0.180331 0.249868
v -0.295374 -0.164874 0.212947
v -0.20708 -0.283226 0.145639
v -0.206076 -0.283617 0.145639
v -0.319382 -0.195789 0.159713
v -0.322854 -0.199215 0.151132
v -0.323063 -0.151595 0.145639
v -0.303948 -0.133959 0.195785
v -0.324569 -0.154575 0.154567
v -0.295374 -0.144258 0.212947
v -0.267895 -0.180331 0.229259
v -0.324569 -0.18549 0.167445
v -0.316831 -0.164874 0.18548
v -0.324569 -0.175173 0.175176
v -0.309093 -0.180331 0.188053
v -0.314865 -0.206199 0.145639
v -0.32942 -0.18549 0.145639
v -0.328333 -0.188246 0.145639
v -0.322854 -0.199215 0.145639
v -0.329002 -0.163496 0.145639
v -0.329169 -0.164874 0.145639
f 1096 1097 1104
f 1096 1104 1118
f 1096 1118 1116
f 1096 1116 1115
f 1096 1115 1105
f 1096 1105 1098
f 1096 1098 1106
f 1096 1106 1125
f 1096 1125 1147
f 1096 1147 1146
f 1096 1146 1145
f 1096 1145 1131
f 1096 1131 1130
f 1096 1130 1129
f 1096 1129 1126
f 1096 1126 1107
f 1096 1107 1099
f 1096 1099 1111
f 1096 1111 1100
f 1096 1100 1101
f 1096 1101 1102
f 1096 1102 1097
f 1097 1103 1104
f 1097 1102 1103
f 1098 1105 1121
f 1098 1121 1140
f 1098 1140 1152
f 1098 1152 1151
f 1098 1151 1164
f 1098 1164 1167
f 1098 1167 1166
f 1098 1166 1165
f 1098 1165 1169
f 1098 1169 1168
f 1098 1168 1155
f 1098 1155 1142
f 1098 1142 1141
f 1098 1141 1122
f 1098 1122 1106
f 1099 1107 1108
f 1099 1108 1109
f 1099 1109 1110
f 1099 1110 1111
f 1100 1111 1112
f 1100 1112 1101
f 1101 1112 1102
f 1102 1112 1113
f 1102 1113 1114
f 1102 1114 1103
f 1103 1115 1116
f 1103 1116 1117
f 1103 1117 1118
f 1103 1118 1104
f 1103 1114 1119
f 1103 1119 1120
f 1103 1120 1121
f 1103 1121 1115
f 1105 1115 1121
f 1106 1122 1123
f 1106 1123 1124
f 1106 1124 1125
f 1107 1126 1108
f 1108 1127 1144
f 1108 1144 1128
f 1108 1128 1109
f 1108 1126 1129
f 1108 1129 1130
f 1108 1130 1131
f 1108 1131 1127
f 1109 1128 1132
f 1109 1132 1133
f 1109 1133 1110
f 1110 1133 1134
f 1110 1134 1135
f 1110 1135 1136
f 1110 1136 1111
f 1111 1136 1137
f 1111 1137 1112
f 1112 1137 1113
f 1113 1137 1138
f 1113 1138 1139
f 1113 1139 1114
f 1114 1139 1120
f 1114 1120 1119
f 1116 1118 1117
f 1120 1139 1138
f 1120 1138 1121
f 1121 1138 1140
f 1122 1141 1123
f 1123 1141 1142
f 1123 1142 1143
f 1123 1143 1124
f 1124 1143 1144
f 1124 1144 1127
f 1124 1127 1131
f 1124 1131 1145
f 1124 1145 1146
f 1124 1146 1147
f 1124 1147 1125
f 1128 1144 1148
f 1128 1148 1132
f 1132 1148 1133
f 1133 1148 1135
f 1133 1135 1134
f 1135 1149 1137
f 1135 1137 1136
f 1135 1148 1158
f 1135 1158 1150
f 1135 1150 1159
f 1135 1159 1149
f 1137 1149 1138
f 1138 1151 1152
f 1138 1152 1140
f 1138 1149 1153
f 1138 1153 1154
f 1138 1154 1151
f 1142 1155 1143
f 1143 1156 1144
f 1143 1155 1157
f 1143 1157 1156
f 1144 1156 1158
f 1144 1158 1148
f 1149 1159 1160
f 1149 1160 1153
f 1150 1158 1161
f 1150 1161 1162
f 1150 1162 1163
f 1150 1163 1159
f 1151 1154 1164
f 1153 1160 1154
f 1154 1160 1165
f 1154 1165 1166
f 1154 1166 1167
f 1154 1167 1164
f 1155 1168 1157
f 1156 1157 1162
f 1156 1162 1161
f 1156 1161 1158
f 1157 1168 1162
f 1159 1163 1160
f 1160 1162 1165
f 1160 1163 1162
f 1162 1168 1169
f 1162 1169 1165
o convex_12
v 0.0978719 -0.123584 0.145639
v 0.0978719 -0.31377 0.145639
v 0.0978719 -0.123584 0.121113
v -0.10672 -0.123584 0.145639
v 0.0206059 -0.453358 0.0824346
v 0.0978719 -0.453358 0.0824346
v -0.185451 -0.287826 0.145639
v 0.0978719 -0.142567 0.101322
v 0.082427 -0.1374 0.0961712
v 0.082427 -0.123584 0.11339
v -0.123629 -0.123584 0.131431
v -0.307042 -0.143572 0.145639
v 0.0102675 -0.463657 0.0772834
v 0.00666792 -0.490139 0.0640579
v 0.0978719 -0.490139 0.0640579
v -0.1965 -0.28578 0.145639
v -0.0146786 -0.488632 0.0640579
v 0.0978719 -0.163165 0.0807096
v 0.082427 -0.157997 0.0755663
v -0.0298304 -0.123584 0.0640819
v -0.123713 -0.123584 0.131343
v -0.309093 -0.14429 0.144249
v -0.309218 -0.144146 0.145639
v -0.137358 -0.123584 0.116824
v -0.149454 -0.123584 0.100444
v -0.149496 -0.123584 0.100308
v -0.160002 -0.123584 0.0640579
v 0.0978719 -0.18875 0.0640579
v -0.206044 -0.283627 0.145639
v -0.207048 -0.283268 0.145639
v -0.278203 -0.257611 0.118493
v -0.281635 -0.261056 0.109908
v -0.295364 -0.254166 0.0961712
v -0.257568 -0.257611 0.0640579
v 0.0978719 -0.170054 0.0746878
v 0.0927236 -0.175186 0.066981
v 0.0903796 -0.177518 0.0640579
v -0.0298304 -0.123656 0.0640579
v -0.031965 -0.123584 0.0640579
v -0.319389 -0.149421 0.133947
v -0.322068 -0.150533 0.145639
v -0.254889 -0.22022 0.0640579
v -0.302228 -0.199228 0.0893029
v -0.298796 -0.190652 0.0927371
v 0.0978719 -0.185484 0.0656792
v 0.0956953 -0.185484 0.0640579
v -0.314869 -0.206225 0.145639
v -0.322821 -0.199228 0.145639
v -0.302228 -0.240459 0.109908
v -0.309093 -0.226715 0.103048
v -0.298796 -0.237014 0.0927371
v -0.262842 -0.247779 0.0640579
v 0.0978719 -0.180317 0.0682668
v -0.322821 -0.157997 0.130513
v -0.329728 -0.164887 0.144249
v -0.322821 -0.151143 0.144249
v -0.323073 -0.15161 0.145639
v -0.262005 -0.232959 0.0640579
v -0.263009 -0.247312 0.0640579
v -0.302228 -0.219825 0.0893029
v -0.312525 -0.209527 0.0996054
v -0.319389 -0.180353 0.113342
v -0.328305 -0.188247 0.145639
v -0.329728 -0.185484 0.144249
v -0.324538 -0.182901 0.123644
v -0.329393 -0.185484 0.145639
v -0.329184 -0.164887 0.145639
v -0.329016 -0.163487 0.145639
v -0.319389 -0.195783 0.113342
f 1170 1171 1175
f 1170 1175 1184
f 1170 1184 1197
f 1170 1197 1214
f 1170 1214 1222
f 1170 1222 1204
f 1170 1204 1187
f 1170 1187 1177
f 1170 1177 1172
f 1170 1172 1179
f 1170 1179 1189
f 1170 1189 1208
f 1170 1208 1196
f 1170 1196 1195
f 1170 1195 1194
f 1170 1194 1193
f 1170 1193 1190
f 1170 1190 1180
f 1170 1180 1173
f 1170 1173 1181
f 1170 1181 1192
f 1170 1192 1210
f 1170 1210 1226
f 1170 1226 1237
f 1170 1237 1236
f 1170 1236 1235
f 1170 1235 1232
f 1170 1232 1217
f 1170 1217 1216
f 1170 1216 1199
f 1170 1199 1198
f 1170 1198 1185
f 1170 1185 1176
f 1170 1176 1171
f 1171 1174 1175
f 1171 1176 1174
f 1172 1177 1178
f 1172 1178 1179
f 1173 1180 1181
f 1174 1182 1183
f 1174 1183 1184
f 1174 1184 1175
f 1174 1176 1182
f 1176 1185 1186
f 1176 1186 1182
f 1177 1187 1178
f 1178 1187 1188
f 1178 1188 1189
f 1178 1189 1179
f 1180 1190 1181
f 1181 1191 1192
f 1181 1190 1193
f 1181 1193 1194
f 1181 1194 1195
f 1181 1195 1196
f 1181 1196 1191
f 1182 1186 1183
f 1183 1186 1203
f 1183 1203 1221
f 1183 1221 1228
f 1183 1228 1227
f 1183 1227 1211
f 1183 1211 1196
f 1183 1196 1208
f 1183 1208 1207
f 1183 1207 1206
f 1183 1206 1215
f 1183 1215 1197
f 1183 1197 1184
f 1185 1198 1186
f 1186 1198 1199
f 1186 1199 1200
f 1186 1200 1201
f 1186 1201 1202
f 1186 1202 1203
f 1187 1204 1205
f 1187 1205 1188
f 1188 1205 1206
f 1188 1206 1189
f 1189 1207 1208
f 1189 1206 1207
f 1191 1196 1209
f 1191 1209 1192
f 1192 1209 1210
f 1196 1211 1212
f 1196 1212 1213
f 1196 1213 1209
f 1197 1215 1214
f 1199 1216 1200
f 1200 1216 1201
f 1201 1216 1217
f 1201 1217 1218
f 1201 1218 1202
f 1202 1218 1219
f 1202 1219 1220
f 1202 1220 1221
f 1202 1221 1203
f 1204 1222 1205
f 1205 1222 1214
f 1205 1214 1206
f 1206 1214 1215
f 1209 1213 1212
f 1209 1212 1223
f 1209 1223 1224
f 1209 1224 1225
f 1209 1225 1210
f 1210 1225 1226
f 1211 1227 1212
f 1212 1227 1228
f 1212 1228 1229
f 1212 1229 1230
f 1212 1230 1231
f 1212 1231 1223
f 1217 1232 1233
f 1217 1233 1218
f 1218 1233 1219
f 1219 1233 1230
f 1219 1230 1220
f 1220 1230 1229
f 1220 1229 1221
f 1221 1229 1228
f 1223 1234 1224
f 1223 1231 1234
f 1224 1233 1235
f 1224 1235 1236
f 1224 1236 1237
f 1224 1237 1226
f 1224 1226 1225
f 1224 1234 1233
f 1230 1233 1238
f 1230 1238 1234
f 1230 1234 1231
f 1232 1235 1233
f 1233 1234 1238
o convex_13
v 0.370935 0.0836538 0.06405
v 0.370935 0.0836538 -0.160641
v 0.288723 0.0836538 0.06405
v 0.370935 -0.0824882 0.06405
v 0.296959 0.0836538 -0.160641
v 0.370935 -0.206158 -0.160641
v 0.288512 0.0836538 0.0631042
v 0.280964 -0.0843619 0.06405
v 0.349215 -0.186639 0.06405
v 0.322862 -0.522046 0.0137277
v 0.343464 -0.563269 -0.027489
v 0.350334 -0.556399 -0.0412353
v 0.370935 -0.638845 -0.123647
v 0.288512 0.0836538 0.0411982
v 0.290626 -0.0164374 -0.160641
v 0.365791 -0.649151 -0.13394
v 0.364074 -0.638845 -0.137371
v 0.350334 -0.473952 -0.160641
v 0.280964 -0.0909982 0.0570119
v 0.280964 -0.299222 0.06405
v 0.344899 -0.20608 0.06405
v 0.281651 -0.480823 0.0549445
v 0.319427 -0.54094 0.0102966
v 0.344062 -0.209281 0.06405
v 0.340029 -0.571857 -0.0309201
v 0.345181 -0.579587 -0.0412353
v 0.364074 -0.645715 -0.109901
v 0.364074 -0.652586 -0.123647
v 0.280964 -0.108018 0.042012
v 0.280964 -0.102085 0.0459929
v 0.280964 -0.436945 -0.160641
v 0.280964 -0.713796 -0.160641
v 0.281994 -0.712079 -0.160641
v 0.287464 -0.701148 -0.160641
v 0.350334 -0.638845 -0.144255
v 0.329723 -0.572794 -0.160641
v 0.280964 -0.480354 0.0555383
v 0.329723 -0.231454 0.06405
v 0.298817 -0.520328 0.030905
v 0.298817 -0.546093 0.0154432
v 0.280964 -0.683816 -0.0982437
v 0.360639 -0.654226 -0.113332
v 0.33307 -0.226457 0.06405
v 0.280964 -0.712313 -0.156814
v 0.309545 -0.639235 -0.160641
v 0.328667 -0.577479 -0.160641
v 0.280964 -0.523373 0.0360516
v 0.288512 -0.517752 0.0360516
v 0.280964 -0.704427 -0.13946
v 0.280964 -0.70919 -0.149028
f 1239 1240 1243
f 1239 1243 1252
f 1239 1252 1245
f 1239 1245 1241
f 1239 1241 1246
f 1239 1246 1258
f 1239 1258 1276
f 1239 1276 1281
f 1239 1281 1262
f 1239 1262 1259
f 1239 1259 1247
f 1239 1247 1242
f 1239 1242 1251
f 1239 1251 1244
f 1239 1244 1240
f 1240 1244 1256
f 1240 1256 1274
f 1240 1274 1284
f 1240 1284 1283
f 1240 1283 1272
f 1240 1272 1271
f 1240 1271 1270
f 1240 1270 1269
f 1240 1269 1253
f 1240 1253 1243
f 1241 1245 1246
f 1242 1247 1248
f 1242 1248 1249
f 1242 1249 1250
f 1242 1250 1251
f 1243 1253 1252
f 1244 1251 1254
f 1244 1254 1255
f 1244 1255 1256
f 1245 1252 1246
f 1246 1252 1253
f 1246 1253 1257
f 1246 1257 1268
f 1246 1268 1267
f 1246 1267 1269
f 1246 1269 1270
f 1246 1270 1282
f 1246 1282 1288
f 1246 1288 1287
f 1246 1287 1279
f 1246 1279 1285
f 1246 1285 1275
f 1246 1275 1258
f 1247 1259 1248
f 1248 1260 1261
f 1248 1261 1249
f 1248 1259 1262
f 1248 1262 1260
f 1249 1261 1263
f 1249 1263 1264
f 1249 1264 1265
f 1249 1265 1250
f 1250 1265 1251
f 1251 1265 1266
f 1251 1266 1254
f 1253 1267 1268
f 1253 1268 1257
f 1253 1269 1267
f 1254 1266 1270
f 1254 1270 1271
f 1254 1271 1272
f 1254 1272 1255
f 1255 1272 1273
f 1255 1273 1256
f 1256 1273 1274
f 1258 1275 1276
f 1260 1275 1277
f 1260 1277 1261
f 1260 1262 1275
f 1261 1277 1278
f 1261 1278 1279
f 1261 1279 1280
f 1261 1280 1263
f 1262 1281 1275
f 1263 1280 1264
f 1264 1280 1265
f 1265 1280 1266
f 1266 1280 1270
f 1270 1280 1282
f 1272 1283 1273
f 1273 1283 1284
f 1273 1284 1274
f 1275 1285 1286
f 1275 1286 1277
f 1275 1281 1276
f 1277 1286 1285
f 1277 1285 1278
f 1278 1285 1279
f 1279 1287 1280
f 1280 1287 1288
f 1280 1288 1282
o convex_14
v 0.280944 -0.0843464 0.06405
v 0.280944 -0.0910247 0.0570119
v 0.0739389 -0.182662 0.0544386
v 0.0739389 -0.177167 0.060289
v 0.0739389 -0.174631 0.0630162
v 0.0739389 -0.174124 0.06405
v 0.280944 -0.299237 0.06405
v 0.280944 -0.102099 0.0459929
v 0.280944 -0.108016 0.042012
v 0.280944 -0.437031 -0.160641
v 0.0739389 -0.19399 0.0477084
v 0.0739389 -0.490204 0.06405
v 0.271237 -0.47372 0.06405
v 0.280944 -0.480398 0.0555383
v 0.263678 -0.446753 -0.160641
v 0.280944 -0.713802 -0.160641
v 0.241833 -0.464336 -0.160641
v 0.0739389 -0.611683 -0.160641
v 0.144258 -0.490204 0.06405
v 0.0739389 -0.535769 0.0618066
v 0.267893 -0.47541 0.06405
v 0.0824501 -0.886087 0.0205898
v 0.144258 -0.844918 0.0205898
v 0.157997 -0.851765 0.0137277
v 0.178586 -0.810511 0.0137277
v 0.280944 -0.523427 0.0360516
v 0.280944 -0.71228 -0.156814
v 0.267893 -0.741868 -0.144255
v 0.267893 -0.741868 -0.160641
v 0.0739389 -0.947967 -0.160641
v 0.247284 -0.483188 0.06405
v 0.103059 -0.535769 0.0618066
v 0.0739389 -0.886087 0.0205898
v 0.0739389 -0.895639 0.0184784
v 0.103059 -0.888707 0.0154432
v 0.113354 -0.891243 0.0102966
v 0.154572 -0.860303 0.0102966
v 0.175182 -0.870617 -0.0309201
v 0.195771 -0.829447 -0.0309201
v 0.21638 -0.788194 -0.0309201
v 0.257599 -0.705771 -0.0515065
v 0.262746 -0.703235 -0.0618217
v 0.280944 -0.683792 -0.0982437
v 0.280944 -0.709153 -0.149028
v 0.267893 -0.721241 -0.103038
v 0.242137 -0.785658 -0.103038
v 0.247284 -0.783037 -0.123647
v 0.240414 -0.796817 -0.123647
v 0.228093 -0.821501 -0.160641
v 0.280944 -0.704419 -0.13946
v 0.280944 -0.68861 -0.107811
v 0.0824501 -0.947967 -0.160641
v 0.0739389 -0.947967 -0.0618217
v 0.0739389 -0.903755 0.0144315
v 0.0739389 -0.909757 0.0108905
v 0.0927446 -0.901557 0.0102966
v 0.133963 -0.91187 -0.0309201
v 0.171737 -0.892934 -0.0618217
v 0.180309 -0.86808 -0.0412353
v 0.221527 -0.806285 -0.0618217
v 0.21638 -0.808821 -0.0515065
v 0.257599 -0.726398 -0.0721148
v 0.262746 -0.723777 -0.08243
v 0.221527 -0.826827 -0.103038
v 0.212935 -0.851765 -0.123647
v 0.214354 -0.848975 -0.160641
v 0.140205 -0.919056 -0.160641
v 0.133963 -0.922184 -0.0515065
v 0.0824501 -0.947967 -0.0618217
v 0.0927446 -0.94281 -0.0515065
v 0.0739389 -0.943909 -0.0537279
v 0.0739389 -0.912293 0.00847115
v 0.113354 -0.922184 -0.0309201
v 0.103059 -0.935033 -0.0412353
v 0.151127 -0.913561 -0.0618217
v 0.192326 -0.872392 -0.103038
v 0.212935 -0.851765 -0.160641
v 0.151127 -0.913561 -0.160641
v 0.0824501 -0.934188 -0.0343512
v 0.0739389 -0.934188 -0.0343512
v 0.192326 -0.872392 -0.160641
f 1289 1290 1291
f 1289 1291 1292
f 1289 1292 1293
f 1289 1293 1294
f 1289 1294 1300
f 1289 1300 1307
f 1289 1307 1319
f 1289 1319 1309
f 1289 1309 1301
f 1289 1301 1295
f 1289 1295 1302
f 1289 1302 1314
f 1289 1314 1331
f 1289 1331 1339
f 1289 1339 1338
f 1289 1338 1332
f 1289 1332 1315
f 1289 1315 1304
f 1289 1304 1298
f 1289 1298 1297
f 1289 1297 1296
f 1289 1296 1290
f 1290 1296 1291
f 1291 1296 1297
f 1291 1297 1298
f 1291 1298 1299
f 1291 1299 1306
f 1291 1306 1318
f 1291 1318 1341
f 1291 1341 1359
f 1291 1359 1368
f 1291 1368 1360
f 1291 1360 1343
f 1291 1343 1342
f 1291 1342 1322
f 1291 1322 1321
f 1291 1321 1308
f 1291 1308 1300
f 1291 1300 1294
f 1291 1294 1293
f 1291 1293 1292
f 1295 1301 1302
f 1298 1303 1299
f 1298 1304 1317
f 1298 1317 1337
f 1298 1337 1354
f 1298 1354 1365
f 1298 1365 1369
f 1298 1369 1366
f 1298 1366 1355
f 1298 1355 1340
f 1298 1340 1318
f 1298 1318 1306
f 1298 1306 1305
f 1298 1305 1303
f 1299 1303 1305
f 1299 1305 1306
f 1300 1308 1320
f 1300 1320 1307
f 1301 1309 1310
f 1301 1310 1311
f 1301 1311 1312
f 1301 1312 1302
f 1302 1312 1313
f 1302 1313 1314
f 1304 1315 1316
f 1304 1316 1317
f 1307 1320 1319
f 1308 1321 1310
f 1308 1310 1320
f 1309 1319 1310
f 1310 1321 1322
f 1310 1322 1323
f 1310 1323 1311
f 1310 1319 1320
f 1311 1323 1312
f 1312 1323 1324
f 1312 1324 1325
f 1312 1325 1326
f 1312 1326 1327
f 1312 1327 1328
f 1312 1328 1313
f 1313 1328 1314
f 1314 1328 1329
f 1314 1329 1330
f 1314 1330 1331
f 1315 1332 1316
f 1316 1333 1334
f 1316 1334 1335
f 1316 1335 1336
f 1316 1336 1337
f 1316 1337 1317
f 1316 1332 1338
f 1316 1338 1339
f 1316 1339 1333
f 1318 1340 1357
f 1318 1357 1341
f 1322 1342 1323
f 1323 1342 1343
f 1323 1343 1344
f 1323 1344 1324
f 1324 1344 1361
f 1324 1361 1345
f 1324 1345 1325
f 1325 1345 1326
f 1326 1345 1363
f 1326 1363 1346
f 1326 1346 1347
f 1326 1347 1348
f 1326 1348 1349
f 1326 1349 1327
f 1327 1349 1328
f 1328 1349 1329
f 1329 1349 1348
f 1329 1348 1330
f 1330 1348 1350
f 1330 1350 1351
f 1330 1351 1331
f 1331 1351 1333
f 1331 1333 1339
f 1333 1351 1334
f 1334 1336 1335
f 1334 1351 1348
f 1334 1348 1352
f 1334 1352 1353
f 1334 1353 1336
f 1336 1353 1354
f 1336 1354 1337
f 1340 1355 1356
f 1340 1356 1357
f 1341 1357 1358
f 1341 1358 1359
f 1343 1360 1344
f 1344 1360 1361
f 1345 1361 1362
f 1345 1362 1356
f 1345 1356 1363
f 1346 1364 1353
f 1346 1353 1347
f 1346 1363 1364
f 1347 1353 1352
f 1347 1352 1348
f 1348 1351 1350
f 1353 1364 1369
f 1353 1369 1365
f 1353 1365 1354
f 1355 1366 1363
f 1355 1363 1356
f 1356 1362 1358
f 1356 1358 1357
f 1358 1362 1360
f 1358 1360 1367
f 1358 1367 1368
f 1358 1368 1359
f 1360 1368 1367
f 1360 1362 1361
f 1363 1366 1369
f 1363 1369 1364
o convex_15
v -0.296704 -0.43278 -0.160641
v -0.267897 -0.391565 -0.08243
v -0.296704 -0.385118 -0.160641
v -0.286364 -0.535817 -0.160641
v -0.288505 -0.473995 -0.144255
v -0.242138 -0.607943 -0.0309201
v -0.258863 -0.385118 -0.064351
v -0.267897 -0.385118 -0.08243
v -0.154738 -0.385118 -0.160641
v -0.267897 -0.675827 -0.160641
v -0.267897 -0.659462 -0.144255
v -0.24729 -0.700622 -0.08243
v -0.226682 -0.72123 -0.0412353
v -0.219789 -0.72123 -0.027489
v -0.216379 -0.731533 -0.0257735
v -0.236986 -0.607943 -0.0257735
v -0.240397 -0.51521 -0.027489
v -0.242138 -0.566728 -0.0309201
v -0.24729 -0.385118 -0.0412353
v 0.0739388 -0.385118 -0.0282808
v 0.0739388 -0.387542 -0.0299743
v -0.0618596 -0.391565 -0.110758
v 0.0739388 -0.611745 -0.160641
v -0.266954 -0.680015 -0.160641
v -0.24729 -0.741837 -0.123647
v -0.242138 -0.72123 -0.0798347
v -0.221531 -0.741837 -0.03864
v -0.195771 -0.793356 -0.0257735
v -0.154557 -0.855178 -0.00516513
v -0.0927707 -0.422476 0.05666
v -0.0828661 -0.385118 0.06405
v -0.123645 -0.385118 0.0436395
v -0.133042 -0.385118 0.0389328
v -0.240397 -0.385118 -0.027489
v 0.0739388 -0.385118 0.06405
v 0.0739388 -0.947967 -0.160641
v -0.24729 -0.741837 -0.160641
v -0.242138 -0.741837 -0.100443
v -0.23909 -0.758257 -0.160641
v -0.206075 -0.824267 -0.08243
v -0.221531 -0.762445 -0.0592264
v -0.200923 -0.80366 -0.03864
v -0.195771 -0.813963 -0.0360667
v -0.175164 -0.855178 -0.0360667
v -0.157967 -0.85865 -0.0137428
v -0.133949 -0.875786 -0.00516513
v -0.144253 -0.844875 -1.85331e-05
v -0.082467 -0.412172 0.0618066
v -0.076517 -0.412172 0.06405
v 0.0739388 -0.490194 0.06405
v 0.0739388 -0.947967 -0.0618217
v -0.0412522 -0.947967 -0.160641
v -0.200923 -0.824267 -0.0592264
v -0.197876 -0.840687 -0.160641
v -0.185468 -0.865482 -0.103038
v -0.199182 -0.838042 -0.0755459
v -0.195771 -0.834571 -0.0566531
v -0.175164 -0.875786 -0.0772614
v -0.133949 -0.896393 -0.0360667
v -0.13736 -0.879257 -0.0137428
v -0.123645 -0.865482 -1.85331e-05
v -0.113342 -0.896393 -0.0154583
v -0.0927707 -0.896393 -0.00516513
v 0.0103026 -0.917001 0.0154432
v -0.082467 -0.80366 0.0205898
v -0.103074 -0.762445 0.0205898
v -0.0412522 -0.494602 0.0618066
v -0.0559096 -0.447491 0.06405
v 0.00667454 -0.490194 0.06405
v 0.0739388 -0.535817 0.0618066
v 0.0739388 -0.937057 -0.0400256
v 0.0515174 -0.92218 0.0102966
v 0.0412137 -0.927304 -1.85331e-05
v -0.0206085 -0.947967 -0.0618217
v -0.0412522 -0.947967 -0.08243
v -0.103074 -0.927304 -0.160641
v -0.192325 -0.851762 -0.160641
v -0.171717 -0.892977 -0.109901
v -0.178574 -0.879257 -0.0961543
v -0.154557 -0.896393 -0.0772614
v -0.113342 -0.917001 -0.0566531
v -0.0927707 -0.917001 -0.0360667
v -0.0412522 -0.844875 0.0205898
v 0.0206063 -0.906697 0.0205898
v -0.0721633 -0.917001 -0.0154583
v -0.0515559 -0.917001 -0.00516513
v 0.0206063 -0.920472 0.0137277
v -0.0206085 -0.51521 0.0618066
v -0.0146948 -0.488706 0.06405
v 0.0206063 -0.535817 0.0618066
v 0.0412137 -0.906697 0.0205898
v 0.0739388 -0.88609 0.0205898
v 0.0739388 -0.934192 -0.0343512
v 0.0206063 -0.927304 -1.85331e-05
v 0.0739388 -0.912317 0.00847115
v 0.0721248 -0.911876 0.0102966
v 0.0618211 -0.909287 0.0154432
v 0.0412137 -0.920472 0.0137277
v -0.0412522 -0.942788 -0.0592264
v -0.0412522 -0.927304 -0.0206269
v -0.0618596 -0.92218 -0.0180536
v -0.103074 -0.92218 -0.0592264
v -0.103074 -0.927304 -0.08243
v -0.119401 -0.91915 -0.160641
v -0.130503 -0.913585 -0.160641
v -0.157967 -0.899865 -0.0961543
v -0.116752 -0.920472 -0.0755459
v -0.0412522 -0.920472 -0.00688066
v 0.0739388 -0.895677 0.0184784
v 0.0739388 -0.909783 0.0108905
v 0.0739388 -0.903722 0.0144315
f 1370 1371 1377
f 1370 1377 1372
f 1370 1372 1378
f 1370 1378 1392
f 1370 1392 1405
f 1370 1405 1421
f 1370 1421 1445
f 1370 1445 1473
f 1370 1473 1474
f 1370 1474 1446
f 1370 1446 1423
f 1370 1423 1408
f 1370 1408 1406
f 1370 1406 1393
f 1370 1393 1379
f 1370 1379 1373
f 1370 1373 1374
f 1370 1374 1375
f 1370 1375 1371
f 1371 1376 1377
f 1371 1375 1376
f 1372 1377 1376
f 1372 1376 1388
f 1372 1388 1403
f 1372 1403 1402
f 1372 1402 1401
f 1372 1401 1400
f 1372 1400 1404
f 1372 1404 1389
f 1372 1389 1378
f 1373 1379 1380
f 1373 1380 1381
f 1373 1381 1374
f 1374 1381 1375
f 1375 1381 1382
f 1375 1382 1383
f 1375 1383 1384
f 1375 1384 1385
f 1375 1385 1386
f 1375 1386 1403
f 1375 1403 1387
f 1375 1387 1376
f 1376 1387 1388
f 1378 1389 1390
f 1378 1390 1391
f 1378 1391 1392
f 1379 1393 1394
f 1379 1394 1380
f 1380 1394 1381
f 1381 1394 1407
f 1381 1407 1395
f 1381 1395 1396
f 1381 1396 1382
f 1382 1396 1383
f 1383 1396 1384
f 1384 1396 1411
f 1384 1411 1412
f 1384 1412 1397
f 1384 1397 1398
f 1384 1398 1385
f 1385 1398 1399
f 1385 1399 1400
f 1385 1400 1401
f 1385 1401 1402
f 1385 1402 1386
f 1386 1402 1403
f 1387 1403 1388
f 1389 1404 1419
f 1389 1419 1439
f 1389 1439 1461
f 1389 1461 1478
f 1389 1478 1480
f 1389 1480 1479
f 1389 1479 1464
f 1389 1464 1462
f 1389 1462 1440
f 1389 1440 1420
f 1389 1420 1405
f 1389 1405 1392
f 1389 1392 1390
f 1390 1392 1391
f 1393 1406 1394
f 1394 1406 1408
f 1394 1408 1409
f 1394 1409 1422
f 1394 1422 1407
f 1395 1407 1422
f 1395 1422 1410
f 1395 1410 1396
f 1396 1410 1422
f 1396 1422 1411
f 1397 1412 1398
f 1398 1412 1413
f 1398 1413 1414
f 1398 1414 1429
f 1398 1429 1415
f 1398 1415 1430
f 1398 1430 1416
f 1398 1416 1400
f 1398 1400 1399
f 1400 1416 1417
f 1400 1417 1418
f 1400 1418 1437
f 1400 1437 1458
f 1400 1458 1438
f 1400 1438 1419
f 1400 1419 1404
f 1405 1420 1443
f 1405 1443 1444
f 1405 1444 1421
f 1408 1423 1409
f 1409 1423 1424
f 1409 1424 1447
f 1409 1447 1448
f 1409 1448 1425
f 1409 1425 1422
f 1411 1422 1426
f 1411 1426 1412
f 1412 1426 1413
f 1413 1427 1449
f 1413 1449 1428
f 1413 1428 1429
f 1413 1429 1414
f 1413 1426 1427
f 1415 1429 1431
f 1415 1431 1454
f 1415 1454 1432
f 1415 1432 1433
f 1415 1433 1453
f 1415 1453 1430
f 1416 1430 1452
f 1416 1452 1434
f 1416 1434 1435
f 1416 1435 1418
f 1416 1418 1417
f 1418 1436 1437
f 1418 1435 1434
f 1418 1434 1436
f 1419 1438 1459
f 1419 1459 1439
f 1420 1440 1441
f 1420 1441 1442
f 1420 1442 1463
f 1420 1463 1443
f 1421 1444 1472
f 1421 1472 1445
f 1422 1425 1426
f 1423 1446 1447
f 1423 1447 1424
f 1425 1448 1427
f 1425 1427 1426
f 1427 1448 1447
f 1427 1447 1449
f 1428 1431 1429
f 1428 1449 1450
f 1428 1450 1451
f 1428 1451 1454
f 1428 1454 1431
f 1430 1453 1452
f 1432 1454 1455
f 1432 1455 1433
f 1433 1455 1477
f 1433 1477 1456
f 1433 1456 1453
f 1434 1452 1436
f 1436 1457 1458
f 1436 1458 1437
f 1436 1452 1453
f 1436 1453 1457
f 1438 1458 1459
f 1439 1459 1453
f 1439 1453 1460
f 1439 1460 1461
f 1440 1462 1441
f 1441 1463 1442
f 1441 1462 1464
f 1441 1464 1465
f 1441 1465 1466
f 1441 1466 1467
f 1441 1467 1456
f 1441 1456 1463
f 1443 1468 1444
f 1443 1463 1469
f 1443 1469 1470
f 1443 1470 1468
f 1444 1468 1471
f 1444 1471 1472
f 1445 1472 1473
f 1446 1474 1447
f 1447 1474 1473
f 1447 1473 1475
f 1447 1475 1449
f 1449 1475 1476
f 1449 1476 1450
f 1450 1476 1471
f 1450 1471 1451
f 1451 1471 1454
f 1453 1456 1467
f 1453 1467 1460
f 1453 1459 1457
f 1454 1471 1470
f 1454 1470 1455
f 1455 1470 1477
f 1456 1477 1469
f 1456 1469 1463
f 1457 1459 1458
f 1460 1467 1466
f 1460 1466 1478
f 1460 1478 1461
f 1464 1479 1465
f 1465 1479 1466
f 1466 1479 1480
f 1466 1480 1478
f 1468 1470 1471
f 1469 1477 1470
f 1471 1476 1472
f 1472 1476 1473
f 1473 1476 1475
o convex_16
v -0.123023 0.0837318 0.0411982
v -0.123023 0.0837318 -0.0186694
v -0.128269 0.0837318 0.0555163
v -0.0317695 -0.115845 0.06405
v -0.123183 0.0837318 -0.0206269
v -0.087608 -0.0158182 0.06405
v -0.0603411 -0.0603223 0.06405
v -0.0523794 -0.0746323 0.06405
v -0.142781 0.0837318 0.0614327
v -0.029799 -0.123644 0.06405
v -0.184959 0.0837318 -0.160641
v -0.144272 0.0837318 0.0618066
v -0.148719 0.0573537 0.06405
v -0.0207722 -0.15992 0.06405
v -0.212732 -0.0866528 -0.160641
v -0.246789 0.0837318 -0.160641
v -0.164855 0.0837318 0.0618066
v -0.162619 0.0573537 0.06405
v -0.153246 -0.15992 0.06405
v -0.21915 -0.15992 -0.145883
v -0.215768 -0.0988163 -0.160641
v -0.247295 0.0824201 -0.160641
v -0.246789 0.0837318 -0.144255
v -0.177717 0.0837318 0.0553843
v -0.191803 0.0231051 0.06405
v -0.17801 0.0414934 0.06405
v -0.199525 -0.0562201 0.06405
v -0.212945 -0.123644 0.027474
v -0.21638 -0.154554 0.00515006
v -0.211001 -0.15992 0.00649169
v -0.234248 -0.15992 -0.160641
v -0.247295 0.0824201 -0.144255
v -0.25342 0.0660351 -0.160641
v -0.246629 0.0837318 -0.142935
v -0.178595 0.0837318 0.0549445
v -0.191457 0.0837318 0.0485002
v -0.192335 0.0824201 0.0480823
v -0.192362 0.0206008 0.06405
v -0.198886 -0.0434365 0.06405
v -0.206075 -5.61148e-06 0.0411982
v -0.286039 -0.15992 -0.139306
v -0.226685 -0.123644 -1.85331e-05
v -0.221519 -0.144251 0.00255477
v -0.220215 -0.15992 -0.00461528
v -0.218164 -0.15992 -0.00111823
v -0.292802 -0.15992 -0.160641
v -0.265775 0.0248223 -0.160641
v -0.262739 0.030904 -0.154548
v -0.247295 0.0618136 -0.123647
v -0.206075 0.0824201 0.0205898
v -0.20541 0.0837318 0.0218875
v -0.192389 0.0837318 0.0476425
v -0.200909 0.0102976 0.0515134
v -0.194652 -5.61148e-06 0.06405
v -0.286385 -0.078186 -0.160641
v -0.225434 -0.15992 -0.0150624
v -0.199418 0.0837318 0.0338962
f 1481 1482 1485
f 1481 1485 1491
f 1481 1491 1496
f 1481 1496 1503
f 1481 1503 1514
f 1481 1514 1531
f 1481 1531 1537
f 1481 1537 1532
f 1481 1532 1516
f 1481 1516 1515
f 1481 1515 1504
f 1481 1504 1497
f 1481 1497 1492
f 1481 1492 1489
f 1481 1489 1483
f 1481 1483 1484
f 1481 1484 1482
f 1482 1484 1485
f 1483 1486 1487
f 1483 1487 1488
f 1483 1488 1484
f 1483 1489 1486
f 1484 1488 1487
f 1484 1487 1486
f 1484 1486 1493
f 1484 1493 1498
f 1484 1498 1506
f 1484 1506 1505
f 1484 1505 1518
f 1484 1518 1534
f 1484 1534 1519
f 1484 1519 1507
f 1484 1507 1499
f 1484 1499 1494
f 1484 1494 1490
f 1484 1490 1491
f 1484 1491 1485
f 1486 1489 1492
f 1486 1492 1493
f 1490 1494 1491
f 1491 1494 1495
f 1491 1495 1501
f 1491 1501 1511
f 1491 1511 1526
f 1491 1526 1535
f 1491 1535 1527
f 1491 1527 1513
f 1491 1513 1502
f 1491 1502 1496
f 1492 1497 1498
f 1492 1498 1493
f 1494 1499 1510
f 1494 1510 1525
f 1494 1525 1524
f 1494 1524 1536
f 1494 1536 1521
f 1494 1521 1526
f 1494 1526 1511
f 1494 1511 1500
f 1494 1500 1501
f 1494 1501 1495
f 1496 1502 1512
f 1496 1512 1503
f 1497 1504 1505
f 1497 1505 1506
f 1497 1506 1498
f 1499 1507 1508
f 1499 1508 1509
f 1499 1509 1510
f 1500 1511 1501
f 1502 1513 1512
f 1503 1512 1514
f 1504 1515 1505
f 1505 1516 1517
f 1505 1517 1518
f 1505 1515 1516
f 1507 1519 1520
f 1507 1520 1521
f 1507 1521 1522
f 1507 1522 1508
f 1508 1522 1523
f 1508 1523 1509
f 1509 1523 1524
f 1509 1524 1525
f 1509 1525 1510
f 1512 1513 1527
f 1512 1527 1528
f 1512 1528 1529
f 1512 1529 1530
f 1512 1530 1514
f 1514 1530 1531
f 1516 1532 1517
f 1517 1532 1533
f 1517 1533 1518
f 1518 1533 1534
f 1519 1533 1520
f 1519 1534 1533
f 1520 1533 1530
f 1520 1530 1535
f 1520 1535 1521
f 1521 1535 1526
f 1521 1536 1523
f 1521 1523 1522
f 1523 1536 1524
f 1527 1535 1530
f 1527 1530 1528
f 1528 1530 1529
f 1530 1533 1531
f 1531 1533 1537
f 1532 1537 1533
o convex_17
v -0.0207816 -0.15992 0.06405
v -0.153258 -0.15992 0.06405
v 0.0239422 -0.163755 0.06405
v -0.21912 -0.15992 -0.145883
v -0.211023 -0.15992 0.00649169
v -0.253393 -0.219181 0.06405
v 0.0472457 -0.166487 0.06405
v -0.234232 -0.15992 -0.160641
v -0.218132 -0.15992 -0.00111823
v -0.254899 -0.220195 0.06405
v 0.0739388 -0.174069 0.06405
v -0.292797 -0.15992 -0.160641
v 0.0739388 -0.174575 0.0630162
v 0.0739388 -0.182641 0.0544386
v 0.0739388 -0.193969 0.0477084
v 0.0617928 -0.20609 0.0334783
v 0.0739388 -0.370936 -0.023794
v 0.0739388 -0.385041 -0.0282808
v -0.144267 -0.370936 -0.151975
v -0.15533 -0.381978 -0.160641
v -0.220203 -0.15992 -0.00461528
v -0.286018 -0.15992 -0.139306
v -0.283334 -0.23701 0.030905
v -0.296234 -0.247302 0.0205898
v -0.262008 -0.232955 0.06405
v -0.225429 -0.15992 -0.0150624
v 0.0739388 -0.385041 0.06405
v -0.294633 -0.164879 -0.160641
v -0.405266 -0.322849 -0.116763
v -0.407008 -0.319411 -0.113332
v 0.0739388 -0.20609 0.0425618
v -0.154765 -0.385041 -0.160641
v -0.398392 -0.329725 -0.0961543
v -0.262997 -0.247302 0.06405
v -0.295339 -0.267907 0.027474
v -0.0828772 -0.385041 0.06405
v -0.296657 -0.185484 -0.160641
v -0.381209 -0.340017 -0.139087
v -0.401829 -0.340017 -0.113332
v -0.405266 -0.329725 -0.109901
v -0.296657 -0.385041 -0.160641
v -0.401829 -0.340017 -0.108185
v -0.391519 -0.345174 -0.100443
v -0.377772 -0.329725 -0.0755459
v -0.262856 -0.247765 0.06405
v -0.278203 -0.278199 0.0360516
v -0.257583 -0.257616 0.06405
v -0.123694 -0.385041 0.0436395
v -0.388082 -0.346893 -0.120194
v -0.267893 -0.385041 -0.08243
v -0.370899 -0.345174 -0.0798347
v -0.265727 -0.385041 -0.0780972
v -0.258854 -0.385041 -0.064351
v -0.254146 -0.385041 -0.0549375
v -0.240399 -0.385041 -0.027489
v -0.360636 -0.340017 -0.0669682
v -0.133062 -0.385041 0.0389328
v -0.360636 -0.345174 -0.0721148
f 1538 1539 1543
f 1538 1543 1547
f 1538 1547 1562
f 1538 1562 1571
f 1538 1571 1582
f 1538 1582 1584
f 1538 1584 1573
f 1538 1573 1564
f 1538 1564 1548
f 1538 1548 1544
f 1538 1544 1540
f 1538 1540 1541
f 1538 1541 1545
f 1538 1545 1549
f 1538 1549 1559
f 1538 1559 1563
f 1538 1563 1558
f 1538 1558 1546
f 1538 1546 1542
f 1538 1542 1539
f 1539 1542 1543
f 1540 1544 1541
f 1541 1544 1545
f 1542 1546 1543
f 1543 1546 1547
f 1544 1548 1545
f 1545 1548 1550
f 1545 1550 1551
f 1545 1551 1552
f 1545 1552 1553
f 1545 1553 1554
f 1545 1554 1555
f 1545 1555 1556
f 1545 1556 1557
f 1545 1557 1569
f 1545 1569 1578
f 1545 1578 1574
f 1545 1574 1565
f 1545 1565 1549
f 1546 1558 1547
f 1547 1559 1560
f 1547 1560 1561
f 1547 1561 1562
f 1547 1558 1563
f 1547 1563 1559
f 1548 1564 1555
f 1548 1555 1554
f 1548 1554 1568
f 1548 1568 1552
f 1548 1552 1551
f 1548 1551 1550
f 1549 1565 1566
f 1549 1566 1567
f 1549 1567 1559
f 1552 1568 1553
f 1553 1568 1554
f 1555 1564 1573
f 1555 1573 1585
f 1555 1585 1594
f 1555 1594 1592
f 1555 1592 1591
f 1555 1591 1590
f 1555 1590 1589
f 1555 1589 1587
f 1555 1587 1578
f 1555 1578 1569
f 1555 1569 1557
f 1555 1557 1556
f 1559 1567 1561
f 1559 1561 1560
f 1561 1567 1570
f 1561 1570 1562
f 1562 1570 1572
f 1562 1572 1571
f 1565 1574 1575
f 1565 1575 1566
f 1566 1575 1576
f 1566 1576 1567
f 1567 1576 1577
f 1567 1577 1570
f 1570 1577 1579
f 1570 1579 1580
f 1570 1580 1588
f 1570 1588 1581
f 1570 1581 1572
f 1571 1572 1582
f 1572 1581 1593
f 1572 1593 1583
f 1572 1583 1584
f 1572 1584 1582
f 1573 1584 1585
f 1574 1578 1575
f 1575 1586 1576
f 1575 1578 1586
f 1576 1579 1577
f 1576 1586 1580
f 1576 1580 1579
f 1578 1587 1580
f 1578 1580 1586
f 1580 1587 1589
f 1580 1589 1590
f 1580 1590 1591
f 1580 1591 1592
f 1580 1592 1588
f 1581 1588 1593
f 1583 1593 1592
f 1583 1592 1594
f 1583 1594 1584
f 1584 1594 1585
f 1588 1595 1593
f 1588 1592 1595
f 1592 1593 1595
