# https://github.com/mikedh/trimesh
v -0.22879000 -0.19065700 -0.85795400
v -0.32410800 -0.17155600 -0.85795400
v -0.31774700 -0.16521500 -0.87063500
v -0.22246100 -0.18427700 -0.87063500
v -0.11030700 -0.19065700 -0.85795400
v -0.22879000 -0.19065700 -0.09536620
v -0.40037600 -0.15249400 -0.85795400
v -0.32410800 -0.17155600 -0.01909830
v -0.39401500 -0.14615200 -0.87063500
v -0.32410800 -0.15249400 -0.87702100
v -0.11030700 -0.17973700 -0.87291600
v -0.11030700 -0.18427700 -0.87063500
v -0.22879000 -0.17155600 -0.87702100
v -0.11030700 -0.19065700 -0.09536620
v -0.42578800 -0.13981000 -0.86424900
v -0.40037600 -0.15249400 0.01903570
v -0.11030700 -0.17155600 -0.01909830
v -0.11030700 -0.17020600 -0.01636140
v -0.32410800 -0.15887300 0.00635480
v -0.41624700 -0.13027900 -0.87382800
v -0.40037600 -0.13343100 -0.87702100
v -0.11030700 -0.17155600 -0.87702100
v -0.43851000 -0.11436800 -0.85795400
v -0.43214900 -0.10802600 -0.87063500
v -0.42578800 -0.13981000 0.01264960
v -0.40037600 -0.14615200 0.03171660
v -0.40988600 -0.14296200 0.03335870
v -0.41306600 -0.14615200 0.02533050
v -0.11030700 -0.15887300 0.00635480
v -0.11030700 -0.15114300 0.02177260
v -0.41942700 -0.11436800 -0.87702100
v -0.11030700 0.17157300 -0.87702100
v -0.43851000 0.11438500 -0.85795400
v -0.43851000 -0.11436800 0.01903570
v -0.43214900 0.12072700 -0.87063500
v -0.43214900 -0.12708900 0.02533050
v -0.11030700 -0.14615200 0.03171660
v -0.11030700 -0.13343100 0.03810270
v -0.40037600 -0.13343100 0.03810270
v -0.42896900 -0.12390000 0.03335870
v -0.41942700 0.11438500 -0.87702100
v -0.22879000 0.17157300 -0.87702100
v -0.11030700 0.17615100 -0.87592600
v -0.42578800 0.13979000 -0.85795400
v -0.42896900 0.12868200 -0.86744200
v -0.43851000 0.11438500 0.01903570
v -0.43214900 -0.11436800 0.03171660
v -0.41942700 0.13581200 -0.87218600
v -0.11030700 0.13344800 0.03810270
v -0.20861400 -0.03699130 0.05498010
v -0.20973900 -0.04070630 0.05498010
v -0.21510400 -0.05143850 0.05498010
v -0.22172200 -0.06314630 0.05498010
v -0.22342400 -0.06513520 0.05498010
v -0.23736700 -0.07211480 0.05498010
v -0.27546900 -0.09117760 0.05498010
v -0.28597400 -0.09643110 0.05498010
v -0.30502500 -0.09643110 0.05498010
v -0.32073500 -0.09192810 0.05498010
v -0.35886900 -0.07286530 0.05498010
v -0.36857100 -0.06352160 0.05498010
v -0.41942700 -0.11436800 0.03810270
v -0.43214900 0.11438500 0.03171660
v -0.41942700 0.11438500 0.03810270
v -0.40037600 0.13344800 -0.87702100
v -0.32410800 0.15251100 -0.87702100
v -0.22879000 0.18429400 -0.87063500
v -0.11030700 0.18617100 -0.87100000
v -0.41306600 0.14616900 -0.85795400
v -0.40988600 0.14774500 -0.86744200
v -0.42578800 0.13979000 0.01903570
v -0.43372400 0.12391600 0.02852360
v -0.40037600 0.14616900 -0.87063500
v -0.40037600 0.13344800 0.03810270
v -0.26583100 0.09641050 0.05498010
v -0.23980900 0.08432740 0.05498010
v -0.22072600 0.06526470 0.05498010
v -0.20861400 0.03922220 0.05498010
v -0.11030700 0.15660100 0.02651650
v -0.37792000 -0.05380260 0.05498010
v -0.38241800 -0.03811710 0.05498010
v -0.42180500 0.13344800 0.03335870
v -0.38241800 0.03809650 0.05498010
v -0.37017800 0.06256280 0.05498010
v -0.32410800 0.16523200 -0.87063500
v -0.23833100 0.18587000 -0.86744200
v -0.11030700 0.19270000 -0.85795400
v -0.40037600 0.15251100 -0.85795400
v -0.41306600 0.14616900 0.01903570
v -0.33361800 0.16680800 -0.86744200
v -0.41467300 0.14297900 0.02852360
v -0.40670500 0.14616900 0.03171660
v -0.36821800 0.06428900 0.05498010
v -0.35649200 0.07085590 0.05498010
v -0.34576200 0.07625950 0.05498010
v -0.30762800 0.09532230 0.05498010
v -0.30393300 0.09641050 0.05498010
v -0.11030700 0.15885200 0.02533050
v -0.31774700 0.15885200 0.02533050
v -0.32410800 0.17157300 -0.85795400
v -0.22879000 0.19063600 -0.85795400
v -0.11030700 0.19270000 -0.15256700
v -0.40037600 0.15251100 0.01903570
v -0.33046900 0.16523200 0.01264960
v -0.11030700 0.15997800 0.02314100
v -0.32410800 0.17157300 -0.00003129
v -0.22879000 0.19063600 -0.07629920
v -0.11030700 0.19063600 -0.07629920
v -0.11030700 0.16954700 0.00407407
v -0.11030700 0.17157300 -0.00003129
f 50 75 97
f 50 81 80
f 50 83 81
f 50 84 83
f 50 95 94
f 50 94 93
f 50 96 95
f 50 76 75
f 50 97 96
f 50 93 84
f 50 80 61
f 50 54 53
f 50 60 59
f 50 59 58
f 50 58 57
f 50 57 56
f 50 56 55
f 50 55 54
f 50 53 52
f 50 52 51
f 62 80 81
f 50 77 76
f 61 80 62
f 50 61 60
f 50 78 77
f 42 66 85
f 49 77 78
f 39 60 61
f 62 81 83
f 39 61 62
f 39 62 40
f 40 63 47
f 40 62 64
f 40 64 63
f 41 48 65
f 42 85 67
f 42 67 68
f 42 68 43
f 49 79 74
f 44 69 70
f 44 48 45
f 44 71 89
f 44 89 69
f 46 63 72
f 46 72 71
f 48 70 73
f 48 73 65
f 49 74 97
f 49 97 75
f 49 75 76
f 49 76 77
f 44 70 48
f 62 83 64
f 89 92 103
f 63 64 82
f 85 90 86
f 106 108 107
f 86 90 100
f 86 100 101
f 86 101 87
f 87 101 107
f 87 107 102
f 88 103 106
f 88 106 100
f 89 91 92
f 92 99 104
f 92 104 103
f 98 105 99
f 99 105 104
f 100 106 107
f 100 107 101
f 102 107 108
f 103 104 106
f 104 105 109
f 104 109 106
f 106 109 110
f 106 110 108
f 39 59 60
f 82 92 91
f 79 99 92
f 79 98 99
f 74 96 97
f 64 83 84
f 64 84 74
f 64 74 82
f 65 73 85
f 65 85 66
f 67 85 86
f 67 86 68
f 68 86 87
f 69 88 70
f 69 89 103
f 69 103 88
f 63 82 72
f 70 90 85
f 70 88 100
f 70 100 90
f 71 72 82
f 71 82 91
f 71 91 89
f 74 79 92
f 74 92 82
f 74 84 93
f 74 93 94
f 74 94 95
f 74 95 96
f 70 85 73
f 39 58 59
f 5 32 43
f 38 57 58
f 5 110 109
f 5 109 105
f 5 105 98
f 5 98 79
f 5 79 49
f 5 49 38
f 5 38 37
f 5 37 30
f 5 30 29
f 5 29 18
f 5 18 17
f 6 14 17
f 6 17 8
f 7 15 9
f 7 16 25
f 7 25 15
f 8 17 18
f 8 18 19
f 8 19 16
f 9 15 20
f 9 20 21
f 10 21 31
f 10 31 41
f 5 108 110
f 10 41 65
f 5 102 108
f 5 68 87
f 38 58 39
f 1 2 3
f 1 3 4
f 1 4 12
f 1 12 5
f 1 5 14
f 1 14 6
f 1 6 8
f 1 8 2
f 2 7 9
f 2 9 3
f 2 8 16
f 2 16 7
f 3 9 21
f 3 21 10
f 3 10 4
f 4 11 12
f 4 10 13
f 4 13 11
f 5 12 11
f 5 11 22
f 5 22 32
f 5 43 68
f 5 87 102
f 10 65 66
f 5 17 14
f 10 42 32
f 27 39 40
f 27 40 36
f 27 36 28
f 27 37 38
f 32 42 43
f 33 44 45
f 33 45 35
f 33 46 71
f 33 71 44
f 34 36 40
f 34 40 47
f 27 38 39
f 34 47 63
f 35 45 48
f 35 48 41
f 38 49 78
f 38 78 50
f 38 50 51
f 38 51 52
f 38 52 53
f 38 53 54
f 38 54 55
f 38 55 56
f 38 56 57
f 10 66 42
f 26 37 27
f 34 63 46
f 25 28 36
f 10 32 22
f 26 30 37
f 10 22 13
f 11 13 22
f 15 23 24
f 15 24 20
f 15 36 34
f 15 34 23
f 16 19 26
f 16 26 27
f 16 27 28
f 16 28 25
f 15 25 36
f 23 34 46
f 19 29 30
f 19 30 26
f 20 24 31
f 20 31 21
f 24 41 31
f 23 33 35
f 23 35 24
f 23 46 33
f 24 35 41
f 18 29 19

