# https://github.com/mikedh/trimesh
v 0.28599000 -0.09643680 0.05498010
v 0.27030000 -0.09194350 0.05498010
v 0.30505000 -0.09643680 0.05498010
v 0.28599000 -0.09532290 0.48625200
v 0.23217900 -0.07287510 0.05498010
v 0.26057000 -0.08261690 0.48625200
v 0.23839900 -0.07153470 0.48625200
v 0.35366600 -0.07211990 0.05498010
v 0.33047000 -0.08261690 0.48625200
v 0.30505000 -0.09532290 0.48625200
v 0.22244900 -0.06354860 0.05498010
v 0.22244900 -0.06354860 0.48625200
v 0.35686300 -0.07051520 0.05498010
v 0.35589000 -0.06989210 0.48625200
v 0.21310100 -0.05380670 0.05498010
v 0.21933900 -0.05733720 0.48625200
v 0.37594100 -0.03237840 0.05498010
v 0.36544600 -0.05078600 0.48625200
v 0.20861800 -0.03811780 0.05498010
v 0.21445600 -0.04757650 0.48625200
v 0.20973000 -0.03811780 0.48625200
v 0.38131000 -0.02163600 0.05498010
v 0.37495100 -0.03177430 0.48625200
v 0.20861800 0.03811780 0.05498010
v 0.20780200 -0.02850810 0.48625200
v 0.20491700 -0.00943978 0.48625200
v 0.38240500 -0.01795450 0.05498010
v 0.38131000 -0.01904950 0.48625200
v 0.21546400 0.05182440 0.05498010
v 0.20491700 -0.00479541 0.48625200
v 0.20733300 0.01786010 0.48625200
v 0.20973000 0.03811780 0.48625200
v 0.21292700 0.04453690 0.48625200
v 0.38240500 0.03923170 0.05498010
v 0.38131000 0.03811780 0.48625200
v 0.22083300 0.06256690 0.05498010
v 0.21928700 0.05724280 0.48625200
v 0.37031100 0.06526660 0.05498010
v 0.36859100 0.06354860 0.48625200
v 0.23991100 0.08161630 0.05498010
v 0.22244900 0.06354860 0.48625200
v 0.24150900 0.08261690 0.48625200
v 0.33217300 0.08431610 0.05498010
v 0.30505000 0.09532290 0.48625200
v 0.33047000 0.08261690 0.48625200
v 0.24187400 0.08335330 0.05498010
v 0.26692900 0.09532290 0.48625200
v 0.26434000 0.09532290 0.05498010
v 0.25360300 0.08994220 0.05498010
v 0.30614500 0.09643680 0.05498010
v 0.26804100 0.09643680 0.05498010
f 17 22 23
f 15 21 19
f 17 23 18
f 4 16 12
f 19 25 26
f 19 26 30
f 15 20 21
f 19 30 24
f 19 21 25
f 15 16 20
f 4 12 7
f 13 17 14
f 12 16 15
f 8 14 9
f 8 13 14
f 5 12 11
f 5 7 12
f 4 7 6
f 4 20 16
f 22 27 28
f 14 17 18
f 22 28 23
f 44 50 51
f 24 31 32
f 47 51 48
f 4 21 20
f 44 51 47
f 43 50 44
f 42 49 46
f 42 48 49
f 42 47 48
f 40 42 46
f 38 45 39
f 38 44 45
f 24 30 31
f 38 43 44
f 36 41 42
f 36 37 41
f 35 38 39
f 34 38 35
f 33 37 36
f 29 33 36
f 27 35 28
f 27 34 35
f 24 33 29
f 24 32 33
f 36 42 40
f 4 25 21
f 11 12 15
f 4 30 26
f 1 13 8
f 1 17 13
f 1 22 17
f 1 27 22
f 1 34 27
f 1 38 34
f 1 43 38
f 1 50 43
f 1 48 51
f 1 49 48
f 1 46 49
f 1 40 46
f 1 36 40
f 1 29 36
f 1 24 29
f 1 19 24
f 1 15 19
f 1 11 15
f 1 5 11
f 1 2 5
f 4 26 25
f 1 8 3
f 1 3 10
f 1 51 50
f 1 4 2
f 1 10 4
f 4 32 31
f 4 33 32
f 4 37 33
f 4 41 37
f 4 42 41
f 4 47 42
f 4 45 44
f 4 39 45
f 4 35 39
f 4 28 35
f 4 44 47
f 4 31 30
f 4 23 28
f 2 6 7
f 2 7 5
f 3 8 9
f 3 9 10
f 2 4 6
f 4 9 14
f 4 14 18
f 4 18 23
f 4 10 9

