# https://github.com/mikedh/trimesh
v 0.11456100 -0.00645102 0.03813130
v -0.11030700 -0.00645102 0.03813130
v 0.11456100 -0.13345600 0.03813130
v 0.11456100 -0.00645102 -0.87048100
v -0.11030700 -0.13345600 0.03813130
v -0.11030700 -0.00645102 -0.87496100
v 0.11456100 -0.14615000 0.03177110
v 0.11456100 -0.01890680 -0.87702100
v 0.11449500 -0.00645102 -0.87702100
v -0.11030700 -0.14615000 0.03177110
v 0.11438500 -0.00645102 -0.87702100
v -0.11030700 -0.03814750 -0.87702100
v 0.11456100 -0.15251700 0.01905070
v 0.11456100 -0.17157900 -0.87702100
v -0.11030700 -0.15251700 0.01905070
v -0.11030700 -0.17157900 -0.87702100
v 0.11456100 -0.16523200 -0.00639006
v 0.11456100 -0.18429400 -0.87066100
v 0.06353890 -0.20335500 -0.87066100
v 0.05717750 -0.19064100 -0.87702100
v -0.11030700 -0.16523200 -0.00639006
v -0.05719390 -0.19064100 -0.87702100
v -0.11030700 -0.18429400 -0.87066100
v 0.11456100 -0.17157900 -0.01911050
v 0.11456100 -0.19064100 -0.85794000
v 0.05717750 -0.20972200 -0.85794000
v -0.05083260 -0.20335500 -0.87066100
v -0.11030700 -0.17157900 -0.01911050
v -0.05719390 -0.20972200 -0.85794000
v -0.11030700 -0.19064100 -0.85794000
v 0.05717750 -0.20972200 -0.15258500
v 0.11456100 -0.19064100 -0.09534330
v -0.11030700 -0.19064100 -0.09534330
v -0.05719390 -0.20972200 -0.15258500
f 17 21 28
f 8 22 16
f 18 25 19
f 16 22 23
f 17 28 24
f 14 19 20
f 8 11 9
f 13 21 17
f 13 15 21
f 8 12 11
f 8 16 12
f 19 29 27
f 14 18 19
f 19 27 22
f 26 34 29
f 19 25 26
f 22 27 23
f 23 27 29
f 23 29 30
f 24 28 34
f 24 34 31
f 24 31 32
f 25 32 31
f 25 31 26
f 26 31 34
f 28 33 34
f 29 34 33
f 29 33 30
f 8 20 22
f 19 22 20
f 8 14 20
f 19 26 29
f 7 10 15
f 7 15 13
f 1 2 5
f 1 5 3
f 1 3 7
f 1 7 13
f 1 13 17
f 1 17 24
f 1 24 32
f 1 32 25
f 1 18 14
f 1 14 8
f 1 8 4
f 1 4 9
f 1 9 11
f 1 11 6
f 1 25 18
f 2 6 12
f 1 6 2
f 4 8 9
f 3 10 7
f 3 5 10
f 2 10 5
f 2 21 15
f 2 15 10
f 2 33 28
f 6 11 12
f 2 30 33
f 2 23 30
f 2 16 23
f 2 12 16
f 2 28 21

