# https://github.com/mikedh/trimesh
v 0.11439300 -0.00642985 -0.87702100
v 0.11449800 -0.00642985 -0.87702100
v 0.10701400 -0.00642985 -0.87514000
v 0.00717130 0.11437400 -0.87702100
v 0.11455100 0.00000288 -0.87702100
v 0.11455100 -0.00642985 -0.87048100
v 0.09814170 -0.00642985 -0.87146700
v 0.00717130 0.09611280 -0.87263100
v 0.00717130 0.19063600 -0.87702100
v 0.11455100 0.17157000 -0.87702100
v 0.11455100 -0.00642985 0.03813130
v 0.00717130 -0.00642985 -0.80069800
v 0.00717130 0.20335300 -0.87066100
v 0.07625580 0.19063600 -0.87702100
v 0.08579020 0.20017900 -0.87218400
v 0.11455100 0.18428800 -0.87066100
v 0.11455100 0.13344000 0.03813130
v 0.00717130 -0.00642985 0.03813130
v 0.07625580 0.20335300 -0.87066100
v 0.00717130 0.20972200 -0.85794000
v 0.08896480 0.20335300 -0.86430000
v 0.11455100 0.19063600 -0.85794000
v 0.00717130 0.13344000 0.03813130
v 0.11455100 0.15887400 0.02541090
v 0.07625580 0.20972200 -0.85794000
v 0.00717130 0.20972200 -0.15258500
v 0.11455100 0.19063600 -0.07626270
v 0.00717130 0.15887400 0.02541090
v 0.11455100 0.17150700 0.00014930
v 0.07625580 0.20972200 -0.15258500
v 0.00717130 0.19063600 -0.07626270
v 0.11455100 0.17157000 -0.00002987
v 0.00717130 0.16799400 0.00713654
v 0.00717130 0.17157000 -0.00002987
f 13 20 25
f 15 19 21
f 14 19 15
f 13 25 19
f 11 23 18
f 5 11 6
f 10 15 16
f 10 14 15
f 9 19 14
f 9 13 19
f 7 12 8
f 15 21 16
f 11 17 23
f 16 21 22
f 29 34 33
f 17 28 23
f 19 25 21
f 20 30 25
f 21 25 22
f 22 25 30
f 22 30 27
f 24 29 28
f 26 31 27
f 26 27 30
f 27 31 34
f 27 34 32
f 28 29 33
f 29 32 34
f 5 17 11
f 17 24 28
f 5 24 17
f 20 26 30
f 5 32 29
f 5 29 24
f 1 2 6
f 1 6 11
f 1 11 18
f 1 18 12
f 1 12 7
f 1 7 3
f 1 3 4
f 1 9 14
f 1 14 10
f 1 10 5
f 1 5 2
f 2 5 6
f 3 7 8
f 3 8 4
f 1 4 9
f 4 12 18
f 4 8 12
f 5 27 32
f 5 22 27
f 5 16 22
f 5 10 16
f 4 20 13
f 4 26 20
f 4 13 9
f 4 34 31
f 4 33 34
f 4 28 33
f 4 23 28
f 4 18 23
f 4 31 26

