# https://github.com/mikedh/trimesh
v -0.21546300 -0.10745300 0.10773300
v -0.20953900 -0.10745300 0.10476300
v -0.21546300 -0.10745300 -0.21505600
v -0.21546300 -0.54631400 0.10773300
v -0.18125300 -0.10745300 0.07477820
v -0.20953900 -0.54038100 0.10476300
v -0.18125300 -0.10745300 -0.21505600
v -0.21546300 -0.58093500 -0.21505600
v -0.21546300 -0.55586100 0.10005500
v -0.18125300 -0.58042500 0.06687910
v -0.18125300 -0.57898900 0.06757430
v -0.18125300 -0.54589700 0.07477820
v -0.18125300 -0.58093500 -0.21505600
v -0.21546300 -0.58093500 -0.16541800
v -0.21546300 -0.55632500 0.09964460
v -0.19754600 -0.58093500 0.01749390
v -0.19235500 -0.58093500 0.02788910
v -0.18813200 -0.58093500 0.03632540
v -0.18125300 -0.58093500 0.04975390
v -0.21546300 -0.56244300 0.08270890
f 8 18 17
f 5 10 19
f 5 19 13
f 5 13 7
f 6 11 12
f 8 13 19
f 8 19 18
f 8 17 16
f 10 20 16
f 9 15 10
f 10 16 17
f 10 17 18
f 10 18 19
f 10 15 20
f 14 16 20
f 5 11 10
f 8 16 14
f 5 12 11
f 3 7 13
f 4 10 11
f 4 11 6
f 1 2 5
f 1 5 7
f 1 7 3
f 1 3 8
f 1 14 20
f 1 20 15
f 1 15 9
f 1 8 14
f 1 4 6
f 1 6 2
f 2 6 12
f 2 12 5
f 3 13 8
f 4 9 10
f 1 9 4

