# https://github.com/mikedh/trimesh
v -0.57899600 0.26544400 -0.13038900
v -0.57899600 0.26544400 0.00003199
v -0.57899600 0.51600000 -0.13038900
v -0.23892200 0.26544400 -0.13038900
v -0.55691700 0.31984800 0.10476200
v -0.57345000 0.31984800 0.07166540
v -0.57899600 0.33086100 0.06616010
v -0.51833900 0.26544400 0.12131000
v -0.57899600 0.51600000 0.06616010
v -0.23892200 0.51600000 -0.13038900
v -0.22610900 0.26544400 -0.12131000
v -0.55417900 0.32259500 0.11165100
v -0.57071200 0.32259500 0.07855510
v -0.55140600 0.33086100 0.12131000
v -0.52107700 0.32259500 0.16126400
v -0.48523700 0.26544400 0.15437400
v -0.55140600 0.51600000 0.12131000
v -0.22610900 0.51600000 -0.12131000
v -0.22042300 0.26544400 -0.11017100
v -0.52385000 0.33086100 0.15991100
v -0.47144200 0.32259500 0.19436000
v -0.48523700 0.33086100 0.18747000
v -0.48474600 0.26544400 0.15463100
v -0.52385000 0.51600000 0.15991100
v -0.22042300 0.51600000 -0.11017100
v -0.22042300 0.26544400 0.11017000
v -0.47421500 0.26544400 0.15991100
v -0.43009100 0.26544400 0.18196500
v -0.46319300 0.33086100 0.19851300
v -0.48523700 0.51600000 0.18747000
v -0.22042300 0.51600000 0.11017000
v -0.23713100 0.26544400 0.14336300
v -0.31432200 0.26544400 0.18196500
v -0.44662400 0.33086100 0.19851300
v -0.46319300 0.51600000 0.19851300
v -0.23713100 0.51600000 0.14336300
v -0.24966300 0.26544400 0.14964100
v -0.31432200 0.51600000 0.18196500
v -0.44662400 0.51600000 0.19851300
f 19 25 31
f 14 24 17
f 16 23 21
f 15 22 20
f 15 21 22
f 15 16 21
f 14 20 24
f 7 14 17
f 12 15 14
f 11 18 25
f 8 16 15
f 8 15 12
f 7 17 9
f 19 31 26
f 14 15 20
f 20 22 30
f 33 37 38
f 21 27 28
f 36 38 37
f 7 12 14
f 33 39 34
f 33 38 39
f 32 36 37
f 29 39 35
f 29 34 39
f 20 30 24
f 28 34 29
f 26 36 32
f 26 31 36
f 22 35 30
f 22 29 35
f 21 23 27
f 21 29 22
f 21 28 29
f 28 33 34
f 7 13 12
f 11 25 19
f 5 8 12
f 1 23 16
f 1 27 23
f 1 28 27
f 1 33 28
f 1 37 33
f 1 32 37
f 1 26 32
f 1 19 26
f 1 11 19
f 1 10 4
f 1 3 10
f 1 9 3
f 1 7 9
f 1 2 7
f 6 13 7
f 1 16 8
f 1 8 2
f 1 4 11
f 2 6 7
f 5 13 6
f 2 5 6
f 5 12 13
f 4 18 11
f 3 18 10
f 3 25 18
f 3 31 25
f 3 36 31
f 4 10 18
f 3 39 38
f 3 35 39
f 3 30 35
f 3 24 30
f 3 17 24
f 2 8 5
f 3 38 36
f 3 9 17

