# https://github.com/mikedh/trimesh
v -0.22042300 0.63285500 0.11018000
v -0.23713100 0.63285500 0.14333500
v -0.22042300 0.51607100 0.11018000
v -0.22042300 0.63285500 -0.21505600
v -0.24815400 0.63285500 0.14888200
v -0.23713100 0.51602500 0.14333500
v -0.22042300 0.51602500 0.11001800
v -0.23320000 0.51602500 0.13552200
v -0.22042300 0.51602500 -0.21505600
v -0.56242800 0.63285500 -0.21505600
v -0.25454200 0.51602500 0.15208000
v -0.24815400 0.51602500 0.14888200
v -0.30330000 0.63285500 0.17645000
v -0.56242800 0.51602500 -0.21505600
v -0.57092300 0.63285500 -0.21080500
v -0.30330000 0.51602500 0.17645000
v -0.31432200 0.63285500 0.18195600
v -0.57345000 0.51602500 -0.20951000
v -0.57345000 0.63285500 -0.20951000
v -0.31432200 0.51602500 0.18195600
v -0.44662400 0.63285500 0.19851300
v -0.57899600 0.51602500 -0.19849800
v -0.57474900 0.63285500 -0.20695900
v -0.44662400 0.51602500 0.19851300
v -0.46319300 0.63285500 0.19851300
v -0.57899600 0.63285500 -0.19849800
v -0.57899600 0.51602500 0.06613540
v -0.46319300 0.51602500 0.19851300
v -0.48523700 0.63285500 0.18746100
v -0.57899600 0.63285500 0.06613540
v -0.55586400 0.51602500 0.11240700
v -0.48523700 0.51602500 0.18746100
v -0.52385000 0.63285500 0.15989300
v -0.56102400 0.63285500 0.10208400
v -0.55140600 0.51602500 0.12131300
v -0.55140600 0.63285500 0.12131300
v -0.52385000 0.51602500 0.15989300
f 11 13 16
f 14 18 15
f 13 20 16
f 13 17 20
f 15 18 19
f 10 14 15
f 6 27 22
f 6 9 7
f 6 14 9
f 6 18 14
f 6 22 18
f 6 31 27
f 17 21 24
f 6 7 8
f 17 24 20
f 31 35 36
f 18 23 19
f 6 37 35
f 33 35 37
f 33 36 35
f 31 36 34
f 30 31 34
f 29 37 32
f 29 33 37
f 27 31 30
f 25 32 28
f 25 29 32
f 22 30 26
f 22 27 30
f 22 26 23
f 21 28 24
f 21 25 28
f 18 22 23
f 6 32 37
f 6 35 31
f 6 24 28
f 1 36 33
f 1 34 36
f 1 30 34
f 1 26 30
f 1 23 26
f 1 15 19
f 1 33 29
f 1 10 15
f 1 9 4
f 1 7 9
f 1 3 7
f 1 6 3
f 1 2 6
f 6 28 32
f 1 4 10
f 1 29 25
f 1 19 23
f 1 21 17
f 6 20 24
f 1 25 21
f 6 16 20
f 6 11 16
f 6 12 11
f 5 13 11
f 4 14 10
f 4 9 14
f 5 11 12
f 3 6 8
f 2 12 6
f 2 5 12
f 1 5 2
f 1 13 5
f 1 17 13
f 3 8 7

