# https://github.com/mikedh/trimesh
v 0.08367000 -0.58848800 -0.21501900
v 0.08367000 -0.49198800 -0.21501900
v 0.17842700 -0.58848800 -0.21501900
v 0.08367000 -0.58848800 0.16041100
v 0.17842700 -0.49198800 -0.21501900
v 0.08367000 -0.49198800 0.16491200
v 0.17842700 -0.58848800 0.05112640
v 0.08579410 -0.58848800 0.15989100
v 0.08367000 -0.57946600 0.16491200
v 0.17842700 -0.49198800 0.07266350
v 0.08701840 -0.49198800 0.16327600
v 0.17842700 -0.58524800 0.06355020
v 0.17594100 -0.58848800 0.06057440
v 0.09215700 -0.58848800 0.15829100
v 0.09374300 -0.58450200 0.15989100
v 0.15439500 -0.49198800 0.10476500
v 0.17842700 -0.56245300 0.07266350
v 0.10477100 -0.57347700 0.15438500
v 0.10477100 -0.49198800 0.15438500
v 0.17842700 -0.58250800 0.06745590
v 0.15831800 -0.58848800 0.09211750
v 0.11029000 -0.58848800 0.14333800
v 0.15439500 -0.57347700 0.10476500
v 0.17842700 -0.57834200 0.06905540
v 0.12028000 -0.58848800 0.13370400
v 0.15990400 -0.58450200 0.09371700
f 11 18 19
f 11 15 18
f 10 23 17
f 23 26 24
f 8 15 9
f 8 14 15
f 7 12 13
f 12 20 21
f 9 15 11
f 12 21 13
f 20 24 26
f 15 22 18
f 16 19 18
f 16 18 23
f 17 23 24
f 18 22 25
f 18 25 23
f 20 26 21
f 21 26 25
f 23 25 26
f 6 9 11
f 14 22 15
f 4 8 9
f 10 16 23
f 3 20 12
f 3 12 7
f 1 2 5
f 1 5 3
f 1 3 7
f 1 13 21
f 1 21 25
f 1 25 22
f 1 22 14
f 1 14 8
f 1 8 4
f 1 4 9
f 1 7 13
f 1 6 2
f 1 9 6
f 3 24 20
f 3 17 24
f 3 5 10
f 3 10 17
f 2 16 10
f 2 19 16
f 2 11 19
f 2 6 11
f 2 10 5

