# https://github.com/mikedh/trimesh
v 0.57899600 -0.49198800 0.06613540
v 0.57684000 -0.49198800 0.07046700
v 0.57899600 -0.56245300 0.06613540
v 0.57899600 -0.49198800 -0.19849800
v 0.56245000 -0.49198800 0.09925000
v 0.56245000 -0.56245300 0.09925000
v 0.57346800 -0.56796000 0.07718710
v 0.57072300 -0.57485600 0.07443430
v 0.57346800 -0.57347700 0.06613540
v 0.57899600 -0.58848800 -0.01652980
v 0.57899600 -0.58848800 -0.19849800
v 0.57346800 -0.49198800 -0.20951000
v 0.55202000 -0.49198800 0.12009900
v 0.55139200 -0.55693600 0.12131300
v 0.55692100 -0.56796000 0.11026100
v 0.57433000 -0.58848800 -0.00207756
v 0.57695700 -0.58848800 -0.00847379
v 0.55417600 -0.57485600 0.10750800
v 0.57346800 -0.58848800 -0.20951000
v 0.56245000 -0.49198800 -0.21505600
v 0.55139200 -0.49198800 0.12131300
v 0.52382800 -0.56796000 0.15989300
v 0.56245000 -0.58848800 0.00350902
v 0.54590300 -0.57899400 0.09925000
v 0.51281000 -0.57899400 0.14888200
v 0.46317000 -0.57899400 0.18195600
v 0.52108300 -0.57485600 0.15714000
v 0.56245000 -0.58848800 -0.21505600
v 0.17842700 -0.49198800 -0.21505600
v 0.52382800 -0.49198800 0.15989300
v 0.48524500 -0.55693600 0.18746100
v 0.47418800 -0.56796000 0.19296700
v 0.37933900 -0.58848800 0.08155920
v 0.47144300 -0.57485600 0.19021400
v 0.44662300 -0.57899400 0.18195600
v 0.36396900 -0.58848800 0.08621470
v 0.17842700 -0.58848800 -0.21505600
v 0.17842700 -0.49198800 0.07265310
v 0.48524500 -0.49198800 0.18746100
v 0.46317000 -0.56245300 0.19851300
v 0.46317000 -0.57347700 0.19296700
v 0.44662300 -0.57347700 0.19296700
v 0.29778200 -0.57347700 0.17645000
v 0.29778200 -0.57899400 0.16539800
v 0.34742200 -0.58848800 0.08398810
v 0.17842700 -0.58848800 0.05111640
v 0.17842700 -0.56245300 0.07265310
v 0.20956000 -0.49198800 0.12131300
v 0.46317000 -0.49198800 0.19851300
v 0.44662300 -0.56245300 0.19851300
v 0.43835000 -0.57071900 0.19434300
v 0.28950900 -0.57071900 0.17782600
v 0.28123600 -0.57485600 0.16746300
v 0.26468900 -0.57899400 0.14888200
v 0.17842700 -0.58524800 0.06354450
v 0.17842700 -0.57834200 0.06905010
v 0.20956000 -0.56245300 0.12131300
v 0.24265300 -0.49198800 0.15438700
v 0.44662300 -0.49198800 0.19851300
v 0.29778200 -0.56245300 0.18195600
v 0.29778200 -0.49198800 0.18195600
v 0.28676400 -0.49198800 0.17645000
v 0.24265300 -0.56245300 0.15438700
v 0.25641600 -0.57071900 0.16126900
v 0.24814200 -0.57485600 0.15094600
v 0.17842700 -0.58250800 0.06743080
v 0.21508800 -0.57485600 0.11783100
v 0.17842700 -0.58235700 0.06751180
v 0.20681500 -0.57071900 0.11163800
f 31 49 40
f 31 40 32
f 32 40 34
f 34 40 41
f 35 42 43
f 35 43 44
f 38 47 57
f 36 44 45
f 38 57 48
f 40 49 59
f 40 59 50
f 40 42 41
f 40 50 42
f 35 44 36
f 31 39 49
f 26 36 33
f 29 56 47
f 29 68 56
f 29 66 68
f 29 55 66
f 29 46 55
f 29 37 46
f 26 35 36
f 26 42 35
f 26 41 42
f 26 34 41
f 25 34 26
f 25 27 34
f 42 50 51
f 23 26 33
f 29 47 38
f 42 51 52
f 52 63 64
f 43 52 53
f 22 34 27
f 63 65 64
f 57 66 69
f 57 68 66
f 57 65 63
f 57 67 65
f 57 69 67
f 56 68 57
f 55 67 66
f 55 65 67
f 54 65 55
f 52 60 61
f 52 65 53
f 52 64 65
f 52 58 63
f 52 62 58
f 52 61 62
f 43 53 44
f 44 53 65
f 44 65 54
f 44 54 46
f 44 46 45
f 46 54 55
f 42 52 43
f 47 56 57
f 48 63 58
f 50 59 61
f 66 67 69
f 50 61 60
f 50 60 52
f 50 52 51
f 48 57 63
f 22 32 34
f 2 5 6
f 22 39 31
f 6 14 15
f 6 13 14
f 5 13 6
f 4 19 12
f 4 11 19
f 3 9 10
f 3 8 9
f 3 7 8
f 3 6 7
f 22 31 32
f 1 5 2
f 1 13 5
f 1 21 13
f 1 30 21
f 6 15 7
f 1 39 30
f 1 59 49
f 1 61 59
f 1 62 61
f 1 58 62
f 1 48 58
f 1 38 48
f 1 29 38
f 1 20 29
f 1 12 20
f 1 4 12
f 1 11 4
f 1 10 11
f 1 3 10
f 1 2 3
f 1 49 39
f 7 15 18
f 2 6 3
f 8 16 17
f 22 30 39
f 20 37 29
f 20 28 37
f 7 18 8
f 18 27 25
f 16 26 23
f 16 25 26
f 16 24 25
f 16 18 24
f 15 27 18
f 15 22 27
f 14 22 15
f 14 30 22
f 14 21 30
f 13 21 14
f 18 25 24
f 12 19 28
f 12 28 20
f 8 17 10
f 8 18 16
f 10 17 16
f 10 16 23
f 10 23 33
f 8 10 9
f 10 36 45
f 10 45 46
f 10 46 37
f 10 37 28
f 10 28 19
f 10 33 36
f 10 19 11

