# https://github.com/mikedh/trimesh
v 0.57899600 0.63285500 0.06613540
v 0.55140100 0.63285500 0.12131300
v 0.57899600 0.51602500 0.06613540
v 0.57899600 0.63285500 -0.19849800
v 0.51833400 0.63285500 0.15438700
v 0.55140100 0.51602500 0.12131300
v 0.57899600 0.51602500 -0.19849800
v 0.57452400 0.51602500 -0.20740500
v 0.57488300 0.63285500 -0.20667600
v 0.51833400 0.51602500 0.15438700
v 0.48522700 0.63285500 0.18746100
v 0.57344500 0.63285500 -0.20951000
v 0.57344500 0.51602500 -0.20951000
v 0.48522700 0.51602500 0.18746100
v 0.48394900 0.63285500 0.18810900
v 0.56525800 0.63285500 -0.21363900
v 0.56242300 0.51602500 -0.21505600
v 0.48291100 0.51602500 0.18863500
v 0.46318200 0.63285500 0.19851300
v 0.56242300 0.63285500 -0.21505600
v 0.17101200 0.51602500 -0.21505600
v 0.46318200 0.51602500 0.19851300
v 0.44664900 0.63285500 0.19851300
v 0.17101200 0.63285500 -0.21505600
v 0.17101200 0.51602500 0.07168150
v 0.44664900 0.51602500 0.19851300
v 0.29780800 0.63285500 0.18195600
v 0.17101200 0.63285500 0.07168150
v 0.20955000 0.51602500 0.12131300
v 0.29780800 0.51602500 0.18195600
v 0.28958100 0.63285500 0.17786700
v 0.20955000 0.63285500 0.12131300
v 0.24265700 0.51602500 0.15438700
v 0.28674600 0.51602500 0.17645000
v 0.28674600 0.63285500 0.17645000
v 0.24265700 0.63285500 0.15438700
v 0.26681800 0.51602500 0.16649100
f 15 19 18
f 12 13 16
f 11 18 14
f 11 15 18
f 13 17 16
f 8 13 12
f 4 8 9
f 5 14 10
f 5 11 14
f 4 7 8
f 3 8 7
f 3 13 8
f 16 17 20
f 3 17 13
f 8 12 9
f 17 21 24
f 27 31 30
f 18 19 22
f 3 21 17
f 33 37 36
f 31 35 34
f 30 31 34
f 29 36 32
f 29 33 36
f 17 24 20
f 25 32 28
f 23 30 26
f 23 27 30
f 21 28 24
f 21 25 28
f 19 26 22
f 19 23 26
f 25 29 32
f 3 25 21
f 1 28 32
f 3 33 29
f 1 35 31
f 1 36 35
f 1 32 36
f 1 24 28
f 1 20 24
f 1 16 20
f 1 31 27
f 1 12 16
f 1 4 9
f 1 7 4
f 1 3 7
f 1 6 3
f 1 2 6
f 34 35 37
f 1 9 12
f 3 29 25
f 1 27 23
f 1 19 15
f 3 37 33
f 3 34 37
f 3 30 34
f 3 26 30
f 3 22 26
f 3 18 22
f 1 23 19
f 3 14 18
f 3 6 10
f 2 10 6
f 2 5 10
f 1 5 2
f 1 11 5
f 1 15 11
f 3 10 14
f 35 36 37

