# https://github.com/mikedh/trimesh
v 0.24265700 0.26544400 -0.15563300
v 0.20955000 0.26544400 -0.12127900
v 0.24265700 0.51600000 -0.15563300
v 0.57899600 0.26544400 -0.15563300
v 0.20955000 0.51600000 -0.12127900
v 0.17101200 0.26544400 -0.07167240
v 0.57899600 0.51600000 -0.15563300
v 0.57899600 0.26544400 0.00001653
v 0.17101200 0.51600000 -0.07167240
v 0.17101200 0.26544400 0.07167080
v 0.57899600 0.51600000 0.06615890
v 0.57899600 0.33086100 0.06615890
v 0.57344500 0.32534200 0.07718270
v 0.55691200 0.32534200 0.11025400
v 0.57344500 0.26544400 0.01104030
v 0.17101200 0.51600000 0.07167080
v 0.20955000 0.26544400 0.12131200
v 0.55140100 0.51600000 0.12131200
v 0.55140100 0.33638000 0.12131200
v 0.55415600 0.31845000 0.10751500
v 0.50176000 0.26544400 0.13784800
v 0.20955000 0.51600000 0.12131200
v 0.24265700 0.26544400 0.15438300
v 0.51833400 0.51600000 0.15438300
v 0.51833400 0.33638000 0.15438300
v 0.48522700 0.33638000 0.18745500
v 0.47420500 0.32534200 0.19296600
v 0.47144900 0.31845000 0.19022800
v 0.46394100 0.26544400 0.15677500
v 0.24265700 0.51600000 0.15438300
v 0.24313600 0.26544400 0.15462600
v 0.24477300 0.51600000 0.15545800
v 0.48522700 0.51600000 0.18745500
v 0.48291100 0.51600000 0.18863300
v 0.46318200 0.33086100 0.19851300
v 0.41354200 0.26544400 0.18194300
v 0.43083400 0.26544400 0.17331100
v 0.28726500 0.26544400 0.17670800
v 0.26681800 0.51600000 0.16648200
v 0.46318200 0.51600000 0.19851300
v 0.44664900 0.33086100 0.19851300
v 0.29780800 0.26544400 0.18194300
v 0.29780800 0.51600000 0.18194300
v 0.28890300 0.51600000 0.17750600
v 0.28674600 0.51600000 0.17643100
v 0.44664900 0.51600000 0.19851300
f 23 31 32
f 18 25 19
f 19 25 21
f 21 27 28
f 21 26 27
f 18 24 25
f 21 28 29
f 21 25 26
f 17 30 22
f 14 20 15
f 15 20 21
f 14 21 20
f 14 19 21
f 12 14 13
f 12 19 14
f 11 19 12
f 10 22 16
f 11 18 19
f 17 23 30
f 23 32 30
f 41 46 43
f 24 26 25
f 10 17 22
f 41 43 42
f 38 44 45
f 38 43 44
f 38 42 43
f 35 46 41
f 35 40 46
f 35 42 36
f 35 41 42
f 34 40 35
f 32 38 39
f 31 38 32
f 28 37 29
f 28 36 37
f 27 36 28
f 27 35 36
f 26 35 27
f 26 34 35
f 26 33 34
f 24 33 26
f 8 14 15
f 38 45 39
f 8 12 13
f 2 6 9
f 1 6 2
f 1 10 6
f 1 17 10
f 1 23 17
f 1 31 23
f 1 38 31
f 1 42 38
f 1 37 36
f 1 29 37
f 1 21 29
f 1 15 21
f 1 8 15
f 1 4 8
f 1 7 4
f 1 3 7
f 1 5 3
f 1 2 5
f 8 13 14
f 2 9 5
f 3 5 9
f 1 36 42
f 3 16 22
f 3 9 16
f 6 10 16
f 4 12 8
f 4 11 12
f 4 7 11
f 3 18 11
f 3 24 18
f 3 33 24
f 3 34 33
f 3 11 7
f 6 16 9
f 3 46 40
f 3 43 46
f 3 44 43
f 3 45 44
f 3 39 45
f 3 32 39
f 3 30 32
f 3 40 34
f 3 22 30

