# https://github.com/mikedh/trimesh
v 0.17130500 -0.10745300 -0.16543100
v -0.22108200 -0.10745300 -0.16543100
v -0.22108200 -0.10745300 -0.21505000
v -0.22108200 0.26544400 -0.21505000
v -0.22038700 0.51600000 -0.21505000
v -0.22108200 0.26544400 -0.16543100
v -0.22038700 0.51600000 -0.16543100
v -0.12131200 0.51600000 -0.15801500
v 0.10477000 0.51600000 -0.15801500
v -0.12131200 0.26544400 -0.15801500
v -0.12129500 -0.10745300 -0.15801500
v 0.10474200 -0.10745300 -0.15801500
v 0.17130500 0.26544400 -0.16543100
v 0.17101200 0.51600000 -0.16543100
v 0.17130500 0.26544400 -0.21505000
v 0.17130500 -0.10745300 -0.21505000
v 0.17101200 0.51600000 -0.21505000
f 15 1 16
f 13 15 14
f 13 1 15
f 13 9 1
f 15 16 17
f 16 3 17
f 14 17 9
f 5 9 17
f 7 9 5
f 5 17 3
f 16 1 3
f 10 12 9
f 15 17 14
f 12 1 9
f 13 14 9
f 11 2 12
f 12 2 1
f 2 3 1
f 4 3 2
f 4 5 3
f 6 7 5
f 8 7 6
f 6 5 4
f 8 10 9
f 8 6 10
f 6 2 10
f 6 4 2
f 11 10 2
f 11 12 10
f 8 9 7

