# https://github.com/mikedh/trimesh
v -0.19095900 0.70502600 0.07338170
v -0.19342800 0.70502600 0.08269270
v -0.19095900 0.63286600 0.07168150
v -0.19095900 0.70502600 -0.21505600
v -0.19855600 0.70502600 0.09920960
v -0.20957200 0.63286600 0.10475600
v -0.19095900 0.63286600 -0.21505600
v -0.56243400 0.70502600 -0.21505600
v -0.23164300 0.70502600 0.14884100
v -0.23711300 0.63286600 0.14333500
v -0.56243400 0.63286600 -0.21505600
v -0.56874000 0.70502600 -0.21189800
v -0.29781600 0.70502600 0.18191500
v -0.30328600 0.63286600 0.17645000
v -0.24816700 0.63286600 0.14888200
v -0.57090500 0.63286600 -0.21080500
v -0.57345000 0.70502600 -0.20951000
v -0.31434100 0.70502600 0.18705600
v -0.31434100 0.63286600 0.18195600
v -0.57345000 0.63286600 -0.20951000
v -0.57474200 0.63286600 -0.20695900
v -0.57899600 0.70502600 -0.19849800
v -0.41489200 0.70502600 0.18721800
v -0.44664900 0.67824800 0.19851300
v -0.44664900 0.63286600 0.19851300
v -0.57899600 0.63286600 -0.19849800
v -0.57899600 0.70502600 -0.00001295
v -0.42982100 0.70502600 0.18721800
v -0.46317400 0.67824800 0.19851300
v -0.46317400 0.63286600 0.19851300
v -0.57899600 0.63286600 0.06613540
v -0.57899600 0.67824800 0.06613540
v -0.57485600 0.68652000 0.07443430
v -0.57641300 0.70502600 0.01148410
v -0.43175900 0.70502600 0.18681400
v -0.46868200 0.68927400 0.19296700
v -0.47559600 0.68652000 0.19021400
v -0.48524400 0.67824800 0.18746100
v -0.48524400 0.63286600 0.18746100
v -0.55141800 0.63286600 0.12131300
v -0.55141800 0.67824800 0.12131300
v -0.55829300 0.68652000 0.10750800
v -0.52881500 0.70502600 0.11426900
v -0.54534000 0.70502600 0.08115440
v -0.57405800 0.70502600 0.01779930
v -0.44608000 0.70502600 0.18041700
v -0.47916600 0.70502600 0.16390100
v -0.51833100 0.68927400 0.15989300
v -0.52520700 0.68652000 0.15714000
v -0.52383900 0.67824800 0.15989300
v -0.52383900 0.63286600 0.15989300
v -0.54796100 0.69065900 0.11576700
f 24 30 25
f 27 32 33
f 27 33 34
f 28 35 36
f 29 36 37
f 29 37 38
f 29 38 39
f 24 29 30
f 29 39 30
f 28 36 29
f 23 29 24
f 18 23 24
f 22 32 27
f 22 31 32
f 22 26 31
f 21 26 22
f 18 25 19
f 18 24 25
f 17 21 22
f 17 20 21
f 16 20 17
f 31 40 33
f 23 28 29
f 31 33 32
f 41 50 49
f 33 42 43
f 13 19 14
f 43 48 47
f 43 49 48
f 43 52 49
f 42 49 52
f 42 52 43
f 41 49 42
f 40 50 41
f 40 51 50
f 38 51 39
f 33 41 42
f 38 50 51
f 37 49 38
f 37 48 49
f 36 48 37
f 36 47 48
f 36 46 47
f 35 46 36
f 33 40 41
f 33 45 34
f 33 44 45
f 33 43 44
f 38 49 50
f 13 18 19
f 1 43 47
f 11 16 12
f 1 5 2
f 1 9 5
f 1 13 9
f 1 18 13
f 1 23 18
f 1 28 23
f 1 35 28
f 1 46 35
f 1 47 46
f 12 16 17
f 1 44 43
f 1 45 44
f 1 34 45
f 1 22 27
f 1 17 22
f 1 12 17
f 1 8 12
f 1 4 8
f 1 7 4
f 1 3 7
f 1 2 3
f 2 5 3
f 3 5 6
f 1 27 34
f 3 10 15
f 3 6 10
f 9 15 10
f 9 14 15
f 9 13 14
f 8 11 12
f 5 9 6
f 4 11 8
f 4 7 11
f 3 11 7
f 3 16 11
f 3 20 16
f 6 9 10
f 3 26 21
f 3 21 20
f 3 14 19
f 3 19 25
f 3 15 14
f 3 30 39
f 3 25 30
f 3 39 51
f 3 51 40
f 3 40 31
f 3 31 26

