# https://github.com/mikedh/trimesh
v -0.20597900 0.67053700 -0.04374630
v -0.22456700 0.67053700 -0.02638940
v -0.25594600 0.81897900 -0.11225300
v -0.25594600 0.82892100 -0.11722800
v -0.25594600 0.83218800 -0.11884900
v -0.20597900 0.83218800 -0.11884900
v -0.20597900 0.67053700 0.25755000
v -0.24437200 0.67053700 -0.00660025
v -0.25594600 0.67053700 0.00909838
v -0.25594600 0.87181300 -0.11884900
v -0.20597900 0.87181300 -0.11884900
v -0.20597900 0.73314800 0.25755000
v -0.25594600 0.67053700 0.25755000
v -0.25594600 0.87291800 -0.11833300
v -0.20597900 0.87980400 -0.11486900
v -0.25594600 0.73314800 0.25755000
v -0.20597900 0.83218800 0.23776000
v -0.25594600 0.88502100 -0.11225300
v -0.20597900 0.88502100 -0.11225300
v -0.25594600 0.83218800 0.23776000
v -0.20597900 0.84539600 0.23116400
v -0.25594600 0.83383300 0.23695000
v -0.25594600 0.89811200 -0.10491900
v -0.25594600 0.89879400 -0.10374000
v -0.20597900 0.89162600 -0.09906010
v -0.20597900 0.85200000 0.21793400
v -0.25594600 0.85117800 0.21959300
v -0.25594600 0.84539600 0.23116400
v -0.25594600 0.91063900 -0.08004480
v -0.20597900 0.89162600 -0.05940810
v -0.25594600 0.85200000 0.21793400
v -0.25594600 0.91063900 -0.06025570
f 12 17 20
f 11 14 15
f 7 12 16
f 10 14 11
f 7 16 13
f 5 11 6
f 3 23 18
f 3 5 4
f 3 10 5
f 3 14 10
f 3 18 14
f 12 20 16
f 5 10 11
f 14 18 19
f 26 32 31
f 17 21 22
f 17 22 20
f 18 23 19
f 19 23 24
f 19 24 25
f 21 26 27
f 21 27 28
f 21 28 22
f 24 29 25
f 25 29 32
f 25 32 30
f 26 31 27
f 26 30 32
f 14 19 15
f 3 24 23
f 1 3 4
f 3 32 29
f 3 29 24
f 1 2 3
f 1 4 5
f 1 5 6
f 1 6 11
f 1 11 15
f 1 15 19
f 1 25 30
f 1 30 26
f 1 26 21
f 1 21 17
f 1 17 12
f 1 12 7
f 1 19 25
f 1 13 9
f 3 31 32
f 1 7 13
f 3 27 31
f 3 28 27
f 3 22 28
f 3 16 20
f 3 20 22
f 3 9 13
f 3 8 9
f 2 8 3
f 1 8 2
f 1 9 8
f 3 13 16

