# https://github.com/mikedh/trimesh
v -0.09369950 0.40947500 0.28073700
v -0.20597400 0.40947500 0.28073700
v -0.09369950 0.40947500 -0.16479600
v -0.09369950 0.55481000 0.27738400
v -0.20597400 0.40947500 -0.04374850
v -0.20597400 0.55481000 0.27738400
v -0.20474300 0.40947500 -0.04619570
v -0.20597400 0.54612500 -0.17227400
v -0.20597400 0.55481000 -0.17748600
v -0.20597400 0.57463500 -0.18224400
v -0.20597400 0.59446000 -0.18224400
v -0.09369950 0.77274300 -0.13869200
v -0.09369950 0.73309300 0.25757900
v -0.20597400 0.73309300 0.25757900
v -0.09369950 0.87182000 -0.11884300
v -0.20597400 0.87182000 -0.11884300
v -0.09369950 0.83217000 0.23773000
v -0.20597400 0.83217000 0.23773000
v -0.09369950 0.87540800 -0.11707500
v -0.20597400 0.88503700 -0.11227100
v -0.09369950 0.83755100 0.23505600
v -0.20597400 0.84538700 0.23115800
v -0.09369950 0.88503700 -0.11227100
v -0.20597400 0.89164500 -0.09903800
v -0.09369950 0.88683100 -0.10869100
v -0.09369950 0.84538700 0.23115800
v -0.20597400 0.84600100 0.22993500
v -0.20597400 0.89164500 -0.05942890
v -0.09369950 0.89164500 -0.09903800
v -0.09369950 0.84930500 0.22331800
v -0.20597400 0.85199500 0.21792500
v -0.09369950 0.89164500 -0.05942890
v -0.09369950 0.85199500 0.21792500
f 5 8 7
f 11 15 12
f 2 8 5
f 13 17 18
f 11 16 15
f 4 14 6
f 30 33 31
f 3 11 12
f 3 10 11
f 3 9 10
f 3 8 9
f 3 7 8
f 13 18 14
f 4 13 14
f 15 16 19
f 21 26 22
f 17 21 18
f 18 21 22
f 19 20 23
f 20 24 25
f 20 25 23
f 22 26 27
f 24 28 32
f 24 32 29
f 24 29 25
f 26 30 27
f 27 30 31
f 28 31 33
f 28 33 32
f 16 20 19
f 2 9 8
f 2 16 11
f 2 11 10
f 2 10 9
f 1 5 7
f 1 7 3
f 1 3 12
f 1 12 15
f 1 15 19
f 1 19 23
f 1 23 25
f 1 25 29
f 1 29 32
f 1 32 33
f 1 33 30
f 1 30 26
f 1 26 21
f 1 2 5
f 1 17 13
f 2 20 16
f 2 24 20
f 2 28 24
f 2 31 28
f 1 21 17
f 2 22 27
f 2 27 31
f 2 14 18
f 2 6 14
f 1 6 2
f 1 4 6
f 1 13 4
f 2 18 22

