# https://github.com/mikedh/trimesh
v 0.20374400 -0.89276200 -0.03402340
v 0.21135800 -0.89823400 -0.00659978
v 0.21135800 -0.89823400 0.03301380
v 0.20374400 -0.89164200 0.07925730
v 0.20374400 -0.89164200 -0.03961360
v 0.23778200 -0.91146000 0.00001504
v 0.22457000 -0.90484700 0.04622840
v 0.23778200 -0.91146000 0.03962870
v 0.33684300 -0.89164200 0.07925730
v 0.20374400 -0.88503000 0.09245690
v 0.20374400 -0.88509300 -0.05311450
v 0.27741800 -0.91146000 0.00001504
v 0.27741800 -0.91146000 0.03962870
v 0.37646000 -0.89164200 0.05944300
v 0.38637300 -0.88667800 0.06934260
v 0.34673800 -0.88667800 0.08915700
v 0.33684300 -0.88503000 0.09245690
v 0.20374400 -0.81237400 0.09907170
v 0.36656500 -0.88173400 -0.05448570
v 0.36324800 -0.88503000 -0.05282820
v 0.35665100 -0.89164200 -0.03961360
v 0.20374400 -0.85177600 -0.05486240
v 0.37646000 -0.89164200 -0.01979930
v 0.38967100 -0.88503000 0.05944300
v 0.39626800 -0.71333100 0.07925730
v 0.38967100 -0.71992200 0.09245690
v 0.37646000 -0.71333100 0.09907170
v 0.35665100 -0.77276100 0.09907170
v 0.33684300 -0.81237400 0.09907170
v 0.20374400 -0.69562600 0.09907170
v 0.39133000 -0.88173400 -0.02971400
v 0.37894700 -0.88667800 -0.03961360
v 0.22445700 -0.84820500 -0.05486240
v 0.23704700 -0.84590200 -0.05486240
v 0.37188000 -0.73084500 -0.05486240
v 0.37417900 -0.72856300 -0.05486240
v 0.38407400 -0.70874600 -0.05486240
v 0.38903100 -0.69712600 -0.05486240
v 0.20374400 -0.75100000 -0.05486240
v 0.38967100 -0.88503000 -0.01979930
v 0.39626800 -0.79257800 0.00001504
v 0.39626800 -0.73314800 0.05944300
v 0.39626800 -0.69562600 0.07925730
v 0.39415700 -0.69562600 0.08349140
v 0.38967100 -0.69562600 0.09245690
v 0.38071900 -0.69562600 0.09694710
v 0.37646000 -0.69562600 0.09907170
v 0.20374400 -0.69562600 -0.04672570
v 0.38903100 -0.69562600 -0.05486240
v 0.25989000 -0.69562600 -0.05486240
v 0.39626800 -0.69562600 0.03962870
f 22 50 49
f 22 49 38
f 22 38 37
f 22 37 36
f 22 35 34
f 22 34 33
f 22 39 50
f 23 32 40
f 22 36 35
f 21 32 23
f 19 22 33
f 19 38 31
f 19 37 38
f 19 36 37
f 19 35 36
f 19 34 35
f 19 33 34
f 19 32 20
f 19 31 32
f 18 47 30
f 24 40 31
f 20 32 21
f 24 31 41
f 30 51 49
f 25 42 41
f 41 49 51
f 39 48 50
f 38 49 41
f 31 38 41
f 31 40 32
f 30 50 48
f 30 49 50
f 18 27 47
f 30 43 51
f 30 44 43
f 30 45 44
f 30 46 45
f 30 47 46
f 27 46 47
f 26 46 27
f 26 45 46
f 26 44 45
f 25 44 26
f 25 43 44
f 25 51 43
f 25 41 51
f 24 41 42
f 18 28 27
f 24 42 25
f 17 28 29
f 4 17 10
f 4 9 17
f 4 13 9
f 4 8 13
f 4 7 8
f 3 7 4
f 2 7 3
f 2 6 8
f 1 6 2
f 1 5 6
f 1 11 5
f 1 22 11
f 1 39 22
f 1 48 39
f 1 30 48
f 1 18 30
f 1 10 18
f 1 4 10
f 1 3 4
f 1 2 3
f 18 29 28
f 5 11 6
f 6 12 13
f 2 8 7
f 6 11 12
f 16 28 17
f 6 13 8
f 16 26 27
f 15 26 16
f 15 25 26
f 15 24 25
f 14 24 15
f 14 40 24
f 14 23 40
f 12 14 13
f 12 23 14
f 12 21 23
f 16 27 28
f 11 21 12
f 11 22 19
f 9 14 15
f 9 15 16
f 9 16 17
f 9 13 14
f 10 29 18
f 11 19 20
f 11 20 21
f 10 17 29

