# https://github.com/mikedh/trimesh
v 0.14791500 0.40942700 -0.10040900
v 0.14791500 0.57990900 -0.15320800
v 0.23249800 0.56932600 -0.21731800
v 0.23249800 0.54255500 -0.19055300
v 0.23249800 0.53564200 -0.18358100
v 0.16512000 0.40942700 -0.08583230
v 0.14791500 0.40942700 0.28073800
v 0.14791500 0.59971700 -0.15320800
v 0.23249800 0.59242700 -0.21731800
v 0.23249800 0.40942700 -0.01250860
v 0.22455800 0.40942700 -0.02640300
v 0.18494100 0.40942700 -0.06603880
v 0.23249800 0.40942700 0.28073800
v 0.14791500 0.55479700 0.27737400
v 0.14791500 0.60753500 -0.14925900
v 0.23249800 0.63076100 -0.17895000
v 0.14861000 0.60926900 -0.14857700
v 0.14791500 0.66623000 -0.10533300
v 0.23249800 0.55479700 0.27737400
v 0.14791500 0.66623000 0.25758000
v 0.23249800 0.63149000 -0.17816900
v 0.17833400 0.66623000 -0.11289000
v 0.20804900 0.64891100 -0.14857700
v 0.23249800 0.66623000 0.25758000
v 0.23249800 0.63900700 -0.15764500
v 0.18089200 0.66623000 -0.11269500
v 0.19067900 0.66623000 -0.10777100
v 0.19221900 0.66623000 -0.10674700
v 0.23249800 0.66623000 -0.01250860
f 15 18 17
f 14 24 20
f 14 19 24
f 9 18 16
f 8 15 9
f 9 15 17
f 7 19 14
f 7 13 19
f 16 18 21
f 5 12 6
f 9 17 18
f 18 22 23
f 21 23 25
f 18 20 24
f 18 24 29
f 18 29 28
f 18 28 27
f 18 27 26
f 18 26 22
f 22 26 23
f 23 26 27
f 23 27 28
f 23 28 25
f 25 28 29
f 5 11 12
f 18 23 21
f 5 10 11
f 3 10 5
f 1 11 10
f 3 5 4
f 1 2 3
f 1 3 4
f 1 4 5
f 1 5 6
f 1 6 12
f 1 12 11
f 1 10 13
f 1 13 7
f 1 7 14
f 1 20 18
f 1 18 15
f 1 14 20
f 1 8 2
f 3 13 10
f 3 19 13
f 3 24 19
f 3 29 24
f 1 15 8
f 3 21 25
f 3 25 29
f 3 9 16
f 2 9 3
f 2 8 9
f 3 16 21

