# https://github.com/mikedh/trimesh
v 0.39628700 0.40942700 0.09904260
v 0.39628700 -0.19497500 0.09904260
v 0.39628700 0.40942700 0.03965780
v 0.37642600 0.40942700 0.25755900
v 0.37642600 0.27737700 0.27735400
v 0.39628700 -0.19497500 -0.15850100
v 0.37642600 -0.19497500 0.27735400
v 0.39628700 0.31701600 -0.13865400
v 0.38961500 0.33020900 -0.14530400
v 0.39458000 0.40942700 0.03216920
v 0.36983100 0.40942700 0.27070400
v 0.36983100 0.27075100 0.29060300
v 0.37487400 -0.19497500 0.28054900
v 0.39070100 -0.19497500 -0.16960300
v 0.39628700 0.27737700 -0.15850100
v 0.39132200 0.29719700 -0.16096200
v 0.39023500 0.40942700 0.02337150
v 0.38635600 0.32689600 -0.15352600
v 0.09077050 0.40942700 -0.16928900
v 0.36975400 0.40942700 0.27080800
v 0.36323700 0.34340200 0.28400500
v 0.35664300 0.27737700 0.29720100
v 0.35982300 -0.19497500 0.29563000
v 0.36983100 -0.19497500 0.29060300
v 0.38961500 -0.19497500 -0.17169800
v 0.38961500 0.27737700 -0.17169800
v 0.38635600 0.28725700 -0.17337300
v 0.08914120 0.40617400 -0.17337300
v 0.07944350 0.40942700 -0.17175000
v 0.35664300 0.40942700 0.27735400
v 0.33678200 0.33683500 0.29720100
v 0.33018700 0.23111200 0.31039800
v 0.33996300 -0.19497500 0.30552800
v 0.37852100 -0.19497500 -0.17724900
v 0.37642600 -0.19497500 -0.17829600
v 0.37642600 0.27737700 -0.17829600
v 0.07921080 0.35665500 -0.19814300
v 0.08914120 0.36653500 -0.19316800
v -0.07921080 0.40942700 -0.17175000
v 0.34997100 0.40942700 0.27871600
v 0.31699800 0.37641500 0.29720100
v 0.33018700 -0.19497500 0.31039800
v 0.07921080 0.23773800 0.33684400
v 0.07921080 -0.19497500 -0.19814300
v -0.07921080 0.35665500 -0.19814300
v -0.35664300 0.33020900 -0.15190300
v -0.36649500 0.33186600 -0.14860400
v -0.08983950 0.40942700 -0.16907900
v 0.33011000 0.40942700 0.28070600
v 0.32359300 0.40286000 0.28400500
v 0.31040400 0.38966700 0.29060300
v -0.31699800 0.37641500 0.29720100
v 0.07921080 0.21791900 0.33684400
v 0.18146300 -0.19497500 0.31066000
v -0.07921080 0.23773800 0.33684400
v -0.07921080 -0.19497500 -0.19814300
v -0.35664300 0.27737700 -0.17829600
v -0.35664300 0.31701600 -0.15850100
v -0.36983100 0.28400300 -0.17169800
v -0.36983100 0.32358300 -0.15190300
v -0.37456400 0.40942700 0.03201210
v -0.37076200 0.40942700 0.02279540
v -0.31366200 0.40942700 0.28070600
v -0.31040400 0.40286000 0.28400500
v -0.32359300 0.38966700 0.29060300
v -0.35664300 0.40942700 0.27735400
v -0.33926400 0.37641500 0.29222700
v -0.33678200 0.35665500 0.29720100
v -0.07921080 0.21791900 0.33684400
v -0.17510200 -0.19497500 0.31066000
v -0.33018700 0.23773800 0.31039800
v -0.35664300 -0.19497500 -0.17829600
v -0.36292700 -0.19497500 -0.17515400
v -0.36983100 -0.19497500 -0.17169800
v -0.37642600 0.27737700 -0.15850100
v -0.37642600 0.31701600 -0.13865400
v -0.37642600 0.40942700 0.03965780
v -0.33600600 0.40942700 0.27903000
v -0.36106500 0.40942700 0.27515500
v -0.35004800 0.35665500 0.29060300
v -0.35664300 0.27737700 0.29720100
v -0.33018700 -0.19497500 0.31039800
v -0.37642600 -0.19497500 -0.15850100
v -0.39628700 0.25755800 -0.05942170
v -0.39628700 0.35665500 0.03965780
v -0.39132200 0.38635400 0.06935020
v -0.37790000 0.40942700 0.05945270
v -0.36983100 0.40942700 0.27075600
v -0.36323700 0.35665500 0.28400500
v -0.35664300 -0.19497500 0.29720100
v -0.36983100 0.27737700 0.29060300
v -0.39628700 -0.19497500 -0.05942170
v -0.39628700 0.35665500 0.07924770
v -0.37642600 0.40942700 0.25755900
v -0.37890800 0.40942700 0.09239190
v -0.37890800 0.40942700 0.07924770
v -0.37208100 0.40942700 0.26630500
v -0.37146100 0.28725700 0.28730400
v -0.36983100 -0.19497500 0.29060300
v -0.37642600 0.27737700 0.27735400
v -0.39628700 -0.19497500 0.09904260
v -0.39628700 0.27737700 0.09904260
v -0.37642600 -0.19497500 0.27735400
f 1 2 6
f 47 58 59
f 47 59 60
f 47 61 62
f 47 62 48
f 49 63 64
f 49 64 50
f 50 64 65
f 50 65 51
f 52 65 66
f 52 66 67
f 52 67 68
f 52 68 55
f 53 69 70
f 53 70 54
f 55 68 71
f 55 71 82
f 55 82 69
f 57 72 73
f 57 73 59
f 57 59 58
f 59 73 74
f 46 58 47
f 45 57 58
f 45 72 57
f 45 56 72
f 32 42 33
f 32 41 43
f 32 43 53
f 32 53 42
f 35 44 37
f 35 37 36
f 37 44 56
f 37 56 45
f 39 45 58
f 39 58 46
f 59 74 83
f 39 46 47
f 40 49 41
f 41 49 50
f 41 50 51
f 41 51 65
f 41 65 52
f 41 52 55
f 41 55 43
f 42 53 54
f 43 55 69
f 43 69 53
f 39 47 48
f 31 41 32
f 59 83 75
f 60 75 76
f 84 92 101
f 84 101 102
f 84 102 93
f 84 93 85
f 85 93 86
f 86 93 94
f 86 94 95
f 86 95 96
f 86 96 87
f 88 91 89
f 88 97 98
f 88 98 91
f 91 98 100
f 91 100 103
f 91 103 99
f 93 102 94
f 94 100 98
f 94 98 97
f 94 102 100
f 100 102 101
f 100 101 103
f 81 99 90
f 81 91 99
f 80 91 81
f 80 89 91
f 60 76 61
f 61 76 77
f 63 78 65
f 63 65 64
f 65 78 66
f 66 68 67
f 66 79 80
f 66 80 68
f 68 80 81
f 68 81 71
f 59 75 60
f 69 82 70
f 71 90 82
f 75 83 92
f 75 92 84
f 75 84 76
f 76 84 85
f 76 85 86
f 76 86 77
f 77 86 87
f 79 88 89
f 79 89 80
f 71 81 90
f 30 41 31
f 47 60 61
f 29 45 39
f 1 20 11
f 1 11 4
f 1 4 5
f 1 5 7
f 1 7 2
f 2 7 13
f 2 13 24
f 2 24 23
f 2 23 33
f 2 33 42
f 2 42 54
f 2 54 70
f 2 70 82
f 2 82 90
f 2 90 99
f 2 99 103
f 2 103 101
f 2 101 92
f 2 92 83
f 2 83 74
f 2 74 73
f 1 30 20
f 1 40 30
f 1 49 40
f 1 63 49
f 1 6 15
f 1 15 8
f 1 8 3
f 1 3 10
f 1 10 17
f 1 17 19
f 1 19 29
f 1 29 39
f 1 39 48
f 1 48 62
f 2 73 72
f 1 62 61
f 1 77 87
f 1 87 96
f 1 96 95
f 1 95 94
f 1 94 97
f 1 97 88
f 1 88 79
f 30 40 41
f 1 66 78
f 1 78 63
f 1 61 77
f 2 72 56
f 1 79 66
f 2 44 35
f 15 26 16
f 16 26 27
f 16 27 18
f 18 27 28
f 18 28 19
f 19 28 29
f 20 30 21
f 21 30 22
f 22 30 31
f 22 31 32
f 14 26 15
f 22 32 23
f 25 27 26
f 27 34 35
f 27 35 36
f 27 36 37
f 27 37 38
f 27 38 28
f 28 38 37
f 28 37 29
f 29 37 45
f 2 56 44
f 25 34 27
f 14 25 26
f 23 32 33
f 12 23 24
f 2 35 34
f 12 24 13
f 2 34 25
f 2 25 14
f 2 14 6
f 3 8 9
f 3 9 10
f 5 11 12
f 5 12 13
f 5 13 7
f 6 14 15
f 4 11 5
f 8 15 16
f 8 16 9
f 9 17 10
f 9 16 18
f 9 18 19
f 9 19 17
f 11 20 12
f 12 20 21
f 12 21 22
f 12 22 23

