# https://github.com/mikedh/trimesh
v 0.33558800 0.63655300 -0.02106490
v 0.29597100 0.63655300 -0.02106490
v 0.34309100 0.63279400 -0.02106490
v 0.36656200 0.64393900 -0.02975070
v 0.34344400 0.66045800 -0.03302710
v 0.34344400 0.70009000 -0.05284060
v 0.29061600 0.64723600 -0.02644330
v 0.23249800 0.62211100 -0.02106490
v 0.30382700 0.70009000 -0.05284060
v 0.29061600 0.68686900 -0.04625670
v 0.35540400 0.62049600 -0.02106490
v 0.35915500 0.61297800 -0.02106490
v 0.38307600 0.62082500 -0.03302710
v 0.37977300 0.63734400 -0.03633450
v 0.38637900 0.66375500 -0.04956410
v 0.36656200 0.68357100 -0.04956410
v 0.35995700 0.69679300 -0.05614800
v 0.36326000 0.71990700 -0.07265410
v 0.27245200 0.68357100 -0.04956410
v 0.27080000 0.70668500 -0.06607020
v 0.26254300 0.70338800 -0.06937760
v 0.26254300 0.74302000 -0.14863100
v 0.25758900 0.73312900 -0.15852300
v 0.23249800 0.63668500 -0.13608200
v 0.23249800 0.52570100 -0.02106490
v 0.30382700 0.71990700 -0.07265410
v 0.35915500 0.55356200 -0.02106490
v 0.38968100 0.62745300 -0.04625670
v 0.38307600 0.56140900 -0.03302710
v 0.38637900 0.70338800 -0.06937760
v 0.39627100 0.63404700 -0.05945540
v 0.38307600 0.71990700 -0.09246750
v 0.36326000 0.73972300 -0.11231200
v 0.35665400 0.73312900 -0.09908230
v 0.29061600 0.72650100 -0.08588360
v 0.27245200 0.72320400 -0.08919100
v 0.27245200 0.74302000 -0.12881800
v 0.27493700 0.74796600 -0.13870900
v 0.26419500 0.74631700 -0.15852300
v 0.25758900 0.73312900 -0.19811900
v 0.23249800 0.63899300 -0.15765700
v 0.23249800 0.52774500 -0.16578700
v 0.25758900 0.43591700 -0.19811900
v 0.25758900 0.43591700 -0.13870900
v 0.26419500 0.42272900 -0.13212500
v 0.26749700 0.42602600 -0.11395000
v 0.26419500 0.44254500 -0.09246750
v 0.26254300 0.45573400 -0.07679600
v 0.27740600 0.44913900 -0.07265410
v 0.27740600 0.46895600 -0.05284060
v 0.35665400 0.46895600 -0.05284060
v 0.35665400 0.49536600 -0.03964190
v 0.33683800 0.53249300 -0.02106490
v 0.29722200 0.73312900 -0.09908230
v 0.35665400 0.54917700 -0.02106490
v 0.35665400 0.53252600 -0.02477410
v 0.36986500 0.54822100 -0.02644330
v 0.38968100 0.52840400 -0.04625670
v 0.39627100 0.67368000 -0.07926880
v 0.39298400 0.69019900 -0.08257620
v 0.39627100 0.69349600 -0.09908230
v 0.38637900 0.72320400 -0.10900400
v 0.39627100 0.53499900 -0.05945540
v 0.38307600 0.73972300 -0.13212500
v 0.35665400 0.75291200 -0.13870900
v 0.29061600 0.74631700 -0.12551100
v 0.29722200 0.75291200 -0.13870900
v 0.27740600 0.75291200 -0.15852300
v 0.26419500 0.74631700 -0.19811900
v 0.26254300 0.73560200 -0.21793200
v 0.25758900 0.71331200 -0.23774600
v 0.23249800 0.63147500 -0.17821200
v 0.23249800 0.52972300 -0.17178300
v 0.26749700 0.42602600 -0.22785400
v 0.26419500 0.42272900 -0.19153500
v 0.25758900 0.45573400 -0.23774600
v 0.27740600 0.41610100 -0.13870900
v 0.27740600 0.42108000 -0.11642300
v 0.29722200 0.42932300 -0.09246750
v 0.26749700 0.44584200 -0.08421450
v 0.38637900 0.47060400 -0.06937760
v 0.37647100 0.47555000 -0.05945540
v 0.36656200 0.48052900 -0.04956410
v 0.36986500 0.48877200 -0.04625670
v 0.35665400 0.44913900 -0.07265410
v 0.34184000 0.53437200 -0.02106490
v 0.36656200 0.53005300 -0.02975070
v 0.38637900 0.51023700 -0.04956410
v 0.38968100 0.48877200 -0.06607020
v 0.39627100 0.71331200 -0.13870900
v 0.39627100 0.49536600 -0.07926880
v 0.38307600 0.73972300 -0.19153500
v 0.35665400 0.75291200 -0.19811900
v 0.27740600 0.75291200 -0.19811900
v 0.26749700 0.74796600 -0.20804100
v 0.26254300 0.71578500 -0.25755900
v 0.26749700 0.73807400 -0.22785400
v 0.25758900 0.65386300 -0.29718600
v 0.23249800 0.61096700 -0.19876800
v 0.23249800 0.63075000 -0.17895400
v 0.23249800 0.53565800 -0.18359100
v 0.29061600 0.42932300 -0.24436000
v 0.29722200 0.41610100 -0.21793200
v 0.27740600 0.41610100 -0.19811900
v 0.26749700 0.44584200 -0.26748100
v 0.26089200 0.47884700 -0.27409600
v 0.23249800 0.54258200 -0.19054600
v 0.23249800 0.55544200 -0.20340400
v 0.25758900 0.51518200 -0.29718600
v 0.29722200 0.41610100 -0.11889600
v 0.34674600 0.42108000 -0.10900400
v 0.35665400 0.42849900 -0.09908230
v 0.39133300 0.47307700 -0.07926880
v 0.37647100 0.45573400 -0.07926880
v 0.38307600 0.44913900 -0.09908230
v 0.36656200 0.44089600 -0.08919100
v 0.39627100 0.71331200 -0.21793200
v 0.39627100 0.47555000 -0.09908230
v 0.38968100 0.72650100 -0.22454700
v 0.36986500 0.74631700 -0.20473300
v 0.35665400 0.74796600 -0.22040500
v 0.33683800 0.75291200 -0.21793200
v 0.29722200 0.75291200 -0.21793200
v 0.28731400 0.74796600 -0.22785400
v 0.27740600 0.74054700 -0.23774600
v 0.26749700 0.72815000 -0.24766800
v 0.26749700 0.69844200 -0.28729500
v 0.26254300 0.67615300 -0.29718600
v 0.23249800 0.59240300 -0.21731400
v 0.26419500 0.66045800 -0.31041500
v 0.29061600 0.44913900 -0.28398700
v 0.35665400 0.41610100 -0.21793200
v 0.29722200 0.43591700 -0.25755900
v 0.26749700 0.46565800 -0.28729500
v 0.26089200 0.49866300 -0.29390900
v 0.23249800 0.56935600 -0.21731400
v 0.26419500 0.52181000 -0.31041500
v 0.35665400 0.41610100 -0.13870900
v 0.36656200 0.42108000 -0.12881800
v 0.36656200 0.43097200 -0.10900400
v 0.39133300 0.45326100 -0.11889600
v 0.38307600 0.42932300 -0.13870900
v 0.39133300 0.69349600 -0.26006300
v 0.39133300 0.71331200 -0.24021800
v 0.39627100 0.65386300 -0.27737200
v 0.39627100 0.45573400 -0.13870900
v 0.38637900 0.72320400 -0.24272200
v 0.36656200 0.74302000 -0.22290900
v 0.34674600 0.72815000 -0.26748100
v 0.33683800 0.74631700 -0.23116200
v 0.29722200 0.74631700 -0.23116200
v 0.29722200 0.73972300 -0.24436000
v 0.28731400 0.70833400 -0.28729500
v 0.27740600 0.68027400 -0.30380100
v 0.26749700 0.66870100 -0.30710800
v 0.27740600 0.66705200 -0.31041500
v 0.27740600 0.65386300 -0.31699900
v 0.29722200 0.61423100 -0.33684400
v 0.28401100 0.62082500 -0.33022900
v 0.27080000 0.60763700 -0.32361400
v 0.35004900 0.44913900 -0.28398700
v 0.27080000 0.48877200 -0.30380100
v 0.29722200 0.55481500 -0.33684400
v 0.30382700 0.46236100 -0.29060200
v 0.35665400 0.43591700 -0.25755900
v 0.36326000 0.42272900 -0.23116200
v 0.37151600 0.42602600 -0.22785400
v 0.38307600 0.42932300 -0.21793200
v 0.27080000 0.54822100 -0.32361400
v 0.39133300 0.44584200 -0.22785400
v 0.39133300 0.67368000 -0.27987600
v 0.39627100 0.61423100 -0.29718600
v 0.39627100 0.45573400 -0.21793200
v 0.36656200 0.72320400 -0.26253600
v 0.38637900 0.68357100 -0.28234900
v 0.33683800 0.73972300 -0.24436000
v 0.34674600 0.72320400 -0.27242700
v 0.33683800 0.72073100 -0.27737200
v 0.29722200 0.70668500 -0.29060200
v 0.33683800 0.70668500 -0.29060200
v 0.35665400 0.66705200 -0.31041500
v 0.36656200 0.66375500 -0.31205400
v 0.35665400 0.65386300 -0.31699900
v 0.35665400 0.59441500 -0.33684400
v 0.36326000 0.46236100 -0.29060200
v 0.36326000 0.44254500 -0.27078900
v 0.27740600 0.51518200 -0.31699900
v 0.33683800 0.55481500 -0.33684400
v 0.37151600 0.44584200 -0.26748100
v 0.38389400 0.45573400 -0.25755900
v 0.39133300 0.50529100 -0.28729500
v 0.39133300 0.63404700 -0.29969000
v 0.38307600 0.65386300 -0.30380100
v 0.38968100 0.61423100 -0.31041500
v 0.39627100 0.55481500 -0.29718600
v 0.39133300 0.54492300 -0.30710800
v 0.39627100 0.51518200 -0.27737200
v 0.36656200 0.70338800 -0.28234900
v 0.35665400 0.71331200 -0.27737200
v 0.34674600 0.70338800 -0.29224000
v 0.35665400 0.68027400 -0.30380100
v 0.37647100 0.61423100 -0.32444900
v 0.36656200 0.60430600 -0.33186700
v 0.38307600 0.59441500 -0.32361400
v 0.35665400 0.57463100 -0.33684400
v 0.34344400 0.54159300 -0.33022900
v 0.36326000 0.50199400 -0.31041500
v 0.37151600 0.46565800 -0.28729500
v 0.35912300 0.55481500 -0.33186700
v 0.38389400 0.47555000 -0.27737200
v 0.38307600 0.51518200 -0.30380100
v 0.38637900 0.62412300 -0.31205400
v 0.38968100 0.55481500 -0.31041500
v 0.38307600 0.57463100 -0.32361400
v 0.36160800 0.54492300 -0.32692200
v 0.37151600 0.50529100 -0.30710800
f 125 153 127
f 130 156 157
f 130 154 156
f 130 155 154
f 127 130 128
f 127 155 130
f 127 154 155
f 127 153 154
f 125 127 126
f 125 152 153
f 119 148 120
f 124 151 152
f 122 124 123
f 122 151 124
f 122 150 151
f 122 149 150
f 121 149 122
f 121 148 149
f 120 148 121
f 119 144 147
f 130 157 158
f 119 147 148
f 124 152 125
f 130 158 159
f 132 186 166
f 130 160 169
f 142 170 146
f 117 171 143
f 142 168 170
f 141 142 146
f 139 142 140
f 138 142 139
f 137 187 162
f 137 169 187
f 135 137 162
f 134 135 162
f 132 142 138
f 132 168 142
f 132 167 168
f 132 166 167
f 132 165 186
f 131 185 161
f 131 164 185
f 131 163 164
f 131 162 163
f 131 134 162
f 131 165 133
f 131 161 165
f 130 169 137
f 130 159 160
f 117 145 171
f 81 88 84
f 117 143 144
f 97 125 126
f 96 127 128
f 96 126 127
f 96 97 126
f 95 125 97
f 95 124 125
f 94 124 95
f 94 123 124
f 93 120 121
f 93 121 122
f 92 117 119
f 92 119 120
f 91 113 118
f 89 113 91
f 85 116 114
f 85 112 116
f 84 88 87
f 82 84 83
f 81 115 113
f 81 114 115
f 81 85 114
f 81 84 82
f 143 171 175
f 98 129 99
f 117 144 119
f 98 128 130
f 98 137 109
f 115 140 142
f 115 116 140
f 114 116 115
f 113 146 118
f 113 141 146
f 113 142 141
f 113 115 142
f 112 140 116
f 112 139 140
f 111 139 112
f 111 138 139
f 110 138 111
f 109 137 135
f 108 136 109
f 105 134 131
f 105 135 134
f 105 106 135
f 103 165 132
f 103 133 165
f 102 133 103
f 102 131 133
f 98 136 129
f 98 109 136
f 98 130 137
f 143 175 147
f 188 209 207
f 145 172 192
f 188 205 209
f 185 189 186
f 185 208 189
f 185 216 208
f 185 207 216
f 185 206 207
f 185 188 206
f 184 214 205
f 184 204 214
f 184 203 204
f 182 200 198
f 182 201 200
f 182 184 183
f 182 203 184
f 182 202 203
f 182 193 202
f 181 201 182
f 180 201 181
f 180 200 201
f 178 180 179
f 178 200 180
f 177 200 178
f 177 199 200
f 188 207 206
f 175 182 198
f 189 208 210
f 191 211 196
f 81 113 89
f 209 211 215
f 209 214 211
f 208 216 211
f 207 215 216
f 207 209 215
f 205 214 209
f 202 212 204
f 202 204 203
f 198 200 199
f 196 214 213
f 196 211 214
f 194 214 204
f 194 213 214
f 194 196 213
f 194 204 212
f 193 212 202
f 192 212 193
f 192 194 212
f 191 208 211
f 191 210 208
f 191 195 197
f 191 196 195
f 189 210 190
f 143 147 144
f 175 193 182
f 172 196 194
f 158 181 182
f 158 180 181
f 158 179 180
f 156 158 157
f 156 179 158
f 154 179 156
f 153 178 179
f 153 179 154
f 152 178 153
f 150 152 151
f 150 176 152
f 149 152 176
f 149 178 152
f 149 177 178
f 149 199 177
f 149 174 199
f 149 176 150
f 148 174 149
f 147 198 174
f 147 175 198
f 211 216 215
f 146 170 173
f 145 192 171
f 158 182 183
f 174 198 199
f 158 183 184
f 158 205 188
f 172 195 196
f 172 194 192
f 171 193 175
f 171 192 193
f 170 197 173
f 170 191 197
f 170 210 191
f 170 190 210
f 170 189 190
f 168 189 170
f 167 189 168
f 166 189 167
f 166 186 189
f 163 187 169
f 163 185 164
f 163 188 185
f 162 187 163
f 161 186 165
f 161 185 186
f 158 160 159
f 158 169 160
f 158 163 169
f 158 188 163
f 158 184 205
f 79 112 85
f 147 174 148
f 79 110 111
f 22 39 69
f 22 38 39
f 22 37 38
f 21 37 22
f 21 36 37
f 20 36 21
f 20 35 36
f 20 26 35
f 18 30 32
f 18 54 26
f 18 34 54
f 18 33 34
f 18 64 33
f 18 32 64
f 17 30 18
f 16 30 17
f 15 59 30
f 15 31 59
f 15 28 31
f 13 58 28
f 13 29 58
f 13 15 14
f 13 28 15
f 22 69 40
f 12 29 13
f 22 40 23
f 23 41 24
f 30 62 32
f 30 90 62
f 30 61 90
f 30 60 61
f 30 59 60
f 29 57 58
f 28 63 31
f 28 58 63
f 27 57 29
f 27 56 57
f 27 55 56
f 26 54 35
f 25 52 53
f 25 51 52
f 25 50 51
f 25 49 50
f 25 48 49
f 25 47 48
f 25 46 47
f 25 45 46
f 25 44 45
f 25 43 44
f 25 42 43
f 23 40 41
f 31 63 91
f 12 27 29
f 9 20 10
f 4 15 30
f 4 14 15
f 4 13 14
f 4 12 13
f 4 11 12
f 3 11 4
f 2 10 7
f 2 9 10
f 2 7 8
f 1 9 2
f 1 6 9
f 1 5 6
f 1 4 5
f 1 3 4
f 1 11 3
f 1 12 11
f 1 27 12
f 1 55 27
f 1 86 55
f 1 53 86
f 1 25 53
f 1 8 25
f 79 111 112
f 4 30 16
f 10 20 19
f 4 16 6
f 6 16 17
f 9 26 20
f 8 42 25
f 8 73 42
f 8 101 73
f 8 107 101
f 8 108 107
f 8 136 108
f 8 129 136
f 8 99 129
f 8 100 99
f 8 72 100
f 8 41 72
f 8 24 41
f 8 23 24
f 8 22 23
f 8 21 22
f 8 20 21
f 8 19 20
f 8 10 19
f 7 10 8
f 6 26 9
f 6 18 26
f 6 17 18
f 4 6 5
f 31 91 118
f 1 2 8
f 31 146 173
f 65 68 67
f 65 94 68
f 65 123 94
f 65 122 123
f 65 93 122
f 64 117 92
f 64 90 117
f 64 93 65
f 64 120 93
f 64 92 120
f 59 61 60
f 58 91 63
f 58 89 91
f 58 81 89
f 58 88 81
f 57 88 58
f 57 87 88
f 56 84 87
f 56 87 57
f 55 86 56
f 54 67 66
f 52 86 53
f 52 56 86
f 69 95 70
f 52 84 56
f 70 95 97
f 71 96 128
f 31 118 146
f 78 110 79
f 77 138 110
f 77 132 138
f 77 103 132
f 77 104 103
f 77 110 78
f 76 135 106
f 76 109 135
f 76 108 109
f 76 107 108
f 76 101 107
f 76 106 105
f 74 131 102
f 74 105 131
f 74 104 75
f 74 103 104
f 74 102 103
f 73 101 76
f 71 100 72
f 71 99 100
f 71 98 99
f 71 128 98
f 70 97 96
f 51 85 81
f 62 90 64
f 51 83 84
f 39 95 69
f 39 94 95
f 39 68 94
f 38 68 39
f 38 67 68
f 38 66 67
f 37 66 38
f 35 37 36
f 35 66 37
f 35 54 66
f 34 67 54
f 34 65 67
f 51 84 52
f 33 64 65
f 32 62 64
f 31 61 59
f 31 90 61
f 31 117 90
f 31 145 117
f 31 172 145
f 31 195 172
f 31 197 195
f 31 173 197
f 40 69 70
f 40 70 96
f 33 65 34
f 40 71 72
f 51 82 83
f 40 96 71
f 51 81 82
f 49 51 50
f 49 85 51
f 49 79 85
f 47 80 48
f 46 80 47
f 46 49 80
f 46 79 49
f 46 78 79
f 45 78 46
f 48 80 49
f 43 75 45
f 45 104 77
f 45 75 104
f 43 105 74
f 43 76 105
f 40 72 41
f 43 73 76
f 43 45 44
f 42 73 43
f 43 74 75
f 45 77 78

