# https://github.com/mikedh/trimesh
v 0.14791500 0.40947500 0.28073800
v -0.09369950 0.40947500 0.28073800
v 0.14791500 0.40947500 -0.10044700
v 0.14791500 0.55481000 0.27737100
v -0.09369950 0.40947500 -0.16480500
v -0.09369950 0.55481000 0.27737100
v 0.14529000 0.40947500 -0.10567400
v 0.14791500 0.57992200 -0.15320000
v 0.14791500 0.73309300 0.25757200
v -0.09313190 0.40947500 -0.16617800
v -0.09369950 0.77274300 -0.13867200
v -0.09369950 0.73309300 0.25757200
v 0.09077510 0.40947500 -0.16932300
v 0.14791500 0.59974700 -0.15320000
v 0.14791500 0.83217000 0.23772900
v -0.08984440 0.40947500 -0.16910100
v -0.09369950 0.87182000 -0.11887300
v 0.09905280 0.77274300 -0.13867200
v -0.07924900 0.40947500 -0.17175900
v -0.09369950 0.83217000 0.23772900
v 0.07944650 0.40947500 -0.17175900
v 0.14791500 0.87182000 -0.11887300
v -0.09369950 0.83755100 0.23507200
v 0.14791500 0.84538700 0.23112900
v -0.09369950 0.88503700 -0.11227300
v 0.14791500 0.88503700 -0.11227300
v -0.09369950 0.84538700 0.23112900
v 0.14791500 0.85199500 0.21793000
v -0.09369950 0.88683100 -0.10868600
v 0.14791500 0.89164500 -0.09902970
v -0.09369950 0.85199500 0.21793000
v 0.14791500 0.89164500 -0.05943190
v -0.09369950 0.89164500 -0.09902970
v -0.09369950 0.89164500 -0.05943190
f 13 21 14
f 11 19 16
f 11 21 19
f 11 18 21
f 11 22 18
f 11 17 22
f 10 11 16
f 8 13 14
f 9 15 20
f 7 13 8
f 5 11 10
f 4 12 6
f 4 9 12
f 9 20 12
f 14 21 18
f 30 34 32
f 15 23 20
f 15 24 23
f 17 25 26
f 17 26 22
f 23 24 27
f 24 28 31
f 24 31 27
f 25 29 26
f 26 29 30
f 28 32 34
f 28 34 31
f 29 33 30
f 30 33 34
f 3 7 8
f 14 18 22
f 2 11 5
f 1 24 15
f 2 25 17
f 2 17 11
f 1 5 10
f 1 10 16
f 1 16 19
f 1 19 21
f 1 21 13
f 1 13 7
f 1 7 3
f 1 3 8
f 1 8 14
f 1 14 22
f 1 22 26
f 1 26 30
f 1 30 32
f 1 32 28
f 1 2 5
f 2 27 31
f 1 15 9
f 1 9 4
f 1 4 6
f 1 6 2
f 2 6 12
f 2 12 20
f 2 20 23
f 2 23 27
f 1 28 24
f 2 31 34
f 2 34 33
f 2 33 29
f 2 29 25

