# https://github.com/mikedh/trimesh
v -0.20597900 0.40942800 -0.04376580
v -0.25594600 0.49975200 -0.21355900
v -0.25594600 0.53936900 -0.25320600
v -0.20597900 0.54611600 -0.17228900
v -0.20597900 0.40942800 0.28073700
v -0.22456700 0.40942800 -0.02637800
v -0.24437200 0.40942800 -0.00658097
v -0.25594600 0.40945300 0.00672178
v -0.25594600 0.55971300 -0.25430500
v -0.22291300 0.58450600 -0.20800800
v -0.20597900 0.57461400 -0.18224000
v -0.20597900 0.55478100 -0.17747400
v -0.20597900 0.55478100 0.27738600
v -0.25594600 0.40942800 0.28073700
v -0.25464000 0.40942800 0.00572669
v -0.25594600 0.40942800 0.03552690
v -0.25594600 0.59442200 -0.25430500
v -0.20597900 0.59442200 -0.18224000
v -0.25594600 0.55478100 0.27738600
v -0.20597900 0.67051100 0.25753600
v -0.25594600 0.61423000 -0.25016800
v -0.20597900 0.61423000 -0.17674100
v -0.25594600 0.67051100 0.25753600
v -0.20597900 0.67051100 -0.04376580
v -0.25594600 0.65387200 -0.21057400
v -0.20597900 0.65037100 -0.14694100
v -0.20597900 0.64643500 -0.15081600
v -0.20597900 0.62205100 -0.17281300
v -0.25594600 0.67051100 0.00913094
v -0.25594600 0.67038300 -0.17663600
v -0.22456700 0.67051100 -0.02637800
v -0.20597900 0.65801300 -0.12253500
v -0.25594600 0.66711200 -0.19727100
v -0.24437200 0.67051100 -0.00658097
f 13 20 23
f 8 15 16
f 10 18 11
f 10 17 18
f 9 17 10
f 7 15 8
f 3 9 10
f 5 13 19
f 3 12 4
f 3 11 12
f 3 10 11
f 13 23 19
f 5 19 14
f 17 21 18
f 29 34 30
f 20 24 31
f 2 9 3
f 20 34 29
f 20 29 23
f 21 25 26
f 21 26 27
f 21 27 28
f 21 28 22
f 24 30 31
f 24 32 33
f 24 33 30
f 25 33 26
f 26 33 32
f 30 34 31
f 18 21 22
f 2 17 9
f 20 31 34
f 2 25 21
f 2 21 17
f 1 2 3
f 1 3 4
f 1 4 12
f 1 11 18
f 1 18 22
f 1 22 28
f 1 28 27
f 1 27 26
f 1 26 32
f 1 32 24
f 1 24 20
f 1 20 13
f 1 13 5
f 1 5 14
f 1 12 11
f 1 16 15
f 1 14 16
f 2 33 25
f 2 30 33
f 2 23 29
f 2 19 23
f 2 14 19
f 2 29 30
f 2 8 16
f 2 7 8
f 2 6 7
f 1 6 2
f 1 7 6
f 2 16 14
f 1 15 7

