# https://github.com/mikedh/trimesh
v -0.19662600 -0.43439500 -0.05380100
v -0.37722600 -0.43439500 -0.05380100
v -0.19615600 -0.43443600 -0.05380100
v -0.19662600 -0.43439500 -0.10212000
v -0.37722600 -0.43439500 -0.05792920
v -0.39628700 -0.49538700 -0.15852900
v -0.39628700 -0.51521300 -0.11891000
v -0.39628700 -0.53499900 -0.09907230
v -0.39628700 -0.57465100 -0.05945300
v -0.39344600 -0.56901000 -0.05380100
v -0.19615600 -0.43443600 -0.10203700
v -0.19615600 -0.85201700 -0.05380100
v -0.35512800 -0.43439500 -0.10212000
v -0.29720100 -0.45573400 -0.19812100
v -0.37677500 -0.43439500 -0.05975780
v -0.38637400 -0.48050700 -0.20803900
v -0.38966500 -0.48218300 -0.19812100
v -0.39628700 -0.49538700 -0.19812100
v -0.39628700 -0.67366100 -0.05945300
v -0.39344600 -0.67366100 -0.05380100
v -0.26254600 -0.55482500 -0.29969000
v -0.26254600 -0.51521300 -0.27985300
v -0.26254600 -0.49538700 -0.26004300
v -0.26750200 -0.48545300 -0.25261800
v -0.26419200 -0.48218300 -0.24436200
v -0.27741500 -0.47556000 -0.23776800
v -0.19615600 -0.63409000 -0.19812100
v -0.19815400 -0.85201700 -0.05380100
v -0.19615600 -0.85201700 -0.07926270
v -0.35816500 -0.43439500 -0.10059600
v -0.33683100 -0.45573400 -0.19812100
v -0.37493400 -0.43439500 -0.06707210
v -0.36654900 -0.48050700 -0.24765900
v -0.38306400 -0.48876400 -0.23776800
v -0.39133000 -0.49289300 -0.21793000
v -0.37138800 -0.43439500 -0.07773880
v -0.36731300 -0.43439500 -0.08992940
v -0.39628700 -0.51521300 -0.23776800
v -0.39628700 -0.71331300 -0.07926270
v -0.39133000 -0.69348700 -0.05698720
v -0.39084100 -0.68764100 -0.05380100
v -0.26419200 -0.57465100 -0.31041200
v -0.26750200 -0.56471800 -0.31207500
v -0.26750200 -0.52510600 -0.29223700
v -0.27741500 -0.50859100 -0.28398100
v -0.27741500 -0.48876400 -0.26417100
v -0.35665600 -0.47556000 -0.23776800
v -0.19615600 -0.64839700 -0.19271800
v -0.26254600 -0.70338000 -0.30711500
v -0.26419200 -0.69348700 -0.31041200
v -0.27081300 -0.65383400 -0.32362800
v -0.27081300 -0.61426300 -0.32362800
v -0.19815400 -0.85201700 -0.07926270
v -0.21513800 -0.84915500 -0.05380100
v -0.19615600 -0.85001300 -0.08920910
v -0.34674400 -0.46072100 -0.20803900
v -0.35665600 -0.48876400 -0.26417100
v -0.38637400 -0.51022600 -0.26746800
v -0.39133000 -0.51271900 -0.25757700
v -0.39628700 -0.53499900 -0.25757700
v -0.39628700 -0.75292500 -0.11891000
v -0.39133000 -0.75292500 -0.09660650
v -0.39133000 -0.73309900 -0.07679690
v -0.38333800 -0.71413100 -0.05380100
v -0.39005700 -0.69095300 -0.05380100
v -0.28732700 -0.54493200 -0.31207500
v -0.27741500 -0.53499900 -0.30462200
v -0.27741500 -0.59443700 -0.32445900
v -0.28732700 -0.60437000 -0.33188400
v -0.29720100 -0.52841700 -0.30381800
v -0.19615600 -0.84048900 -0.10741200
v -0.27245900 -0.72320600 -0.30711500
v -0.27492700 -0.71331300 -0.31207500
v -0.26254600 -0.74303300 -0.28730600
v -0.29720100 -0.65383400 -0.33684400
v -0.29720100 -0.61426300 -0.33684400
v -0.22636300 -0.84633400 -0.05380100
v -0.35665600 -0.79253700 -0.21793000
v -0.33683100 -0.79253700 -0.23776800
v -0.19615600 -0.84805100 -0.09513810
v -0.35665600 -0.52841700 -0.30381800
v -0.38637400 -0.53005200 -0.28730600
v -0.39133000 -0.53254600 -0.27738700
v -0.39628700 -0.55482500 -0.27738700
v -0.39628700 -0.75292500 -0.23776800
v -0.38306400 -0.77933300 -0.12550400
v -0.38966500 -0.76612900 -0.11228800
v -0.38637400 -0.76281800 -0.09414070
v -0.38637400 -0.74303300 -0.07433100
v -0.38210400 -0.71617500 -0.05380100
v -0.29720100 -0.55482500 -0.31700600
v -0.35665600 -0.55482500 -0.31700600
v -0.19615600 -0.84739700 -0.09710520
v -0.27245900 -0.78264500 -0.24765900
v -0.27081300 -0.76612900 -0.27079300
v -0.26254600 -0.76281800 -0.26746800
v -0.29061900 -0.72651700 -0.31041200
v -0.27081300 -0.74630300 -0.29060300
v -0.29720100 -0.71331300 -0.31700600
v -0.33683100 -0.65383400 -0.33684400
v -0.33683100 -0.61426300 -0.33684400
v -0.23069300 -0.84490400 -0.05380100
v -0.35665600 -0.79253700 -0.11891000
v -0.36986000 -0.78595600 -0.21133600
v -0.38306400 -0.77933300 -0.22455200
v -0.36654900 -0.78264500 -0.24765900
v -0.35334600 -0.78926700 -0.23444300
v -0.34343300 -0.77933300 -0.26417100
v -0.33022900 -0.78595600 -0.25095600
v -0.29720100 -0.79253700 -0.23776800
v -0.36654900 -0.53994500 -0.30711500
v -0.36986000 -0.54820200 -0.31041200
v -0.38637400 -0.56966400 -0.30711500
v -0.38966500 -0.54820200 -0.29060300
v -0.39628700 -0.59443700 -0.29719700
v -0.38637400 -0.74303300 -0.28730600
v -0.38637400 -0.76281800 -0.26746800
v -0.39628700 -0.71331300 -0.27738700
v -0.36986000 -0.78595600 -0.11228800
v -0.24342600 -0.83783100 -0.05380100
v -0.37270000 -0.72933800 -0.05380100
v -0.35665600 -0.61177000 -0.33188400
v -0.29061900 -0.78595600 -0.25095600
v -0.28401700 -0.75954800 -0.28398100
v -0.30380300 -0.73972100 -0.30381800
v -0.33683100 -0.71331300 -0.31700600
v -0.36654900 -0.66376800 -0.32692500
v -0.35665600 -0.63409000 -0.33684400
v -0.36654900 -0.72320600 -0.30711500
v -0.36325800 -0.75954800 -0.28398100
v -0.30380300 -0.77933300 -0.26417100
v -0.38966500 -0.58785500 -0.31041200
v -0.36986000 -0.62746700 -0.33022200
v -0.38306400 -0.64067100 -0.32362800
v -0.39628700 -0.65383400 -0.29719700
v -0.34343300 -0.73972100 -0.30381800
v -0.38637400 -0.68359400 -0.30711500
v -0.37977200 -0.65714500 -0.32033100
f 75 101 76
f 75 128 101
f 75 100 128
f 75 126 100
f 75 99 126
f 73 97 99
f 74 96 95
f 73 99 75
f 72 98 97
f 72 74 98
f 76 101 92
f 72 97 73
f 74 95 98
f 76 92 91
f 78 107 79
f 78 103 119
f 71 96 74
f 81 92 111
f 79 93 80
f 79 110 93
f 79 123 110
f 79 109 123
f 77 102 78
f 79 108 109
f 79 107 106
f 78 102 103
f 78 106 107
f 78 105 106
f 78 104 105
f 78 119 104
f 79 106 108
f 71 95 96
f 134 137 135
f 71 93 94
f 51 75 76
f 81 111 82
f 51 76 52
f 52 76 69
f 52 69 68
f 53 54 77
f 53 77 78
f 53 78 79
f 53 79 55
f 55 79 80
f 57 81 82
f 57 82 58
f 58 82 59
f 59 82 83
f 59 83 84
f 59 84 60
f 61 85 105
f 66 81 70
f 66 92 81
f 66 91 92
f 66 76 91
f 66 69 76
f 66 70 67
f 71 94 95
f 64 89 90
f 62 89 63
f 62 88 89
f 62 87 88
f 61 87 62
f 61 86 87
f 61 105 86
f 63 89 64
f 82 111 112
f 106 130 108
f 82 113 114
f 106 117 130
f 108 123 109
f 108 130 124
f 108 124 131
f 112 132 113
f 112 122 133
f 112 133 132
f 113 132 114
f 114 132 115
f 115 132 134
f 115 134 135
f 116 136 130
f 116 130 117
f 116 118 137
f 105 117 106
f 116 137 134
f 116 138 129
f 116 129 136
f 118 135 137
f 122 128 133
f 123 131 124
f 124 130 136
f 124 136 125
f 126 136 129
f 127 138 134
f 127 134 128
f 127 129 138
f 128 134 133
f 132 133 134
f 51 73 75
f 116 134 138
f 82 112 113
f 102 119 103
f 101 128 122
f 82 114 83
f 83 114 84
f 84 114 115
f 85 116 117
f 85 117 105
f 85 118 116
f 86 105 104
f 86 104 119
f 86 119 88
f 86 88 87
f 88 119 120
f 88 120 89
f 89 121 90
f 89 120 121
f 102 120 119
f 92 112 111
f 92 122 112
f 93 110 123
f 93 123 94
f 94 123 95
f 95 124 98
f 95 123 124
f 97 98 125
f 97 125 136
f 97 136 126
f 97 126 99
f 98 124 125
f 100 127 128
f 100 126 129
f 100 129 127
f 92 101 122
f 50 73 51
f 108 131 123
f 49 71 74
f 3 93 71
f 3 71 48
f 3 48 27
f 4 11 14
f 4 14 31
f 4 31 13
f 5 15 16
f 5 16 17
f 5 17 18
f 6 18 38
f 6 38 60
f 6 60 84
f 6 84 115
f 6 115 135
f 3 80 93
f 6 135 118
f 6 85 61
f 6 61 39
f 6 39 19
f 6 19 9
f 6 9 8
f 6 8 7
f 9 19 20
f 9 20 10
f 11 21 22
f 11 22 23
f 11 23 24
f 11 24 25
f 11 25 26
f 11 26 14
f 6 118 85
f 3 55 80
f 3 29 55
f 3 12 29
f 49 74 72
f 1 2 10
f 1 10 20
f 1 20 41
f 1 41 65
f 1 65 64
f 1 64 90
f 1 90 121
f 1 121 120
f 1 120 102
f 1 102 77
f 1 77 54
f 1 54 28
f 1 28 12
f 1 12 3
f 1 3 11
f 1 11 4
f 2 9 10
f 2 8 9
f 2 7 8
f 2 6 7
f 2 18 6
f 2 5 18
f 11 27 21
f 1 5 2
f 1 32 15
f 1 36 32
f 1 37 36
f 1 30 37
f 1 13 30
f 1 4 13
f 1 15 5
f 12 28 53
f 3 27 11
f 13 31 30
f 30 31 56
f 30 56 37
f 31 47 33
f 31 33 56
f 33 47 57
f 33 57 58
f 33 58 34
f 33 37 56
f 34 58 59
f 34 59 35
f 38 59 60
f 39 61 62
f 39 62 63
f 39 63 40
f 40 64 65
f 40 65 41
f 40 63 64
f 49 73 50
f 49 72 73
f 48 71 49
f 12 53 29
f 46 70 81
f 45 70 46
f 29 53 55
f 45 67 70
f 43 69 66
f 43 68 69
f 43 52 68
f 43 67 44
f 43 66 67
f 42 52 43
f 44 67 45
f 28 54 53
f 46 81 57
f 27 51 52
f 27 52 42
f 14 26 47
f 15 32 16
f 16 33 34
f 16 34 35
f 16 35 17
f 16 32 36
f 16 36 37
f 16 37 33
f 17 35 18
f 18 35 59
f 18 59 38
f 19 39 40
f 19 40 41
f 19 41 20
f 14 47 31
f 21 43 44
f 21 42 43
f 27 49 50
f 27 48 49
f 26 57 47
f 26 46 57
f 24 46 26
f 27 50 51
f 23 46 24
f 22 46 23
f 22 45 46
f 22 44 45
f 21 44 22
f 24 26 25
f 21 27 42

