# https://github.com/mikedh/trimesh
v -0.39133300 -0.88172700 0.06933810
v -0.38967100 -0.87842800 -0.01980270
v -0.38967100 -0.88502600 -0.01320360
v -0.38967100 -0.88502600 0.06604600
v -0.37646900 -0.88668600 0.08172840
v -0.36655400 -0.88172700 0.09410360
v -0.36985900 -0.73314600 0.09245760
v -0.36985900 -0.70212200 0.09245760
v -0.37646900 -0.70212200 0.07924430
v -0.38615600 -0.70212200 -0.05380100
v -0.38636600 -0.88172700 -0.02970890
v -0.37646900 -0.89164500 -0.01980270
v -0.37646900 -0.89164500 0.05943190
v -0.36655400 -0.88668600 0.08915050
v -0.23778600 -0.89824300 0.06604600
v -0.19615600 -0.88502600 0.07264520
v -0.19615600 -0.81238500 0.09907170
v -0.33682600 -0.81238500 0.09907170
v -0.35665700 -0.73314600 0.09907170
v -0.35665700 -0.70212200 0.09907170
v -0.26042500 -0.70212200 -0.05380100
v -0.38499000 -0.70755200 -0.05380100
v -0.35665700 -0.87842800 -0.05282830
v -0.36655400 -0.88172700 -0.04952130
v -0.37316400 -0.88832500 -0.03632300
v -0.27741000 -0.91143900 0.00000970
v -0.35665700 -0.89164500 -0.03961510
v -0.27741000 -0.91143900 0.03961950
v -0.27741000 -0.89824300 0.06604600
v -0.22787000 -0.90650100 0.04952570
v -0.21797400 -0.89906200 0.05943190
v -0.19615600 -0.88695200 0.05943190
v -0.19615600 -0.70212200 0.09907170
v -0.19615600 -0.70212200 -0.05052390
v -0.19615600 -0.73523600 -0.05380100
v -0.38355700 -0.71333100 -0.05380100
v -0.35004700 -0.88502600 -0.05282830
v -0.38334700 -0.71415000 -0.05380100
v -0.38210500 -0.71622000 -0.05380100
v -0.37270600 -0.72937500 -0.05380100
v -0.23778600 -0.91143900 0.00000970
v -0.28402000 -0.89824300 -0.02641680
v -0.19615600 -0.88965700 -0.04359550
v -0.23778600 -0.91143900 0.03961950
v -0.21136300 -0.89824300 0.03961950
v -0.19615600 -0.88703400 0.05881840
v -0.19615600 -0.89164500 -0.03961510
v -0.19615600 -0.85201500 -0.05380100
v -0.24342200 -0.83783500 -0.05380100
v -0.23069800 -0.84492500 -0.05380100
v -0.22636100 -0.84635900 -0.05380100
v -0.19615600 -0.87851000 -0.05348680
v -0.19615600 -0.88502600 -0.05282830
v -0.23117500 -0.90484100 -0.01320360
v -0.24437700 -0.89824300 -0.02641680
v -0.19816200 -0.85201500 -0.05380100
v -0.21512700 -0.84916600 -0.05380100
f 17 19 18
f 21 34 35
f 22 36 23
f 23 37 24
f 23 38 39
f 23 39 40
f 23 40 37
f 17 20 19
f 24 27 25
f 23 36 38
f 24 37 27
f 16 52 48
f 16 33 17
f 16 34 33
f 16 35 34
f 16 48 35
f 16 53 52
f 16 43 53
f 16 47 43
f 16 46 47
f 16 32 46
f 16 30 32
f 26 41 44
f 16 31 30
f 17 33 20
f 26 44 28
f 37 50 51
f 26 42 55
f 15 31 16
f 52 57 56
f 51 57 52
f 48 52 56
f 45 47 46
f 43 54 55
f 43 47 54
f 42 43 55
f 41 47 44
f 41 54 47
f 37 53 43
f 26 27 42
f 37 52 53
f 37 49 50
f 37 40 49
f 30 44 47
f 30 46 32
f 30 45 46
f 28 30 29
f 28 44 30
f 27 43 42
f 27 37 43
f 26 54 41
f 26 55 54
f 37 51 52
f 15 30 31
f 30 47 45
f 14 29 15
f 7 19 20
f 6 19 7
f 6 18 19
f 6 17 18
f 6 16 17
f 6 15 16
f 6 14 15
f 5 13 14
f 5 14 6
f 15 29 30
f 4 13 5
f 7 20 8
f 3 11 12
f 3 12 13
f 2 10 11
f 2 11 3
f 1 10 2
f 1 9 10
f 1 8 9
f 1 7 8
f 1 6 7
f 1 5 6
f 1 3 4
f 1 2 3
f 3 13 4
f 8 20 33
f 1 4 5
f 8 34 21
f 8 33 34
f 14 28 29
f 12 27 26
f 12 25 27
f 12 28 13
f 12 26 28
f 11 25 12
f 11 24 25
f 10 24 11
f 10 23 24
f 10 22 23
f 10 36 22
f 13 28 14
f 10 39 38
f 10 38 36
f 8 10 9
f 10 21 35
f 10 35 48
f 10 48 56
f 8 21 10
f 10 57 51
f 10 51 50
f 10 50 49
f 10 49 40
f 10 40 39
f 10 56 57

