# https://github.com/mikedh/trimesh
v 0.33016900 0.40942700 0.28073800
v 0.23249800 0.40942700 0.28073800
v 0.34996900 0.40942700 0.27872900
v 0.35665400 0.43593000 0.27739900
v 0.33683800 0.51520000 0.27739900
v 0.31702200 0.55481900 0.27739900
v 0.23249800 0.40942700 -0.01252720
v 0.23249800 0.55481900 0.27739900
v 0.35665400 0.40942700 0.27739900
v 0.36986500 0.42933800 0.27078200
v 0.36326000 0.70007600 0.24437100
v 0.33683800 0.69348400 0.25757600
v 0.31702200 0.73310200 0.25757600
v 0.23249800 0.52569400 -0.02106490
v 0.33683800 0.53248700 -0.02106490
v 0.34184000 0.53437100 -0.02106490
v 0.37647100 0.40942700 0.01648320
v 0.23249800 0.73310200 0.25757600
v 0.36978500 0.40942700 0.27081100
v 0.36986500 0.40952800 0.27078200
v 0.36989700 0.40942700 0.27072300
v 0.37647100 0.43593000 0.25757600
v 0.36986500 0.74632000 0.23116600
v 0.35663800 0.75301300 0.23775400
v 0.33690200 0.75301300 0.24268700
v 0.32492600 0.75301300 0.24567100
v 0.31708600 0.75301300 0.24762100
v 0.23249800 0.74766500 0.25030900
v 0.23249800 0.62211700 -0.02106490
v 0.35665400 0.54920200 -0.02106490
v 0.39022600 0.40942700 0.02336650
v 0.35915500 0.55357500 -0.02106490
v 0.37647100 0.40942700 0.25757600
v 0.39627100 0.75301300 0.09908300
v 0.37647100 0.75291200 0.21793100
v 0.37645500 0.75301300 0.21793100
v 0.36851800 0.75301300 0.22980700
v 0.23249800 0.75301300 0.24762100
v 0.23249800 0.75301300 -0.02059220
v 0.29597100 0.63654500 -0.02106490
v 0.39460300 0.40942700 0.03214050
v 0.38878400 0.75301300 -0.00011952
v 0.38888000 0.75301300 0.00002820
v 0.35915500 0.61296900 -0.02106490
v 0.37653500 0.75301300 -0.00992751
v 0.39627100 0.40942700 0.09908300
v 0.39627100 0.75301300 0.01982140
v 0.35540400 0.62046900 -0.02106490
v 0.34309100 0.63277800 -0.02106490
v 0.33808900 0.63530000 -0.02106490
v 0.33558800 0.63654500 -0.02106490
v 0.39627100 0.40942700 0.03964420
v 0.39627100 0.75291200 0.01982140
v 0.35790500 0.61549100 -0.02106490
f 24 47 43
f 22 46 34
f 24 36 34
f 24 37 36
f 23 37 24
f 23 36 37
f 23 35 36
f 22 35 23
f 22 34 35
f 24 34 47
f 16 30 17
f 21 33 22
f 19 21 20
f 17 32 31
f 17 30 32
f 14 16 15
f 14 30 16
f 14 32 30
f 14 44 32
f 14 54 44
f 24 42 45
f 14 48 54
f 22 33 46
f 24 45 39
f 34 52 53
f 24 38 27
f 14 49 48
f 45 54 48
f 44 54 45
f 43 47 53
f 41 53 52
f 41 43 53
f 39 51 40
f 39 50 51
f 39 49 50
f 39 48 49
f 39 45 48
f 34 53 47
f 34 46 52
f 34 36 35
f 32 45 42
f 32 44 45
f 31 43 41
f 31 42 43
f 31 32 42
f 29 39 40
f 27 38 28
f 24 26 25
f 24 27 26
f 24 39 38
f 14 50 49
f 24 43 42
f 14 40 51
f 2 14 7
f 2 29 14
f 2 39 29
f 2 38 39
f 2 28 38
f 2 18 28
f 2 8 18
f 1 8 2
f 1 6 8
f 1 5 6
f 1 4 5
f 1 3 4
f 1 9 3
f 1 19 9
f 1 21 19
f 1 33 21
f 1 46 33
f 1 52 46
f 1 41 52
f 1 31 41
f 1 17 31
f 1 7 17
f 14 51 50
f 3 9 4
f 4 9 20
f 1 2 7
f 4 10 11
f 4 20 10
f 13 28 18
f 13 27 28
f 13 26 27
f 13 25 26
f 13 24 25
f 12 24 13
f 11 23 24
f 10 23 11
f 10 22 23
f 10 21 22
f 11 24 12
f 9 19 20
f 14 29 40
f 10 20 21
f 4 12 5
f 5 12 13
f 5 13 6
f 4 11 12
f 6 18 8
f 7 14 15
f 7 15 16
f 7 16 17
f 6 13 18

