# https://github.com/mikedh/trimesh
v 0.39627100 0.83220500 0.17832900
v 0.38968100 0.84540400 0.17169100
v 0.38637900 0.84210000 0.20803600
v 0.39298400 0.82890200 0.19483300
v 0.39627100 0.81239900 0.17832900
v 0.39627100 0.87181700 -0.05943590
v 0.38968100 0.88503100 -0.06603750
v 0.38637900 0.80743600 0.20803600
v 0.37647100 0.89163800 -0.05943590
v 0.37647100 0.85201100 0.17832900
v 0.33683800 0.85201100 0.21793800
v 0.36326000 0.83879700 0.22454000
v 0.36851800 0.75301300 0.22981400
v 0.39133300 0.80991800 0.19813300
v 0.37645500 0.75301300 0.21793800
v 0.39627100 0.75301300 0.09903800
v 0.39627100 0.87181700 -0.09904540
v 0.38968100 0.88503100 -0.10564700
v 0.37647100 0.89163800 -0.09904540
v 0.27740600 0.91144400 -0.05943590
v 0.23249800 0.85201100 0.21793800
v 0.23249800 0.84673800 0.22848600
v 0.33023300 0.84540400 0.23114100
v 0.33683800 0.83220500 0.23774300
v 0.35663800 0.75301300 0.23774300
v 0.39627100 0.75301300 0.01981900
v 0.39627100 0.83220500 -0.09904540
v 0.39133300 0.82231000 -0.10894800
v 0.38968100 0.87181700 -0.11224900
v 0.38637900 0.88172700 -0.11389900
v 0.27740600 0.90485200 -0.09244380
v 0.27740600 0.91144400 -0.07924070
v 0.37647100 0.88503100 -0.11224900
v 0.25758900 0.91144400 -0.05943590
v 0.24437900 0.90485200 -0.05943590
v 0.23249800 0.89891200 -0.05943590
v 0.23249800 0.84540400 0.23114100
v 0.23249800 0.83220500 0.23774300
v 0.31708600 0.75301300 0.24764500
v 0.38888000 0.75301300 0.00001421
v 0.39133300 0.76286100 -0.00988816
v 0.38307600 0.81900600 -0.11224900
v 0.37647100 0.83220500 -0.11888600
v 0.38968100 0.83220500 -0.11224900
v 0.38878400 0.75301300 -0.00012930
v 0.37647100 0.87181700 -0.11888600
v 0.27740600 0.89824500 -0.10564700
v 0.25758900 0.90485200 -0.09244380
v 0.25758900 0.91144400 -0.07924070
v 0.24437900 0.90485200 -0.07924070
v 0.23249800 0.89891200 -0.07924070
v 0.23249800 0.75301300 0.24764500
v 0.23249800 0.81900600 -0.11224900
v 0.37653500 0.75301300 -0.00992404
v 0.23249800 0.75301300 -0.02057990
v 0.23249800 0.83220500 -0.11888600
v 0.23249800 0.87181700 -0.11888600
v 0.25758900 0.89824500 -0.10564700
v 0.24768100 0.90649600 -0.08914300
v 0.23249800 0.89709800 -0.09904540
v 0.23249800 0.88503100 -0.11224900
v 0.23249800 0.89533000 -0.10256100
v 0.23777300 0.89906700 -0.09904540
f 24 52 39
f 24 39 25
f 26 40 41
f 26 41 28
f 26 28 27
f 28 43 44
f 28 44 29
f 28 41 40
f 28 40 45
f 24 38 52
f 29 44 43
f 28 42 43
f 28 45 42
f 21 55 52
f 23 37 38
f 22 37 23
f 21 37 22
f 21 38 37
f 21 52 38
f 21 53 55
f 21 56 53
f 21 57 56
f 21 61 57
f 21 62 61
f 21 60 62
f 29 43 46
f 21 51 60
f 23 38 24
f 29 46 30
f 43 56 57
f 31 47 58
f 21 36 51
f 60 63 62
f 59 63 60
f 58 61 62
f 58 63 59
f 58 62 63
f 51 59 60
f 50 59 51
f 49 59 50
f 48 58 59
f 48 59 49
f 46 58 47
f 46 57 58
f 43 57 46
f 42 55 53
f 42 54 55
f 42 45 54
f 42 56 43
f 42 53 56
f 35 51 36
f 35 50 51
f 34 50 35
f 34 49 50
f 33 46 47
f 31 49 32
f 31 48 49
f 31 58 48
f 30 46 33
f 21 35 36
f 57 61 58
f 20 49 34
f 7 19 9
f 7 18 19
f 6 18 7
f 6 17 18
f 5 15 16
f 5 14 15
f 4 14 5
f 3 13 8
f 3 12 13
f 3 23 12
f 3 11 23
f 3 10 11
f 3 9 10
f 3 14 4
f 3 8 14
f 2 7 3
f 1 7 2
f 1 6 7
f 1 17 6
f 1 27 17
f 1 26 27
f 1 16 26
f 1 5 16
f 1 4 5
f 1 3 4
f 1 2 3
f 21 34 35
f 8 15 14
f 8 13 15
f 3 7 9
f 9 32 20
f 9 19 32
f 20 32 49
f 19 47 31
f 19 33 47
f 19 31 32
f 18 33 19
f 18 30 33
f 18 29 30
f 17 28 29
f 17 27 28
f 13 16 15
f 13 26 16
f 13 40 26
f 13 45 40
f 17 29 18
f 13 54 45
f 10 20 11
f 11 21 22
f 11 22 23
f 11 20 34
f 11 34 21
f 12 23 24
f 9 20 10
f 12 25 13
f 13 25 39
f 13 39 52
f 13 52 55
f 13 55 54
f 12 24 25

