# https://github.com/mikedh/trimesh
v -0.07923120 -0.53035000 -0.19811200
v -0.09246210 -0.53035000 -0.19153300
v -0.08228450 -0.43439500 -0.19662300
v -0.07923120 -0.43439500 -0.19811200
v 0.07922560 -0.53035000 -0.19811200
v -0.09246210 -0.43439500 -0.19153300
v -0.13653900 -0.53035000 -0.15354900
v 0.07922560 -0.43439500 -0.19811200
v 0.08024330 -0.43439500 -0.19761600
v 0.08231800 -0.53035000 -0.19659200
v -0.19615600 -0.43444200 -0.10200400
v -0.18135900 -0.43439500 -0.10209700
v -0.14922200 -0.53035000 -0.13868500
v 0.09245640 -0.43439500 -0.19153300
v 0.09245640 -0.53035000 -0.19153300
v -0.19615600 -0.53035000 -0.05052110
v -0.19615600 -0.43439500 0.11209000
v 0.20374400 -0.43439500 -0.10209700
v 0.13406700 -0.53035000 -0.15221500
v -0.19615600 -0.53035000 0.11885500
v -0.19615600 -0.43439500 0.11885500
v 0.20374400 -0.43439500 0.11885500
v 0.20374400 -0.53035000 -0.04673510
v 0.14925500 -0.53035000 -0.13406100
v 0.20374400 -0.53035000 0.11885500
f 10 14 15
f 5 8 9
f 20 22 21
f 5 9 10
f 6 7 11
f 6 11 12
f 7 13 11
f 3 8 4
f 9 14 10
f 11 13 16
f 14 18 15
f 11 20 21
f 11 21 17
f 11 17 12
f 15 18 19
f 18 22 25
f 18 25 23
f 18 23 24
f 18 24 19
f 20 25 22
f 3 9 8
f 11 16 20
f 3 14 9
f 3 12 17
f 3 22 18
f 3 18 14
f 1 3 4
f 1 4 8
f 1 8 5
f 1 5 10
f 1 10 15
f 1 15 19
f 1 19 24
f 1 24 23
f 1 23 25
f 1 2 3
f 1 20 16
f 1 25 20
f 3 17 21
f 3 6 12
f 2 7 6
f 3 21 22
f 1 7 2
f 1 13 7
f 1 16 13
f 2 6 3

