# https://github.com/mikedh/trimesh
v 0.39626800 -0.43439500 -0.05486240
v 0.20374400 -0.43439500 -0.05486240
v 0.39626800 -0.43594700 -0.05486240
v 0.39626800 -0.43439500 -0.05944430
v 0.20374400 -0.43439500 -0.10211700
v 0.20374400 -0.85174900 -0.05486240
v 0.39398700 -0.67594100 -0.05486240
v 0.39626800 -0.67365300 -0.05944430
v 0.38903100 -0.43439500 -0.08384440
v 0.39626800 -0.49539400 -0.19811600
v 0.38967100 -0.48215700 -0.20474100
v 0.37798600 -0.43439500 -0.10211700
v 0.31701600 -0.45576300 -0.19811600
v 0.30712100 -0.46070700 -0.20802600
v 0.26750400 -0.48052200 -0.24766200
v 0.26254700 -0.49290200 -0.25757100
v 0.26254700 -0.51271800 -0.27738900
v 0.26420600 -0.52840700 -0.29058300
v 0.26420600 -0.56803800 -0.31040100
v 0.20374400 -0.62846600 -0.19811600
v 0.20374400 -0.85076800 -0.07429420
v 0.22445700 -0.84819400 -0.05486240
v 0.39074600 -0.69052700 -0.05486240
v 0.38967100 -0.71990300 -0.06606880
v 0.39626800 -0.71328500 -0.07926250
v 0.38637300 -0.48546600 -0.22290300
v 0.36986300 -0.48215700 -0.24435000
v 0.39626800 -0.51521000 -0.23775300
v 0.38967100 -0.50197200 -0.24435000
v 0.38637300 -0.50528200 -0.26253900
v 0.35665100 -0.47557900 -0.23775300
v 0.33684300 -0.45576300 -0.19811600
v 0.31701600 -0.46234100 -0.21133800
v 0.27741800 -0.48215700 -0.25097400
v 0.27741800 -0.48877500 -0.26416800
v 0.27741800 -0.50859100 -0.28398600
v 0.26750400 -0.52015400 -0.28729800
v 0.26750400 -0.54985700 -0.30711600
v 0.28401400 -0.60766900 -0.33021900
v 0.27080200 -0.62086600 -0.32362200
v 0.20374400 -0.63688200 -0.20093200
v 0.20374400 -0.84656000 -0.09331190
v 0.33684300 -0.79254700 -0.23775300
v 0.35665100 -0.79254700 -0.21793500
v 0.32692900 -0.80741900 -0.16844400
v 0.23704700 -0.84590600 -0.05486240
v 0.38903100 -0.69710500 -0.05486240
v 0.38637300 -0.73804400 -0.06935340
v 0.39133000 -0.73559300 -0.07926250
v 0.39626800 -0.75291600 -0.11889900
v 0.36656500 -0.48546600 -0.25263000
v 0.35665100 -0.48215700 -0.25097400
v 0.39626800 -0.55484100 -0.27738900
v 0.39133000 -0.51521000 -0.26005500
v 0.35665100 -0.48877500 -0.26416800
v 0.39133000 -0.53502600 -0.27987300
v 0.38637300 -0.52509700 -0.28233000
v 0.35665100 -0.52840700 -0.30380400
v 0.33684300 -0.46234100 -0.21133800
v 0.29722600 -0.52840700 -0.30380400
v 0.27741800 -0.55234900 -0.31205700
v 0.29722600 -0.61424700 -0.33684400
v 0.27080200 -0.66045700 -0.32362200
v 0.26420600 -0.68689100 -0.31040100
v 0.25759000 -0.69346900 -0.29720700
v 0.26750400 -0.72321300 -0.30711600
v 0.20374400 -0.83303700 -0.10598100
v 0.20374400 -0.84578400 -0.09659650
v 0.29722600 -0.79254700 -0.23775300
v 0.33022700 -0.77935000 -0.26416800
v 0.34343900 -0.78592800 -0.25097400
v 0.35912000 -0.78760400 -0.23775300
v 0.38307500 -0.77935000 -0.21793500
v 0.38307500 -0.77935000 -0.11889900
v 0.36656500 -0.78760400 -0.10899000
v 0.35665100 -0.79254700 -0.11889900
v 0.38637300 -0.75786000 -0.08917160
v 0.37188000 -0.73081200 -0.05486240
v 0.38407400 -0.70870900 -0.05486240
v 0.37417900 -0.72852400 -0.05486240
v 0.38103900 -0.71479600 -0.05486240
v 0.39133000 -0.75540800 -0.09908070
v 0.38967100 -0.76615400 -0.11889900
v 0.39133000 -0.76284400 -0.24766200
v 0.39626800 -0.75291600 -0.23775300
v 0.39626800 -0.59443200 -0.29720700
v 0.38307500 -0.55484100 -0.30380400
v 0.39133000 -0.57461600 -0.29969200
v 0.36656500 -0.54491300 -0.31205700
v 0.35665100 -0.55484100 -0.31702600
v 0.29722600 -0.55484100 -0.31702600
v 0.33684300 -0.61424700 -0.33684400
v 0.29722600 -0.65383800 -0.33684400
v 0.29061100 -0.73971900 -0.30380400
v 0.27080200 -0.75953500 -0.28398600
v 0.20374400 -0.83581500 -0.10407700
v 0.29722600 -0.71328500 -0.31702600
v 0.26750400 -0.78266000 -0.24766200
v 0.29061100 -0.77935000 -0.26416800
v 0.35003600 -0.75953500 -0.28398600
v 0.36324800 -0.76615400 -0.27079200
v 0.36160800 -0.78266000 -0.24766200
v 0.38141600 -0.76284400 -0.26748000
v 0.39133000 -0.72321300 -0.28729800
v 0.39626800 -0.71328500 -0.27738900
v 0.38967100 -0.59443200 -0.31040100
v 0.39626800 -0.65383800 -0.29720700
v 0.39133000 -0.66376600 -0.30711600
v 0.38307500 -0.63406300 -0.32362200
v 0.38637300 -0.58454400 -0.31205700
v 0.37646000 -0.61424700 -0.32445000
v 0.36656500 -0.62417600 -0.33187500
v 0.35665100 -0.63406300 -0.33684400
v 0.33684300 -0.65383800 -0.33684400
v 0.33022700 -0.73971900 -0.30380400
v 0.27410100 -0.77604100 -0.26088300
v 0.33684300 -0.71328500 -0.31702600
v 0.36324800 -0.74633800 -0.29058300
v 0.38141600 -0.74302900 -0.28729800
v 0.38307500 -0.69346900 -0.30380400
v 0.35912000 -0.71328500 -0.31205700
v 0.35912000 -0.65383800 -0.33187500
v 0.34343900 -0.72652200 -0.31040100
v 0.36160800 -0.72321300 -0.30711600
f 63 93 66
f 62 114 93
f 62 113 114
f 62 92 113
f 58 90 91
f 62 91 90
f 61 91 62
f 60 91 61
f 58 91 60
f 63 66 64
f 58 89 90
f 62 90 92
f 64 66 65
f 66 97 94
f 66 95 68
f 66 68 96
f 66 96 67
f 66 93 97
f 68 95 98
f 68 98 99
f 68 99 69
f 70 100 101
f 70 101 71
f 70 95 94
f 70 94 115
f 57 89 58
f 66 94 95
f 57 87 89
f 47 79 48
f 56 87 57
f 43 99 70
f 43 70 71
f 43 71 72
f 43 72 44
f 43 68 69
f 44 72 73
f 44 73 45
f 45 73 74
f 45 74 75
f 45 75 76
f 45 76 46
f 46 76 75
f 46 75 77
f 46 77 48
f 46 48 78
f 70 115 100
f 48 80 78
f 48 77 82
f 48 82 49
f 48 79 81
f 48 81 80
f 50 82 83
f 50 83 84
f 50 84 85
f 51 55 52
f 53 86 88
f 53 88 56
f 56 88 87
f 71 102 72
f 86 107 108
f 72 102 73
f 100 118 119
f 100 119 103
f 100 103 101
f 101 103 102
f 104 120 109
f 104 109 108
f 104 108 107
f 104 107 105
f 104 119 120
f 106 109 110
f 109 120 121
f 109 121 122
f 109 122 113
f 109 113 112
f 109 112 111
f 109 111 110
f 113 122 114
f 114 122 121
f 114 121 117
f 115 117 123
f 117 121 123
f 118 123 124
f 118 124 119
f 119 124 120
f 120 124 121
f 121 124 123
f 43 69 99
f 100 123 118
f 71 101 102
f 100 115 123
f 95 116 98
f 73 102 103
f 73 103 84
f 73 84 74
f 74 84 83
f 74 83 82
f 74 82 77
f 74 77 75
f 84 103 119
f 84 119 104
f 84 104 105
f 84 105 85
f 86 106 88
f 86 108 109
f 86 109 106
f 87 88 110
f 87 110 89
f 88 106 110
f 89 110 111
f 89 111 112
f 89 112 113
f 89 113 90
f 90 113 92
f 93 114 117
f 93 117 97
f 94 97 117
f 94 117 115
f 95 99 116
f 98 116 99
f 42 68 43
f 70 99 95
f 41 65 66
f 2 68 42
f 2 21 6
f 3 7 8
f 4 10 11
f 4 11 9
f 5 12 32
f 5 32 13
f 5 13 14
f 5 14 15
f 5 15 16
f 5 16 17
f 5 17 18
f 5 18 19
f 5 19 20
f 6 21 22
f 7 23 24
f 7 24 25
f 7 25 8
f 9 11 26
f 9 26 27
f 9 27 12
f 10 28 11
f 11 28 29
f 11 29 30
f 11 30 26
f 12 27 31
f 12 31 32
f 2 96 68
f 13 32 59
f 2 67 96
f 2 20 41
f 1 2 6
f 1 6 22
f 1 22 46
f 1 46 78
f 1 78 80
f 1 80 81
f 1 81 79
f 1 79 47
f 1 47 23
f 1 23 7
f 1 7 3
f 1 3 8
f 1 8 25
f 1 25 50
f 1 50 85
f 1 85 105
f 1 105 107
f 1 107 86
f 1 86 53
f 1 53 28
f 1 28 10
f 1 10 4
f 1 4 9
f 1 9 12
f 1 12 5
f 1 5 2
f 2 5 20
f 2 41 67
f 13 59 33
f 2 42 21
f 14 33 15
f 28 54 29
f 29 54 30
f 30 55 51
f 30 54 56
f 30 56 57
f 30 57 58
f 30 58 55
f 31 52 59
f 31 59 32
f 33 59 52
f 33 52 34
f 34 52 55
f 34 55 35
f 35 55 58
f 35 58 60
f 35 60 36
f 36 60 38
f 36 38 37
f 38 61 39
f 38 60 61
f 39 61 62
f 39 62 40
f 40 63 41
f 40 62 93
f 40 93 63
f 13 33 14
f 41 64 65
f 28 56 54
f 28 53 56
f 41 63 64
f 27 51 52
f 27 52 31
f 41 66 67
f 15 34 35
f 15 35 16
f 16 35 36
f 16 36 17
f 17 36 37
f 17 37 18
f 18 37 38
f 18 38 19
f 19 38 39
f 19 39 40
f 19 40 41
f 19 41 20
f 15 33 34
f 21 43 44
f 21 42 43
f 27 30 51
f 26 30 27
f 25 82 50
f 24 49 25
f 25 49 82
f 24 47 48
f 23 47 24
f 21 46 22
f 21 45 46
f 21 44 45
f 24 48 49

