# https://github.com/mikedh/trimesh
v -0.07923120 -0.81236700 -0.21795800
v -0.07261580 -0.82558800 -0.21134800
v -0.08584670 -0.83878600 -0.20473800
v -0.09246210 -0.80576800 -0.21134800
v -0.19615600 -0.66423200 -0.16740600
v -0.07923120 -0.77277200 -0.21795800
v 0.07922560 -0.81236700 -0.21795800
v 0.08584100 -0.82558800 -0.21134800
v -0.08584670 -0.87842600 -0.16510900
v -0.10236600 -0.87511500 -0.16178900
v -0.14859500 -0.88173700 -0.13373500
v -0.16511400 -0.83878600 -0.14527900
v 0.07264930 -0.83878600 -0.20473800
v -0.18492100 -0.83878600 -0.12548000
v -0.19615600 -0.84050900 -0.10738800
v -0.19615600 -0.66423200 0.09904070
v -0.07923120 -0.66423200 -0.19812800
v 0.07922560 -0.77277200 -0.21795800
v 0.20374400 -0.66423200 -0.16784000
v 0.09245640 -0.81236700 -0.21134800
v 0.09410050 -0.82227700 -0.20802700
v 0.14859000 -0.88173700 -0.13373500
v 0.10564800 -0.88502500 -0.15188900
v -0.09246210 -0.88502500 -0.15188900
v 0.07264930 -0.87842600 -0.16510900
v -0.15521100 -0.88833600 -0.11558100
v -0.16840200 -0.88173700 -0.10897100
v -0.09903830 -0.89162400 -0.13866900
v -0.19615600 -0.88502500 -0.05286410
v -0.19615600 -0.81236700 0.09904070
v 0.20374400 -0.66423200 0.09904070
v 0.07922560 -0.66423200 -0.19812800
v 0.08987290 -0.66423200 -0.19576900
v 0.20374400 -0.67877300 -0.16358900
v 0.16510900 -0.83218700 -0.14527900
v 0.16095900 -0.88668100 -0.11887100
v 0.09903270 -0.89162400 -0.13866900
v -0.15849900 -0.89162400 -0.09904070
v -0.19615600 -0.89162400 -0.03964420
v -0.19615600 -0.88965600 -0.04361640
v 0.20374400 -0.89274300 -0.03405830
v -0.19615600 -0.88502500 0.07263190
v 0.16839700 -0.88173700 0.09410650
v 0.20374400 -0.81236700 0.09904070
v 0.18491600 -0.83218700 -0.12548000
v 0.20374400 -0.83305900 -0.10596100
v 0.17336800 -0.88173700 -0.10897100
v 0.20374400 -0.88509200 -0.05314340
v 0.20374400 -0.89162400 -0.03964420
v 0.15849300 -0.89162400 -0.09904070
v -0.19615600 -0.88703900 0.05882240
v -0.11888500 -0.89162400 0.05944300
v 0.20374400 -0.89162400 0.07924180
v 0.17830000 -0.89162400 0.07924180
v -0.19615600 -0.88694900 0.05944300
v 0.17830000 -0.88502500 0.09246170
v 0.20374400 -0.88502500 0.09246170
v 0.20374400 -0.83581100 -0.10406800
v 0.20374400 -0.84581000 -0.09655800
v 0.20374400 -0.88976800 0.08296570
f 23 36 37
f 22 35 36
f 22 36 23
f 26 38 39
f 28 41 38
f 26 28 38
f 27 39 40
f 27 40 29
f 28 37 41
f 30 42 43
f 26 39 27
f 21 35 22
f 19 59 58
f 19 21 20
f 19 34 21
f 19 46 34
f 19 58 46
f 19 48 59
f 19 49 48
f 19 41 49
f 19 53 41
f 19 60 53
f 19 57 60
f 19 44 57
f 30 43 44
f 19 31 44
f 21 34 35
f 34 45 35
f 41 53 54
f 35 45 36
f 18 33 19
f 56 60 57
f 54 60 56
f 53 60 54
f 51 52 55
f 47 59 48
f 47 58 59
f 46 58 47
f 43 57 44
f 43 56 57
f 42 56 43
f 42 54 56
f 34 46 45
f 42 52 54
f 41 54 52
f 41 50 49
f 39 52 51
f 39 41 52
f 38 41 39
f 37 50 41
f 36 50 37
f 36 49 50
f 36 48 49
f 36 47 48
f 36 46 47
f 36 45 46
f 42 55 52
f 18 32 33
f 5 51 55
f 16 30 44
f 5 42 30
f 5 55 42
f 5 39 51
f 5 40 39
f 5 29 40
f 5 15 29
f 5 14 15
f 5 12 14
f 4 12 5
f 3 25 9
f 3 13 25
f 3 12 4
f 3 11 12
f 3 10 11
f 3 9 10
f 2 13 3
f 2 8 13
f 1 8 2
f 1 7 8
f 1 18 7
f 1 6 18
f 1 5 6
f 1 4 5
f 16 44 31
f 1 2 3
f 5 30 16
f 5 16 31
f 1 3 4
f 5 19 33
f 5 31 19
f 15 27 29
f 13 23 25
f 11 28 26
f 11 24 28
f 11 14 12
f 11 27 14
f 11 26 27
f 9 28 24
f 9 37 28
f 9 23 37
f 9 25 23
f 9 11 10
f 14 27 15
f 8 23 13
f 9 24 11
f 5 32 17
f 5 17 6
f 6 17 32
f 6 32 18
f 5 33 32
f 7 19 20
f 7 20 8
f 8 20 21
f 8 21 22
f 8 22 23
f 7 18 19

