# https://github.com/mikedh/trimesh
v -0.07922630 -0.43439500 -0.19814300
v -0.35507500 -0.43439500 -0.10210000
v -0.36317500 -0.42270000 -0.12547700
v -0.36317500 -0.40287400 -0.16510500
v -0.35665800 -0.37646200 -0.17831400
v -0.07922630 -0.19499800 -0.19814300
v 0.07922630 -0.43439500 -0.19814300
v -0.35814800 -0.43439500 -0.10058000
v -0.36727100 -0.43439500 -0.08990450
v -0.36652600 -0.42600500 -0.10897400
v -0.36652600 -0.40617800 -0.14860100
v -0.37313600 -0.39298400 -0.15519000
v -0.36652600 -0.38637500 -0.16839900
v -0.36978500 -0.36985300 -0.17169300
v -0.36298900 -0.19499800 -0.17514600
v -0.35665800 -0.19499800 -0.17831400
v 0.07922630 -0.19499800 -0.19814300
v 0.37639500 -0.37646200 -0.17831400
v 0.38300500 -0.38967900 -0.17169300
v 0.36978500 -0.40287400 -0.16510500
v 0.38300500 -0.40948300 -0.15189600
v 0.38300500 -0.42930900 -0.11226800
v 0.37797700 -0.43439500 -0.10210000
v -0.37136800 -0.43439500 -0.07770900
v -0.37490500 -0.43439500 -0.06703400
v -0.37639500 -0.39626500 -0.13868600
v -0.47554400 -0.27742200 0.11887600
v -0.37639500 -0.37646200 -0.15848400
v -0.37323000 -0.19499800 -0.16485100
v -0.36978500 -0.19499800 -0.17169300
v 0.37639500 -0.19499800 -0.17831400
v 0.37853600 -0.19499800 -0.17726900
v 0.38961500 -0.37646200 -0.17169300
v 0.39129000 -0.38637500 -0.16839900
v 0.39129000 -0.40617800 -0.14860100
v 0.39129000 -0.42600500 -0.10897400
v 0.38896300 -0.43439500 -0.08379090
v -0.37723300 -0.43439500 -0.05791120
v -0.37639500 -0.41609100 -0.09905910
v -0.39622500 -0.39626500 -0.03960210
v -0.46884100 -0.29061600 0.12546400
v -0.47554400 -0.27742200 0.12546400
v -0.46893400 -0.26420400 0.11887600
v -0.37639500 -0.19499800 -0.15848400
v 0.38961500 -0.19499800 -0.17169300
v 0.39073200 -0.19499800 -0.16960300
v 0.39622500 -0.37646200 -0.15848400
v 0.39622500 -0.39626500 -0.13868600
v 0.39622500 -0.41609100 -0.09905910
v 0.39622500 -0.43439500 -0.05943170
v -0.37723300 -0.43439500 -0.00076665
v -0.37639500 -0.43439500 0.09904620
v -0.37592900 -0.43439500 0.10006000
v -0.36978500 -0.43439500 0.11225500
v -0.36885400 -0.43439500 0.11276200
v -0.35665800 -0.43439500 0.11887600
v -0.37118100 -0.35551000 0.12546400
v -0.46893400 -0.26420400 0.12546400
v -0.39622500 -0.19499800 -0.05943170
v 0.39622500 -0.19499800 -0.15848400
v 0.47554400 -0.27742200 0.11887600
v 0.46893400 -0.29061600 0.11887600
v 0.39622500 -0.43439500 0.09904620
v -0.35665800 -0.36326700 0.12546400
v 0.37639500 -0.43439500 0.11887600
v -0.00000000 -0.38311700 0.12546400
v -0.38300500 -0.19499800 0.12546400
v -0.38859100 -0.19499800 0.11437800
v -0.39520100 -0.19499800 0.10116900
v -0.39622500 -0.19499800 0.09904620
v 0.39622500 -0.19499800 0.09904620
v 0.46893400 -0.26420400 0.11225500
v 0.47554400 -0.27742200 0.12546400
v 0.46893400 -0.29061600 0.12546400
v 0.39548000 -0.43439500 0.10056700
v 0.37797700 -0.43439500 0.11811600
v 0.38803200 -0.35419800 0.12546400
v 0.37648800 -0.36324400 0.12546400
v 0.37630200 -0.36331400 0.12546400
v 0.38300500 -0.19499800 0.12546400
v 0.46893400 -0.26420400 0.12546400
v 0.38477400 -0.19499800 0.12204300
v 0.38961500 -0.43439500 0.11225500
f 35 49 36
f 41 51 52
f 35 48 49
f 36 50 37
f 38 51 41
f 38 40 39
f 36 49 50
f 41 52 53
f 41 64 66
f 41 54 55
f 41 55 56
f 41 56 57
f 41 57 64
f 41 66 79
f 34 48 35
f 41 79 78
f 41 53 54
f 34 47 48
f 26 39 27
f 33 46 34
f 41 78 77
f 21 36 22
f 22 36 37
f 22 37 23
f 25 38 39
f 25 39 26
f 27 40 38
f 27 38 41
f 27 41 42
f 27 42 58
f 27 58 43
f 27 43 44
f 27 44 28
f 27 39 40
f 28 44 29
f 32 45 33
f 33 45 46
f 34 46 47
f 41 77 74
f 63 74 75
f 41 73 81
f 60 81 72
f 60 72 61
f 61 72 81
f 61 81 73
f 61 73 74
f 61 74 62
f 21 35 36
f 60 71 81
f 65 76 74
f 65 77 78
f 65 78 79
f 65 79 66
f 71 82 81
f 74 76 83
f 74 83 75
f 80 81 82
f 65 74 77
f 58 69 70
f 58 68 69
f 58 67 68
f 41 81 80
f 41 80 67
f 41 58 42
f 43 58 70
f 43 70 59
f 43 59 44
f 46 60 47
f 47 60 61
f 47 61 48
f 48 61 49
f 49 61 50
f 50 61 62
f 50 62 74
f 50 74 63
f 56 64 57
f 56 65 66
f 56 66 64
f 41 74 73
f 19 35 21
f 41 67 58
f 19 21 20
f 1 51 38
f 1 38 25
f 1 25 24
f 1 24 9
f 1 9 8
f 1 8 2
f 2 8 3
f 1 52 51
f 3 8 9
f 3 10 11
f 3 11 4
f 4 11 12
f 4 12 13
f 4 13 5
f 5 13 14
f 5 14 15
f 3 9 10
f 1 53 52
f 1 54 53
f 1 55 54
f 19 34 35
f 1 2 3
f 1 4 5
f 1 5 16
f 1 16 6
f 1 6 17
f 1 17 7
f 1 7 23
f 1 23 37
f 1 37 50
f 1 50 63
f 1 63 75
f 1 75 83
f 1 83 76
f 1 76 65
f 1 65 56
f 1 56 55
f 5 15 16
f 6 16 15
f 1 3 4
f 6 30 29
f 7 22 23
f 9 24 10
f 10 24 12
f 10 12 11
f 12 24 25
f 12 25 26
f 12 26 27
f 7 21 22
f 12 27 28
f 12 14 13
f 14 29 30
f 14 30 15
f 14 28 29
f 18 31 32
f 18 32 33
f 6 15 30
f 12 28 14
f 7 20 21
f 18 33 34
f 7 18 19
f 6 29 44
f 7 19 20
f 6 44 59
f 6 59 70
f 6 70 69
f 6 69 68
f 6 68 67
f 6 67 80
f 6 80 82
f 18 34 19
f 6 71 60
f 6 82 71
f 7 17 31
f 6 31 17
f 7 31 18
f 6 45 32
f 6 60 46
f 6 46 45
f 6 32 31

