# https://github.com/mikedh/trimesh
v -0.39346600 -0.67366200 -0.05380100
v -0.39083900 -0.68765600 -0.05380100
v -0.38968000 -0.67366200 -0.04623010
v -0.37722300 -0.43439500 -0.01649430
v -0.39346600 -0.56896600 -0.05380100
v -0.39006700 -0.69095800 -0.05380100
v -0.38307500 -0.67366200 -0.03302390
v -0.37647000 -0.45575300 -0.01649430
v -0.19663900 -0.43439500 -0.01649430
v -0.37722300 -0.43439500 -0.05380100
v -0.38614600 -0.70209600 -0.05380100
v -0.37932800 -0.70209600 -0.04537190
v -0.36656200 -0.68359400 -0.02477010
v -0.37314800 -0.46238400 -0.01649430
v -0.35665400 -0.67366200 -0.01981780
v -0.19663900 -0.43439500 -0.05380100
v -0.19617500 -0.43442100 -0.01649430
v -0.26041300 -0.70209600 -0.05380100
v -0.37359200 -0.70209600 -0.04250130
v -0.35665400 -0.70209600 -0.03403190
v -0.22953000 -0.70209600 -0.01649430
v -0.26744300 -0.64224000 -0.01649430
v -0.19617500 -0.43444700 -0.05380100
v -0.19617500 -0.70209600 -0.01649430
v -0.19617500 -0.70209600 -0.05052870
v -0.22242300 -0.64860800 -0.05380100
v -0.19617500 -0.46676000 -0.05380100
v -0.21514100 -0.63403700 -0.05380100
f 25 28 27
f 11 20 19
f 7 13 8
f 8 13 15
f 8 15 14
f 9 17 16
f 11 18 25
f 11 25 24
f 11 24 21
f 11 21 20
f 11 19 12
f 15 21 22
f 13 19 20
f 13 20 21
f 13 21 15
f 14 15 22
f 16 17 23
f 17 24 25
f 17 25 27
f 17 27 23
f 18 26 25
f 25 26 28
f 7 11 12
f 12 19 13
f 6 11 7
f 7 12 13
f 4 10 5
f 4 7 8
f 1 3 4
f 1 4 5
f 1 5 10
f 1 10 16
f 1 16 23
f 1 23 27
f 1 27 28
f 1 28 26
f 1 26 18
f 1 18 11
f 1 11 6
f 1 2 3
f 2 6 7
f 2 7 3
f 3 7 4
f 4 8 14
f 4 14 22
f 4 22 21
f 4 21 24
f 4 24 17
f 4 17 9
f 4 9 16
f 4 16 10
f 1 6 2

