# https://github.com/mikedh/trimesh
v 0.23236200 0.55194100 -0.36312100
v 0.23236200 0.55194100 -0.53751200
v 0.21809600 0.55194100 0.04379060
v 0.49390500 0.53745900 0.04379060
v 0.21788000 0.55194100 -0.55201000
v 0.49390500 0.53745900 -0.62463800
v -0.43576000 0.55194100 0.04379060
v 0.52254500 0.52319300 0.04379060
v 0.18880800 0.55194100 -0.58107500
v 0.51325000 0.52773200 -0.61982900
v 0.50352400 0.53259600 -0.62951700
v 0.49390500 0.53378500 -0.64101700
v 0.47931500 0.53745900 -0.63920500
v 0.52297700 0.52297700 -0.05811160
v -0.43576000 0.55194100 -0.14530700
v -0.52297700 0.53745900 -0.43581900
v -0.50838700 0.53745900 0.04379060
v 0.52319300 0.52286900 0.04379060
v 0.08710880 0.55194100 -0.59557300
v 0.53259600 0.51811400 -0.06299070
v 0.51811400 0.51811400 -0.64401500
v 0.50114600 0.53021800 -0.64283000
v 0.47931500 0.52773200 -0.65858200
v 0.23236200 0.53745900 -0.63920500
v -0.52297700 0.53745900 -0.61014000
v -0.42127800 0.55194100 -0.23250200
v -0.51800600 0.53270400 0.04379060
v -0.53259600 0.53259600 -0.43581900
v 0.53259600 0.51811400 0.04379060
v -0.13066300 0.55194100 -0.59557300
v 0.52297700 0.50838700 -0.63920500
v 0.53745900 0.50838700 -0.05811160
v 0.51562800 0.51562800 -0.65007900
v 0.50838700 0.51930300 -0.65551500
v 0.51325000 0.50838700 -0.65858200
v 0.50114600 0.51562800 -0.66457600
v 0.49390500 0.51811400 -0.66339100
v 0.49390500 0.50838700 -0.66827000
v 0.45035000 0.52773200 -0.65858200
v 0.23236200 0.53259600 -0.64889400
v 0.22512100 0.53378500 -0.64645400
v -0.50838700 0.53745900 -0.62463800
v -0.39220600 0.55194100 -0.36312100
v -0.37761600 0.55194100 -0.42125200
v -0.36313400 0.55194100 -0.46481400
v -0.34865100 0.55194100 -0.49388000
v -0.33406100 0.55194100 -0.52294500
v -0.30498900 0.55194100 -0.56650800
v -0.53021800 0.53378500 -0.61738900
v -0.53259600 0.53259600 -0.61014000
v -0.52762400 0.52784100 0.04379060
v -0.52773200 0.52773200 0.04379060
v -0.53745900 0.52297700 -0.43581900
v -0.54232300 0.51325000 -0.34862400
v 0.53745900 0.50838700 0.04379060
v 0.52297700 -0.49390500 -0.63920500
v 0.53745900 0.49390500 -0.29056300
v 0.53745900 0.47931500 -0.34862400
v 0.53745900 0.46483300 -0.37768900
v 0.53745900 0.40668800 -0.45031700
v 0.53745900 0.34865100 -0.50844700
v 0.53745900 0.29050700 -0.53751200
v 0.53745900 0.26143500 -0.55201000
v 0.53745900 0.21788000 -0.56650800
v 0.53745900 0.10159100 -0.58107500
v 0.55194100 0.24716900 0.04379060
v 0.51325000 -0.43576000 -0.65858200
v 0.49390500 -0.43576000 -0.66827000
v 0.45035000 0.50838700 -0.66827000
v -0.20329000 0.51811400 -0.64889400
v -0.20329000 0.52773200 -0.64401500
v -0.50838700 0.53259600 -0.63432600
v -0.51562800 0.53378500 -0.63188700
v -0.53021800 0.52654400 -0.63188700
v -0.54232300 0.51325000 -0.62463800
v -0.53745900 0.52297700 -0.61014000
v -0.53259600 0.51822200 0.04379060
v -0.54837500 0.50114600 -0.34137500
v 0.53745900 -0.39220600 -0.56650800
v 0.52297700 -0.52297700 -0.62463800
v 0.51930300 -0.50114600 -0.64645400
v 0.51811400 -0.49390500 -0.64889400
v 0.53745900 -0.31957900 -0.58107500
v 0.55194100 0.21788000 -0.01454880
v 0.55194100 0.17432600 -0.05811160
v 0.55194100 0.15973600 -0.07267900
v 0.55194100 0.08710880 -0.10174400
v 0.55194100 0.04355440 -0.11624200
v 0.55194100 -0.17432600 0.04379060
v 0.50838700 -0.49390500 -0.65370300
v 0.47931500 -0.52297700 -0.65370300
v 0.46483300 -0.45035000 -0.66827000
v 0.04355440 0.42127800 -0.66827000
v -0.52297700 0.49390500 -0.65370300
v -0.20329000 0.50838700 -0.65370300
v -0.52297700 0.50352400 -0.64889400
v -0.52297700 0.51325000 -0.64401500
v -0.53021800 0.50482000 -0.64645400
v -0.53745900 0.50838700 -0.63920500
v -0.54718600 0.49876800 -0.63432600
v -0.54470000 0.50482000 -0.63188700
v -0.54718600 0.50352400 -0.62463800
v -0.53745900 0.50838700 0.04379060
v -0.55194100 0.49390500 -0.62463800
v -0.55194100 0.49390500 -0.34862400
v 0.53745900 -0.43576000 -0.52294500
v 0.55194100 0.01448210 -0.11624200
v 0.55194100 -0.07262670 -0.07267900
v 0.55194100 -0.14525300 -0.02911620
v 0.51930300 -0.53021800 -0.63188700
v 0.53745900 -0.47931500 -0.36312100
v 0.53745900 -0.49390500 -0.23250200
v 0.53745900 -0.50838700 0.01451640
v 0.53378500 -0.51562800 0.00719781
v 0.51206200 -0.51562800 -0.64645400
v 0.51022400 -0.50838700 -0.65007900
v 0.55194100 -0.17432600 0.02901410
v 0.53745900 -0.50838700 0.04379060
v 0.49574200 -0.52297700 -0.65007900
v 0.48417800 -0.53259600 -0.64889400
v 0.23236200 -0.52297700 -0.65370300
v 0.39220600 -0.45035000 -0.66827000
v -0.11618100 0.37761600 -0.66827000
v -0.17432600 0.34865100 -0.66827000
v -0.20329000 0.33406100 -0.66827000
v -0.21788000 0.31957900 -0.66827000
v -0.23236200 0.24695200 -0.66827000
v -0.29050700 -0.07262670 -0.66827000
v -0.52297700 -0.45035000 -0.65370300
v -0.53259600 0.49876800 -0.64889400
v -0.54232300 0.48904100 -0.64401500
v -0.54718600 0.42614200 -0.63432600
v -0.55194100 0.47931500 -0.26149800
v -0.55194100 0.29050700 -0.01454880
v -0.55194100 0.27591700 -0.00005104
v -0.55194100 0.15973600 0.01451640
v -0.54718600 0.15973600 0.02420480
v -0.53745900 -0.50838700 0.04379060
v -0.55194100 0.42127800 -0.62463800
v 0.52773200 -0.52773200 0.01451640
v 0.51325000 -0.54232300 -0.61014000
v 0.49747100 -0.54470000 -0.63188700
v 0.51325000 -0.53259600 -0.63432600
v 0.49747100 -0.53021800 -0.64645400
v 0.53270400 -0.51800600 0.04379060
v 0.53259600 -0.51811400 0.01451640
v 0.47455900 -0.54232300 -0.64401500
v 0.23722600 -0.53259600 -0.64889400
v -0.48417800 -0.52773200 -0.64401500
v -0.47931500 -0.50838700 -0.65370300
v -0.11618100 -0.37761600 -0.66827000
v -0.29050700 -0.11618100 -0.66827000
v -0.27591700 -0.20329000 -0.66827000
v -0.26143500 -0.27591700 -0.66827000
v -0.24695200 -0.30498900 -0.66827000
v -0.50838700 -0.47931500 -0.65370300
v -0.53021800 -0.47207400 -0.64645400
v -0.53259600 -0.44548700 -0.64889400
v -0.54232300 0.41641500 -0.64401500
v -0.55194100 0.02896420 0.01451640
v -0.54718600 0.02896420 0.02420480
v -0.55194100 -0.01448210 -0.01454880
v -0.55194100 -0.07262670 -0.05811160
v -0.55194100 -0.13066300 -0.10174400
v -0.55194100 -0.14525300 -0.11624200
v -0.55194100 -0.17432600 -0.14530700
v -0.55194100 -0.20329000 -0.18887000
v -0.55194100 -0.24695200 -0.26149800
v -0.55194100 -0.36313400 -0.46481400
v -0.55194100 -0.37761600 -0.50844700
v -0.53745900 -0.52297700 -0.15980500
v -0.53259600 -0.53259600 -0.15499500
v -0.53032600 -0.52276100 0.04379060
v -0.55194100 0.07262670 -0.61014000
v -0.53745900 -0.45035000 -0.63920500
v 0.52784100 -0.52762400 0.04379060
v 0.51325000 -0.54232300 -0.14530700
v 0.50352400 -0.54718600 -0.61014000
v 0.49574200 -0.54837500 -0.62463800
v 0.48417800 -0.54718600 -0.63432600
v 0.44548700 -0.54232300 -0.64401500
v -0.49390500 -0.53745900 -0.62463800
v -0.51562800 -0.53021800 -0.63188700
v -0.49628200 -0.52535500 -0.64157500
v -0.52297700 -0.50838700 -0.63920500
v -0.21788000 -0.33406100 -0.66827000
v -0.17432600 -0.36313400 -0.66827000
v -0.53021800 -0.51562800 -0.63188700
v -0.53259600 -0.50352400 -0.63432600
v -0.53745900 -0.50838700 -0.62463800
v -0.55194100 -0.37761600 -0.56650800
v -0.53745900 -0.52297700 -0.61014000
v -0.53259600 -0.53259600 -0.60526100
v -0.52297700 -0.53745900 -0.15980500
v -0.50838700 -0.53745900 0.04379060
v -0.52276100 -0.53032600 0.04379060
v -0.52773200 -0.52773200 0.04379060
v -0.55194100 -0.15973600 -0.59557300
v -0.55194100 -0.27591700 -0.58107500
v 0.52773200 -0.52773200 0.04379060
v 0.50114600 -0.54837500 -0.13805800
v 0.49390500 -0.55194100 -0.61014000
v 0.47931500 -0.55194100 -0.62463800
v 0.45510600 -0.54718600 -0.63432600
v 0.45035000 -0.55194100 -0.62463800
v -0.52297700 -0.53745900 -0.61014000
v -0.52773200 -0.52773200 -0.62951700
v -0.53508200 -0.52049100 -0.62219800
v -0.53021800 -0.53021800 -0.61738900
v -0.07262670 -0.55194100 0.04379060
v 0.51822200 -0.53259600 0.04379060
v 0.50838700 -0.53745900 0.04379060
v 0.49390500 -0.55194100 -0.14530700
v 0.43576000 -0.55194100 -0.61014000
v -0.07262670 -0.55194100 0.02901410
v 0.42138600 -0.55194100 0.04379060
v 0.43576000 -0.55194100 0.02901410
f 110 114 140
f 104 163 162
f 104 162 160
f 104 160 136
f 104 136 135
f 106 109 117
f 104 134 133
f 104 133 105
f 104 164 163
f 104 135 134
f 106 117 111
f 104 199 191
f 104 166 165
f 104 167 166
f 104 168 167
f 104 169 168
f 104 170 169
f 104 191 170
f 103 161 138
f 104 139 174
f 104 198 199
f 104 174 198
f 110 140 141
f 104 165 164
f 110 141 142
f 129 153 154
f 110 143 144
f 129 156 157
f 103 137 161
f 129 157 158
f 129 155 156
f 129 154 155
f 129 152 153
f 122 150 151
f 121 150 122
f 121 149 150
f 121 148 149
f 120 181 148
f 120 147 181
f 120 144 147
f 119 144 120
f 115 119 116
f 115 144 119
f 114 146 140
f 113 146 114
f 113 145 146
f 113 118 145
f 112 117 113
f 111 117 112
f 110 144 115
f 110 142 143
f 103 136 137
f 79 83 107
f 103 134 135
f 91 119 120
f 90 119 91
f 90 116 119
f 89 113 117
f 89 118 113
f 82 116 90
f 81 116 82
f 81 115 116
f 81 110 115
f 80 114 110
f 80 113 114
f 80 112 113
f 80 111 112
f 80 106 111
f 79 109 106
f 79 108 109
f 79 107 108
f 79 106 80
f 78 105 103
f 78 104 105
f 78 102 104
f 130 158 159
f 77 78 103
f 91 120 148
f 103 135 136
f 91 148 121
f 91 122 92
f 103 133 134
f 103 105 133
f 100 104 102
f 100 139 104
f 100 132 139
f 100 159 132
f 100 131 159
f 100 130 131
f 99 130 100
f 98 130 99
f 96 98 97
f 96 130 98
f 94 130 96
f 94 158 130
f 94 129 158
f 94 152 129
f 94 128 152
f 94 127 128
f 94 126 127
f 94 125 126
f 94 124 125
f 94 123 124
f 93 123 94
f 91 121 122
f 130 159 131
f 202 213 217
f 136 160 161
f 184 207 185
f 183 207 184
f 183 206 207
f 182 205 206
f 182 206 183
f 181 205 182
f 181 204 205
f 180 205 204
f 180 203 205
f 179 203 180
f 179 202 203
f 178 202 179
f 178 201 202
f 177 200 201
f 176 200 177
f 175 199 198
f 175 191 199
f 175 190 191
f 174 175 198
f 172 197 173
f 172 196 197
f 172 195 196
f 172 194 195
f 185 207 188
f 172 206 194
f 188 207 208
f 188 190 189
f 75 100 102
f 207 209 208
f 206 214 215
f 206 209 207
f 205 214 206
f 202 205 203
f 202 214 205
f 202 215 214
f 202 210 215
f 202 216 210
f 202 217 216
f 201 211 212
f 201 213 202
f 201 212 213
f 200 211 201
f 194 210 195
f 194 215 210
f 194 206 215
f 193 209 206
f 192 209 193
f 192 208 209
f 190 208 192
f 190 192 191
f 188 208 190
f 132 159 139
f 172 193 206
f 171 192 193
f 141 179 142
f 141 178 179
f 141 201 178
f 141 177 201
f 140 176 141
f 140 145 176
f 140 146 145
f 139 175 174
f 139 159 175
f 138 172 173
f 138 171 172
f 138 170 171
f 138 169 170
f 138 168 169
f 138 167 168
f 138 166 167
f 138 165 166
f 138 164 165
f 138 163 164
f 138 162 163
f 138 160 162
f 138 161 160
f 136 161 137
f 141 176 177
f 171 193 172
f 142 179 180
f 142 147 144
f 170 192 171
f 170 191 192
f 158 175 159
f 157 185 188
f 157 175 158
f 157 190 175
f 157 189 190
f 157 188 189
f 156 185 157
f 150 187 151
f 150 186 187
f 150 155 186
f 150 156 155
f 150 185 156
f 150 184 185
f 149 181 182
f 149 184 150
f 149 183 184
f 149 182 183
f 148 181 149
f 147 204 181
f 147 180 204
f 142 144 143
f 142 180 147
f 75 101 100
f 3 27 51
f 74 100 101
f 18 29 20
f 16 51 27
f 16 28 51
f 16 50 28
f 16 25 50
f 16 27 17
f 15 26 25
f 14 18 20
f 13 30 19
f 13 24 30
f 13 40 24
f 13 39 40
f 13 23 39
f 12 22 23
f 12 23 13
f 11 21 22
f 11 22 12
f 10 21 11
f 10 20 21
f 10 14 20
f 9 13 19
f 8 18 14
f 7 16 17
f 20 31 21
f 7 25 16
f 20 29 55
f 20 32 31
f 25 73 49
f 25 42 73
f 25 48 42
f 25 47 48
f 25 46 47
f 25 45 46
f 25 44 45
f 25 43 44
f 25 26 43
f 24 42 30
f 24 73 42
f 24 41 73
f 24 40 41
f 23 69 39
f 23 38 69
f 23 37 38
f 23 36 37
f 23 34 36
f 22 34 23
f 21 35 33
f 21 31 35
f 21 34 22
f 21 33 34
f 20 55 32
f 25 49 50
f 7 15 25
f 6 8 14
f 3 52 77
f 3 51 52
f 212 216 217
f 3 17 27
f 3 7 17
f 2 6 5
f 1 6 2
f 1 4 6
f 1 3 4
f 1 7 3
f 1 15 7
f 1 26 15
f 1 43 26
f 1 44 43
f 1 45 44
f 1 46 45
f 1 47 46
f 1 48 47
f 1 30 48
f 1 19 30
f 1 9 19
f 1 5 9
f 1 2 5
f 3 77 103
f 6 14 10
f 3 103 138
f 3 173 197
f 6 13 9
f 6 12 13
f 6 11 12
f 6 10 11
f 5 6 9
f 4 8 6
f 3 8 4
f 3 18 8
f 3 29 18
f 3 55 29
f 3 66 55
f 3 89 66
f 3 118 89
f 3 145 118
f 3 176 145
f 3 200 176
f 3 211 200
f 3 212 211
f 3 216 212
f 3 210 216
f 3 195 210
f 3 196 195
f 3 197 196
f 3 138 173
f 74 101 75
f 28 52 51
f 28 76 53
f 65 88 107
f 64 88 65
f 63 88 64
f 63 87 88
f 63 86 87
f 62 86 63
f 61 86 62
f 61 85 86
f 61 84 85
f 60 84 61
f 59 84 60
f 59 66 84
f 58 66 59
f 57 66 58
f 56 83 79
f 56 81 82
f 56 110 81
f 56 80 110
f 56 79 80
f 54 78 77
f 53 78 54
f 53 102 78
f 53 75 102
f 65 107 83
f 53 76 75
f 66 89 117
f 66 109 108
f 74 99 100
f 74 98 99
f 74 97 98
f 73 97 74
f 72 97 73
f 71 97 72
f 70 97 71
f 70 96 97
f 70 94 96
f 70 95 94
f 69 95 70
f 69 94 95
f 69 93 94
f 68 91 92
f 68 90 91
f 68 82 90
f 67 82 68
f 66 85 84
f 66 86 85
f 66 87 86
f 66 88 87
f 66 107 88
f 66 108 107
f 66 117 109
f 28 50 76
f 52 54 77
f 49 75 50
f 35 68 38
f 35 67 68
f 34 35 36
f 33 35 34
f 32 66 57
f 32 55 66
f 31 83 56
f 31 65 83
f 31 64 65
f 31 63 64
f 31 62 63
f 31 61 62
f 31 60 61
f 31 59 60
f 31 58 59
f 31 57 58
f 31 32 57
f 31 67 35
f 31 82 67
f 31 56 82
f 30 42 48
f 28 54 52
f 28 53 54
f 35 38 36
f 50 75 76
f 36 38 37
f 38 92 122
f 49 74 75
f 49 73 74
f 40 73 41
f 40 72 73
f 39 72 40
f 39 71 72
f 39 70 71
f 39 69 70
f 38 93 69
f 38 123 93
f 38 124 123
f 38 125 124
f 38 126 125
f 38 127 126
f 38 128 127
f 38 152 128
f 38 153 152
f 38 154 153
f 38 155 154
f 38 186 155
f 38 187 186
f 38 151 187
f 38 122 151
f 38 68 92
f 212 217 213

