# https://github.com/mikedh/trimesh
v -0.53752200 -0.50838700 0.04385170
v -0.53730900 -0.50881900 0.04385170
v -0.53752200 -0.50838700 0.30511100
v -0.53752200 0.50838700 0.04385170
v -0.52781600 -0.52773200 0.04385170
v -0.52781600 -0.52773200 0.24215000
v -0.53752200 -0.49390500 0.49393400
v -0.53261600 -0.51811400 0.30994000
v -0.53752200 0.50838700 0.61013800
v -0.53741500 0.50860300 0.04385170
v -0.52269700 -0.53032600 0.04385170
v -0.51320500 -0.52773200 0.60530900
v -0.51811100 -0.53259600 0.25186900
v -0.50360600 -0.53259600 0.61496700
v -0.53261600 -0.50352400 0.49876300
v -0.51811100 -0.51811400 0.62951500
v -0.52291000 -0.50838700 0.62468600
v -0.53752200 -0.47931500 0.52297000
v -0.52781600 -0.51325000 0.48904400
v -0.52781600 0.50838700 0.62951500
v -0.53378900 0.51562800 0.61741200
v -0.52781600 0.52773200 0.61013800
v -0.53752200 0.07262670 0.61013800
v -0.52781600 0.52773200 0.04385170
v -0.50840500 -0.53745900 0.04385170
v -0.50840500 -0.53745900 0.24697900
v -0.49390100 -0.53745900 0.61013800
v -0.50840500 -0.51930300 0.64100700
v -0.51565800 -0.51562800 0.64284100
v -0.51928400 -0.50838700 0.64100700
v -0.52291000 -0.49390500 0.63917400
v -0.53752200 -0.45035000 0.53751800
v -0.51320500 0.49390500 0.64400300
v -0.51811100 0.52297700 0.63434500
v -0.51928400 0.53021800 0.63189900
v -0.52835000 0.52297700 0.62468600
v -0.51811100 -0.08710880 0.64889300
v -0.51811100 0.53259600 0.62468600
v -0.51800400 0.53270400 0.04385170
v -0.53752200 -0.10159100 0.59559000
v -0.51811100 -0.49390500 0.64889300
v -0.07261960 -0.55194100 0.04385170
v -0.11613400 -0.55194100 0.07264280
v -0.13074600 -0.55194100 0.08719120
v -0.14525100 -0.55194100 0.10174000
v -0.18876500 -0.55194100 0.17435900
v -0.20337700 -0.55194100 0.20339500
v -0.21788200 -0.55194100 0.23249200
v -0.24689100 -0.55194100 0.30511100
v -0.26139600 -0.55194100 0.34869500
v -0.26139600 -0.55194100 0.47938600
v -0.45027900 -0.53745900 0.62468600
v -0.49390100 -0.52297700 0.63917400
v -0.24689100 -0.55194100 0.50842200
v -0.23238600 -0.55194100 0.52297000
v -0.20337700 -0.55194100 0.53751800
v -0.49390100 -0.51811400 0.64889300
v -0.50115300 -0.51562800 0.65005400
v -0.51565800 -0.50114600 0.65005400
v -0.53752200 -0.39220600 0.55200600
v -0.50360600 0.49390500 0.64889300
v -0.49571400 0.50838700 0.65005400
v -0.51320500 0.53259600 0.63434500
v -0.50840500 0.53745900 0.62468600
v -0.50840500 -0.08710880 0.65372200
v -0.50840500 0.53745900 0.04385170
v -0.50840500 -0.49390500 0.65372200
v 0.42139900 -0.55194100 0.04385170
v -0.15975500 -0.55194100 0.55200600
v -0.08712450 -0.55194100 0.56655400
v 0.01451620 -0.55194100 0.58110200
v 0.50842800 -0.53745900 0.62468600
v -0.45027900 -0.52773200 0.64400300
v 0.50842800 -0.51811400 0.64889300
v -0.49390100 -0.50838700 0.65372200
v -0.49390100 0.49390500 0.65372200
v -0.47939600 0.50838700 0.65372200
v -0.48419500 0.51811400 0.64889300
v -0.49752700 0.51562800 0.64644800
v -0.47449000 0.52773200 0.64400300
v -0.38735400 0.54232300 0.62951500
v -0.39705900 0.54718600 0.61979600
v -0.39215300 0.55194100 0.61013800
v -0.43577400 0.55194100 0.20339500
v -0.42127000 -0.27591700 0.66827000
v -0.43577400 0.55194100 0.04385170
v -0.40676500 -0.39220600 0.66827000
v -0.42127000 -0.33406100 0.66827000
v 0.42129200 -0.55194100 0.05815560
v 0.50842800 -0.53745900 0.04385170
v 0.27592400 -0.55194100 0.58110200
v 0.51824000 -0.53259600 0.04385170
v 0.51813400 -0.53259600 0.62468600
v 0.51568100 -0.53378500 0.63189900
v 0.50842800 -0.52773200 0.64400300
v 0.31954500 -0.55194100 0.56655400
v 0.34866100 -0.55194100 0.55200600
v 0.36316600 -0.55194100 0.53751800
v 0.37767100 -0.55194100 0.47938600
v 0.52293300 -0.51022400 0.65005400
v 0.50842800 -0.50838700 0.65372200
v -0.30501700 0.07262670 0.66827000
v -0.29051300 0.10159100 0.66827000
v -0.27600800 0.11618100 0.66827000
v -0.24689100 0.14525300 0.66827000
v -0.39215300 -0.17432600 0.66827000
v -0.34863900 -0.02896420 0.66827000
v -0.23238600 0.15973600 0.66827000
v -0.14525100 0.21788000 0.66827000
v -0.10162900 0.23236200 0.66827000
v -0.04350320 0.52297700 0.65372200
v -0.04840930 0.53259600 0.64889300
v -0.03870380 0.54232300 0.64400300
v -0.04840930 0.54718600 0.63434500
v -0.04350320 0.55194100 0.62468600
v 0.21811800 0.55194100 0.04385170
v 0.14527300 -0.39220600 0.66827000
v 0.52773200 -0.52773200 0.04385170
v 0.52773200 -0.52773200 0.62468600
v 0.52293300 -0.52297700 0.63917400
v 0.53018500 -0.51206200 0.64644800
v 0.53263800 -0.49876800 0.64889300
v 0.52293300 -0.49390500 0.65372200
v 0.49392300 -0.34865100 0.66827000
v 0.46480700 -0.36313400 0.66827000
v 0.34866100 -0.37761600 0.66827000
v -0.01449350 0.23236200 0.66827000
v 0.04352600 0.52297700 0.65372200
v 0.03872660 0.53259600 0.64889300
v 0.04832540 0.54232300 0.64400300
v 0.05323140 0.54718600 0.63434500
v 0.05803080 0.55194100 0.62468600
v 0.50842800 0.53745900 0.42125400
v 0.49392300 0.53745900 0.04385170
v 0.21790400 0.55194100 0.39221800
v 0.50842800 0.53745900 0.59559000
v 0.52783900 -0.52762400 0.04385170
v 0.53263800 -0.51811400 0.62468600
v 0.53381200 -0.51022400 0.63917400
v 0.53743800 -0.49390500 0.63917400
v 0.55204900 0.42127800 0.61013800
v 0.53263800 0.28564300 0.64889300
v 0.49392300 -0.33406100 0.66827000
v 0.11615700 0.20329000 0.66827000
v 0.49392300 0.45035000 0.65372200
v 0.52293300 0.50838700 0.63917400
v 0.51813400 0.51811400 0.63434500
v 0.49872300 0.52773200 0.62951500
v 0.13066200 0.55194100 0.59559000
v 0.49392300 0.53745900 0.61013800
v 0.53743800 0.52297700 0.52297000
v 0.51813400 0.53259600 0.41642500
v 0.52250600 0.52319300 0.04385170
v 0.18878800 0.55194100 0.53751800
v 0.50597500 0.53508200 0.60769300
v 0.51568100 0.53021800 0.61741200
v 0.53743800 0.52297700 0.61013800
v 0.17428300 0.55194100 0.56655400
v 0.53274500 -0.51800600 0.04385170
v 0.53743800 -0.50838700 0.62468600
v 0.55204900 -0.30498900 0.45035000
v 0.55204900 -0.17432600 0.52297000
v 0.55204900 -0.10159100 0.53751800
v 0.55204900 -0.02896420 0.55200600
v 0.55204900 0.20329000 0.59559000
v 0.55204900 0.50838700 0.61013800
v 0.54234400 0.51325000 0.62951500
v 0.52773200 0.42614200 0.64400300
v 0.52293300 0.29050700 0.65372200
v 0.47931200 -0.27591700 0.66827000
v 0.50842800 0.42127800 0.65372200
v 0.14527300 0.18880800 0.66827000
v 0.15977800 0.17432600 0.66827000
v 0.21790400 0.11618100 0.66827000
v 0.26141900 0.07262670 0.66827000
v 0.27592400 0.05803650 0.66827000
v 0.30504000 0.01448210 0.66827000
v 0.52293300 0.52297700 0.62468600
v 0.54714300 0.51811400 0.51814100
v 0.52773200 0.52773200 0.42608300
v 0.53263800 0.51811400 0.04385170
v 0.53509200 0.52049100 0.62224100
v 0.54714300 0.51811400 0.60530900
v 0.53743800 -0.50838700 0.04385170
v 0.55204900 -0.30498900 0.37767000
v 0.55204900 0.50838700 0.52297000
v 0.53743800 0.50838700 0.04385170
v 0.55204900 -0.17432600 0.04385170
v 0.55204900 -0.18880800 0.05815560
v 0.55204900 -0.21788000 0.11622700
v 0.55204900 -0.24695200 0.17435900
v 0.55204900 -0.29050700 0.26152700
v 0.55204900 0.49390500 0.36318200
v 0.55204900 0.47931500 0.33414700
v 0.55204900 0.45035000 0.29056300
v 0.55204900 0.24695200 0.04385170
f 1 2 3
f 112 129 130
f 111 129 112
f 111 128 129
f 110 128 111
f 110 127 128
f 101 126 117
f 101 125 126
f 101 124 125
f 101 123 124
f 112 130 113
f 100 123 101
f 100 121 122
f 95 121 100
f 95 120 121
f 94 120 95
f 94 119 120
f 93 119 94
f 92 119 93
f 92 118 119
f 85 107 106
f 100 122 123
f 85 102 107
f 113 130 131
f 114 131 132
f 127 144 145
f 122 143 124
f 122 142 143
f 122 167 142
f 122 166 167
f 122 141 166
f 122 140 141
f 122 139 140
f 122 124 123
f 113 131 114
f 121 139 122
f 119 139 121
f 119 138 139
f 119 159 138
f 119 137 159
f 118 137 119
f 116 136 133
f 116 135 136
f 116 133 134
f 114 132 115
f 119 121 120
f 85 103 102
f 85 104 103
f 85 105 104
f 83 132 149
f 83 115 132
f 82 115 83
f 82 114 115
f 81 114 82
f 81 113 114
f 80 113 81
f 78 113 80
f 78 112 113
f 83 149 158
f 78 111 112
f 77 110 111
f 77 109 110
f 77 108 109
f 76 107 102
f 76 106 107
f 76 85 106
f 76 108 77
f 76 105 108
f 76 104 105
f 77 111 78
f 83 158 154
f 83 154 135
f 83 135 116
f 85 108 105
f 85 109 108
f 85 110 109
f 85 127 110
f 85 144 127
f 85 172 144
f 85 173 172
f 85 174 173
f 85 175 174
f 85 176 175
f 85 177 176
f 85 170 177
f 85 143 170
f 85 124 143
f 85 125 124
f 85 126 125
f 85 117 126
f 85 87 117
f 85 88 87
f 83 86 84
f 83 116 86
f 127 145 128
f 128 145 146
f 128 146 130
f 128 130 129
f 152 181 153
f 152 180 181
f 152 179 180
f 151 183 179
f 151 157 183
f 150 156 155
f 149 150 158
f 148 156 150
f 148 178 156
f 156 178 167
f 147 178 148
f 146 167 147
f 146 171 167
f 145 170 171
f 145 177 170
f 145 176 177
f 145 175 176
f 145 174 175
f 145 173 174
f 145 172 173
f 147 167 178
f 156 167 182
f 156 182 157
f 157 182 167
f 187 195 196
f 187 194 195
f 187 193 194
f 186 193 187
f 184 192 185
f 184 191 192
f 184 190 191
f 184 189 190
f 184 188 189
f 179 181 180
f 179 187 181
f 179 186 187
f 168 171 169
f 167 171 168
f 166 183 167
f 166 179 183
f 166 186 179
f 160 185 161
f 160 184 185
f 159 184 160
f 157 167 183
f 145 171 146
f 76 103 104
f 144 172 145
f 143 169 171
f 139 160 140
f 138 160 139
f 138 159 160
f 136 158 150
f 136 154 158
f 136 156 157
f 136 155 156
f 136 150 155
f 135 154 136
f 140 160 161
f 134 152 153
f 133 179 152
f 133 151 179
f 133 136 157
f 132 150 149
f 132 148 150
f 131 148 132
f 130 148 131
f 130 147 148
f 130 146 147
f 133 152 134
f 140 161 162
f 140 162 163
f 140 163 164
f 142 169 143
f 142 168 169
f 142 167 168
f 141 186 166
f 141 193 186
f 141 194 193
f 141 195 194
f 141 196 195
f 141 188 196
f 141 189 188
f 141 190 189
f 141 191 190
f 141 192 191
f 141 185 192
f 141 161 185
f 141 162 161
f 141 163 162
f 141 164 163
f 141 165 164
f 140 165 141
f 140 164 165
f 143 171 170
f 76 102 103
f 133 157 151
f 75 101 117
f 17 31 18
f 17 30 31
f 16 30 17
f 16 29 30
f 15 19 16
f 14 27 28
f 14 29 16
f 14 28 29
f 13 27 14
f 18 31 32
f 13 26 27
f 12 14 16
f 11 26 13
f 11 25 26
f 10 22 24
f 9 37 20
f 9 41 37
f 9 23 41
f 9 22 10
f 9 21 22
f 12 16 19
f 9 20 21
f 20 33 34
f 20 35 36
f 26 51 27
f 25 51 26
f 25 50 51
f 25 49 50
f 25 48 49
f 25 47 48
f 25 46 47
f 25 45 46
f 25 44 45
f 20 34 35
f 25 43 44
f 23 31 41
f 23 40 31
f 22 39 24
f 22 38 39
f 22 35 38
f 22 36 35
f 21 36 22
f 20 37 33
f 20 36 21
f 25 42 43
f 8 19 15
f 8 12 19
f 7 17 18
f 1 187 196
f 1 181 187
f 1 153 181
f 1 134 153
f 1 116 134
f 1 86 116
f 1 66 86
f 1 39 66
f 1 24 39
f 1 196 188
f 1 10 24
f 1 9 4
f 1 23 9
f 1 40 23
f 1 60 40
f 1 32 60
f 1 18 32
f 1 7 18
f 1 3 7
f 75 117 87
f 1 4 10
f 1 188 184
f 1 184 159
f 1 159 137
f 7 16 17
f 7 8 15
f 6 14 12
f 6 13 14
f 6 11 13
f 6 12 8
f 5 11 6
f 4 9 10
f 3 8 7
f 3 6 8
f 2 6 3
f 2 5 6
f 1 5 2
f 1 11 5
f 1 25 11
f 1 42 25
f 1 68 42
f 1 90 68
f 1 92 90
f 1 118 92
f 1 137 118
f 27 52 53
f 27 53 28
f 7 15 16
f 27 54 55
f 63 78 80
f 63 79 78
f 62 79 63
f 62 78 79
f 62 77 78
f 62 76 77
f 61 76 62
f 58 67 59
f 58 75 67
f 63 80 81
f 57 75 58
f 57 74 101
f 57 95 74
f 57 73 95
f 52 57 53
f 52 73 57
f 52 95 73
f 52 72 95
f 52 91 72
f 52 71 91
f 57 101 75
f 63 82 64
f 64 82 83
f 64 83 84
f 74 100 101
f 27 51 54
f 74 95 100
f 72 99 89
f 72 98 99
f 72 97 98
f 72 96 97
f 72 91 96
f 72 94 95
f 72 93 94
f 72 92 93
f 72 90 92
f 68 72 89
f 68 90 72
f 67 87 88
f 67 75 87
f 65 85 76
f 65 88 85
f 65 67 88
f 64 86 66
f 64 84 86
f 52 70 71
f 52 69 70
f 63 81 82
f 42 44 43
f 37 65 76
f 37 67 65
f 37 41 67
f 35 62 63
f 35 64 38
f 35 63 64
f 34 62 35
f 33 37 61
f 33 61 62
f 31 60 32
f 31 40 60
f 30 41 31
f 30 59 41
f 29 59 30
f 29 58 59
f 28 58 29
f 28 57 58
f 28 53 57
f 52 56 69
f 27 56 52
f 27 55 56
f 37 76 61
f 38 64 39
f 33 62 34
f 39 64 66
f 42 46 45
f 42 47 46
f 42 48 47
f 42 49 48
f 42 50 49
f 42 51 50
f 42 54 51
f 42 55 54
f 42 56 55
f 42 69 56
f 42 45 44
f 42 71 70
f 42 91 71
f 42 96 91
f 42 97 96
f 42 98 97
f 42 99 98
f 42 89 99
f 42 68 89
f 42 70 69
f 41 59 67

