o convex_0
v -0.537522 -0.508387 0.0438517
v -0.537309 -0.508819 0.0438517
v -0.537522 -0.508387 0.305111
v -0.537522 0.508387 0.0438517
v -0.527816 -0.527732 0.0438517
v -0.527816 -0.527732 0.24215
v -0.537522 -0.493905 0.493934
v -0.532616 -0.518114 0.30994
v -0.537522 0.508387 0.610138
v -0.537415 0.508603 0.0438517
v -0.522697 -0.530326 0.0438517
v -0.513205 -0.527732 0.605309
v -0.518111 -0.532596 0.251869
v -0.503606 -0.532596 0.614967
v -0.532616 -0.503524 0.498763
v -0.518111 -0.518114 0.629515
v -0.52291 -0.508387 0.624686
v -0.537522 -0.479315 0.52297
v -0.527816 -0.51325 0.489044
v -0.527816 0.508387 0.629515
v -0.533789 0.515628 0.617412
v -0.527816 0.527732 0.610138
v -0.537522 0.0726267 0.610138
v -0.527816 0.527732 0.0438517
v -0.508405 -0.537459 0.0438517
v -0.508405 -0.537459 0.246979
v -0.493901 -0.537459 0.610138
v -0.508405 -0.519303 0.641007
v -0.515658 -0.515628 0.642841
v -0.519284 -0.508387 0.641007
v -0.52291 -0.493905 0.639174
v -0.537522 -0.45035 0.537518
v -0.513205 0.493905 0.644003
v -0.518111 0.522977 0.634345
v -0.519284 0.530218 0.631899
v -0.52835 0.522977 0.624686
v -0.518111 -0.0871088 0.648893
v -0.518111 0.532596 0.624686
v -0.518004 0.532704 0.0438517
v -0.537522 -0.101591 0.59559
v -0.518111 -0.493905 0.648893
v -0.0726196 -0.551941 0.0438517
v -0.116134 -0.551941 0.0726428
v -0.130746 -0.551941 0.0871912
v -0.145251 -0.551941 0.10174
v -0.188765 -0.551941 0.174359
v -0.203377 -0.551941 0.203395
v -0.217882 -0.551941 0.232492
v -0.246891 -0.551941 0.305111
v -0.261396 -0.551941 0.348695
v -0.261396 -0.551941 0.479386
v -0.450279 -0.537459 0.624686
v -0.493901 -0.522977 0.639174
v -0.246891 -0.551941 0.508422
v -0.232386 -0.551941 0.52297
v -0.203377 -0.551941 0.537518
v -0.493901 -0.518114 0.648893
v -0.501153 -0.515628 0.650054
v -0.515658 -0.501146 0.650054
v -0.537522 -0.392206 0.552006
v -0.503606 0.493905 0.648893
v -0.495714 0.508387 0.650054
v -0.513205 0.532596 0.634345
v -0.508405 0.537459 0.624686
v -0.508405 -0.0871088 0.653722
v -0.508405 0.537459 0.0438517
v -0.508405 -0.493905 0.653722
v 0.421399 -0.551941 0.0438517
v -0.159755 -0.551941 0.552006
v -0.0871245 -0.551941 0.566554
v 0.0145162 -0.551941 0.581102
v 0.508428 -0.537459 0.624686
v -0.450279 -0.527732 0.644003
v 0.508428 -0.518114 0.648893
v -0.493901 -0.508387 0.653722
v -0.493901 0.493905 0.653722
v -0.479396 0.508387 0.653722
v -0.484195 0.518114 0.648893
v -0.497527 0.515628 0.646448
v -0.47449 0.527732 0.644003
v -0.387354 0.542323 0.629515
v -0.397059 0.547186 0.619796
v -0.392153 0.551941 0.610138
v -0.435774 0.551941 0.203395
v -0.42127 -0.275917 0.66827
v -0.435774 0.551941 0.0438517
v -0.406765 -0.392206 0.66827
v -0.42127 -0.334061 0.66827
v 0.421292 -0.551941 0.0581556
v 0.508428 -0.537459 0.0438517
v 0.275924 -0.551941 0.581102
v 0.51824 -0.532596 0.0438517
v 0.518134 -0.532596 0.624686
v 0.515681 -0.533785 0.631899
v 0.508428 -0.527732 0.644003
v 0.319545 -0.551941 0.566554
v 0.348661 -0.551941 0.552006
v 0.363166 -0.551941 0.537518
v 0.377671 -0.551941 0.479386
v 0.522933 -0.510224 0.650054
v 0.508428 -0.508387 0.653722
v -0.305017 0.0726267 0.66827
v -0.290513 0.101591 0.66827
v -0.276008 0.116181 0.66827
v -0.246891 0.145253 0.66827
v -0.392153 -0.174326 0.66827
v -0.348639 -0.0289642 0.66827
v -0.232386 0.159736 0.66827
v -0.145251 0.21788 0.66827
v -0.101629 0.232362 0.66827
v -0.0435032 0.522977 0.653722
v -0.0484093 0.532596 0.648893
v -0.0387038 0.542323 0.644003
v -0.0484093 0.547186 0.634345
v -0.0435032 0.551941 0.624686
v 0.218118 0.551941 0.0438517
v 0.145273 -0.392206 0.66827
v 0.527732 -0.527732 0.0438517
v 0.527732 -0.527732 0.624686
v 0.522933 -0.522977 0.639174
v 0.530185 -0.512062 0.646448
v 0.532638 -0.498768 0.648893
v 0.522933 -0.493905 0.653722
v 0.493923 -0.348651 0.66827
v 0.464807 -0.363134 0.66827
v 0.348661 -0.377616 0.66827
v -0.0144935 0.232362 0.66827
v 0.043526 0.522977 0.653722
v 0.0387266 0.532596 0.648893
v 0.0483254 0.542323 0.644003
v 0.0532314 0.547186 0.634345
v 0.0580308 0.551941 0.624686
v 0.508428 0.537459 0.421254
v 0.493923 0.537459 0.0438517
v 0.217904 0.551941 0.392218
v 0.508428 0.537459 0.59559
v 0.527839 -0.527624 0.0438517
v 0.532638 -0.518114 0.624686
v 0.533812 -0.510224 0.639174
v 0.537438 -0.493905 0.639174
v 0.552049 0.421278 0.610138
v 0.532638 0.285643 0.648893
v 0.493923 -0.334061 0.66827
v 0.116157 0.20329 0.66827
v 0.493923 0.45035 0.653722
v 0.522933 0.508387 0.639174
v 0.518134 0.518114 0.634345
v 0.498723 0.527732 0.629515
v 0.130662 0.551941 0.59559
v 0.493923 0.537459 0.610138
v 0.537438 0.522977 0.52297
v 0.518134 0.532596 0.416425
v 0.522506 0.523193 0.0438517
v 0.188788 0.551941 0.537518
v 0.505975 0.535082 0.607693
v 0.515681 0.530218 0.617412
v 0.537438 0.522977 0.610138
v 0.174283 0.551941 0.566554
v 0.532745 -0.518006 0.0438517
v 0.537438 -0.508387 0.624686
v 0.552049 -0.304989 0.45035
v 0.552049 -0.174326 0.52297
v 0.552049 -0.101591 0.537518
v 0.552049 -0.0289642 0.552006
v 0.552049 0.20329 0.59559
v 0.552049 0.508387 0.610138
v 0.542344 0.51325 0.629515
v 0.527732 0.426142 0.644003
v 0.522933 0.290507 0.653722
v 0.479312 -0.275917 0.66827
v 0.508428 0.421278 0.653722
v 0.145273 0.188808 0.66827
v 0.159778 0.174326 0.66827
v 0.217904 0.116181 0.66827
v 0.261419 0.0726267 0.66827
v 0.275924 0.0580365 0.66827
v 0.30504 0.0144821 0.66827
v 0.522933 0.522977 0.624686
v 0.547143 0.518114 0.518141
v 0.527732 0.527732 0.426083
v 0.532638 0.518114 0.0438517
v 0.535092 0.520491 0.622241
v 0.547143 0.518114 0.605309
v 0.537438 -0.508387 0.0438517
v 0.552049 -0.304989 0.37767
v 0.552049 0.508387 0.52297
v 0.537438 0.508387 0.0438517
v 0.552049 -0.174326 0.0438517
v 0.552049 -0.188808 0.0581556
v 0.552049 -0.21788 0.116227
v 0.552049 -0.246952 0.174359
v 0.552049 -0.290507 0.261527
v 0.552049 0.493905 0.363182
v 0.552049 0.479315 0.334147
v 0.552049 0.45035 0.290563
v 0.552049 0.246952 0.0438517
f 1 2 3
f 1 3 7
f 1 7 18
f 1 18 32
f 1 32 60
f 1 60 40
f 1 40 23
f 1 23 9
f 1 9 4
f 1 4 10
f 1 10 24
f 1 24 39
f 1 39 66
f 1 66 86
f 1 86 116
f 1 116 134
f 1 134 153
f 1 153 181
f 1 181 187
f 1 187 196
f 1 196 188
f 1 188 184
f 1 184 159
f 1 159 137
f 1 137 118
f 1 118 92
f 1 92 90
f 1 90 68
f 1 68 42
f 1 42 25
f 1 25 11
f 1 11 5
f 1 5 2
f 2 5 6
f 2 6 3
f 3 6 8
f 3 8 7
f 4 9 10
f 5 11 6
f 6 12 8
f 6 11 13
f 6 13 14
f 6 14 12
f 7 8 15
f 7 15 16
f 7 16 17
f 7 17 18
f 8 12 19
f 8 19 15
f 9 20 21
f 9 21 22
f 9 22 10
f 9 23 41
f 9 41 37
f 9 37 20
f 10 22 24
f 11 25 26
f 11 26 13
f 12 14 16
f 12 16 19
f 13 26 27
f 13 27 14
f 14 28 29
f 14 29 16
f 14 27 28
f 15 19 16
f 16 29 30
f 16 30 17
f 17 30 31
f 17 31 18
f 18 31 32
f 20 33 34
f 20 34 35
f 20 35 36
f 20 36 21
f 20 37 33
f 21 36 22
f 22 36 35
f 22 35 38
f 22 38 39
f 22 39 24
f 23 40 31
f 23 31 41
f 25 42 43
f 25 43 44
f 25 44 45
f 25 45 46
f 25 46 47
f 25 47 48
f 25 48 49
f 25 49 50
f 25 50 51
f 25 51 26
f 26 51 27
f 27 52 53
f 27 53 28
f 27 51 54
f 27 54 55
f 27 55 56
f 27 56 52
f 28 53 57
f 28 57 58
f 28 58 29
f 29 58 59
f 29 59 30
f 30 59 41
f 30 41 31
f 31 40 60
f 31 60 32
f 33 61 62
f 33 62 34
f 33 37 61
f 34 62 35
f 35 63 64
f 35 64 38
f 35 62 63
f 37 41 67
f 37 67 65
f 37 65 76
f 37 76 61
f 38 64 39
f 39 64 66
f 41 59 67
f 42 68 89
f 42 89 99
f 42 99 98
f 42 98 97
f 42 97 96
f 42 96 91
f 42 91 71
f 42 71 70
f 42 70 69
f 42 69 56
f 42 56 55
f 42 55 54
f 42 54 51
f 42 51 50
f 42 50 49
f 42 49 48
f 42 48 47
f 42 47 46
f 42 46 45
f 42 45 44
f 42 44 43
f 52 56 69
f 52 69 70
f 52 70 71
f 52 71 91
f 52 91 72
f 52 72 95
f 52 95 73
f 52 73 57
f 52 57 53
f 57 73 95
f 57 95 74
f 57 74 101
f 57 101 75
f 57 75 58
f 58 75 67
f 58 67 59
f 61 76 62
f 62 76 77
f 62 77 78
f 62 78 79
f 62 79 63
f 63 79 78
f 63 78 80
f 63 80 81
f 63 81 82
f 63 82 64
f 64 82 83
f 64 83 84
f 64 84 86
f 64 86 66
f 65 67 88
f 65 88 85
f 65 85 76
f 67 75 87
f 67 87 88
f 68 90 72
f 68 72 89
f 72 90 92
f 72 92 93
f 72 93 94
f 72 94 95
f 72 91 96
f 72 96 97
f 72 97 98
f 72 98 99
f 72 99 89
f 74 95 100
f 74 100 101
f 75 101 117
f 75 117 87
f 76 102 103
f 76 103 104
f 76 104 105
f 76 105 108
f 76 108 77
f 76 85 106
f 76 106 107
f 76 107 102
f 77 108 109
f 77 109 110
f 77 110 111
f 77 111 78
f 78 111 112
f 78 112 113
f 78 113 80
f 80 113 81
f 81 113 114
f 81 114 82
f 82 114 115
f 82 115 83
f 83 115 132
f 83 132 149
f 83 149 158
f 83 158 154
f 83 154 135
f 83 135 116
f 83 116 86
f 83 86 84
f 85 88 87
f 85 87 117
f 85 117 126
f 85 126 125
f 85 125 124
f 85 124 143
f 85 143 170
f 85 170 177
f 85 177 176
f 85 176 175
f 85 175 174
f 85 174 173
f 85 173 172
f 85 172 144
f 85 144 127
f 85 127 110
f 85 110 109
f 85 109 108
f 85 108 105
f 85 105 104
f 85 104 103
f 85 103 102
f 85 102 107
f 85 107 106
f 92 118 119
f 92 119 93
f 93 119 94
f 94 119 120
f 94 120 95
f 95 120 121
f 95 121 100
f 100 121 122
f 100 122 123
f 100 123 101
f 101 123 124
f 101 124 125
f 101 125 126
f 101 126 117
f 110 127 128
f 110 128 111
f 111 128 129
f 111 129 112
f 112 129 130
f 112 130 113
f 113 130 131
f 113 131 114
f 114 131 132
f 114 132 115
f 116 133 134
f 116 135 136
f 116 136 133
f 118 137 119
f 119 137 159
f 119 159 138
f 119 138 139
f 119 139 121
f 119 121 120
f 121 139 122
f 122 124 123
f 122 139 140
f 122 140 141
f 122 141 166
f 122 166 167
f 122 167 142
f 122 142 143
f 122 143 124
f 127 144 145
f 127 145 128
f 128 145 146
f 128 146 130
f 128 130 129
f 130 146 147
f 130 147 148
f 130 148 131
f 131 148 132
f 132 148 150
f 132 150 149
f 133 136 157
f 133 157 151
f 133 151 179
f 133 179 152
f 133 152 134
f 134 152 153
f 135 154 136
f 136 150 155
f 136 155 156
f 136 156 157
f 136 154 158
f 136 158 150
f 138 159 160
f 138 160 139
f 139 160 140
f 140 160 161
f 140 161 162
f 140 162 163
f 140 163 164
f 140 164 165
f 140 165 141
f 141 165 164
f 141 164 163
f 141 163 162
f 141 162 161
f 141 161 185
f 141 185 192
f 141 192 191
f 141 191 190
f 141 190 189
f 141 189 188
f 141 188 196
f 141 196 195
f 141 195 194
f 141 194 193
f 141 193 186
f 141 186 166
f 142 167 168
f 142 168 169
f 142 169 143
f 143 169 171
f 143 171 170
f 144 172 145
f 145 171 146
f 145 172 173
f 145 173 174
f 145 174 175
f 145 175 176
f 145 176 177
f 145 177 170
f 145 170 171
f 146 171 167
f 146 167 147
f 147 167 178
f 147 178 148
f 148 178 156
f 148 156 150
f 149 150 158
f 150 156 155
f 151 157 183
f 151 183 179
f 152 179 180
f 152 180 181
f 152 181 153
f 156 178 167
f 156 167 182
f 156 182 157
f 157 182 167
f 157 167 183
f 159 184 160
f 160 184 185
f 160 185 161
f 166 186 179
f 166 179 183
f 166 183 167
f 167 171 168
f 168 171 169
f 179 186 187
f 179 187 181
f 179 181 180
f 184 188 189
f 184 189 190
f 184 190 191
f 184 191 192
f 184 192 185
f 186 193 187
f 187 193 194
f 187 194 195
f 187 195 196
o convex_1
v 0.232362 0.551941 -0.363121
v 0.232362 0.551941 -0.537512
v 0.218096 0.551941 0.0437906
v 0.493905 0.537459 0.0437906
v 0.21788 0.551941 -0.55201
v 0.493905 0.537459 -0.624638
v -0.43576 0.551941 0.0437906
v 0.522545 0.523193 0.0437906
v 0.188808 0.551941 -0.581075
v 0.51325 0.527732 -0.619829
v 0.503524 0.532596 -0.629517
v 0.493905 0.533785 -0.641017
v 0.479315 0.537459 -0.639205
v 0.522977 0.522977 -0.0581116
v -0.43576 0.551941 -0.145307
v -0.522977 0.537459 -0.435819
v -0.508387 0.537459 0.0437906
v 0.523193 0.522869 0.0437906
v 0.0871088 0.551941 -0.595573
v 0.532596 0.518114 -0.0629907
v 0.518114 0.518114 -0.644015
v 0.501146 0.530218 -0.64283
v 0.479315 0.527732 -0.658582
v 0.232362 0.537459 -0.639205
v -0.522977 0.537459 -0.61014
v -0.421278 0.551941 -0.232502
v -0.518006 0.532704 0.0437906
v -0.532596 0.532596 -0.435819
v 0.532596 0.518114 0.0437906
v -0.130663 0.551941 -0.595573
v 0.522977 0.508387 -0.639205
v 0.537459 0.508387 -0.0581116
v 0.515628 0.515628 -0.650079
v 0.508387 0.519303 -0.655515
v 0.51325 0.508387 -0.658582
v 0.501146 0.515628 -0.664576
v 0.493905 0.518114 -0.663391
v 0.493905 0.508387 -0.66827
v 0.45035 0.527732 -0.658582
v 0.232362 0.532596 -0.648894
v 0.225121 0.533785 -0.646454
v -0.508387 0.537459 -0.624638
v -0.392206 0.551941 -0.363121
v -0.377616 0.551941 -0.421252
v -0.363134 0.551941 -0.464814
v -0.348651 0.551941 -0.49388
v -0.334061 0.551941 -0.522945
v -0.304989 0.551941 -0.566508
v -0.530218 0.533785 -0.617389
v -0.532596 0.532596 -0.61014
v -0.527624 0.527841 0.0437906
v -0.527732 0.527732 0.0437906
v -0.537459 0.522977 -0.435819
v -0.542323 0.51325 -0.348624
v 0.537459 0.508387 0.0437906
v 0.522977 -0.493905 -0.639205
v 0.537459 0.493905 -0.290563
v 0.537459 0.479315 -0.348624
v 0.537459 0.464833 -0.377689
v 0.537459 0.406688 -0.450317
v 0.537459 0.348651 -0.508447
v 0.537459 0.290507 -0.537512
v 0.537459 0.261435 -0.55201
v 0.537459 0.21788 -0.566508
v 0.537459 0.101591 -0.581075
v 0.551941 0.247169 0.0437906
v 0.51325 -0.43576 -0.658582
v 0.493905 -0.43576 -0.66827
v 0.45035 0.508387 -0.66827
v -0.20329 0.518114 -0.648894
v -0.20329 0.527732 -0.644015
v -0.508387 0.532596 -0.634326
v -0.515628 0.533785 -0.631887
v -0.530218 0.526544 -0.631887
v -0.542323 0.51325 -0.624638
v -0.537459 0.522977 -0.61014
v -0.532596 0.518222 0.0437906
v -0.548375 0.501146 -0.341375
v 0.537459 -0.392206 -0.566508
v 0.522977 -0.522977 -0.624638
v 0.519303 -0.501146 -0.646454
v 0.518114 -0.493905 -0.648894
v 0.537459 -0.319579 -0.581075
v 0.551941 0.21788 -0.0145488
v 0.551941 0.174326 -0.0581116
v 0.551941 0.159736 -0.072679
v 0.551941 0.0871088 -0.101744
v 0.551941 0.0435544 -0.116242
v 0.551941 -0.174326 0.0437906
v 0.508387 -0.493905 -0.653703
v 0.479315 -0.522977 -0.653703
v 0.464833 -0.45035 -0.66827
v 0.0435544 0.421278 -0.66827
v -0.522977 0.493905 -0.653703
v -0.20329 0.508387 -0.653703
v -0.522977 0.503524 -0.648894
v -0.522977 0.51325 -0.644015
v -0.530218 0.50482 -0.646454
v -0.537459 0.508387 -0.639205
v -0.547186 0.498768 -0.634326
v -0.5447 0.50482 -0.631887
v -0.547186 0.503524 -0.624638
v -0.537459 0.508387 0.0437906
v -0.551941 0.493905 -0.624638
v -0.551941 0.493905 -0.348624
v 0.537459 -0.43576 -0.522945
v 0.551941 0.0144821 -0.116242
v 0.551941 -0.0726267 -0.072679
v 0.551941 -0.145253 -0.0291162
v 0.519303 -0.530218 -0.631887
v 0.537459 -0.479315 -0.363121
v 0.537459 -0.493905 -0.232502
v 0.537459 -0.508387 0.0145164
v 0.533785 -0.515628 0.00719781
v 0.512062 -0.515628 -0.646454
v 0.510224 -0.508387 -0.650079
v 0.551941 -0.174326 0.0290141
v 0.537459 -0.508387 0.0437906
v 0.495742 -0.522977 -0.650079
v 0.484178 -0.532596 -0.648894
v 0.232362 -0.522977 -0.653703
v 0.392206 -0.45035 -0.66827
v -0.116181 0.377616 -0.66827
v -0.174326 0.348651 -0.66827
v -0.20329 0.334061 -0.66827
v -0.21788 0.319579 -0.66827
v -0.232362 0.246952 -0.66827
v -0.290507 -0.0726267 -0.66827
v -0.522977 -0.45035 -0.653703
v -0.532596 0.498768 -0.648894
v -0.542323 0.489041 -0.644015
v -0.547186 0.426142 -0.634326
v -0.551941 0.479315 -0.261498
v -0.551941 0.290507 -0.0145488
v -0.551941 0.275917 -5.10447e-05
v -0.551941 0.159736 0.0145164
v -0.547186 0.159736 0.0242048
v -0.537459 -0.508387 0.0437906
v -0.551941 0.421278 -0.624638
v 0.527732 -0.527732 0.0145164
v 0.51325 -0.542323 -0.61014
v 0.497471 -0.5447 -0.631887
v 0.51325 -0.532596 -0.634326
v 0.497471 -0.530218 -0.646454
v 0.532704 -0.518006 0.0437906
v 0.532596 -0.518114 0.0145164
v 0.474559 -0.542323 -0.644015
v 0.237226 -0.532596 -0.648894
v -0.484178 -0.527732 -0.644015
v -0.479315 -0.508387 -0.653703
v -0.116181 -0.377616 -0.66827
v -0.290507 -0.116181 -0.66827
v -0.275917 -0.20329 -0.66827
v -0.261435 -0.275917 -0.66827
v -0.246952 -0.304989 -0.66827
v -0.508387 -0.479315 -0.653703
v -0.530218 -0.472074 -0.646454
v -0.532596 -0.445487 -0.648894
v -0.542323 0.416415 -0.644015
v -0.551941 0.0289642 0.0145164
v -0.547186 0.0289642 0.0242048
v -0.551941 -0.0144821 -0.0145488
v -0.551941 -0.0726267 -0.0581116
v -0.551941 -0.130663 -0.101744
v -0.551941 -0.145253 -0.116242
v -0.551941 -0.174326 -0.145307
v -0.551941 -0.20329 -0.18887
v -0.551941 -0.246952 -0.261498
v -0.551941 -0.363134 -0.464814
v -0.551941 -0.377616 -0.508447
v -0.537459 -0.522977 -0.159805
v -0.532596 -0.532596 -0.154995
v -0.530326 -0.522761 0.0437906
v -0.551941 0.0726267 -0.61014
v -0.537459 -0.45035 -0.639205
v 0.527841 -0.527624 0.0437906
v 0.51325 -0.542323 -0.145307
v 0.503524 -0.547186 -0.61014
v 0.495742 -0.548375 -0.624638
v 0.484178 -0.547186 -0.634326
v 0.445487 -0.542323 -0.644015
v -0.493905 -0.537459 -0.624638
v -0.515628 -0.530218 -0.631887
v -0.496282 -0.525355 -0.641575
v -0.522977 -0.508387 -0.639205
v -0.21788 -0.334061 -0.66827
v -0.174326 -0.363134 -0.66827
v -0.530218 -0.515628 -0.631887
v -0.532596 -0.503524 -0.634326
v -0.537459 -0.508387 -0.624638
v -0.551941 -0.377616 -0.566508
v -0.537459 -0.522977 -0.61014
v -0.532596 -0.532596 -0.605261
v -0.522977 -0.537459 -0.159805
v -0.508387 -0.537459 0.0437906
v -0.522761 -0.530326 0.0437906
v -0.527732 -0.527732 0.0437906
v -0.551941 -0.159736 -0.595573
v -0.551941 -0.275917 -0.581075
v 0.527732 -0.527732 0.0437906
v 0.501146 -0.548375 -0.138058
v 0.493905 -0.551941 -0.61014
v 0.479315 -0.551941 -0.624638
v 0.455106 -0.547186 -0.634326
v 0.45035 -0.551941 -0.624638
v -0.522977 -0.537459 -0.61014
v -0.527732 -0.527732 -0.629517
v -0.535082 -0.520491 -0.622198
v -0.530218 -0.530218 -0.617389
v -0.0726267 -0.551941 0.0437906
v 0.518222 -0.532596 0.0437906
v 0.508387 -0.537459 0.0437906
v 0.493905 -0.551941 -0.145307
v 0.43576 -0.551941 -0.61014
v -0.0726267 -0.551941 0.0290141
v 0.421386 -0.551941 0.0437906
v 0.43576 -0.551941 0.0290141
f 197 198 201
f 197 201 205
f 197 205 215
f 197 215 226
f 197 226 244
f 197 244 243
f 197 243 242
f 197 242 241
f 197 241 240
f 197 240 239
f 197 239 222
f 197 222 211
f 197 211 203
f 197 203 199
f 197 199 200
f 197 200 202
f 197 202 198
f 198 202 201
f 199 203 213
f 199 213 223
f 199 223 247
f 199 247 248
f 199 248 273
f 199 273 299
f 199 299 334
f 199 334 369
f 199 369 393
f 199 393 392
f 199 392 391
f 199 391 406
f 199 406 412
f 199 412 408
f 199 408 407
f 199 407 396
f 199 396 372
f 199 372 341
f 199 341 314
f 199 314 285
f 199 285 262
f 199 262 251
f 199 251 225
f 199 225 214
f 199 214 204
f 199 204 200
f 200 204 202
f 201 202 205
f 202 206 207
f 202 207 208
f 202 208 209
f 202 209 205
f 202 204 210
f 202 210 206
f 203 211 221
f 203 221 212
f 203 212 213
f 204 214 210
f 205 209 215
f 206 210 216
f 206 216 217
f 206 217 207
f 207 218 208
f 207 217 218
f 208 219 209
f 208 218 219
f 209 219 235
f 209 235 236
f 209 236 220
f 209 220 226
f 209 226 215
f 210 214 216
f 211 222 221
f 212 223 213
f 212 221 246
f 212 246 224
f 212 224 247
f 212 247 223
f 214 225 216
f 216 227 217
f 216 225 251
f 216 251 228
f 216 228 227
f 217 229 230
f 217 230 218
f 217 227 231
f 217 231 229
f 218 230 219
f 219 230 232
f 219 232 233
f 219 233 234
f 219 234 265
f 219 265 235
f 220 236 237
f 220 237 269
f 220 269 238
f 220 238 226
f 221 222 239
f 221 239 240
f 221 240 241
f 221 241 242
f 221 242 243
f 221 243 244
f 221 244 238
f 221 238 269
f 221 269 245
f 221 245 246
f 224 248 247
f 224 246 272
f 224 272 249
f 224 249 250
f 224 250 248
f 226 238 244
f 227 252 278
f 227 278 263
f 227 263 231
f 227 228 253
f 227 253 254
f 227 254 255
f 227 255 256
f 227 256 257
f 227 257 258
f 227 258 259
f 227 259 260
f 227 260 261
f 227 261 279
f 227 279 252
f 228 251 262
f 228 262 253
f 229 231 230
f 230 231 232
f 231 263 264
f 231 264 234
f 231 234 232
f 232 234 233
f 234 264 288
f 234 288 318
f 234 318 347
f 234 347 383
f 234 383 382
f 234 382 351
f 234 351 350
f 234 350 349
f 234 349 348
f 234 348 324
f 234 324 323
f 234 323 322
f 234 322 321
f 234 321 320
f 234 320 319
f 234 319 289
f 234 289 265
f 235 265 266
f 235 266 267
f 235 267 268
f 235 268 236
f 236 268 269
f 236 269 237
f 245 269 270
f 245 270 271
f 245 271 246
f 246 271 272
f 248 250 273
f 249 272 271
f 249 271 298
f 249 298 274
f 249 274 250
f 250 274 273
f 252 275 276
f 252 276 306
f 252 306 277
f 252 277 278
f 252 279 275
f 253 262 254
f 254 262 255
f 255 262 280
f 255 280 256
f 256 280 257
f 257 280 281
f 257 281 282
f 257 282 258
f 258 282 259
f 259 282 283
f 259 283 284
f 259 284 260
f 260 284 261
f 261 284 303
f 261 303 279
f 262 285 313
f 262 313 305
f 262 305 304
f 262 304 303
f 262 303 284
f 262 284 283
f 262 283 282
f 262 282 281
f 262 281 280
f 263 278 264
f 264 278 286
f 264 286 287
f 264 287 288
f 265 289 290
f 265 290 291
f 265 291 266
f 266 291 290
f 266 290 292
f 266 292 293
f 266 293 267
f 267 293 268
f 268 293 269
f 269 293 270
f 270 293 294
f 270 294 295
f 270 295 296
f 270 296 297
f 270 297 271
f 271 297 296
f 271 296 298
f 273 274 299
f 274 298 300
f 274 300 301
f 274 301 299
f 275 302 276
f 275 279 303
f 275 303 304
f 275 304 305
f 275 305 302
f 276 302 307
f 276 307 308
f 276 308 309
f 276 309 310
f 276 310 306
f 277 306 311
f 277 311 312
f 277 312 278
f 278 312 286
f 285 314 309
f 285 309 313
f 286 312 315
f 286 315 287
f 287 315 316
f 287 316 344
f 287 344 317
f 287 317 318
f 287 318 288
f 289 319 290
f 290 319 320
f 290 320 321
f 290 321 322
f 290 322 323
f 290 323 324
f 290 324 348
f 290 348 325
f 290 325 354
f 290 354 326
f 290 326 292
f 292 326 294
f 292 294 293
f 294 326 295
f 295 326 296
f 296 326 327
f 296 327 355
f 296 355 328
f 296 328 335
f 296 335 300
f 296 300 298
f 299 301 329
f 299 329 330
f 299 330 331
f 299 331 332
f 299 332 333
f 299 333 357
f 299 357 334
f 300 335 370
f 300 370 394
f 300 394 395
f 300 395 387
f 300 387 366
f 300 366 365
f 300 365 364
f 300 364 363
f 300 363 362
f 300 362 361
f 300 361 360
f 300 360 359
f 300 359 358
f 300 358 356
f 300 356 332
f 300 332 331
f 300 331 330
f 300 330 329
f 300 329 301
f 302 305 313
f 302 313 307
f 306 310 336
f 306 336 337
f 306 337 338
f 306 338 339
f 306 339 340
f 306 340 311
f 307 313 308
f 308 313 309
f 309 314 341
f 309 341 342
f 309 342 310
f 310 342 336
f 311 340 315
f 311 315 312
f 315 340 316
f 316 340 343
f 316 343 377
f 316 377 344
f 317 344 345
f 317 345 346
f 317 346 318
f 318 346 347
f 325 348 349
f 325 349 350
f 325 350 351
f 325 351 352
f 325 352 353
f 325 353 354
f 326 354 355
f 326 355 327
f 328 355 335
f 332 356 357
f 332 357 333
f 334 357 356
f 334 356 358
f 334 358 359
f 334 359 360
f 334 360 361
f 334 361 362
f 334 362 363
f 334 363 364
f 334 364 365
f 334 365 366
f 334 366 367
f 334 367 368
f 334 368 369
f 335 355 371
f 335 371 370
f 336 342 341
f 336 341 372
f 336 372 337
f 337 373 397
f 337 397 374
f 337 374 375
f 337 375 338
f 337 372 373
f 338 375 376
f 338 376 343
f 338 343 340
f 338 340 339
f 343 376 400
f 343 400 377
f 344 377 345
f 345 378 379
f 345 379 380
f 345 380 346
f 345 377 378
f 346 380 381
f 346 381 352
f 346 352 351
f 346 351 382
f 346 382 383
f 346 383 347
f 352 381 353
f 353 384 385
f 353 385 386
f 353 386 371
f 353 371 354
f 353 381 384
f 354 371 355
f 366 387 388
f 366 388 367
f 367 388 389
f 367 389 368
f 368 389 402
f 368 402 390
f 368 390 391
f 368 391 392
f 368 392 393
f 368 393 369
f 370 371 394
f 371 386 387
f 371 387 395
f 371 395 394
f 372 396 373
f 373 396 397
f 374 397 398
f 374 398 375
f 375 398 399
f 375 399 376
f 376 399 401
f 376 401 400
f 377 400 401
f 377 401 378
f 378 402 379
f 378 401 402
f 379 402 403
f 379 403 380
f 380 403 381
f 381 403 384
f 384 403 404
f 384 404 386
f 384 386 385
f 386 388 387
f 386 404 388
f 388 404 405
f 388 405 389
f 389 405 402
f 390 402 411
f 390 411 406
f 390 406 391
f 396 407 397
f 397 408 409
f 397 409 398
f 397 407 408
f 398 409 413
f 398 413 412
f 398 412 406
f 398 406 411
f 398 411 410
f 398 410 401
f 398 401 399
f 401 410 402
f 402 405 403
f 402 410 411
f 403 405 404
f 408 412 413
f 408 413 409
