# https://github.com/mikedh/trimesh
v 0.03599700 0.07776770 -0.04392240
v 0.03599700 0.11350800 -0.04392240
v 0.03609890 -0.00518375 -0.04392240
v 0.03614980 -0.00518375 -0.04384070
v 0.04129570 0.11350800 -0.04126730
v 0.04002200 0.12381000 -0.04384070
v 0.03961440 0.12306700 -0.04392240
v 0.03614980 0.07739590 -0.04384070
v 0.04639070 -0.03619760 -0.04392240
v 0.08256490 0.11350800 -0.02063920
v 0.06880850 0.11350800 -0.02750160
v 0.04644160 -0.03609140 -0.04384070
v 0.32503400 -0.24251400 0.06965440
v 0.45923500 -0.26311900 0.13157900
v 0.50050400 -0.23215800 0.15220700
v 0.03997100 0.12391700 -0.04392240
v 0.03986910 0.12370400 -0.04392240
v 0.08129110 0.12381000 -0.02321260
v 0.08129110 0.19603400 -0.04384070
v 0.05668250 -0.05680270 -0.04392240
v 0.20127700 0.08769850 0.02839830
v 0.11354200 0.12381000 -0.01030480
v 0.50050400 -0.20119800 0.15220700
v 0.31988800 -0.24766500 0.06577390
v 0.35601100 -0.27347500 0.07996840
v 0.37664600 -0.27347500 0.09028250
v 0.49016100 -0.29408000 0.14189300
v 0.49535800 -0.28892900 0.14446700
v 0.51599300 -0.24766500 0.15480100
v 0.55211600 -0.20119800 0.16254200
v 0.55644700 -0.08372740 0.16472700
v 0.08118920 0.19603400 -0.04392240
v 0.17417200 0.18573200 -0.00256417
v 0.16388000 0.20639000 -0.01289860
v 0.13417700 0.22832300 -0.03224000
v 0.13764100 0.23389900 -0.03266890
v 0.08129110 0.19619400 -0.04392240
v 0.06707620 -0.06710520 -0.04392240
v 0.30271800 -0.26487200 0.04473740
v 0.30439900 -0.26311900 0.04902640
v 0.30959600 -0.25796800 0.05548030
v 0.25803500 0.16507400 0.03097170
v 0.19480700 0.17542900 0.00774985
v 0.16388000 0.12381000 0.00774985
v 0.16515400 0.11350800 0.01032330
v 0.55644700 -0.07220340 0.16472700
v 0.55644700 -0.03725970 0.15956000
v 0.32503400 -0.27347500 0.05936080
v 0.38698800 -0.29408000 0.09028250
v 0.40762300 -0.29408000 0.10061700
v 0.46952700 -0.29408000 0.13157900
v 0.48501500 -0.29668200 0.13544000
v 0.49535800 -0.29583200 0.14103600
v 0.53662700 -0.29238000 0.14791800
v 0.53148100 -0.28377700 0.15220700
v 0.53662700 -0.27862600 0.15480100
v 0.55644700 -0.27862600 0.15480100
v 0.21544100 0.20639000 0.00774985
v 0.21416800 0.21154100 0.00517645
v 0.21416800 0.23220000 -0.00515799
v 0.19266700 0.23389900 -0.01375640
v 0.13152700 0.24324600 -0.04392240
v 0.12928600 0.23735100 -0.03979680
v 0.11221800 0.22715500 -0.04392240
v 0.12123600 -0.07608010 -0.04392240
v 0.28901200 -0.23736300 0.01032330
v 0.29242600 -0.24421300 0.01377490
v 0.28728000 -0.24936500 0.01892170
v 0.27520500 -0.24076200 0.01720610
v 0.28554800 -0.25111700 0.02754050
v 0.29752100 -0.25972000 0.02925610
v 0.30959600 -0.26832300 0.04128570
v 0.33023100 -0.27862600 0.05162020
v 0.32335200 -0.27517400 0.05505140
v 0.29925300 0.17542900 0.04128570
v 0.29798000 0.18573200 0.03871230
v 0.24641900 0.20639000 0.01806390
v 0.55644700 -0.02961250 0.15512800
v 0.49877200 0.03783200 0.12210300
v 0.30959600 0.18573200 0.04128570
v 0.38525600 -0.29583200 0.08599350
v 0.40247700 -0.29668200 0.09416300
v 0.46438100 -0.29668200 0.12512500
v 0.43340400 -0.29928400 0.10319000
v 0.49535800 -0.29928400 0.13415300
v 0.54691900 -0.29238000 0.14791800
v 0.55644700 -0.27915700 0.15453600
v 0.24514500 0.21154100 0.01549050
v 0.22191200 0.23220000 -0.00515799
v 0.21544100 0.23474900 -0.01030480
v 0.25457100 0.21324100 0.01720610
v 0.26144900 0.22014500 0.01377490
v 0.12836900 0.24096200 -0.04392240
v 0.22364400 0.23389900 -0.01375640
v 0.22191200 0.23220000 -0.01804540
v 0.16000800 0.23220000 -0.03869390
v 0.14757700 0.22699500 -0.04392240
v 0.13198600 -0.07246890 -0.04392240
v 0.15481100 -0.08255900 -0.04126730
v 0.26832700 -0.20640200 0.00000923
v 0.27867000 -0.19604600 0.00000923
v 0.29925300 -0.22700700 0.01032330
v 0.30052700 -0.23736300 0.01291710
v 0.34052200 -0.26832300 0.03097170
v 0.34398700 -0.27517400 0.03440290
v 0.33364400 -0.27517400 0.03440290
v 0.32503400 -0.27347500 0.03613900
v 0.33023100 -0.27862600 0.04128570
v 0.31647400 -0.27172200 0.03785450
v 0.39213400 -0.29928400 0.08254180
v 0.30613200 0.19263600 0.03785450
v 0.55644700 -0.02966560 0.15498500
v 0.54177300 -0.00258156 0.13932000
v 0.51084700 0.03607950 0.11867200
v 0.49276000 0.05286100 0.11093100
v 0.37496400 0.15822300 0.05505140
v 0.34398700 0.17888100 0.04473740
v 0.41276900 -0.29928400 0.09287630
v 0.53662700 -0.29928400 0.13415300
v 0.54691900 -0.29583200 0.14103600
v 0.55211600 -0.29668200 0.13932000
v 0.55644700 -0.29338900 0.14369100
v 0.55644700 -0.29275200 0.14473200
v 0.55644700 -0.28600800 0.15108400
v 0.25457100 0.22359600 0.00689206
v 0.24769200 0.22699500 0.00000923
v 0.26318100 0.22184400 0.00517645
v 0.31127700 0.19778700 0.03268730
v 0.30439900 0.20378800 0.02580450
v 0.25803500 0.22444600 -0.00127747
v 0.25288900 0.22184400 -0.00773139
v 0.20127700 0.22184400 -0.02837990
v 0.13922100 -0.06190090 -0.04392240
v 0.13285200 -0.07209720 -0.04392240
v 0.13326000 -0.07145990 -0.04392240
v 0.35601100 -0.25281700 0.03354510
v 0.41276900 0.08254720 0.05162020
v 0.37150000 -0.26832300 0.04128570
v 0.37277400 -0.27862600 0.04387960
v 0.37409800 -0.28377700 0.04645300
v 0.36462200 -0.28547700 0.04473740
v 0.36115700 -0.28892900 0.05162020
v 0.39213400 -0.29928400 0.07222780
v 0.55644700 -0.03417960 0.14761200
v 0.54177300 -0.00518375 0.13672600
v 0.48241700 0.06704030 0.08770910
v 0.49189400 0.05843710 0.09975910
v 0.51084700 0.03607950 0.11609800
v 0.46178200 0.08769850 0.08770910
v 0.49016100 0.05673770 0.10835800
v 0.43860000 0.10835700 0.07739500
v 0.40762300 0.13931700 0.05676700
v 0.34571900 0.18058100 0.03613900
v 0.32503400 0.19088300 0.03613900
v 0.51599300 -0.29928400 0.12383900
v 0.54004100 -0.29583200 0.12727000
v 0.54824400 -0.29668200 0.13415300
v 0.54951800 -0.29408000 0.12898600
v 0.55644700 -0.29142500 0.13415300
v 0.34571900 0.18058100 0.03354510
v 0.32503400 0.19088300 0.02323110
v 0.24769200 0.21669300 -0.01030480
v 0.41796600 0.12896200 0.05419360
v 0.55644700 -0.27862600 0.12383900
v 0.41796600 0.08769850 0.05419360
v 0.39213400 -0.27862600 0.05162020
v 0.39559900 -0.28547700 0.05505140
v 0.41536700 -0.29408000 0.06706060
v 0.40589100 -0.29583200 0.06534500
v 0.39559900 -0.29583200 0.06534500
v 0.40247700 -0.29928400 0.07222780
v 0.55644700 -0.04124270 0.14407900
v 0.47987000 0.06704030 0.08513570
v 0.43860000 0.10835700 0.06448720
v 0.42051300 0.12896200 0.05676700
v 0.48160200 0.06879280 0.08942470
v 0.54004100 -0.02069070 0.13072200
v 0.44028200 0.11005600 0.06879660
v 0.40762300 0.13931700 0.05419360
v 0.51940600 -0.29583200 0.11695600
v 0.55644700 -0.28664500 0.12698400
v 0.55644700 -0.27952900 0.12406300
v 0.55644700 -0.25796800 0.12383900
v 0.41409400 -0.28892900 0.06448720
f 95 132 96
f 96 132 97
f 97 132 99
f 89 126 90
f 98 134 99
f 99 101 100
f 99 134 135
f 97 99 133
f 95 131 132
f 92 128 129
f 94 126 130
f 94 130 95
f 92 129 127
f 92 111 128
f 92 127 125
f 91 111 92
f 99 135 133
f 90 126 94
f 95 130 131
f 99 132 101
f 106 142 108
f 101 132 137
f 113 147 148
f 89 125 126
f 113 146 147
f 113 145 146
f 113 144 145
f 112 144 113
f 111 117 128
f 108 142 143
f 106 108 107
f 106 141 142
f 105 141 106
f 105 140 141
f 105 139 140
f 104 139 105
f 104 138 139
f 102 104 103
f 102 138 104
f 102 136 138
f 101 137 136
f 101 136 102
f 89 92 125
f 73 143 110
f 86 123 124
f 73 81 74
f 73 110 81
f 73 108 143
f 72 108 73
f 72 109 108
f 71 109 72
f 71 108 109
f 71 107 108
f 71 106 107
f 69 71 70
f 68 71 69
f 68 106 71
f 67 106 68
f 67 105 106
f 66 105 67
f 66 104 105
f 66 103 104
f 66 102 103
f 113 148 114
f 76 80 111
f 86 124 87
f 76 111 77
f 77 91 88
f 86 122 123
f 86 121 122
f 86 120 121
f 84 119 85
f 84 155 119
f 84 171 155
f 84 143 171
f 84 110 143
f 84 118 110
f 82 118 83
f 82 110 118
f 81 110 82
f 79 111 80
f 79 117 111
f 79 116 117
f 79 115 116
f 79 114 115
f 79 113 114
f 78 112 113
f 77 111 91
f 114 148 147
f 147 176 178
f 114 149 150
f 155 169 180
f 155 171 169
f 152 175 179
f 152 178 175
f 152 160 153
f 152 179 160
f 149 151 150
f 149 152 151
f 149 178 152
f 147 178 149
f 66 101 102
f 146 177 173
f 146 172 177
f 146 176 147
f 146 175 176
f 146 174 175
f 146 173 174
f 145 172 146
f 144 172 145
f 156 180 158
f 143 169 171
f 156 158 157
f 158 168 181
f 175 178 176
f 173 177 183
f 172 183 177
f 168 182 181
f 168 184 182
f 168 180 169
f 167 184 168
f 167 182 184
f 166 182 167
f 165 174 173
f 164 173 183
f 164 165 173
f 164 182 166
f 163 179 175
f 163 174 165
f 163 175 174
f 160 163 161
f 160 179 163
f 158 181 159
f 158 180 168
f 114 147 149
f 143 170 169
f 141 170 143
f 127 129 130
f 126 127 130
f 125 127 126
f 121 159 122
f 121 158 159
f 121 157 158
f 119 121 120
f 119 157 121
f 119 156 157
f 119 180 156
f 119 155 180
f 117 154 128
f 117 153 154
f 117 152 153
f 116 150 151
f 116 152 117
f 116 151 152
f 115 150 116
f 114 150 115
f 128 154 129
f 141 143 142
f 129 154 153
f 129 160 161
f 141 169 170
f 140 169 141
f 140 168 169
f 140 167 168
f 139 167 140
f 139 166 167
f 138 166 139
f 138 164 166
f 137 165 164
f 137 163 165
f 136 137 164
f 136 164 138
f 132 163 137
f 132 162 163
f 131 163 162
f 131 161 163
f 131 162 132
f 130 161 131
f 129 161 130
f 129 153 160
f 66 100 101
f 78 113 79
f 65 99 100
f 19 36 37
f 19 35 36
f 19 34 35
f 19 33 34
f 18 33 19
f 18 22 33
f 16 19 32
f 15 46 23
f 15 31 46
f 15 30 31
f 15 29 30
f 15 28 29
f 15 27 28
f 14 27 15
f 14 26 27
f 13 26 14
f 13 25 26
f 13 24 25
f 12 24 13
f 19 37 32
f 12 20 24
f 20 38 39
f 20 40 41
f 27 51 83
f 25 27 26
f 25 51 27
f 25 50 51
f 25 49 50
f 25 48 49
f 25 41 48
f 24 41 25
f 22 43 33
f 22 44 43
f 22 45 44
f 21 47 42
f 21 46 47
f 21 23 46
f 21 45 22
f 21 44 45
f 21 43 44
f 21 42 43
f 20 41 24
f 20 39 40
f 27 83 52
f 10 23 21
f 10 18 11
f 1 3 4
f 1 9 3
f 1 20 9
f 1 38 20
f 1 65 38
f 1 98 65
f 1 134 98
f 1 135 134
f 1 133 135
f 1 97 133
f 1 62 97
f 65 100 66
f 1 64 93
f 1 37 64
f 1 32 37
f 1 16 32
f 1 17 16
f 1 7 17
f 1 2 7
f 1 4 8
f 10 15 23
f 1 8 2
f 2 6 7
f 10 22 18
f 10 21 22
f 9 20 12
f 6 19 16
f 6 18 19
f 6 11 18
f 6 17 7
f 6 16 17
f 5 8 11
f 5 11 6
f 4 15 10
f 4 14 15
f 4 13 14
f 4 12 13
f 4 9 12
f 4 11 8
f 4 10 11
f 3 9 4
f 2 8 5
f 2 5 6
f 27 52 53
f 1 93 62
f 27 54 55
f 53 85 119
f 52 85 53
f 52 84 85
f 52 118 84
f 52 83 118
f 50 83 51
f 50 82 83
f 49 82 50
f 49 81 82
f 48 81 49
f 48 74 81
f 47 76 75
f 47 80 76
f 47 79 80
f 47 78 79
f 43 77 58
f 42 47 75
f 42 77 43
f 42 76 77
f 53 119 120
f 42 75 76
f 53 120 86
f 54 86 87
f 27 53 54
f 65 98 99
f 63 93 64
f 62 96 97
f 62 94 95
f 62 90 94
f 62 93 63
f 60 92 89
f 60 91 92
f 60 88 91
f 60 62 61
f 60 90 62
f 60 89 90
f 59 88 60
f 58 88 59
f 58 77 88
f 56 87 57
f 54 56 55
f 54 87 56
f 53 86 54
f 40 48 41
f 62 95 96
f 39 74 48
f 31 112 78
f 31 144 112
f 31 172 144
f 31 183 172
f 31 164 183
f 31 182 164
f 31 181 182
f 31 159 181
f 31 122 159
f 31 123 122
f 31 124 123
f 31 87 124
f 31 57 87
f 30 57 31
f 30 56 57
f 27 55 56
f 28 56 29
f 27 56 28
f 39 48 40
f 31 78 47
f 31 47 46
f 29 56 30
f 33 58 34
f 33 43 58
f 39 72 73
f 39 70 71
f 38 70 39
f 38 69 70
f 38 68 69
f 38 67 68
f 38 66 67
f 38 65 66
f 39 71 72
f 36 63 64
f 34 58 36
f 36 64 37
f 34 36 35
f 36 58 59
f 39 73 74
f 36 60 61
f 36 61 62
f 36 62 63
f 36 59 60

