# https://github.com/mikedh/trimesh
v -0.62093300 -0.03270840 0.17371600
v -0.62437700 -0.03354800 0.17026900
v -0.71727200 -0.03354800 0.18059200
v -0.63471000 -0.03354800 0.18059200
v -0.63298800 -0.03441550 0.18231500
v -0.62437700 -0.03612260 0.18059200
v -0.61580000 -0.03785770 0.17886800
v -0.59499600 -0.04614120 0.17059100
v -0.59499600 -0.04591730 0.16973800
v -0.61407800 -0.03612260 0.17026900
v -0.61407800 -0.03612260 0.16769300
v -0.61921000 -0.03441550 0.16854500
v -0.78429900 -0.04818410 0.15134700
v -0.79979900 -0.04387440 0.15994600
v -0.71554900 -0.03441550 0.18231500
v -0.62954300 -0.04129980 0.18574400
v -0.59857900 -0.05162630 0.17544000
v -0.59499600 -0.04804420 0.17186000
v -0.59499600 -0.04591730 0.16795800
v -0.59499600 -0.05380910 0.16074100
v -0.93395700 -0.23218500 -0.00772118
v -0.83593000 -0.06880900 0.13072000
v -0.84106200 -0.06452730 0.13931900
v -0.79979900 -0.04644900 0.16254100
v -0.79807600 -0.04474200 0.16166900
v -0.71210500 -0.04129980 0.18574400
v -0.62954300 -0.05162630 0.18574400
v -0.59857900 -0.09290410 0.17544000
v -0.59499600 -0.05338930 0.17364000
v -0.59499600 -0.05817470 0.15837400
v -0.90299200 -0.25283800 0.00258281
v -0.90815900 -0.25798700 0.00000681
v -0.93223500 -0.23736200 -0.00686882
v -0.93567900 -0.24421900 -0.00686882
v -0.93912300 -0.23604700 -0.00772118
v -0.93654000 -0.19476900 0.03097560
v -0.92879000 -0.19264200 0.02752830
v -0.59499600 -0.05856650 0.15816500
v -0.59499600 -0.06782960 0.15648000
v -0.59499600 -0.14092600 0.14447100
v -0.93395700 -0.18833300 0.03612760
v -0.84364600 -0.06710190 0.13931900
v -0.84278400 -0.07225120 0.14102400
v -0.83593000 -0.07225120 0.14447100
v -0.84106200 -0.07742840 0.14189500
v -0.73790300 -0.23218500 0.13157200
v -0.63471000 -0.30444200 0.14189500
v -0.62954300 -0.29926500 0.14447100
v -0.59857900 -0.27864000 0.15479400
v -0.69147300 -0.05162630 0.18574400
v -0.59499600 -0.27864000 0.15479400
v -0.59499600 -0.19605700 0.16511700
v -0.59499600 -0.09469510 0.17364000
v -0.59499600 -0.29926500 0.12517000
v -0.90471400 -0.26487200 0.00345410
v -0.91849200 -0.25798700 0.00000681
v -0.59499600 -0.30824800 0.12518900
v -0.94683900 -0.24251200 -0.00514517
v -0.91504700 -0.26487200 0.00345410
v -0.93654000 -0.19090700 0.03612760
v -0.90171800 -0.14450800 0.09287520
v -0.89438100 -0.14450800 0.09975090
v -0.89782500 -0.15480700 0.09673920
v -0.89265900 -0.14965800 0.10060300
v -0.72757000 -0.27346300 0.12124900
v -0.70693800 -0.29411600 0.12124900
v -0.69664000 -0.27346300 0.13157200
v -0.75853500 -0.29411600 0.10060300
v -0.60374500 -0.31474100 0.14189500
v -0.59499600 -0.30959200 0.14581600
v -0.87374900 -0.27519800 0.02408100
v -0.59499600 -0.31474100 0.12899600
v -0.92362400 -0.26313700 0.00775374
v -0.93395700 -0.25283800 0.00775374
v -0.93395700 -0.20123400 0.03870360
v -0.93567900 -0.19605700 0.03785120
v -0.92362400 -0.26313700 0.00517775
v -0.91849200 -0.26487200 0.00688245
v -0.87719400 -0.27603800 0.03226360
v -0.90557500 -0.14965800 0.08772320
v -0.90471400 -0.15480700 0.08942790
v -0.90299200 -0.15998400 0.09029920
v -0.81526400 -0.27864000 0.07611230
v -0.73273700 -0.27864000 0.11738500
v -0.82043000 -0.28379000 0.06967230
v -0.76370200 -0.29669100 0.09416320
v -0.59857900 -0.31647600 0.14102400
v -0.59499600 -0.31409700 0.14356200
v -0.59499600 -0.31857500 0.13549300
v -0.76025700 -0.29582300 0.08601850
v -0.82215300 -0.28549700 0.06537270
v -0.59685600 -0.31818300 0.13587200
v -0.59499600 -0.31647600 0.14102400
f 45 63 64
f 47 66 68
f 47 67 66
f 46 64 65
f 46 65 66
f 46 66 67
f 45 64 46
f 46 67 47
f 47 68 69
f 55 72 71
f 47 70 48
f 48 70 49
f 49 70 51
f 55 71 59
f 58 75 76
f 55 57 72
f 58 74 75
f 58 73 74
f 43 63 45
f 47 69 70
f 43 62 63
f 31 54 32
f 43 45 44
f 27 49 51
f 58 76 60
f 28 52 53
f 31 40 54
f 32 55 59
f 32 59 56
f 32 56 34
f 32 34 33
f 32 54 57
f 32 57 55
f 34 58 35
f 34 56 59
f 34 59 58
f 35 58 36
f 36 58 60
f 36 60 41
f 36 41 37
f 42 60 61
f 42 61 43
f 43 61 62
f 58 59 77
f 85 91 86
f 59 78 77
f 71 90 86
f 71 86 79
f 73 77 78
f 73 78 79
f 73 79 85
f 73 85 74
f 74 82 75
f 74 85 82
f 75 82 76
f 76 82 81
f 76 81 80
f 79 86 91
f 79 91 85
f 82 85 83
f 86 89 92
f 86 92 87
f 86 90 89
f 87 92 89
f 27 50 49
f 71 89 90
f 58 77 73
f 71 72 89
f 69 88 70
f 59 71 79
f 59 79 78
f 60 76 80
f 60 80 61
f 61 80 81
f 61 81 63
f 61 63 62
f 63 81 82
f 63 82 83
f 63 83 68
f 63 68 84
f 63 84 64
f 64 84 65
f 65 84 66
f 66 84 68
f 68 83 85
f 68 85 86
f 68 86 69
f 69 87 88
f 69 86 87
f 27 52 28
f 1 9 10
f 26 49 50
f 7 18 8
f 7 16 17
f 8 18 29
f 8 29 53
f 8 53 52
f 8 52 51
f 8 51 70
f 8 70 88
f 8 88 93
f 8 93 89
f 8 89 72
f 8 72 57
f 8 57 54
f 8 54 40
f 8 40 39
f 8 39 38
f 8 38 30
f 8 30 20
f 8 20 19
f 7 17 18
f 8 19 9
f 6 16 7
f 5 15 26
f 87 89 93
f 1 2 3
f 1 3 4
f 1 4 5
f 1 5 6
f 1 6 7
f 1 7 8
f 1 8 9
f 1 10 11
f 1 11 12
f 1 12 2
f 2 12 13
f 2 13 14
f 2 14 3
f 3 15 5
f 3 5 4
f 3 14 25
f 3 25 15
f 5 16 6
f 5 26 16
f 27 51 52
f 9 19 11
f 11 19 20
f 21 36 37
f 21 37 22
f 21 30 38
f 21 38 39
f 21 39 40
f 21 40 31
f 22 37 41
f 22 41 23
f 23 41 60
f 23 60 42
f 23 42 24
f 24 42 43
f 24 43 44
f 24 44 45
f 24 45 46
f 24 46 47
f 24 47 48
f 24 48 26
f 26 48 49
f 21 35 36
f 9 11 10
f 21 34 35
f 21 32 33
f 11 20 21
f 11 21 12
f 12 21 22
f 12 22 13
f 13 22 14
f 14 22 23
f 14 23 24
f 14 24 25
f 15 25 24
f 15 24 26
f 16 27 28
f 16 28 17
f 16 26 50
f 16 50 27
f 17 28 53
f 17 53 29
f 17 29 18
f 20 30 21
f 21 31 32
f 21 33 34
f 87 93 88

