# https://github.com/mikedh/trimesh
v -0.07829690 -0.85942900 0.36742200
v 0.18681600 -0.85942900 0.36742200
v -0.07829690 -0.85942900 0.41104200
v -0.07829690 0.78455700 0.36742200
v 0.22428000 -0.85320400 0.36742200
v 0.18681600 -0.85942900 0.37367100
v -0.03733190 -0.85942900 0.42971800
v -0.05601850 -0.85471800 0.43205700
v -0.07829690 -0.85438200 0.42111400
v -0.07829690 0.85337200 0.43431100
v 0.23660100 0.85623200 0.36742200
v 0.17745000 -0.85471800 0.40170300
v 0.16812900 -0.85942900 0.39236500
v 0.23664600 -0.84697900 0.36742200
v -0.01864540 -0.85942900 0.42971800
v -0.00932486 -0.85471800 0.43905700
v -0.03733190 -0.85303600 0.44218100
v -0.04669790 -0.85000700 0.44373500
v -0.07829690 -0.85303600 0.42348700
v -0.07829690 0.85842000 0.44440000
v 0.24287500 0.85707400 0.36742200
v 0.12148100 -0.85471800 0.42038000
v 0.30825600 -0.68646700 0.43905700
v 0.19613600 -0.68646700 0.49510500
v 0.11211500 -0.85942900 0.41104200
v 0.37991000 -0.68579400 0.36742200
v 0.36431500 -0.68646700 0.38300900
v 0.34562900 -0.68646700 0.40170300
v -0.01864540 -0.85303600 0.44218100
v -0.07829690 -0.68495200 0.53558300
v -0.07829690 -0.84310900 0.43420800
v -0.06538450 -0.85000700 0.43439600
v -0.07829690 0.85942900 0.44841200
v 0.24287500 0.85942900 0.37367100
v 0.25906100 0.85690500 0.36742200
v 0.11211500 -0.85303600 0.42348700
v 0.14016800 -0.68646700 0.51378200
v 0.08410790 -0.68646700 0.53245900
v 0.07474190 -0.68495200 0.53558300
v 0.23664600 -0.67872700 0.47953500
v 0.31134700 -0.67872700 0.44218100
v 0.19927300 -0.67872700 0.49821200
v 0.38609300 -0.67872700 0.36742200
v 0.38609300 -0.67872700 0.36743900
v 0.36740700 -0.67872700 0.38613300
v -0.07829690 -0.67250200 0.54181400
v 0.09342840 0.85942900 0.44841200
v -0.07829690 0.85303600 0.46084100
v 0.22418900 0.85942900 0.39236500
v 0.27397400 0.85320400 0.36742200
v 0.08719960 -0.67872700 0.53558300
v 0.07474190 -0.67250200 0.54181400
v 0.18681600 -0.67250200 0.50444300
v 0.29888900 -0.67250200 0.44841200
v 0.23664600 0.66627600 0.47953500
v 0.34249100 -0.66627600 0.41727300
v 0.32380500 -0.66627600 0.43595000
v 0.38618400 -0.66005100 0.36742200
v 0.37986500 -0.66627600 0.37990200
v -0.07829690 0.65382600 0.54181400
v 0.14948800 0.85942900 0.42971800
v 0.08719960 0.85303600 0.46084100
v 0.14325900 0.85303600 0.44218100
v -0.07829690 0.84782000 0.46350400
v 0.23973800 0.85623200 0.38924000
v 0.23350900 0.85000700 0.40170300
v 0.24910400 0.84681000 0.39857900
v 0.28647700 0.84697900 0.36742200
v 0.09342840 0.65147000 0.53713600
v 0.07474190 0.65382600 0.54181400
v 0.18681600 0.65382600 0.50444300
v 0.29888900 0.65382600 0.44841200
v 0.24910400 0.67872700 0.47330400
v 0.34249100 0.66005100 0.41727300
v 0.32380500 0.66005100 0.43595000
v 0.38618400 0.64760000 0.36742200
v 0.37986500 0.66005100 0.37990200
v -0.07829690 0.84058500 0.46707200
v 0.15876300 0.85000700 0.43905700
v 0.09342840 0.84058500 0.46707200
v 0.10279400 0.85000700 0.45773400
v 0.21173100 0.84681000 0.41727300
v 0.30825600 0.68192400 0.43905700
v 0.34562900 0.70060000 0.40170300
v 0.36122300 0.71607900 0.36742200
v 0.10279400 0.66324800 0.53245900
v 0.11525200 0.67569800 0.52624400
v 0.09965730 0.67872700 0.52935100
v 0.22418900 0.67250200 0.48574900
v 0.19613600 0.68192400 0.49510500
v 0.17435800 0.84681000 0.43595000
v 0.37991000 0.67872700 0.36742200
v 0.14948800 0.84058500 0.44841200
f 47 62 63
f 47 63 61
f 48 64 62
f 49 65 50
f 46 52 70
f 49 61 66
f 46 70 60
f 49 66 67
f 52 53 69
f 50 65 67
f 50 67 68
f 52 69 70
f 53 71 69
f 55 72 73
f 55 73 71
f 45 59 56
f 56 77 74
f 56 74 75
f 49 67 65
f 56 59 77
f 40 71 53
f 44 58 59
f 34 49 50
f 34 50 35
f 56 75 57
f 37 42 51
f 37 51 38
f 38 51 39
f 39 51 52
f 40 53 42
f 40 41 54
f 44 59 45
f 40 54 72
f 40 55 71
f 41 45 56
f 41 56 57
f 41 57 75
f 41 75 72
f 41 72 54
f 42 53 52
f 42 52 51
f 43 58 44
f 40 72 55
f 58 76 77
f 71 73 89
f 60 70 80
f 72 75 73
f 73 90 89
f 73 75 83
f 73 82 91
f 73 91 90
f 74 77 84
f 74 84 75
f 75 84 83
f 76 92 77
f 77 92 84
f 79 81 93
f 79 93 91
f 80 93 81
f 80 88 87
f 80 87 93
f 84 92 85
f 87 90 93
f 33 62 47
f 90 91 93
f 71 87 86
f 58 77 59
f 71 90 87
f 70 88 80
f 60 80 78
f 61 63 79
f 61 79 66
f 62 64 80
f 62 80 81
f 62 81 63
f 63 81 79
f 64 78 80
f 66 79 91
f 66 91 82
f 66 82 67
f 67 82 73
f 67 73 83
f 67 83 84
f 68 84 85
f 69 71 86
f 69 86 70
f 70 86 87
f 70 87 88
f 71 89 90
f 33 48 62
f 67 84 68
f 33 61 49
f 1 50 68
f 1 68 85
f 1 85 92
f 1 92 76
f 1 76 58
f 1 58 43
f 1 43 26
f 1 26 14
f 1 14 5
f 1 5 2
f 2 5 6
f 3 7 8
f 3 8 9
f 4 10 11
f 5 12 13
f 5 13 6
f 5 14 12
f 7 15 16
f 7 16 17
f 1 35 50
f 7 17 8
f 1 21 35
f 1 4 11
f 33 49 34
f 1 2 6
f 1 6 13
f 1 13 25
f 1 25 15
f 1 15 7
f 1 7 3
f 1 3 9
f 1 9 19
f 1 31 30
f 1 30 46
f 1 46 60
f 1 60 78
f 1 78 64
f 1 64 48
f 1 48 33
f 1 33 20
f 1 20 10
f 1 10 4
f 1 11 21
f 8 17 18
f 1 19 31
f 8 19 9
f 21 34 35
f 22 36 29
f 22 37 38
f 22 38 39
f 22 39 36
f 23 40 24
f 23 28 41
f 23 41 40
f 24 40 42
f 24 42 37
f 26 43 44
f 26 44 27
f 27 44 45
f 28 45 41
f 29 36 39
f 30 39 52
f 30 52 46
f 33 47 61
f 8 18 19
f 20 34 21
f 20 33 34
f 27 45 28
f 18 30 31
f 10 20 21
f 19 32 31
f 10 21 11
f 12 22 13
f 12 14 23
f 12 24 37
f 12 37 22
f 13 22 25
f 14 26 27
f 14 27 28
f 12 23 24
f 17 30 18
f 15 25 22
f 15 22 16
f 16 22 29
f 18 32 19
f 16 29 17
f 17 29 39
f 17 39 30
f 14 28 23
f 18 31 32

