# https://github.com/mikedh/trimesh
v -0.42272500 -0.67250200 0.35021000
v -0.42043200 -0.68192400 0.35021000
v -0.41722900 -0.67250200 0.36122000
v -0.42272500 0.65382600 0.35021000
v -0.41810600 -0.68646700 0.35021000
v -0.42036500 -0.68192400 0.35032300
v -0.41102500 -0.68646700 0.35731800
v -0.39234500 -0.68646700 0.37601700
v -0.34251000 -0.67250200 0.43595900
v -0.41722900 0.65382600 0.36122000
v -0.41817300 0.66779100 0.35021000
v -0.26866800 -0.85471800 0.35021000
v -0.33627200 -0.68646700 0.43205800
v -0.32693300 -0.68192400 0.44374300
v -0.33006800 -0.67250200 0.44218600
v -0.34251000 0.65382600 0.43595900
v -0.32383000 0.84058500 0.36122000
v -0.32588700 0.85236300 0.35021000
v -0.39470500 0.71473300 0.35021000
v -0.24766200 -0.85942900 0.35021000
v -0.24290800 -0.85942900 0.35499300
v -0.26155400 -0.85471800 0.35731800
v -0.21488800 -0.68192400 0.49976500
v -0.25221400 -0.85000700 0.36900300
v -0.24290800 -0.84058500 0.38068800
v -0.20554800 -0.84058500 0.39936800
v -0.20554800 -0.67250200 0.50443500
v -0.33006800 0.65382600 0.44218600
v -0.31991900 0.67250200 0.44374300
v -0.32227900 0.68192400 0.43907300
v -0.31294000 0.85000700 0.36433300
v -0.31991900 0.85471800 0.35499300
v -0.32470700 0.85471800 0.35021000
v -0.07829690 -0.85942900 0.35021000
v -0.20554800 -0.85942900 0.37367300
v -0.22422800 -0.85471800 0.37601700
v -0.17749500 -0.68192400 0.51844500
v -0.18063100 -0.67250200 0.51688800
v -0.23356800 -0.85000700 0.37834300
v -0.14013500 -0.85000700 0.42506200
v -0.16815500 -0.84058500 0.41804800
v -0.20554800 0.65382600 0.50443500
v -0.20787500 0.67250200 0.49976500
v -0.21020100 0.68192400 0.49509500
v -0.17439300 0.85303600 0.44218600
v -0.24911200 0.85303600 0.40480700
v -0.25686700 0.85000700 0.40169300
v -0.30515100 0.85303600 0.36744600
v -0.26388000 0.85471800 0.39235300
v -0.24290800 0.85942900 0.39235300
v -0.29891300 0.85942900 0.35499300
v -0.30370100 0.85942900 0.35021000
v -0.07829690 -0.85942900 0.41103400
v -0.07829690 0.78455700 0.35021000
v -0.13079600 -0.85942900 0.41103400
v -0.14947500 -0.85471800 0.41337800
v -0.10277600 -0.68192400 0.53712500
v -0.16815500 -0.67250200 0.52311500
v -0.18063100 0.65382600 0.51688800
v -0.13079600 -0.85303600 0.42348700
v -0.07829690 -0.84310900 0.43421500
v -0.17439300 0.66627600 0.51688800
v -0.16815500 0.65382600 0.52311500
v -0.09967400 0.85303600 0.46084800
v -0.16815500 0.85942900 0.42973300
v -0.09967400 0.66627600 0.53556900
v -0.28498700 0.85942900 0.35021000
v -0.07829690 -0.85438200 0.42112400
v -0.26398100 0.85471800 0.35021000
v -0.10277600 0.85000700 0.41570400
v -0.07829690 0.85337200 0.43432800
v -0.09343620 -0.68495200 0.53556900
v -0.07829690 -0.68495200 0.53556900
v -0.07829690 -0.67250200 0.54179500
v -0.09343620 -0.67250200 0.54179500
v -0.07829690 -0.85303600 0.42348700
v -0.09343620 0.65382600 0.54179500
v -0.07829690 0.85303600 0.46084800
v -0.09343620 0.85942900 0.44839400
v -0.09343620 0.84058500 0.46707400
v -0.07829690 0.84782000 0.46351100
v -0.11211600 0.85942900 0.42973300
v -0.09343620 0.85471800 0.42738800
v -0.07829690 0.85842000 0.44439900
v -0.07829690 0.65382600 0.54179500
v -0.07829690 0.85942900 0.44839400
v -0.07829690 0.84058500 0.46707400
f 40 56 60
f 37 40 57
f 37 57 75
f 37 75 58
f 37 58 38
f 38 58 63
f 38 63 59
f 40 60 61
f 45 64 79
f 42 59 43
f 43 62 44
f 43 59 63
f 43 63 62
f 44 62 45
f 37 41 40
f 45 79 65
f 45 65 50
f 40 61 57
f 36 40 39
f 34 73 61
f 35 56 36
f 32 49 50
f 32 50 51
f 32 51 52
f 32 52 33
f 34 54 71
f 34 71 84
f 34 84 86
f 34 86 78
f 36 56 40
f 34 78 81
f 34 87 85
f 34 85 74
f 34 74 73
f 45 50 46
f 34 61 76
f 34 76 68
f 34 68 53
f 35 55 56
f 34 81 87
f 45 62 66
f 50 52 51
f 46 50 49
f 64 66 77
f 64 77 80
f 64 80 81
f 64 81 78
f 67 82 83
f 67 83 69
f 69 83 70
f 70 83 71
f 71 83 84
f 74 85 77
f 74 77 75
f 77 85 87
f 77 87 80
f 80 87 81
f 82 86 84
f 82 84 83
f 32 46 49
f 64 86 79
f 64 78 86
f 62 77 66
f 62 63 77
f 50 65 79
f 50 79 86
f 50 86 82
f 50 82 67
f 50 67 52
f 53 68 55
f 54 69 70
f 54 70 71
f 45 66 64
f 55 60 56
f 57 72 73
f 57 73 74
f 57 74 75
f 58 75 77
f 58 77 63
f 60 68 76
f 60 76 61
f 61 73 72
f 57 61 72
f 32 48 46
f 55 68 60
f 31 46 48
f 3 9 16
f 3 16 10
f 4 10 11
f 5 12 7
f 7 12 8
f 8 13 9
f 8 12 13
f 9 13 14
f 9 14 15
f 9 15 28
f 9 28 16
f 10 16 17
f 10 17 18
f 10 18 19
f 10 19 11
f 12 20 21
f 12 21 22
f 3 8 9
f 3 7 8
f 3 5 7
f 3 6 5
f 31 48 32
f 1 2 3
f 1 3 10
f 1 10 4
f 1 4 11
f 1 11 19
f 1 19 18
f 1 18 33
f 12 22 13
f 1 52 67
f 1 69 54
f 1 54 34
f 1 34 20
f 1 20 12
f 1 12 5
f 1 5 2
f 2 5 6
f 2 6 3
f 1 67 69
f 13 22 14
f 1 33 52
f 14 22 24
f 23 26 41
f 23 41 37
f 24 36 39
f 24 39 25
f 25 39 40
f 25 40 26
f 26 40 41
f 27 38 59
f 23 38 27
f 27 59 42
f 31 47 46
f 28 43 29
f 29 43 30
f 30 44 45
f 30 45 46
f 30 46 47
f 30 47 31
f 14 23 15
f 28 42 43
f 23 37 38
f 30 43 44
f 21 36 22
f 22 36 24
f 14 25 26
f 14 26 23
f 14 24 25
f 15 27 42
f 15 42 28
f 16 28 29
f 16 29 30
f 16 30 17
f 15 23 27
f 17 32 33
f 17 33 18
f 17 30 31
f 20 34 53
f 20 53 55
f 20 55 35
f 20 35 21
f 17 31 32
f 21 35 36

