# https://github.com/mikedh/trimesh
v 0.37366700 0.85942900 0.25336100
v 0.39235500 0.85942900 0.22419200
v 0.37366700 0.85942900 0.24287500
v 0.34680000 0.85522300 0.25336100
v 0.38653000 0.85354000 0.25336100
v 0.41104400 0.85942900 0.18682500
v 0.39009700 0.85118500 0.25336100
v 0.44839600 0.85942900 -0.00918571
v 0.34565800 0.85471800 0.25220400
v 0.34451700 0.85438200 0.25336100
v 0.42970800 0.85942900 0.14945800
v 0.39646900 0.84479100 0.25336100
v 0.39858500 0.84681000 0.24909500
v 0.41727300 0.84681000 0.21172800
v 0.43593800 0.84681000 0.17436000
v 0.43905200 0.85000700 0.15878700
v 0.44839600 0.85942900 0.07474900
v 0.46083100 0.85303600 -0.00918571
v 0.29891400 0.78455700 -0.00918571
v 0.34040400 0.84882900 0.25336100
v 0.44216700 0.85303600 0.14321300
v 0.45717000 0.69992700 0.25336100
v 0.45771700 0.70060000 0.25220400
v 0.47640500 0.68192400 0.23352100
v 0.49509300 0.68192400 0.19615400
v 0.44839600 0.84058500 0.14945800
v 0.46083100 0.85303600 0.06852970
v 0.46232900 0.85017500 -0.00918571
v 0.29891400 0.78455700 0.25336100
v 0.29891400 -0.85942900 -0.00918571
v 0.46649000 0.67199700 0.25336100
v 0.47017600 0.67569800 0.24598500
v 0.47329000 0.66005100 0.24909500
v 0.51066700 0.66005100 0.17436000
v 0.50755200 0.67569800 0.17125100
v 0.46706100 0.84058500 0.07474900
v 0.52312600 0.65382600 0.14945800
v 0.46706100 0.84058500 -0.00918571
v 0.29891400 -0.85404500 0.25336100
v 0.42050700 -0.85942900 -0.00918571
v 0.29891400 -0.85942900 0.25333500
v 0.47117400 0.65786400 0.25336100
v 0.54181400 0.65382600 0.05606540
v 0.52312600 -0.67250200 0.14945800
v 0.54181400 0.65382600 -0.00918571
v 0.29893800 -0.85942900 0.25336100
v 0.42970800 -0.85942900 0.00001473
v 0.43084900 -0.85707400 -0.00918571
v 0.47117400 -0.66846400 0.25336100
v 0.54181400 -0.67250200 0.05606540
v 0.51689600 -0.67872700 0.16189600
v 0.51689600 -0.68495200 0.14945800
v 0.54181400 -0.67250200 -0.00918571
v 0.31762600 -0.85942900 0.25336100
v 0.42970800 -0.85942900 0.01869830
v 0.43717400 -0.85387700 -0.00918571
v 0.44216700 -0.85303600 0.00001473
v 0.43905200 -0.85471800 0.02802720
v 0.46706100 -0.67771700 0.25336100
v 0.47952000 -0.67872700 0.23663000
v 0.53558500 -0.68495200 0.05606540
v 0.51378200 -0.68646700 0.15878700
v 0.42036400 -0.85471800 0.12144500
v 0.42347900 -0.85303600 0.11211600
v 0.53558500 -0.68495200 -0.00918571
v 0.34565800 -0.85471800 0.25220400
v 0.34451700 -0.85438200 0.25336100
v 0.33631400 -0.85942900 0.24287500
v 0.41104400 -0.85942900 0.11211600
v 0.44368900 -0.85000700 -0.00918571
v 0.44378400 -0.84983900 -0.00918571
v 0.44216700 -0.85303600 0.01869830
v 0.46356600 -0.68461600 0.25336100
v 0.36434700 -0.84529600 0.25220400
v 0.47640500 -0.68646700 0.23352100
v 0.40169900 -0.84529600 0.17747000
v 0.42036400 -0.84529600 0.14010300
v 0.42502400 -0.84294100 0.13077400
v 0.36434700 -0.85471800 0.23352100
v 0.36320500 -0.84479100 0.25336100
v 0.35500200 -0.85942900 0.22419200
f 37 44 50
f 44 51 52
f 37 50 43
f 40 48 47
f 43 50 53
f 43 53 45
f 44 49 51
f 44 52 61
f 49 59 60
f 47 48 56
f 47 56 57
f 47 57 58
f 47 58 55
f 50 61 65
f 49 60 51
f 37 49 44
f 44 61 50
f 37 42 49
f 28 36 38
f 36 43 45
f 50 65 53
f 26 37 36
f 27 36 28
f 30 40 47
f 30 47 55
f 30 55 69
f 30 69 81
f 36 45 38
f 30 81 68
f 30 54 46
f 30 46 41
f 31 42 32
f 32 42 33
f 33 42 34
f 34 42 37
f 36 37 43
f 30 68 54
f 51 60 75
f 67 74 80
f 51 62 52
f 62 74 76
f 62 76 77
f 62 77 78
f 62 78 63
f 63 78 77
f 63 77 76
f 63 76 74
f 62 75 74
f 63 74 79
f 66 68 81
f 66 81 79
f 66 79 74
f 66 74 67
f 69 79 81
f 73 80 74
f 26 35 37
f 63 79 69
f 51 75 62
f 61 64 72
f 60 73 74
f 52 62 63
f 52 63 64
f 52 64 61
f 54 66 67
f 54 68 66
f 55 58 69
f 56 70 57
f 60 74 75
f 57 70 71
f 57 65 61
f 57 61 72
f 57 72 58
f 58 72 64
f 58 64 63
f 58 63 69
f 59 73 60
f 57 71 65
f 26 36 27
f 39 41 46
f 25 34 37
f 1 22 12
f 1 12 7
f 1 7 5
f 1 5 2
f 2 5 7
f 2 7 6
f 3 8 4
f 1 31 22
f 4 8 9
f 6 7 11
f 7 12 13
f 7 13 14
f 7 15 16
f 7 16 11
f 8 10 9
f 8 17 27
f 4 9 10
f 8 27 18
f 1 42 31
f 1 59 49
f 1 2 6
f 1 6 11
f 1 11 17
f 1 17 8
f 1 8 3
f 1 3 4
f 1 4 10
f 1 49 42
f 1 10 20
f 1 29 39
f 1 39 46
f 1 46 54
f 1 54 67
f 1 67 80
f 1 80 73
f 1 73 59
f 1 20 29
f 8 18 28
f 7 14 15
f 8 38 45
f 15 26 16
f 15 25 35
f 15 35 26
f 16 26 21
f 8 28 38
f 18 27 28
f 19 29 20
f 19 30 41
f 19 41 39
f 19 39 29
f 21 26 27
f 22 31 32
f 22 32 23
f 23 32 24
f 24 32 33
f 24 33 34
f 24 34 25
f 14 25 15
f 13 25 14
f 17 21 27
f 13 23 24
f 8 45 53
f 13 24 25
f 8 65 71
f 8 71 70
f 8 70 56
f 8 56 48
f 8 48 40
f 8 40 30
f 8 53 65
f 8 19 10
f 10 19 20
f 11 21 17
f 11 16 21
f 25 37 35
f 12 22 23
f 12 23 13
f 8 30 19

