# https://github.com/mikedh/trimesh
v 0.11190600 -0.85942900 -0.41104300
v 0.11190600 -0.85942900 -0.30984800
v 0.11190600 -0.85303600 -0.42347500
v 0.13080000 -0.85942900 -0.41104300
v 0.11210600 -0.85942900 -0.30978600
v 0.11190600 -0.85909300 -0.30978600
v 0.13703100 -0.85303600 -0.42347500
v 0.11190600 -0.68545700 -0.51867200
v 0.17438500 -0.85303600 -0.40481600
v 0.21177200 -0.85303600 -0.38613600
v 0.20554100 -0.85942900 -0.37368200
v 0.28807900 -0.85942900 -0.30978600
v 0.11190600 0.78455700 -0.30978600
v 0.15415800 -0.85000700 -0.42036200
v 0.17438500 -0.68495200 -0.51689600
v 0.11190600 -0.67250200 -0.52322800
v 0.16815300 -0.67250200 -0.52312300
v 0.19151200 -0.85000700 -0.40170300
v 0.22889900 -0.85000700 -0.38302300
v 0.24912600 -0.85303600 -0.36745600
v 0.24289500 -0.85942900 -0.35500200
v 0.28028200 -0.85942900 -0.31762100
v 0.30910500 -0.85471800 -0.30978600
v 0.30444000 0.85471800 -0.30978600
v 0.11190600 0.85303600 -0.41724800
v 0.18218200 -0.68192400 -0.51378300
v 0.21177200 -0.68495200 -0.49821600
v 0.11190600 0.67216500 -0.52322800
v 0.21800300 -0.67250200 -0.49821600
v 0.16815300 0.65382600 -0.52312300
v 0.24912600 -0.68495200 -0.47953600
v 0.32383400 -0.68495200 -0.44215500
v 0.26392100 -0.85471800 -0.35500200
v 0.25692300 -0.85000700 -0.36434200
v 0.30357400 -0.85000700 -0.32696100
v 0.32153400 -0.84849300 -0.30978600
v 0.32543300 0.85942900 -0.30978600
v 0.11210600 0.85942900 -0.42970200
v 0.11190600 0.85942900 -0.42989000
v 0.21953600 -0.68192400 -0.49510300
v 0.11190600 0.67250200 -0.52318600
v 0.13080000 0.67250200 -0.52312300
v 0.25535700 -0.67250200 -0.47953600
v 0.21800300 0.65382600 -0.49821600
v 0.17751700 0.66324800 -0.51844300
v 0.25692300 -0.68192400 -0.47640200
v 0.33159800 -0.68192400 -0.43904200
v 0.33862900 -0.68646700 -0.42970200
v 0.39467600 -0.68646700 -0.37368200
v 0.43203000 -0.68646700 -0.33630100
v 0.44372600 -0.68192400 -0.32696100
v 0.44575900 -0.68562500 -0.30978600
v 0.34412700 0.85942900 -0.30978600
v 0.16815300 0.85942900 -0.42970200
v 0.11190600 0.85471800 -0.45082700
v 0.11190600 0.84058500 -0.45782600
v 0.14013000 0.68192400 -0.51844300
v 0.33006500 -0.67250200 -0.44215500
v 0.25535700 0.65382600 -0.47953600
v 0.18684700 0.67250200 -0.51144300
v 0.26158800 0.67250200 -0.47408300
v 0.32693300 0.66324800 -0.44372200
v 0.17751700 0.85000700 -0.44372200
v 0.34249400 -0.67250200 -0.43592800
v 0.37988100 -0.67250200 -0.39858900
v 0.39857500 -0.67250200 -0.37990900
v 0.43592900 -0.67250200 -0.34252800
v 0.45232300 -0.67250200 -0.30978600
v 0.43592900 0.65382600 -0.34252800
v 0.45232300 0.65382600 -0.30978600
v 0.35495600 0.85690500 -0.30978600
v 0.35495600 0.85471800 -0.31996200
v 0.33629600 0.85471800 -0.33864200
v 0.33629600 0.85942900 -0.31762100
v 0.20554100 0.85942900 -0.41104300
v 0.18684700 0.85471800 -0.43204200
v 0.16815300 0.85303600 -0.44215500
v 0.11190600 0.85455000 -0.45097300
v 0.33006500 0.65382600 -0.44215500
v 0.29890900 0.67250200 -0.45540300
v 0.25222500 0.85000700 -0.40636200
v 0.34249400 0.65382600 -0.43592800
v 0.30827200 0.85000700 -0.36900200
v 0.32383400 0.84058500 -0.36122900
v 0.22420100 0.85471800 -0.41338300
v 0.26158800 0.85471800 -0.39470300
v 0.37988100 0.65382600 -0.39858900
v 0.39857500 0.65382600 -0.37990900
v 0.39857500 0.69117800 -0.36122900
v 0.36118700 0.84058500 -0.32384800
v 0.43902800 0.68192400 -0.32230200
v 0.44372600 0.67250200 -0.31996200
v 0.44779100 0.67250200 -0.30978600
v 0.36355300 0.85354000 -0.30978600
v 0.36558600 0.85135300 -0.30978600
v 0.36432000 0.85000700 -0.31296200
v 0.31760200 0.85471800 -0.35732200
v 0.29890900 0.85942900 -0.35500200
v 0.24289500 0.85942900 -0.39236300
v 0.44372600 0.68276500 -0.30978600
f 48 65 66
f 48 66 49
f 49 66 67
f 49 67 50
f 50 67 51
f 51 68 52
f 51 67 69
f 51 69 70
f 51 70 68
f 53 72 73
f 53 73 74
f 54 75 76
f 54 76 77
f 55 77 63
f 55 63 78
f 56 78 63
f 56 63 57
f 58 82 64
f 48 64 65
f 58 79 82
f 53 71 72
f 54 77 55
f 43 58 47
f 47 58 64
f 37 74 98
f 59 62 79
f 37 98 99
f 37 99 75
f 37 75 54
f 37 54 39
f 37 39 38
f 39 54 55
f 40 43 46
f 41 56 42
f 42 56 57
f 42 57 45
f 43 47 46
f 43 59 79
f 43 79 58
f 44 45 62
f 44 62 59
f 45 60 61
f 45 61 62
f 45 57 63
f 45 63 60
f 47 64 48
f 60 63 61
f 72 95 96
f 61 63 81
f 72 90 73
f 73 97 98
f 73 98 74
f 73 90 84
f 73 84 97
f 75 99 86
f 75 86 85
f 75 85 76
f 81 86 83
f 82 84 87
f 83 86 97
f 83 97 84
f 84 90 89
f 91 96 95
f 84 89 88
f 84 88 87
f 86 99 98
f 86 98 97
f 90 96 91
f 91 100 92
f 37 53 74
f 72 96 90
f 61 80 62
f 72 94 95
f 70 92 93
f 61 81 80
f 62 82 79
f 62 80 81
f 62 81 83
f 62 83 84
f 62 84 82
f 63 77 76
f 63 76 85
f 63 85 86
f 63 86 81
f 64 82 87
f 64 87 65
f 65 87 88
f 65 88 66
f 66 88 69
f 66 69 67
f 69 88 89
f 69 89 90
f 69 90 91
f 69 91 92
f 69 92 70
f 71 94 72
f 36 51 52
f 1 78 56
f 35 50 36
f 5 12 23
f 5 23 36
f 5 36 52
f 5 52 68
f 5 68 70
f 5 70 93
f 5 93 100
f 5 100 95
f 5 95 94
f 4 10 11
f 5 94 71
f 5 53 37
f 5 37 24
f 5 24 13
f 5 13 6
f 7 14 18
f 7 18 9
f 7 8 15
f 7 15 14
f 8 16 17
f 5 71 53
f 4 9 10
f 4 7 9
f 3 8 7
f 91 95 100
f 1 2 6
f 1 6 13
f 1 13 25
f 1 25 39
f 1 39 55
f 1 55 78
f 1 56 41
f 1 41 28
f 1 28 16
f 1 16 8
f 1 8 3
f 1 3 7
f 1 7 4
f 1 4 11
f 1 11 21
f 1 21 22
f 1 22 12
f 1 12 5
f 1 5 2
f 2 5 6
f 8 17 15
f 9 18 19
f 9 19 10
f 10 19 20
f 24 38 25
f 25 38 39
f 26 40 31
f 26 31 27
f 26 29 43
f 26 43 40
f 28 41 42
f 28 42 30
f 29 44 59
f 29 59 43
f 30 42 45
f 30 45 44
f 31 40 46
f 31 46 47
f 31 47 32
f 32 47 34
f 33 34 47
f 33 47 35
f 35 47 48
f 35 48 49
f 35 49 50
f 24 37 38
f 36 50 51
f 23 35 36
f 22 33 23
f 10 20 21
f 10 21 11
f 12 22 23
f 13 24 25
f 14 15 18
f 15 17 26
f 15 26 27
f 15 27 19
f 15 19 18
f 16 28 30
f 16 30 17
f 17 29 26
f 17 30 44
f 17 44 29
f 19 27 31
f 19 31 32
f 19 32 20
f 20 33 21
f 20 32 34
f 20 34 33
f 21 33 22
f 23 33 35
f 92 100 93

