# https://github.com/mikedh/trimesh
v -0.54181400 -0.67250200 -0.00918571
v -0.53718600 -0.68175600 -0.00918571
v -0.54181400 -0.67250200 0.11208900
v -0.54181400 0.65382600 -0.00918571
v -0.53555300 -0.68495200 -0.00918571
v -0.53555300 -0.68495200 0.11831400
v -0.52312100 -0.67250200 0.16813200
v -0.54181400 0.65382600 0.11208900
v -0.46704200 0.84058500 -0.00918571
v -0.44213300 -0.85303600 -0.00918571
v -0.51686000 -0.68495200 0.17435700
v -0.44213300 -0.85303600 0.00622865
v -0.42348500 -0.85303600 0.13700900
v -0.51377400 -0.68192400 0.18215900
v -0.50442800 -0.67250200 0.20564800
v -0.52312100 0.65382600 0.16813200
v -0.51844800 0.66324800 0.17749000
v -0.53714100 0.66324800 0.12142600
v -0.46704200 0.84058500 0.11208900
v -0.46391100 0.84697900 -0.00918571
v -0.43886600 -0.85471800 -0.00918571
v -0.49989100 -0.68545700 0.20564800
v -0.40479200 -0.85303600 0.19305200
v -0.42970100 -0.85942900 0.00000402
v -0.41100700 -0.85942900 0.13076300
v -0.39231400 -0.85942900 0.18682700
v -0.50442800 0.65382600 0.20564800
v -0.51141500 0.67250200 0.18682700
v -0.44372100 0.85000700 0.17749000
v -0.46236800 0.85000700 0.12142600
v -0.46082600 0.85303600 -0.00918571
v -0.42970100 -0.85942900 -0.00918571
v -0.40166100 -0.85000700 0.20083200
v -0.40030000 -0.84596900 0.20564800
v -0.39231400 -0.85522300 0.20564800
v -0.39417500 -0.85438200 0.20564800
v -0.39526400 -0.85320400 0.20564800
v -0.37353000 -0.85942900 0.20564800
v -0.50438200 0.65399400 0.20564800
v -0.49272200 0.69100900 0.20564800
v -0.49276700 0.69117800 0.20550100
v -0.42961000 0.84075300 0.20564800
v -0.42348500 0.85303600 0.20564800
v -0.42339400 0.85320400 0.20564800
v -0.43201500 0.85471800 0.18682700
v -0.44213300 0.85303600 0.16813200
v -0.46082600 0.85303600 0.11208900
v -0.44839400 0.85942900 -0.00918571
v -0.07829690 -0.85942900 -0.00918571
v -0.07829690 -0.85942900 0.20564800
v -0.49258600 0.69134600 0.20564800
v -0.41087100 0.85942900 0.20564800
v -0.41100700 0.85942900 0.20550100
v -0.42970100 0.85942900 0.16813200
v -0.44839400 0.85942900 0.11208900
v -0.41100700 0.85942900 0.18682700
v -0.07829690 0.78455700 -0.00918571
v -0.07829690 0.78455700 0.20564800
f 1 2 3
f 27 39 28
f 26 38 35
f 24 26 25
f 24 38 26
f 24 50 38
f 24 49 50
f 24 32 49
f 23 37 33
f 23 36 37
f 23 35 36
f 23 26 35
f 28 39 40
f 22 33 34
f 21 32 24
f 20 47 31
f 20 30 47
f 19 30 20
f 18 29 30
f 17 29 18
f 17 28 29
f 17 27 28
f 16 27 17
f 15 39 27
f 15 40 39
f 22 23 33
f 28 40 41
f 29 42 43
f 29 43 44
f 52 58 57
f 52 57 56
f 49 58 50
f 49 57 58
f 48 56 57
f 48 52 56
f 48 53 52
f 48 54 53
f 48 55 54
f 46 55 47
f 46 54 55
f 45 54 46
f 45 53 54
f 44 53 45
f 44 52 53
f 41 51 42
f 40 51 41
f 33 37 34
f 31 55 48
f 31 47 55
f 29 41 42
f 29 47 30
f 29 46 47
f 29 45 46
f 29 44 45
f 15 51 40
f 15 42 51
f 28 41 29
f 15 44 43
f 6 13 23
f 6 12 13
f 5 12 6
f 5 10 12
f 4 19 9
f 4 8 19
f 3 16 8
f 3 7 16
f 3 11 7
f 3 6 11
f 2 5 6
f 1 5 2
f 1 10 5
f 1 21 10
f 1 32 21
f 1 49 32
f 1 57 49
f 1 48 57
f 1 31 48
f 1 20 31
f 1 9 20
f 1 4 9
f 1 8 4
f 1 3 8
f 15 43 42
f 6 23 11
f 7 11 14
f 2 6 3
f 7 14 15
f 15 58 52
f 15 50 58
f 15 38 50
f 15 35 38
f 15 36 35
f 15 37 36
f 15 34 37
f 15 22 34
f 14 22 15
f 13 26 23
f 13 25 26
f 13 24 25
f 15 52 44
f 12 21 24
f 12 24 13
f 7 27 16
f 8 16 17
f 8 17 18
f 8 18 30
f 7 15 27
f 9 19 20
f 10 21 12
f 11 22 14
f 11 23 22
f 8 30 19

