# https://github.com/mikedh/trimesh
v 0.27102700 0.78742900 -0.30976500
v 0.07475110 0.80337900 0.01869830
v 0.29891400 0.78466100 0.25336100
v -0.07829690 0.78466100 0.25336100
v -0.07829690 -0.85942900 0.25336100
v -0.09669800 -0.85942900 -0.00918571
v -0.09669800 -0.85942900 -0.30976500
v -0.09669800 0.78466100 -0.30976500
v -0.09669800 0.78466100 -0.00918571
v 0.03738360 0.80337900 -0.01868920
v 0.03738450 0.80337900 0.01869830
v 0.06556770 0.80337900 -0.00918571
v 0.05606500 0.80337900 -0.01868920
v 0.07475110 0.80337900 0.00001473
v 0.27102700 -0.85942900 -0.30976500
v 0.29891400 -0.85942900 0.25333500
v 0.29891400 -0.85942900 -0.00918571
v 0.29891400 0.78466100 -0.00918571
f 14 12 2
f 8 10 1
f 8 1 7
f 15 7 1
f 15 16 7
f 17 16 15
f 18 1 3
f 17 15 18
f 18 15 1
f 18 3 16
f 3 5 16
f 5 7 16
f 14 1 12
f 17 18 16
f 13 12 1
f 14 2 1
f 13 10 12
f 13 1 10
f 2 3 1
f 4 3 2
f 4 5 3
f 6 5 4
f 6 8 7
f 9 8 6
f 6 7 5
f 9 11 10
f 9 4 11
f 9 6 4
f 11 4 2
f 11 2 10
f 12 10 2
f 9 10 8

