# https://github.com/mikedh/trimesh
v -0.50444800 -0.67250200 0.20564800
v -0.49990100 -0.68545700 0.20564800
v -0.50444800 -0.67250200 0.22419900
v -0.50444800 0.65382600 0.20564800
v -0.49819000 -0.68495200 0.23044000
v -0.40028800 -0.84596900 0.20564800
v -0.49510400 -0.68192400 0.23822300
v -0.48576000 -0.67250200 0.26157100
v -0.49977600 0.66324800 0.23355300
v -0.50444800 0.65382600 0.22419900
v -0.49272600 0.69100900 0.20564800
v -0.47950300 -0.68495200 0.26779700
v -0.39528200 -0.85320400 0.20564800
v -0.47641600 -0.68192400 0.27558000
v -0.47328700 -0.67250200 0.28647600
v -0.48108800 0.66324800 0.27091000
v -0.49276800 0.67250200 0.24289200
v -0.42502400 0.85000700 0.21486000
v -0.49260100 0.69134600 0.20564800
v -0.44216800 -0.68495200 0.32383400
v -0.38297600 -0.85000700 0.22888300
v -0.36741700 -0.85303600 0.24911900
v -0.39419700 -0.85438200 0.20564800
v -0.43904000 -0.68192400 0.33161600
v -0.43591100 -0.67250200 0.34251200
v -0.47328700 0.65382600 0.28647600
v -0.44371200 0.66324800 0.32694700
v -0.40633600 0.85000700 0.25223200
v -0.41334400 0.85471800 0.22419900
v -0.42339700 0.85320400 0.20564800
v -0.42961300 0.84075300 0.20564800
v -0.34560000 -0.85000700 0.28490500
v -0.39232000 -0.85471800 0.20785600
v -0.35494400 -0.85471800 0.26390600
v -0.39232000 -0.85522300 0.20564800
v -0.42969600 -0.68646700 0.33862100
v -0.41809900 -0.68646700 0.35021000
v -0.42043500 -0.68192400 0.35021000
v -0.42273000 -0.67250200 0.35021000
v -0.43591100 0.65382600 0.34251200
v -0.36120200 0.84058500 0.32383400
v -0.36896000 0.85000700 0.30826800
v -0.39465600 0.85471800 0.26157100
v -0.39232000 0.85942900 0.24289200
v -0.41088300 0.85942900 0.20564800
v -0.32695400 -0.85000700 0.30359800
v -0.33629800 -0.85471800 0.28257100
v -0.35494400 -0.85942900 0.24289200
v -0.33629800 -0.85942900 0.26157100
v -0.37350700 -0.85942900 0.20564800
v -0.30826600 -0.85000700 0.32227700
v -0.26868000 -0.85471800 0.35021000
v -0.42273000 0.65382600 0.35021000
v -0.41818300 0.66779100 0.35021000
v -0.32591100 0.85236300 0.35021000
v -0.34251400 0.84058500 0.34251200
v -0.32470200 0.85471800 0.35021000
v -0.35728000 0.85471800 0.31760700
v -0.35494400 0.85942900 0.29892900
v -0.39232000 0.85942900 0.22419900
v -0.07829690 0.78455700 0.20564800
v -0.28027600 -0.85471800 0.33862100
v -0.28027600 -0.85942900 0.31760700
v -0.07829690 -0.85942900 0.20564800
v -0.24765600 -0.85942900 0.35021000
v -0.30367800 0.85942900 0.35021000
v -0.31761000 0.85942900 0.33628600
v -0.33629800 0.85942900 0.31760700
v -0.28503200 0.85942900 0.35021000
v -0.26400800 0.85471800 0.35021000
v -0.07829690 0.78455700 0.35021000
v -0.26158800 -0.85942900 0.33628600
v -0.07829690 -0.85942900 0.35021000
f 40 55 56
f 37 52 65
f 37 65 73
f 37 73 71
f 37 71 70
f 37 70 69
f 37 69 66
f 37 54 53
f 37 57 55
f 37 55 54
f 37 53 39
f 37 39 38
f 40 53 54
f 40 54 55
f 37 66 57
f 37 51 52
f 32 46 36
f 36 46 51
f 27 41 42
f 40 56 41
f 28 42 58
f 28 58 43
f 29 43 44
f 29 44 45
f 36 51 37
f 29 45 30
f 33 35 34
f 34 47 46
f 34 35 48
f 34 48 49
f 34 49 47
f 35 50 48
f 32 34 46
f 41 56 57
f 48 63 49
f 41 58 42
f 52 62 65
f 55 57 56
f 57 66 67
f 57 67 68
f 57 68 58
f 58 68 59
f 51 62 52
f 60 69 70
f 61 70 71
f 61 71 73
f 61 73 64
f 62 63 72
f 27 40 41
f 62 72 65
f 60 70 61
f 49 63 62
f 48 72 63
f 48 65 72
f 43 58 59
f 43 59 44
f 44 59 68
f 44 68 67
f 44 67 66
f 44 66 69
f 44 69 60
f 44 60 45
f 45 60 61
f 46 47 62
f 46 62 51
f 47 49 62
f 48 50 64
f 48 64 73
f 48 73 65
f 41 57 58
f 25 53 40
f 25 36 37
f 25 38 39
f 3 5 7
f 3 7 8
f 3 8 9
f 3 9 10
f 4 10 11
f 5 12 14
f 2 6 5
f 5 14 7
f 6 13 12
f 7 14 8
f 8 14 15
f 8 15 16
f 8 16 9
f 9 16 17
f 5 6 12
f 9 17 18
f 2 5 3
f 1 23 13
f 25 39 53
f 1 2 3
f 1 3 10
f 1 10 4
f 1 4 11
f 1 11 19
f 1 13 6
f 1 19 31
f 1 30 45
f 1 45 61
f 1 61 64
f 1 64 50
f 1 50 35
f 1 35 23
f 1 31 30
f 9 18 19
f 1 6 2
f 10 19 11
f 18 28 43
f 18 43 29
f 18 29 30
f 18 30 31
f 18 31 19
f 20 32 24
f 17 28 18
f 22 23 33
f 22 34 32
f 23 35 33
f 24 32 36
f 24 36 25
f 9 19 10
f 25 37 38
f 22 33 34
f 16 28 17
f 20 22 32
f 16 42 28
f 12 20 14
f 12 13 21
f 12 21 22
f 12 22 20
f 13 23 22
f 14 20 24
f 14 24 25
f 13 22 21
f 15 25 40
f 15 40 26
f 15 26 16
f 16 26 40
f 16 40 27
f 16 27 42
f 14 25 15

