# https://github.com/mikedh/trimesh
v 0.44838000 0.85942900 -0.00918571
v 0.46083800 0.85303600 -0.00918571
v 0.44838000 0.85942900 -0.11210500
v 0.32547100 0.85942900 -0.30976500
v 0.30445200 0.85471800 -0.30976500
v 0.27102700 0.78455700 -0.00924456
v 0.27108000 0.78455700 -0.00918571
v 0.46083800 0.85303600 -0.11834300
v 0.46232200 0.85017500 -0.00918571
v 0.42969300 0.85942900 -0.16812600
v 0.34415800 0.85942900 -0.30976500
v 0.29840800 0.84546400 -0.30976500
v 0.29597000 0.84058500 -0.30976500
v 0.27102700 0.78741800 -0.30976500
v 0.27102700 0.77513500 -0.00918571
v 0.46706700 0.84058500 -0.11210500
v 0.53558500 0.66627600 -0.09965960
v 0.51689800 0.66627600 -0.17436300
v 0.49821200 0.66627600 -0.23041300
v 0.44215100 0.85303600 -0.17436300
v 0.46706700 0.84058500 -0.00918571
v 0.39237300 0.85942900 -0.24285800
v 0.35499900 0.85942900 -0.29890800
v 0.35499900 0.85690500 -0.30976500
v 0.27102700 -0.85942900 -0.30976500
v 0.27102700 -0.85370900 -0.00918571
v 0.54178800 0.65382600 -0.09342200
v 0.52312700 0.65382600 -0.16812600
v 0.50444000 0.65382600 -0.22417500
v 0.48108900 0.67250200 -0.26389500
v 0.47639700 0.68192400 -0.26622000
v 0.40480400 0.85303600 -0.24909600
v 0.54178800 0.65382600 -0.00918571
v 0.39237300 0.85471800 -0.26389500
v 0.36356000 0.85354000 -0.30976500
v 0.28812400 -0.85942900 -0.30976500
v 0.27102700 -0.85942900 -0.00924456
v 0.27108000 -0.85942900 -0.00918571
v 0.54178800 -0.67250200 -0.09342200
v 0.52312700 -0.67250200 -0.16812600
v 0.49821200 0.65382600 -0.23665000
v 0.50444000 -0.67250200 -0.22417500
v 0.49977500 -0.68192400 -0.23353100
v 0.47952500 0.65382600 -0.27401700
v 0.47329600 0.65382600 -0.28646200
v 0.44371500 0.68276500 -0.30976500
v 0.36560100 0.85135300 -0.30976500
v 0.40170300 0.85000700 -0.25689300
v 0.36745700 0.85303600 -0.30514600
v 0.54178800 -0.67250200 -0.00918571
v 0.35499900 -0.85942900 -0.24285800
v 0.30914300 -0.85471800 -0.30976500
v 0.42052200 -0.85942900 -0.00918571
v 0.53712300 -0.68192400 -0.10277800
v 0.51843600 -0.68192400 -0.17748200
v 0.42502800 -0.85000700 -0.14014500
v 0.40636800 -0.85000700 -0.19616500
v 0.48108900 -0.68192400 -0.27089800
v 0.45230300 0.65382600 -0.30976500
v 0.44779700 0.67250200 -0.30976500
v 0.47329600 -0.67250200 -0.28646200
v 0.53558500 -0.68495200 -0.00918571
v 0.39237300 -0.85942900 -0.18680900
v 0.35733100 -0.85471800 -0.26154200
v 0.32154800 -0.84849300 -0.30976500
v 0.32229000 -0.85000700 -0.30826400
v 0.34097700 -0.85000700 -0.28958100
v 0.43085900 -0.85707400 -0.00918571
v 0.41100600 -0.85942900 -0.13078800
v 0.53558500 -0.68495200 -0.09342200
v 0.44371500 -0.85000700 -0.00936225
v 0.42346400 -0.85303600 -0.13078800
v 0.40480400 -0.85303600 -0.18680900
v 0.39470500 -0.85471800 -0.20549200
v 0.36899400 -0.85000700 -0.25221500
v 0.44575600 -0.68562500 -0.30976500
v 0.45230300 -0.67250200 -0.30976500
v 0.44379400 -0.84983900 -0.00918571
v 0.43719400 -0.85387700 -0.00918571
v 0.44368800 -0.85000700 -0.00918571
f 32 49 34
f 40 54 55
f 34 49 35
f 35 49 47
f 36 52 51
f 39 50 54
f 39 54 40
f 40 55 43
f 43 57 58
f 41 43 58
f 41 58 44
f 43 55 56
f 43 56 57
f 45 59 60
f 44 58 45
f 32 47 49
f 40 43 42
f 32 48 47
f 27 33 50
f 31 47 48
f 45 60 46
f 25 38 37
f 26 37 38
f 27 50 39
f 27 39 40
f 27 40 28
f 28 40 42
f 31 48 32
f 28 42 29
f 29 42 43
f 29 43 41
f 30 41 44
f 30 44 45
f 30 45 31
f 31 45 46
f 31 46 47
f 29 41 30
f 45 58 61
f 68 69 79
f 45 77 59
f 58 75 67
f 58 67 76
f 58 76 61
f 61 76 77
f 62 78 71
f 62 71 70
f 63 74 73
f 57 75 58
f 63 73 72
f 64 67 75
f 65 76 66
f 66 76 67
f 69 72 79
f 71 78 80
f 71 80 79
f 25 53 38
f 63 72 69
f 45 61 77
f 71 79 72
f 57 74 64
f 50 62 54
f 51 52 64
f 51 64 74
f 51 74 63
f 52 65 66
f 52 66 67
f 52 67 64
f 57 64 75
f 53 69 68
f 54 70 71
f 54 71 56
f 54 56 55
f 56 71 72
f 56 72 73
f 56 73 57
f 57 73 74
f 54 62 70
f 25 69 53
f 1 80 78
f 25 51 63
f 1 33 21
f 1 21 9
f 1 9 2
f 2 9 8
f 3 8 20
f 3 20 10
f 4 11 24
f 4 24 35
f 4 35 47
f 4 47 46
f 4 46 60
f 4 60 59
f 4 59 77
f 4 77 76
f 4 76 65
f 1 50 33
f 1 62 50
f 1 78 62
f 1 79 80
f 25 63 69
f 1 2 8
f 1 8 3
f 1 3 10
f 1 10 22
f 1 22 23
f 1 23 11
f 4 65 52
f 1 11 4
f 1 5 6
f 1 6 7
f 1 7 15
f 1 26 38
f 1 38 53
f 1 53 68
f 1 68 79
f 1 4 5
f 4 52 36
f 1 15 26
f 4 25 14
f 16 33 27
f 16 27 17
f 17 27 28
f 17 28 18
f 18 28 29
f 18 29 19
f 19 29 30
f 16 21 33
f 19 30 31
f 20 31 32
f 22 32 34
f 22 34 23
f 23 34 24
f 24 34 35
f 25 36 51
f 4 36 25
f 19 31 20
f 11 23 24
f 20 32 22
f 9 21 16
f 4 14 13
f 10 20 22
f 4 13 12
f 4 12 5
f 5 12 6
f 6 13 14
f 6 14 25
f 6 25 37
f 6 12 13
f 6 26 15
f 6 15 7
f 8 9 16
f 8 19 20
f 8 16 17
f 8 17 18
f 6 37 26
f 8 18 19

