# https://github.com/mikedh/trimesh
v 0.49096500 0.19976000 0.45448700
v 0.47875800 0.19976000 0.47872200
v 0.49096500 -0.09088600 0.45448700
v 0.49096500 0.19976000 -0.16378700
v 0.47251000 0.19976000 0.48188400
v 0.47875800 -0.08483390 0.47872200
v 0.48481300 -0.09693820 0.46660500
v 0.46664700 -0.26063400 0.48478100
v 0.47270300 -0.25453300 0.47266400
v 0.49096500 -0.18181200 0.43631000
v 0.49096500 0.18179600 -0.27271600
v 0.47270300 0.19976000 -0.79997300
v 0.45511300 0.19976000 0.49057700
v 0.45453700 -0.25453300 0.49084000
v 0.45453700 -0.26668600 0.48478100
v 0.46366800 -0.26817500 0.48175200
v 0.46664700 -0.26668600 0.47266400
v 0.49096500 -0.23637700 0.41813300
v 0.49096500 0.16363900 -0.36359900
v 0.49096500 0.14543500 -0.43630600
v 0.49096500 0.12727800 -0.49083700
v 0.49096500 0.10907400 -0.52732200
v 0.49096500 0.09091770 -0.56367600
v 0.47270300 -0.00000820 -0.81815000
v 0.47260700 0.19976000 -0.80023700
v 0.45453700 0.19976000 0.49084000
v 0.09083040 -0.01821260 0.50914900
v 0.03633220 -0.07272970 0.50914900
v -0.01816610 -0.09088600 0.50914900
v -0.43637100 -0.25453300 0.49084000
v -0.44550200 -0.26366000 0.48636200
v 0.41820400 -0.27879000 0.47872200
v 0.43637100 -0.27955800 0.47266400
v 0.42723900 -0.28637900 0.46357500
v 0.41820400 -0.29094200 0.45448700
v 0.47875800 -0.26063400 0.41813300
v 0.49096500 -0.23637700 -0.00006409
v 0.49096500 -0.00000820 -0.56367600
v 0.47270300 -0.23637700 -0.81815000
v 0.46818500 -0.24545500 -0.82723900
v 0.46664700 -0.00000820 -0.83026800
v 0.46655100 0.19976000 -0.81235500
v -0.14542500 0.09091770 0.50914900
v -0.07266430 0.07271330 0.50914900
v 0.03633220 0.03635250 0.50914900
v 0.07266430 -0.00000820 0.50914900
v -0.45472900 0.19976000 0.49084000
v -0.12725900 -0.09088600 0.50914900
v -0.20001900 -0.07272970 0.50914900
v -0.23635100 -0.03636890 0.50914900
v -0.25451700 -0.00000820 0.50914900
v -0.45453700 0.12727800 0.49084000
v -0.46366800 0.11815200 0.48636200
v -0.46059200 -0.21817300 0.47872200
v -0.46818500 -0.23637700 0.45685800
v -0.44848100 -0.26668600 0.47872200
v -0.43637100 -0.27273800 0.47266400
v -0.43637100 -0.26668600 0.48478100
v -0.05449830 -0.27879000 0.47872200
v -0.05449830 -0.29094200 0.45448700
v 0.18175700 -0.29094200 0.14535000
v 0.41820400 -0.27273800 -0.34542300
v 0.43637100 -0.27273800 -0.27271600
v 0.45453700 -0.27273800 -0.16365500
v 0.46664700 -0.26668600 -0.16365500
v 0.47875800 -0.26063400 -0.00006409
v 0.48635100 -0.24545500 -0.00915247
v 0.49096500 -0.18181200 -0.27271600
v 0.49096500 -0.07272970 -0.50914500
v 0.49096500 -0.09088600 -0.49083700
v 0.49096500 -0.10909000 -0.45448300
v 0.46664700 -0.24848100 -0.81815000
v 0.45453700 -0.25453300 -0.81815000
v 0.46059200 -0.24848100 -0.83026800
v 0.45453700 -0.23637700 -0.83645900
v 0.46664700 -0.23637700 -0.83026800
v 0.46366800 0.00906998 -0.83184900
v 0.46059200 0.19976000 -0.82420900
v -0.16359100 0.09091770 0.50914900
v -0.25451700 0.05450890 0.50914900
v -0.23635100 0.07271330 0.50914900
v -0.46664700 0.19976000 0.48478100
v -0.46664700 0.12727800 0.48478100
v -0.47270300 -0.21817300 0.45448700
v -0.46366800 -0.24545500 0.45909700
v -0.47270300 -0.23637700 0.43631000
v -0.46664700 -0.24848100 0.44236900
v -0.46059200 -0.26063400 0.43025100
v -0.23635100 -0.29094200 0.38178000
v -0.18175700 -0.29094200 0.41813300
v -0.14542500 -0.29094200 0.43631000
v -0.43637100 -0.27273800 0.18183500
v 0.12725900 -0.29094200 0.09081970
v 0.34544400 -0.27273800 -0.39995300
v 0.18175700 -0.27273800 -0.50914500
v 0.14542500 -0.27273800 -0.52732200
v -0.01816610 -0.27273800 -0.54549900
v -0.45453700 -0.25453300 -0.81815000
v -0.44848100 -0.24848100 -0.83026800
v -0.42723900 -0.24545500 -0.83184900
v -0.45453700 -0.23637700 -0.83645900
v 0.45453700 -0.00000820 -0.83645900
v 0.43637100 0.19976000 -0.83645900
v 0.46040000 0.19976000 -0.82434100
v -0.46674300 0.19976000 0.48465000
v -0.47270300 0.12727800 0.47266400
v -0.49096500 0.03635250 0.05446620
v -0.49096500 -0.05452530 -0.00006409
v -0.49096500 -0.07272970 -0.01824090
v -0.49096500 -0.14545100 -0.16365500
v -0.49096500 -0.16360800 -0.21818500
v -0.49096500 -0.20001600 -0.36359900
v -0.49096500 -0.21817300 -0.52732200
v -0.49096500 -0.23637700 -0.78179700
v -0.48481300 -0.24848100 -0.77573800
v -0.46059200 -0.26063400 0.17577600
v -0.23635100 -0.29094200 0.36360300
v -0.47270300 -0.25453300 -0.79997300
v -0.38177600 -0.27273800 -0.32724600
v 0.00000000 -0.29094200 0.01811270
v -0.05449830 -0.27273800 -0.54549900
v -0.27268400 -0.27273800 -0.52732200
v -0.32727800 -0.27273800 -0.49083700
v -0.46972300 -0.25150700 -0.81512100
v -0.46366800 -0.24545500 -0.82723900
v -0.45453700 -0.20001600 -0.83645900
v -0.47875800 -0.24242900 -0.82420900
v 0.41820400 0.19976000 -0.83645900
v -0.47270300 0.19976000 0.47266400
v -0.49096500 0.05450890 0.05446620
v -0.49096500 -0.23637700 -0.79997300
v -0.48481300 -0.24848100 -0.79391500
v -0.20001900 -0.29094200 0.23636600
v -0.36361000 -0.27273800 -0.45448300
v -0.05449830 -0.29094200 0.01811270
v -0.10909300 -0.29094200 0.07264300
v -0.48183400 -0.24545500 -0.80906200
v -0.43637100 -0.01821260 -0.83645900
v -0.47875800 -0.20606800 -0.82420900
v -0.46664700 -0.19391600 -0.83026800
v -0.47299100 0.19976000 -0.81801900
v -0.47270300 0.19976000 -0.81815000
v -0.49096500 0.19976000 -0.12730100
v -0.49096500 0.12727800 -0.00006409
v -0.49096500 0.09091770 0.03628940
v -0.49096500 0.19976000 -0.79997300
v -0.16359100 -0.29094200 0.16352700
v -0.48481300 0.19976000 -0.81209100
f 74 100 75
f 74 99 100
f 73 99 74
f 73 98 99
f 73 121 98
f 73 97 121
f 73 94 95
f 73 95 96
f 65 72 66
f 64 72 65
f 64 73 72
f 63 73 64
f 62 73 63
f 73 96 97
f 75 101 126
f 75 128 103
f 75 138 128
f 86 110 111
f 86 109 110
f 84 109 86
f 84 108 109
f 84 107 108
f 84 106 107
f 83 105 106
f 82 105 83
f 77 104 78
f 77 103 104
f 62 94 73
f 75 100 101
f 75 77 76
f 75 102 77
f 75 103 102
f 75 126 138
f 77 102 103
f 57 90 91
f 61 93 62
f 47 51 80
f 47 52 51
f 47 53 52
f 47 82 53
f 47 81 79
f 47 80 81
f 53 82 83
f 41 78 42
f 41 76 77
f 40 66 72
f 40 67 66
f 86 111 112
f 40 76 41
f 40 75 76
f 41 77 78
f 53 83 54
f 54 83 106
f 54 106 84
f 58 60 59
f 57 117 89
f 57 92 117
f 57 60 58
f 57 91 60
f 57 89 90
f 56 92 57
f 56 116 92
f 56 88 116
f 56 87 88
f 56 85 87
f 55 87 85
f 55 86 87
f 55 84 86
f 54 84 55
f 62 93 94
f 55 85 56
f 107 131 114
f 86 113 114
f 123 135 136
f 122 135 123
f 121 135 122
f 118 134 119
f 118 137 124
f 118 132 137
f 123 136 134
f 117 134 133
f 116 132 118
f 114 132 115
f 114 131 132
f 107 109 108
f 107 110 109
f 107 111 110
f 117 119 134
f 124 137 127
f 124 127 125
f 126 139 140
f 139 146 148
f 40 74 75
f 134 136 147
f 133 134 147
f 131 137 132
f 129 145 130
f 129 144 145
f 129 143 144
f 128 138 142
f 127 146 139
f 127 131 146
f 127 137 131
f 126 142 138
f 126 141 142
f 126 140 141
f 107 112 111
f 86 112 113
f 107 113 112
f 107 146 131
f 97 135 121
f 97 120 135
f 96 120 97
f 95 120 96
f 93 95 94
f 93 120 95
f 98 121 122
f 92 119 117
f 92 116 118
f 88 132 116
f 88 115 132
f 87 115 88
f 87 114 115
f 86 114 87
f 92 118 119
f 98 122 123
f 98 123 134
f 98 134 118
f 107 143 146
f 107 144 143
f 107 145 144
f 107 130 145
f 106 130 107
f 106 129 130
f 105 129 106
f 101 139 126
f 101 127 139
f 101 125 127
f 99 101 100
f 99 125 101
f 98 125 99
f 98 124 125
f 98 118 124
f 107 114 113
f 40 73 74
f 16 32 33
f 39 71 68
f 8 14 15
f 8 16 9
f 8 15 16
f 6 8 7
f 5 8 6
f 5 14 8
f 9 16 17
f 5 13 14
f 3 9 10
f 3 8 9
f 3 7 8
f 3 6 7
f 2 5 6
f 1 5 2
f 4 11 12
f 1 13 5
f 9 17 18
f 11 19 12
f 14 31 15
f 14 30 31
f 14 48 30
f 14 29 48
f 14 28 29
f 14 27 28
f 9 18 10
f 14 26 27
f 12 24 25
f 12 23 24
f 12 22 23
f 12 21 22
f 12 20 21
f 12 19 20
f 13 26 14
f 1 26 13
f 1 47 26
f 1 82 47
f 1 22 21
f 1 23 22
f 1 38 23
f 1 69 38
f 1 70 69
f 1 71 70
f 1 21 20
f 1 68 71
f 1 18 37
f 1 10 18
f 1 3 10
f 1 6 3
f 1 2 6
f 139 148 140
f 1 37 68
f 1 20 19
f 1 19 11
f 1 11 4
f 1 105 82
f 1 129 105
f 1 143 129
f 1 146 143
f 1 148 146
f 1 141 148
f 1 142 141
f 1 128 142
f 1 103 128
f 1 104 103
f 1 78 104
f 1 42 78
f 1 25 42
f 1 12 25
f 1 4 12
f 15 31 32
f 15 32 16
f 16 33 34
f 16 34 35
f 35 117 133
f 35 89 117
f 35 90 89
f 35 91 90
f 35 60 91
f 32 34 33
f 35 133 147
f 32 35 34
f 32 59 60
f 31 59 32
f 31 58 59
f 31 57 58
f 31 56 57
f 31 55 56
f 32 60 35
f 35 147 136
f 35 136 135
f 35 135 120
f 39 70 71
f 39 69 70
f 38 69 39
f 37 39 68
f 37 40 39
f 37 67 40
f 37 66 67
f 35 66 36
f 35 65 66
f 35 64 65
f 35 63 64
f 35 62 63
f 35 61 62
f 35 93 61
f 35 120 93
f 31 54 55
f 40 72 73
f 31 53 54
f 30 52 53
f 26 45 46
f 26 44 45
f 26 43 44
f 24 42 25
f 24 41 42
f 24 40 41
f 26 46 27
f 24 39 40
f 23 38 39
f 18 66 37
f 18 36 66
f 17 36 18
f 17 35 36
f 16 35 17
f 23 39 24
f 26 47 79
f 26 79 43
f 27 46 45
f 30 51 52
f 30 50 51
f 30 49 50
f 30 48 49
f 27 29 28
f 27 48 29
f 27 49 48
f 27 50 49
f 27 51 50
f 27 80 51
f 27 81 80
f 27 79 81
f 27 43 79
f 27 44 43
f 27 45 44
f 30 53 31
f 140 148 141

