# https://github.com/mikedh/trimesh
v 0.88287600 0.37515100 -0.16840900
v 0.79963100 0.36068200 -0.09866040
v 0.88122600 0.36068200 -0.15991600
v 0.88452700 0.36406100 -0.16671000
v 0.88452700 0.36743900 -0.17010800
v 0.88287600 0.37258000 -0.17095700
v 0.75525800 0.36406100 -0.17010800
v 0.75012400 0.36494200 -0.16840900
v 0.75525800 0.36743900 -0.16331300
v 0.75525800 0.36743900 -0.08163950
v 0.52055800 0.34702200 0.10205800
v 0.52899200 0.34533300 0.10035900
v 0.53412600 0.34026500 0.10545500
v 0.83025200 0.35047400 -0.11907900
v 0.57501600 0.34026500 0.07484470
v 0.87095800 0.34026500 -0.14968900
v 0.89149400 0.25859500 -0.15991600
v 0.89479500 0.27218300 -0.16671000
v 0.89479500 0.27556100 -0.17010800
v 0.89314500 0.28070200 -0.17095700
v 0.88801000 0.27556100 -0.17353900
v 0.87774200 0.35723000 -0.17353900
v 0.75525800 0.35723000 -0.17353900
v -0.36745300 0.27218300 -0.17010800
v -0.37258700 0.27306400 -0.16840900
v -0.36745300 0.27556100 -0.16331300
v -0.86765800 0.23472600 0.13270200
v -0.86765800 0.23472600 0.16331300
v 0.13256900 0.31639600 0.16331300
v 0.51029000 0.34702200 0.10205800
v 0.43878000 0.33681300 0.16331300
v 0.44739700 0.33512400 0.16161400
v 0.48315300 0.31984800 0.14629200
v 0.45253100 0.33005600 0.16671000
v 0.69750000 0.33005600 -0.01698700
v 0.77909500 0.31984800 -0.07824210
v 0.90157900 -0.02717420 -0.14968900
v 0.61572100 0.34026500 0.04423410
v 0.90157900 0.13609100 -0.15991600
v 0.90506300 0.15988700 -0.16671000
v 0.90506300 0.16326500 -0.17010800
v 0.90341300 0.16840700 -0.17095700
v 0.89827900 0.16326500 -0.17353900
v -0.36745300 0.26535200 -0.17353900
v -0.47966900 0.26197400 -0.17010800
v -0.48480300 0.26285500 -0.16840900
v -0.47966900 0.26535200 -0.16331300
v -0.48993700 0.26535200 -0.15312100
v -0.87279200 0.23222900 0.12757200
v -0.93403400 0.22202100 0.16840900
v -0.87095800 0.23134800 0.17010800
v 0.12926900 0.31301700 0.17010800
v 0.38780600 0.33681300 0.16331300
v 0.43547900 0.33343500 0.17010800
v 0.47288400 0.27901300 0.15651800
v 0.48315300 0.15650900 0.15651800
v 0.56474800 0.30963900 0.08503690
v 0.43878000 0.32660400 0.17353900
v 0.44904800 0.23472600 0.17353900
v 0.46261600 0.23817800 0.16671000
v 0.76901000 0.11567400 -0.05782370
v 0.89149400 -0.06800890 -0.13949700
v 0.92211500 -0.11905200 -0.15991600
v 0.93568400 -0.21776100 -0.16671000
v 0.93660100 -0.21945000 -0.16840900
v 0.93568400 -0.21430900 -0.17010800
v 0.93403400 -0.20924100 -0.17095700
v 0.92890000 -0.21430900 -0.17353900
v -0.47966900 0.25514400 -0.17353900
v -0.49507100 0.26285500 -0.15821700
v -0.48645300 0.25859500 -0.17010800
v -0.58693400 0.25264700 -0.09696170
v -0.85225500 0.23222900 0.10715400
v -0.93660100 0.21945000 0.16840900
v -0.93220000 0.22113900 0.17010800
v -0.86765800 0.22451800 0.17353900
v 0.13256900 0.30618700 0.17353900
v 0.38450500 0.33343500 0.17010800
v 0.47288400 0.11567400 0.16671000
v 0.51377400 -0.22113900 0.15651800
v 0.54439500 -0.09863500 0.12587400
v 0.38780600 0.32660400 0.17353900
v 0.45931600 0.11222200 0.17353900
v 0.75874200 -0.08842630 -0.03740540
v 0.81998400 -0.18030400 -0.07824210
v 0.86087300 -0.19051300 -0.10888700
v 0.91184700 -0.15988700 -0.14968900
v 0.85390600 -0.22796900 -0.10545500
v 0.90157900 -0.20072200 -0.13949700
v 0.90157900 -0.21093000 -0.13949700
v 0.80971600 -0.22113900 -0.06804990
v 0.80293200 -0.22796900 -0.06461850
v 0.72133700 -0.23817800 -0.00339740
v 0.93403400 -0.22202100 -0.16840900
v 0.93220000 -0.22113900 -0.17010800
v 0.85225500 -0.23222900 -0.10715400
v 0.86765800 -0.22451800 -0.17353900
v -0.47966900 0.14284800 -0.17353900
v -0.50698900 0.24838700 -0.15991600
v -0.58858400 0.24838700 -0.09866040
v -0.72133700 0.23817800 0.00339740
v -0.85390600 0.22796900 0.10545500
v -0.93568400 0.21776100 0.16671000
v -0.90506300 -0.15988700 0.16671000
v -0.90506300 -0.16326500 0.17010800
v -0.93568400 0.21430900 0.17010800
v -0.92890000 0.21430900 0.17353900
v 0.47966900 -0.14284800 0.17353900
v 0.49323700 -0.13947000 0.16671000
v 0.50698900 -0.22796900 0.15991600
v 0.51377400 -0.24155700 0.15651800
v 0.59536900 -0.23134800 0.09526300
v 0.60563700 -0.19051300 0.08503690
v 0.59536900 -0.24155700 0.09526300
v 0.58858400 -0.24838700 0.09866040
v 0.58693400 -0.25264700 0.09696170
v 0.87279200 -0.23222900 -0.12757200
v 0.86765800 -0.23472600 -0.13270200
v 0.86765800 -0.23472600 -0.16331300
v 0.87095800 -0.23134800 -0.17010800
v -0.13256900 -0.30618700 -0.17353900
v -0.47288400 -0.11567400 -0.16671000
v -0.49323700 0.13947000 -0.16671000
v -0.51377400 0.22113900 -0.15651800
v -0.50698900 0.22796900 -0.15991600
v -0.45931600 -0.11222200 -0.17353900
v -0.51377400 0.24155700 -0.15651800
v -0.59536900 0.24155700 -0.09526300
v -0.80293200 0.22796900 0.06461850
v -0.90157900 0.21093000 0.13949700
v -0.90157900 0.20072200 0.13949700
v -0.91184700 0.15988700 0.14968900
v -0.92211500 0.11905200 0.15991600
v -0.90157900 -0.13609100 0.15991600
v -0.80971600 0.22113900 0.06804990
v -0.89149400 -0.25859500 0.15991600
v -0.89479500 -0.28239100 0.16671000
v -0.89479500 -0.28577000 0.17010800
v -0.90341300 -0.16840700 0.17095700
v -0.93403400 0.20924100 0.17095700
v -0.89827900 -0.16326500 0.17353900
v 0.47966900 -0.25514400 0.17353900
v 0.50698900 -0.24838700 0.15991600
v 0.48645300 -0.25859500 0.17010800
v 0.48480300 -0.26285500 0.16840900
v 0.49507100 -0.26285500 0.15821700
v 0.48993700 -0.26535200 0.15312100
v 0.36745300 -0.27556100 0.16331300
v -0.13256900 -0.31639600 0.16331300
v -0.13256900 -0.31639600 -0.16331300
v -0.12926900 -0.31301700 -0.17010800
v -0.38780600 -0.32660400 -0.17353900
v -0.47288400 -0.27901300 -0.15651800
v -0.48315300 -0.31984800 -0.14629200
v -0.53412600 0.13947000 -0.13610000
v -0.46261600 -0.23817800 -0.16671000
v -0.59536900 0.23134800 -0.09526300
v -0.44904800 -0.23472600 -0.17353900
v -0.86087300 0.19051300 0.10888700
v -0.89149400 0.06800890 0.13949700
v -0.89149400 -0.09525660 0.14968900
v -0.83025200 -0.35047400 0.11907900
v -0.73838900 0.17009600 0.01698700
v -0.87095800 -0.34026500 0.14968900
v -0.88122600 -0.36068200 0.15991600
v -0.88452700 -0.36406100 0.16671000
v -0.88452700 -0.36743900 0.17010800
v -0.89314500 -0.29091100 0.17095700
v -0.88801000 -0.28577000 0.17353900
v 0.47966900 -0.26197400 0.17010800
v 0.36745300 -0.26535200 0.17353900
v 0.37258700 -0.27306400 0.16840900
v 0.47966900 -0.26535200 0.16331300
v -0.12743500 -0.31389900 0.16840900
v -0.63277400 -0.35723000 0.16331300
v -0.63277400 -0.35723000 -0.01019220
v -0.51029000 -0.34702200 -0.10205800
v -0.38780600 -0.33681300 -0.16331300
v -0.38450500 -0.33343500 -0.17010800
v -0.43878000 -0.32660400 -0.17353900
v -0.45253100 -0.33005600 -0.16671000
v -0.53412600 -0.34026500 -0.10545500
v -0.57501600 -0.34026500 -0.07484470
v -0.61572100 -0.34026500 -0.04423410
v -0.69750000 -0.33005600 0.01698700
v -0.76901000 -0.27901300 0.06804990
v -0.54439500 -0.06463050 -0.11568100
v -0.79963100 -0.36068200 0.09866040
v -0.88287600 -0.37515100 0.16840900
v -0.88287600 -0.37258000 0.17095700
v -0.87774200 -0.35723000 0.17353900
v 0.36745300 -0.27218300 0.17010800
v -0.13256900 -0.30618700 0.17353900
v -0.13256900 -0.31301700 0.17010800
v -0.62764000 -0.35473300 0.16840900
v -0.76552600 -0.36743900 0.16331300
v -0.52055800 -0.34702200 -0.10205800
v -0.76552600 -0.36743900 0.09186570
v -0.43878000 -0.33681300 -0.16331300
v -0.43547900 -0.33343500 -0.17010800
v -0.44739700 -0.33512400 -0.16161400
v -0.52899200 -0.34533300 -0.10035900
v -0.63277400 -0.35385200 0.17010800
v -0.76552600 -0.35723000 0.17353900
v -0.63277400 -0.34702200 0.17353900
f 1 2 3
f 118 148 149
f 118 147 148
f 117 147 118
f 117 146 147
f 116 146 117
f 116 145 146
f 115 145 116
f 115 144 145
f 115 143 144
f 111 115 114
f 111 143 115
f 108 143 110
f 108 142 143
f 107 139 141
f 107 140 139
f 106 139 140
f 106 140 107
f 105 139 106
f 105 168 139
f 105 138 168
f 104 138 105
f 118 149 150
f 104 137 138
f 118 150 119
f 119 151 120
f 134 160 161
f 133 160 134
f 133 159 160
f 132 159 133
f 131 159 132
f 131 135 159
f 130 135 131
f 128 135 129
f 128 157 135
f 124 128 127
f 124 157 128
f 124 155 157
f 122 156 153
f 122 158 156
f 122 126 158
f 122 124 123
f 122 155 124
f 122 154 155
f 122 153 154
f 121 179 152
f 121 151 179
f 119 150 151
f 104 136 137
f 104 134 136
f 103 135 130
f 93 116 96
f 93 115 116
f 92 115 93
f 92 114 115
f 91 114 92
f 91 112 114
f 89 91 90
f 88 93 96
f 86 91 89
f 86 89 87
f 85 112 91
f 85 113 112
f 85 91 86
f 81 85 84
f 81 113 85
f 80 113 81
f 80 112 113
f 80 114 112
f 80 111 114
f 80 143 111
f 80 110 143
f 94 96 117
f 94 117 118
f 94 118 119
f 94 119 120
f 103 129 135
f 103 134 104
f 103 133 134
f 103 132 133
f 103 131 132
f 103 130 131
f 101 103 102
f 101 129 103
f 100 129 101
f 100 128 129
f 134 161 162
f 99 128 100
f 99 124 127
f 99 125 124
f 98 126 122
f 98 124 125
f 98 123 124
f 98 122 123
f 97 151 121
f 97 120 151
f 96 116 117
f 94 120 95
f 99 127 128
f 134 162 136
f 135 163 160
f 135 160 159
f 175 189 196
f 175 195 189
f 174 203 195
f 174 194 203
f 172 194 174
f 172 192 194
f 171 194 192
f 171 193 194
f 169 190 191
f 168 190 169
f 167 189 190
f 166 189 167
f 165 188 189
f 165 189 166
f 163 187 186
f 162 183 188
f 162 184 183
f 162 186 185
f 162 165 164
f 162 188 165
f 161 186 162
f 175 196 198
f 175 198 176
f 176 197 177
f 176 198 189
f 197 202 201
f 190 205 204
f 190 193 205
f 190 194 193
f 190 203 194
f 190 204 191
f 189 202 197
f 189 203 190
f 189 195 203
f 189 198 196
f 160 186 161
f 182 188 183
f 182 202 189
f 181 202 182
f 181 201 202
f 181 200 201
f 180 200 181
f 178 200 179
f 178 199 200
f 177 199 178
f 177 197 199
f 176 189 197
f 182 189 188
f 80 108 110
f 160 163 186
f 156 158 181
f 145 173 147
f 145 148 173
f 145 172 148
f 145 192 172
f 145 170 192
f 142 192 170
f 142 171 192
f 142 144 143
f 142 145 144
f 142 170 145
f 139 169 141
f 139 168 169
f 138 190 168
f 138 167 190
f 137 167 138
f 137 166 167
f 137 165 166
f 136 162 164
f 136 165 137
f 136 164 165
f 135 157 163
f 145 147 146
f 147 173 148
f 148 172 174
f 148 174 149
f 155 163 157
f 155 187 163
f 154 181 182
f 154 187 155
f 154 186 187
f 154 185 186
f 154 162 185
f 154 184 162
f 154 183 184
f 154 182 183
f 158 180 181
f 153 181 154
f 152 200 180
f 152 179 200
f 150 179 151
f 150 178 179
f 150 177 178
f 150 176 177
f 149 176 150
f 149 175 176
f 149 195 175
f 149 174 195
f 153 156 181
f 80 109 108
f 79 83 108
f 79 109 80
f 21 98 69
f 21 126 98
f 21 158 126
f 21 180 158
f 21 152 180
f 21 121 152
f 21 97 121
f 21 68 97
f 21 43 68
f 20 43 21
f 20 42 43
f 19 42 20
f 19 41 42
f 18 41 19
f 18 40 41
f 17 40 18
f 17 39 40
f 17 37 39
f 15 33 38
f 14 33 35
f 14 38 33
f 21 69 44
f 21 44 23
f 21 23 22
f 24 44 69
f 33 56 57
f 33 55 56
f 32 54 34
f 31 54 32
f 31 78 54
f 31 53 78
f 29 53 30
f 29 78 53
f 29 52 78
f 28 52 29
f 14 15 38
f 28 51 52
f 27 48 49
f 27 50 28
f 27 49 50
f 26 48 27
f 26 47 48
f 25 47 26
f 25 46 47
f 24 46 25
f 24 45 46
f 24 69 45
f 28 50 51
f 33 57 36
f 14 17 16
f 14 36 37
f 5 19 20
f 4 19 5
f 4 18 19
f 3 14 16
f 3 18 4
f 3 17 18
f 3 16 17
f 2 15 14
f 2 13 15
f 2 14 3
f 1 13 2
f 1 12 13
f 1 11 12
f 1 10 11
f 1 9 10
f 1 8 9
f 1 7 8
f 1 6 7
f 1 5 6
f 1 4 5
f 1 3 4
f 5 20 6
f 6 20 21
f 6 21 22
f 6 22 23
f 14 35 36
f 13 34 33
f 13 33 15
f 12 34 13
f 12 32 34
f 11 32 12
f 11 31 32
f 11 53 31
f 11 30 53
f 10 30 11
f 14 37 17
f 10 29 30
f 9 28 10
f 9 27 28
f 9 26 27
f 8 26 9
f 8 25 26
f 7 25 8
f 7 24 25
f 7 44 24
f 7 23 44
f 6 23 7
f 10 28 29
f 197 201 199
f 33 36 35
f 34 54 58
f 64 90 91
f 64 89 90
f 64 87 89
f 64 88 65
f 63 86 87
f 63 87 64
f 62 84 85
f 62 86 63
f 62 85 86
f 61 81 84
f 61 84 62
f 59 79 60
f 59 83 79
f 58 83 59
f 58 108 83
f 58 142 108
f 58 171 142
f 58 193 171
f 58 205 193
f 58 204 205
f 58 191 204
f 64 91 92
f 64 92 93
f 64 93 88
f 65 94 95
f 79 108 109
f 74 102 103
f 74 107 75
f 74 106 107
f 74 105 106
f 74 104 105
f 74 103 104
f 73 102 74
f 73 101 102
f 72 101 73
f 58 169 191
f 72 100 101
f 69 99 71
f 69 125 99
f 69 98 125
f 68 120 97
f 68 95 120
f 66 68 67
f 65 96 94
f 65 88 96
f 65 68 66
f 65 95 68
f 71 99 100
f 33 34 55
f 58 141 169
f 58 76 107
f 46 69 71
f 46 48 47
f 46 70 48
f 45 69 46
f 42 68 43
f 42 67 68
f 42 66 67
f 41 66 42
f 41 65 66
f 40 65 41
f 40 64 65
f 39 64 40
f 39 63 64
f 37 61 62
f 37 63 39
f 37 62 63
f 36 61 37
f 36 57 61
f 34 60 55
f 34 59 60
f 34 58 59
f 46 71 100
f 46 100 72
f 46 72 70
f 48 70 49
f 58 77 76
f 58 82 77
f 56 61 57
f 56 81 61
f 56 80 81
f 56 79 80
f 55 79 56
f 55 60 79
f 54 82 58
f 54 78 82
f 58 107 141
f 52 82 78
f 51 77 52
f 51 76 77
f 51 107 76
f 51 75 107
f 50 73 74
f 50 75 51
f 50 74 75
f 49 72 73
f 49 70 72
f 49 73 50
f 52 77 82
f 199 201 200

