# https://github.com/mikedh/trimesh
v 0.00000000 -0.69735800 -0.52689600
v -0.14976300 -0.70769000 -0.50616300
v -0.15485100 -0.69735800 -0.51132000
v 0.00000000 -0.65087700 -0.52689600
v 0.01539380 -0.69735800 -0.52689600
v 0.00508778 -0.70769000 -0.52163600
v -0.15485100 -0.71285200 -0.49584800
v -0.22725400 -0.70769000 -0.49069000
v -0.23234200 -0.69735800 -0.49584800
v -0.15485100 -0.65087700 -0.51132000
v 0.00000000 -0.64054500 -0.52163600
v 0.02322120 -0.64312600 -0.52297600
v 0.01539380 -0.65087700 -0.52689600
v -0.15485100 -0.64054500 -0.50616300
v 0.15485100 -0.69735800 -0.51132000
v 0.16006900 -0.70769000 -0.50616300
v 0.02061200 -0.70769000 -0.52163600
v 0.00000000 -0.71285200 -0.51132000
v -0.23234200 -0.71285200 -0.48037500
v -0.27891500 -0.71285200 -0.46490200
v -0.27369700 -0.70769000 -0.47521800
v -0.25308400 -0.70252800 -0.48553300
v -0.27891500 -0.69735800 -0.48037500
v -0.23234200 -0.65087700 -0.49584800
v -0.16267900 -0.63925100 -0.50358400
v -0.00769690 -0.63925100 -0.51905700
v 0.01539380 -0.64054500 -0.52163600
v 0.16267900 -0.64312600 -0.50750400
v 0.15485100 -0.65087700 -0.51132000
v -0.23234200 -0.64054500 -0.49069000
v 0.23234200 -0.69735800 -0.49584800
v 0.23756000 -0.70769000 -0.49069000
v 0.15485100 -0.71285200 -0.49584800
v 0.01539380 -0.71285200 -0.51132000
v -0.32535700 -0.71285200 -0.44932700
v -0.32026900 -0.70769000 -0.45964200
v -0.29952700 -0.70252800 -0.47006000
v -0.27891500 -0.65087700 -0.48037500
v -0.32535700 -0.69735800 -0.46490200
v -0.24277800 -0.64570700 -0.49069000
v -0.15485100 -0.63537500 -0.49584800
v 0.00000000 -0.63537500 -0.51132000
v -0.24016900 -0.63925100 -0.48811100
v 0.01539380 -0.63537500 -0.51132000
v 0.15485100 -0.64054500 -0.50616300
v 0.23234200 -0.64054500 -0.49069000
v 0.24016900 -0.64312600 -0.49192800
v 0.23234200 -0.65087700 -0.49584800
v 0.27891500 -0.69735800 -0.48037500
v 0.28400300 -0.70769000 -0.47521800
v 0.27891500 -0.71285200 -0.46490200
v 0.23234200 -0.71285200 -0.48037500
v -0.35640600 -0.71285200 -0.43385400
v -0.33318400 -0.70510900 -0.45706300
v -0.32535700 -0.65087700 -0.46490200
v -0.34596900 -0.70252800 -0.45448400
v -0.40806600 -0.70252800 -0.42353900
v -0.45972700 -0.69219600 -0.39775100
v -0.28922100 -0.64570700 -0.47521800
v -0.23234200 -0.63537500 -0.48037500
v -0.03013530 -0.63507800 -0.13863500
v -0.01448060 -0.63507800 -0.13884100
v -0.28661200 -0.63925100 -0.47263900
v -0.27891500 -0.63537500 -0.46490200
v 0.01539380 -0.63507800 -0.13811900
v 0.15485100 -0.63537500 -0.49584800
v 0.00000000 -0.63507800 -0.13884100
v 0.23234200 -0.63537500 -0.48037500
v 0.27891500 -0.64054500 -0.47521800
v 0.27891500 -0.65087700 -0.48037500
v 0.33318400 -0.64312600 -0.46098300
v 0.32535700 -0.69735800 -0.46490200
v 0.33057500 -0.70769000 -0.45964200
v 0.32535700 -0.71285200 -0.44932700
v -0.41837200 -0.71285200 -0.40290900
v -0.45972700 -0.64570700 -0.39775100
v -0.36671200 -0.64570700 -0.44416900
v -0.33566300 -0.64570700 -0.45964200
v -0.45711800 -0.70510900 -0.39517200
v -0.43898400 -0.70252800 -0.40806600
v -0.50095100 -0.70252800 -0.37701800
v -0.33318400 -0.63925100 -0.45706300
v -0.07657760 -0.63507800 -0.12316300
v -0.32535700 -0.63537500 -0.44932700
v 0.06196660 -0.63507800 -0.12254400
v 0.27891500 -0.63537500 -0.46490200
v 0.32535700 -0.64054500 -0.45964200
v 0.32535700 -0.65087700 -0.46490200
v 0.34088100 -0.63925100 -0.45128600
v 0.41837200 -0.63925100 -0.42034100
v 0.41054500 -0.64312600 -0.43003700
v 0.40284800 -0.69735800 -0.43385400
v 0.40806600 -0.70769000 -0.42869600
v 0.40284800 -0.71285200 -0.41838100
v -0.48033900 -0.71285200 -0.37186000
v -0.45711800 -0.63925100 -0.39517200
v -0.50095100 -0.65603900 -0.37701800
v -0.49064500 -0.64570700 -0.38217500
v -0.49325400 -0.71027100 -0.36928100
v -0.54752300 -0.70252800 -0.34607200
v -0.35640600 -0.63537500 -0.43385400
v -0.10762600 -0.63507800 -0.09211400
v -0.41837200 -0.63537500 -0.40290900
v -0.48033900 -0.63537500 -0.37186000
v -0.52678100 -0.63537500 -0.34091500
v -0.58887800 -0.63537500 -0.29439300
v 0.10723500 -0.63507800 -0.07726020
v 0.58887800 -0.63537500 -0.29439300
v 0.57335400 -0.63537500 -0.30986600
v 0.51138700 -0.63537500 -0.35638700
v 0.40284800 -0.63537500 -0.41838100
v 0.32535700 -0.63537500 -0.44932700
v 0.40284800 -0.65087700 -0.43385400
v 0.52678100 -0.63925100 -0.35834700
v 0.51908400 -0.64312600 -0.36804300
v 0.42346000 -0.65087700 -0.42353900
v 0.42346000 -0.69735800 -0.42353900
v 0.42032900 -0.70898400 -0.41838100
v 0.41445800 -0.70510900 -0.42611800
v 0.52299800 -0.70510900 -0.36412400
v 0.51647500 -0.70769000 -0.36670200
v 0.51138700 -0.71285200 -0.35638700
v -0.52678100 -0.71285200 -0.34091500
v -0.48803600 -0.63925100 -0.37959600
v -0.54752300 -0.65603900 -0.34607200
v -0.53721700 -0.64570700 -0.35123000
v -0.53969600 -0.71027100 -0.33833600
v -0.58887800 -0.71285200 -0.29439300
v -0.59657500 -0.70510900 -0.30213000
v -0.59918400 -0.69219600 -0.30470900
v -0.12315000 -0.63507800 -0.06116870
v -0.53460800 -0.63925100 -0.34865100
v -0.59657500 -0.63925100 -0.30213000
v -0.61209900 -0.63925100 -0.27118400
v -0.62762300 -0.63925100 -0.24013600
v -0.61979600 -0.63537500 -0.23240000
v 0.12275900 -0.63507800 -0.04631490
v 0.61979600 -0.63537500 -0.23240000
v 0.61470800 -0.64054500 -0.26860600
v 0.59918400 -0.64054500 -0.29955100
v 0.58887800 -0.63925100 -0.31182600
v 0.58105100 -0.64312600 -0.32152200
v 0.53199900 -0.65087700 -0.36154500
v 0.53199900 -0.69735800 -0.36154500
v 0.52873800 -0.70898400 -0.35638700
v 0.58496400 -0.70510900 -0.31760200
v 0.57335400 -0.71285200 -0.30986600
v -0.59918400 -0.64570700 -0.30470900
v -0.61979600 -0.71285200 -0.23240000
v -0.60179300 -0.71027100 -0.27634200
v -0.60949000 -0.70252800 -0.28407800
v -0.61470800 -0.69219600 -0.27376300
v -0.12328100 -0.63507800 -0.04559280
v -0.63532000 -0.63537500 -0.18587800
v -0.65084500 -0.63537500 -0.10841200
v -0.61470800 -0.64570700 -0.27376300
v -0.63010200 -0.64570700 -0.24271500
v -0.64562600 -0.64570700 -0.19619400
v -0.64301700 -0.63925100 -0.19361500
v 0.12328100 -0.63507800 -0.03063590
v 0.65084500 -0.63537500 -0.12388500
v 0.63532000 -0.63537500 -0.18587800
v 0.63010200 -0.64054500 -0.23755700
v 0.61470800 -0.65087700 -0.27376300
v 0.59657500 -0.64312600 -0.30605000
v 0.62762300 -0.64312600 -0.24405600
v 0.59396600 -0.65087700 -0.31502400
v 0.59396600 -0.69735800 -0.31502400
v 0.59070400 -0.70898400 -0.30986600
v 0.58887800 -0.71285200 -0.29439300
v -0.63532000 -0.71285200 -0.18587800
v -0.63010200 -0.70769000 -0.22724200
v -0.62762300 -0.70510900 -0.24013600
v -0.61209900 -0.70510900 -0.27118400
v -0.62501400 -0.70252800 -0.25303000
v -0.63532000 -0.69735800 -0.23240000
v -0.12328100 -0.63507800 0.01547270
v -0.65854100 -0.63925100 -0.11614800
v -0.66115100 -0.64054500 -0.10841200
v -0.65084500 -0.63537500 0.10841200
v -0.63532000 -0.65087700 -0.23240000
v -0.65084500 -0.65087700 -0.18587800
v -0.64562600 -0.64054500 -0.18587800
v 0.12328100 -0.63507800 0.03032640
v 0.65084500 -0.63537500 0.09293920
v 0.66115100 -0.64054500 -0.12904200
v 0.64562600 -0.64054500 -0.19103600
v 0.63532000 -0.65087700 -0.23240000
v 0.61470800 -0.69735800 -0.27376300
v 0.60048900 -0.70510900 -0.30213000
v 0.59918400 -0.65087700 -0.30470900
v 0.60622900 -0.70898400 -0.27892100
v 0.62175300 -0.70898400 -0.24787200
v 0.61979600 -0.71285200 -0.23240000
v -0.64562600 -0.70769000 -0.18072100
v -0.65084500 -0.71285200 -0.10841200
v -0.64053900 -0.70252800 -0.20661200
v -0.65084500 -0.69735800 -0.18587800
v -0.12262900 -0.63507800 0.03094540
v -0.66636900 -0.65087700 -0.10841200
v -0.66245500 -0.64312600 0.11614800
v -0.66115100 -0.64054500 0.10841200
v -0.63532000 -0.63537500 0.17040600
v 0.12236800 -0.63507800 0.04497390
v 0.66115100 -0.64054500 0.08778170
v 0.63532000 -0.63537500 0.17040600
v 0.66636900 -0.65087700 -0.12388500
v 0.65084500 -0.65087700 -0.18587800
v 0.63532000 -0.69735800 -0.23240000
v 0.63140700 -0.70510900 -0.24013600
v 0.63010200 -0.70769000 -0.23240000
v 0.63532000 -0.71285200 -0.18587800
v -0.66115100 -0.70769000 -0.10325400
v -0.65084500 -0.71285200 0.10841200
v -0.66636900 -0.69735800 -0.10841200
v -0.10710400 -0.63507800 0.06189070
v -0.58887800 -0.63537500 0.29439300
v -0.66636900 -0.65087700 0.10841200
v -0.64693100 -0.64312600 0.17814200
v -0.64562600 -0.64054500 0.17040600
v -0.63727700 -0.63925100 0.18587800
v 0.10697400 -0.63507800 0.07591930
v 0.61979600 -0.63537500 0.21692700
v 0.66636900 -0.65087700 0.09293920
v 0.64562600 -0.64054500 0.16524800
v 0.66636900 -0.69735800 -0.12388500
v 0.65084500 -0.69735800 -0.18587800
v 0.64693100 -0.70510900 -0.19361500
v 0.64562600 -0.70769000 -0.18587800
v 0.65084500 -0.71285200 -0.12388500
v -0.66115100 -0.70769000 0.11356900
v -0.63532000 -0.71285200 0.17040600
v -0.66636900 -0.69735800 0.10841200
v -0.09158010 -0.63507800 0.07746650
v -0.55783000 -0.63537500 0.34091500
v -0.59918400 -0.64054500 0.29439300
v -0.59070400 -0.63925100 0.30986600
v -0.65084500 -0.65087700 0.17040600
v -0.60048900 -0.64312600 0.30213000
v 0.09144960 -0.63507800 0.09149510
v 0.55783000 -0.63537500 0.34091500
v 0.58887800 -0.63537500 0.27892100
v 0.62762300 -0.64312600 0.22466300
v 0.63010200 -0.64054500 0.21176900
v 0.66636900 -0.69735800 0.09293920
v 0.65084500 -0.65087700 0.17040600
v 0.64053900 -0.64570700 0.19103600
v 0.66245500 -0.70510900 -0.13172400
v 0.66115100 -0.70769000 -0.12388500
v 0.65084500 -0.71285200 0.09293920
v -0.64562600 -0.70769000 0.17556300
v -0.58887800 -0.71285200 0.29439300
v -0.65084500 -0.69735800 0.17040600
v -0.06183610 -0.63507800 0.10727700
v -0.56304800 -0.64054500 0.35123000
v -0.49782000 -0.63925100 0.38733300
v -0.48033900 -0.63537500 0.38733300
v -0.56944000 -0.64312600 0.34865100
v -0.60427200 -0.65087700 0.29439300
v -0.60427200 -0.69735800 0.29439300
v -0.59918400 -0.69735800 0.30470900
v -0.59396600 -0.65087700 0.31502400
v 0.07592530 -0.63507800 0.10696800
v 0.54230500 -0.63537500 0.35638700
v 0.55522000 -0.63796400 0.35380900
v 0.56304800 -0.64570700 0.36154500
v 0.62501400 -0.64570700 0.23755700
v 0.63532000 -0.65087700 0.21692700
v 0.65084500 -0.69735800 0.17040600
v 0.66115100 -0.70769000 0.09293920
v 0.65854100 -0.70898400 0.10067600
v 0.63532000 -0.71285200 0.17040600
v -0.59918400 -0.70769000 0.29955100
v -0.58887800 -0.70898400 0.31182600
v -0.55783000 -0.71285200 0.34091500
v -0.01539380 -0.63537500 0.51132000
v -0.04618140 -0.63507800 0.10779300
v -0.44929000 -0.63537500 0.40290900
v -0.41837200 -0.63537500 0.41838100
v -0.34088100 -0.63537500 0.44932700
v -0.29443900 -0.63537500 0.46490200
v -0.17037500 -0.63537500 0.49584800
v -0.48555700 -0.64054500 0.39775100
v -0.56813600 -0.65087700 0.35123000
v -0.50095100 -0.65087700 0.39249000
v -0.49194900 -0.64312600 0.39517200
v -0.59657500 -0.70510900 0.30605000
v -0.59396600 -0.69735800 0.31502400
v 0.06131430 -0.63507800 0.10779300
v 0.01539380 -0.63537500 0.51132000
v 0.18590000 -0.63537500 0.49584800
v 0.30983300 -0.63537500 0.46490200
v 0.35640600 -0.63537500 0.44932700
v 0.46481400 -0.63537500 0.40290900
v 0.47773000 -0.63796400 0.40033000
v 0.48555700 -0.64570700 0.40806600
v 0.56304800 -0.69219600 0.36154500
v 0.61470800 -0.65603900 0.25818700
v 0.63532000 -0.69735800 0.21692700
v 0.64562600 -0.70252800 0.18072100
v 0.64562600 -0.70769000 0.17040600
v 0.64301700 -0.70898400 0.17814200
v 0.62762300 -0.70898400 0.22466300
v 0.61979600 -0.71285200 0.21692700
v -0.56813600 -0.70769000 0.34607200
v -0.48033900 -0.71285200 0.38733300
v -0.49586300 -0.70898400 0.38929300
v -0.02061200 -0.64054500 0.52163600
v -0.42346000 -0.64054500 0.42869600
v -0.34596900 -0.64054500 0.45964200
v -0.29952700 -0.64054500 0.47521800
v -0.17559400 -0.64054500 0.50616300
v -0.49064500 -0.65087700 0.39775100
v -0.45972700 -0.65087700 0.41322400
v -0.46103100 -0.64312600 0.41064500
v -0.56813600 -0.69735800 0.35123000
v -0.50095100 -0.69735800 0.39249000
v -0.56552600 -0.70510900 0.35246800
v 0.01030600 -0.64054500 0.52163600
v 0.18068100 -0.64054500 0.50616300
v 0.24277800 -0.64054500 0.49069000
v 0.30474500 -0.64054500 0.47521800
v 0.35118700 -0.64054500 0.45964200
v 0.45972700 -0.64054500 0.41322400
v 0.48555700 -0.69219600 0.40806600
v 0.37701800 -0.64570700 0.45448400
v 0.35640600 -0.65087700 0.46490200
v 0.46481400 -0.65087700 0.41838100
v 0.55261100 -0.70252800 0.36670200
v 0.56813600 -0.70252800 0.35123000
v 0.57335400 -0.69735800 0.34091500
v 0.59918400 -0.70252800 0.28923600
v 0.61470800 -0.70252800 0.25818700
v 0.63010200 -0.70252800 0.22724200
v 0.58887800 -0.71285200 0.27892100
v 0.56552600 -0.70898400 0.34865100
v -0.44929000 -0.71285200 0.40290900
v -0.48803600 -0.70510900 0.39898900
v -0.43389600 -0.70898400 0.42034100
v -0.01539380 -0.65087700 0.52689600
v -0.42998300 -0.64312600 0.42611800
v -0.41837200 -0.65087700 0.43385400
v -0.34088100 -0.65087700 0.46490200
v -0.29443900 -0.65087700 0.48037500
v -0.17037500 -0.65087700 0.51132000
v -0.49064500 -0.69735800 0.39775100
v -0.45972700 -0.69735800 0.41322400
v -0.42606900 -0.70510900 0.43003700
v 0.01539380 -0.65087700 0.52689600
v 0.18590000 -0.65087700 0.51132000
v 0.30983300 -0.65087700 0.48037500
v 0.33057500 -0.64570700 0.47006000
v 0.46481400 -0.69735800 0.41838100
v 0.47512000 -0.70252800 0.41322400
v 0.35640600 -0.69735800 0.46490200
v 0.55013300 -0.70898400 0.36412400
v 0.55783000 -0.71285200 0.34091500
v -0.41837200 -0.71285200 0.41838100
v -0.35640600 -0.70898400 0.45128600
v -0.01539380 -0.69735800 0.52689600
v -0.41837200 -0.69735800 0.43385400
v -0.34088100 -0.69735800 0.46490200
v -0.29443900 -0.69735800 0.48037500
v -0.17037500 -0.69735800 0.51132000
v -0.34857800 -0.70510900 0.46098300
v 0.01539380 -0.69735800 0.52689600
v 0.18590000 -0.69735800 0.51132000
v 0.30983300 -0.69735800 0.48037500
v 0.36671200 -0.70252800 0.45964200
v 0.47264200 -0.70898400 0.41064500
v 0.32026900 -0.70252800 0.47521800
v 0.54230500 -0.71285200 0.35638700
v -0.34088100 -0.71285200 0.44932700
v -0.34088100 -0.70769000 0.45964200
v -0.17820300 -0.70510900 0.50750400
v -0.02322120 -0.70510900 0.52297600
v -0.30213600 -0.70510900 0.47645500
v -0.29443900 -0.70769000 0.47521800
v 0.01539380 -0.70769000 0.52163600
v 0.18590000 -0.70769000 0.50616300
v 0.25569400 -0.70898400 0.48811100
v 0.36410200 -0.70898400 0.45706300
v 0.35640600 -0.71285200 0.44932700
v 0.46481400 -0.71285200 0.40290900
v 0.31766000 -0.70898400 0.47263900
v -0.29443900 -0.71285200 0.46490200
v -0.17037500 -0.70769000 0.50616300
v -0.01539380 -0.70769000 0.52163600
v 0.02322120 -0.70898400 0.51905700
v 0.19359700 -0.70898400 0.50358400
v 0.18590000 -0.71285200 0.49584800
v 0.30983300 -0.71285200 0.46490200
v -0.17037500 -0.71285200 0.49584800
v -0.01539380 -0.71285200 0.51132000
v 0.01539380 -0.71285200 0.51132000
f 239 262 258
f 239 288 262
f 239 261 288
f 238 253 260
f 239 259 260
f 238 259 239
f 238 260 259
f 239 260 261
f 240 263 264
f 245 301 270
f 241 264 265
f 241 265 266
f 241 266 242
f 242 266 243
f 243 267 268
f 243 268 246
f 243 246 247
f 243 266 267
f 245 269 301
f 245 270 248
f 240 264 241
f 237 258 255
f 231 251 253
f 236 239 237
f 224 246 269
f 246 268 299
f 224 269 245
f 225 244 243
f 225 243 247
f 225 247 246
f 226 248 227
f 226 245 248
f 227 248 228
f 228 248 229
f 229 248 249
f 230 249 270
f 230 270 250
f 231 253 233
f 232 252 273
f 232 273 251
f 234 235 254
f 235 255 256
f 235 256 257
f 235 257 254
f 235 237 255
f 237 239 258
f 246 299 269
f 261 273 287
f 250 270 271
f 263 290 291
f 263 291 292
f 263 292 293
f 263 293 294
f 263 294 264
f 264 294 295
f 264 295 265
f 265 295 296
f 265 296 266
f 263 289 290
f 266 296 325
f 266 297 333
f 266 333 298
f 266 298 267
f 267 298 333
f 267 333 299
f 267 299 268
f 269 299 334
f 269 334 300
f 223 242 243
f 266 325 297
f 262 316 284
f 262 288 316
f 261 287 288
f 250 271 302
f 250 302 272
f 251 273 253
f 252 274 273
f 252 275 274
f 253 273 260
f 254 276 277
f 254 257 278
f 254 278 279
f 254 279 280
f 254 280 281
f 254 281 282
f 254 282 276
f 255 258 286
f 255 286 283
f 255 283 256
f 257 283 278
f 258 284 285
f 258 285 286
f 258 262 284
f 260 273 261
f 248 270 249
f 223 243 244
f 195 215 198
f 222 241 242
f 180 220 203
f 180 203 199
f 182 198 215
f 182 215 200
f 184 204 185
f 185 204 206
f 185 206 225
f 185 225 205
f 186 205 224
f 180 202 220
f 186 224 207
f 186 208 187
f 188 208 227
f 188 227 209
f 189 209 210
f 189 210 190
f 190 210 193
f 190 193 192
f 193 210 211
f 193 211 194
f 186 207 208
f 179 182 200
f 179 183 182
f 179 201 202
f 164 188 209
f 164 209 189
f 165 191 167
f 167 191 190
f 167 190 168
f 168 190 169
f 169 190 192
f 169 192 170
f 170 192 193
f 170 193 194
f 171 196 213
f 171 213 195
f 172 195 173
f 173 195 197
f 173 197 175
f 175 197 176
f 176 197 198
f 176 198 182
f 176 182 181
f 177 180 199
f 179 200 201
f 194 211 229
f 194 229 212
f 195 213 215
f 269 300 302
f 209 228 210
f 210 228 229
f 210 229 211
f 212 229 249
f 212 249 230
f 213 231 233
f 213 233 215
f 214 232 251
f 214 251 231
f 216 217 235
f 216 235 234
f 217 221 236
f 217 236 237
f 217 237 235
f 218 233 253
f 218 253 238
f 219 238 239
f 219 239 236
f 219 236 220
f 220 236 221
f 222 240 241
f 209 227 228
f 222 242 223
f 207 227 208
f 207 245 226
f 195 198 197
f 196 214 231
f 196 231 213
f 199 203 217
f 199 217 216
f 200 215 233
f 200 233 218
f 200 218 201
f 201 218 238
f 201 238 219
f 201 219 220
f 201 220 202
f 203 220 221
f 203 221 217
f 204 222 223
f 204 223 206
f 205 225 246
f 205 246 224
f 206 223 244
f 206 244 225
f 207 224 245
f 207 226 227
f 269 302 301
f 296 323 326
f 270 302 271
f 342 348 361
f 342 361 362
f 342 362 343
f 343 362 363
f 343 363 344
f 344 363 364
f 344 364 345
f 346 348 347
f 348 365 362
f 340 366 349
f 348 362 361
f 349 367 350
f 350 367 368
f 350 368 351
f 353 355 354
f 354 355 369
f 354 369 370
f 355 368 371
f 355 371 369
f 356 372 357
f 349 366 367
f 340 360 366
f 340 364 360
f 340 345 364
f 322 352 326
f 322 326 323
f 325 353 354
f 326 352 327
f 327 355 353
f 327 353 328
f 327 352 351
f 327 351 368
f 327 368 355
f 329 356 330
f 329 354 370
f 329 370 356
f 330 356 336
f 330 332 331
f 336 356 357
f 337 358 339
f 338 348 346
f 339 358 373
f 339 373 359
f 339 359 365
f 339 365 348
f 356 370 384
f 322 351 352
f 356 384 372
f 359 374 365
f 375 377 378
f 375 378 387
f 376 388 379
f 378 386 393
f 378 393 387
f 379 389 380
f 379 388 389
f 380 390 381
f 380 389 390
f 375 388 376
f 381 390 391
f 381 392 385
f 382 385 383
f 383 385 392
f 387 393 394
f 387 394 388
f 388 394 389
f 389 395 391
f 389 391 390
f 389 394 395
f 381 391 392
f 375 387 388
f 373 378 374
f 373 386 378
f 360 364 375
f 360 375 376
f 360 376 366
f 362 365 377
f 362 377 363
f 363 377 375
f 363 375 364
f 365 374 378
f 365 378 377
f 366 376 379
f 366 379 380
f 366 380 367
f 367 380 381
f 367 381 371
f 367 371 368
f 369 371 385
f 369 385 382
f 369 382 370
f 370 382 383
f 370 383 384
f 371 381 385
f 359 373 374
f 321 351 322
f 321 350 351
f 320 349 350
f 283 341 309
f 284 316 317
f 284 317 285
f 285 317 346
f 285 346 313
f 285 313 286
f 287 305 318
f 287 318 288
f 288 318 316
f 283 315 341
f 290 319 291
f 291 320 321
f 291 321 322
f 291 322 292
f 292 322 293
f 293 322 323
f 293 323 324
f 293 324 294
f 294 324 296
f 294 296 295
f 291 319 320
f 283 314 315
f 283 313 314
f 283 286 313
f 272 302 303
f 272 303 304
f 273 274 305
f 273 305 287
f 274 275 305
f 275 306 307
f 275 307 305
f 276 282 312
f 276 312 308
f 276 308 319
f 276 319 290
f 276 290 289
f 276 289 277
f 278 283 279
f 279 309 310
f 279 310 280
f 279 283 309
f 280 310 311
f 280 311 281
f 281 311 312
f 281 312 282
f 296 324 323
f 164 166 188
f 296 326 327
f 296 327 328
f 308 340 349
f 308 349 319
f 309 341 342
f 309 342 343
f 309 343 310
f 310 343 311
f 311 344 312
f 311 343 344
f 312 344 345
f 312 345 340
f 313 346 347
f 313 347 314
f 314 347 348
f 314 348 342
f 314 342 315
f 315 342 341
f 316 318 317
f 317 318 338
f 317 338 346
f 319 349 320
f 320 350 321
f 308 312 340
f 270 301 302
f 307 348 338
f 307 337 339
f 296 328 353
f 296 353 325
f 297 325 354
f 297 354 329
f 297 329 330
f 297 330 331
f 297 331 332
f 297 332 333
f 299 333 334
f 300 334 303
f 300 303 302
f 303 335 304
f 303 334 333
f 303 333 332
f 303 332 330
f 303 330 336
f 303 336 357
f 303 357 335
f 305 307 318
f 306 337 307
f 307 338 318
f 307 339 348
f 164 191 165
f 256 283 257
f 164 189 190
f 31 70 49
f 31 49 32
f 32 49 72
f 32 72 50
f 32 50 51
f 32 51 52
f 35 53 36
f 36 53 75
f 36 75 79
f 31 48 70
f 36 79 57
f 37 54 39
f 38 55 59
f 38 59 40
f 39 54 56
f 39 56 57
f 39 57 58
f 39 58 76
f 39 76 55
f 40 59 63
f 36 57 54
f 28 45 46
f 28 48 29
f 28 47 48
f 16 34 17
f 20 35 36
f 20 36 21
f 21 36 54
f 21 54 37
f 22 37 39
f 22 39 23
f 23 39 55
f 23 55 38
f 24 38 40
f 24 40 43
f 24 43 30
f 25 41 42
f 25 42 26
f 25 43 60
f 25 60 41
f 26 42 44
f 26 44 27
f 27 44 66
f 27 66 45
f 28 46 47
f 40 63 43
f 41 61 42
f 42 61 62
f 42 62 67
f 58 81 97
f 58 97 76
f 59 78 82
f 59 82 63
f 60 64 61
f 61 83 102
f 61 102 131
f 61 131 153
f 61 153 177
f 61 177 199
f 61 199 216
f 61 216 234
f 61 234 254
f 61 254 277
f 61 277 289
f 61 289 263
f 61 263 240
f 61 240 222
f 61 222 204
f 61 204 184
f 61 184 160
f 58 80 81
f 16 33 34
f 57 80 58
f 55 78 59
f 42 67 44
f 43 63 64
f 43 64 60
f 44 65 66
f 44 67 65
f 45 66 68
f 45 68 46
f 46 68 86
f 46 86 69
f 46 69 47
f 47 70 48
f 47 69 71
f 47 71 70
f 49 70 88
f 49 88 72
f 50 72 73
f 50 73 51
f 51 73 74
f 54 57 56
f 55 76 77
f 55 77 78
f 57 79 80
f 61 160 137
f 16 52 33
f 15 32 16
f 6 17 34
f 6 34 18
f 7 18 34
f 7 34 33
f 7 33 52
f 7 52 51
f 7 51 74
f 7 74 94
f 7 94 122
f 5 16 17
f 7 122 147
f 7 170 194
f 7 194 212
f 7 212 230
f 7 230 250
f 7 250 272
f 7 272 304
f 7 304 335
f 7 335 357
f 7 357 372
f 7 147 170
f 5 15 16
f 5 29 15
f 5 13 29
f 164 190 191
f 1 2 3
f 1 3 10
f 1 10 4
f 1 4 13
f 1 13 5
f 1 5 17
f 1 17 6
f 1 6 2
f 2 7 19
f 2 19 8
f 2 8 9
f 2 9 3
f 2 6 18
f 2 18 7
f 3 9 24
f 3 24 10
f 4 11 12
f 4 12 13
f 4 10 14
f 4 14 11
f 7 372 384
f 7 384 383
f 7 383 392
f 7 392 391
f 8 21 37
f 8 37 22
f 8 22 9
f 9 22 23
f 9 23 38
f 9 38 24
f 10 24 30
f 10 30 14
f 11 14 25
f 11 25 26
f 11 26 27
f 11 27 12
f 12 27 45
f 12 45 28
f 12 28 13
f 13 28 29
f 14 30 43
f 14 43 25
f 15 29 48
f 15 48 31
f 15 31 32
f 8 20 21
f 16 32 52
f 8 19 20
f 7 35 20
f 7 391 395
f 7 395 394
f 7 394 393
f 7 393 386
f 7 386 373
f 7 373 358
f 7 358 337
f 7 337 306
f 7 306 275
f 7 275 252
f 7 252 232
f 7 232 214
f 7 214 196
f 7 196 171
f 7 171 149
f 7 149 128
f 7 128 123
f 7 123 95
f 7 95 75
f 7 75 53
f 7 53 35
f 7 20 19
f 61 137 107
f 41 60 61
f 61 85 65
f 128 149 150
f 128 150 174
f 128 174 151
f 128 151 129
f 129 151 130
f 130 151 152
f 130 152 156
f 130 156 148
f 131 136 154
f 126 133 132
f 131 154 155
f 133 148 156
f 133 156 134
f 134 156 135
f 135 157 158
f 135 158 159
f 135 159 154
f 135 154 136
f 135 156 157
f 137 160 161
f 131 155 153
f 126 148 133
f 125 148 126
f 123 128 127
f 108 140 141
f 108 141 109
f 108 137 138
f 109 141 110
f 110 141 114
f 114 141 115
f 115 141 142
f 115 142 167
f 115 167 143
f 116 143 144
f 116 144 117
f 117 144 120
f 117 120 119
f 118 145 122
f 120 144 168
f 120 168 146
f 120 146 169
f 120 169 145
f 120 145 121
f 122 145 169
f 122 169 147
f 137 161 162
f 137 162 138
f 138 162 187
f 61 107 85
f 154 159 178
f 154 178 155
f 155 178 179
f 155 179 202
f 155 202 180
f 156 181 157
f 157 181 182
f 157 182 158
f 158 182 183
f 158 183 159
f 159 183 179
f 159 179 178
f 160 184 185
f 160 185 161
f 161 185 205
f 161 205 186
f 161 186 187
f 161 187 162
f 163 187 208
f 163 208 188
f 163 188 166
f 153 180 177
f 108 139 140
f 153 155 180
f 152 176 181
f 138 163 139
f 139 164 165
f 139 165 140
f 139 163 166
f 139 166 164
f 140 165 141
f 141 165 167
f 141 167 142
f 143 167 168
f 143 168 144
f 146 168 169
f 147 169 170
f 149 171 195
f 149 195 172
f 149 172 173
f 149 173 150
f 150 173 174
f 151 174 173
f 151 173 175
f 151 175 152
f 152 175 176
f 152 181 156
f 108 138 139
f 138 187 163
f 106 132 133
f 76 96 82
f 76 82 77
f 76 97 98
f 76 98 124
f 76 124 96
f 77 82 78
f 79 99 81
f 79 81 80
f 81 99 100
f 75 99 79
f 81 100 125
f 82 96 103
f 82 103 101
f 82 101 84
f 83 84 101
f 83 101 103
f 83 103 104
f 83 104 105
f 83 105 106
f 83 106 102
f 81 125 97
f 73 94 74
f 73 93 94
f 72 93 73
f 61 65 67
f 107 137 108
f 61 67 62
f 61 64 83
f 63 82 64
f 64 82 84
f 64 84 83
f 65 85 86
f 65 86 68
f 65 68 66
f 69 86 112
f 69 112 87
f 69 87 71
f 70 71 88
f 71 87 89
f 71 89 90
f 71 90 91
f 71 91 88
f 72 88 113
f 72 113 92
f 72 92 93
f 85 107 108
f 85 108 109
f 75 95 99
f 99 127 100
f 95 123 127
f 96 124 104
f 96 104 103
f 97 125 126
f 97 126 98
f 98 126 132
f 98 132 124
f 100 127 128
f 100 128 129
f 100 129 130
f 100 130 148
f 100 148 125
f 102 106 131
f 104 124 132
f 104 132 105
f 105 132 106
f 106 133 134
f 106 134 135
f 85 109 110
f 106 136 131
f 106 135 136
f 94 118 122
f 93 145 118
f 95 127 99
f 93 121 145
f 85 110 111
f 85 111 112
f 85 112 86
f 87 112 89
f 88 91 113
f 89 112 111
f 89 111 90
f 90 111 110
f 90 114 115
f 90 115 91
f 91 116 117
f 90 110 114
f 91 92 113
f 91 115 143
f 91 143 116
f 92 117 93
f 93 118 94
f 93 117 119
f 91 117 92
f 93 119 120
f 93 120 121

