# https://github.com/mikedh/trimesh
v 0.17046600 0.65085100 0.01547570
v 0.17538200 0.55814100 0.00024574
v 0.17046600 0.65085100 -0.01551520
v 0.16707100 0.65085100 0.02761110
v 0.17425000 0.55814100 -0.01358870
v 0.17043400 0.65085100 -0.03100300
v 0.17046600 0.55814100 0.01549090
v 0.15520300 0.55814100 0.03086500
v 0.16529300 0.55814100 0.02582120
v 0.15494500 0.65085100 0.03099390
v 0.15494500 0.55814100 0.03099390
v 0.17046600 0.63536900 -0.03098780
v 0.17046600 0.55814100 -0.03098780
v 0.16529300 0.65085100 -0.04131810
v -0.12399100 0.65085100 0.03099390
v -0.13944800 0.55814100 0.03099390
v 0.16529300 0.55814100 -0.04131810
v 0.15494500 0.65085100 -0.04649080
v -0.13948000 0.65085100 0.03098630
v -0.13944800 0.63536900 0.03099390
v -0.14963400 0.55814100 0.02590460
v 0.15494500 0.55814100 -0.04649080
v -0.12399100 0.65085100 -0.04649080
v -0.14979600 0.65085100 0.02582120
v -0.14979600 0.55814100 0.02582120
v -0.13944800 0.55814100 -0.04649080
v -0.13944800 0.63536900 -0.04649080
v -0.13948000 0.65085100 -0.04647570
v -0.15496900 0.65085100 0.01547570
v -0.15496900 0.63536900 0.01549090
v -0.15496900 0.55814100 0.01549090
v -0.15115400 0.55814100 -0.04165940
v -0.14979600 0.65085100 -0.04131810
v -0.15496900 0.65085100 -0.01551520
v -0.15496900 0.55814100 -0.03098780
v -0.15493700 0.65085100 -0.03101060
v -0.15496900 0.63536900 -0.03098780
f 18 26 27
f 18 22 26
f 16 19 21
f 16 20 19
f 15 19 20
f 14 22 18
f 12 13 17
f 12 17 14
f 10 16 11
f 10 20 16
f 6 12 14
f 5 13 12
f 18 27 23
f 5 12 6
f 14 17 22
f 19 24 21
f 28 32 33
f 23 27 28
f 4 11 8
f 34 36 37
f 32 37 36
f 32 35 37
f 32 36 33
f 29 31 30
f 21 24 25
f 29 35 31
f 29 34 37
f 27 32 28
f 26 32 27
f 24 31 25
f 24 30 31
f 24 29 30
f 29 37 35
f 4 10 11
f 10 15 20
f 4 8 9
f 1 10 4
f 1 15 10
f 1 19 15
f 1 24 19
f 1 29 24
f 1 34 29
f 1 36 34
f 1 33 36
f 1 28 33
f 1 23 28
f 1 14 18
f 1 6 14
f 1 3 6
f 1 2 3
f 4 9 7
f 1 4 2
f 2 5 6
f 1 18 23
f 2 4 7
f 2 13 5
f 2 6 3
f 2 17 13
f 2 22 17
f 2 32 26
f 2 35 32
f 2 31 35
f 2 26 22
f 2 21 25
f 2 16 21
f 2 11 16
f 2 8 11
f 2 7 9
f 2 25 31
f 2 9 8

