# https://github.com/mikedh/trimesh
v 0.14487900 0.32578300 -0.14451800
v 0.14150400 0.34297100 -0.14451800
v 0.12601700 0.37394400 -0.14451800
v 0.14463600 0.39255700 -0.21181200
v 0.07950180 0.42045900 -0.14451800
v 0.09811500 0.43907800 -0.21181200
v 0.14463600 0.39255700 -0.36674500
v 0.17046600 0.34093000 -0.21697400
v 0.16012100 0.36158700 -0.21181200
v 0.17046600 0.24795400 -0.21697400
v 0.14487900 0.24795500 -0.14451800
v 0.16529400 0.24281500 -0.20662800
v 0.13429100 0.18080900 -0.20662800
v 0.13668200 0.23195800 -0.14451800
v 0.04143850 0.14956300 -0.14451800
v 0.09070520 0.17100600 -0.14451800
v 0.10568100 0.18547100 -0.14451800
v 0.13172100 0.17436800 -0.20922000
v 0.12911800 0.16532400 -0.21697400
v 0.13429100 0.17563600 -0.21697400
v 0.12911800 0.16532400 -0.37190700
v 0.11620300 0.15885000 -0.20922000
v 0.09277570 0.17282100 -0.14451800
v 0.05868330 0.15498100 -0.14451800
v 0.05423020 0.12788000 -0.20922000
v 0.04648780 0.12397600 -0.21697400
v 0.04648780 0.12397600 -0.37190700
v -0.04648780 0.12397600 -0.21697400
v -0.05187610 0.14956300 -0.14451800
v -0.05679990 0.12914800 -0.21181200
v -0.11880600 0.16015100 -0.21181200
v -0.08287700 0.16507800 -0.14451800
v -0.10341200 0.17551600 -0.14451800
v -0.14487900 0.24256600 -0.14451800
v -0.13441300 0.22203100 -0.14451800
v -0.13429100 0.17563600 -0.21181200
v -0.16529400 0.23764200 -0.21181200
v -0.17046600 0.24795400 -0.21697400
v -0.14487900 0.32036600 -0.14451800
v -0.17046600 0.34093000 -0.21697400
v -0.16656200 0.34867200 -0.20922000
v -0.15107700 0.37964200 -0.20922000
v -0.12343600 0.36966100 -0.14451800
v -0.13946100 0.33761100 -0.14451800
v 0.03134120 0.43932100 -0.14451800
v -0.03097250 0.43932100 -0.14451800
v -0.07799850 0.41560900 -0.14451800
v -0.10897100 0.38463700 -0.14451800
v -0.12162100 0.37173100 -0.14451800
v -0.14463600 0.39255700 -0.21697400
v -0.09811500 0.43907800 -0.21697400
v -0.08910440 0.44164800 -0.20922000
v -0.04648780 0.46490800 -0.21697400
v -0.05162720 0.45973600 -0.20662800
v -0.08263020 0.44421800 -0.20662800
v -0.06197340 0.42380600 -0.14451800
v 0.04648780 0.46490800 -0.21697400
v -0.04648780 0.46490800 -0.37190700
v 0.04648780 0.46490800 -0.37190700
v -0.04648780 0.45973600 -0.38225200
v 0.04648780 0.45973600 -0.38225200
v 0.05679990 0.45973600 -0.37709100
v 0.05423020 0.45713300 -0.38354800
v 0.04648780 0.44939000 -0.38741400
v -0.04648780 0.44939000 -0.38741400
v 0.03096960 0.32541200 -0.40292100
v 0.07745740 0.43390500 -0.38741400
v 0.08523320 0.44164800 -0.38354800
v 0.08780290 0.44421800 -0.37709100
v 0.09811500 0.43907800 -0.36674500
v 0.14977600 0.38224500 -0.37709100
v 0.16529400 0.35124200 -0.37709100
v 0.14720600 0.37964200 -0.38354800
v 0.16269100 0.34867200 -0.38354800
v 0.16529400 0.34093000 -0.38225200
v 0.17046600 0.34093000 -0.37190700
v 0.17046600 0.24795400 -0.37190700
v 0.16529400 0.24795400 -0.38225200
v 0.15494800 0.24795400 -0.38741400
v 0.15494800 0.34093000 -0.38741400
v 0.13946300 0.37189900 -0.38741400
v 0.13172100 0.39516000 -0.38354800
v 0.03096960 0.26347200 -0.40292100
v -0.03096960 0.32541200 -0.40292100
v -0.07745740 0.43390500 -0.38741400
v -0.09297560 0.43584100 -0.38354800
v -0.13946300 0.38935300 -0.38354800
v -0.13946300 0.37189900 -0.38741400
v -0.15494800 0.34093000 -0.38741400
v -0.16529400 0.34606900 -0.38225200
v -0.14977600 0.37707200 -0.38225200
v -0.14720600 0.38354600 -0.37966000
v -0.17046600 0.34093000 -0.37190700
v -0.14463600 0.39255700 -0.37190700
v -0.09811500 0.43907800 -0.37190700
v -0.08523320 0.44551900 -0.37966000
v -0.05423020 0.46100400 -0.37966000
v -0.06197260 0.45132600 -0.38354800
v -0.17046600 0.24795400 -0.37190700
v -0.12911800 0.16532400 -0.37709100
v -0.12911800 0.16532400 -0.22213500
v -0.11880600 0.16015100 -0.36674500
v -0.09811500 0.14980600 -0.37709100
v -0.10846000 0.17049700 -0.38741400
v -0.12137600 0.17306600 -0.38482200
v -0.12394500 0.18598200 -0.38741400
v -0.16529400 0.25312700 -0.38225200
v -0.15494800 0.24795400 -0.38741400
v -0.16012100 0.22729700 -0.37709100
v -0.03096960 0.26347200 -0.40292100
v 0.00000000 0.24795400 -0.40292100
v -0.04648780 0.13949400 -0.38741400
v -0.04131510 0.12914800 -0.38225200
v -0.06714540 0.13432100 -0.37709100
v -0.04648780 0.12397600 -0.37190700
v 0.05162720 0.12914800 -0.38225200
v 0.11363300 0.16015100 -0.38225200
v 0.12007400 0.16272100 -0.37966000
v 0.12588100 0.17049700 -0.38354800
v 0.10846000 0.17049700 -0.38741400
v 0.04648780 0.13949400 -0.38741400
v 0.12394500 0.18598200 -0.38741400
v 0.15688400 0.23246900 -0.38354800
v 0.13559200 0.17823900 -0.37966000
v 0.15107700 0.20920900 -0.37966000
v 0.16656200 0.24021200 -0.37966000
v 0.06714540 0.45456300 -0.21181200
v 0.04852930 0.43594600 -0.14451800
f 107 108 106
f 107 106 100
f 105 100 106
f 105 106 104
f 105 104 100
f 100 101 36
f 100 103 102
f 100 102 101
f 100 36 99
f 107 90 108
f 99 36 38
f 100 104 103
f 107 99 90
f 104 112 103
f 107 100 109
f 109 100 99
f 99 93 90
f 108 90 89
f 108 89 110
f 108 110 106
f 104 106 110
f 104 110 111
f 104 111 112
f 103 112 113
f 114 103 113
f 114 115 103
f 99 38 93
f 107 109 99
f 93 38 40
f 91 88 90
f 94 40 50
f 66 84 65
f 85 65 84
f 85 87 86
f 85 88 87
f 85 84 88
f 88 84 89
f 88 89 90
f 114 113 115
f 91 87 88
f 91 92 87
f 91 90 92
f 92 90 93
f 92 93 94
f 94 93 40
f 87 92 94
f 86 87 95
f 86 95 96
f 86 96 97
f 98 86 97
f 98 65 86
f 98 60 65
f 98 97 60
f 97 58 60
f 97 96 58
f 95 58 96
f 95 51 58
f 95 94 51
f 94 50 51
f 87 94 95
f 115 113 27
f 119 122 79
f 115 28 102
f 125 126 77
f 77 10 20
f 20 10 18
f 13 18 10
f 13 14 18
f 13 10 12
f 122 83 79
f 80 79 83
f 110 83 111
f 84 83 110
f 89 84 110
f 21 22 27
f 42 50 40
f 78 77 126
f 42 43 50
f 65 60 61
f 127 6 57
f 127 128 6
f 127 57 128
f 128 57 45
f 128 45 5
f 128 5 6
f 5 45 1
f 3 5 1
f 1 45 15
f 34 15 45
f 29 15 34
f 66 83 84
f 58 51 53
f 115 27 28
f 123 79 78
f 123 126 125
f 115 102 103
f 31 102 28
f 31 101 102
f 31 33 101
f 33 36 101
f 116 27 113
f 117 27 116
f 118 27 117
f 118 21 27
f 118 119 21
f 118 117 119
f 117 120 119
f 117 121 120
f 123 78 126
f 117 116 121
f 121 113 112
f 121 112 111
f 121 111 120
f 120 111 83
f 122 120 83
f 119 120 122
f 119 79 123
f 124 119 123
f 124 21 119
f 124 20 21
f 124 77 20
f 124 125 77
f 124 123 125
f 116 113 121
f 66 80 83
f 85 86 65
f 73 81 82
f 26 22 25
f 26 27 22
f 26 28 27
f 26 15 28
f 29 28 15
f 30 28 29
f 30 31 28
f 30 29 31
f 32 31 29
f 32 33 31
f 32 29 33
f 33 29 34
f 35 33 34
f 26 25 15
f 35 36 33
f 37 36 34
f 37 38 36
f 37 34 38
f 39 38 34
f 39 40 38
f 41 40 39
f 41 42 40
f 41 43 42
f 44 43 41
f 44 39 43
f 44 41 39
f 39 34 43
f 43 34 45
f 35 34 36
f 46 43 45
f 24 16 15
f 24 25 22
f 2 3 1
f 4 3 2
f 4 5 3
f 4 6 5
f 4 7 6
f 4 8 7
f 9 8 4
f 9 2 8
f 9 4 2
f 2 1 8
f 1 10 8
f 11 10 1
f 11 12 10
f 24 15 25
f 11 13 12
f 11 1 14
f 14 1 15
f 16 14 15
f 17 14 16
f 17 18 14
f 19 18 17
f 19 20 18
f 19 21 20
f 19 22 21
f 19 16 22
f 23 16 19
f 23 17 16
f 23 19 17
f 11 14 13
f 47 43 46
f 24 22 16
f 49 43 48
f 59 57 70
f 70 57 6
f 7 70 6
f 7 71 70
f 72 71 7
f 72 73 71
f 72 74 73
f 72 75 74
f 72 76 75
f 72 7 76
f 7 8 76
f 76 8 10
f 77 76 10
f 59 70 69
f 75 76 78
f 80 75 79
f 80 74 75
f 80 81 74
f 66 81 80
f 66 67 81
f 67 82 81
f 68 82 67
f 68 69 82
f 73 74 81
f 69 71 82
f 69 70 71
f 73 82 71
f 48 43 47
f 75 78 79
f 62 59 69
f 78 76 77
f 63 62 68
f 49 50 43
f 62 69 68
f 49 48 50
f 48 51 50
f 48 47 51
f 52 51 47
f 52 53 51
f 52 54 53
f 52 55 54
f 56 55 47
f 56 54 55
f 56 46 54
f 56 47 46
f 54 46 53
f 46 45 53
f 52 47 55
f 57 53 45
f 64 68 67
f 64 67 66
f 64 66 65
f 64 65 61
f 64 61 63
f 63 61 62
f 64 63 68
f 59 61 60
f 59 60 58
f 59 58 57
f 57 58 53
f 62 61 59

