# https://github.com/mikedh/trimesh
v -0.34057500 0.37731700 -0.14451800
v -0.32340600 0.37395800 -0.14451800
v -0.34094900 0.36675300 -0.16530000
v -0.37191100 0.37731700 -0.14451800
v -0.33319200 0.36417200 -0.16659000
v -0.29241200 0.34296300 -0.14451800
v -0.37191100 0.36675300 -0.16530000
v -0.37966800 0.36805100 -0.16271700
v -0.40290600 0.36183600 -0.14451800
v -0.34094900 0.35641600 -0.17046400
v -0.37191100 0.35641600 -0.17046400
v -0.30219700 0.33317800 -0.16659000
v -0.27691400 0.31196800 -0.14451800
v -0.38740800 0.35836300 -0.16659000
v -0.41066300 0.35255300 -0.16271700
v -0.41788400 0.35416000 -0.14451800
v -0.29445600 0.29444200 -0.17046400
v -0.40000100 0.33801300 -0.17046400
v -0.41324300 0.34609500 -0.16530000
v -0.28670000 0.30218300 -0.16659000
v -0.27353900 0.29479900 -0.14451800
v -0.28411900 0.29444200 -0.16530000
v -0.43390100 0.32212600 -0.14451800
v -0.29445600 0.27896100 -0.17046400
v -0.41840300 0.30992300 -0.17046400
v -0.42874000 0.31510000 -0.16530000
v -0.28411900 0.27896100 -0.16530000
v -0.27353900 0.27896100 -0.14451800
v -0.43930500 0.30489300 -0.14451800
v -0.30477700 0.23762900 -0.16530000
v -0.31285900 0.25087100 -0.17046400
v -0.29250900 0.26346300 -0.16659000
v -0.41840300 0.27896100 -0.17046400
v -0.42874000 0.28412100 -0.16530000
v -0.28282100 0.27120400 -0.16271700
v -0.28903600 0.24796600 -0.14451800
v -0.43930500 0.27354100 -0.14451800
v -0.29831900 0.24020900 -0.16271700
v -0.29671200 0.23298800 -0.14451800
v -0.33577200 0.22213200 -0.16530000
v -0.34094900 0.23246900 -0.17046400
v -0.40290600 0.24796600 -0.17046400
v -0.41582300 0.26604400 -0.16788300
v -0.42358000 0.25828700 -0.16013400
v -0.42382300 0.24254600 -0.14451800
v -0.32874500 0.21697100 -0.14451800
v -0.34597900 0.21155100 -0.14451800
v -0.36675100 0.22213200 -0.16530000
v -0.37191100 0.23246900 -0.17046400
v -0.41066300 0.24020900 -0.16271700
v -0.38482800 0.23504900 -0.16788300
v -0.41853300 0.23233900 -0.14451800
v -0.37733100 0.21155100 -0.14451800
v -0.39258500 0.22729200 -0.16013400
v -0.40832600 0.22704900 -0.14451800
f 25 34 26
f 26 34 37
f 26 37 29
f 27 28 35
f 30 39 46
f 28 36 38
f 28 38 35
f 30 32 38
f 30 38 39
f 27 35 32
f 25 33 34
f 21 28 27
f 24 27 32
f 24 30 31
f 23 26 29
f 21 27 22
f 20 27 24
f 20 22 27
f 19 25 26
f 18 25 19
f 17 20 24
f 16 26 23
f 30 46 40
f 24 32 30
f 30 40 41
f 40 48 49
f 32 35 38
f 16 19 26
f 52 54 55
f 50 54 52
f 48 51 49
f 48 50 51
f 53 55 54
f 48 53 54
f 44 52 45
f 44 50 52
f 42 51 50
f 42 49 51
f 42 50 43
f 40 49 41
f 40 53 48
f 40 47 53
f 40 46 47
f 37 44 45
f 36 39 38
f 34 44 37
f 34 50 44
f 34 43 50
f 33 43 34
f 33 42 43
f 30 41 31
f 15 19 16
f 48 54 50
f 13 22 20
f 2 6 12
f 2 5 3
f 1 6 2
f 1 13 6
f 1 21 13
f 1 28 21
f 1 36 28
f 1 39 36
f 1 46 39
f 1 47 46
f 1 53 47
f 1 55 53
f 1 52 55
f 1 45 52
f 1 37 45
f 1 29 37
f 1 23 29
f 1 16 23
f 1 9 16
f 1 4 9
f 1 3 7
f 1 2 3
f 14 19 15
f 2 12 5
f 3 5 7
f 1 7 4
f 4 8 9
f 4 7 8
f 13 21 22
f 12 20 17
f 11 18 19
f 10 18 11
f 10 25 18
f 10 33 25
f 10 42 33
f 10 49 42
f 10 41 49
f 10 31 41
f 10 24 31
f 11 19 14
f 10 12 17
f 10 17 24
f 5 11 7
f 6 13 20
f 6 20 12
f 5 12 10
f 7 14 8
f 8 14 15
f 8 15 9
f 9 15 16
f 7 11 14
f 5 10 11

