# https://github.com/mikedh/trimesh
v -0.10847900 -0.57590000 -0.03097870
v -0.08397110 -0.57590000 -0.07999370
v -0.10847900 -0.57590000 0.01548780
v -0.10847900 -0.11253000 -0.03097870
v -0.09836980 -0.11253000 -0.05187590
v -0.08263320 -0.57590000 -0.08264840
v -0.08781500 -0.57590000 0.05681510
v -0.10847900 -0.11253000 0.01548780
v -0.08320660 -0.11253000 -0.08152280
v -0.08263320 -0.11366400 -0.08264840
v -0.06715140 -0.57590000 -0.09813020
v -0.08348270 -0.57590000 0.06545850
v -0.08781500 -0.11253000 0.05681510
v -0.08256950 -0.11253000 -0.08232980
v -0.06715140 -0.11253000 -0.09813020
v -0.06449680 -0.57590000 -0.09946810
v -0.06602590 -0.11253000 -0.09870360
v -0.08263320 -0.57590000 0.06713630
v -0.08263320 -0.11253000 0.06713630
v -0.08399240 -0.11253000 0.06443920
v -0.04648780 -0.57590000 -0.10847300
v -0.04648780 -0.11253000 -0.10847300
v -0.06715140 -0.57590000 0.08263930
v -0.06715140 -0.11253000 0.08263930
v 0.00000000 -0.57590000 -0.12397600
v 0.00000000 -0.11253000 -0.12397600
v -0.04648780 -0.57590000 0.09298170
v -0.04648780 -0.11253000 0.09298170
v 0.04648780 -0.57590000 -0.10847300
v 0.04648780 -0.11253000 -0.10847300
v 0.04648780 -0.57590000 0.09298170
v 0.04648780 -0.11253000 0.09298170
v 0.06547370 -0.57590000 -0.09897960
v 0.05680900 -0.11253000 -0.10331200
v 0.06715140 -0.57590000 0.08263930
v 0.06715140 -0.11253000 0.08263930
v 0.06715140 -0.57590000 -0.09813020
v 0.06715140 -0.11253000 -0.09813020
v 0.08263320 -0.57590000 0.06713630
v 0.08263320 -0.11253000 0.06713630
v 0.08263320 -0.57590000 -0.08264840
v 0.08263320 -0.11253000 -0.08264840
v 0.08781500 -0.57590000 0.05681510
v 0.10370000 -0.11253000 0.02621250
v 0.08781500 -0.57590000 -0.07230590
v 0.08781500 -0.11253000 -0.07230590
v 0.10847900 -0.57590000 0.01548780
v 0.10847900 -0.11253000 0.01548780
v 0.10847900 -0.57590000 -0.03097870
v 0.10847900 -0.11253000 -0.03097870
f 12 20 13
f 16 17 22
f 16 22 21
f 23 27 28
f 18 24 19
f 21 22 26
f 21 26 25
f 18 23 24
f 12 19 20
f 9 14 10
f 11 17 16
f 11 15 17
f 4 14 9
f 7 12 13
f 6 15 11
f 6 10 15
f 5 10 6
f 5 9 10
f 4 9 5
f 23 28 24
f 12 18 19
f 25 26 30
f 35 40 36
f 27 31 32
f 4 15 14
f 47 50 48
f 47 49 50
f 45 50 49
f 45 46 50
f 44 47 48
f 43 47 44
f 41 46 45
f 41 42 46
f 39 44 40
f 39 43 44
f 37 42 41
f 37 38 42
f 35 39 40
f 33 38 37
f 33 34 38
f 31 36 32
f 31 35 36
f 29 34 33
f 29 30 34
f 27 32 28
f 25 30 29
f 4 17 15
f 10 14 15
f 4 26 22
f 1 12 7
f 1 18 12
f 1 23 18
f 1 27 23
f 1 31 27
f 1 35 31
f 1 39 35
f 1 43 39
f 1 47 43
f 1 49 47
f 1 45 49
f 1 41 45
f 1 33 37
f 1 29 33
f 1 25 29
f 1 21 25
f 1 16 21
f 1 11 16
f 1 6 11
f 1 2 6
f 4 22 17
f 1 7 3
f 1 3 8
f 1 37 41
f 1 4 5
f 4 30 26
f 1 8 4
f 4 34 30
f 4 38 34
f 4 42 38
f 4 46 42
f 4 48 50
f 4 44 48
f 4 40 44
f 4 36 40
f 4 50 46
f 4 28 32
f 4 24 28
f 4 19 24
f 4 20 19
f 4 13 20
f 4 8 13
f 3 13 8
f 3 7 13
f 4 32 36
f 2 5 6
f 1 5 2

