# https://github.com/mikedh/trimesh
v 0.17820900 0.67412200 -0.13559800
v 0.17045400 0.68702700 -0.12914100
v 0.18206800 0.68186100 -0.12591200
v 0.18206800 0.67412200 -0.13171900
v 0.17562400 0.67153700 -0.13429700
v -0.16528500 0.67153700 -0.13429700
v -0.17045400 0.67670200 -0.13429700
v -0.17045400 0.68702700 -0.12914100
v 0.17045400 0.69735800 -0.10846700
v 0.18079400 0.69219200 -0.11362300
v 0.17820900 0.68961200 -0.12008000
v -0.17820900 0.69348500 -0.11622600
v 0.18596300 0.68186100 -0.10846700
v 0.18079400 0.67153700 -0.12396000
v 0.17045400 0.66637100 -0.12396000
v -0.17045400 0.66637100 -0.12396000
v -0.17820900 0.67412200 -0.13171900
v -0.17820900 0.67799500 -0.13171900
v -0.18206800 0.68379800 -0.12396000
v 0.17045400 0.71286000 -0.06198700
v -0.17045400 0.69735800 -0.10846700
v 0.18079400 0.70768800 -0.06714310
v -0.18079400 0.69219200 -0.10846700
v -0.18079400 0.70768800 -0.06198700
v -0.17820900 0.70898100 -0.06972110
v -0.17045400 0.71286000 -0.06198700
v 0.18596300 0.69735800 -0.06198700
v 0.18596300 0.68186100 0.09296960
v 0.17045400 0.65085100 -0.03100070
v 0.16528500 0.65085100 -0.04131280
v 0.15494500 0.65085100 -0.04646880
v -0.13947300 0.65085100 -0.04646880
v -0.14977600 0.65085100 -0.04131280
v -0.15494500 0.65085100 -0.03100070
v -0.18079400 0.67153700 -0.11880400
v -0.18596300 0.68186100 -0.10846700
v 0.17045400 0.71286000 0.04649010
v 0.18079400 0.70768800 0.04130900
v -0.18079400 0.70768800 0.04649010
v -0.18596300 0.69735800 -0.06198700
v -0.17045400 0.71286000 0.04649010
v 0.18596300 0.69735800 0.04649010
v 0.18079400 0.69219200 0.08781350
v 0.18337900 0.67928800 0.10588500
v 0.18079400 0.67153700 0.10846300
v 0.17045400 0.65085100 0.01545370
v -0.15494500 0.65085100 0.01545370
v -0.18079400 0.67153700 0.11364400
v -0.18596300 0.68186100 0.09296960
v 0.17045400 0.69735800 0.09296960
v 0.17562400 0.68702700 0.11364400
v 0.17820900 0.68961200 0.10072900
v -0.18596300 0.69735800 0.04649010
v -0.18206800 0.70510900 0.05422410
v -0.17562400 0.70768800 0.05680220
v -0.17562400 0.69219200 0.10330700
v -0.17045400 0.69735800 0.09296960
v 0.17820900 0.67412200 0.11622200
v 0.17820900 0.67024400 0.11622200
v 0.16706900 0.65085100 0.02759290
v -0.14977600 0.65085100 0.02581590
v -0.17045400 0.66637100 0.10846300
v -0.17045400 0.67153700 0.11880000
v -0.17820900 0.67412200 0.12010100
v -0.18206800 0.67412200 0.11622200
v -0.18206800 0.68961200 0.10072900
v 0.16528500 0.67670200 0.11880000
v -0.16528500 0.68702700 0.11364400
v 0.17045400 0.67153700 0.11880000
v 0.17045400 0.66637100 0.10846300
v 0.15494500 0.65085100 0.03097190
v -0.13947300 0.65085100 0.03097190
f 37 50 51
f 37 51 52
f 37 52 43
f 37 43 38
f 37 41 57
f 37 57 50
f 38 43 42
f 39 55 41
f 39 54 55
f 41 55 56
f 44 51 58
f 41 56 57
f 44 52 51
f 43 52 44
f 39 53 54
f 36 53 40
f 29 60 71
f 35 49 36
f 28 45 46
f 44 58 59
f 29 46 60
f 29 71 72
f 29 72 61
f 29 61 47
f 36 49 53
f 29 47 34
f 29 33 32
f 29 32 31
f 29 31 30
f 34 47 48
f 34 48 35
f 35 48 49
f 29 34 33
f 44 59 45
f 62 71 70
f 46 59 60
f 56 64 68
f 58 67 69
f 58 69 59
f 59 70 60
f 59 69 63
f 59 63 62
f 56 66 64
f 59 62 70
f 61 72 62
f 62 72 71
f 63 69 64
f 64 66 65
f 64 69 67
f 28 44 45
f 60 70 71
f 45 59 46
f 54 56 55
f 53 66 54
f 47 61 62
f 47 62 48
f 48 62 63
f 48 63 64
f 48 64 65
f 48 65 49
f 54 66 56
f 49 65 66
f 50 57 56
f 50 56 68
f 50 68 51
f 51 67 58
f 51 68 64
f 51 64 67
f 49 66 53
f 28 43 44
f 7 18 8
f 24 53 39
f 10 22 27
f 10 20 22
f 9 26 20
f 9 21 26
f 9 12 21
f 9 20 10
f 8 19 12
f 8 18 19
f 7 17 18
f 6 17 7
f 6 16 17
f 5 16 6
f 5 15 16
f 28 42 43
f 4 14 5
f 4 13 14
f 3 10 13
f 1 2 3
f 1 3 4
f 1 4 5
f 1 5 6
f 1 6 7
f 1 7 8
f 10 27 13
f 1 8 2
f 2 10 11
f 2 11 3
f 2 8 12
f 2 12 9
f 3 13 4
f 3 11 10
f 2 9 10
f 12 19 23
f 5 14 15
f 12 24 25
f 17 19 18
f 19 36 23
f 20 37 38
f 20 38 22
f 20 26 41
f 20 41 37
f 17 36 19
f 22 38 42
f 23 36 40
f 23 40 24
f 24 39 41
f 24 41 26
f 24 26 25
f 12 23 24
f 22 42 27
f 17 35 36
f 24 40 53
f 16 34 35
f 16 35 17
f 12 26 21
f 13 27 42
f 13 42 28
f 13 28 46
f 13 46 29
f 13 29 14
f 12 25 26
f 15 29 30
f 15 30 31
f 15 31 32
f 15 32 16
f 16 32 33
f 16 33 34
f 14 29 15

