# https://github.com/mikedh/trimesh
v -0.57260400 0.32541400 0.04649080
v -0.57260400 0.33574000 0.04131960
v -0.61987700 0.32541400 0.04649080
v -0.57260400 0.26342700 0.04649080
v -0.62503500 0.33574000 0.04131960
v -0.57260400 0.34093300 0.03098780
v -0.63730800 0.32541400 0.04261510
v -0.65086500 0.29443600 0.04649080
v -0.57260400 0.24690000 0.04280620
v -0.58888800 0.03779530 0.04649080
v -0.57856200 0.03779530 0.04131960
v -0.57679000 0.03779530 0.03779430
v -0.57339400 0.03779530 0.03098780
v -0.63149700 0.33315900 0.03873930
v -0.61987700 0.34093300 0.03098780
v -0.57260400 0.34093300 -0.04648480
v -0.64053900 0.33057700 0.03098780
v -0.65280200 0.30992500 0.04261510
v -0.66120100 0.29443600 0.04131960
v -0.65666600 0.03779530 0.04359200
v -0.65086500 0.03779530 0.04649080
v -0.57260400 0.24636600 0.04254080
v -0.57339400 0.03779530 -0.04648480
v -0.57260400 0.23402200 0.03098780
v -0.61987700 0.34093300 -0.04648480
v -0.57260400 0.33600700 -0.05628570
v -0.62762400 0.33704600 -0.05423630
v -0.64053900 0.33057700 -0.04648480
v -0.65603300 0.31508800 0.03098780
v -0.66248600 0.30218000 0.03873930
v -0.66636900 0.29443600 0.03098780
v -0.66410200 0.03779530 0.03552190
v -0.66120100 0.03779530 0.04131960
v -0.57856200 0.03779530 -0.05681660
v -0.57260400 0.26342700 -0.06198780
v -0.57260400 0.24692900 -0.05836690
v -0.57260400 0.24544600 -0.05789970
v -0.57260400 0.23838400 -0.05085960
v -0.57260400 0.23402200 -0.04648480
v -0.57260400 0.33574000 -0.05681660
v -0.61987700 0.33574000 -0.05681660
v -0.63537100 0.32737200 -0.05811200
v -0.65603300 0.31508800 -0.04648480
v -0.66636900 0.29443600 -0.04648480
v -0.66636900 0.03779530 0.03098780
v -0.58888800 0.03779530 -0.06198780
v -0.57260400 0.32541400 -0.06198780
v -0.57260400 0.32594800 -0.06172230
v -0.61987700 0.32541400 -0.06198780
v -0.65086500 0.29443600 -0.06198780
v -0.65086500 0.31185300 -0.05811200
v -0.65861200 0.30603800 -0.05423630
v -0.66120100 0.29959900 -0.05681660
v -0.66636900 0.03779530 -0.04648480
v -0.65086500 0.03779530 -0.06198780
v -0.65956700 0.03779530 -0.05763420
v -0.66120100 0.03779530 -0.05681660
f 23 34 35
f 23 35 36
f 23 36 37
f 23 37 38
f 25 27 28
f 26 40 27
f 27 40 41
f 27 42 28
f 19 33 20
f 27 41 42
f 23 38 39
f 19 32 33
f 16 27 25
f 19 30 31
f 18 30 19
f 18 29 30
f 17 43 29
f 17 28 43
f 16 26 27
f 15 28 17
f 15 25 28
f 14 15 17
f 28 42 43
f 13 24 22
f 19 31 32
f 29 43 44
f 43 53 44
f 29 31 30
f 13 39 24
f 53 56 57
f 51 53 52
f 50 56 53
f 50 55 56
f 50 53 51
f 47 49 48
f 44 53 57
f 43 52 53
f 43 51 52
f 42 51 43
f 29 44 31
f 42 50 51
f 41 49 42
f 41 48 49
f 40 48 41
f 35 49 47
f 35 50 49
f 35 55 50
f 35 46 55
f 34 46 35
f 31 45 32
f 31 54 45
f 31 44 54
f 42 49 50
f 13 23 39
f 44 57 54
f 10 13 12
f 3 5 7
f 2 15 5
f 2 6 15
f 1 6 2
f 1 16 6
f 1 26 16
f 1 40 26
f 1 48 40
f 1 47 48
f 1 35 47
f 1 36 35
f 3 7 18
f 1 37 36
f 1 39 38
f 1 24 39
f 1 22 24
f 1 9 22
f 1 4 9
f 1 21 10
f 1 8 21
f 1 3 8
f 1 5 3
f 1 2 5
f 10 12 11
f 1 38 37
f 3 18 8
f 1 10 4
f 4 11 12
f 10 23 13
f 4 10 11
f 10 34 23
f 10 46 34
f 10 55 46
f 10 57 56
f 10 54 57
f 10 45 54
f 10 32 45
f 10 33 32
f 10 20 33
f 10 21 20
f 10 56 55
f 8 20 21
f 9 13 22
f 5 14 7
f 6 16 25
f 4 12 13
f 6 25 15
f 5 15 14
f 7 14 17
f 7 17 29
f 7 29 18
f 8 18 19
f 8 19 20
f 4 13 9

