# https://github.com/mikedh/trimesh
v -0.42050200 0.34619100 -0.14451800
v -0.48033600 0.34619100 -0.13945900
v -0.48033600 0.51139300 -0.13945900
v -0.41834400 0.35314200 -0.14451800
v 0.42266000 0.34619100 -0.14451800
v -0.49073300 0.34619100 -0.13428800
v -0.03089760 0.43933300 -0.14451800
v -0.37185100 0.37733500 -0.14451800
v -0.40284600 0.36185600 -0.14451800
v -0.41785400 0.35417900 -0.14451800
v -0.49073300 0.51656000 -0.13428800
v -0.48033600 0.52172600 -0.13428800
v -0.17812700 0.51913300 -0.13559500
v 0.48033600 0.51139300 -0.13945900
v 0.42040400 0.35847400 -0.14451800
v 0.48033600 0.34619100 -0.13945900
v -0.49583400 0.34619100 -0.12397500
v 0.03129000 0.43933300 -0.14451800
v -0.48808500 0.52301300 -0.13170300
v -0.49583400 0.51139300 -0.12397500
v -0.49200800 0.52882200 -0.10846300
v -0.48033600 0.52689300 -0.12397500
v 0.48033600 0.52172600 -0.13428800
v 0.48808500 0.51913300 -0.13559500
v 0.49073300 0.51139300 -0.13428800
v 0.48386700 0.34619100 -0.13770700
v 0.38940800 0.37397300 -0.14451800
v 0.37224300 0.37733500 -0.14451800
v -0.50093400 0.34619100 -0.04647230
v -0.48808500 0.53851200 -0.10070700
v -0.49583400 0.52689300 -0.09297930
v -0.49073300 0.53722600 -0.09297930
v -0.48033600 0.54239200 -0.09297930
v 0.48033600 0.52689300 -0.12397500
v 0.49073300 0.52172600 -0.12911700
v 0.49583400 0.51139300 -0.12397500
v 0.49073300 0.34619100 -0.13428800
v -0.50093400 0.34619100 0.03108580
v -0.49583400 0.54239200 -0.01547680
v -0.48808500 0.55401200 -0.02323260
v -0.49073300 0.55270400 -0.01547680
v -0.48033600 0.55787100 -0.01547680
v -0.13938300 0.55814100 -0.04647230
v 0.48033600 0.54239200 -0.09297930
v 0.49073300 0.53722600 -0.09812200
v 0.49583400 0.52689300 -0.09297930
v 0.50093400 0.34619100 -0.04135730
v 0.49583400 0.34619100 -0.12397500
v -0.49965900 0.34619100 0.05171240
v -0.49583400 0.51139300 0.10847700
v -0.49583400 0.52689300 0.07748170
v -0.49583400 0.54239200 -0.00002081
v -0.49200800 0.55013200 0.00773500
v -0.49073300 0.55270400 -0.00002081
v -0.48033600 0.55787100 -0.00002081
v -0.15488100 0.55814100 -0.03098840
v -0.15115300 0.55814100 -0.04166310
v 0.15488100 0.55814100 -0.04647230
v 0.48033600 0.55270400 -0.01030630
v 0.48808500 0.55013200 -0.01161280
v 0.49200800 0.54239200 -0.01742270
v 0.49328300 0.53979900 -0.00257828
v 0.49583400 0.52689300 0.06197010
v 0.50093400 0.34619100 0.03622860
v -0.49583400 0.34619100 0.10847700
v -0.49073300 0.51139300 0.11879000
v -0.49200800 0.51913300 0.11620500
v -0.49200800 0.53463200 0.08520970
v -0.49073300 0.53722600 0.07748170
v -0.48033600 0.54239200 0.07748170
v -0.13938300 0.55814100 0.03097460
v -0.14978000 0.55814100 0.02580410
v -0.15488100 0.55814100 0.01565760
v 0.15507700 0.55814100 -0.04638890
v 0.47523500 0.55270400 -0.00516355
v 0.48033600 0.54239200 0.06197010
v 0.48808500 0.55013200 -0.00772102
v 0.16527800 0.55814100 -0.04130170
v 0.16537600 0.55814100 -0.04113490
v 0.17037800 0.55814100 -0.03098840
v 0.17420400 0.55814100 -0.01358650
v 0.17538100 0.55814100 0.00022938
v 0.17037800 0.55814100 0.01549080
v 0.17028000 0.55814100 0.01574100
v 0.16527800 0.55814100 0.02580410
v 0.49073300 0.53722600 0.05679950
v 0.49583400 0.51139300 0.10847700
v 0.49583400 0.34619100 0.10847700
v -0.49073300 0.34619100 0.11879000
v -0.45973700 0.46489500 0.13430200
v -0.48033600 0.51139300 0.12396100
v -0.48553400 0.52172600 0.11879000
v -0.48553400 0.53722600 0.08779500
v -0.48033600 0.52689300 0.10847700
v -0.18587600 0.54239200 0.07748170
v 0.15488100 0.55814100 0.03097460
v 0.15517500 0.55814100 0.03086340
v 0.48033600 0.52689300 0.10847700
v 0.49073300 0.52172600 0.10330700
v 0.49073300 0.50622700 0.11879000
v 0.49328300 0.34619100 0.11370300
v 0.48808500 0.51913300 0.11620500
v -0.48033600 0.34619100 0.12396100
v -0.45973700 0.43391700 0.13430200
v -0.44934000 0.46489500 0.13947300
v -0.43384200 0.48039500 0.13947300
v 0.47523500 0.52172600 0.11879000
v 0.48033600 0.51139300 0.12396100
v 0.48563300 0.34619100 0.12134800
v 0.49073300 0.34619100 0.11879000
v -0.44934000 0.43391700 0.13947300
v 0.48033600 0.34619100 0.12396100
v -0.41834400 0.46489500 0.13947300
v -0.43384200 0.43391700 0.13947300
v -0.41834400 0.44941600 0.13947300
f 59 74 78
f 59 77 60
f 59 76 77
f 59 75 76
f 55 72 73
f 55 71 72
f 55 70 71
f 59 78 79
f 54 70 55
f 54 69 70
f 58 74 59
f 59 79 80
f 60 77 61
f 59 81 82
f 59 82 83
f 59 83 84
f 59 84 85
f 59 85 75
f 61 77 62
f 62 77 86
f 62 86 63
f 63 87 64
f 63 86 99
f 53 69 54
f 59 80 81
f 53 68 69
f 44 58 59
f 51 68 53
f 43 97 85
f 43 85 84
f 43 84 83
f 43 83 82
f 43 82 81
f 43 81 80
f 43 79 78
f 43 78 74
f 43 74 58
f 63 99 87
f 44 59 60
f 51 53 52
f 44 60 45
f 45 61 46
f 46 61 62
f 46 62 63
f 46 63 64
f 46 64 47
f 49 65 50
f 50 65 89
f 50 89 66
f 50 66 67
f 50 67 68
f 50 68 51
f 45 60 61
f 64 87 88
f 75 85 97
f 66 104 90
f 91 105 106
f 91 106 108
f 91 108 107
f 91 107 92
f 92 107 98
f 92 98 94
f 95 98 96
f 98 107 102
f 98 102 99
f 100 102 108
f 100 108 109
f 100 109 110
f 100 110 101
f 102 107 108
f 103 112 114
f 103 114 111
f 105 111 114
f 105 114 115
f 105 115 113
f 105 113 106
f 106 113 108
f 108 112 109
f 108 113 115
f 108 115 112
f 112 115 114
f 90 111 105
f 66 89 104
f 90 104 111
f 89 103 111
f 66 90 105
f 66 105 91
f 66 91 92
f 66 92 67
f 67 92 93
f 67 93 68
f 68 93 69
f 69 93 70
f 70 93 92
f 70 92 94
f 70 94 98
f 70 98 95
f 70 95 96
f 70 96 71
f 43 96 97
f 75 97 96
f 75 96 76
f 76 98 99
f 76 99 86
f 76 86 77
f 76 96 98
f 87 100 101
f 87 101 88
f 87 99 102
f 87 102 100
f 89 111 104
f 43 71 96
f 43 80 79
f 43 73 72
f 43 72 71
f 1 6 2
f 2 6 11
f 2 11 3
f 3 7 8
f 3 8 9
f 3 9 10
f 3 10 4
f 3 11 12
f 3 12 13
f 3 13 24
f 1 29 17
f 3 24 14
f 3 18 7
f 5 15 14
f 5 14 16
f 6 17 20
f 6 20 11
f 11 19 12
f 11 20 21
f 11 21 19
f 12 19 22
f 12 22 34
f 12 34 23
f 3 14 18
f 1 38 29
f 1 49 38
f 1 65 49
f 1 2 3
f 1 3 4
f 1 4 10
f 1 10 9
f 1 9 8
f 1 8 7
f 1 7 18
f 1 18 28
f 1 28 27
f 1 27 15
f 1 15 5
f 1 5 16
f 1 16 26
f 1 26 37
f 1 37 48
f 1 48 47
f 1 47 64
f 1 64 88
f 1 88 101
f 1 101 110
f 1 110 109
f 1 109 112
f 1 112 103
f 1 103 89
f 1 89 65
f 12 23 24
f 12 24 13
f 1 17 6
f 14 25 26
f 33 40 42
f 33 42 43
f 33 43 58
f 33 58 44
f 34 44 45
f 34 45 35
f 35 45 46
f 35 46 36
f 36 46 47
f 36 47 48
f 38 49 50
f 38 50 51
f 38 51 52
f 39 52 53
f 39 53 41
f 40 41 42
f 41 54 55
f 41 55 42
f 41 53 54
f 42 55 73
f 42 73 56
f 42 56 57
f 42 57 43
f 14 24 25
f 43 56 73
f 32 39 41
f 32 41 40
f 43 57 56
f 30 40 33
f 31 39 32
f 14 15 27
f 14 27 28
f 14 28 18
f 17 29 20
f 19 30 33
f 19 33 22
f 19 21 30
f 20 29 31
f 20 31 21
f 21 31 32
f 21 32 30
f 14 26 16
f 22 44 34
f 30 32 40
f 29 39 31
f 29 52 39
f 22 33 44
f 25 37 26
f 29 38 52
f 25 36 48
f 25 35 36
f 24 35 25
f 23 35 24
f 23 34 35
f 25 48 37

