# https://github.com/mikedh/trimesh
v 0.37228400 0.37731700 -0.14451800
v 0.38945300 0.37395800 -0.14451800
v 0.37191100 0.36675300 -0.16530000
v 0.34094900 0.37731700 -0.14451800
v 0.37966800 0.36417200 -0.16659000
v 0.42044800 0.35846000 -0.14451800
v 0.34094900 0.36675300 -0.16530000
v 0.33319200 0.36805100 -0.16271700
v 0.32491600 0.36913800 -0.14451800
v 0.41066300 0.34867500 -0.16659000
v 0.37191100 0.35641600 -0.17046400
v 0.34094900 0.35641600 -0.17046400
v 0.43594500 0.32746500 -0.14451800
v 0.32545100 0.35836300 -0.16659000
v 0.32027500 0.36159200 -0.15497000
v 0.28928000 0.33059700 -0.15497000
v 0.29393700 0.33814300 -0.14451800
v 0.42616000 0.31768000 -0.16659000
v 0.41840300 0.30992300 -0.17046400
v 0.40180200 0.33981500 -0.17046400
v 0.29445600 0.30992300 -0.17046400
v 0.43930500 0.31029600 -0.14451800
v 0.42874000 0.30992300 -0.16530000
v 0.29445600 0.32736800 -0.16659000
v 0.28670000 0.32155800 -0.16271700
v 0.27947800 0.32316500 -0.14451800
v 0.28129600 0.32524200 -0.14451800
v 0.42874000 0.27896100 -0.16530000
v 0.41840300 0.27896100 -0.17046400
v 0.29445600 0.27896100 -0.17046400
v 0.28411900 0.31510000 -0.16530000
v 0.43930500 0.27896100 -0.14451800
v 0.27895900 0.32212600 -0.14451800
v 0.43003900 0.27120400 -0.16271700
v 0.42035100 0.26346300 -0.16659000
v 0.40290600 0.24796600 -0.17046400
v 0.31105700 0.24906900 -0.17046400
v 0.29703700 0.26604400 -0.16788300
v 0.28411900 0.28412100 -0.16530000
v 0.27353900 0.30489300 -0.14451800
v 0.42382300 0.24796600 -0.14451800
v 0.41454100 0.24020900 -0.16271700
v 0.40808300 0.23762900 -0.16530000
v 0.37191100 0.23246900 -0.17046400
v 0.30219700 0.24020900 -0.16271700
v 0.34094900 0.23246900 -0.17046400
v 0.32803100 0.23504900 -0.16788300
v 0.28928000 0.25828700 -0.16013400
v 0.27353900 0.27354100 -0.14451800
v 0.41614800 0.23298800 -0.14451800
v 0.37708800 0.22213200 -0.16530000
v 0.29432700 0.23233900 -0.14451800
v 0.32027500 0.22729200 -0.16013400
v 0.34610900 0.22213200 -0.16530000
v 0.28903600 0.24254600 -0.14451800
v 0.38411400 0.21697100 -0.14451800
v 0.36688000 0.21155100 -0.14451800
v 0.30453400 0.22704900 -0.14451800
v 0.33552900 0.21155100 -0.14451800
f 34 41 42
f 28 34 35
f 28 35 29
f 29 35 36
f 30 37 38
f 32 41 34
f 31 39 49
f 31 49 40
f 31 40 33
f 28 32 34
f 30 38 39
f 26 31 33
f 16 27 17
f 24 31 25
f 22 28 23
f 22 32 28
f 21 31 24
f 21 39 31
f 21 30 39
f 18 29 19
f 16 25 26
f 18 28 29
f 18 23 28
f 16 26 27
f 34 42 35
f 25 31 26
f 35 42 43
f 51 57 59
f 36 43 51
f 16 24 25
f 53 59 58
f 53 54 59
f 52 53 58
f 51 59 54
f 51 56 57
f 48 55 49
f 48 52 55
f 46 54 47
f 45 53 52
f 45 54 53
f 45 47 54
f 35 43 36
f 45 52 48
f 44 51 54
f 43 56 51
f 43 50 56
f 42 50 43
f 41 50 42
f 39 48 49
f 38 48 39
f 38 45 48
f 37 47 45
f 37 46 47
f 37 45 38
f 36 51 44
f 44 54 46
f 14 16 15
f 1 13 6
f 13 23 18
f 2 10 5
f 2 6 10
f 2 5 3
f 1 6 2
f 1 22 13
f 1 32 22
f 1 41 32
f 1 50 41
f 1 56 50
f 1 57 56
f 1 59 57
f 1 58 59
f 1 52 58
f 1 55 52
f 1 49 55
f 1 33 40
f 1 26 33
f 1 27 26
f 1 17 27
f 1 9 17
f 1 4 9
f 1 7 4
f 1 3 7
f 1 2 3
f 14 24 16
f 3 5 7
f 4 7 8
f 1 40 49
f 5 10 11
f 13 22 23
f 4 8 9
f 12 24 14
f 12 21 24
f 11 21 12
f 11 30 21
f 11 46 37
f 11 44 46
f 11 36 44
f 11 29 36
f 11 19 29
f 11 20 19
f 10 20 11
f 11 37 30
f 10 18 19
f 9 16 17
f 9 15 16
f 8 15 9
f 8 14 15
f 7 14 8
f 7 12 14
f 5 12 7
f 6 18 10
f 6 13 18
f 10 19 20
f 5 11 12

