# https://github.com/mikedh/trimesh
v 0.00000000 -0.11253000 -0.12397600
v -0.04644230 -0.11253000 -0.10847300
v -0.60427200 -0.09297390 -0.04648170
v -0.59918400 -0.08780900 -0.05680290
v -0.60427200 -0.07747940 -0.06198480
v -0.63532000 -0.06198480 -0.06198480
v -0.65084500 -0.04649030 -0.06198480
v 0.00000000 0.01548790 -0.12397600
v 0.65084500 -0.04649030 -0.06198480
v 0.63532000 -0.06198480 -0.06198480
v 0.60427200 -0.07747940 -0.06198480
v 0.60949000 -0.08780900 -0.05680290
v 0.60427200 -0.09297390 -0.04648170
v 0.04644230 -0.11253000 -0.10847300
v -0.06601070 -0.11253000 -0.09870360
v -0.60427200 -0.09297390 0.03099090
v -0.61470800 -0.08780900 -0.04132120
v -0.62501400 -0.08264420 -0.05164230
v -0.06705430 -0.11253000 -0.09813020
v -0.08244810 -0.11253000 -0.08232980
v -0.08310040 -0.11253000 -0.08152280
v -0.09836380 -0.11253000 -0.05187590
v -0.10840900 -0.11253000 -0.03097870
v -0.61209900 -0.08521930 -0.05423330
v -0.64823500 -0.05939500 -0.05939380
v -0.65084500 0.03779530 -0.06198480
v -0.65593200 -0.06714970 -0.05164230
v -0.65854100 -0.05423020 -0.05423330
v -0.66115100 -0.04131070 -0.05680290
v 0.00000000 0.02581760 -0.11879400
v 0.00769690 0.02324250 -0.12008900
v 0.65084500 0.03779530 -0.06198480
v 0.66115100 -0.04649030 -0.05680290
v 0.65280100 -0.06198480 -0.05809840
v 0.64053900 -0.07231450 -0.05680290
v 0.61470800 -0.08780900 -0.04648170
v 0.61209900 -0.08910390 0.03874240
v 0.60427200 -0.09297390 0.03099090
v 0.10840900 -0.11253000 -0.03097870
v 0.10710400 -0.11253000 -0.03367580
v 0.08779680 -0.11253000 -0.07230590
v 0.08257860 -0.11253000 -0.08264840
v 0.06705430 -0.11253000 -0.09813020
v 0.06444520 -0.11253000 -0.09948930
v -0.60427200 -0.08780900 0.04131200
v -0.61470800 -0.08780900 0.03615150
v -0.10840900 -0.11253000 0.01548780
v -0.10462600 -0.11253000 0.02311190
v -0.09431960 -0.11253000 0.04377550
v -0.08779680 -0.11253000 0.05681510
v -0.08257860 -0.11253000 0.06713630
v -0.06705430 -0.11253000 0.08263930
v -0.05948790 -0.11253000 0.08646190
v -0.04918190 -0.11253000 0.09162250
v -0.04644230 -0.11253000 0.09298170
v 0.00000000 0.03098240 -0.10847300
v -0.00769690 0.02711250 -0.11622400
v -0.66115100 0.03779530 -0.05680290
v -0.65593200 -0.06714970 0.02580900
v -0.66636900 -0.04649030 -0.04648170
v 0.66115100 0.03779530 -0.05680290
v 0.66245500 -0.05423020 -0.05423330
v 0.65593200 -0.06714970 -0.04648170
v 0.64693100 -0.06972470 -0.05423330
v 0.61470800 -0.08780900 0.03099090
v 0.64301700 -0.07360940 0.03874240
v 0.65084500 -0.06391240 0.04260750
v 0.61979600 -0.07942170 0.04260750
v 0.60427200 -0.08780900 0.04131200
v 0.04644230 -0.11253000 0.09298170
v 0.05792240 -0.11253000 0.08724770
v 0.06705430 -0.11253000 0.08263930
v 0.08257860 -0.11253000 0.06713630
v 0.10358200 -0.11253000 0.02621250
v 0.10840900 -0.11253000 0.01548780
v -0.61209900 -0.08521930 0.04260750
v -0.64562600 -0.07231450 0.03615150
v -0.04644230 0.01548790 0.09298170
v -0.65084500 -0.04649030 0.04647260
v -0.63532000 -0.06198480 0.04647260
v -0.60427200 -0.07747940 0.04647260
v -0.66636900 0.03779530 -0.04648170
v -0.66115100 -0.05682000 0.03615150
v -0.66636900 -0.04649030 0.03099090
v 0.66636900 0.03779530 -0.04648170
v 0.66636900 -0.04649030 -0.04648170
v 0.65593200 -0.06714970 0.03099090
v 0.65084500 -0.04649030 0.04647260
v 0.63532000 -0.06198480 0.04647260
v 0.65854100 -0.05810010 0.03874240
v 0.66115100 -0.05165510 0.04131200
v 0.60427200 -0.07747940 0.04647260
v 0.04644230 0.01548790 0.09298170
v -0.64301700 -0.06972470 0.04260750
v -0.05153010 0.02581760 0.08779990
v -0.65084500 0.03779530 0.04647260
v -0.66115100 -0.04649030 0.04131200
v -0.65854100 -0.05423020 0.04260750
v -0.66636900 0.03779530 0.03099090
v 0.66636900 0.03779530 0.03099090
v 0.66636900 -0.04649030 0.03099090
v 0.65084500 0.03779530 0.04647260
v 0.66115100 0.03779530 0.04131200
v 0.04122410 0.02581760 0.08779990
v -0.04644230 0.03098240 0.07747870
v -0.66115100 0.03779530 0.04131200
v 0.04644230 0.03098240 0.07747870
f 38 70 71
f 37 70 38
f 37 69 70
f 37 68 69
f 37 66 67
f 38 71 72
f 36 87 65
f 37 65 87
f 37 87 66
f 37 67 68
f 38 72 73
f 26 106 96
f 38 74 75
f 45 76 46
f 45 55 76
f 46 76 94
f 46 94 77
f 55 78 96
f 55 96 79
f 55 79 80
f 36 63 87
f 55 80 81
f 55 81 76
f 38 73 74
f 36 65 37
f 26 103 100
f 35 64 63
f 26 96 102
f 55 70 93
f 26 102 103
f 26 100 85
f 26 85 61
f 26 61 32
f 26 32 56
f 27 59 83
f 27 83 84
f 27 84 60
f 35 63 36
f 27 60 28
f 29 60 82
f 29 82 58
f 30 57 56
f 30 56 32
f 30 32 31
f 33 61 62
f 33 62 34
f 34 63 64
f 34 64 35
f 34 62 63
f 28 60 29
f 55 93 78
f 95 105 96
f 60 84 99
f 79 106 97
f 79 97 98
f 79 98 94
f 79 94 80
f 83 98 84
f 84 98 97
f 84 97 106
f 84 106 99
f 85 100 101
f 85 101 86
f 87 101 91
f 87 91 90
f 88 91 103
f 88 103 102
f 91 101 100
f 91 100 103
f 93 102 104
f 95 104 107
f 95 107 105
f 96 105 107
f 96 107 102
f 102 107 104
f 26 99 106
f 79 96 106
f 59 77 83
f 78 104 95
f 78 95 96
f 60 99 82
f 61 85 62
f 62 85 86
f 62 86 63
f 63 86 101
f 63 101 87
f 66 87 67
f 67 88 89
f 67 89 68
f 67 87 90
f 67 90 91
f 67 91 88
f 68 89 92
f 68 92 69
f 69 92 70
f 70 92 89
f 70 89 88
f 70 88 102
f 70 102 93
f 76 81 80
f 76 80 94
f 77 94 98
f 77 98 83
f 78 93 104
f 26 82 99
f 1 41 40
f 26 57 30
f 1 55 54
f 1 53 52
f 1 52 51
f 1 51 50
f 1 50 49
f 1 49 48
f 1 48 47
f 1 47 23
f 1 23 22
f 1 22 21
f 1 70 55
f 1 21 20
f 1 19 15
f 1 15 2
f 2 15 3
f 3 16 46
f 3 46 17
f 3 17 18
f 3 18 4
f 3 15 19
f 3 19 20
f 3 20 21
f 1 20 19
f 1 71 70
f 1 72 71
f 1 73 72
f 26 58 82
f 1 2 3
f 1 3 4
f 1 4 5
f 1 5 6
f 1 6 7
f 1 7 26
f 1 26 8
f 1 8 32
f 1 32 9
f 1 9 10
f 1 10 11
f 1 11 12
f 1 12 13
f 1 13 14
f 1 14 44
f 1 44 43
f 1 43 42
f 1 42 41
f 1 40 39
f 1 39 75
f 1 75 74
f 1 74 73
f 3 21 22
f 3 22 23
f 1 54 53
f 3 47 16
f 13 75 39
f 13 39 40
f 13 40 41
f 13 41 42
f 13 42 43
f 13 43 44
f 13 44 14
f 16 45 46
f 16 47 48
f 16 48 49
f 16 49 50
f 16 50 51
f 16 51 52
f 16 52 53
f 16 53 54
f 16 54 55
f 16 55 45
f 17 46 77
f 17 77 59
f 17 59 27
f 3 23 47
f 18 27 25
f 26 56 57
f 13 38 75
f 13 37 38
f 17 27 18
f 12 36 13
f 13 36 37
f 4 18 24
f 4 6 5
f 6 25 7
f 6 24 18
f 6 18 25
f 7 25 27
f 7 27 28
f 7 28 29
f 7 29 58
f 7 58 26
f 4 24 6
f 8 31 32
f 8 26 30
f 9 32 61
f 9 61 33
f 9 33 34
f 9 34 10
f 10 34 35
f 10 35 12
f 10 12 11
f 12 35 36
f 8 30 31

