# https://github.com/mikedh/trimesh
v -0.01458940 -0.63507800 -0.13887900
v 0.00000000 -0.63507800 -0.13887900
v -0.03019340 -0.63507800 -0.13866200
v 0.00000000 -0.57590000 -0.12395200
v 0.01548320 -0.63507800 -0.13813000
v -0.07669120 -0.63507800 -0.12317900
v 0.04647360 -0.57590000 -0.10846800
v -0.04647360 -0.57590000 -0.10846800
v 0.06198100 -0.63507800 -0.12262300
v -0.06715010 -0.57590000 -0.09813020
v -0.10768200 -0.63507800 -0.09218810
v 0.05514520 -0.57590000 -0.10414500
v 0.06715010 -0.57590000 -0.09813020
v 0.10727100 -0.63507800 -0.07733300
v -0.08263320 -0.57590000 -0.08264700
v -0.12316500 -0.63507800 -0.06117350
v -0.10331000 -0.57590000 -0.04131830
v -0.09946910 -0.57590000 -0.04899950
v 0.08263320 -0.57590000 -0.08264700
v 0.12277800 -0.63507800 -0.04634250
v -0.12338200 -0.63507800 -0.04559370
v -0.10845500 -0.57590000 -0.03098010
v 0.10331000 -0.57590000 -0.04131830
v 0.12338200 -0.63507800 -0.03069030
v 0.10763300 -0.57590000 -0.03264680
v 0.10845500 -0.57590000 -0.03098010
v -0.12338200 -0.63507800 0.01549350
v -0.10845500 -0.57590000 0.01549350
v 0.12338200 -0.63507800 0.03039700
v 0.10845500 -0.57590000 0.01549350
v -0.12263300 -0.63507800 0.03097670
v -0.10331000 -0.57590000 0.02580760
v 0.12248800 -0.63507800 0.04498640
v 0.10331000 -0.57590000 0.02580760
v -0.10712600 -0.63507800 0.06196720
v -0.08347870 -0.57590000 0.06546960
v 0.10698100 -0.63507800 0.07600110
v 0.09045940 -0.57590000 0.05150820
v -0.09282650 -0.63507800 0.07629090
v -0.08263320 -0.57590000 0.06713630
v 0.07599070 -0.63507800 0.10699200
v 0.08263320 -0.57590000 0.06713630
v 0.06715010 -0.57590000 0.08264360
v -0.06183600 -0.63507800 0.10728100
v -0.06715010 -0.57590000 0.08264360
v 0.05681190 -0.57590000 0.08781270
v 0.04647360 -0.57590000 0.09295770
v 0.06137710 -0.63507800 0.10788500
v -0.04618380 -0.63507800 0.10788500
v -0.04647360 -0.57590000 0.09295770
v -0.04816450 -0.57590000 0.09213640
f 1 2 5
f 21 27 28
f 20 26 24
f 20 25 26
f 20 23 25
f 19 23 20
f 16 22 17
f 16 21 22
f 14 19 20
f 11 18 15
f 11 17 18
f 11 16 17
f 9 19 14
f 9 13 19
f 9 12 13
f 7 12 9
f 6 15 10
f 6 11 15
f 6 10 8
f 5 7 9
f 4 12 7
f 4 13 12
f 21 28 22
f 4 19 13
f 24 26 30
f 27 31 28
f 47 49 48
f 44 51 45
f 44 50 51
f 44 49 50
f 41 47 48
f 41 46 47
f 41 43 46
f 39 45 40
f 39 44 45
f 37 43 41
f 37 42 43
f 37 38 42
f 35 40 36
f 35 39 40
f 33 38 37
f 33 34 38
f 31 36 32
f 31 35 36
f 30 34 33
f 29 30 33
f 28 31 32
f 24 30 29
f 4 23 19
f 47 50 49
f 4 26 25
f 1 3 4
f 1 6 3
f 1 11 6
f 1 16 11
f 1 21 16
f 1 27 21
f 1 31 27
f 1 35 31
f 1 39 35
f 1 44 39
f 1 49 44
f 1 48 49
f 1 41 48
f 1 37 41
f 1 33 37
f 1 29 33
f 1 24 29
f 1 20 24
f 1 14 20
f 1 9 14
f 4 25 23
f 1 4 2
f 2 4 5
f 1 5 9
f 4 7 5
f 4 30 26
f 4 34 30
f 4 38 34
f 4 42 38
f 4 43 42
f 4 46 43
f 3 6 4
f 4 50 47
f 4 51 50
f 4 45 51
f 4 47 46
f 4 36 40
f 4 32 36
f 4 28 32
f 4 22 28
f 4 17 22
f 4 18 17
f 4 15 18
f 4 10 15
f 4 8 10
f 4 40 45
f 4 6 8

