o convex_0
v -0.0145894 -0.635078 -0.138879
v 0 -0.635078 -0.138879
v -0.0301934 -0.635078 -0.138662
v 0 -0.5759 -0.123952
v 0.0154832 -0.635078 -0.13813
v -0.0766912 -0.635078 -0.123179
v 0.0464736 -0.5759 -0.108468
v -0.0464736 -0.5759 -0.108468
v 0.061981 -0.635078 -0.122623
v -0.0671501 -0.5759 -0.0981302
v -0.107682 -0.635078 -0.0921881
v 0.0551452 -0.5759 -0.104145
v 0.0671501 -0.5759 -0.0981302
v 0.107271 -0.635078 -0.077333
v -0.0826332 -0.5759 -0.082647
v -0.123165 -0.635078 -0.0611735
v -0.10331 -0.5759 -0.0413183
v -0.0994691 -0.5759 -0.0489995
v 0.0826332 -0.5759 -0.082647
v 0.122778 -0.635078 -0.0463425
v -0.123382 -0.635078 -0.0455937
v -0.108455 -0.5759 -0.0309801
v 0.10331 -0.5759 -0.0413183
v 0.123382 -0.635078 -0.0306903
v 0.107633 -0.5759 -0.0326468
v 0.108455 -0.5759 -0.0309801
v -0.123382 -0.635078 0.0154935
v -0.108455 -0.5759 0.0154935
v 0.123382 -0.635078 0.030397
v 0.108455 -0.5759 0.0154935
v -0.122633 -0.635078 0.0309767
v -0.10331 -0.5759 0.0258076
v 0.122488 -0.635078 0.0449864
v 0.10331 -0.5759 0.0258076
v -0.107126 -0.635078 0.0619672
v -0.0834787 -0.5759 0.0654696
v 0.106981 -0.635078 0.0760011
v 0.0904594 -0.5759 0.0515082
v -0.0928265 -0.635078 0.0762909
v -0.0826332 -0.5759 0.0671363
v 0.0759907 -0.635078 0.106992
v 0.0826332 -0.5759 0.0671363
v 0.0671501 -0.5759 0.0826436
v -0.061836 -0.635078 0.107281
v -0.0671501 -0.5759 0.0826436
v 0.0568119 -0.5759 0.0878127
v 0.0464736 -0.5759 0.0929577
v 0.0613771 -0.635078 0.107885
v -0.0461838 -0.635078 0.107885
v -0.0464736 -0.5759 0.0929577
v -0.0481645 -0.5759 0.0921364
f 1 2 5
f 1 5 9
f 1 9 14
f 1 14 20
f 1 20 24
f 1 24 29
f 1 29 33
f 1 33 37
f 1 37 41
f 1 41 48
f 1 48 49
f 1 49 44
f 1 44 39
f 1 39 35
f 1 35 31
f 1 31 27
f 1 27 21
f 1 21 16
f 1 16 11
f 1 11 6
f 1 6 3
f 1 3 4
f 1 4 2
f 2 4 5
f 3 6 4
f 4 7 5
f 4 6 8
f 4 8 10
f 4 10 15
f 4 15 18
f 4 18 17
f 4 17 22
f 4 22 28
f 4 28 32
f 4 32 36
f 4 36 40
f 4 40 45
f 4 45 51
f 4 51 50
f 4 50 47
f 4 47 46
f 4 46 43
f 4 43 42
f 4 42 38
f 4 38 34
f 4 34 30
f 4 30 26
f 4 26 25
f 4 25 23
f 4 23 19
f 4 19 13
f 4 13 12
f 4 12 7
f 5 7 9
f 6 10 8
f 6 11 15
f 6 15 10
f 7 12 9
f 9 12 13
f 9 13 19
f 9 19 14
f 11 16 17
f 11 17 18
f 11 18 15
f 14 19 20
f 16 21 22
f 16 22 17
f 19 23 20
f 20 23 25
f 20 25 26
f 20 26 24
f 21 27 28
f 21 28 22
f 24 26 30
f 24 30 29
f 27 31 28
f 28 31 32
f 29 30 33
f 30 34 33
f 31 35 36
f 31 36 32
f 33 34 38
f 33 38 37
f 35 39 40
f 35 40 36
f 37 38 42
f 37 42 43
f 37 43 41
f 39 44 45
f 39 45 40
f 41 43 46
f 41 46 47
f 41 47 48
f 44 49 50
f 44 50 51
f 44 51 45
f 47 50 49
f 47 49 48
o convex_1
v 0 -0.697358 -0.526896
v -0.149763 -0.70769 -0.506163
v -0.154851 -0.697358 -0.51132
v 0 -0.650877 -0.526896
v 0.0153938 -0.697358 -0.526896
v 0.00508778 -0.70769 -0.521636
v -0.154851 -0.712852 -0.495848
v -0.227254 -0.70769 -0.49069
v -0.232342 -0.697358 -0.495848
v -0.154851 -0.650877 -0.51132
v 0 -0.640545 -0.521636
v 0.0232212 -0.643126 -0.522976
v 0.0153938 -0.650877 -0.526896
v -0.154851 -0.640545 -0.506163
v 0.154851 -0.697358 -0.51132
v 0.160069 -0.70769 -0.506163
v 0.020612 -0.70769 -0.521636
v 0 -0.712852 -0.51132
v -0.232342 -0.712852 -0.480375
v -0.278915 -0.712852 -0.464902
v -0.273697 -0.70769 -0.475218
v -0.253084 -0.702528 -0.485533
v -0.278915 -0.697358 -0.480375
v -0.232342 -0.650877 -0.495848
v -0.162679 -0.639251 -0.503584
v -0.0076969 -0.639251 -0.519057
v 0.0153938 -0.640545 -0.521636
v 0.162679 -0.643126 -0.507504
v 0.154851 -0.650877 -0.51132
v -0.232342 -0.640545 -0.49069
v 0.232342 -0.697358 -0.495848
v 0.23756 -0.70769 -0.49069
v 0.154851 -0.712852 -0.495848
v 0.0153938 -0.712852 -0.51132
v -0.325357 -0.712852 -0.449327
v -0.320269 -0.70769 -0.459642
v -0.299527 -0.702528 -0.47006
v -0.278915 -0.650877 -0.480375
v -0.325357 -0.697358 -0.464902
v -0.242778 -0.645707 -0.49069
v -0.154851 -0.635375 -0.495848
v 0 -0.635375 -0.51132
v -0.240169 -0.639251 -0.488111
v 0.0153938 -0.635375 -0.51132
v 0.154851 -0.640545 -0.506163
v 0.232342 -0.640545 -0.49069
v 0.240169 -0.643126 -0.491928
v 0.232342 -0.650877 -0.495848
v 0.278915 -0.697358 -0.480375
v 0.284003 -0.70769 -0.475218
v 0.278915 -0.712852 -0.464902
v 0.232342 -0.712852 -0.480375
v -0.356406 -0.712852 -0.433854
v -0.333184 -0.705109 -0.457063
v -0.325357 -0.650877 -0.464902
v -0.345969 -0.702528 -0.454484
v -0.408066 -0.702528 -0.423539
v -0.459727 -0.692196 -0.397751
v -0.289221 -0.645707 -0.475218
v -0.232342 -0.635375 -0.480375
v -0.0301353 -0.635078 -0.138635
v -0.0144806 -0.635078 -0.138841
v -0.286612 -0.639251 -0.472639
v -0.278915 -0.635375 -0.464902
v 0.0153938 -0.635078 -0.138119
v 0.154851 -0.635375 -0.495848
v 0 -0.635078 -0.138841
v 0.232342 -0.635375 -0.480375
v 0.278915 -0.640545 -0.475218
v 0.278915 -0.650877 -0.480375
v 0.333184 -0.643126 -0.460983
v 0.325357 -0.697358 -0.464902
v 0.330575 -0.70769 -0.459642
v 0.325357 -0.712852 -0.449327
v -0.418372 -0.712852 -0.402909
v -0.459727 -0.645707 -0.397751
v -0.366712 -0.645707 -0.444169
v -0.335663 -0.645707 -0.459642
v -0.457118 -0.705109 -0.395172
v -0.438984 -0.702528 -0.408066
v -0.500951 -0.702528 -0.377018
v -0.333184 -0.639251 -0.457063
v -0.0765776 -0.635078 -0.123163
v -0.325357 -0.635375 -0.449327
v 0.0619666 -0.635078 -0.122544
v 0.278915 -0.635375 -0.464902
v 0.325357 -0.640545 -0.459642
v 0.325357 -0.650877 -0.464902
v 0.340881 -0.639251 -0.451286
v 0.418372 -0.639251 -0.420341
v 0.410545 -0.643126 -0.430037
v 0.402848 -0.697358 -0.433854
v 0.408066 -0.70769 -0.428696
v 0.402848 -0.712852 -0.418381
v -0.480339 -0.712852 -0.37186
v -0.457118 -0.639251 -0.395172
v -0.500951 -0.656039 -0.377018
v -0.490645 -0.645707 -0.382175
v -0.493254 -0.710271 -0.369281
v -0.547523 -0.702528 -0.346072
v -0.356406 -0.635375 -0.433854
v -0.107626 -0.635078 -0.092114
v -0.418372 -0.635375 -0.402909
v -0.480339 -0.635375 -0.37186
v -0.526781 -0.635375 -0.340915
v -0.588878 -0.635375 -0.294393
v 0.107235 -0.635078 -0.0772602
v 0.588878 -0.635375 -0.294393
v 0.573354 -0.635375 -0.309866
v 0.511387 -0.635375 -0.356387
v 0.402848 -0.635375 -0.418381
v 0.325357 -0.635375 -0.449327
v 0.402848 -0.650877 -0.433854
v 0.526781 -0.639251 -0.358347
v 0.519084 -0.643126 -0.368043
v 0.42346 -0.650877 -0.423539
v 0.42346 -0.697358 -0.423539
v 0.420329 -0.708984 -0.418381
v 0.414458 -0.705109 -0.426118
v 0.522998 -0.705109 -0.364124
v 0.516475 -0.70769 -0.366702
v 0.511387 -0.712852 -0.356387
v -0.526781 -0.712852 -0.340915
v -0.488036 -0.639251 -0.379596
v -0.547523 -0.656039 -0.346072
v -0.537217 -0.645707 -0.35123
v -0.539696 -0.710271 -0.338336
v -0.588878 -0.712852 -0.294393
v -0.596575 -0.705109 -0.30213
v -0.599184 -0.692196 -0.304709
v -0.12315 -0.635078 -0.0611687
v -0.534608 -0.639251 -0.348651
v -0.596575 -0.639251 -0.30213
v -0.612099 -0.639251 -0.271184
v -0.627623 -0.639251 -0.240136
v -0.619796 -0.635375 -0.2324
v 0.122759 -0.635078 -0.0463149
v 0.619796 -0.635375 -0.2324
v 0.614708 -0.640545 -0.268606
v 0.599184 -0.640545 -0.299551
v 0.588878 -0.639251 -0.311826
v 0.581051 -0.643126 -0.321522
v 0.531999 -0.650877 -0.361545
v 0.531999 -0.697358 -0.361545
v 0.528738 -0.708984 -0.356387
v 0.584964 -0.705109 -0.317602
v 0.573354 -0.712852 -0.309866
v -0.599184 -0.645707 -0.304709
v -0.619796 -0.712852 -0.2324
v -0.601793 -0.710271 -0.276342
v -0.60949 -0.702528 -0.284078
v -0.614708 -0.692196 -0.273763
v -0.123281 -0.635078 -0.0455928
v -0.63532 -0.635375 -0.185878
v -0.650845 -0.635375 -0.108412
v -0.614708 -0.645707 -0.273763
v -0.630102 -0.645707 -0.242715
v -0.645626 -0.645707 -0.196194
v -0.643017 -0.639251 -0.193615
v 0.123281 -0.635078 -0.0306359
v 0.650845 -0.635375 -0.123885
v 0.63532 -0.635375 -0.185878
v 0.630102 -0.640545 -0.237557
v 0.614708 -0.650877 -0.273763
v 0.596575 -0.643126 -0.30605
v 0.627623 -0.643126 -0.244056
v 0.593966 -0.650877 -0.315024
v 0.593966 -0.697358 -0.315024
v 0.590704 -0.708984 -0.309866
v 0.588878 -0.712852 -0.294393
v -0.63532 -0.712852 -0.185878
v -0.630102 -0.70769 -0.227242
v -0.627623 -0.705109 -0.240136
v -0.612099 -0.705109 -0.271184
v -0.625014 -0.702528 -0.25303
v -0.63532 -0.697358 -0.2324
v -0.123281 -0.635078 0.0154727
v -0.658541 -0.639251 -0.116148
v -0.661151 -0.640545 -0.108412
v -0.650845 -0.635375 0.108412
v -0.63532 -0.650877 -0.2324
v -0.650845 -0.650877 -0.185878
v -0.645626 -0.640545 -0.185878
v 0.123281 -0.635078 0.0303264
v 0.650845 -0.635375 0.0929392
v 0.661151 -0.640545 -0.129042
v 0.645626 -0.640545 -0.191036
v 0.63532 -0.650877 -0.2324
v 0.614708 -0.697358 -0.273763
v 0.600489 -0.705109 -0.30213
v 0.599184 -0.650877 -0.304709
v 0.606229 -0.708984 -0.278921
v 0.621753 -0.708984 -0.247872
v 0.619796 -0.712852 -0.2324
v -0.645626 -0.70769 -0.180721
v -0.650845 -0.712852 -0.108412
v -0.640539 -0.702528 -0.206612
v -0.650845 -0.697358 -0.185878
v -0.122629 -0.635078 0.0309454
v -0.666369 -0.650877 -0.108412
v -0.662455 -0.643126 0.116148
v -0.661151 -0.640545 0.108412
v -0.63532 -0.635375 0.170406
v 0.122368 -0.635078 0.0449739
v 0.661151 -0.640545 0.0877817
v 0.63532 -0.635375 0.170406
v 0.666369 -0.650877 -0.123885
v 0.650845 -0.650877 -0.185878
v 0.63532 -0.697358 -0.2324
v 0.631407 -0.705109 -0.240136
v 0.630102 -0.70769 -0.2324
v 0.63532 -0.712852 -0.185878
v -0.661151 -0.70769 -0.103254
v -0.650845 -0.712852 0.108412
v -0.666369 -0.697358 -0.108412
v -0.107104 -0.635078 0.0618907
v -0.588878 -0.635375 0.294393
v -0.666369 -0.650877 0.108412
v -0.646931 -0.643126 0.178142
v -0.645626 -0.640545 0.170406
v -0.637277 -0.639251 0.185878
v 0.106974 -0.635078 0.0759193
v 0.619796 -0.635375 0.216927
v 0.666369 -0.650877 0.0929392
v 0.645626 -0.640545 0.165248
v 0.666369 -0.697358 -0.123885
v 0.650845 -0.697358 -0.185878
v 0.646931 -0.705109 -0.193615
v 0.645626 -0.70769 -0.185878
v 0.650845 -0.712852 -0.123885
v -0.661151 -0.70769 0.113569
v -0.63532 -0.712852 0.170406
v -0.666369 -0.697358 0.108412
v -0.0915801 -0.635078 0.0774665
v -0.55783 -0.635375 0.340915
v -0.599184 -0.640545 0.294393
v -0.590704 -0.639251 0.309866
v -0.650845 -0.650877 0.170406
v -0.600489 -0.643126 0.30213
v 0.0914496 -0.635078 0.0914951
v 0.55783 -0.635375 0.340915
v 0.588878 -0.635375 0.278921
v 0.627623 -0.643126 0.224663
v 0.630102 -0.640545 0.211769
v 0.666369 -0.697358 0.0929392
v 0.650845 -0.650877 0.170406
v 0.640539 -0.645707 0.191036
v 0.662455 -0.705109 -0.131724
v 0.661151 -0.70769 -0.123885
v 0.650845 -0.712852 0.0929392
v -0.645626 -0.70769 0.175563
v -0.588878 -0.712852 0.294393
v -0.650845 -0.697358 0.170406
v -0.0618361 -0.635078 0.107277
v -0.563048 -0.640545 0.35123
v -0.49782 -0.639251 0.387333
v -0.480339 -0.635375 0.387333
v -0.56944 -0.643126 0.348651
v -0.604272 -0.650877 0.294393
v -0.604272 -0.697358 0.294393
v -0.599184 -0.697358 0.304709
v -0.593966 -0.650877 0.315024
v 0.0759253 -0.635078 0.106968
v 0.542305 -0.635375 0.356387
v 0.55522 -0.637964 0.353809
v 0.563048 -0.645707 0.361545
v 0.625014 -0.645707 0.237557
v 0.63532 -0.650877 0.216927
v 0.650845 -0.697358 0.170406
v 0.661151 -0.70769 0.0929392
v 0.658541 -0.708984 0.100676
v 0.63532 -0.712852 0.170406
v -0.599184 -0.70769 0.299551
v -0.588878 -0.708984 0.311826
v -0.55783 -0.712852 0.340915
v -0.0153938 -0.635375 0.51132
v -0.0461814 -0.635078 0.107793
v -0.44929 -0.635375 0.402909
v -0.418372 -0.635375 0.418381
v -0.340881 -0.635375 0.449327
v -0.294439 -0.635375 0.464902
v -0.170375 -0.635375 0.495848
v -0.485557 -0.640545 0.397751
v -0.568136 -0.650877 0.35123
v -0.500951 -0.650877 0.39249
v -0.491949 -0.643126 0.395172
v -0.596575 -0.705109 0.30605
v -0.593966 -0.697358 0.315024
v 0.0613143 -0.635078 0.107793
v 0.0153938 -0.635375 0.51132
v 0.1859 -0.635375 0.495848
v 0.309833 -0.635375 0.464902
v 0.356406 -0.635375 0.449327
v 0.464814 -0.635375 0.402909
v 0.47773 -0.637964 0.40033
v 0.485557 -0.645707 0.408066
v 0.563048 -0.692196 0.361545
v 0.614708 -0.656039 0.258187
v 0.63532 -0.697358 0.216927
v 0.645626 -0.702528 0.180721
v 0.645626 -0.70769 0.170406
v 0.643017 -0.708984 0.178142
v 0.627623 -0.708984 0.224663
v 0.619796 -0.712852 0.216927
v -0.568136 -0.70769 0.346072
v -0.480339 -0.712852 0.387333
v -0.495863 -0.708984 0.389293
v -0.020612 -0.640545 0.521636
v -0.42346 -0.640545 0.428696
v -0.345969 -0.640545 0.459642
v -0.299527 -0.640545 0.475218
v -0.175594 -0.640545 0.506163
v -0.490645 -0.650877 0.397751
v -0.459727 -0.650877 0.413224
v -0.461031 -0.643126 0.410645
v -0.568136 -0.697358 0.35123
v -0.500951 -0.697358 0.39249
v -0.565526 -0.705109 0.352468
v 0.010306 -0.640545 0.521636
v 0.180681 -0.640545 0.506163
v 0.242778 -0.640545 0.49069
v 0.304745 -0.640545 0.475218
v 0.351187 -0.640545 0.459642
v 0.459727 -0.640545 0.413224
v 0.485557 -0.692196 0.408066
v 0.377018 -0.645707 0.454484
v 0.356406 -0.650877 0.464902
v 0.464814 -0.650877 0.418381
v 0.552611 -0.702528 0.366702
v 0.568136 -0.702528 0.35123
v 0.573354 -0.697358 0.340915
v 0.599184 -0.702528 0.289236
v 0.614708 -0.702528 0.258187
v 0.630102 -0.702528 0.227242
v 0.588878 -0.712852 0.278921
v 0.565526 -0.708984 0.348651
v -0.44929 -0.712852 0.402909
v -0.488036 -0.705109 0.398989
v -0.433896 -0.708984 0.420341
v -0.0153938 -0.650877 0.526896
v -0.429983 -0.643126 0.426118
v -0.418372 -0.650877 0.433854
v -0.340881 -0.650877 0.464902
v -0.294439 -0.650877 0.480375
v -0.170375 -0.650877 0.51132
v -0.490645 -0.697358 0.397751
v -0.459727 -0.697358 0.413224
v -0.426069 -0.705109 0.430037
v 0.0153938 -0.650877 0.526896
v 0.1859 -0.650877 0.51132
v 0.309833 -0.650877 0.480375
v 0.330575 -0.645707 0.47006
v 0.464814 -0.697358 0.418381
v 0.47512 -0.702528 0.413224
v 0.356406 -0.697358 0.464902
v 0.550133 -0.708984 0.364124
v 0.55783 -0.712852 0.340915
v -0.418372 -0.712852 0.418381
v -0.356406 -0.708984 0.451286
v -0.0153938 -0.697358 0.526896
v -0.418372 -0.697358 0.433854
v -0.340881 -0.697358 0.464902
v -0.294439 -0.697358 0.480375
v -0.170375 -0.697358 0.51132
v -0.348578 -0.705109 0.460983
v 0.0153938 -0.697358 0.526896
v 0.1859 -0.697358 0.51132
v 0.309833 -0.697358 0.480375
v 0.366712 -0.702528 0.459642
v 0.472642 -0.708984 0.410645
v 0.320269 -0.702528 0.475218
v 0.542305 -0.712852 0.356387
v -0.340881 -0.712852 0.449327
v -0.340881 -0.70769 0.459642
v -0.178203 -0.705109 0.507504
v -0.0232212 -0.705109 0.522976
v -0.302136 -0.705109 0.476455
v -0.294439 -0.70769 0.475218
v 0.0153938 -0.70769 0.521636
v 0.1859 -0.70769 0.506163
v 0.255694 -0.708984 0.488111
v 0.364102 -0.708984 0.457063
v 0.356406 -0.712852 0.449327
v 0.464814 -0.712852 0.402909
v 0.31766 -0.708984 0.472639
v -0.294439 -0.712852 0.464902
v -0.170375 -0.70769 0.506163
v -0.0153938 -0.70769 0.521636
v 0.0232212 -0.708984 0.519057
v 0.193597 -0.708984 0.503584
v 0.1859 -0.712852 0.495848
v 0.309833 -0.712852 0.464902
v -0.170375 -0.712852 0.495848
v -0.0153938 -0.712852 0.51132
v 0.0153938 -0.712852 0.51132
f 52 53 54
f 52 54 61
f 52 61 55
f 52 55 64
f 52 64 56
f 52 56 68
f 52 68 57
f 52 57 53
f 53 58 70
f 53 70 59
f 53 59 60
f 53 60 54
f 53 57 69
f 53 69 58
f 54 60 75
f 54 75 61
f 55 62 63
f 55 63 64
f 55 61 65
f 55 65 62
f 56 64 80
f 56 80 66
f 56 66 67
f 56 67 68
f 57 68 85
f 57 85 69
f 58 69 85
f 58 85 84
f 58 84 103
f 58 103 102
f 58 102 125
f 58 125 145
f 58 145 173
f 58 173 198
f 58 198 221
f 58 221 245
f 58 245 263
f 58 263 281
f 58 281 301
f 58 301 323
f 58 323 355
f 58 355 386
f 58 386 408
f 58 408 423
f 58 423 435
f 58 435 434
f 58 434 443
f 58 443 442
f 58 442 446
f 58 446 445
f 58 445 444
f 58 444 437
f 58 437 424
f 58 424 409
f 58 409 388
f 58 388 357
f 58 357 326
f 58 326 303
f 58 303 283
f 58 283 265
f 58 265 247
f 58 247 222
f 58 222 200
f 58 200 179
f 58 179 174
f 58 174 146
f 58 146 126
f 58 126 104
f 58 104 86
f 58 86 71
f 58 71 70
f 59 70 71
f 59 71 72
f 59 72 88
f 59 88 73
f 59 73 60
f 60 73 74
f 60 74 89
f 60 89 75
f 61 75 81
f 61 81 65
f 62 65 76
f 62 76 77
f 62 77 78
f 62 78 63
f 63 78 96
f 63 96 79
f 63 79 64
f 64 79 80
f 65 81 94
f 65 94 76
f 66 80 99
f 66 99 82
f 66 82 83
f 66 83 67
f 67 83 103
f 67 103 84
f 67 84 85
f 67 85 68
f 71 86 87
f 71 87 72
f 72 87 105
f 72 105 88
f 73 88 90
f 73 90 74
f 74 90 106
f 74 106 89
f 75 89 91
f 75 91 94
f 75 94 81
f 76 92 93
f 76 93 77
f 76 94 111
f 76 111 92
f 77 93 95
f 77 95 78
f 78 95 117
f 78 117 96
f 79 97 98
f 79 98 99
f 79 99 80
f 79 96 97
f 82 99 121
f 82 121 100
f 82 100 83
f 83 100 123
f 83 123 101
f 83 101 102
f 83 102 103
f 86 104 87
f 87 104 126
f 87 126 130
f 87 130 108
f 87 108 105
f 88 105 90
f 89 106 110
f 89 110 91
f 90 105 107
f 90 107 108
f 90 108 109
f 90 109 127
f 90 127 106
f 91 110 114
f 91 114 94
f 92 111 112
f 92 112 93
f 93 112 113
f 93 113 118
f 93 118 95
f 94 114 115
f 94 115 111
f 95 116 117
f 95 118 116
f 96 117 119
f 96 119 97
f 97 119 137
f 97 137 120
f 97 120 98
f 98 121 99
f 98 120 122
f 98 122 121
f 100 121 139
f 100 139 123
f 101 123 124
f 101 124 102
f 102 124 125
f 105 108 107
f 106 127 128
f 106 128 129
f 106 129 110
f 108 130 131
f 108 131 109
f 109 131 132
f 109 132 148
f 109 148 127
f 110 129 133
f 110 133 114
f 111 115 112
f 112 134 153
f 112 153 182
f 112 182 204
f 112 204 228
f 112 228 250
f 112 250 267
f 112 267 285
f 112 285 305
f 112 305 328
f 112 328 340
f 112 340 314
f 112 314 291
f 112 291 273
f 112 273 255
f 112 255 235
f 112 235 211
f 112 211 188
f 112 188 158
f 112 158 136
f 112 136 116
f 112 116 118
f 112 118 113
f 112 115 134
f 114 133 115
f 115 133 135
f 115 135 134
f 116 136 137
f 116 137 119
f 116 119 117
f 120 137 163
f 120 163 138
f 120 138 122
f 121 122 139
f 122 138 140
f 122 140 141
f 122 141 142
f 122 142 139
f 123 139 164
f 123 164 143
f 123 143 144
f 123 144 124
f 124 144 145
f 124 145 125
f 126 146 150
f 126 150 130
f 127 147 133
f 127 133 128
f 127 148 149
f 127 149 175
f 127 175 147
f 128 133 129
f 130 150 132
f 130 132 131
f 132 150 151
f 132 151 176
f 132 176 148
f 133 147 154
f 133 154 152
f 133 152 135
f 134 135 152
f 134 152 154
f 134 154 155
f 134 155 156
f 134 156 157
f 134 157 153
f 136 158 159
f 136 159 160
f 136 160 161
f 136 161 162
f 136 162 163
f 136 163 137
f 138 163 140
f 139 142 164
f 140 163 162
f 140 162 141
f 141 162 161
f 141 161 165
f 141 165 166
f 141 166 142
f 142 167 168
f 142 168 143
f 142 143 164
f 142 166 194
f 142 194 167
f 143 168 144
f 144 169 145
f 144 168 170
f 144 170 171
f 144 171 172
f 144 172 196
f 144 196 169
f 145 169 173
f 146 174 178
f 146 178 150
f 147 175 155
f 147 155 154
f 148 176 177
f 148 177 149
f 149 177 183
f 149 183 175
f 150 178 151
f 151 178 179
f 151 179 180
f 151 180 181
f 151 181 199
f 151 199 176
f 153 157 182
f 155 175 183
f 155 183 156
f 156 183 157
f 157 184 185
f 157 185 186
f 157 186 187
f 157 187 182
f 157 183 184
f 158 188 159
f 159 189 190
f 159 190 191
f 159 191 192
f 159 192 160
f 159 188 189
f 160 192 161
f 161 192 165
f 165 192 166
f 166 192 193
f 166 193 218
f 166 218 194
f 167 194 195
f 167 195 168
f 168 195 171
f 168 171 170
f 169 196 173
f 171 195 219
f 171 219 197
f 171 197 220
f 171 220 196
f 171 196 172
f 173 196 220
f 173 220 198
f 174 179 178
f 176 199 177
f 177 199 184
f 177 184 183
f 179 200 201
f 179 201 225
f 179 225 202
f 179 202 180
f 180 202 181
f 181 202 203
f 181 203 207
f 181 207 199
f 182 187 205
f 182 205 206
f 182 206 204
f 184 199 207
f 184 207 185
f 185 207 186
f 186 208 209
f 186 209 210
f 186 210 205
f 186 205 187
f 186 207 208
f 188 211 212
f 188 212 213
f 188 213 189
f 189 213 238
f 189 238 214
f 189 214 190
f 190 215 216
f 190 216 191
f 190 214 217
f 190 217 215
f 191 216 192
f 192 216 218
f 192 218 193
f 194 218 219
f 194 219 195
f 197 219 220
f 198 220 221
f 200 222 246
f 200 246 223
f 200 223 224
f 200 224 201
f 201 224 225
f 202 225 224
f 202 224 226
f 202 226 203
f 203 226 227
f 203 227 232
f 203 232 207
f 204 206 231
f 204 231 228
f 205 210 229
f 205 229 206
f 206 229 230
f 206 230 253
f 206 253 231
f 207 232 208
f 208 232 233
f 208 233 209
f 209 233 234
f 209 234 210
f 210 234 230
f 210 230 229
f 211 235 236
f 211 236 212
f 212 236 256
f 212 256 237
f 212 237 238
f 212 238 213
f 214 238 259
f 214 259 239
f 214 239 217
f 215 240 241
f 215 241 242
f 215 242 216
f 215 217 239
f 215 239 260
f 215 260 240
f 216 242 218
f 218 242 241
f 218 241 219
f 219 241 220
f 220 241 243
f 220 243 221
f 221 243 244
f 221 244 245
f 222 247 264
f 222 264 246
f 223 246 224
f 224 246 248
f 224 248 226
f 226 248 227
f 227 248 249
f 227 249 233
f 227 233 232
f 228 231 250
f 230 251 252
f 230 252 253
f 230 234 233
f 230 233 251
f 231 253 271
f 231 271 254
f 231 254 250
f 233 249 266
f 233 266 251
f 235 255 236
f 236 255 257
f 236 257 276
f 236 276 256
f 237 256 275
f 237 275 258
f 237 258 259
f 237 259 238
f 239 259 278
f 239 278 260
f 240 260 261
f 240 261 241
f 241 261 244
f 241 244 243
f 244 261 262
f 244 262 245
f 245 262 280
f 245 280 263
f 246 264 266
f 246 266 249
f 246 249 248
f 247 265 282
f 247 282 264
f 250 254 268
f 250 268 267
f 251 266 284
f 251 284 269
f 251 269 252
f 252 269 289
f 252 289 270
f 252 270 271
f 252 271 253
f 254 271 272
f 254 272 268
f 255 273 274
f 255 274 257
f 256 276 297
f 256 297 275
f 257 274 295
f 257 295 276
f 258 275 296
f 258 296 277
f 258 277 278
f 258 278 259
f 260 278 279
f 260 279 261
f 261 279 280
f 261 280 262
f 263 280 300
f 263 300 281
f 264 282 284
f 264 284 266
f 265 283 302
f 265 302 282
f 267 268 286
f 267 286 285
f 268 272 287
f 268 287 288
f 268 288 286
f 269 284 304
f 269 304 289
f 270 289 290
f 270 290 287
f 270 287 271
f 271 287 272
f 273 291 292
f 273 292 293
f 273 293 274
f 274 294 295
f 274 293 294
f 275 297 320
f 275 320 296
f 276 295 294
f 276 294 298
f 276 298 297
f 277 299 278
f 277 296 299
f 278 299 279
f 279 299 280
f 280 299 300
f 281 300 321
f 281 321 301
f 282 302 304
f 282 304 284
f 283 303 324
f 283 324 302
f 285 286 305
f 286 306 307
f 286 307 308
f 286 308 305
f 286 288 306
f 287 290 288
f 288 290 309
f 288 309 306
f 289 304 311
f 289 311 310
f 289 310 290
f 290 310 311
f 290 311 312
f 290 312 339
f 290 339 313
f 290 313 309
f 291 314 315
f 291 315 292
f 292 315 316
f 292 316 317
f 292 317 293
f 293 317 294
f 294 318 319
f 294 319 297
f 294 297 298
f 294 317 318
f 296 320 352
f 296 352 321
f 296 321 299
f 297 319 350
f 297 350 320
f 299 321 300
f 301 321 322
f 301 322 353
f 301 353 323
f 302 324 304
f 303 325 324
f 303 326 325
f 304 324 311
f 305 327 328
f 305 308 329
f 305 329 330
f 305 330 331
f 305 331 332
f 305 332 333
f 305 333 327
f 306 309 337
f 306 337 334
f 306 334 307
f 307 334 308
f 308 334 329
f 309 335 336
f 309 336 337
f 309 313 335
f 311 324 312
f 312 324 338
f 312 338 339
f 313 339 367
f 313 367 335
f 314 340 341
f 314 341 342
f 314 342 343
f 314 343 344
f 314 344 345
f 314 345 315
f 315 345 346
f 315 346 316
f 316 346 347
f 316 347 317
f 317 347 376
f 317 376 348
f 317 348 384
f 317 384 349
f 317 349 318
f 318 349 384
f 318 384 350
f 318 350 319
f 320 350 385
f 320 385 351
f 320 351 353
f 320 353 352
f 321 352 353
f 321 353 322
f 323 353 354
f 323 354 355
f 324 325 356
f 324 356 338
f 325 326 356
f 326 357 358
f 326 358 356
f 327 333 363
f 327 363 359
f 327 359 370
f 327 370 341
f 327 341 340
f 327 340 328
f 329 334 330
f 330 360 361
f 330 361 331
f 330 334 360
f 331 361 362
f 331 362 332
f 332 362 363
f 332 363 333
f 334 337 364
f 334 364 365
f 334 365 366
f 334 366 392
f 334 392 360
f 335 367 368
f 335 368 336
f 336 368 397
f 336 397 364
f 336 364 337
f 338 356 369
f 338 369 339
f 339 369 367
f 341 370 342
f 342 370 371
f 342 371 372
f 342 372 373
f 342 373 343
f 343 373 344
f 344 373 374
f 344 374 375
f 344 375 345
f 345 375 347
f 345 347 346
f 347 375 374
f 347 374 377
f 347 377 378
f 347 378 379
f 347 379 404
f 347 404 376
f 348 376 405
f 348 405 380
f 348 380 381
f 348 381 382
f 348 382 383
f 348 383 384
f 350 384 385
f 351 385 354
f 351 354 353
f 354 386 355
f 354 385 384
f 354 384 383
f 354 383 381
f 354 381 387
f 354 387 408
f 354 408 386
f 356 358 369
f 357 388 358
f 358 389 369
f 358 388 390
f 358 390 399
f 358 399 389
f 359 363 391
f 359 391 400
f 359 400 370
f 360 392 393
f 360 393 394
f 360 394 361
f 361 394 362
f 362 395 363
f 362 394 395
f 363 395 396
f 363 396 391
f 364 397 398
f 364 398 365
f 365 398 399
f 365 399 393
f 365 393 366
f 366 393 392
f 367 369 368
f 368 369 389
f 368 389 397
f 370 400 371
f 371 401 372
f 371 400 401
f 372 401 402
f 372 402 373
f 373 402 403
f 373 403 377
f 373 377 374
f 376 404 405
f 377 403 378
f 378 406 404
f 378 404 379
f 378 403 402
f 378 402 419
f 378 419 406
f 380 407 381
f 380 405 421
f 380 421 407
f 381 407 387
f 381 383 382
f 387 407 408
f 388 409 390
f 389 399 397
f 390 409 424
f 390 424 410
f 390 410 416
f 390 416 399
f 391 396 415
f 391 415 411
f 391 411 417
f 391 417 400
f 393 399 412
f 393 412 413
f 393 413 394
f 394 413 414
f 394 414 395
f 395 414 415
f 395 415 396
f 397 399 398
f 399 416 413
f 399 413 412
f 400 417 418
f 400 418 401
f 401 418 419
f 401 419 402
f 404 406 405
f 405 406 420
f 405 420 421
f 406 419 422
f 406 422 420
f 407 423 408
f 407 421 435
f 407 435 423
f 410 424 425
f 410 425 416
f 411 415 426
f 411 426 427
f 411 427 417
f 413 416 428
f 413 428 414
f 414 428 426
f 414 426 415
f 416 425 429
f 416 429 428
f 417 427 430
f 417 430 431
f 417 431 418
f 418 431 432
f 418 432 422
f 418 422 419
f 420 422 436
f 420 436 433
f 420 433 421
f 421 433 434
f 421 434 435
f 422 432 436
f 424 437 429
f 424 429 425
f 426 438 439
f 426 439 427
f 426 428 429
f 426 429 438
f 427 439 430
f 429 437 444
f 429 444 438
f 430 440 431
f 430 439 440
f 431 441 432
f 431 440 441
f 432 441 442
f 432 442 443
f 432 443 436
f 433 436 434
f 434 436 443
f 438 444 445
f 438 445 439
f 439 445 440
f 440 446 442
f 440 442 441
f 440 445 446
o convex_2
v 0 -0.11253 -0.123976
v -0.0464423 -0.11253 -0.108473
v -0.604272 -0.0929739 -0.0464817
v -0.599184 -0.087809 -0.0568029
v -0.604272 -0.0774794 -0.0619848
v -0.63532 -0.0619848 -0.0619848
v -0.650845 -0.0464903 -0.0619848
v 0 0.0154879 -0.123976
v 0.650845 -0.0464903 -0.0619848
v 0.63532 -0.0619848 -0.0619848
v 0.604272 -0.0774794 -0.0619848
v 0.60949 -0.087809 -0.0568029
v 0.604272 -0.0929739 -0.0464817
v 0.0464423 -0.11253 -0.108473
v -0.0660107 -0.11253 -0.0987036
v -0.604272 -0.0929739 0.0309909
v -0.614708 -0.087809 -0.0413212
v -0.625014 -0.0826442 -0.0516423
v -0.0670543 -0.11253 -0.0981302
v -0.0824481 -0.11253 -0.0823298
v -0.0831004 -0.11253 -0.0815228
v -0.0983638 -0.11253 -0.0518759
v -0.108409 -0.11253 -0.0309787
v -0.612099 -0.0852193 -0.0542333
v -0.648235 -0.059395 -0.0593938
v -0.650845 0.0377953 -0.0619848
v -0.655932 -0.0671497 -0.0516423
v -0.658541 -0.0542302 -0.0542333
v -0.661151 -0.0413107 -0.0568029
v 0 0.0258176 -0.118794
v 0.0076969 0.0232425 -0.120089
v 0.650845 0.0377953 -0.0619848
v 0.661151 -0.0464903 -0.0568029
v 0.652801 -0.0619848 -0.0580984
v 0.640539 -0.0723145 -0.0568029
v 0.614708 -0.087809 -0.0464817
v 0.612099 -0.0891039 0.0387424
v 0.604272 -0.0929739 0.0309909
v 0.108409 -0.11253 -0.0309787
v 0.107104 -0.11253 -0.0336758
v 0.0877968 -0.11253 -0.0723059
v 0.0825786 -0.11253 -0.0826484
v 0.0670543 -0.11253 -0.0981302
v 0.0644452 -0.11253 -0.0994893
v -0.604272 -0.087809 0.041312
v -0.614708 -0.087809 0.0361515
v -0.108409 -0.11253 0.0154878
v -0.104626 -0.11253 0.0231119
v -0.0943196 -0.11253 0.0437755
v -0.0877968 -0.11253 0.0568151
v -0.0825786 -0.11253 0.0671363
v -0.0670543 -0.11253 0.0826393
v -0.0594879 -0.11253 0.0864619
v -0.0491819 -0.11253 0.0916225
v -0.0464423 -0.11253 0.0929817
v 0 0.0309824 -0.108473
v -0.0076969 0.0271125 -0.116224
v -0.661151 0.0377953 -0.0568029
v -0.655932 -0.0671497 0.025809
v -0.666369 -0.0464903 -0.0464817
v 0.661151 0.0377953 -0.0568029
v 0.662455 -0.0542302 -0.0542333
v 0.655932 -0.0671497 -0.0464817
v 0.646931 -0.0697247 -0.0542333
v 0.614708 -0.087809 0.0309909
v 0.643017 -0.0736094 0.0387424
v 0.650845 -0.0639124 0.0426075
v 0.619796 -0.0794217 0.0426075
v 0.604272 -0.087809 0.041312
v 0.0464423 -0.11253 0.0929817
v 0.0579224 -0.11253 0.0872477
v 0.0670543 -0.11253 0.0826393
v 0.0825786 -0.11253 0.0671363
v 0.103582 -0.11253 0.0262125
v 0.108409 -0.11253 0.0154878
v -0.612099 -0.0852193 0.0426075
v -0.645626 -0.0723145 0.0361515
v -0.0464423 0.0154879 0.0929817
v -0.650845 -0.0464903 0.0464726
v -0.63532 -0.0619848 0.0464726
v -0.604272 -0.0774794 0.0464726
v -0.666369 0.0377953 -0.0464817
v -0.661151 -0.05682 0.0361515
v -0.666369 -0.0464903 0.0309909
v 0.666369 0.0377953 -0.0464817
v 0.666369 -0.0464903 -0.0464817
v 0.655932 -0.0671497 0.0309909
v 0.650845 -0.0464903 0.0464726
v 0.63532 -0.0619848 0.0464726
v 0.658541 -0.0581001 0.0387424
v 0.661151 -0.0516551 0.041312
v 0.604272 -0.0774794 0.0464726
v 0.0464423 0.0154879 0.0929817
v -0.643017 -0.0697247 0.0426075
v -0.0515301 0.0258176 0.0877999
v -0.650845 0.0377953 0.0464726
v -0.661151 -0.0464903 0.041312
v -0.658541 -0.0542302 0.0426075
v -0.666369 0.0377953 0.0309909
v 0.666369 0.0377953 0.0309909
v 0.666369 -0.0464903 0.0309909
v 0.650845 0.0377953 0.0464726
v 0.661151 0.0377953 0.041312
v 0.0412241 0.0258176 0.0877999
v -0.0464423 0.0309824 0.0774787
v -0.661151 0.0377953 0.041312
v 0.0464423 0.0309824 0.0774787
f 447 448 449
f 447 449 450
f 447 450 451
f 447 451 452
f 447 452 453
f 447 453 472
f 447 472 454
f 447 454 478
f 447 478 455
f 447 455 456
f 447 456 457
f 447 457 458
f 447 458 459
f 447 459 460
f 447 460 490
f 447 490 489
f 447 489 488
f 447 488 487
f 447 487 486
f 447 486 485
f 447 485 521
f 447 521 520
f 447 520 519
f 447 519 518
f 447 518 517
f 447 517 516
f 447 516 501
f 447 501 500
f 447 500 499
f 447 499 498
f 447 498 497
f 447 497 496
f 447 496 495
f 447 495 494
f 447 494 493
f 447 493 469
f 447 469 468
f 447 468 467
f 447 467 466
f 447 466 465
f 447 465 461
f 447 461 448
f 448 461 449
f 449 462 492
f 449 492 463
f 449 463 464
f 449 464 450
f 449 461 465
f 449 465 466
f 449 466 467
f 449 467 468
f 449 468 469
f 449 469 493
f 449 493 462
f 450 464 470
f 450 470 452
f 450 452 451
f 452 471 453
f 452 470 464
f 452 464 471
f 453 471 473
f 453 473 474
f 453 474 475
f 453 475 504
f 453 504 472
f 454 476 477
f 454 477 478
f 454 472 476
f 455 478 507
f 455 507 479
f 455 479 480
f 455 480 456
f 456 480 481
f 456 481 458
f 456 458 457
f 458 481 482
f 458 482 459
f 459 482 483
f 459 483 484
f 459 484 521
f 459 521 485
f 459 485 486
f 459 486 487
f 459 487 488
f 459 488 489
f 459 489 490
f 459 490 460
f 462 491 492
f 462 493 494
f 462 494 495
f 462 495 496
f 462 496 497
f 462 497 498
f 462 498 499
f 462 499 500
f 462 500 501
f 462 501 491
f 463 492 523
f 463 523 505
f 463 505 473
f 463 473 464
f 464 473 471
f 472 502 503
f 472 503 476
f 472 504 528
f 472 528 545
f 472 545 552
f 472 552 542
f 472 542 548
f 472 548 549
f 472 549 546
f 472 546 531
f 472 531 507
f 472 507 478
f 472 478 502
f 473 505 529
f 473 529 530
f 473 530 506
f 473 506 474
f 474 506 475
f 475 506 528
f 475 528 504
f 476 503 502
f 476 502 478
f 476 478 477
f 479 507 508
f 479 508 480
f 480 509 510
f 480 510 481
f 480 508 509
f 481 510 509
f 481 509 482
f 482 511 483
f 482 509 533
f 482 533 511
f 483 511 533
f 483 533 512
f 483 512 513
f 483 513 514
f 483 514 515
f 483 515 516
f 483 516 484
f 484 516 517
f 484 517 518
f 484 518 519
f 484 519 520
f 484 520 521
f 491 522 492
f 491 501 522
f 492 522 540
f 492 540 523
f 501 524 542
f 501 542 525
f 501 525 526
f 501 526 527
f 501 527 522
f 501 516 539
f 501 539 524
f 505 523 529
f 506 530 545
f 506 545 528
f 507 531 508
f 508 531 532
f 508 532 509
f 509 532 547
f 509 547 533
f 512 533 513
f 513 534 535
f 513 535 514
f 513 533 536
f 513 536 537
f 513 537 534
f 514 535 538
f 514 538 515
f 515 538 516
f 516 538 535
f 516 535 534
f 516 534 548
f 516 548 539
f 522 527 526
f 522 526 540
f 523 540 544
f 523 544 529
f 524 541 542
f 524 539 550
f 524 550 541
f 525 542 552
f 525 552 543
f 525 543 544
f 525 544 540
f 525 540 526
f 529 544 530
f 530 544 543
f 530 543 552
f 530 552 545
f 531 546 547
f 531 547 532
f 533 547 537
f 533 537 536
f 534 537 549
f 534 549 548
f 537 547 546
f 537 546 549
f 539 548 550
f 541 551 542
f 541 550 553
f 541 553 551
f 542 551 553
f 542 553 548
f 548 553 550
o convex_3
v -0.108479 -0.5759 -0.0309787
v -0.0839711 -0.5759 -0.0799937
v -0.108479 -0.5759 0.0154878
v -0.108479 -0.11253 -0.0309787
v -0.0983698 -0.11253 -0.0518759
v -0.0826332 -0.5759 -0.0826484
v -0.087815 -0.5759 0.0568151
v -0.108479 -0.11253 0.0154878
v -0.0832066 -0.11253 -0.0815228
v -0.0826332 -0.113664 -0.0826484
v -0.0671514 -0.5759 -0.0981302
v -0.0834827 -0.5759 0.0654585
v -0.087815 -0.11253 0.0568151
v -0.0825695 -0.11253 -0.0823298
v -0.0671514 -0.11253 -0.0981302
v -0.0644968 -0.5759 -0.0994681
v -0.0660259 -0.11253 -0.0987036
v -0.0826332 -0.5759 0.0671363
v -0.0826332 -0.11253 0.0671363
v -0.0839924 -0.11253 0.0644392
v -0.0464878 -0.5759 -0.108473
v -0.0464878 -0.11253 -0.108473
v -0.0671514 -0.5759 0.0826393
v -0.0671514 -0.11253 0.0826393
v 0 -0.5759 -0.123976
v 0 -0.11253 -0.123976
v -0.0464878 -0.5759 0.0929817
v -0.0464878 -0.11253 0.0929817
v 0.0464878 -0.5759 -0.108473
v 0.0464878 -0.11253 -0.108473
v 0.0464878 -0.5759 0.0929817
v 0.0464878 -0.11253 0.0929817
v 0.0654737 -0.5759 -0.0989796
v 0.056809 -0.11253 -0.103312
v 0.0671514 -0.5759 0.0826393
v 0.0671514 -0.11253 0.0826393
v 0.0671514 -0.5759 -0.0981302
v 0.0671514 -0.11253 -0.0981302
v 0.0826332 -0.5759 0.0671363
v 0.0826332 -0.11253 0.0671363
v 0.0826332 -0.5759 -0.0826484
v 0.0826332 -0.11253 -0.0826484
v 0.087815 -0.5759 0.0568151
v 0.1037 -0.11253 0.0262125
v 0.087815 -0.5759 -0.0723059
v 0.087815 -0.11253 -0.0723059
v 0.108479 -0.5759 0.0154878
v 0.108479 -0.11253 0.0154878
v 0.108479 -0.5759 -0.0309787
v 0.108479 -0.11253 -0.0309787
f 554 555 559
f 554 559 564
f 554 564 569
f 554 569 574
f 554 574 578
f 554 578 582
f 554 582 586
f 554 586 590
f 554 590 594
f 554 594 598
f 554 598 602
f 554 602 600
f 554 600 596
f 554 596 592
f 554 592 588
f 554 588 584
f 554 584 580
f 554 580 576
f 554 576 571
f 554 571 565
f 554 565 560
f 554 560 556
f 554 556 561
f 554 561 557
f 554 557 558
f 554 558 555
f 555 558 559
f 556 560 566
f 556 566 561
f 557 561 566
f 557 566 573
f 557 573 572
f 557 572 577
f 557 577 581
f 557 581 585
f 557 585 589
f 557 589 593
f 557 593 597
f 557 597 601
f 557 601 603
f 557 603 599
f 557 599 595
f 557 595 591
f 557 591 587
f 557 587 583
f 557 583 579
f 557 579 575
f 557 575 570
f 557 570 568
f 557 568 567
f 557 567 562
f 557 562 558
f 558 562 563
f 558 563 559
f 559 563 568
f 559 568 564
f 560 565 566
f 562 567 563
f 563 567 568
f 564 568 570
f 564 570 569
f 565 571 572
f 565 572 573
f 565 573 566
f 569 570 575
f 569 575 574
f 571 576 577
f 571 577 572
f 574 575 579
f 574 579 578
f 576 580 581
f 576 581 577
f 578 579 583
f 578 583 582
f 580 584 585
f 580 585 581
f 582 583 587
f 582 587 586
f 584 588 589
f 584 589 585
f 586 587 591
f 586 591 590
f 588 592 593
f 588 593 589
f 590 591 595
f 590 595 594
f 592 596 597
f 592 597 593
f 594 595 599
f 594 599 598
f 596 600 597
f 597 600 601
f 598 599 603
f 598 603 602
f 600 602 603
f 600 603 601
o convex_4
v 0.144879 0.325783 -0.144518
v 0.141504 0.342971 -0.144518
v 0.126017 0.373944 -0.144518
v 0.144636 0.392557 -0.211812
v 0.0795018 0.420459 -0.144518
v 0.098115 0.439078 -0.211812
v 0.144636 0.392557 -0.366745
v 0.170466 0.34093 -0.216974
v 0.160121 0.361587 -0.211812
v 0.170466 0.247954 -0.216974
v 0.144879 0.247955 -0.144518
v 0.165294 0.242815 -0.206628
v 0.134291 0.180809 -0.206628
v 0.136682 0.231958 -0.144518
v 0.0414385 0.149563 -0.144518
v 0.0907052 0.171006 -0.144518
v 0.105681 0.185471 -0.144518
v 0.131721 0.174368 -0.20922
v 0.129118 0.165324 -0.216974
v 0.134291 0.175636 -0.216974
v 0.129118 0.165324 -0.371907
v 0.116203 0.15885 -0.20922
v 0.0927757 0.172821 -0.144518
v 0.0586833 0.154981 -0.144518
v 0.0542302 0.12788 -0.20922
v 0.0464878 0.123976 -0.216974
v 0.0464878 0.123976 -0.371907
v -0.0464878 0.123976 -0.216974
v -0.0518761 0.149563 -0.144518
v -0.0567999 0.129148 -0.211812
v -0.118806 0.160151 -0.211812
v -0.082877 0.165078 -0.144518
v -0.103412 0.175516 -0.144518
v -0.144879 0.242566 -0.144518
v -0.134413 0.222031 -0.144518
v -0.134291 0.175636 -0.211812
v -0.165294 0.237642 -0.211812
v -0.170466 0.247954 -0.216974
v -0.144879 0.320366 -0.144518
v -0.170466 0.34093 -0.216974
v -0.166562 0.348672 -0.20922
v -0.151077 0.379642 -0.20922
v -0.123436 0.369661 -0.144518
v -0.139461 0.337611 -0.144518
v 0.0313412 0.439321 -0.144518
v -0.0309725 0.439321 -0.144518
v -0.0779985 0.415609 -0.144518
v -0.108971 0.384637 -0.144518
v -0.121621 0.371731 -0.144518
v -0.144636 0.392557 -0.216974
v -0.098115 0.439078 -0.216974
v -0.0891044 0.441648 -0.20922
v -0.0464878 0.464908 -0.216974
v -0.0516272 0.459736 -0.206628
v -0.0826302 0.444218 -0.206628
v -0.0619734 0.423806 -0.144518
v 0.0464878 0.464908 -0.216974
v -0.0464878 0.464908 -0.371907
v 0.0464878 0.464908 -0.371907
v -0.0464878 0.459736 -0.382252
v 0.0464878 0.459736 -0.382252
v 0.0567999 0.459736 -0.377091
v 0.0542302 0.457133 -0.383548
v 0.0464878 0.44939 -0.387414
v -0.0464878 0.44939 -0.387414
v 0.0309696 0.325412 -0.402921
v 0.0774574 0.433905 -0.387414
v 0.0852332 0.441648 -0.383548
v 0.0878029 0.444218 -0.377091
v 0.098115 0.439078 -0.366745
v 0.149776 0.382245 -0.377091
v 0.165294 0.351242 -0.377091
v 0.147206 0.379642 -0.383548
v 0.162691 0.348672 -0.383548
v 0.165294 0.34093 -0.382252
v 0.170466 0.34093 -0.371907
v 0.170466 0.247954 -0.371907
v 0.165294 0.247954 -0.382252
v 0.154948 0.247954 -0.387414
v 0.154948 0.34093 -0.387414
v 0.139463 0.371899 -0.387414
v 0.131721 0.39516 -0.383548
v 0.0309696 0.263472 -0.402921
v -0.0309696 0.325412 -0.402921
v -0.0774574 0.433905 -0.387414
v -0.0929756 0.435841 -0.383548
v -0.139463 0.389353 -0.383548
v -0.139463 0.371899 -0.387414
v -0.154948 0.34093 -0.387414
v -0.165294 0.346069 -0.382252
v -0.149776 0.377072 -0.382252
v -0.147206 0.383546 -0.37966
v -0.170466 0.34093 -0.371907
v -0.144636 0.392557 -0.371907
v -0.098115 0.439078 -0.371907
v -0.0852332 0.445519 -0.37966
v -0.0542302 0.461004 -0.37966
v -0.0619726 0.451326 -0.383548
v -0.170466 0.247954 -0.371907
v -0.129118 0.165324 -0.377091
v -0.129118 0.165324 -0.222135
v -0.118806 0.160151 -0.366745
v -0.098115 0.149806 -0.377091
v -0.10846 0.170497 -0.387414
v -0.121376 0.173066 -0.384822
v -0.123945 0.185982 -0.387414
v -0.165294 0.253127 -0.382252
v -0.154948 0.247954 -0.387414
v -0.160121 0.227297 -0.377091
v -0.0309696 0.263472 -0.402921
v 0 0.247954 -0.402921
v -0.0464878 0.139494 -0.387414
v -0.0413151 0.129148 -0.382252
v -0.0671454 0.134321 -0.377091
v -0.0464878 0.123976 -0.371907
v 0.0516272 0.129148 -0.382252
v 0.113633 0.160151 -0.382252
v 0.120074 0.162721 -0.37966
v 0.125881 0.170497 -0.383548
v 0.10846 0.170497 -0.387414
v 0.0464878 0.139494 -0.387414
v 0.123945 0.185982 -0.387414
v 0.156884 0.232469 -0.383548
v 0.135592 0.178239 -0.37966
v 0.151077 0.209209 -0.37966
v 0.166562 0.240212 -0.37966
v 0.0671454 0.454563 -0.211812
v 0.0485293 0.435946 -0.144518
f 605 606 604
f 607 606 605
f 607 608 606
f 607 609 608
f 607 610 609
f 607 611 610
f 612 611 607
f 612 605 611
f 612 607 605
f 605 604 611
f 604 613 611
f 614 613 604
f 614 615 613
f 614 616 615
f 614 617 616
f 614 604 617
f 617 604 618
f 619 617 618
f 620 617 619
f 620 621 617
f 622 621 620
f 622 623 621
f 622 624 623
f 622 625 624
f 622 619 625
f 626 619 622
f 626 620 619
f 626 622 620
f 627 625 619
f 627 628 625
f 627 618 628
f 627 619 618
f 629 628 618
f 629 625 628
f 629 630 625
f 629 631 630
f 629 618 631
f 632 631 618
f 633 631 632
f 633 634 631
f 633 632 634
f 635 634 632
f 635 636 634
f 635 632 636
f 636 632 637
f 638 636 637
f 638 639 636
f 638 637 639
f 640 639 637
f 640 641 639
f 640 637 641
f 642 641 637
f 642 643 641
f 644 643 642
f 644 645 643
f 644 646 645
f 647 646 644
f 647 642 646
f 647 644 642
f 642 637 646
f 646 637 648
f 649 646 648
f 650 646 649
f 651 646 650
f 652 646 651
f 652 653 646
f 652 651 653
f 651 654 653
f 651 650 654
f 655 654 650
f 655 656 654
f 655 657 656
f 655 658 657
f 655 650 658
f 659 658 650
f 659 657 658
f 659 649 657
f 659 650 649
f 657 649 656
f 649 648 656
f 660 656 648
f 660 661 656
f 662 661 660
f 662 663 661
f 662 664 663
f 665 664 662
f 666 664 665
f 667 664 666
f 667 668 664
f 667 669 668
f 667 670 669
f 667 671 670
f 667 666 671
f 666 665 671
f 665 672 671
f 665 662 672
f 662 673 672
f 662 660 673
f 673 660 609
f 610 673 609
f 610 674 673
f 675 674 610
f 675 676 674
f 675 677 676
f 675 678 677
f 675 679 678
f 675 610 679
f 610 611 679
f 679 611 613
f 680 679 613
f 681 679 680
f 678 679 681
f 678 681 682
f 683 678 682
f 683 677 678
f 683 684 677
f 669 684 683
f 669 670 684
f 670 685 684
f 671 685 670
f 671 672 685
f 672 674 685
f 672 673 674
f 676 685 674
f 676 684 685
f 676 677 684
f 669 683 686
f 669 686 687
f 669 687 668
f 688 668 687
f 688 689 668
f 688 690 689
f 688 691 690
f 688 687 691
f 691 687 692
f 691 692 693
f 694 691 693
f 694 690 691
f 694 695 690
f 694 693 695
f 695 693 696
f 695 696 697
f 690 695 697
f 690 697 698
f 689 690 698
f 689 698 699
f 689 699 700
f 701 689 700
f 701 668 689
f 701 663 668
f 701 700 663
f 700 661 663
f 700 699 661
f 698 661 699
f 698 654 661
f 698 697 654
f 697 653 654
f 697 643 653
f 697 696 643
f 696 641 643
f 702 641 696
f 702 639 641
f 703 639 702
f 703 704 639
f 703 705 704
f 703 706 705
f 703 707 706
f 708 707 703
f 708 709 707
f 708 703 709
f 710 709 703
f 710 711 709
f 710 693 711
f 710 702 693
f 710 712 702
f 710 703 712
f 712 703 702
f 702 696 693
f 711 693 692
f 711 692 713
f 711 713 709
f 707 709 713
f 707 713 714
f 707 714 715
f 707 715 706
f 706 715 716
f 717 706 716
f 717 718 706
f 717 716 718
f 718 716 630
f 718 630 631
f 718 631 705
f 718 705 706
f 634 705 631
f 634 704 705
f 634 636 704
f 636 639 704
f 719 630 716
f 720 630 719
f 721 630 720
f 721 624 630
f 721 722 624
f 721 720 722
f 720 723 722
f 720 724 723
f 720 719 724
f 719 716 724
f 724 716 715
f 724 715 714
f 724 714 723
f 723 714 686
f 725 723 686
f 722 723 725
f 722 725 682
f 722 682 726
f 727 722 726
f 727 624 722
f 727 623 624
f 727 680 623
f 727 728 680
f 727 726 728
f 726 729 728
f 726 681 729
f 726 682 681
f 681 680 729
f 728 729 680
f 680 613 623
f 623 613 621
f 616 621 613
f 616 617 621
f 616 613 615
f 725 686 682
f 683 682 686
f 713 686 714
f 687 686 713
f 692 687 713
f 624 625 630
f 645 653 643
f 645 646 653
f 661 654 656
f 668 663 664
f 730 609 660
f 730 731 609
f 730 660 731
f 731 660 648
f 731 648 608
f 731 608 609
f 608 648 604
f 606 608 604
f 604 648 618
f 637 618 648
f 632 618 637
o convex_5
v 0.178209 0.674122 -0.135598
v 0.170454 0.687027 -0.129141
v 0.182068 0.681861 -0.125912
v 0.182068 0.674122 -0.131719
v 0.175624 0.671537 -0.134297
v -0.165285 0.671537 -0.134297
v -0.170454 0.676702 -0.134297
v -0.170454 0.687027 -0.129141
v 0.170454 0.697358 -0.108467
v 0.180794 0.692192 -0.113623
v 0.178209 0.689612 -0.12008
v -0.178209 0.693485 -0.116226
v 0.185963 0.681861 -0.108467
v 0.180794 0.671537 -0.12396
v 0.170454 0.666371 -0.12396
v -0.170454 0.666371 -0.12396
v -0.178209 0.674122 -0.131719
v -0.178209 0.677995 -0.131719
v -0.182068 0.683798 -0.12396
v 0.170454 0.71286 -0.061987
v -0.170454 0.697358 -0.108467
v 0.180794 0.707688 -0.0671431
v -0.180794 0.692192 -0.108467
v -0.180794 0.707688 -0.061987
v -0.178209 0.708981 -0.0697211
v -0.170454 0.71286 -0.061987
v 0.185963 0.697358 -0.061987
v 0.185963 0.681861 0.0929696
v 0.170454 0.650851 -0.0310007
v 0.165285 0.650851 -0.0413128
v 0.154945 0.650851 -0.0464688
v -0.139473 0.650851 -0.0464688
v -0.149776 0.650851 -0.0413128
v -0.154945 0.650851 -0.0310007
v -0.180794 0.671537 -0.118804
v -0.185963 0.681861 -0.108467
v 0.170454 0.71286 0.0464901
v 0.180794 0.707688 0.041309
v -0.180794 0.707688 0.0464901
v -0.185963 0.697358 -0.061987
v -0.170454 0.71286 0.0464901
v 0.185963 0.697358 0.0464901
v 0.180794 0.692192 0.0878135
v 0.183379 0.679288 0.105885
v 0.180794 0.671537 0.108463
v 0.170454 0.650851 0.0154537
v -0.154945 0.650851 0.0154537
v -0.180794 0.671537 0.113644
v -0.185963 0.681861 0.0929696
v 0.170454 0.697358 0.0929696
v 0.175624 0.687027 0.113644
v 0.178209 0.689612 0.100729
v -0.185963 0.697358 0.0464901
v -0.182068 0.705109 0.0542241
v -0.175624 0.707688 0.0568022
v -0.175624 0.692192 0.103307
v -0.170454 0.697358 0.0929696
v 0.178209 0.674122 0.116222
v 0.178209 0.670244 0.116222
v 0.167069 0.650851 0.0275929
v -0.149776 0.650851 0.0258159
v -0.170454 0.666371 0.108463
v -0.170454 0.671537 0.1188
v -0.178209 0.674122 0.120101
v -0.182068 0.674122 0.116222
v -0.182068 0.689612 0.100729
v 0.165285 0.676702 0.1188
v -0.165285 0.687027 0.113644
v 0.170454 0.671537 0.1188
v 0.170454 0.666371 0.108463
v 0.154945 0.650851 0.0309719
v -0.139473 0.650851 0.0309719
f 732 733 734
f 732 734 735
f 732 735 736
f 732 736 737
f 732 737 738
f 732 738 739
f 732 739 733
f 733 740 741
f 733 741 742
f 733 742 734
f 733 739 743
f 733 743 740
f 734 744 735
f 734 742 741
f 734 741 744
f 735 744 745
f 735 745 736
f 736 745 746
f 736 746 747
f 736 747 737
f 737 747 748
f 737 748 738
f 738 748 749
f 738 749 739
f 739 749 750
f 739 750 743
f 740 751 741
f 740 743 752
f 740 752 757
f 740 757 751
f 741 751 753
f 741 753 758
f 741 758 744
f 743 750 754
f 743 754 755
f 743 755 756
f 743 756 757
f 743 757 752
f 744 758 773
f 744 773 759
f 744 759 777
f 744 777 760
f 744 760 745
f 745 760 746
f 746 760 761
f 746 761 762
f 746 762 763
f 746 763 747
f 747 763 764
f 747 764 765
f 747 765 766
f 747 766 748
f 748 766 767
f 748 767 750
f 748 750 749
f 750 767 754
f 751 768 769
f 751 769 753
f 751 757 772
f 751 772 768
f 753 769 773
f 753 773 758
f 754 767 771
f 754 771 755
f 755 770 772
f 755 772 757
f 755 757 756
f 755 771 784
f 755 784 770
f 759 773 774
f 759 774 775
f 759 775 776
f 759 776 777
f 760 777 791
f 760 791 802
f 760 802 803
f 760 803 792
f 760 792 778
f 760 778 765
f 760 765 764
f 760 764 763
f 760 763 762
f 760 762 761
f 765 778 779
f 765 779 766
f 766 779 780
f 766 780 767
f 767 780 784
f 767 784 771
f 768 781 782
f 768 782 783
f 768 783 774
f 768 774 769
f 768 772 788
f 768 788 781
f 769 774 773
f 770 784 785
f 770 785 786
f 770 786 772
f 772 786 787
f 772 787 788
f 774 783 775
f 775 783 782
f 775 782 789
f 775 789 790
f 775 790 776
f 776 790 777
f 777 790 791
f 778 792 793
f 778 793 779
f 779 793 794
f 779 794 795
f 779 795 796
f 779 796 780
f 780 796 797
f 780 797 784
f 781 788 787
f 781 787 799
f 781 799 782
f 782 798 789
f 782 799 795
f 782 795 798
f 784 797 785
f 785 797 787
f 785 787 786
f 787 797 795
f 787 795 799
f 789 798 800
f 789 800 790
f 790 801 791
f 790 800 794
f 790 794 793
f 790 793 801
f 791 801 802
f 792 803 793
f 793 803 802
f 793 802 801
f 794 800 795
f 795 797 796
f 795 800 798
o convex_6
v 0.170466 0.650851 0.0154757
v 0.175382 0.558141 0.000245743
v 0.170466 0.650851 -0.0155152
v 0.167071 0.650851 0.0276111
v 0.17425 0.558141 -0.0135887
v 0.170434 0.650851 -0.031003
v 0.170466 0.558141 0.0154909
v 0.155203 0.558141 0.030865
v 0.165293 0.558141 0.0258212
v 0.154945 0.650851 0.0309939
v 0.154945 0.558141 0.0309939
v 0.170466 0.635369 -0.0309878
v 0.170466 0.558141 -0.0309878
v 0.165293 0.650851 -0.0413181
v -0.123991 0.650851 0.0309939
v -0.139448 0.558141 0.0309939
v 0.165293 0.558141 -0.0413181
v 0.154945 0.650851 -0.0464908
v -0.13948 0.650851 0.0309863
v -0.139448 0.635369 0.0309939
v -0.149634 0.558141 0.0259046
v 0.154945 0.558141 -0.0464908
v -0.123991 0.650851 -0.0464908
v -0.149796 0.650851 0.0258212
v -0.149796 0.558141 0.0258212
v -0.139448 0.558141 -0.0464908
v -0.139448 0.635369 -0.0464908
v -0.13948 0.650851 -0.0464757
v -0.154969 0.650851 0.0154757
v -0.154969 0.635369 0.0154909
v -0.154969 0.558141 0.0154909
v -0.151154 0.558141 -0.0416594
v -0.149796 0.650851 -0.0413181
v -0.154969 0.650851 -0.0155152
v -0.154969 0.558141 -0.0309878
v -0.154937 0.650851 -0.0310106
v -0.154969 0.635369 -0.0309878
f 804 805 806
f 804 806 809
f 804 809 817
f 804 817 821
f 804 821 826
f 804 826 831
f 804 831 836
f 804 836 839
f 804 839 837
f 804 837 832
f 804 832 827
f 804 827 822
f 804 822 818
f 804 818 813
f 804 813 807
f 804 807 805
f 805 808 809
f 805 809 806
f 805 807 810
f 805 810 812
f 805 812 811
f 805 811 814
f 805 814 819
f 805 819 824
f 805 824 828
f 805 828 834
f 805 834 838
f 805 838 835
f 805 835 829
f 805 829 825
f 805 825 820
f 805 820 816
f 805 816 808
f 807 811 812
f 807 812 810
f 807 813 814
f 807 814 811
f 808 815 809
f 808 816 815
f 809 815 817
f 813 818 823
f 813 823 819
f 813 819 814
f 815 816 820
f 815 820 817
f 817 820 825
f 817 825 821
f 818 822 823
f 819 823 822
f 819 822 824
f 821 825 829
f 821 829 830
f 821 830 826
f 822 827 824
f 824 827 828
f 826 830 831
f 827 832 833
f 827 833 834
f 827 834 828
f 829 835 830
f 830 835 831
f 831 835 836
f 832 837 840
f 832 840 838
f 832 838 834
f 832 834 833
f 835 839 836
f 835 838 840
f 835 840 839
f 837 839 840
o convex_7
v -0.420502 0.346191 -0.144518
v -0.480336 0.346191 -0.139459
v -0.480336 0.511393 -0.139459
v -0.418344 0.353142 -0.144518
v 0.42266 0.346191 -0.144518
v -0.490733 0.346191 -0.134288
v -0.0308976 0.439333 -0.144518
v -0.371851 0.377335 -0.144518
v -0.402846 0.361856 -0.144518
v -0.417854 0.354179 -0.144518
v -0.490733 0.51656 -0.134288
v -0.480336 0.521726 -0.134288
v -0.178127 0.519133 -0.135595
v 0.480336 0.511393 -0.139459
v 0.420404 0.358474 -0.144518
v 0.480336 0.346191 -0.139459
v -0.495834 0.346191 -0.123975
v 0.03129 0.439333 -0.144518
v -0.488085 0.523013 -0.131703
v -0.495834 0.511393 -0.123975
v -0.492008 0.528822 -0.108463
v -0.480336 0.526893 -0.123975
v 0.480336 0.521726 -0.134288
v 0.488085 0.519133 -0.135595
v 0.490733 0.511393 -0.134288
v 0.483867 0.346191 -0.137707
v 0.389408 0.373973 -0.144518
v 0.372243 0.377335 -0.144518
v -0.500934 0.346191 -0.0464723
v -0.488085 0.538512 -0.100707
v -0.495834 0.526893 -0.0929793
v -0.490733 0.537226 -0.0929793
v -0.480336 0.542392 -0.0929793
v 0.480336 0.526893 -0.123975
v 0.490733 0.521726 -0.129117
v 0.495834 0.511393 -0.123975
v 0.490733 0.346191 -0.134288
v -0.500934 0.346191 0.0310858
v -0.495834 0.542392 -0.0154768
v -0.488085 0.554012 -0.0232326
v -0.490733 0.552704 -0.0154768
v -0.480336 0.557871 -0.0154768
v -0.139383 0.558141 -0.0464723
v 0.480336 0.542392 -0.0929793
v 0.490733 0.537226 -0.098122
v 0.495834 0.526893 -0.0929793
v 0.500934 0.346191 -0.0413573
v 0.495834 0.346191 -0.123975
v -0.499659 0.346191 0.0517124
v -0.495834 0.511393 0.108477
v -0.495834 0.526893 0.0774817
v -0.495834 0.542392 -2.08064e-05
v -0.492008 0.550132 0.007735
v -0.490733 0.552704 -2.08064e-05
v -0.480336 0.557871 -2.08064e-05
v -0.154881 0.558141 -0.0309884
v -0.151153 0.558141 -0.0416631
v 0.154881 0.558141 -0.0464723
v 0.480336 0.552704 -0.0103063
v 0.488085 0.550132 -0.0116128
v 0.492008 0.542392 -0.0174227
v 0.493283 0.539799 -0.00257828
v 0.495834 0.526893 0.0619701
v 0.500934 0.346191 0.0362286
v -0.495834 0.346191 0.108477
v -0.490733 0.511393 0.11879
v -0.492008 0.519133 0.116205
v -0.492008 0.534632 0.0852097
v -0.490733 0.537226 0.0774817
v -0.480336 0.542392 0.0774817
v -0.139383 0.558141 0.0309746
v -0.14978 0.558141 0.0258041
v -0.154881 0.558141 0.0156576
v 0.155077 0.558141 -0.0463889
v 0.475235 0.552704 -0.00516355
v 0.480336 0.542392 0.0619701
v 0.488085 0.550132 -0.00772102
v 0.165278 0.558141 -0.0413017
v 0.165376 0.558141 -0.0411349
v 0.170378 0.558141 -0.0309884
v 0.174204 0.558141 -0.0135865
v 0.175381 0.558141 0.000229381
v 0.170378 0.558141 0.0154908
v 0.17028 0.558141 0.015741
v 0.165278 0.558141 0.0258041
v 0.490733 0.537226 0.0567995
v 0.495834 0.511393 0.108477
v 0.495834 0.346191 0.108477
v -0.490733 0.346191 0.11879
v -0.459737 0.464895 0.134302
v -0.480336 0.511393 0.123961
v -0.485534 0.521726 0.11879
v -0.485534 0.537226 0.087795
v -0.480336 0.526893 0.108477
v -0.185876 0.542392 0.0774817
v 0.154881 0.558141 0.0309746
v 0.155175 0.558141 0.0308634
v 0.480336 0.526893 0.108477
v 0.490733 0.521726 0.103307
v 0.490733 0.506227 0.11879
v 0.493283 0.346191 0.113703
v 0.488085 0.519133 0.116205
v -0.480336 0.346191 0.123961
v -0.459737 0.433917 0.134302
v -0.44934 0.464895 0.139473
v -0.433842 0.480395 0.139473
v 0.475235 0.521726 0.11879
v 0.480336 0.511393 0.123961
v 0.485633 0.346191 0.121348
v 0.490733 0.346191 0.11879
v -0.44934 0.433917 0.139473
v 0.480336 0.346191 0.123961
v -0.418344 0.464895 0.139473
v -0.433842 0.433917 0.139473
v -0.418344 0.449416 0.139473
f 841 842 843
f 841 843 844
f 841 844 850
f 841 850 849
f 841 849 848
f 841 848 847
f 841 847 858
f 841 858 868
f 841 868 867
f 841 867 855
f 841 855 845
f 841 845 856
f 841 856 866
f 841 866 877
f 841 877 888
f 841 888 887
f 841 887 904
f 841 904 928
f 841 928 941
f 841 941 950
f 841 950 949
f 841 949 952
f 841 952 943
f 841 943 929
f 841 929 905
f 841 905 889
f 841 889 878
f 841 878 869
f 841 869 857
f 841 857 846
f 841 846 842
f 842 846 851
f 842 851 843
f 843 847 848
f 843 848 849
f 843 849 850
f 843 850 844
f 843 851 852
f 843 852 853
f 843 853 864
f 843 864 854
f 843 854 858
f 843 858 847
f 845 855 854
f 845 854 856
f 846 857 860
f 846 860 851
f 851 859 852
f 851 860 861
f 851 861 859
f 852 859 862
f 852 862 874
f 852 874 863
f 852 863 864
f 852 864 853
f 854 864 865
f 854 865 866
f 854 866 856
f 854 855 867
f 854 867 868
f 854 868 858
f 857 869 860
f 859 870 873
f 859 873 862
f 859 861 870
f 860 869 871
f 860 871 861
f 861 871 872
f 861 872 870
f 862 873 884
f 862 884 874
f 863 874 875
f 863 875 864
f 864 875 865
f 865 875 876
f 865 876 888
f 865 888 877
f 865 877 866
f 869 878 892
f 869 892 879
f 869 879 871
f 870 872 880
f 870 880 873
f 871 879 872
f 872 881 880
f 872 879 881
f 873 880 882
f 873 882 883
f 873 883 898
f 873 898 884
f 874 884 885
f 874 885 875
f 875 885 886
f 875 886 876
f 876 886 887
f 876 887 888
f 878 889 890
f 878 890 891
f 878 891 892
f 879 892 893
f 879 893 881
f 880 881 882
f 881 894 895
f 881 895 882
f 881 893 894
f 882 895 913
f 882 913 896
f 882 896 897
f 882 897 883
f 883 897 896
f 883 896 913
f 883 913 912
f 883 912 911
f 883 911 936
f 883 936 937
f 883 937 925
f 883 925 924
f 883 924 923
f 883 923 922
f 883 922 921
f 883 921 920
f 883 920 919
f 883 919 918
f 883 918 914
f 883 914 898
f 884 898 899
f 884 899 900
f 884 900 885
f 885 900 901
f 885 901 886
f 886 901 902
f 886 902 903
f 886 903 904
f 886 904 887
f 889 905 890
f 890 905 929
f 890 929 906
f 890 906 907
f 890 907 908
f 890 908 891
f 891 908 893
f 891 893 892
f 893 908 909
f 893 909 894
f 894 909 910
f 894 910 895
f 895 910 911
f 895 911 912
f 895 912 913
f 898 914 899
f 899 915 916
f 899 916 917
f 899 917 900
f 899 914 918
f 899 918 919
f 899 919 920
f 899 920 921
f 899 921 922
f 899 922 923
f 899 923 924
f 899 924 925
f 899 925 915
f 900 917 901
f 901 917 902
f 902 917 926
f 902 926 903
f 903 927 904
f 903 926 939
f 903 939 927
f 904 927 928
f 906 929 944
f 906 944 930
f 906 930 945
f 906 945 931
f 906 931 932
f 906 932 907
f 907 932 933
f 907 933 908
f 908 933 909
f 909 933 910
f 910 933 932
f 910 932 934
f 910 934 938
f 910 938 935
f 910 935 936
f 910 936 911
f 915 925 937
f 915 937 936
f 915 936 916
f 916 938 939
f 916 939 926
f 916 926 917
f 916 936 938
f 927 940 941
f 927 941 928
f 927 939 942
f 927 942 940
f 929 943 951
f 929 951 944
f 930 944 951
f 930 951 945
f 931 945 946
f 931 946 948
f 931 948 947
f 931 947 932
f 932 947 938
f 932 938 934
f 935 938 936
f 938 947 942
f 938 942 939
f 940 942 948
f 940 948 949
f 940 949 950
f 940 950 941
f 942 947 948
f 943 952 954
f 943 954 951
f 945 951 954
f 945 954 955
f 945 955 953
f 945 953 946
f 946 953 948
f 948 952 949
f 948 953 955
f 948 955 952
f 952 955 954
o convex_8
v -0.340575 0.377317 -0.144518
v -0.323406 0.373958 -0.144518
v -0.340949 0.366753 -0.1653
v -0.371911 0.377317 -0.144518
v -0.333192 0.364172 -0.16659
v -0.292412 0.342963 -0.144518
v -0.371911 0.366753 -0.1653
v -0.379668 0.368051 -0.162717
v -0.402906 0.361836 -0.144518
v -0.340949 0.356416 -0.170464
v -0.371911 0.356416 -0.170464
v -0.302197 0.333178 -0.16659
v -0.276914 0.311968 -0.144518
v -0.387408 0.358363 -0.16659
v -0.410663 0.352553 -0.162717
v -0.417884 0.35416 -0.144518
v -0.294456 0.294442 -0.170464
v -0.400001 0.338013 -0.170464
v -0.413243 0.346095 -0.1653
v -0.2867 0.302183 -0.16659
v -0.273539 0.294799 -0.144518
v -0.284119 0.294442 -0.1653
v -0.433901 0.322126 -0.144518
v -0.294456 0.278961 -0.170464
v -0.418403 0.309923 -0.170464
v -0.42874 0.3151 -0.1653
v -0.284119 0.278961 -0.1653
v -0.273539 0.278961 -0.144518
v -0.439305 0.304893 -0.144518
v -0.304777 0.237629 -0.1653
v -0.312859 0.250871 -0.170464
v -0.292509 0.263463 -0.16659
v -0.418403 0.278961 -0.170464
v -0.42874 0.284121 -0.1653
v -0.282821 0.271204 -0.162717
v -0.289036 0.247966 -0.144518
v -0.439305 0.273541 -0.144518
v -0.298319 0.240209 -0.162717
v -0.296712 0.232988 -0.144518
v -0.335772 0.222132 -0.1653
v -0.340949 0.232469 -0.170464
v -0.402906 0.247966 -0.170464
v -0.415823 0.266044 -0.167883
v -0.42358 0.258287 -0.160134
v -0.423823 0.242546 -0.144518
v -0.328745 0.216971 -0.144518
v -0.345979 0.211551 -0.144518
v -0.366751 0.222132 -0.1653
v -0.371911 0.232469 -0.170464
v -0.410663 0.240209 -0.162717
v -0.384828 0.235049 -0.167883
v -0.418533 0.232339 -0.144518
v -0.377331 0.211551 -0.144518
v -0.392585 0.227292 -0.160134
v -0.408326 0.227049 -0.144518
f 956 957 958
f 956 958 962
f 956 962 959
f 956 959 964
f 956 964 971
f 956 971 978
f 956 978 984
f 956 984 992
f 956 992 1000
f 956 1000 1007
f 956 1007 1010
f 956 1010 1008
f 956 1008 1002
f 956 1002 1001
f 956 1001 994
f 956 994 991
f 956 991 983
f 956 983 976
f 956 976 968
f 956 968 961
f 956 961 957
f 957 960 958
f 957 961 967
f 957 967 960
f 958 960 962
f 959 962 963
f 959 963 964
f 960 965 966
f 960 966 962
f 960 967 965
f 961 968 975
f 961 975 967
f 962 966 969
f 962 969 963
f 963 969 970
f 963 970 964
f 964 970 971
f 965 967 972
f 965 972 979
f 965 979 986
f 965 986 996
f 965 996 1004
f 965 1004 997
f 965 997 988
f 965 988 980
f 965 980 973
f 965 973 966
f 966 973 974
f 966 974 969
f 967 975 972
f 968 976 977
f 968 977 975
f 969 974 970
f 970 974 971
f 971 974 981
f 971 981 978
f 972 975 979
f 973 980 974
f 974 980 981
f 975 977 982
f 975 982 979
f 976 983 982
f 976 982 977
f 978 981 984
f 979 985 986
f 979 982 987
f 979 987 985
f 980 988 989
f 980 989 981
f 981 989 992
f 981 992 984
f 982 983 990
f 982 990 987
f 983 991 993
f 983 993 990
f 985 987 993
f 985 993 994
f 985 994 1001
f 985 1001 995
f 985 995 996
f 985 996 986
f 987 990 993
f 988 997 998
f 988 998 989
f 989 998 1005
f 989 1005 999
f 989 999 992
f 991 994 993
f 992 999 1000
f 995 1001 1002
f 995 1002 1008
f 995 1008 1003
f 995 1003 1004
f 995 1004 996
f 997 1005 998
f 997 1004 1006
f 997 1006 1005
f 999 1005 1007
f 999 1007 1000
f 1003 1008 1009
f 1003 1009 1005
f 1003 1005 1006
f 1003 1006 1004
f 1005 1009 1007
f 1007 1009 1010
f 1008 1010 1009
o convex_9
v 0.51153 0.33574 -0.0568166
v 0.51153 0.340933 -0.0464848
v 0.61988 0.340933 -0.0464848
v 0.51153 0.340933 0.0309878
v 0.51153 0.247938 -0.0594394
v 0.51153 0.263427 -0.0619878
v 0.588884 0.0377953 -0.0619878
v 0.578548 0.0377953 -0.0568166
v 0.650867 0.0377953 -0.0619878
v 0.586225 0.263427 -0.0619878
v 0.650867 0.294436 -0.0619878
v 0.658618 0.30218 -0.058112
v 0.661199 0.0377953 -0.0568166
v 0.661199 0.294436 -0.0568166
v 0.661199 0.304762 -0.051656
v 0.630204 0.33574 -0.051656
v 0.627623 0.333159 -0.058112
v 0.61988 0.33574 -0.0568166
v 0.51153 0.325414 -0.0619878
v 0.61988 0.325414 -0.0619878
v 0.640535 0.330577 -0.0413242
v 0.656037 0.315088 -0.0413242
v 0.666361 0.294436 -0.0464848
v 0.666361 0.0377953 -0.0464848
v 0.666361 0.294436 0.0309878
v 0.656037 0.315088 0.036159
v 0.640535 0.330577 0.036159
v 0.648286 0.307343 0.0438999
v 0.650867 0.294436 0.0464908
v 0.61988 0.325414 0.0464908
v 0.632785 0.322832 0.0438999
v 0.614718 0.33574 0.0413196
v 0.586225 0.33574 0.0413196
v 0.61988 0.340933 0.0309878
v 0.51153 0.33574 0.0413196
v 0.51153 0.325414 0.0464908
v 0.51153 0.263427 0.0464908
v 0.588884 0.0377953 0.0464908
v 0.650867 0.0377953 0.0464908
v 0.661199 0.289272 0.0413196
v 0.661199 0.0377953 0.0413196
v 0.666361 0.0377953 0.0309878
v 0.586217 0.0377953 0.0451529
v 0.578548 0.0377953 0.0413196
v 0.573386 0.0377953 0.0309878
v 0.51153 0.253101 0.0413196
v 0.51153 0.242182 -0.0463574
v 0.51153 0.247938 0.0309878
v 0.573386 0.0377953 -0.0464848
v 0.51153 0.245535 -0.0587067
f 1012 1013 1011
f 1012 1014 1013
f 1012 1011 1014
f 1011 1015 1014
f 1016 1015 1011
f 1017 1015 1016
f 1017 1018 1015
f 1017 1019 1018
f 1017 1016 1019
f 1016 1020 1019
f 1021 1020 1016
f 1021 1019 1020
f 1022 1019 1021
f 1022 1023 1019
f 1022 1024 1023
f 1022 1025 1024
f 1022 1026 1025
f 1027 1026 1022
f 1027 1013 1026
f 1027 1028 1013
f 1027 1011 1028
f 1027 1029 1011
f 1027 1030 1029
f 1027 1022 1030
f 1022 1021 1030
f 1030 1021 1029
f 1029 1021 1016
f 1029 1016 1011
f 1028 1011 1013
f 1026 1013 1031
f 1026 1031 1032
f 1026 1032 1025
f 1025 1032 1033
f 1025 1033 1024
f 1033 1034 1024
f 1033 1035 1034
f 1033 1032 1035
f 1032 1036 1035
f 1031 1036 1032
f 1037 1036 1031
f 1038 1036 1037
f 1038 1039 1036
f 1038 1040 1039
f 1041 1040 1038
f 1041 1037 1040
f 1041 1038 1037
f 1042 1040 1037
f 1042 1043 1040
f 1042 1044 1043
f 1042 1037 1044
f 1037 1031 1044
f 1031 1013 1044
f 1013 1014 1044
f 1045 1044 1014
f 1043 1044 1045
f 1043 1045 1040
f 1040 1045 1046
f 1040 1046 1039
f 1039 1046 1047
f 1048 1039 1047
f 1049 1039 1048
f 1049 1050 1039
f 1051 1050 1049
f 1051 1052 1050
f 1051 1049 1052
f 1049 1048 1052
f 1052 1048 1034
f 1052 1034 1035
f 1052 1035 1050
f 1035 1036 1050
f 1039 1050 1036
f 1048 1053 1034
f 1054 1053 1048
f 1054 1055 1053
f 1054 1056 1055
f 1054 1047 1056
f 1054 1048 1047
f 1047 1046 1056
f 1046 1014 1056
f 1045 1014 1046
f 1056 1014 1015
f 1057 1056 1015
f 1058 1056 1057
f 1058 1055 1056
f 1058 1057 1055
f 1059 1055 1057
f 1059 1018 1055
f 1060 1018 1059
f 1060 1015 1018
f 1060 1057 1015
f 1060 1059 1057
f 1018 1019 1055
f 1055 1019 1053
f 1034 1053 1019
f 1023 1034 1019
f 1023 1024 1034
o convex_10
v 0.372284 0.377317 -0.144518
v 0.389453 0.373958 -0.144518
v 0.371911 0.366753 -0.1653
v 0.340949 0.377317 -0.144518
v 0.379668 0.364172 -0.16659
v 0.420448 0.35846 -0.144518
v 0.340949 0.366753 -0.1653
v 0.333192 0.368051 -0.162717
v 0.324916 0.369138 -0.144518
v 0.410663 0.348675 -0.16659
v 0.371911 0.356416 -0.170464
v 0.340949 0.356416 -0.170464
v 0.435945 0.327465 -0.144518
v 0.325451 0.358363 -0.16659
v 0.320275 0.361592 -0.15497
v 0.28928 0.330597 -0.15497
v 0.293937 0.338143 -0.144518
v 0.42616 0.31768 -0.16659
v 0.418403 0.309923 -0.170464
v 0.401802 0.339815 -0.170464
v 0.294456 0.309923 -0.170464
v 0.439305 0.310296 -0.144518
v 0.42874 0.309923 -0.1653
v 0.294456 0.327368 -0.16659
v 0.2867 0.321558 -0.162717
v 0.279478 0.323165 -0.144518
v 0.281296 0.325242 -0.144518
v 0.42874 0.278961 -0.1653
v 0.418403 0.278961 -0.170464
v 0.294456 0.278961 -0.170464
v 0.284119 0.3151 -0.1653
v 0.439305 0.278961 -0.144518
v 0.278959 0.322126 -0.144518
v 0.430039 0.271204 -0.162717
v 0.420351 0.263463 -0.16659
v 0.402906 0.247966 -0.170464
v 0.311057 0.249069 -0.170464
v 0.297037 0.266044 -0.167883
v 0.284119 0.284121 -0.1653
v 0.273539 0.304893 -0.144518
v 0.423823 0.247966 -0.144518
v 0.414541 0.240209 -0.162717
v 0.408083 0.237629 -0.1653
v 0.371911 0.232469 -0.170464
v 0.302197 0.240209 -0.162717
v 0.340949 0.232469 -0.170464
v 0.328031 0.235049 -0.167883
v 0.28928 0.258287 -0.160134
v 0.273539 0.273541 -0.144518
v 0.416148 0.232988 -0.144518
v 0.377088 0.222132 -0.1653
v 0.294327 0.232339 -0.144518
v 0.320275 0.227292 -0.160134
v 0.346109 0.222132 -0.1653
v 0.289036 0.242546 -0.144518
v 0.384114 0.216971 -0.144518
v 0.36688 0.211551 -0.144518
v 0.304534 0.227049 -0.144518
v 0.335529 0.211551 -0.144518
f 1061 1062 1063
f 1061 1063 1067
f 1061 1067 1064
f 1061 1064 1069
f 1061 1069 1077
f 1061 1077 1087
f 1061 1087 1086
f 1061 1086 1093
f 1061 1093 1100
f 1061 1100 1109
f 1061 1109 1115
f 1061 1115 1112
f 1061 1112 1118
f 1061 1118 1119
f 1061 1119 1117
f 1061 1117 1116
f 1061 1116 1110
f 1061 1110 1101
f 1061 1101 1092
f 1061 1092 1082
f 1061 1082 1073
f 1061 1073 1066
f 1061 1066 1062
f 1062 1065 1063
f 1062 1066 1070
f 1062 1070 1065
f 1063 1065 1067
f 1064 1067 1068
f 1064 1068 1069
f 1065 1070 1071
f 1065 1071 1072
f 1065 1072 1067
f 1066 1073 1078
f 1066 1078 1070
f 1067 1072 1074
f 1067 1074 1068
f 1068 1074 1075
f 1068 1075 1069
f 1069 1075 1076
f 1069 1076 1077
f 1070 1078 1079
f 1070 1079 1080
f 1070 1080 1071
f 1071 1080 1079
f 1071 1079 1089
f 1071 1089 1096
f 1071 1096 1104
f 1071 1104 1106
f 1071 1106 1097
f 1071 1097 1090
f 1071 1090 1081
f 1071 1081 1072
f 1072 1081 1084
f 1072 1084 1074
f 1073 1082 1083
f 1073 1083 1078
f 1074 1084 1076
f 1074 1076 1075
f 1076 1084 1085
f 1076 1085 1086
f 1076 1086 1087
f 1076 1087 1077
f 1078 1083 1088
f 1078 1088 1089
f 1078 1089 1079
f 1081 1090 1099
f 1081 1099 1091
f 1081 1091 1084
f 1082 1092 1088
f 1082 1088 1083
f 1084 1091 1085
f 1085 1091 1086
f 1086 1091 1093
f 1088 1092 1094
f 1088 1094 1095
f 1088 1095 1089
f 1089 1095 1096
f 1090 1097 1098
f 1090 1098 1099
f 1091 1099 1109
f 1091 1109 1100
f 1091 1100 1093
f 1092 1101 1094
f 1094 1101 1102
f 1094 1102 1095
f 1095 1102 1103
f 1095 1103 1096
f 1096 1103 1111
f 1096 1111 1104
f 1097 1105 1098
f 1097 1106 1107
f 1097 1107 1105
f 1098 1105 1108
f 1098 1108 1099
f 1099 1108 1109
f 1101 1110 1102
f 1102 1110 1103
f 1103 1110 1116
f 1103 1116 1111
f 1104 1111 1114
f 1104 1114 1106
f 1105 1112 1108
f 1105 1107 1114
f 1105 1114 1113
f 1105 1113 1112
f 1106 1114 1107
f 1108 1112 1115
f 1108 1115 1109
f 1111 1116 1117
f 1111 1117 1119
f 1111 1119 1114
f 1112 1113 1118
f 1113 1114 1119
f 1113 1119 1118
o convex_11
v -0.439308 0.273543 -0.144518
v -0.439308 0.304885 -0.144518
v -0.423814 0.242546 -0.144518
v -0.480377 0.232558 -0.139472
v -0.433896 0.322124 -0.144518
v -0.480377 0.346159 -0.139472
v -0.418615 0.232558 -0.144518
v -0.480589 0.232558 -0.139367
v -0.433365 0.323169 -0.144518
v -0.420419 0.346159 -0.144518
v -0.49067 0.346159 -0.134294
v 0.415279 0.232558 -0.144518
v -0.49067 0.232558 -0.134294
v 0.422707 0.346159 -0.144518
v -0.572595 0.325427 -0.0619672
v -0.572595 0.325961 -0.0617044
v -0.572595 0.33576 -0.056816
v -0.572595 0.336027 -0.0562904
v -0.572595 0.340931 -0.0464873
v -0.49587 0.346159 -0.123966
v 0.416128 0.232981 -0.144518
v 0.48033 0.232558 -0.139472
v -0.49587 0.232558 -0.123966
v -0.572595 0.234048 -0.0464873
v -0.572595 0.24546 -0.0578935
v -0.572595 0.246939 -0.0583666
v -0.572595 0.263455 -0.0619672
v 0.48033 0.346159 -0.139472
v 0.435866 0.327474 -0.144518
v -0.572595 0.340931 0.0309911
v -0.500964 0.346159 -0.0464873
v 0.423768 0.247962 -0.144518
v 0.439262 0.278948 -0.144518
v 0.49073 0.247962 -0.134294
v 0.49073 0.232558 -0.134242
v -0.49587 0.232558 0.108469
v -0.572595 0.234048 0.0309911
v 0.49073 0.346159 -0.134294
v 0.439262 0.31029 -0.144518
v -0.572595 0.33576 0.0413198
v -0.49067 0.346159 0.118798
v -0.49587 0.346159 0.108469
v -0.499691 0.346159 0.0517273
v -0.500964 0.346159 0.0310962
v 0.495824 0.232558 -0.123966
v -0.49067 0.232558 0.118798
v -0.572595 0.246383 0.0425287
v 0.495824 0.346159 -0.123966
v -0.572595 0.325427 0.046471
v -0.480377 0.346159 0.123976
v 0.51153 0.263455 -0.0619672
v 0.51153 0.247962 -0.0594441
v 0.51153 0.245548 -0.0587083
v 0.51153 0.24219 -0.0464873
v 0.501767 0.232558 -0.0618883
v -0.572595 0.263455 0.046471
v -0.572595 0.246905 0.0427915
v -0.480377 0.232558 0.123976
v 0.501024 0.346159 -0.0413361
v 0.51153 0.340931 -0.0464873
v 0.51153 0.33576 -0.056816
v 0.51153 0.325516 -0.0619409
v 0.51153 0.325427 -0.0619672
v 0.48033 0.346159 0.123976
v 0.51153 0.24219 -0.0463559
v 0.495824 0.232558 0.108548
v 0.48033 0.232558 0.123976
v 0.501024 0.346159 0.0362211
v 0.51153 0.340931 0.0309911
v 0.485636 0.346159 0.121347
v 0.51153 0.247962 0.0309911
v 0.493277 0.346159 0.113699
v 0.49073 0.232558 0.118798
v 0.51153 0.247995 0.0310699
v 0.51153 0.253123 0.0413198
v 0.51153 0.263455 0.046471
v 0.51153 0.325427 0.046471
v 0.495824 0.346159 0.108469
v 0.480436 0.232558 0.123923
v 0.51153 0.33576 0.0413198
v 0.49073 0.346159 0.118798
v 0.51153 0.325561 0.0464184
f 1120 1121 1124
f 1120 1124 1128
f 1120 1128 1129
f 1120 1129 1133
f 1120 1133 1148
f 1120 1148 1158
f 1120 1158 1152
f 1120 1152 1151
f 1120 1151 1140
f 1120 1140 1131
f 1120 1131 1126
f 1120 1126 1122
f 1120 1122 1123
f 1120 1123 1125
f 1120 1125 1121
f 1121 1125 1124
f 1122 1126 1123
f 1123 1127 1125
f 1123 1126 1131
f 1123 1131 1141
f 1123 1141 1154
f 1123 1154 1164
f 1123 1164 1174
f 1123 1174 1185
f 1123 1185 1192
f 1123 1192 1198
f 1123 1198 1186
f 1123 1186 1177
f 1123 1177 1165
f 1123 1165 1155
f 1123 1155 1142
f 1123 1142 1132
f 1123 1132 1127
f 1124 1125 1128
f 1125 1129 1128
f 1125 1127 1130
f 1125 1130 1139
f 1125 1139 1150
f 1125 1150 1163
f 1125 1163 1162
f 1125 1162 1161
f 1125 1161 1160
f 1125 1160 1169
f 1125 1169 1183
f 1125 1183 1189
f 1125 1189 1200
f 1125 1200 1191
f 1125 1191 1197
f 1125 1197 1187
f 1125 1187 1178
f 1125 1178 1167
f 1125 1167 1157
f 1125 1157 1147
f 1125 1147 1133
f 1125 1133 1129
f 1127 1132 1130
f 1130 1132 1146
f 1130 1146 1134
f 1130 1134 1135
f 1130 1135 1136
f 1130 1136 1137
f 1130 1137 1138
f 1130 1138 1139
f 1131 1140 1141
f 1132 1142 1143
f 1132 1143 1144
f 1132 1144 1145
f 1132 1145 1146
f 1133 1147 1148
f 1134 1146 1145
f 1134 1145 1144
f 1134 1144 1143
f 1134 1143 1156
f 1134 1156 1166
f 1134 1166 1176
f 1134 1176 1175
f 1134 1175 1168
f 1134 1168 1159
f 1134 1159 1149
f 1134 1149 1138
f 1134 1138 1137
f 1134 1137 1136
f 1134 1136 1135
f 1138 1149 1163
f 1138 1163 1150
f 1138 1150 1139
f 1140 1151 1141
f 1141 1152 1158
f 1141 1158 1147
f 1141 1147 1157
f 1141 1157 1153
f 1141 1153 1154
f 1141 1151 1152
f 1142 1155 1156
f 1142 1156 1143
f 1147 1158 1148
f 1149 1159 1160
f 1149 1160 1161
f 1149 1161 1162
f 1149 1162 1163
f 1153 1157 1167
f 1153 1167 1164
f 1153 1164 1154
f 1155 1165 1156
f 1156 1165 1166
f 1159 1168 1160
f 1160 1168 1175
f 1160 1175 1165
f 1160 1165 1177
f 1160 1177 1169
f 1164 1167 1182
f 1164 1182 1170
f 1164 1170 1171
f 1164 1171 1172
f 1164 1172 1173
f 1164 1173 1174
f 1165 1175 1176
f 1165 1176 1166
f 1167 1178 1179
f 1167 1179 1180
f 1167 1180 1181
f 1167 1181 1182
f 1169 1177 1186
f 1169 1186 1183
f 1170 1182 1181
f 1170 1181 1180
f 1170 1180 1179
f 1170 1179 1188
f 1170 1188 1199
f 1170 1199 1201
f 1170 1201 1196
f 1170 1196 1195
f 1170 1195 1194
f 1170 1194 1193
f 1170 1193 1190
f 1170 1190 1184
f 1170 1184 1173
f 1170 1173 1172
f 1170 1172 1171
f 1173 1184 1174
f 1174 1184 1185
f 1178 1187 1188
f 1178 1188 1179
f 1183 1186 1198
f 1183 1198 1189
f 1184 1190 1185
f 1185 1191 1192
f 1185 1190 1193
f 1185 1193 1194
f 1185 1194 1195
f 1185 1195 1196
f 1185 1196 1197
f 1185 1197 1191
f 1187 1197 1188
f 1188 1197 1199
f 1189 1198 1192
f 1189 1192 1200
f 1191 1200 1192
f 1196 1201 1197
f 1197 1201 1199
o convex_12
v -0.572604 0.325414 0.0464908
v -0.572604 0.33574 0.0413196
v -0.619877 0.325414 0.0464908
v -0.572604 0.263427 0.0464908
v -0.625035 0.33574 0.0413196
v -0.572604 0.340933 0.0309878
v -0.637308 0.325414 0.0426151
v -0.650865 0.294436 0.0464908
v -0.572604 0.2469 0.0428062
v -0.588888 0.0377953 0.0464908
v -0.578562 0.0377953 0.0413196
v -0.57679 0.0377953 0.0377943
v -0.573394 0.0377953 0.0309878
v -0.631497 0.333159 0.0387393
v -0.619877 0.340933 0.0309878
v -0.572604 0.340933 -0.0464848
v -0.640539 0.330577 0.0309878
v -0.652802 0.309925 0.0426151
v -0.661201 0.294436 0.0413196
v -0.656666 0.0377953 0.043592
v -0.650865 0.0377953 0.0464908
v -0.572604 0.246366 0.0425408
v -0.573394 0.0377953 -0.0464848
v -0.572604 0.234022 0.0309878
v -0.619877 0.340933 -0.0464848
v -0.572604 0.336007 -0.0562857
v -0.627624 0.337046 -0.0542363
v -0.640539 0.330577 -0.0464848
v -0.656033 0.315088 0.0309878
v -0.662486 0.30218 0.0387393
v -0.666369 0.294436 0.0309878
v -0.664102 0.0377953 0.0355219
v -0.661201 0.0377953 0.0413196
v -0.578562 0.0377953 -0.0568166
v -0.572604 0.263427 -0.0619878
v -0.572604 0.246929 -0.0583669
v -0.572604 0.245446 -0.0578997
v -0.572604 0.238384 -0.0508596
v -0.572604 0.234022 -0.0464848
v -0.572604 0.33574 -0.0568166
v -0.619877 0.33574 -0.0568166
v -0.635371 0.327372 -0.058112
v -0.656033 0.315088 -0.0464848
v -0.666369 0.294436 -0.0464848
v -0.666369 0.0377953 0.0309878
v -0.588888 0.0377953 -0.0619878
v -0.572604 0.325414 -0.0619878
v -0.572604 0.325948 -0.0617223
v -0.619877 0.325414 -0.0619878
v -0.650865 0.294436 -0.0619878
v -0.650865 0.311853 -0.058112
v -0.658612 0.306038 -0.0542363
v -0.661201 0.299599 -0.0568166
v -0.666369 0.0377953 -0.0464848
v -0.650865 0.0377953 -0.0619878
v -0.659567 0.0377953 -0.0576342
v -0.661201 0.0377953 -0.0568166
f 1202 1203 1206
f 1202 1206 1204
f 1202 1204 1209
f 1202 1209 1222
f 1202 1222 1211
f 1202 1211 1205
f 1202 1205 1210
f 1202 1210 1223
f 1202 1223 1225
f 1202 1225 1240
f 1202 1240 1239
f 1202 1239 1238
f 1202 1238 1237
f 1202 1237 1236
f 1202 1236 1248
f 1202 1248 1249
f 1202 1249 1241
f 1202 1241 1227
f 1202 1227 1217
f 1202 1217 1207
f 1202 1207 1203
f 1203 1207 1216
f 1203 1216 1206
f 1204 1206 1208
f 1204 1208 1219
f 1204 1219 1209
f 1205 1211 1212
f 1205 1212 1213
f 1205 1213 1214
f 1205 1214 1210
f 1206 1215 1208
f 1206 1216 1215
f 1207 1217 1226
f 1207 1226 1216
f 1208 1215 1218
f 1208 1218 1230
f 1208 1230 1219
f 1209 1219 1220
f 1209 1220 1221
f 1209 1221 1222
f 1210 1214 1223
f 1211 1222 1221
f 1211 1221 1234
f 1211 1234 1233
f 1211 1233 1246
f 1211 1246 1255
f 1211 1255 1258
f 1211 1258 1257
f 1211 1257 1256
f 1211 1256 1247
f 1211 1247 1235
f 1211 1235 1224
f 1211 1224 1214
f 1211 1214 1213
f 1211 1213 1212
f 1214 1224 1240
f 1214 1240 1225
f 1214 1225 1223
f 1215 1216 1218
f 1216 1226 1229
f 1216 1229 1218
f 1217 1227 1228
f 1217 1228 1226
f 1218 1229 1244
f 1218 1244 1230
f 1219 1230 1231
f 1219 1231 1220
f 1220 1231 1232
f 1220 1232 1233
f 1220 1233 1234
f 1220 1234 1221
f 1224 1235 1236
f 1224 1236 1237
f 1224 1237 1238
f 1224 1238 1239
f 1224 1239 1240
f 1226 1228 1229
f 1227 1241 1228
f 1228 1241 1242
f 1228 1242 1243
f 1228 1243 1229
f 1229 1243 1244
f 1230 1244 1245
f 1230 1245 1232
f 1230 1232 1231
f 1232 1245 1255
f 1232 1255 1246
f 1232 1246 1233
f 1235 1247 1236
f 1236 1247 1256
f 1236 1256 1251
f 1236 1251 1250
f 1236 1250 1248
f 1241 1249 1242
f 1242 1249 1250
f 1242 1250 1243
f 1243 1250 1251
f 1243 1251 1252
f 1243 1252 1244
f 1244 1252 1253
f 1244 1253 1254
f 1244 1254 1245
f 1245 1254 1258
f 1245 1258 1255
f 1248 1250 1249
f 1251 1254 1252
f 1251 1256 1257
f 1251 1257 1254
f 1252 1254 1253
f 1254 1257 1258
o convex_13
v -0.418599 0.232547 -0.144518
v -0.418501 0.232318 -0.144518
v -0.480322 0.0774853 -0.139472
v -0.480322 0.232547 -0.139472
v 0.415253 0.232547 -0.144518
v -0.408247 0.227037 -0.144518
v -0.475146 0.067172 -0.134294
v -0.488136 0.0697455 -0.131719
v -0.490675 0.0826515 -0.134294
v -0.377287 0.211539 -0.144518
v -0.0518721 0.149545 -0.144518
v 0.480395 0.0774853 -0.139472
v -0.490675 0.232547 -0.134294
v 0.480395 0.232547 -0.139472
v 0.384098 0.216953 -0.144518
v -0.485499 0.0568396 -0.113637
v 0.485571 0.067172 -0.134294
v -0.488136 0.054247 -0.100706
v -0.493312 0.0645794 -0.105884
v -0.495851 0.0774853 -0.123966
v 0.0413967 0.149545 -0.144518
v 0.366812 0.211539 -0.144518
v 0.490649 0.0774853 -0.134294
v 0.492017 0.0697455 -0.131719
v -0.495851 0.232547 -0.123966
v 0.490747 0.232547 -0.134242
v 0.490649 0.232451 -0.134294
v -0.480322 0.0465073 -0.0929796
v 0.485571 0.0516735 -0.103308
v -0.490675 0.0516735 -0.0878021
v -0.495851 0.0620058 -0.0929796
v -0.495949 0.232547 -0.0618883
v 0.495826 0.0774853 -0.123966
v 0.492017 0.054247 -0.100706
v 0.495826 0.232547 -0.123966
v -0.0635917 0.0377953 -0.0516385
v -0.478467 0.0377953 -0.044595
v -0.487159 0.0377953 -0.0377881
v -0.489015 0.0377953 -0.0340035
v 0.480395 0.0465073 -0.0929796
v 0.492017 0.0387485 -0.0387342
v -0.491554 0.0377953 -0.0266446
v -0.495851 0.0465073 -0.0309811
v -0.495949 0.232547 0.0309385
v 0.501783 0.232547 -0.0618883
v 0.495826 0.0620058 -0.0929796
v 0.0652266 0.0377953 -0.0516385
v 0.491528 0.0377953 -0.0358958
v 0.489575 0.0377953 -0.0396803
v 0.486255 0.0377953 -0.0421245
v 0.48225 0.0377953 -0.044595
v 0.491528 0.0377953 0.0154849
v 0.495826 0.0465073 -0.0309811
v 0.495826 0.0465073 0.0154849
v -0.491554 0.0377953 0.0198214
v -0.495851 0.0465073 0.0154849
v -0.495851 0.0620058 0.0774833
v -0.495851 0.0774853 0.108469
v -0.495851 0.232547 0.108469
v 0.495826 0.232547 0.108548
v 0.495826 0.0774853 0.108469
v 0.495826 0.0620058 0.0774833
v 0.490649 0.0516735 0.0774833
v 0.490943 0.0377953 0.0185073
v -0.49087 0.0377953 0.0225809
v -0.490675 0.0516735 0.0826345
v -0.490675 0.067172 0.113621
v -0.488136 0.0697455 0.120086
v -0.490675 0.0774853 0.118798
v -0.490675 0.232547 0.118798
v 0.490649 0.0723191 0.118798
v 0.490649 0.232547 0.118798
v 0.492017 0.0600613 0.0929632
v 0.48811 0.0503772 0.0852101
v 0.489282 0.0377953 0.025577
v -0.489015 0.0377953 0.024736
v -0.480322 0.0465073 0.0774833
v -0.488136 0.054247 0.0890998
v -0.480322 0.067172 0.118798
v -0.480322 0.0774853 0.123976
v -0.480322 0.232547 0.123976
v 0.480395 0.0774853 0.123976
v 0.48811 0.0658757 0.116223
v 0.480395 0.232547 0.123976
v 0.480395 0.0465073 0.0774833
v 0.480395 0.0377953 0.0290988
v -0.485303 0.0377953 0.0266283
v -0.480322 0.0377953 0.0290988
v -0.0584155 0.0377953 0.0361423
v 0.480395 0.067172 0.118798
v 0.0704028 0.0377953 0.0361423
f 1259 1260 1261
f 1259 1261 1262
f 1259 1262 1271
f 1259 1271 1283
f 1259 1283 1290
f 1259 1290 1302
f 1259 1302 1317
f 1259 1317 1328
f 1259 1328 1339
f 1259 1339 1342
f 1259 1342 1330
f 1259 1330 1318
f 1259 1318 1303
f 1259 1303 1293
f 1259 1293 1284
f 1259 1284 1272
f 1259 1272 1263
f 1259 1263 1273
f 1259 1273 1280
f 1259 1280 1279
f 1259 1279 1269
f 1259 1269 1268
f 1259 1268 1264
f 1259 1264 1260
f 1260 1264 1261
f 1261 1265 1266
f 1261 1266 1267
f 1261 1267 1271
f 1261 1271 1262
f 1261 1264 1268
f 1261 1268 1269
f 1261 1269 1279
f 1261 1279 1270
f 1261 1270 1275
f 1261 1275 1265
f 1263 1272 1270
f 1263 1270 1273
f 1265 1274 1266
f 1265 1275 1287
f 1265 1287 1298
f 1265 1298 1286
f 1265 1286 1274
f 1266 1274 1276
f 1266 1276 1277
f 1266 1277 1278
f 1266 1278 1267
f 1267 1278 1283
f 1267 1283 1271
f 1270 1279 1280
f 1270 1280 1273
f 1270 1272 1285
f 1270 1285 1281
f 1270 1281 1282
f 1270 1282 1275
f 1272 1284 1285
f 1274 1286 1276
f 1275 1282 1287
f 1276 1286 1288
f 1276 1288 1289
f 1276 1289 1277
f 1277 1289 1278
f 1278 1290 1283
f 1278 1289 1290
f 1281 1285 1284
f 1281 1284 1282
f 1282 1291 1292
f 1282 1292 1287
f 1282 1284 1293
f 1282 1293 1291
f 1286 1294 1295
f 1286 1295 1296
f 1286 1296 1297
f 1286 1297 1288
f 1286 1298 1305
f 1286 1305 1294
f 1287 1292 1299
f 1287 1299 1298
f 1288 1297 1300
f 1288 1300 1289
f 1289 1300 1301
f 1289 1301 1290
f 1290 1301 1314
f 1290 1314 1302
f 1291 1293 1303
f 1291 1303 1304
f 1291 1304 1292
f 1292 1304 1299
f 1294 1305 1309
f 1294 1309 1308
f 1294 1308 1307
f 1294 1307 1306
f 1294 1306 1310
f 1294 1310 1322
f 1294 1322 1333
f 1294 1333 1344
f 1294 1344 1349
f 1294 1349 1347
f 1294 1347 1346
f 1294 1346 1345
f 1294 1345 1334
f 1294 1334 1323
f 1294 1323 1313
f 1294 1313 1300
f 1294 1300 1297
f 1294 1297 1296
f 1294 1296 1295
f 1298 1299 1306
f 1298 1306 1307
f 1298 1307 1308
f 1298 1308 1309
f 1298 1309 1305
f 1299 1310 1306
f 1299 1304 1311
f 1299 1311 1312
f 1299 1312 1310
f 1300 1313 1314
f 1300 1314 1301
f 1302 1314 1315
f 1302 1315 1316
f 1302 1316 1317
f 1303 1318 1319
f 1303 1319 1320
f 1303 1320 1312
f 1303 1312 1311
f 1303 1311 1304
f 1310 1321 1322
f 1310 1312 1320
f 1310 1320 1321
f 1313 1323 1324
f 1313 1324 1315
f 1313 1315 1314
f 1315 1324 1316
f 1316 1324 1325
f 1316 1325 1326
f 1316 1326 1327
f 1316 1327 1328
f 1316 1328 1317
f 1318 1329 1319
f 1318 1330 1329
f 1319 1329 1331
f 1319 1331 1320
f 1320 1331 1321
f 1321 1331 1332
f 1321 1332 1322
f 1322 1332 1333
f 1323 1334 1335
f 1323 1335 1324
f 1324 1335 1336
f 1324 1336 1326
f 1324 1326 1325
f 1326 1336 1335
f 1326 1335 1337
f 1326 1337 1338
f 1326 1338 1339
f 1326 1339 1328
f 1326 1328 1327
f 1329 1340 1341
f 1329 1341 1331
f 1329 1330 1342
f 1329 1342 1340
f 1331 1341 1332
f 1332 1341 1343
f 1332 1343 1333
f 1333 1343 1344
f 1334 1345 1335
f 1335 1345 1346
f 1335 1346 1347
f 1335 1347 1349
f 1335 1349 1343
f 1335 1343 1341
f 1335 1341 1337
f 1337 1341 1348
f 1337 1348 1340
f 1337 1340 1338
f 1338 1340 1342
f 1338 1342 1339
f 1340 1348 1341
f 1343 1349 1344
