# https://github.com/mikedh/trimesh
v -0.17307600 -0.16132800 -0.85239100
v 0.00004528 -0.22869200 -0.85239100
v -0.26695000 -0.16132800 -0.85239100
v -0.33890200 -0.16132800 -0.65523900
v 0.00004528 -0.37451000 -0.65523900
v 0.00004528 -0.31665000 -0.85239100
v -0.26695000 -0.16524800 -0.85239100
v -0.28566200 -0.16132800 -0.83519600
v -0.40490800 -0.16132800 -0.65523900
v 0.00004528 -0.43559100 -0.65523900
v 0.00004528 -0.37655000 -0.77328700
v -0.00681295 -0.37311300 -0.78015700
v -0.01795260 -0.31665000 -0.85239100
v -0.24661300 -0.20595100 -0.85239100
v -0.27135100 -0.18997600 -0.84121700
v -0.27472000 -0.17300700 -0.84461400
v -0.30603800 -0.16132800 -0.81483600
v -0.39511600 -0.16132800 -0.68007600
v -0.39686000 -0.19335900 -0.66145300
v -0.39995200 -0.18715600 -0.65523900
v 0.00004528 -0.42061000 -0.68520900
v -0.04467200 -0.43559100 -0.65523900
v 0.00004528 -0.40025800 -0.72591000
v -0.04752630 -0.35276200 -0.80051700
v -0.01359190 -0.40025800 -0.72591000
v -0.02714980 -0.39346500 -0.73947600
v -0.08820000 -0.37311300 -0.75981700
v -0.08820000 -0.33241000 -0.82085700
v -0.10857700 -0.31205900 -0.84121700
v -0.04701090 -0.31154800 -0.85239100
v -0.25438300 -0.21371000 -0.84461400
v -0.22627700 -0.22630200 -0.85239100
v -0.27472000 -0.21371000 -0.82425400
v -0.31543400 -0.17300700 -0.80391300
v -0.29509700 -0.17300700 -0.82425400
v -0.31543400 -0.16132800 -0.80391300
v -0.35035900 -0.16132800 -0.75740400
v -0.35614700 -0.17300700 -0.74287300
v -0.37648400 -0.21371000 -0.68181300
v -0.37648400 -0.23406200 -0.66145300
v -0.37961600 -0.22786000 -0.65523900
v -0.39686000 -0.19335900 -0.65523900
v -0.33581000 -0.19335900 -0.76319400
v -0.03392880 -0.42061000 -0.68520900
v -0.04752630 -0.43416800 -0.65807600
v -0.04752630 -0.41381700 -0.69877600
v -0.09981540 -0.42538900 -0.65523900
v -0.10857700 -0.39346500 -0.71911600
v -0.12554400 -0.39008200 -0.71573900
v -0.10516700 -0.32902700 -0.81748000
v -0.16962700 -0.33241000 -0.78015700
v -0.13232300 -0.31544200 -0.82425400
v -0.14925000 -0.29173400 -0.84121700
v -0.13232300 -0.29511700 -0.84461400
v -0.12455300 -0.28735700 -0.85239100
v -0.11040000 -0.29356000 -0.85239100
v -0.23404700 -0.23406200 -0.84461400
v -0.29509700 -0.23406200 -0.78355400
v -0.20590000 -0.24665400 -0.85239100
v -0.33406600 -0.16132800 -0.78181700
v -0.33581000 -0.21371000 -0.74287300
v -0.33581000 -0.25441400 -0.70217300
v -0.37648400 -0.23406200 -0.65523900
v -0.33581000 -0.27476500 -0.68181300
v -0.31543400 -0.31544200 -0.66145300
v -0.33295600 -0.29229800 -0.65523900
v -0.13232300 -0.41720000 -0.66145300
v -0.10857700 -0.41381700 -0.67841600
v -0.12609900 -0.42031400 -0.65523900
v -0.13232300 -0.39684800 -0.70217300
v -0.17299600 -0.35614500 -0.74287300
v -0.19337300 -0.33579300 -0.76319400
v -0.16621700 -0.34937900 -0.75642000
v -0.17299600 -0.29511700 -0.82425400
v -0.18996400 -0.27138200 -0.84121700
v -0.21367000 -0.25441400 -0.84461400
v -0.23404700 -0.27476500 -0.80391300
v -0.29509700 -0.27476500 -0.74287300
v -0.29224200 -0.33297400 -0.65523900
v -0.31543400 -0.31544200 -0.65523900
v -0.27472000 -0.29511700 -0.74287300
v -0.27472000 -0.33579300 -0.68181300
v -0.23404700 -0.37649600 -0.66145300
v -0.19337300 -0.39684800 -0.66145300
v -0.18714900 -0.39996300 -0.65523900
v -0.21367000 -0.37649600 -0.68181300
v -0.23404700 -0.29511700 -0.78355400
v -0.21367000 -0.27476500 -0.82425400
v -0.23404700 -0.37649600 -0.65523900
v -0.22782300 -0.37961100 -0.65523900
f 39 43 61
f 40 66 63
f 39 61 62
f 39 62 64
f 39 64 40
f 40 63 41
f 40 64 65
f 40 65 66
f 43 58 61
f 47 69 67
f 45 67 68
f 45 68 48
f 45 48 46
f 48 68 70
f 48 70 49
f 49 70 71
f 49 71 72
f 49 72 73
f 45 47 67
f 37 43 38
f 29 55 56
f 34 37 60
f 49 73 50
f 28 50 29
f 29 50 73
f 29 73 51
f 29 51 72
f 29 72 52
f 29 52 74
f 29 74 53
f 29 53 54
f 29 54 55
f 27 50 28
f 29 56 30
f 31 57 58
f 31 58 33
f 32 59 76
f 32 76 57
f 33 58 34
f 34 58 43
f 34 43 37
f 34 60 36
f 83 90 89
f 70 84 71
f 52 72 74
f 72 84 86
f 72 86 83
f 72 83 87
f 72 87 88
f 72 88 74
f 74 88 75
f 75 88 76
f 76 88 87
f 71 84 72
f 76 87 77
f 78 87 81
f 79 83 89
f 81 87 83
f 81 83 82
f 83 86 84
f 83 84 85
f 83 85 90
f 27 49 50
f 77 87 78
f 67 84 70
f 67 85 84
f 67 69 85
f 53 74 75
f 53 75 54
f 54 75 55
f 55 75 59
f 57 76 77
f 57 77 78
f 57 78 58
f 58 78 61
f 59 75 76
f 61 78 62
f 62 78 64
f 64 78 65
f 65 79 80
f 65 80 66
f 65 78 81
f 65 81 82
f 65 82 83
f 65 83 79
f 67 70 68
f 51 73 72
f 27 48 49
f 7 14 15
f 26 46 48
f 2 23 11
f 2 11 6
f 2 4 5
f 3 7 8
f 4 9 20
f 4 20 42
f 4 42 41
f 4 41 63
f 2 21 23
f 4 63 66
f 4 80 79
f 4 79 89
f 4 89 90
f 4 90 85
f 4 85 69
f 4 69 47
f 4 47 22
f 4 22 10
f 4 66 80
f 4 10 5
f 2 10 21
f 1 4 2
f 26 48 27
f 1 2 6
f 1 6 13
f 1 13 30
f 1 30 56
f 1 56 55
f 1 55 59
f 1 59 32
f 2 5 10
f 1 32 14
f 1 7 3
f 1 3 8
f 1 8 17
f 1 17 36
f 1 36 60
f 1 60 37
f 1 37 18
f 1 9 4
f 1 14 7
f 6 11 12
f 1 18 9
f 7 15 16
f 17 35 34
f 17 34 36
f 18 37 38
f 18 38 19
f 19 39 40
f 19 40 41
f 19 41 42
f 19 42 20
f 15 31 33
f 19 43 39
f 21 25 23
f 22 45 46
f 22 46 44
f 22 47 45
f 24 27 28
f 25 44 46
f 6 12 13
f 25 46 26
f 21 44 25
f 15 35 16
f 19 38 43
f 15 33 34
f 7 16 8
f 8 16 35
f 15 34 35
f 8 35 17
f 9 18 19
f 9 19 20
f 10 22 44
f 11 23 12
f 12 24 13
f 12 23 25
f 10 44 21
f 12 25 26
f 12 26 27
f 12 27 24
f 13 24 28
f 13 28 29
f 13 29 30
f 14 31 15
f 14 57 31
f 14 32 57

