# https://github.com/mikedh/trimesh
v 0.12209800 0.00001271 0.59356700
v 0.00008492 0.12206900 0.63102000
v 0.00008492 0.12211100 0.59356700
v 0.18316800 0.00001271 0.59356700
v 0.12209800 0.00001271 0.75302000
v 0.00008492 0.12206900 0.65123200
v 0.00008492 0.18316000 0.59356700
v 0.18316800 0.04071210 0.59356700
v 0.21589000 0.00001271 0.81847900
v 0.14246200 0.00001271 0.81407600
v 0.00008492 0.14246100 0.81407600
v 0.00008492 0.12213200 0.75310800
v 0.00008492 0.12211100 0.75302000
v 0.04070680 0.18316000 0.59356700
v 0.00008492 0.21589300 0.81847900
v 0.17640900 0.06440060 0.59356700
v 0.20118700 0.08141150 0.81847900
v 0.20570800 0.06106180 0.81847900
v 0.14465900 0.00001271 0.81847900
v 0.00008492 0.14465800 0.81847900
v 0.06438700 0.17639800 0.59356700
v 0.02036410 0.21589300 0.81847900
v 0.08141310 0.20120600 0.81847900
v 0.16622700 0.08483490 0.59356700
v 0.19842000 0.08834270 0.81847900
v 0.08483520 0.16623400 0.59356700
v 0.08834180 0.19841700 0.81847900
v 0.14586300 0.12551300 0.59356700
v 0.17807700 0.12904200 0.81847900
v 0.12543600 0.14588400 0.59356700
v 0.12902700 0.17806700 0.81847900
v 0.12556300 0.14577800 0.59356700
v 0.14537700 0.16572700 0.81847900
v 0.16574100 0.14537700 0.81847900
v 0.12549900 0.14584200 0.59361100
f 10 19 20
f 9 20 19
f 9 15 20
f 9 22 15
f 9 23 22
f 9 27 23
f 9 34 33
f 9 33 31
f 9 29 34
f 9 25 29
f 9 17 25
f 10 20 11
f 9 18 17
f 9 31 27
f 14 22 23
f 28 33 34
f 16 24 25
f 8 18 9
f 32 35 33
f 30 33 35
f 30 31 33
f 30 35 32
f 28 34 29
f 14 23 21
f 28 32 33
f 26 27 31
f 24 29 25
f 24 28 29
f 21 27 26
f 21 23 27
f 16 25 17
f 26 31 30
f 8 17 18
f 1 21 26
f 7 22 14
f 8 16 17
f 1 2 3
f 1 3 7
f 1 7 14
f 1 14 21
f 1 26 30
f 1 30 32
f 1 32 28
f 1 24 16
f 1 16 8
f 1 8 4
f 1 4 9
f 1 9 19
f 1 19 10
f 1 10 5
f 1 28 24
f 1 6 2
f 7 15 22
f 1 5 6
f 5 13 6
f 5 12 13
f 5 11 12
f 4 8 9
f 2 7 3
f 5 10 11
f 2 20 15
f 2 11 20
f 2 12 11
f 2 13 12
f 2 6 13
f 2 15 7

