# https://github.com/mikedh/trimesh
v 0.00003927 0.26793400 0.45625000
v 0.00003927 0.27138600 0.45448300
v -0.05772660 0.26793400 0.45625000
v 0.00003927 0.26793400 0.35445800
v -0.05430170 0.27138600 0.45448300
v 0.00003927 0.31209400 0.41378700
v -0.08311620 0.26793400 0.44436200
v -0.18828200 0.29511500 0.37646500
v -0.37331500 0.26793400 -0.09078040
v 0.00003927 0.45308800 -0.06309690
v -0.05430170 0.29174000 0.43413500
v -0.03393530 0.31209400 0.41378700
v 0.00003927 0.33242200 0.39344000
v -0.20061100 0.26793400 0.38583600
v -0.20864800 0.27476100 0.37646500
v -0.20522400 0.26793400 0.38331900
v -0.09498900 0.33242200 0.37309200
v -0.12722800 0.33582300 0.35611800
v -0.20864800 0.33582300 0.31542300
v -0.46638000 0.26793400 -0.09078040
v 0.00003927 0.46541300 -0.09078040
v -0.07466820 0.35277600 0.35274400
v -0.01356880 0.33242200 0.39344000
v -0.05430170 0.37313000 0.33239700
v 0.00003927 0.39683300 0.30535600
v -0.22559000 0.26793400 0.36297200
v -0.33071000 0.27476100 0.25438000
v -0.10855100 0.33922400 0.35954500
v -0.12722800 0.39688500 0.27472700
v -0.20864800 0.37653100 0.25438000
v -0.26965700 0.33582300 0.25438000
v -0.46441700 0.27192300 -0.09078040
v -0.46638000 0.26793400 -0.07803630
v 0.00003927 0.50103200 -0.09078040
v -0.08823060 0.35957800 0.33919700
v -0.06786420 0.37993100 0.31885000
v -0.04749770 0.42061400 0.25775300
v 0.00003927 0.46809800 0.16286900
v -0.04073930 0.46809800 0.16286900
v -0.30025200 0.26793400 0.28827500
v -0.32728500 0.26793400 0.26118000
v -0.32057300 0.26793400 0.26792700
v -0.31034400 0.31546900 0.23403200
v -0.33071000 0.33582300 0.17304300
v -0.35107700 0.29511500 0.19333700
v -0.37308700 0.27138600 0.18316300
v -0.36966200 0.26793400 0.19344400
v -0.34938700 0.26793400 0.22717800
v -0.09498900 0.39348400 0.29170200
v -0.10855100 0.40026000 0.27810100
v -0.14928400 0.42061400 0.21705800
v -0.16791600 0.41721300 0.21368400
v -0.18828200 0.39688500 0.23403200
v -0.16791600 0.43756700 0.17304300
v -0.20864800 0.41721300 0.17304300
v -0.24929000 0.39688500 0.17304300
v -0.24929000 0.37653100 0.21368400
v -0.46300100 0.27476100 -0.07118240
v -0.46131100 0.27816200 -0.08135620
v -0.46131100 0.27816200 -0.09078040
v -0.45181300 0.26793400 -0.01528000
v -0.00000639 0.52913400 -0.09078040
v 0.00003927 0.52913400 -0.08135620
v -0.04749770 0.46129600 0.17641600
v 0.00003927 0.48845200 0.12212000
v -0.00000639 0.48845200 0.12212000
v -0.12211400 0.48845200 0.08142480
v -0.10179300 0.46809800 0.14246800
v -0.10855100 0.46129600 0.15606900
v -0.33071000 0.35617700 0.13229400
v -0.35276600 0.35277600 0.10177200
v -0.34089300 0.33582300 0.15269500
v -0.37395500 0.28493800 0.16286900
v -0.37998200 0.26793400 0.17288200
v -0.41382000 0.27138600 0.10177200
v -0.14928400 0.44094200 0.17641600
v -0.12722800 0.45792100 0.15269500
v -0.16540400 0.44265500 0.16286900
v -0.18828200 0.43756700 0.15269500
v -0.24929000 0.41721300 0.13229400
v -0.28997700 0.39688500 0.11194600
v -0.22896900 0.43756700 0.11194600
v -0.45537500 0.28493800 -0.06100860
v -0.45450700 0.29174000 -0.08135620
v -0.44263400 0.27476100 0.01020810
v -0.45765800 0.28547500 -0.09078040
v -0.43459700 0.26793400 0.05101050
v -0.09078780 0.52913400 -0.09078040
v 0.00003927 0.52913400 -0.02031330
v 0.00003927 0.50880600 0.06107720
v -0.00000639 0.50880600 0.06107720
v -0.06106010 0.50880600 0.04072960
v -0.10179300 0.50880600 0.02038190
v -0.12467100 0.50371700 0.02038190
v -0.14503800 0.50371700 0.00003432
v -0.20609100 0.46300900 0.06107720
v -0.22645800 0.44265500 0.10177200
v -0.12891800 0.48165000 0.09502560
v -0.12467100 0.46300900 0.14246800
v -0.31203300 0.39348400 0.08142480
v -0.33240000 0.39348400 0.04072960
v -0.37308700 0.37313000 0.00003432
v -0.37395500 0.34600000 0.06107720
v -0.39345400 0.33242200 0.04072960
v -0.39345400 0.31209400 0.08142480
v -0.37395500 0.32564600 0.10177200
v -0.36121400 0.33582300 0.11194600
v -0.35107700 0.33582300 0.13229400
v -0.40194700 0.29511500 0.09159870
v -0.39432100 0.28493800 0.12212000
v -0.39002900 0.26793400 0.15280200
v -0.41464200 0.28493800 0.08142480
v -0.43080700 0.26793400 0.06445060
v -0.41551000 0.26793400 0.10177200
v -0.41039500 0.26793400 0.11205300
v -0.27134600 0.41381200 0.10177200
v -0.25098000 0.43416600 0.08142480
v -0.43500800 0.28493800 0.02038190
v -0.39432100 0.34600000 0.00003432
v -0.39391000 0.36947300 -0.09078040
v -0.45450700 0.29174000 -0.09078040
v -0.41382000 0.33242200 -0.04066100
v -0.08142660 0.52913400 -0.08135620
v -0.11371200 0.52407100 -0.09078040
v -0.14248000 0.50880600 -0.02031330
v -0.00000639 0.52913400 -0.02031330
v -0.04073930 0.52913400 -0.04066100
v -0.24673300 0.46300900 0.00003432
v -0.20609100 0.48336300 -0.02031330
v -0.27134600 0.45452000 -0.02031330
v -0.29171300 0.43416600 0.00003432
v -0.35276600 0.39348400 -0.02031330
v -0.29171300 0.41381200 0.06107720
v -0.36806400 0.39256300 -0.09078040
v -0.38614700 0.37678600 -0.09078040
v -0.41464200 0.30529200 0.04072960
v -0.16284700 0.50880600 -0.09078040
v -0.16284700 0.50880600 -0.08135620
v -0.20353400 0.48845200 -0.04066100
v -0.24422100 0.46809800 -0.02031330
v -0.23152600 0.48257100 -0.09078040
v -0.27216800 0.46221700 -0.09078040
v -0.27883500 0.45830400 -0.09078040
v -0.28664400 0.45359900 -0.09078040
v -0.31203300 0.43416600 -0.06100860
v -0.22527000 0.48569000 -0.09078040
f 71 107 108
f 71 106 107
f 71 105 106
f 71 104 105
f 71 103 104
f 71 102 103
f 70 100 71
f 71 100 101
f 70 81 100
f 69 77 76
f 69 99 77
f 71 108 72
f 69 98 99
f 71 101 102
f 72 108 106
f 77 99 78
f 72 109 73
f 68 98 69
f 80 116 100
f 80 82 116
f 79 97 82
f 78 97 79
f 78 98 97
f 78 99 98
f 75 110 112
f 75 115 111
f 75 114 115
f 75 113 114
f 75 112 113
f 74 75 111
f 73 110 75
f 73 109 110
f 72 106 109
f 67 98 68
f 58 84 59
f 67 96 97
f 80 100 81
f 58 83 84
f 56 82 80
f 56 79 82
f 56 81 70
f 56 80 81
f 58 61 85
f 55 79 56
f 54 78 79
f 54 77 78
f 54 76 77
f 52 54 53
f 51 54 52
f 51 76 54
f 54 79 55
f 58 85 118
f 58 118 83
f 59 84 86
f 67 95 96
f 67 94 95
f 67 93 94
f 67 92 93
f 66 92 67
f 66 91 92
f 65 91 66
f 65 90 91
f 62 89 63
f 62 126 89
f 62 127 126
f 62 123 127
f 62 88 123
f 61 87 85
f 59 86 60
f 67 97 98
f 82 97 117
f 95 139 129
f 83 118 119
f 124 137 138
f 118 136 119
f 116 131 133
f 116 130 131
f 116 117 130
f 112 118 113
f 124 138 125
f 112 136 118
f 106 108 107
f 106 112 109
f 105 136 112
f 105 112 106
f 104 136 105
f 104 119 136
f 109 112 110
f 102 122 119
f 125 138 139
f 128 140 130
f 50 76 51
f 139 146 140
f 138 146 139
f 137 146 138
f 134 145 144
f 132 145 134
f 128 129 140
f 130 132 131
f 130 144 145
f 130 143 144
f 130 142 143
f 130 141 142
f 130 140 141
f 129 139 140
f 130 145 132
f 102 120 122
f 102 135 120
f 102 134 135
f 92 127 93
f 92 126 127
f 91 126 92
f 89 91 90
f 89 126 91
f 88 125 123
f 93 95 94
f 88 124 125
f 85 87 118
f 84 122 120
f 84 119 122
f 84 121 86
f 84 120 121
f 83 119 84
f 87 113 118
f 93 127 123
f 93 123 125
f 93 125 95
f 102 132 134
f 102 104 103
f 102 119 104
f 101 133 131
f 101 132 102
f 101 131 132
f 100 133 101
f 140 146 141
f 100 116 133
f 97 130 117
f 97 128 130
f 96 128 97
f 95 129 128
f 95 125 139
f 95 128 96
f 82 117 116
f 50 69 76
f 6 23 12
f 46 75 74
f 9 20 32
f 8 19 15
f 8 18 19
f 8 17 18
f 8 11 17
f 8 16 14
f 9 32 60
f 8 15 16
f 6 13 23
f 5 11 8
f 4 9 10
f 3 8 7
f 3 5 8
f 2 11 5
f 7 8 14
f 2 12 11
f 9 60 86
f 9 121 120
f 9 21 10
f 9 34 21
f 9 62 34
f 9 88 62
f 9 124 88
f 9 137 124
f 9 86 121
f 9 146 137
f 9 142 141
f 9 143 142
f 9 144 143
f 9 134 144
f 9 135 134
f 9 120 135
f 9 141 146
f 11 12 24
f 2 6 12
f 1 13 6
f 1 74 111
f 1 47 74
f 1 48 47
f 1 41 48
f 1 42 41
f 1 40 42
f 1 111 115
f 1 26 40
f 1 14 16
f 1 7 14
f 1 3 7
f 1 5 3
f 1 2 5
f 50 64 69
f 1 16 26
f 1 6 2
f 1 115 114
f 1 113 87
f 1 25 13
f 1 38 25
f 1 65 38
f 1 90 65
f 1 89 90
f 1 63 89
f 1 114 113
f 1 34 63
f 1 10 21
f 1 4 10
f 1 9 4
f 1 20 9
f 1 33 20
f 1 61 33
f 1 21 34
f 11 24 22
f 1 87 61
f 12 23 24
f 36 37 49
f 35 36 49
f 34 62 63
f 33 61 58
f 32 59 60
f 32 58 59
f 37 50 49
f 32 33 58
f 31 57 44
f 30 57 31
f 30 56 57
f 30 55 56
f 30 54 55
f 30 53 54
f 31 44 43
f 29 53 30
f 37 39 64
f 38 65 66
f 11 22 17
f 46 73 75
f 46 74 47
f 45 73 46
f 45 72 73
f 44 57 56
f 37 64 50
f 44 72 45
f 44 70 71
f 44 56 70
f 39 68 69
f 39 67 68
f 39 66 67
f 38 66 39
f 44 71 72
f 29 52 53
f 39 69 64
f 29 50 51
f 22 24 36
f 20 33 32
f 19 43 27
f 19 31 43
f 19 30 31
f 19 29 30
f 18 29 19
f 18 28 29
f 17 35 28
f 17 22 35
f 15 27 26
f 15 19 27
f 15 26 16
f 29 51 52
f 13 25 23
f 22 36 35
f 23 25 24
f 17 28 18
f 27 47 48
f 28 35 49
f 27 48 41
f 27 46 47
f 27 45 46
f 24 25 36
f 27 43 44
f 27 44 45
f 28 49 50
f 27 41 42
f 26 27 40
f 25 39 37
f 25 38 39
f 25 37 36
f 27 42 40
f 28 50 29

