# https://github.com/mikedh/trimesh
v 0.46443700 0.00212726 -0.08923410
v 0.29131700 0.35296900 -0.08923410
v 0.52913600 0.00212726 -0.08923410
v 0.45123700 0.00212726 -0.05786640
v 0.29131700 0.44915200 -0.08923410
v 0.29674100 0.00212726 0.31706000
v 0.29131700 0.00212726 0.33115500
v 0.52913600 0.08143100 -0.08923410
v 0.52913600 0.00212726 -0.04069610
v 0.29131700 0.45473400 -0.08918290
v 0.29173600 0.45451300 -0.08923410
v 0.29131700 0.00212726 0.43438200
v 0.52664500 0.09928540 -0.08923410
v 0.52913600 0.08143100 -0.08139220
v 0.52913600 0.04071580 -0.04069610
v 0.52871700 0.00212726 -0.02075810
v 0.29131700 0.45473400 -0.07498540
v 0.29173600 0.45451300 -0.07457530
v 0.37198700 0.39231000 -0.08923410
v 0.29173600 0.00212726 0.43417700
v 0.29131700 0.06747530 0.43438200
v 0.51779800 0.13114000 -0.08923410
v 0.50878800 0.16286100 -0.08139220
v 0.50878800 0.14248200 -0.02034810
v 0.50878800 0.12214600 0.00005124
v 0.52913600 0.06109550 -0.06104420
v 0.50878800 0.10176600 0.02039930
v 0.50878800 0.06109550 0.04074730
v 0.50836900 0.00212726 0.06063410
v 0.29131700 0.43377900 0.00881576
v 0.29173600 0.43417700 0.00681682
v 0.31208400 0.43417700 -0.05422730
v 0.39233500 0.37197500 -0.08923410
v 0.35278000 0.39346200 -0.01353120
v 0.37312800 0.37308300 0.00681682
v 0.29173600 0.06787400 0.43417700
v 0.31208400 0.00212726 0.41382900
v 0.29131700 0.06796260 0.43422800
v 0.50878800 0.16286100 -0.08923410
v 0.48594900 0.22138600 -0.08923410
v 0.48844000 0.20353200 -0.04069610
v 0.49861400 0.15267100 0.01019960
v 0.50541300 0.13911400 -0.00338281
v 0.50541300 0.11873500 0.01696520
v 0.48844000 0.12214600 0.08144340
v 0.48844000 0.06109550 0.10179100
v 0.48802100 0.00212726 0.12172900
v 0.29131700 0.41339900 0.06985990
v 0.29173600 0.41379800 0.06786100
v 0.31208400 0.39346200 0.08820900
v 0.30868500 0.41043100 0.04413010
v 0.33243200 0.39346200 0.04751290
v 0.39349900 0.35274700 -0.01353120
v 0.41382300 0.33241200 -0.03387930
v 0.43417100 0.31203200 -0.05422730
v 0.45337900 0.29054500 -0.08923410
v 0.35617900 0.35615800 0.09159180
v 0.39349900 0.33241200 0.04751290
v 0.31208400 0.04749430 0.41382900
v 0.37312800 0.06787400 0.33238600
v 0.33243200 0.10858900 0.37308200
v 0.29511200 0.19338700 0.37651600
v 0.33243200 0.00212726 0.39343000
v 0.29131700 0.18957600 0.37841200
v 0.47372700 0.24982900 -0.08923410
v 0.46809200 0.24420300 -0.02034810
v 0.47826600 0.21372200 -0.01014840
v 0.45791800 0.25439300 0.01019960
v 0.45791800 0.21372200 0.07124380
v 0.43757100 0.23401300 0.11194000
v 0.43757100 0.21372200 0.13233900
v 0.47149200 0.14589300 0.10517400
v 0.43757100 0.17300700 0.17298400
v 0.45791800 0.13229200 0.15268700
v 0.46809200 0.10176600 0.14248800
v 0.46809200 0.04071580 0.16283600
v 0.47719500 0.00212726 0.14464000
v 0.29131700 0.39873400 0.10814700
v 0.29511200 0.39682900 0.11194000
v 0.33583100 0.35615800 0.13233900
v 0.35278000 0.35274700 0.10855700
v 0.45451900 0.27136100 -0.01353120
v 0.43757100 0.25439300 0.07124380
v 0.39349900 0.31203200 0.08820900
v 0.39687500 0.29510800 0.11194000
v 0.33243200 0.02715890 0.39343000
v 0.39349900 0.00682346 0.31203700
v 0.39349900 0.10858900 0.29168900
v 0.33243200 0.18997500 0.33238600
v 0.29131700 0.19338700 0.37651600
v 0.33583100 0.21372200 0.31542000
v 0.31548300 0.29510800 0.25437600
v 0.31548300 0.31544300 0.23402800
v 0.29511200 0.31544300 0.25437600
v 0.39582700 0.00212726 0.30737300
v 0.43077200 0.24761400 0.10517400
v 0.41719900 0.25439300 0.13233900
v 0.37652700 0.25439300 0.21368000
v 0.43757100 0.19338700 0.15268700
v 0.39687500 0.19338700 0.23402800
v 0.41719900 0.17300700 0.21368000
v 0.39687500 0.13229200 0.27472400
v 0.45451900 0.10858900 0.16965200
v 0.45451900 0.04749430 0.18994900
v 0.41382300 0.04749430 0.27134100
v 0.40919000 0.00212726 0.28067000
v 0.29131700 0.39306300 0.11952600
v 0.29511200 0.37649400 0.15268700
v 0.29511200 0.35615800 0.19333200
v 0.33583100 0.33577900 0.17298400
v 0.35617900 0.33577900 0.13233900
v 0.37652700 0.29510800 0.15268700
v 0.29131700 0.31544300 0.25437600
v 0.37652700 0.21372200 0.25437600
v 0.33583100 0.27472800 0.25437600
v 0.35617900 0.29510800 0.19333200
v 0.29173600 0.33241200 0.23064500
v 0.29131700 0.31920900 0.25058300
v 0.29131700 0.37839900 0.14889400
v 0.29131700 0.35615800 0.19333200
v 0.29131700 0.33250000 0.23069700
f 62 91 92
f 62 89 91
f 62 90 64
f 61 88 89
f 61 89 62
f 60 86 87
f 60 87 88
f 59 86 60
f 58 85 83
f 62 92 93
f 58 84 85
f 60 88 61
f 62 93 94
f 68 70 69
f 62 113 90
f 63 87 86
f 63 95 87
f 65 82 66
f 66 82 68
f 68 83 96
f 70 97 71
f 70 96 97
f 71 97 98
f 71 98 114
f 71 114 99
f 58 81 84
f 62 94 113
f 58 68 82
f 45 76 46
f 57 81 58
f 42 69 45
f 42 45 43
f 43 45 44
f 45 69 70
f 45 70 71
f 45 71 72
f 45 72 73
f 45 73 74
f 45 74 75
f 45 75 76
f 71 99 72
f 46 76 47
f 58 83 68
f 47 76 77
f 48 79 49
f 49 79 50
f 50 52 51
f 50 79 80
f 50 80 81
f 50 81 52
f 52 81 57
f 53 82 54
f 53 58 82
f 54 82 55
f 55 82 56
f 56 82 65
f 48 78 79
f 72 99 73
f 80 110 81
f 73 100 101
f 91 114 98
f 91 98 115
f 91 115 93
f 91 93 92
f 93 115 98
f 93 98 116
f 93 116 110
f 93 110 109
f 93 109 94
f 94 109 117
f 94 117 118
f 94 118 113
f 91 102 114
f 97 112 98
f 99 114 100
f 100 114 102
f 100 102 101
f 103 105 104
f 107 119 108
f 108 119 109
f 109 120 121
f 109 121 117
f 109 119 120
f 110 116 112
f 110 112 111
f 117 121 118
f 98 112 116
f 73 99 100
f 88 105 103
f 88 102 91
f 73 101 102
f 73 102 74
f 74 102 88
f 74 88 103
f 74 103 75
f 75 103 76
f 76 103 104
f 76 104 105
f 76 105 106
f 76 106 77
f 78 107 79
f 79 107 108
f 88 91 89
f 79 108 80
f 80 109 110
f 42 68 69
f 81 110 111
f 81 111 84
f 83 85 97
f 83 97 96
f 84 111 85
f 85 111 112
f 85 112 97
f 87 95 106
f 87 106 105
f 87 105 88
f 80 108 109
f 42 67 68
f 68 96 70
f 41 68 67
f 2 21 38
f 2 38 64
f 2 64 90
f 2 90 113
f 2 113 118
f 2 118 121
f 2 121 120
f 2 120 119
f 2 119 107
f 2 107 78
f 2 78 48
f 2 48 30
f 2 12 21
f 2 30 17
f 2 10 5
f 3 8 14
f 3 14 26
f 3 26 15
f 3 15 9
f 5 10 11
f 8 13 14
f 9 15 16
f 10 17 18
f 10 18 11
f 11 18 19
f 12 20 36
f 2 17 10
f 2 7 12
f 2 6 7
f 2 4 6
f 41 65 66
f 1 2 5
f 1 5 11
f 1 11 19
f 1 19 33
f 1 33 56
f 1 56 65
f 1 65 40
f 1 40 39
f 1 39 22
f 1 22 13
f 1 13 8
f 1 8 3
f 1 3 9
f 1 9 16
f 1 16 29
f 1 29 47
f 1 47 77
f 1 77 106
f 1 106 95
f 1 95 63
f 1 63 37
f 1 37 20
f 1 20 12
f 1 12 7
f 1 6 4
f 1 4 2
f 12 36 21
f 13 22 23
f 1 7 6
f 13 24 14
f 28 46 47
f 28 47 29
f 30 48 49
f 30 49 31
f 31 49 50
f 31 50 51
f 31 51 52
f 31 52 34
f 31 34 32
f 33 53 54
f 33 54 55
f 33 55 56
f 28 45 46
f 34 52 35
f 35 57 58
f 35 58 53
f 36 59 60
f 36 60 61
f 36 61 62
f 36 62 38
f 37 63 86
f 37 86 59
f 38 62 64
f 40 65 41
f 13 23 24
f 41 66 68
f 35 52 57
f 27 45 28
f 33 35 53
f 25 44 27
f 14 24 25
f 14 25 26
f 27 44 45
f 15 26 25
f 15 25 27
f 15 27 28
f 15 28 16
f 16 28 29
f 17 31 18
f 18 32 19
f 18 31 32
f 19 32 34
f 19 34 35
f 17 30 31
f 20 37 59
f 20 59 36
f 21 36 38
f 22 39 23
f 23 39 40
f 23 40 41
f 23 41 24
f 24 43 25
f 24 41 67
f 24 67 42
f 24 42 43
f 25 43 44
f 19 35 33

