# https://github.com/mikedh/trimesh
v 0.26751900 -0.27141300 0.16656500
v 0.26751900 -0.27141300 0.31736200
v 0.00008493 -0.27141300 0.35267900
v 0.00008493 -0.25778400 0.35957600
v 0.25778000 0.00212726 0.35957600
v 0.26668100 0.00212726 0.35510400
v 0.26751900 0.00212726 0.35472700
v 0.25440400 -0.26964600 0.33583600
v 0.25322600 -0.27141300 0.33466600
v 0.26751900 -0.23981800 0.34896000
v 0.25440400 -0.22894700 0.37654500
v 0.00008493 -0.27141300 0.45440900
v 0.00008493 -0.21708500 0.40024200
v 0.19673400 0.00212726 0.42059700
v 0.21707400 0.00212726 0.40024200
v 0.26751900 0.00212726 0.45645700
v 0.23288500 -0.27141300 0.35502000
v 0.12545100 -0.14591500 0.59354500
v 0.21369700 -0.26964600 0.37654500
v 0.26751900 -0.21944200 0.36931400
v 0.25440400 -0.20859700 0.39685700
v 0.06107950 -0.27141300 0.45440900
v 0.00008493 -0.27136000 0.45453400
v 0.00008493 -0.19673600 0.42059700
v 0.15424700 0.00212726 0.50021700
v 0.18314700 0.00212726 0.59354500
v 0.26751900 -0.05811800 0.45645700
v 0.21251900 -0.27141300 0.37537400
v 0.13456100 -0.13622300 0.59354500
v 0.08364490 -0.16808600 0.59354500
v 0.26751900 -0.19909200 0.38962600
v 0.26751900 -0.18642700 0.40045100
v 0.06107950 -0.27136000 0.45453400
v 0.10170800 -0.27141300 0.43413800
v 0.00008493 -0.18316000 0.59354500
v 0.00008493 -0.18993500 0.43418000
v 0.13388000 0.00212726 0.54092500
v 0.12212600 0.00212726 0.59354500
v 0.18314700 -0.04071380 0.59354500
v 0.17890600 -0.05985840 0.59354500
v 0.19744000 -0.27141300 0.38515400
v 0.14780700 -0.11777400 0.59354500
v 0.08141980 -0.16918400 0.59354500
v 0.15854000 -0.10058400 0.59354500
v 0.15744000 -0.10278000 0.59354500
v 0.15605300 -0.10516300 0.59354500
v 0.04071310 -0.18316000 0.59354500
v 0.10178600 -0.27136000 0.43418000
v 0.18306900 -0.27141300 0.39343000
v 0.00008493 -0.12213900 0.59354500
v 0.00008493 -0.14240800 0.52913900
v 0.00008493 -0.12213900 0.56984800
v 0.12212600 0.00212726 0.56984800
v 0.18314700 -0.27136000 0.39347200
f 18 50 35
f 18 35 47
f 18 47 43
f 18 43 30
f 21 32 29
f 18 28 19
f 18 21 29
f 21 31 32
f 18 38 50
f 18 30 28
f 18 26 38
f 18 42 46
f 18 40 39
f 18 44 40
f 18 45 44
f 18 46 45
f 18 29 42
f 17 19 28
f 16 39 27
f 16 26 39
f 14 24 25
f 13 24 14
f 18 39 26
f 22 34 33
f 47 48 54
f 24 36 37
f 12 33 23
f 43 47 54
f 41 43 54
f 41 54 49
f 38 52 50
f 38 53 52
f 37 52 53
f 37 51 52
f 36 51 37
f 34 54 48
f 34 49 54
f 33 48 47
f 33 34 48
f 32 46 42
f 32 45 46
f 32 44 45
f 32 40 44
f 30 43 41
f 29 32 42
f 28 30 41
f 27 40 32
f 27 39 40
f 24 37 25
f 23 47 35
f 12 22 33
f 23 33 47
f 11 31 21
f 2 11 8
f 2 10 11
f 2 8 9
f 1 10 2
f 1 20 10
f 1 31 20
f 1 32 31
f 1 27 32
f 1 16 27
f 1 7 16
f 1 6 7
f 1 5 6
f 1 4 5
f 1 3 4
f 1 12 3
f 1 22 12
f 1 34 22
f 1 49 34
f 1 41 49
f 1 28 41
f 1 17 28
f 1 2 9
f 11 21 18
f 3 12 23
f 3 23 35
f 1 9 17
f 3 35 50
f 10 20 11
f 11 20 31
f 8 19 17
f 8 18 19
f 8 11 18
f 8 17 9
f 5 7 6
f 5 26 16
f 5 38 26
f 5 53 38
f 5 37 53
f 5 16 7
f 5 14 25
f 3 50 52
f 5 25 37
f 3 51 36
f 3 36 24
f 3 24 13
f 3 52 51
f 4 13 14
f 4 14 15
f 4 15 5
f 5 15 14
f 3 13 4

