# https://github.com/mikedh/trimesh
v 0.04071450 0.30528400 0.89549200
v 0.05427760 0.29849400 0.88871600
v 0.04071450 0.29849400 0.88192900
v 0.00008493 0.30528400 0.89549200
v 0.03393290 0.29849400 0.90906700
v 0.04749600 0.29170400 0.92263100
v 0.11196600 0.27474300 0.92601800
v 0.10177800 0.28491400 0.89549200
v 0.05090170 0.29508500 0.88023500
v 0.11534100 0.27812400 0.88871600
v 0.11196600 0.27474300 0.88023500
v 0.02036980 0.21587600 0.81849100
v 0.00008493 0.29849400 0.88192900
v 0.00008493 0.29849400 0.90906700
v 0.00008493 0.29505700 0.91593500
v 0.00008493 0.29170400 0.92263100
v 0.00008493 0.28499900 0.92598400
v 0.08143360 0.26457200 0.93619400
v 0.07465210 0.27812400 0.92941800
v 0.12890400 0.27136200 0.90228000
v 0.15265500 0.25440100 0.92601800
v 0.14246800 0.26457200 0.89549200
v 0.08143360 0.20118800 0.81849100
v 0.15603100 0.25778200 0.88871600
v 0.08836450 0.19843200 0.81849100
v 0.15265500 0.25440100 0.88023500
v 0.00008493 0.21587600 0.81849100
v 0.00008493 0.26457200 0.93619400
v 0.16281200 0.22386000 0.93619400
v 0.16959400 0.25099200 0.90228000
v 0.17975100 0.22047900 0.93280600
v 0.21368900 0.21368900 0.92601800
v 0.21706500 0.21706900 0.88871600
v 0.12905400 0.17806200 0.81849100
v 0.21368900 0.21368900 0.88023500
v 0.00008493 0.14467900 0.81849100
v 0.00008493 0.24420200 0.93619400
v 0.18315700 0.20351800 0.93619400
v 0.20012600 0.20010800 0.93280600
v 0.22047000 0.17976600 0.93280600
v 0.25437800 0.15266300 0.92601800
v 0.23065700 0.18993700 0.92263100
v 0.25100200 0.16959500 0.90228000
v 0.25778400 0.15604300 0.88871600
v 0.14539500 0.16573100 0.81849100
v 0.25437800 0.15266300 0.88023500
v 0.17807800 0.12905300 0.81849100
v 0.16574000 0.14541800 0.81849100
v 0.00008493 0.14928200 0.82772100
v 0.14467800 0.01504160 0.81849100
v 0.15423800 0.01504160 0.83768900
v 0.15603100 0.01504160 0.84123900
v 0.00008493 0.21706900 0.92263100
v 0.24422100 0.01504160 0.93619400
v 0.22384600 0.16280500 0.93619400
v 0.27475200 0.11195000 0.92601800
v 0.24422100 0.12212100 0.93619400
v 0.27134700 0.12891100 0.90228000
v 0.26456500 0.14249200 0.89549200
v 0.27812800 0.11533100 0.88871600
v 0.27475200 0.11195000 0.88023500
v 0.19842300 0.08834090 0.81849100
v 0.00008493 0.15604300 0.84123900
v 0.21159700 0.01504160 0.81849100
v 0.19672000 0.01504160 0.90228000
v 0.00008493 0.19672700 0.90228000
v 0.21706500 0.01504160 0.92263100
v 0.24066600 0.01504160 0.93443100
v 0.26456500 0.01504160 0.93619400
v 0.26456500 0.08143720 0.93619400
v 0.27812800 0.07464700 0.92941800
v 0.29169100 0.04751490 0.92263100
v 0.30528400 0.04072480 0.89549200
v 0.28491000 0.10177900 0.89549200
v 0.29847300 0.05427660 0.88871600
v 0.29509700 0.05089580 0.88023500
v 0.20120100 0.08143720 0.81849100
v 0.20571200 0.06106680 0.81849100
v 0.29847300 0.04072480 0.88192900
v 0.29847300 0.01504160 0.88192900
v 0.27520100 0.01504160 0.93089300
v 0.29169100 0.01504160 0.92263100
v 0.29775600 0.01504160 0.91054200
v 0.30528400 0.01504160 0.89549200
f 41 43 42
f 41 55 57
f 41 57 56
f 43 56 58
f 43 58 59
f 43 59 44
f 44 59 74
f 46 61 47
f 44 60 61
f 44 61 46
f 47 61 62
f 49 52 63
f 50 64 80
f 50 80 84
f 41 56 43
f 50 83 82
f 44 74 60
f 50 84 83
f 35 44 46
f 38 55 40
f 30 32 33
f 50 82 81
f 31 39 32
f 32 40 41
f 32 41 42
f 32 42 43
f 32 43 33
f 32 39 40
f 40 55 41
f 33 43 44
f 34 35 45
f 35 46 47
f 35 47 48
f 35 48 45
f 36 50 51
f 36 51 52
f 36 52 49
f 37 53 54
f 33 44 35
f 50 81 69
f 60 76 61
f 50 54 68
f 64 78 76
f 64 76 79
f 64 79 80
f 65 67 66
f 69 81 70
f 70 81 71
f 71 81 72
f 72 81 82
f 72 82 83
f 72 83 73
f 73 83 84
f 73 84 80
f 73 80 79
f 73 79 76
f 73 76 75
f 76 78 77
f 29 39 31
f 63 65 66
f 50 69 54
f 61 77 62
f 60 75 76
f 50 68 67
f 50 67 65
f 50 65 52
f 50 52 51
f 52 65 63
f 53 66 67
f 53 67 68
f 53 68 54
f 56 57 70
f 56 70 71
f 56 71 72
f 56 72 73
f 56 73 74
f 56 74 58
f 58 74 59
f 60 74 73
f 60 73 75
f 61 76 77
f 29 40 39
f 10 24 26
f 26 35 34
f 4 66 53
f 4 53 37
f 4 37 28
f 4 28 17
f 4 17 16
f 4 16 15
f 4 15 14
f 5 14 15
f 5 15 6
f 6 15 16
f 6 16 17
f 6 17 18
f 6 18 19
f 6 19 7
f 7 20 8
f 7 19 18
f 7 18 21
f 4 63 66
f 7 21 20
f 4 49 63
f 4 13 27
f 29 38 40
f 1 2 3
f 1 3 13
f 1 13 4
f 1 4 14
f 1 14 5
f 1 5 6
f 1 6 7
f 1 7 8
f 1 8 10
f 1 10 2
f 2 9 3
f 2 10 11
f 2 11 9
f 3 9 12
f 3 12 27
f 3 27 13
f 4 27 36
f 8 20 22
f 4 36 49
f 8 24 10
f 18 54 69
f 18 69 70
f 18 70 57
f 18 57 55
f 18 55 38
f 18 38 29
f 20 21 30
f 20 30 24
f 20 24 22
f 21 29 31
f 21 31 32
f 21 32 30
f 24 30 33
f 24 33 35
f 24 35 26
f 8 22 24
f 25 26 34
f 18 37 54
f 18 28 37
f 18 29 21
f 17 28 18
f 9 23 12
f 9 11 23
f 10 26 11
f 11 25 23
f 11 26 25
f 12 25 34
f 12 34 45
f 12 45 48
f 12 23 25
f 12 47 62
f 12 62 77
f 12 36 27
f 12 77 78
f 12 78 64
f 12 64 50
f 12 48 47
f 12 50 36

