# https://github.com/mikedh/trimesh
v -0.50541900 -0.00106811 -0.47263800
v -0.44548100 -0.00106811 -0.47263800
v -0.50772900 -0.00106811 -0.46916200
v -0.50564600 -0.00040126 -0.47263800
v -0.33575200 0.28278700 -0.47263800
v -0.33688700 0.28278700 -0.44774400
v -0.44773400 -0.00106811 -0.42737300
v -0.50858100 -0.00106811 -0.46785400
v -0.50878900 0.00001553 -0.46807800
v -0.50653600 0.00229392 -0.47263800
v -0.41717800 0.28278700 -0.47263800
v -0.35723900 0.28278700 -0.09078030
v -0.46566200 -0.00106811 -0.09078030
v -0.52893200 -0.00106811 -0.38644400
v -0.50878900 0.02035440 -0.46807800
v -0.52914100 0.00001553 -0.38666800
v -0.50653600 0.02263280 -0.47263800
v -0.43285300 0.25955800 -0.47263800
v -0.43417800 0.27133900 -0.44774400
v -0.42577300 0.28278700 -0.44774400
v -0.45899800 0.28278700 -0.09078030
v -0.52914100 -0.00106811 -0.09078030
v -0.52914100 -0.00106811 -0.36633400
v -0.50878900 0.06105990 -0.44774400
v -0.48843700 0.13794200 -0.47263800
v -0.52914100 0.02035440 -0.36633400
v -0.50878900 0.12213200 -0.40703900
v -0.44038800 0.24788900 -0.47263800
v -0.44266000 0.26711600 -0.42737300
v -0.43671500 0.28278700 -0.41466400
v -0.44266000 0.24674900 -0.46807800
v -0.45899800 0.28278700 -0.30525800
v -0.50371500 0.19334600 -0.13230800
v -0.46443100 0.27189500 -0.09078030
v -0.52914100 0.08142660 -0.09078030
v -0.48732000 0.14302700 -0.47263800
v -0.52914100 0.10176500 -0.28492400
v -0.50878900 0.14244300 -0.38666800
v -0.50371500 0.14499900 -0.40703900
v -0.44228100 0.24466500 -0.47263800
v -0.46301200 0.22641000 -0.42737300
v -0.46301200 0.24674900 -0.38666800
v -0.45453000 0.27133900 -0.36633400
v -0.43864600 0.28278700 -0.40703900
v -0.44379600 0.24166500 -0.47263800
v -0.46301200 0.20604400 -0.46807800
v -0.46808500 0.24422100 -0.36633400
v -0.46808500 0.26456000 -0.30525800
v -0.48843700 0.22385400 -0.28492400
v -0.48166000 0.23744100 -0.28492400
v -0.50201100 0.19673600 -0.24425600
v -0.50878900 0.18314900 -0.24425600
v -0.50878900 0.18314900 -0.14247500
v -0.50878900 0.16281000 -0.09078030
v -0.46808500 0.26456000 -0.09078030
v -0.52385900 0.11115700 -0.09078030
v -0.52406700 0.11196300 -0.09160270
v -0.52914100 0.10176500 -0.10177000
v -0.46074000 0.20718300 -0.47263800
v -0.52914100 0.12213200 -0.24425600
v -0.50878900 0.16281000 -0.32562900
v -0.52914100 0.12213200 -0.14247500
v -0.52346100 0.11276800 -0.09078030
f 31 45 46
f 29 31 46
f 29 46 41
f 31 40 45
f 29 44 30
f 32 49 50
f 32 48 49
f 32 43 47
f 32 47 48
f 32 50 51
f 29 43 44
f 32 44 43
f 29 42 43
f 19 31 29
f 28 40 31
f 27 37 38
f 27 39 36
f 27 38 39
f 26 37 27
f 25 27 36
f 24 27 25
f 21 33 34
f 21 32 33
f 19 28 31
f 19 30 20
f 32 51 33
f 19 29 30
f 29 41 42
f 33 51 52
f 52 62 53
f 33 53 54
f 18 28 19
f 56 63 57
f 54 62 58
f 54 57 63
f 54 58 57
f 53 62 54
f 52 60 62
f 52 61 60
f 49 61 52
f 49 51 50
f 49 52 51
f 47 49 48
f 47 61 49
f 33 52 53
f 45 59 46
f 39 42 41
f 39 47 42
f 39 41 46
f 38 60 61
f 38 47 39
f 38 61 47
f 37 60 38
f 36 39 46
f 36 46 59
f 35 57 58
f 35 56 57
f 33 55 34
f 33 54 55
f 42 47 43
f 16 27 24
f 15 25 17
f 16 37 26
f 5 20 30
f 5 11 20
f 3 10 4
f 3 9 10
f 3 8 9
f 2 6 7
f 2 5 6
f 1 5 2
f 1 11 5
f 1 18 11
f 1 28 18
f 1 40 28
f 1 45 40
f 1 59 45
f 1 36 59
f 1 25 36
f 1 17 25
f 1 4 10
f 1 3 4
f 1 8 3
f 1 14 8
f 1 23 14
f 1 22 23
f 1 13 22
f 1 7 13
f 1 2 7
f 16 26 27
f 5 30 44
f 5 44 32
f 1 10 17
f 5 21 12
f 16 60 37
f 5 32 21
f 16 62 60
f 16 58 62
f 16 35 58
f 16 22 35
f 16 23 22
f 15 24 25
f 14 23 16
f 12 22 13
f 12 35 22
f 12 56 35
f 12 63 56
f 15 16 24
f 12 55 54
f 6 12 13
f 5 12 6
f 12 54 63
f 6 13 7
f 8 14 16
f 8 16 9
f 9 17 10
f 9 15 17
f 9 16 15
f 11 18 19
f 11 19 20
f 12 21 34
f 12 34 55

