# https://github.com/mikedh/trimesh
v -0.25107000 -0.46866500 -0.09078030
v -0.26459300 -0.46809500 -0.08136710
v -0.26459300 -0.46809500 -0.09078030
v -0.25107000 -0.38224900 -0.09078030
v -0.25107000 -0.46809500 -0.06789810
v -0.29173900 -0.45451700 -0.08817670
v -0.25107000 -0.46638700 -0.04666820
v -0.25107000 -0.46467800 -0.03725490
v -0.27816600 -0.46129100 -0.07460760
v -0.29173900 -0.45451700 -0.09078030
v -0.42747000 -0.16247800 -0.09078030
v -0.25107000 -0.37817200 -0.08397070
v -0.36823300 -0.39223000 -0.09078030
v -0.29173900 -0.43416400 -0.00676193
v -0.35279300 -0.39345900 -0.02709060
v -0.37991400 -0.37988100 -0.07460760
v -0.25780600 -0.46129100 -0.03390020
v -0.25107000 -0.46213000 -0.02588890
v -0.27816600 -0.44093800 0.00680720
v -0.50880700 -0.16247800 -0.09078030
v -0.25107000 -0.16247800 0.31208700
v -0.39225000 -0.36822100 -0.09078030
v -0.33243300 -0.39345900 0.03394540
v -0.35957900 -0.37988100 0.00680720
v -0.37312700 -0.37310700 -0.00676193
v -0.43418100 -0.31207900 -0.06779790
v -0.25780600 -0.44093800 0.04751460
v -0.25107000 -0.44177800 0.05547580
v -0.25442600 -0.43755100 0.06619090
v -0.27476000 -0.43755100 0.02548350
v -0.31547900 -0.39684600 0.06619090
v -0.31886000 -0.40023300 0.04751460
v -0.50880700 -0.16283700 -0.09078030
v -0.50880700 -0.16247800 -0.08101660
v -0.25107000 -0.16247800 0.42074100
v -0.39701900 -0.36213600 -0.09078030
v -0.35617300 -0.37649400 0.02548350
v -0.35617300 -0.35614100 0.08651950
v -0.35957900 -0.35952800 0.06784320
v -0.37653300 -0.35614100 0.02548350
v -0.39686700 -0.31546600 0.06619090
v -0.37991400 -0.35952800 0.00680720
v -0.41382100 -0.31207900 0.01361680
v -0.45807200 -0.28075600 -0.09078030
v -0.43418100 -0.29172700 -0.00676193
v -0.46130200 -0.25779600 -0.01352150
v -0.25107000 -0.43923000 0.06533970
v -0.25442600 -0.41719900 0.12722700
v -0.29512000 -0.39684600 0.10689800
v -0.48600000 -0.22389500 -0.09078030
v -0.50880700 -0.16283700 -0.08136710
v -0.49879100 -0.16247800 -0.01998060
v -0.28507900 -0.16247800 0.39430300
v -0.28495300 -0.16283700 0.39430300
v -0.25107000 -0.18301000 0.41378100
v -0.33581400 -0.35614100 0.12722700
v -0.35617300 -0.33578900 0.12722700
v -0.45792100 -0.25440900 0.00510480
v -0.42060800 -0.29850100 0.02718590
v -0.40024800 -0.31882300 0.04751460
v -0.39686700 -0.29511400 0.10689800
v -0.46175600 -0.27464100 -0.09078030
v -0.46299200 -0.24424700 0.00255119
v -0.46808800 -0.24424700 -0.02033110
v -0.48209000 -0.23393600 -0.09078030
v -0.25107000 -0.41887700 0.12637600
v -0.25442600 -0.37649400 0.20859200
v -0.48844800 -0.20354200 -0.04065970
v -0.48335100 -0.20354200 -0.01777740
v -0.48335100 -0.16283700 0.04325860
v -0.48335100 -0.16247800 0.04365910
v -0.29839900 -0.16247800 0.38013300
v -0.29512000 -0.17299900 0.38158500
v -0.25107000 -0.18337000 0.41358100
v -0.29512000 -0.19335100 0.37142100
v -0.33581400 -0.33578900 0.16788400
v -0.37653300 -0.25440900 0.20859200
v -0.37653300 -0.29511400 0.14755600
v -0.45792100 -0.21370400 0.06619090
v -0.43756100 -0.23405600 0.10689800
v -0.44265700 -0.22389500 0.10434500
v -0.41720200 -0.25440900 0.12722700
v -0.48166100 -0.21712100 -0.03390020
v -0.46299200 -0.20354200 0.06363730
v -0.25107000 -0.37817200 0.20774000
v -0.25107000 -0.33746700 0.26882600
v -0.25442600 -0.33578900 0.26962800
v -0.27476000 -0.33578900 0.24929900
v -0.31547900 -0.31546600 0.22892000
v -0.46319400 -0.16247800 0.10424500
v -0.34073300 -0.16247800 0.32861100
v -0.33243300 -0.18319000 0.33241600
v -0.25107000 -0.21037700 0.39675700
v -0.25442600 -0.23405600 0.37142100
v -0.25442600 -0.21370400 0.39175000
v -0.33581400 -0.21370400 0.31033500
v -0.31547900 -0.21370400 0.33071400
v -0.33581400 -0.27476100 0.24929900
v -0.37653300 -0.21370400 0.24929900
v -0.43756100 -0.17299900 0.16788400
v -0.44265700 -0.18319000 0.14505200
v -0.25107000 -0.33246200 0.27463500
v -0.25442600 -0.31546600 0.29000600
v -0.29512000 -0.31546600 0.24929900
v -0.31547900 -0.29511400 0.24929900
v -0.44265700 -0.16283700 0.16533100
v -0.44273300 -0.16247800 0.16528100
v -0.35274200 -0.16247800 0.31223800
v -0.35279300 -0.16283700 0.31203700
v -0.39346100 -0.16283700 0.25100100
v -0.37312700 -0.18319000 0.27133000
v -0.25107000 -0.21706100 0.39009700
v -0.33581400 -0.23405600 0.29000600
v -0.41720200 -0.17299900 0.20859200
v -0.25107000 -0.31213900 0.29501300
v -0.25107000 -0.29847100 0.30868300
v -0.42229800 -0.16283700 0.20603800
v -0.42239900 -0.16247800 0.20598800
v -0.35291900 -0.16247800 0.31198700
v -0.39343600 -0.16247800 0.25120200
v -0.42212100 -0.16247800 0.20648900
v -0.42227300 -0.16247800 0.20623800
f 63 83 64
f 63 69 83
f 61 82 80
f 61 77 82
f 58 81 79
f 58 80 81
f 63 84 69
f 58 61 80
f 58 84 63
f 58 79 84
f 61 78 77
f 64 83 65
f 69 84 70
f 67 85 86
f 67 86 87
f 67 87 88
f 67 88 89
f 67 89 76
f 68 83 69
f 70 84 71
f 71 84 81
f 71 81 90
f 72 91 73
f 73 92 75
f 57 78 61
f 73 91 92
f 65 83 68
f 57 77 78
f 46 65 62
f 56 76 57
f 74 75 93
f 41 60 42
f 41 61 58
f 42 60 59
f 43 59 45
f 44 46 62
f 45 59 46
f 46 59 58
f 46 58 63
f 46 63 64
f 46 64 65
f 48 66 85
f 57 76 77
f 48 85 67
f 49 67 56
f 50 65 51
f 51 65 68
f 51 68 52
f 52 68 69
f 52 70 71
f 53 72 73
f 53 73 54
f 54 73 55
f 55 73 75
f 55 75 74
f 56 67 76
f 48 67 49
f 75 94 95
f 96 99 113
f 75 92 96
f 94 97 105
f 94 105 103
f 94 103 116
f 94 116 112
f 96 113 97
f 97 113 98
f 97 98 105
f 99 111 110
f 99 110 114
f 99 114 100
f 100 106 101
f 100 114 117
f 94 112 95
f 100 117 106
f 103 105 104
f 106 117 118
f 106 118 107
f 108 119 109
f 109 119 120
f 109 120 110
f 110 120 121
f 110 121 117
f 110 117 114
f 117 121 122
f 117 122 118
f 41 59 60
f 103 115 116
f 93 95 112
f 92 99 96
f 92 111 99
f 75 96 97
f 75 97 94
f 76 89 77
f 77 89 98
f 77 98 113
f 77 113 99
f 77 99 80
f 77 80 82
f 79 81 84
f 80 99 100
f 80 100 101
f 80 101 81
f 81 101 90
f 86 102 87
f 87 102 115
f 87 115 103
f 87 103 88
f 88 103 104
f 88 104 89
f 89 104 105
f 89 105 98
f 90 101 106
f 90 106 107
f 91 108 92
f 92 108 109
f 92 109 110
f 92 110 111
f 75 95 93
f 41 58 59
f 52 69 70
f 38 61 41
f 1 7 5
f 1 5 2
f 2 6 10
f 2 10 3
f 2 5 7
f 2 7 8
f 2 8 9
f 2 9 6
f 4 11 12
f 6 13 10
f 6 9 19
f 6 19 14
f 1 8 7
f 6 14 15
f 6 16 13
f 8 17 9
f 8 18 17
f 9 17 27
f 9 27 19
f 11 20 34
f 11 34 52
f 11 52 71
f 11 71 90
f 11 90 107
f 11 107 118
f 11 118 122
f 6 15 16
f 1 18 8
f 1 28 18
f 1 47 28
f 39 41 40
f 1 2 3
f 1 3 10
f 1 10 13
f 1 13 22
f 1 22 36
f 1 36 44
f 1 44 62
f 1 62 65
f 1 65 50
f 1 33 20
f 1 20 11
f 1 11 4
f 1 4 12
f 1 12 21
f 1 21 35
f 1 35 55
f 1 55 74
f 1 74 93
f 1 93 112
f 1 112 116
f 1 116 115
f 1 115 102
f 1 102 86
f 1 86 85
f 1 85 66
f 1 66 47
f 11 122 121
f 11 121 120
f 1 50 33
f 11 119 108
f 25 40 41
f 25 41 42
f 25 42 59
f 25 59 43
f 25 43 26
f 26 44 36
f 26 43 45
f 26 45 46
f 26 46 44
f 27 28 47
f 27 47 29
f 29 31 30
f 25 39 40
f 29 47 66
f 29 48 31
f 31 38 37
f 31 48 49
f 31 49 56
f 31 56 38
f 34 51 52
f 35 53 54
f 35 54 55
f 38 41 39
f 38 56 57
f 38 57 61
f 11 120 119
f 29 66 48
f 25 38 39
f 33 50 51
f 24 37 25
f 25 37 38
f 11 91 72
f 11 72 53
f 11 53 35
f 11 35 21
f 11 108 91
f 13 16 22
f 14 19 32
f 14 32 23
f 14 23 15
f 15 23 24
f 15 24 25
f 15 25 16
f 16 26 22
f 11 21 12
f 17 18 27
f 23 31 24
f 16 25 26
f 23 32 31
f 20 51 34
f 20 33 51
f 19 31 32
f 22 26 36
f 19 30 31
f 19 29 30
f 19 27 29
f 18 28 27
f 24 31 37

