# https://github.com/mikedh/trimesh
v -0.41756700 0.28278700 -0.47084500
v -0.42574500 0.28278700 -0.44774200
v -0.41473500 0.28852700 -0.47084500
v -0.33618400 0.28278700 -0.47084500
v -0.43671000 0.28278700 -0.41466900
v -0.43414900 0.29173400 -0.40704200
v -0.41379200 0.29173400 -0.46809200
v -0.41356700 0.29048000 -0.47084500
v -0.33685800 0.28278700 -0.44774200
v -0.00000494 0.44636800 -0.47084500
v -0.43864200 0.28278700 -0.40704200
v -0.45450500 0.29173400 -0.30525500
v -0.43414900 0.31208800 -0.34595500
v -0.39343500 0.35279700 -0.38669200
v -0.39343500 0.33244300 -0.44774200
v -0.40058000 0.30851900 -0.47084500
v -0.35721500 0.28278700 -0.09081750
v 0.00004000 0.45254200 -0.47084500
v 0.00004000 0.44774300 -0.46809200
v 0.00004000 0.44774300 -0.42739200
v -0.45899900 0.28278700 -0.30525500
v -0.45765100 0.28548800 -0.09081750
v -0.45450500 0.29173400 -0.09081750
v -0.41379200 0.35279700 -0.24424200
v -0.39343500 0.37312700 -0.28490500
v -0.37312300 0.39348100 -0.30525500
v -0.37312300 0.37312700 -0.38669200
v -0.35613700 0.38161600 -0.41719800
v -0.34872200 0.37054600 -0.47084500
v -0.35860800 0.36003200 -0.47084500
v -0.45899900 0.28278700 -0.09081750
v 0.00004000 0.46542000 -0.09081750
v 0.00004000 0.45871600 -0.47084500
v -0.39392900 0.36948500 -0.09081750
v -0.39343500 0.37312700 -0.10179200
v -0.41379200 0.35279700 -0.16284200
v -0.35276600 0.39348100 -0.38669200
v -0.37312300 0.39348100 -0.10179200
v -0.35276600 0.41381100 -0.24424200
v -0.29169600 0.45451900 -0.30525500
v -0.33240900 0.41381100 -0.36630500
v -0.34598100 0.39434900 -0.40704200
v -0.33240900 0.39348100 -0.44774200
v -0.34598100 0.37399500 -0.46809200
v -0.26729500 0.43158500 -0.47084500
v 0.00004000 0.50104000 -0.09081750
v 0.00004000 0.50880500 -0.46809200
v -0.00000494 0.50743100 -0.47084500
v -0.38615500 0.37679200 -0.09081750
v -0.35276600 0.41381100 -0.14249200
v -0.36809000 0.39256500 -0.09081750
v -0.29169600 0.45451900 -0.10179200
v -0.27475400 0.46300800 -0.31544900
v -0.28491000 0.45536400 -0.32560500
v -0.32562400 0.41465500 -0.38669200
v -0.28491000 0.43500900 -0.42739200
v -0.30526700 0.41465500 -0.44774200
v -0.26455400 0.43500900 -0.46809200
v -0.22572700 0.45343400 -0.47084500
v 0.00004000 0.52916000 -0.10179200
v -0.00000494 0.52916000 -0.09081750
v 0.00004000 0.52913500 -0.38669200
v -0.00000494 0.50880500 -0.46809200
v -0.00000494 0.52916000 -0.38669200
v -0.00274614 0.50743100 -0.47084500
v -0.28666300 0.45360300 -0.09081750
v -0.27879900 0.45830600 -0.09081750
v -0.27219300 0.46221300 -0.09081750
v -0.26594700 0.46534800 -0.09081750
v -0.22527800 0.48570200 -0.09081750
v -0.22388500 0.48845100 -0.10179200
v -0.25439800 0.46300800 -0.37649900
v -0.26455400 0.45536400 -0.38669200
v -0.19337200 0.50371700 -0.25443600
v -0.22388500 0.48845100 -0.28490500
v -0.23404100 0.48336300 -0.29509900
v -0.21372900 0.48336300 -0.35614900
v -0.27475400 0.44265400 -0.41719800
v -0.25439800 0.44265400 -0.45789800
v -0.22388500 0.45536400 -0.46809200
v -0.22388500 0.45435100 -0.47084500
v 0.00004000 0.52916000 -0.38658100
v -0.09082410 0.52916000 -0.09081750
v -0.06107530 0.50880500 -0.44774200
v -0.10178900 0.50880500 -0.42739200
v -0.08143220 0.52916000 -0.32560500
v -0.08417340 0.49503500 -0.47084500
v -0.07127620 0.50371700 -0.45789800
v -0.16285900 0.50880500 -0.09081750
v -0.12214600 0.52916000 -0.12214200
v -0.18317100 0.50880500 -0.16284200
v -0.21372900 0.46300800 -0.45789800
v -0.18317100 0.50880500 -0.24424200
v -0.16285900 0.50880500 -0.32560500
v -0.17301500 0.50371700 -0.33579900
v -0.12214600 0.48845100 -0.47084500
v -0.11369700 0.52407100 -0.09081750
v -0.11194500 0.50371700 -0.43754800
v -0.12214600 0.50880500 -0.40704200
v -0.10178900 0.52916000 -0.30525500
v -0.12466200 0.52407100 -0.10179200
v -0.12214600 0.52916000 -0.26459200
v -0.13230200 0.50371700 -0.41719800
v -0.15265800 0.48336300 -0.45789800
f 52 70 71
f 53 95 77
f 52 69 70
f 53 72 73
f 53 73 54
f 53 71 74
f 53 74 75
f 53 75 76
f 53 76 95
f 52 71 53
f 56 72 78
f 54 56 55
f 54 73 56
f 56 73 72
f 56 78 79
f 56 79 58
f 56 58 57
f 58 79 92
f 58 92 80
f 59 80 81
f 58 80 59
f 53 77 72
f 52 68 69
f 42 55 56
f 52 66 67
f 38 51 66
f 38 66 52
f 60 82 64
f 38 52 50
f 39 50 52
f 39 52 40
f 40 52 53
f 40 53 54
f 40 54 55
f 40 55 41
f 52 67 68
f 41 55 42
f 42 57 43
f 43 57 44
f 44 57 45
f 45 57 58
f 45 58 59
f 46 60 61
f 47 48 65
f 47 65 63
f 47 63 64
f 47 64 62
f 42 56 57
f 60 64 86
f 83 90 97
f 60 100 102
f 85 98 103
f 85 103 99
f 85 99 100
f 85 100 86
f 85 88 98
f 87 96 88
f 88 96 98
f 89 101 90
f 89 97 101
f 90 102 93
f 84 88 85
f 90 93 91
f 92 103 98
f 92 98 104
f 92 104 96
f 93 102 94
f 94 102 99
f 94 99 95
f 95 99 103
f 96 104 98
f 38 49 51
f 99 102 100
f 90 101 97
f 81 92 96
f 80 92 81
f 78 92 79
f 60 102 90
f 60 90 83
f 60 83 61
f 62 64 82
f 63 65 84
f 63 84 64
f 64 84 85
f 64 85 86
f 65 87 88
f 65 88 84
f 70 89 71
f 71 89 90
f 71 90 91
f 71 91 74
f 72 77 92
f 72 92 78
f 74 91 93
f 74 93 94
f 74 94 75
f 75 94 95
f 75 95 76
f 77 95 103
f 77 103 92
f 60 86 100
f 37 41 42
f 27 37 28
f 34 38 35
f 3 6 7
f 4 10 9
f 5 11 6
f 6 11 21
f 6 21 12
f 6 12 13
f 6 13 14
f 6 14 15
f 6 15 7
f 7 15 8
f 8 15 16
f 9 10 17
f 10 18 19
f 10 19 20
f 10 20 17
f 12 21 22
f 12 22 23
f 12 23 36
f 12 36 24
f 12 24 13
f 13 24 25
f 2 6 3
f 2 5 6
f 1 5 2
f 1 11 5
f 35 38 36
f 1 2 3
f 1 3 8
f 1 8 16
f 1 16 30
f 1 30 29
f 1 29 45
f 1 45 59
f 1 59 81
f 1 81 96
f 13 25 26
f 1 96 87
f 1 65 48
f 1 48 33
f 1 33 18
f 1 18 10
f 1 10 4
f 1 4 9
f 1 9 17
f 1 17 31
f 1 31 21
f 1 21 11
f 1 87 65
f 13 26 14
f 3 7 8
f 14 27 28
f 18 46 32
f 18 32 20
f 18 20 19
f 21 31 22
f 23 34 35
f 23 35 36
f 24 36 38
f 24 38 26
f 24 26 25
f 26 37 27
f 18 60 46
f 26 38 50
f 26 39 40
f 26 40 41
f 26 41 37
f 28 37 42
f 28 42 43
f 28 43 29
f 29 43 44
f 29 44 45
f 33 48 47
f 14 26 27
f 26 50 39
f 18 82 60
f 34 49 38
f 18 47 62
f 18 62 82
f 15 28 29
f 15 29 30
f 15 30 16
f 17 20 32
f 17 32 46
f 17 46 61
f 17 61 83
f 17 83 97
f 17 97 89
f 17 89 70
f 14 28 15
f 17 69 68
f 17 68 67
f 17 67 66
f 17 66 51
f 17 51 49
f 17 49 34
f 17 34 23
f 17 23 22
f 17 22 31
f 18 33 47
f 17 70 69

