# https://github.com/mikedh/trimesh
v 0.29131700 0.25541500 0.31442300
v 0.29131700 0.25820200 0.31165100
v 0.27475400 0.27476200 0.31545600
v 0.27372800 0.25541500 0.33475200
v 0.29131700 0.25541500 0.15303600
v 0.29131700 0.27098300 0.29887700
v 0.25440000 0.29512600 0.31545600
v 0.21369100 0.27476200 0.37649900
v 0.21266500 0.25541500 0.39585000
v 0.25337300 0.25541500 0.35513600
v 0.29131700 0.29132100 0.27854700
v 0.29131700 0.31926900 0.25060700
v 0.27475400 0.31546400 0.27474200
v 0.28051200 0.25541500 0.15841800
v 0.29131700 0.25820200 0.13613100
v 0.23404500 0.31546400 0.31545600
v 0.25440000 0.33582900 0.27474200
v 0.18994400 0.27138500 0.39345800
v 0.21369100 0.31546400 0.33578500
v 0.10855600 0.27138500 0.43417200
v 0.09059600 0.25541500 0.45689300
v 0.29131700 0.33250600 0.23071300
v 0.27475400 0.33582900 0.25435800
v 0.00008493 0.25541500 0.36426800
v 0.29131700 0.35297800 -0.08923410
v 0.25440000 0.37653200 0.21369900
v 0.23404500 0.33582900 0.29507200
v 0.18994400 0.31208800 0.35274500
v 0.17298200 0.33582900 0.33578500
v 0.06784710 0.27138500 0.45450100
v 0.10855600 0.31208800 0.39345800
v 0.05903830 0.25541500 0.46608000
v 0.29131700 0.35616700 0.19331500
v 0.00008493 0.25541500 0.46608000
v 0.00008493 0.46503800 -0.08923410
v 0.29131700 0.44917500 -0.08923410
v 0.29131700 0.37272700 0.16026600
v 0.25440000 0.39686900 0.17304000
v 0.17298200 0.43757200 0.17304000
v 0.21369100 0.37653200 0.25435800
v 0.14923600 0.33242600 0.35274500
v 0.15262800 0.37653200 0.29507200
v 0.12891000 0.37312800 0.31203100
v 0.04749280 0.31208800 0.41378800
v 0.04749280 0.29172300 0.43417200
v 0.00008493 0.27138500 0.45450100
v 0.10855600 0.33242600 0.37307400
v 0.00008493 0.52913300 -0.08923410
v 0.29131700 0.45472100 -0.08917980
v 0.28022700 0.46026800 -0.08923410
v 0.29131700 0.37843400 0.14885100
v 0.29131700 0.39874500 0.10819100
v 0.25440000 0.41720700 0.13232600
v 0.21369100 0.43757200 0.13232600
v 0.15262800 0.43757200 0.19331500
v 0.17298200 0.41720700 0.21369900
v 0.15262800 0.47827500 0.09161250
v 0.13230200 0.39686900 0.27474200
v 0.10855600 0.39346600 0.29170100
v 0.08820130 0.35279100 0.35274500
v 0.02713850 0.33242600 0.39345800
v 0.00008493 0.29172300 0.43417200
v 0.00008493 0.52913300 -0.02030910
v 0.08141660 0.52913300 -0.08923410
v 0.27814600 0.46131300 -0.08923410
v 0.29131700 0.45472100 -0.07499250
v 0.29131700 0.41342900 0.06986960
v 0.28832300 0.41042800 0.08481780
v 0.25440000 0.43757200 0.07128280
v 0.21369100 0.45791000 0.07128280
v 0.12212500 0.44772800 0.18320400
v 0.12891000 0.43416900 0.21027400
v 0.19333700 0.47827500 0.03056930
v 0.15262800 0.49861300 0.01018530
v 0.14247900 0.50879500 -0.02030910
v 0.12212500 0.50879500 0.00002048
v 0.13908700 0.48505400 0.07802310
v 0.12212500 0.48843000 0.08144770
v 0.10177100 0.46809200 0.14249100
v 0.06784710 0.37312800 0.33241500
v 0.04749280 0.41380400 0.27131800
v 0.00008493 0.33242600 0.39345800
v 0.00678418 0.39346600 0.31203100
v 0.00008493 0.50879500 0.06106370
v 0.02035370 0.52913300 -0.02030910
v 0.09926220 0.52664100 -0.08923410
v 0.08141660 0.52913300 -0.08140670
v 0.27814600 0.46131300 -0.08814700
v 0.26457700 0.46809200 -0.08923410
v 0.26457700 0.46809200 -0.08140670
v 0.27475400 0.45791000 -0.05085790
v 0.29131700 0.45461400 -0.07450330
v 0.27475400 0.43757200 0.03056930
v 0.29131700 0.43376700 0.00882636
v 0.04070800 0.46809200 0.16282000
v 0.04749280 0.45453400 0.18994500
v 0.04749280 0.43416900 0.23065800
v 0.16280500 0.50879500 -0.06102270
v 0.06106230 0.52913300 -0.06102270
v 0.06106230 0.50879500 0.04073410
v 0.02035370 0.50879500 0.06106370
v 0.02035370 0.48843000 0.12216100
v 0.03392320 0.42061000 0.25778300
v 0.00008493 0.39681600 0.30534500
v 0.00008493 0.48843000 0.12216100
v 0.16280500 0.50879500 -0.08923410
v 0.03392320 0.46131300 0.17641000
v 0.00008493 0.47822100 0.14260000
v 0.00008493 0.42061000 0.25778300
v 0.00008493 0.46131300 0.17641000
f 55 57 71
f 55 58 56
f 55 72 58
f 54 69 70
f 54 70 57
f 53 68 67
f 53 67 69
f 53 69 54
f 57 70 73
f 55 71 72
f 57 73 74
f 59 81 83
f 57 75 76
f 57 76 77
f 57 77 78
f 57 78 79
f 57 79 71
f 58 72 59
f 59 72 81
f 59 83 80
f 61 80 83
f 52 68 53
f 61 83 82
f 57 74 75
f 52 67 68
f 40 56 58
f 49 65 88
f 63 84 101
f 38 54 39
f 39 55 56
f 39 56 40
f 39 54 57
f 39 57 55
f 40 58 42
f 41 43 47
f 42 58 43
f 43 58 59
f 43 59 80
f 43 80 60
f 43 60 47
f 44 47 60
f 44 60 80
f 44 80 61
f 45 61 82
f 45 82 62
f 48 63 85
f 48 85 99
f 48 99 87
f 48 87 64
f 49 50 65
f 49 88 66
f 63 101 85
f 91 93 92
f 65 89 90
f 78 102 79
f 79 102 95
f 81 97 103
f 81 103 83
f 82 83 104
f 83 103 104
f 84 105 102
f 84 102 101
f 85 101 100
f 86 98 106
f 89 106 98
f 78 101 102
f 89 98 90
f 92 93 94
f 95 102 107
f 95 107 96
f 96 107 97
f 97 107 103
f 102 105 108
f 102 108 107
f 103 109 104
f 103 107 110
f 103 110 109
f 107 108 110
f 38 53 54
f 64 87 86
f 78 100 101
f 76 100 78
f 65 90 88
f 66 90 91
f 66 91 92
f 66 88 90
f 67 93 69
f 67 94 93
f 69 93 73
f 69 73 70
f 71 95 96
f 71 96 72
f 71 79 95
f 76 78 77
f 72 96 97
f 73 93 91
f 73 91 90
f 73 90 98
f 73 98 75
f 73 75 74
f 75 98 86
f 75 86 87
f 75 87 99
f 75 99 85
f 75 85 76
f 76 85 100
f 72 97 81
f 38 52 53
f 26 39 40
f 37 51 38
f 38 51 52
f 3 7 8
f 3 8 9
f 3 9 10
f 3 10 4
f 3 6 11
f 3 11 12
f 3 12 13
f 3 13 17
f 3 17 7
f 5 14 15
f 7 16 8
f 7 17 16
f 8 18 9
f 8 16 19
f 8 19 28
f 8 28 18
f 9 18 20
f 9 20 21
f 12 22 23
f 12 23 13
f 13 23 17
f 14 24 15
f 1 6 2
f 15 24 25
f 1 11 6
f 1 22 12
f 1 2 3
f 1 3 4
f 1 4 10
f 1 10 9
f 1 9 21
f 1 21 32
f 1 32 34
f 1 34 24
f 1 24 14
f 1 14 5
f 1 5 15
f 1 15 25
f 1 25 36
f 1 36 49
f 1 49 66
f 1 66 92
f 1 92 94
f 1 94 67
f 1 67 52
f 1 52 51
f 1 51 37
f 1 37 33
f 1 33 22
f 1 12 11
f 16 17 27
f 2 6 3
f 17 23 26
f 25 106 89
f 25 89 65
f 25 65 50
f 25 50 36
f 26 33 37
f 26 37 38
f 26 38 39
f 27 40 42
f 27 42 29
f 28 41 31
f 28 29 41
f 29 42 43
f 29 43 41
f 30 44 61
f 30 61 45
f 30 45 62
f 30 62 46
f 30 46 34
f 30 34 32
f 30 31 47
f 30 47 44
f 31 41 47
f 16 27 19
f 25 86 106
f 25 64 86
f 36 50 49
f 25 35 48
f 25 48 64
f 17 40 27
f 18 28 31
f 18 31 20
f 19 27 29
f 19 29 28
f 20 30 21
f 20 31 30
f 21 30 32
f 22 33 23
f 23 33 26
f 24 34 46
f 17 26 40
f 24 62 82
f 24 46 62
f 24 48 35
f 24 63 48
f 24 84 63
f 24 105 84
f 24 35 25
f 24 110 108
f 24 109 110
f 24 104 109
f 24 82 104
f 24 108 105

