# https://github.com/mikedh/trimesh
v -0.16417500 0.28278700 -0.73421600
v -0.28616100 0.28278700 -0.73421600
v -0.16712400 0.28278700 -0.72837800
v -0.44548000 -0.00106811 -0.47266400
v -0.44095500 -0.00106811 -0.48167700
v -0.43415200 -0.00106811 -0.49524700
v -0.42738300 -0.00106811 -0.50881800
v -0.33760300 -0.00106811 -0.72430700
v -0.33492100 -0.00106811 -0.73421600
v -0.28649600 0.28262000 -0.73421600
v -0.28639500 0.28278700 -0.73408800
v -0.33572600 0.28278700 -0.47266400
v -0.50540000 -0.00106811 -0.47266400
v -0.39608200 -0.00106811 -0.73421600
v -0.29943200 0.26750500 -0.73421600
v -0.33579300 0.26964400 -0.68177700
v -0.32708000 0.28278700 -0.67304600
v -0.41712800 0.28278700 -0.47266400
v -0.50563500 -0.00040126 -0.47266400
v -0.48844300 -0.00106811 -0.52917300
v -0.40704100 -0.00106811 -0.71232400
v -0.39608200 0.01882620 -0.73421600
v -0.34011600 0.20643300 -0.73421600
v -0.33579300 0.22893900 -0.72248900
v -0.33579300 0.24930600 -0.70213300
v -0.33498900 0.28278700 -0.65891200
v -0.37651100 0.22893900 -0.66144700
v -0.39685300 0.24930600 -0.60040600
v -0.39346800 0.27133900 -0.56988500
v -0.41635700 0.28278700 -0.47576200
v -0.43284500 0.25955800 -0.47266400
v -0.50653900 0.00229392 -0.47266400
v -0.48844300 0.04072100 -0.52917300
v -0.46810100 0.00001553 -0.59024100
v -0.46786600 -0.00106811 -0.59001000
v -0.42061300 -0.00106811 -0.68518300
v -0.40704100 0.02035440 -0.71232400
v -0.38589400 0.08217680 -0.73421600
v -0.42061300 0.04750070 -0.68518300
v -0.40023800 0.02716180 -0.72589400
v -0.36045800 0.16572700 -0.73421600
v -0.35955300 0.21029500 -0.70553800
v -0.34598100 0.22385400 -0.71232400
v -0.37567300 0.28278700 -0.57754100
v -0.37651100 0.20860000 -0.68177700
v -0.41719500 0.20860000 -0.60040600
v -0.40194700 0.24674900 -0.59024100
v -0.43757100 0.22893900 -0.51900800
v -0.43415200 0.25100000 -0.48846200
v -0.41381000 0.27133900 -0.50881800
v -0.40539800 0.28278700 -0.50881800
v -0.39601500 0.28278700 -0.53682900
v -0.44038600 0.24788900 -0.47266400
v -0.50653900 0.02263280 -0.47266400
v -0.48844300 0.12213200 -0.48846200
v -0.46810100 0.08142660 -0.56988500
v -0.46810100 0.02035440 -0.59024100
v -0.43703400 -0.00106811 -0.65233200
v -0.45452800 -0.00106811 -0.61733000
v -0.45737600 -0.00106811 -0.61162000
v -0.38140300 0.10248800 -0.73421600
v -0.40023800 0.10857300 -0.70553800
v -0.42061300 0.10857300 -0.66482700
v -0.44095500 0.04750070 -0.64447100
v -0.37007600 0.14097100 -0.73421600
v -0.37651100 0.14752800 -0.72248900
v -0.39685300 0.12721700 -0.70213300
v -0.39685300 0.18823300 -0.66144700
v -0.43757100 0.12721700 -0.62073600
v -0.45791300 0.14752800 -0.55969400
v -0.46300700 0.14499900 -0.54952900
v -0.42228900 0.20604400 -0.59024100
v -0.44263100 0.22641000 -0.50881800
v -0.44226200 0.24466500 -0.47266400
v -0.48844300 0.13794200 -0.47266400
v -0.48334900 0.14499900 -0.48846200
v -0.46810100 0.12213200 -0.54952900
v -0.44095500 0.10857300 -0.62411500
v -0.38083400 0.10471100 -0.73421600
v -0.37989500 0.12891200 -0.72589400
v -0.44263100 0.12466100 -0.61054500
v -0.46129700 0.12891200 -0.56310000
v -0.46300700 0.16533800 -0.52917300
v -0.44377000 0.24166500 -0.47266400
v -0.46072800 0.20718300 -0.47266400
v -0.48730300 0.14302700 -0.47266400
f 34 59 60
f 38 62 61
f 34 58 59
f 34 36 58
f 37 57 39
f 38 40 62
f 34 60 35
f 39 63 62
f 41 65 66
f 39 57 64
f 39 64 78
f 39 78 63
f 41 66 45
f 41 45 42
f 33 56 57
f 45 66 67
f 45 67 68
f 39 62 40
f 33 77 56
f 28 47 29
f 33 54 55
f 45 68 46
f 25 42 27
f 26 29 44
f 27 42 45
f 27 45 28
f 28 46 72
f 28 72 47
f 28 45 46
f 33 55 77
f 29 47 48
f 29 49 50
f 29 50 51
f 29 51 52
f 29 52 44
f 30 51 50
f 30 50 49
f 30 49 31
f 31 49 53
f 29 48 49
f 46 68 69
f 71 78 82
f 46 70 71
f 67 69 68
f 69 78 81
f 69 81 71
f 69 71 70
f 71 81 78
f 71 82 77
f 71 76 83
f 71 83 72
f 72 83 73
f 73 84 74
f 73 83 76
f 73 76 85
f 73 85 84
f 75 86 76
f 76 86 85
f 77 82 78
f 25 43 42
f 66 80 67
f 65 80 66
f 65 79 80
f 63 69 67
f 46 71 72
f 47 72 48
f 48 73 49
f 48 72 73
f 49 73 74
f 49 74 53
f 54 75 55
f 55 75 76
f 46 69 70
f 55 76 71
f 56 77 78
f 56 78 64
f 56 64 57
f 61 62 79
f 62 63 67
f 62 67 80
f 62 80 79
f 63 78 69
f 55 71 77
f 24 43 25
f 10 17 11
f 23 42 24
f 1 65 41
f 1 41 23
f 1 23 15
f 1 15 10
f 1 10 2
f 2 10 11
f 3 12 4
f 4 13 20
f 4 20 35
f 4 35 60
f 4 60 59
f 4 59 58
f 4 58 36
f 4 36 21
f 4 21 14
f 4 14 9
f 4 9 8
f 1 79 65
f 1 61 79
f 1 38 61
f 1 22 38
f 24 42 43
f 1 2 11
f 1 11 17
f 1 17 26
f 1 26 44
f 1 44 52
f 1 52 51
f 1 51 30
f 4 8 7
f 1 30 18
f 1 12 3
f 1 3 4
f 1 4 5
f 1 5 6
f 1 6 7
f 1 7 8
f 1 9 14
f 1 14 22
f 1 18 12
f 4 7 6
f 1 8 9
f 4 12 18
f 16 27 28
f 16 28 29
f 16 29 26
f 18 30 31
f 19 32 20
f 20 32 54
f 20 54 33
f 20 57 34
f 20 34 35
f 21 36 34
f 21 34 57
f 21 57 37
f 22 37 39
f 22 39 40
f 22 40 38
f 23 41 42
f 4 6 5
f 16 25 27
f 16 26 17
f 20 33 57
f 15 24 25
f 4 18 31
f 4 31 53
f 15 25 16
f 4 53 74
f 4 74 84
f 4 84 85
f 4 85 86
f 4 75 54
f 4 54 32
f 4 32 19
f 4 86 75
f 4 19 13
f 10 15 16
f 10 16 17
f 13 19 20
f 14 21 37
f 15 23 24
f 14 37 22

