# https://github.com/mikedh/trimesh
v -0.25614400 0.06106120 0.46462200
v -0.25614400 0.00004054 0.46462200
v -0.25614400 0.07349090 0.46010900
v -0.27137700 0.06106120 0.45451000
v -0.27137700 0.00004054 0.45451000
v -0.25614400 0.00004054 0.36284900
v -0.25614400 0.09407580 0.45195500
v -0.31207800 0.04071220 0.41379000
v -0.29174100 0.04071220 0.43417700
v -0.26969300 0.19333000 0.39682800
v -0.27984900 0.17298100 0.39682800
v -0.33244200 0.10178500 0.37312400
v -0.29174100 0.00004054 0.43417700
v -0.25614400 0.25663200 0.19556500
v -0.45283500 0.00004054 -0.06359740
v -0.35871200 0.26457700 -0.06104220
v -0.35620000 0.26793400 -0.05767150
v -0.25614400 0.18315500 0.41003800
v -0.33244200 0.02036330 0.39345700
v -0.25614400 0.19291000 0.40438400
v -0.25614400 0.20914200 0.39231500
v -0.26969300 0.23402700 0.35616200
v -0.29003000 0.21367800 0.35616200
v -0.31039400 0.21367800 0.33577500
v -0.31207800 0.18315500 0.35273700
v -0.33244200 0.14245700 0.35273700
v -0.37314300 0.12213400 0.31201700
v -0.39430900 0.12213400 0.28488800
v -0.35363400 0.10178500 0.34594100
v -0.37399800 0.08141020 0.32560800
v -0.37314300 0.06106120 0.33240400
v -0.33244200 0.00004054 0.39345700
v -0.25614400 0.26607200 0.19083500
v -0.46563600 0.00004054 -0.09072600
v -0.35788400 0.26793400 -0.06104220
v -0.37335700 0.26793400 -0.09078030
v -0.35956700 0.26793400 -0.06435850
v -0.25614400 0.26793400 0.18991100
v -0.39345400 0.00004054 0.31201700
v -0.25614400 0.24984000 0.35159500
v -0.26969300 0.25440300 0.33577500
v -0.29003000 0.25440300 0.31544200
v -0.31039400 0.23402700 0.31544200
v -0.35363400 0.14245700 0.32560800
v -0.34091400 0.15263200 0.33577500
v -0.33073200 0.25440300 0.27472200
v -0.33073200 0.23402700 0.29505500
v -0.37143300 0.21367800 0.25438900
v -0.38161500 0.19333000 0.25438900
v -0.39430900 0.18315500 0.24422200
v -0.43501000 0.14245700 0.20350200
v -0.44265300 0.13230900 0.19333600
v -0.40195200 0.11196000 0.27472200
v -0.39345400 0.10178500 0.29168400
v -0.38161500 0.13230900 0.29505500
v -0.41381800 0.04071220 0.27135100
v -0.46587600 0.00004054 -0.09078030
v -0.46641100 0.26793400 -0.09078030
v -0.25614400 0.26793400 0.33235000
v -0.40026800 0.00004054 0.29848000
v -0.25956500 0.26793400 0.32897900
v -0.32063000 0.26793400 0.26792600
v -0.32733800 0.26793400 0.26118500
v -0.37143300 0.25440300 0.21366900
v -0.39430900 0.24420200 0.18322400
v -0.41467300 0.20350400 0.18322400
v -0.43501000 0.16280600 0.18322400
v -0.47571100 0.14245700 0.10178400
v -0.46299000 0.05088670 0.17300300
v -0.42228900 0.05088670 0.25438900
v -0.48335400 0.13230900 0.09161730
v -0.46299000 0.11196000 0.15267000
v -0.48335400 0.03053780 0.13233700
v -0.42739300 0.04071220 0.24422200
v -0.52913300 0.00004054 -0.09078030
v -0.46809500 0.26457700 -0.09078030
v -0.46641100 0.26793400 -0.07800430
v -0.46130700 0.04071220 0.17642800
v -0.47488300 0.02036330 0.14930000
v -0.47488300 0.00004054 0.14930000
v -0.34943900 0.26793400 0.22720600
v -0.36969600 0.26793400 0.19344500
v -0.37485300 0.26793400 0.18322400
v -0.39179700 0.25440300 0.17300300
v -0.41213400 0.25440300 0.13233700
v -0.41467300 0.24420200 0.14250400
v -0.43501000 0.20350400 0.14250400
v -0.47571100 0.16280600 0.08145090
v -0.48335400 0.15263200 0.07128440
v -0.50371800 0.13230900 0.01017720
v -0.48843200 0.12213400 0.08145090
v -0.48843200 0.02036330 0.12211700
v -0.48843200 0.00004054 0.12211700
v -0.48167100 0.00004054 0.13570800
v -0.52913300 0.08141020 -0.09078030
v -0.52913300 0.00004054 -0.02032210
v -0.50879600 0.16280600 -0.09078030
v -0.46809500 0.26457700 -0.08137500
v -0.50371800 0.17298100 -0.05087580
v -0.48335400 0.19333000 0.01017720
v -0.46299000 0.25440300 -0.03048850
v -0.45537400 0.26457700 -0.02032210
v -0.45179300 0.26793400 -0.01532040
v -0.39006000 0.26793400 0.15277900
v -0.41039700 0.26793400 0.11205900
v -0.41552800 0.26793400 0.10178400
v -0.42228900 0.25440300 0.11195000
v -0.43501000 0.22385300 0.12211700
v -0.45537400 0.22385300 0.06106370
v -0.46299000 0.21367800 0.05089720
v -0.50371800 0.15263200 -0.01015570
v -0.50879600 0.12213400 0.00001074
v -0.50879600 0.06106120 0.04073080
v -0.50879600 0.02036330 0.06106370
v -0.50879600 0.00004054 0.06106370
v -0.52913300 0.08141020 -0.08137500
v -0.52386800 0.11114700 -0.09078030
v -0.52913300 0.02036330 -0.02032210
v -0.52346700 0.11274700 -0.09078030
v -0.50879600 0.16280600 -0.06104220
v -0.44265300 0.25440300 0.05089720
v -0.43501000 0.26457700 0.06106370
v -0.43460900 0.26793400 0.05100600
v -0.43081400 0.26793400 0.06443430
v -0.50879600 0.14245700 -0.02032210
v -0.52913300 0.04071220 -0.04065500
f 66 87 67
f 66 86 87
f 65 86 66
f 65 85 86
f 65 84 85
f 64 84 65
f 64 83 84
f 122 124 123
f 63 81 64
f 64 82 83
f 67 87 88
f 64 81 82
f 67 88 68
f 73 92 93
f 69 78 70
f 69 73 78
f 70 78 74
f 71 88 89
f 71 89 111
f 71 111 90
f 71 90 112
f 71 112 91
f 71 91 73
f 71 73 72
f 73 91 92
f 73 93 94
f 60 79 80
f 68 88 71
f 60 78 79
f 42 62 46
f 58 98 77
f 41 59 61
f 41 61 42
f 42 61 62
f 73 94 80
f 44 49 55
f 46 62 63
f 46 63 64
f 46 64 48
f 46 48 47
f 48 64 65
f 48 65 50
f 48 50 49
f 50 65 66
f 60 74 78
f 50 66 67
f 51 67 68
f 51 68 71
f 51 71 52
f 52 69 70
f 52 70 53
f 52 71 72
f 52 72 73
f 52 73 69
f 53 70 56
f 53 56 54
f 56 70 74
f 56 74 60
f 58 76 98
f 50 67 51
f 73 80 79
f 90 111 125
f 75 96 118
f 96 114 118
f 97 119 120
f 98 120 99
f 99 120 125
f 99 125 111
f 99 111 100
f 100 102 101
f 100 110 109
f 100 109 121
f 100 121 102
f 102 121 122
f 102 122 103
f 103 122 123
f 106 124 122
f 106 122 107
f 107 122 108
f 108 122 109
f 109 122 121
f 112 125 126
f 112 126 118
f 112 118 113
f 113 118 114
f 116 126 125
f 116 125 117
f 117 125 120
f 117 120 119
f 40 59 41
f 96 115 114
f 95 116 117
f 92 115 93
f 92 114 115
f 75 118 126
f 75 126 116
f 75 116 95
f 76 97 120
f 76 120 98
f 77 98 99
f 77 99 100
f 77 100 101
f 77 101 102
f 77 102 103
f 83 104 85
f 83 85 84
f 85 104 105
f 73 79 78
f 85 105 106
f 85 107 86
f 86 107 108
f 86 108 87
f 87 108 88
f 88 109 89
f 88 108 109
f 89 109 110
f 89 110 100
f 89 100 111
f 90 125 112
f 91 113 114
f 91 114 92
f 91 112 113
f 85 106 107
f 39 56 60
f 22 40 41
f 36 97 76
f 4 9 13
f 4 13 5
f 4 7 10
f 4 10 11
f 4 11 12
f 4 12 8
f 6 15 16
f 6 16 17
f 6 17 14
f 7 18 10
f 8 12 19
f 9 19 32
f 9 32 13
f 10 18 20
f 10 20 21
f 10 21 22
f 10 22 23
f 10 23 24
f 10 24 25
f 10 25 26
f 10 26 11
f 11 26 12
f 12 26 27
f 12 27 28
f 12 28 29
f 12 29 30
f 12 30 31
f 4 19 9
f 12 31 19
f 4 8 19
f 2 15 6
f 36 76 58
f 1 2 6
f 1 6 14
f 1 14 33
f 1 33 38
f 1 38 59
f 1 59 40
f 1 40 21
f 1 21 20
f 1 20 18
f 1 18 7
f 1 7 3
f 1 3 4
f 1 4 5
f 1 5 2
f 2 5 13
f 2 13 32
f 2 32 39
f 2 39 60
f 2 60 80
f 2 80 94
f 2 94 93
f 2 93 115
f 2 96 75
f 2 75 57
f 2 57 34
f 2 34 15
f 3 7 4
f 14 17 33
f 2 115 96
f 16 35 17
f 24 26 25
f 24 43 46
f 24 46 47
f 24 47 48
f 24 48 49
f 24 49 44
f 26 45 44
f 26 44 27
f 27 44 28
f 28 50 51
f 28 51 52
f 28 52 53
f 28 53 54
f 28 54 31
f 28 30 29
f 28 44 55
f 28 55 49
f 28 49 50
f 31 54 56
f 31 56 39
f 34 57 36
f 36 57 75
f 36 75 95
f 36 95 117
f 36 117 119
f 36 119 97
f 15 34 16
f 24 45 26
f 24 44 45
f 28 31 30
f 22 43 23
f 16 34 36
f 16 36 37
f 23 43 24
f 16 37 35
f 17 35 37
f 17 37 36
f 17 36 58
f 17 58 77
f 17 103 123
f 17 123 124
f 17 124 106
f 17 106 105
f 17 105 104
f 17 104 83
f 17 77 103
f 17 82 81
f 22 41 42
f 17 83 82
f 21 40 22
f 19 39 32
f 22 42 46
f 19 31 39
f 17 38 33
f 22 46 43
f 17 59 38
f 17 61 59
f 17 62 61
f 17 63 62
f 17 81 63

