# https://github.com/mikedh/trimesh
v 0.46552600 -0.00106811 -0.59539200
v 0.40445900 -0.00106811 -0.59539200
v 0.46552600 -0.02551790 -0.59539200
v 0.38008500 -0.00106811 -0.76624400
v 0.39553300 -0.02551790 -0.59539200
v 0.27817500 -0.00106811 -0.80730600
v 0.12906600 -0.23450600 -0.82175400
v 0.45343800 -0.08657380 -0.59539200
v 0.44774000 -0.10176900 -0.61057100
v 0.44263400 -0.11196000 -0.62076500
v 0.46299000 -0.03054490 -0.60040000
v 0.44263400 -0.05088170 -0.64110700
v 0.44774000 -0.04071330 -0.63093600
v 0.42738400 -0.04071330 -0.67164400
v 0.40195600 -0.03054490 -0.72250000
v 0.37316800 -0.00106811 -0.77980600
v 0.38160000 -0.01018540 -0.76320800
v 0.32099500 -0.23450600 -0.59539200
v 0.26961200 -0.00106811 -0.82175400
v 0.25014500 -0.23450600 -0.82175400
v 0.44517100 -0.12724700 -0.59539200
v 0.44263400 -0.13227400 -0.60040000
v 0.42227900 -0.19333000 -0.60040000
v 0.41467000 -0.20352100 -0.61057100
v 0.43502600 -0.12210600 -0.63093600
v 0.40195600 -0.11196000 -0.70215800
v 0.42227900 -0.05088170 -0.68181500
v 0.38160000 -0.09160080 -0.74284300
v 0.37310200 -0.08140960 -0.75981800
v 0.33239100 -0.08140960 -0.82086800
v 0.35274700 -0.04071330 -0.80050300
v 0.33196300 -0.02035370 -0.82175400
v 0.33196300 -0.00106811 -0.82175400
v 0.40409700 -0.23450600 -0.59539200
v 0.26842600 -0.21620300 -0.82175400
v 0.26967800 -0.23404900 -0.80389400
v 0.26944700 -0.23450600 -0.80345000
v 0.42481500 -0.18830300 -0.59539200
v 0.41338500 -0.21871700 -0.59539200
v 0.40821400 -0.22902200 -0.59539200
v 0.39431400 -0.22385800 -0.63093600
v 0.37395900 -0.20352100 -0.69198600
v 0.41467000 -0.12210600 -0.67164400
v 0.39431400 -0.12210600 -0.71232900
v 0.37395900 -0.10176900 -0.75301500
v 0.33324800 -0.10176900 -0.81408700
v 0.32366300 -0.10944700 -0.82175400
v 0.33064600 -0.08406030 -0.82175400
v 0.40182400 -0.23450600 -0.59995700
v 0.40195600 -0.23404900 -0.60040000
v 0.27155500 -0.21117600 -0.82175400
v 0.29003300 -0.23404900 -0.78355100
v 0.28980300 -0.23450600 -0.78310800
v 0.39177800 -0.23404900 -0.62076500
v 0.37142300 -0.23404900 -0.66145000
v 0.35360300 -0.16280200 -0.75301500
v 0.37395900 -0.14246600 -0.73267200
v 0.36124500 -0.21369000 -0.70215800
v 0.33071100 -0.19333000 -0.76320800
v 0.33239100 -0.16280200 -0.78016000
v 0.28301700 -0.19081700 -0.82175400
v 0.37119200 -0.23450600 -0.66100700
v 0.34088900 -0.17299300 -0.76320800
f 35 52 36
f 26 44 45
f 34 50 40
f 34 49 50
f 30 32 31
f 30 47 48
f 30 46 47
f 29 46 30
f 29 45 46
f 28 45 29
f 26 43 44
f 26 45 28
f 30 48 32
f 23 39 24
f 24 43 25
f 24 42 43
f 24 41 42
f 24 40 41
f 24 39 40
f 23 38 39
f 21 23 22
f 21 38 23
f 20 36 37
f 20 35 36
f 17 26 28
f 16 32 33
f 36 52 53
f 25 43 26
f 36 53 37
f 49 54 50
f 41 50 54
f 16 31 32
f 59 60 63
f 59 61 60
f 56 63 60
f 56 59 63
f 52 62 53
f 52 55 62
f 52 58 55
f 52 59 58
f 51 59 52
f 51 61 59
f 49 55 54
f 49 62 55
f 47 60 61
f 46 56 60
f 46 57 56
f 46 60 47
f 44 46 45
f 44 57 46
f 42 59 56
f 42 58 59
f 42 55 58
f 42 44 43
f 42 57 44
f 42 56 57
f 41 55 42
f 41 54 55
f 40 50 41
f 16 30 31
f 35 51 52
f 16 28 29
f 5 7 18
f 4 17 16
f 4 15 17
f 3 15 4
f 3 14 15
f 3 13 14
f 3 12 13
f 3 11 12
f 3 10 11
f 3 9 10
f 3 8 9
f 2 7 5
f 2 6 7
f 1 6 2
f 1 19 6
f 1 33 19
f 1 4 16
f 1 3 4
f 1 8 3
f 1 21 8
f 1 38 21
f 1 39 38
f 1 40 39
f 1 34 40
f 1 18 34
f 1 5 18
f 1 2 5
f 6 19 7
f 7 19 33
f 1 16 33
f 7 32 48
f 7 33 32
f 16 17 28
f 15 27 26
f 15 26 17
f 14 27 15
f 12 14 13
f 12 27 14
f 10 26 12
f 10 25 26
f 10 24 25
f 10 23 24
f 10 22 23
f 10 21 22
f 10 12 11
f 12 26 27
f 8 21 9
f 16 29 30
f 9 21 10
f 7 48 47
f 7 47 61
f 7 61 51
f 7 35 20
f 7 20 37
f 7 51 35
f 7 37 53
f 7 53 62
f 7 62 49
f 7 49 34
f 7 34 18

