# https://github.com/mikedh/trimesh
v 0.43608000 -0.30827300 -0.08928370
v 0.33625700 -0.30827300 -0.08928370
v 0.43416000 -0.31207800 -0.08928370
v 0.41380200 -0.35279200 -0.16285600
v 0.43608000 -0.30827300 -0.34596800
v 0.00008494 -0.46338600 -0.08928370
v 0.25209700 -0.30827300 -0.59537000
v 0.00008494 -0.40364600 -0.59537000
v 0.39242100 -0.36738600 -0.08928370
v 0.39344500 -0.37313800 -0.10176900
v 0.35273100 -0.41385100 -0.14249300
v 0.41380200 -0.35279200 -0.24425500
v 0.43416000 -0.31207800 -0.34596800
v 0.43462900 -0.30827300 -0.35736300
v 0.00008494 -0.52913800 -0.08928370
v 0.34824900 -0.30827300 -0.59537000
v 0.00008494 -0.46550500 -0.59537000
v 0.37727000 -0.38513800 -0.08928370
v 0.36894800 -0.39400300 -0.08928370
v 0.37308800 -0.39348400 -0.10176900
v 0.29170200 -0.45452200 -0.10176900
v 0.35273100 -0.41385100 -0.24425500
v 0.39344500 -0.37313800 -0.28498000
v 0.39344500 -0.35279200 -0.38669300
v 0.41465600 -0.32565600 -0.38669300
v 0.41427200 -0.30827300 -0.43876300
v 0.08142860 -0.52913800 -0.08928370
v 0.00008494 -0.52913800 -0.38669300
v 0.34987100 -0.30827300 -0.59319000
v 0.34714000 -0.31045600 -0.59537000
v 0.00260292 -0.46550500 -0.59537000
v 0.00008494 -0.46801400 -0.59036600
v 0.28751900 -0.45504100 -0.08928370
v 0.27710600 -0.46124600 -0.08928370
v 0.27471600 -0.46299700 -0.09161220
v 0.23404400 -0.48336500 -0.09161220
v 0.26455900 -0.46810000 -0.10176900
v 0.29170200 -0.45452200 -0.30529300
v 0.37308800 -0.39348400 -0.30529300
v 0.35273100 -0.39348400 -0.38669300
v 0.36122300 -0.37653200 -0.41721200
v 0.36122300 -0.35618600 -0.47824900
v 0.39344500 -0.33242400 -0.44773000
v 0.41090000 -0.30827300 -0.45070300
v 0.10959600 -0.52347300 -0.08928370
v 0.10178600 -0.52913800 -0.10176900
v 0.11194300 -0.52405700 -0.09161220
v 0.00008494 -0.50877000 -0.46809300
v 0.06107130 -0.50879200 -0.44773000
v 0.10178600 -0.50879200 -0.42736800
v 0.08142860 -0.52913800 -0.32565500
v 0.37022800 -0.30827300 -0.55246500
v 0.35106600 -0.31547300 -0.58001100
v 0.33241600 -0.33242400 -0.59016800
v 0.33066600 -0.33071600 -0.59537000
v 0.07626460 -0.45534300 -0.59537000
v 0.08821440 -0.46131100 -0.58343000
v 0.08142860 -0.46810000 -0.56985500
v 0.02035680 -0.48844600 -0.52913000
v 0.00008494 -0.48844600 -0.52913000
v 0.23639100 -0.48159200 -0.08928370
v 0.15500500 -0.51173300 -0.08928370
v 0.13230000 -0.52405700 -0.11197500
v 0.12214300 -0.52913800 -0.12213100
v 0.22384400 -0.48844600 -0.10176900
v 0.19337200 -0.50371100 -0.15265000
v 0.21031500 -0.49523500 -0.16285600
v 0.21031500 -0.49523500 -0.24425500
v 0.26455900 -0.46810000 -0.30529300
v 0.27134400 -0.45452200 -0.36633000
v 0.29170200 -0.43417600 -0.40700600
v 0.33241600 -0.41385100 -0.36633000
v 0.33241600 -0.39348400 -0.44773000
v 0.37394100 -0.34600200 -0.46809300
v 0.35273100 -0.35279200 -0.50876800
v 0.39344500 -0.31207800 -0.48845500
v 0.11429000 -0.52230500 -0.08928370
v 0.08142860 -0.48844600 -0.50876800
v 0.12214300 -0.48844600 -0.48845500
v 0.12466100 -0.50371100 -0.42736800
v 0.12214300 -0.50879200 -0.40700600
v 0.10178600 -0.52913800 -0.30529300
v 0.35273100 -0.33242400 -0.54949200
v 0.36122300 -0.31547300 -0.55964900
v 0.31035200 -0.35618600 -0.58001100
v 0.32639900 -0.33415400 -0.59537000
v 0.33241600 -0.35279200 -0.54949200
v 0.09986540 -0.45153800 -0.59537000
v 0.12892900 -0.46131100 -0.56306700
v 0.12278300 -0.44645700 -0.59537000
v 0.13989700 -0.44265100 -0.59537000
v 0.12214300 -0.46810000 -0.54949200
v 0.18317200 -0.50879200 -0.16285600
v 0.12214300 -0.52913800 -0.26461800
v 0.18317200 -0.50879200 -0.24425500
v 0.22384400 -0.48844600 -0.28498000
v 0.16285800 -0.50879200 -0.32565500
v 0.24420100 -0.46810000 -0.36633000
v 0.24676200 -0.46299700 -0.38669300
v 0.31205900 -0.41385100 -0.42736800
v 0.26711900 -0.44265100 -0.42736800
v 0.25098700 -0.43417600 -0.48845500
v 0.31205900 -0.39348400 -0.48845500
v 0.14501800 -0.46299700 -0.54949200
v 0.20609000 -0.46299700 -0.46809300
v 0.16537600 -0.48336500 -0.44773000
v 0.16285800 -0.48844600 -0.42736800
v 0.26963700 -0.39687800 -0.55964900
v 0.22892300 -0.41722400 -0.58001100
v 0.26840000 -0.37904000 -0.59537000
v 0.29170200 -0.39348400 -0.52913000
v 0.14757900 -0.45791600 -0.55964900
v 0.20737000 -0.41973200 -0.59537000
v 0.20609000 -0.48336500 -0.36633000
v 0.20352900 -0.46810000 -0.44773000
v 0.29170200 -0.41385100 -0.46809300
v 0.24676200 -0.44265100 -0.46809300
v 0.22640500 -0.44265100 -0.50876800
v 0.25098700 -0.41385100 -0.54949200
v 0.22640500 -0.42230500 -0.56985500
v 0.24496900 -0.39521300 -0.59537000
f 58 79 78
f 58 92 79
f 57 91 89
f 57 90 91
f 57 89 92
f 57 92 58
f 54 87 85
f 56 88 57
f 54 86 55
f 54 83 87
f 57 88 90
f 58 78 59
f 68 95 69
f 64 94 95
f 64 95 93
f 65 93 66
f 66 93 95
f 66 95 68
f 66 68 67
f 69 95 96
f 69 96 97
f 69 97 98
f 54 85 86
f 70 99 101
f 70 98 99
f 64 93 65
f 53 83 54
f 43 75 76
f 52 84 53
f 39 72 40
f 70 101 71
f 40 72 73
f 40 73 41
f 41 73 42
f 42 74 43
f 42 73 75
f 42 75 74
f 43 74 75
f 43 76 44
f 44 76 52
f 45 47 77
f 46 64 63
f 46 63 47
f 47 63 62
f 47 62 77
f 48 60 59
f 48 59 49
f 49 59 78
f 49 78 79
f 49 79 50
f 50 80 81
f 50 81 82
f 50 82 51
f 50 79 80
f 52 76 83
f 52 83 84
f 53 84 83
f 71 100 72
f 103 116 119
f 71 117 102
f 97 114 98
f 98 114 115
f 98 115 105
f 98 105 99
f 99 105 101
f 101 105 117
f 102 118 119
f 102 119 116
f 102 117 118
f 103 119 111
f 38 72 39
f 104 118 105
f 97 107 114
f 104 112 113
f 104 120 118
f 105 115 106
f 105 118 117
f 106 115 114
f 106 114 107
f 108 111 119
f 108 119 109
f 109 119 120
f 109 120 113
f 109 113 121
f 109 121 110
f 118 120 119
f 104 113 120
f 71 101 117
f 95 97 96
f 91 113 112
f 71 102 116
f 71 116 100
f 72 100 73
f 73 100 116
f 73 116 103
f 73 103 87
f 73 87 75
f 75 87 83
f 75 83 76
f 79 92 104
f 79 104 105
f 79 106 80
f 94 97 95
f 80 106 107
f 81 107 97
f 81 97 94
f 81 94 82
f 85 108 109
f 85 109 110
f 85 110 86
f 85 87 111
f 85 111 108
f 87 103 111
f 89 91 112
f 89 112 104
f 89 104 92
f 80 107 81
f 38 71 72
f 79 105 106
f 38 98 70
f 4 11 22
f 4 22 12
f 5 12 13
f 5 13 14
f 6 8 17
f 6 17 32
f 6 32 60
f 6 48 28
f 6 28 15
f 7 16 30
f 7 30 55
f 7 55 86
f 4 10 11
f 7 86 110
f 7 121 113
f 7 113 91
f 7 91 90
f 7 90 88
f 7 88 56
f 7 56 31
f 7 31 17
f 7 17 8
f 9 18 10
f 10 18 19
f 10 19 20
f 10 20 11
f 7 110 121
f 11 20 21
f 3 10 4
f 2 8 6
f 38 70 71
f 1 2 6
f 1 6 15
f 1 15 27
f 1 27 45
f 1 45 77
f 1 77 62
f 1 62 61
f 1 61 34
f 1 34 33
f 1 33 19
f 1 19 18
f 3 9 10
f 1 18 9
f 1 3 4
f 1 4 12
f 1 12 5
f 1 5 14
f 1 14 26
f 1 26 44
f 1 44 52
f 1 52 29
f 1 29 16
f 1 16 7
f 1 7 2
f 2 7 8
f 1 9 3
f 11 21 38
f 6 60 48
f 12 22 23
f 26 43 44
f 27 46 47
f 27 47 45
f 28 48 49
f 28 49 50
f 28 50 51
f 29 52 53
f 29 53 30
f 30 53 54
f 30 54 55
f 31 56 57
f 31 57 32
f 32 57 58
f 32 58 59
f 32 59 60
f 34 61 36
f 34 36 35
f 36 61 62
f 36 62 63
f 11 38 22
f 36 64 65
f 36 65 66
f 36 66 67
f 36 67 68
f 36 68 69
f 36 69 37
f 38 69 98
f 25 43 26
f 24 39 40
f 36 63 64
f 24 42 43
f 12 23 13
f 24 43 25
f 13 23 24
f 13 24 25
f 14 25 26
f 15 28 51
f 15 51 82
f 15 82 94
f 15 94 64
f 15 64 46
f 15 46 27
f 16 29 30
f 17 31 32
f 13 25 14
f 19 21 20
f 19 33 21
f 23 39 24
f 24 41 42
f 22 38 39
f 21 69 38
f 22 39 23
f 21 37 69
f 21 36 37
f 21 35 36
f 21 34 35
f 21 33 34
f 24 40 41

