# https://github.com/mikedh/trimesh
v -0.31684100 -0.31262200 -0.65521100
v -0.31543700 -0.31546200 -0.65521100
v -0.33578400 -0.31546200 -0.62071900
v -0.33293700 -0.31262200 -0.62640200
v -0.21085500 -0.31262200 -0.65521100
v -0.29224300 -0.33299100 -0.65521100
v -0.27474300 -0.35617900 -0.64107300
v -0.25439600 -0.39687600 -0.60036500
v -0.31543700 -0.33583100 -0.62071900
v -0.33722900 -0.31262200 -0.61789100
v -0.33240000 -0.33244000 -0.59697700
v -0.35613100 -0.31546200 -0.58003900
v -0.21935700 -0.31262200 -0.62640200
v -0.19459400 -0.31671200 -0.65521100
v -0.23405000 -0.37652700 -0.65521100
v -0.27474300 -0.39687600 -0.55968500
v -0.27135900 -0.39348400 -0.57662300
v -0.31543700 -0.35617900 -0.58003900
v -0.23405000 -0.39687600 -0.62071900
v -0.21366100 -0.41722400 -0.60036500
v -0.23405000 -0.43757200 -0.51897700
v -0.35332500 -0.31262200 -0.58569400
v -0.35274700 -0.35278800 -0.51558900
v -0.35274700 -0.33244000 -0.55626900
v -0.33240000 -0.35278800 -0.55626900
v -0.35757600 -0.31262200 -0.57718300
v -0.39401900 -0.31262200 -0.49249200
v -0.33722900 -0.31262200 -0.36922000
v 0.00004367 -0.37453500 -0.65521100
v -0.21366100 -0.39687600 -0.64107300
v -0.18716500 -0.39999100 -0.65521100
v -0.27474300 -0.41722400 -0.49865100
v -0.31205300 -0.39348400 -0.49526300
v -0.13231500 -0.43757200 -0.62071900
v -0.15266200 -0.45792000 -0.55968500
v -0.17300900 -0.45792000 -0.53933100
v -0.21366100 -0.45792000 -0.47829700
v -0.23405000 -0.45792000 -0.43758900
v -0.25439600 -0.43757200 -0.47829700
v -0.15266200 -0.47826800 -0.49865100
v -0.35613100 -0.35617900 -0.49865100
v -0.39344100 -0.33244000 -0.45455600
v -0.33240000 -0.39348400 -0.45455600
v -0.39686600 -0.31546200 -0.47829700
v -0.41271500 -0.31262200 -0.43476200
v -0.42154700 -0.31262200 -0.36922000
v -0.00003888 -0.46809400 -0.36922000
v 0.00004367 -0.44776700 -0.42731400
v 0.00004367 -0.43557900 -0.65521100
v -0.12608300 -0.42033900 -0.65521100
v -0.30866900 -0.41044100 -0.45116800
v -0.10858400 -0.43418000 -0.63768500
v -0.10177400 -0.44774600 -0.61055600
v -0.11196800 -0.45792000 -0.58003900
v -0.12212100 -0.46809400 -0.54949400
v -0.15266200 -0.49861600 -0.41723500
v -0.25439600 -0.45792000 -0.39688200
v -0.27474300 -0.43757200 -0.43758900
v -0.28832200 -0.43078900 -0.43081400
v -0.12212100 -0.48844200 -0.48846000
v -0.12212100 -0.50879000 -0.40707300
v -0.37647800 -0.35617900 -0.43758900
v -0.39344100 -0.35278800 -0.39349400
v -0.41382900 -0.33244000 -0.37314000
v -0.29170600 -0.43418000 -0.41384800
v -0.35274700 -0.39348400 -0.39349400
v -0.41721300 -0.31546200 -0.39688200
v -0.41861700 -0.31262200 -0.39405400
v -0.41576900 -0.32851900 -0.36922000
v 0.00004367 -0.47277800 -0.36922000
v 0.00004367 -0.45404100 -0.41194400
v 0.00004367 -0.43761400 -0.65117900
v -0.04469490 -0.43557900 -0.65521100
v -0.09979260 -0.42540500 -0.65521100
v -0.10177400 -0.42739800 -0.65126300
v -0.04073280 -0.44774600 -0.63091000
v -0.08142670 -0.46809400 -0.56984800
v -0.14246800 -0.50879000 -0.38671900
v -0.24362500 -0.46752200 -0.36922000
v -0.27135900 -0.45452900 -0.37314000
v -0.08142670 -0.48844200 -0.50881400
v -0.06107980 -0.50879000 -0.44775200
v -0.00003888 -0.52913800 -0.38671900
v -0.37387800 -0.37392000 -0.36922000
v -0.41382900 -0.33244000 -0.36922000
v -0.30875100 -0.43087400 -0.36922000
v -0.33240000 -0.41383200 -0.37314000
v 0.00004367 -0.52843900 -0.36922000
v 0.00004367 -0.44096300 -0.64448800
v -0.03392300 -0.44096300 -0.64448800
v -0.02038580 -0.46809400 -0.59020200
v -0.04073280 -0.48844200 -0.52914000
v -0.01980800 -0.52856600 -0.36922000
v -0.14246800 -0.50879000 -0.36922000
v -0.26743800 -0.45647900 -0.36922000
v -0.27135900 -0.45452900 -0.36922000
v -0.02038580 -0.50879000 -0.46810600
v 0.00004367 -0.52913800 -0.38671900
v -0.00003888 -0.52913800 -0.36922000
v -0.33240000 -0.41383200 -0.36922000
v 0.00004367 -0.46131100 -0.60378000
v -0.01357600 -0.46131100 -0.60378000
v -0.00003888 -0.46809400 -0.59020200
v -0.00003888 -0.50879000 -0.46810600
v 0.00004367 -0.50876900 -0.46810600
v 0.00004367 -0.46800900 -0.59037000
v 0.00004367 -0.46807300 -0.59020200
v 0.00004367 -0.48844200 -0.52914000
f 47 70 71
f 46 68 69
f 45 67 68
f 57 79 80
f 43 87 66
f 43 65 87
f 47 71 48
f 43 59 65
f 43 51 59
f 45 64 67
f 49 72 73
f 53 91 77
f 50 75 52
f 52 75 73
f 52 73 76
f 52 76 53
f 53 76 91
f 53 77 54
f 55 77 81
f 55 81 60
f 56 61 78
f 42 45 44
f 56 78 57
f 50 74 75
f 42 64 45
f 35 60 40
f 42 62 63
f 32 51 33
f 57 80 65
f 33 51 43
f 34 50 52
f 34 52 53
f 34 53 54
f 34 54 35
f 35 54 77
f 35 77 55
f 35 55 60
f 35 40 36
f 37 40 56
f 37 56 38
f 38 57 58
f 38 58 39
f 38 56 57
f 39 58 65
f 39 65 59
f 40 60 61
f 40 61 56
f 41 62 42
f 41 43 66
f 41 66 62
f 42 63 64
f 57 65 58
f 83 98 99
f 60 81 97
f 80 96 86
f 81 92 97
f 82 97 83
f 83 97 104
f 83 104 98
f 83 99 93
f 84 87 100
f 86 100 87
f 88 99 98
f 89 101 102
f 89 102 90
f 91 102 101
f 91 101 103
f 91 103 104
f 91 104 97
f 91 97 92
f 98 104 105
f 101 106 103
f 103 106 107
f 103 107 108
f 103 108 104
f 104 108 105
f 32 59 51
f 80 95 96
f 57 78 79
f 79 95 80
f 78 93 94
f 60 97 82
f 60 82 61
f 61 82 83
f 61 83 78
f 62 66 63
f 63 84 64
f 63 66 84
f 64 85 69
f 64 69 67
f 64 84 85
f 65 86 87
f 65 80 86
f 66 87 84
f 67 69 68
f 72 89 90
f 72 90 73
f 73 90 76
f 73 75 74
f 76 90 102
f 76 102 91
f 77 91 92
f 77 92 81
f 78 83 93
f 78 94 79
f 32 39 59
f 28 69 85
f 29 72 49
f 3 9 11
f 3 11 12
f 3 12 10
f 5 13 14
f 6 15 7
f 7 15 8
f 8 16 33
f 8 33 17
f 8 17 18
f 8 18 9
f 8 15 19
f 8 19 20
f 8 20 21
f 8 21 39
f 8 39 32
f 8 32 16
f 9 18 11
f 10 12 22
f 11 23 24
f 11 24 12
f 11 18 25
f 11 25 23
f 12 26 22
f 3 10 4
f 12 24 27
f 2 9 3
f 2 7 8
f 1 2 3
f 1 3 4
f 1 4 10
f 1 10 22
f 1 22 26
f 1 26 27
f 1 27 45
f 1 45 68
f 31 50 34
f 1 46 28
f 1 28 13
f 1 13 5
f 1 5 14
f 1 14 29
f 1 29 49
f 1 49 73
f 1 73 74
f 1 74 50
f 1 50 31
f 1 31 15
f 1 15 6
f 1 6 2
f 2 6 7
f 2 8 9
f 12 27 26
f 1 68 46
f 13 29 14
f 28 100 86
f 28 86 96
f 28 96 95
f 28 95 79
f 28 79 94
f 28 94 93
f 28 93 99
f 28 99 88
f 28 88 70
f 28 70 47
f 28 47 48
f 28 48 29
f 29 48 71
f 29 71 70
f 29 70 88
f 29 88 98
f 29 98 105
f 29 105 108
f 29 107 106
f 29 106 101
f 29 101 89
f 29 89 72
f 13 28 29
f 28 84 100
f 28 85 84
f 29 108 107
f 28 46 69
f 15 31 30
f 16 32 33
f 15 30 19
f 17 23 25
f 17 25 18
f 19 30 20
f 20 30 31
f 20 31 34
f 20 34 35
f 20 35 36
f 20 36 21
f 17 33 23
f 21 38 39
f 21 37 38
f 27 44 45
f 24 42 27
f 23 43 41
f 27 42 44
f 23 42 24
f 23 41 42
f 21 40 37
f 21 36 40
f 23 33 43

