# https://github.com/mikedh/trimesh
v 0.40412800 -0.23452900 -0.59539200
v 0.39554600 -0.24938600 -0.59539200
v 0.39174900 -0.25440600 -0.60040000
v 0.37118300 -0.23452900 -0.66100700
v 0.32099400 -0.23452900 -0.59539200
v 0.38925700 -0.25944900 -0.59539200
v 0.34088800 -0.31546300 -0.60040000
v 0.33072300 -0.31546300 -0.62076500
v 0.31035500 -0.31546300 -0.66145000
v 0.33072300 -0.27475800 -0.68181500
v 0.33068400 -0.33070400 -0.59539200
v 0.33072300 -0.25440600 -0.70215800
v 0.28978900 -0.23452900 -0.78310800
v 0.12905800 -0.23452900 -0.82175400
v 0.11830000 -0.23658700 -0.82175400
v 0.00008493 -0.26962500 -0.82175400
v 0.00008493 -0.39890700 -0.60246100
v 0.00008493 -0.40363300 -0.59539200
v 0.31035500 -0.33581500 -0.62076500
v 0.26965800 -0.33581500 -0.68181500
v 0.26965800 -0.29511100 -0.74284300
v 0.28998700 -0.27475800 -0.74284300
v 0.28998700 -0.25440600 -0.76320800
v 0.32637300 -0.33414200 -0.59539200
v 0.26965800 -0.25440600 -0.78355100
v 0.26942100 -0.23452900 -0.80345000
v 0.25008100 -0.23452900 -0.82175400
v 0.00008493 -0.33199300 -0.82175400
v 0.00008493 -0.46552600 -0.59539200
v 0.26965800 -0.37649700 -0.60040000
v 0.22896100 -0.39684900 -0.62076500
v 0.22896100 -0.37649700 -0.66145000
v 0.18826400 -0.33581500 -0.76320800
v 0.22896100 -0.29511100 -0.78355100
v 0.26965800 -0.27475800 -0.76320800
v 0.26839200 -0.37900700 -0.59539200
v 0.22896100 -0.27475800 -0.80389400
v 0.24929000 -0.25440600 -0.80389400
v 0.22769500 -0.25693900 -0.82175400
v 0.00008493 -0.35275200 -0.80050300
v 0.03306960 -0.33199300 -0.82175400
v 0.00008493 -0.38660500 -0.75319200
v 0.00257658 -0.46552600 -0.59539200
v 0.24497900 -0.39517500 -0.59539200
v 0.20859300 -0.41720100 -0.60040000
v 0.18826400 -0.39684900 -0.66145000
v 0.20859300 -0.37649700 -0.68181500
v 0.16793500 -0.31546300 -0.80389400
v 0.12723800 -0.39684900 -0.70215800
v 0.10687000 -0.33581500 -0.80389400
v 0.20796000 -0.27602500 -0.82175400
v 0.21235000 -0.27224800 -0.82175400
v 0.00008493 -0.37263000 -0.77825500
v 0.03393970 -0.35275200 -0.80050300
v 0.05359610 -0.33165400 -0.82175400
v 0.07463670 -0.33242300 -0.82086800
v 0.00008493 -0.37654200 -0.77329100
v 0.00680843 -0.37988900 -0.76659900
v 0.04750540 -0.42059300 -0.68520500
v 0.07625830 -0.45532700 -0.59539200
v 0.04750540 -0.44094500 -0.64449800
v 0.04074240 -0.44772900 -0.63093600
v 0.10176800 -0.44772900 -0.61057100
v 0.20732700 -0.41971100 -0.59539200
v 0.12723800 -0.43755300 -0.62076500
v 0.12660500 -0.31672900 -0.82175400
v 0.16667000 -0.29764300 -0.82175400
v 0.10857100 -0.42059300 -0.66486300
v 0.10857100 -0.40024100 -0.70554800
v 0.10687000 -0.37649700 -0.74284300
v 0.08820240 -0.33920700 -0.80730600
v 0.10449700 -0.32403300 -0.82175400
v 0.07641650 -0.33068200 -0.82175400
v 0.07463670 -0.37310500 -0.75981800
v 0.08820240 -0.37988900 -0.74623400
v 0.09986960 -0.45152800 -0.59539200
v 0.10857100 -0.44094500 -0.62415500
v 0.12466800 -0.44264100 -0.61057100
v 0.11699500 -0.44772900 -0.59539200
v 0.13989400 -0.44264100 -0.59539200
f 41 56 54
f 34 52 37
f 34 48 51
f 37 52 39
f 40 54 53
f 41 55 56
f 34 51 52
f 42 57 58
f 43 63 60
f 42 59 43
f 43 59 61
f 43 61 62
f 43 62 63
f 44 64 45
f 33 50 48
f 45 64 65
f 42 58 59
f 33 49 50
f 27 38 37
f 33 47 46
f 45 65 46
f 25 34 37
f 25 37 38
f 26 38 27
f 27 37 39
f 28 41 54
f 28 54 40
f 33 46 49
f 29 42 43
f 30 44 31
f 31 44 45
f 31 45 46
f 31 46 47
f 31 47 32
f 32 47 33
f 33 48 34
f 30 36 44
f 46 65 49
f 63 78 80
f 48 66 67
f 59 69 68
f 59 68 77
f 59 77 61
f 60 63 76
f 61 77 62
f 62 77 63
f 63 77 78
f 58 69 59
f 25 35 34
f 63 79 76
f 64 80 78
f 64 78 65
f 65 78 77
f 65 77 68
f 70 75 71
f 71 75 74
f 63 80 79
f 48 50 66
f 58 75 69
f 58 71 74
f 48 67 51
f 49 65 68
f 49 68 69
f 49 69 75
f 49 75 70
f 49 70 50
f 50 70 71
f 58 74 75
f 50 71 72
f 53 54 57
f 54 56 57
f 55 73 56
f 56 73 72
f 56 72 71
f 56 71 58
f 56 58 57
f 50 72 66
f 24 36 30
f 21 23 22
f 21 34 35
f 1 6 2
f 2 6 3
f 3 7 8
f 3 8 9
f 3 9 10
f 3 10 4
f 3 6 11
f 1 11 6
f 3 11 7
f 4 12 13
f 5 14 15
f 5 15 16
f 5 16 17
f 5 17 18
f 7 11 8
f 8 11 9
f 4 10 12
f 9 11 19
f 1 24 11
f 1 44 36
f 1 2 3
f 1 3 4
f 1 4 13
f 1 13 26
f 1 26 27
f 1 27 14
f 1 14 5
f 1 36 24
f 1 5 18
f 1 29 43
f 23 35 25
f 1 60 76
f 1 76 79
f 1 79 80
f 1 80 64
f 1 64 44
f 1 18 29
f 9 19 20
f 1 43 60
f 9 21 22
f 16 28 40
f 16 40 53
f 16 53 57
f 16 57 42
f 16 42 29
f 16 29 18
f 16 18 17
f 19 24 30
f 19 30 31
f 19 31 20
f 20 32 33
f 20 33 34
f 20 34 21
f 21 35 23
f 9 20 21
f 14 16 15
f 14 28 16
f 20 31 32
f 14 55 41
f 9 22 10
f 14 41 28
f 10 22 23
f 10 23 12
f 12 23 13
f 13 23 25
f 13 25 38
f 13 38 26
f 11 24 19
f 14 39 52
f 14 52 51
f 14 73 55
f 14 51 67
f 14 67 66
f 14 66 72
f 14 27 39
f 14 72 73

