# https://github.com/mikedh/trimesh
v -0.25614400 0.00004054 0.36287200
v -0.25614400 0.25663200 0.19561100
v 0.00005985 0.25778500 0.35955800
v -0.23743400 0.00004054 0.37991800
v -0.25614400 0.00004054 0.46459400
v -0.25614400 0.26793400 0.18992900
v 0.00005985 0.26465600 0.35612500
v 0.00005985 0.21708700 0.40023900
v -0.21706800 0.00004054 0.40023900
v -0.25100200 0.00004054 0.47485300
v -0.25614400 0.06106120 0.46459400
v -0.25614400 0.26793400 0.33241100
v 0.00005985 0.26793400 0.35450700
v 0.00005985 0.19673800 0.42059900
v -0.19672700 0.00004054 0.42059900
v -0.25100200 0.06106120 0.47485300
v -0.18315800 0.00004054 0.59302900
v -0.25614400 0.07349090 0.46013500
v -0.25614400 0.24984000 0.35162700
v -0.24929700 0.25440300 0.35620400
v -0.23918900 0.26793400 0.34937800
v 0.00005985 0.26793400 0.45622900
v 0.00005985 0.15465100 0.50061900
v -0.18993000 0.00004054 0.43417200
v -0.25614400 0.09407580 0.45196800
v -0.18315800 0.04071220 0.59302900
v -0.12213600 0.00004054 0.59302900
v -0.25614400 0.22949100 0.37198700
v -0.22895600 0.25440300 0.37652500
v -0.25614400 0.20914200 0.39230800
v -0.24929700 0.21367800 0.39684500
v -0.14656500 0.12494000 0.59302900
v -0.20517900 0.26793400 0.38335100
v -0.05772710 0.26793400 0.45622900
v -0.00001539 0.18315500 0.59302900
v 0.00005985 0.18315500 0.59018800
v 0.00005985 0.12845400 0.55443900
v -0.12213600 0.00004054 0.56982800
v -0.12888200 0.00004054 0.55629400
v -0.16279200 0.00004054 0.48842700
v -0.25614400 0.18315500 0.41002400
v -0.16938800 0.08141020 0.59302900
v 0.00005985 0.12213400 0.59018800
v -0.00001539 0.12213400 0.59302900
v -0.20859000 0.25440300 0.39684500
v -0.25614400 0.19291000 0.40438200
v -0.16843500 0.08329820 0.59302900
v -0.13613100 0.13472100 0.59302900
v -0.10503000 0.15630300 0.59302900
v -0.10302400 0.15748300 0.59302900
v -0.10114300 0.15842700 0.59302900
v -0.06046100 0.17877600 0.59302900
v -0.20056400 0.26793400 0.38587600
v -0.08310920 0.26793400 0.44439200
v -0.04072210 0.18315500 0.59302900
v 0.00005985 0.17471100 0.59302900
v 0.00005985 0.12213400 0.56982800
v -0.11804700 0.14778000 0.59302900
f 20 29 21
f 20 28 30
f 20 30 31
f 20 31 32
f 22 34 55
f 21 29 33
f 22 55 35
f 22 35 36
f 19 28 20
f 23 37 38
f 20 32 29
f 17 42 26
f 17 52 51
f 17 32 47
f 17 48 32
f 17 58 48
f 17 49 58
f 17 50 49
f 17 51 50
f 17 55 52
f 17 35 55
f 17 56 35
f 17 44 56
f 17 27 44
f 23 38 39
f 17 47 42
f 23 39 40
f 34 54 52
f 25 26 41
f 16 26 25
f 52 54 53
f 45 58 49
f 45 48 58
f 43 56 44
f 42 47 46
f 41 42 46
f 37 57 38
f 35 56 36
f 34 52 55
f 33 52 53
f 33 51 52
f 33 50 51
f 33 49 50
f 33 45 49
f 32 46 47
f 32 48 45
f 30 32 31
f 30 46 32
f 29 32 45
f 29 45 33
f 27 57 43
f 27 38 57
f 27 43 44
f 26 42 41
f 23 40 24
f 16 25 18
f 1 27 17
f 14 23 15
f 3 6 7
f 2 6 3
f 1 6 2
f 1 12 6
f 1 19 12
f 1 28 19
f 1 30 28
f 1 46 30
f 1 41 46
f 1 25 41
f 1 18 25
f 3 7 13
f 1 5 11
f 1 17 10
f 1 38 27
f 1 39 38
f 1 40 39
f 1 24 40
f 1 15 24
f 1 9 15
f 1 4 9
f 1 3 4
f 1 2 3
f 15 23 24
f 1 10 5
f 3 13 22
f 1 11 18
f 3 36 56
f 12 20 21
f 3 22 36
f 12 19 20
f 11 16 18
f 10 26 16
f 10 17 26
f 9 14 15
f 8 14 9
f 6 13 7
f 6 34 22
f 6 54 34
f 6 53 54
f 6 33 53
f 6 22 13
f 6 21 33
f 3 56 43
f 3 57 37
f 3 37 23
f 3 23 14
f 3 14 8
f 3 8 9
f 3 43 57
f 5 10 16
f 5 16 11
f 6 12 21
f 3 9 4

