# https://github.com/mikedh/trimesh
v -0.39608400 -0.00106811 -0.73421600
v -0.39346900 -0.00106811 -0.73947400
v -0.33490000 -0.00106811 -0.73421600
v -0.39608400 0.01884090 -0.73421600
v -0.37597200 -0.00106811 -0.77445600
v -0.39346900 0.01357380 -0.73947400
v -0.37990400 0.00681600 -0.76660400
v -0.31885100 -0.00106811 -0.74625400
v -0.20389400 0.25592700 -0.73421600
v -0.38592500 0.08217880 -0.73421600
v -0.37990400 0.08820780 -0.74625400
v -0.31552100 -0.00106811 -0.85465400
v -0.33241600 0.07462590 -0.82087500
v -0.35275500 0.03394660 -0.80051300
v -0.31552100 0.02049720 -0.85465400
v -0.22413900 -0.00106811 -0.85465400
v -0.20389400 0.33735200 -0.73421600
v -0.20406400 0.08148310 -0.85465400
v -0.20389400 0.10165700 -0.85465400
v -0.38140900 0.10248500 -0.73421600
v -0.37651700 0.10685800 -0.74287000
v -0.33918900 0.08820780 -0.80730400
v -0.31885100 0.10854700 -0.82765400
v -0.31205900 0.09499870 -0.84122500
v -0.30030000 0.08406700 -0.85465400
v -0.20389400 0.32579100 -0.75266700
v -0.21371600 0.33069400 -0.74287000
v -0.20506100 0.33718700 -0.73421600
v -0.20389400 0.24390200 -0.85465400
v -0.38082600 0.10470500 -0.73421600
v -0.35616000 0.12723100 -0.76322000
v -0.33580300 0.10685800 -0.80390800
v -0.37008300 0.14097800 -0.73421600
v -0.35616000 0.16791000 -0.74287000
v -0.31544500 0.12723100 -0.82425800
v -0.29512600 0.12723100 -0.84460800
v -0.29518200 0.10192200 -0.85465400
v -0.20389400 0.31244100 -0.77376000
v -0.24577500 0.31098400 -0.73421600
v -0.22235100 0.32638700 -0.73421600
v -0.21371600 0.30018400 -0.78357000
v -0.23405400 0.29001400 -0.78357000
v -0.27476900 0.29001400 -0.74287000
v -0.22400700 0.22392700 -0.85465400
v -0.20389400 0.24439900 -0.85441800
v -0.33580300 0.14757000 -0.78357000
v -0.36046900 0.16575700 -0.73421600
v -0.34013000 0.20643600 -0.73421600
v -0.33580300 0.20859000 -0.74287000
v -0.33580300 0.18825000 -0.76322000
v -0.29512600 0.16791000 -0.82425800
v -0.28507900 0.12219600 -0.85465400
v -0.25441100 0.20859000 -0.84460800
v -0.26472200 0.16290800 -0.85465400
v -0.20389400 0.29157100 -0.80039500
v -0.21371600 0.26964200 -0.82425800
v -0.28340400 0.28567500 -0.73421600
v -0.21371600 0.24930200 -0.84460800
v -0.29512600 0.22896200 -0.78357000
v -0.29512600 0.26964200 -0.74287000
v -0.28647100 0.28262700 -0.73421600
v -0.24436400 0.20358700 -0.85465400
v -0.20389400 0.24453200 -0.85428800
v -0.29943400 0.26748800 -0.73421600
v -0.27476900 0.20859000 -0.82425800
v -0.23405400 0.22896200 -0.84460800
v -0.20389400 0.26473900 -0.83406800
v -0.20389400 0.26401000 -0.83481100
f 31 34 50
f 31 50 46
f 27 43 39
f 31 46 35
f 29 44 45
f 33 47 34
f 35 46 50
f 34 48 49
f 34 49 50
f 35 50 51
f 35 51 36
f 27 42 43
f 36 52 37
f 34 47 48
f 27 41 42
f 21 34 31
f 27 40 28
f 27 39 40
f 26 38 27
f 24 37 25
f 24 36 37
f 24 35 36
f 23 35 24
f 23 32 35
f 22 32 23
f 21 33 34
f 21 30 33
f 21 32 22
f 21 35 32
f 36 51 65
f 27 38 41
f 36 65 53
f 53 66 62
f 36 62 54
f 21 31 35
f 58 68 63
f 58 66 59
f 58 62 66
f 56 68 58
f 56 67 68
f 55 67 56
f 60 64 61
f 53 59 66
f 53 65 59
f 50 65 51
f 50 59 65
f 49 59 50
f 49 60 59
f 36 53 62
f 48 60 49
f 45 62 58
f 45 58 63
f 44 62 45
f 43 59 60
f 43 61 57
f 43 60 61
f 42 59 43
f 42 58 59
f 42 56 58
f 41 56 42
f 39 43 57
f 38 56 41
f 38 55 56
f 36 54 52
f 48 64 60
f 20 30 21
f 1 9 17
f 17 26 27
f 5 13 14
f 5 7 13
f 4 11 7
f 4 10 11
f 4 7 6
f 3 8 9
f 2 7 5
f 2 6 7
f 1 6 2
f 1 4 6
f 1 10 4
f 1 20 10
f 1 30 20
f 1 33 30
f 1 47 33
f 1 48 47
f 1 64 48
f 1 61 64
f 1 57 61
f 1 39 57
f 1 40 39
f 1 28 40
f 1 3 9
f 1 8 3
f 1 16 8
f 1 12 16
f 1 5 12
f 1 2 5
f 17 27 28
f 5 14 15
f 5 15 12
f 1 17 28
f 8 16 9
f 7 11 13
f 15 24 25
f 13 15 14
f 13 24 15
f 13 23 24
f 12 18 16
f 12 19 18
f 12 29 19
f 12 44 29
f 12 62 44
f 12 54 62
f 12 52 54
f 12 37 52
f 12 25 37
f 12 15 25
f 13 22 23
f 11 21 22
f 11 22 13
f 9 18 19
f 9 19 29
f 9 16 18
f 9 45 63
f 9 63 68
f 9 68 67
f 9 29 45
f 9 67 55
f 9 55 38
f 9 38 26
f 9 26 17
f 10 20 11
f 11 20 21

