# https://github.com/mikedh/trimesh
v 0.00006035 -0.29652800 0.42259100
v -0.00001341 -0.29652800 0.42455800
v 0.00006035 -0.31208100 0.41381400
v 0.00006035 -0.29652800 0.33396000
v -0.04072530 -0.29652800 0.42455800
v -0.04072530 -0.31208100 0.41381400
v 0.00006035 -0.33243900 0.39343400
v 0.00006035 -0.29853200 0.31877700
v -0.00001341 -0.29652800 0.32276200
v -0.10176900 -0.29652800 0.40417900
v -0.02036940 -0.33243900 0.39343400
v -0.10176900 -0.31208100 0.39343400
v -0.10176900 -0.33243900 0.37310500
v -0.06108130 -0.37313100 0.33239600
v -0.00001341 -0.39348800 0.31206700
v 0.00006035 -0.39348800 0.31201700
v 0.00006035 -0.46039000 -0.08129680
v -0.00001341 -0.46396500 -0.09078030
v -0.25107000 -0.37818600 -0.08397040
v -0.25107000 -0.29846400 0.13909400
v -0.23545900 -0.29652800 0.15564000
v -0.11337300 -0.29652800 0.39979000
v -0.16281200 -0.29652800 0.37653500
v -0.14245600 -0.31208100 0.37310500
v -0.18316800 -0.31208100 0.35272600
v -0.14245600 -0.33243900 0.35272600
v -0.12212500 -0.37313100 0.31206700
v -0.10176900 -0.39348800 0.29168800
v -0.04072530 -0.41382300 0.27135900
v -0.04072530 -0.46808700 0.16285300
v -0.00001341 -0.40706000 0.28492800
v 0.00006035 -0.46808700 0.16285300
v 0.00006035 -0.40025100 0.29849800
v 0.00006035 -0.46045900 -0.08139770
v 0.00006035 -0.50103700 -0.09078030
v -0.25107000 -0.38228500 -0.09078030
v -0.25107000 -0.29652800 0.14812400
v -0.21227600 -0.29652800 0.35035500
v -0.21367700 -0.31547400 0.33068100
v -0.17299000 -0.33583100 0.33068100
v -0.15263400 -0.37652400 0.28997300
v -0.13227800 -0.39688100 0.26964400
v -0.12212500 -0.40195900 0.26712200
v -0.12212500 -0.43418100 0.21027100
v -0.12212500 -0.44772900 0.18313200
v -0.10176900 -0.46808700 0.14247400
v -0.02036940 -0.48844500 0.12214500
v -0.00001341 -0.48844500 0.12214500
v 0.00006035 -0.48842200 0.12214500
v -0.00001341 -0.52916000 -0.09078030
v 0.00006035 -0.52916000 -0.08139770
v -0.25107000 -0.46865600 -0.09078030
v -0.25107000 -0.29652800 0.31060500
v -0.23260700 -0.29652800 0.32997500
v -0.23403300 -0.31547400 0.31035200
v -0.23403300 -0.33583100 0.28997300
v -0.21367700 -0.37652400 0.24931500
v -0.19334600 -0.39688100 0.22893500
v -0.17299000 -0.41721600 0.20860600
v -0.15263400 -0.43757300 0.18822700
v -0.14245600 -0.44265100 0.18570500
v -0.12212500 -0.46300900 0.14504700
v -0.12212500 -0.48844500 0.08143630
v -0.02036940 -0.50880200 0.06110730
v -0.00001341 -0.50880200 0.06110730
v 0.00006035 -0.50875700 0.06110730
v -0.09080400 -0.52916000 -0.09078030
v 0.00006035 -0.52916000 -0.04068920
v -0.22154400 -0.48277500 -0.09078030
v -0.25107000 -0.46808700 -0.06787870
v -0.25107000 -0.29846400 0.30868800
v -0.25107000 -0.31214900 0.29501700
v -0.25107000 -0.33248400 0.27463800
v -0.25107000 -0.33749400 0.26878600
v -0.23403300 -0.37652400 0.22893500
v -0.19334600 -0.43757300 0.14756900
v -0.23403300 -0.41721600 0.14756900
v -0.21367700 -0.43757300 0.12724000
v -0.18316800 -0.44265100 0.14504700
v -0.14245600 -0.48336700 0.08395850
v -0.12212500 -0.50880200 0.00001931
v -0.06108130 -0.50880200 0.04072780
v -0.02036940 -0.52916000 -0.02030970
v -0.00001341 -0.52916000 -0.02030970
v 0.00006035 -0.52911400 -0.02030970
v -0.10176900 -0.52670000 -0.09078030
v -0.06108130 -0.52916000 -0.06101820
v -0.14245600 -0.50880200 -0.02030970
v -0.16281200 -0.50880200 -0.09078030
v -0.16281200 -0.50880200 -0.06101820
v -0.17638300 -0.50201600 -0.05425870
v -0.25107000 -0.46637900 -0.04664160
v -0.25107000 -0.37818600 0.20774900
v -0.25107000 -0.41887800 0.12638200
v -0.25107000 -0.43923600 0.06534460
v -0.21367700 -0.45790800 0.06615170
v -0.15263400 -0.47826600 0.08653120
v -0.20349900 -0.46300900 0.06362950
v -0.18316800 -0.48336700 0.02292100
v -0.14245600 -0.50370100 0.00259197
v -0.19673900 -0.48165900 0.00682928
v -0.25107000 -0.46467100 -0.03725900
v -0.25107000 -0.44178600 0.05550800
v -0.21707000 -0.46130100 0.04753780
v -0.19334600 -0.47826600 0.02544320
v -0.23742600 -0.46130100 0.00682928
v -0.25107000 -0.46214400 -0.02590900
f 56 72 73
f 55 72 56
f 55 71 72
f 53 71 55
f 52 69 70
f 50 83 87
f 56 73 74
f 50 87 67
f 53 55 54
f 56 74 93
f 59 76 60
f 56 75 57
f 57 76 58
f 57 75 77
f 57 77 78
f 57 78 76
f 58 76 59
f 60 76 79
f 60 79 61
f 61 79 80
f 50 84 83
f 61 80 62
f 56 93 75
f 50 68 84
f 41 57 42
f 49 65 66
f 62 80 63
f 35 51 50
f 38 54 55
f 38 55 39
f 39 55 56
f 39 56 57
f 39 57 40
f 40 57 41
f 42 57 58
f 42 58 59
f 42 59 60
f 42 60 43
f 43 60 61
f 43 61 44
f 44 61 45
f 45 61 62
f 45 62 46
f 46 62 63
f 46 63 47
f 47 63 64
f 47 64 65
f 47 65 48
f 48 65 49
f 50 51 68
f 63 80 81
f 90 101 91
f 63 82 64
f 81 83 82
f 83 88 87
f 86 88 90
f 86 90 89
f 88 100 99
f 88 99 101
f 88 101 90
f 91 101 92
f 92 101 102
f 95 103 104
f 81 88 83
f 95 104 96
f 96 101 105
f 96 105 99
f 96 99 98
f 96 98 97
f 99 105 101
f 101 106 107
f 103 106 104
f 101 104 106
f 103 107 106
f 32 48 49
f 96 104 101
f 81 100 88
f 80 100 81
f 80 99 100
f 64 82 83
f 64 83 84
f 64 84 65
f 65 84 85
f 65 85 66
f 67 87 88
f 67 88 86
f 68 85 84
f 69 89 90
f 69 90 70
f 70 90 91
f 70 91 92
f 75 93 94
f 75 94 77
f 76 78 80
f 76 80 79
f 77 94 78
f 78 94 95
f 78 95 96
f 78 96 97
f 78 97 80
f 80 97 98
f 80 98 99
f 63 81 82
f 31 48 32
f 101 107 102
f 30 47 31
f 2 6 3
f 3 6 11
f 3 11 7
f 4 8 9
f 5 10 12
f 5 12 6
f 6 12 13
f 6 13 14
f 6 14 11
f 7 11 15
f 2 5 6
f 7 15 16
f 9 17 18
f 9 18 19
f 9 19 20
f 9 20 21
f 10 22 12
f 11 14 15
f 12 23 24
f 12 24 13
f 12 22 23
f 13 24 25
f 8 17 9
f 1 5 2
f 1 10 5
f 1 22 10
f 31 47 48
f 1 2 3
f 1 3 7
f 1 7 16
f 1 16 33
f 1 33 32
f 1 32 49
f 1 49 66
f 1 66 85
f 1 85 68
f 1 68 51
f 1 51 35
f 1 35 34
f 1 34 17
f 1 8 4
f 1 4 9
f 1 9 21
f 1 21 37
f 1 37 53
f 1 53 54
f 1 54 38
f 1 38 23
f 1 23 22
f 13 25 26
f 13 26 27
f 1 17 8
f 14 27 28
f 19 74 73
f 19 73 72
f 19 72 71
f 19 71 53
f 19 53 37
f 19 37 20
f 20 37 21
f 23 38 25
f 23 25 24
f 25 38 39
f 25 39 40
f 25 40 26
f 26 40 27
f 27 41 42
f 27 42 28
f 28 42 43
f 28 43 44
f 28 44 29
f 29 44 30
f 30 44 45
f 30 45 46
f 30 46 47
f 13 27 14
f 19 93 74
f 19 94 93
f 27 40 41
f 19 103 95
f 14 28 15
f 19 95 94
f 15 28 29
f 15 29 30
f 15 30 31
f 15 31 32
f 15 33 16
f 17 34 18
f 18 35 50
f 18 50 67
f 18 67 86
f 18 86 89
f 15 32 33
f 18 69 52
f 18 89 69
f 19 92 102
f 19 70 92
f 19 102 107
f 19 36 52
f 19 52 70
f 18 34 35
f 18 36 19
f 18 52 36
f 19 107 103

