# https://github.com/mikedh/trimesh
v 0.26751900 -0.27143800 0.31729500
v 0.25322600 -0.27143800 0.33464300
v 0.25440400 -0.29003300 0.31543200
v 0.26751900 -0.28642500 0.30234000
v 0.26751900 -0.27143800 0.16658300
v 0.23288500 -0.27143800 0.35497300
v 0.21369700 -0.29003300 0.35614300
v 0.25440400 -0.31039300 0.29510300
v 0.26751900 -0.32712000 0.26162900
v 0.00008493 -0.27143800 0.35263100
v 0.26751900 -0.35651300 -0.05810190
v 0.21251900 -0.27143800 0.37530200
v 0.19333000 -0.29003300 0.37647200
v 0.21369700 -0.33072800 0.31543200
v 0.23403700 -0.33072800 0.29510300
v 0.25440400 -0.33072800 0.27472100
v 0.25440400 -0.37144900 0.21368000
v 0.26751900 -0.34995300 0.22677200
v 0.00008493 -0.27143800 0.45443600
v 0.26456100 -0.35873300 -0.06102890
v 0.00008493 -0.46338600 -0.08923410
v 0.26751900 -0.35797600 -0.06102890
v 0.19744000 -0.27143800 0.38514700
v 0.18306900 -0.27143800 0.39344900
v 0.06107950 -0.27143800 0.45443600
v 0.17299000 -0.30020000 0.37647200
v 0.18314700 -0.33244400 0.33240800
v 0.19333000 -0.34092100 0.31543200
v 0.18314700 -0.35363700 0.30526700
v 0.21369700 -0.37144900 0.25439100
v 0.22385400 -0.39433200 0.20351500
v 0.24422000 -0.39433200 0.18313300
v 0.25440400 -0.40195100 0.15269300
v 0.26751900 -0.38083400 0.17163800
v 0.26751900 -0.36930400 0.19468100
v 0.00008493 -0.29172300 0.43416000
v 0.26751900 -0.35946500 -0.06395580
v 0.26751900 -0.37331600 -0.08923410
v 0.00008493 -0.52913400 -0.08923410
v 0.06107950 -0.29172300 0.43416000
v 0.10178600 -0.33244400 0.37312000
v 0.16280700 -0.31294100 0.36630800
v 0.10178600 -0.35363700 0.34597900
v 0.10178600 -0.39350000 0.29169700
v 0.11194300 -0.40195100 0.27472100
v 0.18314700 -0.39433200 0.24422700
v 0.22385400 -0.41466700 0.16285700
v 0.24422000 -0.41466700 0.14247500
v 0.24422000 -0.43502800 0.10176400
v 0.25440400 -0.42228700 0.11198100
v 0.26751900 -0.39541700 0.14247500
v 0.00008493 -0.33244400 0.39344900
v 0.26751900 -0.46303300 -0.08923410
v 0.08141980 -0.52913400 -0.08923410
v 0.00008493 -0.52913400 -0.04069980
v 0.02037280 -0.33244400 0.39344900
v 0.06107950 -0.37313900 0.33240800
v 0.08141980 -0.37399700 0.32559600
v 0.00008493 -0.39350000 0.31202600
v 0.04071310 -0.41380900 0.27131500
v 0.05089630 -0.42228700 0.25439100
v 0.12212600 -0.41466700 0.24422700
v 0.16280700 -0.41466700 0.22384500
v 0.05089630 -0.46300700 0.17302200
v 0.11194300 -0.46300700 0.15269300
v 0.18314700 -0.43502800 0.16285700
v 0.22385400 -0.43502800 0.12214600
v 0.26456100 -0.43502800 0.06110540
v 0.26751900 -0.41575200 0.10176400
v 0.14244100 -0.47572300 0.10176400
v 0.13231000 -0.48334200 0.09159900
v 0.23403700 -0.44264700 0.09159900
v 0.25440400 -0.46300700 -0.01015290
v 0.26456100 -0.45536300 0.00001163
v 0.24681200 -0.47539500 -0.08923410
v 0.26751900 -0.45644800 -0.02031750
v 0.10958700 -0.52348300 -0.08923410
v 0.08141980 -0.52913400 -0.08135790
v 0.04071310 -0.52913400 -0.04069980
v 0.00008493 -0.52910900 -0.02031750
v 0.00008493 -0.40026100 0.29850900
v 0.04071310 -0.46131700 0.17642800
v 0.15262400 -0.44264700 0.17302200
v 0.16280700 -0.43502800 0.18313300
v 0.01018960 -0.48334200 0.13231000
v 0.00008493 -0.48841400 0.12214600
v 0.12212600 -0.48843900 0.08143450
v 0.26751900 -0.43134400 0.06403230
v 0.26751900 -0.45170400 0.00299182
v 0.21369700 -0.46300700 0.05088760
v 0.15262400 -0.50370300 -0.01015290
v 0.21369700 -0.48334200 -0.03048200
v 0.23639300 -0.48160200 -0.08923410
v 0.26751900 -0.45501000 -0.00876926
v 0.11429900 -0.52229700 -0.08923410
v 0.14244100 -0.50879900 -0.02031750
v 0.06107950 -0.52913400 -0.06102890
v 0.10178600 -0.50879900 0.02039400
v 0.06107950 -0.50879900 0.04072300
v 0.00008493 -0.50877400 0.06110540
v 0.00008493 -0.46807800 0.16285700
v 0.02037280 -0.46131700 0.17642800
v 0.06107950 -0.48843900 0.10176400
v 0.16280700 -0.50879900 -0.08135790
v 0.15498000 -0.51172600 -0.08923410
f 49 72 73
f 47 66 67
f 47 67 49
f 47 49 48
f 49 68 69
f 49 69 50
f 49 67 70
f 49 70 71
f 49 71 72
f 49 73 74
f 62 65 83
f 52 59 56
f 53 76 75
f 54 77 78
f 55 79 80
f 56 59 57
f 59 81 82
f 59 82 61
f 59 61 60
f 61 82 64
f 62 83 63
f 49 74 68
f 46 66 47
f 43 58 44
f 45 65 62
f 63 83 84
f 33 69 51
f 33 51 34
f 36 52 56
f 36 56 40
f 39 54 78
f 39 78 97
f 39 97 79
f 39 79 55
f 40 56 41
f 41 56 57
f 41 57 43
f 43 57 58
f 33 50 69
f 44 58 57
f 44 57 59
f 44 59 60
f 44 60 61
f 44 61 45
f 45 62 63
f 45 63 46
f 45 61 64
f 45 64 65
f 46 63 66
f 63 84 66
f 75 76 93
f 64 85 86
f 79 98 99
f 79 99 80
f 79 97 98
f 80 99 100
f 81 101 102
f 81 102 82
f 82 102 85
f 85 102 86
f 86 100 99
f 86 99 103
f 78 98 97
f 86 103 87
f 87 103 99
f 87 99 98
f 87 98 96
f 91 96 92
f 92 96 104
f 92 104 93
f 93 104 105
f 95 105 96
f 96 105 104
f 33 49 50
f 86 102 101
f 78 96 98
f 77 96 78
f 77 95 96
f 64 86 65
f 65 86 87
f 65 87 71
f 65 71 83
f 66 84 70
f 66 70 67
f 68 88 69
f 68 74 89
f 68 89 88
f 70 84 83
f 70 83 71
f 71 90 72
f 71 87 96
f 71 96 91
f 71 91 90
f 72 90 73
f 73 91 92
f 73 92 93
f 73 93 76
f 73 76 94
f 73 94 74
f 73 90 91
f 74 94 89
f 64 82 85
f 33 48 49
f 20 38 21
f 31 48 32
f 2 6 7
f 2 7 3
f 3 8 4
f 3 7 8
f 4 8 9
f 5 11 10
f 6 12 13
f 6 13 7
f 7 13 14
f 7 14 8
f 1 12 6
f 8 14 15
f 8 16 9
f 9 17 18
f 9 16 17
f 10 11 20
f 10 20 21
f 10 21 39
f 10 39 55
f 10 55 80
f 10 80 100
f 10 100 86
f 8 15 16
f 10 86 101
f 1 23 12
f 1 25 24
f 31 46 47
f 1 2 3
f 1 3 4
f 1 4 9
f 1 9 18
f 1 18 35
f 1 35 34
f 1 34 51
f 1 51 69
f 1 69 88
f 1 24 23
f 1 88 89
f 1 94 76
f 1 76 53
f 1 53 38
f 1 38 37
f 1 37 22
f 1 22 11
f 1 11 5
f 1 5 10
f 1 10 19
f 1 19 25
f 1 89 94
f 10 101 81
f 1 6 2
f 10 59 52
f 20 37 38
f 21 38 53
f 21 53 75
f 21 75 93
f 21 93 105
f 21 105 95
f 21 95 77
f 21 77 54
f 25 40 26
f 26 41 42
f 20 22 37
f 26 42 27
f 27 42 41
f 27 41 43
f 27 43 29
f 27 29 28
f 29 43 44
f 29 44 45
f 29 45 46
f 29 46 30
f 10 81 59
f 31 47 48
f 26 40 41
f 19 40 25
f 21 54 39
f 10 36 19
f 10 52 36
f 19 36 40
f 11 22 20
f 12 23 13
f 13 23 24
f 13 24 25
f 13 25 26
f 13 26 27
f 14 27 28
f 14 28 29
f 14 29 30
f 14 30 15
f 13 27 14
f 17 34 35
f 15 17 16
f 17 30 46
f 17 46 31
f 17 31 32
f 17 32 48
f 17 48 33
f 17 33 34
f 15 30 17
f 17 35 18

