# https://github.com/mikedh/trimesh
v -0.37450400 -0.00109859 -0.65521300
v -0.21681500 -0.29819700 -0.65521300
v -0.43558900 -0.00109859 -0.65521300
v -0.44773800 -0.00109859 -0.42740000
v -0.21938100 -0.31259100 -0.62640500
v -0.21091100 -0.31259100 -0.65521300
v -0.43558900 -0.04467830 -0.65521300
v -0.45738300 -0.00109859 -0.61162500
v -0.45973200 -0.00109859 -0.39869600
v -0.33425500 -0.30844400 -0.38986400
v -0.33131800 -0.31259100 -0.39238300
v -0.31688200 -0.31259100 -0.65521300
v -0.42538700 -0.09978570 -0.65521300
v -0.42739700 -0.10176800 -0.65126500
v -0.43416700 -0.10856900 -0.63770500
v -0.44773800 -0.04071370 -0.63089900
v -0.46786200 -0.00109859 -0.58998600
v -0.46560600 -0.00109859 -0.38986400
v -0.33320400 -0.31259100 -0.38986400
v -0.33298800 -0.31259100 -0.62640500
v -0.35617300 -0.27474500 -0.64108200
v -0.33298800 -0.29225000 -0.65521300
v -0.42031800 -0.12610400 -0.65521300
v -0.43756700 -0.13229500 -0.62074200
v -0.44773800 -0.10176800 -0.61056000
v -0.46807900 -0.08142670 -0.56985400
v -0.48845000 -0.02037250 -0.52914900
v -0.48845000 -0.00109859 -0.52914900
v -0.52669000 -0.00109859 -0.38986400
v -0.41861700 -0.31259100 -0.38986400
v -0.33583200 -0.31259100 -0.62074200
v -0.39685400 -0.27474500 -0.55967200
v -0.39685400 -0.23403200 -0.62074200
v -0.37651300 -0.23403200 -0.65521300
v -0.39994600 -0.18712800 -0.65521300
v -0.41719500 -0.21369100 -0.60037700
v -0.45790800 -0.15266700 -0.55967200
v -0.45790800 -0.11195400 -0.58003700
v -0.46807900 -0.12214000 -0.54948900
v -0.48845000 -0.12214000 -0.48847000
v -0.48845000 -0.08142670 -0.50881000
v -0.50879100 -0.06108550 -0.44776500
v -0.50857500 -0.00109859 -0.46789700
v -0.50879100 -0.10176800 -0.42740000
v -0.50879100 -0.12214000 -0.40706000
v -0.50879100 -0.12214000 -0.38986400
v -0.43416700 -0.29170100 -0.38986400
v -0.41861700 -0.31259100 -0.39404600
v -0.35617300 -0.31259100 -0.58003700
v -0.35759500 -0.31259100 -0.57718000
v -0.39345400 -0.29170100 -0.53592900
v -0.39401000 -0.31259100 -0.49249700
v -0.39685400 -0.29508600 -0.51899300
v -0.41382600 -0.27136000 -0.51561600
v -0.41382600 -0.25098800 -0.55629500
v -0.41719500 -0.23403200 -0.58003700
v -0.39685400 -0.21369100 -0.64108200
v -0.39064100 -0.20576100 -0.65521300
v -0.39685400 -0.19331900 -0.65521300
v -0.45790800 -0.21369100 -0.47828800
v -0.43756700 -0.23403200 -0.51899300
v -0.49862100 -0.13229500 -0.43758200
v -0.49862100 -0.15266700 -0.39687700
v -0.50211400 -0.14565300 -0.38986400
v -0.43416700 -0.29170100 -0.41384000
v -0.45116900 -0.26800500 -0.38986400
v -0.41382600 -0.31204200 -0.43420500
v -0.41271300 -0.31259100 -0.43475100
v -0.39345400 -0.31204200 -0.49525000
v -0.43756700 -0.25440400 -0.47828800
v -0.45790800 -0.25440400 -0.39687700
v -0.48780100 -0.18252300 -0.38986400
v -0.43756700 -0.27474500 -0.43758200
v -0.46140100 -0.24738900 -0.38986400
f 32 51 52
f 32 52 53
f 32 50 51
f 32 53 54
f 32 54 55
f 32 55 56
f 35 59 57
f 33 56 36
f 33 36 57
f 34 57 58
f 35 57 36
f 36 56 37
f 32 49 50
f 37 60 40
f 33 57 34
f 71 74 72
f 26 39 40
f 30 47 65
f 37 40 39
f 24 37 38
f 24 38 26
f 24 26 25
f 26 38 37
f 26 37 39
f 26 40 41
f 26 41 27
f 27 41 42
f 27 42 43
f 27 43 28
f 29 43 42
f 29 42 44
f 29 44 45
f 29 45 46
f 30 65 48
f 37 56 61
f 60 63 62
f 40 62 45
f 54 61 55
f 55 61 56
f 57 59 58
f 60 71 63
f 60 61 70
f 60 70 71
f 54 70 61
f 63 72 64
f 65 73 67
f 65 66 71
f 65 71 73
f 66 74 71
f 70 73 71
f 24 36 37
f 63 71 72
f 54 73 70
f 54 67 73
f 52 54 53
f 40 45 44
f 40 44 42
f 40 42 41
f 40 60 62
f 45 62 63
f 45 63 64
f 45 64 46
f 47 66 65
f 48 67 68
f 48 65 67
f 50 52 69
f 50 69 51
f 51 69 52
f 52 68 67
f 52 67 54
f 37 61 60
f 24 35 36
f 10 30 19
f 21 49 32
f 1 9 4
f 1 4 2
f 2 5 6
f 2 4 5
f 3 7 8
f 4 9 5
f 1 18 9
f 5 10 11
f 5 19 30
f 5 30 48
f 5 48 68
f 5 68 52
f 5 52 50
f 5 50 49
f 5 11 19
f 5 49 31
f 1 29 18
f 1 28 43
f 23 35 24
f 1 2 6
f 1 6 12
f 1 22 34
f 1 34 58
f 1 58 59
f 1 43 29
f 1 59 35
f 1 23 13
f 1 13 7
f 1 7 3
f 1 3 8
f 1 8 17
f 1 17 28
f 1 35 23
f 5 31 20
f 1 12 22
f 5 12 6
f 14 23 15
f 15 23 24
f 15 24 25
f 15 25 16
f 16 25 26
f 16 26 17
f 13 23 14
f 17 26 27
f 20 31 21
f 21 32 56
f 21 56 33
f 21 31 49
f 21 34 22
f 5 20 12
f 17 27 28
f 12 21 22
f 21 33 34
f 10 47 30
f 12 20 21
f 7 14 15
f 7 15 16
f 7 16 8
f 8 16 17
f 9 18 10
f 10 19 11
f 7 13 14
f 10 29 46
f 10 66 47
f 10 18 29
f 10 74 66
f 5 9 10
f 10 72 74
f 10 64 72
f 10 46 64

