# https://github.com/mikedh/trimesh
v 0.02035550 0.48646600 -0.53307400
v 0.00010621 0.48646600 -0.53307400
v 0.13855100 0.46808300 -0.53307400
v 0.12211300 0.46808300 -0.54951500
v 0.02035550 0.46808300 -0.59022600
v 0.00010621 0.46808300 -0.59022600
v 0.00010621 0.42541200 -0.53307400
v 0.14244800 0.46722600 -0.53307400
v 0.14244800 0.46300400 -0.55207700
v 0.10177900 0.44773200 -0.61058100
v 0.04071130 0.44773200 -0.63093600
v 0.02035550 0.45452600 -0.61736600
v 0.00010621 0.45452600 -0.61736600
v 0.21759000 0.35991300 -0.53307400
v 0.00010621 0.27815900 -0.80729100
v 0.21759000 0.16217800 -0.82066400
v 0.16144100 0.46300400 -0.53307400
v 0.12211300 0.44265200 -0.61311500
v 0.16829700 0.46027300 -0.53307400
v 0.15262600 0.45792400 -0.55461100
v 0.20351500 0.42230100 -0.59278800
v 0.10177900 0.43417500 -0.63772100
v 0.04071130 0.43417500 -0.65807600
v 0.00010621 0.43417500 -0.65807600
v 0.21759000 0.43239700 -0.53307400
v 0.00010621 0.27146000 -0.82066400
v 0.21759000 0.26393500 -0.82066400
v 0.13227000 0.43757200 -0.61567700
v 0.12211300 0.42230100 -0.65382500
v 0.17298100 0.45792400 -0.53425600
v 0.21369300 0.41722100 -0.59532100
v 0.21369300 0.43757200 -0.53307400
v 0.21369300 0.43757200 -0.53425600
v 0.10177900 0.39347200 -0.71911300
v 0.04071130 0.41382400 -0.69875800
v 0.00010621 0.39347200 -0.73944000
v 0.21759000 0.42033200 -0.57614900
v 0.21524700 0.43677900 -0.53307400
v 0.00010621 0.33248200 -0.82066400
v 0.21727000 0.26460200 -0.82066400
v 0.21759000 0.26460200 -0.82035400
v 0.13227000 0.41722100 -0.65638700
v 0.12211300 0.40194900 -0.69450700
v 0.21759000 0.41525200 -0.59239300
v 0.21759000 0.40194900 -0.61939300
v 0.21369300 0.39687000 -0.63603200
v 0.08142290 0.37312100 -0.75979500
v 0.13227000 0.39687000 -0.69704100
v 0.19333700 0.33578400 -0.75810600
v 0.16280300 0.33241800 -0.78015100
v 0.12211300 0.33241800 -0.80050600
v 0.10177900 0.35277000 -0.78015100
v 0.02035550 0.39347200 -0.73944000
v 0.00010621 0.37308900 -0.78012300
v 0.21759000 0.41995100 -0.57750000
v 0.00010621 0.35277000 -0.80050600
v 0.08142290 0.33248200 -0.82066400
v 0.21267100 0.27377700 -0.82066400
v 0.21369300 0.27476100 -0.81917200
v 0.21759000 0.27085600 -0.81720100
v 0.20351500 0.38159800 -0.67418000
v 0.21759000 0.38159800 -0.66010300
v 0.21369300 0.37648600 -0.67671400
v 0.08182750 0.33238700 -0.82066400
v 0.08157200 0.33245000 -0.82066400
v 0.04071130 0.35277000 -0.80050600
v 0.21369300 0.33578400 -0.73775100
v 0.13227000 0.31546400 -0.81917200
v 0.21759000 0.35851600 -0.69980000
v 0.17198100 0.29412900 -0.82066400
v 0.21759000 0.29708100 -0.78375400
v 0.13126900 0.31448000 -0.82066400
v 0.21759000 0.35223000 -0.70917500
f 32 38 33
f 37 55 38
f 31 62 46
f 33 38 44
f 34 47 53
f 34 53 35
f 34 50 51
f 34 48 49
f 34 49 50
f 34 51 52
f 36 53 54
f 31 45 62
f 34 52 47
f 34 43 48
f 31 44 45
f 23 35 53
f 30 33 31
f 19 32 33
f 19 33 30
f 38 55 44
f 21 31 28
f 22 29 34
f 22 34 23
f 23 34 35
f 23 53 36
f 23 36 24
f 25 37 38
f 27 40 41
f 28 31 46
f 28 46 42
f 29 42 43
f 29 43 34
f 31 33 44
f 39 56 66
f 51 64 52
f 40 58 41
f 49 69 67
f 50 68 51
f 51 68 64
f 54 66 56
f 58 70 59
f 59 71 60
f 49 63 69
f 59 70 72
f 59 67 71
f 62 69 63
f 64 68 72
f 67 73 71
f 19 31 20
f 67 69 73
f 59 72 68
f 49 68 50
f 49 59 68
f 49 67 59
f 41 58 59
f 41 59 60
f 42 46 61
f 42 61 43
f 43 61 48
f 46 62 63
f 46 63 61
f 47 54 53
f 47 52 64
f 47 64 65
f 47 65 57
f 47 57 66
f 47 66 54
f 48 61 63
f 48 63 49
f 39 66 57
f 19 30 31
f 14 41 60
f 18 42 29
f 2 56 39
f 2 39 26
f 2 26 15
f 2 15 7
f 3 8 4
f 4 8 9
f 2 54 56
f 4 9 10
f 5 10 11
f 5 11 23
f 5 23 12
f 5 12 13
f 5 13 6
f 7 15 16
f 4 10 5
f 7 16 14
f 2 36 54
f 2 13 24
f 1 2 7
f 1 7 14
f 1 14 25
f 1 25 38
f 18 29 22
f 1 32 19
f 2 24 36
f 1 19 17
f 1 8 3
f 1 3 4
f 1 4 5
f 1 5 6
f 1 6 2
f 2 6 13
f 1 17 8
f 8 17 9
f 1 38 32
f 9 17 19
f 14 55 37
f 14 37 25
f 15 26 16
f 16 26 39
f 16 39 57
f 16 57 65
f 14 44 55
f 16 65 64
f 16 72 70
f 16 70 58
f 16 58 40
f 16 40 27
f 18 28 42
f 9 18 10
f 16 64 72
f 14 45 44
f 18 21 28
f 14 69 62
f 14 62 45
f 9 31 21
f 9 21 18
f 10 18 22
f 10 22 23
f 10 23 11
f 9 20 31
f 12 24 13
f 14 73 69
f 12 23 24
f 14 71 73
f 9 19 20
f 14 27 41
f 14 16 27
f 14 60 71

