# https://github.com/mikedh/trimesh
v -0.31664000 -0.01796030 -0.85239100
v -0.31664000 -0.00106811 -0.85239100
v -0.31155200 -0.04700800 -0.85239100
v -0.31206600 -0.10853800 -0.84121700
v -0.33241800 -0.08817970 -0.82085700
v -0.35277000 -0.04749420 -0.80051700
v -0.37312200 -0.00679295 -0.78015700
v -0.22870400 -0.00106811 -0.85239100
v -0.37597400 -0.00106811 -0.77444500
v -0.29122500 -0.12839500 -0.85239100
v -0.31206600 -0.14923900 -0.82085700
v -0.31545800 -0.13228400 -0.82425400
v -0.32902600 -0.10515000 -0.81748000
v -0.37312200 -0.08817970 -0.75981700
v -0.39347400 -0.02715140 -0.73947600
v -0.39347400 -0.00106811 -0.73947600
v -0.17486900 -0.15447800 -0.85239100
v -0.37450900 -0.00106811 -0.65523900
v -0.27477900 -0.15262700 -0.85239100
v -0.29173900 -0.14923900 -0.84121700
v -0.30602700 -0.16130100 -0.81483600
v -0.31545800 -0.16130100 -0.80391300
v -0.33406200 -0.16130100 -0.78181700
v -0.35035400 -0.16130100 -0.75740400
v -0.32902600 -0.14585200 -0.79712000
v -0.33241800 -0.12889700 -0.80051700
v -0.37312200 -0.12889700 -0.73947600
v -0.37651400 -0.11192600 -0.74287300
v -0.39347400 -0.10853800 -0.71911600
v -0.41382600 -0.04749420 -0.69877600
v -0.43417800 -0.00106811 -0.65807600
v -0.17307000 -0.16130100 -0.85239100
v -0.43559100 -0.00106811 -0.65523900
v -0.33889300 -0.15573300 -0.65523900
v -0.26699300 -0.16130100 -0.85239100
v -0.28570000 -0.16130100 -0.83519600
v -0.39511800 -0.16130100 -0.68007600
v -0.37651400 -0.15262700 -0.72251300
v -0.36973000 -0.14585200 -0.73608000
v -0.39686600 -0.13228400 -0.70217300
v -0.41382600 -0.10853800 -0.67841600
v -0.43417800 -0.04749420 -0.65807600
v -0.33889300 -0.16130100 -0.65523900
v -0.43559100 -0.04467100 -0.65523900
v -0.40488300 -0.16130100 -0.65523900
v -0.41721800 -0.13228400 -0.66145300
v -0.42539000 -0.09977060 -0.65523900
v -0.42030200 -0.12607300 -0.65523900
f 21 45 37
f 21 43 45
f 21 32 43
f 21 35 32
f 21 36 35
f 20 35 36
f 19 35 20
f 18 34 32
f 21 37 24
f 18 33 44
f 18 48 45
f 18 47 48
f 18 44 47
f 17 18 32
f 15 31 16
f 15 42 31
f 15 30 42
f 21 24 23
f 15 29 30
f 18 45 43
f 21 23 22
f 37 45 46
f 24 38 39
f 14 29 15
f 46 48 47
f 45 48 46
f 42 46 47
f 42 47 44
f 41 46 42
f 40 46 41
f 38 40 39
f 37 40 38
f 24 37 38
f 37 46 40
f 31 44 33
f 31 42 44
f 29 42 30
f 29 41 42
f 29 40 41
f 27 39 40
f 25 27 26
f 25 39 27
f 24 39 25
f 32 34 43
f 14 40 29
f 18 43 34
f 13 28 14
f 4 10 11
f 3 10 4
f 2 18 8
f 2 33 18
f 2 31 33
f 2 16 31
f 2 9 16
f 2 7 9
f 1 7 2
f 4 11 12
f 1 6 7
f 1 4 5
f 1 3 4
f 1 10 3
f 1 35 19
f 1 32 35
f 1 17 32
f 1 8 17
f 1 2 8
f 14 28 40
f 1 5 6
f 4 12 26
f 1 19 10
f 4 13 5
f 13 40 28
f 4 26 13
f 13 27 40
f 13 26 27
f 11 25 26
f 11 24 25
f 11 23 24
f 11 22 23
f 11 21 22
f 11 36 21
f 11 26 12
f 10 20 11
f 10 19 20
f 8 18 17
f 7 16 9
f 7 15 16
f 5 13 14
f 7 14 15
f 6 14 7
f 11 20 36
f 5 14 6

