# https://github.com/mikedh/trimesh
v -0.25107000 -0.29652800 0.14816300
v -0.25107000 -0.28828400 0.15430400
v -0.23545900 -0.29652800 0.15561000
v -0.25107000 -0.29652800 0.31064900
v -0.25107000 -0.00001752 0.37296900
v -0.00001341 -0.29652800 0.32280000
v -0.23742600 0.00004054 0.37989400
v -0.23260700 -0.29652800 0.33002900
v -0.23403300 -0.29510600 0.33072600
v -0.23403300 -0.27475600 0.35110700
v -0.25107000 -0.25106800 0.35611600
v -0.25107000 0.00004054 0.37318700
v -0.25097200 0.00004054 0.37310000
v 0.00006035 -0.27812300 0.33921800
v 0.00006035 -0.29170900 0.33242400
v 0.00006035 -0.29652800 0.33403600
v -0.21707000 0.00004054 0.40023200
v -0.21227600 -0.29652800 0.35041000
v -0.21367700 -0.29510600 0.35110700
v -0.13567100 -0.13570300 0.59302900
v -0.23403300 -0.21367700 0.41212100
v -0.25107000 -0.23736500 0.36979000
v -0.25107000 0.00004054 0.46804000
v 0.00006035 -0.21707400 0.40023200
v 0.00006035 -0.29652800 0.42257300
v -0.19673900 0.00004054 0.42061300
v 0.00006035 -0.19672400 0.42061300
v -0.16281200 -0.29652800 0.37654100
v -0.18316800 -0.29170900 0.37310000
v -0.19334600 -0.27475600 0.39174000
v -0.12989300 -0.14075400 0.59302900
v -0.14073500 -0.12992600 0.59302900
v -0.25107000 -0.21033900 0.39674800
v -0.25107000 -0.00001752 0.47474600
v -0.25099700 0.00004054 0.47487700
v -0.00001341 -0.29652800 0.42453300
v 0.00006035 -0.29170900 0.43415800
v -0.18992900 0.00004054 0.43420100
v 0.00006035 -0.18993100 0.43415800
v -0.11337300 -0.29652800 0.39979600
v -0.10176900 -0.29170900 0.41382000
v -0.17299000 -0.27475600 0.40193000
v -0.06076170 -0.17814500 0.59302900
v -0.06098300 -0.17805700 0.59302900
v -0.06213840 -0.17753500 0.59302900
v -0.07428320 -0.17146800 0.59302900
v -0.11499500 -0.15111800 0.59302900
v -0.15111000 -0.11497600 0.59302900
v -0.15263400 -0.11195700 0.59302900
v -0.17299000 -0.07125670 0.59302900
v -0.17753800 -0.06214140 0.59302900
v -0.17805400 -0.06100920 0.59302900
v -0.25099700 -0.18316700 0.41382000
v -0.25107000 -0.18334100 0.41360200
v -0.25107000 -0.06106730 0.47474600
v -0.25099700 -0.06106730 0.47487700
v -0.18316800 0.00004054 0.59302900
v -0.04072530 -0.29652800 0.42453300
v 0.00006035 -0.18316700 0.59019800
v -0.00001341 -0.18316700 0.59302900
v -0.04072530 -0.29170900 0.43415800
v -0.16278700 0.00004054 0.48842100
v 0.00006035 -0.16275900 0.48842100
v -0.10176900 -0.29652800 0.40419500
v -0.04072530 -0.18316700 0.59302900
v -0.17815300 -0.06077700 0.59302900
v -0.25107000 -0.10194100 0.45432100
v -0.25107000 -0.10159300 0.45449500
v -0.18316800 -0.04071730 0.59302900
v -0.12212500 0.00004054 0.59302900
v 0.00006035 -0.13056500 0.59302900
v -0.13567100 0.00004054 0.54268500
v -0.12886100 0.00004054 0.55631600
v 0.00006035 -0.12891000 0.55622900
v -0.00001341 -0.12211700 0.59302900
v 0.00006035 -0.12211700 0.59019800
v -0.12212500 0.00004054 0.56986000
v 0.00006035 -0.12211700 0.56986000
f 26 39 27
f 28 40 41
f 23 34 35
f 28 41 42
f 28 42 29
f 25 37 36
f 26 38 39
f 30 44 45
f 30 42 43
f 30 43 44
f 30 45 46
f 30 46 47
f 32 48 33
f 21 32 33
f 30 47 31
f 29 42 30
f 21 33 22
f 20 71 75
f 20 32 21
f 20 44 43
f 33 48 49
f 20 43 65
f 20 65 60
f 20 60 71
f 20 75 70
f 20 70 57
f 20 57 69
f 20 69 66
f 20 66 52
f 20 52 51
f 20 51 50
f 20 50 49
f 20 49 48
f 20 48 32
f 20 30 31
f 33 49 50
f 63 72 73
f 33 51 52
f 53 66 67
f 53 67 54
f 55 68 56
f 56 68 66
f 56 66 69
f 59 71 60
f 62 72 63
f 52 66 53
f 63 73 74
f 70 75 76
f 70 76 78
f 70 78 77
f 71 76 75
f 73 77 78
f 73 78 74
f 20 45 44
f 66 68 67
f 33 50 51
f 41 43 42
f 41 61 65
f 33 52 53
f 33 53 54
f 34 55 56
f 34 56 35
f 35 56 69
f 35 69 57
f 36 37 61
f 41 65 43
f 36 61 58
f 37 60 65
f 37 65 61
f 38 62 63
f 38 63 39
f 40 64 41
f 41 64 58
f 41 58 61
f 37 59 60
f 20 46 45
f 14 25 16
f 20 31 47
f 1 55 34
f 1 34 23
f 1 23 12
f 1 12 5
f 1 5 2
f 2 5 3
f 3 5 7
f 3 7 6
f 4 8 9
f 4 9 10
f 4 10 11
f 5 12 13
f 5 13 7
f 6 14 15
f 6 15 16
f 1 68 55
f 6 7 14
f 1 67 68
f 1 33 54
f 20 47 46
f 1 2 3
f 1 3 6
f 1 6 16
f 1 16 25
f 1 25 36
f 1 36 58
f 1 58 64
f 1 64 40
f 1 40 28
f 1 28 18
f 1 18 8
f 1 4 11
f 1 11 22
f 1 22 33
f 1 54 67
f 7 13 12
f 1 8 4
f 7 23 35
f 14 39 63
f 14 63 74
f 14 74 78
f 14 78 76
f 14 76 71
f 14 71 59
f 14 59 37
f 14 37 25
f 17 26 27
f 17 27 24
f 18 28 29
f 18 29 30
f 18 30 19
f 7 12 23
f 19 30 20
f 14 27 39
f 14 24 27
f 14 16 15
f 11 21 22
f 7 57 70
f 7 35 57
f 14 17 24
f 7 70 77
f 7 77 73
f 7 73 72
f 7 62 38
f 7 38 26
f 7 72 62
f 7 17 14
f 8 18 9
f 10 20 21
f 9 18 19
f 10 21 11
f 9 19 20
f 7 26 17
f 9 20 10

