# https://github.com/mikedh/trimesh
v 0.26751900 -0.46303800 -0.08918070
v 0.26751900 -0.37329200 -0.08918070
v 0.27241000 -0.46240000 -0.08918070
v 0.26751900 -0.45643500 -0.02032830
v 0.46441500 0.00212726 -0.08918070
v 0.26751900 0.00212726 0.35464700
v 0.27712300 -0.46121600 -0.08918070
v 0.26751900 -0.45497800 -0.00879062
v 0.52916000 0.00212726 -0.08918070
v 0.26751900 0.00212726 0.45645700
v 0.28754600 -0.45502400 -0.08918070
v 0.27138600 -0.45452300 -0.02032830
v 0.30529500 -0.43498900 -0.04067960
v 0.28493400 -0.43498900 0.02037420
v 0.26751900 -0.45170000 0.00296077
v 0.52916000 -0.08925740 -0.08918070
v 0.52916000 0.00212726 -0.04067960
v 0.26751900 -0.05815840 0.45645700
v 0.27138600 0.00212726 0.45453400
v 0.36896300 -0.39396400 -0.08918070
v 0.31208200 -0.43417000 -0.06103080
v 0.32565500 -0.41463600 -0.02032830
v 0.30529500 -0.41463600 0.04072540
v 0.28493400 -0.41463600 0.08142790
v 0.26751900 -0.43134700 0.06401450
v 0.52600900 -0.10337300 -0.08918070
v 0.52916000 -0.02036600 -0.02032830
v 0.50879900 -0.12213200 0.00002292
v 0.50879900 -0.14248500 -0.02032830
v 0.52872400 0.00212726 -0.02075570
v 0.52916000 -0.00001279 -0.02032830
v 0.27138600 -0.05428810 0.45453400
v 0.26751900 -0.18647000 0.40047800
v 0.27476700 -0.18829200 0.39684600
v 0.33244200 0.00212726 0.39342700
v 0.33244200 -0.41381600 -0.04067960
v 0.37731300 -0.38508500 -0.08918070
v 0.37313800 -0.37311000 0.00002292
v 0.34599000 -0.39428300 0.00002292
v 0.33244200 -0.39346300 0.04072540
v 0.31208200 -0.39346300 0.08142790
v 0.32565500 -0.37393000 0.10177900
v 0.29512700 -0.40193200 0.09163030
v 0.29512700 -0.39177800 0.11198200
v 0.28493400 -0.37393000 0.16283300
v 0.27138600 -0.41381600 0.10177900
v 0.26751900 -0.41572900 0.10177900
v 0.50879900 -0.16283900 -0.08918070
v 0.50879900 -0.16283900 -0.06103080
v 0.50879900 -0.02036600 0.06107670
v 0.50879900 -0.06107250 0.04072540
v 0.48843800 -0.14248500 0.06107670
v 0.50370200 -0.14503500 0.00002292
v 0.48843800 -0.18319200 0.00002292
v 0.50836400 0.00212726 0.06064940
v 0.50879900 -0.00001279 0.06107670
v 0.31208200 -0.03393480 0.41377800
v 0.33244200 -0.01358160 0.39342700
v 0.33244200 -0.09499460 0.37307600
v 0.26751900 -0.19912800 0.38958100
v 0.27476700 -0.22899800 0.35614300
v 0.29512700 -0.20864500 0.35614300
v 0.31546200 -0.20864500 0.33579200
v 0.33582300 -0.16793800 0.33579200
v 0.33582300 -0.12723200 0.35614300
v 0.39582900 0.00212726 0.30737500
v 0.39244900 -0.36737300 -0.08918070
v 0.39349900 -0.33240300 0.04072540
v 0.35277700 -0.35275700 0.10177900
v 0.35618400 -0.36122600 0.07127900
v 0.39349900 -0.35275700 -0.02032830
v 0.33582300 -0.36122600 0.11198200
v 0.33582300 -0.35107200 0.13233300
v 0.29512700 -0.37142500 0.15268400
v 0.29512700 -0.35107200 0.19333300
v 0.27138600 -0.37311000 0.18318400
v 0.26751900 -0.40115800 0.13094400
v 0.46807800 -0.26455900 -0.08918070
v 0.46807800 -0.26455900 -0.08138210
v 0.48843800 -0.02036600 0.12213000
v 0.48165100 -0.14927000 0.07464420
v 0.46300700 -0.20609500 0.06107670
v 0.48334200 -0.18574200 0.02037420
v 0.46807800 -0.10177900 0.14248200
v 0.46300700 -0.12468200 0.14248200
v 0.46300700 -0.26710900 -0.06103080
v 0.48802800 0.00212726 0.12170300
v 0.48843800 -0.00001279 0.12213000
v 0.37313800 -0.05428810 0.33237300
v 0.33922900 -0.10856300 0.35950800
v 0.26751900 -0.21948200 0.36923000
v 0.29512700 -0.22899800 0.33579200
v 0.26751900 -0.22535500 0.36335400
v 0.27476700 -0.33071900 0.25438700
v 0.33582300 -0.22899800 0.29508900
v 0.35618400 -0.18829200 0.29508900
v 0.37651900 -0.14758500 0.29508900
v 0.39349900 -0.09499460 0.29167100
v 0.42059500 -0.04750370 0.25775200
v 0.46131600 -0.04750370 0.17640000
v 0.47022900 0.00212726 0.15861300
v 0.45452900 -0.29169700 -0.08918070
v 0.45452900 -0.29169700 -0.08138210
v 0.43416900 -0.29169700 0.00002292
v 0.39349900 -0.31205000 0.08142790
v 0.35618400 -0.33071900 0.13233300
v 0.33582300 -0.33071900 0.17303500
v 0.26751900 -0.36924000 0.19466800
v 0.26751900 -0.37502200 0.18318400
v 0.26751900 -0.38080500 0.17164600
v 0.46549100 -0.26979600 -0.08918070
v 0.46131600 -0.27812800 -0.08138210
v 0.46131600 -0.10856300 0.15604900
v 0.44264600 -0.14503500 0.18318400
v 0.44264600 -0.20609500 0.12213000
v 0.44264600 -0.24675600 0.06107670
v 0.46300700 -0.22644800 0.02037420
v 0.44264600 -0.26710900 0.02037420
v 0.47719500 0.00212726 0.14461800
v 0.37992500 -0.12891700 0.29845500
v 0.29512700 -0.31036600 0.25438700
v 0.26751900 -0.32707600 0.26159800
v 0.26751900 -0.34993400 0.22677100
v 0.31546200 -0.31036600 0.23403600
v 0.33582300 -0.26965900 0.25438700
v 0.37651900 -0.22899800 0.23403600
v 0.37651900 -0.20864500 0.25438700
v 0.39687900 -0.12723200 0.27473800
v 0.40026000 -0.10856300 0.27810300
v 0.44095600 -0.12891700 0.19669800
v 0.44774300 -0.12213200 0.18318400
v 0.45870400 -0.28336400 -0.08918070
v 0.43416900 -0.27134400 0.04072540
v 0.41380800 -0.27134400 0.10177900
v 0.41721400 -0.24930600 0.13233300
v 0.39687900 -0.29001200 0.11198200
v 0.39687900 -0.24930600 0.17303500
v 0.37651900 -0.24930600 0.21368400
v 0.43754900 -0.14758500 0.19333300
v 0.43754900 -0.16793800 0.17303500
v 0.43754900 -0.20864500 0.13233300
v 0.42228500 -0.24675600 0.12213000
v 0.39687900 -0.18829200 0.23403600
v 0.41721400 -0.22899800 0.15268400
v 0.41721400 -0.20864500 0.17303500
f 67 102 103
f 69 106 107
f 69 107 73
f 74 107 75
f 75 107 94
f 69 73 72
f 69 105 106
f 68 103 104
f 68 133 105
f 68 104 133
f 66 100 101
f 68 71 103
f 67 103 71
f 75 94 76
f 68 105 69
f 76 94 108
f 82 116 118
f 76 109 110
f 82 115 142
f 66 99 100
f 82 142 116
f 82 117 83
f 82 118 117
f 81 115 82
f 76 108 109
f 81 114 115
f 80 100 113
f 80 101 100
f 80 88 101
f 79 86 112
f 79 112 111
f 78 79 111
f 80 113 84
f 66 98 99
f 52 81 82
f 65 120 90
f 54 86 79
f 140 143 145
f 52 114 81
f 52 85 114
f 52 84 85
f 52 83 53
f 55 87 56
f 52 82 83
f 50 84 52
f 50 80 84
f 50 88 80
f 50 56 88
f 83 117 86
f 49 54 79
f 50 52 51
f 66 89 98
f 56 87 88
f 58 59 89
f 65 97 120
f 64 97 65
f 64 96 97
f 63 96 64
f 63 95 96
f 62 92 95
f 57 59 58
f 61 94 92
f 61 93 122
f 61 91 93
f 59 98 89
f 59 90 98
f 59 65 90
f 58 89 66
f 61 122 94
f 84 113 85
f 128 143 139
f 85 131 114
f 116 142 134
f 115 135 142
f 115 141 135
f 114 141 115
f 114 140 141
f 114 139 140
f 116 134 133
f 114 130 139
f 107 125 124
f 107 138 125
f 107 137 138
f 106 136 137
f 106 137 107
f 105 133 134
f 114 131 130
f 105 136 106
f 120 128 129
f 126 138 137
f 48 79 78
f 140 144 141
f 140 145 144
f 139 143 140
f 137 145 143
f 137 144 145
f 125 138 126
f 135 137 136
f 135 141 144
f 134 142 135
f 128 130 129
f 128 139 130
f 127 137 143
f 126 137 127
f 135 144 137
f 85 113 131
f 105 135 136
f 104 116 133
f 95 121 124
f 94 124 121
f 94 107 124
f 94 123 108
f 94 122 123
f 92 121 95
f 95 124 125
f 92 94 121
f 88 119 101
f 87 119 88
f 86 104 103
f 86 118 104
f 86 117 118
f 86 103 112
f 90 120 98
f 105 134 135
f 95 125 126
f 95 127 96
f 104 118 116
f 103 111 112
f 103 132 111
f 102 132 103
f 100 131 113
f 100 130 131
f 95 126 127
f 99 130 100
f 98 129 99
f 98 120 129
f 97 128 120
f 97 143 128
f 97 127 143
f 96 127 97
f 99 129 130
f 48 49 79
f 54 83 86
f 46 110 77
f 7 12 8
f 7 11 12
f 5 17 9
f 5 30 17
f 5 55 30
f 5 87 55
f 8 12 13
f 5 119 87
f 5 66 101
f 5 35 66
f 5 19 35
f 5 10 19
f 5 6 10
f 4 7 8
f 5 101 119
f 3 7 4
f 8 13 14
f 9 17 31
f 14 25 15
f 14 24 25
f 14 23 24
f 13 36 22
f 13 21 36
f 13 23 14
f 8 14 15
f 13 22 23
f 11 21 12
f 11 20 21
f 10 32 19
f 10 18 32
f 9 27 16
f 9 31 27
f 12 21 13
f 16 27 28
f 2 6 5
f 1 10 6
f 1 11 7
f 1 37 20
f 1 67 37
f 1 102 67
f 1 132 102
f 1 111 132
f 1 7 3
f 1 78 111
f 1 26 48
f 1 16 26
f 1 9 16
f 1 5 9
f 1 2 5
f 46 77 47
f 1 48 78
f 1 6 2
f 1 3 4
f 1 8 15
f 1 18 10
f 1 33 18
f 1 60 33
f 1 91 60
f 1 93 91
f 1 122 93
f 1 4 8
f 1 123 122
f 1 109 108
f 1 110 109
f 1 77 110
f 1 47 77
f 1 25 47
f 1 15 25
f 1 108 123
f 16 28 29
f 1 20 11
f 17 30 31
f 35 58 66
f 34 65 59
f 34 64 65
f 34 63 64
f 34 95 63
f 34 62 95
f 37 67 38
f 34 92 62
f 34 91 61
f 34 60 91
f 33 60 34
f 32 59 57
f 32 34 59
f 32 57 58
f 34 61 92
f 30 56 31
f 38 68 69
f 38 70 40
f 46 76 110
f 16 29 26
f 45 75 76
f 45 74 75
f 44 107 74
f 44 73 107
f 38 69 70
f 43 73 44
f 42 69 72
f 41 69 42
f 40 69 41
f 40 70 69
f 38 71 68
f 38 67 71
f 43 72 73
f 30 55 56
f 42 72 43
f 29 83 54
f 23 41 24
f 23 40 41
f 23 38 40
f 23 39 38
f 22 39 23
f 22 38 39
f 24 41 42
f 22 36 38
f 20 36 21
f 19 58 35
f 19 32 58
f 29 54 49
f 18 33 34
f 18 34 32
f 20 38 36
f 24 42 43
f 20 37 38
f 24 44 74
f 24 43 44
f 28 53 29
f 28 51 52
f 27 51 28
f 29 53 83
f 27 56 50
f 27 31 56
f 27 50 51
f 24 45 76
f 24 74 45
f 26 49 48
f 24 76 46
f 28 52 53
f 24 46 25
f 25 46 47
f 26 29 49

