# https://github.com/mikedh/trimesh
v -0.46564500 -0.00109859 -0.09080960
v -0.46562500 -0.00109859 -0.38986400
v -0.52916000 -0.00109859 -0.09080960
v -0.33441400 -0.31045600 -0.09080960
v -0.33424100 -0.30844400 -0.38986400
v -0.52668500 -0.00109859 -0.38986400
v -0.52916000 -0.00109859 -0.36632600
v -0.52916000 -0.09078920 -0.09080960
v -0.33364600 -0.31259100 -0.09080960
v -0.33347400 -0.31149300 -0.38986400
v -0.52808500 -0.00109859 -0.38775600
v -0.50880600 -0.12214000 -0.38986400
v -0.52892900 -0.00109859 -0.38646800
v -0.52916000 -0.02037250 -0.36632600
v -0.52916000 -0.12214000 -0.12213500
v -0.52405700 -0.12214000 -0.09924110
v -0.52405700 -0.11369200 -0.09080960
v -0.43307200 -0.31259100 -0.09080960
v -0.33320500 -0.31259100 -0.38986400
v -0.50213100 -0.14565300 -0.38986400
v -0.50880600 -0.14248100 -0.36632600
v -0.52916000 -0.10176800 -0.30525600
v -0.52916000 -0.08142670 -0.32563200
v -0.52916000 -0.12214000 -0.26456200
v -0.50880600 -0.18316300 -0.16282900
v -0.48845300 -0.22384600 -0.10178800
v -0.50880600 -0.16279200 -0.09080960
v -0.43416500 -0.31204200 -0.09080960
v -0.43368600 -0.31259100 -0.10901900
v -0.41864600 -0.31259100 -0.38986400
v -0.48782000 -0.18252300 -0.38986400
v -0.48845300 -0.18316300 -0.38667300
v -0.50880600 -0.16279200 -0.32563200
v -0.46810000 -0.24421800 -0.36632600
v -0.50880600 -0.18316300 -0.24421600
v -0.46810000 -0.26455900 -0.10178800
v -0.48166200 -0.23741700 -0.09499610
v -0.48210400 -0.23387900 -0.09080960
v -0.48599800 -0.22384600 -0.09080960
v -0.43389700 -0.31259100 -0.12945400
v -0.45808700 -0.28072200 -0.09080960
v -0.46130900 -0.27813000 -0.09499610
v -0.45451800 -0.29170100 -0.10855100
v -0.43307200 -0.31259100 -0.33295100
v -0.43416500 -0.31204200 -0.33239500
v -0.45451800 -0.27136000 -0.37311800
v -0.43416500 -0.29170100 -0.38986400
v -0.46142400 -0.24738900 -0.38986400
v -0.48845300 -0.22384600 -0.28490900
v -0.46810000 -0.26455900 -0.30525600
v -0.46175000 -0.27459200 -0.09080960
v -0.43389700 -0.31259100 -0.25071500
v -0.45451800 -0.29170100 -0.31204800
v -0.45118100 -0.26800500 -0.38986400
f 25 35 50
f 25 50 36
f 25 36 26
f 26 36 42
f 26 37 38
f 28 41 42
f 26 38 39
f 26 39 27
f 28 40 29
f 26 42 37
f 24 33 35
f 20 31 32
f 21 32 34
f 21 24 22
f 21 33 24
f 20 32 21
f 18 28 29
f 16 27 17
f 15 27 16
f 15 26 27
f 28 42 43
f 15 35 25
f 21 34 33
f 28 43 40
f 37 42 51
f 30 45 46
f 15 24 35
f 46 48 54
f 46 54 47
f 45 53 46
f 45 52 53
f 44 52 45
f 41 51 42
f 40 53 52
f 40 43 53
f 37 51 38
f 36 43 42
f 36 53 43
f 36 50 53
f 35 49 50
f 34 53 50
f 34 46 53
f 34 48 46
f 33 49 35
f 33 50 49
f 33 34 50
f 32 48 34
f 31 48 32
f 30 46 47
f 30 44 45
f 13 23 14
f 15 25 26
f 12 22 23
f 2 47 54
f 2 30 47
f 2 19 30
f 2 10 19
f 2 5 10
f 1 5 2
f 1 4 5
f 1 9 4
f 1 18 9
f 1 28 18
f 1 41 28
f 1 51 41
f 1 38 51
f 1 39 38
f 1 17 27
f 1 8 17
f 1 3 8
f 1 7 3
f 1 13 7
f 1 11 13
f 1 6 11
f 1 2 6
f 12 23 13
f 2 54 48
f 2 48 31
f 1 27 39
f 2 20 12
f 12 21 22
f 2 31 20
f 12 20 21
f 11 12 13
f 9 19 10
f 9 44 30
f 9 52 44
f 9 40 52
f 9 29 40
f 9 18 29
f 8 16 17
f 9 30 19
f 7 13 14
f 2 12 6
f 8 15 16
f 3 14 23
f 3 23 22
f 3 7 14
f 3 22 24
f 3 15 8
f 4 9 5
f 5 9 10
f 6 12 11
f 3 24 15

