# https://github.com/mikedh/trimesh
v -0.04071670 -0.30525400 0.89549200
v 0.00008493 -0.30519500 0.89532400
v 0.00008493 -0.30525400 0.89549200
v -0.04071670 -0.29849200 0.90906300
v -0.10178500 -0.27982000 0.91836800
v -0.10178500 -0.28490700 0.89549200
v -0.06077370 -0.17814200 0.59302900
v -0.04071670 -0.18316900 0.59302900
v -0.00000474 -0.18316900 0.59302900
v 0.00008493 -0.18316900 0.61059700
v 0.00008493 -0.29846200 0.90909700
v -0.00000474 -0.29849200 0.90906300
v -0.04071670 -0.29169900 0.92263400
v -0.11535500 -0.27814400 0.90227700
v -0.08142860 -0.27814400 0.92942000
v -0.09159160 -0.27473300 0.93109900
v -0.11194800 -0.27473300 0.92092100
v -0.12892600 -0.27135200 0.88870600
v -0.06098300 -0.17805200 0.59302900
v 0.00008493 -0.13056500 0.59302900
v 0.00008493 -0.29169900 0.92263400
v -0.15600700 -0.25776700 0.90227700
v -0.16957800 -0.25100400 0.88870600
v -0.15263000 -0.25438600 0.92092100
v -0.00000474 -0.27814400 0.92942000
v -0.08142860 -0.26455900 0.93620500
v -0.13230400 -0.25438600 0.93109900
v -0.11499700 -0.15115200 0.59302900
v -0.06214870 -0.17754400 0.59302900
v -0.00000474 -0.12212600 0.59302900
v 0.00008493 -0.12212600 0.61059700
v 0.00008493 -0.26455900 0.93620500
v -0.21707500 -0.21707200 0.90227700
v -0.21369800 -0.21369000 0.88531300
v -0.12991200 -0.14073800 0.59302900
v -0.17298600 -0.23403800 0.93109900
v -0.21369800 -0.21369000 0.92092100
v -0.12214100 -0.24421200 0.93620500
v -0.12214100 0.00037803 0.59302900
v -0.12196100 0.00037803 0.61100100
v 0.00008493 -0.12209600 0.63095400
v 0.00008493 -0.24421200 0.93620500
v -0.25778700 -0.15602900 0.90227700
v -0.25100200 -0.16958400 0.88870600
v -0.14076300 -0.12990600 0.59302900
v -0.13571100 -0.13571100 0.59302900
v -0.16279300 -0.22386400 0.93620500
v -0.21369800 -0.19334300 0.93109900
v -0.23402400 -0.17296500 0.93109900
v -0.23743100 -0.17637700 0.92263400
v -0.25438000 -0.15261800 0.92092100
v -0.18314900 0.00037803 0.59302900
v -0.12193100 0.00037803 0.63155900
v 0.00008493 -0.12209600 0.67163400
v -0.24421700 0.00037803 0.93620500
v 0.00008493 -0.21707200 0.92263400
v -0.21707500 0.00037803 0.92263400
v -0.27814300 -0.11533400 0.90227700
v -0.27135800 -0.12891900 0.88870600
v -0.27473600 -0.11195300 0.92092100
v -0.15113500 -0.11497500 0.59302900
v -0.20350500 -0.18316900 0.93620500
v -0.22386100 -0.16279200 0.93620500
v -0.25438000 -0.13230000 0.93109900
v -0.18314900 -0.04070610 0.59302900
v -0.30528400 0.00037803 0.89549200
v -0.12193100 0.00037803 0.65127700
v 0.00008493 -0.12212600 0.75306100
v -0.26457200 0.00037803 0.93620500
v 0.00008493 -0.19672400 0.90227700
v -0.19671900 0.00037803 0.90227700
v -0.28492800 -0.10177900 0.89549200
v -0.27981700 -0.10177900 0.91836800
v -0.17815700 -0.06075450 0.59302900
v -0.17752900 -0.06213090 0.59302900
v -0.17298600 -0.07125740 0.59302900
v -0.27473600 -0.09160500 0.93109900
v -0.24421700 -0.12212600 0.93620500
v -0.30528400 -0.04070610 0.89549200
v -0.29171400 0.00037803 0.92263400
v -0.12214100 0.00037803 0.75306100
v -0.12226000 0.00037803 0.75353200
v 0.00008493 -0.12215600 0.75316200
v -0.26457200 -0.08143120 0.93620500
v 0.00008493 -0.15602900 0.84120700
v -0.15600700 0.00037803 0.84120700
v -0.27814300 -0.08143120 0.92942000
v -0.29171400 -0.04070610 0.92263400
v -0.14246700 0.00037803 0.81406500
v 0.00008493 -0.14247400 0.81406500
v 0.00008493 -0.15267800 0.83452200
f 39 57 71
f 39 71 86
f 39 86 89
f 39 89 82
f 39 82 81
f 39 81 67
f 39 67 53
f 39 53 40
f 43 60 58
f 41 53 67
f 41 67 54
f 42 56 57
f 42 57 55
f 43 58 72
f 43 72 59
f 43 59 44
f 43 51 60
f 27 38 36
f 40 53 41
f 39 55 57
f 36 47 62
f 39 80 69
f 44 59 61
f 30 39 40
f 30 40 31
f 31 40 41
f 33 43 44
f 33 44 34
f 33 37 43
f 34 44 45
f 34 45 46
f 34 46 35
f 36 38 47
f 36 62 48
f 36 48 37
f 37 48 49
f 37 49 50
f 37 50 51
f 37 51 43
f 39 52 66
f 39 66 80
f 39 69 55
f 44 61 45
f 64 84 77
f 48 63 49
f 68 81 82
f 68 82 83
f 69 80 88
f 69 88 87
f 69 87 84
f 70 85 86
f 70 86 71
f 72 73 79
f 72 79 74
f 73 77 87
f 73 87 88
f 73 88 79
f 77 84 87
f 82 89 90
f 82 90 83
f 85 91 86
f 86 91 89
f 89 91 90
f 26 47 38
f 67 81 68
f 48 62 63
f 66 88 80
f 65 74 79
f 49 63 78
f 49 78 64
f 49 64 60
f 49 60 51
f 49 51 50
f 52 65 79
f 52 79 66
f 54 67 68
f 56 70 71
f 56 71 57
f 58 60 73
f 58 73 72
f 59 72 74
f 59 74 75
f 59 75 76
f 59 76 61
f 60 64 77
f 60 77 73
f 64 78 84
f 66 79 88
f 26 62 47
f 7 29 28
f 26 78 63
f 2 32 21
f 2 21 11
f 2 11 3
f 3 11 12
f 4 12 21
f 4 21 13
f 4 13 5
f 5 14 6
f 2 42 32
f 5 13 15
f 5 16 17
f 5 17 14
f 6 14 18
f 6 18 7
f 7 19 29
f 7 28 35
f 7 35 46
f 7 46 45
f 5 15 16
f 2 56 42
f 2 70 56
f 2 85 70
f 1 2 3
f 1 3 12
f 1 12 4
f 26 63 62
f 1 5 6
f 1 6 7
f 1 7 8
f 1 8 2
f 2 8 9
f 2 9 10
f 2 10 20
f 2 20 31
f 2 31 41
f 2 41 54
f 2 54 68
f 2 68 83
f 2 83 90
f 2 90 91
f 2 91 85
f 7 45 61
f 7 61 76
f 1 4 5
f 7 75 74
f 17 27 36
f 17 36 24
f 18 23 28
f 18 28 29
f 18 29 19
f 20 30 31
f 21 32 25
f 22 33 23
f 22 24 37
f 22 37 33
f 23 33 34
f 23 34 35
f 23 35 28
f 24 36 37
f 26 32 42
f 26 42 55
f 26 55 69
f 26 84 78
f 7 76 75
f 16 27 17
f 16 38 27
f 26 69 84
f 15 26 16
f 16 26 38
f 7 65 52
f 7 52 39
f 7 39 30
f 7 30 20
f 7 20 9
f 7 9 8
f 7 18 19
f 9 20 10
f 7 74 65
f 13 21 25
f 13 25 15
f 14 22 23
f 14 23 18
f 14 17 24
f 14 24 22
f 15 25 32
f 11 21 12
f 15 32 26

