# https://github.com/mikedh/trimesh
v 0.29131700 0.06745750 0.43434200
v 0.29131700 0.00212726 0.43434200
v 0.29131700 0.06792860 0.43425600
v 0.18316000 0.04070560 0.59354500
v 0.18316000 0.00212726 0.59354500
v 0.29131700 0.00212726 0.33124000
v 0.17640300 0.06440790 0.59354500
v 0.29131700 0.18954000 0.37837100
v 0.12212500 0.00212726 0.59354500
v 0.27814600 0.00212726 0.33921700
v 0.29131700 0.24163000 0.16026500
v 0.16622600 0.08483760 0.59354500
v 0.29131700 0.19333300 0.37651700
v 0.00008493 0.12212700 0.59354500
v 0.12212500 0.00212726 0.56982900
v 0.28051200 0.25541500 0.15845400
v 0.23743800 0.00212726 0.37988100
v 0.00008493 0.19673000 0.42058700
v 0.00008493 0.23744000 0.37988100
v 0.00008493 0.25541500 0.36435700
v 0.29131700 0.25541500 0.15302100
v 0.14584300 0.12552300 0.59354500
v 0.29131700 0.19712600 0.37276600
v 0.27475400 0.21368800 0.37651700
v 0.00008493 0.18316800 0.59354500
v 0.00008493 0.12212700 0.56982900
v 0.13392700 0.00212726 0.54093800
v 0.19672900 0.00212726 0.42058700
v 0.15422500 0.00212726 0.50023100
v 0.00008493 0.15465500 0.50062000
v 0.00008493 0.25541500 0.46608000
v 0.29131700 0.25541500 0.31446600
v 0.12557500 0.14577900 0.59354500
v 0.27475400 0.23404300 0.35620700
v 0.25440000 0.25439900 0.35620700
v 0.29131700 0.21368800 0.35620700
v 0.04070800 0.18316800 0.59354500
v 0.00008493 0.25100200 0.47487600
v 0.00008493 0.12844900 0.55443500
v 0.05903830 0.25541500 0.46608000
v 0.27372800 0.25541500 0.33481900
v 0.27475400 0.25439900 0.33585400
v 0.29131700 0.25439900 0.31550100
v 0.12546100 0.14587900 0.59354500
v 0.21369100 0.25439900 0.39682700
v 0.25337300 0.25541500 0.35517200
v 0.21266500 0.25541500 0.39583500
v 0.06439770 0.17639900 0.59354500
v 0.06784710 0.25100200 0.47487600
v 0.09059600 0.25541500 0.45689500
v 0.08483750 0.16623400 0.59354500
v 0.13130500 0.25541500 0.43654200
f 16 41 32
f 23 36 34
f 22 35 33
f 22 34 35
f 22 24 34
f 18 29 30
f 18 28 29
f 17 28 18
f 16 32 21
f 23 34 24
f 16 31 40
f 16 47 46
f 16 52 47
f 16 50 52
f 16 40 50
f 16 20 31
f 15 26 27
f 14 39 26
f 14 30 39
f 14 18 30
f 14 19 18
f 25 37 49
f 16 46 41
f 25 49 38
f 35 42 41
f 27 39 30
f 14 20 19
f 48 50 49
f 48 52 50
f 47 52 48
f 45 48 51
f 45 47 48
f 44 45 51
f 40 49 50
f 37 48 49
f 35 47 45
f 26 39 27
f 35 46 47
f 34 42 35
f 34 43 42
f 34 36 43
f 33 45 44
f 33 35 45
f 32 42 43
f 32 41 42
f 31 49 40
f 31 38 49
f 27 30 29
f 35 41 46
f 14 31 20
f 4 12 22
f 14 25 38
f 3 7 4
f 2 10 6
f 2 17 10
f 2 28 17
f 2 29 28
f 2 27 29
f 2 15 27
f 2 9 15
f 2 5 9
f 1 4 5
f 1 3 4
f 1 8 3
f 1 13 8
f 1 23 13
f 1 36 23
f 1 43 36
f 1 32 43
f 1 21 32
f 1 11 21
f 1 6 11
f 1 2 6
f 3 8 7
f 4 7 12
f 1 5 2
f 4 22 33
f 14 38 31
f 13 23 24
f 12 13 22
f 11 16 21
f 10 20 16
f 10 19 20
f 10 18 19
f 10 17 18
f 10 16 11
f 9 26 15
f 9 14 26
f 13 24 22
f 4 33 44
f 7 8 13
f 6 10 11
f 4 9 5
f 4 14 9
f 4 25 14
f 4 37 25
f 4 48 37
f 4 51 48
f 4 44 51
f 7 13 12

